<svg enable-background="new 0 0 100 100" version="1.1" viewBox="0 0 100 100" xml:space="preserve" xmlns="http://www.w3.org/2000/svg" xmlns:cc="http://creativecommons.org/ns#" xmlns:dc="http://purl.org/dc/elements/1.1/" xmlns:rdf="http://www.w3.org/1999/02/22-rdf-syntax-ns#"><metadata><rdf:RDF><cc:Work rdf:about=""><dc:format>image/svg+xml</dc:format><dc:type rdf:resource="http://purl.org/dc/dcmitype/StillImage"/><dc:title/></cc:Work></rdf:RDF></metadata><path d="m91.884 74.732h-15.294v-51.637c0-6.04-4.946-10.771-11.262-10.771h-47.694c-6.104 0-11.263 5.287-11.263 11.546 0 1.332 1.079 2.411 2.41 2.411h15.294v50.862c0 6.211 5.053 11.264 11.264 11.264h47.692c6.211 0 11.264-5.053 11.264-11.264 0-1.331-1.079-2.411-2.411-2.411zm-80.246-53.273c0.952-2.495 3.313-4.312 5.996-4.312 2.807 0 5.199 1.803 6.081 4.312h-12.077zm30.141 55.685c0 3.552-2.889 6.44-6.44 6.44s-6.441-2.889-6.441-6.44v-53.557c0-2.395-0.753-4.614-2.031-6.44h38.462c3.671 0 6.44 2.558 6.44 5.948v51.638h-27.578c-1.332-1e-3 -2.412 1.079-2.412 2.411zm41.252 6.44h-38.457c0.836-1.193 1.446-2.559 1.768-4.029h42.662c-0.955 2.361-3.273 4.029-5.973 4.029z"/><g transform="matrix(.4 0 0 .4 30 25.4)"><path d="m86 47.3h-9v-3.6h-3.6v3.6h-9v-3.6h-3.6v3.6h-9v-3.6h-3.6v3.6h-9v-3.6h-3.6v3.6h-9v-3.6h-3.6v3.6h-8.1v-3.6h-5.4v49.5c0 1.491 1.209 2.7 2.7 2.7h19.8c1.491 0 2.7-1.209 2.7-2.7v-33.3h31.5v33.3c0 1.491 1.208 2.7 2.7 2.7h19.8c1.491 0 2.7-1.209 2.7-2.7v-49.5h-5.4zm-71.1 3.6h1.8v3.6h-1.8zm0 7.2h8.1v3.6h-8.1zm0 7.2h1.8v3.6h-1.8zm0 7.2h8.1v3.6h-8.1zm0 7.2h1.8v3.6h-1.8zm14.4 10.8h-14.4v-3.6h14.4zm0-7.2h-9v-3.6h9zm0-7.2h-2.7v-3.6h2.7zm0-7.2h-9v-3.6h9zm0-7.2h-2.7v-3.6h2.7zm0-7.2h-9v-3.6h9zm12.6 0h-9v-3.6h9zm12.6 0h-9v-3.6h9zm12.6 0h-9v-3.6h9zm3.6-3.6h9v3.6h-9zm4.5 28.8h4.5v3.6h-8.1v-3.6zm-3.6-3.6v-3.6h1.8v3.6zm0-7.2v-3.6h8.1v3.6h-4.5zm0-7.2v-3.6h1.8v3.6zm14.4 28.8h-14.4v-3.6h14.4zm0-7.2h-2.7v-3.6h2.7zm0-7.2h-9v-3.6h9zm0-7.2h-2.7v-3.6h2.7zm0-7.2h-9v-3.6h9zm0-7.2h-2.7v-3.6h2.7z"/><path d="m92.3 22.1h-84.6c-1.491 0-2.7 1.209-2.7 2.7v16.2c0 1.491 1.209 2.7 2.7 2.7h84.6c1.491 0 2.7-1.209 2.7-2.7v-16.2c0-1.491-1.209-2.7-2.7-2.7zm-2.7 7.365v8.835h-79.2v-10.8h79.2z"/><path d="m61.7 84.2h-1.615c3.232-4.921-0.113-12.627-0.263-12.966-0.186-0.419-0.658-0.632-1.095-0.492-0.438 0.139-0.699 0.584-0.61 1.035 0.234 1.17 0.083 2.05-0.427 2.477-0.358 0.299-0.821 0.314-1.12 0.197-0.078-0.03-0.259-0.116-0.277-0.262-0.987-7.897-8.913-7.989-8.993-7.989-0.28 0-0.545 0.131-0.715 0.354s-0.227 0.513-0.153 0.783c1.294 4.752 1.573 9.38 0.583 9.709-0.888 0.295-1.521-0.16-1.896-0.593-0.667-0.77-0.948-1.982-0.614-2.65 0.218-0.436 0.049-0.966-0.38-1.196-0.429-0.229-0.964-0.076-1.206 0.347-0.145 0.253-3.292 5.86-2.184 11.247h-2.435c-0.994 0-1.8 0.806-1.8 1.8v6.3c0 0.994 0.806 1.8 1.8 1.8h23.4c0.994 0 1.8-0.806 1.8-1.8v-6.301c0-0.994-0.806-1.8-1.8-1.8zm-1.8 6.3h-19.8v-2.7h19.8z"/></g></svg>
