<svg enable-background="new 0 0 100 100" version="1.1" viewBox="0 0 100 100" xml:space="preserve" xmlns="http://www.w3.org/2000/svg" xmlns:cc="http://creativecommons.org/ns#" xmlns:dc="http://purl.org/dc/elements/1.1/" xmlns:rdf="http://www.w3.org/1999/02/22-rdf-syntax-ns#"><metadata><rdf:RDF><cc:Work rdf:about=""><dc:format>image/svg+xml</dc:format><dc:type rdf:resource="http://purl.org/dc/dcmitype/StillImage"/><dc:title/></cc:Work></rdf:RDF></metadata><path d="m91.884 74.732h-15.294v-51.637c0-6.04-4.946-10.771-11.262-10.771h-47.694c-6.104 0-11.263 5.287-11.263 11.546 0 1.332 1.079 2.411 2.41 2.411h15.294v50.862c0 6.211 5.053 11.264 11.264 11.264h47.692c6.211 0 11.264-5.053 11.264-11.264 0-1.331-1.079-2.411-2.411-2.411zm-80.246-53.273c0.952-2.495 3.313-4.312 5.996-4.312 2.807 0 5.199 1.803 6.081 4.312h-12.077zm30.141 55.685c0 3.552-2.889 6.44-6.44 6.44s-6.441-2.889-6.441-6.44v-53.557c0-2.395-0.753-4.614-2.031-6.44h38.462c3.671 0 6.44 2.558 6.44 5.948v51.638h-27.578c-1.332-1e-3 -2.412 1.079-2.412 2.411zm41.252 6.44h-38.457c0.836-1.193 1.446-2.559 1.768-4.029h42.662c-0.955 2.361-3.273 4.029-5.973 4.029z"/><g transform="matrix(.36 0 0 .36 32 32)"><path d="m95 5.0519-27.168 11.732c0.74105 1.5548 1.4042 3.2466 1.9261 4.9798 0.33227 1.1042 0.58329 2.1492 0.7578 3.1124l5.53-3.7123-14.303 11.304 5.8414 5.8368 11.308-14.312-3.7213 5.5482c0.96363 0.17441 2.0072 0.41602 3.1123 0.74877 1.7334 0.52192 3.4296 1.1895 4.9843 1.9306zm-33.839 28.602-55.54 55.54c-1.0603 1.0602-0.65431 2.3589 0.40589 3.4191l1.3082 1.3081c1.0602 1.0601 2.3588 1.4662 3.419 0.40595l55.54-55.545z" color="#000000" enable-background="accumulate" opacity=".99"/></g></svg>
