<svg enable-background="new 0 0 100 100" version="1.1" viewBox="0 0 100 100" xml:space="preserve" xmlns="http://www.w3.org/2000/svg" xmlns:cc="http://creativecommons.org/ns#" xmlns:dc="http://purl.org/dc/elements/1.1/" xmlns:rdf="http://www.w3.org/1999/02/22-rdf-syntax-ns#"><metadata><rdf:RDF><cc:Work rdf:about=""><dc:format>image/svg+xml</dc:format><dc:type rdf:resource="http://purl.org/dc/dcmitype/StillImage"/><dc:title/></cc:Work></rdf:RDF></metadata><path d="m91.884 74.732h-15.294v-51.637c0-6.04-4.946-10.771-11.262-10.771h-47.694c-6.104 0-11.263 5.287-11.263 11.546 0 1.332 1.079 2.411 2.41 2.411h15.294v50.862c0 6.211 5.053 11.264 11.264 11.264h47.692c6.211 0 11.264-5.053 11.264-11.264 0-1.331-1.079-2.411-2.411-2.411zm-80.246-53.273c0.952-2.495 3.313-4.312 5.996-4.312 2.807 0 5.199 1.803 6.081 4.312h-12.077zm30.141 55.685c0 3.552-2.889 6.44-6.44 6.44s-6.441-2.889-6.441-6.44v-53.557c0-2.395-0.753-4.614-2.031-6.44h38.462c3.671 0 6.44 2.558 6.44 5.948v51.638h-27.578c-1.332-1e-3 -2.412 1.079-2.412 2.411zm41.252 6.44h-38.457c0.836-1.193 1.446-2.559 1.768-4.029h42.662c-0.955 2.361-3.273 4.029-5.973 4.029z"/><g transform="matrix(.5 0 0 .5 25.308 21.357)"><path d="m72.2 64.4c6.7-14.4 2.5-40.8 0-47.5-0.4-1.1-0.8-2-1.2-2.9-0.4 0.7-1 1.3-1.8 1.8-1.8 1.1-4.4 1.6-7.3 1.7 1.5 2.9 8 17.6 5.9 53.1z"/><path d="m24.7 78v4.7s6.6 10.6 25.5 12.2c5 0.4 9.6-2.8 10.9-7.6 0.2-0.7 0.5-1.5 0.8-2.2-16.7-1.1-29.9-10.9-35.2-15.4-0.8 2.3-1.5 5.1-2 8.3zm11.7 0.8c0.5 0 1 0.4 1 1 0 0.5-0.4 1-1 1s-1-0.4-1-1 0.4-1 1-1zm-1.5 7.6c0.5 0 1 0.4 1 1 0 0.5-0.4 1-1 1-0.5 0-1-0.4-1-1s0.5-1 1-1z"/><path d="m81.1 75.7c-3.2 5-7.8 7.6-10.4 8.8 0.1 0.2 0.2 0.5 0.3 0.8 1.7 4.3 7.7 5.1 10.1 1.1 0.7-1.1 1.1-2.5 0.8-4.2 0 0-0.1-2.6-0.8-6.5z"/><path d="m80.6 73.5c-0.5-1.9-1.1-4-2-6.2-2.5 8.4-10.7 12.1-10.8 12.1s-0.2 0.1-0.3 0.1h-0.6c-11.1 0-29.6-10.4-37.9-15.5-0.6 1.1-1.1 2.5-1.7 4 4.9 4.3 18.4 14.6 35.5 15.6 0.8-1.1 1.8-1.8 3.1-2.1 1.8-0.3 3.1 0.4 4 1.6 2.5-1 7.6-4 10.7-9.6zm-41.4 0.4c-0.5 0-1-0.4-1-1 0-0.5 0.4-1 1-1 0.5 0 1 0.4 1 1 0 0.5-0.5 1-1 1z"/><path d="m74.1 17c0.5 1.2 0.9 2.6 1.2 4.2 1.6-0.9 4.4-2.8 6-5.8-0.7-1.2-1.7-2.3-2.8-3.3-1.7 2.5-3.5 4.1-4.4 4.9zm2.7-0.5c0.5 0 1 0.4 1 1 0 0.5-0.4 1-1 1s-1-0.4-1-1c0-0.5 0.4-1 1-1z"/><path d="m77.2 32.7s0.8 0.8 1.9 0.8 2.4-0.8 3.6-3.9c0.3-0.7 0.3-2.2 0.3-3.9-3 2.4-5.1 3.2-6.3 3.6 0.3 2.3 0.5 3.4 0.5 3.4z"/><path d="m73.5 15.5c0.9-0.8 2.4-2.3 3.7-4.2-2.5-1.5-5.8-2.5-9.8-2.7 0.1 0 3.4 0.9 6.1 6.9z"/><path d="m75.7 22.8c0.1 0.3 0.1 0.5 0.1 0.8 0.3 1.6 0.5 3 0.7 4.2 1.1-0.3 3.3-1.3 6.5-4 0-1.2-0.1-2.2-0.1-2.8-0.1-1.4-0.3-2.7-0.7-3.9-2 3.1-5 4.9-6.5 5.7zm2.8 2c-0.5 0-1-0.4-1-1s0.4-1 1-1c0.5 0 1 0.4 1 1s-0.5 1-1 1z"/><path d="m40.2 38.9c-0.7-1-1.3-2-1.8-2.8-1.6 0.4-3.4 0.5-5.3 0.5-5.6 0-12.1-1.3-16.4-2.4 0 1.2 0.1 2.4 0.2 3.6 12.6 5.3 21 2.2 23.3 1.1z"/><path d="m37.6 34.7c-0.8-1.3-1.3-2.3-1.7-3.1-5.9-0.7-13.1-2.7-18.6-4.5-0.3 1.9-0.5 3.7-0.5 5.6 5.4 1.3 14.9 3.2 20.8 2z"/><path d="m47.2 23.9c-5.9-2.2-12.1-6.9-15.8-10-1.8 0.5-5.3 1.5-8.2 3.1 6.4 3.2 17.3 8.5 23.1 11.1 0.4-1.2 0.7-2.6 0.9-4.2zm-17-6.1c-0.5 0-1-0.4-1-1 0-0.5 0.4-1 1-1 0.5 0 1 0.4 1 1s-0.4 1-1 1zm8 4.7c-0.5 0-1-0.4-1-1 0-0.5 0.4-1 1-1 0.5 0 1 0.4 1 1s-0.4 1-1 1z"/><path d="m40.2 57.8 0.4-17.4c-1.7 0.8-5 1.9-9.9 1.9-3.7 0-8.3-0.7-13.7-2.8 0.9 8 3.4 14.4 3.9 15.5 3.5 2.9 7.4 4.4 11.6 4.4 3.7 0.1 6.7-1.1 7.7-1.6z"/><path d="m42 10.7c-3-2.2-5.6-4.3-7.2-5.6h-0.1c-0.1 0-0.2 0-0.2 0.2l-1.2 7.7c0 0.1-0.1 0.2-0.1 0.3 3.6 3 9.1 7 14.3 9.1 0.2-4.7-1.8-9-5.5-11.7z"/><path d="m35.1 28.4c0.2-0.4 0.7-0.6 1.2-0.5 2.1 0.5 6.1 3.5 7.4 4.6 0.8-0.5 1.5-1.5 2.1-2.9-6-2.7-17.8-8.5-24.1-11.6-1.3 1-2.4 2.1-3 3.5-0.5 1.4-0.9 2.8-1.2 4.2 5.2 1.7 12 3.6 17.7 4.4-0.4-1.3-0.2-1.6-0.1-1.7zm-11.6-4.9c-0.5 0-1-0.4-1-1 0-0.5 0.4-1 1-1 0.5 0 1 0.4 1 1s-0.5 1-1 1zm8.5 3.6c-0.5 0-1-0.4-1-1s0.4-1 1-1c0.5 0 1 0.4 1 1s-0.4 1-1 1z"/><path d="m83.3 32.1c-1.1 1.9-2.5 2.9-4.1 2.9-0.9 0-1.7-0.3-2.2-0.7 0.5 5.4 0.6 11.4 0 17.1 1.4-0.1 3-0.6 4.8-1.8 1-0.7 1.6-1.9 1.6-3.2z"/><path d="m41.3 59c-0.1 0.1-1.5 0.8-3.8 1.4 9.5 4.9 25 10.1 28.6 11.3 2.6-39.6-5.8-53.7-5.9-53.8 0-0.1-0.1-0.2-0.1-0.3-4.8 0-9.7-0.9-12.1-1.4 0.8 2.3 1.1 4.7 0.8 7.2-0.8 6.1-2.5 9.7-5 10.6-0.3 0.1-0.5 0-0.8-0.1-1.2-1-4.5-3.5-6.5-4.3 0.6 1.7 3.1 5.7 5.3 9.1 0.1 0.1 0.1 0.3 0.1 0.4l-0.4 19.2c0.2 0.3 0.1 0.6-0.2 0.7z"/><path d="m47.3 14.5c2.2 0.5 16 3.3 21.1 0.1 0.9-0.6 1.4-1.2 1.6-2.1-1.5-1.9-2.7-2.4-2.9-2.4-0.3-0.1-0.6-0.2-0.8-0.5-1.2 1.3-3.8 1.7-6.8 1.7-7.4 0-17.5-2.7-17.5-2.7l-0.1 0.1c0.3 0.3 0.7 0.5 1.1 0.8 1.7 1.3 3.2 3 4.3 5z"/><path d="m32.5 61c-0.6 0-1.2 0-1.8-0.1-0.3 0.5-0.7 1.1-1.1 1.8 8.2 4.9 26.7 15.3 37.2 15.3h0.4c1.2-0.5 8.9-4.4 10.3-12.9-0.7-1.4-1.5-2.8-2.4-4.1-0.4 1.5-1 2.8-1.6 4.2 0 0.1-0.1 0.2-0.1 0.2l-5.3 7.5c-0.3 0.4-0.8 0.7-1.3 0.7-0.2 0-0.3 0-0.5-0.1-0.9-0.3-20.8-6.7-31.3-12.6-0.7 0.1-1.6 0.1-2.5 0.1zm9.8 4.8c0.5 0 1 0.4 1 1s-0.4 1-1 1c-0.5 0-1-0.4-1-1s0.5-1 1-1z"/></g></svg>
