<svg enable-background="new 0 0 100 100" version="1.1" viewBox="0 0 100 100" xml:space="preserve" xmlns="http://www.w3.org/2000/svg" xmlns:cc="http://creativecommons.org/ns#" xmlns:dc="http://purl.org/dc/elements/1.1/" xmlns:rdf="http://www.w3.org/1999/02/22-rdf-syntax-ns#"><metadata><rdf:RDF><cc:Work rdf:about=""><dc:format>image/svg+xml</dc:format><dc:type rdf:resource="http://purl.org/dc/dcmitype/StillImage"/><dc:title/></cc:Work></rdf:RDF></metadata><path d="m91.884 74.732h-15.294v-51.637c0-6.04-4.946-10.771-11.262-10.771h-47.694c-6.104 0-11.263 5.287-11.263 11.546 0 1.332 1.079 2.411 2.41 2.411h15.294v50.862c0 6.211 5.053 11.264 11.264 11.264h47.692c6.211 0 11.264-5.053 11.264-11.264 0-1.331-1.079-2.411-2.411-2.411zm-80.246-53.273c0.952-2.495 3.313-4.312 5.996-4.312 2.807 0 5.199 1.803 6.081 4.312h-12.077zm30.141 55.685c0 3.552-2.889 6.44-6.44 6.44s-6.441-2.889-6.441-6.44v-53.557c0-2.395-0.753-4.614-2.031-6.44h38.462c3.671 0 6.44 2.558 6.44 5.948v51.638h-27.578c-1.332-1e-3 -2.412 1.079-2.412 2.411zm41.252 6.44h-38.457c0.836-1.193 1.446-2.559 1.768-4.029h42.662c-0.955 2.361-3.273 4.029-5.973 4.029z"/><g transform="matrix(.405 0 0 .405 29.736 29.97)"><path d="m67.5 10.6 7.9 5.6s1.8-1.1-2.7-4.3-5.2-1.3-5.2-1.3z"/><path d="m95 29.7s-3.3-1-28.2-18.8c-0.3-0.2-0.8-0.2-1 0.2l-9.7 13.6c-0.3 0.4-0.2 0.9 0.2 1.2 3.2 2.2 16.4 11.8 21.5 23.1 0-0.1 17.1-5.7 17.2-19.3zm-16.2 17.3s-0.4-1-2.3-3.7c0 0 9.5-2.8 13.6-14.6l3.6 2c0 0.1-0.1 9.9-14.9 16.3z"/><path d="m55.7 26.6c0.2-0.2 0.4-0.2 0.6-0.1 1.5 1.1 7.4 5.6 7.3 5.8 0.5 1.2-22.9 27.7-34.5 36.4-3.4 2.6-9.2 10-10.5 13.3-0.6 1.5-2 3.8-1.1 6.6 0.6 1.8-3.1 2.1-5.7 2.1-1.8 0-3.5-0.7-4.8-1.8-1.3-1.2-2.6-2.8-1.8-4.2 0 0 6.7-13.3 16.7-20.2 6.7-4.6 23.2-18.8 28.4-27.6 4.9-8.2 4-8.7 5.4-10.3z"/></g></svg>
