<svg fill="#666699" xmlns="http://www.w3.org/2000/svg" xmlns:xlink="http://www.w3.org/1999/xlink" version="1.1" x="0px" y="0px" viewBox="0 0 66 66" enable-background="new 0 0 66 66" xml:space="preserve"><g><path d="M34.993,3.513c-9.387,3.811-9.293,0.494-14.715-1.015C14.18,0.798,4.667,5.607,4.965,19.692   c0.11,5.12,1.602,9.883,6.205,12.029c-4.605-0.62-6.405,3.631-4.54,6.168c1.036,1.41,3.093,1.941,4.68,1.209   c1-0.459,2.478-1.961,3.345-1.15c0.328,0.306,0.309,0.804,0.238,1.587c-0.051,0.567-0.104,1.153,0.065,1.721   c0.466,1.567,2.34,2.086,3.736,2.036c1.259-0.036,2.624-0.33,3.686,0.119c1.408,0.596,1.986,2.369,1.828,3.812   c-0.219,2-1.198,3.354-4.904,9.602c-1.073,1.817-2.469,3.348-5.876-0.192c-1.114-1.167-2.377-2.491-4.111-2.609   c-2.508-0.17-4.438,2.542-4.059,4.945c0.337,2.128,2.138,4.018,4.589,4.812c2.232,0.724,4.602,0.548,6.891,0.335   c0.069,0.069,0.114,0.118,0.221,0.118c0.064,0,0.128-0.024,0.177-0.073c0.023-0.023,0.022-0.055,0.035-0.083   c1.852-0.171,3.753-0.329,5.55,0.035c1.731,0.35,3.881,1.133,5.418-0.16c0.955-0.803,1.177-2.039,1.602-3.064   c0.304-0.725,1.079-1.64,1.83-1.406c0.643,0.199,0.767,0.912,0.915,2.059c0.128,0.977,0.271,2.084,1.045,2.792   c0.956,0.875,2.452,0.706,3.56,0.058c2.038-1.19,2.655-3.327,7.946-2.575c1.291,0.184,2.497,0.459,3.876,0.61   c-0.016,0.079-0.008,0.161,0.054,0.223c0.097,0.097,0.255,0.098,0.354,0l0.175-0.175c2.792,0.201,5.646-0.653,6.757-3.054   c1.219-2.639-0.652-5.938-3.401-6.868c-5.075-1.717-8.728,3.016-10.599,3.907c-0.902,0.429-2.158,0.484-2.821-0.238   c-0.599-0.657-0.535-1.612-0.461-2.719c0.218-3.281-0.473-3.629-2.909-5.583c-0.505-0.406-1.647-1.468-1.352-2.568   c0.197-0.738,0.995-1.175,1.698-1.281c1.09-0.168,1.429,0.011,10.295,2.15c0.861,0.208,3.483,0.842,4.635-0.893   c0.476-0.718,0.493-1.601,0.509-2.379c0.013-0.617,0.026-1.169,0.229-1.583c0.002,0,0.004,0.003,0.006,0.003   c0.063,0,0.128-0.025,0.177-0.073c0.067-0.067,0.071-0.158,0.046-0.243c0.012-0.012,0.016-0.028,0.029-0.039   c0.771-0.706,2.07-0.081,2.974,0.418c0.735,0.408,1.495,0.83,2.396,0.868c1.006,0.038,1.952-0.465,2.6-1.392   c0.768-1.097,0.958-2.547,0.483-3.694c-1.092-2.642-5.342-5.132-12.554-0.995c-2.095,1.2-4.105,2.651-6.294,3.594   c-9.738,4.197-13.696-6.589-5.635-8.152c1.918-0.373,3.952-0.036,5.918,0.289c3.466,0.568,9.705,1.79,13.263-5.845   c1.257-2.698,1.665-5.647,1.977-8.437c0.072-0.651,0.134-1.304,0.182-1.958c0.232-0.056,0.243-0.283,0.122-0.404l-0.088-0.088   c0.02-0.327,0.033-0.652,0.043-0.977l0.024-0.024c0.098-0.098,0.098-0.256,0-0.354c-0.004-0.004-0.01-0.002-0.014-0.006   C57.95,0.929,47.516-1.544,34.993,3.513z M56.563,16.552l-0.579-0.579l0.677-0.677C56.634,15.714,56.602,16.132,56.563,16.552z    M9.947,36.776l0.473,0.473l-0.556,0.556l-0.635-0.635l0.696-0.696C9.866,36.571,9.864,36.693,9.947,36.776z M9.765,38.414   c-0.492-0.002-0.985-0.127-1.42-0.359l0.531-0.531L9.765,38.414z M10.408,38.351l0-0.001l-0.19-0.19l0.557-0.556l0.42,0.42   c-0.1,0.058-0.199,0.119-0.302,0.167C10.737,38.261,10.574,38.312,10.408,38.351z M11.794,37.638   c-0.056,0.039-0.111,0.073-0.166,0.111l-0.501-0.501l0.713-0.713l0.656,0.656C12.251,37.333,12.017,37.485,11.794,37.638z    M17.017,42.022l0.206-0.206l0.379,0.379C17.399,42.151,17.201,42.096,17.017,42.022z M20.435,41.204   c0.046-0.046,0.066-0.106,0.069-0.166l0.657,0.658l-0.476,0.477c-0.201,0.005-0.401,0.012-0.602,0.027l-0.322-0.321L20.435,41.204z    M21.682,42.218c0.003,0.003,0.007,0.001,0.01,0.004c-0.105-0.013-0.209-0.028-0.314-0.035l0.136-0.137L21.682,42.218z    M19.421,42.245c-0.009,0.001-0.019,0.001-0.028,0.002l0.015-0.015L19.421,42.245z M9.579,62.605l0.45-0.45l0.881,0.881   c-0.254-0.057-0.506-0.125-0.754-0.206C9.956,62.765,9.768,62.685,9.579,62.605z M11.047,61.137l1.257,1.257l-0.664,0.664   l-1.257-1.257L11.047,61.137z M14.014,61.391l1.088,1.088l-0.806,0.806c-0.128,0.004-0.255,0.009-0.383,0.011l-0.903-0.903   L14.014,61.391z M13.206,63.297c-0.346-0.008-0.689-0.033-1.031-0.066l0.483-0.483L13.206,63.297z M15.039,63.249l0.416-0.416   l0.36,0.36C15.558,63.214,15.299,63.233,15.039,63.249z M18.818,62.947l0.326-0.326l0.295,0.295   C19.231,62.924,19.024,62.934,18.818,62.947z M21.38,62.928l0.731-0.731l0.97,0.97c-0.053-0.011-0.109-0.025-0.161-0.036   C22.409,63.028,21.895,62.964,21.38,62.928z M24.267,63.433l0.982-0.982l0.876,0.876l-0.12,0.12   c-0.059,0.059-0.07,0.136-0.058,0.213C25.415,63.658,24.844,63.56,24.267,63.433z M27.496,63.186   c-0.156,0.131-0.331,0.221-0.514,0.295c-0.001-0.001-0.001-0.003-0.002-0.005l-0.149-0.149l1.215-1.215l0.115,0.115   C27.991,62.603,27.789,62.939,27.496,63.186z M41.575,60.478l0.256,0.256c-0.212,0.026-0.415,0.062-0.614,0.102L41.575,60.478z    M43.59,60.678l0.148-0.148l0.166,0.166C43.798,60.689,43.693,60.683,43.59,60.678z M48.309,61.338l0.386-0.386l0.494,0.494   C48.897,61.417,48.603,61.381,48.309,61.338z M50.464,61.503l0.973-0.973l0.772,0.772C51.434,61.497,51.047,61.498,50.464,61.503z    M53.166,59.887l-0.72,0.72c-0.044,0.044-0.062,0.102-0.066,0.16l-0.59-0.59l0.833-0.833L53.166,59.887z M53.853,60.574   c0.011,0.011,0.029,0.008,0.042,0.017c-0.357,0.227-0.742,0.41-1.142,0.549l-0.113-0.113c0.058-0.004,0.116-0.022,0.16-0.066   l0.72-0.72L53.853,60.574z M55.325,59.029c0.023-0.027,0.029-0.06,0.038-0.092C55.363,58.937,55.36,58.956,55.325,59.029z    M44.16,44.577l0.233-0.233l0.381,0.381L44.16,44.577z M46.677,45.184l0.372-0.372l0.578,0.579   c-0.219-0.038-0.449-0.086-0.691-0.145L46.677,45.184z M49.352,44.428l-1.003,1.003c-0.009-0.014-0.006-0.032-0.018-0.044   l-0.928-0.928l0.99-0.99L49.352,44.428z M50.882,42.126l-0.744-0.744c0.013,0.002,0.023,0.015,0.037,0.015   c0.065,0,0.128-0.024,0.177-0.073l0.792-0.792l0.166,0.166C51.033,41.129,50.924,41.625,50.882,42.126z M50.456,44.827   c0,0,0-0.001,0-0.001l-0.397-0.397l0.751-0.752c-0.035,0.414-0.108,0.795-0.308,1.096C50.489,44.793,50.47,44.808,50.456,44.827z    M50.092,45.168c-0.279,0.184-0.642,0.289-1.091,0.318l0.704-0.705L50.092,45.168z M54.892,40.095l0.563-0.563l1.146,1.146   l-0.042,0.042c-0.057,0.057-0.071,0.131-0.062,0.205c-0.233-0.113-0.468-0.238-0.707-0.371   C55.04,40.137,55.086,40.181,54.892,40.095z M56.955,41.031l0.134,0.134c-0.072-0.023-0.144-0.047-0.216-0.075   c0.013-0.009,0.029-0.006,0.04-0.017L56.955,41.031z M57.651,41.283c0.051-0.095,0.053-0.209-0.027-0.289l-0.316-0.316l0.834-0.834   l0.678,0.677l-0.636,0.636c-0.029,0.029-0.032,0.069-0.044,0.106c-0.126,0.024-0.257,0.039-0.398,0.033   C57.711,41.296,57.681,41.286,57.651,41.283z M40.883,29.556c0.011,0.043,0.017,0.088,0.05,0.121l0.874,0.873l-0.271,0.271   c-0.345-0.055-0.692-0.105-1.039-0.151c0.055-0.095,0.058-0.214-0.024-0.296l-0.204-0.204L40.883,29.556z M42.183,30.927   c-0.013-0.002-0.026-0.004-0.039-0.006l0.016-0.016L42.183,30.927z M39.998,30.608c-0.051-0.006-0.101-0.009-0.152-0.015   l0.069-0.069L39.998,30.608z M42.636,31.001c0.084-0.098,0.085-0.243-0.007-0.336l-0.115-0.115l0.988-0.988l0.667,0.667   l-0.552,0.552c-0.098,0.098-0.098,0.256,0,0.354c0.019,0.018,0.045,0.016,0.067,0.028c-0.333-0.048-0.667-0.1-1.004-0.155   L42.636,31.001z M45.342,30.697l-0.467-0.467l0.958-0.958l1.163,1.163l-0.698,0.698c-0.07,0.07-0.072,0.166-0.041,0.254   c-0.789-0.007-1.594-0.085-2.41-0.2c0.043-0.01,0.089-0.017,0.122-0.051l0.552-0.552l0.467,0.467c0.097,0.097,0.255,0.098,0.353,0   C45.44,30.952,45.44,30.794,45.342,30.697z M47.35,30.787l0.493,0.492c-0.358,0.054-0.72,0.088-1.086,0.101L47.35,30.787z    M55.672,20.241l-0.071,0.071l-0.959-0.958l0.813-0.813l0.502,0.502c0.084,0.084,0.203,0.105,0.325,0.012   c-0.058,0.444-0.122,0.889-0.195,1.335c-0.006-0.053-0.02-0.107-0.061-0.148C55.928,20.144,55.77,20.144,55.672,20.241z    M56.326,18.725c-0.008-0.011-0.005-0.026-0.015-0.035l-0.502-0.502l0.29-0.29c0.098-0.098,0.098-0.256,0-0.353   c-0.097-0.097-0.255-0.098-0.354,0l-0.29,0.29l-0.524-0.523c-0.098-0.098-0.256-0.098-0.354,0c-0.098,0.098-0.098,0.256,0,0.354   l0.523,0.523L54.24,19.05c-0.067-0.003-0.134,0.018-0.186,0.069c-0.098,0.098-0.098,0.256,0,0.354l1.194,1.193L54.114,21.8   l-0.698-0.698c-0.098-0.098-0.256-0.098-0.354,0c-0.098,0.098-0.098,0.256,0,0.354l0.698,0.698   c-0.096,0.098-0.096,0.254,0.001,0.351c0.094,0.094,0.25,0.101,0.351,0.001l0.676,0.676c0.097,0.097,0.255,0.098,0.354,0   c0.098-0.098,0.098-0.256,0-0.354l-0.675-0.675l1.558-1.558c0.032-0.032,0.036-0.074,0.047-0.114   c-0.295,1.776-0.729,3.548-1.498,5.198c-1.279,2.745-3.369,4.71-5.734,5.392c-0.134,0.039-0.27,0.064-0.405,0.095l-0.732-0.732   l1.046-1.046l1.023,1.024c0.097,0.097,0.255,0.098,0.354,0c0.069-0.069,0.072-0.163,0.043-0.25c0.012-0.009,0.029-0.006,0.04-0.017   l1.748-1.748l0.09,0.09c0.097,0.096,0.255,0.099,0.354,0c0.098-0.098,0.098-0.256,0-0.354l-0.09-0.09l1.067-1.067   c0.098-0.098,0.098-0.256,0-0.354c-0.052-0.052-0.12-0.072-0.188-0.069c-0.008-0.049-0.019-0.099-0.057-0.137l-0.59-0.59   l1.279-1.28l0.438,0.438c0.097,0.097,0.255,0.098,0.354,0c0.098-0.098,0.098-0.256,0-0.354l-0.438-0.438l0.041-0.041   c0.098-0.098,0.098-0.256,0-0.354c-0.098-0.098-0.256-0.098-0.353,0l-0.041,0.041l-0.842-0.841l0.002-0.002   c0.098-0.098,0.098-0.256,0-0.354c-0.098-0.098-0.256-0.098-0.354,0l-0.002,0.002L52.6,22.618c-0.098-0.098-0.256-0.098-0.353,0   c-0.098,0.098-0.098,0.256,0,0.354l0.027,0.027l-2.36,2.36c-0.098,0.098-0.098,0.256,0,0.353c0.097,0.097,0.255,0.098,0.353,0   l0.727-0.727l0.842,0.842l-0.406,0.406c-0.098,0.098-0.098,0.256,0,0.353c0.097,0.097,0.255,0.098,0.354,0l0.406-0.406l0.59,0.59   c0.019,0.019,0.046,0.017,0.068,0.028l-0.891,0.891l-1.865-1.864c-0.099-0.099-0.257-0.097-0.353,0   c-0.098,0.098-0.098,0.256,0,0.354l1.865,1.864l-1.746,1.746l-0.755-0.755l1.487-1.488c0.098-0.098,0.098-0.256,0-0.354   c-0.098-0.098-0.256-0.098-0.353,0l-1.487,1.488l-0.814-0.814c-0.098-0.098-0.256-0.098-0.353,0c-0.098,0.098-0.098,0.256,0,0.354   l0.814,0.814L47.35,30.08l-1.163-1.163l1.003-1.003c0.098-0.098,0.098-0.256,0-0.354c-0.098-0.098-0.256-0.098-0.354,0   l-2.315,2.315l-0.701-0.701c0.021-0.083,0.016-0.17-0.049-0.235c-0.081-0.081-0.199-0.079-0.294-0.025   c-0.076-0.011-0.152,0.001-0.211,0.059c-0.051,0.051-0.072,0.119-0.069,0.186l-1.037,1.037l-0.874-0.873   c-0.033-0.033-0.078-0.04-0.121-0.05l0.236-0.236c0.098-0.098,0.098-0.256,0-0.354c-0.098-0.098-0.256-0.098-0.354,0l-1.134,1.134   l-0.377-0.377c-0.097-0.097-0.255-0.098-0.353,0c-0.098,0.098-0.098,0.256,0,0.353l0.377,0.377l-0.363,0.363   c-1.029-0.074-2.061-0.058-3.086,0.141c-9.493,1.838-4.897,14.842,6.221,10.052c2.278-0.981,4.316-2.455,6.395-3.644   c6.541-3.746,10.243-1.644,11.133,0.509c0.161,0.389,0.203,0.839,0.153,1.29l-0.549-0.549l0.136-0.136   c0.098-0.098,0.098-0.256,0-0.354c-0.098-0.098-0.256-0.098-0.354,0l-0.136,0.136L58.85,37.72c-0.098-0.098-0.256-0.098-0.354,0   c-0.098,0.098-0.098,0.256,0,0.354l0.282,0.282c-0.046,0.093-0.047,0.203,0.03,0.28c0.107,0.107,0.187,0.076,0.28,0.03l0.795,0.794   c-0.064,0.209-0.152,0.407-0.259,0.6c-0.098-0.091-0.25-0.093-0.346,0.003l-0.105,0.105l-1.199-1.198   c-0.098-0.098-0.256-0.098-0.354,0c-0.098,0.098-0.098,0.256,0,0.354l0.167,0.167l-0.834,0.834l-1.146-1.146l0.423-0.423   c0.098-0.098,0.098-0.256,0-0.354c-0.098-0.098-0.256-0.098-0.354,0l-0.458,0.458c-0.083-0.022-0.171-0.017-0.237,0.048   c-0.065,0.065-0.071,0.153-0.048,0.237l-0.755,0.755c-0.08-0.025-0.16-0.055-0.239-0.075l-1.166-1.167   c-0.097-0.097-0.255-0.098-0.354,0c-0.098,0.098-0.098,0.256,0,0.354l0.698,0.698c-0.654-0.016-1.233,0.168-1.665,0.565   c-0.011,0.01-0.019,0.022-0.03,0.033l-0.129-0.129l0.542-0.542c0.098-0.098,0.098-0.256,0-0.354c-0.098-0.098-0.256-0.098-0.354,0   l-0.542,0.542l-0.354-0.354c-0.098-0.098-0.256-0.098-0.354,0c-0.098,0.098-0.098,0.256,0,0.354l0.354,0.354l-0.792,0.792   c-0.059,0.059-0.07,0.137-0.058,0.213l-0.151-0.151c-0.098-0.098-0.256-0.098-0.354,0c-0.098,0.098-0.098,0.256,0,0.354   l1.414,1.414c-0.001,0.042-0.002,0.085-0.003,0.126c-0.001,0.035-0.002,0.068-0.003,0.103c-0.057,0.005-0.114,0.022-0.158,0.066   l-0.98,0.98l-1.052-1.053c-0.011-0.041-0.016-0.085-0.049-0.118c-0.033-0.032-0.076-0.038-0.118-0.049l-0.135-0.135   c-0.098-0.098-0.256-0.098-0.354,0c-0.098,0.098-0.098,0.256,0,0.354l0.042,0.042l-0.99,0.991l-0.885-0.886   c-0.098-0.098-0.256-0.098-0.354,0c-0.098,0.098-0.098,0.256,0,0.354l0.886,0.886l-0.588,0.588l-0.402-0.097l-0.959-0.959   l1.347-1.347c0.098-0.098,0.098-0.256,0-0.354c-0.098-0.098-0.256-0.098-0.354,0l-1.347,1.347l-0.167-0.167   c-0.098-0.098-0.256-0.098-0.354,0c-0.098,0.098-0.098,0.256,0,0.354l0.167,0.167l-0.449,0.449   c-5.176-1.249-6.048-1.555-7.332-1.361c-1.025,0.155-2.201,0.836-2.516,2.011c-0.316,1.175,0.301,2.49,1.69,3.606   c2.251,1.811,2.731,1.88,2.538,4.738c-0.081,1.223-0.166,2.487,0.721,3.459c1.035,1.134,2.794,1.036,3.989,0.468   c1.987-0.946,5.377-5.38,9.849-3.863c2.088,0.707,3.72,3.243,2.858,5.365c-0.005-0.165-1.363-1.462-1.48-1.579   c-0.062-0.062-0.146-0.07-0.226-0.053l0.082-0.081c0.098-0.098,0.098-0.256,0-0.354c-0.098-0.097-0.256-0.099-0.354,0l-0.963,0.962   c-0.098,0.098-0.098,0.256,0,0.354c0.099,0.099,0.257,0.097,0.353,0l0.701-0.701c-0.018,0.08-0.01,0.164,0.053,0.226l1.41,1.41   c0.093,0.093,0.246,0.102,0.349,0.002c-0.252,0.521-0.625,0.941-1.061,1.283c-0.011-0.039-0.015-0.081-0.046-0.112l-0.333-0.333   l0.448-0.449c0.098-0.098,0.098-0.256,0-0.353c-0.098-0.098-0.256-0.098-0.354,0l-0.448,0.448l-0.649-0.649   c-0.012-0.034-0.014-0.072-0.041-0.099c-0.028-0.028-0.065-0.029-0.099-0.041l-0.457-0.457c-0.097-0.097-0.255-0.099-0.354,0   c-0.098,0.098-0.098,0.256,0,0.354l0.351,0.351l-0.833,0.833l-0.746-0.746c-0.098-0.098-0.256-0.098-0.354,0   c-0.098,0.098-0.098,0.256,0,0.354l0.746,0.746l-1.317,1.317c-0.029-0.002-0.058-0.005-0.087-0.007   c0.049-0.094,0.051-0.207-0.028-0.286l-0.603-0.602l1.12-1.12c0.098-0.098,0.098-0.256,0-0.354c-0.098-0.098-0.256-0.098-0.354,0   l-1.12,1.12l-0.588-0.588c-0.098-0.098-0.256-0.098-0.354,0c-0.098,0.098-0.098,0.256,0,0.354l0.588,0.588l-0.647,0.647   c-0.286-0.048-0.574-0.097-0.866-0.149c-0.008-0.05-0.019-0.1-0.057-0.139l-0.333-0.333l1.093-1.093   c0.098-0.098,0.098-0.256,0-0.354c-0.098-0.098-0.256-0.098-0.354,0l-1.093,1.093l-0.614-0.614c-0.098-0.098-0.256-0.098-0.354,0   c-0.098,0.098-0.098,0.256,0,0.354l0.614,0.614l-0.249,0.249c-0.101-0.016-0.203-0.036-0.304-0.05   c-0.206-0.029-0.4-0.048-0.598-0.069c-0.006-0.055-0.021-0.111-0.063-0.153l-0.425-0.425l1.291-1.292   c0.098-0.098,0.098-0.256,0-0.353c-0.098-0.098-0.256-0.098-0.353,0l-1.291,1.291l-0.008-0.008c-0.097-0.097-0.255-0.099-0.354,0   c-0.098,0.098-0.098,0.256,0,0.354l0.008,0.008l-0.492,0.492c-0.137,0.002-0.278,0-0.411,0.007l-0.552-0.552l0.566-0.566   c0.098-0.098,0.098-0.256,0-0.354c-0.098-0.098-0.256-0.098-0.354,0l-0.679,0.679c-0.031,0.012-0.065,0.012-0.09,0.037   c-0.025,0.025-0.025,0.059-0.037,0.09l-0.859,0.86c-0.048,0.048-0.072,0.111-0.072,0.175c-1.862,0.612-2.577,1.754-3.817,2.481   c-0.723,0.421-1.775,0.623-2.381,0.067c-0.504-0.46-0.617-1.335-0.728-2.182c-0.151-1.166-0.323-2.486-1.611-2.885   c-1.308-0.405-2.521,0.715-3.049,1.976c-0.156,0.376-0.302,0.822-0.451,1.224l-0.005-0.005c0.018-0.081,0.01-0.164-0.052-0.227   c-0.063-0.063-0.146-0.07-0.227-0.053l-0.963-0.963c-0.098-0.098-0.256-0.098-0.354,0c-0.098,0.098-0.098,0.256,0,0.354   l0.926,0.926l-1.215,1.215l-0.876-0.876l0.501-0.501c0.098-0.098,0.098-0.256,0-0.354c-0.098-0.098-0.256-0.098-0.354,0   l-0.501,0.501l-0.247-0.247c-0.098-0.098-0.256-0.098-0.354,0c-0.098,0.098-0.098,0.256,0,0.354l0.247,0.247l-1.088,1.088   l-1.342-1.342l1.305-1.305c0.098-0.098,0.098-0.256,0-0.354c-0.098-0.098-0.256-0.098-0.354,0l-1.305,1.305l-0.586-0.586   c-0.098-0.098-0.256-0.098-0.354,0c-0.098,0.098-0.098,0.256,0,0.354l0.586,0.586l-1.069,1.069   c-0.186-0.005-0.372-0.014-0.559-0.013l-0.633-0.632l1.584-1.584c0.098-0.098,0.098-0.256,0-0.354   c-0.098-0.098-0.256-0.098-0.353,0l-1.584,1.584l-0.841-0.84c-0.098-0.098-0.256-0.098-0.354,0c-0.098,0.098-0.098,0.256,0,0.354   l0.841,0.84l-0.728,0.728c-0.408,0.033-0.815,0.068-1.219,0.106l-0.377,0.035l-0.657-0.657l1.519-1.519   c0.098-0.098,0.098-0.256,0-0.354c-0.098-0.098-0.256-0.098-0.354,0l-1.519,1.519l-1.088-1.088l0.163-0.163   c0.098-0.098,0.098-0.256,0-0.354c-0.098-0.098-0.256-0.098-0.353,0l-1.52,1.52L11.4,60.784l0.405-0.404   c0.098-0.098,0.098-0.256,0-0.354c-0.098-0.098-0.256-0.098-0.354,0l-0.478,0.478c-0.052,0.007-0.106,0.02-0.146,0.06   c-0.04,0.04-0.053,0.093-0.06,0.146l-0.738,0.737l-1.053-1.053c-0.098-0.098-0.256-0.098-0.354,0c-0.098,0.098-0.098,0.256,0,0.354   l1.053,1.053l-0.575,0.575c-1.541-0.803-2.626-2.117-2.854-3.564c-0.292-1.846,1.229-3.933,3.002-3.791   c1.347,0.092,2.419,1.215,3.456,2.302c2.831,2.947,5.371,3.541,7.46,0.011c3.729-6.287,4.791-7.745,5.038-10.003   c0.192-1.754-0.487-4.018-2.433-4.841c-0.269-0.114-0.541-0.188-0.816-0.239c0.027-0.012,0.059-0.011,0.081-0.034   c0.098-0.098,0.098-0.256,0-0.354l-0.168-0.168l0.137-0.137c0.098-0.098,0.098-0.256,0-0.354c-0.099-0.099-0.257-0.097-0.354,0   l-0.136,0.137l-0.759-0.76c-0.098-0.097-0.256-0.098-0.354,0c-0.065,0.065-0.07,0.151-0.05,0.234   c-0.091-0.04-0.196-0.041-0.271,0.034l-0.674,0.674l-0.682-0.681c-0.098-0.098-0.256-0.098-0.354,0   c-0.098,0.098-0.098,0.256,0,0.354l0.682,0.681l-0.414,0.414c-0.111,0.003-0.224,0-0.337-0.006   c-0.002-0.061-0.023-0.122-0.07-0.169l-0.656-0.656l0.985-0.985c0.098-0.098,0.098-0.256,0-0.354c-0.098-0.098-0.256-0.098-0.354,0   l-0.985,0.985l-0.421-0.422c-0.098-0.098-0.256-0.098-0.354,0c-0.098,0.098-0.098,0.256,0,0.354l0.422,0.422l-0.316,0.316   c-0.304-0.204-0.536-0.469-0.637-0.807c-0.114-0.384-0.072-0.852-0.028-1.346c0.074-0.819,0.157-1.747-0.553-2.408   c-0.675-0.632-1.647-0.549-2.37-0.261l-0.823-0.823c0.001-0.066-0.021-0.131-0.071-0.181c-0.05-0.05-0.116-0.073-0.181-0.072   l-0.134-0.134c-0.097-0.097-0.255-0.099-0.353,0c-0.098,0.098-0.098,0.256,0,0.354l0.083,0.083l-0.713,0.713L10.3,36.422   c-0.083-0.083-0.205-0.08-0.301-0.022l0.229-0.229c0.098-0.098,0.098-0.256,0-0.354c-0.098-0.098-0.256-0.098-0.354,0l-0.999,0.999   l-0.291-0.291c-0.098-0.098-0.256-0.098-0.354,0c-0.098,0.098-0.098,0.256,0,0.354l0.291,0.291l-0.605,0.605   c-0.179-0.142-0.346-0.297-0.481-0.481c-1.497-2.039,0.23-5.385,4.06-4.5c1.796,0.417,3.073,1.401,7.683,4.438   c7.409,4.882,9.692-1.641,7.114-4.622c-2.231-2.583-5.068-1.943-7.572-1.38C10.613,33.064,6.148,28.286,5.965,19.67   C5.68,6.329,14.497,1.928,20.011,3.461c5.238,1.461,5.536,4.964,15.358,0.979c11.894-4.807,21.748-2.792,21.344,9.813l-0.557-0.557   c-0.098-0.098-0.256-0.098-0.354,0c-0.098,0.098-0.098,0.256,0,0.353l0.698,0.698l-0.871,0.871l-0.057-0.057   c-0.098-0.098-0.256-0.098-0.354,0c-0.098,0.098-0.098,0.256,0,0.354l0.057,0.057l-0.348,0.348c-0.098,0.098-0.098,0.256,0,0.354   c0.097,0.097,0.255,0.098,0.354,0l0.348-0.348l0.869,0.869c-0.013,0.119-0.022,0.239-0.035,0.358   C56.421,17.941,56.375,18.332,56.326,18.725z M52.19,25.474l-0.842-0.842l1.28-1.28l0.842,0.842L52.19,25.474z M13.583,32.502   c2.249,0.435,3.836,0.048,5.356-0.295c2.445-0.551,4.754-1.072,6.597,1.059c1.823,2.111,0.626,7.377-5.808,3.133   C15.407,33.551,14.707,33.051,13.583,32.502z"/><path d="M42.499,10.16c-2.284-0.508-5.625,0.169-7.308,2.426c-1.407,1.885-1.97,4.981-1.309,7.202   c0.659,2.217,2.427,4.064,4.612,4.821c0.769,0.266,1.577,0.396,2.388,0.396c1.35,0,2.701-0.363,3.871-1.07   c2.563-1.549,4.016-4.695,3.531-7.65C47.802,13.33,45.423,10.811,42.499,10.16z M38.544,23.547l0.113-0.113l0.255,0.255   c-0.029-0.01-0.059-0.015-0.088-0.025C38.728,23.631,38.637,23.585,38.544,23.547z M39.859,22.231   c0.012,0.031,0.013,0.065,0.037,0.09l1,1l-0.518,0.518c-0.038,0.038-0.048,0.088-0.057,0.137c-0.161-0.014-0.321-0.038-0.48-0.065   l-0.831-0.831L39.859,22.231z M42.706,22.189L43.517,23l-0.144,0.144c-0.098,0.098-0.098,0.256,0,0.353   c0.003,0.003,0.007,0.002,0.01,0.004c-0.406,0.168-0.826,0.296-1.256,0.38c-0.011-0.021-0.009-0.046-0.027-0.064l-0.496-0.496   l1.081-1.082C42.699,22.226,42.696,22.205,42.706,22.189z M41.547,23.971c-0.208,0.021-0.418,0.033-0.627,0.034l0.33-0.33   L41.547,23.971z M44.237,23.08l-0.002,0.001c-0.006-0.023-0.015-0.045-0.027-0.065l0.994-0.994   c0.087-0.087,0.084-0.216,0.017-0.313l0.272,0.272c0.015,0.015,0.036,0.012,0.053,0.022C45.157,22.414,44.725,22.785,44.237,23.08z    M46.973,19.654l-0.29-0.29l0.199-0.199c0.098-0.098,0.098-0.256,0-0.354c-0.098-0.098-0.256-0.098-0.353,0l-0.198,0.198   l-0.465-0.465c-0.097-0.097-0.255-0.099-0.354,0c-0.098,0.098-0.098,0.256,0,0.354l0.465,0.465l-0.946,0.946   c-0.098,0.098-0.098,0.256,0,0.354c0.097,0.097,0.255,0.098,0.354,0l0.946-0.946l0.359,0.359c0.03,0.03,0.07,0.033,0.108,0.044   c-0.243,0.549-0.563,1.061-0.942,1.527c-0.005-0.007-0.003-0.016-0.009-0.022l-1.424-1.423c-0.098-0.098-0.256-0.098-0.354,0   c-0.098,0.098-0.098,0.256,0,0.354l1.095,1.094c-0.097-0.067-0.227-0.07-0.313,0.017l-0.979,0.979l-1.427-1.427   c-0.098-0.098-0.256-0.098-0.354,0c-0.098,0.098-0.098,0.256,0,0.354l0.292,0.292c-0.016,0.01-0.036,0.007-0.05,0.021l-1.081,1.082   l-1-1c-0.025-0.025-0.059-0.025-0.09-0.037l0.324-0.323c0.098-0.098,0.098-0.256,0-0.354c-0.098-0.098-0.256-0.098-0.354,0   l-1.474,1.473l-0.545-0.545c-0.097-0.097-0.255-0.099-0.354,0c-0.098,0.098-0.098,0.256,0,0.354l0.545,0.545l-0.25,0.25   c-1.524-0.778-2.723-2.183-3.211-3.827c-0.58-1.946-0.085-4.663,1.15-6.319c1.38-1.848,4.279-2.496,6.29-2.047   c2.534,0.564,4.598,2.748,5.017,5.311c0.002,0.01,0.001,0.02,0.002,0.029c-0.059,0.003-0.118,0.023-0.164,0.068l-0.434,0.434   l-0.786-0.786c-0.098-0.098-0.256-0.098-0.354,0c-0.098,0.098-0.098,0.256,0,0.354l0.786,0.786L46.1,17.583   c-0.098,0.098-0.098,0.256,0,0.354c0.097,0.097,0.255,0.098,0.354,0l0.251-0.251l0.224,0.224c0.049,0.049,0.112,0.073,0.177,0.073   c0.064,0,0.128-0.024,0.177-0.073c0.098-0.098,0.098-0.256,0-0.354l-0.224-0.225l0.29-0.291   C47.406,17.93,47.273,18.818,46.973,19.654z"/><path d="M40.92,12.539L40.92,12.539c-1.208-0.625-2.584-0.46-3.59,0.43c-1.013,0.896-1.36,2.304-0.886,3.586   c0.486,1.313,1.908,2.201,3.283,2.08c1.382-0.118,2.623-1.236,2.888-2.599C42.884,14.657,42.171,13.187,40.92,12.539z    M37.344,16.072c-0.014-0.046-0.028-0.093-0.039-0.139l0.089,0.089L37.344,16.072z M37.416,15.337   c-0.049-0.049-0.112-0.073-0.176-0.073c0.013-0.232,0.061-0.449,0.138-0.648l0.711,0.711l-0.341,0.341L37.416,15.337z    M37.93,14.461c0.046-0.01,0.093-0.018,0.128-0.053l0.599-0.599l0.475,0.475l-0.69,0.69L37.93,14.461z M39.485,14.637l0.689,0.689   l-0.69,0.689l-0.689-0.689L39.485,14.637z M39.839,14.284l0.609-0.609l0.703,0.703c-0.015,0.009-0.034,0.006-0.047,0.019   l-0.576,0.576L39.839,14.284z M40.04,13.268l0.054,0.054l-0.609,0.609l-0.475-0.475l0.249-0.249   c0.006-0.006,0.004-0.016,0.01-0.023c0.055-0.004,0.106-0.017,0.162-0.017C39.626,13.167,39.832,13.206,40.04,13.268z    M38.178,13.58l-0.474,0.474c-0.036,0.036-0.044,0.083-0.053,0.128l-0.034-0.034c0.112-0.165,0.241-0.311,0.376-0.43   C38.049,13.669,38.115,13.625,38.178,13.58z M41.633,15.845c-0.183,0.941-1.038,1.712-1.991,1.794   c-0.798,0.066-1.649-0.388-2.081-1.077l0.187-0.187l0.686,0.686c0.097,0.097,0.255,0.098,0.354,0c0.098-0.098,0.098-0.256,0-0.354   l-0.685-0.686l0.341-0.341l0.689,0.689l-0.198,0.198c-0.098,0.098-0.098,0.256,0,0.353c0.097,0.097,0.255,0.098,0.353,0   l0.198-0.198l0.626,0.625c0.097,0.097,0.255,0.098,0.353,0c0.098-0.098,0.098-0.256,0-0.354l-0.625-0.625l0.689-0.689l0.252,0.252   c0.097,0.097,0.255,0.098,0.353,0c0.098-0.098,0.098-0.256,0-0.354l-0.251-0.252l0.576-0.576c0.033-0.033,0.039-0.077,0.049-0.119   C41.657,15.018,41.712,15.44,41.633,15.845z"/><path d="M18.711,10.16L18.711,10.16c-2.285-0.508-5.625,0.169-7.308,2.426C8.45,16.544,9.601,22.84,14.707,24.609   c2.058,0.711,4.395,0.453,6.258-0.673c2.564-1.548,4.016-4.694,3.532-7.65C24.014,13.33,21.635,10.811,18.711,10.16z    M23.511,16.447c0.07,0.431,0.077,0.865,0.056,1.297l-1-1l0.226-0.226c0.075,0.065,0.181,0.081,0.271,0.038l0.425-0.2   C23.494,16.387,23.506,16.416,23.511,16.447z M12.204,13.184c1.372-1.839,4.262-2.498,6.29-2.048   c2.347,0.523,4.273,2.441,4.88,4.755c-0.028,0.003-0.055-0.008-0.083,0.004l-0.275,0.13l-0.034-0.037   c-0.046-0.05-0.11-0.079-0.179-0.081c-0.069-0.004-0.134,0.025-0.182,0.073l-0.408,0.408L22.122,16.3   c-0.098-0.098-0.256-0.098-0.354,0c-0.098,0.098-0.098,0.256,0,0.354l0.098,0.098c-0.079,0.098-0.081,0.239,0.01,0.33   c0.085,0.085,0.211,0.106,0.33,0.01l1.035,1.035c0.102,0.102,0.196,0.082,0.296,0.024c-0.037,0.333-0.098,0.662-0.185,0.985   l-0.118-0.118l0.012-0.012c0.098-0.098,0.098-0.256,0-0.354c-0.098-0.098-0.256-0.098-0.353,0l-0.012,0.012l-0.395-0.395   l0.071-0.071c0.098-0.098,0.098-0.256,0-0.354c-0.098-0.098-0.256-0.098-0.354,0l-1.541,1.541l-0.144-0.144   c-0.099-0.099-0.257-0.097-0.354,0c-0.098,0.098-0.098,0.256,0,0.354l0.144,0.144l-0.037,0.037c-0.098,0.098-0.098,0.256,0,0.353   c0.097,0.097,0.255,0.098,0.354,0l0.037-0.037l0.983,0.983l-0.876,0.876l-1.588-1.588c-0.098-0.098-0.256-0.098-0.354,0   c-0.098,0.098-0.098,0.256,0,0.353l0.653,0.653l-0.689,0.689l-0.947-0.946c-0.087-0.086-0.221-0.097-0.318-0.029l-1.063,0.733   l-0.169-0.169c-0.098-0.098-0.256-0.098-0.353,0c-0.098,0.098-0.098,0.256,0,0.354l0.104,0.104l-1.069,0.737l-0.713-0.713   c-0.097-0.097-0.255-0.099-0.354,0c-0.098,0.098-0.098,0.256,0,0.353l0.649,0.649l-0.133,0.092   c-0.051,0.036-0.079,0.089-0.094,0.145C10.225,21.334,9.969,16.182,12.204,13.184z M19.737,23.338   c0.035,0.035,0.081,0.042,0.126,0.052c-0.437,0.205-0.894,0.361-1.363,0.464l-0.399-0.399l0.689-0.689l0.443,0.443   c0.098,0.098,0.256,0.098,0.354,0c0.098-0.098,0.098-0.256,0-0.354l-0.443-0.443l0.689-0.689l0.582,0.582l-0.679,0.679   C19.639,23.082,19.639,23.24,19.737,23.338z M17.893,23.954c-0.106,0.013-0.212,0.02-0.318,0.028l0.173-0.173L17.893,23.954z    M17.748,23.101l-0.926-0.925l0.816-0.563l0.799,0.799L17.748,23.101z M14.804,23.567l0.112-0.077l0.196,0.196   c-0.025-0.008-0.051-0.013-0.077-0.022C14.956,23.636,14.882,23.598,14.804,23.567z M16.044,23.911l-0.709-0.709l1.069-0.737   l0.991,0.99l-0.224,0.224c-0.09,0.09-0.087,0.227-0.012,0.325C16.784,24.007,16.412,23.972,16.044,23.911z M20.448,23.08   c-0.069,0.042-0.142,0.074-0.213,0.113l0.68-0.68c0.014-0.009,0.033-0.006,0.045-0.019c0.013-0.013,0.009-0.031,0.019-0.045   l1.091-1.092c0.054-0.006,0.109-0.021,0.151-0.063c0.042-0.042,0.056-0.096,0.063-0.151l0.348-0.348   c0.098-0.098,0.098-0.256,0-0.354c-0.098-0.098-0.256-0.098-0.354,0l-0.278,0.278l-0.983-0.983l1.117-1.117l0.395,0.395   l-0.759,0.759c-0.098,0.098-0.098,0.256,0,0.353c0.097,0.097,0.255,0.098,0.354,0l0.759-0.759l0.183,0.183   c0.038,0.038,0.088,0.049,0.138,0.057C22.703,21.032,21.747,22.295,20.448,23.08z"/><path d="M18.827,16.035c0.268-1.379-0.445-2.849-1.695-3.496v0c-1.211-0.625-2.584-0.46-3.59,0.43   c-1.014,0.896-1.361,2.304-0.887,3.587c0.454,1.227,1.729,2.09,3.034,2.09C17.191,18.646,18.55,17.463,18.827,16.035z    M15.853,17.639c-0.366,0.029-0.741-0.052-1.083-0.211l0.705-0.705l0.235,0.235l-0.251,0.251c-0.098,0.098-0.098,0.256,0,0.354   c0.097,0.097,0.255,0.098,0.353,0l0.251-0.251l0.233,0.233C16.152,17.59,16.005,17.626,15.853,17.639z M16.783,17.323l-0.366-0.365   l0.576-0.577c0.098-0.098,0.098-0.256,0-0.354c-0.099-0.098-0.257-0.097-0.354,0l-0.576,0.577l-0.235-0.235l0.769-0.77l0.843,0.842   c0.042,0.042,0.098,0.058,0.153,0.063C17.399,16.84,17.114,17.122,16.783,17.323z M16.037,13.702l0.973,0.974   c-0.084-0.024-0.174-0.02-0.241,0.047l-0.171,0.171l-0.876-0.876L16.037,13.702z M16.245,15.246l-0.77,0.77l-0.877-0.877   l0.77-0.769L16.245,15.246z M17.845,15.845c-0.015,0.078-0.042,0.153-0.066,0.229l-0.828-0.828l0.171-0.171   c0.067-0.067,0.071-0.156,0.047-0.241l0.028,0.028c0.097,0.097,0.255,0.098,0.353,0c0.098-0.098,0.098-0.256,0-0.353l-1.16-1.16   l0.02-0.02c0.088,0.033,0.174,0.053,0.262,0.099C17.523,13.867,18.028,14.907,17.845,15.845z M15.816,13.188   c-0.01,0.015-0.014,0.032-0.02,0.049l-0.427,0.427l-0.305-0.305c-0.039-0.039-0.09-0.05-0.14-0.058   C15.336,13.151,15.526,13.164,15.816,13.188z M14.693,13.4c-0.066,0.097-0.069,0.226,0.017,0.312l0.304,0.304l-0.77,0.769   l-0.499-0.499c0.13-0.223,0.287-0.418,0.458-0.569C14.342,13.597,14.511,13.491,14.693,13.4z M13.593,16.208   c-0.195-0.527-0.185-1.012-0.062-1.429l0.389,0.389c-0.031,0.088-0.03,0.185,0.041,0.255c0.102,0.102,0.166,0.072,0.255,0.041   l0.906,0.905l-0.791,0.791C14.001,16.912,13.733,16.587,13.593,16.208z"/><path d="M31.055,7.38c-0.284,0.087-0.574,0.152-0.863,0.223l0.079-0.277c0.038-0.132-0.039-0.271-0.172-0.309   c-0.131-0.041-0.271,0.04-0.309,0.172l-0.158,0.554c-0.345,0.072-0.695,0.123-1.045,0.172l0.17-0.263   c0.075-0.116,0.042-0.271-0.074-0.346c-0.116-0.075-0.271-0.041-0.346,0.074l-0.396,0.612c-0.584,0.058-1.172,0.082-1.76,0.078   c-0.061-0.059-0.139-0.097-0.226-0.074c-0.059,0.016-0.112,0.048-0.168,0.07c-0.803-0.023-1.603-0.107-2.393-0.245l0.11-0.139   c0.086-0.109,0.066-0.266-0.042-0.351c-0.108-0.085-0.267-0.067-0.351,0.041l-0.274,0.347c-0.711-0.149-1.407-0.348-2.088-0.59   l0.476-0.419c0.104-0.091,0.114-0.249,0.022-0.353c-0.091-0.103-0.248-0.114-0.353-0.022l-0.678,0.596   c-0.116-0.046-0.236-0.082-0.351-0.13L19.466,6.63c-0.349-0.153-0.71-0.297-1.079-0.421c0.142-0.14,0.292-0.272,0.451-0.391   c0.11-0.082,0.134-0.239,0.051-0.35c-0.081-0.11-0.238-0.134-0.35-0.051c-0.251,0.187-0.476,0.408-0.689,0.641   c-0.067-0.015-0.13-0.043-0.198-0.056c-0.939-0.167-1.825,0.059-2.369,0.598c-0.099,0.097-0.099,0.256-0.002,0.354   c0.098,0.098,0.256,0.099,0.354,0.002c0.417-0.413,1.109-0.582,1.857-0.467c-0.26,0.357-0.479,0.745-0.635,1.154   c-0.05,0.129,0.016,0.273,0.145,0.323c0.029,0.011,0.06,0.017,0.089,0.017c0.101,0,0.195-0.061,0.233-0.161   c0.165-0.431,0.406-0.834,0.696-1.198c0.416,0.122,0.824,0.28,1.246,0.465l0.405,0.176c0.039,0.017,0.081,0.028,0.121,0.044   l-0.57,0.502c-0.104,0.091-0.114,0.249-0.023,0.353c0.049,0.056,0.118,0.085,0.188,0.085c0.059,0,0.117-0.021,0.165-0.063   l0.775-0.682c0.707,0.264,1.43,0.484,2.17,0.65l-0.199,0.252c-0.085,0.108-0.067,0.266,0.041,0.351   c0.046,0.036,0.101,0.054,0.155,0.054c0.073,0,0.146-0.033,0.196-0.095l0.348-0.44c0.694,0.132,1.397,0.209,2.102,0.256   c-0.153,0.179-0.279,0.384-0.343,0.612c-0.037,0.133,0.041,0.271,0.174,0.308c0.022,0.006,0.045,0.009,0.067,0.009   c0.109,0,0.21-0.072,0.241-0.183c0.085-0.305,0.317-0.566,0.601-0.71c0.133,0.003,0.266,0.019,0.399,0.019   c0.438,0,0.876-0.019,1.312-0.052L27.251,9.06c-0.075,0.116-0.042,0.27,0.074,0.346c0.042,0.027,0.089,0.04,0.136,0.04   c0.082,0,0.162-0.04,0.21-0.114l0.562-0.869c0.419-0.048,0.835-0.111,1.248-0.19l-0.016,0.055   c-0.038,0.133,0.039,0.272,0.172,0.309c0.023,0.007,0.046,0.01,0.068,0.01c0.109,0,0.209-0.071,0.24-0.181l0.085-0.297   c0.394-0.089,0.785-0.192,1.171-0.311c0.132-0.041,0.206-0.18,0.166-0.312C31.326,7.413,31.188,7.338,31.055,7.38z"/></g></svg>