<svg xmlns="http://www.w3.org/2000/svg" xmlns:xlink="http://www.w3.org/1999/xlink" version="1.1" x="0px" y="0px" viewBox="-717 975 100 100" enable-background="new -717 975 100 100" xml:space="preserve"><path fill-rule="evenodd" clip-rule="evenodd" d="M-619.5,1027.5h-11.1c-1,18.3-15.7,32.9-33.9,33.9v11.1c0,0.6-0.4,1-1,1h-2  c-0.6,0-1-0.4-1-1v-11.1c-18.3-1-32.9-15.7-33.9-33.9h-11.1c-0.6,0-1-0.4-1-1v-2c0-0.6,0.4-1,1-1h11.1c1-18.3,15.7-32.9,33.9-33.9  v-11.1c0-0.6,0.4-1,1-1h2c0.6,0,1,0.4,1,1v11.1c18.3,1,32.9,15.7,33.9,33.9h11.1c0.6,0,1,0.4,1,1v2  C-618.5,1027.1-618.9,1027.5-619.5,1027.5z M-664.5,1057.4c16.1-1,28.9-13.9,29.9-29.9h-14c-0.9,8.3-7.5,15-15.9,15.9V1057.4z   M-664.5,1023.5h11.8c-0.9-6.1-5.7-11-11.8-11.8V1023.5z M-652.7,1027.5h-11.8v11.8C-658.4,1038.5-653.5,1033.6-652.7,1027.5z   M-668.5,1027.5h-11.8c0.9,6.1,5.7,11,11.8,11.8V1027.5z M-668.5,1057.4v-14c-8.3-0.9-15-7.5-15.9-15.9h-14  C-697.4,1043.6-684.6,1056.4-668.5,1057.4z M-668.5,993.6c-16.1,1-28.9,13.9-29.9,29.9h14c0.9-8.3,7.5-15,15.9-15.9V993.6z   M-680.3,1023.5h11.8v-11.8C-674.6,1012.5-679.5,1017.4-680.3,1023.5z M-664.5,993.6v14c8.3,0.9,15,7.5,15.9,15.9h14  C-635.6,1007.4-648.4,994.6-664.5,993.6z"></path></svg>