<svg fill="#20903e" xmlns="http://www.w3.org/2000/svg" xmlns:xlink="http://www.w3.org/1999/xlink" version="1.1" x="0px" y="0px" viewBox="0 0 100 100" enable-background="new 0 0 100 100" xml:space="preserve"><g><path d="M66.5,70.4c0.1,0.1,0.2,0.2,0.5,0.1c2.1-0.5,8.3-2,10.7-4.9c-2.4-7.4-4.5-12-7.3-16.5c-3.1-3.7-7.3-6.8-12.8-8.2   c3.1,4.1,7.8,12.7,8.8,29C66.3,70.2,66.4,70.4,66.5,70.4z"></path><path d="M29.1,55.6c0.6-2.6,0.4-4,0-4.7c-1.5,0.1-8.1,0-12.7-8.5c-5.2-9.6,2.2-24,2.5-26.7c0.3-2.7-2-2-4.3,1   C9.2,24-7.6,56.6,22.2,69.1C25.3,67.5,28,60.4,29.1,55.6z"></path><path d="M85.1,15.1c-2.3-3-4.6-3.7-4.3-1c0.3,2.7,7.7,17.1,2.5,26.7c-3.6,6.7-8.5,8.2-11.1,8.4c2.7,4.5,4.7,9.2,7.1,16.7   c0.8,0,1.6-0.1,2.4-0.5C106.2,52.8,90.3,22,85.1,15.1z"></path><path d="M81.7,73.8c-0.4-0.3-0.7-0.6-1-0.8c-0.2,2.5-1.7,4.8-4,5.9c-4.9,2.5-13.3,5.5-26,5.5c-12.7,0-21.1-3-26-5.5   c-2-1-3.3-2.8-3.8-4.9c-0.7,0.6-1.3,1.4-1.2,2.6c0.2,2.2,3.3,10.9,32.7,10.9C80.5,87.6,84.2,75.9,81.7,73.8z"></path><path d="M30.6,56c-0.8,3.3-2.3,7.9-4.4,11.1c12.7,5.2,24.1,5.3,26.7,5.2c-1.6-19.1-7.1-27.5-10.4-31c-5.3,1.6-9.3,4.8-12.3,8.6   C30.9,50.9,31.3,52.7,30.6,56z"></path><path d="M54.5,36.2L50.4,21c-0.2-0.4-0.7-0.4-0.9,0l-3.8,15.3C47,36.7,48.5,37,50,37C51.7,37,53.3,36.6,54.5,36.2z"></path><path d="M43.9,40.8c0.1,0.1,0.3,0.2,0.4,0.2c3.5,4.1,8.6,12.9,10.1,31.2c0,0.4-0.1,0.8-0.4,1.1c-0.3,0.3-0.6,0.5-1,0.5   c-0.3,0-0.7,0-1.2,0c-4.1,0-14.8-0.5-26.6-5.5c-0.9,1.1-2,2-3.1,2.4c0,0.3-0.1,0.6-0.1,0.9c-0.3,2.5,1,5,3.2,6.1   c4.3,2.2,12.6,5.4,25.3,5.4s21-3.1,25.3-5.4c2.3-1.2,3.5-3.6,3.2-6.1c-0.1-0.6-0.2-1.2-0.3-1.9c-0.3-0.8-0.5-1.6-0.7-2.4   c-2.7,2.6-7.6,4-10.9,4.7c-0.1,0-0.3,0-0.4,0c-0.4,0-0.9-0.1-1.2-0.4c-0.5-0.4-0.8-0.9-0.8-1.5c-1.1-17.6-6.6-26.1-9.4-29.3   c0.6-0.4,2.2-1.4,1.6-2.6c-0.3-0.5-0.8-0.8-1.4-0.8c-1.4,0.5-3.4,1-5.6,1c-1.7,0-3.2-0.3-4.5-0.6l0,0c0,0,0,0,0,0   c-0.3-0.1-0.7-0.2-1-0.3c-0.6,0-1.1,0.3-1.4,0.8C42.7,39,42.6,39.9,43.9,40.8z M35.8,78.7c-1.1,0-2-0.9-2-2c0-1.1,0.9-2,2-2   s2,0.9,2,2C37.8,77.8,36.9,78.7,35.8,78.7z M62.2,76.7c0,1.1-0.9,2-2,2c-1.1,0-2-0.9-2-2c0-1.1,0.9-2,2-2   C61.3,74.7,62.2,75.6,62.2,76.7z M58.7,59.6c1.1,0,2,0.9,2,2c0,1.1-0.9,2-2,2c-1.1,0-2-0.9-2-2C56.7,60.5,57.6,59.6,58.7,59.6z    M54.2,46.2c1.1,0,2,0.9,2,2s-0.9,2-2,2c-1.1,0-2-0.9-2-2S53.2,46.2,54.2,46.2z"></path></g></svg>
