<svg fill="#444464" xmlns="http://www.w3.org/2000/svg" xmlns:xlink="http://www.w3.org/1999/xlink" version="1.1" x="0px" y="0px" viewBox="0 0 1000 1000" style="enable-background:new 0 0 1000 1000;" xml:space="preserve"><path d="M347.1,542.9c-9.8-1.4-18-2.2-24.6-2.5c2.1,6.4,5.2,12.4,9.3,17.9c4,5.6,8.8,10.4,14.3,14.5c5.5,4.1,11.6,7.4,18.3,9.8  c6.7,2.4,13.7,3.8,21,4.1h0.2c0.3,0,0.6,0,0.8,0.1c0.2,0.1,0.5,0.1,0.8,0.1h1.1h0.7h0.7h1.1c0.3,0,0.6,0,0.8-0.1  c0.2-0.1,0.5-0.1,0.8-0.1h0.2c6.6-0.3,12.8-1.4,18.9-3.4c6-2,11.6-4.6,16.8-8c-7-5.3-14.6-10.1-22.9-14.3  c-8.2-4.2-17.2-7.8-26.8-10.9C367.5,546.7,356.9,544.3,347.1,542.9z"></path><path d="M608.4,586.8h0.2c0.3,0,0.6,0,0.8,0.1c0.2,0.1,0.5,0.1,0.8,0.1h1.1h0.7h0.7h1.1c0.3,0,0.6,0,0.8-0.1  c0.2-0.1,0.5-0.1,0.8-0.1h0.2c7.3-0.3,14.3-1.7,21-4.1c6.7-2.4,12.8-5.7,18.3-9.8c5.5-4.1,10.3-9,14.3-14.5c4-5.6,7.1-11.5,9.3-17.9  c-6.6,0.3-14.7,1.1-24.6,2.5c-9.8,1.4-20.4,3.8-31.7,7.3c-9.6,3.1-18.5,6.7-26.8,10.9c-8.2,4.2-15.9,9-22.9,14.3  c5.2,3.4,10.8,6,16.8,8C595.6,585.4,601.9,586.5,608.4,586.8z"></path><path d="M814.4,552.1c0-32.8-26.3-59.4-58.9-59.9c-2.7-11.5-6.1-22.6-10.2-33.5c-5-13.2-11-25.8-18-37.9  c-14.3-28.1-29.9-55.2-47-81.2c-19-29.6-37.7-55.1-56-76.7c-1.5-1.7-2.9-3.4-4.4-5.1l27.8-46.3L700,243l7.4-12.3l-52.3-31.4  l61.9-102.9l0,0c0.4-0.8,0.8-1.6,1-2.4c0.3-0.8,0.5-1.6,0.6-2.5c0.1-0.5,0.1-0.9,0.1-1.4c0-0.5,0-0.9,0-1.4  c-0.1-1.4-0.3-2.8-0.8-4.1c-0.3-0.9-0.7-1.7-1.2-2.5c-1.2-2-2.9-3.7-5-5c-0.5-0.3-1.1-0.6-1.6-0.8c-0.2-0.1-0.3-0.1-0.5-0.2  c-0.4-0.2-0.8-0.3-1.3-0.4c-0.1,0-0.3-0.1-0.4-0.1c-0.6-0.1-1.1-0.3-1.7-0.3c-0.1,0-0.2,0-0.3,0c-0.5-0.1-1-0.1-1.5-0.1  c-0.1,0-0.2,0-0.2,0c-0.1,0-0.2,0-0.3,0c-0.4,0-0.8,0-1.2,0.1c-0.1,0-0.3,0-0.4,0c-0.5,0.1-1.1,0.2-1.6,0.3c-0.1,0-0.2,0.1-0.3,0.1  c-0.4,0.1-0.9,0.3-1.3,0.4c-0.2,0.1-0.3,0.1-0.5,0.2c-0.4,0.2-0.7,0.3-1.1,0.5c-0.1,0.1-0.3,0.1-0.4,0.2c-0.5,0.3-0.9,0.6-1.4,0.9  c0,0-0.1,0.1-0.1,0.1c-0.4,0.3-0.8,0.6-1.1,1c-0.1,0.1-0.2,0.2-0.4,0.4c-0.3,0.3-0.6,0.6-0.8,0.9c-0.1,0.1-0.2,0.3-0.3,0.4  c-0.2,0.3-0.4,0.6-0.6,0.9l0,0L692,82c0,0,0,0,0,0c0,0,0,0,0,0l-61.6,102.4l-52.3-31.4l-7.4,12.3l52.3,31.4l-23.2,38.6  c-8.9-9.6-17.3-18.3-25.2-25.8c-14.8-14.1-26.8-24.7-36-31.7c-9.1-7-14.1-10.9-14.8-11.6l-23.3-15.9l-23.3,15.9  c-0.7,0.7-5.7,4.6-14.8,11.6c-9.2,7.1-21.1,17.6-36,31.7c-14.8,14.1-31.4,31.9-49.7,53.4c-18.3,21.5-37,47-56,76.7  c-17.1,26-32.7,53.1-47,81.2c-7,12.1-13,24.7-18,37.9c-4.1,10.8-7.5,22-10.2,33.4c0,0-0.1,0-0.1,0c-33.1,0-60,26.8-60,60  c0,2.3,0.1,4.5,0.4,6.8h0l0,0c0.2,2.2,26.8,158.5,26.8,158.5h0c2.6,15.7,16.3,27.7,32.8,27.7c16.5,0,30.1-12,32.8-27.7h0l3.7-22.1  c7,10.5,14.7,20.5,23.1,29.9l-61.7,102.6l47.5-23l35.2-58.5c10.5,9.4,21.7,17.9,33.5,25.5c-14,20.5-25.5,37.8-25.2,39.1l59.9,58.1  l14.7,56l14.7-56l58.3-56.7c6.1,0.4,12.3,0.7,18.6,0.7c6.2,0,12.3-0.2,18.3-0.6l58.5,56.7l14.7,56l14.7-56l60-58.3  c0.3-1.2-11.2-18.4-25.2-38.9c30.4-19.5,56.6-45.1,76.7-75.1l3.5,20.8h0c2.6,15.7,16.3,27.7,32.8,27.7s30.1-12,32.8-27.7h0  c0,0,26.5-156.2,26.7-158.3l0-0.3h0C814.2,556.7,814.4,554.4,814.4,552.1z M650.4,157.7l15.1-3.8l-3.8-15.1l15.1-3.8l-3.8-15.1  l15.1-3.8l3.8,15.1l-15.1,3.8l3.8,15.1l-15.1,3.8l3.8,15.1l-15.1,3.8L658,188l-15.1,3.8l-3.8-15.1l15.1-3.8L650.4,157.7z M245.6,736  c-11.2,0-20.7-7.6-23.4-18.3H269C266.3,728.4,256.8,736,245.6,736z M754.4,736c-11.2,0-20.7-7.6-23.4-18.3h46.8  C775.1,728.4,765.6,736,754.4,736z M340.5,346.3l134.5,162.4l25.5-47.6l25.5,47.6l134.5-162.4l-91.9,165.4l109.1-94l-81.2,110.9  c47.2-11,92.1-30.2,133.1-57.1c2.7,7.7,5,15.4,7,23.3c4.8,19.1,7.2,38.8,7.2,58.7c0,2.8-0.1,5.6-0.2,8.8  c-14.2,9.6-28.9,18.2-43.9,26c-61.3,31.6-129.1,48.1-199.2,48.1c-34.4,0-68.4-4-101.2-11.8c-9.7-2.3-19.3-5-28.9-7.9  c-24.1-7.5-47.6-17.2-70.2-28.9c-14.7-7.6-29-16.1-42.9-25.5c-0.1-3.1-0.2-6-0.2-8.8c0-19.8,2.4-39.3,7.1-58.3  c2-8,4.3-15.9,7.1-23.6c41.1,26.9,85.9,46,133.1,57.1l-81.2-110.9l109.1,94L340.5,346.3z"></path></svg>