<svg xmlns="http://www.w3.org/2000/svg" xmlns:xlink="http://www.w3.org/1999/xlink" version="1.1" x="0px" y="0px" viewBox="0 0 100 100" enable-background="new 0 0 100 100" xml:space="preserve"><g><path d="M58.78,47.148c1.498-1.257,2.096-2.933,2.096-5.566c0-2.454-1.616-4.369-3.409-5.147c-2.038-0.898-5.028-0.898-8.082-0.898   h-1.974v13.467h3.291C54.594,49.003,57.046,48.644,58.78,47.148z"></path><path d="M51.259,15.335c-18.895,0-34.267,15.372-34.267,34.267s15.372,34.267,34.267,34.267s34.267-15.372,34.267-34.267   S70.153,15.335,51.259,15.335z M70.511,60.137v8.497h-23.1v3.412H35.797v-3.412h-5.684v-8.497h5.684v-2.694h-5.684v-8.439h5.684   V27.157h19.094c5.688,0,9.337,0.958,12.392,2.933c3.649,2.334,5.564,6.045,5.564,11.252c0,4.01-1.437,8.08-4.069,10.713   c-3.591,3.531-7.662,5.387-14.184,5.387h-7.183v2.694H70.511z"></path></g><path d="M90.534,48.085c-0.398-0.834-0.509-2.242-0.246-3.128c0.263-0.887,0.05-2.235-0.475-2.997  c-0.524-0.762-0.854-2.135-0.732-3.052c0.121-0.917-0.301-2.215-0.938-2.885c-0.638-0.67-1.178-1.975-1.201-2.899  c-0.024-0.924-0.644-2.141-1.378-2.704c-0.733-0.562-1.471-1.766-1.64-2.676c-0.168-0.909-0.97-2.014-1.783-2.454  c-0.813-0.441-1.729-1.515-2.038-2.387s-1.273-1.837-2.146-2.146c-0.872-0.308-1.946-1.225-2.387-2.038s-1.545-1.615-2.454-1.783  c-0.91-0.168-2.113-0.906-2.676-1.64c-0.562-0.734-1.779-1.354-2.703-1.378c-0.925-0.023-2.229-0.564-2.9-1.201  c-0.67-0.637-1.969-1.059-2.885-0.938c-0.917,0.122-2.29-0.208-3.052-0.732c-0.763-0.524-2.11-0.737-2.997-0.475  c-0.887,0.263-2.294,0.152-3.129-0.246c-0.834-0.398-2.199-0.398-3.034,0s-2.242,0.509-3.128,0.246  c-0.887-0.263-2.235-0.049-2.997,0.475c-0.762,0.524-2.135,0.854-3.052,0.732c-0.917-0.121-2.215,0.301-2.885,0.938  c-0.67,0.637-1.975,1.178-2.899,1.201c-0.924,0.024-2.141,0.644-2.704,1.378c-0.562,0.733-1.766,1.471-2.676,1.64  c-0.909,0.168-2.014,0.97-2.454,1.783c-0.441,0.813-1.515,1.73-2.387,2.038c-0.872,0.309-1.837,1.274-2.146,2.146  c-0.308,0.872-1.225,1.946-2.038,2.387c-0.813,0.44-1.615,1.545-1.783,2.454c-0.168,0.91-0.906,2.114-1.64,2.676  c-0.734,0.562-1.354,1.779-1.378,2.704c-0.023,0.924-0.564,2.229-1.201,2.899c-0.637,0.67-1.059,1.969-0.938,2.885  c0.122,0.917-0.208,2.29-0.732,3.052c-0.524,0.762-0.737,2.11-0.475,2.997c0.263,0.886,0.152,2.294-0.246,3.128s-0.398,2.2,0,3.034  c0.398,0.834,0.509,2.242,0.246,3.129c-0.263,0.887-0.049,2.234,0.475,2.996c0.524,0.762,0.854,2.135,0.732,3.052  c-0.121,0.917,0.301,2.216,0.938,2.886c0.637,0.67,1.178,1.975,1.201,2.898c0.024,0.926,0.644,2.141,1.378,2.703  c0.733,0.564,1.471,1.768,1.64,2.678c0.168,0.908,0.97,2.014,1.783,2.453c0.813,0.441,1.73,1.516,2.038,2.387  c0.309,0.873,1.274,1.838,2.146,2.146s1.946,1.225,2.387,2.037c0.44,0.812,1.545,1.615,2.454,1.783  c0.91,0.168,2.114,0.906,2.676,1.641c0.562,0.734,1.779,1.354,2.704,1.377s2.229,0.564,2.899,1.201s1.969,1.059,2.885,0.938  c0.917-0.121,2.29,0.209,3.052,0.732c0.762,0.525,2.11,0.738,2.997,0.475c0.886-0.264,2.294-0.152,3.128,0.246s2.2,0.398,3.034,0  c0.835-0.398,2.242-0.51,3.129-0.246s2.234,0.051,2.997-0.475c0.762-0.523,2.135-0.854,3.052-0.732  c0.916,0.121,2.215-0.301,2.885-0.938c0.671-0.637,1.976-1.178,2.9-1.201c0.924-0.023,2.141-0.643,2.703-1.377  s1.766-1.473,2.676-1.641c0.909-0.168,2.014-0.971,2.454-1.783s1.515-1.729,2.387-2.037s1.837-1.273,2.146-2.146  c0.309-0.871,1.225-1.945,2.038-2.387c0.813-0.439,1.615-1.545,1.783-2.453c0.169-0.91,0.906-2.113,1.64-2.678  c0.734-0.562,1.354-1.777,1.378-2.703c0.023-0.924,0.563-2.229,1.201-2.898c0.637-0.67,1.059-1.969,0.938-2.886  c-0.122-0.917,0.208-2.29,0.732-3.052s0.737-2.109,0.475-2.996s-0.152-2.295,0.246-3.129C90.933,50.285,90.933,48.919,90.534,48.085  z M51.259,86.222c-20.192,0-36.62-16.428-36.62-36.62s16.428-36.62,36.62-36.62s36.62,16.428,36.62,36.62  S71.451,86.222,51.259,86.222z"></path></svg>