<svg fill="#5F327C" xmlns="http://www.w3.org/2000/svg" data-name="Layer 1" viewBox="0 0 5 5" x="0px" y="0px"><defs><style>.cls-1{fill-rule:evenodd;}</style></defs><title>MICROBES</title><path class="cls-1" d="M3.2643,1.60258l.23056-.09493c.00661-.0147.01339-.03117.02123-.0471a.12539.12539,0,0,1,.11574-.071.1916.1916,0,0,1,.14907.04883.28451.28451,0,0,1,.10667.24456.40452.40452,0,0,0-.0029.04475.07941.07941,0,0,1-.05839.0813,1.22624,1.22624,0,0,1-.12093.03259c-.02315.00537-.0471.007-.07926.01167a.511.511,0,0,1-.05124-.017.214.214,0,0,0-.08839-.01087.10556.10556,0,0,0-.0795.03581c-.01216.0132-.02513.0258-.03642.03975a.06739.06739,0,0,0-.0021.09043.21688.21688,0,0,0,.13537.08086.50279.50279,0,0,0,.29839-.02821c.08234-.02685.16568-.05074.24833-.0766a.29289.29289,0,0,1,.21018.01624.17252.17252,0,0,0,.07729.01222.65309.65309,0,0,1,.11543.01253.06244.06244,0,0,1,.04994.04672.12972.12972,0,0,1,.01049.05229.25682.25682,0,0,1-.19148.252c-.01463.00321-.02895.00759-.04352.01123a.136.136,0,0,1-.10327-.01877.06823.06823,0,0,1-.03808-.05716c-.0008-.01456-.004-.02895-.00574-.04074a.10831.10831,0,0,0-.10605-.01463c-.02253.00777-.04389.019-.0658.02864-.052.02284-.10426.04494-.1558.06882-.02124.00982-.0408.02334-.06457.03722a.1088.1088,0,0,0,.01451.03395,1.24874,1.24874,0,0,1,.15037.18907.12759.12759,0,0,0,.06864.054.23244.23244,0,0,1,.10636.07969.106.106,0,0,1-.005.15827.1726.1726,0,0,1-.11765.05728.67616.67616,0,0,1-.16068.00525.1713.1713,0,0,1-.03487-.00673.09051.09051,0,0,1-.0576-.123.68458.68458,0,0,1,.0376-.07543L3.725,2.70818a.16244.16244,0,0,0-.17321-.10037.30918.30918,0,0,0-.05346.00408.34365.34365,0,0,1-.18487-.01975.43777.43777,0,0,0-.16636-.01241l.00364.021c.04543.03877.09086.07772.13778.11469a.21809.21809,0,0,1,.056.0571.29363.29363,0,0,0,.04019.04808.19633.19633,0,0,1,.05222.16518.50474.50474,0,0,1-.03685.14716.39.39,0,0,0-.0208.19407.114.114,0,0,0,.04975.0876.22867.22867,0,0,1,.11932.00556.08741.08741,0,0,1,.063.05864.37307.37307,0,0,1,.02364.132.16418.16418,0,0,1-.10167.1553.14947.14947,0,0,1-.161-.005c-.03475-.02315-.07185-.0429-.10629-.06642a.38994.38994,0,0,1-.16161-.35852.70339.70339,0,0,0,.00037-.15913c-.0171-.00729-.02624-.00037-.03037.012a.406.406,0,0,1-.1358.18543.53084.53084,0,0,0-.10914.1179.11.11,0,0,1-.01512.02222.42517.42517,0,0,0-.1029.19642.1077.1077,0,0,0,.04624.13225.0558.0558,0,0,0,.03407.00729.38956.38956,0,0,0,.05235-.01149.09326.09326,0,0,1,.09111.02531.19947.19947,0,0,1,.05932.20407c-.00235.00864-.00734.01667-.00925.02531a.17693.17693,0,0,1-.13389.13148.77052.77052,0,0,1-.09568.02382.13676.13676,0,0,1-.17673-.09629l-.01234-.03136c-.00692-.00482-.01142-.01012-.01673-.01111a.19705.19705,0,0,1-.16018-.17073.47485.47485,0,0,1-.00537-.21367.11194.11194,0,0,0,.00272-.03562c-.0008-.00741-.00611-.01827-.012-.02025a.03273.03273,0,0,0-.02432.00592.06991.06991,0,0,0-.02506.025c-.04241.09536-.08358.19132-.12586.289a.23636.23636,0,0,0,.02982.03519.21513.21513,0,0,1,.06549.11531.17706.17706,0,0,1,.00321.07074.08417.08417,0,0,1-.05908.073.52183.52183,0,0,1-.09586.02124.46544.46544,0,0,1-.16018-.01556.139.139,0,0,1-.09068-.06827A.11572.11572,0,0,1,1.88407,4.11a.63486.63486,0,0,1,.03765-.07136.10679.10679,0,0,0,.0163-.08531.177.177,0,0,1,.03006-.14367,1.26151,1.26151,0,0,1,.234-.28191A.4401.4401,0,0,0,2.283,3.43237a.235.235,0,0,0,.02575-.21444c-.00587-.01636-.01087-.033-.01624-.04945a.10142.10142,0,0,0-.08327.03457.68915.68915,0,0,1-.05043.051.20878.20878,0,0,0-.07537.20784.4018.4018,0,0,1,.00438.04475.15422.15422,0,0,1-.18561.16482A.19138.19138,0,0,1,1.779,3.60324a.4723.4723,0,0,1-.06543-.11654.08808.08808,0,0,1,.05278-.10988c.00815-.00364.01741-.00469.02568-.00808s.01568-.00808.02765-.01438c.00173-.02451.00284-.05062.00562-.07667a.17826.17826,0,0,0,.00482-.07191.08356.08356,0,0,0-.02784.004c-.03315.02037-.064.04493-.09852.06265a.23316.23316,0,0,0-.1042.11957.81673.81673,0,0,1-.1016.19889.16474.16474,0,0,0-.01518.04179.492.492,0,0,1-.07463.13235.08851.08851,0,0,1-.08753.03438.70481.70481,0,0,1-.129-.03672.12222.12222,0,0,1-.05191-.04741.76664.76664,0,0,1-.06277-.11883.12648.12648,0,0,1,.029-.14858A.1694.1694,0,0,1,1.204,3.408a.63105.63105,0,0,1,.07173-.00494.07185.07185,0,0,0,.067-.0508.12674.12674,0,0,0,.00815-.02568.88959.88959,0,0,1,.16982-.33271.55314.55314,0,0,1,.06166-.06531.25165.25165,0,0,0-.19882-.04136.12845.12845,0,0,0-.1.06722c-.04821.09012-.0529.09136-.15512.08025l-.00913.001c-.03914.03129-.07809.06339-.1179.09419a.1061.1061,0,0,1-.10167.0216A.76705.76705,0,0,1,.744,3.06787a.08085.08085,0,0,1-.02327-.0376C.70834,2.99985.698,2.96861.6868,2.93781c.00889-.03241.01611-.0645.02667-.09549A.15228.15228,0,0,1,.859,2.74189a.12572.12572,0,0,1,.03451.00858.17694.17694,0,0,0,.07938.02086.5938.5938,0,0,1,.28222-.16018c.00994-.0029.01765-.01334.02858-.022a.82869.82869,0,0,0-.23895-.25623.54671.54671,0,0,0-.247-.07376.03854.03854,0,0,0-.04234.02618c-.00784.01938-.0137.03975-.02321.05821a.07.07,0,0,1-.08229.03944.16015.16015,0,0,1-.13728-.11383.45364.45364,0,0,1-.02488-.18555.16183.16183,0,0,1,.07944-.12333.21885.21885,0,0,1,.21438-.008.09351.09351,0,0,1,.03531.02648.173.173,0,0,0,.09327.05q.07741.02213.1542.046a.09815.09815,0,0,1,.03056.01784.81672.81672,0,0,0,.25.13271l.00728-.00364c.00092-.00537.00426-.012.00222-.016a.5443.5443,0,0,0-.0458-.087.7184.7184,0,0,1-.09444-.21241.306.306,0,0,1,.00074-.16882.06586.06586,0,0,0-.01759-.07352c-.0621-.05142-.05055-.11543-.03518-.18135a.13853.13853,0,0,1,.07654-.09438.11966.11966,0,0,1,.05111-.01506.82419.82419,0,0,1,.23185.01537.13829.13829,0,0,1,.063.03259.08451.08451,0,0,1,.01994.1063.23583.23583,0,0,1-.10864.115c-.008.00346-.01525.00833-.02506.01377.00408.03556.00834.07067.01191.1058a.266.266,0,0,1,.00358.06234.18447.18447,0,0,0,.01161.07883.27851.27851,0,0,0,.07414.1195.77805.77805,0,0,0,.16537.13617.24466.24466,0,0,0,.10957.03537c.005.00031.01043-.00463.01716-.00784a.2024.2024,0,0,0-.03334-.07105.42793.42793,0,0,1-.05451-.233A.162.162,0,0,1,1.80543,1.79.43377.43377,0,0,0,1.872,1.6348a.1778.1778,0,0,0-.02525-.14549c-.027-.04272-.04895-.08864-.0745-.13574-.0192-.00957-.041-.01951-.06179-.031a.27743.27743,0,0,0-.15493-.03641c-.113.00648-.13253-.042-.16148-.11081A.17938.17938,0,0,1,1.43932.99388.41375.41375,0,0,1,1.5058.94814.08131.08131,0,0,1,1.54845.93667.70031.70031,0,0,1,1.66389.95a.14742.14742,0,0,1,.1184.09864.05823.05823,0,0,0,.04166.0434.34724.34724,0,0,1,.23562.22771.60809.60809,0,0,1,.05907.22463.35907.35907,0,0,1-.00592.1071c-.01049.04358-.01778.088-.02556.13216a.24555.24555,0,0,0-.00358.04469.14109.14109,0,0,0,.12876.13809.052.052,0,0,0,.04-.01475.45756.45756,0,0,0,.12783-.21216.96657.96657,0,0,0,.01358-.32111A.17943.17943,0,0,0,2.32765,1.295a.476.476,0,0,1-.06247-.06364c-.03815-.04562-.07457-.09284-.11333-.14142a.21832.21832,0,0,1-.11419-.00846.12959.12959,0,0,1-.07136-.0766A.74775.74775,0,0,1,1.94691.91741.0459.0459,0,0,1,1.94876.89092.25264.25264,0,0,1,2.04524.755c.02093-.01142.0387-.02846.05975-.03956a.14529.14529,0,0,1,.161.00308A.22423.22423,0,0,1,2.36628.8171c.01673.04253.03852.08395.0058.12111a.25055.25055,0,0,0,.09845.1437c.04765.0358.0913.077.13562.11716a1.06288,1.06288,0,0,1,.1371.1658.17393.17393,0,0,1,.02808.10259c.00074.05086-.00031.10179-.00062.15271-.00012.02667,0,.05346,0,.08457a.12287.12287,0,0,0,.09333-.06123.6621.6621,0,0,0,.06834-.12605.208.208,0,0,0,.00925-.08839c-.0045-.06549-.01135-.131-.02135-.196A.1093.1093,0,0,1,2.94,1.14067a.191.191,0,0,0,.04364-.0971A.06854.06854,0,0,0,2.96875.98524L2.9572.97147C2.87474.88636,2.91671.809,2.97795.73327A.05042.05042,0,0,1,3.0006.71944a.33639.33639,0,0,1,.27018.005.11811.11811,0,0,1,.0737.11266.17975.17975,0,0,1-.05062.13055.4069.4069,0,0,1-.034.02932.10341.10341,0,0,0-.04049.07722.28191.28191,0,0,1-.0237.09512.23362.23362,0,0,0-.01482.06932.20323.20323,0,0,0,.01944.1395.75013.75013,0,0,1,.05142.19A.21055.21055,0,0,0,3.2643,1.60258ZM3.0556,3.01083l.001-.00117c.0063.02537.012.05074.0192.07586.00284.0105.00167.02408.018.02883a.14745.14745,0,0,0-.00358-.0679A.04577.04577,0,0,0,3.0556,3.01083Zm-.73585-.21753a.37319.37319,0,0,0,.14888-.07981.02991.02991,0,0,0,.01-.01438.0306.0306,0,0,0-.00192-.016l-.007-.00457a.09627.09627,0,0,0-.026.00377.241.241,0,0,0-.1229.11228L2.31234,2.795l-.00488.00482Zm-.79123-.41407L1.5258,2.37732l.00339.00241a.924.924,0,0,0,.08389.13716.3079.3079,0,0,0,.19777.1279.03909.03909,0,0,0,.01777.00043.31566.31566,0,0,0,.18475-.083.1282.1282,0,0,0,.02284-.03778.02383.02383,0,0,0-.02222-.037c-.04772.00118-.0955.00358-.14315.00444a.396.396,0,0,1-.21679-.04456C1.61315,2.42306,1.57043,2.40177,1.52852,2.37924Zm1.58245-.174a.23011.23011,0,0,0-.0316.01994.64692.64692,0,0,0-.05124.05031.11814.11814,0,0,0-.01759.031.49985.49985,0,0,1-.02167.0487c-.00321.00544-.01518.00716-.02321.00729-.00376.00006-.01056-.00753-.01086-.012a.13726.13726,0,0,1,.0008-.053.30245.30245,0,0,1,.10253-.15389c.03667-.0258.07086-.055.10735-.08093a.246.246,0,0,0,.08888-.11012,1.07241,1.07241,0,0,1,.05358-.11326.131.131,0,0,1,.04068-.04667A.27166.27166,0,0,1,3.56041,1.742a1.81556,1.81556,0,0,0,.20451.0237.04136.04136,0,0,0,.04284-.02685.13155.13155,0,0,0,.01074-.04309.274.274,0,0,0-.04642-.15191.19943.19943,0,0,0-.10543-.07815A.03263.03263,0,0,0,3.649,1.46487a.09956.09956,0,0,0-.08457.08988.07144.07144,0,0,1-.04278.06234.05742.05742,0,0,1-.03395.00846.25439.25439,0,0,0-.16012.05049.42552.42552,0,0,0-.138.11253.932.932,0,0,1-.14635.1563.21747.21747,0,0,1-.1008.05679.14833.14833,0,0,0-.04945.02043.17181.17181,0,0,1-.12932.02049.39614.39614,0,0,1-.10228-.03228.07977.07977,0,0,0-.02358-.00364.05449.05449,0,0,0,.00734.06068.15244.15244,0,0,0,.08327.065.083.083,0,0,1,.05358.04456.03611.03611,0,0,1-.01513.0463.08669.08669,0,0,1-.034.00759.158.158,0,0,1-.11339-.06519.19428.19428,0,0,1-.04519-.2303c.03278-.07389.062-.14932.09451-.22333a.47193.47193,0,0,0,.02413-.25611.10493.10493,0,0,0-.01426-.0421.6562.6562,0,0,0-.141-.1732c-.04309-.03315-.08-.072-.12074-.1071A.57328.57328,0,0,1,2.3082,1.003.1259.1259,0,0,1,2.2903.89284.10743.10743,0,0,0,2.1845.76716a.15656.15656,0,0,0-.14944.214.04954.04954,0,0,0,.08845.01938L2.13524.987a.04524.04524,0,0,1,.06352.0092c.00642.00994.01049.02136.016.03191a.3541.3541,0,0,0,.03426.0626c.04932.05993.101.1179.15173.17673a.25221.25221,0,0,1,.065.13462,1.01543,1.01543,0,0,1-.00161.29463.39759.39759,0,0,1-.05672.1595.91063.91063,0,0,0-.04945.08537.16989.16989,0,0,0-.02049.05821.0899.0899,0,0,1-.04346.07376.07785.07785,0,0,0-.03123.08006.48486.48486,0,0,1,.05049.04846.04593.04593,0,0,1-.02667.071.12613.12613,0,0,1-.03556.00308,1.22584,1.22584,0,0,0-.32228.009.29338.29338,0,0,1-.20006-.03457.65259.65259,0,0,1-.2242-.18963c-.01815-.02741-.03734-.05438-.05377-.08277a.19419.19419,0,0,1-.03191-.11081.57268.57268,0,0,0-.02061-.17771.16821.16821,0,0,1,.00882-.1071.20984.20984,0,0,1,.04259-.01191c.04765-.0029.06574-.0358.079-.07413a.0315.0315,0,0,0-.02351-.04136.77938.77938,0,0,0-.2058-.0092.06531.06531,0,0,0-.05993.047c-.01716.05037-.02772.09537.03358.13383a.07573.07573,0,0,1,.03395.09228.18443.18443,0,0,1-.01087.03414.21388.21388,0,0,0-.00123.15827.72854.72854,0,0,0,.16568.2845c.0466.04636.09414.0921.1421.137a.31478.31478,0,0,0,.30474.08827.58071.58071,0,0,1,.18636-.01691.79876.79876,0,0,0,.13414.00327.17665.17665,0,0,1,.11123.02587c.01784.011.03586.02172.05339.03308a.09782.09782,0,0,1,.05025.07068.161.161,0,0,0,.04426.08667.01966.01966,0,0,0,.01574.00494c.00482-.0008.00913-.00611.01284-.01018l.00253-.0084a.38.38,0,0,0-.0221-.16765c-.00759-.01951-.01506-.03908-.021-.059A.03082.03082,0,0,1,2.49264,2.347a.03732.03732,0,0,1,.0408.01074.0601.0601,0,0,1,.015.0221c.01691.05426.03451.10833.04877.16327a.22124.22124,0,0,1-.06167.20648.49167.49167,0,0,1-.14259.10771,2.17234,2.17234,0,0,0-.30888.18173.36154.36154,0,0,0-.17012.29031.183.183,0,0,1-.03791.0895c-.00481.00852-.01981.01185-.03068.01587a.2114.2114,0,0,0-.0337.00932.02739.02739,0,0,0-.0113.0221.13792.13792,0,0,0,.11993.11506c.06352.00512.096-.027.08994-.09025C2.00882,3.47626,2.00277,3.46206,2,3.44743a.15507.15507,0,0,1-.0071-.05271.31538.31538,0,0,1,.10185-.2037.90669.90669,0,0,1,.22456-.14611c.06648-.02673.129-.06408.19618-.08821A1.91684,1.91684,0,0,0,2.73,2.866a.18842.18842,0,0,0,.11845-.241l-.004-.02642a.03532.03532,0,0,1,.03284-.0358.07952.07952,0,0,1,.03513.00265A.08319.08319,0,0,0,2.982,2.565c.02537-.009.05142-.01648.076-.02722a.43636.43636,0,0,1,.29012-.01543A.44407.44407,0,0,0,3.48034,2.54c.02679-.00123.0537-.00611.08037-.00513a.22341.22341,0,0,1,.1913.07821.99732.99732,0,0,0,.06926.08247.21362.21362,0,0,1,.043.10661.03286.03286,0,0,1-.02784.03907c-.01167.00216-.024.00049-.03556.00284-.00358.00075-.00808.00932-.00772.014a.02148.02148,0,0,0,.01006.01309.0294.0294,0,0,0,.01685.00481c.03877-.00277.078-.00413.11624-.01049A.25619.25619,0,0,0,4.003,2.84109a.04393.04393,0,0,0,.021-.05377.08761.08761,0,0,0-.04247-.05562.19959.19959,0,0,0-.05784-.0237A.10872.10872,0,0,1,3.838,2.63812a.58815.58815,0,0,0-.14444-.18129.28836.28836,0,0,0-.1937-.08241,1.69049,1.69049,0,0,1-.17889-.0153.241.241,0,0,1-.18876-.122C3.12653,2.2272,3.11955,2.21807,3.111,2.20523Zm-.24654.68691c-.0771.042-.148.08043-.21864.11938a.03153.03153,0,0,0-.014.04555c.01772.03117.03623.06191.05524.09228a.15673.15673,0,0,1,.008.15457.46442.46442,0,0,1-.08624.13574.66922.66922,0,0,0-.09493.14012.54231.54231,0,0,0-.062.25873.22494.22494,0,0,0,.11475.20975.06028.06028,0,0,0,.03346.00741.05345.05345,0,0,1,.05031.03123.27136.27136,0,0,1,.01568.0416.07055.07055,0,0,0,.08531.04765.70282.70282,0,0,0,.08691-.02234.14278.14278,0,0,0,.062-.21679.04219.04219,0,0,0-.07339.00544c-.0042.00777-.00531.01728-.00957.02506a.03594.03594,0,0,1-.05308.01556.15116.15116,0,0,1-.03475-.027c-.02056-.02185-.0392-.04531-.059-.06777a.18329.18329,0,0,1-.03309-.2009c.00963-.02512.01834-.05061.02753-.07586a.44119.44119,0,0,1,.09876-.15883c.05852-.05975.12068-.11586.18117-.17364a.17151.17151,0,0,0,.04846-.20333c-.00673-.01667-.01161-.03414-.01944-.05031A.30224.30224,0,0,0,2.86443,2.89213Zm-1.97689-.076A.11623.11623,0,0,0,.798,2.859a.1195.1195,0,0,0,.00969.16247.3096.3096,0,0,0,.12062.058A.05506.05506,0,0,0,.986,3.06293a.68909.68909,0,0,0,.04685-.06512.08039.08039,0,0,1,.06562-.04093.351.351,0,0,1,.04469-.00259A.07046.07046,0,0,0,1.22,2.90546a.14135.14135,0,0,1,.08519-.07555.34454.34454,0,0,1,.237-.01482,1.01436,1.01436,0,0,0,.19148.04512.45628.45628,0,0,1,.05272.0108.38279.38279,0,0,0,.28636-.03123.426.426,0,0,0,.038-.024c.05877-.04117.11938-.08006.17506-.12506A.49811.49811,0,0,0,2.36042,2.602a.03345.03345,0,0,0-.00463-.04834A.56109.56109,0,0,0,2.29863,2.511a.14408.14408,0,0,0-.202.0516.32507.32507,0,0,1-.151.12019,1.05689,1.05689,0,0,1-.12666.04531.10083.10083,0,0,1-.08654-.00463A.12907.12907,0,0,0,1.681,2.71028c-.10432-.00815-.209-.01321-.31314-.023a.31525.31525,0,0,0-.18271.02956c-.0671.03513-.13525.06741-.148.1542a.04668.04668,0,0,1-.00889.01525.03668.03668,0,0,1-.04.01272.122.122,0,0,1-.03056-.01784C.93316,2.8596.9097,2.83676.88754,2.81614Zm1.78214-.89573.05259.03908a.10149.10149,0,0,0,.11019.01136c.0271-.01247.05247-.02939.08043-.03914a.32144.32144,0,0,0,.16888-.15432q.03158-.0537.06241-.108a.21845.21845,0,0,0,.01044-.22222.61091.61091,0,0,1-.04136-.1637.13487.13487,0,0,1,.0037-.05339c.00389-.02044.01111-.04031.01648-.06062a.29184.29184,0,0,0,.0247-.13086.067.067,0,0,1,.00963-.034A.213.213,0,0,1,3.22035.93265.21126.21126,0,0,0,3.26054.88512.07633.07633,0,0,0,3.21547.77685.33406.33406,0,0,0,3.09115.77253a.12285.12285,0,0,0-.10247.08839.04586.04586,0,0,0,.04654.05981c.01753-.00259.03451-.00913.052-.01185.01561-.00241.03518.02395.02765.03759A.44628.44628,0,0,1,3.08467.9903c-.01389.01938-.03666.037-.04043.05815-.00852.04821-.03586.08883-.04648.13537a.13372.13372,0,0,0-.00525.06124,1.26791,1.26791,0,0,1,.0197.16852.43551.43551,0,0,1-.08648.27623.03724.03724,0,0,1-.01234.01284.55648.55648,0,0,1-.16784.10142A.063.063,0,0,0,2.7,1.84394C2.69,1.86838,2.68042,1.8932,2.66968,1.92041ZM3.188,3.29453a.8466.8466,0,0,1,.00593.11555.27014.27014,0,0,0,.05956.16488.107.107,0,0,0,.03216.03049c.03729.025.07531.04883.11346.07229a.18769.18769,0,0,0,.04037.019.09147.09147,0,0,0,.11414-.06019.25857.25857,0,0,0,.00012-.08882c-.00864-.04914-.03648-.05852-.08321-.03234l-.00734.00518a.05857.05857,0,0,1-.06741-.00173.19548.19548,0,0,1-.08691-.11031A.3698.3698,0,0,1,3.29763,3.231c.00926-.04383.02234-.08679.03358-.13018.009-.03475.0176-.0695.027-.10419a.11835.11835,0,0,0-.003-.07062.33981.33981,0,0,0-.09568-.14919c-.05617-.04914-.116-.09407-.17419-.1408a.11932.11932,0,0,0-.119-.01475.03955.03955,0,0,0-.0232.02488c-.00821.047-.0142.09444-.01852.142a.04542.04542,0,0,0,.01389.03136.33638.33638,0,0,0,.04969.038c.02487.01661.05166.03049.07586.048a.17253.17253,0,0,1,.09438.14247.05764.05764,0,0,0,.00531.01691A.59669.59669,0,0,1,3.188,3.29453ZM2.194,2.06677c-.03352-.01722-.0642-.02988-.09154-.0476a.18621.18621,0,0,1-.09191-.14592.39193.39193,0,0,1,.00556-.13333c.01043-.04043.01858-.08155.02543-.12271a.27216.27216,0,0,0-.01858-.175c-.0108-.021-.01519-.04562-.02642-.06654-.02525-.04722-.05129-.0942-.08006-.13932a.14284.14284,0,0,0-.0887-.05685.09485.09485,0,0,0-.08358.02179.06245.06245,0,0,1-.02506.008.03853.03853,0,0,1-.04018-.04636c.0071-.01963.01716-.03821.02377-.058a.06145.06145,0,0,0-.03013-.07624.13923.13923,0,0,0-.13728-.00253.10927.10927,0,0,0-.0737.09252.08762.08762,0,0,0,.08457.09525.38441.38441,0,0,1,.21376.05358.19582.19582,0,0,1,.09062.09506c.01877.04062.03988.08019.05908.1205a.2704.2704,0,0,1,.00531.23389c-.02118.04926-.03939.09993-.05562.15111a.24914.24914,0,0,0-.00722.07037.37444.37444,0,0,0,.05834.17845.27523.27523,0,0,0,.12185.05056.435.435,0,0,0,.14846-.00617A.13234.13234,0,0,0,2.194,2.06677Zm.95869.09808c.02247.024.03975.04451.059.06278a.20228.20228,0,0,0,.14376.06438c.03883-.0003.07772.00068.11654.00025a.25049.25049,0,0,1,.11475.014.09463.09463,0,0,0,.04346.00544.67038.67038,0,0,0,.29493-.09759.28043.28043,0,0,1,.20463-.04426c.02074.00284.04111.00827.06185.011.02019.00272.04327-.00425.05809.01568.01889.02562-.00426.04438-.01241.06549-.00426.01118.0058.02673.01734.02525A.37073.37073,0,0,0,4.32447,2.275a.16551.16551,0,0,0,.11821-.17043c-.00068-.02611-.01549-.04129-.03957-.03562-.02882.00673-.05666.01765-.08506.02648a.06874.06874,0,0,1-.073-.01654.19368.19368,0,0,0-.17432-.04568c-.09074.01932-.17685.05339-.26549.07919a1.06236,1.06236,0,0,1-.11216.03086.38088.38088,0,0,1-.212-.00815c-.01661-.00661-.03408-.01136-.05062-.01821-.04365-.01808-.087-.03685-.134-.05691C3.25708,2.10134,3.19825,2.11529,3.15269,2.16486Zm-.52234,1.085a.28654.28654,0,0,0-.07586-.15636A.06536.06536,0,0,0,2.482,3.07306c-.0871.02864-.13062.03413-.09883.15858a.36045.36045,0,0,1-.02259.19327.135.135,0,0,1-.03031.0437c-.0813.09568-.16376.1903-.2442.28667a.659.659,0,0,0-.06012.08916.12875.12875,0,0,0,.00494.14407c.00975.01494.02241.0279.03235.04284a.03265.03265,0,0,1-.01513.04531c-.01938.00765-.03994.01222-.05926.01988a.055.055,0,0,0-.03.05963.063.063,0,0,0,.0421.054.37206.37206,0,0,0,.17691.01617.0541.0541,0,0,0,.04932-.06272A.09532.09532,0,0,0,2.174,4.07629c-.0108-.00506-.02228-.00914-.03272-.01482a.06026.06026,0,0,1-.03166-.08914A.48358.48358,0,0,1,2.136,3.92579c.01167-.02087.02383-.04136.034-.06284.02309-.04855.04124-.09985.06852-.14584a.351.351,0,0,1,.12259-.13975c.07815-.04413.08241-.033.12314-.112a.09148.09148,0,0,1,.02222-.0279A.46751.46751,0,0,0,2.63035,3.24985Zm-1.27165.46536a.7745.7745,0,0,0,.064-.13476.71194.71194,0,0,1,.07457-.12123.25854.25854,0,0,0,.01154-.0337c.02025-.04636.04074-.09266.062-.13852a.05954.05954,0,0,1,.01765-.01987c.05129-.04062.10327-.08049.15457-.12117a.30369.30369,0,0,1,.137-.06234.11221.11221,0,0,0,.04939-.01815c.03228-.026.06172-.05568.09185-.08445l.00654-.02a.14829.14829,0,0,0-.04334.00068.17576.17576,0,0,1-.09728.00525.46428.46428,0,0,0-.204.00994.177.177,0,0,0-.10907.05747.6354.6354,0,0,0-.1474.29172.40294.40294,0,0,1-.03586.10062.09342.09342,0,0,1-.11481.06055.15322.15322,0,0,0-.088.00716.05407.05407,0,0,0-.03784.05463.19958.19958,0,0,0,.03358.10969.10048.10048,0,0,0,.06339.04629A.36216.36216,0,0,0,1.35871,3.71521Zm.2271-1.10629-.03994-.06086c-.01506-.02234-.03222-.04346-.045-.067a.47825.47825,0,0,0-.18654-.18888c-.07512-.043-.15487-.07753-.22586-.1279a.15355.15355,0,0,0-.03253-.01451c-.02777-.01092-.0558-.02117-.08358-.03228a.29212.29212,0,0,0-.09457-.02623.15168.15168,0,0,1-.1045-.04506.13469.13469,0,0,0-.14117-.03056A.10083.10083,0,0,0,.5544,2.093.26492.26492,0,0,0,.581,2.2756a.07724.07724,0,0,0,.03129.03049c.042.02537.06716.01142.06944-.03716C.682,2.263.68057,2.257.681,2.251a.04809.04809,0,0,1,.04247-.05c.03222-.00649.06493-.01074.09765-.01432a.22518.22518,0,0,1,.14654.02975.46536.46536,0,0,0,.08981.04074.31629.31629,0,0,1,.13722.098c.0716.08333.1408.16871.21258.25518A.62432.62432,0,0,0,1.5858,2.60892Z"></path></svg>