<svg fill="#F1F100" xmlns="http://www.w3.org/2000/svg" xmlns:xlink="http://www.w3.org/1999/xlink" version="1.1" x="0px" y="0px" viewBox="0 0 100 100" enable-background="new 0 0 100 100" xml:space="preserve"><path d="M53.068,64.416c9.767,7.235,20.517-7.804,20.517-7.804c-14.264-2.547-19.969,6.311-20.669,7.508  c-2.204-4.086-3.374-8.416-3.867-12.933c6.568,8.102,21.806-8.223,21.806-8.223l-3.276-1.092  c-14.134-1.047-18.226,8.441-18.539,9.224c-0.417-3.889-0.337-7.916,0.015-12.048c15.266-2.398,16.341-14.1,16.341-14.1  c-10.073,0-14.492,7.727-16.118,11.778c0.049-0.462,0.095-0.923,0.15-1.388c1.162-9.895,0.509-23.518-11.313-26.627  c-5.227-1.373-13.128,1.845-11.477,8.607c1.062,4.35,6.069,6.01,7.56,1.092c0.454-1.499-3.086-3.487-0.621-5.634  c5.357-4.662,11.281,10.966,11.671,14.092c0.362,2.902,0.253,5.805-0.006,8.709c-1.32-3.068-5.538-9.792-15.877-4.623  c0,0,7.744,10.836,15.701,6.414c-0.407,3.825-0.966,7.648-0.961,11.468c0.013,9.147,4.274,19.167,9.961,26.217  c5.06,6.273,10.825,9.136,12.493,16.548h4.659c-2.326-8.761-7.661-14.142-14.011-21.34C55.545,68.377,54.18,66.426,53.068,64.416z"></path></svg>
