<svg xmlns="http://www.w3.org/2000/svg" xmlns:xlink="http://www.w3.org/1999/xlink" version="1.1" x="0px" y="0px" viewBox="0 0 100 100" enable-background="new 0 0 100 100" xml:space="preserve"><g><path d="M50,7c23.7,0,43,19.3,43,43S73.7,93,50,93S7,73.7,7,50S26.3,7,50,7 M50,5C25.2,5,5,25.1,5,50c0,24.9,20.2,45,45,45   s45-20.1,45-45C95,25.1,74.8,5,50,5L50,5z"></path></g><circle cx="32.5" cy="36.5" r="2.8"></circle><g><rect x="39.5" y="35.5" width="30.8" height="2"></rect></g><circle cx="32.5" cy="52.4" r="2.8"></circle><circle cx="32.5" cy="52.4" r="2.8"></circle><g><rect x="39.5" y="51.4" width="30.8" height="2"></rect></g><circle cx="32.5" cy="68.2" r="2.8"></circle><g><rect x="39.5" y="67.2" width="30.8" height="2"></rect></g></svg>