<svg fill="#ffbf00" xmlns="http://www.w3.org/2000/svg" xmlns:xlink="http://www.w3.org/1999/xlink" version="1.1" x="0px" y="0px" viewBox="0 0 90 90" enable-background="new 0 0 90 90" xml:space="preserve"><path fill="#ffbf00" d="M64.609,83.41l0.033,0.191l-0.101,0.166c-1.576,2.652-4.541,4.236-7.937,4.236c-0.002,0-0.002,0-0.002,0  c-3.838,0-7.215-1.921-8.601-4.895L47.9,82.889l0.103-0.216c1.526-3.329,2.151-6.296,2.654-8.683  c0.409-1.949,0.768-3.605,1.477-4.92c-0.149-0.127-0.291-0.262-0.415-0.407c-0.251-0.295-0.215-0.736,0.079-0.987  c0.011-0.008,0.021-0.01,0.031-0.018c-0.035-0.036-0.07-0.067-0.101-0.104c-0.256-0.287-0.23-0.729,0.059-0.986  c0.054-0.047,0.115-0.075,0.178-0.104c-0.062-0.054-0.126-0.103-0.188-0.159c-0.284-0.263-0.301-0.707-0.039-0.99  c0.143-0.153,0.338-0.222,0.531-0.217c-2.959-4.363-5.59-15.012-5.59-31.403c-0.074-2.019-0.35-3.717-0.824-5.057  c-0.474,1.343-0.75,3.043-0.823,5.076c0,16.364-2.627,27.006-5.584,31.374c0.136,0.016,0.27,0.059,0.38,0.156  c0.29,0.254,0.319,0.695,0.065,0.986c-0.067,0.076-0.141,0.146-0.212,0.219c0.008,0.004,0.017,0.003,0.025,0.008  c0.337,0.188,0.46,0.613,0.272,0.952c-0.046,0.084-0.109,0.161-0.168,0.241c0.004,0.004,0.009,0.004,0.013,0.008  c0.292,0.253,0.325,0.695,0.072,0.986c-0.089,0.102-0.19,0.191-0.291,0.281c1.021,1.531,1.535,3.467,2.265,6.238  c0.515,1.958,1.157,4.393,2.176,7.438l0.08,0.237l-0.135,0.212c-2.898,4.527-6.069,5.477-8.219,5.477  c-3.581,0-6.376-2.48-7.682-4.604l-0.13-0.212l0.081-0.233c1.01-2.938,1.671-5.518,2.254-7.793c0.693-2.705,1.259-4.871,2.123-6.416  c-0.283-0.199-0.524-0.422-0.706-0.678c-0.217-0.303-0.151-0.72,0.139-0.949c-0.047-0.06-0.1-0.111-0.142-0.174  c-0.223-0.316-0.146-0.753,0.17-0.976c0.032-0.023,0.069-0.028,0.103-0.045c-0.069-0.065-0.14-0.126-0.206-0.195  c-0.268-0.278-0.259-0.721,0.02-0.989c0.057-0.056,0.124-0.091,0.192-0.123c-3.491-4.74-7.302-15.674-6.087-31.493  c0.407-5.282,0.563-11.683,0.01-25.633c-0.036-0.167-0.061-0.336-0.061-0.51c0-4.101,10.313-6.312,20.019-6.312  s20.021,2.212,20.021,6.313c0,0.228-0.039,0.449-0.101,0.665c-0.07,1.22-0.13,2.387-0.187,3.511l0.004,0.004  c-0.002,0.001-0.004,0.002-0.004,0.003c-0.078,1.6-0.144,3.11-0.197,4.528l0.016,0.033c-0.006,0.002-0.011,0.004-0.018,0.006  c-0.301,8.153-0.166,13.445,0.404,17.357c2.213,15.224-2.623,26.867-6.121,31.572c0.004,0.004,0.01,0.004,0.018,0.006  c0.329,0.203,0.431,0.634,0.229,0.963c-0.074,0.121-0.178,0.223-0.267,0.334c0.041,0.021,0.085,0.037,0.122,0.068  c0.296,0.25,0.332,0.689,0.082,0.984c-0.034,0.041-0.073,0.076-0.109,0.115c0.295,0.227,0.364,0.646,0.146,0.953  c-0.227,0.32-0.543,0.6-0.918,0.834c0.281,0.518,0.563,1.023,0.842,1.524C61.779,74.479,63.623,77.797,64.609,83.41z M34.403,15.408  c-3.142-0.759-5.722-1.81-7.287-3.072c0.04,1.232,0.074,2.399,0.101,3.502C30.285,17.046,32.649,16.908,34.403,15.408z   M46.24,13.813v2.232c7.865,0,14.557-1.616,18.312-4.426c0.029-0.592,0.06-1.195,0.093-1.812  C61.675,12.383,53.816,13.769,46.24,13.813z M46.854,14.932c0,0.305,0.247,0.553,0.553,0.553c0.305,0,0.553-0.248,0.553-0.553  c0-0.306-0.248-0.553-0.553-0.553C47.101,14.379,46.854,14.626,46.854,14.932z M64.365,15.905c0.041-1.083,0.088-2.208,0.144-3.393  c-1.917,1.32-4.346,2.303-7.058,2.985C59.159,16.893,61.438,17.02,64.365,15.905z M46.24,16.742v10.005  c1.027-0.151,1.839-0.324,2.281-4.327l-0.002-5.721c-0.709,0.027-1.418,0.045-2.125,0.045C46.343,16.744,46.292,16.742,46.24,16.742  z M54.242,65.797L54.242,65.797c-1.292-3.959-2.45-8.236-2.014-12.757c0.678,4.442,1.322,7.897,2.297,12.849  c0.57,0.203,1.127,0.307,1.668,0.297c0.756-5.289,1.24-8.871,1.701-13.506c0.707,4.735-0.365,9.29-1.521,13.49  c0.398-0.023,0.794-0.1,1.179-0.243c1.937-5.684,3.496-11.588,3.767-15.436c0.371,4.672-0.998,10.358-3.303,15.06  c3.34-3.55,9.112-15.523,6.75-31.789c-0.566-3.899-0.709-9.124-0.431-17.09c-1.271,0.453-2.438,0.688-3.505,0.688  c-1.664,0-3.072-0.56-4.221-1.665c-2.334,0.525-4.844,0.845-7.395,0.977v5.788c-0.453,4.128-1.38,4.727-2.734,4.958  c0.729,1.568,1.148,3.664,1.242,6.254C47.729,52.033,51.094,63.161,54.242,65.797z M45.541,16.037v-2.223  c-7.646-0.039-15.586-1.445-18.514-4.061c0.02,0.549,0.04,1.09,0.058,1.615c2.543,2.579,9.533,4.442,17.589,4.658  C44.965,16.034,45.252,16.033,45.541,16.037z M45.541,26.77V16.732c-3.633-0.055-7.201-0.454-10.3-1.132  c-1.166,1.167-2.606,1.759-4.316,1.759c-1.116,0-2.35-0.262-3.688-0.76c0.189,8.301,0.024,13.047-0.29,17.127  c-1.302,16.956,3.191,28.076,6.745,31.821c-2.303-4.699-3.672-10.386-3.303-15.057c0.269,3.848,1.831,9.752,3.766,15.436  c0.384,0.143,0.778,0.219,1.179,0.243c-1.156-4.2-2.228-8.755-1.519-13.489c0.46,4.635,0.946,8.217,1.702,13.504  c0.54,0.01,1.097-0.094,1.667-0.297c0.972-4.949,1.62-8.404,2.297-12.848c0.436,4.521-0.721,8.797-2.014,12.755  c3.148-2.64,6.514-13.767,6.514-32.105c0.101-2.802,0.574-5.025,1.408-6.625L45.541,26.77z M38.409,69.654  c1.048,2.43,1.28,4.893,1.008,7.592c-0.261-2.251-0.716-4.729-1.488-7.417c-0.722,0.223-1.497,0.317-2.199,0.317  c-0.123,0-0.244-0.004-0.361-0.011c-0.141-0.007-0.275-0.021-0.412-0.032c-0.349,2.463-0.542,5.215-0.428,8.31  c-0.894-3.015-0.761-5.679,0.068-8.354c-0.456-0.064-0.876-0.174-1.255-0.314c-0.802,1.419-1.35,3.54-2.032,6.199  c-0.572,2.232-1.219,4.758-2.196,7.635c1.212,1.844,3.622,3.896,6.656,3.896c2.649,0,5.134-1.651,7.198-4.783  c-0.983-2.965-1.61-5.344-2.116-7.264c-0.723-2.744-1.207-4.539-2.129-5.919C38.62,69.561,38.517,69.609,38.409,69.654z   M63.537,83.395c-0.961-5.318-2.742-8.523-4.626-11.916c-0.286-0.516-0.577-1.045-0.87-1.584c-0.303,0.106-0.628,0.189-0.971,0.25  c1.13,2.537,1.578,5.147,1.062,8.227c-0.263-3.073-0.786-5.771-1.43-8.168c-0.181,0.021-0.364,0.039-0.554,0.048  c-0.113,0.005-0.229,0.008-0.34,0.008c-0.513,0-1-0.058-1.466-0.157c-0.763,2.672-1.213,5.131-1.473,7.367  c-0.271-2.664-0.048-5.099,0.966-7.498c-0.294-0.091-0.572-0.197-0.833-0.328c-0.604,1.158-0.925,2.678-1.321,4.562  c-0.5,2.383-1.121,5.336-2.623,8.676c1.264,2.446,4.26,4.074,7.545,4.074C59.598,86.952,62.113,85.658,63.537,83.395z M26.9,7.503  c0,0.33,0.146,0.665,0.41,0.998l0.629-0.809c0.202,0.839,1.602,0.139,2.976-1.75c0.53,1.039,1.317,0.893,3.589-0.787  c-0.077,1.496,0.945,1.204,4.638-0.875c0.094,1.408,2.538,1.487,5.164-0.263c0.229,1.333,2.276,1.75,4.637,0.175  c0.111,0.99,2.189,1.401,4.466,0.263c-0.37,1.243,1.485,1.838,4.286,0.613c-0.441,1.224,1.515,1.487,4.287,1.313  c-0.17,1.132,0.652,1.834,2.447,2.114c0.26-0.331,0.404-0.664,0.404-0.992c0-2.489-7.79-5.263-18.968-5.263  C34.688,2.24,26.898,5.014,26.9,7.503z"></path></svg>
