<svg xmlns="http://www.w3.org/2000/svg" xmlns:xlink="http://www.w3.org/1999/xlink" version="1.1" x="0px" y="0px" viewBox="0 0 100 100" style="enable-background:new 0 0 100 100;" xml:space="preserve"><style type="text/css">
	.st0{fill:none;stroke:#000000;stroke-width:2;stroke-linecap:round;stroke-linejoin:round;stroke-miterlimit:10;}
</style><path d="M47.1,69.5c-0.3,0.2-0.5,0.5-0.4,0.9l0.1,3.4c0,0.5,0.5,1,1,1c0,0,0,0,0,0c0.6,0,1-0.5,1-1l-0.1-2.9l2.7-1.8  c0.5-0.3,0.6-0.9,0.3-1.4c-0.3-0.5-0.9-0.6-1.4-0.3L47.1,69.5z"></path><path d="M48.4,57.5L38,64.3c0,0,0,0,0,0c0,0,0,0,0,0c-0.1,0.1-0.2,0.1-0.2,0.2c0,0,0,0,0,0c0,0,0,0,0,0c-0.1,0.1-0.1,0.2-0.1,0.3  c0,0,0,0.1,0,0.1c0,0,0,0.1,0,0.1l0.4,15c0,0,0,0.1,0,0.1c0,0,0,0.1,0,0.1c0,0.1,0.1,0.2,0.1,0.3c0,0,0,0,0,0c0,0,0,0,0,0  c0.1,0.1,0.2,0.2,0.3,0.3L51,88.4c0,0,0.1,0,0.1,0c0,0,0.1,0,0.1,0c0.1,0,0.2,0.1,0.3,0.1c0,0,0,0,0,0c0,0,0,0,0,0c0,0,0,0,0,0  c0.1,0,0.2,0,0.3-0.1c0,0,0.1,0,0.1,0c0,0,0.1,0,0.1,0l12.1-8c0,0,0,0,0.1-0.1c0,0,0.1-0.1,0.1-0.1c0,0,0.1-0.1,0.1-0.1  c0,0,0,0,0.1-0.1c0,0,0,0,0,0c0.1-0.1,0.1-0.2,0.1-0.3c0,0,0-0.1,0-0.1c0,0,0-0.1,0-0.1l-0.4-15c0,0,0-0.1,0-0.1c0,0,0-0.1,0-0.1  c0-0.1-0.1-0.2-0.1-0.3c0,0,0,0,0,0c0,0,0,0,0,0c-0.1-0.1-0.1-0.2-0.2-0.2c0,0,0,0,0,0c0,0,0,0,0,0l-10.9-6.3  c31.2-14,34.3-44.5,34.3-44.8c0-0.5-0.4-1-0.9-1.1c-0.6,0-1,0.4-1.1,0.9c0,0.3-3.1,30.7-34.8,43.9C18.8,43,15.7,12.6,15.7,12.3  c0-0.5-0.5-0.9-1.1-0.9c-0.5,0-1,0.5-0.9,1.1C13.7,12.8,16.8,43.6,48.4,57.5z M56.7,68.9l0.2,6.6l-5.6,3.5l-5.8-3.1l-0.2-6.6  l5.6-3.5L56.7,68.9z M49.9,64l-5.6,3.4l-3.9-2.3l9.3-6.2L49.9,64z M39.6,67l3.7,2.3l0.2,6.6l-3.6,2.5L39.6,67z M44.6,77.6l5.8,3.1  l0.1,5.1l-9.7-5.6L44.6,77.6z M52.3,80.6l5.6-3.4l3.9,2.3l-9.3,6.2L52.3,80.6z M62.6,77.7l-3.7-2.3l-0.2-6.6l3.6-2.5L62.6,77.7z   M57.6,67.1L51.9,64l-0.1-5.1l9.7,5.6L57.6,67.1z"></path></svg>