<svg fill="#164F86" xmlns="http://www.w3.org/2000/svg" xmlns:xlink="http://www.w3.org/1999/xlink" version="1.1" x="0px" y="0px" viewBox="0 0 100 100" style="enable-background:new 0 0 100 100;" xml:space="preserve"><g><path d="M36.5,36.3l0-0.2c-0.1,1-0.1,2.1,0.3,3c0.8,1.7,0.9,1.8,1,2.4c0.4-0.2,1-0.5,2-0.6c-0.2-0.5-0.6-1.4-0.7-2.8   c0,0,0.8,2,2,2.6c1.1-0.1,2.4-0.1,4.2-0.1c1.2-1.3,1.4-3.3,1.4-3.3c0.4,1.5,0,2.7-0.3,3.3c0.8,0,1.7,0.1,2.7,0.2   c0.4-0.6,1.2-2.1,1.8-4.1c0,0-0.7-1.2-1.3-3.9c0,0,3.1,5.2,3.5,7c0.3,1.3,0.6,2.5,0.9,3.6c0.5,2.5,1.4,6.6,1.4,7.2   c0,0,0.8-0.4,1.6-0.6c0,0,0,0,0,0.1l0.5,2.8c0,0,0,0-0.1,0.8c0,0.3,0.1,0.5,0.2,0.6c-0.1,0.1-0.1,0.1-0.1,0.2   c0.2,0.3,2.1,0.2,2.7-0.3c0.6-0.4,0.7-1.8,0.7-2.8c0-0.9-1.3-1.4-1.8-2.1c0,0,0,0,0-0.1c0.6-0.7,1.1-1.9,1.1-1.9L57.2,42   c-0.3-0.9-0.6-1.5-0.9-2.5c-0.3-1-0.9-4.3-1.9-7.3c-1-3-2.4-5.8-6.3-5.7c0,0-5,5.7-6.9,5.9c-1.8,0.2-3.5-3.7-3.5-3.7   s-2.7,0.3-4,1.8C32.3,32,32,34,32,35.5c0,1.4-1.3,6.8-1.5,7.5l0,0c0,0-1.7,6.9-2.8,7.7c0,0,0.5-0.1,1.6,0.6c0.1,0,0.1,0.1,0.2,0.1   c0,0.3,0,0.6,0,0.9c0,0-0.7,2.3-1,3.2c-0.3,0.8,1,3.3,1.8,3.7c0.8,0.3,2.3,0,1.8-0.5S30,57.7,30.3,56c0,0,0.3-0.6,0.8,0.3   c0.7,1.2,1.8,2.5,0.8-1l-0.5-1.6c-0.2-0.6-0.2-1.2,0-1.7c0,0,0,0,0,0c0.6,0.1,1.3,0,1.8-0.3l0.8-6.7c0.1-0.3,0.2-0.5,0.2-0.7   C34.6,43,36.5,36.3,36.5,36.3z M59.3,51.9c0,0,0.3,0.7-0.3,1.4c-0.1,0.2-0.3,0.4-0.5,0.5c0-0.1,0-0.1,0-0.2   C58.8,51.7,59.3,51.9,59.3,51.9z"/><path d="M34.4,21l0.2,0.2c0,0-0.3-1.5-0.3-2.8c0,0-0.5,0.1-0.6,1S34.1,20.8,34.4,21z"/><path d="M39.7,10.5c-3.1,0.5-4,2.6-4.4,3.1c-0.1,0.2-0.3,0.3-0.4,0.5c-0.5,0.5-0.8,1.2-0.8,1.9c-0.1,1.6,0.5,2.1,0.7,2.2   c0,0.2,0,0.5,0,0.8c0,2.7,1.1,5,3.3,5.9l0,0c0,0,1.7,0.9,4.3-0.9c0,0-1.1,1.4-2.8,1.8c0,0,0.6,1.3,0.4,1.8s-1.6,0.8-1.6,0.8   s1.6,3.4,3.1,2.9c1.5-0.5,5.1-4.6,5.1-4.6s-1.4-0.3-1.9-1.2c-0.3-0.5-0.3-2.3-0.3-2.3c0.3-0.4,0.6-0.8,0.9-1.3c0.1,0,0.2,0,0.3,0   c2-0.4,1.9-2.6,1.4-3.3c-0.1-0.1-0.2-0.2-0.3-0.3c0-0.9-0.1-1.9-0.2-2.4C45.9,11.8,42.9,10,39.7,10.5z M35.8,18.6   c0,0,0.4-0.5,1-0.5s1.1,0.5,1.1,0.5C36.8,19.7,35.8,18.6,35.8,18.6z M40.7,18.7c0,0,0.4-0.5,1-0.5c0.5,0,1.1,0.5,1.1,0.5   C41.7,19.8,40.7,18.7,40.7,18.7z"/><path d="M47,73.3c1.1-0.7,1.8-2,2.2-3.5c-1.8-2.5-7-9.5-7.4-11.7c-0.5-2.7,2.2-8.5,2.2-8.5s-1.3,6-1.3,7.9c0,1.5,5,8,6.9,10.4   c0.2-2.5,4.7-2.2,8.2,0.5c3.5,2.7,7.5,1.3,8.9-1.3c0,0-10.5-3.1-11.2-8c-2.2-15.2-3.9-14.5-6.2-17.2l0,0c0,0-8.5-0.8-11.6,1   c-0.2,0.5-0.7,1.8-1.3,5.4c-1,5.9,2.5,19.4,6,29.1l1,2.2C43.3,79.5,45.5,74.3,47,73.3z"/><path d="M59.1,74.6l-3.8-6.2c0,0-4.9-2.5-4.5,0.7l6.5,8.5c0,0,1,3.5,1.2,4.4c0.2,0.8,0,4.2,1.7,3.7c1.7-0.5,1.8-3,1.7-4   c-0.2-1-0.3-1-0.8-3.8C60.9,77.8,61.1,76.3,59.1,74.6z"/><path d="M60.7,88.3c0-1.3,0-1.3,0-1.3s-2.5,1.1-3.3-2.8l-0.1-1.3l-7.9-11.1c0,0-0.9,1.7-1.8,2.3c-0.9,0.7-1.2,1.3-1.2,1.3   s7.9,7.9,11,13.9c3.2,6,1.2,6.2,3.3,8.2c2.2,2,1.8-3.2,1.7-4C62.4,92.7,60.7,89.7,60.7,88.3z"/><path d="M44,80.2c0,0,1,1.4,2.1,1.4s5.1,0.5,5.1,0.5l-5.1-5.6C46.1,76.4,45,77.5,44,80.2z"/><path d="M61.3,70.6c-3.2-0.4-4.5-1.8-4.5-1.8l2.9,4.8c0,0,2.2,0.2,3.1-1.1c0.9-1.3,4-0.6,4.4-3.6l-0.4-1.1   C66.9,67.9,65.3,71.2,61.3,70.6z"/><polygon points="50.3,71 55.6,78.8 56.2,77.8 50.6,70.5  "/><path d="M94.5,2C80.7,3,65.8,5.5,62.3,6.5c-3.5,1-8,2.5-9.8,9.5c-1.3,5.1-3.8,7.1-5.2,7.9c-0.6,0.4-1.2,0.8-1.6,1.4   c0,0,4.1,0,6,1.2c2,1.3,3.3,4.2,4.5,9.3c1,4.5,1.5,4.2,1.5,4.2l5.1-3.6c4.5-2.3,4.8-3.8,4-3.8c-0.8,0-2.3,0.6-2.3,0.6l0,0   c0.9-1.2,2-2.2,3.4-3c1.2-0.7,2.6-1.6,2.9-2.1c0.5-1-3.3,0-3.3,0l6.3-2.3c0,0,8-2.5,9.3-4.5c1.3-2-3.5-0.5-3.5-0.5s7.8-3,7.8-4.5   s-5.8,0.5-5.8,0.5s3.4-1.8,5-2.8c2.1-1.3,4.3-2.5,4-3c-0.8-1.4-4.5-0.1-6.3,0.5c2.4-0.9,10-3.8,9.1-5.3c-0.7-1.3-4.7-0.1-6.8,0.6   l5-1.8C98.5,2,94.5,2,94.5,2z"/><path d="M50,41.2c0,0,1.7,1.8,2.4,3.1l0.6-1.4c0,0-0.6-2.2-0.7-2.8c-0.1-0.6-1-2.1-1-2.1S50.4,40.7,50,41.2z"/><path d="M33.3,29.7c2-1.1,3.3-2.1,5-2.1l-0.5-0.4c0,0-1.7-1.3-3-1.7c-1.3-0.4-4.8-2.4-6.4-6.2c-1.6-3.8-5.1-7.8-16.1-12.8   c0,0-7.9-3.4-7.9-1.5c0,1.9,4.9,4.2,4.9,4.2S5.9,7.8,5,8.1c-0.9,0.3,1.4,2.3,5.2,4.8c0,0-3.1-1.1-3.1,0c0,1.1,5.1,4,5.1,4   s-3-0.6-3.7-0.3s1.4,2,2.8,2.8c1.4,0.9,4.5,2.4,4.5,2.4s-2-0.6-2.3-0.2c-0.3,0.4,1.1,1.7,4.8,2.4c0,0,1.9,0.4,3,1.1   c0,0-2.9,0-3.4,0.6s1.6,1.4,2.8,1.6c1.2,0.2,4.9,1.6,6,2.5c0,0-1.6-0.5-2.5-0.4c-0.9,0.1-1.1,0.6-0.3,0.9c0.9,0.4,7.1,4.6,7.1,4.6   S31.3,30.8,33.3,29.7z"/><path d="M44.9,23.4l0.3,1.3c0,0,1.5-0.6,1.7-3c0,0-0.8,0.8-1.4,0.8C45.5,22.5,45.1,23.2,44.9,23.4z"/><path d="M39.5,8c3.8-0.4,5.8-1.5,4.3-2.5c-1.3-0.8-4.7-1.2-7.7-0.1c-0.7,0.2-1.3,0.7-1.8,1.2C34.1,6.9,34,7.1,34,7.3   C34.1,8,35.7,8.4,39.5,8z M35.1,6.9c0,0,0.8-1.1,2.8-1.4C40.3,5.2,43,5.3,43.2,6s-5.1,1.4-6.1,1.4C36.4,7.4,34.9,7.4,35.1,6.9z"/></g></svg>
