<svg version="1.1" viewBox="0 0 100 100" xmlns="http://www.w3.org/2000/svg">
 <path d="m52.011 43.26 0.31253-0.03456c0.94429 0.15489 1.5099 0.18228 1.9446 0.27642 0.43473 0.09413 0.83308 0.30907 1.6668 0.7947 2.0354 1.2629 3.4081 3.3365 4.2366 5.6666 1.0287 3.3128 1.1812 6.8478-1.0765 10.055-0.29065 0.41285-0.65068 0.91278-1.0765 1.4512 3.0155 1.8861 5.6033 2.6131 4.8269-0.93291 9.8592-2.4028-2.1012-3.862 7.7439-6.1849-1.497-2.8399 3.6859-2.4021 3.1601-5.8393-0.89547-1.8737 4.3467-2.0939 4.7574-4.2845-1.0046-3.1749 2.3654-2.0939 3.9935-4.2499-0.89748-2.1881 1.9304-1.9254 2.9864-3.006 1.2792-0.84318 2.5019-2.6148 1.7363-3.8007 2.4369-0.76304 7.2472-3.2006 5.2783-6.1503 4.2797-1.5047 3.1908-6.1753 6.5632-8.6035 1.3495-1.1289-1.1388-1.8385-0.41671-2.5914 2.7032-1.8546 0.94036-10.178-1.6668-5.3556-0.44452 1.3522 1.6216-8.866-2.5003-9.9856-1.6173 1.5358-0.9549 4.3795-1.4932 6.4267-1.3733 4.9435-5.8638 7.6936-9.4454 10.78-3.3722 2.0472-6.8033 4.0165-10.522 5.2865-4.3889 2.189-9.654 2.9152-12.987 6.9796-2.6675 4.531-2.8099 11.083-6.2507 12.715-0.64513 0.30605-1.2323 0.50611-1.771 0.58739zm-11.884-0.064771c-0.35889-0.01431-0.89698-0.21506-1.1726-0.38441-3.432-2.1086-4.293-6.1905-4.7227-8.7763-0.39008-2.3472-1.7822-5.2098-3.0212-5.943-7.3054-4.3235-7.1946-3.7008-11.494-5.4247-3.6254-1.7148-7.6957-3.3837-9.8274-7.1178-1.9401-3.4939-2.7752-7.4493-3.4379-11.368-0.25422-3.0591-0.82094-4.2103-1.4238-4.1808-1.3262 0.064889-2.77 5.9103-1.0418 10.193-5.552-2.8879-1.6326 5.5052-2.8475 6.3576-3.1882 0.48753 1.248 4.8861 2.1183 6.1849-1.1106 1.0696-0.94498 2.9831 1.1807 4.0772 0.15308 0.01439 2.4742 1.4762 0.97232 1.9349 0.3964 2.883 3.6887 3.1551 2.5697 5.9775 1.4202 2.7059 5.115 3.3112 7.0494 5.2865-0.0066 2.6671 4.2214 2.3454 3.2642 5.0446 3.7163 0.81932 0.90328 3.9236 3.7504 5.7702 0.09313 2.1378-0.90022 6.2657 2.9864 5.0792-2.0355 2.2047 0.64447 2.6879 0.1389 4.4918 5.2965 1.5635 2.3972 1.3825 2.3961 4.0081-0.07842 2.133 0.46461 3.648 2.8822 2.4878 1.2425-1.5487 3.0739-2.2938 4.688-3.8699-0.90378-1.0637-1.7397-2.0983-2.2572-2.8333-2.2577-3.2069-2.0705-6.7419-1.0418-10.055 0.8285-2.33 2.1665-4.4382 4.2018-5.7011 0.83745-0.48778 1.2906-0.6566 1.771-0.7256 0.48041-0.06899 0.94414-0.32855 1.8855-0.48296m0.58006 0.10289c-0.95946 0.15738-1.984 0.59231-2.4308 0.65649-0.44685 0.06419-0.8444 0.212-1.6668 0.69104-1.9654 1.2195-3.2834 3.2384-4.0977 5.5284-1.0149 3.2683-1.1574 6.6891 1.0418 9.8128 1.1055 1.5702 3.3978 4.3045 5.5561 6.5995 1.0792 1.1475 2.1266 2.1797 2.9517 2.9024 0.41253 0.36134 0.7635 0.65258 1.0418 0.82925 0.13914 0.08834 0.25815 0.14111 0.34726 0.17276 0.08911 0.03168 0.1653 0.03787 0.17363 0.03456 0.0199-0.0079 0.06469-0.02666 0.10418-0.10366 0.03949-0.077 0.07268-0.19746 0.10418-0.34552 0.063-0.29612 0.08744-0.73432 0.10418-1.2439 0.03348-1.0191 0.0024-2.3707-0.06945-3.8699-0.14375-2.9983-0.40805-6.5117-0.24308-8.7072h0.03472c0.08444-0.3365 0.06876-0.6824-0.03472-0.89836-0.05174-0.10798-0.13227-0.19391-0.24308-0.24187-0.11081-0.04796-0.26761-0.07298-0.48616-0.03455h-0.03472c-0.58961-0.12449-1.1869-0.07013-1.8057-0.17276-0.61882-0.10263-1.2654-0.37976-1.9446-1.1748-0.69513-0.81359-1.4388-2.5762-1.6668-4.3881-0.11404-0.90594-0.11331-1.8226 0.1389-2.626 0.25221-0.80339 0.76458-1.4997 1.5627-1.9349l0.10418 0.24186c-0.7315 0.39888-1.1533 1.0114-1.389 1.7622-0.23569 0.75074-0.24947 1.644-0.1389 2.5223 0.22113 1.7567 0.96836 3.5137 1.5974 4.2499h0.03472c0.63351 0.72967 1.2081 0.97777 1.771 1.0711 0.54923 0.09109 1.1226 0.05641 1.7363 0.17276 0.02431 0.0047 0.04498-0.0052 0.06945 0 0.22174-0.02871 0.43482-0.03277 0.59034 0.03455 0.17377 0.07521 0.27194 0.22286 0.34726 0.38008 0.14594 0.30461 0.12135 0.70712 0.03472 1.0711-0.0028 0.01173 0.0029 0.02287 0 0.03456-0.15808 2.156 0.09971 5.6132 0.24308 8.6035 0.07201 1.5011 0.10349 2.903 0.06946 3.939-0.01702 0.518-0.03494 0.95302-0.10418 1.2784-0.03461 0.16271-0.08197 0.26904-0.1389 0.38008-0.05694 0.11104-0.13242 0.23304-0.24308 0.27642-0.11156 0.04373-0.22657 0.0083-0.34726-0.03455-0.12069-0.04287-0.26681-0.11214-0.41671-0.20731-0.29981-0.19035-0.65798-0.49721-1.0765-0.86381-0.83705-0.7332-1.8712-1.7556-2.9517-2.9024-0.70415 3.4568-1.316 6.5455-1.9794 8.7072-0.96193 3.1346-1.1218 3.285-3.542 7.7743-2.4203 4.4892-4.8164 7.0449-5.0005 8.3962-0.36336 2.666 7.606 3.094 10.279 3.006 2.678 0.14979 3.1175-0.95705 3.3337 2.7987 1.1265 4.7788 2.6831 1.5257 2.9517-0.20731 0.11914-0.76862 0.03144-2.7205 1.0418-2.6605 1.6006 0.09494 1.3134 0.81712 1.771 3.2479 0.4576 2.4308 1.8604 3.0848 2.6739-0.34552 0.70877-4.2907-0.02387-2.1455 7.0841-1.9349 3.5865-0.11013 5.8727 0.12064 4.7922-2.7642-1.5633-4.1737-2.9237-5.3078-3.7851-7.9125-0.8614-2.6046-0.2259-2.9794-3.0212-8.5344-1.8292-3.6351-2.7084-5.6313-3.2642-8.0507-0.47759 0.46794-0.9225 0.89607-1.3196 1.2439-0.41853 0.3666-0.77669 0.6389-1.0765 0.82925-0.14991 0.09518-0.29602 0.16445-0.41671 0.20731-0.12069 0.04284-0.2357 0.07828-0.34726 0.03456-0.11066-0.04338-0.18614-0.13082-0.24308-0.24186-0.05695-0.11103-0.06957-0.25192-0.10418-0.41463-0.06923-0.32541-0.12188-0.76043-0.1389-1.2784-0.03403-1.036 0.0322-2.4033 0.10418-3.9044 0.14337-2.9903 0.36645-6.482 0.20836-8.6381-3e-3 -0.01207 0.0029-0.02244 0-0.03455-0.08639-0.36367-0.11107-0.73228 0.03472-1.0366 0.07532-0.15721 0.20822-0.30487 0.38198-0.38007 0.16414-0.07104 0.35243-0.07066 0.59034-0.03456 0.01223-0.0026 0.02252 0.0024 0.03472 0 0.62787-0.12569 1.2109-0.07988 1.771-0.17276 0.57098-0.09469 1.1261-0.35088 1.771-1.1057 0.62903-0.73622 1.411-2.4932 1.6321-4.2499 0.11057-0.87835 0.06207-1.737-0.17363-2.4878-0.23569-0.75074-0.65754-1.3978-1.389-1.7967l0.1389-0.24187c0.79809 0.4352 1.2757 1.1315 1.5279 1.9349 0.25222 0.80339 0.28767 1.72 0.17363 2.626-0.22808 1.8119-1.0064 3.6091-1.7016 4.4227-0.67926 0.79502-1.3258 1.0721-1.9446 1.1748-0.61882 0.10263-1.2161 0.01372-1.8057 0.13821h-0.03472c-0.21855-0.03842-0.37535-0.0134-0.48616 0.03456-0.11081 0.04796-0.19134 0.13389-0.24308 0.24187-0.10348 0.21596-0.08444 0.56186 0 0.89836v0.03456c0.16497 2.1955-0.06461 5.6744-0.20836 8.6726-0.07188 1.4991-0.13766 2.8853-0.10418 3.9044 0.01673 0.50956 0.04118 0.91321 0.10418 1.2093 0.0315 0.14806 0.09941 0.26852 0.1389 0.34552 0.03949 0.077 0.04955 0.13036 0.06946 0.13821 0.0083 0.0033 0.08452-0.0029 0.17363-0.03456 0.08911-0.03165 0.20812-0.08442 0.34726-0.17276 0.27828-0.17668 0.62925-0.46791 1.0418-0.82925 0.82506-0.72269 1.8725-1.7549 2.9517-2.9024 2.1583-2.2949 4.4854-5.0638 5.5909-6.634 2.1992-3.1238 2.022-6.5099 1.0071-9.7783-0.81426-2.29-2.1322-4.3434-4.0977-5.5629-0.82613-0.48119-1.1995-0.63945-1.5974-0.7256-0.39786-0.08614-1.1856-0.17453-2.1422-0.33143 0 0-0.16829-0.08036-0.35325-0.10443-0.73576-0.09573-3.3423-1.3882-3.408-4.0559 0.04433-0.41125 0.573-0.36474 0.7987-1.002 0.65802-1.858 1.5421-2.1987 1.8405-3.4552 0.18798-0.73884 0.42378-1.7245 0.52089-2.7296 1.2291-0.55316 2.0141-1.3227 2.0141-2.2113s-0.78504-1.7273-2.0141-2.2804c-1.2291-0.55316-2.8837-0.86381-4.7227-0.86381-1.839 0-3.5284 0.31065-4.7574 0.86381-1.2291 0.55316-2.0141 1.3918-2.0141 2.2804s0.78504 1.6582 2.0141 2.2113c0.05589 0.02517 0.11593 0.04483 0.17363 0.0691-0.01928 0.88045 0.02919 1.8082 0.24308 2.9369 0.22776 1.0889 0.49849 0.64105 0.97232 2.6605 0.35277 1.5035 1.0654 0.8907 1.007 1.7967-0.27622 2.61-2.5562 3.2404-3.8304 3.7265m6.1918-16.131c1.7304 5e-6 3.2654 0.29511 4.3755 0.7947 1.11 0.49959 1.771 1.2171 1.771 1.9349 0 0.63106-0.20585 0.81964-1.1807 1.624-0.15817 0.10929-0.17363 0.0691-0.17363 0.0691s0.0338-0.35835 0.03472-0.89836c-0.10948-0.78268-0.1609-1.0465-0.38198-1.313-0.22109-0.26644-1.1219-1.2787-2.0836-0.69105-1.2141-0.50712-2.2563-0.07206-2.4308 0.24187-0.16968-0.12698-1.4406-1.1292-1.9794-0.7256-1.0604 0.79433-1.4314 0.61249-1.9446 0.58739-0.16739 0.50364-0.56195 1.9114-0.59034 2.9369-1.0177-0.49122-1.5627-1.1464-1.5627-1.8313 0-0.71783 0.62626-1.4353 1.7363-1.9349 1.11-0.49959 2.6798-0.7947 4.4102-0.7947zm4.7227 4.4572-0.06946 0.48373c-1.2291 0.55316-2.7101 0.93291-4.5491 0.93291-1.7554 0-3.4419-0.35419-4.6533-0.86381l0.03472-0.44918c1.5445 0.57828 3.155 0.8543 4.5144 0.86381 1.7303 0 3.2654-0.32967 4.3755-0.82926 0.13418-0.0604 0.22705-0.07309 0.34726-0.13821zm-5.5214 9.951c0.94248-0.0014 1.7001 0.75529 1.7016 1.6931 9.48e-4 0.61295-0.30985 1.1519-0.7987 1.4512 0.03884-0.0017 0.03602 0.1338 0 0.24187-0.0033 0.0098 0.0038 0.02549 0 0.03456-0.0039 0.0093-0.03017 0.02637-0.03472 0.03456-0.0049 0.0092 0.0056 0.02703 0 0.03456-0.0057 0.0077-0.02839-0.0056-0.03472 0-0.0064 3e-3 -0.02772 0.03411-0.03472 0.03456-0.0091 5.97e-4 -0.02572-4.86e-4 -0.03472 0l0.1389 1.2093 0.45144 4.1808c6e-3 2.22e-4 0.02872-2.21e-4 0.03472 0 0.01011 0.0022 0.02572-0.0054 0.03472 0 0.0086 0.0069 0.02717 0.02516 0.03472 0.03456 0.01553 0.01881 0.02312 0.04281 0.03472 0.0691 0.05168 0.11803 0.0901 0.29026 0.06945 0.34552-2e-3 0.0062-0.03194-0.0031-0.03472 0-5.55e-4 3.76e-4 4.89e-4 0.03433 0 0.03456 1.4224 0.17513 2.8518 0.57866 4.2713 1.2439 0.24394 0.1081-0.34169 1.5634-0.52089 1.4166-1.4289-0.92613-2.7425-1.4743-4.0282-1.6931v2.9369l-1.9794 0.10366 0.03472 0.13821 2.2572-0.10366c0.13739-1e-3 0.16223 0.9956 0.03472 1.002l-1.7016 0.03455-0.03472 0.17276h1.8057c0.13452-0.0051 0.15173 1.2011 0.03472 1.2093l-1.8405 0.03456v0.17276c0.1967-0.0086 1.6533-0.02778 1.8057-0.03456 0.11288-0.0053 0.14822 0.95862 0.03472 0.96746l-1.8405 0.03456v0.17276h1.5279c0.09887-0.0079 0.13896 0.74251 0.03472 0.76015l-0.20836 0.03456-1.9794 0.10366 0.03472 0.13821 1.9446-0.03455v0.41463c0.19345 0.03178 0.62154 0.18287 0.62507 0.27642l0.03472 0.55284c0.0024 0.13609-0.17134 0.18926-0.17363 0.38007-0.0024 0.16929 0.42229 0.33186 0.41671 0.48373v0.55284c-0.0084 0.15597-0.36548 0.20832-0.38198 0.38007-0.01939 0.17585 0.15293 0.25546 0.1389 0.38008l-0.03472 0.44916c-0.01878 0.17934-0.44514 0.23857-0.48616 0.41463-0.03648 0.16089 0.12324 0.29023 0.06946 0.41463l-0.17363 0.38007c-0.0053 0.01366-0.04231 0.02257-0.06945 0.03456l-0.06946 20.351c-0.05793 0.13704-0.13086 0.27759-0.20836 0.41463-0.03874 0.06852-0.0967 0.13878-0.1389 0.20731-0.21104 0.3426-0.43383 0.69397-0.65978 1.0366-0.36931-0.51378-0.74087-1.0421-1.0071-1.6585l-0.17363-20.42h1.7016v-0.0691l-1.7016-0.03456-0.31253-0.0691c-0.10423-0.01765-0.06414-0.76796 0.03472-0.76016h1.5279v-0.17276h-1.8405c-0.1135-0.0089-0.11287-0.9728 0-0.96746 0.19592 0.0088 1.5814-0.01122 1.8405 0v-0.20737h-1.8405c-0.117-0.0082-0.09979-1.1799 0.03472-1.1748l1.771-0.03456v-0.20731l-1.7016 0.03455c-0.12751-0.0064-0.10267-1.0031 0.03472-1.002h2.0836v-0.0691l-1.6668-0.0691v-0.24187c-0.06027-0.01743-0.09547-0.01235-0.10418-0.03455l-0.17363-0.41463c-0.05378-0.1244 0.07121-0.21919 0.03472-0.38007-0.04101-0.17606-0.43267-0.23529-0.45144-0.41463l-0.03471-0.44918c-0.01402-0.12461 0.12357-0.20422 0.10418-0.38007-0.0165-0.17175-0.33881-0.25865-0.34726-0.41463l-0.03472-0.55284c-0.0056-0.15187 0.41916-0.31444 0.41671-0.48373-0.0023-0.19082-0.14135-0.24398-0.1389-0.38008l0.03472-0.55284c0.0038-0.09945 0.49363-0.26179 0.65979-0.27642l-0.03472-3.1097c-1.2698 0.22298-2.5385 0.77576-3.924 1.6931-0.2479 0.17336-0.81668-1.3198-0.62506-1.4166 1.4013-0.67815 2.8591-1.0754 4.306-1.2439 5.55e-4 -0.0027-4.45e-4 -0.03179 0-0.03455-0.03897-0.03899-0.04691-0.21853 0-0.34552 0.0091-0.06793 0.04183-0.10211 0.10418-0.10366 0.0033-4.5e-5 0.03139 4.4e-5 0.03472 0l0.45144-5.3902c-0.05062-2e-3 -0.06723-0.07156-0.06945-0.13821-0.0238-0.09012-0.02273-0.20627 0-0.24187-0.48686-0.29842-0.79781-0.84044-0.7987-1.4512-0.0014-0.93777 0.75908-1.6915 1.7016-1.6931z" color="#000000" fill="#40159f" overflow="visible" style="text-indent:0;text-transform:none"/>
</svg>
