<svg fill="#F5D327" xmlns="http://www.w3.org/2000/svg" xmlns:xlink="http://www.w3.org/1999/xlink" version="1.1" x="0px" y="0px" viewBox="0 0 48 48" enable-background="new 0 0 48 48" xml:space="preserve"><g><path d="M15.4,11.7c-0.5-0.1-1,0.3-1.1,0.9c-0.4,4.6-1.4,8.7-2.9,12.1c-0.2,0.5,0,1.1,0.5,1.3c0.1,0.1,0.3,0.1,0.4,0.1   c0.4,0,0.8-0.2,0.9-0.6c1.6-3.6,2.6-7.9,3.1-12.7C16.4,12.3,16,11.8,15.4,11.7z"></path><path d="M46.9,16.8c-1.2-1-3-1-4.2-0.1c-2.4,2-5.2,2.3-7.1,2.3c0-1-0.1-1.9-0.2-2.7c-0.1-0.8-0.5-1.5-1.2-2c0.1,0,0.2,0,0.4,0   c4,0,7.2-3.2,7.2-7.2c0-4-3.2-7.2-7.2-7.2c-4,0-7.2,3.2-7.2,7.2c0,2.5,1.3,4.7,3.3,6c0,0,0,0,0,0c-1.9,0-4.1,0.7-5.3,2.2l-2.8-0.5   c-1-0.2-1.7-1.1-1.7-2.2c0-2.9-2.3-5.2-5.2-5.2c-2.7,0-4.9,2-5.2,4.7c-1.5,16-9.7,18.9-9.8,19c-0.5,0.1-0.7,0.6-0.7,1.1   c0.1,0.5,0.4,0.8,0.9,0.9c0.6,0,1.1,0.1,1.7,0.1c8.9,0,14.7-4.9,17.2-9.4c0.2-0.3,0.5-0.5,0.9-0.4c0.2,0.1,0.4,0.2,0.5,0.5   c0.1,0.2,0.1,0.5,0,0.7c-7,12.6-16,13.2-17.8,13.2l-0.2,0c-0.4,0-0.8,0.2-1,0.6c-0.2,0.4-0.1,0.8,0.1,1.1C9.1,47.2,19.9,48,24.3,48   c1.3,0,2.1-0.1,2.2-0.1c0.4,0,0.7-0.2,0.8-0.6c3.9-8.2,6.6-15.8,7.7-21.8c0.3,0,0.5,0,0.8,0c3,0,7.3-0.7,11.1-3.8   c0.7-0.6,1.1-1.5,1.2-2.4C48,18.4,47.6,17.5,46.9,16.8z M29.4,7.2c0-2.9,2.3-5.2,5.2-5.2c2.9,0,5.2,2.3,5.2,5.2   c0,2.9-2.3,5.2-5.2,5.2C31.7,12.4,29.4,10.1,29.4,7.2z M45.6,20.2c-3.3,2.8-7.2,3.3-9.8,3.3c-0.6,0-1.1,0-1.6-0.1   c-0.5,0-1,0.3-1.1,0.8c-1,5.9-3.5,13.4-7.4,21.6c-0.3,0-0.8,0-1.4,0c-3.8,0-12.7-0.7-18.9-6.4C9.2,39,16.9,36.4,23,25.5   c0.4-0.8,0.5-1.6,0.1-2.4c-0.3-0.8-1-1.4-1.8-1.6c-1.2-0.3-2.6,0.3-3.2,1.4c-2,3.7-6.6,7.7-13.6,8.3c2.9-2.5,6.9-7.8,7.9-18.7   c0.1-1.7,1.5-2.9,3.2-2.9c1.8,0,3.2,1.4,3.2,3.2c-0.1,2.1,1.4,3.9,3.4,4.2l3.4,0.6c0.4,0.1,0.9-0.1,1.1-0.5c0.5-1,2.2-1.7,3.9-1.7   c1.2,0,2.6,0.4,2.8,1.5c0.2,1,0.2,2.1,0.2,3.3c0,0.5,0.4,1,0.9,1c0.4,0,0.8,0,1.2,0c2.2,0,5.4-0.5,8.2-2.7c0.5-0.4,1.2-0.4,1.6,0   c0.3,0.2,0.4,0.6,0.4,1C46,19.7,45.8,20,45.6,20.2z"></path></g></svg>