<svg fill="#164F86" xmlns="http://www.w3.org/2000/svg" xmlns:xlink="http://www.w3.org/1999/xlink" version="1.1" x="0px" y="0px" viewBox="0 0 128 128" enable-background="new 0 0 128 128" xml:space="preserve"><g><path fill="#164F86" d="M54.4,36.9c-0.5,0.3-0.8,1-0.6,1.6c0.1,0.2,0.1,0.3,0.2,0.4c0.2,0.3,0.6,0.4,1,0.4c0.1,0,0.2,0,0.2,0   c0.2,0,0.5-0.1,0.6-0.3c0.1,0,0.2-0.1,0.3-0.2c0.4-0.5,0.3-1.2-0.1-1.7C55.6,36.7,54.9,36.6,54.4,36.9z M55.4,38.2   C55.4,38.2,55.4,38.2,55.4,38.2c-0.1,0.1-0.3,0.2-0.4,0.2c-0.1,0-0.3,0-0.4-0.1c0,0,0-0.1-0.1-0.1c-0.1-0.2,0-0.4,0.2-0.5   c0.1,0,0.1-0.1,0.2-0.1c0.1,0,0.3,0,0.3,0.1C55.5,37.9,55.5,38,55.4,38.2z"></path><path fill="#164F86" d="M73.3,39.5c0.2,0,0.5-0.1,0.6-0.3c0.1,0,0.2-0.1,0.3-0.2c0.4-0.5,0.3-1.2-0.1-1.7c-0.4-0.5-1.1-0.6-1.7-0.3   c-0.5,0.3-0.8,1-0.6,1.6c0.1,0.2,0.1,0.3,0.2,0.4c0.2,0.3,0.6,0.4,1,0.4C73.2,39.5,73.3,39.5,73.3,39.5z M72.8,38.4   c-0.1-0.2,0-0.4,0.2-0.5c0.1,0,0.1-0.1,0.2-0.1c0.1,0,0.3,0,0.3,0.1c0.1,0.1,0.1,0.3,0.1,0.4c0,0,0,0,0,0c-0.1,0.1-0.2,0.1-0.3,0.2   c-0.1,0-0.3,0-0.4-0.1C72.8,38.4,72.8,38.4,72.8,38.4z"></path><path fill="#164F86" d="M68,47.9c-0.2-0.1-0.5,0-0.6,0.3c-0.2,0.7-0.7,1.3-1.3,1.7c-0.6,0.4-1.4,0.5-2.1,0.4   c-0.9-0.2-1.7-0.8-2.4-1.4c0,0,0,0,0,0c0-0.2-0.2-0.4-0.5-0.4c-0.2,0-0.4,0.2-0.4,0.3c-0.1,0.3,0,0.5,0.2,0.7   c0.8,0.7,1.7,1.5,2.9,1.7c0.2,0,0.5,0.1,0.7,0.1c0.7,0,1.4-0.2,2-0.6c0.8-0.5,1.4-1.2,1.7-2.1C68.4,48.2,68.2,48,68,47.9z"></path><path fill="#164F86" d="M52.9,41.9c-1.3,0-2.4,0.8-2.9,2c-0.4,1-0.2,2.3,0.5,3.1c0.3,0.3,0.6,0.6,0.9,0.7c0.2,0.1,0.5,0.2,0.7,0.2   c0.2,0,0.3,0,0.5,0c1,0,1.9-0.5,2.5-1.2c0.7-0.9,0.8-2.1,0.4-3.2C55.1,42.5,54.1,41.9,52.9,41.9z M54.4,46.2   c-0.5,0.6-1.3,1-2.1,0.8c-0.2,0-0.3-0.1-0.5-0.2c-0.2-0.1-0.4-0.3-0.6-0.5c-0.5-0.6-0.6-1.5-0.4-2.2c0.3-0.8,1.1-1.4,2-1.4   c0.8,0,1.5,0.4,1.8,1.2C55,44.7,54.9,45.6,54.4,46.2z"></path><path fill="#164F86" d="M75.8,41.6c-1.3,0-2.4,0.8-2.9,2c-0.4,1-0.2,2.3,0.5,3.1c0.3,0.3,0.6,0.6,0.9,0.7c0.2,0.1,0.5,0.2,0.7,0.2   c0.2,0,0.3,0,0.5,0c1,0,1.9-0.5,2.5-1.2c0.7-0.9,0.8-2.1,0.4-3.2C77.9,42.2,77,41.6,75.8,41.6z M77.3,45.9c-0.5,0.6-1.3,1-2.1,0.8   c-0.2,0-0.3-0.1-0.5-0.2c-0.2-0.1-0.4-0.3-0.6-0.5c-0.5-0.6-0.6-1.5-0.4-2.2c0.3-0.8,1.1-1.4,2-1.4c0.8,0,1.5,0.4,1.8,1.2   C77.9,44.3,77.8,45.2,77.3,45.9z"></path><path fill="#164F86" d="M69.7,19.6c1.8-0.5,3.7,0.6,4.8,2c0.8,1,1.3,2.1,1.9,3.3c0.3,0.6,0.6,1.3,1,1.9c0.4,0.7,0.9,1.5,1.6,2.2   c-0.7-0.5-1.3-1-1.8-1.5c-0.4-0.5-0.8-0.9-1.3-1.4C75,24.9,74,23.8,72.7,23c-0.2-0.1-0.5-0.1-0.6,0.1c-0.1,0.2-0.1,0.5,0.1,0.6   c1.1,0.8,2,1.8,3,2.9c0.4,0.5,0.8,1,1.3,1.4c1.2,1.3,3.1,2.8,5.3,2.8c0.2,0,0.3,0,0.5,0c0.2,0,0.4-0.2,0.4-0.4   c0-0.2-0.2-0.4-0.4-0.5c-2-0.3-3.3-2.1-4.2-3.5c-0.3-0.6-0.7-1.2-1-1.9c-0.6-1.2-1.2-2.4-2-3.5c-1.2-1.5-3.4-3-5.7-2.3   c-0.2,0.1-0.4,0.3-0.3,0.6C69.2,19.6,69.4,19.7,69.7,19.6z"></path><path fill="#164F86" d="M68.1,27.8c0.1,0,0.2,0,0.3-0.1c0.2-0.2,0.2-0.4,0.1-0.6c-1.4-1.8-2-4.3-1.5-6.5c0.1-0.2-0.1-0.5-0.3-0.5   c-0.2-0.1-0.5,0.1-0.5,0.3c-0.5,2.5,0.1,5.2,1.7,7.3C67.9,27.7,68,27.8,68.1,27.8z"></path><path fill="#164F86" d="M59.8,17.1c-0.8,3.5-2.2,6.4-4,8.7c-2.2,2.6-5.1,4.2-8.1,4.6c-0.2,0-0.4,0.3-0.4,0.5c0,0.2,0.2,0.4,0.4,0.4   c0,0,0,0,0.1,0c3.2-0.4,6.3-2.1,8.7-4.9c2-2.4,3.4-5.4,4.2-9c0.1-0.2-0.1-0.5-0.3-0.5C60.1,16.7,59.9,16.8,59.8,17.1z"></path><path fill="#164F86" d="M46.3,25.5c0.1,0,0.1,0,0.2,0c0.2,0,0.3-0.1,0.4-0.3c0.7-1.7,1.5-3.4,2.4-5.1c0.5-0.9,1-1.8,1.6-2.6   c0.7-0.8,1.7-1.5,3-2.1c1.8-0.8,3.9-1.2,5.9-1.2c0,0,0,0,0,0c0.2,0,0.4-0.2,0.5-0.4c0-0.2-0.2-0.5-0.4-0.5c-2.1,0-4.3,0.4-6.2,1.3   c-1.4,0.6-2.5,1.4-3.3,2.3c-0.7,0.8-1.2,1.8-1.7,2.7c-0.9,1.7-1.7,3.4-2.4,5.1C46,25.1,46.1,25.4,46.3,25.5z"></path><path fill="#164F86" d="M74.7,70.3c-1.6-1.2-3.9-1.5-5.7-0.6c-1.4,0.7-2.3,2-3,3.2c-0.5-1.2-1.3-2.6-2.7-3.5   c-2-1.2-4.9-0.9-6.8,0.7c-1.7,1.4-2.7,3.8-2.7,6.4c0,2.1,0.6,4.3,1.9,6.7c1.6,3.2,9.2,9.4,9.5,9.6c0.1,0.1,0.2,0.1,0.3,0.1   c0.1,0,0.3-0.1,0.3-0.2c0.3-0.3,7-8.3,8.9-11.3c1.1-1.8,2.2-3.7,2.4-5.9C77.1,73.5,76.2,71.5,74.7,70.3z M74.6,73.7   c-0.6-1.2-1.9-1.8-3.2-1.9c1.1-0.1,2.2,0.1,2.9,0.8c0.9,1,0.9,2.5,0.6,3.6c0,0.1-0.1,0.2-0.1,0.3C74.9,75.7,75.1,74.6,74.6,73.7z    M72.4,73.5c0.9,0.6,1.2,1.7,1.2,2.5c0,0.8-0.2,1.6-0.5,2.4l0.1-0.6c0.1-0.5,0.1-1.1,0.1-1.7c-0.1-1.2-0.9-2.4-1.9-3   c0,0-0.1,0-0.1-0.1C71.7,73.2,72.1,73.3,72.4,73.5z M72.4,76.3c0,0.2,0,0.5,0,0.7c-0.1-0.3-0.2-0.6-0.4-0.9   c-0.4-0.7-0.9-1.2-1.4-1.6c-0.2-0.2-0.4-0.4-0.7-0.5c-0.3-0.1-0.5-0.1-0.8-0.2c-0.1,0-0.1,0-0.2,0c-0.2,0-0.4,0-0.6,0   c0.1-0.1,0.2-0.1,0.3-0.2c0.7-0.2,1.5-0.1,2.2,0.3C71.7,74.4,72.3,75.3,72.4,76.3z M65.2,90.3c0.1-0.1,0.1-0.3,0.1-0.4   c0.2-0.1,0.3-0.3,0.2-0.5c-0.1-0.7-0.4-1.4-0.6-2c0.1,0.2,0.3,0.2,0.5,0.2c0.2,0,0.3-0.2,0.4-0.4c0-0.2,0-0.3,0.1-0.4   c0,0.1,0.1,0.2,0.1,0.3c0,1.2-0.1,2.3-0.4,3.4L65.2,90.3z M64.7,87.1c0-0.1-0.1-0.2-0.1-0.2l-0.1-0.4   C64.5,86.7,64.6,86.9,64.7,87.1z M62.3,85c0.5,0.7,1,1.4,1.5,2.2l0.3,0.8C63.4,87,62.8,86,62.3,85z M62.5,81.2   c-0.4-1-0.6-1.9-0.3-2.7c0.1-0.3,0.4-0.6,0.7-0.8c-0.1,0.2-0.2,0.3-0.2,0.5C62.3,79.2,62.2,80.2,62.5,81.2z M62.9,82.4   c0.2,0.4,0.5,0.8,0.7,1.2c0.1,0.7,0.3,1.4,0.5,2L62.9,82.4z M63.5,78.5c0.1-0.2,0.2-0.5,0.4-0.6c-0.3,1.1-0.4,2.2-0.4,3.4   C63.1,80.4,63.2,79.4,63.5,78.5z M62.9,76.7c-0.8,0.3-1.4,0.9-1.6,1.6c-0.4,1.2,0.1,2.6,0.4,3.4l0.7,1.9c-1.1-1.5-2.1-3-2.3-4.7   c-0.1-0.5,0-1,0.1-1.3c0.3-0.7,1.1-1.3,2.1-1.4c0.7-0.1,1.4,0,2.1,0.2c0,0.1-0.1,0.1-0.1,0.2C64,76.5,63.4,76.5,62.9,76.7z    M68,82.7c-0.3-0.8-0.7-1.6-1.2-2.3L66,79.1c-0.1-0.2-0.3-0.3-0.5-0.2c-0.2,0.1-0.3,0.3-0.3,0.5c0,0.6,0.2,1.2,0.4,1.8   c-0.1-0.1-0.2-0.1-0.3-0.2c0-1.1-0.1-2.2-0.4-3.4c0.1,0,0.2,0.1,0.3,0c0,0.1,0,0.3,0.1,0.4c1.7,2.1,3.2,4,3.4,6.3   c0.1,0.9-0.1,1.8-0.3,2.5c0-0.1,0-0.3,0-0.4C68.3,85.2,68.4,84,68,82.7z M66.8,82.2c0.1,0.3,0.2,0.5,0.3,0.8   c0.1,0.4,0.2,0.9,0.2,1.3C67.2,83.6,67.1,82.9,66.8,82.2z M66.9,87.2c0-0.1,0-0.1-0.1-0.2c0-0.2,0-0.3,0-0.5   C66.8,86.7,66.9,87,66.9,87.2z M65,75.4c0.1,0,0.2-0.1,0.3-0.2c0.1-0.1,0.1-0.2,0.1-0.3c0.1,0.1,0.2,0.1,0.3,0.1   c0,0.1-0.1,0.1-0.1,0.2c-0.1,0.1-0.3,0.2-0.4,0.3C65.1,75.5,65.1,75.4,65,75.4z M65.4,82.4c0.1,0.2,0.2,0.4,0.3,0.6   c0.1,0.4,0.2,0.9,0.2,1.3C65.7,83.6,65.6,83,65.4,82.4z M65.6,77.3c-0.1,0-0.1,0-0.2,0c0-0.1,0-0.1,0-0.2c1.1,0.2,2.2,1.1,2.9,1.8   c0.3,0.3,0.7,0.7,0.9,1.1c0.2,0.4,0.2,1,0.2,1.5c0,0.2,0,0.4,0,0.6c0-0.4-0.1-0.8-0.2-1.2C68.7,79.3,67.3,77.9,65.6,77.3z    M64.5,72.6c-1.2-0.8-2.6-1.1-4-1.1c-0.7,0-1.3,0.1-2,0.3c0,0-0.1,0-0.1,0c-0.5,0.1-1,0.2-1.4,0.4c1.1-1.2,2.7-1.9,4.1-1.6   C62.4,70.7,63.5,71.4,64.5,72.6z M57.2,73.3c0.4-0.3,0.8-0.5,1.4-0.7c0.1,0,0.2,0,0.4,0c1.3-0.1,2.6,0.1,3.8,0.6   c-1-0.3-2.1-0.3-3.2-0.3c-0.9,0-1.8,0.1-2.5,0.6c-1.3,1-1.1,2.8-0.8,4.1c0.1,0.7,0.3,1.5,0.5,2.3c0,0,0-0.1,0-0.1   c-0.3-0.5-0.6-1.1-0.8-1.7c-0.1-0.6-0.1-1.3,0-1.9c0-0.3,0.1-0.6,0.1-0.9C56.3,74.5,56.6,73.8,57.2,73.3z M61.7,74.4   C61.7,74.4,61.7,74.4,61.7,74.4c-1.5,0-3.2,0.9-3.4,2.5c-0.1,0.7,0.1,1.4,0.3,2.1c0.3,0.8,0.6,1.6,0.9,2.3c-0.6-1-1.2-2-1.4-3.1   c-0.3-1.3,0.1-2.6,1-3.3c0.5-0.4,1.2-0.6,2-0.6c0.2,0,0.5,0,0.7,0.1c0.3,0,0.5,0.1,0.8,0.2C62.4,74.5,62,74.4,61.7,74.4z    M62.1,75.3c-1,0.2-2.1,0.7-2.6,1.9c-0.1,0.2-0.1,0.4-0.2,0.6c-0.1-0.3-0.1-0.5,0-0.8c0.2-1.1,1.4-1.8,2.5-1.8   C61.8,75.3,61.9,75.3,62.1,75.3z M57.2,77.3c-0.2-1.1-0.3-2.5,0.5-3.1c0.4-0.3,0.9-0.4,1.5-0.4c-0.2,0.1-0.4,0.3-0.6,0.4   C57.7,74.9,57.3,76.1,57.2,77.3z M57.6,82.9c0,0,0-0.1-0.1-0.1c-0.4-0.5-0.7-1-1-1.5c-0.1-0.2-0.2-0.4-0.2-0.6   C56.7,81.4,57.1,82.2,57.6,82.9z M59.1,82.3l2,3.3c-0.9-1-1.8-2.1-2.5-3.4c-0.4-0.7-0.7-1.6-0.9-2.4C58.1,80.7,58.6,81.6,59.1,82.3   z M66.7,89.2c0.1,0.2,0.2,0.4,0.2,0.6c0,0,0,0,0,0.1c-0.2,0.2-0.4,0.4-0.5,0.6C66.5,90,66.6,89.6,66.7,89.2z M69.1,86.9   c0.1,0,0.1,0,0.2,0c-0.1,0.1-0.2,0.3-0.3,0.4C69,87.2,69.1,87.1,69.1,86.9z M70.1,80.3c0.1,0.5,0.2,1.1,0.1,1.6c0-0.1,0-0.3,0-0.4   C70.2,81.2,70.2,80.7,70.1,80.3z M69.2,74.7c0.1,0,0.3,0,0.4,0.1c0.1,0.1,0.3,0.2,0.4,0.3c0.5,0.4,0.9,0.9,1.2,1.4   c0.3,0.6,0.4,1.3,0.5,2c-0.2-1-0.6-1.8-1.2-2.4c-0.6-0.7-1.5-1.1-2.4-1.2C68.5,74.7,68.8,74.7,69.2,74.7z M69.8,77.4   c0.7,0.7,1.1,1.6,1.2,2.7c-0.1-0.4-0.3-0.7-0.4-1.1c-0.7-1.2-2-2-3.2-2.6c-0.1-0.1-0.3-0.2-0.6-0.3C67.9,76.1,69,76.6,69.8,77.4z    M57.1,70.7c0.9-0.8,2.2-1.3,3.4-1.3c0.9,0,1.7,0.2,2.3,0.6c0,0,0,0,0.1,0c-0.5-0.3-1-0.4-1.6-0.5c-2.3-0.3-4.7,1-5.9,3.3   C55.8,72.1,56.4,71.3,57.1,70.7z M58.9,85.9c0-0.5-0.1-1-0.3-1.4c1.1,1.7,2.3,3.2,3.7,4.6C61.2,88.1,60,87,58.9,85.9z M65.3,91.8   c-0.3-0.2-0.7-0.6-1.2-1c0.3,0.2,0.5,0.4,0.8,0.6c0.1,0.1,0.2,0.1,0.3,0.1c0.1,0,0.2,0,0.3-0.1c0,0,0.1,0,0.1,0.1   C65.5,91.5,65.4,91.7,65.3,91.8z M73.9,81c-0.4,0.6-1,1.4-1.7,2.3c0-0.1,0.1-0.3,0.1-0.4c0.1-0.1,0.3-0.2,0.3-0.4   c0.1-0.7,0.3-1.3,0.6-2c0,0,0.1,0.1,0.2,0.1c0.2,0.1,0.5,0,0.6-0.2c0.2-0.4,0.4-0.8,0.6-1.2c0.5-0.9,0.9-1.8,1.2-2.8   c0.5-1.7,0.2-3.4-0.8-4.5c-1.3-1.4-3.6-1.3-5.2-0.8c-1,0.3-1.8,0.8-2.5,1.3c0.6-0.8,1.3-1.6,2.2-2.1c1.4-0.7,3.4-0.5,4.7,0.5   c1.3,1,2,2.7,1.9,4.5C76,77.5,74.9,79.3,73.9,81z"></path><path fill="#164F86" d="M38.1,37.1c0.1,0.1,0.2,0.1,0.3,0.1c0.1,0,0.3-0.1,0.4-0.2c0.2-0.2,0.1-0.5-0.1-0.6l-0.7-0.6   c-0.2-0.2-0.5-0.1-0.6,0.1c-0.2,0.2-0.1,0.5,0.1,0.6L38.1,37.1z"></path><path fill="#164F86" d="M9.5,30.3c-0.5,0.4-0.9,0.9-1.3,1.4c-0.2,0.2-0.1,0.5,0.1,0.6c0.1,0.1,0.2,0.1,0.3,0.1   c0.1,0,0.3-0.1,0.3-0.2c0.4-0.4,0.8-0.9,1.2-1.3c0.2-0.2,0.2-0.5,0-0.6C10,30.2,9.7,30.2,9.5,30.3z"></path><path fill="#164F86" d="M9,45.4c-0.1-0.2-0.4-0.3-0.6-0.2c-0.2,0.1-0.3,0.4-0.2,0.6c0.3,0.5,0.6,1,1,1.6c0.1,0.1,0.2,0.2,0.4,0.2   c0.1,0,0.2,0,0.3-0.1c0.2-0.1,0.3-0.4,0.1-0.6C9.6,46.4,9.3,45.9,9,45.4z"></path><path fill="#164F86" d="M6.4,37.4c0.2,0,0.4-0.2,0.4-0.4c0-0.4,0.1-0.8,0.2-1.1c0-0.2,0.1-0.4,0.2-0.6c0.1-0.2-0.1-0.5-0.3-0.6   c-0.2-0.1-0.5,0.1-0.6,0.3c-0.1,0.2-0.1,0.4-0.2,0.6C6.1,36,6,36.5,6,36.9C5.9,37.1,6.1,37.3,6.4,37.4C6.4,37.4,6.4,37.4,6.4,37.4z   "></path><path fill="#164F86" d="M7,40.5c-0.1-0.2-0.3-0.4-0.5-0.3c-0.2,0.1-0.4,0.3-0.3,0.5c0.1,0.6,0.3,1.2,0.5,1.8   c0.1,0.2,0.2,0.3,0.4,0.3c0,0,0.1,0,0.1,0c0.2-0.1,0.4-0.3,0.3-0.6C7.3,41.6,7.1,41,7,40.5z"></path><path fill="#164F86" d="M12.9,29.1c0.1,0,0.1,0,0.2,0c0.5-0.3,1.1-0.5,1.6-0.6c0.2-0.1,0.4-0.3,0.3-0.6c-0.1-0.2-0.3-0.4-0.6-0.3   c-0.6,0.2-1.2,0.4-1.8,0.7c-0.2,0.1-0.3,0.4-0.2,0.6C12.5,29,12.7,29.1,12.9,29.1z"></path><path fill="#164F86" d="M12.6,50.2l-0.4-0.5c-0.2-0.2-0.4-0.2-0.6,0c-0.2,0.2-0.2,0.4,0,0.6c0.1,0.2,0.3,0.3,0.4,0.5   c0.3,0.3,0.5,0.6,0.8,0.9c0.1,0.1,0.2,0.1,0.3,0.1c0.1,0,0.2,0,0.3-0.1c0.2-0.2,0.2-0.5,0-0.6C13.1,50.8,12.9,50.5,12.6,50.2z"></path><path fill="#164F86" d="M23.4,28.5c0.6,0.1,1.1,0.3,1.7,0.5c0,0,0.1,0,0.1,0c0.2,0,0.4-0.1,0.4-0.3c0.1-0.2,0-0.5-0.3-0.6   c-0.6-0.2-1.2-0.4-1.8-0.5c-0.2-0.1-0.5,0.1-0.5,0.3C23.1,28.1,23.2,28.4,23.4,28.5z"></path><path fill="#164F86" d="M18.2,27.8c0.6,0,1.2,0,1.8,0c0,0,0,0,0,0c0.2,0,0.4-0.2,0.4-0.4c0-0.2-0.2-0.5-0.4-0.5   c-0.6,0-1.2-0.1-1.9,0c-0.2,0-0.4,0.2-0.4,0.5C17.7,27.7,17.9,27.9,18.2,27.8z"></path><path fill="#164F86" d="M15.9,53.6c-0.2-0.2-0.5-0.2-0.6,0c-0.2,0.2-0.2,0.5,0,0.6c0.5,0.4,0.9,0.8,1.4,1.2   c0.1,0.1,0.2,0.1,0.3,0.1c0.1,0,0.3-0.1,0.3-0.2c0.2-0.2,0.1-0.5-0.1-0.6C16.8,54.4,16.4,54,15.9,53.6z"></path><path fill="#164F86" d="M21.8,57.7c-0.5-0.3-1-0.5-1.6-0.9c-0.2-0.1-0.5-0.1-0.6,0.2c-0.1,0.2-0.1,0.5,0.2,0.6   c0.5,0.3,1.1,0.6,1.6,0.9c0.1,0,0.1,0,0.2,0c0.2,0,0.3-0.1,0.4-0.3C22.1,58.1,22,57.8,21.8,57.7z"></path><path fill="#164F86" d="M28.4,30.4c0.5,0.3,1.1,0.6,1.6,0.9c0.1,0,0.2,0.1,0.2,0.1c0.2,0,0.3-0.1,0.4-0.2c0.1-0.2,0.1-0.5-0.2-0.6   c-0.5-0.3-1.1-0.6-1.6-0.9c-0.2-0.1-0.5,0-0.6,0.2C28.1,30,28.2,30.3,28.4,30.4z"></path><path fill="#164F86" d="M34.5,34.3c0.1,0.1,0.2,0.1,0.3,0.1c0.1,0,0.3-0.1,0.4-0.2c0.1-0.2,0.1-0.5-0.1-0.6c-0.5-0.4-1-0.7-1.5-1.1   c-0.2-0.1-0.5-0.1-0.6,0.1c-0.1,0.2-0.1,0.5,0.1,0.6C33.5,33.6,34,33.9,34.5,34.3z"></path><path fill="#164F86" d="M26,59.1c-0.3-0.1-0.6-0.1-0.9-0.2c-0.2-0.1-0.5,0.1-0.5,0.3c-0.1,0.2,0.1,0.5,0.3,0.5   c0.3,0.1,0.6,0.1,0.9,0.2c0,0,0.1,0,0.1,0c0.2,0,0.4-0.2,0.4-0.4C26.4,59.4,26.2,59.2,26,59.1z"></path><path fill="#164F86" d="M20,43.6c0-0.6-0.2-1.2-0.6-1.6c-0.1-0.1-0.2-0.1-0.3-0.1c-0.6,0-1.2,0.2-1.4,0.8c-0.1,0.4,0,0.7,0.1,1   c0,0.1,0.1,0.3,0.1,0.4c0,0.4-0.2,0.8-0.5,1.2c0,0,0,0,0,0c-0.6,0.1-1.2,0.1-1.8,0c-0.9-0.1-1.6-0.4-2.1-0.9   c-1.4-1.3-1-3.7-0.8-4.7c0.4-1.5,1.2-3.7,2.9-5.2c3-2.6,7.5-2.2,10.4-1c1.4,0.6,2.6,1.3,3.9,2.1c-0.1,0-0.2-0.1-0.3-0.1   c-1.6-0.4-3.2-0.1-4.3,0.6c-1.4,0.9-2,2.7-1.5,4.1c0.3,0.8,1.1,1.4,2,1.7c0.3,0.1,0.5,0.1,0.8,0.1c0.7,0,1.3-0.2,1.8-0.6   c0.5-0.5,0.6-1.4,0.1-2c-0.2-0.3-0.5-0.4-0.9-0.4c-0.3,0-0.6,0.2-0.7,0.4c0,0,0,0.1-0.1,0.1c-0.1,0.5-0.1,1.1,0.1,1.5   c-0.3,0.1-0.7,0.1-1,0c-0.7-0.2-1.2-0.6-1.4-1.2c-0.4-1,0.1-2.3,1.1-3c0.9-0.6,2.2-0.8,3.6-0.5c1.3,0.3,2.5,0.9,3.6,1.6   c0,0,0,0,0,0c0.4,0.3,0.8,0.7,1.2,1l1.1,0.9c0.2,0.2,0.5,0.1,0.6-0.1c0.2-0.2,0.1-0.5-0.1-0.6l-1.1-0.9c-2.6-2.1-5.3-4.4-8.5-5.6   c-4.2-1.7-8.6-1.2-11.3,1.2c-1.5,1.3-2.6,3.3-3.2,5.6c-0.6,2.4-0.2,4.5,1.1,5.6c0.6,0.6,1.5,0.9,2.6,1.1c0.4,0.1,0.7,0.1,1,0.1   c1,0,1.8-0.3,2.4-0.7C19.6,45.1,20,44.3,20,43.6z M27.8,40c0,0,0.1,0,0.1,0.1c0.2,0.2,0.1,0.5,0,0.7C27.8,40.5,27.7,40.3,27.8,40z    M18.7,43.4c-0.1-0.2-0.1-0.4-0.1-0.5c0,0,0.1-0.1,0.2-0.1c0.2,0.2,0.2,0.5,0.2,0.8c0,0.3-0.1,0.6-0.2,0.8c0-0.1,0-0.3,0-0.4   C18.8,43.8,18.8,43.6,18.7,43.4z"></path><path fill="#164F86" d="M90.1,35.8l-0.7,0.6c-0.2,0.2-0.2,0.4-0.1,0.6c0.1,0.1,0.2,0.2,0.4,0.2c0.1,0,0.2,0,0.3-0.1l0.7-0.6   c0.2-0.2,0.2-0.4,0.1-0.6C90.5,35.7,90.3,35.7,90.1,35.8z"></path><path fill="#164F86" d="M112.1,53.6c-0.4,0.4-0.9,0.8-1.4,1.2c-0.2,0.2-0.2,0.4-0.1,0.6c0.1,0.1,0.2,0.2,0.3,0.2   c0.1,0,0.2,0,0.3-0.1c0.5-0.4,0.9-0.8,1.4-1.2c0.2-0.2,0.2-0.5,0-0.6C112.5,53.5,112.2,53.5,112.1,53.6z"></path><path fill="#164F86" d="M119.1,32.3c0.1,0.1,0.2,0.2,0.3,0.2c0.1,0,0.2,0,0.3-0.1c0.2-0.2,0.2-0.4,0.1-0.6   c-0.4-0.5-0.8-0.9-1.3-1.4c-0.2-0.2-0.5-0.2-0.6,0c-0.2,0.2-0.1,0.5,0,0.6C118.3,31.4,118.7,31.8,119.1,32.3z"></path><path fill="#164F86" d="M120.8,42.7c0,0,0.1,0,0.1,0c0.2,0,0.4-0.1,0.4-0.3c0.2-0.6,0.4-1.2,0.5-1.8c0.1-0.2-0.1-0.5-0.3-0.5   c-0.2-0.1-0.5,0.1-0.5,0.3c-0.1,0.6-0.3,1.1-0.5,1.7C120.4,42.4,120.5,42.6,120.8,42.7z"></path><path fill="#164F86" d="M115.8,49.7l-0.4,0.5c-0.3,0.3-0.5,0.6-0.8,0.9c-0.2,0.2-0.2,0.5,0,0.6c0.1,0.1,0.2,0.1,0.3,0.1   c0.1,0,0.2,0,0.3-0.1c0.3-0.3,0.5-0.6,0.8-0.9c0.1-0.2,0.3-0.3,0.4-0.5c0.2-0.2,0.1-0.5,0-0.6C116.3,49.5,116,49.5,115.8,49.7z"></path><path fill="#164F86" d="M119.6,45.2c-0.2-0.1-0.5-0.1-0.6,0.2c-0.3,0.5-0.6,1-1,1.5c-0.1,0.2-0.1,0.5,0.1,0.6   c0.1,0.1,0.2,0.1,0.3,0.1c0.1,0,0.3-0.1,0.4-0.2c0.4-0.5,0.7-1,1-1.6C119.9,45.6,119.8,45.3,119.6,45.2z"></path><path fill="#164F86" d="M120.9,35.9c0.1,0.4,0.2,0.8,0.2,1.1c0,0.2,0.2,0.4,0.4,0.4c0,0,0,0,0.1,0c0.2,0,0.4-0.3,0.4-0.5   c-0.1-0.4-0.1-0.8-0.2-1.2c-0.1-0.2-0.1-0.4-0.2-0.6c-0.1-0.2-0.3-0.4-0.6-0.3c-0.2,0.1-0.4,0.3-0.3,0.6   C120.8,35.5,120.9,35.7,120.9,35.9z"></path><path fill="#164F86" d="M108,27.9C108,27.9,108.1,27.9,108,27.9c0.6,0,1.2,0,1.8,0c0.2,0,0.5-0.2,0.5-0.4c0-0.2-0.2-0.5-0.4-0.5   c-0.6,0-1.2,0-1.9,0c-0.2,0-0.4,0.2-0.4,0.5C107.6,27.7,107.8,27.9,108,27.9z"></path><path fill="#164F86" d="M97.8,31.3c0.1,0,0.2,0,0.2-0.1c0.5-0.3,1-0.6,1.6-0.9c0.2-0.1,0.3-0.4,0.2-0.6c-0.1-0.2-0.4-0.3-0.6-0.2   c-0.5,0.3-1.1,0.6-1.6,0.9c-0.2,0.1-0.3,0.4-0.2,0.6C97.5,31.3,97.6,31.3,97.8,31.3z"></path><path fill="#164F86" d="M93.2,34.4c0.1,0,0.2,0,0.3-0.1c0.5-0.4,1-0.7,1.5-1.1c0.2-0.1,0.3-0.4,0.1-0.6c-0.1-0.2-0.4-0.3-0.6-0.1   c-0.5,0.4-1,0.7-1.5,1.1c-0.2,0.1-0.2,0.4-0.1,0.6C93,34.3,93.1,34.4,93.2,34.4z"></path><path fill="#164F86" d="M107.8,56.9c-0.5,0.3-1,0.6-1.6,0.9c-0.2,0.1-0.3,0.4-0.2,0.6c0.1,0.2,0.2,0.3,0.4,0.3c0.1,0,0.1,0,0.2,0   c0.5-0.3,1.1-0.6,1.6-0.9c0.2-0.1,0.3-0.4,0.2-0.6S108,56.7,107.8,56.9z"></path><path fill="#164F86" d="M102.7,29c0,0,0.1,0,0.1,0c0.6-0.2,1.1-0.4,1.7-0.5c0.2-0.1,0.4-0.3,0.3-0.5c-0.1-0.2-0.3-0.4-0.5-0.3   c-0.6,0.2-1.2,0.3-1.8,0.5c-0.2,0.1-0.4,0.3-0.3,0.6C102.3,28.9,102.5,29,102.7,29z"></path><path fill="#164F86" d="M113.3,28.4c0.6,0.2,1.1,0.4,1.6,0.6c0.1,0,0.1,0,0.2,0c0.2,0,0.3-0.1,0.4-0.3c0.1-0.2,0-0.5-0.2-0.6   c-0.6-0.3-1.2-0.5-1.8-0.7c-0.2-0.1-0.5,0.1-0.6,0.3C112.9,28.1,113.1,28.4,113.3,28.4z"></path><path fill="#164F86" d="M102.9,59c-0.3,0.1-0.6,0.1-0.9,0.2c-0.2,0-0.4,0.3-0.4,0.5c0,0.2,0.2,0.4,0.4,0.4c0,0,0.1,0,0.1,0   c0.3-0.1,0.6-0.1,0.9-0.2c0.2-0.1,0.4-0.3,0.3-0.5C103.3,59,103.1,58.9,102.9,59z"></path><path fill="#164F86" d="M112.5,46.2c1.1-0.2,2-0.5,2.6-1.1c1.3-1.1,1.7-3.2,1.1-5.6c-0.6-2.4-1.7-4.3-3.2-5.6   c-2.7-2.4-7.2-2.8-11.3-1.2c-3.2,1.3-5.9,3.5-8.5,5.6l-1.1,0.9c-0.2,0.2-0.2,0.4-0.1,0.6c0.2,0.2,0.4,0.2,0.6,0.1l1.1-0.9   c0.4-0.3,0.8-0.7,1.2-1c0,0,0,0,0,0c1.2-0.6,2.3-1.3,3.6-1.6c1.4-0.3,2.7-0.1,3.6,0.5c1,0.7,1.5,2,1.1,3c-0.2,0.5-0.7,1-1.4,1.2   c-0.4,0.1-0.7,0.1-1,0c0.2-0.5,0.3-1,0.1-1.5c0,0,0-0.1-0.1-0.1c-0.2-0.2-0.4-0.4-0.7-0.4c-0.3,0-0.6,0.1-0.9,0.4   c-0.4,0.5-0.4,1.4,0.2,2c0.5,0.4,1.1,0.6,1.8,0.6c0.3,0,0.6,0,0.8-0.1c0.9-0.2,1.7-0.9,2-1.7c0.6-1.4-0.1-3.2-1.5-4.1   c-1.1-0.8-2.7-1-4.3-0.6c-0.1,0-0.2,0.1-0.3,0.1c1.2-0.8,2.5-1.6,3.9-2.1c2.9-1.2,7.4-1.6,10.4,1c1.7,1.5,2.5,3.6,2.9,5.2   c0.2,1,0.6,3.4-0.8,4.7c-0.5,0.4-1.2,0.7-2.1,0.9c-0.5,0.1-1.2,0.1-1.8,0c0,0,0,0,0,0c-0.3-0.4-0.6-0.8-0.5-1.2   c0-0.1,0.1-0.2,0.1-0.4c0.1-0.3,0.2-0.6,0.1-1c-0.1-0.6-0.8-0.9-1.4-0.8c-0.1,0-0.2,0-0.3,0.1c-0.4,0.4-0.7,0.9-0.6,1.6   c0,0.8,0.4,1.5,1,2c0.6,0.5,1.5,0.7,2.4,0.7C111.8,46.3,112.1,46.2,112.5,46.2z M100.1,40.8c-0.1-0.2-0.2-0.5,0-0.7   c0,0,0.1-0.1,0.1-0.1C100.3,40.3,100.2,40.5,100.1,40.8z M109.3,43.4c-0.1,0.2-0.1,0.4-0.1,0.6c0,0.1,0,0.3,0,0.4   c-0.1-0.3-0.2-0.5-0.2-0.8c0-0.2,0-0.5,0.2-0.8c0.1,0,0.2,0.1,0.2,0.1C109.4,43,109.4,43.2,109.3,43.4z"></path><path fill="#164F86" d="M123.9,48.1c2.8-4.7,4.2-9.3,4.1-13.5c-0.1-5.2-2.5-9.9-6.4-12.3c-3.9-2.4-9-2.6-15.8-0.8   c-6.9,1.9-13.4,4.9-19.2,9c0,0,0,0-0.1,0.1c-0.3-0.2-0.6-0.5-0.9-0.8c0-0.1,0-0.2-0.1-0.2c-0.9-1.4-0.9-3.1-0.9-4.9   c0-0.9,0-1.8-0.1-2.7c-0.2-1.9-1.1-4-2.5-6c-0.8-1.2-1.6-2.1-2.5-3c-4.1-3.7-10.5-4.6-15.4-2.1c-1.7-1.3-4-1.4-5.7-1.3   c-5,0.5-9.8,3.4-12.5,7.6c-0.7,1.1-1.3,2.3-1.9,3.7c-1.4,2.9-2.6,6-2,9.1c-0.3,0.1-0.6,0.2-0.9,0.3c-5.8-4-12.1-7-18.9-8.8   c-6.8-1.8-11.9-1.6-15.8,0.8C2.5,24.7,0.1,29.4,0,34.6c-0.1,4.2,1.3,8.8,4.1,13.5c3.2,5.4,7.6,10,12.8,13.6c-2.4,1-4.5,3-5.6,5.4   c-1.1,2.4-1.2,4.9-0.3,7.1c1.3,2.9,4,5,8.7,6.8c5.4,2,11.2,3,17,3c2,0,4-0.1,5.9-0.4c-2.9,5.6-5.9,11.1-9.5,16.2   c-1.7,2.4-4.2,6-2.9,9.5c1.5,3.9,6.6,4.5,10.3,4.5c1.1,0,2.3,0,3.3,0.3c0.9,0.3,1.8,0.7,2.7,1.2c0.3,0.2,0.6,0.3,0.9,0.5   c5.3,2.8,11.9,3.2,17.6,1.1c0.3-0.1,0.5-0.2,0.7-0.3c0.9-0.3,1.7-0.6,2.5-0.8c1.7-0.3,3.4,0.2,5.2,0.7c3.2,0.9,6.5,1.7,9.7,1.7   c2.4,0,4.7-0.4,6.8-1.5c0.4-0.2,0.7-0.4,1.1-0.6c0.6-0.4,1.2-0.7,1.8-1c0.6-0.2,1.2-0.4,1.8-0.5c0.4-0.1,0.7-0.2,1.1-0.3   c3-0.8,5.6-2.8,7.2-5.5c0.3-0.5,0.6-1.1,0.6-1.7c0-1.2-1-2.1-1.7-2.7c-6.8-5.9-12.4-13.1-16.6-21c0,0,0,0,0.1,0   c2.1,0.3,4.1,0.4,6.2,0.4c2.4,0,4.8-0.2,7.2-0.5c0.7,0.7,1.6,1.4,2.5,1.5c0.3,0,0.5,0.1,0.7,0.1c0.6,0,1-0.2,1.4-0.9   c0.2-0.3,0.4-0.8,0.4-1.2c0.4,0.2,0.8,0.3,1.2,0.3c0.7,0.1,1.4-0.3,1.9-0.8c0.3-0.3,0.4-0.7,0.4-1.1c0.4-0.1,0.9-0.3,1.3-0.5   c4.7-1.7,7.4-3.9,8.7-6.8c1-2.2,0.9-4.7-0.3-7.1c-1.2-2.5-3.2-4.5-5.6-5.4C116.3,58.2,120.7,53.5,123.9,48.1z M44.9,21.3   c0.6-1.3,1.2-2.5,1.9-3.6c2.6-4,7.1-6.7,11.8-7.1c1.7-0.2,4,0,5.4,1.4c0.2,0.2,0.5,0.2,0.6,0c0.1-0.1,0.1-0.2,0.1-0.3   c4.6-2.2,10.4-1.4,14.2,2c0.9,0.8,1.6,1.7,2.4,2.8c1.3,1.9,2.1,3.8,2.3,5.6c0.1,0.8,0.1,1.7,0.1,2.5c0,0.9,0,1.8,0.1,2.7   c0,0,0,0,0,0c-0.4-0.9-0.8-1.8-1.1-2.7c-0.6-1.5-1.2-3.1-2.2-4.4c-2.9-3.9-7.8-4.9-10.5-5.2c-0.3,0-0.5,0.2-0.5,0.4   c0,0.2,0.2,0.5,0.4,0.5c2.5,0.2,7.2,1.2,9.8,4.8c0.9,1.3,1.5,2.7,2.1,4.2c0.4,0.9,0.7,1.8,1.2,2.7c1.3,2.5,3.1,4.1,5,4.6   c-1,0.6-2.3,0.8-3.7,0.8c-1.7-0.1-3.4-0.6-5-1.2c-1.6-0.6-3.4-1.3-4.9-2.5c-1.7-1.2-3.1-2.9-4-4.8c-0.1-0.2-0.3-0.3-0.5-0.2   c-0.2,0-0.3,0.2-0.4,0.4c-0.1,2.4,0.6,4.9,2.1,6.8c-2.2-0.5-4.3-2-5.6-4.1c-1.7-2.8-1.8-5.9-1.6-8.1c0,0,0,0,0,0   c0.1-0.2-0.1-0.5-0.3-0.6c-0.2-0.1-0.5,0.1-0.6,0.3c-1.1,4.2-4.6,8.1-10.2,11.4c-0.7,0.4-1.6,0.9-2.5,1.3c-0.5,0.2-1,0.4-1.5,0.5   l-0.2-0.2c-0.1,0.1-0.1,0.2-0.2,0.3c-2.8,0.6-6.1,0.4-9.4-0.8c0.5-0.2,1-0.3,1.5-0.5c0.2,0.1,0.4,0,0.5-0.1c0,0,0,0,0,0   c1.6-0.5,3.1-1.1,4.6-1.8c2.9-1.4,5.1-3.2,6.6-5.4c0.5-0.7,0.9-1.5,1.3-2.2c0.8-1.4,1.6-2.8,2.7-3.8c0.2-0.2,0.2-0.4,0.1-0.6   c-0.2-0.2-0.4-0.2-0.6-0.1c-1.3,1.1-2.2,2.6-3,4c-0.4,0.7-0.8,1.5-1.3,2.1c-1.4,2-3.5,3.7-6.3,5.1c-0.9,0.5-1.9,0.8-2.9,1.2   C42.4,26.9,43.6,24,44.9,21.3z M88.5,48.7c0.8-0.8,2-1.1,3.3-0.9c1.3,0.2,2.3,0.8,3,1.7c0.9,1.4,0.9,3.1,0.8,4.4   c-0.4,3.1-2,5.9-4.3,7.5c-2.5,1.8-5.7,2.2-8.3,1c-2.7-1.2-4.5-4.2-4.2-7c0.1-1.2,0.6-2.4,1.2-3.6c0.1-0.3,0.3-0.6,0.4-0.9   c2-4.9,2.4-10.4,1.3-15.6c-0.1-0.7-0.3-1.4-0.6-2c0.5,0.2,1.1,0.3,1.6,0.4c2.1,4.7,2.6,9.7,1.5,13.9c-0.2,0.6-0.3,1.2-0.5,1.7   c-0.4,1.1-0.7,2.3-0.9,3.5c-0.2,1.7,0.2,4,1.9,5.3c0.7,0.5,1.7,0.8,2.6,0.8c0.3,0,0.7,0,1-0.1c1.2-0.3,2.3-1,3.1-2   c0.8-1,1.5-2.6,0.9-4c-0.3-0.8-1-1.4-1.9-1.6c-0.7-0.2-1.4,0-1.9,0.4l0.6,0.7c0.4-0.3,0.9-0.3,1.1-0.2c0.6,0.1,1.1,0.6,1.3,1.1   c0.4,1.1-0.1,2.3-0.8,3.1c-0.7,0.9-1.6,1.4-2.6,1.7c-1,0.2-2.1,0-2.9-0.6c-1.4-1-1.7-3-1.5-4.4c0.1-1.1,0.5-2.2,0.8-3.3   c0.2-0.6,0.4-1.2,0.5-1.8c1.1-4.3,0.6-9.2-1.4-14c0.3,0,0.5,0.1,0.8,0.1c0.1,0,0.3,0,0.4,0c0.5,0,1.1-0.1,1.6-0.1   c0.8,1.8,1.4,3.6,1.7,5.6c0.4,2.9,0.1,6.1-0.2,8.9l-0.1,1.2L88.5,48.7z M80.5,47.1c-1.1,1.9-2.4,3.6-3.6,5.1   c-0.7,0.8-1.4,1.7-2.3,2.4c-0.7,0.6-1.5,1.1-2.5,1.5c-3.1,1.5-6.8,2-10.2,1.3C59.4,57,57.1,56,55,54.5c0-0.2-0.2-0.3-0.4-0.3   c0,0,0,0-0.1,0c-0.6-0.5-1.2-1-1.8-1.6c-2.2-2.2-3.7-5-5-7.6c-0.4-3.2-0.1-6.5,0.8-9.6c0.2-0.7,0.4-1.4,0.8-2.1   c0.6-0.2,1.2-0.3,1.8-0.6c1-0.4,1.9-0.9,2.6-1.4c4.7-2.8,8-6,9.7-9.5c0.1,1.9,0.6,4.1,1.8,6.1c1.7,2.7,4.5,4.5,7.4,4.7   c0.2,0,0.4-0.1,0.4-0.3c0.1-0.2,0.1-0.4-0.1-0.5c-1.3-1.5-2.2-3.3-2.5-5.3c0.9,1.3,2,2.5,3.3,3.5c1.6,1.2,3.5,2,5.1,2.6   c0.2,0.1,0.4,0.1,0.6,0.2l0,0c0.6,0.8,0.8,1.7,1,2.6C81.5,39.3,81.5,43.3,80.5,47.1L80.5,47.1z M90,93.2c-1.2,0.1-2.4,0.7-3.7,1.9   c-0.3,0.3-0.5,0.5-0.8,0.8c-0.8,0.8-1.5,1.5-2.4,2c-1.7,0.9-3.8,0.6-5.3,0.2c-0.9-0.3-1.8-0.6-2.7-1c-0.9-0.3-1.8-0.7-2.7-0.9   c-2.8-0.8-5.7-0.9-8.5-0.2c-0.8,0.2-1.6,0.5-2.4,0.7c-1.8,0.6-3.5,1.2-5.3,1c-1.9-0.2-3.8-1.2-5.9-3.2l-0.3-0.3   c-0.7-0.7-1.4-1.3-2.3-1.7c-1.1-0.4-2.2-0.4-3.3-0.3c-0.5,0-1.1,0.1-1.6,0c-1.2-0.1-2.4-0.5-3.4-1.2c3.2-5.6,5.9-11.3,8.7-17.2   l1.3-2.8c2.2-4.7,4.7-10.1,5.4-15.7c2,1.4,4.4,2.3,6.8,2.8c1,0.2,2.1,0.3,3.1,0.3c2.6,0,5.2-0.6,7.6-1.7c1.1-0.5,1.9-1,2.7-1.7   c0.3-0.2,0.5-0.4,0.8-0.7C76.8,68.5,81.8,82,90,93.2z M92.1,96c-0.3,0-0.5,0-0.8,0c-0.1,0-0.1,0-0.2,0c-0.7,0.1-1.4,0.3-2.1,0.5   c-0.1,0-0.2,0-0.2,0c0,0-0.1,0.1-0.1,0.1c-0.7,0.3-1.3,0.7-1.9,1.2c-0.3,0.3-0.6,0.6-0.9,0.9c-0.4,0.4-0.7,0.7-1.1,1c0,0,0,0,0,0   c-0.1,0-0.1,0-0.2,0.1c0,0,0,0,0,0.1c-1.3,0.9-2.9,1.2-4.3,1.2c0,0,0,0,0,0c-0.1,0-0.1,0-0.2,0c-1.3-0.1-2.5-0.3-3.3-0.6   c-1-0.3-2-0.6-2.9-1C71.9,98.9,70,98.2,68,98c-0.6-0.1-1.2-0.1-1.8-0.1c-0.1,0-0.2,0-0.3,0c0,0,0,0,0,0c-1,0.1-2,0.2-2.9,0.5   c0,0,0,0,0,0c-0.1,0-0.1,0-0.2,0c0,0,0,0,0,0c-0.6,0.2-1.1,0.4-1.7,0.6c-0.3,0.1-0.6,0.2-1,0.4c0,0-0.1,0-0.1,0   c-0.4,0.1-0.8,0.3-1.2,0.4c-0.4,0.1-0.7,0.1-1.1,0.2c0,0-0.1,0-0.1,0c0,0,0,0,0,0c-2.1,0.2-4.3-0.2-6.2-1.4   c-0.6-0.4-1.2-0.8-1.7-1.2c-1.1-0.9-2.3-1.8-3.7-2.1c-0.8-0.2-1.7-0.2-2.6-0.2c-0.5,0-1,0-1.5-0.1c-1.3-0.1-2.6-0.7-3.7-1.4   c0.3-0.5,0.6-1.1,0.9-1.6c1.1,0.8,2.5,1.3,3.8,1.3c0.6,0,1.1,0,1.7,0c1-0.1,2-0.1,2.9,0.2c0.7,0.3,1.3,0.9,2,1.5l0.3,0.3   c2.2,2.1,4.3,3.2,6.4,3.4c2,0.2,3.9-0.4,5.7-1c0.8-0.3,1.5-0.5,2.3-0.7c2.6-0.7,5.4-0.6,8,0.2c0.9,0.3,1.7,0.6,2.6,0.9   c0.9,0.4,1.9,0.7,2.8,1c1,0.3,2,0.4,2.9,0.4c1.1,0,2.2-0.2,3.1-0.7c1-0.5,1.8-1.4,2.6-2.2c0.3-0.3,0.5-0.5,0.8-0.8   c1.2-1.2,2.4-1.7,3.5-1.6c0.1,0,0.1,0,0.2,0C91.1,94.7,91.6,95.4,92.1,96z M96.3,100.7c-0.5,0.1-1,0.3-1.4,0.5   c-0.8-1.5-1.7-3-2.7-4.3c0.2,0,0.4,0,0.5,0c0.1,0,0.1,0,0.2,0C93.9,98.2,95.1,99.5,96.3,100.7z M90.4,104.5   c-0.2-0.4-0.4-0.8-0.6-1.3l-1.9-5c0.3-0.2,0.6-0.4,1-0.6l3.1,5.6c-0.2,0.2-0.4,0.3-0.6,0.5l-0.1,0.1   C90.9,104,90.7,104.2,90.4,104.5z M59.5,107.4c-0.4-1.4-0.6-2.8-0.8-4.2l-0.4-2.3c0.3,0,0.5-0.1,0.8-0.1c0.3-0.1,0.7-0.2,1-0.3   c0.3,0.6,0.5,1.3,0.6,2.2c0,0.4,0.1,0.7,0.1,1.1c0,0.6,0.1,1.2,0.2,1.8c0.1,0.5,0.2,1,0.4,1.5C60.7,107.1,60.1,107.3,59.5,107.4z    M37.4,94.9c0.1,1,0.1,2.1,0,3.2c-0.1,0.9-0.1,1.8-0.1,2.7c-0.9-0.4-1.8-1-2.6-1.7C35.7,97.7,36.6,96.3,37.4,94.9z M38.3,101.1   c-0.1-1,0-2,0-3c0.1-1.1,0.1-2.3,0-3.4c0.4,0.3,0.9,0.5,1.4,0.7c0,0.5,0.1,0.9,0.2,1.3c0,0.2,0.1,0.3,0.1,0.5   c0.1,0.8,0.1,1.5,0.1,2.3c0,0.6,0,1.3,0,2C39.5,101.5,38.9,101.3,38.3,101.1z M41.1,101.6c-0.1-0.7-0.1-1.3-0.1-2   c0-0.8,0-1.7-0.1-2.5c0-0.2-0.1-0.4-0.1-0.6c-0.1-0.3-0.1-0.5-0.2-0.8c0.4,0.1,0.8,0.2,1.2,0.2c0.3,0,0.6,0,0.8,0.1   c0.1,1.9,0.1,3.8,0.1,5.6c0,0,0,0,0,0.1c-0.2,0-0.4,0-0.5,0C41.9,101.6,41.5,101.6,41.1,101.6z M43.6,96c0.6,0,1.2,0,1.8,0.1   c0,0,0.1,0.1,0.1,0.1c0,0,0.1,0.1,0.1,0.4c0,1.8,0,3.6,0,5.3c-0.3-0.1-0.7-0.2-1-0.2c-0.3,0-0.6-0.1-0.9-0.1c0,0,0-0.1,0-0.1   C43.7,99.7,43.7,97.8,43.6,96z M46.5,96.6c0,0,0-0.1,0-0.2c0.6,0.2,1.1,0.6,1.7,1c0.2,1.9,0.3,3.8,0.3,5.7c-0.6-0.3-1.3-0.6-2-0.9   C46.5,100.4,46.5,98.5,46.5,96.6z M49.1,98.1C49.2,98.1,49.2,98.2,49.1,98.1c0.6,0.5,1.2,0.9,1.8,1.3c0.1,0.1,0.2,0.1,0.3,0.2   c0,1.7,0,3.4,0,5.2c0,0-0.1,0-0.1-0.1c-0.6-0.4-1.2-0.7-1.8-1.1C49.4,101.8,49.3,99.9,49.1,98.1z M52.2,105.3c0-1.7,0-3.5,0-5.2   c0.6,0.3,1.3,0.5,1.9,0.7l0.1,1.9c0,1.3,0.1,2.6,0.3,3.9C53.7,106.2,52.9,105.8,52.2,105.3z M55.5,107c-0.3-1.4-0.3-2.9-0.4-4.4   l-0.1-1.7c0.8,0.1,1.6,0.1,2.3,0.1l0.4,2.4c0.2,1.4,0.5,2.8,0.8,4.2c-0.1,0-0.2,0-0.3,0C57.2,107.5,56.3,107.3,55.5,107z    M62.2,106.7c-0.2-0.4-0.3-0.9-0.4-1.4c-0.1-0.5-0.1-1.1-0.2-1.7c0-0.4-0.1-0.7-0.1-1.1c-0.1-1-0.3-1.7-0.7-2.4   c0.2-0.1,0.4-0.1,0.5-0.2c0.4-0.2,0.9-0.3,1.4-0.5c0.5,1.2,0.7,2.5,0.9,3.9c0.1,0.9,0.3,1.7,0.5,2.6c-0.4,0.1-0.7,0.3-1.1,0.4   C62.8,106.4,62.5,106.6,62.2,106.7z M65.1,105.7c-0.2-0.8-0.3-1.6-0.4-2.4c-0.2-1.4-0.4-2.7-1-4c0.7-0.2,1.4-0.3,2.1-0.3l0.5,1.3   c0.1,0.3,0.2,0.6,0.3,0.8c0.2,0.6,0.2,1.2,0.2,1.8c0.1,0.8,0.1,1.6,0.4,2.4C66.5,105.3,65.8,105.4,65.1,105.7z M68.1,105.1   C68.1,105.1,68.1,105.1,68.1,105.1c-0.3-0.8-0.4-1.5-0.4-2.3c0-0.7-0.1-1.3-0.3-2c-0.1-0.3-0.2-0.6-0.3-0.9l-0.4-1.1   c0.4,0,0.8,0,1.2,0.1c0.4,0,0.8,0.1,1.1,0.2l0.6,4.8c0.1,0.4,0.1,0.9,0.2,1.3C69.3,105.1,68.7,105.1,68.1,105.1z M70.8,105.4   c-0.1-0.5-0.2-1-0.2-1.6L70,99.3c0.5,0.1,1.1,0.3,1.6,0.5c0.2,0.4,0.3,0.8,0.3,1.3c0.2,1.5,0.3,3.1,0.3,4.6   C71.7,105.6,71.2,105.5,70.8,105.4z M73,106c0-1.7-0.1-3.4-0.3-5c0-0.3-0.1-0.6-0.1-0.8c0.3,0.1,0.5,0.2,0.8,0.3   c0.3,0.1,0.6,0.2,0.8,0.3c0.2,1,0.5,2.1,0.7,3.2l0.7,3c-0.2-0.1-0.3-0.1-0.5-0.2C74.5,106.5,73.8,106.2,73,106z M76.6,107.3   l-0.8-3.6c-0.2-0.9-0.4-1.7-0.6-2.6c0.4,0.1,0.8,0.3,1.1,0.4c0.2,0,0.3,0.1,0.5,0.1c0,0,0,0,0,0c0.5,1,0.6,2.1,0.8,3.3   c0.1,1,0.3,2,0.7,3C77.8,107.6,77.2,107.5,76.6,107.3z M79.5,108.1c-0.5-1-0.7-2.2-0.9-3.4c-0.1-1-0.3-2-0.7-2.9   c0.5,0.1,1.1,0.2,1.6,0.2c0,0.5,0.1,0.9,0.2,1.4c0.5,1.7,1,3.3,1.6,5C80.7,108.3,80.1,108.2,79.5,108.1z M82.3,108.3   c-0.6-1.7-1.2-3.4-1.7-5.2c-0.1-0.4-0.2-0.8-0.2-1.1c0.6,0,1.2-0.1,1.9-0.2l0.5,1.9c0.4,1.4,0.8,2.9,1.5,4.2   C83.7,108.1,83,108.2,82.3,108.3z M85.1,107.6c-0.7-1.3-1.1-2.7-1.5-4.2l-0.5-1.9c0.6-0.2,1.1-0.4,1.6-0.7c0.3,0.4,0.7,0.8,0.9,1.3   c0.1,0.2,0.2,0.5,0.3,0.8l0,0.1c0.4,1.2,0.8,2.4,1.3,3.6C86.6,107,85.9,107.3,85.1,107.6z M88,106.1c-0.5-1.1-0.9-2.3-1.2-3.4   l0-0.1c-0.1-0.3-0.2-0.6-0.3-0.9c-0.2-0.5-0.6-1-1-1.5c0.3-0.3,0.7-0.6,1-0.9c0.2-0.2,0.4-0.4,0.6-0.6l1.8,4.7   c0.2,0.5,0.4,1,0.7,1.5C89.1,105.4,88.6,105.8,88,106.1z M92.6,102.6l-2.9-5.3c0.4-0.1,0.9-0.3,1.3-0.3c1.1,1.5,2.1,3.1,3,4.7   C93.5,101.9,93.1,102.3,92.6,102.6z M23.6,73.4c-0.1-0.2-0.3-0.3-0.5-0.3c-0.2,0-0.5,0.1-0.7,0.3c-0.7,0.3-1.3,0.4-1.9,0.3   c-0.4-0.1-0.8-0.4-0.9-0.8c-0.1-0.2-0.1-0.4,0-0.7c0.2-0.4,0.7-0.5,1.5-0.5c0.6-0.1,1.2-0.1,1.8-0.4c0.2-0.1,0.3-0.3,0.2-0.5   c-0.1-0.2-0.2-0.3-0.4-0.3c-1.2,0-2.5-0.3-3.5-0.9c-0.5-0.3-0.9-0.8-0.8-1.2c0.2-0.4,0.9-0.4,1.6-0.3c1.5,0.1,3,0,4.5-0.4   c0.1,0,0.3-0.1,0.3-0.3c0.1-0.1,0-0.3,0-0.4c-0.6-1-1.2-2.1-0.9-3.1c0.1-0.5,0.6-1,1.1-1.2c0.3-0.1,0.6-0.1,0.9,0.1   c0.2,0.2,0.3,0.4,0.5,0.7c0.1,0.1,0.1,0.2,0.2,0.4c0.8,1.4,2.5,2.3,4.9,2.7c8.2,1.5,15.8-1.6,21.1-4.6c-1,3-2.4,6-3.8,8.9l-1,2.2   c0,0-0.1,0-0.1,0c-5.3,1.6-10.9,2-16.3,1.1l-0.1,0c-1.1-0.2-2.3-0.4-3.3,0.1c-0.1,0.1-0.4,0.2-0.7,0.4c-0.9,0.6-2.5,1.8-3.7,1.6   c-0.8-0.1-0.9-0.2-1.1-0.8c-0.1-0.3,0-0.7,0.1-1c0.1-0.1,0.1-0.2,0.3-0.3c0.2-0.1,0.4-0.1,0.5-0.2C23.6,73.8,23.7,73.6,23.6,73.4z    M48.2,50.8c0.1,0.3,0.2,0.6,0.3,1c0.5,1.2,0.9,2.4,1,3.7c0.2,2.8-1.8,5.7-4.6,6.7c-2.7,1-5.9,0.4-8.3-1.5   c-2.2-1.8-3.6-4.7-3.9-7.7c-0.1-1.3,0-3,1-4.3c0.7-0.9,1.8-1.5,3.1-1.6c1.3-0.1,2.4,0.3,3.2,1.1l0.8,0.8l-0.1-1.2   c-0.2-2.7-0.3-6,0.3-8.9c0.4-1.8,1-3.6,1.9-5.3c0.9,0.1,1.8,0.2,2.7,0.2c-2.2,4.6-2.9,9.4-2,13.7c0.1,0.6,0.3,1.2,0.4,1.8   c0.3,1.2,0.6,2.2,0.7,3.4c0.1,1.5-0.3,3.4-1.7,4.4c-0.8,0.5-1.9,0.7-2.9,0.4c-1-0.3-1.8-0.9-2.5-1.8c-0.6-0.8-1.1-2.1-0.6-3.2   c0.2-0.5,0.7-0.9,1.3-1c0.3,0,0.8-0.1,1.1,0.3l0.6-0.6c-0.5-0.5-1.2-0.6-1.9-0.5c-0.9,0.2-1.6,0.7-2,1.5c-0.6,1.4-0.1,3,0.7,4.1   c0.8,1,1.8,1.8,3,2.1c0.4,0.1,0.8,0.2,1.3,0.2c0.9,0,1.7-0.2,2.4-0.7c1.7-1.1,2.2-3.4,2.1-5.2c-0.1-1.2-0.4-2.4-0.7-3.5   c-0.2-0.6-0.3-1.2-0.4-1.8c-0.9-4.2-0.1-9,2.2-13.6c0.5,0,1.1-0.1,1.6-0.2c-0.2,0.5-0.4,1.1-0.6,1.6c-0.9,3.2-1.2,6.6-0.8,10   l-0.1,0c0,0.1,0.1,0.1,0.1,0.2C47.2,47.2,47.6,49,48.2,50.8z M42.8,82.8c-7.7,1-15.6,0.1-22.8-2.6c-4.4-1.6-7-3.6-8.2-6.3   c-0.8-1.9-0.8-4.2,0.3-6.4c1.2-2.5,3.4-4.5,5.9-5.3c0.2,0,0.3-0.2,0.3-0.4c0-0.2-0.1-0.3-0.2-0.4c-5.4-3.5-9.9-8.3-13.2-13.8   c-2.7-4.6-4.1-9-4-13c0.1-4.9,2.4-9.4,6-11.6c3.6-2.2,8.6-2.5,15.1-0.7c6.5,1.8,12.5,4.6,18.1,8.3c-0.7,0.2-1.4,0.4-2.1,0.6   c-0.2,0.1-0.3,0.2-0.3,0.4c0,0.2,0.1,0.4,0.3,0.4c1.4,0.6,2.8,1,4.2,1.3c-0.8,1.7-1.5,3.4-1.9,5.3c-0.6,2.7-0.5,5.6-0.3,8.2   c-0.9-0.5-2-0.8-3.1-0.7c-1.5,0.1-2.9,0.8-3.7,1.9c-0.9,1.2-1.3,2.9-1.2,5c0.2,3.3,1.8,6.5,4.2,8.4c1.8,1.4,4,2.2,6.1,2.2   c1,0,2.1-0.2,3-0.5c3.2-1.2,5.3-4.4,5.1-7.6c-0.1-1.4-0.6-2.7-1-3.9c-0.1-0.3-0.2-0.6-0.3-1c-0.3-0.8-0.5-1.7-0.7-2.5   c1,1.8,2.3,3.7,3.8,5.3c0.6,0.6,1.3,1.2,2,1.7c-0.2,1.9-0.6,3.8-1.1,5.7c-5.1,3.1-13,6.5-21.4,5c-2.2-0.4-3.6-1.2-4.3-2.3   c-0.1-0.1-0.1-0.2-0.2-0.3c-0.2-0.3-0.4-0.7-0.7-1c-0.5-0.4-1.1-0.5-1.8-0.3c-0.8,0.3-1.5,1-1.7,1.9c-0.3,1.2,0.2,2.3,0.7,3.3   c-1.2,0.3-2.4,0.3-3.6,0.2c-0.6-0.1-2-0.2-2.5,0.9c-0.4,0.9,0.3,1.8,1.1,2.3c0.4,0.3,0.9,0.5,1.4,0.7c-0.5,0.1-0.9,0.3-1.2,0.8   c-0.3,0.4-0.3,1-0.1,1.5c0.3,0.6,0.9,1.2,1.6,1.3c0.4,0.1,0.8,0.1,1.3,0c-0.1,0.4-0.1,0.8,0,1.2c0.4,1.1,0.8,1.2,1.8,1.4   c0.2,0,0.3,0,0.5,0c1.5,0,3-1.1,3.9-1.8c0.2-0.2,0.4-0.3,0.6-0.4c0.8-0.4,1.8-0.2,2.7-0.1l0.1,0c5.3,0.9,10.8,0.6,16-0.9   C45.9,77,44.5,80,43,82.8C42.9,82.8,42.9,82.8,42.8,82.8z M101.1,105.3c0.7,0.6,1.4,1.3,1.4,2c0,0.4-0.2,0.9-0.5,1.2   c-1.5,2.5-3.9,4.3-6.6,5.1c-0.3,0.1-0.7,0.2-1.1,0.3c-0.6,0.1-1.3,0.3-1.9,0.6c-0.7,0.3-1.3,0.7-2,1c-0.3,0.2-0.7,0.4-1.1,0.6   c-4.6,2.4-10.3,1.3-15.8-0.2c-1.8-0.5-3.6-1-5.5-0.7c-0.9,0.1-1.8,0.5-2.7,0.8c-0.2,0.1-0.5,0.2-0.7,0.3c-5.4,2-11.7,1.6-16.8-1.1   c-0.3-0.1-0.6-0.3-0.8-0.5c-0.9-0.5-1.8-1-2.9-1.3c-1.2-0.3-2.4-0.4-3.6-0.4c-3.4-0.1-8.1-0.5-9.5-4c-1.1-2.8,0.8-5.8,2.8-8.7   c0.2-0.2,0.3-0.4,0.5-0.7c1.7,1.5,3.9,2.5,6.1,2.7c0.6,0.1,1.3,0.1,1.9,0.1c0.8,0,1.5,0,2.2,0.1c2.2,0.3,4.3,1.6,6.2,2.8   c2.3,1.4,4.7,2.9,7.5,2.9c0.3,0,0.5,0,0.8,0c0.1,0,0.1,0.1,0.2,0.1c0,0,0.1,0,0.1,0c0.1,0,0.1,0,0.2-0.1c1.4-0.2,2.7-0.7,4-1.1   c1.4-0.5,2.8-1,4.2-1.1c2.5-0.2,4.8,0.6,7.3,1.5c2.2,0.8,4.5,1.6,6.8,1.6c0.1,0,0.3,0,0.4,0c3.2-0.1,6-1.8,8.4-3.7   c0.1,0,0.1,0,0.2-0.1c0,0,0-0.1,0.1-0.1c0.4-0.3,0.8-0.6,1.2-0.9l0.1-0.1c1.6-1.3,3.2-2.7,5.1-2.8   C98.4,102.8,99.7,104.1,101.1,105.3z M85.2,82.8c-0.2,0-0.4,0.1-0.5,0.3c-1-2-2-4-2.8-6.1c3.8,2,8,3.3,12.3,3.8   c1,0.1,2,0.2,2.6,0.8c0.1,0.1,0.2,0.3,0.4,0.5c0.1,0.2,0.3,0.4,0.5,0.6C93.6,83.3,89.4,83.3,85.2,82.8z M106,82   c-0.3,0.3-0.7,0.5-1.1,0.5c-0.6,0-1.2-0.4-1.7-0.8c-0.2-0.2-0.4-0.3-0.6-0.5c-0.2-0.1-0.5,0-0.6,0.2c-0.1,0.2-0.1,0.4,0.1,0.6   c0.1,0.1,0.3,0.2,0.4,0.4c0.1,0.1,0.1,0.3,0.2,0.4c0.1,0.4,0,0.8-0.2,1c-0.4,0.5-0.5,0.5-1.3,0.4c-1.2-0.1-2.4-1.7-3.1-2.6   c-0.2-0.3-0.4-0.5-0.5-0.6c-0.9-0.8-2.1-1-3.2-1.1c-4.4-0.5-8.8-1.9-12.8-4.1c0,0-0.1,0-0.1,0c-1.6-4.3-2.9-8.7-3.7-13.3   c4.2,4.3,10.6,9.2,18.6,10.1c2.5,0.3,4.3-0.1,5.5-1.2c0.1-0.1,0.2-0.2,0.3-0.3c0.2-0.2,0.4-0.5,0.7-0.6c0.4-0.2,0.7,0,0.9,0.2   c0.5,0.3,0.8,0.9,0.7,1.5c-0.1,1.1-1,2-1.8,2.7c-0.1,0.1-0.2,0.2-0.1,0.4c0,0.1,0.1,0.3,0.2,0.3c1.3,0.8,2.7,1.3,4.2,1.7   c0.6,0.1,1.4,0.3,1.4,0.8c0,0.4-0.5,0.8-1.1,0.9c-1.2,0.3-2.5,0.3-3.6-0.1c-0.2-0.1-0.4,0-0.5,0.2c-0.1,0.2-0.1,0.4,0,0.5   c0.4,0.5,1,0.7,1.6,0.9c0.7,0.3,1.2,0.5,1.3,0.9C106.2,81.7,106.1,81.9,106,82z M110,62.2c2.5,0.7,4.8,2.7,5.9,5.3   c1,2.2,1.1,4.4,0.3,6.4c-1.2,2.7-3.7,4.7-8.2,6.3c-0.4,0.2-0.9,0.3-1.3,0.5c-0.2-0.3-0.4-0.5-0.7-0.6c0.5,0,1-0.1,1.5-0.2   c1-0.2,1.9-0.9,1.7-1.9c-0.1-1.1-1.5-1.4-2.1-1.5c-1.2-0.2-2.3-0.7-3.4-1.2c0.8-0.8,1.5-1.7,1.6-2.9c0.1-0.8-0.4-1.8-1.1-2.3   c-0.6-0.4-1.2-0.5-1.8-0.2c-0.4,0.2-0.7,0.5-1,0.8c-0.1,0.1-0.2,0.2-0.3,0.3c-1,0.9-2.6,1.2-4.8,1c-8.4-1-15-6.4-19-10.8   c-0.3-2.2-0.6-4.4-0.7-6.6c0-0.2-0.1-0.3-0.3-0.4c0.4-0.4,0.7-0.8,1-1.2c0.7-0.8,1.4-1.7,2.1-2.7c-0.1,0.2-0.1,0.4-0.2,0.6   c-0.1,0.3-0.3,0.6-0.4,0.9c-0.5,1.2-1.1,2.5-1.2,3.9c-0.4,3.2,1.6,6.5,4.7,7.9c1.1,0.5,2.3,0.7,3.5,0.7c2,0,4-0.6,5.7-1.8   c2.5-1.8,4.2-4.8,4.6-8.1c0.3-2-0.1-3.7-0.9-5c-0.8-1.2-2.1-1.9-3.6-2.1c-1.1-0.1-2.2,0.1-3.2,0.6c0.3-2.5,0.5-5.5,0.1-8.2   c-0.3-2-0.9-3.8-1.7-5.6c0.9-0.3,1.7-0.7,2.4-1.3c0.1-0.1,0.2-0.3,0.1-0.5c-0.1-0.2-0.2-0.3-0.4-0.3c-0.7,0-1.4-0.2-2-0.5   c5.7-4,12-6.9,18.7-8.7c6.5-1.8,11.4-1.5,15.1,0.7c3.6,2.2,5.9,6.7,6,11.6c0.1,4.1-1.3,8.4-4,13c-3.3,5.5-7.9,10.3-13.2,13.8   c-0.1,0.1-0.2,0.3-0.2,0.4C109.7,62,109.8,62.2,110,62.2z"></path></g></svg>