<svg clip-rule="evenodd" fill-rule="evenodd" image-rendering="optimizeQuality" shape-rendering="geometricPrecision" text-rendering="geometricPrecision" version="1.1" viewBox="0 0 100 100" xml:space="preserve" xmlns="http://www.w3.org/2000/svg"><defs><style type="text/css">
    .fil0 {fill:red}
  </style></defs><g transform="translate(-5.5e-7 -.57759)" fill="#f00"><g transform="matrix(.34483 0 0 .34483 0 30.405)"><path class="fil0" d="m145 0c15 0 28 5 28 10 0 6-13 10-28 10-16 0-29-4-29-10 0-5 13-10 29-10zm0 4c11 0 21 3 21 6s-10 6-21 6c-12 0-21-3-21-6s9-6 21-6z" fill="#f00"/></g><g transform="matrix(.34483 0 0 .34483 0 30.405)"><path class="fil0" d="m145 47c6-11 13-16 26-16 15 0 27 9 27 21 0 22-27 44-53 65-27-21-54-43-54-65 0-12 13-21 27-21 13 0 20 5 27 16zm-38-6c0-2-1-3-2-3s-2 1-2 3c0 1 1 2 2 2s2-1 2-2zm-3 23c2 1-1 4-3 2-5-6-6-14-3-21 2-2 5-1 4 2-3 6-2 12 2 17z"/><path class="fil0" d="m195 76c32-74 68-27 95-51-10 32-33 14-56 16-11 1-22 9-39 35z"/><path class="fil0" d="m202 69c30-48 63-10 77-23-11 40-48-2-77 23z"/><path class="fil0" d="m200 73c23-15 38-5 44-8-13 27-48 12-44 8z"/><path class="fil0" d="m94 76c-31-74-66-27-94-51 10 32 33 14 55 16 13 1 22 9 39 35z"/><path class="fil0" d="m88 69c-31-48-64-10-77-23 10 40 47-2 77 23z"/><path class="fil0" d="m89 73c-21-15-37-5-42-8 11 27 46 12 42 8z"/></g></g></svg>
