<svg fill="#C82606" xmlns="http://www.w3.org/2000/svg" xmlns:xlink="http://www.w3.org/1999/xlink" version="1.1" x="0px" y="0px" viewBox="0 0 100 100" enable-background="new 0 0 100 100" xml:space="preserve"><path fill-rule="evenodd" clip-rule="evenodd" d="M79.528,45.653c0.139,1.092,0.314,2.159,0.406,3.235  c0.193,2.288,0.389,4.579,0.492,6.872c0.08,1.727,0.043,3.461,0.006,5.189c-0.008,0.494-0.188,0.984-0.301,1.475  c-0.023,0.109-0.105,0.207-0.227,0.297c-0.121-0.934-0.273-1.865-0.357-2.805c-0.207-2.275-0.428-4.553-0.553-6.836  c-0.109-1.994-0.096-3.996-0.131-5.995c-0.006-0.258,0.018-0.515,0.021-0.772C78.888,45.748,78.886,45.748,79.528,45.653z"></path><path fill-rule="evenodd" clip-rule="evenodd" d="M72.411,79.89c-0.346-0.432-0.4-0.941-0.414-1.451  c-0.039-1.545-0.066-3.09-0.084-4.633c-0.016-1.668-0.008-3.34-0.02-5.008c-0.018-2.439-0.043-4.881-0.061-7.324  c-0.004-0.49,0-0.984,0.012-1.479C72.97,66.599,73.356,73.224,72.411,79.89z"></path><path fill-rule="evenodd" clip-rule="evenodd" d="M49.798,77.776c0.266,0.271,0.52,0.502,0.598,0.906  c0.404,2.068,0.619,4.152,0.689,6.256c0.096,2.91-0.105,5.801-0.521,8.684c-0.002,0.023-0.014,0.051-0.027,0.088  C50.144,91.933,49.558,79.341,49.798,77.776z"></path><path fill-rule="evenodd" clip-rule="evenodd" d="M65.446,6.874c0.355,7.222,0.32,14.455,0.48,21.688  c-0.115-0.776-0.262-1.548-0.348-2.328c-0.23-2.139-0.49-4.277-0.646-6.421c-0.193-2.625,0.049-5.25,0.164-7.874  c0.066-1.584,0.143-3.169,0.215-4.753c0.006-0.109,0.023-0.217,0.037-0.326C65.38,6.865,65.413,6.869,65.446,6.874z"></path><path fill-rule="evenodd" clip-rule="evenodd" d="M72.071,15.658c0.195,0.664,0.42,1.321,0.578,1.994  c0.395,1.672,0.438,3.382,0.512,5.09c0.068,1.603,0.184,3.204,0.297,4.805c0.027,0.386-0.016,0.444-0.416,0.44  c-0.525-0.004-0.949-0.458-0.992-1.114c-0.053-0.759-0.062-1.521-0.064-2.283c-0.012-2.741-0.008-5.481-0.014-8.221  c0-0.229,0-0.459,0-0.689C72.005,15.671,72.038,15.665,72.071,15.658z"></path><path fill-rule="evenodd" clip-rule="evenodd" d="M87.38,37.542c0.311,1.246,0.184,9.127-0.246,13.146  c-0.078-0.614-0.184-1.227-0.234-1.844c-0.232-2.957-0.445-5.916-0.682-8.873c-0.047-0.6,0.09-1.115,0.488-1.568  C86.942,38.137,87.146,37.843,87.38,37.542z"></path><path fill-rule="evenodd" clip-rule="evenodd" d="M74.263,5.865c0.854,6.533,1.119,13.077,0.469,19.64  c-0.047,0.005-0.096,0.01-0.143,0.015c-0.064-0.452-0.176-0.902-0.184-1.355c-0.043-2.123-0.064-4.246-0.078-6.369  c-0.016-2.525-0.01-5.051-0.021-7.578c-0.006-1.339-0.029-2.679-0.043-4.02C74.261,6.087,74.263,5.976,74.263,5.865z"></path><path fill-rule="evenodd" clip-rule="evenodd" d="M27.597,64.567c0.062,0.127,0.129,0.252,0.184,0.383  c0.143,0.338,0.314,0.672,0.402,1.025c0.128,0.494,0.229,1.002,0.277,1.51c0.219,2.227,0.34,4.455,0.25,6.693  c-0.096,2.363-0.424,4.691-1.156,6.949c-0.021,0.07-0.049,0.135-0.108,0.197c0.02-0.346,0.036-0.693,0.059-1.043  c0.024-0.359,0.056-0.717,0.084-1.076c0.259-3.203,0.622-6.396,0.52-9.617c-0.049-1.566-0.22-3.121-0.571-4.65  c-0.027-0.107-0.043-0.215-0.063-0.32C27.515,64.601,27.556,64.585,27.597,64.567z"></path><path fill-rule="evenodd" clip-rule="evenodd" d="M11.599,29.249c-0.57-5.215-0.736-10.416,0.598-15.556  c0.029,0.001,0.059,0.002,0.089,0.003c-0.2,5.186-0.399,10.371-0.6,15.557C11.658,29.251,11.627,29.25,11.599,29.249z"></path><path fill-rule="evenodd" clip-rule="evenodd" d="M44.726,75.257c0.457,3.34,0.361,6.6-0.366,9.846  c-0.047-0.338-0.101-0.678-0.139-1.018c-0.3-2.645-0.352-5.297-0.21-7.955C44.038,75.647,44.415,75.54,44.726,75.257z"></path><path fill-rule="evenodd" clip-rule="evenodd" d="M29.538,18.748c0.701,4.448,0.766,8.909,0.162,13.395  c-0.031-0.151-0.07-0.3-0.096-0.452c-0.254-1.604-0.266-3.22-0.227-4.838c0.027-1.133,0.037-2.267,0.043-3.401  c0.006-1.565,0.002-3.131,0.002-4.697C29.461,18.752,29.501,18.75,29.538,18.748z"></path><path fill-rule="evenodd" clip-rule="evenodd" d="M88.601,30.111c0.299,2.466,0.305,4.905-0.025,7.349  c-0.211-1.203-0.422-2.404-0.631-3.606c-0.119-0.69-0.264-1.377-0.336-2.071c-0.037-0.367,0.02-0.759,0.115-1.119  c0.059-0.219,0.197-0.493,0.562-0.374C88.353,30.311,88.47,30.19,88.601,30.111z"></path><path fill-rule="evenodd" clip-rule="evenodd" d="M43.571,13.543c1.19,2.227,1.682,8.249,1.04,12.334  c-0.225-0.268-0.372-0.509-0.339-0.882c0.205-2.179,0.229-4.363-0.002-6.539c-0.17-1.584-0.451-3.156-0.681-4.733  C43.581,13.665,43.579,13.604,43.571,13.543z"></path><path fill-rule="evenodd" clip-rule="evenodd" d="M21.587,74.657c-0.99-3.334-1.41-6.746-1.293-10.227  C20.968,67.808,21.216,71.239,21.587,74.657z"></path><path fill-rule="evenodd" clip-rule="evenodd" d="M82.192,19.762c0.156,0.867,0.354,1.729,0.457,2.603  c0.17,1.398,0.281,2.804,0.404,4.208c0.014,0.149-0.008,0.311-0.053,0.454c-0.061,0.194-0.156,0.469-0.391,0.383  c-0.156-0.059-0.316-0.324-0.332-0.509c-0.037-0.438,0.035-0.883,0.023-1.325c-0.049-1.821-0.109-3.641-0.168-5.46  c-0.002-0.113,0-0.226,0-0.338C82.155,19.772,82.175,19.767,82.192,19.762z"></path><path fill-rule="evenodd" clip-rule="evenodd" d="M32.958,31.906c-0.08-0.105-0.211-0.2-0.236-0.317  c-0.484-2.147-0.389-4.27,0.324-6.362c0,2.203,0,4.407,0,6.61C33.019,31.861,32.989,31.884,32.958,31.906z"></path><path fill-rule="evenodd" clip-rule="evenodd" d="M38.265,34.417c-0.4-4.08-0.642-8.173-0.256-12.279  C38.094,26.231,38.179,30.324,38.265,34.417z"></path><path fill-rule="evenodd" clip-rule="evenodd" d="M38.757,26.872c0.119,0.999,0.266,1.996,0.349,2.997  c0.106,1.263,0.165,2.529,0.228,3.794c0.01,0.218-0.064,0.443-0.123,0.66c-0.016,0.061-0.111,0.137-0.174,0.139  c-0.051,0.002-0.143-0.087-0.154-0.148c-0.044-0.246-0.088-0.499-0.092-0.75c-0.037-2.091-0.064-4.182-0.094-6.272  c-0.002-0.139,0-0.277,0-0.415C38.716,26.875,38.737,26.873,38.757,26.872z"></path><path fill-rule="evenodd" clip-rule="evenodd" d="M76.479,55.06c0.033-4.004,0.066-8.006,0.102-12.009  c0.027,0.001,0.055,0.001,0.082,0.001c0.094,4.004,0.148,8.006-0.059,12.01C76.562,55.062,76.521,55.06,76.479,55.06z"></path><path fill-rule="evenodd" clip-rule="evenodd" d="M58.112,8.107c-0.152,4.646-0.303,9.293-0.455,13.94  C57.685,17.401,57.728,12.755,58.112,8.107z"></path><path fill-rule="evenodd" clip-rule="evenodd" d="M68.257,70.481c0.049-2.818,0.096-5.633,0.146-8.463  C68.603,62.548,68.536,67.29,68.257,70.481z"></path><path fill-rule="evenodd" clip-rule="evenodd" d="M14.81,56.782c-0.059,0.828-0.23,1.568-0.607,2.238  c-0.229,0.406-0.525,0.779-0.819,1.146c-0.177,0.215-0.407,0.205-0.667,0.07c-0.521-0.271-0.811-0.695-0.98-1.244  c-0.413-1.312-0.432-2.654-0.365-4.008c0.053-0.992,0.187-1.971,0.518-2.908c0.184-0.521,0.451-1.012,0.683-1.516  c0.042-0.09,0.088-0.18,0.15-0.307c-0.633,0.062-1.176-0.035-1.507-0.593c-0.297-0.499-0.37-1.038-0.18-1.626  c-0.371,0.039-0.573-0.127-0.633-0.477c-0.009-0.061-0.035-0.122-0.072-0.17c-0.67-0.879-0.622-1.896-0.516-2.905  c0.118-1.153,0.678-2.173,1.073-3.241c0.042-0.11,0.064-0.264,0.02-0.364c-0.503-1.153-0.308-2.256,0.237-3.329  c0.1-0.193,0.145-0.357,0.087-0.578c-0.136-0.501,0.075-0.783,0.597-0.799c0.285-0.006,0.46-0.144,0.666-0.316  c0.543-0.459,1.137-1.9,1.295-2.451c-0.137,0.15-0.232,0.235-0.298,0.338c-0.319,0.504-0.64,1.009-0.944,1.521  c-0.471,0.795-1.116,0.943-1.961,0.77c-0.311-0.065-0.471-0.309-0.503-0.602c-0.081-0.744-0.008-1.473,0.642-1.959  c0.722-0.541,1.48-1.039,2.244-1.523c1.449-0.921,3.047-1.481,4.728-1.809c0.222-0.042,0.446-0.062,0.667-0.092  c-0.219,0.295-0.441,0.574-0.635,0.871c-0.09,0.134-0.148,0.301-0.166,0.459c-0.013,0.112,0.038,0.31,0.11,0.335  c0.104,0.037,0.302-0.003,0.371-0.084c0.364-0.425,0.679-0.884,0.698-1.477c0.003-0.028,0.01-0.058,0.02-0.106  c0.43,0,0.861-0.041,1.283,0.006c2.158,0.242,4.275,0.674,6.248,1.611c0.919,0.437,1.793,0.985,2.484,1.755  c0.246,0.274,0.447,0.59,0.668,0.887c0.291,0.398,0.58,0.8,0.881,1.193c0.037,0.051,0.14,0.098,0.195,0.082  c1.372-0.415,2.805-0.438,4.211-0.635c0.305-0.042,0.436-0.15,0.461-0.479c0.023-0.3,0.168-0.592,0.258-0.888  c0.037,0.004,0.072,0.008,0.109,0.011c0.056,0.124,0.115,0.246,0.172,0.37c0.243,0.566,0.643,0.975,1.221,1.199  c1.182,0.463,2.225,1.16,3.243,1.898c2.948,2.145,6.026,4.068,9.385,5.511c0.084,0.035,0.169,0.07,0.276,0.115  c0.154-0.372,0.274-0.729,0.185-1.159c-0.167,0.107-0.3,0.194-0.513,0.332c0.218-0.805,0.203-1.52-0.021-2.242  c-0.164,0.084-0.283,0.145-0.467,0.239c0.25-0.829,0.869-1.471,0.701-2.4c-0.213,0.128-0.385,0.229-0.619,0.373  c0.024-0.194,0.02-0.337,0.063-0.46c0.454-1.252,0.533-2.57,0.675-3.879c0.045-0.448,0.049-0.906,0.138-1.346  c0.067-0.327,0.231-0.636,0.362-0.947c0.159-0.373,0.141-0.423-0.254-0.475c-0.859-0.111-1.521,0.307-2.01,0.922  c-0.879,1.103-1.688,2.263-2.511,3.412c-0.386,0.539-0.562,0.624-1.153,0.429c-0.463-0.153-0.754-0.6-0.715-1.106  c0.126-1.52,0.689-2.808,1.965-3.722c0.402-0.288,0.797-0.587,1.195-0.882c0.145-0.108,0.34-0.192,0.267-0.43  c-0.073-0.242-0.252-0.391-0.499-0.393c-0.242-0.001-0.488,0.051-0.732,0.083c-0.326,0.044-0.649,0.117-0.978,0.127  c-0.421,0.014-0.697-0.206-0.729-0.516c-0.036-0.343,0.239-0.689,0.638-0.752c0.252-0.039,0.513-0.019,0.77-0.031  c0.595-0.03,1.187-0.054,1.778-0.101c0.105-0.009,0.273-0.099,0.287-0.175c0.02-0.106-0.047-0.273-0.133-0.342  c-0.164-0.132-0.366-0.222-0.559-0.313c-0.141-0.066-0.297-0.09-0.434-0.159c-0.316-0.161-0.362-0.463-0.106-0.707  c0.278-0.268,0.628-0.395,1.011-0.407c0.752-0.024,1.498-0.009,2.218,0.289c0.218,0.09,0.485,0.083,0.729,0.083  c0.295,0,0.391-0.166,0.234-0.426c-0.12-0.202-0.283-0.378-0.436-0.557c-0.303-0.352-0.609-0.697-0.986-1.017  c0.146,0.041,0.299,0.065,0.435,0.125c0.925,0.401,1.845,0.812,2.769,1.213c0.246,0.105,0.498,0.208,0.755,0.269  c0.121,0.029,0.345-0.002,0.384-0.077c0.064-0.124,0.073-0.342,0.003-0.457c-0.171-0.277-0.398-0.522-0.61-0.772  c-0.133-0.156-0.279-0.3-0.491-0.524c0.312,0.045,0.562,0.056,0.794,0.123c0.335,0.098,0.657,0.238,0.984,0.36  c1.066,0.396,1.735,1.176,2.173,2.196c0.116,0.273,0.27,0.532,0.424,0.788c0.5,0.843,1.41,1.167,2.245,0.878  c0.839-0.29,1.711-0.235,2.569-0.214c0.35,0.008,0.711,0.236,1.033,0.42c0.118,0.067,0.146,0.296,0.228,0.475  c-0.449,0.042-0.816,0.119-1.181,0.097c-0.468-0.028-0.837,0.173-1.214,0.383c-0.271,0.15-0.368,0.4-0.354,0.703  c0.015,0.304,0.233,0.441,0.472,0.502c0.485,0.124,0.934,0.312,1.325,0.624c0.056,0.044,0.141,0.065,0.178,0.12  c0.102,0.148,0.183,0.309,0.273,0.464c-0.159,0.041-0.313,0.1-0.473,0.118c-0.162,0.018-0.329-0.011-0.494-0.013  c-0.612-0.005-1.115,0.396-1.249,0.989c-0.104,0.479,0.324,1.017,0.884,1.056c0.303,0.021,0.626,0.018,0.916-0.062  c0.661-0.181,1.308-0.411,1.96-0.626c0.671-0.221,1.347-0.438,2.015-0.668c0.126-0.043,0.268-0.107,0.354-0.205  c0.799-0.918,1.604-1.828,2.607-2.536c0.435-0.307,0.619-0.713,0.844-1.543c0.127,0.204,0.287,0.395,0.37,0.615  c0.155,0.418,0.146,0.433,0.613,0.384c0.811-0.085,1.618-0.214,2.43-0.246c0.696-0.027,1.395,0.069,2.093,0.086  c1.062,0.024,2.122,0.067,3.18,0.023c0.543-0.022,0.995-0.374,1.392-0.743c0.11-0.104,0.183-0.249,0.271-0.375  c0.046,0.021,0.092,0.042,0.141,0.062c0.042,0.178,0.084,0.358,0.132,0.565c0.281-0.169,0.562-0.336,0.862-0.517  c0.039,0.1,0.076,0.19,0.12,0.301c0.097-0.006,0.201,0.006,0.299-0.021c0.801-0.211,1.615-0.385,2.395-0.657  c1.164-0.407,2.299-0.904,3.458-1.326c0.749-0.272,1.522-0.487,2.292-0.705c0.299-0.085,0.484,0.116,0.41,0.424  c-0.14,0.563-0.433,1.062-0.852,1.446c-0.814,0.742-1.639,1.475-2.504,2.154c-1.166,0.917-2.347,1.821-3.574,2.653  c-0.752,0.511-1.601,0.88-2.409,1.307c-0.162,0.086-0.35,0.129-0.508,0.225c-0.3,0.18-0.598,0.324-0.964,0.164  c-0.003,0.029-0.006,0.057-0.009,0.086c0.132,0.041,0.258,0.102,0.393,0.123c1.976,0.295,3.941,0.676,5.954,0.552  c0.104-0.006,0.208-0.006,0.311,0.003c0.26,0.019,0.373,0.178,0.337,0.418c-0.027,0.19-0.082,0.385-0.163,0.56  c-0.581,1.269-1.407,2.304-2.673,2.977c-1.519,0.808-3.118,1.271-4.836,1.344c-1.728,0.073-3.454,0.165-5.18,0.259  c-0.214,0.012-0.426,0.085-0.64,0.131c-0.009,0.035-0.014,0.072-0.021,0.107c0.15,0.114,0.299,0.227,0.447,0.344  c0.41,0.324,0.831,0.637,1.222,0.982c0.261,0.229,0.224,0.486-0.061,0.695c-0.097,0.074-0.205,0.142-0.321,0.184  c-1.195,0.438-2.379,0.922-3.599,1.285c-0.944,0.28-1.935,0.405-2.903,0.6c-0.057,0.01-0.113,0.025-0.146,0.034  c0.363,0.899,0.689,1.798,1.094,2.657c0.153,0.324,0.481,0.564,0.75,0.863c-0.12,0.035-0.269,0.088-0.421,0.129  c-0.425,0.11-0.515,0.264-0.502,0.709c0.024,0.946,0.034,1.895,0.032,2.842c-0.004,0.262-0.056,0.535-0.131,0.789  c-0.248,0.855-0.341,1.729-0.375,2.615c-0.011,0.311-0.125,0.623-0.24,0.918c-0.679,1.701-1.345,3.408-2.067,5.09  c-0.309,0.715-0.771,1.359-1.128,2.057c-0.351,0.686-0.675,1.387-0.97,2.098c-0.09,0.215-0.059,0.482-0.071,0.727  c-0.011,0.201-0.001,0.402-0.001,0.604c-0.033,0.014-0.064,0.023-0.096,0.033c-0.088-0.141-0.162-0.293-0.271-0.416  c-0.081-0.09-0.206-0.141-0.312-0.211c-0.056,0.111-0.152,0.217-0.16,0.33c-0.018,0.299-0.118,0.547-0.361,0.814  c0-0.209,0-0.357,0-0.57c-1.001,0.525-1.378,1.424-1.662,2.443c-0.066-0.105-0.094-0.139-0.106-0.172  c-0.164-0.471-0.363-0.615-0.866-0.555c-0.521,0.061-0.973,0.244-1.338,0.674c-0.42,0.494-0.912,0.928-1.379,1.385  c-0.296,0.287-0.418,0.65-0.481,1.043c-0.027,0.174-0.078,0.344-0.091,0.518c-0.023,0.27-0.189,0.432-0.348,0.627  c-0.267,0.324-0.5,0.682-0.694,1.053c-0.072,0.141-0.048,0.373,0.011,0.533c0.186,0.5,0.371,1.008,0.633,1.471  c0.17,0.293,0.468,0.516,0.719,0.76c0.176,0.172,0.358,0.346,0.563,0.479c0.762,0.496,1.063,1.26,1.247,2.088  c0.06,0.268,0.19,0.453,0.416,0.582c0.592,0.334,1.218,0.508,1.891,0.309c1.104-0.324,2.199-0.67,3.304-0.992  c0.161-0.051,0.362-0.092,0.509-0.041c0.601,0.219,1.211,0.186,1.829,0.158c0.119-0.006,0.24,0,0.389,0  c-0.34,0.33-0.647,0.637-0.966,0.934c-0.069,0.064-0.178,0.123-0.271,0.123c-0.391,0.01-0.785,0.037-1.17-0.02  c-0.462-0.066-0.846,0.053-1.223,0.303c-0.681,0.447-1.411,0.766-2.25,0.738c-0.204-0.008-0.406-0.043-0.669-0.076  c0.079,0.164,0.124,0.309,0.207,0.424c0.555,0.746,0.659,1.57,0.486,2.463c-0.107,0.557-0.165,1.121-0.247,1.682  c-0.009,0.066-0.038,0.133-0.096,0.201c-0.139-0.611-0.386-1.197-0.351-1.84c0.002-0.051,0.002-0.105,0.015-0.152  c0.188-0.777-0.269-1.229-0.812-1.646c-0.206-0.158-0.3-0.098-0.435,0.1c-0.572,0.846-0.902,1.777-0.958,2.795  c-0.021,0.357-0.136,0.65-0.371,0.918c-0.365,0.416-0.71,0.855-1.059,1.287c-0.063,0.08-0.104,0.178-0.154,0.268  c-0.042-0.033-0.083-0.066-0.125-0.096c0.161-0.385,0.268-0.807,0.491-1.148c0.453-0.68,0.409-1.42,0.404-2.172  c-0.002-0.221,0.077-0.455,0.165-0.662c0.255-0.594,0.548-1.17,0.788-1.77c0.055-0.135-0.007-0.34-0.062-0.498  c-0.218-0.602-0.766-0.869-1.261-1.176c-0.251-0.154-0.348-0.365-0.309-0.609c0.142-0.822-0.224-1.4-0.827-1.895  c-0.406-0.33-0.781-0.701-1.18-1.041c-0.096-0.082-0.231-0.121-0.354-0.166c-1.075-0.379-2.159-0.74-3.227-1.139  c-0.956-0.357-1.653-1.068-2.325-1.801c-0.266-0.287-0.514-0.588-0.77-0.885c-0.313-0.359-0.797-0.477-1.264-0.342  c-0.793,0.227-1.577,0.375-2.424,0.189c-0.928-0.207-1.8,0.027-2.455,0.758c-0.665,0.742-1.285,1.523-1.917,2.293  c-0.083,0.1-0.132,0.234-0.167,0.361c-0.304,1.084-0.917,1.963-1.774,2.68c-0.056,0.051-0.077,0.16-0.091,0.244  c-0.189,1.348-0.305,2.693-0.137,4.061c0.084,0.709,0.01,1.436,0.027,2.156c0.004,0.166,0.059,0.346,0.141,0.488  c0.507,0.887,1.035,1.756,1.539,2.641c0.395,0.691,1.068,0.852,1.768,0.979c0.172,0.031,0.349,0.049,0.523,0.043  c1.045-0.021,1.684,0.66,2.326,1.336c0.023,0.021,0.011,0.076,0.019,0.141c-0.388,0.084-0.765,0.039-1.072-0.156  c-0.794-0.508-1.661-0.732-2.58-0.824c-1.023-0.105-1.624-0.811-2.176-1.574c-0.343-0.475-0.683-0.953-1.044-1.416  c-0.077-0.096-0.238-0.131-0.36-0.193c-0.046,0.117-0.128,0.236-0.134,0.355c-0.036,1.039-0.086,2.08-0.065,3.119  c0.007,0.326,0.216,0.648,0.336,0.973c0.035,0.094,0.091,0.18,0.184,0.361c-0.183-0.07-0.286-0.096-0.368-0.15  c-0.295-0.188-0.604-0.359-0.86-0.592c-0.159-0.145-0.315-0.385-0.325-0.592c-0.025-0.633,0.015-1.271,0.038-1.906  c0.017-0.422,0.072-0.844,0.058-1.266c-0.018-0.537-0.463-0.764-0.873-0.418c-0.398,0.332-0.727,0.75-1.078,1.139  c-0.083,0.088-0.145,0.199-0.209,0.303c-0.568,0.957-1.525,1.146-2.513,1.256c-0.364,0.043-0.681,0.135-0.992,0.357  c-0.36,0.254-0.792,0.408-1.193,0.607c-0.022-0.023-0.043-0.047-0.063-0.07c0.064-0.102,0.124-0.213,0.199-0.311  c0.184-0.232,0.412-0.439,0.562-0.693c0.418-0.717,1.112-0.986,1.852-1.168c0.528-0.131,0.982-0.346,1.341-0.764  c0.899-1.045,1.822-2.07,2.699-3.135c0.544-0.66,0.832-1.4,0.696-2.316c-0.092-0.613-0.109-1.275,0.17-1.883  c0.044-0.094,0.062-0.195,0.09-0.297c0.125-0.473,0.152-0.869-0.138-1.371c-0.591-1.008-1.044-2.113-1.244-3.273  c-0.148-0.869-0.112-1.77,0.116-2.637c0.15-0.574,0.154-1.131-0.039-1.695c-0.098-0.289-0.229-0.496-0.57-0.504  c-0.244-0.008-0.484-0.055-0.792-0.09c0.05-0.133,0.097-0.289,0.167-0.434c0.117-0.252,0.261-0.49,0.373-0.744  c0.095-0.213-0.008-0.371-0.23-0.344c-0.617,0.066-0.91-0.303-1.103-0.791c-0.45-1.139-1.196-2.074-2.072-2.889  c-0.524-0.49-1.169-0.865-1.803-1.217c-0.452-0.248-0.919-0.457-1.271-0.85c-0.403-0.455-0.904-0.684-1.515-0.717  c-0.789-0.045-1.4-0.414-1.84-1.104c-0.09,0.803-0.332,1.604-0.092,2.396c0.23,0.762,0.564,1.492,0.854,2.24  c-0.67-0.572-1.164-1.299-1.633-2.057c-0.471-0.76-0.925-1.508-0.904-2.453c-0.043,0.002-0.086,0.006-0.131,0.008  c-0.077,0.361-0.188,0.717-0.225,1.08c-0.04,0.387-0.01,0.783-0.01,1.176c0.002,0.373,0,0.75-0.041,1.133  c-0.048-0.334-0.09-0.668-0.148-1c-0.035-0.203-0.057-0.42-0.148-0.598c-0.525-1.029-0.578-2.133-0.553-3.254  c0-0.025,0-0.051-0.025-0.08c-0.086,0.355-0.146,0.721-0.264,1.066c-0.125,0.367-0.29,0.721-0.461,1.068  c-0.352,0.717-1.977,0.746-2.215-0.076c-0.029-0.107-0.089-0.213-0.098-0.322c-0.096-1.17-0.003-2.326,0.339-3.451  c0.112-0.367,0.316-0.707,0.482-1.072c-0.211,0.016-0.44,0.043-0.669,0.047c-0.576,0.002-1.092-0.344-1.22-0.902  c-0.108-0.467-0.163-0.957-0.149-1.436c0.012-0.5,0.22-0.959,0.579-1.332c0.106-0.109,0.206-0.227,0.345-0.383  c-0.426-0.242-0.73-0.535-0.795-1.059c-0.056-0.486,0.045-0.914,0.238-1.381c-0.27-0.092-0.527-0.178-0.783-0.266  c-0.284,0.74-0.147,1.463-0.018,2.182c0.273,1.523,0.012,2.973-0.602,4.371c-0.084,0.193-0.22,0.375-0.367,0.527  c-0.239,0.246-0.394,0.234-0.654,0.012C14.989,56.876,14.923,56.849,14.81,56.782z M47.056,46.317  c0.615-0.125,1.232,0.008,1.83,0.146c0.613,0.143,1.202,0.389,1.836,0.602c0.236-0.176-0.072-0.428-0.031-0.643  c0.199-0.1,0.504,0.176,0.613-0.29c-0.923-0.128-1.824-0.287-2.734-0.371c-1.553-0.142-3.047-0.478-4.423-1.241  c-1.333-0.74-2.671-1.471-3.999-2.217c-0.248-0.141-0.473-0.33-0.701-0.506c-0.08-0.062-0.137-0.15-0.205-0.227  c0.014-0.016,0.027-0.029,0.042-0.043c0.87,0.385,1.739,0.77,2.61,1.154c0.009-0.015,0.017-0.029,0.021-0.045  c-0.086-0.082-0.177-0.165-0.265-0.248c1.636,0.277,3.038,1.01,4.298,2.131c-0.092-0.266-0.162-0.477-0.234-0.688  c0.422,0.215,0.803,0.451,1.215,0.605c0.42,0.157,0.874,0.225,1.309,0.35c0.629,0.183,1.27,0.351,1.883,0.582  c0.457,0.174,0.88,0.438,1.407,0.707c-0.04-0.166-0.03-0.304-0.093-0.36c-0.339-0.308-0.694-0.603-1.054-0.888  c-0.218-0.173-0.454-0.321-0.681-0.48c0.013-0.021,0.022-0.044,0.035-0.066c0.144-0.006,0.285-0.012,0.5-0.023  c-0.826-0.404-1.645-0.48-2.466-0.549c0.015-0.452-0.282-0.639-0.618-0.805c-1.957-0.965-3.918-1.918-5.863-2.903  c-1.168-0.589-2.223-1.338-3.093-2.331c-0.401-0.455-0.901-0.77-1.484-0.97c-0.327-0.112-0.617-0.326-0.962-0.515  c-0.338,0.313-0.834,0.33-1.332,0.303c-1.484-0.082-2.945,0.059-4.363,0.515c-1.281,0.411-2.512,0.974-3.842,1.251  c-0.98,0.203-1.942,0.475-2.959,0.324c-0.03-0.004-0.063,0.014-0.133,0.029c0.229,0.177,0.418,0.326,0.654,0.51  c-1.852,0.589-3.58,0.112-5.317-0.322c0.068,0.069,0.141,0.124,0.216,0.172c2.059,1.304,4.258,2.285,6.598,2.964  c0.592,0.173,1.184,0.354,1.758,0.571c0.324,0.124,0.6,0.35,0.761,0.742c-1.26-0.391-2.481-0.436-3.78,0.017  c0.803,0.171,1.488,0.417,2.079,0.913c-0.941,0.055-1.878,0.053-2.813,0.056c-1.097,0.003-2.126-0.205-2.988-0.963  c0.23,0.368,0.482,0.716,0.723,1.068c1.648,2.419,3.805,4.115,6.719,4.742c0.305,0.065,0.604,0.147,0.908,0.223  c-0.004,0.015-0.005,0.03-0.009,0.046c-1.216,0.07-2.432,0.139-3.672,0.209c0.038,0.062,0.046,0.084,0.061,0.094  c0.079,0.049,0.159,0.094,0.239,0.141c0.991,0.552,2.052,0.935,3.165,1.101c1.577,0.235,3.166,0.386,4.751,0.569  c0.499,0.059,0.998,0.107,1.469,0.158c-0.447,0.268-0.895,0.531-1.34,0.799c0.013,0.023,0.026,0.047,0.043,0.07  c0.377-0.031,0.758-0.104,1.133-0.092c1.523,0.055,3.047,0.109,4.568,0.213c1.469,0.104,2.912,0.051,4.35-0.33  c1.459-0.385,2.859-1,4.385-1.17c-0.104-0.045-0.195-0.087-0.293-0.129c0.289-0.063,0.629,0.012,0.686-0.432  c-0.148-0.02-0.297-0.041-0.447-0.062c-0.998-0.137-1.994-0.335-2.998-0.396c-1.196-0.07-2.288,0.248-3.076,1.25  c-0.016,0.018-0.049,0.02-0.154,0.061c0.049-0.327,0.09-0.602,0.136-0.906c-1.167,0.289-2.161,0.893-3.048,1.727  c-0.141-0.262-0.085-0.49,0.07-0.654c0.216-0.227,0.455-0.463,0.732-0.592c0.436-0.203,0.905-0.337,1.371-0.467  c1.717-0.482,3.441-0.92,5.247-0.881c0.306,0.008,0.612,0.035,0.933,0.056c-0.028-0.064-0.045-0.097-0.083-0.187  c0.622,0.088,1.191,0.172,1.762,0.246c0.08,0.009,0.163-0.024,0.245-0.039c-0.004-0.031-0.009-0.062-0.013-0.094  c-1.306-0.473-2.653-0.716-4.031-0.527c-1.272,0.173-2.538,0.43-3.786,0.729c-1.963,0.465-3.929,0.742-5.934,0.333  c-0.584-0.118-1.158-0.292-1.737-0.438c0.008-0.026,0.013-0.05,0.021-0.074c0.434,0,0.867,0,1.299,0  c-1.324-0.713-2.412-1.669-3.168-2.982c0.201,0.178,0.405,0.355,0.608,0.533c-0.862-1.239-1.454-2.596-1.978-3.994  c0.104,0.074,0.184,0.164,0.259,0.257c0.579,0.726,1.149,1.458,1.735,2.177c0.893,1.092,1.869,2.098,3.125,2.773  c0.516,0.277,1.076,0.471,1.69,0.731c-0.312-0.429-0.559-0.769-0.804-1.108c0.025-0.022,0.051-0.047,0.078-0.07  c1.355,0.697,2.786,1.059,4.402,0.977c-0.49-0.372-0.8-0.764-0.857-1.347c2.131,0.487,4.208,0.966,6.4,0.647  c0-0.246,0-0.477,0-0.773c0.848,0.461,1.639,0.893,2.43,1.322c0.01-0.014,0.021-0.027,0.03-0.043  c-0.131-0.152-0.259-0.305-0.39-0.459c0.016-0.027,0.033-0.055,0.051-0.082c0.36,0.134,0.721,0.271,1.088,0.397  c0.082,0.028,0.178,0.013,0.27,0.017c0.003-0.033,0.004-0.063,0.008-0.096c-1.18-0.769-2.474-1.261-3.838-1.592  c1.337-0.053,2.621,0.178,3.877,0.619C48.931,46.874,48.052,46.485,47.056,46.317z M66.365,32.427  c0.729-0.072,1.446-0.036,2.147,0.163c0.176,0.05,0.303,0.024,0.447-0.091c0.61-0.486,1.296-0.816,2.083-0.852  c0.77-0.036,1.542-0.007,2.315-0.013c0.914-0.006,1.835,0.026,2.743-0.048c0.552-0.044,1.09-0.259,1.718-0.42  c-0.511,0.452-0.973,0.861-1.436,1.271c1.301-0.293,2.448-0.937,3.623-1.68c-0.27,0.568-0.722,1.022-1.352,1.381  c-0.993,0.564-2.085,0.749-3.205,0.809c-1.172,0.062-2.347,0.094-3.515,0.197c-0.542,0.049-1.068,0.24-1.616,0.371  c0.192,0.438,0.192,0.443,0.617,0.491c0.697,0.079,1.413,0.079,2.09,0.243c1.007,0.242,1.997,0.568,2.975,0.914  c1.46,0.519,2.94,0.87,4.497,0.828c0.167-0.004,0.333-0.002,0.499-0.002c0,0.016,0.002,0.029,0.002,0.043  c-0.156,0.072-0.31,0.146-0.556,0.26c0.787,0.209,1.49,0.396,2.196,0.582c-0.367,0.085-0.735,0.141-1.104,0.146  c-1.269,0.021-2.49-0.278-3.715-0.568c-0.632-0.149-1.268-0.283-1.9-0.424c-0.014,0.034-0.025,0.069-0.04,0.103  c0.371,0.186,0.745,0.371,1.048,0.523c-0.417,0-0.892,0.014-1.361-0.004c-1.379-0.052-2.725-0.246-3.995-0.832  c-0.445-0.205-0.929-0.331-1.399-0.479c-0.111-0.033-0.247-0.036-0.358-0.004c-0.999,0.281-2,0.356-3.021,0.119  c-0.786-0.184-1.582-0.299-2.377-0.034c-0.144,0.048-0.279,0.126-0.417,0.189c0.117,0.079,0.208,0.09,0.295,0.087  c0.957-0.033,1.773,0.296,2.467,0.946c0.075,0.068,0.219,0.105,0.323,0.092c0.794-0.1,1.59-0.085,2.36,0.133  c0.636,0.179,1.25,0.436,1.851,0.65c-0.019-0.141-0.042-0.332-0.074-0.576c1.952,0.521,3.829,1.049,5.812,0.882  c-0.548,0.11-1.094,0.198-1.646,0.257c-1.054,0.11-2.118,0.151-3.163,0.324c-0.745,0.124-1.464,0.415-2.193,0.631  c-0.16-0.659-1.559-1.518-2.524-1.484c0.188,0.63,0.219,1.249-0.15,1.814c1.372,0.793,2.715,1.57,4.057,2.347  c-0.006,0.015-0.009,0.029-0.013,0.044c-1.012-0.27-2.025-0.537-3.037-0.807c-0.014,0.027-0.028,0.053-0.045,0.078  c0.449,0.371,0.9,0.742,1.348,1.113c-0.325,0.012-0.633-0.008-0.933-0.07c-1.017-0.218-1.863-0.752-2.622-1.442  c-0.064-0.06-0.156-0.147-0.221-0.136c-0.334,0.065-0.662,0.158-1.019,0.248c0.193,0.248,0.402,0.475,0.563,0.732  c0.483,0.762,1.069,1.459,1.358,2.342c0.157,0.471,0.431,0.6,0.906,0.459c0.816-0.237,1.631-0.506,2.417-0.83  c1.044-0.432,2.043-0.977,3.157-1.234c0.093-0.021,0.183-0.052,0.315-0.089c-0.811-0.725-1.685-1.255-2.661-1.698  c0.155-0.096,0.267-0.167,0.386-0.232c1.072-0.605,2.253-0.836,3.464-0.91c1.327-0.082,2.657-0.086,3.98-0.199  c1.818-0.154,3.528-0.703,5.113-1.611c0.314-0.18,0.585-0.438,0.928-0.701c-0.25-0.078-0.407-0.129-0.568-0.182  c0.291-0.27,0.57-0.525,0.848-0.782c-1.633-0.015-3.201-0.134-4.749-0.449c-1.091-0.221-2.135-0.555-2.993-1.306  c-0.187-0.164-0.346-0.359-0.559-0.587c2.036-0.161,3.84-0.763,5.451-1.87c1.86-1.277,3.689-2.601,5.53-3.905  c0.026-0.018,0.039-0.05,0.082-0.105c-0.131,0.031-0.221,0.049-0.31,0.073c-1.919,0.512-3.838,1.025-5.759,1.534  c-0.121,0.032-0.258,0.02-0.387,0.022c-0.1,0.002-0.208-0.032-0.296-0.003c-0.356,0.119-0.705,0.256-1.101,0.404  c0-0.126,0.005-0.174,0-0.223c-0.001-0.044-0.008-0.088-0.014-0.161c-0.915,0.606-1.909,0.794-2.94,0.812  c-1.69,0.031-3.38,0.051-5.068,0.06c-1.766,0.01-1.836-0.003-3.242,1.092c-0.665,0.521-1.338,0.982-2.177,1.153  C66.485,32.36,66.429,32.399,66.365,32.427z M56.575,27.529c-0.113-0.127-0.156-0.178-0.202-0.229  c-0.269-0.291-0.571-0.539-0.673-0.97c-0.065-0.297-0.226-0.617-0.44-0.829c-0.394-0.389-0.859-0.707-1.331-1.084  c0.105,0.403,0.211,0.72,0.27,1.046c0.054,0.302-0.115,0.524-0.412,0.548c-0.371,0.03-0.768,0.051-1.119-0.042  c-0.571-0.149-1.164-0.283-1.639-0.68c-0.005-0.005-0.031,0.014-0.064,0.03c0.055,0.086,0.113,0.169,0.16,0.258  c0.055,0.099,0.105,0.2,0.146,0.305c0.129,0.336,0.032,0.544-0.312,0.653c-0.096,0.03-0.207,0.048-0.306,0.034  c-0.536-0.08-1.068-0.185-1.606-0.256c-0.481-0.064-0.968-0.096-1.455-0.143c-0.018,0.042-0.039,0.083-0.059,0.125  c0.072,0.08,0.133,0.174,0.217,0.234c0.081,0.058,0.189,0.075,0.283,0.119c0.48,0.225,0.537,0.573,0.142,0.929  c-0.12,0.107-0.263,0.208-0.416,0.256c-0.3,0.097-0.61,0.19-0.927,0.223c-0.488,0.051-0.984,0.044-1.476,0.077  c-0.084,0.005-0.163,0.081-0.243,0.124c0.066,0.081,0.121,0.182,0.203,0.235c0.06,0.039,0.162,0.022,0.242,0.015  c0.418-0.04,0.836-0.076,1.252-0.13c0.326-0.043,0.691,0.126,0.859,0.427c0.17,0.301,0.002,0.506-0.195,0.704  c-0.467,0.464-0.945,0.915-1.394,1.396c-0.64,0.689-1.075,1.486-1.1,2.451c-0.005,0.151,0.106,0.306,0.162,0.459  c0.147-0.07,0.344-0.104,0.435-0.219c0.232-0.295,0.415-0.63,0.623-0.942c0.573-0.856,1.314-1.558,2.074-2.24  c0.572-0.513,1.239-0.756,2.016-0.664c0.123,0.014,0.254,0.027,0.37-0.004c0.119-0.031,0.261-0.088,0.327-0.18  c1.059-1.465,2.579-1.952,4.288-2.034C55.681,27.514,56.086,27.529,56.575,27.529z M59.349,34.511  c0.074,0.176,0.151,0.361,0.227,0.546c0.198,0.483,0.463,0.952,0.579,1.454c0.452,1.92,1.983,2.88,3.824,2.891  c0.595,0.004,1.19-0.061,1.781-0.133c0.233-0.029,0.494-0.119,0.669-0.268c0.963-0.83,0.528-1.678-0.168-2.324  c-0.505-0.472-1.195-0.693-1.895-0.75c-1.303-0.104-2.508-0.51-3.675-1.076c-0.076-0.037-0.154-0.07-0.232-0.107  c-0.013,0.027-0.027,0.055-0.044,0.081c0.688,0.386,1.373,0.771,2.047,1.149c-0.019,0-0.063,0.008-0.098-0.002  c-0.208-0.061-0.428-0.097-0.618-0.194C60.954,35.372,60.171,34.947,59.349,34.511z M15.909,41.992  c-0.445,0.756-0.756,1.554-0.941,2.386c-0.517,2.309-0.996,4.626-1.494,6.938c-0.355,1.658-0.594,3.324-0.493,5.025  c0.009,0.162,0.015,0.34,0.083,0.48c0.048,0.105,0.197,0.164,0.301,0.244c-0.209-2.387,0.589-4.553,0.968-6.686  c0.042,0.639,0.012,1.367,0.155,2.062c0.136,0.654,0.445,1.271,0.693,1.9c0.031,0.078,0.147,0.119,0.227,0.178  c0.057-0.088,0.124-0.174,0.169-0.268c0.021-0.037,0.003-0.1-0.003-0.15c-0.215-1.643-0.43-3.285-0.65-4.929  c-0.065-0.489-0.127-0.971-0.01-1.468c0.295-1.262,0.563-2.53,0.834-3.8c0.107-0.501,0.182-1.012,0.295-1.514  C16.077,42.226,16.217,42.066,15.909,41.992z M60.029,38.131c0.148,0.333,0.274,0.632,0.414,0.927  c0.389,0.828,0.841,1.631,1.163,2.484c0.916,2.417,1.1,4.947,1.047,7.506c-0.003,0.094,0,0.188,0,0.279  c0.089-0.047,0.126-0.096,0.153-0.148c1.286-2.576,1.302-5.113-0.308-7.559C61.724,40.443,60.872,39.318,60.029,38.131z   M52.252,45.49c0-0.351-0.05-0.687,0.009-1.003c0.131-0.705,0.263-1.417,0.484-2.098c0.725-2.232,0.967-4.499,0.577-6.818  c-0.115-0.695-0.299-1.379-0.466-2.127c-0.348,0.484-0.506,0.914-0.316,1.424c0.074,0.201,0.095,0.422,0.133,0.634  c0.201,1.087,0.362,2.185,0.139,3.28c-0.154,0.762-0.405,1.506-0.655,2.244c-0.321,0.951-0.614,1.901-0.513,2.924  C51.698,44.522,51.872,45.048,52.252,45.49z M61.053,34.323c0.009,0.028,0.017,0.057,0.026,0.084  c0.448-0.033,0.899-0.092,1.348-0.094c0.801-0.003,1.611-0.053,2.395,0.066c1.209,0.18,2.413,0.365,3.634,0.414  c0.398,0.017,0.747-0.117,1.043-0.383c0.183-0.162,0.238-0.37,0.125-0.586c-0.197-0.383-0.474-0.668-0.911-0.822  c-0.825-0.289-1.674-0.246-2.525-0.261c-0.483-0.007-0.936,0.091-1.379,0.267c-1.098,0.434-2.177,0.91-3.345,1.132  C61.321,34.169,61.19,34.261,61.053,34.323z M20.399,47.667c-1.17,0.479-2.359,0.554-3.58,0.348  c2.348,1.116,4.799,1.412,7.369,0.941c-1.673-0.801-3.283-1.688-4.807-2.89C19.515,46.803,19.987,47.204,20.399,47.667z   M54.468,43.433c0.528-0.092,0.845-0.489,1.073-0.964c0.402-0.84,0.535-1.744,0.567-2.666c0.037-1.263-0.16-2.503-0.399-3.735  c-0.119-0.604-0.251-1.202-0.383-1.83c-0.112,0.066-0.176,0.114-0.25,0.148c-0.287,0.133-0.337,0.312-0.255,0.635  c0.436,1.723,0.562,3.477,0.295,5.236C54.954,41.318,54.69,42.364,54.468,43.433z M37.334,79.146c0.132-0.17,0.35-0.346,0.317-0.434  c-0.064-0.186-0.262-0.324-0.404-0.482c-0.029,0.014-0.061,0.025-0.092,0.035c-0.037,0.168-0.074,0.334-0.113,0.5  c-0.091,0.381-0.143,0.775-0.285,1.133c-0.137,0.338-0.182,0.664-0.16,1.018c0.031,0.535,0.082,1.072,0.043,1.604  c-0.025,0.32-0.147,0.668-0.326,0.938c-0.491,0.746-1.043,1.453-1.549,2.191c-0.129,0.186-0.215,0.381-0.449,0.473  c-0.133,0.053-0.231,0.195-0.344,0.295c0.018,0.018,0.037,0.039,0.053,0.059c0.057-0.037,0.112-0.076,0.172-0.111  c0.307-0.188,0.6-0.4,0.921-0.557c0.446-0.219,1.068,0.02,1.024,0.576c-0.011,0.148,0.037,0.303,0.059,0.449  c0.118-0.258,0.211-0.518,0.353-0.752c0.128-0.215,0.312-0.295,0.571-0.127c0.158,0.102,0.368,0.123,0.556,0.182  c-0.083-0.316-0.267-0.545-0.325-0.805c-0.064-0.291-0.217-0.49-0.414-0.684c-0.049-0.051-0.107-0.164-0.085-0.197  c0.183-0.266,0.259-0.547,0.323-0.869c0.072-0.369,0.131-0.414-0.195-0.672c-0.085-0.066-0.144-0.217-0.139-0.326  c0.007-0.135,0.07-0.283,0.148-0.396c0.173-0.254,0.261-0.477,0.002-0.734c-0.089-0.09-0.231-0.256-0.033-0.395  c0.231-0.164,0.191-0.338,0.031-0.521c-0.076-0.092-0.156-0.184-0.26-0.307c0.217-0.139,0.418-0.268,0.619-0.396  c-0.055-0.109-0.102-0.209-0.152-0.314c0.097-0.07,0.185-0.135,0.283-0.211C37.414,79.231,37.362,79.175,37.334,79.146z   M24.163,52.11c0.811-0.246,1.61-0.365,2.428-0.334c1.143,0.045,2.283,0.117,3.425,0.162c0.544,0.02,1.088,0.002,1.479,0.002  c-3.764-0.506-7.678-1.031-11.594-1.559c-0.001,0.008-0.004,0.014-0.008,0.021c0.524,0.136,1.051,0.271,1.581,0.412  c-0.43,0.146-0.841,0.287-1.252,0.428c0.008,0.035,0.019,0.07,0.028,0.104c1.473,0,2.945,0,4.438,0  C24.501,51.622,24.333,51.866,24.163,52.11z M51.927,52.147c0.48-0.107,0.718-0.404,0.938-0.717c1.005-1.426,1.67-3,1.997-4.711  c0.108-0.562,0.146-1.143,0.193-1.716c0.006-0.088-0.114-0.266-0.183-0.267c-0.176-0.006-0.353,0.062-0.523,0.102  C54.451,47.577,53.191,49.833,51.927,52.147z M22.169,53.522c-0.523-0.174-0.553-0.189-0.77,0.248  c-0.52,1.039-1.039,2.078-1.499,3.146c-0.354,0.83-0.526,1.713-0.357,2.627c0.03,0.152,0.112,0.295,0.169,0.445  c0.049,0,0.1,0,0.148,0C20.279,57.712,21.153,55.601,22.169,53.522z M13.376,39.964c-0.014,0.069-0.029,0.105-0.025,0.143  c0.039,0.93-0.182,1.811-0.465,2.688c-0.391,1.217-0.557,2.469-0.393,3.742c0.045,0.354,0.2,0.704,0.354,1.033  c0.066,0.143,0.254,0.227,0.389,0.337c0.031-0.021,0.062-0.04,0.093-0.06c-0.024-0.23-0.037-0.463-0.073-0.691  c-0.08-0.557-0.213-1.11-0.252-1.672c-0.066-0.972,0.23-1.883,0.52-2.799c0.21-0.662,0.33-1.353,0.473-2.033  c0.021-0.091-0.019-0.232-0.083-0.293C13.759,40.214,13.573,40.104,13.376,39.964z M57.461,31.822  c0.04,0.014,0.077,0.028,0.114,0.043c0.521-0.662,1.054-1.313,1.556-1.988c0.675-0.906,1.471-1.584,2.683-1.565  c0.075,0.002,0.15-0.035,0.229-0.054c-0.002-0.027-0.006-0.056-0.01-0.084c-0.313-0.038-0.628-0.084-0.944-0.113  c-1.16-0.107-2.229,0.411-3.357,0.5C57.642,29.659,57.552,30.74,57.461,31.822z M13.679,38.603  c-0.016,0.023-0.031,0.046-0.049,0.068c0.25,0.181,0.48,0.391,0.748,0.535c0.724,0.392,1.452,0.773,2.195,1.125  c1.772,0.837,3.61,1.494,5.505,1.992c0.212,0.057,0.214,0.055,0.278-0.15c-0.079-0.02-0.16-0.043-0.239-0.055  c-1.882-0.279-3.571-1.009-5.1-2.138c-0.728-0.54-1.454-1.08-2.208-1.582c-0.395-0.264-0.845-0.444-1.27-0.661  c-0.023,0.032-0.046,0.065-0.069,0.098c0.35,0.367,0.701,0.733,1.114,1.167C14.231,38.847,13.956,38.725,13.679,38.603z   M60.387,42.269c-0.205,0.414-0.223,0.576-0.094,1.078c0.374,1.487,0.46,2.986,0.199,4.498c-0.077,0.427-0.182,0.848-0.273,1.272  c0.025,0.015,0.047,0.03,0.072,0.046c0.152-0.186,0.344-0.35,0.45-0.558c0.142-0.28,0.248-0.589,0.314-0.897  c0.233-1.088,0.178-2.193,0.088-3.29c-0.045-0.546-0.202-1.087-0.354-1.618C60.736,42.616,60.547,42.473,60.387,42.269z   M64.661,41.868c0.079,1.359,0.484,2.615,1.077,3.81c0.278,0.56,0.591,1.106,0.947,1.62c0.299,0.431,0.81,0.579,1.192,0.433  c-0.636-0.641-1.113-1.382-1.491-2.185c-0.387-0.82-0.744-1.65-1.125-2.473C65.073,42.667,64.862,42.271,64.661,41.868z   M57.039,79.78c0.601,0.1,0.965,0.494,1.308,0.934c0.39,0.498,0.198,1.027,0.148,1.568c0.162-0.189,0.307-0.385,0.437-0.59  c0.099-0.156,0.201-0.213,0.38-0.117c0.264,0.145,0.537,0.273,0.819,0.418c-0.082-0.182-0.168-0.352-0.238-0.527  c-0.174-0.436-0.119-0.52,0.349-0.621c0.142-0.033,0.279-0.074,0.421-0.111c-0.004-0.025-0.01-0.051-0.013-0.076  c-0.293-0.023-0.583-0.072-0.876-0.062c-0.491,0.016-0.871-0.199-1.215-0.514c-0.047-0.043-0.091-0.084-0.137-0.125  c-0.104-0.096-0.213-0.191-0.32-0.287c-0.111-0.119-0.257-0.201-0.391-0.301c-0.15-0.111-0.391-0.221-0.41-0.357  c-0.021-0.15,0.164-0.33,0.27-0.516c-0.125-0.053-0.244-0.1-0.383-0.154c0.079-0.176,0.154-0.34,0.253-0.557  c-0.278,0.064-0.503,0.117-0.77,0.18C57.167,78.487,56.996,79.134,57.039,79.78z M63.84,51.948c0.116-0.035,0.177-0.047,0.23-0.072  c0.073-0.037,0.146-0.08,0.211-0.129c0.59-0.432,0.888-1.042,1.049-1.729c0.336-1.433-0.103-2.772-0.518-4.111  c-0.023-0.078-0.164-0.121-0.248-0.18c-0.022,0.093-0.076,0.191-0.061,0.279c0.098,0.649,0.271,1.293,0.307,1.945  C64.887,49.351,64.537,50.665,63.84,51.948z M57.234,36.632c0.001,0.018,0.006,0.057,0.015,0.096  c0.315,1.652,0.382,3.312,0.101,4.974c-0.234,1.388-0.542,2.763-0.779,4.152c-0.148,0.874-0.158,1.757,0.069,2.632  c0.13-0.652,0.258-1.305,0.333-1.963c0.193-1.676,0.385-3.353,0.537-5.033c0.121-1.363,0.185-2.73,0.272-4.096  c0.006-0.091,0.021-0.215-0.026-0.269C57.594,36.945,57.405,36.79,57.234,36.632z M61.509,31.196  c0.005-0.026,0.01-0.052,0.013-0.079c-0.141-0.05-0.281-0.107-0.424-0.151c-0.287-0.088-0.568-0.189-0.857-0.248  c-0.229-0.046-0.471-0.068-0.7-0.042c-0.752,0.09-1.096,0.697-1.485,1.236c-0.04,0.057-0.026,0.184,0.007,0.259  c0.075,0.167,0.173,0.329,0.274,0.481c0.04,0.059,0.138,0.138,0.186,0.125c0.5-0.135,1.041-0.1,1.412-0.625  C60.296,31.635,60.795,31.208,61.509,31.196z M66.544,54.792c0.49-0.266,0.654-0.674,0.762-1.104c0.245-0.98,0.277-1.977,0.1-2.969  c-0.1-0.551-0.279-1.091-0.455-1.626c-0.094-0.285-0.2-0.304-0.425-0.185C66.965,50.847,66.93,52.78,66.544,54.792z M53.622,30.498  c0.562,0.593,1.084,1.083,1.924,1.046c0.59-0.027,0.801-0.191,0.809-0.788c0.007-0.45,0.001-0.9,0.001-1.394  C55.445,29.741,54.559,30.109,53.622,30.498z M50.859,32.435c-0.048,0.117-0.124,0.23-0.139,0.352  c-0.068,0.611-0.173,1.226-0.164,1.838c0.022,1.343,0.306,2.678,0.134,4.028C51.384,36.605,51.469,34.539,50.859,32.435z   M53.919,40.892c-0.801,1.636-0.945,3.287-0.433,4.995c0.043-0.085,0.062-0.175,0.079-0.263c0.211-1.194,0.391-2.395,0.656-3.575  C54.326,41.589,54.253,41.257,53.919,40.892z M58.709,37.128c-0.019,0.004-0.037,0.009-0.057,0.014  c0.095,0.746,0.224,1.492,0.271,2.242c0.046,0.769,0.046,1.545-0.005,2.314c-0.051,0.758-0.156,1.516-0.3,2.262  c-0.143,0.742-0.361,1.469-0.566,2.275c0.587-0.855,0.911-1.736,1.09-2.674c0.271-1.395,0.188-2.787-0.031-4.178  C58.99,38.629,58.843,37.879,58.709,37.128z M23.704,59.487c0-0.225,0.003-0.447,0-0.674c-0.018-1.57-0.047-3.143-0.052-4.715  c-0.003-0.43,0-0.449-0.487-0.4C22.931,55.659,23.094,57.585,23.704,59.487z M60.493,52.962c0.018-0.02,0.035-0.041,0.054-0.061  c-0.251-0.631-0.517-1.252-0.741-1.891c-0.427-1.215-0.665-2.459-0.423-3.754c0.019-0.098-0.041-0.211-0.063-0.316  c-0.099,0.07-0.257,0.125-0.282,0.217c-0.096,0.324-0.194,0.658-0.198,0.991c-0.019,1.507,0.49,2.882,1.157,4.206  C60.111,52.583,60.324,52.761,60.493,52.962z M53.363,46.542c-0.81,1.288-1.581,2.514-2.353,3.74  c0.029,0.035,0.057,0.074,0.085,0.11c0.22-0.083,0.466-0.13,0.657-0.26c0.197-0.133,0.365-0.33,0.512-0.524  C52.923,48.728,53.25,47.722,53.363,46.542z M51.907,38.358c-0.035-0.012-0.072-0.023-0.106-0.037  c-0.022,0.02-0.063,0.036-0.064,0.057c-0.054,0.474-0.338,0.826-0.598,1.197c-0.227,0.326-0.468,0.658-0.614,1.023  c-0.281,0.703-0.248,1.417,0.072,2.104c0.031,0.006,0.064,0.012,0.098,0.017C51.099,41.265,51.505,39.812,51.907,38.358z   M14.811,33.623c-0.2,0.11-0.451,0.179-0.589,0.343c-0.246,0.293-0.437,0.637-0.627,0.973c-0.061,0.11-0.102,0.354-0.058,0.381  c0.145,0.087,0.343,0.16,0.501,0.135c0.494-0.077,1.143-0.865,1.158-1.354C15.205,33.816,15.085,33.675,14.811,33.623z   M62.337,54.767c0.099-0.789,0.134-1.5,0.291-2.184c0.156-0.682,0.435-1.334,0.653-1.979c-0.182-0.005-0.612,0.436-0.917,1.023  C61.841,52.642,61.822,53.659,62.337,54.767z M65.48,52.509c-0.077,0.045-0.143,0.094-0.216,0.125  c-0.401,0.174-0.529,0.463-0.521,0.906c0.013,0.51-0.054,1.027-0.154,1.529c-0.104,0.512-0.291,1.006-0.442,1.508  C64.811,56.069,65.513,53.94,65.48,52.509z M17.128,44.92c0.676-0.642,0.598-2.015-0.165-2.547c-0.06-0.042-0.275,0.004-0.288,0.047  c-0.066,0.228-0.167,0.487-0.115,0.698C16.714,43.73,16.937,44.325,17.128,44.92z M56.027,43.687c-0.656,2.27-0.693,4.352,0.059,5.5  c0.008-0.018,0.022-0.035,0.021-0.049c-0.259-1.735-0.252-3.466,0.048-5.195C56.171,43.866,56.073,43.772,56.027,43.687z   M43.899,63.601c0.168-0.074,0.49-0.213,0.814-0.354c-0.109-0.301-0.217-0.604-0.332-0.902c-0.021-0.055-0.064-0.121-0.115-0.143  c-0.111-0.045-0.281-0.131-0.343-0.084c-0.249,0.184-0.528,0.377-0.683,0.635C42.989,63.171,43.259,63.599,43.899,63.601z   M41.173,58.733c-0.16,0.641-0.324,1.234-0.461,1.832c-0.065,0.295,0.129,0.498,0.436,0.484c0.346-0.016,0.508-0.256,0.599-0.541  C41.963,59.815,41.742,59.243,41.173,58.733z M45.97,53.839c-0.595,0.535-0.994,1.125-1.291,1.787  c-0.072,0.158-0.029,0.266,0.156,0.322c0.584,0.176,1.062-0.092,1.127-0.693C46.009,54.81,45.97,54.358,45.97,53.839z   M51.111,67.802c-0.3,0.295-0.573,0.555-0.835,0.824c-0.1,0.102-0.195,0.217-0.256,0.344c-0.161,0.33-0.031,0.594,0.35,0.746  c0.406,0.164,0.736,0.059,0.832-0.291C51.345,68.884,51.229,68.354,51.111,67.802z M63.122,59.62  c-0.179,0.043-0.421-0.031-0.522,0.273c-0.132,0.396-0.314,0.773-0.464,1.164c-0.038,0.094-0.075,0.258-0.032,0.295  c0.079,0.07,0.239,0.117,0.331,0.082c0.193-0.076,0.414-0.17,0.538-0.326c0.224-0.285,0.423-0.604,0.563-0.938  C63.718,59.733,63.616,59.614,63.122,59.62z M45.438,64.554c-0.047,0.006-0.092,0.012-0.133,0.018  c-0.146,0.35-0.297,0.695-0.432,1.045c-0.1,0.26-0.199,0.521-0.261,0.789c-0.08,0.34,0.167,0.551,0.51,0.473  c0.283-0.064,0.419-0.283,0.458-0.527c0.059-0.369,0.088-0.752,0.069-1.125C45.64,64.997,45.513,64.778,45.438,64.554z   M46.521,55.724c-0.127,0.43-0.265,0.836-0.357,1.254c-0.047,0.203-0.045,0.436,0.001,0.639c0.063,0.305,0.319,0.375,0.521,0.145  c0.338-0.391,0.541-0.848,0.516-1.375C47.181,56.009,46.945,55.782,46.521,55.724z M51.016,53.026  c-0.121,0.494-0.257,0.996-0.364,1.504c-0.028,0.133,0.001,0.293,0.051,0.424c0.097,0.264,0.312,0.311,0.497,0.098  c0.351-0.4,0.557-0.865,0.519-1.408C51.688,53.276,51.45,53.06,51.016,53.026z M55.831,66.606c-0.383,0.408-0.736,0.766-1.063,1.145  c-0.171,0.197-0.058,0.598,0.189,0.795c0.212,0.168,0.465,0.162,0.661-0.057c0.111-0.125,0.202-0.289,0.256-0.449  C56.022,67.587,55.953,67.128,55.831,66.606z M54.179,62.136c-0.27,0.203-0.503,0.346-0.689,0.527  c-0.17,0.168-0.332,0.369-0.426,0.586c-0.048,0.109,0.021,0.324,0.112,0.428c0.175,0.207,0.643,0.264,0.86,0.143  c0.277-0.158,0.354-0.43,0.325-0.717C54.329,62.798,54.249,62.501,54.179,62.136z M37.477,73.267  c-0.088,0.051-0.123,0.068-0.154,0.092c-0.181,0.137-0.379,0.254-0.534,0.416c-0.169,0.172-0.336,0.369-0.423,0.588  c-0.047,0.117,0.034,0.342,0.136,0.445c0.191,0.205,0.652,0.236,0.865,0.102c0.266-0.174,0.33-0.443,0.293-0.73  C37.622,73.886,37.544,73.597,37.477,73.267z M48.05,53.044c-0.037-0.027-0.08-0.055-0.119-0.078  c-0.371,0.373-0.762,0.73-1.104,1.129c-0.211,0.246-0.161,0.561,0.038,0.717c0.215,0.172,0.581,0.146,0.781-0.084  c0.116-0.135,0.226-0.309,0.257-0.479C47.979,53.853,48.006,53.444,48.05,53.044z M46.634,69.519  c-0.179,0.256-0.352,0.508-0.534,0.754c-0.097,0.131-0.227,0.24-0.313,0.377c-0.137,0.217-0.145,0.453,0.016,0.664  c0.168,0.215,0.406,0.266,0.665,0.213c0.255-0.051,0.334-0.246,0.37-0.473C46.919,70.515,46.835,70.001,46.634,69.519z   M57.961,49.492c0,0.311-0.042,0.618,0.008,0.909c0.091,0.527,0.307,1.008,0.776,1.32c0.264,0.18,0.415,0.107,0.476-0.205  c0.07-0.358-0.093-0.646-0.308-0.905C58.615,50.241,58.297,49.887,57.961,49.492z M40.923,55.81c-0.15,0.234-0.27,0.42-0.391,0.605  c-0.229,0.352-0.475,0.697-0.688,1.061c-0.119,0.203-0.152,0.436,0.075,0.609c0.175,0.133,0.512,0.094,0.681-0.08  c0.07-0.072,0.142-0.158,0.174-0.252C41.003,57.134,40.977,56.495,40.923,55.81z M29.166,59.22c-0.03-0.018-0.061-0.033-0.091-0.051  c-0.455,0.328-0.908,0.664-1.182,1.168c-0.076,0.143-0.061,0.408,0.028,0.541c0.077,0.115,0.317,0.176,0.482,0.172  c0.351-0.014,0.528-0.285,0.594-0.584C29.085,60.056,29.113,59.634,29.166,59.22z M16.278,33.149  c0.042,0.733,0.434,1.256,0.892,1.731c0.099,0.101,0.36,0.187,0.442,0.129c0.116-0.085,0.146-0.301,0.195-0.466  c0.016-0.05-0.024-0.119-0.047-0.176c-0.252-0.628-0.789-0.944-1.349-1.236C16.385,33.117,16.337,33.142,16.278,33.149z   M52.169,55.245c-0.554,0.35-1.045,0.764-1.451,1.271c-0.042,0.055,0.019,0.293,0.078,0.312c0.194,0.07,0.42,0.135,0.617,0.098  C52.03,56.813,52.461,55.854,52.169,55.245z M49.522,57.251c-0.088-0.012-0.119-0.025-0.145-0.018  c-0.591,0.203-1.185,0.4-1.771,0.619c-0.073,0.029-0.14,0.15-0.159,0.242c-0.076,0.352,0.248,0.578,0.689,0.461  C48.814,58.376,49.229,57.905,49.522,57.251z M53.122,70.253c-0.021,0-0.043,0.002-0.066,0.002  c-0.229,0.348-0.457,0.695-0.683,1.043c-0.136,0.207-0.282,0.406-0.396,0.623c-0.105,0.201-0.143,0.414,0.068,0.586  c0.182,0.146,0.499,0.137,0.677-0.057c0.118-0.131,0.242-0.303,0.262-0.471C53.054,71.407,53.08,70.829,53.122,70.253z   M59.594,54.952c-0.035-0.023-0.068-0.045-0.104-0.068c-0.432,0.395-0.875,0.771-1.292,1.18c-0.271,0.268-0.198,0.449,0.186,0.537  c0.363,0.084,0.688,0.002,0.909-0.301C59.586,55.897,59.737,55.45,59.594,54.952z M26.325,54.769  c-0.493,0.445-0.942,0.832-1.367,1.246c-0.249,0.24-0.18,0.418,0.164,0.516c0.369,0.104,0.752-0.004,0.963-0.314  C26.362,55.81,26.524,55.37,26.325,54.769z M39.1,68.456c-0.454,0.402-0.882,0.766-1.291,1.152  c-0.099,0.092-0.212,0.312-0.172,0.375c0.077,0.115,0.259,0.201,0.405,0.223C38.813,70.312,39.464,69.315,39.1,68.456z   M24.241,32.922c0.68-0.028,1.182-0.282,1.572-0.745c0.068-0.078,0.087-0.197,0.129-0.297c-0.114-0.024-0.226-0.059-0.341-0.07  c-0.08-0.008-0.163,0.014-0.245,0.024c-0.572,0.078-1.088,0.299-1.549,0.648c-0.188,0.144-0.17,0.274,0.051,0.354  C24.001,32.89,24.155,32.904,24.241,32.922z M50.56,71.03c-0.016,0.656-0.022,1.238-0.043,1.822c-0.01,0.258,0.049,0.461,0.33,0.504  c0.281,0.045,0.411-0.154,0.488-0.379C51.536,72.413,51.179,71.442,50.56,71.03z M27.926,33.207  c-0.02-0.029-0.041-0.059-0.063-0.089c-0.941,0.063-1.826,0.336-2.67,0.758c-0.164,0.082-0.125,0.232,0.018,0.271  c0.22,0.06,0.461,0.1,0.684,0.075c0.697-0.076,1.236-0.536,1.85-0.814C27.821,33.372,27.866,33.275,27.926,33.207z M43.262,59.745  c-0.265,0.301-0.538,0.57-0.758,0.877c-0.085,0.123-0.116,0.363-0.056,0.496c0.093,0.213,0.355,0.246,0.534,0.131  c0.321-0.209,0.62-0.455,0.896-0.721c0.054-0.051,0.002-0.293-0.074-0.377C43.661,59.995,43.464,59.892,43.262,59.745z   M48.32,68.716c-0.108,0.529-0.21,1.031-0.312,1.535c-0.014,0.061-0.019,0.123-0.023,0.184c-0.031,0.293,0.115,0.424,0.403,0.352  s0.446-0.285,0.54-0.549C49.109,69.724,48.864,69.095,48.32,68.716z M21.687,32.872c0.733-0.467,1.172-1.123,1.383-1.934  c0.037-0.148-0.053-0.23-0.193-0.154c-0.225,0.12-0.463,0.237-0.646,0.407C21.742,31.64,21.69,32.247,21.687,32.872z M35.827,66.251  c-0.02-0.062-0.031-0.227-0.109-0.346c-0.055-0.084-0.214-0.164-0.307-0.146c-0.386,0.07-0.84,0.59-0.891,0.973  c-0.045,0.328,0.158,0.537,0.486,0.502C35.466,67.181,35.815,66.804,35.827,66.251z M61.509,62.864  c-0.017-0.061-0.039-0.219-0.112-0.346c-0.04-0.07-0.175-0.139-0.255-0.127c-0.41,0.062-0.889,0.592-0.929,1.004  c-0.035,0.322,0.187,0.527,0.508,0.473C61.201,63.788,61.513,63.429,61.509,62.864z M38.792,75.11  c-0.047-0.018-0.092-0.037-0.139-0.055c-0.256,0.246-0.537,0.471-0.761,0.742c-0.128,0.156-0.2,0.383-0.229,0.588  c-0.045,0.293,0.145,0.457,0.441,0.451c0.309-0.008,0.628-0.254,0.676-0.611C38.828,75.858,38.792,75.481,38.792,75.11z   M54.121,59.231c-0.55,0.299-0.909,0.66-1.058,1.027c-0.131,0.312-0.088,0.584,0.104,0.699c0.217,0.133,0.551,0.068,0.747-0.172  c0.097-0.113,0.197-0.26,0.21-0.4C54.148,60.017,54.124,59.644,54.121,59.231z M46.354,58.604c-0.677,0.107-1.264,0.195-1.849,0.299  c-0.069,0.014-0.175,0.121-0.175,0.186c-0.004,0.508,0.525,0.832,0.979,0.602C45.756,59.462,46.026,59.063,46.354,58.604z   M37.668,62.61c-0.462,0.5-0.884,0.943-1.291,1.4c-0.042,0.045-0.045,0.188-0.005,0.232c0.359,0.408,0.981,0.301,1.182-0.203  C37.729,63.601,37.706,63.144,37.668,62.61z M31.238,55.79c-0.472,0.502-0.884,0.934-1.282,1.375  c-0.053,0.057-0.077,0.213-0.039,0.266c0.268,0.369,0.941,0.301,1.146-0.104C31.296,56.864,31.245,56.372,31.238,55.79z   M53.37,57.538c-0.035-0.027-0.07-0.053-0.105-0.078c-0.337,0.307-0.688,0.598-1.004,0.924c-0.154,0.156-0.233,0.385-0.071,0.59  c0.167,0.209,0.405,0.205,0.619,0.092c0.163-0.092,0.358-0.211,0.431-0.367C53.41,58.335,53.493,57.94,53.37,57.538z M60.685,57.108  c-0.365,0.322-0.706,0.594-1.012,0.902c-0.17,0.168-0.269,0.402-0.103,0.641c0.126,0.184,0.426,0.197,0.704,0.053  C60.71,58.478,60.937,57.737,60.685,57.108z M46.718,61.774c-0.061-0.027-0.119-0.057-0.18-0.086  c-0.371,0.404-0.754,0.799-1.104,1.223c-0.082,0.096-0.111,0.336-0.049,0.418c0.08,0.105,0.283,0.164,0.43,0.16  c0.287-0.008,0.535-0.17,0.619-0.441C46.562,62.634,46.626,62.2,46.718,61.774z M39.116,70.853  c-0.439,0.195-0.813,0.486-1.072,0.887c-0.094,0.145-0.123,0.408-0.053,0.557c0.102,0.225,0.361,0.189,0.575,0.119  C39.089,72.243,39.394,71.394,39.116,70.853z M26.339,57.202c-0.402,0.152-0.863,0.516-1.089,0.848  c-0.124,0.188-0.226,0.391-0.063,0.594c0.166,0.207,0.396,0.182,0.621,0.098C26.307,58.55,26.574,57.79,26.339,57.202z   M44.06,65.325c-0.369,0.326-0.676,0.584-0.961,0.861c-0.115,0.109-0.207,0.26-0.264,0.408c-0.084,0.223-0.02,0.438,0.185,0.566  c0.198,0.127,0.376,0.025,0.515-0.131c0.355-0.396,0.555-0.859,0.581-1.391C44.119,65.56,44.087,65.476,44.06,65.325z   M16.235,30.715c-0.482,0.301-0.716,0.748-0.724,1.302c-0.003,0.24,0.091,0.48,0.142,0.722c0.197-0.169,0.432-0.31,0.58-0.514  C16.571,31.758,16.56,31.113,16.235,30.715z M48.935,60.696c-0.032-0.008-0.064-0.016-0.096-0.023  c-0.216,0.527-0.446,1.049-0.637,1.588c-0.045,0.131,0.003,0.367,0.1,0.457c0.166,0.154,0.377,0.049,0.514-0.1  c0.115-0.125,0.225-0.279,0.274-0.438C49.253,61.665,49.122,61.177,48.935,60.696z M42.532,66.806  c-0.031-0.008-0.064-0.014-0.098-0.023c-0.293,0.406-0.593,0.807-0.88,1.217c-0.04,0.057-0.051,0.17-0.022,0.232  c0.135,0.275,0.396,0.312,0.66,0.295c0.252-0.021,0.496-0.125,0.483-0.418C42.657,67.671,42.584,67.239,42.532,66.806z   M49.591,63.687c-0.199,0.643-0.143,1.146,0.205,1.594c0.159,0.203,0.338,0.457,0.658,0.32c0.199-0.084,0.24-0.494,0.041-0.785  C50.235,64.442,49.927,64.103,49.591,63.687z M61.375,51.874c-0.043-0.813-0.086-1.625-0.131-2.455  c-0.165,0.078-0.358,0.146-0.526,0.254c-0.083,0.052-0.17,0.176-0.165,0.264C60.583,50.673,60.851,51.321,61.375,51.874z   M51.852,61.626c-0.032-0.02-0.067-0.039-0.101-0.057c-0.316,0.367-0.641,0.729-0.944,1.105c-0.153,0.189-0.204,0.41,0.01,0.607  c0.181,0.168,0.469,0.164,0.665-0.037c0.111-0.113,0.219-0.266,0.244-0.416C51.792,62.433,51.812,62.028,51.852,61.626z   M49.806,54.562c-0.029-0.008-0.06-0.014-0.088-0.02c-0.296,0.416-0.605,0.824-0.879,1.256c-0.068,0.111-0.084,0.373-0.014,0.438  c0.114,0.098,0.336,0.145,0.49,0.111c0.281-0.062,0.459-0.297,0.48-0.576C49.829,55.368,49.806,54.964,49.806,54.562z   M36.752,67.835c-0.03-0.006-0.06-0.012-0.091-0.02c-0.296,0.418-0.604,0.83-0.881,1.262c-0.066,0.105-0.084,0.334-0.016,0.416  c0.086,0.1,0.291,0.162,0.429,0.143c0.321-0.043,0.518-0.287,0.55-0.59C36.784,68.647,36.752,68.239,36.752,67.835z M33.354,57.8  c-0.029-0.004-0.057-0.01-0.084-0.014c-0.291,0.408-0.588,0.814-0.871,1.227c-0.109,0.156-0.196,0.371-0.002,0.492  c0.141,0.086,0.4,0.129,0.523,0.055c0.184-0.111,0.383-0.328,0.414-0.525C33.399,58.632,33.354,58.212,33.354,57.8z M31.847,58.136  c-0.031-0.014-0.064-0.029-0.096-0.043c-0.451,0.289-0.885,0.6-1.147,1.084c-0.059,0.109-0.059,0.334,0.015,0.41  c0.09,0.096,0.332,0.174,0.426,0.117c0.218-0.129,0.454-0.312,0.553-0.533C31.741,58.853,31.769,58.483,31.847,58.136z   M54.923,32.206c-0.011,0.396,0.007,0.742,0.283,1.006c0.248,0.234,0.609,0.221,0.742-0.045c0.133-0.27,0.213-0.568,0.329-0.887  C55.803,32.255,55.386,32.231,54.923,32.206z M39.758,64.532c-0.337,0.477-0.65,0.891-0.929,1.328  c-0.066,0.105-0.08,0.334-0.012,0.416c0.086,0.1,0.323,0.186,0.423,0.137c0.201-0.105,0.433-0.273,0.514-0.469  C39.927,65.513,39.876,65.052,39.758,64.532z M38.292,64.948c-0.058-0.031-0.113-0.061-0.17-0.092  c-0.355,0.365-0.725,0.715-1.053,1.102c-0.078,0.09-0.078,0.357-0.002,0.434c0.098,0.098,0.342,0.16,0.458,0.105  c0.198-0.1,0.415-0.271,0.498-0.465C38.165,65.692,38.207,65.312,38.292,64.948z M63.92,61.517  c-0.492,0.318-0.912,0.631-1.175,1.094c-0.062,0.109-0.067,0.324,0.001,0.416c0.072,0.094,0.27,0.146,0.4,0.131  c0.138-0.02,0.288-0.117,0.39-0.221C63.897,62.556,63.924,62.073,63.92,61.517z M10.412,45.64c0.21-0.018,0.362,0.014,0.454-0.046  c0.315-0.2,0.625-0.417,0.906-0.66c0.143-0.122,0.34-0.294,0.159-0.525c-0.175-0.222-0.407-0.156-0.622-0.064  c-0.109,0.048-0.236,0.114-0.295,0.211C10.813,44.882,10.638,45.226,10.412,45.64z M11.759,54.54  c0.56-0.107,0.811-0.488,0.996-0.928c0.254-0.602,0.234-0.752-0.094-1.037C12.219,52.993,11.806,53.864,11.759,54.54z   M44.701,67.442c-0.028-0.023-0.056-0.045-0.083-0.07c-0.319,0.266-0.648,0.518-0.951,0.797c-0.27,0.246-0.263,0.434-0.019,0.639  c0.283,0.236,0.526,0.213,0.724-0.088C44.628,68.333,44.737,67.905,44.701,67.442z M54.901,65.142  c-0.236,0.137-0.453,0.234-0.639,0.375c-0.165,0.127-0.332,0.281-0.43,0.463c-0.066,0.119-0.07,0.35,0.004,0.445  c0.09,0.113,0.31,0.203,0.447,0.174c0.167-0.033,0.351-0.168,0.451-0.314C54.968,65.95,54.98,65.562,54.901,65.142z M56.034,52.448  c-0.399,0.34-0.736,0.619-1.066,0.902c-0.197,0.172-0.226,0.359-0.029,0.557c0.249,0.25,0.51,0.283,0.698,0.053  C55.967,53.556,56.081,53.079,56.034,52.448z M54.146,32.101c-0.025-0.047-0.053-0.094-0.077-0.141  c-0.304-0.231-0.604-0.462-0.919-0.701c-0.248,0.382-0.354,0.74-0.283,1.134c0.064,0.36,0.31,0.462,0.604,0.249  C53.704,32.475,53.922,32.282,54.146,32.101z M55.394,49.772c-0.202,0.462-0.389,0.855-0.546,1.262  c-0.113,0.293-0.031,0.439,0.239,0.523c0.325,0.102,0.59,0,0.633-0.289C55.797,50.773,55.741,50.294,55.394,49.772z M11.987,38.66  c-0.435,0.512-0.569,1.04-0.395,1.62c0.048,0.162,0.199,0.301,0.326,0.424c0.031,0.027,0.23-0.046,0.242-0.098  C12.302,39.962,12.267,39.329,11.987,38.66z M66.489,56.251c-0.375,0.344-0.805,0.709-1.2,1.111  c-0.21,0.215-0.182,0.506-0.006,0.633c0.174,0.127,0.454,0.061,0.611-0.18C66.229,57.315,66.394,56.749,66.489,56.251z   M52.829,67.671c-0.098,0.248-0.18,0.467-0.272,0.684c-0.101,0.236-0.222,0.465-0.305,0.707c-0.028,0.088-0.011,0.242,0.05,0.305  c0.271,0.287,0.746,0.141,0.839-0.246C53.268,68.593,53.103,68.132,52.829,67.671z M44.366,56.448  c-0.251,0.439-0.516,0.871-0.742,1.32c-0.047,0.096,0.01,0.307,0.092,0.379c0.084,0.074,0.287,0.102,0.391,0.051  c0.145-0.068,0.283-0.209,0.355-0.354C44.687,57.397,44.664,56.937,44.366,56.448z M38.567,59.761  c-0.072,0.496-0.164,0.98-0.193,1.467c-0.01,0.123,0.148,0.318,0.275,0.369c0.203,0.08,0.366-0.064,0.461-0.262  C39.283,60.979,39.158,60.056,38.567,59.761z M52.593,64.673c-0.373,0.439-0.686,0.793-0.973,1.166  c-0.068,0.088-0.111,0.281-0.059,0.359c0.062,0.098,0.229,0.17,0.355,0.178c0.297,0.014,0.509-0.152,0.633-0.414  C52.736,65.569,52.663,65.167,52.593,64.673z M46.991,66.591c-0.172,0.59-0.342,1.182-0.509,1.771  c-0.016,0.047-0.012,0.104-0.004,0.152c0.034,0.252,0.229,0.338,0.414,0.172c0.096-0.086,0.177-0.203,0.228-0.324  C47.362,67.769,47.337,67.181,46.991,66.591z M39.616,62.104c-0.26,0.293-0.531,0.588-0.796,0.887  c-0.147,0.172-0.28,0.375-0.079,0.57c0.193,0.188,0.447,0.141,0.605-0.045c0.209-0.246,0.383-0.527,0.541-0.812  C40.007,62.491,39.954,62.288,39.616,62.104z M47.941,63.966c-0.327,0.486-0.642,0.924-0.919,1.381  c-0.053,0.088-0.014,0.307,0.064,0.381c0.093,0.088,0.281,0.139,0.408,0.111c0.279-0.066,0.423-0.305,0.441-0.572  C47.964,64.866,47.941,64.458,47.941,63.966z M32.562,56.856c0.391-0.004,1.048-0.912,0.904-1.277  c-0.031-0.08-0.26-0.172-0.293-0.143c-0.318,0.289-0.643,0.582-0.908,0.918C32.08,56.587,32.267,56.858,32.562,56.856z   M40.882,66.276c-0.036-0.014-0.074-0.027-0.112-0.041c-0.214,0.459-0.442,0.91-0.632,1.381c-0.045,0.111,0.012,0.369,0.082,0.395  c0.127,0.047,0.314-0.002,0.447-0.068c0.095-0.049,0.164-0.18,0.215-0.289C41.091,67.196,41.046,66.733,40.882,66.276z   M53.856,51.335c-0.276,0.33-0.512,0.611-0.745,0.896c-0.083,0.102-0.192,0.207-0.22,0.326c-0.032,0.143-0.04,0.355,0.041,0.439  c0.088,0.088,0.305,0.104,0.442,0.068c0.12-0.031,0.242-0.164,0.3-0.283C53.894,52.339,53.909,51.864,53.856,51.335z M26.662,58.845  c-0.032-0.021-0.064-0.041-0.096-0.059c-0.312,0.305-0.634,0.602-0.923,0.926c-0.066,0.074-0.077,0.295-0.018,0.361  c0.096,0.105,0.273,0.191,0.416,0.193c0.287,0.006,0.573-0.275,0.613-0.6C26.688,59.397,26.662,59.118,26.662,58.845z   M56.174,61.419c-0.042-0.027-0.082-0.055-0.125-0.082c-0.315,0.326-0.641,0.639-0.935,0.98c-0.057,0.062-0.031,0.289,0.037,0.348  c0.108,0.094,0.289,0.162,0.431,0.148c0.308-0.027,0.558-0.34,0.589-0.695C56.19,61.886,56.174,61.651,56.174,61.419z M39.498,72.53  c-0.05-0.027-0.101-0.055-0.151-0.084c-0.314,0.322-0.65,0.629-0.938,0.975c-0.155,0.186,0.004,0.449,0.26,0.502  c0.301,0.062,0.643-0.123,0.733-0.465C39.479,73.159,39.47,72.839,39.498,72.53z M20.602,52.835c-0.649,0.33-1.22,0.615-1.782,0.906  c-0.209,0.109-0.414,0.229-0.604,0.365c-0.084,0.061-0.128,0.18-0.224,0.32c0.116,0,0.158,0.008,0.193-0.002  c0.897-0.25,1.681-0.713,2.37-1.336C20.602,53.046,20.587,52.931,20.602,52.835z M19.448,34.39c0.017-0.012,0.035-0.025,0.051-0.037  c-0.154-0.428-0.3-0.858-0.473-1.277c-0.043-0.104-0.18-0.168-0.271-0.252c-0.068,0.109-0.176,0.213-0.19,0.329  c-0.027,0.188-0.04,0.405,0.028,0.571c0.119,0.277,0.296,0.533,0.471,0.781c0.061,0.086,0.188,0.125,0.285,0.185  C19.382,34.59,19.417,34.49,19.448,34.39z M59.119,59.005c-0.044-0.012-0.087-0.025-0.132-0.037  c-0.282,0.311-0.566,0.617-0.841,0.936c-0.127,0.145-0.283,0.312-0.108,0.512c0.171,0.199,0.402,0.172,0.588,0.041  c0.145-0.1,0.301-0.252,0.343-0.412C59.058,59.706,59.073,59.353,59.119,59.005z M20.065,32.013c0.656-0.043,1.209-1.207,0.84-1.768  C20.422,30.46,19.956,31.439,20.065,32.013z M50.688,58.106c-0.208,0.225-0.411,0.438-0.609,0.658  c-0.116,0.129-0.247,0.254-0.327,0.402c-0.055,0.104-0.088,0.277-0.037,0.365c0.053,0.088,0.229,0.158,0.337,0.145  c0.151-0.02,0.313-0.1,0.427-0.205C50.782,59.192,50.878,58.534,50.688,58.106z M36.597,71.493c-0.045-0.016-0.09-0.033-0.133-0.049  c-0.311,0.352-0.633,0.695-0.926,1.061c-0.064,0.082-0.088,0.283-0.033,0.355c0.071,0.092,0.244,0.158,0.365,0.148  c0.308-0.02,0.521-0.225,0.591-0.506C36.544,72.175,36.554,71.829,36.597,71.493z M57.515,33.041  c-0.014-0.003-0.023-0.007-0.038-0.009c0-0.072,0.029-0.161-0.004-0.212c-0.081-0.123-0.179-0.309-0.287-0.32  c-0.161-0.018-0.362,0.05-0.376,0.302c-0.018,0.307-0.082,0.613-0.072,0.918c0.004,0.135,0.138,0.264,0.214,0.398  c0.12-0.094,0.302-0.162,0.35-0.285C57.41,33.585,57.449,33.308,57.515,33.041z M60.346,59.753c-0.035,0.004-0.065,0-0.069,0.01  c-0.173,0.449-0.356,0.893-0.505,1.348c-0.031,0.098,0.038,0.303,0.12,0.34c0.114,0.055,0.312,0.053,0.419-0.014  c0.118-0.066,0.206-0.229,0.249-0.367C60.707,60.597,60.602,60.161,60.346,59.753z M34.597,63.083  c-0.156,0.41-0.31,0.811-0.46,1.213c-0.079,0.209-0.149,0.426,0.114,0.561c0.193,0.098,0.436-0.021,0.56-0.256  C35.036,64.171,34.941,63.481,34.597,63.083z M57.193,63.532c-0.041-0.008-0.085-0.016-0.128-0.025  c-0.287,0.412-0.582,0.82-0.861,1.236c-0.052,0.076-0.096,0.232-0.059,0.275c0.071,0.078,0.205,0.146,0.312,0.145  c0.325,0,0.57-0.186,0.634-0.488C57.167,64.302,57.163,63.913,57.193,63.532z M48.356,59.413c-0.307,0.264-0.582,0.455-0.787,0.705  c-0.141,0.166-0.229,0.41-0.248,0.629c-0.025,0.295,0.183,0.398,0.448,0.256c0.088-0.049,0.171-0.121,0.225-0.207  C48.248,60.397,48.365,59.96,48.356,59.413z M54.505,75.813c0.734,0.676,1.417,1.303,2.084,1.918c0-0.217,0-0.463,0-0.682  c-0.252-0.191-0.766,0.143-0.787-0.445c-0.385-0.209-0.267-0.584-0.274-0.891C55.196,75.745,54.882,75.776,54.505,75.813z   M54.57,72.378c-0.044,0-0.088,0-0.131,0.002c-0.135,0.297-0.311,0.58-0.39,0.891c-0.058,0.229-0.039,0.506,0.037,0.73  c0.08,0.246,0.346,0.252,0.497,0.031c0.077-0.109,0.144-0.264,0.134-0.396C54.688,73.218,54.622,72.798,54.57,72.378z   M36.553,58.925c-0.249,0.15-0.495,0.273-0.71,0.436c-0.143,0.107-0.274,0.254-0.346,0.412c-0.124,0.287,0.094,0.568,0.396,0.498  c0.162-0.035,0.341-0.154,0.436-0.291C36.544,59.669,36.588,59.306,36.553,58.925z M59.934,65.421  c-0.197,0.338-0.409,0.645-0.551,0.977c-0.127,0.297,0.001,0.549,0.232,0.609c0.252,0.064,0.523-0.125,0.573-0.428  C60.256,66.169,60.149,65.79,59.934,65.421z M56.929,49.729c-0.031,0-0.063-0.002-0.096-0.002c-0.082,0.469-0.172,0.934-0.244,1.402  c-0.028,0.195,0.009,0.391,0.256,0.412c0.236,0.021,0.401-0.109,0.437-0.342C57.363,50.661,57.18,50.184,56.929,49.729z   M28.997,34.485c-0.047-0.055-0.095-0.109-0.143-0.166c-0.121,0-0.246-0.021-0.359,0.004c-0.51,0.113-1.016,0.234-1.52,0.369  c-0.094,0.023-0.166,0.119-0.25,0.181c0.09,0.075,0.17,0.175,0.271,0.217c0.086,0.035,0.207,0.03,0.298-0.001  c0.482-0.168,0.957-0.352,1.438-0.527C28.818,34.531,28.909,34.512,28.997,34.485z M52.241,30.476  c-0.279,0.137-0.576,0.252-0.84,0.424c-0.106,0.07-0.213,0.283-0.182,0.39c0.033,0.114,0.252,0.271,0.354,0.249  c0.235-0.05,0.479-0.163,0.668-0.314C52.63,30.911,52.614,30.867,52.241,30.476z M28.495,57.452c-0.342,0.4-0.678,0.77-0.98,1.166  c-0.083,0.107-0.064,0.289-0.092,0.438c0.171,0.01,0.348,0.051,0.51,0.014c0.1-0.021,0.193-0.15,0.256-0.25  C28.437,58.403,28.484,57.94,28.495,57.452z M55.961,58.544c-0.026-0.008-0.053-0.014-0.078-0.021  c-0.267,0.322-0.535,0.643-0.804,0.963c-0.084,0.104-0.188,0.197-0.244,0.314c-0.038,0.088-0.052,0.234-0.005,0.303  c0.054,0.072,0.229,0.143,0.286,0.107c0.193-0.115,0.441-0.244,0.516-0.43C55.791,59.388,55.856,58.958,55.961,58.544z   M12.227,41.952c-0.654,0.101-1.471,0.817-1.573,1.379C11.197,43.392,12.062,42.632,12.227,41.952z M62.303,58.2  c-0.349,0.412-0.683,0.787-0.986,1.186c-0.076,0.098-0.056,0.271-0.077,0.406c0.159,0.016,0.335,0.074,0.481,0.031  c0.119-0.033,0.23-0.172,0.297-0.291C62.252,59.124,62.319,58.675,62.303,58.2z M41.271,71.13c-0.361,0.43-0.697,0.814-1.012,1.219  c-0.064,0.082-0.098,0.295-0.047,0.342c0.087,0.082,0.262,0.125,0.381,0.1c0.125-0.029,0.262-0.131,0.338-0.242  C41.221,72.132,41.285,71.655,41.271,71.13z M54.771,69.769c-0.266,0.379-0.545,0.752-0.793,1.143  c-0.051,0.078-0.045,0.268,0.018,0.326c0.063,0.066,0.23,0.076,0.334,0.043c0.119-0.037,0.241-0.129,0.313-0.23  C54.911,70.677,54.979,70.259,54.771,69.769z M32.746,62.179c-0.033-0.002-0.063-0.004-0.093-0.006  c-0.115,0.48-0.238,0.955-0.334,1.439c-0.023,0.119,0.044,0.258,0.068,0.387c0.133-0.037,0.297-0.037,0.387-0.121  c0.106-0.092,0.186-0.252,0.207-0.395C33.052,63.022,32.896,62.599,32.746,62.179z M29.862,60.935  c-0.025-0.025-0.049-0.051-0.074-0.078c-0.388,0.248-0.778,0.486-1.157,0.748c-0.073,0.051-0.143,0.217-0.111,0.285  c0.04,0.09,0.183,0.197,0.274,0.191c0.176-0.016,0.372-0.064,0.511-0.166C29.632,61.677,29.813,61.335,29.862,60.935z   M32.372,60.226c-0.304,0.291-0.595,0.547-0.859,0.828c-0.086,0.09-0.171,0.271-0.137,0.361c0.041,0.104,0.229,0.227,0.333,0.211  c0.173-0.025,0.38-0.115,0.485-0.246C32.46,61.046,32.437,60.64,32.372,60.226z M50.739,50.632  c-0.026-0.011-0.052-0.025-0.076-0.035c-0.279,0.334-0.578,0.656-0.83,1.012c-0.074,0.104-0.023,0.295-0.029,0.447  c0.162,0.002,0.384,0.072,0.473-0.008c0.168-0.154,0.312-0.375,0.381-0.596C50.733,51.192,50.716,50.907,50.739,50.632z   M53.933,55.716c-0.028-0.008-0.057-0.018-0.086-0.025c-0.24,0.227-0.488,0.443-0.716,0.678c-0.124,0.131-0.229,0.289-0.31,0.453  c-0.043,0.086-0.047,0.256,0.006,0.305c0.074,0.064,0.258,0.105,0.326,0.057c0.188-0.127,0.398-0.281,0.492-0.475  C53.786,56.399,53.841,56.048,53.933,55.716z M28.087,55.302c-0.02-0.012-0.039-0.021-0.061-0.033  c-0.266,0.252-0.54,0.498-0.793,0.764c-0.115,0.123-0.214,0.277-0.273,0.438c-0.096,0.256,0.045,0.404,0.312,0.338  c0.294-0.078,0.478-0.285,0.566-0.561C27.94,55.938,28.006,55.618,28.087,55.302z M54.448,53.558  c-0.024-0.008-0.044-0.016-0.063-0.023c-0.249,0.23-0.503,0.455-0.739,0.695c-0.113,0.115-0.223,0.252-0.281,0.402  c-0.045,0.107-0.055,0.297,0.01,0.361c0.067,0.066,0.293,0.08,0.359,0.018c0.195-0.166,0.393-0.365,0.5-0.594  C54.354,54.153,54.38,53.847,54.448,53.558z M61.308,55.364c-0.019-0.008-0.037-0.016-0.056-0.023  c-0.225,0.209-0.456,0.41-0.669,0.629c-0.131,0.129-0.264,0.268-0.339,0.43c-0.058,0.121-0.028,0.283-0.036,0.428  c0.155-0.006,0.352,0.043,0.452-0.033c0.172-0.129,0.327-0.318,0.408-0.514C61.186,55.989,61.231,55.671,61.308,55.364z   M21.044,34.798c0.057-0.125,0.113-0.207,0.135-0.296c0.104-0.435,0.07-0.86-0.139-1.258c-0.059-0.11-0.162-0.194-0.246-0.291  c-0.051,0.11-0.108,0.218-0.152,0.331c-0.023,0.057-0.032,0.119-0.037,0.181C20.562,33.95,20.634,34.398,21.044,34.798z   M56.891,67.964c-0.073,0.227-0.127,0.426-0.204,0.611c-0.081,0.199-0.188,0.389-0.277,0.586c-0.123,0.275,0.034,0.49,0.335,0.455  c0.229-0.029,0.361-0.16,0.428-0.381C57.323,68.763,57.081,68.384,56.891,67.964z M49.36,66.655  c-0.021-0.014-0.043-0.027-0.064-0.039c-0.285,0.342-0.588,0.674-0.848,1.037c-0.068,0.1-0.06,0.363,0.018,0.428  c0.088,0.076,0.363,0.076,0.433-0.002c0.173-0.195,0.319-0.439,0.398-0.689C49.37,67.161,49.343,66.901,49.36,66.655z   M63.238,55.274c-0.232,0.365-0.479,0.736-0.707,1.115c-0.051,0.084-0.097,0.236-0.055,0.299c0.055,0.084,0.196,0.145,0.303,0.148  c0.346,0.014,0.672-0.408,0.621-0.805C63.365,55.763,63.286,55.497,63.238,55.274z M40.872,69.017  c-0.037-0.02-0.074-0.041-0.109-0.061c-0.295,0.307-0.604,0.602-0.881,0.926c-0.124,0.146-0.293,0.371-0.088,0.539  c0.207,0.166,0.432,0.023,0.597-0.143c0.085-0.086,0.173-0.188,0.21-0.299C40.706,69.663,40.784,69.339,40.872,69.017z   M38.354,67.065c-0.23,0.365-0.467,0.723-0.678,1.092c-0.062,0.107-0.123,0.326-0.076,0.363c0.102,0.086,0.279,0.133,0.411,0.107  c0.303-0.057,0.529-0.441,0.486-0.797C38.467,67.567,38.401,67.308,38.354,67.065z M59.16,52.698  c-0.074,0.322-0.16,0.643-0.213,0.969c-0.034,0.195-0.046,0.412,0.002,0.6c0.025,0.098,0.191,0.193,0.308,0.219  c0.054,0.012,0.188-0.145,0.21-0.24C59.591,53.708,59.502,53.194,59.16,52.698z M55.861,55.597c-0.23,0.361-0.476,0.732-0.705,1.113  c-0.053,0.086-0.106,0.238-0.065,0.299c0.053,0.082,0.193,0.145,0.303,0.152c0.361,0.016,0.678-0.4,0.619-0.826  C55.978,56.073,55.908,55.815,55.861,55.597z M16.25,45.994c0.039,0.013,0.075,0.024,0.114,0.036  c0.128-0.232,0.348-0.457,0.363-0.695c0.02-0.293-0.123-0.598-0.215-0.892c-0.033-0.112-0.119-0.21-0.168-0.292  C15.87,44.767,16.181,45.382,16.25,45.994z M45.662,67.216c-0.087,0.338-0.173,0.609-0.224,0.889  c-0.037,0.229-0.06,0.471-0.028,0.701c0.015,0.105,0.163,0.234,0.276,0.268c0.06,0.02,0.234-0.131,0.252-0.227  C46.036,68.302,45.999,67.771,45.662,67.216z M43.924,69.649c-0.116,0.43-0.243,0.812-0.304,1.205  c-0.021,0.129,0.123,0.285,0.188,0.43c0.137-0.088,0.324-0.145,0.399-0.27C44.423,70.651,44.294,70.03,43.924,69.649z   M57.475,53.132c-0.032,0-0.064,0-0.098,0.002c-0.097,0.383-0.22,0.762-0.28,1.15c-0.022,0.135,0.074,0.377,0.179,0.424  c0.22,0.09,0.362-0.109,0.427-0.295C57.867,53.942,57.762,53.517,57.475,53.132z M35.022,55.411  c-0.217,0.398-0.439,0.777-0.625,1.172c-0.049,0.104,0.016,0.26,0.029,0.391c0.131-0.02,0.288,0.002,0.387-0.064  C35.2,56.649,35.312,55.849,35.022,55.411z M42.214,65.69c0.021-0.002,0.052-0.004,0.082-0.01c0.254-0.061,0.703-0.732,0.634-0.988  c-0.019-0.072-0.188-0.178-0.208-0.164c-0.283,0.213-0.6,0.406-0.811,0.682C41.738,65.433,41.931,65.698,42.214,65.69z   M11.863,57.761c0.538-0.25,0.876-1.633,0.536-2.068C12.071,56.339,11.849,56.993,11.863,57.761z M41.476,62.212  c-0.22,0.395-0.439,0.754-0.614,1.133c-0.055,0.119,0.012,0.295,0.023,0.445c0.147-0.037,0.329-0.037,0.436-0.123  C41.659,63.384,41.738,62.638,41.476,62.212z M34.106,60.237c-0.145,0.377-0.298,0.732-0.414,1.098  c-0.08,0.244,0.135,0.439,0.393,0.381c0.251-0.057,0.343-0.25,0.369-0.475C34.495,60.864,34.372,60.536,34.106,60.237z   M22.978,33.966c-0.028-0.223-0.042-0.396-0.078-0.566c-0.01-0.06-0.068-0.111-0.104-0.166c-0.057,0.039-0.135,0.065-0.164,0.119  c-0.111,0.207-0.235,0.413-0.299,0.637c-0.078,0.277-0.033,0.552,0.207,0.758c0.135,0.117,0.246,0.117,0.291-0.074  C22.892,34.426,22.937,34.174,22.978,33.966z M35.474,58.089c-0.229,0.162-0.479,0.311-0.691,0.498  c-0.197,0.174-0.203,0.479-0.057,0.607c0.154,0.133,0.444,0.096,0.598-0.119c0.137-0.188,0.225-0.412,0.332-0.621  C35.756,58.257,35.688,58.142,35.474,58.089z M39.012,57.927c-0.218,0.232-0.427,0.465-0.647,0.686  c-0.153,0.156-0.293,0.311-0.114,0.527c0.144,0.174,0.447,0.156,0.63-0.029C39.13,58.851,39.196,58.284,39.012,57.927z   M49.438,71.005c-0.176,0.543-0.336,1.004-0.467,1.477c-0.023,0.086,0.055,0.283,0.114,0.297c0.106,0.02,0.248-0.037,0.349-0.102  c0.066-0.043,0.096-0.154,0.123-0.242C49.705,71.978,49.676,71.528,49.438,71.005z M58.736,62.675  c-0.113,0.297-0.214,0.592-0.339,0.879c-0.121,0.277-0.099,0.469,0.099,0.557c0.218,0.094,0.463-0.035,0.562-0.289  C59.191,63.464,59.049,62.958,58.736,62.675z M36.153,55.755c-0.283,0.301-0.561,0.564-0.799,0.863  c-0.123,0.148-0.086,0.352,0.106,0.443c0.214,0.102,0.43,0.055,0.571-0.148C36.276,56.563,36.313,56.187,36.153,55.755z   M38.395,56.165c-0.053-0.021-0.104-0.045-0.156-0.066c-0.239,0.338-0.497,0.664-0.708,1.018c-0.057,0.094,0.029,0.27,0.051,0.406  c0.143-0.025,0.301-0.021,0.42-0.086c0.095-0.055,0.178-0.186,0.205-0.297C38.284,56.819,38.334,56.491,38.395,56.165z   M53.728,28.42c-0.262,0.16-0.525,0.3-0.76,0.476c-0.076,0.059-0.141,0.226-0.113,0.315c0.025,0.089,0.164,0.179,0.27,0.201  c0.281,0.058,0.539-0.022,0.705-0.267C53.987,28.912,53.931,28.68,53.728,28.42z M37.633,59.462c-0.032-0.006-0.065-0.012-0.1-0.018  c-0.224,0.34-0.454,0.674-0.669,1.021c-0.043,0.072-0.062,0.238-0.021,0.273c0.083,0.068,0.227,0.121,0.327,0.098  c0.295-0.068,0.488-0.277,0.506-0.584C37.692,59.991,37.649,59.726,37.633,59.462z M29.597,54.243  c-0.053-0.02-0.107-0.041-0.16-0.061c-0.213,0.367-0.439,0.729-0.627,1.107c-0.045,0.084,0.01,0.293,0.084,0.338  c0.085,0.051,0.272,0.021,0.357-0.045c0.113-0.088,0.217-0.238,0.245-0.375C29.556,54.89,29.565,54.565,29.597,54.243z   M42.799,56.239c-0.034-0.002-0.067-0.002-0.101-0.004c-0.234,0.295-0.48,0.582-0.7,0.889c-0.064,0.092-0.058,0.236-0.083,0.355  c0.143,0.029,0.335,0.129,0.414,0.07c0.187-0.135,0.385-0.322,0.453-0.529C42.859,56.784,42.799,56.501,42.799,56.239z   M43.17,54.175c-0.054-0.023-0.108-0.047-0.163-0.07c-0.242,0.346-0.496,0.684-0.715,1.043c-0.051,0.084-0.02,0.314,0.041,0.348  c0.104,0.053,0.279,0.039,0.393-0.018c0.106-0.055,0.208-0.184,0.24-0.301C43.054,54.849,43.106,54.511,43.17,54.175z   M36.044,61.036c-0.053-0.018-0.105-0.039-0.16-0.059c-0.213,0.377-0.439,0.748-0.631,1.137c-0.04,0.078,0.012,0.283,0.076,0.312  c0.099,0.047,0.274,0.035,0.361-0.029c0.113-0.086,0.22-0.234,0.245-0.371C35.998,61.7,36.011,61.368,36.044,61.036z M64.217,57.118  c-0.037,0.01-0.079,0.02-0.117,0.027c-0.044,0.434-0.103,0.867-0.121,1.303c-0.004,0.104,0.134,0.309,0.193,0.303  c0.122-0.012,0.264-0.107,0.349-0.211c0.058-0.074,0.063-0.223,0.036-0.324C64.456,57.847,64.331,57.485,64.217,57.118z   M15.315,42.509c-0.016-0.58-0.559-1.332-1.021-1.439C14.302,41.719,14.815,42.457,15.315,42.509z M56.859,57.466  c-0.05,0.008-0.096,0.016-0.143,0.021c-0.041,0.439-0.093,0.879-0.113,1.318c-0.004,0.094,0.105,0.273,0.161,0.271  c0.122-0.002,0.271-0.066,0.354-0.158c0.063-0.066,0.08-0.219,0.054-0.32C57.081,58.218,56.966,57.845,56.859,57.466z   M42.113,69.999c-0.044,0.504-0.084,0.914-0.12,1.328c-0.014,0.166-0.027,0.35,0.208,0.367c0.247,0.018,0.354-0.137,0.364-0.359  C42.587,70.868,42.431,70.46,42.113,69.999z M62.168,64.515c-0.448,0.27-0.802,0.598-0.863,1.148  c0.229,0.152,0.438,0.105,0.609-0.047C62.26,65.312,62.205,64.905,62.168,64.515z M58.893,35.011  c-0.12-0.13-0.191-0.275-0.287-0.292c-0.097-0.017-0.28,0.063-0.317,0.147c-0.117,0.271-0.189,0.563-0.264,0.852  c-0.016,0.064,0.022,0.195,0.063,0.209c0.073,0.023,0.209,0.01,0.243-0.04C58.522,35.614,58.692,35.327,58.893,35.011z   M12.023,46.495c-0.518,0.33-0.899,0.863-0.888,1.227C11.688,47.813,12.128,47.22,12.023,46.495z M14.331,31.257  c-0.37,0.363-0.578,0.793-0.661,1.287c-0.005,0.029,0.126,0.121,0.179,0.11C14.276,32.569,14.603,31.684,14.331,31.257z   M65.222,59.157c-0.225,0.283-0.428,0.514-0.596,0.768c-0.053,0.08-0.047,0.25,0.007,0.33c0.033,0.053,0.212,0.051,0.307,0.02  c0.552-0.191,0.625-0.363,0.396-0.885C65.311,59.333,65.283,59.28,65.222,59.157z M30.712,61.771  c-0.229,0.295-0.431,0.539-0.605,0.795c-0.049,0.068-0.055,0.221-0.008,0.279c0.045,0.057,0.186,0.074,0.273,0.057  c0.535-0.111,0.682-0.4,0.464-0.891C30.812,61.956,30.78,61.907,30.712,61.771z M12.536,32.267c-0.353,0.473-0.356,1.32-0.019,1.59  C12.837,33.528,12.857,32.562,12.536,32.267z M15.477,36.094c0.461,0.001,0.679-0.177,0.685-0.469  c0.008-0.224-0.096-0.356-0.324-0.36c-0.253-0.002-0.628,0.351-0.598,0.61C15.251,35.978,15.437,36.06,15.477,36.094z   M57.473,60.665c-0.027,0.477-0.054,0.875-0.073,1.273c-0.008,0.15-0.042,0.338,0.185,0.354c0.225,0.014,0.306-0.154,0.318-0.34  C57.937,61.495,57.812,61.085,57.473,60.665z M36.396,75.663c-0.032,0.477-0.062,0.881-0.087,1.287  c-0.009,0.158-0.006,0.334,0.209,0.342c0.199,0.008,0.282-0.135,0.297-0.318C36.858,76.505,36.74,76.085,36.396,75.663z   M45.856,60.503c-0.463-0.443-0.546-0.438-0.908,0.031c-0.02,0.023-0.047,0.047-0.051,0.074c-0.021,0.127-0.033,0.256-0.046,0.383  c0.148,0.004,0.331,0.061,0.44-0.004C45.498,60.868,45.662,60.677,45.856,60.503z M15.757,50.796  c0.033-0.008,0.069-0.014,0.106-0.021c0.409-0.655,0.214-1.276-0.493-1.446C15.503,49.834,15.63,50.315,15.757,50.796z   M12.506,51.567c0.545-0.256,0.97-1.103,0.819-1.625C12.913,50.312,12.497,51.138,12.506,51.567z M11.661,34.501  c-0.081-0.27-0.141-0.506-0.227-0.731c-0.021-0.054-0.131-0.11-0.191-0.103c-0.05,0.008-0.125,0.105-0.125,0.166  c-0.008,0.232-0.027,0.477,0.028,0.697c0.047,0.188,0.188,0.352,0.288,0.526C11.513,34.87,11.589,34.683,11.661,34.501z   M19.565,35.229c-0.235,0.127-0.473,0.232-0.68,0.377c-0.082,0.057-0.094,0.205-0.139,0.312c0.121,0.022,0.25,0.087,0.359,0.06  c0.205-0.052,0.404-0.139,0.591-0.243c0.095-0.052,0.147-0.174,0.222-0.263C19.817,35.403,19.718,35.335,19.565,35.229z   M24.056,35.687c-0.426-0.084-0.793,0.01-1.119,0.254c-0.079,0.061-0.113,0.186-0.168,0.281c0.149,0.004,0.302,0.018,0.451,0.009  c0.037-0.003,0.07-0.081,0.104-0.122C23.714,36.29,23.991,36.135,24.056,35.687z M14.122,46.795c0.09-0.612-0.297-1.41-0.731-1.569  C13.425,45.833,13.673,46.329,14.122,46.795z M13.665,43.23c0.047,0.613,0.27,1.122,0.727,1.56  C14.479,44.188,14.128,43.442,13.665,43.23z M25.024,34.483c-0.145-0.265-0.234-0.498-0.389-0.672  c-0.06-0.066-0.303,0.408-0.282,0.68c0.016,0.198,0.116,0.369,0.311,0.338C24.786,34.81,24.88,34.63,25.024,34.483z M57.449,65.851  c-0.027-0.006-0.053-0.01-0.08-0.012c-0.103,0.291-0.222,0.576-0.29,0.877c-0.014,0.064,0.155,0.23,0.257,0.246  c0.211,0.035,0.362-0.17,0.312-0.418C57.602,66.31,57.517,66.083,57.449,65.851z M20.673,36.239c0.137-0.009,0.22,0.007,0.28-0.021  c0.231-0.108,0.464-0.219,0.681-0.354c0.085-0.053,0.129-0.174,0.193-0.264c-0.123-0.045-0.261-0.15-0.365-0.124  C21.095,35.572,20.888,35.862,20.673,36.239z M52.173,73.786c-0.035,0.016-0.072,0.031-0.109,0.045  c0.051,0.322,0.096,0.648,0.156,0.967c0.035,0.166,0.155,0.312,0.324,0.221c0.086-0.045,0.158-0.275,0.118-0.369  C52.526,74.347,52.34,74.071,52.173,73.786z M14.159,54.202c-0.23,0.477,0.23,1.152,0.763,1.197  C14.662,54.991,14.431,54.63,14.159,54.202z M17.618,36.367c0.253-0.018,0.688-0.599,0.623-0.776  c-0.019-0.047-0.156-0.096-0.207-0.073c-0.294,0.13-0.453,0.378-0.506,0.687C17.519,36.259,17.596,36.327,17.618,36.367z   M12.274,49.464c0.423-0.309,0.482-0.762,0.53-1.279C12.317,48.526,12.337,49.013,12.274,49.464z M26.458,35.464  c-0.158-0.179-0.274-0.312-0.391-0.444c-0.071,0.108-0.218,0.24-0.196,0.323c0.044,0.15,0.188,0.273,0.29,0.408  C26.243,35.673,26.321,35.595,26.458,35.464z"></path><path fill-rule="evenodd" clip-rule="evenodd" d="M33.509,44.059c0.521-0.04,0.986-0.075,1.536-0.116  c-2.827-1.78-5.644-3.414-8.993-3.779c-0.004-0.028-0.006-0.057-0.01-0.084c0.537-0.049,1.076-0.117,1.617-0.14  c0.55-0.025,1.1-0.006,1.653-0.006c-0.43-0.149-0.88-0.304-1.351-0.466c1.229-0.23,2.453-0.256,3.679-0.12  c1.231,0.134,2.421,0.449,3.603,0.87c-0.512-0.631-1.022-1.262-1.535-1.893c0.022-0.027,0.045-0.057,0.064-0.086  c0.467,0.273,0.946,0.521,1.393,0.822c1.197,0.808,2.156,1.879,3.118,2.939c0.901,0.992,1.802,1.984,2.906,2.762  c1.126,0.793,2.352,1.317,3.754,1.393c-0.548,0-1.1,0.039-1.644-0.008c-1.057-0.09-2.106-0.268-3.162-0.338  c-0.818-0.055-1.645-0.018-2.467,0.006c-0.844,0.023-1.605-0.207-2.318-0.643C34.766,44.815,34.176,44.46,33.509,44.059z"></path><path fill-rule="evenodd" clip-rule="evenodd" d="M83.966,29.699c-0.393,0.502-2.23,1.492-3.299,1.805  c0.426-0.507,0.842-0.996,1.303-1.54c0.021,0.246,0.04,0.432,0.063,0.685C82.735,30.49,83.317,30.099,83.966,29.699z"></path><path fill-rule="evenodd" clip-rule="evenodd" d="M50.841,28.153c-0.644-0.407-1.236-0.781-1.824-1.152  c0.354-0.071,1.898,0.337,2.979,0.798c-0.569,0.178-0.881,0.607-1.178,1.062c-0.074,0.116-0.221,0.255-0.341,0.261  c-0.923,0.047-1.784,0.254-2.536,0.829c0.432-0.577,1.029-0.886,1.703-1.167c-0.565-0.197-1.131-0.395-1.768-0.618  C48.876,27.859,49.823,28.299,50.841,28.153z"></path><path fill-rule="evenodd" clip-rule="evenodd" d="M64.9,36.593c0.548,0.186,1.059,0.391,1.379,0.882  c0.357,0.548,0.173,1.122-0.445,1.312c-2.124,0.648-4.468-0.209-5.295-2.482c-0.013-0.036-0.02-0.074-0.007-0.129  c0.475,0.987,1.315,1.553,2.257,2.008c0.398,0.194,0.801,0.325,1.244,0.287c0.471-0.039,0.944-0.07,1.412-0.133  c0.256-0.034,0.513-0.123,0.596-0.418c0.085-0.3-0.068-0.528-0.279-0.703C65.495,36.996,65.203,36.81,64.9,36.593z"></path><path fill-rule="evenodd" clip-rule="evenodd" d="M61.316,36.287c0.981,0.556,1.911,1.235,3.153,1.315  c-0.111,0.053-0.234,0.163-0.333,0.146c-0.423-0.068-0.854-0.131-1.251-0.279C62.252,37.236,61.761,36.786,61.316,36.287z"></path><path fill-rule="evenodd" clip-rule="evenodd" d="M68.477,33.362c0.192,0.082,0.399,0.141,0.577,0.249  c0.212,0.13,0.289,0.347,0.222,0.592c-0.062,0.239-0.275,0.278-0.468,0.27c-0.39-0.019-0.793-0.017-1.163-0.123  c-1.088-0.315-2.194-0.307-3.308-0.286c-0.32,0.005-0.638,0-0.968-0.072c0.372-0.053,0.749-0.086,1.114-0.166  c1.255-0.271,2.478-0.027,3.699,0.212c0.061,0.012,0.129,0.04,0.181,0.024c0.105-0.029,0.232-0.063,0.284-0.142  c0.037-0.053-0.021-0.187-0.06-0.274c-0.036-0.08-0.101-0.146-0.148-0.221C68.45,33.404,68.463,33.384,68.477,33.362z"></path><path fill-rule="evenodd" clip-rule="evenodd" d="M65.956,33.259c0.069-0.072,0.111-0.156,0.16-0.16  c0.525-0.053,1.052-0.054,1.562,0.16C67.126,33.259,66.573,33.259,65.956,33.259z"></path><path fill-rule="evenodd" clip-rule="evenodd" d="M59.417,28.651c-0.451,0.333-0.531,0.862-0.734,1.396  c-0.124-0.507-0.1-0.936,0.108-1.346c0.039-0.073,0.121-0.15,0.198-0.175c0.657-0.211,1.321-0.395,2.009-0.324  c-0.259,0.126-0.562,0.406-0.788,0.354c-0.372-0.086-0.433,0.241-0.701,0.296C59.486,28.807,59.456,28.735,59.417,28.651z"></path><path fill-rule="evenodd" clip-rule="evenodd" d="M57.981,30.642c-0.09-0.631-0.026-1.209,0.312-1.729  c-0.185,0.474-0.232,0.958-0.159,1.461C58.147,30.454,58.036,30.552,57.981,30.642z"></path><path fill-rule="evenodd" clip-rule="evenodd" d="M58.549,32.035c0.088-0.003,0.179-0.007,0.261-0.011  c0.013-0.221,0.016-0.424,0.039-0.625c0.009-0.062,0.053-0.147,0.104-0.168c0.037-0.017,0.132,0.035,0.169,0.081  c0.171,0.216,0.334,0.44,0.467,0.619c-0.182,0.061-0.312,0.548-0.754,0.408c-0.121-0.037-0.217-0.15-0.325-0.229  C58.522,32.085,58.536,32.062,58.549,32.035z"></path><path fill-rule="evenodd" clip-rule="evenodd" d="M55.791,29.863c0.162,0.205,0.187,0.691,0.034,0.835  c-0.047,0.047-0.175,0.057-0.244,0.03c-0.178-0.069-0.345-0.169-0.568-0.282C55.297,30.233,55.544,30.049,55.791,29.863z"></path></svg>