<svg fill="#aa0000" xmlns="http://www.w3.org/2000/svg" xmlns:xlink="http://www.w3.org/1999/xlink" version="1.1" x="0px" y="0px" viewBox="0 0 32 32" enable-background="new 0 0 32 32" xml:space="preserve"><g display="none"><rect x="-126.495" y="-132" display="inline" fill="#000000" width="405.75" height="212.25"/></g><g display="none"><g display="inline"><path fill="#000000" d="M16,31C7.729,31,1,24.271,1,16S7.729,1,16,1s15,6.729,15,15S24.272,31,16,31z"/><g><path fill="#000000" d="M16,2c7.72,0,14,6.28,14,14c0,7.72-6.28,14-14,14C8.28,30,2,23.72,2,16C2,8.28,8.28,2,16,2 M16,0     C7.163,0,0,7.163,0,16c0,8.837,7.163,16,16,16c8.837,0,16-7.163,16-16C32,7.163,24.837,0,16,0L16,0z"/></g></g><path display="inline" d="M6.5,9.298c-0.538,0.766-0.854,1.699-0.854,2.706c0,2.601,2.109,4.71,4.71,4.71   c1.814,0,3.389-1.026,4.176-2.529L6.5,9.298z"/><path display="inline" d="M25.51,9.298c0.538,0.766,0.854,1.699,0.854,2.706c0,2.601-2.109,4.71-4.71,4.71   c-1.814,0-3.389-1.026-4.176-2.529L25.51,9.298z"/><path display="inline" fill="none" stroke="#000000" stroke-width="2" stroke-miterlimit="10" d="M8.396,23.11   c0,0,7.589-5.684,15.209,0"/></g><g display="none"><g display="inline"><path fill="#000000" d="M16,2c7.72,0,14,6.28,14,14c0,7.72-6.28,14-14,14C8.28,30,2,23.72,2,16C2,8.28,8.28,2,16,2 M16,0    C7.163,0,0,7.163,0,16c0,8.837,7.163,16,16,16c8.837,0,16-7.163,16-16C32,7.163,24.837,0,16,0L16,0z"/></g><g display="inline"><path fill="#000000" d="M6.5,9.298c-0.538,0.766-0.854,1.699-0.854,2.706c0,2.601,2.109,4.71,4.71,4.71    c1.814,0,3.389-1.026,4.176-2.529L6.5,9.298z"/></g><g display="inline"><path fill="#000000" d="M25.51,9.298c0.538,0.766,0.854,1.699,0.854,2.706c0,2.601-2.109,4.71-4.71,4.71    c-1.814,0-3.389-1.026-4.176-2.529L25.51,9.298z"/></g><path display="inline" fill="#000000" stroke="#1A1718" stroke-width="2" stroke-miterlimit="10" d="M8.396,23.11   c0,0,7.589-5.684,15.209,0"/></g><g display="none"><g display="inline"><path fill="#000000" d="M16,31C7.729,31,1,24.271,1,16S7.729,1,16,1s15,6.729,15,15S24.272,31,16,31z"/><g><path fill="#000000" d="M16,2c7.72,0,14,6.28,14,14c0,7.72-6.28,14-14,14C8.28,30,2,23.72,2,16C2,8.28,8.28,2,16,2 M16,0     C7.163,0,0,7.163,0,16c0,8.837,7.163,16,16,16c8.837,0,16-7.163,16-16C32,7.163,24.837,0,16,0L16,0z"/></g></g><g display="inline"><path fill="#000000" d="M6.5,9.298c-0.538,0.766-0.854,1.699-0.854,2.706c0,2.601,2.109,4.71,4.71,4.71    c1.814,0,3.389-1.026,4.176-2.529L6.5,9.298z"/></g><g display="inline"><path fill="#000000" d="M25.51,9.298c0.538,0.766,0.854,1.699,0.854,2.706c0,2.601-2.109,4.71-4.71,4.71    c-1.814,0-3.389-1.026-4.176-2.529L25.51,9.298z"/></g><path display="inline" fill="#000000" stroke="#1A1718" stroke-width="2" stroke-miterlimit="10" d="M8.396,23.11   c0,0,7.589-5.684,15.209,0"/></g><g><g><path d="M16,0C7.163,0,0,7.163,0,16s7.163,16,16,16c8.837,0,16-7.163,16-16S24.837,0,16,0z M5.646,11.003    c0-1.007,0.316-1.94,0.854-2.706l8.031,4.886c-0.787,1.503-2.361,2.529-4.176,2.529C7.755,15.713,5.646,13.604,5.646,11.003z     M23.007,24.911c-6.913-5.156-13.726-0.213-14.013,0l-1.197-1.603c0.082-0.061,8.282-6.062,16.405-0.001L23.007,24.911z     M21.654,15.713c-1.814,0-3.389-1.026-4.176-2.529l8.031-4.886c0.538,0.766,0.854,1.699,0.854,2.706    C26.364,13.604,24.256,15.713,21.654,15.713z"/></g></g></svg>