<svg xmlns="http://www.w3.org/2000/svg" xmlns:xlink="http://www.w3.org/1999/xlink" version="1.2" baseProfile="tiny" x="0px" y="0px" viewBox="0 0 128 128" xml:space="preserve"><g><path fill="none" stroke="#000000" stroke-width="4" stroke-linecap="square" stroke-miterlimit="10" d="M1334-120c0,0,0-18,18-18   s88,0,88,0s18,0,18,18v72c0,0,0,18-18,18s-88,0-88,0s-18,0-18-18V-120z"></path><path stroke="#000000" stroke-width="4" stroke-linecap="round" stroke-miterlimit="10" d="M1442-128h-38v20l6,7c0.9,1.3,1,2.3,1,4   c0,4.3-2.7,8-7,8c-3.4,0-7-3-8-6c-1,3-4.6,6-8,6c-4.3,0-7-3.7-7-8c0-1.7,0.1-2.7,1-4l6-7v-20h-38c-6,0-6,6-6,6v76c0,6,6,6,6,6h38   v-20l-6-7c-0.9-1.3-1-2.3-1-4c0-4.3,2.7-8,7-8c3.4,0,7,3,8,6c1-3,4.6-6,8-6c4.3,0,7,3.7,7,8c0,1.7-0.1,2.7-1,4l-6,7v20h38   c6,0,6-6,6-6v-76C1448-128,1442-128,1442-128z"></path></g><g><path fill="none" stroke="#000000" stroke-width="4" stroke-linecap="square" stroke-miterlimit="10" d="M1334-120c0,0,0-18,18-18   s88,0,88,0s18,0,18,18v72c0,0,0,18-18,18s-88,0-88,0s-18,0-18-18V-120z"></path><path stroke="#000000" stroke-width="4" stroke-linecap="round" stroke-miterlimit="10" d="M1442-128h-38v20l6,7c0.9,1.3,1,2.3,1,4   c0,4.3-2.7,8-7,8c-3.4,0-7-3-8-6c-1,3-4.6,6-8,6c-4.3,0-7-3.7-7-8c0-1.7,0.1-2.7,1-4l6-7v-20h-38c-6,0-6,6-6,6v76c0,6,6,6,6,6h38   v-20l-6-7c-0.9-1.3-1-2.3-1-4c0-4.3,2.7-8,7-8c3.4,0,7,3,8,6c1-3,4.6-6,8-6c4.3,0,7,3.7,7,8c0,1.7-0.1,2.7-1,4l-6,7v20h38   c6,0,6-6,6-6v-76C1448-128,1442-128,1442-128z"></path></g><g><path stroke="#000000" stroke-width="4" stroke-linecap="round" stroke-miterlimit="10" d="M48.1,107.9l18.8-45.3L59,65.9l-2.2-5.2   L49,63.9l-15.7,37.9l-8.2,4.2c-1.3,0.8-1.8,1.8-2.5,3.3c-1.6,3.9-0.5,8.4,3.4,10.1c3.1,1.3,7.6-0.1,9.7-2.5c-0.2,3.2,2,7.3,5.1,8.6   c3.9,1.6,7.9-0.8,9.5-4.7c0.6-1.5,1-2.6,0.6-4.1L48.1,107.9z"></path><path d="M107.2,13.8c-2.2-2.2-5.6-3-8.6-2.7c0.3-3-0.5-6.4-2.7-8.6c-3.6-3.6-9.4-3.3-13.4,0.7c-1.2,1.2-2.3,2.5-2.7,4.6   c0,0.1,0,0.1,0,0.2l-0.7,8.5L48.8,46.7c-0.6,0.6-0.7,1.4-0.4,2.2c0.1,0.2,0.3,0.5,0.4,0.6c0.4,0.4,0.9,0.6,1.4,0.6l6.5,0l9.1-9.1   c0.8-0.8,2-0.8,2.8,0c0.8,0.8,0.8,2,0,2.8L57.3,55.2c0.4,0.4,0.9,0.6,1.4,0.6h8.5c0.5,0,1-0.2,1.4-0.6l24.6-24.6l8.5-0.7   c0.1,0,0.1,0,0.2,0c2.2-0.4,3.4-1.4,4.6-2.7C110.5,23.2,110.8,17.5,107.2,13.8z"></path></g></svg>