<svg fill="#cc6600" xmlns:dc="http://purl.org/dc/elements/1.1/" xmlns:cc="http://creativecommons.org/ns#" xmlns:rdf="http://www.w3.org/1999/02/22-rdf-syntax-ns#" xmlns:svg="http://www.w3.org/2000/svg" xmlns="http://www.w3.org/2000/svg" xmlns:sodipodi="http://sodipodi.sourceforge.net/DTD/sodipodi-0.dtd" xmlns:inkscape="http://www.inkscape.org/namespaces/inkscape" version="1.1" x="0px" y="0px" viewBox="0 0 100 100"><g transform="translate(0,-952.36218)"><path style="text-indent:0;text-transform:none;direction:ltr;block-progression:tb;baseline-shift:baseline;enable-background:accumulate;" d="m 49.96875,958.36278 c -0.25741,0.007 -0.50555,0.0774 -0.75,0.1875 l -31,12.99982 c -0.5385,0.234 -0.9626,0.717 -1.125,1.28124 C 15.22202,979.26167 14,984.88675 14,992.39357 c 0,25.98933 15.47534,48.60493 35.5,53.90553 0.32621,0.084 0.67379,0.084 1,0 20.02466,-5.3006 35.5,-27.9162 35.5,-53.90553 0,-7.50682 -1.22201,-13.1319 -3.09375,-19.56223 -0.1624,-0.56424 -0.5865,-1.04724 -1.125,-1.28124 l -31,-12.99982 c -0.28842,-0.13705 -0.55509,-0.19424 -0.8125,-0.1875 z m 0.0312,4.18744 29.3125,12.31234 c 1.65807,5.83911 2.6875,10.81586 2.6875,17.53101 0,24.15493 -14.47591,44.91113 -32,49.87433 -17.52409,-4.9632 -32,-25.7194 -32,-49.87433 0,-6.71515 1.02943,-11.6919 2.6875,-17.53101 L 50,962.55022 z m 0,22.8122 c -1.10457,0 -2,0.89539 -2,1.99997 l 0,11.99984 -12,0 c -1.10457,0 -2,0.89537 -2,1.99997 0,1.1046 0.89543,2 2,2 l 12,0 0,11.9999 c 0,1.1045 0.89543,1.9999 2,1.9999 1.10457,0 2,-0.8954 2,-1.9999 l 0,-11.9999 12,0 c 1.10457,0 2,-0.8954 2,-2 0,-1.1046 -0.89543,-1.99997 -2,-1.99997 l -12,0 0,-11.99984 c 0,-1.10458 -0.89543,-1.99997 -2,-1.99997 z" fill-opacity="1" stroke="none" marker="none" visibility="visible" display="inline" overflow="visible"/></g></svg>