<svg fill="#666055" xmlns="http://www.w3.org/2000/svg" xmlns:xlink="http://www.w3.org/1999/xlink" version="1.1" x="0px" y="0px" viewBox="0 0 100 100" style="enable-background:new 0 0 100 100;" xml:space="preserve"><rect x="26.4" y="66.7" width="2.4" height="8.8"/><rect x="26.4" y="40.1" width="2.4" height="8.8"/><rect x="49.5" y="67.8" width="2.4" height="8.2"/><rect x="68.6" y="67.8" width="2.4" height="8.2"/><path d="M60.7,54.6l-8.6,6V26.9h6.3v-22h-6.3v11.3h-5.7V4.9l-20.7,0v10.3h-7.2V4.9l-11.1,0v22h7.2v68h74V68.7L60.7,54.6z M10.2,24.1  V8.3h5.5v9.5h13.1V8.3h7v15.9H10.2z M17.5,93V26.9h20.3V93H17.5z M76.1,93h-12v-9.8c0,0-0.5-2.8-3.9-2.8c-3.3,0-3.9,2.8-3.9,2.8V93  H45.7h-1.2V68.1l16.3-11.2l15.5,10.8L76.1,93z"/></svg>