<svg xmlns="http://www.w3.org/2000/svg" xmlns:xlink="http://www.w3.org/1999/xlink" version="1.1" viewBox="0 0 256 256" style="enable-background:new 0 0 256 256;" xml:space="preserve" x="0px" y="0px" overflow="visible"><g><circle style="" cx="129" cy="129" r="113" fill="none" stroke="#000000" stroke-width="25" stroke-linecap="round" stroke-linejoin="round"></circle><line style="" x1="43.112" y1="55.561" x2="201.136" y2="213.584" fill="none" stroke="#000000" stroke-width="25"></line><path d="M96.715,105.437c0,0,9.149,5.758,16.732,13.342c7.582,7.582,0.863-0.86,0.863-0.86S109.871,105.437,96.715,105.437z"></path><path style="" d="M155.489,132.972   c14.455-19.519,27.115-43.969,24.672-68.793c0,0-0.317,0.627-0.823,1.612c-0.012-0.251-0.015-0.506-0.031-0.757L134,110.339" fill="none" stroke="#000000" stroke-width="20" stroke-linejoin="round"></path><path style="" d="M107.629,136.71   l17.364,17.363c0,0,0.105-0.089,0.288-0.244l0.29,0.822c6.607-6.607,8.917,3.171,15.358-3.974" fill="none" stroke="#000000" stroke-width="20" stroke-linecap="round" stroke-linejoin="round"></path><path style="" d="M126.437,155.686l-6.837-6.837c-0.194-0.302-0.418-0.588-0.682-0.851   l-5.645-5.644c-0.262-0.263-0.547-0.486-0.847-0.68l-6.839-6.838c-1.181-1.182-3.048-1.246-4.151-0.143   c-1.103,1.103-1.039,2.97,0.142,4.149l0.19,0.191c0.004,0.014,1.567,5.519-2.174,9.814l-20.419,20.421   c-8.724,8.723-9.99,1.304-12.487,2.224c-3.249,1.197-0.171,4.617-0.171,4.618c0,0,15.906,15.906,18.814,18.813   c2.907,2.907,4.579,2.174,2.908-3.764c-2.31-8.206,4.105-9.406,4.105-9.406c9.353-2.14,10.718-8.666,10.718-8.666   c1.062-5.009,8.864-10.918,8.864-10.918c4.358-4.357,10.329-2.645,10.338-2.641l0.164,0.162c1.181,1.181,3.048,1.245,4.15,0.143   C127.681,158.734,127.617,156.866,126.437,155.686z" stroke="#000000" stroke-width="12"></path></g><g><line style="" x1="134" y1="256" x2="134" y2="0" fill="none"></line><line style="" x1="0" y1="124" x2="256" y2="124" fill="none"></line></g></svg>