<svg xmlns="http://www.w3.org/2000/svg" xmlns:xlink="http://www.w3.org/1999/xlink" version="1.1" x="0px" y="0px" viewBox="0 0 100 100" style="enable-background:new 0 0 100 100;" xml:space="preserve"><path d="M49.7,4C24.6,4,4.2,24.5,4.2,49.6s20.4,45.6,45.6,45.6s45.6-20.5,45.6-45.6S74.9,4,49.7,4z M52.7,51.2  c1.5-0.9,4.3-1.4,6-0.4L54,53.5c-0.6,0.4-1.4,0.1-1.8-0.5C51.8,52.3,52.1,51.5,52.7,51.2z M50.5,58.8C50.5,58.9,50.5,58.9,50.5,58.8  c0,0.1,0,0.1,0,0.1c-0.1,0.6-1.1,1.7-1.9,1.7s-1.8-1.1-1.9-1.7c0,0,0,0,0,0c0,0,0-0.1,0-0.1c0-0.5,0.9-1,1.9-1  C49.6,57.9,50.5,58.3,50.5,58.8z M72,85.5c-0.4-1.8,1.9-4.3,2.8-5.4c2.6-3.4,4.5-7.9,3.5-11.6c-2.8,3.6-6.8,6.1-11,6.1  c4.9-5.3,5.9-10.7,4.7-14c-1.1,2-3.3,4.4-7.6,5.8c2.3-3.2,2.8-7.9,2.1-11c-0.7,1.1-6.5,4.4-7.5,5c-1,0.6-5.2,2.8-6.6,3.6l0,0  c-0.6,0.3-1.2,0.6-1.7,0.9c-0.6,0.3-1.3,0.5-2,0.5c-0.7,0-1.4-0.2-2-0.5c-1.2-0.6-3.2-1.7-6-3.2c-6.1-3.3-14.3-8-16.7-9.3  c-0.5-0.3-0.7-0.8-0.6-1.4c0.6-2.9,3.4-10.1,5.4-12.6c0-0.7-0.1-1.7-0.2-2.8c-0.5-7.1-0.5-9.3,0.7-10.1c3.8-2.6,18.5,7.1,20.6,9.2  c0.5,0.5,0.5,1.3,0,1.8c-0.5,0.5-1.3,0.5-1.8,0c-2.7-2.7-14.6-9.4-17.1-9c-0.3,1.3,0,5.7,0.2,7.9c0.1,1.5,0.2,2.7,0.2,3.5  c0,0.4-0.2,0.7-0.4,1c-1.2,1-3.9,7.1-4.8,10.7c3.1,1.7,10.3,5.8,15.8,8.8c2.7,1.5,4.7,2.5,5.9,3.1c0.6,0.3,1.2,0.3,1.8,0  c2-1,5.6-2.9,8.3-4.4l0,0C79.6,46.1,79,29.8,76.9,17.2c0.1,0.1,0.3,0.2,0.4,0.4c0.7,0.7,1.3,1.5,1.9,2.3c2.7,3.8,4.5,8.4,4.9,13.2  c0.7-0.9,1.2-3,1.3-5c0.7,1.4,1.3,3,1.8,4.6c0.1,0.6,0.2,1.1,0.3,1.5c0.5,2,0.6,4.8,0.4,6.6c0.8-0.7,1.6-2.2,2-4.2  c4.4,13.4,2,28.7-7.9,40.1C78.3,81.2,75.6,83.2,72,85.5z M44.9,53c-0.4,0.6-1.2,0.9-1.8,0.5l-4.7-2.6c1.7-1.1,4.4-0.5,6,0.4  C45,51.5,45.2,52.3,44.9,53z"></path><path d="M84.1,33.2C84.1,33.1,84.1,33.1,84.1,33.2C84.1,33.1,84.1,33.1,84.1,33.2L84.1,33.2z"></path></svg>