<svg fill="#367EEB" xmlns="http://www.w3.org/2000/svg" xmlns:xlink="http://www.w3.org/1999/xlink" viewBox="0 0 96 96" version="1.1" x="0px" y="0px"><title>Fox</title><desc>Created with Sketch.</desc><g stroke="none" stroke-width="1" fill="none" fill-rule="evenodd"><g fill="#367EEB"><path d="M13.9994318,51 L11,49 L14.9992423,45 L16.9988635,40 L16.9988635,36 L23.9975376,42 C27.3302396,43.3333333 29.6631309,44 30.9962117,44 C32.9958329,44 37.7160635,42.4590326 42.9939388,42 C46.5125223,41.6939783 50.1784944,41.6939783 53.9918552,42 C57.3245572,42 59.9907187,42.6666667 61.9903399,44 C64.9897717,46 67.5479417,48.9888229 70.9886352,52 C74.4293286,55.0111771 75.9876881,57 77.9873093,58 C79.9869305,59 86.6978156,57.5607823 86.9856046,59 C87.2733936,60.4392177 83.1990506,62.531919 78.9871199,63 C74.7751892,63.468081 71.9884458,63 68.989014,61 C66.9893928,59.6666667 63.9899611,57 59.9907187,53 L57.9910976,52 L58.9909082,56 L62.9901505,61 L60.9905293,67 L56.991287,67 L59.9907187,65 L59.9907187,62 L46.9931811,56 L39.994507,57 L36.9950752,63 L34.9954541,67 L30.9962117,67 L33.9956435,64 L34.9954541,57 L21.9979165,50 L17.9986741,49 L13.9994318,51 Z M48,59 L55,62 L53,67 L49,67 L51,66 L52,63 L48,59 Z M30,57 L32,58 L31,63 L28,67 L25,67 L28.5,63 L30,57 Z"></path></g></g></svg>