<svg xmlns="http://www.w3.org/2000/svg" xmlns:xlink="http://www.w3.org/1999/xlink" version="1.1" x="0px" y="0px" viewBox="0 0 100 100" enable-background="new 0 0 100 100" xml:space="preserve"><g><path d="M51.81,63.85h7.378c1.208,0.001,2.286,0.48,3.073,1.255c0.785,0.778,1.263,1.831,1.264,3.007v0   c-0.001,1.176-0.478,2.229-1.264,3.007c-0.787,0.775-1.866,1.254-3.073,1.255h-3.504l-0.185-0.019l-0.185,0.019h-6.88   c-0.802,0-1.452,0.65-1.452,1.452c0,0.802,0.65,1.452,1.452,1.452v0h5.614v3.076c0,0.802,0.65,1.452,1.452,1.452   c0.802,0,1.452-0.65,1.452-1.452v-3.076h2.237c1.989,0.001,3.805-0.799,5.113-2.092c1.31-1.29,2.128-3.094,2.127-5.073l0,0   c0.001-1.98-0.818-3.783-2.127-5.073c-1.308-1.293-3.124-2.093-5.113-2.092H51.81c-1.208-0.001-2.286-0.48-3.073-1.255   c-0.785-0.778-1.263-1.831-1.264-3.007c0.001-1.176,0.478-2.229,1.264-3.007c0.787-0.775,1.866-1.254,3.073-1.255h10.755   c0.802,0,1.451-0.65,1.451-1.451c0-0.802-0.65-1.451-1.451-1.451H56.95v-3.102c0-0.802-0.65-1.452-1.452-1.452   c-0.802,0-1.452,0.65-1.452,1.452v3.101H51.81c-1.989-0.001-3.805,0.799-5.113,2.092c-1.31,1.29-2.128,3.094-2.127,5.073   c-0.001,1.98,0.818,3.783,2.127,5.073C48.005,63.051,49.82,63.851,51.81,63.85z"></path><path d="M18.065,95h68.664l0.001,0c2.357,0.002,4.449-0.977,5.917-2.493c1.471-1.515,2.351-3.574,2.353-5.77   c0-0.942-0.164-1.908-0.51-2.852c-0.695-1.897-1.646-3.654-2.92-5.13c-0.918-1.065-2.018-1.973-3.282-2.664   c0.284-0.573,0.547-1.158,0.778-1.76c1.117-2.915,1.635-6.143,1.636-9.414c-0.004-5.496-1.455-11.13-4.179-15.66   c-1.178-1.953-2.613-3.682-4.273-5.106c0.01-0.333,0.027-0.671,0.027-0.996c0.001-3.63-0.652-6.785-1.849-9.465   c-1.407-3.162-3.582-5.623-6.207-7.429l12.692-10.699l0.067-0.069l0.124-0.128l0.081-0.119l0.075-0.118l0.07-0.168l0.036-0.086   l0.002-0.012l0.038-0.192l0.017-0.091l-0.001-0.164l-0.001-0.117l-0.036-0.176l-0.02-0.097l-0.051-0.123l-0.058-0.137l-0.054-0.081   l-0.108-0.157l-0.007-0.01l-0.069-0.067l-0.128-0.124l-0.118-0.08l-0.118-0.075l-0.17-0.071L86.4,13.064l0,0L60.26,5.115   L60.211,5.1l-0.048-0.015l-0.227-0.06l-0.03-0.003L59.693,5c-0.723,0-1.317,0.53-1.428,1.221L58.263,6.23l-0.022,0.222l0,0.009   l0.006,0.035c0.003,0.1,0.015,0.202,0.04,0.303l0.029,0.119l0.001,0.004l3.745,15.423c-0.769-0.053-1.543-0.089-2.323-0.09   c-7.552,0.007-15.552,2.431-21.784,6.611c-3.113,2.094-5.787,4.636-7.701,7.577c-1.913,2.938-3.059,6.294-3.057,9.907   c0,0.088,0.009,0.177,0.011,0.265c-4.914,1.909-9.263,5.281-12.766,9.693c-5.107,6.426-8.476,15.062-9.387,24.794   C5.018,81.491,5,81.878,5,82.261c0,3.521,1.505,6.718,3.879,9.013C11.252,93.572,14.513,94.999,18.065,95z M61.709,8.59L83,15.064   l-11.453,9.654c-1.991-0.955-4.15-1.612-6.408-2.004L61.709,8.59z M7.945,81.373c0.861-9.231,4.062-17.343,8.769-23.258   c4.714-5.92,10.879-9.635,17.801-10.266c0.798-0.073,1.387-0.778,1.314-1.577c-0.073-0.798-0.778-1.387-1.577-1.314   c-1.407,0.127-2.783,0.373-4.125,0.72c0.13-2.741,1.032-5.297,2.561-7.652c2.476-3.816,6.614-7.064,11.466-9.325   c4.848-2.266,10.392-3.545,15.585-3.542c1.356-0.001,2.684,0.088,3.97,0.264l0.024,0.004c3.785,0.522,7.2,1.816,9.829,3.948   c1.769,1.432,3.204,3.237,4.216,5.5c0.899,2.015,1.436,4.427,1.549,7.245c-1.48-0.79-3.093-1.344-4.823-1.585   c-0.794-0.111-1.528,0.442-1.639,1.236c-0.111,0.794,0.442,1.528,1.236,1.639c2.072,0.291,3.933,1.12,5.601,2.383l0.019,0.016   c0.079,0.084,0.169,0.156,0.266,0.219c2.367,1.891,4.311,4.678,5.655,7.927c1.401,3.377,2.157,7.229,2.156,10.963   c0.001,2.965-0.475,5.853-1.443,8.375c-0.969,2.525-2.42,4.676-4.372,6.253c-0.624,0.504-0.721,1.418-0.218,2.041   c0.504,0.624,1.418,0.721,2.041,0.218l0,0c1.157-0.934,2.152-2.023,3.002-3.221c0.976,0.516,1.821,1.212,2.565,2.07   c0.993,1.149,1.792,2.593,2.39,4.23c0.228,0.625,0.333,1.247,0.333,1.854c0.001,1.411-0.572,2.759-1.532,3.747   c-0.964,0.987-2.28,1.61-3.834,1.612H18.065c-2.767,0.001-5.313-1.114-7.167-2.908c-1.854-1.797-2.995-4.244-2.995-6.927   C7.903,81.968,7.917,81.671,7.945,81.373z"></path></g></svg>