<svg fill="#70C041" xmlns="http://www.w3.org/2000/svg" xmlns:xlink="http://www.w3.org/1999/xlink" version="1.1" x="0px" y="0px" viewBox="0 0 512 512" enable-background="new 0 0 512 512" xml:space="preserve"><g><g><g><g><g><path d="M138.969,313.892c-12.659,0-18.982-5.859-23.598-10.135l-0.772-0.71c-1.623-1.49-1.732-4.018-0.238-5.641       c1.498-1.623,4.021-1.717,5.645-0.242l0.792,0.733c4.248,3.933,8.641,8.005,18.171,8.005c2.208,0,3.995,1.787,3.995,3.995       S141.177,313.892,138.969,313.892z"></path></g></g></g><g><g><g><path d="M37.577,313.064c-2.037,0-3.78-1.553-3.972-3.62c-0.207-2.2,1.404-4.143,3.601-4.354       c20.918-1.966,46.454-7.178,63.544-12.959c2.095-0.679,4.354,0.413,5.064,2.505c0.706,2.091-0.414,4.354-2.504,5.062       c-17.617,5.961-43.883,11.329-65.354,13.35C37.827,313.057,37.702,313.064,37.577,313.064z"></path></g></g></g><g><g><g><path d="M256,313.892c-12.659,0-18.979-5.852-23.594-10.127c-1.619-1.506-1.712-4.034-0.214-5.648       c1.501-1.623,4.018-1.717,5.645-0.219c4.248,3.94,8.637,8.005,18.163,8.005c2.208,0,3.995,1.787,3.995,3.995       S258.208,313.892,256,313.892z"></path></g></g></g><g><g><g><path d="M154.78,313.041c-2.037,0-3.776-1.553-3.971-3.62c-0.211-2.192,1.404-4.143,3.601-4.354       c21.081-1.989,46.652-7.193,63.626-12.936c2.099-0.679,4.354,0.413,5.063,2.505c0.706,2.091-0.413,4.354-2.504,5.062       c-17.5,5.922-43.797,11.274-65.436,13.326C155.033,313.033,154.904,313.041,154.78,313.041z"></path></g></g></g><g><g><g><path d="M373.031,313.892c-11.547,0-17.68-4.72-22.524-9.144c-1.631-1.49-1.748-4.011-0.258-5.641       c1.482-1.639,4.019-1.748,5.642-0.258c4.072,3.714,8.449,7.053,17.141,7.053c2.208,0,3.995,1.787,3.995,3.995       S375.239,313.892,373.031,313.892z"></path></g></g></g><g><g><g><path d="M271.979,313.025c-2.044,0-3.775-1.545-3.979-3.612c-0.203-2.2,1.404-4.15,3.604-4.361       c20.979-1.997,47.202-7.318,63.767-12.92c2.106-0.679,4.361,0.413,5.063,2.505c0.702,2.091-0.414,4.354-2.505,5.062       c-17.344,5.875-43.699,11.22-65.576,13.311C272.229,313.018,272.104,313.025,271.979,313.025z"></path></g></g></g><g><g><g><path d="M389.166,313.018c-2.028,0-3.769-1.545-3.963-3.612c-0.219-2.192,1.389-4.15,3.588-4.361       c21.113-2.028,46.595-7.225,63.416-12.912c9.861-3.315,15.073,1.506,19.677,5.766c1.093,1.015,2.231,2.075,3.511,3.082       c1.725,1.373,2.014,3.886,0.64,5.617c-1.373,1.725-3.886,2.021-5.617,0.64c-1.436-1.146-2.73-2.332-3.964-3.479       c-4.502-4.182-6.538-5.773-11.695-4.058c-17.336,5.867-43.543,11.212-65.201,13.303       C389.432,313.01,389.299,313.018,389.166,313.018z"></path></g></g></g></g><g><g><g><g><path d="M146.146,257.971c-11.976,0-17.87-5.47-22.173-9.46c-1.619-1.501-1.712-4.03-0.214-5.645       c1.498-1.626,4.022-1.72,5.645-0.214c3.886,3.605,7.904,7.33,16.743,7.33c2.208,0,3.995,1.787,3.995,3.995       S148.354,257.971,146.146,257.971z"></path></g></g></g><g><g><g><path d="M52.514,257.034c-2.028,0-3.764-1.533-3.971-3.593c-0.223-2.196,1.381-4.155,3.573-4.377       c19.536-1.97,43.013-6.796,58.422-12.012c2.091-0.69,4.354,0.414,5.063,2.505c0.706,2.087-0.414,4.357-2.504,5.063       c-15.92,5.387-40.107,10.369-60.177,12.394C52.783,257.026,52.646,257.034,52.514,257.034z"></path></g></g></g><g><g><g><path d="M256,257.971c-10.907,0-16.688-4.447-21.253-8.614c-1.63-1.486-1.748-4.014-0.257-5.641       c1.49-1.642,4.018-1.751,5.641-0.257c3.769,3.437,7.813,6.522,15.869,6.522c2.208,0,3.995,1.787,3.995,3.995       S258.208,257.971,256,257.971z"></path></g></g></g><g><g><g><path d="M162.238,257.05c-2.028,0-3.764-1.537-3.971-3.597c-0.219-2.196,1.381-4.151,3.577-4.373       c19.548-1.962,43.063-6.796,58.516-12.027c2.075-0.69,4.354,0.414,5.063,2.505c0.706,2.087-0.414,4.354-2.505,5.063       c-15.963,5.407-40.188,10.393-60.278,12.409C162.504,257.042,162.371,257.05,162.238,257.05z"></path></g></g></g><g><g><g><path d="M365.854,257.971c-10.182,0-16.041-3.972-20.426-7.853c-1.646-1.463-1.803-3.991-0.344-5.641       c1.482-1.646,3.995-1.794,5.648-0.343c3.184,2.829,7.257,5.848,15.121,5.848c2.208,0,3.994,1.787,3.994,3.995       S368.062,257.971,365.854,257.971z"></path></g></g></g><g><g><g><path d="M271.979,257.065c-2.028,0-3.768-1.537-3.979-3.597c-0.219-2.196,1.389-4.155,3.581-4.373       c19.622-1.966,43.192-6.804,58.663-12.043c2.092-0.69,4.354,0.414,5.064,2.505c0.71,2.087-0.414,4.357-2.505,5.063       c-15.979,5.411-40.267,10.404-60.427,12.425C272.244,257.058,272.104,257.065,271.979,257.065z"></path></g></g></g><g><g><g><path d="M381.707,257.073c-2.028,0-3.76-1.537-3.963-3.601c-0.219-2.196,1.381-4.151,3.573-4.369       c19.63-1.951,43.255-6.792,58.78-12.051c9.41-3.175,14.341,1.42,18.71,5.466l1.7,1.557c1.654,1.467,1.795,3.99,0.336,5.641       c-1.475,1.643-4.002,1.787-5.641,0.335l-1.826-1.673c-4.01-3.71-5.836-5.396-10.72-3.757       c-16.041,5.434-40.368,10.432-60.544,12.433C381.973,257.065,381.848,257.073,381.707,257.073z"></path></g></g></g></g><g><g><g><g><path d="M152.856,210.034c-10.377,0-15.908-4.279-20.277-8.293c-1.627-1.49-1.736-4.018-0.242-5.641       c1.49-1.634,4.015-1.739,5.641-0.242c3.69,3.386,7.357,6.187,14.878,6.187c2.208,0,3.995,1.787,3.995,3.995       S155.064,210.034,152.856,210.034z"></path></g></g></g><g><g><g><path d="M65.294,209.122c-2.025,0-3.761-1.529-3.972-3.585c-0.222-2.196,1.374-4.158,3.566-4.385       c17.89-1.837,39.607-6.339,54.037-11.199c2.091-0.707,4.357,0.417,5.06,2.508c0.707,2.091-0.417,4.357-2.508,5.06       c-15.171,5.114-37.063,9.659-55.77,11.583C65.567,209.114,65.431,209.122,65.294,209.122z"></path></g></g></g><g><g><g><path d="M256.062,210.034c-9.651,0-15.206-3.769-19.361-7.458c-1.654-1.463-1.802-3.987-0.339-5.637       c1.459-1.662,3.987-1.81,5.641-0.339c2.969,2.633,6.749,5.446,14.06,5.446c2.208,0,3.994,1.787,3.994,3.995       S258.271,210.034,256.062,210.034z"></path></g></g></g><g><g><g><path d="M168.636,209.106c-2.025,0-3.756-1.529-3.971-3.585c-0.227-2.192,1.369-4.158,3.565-4.385       c18.07-1.864,39.834-6.358,54.162-11.184c2.087-0.707,4.361,0.425,5.06,2.508c0.706,2.091-0.417,4.357-2.508,5.06       c-14.832,4.998-37.294,9.644-55.894,11.567C168.909,209.098,168.772,209.106,168.636,209.106z"></path></g></g></g><g><g><g><path d="M359.269,210.034c-9.175,0-14.488-3.397-18.093-6.362c-1.709-1.4-1.951-3.917-0.555-5.622       c1.396-1.693,3.917-1.958,5.626-0.55c2.879,2.36,6.437,4.545,13.021,4.545c2.208,0,3.995,1.787,3.995,3.995       S361.477,210.034,359.269,210.034z"></path></g></g></g><g><g><g><path d="M271.979,209.098c-2.028,0-3.76-1.529-3.979-3.581c-0.219-2.196,1.373-4.159,3.565-4.389       c18.296-1.896,40.126-6.39,54.341-11.176c2.092-0.707,4.361,0.425,5.064,2.508c0.71,2.091-0.414,4.357-2.505,5.06       c-14.723,4.958-37.255,9.604-56.073,11.559C272.252,209.09,272.111,209.098,271.979,209.098z"></path></g></g></g><g><g><g><path d="M375.31,209.075c-2.028,0-3.761-1.529-3.979-3.581c-0.218-2.196,1.373-4.159,3.566-4.389       c18.101-1.88,39.829-6.363,54.061-11.153c8.934-3.07,13.856,1.486,17.819,5.145l0.983,0.909       c1.639,1.486,1.756,4.01,0.273,5.645c-1.482,1.634-4.011,1.755-5.642,0.269l-1.045-0.956c-3.995-3.698-5.587-4.884-9.831-3.449       c-14.746,4.966-37.169,9.601-55.793,11.54C375.582,209.067,375.442,209.075,375.31,209.075z"></path></g></g></g></g><g><g><g><g><path d="M158.131,170.088c-9.257,0-14.594-3.647-18.597-7.217c-1.65-1.467-1.794-3.991-0.323-5.637       c1.471-1.654,3.994-1.791,5.637-0.324c2.949,2.625,6.401,5.188,13.283,5.188c2.208,0,3.995,1.786,3.995,3.994       S160.339,170.088,158.131,170.088z"></path></g></g></g><g><g><g><path d="M75.928,169.128c-2.017,0-3.749-1.521-3.967-3.573c-0.234-2.192,1.354-4.158,3.55-4.393       c17.004-1.814,36.791-5.941,50.409-10.521c2.087-0.699,4.354,0.425,5.06,2.516c0.702,2.091-0.425,4.354-2.516,5.06       c-14.122,4.748-34.575,9.02-52.11,10.888C76.213,169.12,76.068,169.128,75.928,169.128z"></path></g></g></g><g><g><g><path d="M256,170.088c-8.859,0-14.005-3.347-17.496-6.265c-1.693-1.417-1.919-3.932-0.507-5.625       c1.42-1.693,3.932-1.919,5.625-0.507c2.742,2.29,6.141,4.408,12.378,4.408c2.208,0,3.995,1.786,3.995,3.994       S258.208,170.088,256,170.088z"></path></g></g></g><g><g><g><path d="M173.801,169.128c-2.017,0-3.749-1.521-3.967-3.569c-0.234-2.196,1.354-4.162,3.546-4.396       c16.978-1.81,37.345-6.039,50.679-10.521c2.087-0.699,4.354,0.425,5.06,2.516c0.702,2.091-0.425,4.354-2.517,5.06       c-13.829,4.646-34.875,9.023-52.371,10.888C174.086,169.12,173.941,169.128,173.801,169.128z"></path></g></g></g><g><g><g><path d="M353.869,170.088c-6.319,0-11.438-1.639-16.135-5.161c-1.763-1.326-2.114-3.831-0.795-5.594       c1.326-1.771,3.838-2.118,5.602-0.796c2.2,1.658,5.484,3.562,11.328,3.562c2.208,0,3.995,1.786,3.995,3.994       S356.077,170.088,353.869,170.088z"></path></g></g></g><g><g><g><path d="M271.979,169.097c-2.021,0-3.752-1.518-3.971-3.569c-0.242-2.192,1.35-4.162,3.55-4.396       c17.149-1.841,37.513-6.059,50.69-10.49c2.099-0.699,4.361,0.425,5.062,2.516c0.703,2.091-0.421,4.354-2.52,5.06       c-13.661,4.596-34.719,8.961-52.391,10.856C272.26,169.089,272.119,169.097,271.979,169.097z"></path></g></g></g><g><g><g><path d="M369.973,169.081c-2.013,0-3.744-1.518-3.963-3.565c-0.234-2.192,1.342-4.162,3.542-4.4       c16.938-1.837,37.169-6.047,50.331-10.474c8.59-2.926,13.303,1.42,17.087,4.916c1.614,1.498,1.724,4.033,0.233,5.656       c-1.506,1.611-4.025,1.728-5.641,0.23c-3.808-3.527-5.212-4.576-9.113-3.234c-13.887,4.67-34.312,8.926-52.039,10.849       C370.27,169.073,370.121,169.081,369.973,169.081z"></path></g></g></g></g><g><g><g><g><path d="M130.168,377.807c-13.486,0-20.23-6.25-25.158-10.814c-4.619-4.268-6.928-6.397-12.885-4.407       c-24.834,8.395-64.215,15.222-87.789,15.222c-2.208,0-3.994-1.787-3.994-3.995s1.786-3.994,3.994-3.994       c22.462,0,61.492-6.78,85.23-14.801c10.443-3.558,15.986,1.592,20.87,6.116c4.611,4.269,9.378,8.685,19.731,8.685       c2.208,0,3.995,1.786,3.995,3.994S132.376,377.807,130.168,377.807z"></path></g></g></g><g><g><g><path d="M256,377.807c-13.486,0-20.23-6.25-25.158-10.814c-4.619-4.268-6.936-6.397-12.885-4.407       c-24.834,8.395-64.215,15.222-87.789,15.222c-2.208,0-3.995-1.787-3.995-3.995s1.787-3.994,3.995-3.994       c22.462,0,61.492-6.78,85.23-14.801c10.447-3.558,15.991,1.592,20.871,6.116c4.611,4.269,9.378,8.685,19.731,8.685       c2.208,0,3.995,1.786,3.995,3.994S258.208,377.807,256,377.807z"></path></g></g></g><g><g><g><path d="M381.832,377.807c-13.482,0-20.238-6.25-25.162-10.814c-4.61-4.268-6.951-6.397-12.881-4.407       c-24.834,8.395-64.211,15.222-87.789,15.222c-2.208,0-3.995-1.787-3.995-3.995s1.787-3.994,3.995-3.994       c22.463,0,61.496-6.78,85.23-14.801c10.446-3.558,15.986,1.592,20.87,6.116c4.611,4.269,9.37,8.685,19.731,8.685       c2.208,0,3.994,1.786,3.994,3.994S384.04,377.807,381.832,377.807z"></path></g></g></g><g><g><g><path d="M507.664,377.807c-13.482,0-20.238-6.25-25.162-10.814c-4.618-4.268-6.943-6.397-12.881-4.407       c-24.834,8.395-64.211,15.222-87.789,15.222c-2.208,0-3.994-1.787-3.994-3.995s1.786-3.994,3.994-3.994       c22.462,0,61.496-6.78,85.23-14.801c10.454-3.558,15.979,1.592,20.87,6.116c4.611,4.269,9.37,8.685,19.731,8.685       c2.208,0,3.994,1.786,3.994,3.994S509.872,377.807,507.664,377.807z"></path></g></g></g></g><g><g><g><g><path d="M130.168,393.785c-13.486,0-20.23-6.25-25.158-10.813c-4.619-4.269-6.928-6.397-12.885-4.408       c-24.834,8.395-64.215,15.222-87.789,15.222c-2.208,0-3.994-1.787-3.994-3.994c0-2.209,1.786-3.995,3.994-3.995       c22.462,0,61.492-6.78,85.23-14.801c10.443-3.558,15.986,1.592,20.87,6.117c4.611,4.268,9.378,8.684,19.731,8.684       c2.208,0,3.995,1.786,3.995,3.995C134.163,391.998,132.376,393.785,130.168,393.785z"></path></g></g></g><g><g><g><path d="M256,393.785c-13.486,0-20.23-6.25-25.158-10.813c-4.619-4.269-6.936-6.397-12.885-4.408       c-24.834,8.395-64.215,15.222-87.789,15.222c-2.208,0-3.995-1.787-3.995-3.994c0-2.209,1.787-3.995,3.995-3.995       c22.462,0,61.492-6.78,85.23-14.801c10.447-3.558,15.991,1.592,20.871,6.117c4.611,4.268,9.378,8.684,19.731,8.684       c2.208,0,3.995,1.786,3.995,3.995C259.995,391.998,258.208,393.785,256,393.785z"></path></g></g></g><g><g><g><path d="M381.832,393.785c-13.482,0-20.238-6.25-25.162-10.813c-4.61-4.269-6.951-6.397-12.881-4.408       c-24.834,8.395-64.211,15.222-87.789,15.222c-2.208,0-3.995-1.787-3.995-3.994c0-2.209,1.787-3.995,3.995-3.995       c22.463,0,61.496-6.78,85.23-14.801c10.446-3.558,15.986,1.592,20.87,6.117c4.611,4.268,9.37,8.684,19.731,8.684       c2.208,0,3.994,1.786,3.994,3.995C385.826,391.998,384.04,393.785,381.832,393.785z"></path></g></g></g><g><g><g><path d="M507.664,393.785c-13.482,0-20.238-6.25-25.162-10.813c-4.618-4.269-6.943-6.397-12.881-4.408       c-24.834,8.395-64.211,15.222-87.789,15.222c-2.208,0-3.994-1.787-3.994-3.994c0-2.209,1.786-3.995,3.994-3.995       c22.462,0,61.496-6.78,85.23-14.801c10.454-3.558,15.979,1.592,20.87,6.117c4.611,4.268,9.37,8.684,19.731,8.684       c2.208,0,3.994,1.786,3.994,3.995C511.658,391.998,509.872,393.785,507.664,393.785z"></path></g></g></g></g><g><g><g><g><path d="M162.125,138.13c-10.455,0-15.655-4.822-19.451-8.34c-3.601-3.332-4.919-4.322-8.602-3.066       c-18.725,6.292-48.248,11.407-65.822,11.407c-2.208,0-3.995-1.787-3.995-3.995s1.787-3.995,3.995-3.995       c16.567,0,45.541-5.033,63.267-10.989c8.356-2.829,12.925,1.385,16.587,4.779c3.445,3.195,6.698,6.21,14.021,6.21       c2.208,0,3.995,1.787,3.995,3.995S164.333,138.13,162.125,138.13z"></path></g></g></g><g><g><g><path d="M256,138.13c-10.455,0-15.655-4.822-19.45-8.34c-3.597-3.332-4.916-4.322-8.602-3.066       c-18.725,6.292-48.248,11.407-65.822,11.407c-2.208,0-3.995-1.787-3.995-3.995s1.787-3.995,3.995-3.995       c16.568,0,45.541-5.033,63.267-10.989c8.356-2.829,12.924,1.385,16.587,4.779c3.445,3.195,6.698,6.21,14.021,6.21       c2.208,0,3.995,1.787,3.995,3.995S258.208,138.13,256,138.13z"></path></g></g></g><g><g><g><path d="M349.875,138.13c-10.455,0-15.667-4.822-19.475-8.344c-3.589-3.324-4.907-4.314-8.566-3.066       c-18.74,6.296-48.264,11.411-65.834,11.411c-2.208,0-3.995-1.787-3.995-3.995s1.787-3.995,3.995-3.995       c16.572,0,45.541-5.033,63.268-10.989c8.34-2.844,12.896,1.381,16.563,4.771c3.448,3.199,6.71,6.218,14.044,6.218       c2.208,0,3.994,1.787,3.994,3.995S352.083,138.13,349.875,138.13z"></path></g></g></g><g><g><g><path d="M443.75,138.13c-10.455,0-15.667-4.822-19.475-8.344c-3.589-3.324-4.899-4.314-8.566-3.066       c-18.74,6.296-48.264,11.411-65.834,11.411c-2.208,0-3.995-1.787-3.995-3.995s1.787-3.995,3.995-3.995       c16.571,0,45.541-5.033,63.267-10.989c8.356-2.844,12.897,1.381,16.563,4.771c3.449,3.199,6.711,6.218,14.045,6.218       c2.207,0,3.994,1.787,3.994,3.995S445.957,138.13,443.75,138.13z"></path></g></g></g></g><g><g><g><path d="M4.34,377.807c-0.343,0-0.687-0.039-1.034-0.133c-2.13-0.569-3.398-2.762-2.828-4.892l63.915-239.676      c0.569-2.13,2.777-3.386,4.888-2.829c2.13,0.566,3.398,2.754,2.828,4.888L8.194,374.842      C7.718,376.629,6.104,377.807,4.34,377.807z"></path></g></g></g><g><g><g><path d="M507.664,377.807c-1.764,0-3.386-1.178-3.854-2.965l-63.914-239.676c-0.577-2.134,0.694-4.322,2.824-4.888      c2.138-0.562,4.322,0.694,4.884,2.829l63.915,239.676c0.577,2.13-0.694,4.322-2.824,4.892      C508.351,377.76,508.008,377.807,507.664,377.807z"></path></g></g></g><g><g><g><path d="M468.342,362.795c-1.826,0-3.473-1.256-3.894-3.105l-53.928-235.86c-0.491-2.149,0.851-4.291,3.004-4.783      c2.138-0.5,4.291,0.847,4.782,3.004l53.928,235.861c0.492,2.153-0.85,4.291-3.004,4.782      C468.935,362.764,468.639,362.795,468.342,362.795z"></path></g></g></g><g><g><g><path d="M342.51,362.795c-2.044,0-3.784-1.553-3.979-3.628L316.56,123.311c-0.202-2.196,1.413-4.143,3.604-4.35      c2.162-0.23,4.151,1.408,4.354,3.608l21.971,235.864c0.203,2.192-1.412,4.144-3.604,4.346      C342.76,362.787,342.635,362.795,342.51,362.795z"></path></g></g></g><g><g><g><path d="M216.682,362.795c-0.059,0-0.117,0-0.172,0c-2.204-0.094-3.917-1.958-3.823-4.166l9.987-235.857      c0.097-2.204,2.11-3.979,4.158-3.823c2.204,0.093,3.917,1.954,3.823,4.158l-9.987,235.865      C220.579,361.118,218.808,362.795,216.682,362.795z"></path></g></g></g><g><g><g><path d="M90.85,362.795c-0.23,0-0.468-0.023-0.702-0.062c-2.173-0.382-3.62-2.457-3.234-4.634l41.944-235.857      c0.386-2.173,2.442-3.636,4.63-3.233c2.173,0.386,3.621,2.457,3.234,4.63L94.778,359.503      C94.435,361.438,92.749,362.795,90.85,362.795z"></path></g></g></g><g><g><g><path d="M130.172,377.807c-0.175,0-0.351-0.008-0.53-0.031c-2.188-0.297-3.726-2.302-3.433-4.494l31.958-239.672      c0.292-2.185,2.286-3.698,4.486-3.433c2.188,0.292,3.726,2.301,3.433,4.486l-31.957,239.68      C133.858,376.348,132.146,377.807,130.172,377.807z"></path></g></g></g><g><g><g><path d="M256,377.807c-2.208,0-3.995-1.787-3.995-3.995V134.136c0-2.208,1.787-3.995,3.995-3.995s3.995,1.787,3.995,3.995      v239.676C259.995,376.02,258.208,377.807,256,377.807z"></path></g></g></g><g><g><g><path d="M381.832,377.807c-1.981,0-3.69-1.459-3.963-3.465l-31.958-239.68c-0.288-2.185,1.249-4.193,3.433-4.486      c2.217-0.265,4.198,1.249,4.494,3.433l31.958,239.672c0.288,2.192-1.249,4.197-3.434,4.494      C382.176,377.799,382.004,377.807,381.832,377.807z"></path></g></g></g><g><g><g><path d="M507.664,393.785c-2.208,0-3.994-1.787-3.994-3.994v-15.979c0-2.208,1.786-3.994,3.994-3.994s3.994,1.786,3.994,3.994      v15.979C511.658,391.998,509.872,393.785,507.664,393.785z"></path></g></g></g><g><g><g><path d="M4.336,393.785c-2.208,0-3.994-1.787-3.994-3.994v-15.979c0-2.208,1.786-3.994,3.994-3.994s3.995,1.786,3.995,3.994      v15.979C8.331,391.998,6.544,393.785,4.336,393.785z"></path></g></g></g></g></svg>
