<svg fill="#F5D327" xmlns="http://www.w3.org/2000/svg" xmlns:xlink="http://www.w3.org/1999/xlink" version="1.1" x="0px" y="0px" viewBox="0 0 90 90" enable-background="new 0 0 90 90" xml:space="preserve"><path d="M25.475,25.185c0,0-10.418-0.579-11.769,20.256c0,0-1.157,21.415,18.521,31.833c0,0,0-3.859-4.245-10.611  c0,0-8.295-11.575-7.138-23.922c0,0,0.193-4.438,6.945-13.119C27.79,29.622,28.176,26.149,25.475,25.185z"></path><path d="M24.167,24.083c0,0-26.691,6.117-10.473,42c0,0,4.306,9.583,17.248,12.416c0,0-13.816-8.875-17.248-25.664  C13.694,52.836,10.271,28.906,24.167,24.083z"></path><polygon points="26.311,23.875 28.5,27.406 35.571,21.712 33.514,21.712 34.285,18.368 "></polygon><path d="M34.875,20.375c0,0-1.104-4.58,3.783-4.58c0,0,5.467,1.517,1.717,5.517L34.875,20.375z"></path><path d="M35.571,31.937c0,0,3.585-1.937,5.522,0l-1.729-9.453c0,0-0.836-2.508-3.794,0.965V31.937z"></path><path d="M35.571,32.901c0,0,4.373-3.473,6.881,1.157c0,0,6.173,20.643,42.442,19.678c0,0-10.031,6.945-27.974,3.473  C56.921,57.209,36.021,54.894,35.571,32.901z"></path><path d="M34.768,33.307c0,0-6.206,24.482,22.539,29.883c0,0,14.795,3.479,26.756-6.939c0,0-18.188,6.375-31.063,1.5  C53,57.75,35.063,51.229,34.768,33.307z"></path><path d="M27.531,32.719c0,0,4.031,1.125,3.41-2.711l0.559-3.408c0,0-3.808,0.04-2.469,2.901L27.531,32.719z"></path><path d="M28.369,33.48l2.572,0.771c0,0,0.252,17.17,7.329,22.379c0,0,7.093,6.174,20.878,9.645c0,0,4.332,3.475,4.718,4.824  c0,0-6.804,0.275-15.433-2.314c0,0-15.031-3.223-25.473-23.869C22.96,44.917,23.563,31.651,28.369,33.48z"></path><path d="M22.96,45.875c0,0-2.531,13.52,10.442,22.781c0,0,11.779,8.416,29.785,3.656c0,0-15.688-1.204-22.625-5.813  C40.563,66.5,26.691,58.736,22.96,45.875z"></path></svg>