<?xml version="1.0" encoding="iso-8859-1"?>
<!-- Uploaded to: SVG Repo, www.svgrepo.com, Generator: SVG Repo Mixer Tools -->
<svg fill="#990000" version="1.1" id="Layer_1" xmlns="http://www.w3.org/2000/svg" xmlns:xlink="http://www.w3.org/1999/xlink" 
	 viewBox="0 0 512 512" xml:space="preserve">
<g>
	<g>
		<path d="M346.067,178.269l-37.281-12.166l34.525-33.224c3.638-3.501,4.481-8.668,2.149-13.162c-2.331-4.491-7.038-6.771-12-5.813
			l-53.324,10.341l6.363-35.581c0.852-4.76-1.339-9.354-5.582-11.702c-4.241-2.348-9.296-1.765-12.881,1.483l-30.017,27.223
			l-31.71-40.28c-3.344-4.251-8.859-5.481-13.718-3.061c-4.857,2.417-7.197,7.555-5.821,12.788l11.44,43.542l-32.021,0.468
			c-4.916,0.072-9.028,3.163-10.476,7.875c-1.449,4.713,0.218,9.581,4.245,12.402l23.095,16.172l-37.844,17.253
			c-4.6,2.098-7.109,6.697-6.393,11.716c0.716,5.018,4.412,8.731,9.416,9.458l56.206,8.166l-12.394,46.261
			c-1.248,4.659,0.536,9.416,4.548,12.119c4.006,2.702,9.085,2.568,12.936-0.338l29.456-22.24l11.002,42.608
			c1.271,4.922,5.71,8.359,10.793,8.359l0.143-0.001c5.075-0.065,9.458-3.537,10.678-8.471l9.238-37.363l33.47,26.433l13.198-20.019
			l-20.472-38.163l38.819-11.823c4.739-1.443,7.833-5.586,7.882-10.553C353.788,184.01,350.776,179.806,346.067,178.269z
			 M287.543,193.985c-3.205,0.975-5.776,3.313-7.056,6.412c-1.278,3.099-1.103,6.57,0.482,9.522l4.537,8.457l-4.424-3.495
			c-2.985-2.357-6.917-3.029-10.517-1.795c-3.604,1.233-6.3,4.174-7.213,7.867l-2.804,11.34l-4.151-16.076
			c-0.933-3.614-3.594-6.504-7.118-7.733c-1.203-0.419-2.449-0.626-3.685-0.626c-2.388,0-4.745,0.768-6.706,2.25l-16.916,12.772
			l7.248-27.057c0.823-3.071,0.292-6.356-1.457-9.013c-1.75-2.658-4.56-4.446-7.709-4.904l-31.105-4.519l21.097-9.617
			c3.681-1.678,6.101-5.09,6.471-9.125c0.37-4.034-1.388-7.828-4.702-10.149l-10.831-7.584l11.791-0.172
			c3.448-0.05,6.621-1.655,8.71-4.403c2.088-2.747,2.783-6.237,1.907-9.575l-1.433-5.453l5.937,7.542
			c1.905,2.419,4.758,3.954,7.829,4.212c3.059,0.261,6.136-0.781,8.418-2.849L258.8,116.92l-3.47,19.403
			c-0.646,3.618,0.533,7.32,3.154,9.901c2.62,2.58,6.338,3.701,9.941,3.003l32.247-6.254l-20.717,19.937
			c-2.844,2.736-4.014,6.67-3.131,10.524c0.882,3.851,3.649,6.881,7.402,8.106l21.329,6.959L287.543,193.985z"/>
	</g>
</g>
<g>
	<g>
		<circle cx="85.886" cy="237.693" r="26.651"/>
	</g>
</g>
<g>
	<g>
		<path d="M237.78,394.875l-51.822-26.342c-2.169-1.103-4.567-1.676-6.998-1.676c-0.046,0-0.09,0-0.136,0l-76.669,0.702
			l58.235-12.981l10.06-9.659l2.484,6.996c6.099-0.056,12.16-0.645,19.818,3.25l17.186,8.737l-18.556-52.268
			c-1.768-4.983-5.966-8.713-11.122-9.884c-5.156-1.17-10.553,0.378-14.302,4.107l-22.805,22.687
			c-5.397-21.941-3.518-14.304-8.476-34.467c27.494-7.605,24.589-6.801,33.071-9.148c5.631-1.557,9.504-6.715,9.431-12.556
			l-0.579-46.062c-0.087-6.977-5.786-12.698-12.855-12.698c-0.054,0-0.11,0-0.165,0.001c-7.183,0.09-12.785,6.046-12.696,13.021
			l0.455,36.148l-27.106,7.498c-4.105-2.875-9.374-4.044-14.622-2.754c-34.267,8.427-31.755,7.727-33.61,8.474l13,6.529
			l-47.831-10.208c-17.47-44.218-16.391-41.628-17.006-42.769c-3.172-5.859-10.136-8.164-16.024-5.837
			c-6.543,2.585-9.858,10.048-7.235,16.685c2.555,6.468,16.836,42.615,18.878,47.782c1.586,4.013,5.071,6.954,9.276,7.851
			l52.818,11.272l-14.015,0.286c1.915,7.787,17.232,70.067,19.597,79.687l0.023-0.03c1.896,6.606,8,11.251,14.961,11.171
			l72.898-0.668l48.459,24.633c7.614,3.869,16.895,0.817,20.749-6.763C248.405,408.025,245.377,398.736,237.78,394.875z"/>
	</g>
</g>
<g>
	<g>
		<path d="M349.912,386.86l-23.276-24.687l-1.597,12.765L279.241,403.7c-8.075,5.071-10.508,15.727-5.439,23.801
			c5.076,8.081,15.735,10.505,23.801,5.438c57.7-36.238,53.557-33.466,55.396-35.204L349.912,386.86z"/>
	</g>
</g>
<g>
	<g>
		<path d="M442.107,159.875c-13.748-9.062-32.24-5.264-41.303,8.484c-9.076,13.766-5.234,32.26,8.483,41.303
			c13.712,9.038,32.225,5.289,41.304-8.483C459.654,187.431,455.855,168.939,442.107,159.875z"/>
	</g>
</g>
<g>
	<g>
		<path d="M508.684,201.854c-5.075-6.116-14.146-6.957-20.257-1.884l-34.476,28.61c-18.019,0.33-14.188,0.26-31.91,0.585
			c-1.899-1.806,0.115-0.327-32.793-22.02c-9.295-6.127-21.785-3.548-27.901,5.731l-57.258,86.859l0.043-0.004
			c-3.918,6.472-3.244,15,2.197,20.772l55.948,59.34l16.604,58.503c2.611,9.196,12.174,14.49,21.32,11.894
			c9.173-2.604,14.497-12.149,11.894-21.32l-17.757-62.563c-0.756-2.667-2.146-5.112-4.046-7.129l-58.842-62.409l45.442,30.924
			l19.732-29.933l-18.459-44.44l34.989,48.236c2.91,3.896,7.639,6.014,12.316,5.759l58.54-3.18
			c7.928-0.433,14.017-7.223,13.578-15.151c-0.446-8.164-7.655-14.114-15.151-13.578l-49.689,2.718l-32.726-43.847l29.37,23.481
			c11.073-0.203,17.778-0.326,30.125-0.553c3.264-0.06,6.411-1.228,8.922-3.313l38.356-31.831
			C512.915,217.037,513.758,207.968,508.684,201.854z"/>
	</g>
</g>
</svg>