<svg fill="#006600" xmlns="http://www.w3.org/2000/svg" xmlns:xlink="http://www.w3.org/1999/xlink" xmlns:a="http://ns.adobe.com/AdobeSVGViewerExtensions/3.0/" version="1.1" x="0px" y="0px" viewBox="-13.591 -0.559 100 100" enable-background="new -13.591 -0.559 100 100" xml:space="preserve"><path d="M36.076,87.15c2.732-1.021,7.715-3.151,12.428-6.381c7.665-5.245,11.905-15.764,11.905-22.998c0-2.188,0-7.33,0-7.33  l-24.268,0.205L36.076,87.15z"></path><path d="M11.817,24.441C11.78,31.534,11.729,42,11.708,50.548l24.295-0.101l0.086-35.792C30.9,18.086,22.31,22.729,11.817,24.441z"></path><path d="M72.278,19.521l-0.031-6.08h-3.49c-16.622,0-30.129-11.37-30.259-11.481L36.215,0l-2.284,1.954  C33.797,2.069,20.29,13.441,3.668,13.441h-3.49l-0.031,6.08C0.106,27.021,0,46.93,0,57.771c0,10.16,5.285,24.713,16.89,32.657  c7.647,5.233,15.94,7.984,18.3,8.703l1.022,0.312l1.022-0.311c2.36-0.719,10.656-3.47,18.3-8.701  c11.604-7.944,16.89-22.494,16.89-32.654C72.425,46.936,72.318,27.021,72.278,19.521z M51.571,84.638  c-5.975,4.088-12.427,6.489-15.359,7.456c-2.932-0.966-9.382-3.366-15.358-7.456C11.771,78.419,7.018,66.415,7.018,57.771  c0-10.479,0.1-29.476,0.143-37.474c13.541-1.055,24.483-7.929,29.052-11.252c4.569,3.323,15.511,10.197,29.052,11.252  c0.043,7.999,0.143,26.995,0.143,37.474C65.407,66.415,60.654,78.419,51.571,84.638z"></path></svg>