<svg xmlns="http://www.w3.org/2000/svg" xmlns:xlink="http://www.w3.org/1999/xlink" viewBox="0 0 24 24" version="1.1" x="0px" y="0px"><g stroke="none" stroke-width="1" fill="none" fill-rule="evenodd"><g fill="#3322ff"><path d="M12.0002,22.0016 C6.8572,22.0016 3.0762,20.5186 2.1552,19.7056 C2.4802,19.5146 3.1742,19.2276 4.4382,18.9566 C4.4572,19.0006 4.4862,19.0386 4.5082,19.0806 C4.5472,19.1556 4.5822,19.2336 4.6322,19.3006 C4.6942,19.3846 4.7692,19.4566 4.8462,19.5276 C4.8672,19.5466 4.8822,19.5706 4.9042,19.5886 C4.9972,19.6656 5.1012,19.7296 5.2092,19.7856 C5.2202,19.7916 5.2292,19.8006 5.2402,19.8056 C5.3092,19.8396 5.3852,19.8576 5.4582,19.8816 C5.5152,19.9006 5.5682,19.9276 5.6282,19.9406 C5.6382,19.9436 5.6482,19.9446 5.6592,19.9466 C6.1012,20.0446 6.5382,20.1266 6.9682,20.2006 C7.1192,20.2276 7.2692,20.2526 7.4202,20.2766 C7.4672,20.2846 7.5172,20.2946 7.5642,20.3016 C10.8562,20.9416 14.0762,20.8776 16.5782,20.1356 C16.9772,20.0426 17.3642,19.9376 17.7382,19.8176 C17.8592,19.7796 17.9702,19.7266 18.0742,19.6666 C18.1072,19.6476 18.1362,19.6246 18.1682,19.6036 C18.2362,19.5576 18.3022,19.5096 18.3622,19.4556 C18.3922,19.4276 18.4202,19.3986 18.4492,19.3686 C18.5022,19.3126 18.5502,19.2536 18.5952,19.1916 C18.6182,19.1586 18.6412,19.1276 18.6612,19.0936 C18.7042,19.0236 18.7392,18.9506 18.7702,18.8746 C18.7792,18.8516 18.7942,18.8316 18.8032,18.8086 C20.5542,19.1156 21.4592,19.4756 21.8462,19.7046 C20.9272,20.5176 17.1442,22.0016 12.0002,22.0016 M18.4792,16.7326 C18.2872,16.1446 18.0872,15.6246 17.8622,15.1706 L16.2302,15.9746 C15.9712,16.0366 15.6982,16.1426 15.3962,16.2566 C14.5092,16.5896 13.3702,17.0186 11.7172,17.0186 C10.3972,17.0186 8.7502,16.7466 6.6412,15.9346 L6.4432,15.8586 L5.9802,15.3956 L5.0402,16.8136 C1.6192,17.3886 0.0002,18.2906 0.0002,19.6446 C0.0002,22.1386 6.3352,24.0016 12.0002,24.0016 C17.6652,24.0016 24.0002,22.1386 24.0002,19.6446 C24.0002,18.7386 23.4002,17.4706 18.4792,16.7326"></path><path d="M7.5559,14.1427 C11.4639,15.5997 13.3249,14.8987 14.6909,14.3847 C15.0199,14.2607 15.3319,14.1427 15.6509,14.0587 L18.0719,12.8477 C18.1669,12.3047 18.2119,11.7537 18.2069,11.1997 C18.1979,10.1927 17.9699,9.1787 17.5299,8.1847 L17.0749,7.1547 C16.7699,6.4657 16.8099,5.7067 17.1849,5.0727 C17.9009,3.8627 18.2779,2.8507 18.3069,2.0647 C18.3239,1.6357 18.1419,1.2257 17.8099,0.9397 C17.4619,0.6417 16.9819,0.5157 16.5189,0.6007 C15.3549,0.8217 12.4869,1.7047 10.9839,5.1027 L9.1969,8.9837 C8.8949,9.6397 8.3319,10.1987 7.8239,10.6587 C7.1239,11.2877 6.9979,12.3167 7.5139,13.0817 L7.1079,13.6947 L7.5559,14.1427 Z"></path></g></g></svg>