<svg fill="#00FF00" xmlns="http://www.w3.org/2000/svg" xmlns:xlink="http://www.w3.org/1999/xlink" version="1.1" x="0px" y="0px" viewBox="0 0 100 100" style="enable-background:new 0 0 100 100;" xml:space="preserve"><path d="M97.4,78.4c-0.1,1.1-11.9,3.8-23.1-0.8c-8.5-3.4-14.5-11.7-17-16.3c0.1-0.2,0.2-0.4,0.2-0.6c0.3-1.4-0.5-2.6-1.4-3.7  c-0.3-0.4-0.6-0.7-0.9-0.9c0,0,0.1,0,0.2-0.1c2.1,0.6,4.9,0.6,6.8,1.1c2.5,0.6,5,1.3,7.4,2.1c4.8,1.6,9.5,3.6,13.7,6.6  C88.5,69.5,92.6,74.4,97.4,78.4C91.6,72.4,86.3,66,79,61.9c-3.6-2-7.1-3.5-11.1-4.6c-2.1-0.5-5.8-1.4-8.2-1.4  c-1.1,0-2.1-0.1-3.1-0.2c1.5-0.6,3.2-1.3,4.6-1.9c0.7-0.3,1.4-0.6,2-0.8c2.6-1.2,3.9-2.8,5.3-5.2c3.4-0.2,7.2,1,12.3,4  C89.9,57,95.5,69.3,96,72.8C96.5,76.4,97.5,77.3,97.4,78.4z"></path><path d="M49.5,50.2c-0.3-0.1-0.7-0.2-1.2-0.2h-0.1c-2.8,0-3.8,3.1-4.3,5.9c-6.5-0.3-20.8-7.2-27.7-11C8.2,40.4,4,43.7,6.8,40.6  c2.8-3.1,18.1-11.4,31.4-7.3c10.4,3.2,11.6,12.6,11.6,16.7c-0.9-1.6-2.2-3-3.6-4.3c-5.3-4.7-12.4-7.3-19.5-7.8  c-6.8-0.5-14.5,0.7-20.6,3.8C15,38.7,24.6,37,33.7,40c2.8,0.9,5.5,2.2,8,3.7C44.7,45.4,47.6,47.4,49.5,50.2z"></path><path d="M70.9,37.8c-1.4,4.8-3,12-8.1,14.3c-2.2,1-5.9,2.7-8.5,3.4c-0.1-0.1-0.3-0.2-0.4-0.3c-0.2-0.1-0.4-0.3-0.6-0.4  c2.1-2.2,10.4-7.9,13.3-15.7c-3.3,5.6-7.8,10.4-13.2,14.1c-0.3,0.3-0.7,0.4-1,0.7c0-0.1-0.1-0.1-0.2-0.2c-0.1-0.2-0.2-0.3-0.4-0.7  c-0.1-0.4-0.3-0.9-0.5-1.3c-0.4-2.9-1.9-6.8,0.8-9.5c5.6-5.6,16.6-8,18.2-9.3c0.4-0.3,0.7-0.4,0.9-0.4C72,32.5,72,34.1,70.9,37.8z"></path><path d="M53.8,63c-3.5,1.7-7.2,2.4-9.7,2.4c-2.1,0-3.2-0.5-2.6-1.4c0.7-1.1,2.8-3.5,3.1-5.7c0.4-3.8,1.2-7.3,3.6-7.3h0.1  c2.5,0,2.4,2.4,3.1,3.5c0.1,0.2,0.3,0.4,0.4,0.5c0,0.2-0.1,0.4-0.1,0.6c-0.7,2.9-3.1,4.8-5.3,6.6c1.4-0.6,2.9-1.8,4-3  c1-1,1.8-2.3,2.2-3.6c0.8,0.6,1.7,0.8,2.8,2.2C57,59.8,57.5,61.3,53.8,63z"></path></svg>
