<svg fill="#000" xmlns="http://www.w3.org/2000/svg" xmlns:xlink="http://www.w3.org/1999/xlink" viewBox="0 0 96 96" version="1.1" x="0px" y="0px"><title>Baer_filled</title><desc>Created with Sketch.</desc><g stroke="none" stroke-width="1" fill="none" fill-rule="evenodd"><g fill="#000"><path d="M26,49 L31,53 L36,57 L35,63 L25,70 L15,70 L19,67 L26,55 L26,49 Z M51,57 L56,58 L67,63 L64,69 L55,69 L58,67 L51,57 Z M9,40.1746871 L14,37.1921558 L15,34.2096245 L24,27.2503848 L24,30.2329161 L32,30.2329161 L39,27.2503848 L48,29.238739 C57.3168904,27.2471154 63.6502237,26.5843307 67,27.2503848 C70.3497763,27.916439 73.6831096,31.2303627 77,37.1921558 L88,70 L77,70 C79.4432319,68.2435674 80.4432319,67.2493903 80,67.0174687 C79.3351521,66.6695863 71.2963655,63.1745836 64,59.0640519 C58.8642437,56.1707362 53.5309103,54.5137744 48,54.0931665 L48,64.0349374 L47,70 L37,70 L40,67.0174687 L40,60.058229 L38,56.0815206 L26,46.1397497 L18,45.1455726 L11,43.1572184 L9,40.1746871 Z"></path></g></g></svg>
