<svg fill="#A37511" xmlns="http://www.w3.org/2000/svg" xmlns:xlink="http://www.w3.org/1999/xlink" version="1.1" x="0px" y="0px" viewBox="0 0 5 5" enable-background="new 0 0 5 5" xml:space="preserve"><g><g><path fill="#A37511" d="M0.755,1.805C0.635,1.61,0.819,1.397,0.959,1.273c0.14-0.126,0.303-0.229,0.479-0.298    C1.511,0.947,1.6,0.912,1.678,0.932c0.09,0.023,0.036,0.175,0.012,0.225C1.627,1.288,1.502,1.384,1.395,1.476    c-0.078,0.067-0.151,0.14-0.233,0.202C1.094,1.729,1.022,1.778,0.942,1.81C0.887,1.832,0.807,1.854,0.762,1.8    c-0.025-0.027-0.07,0.006-0.047,0.033c0.065,0.076,0.166,0.062,0.249,0.03c0.1-0.039,0.19-0.105,0.272-0.174    C1.27,1.664,1.299,1.635,1.33,1.607C1.381,1.56,1.436,1.517,1.489,1.471c0.104-0.09,0.216-0.193,0.269-0.325    C1.787,1.066,1.81,0.94,1.723,0.89C1.651,0.849,1.557,0.877,1.486,0.897c-0.177,0.056-0.338,0.15-0.48,0.264    C0.814,1.311,0.549,1.58,0.709,1.838C0.728,1.87,0.773,1.835,0.755,1.805L0.755,1.805z"></path></g><g><path fill="#A37511" d="M0.896,1.658c0.059-0.142,0.16-0.255,0.277-0.351C1.257,1.24,1.347,1.176,1.441,1.121    c0.026-0.015,0.072-0.042,0.098-0.039c0.004-0.001-0.006-0.004-0.006-0.011c0.001,0.006-0.002,0.011-0.004,0.017    C1.521,1.117,1.501,1.139,1.48,1.161C1.458,1.182,1.435,1.203,1.41,1.225C1.383,1.247,1.36,1.273,1.338,1.302    c-0.05,0.058-0.101,0.113-0.152,0.169c-0.043,0.047-0.088,0.09-0.139,0.126C1.002,1.628,0.939,1.661,0.886,1.639    C0.851,1.624,0.827,1.675,0.861,1.689c0.113,0.047,0.228-0.046,0.305-0.118c0.043-0.04,0.082-0.085,0.122-0.129    c0.056-0.058,0.102-0.125,0.16-0.178c0.047-0.041,0.098-0.08,0.127-0.136c0.017-0.032,0.025-0.081-0.013-0.101    C1.531,1.013,1.486,1.034,1.46,1.049C1.417,1.067,1.378,1.093,1.341,1.117C1.139,1.251,0.938,1.404,0.844,1.635    C0.831,1.668,0.881,1.691,0.896,1.658L0.896,1.658z"></path></g><g><path fill="#A37511" d="M1.084,1.521C1.112,1.496,1.136,1.47,1.166,1.447C1.195,1.426,1.163,1.38,1.134,1.4    C1.103,1.423,1.078,1.449,1.051,1.476C1.04,1.486,1.036,1.501,1.045,1.514C1.054,1.525,1.073,1.532,1.084,1.521L1.084,1.521z"></path></g><g><path fill="#A37511" d="M0.699,1.832C0.721,1.886,0.767,1.93,0.811,1.968c0.049,0.041,0.104,0.075,0.156,0.111    C1.104,2.173,1.233,2.28,1.36,2.391c0.258,0.226,0.5,0.472,0.745,0.714c0.235,0.233,0.476,0.463,0.736,0.668    c0.064,0.05,0.131,0.099,0.196,0.145c0.069,0.047,0.134,0.095,0.194,0.152C3.29,4.127,3.346,4.183,3.406,4.234    c0.06,0.05,0.112,0.104,0.154,0.169C3.578,4.436,3.624,4.401,3.605,4.37C3.566,4.307,3.515,4.252,3.457,4.203    C3.397,4.15,3.339,4.097,3.281,4.04C3.164,3.922,3.019,3.836,2.887,3.735C2.619,3.528,2.374,3.291,2.135,3.053    C1.896,2.819,1.662,2.581,1.412,2.361C1.285,2.249,1.156,2.144,1.018,2.046C0.97,2.012,0.919,1.98,0.872,1.942    c-0.046-0.034-0.098-0.076-0.12-0.132C0.738,1.775,0.686,1.797,0.699,1.832L0.699,1.832z"></path></g><g><path fill="#A37511" d="M3.589,4.417C3.84,4.479,4.085,4.33,4.244,4.147c0.08-0.091,0.146-0.198,0.183-0.315    c0.019-0.059,0.032-0.12,0.04-0.182C4.47,3.608,4.474,3.54,4.439,3.506C4.288,3.354,4.135,3.203,3.981,3.054    C3.864,2.94,3.742,2.83,3.631,2.714c-0.113-0.116-0.22-0.237-0.336-0.351C3.237,2.306,3.178,2.252,3.112,2.2    C3.048,2.146,2.976,2.1,2.908,2.049c-0.136-0.102-0.261-0.215-0.386-0.33C2.4,1.603,2.278,1.485,2.167,1.356    c-0.108-0.124-0.21-0.252-0.326-0.368c-0.035-0.036-0.07-0.067-0.109-0.1C1.704,0.865,1.667,0.909,1.696,0.933    C1.823,1.038,1.93,1.166,2.038,1.292C2.144,1.419,2.256,1.54,2.376,1.655C2.497,1.772,2.622,1.89,2.751,1.998    c0.131,0.107,0.273,0.199,0.4,0.311c0.123,0.106,0.232,0.226,0.344,0.345c0.11,0.119,0.228,0.231,0.344,0.344    c0.185,0.175,0.365,0.354,0.543,0.532C4.39,3.534,4.396,3.541,4.4,3.547C4.402,3.55,4.403,3.55,4.404,3.552    c-0.005-0.006-0.007-0.01-0.003,0.001C4.405,3.56,4.406,3.565,4.407,3.571c0.014,0.064-0.006,0.133-0.021,0.192    C4.359,3.88,4.303,3.984,4.23,4.076C4.084,4.262,3.844,4.422,3.599,4.36C3.562,4.353,3.554,4.407,3.589,4.417L3.589,4.417z"></path></g><g><path fill="#A37511" d="M1.006,1.832c0.115,0.1,0.24,0.186,0.359,0.277c0.058,0.044,0.114,0.09,0.164,0.142    c0.05,0.051,0.093,0.111,0.138,0.166c0.094,0.114,0.211,0.2,0.317,0.297c0.109,0.101,0.235,0.18,0.337,0.288    c0.024,0.027,0.062-0.018,0.036-0.044c-0.1-0.105-0.223-0.181-0.33-0.279C1.92,2.576,1.801,2.491,1.708,2.376    C1.664,2.324,1.622,2.27,1.576,2.219C1.526,2.165,1.47,2.118,1.41,2.071C1.288,1.977,1.158,1.891,1.042,1.788    C1.014,1.764,0.978,1.81,1.006,1.832L1.006,1.832z"></path></g><g><path fill="#A37511" d="M3.214,3.848C3.32,3.944,3.423,4.044,3.537,4.134c0.101,0.082,0.188,0.184,0.298,0.255    c0.029,0.02,0.066-0.023,0.036-0.043c-0.106-0.07-0.19-0.171-0.289-0.248C3.465,4.005,3.358,3.902,3.25,3.804    C3.223,3.779,3.188,3.823,3.214,3.848L3.214,3.848z"></path></g><g><path fill="#A37511" d="M3.012,3.078C3.1,3.155,3.19,3.224,3.283,3.295c0.091,0.069,0.179,0.145,0.268,0.222    c0.042,0.036,0.087,0.071,0.131,0.105c0.05,0.034,0.102,0.063,0.15,0.098c0.097,0.066,0.19,0.138,0.294,0.196    c0.021,0.012,0.051-0.015,0.039-0.037C4.11,3.774,4.039,3.678,3.958,3.593c-0.041-0.046-0.085-0.082-0.143-0.11    C3.753,3.451,3.688,3.43,3.637,3.379C3.611,3.352,3.576,3.396,3.601,3.422C3.646,3.467,3.703,3.493,3.76,3.52    c0.056,0.024,0.103,0.055,0.146,0.099C3.987,3.699,4.058,3.8,4.111,3.9c0.013-0.012,0.025-0.024,0.038-0.037    C4.051,3.808,3.961,3.74,3.868,3.675c-0.047-0.03-0.095-0.06-0.141-0.09C3.679,3.55,3.632,3.511,3.587,3.472    C3.498,3.396,3.41,3.321,3.319,3.251C3.226,3.18,3.134,3.111,3.048,3.034C3.021,3.01,2.984,3.054,3.012,3.078L3.012,3.078z"></path></g><g><path fill="#A37511" d="M2.579,2.266C2.825,2.44,3.017,2.682,3.247,2.877c0.027,0.024,0.063-0.02,0.035-0.043    c-0.23-0.195-0.42-0.437-0.666-0.613C2.585,2.2,2.55,2.243,2.579,2.266L2.579,2.266z"></path></g><g><path fill="#A37511" d="M2.827,2.671c0.048,0.038,0.087,0.084,0.131,0.126c0.027,0.024,0.062-0.021,0.036-0.044    C2.949,2.71,2.911,2.665,2.863,2.626C2.834,2.604,2.799,2.647,2.827,2.671L2.827,2.671z"></path></g><g><path fill="#A37511" d="M1.651,1.239c0.027,0.132,0.15,0.225,0.248,0.306c0.127,0.104,0.22,0.243,0.358,0.338    c0.029,0.02,0.066-0.023,0.036-0.044C2.164,1.75,2.067,1.623,1.952,1.517C1.906,1.473,1.854,1.435,1.809,1.39    C1.766,1.347,1.721,1.293,1.708,1.233C1.699,1.198,1.644,1.203,1.651,1.239L1.651,1.239z"></path></g><g><path fill="#A37511" d="M1.483,1.456c0.067,0.064,0.124,0.139,0.175,0.215c0.021,0.031,0.067-0.003,0.046-0.033    C1.65,1.558,1.591,1.48,1.52,1.412C1.493,1.386,1.459,1.432,1.483,1.456L1.483,1.456z"></path></g><g><path fill="#A37511" d="M2.283,1.477C2.26,1.349,2.25,1.218,2.233,1.088c-0.008-0.061-0.013-0.119-0.024-0.18    C2.198,0.846,2.186,0.784,2.192,0.72C2.194,0.685,2.14,0.675,2.136,0.711C2.129,0.772,2.138,0.834,2.148,0.896    c0.011,0.062,0.02,0.125,0.028,0.188c0.015,0.133,0.025,0.267,0.051,0.398C2.234,1.519,2.291,1.512,2.283,1.477L2.283,1.477z"></path></g><g><path fill="#A37511" d="M2.475,0.787c0.051,0.079,0.083,0.17,0.109,0.262c0.027,0.093,0.051,0.188,0.068,0.284    c0.021,0.115,0.047,0.23,0.072,0.344c0.027,0.114,0.057,0.228,0.084,0.341c0.009,0.035,0.066,0.028,0.058-0.007    C2.838,1.898,2.808,1.785,2.78,1.671C2.756,1.553,2.729,1.435,2.707,1.316C2.688,1.22,2.664,1.121,2.638,1.027    c-0.028-0.097-0.062-0.19-0.117-0.274C2.501,0.722,2.456,0.755,2.475,0.787L2.475,0.787z"></path></g><g><path fill="#A37511" d="M2.145,0.689C2.133,0.781,2.239,0.827,2.312,0.845C2.378,0.859,2.488,0.859,2.51,0.776    c0.018-0.074-0.077-0.122-0.133-0.141c-0.076-0.024-0.179-0.03-0.231,0.039C2.123,0.705,2.166,0.74,2.188,0.712    c0.037-0.047,0.106-0.039,0.157-0.026c0.036,0.008,0.106,0.036,0.108,0.077c0,0-0.004,0.008-0.01,0.014    C2.438,0.785,2.43,0.789,2.42,0.791c-0.027,0.009-0.061,0.004-0.088,0C2.293,0.782,2.194,0.755,2.201,0.699    C2.206,0.662,2.148,0.652,2.145,0.689L2.145,0.689z"></path></g></g></svg>