<svg fill="#924607" xmlns="http://www.w3.org/2000/svg" xmlns:xlink="http://www.w3.org/1999/xlink" version="1.1" x="0px" y="0px" viewBox="0 0 100 100" enable-background="new 0 0 100 100" xml:space="preserve"><g><path fill="#924607" d="M90.4,21.4c-1.5-0.2-3.1,0.7-3.7,2.1c-0.6,1.4-0.1,3.2,1.1,4.2l7.2-1L90.4,21.4z"></path><path fill="#924607" d="M85.4,23.3c0.9-2.7,4.1-3,4.1-3c-14.7-19.1-29.2,7.4-29.2,7.4C44.8,34.8,22.1,67,22.1,67   C5.2,76.1,5,86.3,5,86.3s0.1,0,0.3,0c2.7-1,6.5-3.2,9.9-7.9c0,0-2.1,4.5-5.7,8.2c1,0,2-0.1,2.8-0.3c2.5-0.8,10.3-13.8,14.1-16.3   c3.8-2.5,8.2-4.4,10.1-6.3c2-1.9,15.1-15.1,15.1-15.1c-3.1,6-19.3,20.4-14.1,20.1c5.2-0.3,30.1-18,30.1-18   c-2.4,5.6-19.3,14.9-19.3,14.9c2.7,0.2,5.9-0.3,8.4-0.7c2.8,2.8,4.5,3.5,5,4c0.6,0.6-3.6,1.1-4.5,1.6c-0.9,0.5-3.1,0.2-3.1,2.2   c0,0,2.2-0.9,4.4,0c0,0,3-0.2,4.1-1.7l1.9-0.8c0,0,0.4,0.4,1.5,0.4c2.7,2.7,5.2,5.3,5.5,5.6c0.6,0.6-3.6,1.1-4.5,1.6   c-0.9,0.5-3.1,0.2-3.1,2.2c0,0,2.2-0.9,4.4,0c0,0,3-0.2,4.1-1.7l1.9-0.8c0,0,0.8,0.8,3.3,0.2c2.5-0.6,4.7-0.9,4.7-0.9   s0-1.9,2.5-0.5c0,0-1.9-1.4-3.1-1.3c-1.3,0.2-1.9,0.5-1.9,0.5l-5.3-0.5l-5-5c1.8-0.4,3.1-0.6,3.1-0.6s0-1.9,2.5-0.5   c0,0-1.9-1.4-3.1-1.3c-1.3,0.2-1.9,0.5-1.9,0.5l-2.7-0.2l-4.5-4.5c18.8-7.4,21.9-19.2,21.7-24.8c-0.2-5.8,2.1-9.6,2.1-9.6   S84.5,25.9,85.4,23.3z M79.5,23.1c-1,0-1.7-0.8-1.7-1.7c0-1,0.8-1.7,1.7-1.7c1,0,1.7,0.8,1.7,1.7C81.2,22.4,80.4,23.1,79.5,23.1z"></path></g></svg>