<svg fill="#665544" xmlns="http://www.w3.org/2000/svg" xmlns:xlink="http://www.w3.org/1999/xlink" version="1.1" x="0px" y="0px" viewBox="0 0 100 100" enable-background="new 0 0 100 100" xml:space="preserve"><polygon fill="none" points="67.734,94.006 67.79,93.936 67.677,93.93 "/><polygon points="52.194,84.846 48.189,79.934 48.547,84.703 46.77,87.61 40.508,87.916 37.564,90.76 40.633,89.686 45.074,90.033   48.789,92.052 47.255,88.902 50.081,88.176 "/><polygon points="67.706,74.948 57.672,67.907 69.99,62.834 77.456,39.886 85.772,38.663 77.294,35.46 85.248,34.018 76.891,31.261   85.548,28.266 76.002,27.951 81.173,22.748 74.549,24.72 78.564,18.217 72.126,22.055 75.862,13.206 70.35,19.148 73.633,8.65   67.847,17.21 71.48,5.081 65.128,16.427 52.907,29.792 50.243,42.551 44.752,55.147 36.272,60.882 29.853,67.075 28.521,71.622   29.844,76.013 32.194,77.331 31.104,75.739 32.72,72.162 37.04,72.647 39.906,75.013 44.752,75.498 48.063,78.243 48.063,78.245   52.741,83.977 52.721,84.017 52.745,83.977 55.491,90.089 52.221,90.938 51.332,92.795 53.109,92.229 55.572,91.785 57.954,92.714   60.337,94.818 59.771,93.183 57.429,90.679 57.066,88.902 58.229,87.317 59.448,80.746 61.871,86.157 61.91,93.707 64.751,87.707   67.819,94.007 68.681,88.03 72.503,94.078 73.311,88.945 77.295,94.614 76.863,89.322 84.724,94.919 85.772,94.919 71.749,78.556   "/><polygon fill="none" points="67.763,94.078 67.819,94.007 67.706,94.002 "/><polygon points="44.105,54.583 43.46,48.203 36.677,34.395 27.35,24.986 14.228,22.257 25.568,28.057 14.514,26.286 27.12,31.326   15.979,31.832 27.476,34.187 17.337,36.877 29.287,36.373 21.486,42.862 30.586,39.081 23.553,45.842 23.595,45.901 31.629,43.681   34.94,51.757 34.819,60.68 "/></svg>