<svg fill="#774433" xmlns="http://www.w3.org/2000/svg" xmlns:xlink="http://www.w3.org/1999/xlink" version="1.1" x="0px" y="0px" viewBox="0 0 66 66" enable-background="new 0 0 66 66" xml:space="preserve"><g><path d="M64.4,50.2c0,0-1.3,9.3-2.2,0.6c0,0-1.9,11.5-1.9-0.1c0,0-3.2,13.2-2.2,1.3c0,0-2.4,9.4-2.2-0.3c0,0-2.2,6.2-2-1   c0,0-2.3,2.3-1.4-3.4c0,0-2.6-0.2-1.2-2.8c0,0-1.3,0.1-0.9-1.1c0,0-2.6,0.4-3.1-1.2c0,0-2.7,0.7-3.1-1.1c0,0-1.8,0.4-3.1-0.9   c-0.1-0.1-2.3,0.3-2.7-1.2c0,0-2.4,0.5-3-1.2c0,0-0.9,0.8-1.7,0.3l-4.2,5.3c-0.6,0.7-1.3,1.3-2.2,1.7c-0.7,0.3-1.4,0.3-1.1-0.8   c0,0-1.9,1-2.1-0.3c0,0-1.7,0.2-1.3-0.9c0,0-2,0.2-1.4-1.6c0,0-1.1-0.2-0.8-1.2c0-0.1-0.1-0.3-0.2-0.2c-1.1,0.4-1-1.3,1-2.4l5.8-4   c-1.7,0.2-2.5-2.1-2.5-2.1c-1.5,0.2-2-2.1-2.1-2.2c-1.6-0.7-2-2.6-2-2.6c-1.8,0.4-2.3-2.5-2.3-2.5c-1.6,0.2-2.3-2.6-2.3-2.6   c-0.9,0.9-1.3-0.4-1.3-0.4c-1.8,2.5-3,0.1-3,0.1c-4.7,3.5-3.5,0.2-3.5,0.2c-6.3,3.6-1.7-1.4-1.7-1.4c-8.1,4.5-1.7-1.6-1.2-2   c-10,6.4,0.3-2.8,0.3-2.8C-4,20.4,4.2,14,4.9,13.5c-4,1.6-4,0.9-3.1-0.1c1.4-1.6,3.4-2.6,5.6-2.9c4-0.7,11.6-1.9,17.5-1.3   c1.7,0.2,3.3,1.2,4.1,2.7c2,3.6,2.5,8.1,9.8,11.1c0.2,0.1,0.5,0.1,0.7-0.1c0.9-0.6,3.6-2.2,5.7-1c0,0,1.8-0.2,1.6,1.5   c0,0-0.6-0.4-1.2,0.4c-0.7,0.9-1.1,2-1.3,2.7c-0.1,0.4,0.1,0.8,0.4,1c3.2,1.9,7.3,2.1,11.8,1.8c1.8-0.1,3.5,0.9,4.2,2.5   C64.2,38.9,66.1,45.3,64.4,50.2z"/></g></svg>