<svg xmlns="http://www.w3.org/2000/svg" xmlns:xlink="http://www.w3.org/1999/xlink" version="1.1" x="0px" y="0px" viewBox="0 0 100 100" style="enable-background:new 0 0 100 100;" xml:space="preserve"><g><path d="M4.3,19.8c-0.1-2.4,1.6-3,1.1-3.5C5,15.7-2.2,19.5,5.7,28.3c0,0,0.4-2.6,2-4.1C7.6,24.2,4.4,22.2,4.3,19.8z"></path><path d="M95.8,54c0,0,0.7-3.5,0-9.1c-0.7-5.5-5.7-8.4-5.7-8.4c-5-6.1-18.7-3.8-24.1-8.8s-7.1-10.1-19.6-13.3s-17.3-3-20.7-2   c-4.7,1.4-6.1,8.1-6.1,8.1s3.5-0.3,5.6,1.6c1-0.9,0.2-4.7,0.2-4.7s-0.8-2.3,0.3-3c1-0.8,2.1,0.7,2.1,0.7c3.1,3.4,6.9,7.8,1.8,13.3   c0,0,2.1,3.5-1.3,6.7c0.9-2,0.6-3.7,0.4-4.2c0-0.2,0-0.4-0.1-0.6c-0.1-0.3-0.2-0.5-0.3-0.8L26,30.5c-0.7,0.3-1.4,0.4-2.1,0.1   c-0.7-0.3-1.6-0.8-2.5-1.7c0,0-1.1-1.6-1-3.4c0-0.8,0.7-1.5,1.6-1.5c0.7,0,1.7-0.1,2.3-0.4c-0.2-0.2-0.5-0.4-0.7-0.5   c-2.3-1.4-8.8-1.9-11.1-0.9c0,0-4.5,1.6-5.8,6.4S8,37.3,7,40s0.1,6,2,7.5c0,0,0.7,3.4,0.6,5.1c0,0.2,0,0.5,0,0.7   c0.1,0.7,0.2,1.9,0.6,2.9l0.3-1.3c0,0,0.1,0,0.1,0.1l-0.1,0l1.1,2.5l0.6-1.7c0,0,0,0,0,0l0.6,2.8l2.4-4c0.1-0.1,0.1-0.1,0.2-0.2   v1.8c0.7-0.9,1.6-3.5,1.9-4.6l1.2,2.9l1.4-1.4c0.8,1.2,1.5,2.3,1.5,2.3s1.3-0.9,1.6-2.5l2.5,4.7c0,0,0-1.7,0.1-3.2   c1.5,1.9,3.2,4.6,3.6,6.3l0.4-3.8l3.8,8.5l0.9-2.6l5,7.1c0,0-7-13.1-1.4-24.1c0,0-2.3,9.2,1,18.2c3.3,8.9,2,8.2,2.7,12.8   c0.7,4.5,0,6.8,0,6.8s-1.4,2.6-3,2.8c-0.6,0.6-0.2,1.7,0.7,1.7c0.6,0,1.4,0.1,2.4,0c3.4-0.3,5.5-0.1,5.5-2c0-1.8-0.7-3.4-0.3-5.4   c0.3-1.6,0.5-6.5,1.8-10.2l1.2,2.9c0.4-2.2,0.4-4.7,0.3-6.2c0.1-0.1,0.1-0.3,0.2-0.4l2,3.8c0.4-2.8-0.7-6.5-0.7-6.5   c0.1-0.4-1.6-4.5-2.4-7.5c-0.9-3-1-5.8-1-5.8s3.1,10.9,5.8,12.1c0,0,10.1,4,19.4,0c0,0-0.1-3.1,0.9-5c0,0,0.3,6.2,2,10.1   c1.7,3.8,1.6,4.4,2.3,7.7c0.7,3.3,1.3,7.2,0.1,7.9c-1.1,0.7-2.7,3-2.7,3c-0.6,0.8-0.7,1.3,0.3,1.4c1.6,0.2,3.6,0.2,5-0.2   c2.6-0.7,3.1-0.7,2.8-2.3c-0.3-1.6-1.3-2.4,0.4-9.8l2-7.6c0.2-0.7,0.2-1.4,0-2.1c-1.1-4.7,2.7-7.9,5.1-14.3   c1.4-3.7,1.6-6.9,1.1-9.6c2.8,4.5,1.2,12.7,1.2,12.7s-1.8,3.5-2.1,5c-0.3,1.4,1.6,7.1,1.4,6.1c-0.1-1,0.4-5.2,0.4-5.2   s0.4,2.6,0.7,3.5c0.3,1,0.6,7.1,0.6,7.1s0.9-2.3,0.9-3.4s0.7-6.2,0.7-6.2l0.9,4.5c0,0,0.1-2.1,0.6-7C98.4,54.4,95.8,54,95.8,54z    M18.5,32.9c0.5,0,1,0.4,1,1s-0.4,1-1,1c-0.5,0-1-0.4-1-1S17.9,32.9,18.5,32.9z M12.1,44.6c3.1-2.8,1.7,0.4,1.7,0.4   c-1.4,2.6-2.3,1.6-2.4,1.1C11.3,45.8,12.1,44.6,12.1,44.6z M7.9,44.1c0,0,0.1-0.3,1.4,1.6C10.6,47.5,8,46.6,7.9,44.1z"></path><path d="M75.7,69.9c-1.3-2.1-2.3-4.8-2.3-4.8l-3.4,1c0,0,1,3.4,1.3,4.4c0.3,1-0.4,9.6-0.4,9.6s-2.8,2.4-3,2.8c-0.1,0.4,1,0.6,2,0.9   c1,0.3,3.1-0.1,3.8-0.3c0.7-0.1,0.3-1.6,0.3-2.3c0-0.7,0.6-4.3,0.7-5.2C74.8,75,75.7,69.9,75.7,69.9z"></path><path d="M38.9,72.3l-0.5-1.6l-3.9-5.3l-1.3,2.4L30.9,63l-0.9-0.8c0,0,0.4,5.3,1,9c0.7,3.7,2.4,4,2.7,6.1c0.4,2.1-0.4,4.1-0.4,4.1   l-1.5,1.7c-0.2,0.3-0.2,0.7,0.2,0.8c1,0.5,2.8,0.1,3.9-0.2c1.3-0.4,1.1-1.2,1-1.5c-0.1-0.3-0.7-7.1-0.7-7.1l1.5,2.3   C38.2,76.8,38.9,72.3,38.9,72.3z"></path><path d="M22.4,25.5c-0.4-0.1-0.7,0.3-0.7,0.6c0.2,1.1,0.7,2.7,1.8,3l0.6,0.2c0.5,0.2,1,0.2,1.5,0c0.5-0.2,1.9-1,3-1.8   c0.9-1.1,1.7-2.5,2-4.1c0.4-2.7-2.5-6.2-3.6-7.5c-0.2-0.3-0.6,0-0.6,0.3c0.5,2.1,1.9,6.5-0.7,8.3l0,0C25.7,24.5,24,25.7,22.4,25.5z   "></path></g></svg>