<svg fill="#0365C0" xmlns="http://www.w3.org/2000/svg" data-name="Layer 1" viewBox="0 0 100 100" x="0px" y="0px"><title>Artboard 18</title><path d="M98.88,30.83c-.61,5-3.42,9.48-8.36,13.53l-4.4-7.07c2.43-2.16,4.24-4.67,4.59-7.46s-.91-5.76-2.59-8.15a11.11,11.11,0,0,1-3.41,7.43,10.42,10.42,0,0,1-2.6,1.74l-4.44-7.12a3.19,3.19,0,0,0,1.44-.67c1-1,1.12-3.73.21-7.41A5.63,5.63,0,0,1,88.4,10C92.81,13.71,100,21.38,98.88,30.83ZM9.49,44.36l4.41-7.07c-2.43-2.16-4.24-4.67-4.58-7.46s.91-5.76,2.59-8.15a11.11,11.11,0,0,0,3.41,7.43,10.4,10.4,0,0,0,2.6,1.74l4.44-7.12a3.18,3.18,0,0,1-1.44-.67c-1-1-1.12-3.73-.21-7.41A5.63,5.63,0,0,0,11.6,10C7.19,13.71,0,21.38,1.12,30.83,1.73,35.79,4.55,40.32,9.49,44.36Zm59,26.22A37.72,37.72,0,0,0,68.13,76a13.76,13.76,0,0,1,.39,3.09c.07,6.74-5.77,12.25-12.51,12.25H44c-6.74,0-12.57-5.51-12.51-12.25A13.73,13.73,0,0,1,31.87,76a37.78,37.78,0,0,0-.39-5.44C25.57,67,24.2,58.87,23.88,55.42a10.84,10.84,0,0,1-4.11.87c-2.38,0-5.2-.94-7.35-4.51L32,20.36a4.87,4.87,0,0,1,6.33-1.77h0A25.83,25.83,0,0,0,50,21.38a25.84,25.84,0,0,0,11.67-2.79A4.87,4.87,0,0,1,68,20.36L87.58,51.77c-2.15,3.57-5,4.51-7.35,4.51a10.85,10.85,0,0,1-4.11-.87C75.81,58.87,74.43,67,68.52,70.58ZM38.29,56.21a6.7,6.7,0,0,0,6.62-5.75A1.31,1.31,0,0,0,43.8,49L33.13,47.44h-.19a1.31,1.31,0,0,0-1.3,1.13,6.7,6.7,0,0,0,5.68,7.59A6.75,6.75,0,0,0,38.29,56.21Zm8.94,24.56A3.43,3.43,0,1,0,43.8,84.2,3.43,3.43,0,0,0,47.23,80.77Zm12.4,0A3.43,3.43,0,1,0,56.2,84.2,3.43,3.43,0,0,0,59.63,80.77Zm8.72-32.22a1.31,1.31,0,0,0-1.29-1.13h-.19L56.2,49a1.31,1.31,0,0,0-1.11,1.49,6.7,6.7,0,0,0,6.62,5.75,6.75,6.75,0,0,0,1-.07,6.7,6.7,0,0,0,5.68-7.59Z"></path></svg>