<svg fill="#4C4C4C" xmlns:dc="http://purl.org/dc/elements/1.1/" xmlns:cc="http://creativecommons.org/ns#" xmlns:rdf="http://www.w3.org/1999/02/22-rdf-syntax-ns#" xmlns:svg="http://www.w3.org/2000/svg" xmlns="http://www.w3.org/2000/svg" xmlns:sodipodi="http://sodipodi.sourceforge.net/DTD/sodipodi-0.dtd" xmlns:inkscape="http://www.inkscape.org/namespaces/inkscape" viewBox="0 0 100 100" version="1.1" x="0px" y="0px"><g style="display:inline;opacity:1"><path style="opacity:1;fill:#4C4C4C;fill-opacity:1;stroke:none;stroke-width:6;stroke-linecap:round;stroke-linejoin:round;stroke-miterlimit:4;stroke-dasharray:none;stroke-opacity:1" d="M 29.226562 3.3710938 C 30.849497 12.325869 32.840025 21.167862 29.4375 31.677734 C 33.653344 36.11059 37.814363 43.978067 41.929688 53.035156 C 43.754945 42.850478 44.873834 33.653654 43.941406 27.845703 L 43.757812 26.908203 L 44.560547 26.279297 C 44.872101 26.039204 45.163384 25.793165 45.460938 25.548828 C 42.262925 17.293652 37.387911 9.8009755 29.226562 3.3710938 z M 61.402344 4.1210938 C 57.676208 12.423977 54.316551 20.840875 45.566406 27.583984 C 46.678576 34.511529 45.175248 45.124966 42.982422 56.640625 C 49.35241 50.930641 55.309973 45.309538 59.572266 40.341797 C 63.731168 28.968924 65.554092 17.4301 61.402344 4.1210938 z M 92.886719 24.859375 C 84.914784 29.249156 77.167355 33.951214 66.121094 34.072266 C 62.227142 41.43586 52.284568 50.724882 41.619141 60.171875 L 41.201172 59.605469 L 38.376953 61.683594 L 38.982422 62.507812 L 20.765625 77.689453 L 19.798828 76.375 L 15.212891 79.75 L 19.408203 85.451172 L 23.994141 82.076172 L 22.933594 80.634766 L 42.744141 67.619141 L 43.316406 68.396484 L 46.142578 66.318359 L 45.722656 65.748047 C 65.872848 55.216148 84.828171 47.408579 92.886719 24.859375 z M 54.380859 63.185547 C 53.141756 63.822635 51.884933 64.468767 50.632812 65.111328 C 50.66985 65.350815 50.658722 65.59715 50.587891 65.833984 L 49.582031 69.195312 C 49.495141 69.483339 49.330995 69.742052 49.107422 69.943359 L 56.341797 88.560547 L 54.789062 89.060547 L 56.527344 94.482422 L 63.269531 92.318359 L 61.529297 86.896484 L 59.826172 87.443359 L 53.792969 64.519531 L 54.714844 64.224609 L 54.380859 63.185547 z M 48.802734 66.050781 C 48.469294 66.22284 48.142553 66.38936 47.808594 66.5625 A 1.6848082 1.6848082 0 0 1 47.140625 67.675781 L 44.314453 69.753906 A 1.6848082 1.6848082 0 0 1 41.958984 69.394531 L 42.333984 69.904297 L 39.847656 71.539062 L 35.582031 89.712891 L 34.019531 89.244141 L 32.386719 94.699219 L 39.169922 96.728516 L 40.802734 91.275391 L 39.087891 90.761719 L 47.078125 68.445312 L 48.003906 68.722656 L 48.802734 66.050781 z "></path></g></svg>