<?xml version="1.0" encoding="utf-8"?><!DOCTYPE svg PUBLIC "-//W3C//DTD SVG 1.1//EN" "http://www.w3.org/Graphics/SVG/1.1/DTD/svg11.dtd"><svg version="1.1" xmlns="http://www.w3.org/2000/svg" xmlns:xlink="http://www.w3.org/1999/xlink" x="0px" y="0px" viewBox="0 0 100 100" enable-background="new 0 0 100 100" xml:space="preserve"><path fill="#010101" d="M44.501,0C29.173,1.023,17.628,13.915,17.628,29.658c0,3.868,0.731,7.564,2.066,10.951
	c1.358,3.453,3.121,7.454,17.026,20.638l4.053-2.365c-0.255-0.717-0.385-1.494-0.385-2.301c0-3.265,2.265-5.995,5.296-6.675v-4.735
	c-11.734-0.726-21.046-10.56-21.046-22.595C24.637,10.737,33.038,1.002,44.501,0L44.501,0z"></path><path fill="#010101" d="M97.045,82.538c6.787-13.922,1.507-30.469-11.986-38.34c-3.316-1.933-6.854-3.142-10.422-3.668
	c-3.639-0.537-7.95-0.996-26.204,4.578l-0.001,4.728c0.744,0.137,1.475,0.41,2.167,0.814c2.798,1.631,4.008,4.98,3.074,7.97
	l4.059,2.369c6.488-9.904,19.574-13.135,29.892-7.116C97.772,59.791,101.917,72.007,97.045,82.538L97.045,82.538z"></path><path fill="#010101" d="M0,87.189c8.542,12.899,25.364,16.555,38.861,8.684c3.315-1.937,6.117-4.425,8.354-7.282
	c2.281-2.917,4.83-6.458,9.18-25.217l-4.055-2.364c-0.488,0.581-1.087,1.085-1.78,1.49c-2.798,1.63-6.271,1.015-8.369-1.297
	l-4.059,2.366c5.244,10.628,1.47,23.692-8.846,29.709C19.135,99.201,6.592,96.718,0,87.189z"></path><path fill="#010101" d="M47.157,28.608c-6.178,0-11.89,2.031-16.507,5.471c1.419,2.014,3.187,3.784,5.19,5.197
	c3.25-2.155,7.14-3.412,11.316-3.412c4.405,0,8.49,1.397,11.84,3.771c2.944-0.719,5.919-1.295,8.934-1.616
	C62.833,32.246,55.418,28.608,47.157,28.608L47.157,28.608z"></path><path fill="#010101" d="M71.268,70.822c3.091-5.405,4.206-11.418,3.566-17.18c-2.437,0.236-4.838,0.896-7.052,1.942
	c0.223,3.922-0.646,7.953-2.734,11.606c-2.202,3.855-5.439,6.729-9.15,8.475c-0.857,2.937-1.849,5.826-3.082,8.624
	C60.313,82.717,67.139,78.049,71.268,70.822z"></path><path fill="#010101" d="M23.054,70.779c3.089,5.405,7.685,9.388,12.944,11.708c1.016-2.248,1.649-4.681,1.86-7.14
	c-3.472-1.766-6.494-4.541-8.583-8.196c-2.203-3.854-3.047-8.125-2.688-12.243c-2.088-2.217-4.069-4.53-5.851-7.008
	C18.335,55.248,18.924,63.553,23.054,70.779z"></path></svg>