<svg fill="#861001" xmlns="http://www.w3.org/2000/svg" xmlns:xlink="http://www.w3.org/1999/xlink" version="1.1" x="0px" y="0px" viewBox="0 0 100 100" enable-background="new 0 0 100 100" xml:space="preserve"><g><path fill="#861001" d="M28,34.8c2.3-0.1,1.9-3.6,1.6-3.7C28.6,30.7,25.7,34.9,28,34.8z"></path><path fill="#861001" d="M37.2,47.4c3.2,2.4,6.4-2.8,6.2-3.2C42.4,42.5,34,45.1,37.2,47.4z"></path><path fill="#861001" d="M26.4,29c1.2-1.7-1.6-3.3-1.8-3.1C23.8,26.4,25.2,30.7,26.4,29z"></path><path fill="#861001" d="M73.1,63.8L21.5,13l-0.9,3.1c-0.1,0.3-0.7,2.4-1.2,5.6c-1.8,4.9-3.3,14-1.3,30.5c2,15.8,5.8,27.8,9.6,25.9   c3.8-1.9-8.1-25.7-0.6-23.7c7.5,1.9,4.9,10.1,15.4,14.3c5.3,2.1,8.9,3.6,11.3,4.5l5.2,5.1l2.4-2.4l12.6,12.4l9.4-9.6L70.8,66.2   L73.1,63.8z M23.5,20.4l44.2,43.5l-7.8,7.9l-1,1l-26.4-26c1.6-1,2.3-2.9,0.6-5.4c-3-4.5-6.7-3.3-7.9-2.7   C21.9,32.8,22.7,24.8,23.5,20.4z M77.9,78.6l-4,4.1L64,73.1l4-4.1L77.9,78.6z"></path></g></svg>