<svg fill="#51A7F9" xmlns="http://www.w3.org/2000/svg" xmlns:xlink="http://www.w3.org/1999/xlink" version="1.1" x="0px" y="0px" viewBox="0 0 500 500" enable-background="new 0 0 500 500" xml:space="preserve"><g><polygon points="336.696,281.878 320.992,273.368 329.494,257.664 313.79,249.163 305.289,264.875 267.718,244.542    303.911,221.872 313.407,236.991 328.535,227.521 319.057,212.385 334.193,202.907 324.716,187.779 309.579,197.248    300.102,182.129 284.965,191.598 294.442,206.735 258.929,228.978 258.929,187.064 276.786,187.064 276.786,169.207    258.929,169.207 258.929,151.35 241.071,151.35 241.071,169.207 223.214,169.207 223.214,187.064 241.071,187.064 241.071,230.12    203.212,209.629 211.705,193.917 196.001,185.425 187.5,201.128 171.796,192.627 163.304,208.339 179.007,216.832 170.506,232.544    186.218,241.037 194.711,225.324 232.282,245.675 196.08,268.337 186.593,253.209 171.465,262.678 180.943,277.814    165.798,287.293 175.284,302.438 190.421,292.951 199.899,308.088 215.036,298.61 205.549,283.465 241.071,261.23 241.071,303.136    223.214,303.136 223.214,320.992 241.071,320.992 241.071,338.85 258.929,338.85 258.929,320.992 276.786,320.992 276.786,303.136    258.929,303.136 258.929,260.079 296.779,280.578 288.295,296.282 303.999,304.792 312.5,289.08 328.203,297.572  "></polygon><g><g><defs><rect id="b" x="98.214" y="70.993" width="303.572" height="205.27"></rect></defs><clipPath id="a"><use xlink:href="#b" overflow="visible"></use></clipPath><path clip-path="url(#a)" d="M330.357,133.493c-1.805,0-3.575,0.14-5.354,0.279     c-12.801-36.534-47.494-62.779-88.397-62.779c-51.775,0-93.75,41.975-93.75,93.75c0,1.779,0.166,3.488,0.262,5.231     c-25.452,4.15-44.904,26.175-44.904,52.804c0,28.809,22.749,52.229,51.243,53.458c3.523-2.781,4.578-7.751,2.136-11.641h-0.009     c-2.616-4.185-1.36-9.695,2.834-12.312l6.984-4.368l-7.255-3.932c-4.333-2.337-5.946-7.76-3.601-12.085v-0.018     c2.363-4.325,0.741-9.748-3.583-12.103c-4.342-2.337-5.946-7.76-3.61-12.085l4.247-7.865l8.493-15.695l4.246-7.847     c2.346-4.342,7.76-5.964,12.103-3.61l7.856,4.255l4.255-7.865c2.346-4.342,7.751-5.947,12.094-3.592l7.856,4.237l0.854,0.471     v-0.977v-8.929c0-4.935,3.994-8.929,8.929-8.929s8.929-3.993,8.929-8.928c0-4.936,3.993-8.929,8.929-8.929h8.928h17.857h8.929     c4.935,0,8.929,3.993,8.929,8.929c0,4.935,3.993,8.928,8.928,8.928c4.936,0,8.929,3.994,8.929,8.929v4.185l3.558-2.214     c4.168-2.616,9.679-1.36,12.286,2.816l4.752,7.577l7.56-4.743c4.185-2.616,9.695-1.352,12.303,2.825l4.752,7.568l9.486,15.137     l4.734,7.568c2.616,4.176,1.343,9.678-2.833,12.303c-4.186,2.616-5.45,8.135-2.834,12.303l0.009,0.017     c2.606,4.168,1.352,9.679-2.834,12.294l-6.984,4.377l7.255,3.924c4.333,2.337,5.938,7.76,3.601,12.085l-0.009,0.018     c-2.336,4.342-0.732,9.748,3.593,12.103c0.732,0.384,1.265,0.977,1.84,1.517c27.353-10.01,46.91-36.193,46.91-67.016     C401.786,165.475,369.812,133.493,330.357,133.493"></path></g></g><polygon points="128.27,357.579 137.198,342.128 152.658,351.057 161.586,335.589 146.127,326.66 155.056,311.192 139.587,302.264    130.659,317.731 115.2,308.803 106.271,324.271 121.73,333.199 112.802,348.65  "></polygon><polygon points="119.341,429.008 128.27,413.557 143.729,422.485 152.658,407.018 137.198,398.089 146.127,382.621    130.659,373.692 121.73,389.16 106.271,380.231 97.342,395.699 112.802,404.628 103.873,420.079  "></polygon><polygon points="199.698,420.079 208.627,404.628 224.086,413.557 233.015,398.089 217.556,389.16 226.484,373.692    211.016,364.764 202.087,380.231 186.628,371.303 177.7,386.771 193.159,395.699 184.23,411.15  "></polygon><polygon points="280.056,402.222 288.984,386.771 304.443,395.699 313.372,380.231 297.912,371.303 306.841,355.835    291.373,346.906 282.444,362.374 266.985,353.446 258.057,368.914 273.516,377.843 264.588,393.293  "></polygon><polygon points="360.412,420.079 369.341,404.628 384.801,413.557 393.729,398.089 378.27,389.16 387.198,373.692 371.73,364.764    362.802,380.231 347.343,371.303 338.414,386.771 353.873,395.699 344.944,411.15  "></polygon><polygon points="369.341,348.65 378.27,333.199 393.729,342.128 402.657,326.66 387.198,317.731 396.127,302.264 380.659,293.335    371.73,308.803 356.271,299.874 347.343,315.343 362.802,324.271 353.873,339.722  "></polygon></g></svg>