<svg fill="#283359" xmlns="http://www.w3.org/2000/svg" xmlns:xlink="http://www.w3.org/1999/xlink" version="1.1" x="0px" y="0px" viewBox="0 0 100 100" enable-background="new 0 0 100 100" xml:space="preserve"><path d="M32.548,33.543l-0.882,1.476c-0.635,1.053-2.144,1.926-3.372,1.946l-1.719,0.03c-1.231,0.021-1.729,0.901-1.115,1.964  l2.194,3.796c0.002,0.013,0.005,0.028,0.006,0.042l37.41-21.596c-0.011-0.011-0.021-0.021-0.032-0.029l-2.193-3.795  c-0.614-1.066-1.625-1.073-2.259-0.021l-0.885,1.476c-0.634,1.055-2.141,1.925-3.369,1.946l-1.719,0.028  c-1.231,0.021-2.74,0.892-3.369,1.946l-0.889,1.476c-0.634,1.053-2.141,1.924-3.369,1.944l-1.719,0.029  c-1.231,0.024-2.74,0.894-3.373,1.946l-0.884,1.476c-0.631,1.053-2.142,1.925-3.37,1.944l-1.72,0.031  C34.691,31.621,33.182,32.49,32.548,33.543z"></path><path d="M57.354,94.194c0.613,1.066,1.624,1.074,2.254,0.021l0.888-1.476c0.635-1.053,2.142-1.926,3.37-1.947l1.719-0.028  c1.231-0.021,2.74-0.892,3.374-1.946l0.884-1.474c0.634-1.055,2.142-1.925,3.369-1.946l1.719-0.028  c1.231-0.021,2.74-0.892,3.37-1.946l0.887-1.476c0.635-1.053,2.143-1.926,3.37-1.944l1.72-0.032  c1.231-0.018,2.739-0.891,3.373-1.943l0.885-1.476c0.629-1.053,2.141-1.925,3.369-1.946l1.719-0.029  c1.231-0.021,1.729-0.899,1.115-1.965l-2.194-3.796c-0.001-0.013-0.005-0.028-0.005-0.044L55.126,90.373  c0.012,0.008,0.022,0.019,0.033,0.029L57.354,94.194z"></path><path d="M28.231,44.714c3.275,11.856,16.958,36.012,25.468,44.237l38.319-22.123c-2.867-11.482-16.946-35.411-25.577-44.176  L28.231,44.714z M55.443,41.131c1.005,2.25,2.703,3.612,3.223,4.433c0.443,0.695,1.612,2.763-0.063,4.501  c-0.303,0.313-0.688,0.801-1.206,0.896c-0.519,0.098-0.922-0.048-1.297-0.148C51.546,49.58,55.423,41.094,55.443,41.131z   M44.184,61.047c-0.069,0.006,7.009-14.08,13.9-5.86c-3.57-0.769-8.512,2.394-8.512,2.394s5.845-2.374,8.697-1.039  C57.883,65.71,47.864,58.654,44.184,61.047z M65.932,68.547l-8.266-15.158c-0.381-0.693-0.303-1.477,0.174-1.748  c0.471-0.275,1.186,0.05,1.597,0.727l8.972,14.752L65.932,68.547z M73.338,45.892c-3.735,1.988-2.756,13.895-10.712,9.731  c0.144-2.956,5.126-6.876,5.126-6.876s-4.829,2.25-6.184,6.059C58.025,45.063,73.375,45.833,73.338,45.892z"></path><path d="M29.088,5.001c-2.986,0-4.981,12.373-0.085,12.376C33.897,17.377,32.076,5.001,29.088,5.001z"></path><path d="M21.36,20.686c-2.114,2.115,5.231,12.279,8.691,8.816C33.517,26.041,23.472,18.575,21.36,20.686z"></path><path d="M37.032,10.47c-2.587,1.497,1.88,13.215,6.115,10.769C47.389,18.786,39.62,8.98,37.032,10.47z"></path><path d="M10.345,15.003c2.449,4.241,12.174-3.677,10.683-6.261C19.53,6.153,7.901,10.766,10.345,15.003z"></path><path d="M8.618,37.111c0.77,2.885,13.199,1.44,11.934-3.284C19.287,29.095,7.847,34.226,8.618,37.111z"></path><path d="M6.483,30.854c2.883,0.771,8.014-10.669,3.285-11.936S3.599,30.082,6.483,30.854z"></path></svg>
