<svg fill="#861001" xmlns="http://www.w3.org/2000/svg" xmlns:xlink="http://www.w3.org/1999/xlink" xmlns:sketch="http://www.bohemiancoding.com/sketch/ns" viewBox="0 0 100 100" version="1.1" x="0px" y="0px"><title>axe</title><description>Created with Sketch (http://www.bohemiancoding.com/sketch)</description><g stroke="none" stroke-width="1" fill="none" fill-rule="evenodd" sketch:type="MSPage"><g sketch:type="MSArtboardGroup" fill="#861001"><path d="M29.523025,22.0924426 L43.8835715,10.0537293 L32.2009146,23.6978401 L38.7922801,21.5304552 L33.609813,25.879766 L33.5398594,27.4199259 L37.9096061,31.3334018 L40.1827076,34.1728136 L42.038838,37.1525258 L44.3512393,42.0587151 L47.3616054,47.2903069 L50,51.4285777 L52.834105,55.4265482 L56.511389,59.6795745 L58.231935,59.9912221 L58.4425821,61.2503883 L68.0388116,70.5412582 L69.3683245,70.7519053 L69.5789715,72.0464413 L79.4837046,82.3312037 C79.4837046,82.3312037 80.2031533,82.471635 80.5628776,82.5418507 L80.6328313,84.2227039 L81.6958914,83.7055183 L83.3716356,84.2321359 L84.1041842,85.0303152 L84.0692074,86.570475 L83.511936,87.8952719 L82.5031097,88.5366449 L81.56463,88.8526155 L80.1345096,88.6514004 L79.191314,87.7431816 L78.9103203,87.015349 L78.980667,85.7302449 L77.8504042,85.288122 L77.4338261,83.9983019 L67.0244833,74.5533767 L65.8356638,73.9308676 L65.7653172,72.746371 L56.3459368,63.5568946 L54.8057769,62.9996232 L54.8057769,61.749889 L48.7268811,54.8024671 L45.5620667,50 L43.2190116,46.2288188 L42.907757,44.7774765 L39.4250071,39.8154815 L35.7670154,34.1633617 C35.7254768,34.0991787 34.6174604,34.6683844 34.6174604,34.6683844 L32.8359996,32.4003919 L30.3479282,30.9584815 L30.9496084,33.2103611 L28.21552,34.533193 L27.2066937,36.1550965 L28.1502823,38.6081911 L30.6336378,41.0518538 L34.7719087,41.6040162 L36.2865237,44.689052 L40.1347618,46.6108131 L43.9126533,50.50346 L35.780735,48.2260356 L31.3406416,47.1515785 L25.8984028,46.4543998 L22.1110793,42.2359573 L20.3229372,39.8154824 C20.3229372,39.8154824 17.2233674,39.394951 16.6763074,38.6081918 C14.4500216,35.4064386 11.7111684,27.2792326 11.7111684,27.2792326 L16.6763075,30.4648758 L17.5538724,29.4914193 L18.0407971,27.8506519 L20.3229376,27.9206056 L23.2232641,27.0733015 L24.7280542,25.3224946 L23.3635645,23.3260639 L24.7280542,23.0100933 L23.3285877,21.6947284 L26.3782535,21.5894049 L29.523025,22.0924426 Z" sketch:type="MSShapeGroup"></path></g></g></svg>
