<svg fill="#aa0000" xmlns="http://www.w3.org/2000/svg" xmlns:xlink="http://www.w3.org/1999/xlink" version="1.1" x="0px" y="0px" viewBox="0 0 186.326 249.105" style="enable-background:new 0 0 186.326 249.105;" xml:space="preserve"><g><path d="M88.01,50.416c0,1.336,1.082,2.418,2.416,2.418c1.336,0,2.418-1.082,2.418-2.418v-2.578c0.322-0.043,0.641-0.1,0.957-0.159   c0.492-0.091,0.981-0.196,1.459-0.325v3.063c0,1.336,1.082,2.418,2.418,2.418c1.334,0,2.416-1.082,2.416-2.418v-4.998   c0-0.037-0.008-0.071-0.01-0.107c6.736-3.996,11.342-12.036,11.342-21.311c0-13.254-9.402-24-21-24c-11.598,0-21,10.746-21,24   c0,9.275,4.608,17.315,11.346,21.311c-0.002,0.037-0.012,0.07-0.012,0.107v4.998c0,1.336,1.082,2.418,2.416,2.418   c1.336,0,2.418-1.082,2.418-2.418v-3.062c0.48,0.129,0.967,0.233,1.457,0.325c0.318,0.059,0.637,0.116,0.959,0.159V50.416z    M93.01,21.918c0.998-1.418,8.832-5.584,10.582-1.918c2.197,4.602,0.057,8.254-2.916,8.668c-3,0.416-6.465-0.879-7.25-2.25   C92.76,25.25,92.01,23.334,93.01,21.918z M93.143,32.101c0.557,0.186,3.143,1.937,1.826,3.838c-1.316,1.9-3.947-1.462-3.801-2.925   C91.315,31.553,92.594,31.918,93.143,32.101z M80.176,28.668c-2.971-0.414-5.111-4.066-2.916-8.668   c1.75-3.666,9.584,0.5,10.584,1.918c1,1.416,0.25,3.332-0.418,4.5C86.643,27.789,83.176,29.084,80.176,28.668z M85.883,35.938   c-1.314-1.901,1.271-3.652,1.826-3.838c0.549-0.183,1.828-0.548,1.975,0.913C89.83,34.477,87.199,37.839,85.883,35.938z"></path><path d="M60.121,89.338c1.415-2.735,2.518-5.339,3.385-7.69c0.394,1.088,0.91,2.287,1.568,3.532   c0.113,2.825,0.652,8.58,3.368,14.301c0.551,1.151,1.206,2.3,1.962,3.419l-0.226-0.008c-0.002,0.032-0.013,0.338-0.013,0.862   c0.009,1.916,0.107,6.656,1.355,11.265c0.641,2.306,1.55,4.618,3.137,6.571c1.522,1.924,4.024,3.457,6.952,3.457   c0.036,0,0.071,0,0.106,0c1.738-0.014,3.496-0.455,5.334-1.316v2.277h-4.875v3.75h4.875v1.531   c-1.026,0.434-2.485,0.872-4.225,0.861c-2.646-0.024-6.051-0.88-10.213-4.739c-0.873-0.815-2.156-1.036-3.252-0.557   c-1.094,0.479-1.805,1.572-1.797,2.767c0.028,5.723,1.475,11.011,4.967,14.989c-4.92,6.651-18.209,28.462-18.184,69.042   c0,9.379,0.705,19.755,2.377,31.175c0.364,2.487,2.499,4.277,4.939,4.277c0.241,0,0.485-0.018,0.731-0.054   c2.733-0.4,4.625-2.94,4.225-5.673c-1.604-10.959-2.27-20.848-2.27-29.726c0.002-23.138,4.521-39.408,8.93-49.838   c2.208-5.214,4.39-8.967,5.981-11.374c0.69-1.046,1.261-1.823,1.681-2.369c1.489,1.701,3.671,2.78,6.109,2.78   c1.205,0,2.346-0.27,3.375-0.741c1.029,0.471,2.169,0.741,3.375,0.741c2.438,0,4.617-1.078,6.106-2.776   c3.322,4.317,16.57,23.865,16.597,63.576c0,8.878-0.668,18.769-2.27,29.729c-0.401,2.73,1.491,5.27,4.224,5.67   c0.244,0.036,0.488,0.053,0.729,0.053c2.44,0,4.578-1.789,4.942-4.277c1.668-11.42,2.374-21.796,2.374-31.175   c0.025-40.579-13.264-62.392-18.182-69.042c3.494-3.978,4.939-9.266,4.966-14.988c0.009-1.195-0.702-2.288-1.797-2.767   c-1.093-0.479-2.379-0.26-3.25,0.557c-4.164,3.858-7.569,4.715-10.215,4.739c-1.744,0-3.192-0.423-4.224-0.857v-1.535h4.875v-3.75   h-4.875v-2.277c1.839,0.861,3.596,1.302,5.334,1.316c2.974,0.036,5.518-1.51,7.059-3.459c2.356-2.936,3.295-6.645,3.873-10.005   c0.549-3.362,0.616-6.397,0.618-7.827c0-0.519-0.01-0.824-0.01-0.852l-0.226,0.007c1.864-2.755,3.062-5.723,3.845-8.44   c1.104-3.861,1.404-7.301,1.483-9.292c2.453-4.645,2.845-8.595,2.883-8.882c0.624-0.866,1.116-1.835,1.422-2.898   c3.464,2.126,7.875,5.39,12.146,10.149c2.404,2.686,4.768,5.845,6.907,9.534c-14.401,4.707-24.81,18.243-24.81,34.217   c0,19.882,16.117,36,36,36c19.881,0,36-16.118,36-36c0-19.883-16.119-36-36-36c-1.733,0-3.436,0.13-5.102,0.367   c-3.089-5.706-6.698-10.345-10.32-14.035c-8.468-8.65-16.87-12.245-18.87-13.023c-1.288-0.609-2.688-0.967-4.15-1.25   c-2.352-0.428-4.918-0.568-7.475-0.57c-3.936,0.003-7.846,0.345-10.608,0.658V60.75h4.875V57h-4.875v-3.744   c-0.81,0.962-2.02,1.577-3.375,1.577c-1.353,0-2.563-0.616-3.375-1.579V57h-4.875v3.75h4.875v2.697   c-2.762-0.313-6.672-0.656-10.607-0.659c-3.414,0.01-6.822,0.236-9.759,1.114c-1.468,0.453-2.858,1.064-4.064,2.123   c-1.142,0.976-2.036,2.543-2.167,4.241c-0.004,0.018-0.013,0.08-0.041,0.257c-0.262,1.546-1.777,9.271-6.525,17.737   c-2.963,5.278-7.132,10.819-13.022,15.452l3.309,5.006C51.72,102.891,56.801,95.762,60.121,89.338z M90.426,145.353   c-0.235-0.001-0.459-0.008-0.687-0.013c-0.031-0.201-0.063-0.401-0.063-0.61c0.001-0.879,0.281-1.69,0.75-2.359   c0.469,0.669,0.749,1.479,0.75,2.359c0,0.209-0.031,0.41-0.062,0.61C90.885,145.344,90.66,145.352,90.426,145.353z M82.964,144.353   c0.189-2.014,1.802-3.593,3.831-3.723c-0.706,1.204-1.117,2.602-1.117,4.099c0,0.087,0.01,0.172,0.013,0.258   C84.703,144.826,83.797,144.612,82.964,144.353z M95.163,144.987c0.003-0.087,0.013-0.171,0.013-0.258   c0-1.497-0.412-2.895-1.118-4.099c2.029,0.13,3.642,1.71,3.829,3.723C97.055,144.612,96.149,144.825,95.163,144.987z    M82.311,138.138c-1.064,0.768-1.934,1.785-2.525,2.968c-0.83-0.317-1.721-0.391-2.585-0.25c-1.195-1.296-2.108-2.888-2.714-4.793   C77.27,137.476,79.939,138.074,82.311,138.138z M106.366,136.062c-0.607,1.905-1.519,3.498-2.716,4.794   c-0.863-0.14-1.754-0.066-2.585,0.25c-0.591-1.184-1.46-2.201-2.524-2.968C100.912,138.073,103.582,137.474,106.366,136.062z    M151.133,106.661c4.879,1.016,9.596,4.048,12.844,8.802c4.283,6.265,4.876,13.817,2.172,19.627   c0.02,0.026,0.043,0.047,0.063,0.074l2.309,3.379c0.617,0.9,0.385,2.131-0.518,2.747c-0.9,0.616-2.131,0.386-2.748-0.516   l-1.423-2.082c-0.435,0.509-0.898,0.996-1.403,1.448l1.193,1.748c0.617,0.902,0.387,2.133-0.516,2.75   c-0.902,0.616-2.135,0.386-2.75-0.517l-1.195-1.748c-0.605,0.307-1.227,0.561-1.859,0.782l1.424,2.081   c0.615,0.902,0.385,2.132-0.518,2.749c-0.902,0.617-2.133,0.385-2.748-0.518l-2.309-3.377c-0.02-0.027-0.029-0.058-0.047-0.085   c-6.396,0.411-13.218-2.885-17.5-9.15c-6.121-8.954-4.73-20.555,3.105-25.911c1.889-1.291,3.982-2.09,6.154-2.45   C146.916,106.154,149.037,106.225,151.133,106.661z M87.051,98.858v1.871h-4.875v3.75h4.875v2.171   c-3.144-0.434-5.554-1.462-7.504-2.811c-3.523-2.439-5.637-6.19-6.872-9.917C76.252,96.448,80.989,98.357,87.051,98.858z    M93.801,104.479h4.875v-3.75h-4.875v-1.87c6.069-0.5,10.809-2.414,14.387-4.944c-0.328,0.996-0.721,1.999-1.192,2.976   c-1.286,2.685-3.103,5.149-5.69,6.949c-1.95,1.349-4.36,2.377-7.504,2.811V104.479z M108.737,85.125   c-2.733,3.528-7.018,6.91-14.936,7.699v-2.588h4.875v-3.75h-4.875v-1.493c2.69-0.196,6.684-0.611,10.765-1.495   c2.114-0.465,4.247-1.049,6.267-1.828C110.293,82.796,109.612,83.978,108.737,85.125z M87.051,86.486h-4.875v3.75h4.875v2.582   c-8.51-0.853-12.844-4.679-15.517-8.504c-0.606-0.89-1.104-1.786-1.518-2.649c3.725,1.443,7.85,2.227,11.455,2.743   c2.129,0.294,4.063,0.476,5.58,0.586V86.486z M81.717,119.048c-1.063-0.038-1.604-0.336-2.419-1.264   c-1.185-1.379-2.151-4.309-2.593-7.172c-0.091-0.547-0.162-1.086-0.225-1.616c2.844,1.901,6.373,3.222,10.57,3.683v4.107   C84.535,118.537,82.725,119.07,81.717,119.048z M103.541,113.436c-0.49,1.825-1.213,3.423-1.987,4.349   c-0.818,0.927-1.358,1.226-2.419,1.262c-1.009,0.023-2.818-0.509-5.334-2.258v-4.108c4.197-0.461,7.726-1.782,10.57-3.683   C104.198,110.45,103.938,112,103.541,113.436z M95.146,69.336c2.563-0.276,5.971-0.548,9.263-0.548   c3.088-0.01,6.107,0.264,8.016,0.855c0.476,0.141,0.874,0.303,1.182,0.458h-0.002c0,0,0.004,0.001,0.004,0.001   c0.305,0.154,0.521,0.3,0.639,0.41c0.234,0.249,0.149,0.146,0.184,0.28c0,0.045,0.002,0.108,0.002,0.144   c-0.009,1.279-0.692,2.373-2.79,3.714c-3.071,1.926-8.532,3.209-13.082,3.814c-1.776,0.246-3.414,0.406-4.759,0.511v-3.482h4.875   v-3.75h-4.875v-2.254C94.219,69.439,94.66,69.388,95.146,69.336z M66.606,70.511c0.34-0.347,1.635-0.942,3.443-1.251   c1.791-0.329,4.042-0.471,6.348-0.471c0.016,0,0.031,0,0.047,0c3.292,0,6.7,0.272,9.261,0.548c0.487,0.052,0.93,0.103,1.347,0.153   v2.254h-4.875v3.75h4.875v3.482c-0.191-0.015-0.385-0.03-0.59-0.048c-3.658-0.306-9.193-1.047-13.506-2.564   c-2.154-0.747-3.977-1.699-5.064-2.669c-1.1-1.009-1.448-1.745-1.473-2.758c0-0.023,0.002-0.069,0.004-0.14   C66.456,70.657,66.371,70.761,66.606,70.511z"></path><path d="M28.114,110.881c-1.55,0.586-2.331,2.317-1.743,3.867c0.453,1.2,1.594,1.938,2.806,1.938c0.353,0,0.712-0.063,1.062-0.195   c1.31-0.495,2.557-1.041,3.775-1.607l-3.342-5.057C29.841,110.195,28.991,110.549,28.114,110.881z"></path><path d="M18.201,106.812c0.877,1.163,5.172-0.534,10.301-3.892l3.998,6.049l3.337,5.048l3.927,5.942   c0.615,0.931,1.867,1.186,2.799,0.57l3.201-2.115c0.932-0.615,1.186-1.867,0.572-2.799l-3.769-5.701l-3.308-5.003l-4.428-6.7   c5.029-4.218,8.16-8.169,7.242-9.385c-0.75-0.996-4.014,0.109-8.158,2.56C26.768,80.434,3.496,41.476,8.074,4.877   c-21.801,35.035,6.564,82.695,14.654,94.969C19.344,103.082,17.465,105.833,18.201,106.812z"></path><path d="M139.047,128.537c0.645,4.122,3.775,5.602,5.975,4.509c1.324-0.659,2.47-1.807,3.164-2.9   c0.467-0.736,0.735-1.448,0.693-1.966c-0.067-0.849-0.314-2.013-1.031-2.73c-0.212-0.212-0.461-0.391-0.764-0.504   C145.754,124.449,138.537,125.252,139.047,128.537z"></path><path d="M152.934,125.408c0.236,0.115,0.559,0.163,0.918,0.174c1.406,0.043,3.556-0.674,5.018-2.002   c1.818-1.65,1.578-5.107-2.031-7.201c-1.211-0.703-2.505,0.036-3.604,1.226c-1.512,1.637-2.648,4.135-2.66,4.956   C150.553,123.979,151.943,124.927,152.934,125.408z"></path><path d="M153.451,131.592c-0.197-0.235-0.39-0.353-0.571-0.396c-0.484-0.114-0.89,0.318-1.12,0.608   c-0.021,0.028-0.047,0.058-0.064,0.082c-0.289,0.381-1.227,2.759,0.539,3.436C154,136,154.225,132.512,153.451,131.592z"></path><path d="M158.371,131.127c0.012-1.891-2.543-1.881-3.006-1.75c-0.455,0.131-1.486,0.475-0.912,1.529   C155.029,131.963,158.359,133.019,158.371,131.127z"></path></g></svg>