<svg xmlns:dc="http://purl.org/dc/elements/1.1/" xmlns:cc="http://creativecommons.org/ns#" xmlns:rdf="http://www.w3.org/1999/02/22-rdf-syntax-ns#" xmlns:svg="http://www.w3.org/2000/svg" xmlns="http://www.w3.org/2000/svg" xmlns:sodipodi="http://sodipodi.sourceforge.net/DTD/sodipodi-0.dtd" xmlns:inkscape="http://www.inkscape.org/namespaces/inkscape" version="1.1" x="0px" y="0px" viewBox="0 0 36 36"><g transform="translate(0,-1016.3622)"><g transform="translate(0.15573476,-0.68114644)"><path style="text-indent:0;text-transform:none;direction:ltr;block-progression:tb;baseline-shift:baseline;color:#000000;enable-background:accumulate;" d="m -418.25,315.9375 c -0.51929,0.0553 -1.01511,0.24765 -1.4375,0.5625 -0.56319,0.4198 -0.94536,1.09825 -0.9375,1.96875 0.007,0.81943 -0.0203,1.5402 -0.0312,2.28125 l 0.6875,0.65625 1.84375,-0.5625 a 0.50004999,0.50004999 0 0 1 0.0625,-0.0312 0.5118231,0.5118231 0 0 1 0.21875,1 l -1.3125,0.40625 0.90625,0.875 a 0.50871314,0.50871314 0 0 1 -0.6875,0.75 l -1.3125,-1.3125 -0.46875,0.125 c -0.054,1.31316 -0.0917,2.51347 -0.21875,3.59375 l 0.28125,0.28125 1.84375,-0.5625 a 0.50004999,0.50004999 0 0 1 0.0937,-0.0312 0.50343049,0.50343049 0 0 1 0.21875,0.96875 l -1.34375,0.40625 0.9375,0.90625 a 0.50004999,0.50004999 0 1 1 -0.6875,0.71875 l -1.3125,-1.28125 -0.25,0.0937 c -0.22523,1.35656 -0.53273,2.57846 -0.90625,3.65625 l 0.21875,0.21875 1.84375,-0.5625 a 0.50004999,0.50004999 0 0 1 0.0625,-0.0312 0.5118231,0.5118231 0 0 1 0.21875,1 l -1.28125,0.375 0.90625,0.90625 a 0.50004999,0.50004999 0 1 1 -0.6875,0.71875 l -1.3125,-1.28125 -0.59375,0.1875 c -0.29322,0.64399 -0.60802,1.27433 -0.96875,1.875 0.20897,0.3061 1.1459,1.16115 1.65625,1.28125 0.51035,0.12 1.1169,0.11125 1.5625,0.0312 0.23814,-0.0426 0.78409,-0.5297 1.3125,-1.5 0.52841,-0.9703 1.05703,-2.3334 1.53125,-4 0.93826,-3.29751 1.67288,-9.52889 1.8125,-14 -0.55067,-0.4202 -1.24361,-0.6554 -1.9375,-0.6875 -0.17347,-0.008 -0.35815,-0.0184 -0.53125,0 z m 3.375,2.03125 c -0.21806,4.39516 -0.87136,9.81828 -1.75,12.90625 -0.48788,1.7146 -1.04063,3.177 -1.625,4.25 -0.58437,1.073 -1.18307,1.8484 -2.03125,2 -0.58932,0.1058 -1.27212,0.0941 -1.9375,-0.0625 -0.57117,-0.13443 -1.48541,-0.83148 -2,-1.40625 -1.82329,2.51068 -5.22209,3.41023 -9.53125,2.0625 -0.72393,-0.2264 -1.41164,-0.119 -1.96875,0.1875 -0.55711,0.3064 -0.96577,0.79725 -1.25,1.34375 -0.28423,0.5465 -0.44278,1.13125 -0.4375,1.71875 0.005,0.5876 0.1694,1.2007 0.59375,1.625 3.84259,3.8426 8.34147,3.86195 13.09375,3.53125 0.89169,-0.062 2.73032,-0.3429 3.96875,-1.375 l 6.375,0 c -6.2e-4,0.3443 -0.0232,0.69845 0.0937,0.96875 0.0885,0.2048 0.29773,0.40355 0.5,0.46875 0.20227,0.065 0.37865,0.0625 0.5625,0.0625 l 7.6875,0 c 0.19163,0 0.34094,-0.13655 0.40625,-0.21875 0.0653,-0.082 0.0767,-0.1372 0.0937,-0.1875 0.0341,-0.1005 0.0528,-0.1639 0.0625,-0.25 0.0193,-0.172 0.0308,-0.3833 0.0312,-0.625 8.9e-4,-0.4833 -0.035,-1.1177 -0.0625,-1.75 -0.0275,-0.6322 -0.0482,-1.2644 -0.0625,-1.75 -0.007,-0.2427 -0.003,-0.4232 0,-0.5625 0.002,-0.07 -0.003,-0.13355 0,-0.15625 0.80757,-1.27486 0.57946,-2.85693 0.15625,-4.28125 -0.43649,-1.4689 -1.09102,-2.88235 -1.25,-3.53125 -9.5e-4,-4.7537 -0.0625,-8.69125 -0.0625,-14.46875 -3e-5,-0.2618 -0.23821,-0.5 -0.5,-0.5 -3.0433,10e-5 -7.63641,-0.028 -9.15625,0 z" transform="translate(438.30875,703.95195)" fill="#000000" fill-opacity="1" stroke="none" marker="none" visibility="visible" display="inline" overflow="visible"></path></g></g></svg>