<svg xmlns="http://www.w3.org/2000/svg" xmlns:xlink="http://www.w3.org/1999/xlink" version="1.1" x="0px" y="0px" viewBox="0 0 200.191 272.564" style="enable-background:new 0 0 200.191 272.564;" xml:space="preserve"><g><path d="M80.858,189.764c-1.106,0.848-2.229,1.754-3.363,2.736c-4.898,4.275-9.952,9.924-13.821,17.248   c-3.876,7.302-6.457,16.307-6.44,26.518c-0.002,8.688,1.823,18.175,5.82,28.357c1.931,4.929,6.648,7.94,11.64,7.94   c1.518,0,3.061-0.278,4.559-0.866c6.428-2.522,9.596-9.773,7.075-16.201c-3.023-7.716-4.092-14.03-4.094-19.23   c0.017-6.115,1.431-10.798,3.547-14.846c2.802-5.354,7.15-9.567,11.227-12.529C91.269,204.663,85.809,198.223,80.858,189.764z"></path><path d="M170.706,248.062c6.226,0,11.615-4.646,12.392-10.983c0.499-4.083,0.746-7.931,0.746-11.575   c0-8.783-1.439-16.444-4.29-22.986c-4.217-9.873-11.887-16.613-19.559-20.032c-3.046-1.385-6.07-2.342-8.998-3   c-0.476,1.042-0.958,2.076-1.456,3.092c-4.169,8.507-8.792,15.445-13.706,20.676c0.858-0.056,1.764-0.09,2.698-0.088   c5.18-0.044,10.638,1.155,13.823,3.699c1.656,1.293,3.044,2.864,4.282,5.648c1.211,2.777,2.204,6.905,2.206,12.991   c0,2.517-0.171,5.355-0.562,8.537c-0.84,6.852,4.035,13.09,10.888,13.927C169.686,248.03,170.199,248.062,170.706,248.062z"></path><path d="M53.878,140.297c-3.185-0.012-6.486-0.708-10.234-2.635c-1.515-0.783-3.106-1.795-4.758-3.049   c-1.515,5.448-3.02,10.902-4.472,16.219c0.624,0.361,1.248,0.713,1.875,1.038c5.84,3.035,11.84,4.427,17.514,4.427   c0.025,0,0.05,0,0.076,0c4.596-0.002,8.919-0.872,12.898-2.271c-1.313-5.316-2.341-10.688-3.055-16.005   C60.485,139.473,57.198,140.299,53.878,140.297z"></path><path d="M24.853,124.572c-1.747,0.072-3.483,0.71-4.907,1.945c-3.337,2.896-3.695,7.95-0.799,11.287   c0.281,0.324,0.564,0.623,0.846,0.938c0.905-2.643,1.833-5.349,2.785-8.123C23.469,128.605,24.162,126.586,24.853,124.572z"></path><path d="M163.524,131.84c5.602-1.249,11.409-3.711,16.764-8.01c8.686-6.938,15.684-18.238,19.678-34.896   c1.036-4.294-1.607-8.615-5.901-9.651c-4.296-1.036-8.617,1.606-9.651,5.903c-3.464,14.271-8.825,21.9-14.125,26.153   c-2.09,1.664-4.249,2.872-6.445,3.732c0.117,1.939,0.181,3.933,0.181,5.99C164.024,124.575,163.848,128.183,163.524,131.84z"></path><path d="M113.276,68.062c6.488,0,12.354,0.669,17.605,1.99c-0.103-1.279-0.341-2.52-0.701-3.708   c2.797,0.434,7.748-0.612,16.232-4.26c13.354-5.74,29.83-17.021,29.182-18.527c-0.646-1.505-20.168,2.689-33.521,8.431   c-8.877,3.816-13.033,6.786-14.475,9.169c-0.615-0.854-1.301-1.653-2.057-2.384c2.535-1.422,5.965-4.995,10.719-12.025   c8.143-12.039,15.926-30.429,14.57-31.347c-1.361-0.918-15.531,13.149-23.674,25.19c-4.824,7.133-6.844,11.664-7.176,14.539   c-0.908-0.373-1.854-0.666-2.83-0.885c1.299-2.938,2.125-8.187,2.125-16.98c0-15.871-4.209-37.264-6-37.264   c-1.791,0-6,21.393-6,37.264c0,8.793,0.824,14.043,2.123,16.979c-0.975,0.219-1.922,0.513-2.828,0.886   c-0.334-2.875-2.354-7.407-7.178-14.539C91.251,28.55,77.081,14.483,75.719,15.4c-0.736,0.499,1.225,6.149,4.471,13.134   c12.07,5.2,13.796,10.719,14.019,12.555c0.21,1.725-0.415,3.176-1.67,3.882c-0.488,0.275-1.258,0.577-2.937,0.741   c0.229,0.349,0.458,0.695,0.688,1.035c4.754,7.03,8.186,10.604,10.719,12.025c-0.756,0.73-1.441,1.53-2.057,2.384   c-1.439-2.383-5.598-5.354-14.475-9.169c-3.895-1.675-8.314-3.216-12.638-4.524c2.107,3.651,3.311,7.915,3.376,12.333   c1.662,0.825,3.315,1.597,4.922,2.288c8.484,3.647,13.436,4.693,16.232,4.26c-0.36,1.188-0.598,2.429-0.701,3.708   C100.921,68.731,106.787,68.062,113.276,68.062z"></path><path d="M162.024,121.061c0-1.836-0.063-3.592-0.156-5.309c-1.387-25.586-12.91-38.137-28.988-43.063   c-0.649-0.199-1.307-0.385-1.971-0.559c-5.47-1.438-11.412-2.067-17.633-2.067c-6.221,0-12.164,0.629-17.635,2.067   c-0.664,0.175-1.322,0.36-1.971,0.559c-17.157,5.258-29.142,19.175-29.142,48.372c0,5.174,0.379,10.571,1.094,16.042   c0.702,5.374,1.729,10.818,3.048,16.196c3.128,12.756,7.889,25.129,13.808,35.258c4.763,8.151,10.273,14.85,16.284,19.118   c4.584,3.255,9.459,5.099,14.513,5.099c6.895,0,13.454-3.437,19.399-9.203c6.217-6.03,11.761-14.61,16.311-24.496   c6.522-14.168,11.002-31.006,12.493-46.832C161.837,128.44,162.024,124.696,162.024,121.061z M143.825,113.789   c0.931,0.545,1.485,1.34,1.757,2.274c0.915,3.143-1.551,7.954-5.163,11.019c-0.485,0.412-0.985,0.803-1.506,1.143   c-0.92,0.6-1.966,1.21-3.072,1.794c-5.567,2.942-12.789,5.161-14.728,1.284c-0.934-1.867,1.097-5.192,4.324-8.48   c3.471-3.536,8.324-7.021,12.391-8.614c0.207-0.081,0.414-0.164,0.616-0.235C140.632,113.207,142.548,113.041,143.825,113.789z    M121.168,179.507c-2.114-0.382-4.189-0.812-5.892-1.039v-15.05c2.834,0.279,5.899,1.138,8.661,2.564L121.168,179.507z    M118.173,152.512c-1.156,0.191-2.553-2.414-3.119-5.818c-0.565-3.406-0.084-6.322,1.074-6.514   c1.158-0.191,2.555,2.412,3.119,5.818C119.811,149.402,119.331,152.318,118.173,152.512z M107.303,145.998   c0.566-3.406,1.963-6.01,3.119-5.818c1.158,0.191,1.639,3.107,1.074,6.514c-0.564,3.404-1.961,6.01-3.119,5.818   C107.219,152.318,106.739,149.402,107.303,145.998z M111.276,163.418v15.05c-1.703,0.228-3.779,0.657-5.894,1.039l-2.769-13.524   C105.375,164.557,108.442,163.697,111.276,163.418z M99.013,168.343l2.3,11.229l0.109,0.534c-1.313,0.142-2.55,0.193-3.62,0.09   c-2.56-0.248-4.162-1.393-3.526-4.391C94.92,172.77,96.685,170.282,99.013,168.343z M125.128,180.105l0.129-0.632l2.28-11.133   c2.33,1.939,4.095,4.429,4.739,7.464c0.243,1.146,0.15,2.014-0.189,2.673C131.169,180.262,128.383,180.457,125.128,180.105z    M82.725,113.789c1.399-0.819,3.565-0.537,6.014,0.425c0.041,0.016,0.081,0.03,0.121,0.047c4.14,1.658,9.062,5.239,12.508,8.824   c3.078,3.201,4.979,6.4,4.07,8.217c-1.434,2.868-5.765,2.397-10.175,0.77c-2.734-1.01-5.499-2.462-7.624-3.847   c-0.452-0.295-0.887-0.629-1.313-0.979c-1.591-1.308-2.973-2.953-3.962-4.669C80.368,119.115,79.972,115.403,82.725,113.789z"></path><path d="M58.924,37.154c3.852,1.075,7.189,3.238,9.827,6.102c2.936-0.724,5.738-0.248,5.738-0.248s6.496,0.763,11.566,0.821   c0.823,0.009,1.611,0.001,2.325-0.033c1.446-0.069,2.599-0.24,3.177-0.566c1.679-0.947,0.99-6.488-10.011-11.857   c-0.877-0.428-1.82-0.854-2.833-1.278c-2.594-1.085-5.641-2.147-9.217-3.146c-8.077-2.254-13.491,2.487-17.113,9.486   C54.56,36.328,56.761,36.551,58.924,37.154z"></path><path d="M34.953,101.172c-2.462,7.282-5.207,15.304-8.046,23.583c-1.771,5.162-3.577,10.422-5.375,15.668   c-11.032,32.185-21.725,63.736-21.53,67.638c0.393,7.896,5.343,8.758,13.183,10.428c7.84,1.668,8.231-12.758,6.765-16.801   c-0.64-1.766,5.368-25.225,12.667-51.958c1.479-5.416,3.011-10.966,4.551-16.498c2.955-10.611,5.938-21.146,8.641-30.538   c0.593,0.497,1.13,1.067,1.609,1.709c1.918,2.566,2.947,6.232,3.159,10.492c0.463,9.316,11.059-15.259,11.277-30.29   c-2.134,1.56-4.402,2.815-6.722,3.646l-0.541,1.939c-0.511,1.831-2.153,3.027-3.958,3.086c-0.421,0.014-0.848-0.015-1.275-0.134   c-0.248-0.069-0.48-0.164-0.704-0.272c-0.76-0.366-1.378-0.937-1.795-1.631c-0.926,0.489-2.035,0.639-3.123,0.334   c-1.086-0.303-1.956-1.004-2.495-1.901c-0.773,0.407-1.67,0.56-2.578,0.431c-0.182-0.026-0.364-0.046-0.546-0.097   c-0.49-0.137-0.926-0.367-1.317-0.647c-1.411-1.01-2.125-2.821-1.632-4.588l0.541-1.939c-1.146-1.41-2.147-3.004-3.005-4.72   c-5.169,5.481-14.036,16.422-15.378,28.194c-1.891,16.588,3.882,0.279,15.234-4.313c0.125-0.051,0.248-0.108,0.375-0.156   C33.631,101.574,34.302,101.355,34.953,101.172z"></path><path d="M68.941,46.616c-0.262-0.366-0.534-0.722-0.818-1.069c-0.446-0.545-0.919-1.065-1.418-1.56   c-0.021-0.022-0.043-0.041-0.064-0.063c-2.271-2.239-5.048-3.951-8.253-4.845c-2.327-0.649-4.685-0.82-6.99-0.585   c-0.777,0.079-1.549,0.2-2.311,0.37c-7.734,1.729-14.498,8.035-16.847,16.451c-1.839,6.589-1.061,14.798,1.947,21.265   c1.002,2.155,2.252,4.116,3.735,5.76l-0.828,2.968c-0.198,0.711-0.026,1.432,0.392,1.975c0.286,0.371,0.684,0.661,1.17,0.796   c0.218,0.061,0.436,0.077,0.652,0.072c0.966-0.02,1.847-0.656,2.12-1.634l0.289-1.036c0.392,0.232,0.792,0.451,1.204,0.645   l-0.209,0.75c-0.334,1.196,0.366,2.438,1.563,2.771c1.198,0.335,2.439-0.365,2.772-1.563l0.209-0.749   c0.453,0.048,0.908,0.067,1.364,0.072l-0.289,1.036c-0.265,0.951,0.128,1.922,0.9,2.452c0.199,0.137,0.417,0.251,0.663,0.32   c0.464,0.129,0.933,0.1,1.354-0.049c0.667-0.236,1.213-0.78,1.418-1.513l0.828-2.967c2.896-0.872,5.72-2.488,8.29-4.573   c4.956-4.021,8.949-9.818,10.564-15.604c0.51-1.827,0.765-3.673,0.832-5.505c0.028-0.755,0.021-1.505-0.021-2.252   C72.905,54.304,71.419,50.069,68.941,46.616z M66.239,66.832c-0.002,1.459-0.751,2.771-1.946,3.703   c-1.123,0.876-2.64,1.415-4.313,1.413c-1.766-0.003-3.356-0.608-4.491-1.576c-1.083-0.924-1.752-2.178-1.75-3.56   c0.005-2.831,2.808-5.12,6.259-5.114c1.957,0.003,3.701,0.744,4.845,1.9C65.717,64.481,66.241,65.606,66.239,66.832z    M37.301,58.756c1.305-2.164,4.295-2.797,7.025-1.644c0.329,0.139,0.655,0.291,0.973,0.483c0.321,0.194,0.618,0.41,0.896,0.638   c2.288,1.876,3.113,4.816,1.81,6.978c-0.613,1.017-1.609,1.676-2.765,1.994c-0.636,0.174-1.315,0.245-2.02,0.194   c-1.07-0.077-2.179-0.403-3.213-1.027C37.051,64.59,35.839,61.181,37.301,58.756z M44.28,78.215   c-0.735-0.329-1.054-1.302-0.892-2.417c0.058-0.397,0.173-0.81,0.357-1.22c0.701-1.565,2.076-2.47,3.07-2.024   c0.994,0.445,1.233,2.074,0.531,3.638c-0.054,0.122-0.12,0.232-0.182,0.345C46.43,77.88,45.196,78.625,44.28,78.215z    M48.598,76.818c0.006-0.091,0.005-0.18,0.016-0.272c0.21-1.7,1.257-2.971,2.338-2.837c1.083,0.133,1.79,1.621,1.58,3.32   c-0.023,0.186-0.06,0.364-0.102,0.539c-0.343,1.419-1.274,2.417-2.238,2.296C49.17,79.738,48.492,78.399,48.598,76.818z"></path></g></svg>