<svg xmlns="http://www.w3.org/2000/svg" xmlns:xlink="http://www.w3.org/1999/xlink" version="1.1" x="0px" y="0px" viewBox="0 0 24 24" style="enable-background:new 0 0 24 24;" xml:space="preserve"><g><path d="M19.333,18H4.167v-1h14.719c0.246-1.951,0.726-2.89,1.619-4.641c0.166-0.326,0.349-0.683,0.548-1.082l0.223-0.447   l0.896,0.446l-0.224,0.447c-0.2,0.402-0.384,0.762-0.552,1.09c-0.959,1.879-1.356,2.657-1.565,4.736L19.333,18z"></path><path d="M13.837,10.978c-0.086,0-0.173-0.009-0.26-0.026c-0.482-0.099-0.849-0.457-0.956-0.935l-0.62-3.428l0.984-0.178   l0.615,3.407c0.024,0.109,0.132,0.145,0.176,0.154c0.044,0.008,0.159,0.019,0.24-0.092l2.239-2.503l0.744,0.667l-2.206,2.462   C14.586,10.8,14.227,10.978,13.837,10.978z"></path><path d="M17.886,12.1c-0.202,0-0.413-0.049-0.605-0.152c-0.398-0.214-0.646-0.628-0.646-1.08l0.37-2.934l0.992,0.127l-0.366,2.87   c0.004,0.053,0.079,0.111,0.124,0.136c0.038,0.021,0.138,0.06,0.245-0.011l2.301-1.014l0.4,0.916l-2.226,0.973   C18.315,12.042,18.105,12.1,17.886,12.1z"></path><path d="M22,11.5c-1.103,0-2-0.897-2-2s0.897-2,2-2s2,0.897,2,2S23.103,11.5,22,11.5z M22,8.5c-0.552,0-1,0.449-1,1s0.448,1,1,1   s1-0.449,1-1S22.552,8.5,22,8.5z"></path><path d="M12,7c-1.11,0-2.013-0.897-2.013-2S10.89,3,12,3c1.109,0,2.013,0.897,2.013,2S13.109,7,12,7z M12,4   c-0.559,0-1.013,0.449-1.013,1S11.441,6,12,6s1.013-0.449,1.013-1S12.559,4,12,4z"></path><path d="M17.5,8.5c-1.103,0-2-0.897-2-2s0.897-2,2-2s2,0.897,2,2S18.603,8.5,17.5,8.5z M17.5,5.5c-0.552,0-1,0.449-1,1s0.448,1,1,1   s1-0.449,1-1S18.052,5.5,17.5,5.5z"></path><circle cx="12" cy="14" r="1"></circle><circle cx="8" cy="14" r="1"></circle><circle cx="16" cy="14" r="1"></circle><path d="M4.219,18.047l-0.05-0.497c-0.209-2.094-0.642-2.938-1.588-4.787c-0.162-0.315-0.337-0.658-0.528-1.039l-0.224-0.447   l0.894-0.448l0.224,0.447c0.19,0.378,0.364,0.719,0.524,1.032c0.975,1.904,1.464,2.86,1.693,5.143l0.05,0.497L4.219,18.047z"></path><path d="M10.167,10.978c-0.392,0-0.759-0.185-0.995-0.514L6.999,8.043l0.745-0.667L9.95,9.839c0.112,0.151,0.226,0.141,0.272,0.133   c0.045-0.009,0.151-0.044,0.181-0.174l0.6-3.385l0.984,0.175l-0.604,3.407c-0.111,0.5-0.478,0.858-0.96,0.957   C10.336,10.969,10.251,10.978,10.167,10.978z"></path><path d="M6.133,12.096c-0.239,0-0.476-0.069-0.683-0.206L3.3,10.958l0.4-0.916l2.226,0.973c0.182,0.112,0.283,0.073,0.32,0.052   c0.045-0.024,0.121-0.083,0.121-0.199L6.004,8.061l0.992-0.127l0.367,2.87c0.004,0.515-0.244,0.929-0.644,1.144   C6.535,12.046,6.333,12.096,6.133,12.096z"></path><path d="M2,11.5c-1.103,0-2-0.897-2-2s0.897-2,2-2s2,0.897,2,2S3.103,11.5,2,11.5z M2,8.5c-0.551,0-1,0.449-1,1s0.449,1,1,1   s1-0.449,1-1S2.551,8.5,2,8.5z"></path><path d="M6.5,8.5c-1.103,0-2-0.897-2-2s0.897-2,2-2s2,0.897,2,2S7.603,8.5,6.5,8.5z M6.5,5.5c-0.551,0-1,0.449-1,1s0.449,1,1,1   s1-0.449,1-1S7.051,5.5,6.5,5.5z"></path><path d="M19,21H5c-1.103,0-2-0.897-2-2s0.897-2,2-2h14c1.103,0,2,0.897,2,2S20.103,21,19,21z M5,18c-0.551,0-1,0.448-1,1   s0.449,1,1,1h14c0.552,0,1-0.448,1-1s-0.448-1-1-1H5z"></path></g></svg>