<?xml version="1.0" encoding="UTF-8" standalone="no"?><svg xmlns:dc="http://purl.org/dc/elements/1.1/" xmlns:cc="http://creativecommons.org/ns#" xmlns:rdf="http://www.w3.org/1999/02/22-rdf-syntax-ns#" xmlns:svg="http://www.w3.org/2000/svg" xmlns="http://www.w3.org/2000/svg" xmlns:sodipodi="http://sodipodi.sourceforge.net/DTD/sodipodi-0.dtd" xmlns:inkscape="http://www.inkscape.org/namespaces/inkscape" width="450mm" height="400mm" viewBox="40 150 1500 1300" version="1.1"><g transform="translate(0,364.96063)"><path style="fill:#307000" d="m 1403.1885,998.12232 c -12.26,-3.76884 -30.174,-17.05435 -48.7725,-36.17099 -19.4616,-20.00379 -30.6752,-34.32289 -52.114,-66.5466 -38.5159,-57.89156 -50.2441,-93.77016 -55.0389,-168.37366 -1.512,-23.52651 -0.9747,-34.39866 2.0027,-40.51893 2.0732,-4.26156 1.964,-4.66609 -1.6285,-6.03193 -2.1178,-0.80523 -5.9388,-4.17933 -8.4909,-7.49802 -2.5521,-3.31869 -6.0376,-7.22258 -7.7455,-8.67531 -8.3812,-7.12884 -9.1507,-8.44254 -9.1507,-15.62151 0,-7.05777 -14.8169,-52.8829 -22.4859,-69.54377 l -3.3849,-7.35362 -0.151,13.0731 c -0.083,7.19021 -1.5977,29.61875 -3.3658,49.84121 -1.7681,20.22245 -4.3308,52.94606 -5.6949,72.71913 -1.3642,19.77307 -3.3108,43.17776 -4.3259,52.01042 -1.3647,11.87514 -1.3677,16.53737 -0.011,17.89381 2.4267,2.42678 2.3369,8.1953 -0.1667,10.69888 -1.1006,1.10061 -2.4567,5.8437 -3.0135,10.54019 -0.9695,8.17623 -1.0663,8.31579 -2.2774,3.28418 l -1.2648,-5.25495 -15.297,14.24271 -15.297,14.24269 -0.034,11.25742 c -0.063,20.63763 -10.9158,78.57952 -18.1105,96.68869 -9.8553,24.80631 -20.15,38.30922 -29.207,38.30922 -10.0225,0 -10.755,-7.54236 -2.2066,-22.72089 6.3571,-11.28766 15.4172,-31.91347 19.3568,-44.06709 4.4998,-13.88153 14.4893,-65.57718 12.6719,-65.57718 -0.3185,0 -3.6897,1.96387 -7.4917,4.36418 -3.9618,2.50124 -10.153,4.67566 -14.5038,5.0939 -6.6399,0.63826 -7.7294,0.29455 -8.6933,-2.74241 -1.8856,-5.94091 4.4345,-11.94104 48.8232,-46.35141 12.6621,-9.81571 23.6188,-18.41559 24.3483,-19.11086 0.7294,-0.69528 0.1491,-9.19112 -1.2895,-18.87966 -2.2417,-15.0974 -2.3723,-23.01363 -0.9134,-55.37833 0.9362,-20.76955 3.1944,-53.20542 5.0182,-72.07971 6.4693,-66.94921 6.0371,-146.43247 -0.9624,-176.99682 -1.2992,-5.67313 -2.3621,-11.43346 -2.3621,-12.80076 0,-4.23389 3.7475,-1.48983 6.0385,4.42158 1.1981,3.09147 1.7534,3.78243 1.234,1.53549 -4.0688,-17.6005 -1.8711,-23.60483 6.9668,-19.03454 4.6494,2.40429 21.5335,22.30281 18.9242,22.30281 -0.7536,0 -4.1494,-2.29081 -7.5461,-5.09068 -3.3968,-2.79988 -6.5493,-4.71733 -7.0056,-4.261 -0.4564,0.45634 0.3995,5.05831 1.902,10.22663 1.7927,6.16659 2.3576,11.70414 1.6434,16.10849 -1.4916,9.19774 -1.5022,8.72426 0.4548,20.27324 1.1514,6.79496 3.1592,11.97503 5.9075,15.24116 4.8715,5.78948 5.1102,7.27293 1.4957,9.29571 -2.3667,1.32447 -2.4333,2.48561 -0.5903,10.29457 1.1426,4.84093 4.9676,16.52301 8.5002,25.96016 5.2926,14.139 25.7835,70.68058 28.2785,78.03008 0.3814,1.12347 1.7937,2.04267 3.1384,2.04267 2.7078,0 6.4624,5.82274 5.1372,7.96693 -1.1572,1.87236 5.5138,7.73115 10.4959,9.21809 2.247,0.6706 6.0174,2.57939 8.3788,4.24173 4.8937,3.44494 13.8477,5.93764 40.7763,11.35159 16.6482,3.34709 20.7422,3.61636 34.0499,2.23957 8.3195,-0.86074 15.4538,-1.0352 15.854,-0.38772 0.958,1.55005 -4.4956,5.02329 -16.535,10.53068 -14.687,6.71853 -39.7127,7.2674 -55.4802,1.21681 -2.9795,-1.14334 -2.9531,-0.90103 0.4185,3.8339 1.9795,2.7799 4.7635,10.08438 6.1867,16.23217 1.4233,6.14779 4.8045,18.43018 7.5139,27.29422 4.2257,13.82473 4.6004,16.44221 2.6352,18.4074 -1.9652,1.9652 -2.2966,1.53245 -2.3308,-3.04332 -0.043,-5.79034 -21.8207,-47.76784 -23.7136,-45.70964 -2.3062,2.50745 -4.6806,19.21063 -4.6806,32.92698 0,15.33708 2.9444,30.17451 16.9947,85.6409 4.9163,19.40767 9.1254,32.25833 12.5784,38.40224 8.758,15.58286 32.2361,50.77611 44.8656,67.25248 14.3943,18.77884 45.159,49.22463 53.941,53.38176 4.0621,1.92292 8.794,6.48686 13.2647,12.79408 10.7803,15.20874 9.4826,17.79894 -6.4619,12.89746 z M 1268.006,674.83511 c 0,-0.39634 -0.7353,-1.17511 -1.6341,-1.73058 -0.8988,-0.55548 -1.6341,-0.2312 -1.6341,0.72062 0,0.95182 0.7353,1.73058 1.6341,1.73058 0.8988,0 1.6341,-0.32428 1.6341,-0.72062 z m -8.1707,-3.17413 c 0,-0.34456 -1.4717,-1.01134 -3.2705,-1.48174 -1.7988,-0.47039 -2.8584,-0.18848 -2.3547,0.62648 0.8795,1.42319 5.6252,2.14471 5.6252,0.85526 z M 672.36283,964.72303 c -4.55548,-1.77884 -12.14739,-3.19513 -17.15844,-3.20095 -19.17645,-0.0222 -27.30143,-5.07067 -36.58062,-22.729 -7.93359,-15.09765 -9.9935,-21.02565 -17.35588,-49.94642 L 595.037,864.37052 569.36372,846.95498 c -26.33516,-17.86456 -28.48086,-19.73346 -28.52396,-24.84441 -0.013,-1.63283 -1.7824,-5.30964 -3.9302,-8.17068 -15.8619,-21.12885 -25.87,-55.08952 -45.8435,-155.56151 -12.7423,-64.09666 -13.4639,-68.78371 -10.7322,-69.70432 0.9755,-0.32875 -0.2189,-9.49452 -3.0126,-23.11888 l -4.629,-22.57416 -6.1414,8.05323 c -4.894,6.41739 -8.5143,9.08536 -17.8227,13.13433 -6.4855,2.82106 -14.2251,4.99898 -17.4007,4.89648 -3.1457,-0.10148 -14.8518,1.75647 -26.0136,4.1289 -23.8263,5.06427 -53.9677,5.83392 -72.739,1.85738 -6.2294,-1.31965 -11.4449,-2.22609 -11.59,-2.01431 -0.1451,0.2118 -3.5725,5.53262 -7.6165,11.82405 -13.397,20.84245 -16.7764,23.37713 -60.1619,45.12325 -14.6821,7.35915 -47.4928,17.59347 -75.3386,23.49971 -16.3254,3.46265 -26.5676,4.48651 -52.7555,5.27359 -27.103498,0.8146 -32.373198,0.60509 -31.750698,-1.26226 0.9667,-2.90035 44.847298,-16.65314 73.235498,-22.9531 50.3731,-11.17884 82.2269,-20.65446 89.4139,-26.59811 2.5019,-2.06916 9.207,-6.22253 14.9,-9.22972 12.3113,-6.50315 23.0364,-17.95111 32.7928,-35.00304 11.0319,-19.28123 15.1839,-33.18754 15.6344,-52.36453 0.2114,-8.99985 0.9396,-17.65025 1.618,-19.22311 3.3263,-7.71075 10.2837,1.31782 12.6302,16.39012 2.3122,14.85152 0.9623,29.87995 -3.9429,43.89574 l -4.0842,11.67026 5.9026,1.01318 c 12.356,2.12088 47.4427,3.11777 49.5562,1.40799 1.1562,-0.93541 6.0566,-2.23264 10.8896,-2.88275 4.8331,-0.65011 12.5544,-2.84006 17.1585,-4.86657 4.6041,-2.02652 12.7411,-4.9478 18.0822,-6.49175 7.6964,-2.22481 11.5308,-4.62696 18.4829,-11.57904 4.8245,-4.82453 10.0935,-9.19134 11.7088,-9.70402 3.7339,-1.18509 19.3137,-32.5145 26.4319,-53.15187 2.9451,-8.53837 6.1109,-16.03233 7.0352,-16.65324 0.9242,-0.62092 2.4428,-3.80131 3.3746,-7.06754 2.7056,-9.48429 4.9194,-7.50645 5.4536,4.87233 0.6445,14.93379 -5.1978,48.04844 -10.6013,60.08888 l -4.2348,9.43641 4.438,27.36253 c 6.218,38.33774 8.312,48.84711 17.4995,87.82562 4.4488,18.8743 10.2062,43.50892 12.7943,54.74362 5.8355,25.33118 13.3044,52.64751 18.6542,68.22526 7.4042,21.55967 -0.6677,11.35415 -10.3865,-13.13184 -2.064,-5.20025 -4.0227,-9.18508 -4.3526,-8.85518 -0.9926,0.99264 6.9302,26.08713 12.1844,38.59265 7.2049,17.14815 14.4699,27.65664 21.34922,30.88088 3.51233,1.64618 6.88665,4.88417 8.34693,8.00976 1.831,3.91907 9.27339,9.77145 29.41448,23.13032 32.46821,21.53503 45.50435,28.59034 84.97516,45.98956 16.62736,7.32953 30.84715,13.91883 31.59954,14.64289 3.554,3.42013 -3.41206,2.56339 -25.92483,-3.18849 -24.77122,-6.32888 -40.61537,-11.94781 -59.54069,-21.11536 -5.73174,-2.7765 -10.77064,-4.69888 -11.19754,-4.27198 -2.08578,2.08576 12.02961,44.5759 18.5106,55.72059 6.09953,10.48874 7.65473,11.19221 27.59542,12.48241 9.97723,0.64555 21.27033,1.64244 25.09577,2.2153 7.31961,1.09612 11.1866,3.9646 5.34466,3.9646 -1.87947,0 -6.15119,1.18754 -9.49274,2.639 l -6.07553,2.63899 4.25596,1.85489 c 5.88488,2.5648 9.7715,6.0302 8.7027,7.75952 -1.40359,2.27105 -7.33187,1.57896 -16.22694,-1.8944 z M 482.35696,535.68669 c -0.5705,-2.98487 -1.1998,-3.60424 -2.1311,-2.09748 -0.7299,1.18107 -0.5422,3.07698 0.4194,4.2356 2.4321,2.93055 2.6328,2.67989 1.7117,-2.13812 z M 1528.718,952.1801 c 0.5619,-3.7942 -0.098,-16.29536 -1.4669,-27.78034 -1.3687,-11.48498 -2.9123,-29.67197 -3.4302,-40.41553 -2.0235,-41.97214 -15.0957,-87.41923 -38.6593,-134.40413 -11.2076,-22.34741 -14.6681,-30.73423 -13.9167,-33.72811 1.2154,-4.84218 5.0461,-6.56778 9.4035,-4.23582 3.12,1.6698 3.1084,1.47939 -0.3233,-5.31681 -7.4836,-14.82044 -47.0862,-71.59707 -49.9401,-71.59707 -0.4646,0 1.4137,4.16987 4.1741,9.26637 2.7604,5.09652 4.8236,9.46161 4.585,9.70023 -0.7699,0.76989 -23.0811,-27.46296 -28.4591,-36.01248 -17.8168,-28.32369 -20.1568,-34.36243 -16.0256,-41.35607 2.7026,-4.57506 2.596,-5.13675 -4.8992,-25.81387 -5.3909,-14.87188 -8.4256,-26.57056 -10.2385,-39.46842 -2.4794,-17.63962 -2.4513,-18.84305 0.7442,-31.8902 l 3.3209,-13.55883 -8.2522,-19.60966 c -14.9649,-35.56111 -41.0995,-83.94319 -56.9352,-105.40189 -4.607,-6.24293 -6.3213,-7.74011 -5.6133,-4.90241 0.5605,2.24694 2.1308,11.07128 3.4893,19.60965 6.1172,38.44563 7.7929,48.34135 8.5088,50.24974 0.4215,1.12347 0.048,2.04267 -0.829,2.04267 -0.8775,0 -3.5298,-4.22833 -5.894,-9.39629 -2.3642,-5.16796 -6.732,-13.5914 -9.7064,-18.71875 -2.9743,-5.12736 -7.4252,-15.52207 -9.891,-23.09938 -3.9464,-12.12705 -5.0112,-13.88513 -8.8913,-14.6806 -6.5607,-1.34504 -9.1481,-6.90598 -10.3982,-22.34842 -1.7087,-21.10741 -3.9821,-33.7607 -8.8068,-49.0152 -7.7164,-24.39774 -10.5264,-29.1013 -27.044,-45.26848 -34.3587,-33.6296 -62.5127,-52.12257 -86.2289,-56.63952 l -5.5095,-1.04933 8.8926,10.21221 c 13.2935,15.26614 22.7695,27.69903 21.8286,28.6399 -0.4594,0.45949 -3.8241,-2.24417 -7.4769,-6.00816 -6.1052,-6.29104 -7.2519,-6.81201 -14.2021,-6.45223 -7.2768,0.37666 -7.8539,0.0588 -15.3661,-8.46168 -4.2929,-4.86918 -8.3976,-8.26069 -9.1214,-7.5367 -0.7238,0.72401 -1.4151,8.79238 -1.5361,17.92976 -0.1211,9.13737 -0.9658,27.17539 -1.8771,40.08447 -1.6971,24.03858 -3.5308,29.64318 -9.0109,27.54028 -1.938,-0.74367 -2.5971,-8.2112 -3.5898,-40.66838 l -1.216,-39.75745 -5.1162,-3.294 c -7.2704,-4.68104 -7.2819,-9.09384 -0.045,-17.10472 l 6.0861,-6.73648 -8.5475,-8.65494 c -9.3493,-9.4669 -27.672,-21.04129 -47.7399,-30.15726 -7.0852,-3.21845 -12.8821,-6.68011 -12.8821,-7.69259 0,-1.01248 -1.4534,-3.15617 -3.2297,-4.76376 -1.7764,-1.60758 -2.9174,-3.42826 -2.5357,-4.04593 0.5601,-0.90616 -10.3044,-6.455006 -21.6064,-11.035135 -1.1301,-0.457983 -2.0427,0.345359 -2.0427,1.798255 0,1.499288 1.345,2.626043 3.1347,2.626043 4.2694,0 8.3043,1.672932 8.3043,3.443112 0,0.802607 -2.2848,1.459301 -5.0773,1.459301 -4.1794,0 -4.876,0.505684 -3.9395,2.859744 0.6257,1.57286 1.3814,6.6357 1.6793,11.25076 0.2979,4.61505 2.4176,16.02887 4.7106,25.36401 2.2929,9.33516 6.0428,29.82614 8.3331,45.53555 2.2902,15.70939 5.1856,35.18078 6.4341,43.26976 4.9929,32.34921 6.3118,59.79763 5.3,110.30431 -0.8609,42.9763 -4.1735,93.78599 -6.8585,105.19679 -2.5568,10.86651 -6.8732,46.75219 -6.1611,51.22251 1.1812,7.41503 -2.32,36.1417 -6.5288,53.56741 -1.9537,8.08898 -3.4358,15.7921 -3.2935,17.11802 0.2802,2.61099 -19.8788,52.41061 -26.5261,65.52839 -2.51502,4.96312 -6.43607,9.53036 -10.24779,11.93659 -4.91974,3.10568 -7.12612,6.26241 -10.86011,15.53784 -5.39818,13.40934 -7.59954,14.77563 -2.59606,1.61126 1.8357,-4.82978 3.33799,-9.33294 3.33845,-10.00702 0.002,-3.49978 -9.43004,-0.24466 -22.39107,7.72714 -15.74484,9.68401 -51.97812,23.97015 -68.19435,26.88782 -5.33303,0.95954 -17.9908,1.74461 -28.12838,1.74461 -14.72499,0 -20.14024,-0.67335 -26.92595,-3.34802 -5.58173,-2.20011 -8.85566,-2.76286 -9.54882,-1.6413 -0.58014,0.93872 -8.7347,3.09954 -18.12124,4.80187 -16.5034,2.993 -34.25445,9.34228 -36.56332,13.07812 -1.47597,2.38816 -8.6523,2.34415 -9.45302,-0.058 -0.44433,-1.33303 -3.14944,-1.03599 -9.36424,1.02824 -10.72171,3.56118 -31.18731,3.5825 -44.72379,0.0466 -24.51957,-6.40481 -88.81526,-35.96757 -102.57115,-47.16158 -2.37507,-1.93273 -11.41455,-9.28174 -20.08774,-16.33113 -13.68987,-11.12685 -31.22296,-29.13267 -38.73046,-39.77464 -1.2801,-1.81464 -4.5336,-4.44917 -7.2299,-5.85449 -2.6964,-1.40531 -7.2547,-5.0078 -10.1297,-8.0055 -13.7553,-14.3425 -16.6661,-35.858 -9.5644,-70.69752 3.8791,-19.03024 4.2589,-24.05445 3.8294,-50.65828 l -0.4767,-29.53276 5.8935,-12.25603 c 3.2415,-6.74082 8.8342,-15.54011 12.4284,-19.554 l 6.5348,-7.29796 -13.339,-18.03117 c -7.3364,-9.91714 -16.9737,-24.08304 -21.4161,-31.47976 -4.6436,-7.73163 -9.1191,-13.38262 -10.5283,-13.29345 -4.6817,0.29626 -6.5366,-0.23025 -6.5366,-1.85538 0,-0.89878 1.1031,-1.63414 2.4512,-1.63414 3.5395,0 3.2221,-1.20086 -4.8013,-18.16526 -10.2688,-21.71198 -15.3873,-40.8829 -18.2741,-68.44405 -3.6621,-34.96466 -1.4884,-31.7702 -17.3726,-25.53075 -19.9292,7.8284 -21.3302,8.87601 -10.8425,8.10781 8.2729,-0.60598 7.9174,-0.40491 -5.9043,3.33929 -18.773,5.08547 -26.8531,8.56403 -28.0891,12.09262 -0.5411,1.54446 -4.8702,8.04842 -9.6204,14.45326 -8.7256,11.76524 -18.6721,20.96822 -27.656,25.58874 l -4.9024,2.52136 4.9024,1.09412 c 9.7083,2.16669 10.1054,2.46745 6.6327,5.02319 -2.2611,1.6641 -2.4957,2.34169 -0.817,2.35952 1.808,0.0193 1.8761,0.32902 0.2931,1.33391 -1.3146,0.83454 -1.7046,3.09496 -1.0762,6.23728 0.7645,3.82259 2.3271,5.40429 6.9643,7.04938 15.5943,5.53224 26.7512,11.5106 25.8524,13.85284 -0.9936,2.58926 7.2528,9.15274 24.3003,19.34096 5.4214,3.24007 14.8992,9.61306 21.0618,14.16219 10.0622,7.42772 11.4075,7.99389 13.193,5.55203 3.2141,-4.39547 7.8458,-1.56805 6.6145,4.03781 -0.7503,3.41631 -0.1551,5.36729 2.3211,7.60825 1.8316,1.65757 3.3302,4.82396 3.3302,7.03643 0,4.07956 -1.1748,4.2587 -8.379,1.27769 -2.091,-0.86523 -2.908,0.22395 -3.8219,5.09545 -0.6393,3.40777 -1.8228,7.43003 -2.63,8.93836 -1.904,3.5576 -7.5919,2.14312 -8.981,-2.23336 -0.9464,-2.9818 -1.9651,-3.18577 -11.0846,-2.21952 -6.2538,0.66264 -13.6463,2.91898 -19.5956,5.98099 -7.5799,3.90125 -10.0358,4.51656 -11.8888,2.97873 -3.2658,-2.71042 0.5713,-6.71296 10.5282,-10.98215 11.8182,-5.06726 18.5095,-5.82022 25.5565,-2.8758 3.4008,1.42093 6.4265,2.58351 6.7239,2.58351 0.5577,0 3.9373,-11.40712 3.9535,-13.34442 0.019,-2.26706 -60.3634,-39.09286 -68.9353,-42.04202 -4.9366,-1.69846 -15.0109,-5.74161 -22.3872,-8.9848 -9.0907,-3.99694 -15.8528,-5.89669 -20.9892,-5.89669 -5.5138,0 -8.6002,-0.96058 -11.3318,-3.52685 l -3.7542,-3.52686 -4.2005,9.17521 c -2.3104,5.04638 -4.7893,12.89917 -5.5088,17.45065 -1.8837,11.91618 -4.0157,12.43855 -3.0051,0.73628 0.4713,-5.45773 2.3149,-12.81135 4.0968,-16.34138 6.6813,-13.23575 6.2475,-16.89777 -1.2797,-10.80265 -3.1753,2.57125 -3.4009,3.46615 -1.6827,6.67651 2.6924,5.03094 1.0721,6.08411 -4.1232,2.68001 -3.4901,-2.2868 -4.1343,-3.70394 -3.3856,-7.44749 l 0.9246,-4.62327 -13.4152,3.75347 c -16.8486,4.71406 -28.4702,9.32851 -42.0127,16.68146 -11.8463,6.43197 -34.3169,22.7421 -34.3169,24.9087 0,0.76954 10.4789,7.14846 23.2864,14.1754 12.8076,7.02694 27.331,15.35848 32.2742,18.51454 4.9433,3.15604 13.7677,7.42426 19.6097,9.48492 l 10.6219,3.74666 -8.1707,-0.84807 c -4.4939,-0.46645 -15.4385,-1.50034 -24.3215,-2.29755 -15.2174,-1.36568 -17.2952,-2.02403 -35.951,-11.39095 -17.1542,-8.61294 -20.6241,-9.80576 -25.9652,-8.92581 -4.6036,0.75842 -6.9573,0.29864 -9.2934,-1.81545 -1.7205,-1.5571 -3.8294,-2.39782 -4.6862,-1.86824 -0.8569,0.52956 -2.0219,-1.51032 -2.589,-4.5331 -0.7872,-4.19609 -3.1644,-7.09139 -10.0513,-12.24174 -4.9612,-3.71018 -10.0568,-6.74578 -11.3236,-6.74578 -5.4012,0 -77.3407,34.85474 -95.135598,46.09329 -8.3738,5.28848 -10.019,6.99521 -8.5036,8.82117 1.435,1.72912 1.3003,3.13461 -0.5704,5.94899 -3.1071,4.6745 -20.0823,14.95277 -22.3652,13.54183 -0.945,-0.58407 -1.7183,-4.69326 -1.7183,-9.13151 0,-6.95711 0.8042,-8.95968 5.8336,-14.52667 8.2076,-9.08474 26.4761,-20.36565 60.725498,-37.49817 46.2844,-23.15284 64.3075,-31.22445 69.7212,-31.22445 2.0042,0 5.8039,2.27173 8.4437,5.04831 2.6398,2.77656 6.6499,6.01567 8.9114,7.198 3.9393,2.05952 4.8179,1.51209 20.9426,-13.04852 24.0493,-21.71655 38.3213,-28.69808 71.9214,-35.18222 12.8293,-2.4758 20.744,-3.09882 30.4478,-2.39674 l 13.1123,0.94868 5.0997,-7.08111 c 2.8049,-3.89463 6.5879,-9.99571 8.4067,-13.55799 4.4976,-8.80872 25.3326,-31.85696 36.3348,-40.19435 9.3048,-7.05116 24.7898,-14.69304 49.4212,-24.3895 13.7634,-5.41815 14.2877,-5.81422 14.2987,-10.80167 0.013,-5.65484 1.3929,-10.34535 3.046,-10.34991 0.5779,-0.002 1.0508,3.85905 1.0508,8.57922 0,8.19077 0.2092,8.60611 4.5883,9.10831 l 4.5884,0.52619 -1.0926,-10.33102 c -0.601,-5.68206 -2.4819,-12.76297 -4.1798,-15.73537 -1.698,-2.9724 -3.0872,-7.34128 -3.0872,-9.70863 0,-4.13549 0.094,-4.17989 2.3992,-1.13219 3.1442,4.15705 3.1441,2.30258 -0.001,-17.093 -2.6734,-16.48453 -7.6432,-30.59507 -16.748,-47.551654 -6.1207,-11.399092 -8.0456,-14.099946 -9.2152,-12.930295 -0.4081,0.408093 1.849,6.241965 5.0159,12.964155 5.8286,12.372274 12.4666,31.032034 14.2304,40.002524 0.9389,4.77485 0.9154,4.79611 -0.903,0.81707 -1.0269,-2.24694 -2.925,-6.65912 -4.2181,-9.80483 -5.4327,-13.21619 -18.983,-40.325722 -25.2012,-50.419106 -3.6801,-5.97359 -10.2439,-16.827567 -14.5862,-24.11994 -4.3423,-7.292389 -10.6689,-15.810496 -14.0591,-18.929117 -18.2627,-16.799444 -55.3642,-59.459675 -76.1895,-87.604496 -16.1119,-21.774822 -23.6261,-34.589437 -33.2443,-56.694401 -7.1926,-16.53061 -7.8209,-19.02635 -7.8162,-31.04862 0.01,-15.06618 1.3518,-21.30293 4.8899,-22.66062 4.4669,-1.71413 8.6275,4.60081 9.7274,14.76409 3.1134,28.77078 9.4507,44.31537 24.8457,60.943356 16.1483,17.441693 30.6739,28.273967 50.2401,37.466009 23.1284,10.865481 54.9925,29.942651 74.2249,44.4386475 12.303,9.2731603 15.0501,10.768805 14.1886,7.7249292 -0.5876,-2.0760741 0.8472,-0.5256858 3.1885,3.4453345 2.3413,3.9710038 8.9223,12.1655998 14.6244,18.2101948 12.4596,13.207837 33.7663,44.780247 38.254,56.685202 3.7919,10.059165 3.2853,11.091923 -1.2024,2.451207 -1.7505,-3.370409 -6.5736,-9.804827 -10.7181,-14.298706 -7.1784,-7.783464 -7.4059,-7.899635 -4.8002,-2.451207 1.5045,3.145715 6.0022,10.794526 9.995,16.997354 10.8393,16.838859 33.1517,62.964099 33.1517,68.532789 0,4.46008 2.2509,4.06081 9.1975,-1.63143 6.04393,-4.95251 7.14485,-6.76699 7.15041,-11.78496 0.01,-9.43428 4.50393,-34.0588 9.13364,-50.052892 3.63138,-12.545194 4.44773,-19.511786 5.55319,-47.389998 1.07158,-27.023296 1.91815,-34.5220764 4.88888,-43.30465235 1.9761,-5.84204315 4.23904,-11.40569465 5.02877,-12.36365865 0.78972,-0.957964 1.92352,-6.105499 2.51956,-11.438965 0.59602,-5.333466 1.98758,-10.800246 3.09236,-12.14841 1.21237,-1.479466 2.10201,-8.28168 2.24413,-17.158447 0.34607,-21.617323 1.5832,-28.242641 7.48855,-40.104358 2.92708,-5.879429 6.27143,-13.600729 7.43188,-17.158449 1.16045,-3.55771 4.95392,-12.48077 8.42993,-19.82903 6.68831,-14.13907 17.47625,-25.7715 25.75326,-27.7693 2.32183,-0.56041 7.38262,-3.90096 11.24621,-7.42344 7.48269,-6.82205 23.83377,-15.34499 32.60314,-16.99427 2.92102,-0.54936 5.31095,-1.95755 5.31095,-3.1293 0,-3.53823 14.53365,-15.19113 25.96317,-20.81692 9.68431,-4.76679 12.26861,-5.30497 26.29666,-5.47626 12.15672,-0.14845 17.22386,-0.9557 23.18384,-3.69347 10.40659,-4.78037 21.91465,-6.73847 39.60305,-6.73847 19.08375,0 23.83457,2.38218 32.69368,16.39343 5.75243,9.09782 6.67181,11.90622 7.44154,22.7311 l 0.87822,12.35081 5.03899,0 c 3.35745,0 7.9927,2.22281 13.89018,6.66097 4.86814,3.66353 12.70994,9.07036 17.42621,12.01517 11.53087,7.1998 22.25593,20.10065 14.11279,16.97582 -2.3158,-0.88865 -2.38251,-0.5299 -0.54129,2.91103 4.13841,7.73399 18.60804,27.65583 34.05274,46.883906 15.12904,18.835122 22.36621,40.509461 18.77155,56.218183 -1.34488,5.877144 -1.13365,7.955408 1.2008,11.814849 1.558,2.575777 3.44079,5.132386 4.18399,5.681375 5.29178,3.9088575 21.80172,23.318771 20.97398,24.658078 -0.56525,0.914594 1.15663,4.786471 3.82638,8.60416 2.66976,3.817706 8.70267,13.191856 13.40647,20.83145 4.7038,7.639595 9.18213,14.135293 9.95193,14.434879 0.7698,0.299603 1.3996,1.586487 1.3996,2.859742 0,1.273271 1.053,2.315034 2.3399,2.315034 1.287,0 3.9748,2.389926 5.9729,5.310948 5.8042,8.485081 12.3604,12.693574 10.1829,6.536551 -0.626,-1.770261 1.119,-0.852088 4.5805,2.410043 3.209,3.024152 16.1242,10.07397 30.3078,16.543603 32.79,14.956649 58.8631,30.861429 74.3845,45.374909 12.3853,11.58112 24.1337,18.00485 25.4896,13.93717 0.8569,-2.57077 5.2533,-2.3674 5.2533,0.24302 0,1.16205 4.2283,3.44131 9.3963,5.06506 17.6231,5.53708 22.1836,7.47541 33.0855,14.06244 5.9967,3.62326 17.0917,11.72355 24.6555,18.00061 7.5639,6.27707 14.9576,11.41387 16.4305,11.41511 4.1722,0.003 29.1323,25.59441 38.3991,39.36947 8.1412,12.10185 8.4141,12.89779 11.2089,32.68276 1.5755,11.15335 3.97,22.44629 5.3211,25.09542 1.3512,2.64913 7.7382,10.37043 14.1934,17.15845 18.6758,19.63846 49.4313,68.46572 71.0455,112.79135 11.1067,22.77721 12.4142,26.46806 12.7533,36.001 0.2078,5.84204 0.8821,15.70951 1.4984,21.92771 1.0036,10.1252 0.8373,11.19708 -1.5926,10.26464 -6.2461,-2.39685 -2.2847,24.34544 7.0933,47.88467 3.4385,8.63088 8.0731,21.26873 10.2991,28.08411 3.4369,10.52282 6.1075,14.82361 17.7085,28.51779 31.6825,37.39902 56.8504,72.64715 61.3845,85.97009 1.6062,4.71983 6.4167,15.34822 10.6899,23.61865 8.2416,15.95102 8.8946,17.71682 5.8576,15.83983 -1.3373,-0.82646 -1.5477,-0.24152 -0.7001,1.94624 2.9267,7.55402 7.5935,30.61514 9.0742,44.8399 0.8864,8.51551 3.4982,20.99795 5.8041,27.73877 12.1853,35.62195 16.1422,60.53281 15.0921,95.01417 -0.6772,22.23832 -1.5571,29.47198 -5.2371,43.05477 -4.9681,18.33694 -8.1577,25.35151 -6.5301,14.36095 z M 763.72161,687.24217 c 0.47135,-0.76267 -9.59647,-1.84573 -22.37296,-2.40681 -12.77648,-0.56106 -26.17141,-1.40812 -29.76651,-1.88233 -6.09517,-0.80398 -6.20551,-0.75036 -1.63414,0.79401 12.40123,4.18959 51.76321,6.748 53.77361,3.49513 z m 16.99718,-9.23523 c 11.48434,-4.66651 26.54465,-5.36881 36.78846,-1.71555 5.89208,2.1013 6.09858,2.0671 3.67681,-0.60893 -3.74437,-4.13749 -3.18796,-6.9787 1.25271,-6.39677 2.10024,0.27522 5.14193,-0.8229 6.75928,-2.44027 2.29027,-2.29025 4.42752,-2.7155 9.66304,-1.92265 14.34095,2.17176 33.00461,6.15781 35.82414,7.65109 1.62557,0.86092 5.05218,1.10482 7.61469,0.54201 4.48131,-0.98426 4.57158,-1.19108 2.36543,-5.41974 -2.6608,-5.10012 -3.01861,-10.11591 -0.72164,-10.11591 0.8757,0 2.70604,2.15397 4.06742,4.7866 4.94399,9.56062 8.72491,8.56762 49.04044,-12.87969 19.26108,-10.24661 24.85414,-14.04623 29.55165,-20.07568 12.08877,-15.51646 30.10072,-53.18216 42.79428,-89.48916 7.2007,-20.59626 17.5095,-64.95443 18.9885,-81.70689 0.8768,-9.93033 0.6787,-9.50477 -3.043,6.53655 -4.2191,18.18562 -15.3458,54.65415 -16.3645,53.63549 -0.3325,-0.33255 2.5854,-12.82429 6.4844,-27.75944 3.8989,-14.93516 9.1867,-38.08136 11.7506,-51.43604 4.4365,-23.10862 4.6538,-26.37249 4.5005,-67.58587 -0.1692,-45.44335 0.1018,-47.54465 2.5292,-19.60965 1.1398,13.11774 1.3594,5.22876 0.9324,-33.49983 -0.9036,-81.96476 -5.4063,-115.39448 -24.8716,-184.65758 -4.052,-14.41826 -20.10942,-58.574299 -20.96793,-57.65941 -0.23979,0.255514 0.19978,4.444577 0.97681,9.30903 0.77703,4.864436 1.91104,16.07871 2.52002,24.9206 0.60898,8.84188 1.79556,16.07616 2.63686,16.07616 1.48878,0 1.17398,10.83721 -1.02055,35.13397 -1.31014,14.50503 -2.00971,16.62018 -5.8273,17.61849 -4.96116,1.29737 -4.95582,1.33133 -10.63854,-67.67676 -2.62179,-31.83796 -2.04259,-29.266089 -18.05073,-80.152096 -3.0201,-9.600151 -7.9233,-23.2043481 -10.89601,-30.2315494 L 943.62971,-11.599239 942.78164,0.65679555 941.93357,12.912829 940.63678,4.7421402 C 938.27094,-10.164319 939.03901,-10.048458 919.99331,1.6283069 900.25101,13.732137 877.30056,25.117796 864.37402,29.220904 c -4.94326,1.569083 -9.81353,3.8858 -10.82279,5.148286 -1.1122,1.391207 -3.04334,1.853226 -4.90242,1.172869 -2.97217,-1.087714 -2.97076,-1.012528 0.0456,2.422806 4.92503,5.60908 0.84161,4.160727 -10.5673,-3.748091 -5.78668,-4.011417 -17.52278,-11.700705 -26.0802,-17.08733 -8.55744,-5.386625 -17.65005,-11.9764652 -20.20581,-14.6440972 -2.55576,-2.66764835 -5.65926,-4.461752 -6.89665,-3.9869205 -1.2374,0.4748314 -2.64836,-0.1752776 -3.13548,-1.4446923 -0.74747,-1.9478755 -3.36335,-1.7880895 -16.76369,1.0239672 -13.09846,2.74868515 -15.01982,3.5145566 -10.97561,4.3749138 3.04339,0.6474454 -0.67467,1.1830831 -9.80482,1.4125161 -8.08898,0.2032704 -17.28101,0.4398772 -20.42672,0.5258165 -3.14572,0.085956 -6.87479,-0.3796102 -8.28683,-1.0345236 -1.93361,-0.8968149 -7.04028,4.1906975 -20.68804,20.610481 -9.96639,11.990667 -19.33976,22.812941 -20.8297,24.049493 -2.4856,2.062854 -2.39667,2.434767 1.07838,4.510008 3.40504,2.033423 3.44772,2.192621 0.42276,1.57691 -2.73795,-0.557306 -4.5189,1.425753 -9.56174,10.646866 -5.99017,10.953365 -6.27817,11.21602 -8.62475,7.865792 -2.1575,-3.080268 -2.1391,-3.906341 0.16544,-7.423529 1.42621,-2.176655 2.5931,-6.073126 2.5931,-8.658806 0,-4.115674 -0.86506,-4.959935 -6.94508,-6.778094 -3.8198,-1.142262 -10.41361,-3.832429 -14.65292,-5.97815 -9.49482,-4.80577 -10.05709,-4.822373 -7.60366,-0.224481 1.84188,3.451789 1.62037,3.408844 -3.61931,-0.701536 -3.06969,-2.408098 -5.42094,-5.095176 -5.22497,-5.971286 0.19596,-0.876111 -0.90708,-2.582674 -2.45121,-3.792344 -2.53306,-1.984415 -2.58826,-1.919867 -0.56474,0.660339 1.23353,1.572857 1.53133,2.859741 0.66181,2.859741 -2.52329,0 -7.11991,-5.849266 -5.76787,-7.339698 0.67604,-0.745232 0.41685,-0.892059 -0.57597,-0.326288 -0.99282,0.565788 -3.56659,-0.948617 -5.71948,-3.36536 -2.1529,-2.416726 -2.62747,-3.407079 -1.05461,-2.200742 4.51646,3.463947 3.37131,-0.386539 -2.87582,-9.669733 -3.15456,-4.6876549 -6.21513,-10.4338065 -6.80128,-12.76921835 -0.97527,-3.88575095 -1.17224,-3.97383095 -2.32028,-1.0374977 -0.82075,2.09921345 -1.29426,-0.0737 -1.36939,-6.28402845 -0.0632,-5.2210055 -0.75716,-9.0957745 -1.54219,-8.6105995 -1.41804,0.876405 -4.63021,35.497413 -4.67695,50.408365 -0.0131,4.286115 -0.46566,10.904373 -1.00498,14.707241 l -0.98055,6.914282 2.58554,-6.128017 c 4.09758,-9.71173 5.2171,-7.160089 2.50938,5.719483 -3.05458,14.529397 -3.45581,64.243483 -0.68253,84.566633 3.38443,24.80182 4.01753,34.71999 2.14225,33.561 -0.9532,-0.58911 -1.73311,-0.59264 -1.73311,-0.008 0,2.16519 9.62178,39.33135 11.36159,43.88651 0.99162,2.59628 1.51257,5.0109 1.15765,5.3658 -1.19094,1.19095 -12.69173,-27.34674 -15.80035,-39.20646 -1.69152,-6.45332 -3.13383,-10.26258 -3.20513,-8.46503 -0.0712,1.79755 -0.5435,6.94997 -1.04933,11.44983 -1.72153,15.31498 5.35318,52.69489 11.76022,62.13618 2.11615,3.11833 3.17775,5.66968 2.35909,5.66968 -0.81865,0 -1.94292,-0.73537 -2.4984,-1.63414 -0.55547,-0.89878 -2.70646,-1.63414 -4.77997,-1.63414 -3.20745,0 -4.44233,-1.84339 -8.27561,-12.35359 -2.92717,-8.02578 -5.22403,-12.07791 -6.55631,-11.56667 -1.1279,0.43281 -2.87567,-0.0381 -3.88397,-1.04633 -3.29686,-3.29685 -1.94191,0.81318 4.68963,14.22535 6.82421,13.80187 20.0062,29.01257 43.12954,49.76728 10.89708,9.78084 11.32314,9.99364 13.57429,6.77966 3.65261,-5.21483 8.70512,-3.98298 16.94278,4.13081 6.54535,6.44693 8.18108,7.29369 12.16035,6.29496 l 4.59773,-1.15396 -4.7506,-3.43522 c -20.15923,-14.57736 -60.08017,-64.7436 -57.29565,-71.99995 1.51123,-3.93821 5.29357,-2.98137 9.91219,2.50753 4.36326,5.18545 5.67013,9.12787 2.34445,7.07247 -3.73814,-2.3103 9.1379,14.77086 18.88532,25.05298 8.94187,9.43238 10.43496,10.39217 14.55381,9.35544 l 4.58972,-1.15524 -3.36412,-3.58093 c -3.37918,-3.59671 -4.4627,-7.4553 -2.09353,-7.4553 2.28281,0 8.47098,4.98971 21.36636,17.22828 14.44296,13.70734 22.81459,20.60447 20.70536,17.05853 -4.37994,-7.36336 -10.09628,-13.32858 -18.45037,-19.25364 -5.15216,-3.65413 -11.26189,-8.7153 -13.57715,-11.24705 -3.71047,-4.05738 -17.85127,-26.85849 -17.85127,-28.78398 0,-0.40296 -5.47971,-10.51355 -12.17712,-22.46801 -11.2213,-20.02925 -13.88575,-27.47964 -8.11449,-22.68992 1.26243,1.04773 4.58148,5.90072 7.37566,10.78444 4.50439,7.87285 5.31113,8.56388 7.1161,6.09542 1.11966,-1.53124 2.88268,-2.26063 3.91781,-1.6209 3.17065,1.95957 2.18886,-4.05203 -3.73395,-22.86337 -3.08882,-9.81027 -7.41901,-24.8228 -9.62267,-33.36117 -2.20367,-8.53837 -6.56984,-24.36111 -9.7026,-35.16165 -5.55654,-19.156835 -9.39856,-40.134361 -6.42969,-35.106282 0.79603,1.348164 3.21534,9.069465 5.37624,17.158447 3.84877,14.407245 3.94922,14.573915 4.92508,8.170695 0.7085,-4.64887 1.06316,-5.26662 1.22807,-2.13912 0.21162,4.01295 3.50018,8.53445 3.50018,4.81247 0,-2.85868 9.96316,-11.661114 13.1988,-11.661114 1.72843,0 3.14258,0.429779 3.14258,0.955072 0,0.525292 -3.23037,5.121312 -7.17859,10.213362 -3.94822,5.09206 -7.64334,10.81442 -8.21138,12.71636 -0.56804,1.90194 0.83094,12.19701 3.10885,22.87793 6.97795,32.719 12.28112,51.14144 12.28112,42.66281 0,-3.65483 6.32509,-7.71864 12.01364,-7.71864 l 4.74988,0 -1.10928,-9.80483 c -0.61011,-5.39265 -0.72205,-9.80482 -0.24875,-9.80482 2.25807,0 5.87786,8.45186 8.04855,18.79258 2.66224,12.68235 25.19509,71.085 27.42593,71.085 2.83152,0 1.28528,-6.53554 -4.30705,-18.20479 -5.98006,-12.47831 -6.96297,-17.05938 -3.88068,-18.08681 1.28679,-0.42893 0.55093,-7.2603 -2.45121,-22.75575 -4.00738,-20.684 -5.83243,-41.17813 -2.74551,-30.83023 0.67153,2.25109 1.52417,-10.95554 1.89903,-29.41448 0.59496,-29.29642 1.08799,-34.320006 3.92935,-40.036384 2.48858,-5.006639 4.20163,-6.536551 7.31902,-6.536551 4.92253,0 8.52133,6.629615 11.5319,21.243795 3.11369,15.11466 4.82483,14.46645 4.82483,-1.82779 0,-8.524281 1.06297,-18.316901 2.52136,-23.227779 2.44432,-8.230956 10.77638,-19.883225 14.21768,-19.883225 0.93128,0 2.58717,-1.222532 3.67975,-2.716722 2.52602,-3.454535 7.36155,-1.765065 7.36155,2.572035 0,1.77438 1.56585,5.880069 3.47967,9.123751 l 3.47968,5.89762 3.05762,-5.027866 c 3.63447,-5.976386 9.71807,-8.707406 14.95839,-6.715048 2.68015,1.018983 4.30028,3.655141 5.74993,9.355847 1.91932,7.547723 8.44266,49.324937 8.51152,54.510037 0.0559,4.20616 3.19635,-1.80244 3.22575,-6.17168 0.0131,-2.04627 1.86236,-9.39989 4.10801,-16.34138 2.24567,-6.941509 4.81924,-15.562354 5.71906,-19.157458 2.39978,-9.587846 3.69072,-10.988972 8.91638,-9.677413 5.32838,1.337329 10.59529,11.35216 10.67563,20.299309 l 0.0513,5.719482 4.16251,-6.945085 c 2.91866,-4.869747 5.25795,-6.945086 7.8284,-6.945086 8.4239,0 9.61739,6.586899 3.59133,19.820721 -2.19808,4.82718 -6.30902,16.86568 -9.13545,26.75221 -2.82643,9.88654 -5.80785,18.67411 -6.6254,19.52795 -0.81755,0.85384 -1.43832,11.88427 -1.37951,24.51207 l 0.10687,22.95963 5.24756,-13.0731 c 2.88615,-7.19021 7.57694,-17.07401 10.42399,-21.96402 2.84702,-4.89001 5.63271,-11.87595 6.19039,-15.52431 2.51729,-16.46745 4.60716,-25.42598 5.93151,-25.42598 0.7897,0 1.0833,3.86065 0.65248,8.57923 -0.43084,4.71857 -1.11968,12.99139 -1.53078,18.38405 l -0.74745,9.80482 2.33075,-8.45406 c 1.2819,-4.64974 3.78574,-17.09714 5.56408,-27.66087 1.77833,-10.56374 3.9216,-19.89508 4.76284,-20.73631 4.55494,-4.55495 7.85156,5.88881 9.42495,29.85847 l 1.12824,17.18795 5.84393,-17.97552 c 4.4145,-13.57877 6.70887,-18.35527 9.38021,-19.52813 1.97201,-0.86579 6.56479,-7.23645 10.38264,-14.40179 3.76548,-7.067038 7.20609,-12.489402 7.64582,-12.049688 0.43971,0.43973 -1.84254,6.950789 -5.07169,14.469028 -3.22916,7.51823 -5.87914,15.47768 -5.88886,17.68764 -0.01,2.20996 -1.14156,7.69492 -2.51517,12.1888 -1.37359,4.49388 -3.97288,14.94241 -5.77619,23.21898 -1.80329,8.27655 -4.92531,20.04234 -6.9378,26.1462 -3.19209,9.6815 -3.43652,12.22105 -1.91527,19.8979 l 1.74382,8.79998 14.55943,-36.47263 c 9.56075,-23.95053 14.43697,-38.29087 14.20277,-41.76855 -0.6708,-9.96046 11.81501,-13.94748 20.44136,-6.52741 4.49914,3.87001 4.56505,4.2037 5.5674,28.18887 0.55791,13.3499 0.42588,31.99382 -0.29336,41.43097 -2.35194,30.85903 -2.55714,30.21856 5.47329,17.08331 3.82109,-6.2501 8.5787,-16.51136 10.57248,-22.80279 4.48543,-14.15387 10.80754,-52.34127 9.51678,-57.48405 -0.52402,-2.08786 -0.2831,-3.79612 0.53536,-3.79612 2.99168,0 3.29012,7.79088 0.97096,25.34757 -2.14912,16.26931 -2.1276,18.13875 0.22896,19.88996 2.97351,2.20969 1.9514,12.72913 -1.98417,20.42103 -1.26775,2.47773 -1.82829,6.43805 -1.2913,9.12305 0.7395,3.69742 -0.52685,7.15583 -5.73723,15.66859 -3.6774,6.00815 -6.68617,11.39262 -6.68617,11.96547 0,2.20734 7.24197,-5.62887 14.21804,-15.38466 4.01161,-5.61011 9.17109,-11.67685 11.46552,-13.48164 4.58686,-3.60803 10.26747,-4.36873 10.26747,-1.37494 0,1.04856 0.43751,1.46897 0.97225,0.93423 1.54677,-1.54676 10.46367,-35.92193 10.46526,-40.3442 10e-4,-3.00014 0.46903,-3.53606 1.86699,-2.1381 4.00156,4.00156 -6.07127,40.97009 -18.16988,66.68573 -4.51424,9.59505 -8.20772,17.77999 -8.20772,18.18874 0,2.75735 25.04852,-7.92869 29.1511,-12.43625 3.76955,-4.14165 3.79501,-4.14553 1.85694,-0.2828 -1.63862,3.26586 -1.527,4.16158 0.67191,5.39215 6.67901,3.73776 1.57058,11.97829 -13.2959,21.44789 -11.16662,7.11287 -8.46946,10.52637 8.4963,10.75284 7.31238,0.0976 13.07438,4.51393 11.44144,8.76933 -0.93411,2.43426 -6.30918,4.85821 -19.44972,8.7711 -6.06208,1.80513 -16.09572,19.00352 -11.62206,19.92107 1.42716,0.29272 2.18501,1.19532 1.68411,2.00578 -0.50089,0.81046 2.05835,3.51241 5.68718,6.00434 3.62885,2.49193 7.04964,6.18062 7.60178,8.19708 0.55214,2.01648 5.52136,7.46971 11.04273,12.11831 5.52136,4.6486 11.28886,9.83679 12.81664,11.52933 3.27773,3.63116 2.19727,7.82002 -2.01713,7.82002 -2.49895,0 -19.75247,-5.76973 -31.80929,-10.63729 -1.79755,-0.7257 2.43078,4.59548 9.39629,11.82487 13.06889,13.56398 13.59521,14.42236 11.18081,18.23472 -1.84071,2.9065 -8.08117,1.41138 -16.62754,-3.9837 -3.75877,-2.37282 -6.40077,-3.24009 -6.40077,-2.10114 0,1.06672 -1.70195,0.34059 -3.78213,-1.61365 -4.87385,-4.57872 -6.02269,-4.47721 -6.02269,0.53223 0,6.06909 -2.43173,4.95289 -5.34014,-2.45121 -3.04846,-7.76062 -5.45691,-8.38282 -6.44294,-1.66445 -0.54084,3.68491 0.31303,5.85709 3.50422,8.91443 2.32061,2.2233 5.54195,6.28143 7.15854,9.01809 2.59957,4.40073 2.63936,4.97572 0.34435,4.97572 -1.42719,0 -2.99438,-1.04107 -3.48266,-2.3135 -0.48827,-1.27243 -3.82357,-4.34801 -7.41178,-6.83465 l -6.52402,-4.52115 -3.82033,4.79118 c -2.10119,2.63513 -3.46795,5.36136 -3.03725,6.05825 0.43071,0.69691 5.90279,3.84534 12.16018,6.9965 12.68772,6.38945 12.88542,6.6999 18.028,28.31217 2.43384,10.22841 2.78804,14.1591 1.39894,15.52431 -1.3781,1.35443 -2.9406,0.55785 -6.03036,-3.07432 -2.29366,-2.69632 -7.02236,-8.07491 -10.50823,-11.95242 -3.48584,-3.8775 -6.3379,-7.73815 -6.3379,-8.57923 0,-2.87242 4.15239,-1.53364 9.87583,3.1841 l 5.71806,4.71333 -1.57997,-8.62475 c -1.06093,-5.79145 -2.25154,-8.36703 -3.6243,-7.84025 -1.73622,0.66625 -14.68061,-2.62809 -21.42005,-5.45139 -4.46662,-1.87115 -1.68874,6.94332 6.28687,19.94887 4.58126,7.4705 7.84698,14.3635 7.25717,15.31782 -1.95,3.15518 -8.66918,1.80992 -19.71378,-3.94691 -8.27952,-4.31558 -10.60614,-5.00331 -9.67455,-2.85975 3.05464,7.02877 2.69151,13.01052 -0.99856,16.44834 -2.01866,1.88066 -4.26557,3.0515 -4.99312,2.60185 -0.72754,-0.44964 -1.81396,2.88491 -2.41424,7.41013 -0.6003,4.52523 -1.4009,8.22768 -1.77914,8.22768 -1.98585,0 -12.20062,-6.06875 -19.96097,-11.85912 -8.73347,-6.51647 -8.80618,-6.53704 -7.98877,-2.26101 0.45371,2.37342 0.19154,4.3153 -0.5826,4.3153 -4.51602,0 5.08227,15.9066 25.28351,41.90068 4.51601,5.81101 2.26116,4.69344 -8.22215,-4.07516 -5.75229,-4.81141 -11.73056,-11.87407 -15.20061,-17.95782 -3.14572,-5.5151 -6.67093,-10.03544 -7.8338,-10.04518 -1.16287,-0.01 -1.99494,-0.9369 -1.84904,-2.06037 0.14593,-1.12347 0.17812,-3.8112 0.0716,-5.97275 -0.18237,-3.70188 -0.36712,-3.77305 -3.18202,-1.22561 -1.64364,1.48748 -4.89261,2.70448 -7.21997,2.70448 -5.6315,0 -9.59956,1.6254 -8.46191,3.46617 0.50634,0.81926 1.50434,1.12878 2.21781,0.68784 0.71346,-0.44095 5.90435,8.92292 11.53529,20.80861 10.68857,22.56118 19.35941,44.02683 16.65041,41.21997 -1.43791,-1.48986 -16.12921,-32.59576 -23.34702,-49.43267 -1.63752,-3.8198 -3.82924,-6.94509 -4.87052,-6.94509 -1.04127,0 -6.58261,-3.34629 -12.31411,-7.43619 -5.73142,-4.08991 -10.42083,-6.70706 -10.42083,-5.81592 0,0.89115 0.73536,2.07474 1.63414,2.63021 0.89878,0.55548 1.63791,3.35649 1.6425,6.22447 0.005,2.86798 1.82007,8.15595 4.03435,11.75105 5.18165,8.41289 5.16549,11.94246 -0.0637,13.93062 -7.741,2.94311 -11.371,1.88197 -16.8393,-4.92261 -2.88016,-3.58398 -5.84746,-6.34159 -6.59398,-6.12802 -0.74652,0.21356 -2.90081,-1.45012 -4.7873,-3.69706 l -3.42999,-4.08534 -0.0544,6.93559 c -0.0471,6.00232 -1.05423,7.94982 -7.48479,14.47274 -7.14002,7.24255 -7.70803,7.49551 -14.53272,6.47209 -5.08965,-0.76324 -8.84171,-2.75438 -13.24045,-7.02637 l -6.13818,-5.96132 1.14705,17.88276 c 1.76145,27.46153 3.86176,38.01632 10.31845,51.85409 5.48271,11.75033 5.73471,12.93145 3.28225,15.38392 -2.0784,2.07839 -3.16167,2.23712 -4.97825,0.72948 -2.22962,-1.85042 -12.8381,-22.26137 -14.89914,-28.66628 -1.56966,-4.87785 -2.25,-2.73471 -4.10893,12.94352 -1.89847,16.01185 -6.49256,39.02382 -7.57465,37.94174 -0.37327,-0.37329 0.8634,-12.01446 2.74815,-25.86929 2.77226,-20.37913 3.08484,-26.697 1.63647,-33.07743 -0.98463,-4.33775 -1.79028,-10.37998 -1.79028,-13.42717 0,-4.18192 -1.4419,-6.98225 -5.88087,-11.4212 l -5.88087,-5.88087 0.56992,15.67363 c 0.48064,13.21819 0.18786,15.59986 -1.86885,15.2027 -4.53135,-0.875 -6.43111,-8.72305 -7.56086,-31.23414 -0.61896,-12.3334 -1.68654,-22.77118 -2.37242,-23.19507 -0.68587,-0.4239 -2.45031,3.09564 -3.92097,7.82118 -1.47066,4.72555 -3.44082,9.98211 -4.37813,11.68126 -2.51239,4.55444 -0.0438,64.19566 2.89558,69.95716 2.77033,5.43014 2.79664,6.21214 0.20859,6.19801 -3.17462,-0.0173 -9.69323,-10.71178 -11.20954,-18.39036 -0.75241,-3.81019 -1.90023,-16.11964 -2.5507,-27.35434 l -1.18269,-20.42672 -2.57257,11.43896 c -2.12337,9.44154 -3.13717,11.43897 -5.8059,11.43897 -4.70605,0 -5.00299,-10.30792 -0.87938,-30.52645 1.85104,-9.07586 3.35314,-18.78911 3.33799,-21.58497 l -0.0274,-5.08341 -3.0092,4.90241 c -1.65506,2.69633 -6.46128,11.153 -10.6805,18.79259 -4.21921,7.63959 -9.22291,16.36904 -11.11931,19.39877 -2.93265,4.68528 -3.41131,7.80471 -3.20255,20.87114 0.15835,9.90972 -0.60889,17.81488 -2.16155,22.27173 -1.32387,3.80008 -2.49103,12.42443 -2.59371,19.16525 -0.10262,6.74082 -0.83534,14.09444 -1.62817,16.34138 -0.94058,2.66569 -1.2215,-1.73524 -0.80841,-12.66457 0.47822,-12.65247 0.13318,-16.74991 -1.41062,-16.74991 -1.12402,0 -3.33784,-1.43002 -4.91957,-3.17781 -2.37779,-2.62743 -2.77544,-5.54956 -2.29595,-16.87162 0.48562,-11.46668 1.27814,-14.74847 4.87298,-20.17868 2.36119,-3.56669 4.84075,-9.76249 5.51012,-13.76846 0.66939,-4.00598 3.30895,-11.44228 5.86571,-16.52512 4.02326,-7.99827 4.32623,-9.5091 2.25203,-11.23052 -3.28914,-2.72976 -3.00962,-5.89572 1.13321,-12.83491 4.10164,-6.87021 2.70032,-5.6556 -5.88371,5.09977 -3.63901,4.55952 -5.79081,8.75934 -5.23285,10.21336 0.64769,1.68787 -0.0706,2.46951 -2.26935,2.46951 -5.52513,0 -3.77167,-6.8683 4.90923,-19.22945 4.46942,-6.36422 8.88159,-12.03816 9.80483,-12.60875 3.94525,-2.4383 1.25288,-3.97661 -3.05814,-1.7473 -3.54216,1.83173 -7.60567,7.92109 -16.11262,24.14549 -6.25674,11.93282 -12.30146,24.54533 -13.43274,28.02777 -1.14006,3.50951 -3.35433,6.67103 -4.9678,7.09296 -1.97217,0.51574 -3.24369,2.98021 -3.94276,7.64188 -0.56751,3.78437 -2.53854,11.62297 -4.38008,17.41913 -1.84161,5.79614 -4.67888,18.9951 -6.30509,29.33103 l -2.95675,18.79258 -0.18016,-11.12688 c -0.11275,-6.96049 -0.79203,-10.7487 -1.81428,-10.11691 -2.96784,1.83422 -1.71139,-6.51199 3.14169,-20.86933 9.51568,-28.1511 11.50177,-43.72907 6.03435,-47.33091 -1.18454,-0.78035 -0.93584,-1.20933 0.71049,-1.2256 1.3931,-0.0131 3.23964,0.68171 4.10343,1.5455 1.00462,1.00462 2.84893,-1.93957 5.11832,-8.17069 1.95127,-5.35767 2.86234,-9.74121 2.02457,-9.74121 -2.81603,0 -1.55711,-4.36056 3.34947,-11.60159 2.67997,-3.95504 4.88606,-8.52128 4.90241,-10.14718 0.0163,-1.6259 0.7143,-2.53311 1.55096,-2.01602 0.83668,0.51711 2.05335,0.0793 2.7037,-0.97311 0.7385,-1.19492 0.47413,-1.4755 -0.70415,-0.74728 -1.11793,0.69091 -1.88663,0.12795 -1.88663,-1.38165 0,-3.44835 -1.94858,-3.20299 -6.22841,0.78429 -2.24675,2.09317 -3.55272,2.54882 -3.51268,1.22561 0.0351,-1.15849 3.52802,-4.6653 7.76215,-7.79293 5.91679,-4.37057 7.01531,-5.82059 4.74667,-6.26556 -1.76922,-0.34703 -6.02463,2.27836 -10.6219,6.55317 -4.21858,3.92268 -10.31332,9.1321 -13.54386,11.57651 -10.59729,8.01845 -18.10225,3.94739 -8.42498,-4.57013 4.39338,-3.86688 4.41165,-3.95648 0.81707,-4.00697 -5.78699,-0.0812 -4.30591,-2.58918 2.94166,-4.98108 8.27718,-2.73172 8.65202,-3.38386 3.9642,-6.89693 -4.03035,-3.02038 -3.4927,-3.52513 -26.40551,24.79053 -0.31516,0.38948 -1.38829,-0.1072 -2.38474,-1.1036 -2.59207,-2.59207 3.61813,-14.72295 12.71928,-24.84562 l 7.32386,-8.14591 -4.59459,-1.03735 c -11.84353,-2.67401 -16.95564,-4.50349 -29.10666,-10.41655 -7.19021,-3.49897 -13.20501,-6.22992 -13.36623,-6.0688 -0.16129,0.16113 0.4219,3.64558 1.29585,7.74322 1.12466,5.27326 1.0291,8.84843 -0.32709,12.23526 l -1.91606,4.78502 -2.0522,-7.69156 c -1.12871,-4.23036 -3.2325,-8.87185 -4.67508,-10.31443 -2.40776,-2.40776 -2.92709,-2.29466 -6.33163,1.37886 -5.4052,5.83234 -11.1329,23.03135 -12.2038,36.64532 -0.5125,6.51612 -0.4819,11.8475 0.068,11.8475 1.8757,0 14.397,-17.7356 15.78386,-22.35658 l 1.38251,-4.6067 0.14054,5.09889 c 0.10066,3.65284 -2.10982,8.18553 -7.79411,15.98254 -5.8567,8.03342 -7.7326,11.94048 -7.1631,14.91928 2.5676,13.43253 19.99994,-11.87917 19.99994,-29.04013 0,-2.71872 0.68933,-4.27623 1.63414,-3.6923 0.89878,0.55547 1.63414,5.51423 1.63414,11.01946 0,16.06217 -9.04954,30.65105 -19.01292,30.65105 -3.0865,0 -3.8986,0.90518 -4.0318,4.49388 -0.1653,4.45152 -0.1829,4.44381 -1.8706,-0.81707 -0.937,-2.92102 -2.2026,-5.31094 -2.8125,-5.31094 -1.4991,0 -8.6617,47.51541 -8.864,58.80248 -0.1988,11.09291 1.5879,18.00199 4.6553,18.00199 1.2749,0 4.2238,3.49297 6.5531,7.76216 2.4413,4.47435 6.8105,9.34289 10.3154,11.49412 4.17912,2.56507 4.85747,3.40158 2.1695,2.67536 -3.7677,-1.01794 -3.708,-0.77027 1.6341,6.77239 6.22167,8.78445 33.40282,36.66149 35.74637,36.66149 0.83364,0 3.3541,-1.83841 5.60104,-4.08535 4.89208,-4.89208 8.08006,-5.02597 15.67287,-0.65823 4.53819,2.6106 4.87569,3.09459 1.63414,2.34337 -13.20714,-3.06067 -12.87307,-3.09502 -14.98541,1.54108 -2.32162,5.09537 -2.20576,5.21898 17.43661,18.60258 30.41341,20.7226 45.83325,26.58133 84.1581,31.97568 59.44272,8.36679 68.24342,8.73337 81.39268,3.39035 z M 558.91927,427.84767 c 0.0784,-1.90368 0.46563,-2.29089 0.98728,-0.98729 0.47206,1.17963 0.41401,2.58909 -0.12893,3.1321 -0.54301,0.54301 -0.92924,-0.42216 -0.85828,-2.14481 z M 631.11056,139.2639 c -2.83975,-3.44754 -4.54687,-12.77849 -2.33784,-12.77849 0.96646,0 2.48663,1.28689 3.37815,2.85974 1.51986,2.68138 1.79049,2.6559 4.33895,-0.40853 2.57854,-3.10061 2.59113,-3.05255 0.24585,0.93692 -1.35965,2.31284 -2.7241,5.92716 -3.03212,8.0318 -0.48354,3.3041 -0.83763,3.4896 -2.59299,1.35856 z m -33.50953,-6.78413 c -0.67408,-1.64636 -1.15174,-6.79389 -1.06145,-11.43896 l 0.16415,-8.44557 1.53631,6.53655 c 1.8265,7.77111 1.32936,18.15549 -0.63901,13.34798 z m 397.2795,497.20006 3.86082,-7.23358 -4.29138,4.90242 c -6.14338,7.01813 -8.43104,11.195 -5.63163,10.28238 1.21075,-0.39471 3.93873,-3.97275 6.06219,-7.95122 z M 892.88805,449.28013 c -1.3023,-3.11686 -2.36782,-7.23172 -2.36782,-9.14416 0,-3.72532 -4.83471,-12.96919 -6.78311,-12.96919 -0.64683,0 -2.09766,2.54871 -3.22411,5.66382 -2.42796,6.71445 -6.34405,5.18068 -5.09981,-1.99739 0.75351,-4.34716 0.69844,-4.38411 -1.81077,-1.21523 -1.42336,1.79756 -2.61129,3.75447 -2.63989,4.34871 -0.0512,1.06292 22.40329,20.98043 23.65274,20.98043 0.35232,0 -0.42492,-2.55015 -1.72723,-5.66699 z m 4.36821,-3.60674 c -1.92639,-3.31274 -2.39158,-2.25241 -0.81467,1.85694 0.56041,1.46042 1.36318,2.31109 1.78393,1.89035 0.42074,-0.42074 -0.0147,-2.10702 -0.96926,-3.74729 z m 133.24794,-5.84204 c -0.4533,-1.12347 -0.8243,-0.20427 -0.8243,2.04267 0,2.24694 0.371,3.16614 0.8243,2.04267 0.4533,-1.12347 0.4533,-2.96187 0,-4.08534 z m -492.32094,-6.94509 c 0.8009,-3.58026 0.6493,-4.24134 -0.5621,-2.45121 -0.9124,1.34817 -1.6701,3.86065 -1.6838,5.58331 -0.033,4.18085 0.9019,2.87651 2.2459,-3.1321 z m 176.94473,-8.98776 c 0.95308,0 3.6123,1.47836 5.90937,3.28524 3.8563,3.03337 5.09472,3.14719 16.15322,1.4847 6.58721,-0.99031 14.3536,-2.13185 17.25867,-2.53677 4.73649,-0.66021 5.08039,-1.05901 3.33015,-3.8616 -2.89911,-4.6422 -0.53389,-5.6794 8.30081,-3.64009 8.68783,2.00538 14.76558,1.19342 17.62908,-2.35517 2.57999,-3.19726 10.95296,-5.36553 14.04257,-3.6365 8.18474,4.58041 54.47487,-22.59261 61.79829,-36.27655 0.91882,-1.71684 3.37492,-3.12153 5.45799,-3.12153 2.71283,0 7.56471,-4.23675 17.10095,-14.93283 7.32244,-8.21305 13.31355,-15.65199 13.31355,-16.53098 0,-0.87898 -2.49129,-5.0058 -5.5362,-9.1707 -3.0449,-4.16491 -5.80251,-8.98234 -6.12801,-10.70541 -0.32551,-1.72309 -1.41718,-3.40764 -2.42593,-3.74347 -1.15252,-0.38369 -2.53224,4.08332 -3.71273,12.02036 -1.03325,6.94703 -2.16543,12.91776 -2.51595,13.26828 -1.56565,1.56567 -2.88468,-22.59422 -1.88679,-34.55972 l 1.10319,-13.22815 -5.75097,5.57406 c -5.36832,5.20317 -9.8899,15.5857 -13.11827,30.12234 -0.57246,2.57769 -1.39825,4.3293 -1.83507,3.89246 -0.80333,-0.8033 0.94976,-9.1079 3.95549,-18.73761 1.5256,-4.88769 1.30297,-5.42444 -3.17691,-7.6593 -5.28303,-2.63552 -4.37374,-3.48465 -15.11525,14.11498 -3.45769,5.66531 -9.94729,7.48311 -13.91052,3.89644 -4.03257,-3.64944 -5.8338,-3.32593 -8.42344,1.51285 -3.4109,6.37333 -8.90765,4.84767 -9.09221,-2.5236 -0.21987,-8.7821 -0.30491,-8.84001 -6.28432,-4.2793 -3.08574,2.35362 -6.74561,4.2793 -8.13302,4.2793 -1.3874,0 -3.72713,1.83841 -5.19939,4.08535 -1.47224,2.24694 -3.37072,4.08534 -4.21884,4.08534 -0.8481,0 -4.39873,2.29574 -7.8903,5.10162 -5.21329,4.18953 -7.31433,4.92684 -11.75167,4.12402 -5.99595,-1.08482 -10.16648,1.47133 -14.94262,9.15841 -2.18525,3.51709 -4.11594,4.53521 -8.88249,4.68403 -7.48033,0.23353 24.54772,6.79286 47.01913,9.6295 15.47221,1.9531 15.57915,1.94199 31.86569,-3.30887 16.61671,-5.35731 34.0616,-13.25846 35.923,-16.27024 0.56491,-0.91406 2.64072,-2.48821 4.61291,-3.49809 6.98341,-3.57595 -12.88201,15.15057 -20.92626,19.72655 -10.32311,5.87232 -31.26379,12.42811 -44.50223,13.93207 -17.62955,2.00283 -33.01669,-1.91634 -31.02169,-7.90135 0.3869,-1.16073 -5.70167,-2.8797 -16.67696,-4.70835 -25.62836,-4.27008 -47.05944,-10.15071 -67.6009,-18.5495 -10.07559,-4.11963 -20.34149,-7.87998 -22.81312,-8.35635 -2.47163,-0.47636 -4.49388,-1.43518 -4.49388,-2.13068 0,-0.69553 -6.8021,-5.12911 -15.11577,-9.85243 -8.31368,-4.72332 -20.50451,-12.22089 -27.09074,-16.66128 -11.80081,-7.95603 -33.9035,-28.46239 -40.99411,-38.03337 l -3.63192,-4.90241 0.81411,7.35362 0.81411,7.35362 -2.27161,-7.35362 c -1.24938,-4.04449 -3.69732,-12.13347 -5.43985,-17.97552 -1.74253,-5.84204 -6.83417,-18.71088 -11.31477,-28.59741 -4.4805,-9.88653 -13.8525,-35.25652 -20.8265,-56.37776 -12.8814,-39.01196 -20.9029,-58.96544 -39.1022,-97.26604 l -10.1494,-21.359718 -16.3075,-13.814789 c -8.9691,-7.598136 -20.9267,-17.360901 -26.5725,-21.695043 -5.6458,-4.334125 -9.8807,-8.2645536 -9.411,-8.7342702 1.5112,-1.5112017 24.4104,14.2349092 36.8924,25.3681922 6.6598,5.940189 11.2268,9.152512 10.1489,7.138453 -1.0779,-2.014042 -5.5683,-6.514278 -9.9787,-10.000515 -4.4104,-3.486253 -7.6611,-6.696452 -7.2238,-7.13378 1.8234,-1.823452 -26.468,-22.81676335 -49.8552,-36.994429 -13.1931,-7.99788 -19.4058,-10.608317 -15.1728,-6.37536 1.0785,1.078531 1.9609,2.91035 1.9609,4.070719 0,1.26845 -3.4211,-0.1608 -8.5792,-3.584253 -4.7186,-3.131711 -9.9618,-6.511353 -11.6516,-7.510301 -2.9254,-1.729409 -2.945,-1.634383 -0.4085,1.986899 2.8163,4.020861 3.5831,9.612522 1.3181,9.612522 -0.7401,0 -4.9358,-5.331375 -9.3238,-11.8475 -4.388,-6.516125 -11.3199,-15.02428 -15.4043,-18.907024 -9.9119,-9.4227 -22.9503,-20.417049 -22.9503,-19.352343 0,0.470648 8.668,12.121087 19.2621,25.889842 10.5942,13.768756 21.6638,28.62199 24.5992,33.0071995 8.8629,13.2405367 23.6627,28.9340775 25.167,26.6868105 0.9189,-1.372627 3.1844,0.247311 7.4096,5.298169 3.3473,4.001432 12.003,13.233151 19.2349,20.514918 13.8076,13.902902 28.9411,32.641299 37.9693,47.014097 9.0575,14.419304 18.8037,50.828734 20.8962,78.062804 0.9122,11.87093 2.0874,15.8998 8.3521,28.63106 8.1957,16.65568 10.8734,28.48851 6.4466,28.48851 -2.32,0 -2.5539,1.58309 -1.7506,11.8475 3.224,41.19916 7.8368,53.73785 30.3463,82.48888 4.3827,5.59806 7.9687,10.58494 7.9687,11.08198 0,0.49703 -4.1813,-2.18517 -9.2917,-5.96043 l -9.2916,-6.86415 3.8607,6.40406 c 14.3451,23.79525 37.1123,51.21326 40.69004,49.00209 2.5854,-1.59786 2.25014,-4.71327 -0.39787,-3.69713 -1.57067,0.60272 -2.07563,-0.38248 -1.74406,-3.40286 0.25665,-2.33816 -0.55751,-6.13421 -1.80921,-8.43566 -1.613,-2.96573 -2.2949,-3.37965 -2.3413,-1.42116 -0.036,1.51981 0.67,3.21778 1.5687,3.77325 0.8988,0.55548 1.6342,1.79197 1.6342,2.74774 0,1.09584 -0.9055,0.9863 -2.4512,-0.29653 -2.7799,-2.30706 -3.2609,-7.47739 -0.8352,-8.97655 1.5524,-0.95945 4.05046,1.40471 14.66512,13.87896 2.67676,3.14572 4.88839,4.90766 4.91475,3.91543 0.0263,-0.99222 -1.79051,-3.78772 -4.03745,-6.21221 -4.73099,-5.10482 -5.07047,-6.14936 -1.56088,-4.8026 1.38844,0.5328 5.03597,6.20878 8.10562,12.61327 4.32809,9.03019 4.75647,10.63563 1.90802,7.15068 -6.40038,-7.83054 -6.3265,-4.84726 0.0948,3.82769 4.20226,5.67711 9.04681,9.78908 15.24492,12.93958 12.89424,6.55418 42.9444,16.32402 50.20953,16.32402 3.37505,0 11.2692,1.3833 17.54257,3.07401 6.27336,1.6907 15.31123,3.49972 20.08416,4.02005 4.77292,0.52034 11.75886,2.39942 15.52431,4.17577 10.41246,4.91204 11.42801,4.96195 15.92344,0.78233 2.29612,-2.1348 4.95456,-3.88147 5.90764,-3.88147 z m 210.46584,-2.31399 c -2.80412,-4.27962 -6.71049,-6.40975 -9.07486,-4.94849 -2.66307,1.64587 -1.58268,3.35348 3.82427,6.04443 7.34042,3.6532 8.23939,3.46556 5.25059,-1.09594 z M 620.56472,423.031 c -0.47712,-0.47712 -3.35729,-1.55645 -6.40038,-2.39853 -5.06454,-1.40146 -5.26437,-1.32802 -2.36081,0.86749 2.88699,2.18297 10.79507,3.56494 8.76119,1.53104 z m 253.6701,-5.87691 c 1.29288,-4.80139 1.31104,-7.24948 0.0629,-8.49752 -1.24804,-1.24804 -1.7531,-0.0497 -1.7531,4.15955 0,3.25197 -0.44635,7.07585 -0.9919,8.49752 -0.54554,1.42168 -0.5739,2.58486 -0.0629,2.58486 0.5109,0 1.74616,-3.03498 2.74499,-6.74441 z m -268.19074,1.22794 c -0.37449,-0.33774 -2.5193,-1.10378 -4.76624,-1.70232 l -4.08534,-1.08823 4.08287,2.38566 c 3.46701,2.02579 6.88809,2.31626 4.76871,0.40489 z m -27.65137,-9.1951 c -7.48107,-4.49625 -13.915,-7.86197 -14.2976,-7.47937 -0.82405,0.82405 24.16633,15.65439 26.37896,15.65439 0.83633,0 -4.60028,-3.67875 -12.08136,-8.17502 z m -21.25592,0.004 c 2.18478,0 2.75145,-0.88026 2.12029,-3.29373 -1.36094,-5.20429 -2.9385,-5.12309 -6.99222,0.35991 -3.0659,4.14674 -3.2434,4.90382 -0.9433,4.02118 1.5585,-0.59805 4.17532,-1.08736 5.81523,-1.08736 z m 8.19002,-27.46801 c 0,-0.72699 -0.99079,-2.6768 -2.20177,-4.3329 -1.58554,-2.16835 -2.53963,-2.46441 -3.40896,-1.05783 -0.66395,1.07432 -0.31848,3.02412 0.76772,4.3329 2.14591,2.58568 4.84301,3.17479 4.84301,1.05783 z m 217.74886,-12.90456 c -2.02225,-0.38951 -5.33137,-0.38951 -7.35362,0 -2.02225,0.3895 -0.36768,0.70819 3.67681,0.70819 4.04449,0 5.69906,-0.31869 3.67681,-0.70819 z m 181.75949,-11.98068 c -11.06122,-11.14537 -13.1165,-12.60948 -13.57462,-9.67006 -0.2969,1.90513 0.77117,4.91253 2.37352,6.6831 3.00407,3.31946 21.4546,16.1209 23.23481,16.1209 0.55059,0 -4.86458,-5.91026 -12.03371,-13.13394 z m -743.4944,9.86567 c -0.5554,-0.89878 -1.7453,-1.63414 -2.644,-1.63414 -0.8988,0 -1.1797,0.73536 -0.6242,1.63414 0.5554,0.89877 1.7453,1.63414 2.644,1.63414 0.8988,0 1.1797,-0.73537 0.6242,-1.63414 z m 714.82046,-6.94509 c -0.0963,-4.45062 -0.34235,-4.78152 -1.51927,-2.04267 -1.94,4.51463 -1.94,7.35362 0,7.35362 0.89877,0 1.58245,-2.38993 1.51927,-5.31095 z m -42.37272,2.24093 c 0,-3.17925 9.54082,-5.51242 14.90076,-3.64393 7.74019,2.69824 7.70741,2.49193 -1.01058,-6.35915 -4.42631,-4.49388 -8.55787,-8.17069 -9.18126,-8.17069 -0.62337,0 -2.2278,3.12529 -3.56538,6.94508 -1.33759,3.8198 -2.9561,8.23197 -3.59672,9.80483 -0.69354,1.70279 -0.43292,2.85974 0.64421,2.85974 0.99495,0 1.80897,-0.64615 1.80897,-1.43588 z m 32.15165,-9.0301 c -0.51418,-1.33993 -3.36263,-3.66387 -6.3299,-5.16432 l -5.39502,-2.72808 5.60779,5.88645 c 5.59262,5.87051 7.88907,6.62358 6.11713,2.00595 z m 47.92111,-14.86315 c -2.1109,-2.24694 -5.22887,-4.08535 -6.92885,-4.08535 -1.69996,0 -4.5762,-0.79494 -6.39165,-1.76654 -1.81544,-0.97159 -3.61522,-1.45211 -3.99952,-1.06781 -0.7909,0.79091 17.31864,10.89434 19.64753,10.96149 0.83077,0.024 -0.21662,-1.79486 -2.32751,-4.04179 z m -47.39,-3.11452 c 0,-3.60684 -0.33675,-3.77558 -4.07662,-2.04268 -3.71121,1.71959 -3.82968,2.07202 -1.3218,3.93159 4.04076,2.99619 5.39842,2.52115 5.39842,-1.88891 z M 673.8885,327.317 c -5.1093,-2.00082 -6.66349,-1.54135 -3.3276,0.98373 1.70528,1.29079 3.86255,1.87591 4.79396,1.30027 0.97725,-0.60398 0.35709,-1.56993 -1.46636,-2.284 z m -70.41665,-34.89641 c -8.84631,-8.49959 -17.50864,-15.48553 -19.24965,-15.52431 -2.7667,-0.0616 -2.56084,0.57193 1.63414,5.02924 4.49564,4.77675 31.40495,25.94886 32.98047,25.94886 0.39556,0 -6.51867,-6.9542 -15.36496,-15.45379 z m 353.86159,5.64897 c 2.93733,-6.07955 2.9599,-6.53655 0.32299,-6.53655 -1.55931,0 -4.54196,1.81685 -6.6281,4.03743 -3.14655,3.34934 -3.4395,4.46337 -1.7189,6.53655 3.15653,3.80339 4.58237,3.08595 8.02401,-4.03743 z m -580.37508,-9.15799 c -0.543,-0.54301 -1.9524,-0.60105 -3.1321,-0.12893 -1.3036,0.52165 -0.9164,0.90887 0.9873,0.98728 1.7227,0.0709 2.6878,-0.31528 2.1448,-0.85828 z M 683.00521,266.6124 c -6.16211,-12.80755 -12.48356,-27.33095 -14.04766,-32.27422 -1.56411,-4.94327 -5.75656,-15.23833 -9.31658,-22.87793 l -6.47275,-13.89017 -1.58042,5.71948 c -1.89134,6.84457 -4.33732,10.13169 -6.53049,8.77624 -0.89664,-0.55416 -1.33843,0.35608 -1.00016,2.06066 0.42886,2.16108 1.78791,2.92048 4.65097,2.59882 3.82056,-0.42922 3.86367,-0.34783 0.77679,1.46661 -1.79756,1.05658 -3.5117,2.1173 -3.80921,2.35716 -1.12757,0.90907 3.56587,7.87952 14.01992,20.82166 5.95057,7.36681 15.90952,21.29934 22.13103,30.96118 6.22151,9.66184 11.5527,17.56698 11.84711,17.56698 0.29439,0 -4.50645,-10.47891 -10.66855,-23.28647 z m -331.12695,19.11625 c 0.5581,-1.45426 0.2841,-2.1102 -0.6422,-1.53769 -0.8885,0.5491 -1.6154,1.69035 -1.6154,2.53608 0,2.35059 1.1713,1.83262 2.2576,-0.99839 z m 366.40862,-22.80592 c -2.22243,-8.98068 -4.07716,-14.85779 -4.12162,-13.06024 -0.0444,1.79755 0.9845,7.68045 2.28661,13.0731 1.30212,5.39266 2.39367,12.0722 2.42568,14.84342 0.032,2.77123 0.60973,5.59865 1.28381,6.28316 2.70212,2.74391 1.95736,-5.65518 -1.87448,-21.13944 z m 235.56652,7.77502 c 0.97097,-2.95777 -5.86141,-2.55306 -8.94429,0.52982 -2.34056,2.34057 -2.08356,2.52473 2.85062,2.04267 2.98271,-0.2914 5.72486,-1.44902 6.09367,-2.57249 z M 701.92462,234.18547 c -3.08325,-12.94807 -5.89725,-25.01268 -6.25333,-26.81023 -0.35608,-1.79755 -0.78118,3.34998 -0.94469,11.43896 -0.28045,13.87498 0.0438,15.42183 5.72862,27.33494 3.31422,6.94525 6.262,12.39159 6.55058,12.103 0.28859,-0.28859 -1.99794,-11.11859 -5.08118,-24.06667 z m -211.66486,3.22301 c 0.2226,-17.3949 -0.087,-19.4797 -4.0006,-26.89609 l -4.2419,-8.03957 0.9117,8.98776 c 0.5015,4.94327 1.9651,16.54748 3.2526,25.78714 1.2874,9.23966 2.3408,17.63504 2.3408,18.65641 0,1.02137 0.3366,1.52039 0.748,1.10896 0.4115,-0.41144 0.8567,-9.23352 0.9894,-19.60461 z m 458.46027,1.38634 4.29023,-8.54165 -4.05903,3.75245 c -2.23248,2.06384 -6.45962,7.09517 -9.39363,11.18071 l -5.33458,7.42826 5.1034,-2.63906 c 3.25969,-1.68566 6.65331,-5.72489 9.39361,-11.18071 z M 708.46677,207.77228 c -3.86382,-24.1597 -5.90442,-42.5243 -5.96606,-53.69193 -0.056,-10.15102 -1.28408,-22.22755 -3.05542,-30.04614 -2.73187,-12.05832 -3.07344,-12.69257 -4.40021,-8.17069 -2.9803,10.15723 -1.25435,41.63556 3.94234,71.90206 6.56202,38.21837 11.7878,60.28954 13.79864,58.2787 0.98138,-0.98138 -0.60863,-15.06998 -4.31929,-38.272 z m 174.83343,9.82165 c 7.50135,-14.66504 9.61219,-17.57231 12.75848,-17.57231 2.78006,0 4.48927,-1.60912 6.5092,-6.12802 2.07243,-4.63638 5.8279,-21.29711 5.9184,-26.25633 0.005,-0.28526 1.48019,-0.0518 3.27774,0.51866 2.78339,0.88341 3.26828,0.29365 3.26828,-3.97522 0,-2.78843 -1.41193,-6.42447 -3.18208,-8.19461 -1.75014,-1.75015 -3.99254,-6.34616 -4.98309,-10.21337 -2.78959,-10.89068 -3.0753,-11.3945 -6.1286,-10.80657 -2.20022,0.42365 -3.1633,2.97023 -4.15214,10.97915 -0.70808,5.73514 -3.72158,17.12324 -6.69666,25.30684 -10.7031,29.44129 -14.09432,41.34587 -13.14046,46.12829 0.61504,3.08367 -0.34458,7.51426 -2.78809,12.87273 -5.0662,11.10988 -5.29888,11.94804 -2.26975,8.17601 1.44118,-1.79462 6.66513,-11.17049 11.60877,-20.83525 z m -318.91591,7.16806 c -2.51184,-8.67217 -4.09956,-19.81997 -4.88763,-34.3169 -0.64197,-11.80965 -1.49719,-21.47209 -1.90048,-21.47209 -0.40329,0 -2.11355,1.65456 -3.80062,3.67681 -3.7177,4.45652 -4.0629,11.54418 -0.7248,14.88232 1.36433,1.36431 2.45122,5.3586 2.45122,9.00804 0,3.60626 0.66632,6.96865 1.48073,7.47198 0.8144,0.50333 1.09552,2.38811 0.62475,4.18842 -1.15606,4.42076 2.2938,17.5698 6.32176,24.09527 1.80305,2.92102 3.47564,5.31095 3.71686,5.31095 0.24123,0 -1.23559,-5.78016 -3.28179,-12.8448 z m 347.40602,-3.61698 c 0.87067,-7.57338 1.56626,-14.87282 1.54575,-16.22098 -0.0668,-4.39397 -3.678,3.47151 -4.07799,8.88229 -0.2036,2.75434 -0.9194,9.42005 -1.59064,14.81271 -0.9165,7.36293 -0.75221,9.36786 0.6597,8.05028 1.03409,-0.965 2.59251,-7.95094 3.46318,-15.5243 z m -114.36647,3.79721 c 3.82746,-10.7642 4.66608,-23.94703 2.0531,-32.27422 -0.96584,-3.07803 -8.28209,30.89783 -8.53331,39.62784 -0.19673,6.83625 2.53818,3.73271 6.48021,-7.35362 z m 46.27007,-33.49873 c 5.50071,-16.09634 5.97287,-18.94822 5.97287,-36.07592 0,-21.36561 -1.53497,-38.94114 -3.30542,-37.84696 -0.66826,0.41302 -1.72653,4.84499 -2.35172,9.84884 -0.6252,5.00386 -2.54954,14.19629 -4.27634,20.42764 -3.93232,14.19028 -4.08605,17.45914 -0.68841,14.63936 3.1246,-2.5932 3.10519,-1.10236 -0.0655,5.02909 -1.5933,3.0811 -2.15164,6.81282 -1.52171,10.17061 0.60937,3.24822 -0.6319,12.36823 -3.20276,23.53142 -2.30878,10.02519 -4.15542,19.56761 -4.10363,21.20539 0.13302,4.20794 6.51908,-10.37692 13.54264,-30.92947 z M 740.36228,174.90062 c -5.48137,-17.05215 -6.68298,-26.25089 -7.6678,-58.69956 -0.8763,-28.873466 -2.45671,-40.373924 -5.54824,-40.373924 -0.6588,0 -2.85497,5.582134 -4.88038,12.404724 -3.36151,11.323269 -3.63075,15.02108 -3.08838,42.41529 0.39733,20.06843 1.23,30.6464 2.51345,31.92985 1.46962,1.46961 2.16261,0.4337 2.95783,-4.42159 2.06115,-12.58446 3.86509,-13.42915 3.98123,-1.86417 0.0758,7.54532 1.35968,14.23468 4.0774,21.24379 2.18176,5.62681 5.30704,16.11345 6.94509,23.30366 l 2.97828,13.0731 0.47508,-14.4991 c 0.35911,-10.9602 -0.31052,-16.94304 -2.74356,-24.51207 z m -19.79238,26.65869 c 0,-3.64815 -0.59291,-6.26655 -1.31759,-5.81868 -1.26597,0.78241 -0.62936,12.45168 0.67931,12.45168 0.35105,0 0.63828,-2.98486 0.63828,-6.633 z m 77.42947,-48.11062 c -0.65928,-5.39266 -1.26878,-17.52613 -1.35446,-26.96328 -0.21747,-23.95893 -0.68745,-29.74162 -2.33438,-28.723748 -3.10007,1.915945 -8.69422,50.944918 -6.33456,55.518118 1.20386,2.33318 0.94731,3.46418 -1.03775,4.57508 -3.27232,1.83128 -3.32381,7.05956 -0.21411,21.74064 1.33256,6.2911 2.49119,14.74749 2.57476,18.79198 0.1224,5.92586 1.09821,3.22897 5.02557,-13.89017 3.98125,-17.35402 4.65414,-23.03908 3.67493,-31.04862 z m -249.01391,36.7681 c 0,-1.79755 -0.6665,-3.26828 -1.4812,-3.26828 -0.8146,0 -1.0965,1.47073 -0.6265,3.26828 0.4701,1.79755 1.1366,3.26827 1.4812,3.26827 0.3445,0 0.6265,-1.47072 0.6265,-3.26827 z M 777.97169,170.4984 c -1.38263,-3.9662 -1.25051,-5.12289 0.66931,-5.85959 2.70196,-1.03685 3.2552,-8.01254 0.75786,-9.55598 -0.89878,-0.55548 -1.74493,-4.45953 -1.88035,-8.67568 -0.13547,-4.21614 -0.76395,-0.67976 -1.39673,7.85861 -0.70773,9.54983 -0.50253,17.3941 0.5332,20.38284 0.92603,2.67219 1.98873,3.94346 2.36154,2.82502 0.37281,-1.11844 -0.0974,-4.25729 -1.04483,-6.97522 z M 535.97996,145.18711 c -4.8992,-12.23514 -9.6571,-21.6387 -7.5764,-14.97398 9.545,30.57349 11.5769,35.94758 12.07,31.92337 0.2955,-2.41191 -1.7266,-10.03913 -4.4936,-16.94939 z m 45.66321,13.57253 c 0.0138,-0.67409 -0.71034,-1.22561 -1.60912,-1.22561 -0.89878,0 -1.62288,1.65457 -1.60912,3.67681 0.0203,2.97322 0.32817,3.20775 1.60912,1.22561 0.87126,-1.34817 1.59536,-3.00273 1.60912,-3.67681 z m 176.5119,-7.24399 c 0,-1.70248 1.28688,-5.64082 2.85974,-8.75187 2.47681,-4.89906 2.62091,-7.07876 1.07616,-16.27837 l -1.78358,-10.62189 -1.05433,7.35362 c -0.57987,4.04449 -1.33169,9.19202 -1.67069,11.43896 -0.339,2.24694 -0.68448,0.40854 -0.76774,-4.08534 -0.0832,-4.49388 0.484,-11.46428 1.26058,-15.48978 1.28412,-6.6565 0.18346,-19.845515 -2.59397,-31.083154 -0.99136,-4.011106 -1.05429,-3.981414 -3.46311,1.634137 -2.72398,6.350293 -5.0121,61.773227 -2.99433,72.528847 l 1.12014,5.97091 4.00556,-4.76035 c 2.20307,-2.61818 4.00557,-6.15326 4.00557,-7.85572 z m 383.20533,-0.51817 c -0.5555,-0.89878 -1.7453,-1.63414 -2.6441,-1.63414 -0.8988,0 -1.1797,0.73536 -0.6242,1.63414 0.5555,0.89878 1.7453,1.63414 2.6441,1.63414 0.8987,0 1.1796,-0.73536 0.6242,-1.63414 z m -561.87823,-5.31095 c -0.45333,-1.12347 -0.82424,-0.20426 -0.82424,2.04267 0,2.24694 0.37091,3.16615 0.82424,2.04268 0.45332,-1.12347 0.45332,-2.96188 0,-4.08535 z M 794.1061,88.707362 c 0,-0.898776 -0.73536,-1.179668 -1.63414,-0.624192 -0.89877,0.555476 -1.63414,1.745309 -1.63414,2.644084 0,0.898776 0.73537,1.179668 1.63414,0.624192 0.89878,-0.555476 1.63414,-1.745308 1.63414,-2.644084 z M 665.82628,56.217482 c 0.55548,-0.898776 0.2312,-1.634138 -0.72062,-1.634138 -0.95182,0 -1.73058,0.735362 -1.73058,1.634138 0,0.898776 0.32428,1.634138 0.72062,1.634138 0.39634,0 1.17511,-0.735362 1.73058,-1.634138 z m 1.76281,-13.145724 c 1.93168,-0.04461 6.82534,-4.839793 12.71951,-12.463406 9.67524,-12.51408 14.5345,-21.6407562 16.48201,-30.95661665 0.96395,-4.61104685 0.63333,-5.17732485 -3.51112,-6.01357785 -2.51639,-0.507743 -5.85928,-1.419919 -7.42865,-2.027067 -2.4481,-0.947113 -2.71085,-0.391343 -1.84995,3.913107 1.47696,7.3848649 -0.55391,15.5955415 -5.06019,20.4579015 -3.05931,3.301041 -5.5319,4.28435 -10.77332,4.28435 -5.71517,0 -7.6587,-0.934514 -12.15697,-5.845474 -2.94483,-3.215003 -6.22569,-8.9579676 -7.29079,-12.7621424 -1.45634,-5.2015589 -3.07806,-7.3475411 -6.54008,-8.6542961 -4.48298,-1.692133 -4.56998,-1.620656 -3.32235,2.729533 1.89926,6.6223438 4.59536,11.1136737 7.78801,12.9737311 1.58843,0.9254286 1.93962,1.6763314 0.79703,1.7041284 -3.54189,0.08612 -8.31696,-6.0370286 -10.40163,-13.3382912 -1.10534,-3.8713053 -2.98589,-8.1996798 -4.17899,-9.6186178 -3.6716,-4.366563 -2.45672,-10.38622 3.50084,-17.346275 8.7859,-10.264347 27.29907,-13.605391 38.28329,-6.908939 9.20995,5.6148 28.1057,21.2501 29.16747,24.134648 2.14186,5.8189365 7.45678,6.9152795 6.03351,1.244575 -0.53933,-2.148875 -0.20721,-4.385045 0.73804,-4.969233 0.98356,-0.607883 2.14696,0.888464 2.72011,3.498526 0.5508,2.508401 1.28464,5.4799175 1.63075,6.6033875 0.77828,2.5262466 8.30008,2.7053971 9.82744,0.234074 0.74904,-1.211958 1.46011,-1.254724 2.15546,-0.129587 0.6853,1.108828 7.96863,0.356814 21.44806,-2.214567 11.22571,-2.1414405 22.43263,-3.9215235 24.90426,-3.9557255 2.47164,-0.03415 4.49388,-0.695571 4.49388,-1.469711 0,-0.77414 1.74868,-1.073253 3.88595,-0.664686 4.87249,0.931443 9.18715,-4.674369 9.18715,-11.93638 0,-3.072784 1.9337,-7.780081 4.84934,-11.805012 2.66714,-3.681876 5.32708,-8.597738 5.91095,-10.92413 1.25587,-5.003762 7.92752,-8.872208 14.95665,-8.672353 2.85018,0.08105 8.4553,-1.906058 12.94183,-4.588071 9.98303,-5.967773 17.1515,-9.125924 18.24108,-8.036346 1.6433,1.643289 -3.87851,9.597422 -10.51754,15.150402 l -6.72717,5.626729 5.42631,9.011306 c 9.85129,16.359665 11.17692,33.2579575 3.32511,42.3862192 -6.63209,7.710271 -16.51801,5.4073622 -25.50665,-5.9416925 -5.64371,-7.1257727 -8.77319,-8.1568157 -11.26161,-3.7102612 -1.37,2.448037 -2.31145,2.584471 -6.61775,0.959027 -2.7613,-1.042319 -5.02055,-1.277128 -5.02055,-0.521862 0,2.506604 11.01082,10.4880273 26.7329,19.3778845 8.53927,4.828419 17.45321,10.790587 19.80874,13.249246 4.25356,4.439756 4.33525,4.453581 11.96187,2.025677 20.61391,-6.562371 31.42355,-11.487449 56.50683,-25.7456616 14.96509,-8.5066679 27.93346,-15.4666744 28.8186,-15.4666744 2.48895,0 1.89989,-10.430146 -0.78991,-13.986373 -2.89119,-3.822494 -3.34796,-9.606541 -0.62578,-7.924147 3.66785,2.26686 -2.99681,-31.543142 -7.22116,-36.633171 -1.64611,-1.983435 -2.09209,-1.763954 -2.83823,1.396747 -0.75674,3.205606 -1.67929,2.22898 -6.35566,-6.728203 -3.00872,-5.762967 -9.12411,-13.917593 -13.58975,-18.1214 -6.38822,-6.013657 -7.88783,-8.372627 -7.03357,-11.064187 1.33592,-4.20911 -4.22577,-14.58237 -15.06763,-28.10303 -6.57319,-8.19731 -10.1951,-10.90238 -23.29601,-17.39899 -14.77185,-7.3252 -16.17595,-7.69465 -29.40043,-7.73583 -12.17184,-0.0379 -13.95933,-0.41514 -14.46738,-3.05327 -0.3583,-1.8605 0.10328,-2.58792 1.20868,-1.90475 0.9836,0.60789 3.424,-0.0404 5.42311,-1.44061 1.99912,-1.40023 6.04489,-2.54588 8.99063,-2.54588 4.74214,0 5.35587,-0.51055 5.35587,-4.45545 0,-3.34331 -2.94707,-7.42233 -11.80659,-16.34138 -6.49364,-6.53726 -11.08965,-11.86407 -10.21336,-11.83735 0.87627,0.0267 6.0054,4.44371 11.39806,9.81556 7.11763,7.09016 9.95902,9.04349 10.36744,7.12717 1.0189,-4.78078 -4.75764,-16.74905 -10.53038,-21.81757 -5.41086,-4.7508 -6.33547,-4.97856 -20.21053,-4.97856 -13.5572,0 -14.6176,0.2437 -15.68429,3.60453 -0.72556,2.28604 -0.40904,3.84952 0.86531,4.2743 3.10107,1.0337 13.05477,10.168 14.96056,13.72903 3.80625,7.11205 -2.60662,4.8204 -14.90207,-5.32526 l -7.35362,-6.06788 -20.42673,-1.23154 c -11.23469,-0.67734 -23.29146,-1.1116 -26.79281,-0.96502 -8.78469,0.36777 -21.68207,6.23026 -25.49889,11.59051 l -3.17528,4.45925 8.38898,0.99355 c 15.88078,1.88085 31.93894,13.60917 26.32284,19.22528 -1.4635,1.4635 -3.27787,1.1104 -7.69954,-1.49844 -10.71841,-6.32402 -20.71969,-8.74424 -35.89794,-8.68697 -13.17355,0.0497 -15.63474,0.5882 -26.69548,5.84092 -6.76993,3.21503 -11.90112,6.63497 -11.54734,7.69631 0.35019,1.05057 -1.07275,3.75467 -3.16209,6.00911 -2.08935,2.25443 -4.9535,8.07098 -6.36479,12.92566 -2.36978,8.15178 -2.3562,9.0585 0.17779,11.85853 6.14147,6.78623 -0.91454,12.97626 -7.39945,6.49135 -2.75202,-2.75202 -3.39865,-5.04946 -2.96023,-10.51756 l 0.56097,-6.99638 -4.28607,4.28907 c -2.35732,2.35898 -4.7566,6.91891 -5.33173,10.13318 -0.57512,3.21425 -2.17716,7.25874 -3.56008,8.98775 -2.36094,2.95176 -2.47945,2.76959 -1.94149,-2.98437 0.31511,-3.37041 0.0743,-6.12802 -0.53482,-6.12802 -2.38772,0 -5.19767,10.33272 -5.12131,18.83202 0.0891,9.90532 -1.88793,11.881307 -3.63914,3.63738 -1.11288,-5.23897 -1.22758,-5.11528 -8.46235,9.126607 -8.36398,16.464719 -10.394,28.046753 -10.41526,59.422821 -0.019,27.932694 5.58941,43.2969894 23.6826,64.879603 6.87847,8.205039 13.03831,12.024722 29.31568,18.178477 8.57443,3.241622 10.24988,3.435284 12.4835,1.442911 1.41894,-1.265657 3.99271,-2.333892 5.71948,-2.373831 z m -17.16851,-92.476547 c -1.86279,-2.368144 -3.39964,-4.75807 -3.41525,-5.310948 -0.0163,-0.552878 -1.11022,-6.112166 -2.43246,-12.353968 -1.32225,-6.241802 -2.52916,-14.882306 -2.68202,-19.20112 -0.15285,-4.318814 -0.79638,-7.852375 -1.43005,-7.852375 -0.63367,0 -3.16034,2.008224 -5.61483,4.462699 -4.3312,4.331201 -4.53038,4.370159 -6.75938,1.321805 -1.26317,-1.727496 -2.29668,-3.650141 -2.29668,-4.272551 0,-2.239276 13.14598,-12.951713 15.93755,-12.987263 1.57027,-0.02 4.69344,-1.47435 6.94038,-3.23193 5.90598,-4.61972 12.03982,-4.07565 18.55635,1.64594 5.00726,4.39642 5.72267,4.61165 6.78979,2.04267 0.99317,-2.39089 1.57146,-1.98151 3.45493,2.44575 5.1081,12.007102 23.37268,34.565051 33.18491,40.985546 l 5.83073,3.815238 -6.05797,-1.016417 c -6.99908,-1.174308 -20.52879,-6.792735 -24.31893,-10.098809 -2.29448,-2.001426 -2.81779,-1.526464 -4.49836,4.082714 -2.72071,9.080937 -14.73453,19.828743 -22.16445,19.828743 -4.14378,0 -6.53472,-1.140775 -9.02426,-4.305724 z m 17.67292,-5.553683 c 10.8814,-7.882444 13.12432,-19.084492 5.93854,-29.659324 -4.16847,-6.134456 -8.96351,-8.39692 -21.56755,-10.176287 -5.657,-0.79863 -6.92338,-0.47404 -7.39867,1.896339 -0.88614,4.419477 1.51254,21.921109 3.75277,27.38132 1.10413,2.691179 1.88927,5.673252 1.74475,6.626837 -0.35956,2.372474 5.90445,8.888109 8.54487,8.888109 1.1783,0 5.22168,-2.230648 8.98529,-4.956994 z m -4.71842,-49.729128 c 0,-1.91747 -6.60811,-4.00717 -9.27792,-2.934 -2.34541,0.9428 -1.763,1.41662 2.74137,2.23022 3.14571,0.56822 5.90332,1.12993 6.12801,1.24824 0.2247,0.11831 0.40854,-0.12665 0.40854,-0.54446 z m 101.31654,38.404536 c 0,-1.764673 4.49304,-8.011589 9.98457,-13.882017 9.21648,-9.852463 9.92751,-11.145572 9.24302,-16.809702 -0.90688,-7.504417 1.43211,-14.933427 5.96887,-18.957997 2.5648,-2.27524 5.21574,-2.84542 10.78235,-2.31913 7.09793,0.67106 7.58627,0.42607 12.71635,-6.3793 2.93423,-3.89244 6.4147,-7.07716 7.73438,-7.07716 3.16877,0 3.12163,6.93639 -0.0894,13.14574 -2.31028,4.46756 -2.23045,5.31147 1.11283,11.76635 2.76946,5.34701 3.62764,9.908787 3.71437,19.74419 0.10965,12.438061 -0.0343,12.922223 -5.22397,17.566982 -4.71194,4.217236 -6.5513,4.776389 -15.71241,4.776389 -11.40359,0 -18.98718,-3.963471 -18.98718,-9.923433 0,-1.732317 -0.453,-3.14967 -1.00666,-3.14967 -1.91354,0 -16.96885,11.722357 -16.96885,13.212282 0,0.822233 -0.73537,1.494959 -1.63414,1.494959 -0.89878,0 -1.63414,-1.443826 -1.63414,-3.208483 z m 47.33251,-16.293743 c 2.15823,-4.032726 2.15632,-10.111359 -0.005,-15.796016 l -1.69659,-4.462367 -6.4741,6.321767 c -3.56081,3.47699 -6.47415,7.044362 -6.47415,7.927499 0,2.788427 6.98157,9.169964 10.03218,9.169964 1.60927,0 3.68717,-1.422386 4.61757,-3.160847 z m -14.26797,-32.680743 c -0.93403,-1.51847 -9.40319,6.12793 -9.96628,8.99808 -0.42901,2.18666 0.94906,1.44895 4.90241,-2.62439 3.02453,-3.11633 5.30329,-5.98449 5.06387,-6.37369 z m 104.35654,33.575351 c -1.33664,-1.610557 -1.40598,-2.679169 -0.22132,-3.411328 0.94878,-0.586377 2.17837,0.115207 2.73244,1.559131 1.3795,3.594924 -0.13662,4.713246 -2.51112,1.852197 z m -72.0036,-34.200751 c -0.29113,-7.4671 10.20674,-10.25397 15.6276,-4.14867 3.09048,3.48068 3.08718,3.49251 -0.45637,1.63414 -5.15832,-2.70522 -10.45153,-2.30141 -12.9484,0.98782 -1.19398,1.57286 -2.19424,2.25988 -2.22283,1.52671 z M 582.80063,37.04746 c -0.41432,-1.589967 -0.78056,-0.684753 -0.81387,2.011575 -0.0333,2.696327 0.30568,3.997199 0.75332,2.890839 0.44763,-1.106361 0.47487,-3.312447 0.0606,-4.902414 z m 94.62251,-25.780403 c 2.00795,-3.0645155 2.50101,-6.6329497 1.95655,-14.1600664 -0.67256,-9.2981636 -1.21534,-10.4835176 -7.14066,-15.5941696 -5.79874,-5.001475 -7.18587,-5.465129 -14.48728,-4.842375 -6.23027,0.531389 -8.9363,1.690564 -11.8475,5.075027 -4.53934,5.277301 -4.83868,9.1337695 -0.79114,10.1922325 1.64001,0.42888 3.82941,3.117641 4.86534,5.9750294 1.03593,2.85740445 4.15981,7.952875 6.94196,11.3232844 4.26855,5.1710657 6.05474,6.1280167 11.43838,6.1280167 5.00682,0 6.95765,-0.881748 9.06435,-4.096979 z m 26.80538,-12.24439935 c 1.98215,-1.28095155 1.74761,-1.58887215 -1.2256,-1.60911915 -2.02225,-0.013759 -3.67681,0.7103434 -3.67681,1.60911915 0,2.04744405 1.73421,2.04744405 4.90241,0 z M 835.95877,-3.4772137 c 4.02491,-6.1427898 2.33357,-22.9118713 -3.27643,-32.4845853 -2.36396,-4.033821 -5.02473,-7.783285 -5.91282,-8.332142 -0.88807,-0.548858 -6.02688,2.885854 -11.41956,7.632698 -7.15532,6.298359 -9.8049,9.754643 -9.8049,12.790152 0,8.83794 15.12768,24.19560095 24.06587,24.43175015 2.16183,0.057195 4.73872,-1.58205775 6.34784,-4.03787285 z M 1264.3339,548.30694 c -6.9048,-3.82678 -9.499,-7.74191 -6.8711,-10.3698 0.8616,-0.86162 3.2227,0.86413 14.3881,10.51648 6.5007,5.61978 2.7559,5.5467 -7.517,-0.14675 z M 53.841662,425.09049 c 0,-1.36205 1.1031,-2.89973 2.4512,-3.41708 1.3482,-0.51733 2.4512,-0.31836 2.4512,0.44215 0,0.76051 -1.103,2.2982 -2.4512,3.41708 -1.9954,1.65608 -2.4512,1.57387 -2.4512,-0.44215 z M 511.24806,393.26662 c -1.3076,-3.43925 -1.1137,-5.72652 0.8311,-9.80483 3.5611,-7.46773 5.1468,-6.6202 4.5708,2.44301 l -0.4933,7.76215 4.1584,-4.585 c 4.4673,-4.9257 5.459,-12.24363 2.1156,-15.61172 -1.6382,-1.65034 -1.4494,-1.83182 0.9538,-0.91658 6.1598,2.3459 6.2935,12.15241 0.2907,21.31379 -3.6275,5.5363 -10.2149,5.21781 -12.4271,-0.60082 z m -34.1647,-1.23381 c 1.1189,-1.34816 2.7697,-2.4512 3.6685,-2.4512 0.9115,0 0.7346,1.08386 -0.4002,2.4512 -1.1189,1.34817 -2.7697,2.45121 -3.6685,2.45121 -0.9116,0 -0.7346,-1.08386 0.4002,-2.45121 z m 583.43254,-697.0784 c -6.5372,-2.96532 -10.532,-6.28083 -9.1876,-7.62526 0.2667,-0.26669 3.7197,0.98274 7.6733,2.77653 9.1155,4.13574 18.3132,4.1455 27.3851,0.029 8.5619,-3.88509 11.169,-4.11677 8.3697,-0.74377 -1.7478,2.10592 -1.5901,2.33824 1.0255,1.51075 2.4597,-0.77819 2.5904,-0.64945 0.6397,0.63048 -2.9796,1.95501 -21.3537,6.82307 -25.565,6.77323 -1.6679,-0.0197 -6.3212,-1.52769 -10.3407,-3.351 z" /></g></svg>