<svg fill="#861001" xmlns="http://www.w3.org/2000/svg" xmlns:xlink="http://www.w3.org/1999/xlink" version="1.1" x="0px" y="0px" viewBox="0 0 100 100" enable-background="new 0 0 100 100" xml:space="preserve"><g><path fill-rule="evenodd" clip-rule="evenodd" d="M54.128,28.646c0.389,0,0.758,0.068,1.116,0.166v-1.647   c0-0.686-0.562-1.247-1.248-1.247s-1.247,0.562-1.247,1.247v1.646c0.358-0.097,0.728-0.165,1.115-0.165H54.128z"></path><path fill-rule="evenodd" clip-rule="evenodd" d="M54.101,29.245c1.807,0,3.293,1.798,3.399,4.054   c0.036,0.788,0.422,1.435,1.01,1.695c0.802,0.356,1.373,1.176,1.373,2.454c0,0.073,0,0.147,0,0.223   c0.009,1.149,0.317,2.134,0.935,2.977c0.449,0.613,0.759,1.389,0.878,2.247c0.658-0.066,1.316-0.143,1.995-0.243   c-0.179-0.76-0.542-1.45-1.057-2.004c-0.781-0.843-1.173-1.828-1.183-2.977c-0.001-0.075-0.002-0.149-0.002-0.223   c0-1.278-0.723-2.098-1.737-2.454c-0.745-0.261-1.233-0.907-1.279-1.695c-0.135-2.255-2.017-4.054-4.305-4.054H54.101z"></path><path fill-rule="evenodd" clip-rule="evenodd" d="M47.175,40.647c0.617-0.843,0.927-1.828,0.935-2.977   c0-0.075,0.001-0.149,0.001-0.223c0-1.278,0.57-2.098,1.372-2.454c0.589-0.261,0.974-0.907,1.011-1.695   c0.105-2.255,1.592-4.054,3.399-4.054h-0.028c-2.288,0-4.17,1.798-4.304,4.054c-0.047,0.788-0.535,1.435-1.279,1.695   c-1.016,0.356-1.738,1.176-1.738,2.454c0,0.073-0.001,0.147-0.001,0.223c-0.01,1.149-0.401,2.134-1.184,2.977   c-0.488,0.526-0.835,1.178-1.022,1.893c0.643,0.104,1.301,0.196,1.968,0.279C46.43,41.991,46.738,41.243,47.175,40.647z"></path><path fill-rule="evenodd" clip-rule="evenodd" d="M58.665,37.67c-0.001-0.075-0.001-0.149-0.001-0.223   c0-1.278-0.453-2.098-1.089-2.454c-0.466-0.261-0.771-0.907-0.801-1.695c-0.084-2.255-1.263-4.054-2.695-4.054h-0.165   c-1.434,0-2.612,1.798-2.695,4.054c-0.03,0.788-0.335,1.435-0.802,1.695c-0.636,0.356-1.088,1.176-1.088,2.454   c0,0.073-0.001,0.147-0.001,0.223c-0.006,1.149-0.252,2.134-0.741,2.977c-0.369,0.634-0.614,1.444-0.7,2.337   c1.793,0.169,3.668,0.264,5.661,0.236c2.579-0.033,4.623-0.064,6.561-0.193c-0.082-0.91-0.328-1.736-0.703-2.38   C58.916,39.804,58.671,38.819,58.665,37.67z"></path><path fill-rule="evenodd" clip-rule="evenodd" d="M59.411,70.541c-1.869-0.232-3.254-1.801-3.254-3.685V65.77   c-0.853,0.093-1.717,0.154-2.606,0.147c-0.917-0.007-1.8-0.087-2.666-0.201v1.099c0,1.896-1.404,3.472-3.287,3.689   c-2.983,0.344-4.962,0.949-4.962,1.637c0,1.072,4.796,1.941,10.711,1.941s10.711-0.869,10.711-1.941   C64.058,71.477,62.217,70.892,59.411,70.541z M57.255,72.742c-1.157,0.158-2.506,0.242-3.9,0.242c-2.271,0-4.415-0.228-5.734-0.607   c-0.188-0.055-0.297-0.251-0.243-0.439c0.054-0.188,0.253-0.299,0.438-0.242c1.26,0.363,3.33,0.58,5.539,0.58   c1.362,0,2.679-0.082,3.805-0.236c0.203-0.027,0.373,0.109,0.399,0.304S57.449,72.715,57.255,72.742z M59.947,72.049   c-0.316,0.166-0.755,0.315-1.305,0.443c-0.026,0.006-0.054,0.01-0.08,0.01c-0.161,0-0.307-0.111-0.345-0.274   c-0.045-0.19,0.073-0.382,0.265-0.426c0.483-0.112,0.877-0.244,1.137-0.38c0.17-0.089,0.388-0.023,0.478,0.148   C60.188,71.744,60.121,71.959,59.947,72.049z"></path><path fill-rule="evenodd" clip-rule="evenodd" d="M53.78,51.119c10.841,0,17.83-3.865,23.996-7.275   c4.611-2.551,8.681-4.795,13.308-4.67c-0.391-0.193-0.797-0.356-1.241-0.444c-4.338-0.851-11.906,1.556-18.957,3.442   c-7.392,1.978-10.463,2.035-17.338,2.127c-13.316,0.178-22-4.417-29.405-7.373c0.927,0.734,1.875,1.527,2.859,2.352   C33.298,44.553,41.134,51.119,53.78,51.119z"></path><path fill-rule="evenodd" clip-rule="evenodd" d="M93.281,41.084l-0.248-0.283c-5.08-0.966-9.269,1.351-14.571,4.283   c-6.003,3.32-13.475,7.452-24.682,7.452c-13.161,0-21.217-6.749-27.688-12.172c-2.594-2.173-4.933-4.119-7.167-5.214   c-1.229-0.313-2.442-0.528-3.66-0.607c-5.532-0.36-10.766,4.098-10.766,10.285c0,5.688,4.521,10.297,10.1,10.297   c3.161,0,5.983-1.48,7.835-3.801c1.119-1.4,0.819-3.311-0.548-4.424c-0.888,3.254-3.814,5.641-7.287,5.641   c-4.178,0-7.564-3.453-7.564-7.713c0-2.923,1.621-5.15,3.972-6.477c13.611-7.685,20.424,25.952,43.243,26.14   c5.575,0.046,10.52-1.945,13.583-4.943c4.031-3.945,11.29-16.287,27.669-16.287C94.693,42.417,94.134,41.913,93.281,41.084z"></path></g></svg>