<svg xmlns="http://www.w3.org/2000/svg" xmlns:xlink="http://www.w3.org/1999/xlink" version="1.1" x="0px" y="0px" viewBox="0 0 10 10" enable-background="new 0 0 10 10" xml:space="preserve"><g><path fill-rule="evenodd" clip-rule="evenodd" fill="none" d="M7.054,7.068C7.267,7.09,7.441,7.147,7.593,7.271   C7.806,7.445,7.998,7.64,8.172,7.854C8.233,7.932,8.189,8.05,8.093,8.071C7.949,8.103,7.838,8.168,7.814,8.326   C7.811,8.347,7.811,8.372,7.782,8.359C7.758,8.35,7.743,8.332,7.76,8.305c0.008-0.011,0.017-0.021,0.023-0.031   c0.115-0.158,0.069-0.301-0.125-0.339c-0.115-0.023-0.162-0.07-0.162-0.188c0-0.071-0.029-0.142-0.044-0.213   C7.418,7.373,7.332,7.25,7.19,7.166C7.148,7.141,7.109,7.11,7.054,7.068z"></path><path d="M1.169,0.692l0.025,0.067l0.01,0.087c0,0-0.082-0.001-0.09-0.068C1.105,0.71,1.169,0.692,1.169,0.692z"></path><path d="M1.969,1.425C1.993,1.49,2.043,1.594,2.058,1.604c0.015,0.01,0.08,0.046,0.082,0.024c0.002-0.021,0.005-0.068-0.023-0.091   C2.088,1.514,1.977,1.425,1.977,1.425H1.969z"></path><g><path d="M7.608,7.25C7.463,7.13,7.292,7.066,7.056,7.041l-0.102-0.01L7.037,7.09c0.02,0.015,0.036,0.027,0.053,0.038    c0.031,0.023,0.057,0.044,0.086,0.062C7.312,7.269,7.392,7.383,7.427,7.54c0.004,0.021,0.011,0.043,0.017,0.067    c0.013,0.049,0.025,0.095,0.025,0.14c0,0.128,0.053,0.188,0.186,0.213c0.082,0.017,0.137,0.053,0.156,0.104    c0.021,0.053,0.004,0.122-0.047,0.194C7.76,8.263,7.756,8.267,7.753,8.27C7.749,8.275,7.741,8.282,7.738,8.29    c-0.015,0.023-0.013,0.042-0.01,0.055c0.006,0.017,0.021,0.03,0.042,0.04C7.78,8.389,7.787,8.39,7.795,8.39    c0.038,0,0.043-0.04,0.045-0.053V8.332c0.021-0.13,0.099-0.199,0.259-0.235c0.055-0.013,0.101-0.053,0.118-0.105    C8.237,7.938,8.226,7.88,8.191,7.838C8.022,7.623,7.825,7.427,7.608,7.25z M7.787,8.322V8.33C7.785,8.332,7.785,8.332,7.785,8.332    C7.782,8.33,7.78,8.328,7.78,8.326c0,0,0-0.002,0.002-0.007c0.003-0.004,0.005-0.006,0.007-0.01    C7.789,8.313,7.787,8.319,7.787,8.322z M8.168,7.973C8.155,8.01,8.124,8.037,8.086,8.044C8.017,8.061,7.931,8.088,7.869,8.151    C7.876,8.113,7.873,8.077,7.86,8.044C7.842,7.997,7.793,7.933,7.663,7.907c-0.107-0.021-0.142-0.06-0.142-0.16    c0-0.053-0.013-0.104-0.027-0.154C7.488,7.57,7.483,7.551,7.479,7.528C7.443,7.359,7.351,7.23,7.203,7.143    C7.187,7.133,7.17,7.122,7.151,7.109c0.175,0.029,0.308,0.087,0.425,0.183c0.213,0.173,0.406,0.37,0.573,0.579    C8.173,7.9,8.179,7.938,8.168,7.973z"></path><path d="M8.845,8.427C8.809,8.41,8.811,8.396,8.823,8.343c0.023-0.088,0.013-0.168-0.031-0.226C8.75,8.062,8.68,8.031,8.594,8.031    H8.587c-0.027,0-0.033-0.006-0.033-0.006c-0.004-0.005,0-0.032,0.002-0.041C8.59,7.742,8.508,7.547,8.31,7.388    c-0.32-0.257-0.624-0.572-0.931-0.967L7.376,6.416C7.352,6.384,7.332,6.358,7.339,6.317c0.044-0.245,0.01-0.474-0.102-0.682    C7.219,5.602,7.214,5.583,7.229,5.561c0.137-0.217,0.213-0.463,0.272-0.677c0.012-0.04,0.025-0.049,0.073-0.05    c0.142-0.003,0.253-0.066,0.313-0.176c0.027-0.05,0.055-0.068,0.116-0.077c0.181-0.025,0.304-0.113,0.368-0.263    C8.438,4.166,8.408,4.015,8.29,3.894C8.219,3.82,8.2,3.755,8.226,3.648C8.259,3.513,8.2,3.385,8.067,3.297    c-0.104-0.068-0.22-0.07-0.32-0.003C7.638,3.368,7.568,3.451,7.538,3.548C7.52,3.611,7.5,3.623,7.441,3.618    C7.355,3.611,7.271,3.647,7.214,3.711C7.172,3.758,7.153,3.813,7.159,3.867C7.166,3.92,7.15,3.936,7.104,3.964    C6.939,4.069,6.868,4.198,6.887,4.358c0.027,0.238,0.192,0.367,0.445,0.348c0.007,0,0.015-0.001,0.021-0.003    C7.365,4.701,7.378,4.7,7.383,4.7c0,0.004-0.002,0.014-0.009,0.028C7.292,4.912,7.19,5.125,7.056,5.317    C7.042,5.335,7.029,5.346,7.021,5.346S6.998,5.338,6.981,5.324c-0.129-0.11-0.293-0.183-0.516-0.229l-0.02-0.004    C6.396,5.081,6.344,5.07,6.291,5.037L6.288,5.036c-0.08-0.031-0.143-0.064-0.2-0.107L6.082,4.925L6.076,4.924    c-0.003-0.001-0.009-0.003-0.02-0.009C6.034,4.903,5.913,4.828,5.782,4.749C5.607,4.643,5.427,4.533,5.403,4.52    C5.28,4.453,5.166,4.375,5.032,4.278c-0.029-0.021-0.035-0.032-0.02-0.066c0.042-0.09,0.046-0.181,0.015-0.261    c-0.032-0.082-0.1-0.147-0.195-0.187c-0.07-0.029-0.144-0.04-0.209-0.049C4.59,3.71,4.577,3.699,4.567,3.67    C4.449,3.31,4.121,3.068,3.75,3.068c-0.039,0-0.078,0.003-0.116,0.008C3.6,3.081,3.577,3.081,3.552,3.043    C3.434,2.862,3.35,2.706,3.288,2.55C3.266,2.496,3.267,2.481,3.321,2.458c0.141-0.06,0.205-0.167,0.172-0.286    C3.476,2.112,3.49,2.093,3.543,2.062c0.226-0.131,0.315-0.353,0.245-0.608C3.706,1.15,3.395,0.911,3.081,0.911H3.075    c-0.066,0-0.092-0.011-0.114-0.077c-0.04-0.125-0.166-0.211-0.305-0.211c-0.062,0-0.122,0.018-0.172,0.052    c-0.119,0.08-0.208,0.133-0.349,0.133l-0.004,0c-0.079,0-0.148,0.041-0.197,0.116C1.869,1.026,1.858,1.169,1.909,1.281    C1.92,1.307,1.919,1.316,1.918,1.32C1.916,1.326,1.905,1.333,1.886,1.34C1.829,1.365,1.793,1.36,1.748,1.326    C1.651,1.252,1.553,1.165,1.44,1.05C1.389,0.999,1.368,0.954,1.367,0.896C1.366,0.814,1.34,0.738,1.292,0.676    c-0.078-0.1-0.174-0.107-0.267-0.02c-0.138,0.129-0.169,0.31-0.079,0.449c0.091,0.141,0.152,0.29,0.217,0.447l0.021,0.054    C1.198,1.64,1.217,1.67,1.236,1.701l0.008,0.013c0.115,0.182,0.25,0.362,0.412,0.552c0.013,0.015,0.028,0.031,0.042,0.046    C1.742,2.358,1.783,2.402,1.8,2.462c0.037,0.133,0.127,0.222,0.268,0.265c0.05,0.015,0.101,0.031,0.152,0.045    c0.054,0.016,0.079,0.046,0.083,0.105l0.002,0.033c0.008,0.098,0.017,0.2,0.046,0.295C2.409,3.394,2.437,3.554,2.389,3.73    C2.383,3.751,2.378,3.772,2.373,3.792C2.354,3.867,2.337,3.938,2.287,4.001c-0.075,0.095-0.102,0.19-0.08,0.276    C2.23,4.365,2.304,4.436,2.42,4.484c0.032,0.013,0.037,0.021,0.037,0.022c0.001,0.001,0.002,0.01-0.016,0.037    C2.333,4.713,2.336,4.893,2.45,5.077c0.023,0.038,0.051,0.071,0.082,0.106c0.01,0.012,0.021,0.024,0.032,0.038    c-0.05,0.002-0.1,0.004-0.148,0.004c-0.127,0-0.225-0.012-0.317-0.037C2.047,5.172,2.007,5.166,1.973,5.166    c-0.106,0-0.159,0.065-0.215,0.177C1.721,5.417,1.688,5.485,1.667,5.556c-0.02,0.061-0.045,0.08-0.108,0.083    C1.404,5.646,1.302,5.696,1.245,5.794C1.213,5.849,1.186,5.882,1.129,5.903C1.009,5.946,0.944,6.05,0.955,6.18    c0.01,0.118,0.086,0.202,0.214,0.234L1.23,6.43c-0.005,0.005-0.011,0.01-0.016,0.015C1.18,6.476,1.148,6.505,1.118,6.535    C0.964,6.693,0.946,6.826,1.05,7.023c0.058,0.108,0.14,0.197,0.219,0.283c0.032,0.034,0.065,0.07,0.096,0.105    c0.056,0.067,0.136,0.069,0.223,0.002C1.756,7.286,1.812,7.06,1.724,6.865c-0.006-0.014-0.013-0.026-0.019-0.04    C1.688,6.79,1.672,6.759,1.663,6.724C1.654,6.689,1.655,6.66,1.666,6.642c0.007-0.011,0.018-0.019,0.035-0.023    C1.732,6.611,1.764,6.6,1.794,6.591c0.064-0.021,0.124-0.04,0.187-0.04c0.042,0,0.08,0.009,0.117,0.026    c0.018,0.009,0.037,0.014,0.059,0.014c0.032,0,0.063-0.009,0.094-0.018c0.007-0.002,0.015-0.004,0.022-0.006    c0.097-0.025,0.169-0.1,0.19-0.191C2.481,6.291,2.452,6.207,2.384,6.15c-0.1-0.084-0.144-0.137-0.108-0.261    c0.029-0.104-0.039-0.192-0.119-0.265C2.178,5.621,2.201,5.62,2.225,5.62c0.071,0,0.141,0.013,0.214,0.026    C2.46,5.65,2.481,5.654,2.502,5.658c0.065,0.011,0.103,0.039,0.131,0.096c0.07,0.144,0.188,0.244,0.344,0.287    c0.082,0.023,0.109,0.034,0.106,0.105C3.08,6.199,3.112,6.254,3.161,6.279c0.036,0.018,0.034,0.025,0.012,0.077    C3.134,6.443,3.131,6.525,3.163,6.584c0.026,0.048,0.074,0.08,0.139,0.091C3.394,6.689,3.43,6.729,3.439,6.824    C3.441,6.851,3.449,6.876,3.456,6.9c0.003,0.015,0.007,0.028,0.011,0.042C3.483,7.024,3.5,7.104,3.517,7.187    c0.026,0.126,0.053,0.251,0.08,0.379c0.006,0.029,0,0.055-0.021,0.074c-0.004,0.006-0.008,0.008-0.01,0.008    c-0.005,0-0.015-0.008-0.023-0.013C3.536,7.629,3.529,7.623,3.52,7.62C3.466,7.595,3.412,7.582,3.359,7.582    c-0.176,0-0.306,0.138-0.315,0.336C3.039,8.021,3.081,8.13,3.158,8.21c0.074,0.078,0.167,0.114,0.253,0.1    c0.02-0.002,0.036-0.003,0.048-0.003c0.031,0,0.051,0.003,0.057,0.068c0.001,0.017,0.008,0.037,0.019,0.052    c0.014,0.016,0.019,0.03,0.017,0.042C3.55,8.484,3.525,8.501,3.5,8.518C3.356,8.61,3.224,8.724,3.104,8.858    C3.053,8.916,3.034,8.967,3.047,9.013c0.013,0.046,0.057,0.078,0.131,0.099c0.173,0.049,0.349,0.069,0.519,0.06    c0.105-0.003,0.184-0.038,0.234-0.1C3.982,9.009,4,8.922,3.983,8.814c-0.004-0.027-0.01-0.057-0.015-0.086L3.964,8.697    c-0.007-0.041,0-0.058,0.005-0.063c0.002-0.002,0.007-0.009,0.025-0.009c0.013,0,0.029,0.004,0.047,0.009    c0.127,0.04,0.242,0.017,0.306-0.062C4.397,8.51,4.412,8.419,4.39,8.317C4.379,8.27,4.383,8.229,4.403,8.181    c0.045-0.111,0.044-0.242-0.004-0.335C4.368,7.785,4.321,7.747,4.264,7.732c-0.136-0.03-0.21-0.107-0.277-0.211L3.979,7.509    C3.964,7.488,3.953,7.471,3.952,7.448L3.949,7.311C3.945,7.161,3.941,7.006,3.935,6.854C3.933,6.807,3.946,6.791,3.994,6.779    c0.141-0.032,0.265-0.112,0.368-0.235C4.396,6.502,4.427,6.5,4.477,6.503C4.514,6.505,4.551,6.507,4.588,6.51    c0.067,0.005,0.137,0.01,0.206,0.01c0.127,0,0.229-0.018,0.322-0.055c0.037-0.016,0.073-0.032,0.108-0.049    C5.271,6.395,5.32,6.371,5.369,6.354c0.029-0.011,0.057-0.029,0.083-0.046C5.5,6.277,5.544,6.251,5.579,6.271    c0.038,0.021,0.063,0.077,0.089,0.13C5.679,6.427,5.69,6.452,5.703,6.475c0.138,0.24,0.295,0.488,0.52,0.686    c0.178,0.157,0.4,0.252,0.679,0.29c0.106,0.015,0.174,0.067,0.21,0.162c0.012,0.027,0.021,0.059,0.027,0.09    c0.008,0.021,0.015,0.047,0.024,0.068c0.009,0.033,0.013,0.052,0.005,0.062c-0.005,0.011-0.023,0.02-0.055,0.025    C7.028,7.877,6.969,7.911,6.935,7.964c-0.033,0.053-0.04,0.12-0.022,0.208c0.004,0.016,0.002,0.027-0.007,0.045    c-0.04,0.078-0.042,0.16-0.006,0.226C6.938,8.51,7.01,8.552,7.099,8.558C7.123,8.56,7.146,8.56,7.17,8.56c0.011,0,0.021,0,0.033,0    H7.21c0.015,0,0.021,0.002,0.021,0.004C7.229,8.564,7.223,8.566,7.221,8.568C7.217,8.57,7.214,8.572,7.21,8.574    C7.19,8.585,7.17,8.596,7.15,8.606C7.081,8.644,7.012,8.68,6.95,8.732L6.945,8.736C6.901,8.774,6.84,8.825,6.863,8.907    C6.883,8.98,6.95,8.996,7.006,9.009l0.013,0.004c0.065,0.017,0.135,0.017,0.2,0.019c0.055,0,0.106,0,0.157,0.009    c0.11,0.021,0.22-0.029,0.302-0.137c0.061-0.076,0.099-0.175,0.105-0.262c0.002-0.037,0.05-0.088,0.071-0.095    c0.082,0.089,0.189,0.122,0.295,0.15l0.008,0.004C8.181,8.709,8.2,8.732,8.204,8.76c0,0.007-0.005,0.011-0.029,0.023    C8.17,8.785,8.162,8.789,8.157,8.792c-0.015,0.01-0.033,0.019-0.048,0.026C8.033,8.861,7.953,8.905,7.886,8.966    C7.827,9.017,7.753,9.099,7.793,9.211c0.04,0.111,0.152,0.119,0.222,0.122C8.04,9.335,8.065,9.337,8.093,9.337l0,0    c0.13,0,0.265-0.021,0.412-0.063c0.244-0.069,0.253-0.086,0.191-0.334C8.656,8.778,8.67,8.747,8.819,8.684    C8.884,8.654,8.92,8.61,8.927,8.554C8.935,8.499,8.905,8.454,8.845,8.427z M8.874,8.547C8.869,8.585,8.845,8.612,8.798,8.634    C8.625,8.709,8.596,8.765,8.643,8.953C8.67,9.061,8.685,9.118,8.669,9.147C8.652,9.175,8.594,9.191,8.49,9.222    C8.319,9.271,8.164,9.289,8.019,9.28c-0.08-0.005-0.149-0.017-0.175-0.087c-0.021-0.064,0-0.12,0.076-0.188    c0.063-0.057,0.139-0.097,0.215-0.141c0.017-0.009,0.033-0.019,0.05-0.027c0.003-0.002,0.009-0.006,0.015-0.007    C8.223,8.819,8.263,8.8,8.257,8.754C8.252,8.705,8.217,8.663,8.173,8.65L8.164,8.646C8.061,8.616,7.962,8.589,7.89,8.505    C7.882,8.496,7.871,8.492,7.858,8.492c-0.05,0-0.124,0.085-0.13,0.146C7.718,8.785,7.598,8.991,7.423,8.991    c-0.013,0-0.025-0.002-0.038-0.004C7.33,8.979,7.273,8.979,7.219,8.977c-0.062,0-0.127,0-0.188-0.017L7.019,8.958    C6.96,8.943,6.925,8.933,6.914,8.893C6.901,8.847,6.931,8.818,6.979,8.776l0.006-0.004C7.042,8.725,7.106,8.69,7.174,8.654    c0.021-0.011,0.042-0.022,0.062-0.033c0.004-0.002,0.006-0.004,0.008-0.004C7.259,8.608,7.296,8.592,7.284,8.55    C7.273,8.507,7.227,8.505,7.21,8.505H7.203c-0.012,0-0.022,0-0.033,0c-0.021,0.002-0.046,0.002-0.067,0    C7.033,8.499,6.976,8.469,6.947,8.417C6.92,8.366,6.922,8.303,6.952,8.242c0.015-0.028,0.019-0.053,0.013-0.083    C6.948,8.088,6.954,8.033,6.979,7.993c0.026-0.04,0.074-0.067,0.145-0.082C7.172,7.902,7.201,7.886,7.216,7.86    c0.018-0.033,0.009-0.071-0.004-0.105C7.204,7.73,7.197,7.709,7.191,7.686c-0.009-0.031-0.018-0.062-0.03-0.093    C7.119,7.479,7.033,7.414,6.908,7.397c-0.268-0.036-0.48-0.127-0.651-0.278C6.04,6.928,5.885,6.684,5.75,6.449    C5.738,6.427,5.727,6.404,5.716,6.38c-0.028-0.062-0.058-0.126-0.11-0.155C5.589,6.216,5.571,6.21,5.553,6.21    c-0.045,0-0.087,0.027-0.128,0.054c-0.024,0.015-0.05,0.03-0.073,0.04C5.3,6.321,5.25,6.345,5.202,6.367    C5.167,6.384,5.131,6.399,5.096,6.414C5.009,6.45,4.914,6.466,4.793,6.466c-0.067,0-0.135-0.005-0.202-0.01    C4.554,6.453,4.517,6.451,4.479,6.449c-0.009,0-0.016,0-0.024,0c-0.051,0-0.092,0.01-0.134,0.06    C4.225,6.624,4.111,6.696,3.982,6.728C3.909,6.744,3.878,6.783,3.881,6.855c0.006,0.152,0.01,0.308,0.014,0.457L3.899,7.45    c0,0.038,0.018,0.064,0.035,0.09l0.008,0.011c0.075,0.114,0.156,0.2,0.311,0.234c0.053,0.013,0.083,0.053,0.1,0.084    c0.041,0.08,0.042,0.195,0.002,0.291C4.33,8.219,4.324,8.27,4.337,8.328c0.019,0.086,0.007,0.16-0.032,0.209    C4.256,8.6,4.164,8.617,4.058,8.583C3.996,8.563,3.953,8.57,3.927,8.6C3.908,8.623,3.902,8.657,3.911,8.707l0.005,0.031    c0.005,0.028,0.01,0.056,0.014,0.085C3.944,8.914,3.931,8.987,3.89,9.038c-0.04,0.05-0.105,0.076-0.194,0.08    C3.53,9.126,3.361,9.107,3.193,9.061C3.155,9.049,3.108,9.031,3.099,8.998c-0.01-0.032,0.019-0.074,0.045-0.104    C3.261,8.764,3.39,8.652,3.529,8.563c0.034-0.022,0.069-0.048,0.076-0.086C3.61,8.45,3.601,8.423,3.577,8.394    C3.573,8.389,3.57,8.377,3.569,8.37C3.565,8.319,3.55,8.252,3.459,8.252c-0.016,0-0.034,0.002-0.057,0.005    C3.334,8.27,3.257,8.237,3.196,8.173C3.13,8.104,3.092,8.01,3.097,7.92C3.105,7.751,3.21,7.636,3.359,7.636    c0.045,0,0.091,0.012,0.138,0.033c0.005,0.002,0.01,0.006,0.016,0.009c0.014,0.012,0.032,0.024,0.054,0.024    c0.018,0,0.034-0.01,0.049-0.024C3.649,7.644,3.66,7.602,3.65,7.553C3.623,7.427,3.596,7.301,3.57,7.176    C3.553,7.094,3.536,7.014,3.519,6.932c-0.003-0.015-0.007-0.03-0.012-0.046C3.5,6.862,3.495,6.841,3.492,6.818    C3.481,6.7,3.427,6.641,3.311,6.622C3.262,6.613,3.228,6.591,3.21,6.559C3.187,6.515,3.19,6.45,3.223,6.376    c0.02-0.045,0.045-0.104-0.037-0.145c-0.03-0.016-0.051-0.05-0.049-0.081C3.143,6.033,3.07,6.012,2.989,5.989    C2.851,5.95,2.744,5.86,2.681,5.73c-0.035-0.073-0.088-0.111-0.17-0.125C2.49,5.601,2.469,5.597,2.448,5.593    C2.376,5.58,2.301,5.566,2.225,5.566c-0.027,0-0.051,0.002-0.076,0.005C2.136,5.573,2.125,5.58,2.115,5.586    c-0.004,0.003-0.01,0.006-0.017,0.01L2.064,5.615L2.094,5.64c0.078,0.067,0.155,0.147,0.13,0.234    c-0.045,0.16,0.023,0.232,0.125,0.317C2.402,6.236,2.425,6.299,2.41,6.363C2.394,6.437,2.335,6.494,2.258,6.515    C2.251,6.517,2.243,6.52,2.235,6.521C2.194,6.533,2.149,6.544,2.121,6.529C2.076,6.507,2.03,6.496,1.98,6.496    c-0.071,0-0.138,0.022-0.203,0.044c-0.029,0.009-0.06,0.02-0.089,0.025C1.657,6.573,1.634,6.591,1.62,6.614    c-0.023,0.04-0.018,0.09-0.009,0.123c0.01,0.039,0.028,0.076,0.045,0.111c0.006,0.013,0.013,0.026,0.019,0.039    c0.079,0.171,0.029,0.371-0.12,0.484C1.522,7.397,1.492,7.41,1.466,7.41c-0.022,0-0.042-0.011-0.061-0.032    C1.374,7.341,1.34,7.305,1.308,7.271c-0.077-0.084-0.157-0.17-0.211-0.271C1.004,6.821,1.02,6.714,1.156,6.573    c0.029-0.029,0.059-0.057,0.094-0.09c0.017-0.015,0.034-0.031,0.053-0.048l0.036-0.034l-0.157-0.04    C1.076,6.335,1.017,6.271,1.008,6.175C1,6.07,1.05,5.989,1.148,5.953c0.071-0.026,0.106-0.068,0.144-0.132    C1.338,5.74,1.426,5.698,1.561,5.693c0.086-0.004,0.13-0.038,0.157-0.121C1.741,5.5,1.777,5.426,1.806,5.366    C1.861,5.255,1.901,5.22,1.973,5.22c0.03,0,0.065,0.006,0.112,0.019c0.097,0.027,0.2,0.039,0.332,0.039    c0.065,0,0.133-0.003,0.203-0.006L2.67,5.269L2.64,5.229c-0.023-0.03-0.045-0.056-0.066-0.081    c-0.03-0.035-0.057-0.065-0.078-0.099C2.392,4.881,2.389,4.726,2.487,4.573C2.502,4.547,2.518,4.519,2.508,4.49    C2.5,4.462,2.471,4.447,2.441,4.435C2.34,4.393,2.278,4.333,2.259,4.264c-0.018-0.068,0.007-0.148,0.07-0.229    c0.058-0.073,0.077-0.153,0.096-0.23c0.005-0.02,0.01-0.04,0.016-0.06C2.483,3.59,2.471,3.449,2.433,3.294    C2.437,3.302,2.44,3.31,2.446,3.318C2.5,3.411,2.641,3.563,2.697,3.602c0.068,0.046,0.048,0.043,0.161,0.057    c0.113,0.013,0.192,0,0.229-0.021c0.037-0.021,0.077-0.06,0.091-0.161C3.189,3.392,3.19,3.29,3.184,3.146    c-0.007-0.144-0.065-0.49-0.065-0.49s-0.053-0.32-0.061-0.339c-0.009-0.019,0,0.007-0.006,0.092    c-0.006,0.086,0.03,0.435,0.035,0.463s0.055,0.5,0.055,0.591c0,0.09-0.032,0.134-0.094,0.159C2.984,3.648,2.867,3.63,2.815,3.62    c-0.052-0.01-0.059-0.027-0.08-0.048c-0.022-0.021-0.133-0.187-0.18-0.237c-0.047-0.05-0.11-0.21-0.12-0.258    C2.417,2.989,2.37,2.486,2.367,2.422C2.364,2.359,2.325,1.966,2.325,1.966H2.306c0,0-0.016,0.497-0.01,0.546    C2.301,2.542,2.3,2.654,2.304,2.756C2.286,2.741,2.263,2.729,2.236,2.721c-0.051-0.015-0.102-0.03-0.152-0.045    c-0.124-0.038-0.2-0.112-0.231-0.228C1.832,2.375,1.784,2.324,1.738,2.275C1.724,2.261,1.71,2.246,1.697,2.231    c-0.16-0.188-0.293-0.367-0.406-0.546L1.281,1.671C1.264,1.644,1.246,1.615,1.233,1.586L1.211,1.533    C1.149,1.379,1.084,1.222,0.99,1.077C0.903,0.941,0.963,0.788,1.062,0.696C1.131,0.63,1.19,0.634,1.25,0.709    c0.041,0.052,0.062,0.117,0.063,0.188c0.001,0.091,0.045,0.147,0.088,0.191c0.115,0.116,0.214,0.205,0.313,0.28    C1.775,1.415,1.833,1.421,1.907,1.39c0.026-0.011,0.051-0.025,0.062-0.051c0.01-0.027,0-0.057-0.011-0.08    C1.914,1.164,1.923,1.04,1.979,0.953c0.038-0.059,0.092-0.091,0.152-0.091h0.003c0.156,0,0.255-0.06,0.379-0.142    c0.041-0.028,0.09-0.043,0.142-0.043c0.116,0,0.221,0.071,0.254,0.173c0.031,0.096,0.083,0.115,0.165,0.115h0.006    c0.292,0,0.58,0.221,0.656,0.504C3.8,1.702,3.722,1.896,3.517,2.016c-0.065,0.038-0.101,0.08-0.076,0.17    C3.466,2.278,3.415,2.359,3.3,2.408C3.2,2.451,3.214,2.512,3.238,2.57c0.062,0.159,0.148,0.318,0.269,0.503    c0.026,0.041,0.059,0.059,0.104,0.059c0.009,0,0.02-0.001,0.03-0.002C3.677,3.125,3.714,3.122,3.75,3.122    c0.347,0,0.655,0.227,0.766,0.564C4.532,3.736,4.562,3.76,4.615,3.768C4.68,3.777,4.748,3.786,4.811,3.813    C4.893,3.848,4.95,3.902,4.977,3.97c0.026,0.066,0.021,0.143-0.014,0.22C4.932,4.259,4.964,4.296,5.001,4.322    c0.135,0.098,0.251,0.177,0.377,0.245C5.4,4.58,5.588,4.694,5.754,4.794C5.89,4.877,6.007,4.949,6.029,4.961    c0.011,0.006,0.02,0.011,0.031,0.013c0.06,0.044,0.123,0.078,0.205,0.109c0.061,0.037,0.118,0.049,0.17,0.06l0.02,0.004    c0.213,0.045,0.368,0.114,0.492,0.218c0.027,0.022,0.051,0.034,0.073,0.034c0.038,0,0.063-0.029,0.078-0.051    c0.139-0.195,0.24-0.412,0.324-0.597c0.011-0.025,0.022-0.058,0.008-0.083c-0.012-0.014-0.027-0.021-0.05-0.021    c-0.011,0-0.023,0.001-0.034,0.003C7.339,4.651,7.334,4.652,7.326,4.652c-0.015,0.001-0.03,0.001-0.045,0.001    c-0.197,0-0.319-0.107-0.342-0.302C6.923,4.212,6.985,4.104,7.134,4.009c0.051-0.033,0.089-0.064,0.08-0.149    c-0.006-0.038,0.009-0.079,0.04-0.114C7.299,3.696,7.37,3.666,7.438,3.672c0.008,0,0.015,0,0.021,0    c0.081,0,0.109-0.043,0.13-0.108c0.027-0.086,0.087-0.158,0.189-0.227c0.082-0.055,0.173-0.053,0.26,0.004    C8.151,3.417,8.2,3.524,8.175,3.636c-0.03,0.125-0.009,0.208,0.077,0.295c0.102,0.104,0.125,0.234,0.07,0.366    C8.266,4.429,8.157,4.506,7.997,4.528C7.931,4.538,7.882,4.558,7.84,4.633C7.776,4.751,7.66,4.779,7.574,4.781    c-0.061,0-0.104,0.017-0.124,0.088c-0.06,0.21-0.135,0.452-0.268,0.663C7.148,5.585,7.174,5.633,7.19,5.662    c0.105,0.196,0.136,0.414,0.096,0.647C7.273,6.372,7.307,6.413,7.334,6.449l0.004,0.005C7.646,6.852,7.953,7.17,8.277,7.431    c0.186,0.147,0.257,0.322,0.224,0.546C8.497,8.01,8.495,8.039,8.514,8.061s0.049,0.023,0.073,0.023h0.007    c0.069,0,0.124,0.023,0.156,0.065C8.783,8.193,8.792,8.257,8.772,8.33C8.76,8.379,8.743,8.439,8.823,8.476    C8.88,8.501,8.876,8.536,8.874,8.547z"></path></g><path d="M4.839,4.723c-0.002-0.01-0.003-0.02-0.005-0.03C4.831,4.682,4.828,4.671,4.825,4.66C4.82,4.65,4.816,4.641,4.813,4.631   C4.804,4.613,4.795,4.595,4.785,4.579c-0.01-0.017-0.02-0.033-0.031-0.047c-0.021-0.03-0.042-0.056-0.063-0.08   c-0.042-0.047-0.08-0.083-0.107-0.107C4.556,4.321,4.539,4.308,4.539,4.308L4.535,4.312c0,0,0.012,0.018,0.032,0.047   c0.021,0.029,0.05,0.072,0.085,0.122c0.034,0.051,0.075,0.109,0.11,0.174C4.767,4.663,4.771,4.671,4.774,4.68   C4.778,4.687,4.78,4.695,4.784,4.703C4.786,4.711,4.788,4.721,4.79,4.731v0v0.001v0.003l0,0.006c0,0.005,0.001,0.009,0,0.014   C4.79,4.793,4.782,4.833,4.77,4.871C4.756,4.909,4.74,4.947,4.717,4.98C4.696,5.014,4.67,5.044,4.642,5.07   C4.627,5.083,4.613,5.095,4.599,5.104C4.588,5.11,4.572,5.114,4.556,5.117C4.524,5.123,4.492,5.125,4.462,5.126   c-0.03,0.001-0.058,0.001-0.083,0C4.355,5.125,4.333,5.124,4.316,5.123C4.298,5.121,4.284,5.119,4.274,5.118   C4.265,5.117,4.26,5.116,4.26,5.116L4.258,5.121c0,0,0.004,0.003,0.013,0.007s0.022,0.011,0.04,0.017   c0.035,0.013,0.086,0.025,0.151,0.027c0.032,0,0.067,0,0.105-0.009C4.57,5.162,4.573,5.161,4.577,5.16   C4.581,5.172,4.585,5.187,4.59,5.204C4.596,5.221,4.6,5.24,4.606,5.261C4.61,5.271,4.612,5.283,4.614,5.293   C4.617,5.305,4.62,5.316,4.622,5.328c0.002,0.012,0.004,0.023,0.006,0.035C4.629,5.376,4.63,5.39,4.632,5.404   c0.002,0.023,0,0.049-0.007,0.075S4.608,5.531,4.595,5.556C4.568,5.608,4.523,5.651,4.472,5.671   C4.46,5.676,4.447,5.681,4.437,5.683c-0.006,0.002-0.013,0.003-0.02,0.005c-0.003,0-0.012,0.001-0.017,0.002   C4.388,5.692,4.376,5.695,4.365,5.698C4.354,5.7,4.343,5.701,4.333,5.703c-0.005,0-0.01,0.001-0.015,0.002c-0.005,0-0.01,0-0.015,0   c-0.009,0-0.019,0-0.027,0.001C4.259,5.707,4.242,5.705,4.229,5.705c-0.012,0-0.021,0-0.027,0C4.193,5.691,4.185,5.679,4.176,5.669   C4.16,5.651,4.146,5.641,4.135,5.634C4.124,5.627,4.118,5.625,4.118,5.625L4.115,5.629c0,0,0.005,0.004,0.013,0.013   c0.008,0.008,0.02,0.021,0.031,0.041C4.169,5.7,4.179,5.724,4.185,5.753c0.003,0.014,0.004,0.03,0.005,0.046   c0,0.008,0,0.016,0,0.024c0,0.008-0.001,0.018-0.002,0.027C4.183,5.885,4.171,5.922,4.153,5.96   c-0.019,0.038-0.04,0.075-0.066,0.115C4.062,6.114,4.032,6.152,4,6.19C3.966,6.227,3.933,6.265,3.897,6.302   C3.861,6.336,3.824,6.373,3.78,6.395C3.775,6.397,3.769,6.399,3.764,6.401L3.747,6.406C3.735,6.411,3.724,6.409,3.712,6.409   C3.689,6.406,3.67,6.396,3.654,6.381c-0.031-0.03-0.047-0.075-0.056-0.112c0-0.001,0-0.003-0.001-0.005c0-0.001,0-0.004,0-0.007   V6.256V6.254l0-0.002l0.001-0.007C3.6,6.237,3.603,6.227,3.605,6.218c0.004-0.021,0.01-0.04,0.014-0.059   c0.01-0.036,0.018-0.07,0.026-0.1c0.008-0.031,0.014-0.058,0.02-0.079c0.011-0.043,0.017-0.069,0.017-0.069L3.677,5.91   c0,0-0.003,0.005-0.009,0.016C3.661,5.937,3.653,5.952,3.644,5.973c-0.01,0.021-0.021,0.046-0.033,0.076   C3.6,6.077,3.588,6.11,3.576,6.146C3.57,6.166,3.563,6.185,3.558,6.205c-0.002,0.012-0.005,0.02-0.007,0.033L3.55,6.249l0,0.005   l0,0.002v0.001c0-0.002,0,0.003,0,0.003l0,0C3.55,6.264,3.55,6.265,3.55,6.269c0,0.004,0.001,0.008,0.002,0.011   C3.559,6.305,3.57,6.325,3.583,6.347c0.014,0.021,0.03,0.04,0.053,0.057c0.021,0.015,0.048,0.023,0.075,0.024   c0.027-0.002,0.053-0.006,0.076-0.019C3.793,6.406,3.799,6.403,3.805,6.4l0.016-0.01c0.011-0.007,0.022-0.015,0.032-0.021   C3.875,6.354,3.896,6.34,3.917,6.323C3.958,6.292,3.999,6.26,4.034,6.223c0.036-0.038,0.07-0.076,0.099-0.116   s0.054-0.082,0.071-0.124c0.018-0.043,0.03-0.087,0.031-0.129c0-0.01,0-0.02,0-0.03c0-0.009-0.002-0.02-0.003-0.029   C4.229,5.776,4.224,5.759,4.219,5.743C4.216,5.736,4.213,5.728,4.209,5.722c0.005,0.001,0.01,0.003,0.016,0.005   c0.006,0.002,0.013,0.004,0.021,0.007c0.007,0.002,0.016,0.005,0.025,0.006c0.01,0.002,0.02,0.004,0.031,0.005   c0.005,0,0.011,0.001,0.016,0.002c0.006,0,0.012,0,0.018,0C4.348,5.747,4.36,5.746,4.374,5.745   c0.012-0.002,0.024-0.006,0.037-0.009c0.007-0.002,0.014-0.004,0.021-0.007C4.437,5.727,4.443,5.725,4.45,5.721   c0.014-0.008,0.025-0.017,0.037-0.025C4.51,5.677,4.532,5.658,4.554,5.637s0.044-0.041,0.065-0.064   C4.639,5.55,4.659,5.524,4.67,5.494C4.683,5.465,4.689,5.433,4.688,5.4c0-0.014-0.001-0.027-0.002-0.041   C4.683,5.344,4.68,5.33,4.676,5.316C4.67,5.289,4.66,5.267,4.652,5.245c-0.01-0.021-0.02-0.04-0.029-0.056   C4.613,5.174,4.605,5.162,4.598,5.152c0.008-0.004,0.017-0.009,0.026-0.016c0.015-0.014,0.028-0.031,0.04-0.046   c0.023-0.032,0.045-0.066,0.068-0.1C4.753,4.955,4.777,4.92,4.796,4.882c0.02-0.038,0.038-0.078,0.042-0.123   c0.001-0.005,0-0.011,0.001-0.017V4.734V4.729V4.728V4.727v0V4.723z"></path><path d="M3.057,2.123c-0.01-0.026-0.021-0.051-0.032-0.077C3.013,2.021,3,1.997,2.986,1.972C2.98,1.96,2.972,1.948,2.963,1.936   C2.958,1.93,2.955,1.923,2.951,1.917L2.938,1.902L2.931,1.894L2.926,1.889c0-0.001,0-0.001-0.001-0.002   C2.924,1.885,2.922,1.882,2.921,1.879C2.918,1.871,2.917,1.86,2.918,1.848c0.001-0.023,0.005-0.05,0.01-0.076   c0.004-0.027,0.01-0.054,0.009-0.086C2.936,1.67,2.934,1.65,2.918,1.632C2.91,1.624,2.898,1.618,2.889,1.616   C2.878,1.614,2.87,1.614,2.86,1.615C2.851,1.616,2.847,1.617,2.839,1.619L2.821,1.622C2.808,1.624,2.795,1.626,2.783,1.626   C2.757,1.627,2.73,1.624,2.705,1.62C2.679,1.615,2.653,1.608,2.628,1.598C2.578,1.58,2.53,1.553,2.488,1.521   c-0.01-0.009-0.021-0.018-0.03-0.026c-0.01-0.008-0.021-0.019-0.026-0.027c-0.014-0.018-0.018-0.04-0.017-0.062   s0.008-0.046,0.019-0.07c0.008-0.023,0.021-0.047,0.034-0.067l0.013-0.02L2.462,1.235C2.445,1.224,2.427,1.209,2.41,1.195   C2.393,1.181,2.377,1.166,2.36,1.151C2.352,1.144,2.342,1.138,2.334,1.13L2.31,1.105C2.293,1.09,2.276,1.075,2.259,1.06   L2.255,1.063C2.267,1.083,2.28,1.102,2.293,1.12l0.02,0.028c0.007,0.01,0.015,0.018,0.022,0.026L2.359,1.2   c0.007,0.009,0.015,0.018,0.024,0.025c0.012,0.011,0.023,0.022,0.036,0.033C2.407,1.277,2.396,1.295,2.388,1.316   C2.377,1.343,2.369,1.373,2.37,1.404c0,0.031,0.013,0.064,0.036,0.086C2.417,1.502,2.428,1.508,2.44,1.517s0.023,0.016,0.035,0.022   c0.023,0.014,0.047,0.027,0.072,0.04c0.024,0.013,0.048,0.025,0.074,0.036c0.025,0.011,0.05,0.021,0.077,0.029   c0.027,0.007,0.055,0.015,0.083,0.018C2.795,1.663,2.81,1.663,2.824,1.663l0.022-0.001c0.005,0,0.014-0.002,0.018-0.001   c0.004,0,0.009,0,0.013,0.001c0.003,0,0.004,0.002,0.005,0.003c0.001,0.003,0.004,0.011,0.004,0.023   c0,0.022-0.007,0.049-0.012,0.075C2.869,1.789,2.862,1.815,2.861,1.846c-0.001,0.016,0,0.032,0.005,0.051   C2.869,1.905,2.873,1.915,2.88,1.923l0.015,0.016l0.014,0.015c0.003,0.005,0.007,0.01,0.011,0.015C2.927,1.979,2.934,1.989,2.941,2   C2.957,2.022,2.97,2.045,2.983,2.068c0.003,0.005,0.007,0.012,0.01,0.018c-0.003,0-0.008,0-0.011-0.001   c-0.01,0-0.019,0.001-0.028,0.006C2.951,2.092,2.947,2.095,2.943,2.098S2.937,2.104,2.934,2.107   C2.927,2.113,2.924,2.121,2.92,2.128C2.917,2.135,2.915,2.143,2.912,2.15L2.907,2.173l0.005,0.001l0.01-0.02   C2.926,2.148,2.93,2.142,2.934,2.136c0.004-0.005,0.009-0.011,0.014-0.015c0.003-0.002,0.004-0.004,0.008-0.005   c0.002-0.001,0.005-0.002,0.008-0.003c0.005-0.001,0.011-0.001,0.016,0c0.003,0,0.006,0,0.008,0.002   c0.003,0.001,0.006,0.002,0.009,0.004c0.005,0.003,0.01,0.007,0.016,0.011c0.005,0.003,0.01,0.009,0.013,0.013l0.072,0.092   L3.057,2.123z"></path><path d="M3.891,3.502C3.881,3.488,3.863,3.479,3.846,3.475C3.81,3.469,3.772,3.477,3.739,3.493C3.722,3.501,3.706,3.511,3.69,3.521   c-0.017,0.01-0.031,0.023-0.046,0.037C3.63,3.571,3.615,3.583,3.6,3.593C3.584,3.604,3.568,3.612,3.551,3.62   C3.535,3.627,3.518,3.635,3.505,3.644c-0.014,0.009-0.025,0.02-0.036,0.03C3.449,3.694,3.435,3.714,3.426,3.73   C3.422,3.737,3.419,3.744,3.417,3.748S3.415,3.754,3.415,3.754l0,0.001C3.394,3.758,3.371,3.761,3.348,3.766   C3.322,3.771,3.295,3.779,3.267,3.789C3.24,3.8,3.212,3.812,3.186,3.833C3.179,3.839,3.172,3.845,3.167,3.852   C3.164,3.855,3.16,3.861,3.157,3.865C3.154,3.87,3.154,3.873,3.152,3.876L3.151,3.878v0v0V3.88L3.15,3.883L3.149,3.888l-0.003,0.01   L3.138,3.918C3.116,3.974,3.085,4.025,3.051,4.071c-0.017,0.023-0.033,0.046-0.044,0.07c-0.012,0.023-0.02,0.048-0.024,0.071   C2.978,4.236,2.976,4.259,2.979,4.28C2.982,4.3,2.991,4.318,3,4.33C3.007,4.337,3.014,4.342,3.02,4.345   c-0.008,0.013-0.017,0.025-0.026,0.04C2.987,4.396,2.98,4.408,2.974,4.42C2.967,4.434,2.962,4.448,2.956,4.462   C2.954,4.47,2.952,4.478,2.95,4.485L2.947,4.498L2.946,4.512l0,0.014c0,0,0,0.007,0,0.01l0,0.01L2.944,4.557   C2.94,4.588,2.932,4.622,2.924,4.655C2.917,4.688,2.91,4.723,2.913,4.761c0,0.009,0.004,0.019,0.006,0.028   c0.005,0.009,0.008,0.02,0.015,0.027l0.011,0.012c0.005,0.005,0.006,0.006,0.01,0.01C2.964,4.846,2.971,4.85,2.979,4.855   c0.032,0.018,0.063,0.031,0.094,0.042c0.032,0.011,0.062,0.02,0.092,0.025c0.029,0.006,0.058,0.01,0.084,0.012   c0.053,0.004,0.099,0.001,0.13-0.009c0.016-0.005,0.027-0.012,0.033-0.019C3.418,4.9,3.418,4.894,3.419,4.895L3.414,4.892   c0,0-0.002,0.003-0.008,0.007C3.4,4.902,3.389,4.905,3.375,4.905c-0.028,0-0.07-0.006-0.119-0.017   C3.232,4.882,3.206,4.875,3.178,4.869C3.15,4.861,3.121,4.853,3.091,4.845c-0.03-0.009-0.061-0.019-0.09-0.032   c-0.028-0.012-0.05-0.027-0.059-0.058C2.932,4.726,2.934,4.69,2.94,4.658c0.007-0.033,0.019-0.063,0.031-0.094l0.004-0.012   L2.98,4.539c0.001-0.005,0.001-0.007,0.003-0.013l0.002-0.009l0.003-0.009l0.004-0.009C2.995,4.492,2.998,4.485,3,4.479   c0.012-0.026,0.022-0.05,0.034-0.073c0.012-0.021,0.021-0.042,0.032-0.061C3.075,4.327,3.084,4.313,3.091,4.3   c0.007-0.013,0.015-0.022,0.02-0.03c0.004-0.007,0.007-0.01,0.007-0.01L3.114,4.257c0,0-0.003,0.002-0.011,0.006   c-0.006,0.005-0.017,0.01-0.028,0.021S3.048,4.309,3.036,4.325C3.033,4.328,3.031,4.331,3.029,4.334   C3.025,4.33,3.023,4.324,3.02,4.317C3.011,4.296,3.013,4.264,3.026,4.224C3.032,4.204,3.042,4.183,3.05,4.16   s0.016-0.049,0.026-0.075c0.009-0.026,0.021-0.053,0.036-0.078c0.015-0.025,0.033-0.05,0.051-0.074l0.013-0.019l0.006-0.01   l0.003-0.005l0.001-0.003l0-0.001l0,0l0,0c0-0.002-0.001,0.001-0.001,0.001C3.19,3.892,3.192,3.887,3.194,3.886   c0.002-0.001,0.002-0.002,0.005-0.004c0.003-0.003,0.009-0.007,0.014-0.01c0.021-0.013,0.047-0.022,0.073-0.03   C3.312,3.834,3.337,3.827,3.361,3.82c0.024-0.006,0.047-0.013,0.068-0.019C3.472,3.79,3.508,3.78,3.533,3.772   s0.04-0.013,0.04-0.013l0-0.006c0,0-0.058-0.007-0.145,0c0.004-0.002,0.009-0.005,0.015-0.008c0.007-0.005,0.016-0.01,0.026-0.016   c0.009-0.006,0.02-0.013,0.031-0.021C3.51,3.7,3.523,3.692,3.534,3.681c0.012-0.01,0.022-0.024,0.034-0.038   C3.58,3.63,3.593,3.617,3.609,3.607c0.015-0.01,0.033-0.018,0.05-0.024c0.018-0.006,0.036-0.012,0.052-0.019   C3.728,3.557,3.745,3.55,3.76,3.545c0.031-0.01,0.06-0.021,0.08-0.022c0.01-0.001,0.018,0,0.024,0.003   c0.006,0.004,0.012,0.01,0.015,0.017c0.007,0.013,0.01,0.023,0.01,0.023l0.005,0c0,0,0.001-0.002,0.002-0.007   c0.001-0.004,0.003-0.011,0.003-0.021C3.901,3.529,3.899,3.516,3.891,3.502z"></path></g></svg>