<svg xmlns="http://www.w3.org/2000/svg" xmlns:xlink="http://www.w3.org/1999/xlink" version="1.1" x="0px" y="0px" viewBox="0 0 100 100" enable-background="new 0 0 100 100" xml:space="preserve"><g><path fill="#000000" d="M18.405,7.729c-0.335-0.565-0.148-1.295,0.417-1.631s1.295-0.148,1.631,0.417l5.723,9.655   c0.335,0.565,0.148,1.295-0.417,1.631c-0.19,0.113-0.399,0.166-0.606,0.166c-0.406,0-0.802-0.208-1.025-0.583L18.405,7.729z    M49.473,16.955c0.657,0,1.19-0.533,1.19-1.19v-12.4c0-0.657-0.533-1.19-1.19-1.19s-1.19,0.533-1.19,1.19v12.4   C48.283,16.422,48.816,16.955,49.473,16.955z M73.434,17.801c0.19,0.113,0.399,0.167,0.605,0.167c0.406,0,0.802-0.208,1.025-0.584   l5.722-9.655c0.335-0.565,0.148-1.295-0.417-1.63c-0.563-0.334-1.294-0.148-1.63,0.417l-5.722,9.655   C72.682,16.736,72.869,17.466,73.434,17.801z M97.263,42.755H96.51v-0.753c0-0.497-0.403-0.9-0.9-0.9s-0.9,0.403-0.9,0.9v0.753   h-0.752c-0.497,0-0.9,0.403-0.9,0.9s0.403,0.9,0.9,0.9h0.752v0.753c0,0.497,0.403,0.9,0.9,0.9s0.9-0.403,0.9-0.9v-0.753h0.753   c0.497,0,0.9-0.403,0.9-0.9S97.76,42.755,97.263,42.755z M94.77,63.6c-0.22,0.23-0.35,0.53-0.35,0.85c0,0.31,0.13,0.61,0.35,0.84   c0.22,0.22,0.53,0.35,0.84,0.35s0.62-0.13,0.84-0.35c0.22-0.22,0.35-0.53,0.35-0.84c0-0.32-0.13-0.63-0.35-0.84   C96.01,63.16,95.21,63.16,94.77,63.6z M90.09,52.73c-0.23,0.22-0.36,0.52-0.36,0.84c0,0.31,0.13,0.62,0.35,0.84   c0.23,0.22,0.53,0.35,0.85,0.35c0.31,0,0.62-0.13,0.84-0.35c0.22-0.22,0.35-0.53,0.35-0.84c0-0.32-0.13-0.63-0.35-0.84   C91.33,52.28,90.52,52.28,90.09,52.73z M9.317,52.667H8.564v-0.754c0-0.497-0.403-0.9-0.9-0.9s-0.9,0.403-0.9,0.9v0.754H6.012   c-0.497,0-0.9,0.403-0.9,0.9s0.403,0.9,0.9,0.9h0.752v0.752c0,0.497,0.403,0.9,0.9,0.9s0.9-0.403,0.9-0.9v-0.752h0.753   c0.497,0,0.9-0.403,0.9-0.9S9.814,52.667,9.317,52.667z M1.9,62.65c-0.23,0.22-0.35,0.53-0.35,0.84s0.12,0.62,0.35,0.84   c0.22,0.22,0.52,0.35,0.84,0.35c0.31,0,0.62-0.13,0.84-0.35c0.22-0.22,0.35-0.53,0.35-0.84s-0.13-0.62-0.35-0.84   C3.14,62.21,2.33,62.21,1.9,62.65z M6.47,40.92c0.23-0.22,0.35-0.53,0.35-0.84c0-0.31-0.12-0.62-0.35-0.84   c-0.44-0.45-1.24-0.44-1.68,0c-0.22,0.22-0.35,0.52-0.35,0.84c0,0.31,0.13,0.62,0.35,0.84c0.22,0.22,0.53,0.35,0.84,0.35   C5.95,41.27,6.25,41.14,6.47,40.92z M69.632,79.79h3.941c0.309,0,0.56-0.251,0.56-0.56s-0.251-0.56-0.56-0.56h-3.941   c-0.309,0-0.56,0.251-0.56,0.56S69.323,79.79,69.632,79.79z M70.468,89.294h-7.263c-0.309,0-0.56,0.251-0.56,0.56   s0.251,0.56,0.56,0.56h7.263c0.309,0,0.56-0.251,0.56-0.56S70.777,89.294,70.468,89.294z M34.389,67.794   c0.309,0,0.56-0.251,0.56-0.56s-0.251-0.56-0.56-0.56h-7.252c-0.309,0-0.56,0.251-0.56,0.56s0.251,0.56,0.56,0.56H34.389z    M16.65,87.08c-0.22,0.23-0.34,0.53-0.34,0.85c0,0.31,0.12,0.61,0.35,0.84c0.22,0.22,0.53,0.35,0.84,0.35s0.62-0.13,0.84-0.35   c0.22-0.22,0.35-0.53,0.35-0.84c0-0.32-0.13-0.62-0.35-0.85C17.89,86.64,17.1,86.64,16.65,87.08z M16.65,35.35   c-0.22,0.22-0.34,0.53-0.34,0.84s0.12,0.62,0.35,0.84c0.22,0.22,0.53,0.35,0.84,0.35s0.62-0.13,0.84-0.35   c0.22-0.22,0.35-0.53,0.35-0.84s-0.13-0.62-0.35-0.85C17.9,34.9,17.1,34.9,16.65,35.35z M16.66,77.12   c-0.23,0.23-0.35,0.53-0.35,0.85c0,0.31,0.12,0.62,0.35,0.84c0.22,0.22,0.53,0.35,0.84,0.35s0.62-0.13,0.84-0.35   c0.22-0.23,0.35-0.53,0.35-0.84c0-0.32-0.13-0.62-0.35-0.85C17.9,76.68,17.1,76.68,16.66,77.12z M17.5,69.19   c0.31,0,0.62-0.12,0.84-0.34c0.22-0.23,0.35-0.53,0.35-0.85c0-0.31-0.13-0.62-0.35-0.84c-0.44-0.44-1.24-0.44-1.68,0   c-0.22,0.22-0.35,0.53-0.35,0.84c0,0.32,0.13,0.63,0.35,0.85C16.88,69.07,17.19,69.19,17.5,69.19z M81.13,87.09   c-0.22,0.22-0.35,0.52-0.35,0.84c0,0.31,0.13,0.61,0.35,0.84c0.22,0.22,0.53,0.35,0.84,0.35s0.62-0.13,0.84-0.35   c0.22-0.23,0.35-0.53,0.35-0.84c0-0.32-0.13-0.62-0.35-0.84C82.37,86.64,81.57,86.64,81.13,87.09z M81.97,37.38   c0.31,0,0.62-0.13,0.84-0.35c0.22-0.23,0.35-0.53,0.35-0.84c0-0.32-0.13-0.62-0.35-0.84c-0.44-0.45-1.24-0.45-1.68,0   c-0.22,0.22-0.35,0.52-0.35,0.84c0,0.31,0.13,0.61,0.35,0.84C81.35,37.25,81.66,37.38,81.97,37.38z M81.97,79.16   c0.31,0,0.62-0.13,0.84-0.35c0.22-0.23,0.35-0.53,0.35-0.84c0-0.32-0.13-0.62-0.35-0.85c-0.44-0.44-1.23-0.44-1.68,0   c-0.22,0.23-0.35,0.53-0.35,0.85c0,0.31,0.13,0.61,0.35,0.84C81.35,79.03,81.66,79.16,81.97,79.16z M81.97,69.19   c0.31,0,0.62-0.12,0.84-0.34c0.22-0.23,0.35-0.53,0.35-0.85c0-0.31-0.13-0.61-0.35-0.84c-0.44-0.44-1.23-0.44-1.68,0   c-0.22,0.23-0.35,0.53-0.35,0.84c0,0.32,0.13,0.62,0.35,0.85C81.35,69.07,81.66,69.19,81.97,69.19z M55.237,90.323H40.584   c-0.309,0-0.56,0.251-0.56,0.56s0.251,0.56,0.56,0.56h14.652c0.309,0,0.56-0.251,0.56-0.56S55.546,90.323,55.237,90.323z    M31.071,80.652h-3.395c-0.309,0-0.56,0.251-0.56,0.56s0.251,0.56,0.56,0.56h3.395c0.309,0,0.56-0.251,0.56-0.56   S31.38,80.652,31.071,80.652z M54.081,81.212c0-0.309-0.251-0.56-0.56-0.56H33.75c-0.309,0-0.56,0.251-0.56,0.56   s0.251,0.56,0.56,0.56h19.771C53.83,81.772,54.081,81.521,54.081,81.212z M71.604,38.119h-8.002c-0.309,0-0.56,0.251-0.56,0.56   s0.251,0.56,0.56,0.56h8.002c0.309,0,0.56-0.251,0.56-0.56S71.913,38.119,71.604,38.119z M47.804,33.746h2.056   c0.309,0,0.56-0.251,0.56-0.56s-0.251-0.56-0.56-0.56h-2.056c-0.309,0-0.56,0.251-0.56,0.56S47.495,33.746,47.804,33.746z    M53.203,33.746h20.799c0.309,0,0.56-0.251,0.56-0.56s-0.251-0.56-0.56-0.56H53.203c-0.309,0-0.56,0.251-0.56,0.56   S52.894,33.746,53.203,33.746z M37.24,67.79c0.15,0,0.29-0.05,0.4-0.16c0.1-0.1,0.16-0.25,0.16-0.39c0-0.16-0.06-0.3-0.16-0.4   c-0.21-0.21-0.59-0.21-0.79,0c-0.11,0.1-0.17,0.25-0.17,0.4s0.06,0.29,0.17,0.39C36.95,67.74,37.09,67.79,37.24,67.79z    M48.59,85.34c-0.11,0.11-0.17,0.25-0.17,0.4s0.06,0.29,0.16,0.39c0.11,0.11,0.25,0.17,0.4,0.17c0.15,0,0.29-0.06,0.4-0.16   c0.1-0.11,0.16-0.25,0.16-0.4s-0.06-0.29-0.16-0.39C49.17,85.14,48.79,85.14,48.59,85.34z M51.048,85.741   c0,0.309,0.251,0.56,0.56,0.56h21.966c0.309,0,0.56-0.251,0.56-0.56s-0.251-0.56-0.56-0.56H51.608   C51.299,85.181,51.048,85.432,51.048,85.741z M41.55,30.5c0.11-0.11,0.17-0.25,0.17-0.4c0-0.15-0.07-0.29-0.17-0.39   c-0.2-0.21-0.58-0.22-0.79,0c-0.11,0.1-0.17,0.25-0.17,0.39c0,0.15,0.06,0.29,0.17,0.4c0.1,0.1,0.24,0.16,0.4,0.16   C41.31,30.66,41.45,30.6,41.55,30.5z M38.528,29.541H25.675c-0.309,0-0.56,0.251-0.56,0.56s0.251,0.56,0.56,0.56h12.853   c0.309,0,0.56-0.251,0.56-0.56S38.837,29.541,38.528,29.541z M87.573,32.95v12.749c0,0.46-0.284,0.853-0.686,1.016l-7.702,6.269   l7.712,6.469c0.396,0.167,0.676,0.558,0.676,1.015v36.167c0,0.607-0.493,1.1-1.1,1.1H13.204c-0.607,0-1.1-0.493-1.1-1.1V60.468   c0-0.457,0.279-0.848,0.676-1.015l7.712-6.469l-7.703-6.269c-0.401-0.164-0.686-0.556-0.686-1.016V32.95   c0-5.907,8.626-8.17,8.993-8.263c0.089-0.022,0.18-0.034,0.271-0.034h56.73c0.089,0,0.178,0.011,0.265,0.032   C78.74,24.779,87.573,27.038,87.573,32.95z M77.424,61.568H58.129v8.464c-0.002,0.094-0.261,7.502-8.41,7.502   c-8.15,0-8.41-7.408-8.412-7.482v-8.484H22.043v25.227h4.981c0.309,0,0.56,0.251,0.56,0.56s-0.251,0.56-0.56,0.56h-4.981v7.62   h55.381V70.707H67.233c-0.309,0-0.56-0.251-0.56-0.56s0.251-0.56,0.56-0.56h10.191V61.568z M43.057,70.032   c0.007,0.213,0.244,5.752,6.662,5.752c6.458,0,6.655-5.536,6.66-5.771v-8.445H43.057V70.032z M83.528,59.368l-6.581-5.521H22.73   l-6.582,5.521H83.528z M83.458,46.799H52.62v2.412c0,0.309-0.251,0.56-0.56,0.56h-4.683c-0.309,0-0.56-0.251-0.56-0.56v-2.412   H16.219l6.509,5.298h54.221L83.458,46.799z M56.379,40.679H43.057v3.919h13.322V40.679z M47.938,48.65H51.5v-1.852h-3.562V48.65z    M14.304,44.599h27.003v-4.794c0-0.483,0.392-0.875,0.875-0.875h15.072c0.483,0,0.875,0.392,0.875,0.875v4.794h27.244V32.95   c0-3.043-4.151-5.045-6.599-5.852v15.74c0,0.373-0.302,0.675-0.675,0.675s-0.675-0.302-0.675-0.675V26.853H22.043v11.266h10.058   c0.309,0,0.56,0.251,0.56,0.56s-0.251,0.56-0.56,0.56H22.043v3.599c0,0.373-0.302,0.675-0.675,0.675s-0.675-0.302-0.675-0.675   V27.115c-1.978,0.679-6.39,2.558-6.39,5.835V44.599z M14.304,95.535h6.39V61.568h-6.39V95.535z M85.373,61.568h-6.599v33.967h6.599   V61.568z M46.981,66.632c0-1.51,1.228-2.738,2.738-2.738c1.509,0,2.737,1.228,2.737,2.738c0,0.966-0.501,1.841-1.308,2.333   l0.292,2.526c0.019,0.158-0.032,0.317-0.138,0.437c-0.106,0.119-0.258,0.188-0.418,0.188h-2.532c-0.167,0-0.324-0.074-0.431-0.202   s-0.15-0.296-0.12-0.46l0.464-2.502C47.473,68.455,46.981,67.587,46.981,66.632z M48.102,66.632c0,0.656,0.394,1.243,1.003,1.495   c0.245,0.101,0.385,0.359,0.337,0.62l-0.417,2.248h1.23l-0.264-2.288c-0.029-0.249,0.111-0.487,0.343-0.582   c0.608-0.25,1.001-0.836,1.001-1.493c0-0.892-0.725-1.618-1.617-1.618C48.827,65.014,48.102,65.74,48.102,66.632z"></path></g></svg>