<svg fill="#db5625" xmlns="http://www.w3.org/2000/svg" xmlns:xlink="http://www.w3.org/1999/xlink" version="1.1" x="0px" y="0px" viewBox="0 0 100 100" style="enable-background:new 0 0 100 100;" xml:space="preserve"><path d="M67.5,10.6l7.9,5.6c0,0,1.8-1.1-2.7-4.3S67.5,10.6,67.5,10.6z"></path><path d="M95,29.7c0,0-3.3-1-28.2-18.8c-0.3-0.2-0.8-0.2-1,0.2l-9.7,13.6c-0.3,0.4-0.2,0.9,0.2,1.2c3.2,2.2,16.4,11.8,21.5,23.1  C77.8,48.9,94.9,43.3,95,29.7z M78.8,47c0,0-0.4-1-2.3-3.7c0,0,9.5-2.8,13.6-14.6l3.6,2C93.7,30.8,93.6,40.6,78.8,47z"></path><path d="M55.7,26.6c0.2-0.2,0.4-0.2,0.6-0.1c1.5,1.1,7.4,5.6,7.3,5.8c0.5,1.2-22.9,27.7-34.5,36.4c-3.4,2.6-9.2,10-10.5,13.3  c-0.6,1.5-2,3.8-1.1,6.6c0.6,1.8-3.1,2.1-5.7,2.1c-1.8,0-3.5-0.7-4.8-1.8c-1.3-1.2-2.6-2.8-1.8-4.2c0,0,6.7-13.3,16.7-20.2  c6.7-4.6,23.2-18.8,28.4-27.6C55.2,28.7,54.3,28.2,55.7,26.6z"></path></svg>
