<svg fill="#924607" xmlns:dc="http://purl.org/dc/elements/1.1/" xmlns:cc="http://creativecommons.org/ns#" xmlns:rdf="http://www.w3.org/1999/02/22-rdf-syntax-ns#" xmlns:svg="http://www.w3.org/2000/svg" xmlns="http://www.w3.org/2000/svg" xmlns:xlink="http://www.w3.org/1999/xlink" xmlns:sodipodi="http://sodipodi.sourceforge.net/DTD/sodipodi-0.dtd" xmlns:inkscape="http://www.inkscape.org/namespaces/inkscape" viewBox="0 0 500 500" version="1.1" x="0px" y="0px"><g style="opacity:1"><path style="opacity:1;fill:#924607;fill-opacity:1;fill-rule:evenodd;stroke:none;stroke-width:1.5;stroke-linecap:round;stroke-linejoin:round;stroke-miterlimit:4;stroke-dasharray:none;stroke-dashoffset:0;stroke-opacity:1" d="m 204.56473,214.93799 c 17.63879,-21.20685 53.89232,-12.41481 61.17539,1.14347 11.73425,21.8446 36.59091,226.40619 36.59091,226.40619 -12.76107,6.87587 -107.68022,10.56123 -109.77269,5.71732 0,0 -5.6324,-212.06013 12.00639,-233.26698 z"></path><path style="color:#000000;font-style:normal;font-variant:normal;font-weight:normal;font-stretch:normal;font-size:medium;line-height:normal;font-family:sans-serif;text-indent:0;text-align:start;text-decoration:none;text-decoration-line:none;text-decoration-style:solid;text-decoration-color:#000000;letter-spacing:normal;word-spacing:normal;text-transform:none;direction:ltr;block-progression:tb;writing-mode:lr-tb;baseline-shift:baseline;text-anchor:start;white-space:normal;clip-rule:nonzero;display:inline;overflow:visible;visibility:visible;opacity:1;isolation:auto;mix-blend-mode:normal;color-interpolation:sRGB;color-interpolation-filters:linearRGB;solid-color:#000000;solid-opacity:1;fill:#924607;fill-opacity:1;fill-rule:evenodd;stroke:none;stroke-width:20;stroke-linecap:round;stroke-linejoin:miter;stroke-miterlimit:4;stroke-dasharray:none;stroke-dashoffset:0;stroke-opacity:1;color-rendering:auto;image-rendering:auto;shape-rendering:auto;text-rendering:auto;enable-background:accumulate" d="m 317.12139,128.10884 c -7.15651,0.3069 -11.70383,8.2889 -8.65647,15.19492 8.04289,18.92219 6.74602,31.99878 0.90123,43.41021 -5.8448,11.41143 -17.46466,21.33553 -31.71306,28.96305 -4.13224,5.11261 4.86584,22.23649 8.98687,19.05875 16.45746,-8.81009 31.58515,-20.79561 40.29718,-37.80506 8.71204,-17.00944 9.77868,-38.86489 -0.23654,-62.4273 -1.64993,-4.03227 -5.45403,-6.57168 -9.57921,-6.39457 z"></path><path style="" d="M 319.37045,144.56068 300.69127,63.082054" fill="none" stroke="#924607" stroke-width="4.15421009" stroke-linecap="round" stroke-linejoin="miter" stroke-miterlimit="4" stroke-dasharray="none" stroke-opacity="1"></path><path style="" d="m 301.5147,56.116373 -11.299,-36.738416 6.87061,38.0135 c 1.33541,2.448284 4.74452,1.227309 4.42839,-1.275084 z" fill="#924607" fill-rule="evenodd" stroke="none"></path><path d="m 309.57567,61.085878 24.28289,-29.794634 -27.80202,26.819379 c -1.29488,2.469958 1.61335,4.627501 3.51913,2.975255 z" style="" fill="#924607" fill-rule="evenodd" stroke="none"></path><path style="" d="m 292.60692,65.298069 -33.41493,-18.995273 35.61979,14.948651 c 2.10053,1.834436 0.16949,4.89775 -2.20486,4.046622 z" fill="#924607" fill-rule="evenodd" stroke="none"></path><path d="m 294.51009,68.310984 -28.21236,26.10443 31.28066,-22.666105 c 1.62769,-2.264513 -0.95011,-4.807699 -3.0683,-3.438325 z" style="" fill="#924607" fill-rule="evenodd" stroke="none"></path><path style="" d="M 309.99266,64.830558 342.08281,85.98713 307.52586,68.723043 c -1.97505,-1.968907 0.15371,-4.898269 2.4668,-3.892485 z" fill="#924607" fill-rule="evenodd" stroke="none"></path><path d="m 305.43649,54.683956 3.1666,-21.802424 -5.77329,21.375729 c 0.0907,1.595913 2.15611,1.800413 2.60669,0.426695 z" style="" fill="#924607" fill-rule="evenodd" stroke="none"></path><path style="" d="m 313.04087,63.481694 19.89158,-9.470905 -20.98393,7.065962 c -1.27702,0.961432 -0.30036,2.79287 1.09235,2.404943 z" fill="#924607" fill-rule="evenodd" stroke="none"></path><path d="m 294.12166,58.869943 -12.6441,-18.041615 14.7795,16.48694 c 0.63764,1.465804 -1.11456,2.578393 -2.1354,1.554675 z" style="" fill="#924607" fill-rule="evenodd" stroke="none"></path><path style="" d="m 290.32499,66.759691 -21.02093,6.594922 21.76609,-4.060807 c 1.39897,-0.773322 0.68814,-2.723385 -0.74516,-2.534115 z" fill="#924607" fill-rule="evenodd" stroke="none"></path><path d="m 308.69909,71.587756 11.42733,18.835836 -13.66059,-17.425303 c -0.53962,-1.504646 1.2821,-2.499318 2.23326,-1.410533 z" style="" fill="#924607" fill-rule="evenodd" stroke="none"></path><path style="" d="m 299.32503,76.254242 -6.08407,21.174433 3.53265,-21.858022 c 0.73924,-1.417283 2.70593,-0.75387 2.55142,0.683589 z" fill="#924607" fill-rule="evenodd" stroke="none"></path><path style="opacity:1;fill:#924607;fill-opacity:1;fill-rule:evenodd;stroke:none;stroke-width:4.0884757;stroke-linecap:round;stroke-linejoin:round;stroke-miterlimit:4;stroke-dasharray:none;stroke-dashoffset:0;stroke-opacity:1" d="m 256.80379,169.36204 a 25.378738,25.378738 0 0 1 -25.37874,25.37874 25.378738,25.378738 0 0 1 -25.37874,-25.37874 25.378738,25.378738 0 0 1 25.37874,-25.37874 25.378738,25.378738 0 0 1 25.37874,25.37874 z"></path><path style="opacity:1;fill:#924607;fill-opacity:1;fill-rule:evenodd;stroke:none;stroke-width:3.5;stroke-linecap:round;stroke-linejoin:round;stroke-miterlimit:4;stroke-dasharray:none;stroke-dashoffset:0;stroke-opacity:1" d="m 180.95075,97.454087 c -13.60119,-3.79567 -25.25456,4.750963 -26.97455,14.307863 -2.78181,15.45672 4.61746,33.39594 19.55863,27.79983 1.96255,1.44341 5.56371,1.77101 8.1809,0.21418 5.07597,-4.3145 -1.44848,-12.73016 -4.48669,-6.35663 -1.85726,1.10944 -4.53002,-2.84117 -5.30304,1.20004 -6.64867,0.31806 -13.7592,-4.0909 -11.99203,-14.447 1.94304,-11.38678 20.49776,-17.17558 26.35935,17.69701 0.22081,1.31369 0.30364,17.25306 -9.1023,25.43352 -3.45168,3.00197 -12.72398,15.38177 -18.06246,13.55252 -2.84117,-0.97353 -0.56669,5.82192 7.55078,3.44719 24.82256,-7.26173 60.32073,-53.75463 88.73622,-52.3961 1.73193,0.0828 5.9837,8.26628 5.11284,0.80142 -0.87086,-7.46486 -38.49738,-6.15679 -39.266,-8.4991 -9.11396,-27.773994 -18.18899,-16.58099 -40.31165,-22.754743 z"></path><path style="" d="m 225.82132,457.92526 c -2.40419,0.17771 -4.98618,-0.15388 -7.18341,1.05491 -2.08076,0.43966 -1.24381,3.0055 -0.89158,4.43044 0.75111,3.57265 1.84931,7.20125 1.33957,10.88854 -0.86595,2.14737 -3.42331,2.4267 -5.32319,3.1628 -3.43563,1.07959 -7.07858,2.03335 -10.69755,1.62727 -1.92349,-0.7504 -2.2108,-3.68688 -0.64683,-4.94178 1.43216,-1.18918 1.45431,-4.35991 -1.0323,-3.96814 -2.32975,0.36528 -3.31081,2.83093 -4.31977,4.66043 -1.25212,2.60488 0.22555,5.40144 1.0569,7.89281 0.72351,2.07496 3.13247,2.567 5.02035,3.01843 6.89114,1.68047 13.96399,-0.12157 20.6918,-1.7097 2.4309,-0.73159 5.14257,-0.42986 7.41986,-1.64778 1.61307,-1.30558 0.82669,-3.5181 0.68318,-5.26038 -0.74995,-5.81405 -1.77966,-11.59202 -2.92909,-17.33743 -0.1676,-1.93495 -1.60124,-1.97138 -3.18794,-1.87042 z" fill="#924607" fill-opacity="1" fill-rule="evenodd" stroke="none"></path><path style="" d="m 264.90863,453.76369 c 2.62957,-0.45111 5.38773,-1.19825 8.01907,-0.34988 1.78995,1.46562 0.75942,3.95148 0.99515,5.90627 0.062,3.14296 -0.19645,10.46937 1.24104,13.3747 1.72216,1.77027 4.38876,1.35453 6.61109,1.74572 3.31263,0.24045 6.75366,0.35291 9.92179,-0.80946 1.67883,-1.25386 1.18325,-4.20726 -0.68701,-5.02 -1.80306,-0.77399 -1.67061,-4.28989 0.63576,-3.98408 2.10395,0.0588 3.38804,1.97398 4.72791,3.33039 1.55334,1.88259 1.39048,4.48303 1.05171,6.74283 -0.0185,1.91763 -0.99446,3.86755 -2.80782,4.65575 -5.46515,3.19204 -11.96431,3.71028 -18.15912,3.6014 -3.04467,-0.0337 -6.09633,-0.13198 -9.12948,0.1817 -1.53801,0.0715 -3.58757,-0.3132 -4.01279,-2.05663 -0.53954,-1.82738 -0.17975,-3.76899 -0.54167,-5.62678 -0.37493,-5.43394 -0.62861,-14.88305 -0.55228,-20.33123 0.33047,-1.17678 1.75402,-1.05522 2.68665,-1.3607 z" fill="#924607" fill-opacity="1" fill-rule="evenodd" stroke="none"></path></g></svg>