<svg fill="#924607" xmlns:dc="http://purl.org/dc/elements/1.1/" xmlns:cc="http://creativecommons.org/ns#" xmlns:rdf="http://www.w3.org/1999/02/22-rdf-syntax-ns#" xmlns:svg="http://www.w3.org/2000/svg" xmlns="http://www.w3.org/2000/svg" xmlns:sodipodi="http://sodipodi.sourceforge.net/DTD/sodipodi-0.dtd" xmlns:inkscape="http://www.inkscape.org/namespaces/inkscape" viewBox="0 0 64.000001 64.000001" version="1.1" x="0px" y="0px"><g transform="translate(0,-988.36216)"><g transform="translate(-38.50036,-185.00004)"><path style="color:#000000;font-style:normal;font-variant:normal;font-weight:normal;font-stretch:normal;font-size:medium;line-height:normal;font-family:sans-serif;text-indent:0;text-align:start;text-decoration:none;text-decoration-line:none;text-decoration-style:solid;text-decoration-color:#000000;letter-spacing:normal;word-spacing:normal;text-transform:none;direction:ltr;block-progression:tb;writing-mode:lr-tb;baseline-shift:baseline;text-anchor:start;white-space:normal;clip-rule:nonzero;display:inline;overflow:visible;visibility:visible;opacity:1;isolation:auto;mix-blend-mode:normal;color-interpolation:sRGB;color-interpolation-filters:linearRGB;solid-color:#000000;solid-opacity:1;fill:#924607;fill-opacity:1;fill-rule:evenodd;stroke:none;stroke-width:1.00000012px;stroke-linecap:round;stroke-linejoin:round;stroke-miterlimit:4;stroke-dasharray:none;stroke-dashoffset:0;stroke-opacity:1;color-rendering:auto;image-rendering:auto;shape-rendering:auto;text-rendering:auto;enable-background:accumulate" d="m 61.733532,1173.3615 a 0.50004994,0.50004994 0 0 0 -0.458984,0.3672 0.50004994,0.50004994 0 0 0 0.05664,0.4766 c 1.972164,2.8371 1.626087,6.6574 -0.826171,9.0976 a 0.50005006,0.50005006 0 0 0 -0.265626,0.4473 l 0,7.9297 a 0.50005006,0.50005006 0 0 0 0.248047,0.4316 l 8.029297,4.6641 0,1.3496 -4.173828,-0.6914 c -0.118894,-0.035 -0.241616,-0.056 -0.371094,-0.061 a 0.50005006,0.50005006 0 0 0 -0.07031,-0.01 l 0,0 a 0.50005006,0.50005006 0 0 0 -0.09961,0.012 c -0.779438,0.061 -1.364228,0.7056 -1.748046,1.5234 -0.403212,0.8591 -0.632816,1.9834 -0.632813,3.2227 -3e-6,1.2392 0.229601,2.3654 0.632813,3.2246 0.38092,0.8116 0.95987,1.4523 1.730468,1.5215 a 0.50005006,0.50005006 0 0 0 0.216797,0.01 l 0.04102,-0.01 c 0.08993,-0.01 0.17705,-0.022 0.261719,-0.045 l 2.857422,-0.4726 c -0.247717,0.1858 -0.475599,0.3714 -0.660157,0.5605 -0.192818,0.1975 -0.369498,0.378 -0.423828,0.7109 -0.08656,0.5304 0.132934,0.9619 0.300781,1.2266 0.167848,0.2647 0.256517,0.391 0.263672,0.5762 0.0072,0.1855 -0.113249,0.7647 -0.253906,1.2285 -0.118269,0.3899 -0.204717,0.6151 -0.240234,0.7109 -0.778947,0.049 -1.408204,0.6965 -1.408204,1.4864 0,0.8215 0.67872,1.496 1.5,1.496 0.821281,0 1.499927,-0.6745 1.5,-1.496 -4.4e-5,-0.497 -0.250626,-0.9383 -0.628906,-1.211 0.04902,-0.1333 0.118417,-0.3129 0.234375,-0.6953 0.151488,-0.4995 0.316315,-1.0552 0.296875,-1.5586 -0.01945,-0.5035 -0.277819,-0.8482 -0.419922,-1.0723 -0.13535,-0.2134 -0.184008,-0.2984 -0.15625,-0.5058 0,0 -0.002,0 -0.002,0 -0.0035,0 -0.0035,-0.01 0,-0.027 -0.0018,0.011 0.0033,0.015 0.002,0.025 0.01174,-0.01 0.05533,-0.1 0.152344,-0.1992 0.132364,-0.1356 0.334806,-0.3053 0.570313,-0.4805 0.221772,-0.165 0.474267,-0.3355 0.728515,-0.5 l 0,30.2305 a 0.50005006,0.50005006 0 0 0 0.5,0.5 l 2.367188,0 a 0.50005006,0.50005006 0 0 0 0.5,-0.5 l 0,-30.4317 c 0.06413,0.045 0.112995,0.073 0.177734,0.1192 0.371231,0.2646 0.74302,0.5523 1.013672,0.8027 0.270652,0.2503 0.399869,0.5261 0.384766,0.4336 0.03786,0.232 -0.0161,0.3071 -0.158204,0.5312 -0.142099,0.2241 -0.398516,0.5688 -0.417968,1.0723 -0.01944,0.5034 0.145387,1.0591 0.296875,1.5586 0.111052,0.3662 0.170792,0.5227 0.222656,0.666 -0.399337,0.2699 -0.664063,0.727 -0.664063,1.2403 0,0.8215 0.67872,1.496 1.5,1.496 0.821281,0 1.499927,-0.6745 1.5,-1.496 -6.9e-5,-0.7739 -0.604333,-1.4108 -1.361328,-1.4825 -0.03432,-0.094 -0.121299,-0.3227 -0.240234,-0.7148 -0.140657,-0.4638 -0.26302,-1.043 -0.255859,-1.2285 0.0072,-0.1852 0.09778,-0.3115 0.265625,-0.5762 0.167847,-0.2647 0.387339,-0.6962 0.300781,-1.2266 -0.07731,-0.4737 -0.368925,-0.7077 -0.693359,-1.0078 -0.124794,-0.1154 -0.266269,-0.2327 -0.408204,-0.3476 l 3.03711,0.6054 a 0.50086251,0.50086251 0 0 0 0.203125,0 c 0.785351,-0.055 1.374016,-0.7015 1.759765,-1.5234 0.403211,-0.8592 0.632816,-1.9854 0.632813,-3.2246 3e-6,-1.2393 -0.229602,-2.3636 -0.632813,-3.2227 -0.382858,-0.8157 -0.965683,-1.4598 -1.742187,-1.5234 a 0.50005006,0.50005006 0 0 0 -0.150391,-0.012 0.50005006,0.50005006 0 0 0 -0.138672,0.025 l -4.43164,0.8808 0,-1.498 8.027344,-4.6641 a 0.50005006,0.50005006 0 0 0 0.25,-0.4316 l 0,-7.9297 a 0.50005006,0.50005006 0 0 0 -0.265626,-0.4492 c 0,0 -0.002,0 -0.002,0 -2.450476,-2.4403 -2.797807,-6.2593 -0.826171,-9.0957 a 0.50004994,0.50004994 0 0 0 0.0625,-0.459 0.50004994,0.50004994 0 0 0 -0.002,-0.01 0.50004994,0.50004994 0 0 0 -0.46289,-0.377 0.50004994,0.50004994 0 0 0 -0.285156,0.074 c -2.151714,1.2939 -3.587835,3.5015 -3.890626,5.9844 -0.297683,2.4411 0.537218,4.8795 2.25586,6.6406 l 0,3.7559 -4.861328,2.7031 0,-2.7129 1.078125,-1.0508 a 0.50005006,0.50005006 0 0 0 0.0039,-0.7148 l -0.849609,-0.8437 0.849609,-0.8438 a 0.50005006,0.50005006 0 0 0 0.113281,-0.5391 l -2.390625,-5.9961 a 0.50005006,0.50005006 0 0 0 -0.46875,-0.3144 0.50005006,0.50005006 0 0 0 -0.458984,0.3144 l -2.390625,5.9961 a 0.50005006,0.50005006 0 0 0 0.113281,0.5391 l 0.849609,0.8438 -0.849609,0.8437 a 0.50005006,0.50005006 0 0 0 -0.0039,0.707 l 1.037109,1.0528 0,2.7187 -4.863281,-2.7031 0,-3.7559 c 1.718558,-1.7611 2.553536,-4.1995 2.255859,-6.6406 -0.302789,-2.4829 -1.736958,-4.6905 -3.888672,-5.9844 a 0.50004994,0.50004994 0 0 0 -0.287109,-0.074 z m 15.480469,2.3438 c -0.944785,2.8438 -0.256065,6.0602 1.947266,8.2754 l 0,7.4121 -8.021485,4.6582 a 0.5001752,0.5001752 0 0 0 -0.238281,0.33 0.50005006,0.50005006 0 0 0 -0.002,0.01 0.5001752,0.5001752 0 0 0 -0.0039,0.023 0.50005006,0.50005006 0 0 0 -0.01172,0.1094 l 0,1.9531 -0.101563,0.02 a 0.50005006,0.50005006 0 0 0 -0.01953,0 0.50005006,0.50005006 0 0 0 -0.01953,0 l -1.226563,-0.2032 0,-1.7773 a 0.50005006,0.50005006 0 0 0 -0.0293,-0.1777 0.5001752,0.5001752 0 0 0 -0.226562,-0.2832 l -8.021485,-4.6602 0,-7.4141 c 2.2005,-2.2146 2.890188,-5.4274 1.947266,-8.2695 0.938688,1.0669 1.554956,2.3948 1.730469,3.834 0.265447,2.1767 -0.489255,4.3528 -2.050781,5.9043 a 0.50004994,0.50004994 0 0 0 -0.101563,0.125 0.50005006,0.50005006 0 0 0 -0.111328,0.3223 l 0,4.2187 a 0.50005006,0.50005006 0 0 0 0.257813,0.4375 l 5.849609,3.25 a 0.50005006,0.50005006 0 0 0 0.755859,-0.4824 l 0,-3.7207 a 0.50005006,0.50005006 0 0 0 -0.142578,-0.3516 l -0.833984,-0.8437 0.855468,-0.8477 a 0.50005006,0.50005006 0 0 0 0,-0.709 l -0.974609,-0.9668 1.802735,-4.5234 1.802734,4.5234 -0.972656,0.9668 a 0.50005006,0.50005006 0 0 0 0,0.709 l 0.847656,0.8418 -0.867188,0.8438 a 0.50005006,0.50005006 0 0 0 -0.15039,0.3574 l 0,3.7051 a 0.50005006,0.50005006 0 0 0 0.01367,0.1191 0.50053469,0.50053469 0 0 0 0.740234,0.3809 l 5.851562,-3.252 a 0.50005006,0.50005006 0 0 0 0.25586,-0.4375 l 0,-4.2187 a 0.50005006,0.50005006 0 0 0 -0.119141,-0.3301 0.50004994,0.50004994 0 0 1 -0.002,0 0.50004994,0.50004994 0 0 0 -0.08984,-0.1152 c -1.561526,-1.5515 -2.318181,-3.7276 -2.052734,-5.9043 0.17561,-1.44 0.792268,-2.7688 1.732422,-3.8359 z m -13.314453,22.666 0.11914,0.019 c 0.254661,0.058 0.577936,0.3337 0.861329,0.9375 0.320092,0.682 0.537112,1.6844 0.537109,2.7969 3e-6,1.1124 -0.217017,2.1168 -0.537109,2.7988 -0.295509,0.6296 -0.635737,0.9031 -0.894532,0.9434 l -0.08008,0.014 c -0.263281,-0.01 -0.632259,-0.2858 -0.947266,-0.957 -0.320092,-0.682 -0.537112,-1.6864 -0.537109,-2.7988 -3e-6,-1.1125 0.217017,-2.1149 0.537109,-2.7969 0.312956,-0.6668 0.678466,-0.9448 0.941407,-0.957 z m 12.607422,0 c 0.262431,0.016 0.622847,0.293 0.933593,0.9551 0.07068,0.1506 0.133808,0.3224 0.19336,0.502 l -4.777344,-0.7305 3.650391,-0.7266 z m -10.859375,0.2871 2.93164,0.4864 a 0.50005006,0.50005006 0 0 0 0.03125,0.049 l -2.529297,0.502 c -0.0851,-0.2827 -0.182615,-0.5515 -0.296875,-0.795 -0.04036,-0.086 -0.09197,-0.1603 -0.136718,-0.2422 z m 5.623046,1.209 4.275391,0.6543 -4.275391,0.9903 0,-1.6446 z m -1,0.016 0,1.5605 -2.71875,-1.0215 2.71875,-0.539 z m -6.351562,0.8886 c -0.240929,0 -0.414671,0.1452 -0.503906,0.2578 -0.08924,0.1126 -0.133862,0.2206 -0.171875,0.334 -0.07603,0.2268 -0.109374,0.4793 -0.109375,0.7598 10e-7,0.2804 0.03335,0.5349 0.109375,0.7617 0.03801,0.1134 0.08264,0.2214 0.171875,0.334 0.08924,0.1125 0.262977,0.2558 0.503906,0.2558 0.240929,0 0.412719,-0.1433 0.501953,-0.2558 0.08923,-0.1126 0.135815,-0.2206 0.173828,-0.334 0.07603,-0.2268 0.109374,-0.4813 0.109375,-0.7617 -10e-7,-0.2805 -0.03335,-0.533 -0.109375,-0.7598 -0.03801,-0.1134 -0.08459,-0.2214 -0.173828,-0.334 -0.08923,-0.1126 -0.261024,-0.2578 -0.501953,-0.2578 z m 13.974609,0.2324 c 0.04937,0.356 0.08594,0.7266 0.08594,1.1192 10e-7,0.3896 -0.03532,0.7574 -0.08398,1.1113 l -4.675781,-1.1504 4.673828,-1.0801 z m -11.544921,0.033 2.630859,0.9883 -2.585938,0.5899 c 0.0084,-0.1641 0.02344,-0.3236 0.02344,-0.4922 10e-7,-0.3755 -0.02777,-0.7358 -0.06836,-1.086 z m 4.921874,1.5997 4.13086,1.0136 -4.13086,0.3867 0,-1.4003 z m -1,0.1211 0,1.0605 -2.240234,-0.5508 2.240234,-0.5097 z m -4.017578,1.1035 3.958985,0.9726 -4.566407,0.7578 c 0.04535,-0.083 0.09782,-0.1571 0.138672,-0.2441 0.203455,-0.4335 0.360893,-0.9366 0.46875,-1.4863 z m 11.369141,0.5859 c -0.05677,0.1678 -0.115065,0.3328 -0.181641,0.4746 -0.312123,0.665 -0.674799,0.9415 -0.9375,0.9551 l -4.535156,-0.9024 5.654297,-0.5273 z m -6.859375,1.3086 0.136719,0.027 a 0.50005006,0.50005006 0 0 0 -0.01563,0.1329 l 0,30.4453 -1.367188,0 0,-30.3985 1.246094,-0.207 z m -4.523438,6.6016 c 0.282958,0 0.499976,0.2177 0.5,0.4961 -2.4e-5,0.2792 -0.21674,0.496 -0.5,0.496 -0.283259,0 -0.5,-0.2169 -0.5,-0.496 0,-0.2783 0.217044,-0.4961 0.5,-0.4961 z m 8,0 c 0.282958,0 0.499976,0.2177 0.5,0.4961 -2.4e-5,0.2792 -0.21674,0.496 -0.5,0.496 -0.283259,0 -0.5,-0.2169 -0.5,-0.496 0,-0.2783 0.217044,-0.4961 0.5,-0.4961 z"></path></g></g></svg>