<svg fill="#000000" xmlns="http://www.w3.org/2000/svg" xmlns:xlink="http://www.w3.org/1999/xlink" version="1.1" x="0px" y="0px" viewBox="0 0 100 100" style="enable-background:new 0 0 100 100;" xml:space="preserve"><style type="text/css">
	.st0{fill:none;stroke:#000000;stroke-width:2;stroke-linecap:round;stroke-linejoin:round;stroke-miterlimit:10;}
</style><path d="M84.4,74.2C84.4,74.2,84.4,74.2,84.4,74.2l-3.9-16.6c0,0,0-0.1,0-0.1c0,0,0-0.1,0-0.1c0-0.1-0.1-0.2-0.2-0.3c0,0,0,0,0,0  c0,0,0,0,0,0c-0.1-0.1-0.2-0.1-0.3-0.2c0,0-0.1,0-0.1,0c0,0-0.1,0-0.1,0L63.3,53c0,0,0,0,0,0c0,0,0,0-0.1,0c-0.1,0-0.2,0-0.3,0  c0,0,0,0,0,0c0,0,0,0,0,0c-0.1,0-0.2,0.1-0.3,0.1c0,0,0,0-0.1,0c0,0-0.1,0-0.1,0.1L49.9,65.7c0,0-0.1,0.1-0.1,0.1c0,0,0,0,0,0.1  c-0.1,0.1-0.1,0.2-0.1,0.3c0,0,0,0,0,0c0,0,0,0,0,0c0,0.1,0,0.2,0,0.3c0,0,0,0,0,0.1c0,0,0,0,0,0l3.9,16.5c0,0,0,0.1,0,0.1  c0,0,0,0.1,0,0.1c0,0.1,0.1,0.2,0.2,0.3c0,0,0,0,0,0c0,0,0,0,0,0c0.1,0.1,0.2,0.1,0.3,0.2c0,0,0.1,0,0.1,0c0,0,0.1,0,0.1,0l16.5,3.9  c0.1,0,0.1,0,0.2,0c0,0,0,0,0,0c0,0,0,0,0,0s0,0,0,0c0,0,0,0,0,0c0.1,0,0.1,0,0.2,0c0,0,0.1,0,0.1,0c0.1,0,0.1,0,0.2-0.1  c0.1,0,0.1-0.1,0.2-0.1c0,0,0.1,0,0.1,0l12.4-12.4c0,0,0.1-0.1,0.1-0.1c0,0,0,0,0,0c0.1-0.1,0.1-0.2,0.1-0.3c0,0,0,0,0,0  c0,0,0,0,0,0C84.5,74.4,84.5,74.3,84.4,74.2C84.4,74.2,84.4,74.2,84.4,74.2z M71.6,84.8l-1.1-5.3l5.6-5.6l5.3,1.1L71.6,84.8z   M52,67.7l5.5,1.2l2,7.6l-4.5,4.5L52,67.7z M62.5,56l1.1,5.4L58,66.9l-5.3-1.1L62.5,56z M69.1,78l-7.6-2l-2-7.6l5.6-5.6l7.6,2l2,7.6  L69.1,78z M73.1,62.9l-7.6-2l-1.2-5.5l13.2,3.1L73.1,62.9z M61,77.9l7.6,2l1.2,5.5l-13.2-3.1L61,77.9z M76.6,71.9l-2-7.6l4.5-4.5  l3.1,13.2L76.6,71.9z"></path><path d="M70.5,65.8l-4.3-1c-0.3-0.1-0.7,0-0.9,0.3L62.4,68c-0.4,0.4-0.4,1,0,1.4c0.2,0.2,0.5,0.3,0.7,0.3s0.5-0.1,0.7-0.3l2.5-2.5  l3.7,0.8c0.5,0.1,1.1-0.2,1.2-0.8C71.3,66.5,71,66,70.5,65.8z"></path><path d="M88.1,29.8c0-0.1,0-0.2-0.1-0.3c0,0,0,0,0,0c0,0,0,0,0,0c0-0.1-0.1-0.2-0.2-0.3c0,0,0,0,0,0c0,0,0,0,0,0l-10.4-9.2  c0,0-0.1,0-0.1-0.1c0,0-0.1,0-0.1-0.1c-0.1-0.1-0.2-0.1-0.3-0.1c0,0,0,0,0,0c0,0,0,0,0,0c-0.1,0-0.2,0-0.3,0c0,0-0.1,0-0.1,0  c0,0-0.1,0-0.1,0L63.5,25c0,0,0,0,0,0c0,0,0,0-0.1,0c-0.1,0-0.2,0.1-0.3,0.2c0,0,0,0,0,0c0,0,0,0,0,0c-0.1,0.1-0.1,0.2-0.2,0.3  c0,0,0,0,0,0.1c0,0,0,0.1,0,0.1l-2.4,14.1c0,0,0,0.1,0,0.1c0,0,0,0.1,0,0.1c0,0.1,0,0.2,0.1,0.3c0,0,0,0,0,0c0,0,0,0,0,0.1  c0,0.1,0.1,0.1,0.1,0.2c0,0,0,0.1,0.1,0.1c0,0,0,0,0.1,0.1l10.4,9.2c0,0,0,0,0.1,0c0,0,0.1,0.1,0.1,0.1c0.1,0,0.1,0.1,0.2,0.1  c0,0,0.1,0,0.1,0c0.1,0,0.1,0,0.2,0c0,0,0,0,0,0c0,0,0,0,0,0c0,0,0,0,0,0c0.1,0,0.2,0,0.4-0.1c0,0,0,0,0,0l12.8-5.3c0,0,0,0,0,0  c0,0,0,0,0,0c0.1-0.1,0.2-0.1,0.3-0.2c0,0,0,0,0,0c0,0,0,0,0,0c0.1-0.1,0.1-0.2,0.2-0.3c0,0,0,0,0-0.1c0,0,0-0.1,0-0.1L88.1,30  C88.1,29.9,88.1,29.9,88.1,29.8C88.1,29.8,88.1,29.8,88.1,29.8z M84,42l-3-2.7l1-6.2l3.7-1.6L84,42z M64.5,27.9l3,2.7l-1,6.2  l-3.7,1.6L64.5,27.9z M73.2,41.1l-4.8-4l1-6.1l5.8-2.2l4.8,4l-1,6.1L73.2,41.1z M81.4,31.2l-4.8-3.9l0.8-4.7l7.9,6.9L81.4,31.2z   M74.6,26.9l-5.8,2.2l-3.1-2.8l9.7-4L74.6,26.9z M67.2,38.7l4.8,3.9l-0.8,4.7l-7.9-6.9L67.2,38.7z M73.9,42.9l5.8-2.2l3.1,2.8  l-9.7,4L73.9,42.9z"></path><path d="M74.7,30.9l-3.3,1.4c-0.3,0.1-0.5,0.4-0.6,0.8l-0.5,3.2c-0.1,0.5,0.3,1.1,0.8,1.2c0.1,0,0.1,0,0.2,0c0.5,0,0.9-0.3,1-0.8  l0.5-2.7l2.8-1.2c0.5-0.2,0.7-0.8,0.5-1.3S75.2,30.7,74.7,30.9z"></path><path d="M22.7,59.3C22.7,59.3,22.7,59.3,22.7,59.3c0.1,0,0.1,0.1,0.2,0.1c0.1,0,0.1,0.1,0.2,0.1c0,0,0,0,0,0c0.1,0,0.2,0.1,0.3,0.1  h17.4c0,0,0,0,0,0c0,0,0,0,0,0c0,0,0,0,0,0c0.1,0,0.2,0,0.3-0.1c0,0,0,0,0,0c0,0,0.1-0.1,0.1-0.1c0.1,0,0.1-0.1,0.2-0.1l0,0  c0,0,0,0,0,0l12.3-12.3c0,0,0,0,0,0c0.1-0.1,0.1-0.2,0.2-0.3c0,0,0,0,0,0c0-0.1,0-0.1,0-0.2c0-0.1,0-0.1,0-0.2c0,0,0,0,0,0V29  c0-0.1,0-0.1,0-0.2c0-0.1,0-0.1,0-0.2c0,0,0,0,0,0c0-0.1-0.1-0.1-0.1-0.2c0-0.1-0.1-0.1-0.1-0.2c0,0,0,0,0,0L41.4,16  c0,0-0.1-0.1-0.1-0.1c0,0-0.1-0.1-0.1-0.1c0,0,0,0,0,0c-0.1,0-0.1,0-0.2,0c-0.1,0-0.1,0-0.2,0c0,0,0,0,0,0H23.4c0,0,0,0,0,0h0  c-0.1,0-0.1,0-0.2,0c-0.1,0-0.1,0-0.2,0c0,0,0,0,0,0c-0.1,0-0.2,0.1-0.3,0.2l0,0c0,0,0,0,0,0L10.4,28.3c0,0,0,0,0,0  c0,0-0.1,0.1-0.1,0.1c0,0.1-0.1,0.1-0.1,0.2c0,0,0,0,0,0c0,0.1,0,0.1,0,0.2c0,0.1,0,0.1,0,0.2v17.4c0,0,0,0,0,0c0,0.1,0,0.1,0,0.2  c0,0.1,0,0.1,0.1,0.2c0,0,0,0,0,0c0,0.1,0.1,0.2,0.2,0.3c0,0,0,0,0,0L22.7,59.3z M12.1,30.4l8.5,3.2v7.1l-8.5,4V30.4z M23,18.5  l3.4,8.2l-5.1,5.1l-8.4-3.2L23,18.5z M51.2,28.6l-8.9,3.2l-5-5l3.8-8.3L51.2,28.6z M52,44.8l-9-4.1v-7.1l9-3.2V44.8z M41.1,56.9  l-3.9-9.2l5-5l9.1,4.1L41.1,56.9z M12.8,46.7l8.5-4l5,5L23,56.8L12.8,46.7z M28,28h7.6l5.4,5.4V41l-5.4,5.4H28L22.6,41v-7.6L28,28z   M28.2,48.4h7.1l3.9,9.2H24.8L28.2,48.4z M35.4,26h-7.2l-3.4-8.2h14.3L35.4,26z"></path><path d="M25.5,41.1c0.6,0,1-0.4,1-1v-4.9l3-2.8c0.4-0.4,0.4-1,0-1.4c-0.4-0.4-1-0.4-1.4,0l-3.3,3.1c-0.2,0.2-0.3,0.5-0.3,0.7v5.3  C24.5,40.7,24.9,41.1,25.5,41.1z"></path></svg>
