<svg xmlns="http://www.w3.org/2000/svg" xmlns:xlink="http://www.w3.org/1999/xlink" version="1.1" x="0px" y="0px" viewBox="0 0 100 100" enable-background="new 0 0 100 100" xml:space="preserve"><path d="M78.112,25.751c-9.484,1.521-22.334,10.414-26.448,16.788c-0.18-0.941-0.475-1.701-0.842-2.167  c0.822-0.27,1.407-0.928,1.407-1.698c0-0.272-0.078-0.529-0.209-0.761c0.037-0.121,0.061-0.252,0.061-0.395  c0-0.504-0.256-0.915-0.569-0.915c-0.208,0-0.383,0.19-0.482,0.459c-0.254-0.11-0.534-0.179-0.834-0.201  c0.145-0.819,0.691-1.488,1.255-2.175c0.615-0.75,1.242-1.525,1.447-2.559c0.174-0.086,0.305-0.337,0.305-0.646  c0-0.377-0.191-0.685-0.426-0.685s-0.426,0.308-0.426,0.685c0,0.221,0.07,0.41,0.172,0.535c-0.182,0.963-0.784,1.704-1.373,2.422  C50.7,34.987,50.259,35.525,50,36.15c-0.259-0.626-0.7-1.164-1.151-1.713c-0.589-0.718-1.19-1.459-1.373-2.422  c0.102-0.125,0.172-0.314,0.172-0.535c0-0.377-0.191-0.685-0.426-0.685c-0.235,0-0.426,0.308-0.426,0.685  c0,0.308,0.13,0.56,0.305,0.646c0.205,1.034,0.831,1.809,1.447,2.559c0.563,0.687,1.11,1.356,1.255,2.175  c-0.299,0.022-0.58,0.091-0.834,0.201c-0.099-0.269-0.274-0.459-0.482-0.459c-0.313,0-0.569,0.411-0.569,0.915  c0,0.143,0.025,0.274,0.061,0.395c-0.131,0.233-0.209,0.489-0.209,0.761c0,0.769,0.585,1.428,1.407,1.698  c-0.367,0.466-0.662,1.226-0.842,2.167c-4.114-6.374-16.964-15.268-26.448-16.788c-9.429-1.512-21.931,0.458-14.764,8.233  c7.168,7.775,8.11,7.927,9.492,13.789c1.381,5.861,3.897,8.271,10.161,4.79c0.491-0.273,1.011-0.502,1.552-0.698  c-1,0.809-1.887,1.629-2.592,2.428c-4.544,5.146-6.453,12.031-2.078,16.56c5.532,5.726,13.925,8.163,23.337-15.203  c0.097,0.659,0.222,1.285,0.382,1.849c0.497,1.749,1.372,2.158,1.372,3.713c0,1.785,0.56,3.233,1.251,3.233s1.251-1.447,1.251-3.233  c0-1.558,0.845-1.906,1.348-3.63c0.171-0.586,0.305-1.239,0.407-1.93c9.411,23.364,17.804,20.928,23.336,15.202  c4.375-4.529,2.466-11.414-2.078-16.56c-0.706-0.799-1.593-1.619-2.593-2.428c0.541,0.197,1.061,0.426,1.552,0.698  c6.264,3.481,8.779,1.071,10.161-4.79c1.381-5.861,2.324-6.014,9.492-13.789C100.043,26.209,87.541,24.239,78.112,25.751z"></path></svg>