<svg fill="#70C041" xmlns="http://www.w3.org/2000/svg" xmlns:xlink="http://www.w3.org/1999/xlink" version="1.1" x="0px" y="0px" viewBox="0 0 100 100" style="enable-background:new 0 0 100 100;" xml:space="preserve"><path style="" d="M29.84,35.622c0.358,0.293,0.67,0.423,0.686,0.581  c0.146,1.506,1.404,1.571,2.43,2.031c0.601,0.269,1.074,0.846,1.57,1.321c0.543,0.522,0.397,1.702,1.592,1.655  c0.089-0.004,0.324,0.661,0.283,0.99c-0.278,2.308,1.099,5.598,3.317,7.251c0.335-1.154,0.862-2.168,0.891-3.198  c0.146-5.399,0.166-10.803,0.225-16.204c0.012-1.031,0.001-2.064,0.001-3.184c-0.85-0.474-1.831-1.021-2.93-1.633  c1.309-1.226,2.064,0.091,2.993,0.192c0.308-2.055,0.638-4.082,0.891-6.12c0.04-0.32-0.219-0.741-0.454-1.017  c-0.458-0.536-1.044-0.966-1.486-1.513c-0.21-0.26-0.215-0.688-0.312-1.039c0.375,0.07,0.832,0.029,1.113,0.232  c0.566,0.407,1.037,0.947,1.685,1.563c1.181-2.075,2.493-4.024,5.225-4.34c0.03-0.552,0.004-1.064,0.107-1.551  c0.057-0.264,0.34-0.678,0.513-0.674c0.313,0.007,0.901,0.301,0.891,0.43c-0.173,1.799,1.213,1.898,2.367,2.276  c0.261,0.086,0.488,0.269,0.804,0.447c0.435-0.67,0.819-1.359,1.31-1.963c0.194-0.239,0.623-0.287,0.946-0.423  c0.069,0.326,0.267,0.689,0.185,0.973c-0.229,0.797-0.573,1.559-0.841,2.254c0.855,1.482,1.714,2.974,2.662,4.614  c0.571-0.321,1.226-0.763,1.941-1.05c0.312-0.125,0.752,0.073,1.133,0.123c-0.063,0.391-0.007,0.886-0.226,1.146  c-0.319,0.38-0.802,0.702-1.277,0.848c-1.274,0.393-1.424,1.164-1.215,2.373c0.327,1.889,0.438,3.816,0.625,5.598  c0.465,0.309,0.889,0.588,1.312,0.869c-0.395,0.393-0.788,0.784-1.385,1.379c0.108,4.764-1.135,9.864,0.438,15.319  c2.745-2.84,4.817-5.624,4.753-9.627c0.318,0.115,0.536,0.178,0.737,0.275c0.194,0.095,0.374,0.223,0.292,0.173  c1.407-0.766,2.634-1.401,3.821-2.102c0.298-0.177,0.538-0.527,0.693-0.852c0.342-0.715,0.611-1.463,0.91-2.197  c0.212,0.025,0.426,0.049,0.638,0.073c0.136,0.889,0.271,1.776,0.438,2.874c2.01,0.194,2.606,2.091,3.29,3.942  c0.603-0.35,1.055-0.715,1.569-0.87c0.311-0.094,0.72,0.136,1.085,0.222c-0.089,0.368-0.096,1.012-0.277,1.066  c-2.282,0.678-2.072,2.539-2.259,4.318c-0.184,1.711-0.629,3.393-0.898,4.783c0.763,0.57,1.433,1.073,2.104,1.575  c-0.821,0.091-1.645,0.18-2.853,0.312c-0.294,1.092-0.45,2.619-1.119,3.869c-0.567,1.062-1.639,1.93-2.648,2.662  c-1.277,0.928-2.719,1.634-4.142,2.467c0.055,0.136,0.156,0.298,0.185,0.473c0.052,0.326,0.061,0.659,0.088,0.99  c-0.391-0.062-1.044-0.015-1.126-0.207c-0.454-1.072-1.253-0.718-2.016-0.632c-1.157,0.132-2.319,0.246-3.357,0.353  c0,6.689,0,13.468,0,20.111c2.471-0.23,4.829-0.574,7.199-0.646c5.636-0.173,10.926,1.592,16.245,3.139  c0.629,0.182,1.302,0.317,1.847,0.65c0.401,0.244,0.624,0.778,0.927,1.183c-0.499,0.057-1.04,0.272-1.489,0.147  c-3.563-0.99-7.067-2.229-10.669-3.033c-4.789-1.069-9.572-0.663-14.351,0.527c-3.569,0.887-7.188,2.015-10.925,1.561  c-2.494-0.303-4.908-1.26-7.402-1.569c-2.355-0.293-4.768-0.131-7.155-0.153c-1.25-0.013-2.499,0.026-3.748-0.008  c-0.221-0.007-0.435-0.267-0.693-0.437c1.384-0.801,7.446-1.27,10.687-0.885c0.338-6.811,0.677-13.623,1.017-20.481  c-1.751-0.211-3.461-0.417-5.353-0.646c-0.565,0.579-0.914,1.949-2.573,1.441c0.353-0.867,0.677-1.664,0.992-2.436  c-1.496-1.393-3.048-2.402-5.255-1.291c-0.02-0.155-0.037-0.311-0.055-0.465c0.417-0.447,0.834-0.893,1.236-1.324  c-0.638-1.167-1.227-2.326-1.91-3.429c-0.176-0.285-0.629-0.444-0.987-0.56c-0.412-0.132-0.859-0.151-1.29-0.221  c-0.027-0.136-0.054-0.271-0.079-0.408c0.54-0.229,1.082-0.454,1.258-0.529c0-2.177,0.018-4.254-0.014-6.329  c-0.007-0.415-0.159-0.845-0.321-1.236c-0.237-0.574-0.543-1.119-0.821-1.677c0.125-0.13,0.25-0.26,0.374-0.39  c0.558,0.354,1.117,0.709,1.5,0.951c0.955-1.055,1.938-2.077,2.836-3.17c0.301-0.366,0.392-0.912,0.56-1.38  C29.511,36.677,29.65,36.214,29.84,35.622z M27.963,44.695c-1.205-0.143-1.26,0.626-1.153,1.48c0.141,1.115,0.242,2.243,0.502,3.332  c0.071,0.294,0.654,0.468,1.003,0.692c0.451,0.289,0.903,0.574,1.354,0.86c-0.082,0.129-0.162,0.257-0.244,0.385  c-0.463-0.039-0.928-0.076-1.568-0.128c0.624,1.068,1.144,1.96,1.664,2.851c0.08-0.143,0.16-0.283,0.239-0.424  c0.563-0.049,1.124-0.097,1.687-0.143c-0.034,0.597-0.069,1.195-0.125,2.16c0.292,0.311,0.875,0.932,1.242,1.322  c0.852-0.411,1.402-0.677,1.952-0.944c0.079,0.674,0.159,1.345,0.257,2.179c-0.018-0.009,0.187,0.132,0.408,0.164  c1.661,0.238,3.323,0.456,4.986,0.683c0.876,0.119,1.518,0.272,1.158,1.505c-0.296,1.012-0.233,2.133-0.296,3.207  c-0.292,5.073-0.56,10.147-0.876,15.217c-0.039,0.638-0.321,1.262-0.456,1.771c5.399,2.353,10.869,1.704,16.188,0.046  c-0.054-0.515-0.177-1.096-0.16-1.673c0.106-4.065,0.331-8.131,0.333-12.196c0-2.233-0.332-4.471-0.57-6.701  c-0.188-1.748,0.132-2.044,1.833-1.896c1.37,0.119,2.76,0.022,4.063,0.022c-0.043-0.833-0.073-1.403-0.104-1.972  c0.702,0.298,1.402,0.595,2.427,1.029c1.07-0.689,2.444-1.576,3.817-2.462c-0.707-0.482-1.288-0.511-1.772-0.741  c-0.31-0.146-0.48-0.589-0.714-0.899c0.315-0.135,0.634-0.396,0.942-0.385c0.883,0.028,1.764,0.166,2.754,0.271  c0.57-1.33,1.115-2.604,1.63-3.807c-0.493-0.433-0.887-0.776-1.526-1.338c0.893-0.173,1.451-0.283,2.114-0.411  c0.335-2.074,0.675-4.182,0.998-6.173c-0.665-0.339-1.135-0.579-1.793-0.914c0.624-0.504,1.039-0.841,1.527-1.234  c-0.401-1.149-0.36-2.553-1.951-3.107c-0.153,0.59-0.266,1.022-0.443,1.712c-0.716-0.456-1.295-0.824-1.876-1.193  c-0.143-0.205-0.283-0.408-0.426-0.612c-0.689,0.933-1.587,1.783-2.004,2.825c-0.346,0.867-0.123,1.961-0.16,2.955  c-0.013,0.307,0.037,0.816-0.099,0.875c-0.295,0.13-0.703,0.084-1.044,0.007c-0.219-0.048-0.398-0.276-0.568-0.404  c-0.461,0.674-0.846,1.252-1.248,1.819c-0.435,0.612-0.845,1.25-1.338,1.812c-1.476,1.675-4.126,1.47-4.757-0.419  c-0.38-1.139-0.614-2.375-0.642-3.573c-0.08-3.7-0.03-7.406-0.03-11.074c-0.406-0.139-1.074-0.37-1.744-0.602  c0.02-0.143,0.039-0.285,0.06-0.43c0.669-0.281,1.339-0.562,2.149-0.901c-0.167-2.174-0.336-4.37-0.5-6.508  c-0.747-0.249-1.424-0.474-2.187-0.727c0.555-0.929,2.291-0.858,1.554-2.398c-0.463-0.962-0.828-1.972-1.185-2.832  c-0.7,0.106-1.221,0.187-1.74,0.266c0-0.603,0-1.204,0-1.965c-0.601-0.143-1.388-0.33-1.826-0.434  c-0.56,0.795-0.94,1.335-1.32,1.876c-0.369-0.482-0.737-0.967-1.117-1.464c-3.203,1.712-5.521,9.223-4.007,11.8  c-1.174,5.898-0.102,11.441-0.654,16.891c2.065,0.809,2.204,2.702,2.897,4.392c-1.071,0.057-1.071,0.057-2.806-2.229  c-0.128,0.787-0.084,1.598-0.408,2.218c-0.451,0.865-1.024,1.965-1.819,2.285c-1.252,0.506-2.594-0.021-3.451-1.183  c-0.634-0.858-1.11-1.831-1.71-2.715c-0.228-0.335-0.575-0.747-0.924-0.809c-1.113-0.2-1.078-0.779-0.766-1.627  c0.524-1.431-0.426-4.067-1.698-4.751C31.691,39.095,31.374,39.19,31,39.19c0.079,1.089,0.15,2.085,0.235,3.298  c-0.611-0.149-1.22-0.125-1.511-0.417c-0.324-0.327-0.36-0.942-0.524-1.431C27.617,41.941,27.359,42.745,27.963,44.695z" fill-rule="evenodd" clip-rule="evenodd"></path><path style="" d="M49.517,44.767c-1.284,0.134-1.764-0.379-1.701-1.511  c0.025-0.458-0.187-0.94-0.114-1.384c0.081-0.481,0.365-0.929,0.56-1.39c0.418,0.413,1.108,0.775,1.199,1.252  C49.647,42.718,49.517,43.762,49.517,44.767z" fill-rule="evenodd" clip-rule="evenodd"></path><path style="" d="M47.228,55.124c0.055-0.318,0.08-0.789,0.228-1.218  c0.116-0.335,0.387-0.617,0.588-0.923c0.308,0.279,0.818,0.517,0.887,0.846c0.169,0.802,0.235,1.66,0.137,2.471  c-0.046,0.38-0.568,0.702-0.875,1.05c-0.258-0.324-0.584-0.618-0.757-0.983C47.285,56.044,47.306,55.643,47.228,55.124z" fill-rule="evenodd" clip-rule="evenodd"></path><path style="" d="M49.722,48.737c0.367-0.904,0.732-1.883,1.167-2.828  c0.112-0.243,0.472-0.57,0.655-0.535c0.313,0.059,0.85,0.44,0.819,0.574c-0.217,0.903-0.461,1.831-0.908,2.633  c-0.175,0.313-0.896,0.328-1.374,0.46C50.033,49.053,49.948,48.932,49.722,48.737z" fill-rule="evenodd" clip-rule="evenodd"></path><path style="" d="M50.08,37.346c0.693-0.859,1.336-1.764,2.097-2.561  c0.573-0.603,1.259-0.207,1.131,0.422c-0.186,0.903-0.684,1.823-1.291,2.523c-0.273,0.312-1.139,0.11-1.736,0.141  C50.213,37.696,50.146,37.52,50.08,37.346z" fill-rule="evenodd" clip-rule="evenodd"></path><path style="" d="M42.376,61.562c0.479,0.242,0.857,0.315,1.03,0.542  c0.588,0.776,1.121,1.594,1.63,2.424c0.121,0.198,0.07,0.501,0.098,0.756c-0.303,0.023-0.761,0.187-0.882,0.05  c-0.818-0.928-1.589-1.902-2.307-2.909C41.863,62.309,42.204,61.894,42.376,61.562z" fill-rule="evenodd" clip-rule="evenodd"></path><path style="" d="M48.346,27.367c-2.474-0.531-2.214-2.626-2.911-4.271  C46.697,23.211,48.084,25.333,48.346,27.367z" fill-rule="evenodd" clip-rule="evenodd"></path><path style="" d="M34.542,50.886c-1.372-0.147-2.501-2.396-1.901-3.29  c0.123-0.186,0.522-0.369,0.688-0.301c0.34,0.145,0.802,0.415,0.868,0.713C34.396,48.896,34.428,49.821,34.542,50.886z" fill-rule="evenodd" clip-rule="evenodd"></path><path style="" d="M45.98,72.408c-0.353,0.37-0.497,0.653-0.654,0.661  c-0.297,0.013-0.712-0.034-0.887-0.227c-0.622-0.689-1.187-1.434-1.715-2.198c-0.112-0.164-0.057-0.538,0.061-0.732  c0.078-0.134,0.509-0.24,0.591-0.16C44.25,70.599,45.086,71.483,45.98,72.408z" fill-rule="evenodd" clip-rule="evenodd"></path><path style="" d="M47.146,36.893c-1.733,0.309-2.733-0.958-2.615-3.315  C45.697,33.57,46.104,34.085,47.146,36.893z" fill-rule="evenodd" clip-rule="evenodd"></path><path style="" d="M46.925,65.204c0.499-1.368,0.869-2.471,1.324-3.54  c0.067-0.16,0.589-0.292,0.782-0.196c0.269,0.134,0.652,0.57,0.593,0.745C49.223,63.417,48.888,64.725,46.925,65.204z" fill-rule="evenodd" clip-rule="evenodd"></path><path style="" d="M65.021,48.838c-0.723,0.143-1.473,0.338-1.401-0.793  c0.052-0.83,0.269-1.651,0.458-2.466c0.009-0.035,0.671-0.011,0.688,0.061c0.162,0.759,0.275,1.53,0.359,2.304  C65.152,48.21,65.063,48.49,65.021,48.838z" fill-rule="evenodd" clip-rule="evenodd"></path><path style="" d="M49.611,74.806c0.061-0.85,0.009-1.669,0.221-2.413  c0.109-0.378,0.697-0.618,1.067-0.922c0.152,0.43,0.479,0.882,0.42,1.281C51.188,73.67,51.138,74.774,49.611,74.806z" fill-rule="evenodd" clip-rule="evenodd"></path><path style="" d="M53.146,54.289c0.432-0.88,0.748-1.657,1.19-2.355  c0.141-0.221,0.682-0.39,0.917-0.292c0.229,0.096,0.438,0.581,0.412,0.871C55.538,53.857,54.767,54.449,53.146,54.289z" fill-rule="evenodd" clip-rule="evenodd"></path><path style="" d="M45.229,79.973c-0.119-1.018-0.262-1.874-0.294-2.736  c-0.009-0.235,0.266-0.592,0.499-0.695c0.185-0.084,0.57,0.061,0.755,0.229C47.01,77.514,46.599,79.301,45.229,79.973z" fill-rule="evenodd" clip-rule="evenodd"></path><path style="" d="M51.257,66.504c0.505-0.822,0.879-1.576,1.398-2.21  c0.209-0.255,0.738-0.244,1.121-0.354c0.091,0.349,0.331,0.744,0.242,1.04C53.682,66.088,53.172,66.344,51.257,66.504z" fill-rule="evenodd" clip-rule="evenodd"></path><path style="" d="M38.676,54.018c1.13-0.468,2.407,0.111,3.624,1.561  C41.012,55.999,39.596,55.415,38.676,54.018z" fill-rule="evenodd" clip-rule="evenodd"></path><path style="" d="M59.375,52.472c0.14-0.484,0.173-1.042,0.447-1.431  c0.276-0.392,0.789-0.616,1.199-0.912c0.084,0.542,0.406,1.224,0.192,1.595c-0.29,0.5-0.992,0.764-1.518,1.129  C59.589,52.725,59.482,52.599,59.375,52.472z" fill-rule="evenodd" clip-rule="evenodd"></path></svg>