<svg fill="#ff3020" xmlns="http://www.w3.org/2000/svg" data-name="Livello 1" viewBox="0 0 700 875" x="0px" y="0px"><path d="M158.736,79.187c-63.358,63.358-63.358,166.451,0,229.809l53.03,53.03.007.007L273.637,423.9l.008.007,61.864,61.864.007.008,61.865,61.864.007.007,61.865,61.865.007.007,44.191,44.191A50,50,0,1,0,574.161,583L538.81,547.648l-.007-.007-61.865-61.864-.007-.007-61.865-61.865-.007-.007-61.865-61.865-.007-.007-61.865-61.865-.007-.007L229.45,238.289l0,0,0,0A62.478,62.478,0,0,1,289.8,133.748c1.642.437,3.271.932,4.88,1.5A62.132,62.132,0,0,1,317.835,149.9a50,50,0,1,0,70.711-70.71C325.187,15.828,222.1,15.828,158.736,79.187ZM370.868,96.864a25,25,0,0,1-35.355,35.356A87.22,87.22,0,0,0,314.8,116.873V62.925A136.657,136.657,0,0,1,370.868,96.864Zm-159.1,35.356q-1.488,1.488-2.888,3.032H149.366A137.65,137.65,0,0,1,195.707,80.8l36.317,36.317A87.242,87.242,0,0,0,211.769,132.22ZM556.484,600.678a24.986,24.986,0,0,1-14.017,42.4V586.661ZM176.414,291.319a137.154,137.154,0,0,1-22.841-30.193l37.658-37.657a86.859,86.859,0,0,0,16.877,28.6v70.948ZM455.6,499.79V570.5l-36.871-36.872v-70.71Zm-61.872-61.872v70.71l-36.871-36.871V401.046Zm-61.871-61.872v70.71L294.98,409.885V339.174ZM269.98,314.174v70.711l-36.872-36.872V277.3ZM480.6,595.5V524.79l36.872,36.871v70.711Zm-294.4-402.349-43.336,43.336a138.473,138.473,0,0,1-2.446-76.235h52.544A87.752,87.752,0,0,0,186.193,193.151ZM218.425,68.165A138.168,138.168,0,0,1,289.8,57.6V108.13a88.2,88.2,0,0,0-31.551-.139Z"/></svg>