<svg fill="#040305" xmlns="http://www.w3.org/2000/svg" xmlns:xlink="http://www.w3.org/1999/xlink" version="1.1" x="0px" y="0px" viewBox="0 0 100 100" enable-background="new 0 0 100 100" xml:space="preserve"><path d="M91.658,54.614c-0.007-0.025-0.004-0.051-0.011-0.076L84.69,31.106C84.68,31.07,84.662,31.036,84.65,31  c-0.018-0.052-0.037-0.103-0.059-0.153c-0.039-0.093-0.085-0.182-0.135-0.27c-0.024-0.041-0.045-0.083-0.071-0.123  c-0.076-0.117-0.161-0.229-0.256-0.332c-0.005-0.005-0.008-0.011-0.013-0.016c-0.089-0.095-0.186-0.183-0.29-0.264L66.394,16.315  c-0.269-0.209-0.577-0.36-0.905-0.445L36.81,8.436c-0.008-0.002-0.017-0.002-0.025-0.004c-0.334-0.083-0.688-0.103-1.047-0.036  c-0.004,0.001-0.007,0.002-0.011,0.003c-0.054,0.01-0.105,0.032-0.159,0.046c-0.12,0.03-0.238,0.061-0.349,0.108  c-0.053,0.022-0.102,0.054-0.153,0.08c-0.107,0.054-0.213,0.11-0.31,0.178c-0.016,0.011-0.034,0.017-0.049,0.028L17.138,21.691  c-0.644,0.471-1.024,1.221-1.024,2.018c0,16.311-5.176,26.447-5.226,26.543c-0.029,0.054-0.044,0.113-0.069,0.169  c-0.037,0.086-0.078,0.17-0.106,0.259c-0.022,0.071-0.031,0.144-0.047,0.216c-0.018,0.084-0.04,0.167-0.049,0.252  c-0.008,0.075-0.004,0.15-0.005,0.225c-0.001,0.086-0.007,0.171,0,0.256c0.006,0.07,0.024,0.14,0.036,0.21  c0.015,0.09,0.027,0.179,0.052,0.268c0.002,0.008,0.003,0.017,0.005,0.025l8.16,27.276c0.009,0.031,0.028,0.058,0.038,0.089  c0.039,0.114,0.087,0.223,0.142,0.33c0.027,0.052,0.05,0.105,0.08,0.155c0.076,0.126,0.166,0.244,0.264,0.356  c0.017,0.02,0.029,0.044,0.047,0.063l0.025,0.027c0.005,0.006,0.011,0.012,0.016,0.017l5.798,6.182  c0.108,0.115,0.228,0.215,0.354,0.307c0.041,0.03,0.085,0.055,0.128,0.082c0.09,0.057,0.182,0.109,0.279,0.155  c0.051,0.024,0.102,0.047,0.154,0.068c0.1,0.039,0.202,0.07,0.307,0.096c0.046,0.011,0.091,0.026,0.137,0.035  c0.014,0.003,0.027,0.008,0.041,0.01l32.092,5.506c0.145,0.026,0.29,0.039,0.435,0.039c0.251,0,0.497-0.039,0.733-0.111  c0.002-0.001,0.004,0,0.007-0.001l17.796-5.508c0.62-0.192,1.141-0.618,1.453-1.188l7.712-14.078  c0.087-0.159,0.157-0.328,0.208-0.502l4.538-15.588c0.008-0.026,0.005-0.054,0.011-0.08c0.052-0.204,0.088-0.413,0.088-0.624  c0-0.001,0-0.001,0-0.002C91.75,55.032,91.712,54.822,91.658,54.614z M57.568,87.606l-25.061-4.299l15.722-14.601l14.806,3.858  L57.568,87.606z M24.453,78.439L39.48,56.239l4.935,9.185L27.222,81.391L24.453,78.439z M15.983,52.327l21.243-16.733v15.055  l-15.08,22.279L15.983,52.327z M65.855,68.133l-16.637-4.336l-6.992-13.011V33.025l38.184,1.234l5.923,19.951L65.855,68.133z   M74.675,29.07l-32.848-1.062l-2.488-13.752l24.396,6.324L74.675,29.07z M34.434,15.233l2.565,14.176l-18.535,14.6  c1.294-4.676,2.52-11.125,2.64-19.024L34.434,15.233z M75.294,82.827l-12.021,3.72l5.123-14.096l16.511-11.225l-2.518,8.651  L75.294,82.827z"></path></svg>
