<svg fill="#040305" xmlns="http://www.w3.org/2000/svg" xmlns:xlink="http://www.w3.org/1999/xlink" version="1.1" x="0px" y="0px" viewBox="0 0 100 100" style="enable-background:new 0 0 100 100;" xml:space="preserve"><path d="M92.5,7.5h-85C6.119,7.5,5,8.619,5,10v80c0,1.381,1.119,2.5,2.5,2.5h85c1.381,0,2.5-1.119,2.5-2.5V10   C95,8.619,93.881,7.5,92.5,7.5z M30,12.5h32.5v5H55H30V12.5z M40,62.5h15h17.5v5H65H40V62.5z M37.5,57.5H20v-5h7.5h25v5H37.5z    M30,47.5v-5h7.5h25v5H55H30z M40,37.5v-5h15h17.5v5H65H40z M52.5,22.5v5h-15H20v-5h7.5H52.5z M10,12.5h15v5h-7.5H10V12.5z    M10,22.5h5v5h-5V22.5z M10,32.5h7.5H35v5h-7.5H10V32.5z M10,42.5h15v5h-7.5H10V42.5z M10,52.5h5v5h-5V52.5z M10,62.5h7.5H35v5   h-7.5H10V62.5z M15,87.5h-5v-5h5V87.5z M10,77.5v-5h15v5h-7.5H10z M52.5,87.5H20v-5h7.5h25V87.5z M30,77.5v-5h7.5h25v5H55H30z    M90,87.5H57.5v-5H65h25V87.5z M90,77.5H67.5v-5H75h15V77.5z M90,67.5H77.5v-5H90V67.5z M90,57.5H75H57.5v-5H65h25V57.5z M90,47.5   H67.5v-5H75h15V47.5z M90,37.5H77.5v-5H90V37.5z M90,27.5H75H57.5v-5H65h25V27.5z M90,17.5H67.5v-5H90V17.5z"></path></svg>
