<svg fill="#283359" xmlns="http://www.w3.org/2000/svg" xmlns:xlink="http://www.w3.org/1999/xlink" version="1.1" x="0px" y="0px" viewBox="0 0 100 100" style="enable-background:new 0 0 100 100;" xml:space="preserve"><g><path d="M59.7,6.5c0.4-0.9,0.2-1.8,0.1-2c0-0.2-0.1-0.6-0.1-0.6s-0.3,0.2-0.5,0.4C59,4.4,58.3,5,58.1,6c-0.3,1,0.3,2,0.3,2   S59.3,7.5,59.7,6.5z"></path><path d="M56.4,6.8c0,0,0.5-1.3,0-2.5c-0.5-1.2-1.4-1.8-1.7-1.9C54.6,2.2,54.2,2,54.2,2s-0.1,0.4-0.1,0.7c0,0.3-0.2,1.4,0.4,2.5   C55.1,6.4,56.4,6.8,56.4,6.8z"></path><path d="M47.6,6.2c0,0,0.3,0.2,0.4,0.4c0.2,0.1,0.9,0.7,1.9,0.8s1.9-0.6,1.9-0.6s-0.6-0.9-1.6-1.1s-1.8,0.2-2,0.3   S47.6,6.2,47.6,6.2z"></path><path d="M46.3,13.6c-0.7,0.3-1.1,0.8-1.2,1c-0.1,0.1-0.2,0.4-0.2,0.4s0.3,0,0.4,0.1c0.2,0,0.8,0.1,1.5-0.2c0.7-0.3,0.9-1.1,0.9-1.1   S47,13.3,46.3,13.6z"></path><path d="M47.2,3.4c0.7,0.3,1.5-0.1,1.5-0.1s-0.3-0.8-1-1.1C47,1.9,46.3,2,46.2,2c-0.2,0-0.4,0.1-0.4,0.1s0.1,0.2,0.2,0.4   C46.1,2.6,46.5,3.2,47.2,3.4z"></path><path d="M38.3,13c-0.1,0.2-0.3,0.5-0.3,0.5s0.3,0.1,0.6,0.1c0.2,0,1.1,0.1,2-0.3c0.9-0.5,1.2-1.5,1.2-1.5s-1-0.4-2,0   C38.9,12.1,38.4,12.8,38.3,13z"></path><path d="M42.4,8.7c0.8,0.4,1.7,0.1,1.7,0.1s-0.2-1-0.9-1.4C42.5,7,41.7,7,41.5,7C41.3,7,41,7,41,7s0.1,0.3,0.2,0.5   C41.3,7.6,41.7,8.3,42.4,8.7z"></path><path d="M38.4,9.8c0.4-0.4,0.4-1,0.4-1s-0.6-0.1-1.1,0.3c-0.4,0.4-0.6,0.8-0.6,1c0,0.1-0.1,0.3-0.1,0.3s0.2,0,0.3,0   C37.5,10.3,38,10.2,38.4,9.8z"></path><path d="M34.7,15.4c0,0,0.2,0.1,0.3,0.1s0.6,0.2,1.1,0.1c0.5-0.1,0.9-0.7,0.9-0.7s-0.5-0.4-1.1-0.3c-0.6,0.1-0.9,0.4-1,0.5   C34.9,15.2,34.7,15.4,34.7,15.4z"></path><path d="M31.6,12.4c0,0,0.2,0.1,0.4,0.2c0.2,0.1,0.8,0.3,1.5,0.1c0.7-0.2,1.2-0.9,1.2-0.9s-0.7-0.5-1.4-0.4   c-0.8,0.1-1.3,0.6-1.4,0.7C31.8,12.2,31.6,12.4,31.6,12.4z"></path><path d="M31.8,18.5c0.8-0.2,1.3-1,1.3-1s-0.8-0.6-1.6-0.5c-0.8,0.1-1.4,0.6-1.6,0.8c-0.1,0.1-0.4,0.3-0.4,0.3s0.3,0.1,0.5,0.2   C30.2,18.4,30.9,18.7,31.8,18.5z"></path><path d="M44.3,16.1c-0.6-0.5-1.3-0.5-1.5-0.5c-0.2,0-0.4,0-0.4,0s0.1,0.3,0.2,0.4c0.1,0.2,0.4,0.8,1,1.2c0.7,0.4,1.5,0.2,1.5,0.2   S44.9,16.6,44.3,16.1z"></path><path d="M47.4,16.9c0.2,0.1,0.8,0.4,1.6,0.4c0.8-0.1,1.4-0.8,1.4-0.8s-0.7-0.6-1.5-0.6c-0.8,0-1.4,0.4-1.6,0.5   c-0.1,0.1-0.4,0.3-0.4,0.3S47.2,16.8,47.4,16.9z"></path><path d="M41.1,21.8c0.9-0.4,1.3-1.3,1.3-1.3s-1-0.5-1.9-0.2c-0.9,0.3-1.5,1-1.6,1.1c-0.1,0.2-0.3,0.4-0.3,0.4s0.3,0.1,0.5,0.1   C39.3,22,40.2,22.2,41.1,21.8z"></path><path d="M40.8,23.4c-0.6-0.2-1.2-0.1-1.3,0c-0.1,0-0.4,0.1-0.4,0.1s0.1,0.2,0.2,0.3c0.1,0.1,0.5,0.5,1.1,0.7   c0.6,0.2,1.3-0.2,1.3-0.2S41.4,23.6,40.8,23.4z"></path><path d="M34.4,24.3c0,0-0.6,0.8-0.5,1.6c0.1,0.9,0.6,1.4,0.8,1.6c0.1,0.1,0.3,0.4,0.3,0.4s0.1-0.3,0.2-0.5c0.1-0.2,0.3-0.9,0.2-1.7   C35.3,24.9,34.4,24.3,34.4,24.3z"></path><path d="M32.5,21.4c-0.5,0.3-0.7,0.7-0.8,0.8c-0.1,0.1-0.1,0.3-0.1,0.3s0.2,0,0.3,0c0.1,0,0.6,0,1.1-0.3c0.5-0.3,0.6-0.9,0.6-0.9   S33,21.1,32.5,21.4z"></path><path d="M31.1,24.6c-0.6,0.3-0.9,0.8-0.9,1S30,25.9,30,25.9s0.2,0,0.4,0c0.1,0,0.7,0,1.3-0.3c0.6-0.4,0.7-1.1,0.7-1.1   S31.7,24.3,31.1,24.6z"></path><path d="M27.2,14.2c-0.7-0.1-1.2,0.2-1.4,0.3c-0.1,0.1-0.3,0.2-0.3,0.2s0.2,0.2,0.3,0.2c0.1,0.1,0.6,0.5,1.3,0.5   c0.7,0,1.3-0.5,1.3-0.5S27.9,14.3,27.2,14.2z"></path><path d="M32.6,9.1c0,0-0.7-0.9-1.6-1C30,8,29.2,8.4,29,8.5c-0.2,0.1-0.5,0.3-0.5,0.3S28.8,9,29,9.1c0.2,0.1,0.9,0.6,1.9,0.7   C31.8,9.8,32.6,9.1,32.6,9.1z"></path><path d="M74.1,57.7c-0.6-1.6-0.8-2.9-0.9-3.7c0.1-1.4-0.3-2.7-0.5-3.2c0-0.1-0.1-0.2-0.2-0.4c-0.5-2.9-1.8-7.2-2.4-9.3   c0.4-1.8,1.3-5.8,1.6-7.6c0.4-2.2-2.8-6.4-5.4-6.6c-2.6-1.3-5.2-2.6-5.2-2.6c-0.3-0.6,0-0.8,0-0.8l0,0c2.1-0.9,3.2-3.1,3.2-5.6   c0-1.3,0.1-2.6-0.6-3.6c-0.4-0.5-0.5-1.1-0.5-1.8c0-0.2,0-0.3,0-0.5c0-1.7-0.7-2.6-3.3-3.1c-2.5-0.5-4.6,0.2-5.7-2.2   C53,4.2,52.4,3,50.3,2.9c-0.2,0-0.3,0.1-0.3,0.3c0,0.2,0.1,0.3,0.3,0.3c0.5,0,1.4,0.2,2,1.5c0.8,1.5,0.8,2.9,2.8,4.1l-0.6,0.5   c-0.4,0.2-0.7,0.4-1,0.6c-0.7-0.3-1.9-0.8-2.9-1.5c-2.4-1.6-4.6,0.4-5,0.8c-1.6-0.3-4.1-0.1-5,0.1c-0.2,0-0.3,0.2-0.3,0.4   c0,0.2,0.1,0.4,0.3,0.4c0.8,0,3,0.1,3.9,0c0.4-0.1,0.8,0.2,1.4,0.6c-0.4,0.3-1,0.8-1.7,1.1c-1.3,0.6-2.9,2-4.6,2.7   c-1.7,0.7-5.2,4.2-5.2,4.2v0.6c0,0,3.7-3.8,5.5-4c0,0,0,0,0.1,0c-0.6,1.2-2.1,4.1-3,4.6c-1.1,0.6-2.6,2.8-2.6,2.8h0.4   c0,0,3.4-2.9,3.9-3.4c0.4-0.4,1.9-3.2,2.6-4.4c1-0.5,1.8-1.3,2.5-1.9c0.7-0.7,2.1-1.3,2.8-1.7c0.9,0.7,2.1,1.4,3.6,1.7   c1.5,0.2,2.5,0.3,3.3,0.6c0.4,0.1,0.6,0.6,0.4,1c-0.5,0.9-0.7,1.9-0.7,3c0,0.1,0,0.2,0,0.3l0,0c-0.4,0.2-0.8,0.2-1.2,0.2   c-0.7-0.2-2-0.4-3.1-0.3c-1.7,0.1-3.3,1.7-6,0.8l-0.9-0.5c-0.2-0.1-0.4,0.1-0.4,0.3c0,0.1,0,0.2,0.1,0.3c0.5,0.4,2.4,1.9,4.6,0.9   c2.5-1.2,3.7-1,4.6,0.5c0,0,0,0,0,0c-0.2,0-0.3,0.1-0.5,0.1c-2.5,0.3-4.1,1.5-6.5,3.3c-2.4,1.8-1.6,1.2-1.6,1.2   c-0.2,0.4,0.1,0.6,0.3,0.5c0.2-0.1,0.3-0.2,0.5-0.3c0.9-0.7,3.1-2.2,5-2.5c1.4-0.2,2.8-0.5,4-1c1-0.4,2-0.1,2.8,0.6   c0.4,0.4,0.9,0.8,1.4,1c0.4,0.2,0.5,0.6,0.4,1c0,0,0,0,0,0c-0.1,0.3-0.3,0.5-0.6,0.6c-1.1,0.3-3.4,0.9-5.7,1.5   c-1,0.3-1.6,0.7-2,1.3c-0.8,0.7-2.9,2.5-2.9,3.5c0,1,1.3,3.2,1.9,4.2l-0.4,4.6c0,0-2,6.7-2.7,10.6c-0.1,0.1-0.1,0.2-0.2,0.4   c-0.1,0.3-0.3,0.8-0.4,1.5l0,0c0,0,0,0.2-0.1,0.6c0,0,0,0.1,0,0.1c-0.1,1.4-0.4,4.6-0.5,6c-0.1,1.9-1.7,2.1-1.7,4.7s-0.1,3-0.1,3   l0-0.1c0.3-0.5,0.5-1.1,0.5-1.7c0-1,0.3-2.5,1.2-3.8c1.1-1.7,1.2-4.7,1.2-4.7s0.2,2.8-0.2,3.7c-0.4,0.9-1.1,3.2-0.6,4.5   c0.6,1.2,1.6,4,1.6,4s0.3-1.1-0.2-2.7c-0.6-1.6-0.9-3.3,0-4.7c0.6-0.9,1-2.8,1.2-4c0,0.4-0.1,0.9-0.1,1.2c0,1.3,0.7,3.1,0.7,3.1   c0.2-0.9-0.7-1.9,0.8-5c1.5-3.1-0.4-6.2-0.4-6.2c0-0.1,0.1-0.2,0.1-0.4c0.6-0.4,1.7-1.4,2.6-2.5c-0.1,0.4-0.2,0.9-0.3,1.3   c-0.8,4.5,0.3,10.5,2,15c1.7,4.5,1.9,5.5,1.9,5.5s-0.3,9.7,2.1,15.4c0,0,1.2,3,1,4.3c-0.1,0.5-0.3,1.1-0.5,1.8   c-0.4,0.5-1.1,1.3-1.7,1.3c-0.9,0-2.2,2-2.2,3c0,1-0.7,2-0.7,2s1-0.3,2.3-2.2c0.8-1.1,1.5-1.2,1.9-1.1c0,0,0,0.1,0,0.1   c0.2,0.3,1.4,0.6,2.6,0.8c0.2,0.3,0.7,0.7,1.7,1c1.8,0.7,2.6,0.4,2.6,1.6c0,1.1,3.1,1,3.1,1s-2.5-1.2-2.5-2.2   c0-0.5-1.1-1.1-2.1-1.6c0-0.1,0-0.1,0-0.1c0.4-0.1,0.9-0.3,1.4-0.7c1.2-0.9,4.7,0.4,4.7,0.4s-1.5-1.9-4.2-2   c-2.8-0.1-3.8-3.6-3.8-3.6s0-0.1,0-0.3c0.6,0,1.3,0,1.9-0.2c0.8,0,2-0.1,2.5-0.1c0.8,0,3.2,1.2,3.2,1.2s-2-2.8-3.2-2.6   c-0.1,0-0.3,0-0.4,0c-0.9-0.1-1.7-0.8-2.1-1.7c-0.5-1.4-0.8-2.8-0.8-2.8s2.2-5.9,3.2-12.8c2.2-3.1,3.1-14.6,2.4-20.1   c-0.4-3.3-1.9-7.3-1.9-7.3l0.8-4.1c0,0,0,0-0.1,0l0,0l0,0c-0.3,0.2-0.8,0.4-1.9,0.4c-1.7,0-2.4-1.4-2.4-1.4s1.7,1.1,3.4,0.5l0,0   c1.5-0.8,1.6-1.6,1.6-2.3c0-1.1-0.5-2.3-0.5-2.3s0.8,0.4,0.9,2.4c0,1.2-0.4,2-0.7,2.4c0.2,1.9,0.5,3.5,0.9,4.2   c0.7,1.3,2.5,6.3,3.4,8.8c-0.1,0.2-0.1,0.4-0.1,0.6c0,0.2,0,0.3,0,0.5c-0.2,1.4-0.6,3.6-0.9,4.3c-0.3,1-0.1,0.9-0.9,2   c-0.8,1.1,0.7,3.5,1,4.5c0,0-0.6-3-0.3-3.6c0.2-0.6,0.7-0.8,1-2.1c0.1-0.5,0.4-1,0.7-1.4c0,0,0,0.1,0,0.1c0.2,0.4,0.3,0.8,0.3,1.2   c0.1,1.1,0.3,2.5,0.8,3.2c0.8,1.1,1.3,3.7,0.8,5.1c-0.6,1.5,0.8,2.7,0.8,2.7s-0.6-1.5,0-3.6c0.6-2.1,0.4-3.1,0-4.2   c-0.6-2-0.3-3.1-0.3-3.1c0.1-0.2,0.2-0.4,0.3-0.5c0.1,0.8,0.3,1.9,0.7,2.8c0.8,1.6,0.4,2.1,0.4,2.8C73.9,62.1,75.1,60.4,74.1,57.7z    M62.3,16.8c0.5,0,0.9,0.5,0.9,0.5s-0.9,1-1.9,0C61.3,17.3,61.8,16.8,62.3,16.8z M47.8,33.3c-0.7-1-1.3-2.7,0.3-3.8   c0,0.3,0,0.6,0,0.8L47.8,33.3z M48.3,47.4c0.5-1.5,1.1-3,1.6-4.2C50.2,44.2,50.2,46.1,48.3,47.4z M51.2,43.6   c-0.1-0.7-0.4-1.3-0.6-1.8c0.1-0.1,0.1-0.3,0.2-0.4c0.5-1,0.8-4.2,1-6.9l0.5,6.7C52.2,41.2,51.7,42.1,51.2,43.6z M51.1,11.6   C51.1,11.6,51.1,11.6,51.1,11.6c-2.1-0.1-3.1-1.2-4.6-1.8c0.6-0.4,1.7-0.9,2.9-0.5c1.5,0.6,2.3,1.4,2.6,1.7   C51.7,11.3,51.4,11.5,51.1,11.6z M56,11.8c-1.6-0.7-2.4,0-3.7-0.1c1.3-0.5,2.5-0.6,3.2-1c0.2-0.1,1.3-0.2,1.4-0.2c2,0.8,1,0,2,1.2   c0,0,0,0,0,0c-0.2,0-0.5,0.1-0.9,0.2C57.4,12.1,56.7,12.1,56,11.8z M56.7,17.4c0,0,0.5-0.5,1-0.5c0.5,0,0.9,0.5,0.9,0.5   S57.7,18.5,56.7,17.4z M54.1,37.2c1.3,0.3,3.1,0,4-1.2c0.9-1.2,0.4-2.9,0.2-3.2c-0.1-0.3-0.5-1.1-0.5-1.1c1.9,1.6,1.2,3.5,1.2,3.5   C57.8,39.1,54.1,37.2,54.1,37.2z M58.4,70.6c0-0.1,0-0.2,0-0.3c0,0,0.5-14,0.4-16.7l0.7,14.9C59.2,68.8,58.8,69.4,58.4,70.6z    M69.7,38.2l-0.5-7c0-0.2,0-0.6-0.1-1c-0.1-0.3-0.2-0.7-0.3-1.1c0.7,0.7,2.5,3,1.8,5.5C70.3,35.9,69.9,37.2,69.7,38.2z"></path></g></svg>
