<svg fill="#950095" xmlns="http://www.w3.org/2000/svg" xmlns:xlink="http://www.w3.org/1999/xlink" version="1.0" x="0px" y="0px" viewBox="0 0 77.1 77.1" style="enable-background:new 0 0 77.1 77.1;" xml:space="preserve"><style type="text/css">
	.st0{display:none;}
	.st1{fill:none;stroke:#950095;stroke-miterlimit:10;}
	.st2{fill:#950095;stroke:#950095;stroke-miterlimit:10;}
</style><g><path d="M53.1,41.6c-0.9-1.8-1.4-3.6-1.4-5.6c0-1.1,0-3,0.9-3.7c0.2-0.2,0.5-0.1,0.8,0c1.2,0.5,2,2.6,2.4,3.7   c0.5,1.4,0.5,3,0.4,4.5c-0.1,1-1.6,1-1.5,0c0.1-1.2,0.1-2.4-0.2-3.6c-0.2-0.6-0.6-1.9-1.1-2.6c-0.1,0.3-0.1,0.7-0.1,0.7   c-0.1,0.6-0.1,1.1,0,1.8c0.1,1.4,0.5,2.7,1.2,4C54.8,41.7,53.5,42.5,53.1,41.6z M49.7,49.5c-1.5,0.2-2.9,0.2-4.3-0.2   c-0.7-0.2-1.4-0.5-2.1-0.8c0,0-0.1-0.1-0.2-0.1c0.9-0.3,2.2-0.3,2.9-0.2c1.2,0.1,2.4,0.5,3.5,0.9c0.9,0.4,1.3-1.1,0.4-1.4   c-1.5-0.6-3-1.1-4.6-1c-1,0-4,0.2-4.2,1.6c-0.2,1.1,2,1.8,2.7,2.1c2.1,0.8,4.1,1,6.3,0.7C51,50.8,50.6,49.4,49.7,49.5z M68.2,58.5   c-1.5-1.5-3.3-2.4-5.3-2.9c-0.9-0.2-1.3,1.2-0.4,1.4c1.4,0.3,2.7,0.9,3.8,1.8c0.6,0.4,1.1,1,1.6,1.5c0.1,0.1,0.1,0.2,0.2,0.2   c0,0,0,0-0.1,0c-0.4-0.1-0.8-0.1-1.2-0.3c-0.4-0.1-0.9-0.3-1.3-0.5c-1.1-0.5-2-1.3-2.8-2.2c-0.7-0.7-1.7,0.4-1.1,1.1   c1.1,1.1,2.3,2.1,3.8,2.7c0.9,0.4,4.1,1.6,4.7,0.2C70.5,60.5,68.7,59,68.2,58.5z M53.4,59.7c0,1.4-0.1,2.7-0.6,4   c-0.1,0.4-0.8,1.9-1.3,2.7c-0.2-0.9,0-2.3,0.1-3c0.2-1.2,0.8-2.3,1.4-3.3c0.5-0.8-0.8-1.6-1.3-0.8c-0.8,1.3-1.4,2.8-1.6,4.4   c-0.1,1-0.3,4.1,0.9,4.6c1.1,0.5,2.1-1.7,2.5-2.3c1.1-1.9,1.6-3.9,1.5-6.2C54.9,58.7,53.4,58.7,53.4,59.7z M67,38.3   c-1.9,1.1-3.3,2.6-4.3,4.5c-0.5,0.8,0.8,1.6,1.3,0.8c0.7-1.4,1.7-2.5,2.9-3.4c0.5-0.4,1.1-0.7,1.7-1c-0.1,0.4-0.3,0.9-0.5,1.2   c-0.2,0.4-0.5,0.7-0.8,1c-0.8,0.9-1.8,1.6-2.9,2.2c-0.8,0.5-0.1,1.8,0.8,1.3c1.3-0.8,2.6-1.7,3.6-2.9c0.7-0.9,2.4-3.3,1.6-4.4   C69.7,36.6,67.6,37.9,67,38.3z M54.1,56.3c-5.7-2.5-1-13.4,4.6-12.1c0.1,0,0.1,0,0.1,0.1c0,0,0,0,0,0c0,0,0,0,0.1,0c0,0,0,0,0.1,0   C64.2,47.2,60.1,58.9,54.1,56.3z M58.2,45.6c-4.1-0.8-7.6,8.1-3.1,9.1C59.3,55.7,61.8,47.6,58.2,45.6z M74.1,45.1   c-0.1,0.6-0.7,1.2-0.8,1.7c0,0.4,0.6,1.3,0.6,1.8c0.2,3.4,0.3,6.5-0.7,9.8c-1,3.4-3,6.9-5.8,9.1c-0.4,0.3-0.6-0.3-1.1,0.3   c0.1-0.1-0.6,0.7-0.5,0.6c-0.3,0.3,0,1.1-0.2,1.5c-2.2,3.8-11.8,5.1-15.7,3.9c-2.1-0.7-3.5-0.5-5.4-1.5c-0.1,0-0.2,0-0.4-0.1   c-7.8-3.7-13.7-10.8-15.7-19c-3.1,3.7-4.5,8.3-4.2,13.2c0,0.6-0.7,1-1.1,0.6c-4.6-3-6.7-8.3-5.6-13.6c-3.5,1.1-6.1,3.4-7.6,6.8   c-0.3,0.7-1.4,0.3-1.4-0.4c-0.2-3.9,0.2-7.8,1.2-11.6c0.6-2.2,3.1-5.5-1.1-4.8c-1.9,0.3-3.6,2.3-4.4,4c-0.3,0.6-1.3,0.5-1.4-0.2   c-0.9-5.8,2-11,7.5-12.4c-1.6-1.3-3.4-2.2-5.5-2.8c-0.7-0.2-0.7-1.2,0-1.4c0.9-0.3,5.3-1.2,5.5-1.9c0.2-0.9-2.2-4.1-2.7-5.1   C6.3,20.4,5.6,17,5.2,13.5c-0.1-0.8,1-0.9,1.4-0.4c2,2.6,4.4,4.6,7.3,6.1c-2.1-5-2.4-10.4-0.8-15.7c0.2-0.7,1.2-0.7,1.4,0   c1.2,4.4,3.2,8.2,6,11.6c1.4-5.5,5.8-9,11.5-9.7c0.6-0.1,0.9,0.7,0.6,1.1c-2,3.5-2.4,7.4-1.3,11.2c2.5-3.4,6-5.8,10.2-6.8   c0.6-0.2,1.2,0.5,0.8,1.1c-2.7,4.8-3.8,10.1-3.2,15.5c5.7-2.8,12.8-3.4,19.4-2.1c0.1,0,0.2,0.1,0.3,0.1c0,0,0.1,0,0.1,0   c3.2-0.1,6.1,1.3,8.6,3.4c0.5,0.4,1,0.8,1.4,1.3c0.3,0.3,0,1.1,0.3,1.4c-0.2-0.2,0.9,0.2,0.8,0.1C73.9,35.2,75,40,74.1,45.1z    M40.4,31.3c1.7-0.3,3.4-0.5,5.2-0.5c0.1,0,0.2,0,0.2,0.1c2.4-2.2,5.4-3.6,8.5-4.6c-3.1-0.2-6.2,0-9.2,0.8   c-0.1,0.1-0.1,0.2-0.2,0.3C43.1,28.4,41.6,29.7,40.4,31.3z M39.1,33.1c-0.8,1.4-1.5,2.9-1.9,4.5c1.5-0.4,3.1-0.6,4.7-0.6   c0.2-0.2,0.5-0.4,0.6-0.7c0.8-1.1,1.2-2.6,2-3.9C42.6,32.4,40.8,32.6,39.1,33.1z M37.2,30.6c-0.7,0.7-1.3,1.4-1.8,2.2   c0.9-0.4,1.8-0.7,2.7-1c0.8-1.2,1.7-2.3,2.7-3.3C39.6,29.1,38.3,29.8,37.2,30.6z M34,35.2c-0.6,1.2-1.1,2.5-1.4,3.9   c0.9-0.4,1.9-0.8,2.8-1c0.3-1.5,0.8-2.9,1.5-4.2C36,34.2,35,34.6,34,35.2z M23.7,58.9c-1.8-3.2-1.9-6.8-0.4-10   c-2.3,0.4-4.5,0.8-6.8,1.4c-0.5,0.1-1.1-0.4-0.9-0.9c1.4-3.8,4.3-6.3,8.1-7.1c-1.5-1.4-3.2-2.3-5.6-2.6c-0.7-0.1-1.1-1-0.4-1.4   c2.2-1.4,4.4-2,6.8-2c-2-2.1-3.3-4.6-3-7.8c0.1-0.7,0.8-1,1.3-0.5c1.9,1.6,3.8,2.7,6,3.3c-2.4-3.6-3.2-7.8-2.1-12.2   c0.2-0.8,1.2-0.7,1.4,0c0.8,2.2,2.2,5.6,4.2,6.8c1.9,1.2,1.1,1.6,2.1-0.8c0.8-2,2.1-3.5,3.7-4.8c0.4-2.6,1.2-5,2.4-7.5   c-3.6,1.2-6.5,3.6-8.5,6.9c-0.4,0.6-1.1,0.4-1.4-0.2C28.9,15.4,29,11,30.8,7.1c-4.7,1-8.4,4.6-9,9.6c-0.1,0.6-0.8,1.1-1.3,0.5   C17.6,14,15.5,10.4,14,6.4c-0.9,4.7-0.2,9.5,2.1,13.9c0.3,0.5-0.2,1.4-0.8,1.1c-3.2-1.3-5.9-3.1-8.2-5.5c0.8,4.8,2.7,9.2,5.5,13.2   c0.3,0.4,0,1-0.4,1.1C10.6,30.5,9,31,7.5,31.4c1.9,0.8,3.5,1.9,5,3.4c0.5,0.5,0.1,1.2-0.5,1.3c-4.7,0.5-7.6,4.3-7.8,8.6   c2.1-2.4,5.2-3.4,8.5-2.6c0.5,0.1,0.6,0.7,0.4,1.1c-1.9,4.5-3,9.1-3.1,13.9c2-2.8,4.9-4.7,8.4-5.4c0.5-0.1,1.1,0.3,0.9,0.9   c-1.4,4.5-0.1,9.3,3.4,12.3C22.8,62.8,23.1,60.8,23.7,58.9z M27.9,43.8c0.7-6.6,4-11.5,8.6-14.6c0,0,0-0.1,0.1-0.1   c0.1-0.1,0.2-0.2,0.3-0.2c0.4-0.2,0.8-0.5,1.2-0.7c-0.2-1.9-0.3-3.8-0.2-5.6c-1.5,1.7-2.5,3.9-2.8,6.1c-0.1,0.5-0.7,0.7-1.1,0.4   c-2.7-2-4.7-4.4-6.2-7.3c-0.2,3.6,0.9,7.2,3.4,10c0.5,0.6,0,1.4-0.7,1.3c-2.9-0.4-5.2-1.4-7.5-3c0.2,2.7,1.9,4.7,4,6.6   c0.6,0.6-0.1,1.4-0.7,1.3c-2.1-0.3-4.1-0.1-6,0.7c2.1,0.6,3.9,1.8,5.5,3.6c0.4,0.5,0.1,1.2-0.5,1.3c-3.2,0.3-6.1,2.1-7.6,4.9   c2.3-0.5,4.5-1,6.8-1.3c0.6-0.1,1.2,0.5,0.8,1.1c-1.6,2.6-2,5.8-0.9,8.7c0.9-2,2.1-3.9,3.7-5.6C27.7,48.9,27.6,46.4,27.9,43.8z    M31.7,36.7c-0.6,1.1-1.1,2.3-1.5,3.6c0.3-0.1,0.5-0.3,0.8-0.4c0.2-1.1,0.5-2.2,0.9-3.2C31.7,36.6,31.7,36.6,31.7,36.7z M39.5,67.5   c-0.6-0.8-1-1.7-1.4-2.7c-1.2-2.9-0.6-5.4-0.7-8.3c0-1.9-0.8-3.8-0.9-5.9c-0.2-3.5,0.6-7.1,2.2-10.2c0.4-0.8,0.9-1.4,1.4-1.9   c-1.1,0.1-2.3,0.3-3.4,0.6c-0.2,0.9-0.3,1.9-0.3,2.8c0,1-1.5,1-1.5,0c0-0.8,0.1-1.6,0.2-2.4c-1,0.3-1.9,0.7-2.9,1.2   c-0.2,1.7-0.3,3.4-0.1,5.1c0.1,1-1.4,0.9-1.5,0c-0.2-1.4-0.2-2.9,0-4.2c-0.3,0.2-0.6,0.3-0.8,0.5c-0.1,0-0.1,0-0.2,0.1   c-0.3,1.7-0.5,3.5-0.4,5.4c0,1.2,0.2,2.4,0.4,3.6c0.1,0.1,0.1,0.3,0.1,0.4C31,57.9,34.5,63.5,39.5,67.5z M71.8,47.3   c-0.1-0.2-0.1-0.5,0-0.8c1.9-3.6,1.6-12.8-3.2-13.5c-0.2,0-0.5-0.3-0.5-0.5c-0.4-2.7-7.4-7.6-8.9-4.6c-0.2,0.4-0.9,0.5-1.2,0.2   c-0.3-0.4-0.6-0.7-0.9-1.1c-5.3,1.4-12.8,4.1-13.3,10.4c0,0.3-0.2,0.6-0.6,0.7c-4.1,1.2-8.5,14.1-3.8,16.6c0.3,0.2,0.5,0.7,0.3,1   c-3.1,4.2-0.1,12,4.5,14.8c0.2,0.1,0.4,0.2,0.7,0.3c0,0,0.1,0.1,0.1,0.1c0.2,0.1,0.4,0.2,0.6,0.3c1.3,0.5,2-0.1,3.2,0.2   c0.3,0.1,1,0.7,1.5,0.9c1.3,0.5,2.9,0.4,4.2,0.3c3.4-0.2,9.5-1.5,9.8-5.3c0-0.3,0.2-0.6,0.6-0.7C70.9,65,75.3,52.7,71.8,47.3z"></path></g></svg>
