<svg fill="#F38F19" xmlns="http://www.w3.org/2000/svg" xmlns:xlink="http://www.w3.org/1999/xlink" version="1.1" x="0px" y="0px" viewBox="0 0 100 100" enable-background="new 0 0 100 100" xml:space="preserve"><g><g><path fill="#F38F19" d="M22.385,97.53l4.049-44.315C27.512,41.381,37.806,32.6,49.879,33.698c2.777,0.254,5.446,1.036,7.938,2.325    c2.48,1.583,4.494,3.504,6.103,5.781c3.318,4.708,4.613,10.426,3.639,16.103c-0.981,5.681-4.112,10.637-8.817,13.96L22.385,97.53z     M47.889,36.528c-9.689,0-17.667,7.287-18.546,16.952L25.87,91.497L57.059,69.48c4.066-2.872,6.775-7.158,7.619-12.067    c0.844-4.91-0.273-9.854-3.143-13.923c-1.391-1.97-3.13-3.63-5.172-4.94c-2.041-1.048-4.352-1.724-6.752-1.943    C49.035,36.553,48.459,36.528,47.889,36.528z"></path></g><g><path fill="#F38F19" d="M58.439,37.999l-2.584-1.356c0.034-0.062,1.096-2.14,2.105-5.233c-5.59-6.437-12.325-22.87-8.84-26.762    c0.958-1.071,2.852-1.76,6.421,1C69.514,16.453,58.553,37.783,58.439,37.999z M51.265,6.627c-0.022,0-0.034,0.001-0.034,0.001    c-1.329,1.436,2.338,14.129,7.688,21.333c1.455-6.356,1.631-14.753-5.161-20.004C52.137,6.708,51.424,6.627,51.265,6.627z"></path></g><g><path fill="#F38F19" d="M56.904,36.088l2.652-3.543c0.285-0.386,7.152-9.438,14.987-9.438c1.882,0,3.667,0.522,5.315,1.551    c0.764,0.48,3.103,1.942,2.646,4.052c-0.634,2.909-5.982,3.83-14.72,5.002c-2.749,0.368-5.344,0.716-6.644,1.106L56.904,36.088z     M74.544,26.027c-3.752,0-7.431,2.815-9.849,5.161c0.844-0.121,1.75-0.242,2.697-0.37c3.633-0.487,11.109-1.489,12.227-2.735    c-0.119-0.036-0.433-0.399-1.311-0.95C77.116,26.389,75.885,26.027,74.544,26.027z"></path></g><g><path fill="#F38F19" d="M65.111,24.807l0.502-3c0.223-1.303,2.367-12.729,8.857-12.729c0.689,0,1.396,0.135,2.104,0.402    c2.048,0.773,2.555,2.049,2.623,2.981c0.279,3.751-7.037,8.414-11.416,10.859L65.111,24.807z M74.471,11.998    c-2.328,0-4.141,3.711-5.174,7.02c4.357-2.774,7.061-5.362,6.992-6.342c-0.006-0.051-0.188-0.253-0.746-0.465    C75.166,12.069,74.807,11.998,74.471,11.998z"></path></g><g><rect x="55.141" y="44.982" transform="matrix(0.866 0.5 -0.5 0.866 31.3639 -24.1657)" fill="#F38F19" width="11.267" height="2.92"></rect></g><g><rect x="25.419" y="72.426" transform="matrix(0.866 0.5 -0.5 0.866 41.2478 -6.1744)" fill="#F38F19" width="13.454" height="2.92"></rect></g><g><rect x="32.957" y="43.356" transform="matrix(0.8661 0.4999 -0.4999 0.8661 27.9534 -14.7162)" fill="#F38F19" width="16.975" height="2.92"></rect></g><g><rect x="27.22" y="53.878" transform="matrix(0.8661 0.4999 -0.4999 0.8661 32.075 -9.0567)" fill="#F38F19" width="11.444" height="2.92"></rect></g><g><rect x="42.729" y="71.828" transform="matrix(0.8659 0.5002 -0.5002 0.8659 42.9519 -13.6461)" fill="#F38F19" width="8.397" height="2.92"></rect></g><g><rect x="48.932" y="56.392" transform="matrix(0.866 0.5001 -0.5001 0.866 35.7482 -17.6756)" fill="#F38F19" width="3.833" height="2.92"></rect></g><g><rect x="54.746" y="61.26" transform="matrix(0.866 0.5001 -0.5001 0.866 39.3096 -21.239)" fill="#F38F19" width="9.069" height="2.92"></rect></g><g><rect x="49.041" y="39.508" transform="matrix(0.8658 0.5004 -0.5004 0.8658 27.3847 -20.168)" fill="#F38F19" width="4.498" height="2.92"></rect></g><g><path fill="#F38F19" d="M20.343,79.208l-2.908-0.254l2.127-24.491c1.123-12.918,6.815-19.636,11.394-22.997l1.728,2.355    c-5.948,4.367-9.387,11.397-10.213,20.896L20.343,79.208z"></path></g><g><path fill="#F38F19" d="M37.84,31.016l-1.038-2.729c2.794-1.065,4.825-1.252,4.91-1.259l0.257,2.909    C41.952,29.938,40.224,30.106,37.84,31.016z"></path></g></g></svg>