<svg fill="#054108" xmlns="http://www.w3.org/2000/svg" xmlns:xlink="http://www.w3.org/1999/xlink" version="1.1" x="0px" y="0px" viewBox="0 0 100 100" enable-background="new 0 0 100 100" xml:space="preserve"><g><g><path d="M70.285,75.716c0,0-1.025-3.45-2.65-4.146c0,0-0.408-0.24-0.969-0.553c-0.545,1.252-1.182,2.502-1.777,3.6    c0.945,0.97,2.264,2.684,2.264,2.684c1.25,1.25,0.916,4.834,0.916,4.834c-0.625,3.082,0.959,5.708,0.959,5.708    c2.125,3.375,5.959,3,5.959,3c3.207-0.25,4.582-2,4.582-2c1.75-2.417,2.084-2.167,2.084-2.167c1.25-0.375,0.834,1.25,0.834,1.25    c-0.334,2.25,0.957,3.209,0.957,3.209c-0.541,0.5-0.5,0.958-0.5,0.958c-0.041,2.125,2.543,2.583,2.543,2.583    c1.457,0.25,2.75,1.084,2.75,1.084c1.707,1.542,3.457,0.375,3.457,0.375c1.959-1.125,0.668-2.167,0.668-2.167    c-0.5-0.5-1.5-1.167-1.5-1.167c-1-0.625-1.209-1.833-1.209-1.833c-0.332-2.083-2.291-1.792-2.291-1.792    c-1.125,0.334-0.918-1.291-0.918-1.291c0.209-2.918-0.957-3.875-0.957-3.875c-1.584-1.918-4.293-1.375-4.293-1.375    c-2.041,0.416-2.916,2-2.916,2c-0.666,1.082-1.584,1.416-1.584,1.416c-3.291,1.25-3.707-1.25-3.707-1.25    c-0.459-1.291,0.291-3.416,0.291-3.416c0.068-0.208,0.123-0.42,0.172-0.632c-0.049-0.034-0.1-0.062-0.147-0.096    C73.301,80.657,70.854,78.811,70.285,75.716z M87.223,91.917c0.367,0,0.666,0.317,0.666,0.708s-0.299,0.708-0.666,0.708    c-0.369,0-0.668-0.317-0.668-0.708S86.854,91.917,87.223,91.917z"></path><path d="M32.7,71.57c-1.625,0.695-2.65,4.146-2.65,4.146c-0.568,3.095-3.017,4.941-3.017,4.941    c-0.07,0.051-0.141,0.09-0.212,0.137c0.046,0.198,0.096,0.396,0.16,0.59c0,0,0.75,2.125,0.292,3.416c0,0-0.416,2.5-3.708,1.25    c0,0-0.918-0.334-1.584-1.416c0,0-0.874-1.584-2.916-2c0,0-2.709-0.543-4.292,1.375c0,0-1.166,0.957-0.958,3.875    c0,0,0.208,1.625-0.917,1.291c0,0-1.959-0.291-2.292,1.793c0,0-0.208,1.207-1.208,1.832c0,0-1,0.668-1.5,1.168    c0,0-1.291,1.041,0.667,2.166c0,0,1.75,1.168,3.458-0.375c0,0,1.292-0.834,2.75-1.084c0,0,2.584-0.457,2.542-2.582    c0,0,0.042-0.459-0.5-0.959c0,0,1.291-0.959,0.958-3.209c0,0-0.417-1.625,0.833-1.25c0,0,0.334-0.25,2.084,2.168    c0,0,1.375,1.75,4.583,2c0,0,3.833,0.375,5.958-3c0,0,1.584-2.627,0.959-5.709c0,0-0.334-3.584,0.916-4.834    c0,0,1.167-1.518,2.094-2.505c-0.6-1.095-1.247-2.354-1.806-3.622C32.981,71.404,32.7,71.57,32.7,71.57z M13.5,92.625    c-0.369,0-0.667-0.316-0.667-0.709c0-0.391,0.298-0.708,0.667-0.708c0.368,0,0.667,0.317,0.667,0.708    C14.167,92.309,13.868,92.625,13.5,92.625z"></path><path d="M27.73,73.468c0.875-1.969,2.013-3.419,3.016-4.427c-0.032-0.002-0.058-0.003-0.093-0.005    c-0.745-0.039-2.205-0.673-2.205-0.673c-0.298-0.155-0.564-0.346-0.806-0.557c-0.944,1.318-2.011,3.227-2.148,5.272    c0,0-0.095,2.251-1.001,3.278c0,0-1.317,2.166-3.907-0.221c0,0-0.728-0.652-0.942-1.904c0,0-0.221-1.795-1.961-2.941    c0,0-2.312-1.514-4.495-0.323c0,0-1.438,0.454-2.333,3.24c0,0-0.412,1.585-1.332,0.856c0,0-1.71-1-2.795,0.81    c0,0-0.643,1.043-1.804,1.251c0,0-1.177,0.247-1.827,0.525c0,0-1.586,0.483-0.188,2.258c0,0,1.189,1.736,3.349,0.939    c0,0,1.51-0.293,2.956,0.02c0,0,2.568,0.538,3.321-1.45c0,0,0.21-0.41-0.107-1.076c0,0,1.555-0.409,2.084-2.62    c0,0,0.218-1.664,1.238-0.851c0,0,0.403-0.106,1.127,2.788c0,0,0.624,2.136,3.508,3.562c0,0,3.27,1.688,6.435-0.429    C26.02,77.342,27.73,73.468,27.73,73.468z M8.25,79.042c-0.369,0-0.667-0.317-0.667-0.708s0.298-0.708,0.667-0.708    c0.368,0,0.667,0.317,0.667,0.708S8.618,79.042,8.25,79.042z"></path><path d="M30.049,75.716c0,0,1.025-3.45,2.65-4.146c0,0,0.282-0.166,0.693-0.397c-0.511-1.155-0.939-2.308-1.188-3.336    c-0.359,0.761-0.808,1.236-0.808,1.236s-0.008,0-0.651-0.032c-1.003,1.008-2.141,2.458-3.016,4.427c0,0-1.711,3.874-0.91,7.326    c0.071-0.047,0.142-0.086,0.212-0.137C27.033,80.657,29.481,78.811,30.049,75.716z"></path><path d="M97.236,77.65c-0.65-0.277-1.826-0.524-1.826-0.524c-1.162-0.208-1.805-1.251-1.805-1.251    c-1.084-1.811-2.795-0.811-2.795-0.811c-0.92,0.729-1.332-0.855-1.332-0.855c-0.894-2.786-2.332-3.24-2.332-3.24    c-2.185-1.189-4.494,0.323-4.494,0.323c-1.74,1.146-1.963,2.94-1.963,2.94c-0.215,1.254-0.941,1.904-0.941,1.904    c-2.59,2.387-3.907,0.223-3.907,0.223c-0.905-1.028-1.001-3.279-1.001-3.279c-0.141-2.1-1.259-4.055-2.22-5.374    c-0.271,0.25-0.574,0.478-0.92,0.657c0,0-1.447,0.628-2.195,0.672c1.005,1.009,2.146,2.46,3.022,4.433    c0,0,1.697,3.845,0.921,7.285c3.186,2.183,6.499,0.47,6.499,0.47c2.885-1.428,3.509-3.562,3.509-3.562    c0.724-2.896,1.127-2.788,1.127-2.788c1.021-0.813,1.237,0.851,1.237,0.851c0.529,2.211,2.086,2.62,2.086,2.62    c-0.317,0.666-0.107,1.076-0.107,1.076c0.752,1.988,3.32,1.45,3.32,1.45c1.447-0.312,2.957-0.02,2.957-0.02    c2.158,0.797,3.348-0.939,3.348-0.939C98.822,78.136,97.236,77.65,97.236,77.65z M91.167,79.042c-0.368,0-0.667-0.317-0.667-0.708    s0.299-0.708,0.667-0.708s0.667,0.317,0.667,0.708S91.535,79.042,91.167,79.042z"></path><path d="M67.84,67.618c0.004,0.003,0.008,0.006,0.012,0.009c-0.002-0.007-0.006-0.014-0.009-0.021    C67.842,67.609,67.841,67.614,67.84,67.618z"></path><path d="M72.527,73.468c-0.877-1.973-2.019-3.424-3.022-4.433c-0.003,0-0.007,0.001-0.01,0.001    c-0.744,0.037-0.744,0.037-0.744,0.037s-0.53-0.564-0.899-1.446c-0.004-0.003-0.008-0.006-0.012-0.009    c-0.229,1.036-0.656,2.214-1.174,3.399c0.561,0.312,0.969,0.553,0.969,0.553c1.625,0.695,2.65,4.146,2.65,4.146    c0.566,3.095,3.016,4.941,3.016,4.941c0.049,0.034,0.1,0.062,0.147,0.096C74.227,77.312,72.527,73.468,72.527,73.468z"></path><path d="M28.735,60.579c0.374,1.263,0.932,1.999,1.472,2.435c-0.263-0.884-0.448-1.785-0.448-2.592c0,0-0.218-3.646-0.305-7.479    c-0.358-0.356-0.715-0.741-1.064-1.17c0,0-1.902-2.347-2.577-5.208c-2.754-1.176-5.314,0.102-5.314,0.102    c-2.904,1.387-3.558,3.514-3.558,3.514c-0.764,2.885-1.166,2.772-1.166,2.772c-1.031,0.799-1.226-0.867-1.226-0.867    c-0.498-2.219-2.047-2.65-2.047-2.65c0.326-0.661,0.122-1.075,0.122-1.075c-0.724-1.999-3.3-1.497-3.3-1.497    c-1.45,0.291-2.956-0.023-2.956-0.023c-2.148-0.826-3.361,0.893-3.361,0.893c-1.423,1.754,0.156,2.26,0.156,2.26    c0.646,0.288,1.819,0.552,1.819,0.552C6.14,50.77,6.769,51.82,6.769,51.82c1.059,1.826,2.783,0.851,2.783,0.851    c0.93-0.717,1.32,0.875,1.32,0.875c0.854,2.797,2.287,3.271,2.287,3.271c2.166,1.223,4.499-0.26,4.499-0.26    c1.756-1.121,2.002-2.912,2.002-2.912c0.232-1.25,0.969-1.893,0.969-1.893c2.624-2.35,3.91-0.166,3.91-0.166    c0.892,1.041,0.955,3.293,0.955,3.293c0.065,1.227,0.466,2.407,0.975,3.445C28.425,59.253,28.735,60.579,28.735,60.579z     M8.917,50.708c-0.369,0-0.667-0.317-0.667-0.708s0.298-0.708,0.667-0.708c0.368,0,0.667,0.317,0.667,0.708    S9.285,50.708,8.917,50.708z"></path><path d="M70.525,53.633c-0.096,3.559-0.287,6.76-0.287,6.76c0,0.861-0.209,1.834-0.502,2.775c0.601-0.407,1.256-1.167,1.677-2.589    c0,0,0.343-1.478,2.606-2.402c0.474-1.001,0.838-2.129,0.899-3.296c0,0,0.062-2.252,0.954-3.293c0,0,1.286-2.184,3.91,0.166    c0,0,0.736,0.643,0.969,1.893c0,0,0.247,1.791,2.003,2.912c0,0,2.332,1.481,4.498,0.26c0,0,1.433-0.475,2.287-3.271    c0,0,0.392-1.592,1.319-0.875c0,0,1.725,0.978,2.783-0.85c0,0,0.627-1.052,1.785-1.275c0,0,1.174-0.264,1.82-0.552    c0,0,1.578-0.506,0.154-2.26c0,0-1.213-1.719-3.36-0.893c0,0-1.506,0.314-2.956,0.023c0,0-2.576-0.502-3.3,1.497    c0,0-0.204,0.414,0.122,1.075c0,0-1.551,0.431-2.049,2.65c0,0-0.193,1.666-1.226,0.867c0,0-0.401,0.113-1.166-2.772    c0,0-0.653-2.127-3.559-3.514c0,0-2.353-1.174-4.974-0.236c-0.646,2.923-2.61,5.342-2.61,5.342    C71.738,52.496,71.129,53.109,70.525,53.633z M91.834,48.584c0.367,0,0.666,0.317,0.666,0.708S92.201,50,91.834,50    c-0.369,0-0.668-0.317-0.668-0.708S91.465,48.584,91.834,48.584z"></path><path d="M73,41.663c0,0-2.352,2.596-2.684,3.453c0.231,1.278,0.283,3.687,0.254,6.224c0.791-2.516,2.703-4.014,2.703-4.014    c0.555-0.414,1.115-0.698,1.666-0.895c0.148-0.68,0.229-1.387,0.193-2.098c0,0-0.166-2.247,0.616-3.373    c0,0,0.308-0.657,1.026-0.952C75.656,40.194,73.703,40.65,73,41.663z"></path><path d="M79.656,40.731c0,0,0.798,0.563,1.154,1.783c0,0,0.428,1.758,2.289,2.695c0,0,2.469,1.238,4.5-0.197    c0,0,1.377-0.617,1.944-3.487c0,0,0.228-1.622,1.226-1.004c0,0,1.812,0.797,2.682-1.127c0,0,0.52-1.11,1.648-1.449    c0,0,1.141-0.382,1.754-0.733c0,0,1.52-0.664-0.074-2.265c0,0-1.381-1.587-3.434-0.548c0,0-1.468,0.465-2.938,0.322    c0,0-2.614-0.239-3.132,1.823c0,0-0.162,0.432,0.229,1.057c0,0-1.498,0.586-1.769,2.844c0,0-0.025,1.677-1.133,0.987    c0,0-0.389,0.153-1.439-2.64c0,0-0.117-0.264-0.393-0.644c-0.651,0.492-2.537,1.722-4.979,1.74    C78.305,39.955,78.919,40.194,79.656,40.731z M91.5,36.244c0.367,0,0.666,0.317,0.666,0.708c0,0.391-0.299,0.708-0.666,0.708    c-0.369,0-0.668-0.317-0.668-0.708C90.832,36.561,91.131,36.244,91.5,36.244z"></path><path d="M70.57,51.34c-0.01,0.764-0.024,1.535-0.045,2.293c0.604-0.521,1.213-1.137,1.803-1.857c0,0,1.966-2.419,2.611-5.343    c-0.551,0.197-1.111,0.48-1.666,0.895C73.273,47.326,71.361,48.824,70.57,51.34z"></path><path d="M29.421,50.261c-0.002-1.996,0.058-3.809,0.231-4.918c0-0.002-0.003-0.01-0.003-0.01c0.172-0.478-2.722-3.67-2.722-3.67    c-0.479-0.692-1.543-1.122-2.527-1.386c0.392,0.311,0.568,0.684,0.568,0.684c0.782,1.126,0.616,3.373,0.616,3.373    c-0.037,0.758,0.059,1.51,0.229,2.231c0.44,0.188,0.884,0.432,1.324,0.761C27.138,47.326,28.519,48.4,29.421,50.261z"></path><path d="M17.699,38.522c-0.094,0.161-0.145,0.271-0.145,0.271c-1.052,2.793-1.44,2.64-1.44,2.64    c-1.106,0.69-1.132-0.987-1.132-0.987c-0.271-2.258-1.769-2.844-1.769-2.844c0.392-0.625,0.23-1.057,0.23-1.057    c-0.518-2.062-3.132-1.823-3.132-1.823C8.839,34.865,7.373,34.4,7.373,34.4c-2.053-1.04-3.435,0.548-3.435,0.548    c-1.593,1.601-0.074,2.265-0.074,2.265c0.614,0.352,1.755,0.733,1.755,0.733c1.13,0.339,1.648,1.449,1.648,1.449    c0.868,1.924,2.682,1.127,2.682,1.127c0.997-0.618,1.225,1.004,1.225,1.004c0.567,2.87,1.944,3.487,1.944,3.487    c2.031,1.435,4.501,0.197,4.501,0.197c1.86-0.938,2.288-2.695,2.288-2.695c0.357-1.22,1.155-1.783,1.155-1.783    c0.621-0.452,1.152-0.687,1.611-0.792c-0.212-0.028-0.339-0.039-0.339-0.039C20.302,39.943,18.633,39.116,17.699,38.522z     M10.25,38.368c-0.369,0-0.667-0.317-0.667-0.708c0-0.391,0.298-0.708,0.667-0.708c0.368,0,0.667,0.317,0.667,0.708    C10.917,38.051,10.618,38.368,10.25,38.368z"></path><path d="M29.455,52.943c-0.02-0.899-0.033-1.808-0.034-2.683c-0.902-1.861-2.283-2.935-2.283-2.935    c-0.44-0.329-0.884-0.573-1.324-0.761c0.674,2.862,2.577,5.208,2.577,5.208C28.74,52.202,29.097,52.587,29.455,52.943z"></path><path d="M21.45,35.657c0,0,3.6-1.37,6.538,1.328c0,0,2.018,1.954,2.372,4.877c0.34-1.021,0.874-2.229,1.707-3.496    c-0.489-0.134-0.996-0.379-1.502-0.782c0,0,0.071-0.604-0.33-1.333c-1.475-0.735-3.891-1.662-6.233-1.342    c0,0-2.225,0.359-3.414-0.322c0,0-2.386-0.855-0.569-3.872c0,0,0.493-0.844,1.676-1.306c0,0,1.714-0.578,2.488-2.513    c0,0,1.017-2.569-0.588-4.468c0,0-0.734-1.318-3.643-1.633c0,0-1.636-0.085-1.107-1.132c0,0,0.636-1.876-1.355-2.575    c0,0-1.151-0.42-1.587-1.515c0,0-0.479-1.103-0.882-1.684c0,0-0.794-1.456-2.25,0.271c0,0-1.461,1.514-0.247,3.469    c0,0,0.59,1.42,0.576,2.899c0,0-0.011,2.625,2.088,2.962c0,0,0.444,0.123,1.033-0.321c0,0,0.713,1.441,2.987,1.515    c0,0,1.673-0.121,1.082,1.042c0,0,0.187,0.373-2.505,1.664c0,0-1.967,1.041-2.785,4.153c0,0-1.052,3.705,1.89,6.397    c0,0,0.3,0.258,0.811,0.583C18.04,37.938,19.076,36.508,21.45,35.657z M16.067,20.19c-0.369,0-0.667-0.317-0.667-0.708    s0.298-0.708,0.667-0.708c0.368,0,0.667,0.317,0.667,0.708S16.435,20.19,16.067,20.19z"></path><path d="M22.673,39.939c0.379,0.049,1.034,0.152,1.728,0.338C24.033,39.985,23.47,39.756,22.673,39.939z"></path><path d="M26.928,41.663c0,0,2.894,3.192,2.722,3.67c0,0,0.002,0.008,0.003,0.01c0.032-0.204,0.067-0.389,0.107-0.542    c0,0,0.02-1.196,0.6-2.938c-0.354-2.923-2.372-4.877-2.372-4.877c-2.938-2.698-6.538-1.328-6.538-1.328    c-2.374,0.851-3.41,2.28-3.751,2.865c0.935,0.594,2.603,1.421,4.636,1.378c0,0,0.126,0.011,0.339,0.039    c0.796-0.183,1.359,0.046,1.728,0.338C25.385,40.541,26.448,40.971,26.928,41.663z"></path><path d="M69.959,37.453c-0.686,0.543-1.369,0.802-2.01,0.885c1.287,1.967,1.854,3.794,2.1,4.99    c0.174-0.627,0.256-1.087,0.256-1.087c0.207-3.139,2.426-5.255,2.426-5.255c2.938-2.698,6.539-1.328,6.539-1.328    c1.957,0.701,3.002,1.798,3.504,2.491c0.158-0.12,0.268-0.209,0.268-0.209c2.941-2.693,1.891-6.397,1.891-6.397    c-0.818-3.112-2.785-4.153-2.785-4.153c-2.69-1.291-2.504-1.664-2.504-1.664c-0.593-1.163,1.082-1.042,1.082-1.042    c2.272-0.073,2.985-1.515,2.985-1.515c0.588,0.444,1.033,0.321,1.033,0.321c2.098-0.337,2.088-2.962,2.088-2.962    c-0.015-1.479,0.576-2.899,0.576-2.899c1.213-1.956-0.248-3.469-0.248-3.469c-1.455-1.727-2.25-0.271-2.25-0.271    c-0.402,0.581-0.882,1.684-0.882,1.684c-0.438,1.095-1.588,1.515-1.588,1.515c-1.991,0.699-1.354,2.575-1.354,2.575    c0.528,1.047-1.106,1.132-1.106,1.132c-2.908,0.315-3.644,1.633-3.644,1.633c-1.604,1.899-0.588,4.468-0.588,4.468    c0.772,1.935,2.487,2.513,2.487,2.513c1.184,0.462,1.677,1.306,1.677,1.306c1.815,3.017-0.57,3.872-0.57,3.872    c-1.188,0.681-3.413,0.322-3.413,0.322c-1.996-0.272-4.041,0.361-5.517,1.009C69.873,36.735,69.959,37.453,69.959,37.453z     M84.334,19.482C84.702,19.482,85,19.8,85,20.19s-0.298,0.708-0.666,0.708c-0.369,0-0.667-0.317-0.667-0.708    S83.965,19.482,84.334,19.482z"></path><path d="M76.775,40.01c0.486-0.08,0.817-0.109,0.817-0.109c0.069,0.001,0.132-0.011,0.199-0.012    C77.389,39.836,77.053,39.896,76.775,40.01z"></path><path d="M79.27,35.657c0,0-3.601-1.37-6.539,1.328c0,0-2.219,2.117-2.426,5.255c0,0-0.082,0.46-0.256,1.087    c0.182,0.884,0.189,1.424,0.189,1.424c0.029,0.107,0.055,0.231,0.078,0.364C70.648,44.259,73,41.663,73,41.663    c0.703-1.013,2.656-1.469,3.775-1.653c0.276-0.114,0.613-0.173,1.018-0.121c2.443-0.019,4.328-1.249,4.98-1.74    C82.271,37.455,81.227,36.358,79.27,35.657z"></path><path d="M35.512,34.583c1.378-1.128,3.082-2.201,5.2-3.122c0,0,0.06-0.011,0.145-0.027c0.651-1.981,2.937-3.6,5.964-4.325    c0.956-1.289,1.311-2.487,1.311-2.487c1.053-3.847-1.814-6.419-1.814-6.419c-2.352-2.196-4.57-2.027-4.57-2.027    c-2.965,0.343-3.006-0.072-3.006-0.072c-1.121-0.668,0.359-1.459,0.359-1.459c1.883-1.274,1.719-2.874,1.719-2.874    c0.734,0.062,1.043-0.279,1.043-0.279c1.596-1.405,0.188-3.619,0.188-3.619c-0.801-1.244-1.059-2.76-1.059-2.76    c-0.018-2.301-2.061-2.803-2.061-2.803c-2.152-0.684-2.047,0.972-2.047,0.972c-0.031,0.707,0.152,1.894,0.152,1.894    C37.25,6.335,36.5,7.305,36.5,7.305c-1.311,1.653,0.227,2.9,0.227,2.9c1.008,0.604-0.332,1.548-0.332,1.548    c-2.291,1.818-2.209,3.324-2.209,3.324c-0.345,2.463,1.887,4.093,1.887,4.093c1.686,1.225,3.443,0.799,3.443,0.799    c1.248-0.24,2.115,0.211,2.115,0.211c3.145,1.583,1.582,3.578,1.582,3.578c-0.641,1.21-2.715,2.093-2.715,2.093    c-3.432,1.561-5.33,5.902-5.33,5.902c-0.219,0.502-0.396,0.992-0.548,1.47c0.325,0.339,0.618,0.731,0.83,1.189    C35.45,34.413,35.477,34.483,35.512,34.583z M39.711,8.329c0.368,0,0.667,0.317,0.667,0.708s-0.298,0.708-0.667,0.708    s-0.667-0.317-0.667-0.708S39.342,8.329,39.711,8.329z"></path><path d="M59.971,31.711c1.997,0.94,3.609,2.014,4.905,3.137c0.106-0.329,0.197-0.567,0.197-0.567    c0.167-0.361,0.386-0.68,0.628-0.966c-0.156-0.506-0.346-1.027-0.578-1.561c0,0-1.898-4.341-5.33-5.902    c0,0-2.074-0.883-2.715-2.093c0,0-1.562-1.996,1.582-3.578c0,0,0.867-0.451,2.115-0.211c0,0,1.758,0.426,3.442-0.799    c0,0,2.23-1.63,1.888-4.093c0,0,0.082-1.506-2.209-3.324c0,0-1.34-0.945-0.332-1.548c0,0,1.537-1.248,0.227-2.9    c0,0-0.75-0.97-0.535-2.129c0,0,0.184-1.188,0.152-1.894c0,0,0.105-1.656-2.047-0.972c0,0-2.043,0.501-2.062,2.803    c0,0-0.258,1.516-1.059,2.76c0,0-1.408,2.214,0.188,3.619c0,0,0.309,0.34,1.043,0.279c0,0-0.164,1.6,1.719,2.874    c0,0,1.479,0.791,0.358,1.459c0,0-0.041,0.415-3.006,0.072c0,0-2.219-0.169-4.569,2.027c0,0-2.867,2.573-1.814,6.419    c0,0,0.332,1.123,1.22,2.363C56.825,27.665,59.417,29.484,59.971,31.711z M60.955,9.745c-0.368,0-0.666-0.317-0.666-0.708    s0.298-0.708,0.666-0.708c0.369,0,0.667,0.317,0.667,0.708S61.324,9.745,60.955,9.745z"></path><path d="M69.634,63.486c-0.108,0.328-0.224,0.648-0.345,0.957c0.629,0.438,1.271,0.953,1.906,1.568c0,0,0.662,0.647,1.425,1.693    c1.378-1.273,1.83-3.197,1.83-3.197c0.272-1.972,0.733-2.089,0.733-2.089c0.893-0.792,1.406,0.879,1.406,0.879    c0.342,1.194,2.149,2.279,2.149,2.279c-0.121,0.883,1.114,1.715,1.114,1.715c1.35,1.199,2.795,0.286,2.795,0.286    c0.44-0.489,1.884-0.396,1.884-0.396c2.001,0.401,3.243-0.781,3.243-0.781c1.317-1.225,0.744-2.239,0.744-2.239    c-0.474-0.834-1.279-0.568-1.279-0.568l-0.512-0.143c-0.728-0.354-1.724-0.845-1.724-0.845c-0.833-0.965-2-1.166-2-1.166    c-0.815-0.258-1.966,0.25-1.966,0.25c-0.545,0.645-0.852-0.236-0.852-0.236c-0.554-0.979-1.734-2.561-1.734-2.561    c-1.406-1.552-3.505-1.035-3.505-1.035c-0.345,0.095-0.649,0.203-0.931,0.317c-1.055,2.226-2.646,3.822-2.646,3.822    C70.797,62.577,70.211,63.064,69.634,63.486z M82.346,63.918c0.368,0,0.666,0.316,0.666,0.708s-0.298,0.708-0.666,0.708    c-0.369,0-0.666-0.316-0.666-0.708S81.977,63.918,82.346,63.918z"></path><path d="M71.195,66.014c-0.635-0.617-1.277-1.133-1.906-1.568c-0.655,1.679-1.408,3.006-1.408,3.006    c-0.01,0.05-0.025,0.104-0.038,0.156c0.003,0.007,0.007,0.014,0.009,0.021c0.428,0.304,1.01,0.763,1.653,1.408    c0.748-0.044,2.195-0.672,2.195-0.672c0.346-0.181,0.647-0.407,0.92-0.657C71.857,66.66,71.195,66.014,71.195,66.014z"></path><path d="M68.751,69.073c0,0,0,0,0.744-0.037c0.003,0,0.007-0.001,0.01-0.001c-0.644-0.646-1.228-1.105-1.653-1.408    C68.221,68.509,68.751,69.073,68.751,69.073z"></path><path d="M71.413,60.579c-0.421,1.422-1.076,2.182-1.677,2.589c-0.033,0.107-0.067,0.213-0.104,0.318    c0.577-0.422,1.163-0.909,1.741-1.487c0,0,1.591-1.597,2.646-3.822C71.756,59.102,71.413,60.579,71.413,60.579z"></path><path d="M30.776,64.639c-0.2-0.5-0.392-1.035-0.555-1.578c-0.395-0.319-0.791-0.668-1.184-1.062c0,0-1.518-1.526-2.57-3.673    c-0.365-0.174-0.781-0.333-1.27-0.467c0,0-2.099-0.518-3.505,1.033c0,0-1.182,1.582-1.734,2.562c0,0-0.307,0.881-0.852,0.235    c0,0-1.15-0.506-1.966-0.25c0,0-1.167,0.203-2,1.168c0,0-0.996,0.488-1.723,0.844l-0.512,0.143c0,0-0.807-0.266-1.279,0.568    c0,0-0.574,1.016,0.744,2.24c0,0,1.242,1.183,3.243,0.781c0,0,1.442-0.095,1.884,0.396c0,0,1.445,0.913,2.794-0.286    c0,0,1.236-0.832,1.115-1.715c0,0,1.809-1.085,2.149-2.279c0,0,0.515-1.671,1.407-0.879c0,0,0.461,0.117,0.733,2.089    c0,0,0.476,2.029,1.944,3.3c0.791-1.104,1.497-1.795,1.497-1.795C29.684,65.482,30.234,65.033,30.776,64.639z M17.833,65.334    c-0.369,0-0.667-0.316-0.667-0.708s0.298-0.708,0.667-0.708c0.368,0,0.667,0.316,0.667,0.708S18.202,65.334,17.833,65.334z"></path><path d="M30.653,69.036c0.035,0.002,0.062,0.003,0.093,0.005c0.543-0.547,1.044-0.959,1.445-1.259    c-0.024-0.103-0.055-0.21-0.076-0.31c0,0-0.702-1.24-1.34-2.834c-0.542,0.395-1.093,0.844-1.638,1.373    c0,0-0.706,0.691-1.497,1.795c0.242,0.211,0.508,0.4,0.806,0.557C28.448,68.363,29.908,68.997,30.653,69.036z"></path><path d="M30.747,69.041c0.643,0.032,0.651,0.032,0.651,0.032s0.448-0.476,0.808-1.236c-0.004-0.019-0.009-0.036-0.013-0.055    C31.791,68.082,31.29,68.494,30.747,69.041z"></path><path d="M30.221,63.061c-0.004-0.017-0.009-0.031-0.014-0.047c-0.541-0.436-1.098-1.172-1.472-2.435c0,0-0.31-1.326-2.268-2.253    c1.052,2.146,2.57,3.673,2.57,3.673C29.43,62.393,29.827,62.74,30.221,63.061z"></path><path d="M32.529,37.702c0.43-0.585,0.929-1.178,1.503-1.766c0.098-0.824,0.279-1.738,0.589-2.713    c-1.206-1.256-2.893-1.737-2.893-1.737c-1.957-0.363-2.053-0.829-2.053-0.829c-0.75-0.929,0.943-1.365,0.943-1.365    c1.209-0.285,2.376-2.041,2.376-2.041c0.876,0.162,1.765-1.035,1.765-1.035c1.261-1.292,0.416-2.778,0.416-2.778    c-0.468-0.463-0.308-1.9-0.308-1.9c0.494-1.98-0.63-3.276-0.63-3.276c-1.162-1.374-2.203-0.847-2.203-0.847    c-0.855,0.433-0.627,1.251-0.627,1.251l-0.166,0.504c-0.388,0.709-0.923,1.682-0.923,1.682c-1.002,0.788-1.259,1.944-1.259,1.944    c-0.294,0.803,0.159,1.975,0.159,1.975c0.619,0.574-0.275,0.84-0.275,0.84c-1.003,0.507-2.638,1.614-2.638,1.614    c-1.614,1.333-1.196,3.453-1.196,3.453c0.706,3.146,2.553,3.66,2.553,3.66c1.492,0.518,2.218,1.265,2.573,1.913    c0.876,0.437,1.422,0.806,1.422,0.806C31.965,37.268,32.252,37.484,32.529,37.702z M33.313,22.524    c0.368,0,0.667,0.317,0.667,0.708s-0.298,0.708-0.667,0.708s-0.667-0.317-0.667-0.708S32.945,22.524,33.313,22.524z"></path><path d="M30.564,37.584c0.507,0.402,1.013,0.647,1.502,0.782c0.145-0.22,0.298-0.441,0.462-0.664    c-0.276-0.218-0.563-0.435-0.873-0.645c0,0-0.545-0.369-1.422-0.806C30.635,36.981,30.564,37.584,30.564,37.584z"></path><path d="M35.512,34.583c-0.035-0.1-0.062-0.17-0.062-0.17c-0.212-0.458-0.504-0.851-0.83-1.189    c-0.31,0.975-0.491,1.889-0.589,2.713C34.477,35.48,34.969,35.027,35.512,34.583z"></path><path d="M67.471,37.645c0.254-0.199,0.52-0.396,0.801-0.587c0,0,0.854-0.575,2.14-1.139c0.392-0.597,1.112-1.247,2.452-1.711    c0,0,1.847-0.513,2.553-3.66c0,0,0.419-2.12-1.195-3.453c0,0-1.636-1.107-2.639-1.614c0,0-0.895-0.266-0.275-0.84    c0,0,0.452-1.172,0.159-1.975c0,0-0.257-1.156-1.26-1.944c0,0-0.534-0.972-0.922-1.682l-0.166-0.504c0,0,0.228-0.818-0.627-1.251    c0,0-1.041-0.527-2.203,0.847c0,0-1.125,1.295-0.631,3.276c0,0,0.159,1.437-0.308,1.9c0,0-0.846,1.486,0.414,2.778    c0,0,0.889,1.196,1.766,1.035c0,0,1.168,1.756,2.377,2.041c0,0,1.691,0.437,0.943,1.365c0,0-0.097,0.466-2.054,0.829    c0,0-1.886,0.537-3.095,1.96c0.326,1.054,0.505,2.036,0.591,2.906C66.73,36.696,67.123,37.172,67.471,37.645z M68,23.94    c-0.369,0-0.667-0.317-0.667-0.708s0.298-0.708,0.667-0.708c0.368,0,0.666,0.317,0.666,0.708S68.368,23.94,68,23.94z"></path><path d="M67.471,37.645c0.17,0.232,0.328,0.463,0.479,0.693c0.641-0.083,1.324-0.341,2.01-0.885c0,0-0.086-0.717,0.451-1.535    c-1.284,0.564-2.139,1.139-2.139,1.139C67.988,37.249,67.725,37.446,67.471,37.645z"></path><path d="M64.876,34.848c0.522,0.452,0.991,0.912,1.416,1.373c-0.086-0.871-0.265-1.853-0.591-2.906    c-0.242,0.287-0.461,0.605-0.628,0.966C65.073,34.281,64.982,34.519,64.876,34.848z"></path><path d="M44.571,29.185c0,0-1.149,0.874-2.012,1.962c1.988-0.309,5.169-0.718,7.441-0.584v-0.065    c2.38-0.14,5.759,0.316,7.717,0.629c-0.861-1.079-1.996-1.941-1.996-1.941c-1.029-0.62-1.791-1.433-2.341-2.2    c-0.946-0.187-1.953-0.291-3.001-0.291c-1.258,0-2.456,0.15-3.559,0.415C46.279,27.839,45.546,28.599,44.571,29.185z"></path><path d="M40.856,31.434c0.257-0.048,0.871-0.158,1.702-0.287c0.863-1.088,2.012-1.962,2.012-1.962    c0.975-0.586,1.708-1.346,2.25-2.076C43.793,27.834,41.508,29.453,40.856,31.434z"></path><path d="M55.721,29.185c0,0,1.135,0.862,1.996,1.941c0.95,0.152,1.57,0.271,1.57,0.271c0.234,0.103,0.459,0.208,0.684,0.314    c-0.554-2.227-3.146-4.046-6.591-4.726C53.93,27.752,54.689,28.565,55.721,29.185z"></path><path d="M31.495,55.396c-0.007-0.256-0.014-0.514-0.02-0.771c-0.234-0.162-0.471-0.333-0.713-0.521    C30.965,54.54,31.211,54.994,31.495,55.396z"></path><path d="M41.296,35.348c0.114-0.052,0.212-0.109,0.329-0.16c0,0,0.02-0.004,0.031-0.006c-0.103-0.127-0.201-0.256-0.288-0.388    C41.343,34.975,41.319,35.16,41.296,35.348z"></path><path d="M33.434,38.479c0.202,0.187,0.393,0.374,0.574,0.561c-0.022-0.188-0.041-0.405-0.055-0.643    C33.787,38.434,33.613,38.461,33.434,38.479z"></path><path d="M41.688,81c0,0-2.062-1.875-3.312-3.688c0,0-0.952-1.494-1.993-3.445c-0.086,0.066-0.15,0.101-0.15,0.101    c-0.167-0.028-0.57,0.335-1.032,0.827c1.029,1.876,1.908,3.252,1.908,3.252c1.386,2.004,3.674,4.078,3.674,4.078    C45.078,88,50,86.824,50,86.824V85.25C49.994,85.251,45.56,86.311,41.688,81z"></path><path d="M34.884,40.032c0.007-0.008,0.012-0.016,0.019-0.023c-0.013,0-0.026-0.001-0.039-0.002    C34.87,40.015,34.877,40.024,34.884,40.032z"></path><path d="M36.231,73.968c0,0,0.064-0.032,0.15-0.101c-0.567-1.062-1.156-2.262-1.636-3.432c-0.492,0.256-0.977,0.523-1.353,0.736    c0.56,1.268,1.207,2.527,1.806,3.622C35.662,74.303,36.065,73.939,36.231,73.968z"></path><path d="M32.252,67.736c0.52-0.383,0.854-0.561,0.854-0.561c0.302,0.281,0.567,0.545,0.825,0.803    c-0.017-0.074-0.041-0.154-0.056-0.229c0,0-0.833-1.471-1.457-3.216c-0.032-0.019-0.063-0.032-0.096-0.052    C32.863,65.738,32.627,66.896,32.252,67.736z"></path><path d="M33.105,67.177c0,0-0.334,0.179-0.854,0.562c-0.016,0.033-0.031,0.066-0.047,0.1c0.249,1.028,0.677,2.18,1.188,3.336    c0.376-0.213,0.861-0.48,1.353-0.736c-0.352-0.857-0.64-1.696-0.815-2.457C33.673,67.721,33.408,67.458,33.105,67.177z"></path><path d="M31.844,63.63c0.053,0.073,0.09,0.146,0.136,0.218c0.061-0.035,0.121-0.07,0.181-0.104    c-0.241-0.806-0.411-1.632-0.411-2.367c0,0-0.168-2.815-0.255-5.978c-0.284-0.403-0.53-0.857-0.732-1.295    c-0.431-0.338-0.87-0.726-1.308-1.16c0.086,3.834,0.305,7.479,0.305,7.479c0,0.808,0.185,1.708,0.448,2.593    C31.046,63.688,31.844,63.63,31.844,63.63z"></path><path d="M32.323,64.482c0.032,0.02,0.063,0.033,0.096,0.052c-0.092-0.259-0.178-0.524-0.257-0.792    c-0.061,0.035-0.121,0.068-0.181,0.104C32.118,64.062,32.232,64.273,32.323,64.482z"></path><path d="M30.763,54.104c0.242,0.188,0.479,0.359,0.713,0.521c-0.067-3.012-0.045-6.154,0.274-7.375c0,0,0.013-0.419,0.138-1.096    c-1.856,0.374-2.215-0.742-2.235-0.812c-0.174,1.11-0.234,2.923-0.231,4.918c0.293,0.604,0.536,1.289,0.664,2.047    C30.085,52.309,30.325,53.158,30.763,54.104z"></path><path d="M30.085,52.309c-0.128-0.759-0.371-1.443-0.664-2.046c0.001,0.875,0.014,1.783,0.034,2.681    c0.438,0.436,0.877,0.822,1.308,1.16C30.325,53.158,30.085,52.309,30.085,52.309z"></path><path d="M31.905,46.058c0.264-1.352,0.995-3.674,2.979-6.026c-0.007-0.008-0.014-0.017-0.021-0.025    c-0.234-0.014-0.451-0.021-0.702-0.041c0,0-0.086-0.338-0.154-0.926c-0.181-0.187-0.372-0.374-0.574-0.561    c-0.429,0.042-0.889,0.019-1.367-0.113c-0.833,1.267-1.367,2.475-1.707,3.496c0.016,0.128,0.046,0.246,0.055,0.378    C30.415,42.24,30.854,44.738,31.905,46.058z"></path><path d="M31.888,46.154c0.006-0.033,0.01-0.062,0.017-0.096c-1.05-1.32-1.49-3.818-1.49-3.818c-0.009-0.132-0.04-0.25-0.055-0.378    c-0.58,1.743-0.6,2.938-0.6,2.938c-0.04,0.153-0.075,0.338-0.107,0.542C29.672,45.412,30.032,46.528,31.888,46.154z"></path><path d="M36.023,37.391c0,0-0.848,0.731-2.07,1.006c0.015,0.238,0.033,0.455,0.055,0.643c0.315,0.327,0.6,0.65,0.855,0.967    c0.013,0,0.026,0.001,0.039,0.002c1.406-1.659,3.449-3.321,6.394-4.661c0.023-0.188,0.047-0.373,0.072-0.554    c-0.449-0.68-0.703-1.42-0.703-2.197c0-0.398,0.067-0.787,0.191-1.163c-0.085,0.016-0.145,0.027-0.145,0.027    c-2.118,0.92-3.821,1.993-5.2,3.122c0.145,0.402,0.505,1.465,0.508,2.064C36.023,37.391,36.023,37.391,36.023,37.391z"></path><path d="M34.162,39.966c0.251,0.02,0.468,0.027,0.702,0.041c-0.256-0.317-0.54-0.64-0.855-0.967    C34.076,39.628,34.162,39.966,34.162,39.966z"></path><path d="M30.221,63.061c0.164,0.543,0.355,1.078,0.555,1.578c0.284-0.207,0.565-0.397,0.843-0.572    C31.163,63.777,30.693,63.441,30.221,63.061z"></path><path d="M32.323,64.482c-0.23-0.127-0.465-0.267-0.704-0.416c-0.277,0.174-0.559,0.365-0.843,0.572    c0.638,1.594,1.34,2.834,1.34,2.834c0.021,0.1,0.051,0.207,0.076,0.31c0.019-0.015,0.041-0.031,0.06-0.046    C32.627,66.896,32.863,65.738,32.323,64.482z"></path><path d="M32.192,67.782c0.004,0.019,0.009,0.036,0.013,0.055c0.016-0.032,0.031-0.065,0.047-0.101    C32.233,67.751,32.211,67.77,32.192,67.782z"></path><path d="M31.98,63.848c-0.046-0.072-0.083-0.145-0.136-0.218c0,0-0.797,0.06-1.636-0.616c0.004,0.016,0.009,0.03,0.014,0.047    c0.472,0.381,0.941,0.717,1.398,1.006C31.74,63.99,31.86,63.917,31.98,63.848z"></path><path d="M31.619,64.066c0.239,0.149,0.473,0.289,0.704,0.416c-0.091-0.209-0.205-0.422-0.343-0.637    C31.86,63.917,31.74,63.99,31.619,64.066z"></path><path d="M33.953,38.397c-0.04-0.659-0.036-1.496,0.079-2.461c-0.574,0.588-1.073,1.181-1.503,1.766    c0.324,0.256,0.624,0.516,0.905,0.777C33.613,38.461,33.787,38.434,33.953,38.397z"></path><path d="M33.434,38.479c-0.281-0.261-0.582-0.521-0.905-0.777c-0.164,0.223-0.317,0.444-0.462,0.664    C32.545,38.498,33.005,38.521,33.434,38.479z"></path><path d="M33.953,38.397c1.222-0.274,2.07-1.006,2.07-1.006s0,0-0.003-0.745c-0.003-0.599-0.364-1.662-0.508-2.064    c-0.543,0.444-1.035,0.897-1.48,1.354C33.917,36.901,33.913,37.738,33.953,38.397z"></path><path d="M41.368,34.794c0.087,0.132,0.186,0.26,0.288,0.388c0.324-0.062,5.261-0.988,8.343-0.807v-3.812    c-2.272-0.133-5.453,0.275-7.441,0.584c-0.5,0.63-0.904,1.332-0.933,1.979C41.625,33.126,41.492,33.891,41.368,34.794z"></path><path d="M41.368,34.794c0.124-0.903,0.257-1.667,0.257-1.667c0.029-0.647,0.433-1.349,0.933-1.979    c-0.831,0.129-1.445,0.239-1.702,0.287c-0.124,0.376-0.191,0.765-0.191,1.163C40.666,33.374,40.919,34.114,41.368,34.794z"></path><path d="M68.514,55.096c-0.008,0.278-0.016,0.557-0.022,0.828c0.383-0.402,0.715-0.932,0.985-1.464    C69.145,54.698,68.823,54.908,68.514,55.096z"></path><path d="M58.893,35.438c0.041,0.02,0.08,0.04,0.121,0.059c-0.008-0.06-0.015-0.119-0.021-0.179    C58.958,35.359,58.927,35.399,58.893,35.438z"></path><path d="M63.704,73.703c-1.073,2.029-2.079,3.609-2.079,3.609C60.375,79.125,58.312,81,58.312,81C54.438,86.312,50,85.25,50,85.25    l0,0v1.574c0,0,4.921,1.177,9.218-4.705c0,0,2.288-2.077,3.673-4.082c0,0,0.932-1.458,1.998-3.42    c-0.389-0.396-0.717-0.674-0.861-0.649C64.025,73.968,63.866,73.891,63.704,73.703z"></path><path d="M66.35,38.207c-0.008,0.151-0.017,0.295-0.026,0.429c0.12-0.115,0.249-0.229,0.378-0.346    C66.579,38.266,66.463,38.238,66.35,38.207z"></path><path d="M68.115,46.172c0.031,0.173,0.058,0.327,0.076,0.461c0.168-0.103,0.328-0.237,0.475-0.396    C68.501,46.232,68.314,46.209,68.115,46.172z"></path><path d="M65.312,70.295c-0.467,1.155-1.045,2.342-1.607,3.408c0.162,0.188,0.322,0.265,0.322,0.265    c0.146-0.024,0.474,0.253,0.861,0.649c0.596-1.098,1.232-2.348,1.777-3.6C66.262,70.793,65.779,70.531,65.312,70.295z"></path><path d="M67.742,64.668c-0.088,0.046-0.176,0.094-0.262,0.137c-0.608,1.622-1.355,2.945-1.355,2.945    c-0.038,0.188-0.089,0.383-0.143,0.58c0.351-0.364,0.729-0.743,1.17-1.153c0,0,0.268,0.146,0.688,0.441    c0.001-0.004,0.002-0.009,0.003-0.013C67.518,66.82,67.323,65.79,67.742,64.668z"></path><path d="M65.982,68.33c-0.164,0.621-0.397,1.286-0.672,1.965c0.469,0.236,0.951,0.498,1.354,0.723    c0.517-1.186,0.944-2.361,1.174-3.398c-0.42-0.297-0.688-0.441-0.688-0.441C66.711,67.587,66.333,67.966,65.982,68.33z"></path><path d="M68.49,55.924c-0.09,2.941-0.24,5.451-0.24,5.451c0,0.688-0.146,1.451-0.361,2.206c0.107,0.06,0.219,0.124,0.329,0.188    c0.031-0.047,0.054-0.093,0.087-0.14c0,0,0.672,0.052,1.432-0.462c0.293-0.941,0.504-1.914,0.504-2.775    c0,0,0.191-3.201,0.287-6.76c-0.355,0.309-0.707,0.58-1.051,0.827C69.205,54.992,68.873,55.521,68.49,55.924z"></path><path d="M67.889,63.581c-0.119,0.416-0.26,0.827-0.406,1.224c0.084-0.043,0.172-0.091,0.261-0.137    c0.11-0.295,0.271-0.596,0.476-0.898C68.107,63.705,67.996,63.641,67.889,63.581z"></path><path d="M68.666,46.237c-0.146,0.16-0.307,0.293-0.475,0.396c0.051,0.383,0.059,0.616,0.059,0.616    c0.337,1.285,0.344,4.696,0.264,7.847c0.311-0.188,0.631-0.397,0.963-0.637c0.547-1.076,0.852-2.15,0.852-2.15    c0.058-0.341,0.146-0.66,0.242-0.97c0.029-2.537-0.021-4.946-0.254-6.224c-0.034,0.092-0.055,0.17-0.037,0.217    C70.277,45.333,70.033,46.275,68.666,46.237z"></path><path d="M69.477,54.46c0.344-0.247,0.694-0.521,1.051-0.827c0.02-0.758,0.035-1.529,0.043-2.293    c-0.098,0.311-0.186,0.629-0.242,0.969C70.327,52.309,70.023,53.384,69.477,54.46z"></path><path d="M66.7,38.29c-0.13,0.115-0.259,0.23-0.378,0.346c-0.067,0.838-0.193,1.331-0.193,1.331    c-0.363,0.029-0.689,0.043-1.02,0.059c2.051,2.425,2.762,4.815,3.006,6.147c0.199,0.037,0.386,0.06,0.551,0.064    c0.686-0.745,1.132-2.002,1.383-2.909c-0.246-1.196-0.812-3.023-2.1-4.99C67.507,38.395,67.088,38.364,66.7,38.29z"></path><path d="M70.277,45.333c-0.016-0.046,0.004-0.125,0.039-0.217c-0.023-0.133-0.049-0.257-0.078-0.364c0,0-0.008-0.541-0.189-1.424    c-0.251,0.907-0.697,2.165-1.383,2.909C70.033,46.275,70.277,45.333,70.277,45.333z"></path><path d="M58.992,35.319c0.007,0.06,0.014,0.119,0.021,0.179c2.762,1.308,4.713,2.897,6.066,4.489    c0.357-0.441,0.768-0.896,1.242-1.352c0.011-0.134,0.02-0.277,0.025-0.429c-1.1-0.306-1.848-0.947-1.848-0.947s0,0,0.004-0.745    c0.002-0.45,0.209-1.167,0.372-1.667c-1.296-1.123-2.908-2.197-4.905-3.137c0.072,0.29,0.121,0.584,0.121,0.886    C60.092,33.58,59.691,34.504,58.992,35.319z"></path><path d="M66.322,38.635c-0.477,0.456-0.885,0.911-1.242,1.352c0.011,0.013,0.02,0.025,0.029,0.038    c0.33-0.015,0.654-0.029,1.02-0.059C66.129,39.966,66.255,39.474,66.322,38.635z"></path><path d="M69.289,64.443c0.121-0.309,0.236-0.629,0.345-0.957c-0.297,0.219-0.591,0.424-0.88,0.604    C68.932,64.203,69.109,64.318,69.289,64.443z"></path><path d="M67.742,64.668c-0.419,1.122-0.225,2.152,0.101,2.938c0.013-0.051,0.028-0.105,0.038-0.155c0,0,0.753-1.327,1.408-3.007    c-0.18-0.125-0.357-0.24-0.535-0.353C68.406,64.311,68.068,64.498,67.742,64.668z"></path><path d="M68.305,63.63c-0.033,0.047-0.056,0.093-0.087,0.14c0.177,0.102,0.355,0.207,0.536,0.322    c0.289-0.182,0.583-0.387,0.88-0.604c0.035-0.106,0.069-0.213,0.103-0.319C68.977,63.682,68.305,63.63,68.305,63.63z"></path><path d="M68.218,63.77c-0.204,0.304-0.364,0.604-0.476,0.898c0.326-0.17,0.664-0.357,1.012-0.576    C68.573,63.977,68.395,63.87,68.218,63.77z"></path><path d="M66.35,38.207c0.113,0.032,0.229,0.06,0.352,0.083c0.242-0.217,0.497-0.433,0.77-0.645    c-0.347-0.472-0.738-0.949-1.178-1.424C66.367,36.979,66.374,37.648,66.35,38.207z"></path><path d="M67.949,38.337c-0.15-0.229-0.309-0.46-0.479-0.693c-0.272,0.212-0.527,0.428-0.771,0.645    C67.088,38.364,67.507,38.395,67.949,38.337z"></path><path d="M64.5,37.259c0,0,0.748,0.641,1.85,0.947c0.024-0.558,0.019-1.228-0.058-1.986c-0.425-0.461-0.894-0.921-1.416-1.373    c-0.163,0.5-0.37,1.217-0.372,1.667C64.5,37.259,64.5,37.259,64.5,37.259z"></path><path d="M50,34.375L50,34.375c3.188-0.188,8.375,0.812,8.375,0.812c0.184,0.08,0.34,0.169,0.518,0.251    c0.034-0.039,0.065-0.08,0.101-0.12c-0.138-1.111-0.326-2.192-0.326-2.192c-0.028-0.655-0.44-1.365-0.949-2    c-1.958-0.313-5.337-0.769-7.717-0.629v0.065L50,34.375L50,34.375z"></path><path d="M58.992,35.319c0.699-0.815,1.1-1.739,1.1-2.722c0-0.302-0.049-0.596-0.121-0.886c-0.225-0.106-0.447-0.212-0.684-0.314    c0,0-0.62-0.119-1.57-0.271c0.508,0.635,0.92,1.346,0.949,2C58.666,33.126,58.855,34.208,58.992,35.319z"></path></g></g><g><path d="M50.208,72.209c0,0,1.458-0.75,3.167-0.625c0,0,1.083,0.127,2.125,0.438c0,0,1.166,0.104,1.833,0.188   c0,0-0.457,0.584-1.041,1.167c0,0-0.083,0.457-4.875,0.291c0,0-0.833,0.03-1.208,0.036S50.208,72.209,50.208,72.209z"></path><path d="M50.271,72.209c0,0-1.458-0.75-3.166-0.625c0,0-1.083,0.127-2.125,0.438c0,0-1.166,0.104-1.833,0.188   c0,0,0.457,0.584,1.041,1.167c0,0,0.083,0.457,4.875,0.291c0,0,0.833,0.03,1.208,0.036C50.646,73.709,50.271,72.209,50.271,72.209z   "></path><path d="M56.125,73.703c0,0-3.688,0.339-5.854,0.256v3.979c0,0,1.979,0.062,3.167-1.084C53.438,76.854,55.292,74.968,56.125,73.703   z"></path><path d="M44.5,73.703c0,0,3.688,0.339,5.854,0.256v3.979c0,0-1.979,0.062-3.166-1.084C47.188,76.854,45.333,74.968,44.5,73.703z"></path><path d="M53.688,65.521c0,0-3.104,4.396-7,0C46.688,65.521,50.375,68.521,53.688,65.521z"></path><g><path d="M40.922,52.844c0,0-2.25-0.406-4.531,1.812c0,0-0.656,0.594-1.281,0.297c0,0-0.156,0.062,0.141,0.266    c0,0,1.915,1.701,4.713,1.977c-1.669-2.575,0.926-3.983,0.926-3.983c1.752,1.67,1.184,3.14,0.521,3.998    c1.052-0.086,2.907-0.356,4.622-1.209C46.031,56,43.859,52.938,40.922,52.844z"></path><path d="M64.99,54.953c-0.625,0.297-1.281-0.297-1.281-0.297c-2.281-2.219-4.531-1.812-4.531-1.812    C56.24,52.938,54.068,56,54.068,56c1.584,0.788,3.291,1.079,4.371,1.188c-0.654-0.863-1.197-2.32,0.539-3.977    c0,0,2.61,1.416,0.91,4.007c2.935-0.192,4.961-1.999,4.961-1.999C65.146,55.016,64.99,54.953,64.99,54.953z"></path></g><path d="M46.688,51.438c0,0-0.375,0.595-1.438,0c0,0-2.993-1.438-4.528-1.938c0,0-1.785-0.594-3.441,0c0,0-1.521,0.656-3.354,1.875   c0,0-0.448,0.188,0-0.375c0,0,2.167-2.25,4.51-2.594c0,0,1.469-0.25,5.5,0.719c0,0,1.844,0.438,2.312,0.531   C46.25,49.656,47.031,50.125,46.688,51.438z"></path><path d="M53.402,51.438c0,0,0.375,0.595,1.438,0c0,0,2.993-1.438,4.528-1.938c0,0,1.783-0.594,3.439,0c0,0,1.521,0.656,3.354,1.875   c0,0,0.446,0.188,0-0.375c0,0-2.167-2.25-4.511-2.594c0,0-1.469-0.25-5.5,0.719c0,0-1.844,0.438-2.312,0.531   C53.841,49.656,53.061,50.125,53.402,51.438z"></path></g></svg>