<svg fill="#4C4C4C" xmlns:xlink="http://www.w3.org/1999/xlink" xmlns="http://www.w3.org/2000/svg" stroke-width="0.501" stroke-linejoin="bevel" fill-rule="evenodd" version="1.1" overflow="visible" viewBox="0 0 96 96" x="0px" y="0px"><g fill="none" stroke="black" font-family="Times New Roman" font-size="16" transform="scale(1 -1)"><g transform="translate(0 -96)"><g><path d="M 38.641,4.18 C 38.368,4.327 38.265,4.668 38.412,4.942 C 38.979,5.997 40.021,6.726 40.753,7.439 C 40.543,7.617 40.345,7.819 40.161,8.045 C 39.695,8.054 39.289,7.974 38.916,7.822 C 38.433,7.624 37.976,7.294 37.503,6.826 C 37.283,6.607 36.926,6.609 36.708,6.83 C 36.489,7.05 36.491,7.407 36.712,7.625 C 37.548,8.453 38.454,9.012 39.575,9.142 C 39.465,9.577 39.482,10.027 39.6,10.486 C 39.199,10.482 38.852,10.469 38.514,10.436 C 38.03,10.389 37.553,10.301 36.96,10.134 C 36.661,10.05 36.35,10.224 36.266,10.523 C 36.182,10.822 36.356,11.133 36.655,11.217 C 37.306,11.4 37.848,11.502 38.405,11.556 C 38.924,11.606 39.448,11.615 40.067,11.613 C 41.607,14.39 45.849,17.372 47.142,19.637 C 47.373,20.041 47.532,20.212 47.725,20.658 C 47.767,20.756 47.811,20.851 47.853,20.946 C 42.669,23.626 37.746,27.716 33.812,32.585 C 33.401,31.83 32.866,31.015 32.219,30.46 C 32.345,30.135 32.523,29.81 32.741,29.485 C 32.969,29.142 33.234,28.808 33.515,28.476 C 33.799,28.141 34.086,27.826 34.371,27.501 C 34.576,27.268 34.553,26.912 34.32,26.707 C 34.087,26.502 33.731,26.525 33.526,26.758 C 33.256,27.065 32.949,27.404 32.657,27.749 C 32.362,28.097 32.066,28.468 31.805,28.86 C 31.59,29.181 31.394,29.523 31.239,29.885 C 30.962,29.796 30.671,29.762 30.366,29.799 C 30.486,28.615 30.762,27.45 31.241,26.441 C 31.374,26.161 31.254,25.825 30.973,25.692 C 30.693,25.559 30.357,25.679 30.224,25.96 C 29.596,27.285 29.29,28.803 29.199,30.277 C 28.893,30.488 28.577,30.772 28.25,31.143 C 28.143,30.7 28.079,30.246 28.071,29.8 C 28.057,29.036 28.208,28.314 28.571,27.703 C 28.73,27.436 28.642,27.09 28.375,26.932 C 28.108,26.773 27.762,26.861 27.604,27.128 C 27.11,27.96 26.929,28.9 26.946,29.821 C 26.96,30.673 27.145,31.525 27.424,32.296 C 26.171,34.647 27.026,37.741 28.707,40.465 C 28.117,41.641 27.59,42.838 27.133,44.051 C 24.244,51.141 14.328,55.9 13.294,55.941 C 11.174,54.678 9.027,52.05 6.435,52.852 C 6.223,52.593 6.083,52.194 6.009,51.683 C 5.931,51.156 5.933,50.583 5.945,50.063 C 5.952,49.753 5.705,49.495 5.395,49.488 C 5.085,49.481 4.827,49.728 4.82,50.038 C 4.809,50.553 4.803,51.211 4.896,51.847 C 4.969,52.35 5.112,52.891 5.406,53.347 C 5.197,53.483 4.985,53.644 4.769,53.831 C 4.704,53.813 4.607,53.762 4.481,53.627 C 4.324,53.458 4.169,53.209 4.028,52.904 C 3.888,52.604 3.774,52.275 3.691,51.967 C 3.607,51.656 3.558,51.386 3.543,51.204 C 3.517,50.894 3.245,50.664 2.936,50.69 C 2.626,50.716 2.396,50.988 2.422,51.297 C 2.465,51.818 2.672,52.654 3.007,53.377 C 3.175,53.741 3.39,54.106 3.658,54.393 C 3.753,54.495 3.862,54.595 3.983,54.681 C 3.858,54.927 3.756,55.274 3.686,55.656 C 2.827,55.181 2.114,54.449 1.878,53.513 C 1.802,53.212 1.496,53.029 1.195,53.105 C 0.894,53.181 0.711,53.487 0.787,53.788 C 1.151,55.229 2.267,56.22 3.41,56.781 C 3.465,56.808 3.523,56.825 3.582,56.833 C 3.584,57.179 3.619,57.498 3.694,57.741 C 5.29,62.953 19.558,62.801 22.483,61.676 C 22.558,61.659 22.632,61.643 22.707,61.626 C 22.524,63.369 22.425,65.146 22.435,66.93 C 23.006,66.82 23.616,66.734 24.251,66.677 C 27.672,66.368 30.53,67.012 30.63,68.115 C 30.73,69.217 28.034,70.365 24.613,70.675 C 23.931,70.736 23.272,70.76 22.653,70.75 C 23.092,73.622 24.009,76.439 25.601,78.76 C 25.596,78.851 25.594,78.945 25.594,79.041 C 26.046,81.092 29.09,90.72 31.594,90.441 C 32.703,90.318 35.075,85.747 35.344,84.74 C 38.25,85.375 41.701,85.396 44.794,83.541 C 48.336,86.528 52.637,87.585 57.208,87.401 C 59.314,85.886 54.427,76.182 54.433,74.126 C 55.203,69.133 62.833,63.476 66.733,62.276 C 72.043,60.643 79.958,58.106 83.383,63.701 C 85.633,67.376 80.901,79.509 86.383,83.051 C 89.062,84.782 95.182,83.662 95.608,80.501 C 95.81,79.002 94.103,77.677 91.708,78.176 C 88.66,78.811 90.508,70.001 91.033,67.601 C 92.206,62.239 91.757,60.629 90.583,58.601 C 88.933,55.751 86.118,54.879 86.233,54.176 C 87.182,53.3 88.426,51.757 89.758,49.076 C 90.837,46.903 91.485,44.717 91.746,42.566 C 92.579,38.245 93.104,32.245 89.985,24.79 C 88.707,21.737 85.682,16.686 81.591,15.694 C 81.295,15.139 80.92,14.547 80.487,14.017 C 79.825,13.208 78.936,12.434 77.899,12.308 C 77.591,12.271 77.31,12.491 77.273,12.799 C 77.236,13.107 77.456,13.388 77.764,13.425 C 78.353,13.496 79.002,13.978 79.616,14.729 C 79.821,14.98 80.013,15.249 80.188,15.522 C 80.102,15.521 80.015,15.523 79.928,15.527 C 79.581,15.541 79.257,15.567 78.955,15.605 C 78.677,15.224 78.367,14.854 78.022,14.528 C 77.287,13.83 76.358,13.296 75.2,13.285 C 74.889,13.282 74.635,13.532 74.632,13.842 C 74.629,14.153 74.879,14.407 75.189,14.41 C 75.977,14.417 76.647,14.773 77.248,15.344 C 77.414,15.501 77.573,15.674 77.725,15.856 C 77.163,16.025 76.722,16.255 76.393,16.534 C 76.164,16.316 75.92,16.113 75.662,15.932 C 74.779,15.312 73.697,14.917 72.534,15.097 C 72.228,15.144 72.017,15.432 72.065,15.739 C 72.112,16.045 72.4,16.256 72.707,16.208 C 73.804,16.038 74.897,16.618 75.742,17.471 C 75.474,18.255 75.67,19.228 76.232,20.301 C 72.938,18.969 67.273,17.199 60.839,17.435 C 57.08,12.178 46.937,4.407 41.722,6.82 C 40.947,6.009 39.893,5.321 39.403,4.409 C 39.256,4.136 38.915,4.033 38.641,4.18 Z M 60.094,21.891 C 66.276,22.466 67.656,24.691 67.594,27.891 C 67.52,31.68 61.539,33.641 58.444,34.641 C 57.651,34.896 56.704,35.228 55.691,35.619 C 55.597,35.42 55.372,35.38 54.994,35.541 C 48.358,38.348 39.6,37.45 36.076,35.562 C 36.948,34.035 37.917,32.639 38.811,31.594 C 43.448,26.174 52.042,21.142 60.094,21.891 Z M 33.694,45.741 L 39.586,48.059 C 37.356,49.73 35.116,50.629 33.511,49.321 C 32.551,48.538 32.68,46.839 32.951,45.217 C 33.2,45.407 33.448,45.582 33.694,45.741 Z M 43.558,56.201 C 43.683,57.288 43.172,58.603 42.51,59.329 C 40.714,61.11 36.694,60.045 34.211,59.491 C 33.249,59.38 32.323,59.253 31.457,59.213 C 31.043,59.193 30.723,58.842 30.742,58.429 C 30.762,58.015 31.113,57.695 31.526,57.714 C 32.625,57.765 33.769,57.941 34.921,58.061 C 36.424,56.303 38.847,53.729 41.158,53.876 C 42.269,53.946 43.333,54.251 43.558,56.201 Z M 27.42,60.836 C 27.622,60.882 27.749,61.083 27.703,61.284 C 27.657,61.486 27.456,61.613 27.255,61.567 C 26.217,61.332 25.265,61.22 24.014,60.955 C 23.812,60.913 23.682,60.714 23.725,60.511 C 23.767,60.309 23.966,60.179 24.169,60.222 C 25.401,60.482 26.359,60.595 27.42,60.836 Z M 34.33,61.016 C 34.9,61.378 39.064,64.224 35.351,63.854 C 33.836,63.703 32.59,63.664 31.247,63.119 C 31.21,63.104 31.066,62.856 31.063,62.813 C 31.019,62.148 32.762,61.353 33.805,61.099 C 34.014,61.048 34.197,61.019 34.33,61.016 Z M 48.694,62.366 C 48.9,62.387 49.051,62.57 49.031,62.776 C 49.01,62.982 48.827,63.133 48.621,63.113 C 47.314,62.984 45.815,63.138 44.462,62.797 C 44.261,62.747 44.139,62.543 44.19,62.342 C 44.24,62.141 44.444,62.019 44.645,62.07 C 45.891,62.383 47.346,62.233 48.694,62.366 Z M 25.411,62.328 C 26.025,62.369 26.639,62.439 27.068,62.481 C 27.274,62.501 27.425,62.685 27.405,62.891 C 27.385,63.097 27.201,63.248 26.995,63.228 C 26.557,63.185 25.958,63.117 25.361,63.077 C 25.063,63.057 24.77,63.045 24.503,63.046 C 24.234,63.047 24.002,63.063 23.823,63.095 C 23.619,63.131 23.425,62.995 23.388,62.791 C 23.352,62.587 23.488,62.393 23.692,62.356 C 24.162,62.273 24.806,62.288 25.411,62.328 Z M 44.361,63.767 C 45.515,64.343 46.955,64.532 48.283,64.57 C 48.49,64.575 48.653,64.748 48.647,64.955 C 48.642,65.162 48.469,65.325 48.262,65.319 C 46.901,65.281 45.328,65.088 44.026,64.438 C 43.841,64.346 43.766,64.12 43.858,63.935 C 43.95,63.75 44.176,63.675 44.361,63.767 Z M 23.908,68.669 C 23.908,69.321 24.438,69.851 25.09,69.851 C 25.742,69.851 26.272,69.321 26.272,68.669 C 26.272,68.017 25.742,67.487 25.09,67.487 C 24.438,67.487 23.908,68.017 23.908,68.669 Z M 43.18,68.272 C 46.845,69.231 49.569,70.969 49.26,72.15 C 48.951,73.331 45.725,73.513 42.06,72.554 C 38.395,71.595 35.671,69.857 35.98,68.676 C 36.289,67.495 39.515,67.313 43.18,68.272 Z M 40.258,69.944 C 40.258,70.637 40.822,71.201 41.515,71.201 C 42.208,71.201 42.772,70.637 42.772,69.944 C 42.772,69.251 42.208,68.687 41.515,68.687 C 40.822,68.687 40.258,69.251 40.258,69.944 Z M 29.098,72.589 C 29.284,72.68 29.36,72.905 29.269,73.091 C 29.256,73.118 29.234,73.173 29.204,73.262 C 29.176,73.347 29.145,73.452 29.111,73.572 C 29.044,73.812 28.971,74.105 28.899,74.406 C 28.754,75.01 28.617,75.634 28.548,75.935 C 28.501,76.137 28.3,76.263 28.098,76.216 C 27.896,76.169 27.77,75.968 27.817,75.766 C 27.885,75.473 28.023,74.84 28.169,74.231 C 28.242,73.926 28.318,73.624 28.389,73.37 C 28.424,73.243 28.459,73.126 28.492,73.026 C 28.524,72.93 28.559,72.835 28.596,72.76 C 28.687,72.574 28.912,72.498 29.098,72.589 Z M 27.259,73.282 C 27.03,73.89 26.844,74.68 26.584,75.381 C 26.512,75.575 26.296,75.674 26.102,75.602 C 25.908,75.53 25.809,75.314 25.881,75.12 C 26.129,74.452 26.315,73.66 26.556,73.019 C 26.629,72.825 26.846,72.727 27.039,72.799 C 27.233,72.872 27.331,73.089 27.259,73.282 Z M 39.05,74.5 C 39.244,75.444 39.625,76.522 40.123,77.298 C 40.235,77.472 40.184,77.704 40.01,77.816 C 39.836,77.928 39.604,77.877 39.492,77.703 C 38.93,76.827 38.521,75.657 38.315,74.651 C 38.274,74.448 38.404,74.25 38.607,74.208 C 38.81,74.167 39.008,74.297 39.05,74.5 Z M 37.031,74.616 C 37.108,75.456 37.354,76.536 37.6,77.397 C 37.657,77.596 37.542,77.804 37.343,77.861 C 37.144,77.918 36.936,77.803 36.879,77.604 C 36.627,76.723 36.367,75.591 36.284,74.685 C 36.265,74.479 36.417,74.296 36.623,74.277 C 36.829,74.258 37.012,74.41 37.031,74.616 Z" stroke="none" fill="#4C4C4C" stroke-width="0.5" fill-rule="evenodd" marker-start="none" marker-end="none" stroke-miterlimit="79.8403193612775"></path></g></g></g></svg>