<svg fill="#008c00" xmlns="http://www.w3.org/2000/svg" xmlns:xlink="http://www.w3.org/1999/xlink" version="1.1" x="0px" y="0px" viewBox="0 0 100 100" enable-background="new 0 0 100 100" xml:space="preserve"><g><path d="M42.289,78.132c-1.112,0-2.208-0.151-3.259-0.451l-0.954-0.271l0.796-0.613l-3.334-0.132l-9.193-3.859l1.672-0.685   l-3.468-0.613l-7.089-5.99l2.125,0.074L15.96,63.46l-5.629-9.461l2.005,0.616L9.2,50.518l-2.418-9.86l1.475,0.749l-1.736-3.404   L5.966,29.1l1.148,0.556l-1.119-2.388l0.545-3.001l3.041,0.238l2.024,1.69l-0.245-1.251l8.647,2.911l2.669,2.441l-0.348-1.616   l9.076,4.987l3.005,3.941l-0.085-2.095l7.714,7.854l1.137,4.047l0.47-2.074l3.985,8.382l-0.292,3.51l1.089-1.441l1.402,9.965   l-0.735,3.166l0.796-0.614l0.019,0.992c0.018,0.915-0.074,1.843-0.273,2.759l-0.05,0.229l-0.208,0.107   c-0.746,0.388-1.346,0.912-1.782,1.56l-2.634,3.894l-0.202,0.04C43.94,78.05,43.109,78.132,42.289,78.132z M40.306,76.953   c1.316,0.241,2.697,0.237,4.059-0.009l0.97-1.435c-3.539-4.388-14.694-18.338-24.85-32.326l0.001-0.001   c-0.006-0.008-0.012-0.015-0.019-0.022l0.774-0.633C31.98,55.669,42.433,69.727,45.985,74.549l0.782-1.156   c0.488-0.723,1.14-1.318,1.938-1.771c0.083-0.424,0.141-0.85,0.174-1.274l-1.394,1.074l1.327-5.713l-1.04-7.395l-1.717,2.273   l0.555-6.682l-2.63-5.53l-0.704,3.102l-2.134-7.594l-5.716-5.82l0.109,2.672l-4.863-6.378l-6.91-3.759l0.547,2.548l-4.9-4.481   l-6.741-2.234l0.458,2.339l-3.944-3.294l-1.822-0.143l-0.326,1.798l2.18,4.653L7.07,30.746l0.442,7.087l3.084,5.881l-2.324-1.18   l1.874,7.641l4.928,6.328l-2.556-0.786l4.171,7.01l6.799,4l-3.179-0.111l4.677,3.953l6.602,1.166l-2.636,1.081l6.885,2.89   l5.861,0.174L40.306,76.953z"></path></g><g><path d="M57.711,78.132c-0.82,0-1.652-0.082-2.471-0.245l-0.202-0.04l-2.633-3.894c-0.437-0.647-1.037-1.172-1.783-1.56   l-0.208-0.107l-0.05-0.229c-0.199-0.916-0.291-1.844-0.273-2.759l0.019-0.991l0.797,0.613l-0.736-3.167l1.402-9.965l1.089,1.441   l-0.292-3.509l3.985-8.382l0.471,2.074l1.138-4.047l7.713-7.854l-0.085,2.096l3.164-4.077l8.917-4.852l-0.348,1.617l2.85-2.546   l8.467-2.806l-0.245,1.251l2.023-1.69l3.041-0.238l0.545,3.001l-1.119,2.388l1.148-0.556l-0.612,9.104l-1.679,3.202l1.474-0.747   l-2.509,10.047l-3.045,3.909l2.004-0.616l-5.628,9.462l-3.623,2.13l2.124-0.073l-7.088,5.99l-3.469,0.612l1.673,0.687l-9.372,3.897   l-3.156,0.093l0.796,0.613l-0.954,0.271C59.919,77.981,58.823,78.132,57.711,78.132z M55.635,76.945   c1.362,0.247,2.741,0.25,4.059,0.009L58.3,75.88l5.862-0.174l6.885-2.891l-2.636-1.081l6.602-1.165l4.678-3.953l-3.179,0.11   l6.799-3.999l4.171-7.011l-2.557,0.788l4.929-6.33l1.873-7.64l-2.323,1.179l3.084-5.881l0.441-7.087l-2.145,1.04l2.18-4.653   l-0.326-1.798l-1.822,0.143l-3.943,3.294l0.458-2.339l-6.74,2.234l-4.9,4.48l0.547-2.547l-6.909,3.76l-4.863,6.377l0.108-2.672   l-5.717,5.82l-2.134,7.594l-0.703-3.102l-2.63,5.53l0.556,6.681l-1.717-2.273l-1.04,7.395l1.327,5.712l-1.393-1.073   c0.033,0.426,0.091,0.852,0.174,1.275c0.798,0.452,1.45,1.048,1.938,1.771l0.781,1.156c3.553-4.824,14.012-18.89,24.743-32.021   l0.783,0.62C69.346,57.191,58.2,71.127,54.665,75.51L55.635,76.945z"></path></g></svg>
