<svg fill="#70C041" xmlns="http://www.w3.org/2000/svg" xmlns:xlink="http://www.w3.org/1999/xlink" version="1.0" x="0px" y="0px" viewBox="0 0 80 80" enable-background="new 0 0 80 80" xml:space="preserve"><path d="M49.043,70.951c-0.006,0.381-0.319,0.685-0.699,0.679c-0.381-0.006-0.685-0.319-0.679-0.699  c0.006-0.381,0.319-0.685,0.699-0.679C48.745,70.257,49.049,70.57,49.043,70.951z M40.084,32.68  c-0.122-0.372-0.521-0.576-0.894-0.454c-0.372,0.122-0.575,0.521-0.454,0.894c1.979,6.07,4.27,14.503,5.445,20.052  c0.07,0.334,0.365,0.562,0.692,0.562c0.049,0,0.099-0.005,0.147-0.016c0.383-0.081,0.628-0.457,0.547-0.84  C44.384,47.286,42.077,38.792,40.084,32.68z M47.841,69.087c-0.024,0.391,0.273,0.727,0.664,0.75  c0.015,0.001,0.029,0.002,0.044,0.002c0.371,0,0.684-0.29,0.706-0.666c0.172-2.803-0.979-6.777-2.279-10.945  c-0.116-0.373-0.513-0.581-0.888-0.466c-0.374,0.117-0.582,0.514-0.466,0.888C46.881,62.687,47.998,66.523,47.841,69.087z   M50.012,78.547c-1.026,0.307-1.971,0.462-2.808,0.462c-3.857,0-4.951-3.122-5.751-5.401c-0.126-0.358-0.248-0.708-0.378-1.036  c-0.86-2.181-1.895-8.262-2.896-14.142c-0.352-2.067-0.684-4.019-0.998-5.739c-0.761-4.171-2.573-13.502-3.631-18.777  c-0.167,0.071-0.347,0.12-0.535,0.12c-0.284,0-0.543-0.108-0.747-0.313c-0.18-0.181-0.311-0.388-0.405-0.595  c-0.218,0.168-0.493,0.288-0.835,0.308c-0.959,0.051-1.28-0.508-1.404-0.976c-0.216,0.091-0.487,0.181-0.789,0.181h0  c-0.475,0-0.887-0.216-1.222-0.643c-0.555-0.705-0.544-1.32-0.438-1.713c0.116-0.426,0.387-0.777,0.691-1.054  c-0.244-0.09-0.478-0.229-0.67-0.437c-0.324-0.351-0.464-0.825-0.418-1.408c0.066-0.812,0.416-1.41,0.982-1.727  c-0.166-0.151-0.321-0.332-0.447-0.547c-0.311-0.534-0.374-1.154-0.188-1.844c0.158-0.583,0.502-1,0.925-1.284  c-0.369-0.307-0.538-0.705-0.502-1.046c0.023-0.215,0.133-0.451,0.362-0.609c-1.014-0.38-1.449-0.698-1.573-1.135  c-0.132-0.462,0.177-0.846,0.293-0.99c0.141-0.175,0.399-0.382,0.836-0.394c-0.011-0.043-0.018-0.088-0.021-0.135  c-0.009-0.144,0.023-0.359,0.223-0.561c0.048-0.049,0.1-0.091,0.155-0.128c-0.176-0.144-0.33-0.324-0.363-0.578  c-0.021-0.16,0.004-0.406,0.238-0.67c0.012-0.014,0.025-0.023,0.037-0.036c-0.201-0.233-0.35-0.52-0.256-0.858  c0.033-0.118,0.106-0.24,0.221-0.331c-0.692-1.088-0.814-1.734-0.804-2.067c-0.806-0.207-1.192-0.796-1.142-1.268  c0.017-0.162,0.087-0.324,0.213-0.454c-0.653-0.256-1.076-0.522-1.192-0.926c-0.119-0.418,0.152-0.755,0.255-0.882  c0.114-0.142,0.315-0.308,0.643-0.345c-0.001-0.008-0.001-0.016-0.002-0.023c-0.011-0.19,0.062-0.376,0.206-0.521  c0.016-0.017,0.033-0.032,0.05-0.047c-0.12-0.116-0.218-0.261-0.243-0.452c-0.02-0.148,0.002-0.374,0.214-0.613  c0.133-0.149,0.273-0.24,0.404-0.295c-0.643-0.867-1.23-1.88-1.048-2.51c0.083-0.289,0.299-0.495,0.607-0.581  c0.027-0.007,0.055-0.013,0.083-0.015c0.014-0.001,0.042-0.002,0.056-0.002c0.267,0,1.102,0.139,2.074,1.665  C28.297,4.7,28.57,4.7,28.702,4.7c0.157,0,0.386,0.063,0.587,0.364c0.196,0.292,0.251,0.645,0.242,1.022  c0.156-0.208,0.385-0.346,0.69-0.293c0.267,0.047,0.417,0.195,0.496,0.311c0.129,0.189,0.162,0.419,0.143,0.696  c0.404-0.24,0.827-0.171,1.031,0.136c0.105,0.158,0.191,0.439,0.024,0.888c0.001,0,0.002,0,0.003,0c0.213,0,0.399,0.101,0.512,0.277  c0.072,0.112,0.29,0.454-0.201,1.513c-0.443,0.959-0.904,2.132-1.056,2.845c0.033-0.086,0.065-0.168,0.096-0.242  c0.334-0.801,0.771-0.969,1.077-0.969c0.162,0,0.32,0.047,0.469,0.139c0.083,0.051,0.144,0.109,0.195,0.169  c0.101-0.044,0.219-0.066,0.349-0.064c0.116-0.064,0.233-0.101,0.35-0.105c0.019-0.076,0.05-0.155,0.101-0.237  c0.169-0.273,0.431-0.423,0.74-0.423c0.313,0,0.645,0.154,1.015,0.471c0.06,0.051,0.124,0.109,0.191,0.17  c-0.457-0.57-1.393-1.409-2.217-2.066c-0.692-0.552-0.963-1.01-0.826-1.4c0.03-0.085,0.109-0.244,0.304-0.341  c-0.447-0.415-0.408-0.769-0.342-0.948c0.111-0.302,0.426-0.47,0.826-0.44c-0.141-0.239-0.214-0.459-0.184-0.686  c0.018-0.139,0.086-0.339,0.303-0.5c0.214-0.159,0.503-0.166,0.75-0.044c-0.178-0.334-0.288-0.675-0.244-1.026  c0.078-0.619,0.535-0.65,0.625-0.65c0.078,0,0.245,0,0.508,0.209c0.197-1.954,0.979-2.372,1.159-2.443  c0.026-0.01,0.053-0.018,0.081-0.024c0.37-0.071,0.659,0.051,0.859,0.315c0.383,0.504,0.302,1.641,0.128,2.645  c0.16-0.012,0.328,0.015,0.497,0.082c0.297,0.118,0.418,0.311,0.467,0.452c0.063,0.182,0.041,0.356-0.014,0.513  c0.022,0.006,0.044,0.012,0.065,0.019c0.194,0.066,0.342,0.199,0.418,0.374c0.003,0.007,0.006,0.014,0.009,0.021  c0.221-0.082,0.492-0.088,0.73,0.02c0.148,0.067,0.541,0.247,0.622,0.674c0.078,0.413-0.18,0.839-0.649,1.361  c0.221,0.077,0.395,0.25,0.479,0.488c0.114,0.325,0.042,0.704-0.173,1.048c0.064,0.051,0.123,0.111,0.175,0.18  c0.423,0.557,0.362,1.791,0.178,2.944c0.035,0.121,0.042,0.246,0.029,0.371c0.19-0.022,0.401,0.002,0.612,0.085  c0.328,0.131,0.46,0.34,0.513,0.493c0.084,0.242,0.028,0.472-0.065,0.679c0.066,0.008,0.131,0.022,0.196,0.044  c0.269,0.092,0.394,0.269,0.45,0.402c0.019,0.043,0.032,0.087,0.042,0.131c0.274-0.129,0.621-0.162,0.924-0.024  c0.169,0.077,0.617,0.282,0.707,0.753c0.084,0.446-0.162,0.926-0.899,1.721c0.322,0.045,0.581,0.257,0.693,0.576  c0.095,0.269,0.078,0.625-0.088,0.989c0.538,0.046,1.04,0.221,1.461,0.531c0.611,0.45,0.924,0.987,0.93,1.598  c0.003,0.337-0.09,0.653-0.228,0.934c0.499,0.018,1.168,0.226,1.675,1.06c0.393,0.648,0.325,1.182,0.199,1.517  c-0.103,0.272-0.275,0.503-0.474,0.697c0.442,0.116,0.862,0.328,1.143,0.7c0.338,0.446,0.409,1.025,0.212,1.72  c-0.295,1.043-1.092,1.227-1.592,1.271c0.25,1.167-0.46,1.624-0.807,1.774c-0.293,0.127-0.616,0.136-0.888,0.057  c-0.01,0.162-0.038,0.328-0.093,0.495c-0.158,0.479-0.587,0.753-1.176,0.753c-0.109,0-0.216-0.009-0.317-0.023  c0.96,3.511,2.589,9.391,4.657,16.536c1.86,6.425,3.103,9.679,4.101,12.293c0.801,2.097,1.433,3.752,2.004,6.165l0.165,0.694  C55.535,71.989,56.631,76.569,50.012,78.547z M42.543,19.35c-0.456,0.408-0.96,0.962-1.384,1.454  c-0.039,0.045-0.079,0.091-0.116,0.135c0.038-0.012,0.079-0.019,0.119-0.025c0.164-0.026,0.342-0.009,0.509,0.064  c0.684,0.298,0.6,0.978,0.404,1.567c0.315-0.329,0.613-0.574,0.96-0.574c0.191,0,0.368,0.079,0.499,0.223  c0.421,0.463,0.152,1.111-0.044,1.584c-0.013,0.031-0.027,0.066-0.042,0.102c0.21,0.111,0.376,0.307,0.459,0.558  c0.105,0.32,0.208,1.172-1.119,2.182c-0.25,0.19-0.441,0.485-0.586,0.833c-0.234,0.561-0.35,1.261-0.4,1.898  c0.158,0.087,0.28,0.234,0.333,0.415c0.43,0.087,0.719,0.304,1.012,0.582c0.04,0.038,0.08,0.076,0.121,0.116  c0.109,0.032,0.306,0.081,0.496,0.081c0.255,0,0.281-0.078,0.293-0.115c0.179-0.543-0.166-1.171-0.17-1.178  c-0.127-0.223-0.05-0.506,0.173-0.633c0.221-0.127,0.506-0.051,0.634,0.171c0.107,0.182,0.422,0.56,0.706,0.56  c0.05,0,0.1-0.011,0.153-0.034c0.132-0.057,0.484-0.209,0.168-1.054c-0.066-0.176-0.048-0.361,0.049-0.506  c0.167-0.252,0.446-0.264,0.693-0.275c0.483-0.021,0.812-0.076,0.963-0.609c0.113-0.399,0.093-0.704-0.059-0.905  c-0.22-0.291-0.762-0.458-1.488-0.458c-0.228,0-0.386,0.018-0.388,0.018c-0.238,0.025-0.458-0.131-0.508-0.365  c-0.05-0.234,0.086-0.468,0.315-0.54c0.27-0.086,1.085-0.444,1.272-0.943c0.078-0.208,0.037-0.439-0.124-0.705  c-0.251-0.414-0.564-0.614-0.956-0.614c-0.505,0-0.969,0.319-0.974,0.322c-0.208,0.144-0.493,0.097-0.642-0.107  c-0.149-0.204-0.108-0.489,0.093-0.643c0.251-0.194,0.905-0.831,0.898-1.428c-0.003-0.306-0.184-0.586-0.551-0.856  c-0.334-0.246-0.73-0.37-1.175-0.37C42.928,19.277,42.727,19.305,42.543,19.35z M40.841,30.384  c-0.003-0.161-0.004-0.355,0.003-0.572c0.002-0.057,0.004-0.115,0.006-0.175c0.005-0.12,0.013-0.246,0.023-0.377  c0.049-0.627,0.163-1.346,0.405-1.992c0.208-0.554,0.508-1.054,0.948-1.389c0.74-0.564,0.806-0.961,0.809-1.069  c0.002-0.072-0.019-0.105-0.026-0.111c-0.193-0.007-0.371-0.091-0.477-0.253c-0.2-0.303-0.054-0.654,0.1-1.025  c0.021-0.052,0.05-0.12,0.078-0.194c-0.076,0.079-0.149,0.16-0.208,0.225c-0.408,0.448-0.731,0.801-1.136,0.801  c-0.099,0-0.193-0.022-0.28-0.066c-0.536-0.267-0.321-0.87-0.11-1.382c0.012-0.03,0.025-0.06,0.037-0.09  c0.096-0.23,0.288-0.692,0.276-0.875c-0.133,0.076-0.329,0.477-0.472,0.796c-0.053,0.119-0.099,0.227-0.13,0.301  c-0.204,0.484-0.336,0.79-0.609,0.9c-0.026,0.01-0.052,0.022-0.081,0.028c-0.134,0.031-0.274,0.003-0.384-0.078  c-0.022,0.017-0.045,0.032-0.071,0.046c-0.126,0.066-0.27,0.065-0.395,0.013c-0.057-0.024-0.111-0.055-0.155-0.102  c-0.002-0.002-0.027-0.028-0.069-0.071c-0.074-0.077-0.205-0.21-0.367-0.373c-0.131-0.132-0.281-0.282-0.437-0.435  c-0.069-0.068-0.139-0.136-0.209-0.203c-0.21-0.202-0.418-0.396-0.59-0.545c-0.003-0.003-0.007-0.006-0.011-0.009  c-0.374-0.321-0.543-0.33-0.577-0.331c-0.002,0-0.003,0-0.005,0.002c0.034,0.052,0.102,0.131,0.15,0.187  c0.08,0.093,0.17,0.198,0.245,0.318c0.061,0.097,0.219,0.353,0.068,0.625c-0.089,0.161-0.258,0.257-0.452,0.257  c-0.066,0-0.136-0.011-0.22-0.033c-0.021,0.02-0.043,0.039-0.065,0.059c0.026,0.007,0.05,0.015,0.077,0.021  c0.229,0.05,0.62,0.138,0.856,0.357c0.08,0.074,0.14,0.162,0.171,0.27c0.084,0.033,0.153,0.073,0.208,0.117  c0.106,0.084,0.168,0.178,0.201,0.252c0.094,0.205,0.073,0.412,0,0.605c-0.063,0.169-0.166,0.328-0.274,0.466  c0.171,0.107,0.32,0.216,0.454,0.326c0.044,0.037,0.087,0.073,0.128,0.11c0.326,0.295,0.544,0.598,0.718,0.898  c0.026,0.045,0.052,0.091,0.076,0.136c0.077,0.142,0.162,0.328,0.248,0.542c0.047,0.115,0.094,0.24,0.141,0.374  c0.175,0.492,0.351,1.101,0.505,1.793c0.035,0.157,0.069,0.315,0.101,0.479c0.037,0.192,0.073,0.387,0.105,0.588l0.005,0.024  l0.668-0.13C40.841,30.409,40.841,30.396,40.841,30.384z M38.548,27.883c-0.018,0.464-0.065,0.88-0.138,1.245  c0.197,0.209,0.41,0.391,0.64,0.531c0.002,0.001,0.003,0.002,0.005,0.003c0-0.001-0.001-0.003-0.001-0.004  C38.899,28.956,38.719,28.349,38.548,27.883c0-0.006,0.001-0.012,0.001-0.018l-0.007,0.001  C38.544,27.872,38.546,27.878,38.548,27.883z M36.643,27.576c-0.006,0.174,0.007,0.411,0.037,0.689c0,0.003,0.001,0.006,0.001,0.009  c0.053,0.492,0.163,1.122,0.34,1.829c0.005,0.018,0.01,0.037,0.015,0.056c0.015-0.023,0.031-0.045,0.046-0.069  c0.132-0.218,0.232-0.464,0.311-0.724c0.125-0.414,0.19-0.863,0.218-1.295c0.001-0.014,0.002-0.027,0.003-0.041  c0.007-0.111,0.012-0.221,0.015-0.328c0.005-0.225-0.07-0.328-0.126-0.386c-0.02-0.02-0.048-0.036-0.073-0.054  c-0.152-0.108-0.389-0.172-0.679-0.172c-0.02,0-0.04,0.002-0.059,0.003C36.66,27.262,36.648,27.422,36.643,27.576z M36.799,24.828  c0.016,0.007,0.031,0.014,0.047,0.021c0.011-0.013,0.021-0.026,0.033-0.039c0.031-0.036,0.059-0.069,0.082-0.1  c-0.038,0.007-0.085,0.015-0.136,0.023c-0.046,0.015-0.092,0.03-0.142,0.044C36.717,24.792,36.755,24.809,36.799,24.828z   M37.181,26.195c0.034-0.024,0.065-0.051,0.1-0.074c-0.049-0.032-0.101-0.065-0.156-0.097c-0.035,0.054-0.065,0.106-0.095,0.158  C37.08,26.187,37.133,26.187,37.181,26.195z M34.307,21.478c-0.179,0.533-0.307,1.006-0.343,1.338l0.07,0.257  c0.105-0.298,0.214-0.591,0.311-0.823c0.029-0.07,0.06-0.134,0.092-0.198c0.301-0.616,0.682-0.931,1.138-0.931  c0.143,0,0.283,0.035,0.418,0.1c0.186-0.237,0.443-0.373,0.743-0.373c0.091,0,0.185,0.012,0.28,0.036  c0.279,0.069,0.576,0.241,0.901,0.519c0.071,0.061,0.151,0.134,0.231,0.207c0.134,0.122,0.273,0.252,0.416,0.389l-0.053-0.26  c-0.111-0.171-0.276-0.374-0.478-0.597c-0.339-0.372-0.784-0.798-1.26-1.222c-0.398-0.354-0.818-0.707-1.217-1.025  c-0.053-0.042-0.1-0.082-0.147-0.122c-0.024,0.057-0.049,0.114-0.077,0.175C34.957,19.755,34.574,20.684,34.307,21.478z   M34.941,16.908c0.034-0.014,0.071-0.026,0.111-0.036c-0.02-0.017-0.04-0.035-0.062-0.054c-0.022-0.019-0.038-0.037-0.059-0.056  c-0.01,0.026-0.017,0.049-0.028,0.076c-0.011,0.026-0.021,0.052-0.031,0.076C34.896,16.909,34.918,16.911,34.941,16.908z   M39.381,9.773c-0.101,0.087-0.386,0.393-0.585,1.196c-0.132,0.537-0.227,1.293-0.2,2.363c0.003,0.114-0.038,0.218-0.106,0.302  c-0.057,0.071-0.133,0.127-0.226,0.155c-0.201,0.06-0.418-0.022-0.528-0.201c-0.081-0.132-0.171-0.265-0.262-0.39  c0,0,0-0.001-0.001-0.001c0,0,0,0.001,0.001,0.001c0.144,0.252,0.335,0.523,0.524,0.79c0.251,0.355,0.505,0.717,0.706,1.095  c0.139,0.262,0.253,0.531,0.319,0.811c0.064,0.271,0.105,0.579-0.078,0.811c-0.104,0.132-0.262,0.207-0.432,0.207  c-0.034,0-0.07-0.009-0.106-0.017c-0.368-0.08-0.83-0.547-1.172-0.958c0.022,0.108,0.015,0.22-0.04,0.335  c-0.069,0.142-0.201,0.237-0.358,0.27c-0.037,0.008-0.075,0.015-0.114,0.015c-0.168,0-0.341-0.068-0.602-0.171  c-0.103-0.041-0.216-0.084-0.329-0.123c-0.013-0.005-0.026-0.01-0.039-0.015c0.017,0.015,0.032,0.03,0.048,0.045  c0.384,0.35,0.667,0.702,0.526,1.083c-0.028,0.076-0.078,0.158-0.158,0.229c-0.099,0.088-0.246,0.157-0.469,0.174  c0.103,0.107,0.244,0.238,0.433,0.388c0.053,0.042,0.134,0.107,0.235,0.19c0.29,0.236,0.749,0.62,1.229,1.056  c0.366,0.332,0.742,0.693,1.066,1.044c0.285,0.309,0.529,0.609,0.684,0.87c0.01,0.017,0.014,0.038,0.022,0.057  c0.012,0.029,0.028,0.057,0.034,0.088l0.009,0.042c0.016-0.047,0.04-0.092,0.071-0.133c0.005-0.006,0.021-0.028,0.043-0.055  c0.033-0.043,0.084-0.107,0.151-0.192c0.14-0.177,0.347-0.432,0.594-0.725c0.517-0.612,1.205-1.377,1.809-1.89  c0.041-0.035,0.083-0.072,0.124-0.104c0.348-0.28,0.422-0.565,0.418-0.684c-0.09,0.026-0.257,0.117-0.48,0.343  c-0.053,0.054-0.119,0.094-0.191,0.117c-0.031,0.01-0.143,0.042-0.27,0.042c-0.254,0-0.459-0.128-0.55-0.342  c-0.154-0.362,0.045-0.744,0.789-1.514c0.709-0.733,0.836-1.018,0.858-1.107c-0.024-0.019-0.074-0.051-0.174-0.097  c-0.02-0.009-0.032-0.01-0.042-0.01c-0.137,0-0.376,0.221-0.519,0.353c-0.205,0.189-0.382,0.353-0.638,0.353  c-0.055,0-0.135-0.014-0.187-0.034c-0.136-0.051-0.242-0.153-0.297-0.287c-0.084-0.205-0.026-0.394,0.059-0.588  c-0.083,0.062-0.187,0.111-0.322,0.111c-0.081,0-0.298-0.023-0.429-0.247c-0.046-0.079-0.083-0.181-0.098-0.318  c-0.037-0.341,0.139-0.647,0.281-0.893c0,0,0,0,0,0c0.029-0.051,0.067-0.116,0.096-0.173c-0.02-0.004-0.038-0.006-0.054-0.006  c-0.037,0-0.075,0.019-0.113,0.047c-0.215,0.153-0.445,0.677-0.565,0.952c-0.097,0.224-0.352,0.334-0.581,0.252  c-0.019-0.007-0.032-0.02-0.049-0.029c-0.196-0.098-0.303-0.317-0.243-0.533c0.067-0.241,0.129-0.484,0.186-0.724  c0.143-0.603,0.253-1.191,0.325-1.714C39.546,10.713,39.548,9.964,39.381,9.773z M36.74,11.154c0.207-0.266,1.328-1.687,2.188-2.378  c0.14-0.113,0.22-0.226,0.263-0.317c-0.053,0.038-0.119,0.093-0.196,0.171c-0.053,0.054-0.119,0.094-0.191,0.117  c-0.037,0.012-0.133,0.038-0.245,0.038c-0.239,0-0.441-0.127-0.527-0.331C37.873,8.079,38.141,7.7,38.69,7.132  c0.45-0.465,0.6-0.697,0.65-0.8c-0.018-0.009-0.04-0.021-0.069-0.034C39.194,6.3,38.997,6.482,38.912,6.56  c-0.172,0.159-0.335,0.309-0.577,0.309c-0.055,0-0.13-0.013-0.182-0.033c-0.131-0.049-0.238-0.151-0.291-0.281  c-0.049-0.12-0.047-0.235-0.022-0.344c-0.034,0.008-0.071,0.012-0.11,0.012h0c-0.076,0-0.458-0.026-0.515-0.536  c-0.016-0.146,0.01-0.282,0.055-0.407c-0.05,0.098-0.108,0.22-0.175,0.372c-0.098,0.224-0.352,0.334-0.582,0.252  c-0.23-0.082-0.357-0.327-0.292-0.563c0.388-1.397,0.579-2.886,0.445-3.349c-0.181,0.225-0.565,0.915-0.52,2.729  c0.005,0.21-0.131,0.397-0.332,0.457c-0.058,0.017-0.116,0.022-0.174,0.018c0.002,0.003,0.004,0.005,0.006,0.008  c0.332,0.47,0.709,1.003,0.845,1.576c0.053,0.226,0.093,0.513-0.08,0.732c-0.101,0.128-0.254,0.202-0.419,0.202c0,0,0,0,0,0  c-0.295,0-0.655-0.311-0.958-0.649c-0.008,0.027-0.018,0.054-0.031,0.081c-0.084,0.173-0.261,0.281-0.462,0.281  c-0.133,0-0.26-0.043-0.436-0.111c0.19,0.225,0.292,0.459,0.197,0.717c-0.041,0.112-0.146,0.282-0.405,0.353  c0.062,0.057,0.135,0.119,0.22,0.188C34.463,8.851,36.208,10.265,36.74,11.154z M35.326,13.363c0.003,0.284-0.189,0.501-0.569,0.648  c0.215,0.094,0.397,0.193,0.563,0.293c0.001-0.005-0.001-0.011,0-0.016c0.02-0.151,0.094-0.368,0.33-0.544  c0.125-0.092,0.273-0.141,0.427-0.141c0.282,0,0.546,0.156,0.797,0.393c-0.145-0.221-0.273-0.44-0.372-0.659  c-0.069-0.023-0.134-0.057-0.187-0.112c-0.008-0.009-0.868-0.901-1.356-1.321c-0.032-0.027-0.062-0.051-0.09-0.073  c0.024,0.033,0.048,0.067,0.07,0.102c0.051,0.082,0.205,0.33,0.057,0.596c-0.054,0.097-0.136,0.17-0.236,0.212  C35.038,12.838,35.323,13.013,35.326,13.363z M33.607,15.745c0.363-0.283,0.744-0.348,1.025-0.23  c0.104-0.129,0.255-0.219,0.444-0.26c-0.196-0.147-0.451-0.294-0.796-0.436c-0.035-0.015-0.086-0.037-0.141-0.063  c-0.038,0.048-0.073,0.091-0.098,0.119c-0.175,0.202-0.306,0.384-0.407,0.553C33.631,15.527,33.622,15.633,33.607,15.745z   M31.772,13.548c0.25,0.452,0.251,1.008,0.18,1.61c0.155-0.424,0.411-0.782,0.855-0.782c0.04,0,0.082,0.003,0.124,0.011  c0.095,0.017,0.173,0.047,0.242,0.083c0.028-0.035,0.051-0.069,0.08-0.105c-0.055,0.005-0.113,0.009-0.169,0.009  c-0.453,0-0.606-0.244-0.657-0.389c-0.104-0.295,0.059-0.554,0.25-0.75c-0.136,0.008-0.295-0.055-0.39-0.158  c-0.159-0.174-0.139-0.391-0.13-0.484c0.004-0.042,0.009-0.083,0.017-0.123c-0.015,0.032-0.031,0.067-0.047,0.105  C32.018,12.836,31.886,13.21,31.772,13.548z M29.088,12.21c0.532,0.221,0.967,0.425,1.11,0.493c0.074-1.005,0.927-2.917,1.188-3.48  c0.046-0.099,0.083-0.187,0.112-0.265c-0.248,0.049-0.475-0.042-0.602-0.233c-0.115-0.173-0.124-0.378-0.061-0.634  c-0.19,0.21-0.342,0.355-0.58,0.355c-0.129,0-0.271-0.063-0.362-0.158c-0.287,1.065-0.668,1.065-0.81,1.065  c-0.309,0-0.519-0.225-0.624-0.668c-0.136-0.573-0.038-1.219,0.048-1.788c0.001-0.003,0.001-0.007,0.002-0.01  c-0.049,0.031-0.104,0.052-0.164,0.063c-0.205,0.035-0.412-0.07-0.501-0.26c-0.759-1.613-1.402-2.07-1.687-2.198  c0.095,0.479,0.93,1.718,1.898,2.786c0.164,0.181,0.16,0.458-0.009,0.634c-0.169,0.176-0.445,0.192-0.633,0.035  c-0.071-0.059-0.195-0.163-0.326-0.258c0.097,0.092,0.183,0.203,0.234,0.341c0.03,0.08,0.121,0.325-0.036,0.552  c-0.07,0.1-0.171,0.169-0.288,0.197c0.072,0.086,0.125,0.188,0.135,0.317c0.01,0.14-0.039,0.279-0.135,0.382  c-0.059,0.063-0.19,0.17-0.408,0.17c-0.128,0-0.252-0.036-0.395-0.077c-0.129-0.037-0.275-0.079-0.384-0.079  c-0.041,0-0.056,0.006-0.056,0.007c-0.019,0.024-0.033,0.044-0.045,0.06c0.091,0.07,0.328,0.21,0.94,0.424  c0.647,0.227,1.224,0.471,1.18,0.968c-0.024,0.269-0.242,0.476-0.558,0.527c-0.075,0.012-0.151,0.006-0.223-0.018  c-0.103-0.035-0.186-0.054-0.251-0.065c0.079,0.062,0.201,0.127,0.377,0.165c0.1,0.021,0.205,0.049,0.313,0.078  C28.003,11.779,28.587,12.001,29.088,12.21z M28.51,19.554c0.909,0.319,1.426,0.598,1.383,1.082  c-0.025,0.281-0.259,0.498-0.597,0.552c-0.074,0.012-0.151,0.006-0.223-0.018c-0.345-0.117-0.508-0.105-0.582-0.091  c0.05,0.108,0.244,0.33,0.68,0.424c0.027,0.006,0.057,0.014,0.084,0.02c0.796,0.183,1.816,0.585,2.581,0.913  c0.014,0.006,0.026,0.011,0.039,0.017c0.476,0.205,0.843,0.377,0.989,0.446c0.034,0.016,0.061,0.029,0.069,0.033  c0.043,0.021,0.081,0.049,0.116,0.081c0.002,0.002,0.005,0.003,0.008,0.005l-0.011-0.041c-0.008-0.031-0.008-0.064-0.009-0.096  c-0.001-0.019-0.007-0.038-0.006-0.057c0.027-0.382,0.151-0.881,0.317-1.403c0.173-0.545,0.391-1.116,0.593-1.609  c0.242-0.589,0.459-1.068,0.546-1.254c0.102-0.219,0.169-0.399,0.213-0.54c-0.36,0.15-0.661,0.066-0.825-0.18  c-0.182-0.274-0.111-0.642,0.094-1.166c-0.094,0.096-0.185,0.197-0.268,0.29c-0.107,0.119-0.198,0.216-0.289,0.296  c-0.13,0.115-0.257,0.188-0.419,0.188c-0.14,0-0.301-0.077-0.389-0.185c-0.048-0.058-0.08-0.122-0.099-0.19  c-0.012,0.053-0.026,0.1-0.038,0.15c-0.224,0.893-0.531,1.344-0.92,1.344c-0.138,0-0.245-0.047-0.332-0.115  c-0.185-0.144-0.271-0.391-0.312-0.546c-0.008-0.03-0.015-0.058-0.02-0.079c-0.163-0.687-0.049-1.438,0.062-2.165  c0.049-0.324,0.099-0.654,0.115-0.945c-0.025,0.154-0.046,0.315-0.06,0.47c-0.019,0.209-0.176,0.38-0.382,0.416  c-0.176,0.03-0.344-0.044-0.448-0.182c-0.019-0.025-0.04-0.049-0.054-0.078c-0.559-1.188-1.072-1.878-1.476-2.28  c-0.019-0.019-0.037-0.035-0.056-0.053c-0.247-0.101-0.508-0.203-0.765-0.293c0.048,0.205,0.195,0.511,0.412,0.877  c0.356,0.598,0.905,1.356,1.54,2.106c0.139,0.163,0.28,0.326,0.426,0.487c0.164,0.181,0.16,0.458-0.009,0.634  c-0.116,0.12-0.282,0.16-0.436,0.126c-0.018-0.004-0.038-0.008-0.056-0.012c-0.05-0.018-0.099-0.042-0.142-0.078  c-0.123-0.103-0.316-0.263-0.508-0.393c-0.175-0.119-0.351-0.212-0.472-0.212c-0.021,0-0.059,0-0.118,0.047  c0.052,0.038,0.114,0.079,0.163,0.111c0.237,0.156,0.532,0.351,0.651,0.672c0.036,0.095,0.13,0.348-0.031,0.581  c-0.022,0.032-0.051,0.058-0.081,0.083c-0.121,0.104-0.29,0.15-0.443,0.123c0.163,0.135,0.299,0.278,0.316,0.5  c0.011,0.144-0.038,0.283-0.137,0.389c-0.075,0.08-0.208,0.175-0.424,0.175c-0.143,0-0.288-0.042-0.457-0.09  c-0.166-0.048-0.355-0.102-0.504-0.102c-0.113,0-0.136,0.029-0.151,0.047c-0.069,0.086-0.099,0.137-0.111,0.165  C27.306,19.019,27.548,19.217,28.51,19.554z M34.275,30.841c-0.382-0.588-0.854-1.168-1.364-1.495  c-0.19-0.122-0.385-0.212-0.582-0.249c-1.638-0.308-1.929-1.115-1.978-1.448c-0.038-0.261,0.022-0.511,0.16-0.705  c-0.029-0.025-0.057-0.05-0.082-0.071c-0.388-0.335-0.919-0.794-0.75-1.396c0.089-0.317,0.358-0.506,0.718-0.506  c0.225,0,0.476,0.07,0.743,0.164c-0.44-0.438-0.82-1.008-0.341-1.582c0.123-0.147,0.277-0.244,0.451-0.291  c0.032-0.009,0.063-0.019,0.097-0.024c-0.042-0.018-0.088-0.037-0.131-0.055c-0.626-0.262-1.368-0.548-1.981-0.709  c-0.457,0.105-1.027,0.37-1.207,1.035c-0.121,0.447-0.09,0.817,0.094,1.133c0.339,0.583,1.1,0.792,1.108,0.794  c0.242,0.062,0.392,0.306,0.338,0.55c-0.053,0.245-0.289,0.404-0.538,0.357c0,0-0.079-0.013-0.196-0.013  c-1.033,0-1.102,0.849-1.124,1.129c-0.026,0.318,0.031,0.548,0.174,0.703c0.237,0.257,0.7,0.295,0.955,0.295  c0.215,0,0.372-0.026,0.373-0.026c0.236-0.041,0.462,0.104,0.526,0.334c0.064,0.23-0.056,0.47-0.277,0.557  c-0.329,0.131-1.222,0.603-1.385,1.207c-0.074,0.275,0.015,0.567,0.272,0.893c0.201,0.255,0.368,0.288,0.492,0.288  c0.2,0,0.422-0.103,0.6-0.186c0.172-0.08,0.321-0.149,0.489-0.149c0.288,0,0.512,0.205,0.544,0.499  c0.061,0.574,0.147,0.652,0.507,0.632c0.516-0.03,0.65-0.657,0.655-0.683c0.044-0.219,0.238-0.374,0.456-0.374  c0.02,0,0.039,0.001,0.059,0.004c0.242,0.031,0.419,0.241,0.406,0.484c0,0.005-0.027,0.724,0.376,1.128  c0.034,0.034,0.056,0.04,0.089,0.04c0.097,0,0.223-0.059,0.345-0.137c0.107-0.069,0.211-0.153,0.288-0.224  c0.1-0.288,0.197-0.519,0.318-0.713c-0.039-0.134-0.069-0.231-0.088-0.279c-0.141-0.356,0.03-0.764,0.385-0.907  C34.268,30.842,34.271,30.842,34.275,30.841z M35.5,31.08c0.109,0.204,0.202,0.39,0.273,0.541l0.656-0.183l-0.006-0.025  c-0.061-0.192-0.116-0.381-0.168-0.567c-0.052-0.185-0.099-0.366-0.143-0.543c-0.172-0.691-0.283-1.314-0.343-1.828  c-0.02-0.174-0.035-0.333-0.044-0.479c-0.01-0.168-0.016-0.324-0.011-0.45c0.002-0.046,0.004-0.093,0.006-0.14  c0.001-0.012,0.002-0.024,0.003-0.036c0.022-0.339,0.081-0.701,0.237-1.101c0.08-0.206,0.185-0.423,0.324-0.652  c-0.287-0.134-0.739-0.406-0.726-0.878c0.005-0.195,0.091-0.349,0.202-0.472c0.085-0.093,0.184-0.168,0.278-0.223  c-0.087-0.028-0.168-0.063-0.249-0.096c-0.359-0.149-0.654-0.351-0.873-0.576c-0.03,0.085-0.06,0.171-0.089,0.256  c-0.006,0.018-0.012,0.035-0.018,0.052c-0.145,0.426-0.273,0.825-0.335,1.02c-0.024,0.076-0.039,0.123-0.039,0.125  c-0.039,0.124-0.13,0.213-0.24,0.267c-0.066,0.033-0.137,0.056-0.212,0.06c-0.029-0.001-0.056-0.003-0.084-0.009  c-0.027,0.053-0.065,0.099-0.109,0.137c-0.056,0.049-0.123,0.087-0.198,0.104c-0.035,0.008-0.089,0.014-0.125,0.014  c-0.233,0-0.437-0.14-0.722-0.377c-0.059-0.049-0.121-0.101-0.188-0.159c-0.063-0.054-0.143-0.122-0.231-0.194  c-0.266-0.219-0.607-0.477-0.795-0.509c0.078,0.171,0.45,0.492,0.637,0.653c0.03,0.026,0.061,0.053,0.093,0.08  c0.413,0.36,0.856,0.796,0.502,1.268c-0.073,0.097-0.242,0.26-0.565,0.26c-0.295,0-0.653-0.137-1.031-0.282  c-0.089-0.034-0.189-0.073-0.289-0.109c0.059,0.054,0.116,0.103,0.159,0.14c0.304,0.262,0.591,0.51,0.548,0.87  c-0.023,0.192-0.143,0.358-0.33,0.455c0.001-0.001,0.002-0.001,0.003-0.001c0.01,0,0.009,0.037,0.04,0.096  c0.051,0.096,0.287,0.421,1.203,0.594c0.494,0.093,0.948,0.359,1.353,0.71c0.53,0.458,0.976,1.059,1.319,1.615  C35.295,30.708,35.404,30.901,35.5,31.08z M52.567,67.572L52.4,66.873c-0.542-2.293-1.125-3.818-1.931-5.929  c-0.437-1.146-0.95-2.489-1.556-4.226c1.12,4.402,2.028,7.989,2.315,9.214c1.024,4.354-0.264,6.003-0.414,6.176  c-0.138,0.159-0.332,0.241-0.528,0.241c-0.161,0-0.324-0.056-0.456-0.17c-0.287-0.248-0.322-0.679-0.082-0.971  c0.038-0.052,0.965-1.376,0.123-4.958c-0.402-1.707-2.028-8.087-3.75-14.841c-2.477-9.715-4.373-17.174-5.064-20.084l-1.144,0.223  c-0.03,0.006-0.06,0.009-0.089,0.009c-0.212,0-0.402-0.145-0.452-0.358l-0.102-0.432c-0.403-0.118-0.791-0.336-1.161-0.649  c-0.211,0.492-0.479,0.855-0.771,1.12l0.099,0.42c0.058,0.243-0.087,0.488-0.327,0.555l-1.472,0.411  c-0.021,0.006-0.043,0.006-0.065,0.009c0.632,2.408,1.919,7.69,3.728,15.131c2.041,8.396,4.355,17.912,4.979,19.985  c1.076,3.578,2.57,4.227,2.585,4.233c0.364,0.127,0.547,0.521,0.421,0.884c-0.1,0.287-0.374,0.466-0.664,0.466  c-0.078,0-0.156-0.013-0.232-0.039c-0.217-0.075-2.156-0.86-3.445-5.142c-0.521-1.732-2.111-8.199-3.851-15.343  c0.292,1.618,0.598,3.416,0.921,5.312c0.939,5.517,2.004,11.771,2.793,13.772c0.14,0.355,0.273,0.735,0.402,1.102  c0.881,2.511,1.635,4.157,3.996,4.157c0.657,0,1.422-0.129,2.275-0.384C54.204,75.354,53.814,72.786,52.567,67.572z M47.776,72.997  c-1.365,0.612-2.27,1.689-2.422,2.882c-0.048,0.382,0.222,0.731,0.604,0.78c0.03,0.004,0.06,0.005,0.089,0.005  c0.346,0,0.646-0.257,0.691-0.609c0.088-0.696,0.705-1.38,1.609-1.785c0.922-0.414,2.303-0.584,3.413,0.178  c0.317,0.217,0.751,0.137,0.969-0.18c0.218-0.317,0.137-0.751-0.18-0.969C51.222,72.387,49.393,72.272,47.776,72.997z"></path></svg>