<svg xmlns:dc="http://purl.org/dc/elements/1.1/" xmlns:cc="http://creativecommons.org/ns#" xmlns:rdf="http://www.w3.org/1999/02/22-rdf-syntax-ns#" xmlns:svg="http://www.w3.org/2000/svg" xmlns="http://www.w3.org/2000/svg" xmlns:sodipodi="http://sodipodi.sourceforge.net/DTD/sodipodi-0.dtd" xmlns:inkscape="http://www.inkscape.org/namespaces/inkscape" version="1.1" x="0px" y="0px" viewBox="0 0 100 100"><g transform="translate(0,-952.36218)"><path d="m 50,956.36218 c -1.6569,0 -3,1.3432 -3,3 l 0,6.125 c -18.014,1.4517 -32.4233,15.861 -33.875,33.875 l -6.125,0 c -1.6569,0 -3,1.34312 -3,3.00002 0,1.6568 1.3431,3 3,3 l 6.125,0 c 1.4517,18.014 15.861,32.4233 33.875,33.875 l 0,6.125 c 0,1.6568 1.3431,3 3,3 1.6568,0 3,-1.3432 3,-3 l 0,-6.125 c 18.014,-1.4517 32.4233,-15.861 33.875,-33.875 l 6.125,0 c 1.6569,0 3,-1.3432 3,-3 0,-1.6569 -1.3431,-3.00002 -3,-3.00002 l -6.125,0 C 85.4233,981.34818 71.014,966.93888 53,965.48718 l 0,-6.125 c 0,-1.6568 -1.3432,-3 -3,-3 z m -3.1875,15.1562 c 0.061,-0.01 0.1264,0.01 0.1875,0 l 0,5.8438 c 0,1.6568 1.3431,3 3,3 1.6568,0 3,-1.3432 3,-3 l 0,-5.8438 c 14.761,1.4054 26.4384,13.0827 27.8438,27.8438 l -5.8438,0 c -1.6569,0 -3,1.34312 -3,3.00002 0,1.6568 1.3431,3 3,3 l 5.8438,0 C 79.4384,1020.1233 67.761,1031.8006 53,1033.206 l 0,-5.8438 c 0,-1.6568 -1.3432,-3 -3,-3 -1.6569,0 -3,1.3432 -3,3 l 0,5.8438 c -14.761,-1.4054 -26.4384,-13.0827 -27.8437,-27.8438 l 5.8437,0 c 1.6569,0 3,-1.3432 3,-3 0,-1.6569 -1.3431,-3.00002 -3,-3.00002 l -5.8437,0 c 1.3995,-14.6999 12.9817,-26.3594 27.6562,-27.8438 z" style="text-indent:0;text-transform:none;direction:ltr;block-progression:tb;baseline-shift:baseline;color:#000000;enable-background:accumulate;" fill="#000000" fill-opacity="1" stroke="none" marker="none" visibility="visible" display="inline" overflow="visible"></path></g></svg>