<svg xmlns="http://www.w3.org/2000/svg" xmlns:xlink="http://www.w3.org/1999/xlink" version="1.1" x="0px" y="0px" viewBox="0 0 100 100" enable-background="new 0 0 100 100" xml:space="preserve"><g display="none"><g display="inline"><path d="M49.938,82.625c-15.019,0-32.923-5.671-32.923-32.688c0-30.35,12.075-32.695,29.133-32.695l3.79,0.007l3.79-0.007    c17.058,0,29.133,2.345,29.133,32.695C82.86,76.954,64.957,82.625,49.938,82.625z M46.148,19.243c-14.56,0-27.133,0-27.133,30.695    c0,20.362,10.404,30.688,30.923,30.688c20.519,0,30.923-10.325,30.923-30.688c0-30.695-12.574-30.695-27.133-30.695l-3.79,0.007    L46.148,19.243z"></path></g><path display="inline" d="M84.461,26.853c0.259-0.439,0.396-0.951,0.403-1.516c0.016-1.211-0.563-2.44-1.063-3.192   c0.548-1.295,0.639-3.062,0.188-4.485c-0.219-0.688-0.549-1.232-0.972-1.608c0.19-1.906-0.002-3.062-0.62-3.803   c-0.354-0.426-0.831-0.689-1.418-0.788c-1.377-1.12-2.654-1.393-3.692-0.868c-0.644-0.493-1.512-0.771-2.479-0.771   c-0.756,0-1.592,0.179-2.263,0.56c-0.592-0.654-1.37-1.031-2.205-1.031c-0.905,0-1.725,0.434-2.322,1.188   c-0.932-0.626-2.164-0.921-3.195-0.921c-0.833,0-1.566,0.18-2.146,0.51c-0.706-0.887-1.575-1.009-1.999-1.009   c-0.658,0-1.313,0.273-1.818,0.714c-0.77-0.541-1.718-0.838-2.736-0.838c-0.953,0-1.835,0.263-2.499,0.715   c-0.791-0.714-1.844-1.129-2.953-1.129c-1.046,0-1.994,0.357-2.704,0.99c-0.816-0.658-1.773-1.011-2.779-1.011   c-1.134,0-2.192,0.444-2.966,1.198c-0.609-0.553-1.387-0.86-2.244-0.86c-1.014,0-1.952,0.419-2.602,1.102   c-0.792-0.619-1.702-0.949-2.652-0.949c-0.979,0-1.882,0.361-2.534,0.959c-0.6-0.493-1.376-0.776-2.219-0.776   c-0.984,0-1.91,0.39-2.541,1.069c-0.145,0.155-0.296,0.35-0.431,0.587c-1.349-0.8-3.237-1.011-4.339-0.283   c-1.042-0.543-2.329-0.278-3.72,0.854c-0.587,0.098-1.063,0.362-1.417,0.787c-0.618,0.741-0.811,1.896-0.621,3.804   c-0.423,0.375-0.753,0.919-0.971,1.607c-0.451,1.423-0.36,3.19,0.188,4.485c-0.5,0.752-1.08,1.982-1.064,3.193   c0.008,0.564,0.145,1.076,0.403,1.515c-0.9,1.563-0.769,3.081,0.392,4.525c-0.283,1.144-0.179,2.216,0.308,3.067   c0.248,0.432,0.587,0.782,0.981,1.02c0.079,0.57,0.324,1.133,0.703,1.579c0.478,0.563,1.099,0.873,1.749,0.873   c0.223,0,0.499-0.038,0.794-0.162c0.522,0.446,1.205,0.695,1.96,0.695c0.572,0,1.389-0.145,2.305-0.749   c0.595,0.429,1.395,0.68,2.257,0.68c0.996,0,1.925-0.326,2.7-0.934c0.74,0.577,1.736,0.935,2.72,0.935   c0.971,0,1.871-0.334,2.62-0.958c0.882,0.776,2.019,1.242,3.124,1.242c1.202,0,2.309-0.536,3.199-1.53   c1.234,0.929,2.628,1.431,4.017,1.431c1.249,0,2.377-0.421,3.223-1.181c0.62,0.333,1.412,0.527,2.247,0.527   c1.074,0,2.039-0.327,2.783-0.923c1.052,1.024,2.431,1.628,3.811,1.628c1.047,0,2.061-0.333,2.98-0.971   c1.076,1.273,2.191,1.571,2.998,1.571c0.959,0,1.931-0.432,2.741-1.191c0.703,0.556,1.548,0.853,2.464,0.853   c1.181,0,2.262-0.472,3.02-1.088c0.699,0.545,1.508,0.836,2.353,0.836c0.824,0,1.624-0.287,2.227-0.764   c0.645,0.443,1.247,0.661,1.824,0.661c0.477,0,1.091-0.149,1.65-0.741c0.268,0.101,0.516,0.133,0.721,0.133   c0.649,0,1.271-0.31,1.748-0.872c0.379-0.446,0.624-1.009,0.704-1.579c0.395-0.239,0.734-0.588,0.981-1.021   c0.486-0.851,0.591-1.922,0.308-3.066C85.229,29.935,85.361,28.417,84.461,26.853z"></path><g display="inline"><g><circle fill="#000000" cx="30.614" cy="53.406" r="1.427"></circle></g><g><circle fill="#000000" cx="69.262" cy="53.406" r="1.427"></circle></g></g><g display="inline"><g><path fill="#000000" d="M50.357,65.647c-2.129,0-4.236-0.521-4.837-0.972c-0.221-0.166-0.266-0.479-0.101-0.7     s0.479-0.267,0.7-0.101c0.683,0.512,5.576,1.457,7.646-0.008c0.225-0.16,0.537-0.107,0.697,0.119     c0.159,0.226,0.106,0.538-0.119,0.697C53.34,65.394,51.843,65.647,50.357,65.647z"></path></g><g><path fill="#000000" d="M50.037,68.792c-3.625,0-7.482-1.521-8.972-3.536c-0.55-0.744-0.726-1.511-0.509-2.217     c0.667-2.171,2.17-2.464,3.551-2.464c0.686,0,1.438,0.079,2.308,0.17c1.067,0.111,2.276,0.238,3.621,0.238     c1.276,0,2.43-0.094,3.449-0.177c0.838-0.067,1.563-0.126,2.224-0.126c1.467,0,3.046,0.281,3.648,2.367     c0.224,0.774,0.031,1.596-0.555,2.375C57.334,67.375,53.647,68.792,50.037,68.792z M44.107,61.575     c-1.517,0-2.196,0.46-2.595,1.758c-0.122,0.396-0.001,0.843,0.357,1.328c1.137,1.539,4.502,3.131,8.167,3.131     c3.723,0,6.883-1.53,7.967-2.97c0.396-0.526,0.527-1.029,0.393-1.497c-0.354-1.229-1.033-1.645-2.688-1.645     c-0.621,0-1.326,0.057-2.144,0.123c-1.037,0.084-2.213,0.18-3.529,0.18c-1.397,0-2.634-0.13-3.725-0.243     C45.469,61.651,44.741,61.575,44.107,61.575z"></path></g></g></g><g display="none"><g display="inline"><g><g><circle cx="66.273" cy="59.91" r="1.327"></circle></g></g><g><g><circle cx="38.102" cy="59.91" r="1.326"></circle></g></g></g><g display="inline"><g><path fill="#000000" d="M52.158,69.601c-0.221,0-0.432-0.01-0.634-0.024c-2.749-0.212-4.996-1.755-5.921-3.101     c-0.186-0.27-0.116-0.638,0.153-0.823c0.27-0.184,0.637-0.115,0.821,0.152c0.771,1.12,2.676,2.411,5.038,2.591     c1.604,0.121,3.995-0.246,6.317-2.708c0.226-0.239,0.601-0.25,0.837-0.026c0.236,0.225,0.247,0.599,0.024,0.837     C56.438,68.997,53.98,69.601,52.158,69.601z"></path></g></g><g display="inline"><path d="M77.918,66.845c-5.342,8.6-14.874,14.342-25.723,14.342c-13.854,0-25.557-9.361-29.134-22.089    c-0.286,0.644-0.594,1.308-0.948,2.015c0.833,1.378,1.453,3.426,1.629,5.647c5.576,9.976,16.238,16.738,28.454,16.738    c10.353,0,19.587-4.86,25.557-12.412C77.491,69.781,77.479,68.324,77.918,66.845z"></path></g><path display="inline" d="M93.043,61.246c2.94-7.682,1.406-15.358-1.836-18.676c2.415-8.735,0.77-15.951-4.553-19.959   c-1.557-8.266-10.42-11.688-14.333-11.429c-1.79-4.006-9.07-5.823-14.138-5.823c-2.005,0-4.395,0.272-5.7,1.397   c-1.163-0.656-2.585-0.988-4.246-0.988c-5.649,0-13.727,4.256-15.227,8.53c-0.283-0.033-0.571-0.049-0.863-0.049   c-5.67,0-12.039,6.266-13.303,11.435c-5.728,2.5-9.842,9.983-7.241,18.822c-0.507,0.775-1.015,1.479-1.509,2.162   c-2.334,3.229-4.359,6.031-2.156,11.892c-0.074,0.112-0.15,0.229-0.228,0.346C6.025,61.47,3.263,65.667,6.71,70.668   c-0.919,1.121-1.303,2.628-1.114,4.423c0.263,2.489,1.684,5.357,3.269,6.87c-1.743,2.407-2.134,5.191-1.196,8.471   c0.753,2.633,2.655,4.334,4.848,4.334c1.851,0,3.428-1.208,4.181-3.137c2.848-0.489,4.267-1.959,4.982-3.257   c4.032-0.202,5.327-2.765,6.48-5.623c2.388-0.603,5.842-3.698,6.303-5.897c0.13-0.624-0.269-1.232-0.892-1.363   c-0.622-0.132-1.233,0.268-1.362,0.89c-0.324,1.548-3.743,4.175-4.771,4.175c-0.01,0-0.02-0.002-0.028-0.002   c-0.501-0.029-0.957,0.261-1.14,0.725c-1.034,2.603-1.687,4.25-3.805,4.693c0.432-3.018-0.755-6.524-2.267-9.218   c1.71-1.146,2.906-2.962,3.489-5.323c0.921-3.73,0.102-7.887-1.288-10.182c1.906-3.807,2.811-6.677,2.742-8.71   c3.465-1.243,7.263-5.496,8.263-8.659c3.424-0.262,9.575-1.082,12.506-6.281c1.946,1.938,4.057,2.392,5.605,2.392   c1.491,0,3.087-0.428,4.569-1.217l0.04,0.04c2.008,2.007,3.906,3.902,6.724,3.902c0.585,0,1.182-0.08,1.802-0.242   c1.975,3.495,6.628,4.792,9.509,4.792c0.333,0,0.645-0.016,0.934-0.048c0.107,2.537,0.933,4.645,1.942,5.867   c-1.236,3.288,0.175,8.907,2.024,11.367c-2.681,3.839-1.389,8.044,0.06,10.209c-1.991,2.725-2.047,4.785-0.172,7.454   c-1.327,1.131-2.24,2.626-2.617,4.239c-2.583-0.377-3.011-2.839-3.087-3.654c-0.057-0.62-0.604-1.061-1.218-1.043   c-0.85,0.047-4.339-1.075-4.614-2.869c-0.095-0.629-0.681-1.063-1.311-0.966c-0.628,0.096-1.061,0.683-0.965,1.311   c0.431,2.835,3.885,4.354,5.964,4.732c0.524,2.342,2.204,4.431,5.078,4.776c0.216,2.299,1.569,4.296,3.793,5.525   c0.603,0.4,1.233,0.602,1.874,0.602c1.725,0,2.96-1.449,3.677-2.617c0.67,0.459,1.571,0.886,2.61,0.886   c0.883,0,2.188-0.323,3.398-1.872c2.657-3.395,3.382-9.243-0.097-14.23C95.929,72.113,94.82,64.679,93.043,61.246z M90.795,61.934   c1.744,2.838,2.716,10.155-1.649,14.021c-0.46,0.41-0.519,1.108-0.13,1.586c3.431,4.221,2.951,9.336,0.705,12.206   c-0.521,0.666-1.042,0.991-1.59,0.991c-0.896,0-1.808-0.841-2.079-1.163c-0.257-0.31-0.659-0.465-1.063-0.396   c-0.401,0.063-0.737,0.334-0.887,0.711c-0.416,1.039-1.42,2.58-2.259,2.58c-0.187,0-0.399-0.079-0.628-0.235   c-0.031-0.021-0.064-0.042-0.098-0.059c-1.683-0.917-2.638-2.352-2.688-4.041c-0.057-1.874,0.996-3.722,2.748-4.817   c0.28-0.175,0.471-0.463,0.525-0.789c0.053-0.326-0.037-0.659-0.248-0.915c-1.976-2.398-2.214-3.508,0.003-6.225   c0.359-0.44,0.343-1.081-0.042-1.501c-1.217-1.332-2.9-5.387,0.021-8.754c0.21-0.242,0.31-0.562,0.274-0.879   c-0.036-0.319-0.203-0.608-0.46-0.799c-1.442-1.061-3.402-7.508-1.852-10.011c0.313-0.505,0.188-1.167-0.29-1.523   c-0.832-0.625-1.948-3.019-1.695-6.168c0.034-0.437-0.222-0.827-0.6-1.051c-0.375-0.223-0.886-0.184-1.255,0.057   c-0.088,0.057-0.512,0.208-1.401,0.208c-2.405,0-6.654-1.167-7.82-4.3c-0.108-0.287-0.326-0.52-0.604-0.646   c-0.28-0.125-0.599-0.136-0.884-0.025c-0.739,0.284-1.393,0.42-2.002,0.42c-1.866,0-3.223-1.354-5.101-3.23l-0.675-0.669   c-0.383-0.376-0.971-0.438-1.423-0.149c-1.336,0.854-2.803,1.323-4.135,1.323c-1.944,0-3.611-0.97-4.954-2.883   c-0.246-0.35-0.666-0.533-1.092-0.478c-0.425,0.057-0.783,0.346-0.928,0.75c-1.87,5.197-7.184,6.235-12.136,6.565   c-0.545,0.036-0.988,0.451-1.062,0.991c-0.353,2.584-4.691,7.428-7.665,7.924c-0.321,0.054-0.604,0.241-0.779,0.515   c-0.175,0.275-0.226,0.611-0.139,0.925c0.239,0.858,0.204,3.144-2.714,8.807c-0.205,0.4-0.16,0.881,0.116,1.233   c1.276,1.632,2.1,5.572,1.293,8.838c-0.368,1.492-1.244,3.468-3.324,4.402c-0.305,0.138-0.535,0.4-0.629,0.722   c-0.096,0.321-0.046,0.667,0.134,0.947c2.173,3.379,3.064,7.021,2.386,9.41c-0.237,0.204-0.397,0.498-0.411,0.834   c-0.001,0.045,0.018,0.084,0.021,0.128c-0.7,1.214-2.012,1.933-3.921,2.127c-0.479,0.048-0.878,0.39-0.997,0.856   c-0.342,1.337-1.184,2.166-2.198,2.166c-1.14,0-2.176-1.048-2.64-2.668c-0.841-2.941-0.369-5.251,1.484-7.269   c0.248-0.27,0.352-0.639,0.282-0.997c-0.07-0.359-0.306-0.663-0.636-0.818c-0.927-0.438-2.839-3.152-3.125-5.866   c-0.152-1.443,0.202-2.505,1.05-3.153c0.249-0.188,0.409-0.47,0.445-0.779c0.036-0.308-0.055-0.62-0.252-0.86   c-3.326-4.064-1.2-7.293,0.506-9.889c0.206-0.312,0.399-0.605,0.569-0.882c0.192-0.311,0.225-0.697,0.086-1.037   c-2.068-5.064-0.66-7.011,1.671-10.235c0.579-0.801,1.235-1.708,1.874-2.726c0.181-0.287,0.225-0.64,0.121-0.963   c-2.601-8.062,1.156-14.836,6.291-16.729c0.389-0.143,0.67-0.485,0.737-0.894c0.689-4.247,6.444-10.156,11.167-10.156   c0.502,0,0.983,0.069,1.431,0.207c0.347,0.107,0.726,0.044,1.02-0.174c0.294-0.217,0.466-0.559,0.466-0.924   c0-1.057,1.337-2.941,4.323-4.769c2.842-1.741,6.234-2.821,8.851-2.821c1.612,0,2.877,0.383,3.758,1.14   c0.292,0.25,0.691,0.338,1.058,0.234c0.369-0.103,0.664-0.385,0.782-0.75c0.104-0.323,1.347-1.033,4.348-1.033   c5.36,0,11.723,2.153,12.215,5.034c0.058,0.34,0.267,0.636,0.566,0.806c0.302,0.17,0.661,0.196,0.982,0.071   c0.077-0.03,0.313-0.101,0.795-0.101c3.01,0,10.657,2.869,11.722,9.969c0.047,0.312,0.22,0.59,0.479,0.771   c4.916,3.441,6.325,10.148,3.864,18.399c-0.132,0.444,0.015,0.924,0.374,1.217c2.676,2.19,4.698,9.341,1.529,17.074   C90.573,61.235,90.603,61.62,90.795,61.934z"></path></g><g display="none"><path display="inline" fill="#000000" d="M62.328,31.187c0,0,0.907-5.112,7.638-4.656c-0.001-0.005,0.002-0.012,0.001-0.017   c-0.224-2.429-7.194-6.09-9.473-6.025c-0.904,0.025-2.304,1.212-3.373,2.265C61.352,26.364,62.328,31.187,62.328,31.187z"></path><path display="inline" fill="#000000" d="M80.913,65.47c-0.034,0-0.068-0.003-0.103-0.011   c-15.271-3.406-22.992-12.678-24.035-20.327c-13.519,16.591-29.3,16.794-36.956,16.892l-0.836,0.012   c-0.232,0.004-0.459,0.006-0.682,0.006c-0.001,0-0.001,0-0.001,0c-7.009,0-10.178-1.99-13.282-5.427   c-0.114-0.126-0.152-0.304-0.099-0.466s0.189-0.282,0.356-0.316c3.761-0.766,5.848-5.43,8.491-11.336   c1.059-2.368,2.155-4.816,3.488-7.316c3.73-6.994,12.329-18.727,28.007-18.727l0.259,0.001c11.422,0.096,15.438,8.031,16.61,11.307   c0.768-1.509,2.595-3.694,6.743-3.694c0.931,0,1.945,0.112,3.016,0.332c7.8,1.603,7.124,14.671,6.837,20.251   c-0.045,0.854-0.08,1.528-0.064,1.863c0.023,0.47,0.005,1.095-0.017,1.82c-0.096,3.319-0.258,8.862,2.632,14.34   c0.08,0.085,0.128,0.198,0.128,0.324c0,0.265-0.211,0.479-0.481,0.474C80.92,65.47,80.917,65.47,80.913,65.47z M57.139,43.442   c0.049,0,0.097,0.007,0.145,0.022c0.188,0.061,0.32,0.231,0.329,0.43c0.336,7.344,7.5,16.753,22.422,20.41   c-2.584-5.444-2.424-10.961-2.335-14c0.021-0.705,0.038-1.314,0.018-1.747c-0.019-0.382,0.016-1.042,0.063-1.958   c0.251-4.877,0.921-17.835-6.081-19.273c-1.008-0.208-1.959-0.313-2.825-0.313c-5.514,0-6.316,4.268-6.323,4.311   c-0.039,0.225-0.232,0.389-0.46,0.393c-0.003,0-0.006,0-0.008,0c-0.225,0-0.419-0.159-0.464-0.379   c-0.099-0.483-2.564-11.824-16.107-11.938L45.261,19.4c-15.184,0-23.54,11.419-27.17,18.225c-1.318,2.471-2.407,4.905-3.46,7.258   c-2.579,5.762-4.65,10.39-8.382,11.665c2.822,2.954,5.753,4.546,12.051,4.546c0,0,0.001,0,0.002,0c0.218,0,0.44-0.002,0.667-0.006   l0.84-0.012c7.647-0.098,23.561-0.304,36.959-17.452C56.856,43.508,56.996,43.442,57.139,43.442z"></path><path display="inline" fill="#000000" d="M44.831,91.23c-17.562,0-31.318-12.277-31.318-27.949c0-0.63,0.029-1.282,0.091-2.058   l0.042-0.513l0.507,0.083c1.405,0.229,2.977,0.326,4.824,0.294l0.84-0.012c7.647-0.098,23.561-0.304,36.958-17.452l0.787-1.009   l0.059,1.279c0.309,6.742,6.42,15.402,19.377,19.549l0.339,0.107l-0.01,0.355C76.933,78.973,62.354,91.23,44.831,91.23z    M14.512,61.806c-0.035,0.535-0.051,1.014-0.051,1.476c0,15.141,13.34,27.001,30.371,27.001c16.876,0,30.938-11.652,31.537-26.047   c-12.421-4.087-18.654-12.3-19.583-19.104c-13.52,16.591-29.3,16.794-36.956,16.892l-0.836,0.012   C17.305,62.063,15.84,61.989,14.512,61.806z"></path><g display="inline"><path fill="#000000" d="M61.147,79.388c-6.693,0-12.139-4.835-12.139-10.777s5.446-10.777,12.139-10.777    c6.692,0,12.139,4.835,12.139,10.777S67.84,79.388,61.147,79.388z M61.147,58.78c-6.172,0-11.192,4.41-11.192,9.83    s5.02,9.829,11.192,9.829c6.171,0,11.191-4.409,11.191-9.829S67.318,58.78,61.147,58.78z"></path></g><g display="inline"><circle fill="#000000" cx="60.494" cy="68.801" r="1.125"></circle></g><path display="inline" fill="#000000" d="M29.63,79.388c-6.693,0-12.139-4.835-12.139-10.777c0-2.773,1.192-5.412,3.357-7.429   c0.085-0.079,0.197-0.124,0.313-0.127c3.633-0.072,8.487-0.363,13.823-1.986c0.111-0.035,0.234-0.025,0.341,0.025   c3.974,1.879,6.443,5.525,6.443,9.517C41.769,74.553,36.323,79.388,29.63,79.388z M21.364,61.999   c-1.888,1.817-2.926,4.159-2.926,6.611c0,5.42,5.02,9.829,11.191,9.829s11.191-4.409,11.191-9.829c0-3.566-2.194-6.84-5.738-8.581   C29.795,61.612,24.997,61.92,21.364,61.999z"></path><circle display="inline" fill="#000000" cx="30.283" cy="68.801" r="1.125"></circle><path display="inline" fill="#000000" d="M49.482,70.149c-0.128,0-0.258-0.053-0.351-0.155c-0.941-1.04-2.371-1.652-3.923-1.68   c-1.405-0.039-2.754,0.441-3.511,1.218c-0.184,0.188-0.483,0.193-0.67,0.01c-0.188-0.183-0.192-0.482-0.009-0.67   c0.947-0.974,2.512-1.541,4.207-1.505c1.813,0.033,3.492,0.758,4.607,1.99c0.176,0.194,0.161,0.494-0.033,0.67   C49.708,70.109,49.596,70.149,49.482,70.149z"></path><path display="inline" fill="#000000" d="M45.366,81.091c-0.177,0-0.347-0.008-0.508-0.02c-2.202-0.17-4.002-1.405-4.743-2.483   c-0.148-0.216-0.093-0.511,0.123-0.659c0.216-0.147,0.511-0.093,0.659,0.122c0.617,0.897,2.143,1.931,4.034,2.075   c1.286,0.096,3.201-0.197,5.06-2.17c0.18-0.191,0.48-0.199,0.67-0.021c0.19,0.18,0.199,0.479,0.02,0.67   C48.793,80.607,46.825,81.091,45.366,81.091z"></path><path display="inline" fill="#000000" d="M85.036,86.265c-4.576,0-9.984-1.545-14.744-6.485l0.683-0.656   c6.21,6.444,13.171,6.535,16.775,6.014c3.588-0.521,5.883-1.861,6.273-2.314c-0.098-0.14-0.396-0.393-0.642-0.602   c-1.533-1.307-4.724-4.024-5-12.529l-0.006-0.189c-0.23-7.116-0.326-10.063,2.382-25.253c1.72-9.645,0.036-19.148-4.503-25.42   c-3.181-4.395-7.508-7.01-12.861-7.772c-13.551-1.931-17.629,4.879-19.821,8.537c-0.169,0.282-0.325,0.543-0.474,0.778   l-0.802-0.504c0.145-0.23,0.298-0.485,0.463-0.761c2.142-3.572,6.595-11.005,20.767-8.988c5.538,0.789,10.205,3.609,13.495,8.155   c4.688,6.477,6.433,16.25,4.669,26.143C89,59.508,89.095,62.424,89.323,69.471l0.006,0.189c0.262,8.087,3.237,10.621,4.667,11.839   c0.555,0.472,0.954,0.812,1.001,1.288c0.056,0.556-0.665,1.184-2.144,1.867C90.976,85.523,88.206,86.265,85.036,86.265z"></path></g><g display="none"><g display="inline"><g><path d="M49.996,79.165c-14.379,0-26.967-9.461-29.93-22.495c-0.08-0.352,0.02-0.72,0.267-0.982     c0.247-0.263,0.612-0.385,0.964-0.328c4.395,0.713,9.526,0.703,14.811-0.042c14.608-2.06,26.25-14.885,26.365-15.014     c0.291-0.325,0.746-0.442,1.159-0.302c0.411,0.141,0.699,0.515,0.73,0.948c0.005,0.074,0.584,7.39,5.238,11.98     c4.75,4.687,8.497,6.009,8.533,6.021c0.282,0.098,0.511,0.306,0.635,0.574c0.124,0.271,0.132,0.579,0.021,0.854     c-0.036,0.093-0.867,2.021-1.251,2.768c-0.074,0.143-0.148,0.275-0.225,0.409l-0.086,0.153c-0.414,0.717-1.021,1.702-1.132,1.883     C70.461,74.102,60.711,79.165,49.996,79.165z M22.585,57.73c3.349,11.254,14.612,19.266,27.411,19.266     c9.984,0,19.06-4.7,24.273-12.572c0.091-0.147,0.679-1.103,1.072-1.783l0.086-0.151c0.063-0.111,0.126-0.224,0.185-0.337     c0.174-0.34,0.484-1.026,0.741-1.607c-1.563-0.746-4.665-2.509-8.276-6.071c-3.592-3.544-5.01-8.347-5.555-11.13     c-3.768,3.644-13.934,12.405-26.112,14.122C31.547,58.15,26.805,58.239,22.585,57.73z"></path></g><g><path d="M75.146,66.177c-0.394,0-0.756-0.213-0.948-0.558c-0.19-0.343-0.181-0.764,0.025-1.098     c0.298-0.479,1.121-1.825,1.366-2.296c0.163-0.314,0.484-1.021,0.764-1.653c-1.562-0.742-4.65-2.497-8.275-6.074     c-3.592-3.543-5.01-8.347-5.555-11.13c-3.768,3.644-13.935,12.405-26.112,14.122c-2.797,0.394-5.555,0.594-8.196,0.594     c-8.807,0-15.133-2.263-16.614-4.393c-0.284-0.41-0.253-0.962,0.076-1.336c1.871-2.126,2.645-3.006,4.03-7.299     c0.333-1.03,0.646-2.284,1.011-3.737c1.958-7.814,5.234-20.891,19.305-25.341c3.87-1.223,7.519-1.844,10.847-1.844     c6.022,0,9.77,1.97,11.962,3.824c2.04-1.015,4.327-1.529,6.807-1.529c5.757,0,11.353,2.834,14.116,5.468     c3.789,3.614,7.777,8.655,7.112,22.819C86.218,58.535,76.161,66.177,75.146,66.177z M63.281,39.968     c0.117,0,0.234,0.019,0.351,0.059c0.411,0.141,0.699,0.515,0.73,0.948c0.005,0.074,0.584,7.39,5.238,11.979     c4.744,4.68,8.499,6.012,8.536,6.024c0.285,0.098,0.518,0.313,0.64,0.587c0.07,0.161,0.102,0.336,0.091,0.508     c2.591-3.205,5.5-8.34,5.833-15.457c0.623-13.253-2.841-17.714-6.443-21.148c-2.459-2.345-7.458-4.869-12.618-4.869     c-2.385,0-4.548,0.543-6.43,1.616c-0.416,0.236-0.938,0.173-1.286-0.158c-1.796-1.712-5.171-3.753-11.053-3.753     c-3.106,0-6.536,0.586-10.192,1.743c-12.916,4.084-15.889,15.949-17.856,23.8c-0.374,1.491-0.696,2.777-1.051,3.876     c-1.296,4.018-2.156,5.378-3.787,7.285c1.756,1.236,6.671,2.907,14.23,2.907c2.541,0,5.197-0.192,7.894-0.572     c14.607-2.06,26.25-14.886,26.365-15.015C62.683,40.094,62.978,39.968,63.281,39.968z"></path></g></g><g display="inline"><g><circle cx="62.196" cy="61.908" r="1.152"></circle></g><g><circle cx="37.728" cy="61.908" r="1.152"></circle></g></g><g display="inline"><path fill="#000000" d="M49.937,70.325c-0.191,0-0.375-0.009-0.551-0.021c-2.387-0.185-4.339-1.524-5.143-2.693    c-0.161-0.233-0.101-0.554,0.133-0.715c0.234-0.16,0.554-0.101,0.714,0.133c0.669,0.973,2.324,2.094,4.374,2.25    c1.395,0.104,3.471-0.214,5.488-2.353c0.195-0.208,0.521-0.217,0.727-0.022c0.206,0.194,0.216,0.52,0.021,0.727    C53.654,69.801,51.52,70.325,49.937,70.325z"></path></g><g display="inline"><path d="M77.113,68.883c-0.704,1.609-1.902,2.167-2.989,1.692c-1.087-0.476-1.654-1.803-0.95-3.414    c0.704-1.609,2.012-2.177,3.1-1.701C77.361,65.934,77.816,67.272,77.113,68.883z"></path></g><g display="inline"><path d="M83.626,84.753c-0.086,0-0.171-0.021-0.248-0.061c-0.31-0.159-7.586-3.942-9.012-7.894    c-0.89-2.467-0.793-5.122,0.272-7.48c1.067-2.361,2.979-4.141,5.383-5.008c0.5-0.18,1.066-0.271,1.684-0.271    c5.094,0,12.749,6.204,13.072,6.468c0.127,0.105,0.2,0.261,0.199,0.425c-0.001,0.165-0.077,0.32-0.206,0.422    c-0.09,0.069-1.98,1.54-4.499,1.914c1.023,1.723,1.682,4.688,0.679,5.941c-0.776,0.969-2.516,1.113-3.482,1.113    c-1.022,0-2.059-0.149-2.907-0.403c0.397,2.064-0.383,4.354-0.423,4.47c-0.052,0.147-0.165,0.267-0.311,0.325    C83.762,84.74,83.693,84.753,83.626,84.753z M81.705,65.124c-0.491,0-0.934,0.069-1.315,0.207    c-2.126,0.768-3.817,2.342-4.764,4.435c-0.947,2.098-1.033,4.465-0.239,6.665c1.063,2.949,6.163,6.007,7.904,6.98    c0.241-0.972,0.574-2.874-0.096-4.199c-0.108-0.216-0.063-0.477,0.114-0.643c0.176-0.163,0.44-0.191,0.647-0.068    c0.728,0.435,2.171,0.737,3.511,0.737c1.276,0,2.286-0.271,2.636-0.707c0.746-0.933-0.155-4.253-1.229-5.338    c-0.152-0.155-0.198-0.385-0.116-0.586c0.081-0.2,0.274-0.334,0.491-0.338c1.824-0.036,3.438-0.863,4.266-1.374    C91.646,69.464,85.655,65.124,81.705,65.124z"></path></g><g display="inline"><path d="M22.983,68.883c0.704,1.609,1.902,2.167,2.99,1.692c1.086-0.476,1.654-1.803,0.95-3.414    c-0.705-1.609-2.013-2.177-3.1-1.701C22.735,65.934,22.28,67.272,22.983,68.883z"></path></g><g display="inline"><path d="M16.471,84.753c-0.068,0-0.137-0.013-0.201-0.039c-0.146-0.059-0.26-0.178-0.311-0.325    c-0.04-0.116-0.821-2.405-0.423-4.47c-0.849,0.254-1.885,0.403-2.908,0.403c-0.967,0-2.705-0.144-3.481-1.113    c-1.003-1.254-0.346-4.219,0.679-5.941c-2.519-0.374-4.41-1.845-4.499-1.914c-0.129-0.102-0.205-0.257-0.207-0.422    c-0.001-0.164,0.072-0.319,0.199-0.425c0.323-0.264,7.979-6.468,13.072-6.468c0.617,0,1.183,0.092,1.683,0.271    c2.405,0.867,4.316,2.646,5.384,5.008c1.065,2.358,1.161,5.014,0.271,7.48c-1.425,3.951-8.702,7.734-9.01,7.894    C16.641,84.732,16.556,84.753,16.471,84.753z M16.417,78.425c0.134,0,0.267,0.05,0.37,0.145c0.176,0.166,0.223,0.427,0.115,0.643    c-0.672,1.33-0.338,3.229-0.096,4.2c1.741-0.974,6.841-4.032,7.905-6.981c0.793-2.2,0.708-4.567-0.24-6.665    c-0.946-2.093-2.638-3.667-4.763-4.435c-0.382-0.138-0.824-0.207-1.315-0.207c-3.954,0-9.942,4.34-11.81,5.771    c0.827,0.511,2.443,1.338,4.266,1.374c0.216,0.004,0.41,0.138,0.492,0.338c0.082,0.201,0.036,0.431-0.117,0.586    c-1.074,1.085-1.976,4.405-1.229,5.338c0.349,0.436,1.358,0.707,2.634,0.707c1.34,0,2.784-0.303,3.511-0.737    C16.225,78.45,16.321,78.425,16.417,78.425z"></path></g></g><g><g><path fill="#000000" d="M50.043,46.675c-9.244,0-16.763-7.836-16.763-17.467c0-9.632,7.52-17.469,16.763-17.469    s16.762,7.836,16.762,17.469C66.806,38.839,59.287,46.675,50.043,46.675z M50.043,12.821c-8.646,0-15.682,7.351-15.682,16.387    c0,9.035,7.035,16.385,15.682,16.385c8.647,0,15.68-7.35,15.68-16.385C65.724,20.172,58.69,12.821,50.043,12.821z"></path></g><g><g><g><g><circle fill="#000000" cx="57.357" cy="35.182" r="0.955"></circle></g></g></g><g><g><g><circle fill="#000000" cx="42.729" cy="35.182" r="0.955"></circle></g></g></g></g><g><g><g><path d="M50.017,39.979c-0.086,0-0.169-0.006-0.249-0.012c-1.078-0.102-1.958-0.848-2.321-1.499      c-0.072-0.128-0.045-0.306,0.06-0.396c0.105-0.088,0.25-0.057,0.322,0.074c0.303,0.54,1.049,1.165,1.975,1.252      c0.629,0.057,1.565-0.12,2.476-1.31c0.088-0.115,0.234-0.121,0.328-0.012c0.093,0.108,0.098,0.289,0.011,0.404      C51.693,39.688,50.731,39.979,50.017,39.979z"></path></g></g></g><g><path fill="#000000" d="M60.159,24.088c0,0-4.813,6.818-12.837,7.229c-8.023,0.412-14.338-3.351-14.338-3.351    s-2.355-10.52,4.657-16.985c7.013-6.466,13.168-6.038,16.635-5.647c3.684,0.416,8.082,3.295,9.092,6.945    c0,0,4.399-0.887,5.171,4.696c0.772,5.583-1.961,14.81-1.545,15.575c-2.021-0.588-4.635-4.048-5.109-4.754    C61.409,27.092,60.159,24.088,60.159,24.088z"></path></g></g><g><path fill="#000000" d="M65.912,53.427l-7.216-9.37c-0.229-0.297-0.654-0.352-0.951-0.124c-0.298,0.229-0.354,0.654-0.122,0.952   l6.755,8.771l-4.13,2.523l-0.395-2.828c-0.052-0.369-0.394-0.633-0.767-0.575c-0.372,0.051-0.63,0.395-0.578,0.765l2.038,14.568   H50.18h-0.145H39.668l2.037-14.568c0.052-0.37-0.206-0.714-0.577-0.765c-0.375-0.058-0.714,0.206-0.766,0.575l-0.395,2.828   l-4.129-2.523l6.755-8.771c0.229-0.297,0.174-0.723-0.123-0.952c-0.296-0.228-0.722-0.174-0.951,0.124l-7.217,9.37   c-0.118,0.153-0.166,0.348-0.13,0.536c0.035,0.19,0.148,0.355,0.313,0.457l5.277,3.224l-1.546,11.051   c-0.028,0.194,0.031,0.392,0.16,0.538c0.129,0.149,0.316,0.235,0.512,0.235h11.147h0.145h11.146c0.196,0,0.383-0.086,0.512-0.235   c0.129-0.146,0.188-0.344,0.161-0.538l-1.546-11.051l5.277-3.224c0.164-0.102,0.278-0.267,0.313-0.457   C66.078,53.774,66.031,53.58,65.912,53.427z"></path><path fill="#000000" d="M61.265,69.221c-0.061-0.371-0.416-0.616-0.779-0.56c-0.369,0.06-0.621,0.408-0.56,0.778   c0.009,0.058,0.922,5.714,0.744,11.74c-1.604,0.511-3.34,0.739-4.31,0.835c0.031-1.312-0.25-3.65-2.192-4.609   c-1.32-0.651-2.427-0.701-4.517-0.749c-1.652-0.038-3.223,0.492-3.368,0.551c-2.002,0.828-2.224,3.298-2.193,4.609   c-0.969-0.096-2.705-0.323-4.309-0.835c-0.177-6.026,0.735-11.683,0.745-11.739c0.062-0.371-0.19-0.719-0.56-0.78   c-0.363-0.055-0.719,0.189-0.779,0.561c-0.011,0.061-0.992,6.14-0.746,12.478c0.011,0.276,0.188,0.519,0.449,0.612   c2.671,0.957,5.771,1.115,5.901,1.12c0.012,0.001,0.023,0.001,0.032,0.001c0.192,0,0.374-0.08,0.503-0.222   c0.136-0.149,0.198-0.352,0.17-0.551c-0.004-0.033-0.41-3.289,1.307-4c0.632-0.26,1.817-0.503,2.749-0.536   c1.568-0.022,2.66,0.143,4.098,0.734c1.719,0.71,1.313,3.966,1.308,4c-0.027,0.199,0.034,0.402,0.17,0.551   c0.13,0.143,0.312,0.222,0.503,0.222c0.009,0,0.021,0,0.033-0.001c0.129-0.006,3.229-0.163,5.899-1.122   c0.261-0.092,0.438-0.334,0.448-0.61C62.257,75.359,61.275,69.281,61.265,69.221z"></path><path fill="#000000" d="M61.986,91.621l-0.207-0.163c-0.815-0.654-1.727-1.341-2.486-1.525c0.761-3.45,0.781-7.747,0.781-7.747   s-0.834,0.37-2.212,0.419c0.381,1.2,0.466,5.785,0.487,7.451c-0.066,0.044-0.142,0.087-0.185,0.132   c-0.426,0.442-0.797,1.254-0.664,2.077c0.08,0.497,0.38,1.2,1.354,1.711c1.128,0.591,3.262,1.049,4.347,1.049   c0.253,0,1.023,0,1.162-0.624C64.534,93.636,63.638,92.899,61.986,91.621z M59.405,92.931c-0.437-0.229-0.685-0.517-0.739-0.854   c-0.066-0.419,0.162-0.877,0.259-1.015c0.315,0,1.027,0.442,2.116,1.316l0.275,0.217c0.444,0.344,1.09,0.842,1.505,1.229   C61.817,93.739,60.228,93.362,59.405,92.931z"></path><path fill="#000000" d="M69.041,66.35c-1.38-7.731-4.653-11.758-4.793-11.927c-0.208-0.251-0.579-0.286-0.831-0.078   c-0.25,0.208-1.154,0.923-0.945,1.174c0.032,0.038,3.974,3.537,5.357,10.79c-1.306,0.264-2.223,1.587-2.502,3.756   c-0.026,0.207,0.039,0.414,0.188,0.584c0.301,0.341,0.938,0.503,1.464,0.366c0.217,1.373,0.847,2.52,1.859,2.52   c1.273,0,1.94-1.819,1.94-3.613C70.779,68.085,70.067,66.64,69.041,66.35z M68.839,72.354c-0.196,0-0.764-0.837-0.764-2.433   c0-0.269-0.18-0.504-0.438-0.57c-0.051-0.016-0.102-0.021-0.151-0.021c-0.208,0-0.407,0.111-0.513,0.3   c-0.104,0.184-0.249,0.275-0.425,0.255c0.177-1.037,0.716-2.738,2.16-2.413c0.364,0.083,0.892,1.003,0.892,2.45   C69.6,71.517,69.034,72.354,68.839,72.354z"></path><path fill="#000000" d="M35.864,94.4c0.138,0.624,0.91,0.624,1.162,0.624c1.086,0,3.22-0.458,4.347-1.049   c0.975-0.511,1.273-1.214,1.355-1.711c0.134-0.823-0.238-1.635-0.665-2.077c-0.042-0.045-0.117-0.088-0.183-0.132   c0.019-1.666,0.106-6.251,0.485-7.451c-1.376-0.049-2.212-0.419-2.212-0.419s0.022,4.297,0.783,7.747   c-0.759,0.185-1.671,0.871-2.487,1.525l-0.206,0.163C36.591,92.899,35.694,93.636,35.864,94.4z M37.408,93.825   c0.415-0.388,1.06-0.886,1.504-1.229l0.275-0.217c1.09-0.874,1.802-1.316,2.116-1.316c0.097,0.138,0.327,0.596,0.259,1.015   c-0.054,0.337-0.302,0.624-0.738,0.854C40.001,93.362,38.411,93.739,37.408,93.825z"></path><path fill="#000000" d="M29.448,69.921c0,1.794,0.668,3.613,1.942,3.613c1.014,0,1.643-1.146,1.859-2.52   c0.526,0.137,1.163-0.025,1.464-0.366c0.148-0.17,0.216-0.377,0.189-0.584c-0.28-2.169-1.197-3.492-2.502-3.756   c1.384-7.253,5.326-10.752,5.356-10.79c0.208-0.251-0.695-0.966-0.945-1.174c-0.251-0.208-0.624-0.173-0.831,0.078   c-0.14,0.169-3.414,4.195-4.793,11.927C30.161,66.64,29.448,68.085,29.448,69.921z M30.628,69.921c0-1.447,0.528-2.367,0.892-2.45   c1.444-0.325,1.982,1.376,2.161,2.413c-0.178,0.021-0.321-0.071-0.425-0.255c-0.106-0.188-0.304-0.3-0.513-0.3   c-0.049,0-0.1,0.006-0.15,0.021c-0.258,0.066-0.439,0.302-0.439,0.57c0,1.596-0.567,2.433-0.764,2.433   C31.194,72.354,30.628,71.517,30.628,69.921z"></path></g></svg>