<?xml version="1.0" encoding="utf-8"?>
<!-- Generator: Adobe Illustrator 25.0.1, SVG Export Plug-In . SVG Version: 6.00 Build 0)  -->
<svg version="1.1" id="Layer_1" xmlns="http://www.w3.org/2000/svg" xmlns:xlink="http://www.w3.org/1999/xlink" x="0px" y="0px"
	 viewBox="0 0 288.4 244.2" style="enable-background:new 0 0 288.4 244.2;" xml:space="preserve">
<style type="text/css">
	.st0{fill:#000001;}
</style>
<g id="a">
</g>
<g id="b">
	<g id="c">
		<path class="st0" d="M273.3,42c-7.7-10.2-17.4-18-28.2-23.9c-10.8-7-23.1-12.3-36-15.3c-32.6-8.5-66.2,3.4-96.6,14.9
			c-37.7,13-71.8,37.4-92.4,72c-1.9,2.2-4.4,4.9-4.4,7.4c-17.4,30.6-21.6,68.6-6.4,101.2c11.7,24.9,36.6,33,62.4,33.3
			c8.8,0.7,17.8,0.2,26.5-1.2c8.7-0.2,20.7-5.5,30.8-7.3c5.1-0.1,10,1.4,15.7,4.7c6.2,1.9,12.4,3.8,18.6,5.7
			c8.9,3.5,18,6.3,27.6,7.3c4.9,1.1,9.8,2,14.7,2.8c7.4,0.9,21.5,2.2,22.3-8.1c-4.6-14.1-21.1-20.2-27.5-33.7
			c8.7-12.7,22-21.5,33.2-32c19.5-18.5,41.2-37.4,51.5-62.8C293,85.2,285.7,60.6,273.3,42L273.3,42z M152,220.6c-4.7-2-9.3-4-14-5.9
			c-0.4,0.1-0.9,0.1-1.3,0.2c-5.4-1.4-11.1-1.4-16.7,0.7c-12,3.5-24.2,6.4-36.8,6.4c-10.2,0.7-21.2,0.6-31.5-1.6
			c-22.9-7.8-37.8-29.9-42-53.6c-2-17.4,0.8-35.5,6.9-51.8c10-23.6,28.8-42.4,48.4-58.4c27-20.3,59.3-33.6,92.5-41.3
			c11.9-1.7,23.9-2.2,36-1.3c1.1,0.1,2.2,0.2,3.3,0.3c4.8,0.4,9.5,1.1,14.3,1.9c4.9,0.8,9.7,1.9,14.5,3.3c5.4,1.8,10.7,4.2,15.9,6.9
			c0.5,0.3,1,0.6,1.5,0.9c2.4,0.8,5.6,4,8.5,5.6c11.9,9.3,21,22.8,25.1,37.2c3.6,14.2,1.9,29.8-7.7,45.8
			c-16.8,28.3-43.7,48.5-68.4,69.5c-26.4,19.1-2.7,31.6,13.7,45.2c0.9,1,1.8,1.9,2.6,2.9c-0.4,0-0.8,0.1-1.2,0.1
			c-3.6,0.5-7.2,0.8-10.7,0.8C186.9,231.7,169.4,225.8,152,220.6L152,220.6z"/>
	</g>
</g>
</svg>
