<svg fill="#a00000" xmlns="http://www.w3.org/2000/svg" xmlns:xlink="http://www.w3.org/1999/xlink" xml:space="preserve" version="1.1" style="shape-rendering:geometricPrecision;text-rendering:geometricPrecision;image-rendering:optimizeQuality;" viewBox="0 0 508 508" x="0px" y="0px" fill-rule="evenodd" clip-rule="evenodd"><defs><style type="text/css">
   
    .fil0 {fill:#a00000}
   
  </style></defs><g><path class="fil0" d="M96 300c-1,1 -3,2 -4,3 2,2 4,4 7,7 4,2 10,6 19,11 8,6 20,12 31,18 11,6 21,11 31,15 9,4 19,8 28,12l27 10 24 8c8,3 16,5 25,7 8,2 16,4 25,5 8,2 18,3 26,4 9,0 16,0 22,-1 7,-1 13,-3 20,-6l20 -7c6,-3 10,-5 15,-8l18 -10 15 -8c4,-2 9,-5 13,-7 4,-1 8,-2 11,-2 3,0 6,1 8,2 2,0 3,1 5,3 2,1 4,4 6,6 2,3 4,6 5,9 1,3 1,6 2,8 1,-3 2,-7 2,-12 0,-4 -2,-10 -5,-14 -3,-4 -6,-8 -11,-11 -4,-2 -8,-4 -13,-5l-10 -4c-3,-1 -6,-1 -9,-1 -4,0 -9,0 -17,1 -8,2 -18,4 -29,7 -10,2 -20,4 -31,5 -10,2 -20,2 -29,3 -9,0 -17,-1 -27,-3 -11,-1 -23,-4 -34,-7 -11,-3 -20,-7 -31,-13 -11,-6 -24,-14 -37,-24 -13,-10 -26,-21 -35,-30l-21 -20c-5,-4 -8,-7 -11,-9 -2,-2 -4,-3 -6,-4 -1,1 -1,3 -3,4 -2,2 -4,3 -8,5l-9 6 -7 5c-2,1 -4,2 -6,4 -2,1 -3,3 -4,5 -1,2 -1,4 -1,6l-2 8 -2 7 -1 6c-1,2 -2,4 -2,6z"></path><path class="fil0" d="M84 296c1,-1 2,-2 3,-3 1,-1 2,-3 2,-5l2 -6 2 -8 1 -7c1,-3 1,-5 2,-7 1,-2 2,-3 4,-5 1,-1 3,-2 5,-4l7 -5 10 -5c3,-2 6,-4 8,-5 1,-2 2,-3 2,-4 -2,-2 -4,-4 -8,-5 -3,-2 -7,-2 -15,-3 -8,0 -20,0 -29,-1 -10,-1 -16,-2 -21,-4 -5,-3 -9,-6 -11,-12 -3,-5 -4,-13 -5,-21 0,-9 1,-18 2,-26 2,-8 3,-16 6,-22 3,-5 6,-10 10,-13 4,-3 8,-6 13,-7 4,-2 8,-2 14,-1 6,1 14,3 18,6 5,3 8,7 9,10 1,4 1,8 0,11 -1,3 -3,5 -6,7 -4,1 -8,2 -12,2 -4,-1 -8,-2 -9,-5 -2,-2 -2,-6 -1,-9 -1,3 -2,7 -1,11 2,3 5,5 9,6 4,1 9,0 13,-1 4,-2 7,-4 9,-7 2,-3 3,-7 2,-12 -1,-5 -5,-10 -10,-14 -4,-4 -10,-7 -17,-8 -7,-2 -14,-2 -20,-1 -6,2 -9,4 -13,7 -3,3 -6,6 -10,10 -3,5 -7,11 -9,17 -3,7 -4,15 -5,20 -1,5 -1,8 -1,13 -1,4 -1,10 -1,16 0,5 1,11 4,17 2,5 6,10 10,15 4,5 9,10 12,14 3,4 5,8 7,14l7 20c2,7 4,12 6,15 2,3 3,4 5,5z"></path></g></svg>
