<svg fill="#EC5398" xmlns="http://www.w3.org/2000/svg" xmlns:xlink="http://www.w3.org/1999/xlink" version="1.1" x="0px" y="0px" viewBox="0 0 100 100" enable-background="new 0 0 100 100" xml:space="preserve"><g><path fill="#EC5398" d="M49.5,53.219c-5.406,6.125-8,6.768-8,6.768s-1.125,2.056-2.875,0.697c-0.533-0.414-0.13-2.392,0.594-3.684   c1.094-2.75,4.562-3.469,4.562-3.469s0.719,1,2.531,0.719s1.969-1.188,1.969-1.188S49.062,53.5,49.5,53.219z"></path><path fill="#EC5398" d="M49.781,53.062c-0.719,0-1.438-0.375-1.438-0.375s-0.375,0-0.5,0.188C46.531,52.812,46.5,50,46.5,50   s1.312,0.031,1.375-0.469S47.406,48.5,47.406,48.5s2.781-0.625,3.75,0.906c-1.548-0.374-2.688,0.969-2.688,0.969   S47.938,52.594,49.781,53.062z"></path><path fill="#EC5398" d="M51.391,53.062c-0.495,0.208-1.234,0-1.234,0s-1.672-0.547-1.391-2.344   c0.312-0.984,2.625-1.109,2.625-1.109s2.609-0.328,3.391,0S52.875,53.229,51.391,53.062z"></path><path fill="#EC5398" d="M53.188,52.594c0.719-0.344,1.25-1.125,1.25-1.125s7.031,3.75,5.281,3.344s-3.156-0.219-3.875-0.25   S53.75,54.188,53.188,52.594z"></path><path fill="#EC5398" d="M51.438,53.375c0,0,1.121,0.053,1.5-0.594c0.781,2.406,2.188,1.875,2.438,2.062   c2.031-0.031,4.875,0.281,4.875,0.281s5.625,5.812,2.625,8.156s-8.125,0.312-9.125-0.375   C51.594,61.469,51.438,53.375,51.438,53.375z"></path><path fill="#EC5398" d="M51.156,53.469c0,0-1.155,0.106-1.375-0.156c-1.812,2.656-4.719,4.781-4.719,4.781   s-1.375,5.719-0.703,8.531c1.422,6.406,5.984,7.844,6.797,7.781c2.031-0.062,4.562-3.719,4.75-5.156s-0.25-5.156-0.25-5.156   s-0.728,0.005-2.25-1.031C50.938,61.156,51.156,53.469,51.156,53.469z"></path><path fill="#EC5398" d="M44.625,58.58l-3.312,2.295c0,0-0.875,1.375-2.938,0c-0.469-0.656-0.438-1.147-0.438-1.147   s-2.406,1.335-3.5,2.304s-1.75,3-2.969,6.5s1.719,9.438,3.344,10.406s8.767-6.581,9.062-7.625s0.625-1.125,0.299-3.812   C42.906,63.844,44.625,58.58,44.625,58.58z"></path><path fill="#EC5398" d="M43.375,53.312c0,0-0.734-0.934-2.083-0.854c-1.354,0.511-5.542,0.323-5.542,0.323   s-6.354,3.826-7.958,4.663c-3.104,2.306-2.583,6.936-2.583,6.936s8.49-7.224,9.625-7.255c1.854-1.469,5.95-2.23,6.214-2.709   S43.375,53.312,43.375,53.312z"></path><path fill="#EC5398" d="M40.125,55.156c0,0-2.188,2.406-2.222,4.219c-1.965,0.625-4.278,2.969-4.278,2.969s-5.5,2.156-6.531,2.375   s-1.781,0-1.781,0s8.051-6.17,9.594-7.274C36.25,56.594,40.125,55.156,40.125,55.156z"></path><path fill="#EC5398" d="M47.719,53.312c0,0-2.25,1.5-3.719,0s-2.952-1.219-2.952-1.219s-2.36-1.875-0.61-3.25   s2.312,2.062,3.438,2.844s1.094-2,1.094-2s-0.719,0.375-0.891-0.656s0.828-1.812,0.828-1.812s-4.312-2.406-3.688-3.688   s6.375-0.438,6.812,0.938s-0.406,1.188-0.25,1.969S48.734,48,48.734,48s-1.703-0.034-1.765,0.374s0.375,1.09,0.375,1.09   s-0.844-0.026-1.188,0.255C46.188,53.094,47.719,53.312,47.719,53.312z"></path><path fill="#EC5398" d="M51.438,49.219c-0.25-0.875-2.344-1.312-2.344-1.312s-0.812-1-1-1.688c0.781-0.656,0.25-2.188,0.25-2.188   s6.312-1.125,7.438,1.781c0.344,1.125-1.406,3.406-1.406,3.406S52.156,48.875,51.438,49.219z"></path><path fill="#EC5398" d="M40.656,52.25c0,0-2.136-1.594-0.865-3.156c-2.604-1.469-3.635-1.125-3.635-1.125S36.099,50.007,34,50.109   c-5.812-0.922-7.406,0.359-7.406,0.359s-1.156,0.5-1.281,1s9.656,1.312,10.438,0.984C36.625,52.625,40.656,52.25,40.656,52.25z"></path><path fill="#EC5398" d="M35.938,47.719c0,0-0.531-1.058-4.344-1.201s-5.562,3.888-5.562,3.888s2.188-0.931,2.875-0.943   s4.094-0.12,5.188,0.349C35.906,49.531,35.938,47.719,35.938,47.719z"></path><path fill="#EC5398" d="M25.719,50c0,0,0.188,0.219-0.156,0.562S25,51.125,24.625,51.5c0.281,1.312,10.094,1.375,10.094,1.375   s-7.781,4.773-7.438,4.23c-2.344,3.176-4.656,3.52-5.906,3.676C14.531,61.156,13,58.969,13,58.969s0.253-6.582,2.75-7.594   c2.497-1.011,3.312-1.625,4.75-1.375S25.719,50,25.719,50z"></path><path fill="#EC5398" d="M25.75,59.281c-3.5,3.719-10.406,1.375-10.406,1.375s-1.281,9.188-0.281,9.938s7.575,0.195,9.438-0.344   s6.969-1.719,7.281-3.844c0.031-0.781,1.469-3.5,1.469-3.5s-6.781,3.406-8.344,2.031C24.728,63.812,24.062,61.844,25.75,59.281z"></path><path fill="#EC5398" d="M13,56c0,0-0.656,2.844-0.438,3.281s2.375,1.312,2.375,1.312s-0.295,2.125-0.257,2.656   s-3.931-2.5-4.087-3.469S13,56,13,56z"></path><path fill="#EC5398" d="M31.18,68.031c-4.868,3.781-12.649,3.312-12.649,3.312s-0.969,5.312,0,6.469   c4.438,2.188,12.344-1.469,12.344-1.469s0.281-1.156,0.305-2.625C29.844,70.906,31.18,68.031,31.18,68.031z"></path><path fill="#EC5398" d="M31.469,74.281L31.18,77c0,0-0.274,7.406,2.07,8.406s5.625-7.938,5.625-7.938s-2.195,1.969-3.848,2   S31.469,74.281,31.469,74.281z"></path><path fill="#EC5398" d="M44.625,69.281c0,0,0.515,2.781-3.188,5.594c0,0,4.844,11.969,8.562,11.281   c0.813-0.094,1.907-8.812,1-11.156C47.375,74.656,44.625,69.281,44.625,69.281z"></path><path fill="#EC5398" d="M41.125,75.281l-1.875,1.75c0,0-0.409,2.993-1.688,4.469c0.594,1.844,3.094,4.312,3.719,5.281   s1.781-0.219,1.781-0.219s0.38,1.344,1.112,1.406s3.482-1.438,2.857-2.484C43.781,82.531,41.125,75.281,41.125,75.281z"></path><path fill="#EC5398" d="M44.263,47.25c-3.825-2.062-3.606-3.812-3.606-3.812s-1.25-1.188-1.844-0.188s1.125,5.469,1.125,5.469   s0.562-0.656,1.281-0.656s2.479,3.03,2.956,3.247s0.451-1.078,0.451-1.078S42.932,49.406,44.263,47.25z"></path><path fill="#EC5398" d="M40.969,43.156c0,0-1.531-0.562-1.594-1.562s1.281-1.688,1.281-1.688s1.656,0.594,2.031,1.438   S40.969,43.156,40.969,43.156z"></path><path fill="#EC5398" d="M47.875,43.688c0,0-5.625-3.781-5.688-5.344S50,40.156,50,40.156s1.125,0.5,1.156,1.531   S47.875,43.688,47.875,43.688z"></path><path fill="#EC5398" d="M54.921,44c-2.827-1.094-5.577-0.312-5.577-0.312s2.156-1.094,2.219-2s-1.219-1.781-1.219-1.781   s-1.25-4.156,0.281-3.812S54.531,41.406,54.921,44z"></path><path fill="#EC5398" d="M49.188,39.219c0,0-4.131-3.375-4.925-3.906s-4.7-1.5-5.325-0.469s3.688,5.844,4.156,6.438   S42.875,42.5,42.875,42.5l2.906,0.35c0,0-4.625-3.818-3.906-5.1S49.188,39.219,49.188,39.219z"></path><path fill="#EC5398" d="M39.792,39.906c0,0-1.452,1.375-0.418,2.594c-1.154-0.156-1.029,1.5-1.029,1.5s-3.375-4.656-2.062-5.531   S39.792,39.906,39.792,39.906z"></path><path fill="#EC5398" d="M40.5,33.969c0,0-4.406-3.844-5.781-2.812s1.469,6.938,1.469,6.938s1.469-1,3.969,1.625   c0,0-0.193-0.062,0.344-0.188s0.812,0.188,0.812,0.188s-3.344-3.625-2.625-5.331C39.531,34,40.5,33.969,40.5,33.969z"></path><path fill="#EC5398" d="M49.75,39.344c0,0-3.969-3.969-4.812-4.25s-1.094-7.25-0.312-8.281S50,33.219,50,33.219   s1.157,1.812,0,2.312S49.75,39.344,49.75,39.344z"></path><path fill="#EC5398" d="M55.062,28.75C53.5,27.969,50,32.188,50,32.188s0.875,1.875,0.907,2.562s0.031,0.688-0.393,0.875   c2.893,0.406,4.549,7.531,4.549,7.531S56.625,29.531,55.062,28.75z"></path><path fill="#EC5398" d="M38.38,44.469c0,0,0.245,2,0.993,3.992c-1.279-0.992-3.123-0.992-3.123-0.992s-0.781-1.375-5.781-1.344   c-1.781,0.375-3.125,1.809-3.125,1.809S16.281,43.625,15.594,41c0.562-0.781,9.031-4.531,14.656-3.069   C33.406,39.312,38.38,44.469,38.38,44.469z"></path><path fill="#EC5398" d="M23,46.514c0,0-8.5-3.677-7.75-5.705s9.219-3.403,9.219-3.403s-3.656-2.625-5.625-2.875   s-8.625,2.764-9.219,5.991S23,46.514,23,46.514z"></path><path fill="#EC5398" d="M26.031,49.719l1.031-1.5c0,0-1.094-0.375-3.531-1.531c-2.688,0.375-9.688-2.406-9.688-2.406   s-5.469,3.576-4.438,5.663s5.441,1.913,5.156,1.931s3.187-2.236,4.656-2.188C20.875,49.875,26.031,49.719,26.031,49.719z"></path><path fill="#EC5398" d="M56.094,64.38c0,0,1.281,0.87,4.812,0.214c0.562,3.75-0.344,10.656-1.719,10.688s-4.062-2.188-3.906-3.781   C57,70.688,56.094,64.38,56.094,64.38z"></path><path fill="#EC5398" d="M51.562,74.906c0,0,3.186-1.813,3.406-2.875c1.75,3.75,3.812,3.531,4.344,3.594s1.375-2.094,1.375-2.094   s1.906,10.438,0,11.188C54.719,84.938,51.562,74.906,51.562,74.906z"></path><path fill="#EC5398" d="M51.562,75.844c0,0,0.5,4.031-0.594,9.094c5.312,2.875,7.719,2.719,7.719,2.719s2.219-1.344,1.875-2.469   C54.312,85.031,51.562,75.844,51.562,75.844z"></path><path fill="#EC5398" d="M61.25,70.719L60.812,73c0,0,1.375,5.125,1.094,8.5c3.188,3.062,9.5,3.188,10,2.969   s0.562-7.062,0.562-7.062s-2.812,1.186-4.625,0.327S61.25,70.719,61.25,70.719z"></path><path fill="#EC5398" d="M61.344,64.562v5.688c0,0,5.219,6.914,7.594,7.379C71.309,77.579,72.469,77,72.469,77   s3.531-4.188,1.688-5.406c-2.188,0.656-3.969-0.498-3.969-0.498L61.344,64.562z"></path><path fill="#EC5398" d="M63,57.906c3.031,5.594-1.25,6.474-1.25,6.474s8.844,6.749,9.688,6.716   c1.169,0.465,1.169,0.465,4.531-0.377c3.094-1.719-4.438-14.562-4.438-14.562s-2.656,1.688-3.906,1.938S65.594,58.625,63,57.906z"></path><path fill="#EC5398" d="M55.826,45.188c0,0,1.361,0.75-0.905,4.031c0.684,0.636-0.265,2.091-0.265,2.091s4.99,2.377,5.74,3.378   s0.75,0.479,2.166,2.709c4.626,1.958,9.146-1.646,9.146-1.646s-0.5-6.479-3.354-8.916S55.826,45.188,55.826,45.188z"></path><path fill="#EC5398" d="M56,37.931c0,0-0.355,5.803-0.781,6.257c0.219,0.25,0.391,0.531,0.391,0.531s8.468-0.374,10.172,0.594   c1.969,0.312,3.5,0.255,4.594-0.248s5.906-7.315,5-8.065s-14.188-2.562-15.656-2.125S56,37.931,56,37.931z"></path><path fill="#EC5398" d="M67.688,45.938c0,0,1.719,0.872,2.406,2.436c3.675,0.564,3.594,0.686,6.5,0s7.719-5.467,7.719-5.467   S81.625,36.281,76,37.219c0.312,1.656-4.5,7.854-5.438,8.287S67.688,45.938,67.688,45.938z"></path><path fill="#EC5398" d="M70.376,48.844c0,0,1.833,4.114,1.833,6.948l-0.25,0.364c0,0,2.126,3.47,2.459,4.303   s5.624,1.084,6.541,1.167s1.353-1.164,2.25-0.959s2.041,0.625,2.5,0s-0.332-3.271-1.791-4.511s-2.667-4.28-5.875-7.783   C75.001,50.084,70.376,48.844,70.376,48.844z"></path><path fill="#EC5398" d="M78.312,48.062c0,0,3.25-1.906,4.125-2.812c0.889,0.638,1.156,2.531,2.281,3.469s2.094,0.062,2.969,0.562   S85.094,57,85.094,57s-0.469-0.875-1.344-1.562C83.281,54.5,78.312,48.062,78.312,48.062z"></path><path fill="#EC5398" d="M85.594,57c0,0,3.406,2,4.25,2.594s-1.281,3.031-2.125,2.844s-3.406,0.875-3.969,0.625   s-1.125-1.875-1.125-1.875l0.445-0.156c0,0,2.617,0.625,3.023-0.156S85.594,57,85.594,57z"></path><path fill="#EC5398" d="M85.839,56.531L87.344,53c0,0,1.844,2.156,1.969,3.156s-2,1.438-2,1.438L85.839,56.531z"></path><path fill="#EC5398" d="M79.594,61.844c1.562,4.438,6.053,7.469,6.245,8.562s-4.214,1.594-8.964,0   c1.375-2.25-2.344-9.25-2.344-9.25S78.63,62.092,79.594,61.844z"></path><path fill="#EC5398" d="M79.969,61.969c0,0,0.906,0.031,1.406,0s0.906-0.5,0.906-0.5s0.438,1.594,1.219,1.812s1.596,1.062,2.345,2   c0.937,3.031-0.184,3.495-1.907,2.219S79.969,61.969,79.969,61.969z"></path><path fill="#EC5398" d="M74.689,71.423c0.717,0.577,0.186,2.39,0.186,2.39s2.219,1.125,4.062,0.75s4.5-1.656,4.139-2.688   c-3.139,0.281-6.361-1.156-6.361-1.156S75.509,71.617,74.689,71.423z"></path><path fill="#EC5398" d="M56.125,36.688c0,0,10.125-11.938,10.688-18.312c0.188-1.25-0.23-4.125-1.459-4.5s-6.355,0.812-8.761,2.75   S50.875,30.25,50.875,30.25s2.625-2.562,4.344-2.188S56.125,36.688,56.125,36.688z"></path><path fill="#EC5398" d="M58.5,34.808c0,0,4.1-5.056,4.683-6.933c13.38-6.5,17.005-1.161,17.005-1.161s2.519,6.091-6.231,9.19   C62.831,33.055,58.5,34.808,58.5,34.808z"></path><path fill="#EC5398" d="M81.188,29.188c6.656,1.25,6.469,4.308,7.062,5.201s-6.969,3.555-8.375,2.74S76,36.688,76,36.688   l-1.344-0.469C74.656,36.219,80.969,33.781,81.188,29.188z"></path><path fill="#EC5398" d="M71.062,24.651l1.312-1.182c0,0,11.812-1.438,12.281,2c-0.281,1.406-3.469,3.185-3.469,3.185   s-0.219-1.591-0.812-2.592C77.625,23.171,71.062,24.651,71.062,24.651z"></path><path fill="#EC5398" d="M63.625,27.094C69.938,17.094,66.438,14,66.438,14s6.844,0.094,7.969,0.531s1.844,2,2.281,2.812   s-2.938,5.438-2.938,5.438s-0.965-0.015-1.344,0.188s-1.469,0.656-2.062,1.875C68.438,24.688,64.156,26.75,63.625,27.094z"></path><path fill="#EC5398" d="M49.188,31.167c0,0-2.896-5.917-4.688-4.958s-0.468,8.599-0.468,8.599s-1.907-0.891-2.979-0.891   c-0.719-1.083-3.168-2.333-3.168-2.333s-1.052-10.792,2.782-12.833C47.125,17.708,49.188,31.167,49.188,31.167z"></path><path fill="#EC5398" d="M50.514,30.708L50,31.583l-0.458-0.438c-1.667-10.688-5.708-12.271-5.708-12.271s7.126-8.167,10.292-6.667   s3.333,3.25,3.333,3.25s-0.532,0.133-1.333,0.917C52.416,20.042,50.514,30.708,50.514,30.708z"></path><path fill="#EC5398" d="M58,15.167c-1.084-2.208-3.667-3.5-3.667-3.5s3.499-2.625,6.083-2.5s5.5,4.375,5.5,4.375   S63.25,12.292,58,15.167z"></path><path fill="#EC5398" d="M43.333,18.692c0,0,4.125-4.9,6.667-5.942c2-1.625,0.646-2,0.646-2s-4.004-1.417-6.492,0.958   S43.333,18.692,43.333,18.692z"></path><path fill="#EC5398" d="M37.291,30.98c0,0-1.375-0.688-2.417-0.438c-1-1.5-3.083-2.625-3.083-2.625s-3.104-16.208,2.552-16.25   s6.323,2.25,8.031,3.5c-0.417,1.042,0.412,3.292,0.412,3.292s-0.746-0.542-2.371-0.208C36.208,20.126,37.291,30.98,37.291,30.98z"></path><path fill="#EC5398" d="M31.124,27.459c-4.125-2.708-8.833-3.333-8.833-3.333s-1.208-3.291,0.5-4.458s7.625,0.667,7.625,0.667   S30.582,24.251,31.124,27.459z"></path><path fill="#EC5398" d="M30.374,19.667c0,0-5.292-1.325-6.125-0.975s0.085-2.983,2.251-3.941s4.499-0.542,4.082,1   S30.374,19.667,30.374,19.667z"></path><path fill="#EC5398" d="M34.343,30.792c0,0-4.256-4.833-12.467-6.292c-2.67-1.167-3.086-0.542-3.878,0.917s0.625,8.375,0.625,8.375   s4.75,1.542,6.458,3.25c1.5-0.625,3.375-0.042,5.333,0.292s5.75,4.458,5.75,4.458s-0.958-2.875-0.417-3.521   C32.081,31,34.343,30.792,34.343,30.792z"></path></g></svg>