<svg fill="#5F327C" xmlns="http://www.w3.org/2000/svg" xmlns:xlink="http://www.w3.org/1999/xlink" version="1.1" x="0px" y="0px" viewBox="0 0 100 100" enable-background="new 0 0 100 100" xml:space="preserve"><path d="M68.16,61.403c-3.615,1.646-5.832,4.694-7.118,7.195c0.312-2.011,0.623-4.285,0.926-6.859c4.195-5.643,6.93-8,8.782-12.048  c-4.498,1.544-7.215,6.695-8.558,10.075c0.763-6.954,1.463-15.911,1.974-27.428c0.422,0.208,0.944,0.163,1.327-0.158l1.582-1.325  c0.52-0.434,0.587-1.207,0.153-1.726c-0.434-0.517-1.206-0.586-1.728-0.151l-1.235,1.034c0.027-0.647,0.053-1.301,0.078-1.963  c0.435,0.261,1.003,0.238,1.414-0.105l1.583-1.326c0.521-0.434,0.588-1.206,0.152-1.727c-0.434-0.518-1.208-0.585-1.724-0.153  l-1.345,1.125c0.018-0.513,0.036-1.03,0.053-1.552c0.405,0.161,0.881,0.106,1.238-0.194l1.585-1.324  c0.519-0.434,0.586-1.207,0.153-1.726c-0.435-0.518-1.206-0.587-1.726-0.154l-1.174,0.983c0.017-0.554,0.033-1.115,0.049-1.679  c0.423,0.213,0.951,0.17,1.339-0.154l1.581-1.325c0.518-0.436,0.587-1.206,0.152-1.726c-0.435-0.518-1.207-0.587-1.725-0.153  l-1.285,1.075c0.018-0.694,0.035-1.394,0.052-2.103c0.447,0.378,1.112,0.395,1.576,0.006l1.581-1.325  c0.52-0.433,0.586-1.207,0.155-1.727c-0.435-0.518-1.209-0.586-1.726-0.152l-1.544,1.292c0.005-0.245,0.011-0.488,0.016-0.736  c0.469-0.18,0.799-0.637,0.786-1.169l-0.049-2.062c-0.013-0.678-0.574-1.211-1.252-1.195c-0.676,0.016-1.211,0.577-1.195,1.252  l0.049,2.063c0.01,0.451,0.264,0.834,0.631,1.039c-0.015,0.745-0.031,1.486-0.048,2.215l-0.887-1.061  c-0.435-0.518-1.208-0.587-1.727-0.153c-0.518,0.436-0.587,1.209-0.154,1.727l1.327,1.582c0.345,0.414,0.903,0.536,1.381,0.351  c-0.015,0.589-0.031,1.169-0.047,1.748l-0.976-1.165c-0.435-0.519-1.208-0.588-1.727-0.154c-0.516,0.435-0.584,1.209-0.152,1.727  l1.323,1.582c0.366,0.437,0.974,0.55,1.465,0.316c-0.019,0.626-0.038,1.253-0.058,1.866l-1.074-1.282  c-0.432-0.518-1.207-0.588-1.724-0.154c-0.519,0.434-0.588,1.206-0.156,1.727l1.325,1.582c0.39,0.465,1.052,0.564,1.557,0.268  c-0.018,0.5-0.036,0.992-0.054,1.484l-0.906-1.082c-0.435-0.52-1.208-0.587-1.727-0.155c-0.519,0.436-0.586,1.208-0.153,1.725  l1.325,1.585c0.343,0.409,0.894,0.533,1.367,0.357c-0.026,0.646-0.053,1.287-0.08,1.917l-0.997-1.192  c-0.435-0.519-1.206-0.588-1.726-0.154c-0.518,0.434-0.587,1.208-0.151,1.727l1.322,1.58c0.364,0.435,0.959,0.549,1.45,0.324  c-0.233,4.988-0.501,9.471-0.793,13.504c-0.819-2.858-2.56-6.957-6.148-9.48c0.646,4.364,2.332,6.248,5.996,11.505  c-0.313,4.044-0.65,7.603-0.998,10.738c-0.575-2.133-1.734-4.889-4.053-7.035c0.603-2.478,1.017-4.547,0.988-6.948  c-2.628,2.56-3.38,6.607-3.48,9.99c-0.452-2.315-0.97-4.824-1.563-7.539c1.059-7.08,1.389-11.648,1.204-16.095  c-2.302,2.375-2.8,6.2-2.661,9.666c-0.834-3.562-1.78-7.42-2.854-11.61c0.535,0.125,1.107-0.121,1.369-0.633l0.937-1.837  c0.309-0.604,0.067-1.342-0.536-1.649c-0.601-0.307-1.34-0.068-1.646,0.535l-0.697,1.365c-0.156-0.6-0.317-1.213-0.478-1.826  c0.488,0.049,0.979-0.197,1.216-0.659l0.937-1.839c0.308-0.603,0.069-1.339-0.534-1.648c-0.602-0.307-1.342-0.068-1.647,0.534  l-0.611,1.197c-0.12-0.448-0.24-0.899-0.362-1.354c0.546,0.143,1.137-0.104,1.402-0.626l0.937-1.839  c0.308-0.602,0.07-1.34-0.534-1.647c-0.603-0.309-1.34-0.07-1.646,0.533l-0.736,1.441c-0.157-0.577-0.317-1.164-0.478-1.752  c0.526,0.108,1.079-0.136,1.335-0.638l0.938-1.838c0.306-0.602,0.068-1.34-0.534-1.649c-0.602-0.308-1.341-0.067-1.649,0.535  l-0.701,1.374c-0.158-0.571-0.316-1.143-0.478-1.724c0.521,0.1,1.068-0.144,1.321-0.642l0.939-1.839  c0.307-0.602,0.067-1.34-0.534-1.647c-0.602-0.308-1.342-0.069-1.648,0.534l-0.699,1.369c-0.229-0.814-0.464-1.642-0.7-2.475  c0.522-0.284,0.778-0.91,0.569-1.488l-0.696-1.941c-0.228-0.637-0.931-0.968-1.568-0.74c-0.637,0.23-0.969,0.932-0.739,1.568  l0.698,1.942c0.121,0.336,0.374,0.584,0.679,0.712c0.102,0.357,0.2,0.706,0.3,1.06l-1.614-0.825  c-0.602-0.308-1.342-0.068-1.649,0.534c-0.307,0.603-0.069,1.343,0.534,1.649l1.838,0.938c0.504,0.257,1.1,0.129,1.462-0.271  c0.182,0.648,0.36,1.288,0.537,1.924l-1.437-0.734c-0.601-0.306-1.339-0.068-1.647,0.535c-0.307,0.603-0.068,1.341,0.534,1.649  l1.839,0.936c0.446,0.229,0.967,0.155,1.331-0.143c0.151,0.548,0.302,1.095,0.449,1.633l-1.383-0.706  c-0.604-0.308-1.342-0.068-1.649,0.533c-0.308,0.603-0.068,1.34,0.533,1.648l1.839,0.937c0.43,0.219,0.924,0.158,1.286-0.111  c0.142,0.524,0.278,1.036,0.416,1.551l-1.613-0.822c-0.601-0.308-1.34-0.07-1.647,0.534c-0.308,0.603-0.069,1.341,0.533,1.648  l1.839,0.938c0.493,0.251,1.072,0.132,1.436-0.246c0.174,0.655,0.346,1.307,0.514,1.947l-1.469-0.751  c-0.605-0.308-1.342-0.067-1.648,0.534c-0.307,0.603-0.069,1.342,0.534,1.649l1.839,0.937c0.443,0.227,0.96,0.155,1.325-0.14  c1.792,6.933,3.232,12.953,4.391,18.177c-1.423-3.268-4.455-8.472-9.42-8.732c2.992,3.496,4.093,6.264,9.906,10.949  c0.822,3.806,1.485,7.153,2.02,10.09c-0.951-1.589-2.564-3.677-4.978-4.976c0.115-1.562-0.002-3.029-0.463-4.829  c-0.796,1.27-1.318,2.626-1.652,3.978c-0.588-0.161-1.211-0.276-1.872-0.329c0.588,0.727,1.096,1.29,1.582,1.77  c-0.279,1.814-0.257,3.563-0.124,5.027c-1.936-4.604-4.24-10.168-6.977-16.885c0.563,0.071,1.119-0.26,1.311-0.817l0.67-1.954  c0.219-0.64-0.122-1.336-0.762-1.555c-0.639-0.219-1.337,0.123-1.555,0.762l-0.509,1.485c-0.205-0.505-0.414-1.019-0.624-1.537  c0.607,0.149,1.24-0.181,1.449-0.787l0.67-1.95c0.217-0.641-0.124-1.338-0.763-1.558c-0.64-0.218-1.339,0.12-1.556,0.762  l-0.564,1.647c-0.238-0.587-0.478-1.183-0.722-1.786c0.55,0.052,1.087-0.275,1.275-0.821l0.667-1.951  c0.22-0.64-0.121-1.335-0.762-1.556c-0.638-0.22-1.335,0.121-1.555,0.761l-0.49,1.427c-0.213-0.528-0.429-1.064-0.646-1.603  c0.501-0.01,0.965-0.323,1.135-0.825l0.671-1.951c0.221-0.64-0.123-1.336-0.762-1.557c-0.64-0.219-1.337,0.122-1.556,0.762  l-0.426,1.241c-0.251-0.624-0.505-1.257-0.761-1.896c0.362-0.323,0.513-0.841,0.341-1.325l-0.696-1.944  c-0.227-0.637-0.928-0.969-1.565-0.742c-0.638,0.228-0.969,0.928-0.739,1.567l0.694,1.943c0.155,0.44,0.54,0.729,0.971,0.795  c0.103,0.258,0.204,0.508,0.307,0.764c-0.008-0.003-0.014-0.007-0.022-0.01l-1.953-0.668c-0.64-0.22-1.338,0.12-1.557,0.759  c-0.219,0.64,0.122,1.339,0.762,1.557l1.952,0.668c0.591,0.204,1.225-0.074,1.494-0.623c0.272,0.676,0.541,1.345,0.808,2.009  l-1.615-0.554c-0.64-0.22-1.337,0.121-1.556,0.761c-0.219,0.64,0.12,1.337,0.762,1.557l1.951,0.67  c0.477,0.162,0.985,0.013,1.304-0.336c0.209,0.517,0.416,1.03,0.621,1.539l-1.421-0.487c-0.64-0.221-1.336,0.123-1.555,0.762  c-0.221,0.64,0.121,1.337,0.76,1.557l1.953,0.669c0.421,0.144,0.864,0.042,1.183-0.226c0.185,0.456,0.368,0.909,0.551,1.358  l-1.56-0.535c-0.639-0.219-1.335,0.122-1.555,0.762c-0.219,0.641,0.12,1.338,0.762,1.557l1.952,0.669  c0.463,0.159,0.953,0.021,1.273-0.308c2.565,6.305,4.882,11.928,6.937,16.832c-2.458-4.078-6.387-9.03-10.691-8.346  c3.613,2.766,6.554,8.276,12.598,12.865c1.021,2.404,1.964,4.595,2.832,6.579c-2.617-2.355-8.038-6.617-13.447-7.078  c3.586,2.66,7.409,4.941,13.876,8.058c0.573,1.301,1.111,2.509,1.612,3.614c1.826,4.03,2.889,6.143,3.56,7.252  c-0.187,0.046-0.342,0.194-0.383,0.396c-0.055,0.269,0.114,0.529,0.378,0.597c-0.154,0.061-0.28,0.185-0.319,0.359  c-0.047,0.215,0.049,0.426,0.224,0.54c-0.418,0.624-1.484,1.476-4.133,1.011c-0.285-0.048-0.549,0.139-0.597,0.42  c-0.049,0.281,0.139,0.548,0.42,0.597c0.57,0.1,1.103,0.149,1.596,0.149c0.713,0,1.335-0.115,1.884-0.321  c-0.649,0.486-1.598,0.808-2.811,0.939c-0.283,0.03-0.488,0.285-0.458,0.568c0.028,0.265,0.252,0.46,0.512,0.46  c0.019,0,0.037-0.001,0.056-0.003c1.803-0.193,3.114-0.756,3.908-1.673c-0.411,2.357-1.112,5.142-2.267,6.842  c-0.16,0.235-0.099,0.556,0.137,0.716c0.088,0.06,0.189,0.089,0.289,0.089c0.166,0,0.328-0.079,0.427-0.226  c0.986-1.452,1.657-3.562,2.108-5.589c0.073,1.617,0.134,3.241,0.143,4.309c0.002,0.283,0.232,0.511,0.516,0.511  c0.001,0,0.003,0,0.004,0c0.285-0.002,0.514-0.235,0.511-0.52c-0.006-0.717-0.035-1.68-0.075-2.724  c0.279,0.821,0.598,1.641,0.963,2.414c0.088,0.186,0.273,0.295,0.466,0.295c0.075,0,0.149-0.016,0.221-0.05  c0.257-0.122,0.367-0.429,0.245-0.687c-1.082-2.287-1.759-5.073-2.129-6.942c-0.009-0.171-0.018-0.335-0.026-0.49  c0.388-0.06,0.804-0.166,1.218-0.362c0.257-0.122,0.367-0.43,0.245-0.687c-0.062-0.131-0.173-0.222-0.3-0.266  c0.018-0.008,0.037-0.013,0.055-0.021c0.257-0.122,0.367-0.43,0.245-0.687c-0.123-0.257-0.428-0.365-0.687-0.245  c-0.057,0.027-0.115,0.044-0.173,0.067c0.677-1.562,1.68-4.633,2.723-10.499C63.441,68.578,65.931,65.504,68.16,61.403z   M56.576,55.163c1.073,1.672,2.568,3.045,4.353,6.725c-0.254,2.153-0.514,4.088-0.773,5.828c-0.271-3.158-1.016-7.293-2.979-10.384  c0.732,4.298,0.341,7.16,2.496,13.411c-0.806,4.703-1.587,7.629-2.2,9.419c0.11-2.985-0.165-8.838-2.112-19.735  C55.776,58.401,56.195,56.686,56.576,55.163z M51.262,71.141c1.25-5.619,2.317-5.965,1.032-10.182  c-1.748,3.087-2.098,5.891-2.003,7.96c-0.773-1.78-1.636-3.794-2.6-6.069c0.5-2.334,0.926-4.13,1.206-5.686  c1.277,0.925,2.88,1.975,5.56,4.162c0.571,3.252,0.978,5.963,1.262,8.192c0.934,7.307,0.769,10.807,0.588,12.241  C55.637,80.646,54.224,77.878,51.262,71.141z"></path></svg>