<svg xmlns="http://www.w3.org/2000/svg" viewBox="0 0 64 64" x="0px" y="0px"><g>

<path fill="#33aa33" d="M32,2A30,30,0,1,0,62,32,30.034,30.034,0,0,0,32,2ZM52.621,13.082l-7.186,4.146a19.972,19.972,0,0,0-7.672-4.373V4.6A28,28,0,0,1,52.621,13.082ZM32,50A18,18,0,1,1,50,32,18.021,18.021,0,0,1,32,50ZM13.007,25.77,5.971,21.7a28.026,28.026,0,0,1,3.987-6.936l7.029,4.066A19.964,19.964,0,0,0,13.007,25.77Zm3.939,19.355L9.915,49.181A28,28,0,0,1,5.973,42.3l7.038-4.061A19.963,19.963,0,0,0,16.946,45.125Zm33.965-6.669,7.03,4.067a28,28,0,0,1-4.047,6.9L46.85,45.349A19.99,19.99,0,0,0,50.911,38.456ZM46.891,18.7l7.046-4.065a27.99,27.99,0,0,1,4,6.843l-7.033,4.058A19.97,19.97,0,0,0,46.891,18.7ZM35.763,4.26v8.107a19.595,19.595,0,0,0-8,.094V4.32a27.8,27.8,0,0,1,8-.06Zm-10,.449v8.3a19.988,19.988,0,0,0-7.336,4.345l-7.166-4.146A28.01,28.01,0,0,1,25.763,4.709ZM5.284,23.613l7.177,4.152a19.664,19.664,0,0,0,0,8.484L5.286,40.39a28.023,28.023,0,0,1,0-16.777ZM11.215,50.74l7.166-4.135a20,20,0,0,0,7.382,4.386v8.3A28.016,28.016,0,0,1,11.215,50.74Zm16.548,8.94V51.539a19.595,19.595,0,0,0,8,.094V59.74a27.8,27.8,0,0,1-8-.06Zm10-.279V51.145a19.963,19.963,0,0,0,7.626-4.331l7.183,4.155A28,28,0,0,1,37.763,59.4ZM58.638,40.616l-7.161-4.142a19.4,19.4,0,0,0,0-8.96l7.163-4.133a27.933,27.933,0,0,1,0,17.235Z"/>

<path fill="#666666" d="M44.991,24.5a15,15,0,1,0,1.5,11.383A15.018,15.018,0,0,0,44.991,24.5Zm-.434,10.865A12.994,12.994,0,1,1,31.979,18.994a13.08,13.08,0,0,1,3.386.449,13,13,0,0,1,9.192,15.922Z"/>

<circle cx="20" cy="53" r="2"/>
<circle cx="44" cy="53" r="2"/>
<circle cx="56" cy="32" r="2"/>
<circle cx="44" cy="11" r="2"/>
<circle cx="20" cy="11" r="2"/>
<circle cx="8" cy="32" r="2"/>

</g></svg>