<?xml version="1.0" encoding="utf-8"?>
<svg viewBox="0 0 100 100" xmlns="http://www.w3.org/2000/svg">
  <g transform="matrix(1, 0, 0, 1, -0.000008, -0.000005)">
    <title>Layer 1</title>
    <g stroke="null" id="svg_9">
      <path stroke="null" id="svg_6" d="m43.090304,52.187483l-27.709416,0c-3.244929,0 -3.966896,2.15413 -4.010057,2.330699l0,0l-4.025752,13.886098c-0.627798,3.189996 -0.533628,8.094665 6.066094,8.094665l32.076533,0c4.280795,0 3.652997,-3.433268 3.386183,-4.422049l-5.783585,-19.889412z" fill="#0047AB"/>
      <path id="svg_7" d="m20.022666,49.574276l22.843985,0l36.671226,-24.017181l0.015695,-0.023542c2.338546,-1.53418 -0.408068,-2.032495 -0.408068,-2.032495l-21.341194,0c-3.448963,0 -5.485381,1.408621 -5.658026,1.50279l-33.12417,22.063161c-0.102017,0.054932 -3.641226,2.507267 1.000552,2.507267z" fill="#0047AB"/>
      <path id="svg_8" d="m93.110076,46.580466c-0.06278,-0.321746 -0.172644,-0.612103 -0.26289,-0.926001l0,-0.015695l0,0c-1.926554,-6.584027 -3.951201,-13.434868 -5.144016,-17.527324c0,0 -0.015695,0 -0.015695,-0.015695c-0.922078,-3.127217 -3.825642,-2.044266 -4.025752,-1.914783l-38.005296,24.907869l5.846365,20.132684c0.03139,0.047085 1.644045,4.300413 5.391212,1.816689l34.819224,-23.181426c1.491019,-0.984857 1.569494,-2.389555 1.39685,-3.276319zm-5.548161,-2.93103c-1.487096,0.498314 -1.957944,-0.980934 -1.957944,-0.980934l-2.534733,-7.663054l-28.772748,19.512734l0,0l-0.988781,0.667035c-0.392373,0.129483 -0.796518,0.039237 -1.141807,-0.561094l-0.070627,-0.105941c-0.435535,-0.88284 -0.188339,-1.424316 0.12556,-1.746062l0.592484,-0.408068l0,0l29.070952,-19.697149l0,0c0,0 0.015695,0 0.03139,-0.023542l0.376679,-0.258967c0.749433,-0.435535 2.338546,-0.926001 3.229234,1.785299l0,0.015695l2.821165,8.49881c0.035314,0.353136 -0.121636,0.729815 -0.780823,0.965239z" fill="#0047AB"/>
    </g>
  </g>
  <path d="M 171.556 227.263 L 171.556 227.263 Z" style="stroke: black; fill: none;"/>
</svg>
