<svg fill="#999999" xmlns="http://www.w3.org/2000/svg" xmlns:xlink="http://www.w3.org/1999/xlink" version="1.1" x="0px" y="0px" viewBox="0 0 100 100" enable-background="new 0 0 100 100" xml:space="preserve"><g><path fill="none" d="M52.397,32.651c5.878,2.076,11.929,4.197,17.928,5.943C64.597,36.206,58.454,34.369,52.397,32.651z"></path><path fill="none" d="M71.052,30.355c-5.888-2.192-11.322-4.069-16.492-5.72C59.637,26.524,65.077,28.41,71.052,30.355   L71.052,30.355z"></path><path fill="none" d="M49.286,51.446c1.222,0.47,2.476,0.942,3.746,1.415c0.398,0.148,0.791,0.296,1.194,0.445   c0.104,0.039,0.213,0.078,0.318,0.116c0.742,0.273,1.49,0.547,2.249,0.822c0.05,0.018,0.101,0.036,0.151,0.054   c4.285,1.549,8.847,3.125,13.745,4.749c-0.009-0.033-0.02-0.079-0.02-0.079C62.893,56.048,55.846,53.569,49.286,51.446z"></path><path fill="none" d="M66.093,47.763l-1.385-0.564l-0.017-0.006c-3.816-1.425-7.706-2.878-11.622-4.253   c-1.305-0.458-2.614-0.907-3.923-1.344c5.221,2.046,10.558,3.922,15.759,5.749L66.093,47.763z"></path><path fill="none" d="M52.321,71.55c0.84,0.292,1.672,0.579,2.508,0.869c0.872,0.302,1.75,0.607,2.616,0.906l1.468,0.508   l-1.768-0.64C55.547,72.649,53.938,72.1,52.321,71.55z"></path><path fill="none" d="M14.124,68.378c0.056-0.003,0.081-0.097,0.081-0.098c0.021-0.087,0.071-0.159,0.132-0.222   c0.007-0.007,0.008-0.019,0.015-0.025c-0.071-0.028-0.143-0.055-0.213-0.082c-0.099,0.15-0.265,0.232-0.462,0.222   c-0.252-0.024-0.508-0.037-0.765-0.037c-2.597,0-5.012,1.189-6.152,3.03c-0.93,1.506-1.125,3.68-0.044,5.115   c-0.052-0.118-0.088-0.239-0.132-0.359c-0.031-0.084-0.066-0.167-0.092-0.252c-0.075-0.239-0.133-0.479-0.175-0.721   C6.312,74.925,6.304,74.9,6.3,74.874c-0.042-0.267-0.06-0.535-0.061-0.802c0-0.081,0.009-0.161,0.012-0.242   c0.008-0.186,0.022-0.37,0.049-0.553c0.015-0.097,0.035-0.191,0.055-0.287c0.035-0.168,0.079-0.333,0.131-0.497   c0.03-0.094,0.06-0.188,0.096-0.281c0.065-0.169,0.143-0.333,0.227-0.496c0.04-0.078,0.075-0.157,0.119-0.233   c0.137-0.234,0.288-0.461,0.466-0.676C9.167,68.662,11.916,68.505,14.124,68.378z"></path><path fill="none" d="M13.763,78.914c0.728,0.293,1.458,0.582,2.184,0.88c-0.003-0.002-0.004-0.005-0.007-0.007   c-0.012-0.008-0.02-0.02-0.031-0.029c-0.051-0.041-0.095-0.088-0.132-0.14c-0.014-0.02-0.025-0.04-0.037-0.062   c-0.028-0.05-0.05-0.102-0.065-0.158c-0.006-0.022-0.014-0.042-0.018-0.065c-0.015-0.079-0.021-0.161-0.008-0.247   c0.053-0.376,0.36-0.648,0.73-0.648c0.041,0,0.151,0.014,0.19,0.023c0.773,0.204,1.551,0.394,2.333,0.584   c0.587,0.144,1.181,0.291,1.775,0.443c0.11,0.028,0.218,0.053,0.327,0.082c-0.502-0.201-1.002-0.403-1.498-0.596   c-0.242-0.093-0.405-0.301-0.443-0.544c-0.013-0.081-0.012-0.165,0.004-0.251c0.062-0.329,0.332-0.559,0.659-0.559   c0.05,0,0.165,0.018,0.213,0.033c0.517,0.158,1.041,0.315,1.57,0.471c1.824,0.54,3.71,1.099,5.466,1.85   c0.347,0.151,0.525,0.498,0.449,0.866c-0.083,0.397-0.425,0.686-0.814,0.686c-0.043,0-0.166-0.016-0.209-0.028   c-0.332-0.09-0.665-0.187-0.997-0.291c0.013,0.032,0.017,0.068,0.026,0.102c0.006,0.025,0.015,0.049,0.019,0.075   c0.012,0.081,0.014,0.164-0.002,0.249c-0.068,0.368-0.377,0.626-0.752,0.626c-0.031,0-0.128-0.01-0.158-0.015   c-2.062-0.387-4.121-1.031-6.111-1.653c-0.704-0.22-1.405-0.437-2.104-0.645c0.119,0.049,0.237,0.099,0.356,0.148   c1.068,0.44,2.128,0.884,3.189,1.328c0.482,0.202,0.967,0.402,1.448,0.605c1.496,0.631,2.983,1.263,4.456,1.89l2.489,1.058   c1.269,0.538,2.547,1.11,3.836,1.687c4.019,1.799,8.152,3.65,12.401,4.624c-0.218-0.247-0.409-0.535-0.566-0.858l-0.024-0.025   c-0.087-0.089-0.174-0.179-0.252-0.281c-0.132-0.165-0.188-0.383-0.148-0.592c0.012-0.06,0.031-0.117,0.056-0.171   c-0.149-0.728-0.131-1.482,0.053-2.146c0.483-1.723,2.061-2.995,4.02-3.241c0.088-0.011,0.177-0.018,0.266-0.024   c-1.374-0.767-3.017-1.398-4.425-1.939c-0.8-0.307-1.491-0.572-2.034-0.823c-3.079-1.428-6.171-2.842-9.263-4.243   c-1.644-0.747-3.291-1.488-4.937-2.23c-3.321-1.495-6.753-3.042-10.109-4.613c-0.026,0.007-0.045,0.013-0.05,0.013   c-0.065,0.017-0.152,0.028-0.235,0.028c-0.389,0-0.712-0.23-0.852-0.578c-0.397-0.184-0.76-0.354-1.114-0.523   c-0.184,0.193-0.433,0.313-0.707,0.326c-2.115,0.121-4.52,0.258-6.018,2.072C6.945,72.907,6.916,75,8.072,76.689   c1.421,0.534,2.842,1.086,4.26,1.648C12.81,78.527,13.286,78.722,13.763,78.914z"></path><path fill="none" d="M57.774,64.435c0.243,0.09,0.486,0.182,0.729,0.272c1.946,0.718,3.899,1.415,5.85,2.091   c0.136,0.047,0.271,0.094,0.406,0.141c-4.295-1.694-8.679-3.261-13.001-4.77c0.014,0.006,0.029,0.011,0.044,0.017   C53.778,62.941,55.773,63.694,57.774,64.435z"></path><path fill="none" d="M44.613,89.713l0.087,0.09c0.037,0.039,0.067,0.083,0.089,0.131c0.194,0.418,0.559,0.975,1.196,1.249   c0.008-0.001,0.015-0.002,0.023-0.003c-0.054-0.051-0.099-0.107-0.15-0.16c-0.067-0.07-0.136-0.138-0.198-0.211   c-0.058-0.069-0.107-0.141-0.16-0.212c-0.053-0.071-0.109-0.141-0.157-0.215c-0.05-0.077-0.091-0.157-0.135-0.236   c-0.04-0.072-0.084-0.142-0.12-0.216c-0.041-0.086-0.073-0.174-0.107-0.261c-0.028-0.07-0.06-0.138-0.083-0.209   c-0.031-0.094-0.051-0.189-0.074-0.283c-0.016-0.067-0.038-0.133-0.05-0.2c-0.019-0.101-0.026-0.203-0.035-0.305   c-0.006-0.062-0.018-0.123-0.02-0.185c-0.005-0.113,0.003-0.225,0.01-0.338c0.003-0.051,0-0.102,0.005-0.152   c0.017-0.163,0.046-0.324,0.088-0.484c0.308-1.171,1.247-2.016,2.576-2.317c0.282-0.064,0.584-0.096,0.899-0.096   c1.229,0,2.807,0.517,3.214,1.971c0.103,0.37,0.104,0.723,0.035,1.056c0.116-0.383,0.132-0.785,0.008-1.202   c-0.028-0.066-0.045-0.14-0.045-0.208c0-0.152,0.07-0.295,0.188-0.388c-0.043-0.246-0.11-0.473-0.195-0.686   c-0.03-0.074-0.074-0.138-0.109-0.209c-0.065-0.131-0.127-0.264-0.207-0.383c-0.052-0.077-0.116-0.145-0.173-0.217   c-0.079-0.1-0.155-0.202-0.245-0.294c-0.07-0.071-0.149-0.135-0.224-0.202c-0.091-0.081-0.18-0.165-0.279-0.24   c-0.085-0.065-0.176-0.124-0.265-0.185c-0.101-0.069-0.201-0.139-0.307-0.203c-0.096-0.058-0.197-0.113-0.296-0.168   c-0.109-0.06-0.216-0.121-0.328-0.178c-0.105-0.053-0.212-0.105-0.319-0.156c-0.116-0.056-0.232-0.112-0.351-0.165   c-0.111-0.05-0.223-0.1-0.335-0.15c-0.053-0.023-0.107-0.047-0.16-0.07c0.017,0.009,0.033,0.018,0.05,0.027   c0.068,0.035,0.132,0.073,0.199,0.109c0.177,0.096,0.352,0.193,0.522,0.293c0.085,0.05,0.167,0.101,0.25,0.153   c0.152,0.094,0.299,0.19,0.442,0.288c0.078,0.053,0.156,0.106,0.231,0.161c0.154,0.112,0.3,0.227,0.441,0.344   c0.042,0.035,0.089,0.066,0.13,0.101c0.015,0.008,0.022,0.025,0.036,0.034c0.013,0.011,0.028,0.022,0.041,0.033   c0.006,0.006,0.009,0.014,0.016,0.02c0.097,0.09,0.169,0.206,0.169,0.349c0,0.221-0.147,0.401-0.347,0.465   c-0.011,0.004-0.022,0.004-0.033,0.007c-0.038,0.009-0.074,0.023-0.115,0.023c-0.005-0.001-0.013-0.001-0.019,0c0,0,0,0,0,0   c-0.057,0-0.115-0.01-0.171-0.03c-0.64-0.236-1.346-0.324-1.989-0.25c-1.537,0.193-2.82,1.208-3.188,2.525   c-0.158,0.573-0.156,1.239,0.009,1.876c0.026,0.102,0.018,0.208-0.017,0.301C44.577,89.675,44.595,89.694,44.613,89.713z"></path><path fill="none" d="M84.718,23.531c-0.894,0.605-1.721,1.38-2.508,2.356c0.986,0.202,2.033,0.437,3.209,0.723   c-0.043-0.871,0.264-1.728,0.837-2.383C85.703,24.051,85.184,23.816,84.718,23.531z"></path><path fill="none" d="M21.707,71.119c0.426,0.194,0.851,0.391,1.276,0.584c1.565,0.711,3.128,1.416,4.664,2.108   c1.648,0.743,3.295,1.485,4.94,2.232c3.095,1.402,6.189,2.818,9.27,4.245c0.513,0.238,1.19,0.497,1.972,0.798   c0.527,0.202,1.085,0.416,1.652,0.646c-3.26-1.52-6.519-3.03-9.795-4.519c-1.485-0.677-2.934-1.335-4.362-1.98   c-0.405-0.183-0.798-0.356-1.199-0.536c-1.016-0.457-2.031-0.913-3.032-1.355c-0.541-0.239-1.076-0.469-1.615-0.704   c-0.849-0.371-1.7-0.744-2.547-1.107c-0.622-0.266-1.249-0.524-1.873-0.786c-0.568-0.238-1.136-0.477-1.706-0.712   C20.136,70.396,20.919,70.76,21.707,71.119z"></path><path fill="none" d="M89.362,25.432c-0.25-0.102-0.477-0.155-0.678-0.155c-0.455,0-0.675,0.271-0.779,0.498   c-0.18,0.391-0.164,1.014,0.187,1.509c0.118,0.029,0.232,0.058,0.345,0.09c0.303,0.08,0.534,0.286,0.644,0.559   c0.015,0.004,0.032,0.007,0.048,0.011c0.179,0.039,0.359,0.057,0.536,0.058c1.242,0.003,2.396-0.895,2.873-2.186   c0.675-1.845-0.392-3.316-1.75-3.992c-0.175,0.116-0.383,0.177-0.614,0.177l-0.376-0.006c-1.012,0-1.982,0.154-2.897,0.459   c0.687,0.262,1.323,0.424,1.979,0.509c0.222,0.03,0.415,0.141,0.549,0.305c0.268,0.088,0.528,0.218,0.779,0.39   c0.368,0.249,0.523,0.721,0.383,1.171C90.427,25.367,89.879,25.644,89.362,25.432z"></path><path fill="none" d="M93.395,22.514c-0.131-0.202-0.142-0.535,0.034-0.699c-6.347-6.572-15.563-9.303-24.475-11.944   c-0.959-0.285-1.911-0.566-2.847-0.85l-1.102-0.338c-2.987-0.921-6.074-1.874-9.123-1.874c-1.453,0-2.759,0.215-3.99,0.657   c-3.894,1.401-6.198,4.831-7.446,7.461c-2.621,5.523-3.001,11.735-3.37,17.743c-0.285,4.655-0.58,9.468-1.9,13.996   c-2.969,10.156-10.95,18.313-21.896,22.38c-0.113,0.043-0.24,0.042-0.354-0.004c-0.017-0.007-0.035-0.014-0.053-0.021   c0.021,0.049,0.034,0.101,0.039,0.156c0.076-0.063,0.127-0.077,0.177-0.087c0.104-0.02,0.209-0.007,0.302,0.038   c0.28,0.131,0.565,0.259,0.846,0.39c-0.014-0.014-0.02-0.034-0.032-0.05c-0.013-0.017-0.023-0.033-0.033-0.052   c-0.043-0.078-0.073-0.164-0.069-0.257c0.009-0.209,0.149-0.389,0.349-0.451c6.887-2.111,13.237-7.026,17.42-13.484   c4.65-7.198,5.263-15.183,5.913-23.638c0.142-1.845,0.288-3.753,0.48-5.628c0.435-4.292,1.354-9.766,4.619-14.044   c2.35-3.085,5.482-4.585,9.571-4.585c1.951,0,4.163,0.347,6.761,1.059l2.231,0.607c3.781,1.023,7.782,2.107,11.678,3.478   c0.006,0.002,0.012,0.004,0.018,0.006c0.456,0.16,0.909,0.328,1.361,0.496c0.104,0.039,0.208,0.075,0.312,0.114   c0.401,0.152,0.797,0.31,1.194,0.469c0.152,0.061,0.305,0.118,0.457,0.18c0.346,0.142,0.688,0.291,1.031,0.439   c0.199,0.086,0.4,0.167,0.598,0.255c0.31,0.138,0.614,0.283,0.92,0.427c0.225,0.105,0.453,0.206,0.675,0.314   c0.285,0.138,0.564,0.285,0.845,0.429c0.238,0.121,0.479,0.239,0.715,0.364c0.256,0.136,0.505,0.281,0.757,0.422   c0.254,0.142,0.512,0.28,0.763,0.427c0.228,0.134,0.449,0.277,0.674,0.415c0.266,0.164,0.536,0.324,0.797,0.494   c0.207,0.135,0.407,0.279,0.611,0.418c0.27,0.184,0.543,0.364,0.806,0.555c0.189,0.137,0.369,0.283,0.554,0.423   c0.255,0.193,0.514,0.381,0.763,0.582c0.012,0.006,0.018,0.019,0.029,0.026c0.015,0.012,0.031,0.023,0.045,0.035   c0.01,0.008,0.015,0.019,0.025,0.028c0.073,0.065,0.12,0.145,0.145,0.243c0,0.002,0.001,0.003,0.001,0.004   c0.009,0.037,0.031,0.069,0.031,0.108c0,0.24-0.157,0.426-0.396,0.474c-0.026,0.006-0.05,0.012-0.077,0.015   c-0.011,0.001-0.019,0.006-0.03,0.006c-0.026-0.002-0.071-0.002-0.108-0.01c-0.525-0.105-1.029-0.124-1.529-0.043   c-5.107,0.128-9.008,4.073-11.661,11.731c-2.994,8.634-3.759,17.432-4.14,25.653c-0.368,7.909-0.827,17.751-6.031,25.64   c-0.382,0.58-0.809,1.161-1.275,1.733c-3.264,4.005-8.473,7.591-13.987,7.591h-0.001c-0.001,0-0.002,0-0.004,0   c-0.462,0-0.917-0.033-1.368-0.084c-0.141-0.016-0.28-0.041-0.42-0.062c-0.315-0.047-0.627-0.105-0.935-0.178   c-0.151-0.035-0.302-0.073-0.451-0.114c-0.316-0.088-0.628-0.192-0.937-0.306c-0.118-0.044-0.239-0.081-0.356-0.129   c-0.039-0.016-0.08-0.027-0.119-0.043c0.004,0.007,0.004,0.016,0.007,0.023c0.018,0.039,0.029,0.08,0.036,0.122   c0.003,0.019,0.01,0.036,0.011,0.055c0.004,0.062-0.001,0.125-0.022,0.188c-0.03,0.093-0.091,0.165-0.164,0.223   c-0.012,0.009-0.02,0.02-0.032,0.028c-0.072,0.048-0.156,0.072-0.244,0.078c-0.011,0.001-0.019,0.009-0.029,0.009   c-0.022,0-0.044-0.002-0.067-0.005c-5.296-0.723-10.349-2.985-15.236-5.173c-1.282-0.574-2.554-1.144-3.817-1.68l-2.49-1.058   c-1.895-0.806-3.821-1.621-5.752-2.431c-0.537-0.225-1.075-0.45-1.614-0.674c-2.068-0.861-4.148-1.713-6.234-2.539   c-0.047-0.018-0.093-0.036-0.14-0.054c4.926,2.257,9.935,4.386,14.817,6.461l4.077,1.735c0.893,0.383,1.791,0.779,2.692,1.176   c5.667,2.503,11.541,5.102,17.77,4.635c0.098-0.073,0.294-0.143,0.406-0.13c2.951,0.24,6.131-0.514,8.851-2.051   c5.335-3.021,9.538-8.993,11.533-16.382c1.507-5.59,1.779-11.475,2.042-17.167c0.165-3.569,0.335-7.261,0.808-10.858   c0.553-4.18,1.844-13.968,5.884-20.032c0.077-0.116,0.196-0.19,0.326-0.213c-0.006-0.033,0.002-0.066,0.002-0.099   c0.001-0.024-0.002-0.046,0.002-0.069c0.012-0.074,0.037-0.146,0.083-0.209c1.079-1.479,2.229-2.593,3.519-3.404   c0.169-0.106,0.382-0.102,0.545,0.012c0.059,0.041,0.126,0.075,0.188,0.114c-0.03-0.064-0.049-0.134-0.049-0.206   c0-0.189,0.107-0.362,0.277-0.445c1.447-0.705,3.012-1.044,4.734-0.985c0.096-0.022,0.106-0.019,0.122-0.042   c0.128-0.201,0.379-0.282,0.602-0.192c1.976,0.8,3.502,2.904,2.595,5.38c-0.616,1.669-2.177,2.834-3.796,2.834   c-0.247,0-0.496-0.026-0.741-0.078c-0.153-0.031-0.304-0.085-0.448-0.14c-0.191-0.073-0.318-0.257-0.318-0.462   c-0.148-0.028-0.302-0.065-0.455-0.101c-0.049-0.012-0.099-0.033-0.146-0.06c-0.049-0.028-0.094-0.062-0.129-0.103   c-0.648-0.751-0.82-1.83-0.429-2.684c0.422-0.923,1.396-1.305,2.512-0.928c-0.171-0.146-0.35-0.221-0.528-0.264   c-0.134-0.033-0.248-0.12-0.315-0.238c-0.288-0.04-0.574-0.096-0.86-0.164c-0.022-0.005-0.043-0.007-0.065-0.012   c0.021,0.042,0.037,0.086,0.045,0.133c0.037,0.202-0.055,0.406-0.23,0.513c-0.842,0.511-1.303,1.527-1.12,2.472   c0.011,0.057,0.027,0.112,0.043,0.165c0.001,0.004,0.028,0.101,0.029,0.104v0c0.012,0.043,0.036,0.08,0.036,0.126   c0,0.229-0.158,0.413-0.369,0.469c-0.012,0.004-0.024,0.004-0.036,0.007c-0.03,0.006-0.058,0.018-0.09,0.018   c-0.004,0-0.012,0-0.019,0c-0.04,0-0.08-0.005-0.12-0.014c-0.161-0.04-0.308-0.075-0.465-0.113c0.43,0.118,0.877,0.24,1.35,0.366   c0.098,0.026,0.184,0.081,0.249,0.158c0.592,0.697,1.552,1.098,2.634,1.098c0.831,0,1.642-0.241,2.284-0.681   c1.843-1.266,2.576-3.83,1.633-5.714C93.543,22.738,93.469,22.626,93.395,22.514z"></path><path fill="none" d="M44.81,21.251c0.072,0.023,0.136,0.061,0.188,0.11c0.071-0.164,0.153-0.324,0.243-0.479   c-0.108-0.009-0.173-0.019-0.25-0.065c-0.098-0.055-0.169-0.138-0.211-0.234c-0.105,0.214-0.2,0.439-0.283,0.673   c0.052-0.018,0.107-0.028,0.164-0.028C44.712,21.229,44.761,21.236,44.81,21.251z"></path><path fill="none" d="M43.866,25.809c-0.124,0-0.233-0.038-0.332-0.091c-0.002-0.001-0.004-0.002-0.006-0.003   c-0.073-0.04-0.135-0.09-0.188-0.153c-0.01-0.011-0.025-0.016-0.034-0.028c-0.019,0.173-0.042,0.354-0.06,0.523   c-0.19,1.864-0.336,3.765-0.477,5.603c-0.631,8.205-1.283,16.69-6.069,24.1c-4.049,6.251-10.075,11.1-16.685,13.469   c5.299,2.19,10.44,4.513,16.08,7.083c1.634,0.743,3.265,1.489,4.892,2.24c-0.003-0.002-0.003-0.006-0.006-0.009   c-0.082-0.073-0.139-0.165-0.181-0.265c-0.011-0.026-0.02-0.05-0.028-0.078c-0.032-0.109-0.049-0.224-0.027-0.345   c0.063-0.35,0.349-0.594,0.694-0.594c0.05,0,0.177,0.02,0.224,0.035c0.523,0.156,1.071,0.307,1.629,0.461   c0.346,0.096,0.694,0.191,1.042,0.291c-0.011-0.007-0.019-0.017-0.03-0.024c-0.022-0.015-0.041-0.032-0.061-0.049   c-0.041-0.034-0.077-0.071-0.109-0.113c-0.017-0.022-0.032-0.044-0.047-0.068c-0.027-0.046-0.047-0.095-0.063-0.146   c-0.008-0.024-0.018-0.047-0.023-0.072c-0.015-0.078-0.021-0.159-0.01-0.243c0.051-0.376,0.36-0.649,0.735-0.649   c0.031,0,0.118,0.009,0.149,0.014c2.118,0.414,4.098,1.234,5.574,2.31c0.298,0.219,0.417,0.586,0.303,0.935   c-0.109,0.334-0.41,0.558-0.748,0.558c-0.14,0-0.277-0.037-0.407-0.111c-0.169-0.096-0.349-0.191-0.523-0.287   c0.009,0.03,0.01,0.061,0.016,0.092c0.004,0.023,0.01,0.045,0.012,0.068c0.005,0.073,0.002,0.148-0.018,0.223   c-0.086,0.343-0.405,0.592-0.758,0.592c-0.027,0-0.1-0.006-0.127-0.011c-1.81-0.307-3.654-1.05-5.437-1.77   c-0.375-0.151-0.739-0.293-1.103-0.436c1.814,0.838,3.624,1.68,5.436,2.526c0.299,0.14,0.613,0.275,0.93,0.413   c1.966,0.852,4.192,1.818,4.664,4.259c0.058,0.276,0.006,0.552-0.139,0.779c0.381,1.627-0.59,3.244-2.821,4.691   c-0.081,0.054-0.173,0.094-0.269,0.115c0.827,0.199,1.682,0.298,2.558,0.298c5.562,0,10.825-3.92,13.859-8.052   c0.202-0.275,0.395-0.552,0.577-0.828c5.055-7.663,5.487-16.949,5.87-25.142c0.383-8.294,1.157-17.177,4.192-25.931   c2.802-8.088,7.01-12.257,12.506-12.39c0.052-0.01,0.11-0.018,0.172-0.025c-6.806-4.974-15.914-7.439-24.006-9.629l-2.234-0.608   c-2.513-0.689-4.639-1.024-6.501-1.024c-3.76,0-6.634,1.373-8.785,4.196c-0.387,0.507-0.739,1.034-1.061,1.574   c-0.131,0.221-0.236,0.452-0.358,0.677c-0.176,0.327-0.363,0.651-0.519,0.986c-0.111,0.239-0.2,0.486-0.301,0.728   c-0.139,0.331-0.287,0.659-0.409,0.994c-0.087,0.239-0.155,0.482-0.234,0.723c-0.108,0.329-0.223,0.658-0.317,0.988   c0.13-0.176,0.271-0.346,0.423-0.508c0.338-0.359,0.931-0.306,1.219,0.07c0.164-0.115,0.336-0.218,0.515-0.31   c0.498-0.258,1.134,0.026,1.284,0.567c0.106,0.386-0.051,0.772-0.402,0.981c-1.208,0.728-1.881,1.844-1.892,3.141   c0,0.228-0.091,0.438-0.256,0.585c-0.096,0.085-0.215,0.133-0.34,0.164c-0.023,0.006-0.046,0.008-0.07,0.012   c-0.041,0.006-0.079,0.022-0.121,0.022c-0.001,0-0.001,0-0.001,0c-0.064,0-0.126-0.007-0.185-0.02   c-0.044,0.392-0.059,0.789-0.046,1.198c0.005,0.189-0.064,0.367-0.194,0.501C44.266,25.728,44.069,25.809,43.866,25.809z    M83.359,19.439c-0.074,0.417-0.407,0.709-0.807,0.709c-0.096,0-0.192-0.016-0.288-0.049c-1.78-0.608-3.589-1.32-5.186-1.949   c-0.363-0.146-0.564-0.513-0.49-0.894c0.07-0.361,0.368-0.614,0.725-0.614c0.049,0,0.187,0.021,0.234,0.036   c1.633,0.524,3.474,1.115,5.247,1.766C83.204,18.593,83.436,19.002,83.359,19.439z M75.983,14.885l0.249-0.002   c2.643,0,5.102,0.649,7.11,1.878c0.3,0.184,0.434,0.519,0.34,0.854c-0.095,0.336-0.397,0.572-0.736,0.572   c-0.128,0-0.252-0.033-0.368-0.097c-2.312-1.263-4.348-1.837-6.6-1.86c-0.369,0-0.662-0.296-0.662-0.672   C75.317,15.18,75.609,14.885,75.983,14.885z M40.327,58.112c0.065-0.364,0.353-0.622,0.692-0.656   c0.113-0.011,0.232,0.002,0.35,0.045c2.327,0.823,4.665,1.633,7.005,2.445c5.963,2.066,12.127,4.203,18.084,6.552   c0.346,0.133,0.579,0.431,0.635,0.781c0.019,0.117,0.018,0.239-0.005,0.363c-0.086,0.461-0.455,0.782-0.897,0.782   c-0.11,0-0.222-0.019-0.333-0.058c-6.08-2.053-12.193-4.403-18.104-6.674c-2.3-0.885-4.598-1.769-6.898-2.636   C40.47,58.911,40.252,58.524,40.327,58.112z M61.267,75.638c-0.112,0-0.227-0.02-0.34-0.06l-3.806-1.318   c-1.027-0.355-2.067-0.717-3.102-1.075c-6.522-2.26-13.18-4.583-19.708-6.995c-0.369-0.132-0.581-0.5-0.512-0.893   c0.066-0.381,0.373-0.646,0.746-0.646c0.049,0,0.192,0.021,0.239,0.036c5.243,1.673,10.514,3.438,15.717,5.202   c2.338,0.793,4.666,1.585,6.965,2.369l4.061,1.384c0.483,0.159,0.766,0.631,0.684,1.146C62.129,75.288,61.741,75.638,61.267,75.638   z M65.237,83.754c-0.137,0.142-0.316,0.219-0.503,0.219c-0.269,0-0.52-0.162-0.638-0.413c-0.121-0.253-0.085-0.546,0.093-0.765   c0.181-0.219,0.346-0.44,0.502-0.663c0.05-0.072,0.094-0.145,0.142-0.217c0.101-0.153,0.2-0.307,0.291-0.464   c0.051-0.088,0.099-0.177,0.147-0.266c0.079-0.146,0.156-0.294,0.228-0.445c0.046-0.095,0.09-0.191,0.134-0.288   c0.068-0.153,0.133-0.309,0.196-0.467c0.022-0.056,0.044-0.112,0.066-0.168c-0.009,0.013-0.018,0.024-0.027,0.037   c-0.097,0.139-0.194,0.271-0.291,0.401c-0.036,0.048-0.072,0.099-0.108,0.146c-0.132,0.173-0.263,0.339-0.389,0.493   c-0.135,0.167-0.338,0.266-0.552,0.266c-0.281,0-0.552-0.165-0.689-0.421c-0.131-0.243-0.119-0.525,0.032-0.753   c0.412-0.625,0.842-1.306,1.198-2.042c0.173-0.359,0.308-0.731,0.443-1.102c0.142-0.39,0.285-0.779,0.464-1.153   c0.248-0.516,0.969-0.58,1.34-0.148c0.165,0.194,0.239,0.443,0.201,0.687c-0.021,0.128-0.046,0.256-0.076,0.383   c0.002,0,0.004,0.001,0.006,0.001c0.002,0,0.004-0.001,0.006-0.001c0.02,0,0.038,0.01,0.057,0.011   c0.188,0.001,0.4,0.093,0.538,0.237c0.145,0.15,0.219,0.35,0.212,0.562C68.17,79.557,67.069,81.865,65.237,83.754z M71.683,59.226   c-0.088,0.486-0.475,0.826-0.943,0.826c-0.11,0-0.223-0.019-0.335-0.056c-10.111-3.353-18.799-6.501-26.559-9.625   c-0.368-0.143-0.577-0.521-0.503-0.917c0.086-0.459,0.54-0.743,0.997-0.602c8.047,2.464,16.773,5.47,26.678,9.192   c0.364,0.136,0.609,0.444,0.669,0.806C71.707,58.971,71.706,59.097,71.683,59.226z M48.91,22.791   c0.089-0.479,0.561-0.773,1.034-0.625c6.654,2.007,13.661,4.361,21.419,7.195c0.483,0.178,0.757,0.659,0.666,1.17   c-0.086,0.486-0.472,0.825-0.939,0.825c-0.107,0-0.217-0.017-0.326-0.053c-7.91-2.576-14.885-5.048-21.324-7.558   C49.052,23.595,48.833,23.203,48.91,22.791z M47.798,30.404c0.113-0.017,0.232-0.011,0.353,0.024l1.483,0.416   c0.91,0.256,1.825,0.513,2.741,0.772c6.416,1.817,12.941,3.76,19.004,6.348c0.396,0.171,0.601,0.572,0.513,0.997   c-0.097,0.467-0.493,0.806-0.941,0.806c-0.084,0-0.169-0.012-0.252-0.036c-6.532-1.873-13.121-4.201-19.493-6.452l-3.529-1.244   c-0.399-0.139-0.629-0.529-0.557-0.947C47.181,30.723,47.459,30.456,47.798,30.404z M44.623,39.112   c6.87,2.095,13.756,4.667,20.415,7.155l2.372,0.885c0.476,0.181,0.741,0.66,0.648,1.166c-0.087,0.474-0.463,0.806-0.914,0.806   c-0.114,0-0.23-0.02-0.345-0.063l-2.224-0.781c-6.768-2.378-13.767-4.838-20.454-7.651c-0.366-0.153-0.569-0.534-0.491-0.927   C43.721,39.25,44.173,38.974,44.623,39.112z"></path><path fill="none" d="M48.939,90.015c0.843-0.751,1.894-1.686,1.619-2.676c-0.301-1.078-1.907-1.412-2.943-1.176   c-0.97,0.219-1.623,0.789-1.836,1.604c-0.06,0.229-0.082,0.467-0.068,0.708c0.028,0.482,0.198,0.971,0.49,1.409   c0.146,0.219,0.322,0.425,0.526,0.61c0.052,0.045,0.101,0.099,0.145,0.158c0.605,0.326,1.23,0.591,1.872,0.794   c-0.1-0.091-0.183-0.208-0.234-0.341c-0.125-0.321-0.045-0.662,0.205-0.889L48.939,90.015z"></path><path d="M67.509,76.622c-0.02-0.001-0.037-0.011-0.057-0.011c-0.002,0-0.004,0.001-0.006,0.001c-0.002,0-0.004-0.001-0.006-0.001   c0.03-0.127,0.055-0.256,0.076-0.383c0.038-0.243-0.036-0.493-0.201-0.687c-0.371-0.432-1.091-0.368-1.34,0.148   c-0.179,0.375-0.322,0.763-0.464,1.153c-0.135,0.371-0.27,0.743-0.443,1.102c-0.355,0.736-0.785,1.417-1.198,2.042   c-0.151,0.228-0.163,0.51-0.032,0.753c0.137,0.256,0.408,0.421,0.689,0.421c0.214,0,0.417-0.099,0.552-0.266   c0.126-0.154,0.257-0.32,0.389-0.493c0.036-0.047,0.072-0.098,0.108-0.146c0.097-0.13,0.194-0.262,0.291-0.401   c0.009-0.013,0.018-0.024,0.027-0.037c-0.022,0.056-0.044,0.112-0.066,0.168c-0.063,0.158-0.128,0.314-0.196,0.467   c-0.043,0.097-0.088,0.193-0.134,0.288c-0.072,0.151-0.149,0.299-0.228,0.445c-0.048,0.089-0.096,0.179-0.147,0.266   c-0.091,0.157-0.19,0.31-0.291,0.464c-0.048,0.072-0.092,0.146-0.142,0.217c-0.156,0.223-0.321,0.444-0.502,0.663   c-0.178,0.219-0.213,0.512-0.093,0.765c0.119,0.251,0.37,0.413,0.638,0.413c0.187,0,0.366-0.077,0.503-0.219   c1.832-1.889,2.933-4.198,3.021-6.334c0.008-0.213-0.067-0.412-0.212-0.562C67.909,76.715,67.697,76.623,67.509,76.622z"></path><path d="M94.491,22.425c-0.041-0.081-0.083-0.158-0.133-0.24c0.056-0.126,0.087-0.259,0.091-0.394   c0.007-0.271-0.1-0.535-0.302-0.742c-6.537-6.681-16.299-9.574-24.912-12.126c-0.957-0.284-1.907-0.565-2.841-0.848l-1.098-0.337   C62.239,6.796,59.08,5.82,55.882,5.82c-1.569,0-2.983,0.234-4.324,0.715c-4.211,1.516-6.678,5.17-8.006,7.968   c-2.702,5.696-3.088,12.005-3.463,18.106c-0.282,4.601-0.573,9.358-1.862,13.78c-2.865,9.798-10.555,17.685-21.113,21.664   c-0.938-0.372-1.875-0.744-2.808-1.096c-0.308-0.115-0.644-0.026-0.855,0.208c-0.178-0.011-0.358-0.016-0.538-0.016   c-2.977,0-5.656,1.341-6.993,3.499c-1.253,2.028-1.366,5.09,0.553,6.829c0.051,0.229,0.2,0.418,0.418,0.517   c6.302,3.037,12.85,5.819,19.183,8.509l4.075,1.735c0.89,0.381,1.783,0.775,2.681,1.171c5.315,2.347,10.811,4.775,16.706,4.774   c0.508,0,1.021-0.017,1.522-0.055c0.152-0.007,0.294-0.046,0.432-0.12c3.094,0.221,6.413-0.583,9.252-2.187   c5.565-3.152,9.938-9.342,12.001-16.987c1.536-5.693,1.81-11.633,2.076-17.378c0.164-3.55,0.333-7.22,0.801-10.775   c0.532-4.038,1.769-13.402,5.521-19.298c1.505,0.495,3.154,0.977,5.267,1.542c0.784,0.846,1.97,1.328,3.282,1.328   c1.028,0,2.037-0.303,2.844-0.854C94.767,27.861,95.646,24.732,94.491,22.425z M6.809,71.717c-0.084,0.163-0.162,0.327-0.227,0.496   c-0.036,0.093-0.066,0.186-0.096,0.281c-0.052,0.164-0.096,0.329-0.131,0.497c-0.02,0.096-0.04,0.19-0.055,0.287   c-0.028,0.183-0.042,0.367-0.049,0.553c-0.003,0.081-0.013,0.161-0.012,0.242c0.001,0.267,0.019,0.535,0.061,0.802   c0.004,0.026,0.013,0.051,0.017,0.076c0.041,0.242,0.1,0.482,0.175,0.721c0.027,0.085,0.062,0.168,0.092,0.252   c0.044,0.12,0.079,0.241,0.132,0.359c-1.081-1.435-0.886-3.61,0.044-5.115c1.14-1.841,3.555-3.03,6.152-3.03   c0.257,0,0.513,0.013,0.765,0.037c0.197,0.01,0.363-0.072,0.462-0.222c0.071,0.027,0.142,0.054,0.213,0.082   c-0.007,0.007-0.008,0.018-0.015,0.025c-0.061,0.062-0.11,0.135-0.132,0.222c0,0.001-0.025,0.095-0.081,0.098   c-2.208,0.127-4.957,0.284-6.731,2.43c-0.177,0.215-0.329,0.442-0.466,0.676C6.884,71.56,6.849,71.639,6.809,71.717z M8.157,71.438   c1.498-1.814,3.902-1.951,6.018-2.072c0.274-0.013,0.523-0.132,0.707-0.326c0.354,0.168,0.717,0.338,1.114,0.523   c0.14,0.348,0.463,0.578,0.852,0.578c0.083,0,0.17-0.011,0.235-0.028c0.005,0,0.024-0.006,0.05-0.013   c3.357,1.572,6.788,3.118,10.109,4.613c1.646,0.742,3.293,1.484,4.937,2.23c3.092,1.402,6.184,2.816,9.263,4.243   c0.543,0.251,1.234,0.516,2.034,0.823c1.408,0.541,3.051,1.172,4.425,1.939c-0.089,0.006-0.178,0.014-0.266,0.024   c-1.959,0.245-3.537,1.517-4.02,3.241c-0.184,0.665-0.202,1.418-0.053,2.146c-0.025,0.054-0.044,0.111-0.056,0.171   c-0.041,0.209,0.015,0.427,0.148,0.592c0.078,0.102,0.165,0.192,0.252,0.281l0.024,0.025c0.157,0.323,0.348,0.61,0.566,0.858   c-4.249-0.974-8.382-2.824-12.401-4.624c-1.289-0.578-2.566-1.149-3.836-1.687l-2.489-1.058c-1.473-0.627-2.96-1.258-4.456-1.89   c-0.481-0.203-0.965-0.403-1.448-0.605c-1.06-0.445-2.121-0.889-3.189-1.328c-0.119-0.049-0.236-0.099-0.356-0.148   c0.699,0.207,1.4,0.425,2.104,0.645c1.991,0.622,4.049,1.265,6.111,1.653c0.031,0.006,0.128,0.015,0.158,0.015   c0.376,0,0.685-0.258,0.752-0.626c0.016-0.085,0.014-0.168,0.002-0.249c-0.004-0.026-0.012-0.049-0.019-0.075   c-0.009-0.034-0.012-0.07-0.026-0.102c0.332,0.103,0.665,0.201,0.997,0.291c0.043,0.012,0.165,0.028,0.209,0.028   c0.389,0,0.731-0.289,0.814-0.686c0.076-0.368-0.102-0.716-0.449-0.866c-1.756-0.751-3.642-1.31-5.466-1.85   c-0.528-0.156-1.053-0.313-1.57-0.471c-0.048-0.014-0.163-0.033-0.213-0.033c-0.326,0-0.597,0.23-0.659,0.559   c-0.016,0.086-0.017,0.17-0.004,0.251c0.039,0.243,0.201,0.45,0.443,0.544c0.496,0.193,0.996,0.394,1.498,0.596   c-0.11-0.028-0.218-0.054-0.327-0.082c-0.594-0.151-1.188-0.299-1.775-0.443c-0.781-0.19-1.56-0.381-2.333-0.584   c-0.04-0.01-0.15-0.023-0.19-0.023c-0.37,0-0.677,0.272-0.73,0.648c-0.012,0.085-0.006,0.167,0.008,0.247   c0.004,0.023,0.012,0.043,0.018,0.065c0.016,0.056,0.037,0.108,0.065,0.158c0.012,0.021,0.023,0.042,0.037,0.062   c0.037,0.052,0.081,0.099,0.132,0.14c0.011,0.009,0.019,0.02,0.031,0.029c0.003,0.002,0.004,0.005,0.007,0.007   c-0.726-0.297-1.456-0.587-2.184-0.88c-0.478-0.192-0.953-0.387-1.432-0.577c-1.418-0.562-2.838-1.115-4.26-1.648   C6.916,75,6.945,72.907,8.157,71.438z M44.598,25.085c-0.013-0.409,0.002-0.806,0.046-1.198c0.06,0.014,0.122,0.02,0.185,0.02   c0,0,0,0,0.001,0c0.042,0,0.08-0.016,0.121-0.022c0.024-0.004,0.047-0.006,0.07-0.012c0.125-0.03,0.244-0.079,0.34-0.164   c0.165-0.148,0.256-0.357,0.256-0.585c0.012-1.297,0.684-2.413,1.892-3.141c0.351-0.21,0.508-0.595,0.402-0.981   c-0.15-0.541-0.785-0.825-1.284-0.567c-0.179,0.092-0.351,0.195-0.515,0.31c-0.288-0.376-0.881-0.429-1.219-0.07   c-0.152,0.162-0.293,0.333-0.423,0.508c0.094-0.331,0.209-0.659,0.317-0.988c0.079-0.241,0.147-0.483,0.234-0.723   c0.122-0.335,0.27-0.663,0.409-0.994c0.102-0.243,0.19-0.489,0.301-0.728c0.156-0.335,0.342-0.658,0.519-0.986   c0.121-0.225,0.226-0.457,0.358-0.677c0.322-0.54,0.674-1.067,1.061-1.574c2.151-2.823,5.025-4.196,8.785-4.196   c1.861,0,3.987,0.335,6.501,1.024l2.234,0.608c8.091,2.19,17.2,4.656,24.006,9.629c-0.062,0.007-0.12,0.015-0.172,0.025   c-5.496,0.133-9.704,4.302-12.506,12.39c-3.035,8.754-3.809,17.637-4.192,25.931c-0.382,8.193-0.815,17.479-5.87,25.142   c-0.182,0.276-0.374,0.553-0.577,0.828c-3.034,4.132-8.297,8.052-13.859,8.052c-0.876,0-1.731-0.099-2.558-0.298   c0.097-0.021,0.188-0.061,0.269-0.115c2.231-1.448,3.202-3.065,2.821-4.691c0.145-0.228,0.197-0.503,0.139-0.779   c-0.472-2.441-2.699-3.407-4.664-4.259c-0.317-0.138-0.631-0.273-0.93-0.413c-1.812-0.846-3.622-1.688-5.436-2.526   c0.364,0.143,0.728,0.285,1.103,0.436c1.783,0.72,3.627,1.462,5.437,1.77c0.027,0.005,0.1,0.011,0.127,0.011   c0.354,0,0.672-0.249,0.758-0.592c0.019-0.075,0.023-0.149,0.018-0.223c-0.002-0.023-0.008-0.045-0.012-0.068   c-0.005-0.031-0.007-0.062-0.016-0.092c0.174,0.096,0.353,0.191,0.523,0.287c0.129,0.074,0.267,0.111,0.407,0.111   c0.338,0,0.638-0.224,0.748-0.558c0.114-0.349-0.005-0.716-0.303-0.935c-1.476-1.076-3.456-1.896-5.574-2.31   c-0.031-0.006-0.118-0.014-0.149-0.014c-0.375,0-0.684,0.273-0.735,0.649c-0.011,0.084-0.005,0.165,0.01,0.243   c0.005,0.025,0.015,0.048,0.023,0.072c0.016,0.051,0.036,0.1,0.063,0.146c0.014,0.024,0.03,0.046,0.047,0.068   c0.032,0.042,0.068,0.078,0.109,0.113c0.02,0.017,0.039,0.035,0.061,0.049c0.011,0.007,0.019,0.018,0.03,0.024   c-0.349-0.099-0.696-0.195-1.042-0.291c-0.557-0.154-1.106-0.305-1.629-0.461c-0.047-0.014-0.174-0.035-0.224-0.035   c-0.345,0-0.631,0.244-0.694,0.594c-0.022,0.121-0.005,0.236,0.027,0.345c0.008,0.027,0.017,0.052,0.028,0.078   c0.042,0.1,0.099,0.192,0.181,0.265c0.003,0.002,0.003,0.007,0.006,0.009c-1.628-0.751-3.258-1.497-4.892-2.24   c-5.64-2.57-10.781-4.893-16.08-7.083c6.61-2.368,12.636-7.217,16.685-13.469c4.786-7.41,5.438-15.894,6.069-24.1   c0.141-1.838,0.287-3.739,0.477-5.603c0.017-0.169,0.041-0.351,0.06-0.523c0.009,0.012,0.024,0.017,0.034,0.028   c0.053,0.062,0.115,0.113,0.188,0.153c0.002,0.001,0.004,0.002,0.006,0.003c0.099,0.053,0.209,0.091,0.332,0.091   c0.204,0,0.4-0.081,0.538-0.223C44.534,25.452,44.603,25.274,44.598,25.085z M44.498,21.257c0.083-0.234,0.178-0.459,0.283-0.673   c0.042,0.096,0.113,0.179,0.211,0.234c0.077,0.045,0.142,0.056,0.25,0.065c-0.091,0.156-0.172,0.315-0.243,0.479   c-0.052-0.049-0.116-0.087-0.188-0.11c-0.049-0.015-0.099-0.022-0.148-0.022C44.606,21.229,44.55,21.238,44.498,21.257z    M48.509,91.106c0.051,0.133,0.133,0.25,0.234,0.341c-0.642-0.203-1.267-0.468-1.872-0.794c-0.043-0.059-0.093-0.113-0.145-0.158   c-0.204-0.185-0.38-0.391-0.526-0.61c-0.292-0.438-0.462-0.927-0.49-1.409c-0.014-0.241,0.008-0.479,0.068-0.708   c0.213-0.815,0.866-1.385,1.836-1.604c1.036-0.236,2.642,0.099,2.943,1.176c0.275,0.989-0.776,1.924-1.619,2.676l-0.225,0.202   C48.463,90.444,48.384,90.785,48.509,91.106z M44.567,87.479c0.369-1.317,1.652-2.332,3.188-2.525   c0.643-0.073,1.348,0.014,1.989,0.25c0.056,0.02,0.114,0.03,0.171,0.03c0,0,0,0,0,0c0.007-0.001,0.014-0.001,0.019,0   c0.041,0,0.077-0.014,0.115-0.023c0.011-0.003,0.022-0.003,0.033-0.007c0.2-0.064,0.347-0.244,0.347-0.465   c0-0.143-0.072-0.259-0.169-0.349c-0.006-0.006-0.009-0.014-0.016-0.02c-0.013-0.011-0.028-0.022-0.041-0.033   c-0.014-0.009-0.021-0.026-0.036-0.034c-0.04-0.035-0.088-0.067-0.13-0.101c-0.141-0.117-0.287-0.233-0.441-0.344   c-0.075-0.055-0.153-0.108-0.231-0.161c-0.143-0.098-0.29-0.194-0.442-0.288c-0.083-0.051-0.165-0.103-0.25-0.153   c-0.17-0.1-0.345-0.197-0.522-0.293c-0.067-0.036-0.132-0.073-0.199-0.109c-0.017-0.009-0.033-0.018-0.05-0.027   c0.053,0.023,0.107,0.047,0.16,0.07c0.112,0.049,0.224,0.099,0.335,0.15c0.118,0.054,0.234,0.11,0.351,0.165   c0.107,0.051,0.214,0.103,0.319,0.156c0.112,0.057,0.22,0.118,0.328,0.178c0.1,0.055,0.2,0.11,0.296,0.168   c0.106,0.064,0.206,0.134,0.307,0.203c0.089,0.061,0.181,0.12,0.265,0.185c0.099,0.075,0.188,0.159,0.279,0.24   c0.075,0.067,0.154,0.131,0.224,0.202c0.089,0.092,0.165,0.194,0.245,0.294c0.058,0.072,0.121,0.14,0.173,0.217   c0.08,0.119,0.142,0.252,0.207,0.383c0.035,0.071,0.079,0.134,0.109,0.209c0.086,0.213,0.153,0.44,0.195,0.686   c-0.119,0.094-0.188,0.237-0.188,0.388c0,0.068,0.017,0.142,0.045,0.208c0.125,0.416,0.108,0.819-0.008,1.202   c0.07-0.333,0.069-0.686-0.035-1.056c-0.407-1.455-1.985-1.971-3.214-1.971c-0.315,0-0.617,0.032-0.899,0.096   c-1.329,0.301-2.268,1.147-2.576,2.317c-0.042,0.16-0.071,0.321-0.088,0.484c-0.005,0.051-0.002,0.102-0.005,0.152   c-0.007,0.112-0.015,0.225-0.01,0.338c0.003,0.062,0.014,0.123,0.02,0.185c0.01,0.102,0.017,0.204,0.035,0.305   c0.012,0.067,0.034,0.133,0.05,0.2c0.023,0.095,0.043,0.19,0.074,0.283c0.023,0.071,0.056,0.139,0.083,0.209   c0.035,0.087,0.066,0.175,0.107,0.261c0.035,0.073,0.08,0.144,0.12,0.216c0.044,0.079,0.085,0.159,0.135,0.236   c0.048,0.074,0.104,0.143,0.157,0.215c0.053,0.071,0.102,0.143,0.16,0.212c0.061,0.073,0.131,0.141,0.198,0.211   c0.051,0.053,0.096,0.109,0.15,0.16c-0.008,0.001-0.015,0.002-0.023,0.003c-0.637-0.274-1.002-0.831-1.196-1.249   c-0.022-0.048-0.052-0.093-0.089-0.131l-0.087-0.09c-0.018-0.019-0.037-0.038-0.055-0.057c0.036-0.094,0.043-0.199,0.017-0.301   C44.411,88.718,44.408,88.052,44.567,87.479z M21.057,70.745c0.624,0.262,1.25,0.52,1.873,0.786   c0.848,0.363,1.698,0.736,2.547,1.107c0.538,0.235,1.074,0.465,1.615,0.704c1.001,0.442,2.016,0.898,3.032,1.355   c0.401,0.18,0.794,0.354,1.199,0.536c1.428,0.645,2.877,1.303,4.362,1.98c3.277,1.489,6.536,3,9.795,4.519   c-0.567-0.23-1.125-0.444-1.652-0.646c-0.782-0.3-1.459-0.56-1.972-0.798c-3.081-1.428-6.175-2.844-9.27-4.245   c-1.645-0.748-3.292-1.489-4.94-2.232c-1.536-0.692-3.099-1.397-4.664-2.108c-0.425-0.193-0.85-0.39-1.276-0.584   c-0.788-0.36-1.571-0.723-2.356-1.086C19.922,70.268,20.49,70.507,21.057,70.745z M82.211,25.887   c0.786-0.976,1.613-1.751,2.508-2.356c0.466,0.285,0.985,0.52,1.539,0.695c-0.574,0.655-0.881,1.512-0.837,2.383   C84.244,26.324,83.197,26.089,82.211,25.887z M91.973,28.58c-0.642,0.439-1.454,0.681-2.284,0.681   c-1.082,0-2.042-0.401-2.634-1.098c-0.065-0.077-0.152-0.132-0.249-0.158c-0.473-0.126-0.921-0.248-1.35-0.366   c0.157,0.038,0.303,0.073,0.465,0.113c0.04,0.01,0.08,0.014,0.12,0.014c0.008,0,0.015,0,0.019,0c0.032,0,0.06-0.012,0.09-0.018   c0.012-0.003,0.024-0.004,0.036-0.007c0.211-0.057,0.369-0.24,0.369-0.469c0-0.047-0.024-0.084-0.036-0.126v0   c-0.001-0.003-0.028-0.1-0.029-0.104c-0.015-0.053-0.032-0.108-0.043-0.165c-0.183-0.945,0.278-1.961,1.12-2.472   c0.175-0.107,0.267-0.311,0.23-0.513c-0.009-0.047-0.024-0.092-0.045-0.133c0.022,0.005,0.043,0.007,0.065,0.012   c0.286,0.068,0.571,0.124,0.86,0.164c0.067,0.118,0.181,0.205,0.315,0.238c0.179,0.043,0.357,0.118,0.528,0.264   c-1.117-0.377-2.09,0.005-2.512,0.928c-0.391,0.854-0.219,1.933,0.429,2.684c0.035,0.04,0.08,0.075,0.129,0.103   c0.047,0.027,0.097,0.047,0.146,0.06c0.153,0.037,0.307,0.073,0.455,0.101c0,0.205,0.127,0.388,0.318,0.462   c0.144,0.055,0.296,0.109,0.448,0.14c0.244,0.052,0.494,0.078,0.741,0.078c1.619,0,3.18-1.165,3.796-2.834   c0.907-2.477-0.619-4.58-2.595-5.38c-0.223-0.09-0.473-0.009-0.602,0.192c-0.015,0.022-0.026,0.019-0.122,0.042   c-1.722-0.059-3.287,0.28-4.734,0.985c-0.17,0.083-0.277,0.256-0.277,0.445c0,0.072,0.019,0.142,0.049,0.206   c-0.062-0.039-0.129-0.073-0.188-0.114c-0.163-0.114-0.376-0.118-0.545-0.012c-1.289,0.811-2.44,1.925-3.519,3.404   c-0.046,0.063-0.07,0.135-0.083,0.209c-0.004,0.023-0.001,0.046-0.002,0.069c-0.001,0.033-0.008,0.066-0.002,0.099   c-0.13,0.022-0.249,0.097-0.326,0.213c-4.04,6.064-5.332,15.853-5.884,20.032c-0.472,3.597-0.642,7.289-0.808,10.858   c-0.263,5.692-0.535,11.577-2.042,17.167c-1.995,7.389-6.198,13.361-11.533,16.382c-2.72,1.537-5.9,2.29-8.851,2.051   c-0.112-0.013-0.308,0.057-0.406,0.13c-6.229,0.467-12.103-2.133-17.77-4.635c-0.901-0.398-1.799-0.794-2.692-1.176l-4.077-1.735   c-4.882-2.074-9.891-4.203-14.817-6.461c0.047,0.018,0.093,0.036,0.14,0.054c2.087,0.825,4.166,1.678,6.234,2.539   c0.539,0.224,1.077,0.449,1.614,0.674c1.931,0.81,3.857,1.625,5.752,2.431l2.49,1.058c1.263,0.536,2.536,1.106,3.817,1.68   c4.888,2.189,9.94,4.451,15.236,5.173c0.022,0.003,0.044,0.005,0.067,0.005c0.011,0,0.019-0.009,0.029-0.009   c0.088-0.006,0.172-0.03,0.244-0.078c0.012-0.008,0.021-0.019,0.032-0.028c0.072-0.057,0.133-0.13,0.164-0.223   c0.021-0.062,0.026-0.125,0.022-0.188c-0.001-0.019-0.008-0.036-0.011-0.055c-0.008-0.042-0.018-0.083-0.036-0.122   c-0.003-0.007-0.003-0.016-0.007-0.023c0.039,0.016,0.08,0.027,0.119,0.043c0.117,0.048,0.237,0.085,0.356,0.129   c0.309,0.115,0.62,0.218,0.937,0.306c0.15,0.042,0.3,0.079,0.451,0.114c0.308,0.072,0.62,0.13,0.935,0.178   c0.14,0.021,0.279,0.046,0.42,0.062c0.451,0.051,0.905,0.084,1.368,0.084c0.001,0,0.002,0,0.004,0h0.001   c5.514,0,10.723-3.586,13.987-7.591c0.466-0.572,0.893-1.153,1.275-1.733c5.204-7.89,5.663-17.731,6.031-25.64   c0.381-8.221,1.146-17.018,4.14-25.653c2.652-7.658,6.554-11.604,11.661-11.731c0.5-0.081,1.004-0.063,1.529,0.043   c0.037,0.008,0.082,0.008,0.108,0.01c0.011,0,0.02-0.005,0.03-0.006c0.027-0.002,0.052-0.008,0.077-0.015   c0.238-0.048,0.396-0.234,0.396-0.474c0-0.04-0.022-0.071-0.031-0.108c0-0.002-0.001-0.003-0.001-0.004   c-0.024-0.098-0.072-0.178-0.145-0.243c-0.009-0.009-0.015-0.02-0.025-0.028c-0.015-0.012-0.031-0.023-0.045-0.035   c-0.011-0.007-0.017-0.02-0.029-0.026c-0.248-0.201-0.508-0.389-0.763-0.582c-0.185-0.14-0.366-0.287-0.554-0.423   c-0.264-0.191-0.537-0.371-0.806-0.555c-0.204-0.139-0.404-0.283-0.611-0.418c-0.261-0.17-0.531-0.33-0.797-0.494   c-0.225-0.138-0.446-0.281-0.674-0.415c-0.251-0.147-0.508-0.285-0.763-0.427c-0.252-0.141-0.501-0.286-0.757-0.422   c-0.235-0.125-0.477-0.242-0.715-0.364c-0.281-0.143-0.56-0.29-0.845-0.429c-0.223-0.108-0.45-0.209-0.675-0.314   c-0.306-0.143-0.611-0.289-0.92-0.427c-0.198-0.088-0.399-0.169-0.598-0.255c-0.343-0.148-0.685-0.297-1.031-0.439   c-0.151-0.062-0.305-0.119-0.457-0.18c-0.397-0.159-0.794-0.318-1.194-0.469c-0.103-0.039-0.208-0.075-0.312-0.114   c-0.452-0.169-0.905-0.336-1.361-0.496c-0.006-0.002-0.012-0.004-0.018-0.006c-3.896-1.371-7.896-2.454-11.678-3.478l-2.231-0.607   c-2.598-0.712-4.81-1.059-6.761-1.059c-4.09,0-7.221,1.5-9.571,4.585c-3.265,4.278-4.184,9.753-4.619,14.044   c-0.192,1.876-0.338,3.783-0.48,5.628c-0.65,8.455-1.263,16.44-5.913,23.638c-4.183,6.458-10.533,11.374-17.42,13.484   c-0.2,0.062-0.34,0.242-0.349,0.451c-0.005,0.094,0.025,0.179,0.069,0.257c0.01,0.019,0.02,0.034,0.033,0.052   c0.012,0.016,0.018,0.035,0.032,0.05c-0.281-0.131-0.566-0.259-0.846-0.39c-0.094-0.044-0.198-0.058-0.302-0.038   c-0.05,0.01-0.1,0.024-0.177,0.087c-0.005-0.055-0.017-0.107-0.039-0.156c0.018,0.007,0.036,0.014,0.053,0.021   c0.115,0.045,0.241,0.046,0.354,0.004c10.947-4.067,18.927-12.225,21.896-22.38c1.32-4.528,1.615-9.341,1.9-13.996   c0.369-6.008,0.75-12.22,3.37-17.743c1.248-2.63,3.553-6.06,7.446-7.461c1.232-0.441,2.537-0.657,3.99-0.657   c3.049,0,6.136,0.952,9.123,1.874l1.102,0.338c0.936,0.284,1.887,0.565,2.847,0.85c8.913,2.641,18.128,5.371,24.475,11.944   c-0.176,0.164-0.165,0.497-0.034,0.699c0.074,0.112,0.148,0.223,0.212,0.352C94.549,24.75,93.816,27.314,91.973,28.58z    M90.208,23.659c-0.25-0.172-0.511-0.302-0.779-0.39c-0.133-0.164-0.326-0.275-0.549-0.305c-0.656-0.085-1.292-0.247-1.979-0.509   c0.915-0.305,1.885-0.459,2.897-0.459l0.376,0.006c0.231,0,0.439-0.061,0.614-0.177c1.358,0.676,2.425,2.147,1.75,3.992   c-0.477,1.291-1.63,2.189-2.873,2.186c-0.177,0-0.357-0.019-0.536-0.058c-0.016-0.004-0.033-0.007-0.048-0.011   c-0.11-0.273-0.341-0.479-0.644-0.559c-0.113-0.032-0.227-0.061-0.345-0.09c-0.352-0.495-0.367-1.118-0.187-1.509   c0.103-0.227,0.324-0.498,0.779-0.498c0.201,0,0.428,0.052,0.678,0.155c0.517,0.212,1.064-0.066,1.23-0.603   C90.731,24.38,90.576,23.908,90.208,23.659z"></path><path d="M75.978,16.229c2.253,0.023,4.288,0.597,6.6,1.86c0.116,0.064,0.241,0.097,0.368,0.097c0.339,0,0.641-0.236,0.736-0.572   c0.094-0.335-0.04-0.67-0.34-0.854c-2.008-1.229-4.467-1.878-7.11-1.878l-0.249,0.002c-0.374,0-0.666,0.296-0.666,0.672   C75.317,15.934,75.609,16.229,75.978,16.229z"></path><path d="M82.795,18.442c-1.772-0.651-3.613-1.242-5.247-1.766c-0.046-0.014-0.184-0.036-0.234-0.036   c-0.357,0-0.656,0.253-0.725,0.614c-0.074,0.382,0.127,0.749,0.49,0.894c1.597,0.629,3.406,1.342,5.186,1.949   c0.096,0.033,0.192,0.049,0.288,0.049c0.4,0,0.732-0.292,0.807-0.709C83.436,19.002,83.204,18.593,82.795,18.442z"></path><path d="M47.677,32.035l3.529,1.244c6.372,2.252,12.961,4.579,19.493,6.452c0.083,0.024,0.168,0.036,0.252,0.036   c0.448,0,0.844-0.339,0.941-0.806c0.088-0.425-0.117-0.826-0.513-0.997c-6.063-2.588-12.588-4.532-19.004-6.348   c-0.917-0.26-1.831-0.516-2.741-0.772l-1.483-0.416c-0.121-0.035-0.24-0.041-0.353-0.024c-0.339,0.052-0.617,0.318-0.678,0.684   C47.048,31.506,47.278,31.896,47.677,32.035z M70.325,38.594c-5.999-1.746-12.051-3.868-17.928-5.943   C58.454,34.369,64.597,36.206,70.325,38.594z"></path><path d="M49.439,23.744c6.439,2.51,13.414,4.982,21.324,7.558c0.109,0.036,0.219,0.053,0.326,0.053   c0.467,0,0.853-0.339,0.939-0.825c0.092-0.511-0.183-0.992-0.666-1.17c-7.758-2.834-14.765-5.188-21.419-7.195   c-0.472-0.148-0.945,0.146-1.034,0.625C48.833,23.203,49.052,23.595,49.439,23.744z M71.052,30.355L71.052,30.355   c-5.975-1.945-11.415-3.831-16.492-5.72C59.731,26.286,65.164,28.163,71.052,30.355z"></path><path d="M71.018,58.044c-9.905-3.722-18.631-6.728-26.678-9.192c-0.457-0.141-0.911,0.143-0.997,0.602   c-0.073,0.396,0.135,0.774,0.503,0.917c7.76,3.125,16.448,6.273,26.559,9.625c0.112,0.037,0.225,0.056,0.335,0.056   c0.468,0,0.855-0.34,0.943-0.826c0.023-0.128,0.024-0.255,0.004-0.376C71.627,58.488,71.381,58.18,71.018,58.044z M56.945,54.299   c-0.05-0.018-0.101-0.036-0.151-0.054c-0.76-0.275-1.507-0.549-2.249-0.822c-0.105-0.039-0.213-0.078-0.318-0.116   c-0.403-0.149-0.796-0.297-1.194-0.445c-1.27-0.473-2.524-0.945-3.746-1.415c6.56,2.122,13.607,4.602,21.383,7.523   c0,0,0.012,0.046,0.02,0.079C65.792,57.424,61.23,55.848,56.945,54.299z"></path><path d="M43.631,39.7c-0.078,0.393,0.125,0.775,0.491,0.927c6.687,2.813,13.686,5.273,20.454,7.651l2.224,0.781   c0.115,0.042,0.231,0.063,0.345,0.063c0.451,0,0.827-0.331,0.914-0.806c0.093-0.506-0.172-0.985-0.648-1.166l-2.372-0.885   c-6.659-2.487-13.545-5.059-20.415-7.155C44.173,38.974,43.721,39.25,43.631,39.7z M53.068,42.94   c3.916,1.374,7.807,2.828,11.622,4.253l0.017,0.006l1.385,0.564l-1.188-0.418c-5.2-1.828-10.538-3.703-15.759-5.749   C50.455,42.033,51.763,42.482,53.068,42.94z"></path><path d="M40.855,59.055c2.3,0.867,4.598,1.751,6.898,2.636c5.911,2.272,12.024,4.622,18.104,6.674   c0.111,0.039,0.223,0.058,0.333,0.058c0.442,0,0.811-0.322,0.897-0.782c0.023-0.124,0.024-0.246,0.005-0.363   c-0.056-0.35-0.289-0.648-0.635-0.781c-5.957-2.349-12.121-4.486-18.084-6.552c-2.339-0.811-4.678-1.622-7.005-2.445   c-0.118-0.043-0.237-0.056-0.35-0.045c-0.339,0.034-0.627,0.292-0.692,0.656C40.252,58.524,40.47,58.911,40.855,59.055z    M64.759,66.938c-0.136-0.047-0.271-0.094-0.406-0.141c-1.951-0.676-3.904-1.373-5.85-2.091c-0.244-0.09-0.486-0.181-0.729-0.272   c-2-0.742-3.996-1.495-5.972-2.25c-0.014-0.006-0.029-0.011-0.044-0.017C56.081,63.677,60.464,65.244,64.759,66.938z"></path><path d="M61.525,73.642l-4.061-1.384c-2.299-0.784-4.627-1.577-6.965-2.369c-5.203-1.764-10.474-3.529-15.717-5.202   c-0.046-0.014-0.189-0.036-0.239-0.036c-0.373,0-0.68,0.266-0.746,0.646c-0.069,0.392,0.143,0.76,0.512,0.893   c6.528,2.412,13.185,4.735,19.708,6.995c1.035,0.359,2.076,0.72,3.102,1.075l3.806,1.318c0.113,0.04,0.228,0.06,0.34,0.06   c0.474,0,0.863-0.35,0.943-0.85C62.291,74.273,62.008,73.802,61.525,73.642z M57.444,73.325c-0.866-0.299-1.744-0.604-2.616-0.906   c-0.836-0.29-1.667-0.577-2.508-0.869c1.617,0.55,3.226,1.099,4.824,1.644l1.768,0.64L57.444,73.325z"></path></g></svg>