<svg xmlns="http://www.w3.org/2000/svg" xmlns:xlink="http://www.w3.org/1999/xlink" version="1.1" x="0px" y="0px" viewBox="0 0 90 90" style="enable-background:new 0 0 90 90;" xml:space="preserve"><style type="text/css">
	.st0{fill:#010102;}
	.st1{fill-rule:evenodd;clip-rule:evenodd;}
</style><g><path d="M89.8,53.3c-0.7-4.4-3.1-7.9-7.3-10.3c-3.1-1.8-7-2.5-11.6-2.2c-3.7,0.3-7.9,1.2-12.4,2.7c-1,0.3-2,0.7-2.9,1.1   c-1.2-1-3.8-1.8-4.9-2.2c0.3-0.3,0.5-0.6,0.7-0.9c0.8-1,2.1-2.4,3.7-3.9c3.7-3.7,8.2-8.3,9.1-11.9c1.3-5.1,1.9-11.7-2.4-14.7   c-1.8-1.2-4.4-2.9-7.2-3.9c-2.3-0.8-4.5-1-6.4-0.6l0.1-0.2c-0.1,0-2.9-1.2-4.9-0.1c-1,0.5-1.6,1.5-1.9,3c-0.3,0.3-1.3,1.1-1.1,2.7   c-0.1,0.2-0.4,0.7-0.5,1.3c-0.2,1,0.1,1.9,0.8,2.5c-0.1,0.4-0.1,1-0.1,1.5l-0.1,0.1c0,0,0,0,0,0l-2.5,2c-0.1,0.1-0.1,0.2,0,0.3   c0,0,0.1,0.1,0.1,0.1c0,0,0.1,0,0.1,0l1.8-1.4c-0.4,0.8-1,1.7-1,1.9c0,0.1,0,0.2,0.1,0.2c0,0,0,0,0.1,0c0.1,0,0.1,0,0.2-0.1   c0.1-0.2,0.8-1.5,1.4-2.5c0.1,1.3,0.4,2.8,0.7,4.3c0.4,2.1,0.9,4.3,0.8,5.9c-0.2,3.3-2.1,11.4-2.3,12.2c0-0.1-0.1-0.1-0.2-0.1   c-2.5-0.2-5.1-0.4-7.8-0.4c-8.7,0-16.7,1.8-22.6,5.1c-5.9,3.3-9.1,7.9-9.2,12.9C0,58-0.3,60,1.2,61.9c1.7,2.3,5.2,3.5,10.3,3.6   c0.7,0,1.5,0,2.2,0c9.8,0,16.4-1.9,18.2-2.4c-0.1,3.2,0.3,6.6,1.9,9.8c1.9,4,5.9,7.2,11.1,9.2c3.7,1.4,7.8,2.1,12.3,2.1   c2.2,0,4.5-0.2,6.9-0.5c12.9-1.9,19.5-11.6,21.7-14.8c0.3-0.4,0.5-0.8,0.6-0.9c0.4-0.4,1.5-2.4,2.4-5C89.5,60.6,90.4,57,89.8,53.3z    M47.7,46.2c0.4,0.1,1.6,0.3,2.6,0.7c-2.1,1-3.7,1.8-4.7,2.4C46.3,48.1,47,47.1,47.7,46.2z M51,46.5c-1-0.5-2.2-0.8-2.9-0.9   c0.8-1,1.5-1.9,2.1-2.7c0.7,0.2,3.3,1,4.6,1.9C53.5,45.4,52.2,46,51,46.5z M63.1,26.9c0,0-0.1,0-0.2-0.1c-0.1-0.2-0.2-0.7,0.3-2   c0.4-1,0.6-1.1,0.7-1.1c0.1,0,0.1,0.1,0.1,0.1c-0.1,0.6-0.2,1.2-0.4,1.8C63.5,26,63.3,26.4,63.1,26.9z M62.9,12.9   c0.7,1,1.3,2.4,1.5,4.3c-0.6-0.2-1.6-0.8-1.7-1.5c0-0.1,0-0.3,0-0.4C62.7,14.4,62.5,13.2,62.9,12.9C62.9,12.9,62.9,12.9,62.9,12.9z    M64.2,22.8c-0.3-0.5-0.6-1.2-0.8-1.6c-0.2-0.7-0.1-1.9,0.3-2.8c0.1-0.2,0.2-0.3,0.3-0.3c0,0,0,0,0,0c0.2,0,0.4,0.2,0.6,0.4   C64.6,19.8,64.5,21.2,64.2,22.8z M41.9,9.7C41.9,9.6,42,9.6,41.9,9.7c0.4-0.1,0.9,0,1.2,0.4l0.1-0.1c-0.3-0.4-0.8-0.5-1.2-0.6   c0.1-0.9,0.4-1.5,0.8-2c0.5,0.1,1.5,0.3,1.7,0.8c0,0.1-0.2,1-0.8,1.7c-0.1,0.1-1.3,0.7-1.6,1.3c-0.4-0.1-1,0.3-1.2,0.6   C40.9,10.3,41.8,9.7,41.9,9.7z M44.9,11.7c0,0.3-0.2,0.5-0.3,0.6c-0.2-0.1-0.4-0.1-0.6-0.2c-0.3-0.1-0.5,0-0.8,0.1   c-0.1-0.2-0.6-0.7-1-0.9c0.2-0.4,0.9-0.9,1.3-1.1C44.7,10.8,44.9,11.4,44.9,11.7z M40.9,12.2c0-0.1,0-0.1,0-0.2c0,0,0,0,0-0.1   c0.3-0.3,0.9-0.7,1.2-0.6c0.4,0.2,0.9,0.7,1,0.9c-0.1,0.1-0.2,0.2-0.3,0.3l-0.8,1.1l-1.3-1.2C40.8,12.3,40.9,12.2,40.9,12.2z    M55.4,14c3,2.2,1.8,8.1-0.8,14.7c0,0-0.1,0-0.1,0c-0.3,0-0.7,0-1.2,0c-0.2,0-0.5,0-0.8,0c-0.3,0-0.6,0-0.9,0c-0.3,0-0.6,0-0.9-0.1   c-0.3,0-0.6-0.1-1-0.1c-0.3,0-0.6-0.1-1-0.1c-0.3-0.1-0.6-0.1-0.9-0.2c-0.3-0.1-0.6-0.1-0.8-0.2c-0.1,0-0.3-0.1-0.4-0.1   c-0.1,0-0.2-0.1-0.3-0.1c-0.1,0-0.2-0.1-0.3-0.1c0,0-0.1,0-0.1-0.1c0,0-0.1-0.1-0.1-0.1c-0.2-0.1-0.3-0.2-0.4-0.3   c0,0-0.1,0-0.1-0.1c0.2-0.7,0.4-1.3,0.5-1.9c0,0,0.1,0,0.1,0.1c0.1,0.1,0.3,0.1,0.5,0.2c0.2,0.1,0.4,0.2,0.6,0.2   c0.2,0.1,0.5,0.2,0.7,0.3c0.1,0,0.3,0.1,0.4,0.1c0.1,0,0.3,0.1,0.4,0.1c0.3,0.1,0.6,0.1,0.9,0.2c0.3,0.1,0.6,0.1,0.9,0.2   c0.3,0,0.6,0.1,0.9,0.1c0.3,0,0.6,0.1,0.9,0.1c0.3,0,0.6,0,0.9,0.1c0.3,0,0.5,0,0.8,0c0.2,0,0.5,0,0.6,0c0.2,0,0.4,0,0.5,0   c0.3,0,0.4,0,0.4,0s-0.2,0-0.4,0c-0.1,0-0.3,0-0.5,0c-0.2,0-0.4,0-0.6,0c-0.2,0-0.5,0-0.8-0.1c-0.3,0-0.6-0.1-0.8-0.1   c-0.3,0-0.6-0.1-0.9-0.1c-0.3,0-0.6-0.1-0.9-0.1c-0.3-0.1-0.6-0.1-0.9-0.2c-0.3-0.1-0.6-0.1-0.9-0.2c-0.1,0-0.3-0.1-0.4-0.1   c-0.1,0-0.3-0.1-0.4-0.1c-0.1,0-0.3-0.1-0.4-0.1c-0.1,0-0.2-0.1-0.4-0.1c-0.2-0.1-0.4-0.1-0.6-0.2c-0.2-0.1-0.3-0.1-0.5-0.2   c0,0-0.1,0-0.1-0.1c0.2-0.6,0.3-1.2,0.4-1.8c0,0,0.1,0,0.1,0c0.1,0,0.3,0.1,0.5,0.2c0.2,0.1,0.4,0.1,0.6,0.2c0.4,0.1,1,0.3,1.5,0.4   c0.3,0.1,0.6,0.1,0.9,0.2c0.3,0.1,0.6,0.1,0.9,0.2c0.2,0,0.3,0,0.5,0.1c0.2,0,0.3,0,0.4,0.1c0.3,0,0.6,0.1,0.9,0.1   c0.1,0,0.3,0,0.4,0c0.1,0,0.3,0,0.4,0c0.1,0,0.3,0,0.4,0c0.1,0,0.2,0,0.4,0c0.2,0,0.4,0,0.6,0c0.2,0,0.3,0,0.5,0c0.3,0,0.4,0,0.4,0   s-0.2,0-0.4,0c-0.1,0-0.3,0-0.5,0c-0.2,0-0.4,0-0.6-0.1c-0.2,0-0.5,0-0.7-0.1c-0.3,0-0.5-0.1-0.8-0.1c-0.1,0-0.3,0-0.4-0.1   c-0.1,0-0.3,0-0.4-0.1c-0.1,0-0.3,0-0.4-0.1c-0.1,0-0.3-0.1-0.4-0.1c-0.3,0-0.6-0.1-0.9-0.2c-0.3-0.1-0.6-0.1-0.9-0.2   c-0.3-0.1-0.5-0.1-0.8-0.2c-0.3-0.1-0.5-0.1-0.7-0.2c-0.4-0.1-0.8-0.2-1.1-0.3c0,0-0.1,0-0.1,0c0.2-0.9,0.3-1.7,0.4-2.5   c0,0,0,0,0.1,0c0.3,0.1,0.6,0.2,1.1,0.3c0.2,0.1,0.5,0.1,0.7,0.2c0.3,0.1,0.5,0.1,0.8,0.2c0.3,0.1,0.6,0.1,0.9,0.2   c0.3,0.1,0.6,0.1,0.9,0.2c0.3,0,0.6,0.1,0.9,0.1c0.3,0,0.6,0.1,0.9,0.1c0.3,0,0.6,0,0.8,0.1c0.3,0,0.5,0,0.7,0c0.2,0,0.4,0,0.6,0   c0.2,0,0.4,0,0.5,0c0.3,0,0.4,0,0.4,0s-0.2,0-0.4,0c-0.1,0-0.3,0-0.5,0c-0.2,0-0.4,0-0.6-0.1c-0.2,0-0.5-0.1-0.7-0.1   c-0.3,0-0.5-0.1-0.8-0.1c-0.3,0-0.6-0.1-0.9-0.1c-0.3,0-0.6-0.1-0.9-0.1c-0.3,0-0.6-0.1-0.9-0.1c-0.3-0.1-0.6-0.1-0.9-0.2   c-0.3-0.1-0.6-0.1-0.8-0.1c-0.3,0-0.5-0.1-0.7-0.1c-0.5-0.1-0.8-0.2-1.1-0.2c0,0,0,0-0.1,0c0.1-0.6,0.1-1.1,0.1-1.6   c0.1,0,0.1,0,0.2,0c0.3,0,0.6,0,1.1,0.1c0.9,0.1,2.1,0.1,3.3,0.2c0.6,0,1.2,0.1,1.8,0.1c0.6,0,1.1,0.1,1.5,0.1c0.2,0,0.4,0,0.6,0   c0.2,0,0.3,0,0.5,0c0.3,0,0.4,0,0.4,0s-0.1,0-0.4-0.1c-0.3,0-0.6-0.1-1.1-0.2c-0.2,0-0.5-0.1-0.7-0.1c-0.3,0-0.5-0.1-0.8-0.1   c-0.6-0.1-1.2-0.1-1.8-0.1c-0.3,0-0.6,0-0.9,0c-0.3,0-0.6,0-0.9,0c-0.6,0-1.1,0-1.5,0c-0.5,0-0.8,0-1.1,0c-0.1,0-0.2,0-0.2,0   c0-0.6,0-1.2,0-1.8c0.1,0,0.2,0,0.3,0c0.3,0,0.6,0,1.1,0.1c0.9,0.1,2.1,0.1,3.3,0.2c0.6,0,1.2,0.1,1.8,0.1c0.6,0,1.1,0.1,1.5,0.1   c0.2,0,0.4,0,0.6,0c0.2,0,0.3,0,0.5,0c0.3,0,0.4,0,0.4,0s-0.1,0-0.4-0.1c-0.3,0-0.6-0.1-1.1-0.2c-0.2,0-0.5-0.1-0.7-0.1   c-0.3,0-0.5-0.1-0.8-0.1c-0.6-0.1-1.2-0.1-1.8-0.1c-0.3,0-0.6,0-0.9,0c-0.3,0-0.6,0-0.9,0c-0.6,0-1.1,0-1.5,0c-0.5,0-0.8,0-1.1,0   c-0.1,0-0.2,0-0.3,0c0-0.3-0.1-0.6-0.1-0.8c0.7-0.1,1.3-0.3,1.7-0.5c0.3-0.1,1-0.4,2-0.7c0.2,0,0.5,0,0.9,0.1c0.3,0,0.6,0,1,0   c0.2,0,0.4,0,0.6,0c0.2,0,0.4,0,0.6,0c0.2,0,0.4,0,0.6,0c0.2,0,0.4,0,0.6,0c0.4,0,0.7,0,1,0c0.6,0,1-0.1,1-0.1s-0.4,0-1-0.1   c-0.3,0-0.6,0-1,0c-0.2,0-0.4,0-0.6,0c-0.2,0-0.4,0-0.6,0c-0.2,0-0.4,0-0.6,0c-0.2,0-0.4,0-0.6,0c-0.4,0-0.7,0-1,0   c-0.4,0-0.6,0-0.8,0.1C51.7,14.7,53.6,14.2,55.4,14C55.3,13.9,55.4,13.9,55.4,14z M41.1,48.7c0.2,0.1,0.4,0.2,0.6,0.2   c0.2,0.1,0.4,0.1,0.6,0.2c0.2,0,0.4,0.1,0.6,0.1c0.2,0,0.3,0,0.5,0.1c0,0,0.1,0,0.1,0c0,0,0.1,0,0.1,0c0.1,0,0.1,0,0.2,0   c0.2,0,0.3,0,0.3,0s-0.1,0-0.3,0c0,0-0.1,0-0.2,0c0,0-0.1,0-0.1,0c0,0-0.1,0-0.1,0c-0.1,0-0.3-0.1-0.5-0.1c-0.2,0-0.3-0.1-0.5-0.2   c-0.2-0.1-0.4-0.1-0.6-0.2c-0.2-0.1-0.4-0.2-0.6-0.3c-0.2-0.1-0.4-0.2-0.6-0.3c-0.2-0.1-0.4-0.2-0.6-0.3c-0.1-0.1-0.2-0.1-0.3-0.2   c-0.1-0.1-0.2-0.1-0.3-0.2c-0.2-0.1-0.4-0.2-0.5-0.3c-0.2-0.1-0.3-0.2-0.5-0.3c-0.1-0.1-0.3-0.2-0.4-0.3c-0.1-0.1-0.2-0.1-0.3-0.2   c0,0,0,0,0,0c0.3-0.6,0.6-1.2,0.8-1.9c0.2,0.1,0.4,0.3,0.7,0.4c0.2,0.1,0.3,0.2,0.5,0.3c0.2,0.1,0.4,0.2,0.6,0.3   c0.2,0.1,0.4,0.2,0.6,0.3c0.1,0,0.2,0.1,0.3,0.1c0.1,0,0.2,0.1,0.3,0.1c0.2,0.1,0.4,0.2,0.7,0.2c0.1,0,0.2,0.1,0.3,0.1   c0.1,0,0.2,0.1,0.3,0.1c0.2,0.1,0.4,0.1,0.6,0.1c0.2,0,0.4,0.1,0.6,0.1c0.2,0,0.3,0,0.5,0c0.1,0,0.1,0,0.2,0c0.1,0,0.1,0,0.2,0   c0.2,0,0.3,0,0.3,0s-0.1,0-0.3,0c-0.1,0-0.2,0-0.4,0c-0.1,0-0.1,0-0.2,0c-0.1,0-0.2,0-0.2,0c-0.2,0-0.4-0.1-0.5-0.1   c-0.2-0.1-0.4-0.1-0.6-0.2c-0.2-0.1-0.4-0.1-0.6-0.2c-0.2-0.1-0.4-0.2-0.7-0.2c-0.1,0-0.2-0.1-0.3-0.1c-0.1,0-0.2-0.1-0.3-0.1   c-0.2-0.1-0.4-0.2-0.6-0.3c-0.2-0.1-0.4-0.2-0.6-0.3c-0.2-0.1-0.4-0.2-0.5-0.2c-0.3-0.1-0.6-0.3-0.8-0.4c0.3-0.6,0.5-1.2,0.8-1.8   c0.2,0.1,0.5,0.3,0.8,0.4c0.2,0.1,0.3,0.2,0.5,0.3c0.2,0.1,0.4,0.2,0.6,0.3c0.2,0.1,0.4,0.2,0.7,0.3c0.1,0,0.2,0.1,0.3,0.1   c0.1,0,0.2,0.1,0.3,0.1c0.2,0.1,0.5,0.2,0.7,0.2c0.2,0.1,0.5,0.1,0.7,0.2c0.2,0.1,0.4,0.1,0.6,0.1c0.2,0,0.4,0.1,0.6,0.1   c0.2,0,0.4,0,0.5,0c0.1,0,0.1,0,0.2,0c0.1,0,0.1,0,0.2,0c0.2,0,0.3,0,0.3,0s-0.1,0-0.3,0c-0.1,0-0.1,0-0.2,0c-0.1,0-0.1,0-0.2,0   c-0.1,0-0.2,0-0.2,0c-0.1,0-0.2,0-0.3-0.1c-0.2,0-0.4-0.1-0.6-0.1c-0.2-0.1-0.4-0.1-0.6-0.2c-0.2-0.1-0.4-0.1-0.7-0.2   c-0.2-0.1-0.5-0.1-0.7-0.2c-0.1,0-0.2-0.1-0.3-0.1c-0.1,0-0.2-0.1-0.3-0.1c-0.2-0.1-0.4-0.2-0.7-0.2c-0.2-0.1-0.4-0.2-0.6-0.2   c-0.2-0.1-0.4-0.2-0.5-0.2c-0.4-0.1-0.7-0.3-0.9-0.3c0.9-2.2,1.9-4.5,2.9-7c0,0,0,0,0.1,0c0.2,0.1,0.5,0.3,0.9,0.5   c0.2,0.1,0.4,0.2,0.6,0.3c0.1,0,0.2,0.1,0.3,0.1c0.1,0,0.2,0.1,0.4,0.1c0.2,0.1,0.5,0.2,0.7,0.3c0.3,0.1,0.5,0.2,0.8,0.3   c0.3,0.1,0.5,0.1,0.8,0.2c0.1,0,0.3,0.1,0.4,0.1c0.1,0,0.3,0.1,0.4,0.1c0.3,0,0.5,0.1,0.7,0.1c0.2,0,0.5,0,0.7,0.1   c0.2,0,0.4,0,0.6,0c0.1,0,0.2,0,0.2,0c0.1,0,0.1,0,0.2,0c0.2,0,0.4,0,0.4,0s-0.1,0-0.4,0c-0.1,0-0.1,0-0.2,0c-0.1,0-0.1,0-0.2,0   c-0.2,0-0.4,0-0.6-0.1c-0.2,0-0.4-0.1-0.7-0.1c-0.1,0-0.2,0-0.4-0.1c-0.1,0-0.2,0-0.4-0.1c-0.2,0-0.5-0.1-0.8-0.2   c-0.3-0.1-0.5-0.1-0.8-0.2c-0.3-0.1-0.5-0.2-0.8-0.2c-0.3-0.1-0.5-0.2-0.7-0.3c-0.2-0.1-0.5-0.2-0.7-0.3c-0.2-0.1-0.4-0.2-0.6-0.2   c-0.4-0.2-0.7-0.3-0.9-0.4c0,0-0.1,0-0.1,0c0.3-0.8,0.6-1.5,0.9-2.3c0,0,0.1,0,0.1,0c0.1,0.1,0.2,0.1,0.4,0.2   c0.2,0.1,0.3,0.2,0.5,0.3c0.2,0.1,0.4,0.2,0.6,0.3c0.2,0.1,0.5,0.2,0.7,0.3c0.3,0.1,0.5,0.2,0.8,0.3c0.3,0.1,0.5,0.2,0.8,0.3   c0.3,0.1,0.6,0.2,0.8,0.2c0.1,0,0.3,0.1,0.4,0.1c0.1,0,0.3,0.1,0.4,0.1c0.1,0,0.3,0.1,0.4,0.1c0.1,0,0.3,0,0.4,0.1   c0.2,0,0.5,0.1,0.7,0.1c0.2,0,0.4,0.1,0.6,0.1c0.2,0,0.3,0,0.5,0c0,0,0,0,0.1,0c-2.8,5.7-6,11.2-7.9,14.5c-0.2,0.4-0.4,0.7-0.6,1.1   c-0.1,0-0.2,0-0.3-0.1c-0.1,0-0.3-0.1-0.4-0.1c-0.2,0-0.3-0.1-0.5-0.1c-0.1,0-0.2-0.1-0.3-0.1c-0.1,0-0.2-0.1-0.3-0.1   c-0.1,0-0.2-0.1-0.3-0.1c-0.1,0-0.2-0.1-0.3-0.1c-0.2-0.1-0.4-0.2-0.6-0.3c-0.2-0.1-0.4-0.2-0.6-0.3c-0.2-0.1-0.4-0.2-0.6-0.3   c-0.2-0.1-0.4-0.2-0.5-0.3c-0.2-0.1-0.3-0.2-0.5-0.3c-0.1-0.1-0.3-0.2-0.4-0.3c-0.1-0.1-0.2-0.2-0.3-0.2c-0.1-0.1-0.2-0.2-0.2-0.2   c0.3-0.6,0.6-1.3,0.9-2c0,0,0,0,0,0c0.2,0.1,0.4,0.3,0.7,0.5c0.1,0.1,0.3,0.2,0.5,0.3c0.2,0.1,0.3,0.2,0.5,0.3   c0.2,0.1,0.4,0.2,0.6,0.3c0.2,0.1,0.4,0.2,0.6,0.3C40.7,48.5,40.9,48.6,41.1,48.7 M33.6,54.4c-1.7,0.7-13.2,5.5-22.1,4.5   c-2.4-0.3-3.8-1-4.1-2c-0.4-1.1,0.1-3.2,4.1-6.9c0.1-0.1,0.2-0.1,0.2-0.2c0.3-0.3,2.6-2,6.8-3.4c3.8-1.2,10.3-2.5,19.4-1.7   c-0.8,1.9-1.6,3.5-2.2,4.8c-0.4,0.9-0.8,1.6-1,2.1C34.3,52.4,34,53.3,33.6,54.4z M51.4,35.9C51.4,35.9,51.4,35.9,51.4,35.9   c-0.2,0-0.4-0.1-0.5-0.1c-0.2,0-0.4-0.1-0.6-0.1c-0.2,0-0.4-0.1-0.7-0.2c-0.1,0-0.2-0.1-0.4-0.1c-0.1,0-0.3-0.1-0.4-0.1   c-0.1,0-0.3-0.1-0.4-0.1c-0.1,0-0.3-0.1-0.4-0.1c-0.3-0.1-0.5-0.2-0.8-0.2c-0.3-0.1-0.5-0.2-0.8-0.3c-0.3-0.1-0.5-0.2-0.8-0.3   c-0.3-0.1-0.5-0.2-0.7-0.3c-0.2-0.1-0.5-0.2-0.7-0.3c-0.4-0.2-0.7-0.3-1-0.4c0,0-0.1,0-0.1,0c0.2-0.6,0.4-1.2,0.7-1.8c0,0,0,0,0,0   c0.2,0.1,0.5,0.3,0.9,0.5c0.2,0.1,0.4,0.2,0.6,0.3c0.2,0.1,0.5,0.2,0.7,0.3c0.1,0,0.3,0.1,0.4,0.1c0.1,0,0.3,0.1,0.4,0.1   c0.3,0.1,0.5,0.2,0.8,0.2c0.3,0.1,0.6,0.1,0.8,0.2c0.1,0,0.3,0.1,0.4,0.1c0.1,0,0.3,0.1,0.4,0.1c0.3,0,0.5,0.1,0.8,0.1   c0.2,0,0.5,0,0.7,0.1c0.2,0,0.4,0,0.6,0c0.2,0,0.3,0,0.5,0c0.3,0,0.4,0,0.4,0s-0.1,0-0.4,0c-0.1,0-0.3,0-0.5,0   c-0.2,0-0.4,0-0.6-0.1c-0.1,0-0.2,0-0.3,0c-0.1,0-0.2,0-0.4,0c-0.2,0-0.5-0.1-0.8-0.1c-0.3,0-0.5-0.1-0.8-0.2   c-0.3-0.1-0.5-0.1-0.8-0.2c-0.3-0.1-0.5-0.2-0.8-0.2c-0.3-0.1-0.5-0.2-0.8-0.3c-0.3-0.1-0.5-0.2-0.7-0.3C45.2,32,45,32,44.8,31.9   c-0.4-0.2-0.7-0.3-1-0.4c0,0,0,0,0,0c0.3-0.8,0.5-1.5,0.8-2.3c0,0,0.1,0,0.1,0.1c0.1,0.1,0.1,0.1,0.2,0.2c0.1,0.1,0.2,0.1,0.3,0.2   c0.1,0.1,0.2,0.1,0.3,0.2c0.1,0.1,0.2,0.1,0.3,0.2c0.1,0.1,0.2,0.1,0.4,0.2c0.2,0.1,0.5,0.2,0.8,0.4c0.1,0.1,0.3,0.1,0.4,0.2   c0.1,0,0.3,0.1,0.4,0.1c0.2,0,0.3,0.1,0.5,0.1l0.2,0.1l0.2,0.1c0.3,0.1,0.6,0.1,0.9,0.2c0.2,0,0.3,0,0.5,0.1c0.1,0,0.2,0,0.2,0   c0.1,0,0.2,0,0.2,0c0.3,0,0.6,0,0.9,0.1c0.3,0,0.5,0,0.8,0c0.1,0,0.2,0,0.3,0c0.1,0,0.2,0,0.3,0c0.2,0,0.4,0,0.5,0c0,0,0.1,0,0.1,0   C52.9,32.8,52.1,34.4,51.4,35.9z M53.5,31.3c0,0-0.1,0-0.1,0c-0.1,0-0.3,0-0.5,0c-0.1,0-0.2,0-0.3,0c-0.1,0-0.2,0-0.3,0   c-0.2,0-0.5,0-0.8,0c-0.3,0-0.6-0.1-0.9-0.1c-0.1,0-0.1,0-0.2,0c-0.1,0-0.2,0-0.2,0c-0.2,0-0.3,0-0.5-0.1c-0.3,0-0.6-0.1-0.9-0.2   l-0.2,0l-0.2-0.1c-0.2,0-0.3-0.1-0.5-0.1c-0.1,0-0.2,0-0.2-0.1c-0.1,0-0.1,0-0.2-0.1c-0.1,0-0.3-0.1-0.4-0.1   c-0.3-0.1-0.5-0.2-0.8-0.3c-0.1-0.1-0.2-0.1-0.4-0.2c-0.1-0.1-0.2-0.1-0.3-0.2c-0.1-0.1-0.2-0.1-0.3-0.2c-0.1-0.1-0.2-0.1-0.3-0.2   c-0.1-0.1-0.2-0.1-0.2-0.1c0,0-0.1,0-0.1-0.1c0.2-0.7,0.4-1.3,0.6-2c0,0,0,0,0.1,0.1c0.1,0.1,0.2,0.2,0.4,0.3c0,0,0.1,0.1,0.1,0.1   c0,0,0.1,0.1,0.1,0.1c0.1,0.1,0.2,0.1,0.3,0.2c0.1,0.1,0.2,0.1,0.3,0.2c0.1,0.1,0.3,0.1,0.4,0.1c0.3,0.1,0.6,0.2,0.8,0.3   c0.1,0,0.3,0.1,0.5,0.1c0.2,0,0.3,0.1,0.5,0.1c0.3,0,0.6,0.1,1,0.1c0.3,0,0.7,0.1,1,0.1c0.3,0,0.6,0,0.9,0c0.2,0,0.3,0,0.5,0   c0.1,0,0.3,0,0.4,0c0.3,0,0.5,0,0.8,0c0.2,0,0.5,0,0.7,0c0.2,0,0.4,0,0.5,0c0,0,0.1,0,0.1,0C54.3,29.6,53.9,30.4,53.5,31.3z    M48.9,15.1v-0.4c0,0,0,0,0,0c1.9-0.6,3.9-1.1,5.4-1.2C52.2,13.9,50.1,14.6,48.9,15.1z M48.7,15.1c-0.4,0.1-0.6,0.2-0.7,0.3   c-0.2,0.1-0.4,0.2-0.8,0.3v-0.6c0.5-0.1,1-0.3,1.5-0.4L48.7,15.1L48.7,15.1z M47.1,15.7c-0.5,0.1-1.1,0.2-1.7,0.3v-0.5   c0.5-0.1,1-0.2,1.5-0.4v0.5H47.1z M45.3,16c-0.6,0.1-1.2,0.1-1.8,0.1v-0.4c0,0,0,0,0,0c0.3,0,0.6,0,0.9,0c0.2,0,0.4-0.1,0.7-0.1V16   H45.3z M43.3,16.1c-0.3,0-0.6-0.1-0.8-0.1c0,0-0.1,0-0.1,0c-0.4-0.1-0.7-0.2-1-0.4v-0.2c0.5,0.2,1.1,0.3,1.9,0.3V16.1z M41.1,15.4   c-0.1-0.1-0.2-0.1-0.2-0.2c0.1,0,0.1,0.1,0.2,0.1V15.4z M41.2,16.2c0.2,0.1,0.4,0.2,0.5,0.2l-0.6,0.5   C41.1,16.6,41.2,16.4,41.2,16.2z M42.7,28.1c0.1-1.7-0.4-3.9-0.8-6c-0.3-1.7-0.7-3.4-0.7-4.7l1-0.8c0.9,0.2,1.9,0.2,2.7,0.1   c0.4,0,0.7-0.1,1.1-0.1c0.8,4.6-1.8,12.9-4.8,20.3C41.8,34,42.6,30.2,42.7,28.1z M9.5,45.3c5.7-3.2,13.6-5,22.3-5   c2.7,0,5.3,0.1,7.8,0.4c0,0,0,0,0,0c-0.5,1.2-1,2.3-1.5,3.4c-7.4-0.7-14.2-0.2-19.9,1.7c-4.3,1.4-6.7,3.1-7.1,3.5   c0,0-0.1,0.1-0.2,0.2c-3.4,3.2-4.9,5.8-4.3,7.6c0.3,1,1.3,1.7,2.9,2.1c-3.5,0.1-5.9-0.6-7.2-2.2c-0.9-1.1-1-2.4-1-3.1   C2.6,50.6,5.4,47.7,9.5,45.3z M11.5,65c-4.9-0.1-8.2-1.3-9.9-3.4c-1.4-1.8-1-3.7-1-3.8c0,0,0,0,0-0.1c0-1.1,0.2-2.1,0.5-3.1   c0.1,0.8,0.3,1.7,1.1,2.6c1.3,1.5,3.6,2.3,6.9,2.3c0.5,0,1,0,1.5,0c0.3,0,0.5,0.1,0.8,0.1c0.9,0.1,1.7,0.1,2.6,0.1   c7.9,0,16.8-3.4,19.3-4.5c-0.7,2.1-1.3,4.6-1.4,7.3C30.5,63,23,65.3,11.5,65z M45,81.6c-5-1.9-8.8-5-10.7-8.9   c-1.6-3.2-2-6.7-1.8-9.8c0-0.1,0.1-0.2,0-0.3c0,0,0,0,0,0c0.2-2.9,0.9-5.6,1.6-7.7c0.1-0.1,0.2-0.2,0.1-0.4c0.4-1.1,0.7-2,1-2.6   c0.2-0.5,0.6-1.2,1-2.1c0.2-0.4,0.4-0.8,0.6-1.2c0,0,0,0,0,0.1c0,0,0.1,0.1,0.2,0.2c0.1,0.1,0.2,0.2,0.3,0.2   c0.1,0.1,0.2,0.2,0.3,0.3c0.1,0.1,0.1,0.1,0.2,0.2c0.1,0.1,0.1,0.1,0.2,0.2c0.2,0.1,0.3,0.2,0.5,0.4c0.2,0.1,0.4,0.2,0.6,0.3   c0.2,0.1,0.4,0.2,0.6,0.3c0.2,0.1,0.4,0.2,0.6,0.3c0.1,0,0.2,0.1,0.3,0.1c0.1,0,0.2,0.1,0.3,0.1c0.1,0,0.2,0.1,0.3,0.1   c0.1,0,0.2,0,0.3,0.1c0.2,0,0.4,0.1,0.5,0.1c0.2,0,0.3,0,0.5,0.1c0.1,0,0.2,0,0.3,0c-0.6,1.1-1.1,1.9-1.3,2.3   c-0.9,1.8-1.9,4.7-1.7,8.3c0.2,4.1,1.8,8.1,4.8,11.9c2,2.6,4.6,4.5,7.2,5.9c0,0,0,0-0.1,0.1c0,0,0,0-0.1,0.1c0,0-0.1,0.1-0.1,0.1   c0,0,0,0-0.1,0c0,0-0.1,0-0.1,0c-0.1,0-0.1,0.1-0.2,0.1c-0.1,0.1-0.3,0.1-0.5,0.2c-0.2,0.1-0.4,0.1-0.6,0.2c-0.1,0-0.2,0-0.3,0.1   c-0.1,0-0.2,0-0.3,0.1c-0.2,0-0.5,0.1-0.7,0.1c-0.2,0-0.5,0-0.7,0.1c-0.2,0-0.5,0-0.7,0c-0.2,0-0.5,0-0.7,0c-0.5,0-0.9,0-1.2,0   c-0.7,0-1.2,0-1.2,0s0.5,0.1,1.2,0.1c0.2,0,0.4,0,0.6,0c0.2,0,0.4,0,0.7,0c0.2,0,0.5,0,0.7,0c0.2,0,0.5,0,0.7,0   c0.2,0,0.5,0,0.7-0.1c0.2,0,0.5-0.1,0.7-0.1c0.1,0,0.2,0,0.3-0.1c0.1,0,0.2-0.1,0.3-0.1c0.2-0.1,0.4-0.1,0.6-0.2   c0.2-0.1,0.3-0.2,0.4-0.2c0.1,0,0.1-0.1,0.2-0.1c0,0,0.1,0,0.1-0.1c0,0,0,0,0.1-0.1c0,0,0.1-0.1,0.1-0.1c0,0,0-0.1,0.1-0.1   c0,0,0,0,0-0.1c0.4,0.2,0.9,0.4,1.3,0.7c0,0,0,0,0,0c0,0-0.1,0.1-0.1,0.2c-0.1,0.1-0.1,0.1-0.2,0.2c0,0-0.1,0.1-0.2,0.1   c-0.1,0-0.1,0.1-0.2,0.1c-0.1,0.1-0.3,0.1-0.4,0.2c-0.2,0.1-0.3,0.1-0.5,0.2c-0.2,0.1-0.4,0.1-0.6,0.1c-0.2,0-0.4,0.1-0.6,0.1   c-0.2,0-0.4,0.1-0.6,0.1c-0.2,0-0.4,0-0.6,0.1c-0.4,0-0.7,0.1-1,0.1c-0.6,0-1,0.1-1,0.1s0.4,0.1,1,0.1c0.2,0,0.3,0,0.5,0   c0.2,0,0.4,0,0.5,0c0.2,0,0.4,0,0.6,0c0.2,0,0.4,0,0.6-0.1c0.2,0,0.4-0.1,0.6-0.1c0.2,0,0.4-0.1,0.6-0.2c0.2-0.1,0.4-0.1,0.5-0.2   c0.1,0,0.2-0.1,0.2-0.1c0.1,0,0.1-0.1,0.2-0.1c0.1,0,0.1-0.1,0.2-0.1c0.1,0,0.1-0.1,0.1-0.1c0.1-0.1,0.2-0.2,0.2-0.3   c0.1-0.1,0.1-0.1,0.1-0.2c0,0,0,0,0,0c0.8,0.4,1.5,0.7,2.3,1c0,0,0,0.1-0.1,0.1c-0.1,0.1-0.1,0.1-0.2,0.2c-0.1,0.1-0.2,0.1-0.3,0.2   c-0.1,0.1-0.2,0.1-0.3,0.2c-0.1,0.1-0.2,0.1-0.4,0.2c-0.1,0.1-0.3,0.1-0.4,0.1c-0.1,0-0.3,0.1-0.4,0.1c-0.1,0-0.3,0.1-0.4,0.1   c-0.1,0-0.3,0-0.4,0.1c-0.1,0-0.2,0-0.4,0c-0.4,0-0.7,0.1-0.7,0.1S51.6,83,52,83c0.2,0,0.5,0,0.8,0c0.1,0,0.3,0,0.4-0.1   c0.1,0,0.3-0.1,0.4-0.1c0.1,0,0.3-0.1,0.4-0.2c0.1-0.1,0.3-0.1,0.4-0.2c0.1-0.1,0.2-0.2,0.3-0.2c0.1-0.1,0.2-0.2,0.3-0.2   c0,0,0.1-0.1,0.1-0.1c0,0,0.1-0.1,0.1-0.1c0,0,0.1-0.1,0.1-0.1c0.5,0.2,1,0.4,1.4,0.5c0,0,0,0.1-0.1,0.1c-0.1,0.1-0.1,0.2-0.3,0.3   c-0.1,0.1-0.1,0.1-0.2,0.2c-0.1,0.1-0.1,0.1-0.2,0.1C56,83,55.9,83,55.8,83c-0.1,0-0.2,0.1-0.2,0.1c-0.2,0.1-0.3,0.1-0.4,0.1   c-0.3,0.1-0.4,0.1-0.4,0.1s0.2,0,0.5,0c0.1,0,0.1,0,0.2,0c0.1,0,0.2,0,0.2-0.1c0.2,0,0.3-0.1,0.5-0.2c0.1,0,0.2-0.1,0.2-0.2   c0.1-0.1,0.1-0.1,0.2-0.2c0.1-0.1,0.1-0.1,0.1-0.2c0-0.1,0.1-0.1,0.1-0.2c0-0.1,0-0.1,0-0.1c0.5,0.2,1,0.3,1.5,0.4c0,0,0,0,0,0   c0,0,0,0.1-0.1,0.1c0,0-0.1,0.1-0.1,0.1c0,0-0.1,0.1-0.1,0.1C58,83,58,83,58,83c0,0-0.1,0.1-0.1,0.1c-0.1,0.1-0.1,0.1-0.2,0.1   c-0.1,0.1-0.2,0.1-0.2,0.1s0.1,0,0.3,0c0.1,0,0.2,0,0.3-0.1c0,0,0.1,0,0.1-0.1c0,0,0.1-0.1,0.1-0.1c0,0,0.1-0.1,0.1-0.1   c0,0,0.1-0.1,0.1-0.1c0,0,0-0.1,0.1-0.1c0,0,0,0,0-0.1c1.2,0.3,2.3,0.6,3.1,0.7C55.5,84,49.8,83.4,45,81.6z M85.9,67.6   c-0.1,0.2-0.4,0.5-0.7,0.9c-2.1,3.1-8.6,12.7-21.3,14.6c-0.3,0-3.3-0.3-7-1.5c-3.6-1.2-8.5-3.5-11.9-7.9c-2.9-3.7-4.5-7.6-4.6-11.6   c-0.2-3.5,0.8-6.2,1.6-8c0.3-0.6,1-1.8,1.9-3.4c4.4-7.5,13.4-23,13.8-31.8c0.3,0.3,0.7,0.5,1.3,0.6c0.1,0,0.2,0,0.3,0   c0.1,0,0.2,0,0.2-0.1c0.2-0.2,0.1-0.6-0.2-1.8c-0.3-1.6-0.7-2.3-1.2-2.6c-0.1,0-0.1,0-0.2,0c-0.2,0.1-0.4,0.8-0.5,1.3   c-0.2-1.1-0.7-2.1-1.5-2.7c1.1-0.2,2-0.2,2.5,0.1c2,0.8,3.6,2.9,3.8,5.1l0.6-0.1c-0.3-2.4-2-4.7-4.2-5.6c-0.8-0.3-2.2-0.2-3.7,0.1   c-1.5-0.3-4,0.4-6.4,1.1c-1.6,0.5-3.2,0.9-4.3,1c-2.1,0.2-3.3-0.3-3.9-0.6c-0.4-0.8-0.1-1.8,0.1-2.3l1.3,1.2c0,0,0,0,0,0   c0,0,0,0,0,0l0.9-1.2c0.2-0.3,0.7-0.5,1-0.4c1.2,0.3,1.3,0.6,1.3,0.6c0,0.2-0.3,0.4-0.6,0.7c-0.5,0.3-1.2,0.6-1.7,0.4l0,0.1   c0.1,0,0.2,0.1,0.4,0.1c0.5,0,1-0.2,1.4-0.5c0.3-0.2,0.7-0.5,0.7-0.8c0-0.1,0-0.3-0.7-0.5c0.1-0.1,0.3-0.3,0.3-0.6   c0-0.3-0.1-0.5-0.3-0.8c0.1-0.3,0.9-1.7,2.8-1.3c0.3,0.1,0.6,0.2,0.7,0.5c0.1,0.2,0.1,0.5,0.1,0.5c0,0,0,0,0,0c-0.1,0-0.2,0-0.3,0   c-0.1,0-0.2,0-0.4,0c-0.1,0-0.3,0-0.4,0.1c-0.1,0-0.3,0.1-0.4,0.1l-0.2,0.1c-0.1,0-0.1,0.1-0.2,0.1c-0.1,0-0.1,0.1-0.2,0.1   c-0.1,0-0.1,0.1-0.2,0.1c-0.1,0.1-0.2,0.2-0.3,0.2c-0.1,0.1-0.2,0.2-0.2,0.2c-0.1,0.1-0.1,0.1-0.2,0.2c0,0.1-0.1,0.1-0.1,0.2   c-0.1,0.1-0.1,0.2-0.1,0.2l0,0c0,0,0-0.1,0.1-0.2c0,0,0.1-0.1,0.1-0.2c0-0.1,0.1-0.1,0.2-0.2c0.1-0.1,0.1-0.1,0.2-0.2   c0.1-0.1,0.2-0.1,0.3-0.2c0.1,0,0.1-0.1,0.2-0.1c0.1,0,0.1-0.1,0.2-0.1c0,0,0.1,0,0.1,0c-0.3,0.2-0.4,0.6-0.4,0.9   c0,0.7,0.5,1.2,1.2,1.2c0.7,0,1.2-0.5,1.2-1.2c0-0.6-0.4-1-0.9-1.2c0.1,0,0.2,0,0.3,0c0.1,0,0.2,0,0.3,0c0,0,0.1,0,0.1,0   c0,0,0.1,0,0.1,0c0.1,0,0.1,0,0.2,0c0.1,0,0.2,0,0.2,0l0,0c0,0-0.1,0-0.2,0c-0.1,0-0.1,0-0.2,0c0,0-0.1,0-0.1,0   c0-0.1,0.1-0.3-0.1-0.6c-0.1-0.2-0.4-0.4-0.8-0.5c-1.9-0.4-2.8,1-3,1.4c-0.2-0.2-0.5-0.5-0.9-0.7c0.1,0,0.1-0.1,0.1-0.1   c0,0,0,0,0,0c0.7-0.8,0.8-1.7,0.8-1.8c0,0,0,0,0,0c-0.2-0.6-1.2-0.8-1.7-0.8c0.2-0.2,0.4-0.4,0.6-0.5c1.2-0.7,2.9-0.3,3.8-0.1   c-0.4,0.1-0.8,0.2-1.1,0.4c-0.2,0.1-0.2,0.2-0.2,0.4c0.1,0.2,0.2,0.2,0.4,0.2c0.5-0.2,1-0.4,1.5-0.5c0,0,0.1,0,0.1,0   c0.1,0,0.2,0,0.3,0.1c0.1,0,0.1,0,0.2,0.1c0.1,0,0.1,0,0.2,0.1c0,0,0.1,0.1,0.2,0.1c0,0,0.1,0.1,0.1,0.1c0.1,0.1,0.2,0.2,0.2,0.3   c0,0.1,0.1,0.1,0.1,0.2c0,0.1,0.1,0.1,0.1,0.2c0.1,0.1,0.1,0.2,0.2,0.3c0.1,0.2,0.2,0.4,0.3,0.6c0.1,0.4,0.2,0.6,0.2,0.6   s0-0.3-0.1-0.7c0-0.2-0.1-0.4-0.2-0.7c0-0.1-0.1-0.2-0.1-0.4c0-0.1-0.1-0.1-0.1-0.2c0-0.1-0.1-0.1-0.1-0.2   c-0.1-0.1-0.2-0.2-0.3-0.3c-0.1,0-0.1-0.1-0.2-0.1c-0.1,0-0.1-0.1-0.2-0.1c-0.1,0-0.1,0-0.2-0.1c-0.1,0-0.1,0-0.2,0   c0,0-0.1,0-0.1,0c0.8-0.1,1.6-0.2,2.4-0.1C50.9,7,51,7,51,7.1c0.1,0.1,0.1,0.1,0.2,0.2c0.1,0.1,0.1,0.1,0.2,0.2   c0.1,0.1,0.1,0.2,0.2,0.2c0.1,0.1,0.1,0.2,0.2,0.3C51.9,8.1,52,8.2,52,8.3c0,0.1,0.1,0.2,0.1,0.3c0,0.1,0.1,0.2,0.1,0.2   c0,0.1,0,0.1,0.1,0.2c0,0.1,0,0.1,0,0.2c0,0.1,0,0.1,0,0.1s0-0.1,0-0.1c0,0,0-0.1,0-0.2c0-0.1,0-0.1,0-0.2c0-0.1,0-0.2-0.1-0.3   c0-0.1-0.1-0.2-0.1-0.3C52.1,8.1,52,8,52,7.9c-0.1-0.1-0.1-0.2-0.2-0.3c-0.1-0.1-0.1-0.2-0.2-0.2c-0.1-0.1-0.2-0.1-0.2-0.2   c-0.1-0.1-0.2-0.1-0.2-0.2C51,7,51,7,51,7c3.7,0.3,7.4,2.5,10.5,4.5c0.5,0.3,1,0.8,1.4,1.3c0,0,0,0,0,0c-0.4,0.3-0.3,1.5-0.2,2.4   c0,0.2,0,0.3,0,0.4c0.1,0.8,1.2,1.4,1.8,1.6c0,0.3,0.1,0.7,0.1,1c-0.2-0.2-0.4-0.4-0.6-0.4c-0.2,0-0.3,0.1-0.4,0.3   c-0.4,1-0.5,2.2-0.3,2.9c0.2,0.5,0.6,1.3,0.9,1.8c0,0.2-0.1,0.4-0.1,0.6c0,0-0.1-0.1-0.2-0.1c-0.2,0-0.5,0.3-0.8,1.1   c-0.5,1.3-0.4,1.9-0.2,2.1c0.1,0.1,0.2,0.2,0.2,0.2c-1.5,3.2-5.3,7.1-8.4,10.2c-1.6,1.6-2.9,2.9-3.7,4c-0.3,0.3-0.6,0.7-1,1.2   c-3.4,4.2-10.6,12.8-8.8,22.6c0.8,4.7,3.7,7.9,8.5,9.6c3.8,1.4,7.8,1.4,9.5,1.4c3,0,9.6-1.4,15.1-6.7c2.5-2.4,4.2-4.9,4.9-7.5   c0.7-2.4,0.6-4.9-0.2-7.5c-0.7-2.3-3-3.7-6.5-4c-2.7-0.2-6.1,0.1-9.8,1.1c0,0,0,0,0,0c-0.2,0.1-0.4,0.1-0.6,0.2   c-0.6,0.2-1.2,0.3-1.9,0.6c0,0,0,0,0,0c-6.5,2.1-16.7,6.8-18.5,7.6c0.4-3.4,1.8-6.6,3.3-9.4c0.7-0.4,6.5-3.7,13.7-6.2   c4.5-1.5,8.6-2.4,12.2-2.7c4.5-0.3,8.3,0.4,11.3,2.1c4,2.3,6.4,5.6,7,9.9C90.2,60,86.6,66.8,85.9,67.6z M57.6,16.8   c0.1-0.6,0.3-1.4,0.5-1.5c0,0,0,0,0.1,0c0.5,0.2,0.8,1,1.1,2.5c0.2,1,0.3,1.5,0.2,1.7c-0.1,0.1-0.2,0.1-0.4,0   c-0.7-0.1-1.1-0.3-1.3-0.7C57.8,18.1,57.7,17.4,57.6,16.8z M46.3,11.8c0-0.6,0.5-1.1,1.1-1.1c0.6,0,1.1,0.5,1.1,1.1   s-0.5,1.1-1.1,1.1C46.8,12.9,46.3,12.4,46.3,11.8z M60.2,52.6c1.6,1.3,1.9,2.9,2,4c0.1,1.9-0.8,3.6-1.5,4.2c-0.5,0.5-2.2,1.3-4,2.1   c-2.5,1.2-5.1,2.4-6,3.4c-0.9,0.9-1.3,2-1,2.9c0.2,0.8,0.9,1.3,1.7,1.5c0.3,0.1,0.5,0.1,0.8,0.1c0.9,0,1.5-0.4,1.9-1.2   c0-0.1,0-0.2,0-0.3c-0.2-0.2-0.4-0.2-1-0.1c-0.5,0.1-1.5,0.2-1.7-0.1c-0.1-0.1,0-0.3,0.1-0.5c1.3-2.7,3.8-3.5,6.5-4.3   c2.4-0.7,4.9-1.5,6.4-3.8c1.3-2,1.5-4.2,0.6-6.4c-0.5-1.1-1.1-1.9-1.5-2.4c3.4-0.8,6.6-1.1,9.1-0.9c3.3,0.3,5.4,1.5,6,3.6   c1.6,5.2,0.2,9.9-4.5,14.4C68.4,74,62,75.4,59.1,75.4c-1.7,0-5.6,0-9.3-1.3c-4.6-1.6-7.3-4.7-8.1-9.2c-0.3-1.5-0.3-3-0.2-4.5   c0,0,0,0,0,0C41.7,60.3,53,55,60.2,52.6z M62.6,51.9c0.6,0.7,3.7,4.4,1.1,8.3c-1.4,2.1-3.7,2.8-6.1,3.5c-2.7,0.8-5.5,1.7-6.9,4.6   c-0.2,0.5-0.2,0.8,0,1.1c0.4,0.6,1.5,0.4,2.3,0.3c0.1,0,0.2,0,0.2,0c-0.2,0.3-0.7,0.5-1.8,0.3c-0.6-0.1-1.1-0.5-1.3-1   c-0.2-0.7,0.1-1.6,0.9-2.3c0.9-0.9,3.5-2.1,5.9-3.2c1.9-0.9,3.6-1.7,4.2-2.2c0.9-0.8,1.7-2.7,1.7-4.7c0-1.2-0.4-2.8-1.9-4.2   c0.5-0.1,0.9-0.3,1.3-0.4C62.3,52,62.5,52,62.6,51.9z"></path><path d="M41.3,14.7C41.3,14.7,41.3,14.7,41.3,14.7c-0.1-0.1-0.1-0.1-0.1-0.1c0,0,0,0,0-0.1c0-0.1-0.1-0.1-0.1-0.2   C41,14.2,41,14.1,40.9,14c-0.1-0.1-0.1-0.2-0.1-0.2s0,0.1,0,0.2c0,0.1,0,0.3,0.1,0.4c0,0.1,0.1,0.1,0.1,0.2   c0.1,0.1,0.1,0.1,0.2,0.1C41.2,14.8,41.3,14.8,41.3,14.7C41.3,14.8,41.3,14.8,41.3,14.7C41.4,14.8,41.4,14.8,41.3,14.7   C41.4,14.8,41.4,14.8,41.3,14.7C41.4,14.7,41.4,14.7,41.3,14.7z"></path><path d="M44,14.7c-0.1,0-0.2,0.1-0.2,0.1c-0.1,0-0.1,0.1-0.2,0.1c-0.1,0-0.1,0-0.2,0.1c0,0-0.1,0-0.1,0s0,0,0.1,0c0,0,0.1,0,0.2,0   c0.1,0,0.1,0,0.2-0.1c0.1,0,0.2-0.1,0.2-0.1c0.1,0,0.2-0.1,0.2-0.1c0.1,0,0.1-0.1,0.2-0.1c0.1-0.1,0.2-0.2,0.2-0.2s-0.1,0-0.2,0.1   C44.3,14.5,44.2,14.6,44,14.7z"></path><path d="M60,19.6c-0.1,1-0.1,1.4,0.2,1.6c0.1,0.1,0.2,0.1,0.3,0.1c0.1,0,0.3,0,0.5-0.1c0.7-0.2,0.7-0.4,0.7-1c0-0.2,0-0.4,0-0.6   c0-1.2-0.5-2.4-0.9-2.4C60.4,17.1,60.1,18.8,60,19.6L60,19.6z M60.1,19.6c0.2-1.3,0.4-2.3,0.6-2.3c0.2,0,0.8,1.1,0.8,2.3   c0,0.3,0,0.5,0,0.6c0,0.6,0,0.7-0.6,0.9c-0.4,0.1-0.5,0.1-0.6,0C60.1,20.9,60.1,20.4,60.1,19.6z"></path><path d="M57.9,24.7C57.9,24.8,57.9,24.8,57.9,24.7c0.3,0,0.8-0.6,1.3-1.2l0.1-0.1c0.4-0.5,0.1-1.4-0.1-2.1   c-0.1-0.2-0.1-0.4-0.1-0.5c0-0.1-0.1-0.2-0.2-0.2c-0.3,0-0.6,0.5-0.7,0.6c-0.6,0.6-0.4,2.8-0.4,3.3C57.8,24.6,57.8,24.7,57.9,24.7z    M58.2,21.3L58.2,21.3c0.2-0.2,0.4-0.6,0.6-0.6c0,0,0,0,0,0c0,0,0.1,0.1,0.1,0.1c0,0.1,0.1,0.3,0.1,0.5c0.2,0.7,0.5,1.6,0.2,2   l-0.1,0.1c-0.3,0.4-1,1.2-1.2,1.2c0,0-0.1-0.1-0.1-0.2C57.8,23.6,57.8,21.7,58.2,21.3z"></path><path d="M50.6,10.9c0-0.1-0.1-0.2-0.2-0.2c-0.2,0-0.6,0.4-0.6,0.5c-0.3,0.4-0.6,1-0.5,1.5c0,0.2,0.1,0.3,0.3,0.4   c0.1,0,0.1,0,0.1,0.1c0.3,0.1,0.5,0.2,0.7,0.2c0.1,0,0.3,0,0.4-0.1c0.5-0.3,0.2-1.2-0.1-1.9C50.7,11.2,50.6,11.1,50.6,10.9z    M50.8,13.2c-0.4,0.2-0.6,0.1-1-0.1c0,0-0.1,0-0.2-0.1c-0.1-0.1-0.2-0.2-0.2-0.3c-0.1-0.4,0.2-1.1,0.5-1.4l0,0   c0.1-0.2,0.4-0.5,0.5-0.5c0,0,0,0,0,0c0,0,0.1,0.1,0.1,0.1c0,0.1,0.1,0.3,0.2,0.5C50.9,12.1,51.2,13,50.8,13.2z"></path><path d="M42.5,20.3C42.5,20.3,42.5,20.3,42.5,20.3c0.2,0,0.5-0.5,0.8-1.1l0-0.1c0.2-0.4-0.2-1.1-0.5-1.6c-0.1-0.2-0.2-0.3-0.2-0.4   c0-0.1-0.1-0.2-0.2-0.2c-0.2,0-0.4,0.5-0.4,0.6c-0.3,0.6,0.1,2.2,0.3,2.6C42.4,20.2,42.4,20.3,42.5,20.3z M42.1,17.6L42.1,17.6   c0.1-0.2,0.2-0.5,0.3-0.5c0,0,0,0,0,0c0,0,0.1,0.1,0.1,0.1c0,0.1,0.1,0.2,0.2,0.4c0.3,0.5,0.6,1.2,0.5,1.5l0,0.1   c-0.2,0.4-0.5,1.1-0.7,1.1c0,0,0,0,0,0c0,0-0.1-0.1-0.1-0.1C42.2,19.6,41.9,18.1,42.1,17.6z"></path><path d="M59.8,25.9c0.4,0,0.8-0.5,1.2-0.9c0.1-0.1,0.2-0.2,0.3-0.3c0.3-0.3,0.4-0.9,0.4-1.5c0-0.6-0.2-1.1-0.5-1.3   c-0.1-0.1-0.3-0.1-0.4-0.1c-0.5,0.2-0.8,1.1-0.8,1.2c-0.1,0.2-0.8,2.3-0.4,2.7C59.6,25.9,59.7,25.9,59.8,25.9z M60.1,23.2   L60.1,23.2c0,0,0.3-1,0.7-1.1c0,0,0.1,0,0.1,0c0.1,0,0.1,0,0.2,0.1c0.3,0.2,0.4,0.6,0.5,1.2c0,0.6-0.1,1.2-0.3,1.4   c-0.1,0.1-0.2,0.2-0.3,0.3c-0.4,0.4-1,1-1.3,0.8C59.4,25.5,59.8,24.1,60.1,23.2z"></path><path d="M60.2,16.1c0.2-0.2,0.1-0.5-0.1-1c-0.3-0.7-0.4-0.8-0.5-0.7c-0.1,0-0.3,0.1-0.1,1.7l0,0l0,0c0,0,0.2,0.1,0.4,0.1   C60,16.2,60.1,16.2,60.2,16.1z M59.6,16c-0.1-1.4,0-1.5,0-1.5c0,0,0.1,0,0.4,0.7c0.3,0.6,0.2,0.8,0.1,0.9C60,16.1,59.7,16,59.6,16z   "></path><path d="M58.2,27.4C58.2,27.4,58.3,27.4,58.2,27.4c0.3-0.1,0.4-0.4,0.4-1.1c0-0.2,0.2-1.2,0-1.4c0,0-0.1-0.1-0.1-0.1   c-0.2,0-0.6,0.5-0.9,0.9c-0.2,0.3-0.4,0.8-0.1,1.1C57.8,27.3,58,27.4,58.2,27.4z M57.7,26.1c0.3-0.6,0.7-1,0.8-1c0,0,0,0,0,0   c0.1,0,0.1,0.7-0.1,1.3l0,0c0,0.7-0.2,0.9-0.2,0.9c-0.1,0-0.3-0.1-0.6-0.4C57.5,26.7,57.6,26.3,57.7,26.1z"></path><path d="M43.5,25.3C43.5,25.3,43.6,25.3,43.5,25.3c0.3,0,0.5-0.1,0.7-0.4c0.2-0.3,0.1-0.8-0.1-1.1c-0.2-0.4-0.7-1-0.9-0.9   c0,0-0.1,0-0.1,0.1c-0.2,0.2,0,1.2,0,1.4C43.2,24.9,43.3,25.2,43.5,25.3z M43.3,23C43.3,23,43.3,23,43.3,23c0.1,0,0.6,0.5,0.8,1   c0.1,0.3,0.2,0.6,0.1,0.8c-0.3,0.3-0.5,0.5-0.6,0.4c-0.1,0-0.2-0.2-0.2-0.9l0,0C43.2,23.6,43.2,23,43.3,23z"></path><path d="M61,26.1c-0.1,0-0.1,0-0.2,0.1c-0.1,0.2-0.8,1-0.7,1.3c0,0,0.1,0.1,0.2,0.1c0.1,0,0.1,0,0.2,0c0.4,0,0.5-0.2,0.6-0.6   C61,26.8,61.1,26.1,61,26.1z M60.9,26.9c-0.1,0.4-0.2,0.6-0.6,0.5c-0.1,0-0.1,0-0.1,0c-0.1-0.2,0.4-0.8,0.7-1.2l0,0   c0,0,0.1-0.1,0.1-0.1C60.9,26.2,60.9,26.6,60.9,26.9z"></path><path d="M45.5,21C45.5,21,45.5,21,45.5,21c0.1,0,0.1-0.1,0.1-0.2c0-0.2,0.1-1.3-0.2-1.5c0,0-0.1,0-0.2,0c-0.5,0.3-0.4,0.6-0.2,1   C45,20.5,45.3,21,45.5,21z M45.3,19.4C45.3,19.4,45.3,19.4,45.3,19.4C45.3,19.4,45.3,19.4,45.3,19.4c0.3,0.1,0.3,0.9,0.2,1.4l0,0   c0,0.1,0,0.1,0,0.1c-0.1,0-0.3-0.3-0.4-0.6C44.9,19.9,44.9,19.7,45.3,19.4z"></path><path d="M43,22.1c0.1,0,0.2-0.1,0.2-0.1c0.1-0.3-0.6-1.1-0.7-1.3c-0.1-0.1-0.1-0.1-0.2-0.1c-0.2,0.1-0.1,0.7,0,0.9   c0.1,0.4,0.2,0.6,0.6,0.6C42.9,22.1,42.9,22.1,43,22.1z M42.3,21.4c-0.1-0.4-0.1-0.7-0.1-0.8c0,0,0,0,0.1,0.1l0,0   c0.3,0.4,0.8,1,0.7,1.2c0,0,0,0-0.1,0C42.5,22,42.4,21.9,42.3,21.4z"></path><path d="M56.4,29.6c0.3,0.1,0.5,0.1,0.6,0.1c0.2,0,0.3,0,0.4-0.1c0.1-0.1,0.2-0.3,0.1-0.5c0-0.1,0-0.3,0-0.5c0-0.5,0-0.8-0.1-0.8   c-0.1,0-0.1,0-0.2,0.1c-0.1,0.1-1.2,1-1.1,1.5C56.1,29.5,56.2,29.5,56.4,29.6z M57.3,27.9L57.3,27.9C57.3,27.8,57.3,27.8,57.3,27.9   C57.4,27.8,57.4,27.8,57.3,27.9c0.2,0,0.2,0.4,0.2,0.7c0,0.2,0,0.4,0,0.5c0,0.2,0,0.4-0.1,0.4c-0.1,0.1-0.4,0.1-0.9,0   c-0.1,0-0.2-0.1-0.2-0.2C56.1,28.9,57,28.1,57.3,27.9z"></path><path d="M44.5,26.1c-0.4-0.2-0.6-0.2-0.8-0.2c-0.1,0.1-0.1,0.2-0.2,0.3c0,0.1,0,0.2-0.1,0.3c-0.1,0.3-0.1,0.5,0,0.6c0,0,0,0,0.1,0   c0,0,0.1,0,0.1,0c0.1,0,1-0.4,1.1-0.8C44.7,26.2,44.7,26.1,44.5,26.1z M43.6,27L43.6,27C43.6,27,43.6,27,43.6,27   c-0.1,0-0.1-0.3,0-0.5c0-0.1,0.1-0.2,0.1-0.3c0-0.1,0.1-0.2,0.1-0.3c0,0,0.1,0,0.1,0c0.1,0,0.3,0.1,0.6,0.2c0.1,0,0.1,0.1,0.1,0.2   C44.6,26.5,43.9,26.9,43.6,27z"></path><path d="M59.1,28.2c-0.2,0-0.4,0.4-0.5,0.6l0,0c-0.2,0.5-0.2,0.8-0.1,1c0.1,0.1,0.1,0.1,0.2,0.1c0.1,0,0.2,0,0.2,0   c0.4-0.1,0.4-0.9,0.3-1.4C59.3,28.3,59.2,28.2,59.1,28.2z M58.9,29.7c-0.2,0-0.3,0-0.3,0c-0.1-0.1-0.1-0.3,0.1-0.8   c0.2-0.3,0.4-0.6,0.4-0.6c0,0,0,0,0,0c0,0,0,0,0,0.1C59.2,29.2,59.2,29.6,58.9,29.7z"></path><path d="M44.1,18.9c0.1,0,0.2,0,0.2,0c0.4-0.1,0.4-0.9,0.3-1.4c0-0.1-0.1-0.2-0.1-0.2c-0.2,0-0.4,0.4-0.5,0.6l0,0   c-0.2,0.5-0.2,0.8-0.1,1C44,18.9,44.1,18.9,44.1,18.9z M44.1,17.9c0.2-0.3,0.4-0.6,0.4-0.6c0,0,0,0,0,0c0,0,0,0,0,0.1   c0.1,0.8,0,1.2-0.2,1.3c-0.2,0-0.3,0-0.3,0C44,18.7,43.9,18.5,44.1,17.9z"></path><path d="M62.1,22.7c0.1,0,0.2,0.1,0.3,0.1c0.1,0,0.2,0,0.2-0.1c0.1-0.1,0.2-0.3,0.1-0.4c0-0.1,0-0.2,0-0.3c0-0.5-0.1-0.9-0.2-0.9   c-0.1,0-0.2,0.1-0.2,0.2l0,0c0,0-0.5,0.9-0.3,1.4C62,22.6,62,22.7,62.1,22.7z M62.4,21.2c0.1-0.1,0.1-0.1,0.1-0.1h0   c0.1,0,0.1,0.6,0.1,0.8c0,0.2,0,0.3,0,0.4c0,0.1,0,0.2-0.1,0.3c-0.1,0.1-0.2,0.1-0.4,0c0,0-0.1-0.1-0.1-0.1   C62,22.2,62.3,21.5,62.4,21.2z"></path><path d="M56,32.6c0.3,0.2,0.5,0.3,0.6,0.3c0,0,0.1,0,0.1,0c0.1-0.1,0.2-0.2,0.2-0.5c0-0.2,0-0.4,0-0.6c0-0.3,0-0.5-0.1-0.6   c-0.1,0-0.1,0-0.2,0.1c0,0-0.8,0.6-0.8,1.1C55.8,32.5,55.9,32.6,56,32.6z M56.7,31.4L56.7,31.4C56.7,31.4,56.8,31.4,56.7,31.4   c0.1,0,0.1,0.2,0.1,0.4c0,0.2,0,0.4,0,0.7c0,0.2,0,0.3-0.1,0.4c-0.1,0-0.2,0-0.6-0.3c-0.1,0-0.1-0.1-0.1-0.2   C56,32.1,56.5,31.6,56.7,31.4z"></path><path d="M43.5,21.9c0.3,0.2,0.5,0.3,0.6,0.3c0,0,0.1,0,0.1,0c0.1-0.1,0.2-0.2,0.2-0.5c0-0.2,0-0.4,0-0.6c0-0.3,0-0.5-0.1-0.6   c-0.1,0-0.1,0-0.2,0.1c0,0-0.8,0.6-0.8,1.1C43.4,21.7,43.4,21.8,43.5,21.9z M44.3,20.6L44.3,20.6C44.3,20.6,44.3,20.6,44.3,20.6   c0.1,0,0.1,0.2,0.1,0.4c0,0.2,0,0.4,0,0.7c0,0.2,0,0.3-0.1,0.4c-0.1,0-0.2,0-0.6-0.3c-0.1,0-0.1-0.1-0.1-0.2   C43.5,21.3,44.1,20.8,44.3,20.6z"></path><path d="M54.3,35c0.2,0.1,0.4,0.2,0.5,0.2c0.1,0,0.1,0,0.2,0c0.2-0.1,0.3-0.3,0.3-0.7l0-0.2c0-0.7,0-1.1-0.2-1.2   c-0.1,0-0.2,0-0.4,0.2l0,0c0,0-0.7,0.9-0.6,1.5C54.1,34.8,54.2,34.9,54.3,35z M54.8,33.3c0.2-0.2,0.3-0.2,0.3-0.2   c0.1,0.1,0.1,0.7,0.1,1.1l0,0.2c0,0.3-0.1,0.6-0.3,0.6c-0.1,0.1-0.4,0-0.6-0.2c-0.1,0-0.1-0.1-0.1-0.2   C54.2,34.2,54.8,33.4,54.8,33.3z"></path><path d="M43.9,27.8c-0.3-0.2-0.6-0.2-0.8-0.1c-0.2,0.1-0.3,0.4-0.3,0.8l0,0.2c0,0.7,0,1.1,0.3,1.2c0,0,0,0,0.1,0   c0.1,0,0.2-0.1,0.3-0.2l0,0c0,0,0.7-1,0.5-1.5C44,27.9,44,27.8,43.9,27.8z M43.4,29.5c-0.2,0.2-0.2,0.2-0.3,0.2   C43,29.6,43,29,43,28.6l0-0.2c0-0.3,0.1-0.6,0.2-0.6c0,0,0.1,0,0.2,0c0.1,0,0.3,0.1,0.5,0.2c0.1,0,0.1,0.1,0.1,0.2   C44,28.5,43.4,29.4,43.4,29.5z"></path><path d="M58.6,30.7L58.6,30.7L58.6,30.7c0,0-0.2,0.2-0.2,0.4c0,0.1,0.1,0.2,0.2,0.2c0,0,0.1,0,0.1,0c0.1,0,0.1,0,0.2-0.1   c0.1-0.1,0.2-0.3,0.1-0.5C58.9,30.8,58.8,30.7,58.6,30.7z M58.8,31.2c0,0-0.1,0.1-0.1,0c-0.1,0-0.1-0.1-0.1-0.1   c0-0.1,0.1-0.2,0.1-0.3c0.1,0,0.2,0,0.2,0C58.9,31,58.9,31.1,58.8,31.2z"></path><path d="M56.2,30.9c0.1,0,0.3-0.1,0.5-0.2c0.1-0.1,0.1-0.2,0.1-0.3c0-0.1,0-0.2-0.1-0.2c-0.1-0.1-0.2-0.1-0.3,0   c-0.1,0-0.5,0.2-0.6,0.5c0,0.1,0,0.1,0.1,0.2C56,30.9,56.1,30.9,56.2,30.9z M56,30.6c0-0.1,0.3-0.3,0.5-0.4l0,0c0,0,0,0,0.1,0   c0,0,0,0,0.1,0c0,0,0.1,0.1,0.1,0.2c0,0.1,0,0.1-0.1,0.2C56.5,30.7,56.2,30.9,56,30.6C56,30.7,56,30.6,56,30.6z"></path><path d="M44.8,23.6c0,0,0.1,0.1,0.2,0.1c0,0,0,0,0,0c0.2,0,0.3-0.3,0.4-0.6c0-0.1,0-0.2-0.1-0.3c-0.1-0.1-0.2-0.1-0.2-0.1   c-0.1,0-0.2,0.1-0.2,0.2C44.7,22.9,44.6,23.4,44.8,23.6z M44.9,22.9L44.9,22.9C44.9,22.8,44.9,22.8,44.9,22.9   c0.1-0.1,0.1-0.1,0.1-0.1c0.1,0,0.1,0,0.1,0.1c0,0,0.1,0.1,0.1,0.2c0,0.2,0,0.5-0.2,0.5c-0.1,0-0.1,0-0.1,0   C44.8,23.4,44.8,23.1,44.9,22.9z"></path><circle cx="47.5" cy="11.7" r="0.8"></circle><path d="M42,38.5c0.1,0.1,0.3,0.2,0.4,0.3c0.2,0.1,0.3,0.2,0.5,0.3c0.2,0.1,0.4,0.2,0.6,0.3c0.2,0.1,0.4,0.2,0.7,0.3   c0.2,0.1,0.5,0.2,0.7,0.2c0.2,0.1,0.5,0.1,0.7,0.2c0.2,0.1,0.5,0.1,0.7,0.1c0.2,0,0.4,0.1,0.7,0.1c0.2,0,0.4,0,0.6,0   c0.2,0,0.3,0,0.5,0c0.1,0,0.3,0,0.4,0c0.2,0,0.3,0,0.3,0s-0.1,0-0.3,0c-0.1,0-0.2,0-0.4,0c-0.1,0-0.3,0-0.5-0.1c-0.1,0-0.2,0-0.3,0   c-0.1,0-0.2,0-0.3,0c-0.2,0-0.4-0.1-0.6-0.1c-0.2-0.1-0.4-0.1-0.7-0.2c-0.2-0.1-0.5-0.1-0.7-0.2c-0.2-0.1-0.5-0.1-0.7-0.2   c-0.1,0-0.2-0.1-0.3-0.1c-0.1,0-0.2-0.1-0.3-0.1c-0.2-0.1-0.4-0.2-0.6-0.2c-0.2-0.1-0.4-0.2-0.5-0.2C42.3,38.6,42.2,38.5,42,38.5   c-0.1-0.1-0.2-0.2-0.3-0.3c-0.1-0.1-0.2-0.1-0.2-0.1c0,0-0.1,0-0.1,0s0.1,0.1,0.3,0.2C41.8,38.4,41.9,38.5,42,38.5z"></path><path d="M47.2,42.6c0.2,0,0.3,0,0.3,0S47.4,42.6,47.2,42.6c-0.1-0.1-0.2-0.1-0.4-0.1c-0.1,0-0.3-0.1-0.5-0.1   c-0.2,0-0.4-0.1-0.6-0.1c-0.2,0-0.4-0.1-0.6-0.1c-0.2-0.1-0.4-0.1-0.6-0.2c-0.2-0.1-0.4-0.1-0.7-0.2c-0.2-0.1-0.4-0.1-0.7-0.2   c-0.1,0-0.2-0.1-0.3-0.1c-0.1,0-0.2-0.1-0.3-0.1c-0.2-0.1-0.4-0.2-0.6-0.2c-0.2-0.1-0.4-0.2-0.5-0.2c-0.2-0.1-0.3-0.1-0.4-0.2   c-0.1-0.1-0.2-0.1-0.3-0.2c-0.2-0.1-0.3-0.2-0.3-0.2s0.1,0.1,0.3,0.2c0.1,0.1,0.2,0.1,0.3,0.2c0.1,0.1,0.3,0.2,0.4,0.3   c0.2,0.1,0.3,0.2,0.5,0.3c0.2,0.1,0.4,0.2,0.6,0.3c0.1,0,0.2,0.1,0.3,0.1c0.1,0,0.2,0.1,0.3,0.1c0.2,0.1,0.4,0.2,0.7,0.2   c0.2,0.1,0.5,0.1,0.7,0.2c0.2,0.1,0.4,0.1,0.7,0.1c0.2,0,0.4,0.1,0.6,0.1c0.2,0,0.4,0,0.6,0.1c0.2,0,0.3,0,0.5,0   C47,42.6,47.1,42.6,47.2,42.6z"></path><path d="M36.8,52.4c0.1,0.1,0.3,0.2,0.5,0.3c0.2,0.1,0.3,0.2,0.5,0.2c0.2,0.1,0.4,0.2,0.5,0.2c0.2,0.1,0.4,0.1,0.6,0.2   c0.2,0.1,0.4,0.1,0.5,0.2c0.2,0,0.4,0.1,0.5,0.1c0.2,0,0.3,0.1,0.5,0.1c0.1,0,0.3,0,0.4,0.1c0.1,0,0.2,0,0.3,0c0.2,0,0.3,0,0.3,0   s-0.1,0-0.3-0.1c-0.1,0-0.2,0-0.3-0.1c-0.1,0-0.2-0.1-0.4-0.1c-0.1,0-0.3-0.1-0.5-0.1c-0.2,0-0.3-0.1-0.5-0.2   c-0.2-0.1-0.3-0.1-0.5-0.2c-0.2-0.1-0.4-0.1-0.5-0.2c-0.2-0.1-0.4-0.1-0.5-0.2c-0.2-0.1-0.4-0.1-0.5-0.2c-0.2-0.1-0.3-0.2-0.5-0.2   c-0.2-0.1-0.3-0.1-0.4-0.2c-0.3-0.1-0.5-0.2-0.6-0.3c-0.2-0.1-0.2-0.1-0.2-0.1s0.3,0.2,0.8,0.6C36.5,52.2,36.7,52.3,36.8,52.4z"></path><path d="M35.8,54.9c0.1,0.1,0.3,0.2,0.4,0.2c0.2,0.1,0.3,0.2,0.5,0.2c0.2,0.1,0.3,0.2,0.5,0.2c0.2,0.1,0.3,0.1,0.5,0.2   c0.2,0.1,0.3,0.1,0.5,0.2c0.2,0,0.3,0.1,0.5,0.1c0.2,0,0.3,0.1,0.4,0.1c0.1,0,0.3,0,0.4,0c0.1,0,0.2,0,0.3,0c0.2,0,0.3,0,0.3,0   s-0.1,0-0.3,0c-0.1,0-0.2,0-0.3-0.1c-0.1,0-0.2-0.1-0.4-0.1c-0.1,0-0.3-0.1-0.4-0.1c-0.1-0.1-0.3-0.1-0.5-0.2   c-0.2-0.1-0.3-0.1-0.5-0.2c-0.2-0.1-0.3-0.1-0.5-0.2c-0.2-0.1-0.3-0.1-0.5-0.2c-0.2-0.1-0.3-0.1-0.5-0.2c-0.3-0.1-0.6-0.3-0.9-0.4   c-0.5-0.2-0.8-0.4-0.8-0.4s0.3,0.2,0.8,0.5C35.6,54.7,35.7,54.8,35.8,54.9z"></path><path d="M34,57.1c0.1,0.1,0.1,0.1,0.2,0.2c0.1,0.1,0.2,0.2,0.3,0.2c0.1,0,0.1,0.1,0.2,0.1c0.1,0,0.1,0.1,0.2,0.1   c0.1,0.1,0.3,0.2,0.5,0.2c0.1,0,0.2,0.1,0.3,0.1c0,0,0.1,0,0.1,0.1c0,0,0.1,0,0.1,0c0.2,0.1,0.4,0.1,0.6,0.2   c0.2,0.1,0.4,0.1,0.6,0.1c0.2,0,0.4,0.1,0.6,0.1c0.2,0,0.4,0.1,0.5,0.1c0.2,0,0.3,0,0.5,0c0.1,0,0.1,0,0.2,0c0.1,0,0.1,0,0.2,0   c0.1,0,0.2,0,0.3,0c0.2,0,0.3,0,0.3,0s-0.1,0-0.3,0c-0.1,0-0.2,0-0.3,0c-0.1,0-0.2,0-0.4-0.1c-0.1,0-0.3-0.1-0.5-0.1   c-0.2,0-0.3-0.1-0.5-0.1c-0.2,0-0.4-0.1-0.5-0.1c-0.1,0-0.2,0-0.3-0.1c-0.1,0-0.2-0.1-0.3-0.1c-0.2,0-0.4-0.1-0.5-0.2   c-0.2-0.1-0.4-0.1-0.5-0.2c-0.2-0.1-0.3-0.1-0.5-0.2c-0.2-0.1-0.3-0.1-0.4-0.2c-0.1,0-0.1-0.1-0.2-0.1c-0.1,0-0.1-0.1-0.2-0.1   C34.2,57.1,34.1,57.1,34,57.1c0-0.1-0.1-0.1-0.1-0.1c0,0-0.1,0-0.1,0s0,0,0,0.1C33.9,57,33.9,57,34,57.1z"></path><path d="M33.8,59c0.1,0.1,0.2,0.1,0.4,0.2c0.1,0.1,0.3,0.2,0.5,0.2c0.2,0.1,0.3,0.2,0.5,0.2c0.2,0.1,0.4,0.2,0.6,0.2   c0.2,0.1,0.4,0.1,0.6,0.2c0.1,0,0.2,0.1,0.3,0.1c0.1,0,0.2,0,0.3,0.1c0.1,0,0.2,0,0.3,0.1c0.1,0,0.2,0,0.3,0.1c0.1,0,0.2,0,0.3,0   c0.1,0,0.2,0,0.3,0c0.1,0,0.2,0,0.3,0c0.1,0,0.2,0,0.2,0c0.2,0,0.3,0,0.4,0c0.1,0,0.2,0,0.3,0c0.2,0,0.3,0,0.3,0s-0.1,0-0.3,0   c-0.1,0-0.2,0-0.3,0c-0.1,0-0.3,0-0.4-0.1c-0.2,0-0.3,0-0.5-0.1c-0.1,0-0.2,0-0.3,0c-0.1,0-0.2,0-0.3-0.1c-0.1,0-0.2,0-0.3-0.1   c-0.1,0-0.2,0-0.3-0.1c-0.1,0-0.2-0.1-0.3-0.1c-0.1,0-0.2-0.1-0.3-0.1c-0.2-0.1-0.4-0.1-0.6-0.2c-0.2-0.1-0.4-0.1-0.6-0.2   c-0.2-0.1-0.4-0.1-0.5-0.2c-0.2-0.1-0.3-0.1-0.5-0.2c-0.3-0.1-0.5-0.2-0.7-0.3c-0.2-0.1-0.3-0.1-0.3-0.1s0.1,0.1,0.2,0.2   C33.5,58.9,33.6,59,33.8,59z"></path><path d="M33.4,61.2c0.1,0.1,0.1,0.1,0.2,0.2c0.1,0.1,0.2,0.1,0.3,0.2c0.1,0.1,0.3,0.1,0.4,0.2c0.2,0.1,0.3,0.1,0.5,0.2   c0.2,0.1,0.4,0.1,0.5,0.2c0.1,0,0.2,0,0.3,0.1c0.1,0,0.2,0,0.3,0.1c0.2,0,0.4,0.1,0.6,0.1c0.1,0,0.2,0,0.3,0c0.1,0,0.2,0,0.3,0   c0.2,0,0.4,0,0.5,0c0.2,0,0.3,0,0.5,0c0.1,0,0.3,0,0.4,0c0.1,0,0.2,0,0.3,0c0.2,0,0.3,0,0.3,0s-0.1,0-0.3,0c-0.1,0-0.2,0-0.3,0   c-0.1,0-0.2,0-0.4,0c-0.1,0-0.3,0-0.5,0c-0.2,0-0.3,0-0.5-0.1c-0.1,0-0.2,0-0.3,0c-0.1,0-0.2,0-0.3,0c-0.2,0-0.4-0.1-0.6-0.1   c-0.1,0-0.2,0-0.3,0c-0.1,0-0.2,0-0.3-0.1c-0.1,0-0.2,0-0.3-0.1c-0.1,0-0.2,0-0.3-0.1c-0.2,0-0.3-0.1-0.5-0.1   c-0.2-0.1-0.3-0.1-0.4-0.2c-0.1-0.1-0.2-0.1-0.4-0.2C33.6,61.3,33.5,61.2,33.4,61.2c-0.1-0.1-0.2-0.2-0.2-0.2s0,0,0,0.1   C33.3,61.1,33.4,61.2,33.4,61.2z"></path><path d="M33.5,63.3c0.1,0.1,0.2,0.2,0.4,0.2c0.1,0.1,0.3,0.2,0.5,0.3c0.2,0.1,0.4,0.2,0.5,0.3c0.2,0.1,0.4,0.2,0.6,0.2   c0.1,0,0.2,0.1,0.3,0.1c0.1,0,0.2,0.1,0.3,0.1c0.1,0,0.2,0.1,0.3,0.1c0.1,0,0.2,0.1,0.3,0.1c0.2,0.1,0.4,0.1,0.6,0.1   c0.2,0,0.4,0.1,0.6,0.1c0.1,0,0.2,0,0.3,0c0.1,0,0.2,0,0.3,0c0.2,0,0.3,0,0.5,0c0.1,0,0.3,0,0.3,0c0.2,0,0.3,0,0.3,0s-0.1,0-0.3,0   c-0.1,0-0.2,0-0.3,0c-0.1,0-0.3,0-0.4,0c-0.1,0-0.2,0-0.3,0c-0.1,0-0.2,0-0.3,0c-0.2,0-0.4-0.1-0.6-0.1c-0.2,0-0.4-0.1-0.6-0.1   c-0.1,0-0.2-0.1-0.3-0.1c-0.1,0-0.2-0.1-0.3-0.1c-0.1,0-0.2-0.1-0.3-0.1c-0.1,0-0.2-0.1-0.3-0.1c-0.2-0.1-0.4-0.1-0.6-0.2   c-0.2-0.1-0.4-0.2-0.5-0.2c-0.2-0.1-0.3-0.1-0.5-0.2c-0.3-0.1-0.5-0.3-0.7-0.4c-0.2-0.1-0.3-0.1-0.3-0.1s0.1,0.1,0.2,0.2   C33.3,63.1,33.3,63.2,33.5,63.3z"></path><path d="M33,65.4c0,0,0.1,0.1,0.2,0.2c0.1,0.1,0.2,0.1,0.3,0.2c0.1,0.1,0.3,0.2,0.4,0.2c0.1,0,0.2,0.1,0.3,0.1   c0.1,0,0.2,0.1,0.3,0.1c0.2,0.1,0.4,0.1,0.6,0.2c0.2,0.1,0.4,0.1,0.7,0.2c0.1,0,0.2,0.1,0.3,0.1c0.1,0,0.2,0,0.3,0.1   c0.1,0,0.2,0,0.4,0.1c0.1,0,0.2,0,0.4,0c0.2,0,0.5,0,0.7,0.1c0.2,0,0.4,0,0.6,0c0.2,0,0.4,0,0.6,0c0.2,0,0.3,0,0.5,0   c0.1,0,0.3,0,0.4,0c0.2,0,0.3,0,0.3,0s-0.1,0-0.3,0c-0.1,0-0.2,0-0.4,0c-0.1,0-0.3,0-0.5,0c-0.2,0-0.4,0-0.6,0   c-0.2,0-0.4,0-0.6-0.1c-0.1,0-0.2,0-0.3,0c-0.1,0-0.2,0-0.3,0c-0.1,0-0.2,0-0.3,0c-0.1,0-0.2,0-0.3-0.1c-0.1,0-0.2,0-0.3-0.1   c-0.1,0-0.2,0-0.3-0.1c-0.2,0-0.4-0.1-0.7-0.2c-0.1,0-0.2-0.1-0.3-0.1c-0.1,0-0.2-0.1-0.3-0.1c-0.2-0.1-0.4-0.1-0.5-0.2   c-0.2-0.1-0.3-0.1-0.4-0.2c-0.1-0.1-0.2-0.1-0.3-0.2C33.1,65.4,33.1,65.4,33,65.4C33,65.3,32.9,65.3,33,65.4   C32.9,65.3,33,65.3,33,65.4z"></path><path d="M34.1,67.9c0.4,0.1,0.8,0.2,1.2,0.4c0.2,0.1,0.5,0.1,0.7,0.2c0.2,0.1,0.5,0.1,0.7,0.2c0.2,0.1,0.5,0.1,0.7,0.1   c0.2,0,0.5,0.1,0.7,0.1c0.5,0.1,0.9,0.1,1.3,0.1c0.4,0,0.7,0,0.9-0.1c0.1,0,0.2-0.1,0.2-0.1c0,0,0,0,0.1,0c0,0,0,0,0,0s0,0,0,0   c0,0,0,0-0.1,0c-0.1,0-0.1,0-0.2,0.1c-0.2,0-0.5,0-0.9,0c-0.4,0-0.8-0.1-1.3-0.2c-0.2,0-0.5-0.1-0.7-0.1c-0.2,0-0.5-0.1-0.7-0.2   c-0.2-0.1-0.5-0.1-0.7-0.2c-0.2-0.1-0.5-0.1-0.7-0.2c-0.5-0.1-0.9-0.2-1.3-0.3c-0.4-0.1-0.7-0.2-0.9-0.2c-0.2,0-0.3-0.1-0.3-0.1   s0.1,0,0.3,0.1C33.5,67.7,33.8,67.8,34.1,67.9z"></path><path d="M35.2,70.2c0.2,0.1,0.5,0.1,0.7,0.2c0.3,0.1,0.5,0.1,0.8,0.2c0.3,0.1,0.5,0.1,0.8,0.2c0.1,0,0.3,0,0.4,0.1   c0.1,0,0.3,0,0.4,0c0.3,0,0.5,0,0.8,0c0.1,0,0.3,0,0.4,0c0.1,0,0.3,0,0.4,0c0.2,0,0.5-0.1,0.7-0.2c0.2-0.1,0.4-0.1,0.5-0.2   c0.1,0,0.1-0.1,0.2-0.1c0.1,0,0.1-0.1,0.2-0.1c0.1-0.1,0.2-0.1,0.2-0.2c0,0,0.1-0.1,0.1-0.1s0,0-0.1,0.1c-0.1,0-0.1,0.1-0.2,0.2   c-0.1,0-0.1,0.1-0.2,0.1c-0.1,0-0.1,0.1-0.2,0.1c-0.2,0.1-0.3,0.1-0.5,0.2c-0.2,0-0.4,0.1-0.7,0.1c-0.1,0-0.2,0-0.4,0   c-0.1,0-0.3,0-0.4,0c-0.3,0-0.5,0-0.8,0c-0.1,0-0.3,0-0.4,0c-0.1,0-0.3,0-0.4-0.1c-0.3,0-0.5-0.1-0.8-0.1c-0.3-0.1-0.5-0.1-0.8-0.2   c-0.3-0.1-0.5-0.1-0.7-0.2c-0.2-0.1-0.4-0.1-0.6-0.2c-0.4-0.1-0.7-0.2-1-0.3c-0.2-0.1-0.4-0.1-0.4-0.1s0,0,0.1,0   c0.1,0,0.1,0.1,0.3,0.1c0.2,0.1,0.5,0.2,0.9,0.4C34.7,70.1,34.9,70.1,35.2,70.2z"></path><path d="M36.2,72.5c0.2,0.1,0.5,0.1,0.8,0.2c0.3,0.1,0.5,0.1,0.8,0.2c0.3,0,0.6,0.1,0.9,0.1c0.3,0,0.6,0.1,0.9,0.1   c0.1,0,0.3,0,0.4,0c0.1,0,0.3,0,0.4,0c0.3,0,0.5-0.1,0.8-0.1c0.1,0,0.2-0.1,0.4-0.1c0.1,0,0.2-0.1,0.3-0.1c0.1,0,0.2-0.1,0.3-0.1   c0.1-0.1,0.2-0.1,0.2-0.1c0.1-0.1,0.1-0.1,0.2-0.2c0.1,0,0.1-0.1,0.2-0.1c0.1-0.1,0.1-0.2,0.2-0.2c0-0.1,0.1-0.1,0.1-0.1   s0,0-0.1,0.1c0,0-0.1,0.1-0.2,0.2c0,0-0.1,0.1-0.2,0.1c-0.1,0-0.1,0.1-0.2,0.1c-0.1,0-0.2,0.1-0.2,0.1c-0.1,0-0.2,0.1-0.3,0.1   c-0.1,0-0.2,0.1-0.3,0.1c-0.1,0-0.2,0-0.3,0.1c-0.2,0-0.5,0.1-0.8,0.1c-0.3,0-0.5,0-0.8,0c-0.3,0-0.6,0-0.8-0.1   c-0.3,0-0.6-0.1-0.8-0.1c-0.3,0-0.6-0.1-0.8-0.1c-0.5-0.1-1-0.2-1.4-0.3c-0.4-0.1-0.8-0.2-1-0.2c-0.2-0.1-0.4-0.1-0.4-0.1   s0.1,0.1,0.4,0.1c0.2,0.1,0.6,0.2,1,0.3C35.7,72.4,35.9,72.5,36.2,72.5z"></path><path d="M38.9,75c0.3,0,0.6,0.1,0.9,0.1c0.1,0,0.3,0,0.4,0c0.1,0,0.3,0,0.4,0c0.3,0,0.6,0,0.9,0c0.1,0,0.1,0,0.2,0   c0.1,0,0.1,0,0.2,0c0.1,0,0.3-0.1,0.4-0.1c0.2-0.1,0.5-0.1,0.7-0.2c0.1,0,0.2-0.1,0.3-0.1c0,0,0.1,0,0.1-0.1c0,0,0.1-0.1,0.1-0.1   c0.2-0.1,0.3-0.2,0.4-0.3c0.1,0,0.1-0.1,0.1-0.1c0,0,0.1-0.1,0.1-0.1c0,0,0.1-0.1,0.1-0.1s0,0-0.1,0.1c-0.1,0-0.1,0.1-0.2,0.2   c-0.1,0.1-0.2,0.2-0.4,0.2c0,0-0.1,0-0.1,0.1c0,0-0.1,0-0.1,0.1c-0.1,0-0.2,0.1-0.3,0.1c-0.1,0-0.2,0.1-0.3,0.1   c-0.1,0-0.2,0.1-0.3,0.1c-0.1,0-0.2,0-0.4,0.1c-0.1,0-0.1,0-0.2,0c-0.1,0-0.1,0-0.2,0c-0.3,0-0.5,0-0.8,0c-0.1,0-0.3,0-0.4,0   c-0.1,0-0.3,0-0.4,0c-0.3,0-0.6-0.1-0.9-0.1c-0.3,0-0.6-0.1-0.8-0.1c-0.3-0.1-0.5-0.1-0.8-0.2c-0.2-0.1-0.5-0.1-0.7-0.2   c-0.4-0.1-0.8-0.2-1-0.3c-0.2-0.1-0.4-0.1-0.4-0.1s0.1,0.1,0.4,0.2c0.2,0.1,0.6,0.2,1,0.4c0.4,0.1,0.9,0.3,1.4,0.4   C38.4,74.9,38.6,75,38.9,75z"></path><path d="M40.2,76.9c0.2,0,0.5,0,0.8,0c0.3,0,0.5,0,0.8,0c0.3,0,0.5,0,0.8-0.1c0.1,0,0.1,0,0.2,0c0.1,0,0.1,0,0.2,0   c0.1,0,0.3,0,0.4-0.1c0.2-0.1,0.5-0.1,0.7-0.2c0.1,0,0.2-0.1,0.3-0.1c0.1,0,0.2-0.1,0.3-0.1c0.1-0.1,0.2-0.1,0.3-0.1   c0.1-0.1,0.1-0.1,0.2-0.2c0.1-0.1,0.1-0.1,0.2-0.2c0.1,0,0.1-0.1,0.1-0.1c0.1-0.1,0.1-0.2,0.2-0.2c0-0.1,0.1-0.1,0.1-0.1   s0,0-0.1,0.1c0,0-0.1,0.1-0.2,0.2c0,0-0.1,0.1-0.1,0.1c-0.1,0-0.1,0.1-0.2,0.1c-0.1,0-0.1,0.1-0.2,0.1c-0.1,0-0.2,0.1-0.3,0.1   c-0.1,0-0.2,0.1-0.3,0.1c-0.1,0-0.2,0.1-0.3,0.1c-0.2,0.1-0.4,0.1-0.7,0.2c-0.2,0-0.5,0.1-0.7,0.1c-0.3,0-0.5,0.1-0.8,0.1   c-0.3,0-0.5,0-0.8,0c-0.3,0-0.5,0-0.8,0c-0.5,0-1,0-1.4,0c-0.4,0-0.7,0-1-0.1c-0.2,0-0.4,0-0.4,0s0.1,0,0.4,0.1   c0.2,0,0.6,0.1,1,0.1c0.2,0,0.4,0,0.6,0.1C39.7,76.9,39.9,76.9,40.2,76.9z"></path><path d="M42.6,78.7c0.3,0,0.5,0,0.8,0c0.3,0,0.5,0,0.8-0.1c0.3,0,0.5-0.1,0.8-0.2c0.1,0,0.2-0.1,0.4-0.1c0.1,0,0.2-0.1,0.3-0.1   c0.2-0.1,0.4-0.2,0.6-0.3c0.2-0.1,0.3-0.2,0.4-0.4c0.1-0.1,0.1-0.1,0.2-0.2c0-0.1,0.1-0.1,0.1-0.2c0,0,0,0,0-0.1c0,0,0,0,0-0.1   c0,0,0-0.1,0.1-0.1c0-0.1,0-0.1,0-0.1s0,0-0.1,0.1c0,0,0,0.1-0.1,0.1c0,0,0,0,0,0.1c0,0,0,0-0.1,0.1c0,0-0.1,0.1-0.1,0.1   c-0.1,0-0.1,0.1-0.2,0.2c-0.1,0.1-0.3,0.2-0.4,0.3c-0.2,0.1-0.4,0.2-0.6,0.3c-0.1,0-0.2,0.1-0.3,0.1c-0.1,0-0.2,0.1-0.3,0.1   c-0.2,0.1-0.5,0.1-0.7,0.1c-0.3,0-0.5,0.1-0.8,0.1c-0.3,0-0.5,0-0.8,0c-0.3,0-0.5,0-0.8,0c-0.2,0-0.5,0-0.7,0c-0.2,0-0.4,0-0.6,0   c-0.4,0-0.7-0.1-1-0.1c-0.2,0-0.4,0-0.4,0s0.1,0,0.4,0.1c0.2,0,0.6,0.1,0.9,0.2c0.2,0,0.4,0.1,0.6,0.1c0.2,0,0.5,0,0.7,0.1   C42,78.7,42.3,78.7,42.6,78.7z"></path><path d="M45.5,80.1c0.3,0,0.5,0,0.8-0.1c0.3,0,0.5-0.1,0.7-0.1c0.2,0,0.5-0.1,0.7-0.2c0.1,0,0.2-0.1,0.3-0.1c0.1,0,0.2-0.1,0.3-0.1   c0.1,0,0.2-0.1,0.3-0.1c0.1,0,0.1-0.1,0.2-0.1c0.1-0.1,0.2-0.2,0.3-0.2c0.1-0.1,0.1-0.1,0.2-0.2c0,0,0.1-0.1,0.1-0.1s0,0-0.1,0.1   c0,0-0.1,0.1-0.2,0.2c-0.1,0.1-0.2,0.1-0.3,0.2c-0.1,0-0.1,0.1-0.2,0.1c-0.1,0-0.2,0.1-0.3,0.1c-0.1,0-0.2,0.1-0.3,0.1   c-0.1,0-0.2,0.1-0.3,0.1c-0.2,0-0.4,0.1-0.7,0.1c-0.2,0-0.5,0.1-0.7,0.1c-0.2,0-0.5,0-0.8,0c-0.3,0-0.5,0-0.8,0c-0.2,0-0.5,0-0.7,0   c-0.2,0-0.5,0-0.7,0c-0.2,0-0.4,0-0.6,0c-0.4,0-0.7,0-0.9,0c-0.2,0-0.3,0-0.3,0s0.1,0,0.3,0.1c0.2,0,0.5,0.1,0.9,0.1   c0.2,0,0.4,0,0.6,0.1c0.2,0,0.4,0,0.7,0c0.2,0,0.5,0,0.7,0C45,80.1,45.2,80.1,45.5,80.1z"></path></g></svg>