<svg fill="#ffff33" xmlns="http://www.w3.org/2000/svg" xmlns:xlink="http://www.w3.org/1999/xlink" version="1.1" x="0px" y="0px" viewBox="20 20 60 60" enable-background="new 0 0 100 100" xml:space="preserve"><path stroke="black" d="M63.344,29.609c-0.049,0.164-4.91,16.478-2.297,26.606c0.276,1.069-0.367,2.16-1.437,2.436  c-0.167,0.043-0.335,0.064-0.501,0.064c-0.89,0-1.702-0.599-1.935-1.501c-2.895-11.218,2.126-28.052,2.341-28.763  c0.32-1.058,1.436-1.657,2.493-1.335C63.065,27.436,63.663,28.552,63.344,29.609z M61.098,67.147c1.607-0.117,2.816-1.515,2.7-3.122  c-0.117-1.608-1.515-2.817-3.123-2.7c-1.607,0.117-2.817,1.514-2.7,3.122C58.092,66.055,59.491,67.265,61.098,67.147z   M39.239,66.708c0.117,1.607,1.516,2.816,3.123,2.7c1.608-0.117,2.816-1.515,2.7-3.123c-0.116-1.608-1.515-2.817-3.123-2.7  C40.332,63.702,39.123,65.101,39.239,66.708z M48.22,34.233c-2.426-3.735-8.509-6.56-16.138-3.935  c-3.892,1.34-6.248,3.45-7.003,6.271c-1.236,4.616,2.582,9.073,2.745,9.261c0.725,0.833,1.988,0.921,2.821,0.196  c0.833-0.725,0.921-1.988,0.196-2.821c-0.674-0.775-2.47-3.468-1.898-5.601c0.39-1.457,1.884-2.643,4.441-3.523  c5.596-1.927,9.874-0.142,11.481,2.332c1.166,1.794,0.887,3.771-0.785,5.565c-3.348,3.592-8.845,10.339-8.045,15.165  c0.269,1.622,1.193,2.897,2.672,3.69c0.301,0.161,0.624,0.238,0.943,0.238c0.714,0,1.404-0.383,1.765-1.056  c0.522-0.974,0.156-2.186-0.818-2.708c-0.437-0.234-0.562-0.497-0.615-0.819c-0.297-1.794,1.759-6.134,7.025-11.784  C49.919,41.578,50.384,37.566,48.22,34.233z"/></svg>