<svg fill="#BE5B0C" xmlns="http://www.w3.org/2000/svg" xmlns:xlink="http://www.w3.org/1999/xlink" version="1.1" x="0px" y="0px" viewBox="0 0 100 100" enable-background="new 0 0 100 100" xml:space="preserve"><path d="M17.481,38.862c0.264,0.922,1.225,1.455,2.147,1.191l2.596-0.743l2.94,10.274c0.286,0.999,1.327,1.577,2.325,1.291  l7.951-2.275c0.999-0.286,1.576-1.327,1.291-2.326l-2.94-10.274l48.345-13.833c0.922-0.264,1.455-1.225,1.191-2.147l-0.81-2.831  c-0.264-0.922-1.225-1.455-2.147-1.191L32.027,29.832L27.69,14.674c-0.286-0.999-1.327-1.577-2.326-1.291l-0.741,0.212  c-0.486,0.139-0.896,0.468-1.137,0.913l-5.103,9.427c-0.234,0.433-0.289,0.94-0.154,1.413l2.23,7.793l-2.596,0.743  c-0.922,0.264-1.455,1.225-1.192,2.147L17.481,38.862z"></path><path d="M85.726,56.905v-5.957H37.876v3.196H14.274c0,0,8.847,12.008,23.602,12.008c4.119,0,7.458,3.339,7.458,7.458  c0,4.119-3.339,7.458-7.458,7.458v5.621h18.113c0-3.21,2.602-5.812,5.812-5.812c3.21,0,5.812,2.602,5.812,5.812h18.113v-5.957  c-6.58,0-11.914-5.334-11.914-11.914S79.146,56.905,85.726,56.905z"></path><polygon points="40.318,46.216 68.032,36.502 67.105,34.18 "></polygon><polygon points="78.334,39.559 50,47.279 78.888,41.997 "></polygon></svg>
