<svg fill="#BE5B0C" xmlns="http://www.w3.org/2000/svg" viewBox="0 0 24 24" enable-background="new 0 0 24 24" x="0px" y="0px"><g><path d="M11.636 17.767c-.256 0-.512-.098-.707-.293-.391-.391-.391-1.023 0-1.414l11.075-11.074v-2.986h-2.986l-11.076 11.074c-.391.391-1.023.391-1.414 0s-.391-1.024 0-1.415l11.368-11.366c.188-.188.442-.293.708-.293h4.4c.553 0 1 .448 1 1v4.4c0 .265-.105.52-.293.707l-11.368 11.367c-.196.195-.451.293-.707.293zM3.201 23.998c-.819 0-1.639-.312-2.263-.936-.603-.602-.935-1.406-.935-2.262s.332-1.66.935-2.263l5.867-5.866c.391-.391 1.023-.391 1.414 0s.391 1.023 0 1.414l-5.867 5.866c-.225.226-.349.526-.349.849s.124.623.349.849c.468.467 1.229.467 1.697 0l5.868-5.866c.391-.391 1.023-.391 1.414 0s.391 1.023 0 1.414l-5.868 5.866c-.623.624-1.442.935-2.262.935zM4 23.259c-.552 0-1-.447-1-1v-5.134c0-.553.448-1 1-1s1 .447 1 1v5.134c0 .553-.448 1-1 1zM7 21.134c-.552 0-1-.447-1-1v-5.134c0-.553.448-1 1-1s1 .447 1 1v5.134c0 .553-.448 1-1 1zM9.069 15.934c-.256 0-.512-.098-.707-.293-.391-.391-.391-1.023 0-1.414l7.701-7.7c.391-.391 1.023-.391 1.414 0s.391 1.023 0 1.414l-7.701 7.7c-.195.195-.451.293-.707.293zM4 12c-1.103 0-2-.897-2-2s.897-2 2-2 2 .897 2 2-.897 2-2 2zm0-2h.01-.01zm0 0h.01-.01zm0 0h.01-.01zm0 0h.01-.01zm0 0h.01-.01zm0-.001h.01-.01zm0 0h.01-.01zm0 0h.01-.01zM14 22c-1.103 0-2-.897-2-2s.897-2 2-2 2 .897 2 2-.897 2-2 2zm0-2.002v.002-.002zM14 20.864c-.256 0-.512-.098-.707-.293l-10.065-10.064c-.391-.391-.391-1.023 0-1.414s1.023-.391 1.414 0l10.065 10.064c.391.391.391 1.023 0 1.414-.195.196-.451.293-.707.293z"></path></g></svg>