<svg fill="#BE5B0C" xmlns="http://www.w3.org/2000/svg" xmlns:xlink="http://www.w3.org/1999/xlink" version="1.1" x="0px" y="0px" viewBox="0 0 64 64" enable-background="new 0 0 64 64" xml:space="preserve"><g><path fill="#BE5B0C" d="M24.922,46.135l-1.706-0.003c-2.613-0.006-5.315-0.01-7.972,0.029c-0.5,0.008-1.238,0.375-1.496,0.889   c-0.802,1.594-1.545,3.246-2.264,4.843l-0.242,0.538c-0.11,0.244-0.001,0.533,0.244,0.644c0.065,0.029,0.133,0.043,0.2,0.043   c0.186,0,0.363-0.106,0.444-0.287l0.242-0.538c0.714-1.587,1.453-3.229,2.246-4.805c0.067-0.133,0.429-0.35,0.641-0.353   c2.651-0.04,5.347-0.036,7.956-0.029l1.707,0.003h0c0.269,0,0.486-0.218,0.487-0.486C25.409,46.354,25.191,46.135,24.922,46.135z"></path><path fill="#BE5B0C" d="M24.837,36.966c0.065,0.029,0.133,0.043,0.199,0.043c0.186,0,0.363-0.106,0.444-0.287l0.21-0.467   c0.724-1.611,1.473-3.277,2.277-4.876c0.067-0.134,0.429-0.35,0.641-0.353c2.634-0.04,5.316-0.035,7.909-0.03l1.753,0.003   c0.001,0,0.001,0,0.001,0c0.269,0,0.487-0.218,0.487-0.486s-0.218-0.487-0.486-0.487l-1.753-0.003   c-2.596-0.005-5.283-0.01-7.926,0.03c-0.5,0.007-1.238,0.374-1.497,0.889c-0.814,1.617-1.567,3.294-2.296,4.914l-0.21,0.467   C24.483,36.568,24.592,36.856,24.837,36.966z"></path><path fill="#BE5B0C" d="M61.81,55.468c-0.702-1.843-1.429-3.709-2.133-5.516l-0.035-0.09c-0.721-1.848-1.465-3.76-2.181-5.643   c-0.584-1.533-1.783-2.344-3.469-2.344c-2.262,0.005-3.932,0.008-5.481,0.008h-0.291l0.051-0.287   c0.119-0.656,0.018-1.409-0.297-2.237c-0.695-1.822-1.412-3.665-2.108-5.452l-0.206-0.529c-0.675-1.731-1.368-3.512-2.036-5.268   c-0.584-1.533-1.783-2.344-3.469-2.344c-5.698,0.011-7.638,0.012-13.34-0.002c-2.182,0-3.119,1.29-3.523,2.372   c-0.553,1.482-1.142,2.987-1.712,4.442c-0.377,0.966-0.768,1.963-1.146,2.95l-0.294,0.762c-0.476,1.231-0.969,2.505-1.384,3.821   c-0.157,0.495-0.195,1.009-0.111,1.487l0.05,0.286l-0.29,0c-1.4-0.001-2.938-0.005-4.942-0.01c-2.181,0-3.119,1.289-3.522,2.371   c-0.554,1.483-1.143,2.987-1.713,4.442l-0.157,0.402c-0.328,0.839-0.663,1.697-0.99,2.548l-0.294,0.761   c-0.488,1.265-0.977,2.532-1.384,3.821c-0.252,0.799-0.195,1.61,0.161,2.285c0.365,0.693,1.028,1.216,1.869,1.472   c0.661,0.202,1.395,0.31,2.124,0.314c2.347,0.012,4.646,0.014,6.389,0.014l6.025-0.002l3.786,0l4.799-0.004   c0.487,0,0.917-0.033,1.316-0.099c0.668-0.112,1.24-0.307,1.696-0.58l0.126-0.076l0.125,0.077c0.246,0.15,0.515,0.27,0.801,0.357   c0.662,0.202,1.396,0.31,2.124,0.314c2.347,0.012,4.646,0.014,6.389,0.014l6.025-0.002l3.786,0l4.799-0.004   c0.487,0,0.917-0.033,1.316-0.099c1.323-0.221,2.241-0.762,2.728-1.61C62.271,57.749,62.278,56.699,61.81,55.468z M21.041,40.833   c0.393-1.24,0.872-2.48,1.336-3.68l0.296-0.767c0.375-0.979,0.764-1.973,1.142-2.935c0.572-1.463,1.164-2.976,1.725-4.478   c0.232-0.622,0.528-0.812,1.271-0.812h0.001c5.701,0.013,7.639,0.013,13.355,0.002c0.701,0,0.985,0.187,1.218,0.799   c0.71,1.864,1.446,3.751,2.158,5.579l0.09,0.231c0.695,1.784,1.412,3.625,2.103,5.44c0.221,0.583,0.218,0.937,0.141,1.073   c-0.084,0.143-0.401,0.332-1.045,0.44c-0.265,0.044-0.568,0.066-0.926,0.067c-2.364,0.003-3.487,0.004-4.795,0.004l-9.81,0.002   c-1.739,0-4.036-0.002-6.375-0.014c-0.5-0.002-0.998-0.075-1.441-0.21c-0.221-0.067-0.384-0.176-0.446-0.299   C20.967,41.147,21.001,40.963,21.041,40.833z M32.48,56.695c-0.036,0.22-0.048,0.439-0.037,0.653l0.008,0.149l-0.13,0.075   c-0.136,0.078-0.393,0.187-0.842,0.262c-0.267,0.045-0.57,0.067-0.925,0.067l-4.795,0.004l-3.786,0l-6.025,0.002   c-1.739,0-4.035-0.001-6.375-0.014c-0.501-0.002-0.999-0.075-1.441-0.21c-0.218-0.067-0.379-0.174-0.444-0.295   c-0.072-0.132-0.038-0.317,0.004-0.447c0.39-1.236,0.87-2.478,1.334-3.679l0.296-0.767c0.375-0.979,0.764-1.973,1.142-2.935   c0.582-1.487,1.169-2.988,1.725-4.478c0.232-0.623,0.528-0.812,1.271-0.812h0.001c5.701,0.014,7.639,0.014,13.355,0.002   c0.701,0,0.985,0.187,1.218,0.8c0.721,1.892,1.468,3.808,2.19,5.66l0.036,0.095c0.701,1.801,1.427,3.662,2.124,5.495   c0.037,0.097,0.066,0.184,0.09,0.263l0.016,0.054L32.48,56.695z M34.27,51.637l-0.552,1.446l-0.236-0.578l-1.028-2.642   c-0.683-1.756-1.384-3.557-2.065-5.337l-0.126-0.33l6.886-0.002l-0.124,0.329c-0.524,1.393-1.073,2.8-1.607,4.165l-0.056,0.144   C35.001,49.75,34.63,50.699,34.27,51.637z M59.708,57.399c-0.077,0.138-0.394,0.328-1.041,0.435   c-0.267,0.045-0.57,0.067-0.926,0.067l-4.795,0.004l-3.786,0l-6.025,0.002c-1.739,0-4.035-0.001-6.375-0.014   c-0.501-0.002-0.999-0.075-1.441-0.21c-0.086-0.026-0.163-0.059-0.235-0.099l-0.132-0.076l0.01-0.151   c0.011-0.185,0.008-0.377-0.012-0.571l-0.005-0.051l0.016-0.048l1.251-3.424l0.297-0.768c0.375-0.978,0.763-1.972,1.141-2.935   c0.582-1.487,1.169-2.988,1.725-4.478c0.233-0.623,0.529-0.812,1.271-0.812h0.001c5.705,0.014,7.641,0.014,13.356,0.002   c0.701,0,0.985,0.187,1.218,0.8c0.721,1.893,1.467,3.808,2.189,5.66l0.036,0.095c0.701,1.801,1.427,3.662,2.124,5.495   C59.757,56.813,59.81,57.226,59.708,57.399z"></path><path fill="#BE5B0C" d="M52.11,46.135l-1.706-0.003c-2.612-0.005-5.312-0.011-7.972,0.029c-0.5,0.008-1.237,0.375-1.495,0.889   c-0.802,1.594-1.546,3.246-2.264,4.843l-0.242,0.538c-0.11,0.244-0.001,0.533,0.244,0.644c0.065,0.029,0.132,0.043,0.2,0.043   c0.185,0,0.362-0.106,0.444-0.287l0.242-0.538c0.714-1.587,1.452-3.229,2.245-4.805c0.067-0.133,0.43-0.35,0.642-0.353   c2.65-0.041,5.345-0.036,7.955-0.029l1.706,0.003c0.001,0,0.001,0,0.001,0c0.268,0,0.487-0.218,0.487-0.486   C52.595,46.354,52.378,46.135,52.11,46.135z"></path><path fill="#BE5B0C" d="M7.604,34.086c0.31,0.852,0.712,1.664,1.138,2.526l0.407,0.829c0.117,0.244,0.359,0.395,0.63,0.395   c0.272,0,0.514-0.152,0.632-0.398l0.407-0.845c0.426-0.876,0.828-1.704,1.145-2.563c0.365-0.986,0.954-1.568,1.972-1.949   c0.851-0.318,1.669-0.717,2.535-1.139l0.817-0.395c0.249-0.119,0.402-0.365,0.398-0.642c-0.004-0.276-0.163-0.517-0.414-0.629   c-0.321-0.144-0.65-0.281-0.98-0.419c-1.474-0.618-2.998-1.257-3.971-2.484c-0.637-0.804-1.031-1.773-1.447-2.798   c-0.157-0.385-0.313-0.77-0.482-1.145c-0.227-0.5-1.043-0.504-1.273-0.005L8.68,23.379c-0.494,1.078-0.961,2.097-1.471,3.076   c-0.185,0.355-0.543,0.707-0.913,0.899c-0.974,0.507-1.992,0.974-3.069,1.469l-0.978,0.451c-0.248,0.115-0.403,0.356-0.405,0.63   c-0.002,0.274,0.151,0.518,0.398,0.636l0.836,0.406c0.856,0.419,1.664,0.814,2.502,1.124C6.623,32.454,7.228,33.057,7.604,34.086z    M3.184,29.915l0.45-0.207c1.089-0.5,2.117-0.972,3.113-1.49c0.542-0.282,1.05-0.784,1.326-1.312   c0.522-1.001,0.994-2.031,1.493-3.121l0.181-0.394c0.077,0.183,0.151,0.367,0.226,0.551c0.424,1.044,0.863,2.123,1.586,3.037   c1.128,1.423,2.769,2.111,4.357,2.777c0.139,0.058,0.277,0.116,0.414,0.174l-0.286,0.138c-0.844,0.412-1.642,0.8-2.45,1.103   c-1.276,0.477-2.084,1.278-2.544,2.523c-0.3,0.814-0.692,1.621-1.107,2.475l-0.165,0.343L9.615,36.18   c-0.413-0.836-0.804-1.626-1.096-2.428c-0.472-1.291-1.299-2.116-2.602-2.596c-0.791-0.292-1.578-0.677-2.411-1.085L3.184,29.915z"></path><path fill="#BE5B0C" d="M26.18,13.082l0.836,0.406c0.856,0.419,1.664,0.814,2.502,1.124c1.042,0.384,1.648,0.988,2.024,2.018   c0.311,0.851,0.713,1.664,1.139,2.526l0.407,0.83c0.118,0.243,0.359,0.394,0.629,0.394c0.273,0,0.514-0.153,0.633-0.399   l0.414-0.861c0.423-0.871,0.822-1.693,1.137-2.546c0.364-0.984,0.953-1.567,1.971-1.948c0.854-0.319,1.673-0.719,2.541-1.142   l0.811-0.393c0.25-0.119,0.403-0.364,0.399-0.64c-0.003-0.276-0.162-0.517-0.414-0.63c-0.321-0.144-0.649-0.281-0.979-0.419   c-1.474-0.618-3-1.257-3.971-2.484c-0.638-0.806-1.032-1.776-1.449-2.803c-0.157-0.384-0.312-0.767-0.48-1.14   c-0.227-0.502-1.046-0.503-1.274-0.005l-0.442,0.961c-0.493,1.076-0.959,2.092-1.469,3.069c-0.185,0.354-0.543,0.707-0.912,0.899   c-0.979,0.51-2.001,0.979-3.084,1.476l-0.963,0.443c-0.248,0.115-0.404,0.357-0.405,0.631   C25.781,12.721,25.934,12.964,26.18,13.082z M27.557,12.258c1.094-0.502,2.127-0.976,3.128-1.498   c0.542-0.282,1.05-0.785,1.326-1.312c0.521-0.999,0.992-2.027,1.49-3.114l0.184-0.401c0.076,0.181,0.15,0.364,0.224,0.546   c0.424,1.045,0.863,2.126,1.588,3.041c1.127,1.423,2.769,2.111,4.357,2.777c0.139,0.058,0.277,0.116,0.414,0.174l-0.281,0.136   c-0.846,0.413-1.645,0.803-2.454,1.105c-1.277,0.477-2.085,1.278-2.544,2.522c-0.298,0.808-0.687,1.61-1.1,2.458l-0.174,0.361   l-0.162-0.33c-0.413-0.836-0.805-1.627-1.097-2.428c-0.472-1.291-1.298-2.116-2.602-2.597c-0.791-0.292-1.578-0.677-2.411-1.085   l-0.322-0.157L27.557,12.258z"></path><path fill="#BE5B0C" d="M4.673,13.819c0.352,0.168,0.691,0.334,1.021,0.496c1.037,0.508,2.016,0.987,3.027,1.36   c1.3,0.48,2.054,1.231,2.522,2.514c0.376,1.03,0.865,2.017,1.381,3.061c0.162,0.327,0.327,0.661,0.494,1.007   c0.125,0.259,0.382,0.421,0.671,0.421c0.291,0,0.549-0.163,0.673-0.425c0.17-0.357,0.337-0.701,0.5-1.037   c0.515-1.06,1.001-2.061,1.384-3.096c0.453-1.229,1.189-1.955,2.458-2.43c1.031-0.385,2.024-0.87,3.075-1.383l0.99-0.479   c0.266-0.127,0.428-0.389,0.424-0.684c-0.004-0.294-0.173-0.551-0.442-0.67c-0.39-0.174-0.788-0.341-1.187-0.508   c-1.805-0.757-3.67-1.539-4.869-3.051c-0.784-0.99-1.288-2.229-1.775-3.428c-0.19-0.467-0.379-0.932-0.584-1.386   c-0.244-0.538-1.11-0.54-1.356-0.005l-0.536,1.166c-0.6,1.309-1.167,2.546-1.788,3.737c-0.233,0.447-0.686,0.894-1.153,1.137   c-1.189,0.619-2.429,1.188-3.742,1.791l-1.181,0.544c-0.265,0.122-0.43,0.379-0.432,0.671S4.409,13.693,4.673,13.819z    M6.268,12.811c1.325-0.608,2.576-1.182,3.786-1.812c0.642-0.335,1.242-0.929,1.566-1.55c0.633-1.213,1.204-2.46,1.81-3.782   l0.323-0.702c0.125,0.294,0.246,0.591,0.366,0.888c0.513,1.262,1.043,2.568,1.914,3.667c1.354,1.708,3.337,2.54,5.255,3.344   c0.24,0.101,0.479,0.201,0.715,0.302l-0.551,0.267c-1.03,0.502-2.003,0.977-2.99,1.346c-1.52,0.568-2.483,1.523-3.03,3.004   c-0.366,0.99-0.842,1.97-1.346,3.008c-0.098,0.202-0.198,0.408-0.299,0.618c-0.098-0.2-0.195-0.396-0.291-0.589   c-0.504-1.02-0.981-1.984-1.339-2.963c-0.561-1.537-1.546-2.52-3.1-3.094c-0.965-0.356-1.923-0.825-2.937-1.321   c-0.194-0.095-0.391-0.192-0.592-0.289L6.268,12.811z"></path></g></svg>