<svg fill="#DE6A0F" xmlns="http://www.w3.org/2000/svg" xmlns:xlink="http://www.w3.org/1999/xlink" version="1.1" x="0px" y="0px" viewBox="0 0 144.083 144" enable-background="new 0 0 144.083 144" xml:space="preserve"><path d="M122.89,41.076l2.336-11.716l-4.688,1.289c-1.845,0.507-11.209,3.197-14.391,6.378c-6.483,6.483-4.49,19.08-3.924,21.983  c-0.932,1.712-3.125,4.645-7.405,5.117c-2.482-2.261-5.427-4.02-8.67-5.129c3.668-0.941,6.392-4.267,6.392-8.225  c0-4.688-3.813-8.5-8.5-8.5s-8.5,3.813-8.5,8.5c0,2.852,1.416,5.373,3.577,6.916c-0.322-0.013-0.645-0.024-0.97-0.024H65.931  c-0.325,0-0.646,0.012-0.968,0.024c2.161-1.543,3.577-4.064,3.577-6.916c0-4.688-3.813-8.5-8.5-8.5s-8.5,3.813-8.5,8.5  c0,3.958,2.723,7.282,6.391,8.225c-3.248,1.111-6.197,2.874-8.682,5.141c-4.175-0.389-6.417-3.103-7.445-4.871  c0.475-2.314,2.827-15.542-3.873-22.242c-3.181-3.18-12.545-5.87-14.391-6.377l-4.688-1.289l2.337,11.715l-11.797-2.76l1.235,4.798  c0.489,1.899,3.096,11.541,6.386,14.832c3.073,3.073,7.874,4.632,14.269,4.632c2.023,0,3.872-0.162,5.301-0.34  c1.524,2.622,4.251,5.601,8.361,7.057c-2.398,3.814-3.792,8.322-3.792,13.15c0,2.185,0.287,4.304,0.82,6.322l-8.449,8.451v7.549h6  v-5.064l4.928-4.928c1.084,1.882,2.403,3.611,3.925,5.141l-7.174,7.175v7.55h6v-5.065l5.923-5.923  c3.739,2.267,8.123,3.573,12.805,3.573h12.217c4.684,0,9.066-1.307,12.807-3.573l5.924,5.924v5.064h6v-7.551l-7.176-7.174  c1.522-1.529,2.842-3.26,3.926-5.141l4.928,4.928v5.064h6v-7.549l-8.449-8.449c0.533-2.021,0.82-4.139,0.82-6.324  c0-4.854-1.408-9.381-3.829-13.207c4.032-1.481,6.712-4.431,8.213-7.023c1.453,0.187,3.375,0.363,5.486,0.363c0,0,0,0,0.001,0  c6.394,0,11.194-1.559,14.269-4.632c3.289-3.291,5.897-12.933,6.387-14.832l1.236-4.798L122.89,41.076z M84.041,48.274  c1.379,0,2.5,1.121,2.5,2.5c0,1.378-1.121,2.5-2.5,2.5s-2.5-1.122-2.5-2.5C81.541,49.396,82.662,48.274,84.041,48.274z   M60.04,48.274c1.378,0,2.5,1.121,2.5,2.5c0,1.378-1.122,2.5-2.5,2.5s-2.5-1.122-2.5-2.5C57.54,49.396,58.662,48.274,60.04,48.274z   M21.257,53.703c-0.95-0.95-2.248-3.946-3.365-7.237l11.006,2.575l-2.217-11.112c3.192,1.133,6.092,2.425,7.009,3.341  c3.328,3.328,3.123,10.717,2.544,14.963c-1.264,0.17-3.026,0.345-4.951,0.345C28.02,56.577,23.632,56.078,21.257,53.703z   M78.148,101.225H65.931c-10.354,0-18.778-8.425-18.778-18.78c0-10.354,8.424-18.778,18.778-18.778h12.217  c10.354,0,18.779,8.424,18.779,18.778C96.927,92.8,88.502,101.225,78.148,101.225z M122.824,53.703  c-2.376,2.375-6.764,2.874-10.026,2.874c-1.925,0-3.687-0.175-4.95-0.345c-0.579-4.249-0.784-11.636,2.543-14.963  c0.916-0.916,3.817-2.209,7.01-3.341l-2.217,11.112l11.002-2.574C125.125,49.596,123.834,52.691,122.824,53.703z"></path></svg>