<svg fill="#DE6A0F" xmlns="http://www.w3.org/2000/svg" xmlns:xlink="http://www.w3.org/1999/xlink" version="1.1" x="0px" y="0px" viewBox="0 0 66 66" enable-background="new 0 0 66 66" xml:space="preserve"><g><path d="M13,28.3c1.2,1.6,1.1,1.3,5,4.4l0.2,0.2c0.7-1.3,1.8-2.6,3.1-3.6c-3.6-3.2-4.4-3.6-4.1-4.8c0.2-0.7,5.4-6.8,5.9-7.4   c0.2-0.3,0.4-0.6,0.5-1.1c0.1-0.1,0.2-0.1,0.3-0.2c2-1.2,4.2-3.1,5.9-4.7c0.1-0.1,0.1-0.3,0-0.4c-0.1-0.1-0.3-0.2-0.4-0.1l0,0   c-1.7,1.2-3.9,2.6-5.9,3.4c-0.2-0.5-0.5-0.9-1-1.3c1.5-2,3.9-3.9,6.3-3.3l0,0c0.1,0,0.2,0,0.2-0.1c0.1-0.1,0-0.2-0.1-0.3   c-2.9-1.5-6.6,0.7-8.8,3.1c-0.7,0.1-1.4,0.5-1.9,1.2c-5.4,7.4-5.8,7.4-6.4,9.8C11.7,24.7,11.9,26.6,13,28.3z"/><path d="M17.2,36.7c0-0.7,0.1-1.4,0.3-2c-7.4-0.9-11.7-6.3-14-13.3l0,0c0,0-0.1-0.1-0.1-0.1c-0.1,0-0.1,0.1-0.1,0.1   C5.1,29.1,9.4,35,17.2,36.7z"/><path d="M42.1,15.9c0.1,0.1,0.2,0.1,0.3,0.2c0.1,0.4,0.3,0.7,0.6,1.1c7.6,9.3,7.6,6.9,1.8,12.2c1.3,1.1,2.4,2.3,3.1,3.6l0.2-0.2   c3.8-3,5.1-3.6,5.9-6.4c0.3-1,0.3-2.1,0-3.1c-0.5-2.3-5.6-8.9-6.5-9.9c-0.5-0.6-1.1-0.9-1.8-1l-0.2-0.2c-0.9-0.9-2.1-1.9-3.3-2.5   c-1.9-1-3.9-1.1-5.3-0.4c-0.1,0-0.1,0.1-0.1,0.2c0,0.1,0.2,0.2,0.3,0.1c2.5-0.7,4.8,1.2,6.3,3.2c0,0-0.1,0-0.1,0.1   c-0.4,0.3-0.7,0.8-0.9,1.2c-2-0.8-4.1-2.2-5.9-3.4l0,0c-0.1-0.1-0.3-0.1-0.4,0c-0.1,0.1-0.1,0.3,0,0.4   C37.8,12.8,40.1,14.7,42.1,15.9z"/><path d="M48.5,34.6c0.2,0.7,0.3,1.3,0.3,2c7.7-1.6,12.1-7.6,13.9-15.3c0,0,0-0.1-0.1-0.1c-0.1,0-0.1,0-0.1,0.1l0,0   C60.2,28.3,55.8,33.8,48.5,34.6z"/><path d="M4.4,37.4c2.3-0.2,5.4-0.1,7.6,0.6c4.8,1.6,3.2,1.1,6.8,2.1c-0.7-0.9-1.2-1.7-1.4-2.5L17,37.4c-0.7-0.1-0.7-0.1-4.6-1.2   c-2.4-0.7-5.8-0.4-8.2-0.1c-1.3,0.2-2.2,0.3-2.9,2c-0.4,1.1-0.5,2.3-0.2,3.3c0,0,0,0.1,0.1,0.1c0.1,0,0.1,0,0.1-0.1l0,0   c0.1-1,0.3-2.1,0.8-2.9C2.9,37.4,3.2,37.5,4.4,37.4z"/><path d="M64.2,37.3c-0.6-0.9-1.5-1-2.5-1.2c-2.4-0.3-5.8-0.6-8.2,0.1c-3.9,1.1-3.9,1.1-4.6,1.2l-0.3,0.1c-0.2,0.8-0.6,1.7-1.4,2.5   c3.6-1,2-0.5,6.8-2.1c2.2-0.7,5.3-0.7,7.6-0.6c1,0.1,2.7,0.1,3,4l0,0c0,0,0,0.1,0.1,0.1c0.1,0,0.1,0,0.1-0.1   C65.2,39.8,64.9,38.2,64.2,37.3z"/><path d="M60.7,44.8c-1.6-1.2-3.8-2.6-5.7-3.9c-0.6-0.4-1.3-0.6-2-0.7c-0.9-0.1-1.4,0-5.4,0.2l-0.6,0c-1.4,1.5-3.6,2.9-6.5,4.4   c-0.6,0.3-1.2,0.5-1.8,0.7c0.2,0,8.6,0.8,8.7,0.8c0.7,0.1,1.3,0.6,1.6,1.4c0.6,1.4,0.2,0.5,1.4,3.4c-1.6,1.1-3.1,1.4-4.4,3.2   c1.3,0.1,2.7-0.3,3.9-0.8c0,0,0.1,0,0.1,0c0,0,0,0.1,0,0.1c-1.1,0.7-2.6,1.4-3.9,1.5c0.6,1.1,2.4,3.4,5,1.2c3.3-2.8,3-2.2,2.1-4.7   c-2-5.5-2.5-7.3-5.2-8c-0.5-0.1-2.5-0.4-3-0.5c0.5-0.1,7.1-0.9,7.6-0.8c0.4,0,0.8,0.2,1.2,0.4c0,0,4.1,2.7,5.7,3.6   c1.3,0.7,1.8,2.2,1.5,3.5c-0.1,0.5-0.3,1.1-0.5,1.6l0,0c0,0,0,0.1,0,0.1c0,0,0.1,0,0.1,0c0.4-0.4,0.8-0.9,1.1-1.4   C63,48.6,62.5,46.1,60.7,44.8z"/><path d="M19.1,40.5c-4.4-0.3-3.9-0.3-4.9-0.3c-1.1-0.1-2.2,0.2-3.1,0.8c-2.3,1.5-4.2,2.8-5.7,3.9c-1.8,1.3-2.4,3.8-1.2,5.6   c0.4,0.5,0.7,0.9,1.1,1.4c0,0,0.1,0,0.1,0c0.1,0,0.1-0.1,0.1-0.1l0,0c-0.1-0.6-0.4-1.1-0.5-1.6c-0.3-1.3,0.2-2.8,1.5-3.5   c1.7-1,5.7-3.6,5.7-3.6c0.6-0.3,1.2-0.4,1.8-0.4c1.4,0.2,4.6,0.5,7,0.8c-0.5,0.1-2.5,0.3-3,0.5c-1.5,0.4-2.8,1.5-3.4,3.2   c-1.7,4.8-1.8,4.8-1.8,4.8c-0.9,2.5-1.1,1.9,2.1,4.7c2.6,2.2,4.3-0.2,5-1.2c-0.5,0-1-0.2-1.4-0.3c-0.9-0.3-1.7-0.7-2.5-1.2   c0,0,0-0.1,0-0.1c0,0,0.1,0,0.1,0c0.8,0.4,1.7,0.6,2.5,0.8c0.4,0.1,0.9,0.1,1.3,0.1c-1.3-1.8-3.7-2.7-3.7-2.7s-0.3-0.2-0.6-0.5   c1.1-2.7,0.8-2,1.4-3.4c0.4-0.8,0.9-1.3,1.6-1.4c0.2,0,8.5-0.8,8.7-0.8C25.1,44.8,21.1,42.6,19.1,40.5z"/><path d="M47.8,36.7c0-4-3.8-7.8-9.1-9.4c0.6-1.6-0.3-3.5-1.3-4.9c-0.1-0.2-0.3-0.2-0.5-0.1c-0.2,0.1-0.3,0.4-0.2,0.6l0,0   c0.5,1,1,2.7,0.5,3.7c-0.1,0.1-0.2,0.2-0.3,0.3c-1.3-0.3-2.6-0.4-3.9-0.4c-1.4,0-2.7,0.1-3.9,0.4c-0.1-0.1-0.2-0.2-0.3-0.3   c-0.6-1,0-2.6,0.5-3.7l0,0c0.1-0.2,0-0.4-0.1-0.5c-0.2-0.1-0.4-0.1-0.6,0.1c-1,1.3-1.8,3.1-1.4,4.7c0,0,0,0.1,0.1,0.1   c-5.3,1.6-9.1,5.4-9.1,9.4c0,3.8,11.5,12.5,21.8,7.3C43.8,42.1,47.8,39.4,47.8,36.7z"/></g></svg>