<?xml version="1.0" encoding="utf-8"?><!DOCTYPE svg PUBLIC "-//W3C//DTD SVG 1.1//EN" "http://www.w3.org/Graphics/SVG/1.1/DTD/svg11.dtd"><svg version="1.1" xmlns="http://www.w3.org/2000/svg" xmlns:xlink="http://www.w3.org/1999/xlink" x="0px" y="0px" viewBox="0 0 83.487 100" enable-background="new 0 0 83.487 100" xml:space="preserve"><path fill="#010101" d="M65.156,63.339c-3.578,0-6.906,1.041-9.728,2.814l-8.994-4.319h5.621l17.753-39.646L70.104,0L43.773,45.267
	h-1.776L14.482,0l-0.887,2.366v19.527l17.456,37.574l4.734,2.072l-6.804,4.438l-0.512,0.407l0.036,0.041
	c-2.911-1.947-6.409-3.086-10.175-3.086C8.205,63.339,0,71.547,0,81.67C0,91.795,8.205,100,18.329,100s18.33-8.204,18.33-18.329
	c0-3.04-0.751-5.899-2.061-8.424l6.661-6.53l7.917,5.993c-1.49,2.65-2.349,5.704-2.349,8.961c0,10.125,8.206,18.329,18.33,18.329
	s18.331-8.204,18.331-18.329C83.487,71.547,75.28,63.339,65.156,63.339z M18.327,90.534c-4.885,0-8.858-3.976-8.858-8.861
	c0-4.889,3.974-8.861,8.858-8.861c4.888,0,8.863,3.973,8.863,8.861C27.19,86.558,23.215,90.534,18.327,90.534z M42.293,61.244
	c-2.938,0-5.324-2.386-5.324-5.325s2.385-5.325,5.324-5.325c2.94,0,5.325,2.386,5.325,5.325S45.233,61.244,42.293,61.244z
	 M65.156,90.534c-4.884,0-8.856-3.976-8.858-8.861c0-4.889,3.975-8.861,8.858-8.861c4.885,0,8.862,3.973,8.862,8.861
	C74.019,86.558,70.041,90.534,65.156,90.534z"></path></svg>