<svg fill="#990000" xmlns="http://www.w3.org/2000/svg" xmlns:xlink="http://www.w3.org/1999/xlink" version="1.1" x="0px" y="0px" viewBox="0 0 100 100" enable-background="new 0 0 100 100" xml:space="preserve"><g><path fill="none" d="M56.489,42.643c-0.804-0.763-1.62-1.537-2.615-2.481c-0.18,2.215,1.114,3.997,0.638,5.991   c0.347-0.264,0.922-0.573,0.597-0.843c-0.538-0.447-0.151-0.64,0.043-0.92C55.547,43.821,56.108,43.38,56.489,42.643z"></path><path fill="none" d="M50.222,50.254c-0.749-2.536-2.751-2.283-4.859-2.38c0.894,1.931,1.853,3.51,3.423,4.838   C49.107,51.605,49.802,50.946,50.222,50.254z"></path><path fill="none" d="M54.424,51.059c0.049-0.745,0.591-0.971,1.039-1.289c1.249-0.888,2.082-2.083,2.657-3.47   c0.136-0.327,0.434-0.671,0.146-1.136c-0.47,0.25-0.522,0.751-0.695,1.143c-0.632,1.433-1.601,2.565-2.915,3.4   c-0.233,0.148-0.482,0.439-0.875,0.108c0.454-0.974,1.714-1.335,2.047-2.447c-2.593,1.117-4.399,3.018-5.892,5.288   c1.07-0.586,2.228-0.721,3.361-0.958C53.73,51.607,54.388,51.611,54.424,51.059z"></path><path fill="none" d="M51.154,49.166c1.516-0.927,2.443-2.163,2.076-4.151c-1.513,0.079-2.845-0.825-4.561-0.818   C49.661,45.882,49.633,47.839,51.154,49.166z"></path><path fill="none" d="M46.889,44.486c-0.812,0.033-1.22,0.586-1.457,1.966c-0.017,0.097,0.051,0.209,0.105,0.406   c1-0.057,1.985,0.118,3.019,0.247c0.073-0.467-0.03-0.732-0.159-0.963C48.026,45.476,48.039,44.439,46.889,44.486z"></path><path fill="none" d="M57.739,36.795c-1.043-2.248-2.467-3.812-5.009-4.193c-1.242-0.186-2.511-0.458-3.693,0.022   c-3.007,1.219-5.863,2.715-8.139,5.114c-0.729,0.768-1.134,1.717-1.633,2.799c0.75-0.104,1.217-0.455,1.666-0.785   c1.208-0.888,2.596-1.415,3.951-1.997c1.075-0.463,2.131-0.456,2.96,0.569c0.115,0.142,0.213,0.333,0.505,0.343   c0.153-0.678-0.233-1.542,0.535-2.063c0.029,0.631-0.094,1.243,0.324,1.888c0.257-0.861-0.257-1.757,0.511-2.6   c0.065,0.705,0.062,1.247,0.177,1.763c0.111,0.498,0.011,1.086,0.502,1.521c-0.255-3.252-0.122-3.855,1.035-4.462   c0.101,1.327,0.908,2.507,0.435,3.869c0.425,0.046,0.48-0.553,0.885-0.286c0.187,0.419-0.277,0.814-0.024,1.305   c0.101-0.241,0.176-0.442,0.267-0.635c0.419-0.88,0.787-0.916,1.386-0.112c0.444,0.596,0.934,1.15,1.484,1.645   c1.031,0.93,1.976,1.935,2.854,3.259C58.914,41.233,58.764,39.002,57.739,36.795z"></path><path fill="none" d="M35.666,33.634c-2.05,0.098-3.68,1.507-5.566,2.162c-0.238,0.083-0.432,0.328-0.615,0.527   c-1.029,1.118-2.026,2.265-3.079,3.359c-0.51,0.531-0.673,1.067-0.523,1.793c0.165,0.797,0.212,1.62,0.291,2.434   c0.336,3.45,0.701,6.883,2.024,10.148c0.487,1.202,1.119,2.203,2.16,2.961c1.8,1.311,3.754,2.368,5.691,3.453   c1.007,0.564,2.078,0.496,3.196,0.365c0.037-0.399,0.067-0.737-0.265-1.102c-1.727,0.004-3.405-0.379-4.741-1.692   c-1.21-1.19-2.655-2.204-3.04-4.036c1.012,0.954,2.027,1.867,3.137,2.688c1.5,1.109,2.542,1.521,3.961,1.166   c-1.588-0.365-3.086-0.547-3.842-2.053c1.073,0.264,1.967,1.115,3.294,1.037c-0.81-1.688-2.007-2.544-3.708-2.583   c-1.001-0.023-1.902-0.119-2.241-1.24c-0.515-1.702-0.753-3.441-0.234-5.175c0.571-1.909,1.194-3.818,3.321-4.952   c-1.257-0.118-1.92,0.756-2.879,0.907c-0.094-0.857,0.735-1.016,1.144-1.617c-0.862,0.152-1.4,0.761-2.227,0.852   c0.115-0.2,0.146-0.324,0.227-0.384c1.846-1.385,3.777-2.505,6.234-1.978c0.361,0.078,0.808,0.217,0.758-0.494   c-1.186-0.307-2.358-0.051-3.63,0.039c0.615-0.669,1.345-0.634,2.015-0.792c0.667-0.158,1.404,0.374,2.125-0.197   c-1.202-0.607-2.364-0.034-3.504-0.282c1.322-0.667,2.609-1.42,4.214-1.045c0.907-1.179,1.989-2.163,3.232-3.071   C40.349,33.416,37.981,33.523,35.666,33.634z"></path><path fill="none" d="M33.911,45.038c-1.244,2.07-1.874,4.262-1.353,6.692c0.295,1.376,0.343,1.435,1.748,1.43   c2.734-0.011,5.221,0.679,7.344,2.486c0.411,0.35,0.906,0.601,1.358,0.904c0.965,0.648,1.919,0.771,2.858-0.035   c-0.644-0.124-1.059-0.537-1.366-1.092c-0.47-0.85-1.175-1.403-2.075-1.775c-1.153-0.476-2.31-0.925-3.519-1.24   c-0.351-0.091-0.792-0.066-0.996-0.503c0.152-0.301,0.469-0.218,0.698-0.27c-0.576-0.56-1.464-0.18-2.097-0.77   c0.837-0.665,1.706-0.027,2.712-0.153c-1.619-0.679-3.092-0.767-4.662-0.429c0.571-0.92,0.571-0.92,3.023-0.763   c-1.235-1.185-2.657,0.014-3.972-0.252c1.619-1.452,3.352-1.182,5.173-0.239c-0.046-0.323-0.05-0.436-0.08-0.541   c-0.759-2.721-0.052-5.353,3.133-6.035c0.152-0.033,0.305-0.068,0.451-0.12c1.84-0.653,3.525-1.588,5.105-2.723   c-0.705-1.092-1.018-1.236-2.003-0.931c-0.259,0.08-0.507,0.199-0.752,0.317c-3.366,1.617-6.536,3.604-9.882,5.259   C34.404,44.431,34.116,44.698,33.911,45.038z"></path><path fill="none" d="M45.264,61.096c0.137,0.031,0.326-0.005,0.443-0.082c1.185-0.778,2.494-1.365,3.566-2.351   c-0.315,0.115-0.631,0.23-0.976,0.356c-0.094-0.162-0.177-0.287-0.241-0.421c-0.047-0.099-0.07-0.211-0.118-0.362   c1.524-1.298,3.498-1.59,5.244-2.391c-1.354,0.09-2.614,0.55-3.94,0.803c1.414-1.499,3.759-0.988,5.17-2.495   c-1.192,0.484-2.456,0.434-3.667,0.679c-1.449,0.293-2.714,0.931-3.707,2.057c-0.154,0.174-0.338,0.323-0.516,0.473   c-1.088,0.917-2.248,1.166-3.548,0.43c-0.882-0.5-1.758-1-2.52-1.678c-0.701-0.625-1.514-1.017-2.563-1.267   c1.029,2.075,2.249,3.88,2.628,6.022C42.159,61.039,43.727,60.75,45.264,61.096z"></path><path fill="none" d="M52.19,40.953c-1.723-0.811-3.425-0.963-5.099,0.138c-0.422,0.277-0.86,0.53-1.298,0.781   c-1.322,0.755-2.702,1.37-4.188,1.733c-1.399,0.342-2.014,1.281-2.138,2.686c-0.217,2.463,1.585,5.013,3.982,5.529   c1.723,0.371,2.28,0.405,3.088,0.188c-0.045-0.173-0.17-0.256-0.337-0.267c-1.646-0.109-2.911-1.016-4.119-2.006   c-0.789-0.647-1.135-1.477-0.903-2.542c0.11-0.501,0.158-1.056-0.238-1.641c0.862-0.005,0.943-1.367,1.959-0.791   c-0.005-0.499,0.165-0.809,0.663-0.415c0.357,0.282,0.626,0.676,0.939,1.025c1.143-1.852,2.243-2.39,4.438-2.171   c0.934,0.093,1.817,0.41,2.72,0.642c0.482,0.124,0.97,0.343,1.489-0.073c0.003-0.797-0.387-1.543-0.491-2.343   C52.626,41.165,52.408,41.055,52.19,40.953z"></path><path fill="none" d="M49.45,20.24c1.372,1.056,2.709,1.353,4.163,0.207c0.147-0.116,0.357-0.152,0.538-0.223   c3.351-1.31,6.841-1.428,10.359-1.123c1.31,0.114,2.61,0.406,3.901,1.172c-0.629,0.038-0.604,0.398-0.511,0.813   c-0.979-0.142-1.88-0.272-2.925-0.423c0.813,0.522,1.791,0.412,2.384,1.405c-1.233-0.284-2.284-0.519-3.332-0.768   c-1.128-0.268-2.138,0.581-3.281,0.318c-0.481-0.111-1.009-0.026-1.515-0.017c-1.294,0.022-2.749,0.359-3.712,0.859   c2.576-0.385,5.108-1.013,7.856-0.5c-0.428,0.488-0.957,0.225-1.187,0.666c0.301,0.083,0.722,0.068,0.854,0.257   c0.549,0.783,1.28,0.53,1.992,0.466c2.294-0.207,4.594-0.15,6.89-0.086c1.888,0.053,3.446,0.804,4.631,2.336   c0.815,1.053,1.57,2.132,2.109,3.351c0.415,0.938,0.979,1.772,1.708,2.49c1.284,1.265,2.123,2.784,2.529,4.529   c0.32,1.372,0.856,2.668,1.312,3.991c0.199,0.578,0.456,1.143,0.94,1.639c0.79-0.835,1.537-1.618,2.276-2.408   c0.272-0.291,0.436-0.645,0.514-1.034c0.522-2.591,0.385-5.19,0-7.775c-0.103-0.689-0.362-1.368-0.265-2.069   c0.198-1.436-0.451-2.358-1.629-3.073c-2.596-1.577-5.139-3.247-7.854-4.615c-3.209-1.616-6.289-3.425-9.142-5.62   c-1.675-1.288-3.522-2.287-5.509-3.03c-1.065-0.398-2.123-0.47-3.202-0.128c-2.523,0.8-5.068,1.534-7.548,2.467   c-2.633,0.99-5.017,2.441-7.631,4.014c0.943,0.376,1.634,0.629,2.306,0.926C48.143,19.555,48.876,19.798,49.45,20.24z    M83.045,29.871c-0.962-0.552-1.515-1.189-1.976-2.13C82.265,28.017,82.823,28.62,83.045,29.871z"></path><path fill="none" d="M29.699,68.343c1.301,0.238,2.633,0.342,3.912,0.661c4.576,1.143,9.172,2.06,13.904,2.35   c2.805,0.172,5.586,0.364,8.386,0.041c3.039-0.35,5.197-1.903,6.485-4.666c0.086-0.184,0.289-0.394,0.031-0.719   c-0.892,0.597-1.895,0.986-2.895,1.391c-3.471,1.404-7.045,2.193-10.811,1.981c-2.514-0.142-4.814-1.876-5.595-4.284   c-0.211-0.015-0.44-0.036-0.67-0.046c-0.778-0.032-1.557-0.046-2.334-0.097c-0.317-0.021-0.629-0.144-0.681-0.521   c-0.044-0.326,0.2-0.482,0.451-0.61c0.242-0.124,0.483-0.253,0.733-0.36c0.957-0.412,1.917-0.817,3.065-1.304   c-0.578-0.319-0.975-0.222-1.356-0.226c-1.402-0.016-2.805-0.006-4.207-0.016c-0.864-0.006-1.72-0.094-2.482-0.544   c-2.827-1.67-5.957-2.914-7.978-5.741c-0.455,1.182-0.48,3.006-0.172,4.402c0.494,2.236,1.179,4.443,1.012,6.785   C28.41,68.039,28.494,68.122,29.699,68.343z"></path><path fill="none" d="M56.28,28.425c-1.626,0.183-3.251,0.332-4.892,0.355c-2.111,0.03-4.184,0.32-6.144,1.198   c-0.851,0.381-1.732,0.709-2.625,0.978c-1.007,0.304-1.55,0.942-1.744,1.987c0.866,0.409,1.746,0.726,2.39,1.424   c1.367-0.992,2.861-1.581,4.267-2.332c1.704-0.911,3.523-0.884,5.355-0.52c0.609,0.121,1.191,0.372,1.796,0.514   c1.081,0.253,1.891,0.873,2.547,1.743c2.5,3.313,3.13,7.052,2.507,11.067c-0.511,3.289-1.863,6.259-3.61,9.05   c-0.821,1.311-1.526,2.764-2.878,3.641c-3.331,2.162-6.607,4.425-10.293,5.978c-0.163,0.069-0.388,0.092-0.432,0.39   c0.188,0.022,0.371,0.061,0.554,0.061c4.245-0.01,8.36-0.804,12.384-2.106c1.299-0.42,2.386-1.227,3.169-2.309   c1.347-1.861,2.626-3.786,3.312-6.013c1.4-4.541,1.35-9.148,0.391-13.744c-0.307-1.473-1.093-2.831-2.025-4.036   c-1.027-1.327-1.577-2.702-1.237-4.434C59.499,29.159,58.489,28.176,56.28,28.425z"></path><path fill="none" d="M48.777,53.664c-1.696-0.659-3.327-0.591-4.962-0.674c0.95,1.061,2.018,1.977,2.089,3.49   C46.708,55.453,47.803,54.705,48.777,53.664z"></path><path fill="none" d="M59.422,61.749c-1.856,0.466-3.615,1.198-5.451,1.699c-3.122,0.851-6.312,1.327-9.588,1.678   c-0.054,0.418,0.053,0.707,0.264,0.95c1.173,1.349,2.598,2.176,4.433,2.262c2.327,0.109,4.565-0.351,6.805-0.891   c2.642-0.637,5.026-1.801,7.302-3.268c3.066-1.976,4.212-4.866,4.148-8.351c-0.059-3.202-0.584-6.347-1.285-9.468   c-0.613-2.731-1.384-5.446-1.283-8.281c0.055-1.557-0.438-2.934-1.259-4.178c-0.767-1.161-1.804-2.011-3.35-1.859   c-0.205,0.626-0.041,1.122,0.138,1.649c0.3,0.885,1.029,1.454,1.499,2.211c1.477,2.38,2.109,5.033,2.236,7.764   c0.169,3.622,0.026,7.244-1.237,10.718c-0.052,0.144-0.127,0.289-0.028,0.444c0.426-0.189,0.418-0.854,1.14-0.918   c-0.3,0.853-0.226,1.757-0.471,2.509c-0.277,0.85-0.18,1.42,0.433,2.008C62.702,60.031,61.283,61.282,59.422,61.749z"></path><path fill="none" d="M82.924,53.331c1.492-1.864,2.342-3.936,1.991-6.382c-0.194-1.347-0.361-2.699-0.563-4.045   c-0.039-0.263-0.151-0.529-0.283-0.763c-1.084-1.915-1.724-3.994-2.282-6.105c-0.364-1.38-1-2.622-2.011-3.64   c-0.975-0.982-1.704-2.111-2.266-3.372c-0.543-1.217-1.31-2.299-2.198-3.291c-0.731-0.815-1.635-1.29-2.743-1.382   c-0.815-0.068-1.627-0.142-2.447-0.151c-4.962-0.054-9.863,0.601-14.765,1.245c-1.35,0.177-2.708,0.342-3.995,0.816   c-0.795,0.292-1.594,0.618-1.995,1.562c2.558-0.109,5.031-0.203,7.503-0.405c2.06-0.169,2.989,0.664,3.327,2.729   c0.037,0.228,0.065,0.457,0.111,0.792c1.246,0.114,2.324,0.509,3.101,1.37c0.672,0.745,1.431,0.989,2.37,0.932   c0.31-0.019,0.623,0.011,0.934,0.029c3.328,0.193,6.321,1.259,8.877,3.437c0.418,0.356,0.917,0.676,1.095,1.436   c-0.556-0.213-0.842-0.528-1.173-0.775c-0.185-0.138-0.431-0.391-0.579-0.348c-0.889,0.258-1.479-0.359-2.147-0.691   c-1.874-0.93-3.852-1.465-5.925-1.659c-0.546-0.051-1.107-0.199-1.662,0.049c0.577,0.366,1.238,0.293,1.857,0.412   c3.031,0.582,6,1.28,7.899,4.173c-0.331,0.194-0.496,0.576-0.779,0.912c0.793,0.865,1.932,1.476,2.183,2.763   c-1.143-0.739-2.02-1.792-3.257-2.368c0.213,0.303,0.45,0.579,0.714,0.827c0.912,0.856,1.745,1.775,2.426,2.831   c0.657,1.02,0.886,2.235,1.557,3.259c0.306,0.467,0.309,1.112,0.629,1.619c1.137,1.8,2.767,3.275,3.359,5.444   C82.401,54.201,82.612,53.721,82.924,53.331z"></path><path fill="none" d="M42.005,81.471c0.801-0.203,1.506-0.561,2.111-1.21c-1.668-0.821-3.262-1.602-4.851-2.391   c-0.388-0.193-0.782-0.363-1.22-0.367c-2.622-0.021-5.036-0.944-7.478-1.732c-0.486-0.157-1.015-0.324-1.409-0.962   c1.228,0.079,2.193,0.65,3.143,0.706c-0.001-0.484-0.31-0.861-0.226-1.279c0.378-0.318,0.753,0.121,1.058-0.148   c-0.446-0.404-1.283-0.218-1.579-1.07c1.003-0.012,1.756,0.615,2.737,0.664c-0.488-1.13-1.94-0.602-2.457-1.624   c0.669-0.258,1.132,0.357,1.785,0.283c-0.431-0.806-0.535-1.619-0.768-2.421c-1.221-0.203-2.419-0.353-3.593-0.61   c-1.759-0.386-1.997-0.691-1.868-2.469c0.172-2.378-0.508-4.6-1.106-6.846c-0.327,0.957,0.249,1.908,0.108,2.917   c-1.702-1.139-1.821-2.813-1.909-4.691c-0.409,1.345-0.305,2.574-0.736,3.909c-0.709-1.443-0.064-2.739-0.256-3.988   c-0.547,1.787-0.643,3.63-0.669,5.684c-1.332-2.439-0.145-7.707,2.532-11.975c-0.295-0.125-0.419,0.137-0.574,0.274   c-0.776,0.686-1.265,1.57-1.681,2.501c-1.008,2.255-1.545,4.647-2.096,7.039c-0.194,0.843-0.195,1.738-0.676,2.525   c-0.324-1.728,0.224-3.397,0.393-5.091c-0.408,0.979-0.666,2.001-0.803,3.031c-0.275,2.065-0.74,4.168,0.496,6.122   c0.025,0.04-0.041,0.138-0.08,0.254c-0.322,0.062-0.435-0.113-0.526-0.279c-0.584-1.057-1.137-2.122-1.391-3.324   c-0.439-2.082-0.533-4.169-0.182-6.268c0.721-4.317,2.693-7.857,6.508-10.182c0.638-0.389,0.831-0.781,0.751-1.488   c-0.271-2.374-0.491-4.753-0.733-7.165c-0.883-0.047-1.67,0.357-2.502,0.523c-2.917,0.582-5.496,1.874-7.884,3.64   c-1.35,0.998-2.242,2.365-3.336,3.572c-1.864,2.054-3.103,4.47-4.161,6.991c-0.504,1.202-0.779,2.505-0.474,3.775   c0.5,2.079,1.06,4.163,2.253,5.985c2.27,3.469,4.853,6.626,8.108,9.283c2.839,2.317,6.106,3.871,9.145,5.823   c0.387,0.248,0.844,0.416,1.291,0.536c3.158,0.849,6.318,1.693,9.594,1.975C38.556,82.057,40.291,81.906,42.005,81.471z    M16.008,48.326c-0.045-1.074,0.869-1.598,2.453-1.278C17.721,47.938,16.925,48.208,16.008,48.326z"></path><path fill="none" d="M76.763,69.573c-0.778,0.523-1.139,0.956-1.616,1.624c-2.171,3.038-4.231,6.183-7.545,8.17   c-0.229,0.137-0.42,0.346-0.609,0.54c-1.935,1.991-4.303,3.172-6.989,3.779c-0.692,0.156-1.258,0.189-1.178-0.799   c-1.845,0.261-3.594,0.361-5.331-0.056c0.461-0.425,1.112-0.039,1.539-0.542c-1.436,0.096-2.864,0.358-4.297-0.034   c2.119-0.653,4.357-0.697,6.45-1.432c-3.627,0.54-7.217-0.214-10.822-0.235c-0.532-0.003-0.945,0.016-1.375,0.391   c-1.012,0.884-2.192,1.386-3.535,1.681c-2.702,0.593-5.343,0.25-8.002-0.181c-1.024-0.166-2.02-0.514-3.194-0.564   c0.59,0.979,1.419,1.471,2.283,1.909c2.409,1.221,4.968,2.049,7.555,2.777c2.619,0.737,5.211,1.583,7.973,1.731   c2.661,0.142,5.292-0.126,7.933-0.326c4.097-0.31,8.102-1.049,12.004-2.364c4.246-1.431,6.734-4.614,8.429-8.507   c0.934-2.145,0.755-4.504,0.734-6.801C77.169,70.029,77.114,69.708,76.763,69.573z M52.159,87.097   c-0.113,0.32-0.42,0.272-0.715,0.261c-0.453-0.117-0.982-0.157-1.195-0.715c-0.055-0.143-0.032-0.327,0.123-0.406   c0.484-0.25,0.871,0.144,1.301,0.237C51.961,86.536,52.307,86.678,52.159,87.097z M53.962,86.816   c-0.404-0.051-0.97,0.006-0.933-0.592c0.031-0.496,0.559-0.482,0.936-0.449c0.39,0.035,0.987-0.055,0.941,0.575   C54.869,86.86,54.351,86.782,53.962,86.816z"></path><path fill="none" d="M89.689,35.138c-0.272,0.299-0.195,0.582-0.2,0.842c-0.036,1.958-0.658,3.581-2.195,4.941   c-2.034,1.801-2.029,1.899-1.38,4.856c0.882,4.017-0.671,7.128-3.409,9.85c0.042,0.506,0.097,1.008,0.123,1.511   c0.118,2.3-0.925,4.225-2.021,6.121c-1.009,1.745-2.069,3.461-3.13,5.229c0.787,0.648,0.883,1.492,0.903,2.368   c0.02,0.884-0.164,1.771-0.027,2.641c0.099,0.019,0.141,0.042,0.174,0.032c0.11-0.033,0.233-0.054,0.321-0.12   c2.655-1.979,4.998-4.215,6.159-7.437c0.197-0.547,0.428-1.096,0.737-1.585c1.063-1.684,1.88-3.498,2.847-5.231   c2.105-3.77,3.507-7.803,4.645-11.947c1.036-3.775,0.433-7.245-1.824-10.436C90.943,36.108,90.428,35.497,89.689,35.138z"></path><path fill="none" d="M11.933,44.745c0.291-0.384,0.509-0.78,0.616-1.241c0.472-2.033,1.34-3.9,2.406-5.677   c1.255-2.091,2.745-3.97,4.921-5.198c0.221-0.125,0.497-0.264,0.309-0.754c-4.197,2.699-6.829,6.495-8.443,11.126   c0.487-4.273,2.877-7.494,5.917-10.364c-1.207,0.713-2.201,1.624-3.12,2.617c-0.935,1.01-1.85,2.037-2.924,3.223   c0.647-2.273,4.094-5.635,8.684-8.634c-2.513,0.459-4.237,2.156-6.102,3.639c0.755-1.267,1.719-2.319,2.805-3.255   c1.643-1.415,3.353-2.7,5.763-2.346c0.466-1.22,1.196-2.251,1.887-3.394c-0.735-0.119-1.27-0.223-1.809-0.29   c-1.039-0.129-2.005,0.058-2.897,0.648c-3.027,2.002-5.917,4.154-8.452,6.787c-1.368,1.42-2.347,3.099-3.575,4.599   c-0.982,1.2-1.489,2.529-1.704,4.021c-0.26,1.806-0.058,3.579,0.441,5.313c0.372,1.292,0.85,2.552,1.538,3.844   C9.379,47.676,10.758,46.295,11.933,44.745z M22.746,26.64c-1.051,0.31-1.875,0.552-2.815,0.829   C20.565,26.41,21.552,26.098,22.746,26.64z"></path><path fill="none" d="M20.957,55.21c-1.553,2.318-1.986,4.92-1.917,7.645C19.507,60.265,20.221,57.739,20.957,55.21z"></path><path fill="none" d="M37.036,75.025c1.761,1.371,3.733,2.379,5.726,3.367c1.539,0.763,3.134,1.11,4.825,1.21   c2.915,0.172,5.741-0.387,8.568-0.958c4.547-0.919,9-1.962,13.112-4.37c3.181-1.863,5.479-4.44,7.578-7.292   c1.058-1.437,1.901-3.037,2.795-4.59c0.66-1.146,1.305-2.311,1.58-3.629c0.193-0.924,0.342-1.883-0.066-2.757   c-0.722-1.548-1.361-3.149-2.521-4.459c-0.437-0.493-0.807-1.051-1.166-1.606c-1.475-2.286-3.438-4.119-5.49-5.854   c-0.951-0.804-1.958-1.533-2.787-2.48c-0.855-0.977-1.887-1.705-3.294-2.021c-0.004,1.292,0.381,2.446,0.603,3.615   c0.697,3.675,1.785,7.249,2.831,10.836c1.128,3.867,1.841,7.808,1.685,11.866c-0.073,1.912-0.499,3.707-1.713,5.236   c-0.294,0.37-0.592,0.829-1.213,0.689c-0.038-0.508,0.332-0.737,0.535-1.047c0.848-1.296,1.443-2.691,1.495-4.247   c0.086-2.533,0.067-5.067-0.471-7.564c-0.308-1.43-0.636-2.855-0.956-4.282c-0.172,0.307-0.193,0.579-0.166,0.847   c0.027,0.269,0.098,0.534,0.157,0.8c0.784,3.531,0.784,7.114,0.708,10.702c-0.011,0.506-0.125,1.008-0.338,1.473   c-0.105,0.229-0.177,0.542-0.688,0.459c0.688-2.53,0.199-5.092,0.263-7.646c-0.124,4.628-0.536,6.952-1.39,7.686   c-0.365-0.513,0.17-1.041-0.023-1.566c-0.351,0.564-0.303,1.307-0.829,1.762c-0.584-0.052-0.771-0.601-0.987-0.763   c-0.611-0.262-0.779,0.397-1.24,0.2c-1.309-0.56-1.327-0.556-2.048,0.496c-0.509,0.743-0.994,1.497-1.841,1.911   c-1.299,0.635-2.621,1.154-4.087,1.32c-1.594,0.18-3.188,0.185-4.785,0.225c-0.096,0.002-0.223-0.038-0.286,0.127   c0.227,0.154,0.591,0.174,0.675,0.612c-1.007,0.221-1.934-0.344-2.985-0.247c0.502,0.409,1.119,0.375,1.483,0.791   c-0.182,0.441-0.716,0.085-0.881,0.453c-0.097,0.385,0.631,0.233,0.384,0.764c-1.452-0.085-2.875-0.272-4.208-1.055   c-1.608-0.945-3.221-1.914-5.062-2.368c-1.587-0.391-3.178-0.767-4.773-1.12c-0.554-0.122-1.093-0.408-1.8-0.268   C34.563,72.193,35.484,73.816,37.036,75.025z M77.123,57.454c0.544,0.118,0.658,0.586,0.753,1.004   c0.009,0.307-0.089,0.508-0.366,0.542c-0.341,0.042-0.812-0.638-0.803-1.133C76.712,57.592,76.845,57.394,77.123,57.454z"></path><path fill="none" d="M19.66,33.478c-1.097,0.866-1.88,1.661-2.448,2.652C17.768,35.107,19.512,35.221,19.66,33.478z"></path><path fill="none" d="M22.693,30.416c-1.741,2.463-2.588,5.299-3.404,8.147c-0.135,0.472-0.282,0.951-0.112,1.464   c0.167-0.019,0.283-0.022,0.394-0.047c1.925-0.447,3.798-1.18,5.823-1.08c0.359,0.018,0.571-0.175,0.787-0.413   c0.682-0.749,1.413-1.456,2.05-2.24c0.708-0.871,1.53-1.557,2.596-1.91c0.751-0.249,1.228-0.628,1.053-1.518   c-0.046-0.235-0.073-0.562,0.299-0.636c0.491,0.181,0.175,0.724,0.462,1.004c0.246-0.852-0.049-1.732,0.222-2.587   c0.462,0.657,0.426,1.459,0.704,2.295c0.191-1.303-0.002-2.499,0.234-3.656c0.361,0.053,0.332,0.249,0.507,0.555   c0.026-0.576,0.043-0.959,0.068-1.529c0.703,1.42,1.173,2.717,1.346,4.12c0.166-1.955-0.308-3.879-0.055-5.822   c0.75,1.86,0.934,3.825,1.174,5.79c0.107-0.9,0.102-1.791,0.108-2.681c0.006-0.899-0.153-1.785-0.208-2.676   c-0.051-0.827-0.396-1.662-0.11-2.505c0.81,1.125,0.558,2.639,1.52,3.713c0.269-0.409-0.297-0.786,0.123-1.16   c0.522,0.494,0.636,1.242,1.155,1.832c-0.035-0.811-0.317-1.537-0.175-2.419c0.9,0.875,0.927,1.984,1.305,2.93   c0.311-0.867-0.238-1.7-0.082-2.745c0.823,1.131,0.642,2.285,0.755,3.408c0.586-0.298,0.025-1.112,0.743-1.244   c0.8-0.148,0.448,0.82,1.035,0.976c1.737-0.552,3.399-1.582,5.347-1.719c0.675-2.516,2.93-2.657,4.883-3.318   c-0.886-1.423-2.157-2.357-3.537-3.178c-2.879-1.712-6.048-2.678-9.257-3.486c-1.993-0.502-4.025-0.916-6.095-1.021   c-0.583-0.03-1.16-0.033-1.673,0.355c-2.03,1.533-3.926,3.25-5.408,5.287c-1.548,2.127-3.125,4.284-4.059,6.802   C23.089,29.827,22.894,30.132,22.693,30.416z"></path><path fill="none" d="M18.38,37.115c-1.402,1.307-2.339,2.905-2.907,4.733C16.336,40.208,17.874,38.975,18.38,37.115z"></path><path d="M94.877,42.119c-0.531-3.319-1.856-6.262-4.891-8.115c-0.277-0.169-0.582-0.29-0.547-0.667   c0.182-1.967-0.694-3.828-0.577-5.786c0.067-1.113-0.4-1.961-1.241-2.633c-0.395-0.315-0.797-0.63-1.226-0.895   c-2.387-1.472-4.743-3.006-7.25-4.265c-3.387-1.702-6.626-3.624-9.657-5.904c-1.752-1.318-3.684-2.324-5.755-3.065   c-1.182-0.423-2.359-0.493-3.553-0.123c-2.641,0.818-5.296,1.595-7.885,2.572c-2.75,1.038-5.243,2.565-7.717,4.123   c-0.467,0.294-0.877,0.586-1.5,0.354c-2.203-0.82-4.556-1.005-6.822-1.55c-2.467-0.593-4.437,0.065-6.084,1.915   c-0.104,0.116-0.211,0.229-0.321,0.339c-1.648,1.646-3.462,3.146-4.581,5.254c-0.015,0.028-0.066,0.037-0.129,0.069   c-0.416-0.138-0.846-0.313-1.293-0.422c-1.572-0.382-3.084-0.323-4.488,0.612c-3.086,2.054-6.059,4.229-8.648,6.921   c-1.366,1.419-2.356,3.095-3.593,4.586c-1.542,1.858-2.063,3.968-2.114,6.279c-0.059,2.636,0.735,5.073,1.836,7.414   c0.499,1.062,0.647,1.977-0.073,3.021c-0.477,0.692-0.753,1.537-1.039,2.342c-0.476,1.34-0.714,2.748-0.376,4.139   c0.666,2.734,1.538,5.397,3.328,7.653c0.411,0.518,0.809,1.051,1.172,1.604c2.513,3.834,6.005,6.709,9.793,9.068   c2.895,1.803,5.696,4.029,9.269,4.469c0.297,1.401,1.212,2.231,2.261,2.935c0.942,0.632,1.976,1.097,3.035,1.493   c1.276,0.478,2.55,0.976,3.856,1.358c3.397,0.995,6.756,2.147,10.345,2.325c2.701,0.133,5.368-0.199,8.046-0.41   c3.938-0.31,7.801-1.002,11.546-2.284c1.739-0.596,3.508-1.221,4.8-2.572c2.537-2.652,5.023-5.373,5.351-9.282   c0.831-0.301,1.614-0.586,2.238-1.122c2.461-2.116,4.839-4.303,5.91-7.52c0.159-0.477,0.374-0.95,0.646-1.371   c1.02-1.574,1.77-3.293,2.685-4.921c2.155-3.835,3.609-7.926,4.738-12.159C94.879,45.988,95.185,44.042,94.877,42.119z    M52.792,14.315c2.48-0.933,5.025-1.667,7.548-2.467c1.079-0.342,2.137-0.27,3.202,0.128c1.987,0.742,3.834,1.741,5.509,3.03   c2.853,2.195,5.933,4.004,9.142,5.62c2.716,1.368,5.258,3.038,7.854,4.615c1.178,0.715,1.828,1.637,1.629,3.073   c-0.097,0.7,0.162,1.379,0.265,2.069c0.386,2.586,0.522,5.184,0,7.775c-0.078,0.389-0.242,0.743-0.514,1.034   c-0.739,0.79-1.485,1.573-2.276,2.408c-0.484-0.495-0.741-1.061-0.94-1.639c-0.456-1.324-0.992-2.62-1.312-3.991   c-0.407-1.745-1.245-3.264-2.529-4.529c-0.729-0.718-1.293-1.552-1.708-2.49c-0.54-1.219-1.295-2.297-2.109-3.351   c-1.185-1.532-2.742-2.283-4.631-2.336c-2.296-0.064-4.596-0.121-6.89,0.086c-0.712,0.064-1.442,0.317-1.992-0.466   c-0.132-0.188-0.553-0.174-0.854-0.257c0.23-0.442,0.76-0.178,1.187-0.666c-2.748-0.513-5.28,0.115-7.856,0.5   c0.963-0.5,2.418-0.837,3.712-0.859c0.506-0.009,1.034-0.094,1.515,0.017c1.144,0.263,2.153-0.586,3.281-0.318   c1.048,0.249,2.099,0.484,3.332,0.768c-0.594-0.993-1.572-0.884-2.384-1.405c1.045,0.151,1.946,0.282,2.925,0.423   c-0.093-0.414-0.118-0.775,0.511-0.813c-1.29-0.765-2.59-1.058-3.901-1.172c-3.519-0.305-7.008-0.187-10.359,1.123   c-0.181,0.071-0.391,0.107-0.538,0.223c-1.454,1.146-2.791,0.849-4.163-0.207c-0.574-0.442-1.307-0.686-1.983-0.984   c-0.672-0.297-1.363-0.55-2.306-0.926C47.775,16.756,50.16,15.306,52.792,14.315z M27.485,60.031   c-0.308-1.395-0.283-3.219,0.172-4.402c2.021,2.827,5.152,4.072,7.978,5.741c0.763,0.451,1.618,0.538,2.482,0.544   c1.402,0.01,2.805,0,4.207,0.016c0.381,0.004,0.778-0.093,1.356,0.226c-1.148,0.487-2.108,0.892-3.065,1.304   c-0.25,0.108-0.491,0.236-0.733,0.36c-0.251,0.128-0.495,0.284-0.451,0.61c0.051,0.377,0.363,0.5,0.681,0.521   c0.777,0.052,1.556,0.065,2.334,0.097c0.23,0.01,0.459,0.031,0.67,0.046c0.781,2.408,3.081,4.143,5.595,4.284   c3.765,0.212,7.34-0.577,10.811-1.981c1-0.405,2.003-0.794,2.895-1.391c0.258,0.325,0.055,0.535-0.031,0.719   c-1.288,2.763-3.446,4.316-6.485,4.666c-2.8,0.323-5.581,0.131-8.386-0.041c-4.732-0.29-9.328-1.207-13.904-2.35   c-1.279-0.319-2.611-0.423-3.912-0.661c-1.205-0.221-1.29-0.304-1.202-1.527C28.664,64.474,27.979,62.267,27.485,60.031z    M60.311,35.751c0.932,1.205,1.717,2.563,2.025,4.036c0.959,4.596,1.009,9.203-0.391,13.744c-0.686,2.227-1.965,4.153-3.312,6.013   c-0.783,1.082-1.871,1.889-3.169,2.309c-4.024,1.302-8.139,2.096-12.384,2.106c-0.183,0-0.366-0.039-0.554-0.061   c0.044-0.298,0.269-0.321,0.432-0.39c3.687-1.553,6.962-3.816,10.293-5.978c1.352-0.877,2.057-2.33,2.878-3.641   c1.747-2.791,3.1-5.761,3.61-9.05c0.623-4.015-0.008-7.753-2.507-11.067c-0.656-0.87-1.466-1.49-2.547-1.743   c-0.606-0.142-1.188-0.393-1.796-0.514c-1.832-0.364-3.652-0.391-5.355,0.52c-1.406,0.751-2.9,1.34-4.267,2.332   c-0.644-0.698-1.525-1.015-2.39-1.424c0.194-1.045,0.737-1.683,1.744-1.987c0.892-0.269,1.774-0.597,2.625-0.978   c1.96-0.878,4.033-1.169,6.144-1.198c1.641-0.023,3.266-0.172,4.892-0.355c2.209-0.249,3.219,0.734,2.795,2.892   C58.734,33.049,59.285,34.424,60.311,35.751z M63.435,56.418c0.245-0.752,0.171-1.656,0.471-2.509   c-0.722,0.065-0.714,0.73-1.14,0.918c-0.099-0.155-0.024-0.3,0.028-0.444c1.263-3.474,1.406-7.096,1.237-10.718   c-0.128-2.731-0.759-5.384-2.236-7.764c-0.47-0.757-1.198-1.326-1.499-2.211c-0.179-0.527-0.343-1.023-0.138-1.649   c1.545-0.151,2.583,0.699,3.35,1.859c0.822,1.244,1.315,2.621,1.259,4.178c-0.101,2.835,0.669,5.55,1.283,8.281   c0.701,3.12,1.226,6.266,1.285,9.468c0.064,3.485-1.082,6.375-4.148,8.351c-2.276,1.467-4.66,2.631-7.302,3.268   c-2.239,0.54-4.478,0.999-6.805,0.891c-1.835-0.086-3.26-0.913-4.433-2.262c-0.211-0.243-0.318-0.532-0.264-0.95   c3.276-0.351,6.465-0.826,9.588-1.678c1.836-0.501,3.595-1.233,5.451-1.699c1.86-0.467,3.28-1.718,4.446-3.323   C63.255,57.837,63.158,57.267,63.435,56.418z M45.904,56.48c-0.071-1.513-1.139-2.429-2.089-3.49   c1.635,0.083,3.266,0.015,4.962,0.674C47.803,54.705,46.708,55.453,45.904,56.48z M51.661,43.841   c-0.903-0.232-1.786-0.549-2.72-0.642c-2.195-0.219-3.295,0.319-4.438,2.171c-0.313-0.349-0.582-0.743-0.939-1.025   c-0.498-0.394-0.668-0.084-0.663,0.415c-1.016-0.576-1.098,0.786-1.959,0.791c0.396,0.585,0.348,1.14,0.238,1.641   c-0.233,1.065,0.114,1.895,0.903,2.542c1.208,0.991,2.473,1.897,4.119,2.006c0.166,0.011,0.292,0.094,0.337,0.267   c-0.809,0.217-1.365,0.184-3.088-0.188c-2.398-0.517-4.2-3.067-3.982-5.529c0.124-1.405,0.739-2.344,2.138-2.686   c1.486-0.363,2.866-0.978,4.188-1.733c0.438-0.25,0.877-0.503,1.298-0.781c1.674-1.101,3.375-0.949,5.099-0.138   c0.217,0.102,0.435,0.212,0.469,0.471c0.104,0.8,0.494,1.546,0.491,2.343C52.631,44.184,52.143,43.965,51.661,43.841z    M53.229,45.015c0.368,1.988-0.56,3.224-2.076,4.151c-1.521-1.327-1.493-3.285-2.485-4.969   C50.384,44.19,51.716,45.094,53.229,45.015z M48.557,47.106c-1.034-0.129-2.019-0.304-3.019-0.247   c-0.054-0.197-0.122-0.309-0.105-0.406c0.237-1.381,0.645-1.933,1.457-1.966c1.149-0.047,1.137,0.99,1.508,1.656   C48.527,46.374,48.63,46.639,48.557,47.106z M45.363,47.874c2.108,0.096,4.109-0.156,4.859,2.38   c-0.42,0.692-1.115,1.351-1.436,2.459C47.216,51.384,46.257,49.805,45.363,47.874z M55.828,47.368   c-0.333,1.112-1.593,1.473-2.047,2.447c0.394,0.33,0.642,0.04,0.875-0.108c1.314-0.836,2.283-1.968,2.915-3.4   c0.173-0.391,0.225-0.892,0.695-1.143c0.288,0.465-0.011,0.809-0.146,1.136c-0.575,1.387-1.407,2.583-2.657,3.47   c-0.448,0.318-0.99,0.544-1.039,1.289c-0.036,0.552-0.694,0.548-1.127,0.639c-1.133,0.237-2.291,0.371-3.361,0.958   C51.429,50.386,53.235,48.485,55.828,47.368z M55.109,45.309c0.326,0.27-0.25,0.58-0.597,0.843   c0.476-1.994-0.818-3.775-0.638-5.991c0.995,0.944,1.811,1.718,2.615,2.481c-0.381,0.737-0.943,1.178-1.337,1.747   C54.958,44.67,54.571,44.862,55.109,45.309z M55.863,40.497c-0.55-0.496-1.039-1.049-1.484-1.645   c-0.599-0.804-0.967-0.769-1.386,0.112c-0.092,0.193-0.167,0.394-0.267,0.635c-0.253-0.49,0.211-0.885,0.024-1.305   c-0.405-0.267-0.46,0.332-0.885,0.286c0.473-1.362-0.333-2.542-0.435-3.869c-1.158,0.607-1.29,1.21-1.035,4.462   c-0.49-0.435-0.391-1.023-0.502-1.521c-0.115-0.516-0.112-1.058-0.177-1.763c-0.768,0.843-0.254,1.74-0.511,2.6   c-0.418-0.645-0.296-1.257-0.324-1.888c-0.768,0.521-0.382,1.385-0.535,2.063c-0.293-0.01-0.39-0.201-0.505-0.343   c-0.829-1.024-1.885-1.031-2.96-0.569c-1.355,0.583-2.743,1.109-3.951,1.997c-0.448,0.33-0.916,0.681-1.666,0.785   c0.5-1.081,0.904-2.031,1.633-2.799c2.276-2.399,5.133-3.894,8.139-5.114c1.181-0.479,2.451-0.208,3.693-0.022   c2.542,0.381,3.966,1.945,5.009,4.193c1.024,2.207,1.174,4.438,0.977,6.962C57.839,42.433,56.894,41.428,55.863,40.497z    M44.641,38.996c0.245-0.118,0.493-0.237,0.752-0.317c0.985-0.304,1.298-0.161,2.003,0.931c-1.581,1.135-3.266,2.07-5.105,2.723   c-0.146,0.052-0.299,0.087-0.451,0.12c-3.184,0.682-3.892,3.314-3.133,6.035c0.029,0.106,0.033,0.219,0.08,0.541   c-1.821-0.943-3.555-1.213-5.173,0.239c1.315,0.266,2.737-0.933,3.972,0.252c-2.452-0.157-2.452-0.157-3.023,0.763   c1.57-0.337,3.043-0.25,4.662,0.429c-1.006,0.127-1.876-0.512-2.712,0.153c0.633,0.59,1.521,0.211,2.097,0.77   c-0.229,0.051-0.546-0.031-0.698,0.27c0.204,0.437,0.645,0.412,0.996,0.503c1.209,0.315,2.366,0.764,3.519,1.24   c0.9,0.372,1.605,0.925,2.075,1.775c0.307,0.555,0.723,0.969,1.366,1.092c-0.939,0.806-1.892,0.683-2.858,0.035   c-0.452-0.303-0.947-0.554-1.358-0.904c-2.122-1.807-4.61-2.497-7.344-2.486c-1.405,0.006-1.453-0.053-1.748-1.43   c-0.521-2.43,0.109-4.623,1.353-6.692c0.205-0.34,0.493-0.607,0.848-0.783C38.105,42.6,41.275,40.613,44.641,38.996z    M40.452,56.113c0.762,0.679,1.638,1.179,2.52,1.678c1.3,0.736,2.46,0.487,3.548-0.43c0.178-0.15,0.363-0.299,0.516-0.473   c0.993-1.126,2.258-1.764,3.707-2.057c1.21-0.245,2.475-0.194,3.667-0.679c-1.41,1.507-3.756,0.996-5.17,2.495   c1.326-0.254,2.586-0.713,3.94-0.803c-1.745,0.801-3.72,1.093-5.244,2.391c0.048,0.151,0.071,0.263,0.118,0.362   c0.064,0.134,0.147,0.259,0.241,0.421c0.346-0.126,0.661-0.241,0.976-0.356c-1.072,0.986-2.38,1.573-3.566,2.351   c-0.117,0.077-0.307,0.113-0.443,0.082c-1.537-0.346-3.105-0.057-4.747-0.228c-0.379-2.143-1.599-3.947-2.628-6.022   C38.937,55.096,39.75,55.488,40.452,56.113z M42.596,34.832c-1.243,0.908-2.325,1.892-3.232,3.071   c-1.605-0.375-2.892,0.378-4.214,1.045c1.14,0.247,2.302-0.325,3.504,0.282c-0.72,0.57-1.458,0.039-2.125,0.197   c-0.67,0.158-1.4,0.123-2.015,0.792c1.273-0.09,2.445-0.346,3.63-0.039c0.051,0.711-0.397,0.572-0.758,0.494   c-2.457-0.528-4.388,0.593-6.234,1.978c-0.08,0.06-0.112,0.185-0.227,0.384c0.827-0.092,1.365-0.7,2.227-0.852   c-0.409,0.601-1.239,0.76-1.144,1.617c0.959-0.151,1.622-1.025,2.879-0.907c-2.127,1.134-2.75,3.043-3.321,4.952   c-0.519,1.734-0.281,3.474,0.234,5.175c0.339,1.121,1.24,1.217,2.241,1.24c1.701,0.039,2.898,0.895,3.708,2.583   c-1.326,0.078-2.22-0.773-3.294-1.037c0.756,1.506,2.253,1.688,3.842,2.053c-1.419,0.356-2.461-0.056-3.961-1.166   c-1.11-0.821-2.125-1.734-3.137-2.688c0.384,1.832,1.829,2.846,3.04,4.036c1.336,1.314,3.013,1.696,4.741,1.692   c0.332,0.365,0.301,0.703,0.265,1.102c-1.118,0.131-2.19,0.199-3.196-0.365c-1.937-1.085-3.891-2.141-5.691-3.453   c-1.041-0.758-1.673-1.759-2.16-2.961c-1.323-3.265-1.688-6.698-2.024-10.148c-0.079-0.814-0.126-1.636-0.291-2.434   c-0.15-0.726,0.013-1.262,0.523-1.793c1.053-1.095,2.05-2.242,3.079-3.359c0.183-0.199,0.377-0.444,0.615-0.527   c1.885-0.655,3.516-2.064,5.566-2.162C37.981,33.523,40.349,33.416,42.596,34.832z M35.751,70.553   c1.596,0.352,3.187,0.729,4.773,1.12c1.841,0.454,3.454,1.424,5.062,2.368c1.332,0.783,2.755,0.969,4.208,1.055   c0.247-0.531-0.48-0.379-0.384-0.764c0.165-0.368,0.7-0.012,0.881-0.453c-0.364-0.416-0.981-0.382-1.483-0.791   c1.05-0.097,1.978,0.468,2.985,0.247c-0.083-0.438-0.448-0.458-0.675-0.612c0.063-0.165,0.19-0.124,0.286-0.127   c1.596-0.04,3.19-0.045,4.785-0.225c1.467-0.166,2.788-0.685,4.087-1.32c0.847-0.414,1.332-1.168,1.841-1.911   c0.721-1.052,0.739-1.057,2.048-0.496c0.46,0.197,0.629-0.462,1.24-0.2c0.216,0.162,0.403,0.71,0.987,0.763   c0.526-0.455,0.478-1.198,0.829-1.762c0.193,0.525-0.342,1.054,0.023,1.566c0.853-0.734,1.265-3.057,1.39-7.686   c-0.064,2.554,0.424,5.116-0.263,7.646c0.51,0.083,0.582-0.23,0.688-0.459c0.213-0.464,0.327-0.966,0.338-1.473   c0.076-3.587,0.076-7.171-0.708-10.702c-0.059-0.265-0.13-0.531-0.157-0.8c-0.027-0.268-0.006-0.541,0.166-0.847   c0.319,1.427,0.648,2.852,0.956,4.282c0.538,2.496,0.556,5.031,0.471,7.564c-0.052,1.555-0.647,2.951-1.495,4.247   c-0.203,0.31-0.573,0.539-0.535,1.047c0.621,0.14,0.919-0.319,1.213-0.689c1.214-1.53,1.639-3.324,1.713-5.236   c0.156-4.058-0.558-7.999-1.685-11.866c-1.046-3.587-2.134-7.161-2.831-10.836c-0.222-1.169-0.607-2.323-0.603-3.615   c1.406,0.316,2.439,1.044,3.294,2.021c0.829,0.947,1.836,1.676,2.787,2.48c2.052,1.735,4.015,3.568,5.49,5.854   c0.358,0.555,0.729,1.113,1.166,1.606c1.16,1.31,1.8,2.911,2.521,4.459c0.407,0.874,0.258,1.833,0.066,2.757   c-0.275,1.318-0.92,2.482-1.58,3.629c-0.894,1.553-1.737,3.153-2.795,4.59c-2.1,2.851-4.397,5.429-7.578,7.292   c-4.112,2.408-8.565,3.451-13.112,4.37c-2.828,0.571-5.654,1.13-8.568,0.958c-1.691-0.1-3.286-0.447-4.825-1.21   c-1.993-0.988-3.966-1.996-5.726-3.367c-1.552-1.209-2.473-2.831-3.084-4.741C34.658,70.145,35.198,70.43,35.751,70.553z    M78.43,49.145c-0.32-0.507-0.323-1.153-0.629-1.619c-0.671-1.023-0.901-2.239-1.557-3.259c-0.68-1.056-1.513-1.975-2.426-2.831   c-0.264-0.247-0.5-0.524-0.714-0.827c1.237,0.577,2.114,1.629,3.257,2.368c-0.251-1.287-1.39-1.898-2.183-2.763   c0.283-0.336,0.448-0.718,0.779-0.912c-1.899-2.893-4.868-3.591-7.899-4.173c-0.618-0.119-1.28-0.046-1.857-0.412   c0.555-0.248,1.116-0.1,1.662-0.049c2.073,0.194,4.051,0.73,5.925,1.659c0.669,0.332,1.258,0.948,2.147,0.691   c0.148-0.043,0.395,0.21,0.579,0.348c0.331,0.247,0.617,0.563,1.173,0.775c-0.179-0.759-0.677-1.079-1.095-1.436   c-2.557-2.178-5.55-3.244-8.877-3.437c-0.311-0.018-0.624-0.048-0.934-0.029c-0.939,0.057-1.698-0.187-2.37-0.932   c-0.776-0.861-1.855-1.256-3.101-1.37c-0.047-0.335-0.074-0.565-0.111-0.792c-0.338-2.065-1.267-2.897-3.327-2.729   c-2.472,0.202-4.945,0.296-7.503,0.405c0.402-0.944,1.201-1.27,1.995-1.562c1.287-0.474,2.645-0.639,3.995-0.816   c4.902-0.644,9.803-1.298,14.765-1.245c0.82,0.009,1.632,0.084,2.447,0.151c1.108,0.092,2.013,0.567,2.743,1.382   c0.888,0.991,1.656,2.074,2.198,3.291c0.562,1.261,1.291,2.39,2.266,3.372c1.011,1.018,1.646,2.261,2.011,3.64   c0.558,2.112,1.197,4.19,2.282,6.105c0.132,0.234,0.244,0.5,0.283,0.763c0.202,1.346,0.369,2.698,0.563,4.045   c0.352,2.446-0.499,4.517-1.991,6.382c-0.312,0.39-0.524,0.87-1.135,1.258C81.197,52.42,79.567,50.945,78.43,49.145z    M27.268,22.701c1.483-2.037,3.379-3.754,5.408-5.287c0.513-0.388,1.091-0.385,1.673-0.355c2.07,0.105,4.102,0.52,6.095,1.021   c3.208,0.807,6.378,1.773,9.257,3.486c1.38,0.821,2.65,1.755,3.537,3.178c-1.954,0.661-4.209,0.802-4.883,3.318   c-1.948,0.137-3.61,1.167-5.347,1.719c-0.587-0.156-0.235-1.123-1.035-0.976c-0.717,0.133-0.157,0.946-0.743,1.244   c-0.112-1.123,0.069-2.276-0.755-3.408c-0.155,1.045,0.393,1.878,0.082,2.745c-0.379-0.947-0.406-2.055-1.305-2.93   c-0.143,0.882,0.139,1.608,0.175,2.419c-0.519-0.59-0.633-1.337-1.155-1.832c-0.42,0.374,0.146,0.752-0.123,1.16   c-0.962-1.074-0.71-2.589-1.52-3.713c-0.286,0.843,0.059,1.677,0.11,2.505c0.055,0.892,0.214,1.777,0.208,2.676   c-0.006,0.89-0.001,1.78-0.108,2.681c-0.24-1.965-0.423-3.93-1.174-5.79c-0.253,1.942,0.22,3.866,0.055,5.822   c-0.173-1.403-0.643-2.7-1.346-4.12c-0.025,0.57-0.042,0.953-0.068,1.529c-0.175-0.307-0.146-0.502-0.507-0.555   c-0.236,1.156-0.043,2.352-0.234,3.656c-0.278-0.836-0.242-1.638-0.704-2.295c-0.271,0.854,0.025,1.735-0.222,2.587   c-0.287-0.28,0.029-0.823-0.462-1.004c-0.372,0.075-0.345,0.401-0.299,0.636c0.175,0.89-0.302,1.269-1.053,1.518   c-1.066,0.354-1.888,1.039-2.596,1.91c-0.637,0.784-1.368,1.492-2.05,2.24c-0.216,0.237-0.428,0.431-0.787,0.413   c-2.025-0.101-3.898,0.633-5.823,1.08c-0.111,0.026-0.227,0.028-0.394,0.047c-0.17-0.513-0.023-0.992,0.112-1.464   c0.816-2.848,1.663-5.684,3.404-8.147c0.201-0.285,0.396-0.59,0.516-0.914C24.143,26.985,25.72,24.828,27.268,22.701z    M17.213,36.13c0.568-0.991,1.351-1.786,2.448-2.652C19.512,35.221,17.768,35.107,17.213,36.13z M18.38,37.115   c-0.506,1.86-2.043,3.093-2.907,4.733C16.04,40.02,16.977,38.422,18.38,37.115z M6.659,45.568c-0.5-1.734-0.701-3.506-0.441-5.313   c0.215-1.492,0.722-2.821,1.704-4.021c1.228-1.5,2.207-3.179,3.575-4.599c2.535-2.633,5.425-4.785,8.452-6.787   c0.892-0.589,1.857-0.777,2.897-0.648c0.539,0.067,1.074,0.171,1.809,0.29c-0.691,1.143-1.421,2.174-1.887,3.394   c-2.41-0.355-4.12,0.931-5.763,2.346c-1.086,0.936-2.051,1.987-2.805,3.255c1.865-1.483,3.588-3.18,6.102-3.639   c-4.591,2.998-8.037,6.361-8.684,8.634c1.074-1.186,1.989-2.214,2.924-3.223c0.919-0.993,1.913-1.904,3.12-2.617   c-3.04,2.87-5.43,6.09-5.917,10.364c1.613-4.631,4.246-8.426,8.443-11.126c0.189,0.489-0.088,0.629-0.309,0.754   c-2.176,1.228-3.666,3.106-4.921,5.198c-1.067,1.777-1.935,3.644-2.406,5.677c-0.107,0.46-0.325,0.857-0.616,1.241   c-1.175,1.549-2.554,2.931-3.736,4.666C7.509,48.12,7.031,46.859,6.659,45.568z M27.199,79.93c-0.447-0.12-0.905-0.287-1.291-0.536   c-3.039-1.952-6.306-3.506-9.145-5.823c-3.255-2.657-5.838-5.815-8.108-9.283c-1.193-1.822-1.753-3.907-2.253-5.985   c-0.306-1.271-0.031-2.573,0.474-3.775c1.058-2.521,2.298-4.937,4.161-6.991c1.094-1.206,1.986-2.574,3.336-3.572   c2.388-1.765,4.967-3.057,7.884-3.64c0.832-0.166,1.619-0.569,2.502-0.523c0.243,2.411,0.462,4.791,0.733,7.165   c0.081,0.707-0.112,1.099-0.751,1.488c-3.815,2.325-5.786,5.865-6.508,10.182c-0.351,2.099-0.257,4.186,0.182,6.268   c0.254,1.203,0.807,2.267,1.391,3.324c0.092,0.166,0.204,0.341,0.526,0.279c0.039-0.116,0.105-0.214,0.08-0.254   c-1.236-1.954-0.771-4.057-0.496-6.122c0.137-1.03,0.395-2.052,0.803-3.031c-0.169,1.694-0.717,3.363-0.393,5.091   c0.481-0.788,0.482-1.682,0.676-2.525c0.55-2.392,1.088-4.785,2.096-7.039c0.416-0.931,0.905-1.815,1.681-2.501   c0.155-0.137,0.279-0.399,0.574-0.274c-2.677,4.268-3.863,9.536-2.532,11.975c0.026-2.054,0.121-3.897,0.669-5.684   c0.193,1.248-0.453,2.545,0.256,3.988c0.431-1.335,0.327-2.564,0.736-3.909c0.088,1.878,0.207,3.552,1.909,4.691   c0.14-1.009-0.435-1.96-0.108-2.917c0.599,2.246,1.279,4.467,1.106,6.846c-0.129,1.777,0.109,2.083,1.868,2.469   c1.174,0.258,2.372,0.407,3.593,0.61c0.232,0.802,0.337,1.615,0.768,2.421c-0.654,0.074-1.116-0.541-1.785-0.283   c0.517,1.022,1.969,0.494,2.457,1.624c-0.98-0.05-1.734-0.676-2.737-0.664c0.295,0.852,1.133,0.666,1.579,1.07   c-0.305,0.269-0.68-0.171-1.058,0.148c-0.085,0.419,0.225,0.796,0.226,1.279c-0.95-0.056-1.916-0.627-3.143-0.706   c0.394,0.638,0.923,0.805,1.409,0.962c2.442,0.788,4.856,1.711,7.478,1.732c0.438,0.004,0.831,0.174,1.22,0.367   c1.589,0.79,3.182,1.57,4.851,2.391c-0.605,0.649-1.31,1.007-2.111,1.21c-1.714,0.434-3.449,0.586-5.213,0.434   C33.517,81.623,30.357,80.779,27.199,79.93z M20.957,55.21c-0.736,2.529-1.45,5.055-1.917,7.645   C18.971,60.13,19.404,57.528,20.957,55.21z M76.437,77.135c-1.695,3.894-4.183,7.076-8.429,8.507   c-3.902,1.315-7.907,2.054-12.004,2.364c-2.641,0.2-5.271,0.468-7.933,0.326c-2.762-0.147-5.354-0.993-7.973-1.731   c-2.587-0.728-5.147-1.556-7.555-2.777c-0.864-0.438-1.693-0.93-2.283-1.909c1.174,0.05,2.17,0.398,3.194,0.564   c2.659,0.431,5.3,0.774,8.002,0.181c1.342-0.295,2.522-0.797,3.535-1.681c0.429-0.375,0.843-0.394,1.375-0.391   c3.605,0.021,7.195,0.775,10.822,0.235c-2.093,0.735-4.331,0.779-6.45,1.432c1.433,0.392,2.861,0.13,4.297,0.034   c-0.427,0.503-1.078,0.117-1.539,0.542c1.737,0.417,3.486,0.317,5.331,0.056c-0.08,0.988,0.486,0.955,1.178,0.799   c2.686-0.607,5.054-1.788,6.989-3.779c0.189-0.194,0.38-0.403,0.609-0.54c3.314-1.987,5.374-5.132,7.545-8.17   c0.477-0.668,0.839-1.101,1.616-1.624c0.35,0.136,0.405,0.457,0.408,0.761C77.192,72.63,77.371,74.989,76.437,77.135z    M93.237,47.208c-1.138,4.144-2.539,8.176-4.645,11.947c-0.967,1.732-1.784,3.547-2.847,5.231c-0.309,0.489-0.54,1.038-0.737,1.585   c-1.161,3.222-3.504,5.458-6.159,7.437c-0.088,0.066-0.212,0.087-0.321,0.12c-0.033,0.01-0.076-0.012-0.174-0.032   c-0.137-0.87,0.047-1.757,0.027-2.641c-0.02-0.876-0.116-1.72-0.903-2.368c1.061-1.768,2.122-3.483,3.13-5.229   c1.095-1.895,2.139-3.821,2.021-6.121c-0.026-0.503-0.081-1.004-0.123-1.511c2.738-2.722,4.291-5.832,3.409-9.85   c-0.649-2.957-0.654-3.055,1.38-4.856c1.537-1.36,2.159-2.984,2.195-4.941c0.005-0.26-0.071-0.543,0.2-0.842   c0.739,0.358,1.255,0.97,1.724,1.634C93.669,39.963,94.273,43.433,93.237,47.208z"></path><path d="M18.461,47.048c-1.584-0.32-2.498,0.204-2.453,1.278C16.925,48.208,17.721,47.938,18.461,47.048z"></path><path d="M77.509,59c0.277-0.034,0.375-0.234,0.366-0.542c-0.094-0.418-0.209-0.886-0.753-1.004   c-0.277-0.06-0.411,0.138-0.416,0.413C76.697,58.362,77.168,59.042,77.509,59z"></path><path d="M83.045,29.871c-0.222-1.252-0.779-1.854-1.976-2.13C81.53,28.682,82.083,29.32,83.045,29.871z"></path><path d="M53.965,85.775c-0.377-0.034-0.905-0.047-0.936,0.449c-0.037,0.597,0.529,0.541,0.933,0.592   c0.389-0.034,0.907,0.044,0.944-0.465C54.952,85.721,54.355,85.81,53.965,85.775z"></path><path d="M51.673,86.473c-0.43-0.094-0.817-0.487-1.301-0.237c-0.155,0.08-0.177,0.263-0.123,0.406   c0.213,0.558,0.742,0.598,1.195,0.715c0.294,0.012,0.601,0.059,0.715-0.261C52.307,86.678,51.961,86.536,51.673,86.473z"></path><path d="M19.931,27.469c0.94-0.277,1.764-0.519,2.815-0.829C21.552,26.098,20.565,26.41,19.931,27.469z"></path></g></svg>