<svg fill="#861001" xmlns="http://www.w3.org/2000/svg" xmlns:xlink="http://www.w3.org/1999/xlink" viewBox="0 0 75 75" version="1.1" x="0px" y="0px"><g><path style="" d="M 30.71875 38.234375 C 32.800781 40.320312 37.28125 44.363281 39.308594 44.738281 C 40.21875 44.90625 41.738281 45.753906 42.5 46.515625 C 43.449219 47.464844 45.003906 48.679688 46.007812 49.054688 C 46.308594 49.167969 46.609375 49.226562 46.894531 49.226562 C 47.511719 49.226562 48.058594 48.953125 48.390625 48.472656 C 48.605469 48.164062 48.90625 47.5 48.539062 46.519531 C 48.164062 45.511719 46.949219 43.960938 46 43.015625 C 45.238281 42.25 44.394531 40.730469 44.226562 39.820312 C 43.847656 37.792969 39.804688 33.316406 37.722656 31.234375 L 27.21875 20.726562 C 23.960938 17.46875 21.882812 13.835938 21.878906 12.765625 C 21.878906 10.335938 19.542969 6.6875 17.34375 4.488281 C 15.910156 3.054688 14.339844 2.261719 12.925781 2.261719 C 11.421875 2.261719 10.242188 3.148438 9.769531 4.636719 C 9.179688 6.488281 8.621094 7.925781 8.414062 8.324219 L 7.8125 8.929688 C 7.414062 9.132812 5.976562 9.691406 4.121094 10.285156 C 2.921875 10.664062 2.117188 11.492188 1.84375 12.613281 C 1.457031 14.207031 2.234375 16.117188 3.976562 17.859375 C 6.171875 20.058594 9.820312 22.394531 12.253906 22.394531 C 13.324219 22.394531 16.957031 24.472656 20.214844 27.730469 Z M 30.71875 38.234375 " stroke="none" fill-rule="nonzero" fill="#861001" fill-opacity="1"></path><path style="" d="M 46.460938 52.25 C 43.1875 52.25 40.519531 49.734375 40.21875 46.539062 C 39.777344 46.300781 39.34375 46.117188 39.0625 46.066406 C 37.964844 45.863281 36.453125 44.914062 34.960938 43.78125 C 34.828125 44.484375 34.75 45.207031 34.75 45.945312 C 34.75 52.414062 39.992188 57.65625 46.460938 57.65625 C 52.925781 57.65625 58.167969 52.414062 58.167969 45.945312 C 58.167969 39.480469 52.925781 34.238281 46.460938 34.238281 C 45.171875 34.238281 43.933594 34.457031 42.773438 34.839844 C 44.117188 36.523438 45.320312 38.320312 45.554688 39.574219 C 45.5625 39.617188 45.589844 39.679688 45.601562 39.730469 C 45.886719 39.691406 46.164062 39.644531 46.460938 39.644531 C 49.9375 39.644531 52.765625 42.472656 52.765625 45.949219 C 52.765625 49.425781 49.9375 52.25 46.460938 52.25 Z M 46.460938 52.25 " stroke="none" fill-rule="nonzero" fill="#861001" fill-opacity="1"></path><path style="" d="M 46.460938 19.152344 C 41.082031 19.152344 36.082031 20.753906 31.886719 23.484375 L 35.820312 27.417969 C 38.957031 25.609375 42.585938 24.558594 46.460938 24.558594 C 58.253906 24.558594 67.851562 34.152344 67.851562 45.945312 C 67.851562 57.742188 58.253906 67.335938 46.460938 67.335938 C 34.664062 67.335938 25.070312 57.742188 25.070312 45.945312 C 25.070312 42.613281 25.859375 39.46875 27.226562 36.65625 L 23.222656 32.648438 C 20.972656 36.570312 19.667969 41.101562 19.667969 45.945312 C 19.667969 60.742188 31.664062 72.742188 46.460938 72.742188 C 61.257812 72.742188 73.257812 60.742188 73.257812 45.945312 C 73.253906 31.148438 61.257812 19.152344 46.460938 19.152344 Z M 46.460938 19.152344 " stroke="none" fill-rule="nonzero" fill="#861001" fill-opacity="1"></path></g></svg>