<svg fill="#445544" xmlns="http://www.w3.org/2000/svg" xmlns:xlink="http://www.w3.org/1999/xlink" version="1.1" x="0px" y="0px" viewBox="0 0 100 100" enable-background="new 0 0 100 100" xml:space="preserve"><path d="M17,29.2L44.5,45c1.5,0.9,3.5,1.3,5.5,1.3c2,0,4-0.4,5.5-1.3L83,29.2c1.6-0.9,2.4-2.1,2.4-3.5s-0.9-2.6-2.4-3.5L55.5,6.3  c-3.1-1.8-8-1.8-11.1,0L17,22.2c-1.6,0.9-2.4,2.1-2.4,3.5S15.4,28.3,17,29.2z M53.3,38.5c-1.8,1.1-4.8,1.1-6.6,0  c-0.8-0.5-1.2-1-1.2-1.6c0-0.6,0.4-1.2,1.2-1.6c0.9-0.5,2.1-0.8,3.3-0.8c1.2,0,2.4,0.3,3.3,0.8c0.8,0.5,1.2,1,1.2,1.6  C54.5,37.5,54.1,38.1,53.3,38.5z M50,15.1c8.7,0,15.5,2.5,15.5,5.8c0,3.6-5.4,4.6-8.7,5.2c-3,0.6-3.4,0.7-3.4,1v2.2  c0,1.1-1.6,2-3.5,2c-1.9,0-3.5-0.9-3.5-2v-2.2c0-3.4,5.2-4.3,8.2-4.9c3.6-0.7,3.8-0.9,3.8-1.4c-0.1-0.4-3-1.7-8.5-1.7  c-5.5,0-8.5,1.3-8.5,1.7c0,1.1-1.6,2-3.5,2c-1.9,0-3.5-0.9-3.5-2C34.5,17.6,41.1,15.1,50,15.1z"/><path d="M52.5,59v31.7c0,1.8,0.6,3.2,1.8,3.9c0.5,0.3,1,0.4,1.6,0.4c0.8,0,1.7-0.3,2.6-0.8l27.5-15.9c3.1-1.8,5.5-6.1,5.5-9.6V37.1  c0-1.8-0.6-3.2-1.8-3.9c-1.2-0.7-2.7-0.5-4.2,0.4L58.1,49.4C55,51.2,52.5,55.5,52.5,59z M81.8,43.8c0.5-0.3,0.9-0.4,1.3-0.4  c0.3,0,0.5,0.1,0.7,0.2c0.5,0.3,0.8,1,0.8,1.9c0,2.1-1.5,4.7-3.3,5.7c-0.8,0.5-1.5,0.5-2,0.2c-0.5-0.3-0.8-1-0.8-1.9  C78.5,47.4,80,44.8,81.8,43.8z M72.3,60.2c0.5-0.3,0.9-0.4,1.3-0.4c0.3,0,0.5,0.1,0.7,0.2c0.5,0.3,0.8,1,0.8,1.9  c0,2.1-1.5,4.7-3.3,5.7c-0.8,0.5-1.5,0.5-2,0.2c-0.5-0.3-0.8-1-0.8-1.9C69,63.8,70.5,61.3,72.3,60.2z M62.8,76.7  c0.5-0.3,0.9-0.4,1.3-0.4c0.3,0,0.5,0.1,0.7,0.2c0.5,0.3,0.8,1,0.8,1.9c0,2.1-1.5,4.7-3.3,5.7c-0.8,0.5-1.5,0.5-2,0.2  c-0.5-0.3-0.8-1-0.8-1.9C59.5,80.3,61,77.7,62.8,76.7z"/><path d="M13.9,78.4l27.5,15.9c0.9,0.5,1.8,0.8,2.6,0.8c0.6,0,1.1-0.1,1.6-0.4c1.2-0.7,1.8-2,1.8-3.9V59c0-3.5-2.5-7.8-5.5-9.6  L14.5,33.6c-1.6-0.9-3.1-1-4.2-0.4c-1.2,0.7-1.8,2-1.8,3.9v31.7C8.4,72.3,10.9,76.6,13.9,78.4z M35.2,54.5c0.2-0.1,0.4-0.2,0.7-0.2  c0.4,0,0.9,0.1,1.3,0.4c1.8,1.1,3.3,3.6,3.3,5.7c0,0.9-0.3,1.6-0.8,1.9c-0.5,0.3-1.2,0.2-2-0.2c-1.8-1.1-3.3-3.6-3.3-5.7  C34.4,55.4,34.7,54.8,35.2,54.5z M35.2,76.4c0.2-0.1,0.4-0.2,0.7-0.2c0.4,0,0.9,0.1,1.3,0.4c1.8,1.1,3.3,3.6,3.3,5.7  c0,0.9-0.3,1.6-0.8,1.9c-0.5,0.3-1.2,0.2-2-0.2c-1.8-1.1-3.3-3.6-3.3-5.7C34.4,77.4,34.7,76.7,35.2,76.4z M25.7,60  c0.5-0.3,1.2-0.2,2,0.2c1.8,1.1,3.3,3.6,3.3,5.7c0,0.9-0.3,1.6-0.8,1.9c-0.5,0.3-1.2,0.2-2-0.2c-1.8-1.1-3.3-3.6-3.3-5.7  C24.9,60.9,25.2,60.3,25.7,60z M16.2,43.5c0.2-0.1,0.4-0.2,0.7-0.2c0.4,0,0.9,0.1,1.3,0.4c1.8,1.1,3.3,3.6,3.3,5.7  c0,0.9-0.3,1.6-0.8,1.9s-1.2,0.2-2-0.2c-1.8-1.1-3.3-3.6-3.3-5.7C15.4,44.5,15.7,43.8,16.2,43.5z M16.2,65.5  c0.2-0.1,0.4-0.2,0.7-0.2c0.4,0,0.9,0.1,1.3,0.4c1.8,1.1,3.3,3.6,3.3,5.7c0,0.9-0.3,1.6-0.8,1.9c-0.5,0.3-1.2,0.2-2-0.2  c-1.8-1.1-3.3-3.6-3.3-5.7C15.4,66.4,15.7,65.7,16.2,65.5z"/></svg>