<svg xmlns="http://www.w3.org/2000/svg" xmlns:xlink="http://www.w3.org/1999/xlink" xml:space="preserve" version="1.1" style="shape-rendering:geometricPrecision;text-rendering:geometricPrecision;image-rendering:optimizeQuality;" viewBox="0 0 50800 50800" x="0px" y="0px" fill-rule="evenodd" clip-rule="evenodd"><defs><style type="text/css">
   
    .fil0 {fill:black}
   
  </style></defs><g><path class="fil0" d="M18121 42810c5,-21 157,-152 77,-1 -23,43 -111,157 -77,1zm-1188 1150c-1048,317 -5404,-59 -6650,-200 -1296,-146 -2565,-90 -3425,-180l-3193 -359c-170,-576 29,-5126 96,-6056 68,-958 125,-2062 179,-2990l53 -3219c627,255 3325,200 4422,400 282,52 567,166 803,209 600,108 1198,82 1784,235l6055 779c368,11 587,-69 972,-71l-684 7229c-61,544 -26,966 -100,1518 -79,585 109,1121 42,1453 -85,425 -298,689 -354,1252zm6203 -4866c-403,232 -1579,1386 -2258,1879l-2522 1671c193,-985 107,-3580 395,-5554 102,-699 226,-1968 270,-2746l155 -2858c341,-330 746,-586 1121,-905 383,-325 782,-609 1062,-1007 522,61 723,318 1245,413 1069,196 566,99 1390,-92 -239,1482 -325,3069 -597,4492 -137,714 -129,1582 -224,2334 -105,832 -177,1559 -37,2373zm21549 967c-737,55 -3082,1336 -3743,1679l-3848 1723c117,-1010 381,-1787 468,-2720 79,-843 367,-1848 448,-2721l810 -5583c434,-77 3733,-1512 4155,-1746 728,-403 3286,-2227 3711,-2224 -80,418 -115,959 -179,1462l-1313 6318c-36,195 7,-18 -45,199 -252,1049 -331,2251 -490,3030 -86,424 -31,256 26,583zm-16148 -12265c395,49 79,-39 277,140 336,304 48,383 759,518 457,86 966,207 1344,413 206,112 290,197 532,341l6144 3474c-68,736 -351,1682 -494,2485l-1359 7927 -8438 -3740 613 -5868c91,-987 244,-1874 339,-2862 40,-426 147,-918 216,-1375 102,-673 -7,-1380 67,-1453zm-23884 2015c98,-141 331,-252 544,-457l5137 -5073c270,-259 274,-212 676,-150 529,81 1434,-14 1895,109 626,167 72,1583 72,1584 264,334 1948,1130 2548,1531 411,275 3228,1301 3899,1522l818 293c18,7 47,20 62,25l125 58c-256,441 -560,441 -1302,1115 -1063,966 -745,685 -1426,469 -380,-121 -3799,-357 -4394,-341 -1454,39 -2849,-382 -4307,-377 -345,2 -4000,-202 -4347,-308zm29409 -5001c514,-98 499,-6 1004,-202l1758 -630c264,-83 547,-278 804,-387 2973,-1262 2513,-1584 4009,-264 226,200 429,288 699,497l3284 2697c131,106 449,376 584,579 -456,361 -1417,796 -1960,1118 -338,200 -541,375 -930,585 -953,512 -1892,1159 -3020,1607 -901,356 -1262,719 -1950,1074 -305,-112 -618,-451 -927,-663 -964,-662 -2759,-1309 -3172,-1615 -1182,-872 -2337,-965 -3261,-1523l-983 -583c310,-176 799,-321 1152,-498 864,-435 1455,-871 2228,-997 181,-30 465,-161 554,-271 141,-174 16,-85 127,-524zm-10534 4184c51,-1819 360,-3518 534,-5333 39,-408 141,-634 178,-1029 119,-1284 213,-3371 366,-4331 81,-513 -27,-653 393,-808l2327 -1098c571,-255 1109,-370 1669,-642 600,-291 983,-582 1561,-828 568,-242 1062,-492 1575,-738 274,-131 558,-203 851,-348 310,-154 573,-411 719,-42 40,100 -1,2032 -26,2261 -245,2225 -367,4053 -659,6345 -244,1923 1,1586 -10,2145l-2339 1176c-378,185 -826,288 -1262,490 -419,194 -728,385 -1182,574 -1949,810 -2342,1348 -4695,2206zm-1105 -12211c232,113 331,115 577,222 92,40 200,100 262,138 20,13 90,60 105,70l105 78c34,1027 -233,1913 -245,2948l-262 2960c-324,1735 -647,3806 -661,5636l-4134 -1412c-1068,-293 -3126,-982 -3864,-1621 0,-1208 -78,-1997 114,-3167 372,-2270 60,-3468 165,-4626 49,-542 154,-882 173,-1518l194 -2893c288,-129 305,-14 1143,344l2017 1012c408,173 630,289 1038,479 427,198 665,300 1110,487l2163 863zm-5903 -3726c229,-240 4914,-2484 5746,-2761 2751,-914 1933,-1346 2923,-660 274,189 676,315 973,460l1811 978c1079,652 3716,1447 3976,1672l-207 172c-1715,1094 -3560,1931 -5445,2689 -2395,963 -1724,1042 -2944,485l-6833 -3035zm8863 16307c929,-426 1549,-994 2183,-1083 -146,1063 -420,2025 -544,3047l-935 8122c44,323 172,299 320,556 213,372 -7,273 462,481 508,226 685,374 1129,629 371,213 832,437 1219,612 426,194 781,389 1251,582l3888 1613c559,272 1947,1091 2633,1016 221,-306 -62,-422 942,-713l3547 -1558c424,-191 734,-459 1087,-589 306,-112 355,-18 595,-199 234,-177 112,-215 501,-374 484,-197 761,-223 1196,-483 490,-292 309,-225 472,-392 676,-690 292,934 789,-2244 240,-1531 861,-4300 1172,-6013 236,-1295 488,-4392 839,-5128 464,-977 -377,-1293 -1371,-2022 -957,-702 -1960,-1192 -2790,-1993 -339,-327 -2469,-1760 -2849,-1934 -286,-131 -644,-241 -934,-98 -436,214 -502,118 -941,266 -1088,367 -2434,1100 -3316,1465 -307,127 -569,168 -899,299 -823,328 -371,174 -751,454l-66 -108c-302,-667 44,-2110 184,-2722 195,-855 76,-2341 90,-3244 8,-547 135,-996 168,-1524 33,-519 75,-2815 -145,-3177 -154,-253 -244,-181 -470,-224 -392,-74 -88,-160 -773,-429 -128,-50 -174,-82 -277,-136 -210,-110 -349,-150 -551,-243 -1127,-521 -2222,-783 -3619,-1405 -713,-318 -1412,-875 -2156,-1192 -1398,-596 -1904,-1145 -2113,-1236 -1510,759 -2748,1250 -4141,1917 -328,156 -767,301 -1060,457 -404,216 -612,259 -1051,463l-2069 1039c-936,506 -2208,602 -2262,2260 -18,536 -97,940 -134,1484 -34,484 -6,941 -109,1398 -149,662 -199,3164 -310,4306 -49,504 -155,899 -178,1349 -45,854 -70,655 -819,566 -606,-73 -2140,-12 -2673,180 -283,102 -555,451 -848,664l-813 698c-302,294 -517,525 -727,788 -972,1212 -1266,1421 -2150,2475 -493,587 -939,1057 -1477,1631 -503,536 -415,1647 -451,2567 -68,1732 -362,4044 -433,5743 -48,1151 -469,4889 -128,5570 456,909 3027,931 3624,1004 1492,184 2756,79 4299,307 1335,197 4501,209 5937,191 908,-12 975,-337 1915,-1093 1143,-919 2474,-1694 3571,-2568l1628 -1482c874,-734 537,-1148 645,-2396 67,-764 144,-2095 291,-2805 149,-719 301,-1935 313,-2710 7,-425 57,-1077 175,-1408 325,-912 9,-688 268,-1274z"></path></g></svg>