<svg fill="#4C4C4C" xmlns="http://www.w3.org/2000/svg" xmlns:xlink="http://www.w3.org/1999/xlink" version="1.1" x="0px" y="0px" viewBox="0 0 841.89 595.28" enable-background="new 0 0 841.89 595.28" xml:space="preserve"><g><rect x="430.188" y="146.957" width="26.779" height="16.718"></rect><polygon points="433.278,529.863 443.577,556.226 453.876,529.863 453.876,174.023 433.278,174.023  "></polygon><rect x="430.188" y="165.689" width="26.779" height="6.321"></rect><rect x="401.559" y="146.957" width="26.447" height="15.801"></rect><rect x="393.724" y="142.798" width="5.822" height="24.118"></rect><rect x="385.89" y="148.121" width="5.821" height="13.473"></rect><path d="M437.052,69.694h13.051c1.55,0,2.807-0.658,2.807-1.471v-3.195c0-0.812-1.257-1.471-2.807-1.471h-13.051   c-1.55,0-2.807,0.659-2.807,1.471v3.195C434.245,69.036,435.502,69.694,437.052,69.694z"></path><circle cx="375.726" cy="154.858" r="8.151"></circle><circle cx="443.577" cy="46.41" r="8.151"></circle><rect x="436.297" y="71.707" width="14.561" height="73.157"></rect><rect x="437.007" y="56.573" width="13.141" height="4.972"></rect><rect x="459.148" y="146.957" width="26.447" height="15.801"></rect><rect x="487.609" y="142.798" width="5.822" height="24.118"></rect><rect x="495.442" y="148.121" width="5.822" height="13.473"></rect><circle cx="511.429" cy="154.858" r="8.151"></circle></g><g><polygon points="456.007,207.895 456.007,261.875 472.372,254.9 472.372,200.92  "></polygon><polygon points="431.147,327.474 414.783,334.449 414.783,388.429 431.147,381.453  "></polygon><g><rect x="315.73" y="267.685" width="255.693" height="53.979"></rect><polygon points="431.147,265.554 431.147,218.491 320.73,265.554   "></polygon><polygon points="456.007,323.795 456.007,370.857 566.424,323.795   "></polygon></g></g></svg>