<svg fill="#b61f15" xmlns:dc="http://purl.org/dc/elements/1.1/" xmlns:cc="http://creativecommons.org/ns#" xmlns:rdf="http://www.w3.org/1999/02/22-rdf-syntax-ns#" xmlns:svg="http://www.w3.org/2000/svg" xmlns="http://www.w3.org/2000/svg" xmlns:sodipodi="http://sodipodi.sourceforge.net/DTD/sodipodi-0.dtd" xmlns:inkscape="http://www.inkscape.org/namespaces/inkscape" viewBox="0 0 100 100" version="1.1" x="0px" y="0px"><g transform="translate(0,-952.36216)"><path style="opacity:1;fill:#b61f15;fill-rule:evenodd;stroke:none;stroke-width:1px;stroke-linecap:butt;stroke-linejoin:miter;stroke-opacity:1" d="m 49.999997,957.36211 c -12.784323,0 -15.233416,3.11504 -14.998,10.16186 l 0.210961,3.86626 c -0.209412,-0.0662 -0.429823,-0.10614 -0.662067,-0.10614 l -0.350275,0 c -1.270978,0 -2.294013,1.02304 -2.294013,2.29401 l 0,2.73721 c 0,1.2709 1.023035,2.294 2.294013,2.294 l 0.350275,0 c 0.379391,0 0.730182,-0.1002 1.042851,-0.2641 l 0.405999,7.4102 c 0.32404,4.5203 2.981833,8.5856 14.000256,8.5856 11.018422,0 13.676222,-4.0653 14.000262,-8.5856 l 0.405992,-7.4088 c 0.312356,0.1634 0.66399,0.2627 1.042858,0.2627 l 0.350275,0 c 1.270978,0 2.294013,-1.0231 2.294013,-2.294 l 0,-2.73721 c 0,-1.27097 -1.023035,-2.29401 -2.294013,-2.29401 l -0.350275,0 c -0.231803,0 -0.453008,0.0402 -0.662067,0.10614 l 0.210961,-3.86626 c 0.235416,-7.04683 -2.213684,-10.16186 -14.998006,-10.16186 z m -8.62544,5.75427 c 0.209154,-0.008 0.420747,-0.004 0.634201,0.009 2.846079,0.17971 6.016429,2.16393 7.991239,4.20061 1.974809,-2.03668 5.145159,-4.02088 7.991238,-4.20061 1.707648,-0.10788 3.298197,0.43425 4.444738,2.00344 -0.635622,-0.44216 -1.409219,-0.66339 -2.238289,-0.66339 -1.713409,0 -3.731253,0.99421 -6.356636,3.1498 -1.658134,1.38178 -2.984374,2.70867 -3.03967,2.79155 l -0.801381,0.82925 -0.801375,-0.82925 c -0.0553,-0.0829 -1.381536,-1.40977 -3.03967,-2.79155 -2.625383,-2.15559 -4.643234,-3.1498 -6.356643,-3.1498 -0.82907,0 -1.602667,0.22123 -2.238289,0.66339 1.003226,-1.37304 2.346429,-1.95975 3.810537,-2.01273 z m -1.572248,3.55978 c 2.542479,0 7.599837,5.19569 7.599837,5.1957 0,0 -2.073412,2.43199 -4.615891,2.43199 -2.542473,0 -3.937548,-0.78901 -4.614567,-2.43199 -0.677019,-1.64299 -0.911858,-5.1957 1.630621,-5.1957 z m 20.395375,0 c 2.542479,0 2.306315,3.55271 1.629296,5.1957 -0.677018,1.64298 -2.072094,2.43199 -4.614566,2.43199 -2.54248,0 -4.614567,-2.43199 -4.614567,-2.43199 0,-10e-6 5.057358,-5.1957 7.599837,-5.1957 z m -13.393912,8.67325 c 1.593612,0.069 1.916307,3.1429 1.759317,3.3461 0,0 -2.471273,-0.053 -3.056918,-0.8292 -0.735684,-0.9755 -0.497537,-2.1936 0.961917,-2.4891 0.11778,-0.024 0.229425,-0.033 0.335684,-0.028 z m 6.336732,0.016 c 0.106245,0 0.217904,0 0.335677,0.028 1.459454,0.2955 1.697608,1.5149 0.961924,2.4904 -0.585645,0.7766 -3.056918,0.8292 -3.056918,0.8292 -0.156997,-0.2031 0.165692,-3.2783 1.759317,-3.3475 z m -3.140507,4.6955 c 8.808168,0 11.024549,2.2926 11.164916,6.0023 0.290346,7.6738 -5.959352,-2.899 -11.164916,-2.899 -5.205565,0 -11.455256,10.5728 -11.16491,2.899 0.140367,-3.7097 2.356741,-6.0023 11.16491,-6.0023 z m 0,5.7237 c 1.087644,0 2.174385,0.2103 2.416079,0.6289 0.4834,0.8373 0.0068,5.5447 -2.416079,5.5447 -2.422839,0 -2.900798,-4.7074 -2.417404,-5.5447 0.2417,-0.4186 1.329759,-0.6289 2.417404,-0.6289 z m -12.259511,7.1315 c -1.284388,0.724 -2.044161,2.1207 -2.260849,3.3276 -0.264885,1.1164 -0.509486,12.79379 -0.764229,19.19069 -0.277195,5.8702 1.268682,6.1138 3.226746,6.1138 0,13.3615 0.07366,9.3742 0,20.9739 0,2.7176 0.824172,4.8401 4.075891,4.8401 l 7.981952,0 7.981952,0 c 3.251718,0 4.07589,-2.1225 4.07589,-4.8401 -0.07366,-11.5997 0,-7.6124 0,-20.9739 1.958064,0 3.503941,-0.2436 3.226746,-6.1138 -0.254743,-6.3969 -0.499344,-18.07429 -0.764229,-19.19069 -0.216688,-1.2069 -0.976461,-2.6036 -2.260842,-3.3276 -0.07386,0.06 -0.144844,0.1208 -0.221572,0.1791 -2.516238,1.911 -6.319865,2.9442 -12.037945,2.9442 -5.718074,0 -9.521708,-1.0332 -12.037939,-2.9442 -0.07673,-0.058 -0.147717,-0.1193 -0.221572,-0.1791 z m 4.996682,5.9586 a 1.0190745,1.0190745 0 0 1 0.07165,0 1.0190745,1.0190745 0 0 1 0.991107,1.0761 l -0.589095,14.18069 7.715266,0 5.861749,0 -0.587764,-14.18069 a 1.0190745,1.0190745 0 0 1 0.959268,-1.0747 1.0190745,1.0190745 0 0 1 1.076021,0.9897 l 0.632877,15.24219 a 1.0190745,1.0190745 0 0 1 -1.017648,1.0614 l -3.395244,0 c 0.474108,0.8146 0.692399,1.7533 0.691251,2.6854 -0.0014,0.9317 -0.221029,1.8702 -0.695231,2.6841 l 3.399224,0 a 1.0190745,1.0190745 0 1 1 0,2.038 l -6.831627,0 0,16.9855 c 0.0195,1.378 -2.057441,1.378 -2.037945,0 l 0,-16.9855 -6.831627,0 a 1.0190745,1.0190745 0 1 1 0,-2.038 l 8.776696,0 c 0.769046,0 1.223399,-0.2808 1.59082,-0.7589 0.367428,-0.4781 0.591072,-1.1963 0.591745,-1.9265 6.79e-4,-0.7302 -0.221538,-1.4481 -0.587764,-1.9252 -0.366226,-0.477 -0.81975,-0.7589 -1.594801,-0.7589 l -8.776696,0 a 1.0190745,1.0190745 0 0 1 -1.018973,-1.0614 l 0.632877,-15.24219 a 1.0190745,1.0190745 0 0 1 0.973867,-0.9911 z m -2.46783,43.46949 7.676797,0 c 0,2.1199 -0.03335,3.8384 -3.838402,3.8384 -3.804972,0 -3.838395,-1.7185 -3.838395,-3.8384 z m 11.535089,0 7.675466,0 c 0,2.1199 -0.032,3.8384 -3.837071,3.8384 -3.804979,0 -3.838395,-1.7185 -3.838395,-3.8384 z"></path></g></svg>
