<svg fill="#803D07" xmlns="http://www.w3.org/2000/svg" xmlns:xlink="http://www.w3.org/1999/xlink" version="1.1" x="0px" y="0px" viewBox="0 0 100 100" style="enable-background:new 0 0 100 100;" xml:space="preserve"><style type="text/css">
	.st0{fill:#803D07;}
	.st1{fill:#803D07;}
	.st2{fill:none;stroke:#803D07;stroke-miterlimit:10;}
	.st3{fill:#803D07;stroke:#803D07;stroke-linecap:round;stroke-linejoin:round;stroke-miterlimit:10;}
</style><g><path d="M33,86.8c-3.1,0-5.1-0.5-6.1-1.6c-0.1-0.1-0.1-0.1-0.1-0.2c-1.1-4.8-1.6-11.7-1.7-13.7c-1.5,0.2-3.2,0.2-5.2,0.1   c-0.2,0-0.4-0.2-0.4-0.4c-0.1-0.2,0-0.4,0.2-0.5c2-1.3,3.3-2.6,4-3.9l-5.5-0.3c-0.2,0-0.4-0.2-0.5-0.4c0-0.2,0-0.4,0.2-0.5   c1.7-0.9,3.2-2.2,4.4-3.8l-4-0.7c-0.2,0-0.4-0.2-0.4-0.4c0-0.2,0.1-0.4,0.3-0.5c0.9-0.4,1.7-0.9,2.4-1.3c0-0.9-0.1-3.6-0.1-3.8   c0-3.1,0.5-6.1,1.4-8.9c-1,0-3.2-0.3-7.5-3c-6.5-4.2-7.1-6.4-7.1-6.7c0-0.1,0-0.3,0.2-0.6c0.8-1,4.8-1.4,11.7-1.3   c5.9,0.1,7.9,0.8,8.6,1.5c1.1-1.2,2.3-2.3,3.6-3.2c0.1-0.1,0.4-0.9,0.6-1.6c0-0.1,0.1-0.3,0.3-0.3c0.1-0.1,0.3-0.1,0.4,0   c0.5,0.2,1.1,0.3,1.2,0.3c0.2-0.1,0.5-0.8,0.7-1.4c0.1-0.3,0.4-0.4,0.6-0.3c0.8,0.2,1.6,0.4,1.8,0.3c0.1-0.1,0.4-0.8,0.6-1.4   c0-0.1,0.1-0.3,0.3-0.3c0.1-0.1,0.3-0.1,0.4,0c0.9,0.4,2,0.7,2.4,0.6c2.3-0.5,4.7-0.7,7.1-0.6c1.7,0,3.4,0.2,5,0.4   c0.2-0.1,0.9-0.8,1.5-1.4c0.1-0.1,0.3-0.2,0.5-0.2c0.2,0,0.3,0.1,0.4,0.3l0.8,1.7l2.5-0.9c0.1,0,0.3,0,0.4,0s0.2,0.2,0.3,0.3   l0.5,2.1l2-0.7c0.2-0.1,0.5,0,0.6,0.3l1,2.6c0.8,0.5,4.3,2.6,5.9,4.4c0.6-0.7,2-2.4,6.3-4.6c6.3-3.3,9.6-3.1,9.7-3.1   c0.2,0,0.3,0.1,0.4,0.3c0.1,0.3,1.2,3.1-3.8,9.6c-3.6,4.6-6.4,5.7-7.7,6.1c-0.1,0-0.2,0.1-0.3,0.1c1.4,4,1.4,7.2,1.4,7.3l0.1,4   c1.4,0.1,2.7,0.2,3,0.1c0.1-0.1,0.2-0.1,0.3-0.1c0.3,0,0.5,0.1,0.6,0.4c0.1,0.6-0.2,1.3-1,2.1c-0.6,0.6-1.7,1.3-2.6,1.7   c1.1,0.8,2.2,1.2,3.6,1.2c0.2,0,0.4,0.1,0.4,0.3s0,0.4-0.1,0.5c-1.2,1.1-2.7,1.8-4.8,2.2c0.7,0.9,2.3,1.7,3,2   c0.2,0.1,0.3,0.3,0.3,0.5c0,0.2-0.1,0.4-0.3,0.5c-1.6,0.7-3.3,1.3-5.9,1.2c-0.7,2.2-4,13.1-5.4,15.9c-0.1,0.1-0.1,0.2-0.2,0.2   c-3.3,1.5-7.4,2-12.6,1.6c-0.3,0-0.5-0.2-0.5-0.5c0-1.6,0.7-4.1,1.1-5.7c-1.2,0.6-3.2,1.3-6.5,1.4c-3.9,0.1-6.3-0.7-7.5-1.3   c0.2,1.5,0.3,4.2-0.5,5.6c-0.1,0.1-0.2,0.2-0.4,0.2C36.9,86.6,34.8,86.8,33,86.8z M27.7,84.6c1.3,1.3,5.1,1.5,11.3,0.7   c0.7-1.5,0.3-4.6,0.1-5.8c0-0.2,0.1-0.4,0.2-0.5c0.2-0.1,0.4-0.1,0.6,0.1c0,0,2.3,1.8,7.8,1.7c5.4-0.2,7-2,7-2.1   c0.2-0.2,0.4-0.2,0.6-0.1c0.2,0.1,0.3,0.4,0.2,0.6c0,0-1.4,4.1-1.5,6.4c4.7,0.4,8.4-0.1,11.4-1.4c1.4-2.9,4.4-12.9,5.2-15.4   c-0.4,0-0.9-0.1-1.3-0.2c-0.6-0.1-1.2-0.2-1.9-0.4l0,0c0,0,0,0,0,0c-0.3-0.1-0.4-0.3-0.4-0.6c0.1-0.3,0.3-0.4,0.6-0.4   c0.5,0.1,0.9,0.2,1.4,0.3c0.4,0.1,0.9,0.2,1.2,0.2c2.9,0.4,4.5,0,5.9-0.5c-1-0.6-2.4-1.5-2.9-2.7c-0.1-0.1,0-0.3,0-0.4   c0.1-0.1,0.2-0.2,0.4-0.2c1.7-0.2,3-0.7,4-1.3c-1.3-0.3-2.5-0.9-3.6-1.9c-0.1-0.1-0.3-0.2-0.3-0.4c0-0.2,0.1-0.4,0.2-0.5   c0.2-0.1,0.3-0.1,0.5,0c0.6-0.1,2.5-1.2,3.3-2.2c0,0,0,0,0,0c-0.8,0.1-2.1,0-3.3-0.2c-0.5,0-1.2-0.1-1.8-0.3   c-0.9-0.2-1.7-0.4-2.3-0.7c-0.2-0.1-0.3-0.4-0.2-0.7c0.1-0.2,0.4-0.4,0.6-0.3c0.7,0.3,1.6,0.5,2.3,0.7c0.3,0.1,0.7,0.1,1,0.2   l-0.1-3.8c0,0,0,0,0,0c0,0-0.1-3.3-1.5-7.3c-0.2-0.7,0.4-0.9,1-1.1c1.1-0.4,3.8-1.4,7.2-5.8c3.7-4.8,3.9-7.4,3.8-8.3   c-1,0-4,0.4-8.8,3c-4.1,2.2-5.4,3.7-6,4.4c-0.3,0.3-0.5,0.5-0.8,0.5c-0.1,0-0.3,0-0.5-0.3c-1.5-1.9-6-4.5-6-4.5   c-0.1-0.1-0.2-0.1-0.2-0.2l-0.9-2.3l-2,0.7c-0.1,0-0.3,0-0.4,0c-0.1-0.1-0.2-0.2-0.2-0.3l-0.5-2.1l-2.4,0.9c-0.2,0.1-0.5,0-0.6-0.3   l-0.6-1.5c-1.2,1.3-1.6,1.2-1.8,1.2c-1.6-0.2-3.3-0.4-5-0.4c-2.3-0.1-4.6,0.1-6.8,0.6c-0.6,0.1-1.8-0.2-2.5-0.5   c-0.2,0.6-0.6,1.3-1,1.5c-0.5,0.2-1.4,0-2-0.1c-0.2,0.5-0.5,1.3-1,1.6c-0.4,0.2-1,0.1-1.5,0c-0.2,0.6-0.5,1.3-0.8,1.6   c-1.4,1-2.7,2.2-3.9,3.6c-0.1,0.3-0.3,0.5-0.5,0.6c-0.2,0.1-0.5,0-0.6-0.2c-0.1-0.1-0.2-0.4,0.1-0.7c0,0,0,0,0.1-0.1   c-0.2-0.3-1.3-1.2-7.9-1.3C10.9,35,8.9,35.7,8.5,36c0.3,0.6,1.5,2.6,6.6,5.9c4.5,2.9,6.6,2.9,7.3,2.9c0.3,0,0.5,0,0.7,0.2   c0.1,0.2,0.1,0.4,0.1,0.6c-1,2.9-1.5,6-1.5,9.1c0,0.1,0.1,2,0.1,3.1c0.1-0.1,0.3-0.2,0.4-0.3c0.5-0.4,1.1-0.9,1.6-1.5   c0.2-0.2,0.5-0.2,0.7,0s0.2,0.5,0,0.7c-0.5,0.6-1.1,1.1-1.7,1.6c-0.4,0.3-0.7,0.5-1.1,0.8c-0.5,0.3-1,0.7-1.6,1l3.3,0.5   c0.2,0,0.3,0.1,0.4,0.3s0,0.3-0.1,0.5c-1.1,1.6-2.4,2.9-3.9,3.9l4.7,0.3c0.2,0,0.3,0.1,0.4,0.2s0.1,0.3,0,0.5   c-0.7,1.4-1.8,2.8-3.6,4.1c2.7,0.1,5-0.2,6.8-0.8c0.9-0.3,1.7-0.7,2.6-1.2c0.2-0.1,0.5-0.1,0.7,0.2s0.1,0.5-0.2,0.7   c-0.9,0.6-2,1.1-3.1,1.4c-0.7,0.2-1.4,0.4-2.1,0.5C26.2,73,26.7,79.9,27.7,84.6z"></path><circle class="st0" cx="33.7" cy="49.3" r="3.1"></circle><circle cx="56.6" cy="49.3" r="3.1"></circle><path d="M43.4,68.6c-2.7,0-3.3-1.8-3.3-1.9c-0.1-0.3,0.1-0.5,0.3-0.6c0.3-0.1,0.5,0.1,0.6,0.3c0,0,0.4,1.2,2.4,1.2   c1.9,0,2.3-1.3,2.3-1.4c0.1-0.3,0.3-0.4,0.6-0.4c0.3,0.1,0.4,0.3,0.4,0.6C46.5,67.2,45.6,68.6,43.4,68.6z"></path><path d="M49.2,68.6c-2.4,0-3.4-1.9-3.5-2c-0.1-0.2,0-0.5,0.2-0.7c0.2-0.1,0.5,0,0.7,0.2c0,0.1,0.8,1.5,2.6,1.5   c1.8,0,2.7-1.7,2.7-1.7c0.1-0.2,0.4-0.4,0.7-0.2c0.2,0.1,0.4,0.4,0.2,0.7C52.7,66.4,51.6,68.6,49.2,68.6z"></path><path d="M39.5,56.7c-0.1,0-0.2,0-0.2-0.1c-0.2-0.1-0.3-0.4-0.2-0.7c0.3-0.5,0.5-1.3-0.8-2.7c-0.2-0.2-0.2-0.5,0-0.7   c0.2-0.2,0.5-0.2,0.7,0c1.3,1.4,1.6,2.7,0.9,3.8C39.9,56.6,39.7,56.7,39.5,56.7z"></path><path d="M51.5,56.2c-0.2,0-0.3-0.1-0.4-0.3c-0.6-1.2-0.3-2.4,0.9-3.8c0.2-0.2,0.5-0.2,0.7,0c0.2,0.2,0.2,0.5,0,0.7   c-1.3,1.4-1.1,2.2-0.8,2.7c0.1,0.2,0,0.5-0.2,0.7C51.7,56.2,51.6,56.2,51.5,56.2z"></path><circle class="st0" cx="41.1" cy="60.5" r="1.3"></circle><circle class="st0" cx="50.2" cy="60.5" r="1.3"></circle><path d="M31.9,33.3C31.9,33.3,31.8,33.3,31.9,33.3c-0.2,0-0.4-0.1-0.5-0.3c-1.4-2.8-3-4.4-4.7-4.7C25,28,22.9,29,20.6,31.2   c-0.2,0.2-0.4,0.2-0.6,0.1c-0.2-0.1-0.3-0.4-0.2-0.6c1.3-4.1,3.4-8.1,9.3-9.1c5.7,0.1,9.7,2.4,12.5,6.8c0.1,0.1,0.1,0.3,0,0.5   c-0.1,0.2-0.2,0.3-0.4,0.3c-0.9,0.1-1.8,0-2.7-0.4c-0.3,0.8-0.6,1.2-1,1.5c-0.1,0.1-0.2,0.1-0.3,0.1c-0.4,0-1,0-1.7-0.2   c-0.2,0.6-0.6,1.1-1,1.5c-0.1,0.1-0.2,0.1-0.3,0.2c-0.4,0.1-0.8,0-1.2-0.2c-0.1,0.4-0.4,0.9-0.7,1.5C32.2,33.2,32,33.3,31.9,33.3z    M26.1,27.2c0.3,0,0.6,0,0.8,0.1c1.9,0.3,3.5,1.8,5,4.5c0.2-0.3,0.3-0.6,0.3-0.9c0-0.1,0.1-0.3,0.2-0.3c0.1-0.1,0.3-0.1,0.4,0   c0.2,0.1,0.7,0.3,1.1,0.3c0.4-0.4,0.7-0.9,0.8-1.4c0-0.1,0.1-0.3,0.2-0.3c0.1-0.1,0.3-0.1,0.4-0.1c0.5,0.1,1.2,0.3,1.7,0.3   c0.3-0.2,0.5-0.6,0.7-1.4c0-0.1,0.1-0.3,0.3-0.3c0.1-0.1,0.3-0.1,0.4,0c0.6,0.3,1.2,0.5,1.8,0.5c-2.5-3.7-6.1-5.4-11-5.6   c-4.3,0.7-6.4,3.2-7.8,6.6C23.1,27.9,24.6,27.2,26.1,27.2z"></path><path d="M25.6,28.3c-0.1,0-0.2,0-0.2-0.1c-0.2-0.1-0.3-0.4-0.2-0.7c1.2-2.3,0.5-3.2-0.1-3.8c-0.2-0.2-0.2-0.5,0-0.7   c0.2-0.2,0.5-0.2,0.7,0c1.3,1.2,1.4,2.8,0.3,5C25.9,28.2,25.8,28.3,25.6,28.3z"></path><path d="M27.6,28.5c-0.1,0-0.3,0-0.4-0.2c-0.2-0.2-0.2-0.5,0-0.7c0.1-0.1,0.3-0.2,0.4-0.1c0.8-0.2,5.3-2.7,5.8-4.8   c0.1-0.3,0.3-0.4,0.6-0.4c0.3,0.1,0.4,0.3,0.4,0.6c-0.6,2.7-5.4,5.2-6.5,5.5C27.9,28.5,27.8,28.5,27.6,28.5z"></path><path d="M30.3,30.7c-0.2,0-0.4-0.1-0.5-0.3c-0.1-0.3,0.1-0.5,0.3-0.6c3.7-1.2,6.1-2.8,7.3-5.1c0.1-0.2,0.4-0.3,0.7-0.2   c0.2,0.1,0.3,0.4,0.2,0.7c-1.4,2.5-3.9,4.3-7.9,5.6C30.4,30.7,30.4,30.7,30.3,30.7z"></path><path d="M62.9,33.1c-0.2,0-0.4-0.1-0.5-0.3l-0.9-2.3l-2,0.7c-0.1,0-0.3,0-0.4,0c-0.1-0.1-0.2-0.2-0.2-0.3l-0.5-2.1l-2.4,0.9   c-0.2,0.1-0.5,0-0.6-0.3L54.7,28c-0.5,0.6-1.2,0.9-2,1c-0.2,0-0.4-0.1-0.5-0.2c-0.1-0.2-0.1-0.3,0-0.5c2.4-4.8,6.4-8.2,11.6-10.1   c3.3-1,5.9-0.9,7.9,0.4c2.1,1.3,3.5,3.9,4.1,7.6c0,0.2-0.1,0.4-0.2,0.5c-0.2,0.1-0.4,0.1-0.6,0c-2.9-2.3-5.2-3-7-2.4   c-2.1,0.8-3.6,3.5-4.6,8.5C63.4,33,63.2,33.1,62.9,33.1C63,33.1,62.9,33.1,62.9,33.1z M61.8,29.4c0.2,0,0.4,0.1,0.5,0.3l0.5,1.3   c1.1-4.4,2.7-6.8,4.9-7.6c1.9-0.7,4.2-0.1,6.9,1.8c-0.6-2.8-1.8-4.7-3.4-5.7c-1.7-1.1-4.1-1.2-7.1-0.3c-4.5,1.7-8,4.5-10.4,8.4   c0.2-0.2,0.4-0.4,0.6-0.8c0.1-0.2,0.3-0.3,0.5-0.3c0.2,0,0.4,0.1,0.4,0.3l0.8,1.7l2.5-0.9c0.1,0,0.3,0,0.4,0s0.2,0.2,0.3,0.3   l0.5,2.1l2-0.7C61.7,29.4,61.8,29.4,61.8,29.4z"></path><path d="M65.6,26c-0.1,0-0.2,0-0.2-0.1l-0.2-0.1c-2.1-1.1-4.2-2.3-5.2-5.4c-0.1-0.3,0.1-0.5,0.3-0.6c0.3-0.1,0.5,0.1,0.6,0.3   c0.9,2.7,2.8,3.7,4.8,4.8l0.2,0.1c0.2,0.1,0.3,0.4,0.2,0.7C66,25.9,65.8,26,65.6,26z"></path><path d="M63.9,28.9c-0.1,0-0.1,0-0.2,0c-3.3-1.1-6.5-2.6-7.6-5.6c-0.1-0.3,0-0.5,0.3-0.6c0.3-0.1,0.5,0,0.6,0.3   c0.9,2.6,3.9,3.9,7,5c0.3,0.1,0.4,0.4,0.3,0.6C64.3,28.8,64.1,28.9,63.9,28.9z"></path><path d="M68.2,24.2c-0.1,0-0.2,0-0.3-0.1c-1.5-1.3-3-3.1-1.9-6.1c0.1-0.3,0.4-0.4,0.6-0.3c0.3,0.1,0.4,0.4,0.3,0.6   c-0.8,2.4,0.3,3.8,1.7,5c0.2,0.2,0.2,0.5,0,0.7C68.5,24.1,68.3,24.2,68.2,24.2z"></path><path d="M23.7,42.6c-0.2,0.9-11.8-4.9-11.6-5.5c0.2-0.6,14.9,1.2,14.7,1.3C26.5,39.9,25.4,41.3,23.7,42.6z"></path><path d="M70.5,39c0.4,0.4,11.4-7.4,12-7c0.5,0.4-8.2,11.2-9.6,10.9C71.4,42,70.6,40.7,70.5,39z"></path><path d="M27.3,84.8c0,0,2.5-1.9,2.9-2s2.8,1.6,2.8,1.6s3-1.7,3.2-1.7s3.1,3,3.1,3C39.5,86.7,27.3,86.2,27.3,84.8z"></path><path d="M66,84.5c0,0-2.8-1.9-3.2-1.9S60,84.3,60,84.3s-3-1.7-3.2-1.7s-3.1,3.4-3.1,3.4C58.2,86.1,62.8,86.3,66,84.5z"></path><path d="M41.5,85.8c-0.7,0-1.3-0.1-1.9-0.3c-0.2-0.1-0.4-0.3-0.3-0.5c0.2-1.8,0.2-3.6-0.1-5.4c0-0.2,0-0.4,0.2-0.5   c0.2-0.1,0.4-0.1,0.5,0c1.3,0.8,2.4,1.2,3.5,1.4c0.1,0,0.3,0.1,0.4,0.2c0.7,1.2,0.4,2.9,0.1,4.5c0,0.2-0.2,0.3-0.3,0.4   C42.8,85.7,42.2,85.8,41.5,85.8z M40.3,84.7c0.8,0.2,1.7,0.2,2.6,0c0.3-1.2,0.4-2.5,0.1-3.3c-0.9-0.2-1.7-0.5-2.7-1   C40.5,81.8,40.5,83.3,40.3,84.7z"></path><path d="M68.7,81.8c-0.5,0-1-0.1-1.5-0.2c-0.1,0-0.2-0.1-0.3-0.2c-0.1-0.1-0.1-0.3,0-0.4L71,68.2c0.1-0.2,0.3-0.4,0.5-0.3l0.8,0   c0.2,0,0.4,0.2,0.5,0.4c0.5,4,0.5,7.9,0,11.6c0,0.1-0.1,0.2-0.2,0.3C71.5,81.3,70.2,81.8,68.7,81.8z M68,80.8   c1.4,0.2,2.7-0.2,3.9-1.2c0.5-3.4,0.5-7.1,0-10.7l0,0L68,80.8z"></path><path d="M43.3,85l-3.4-2.2L39.8,85C40.9,85.5,42.1,85.4,43.3,85z"></path><path d="M72.3,79.8l-4-1.7l-1,3C69.3,81.6,70.9,81.2,72.3,79.8z"></path><path d="M75.6,66.4C75.6,66.4,75.6,66.4,75.6,66.4c-0.9-0.1-1.6-0.7-2.2-1.8c-0.1-0.1-0.1-0.3,0-0.5c0.1-0.1,0.2-0.2,0.4-0.3   c1.5-0.1,2.8-0.6,4-1.4c-1.7-0.4-2.9-1-3.8-1.9C74,60.4,74,60.2,74,60.1c0.1-0.2,0.2-0.3,0.4-0.3c1.7-0.4,2.9-1.2,3.6-2.2   c-0.9,0.1-1.9,0-3.1-0.1c-0.2,0-0.4-0.2-0.4-0.5l0-2.3c0-1.5,1.5-5,1.7-5.4c0.1-0.2,0.3-0.3,0.5-0.3c0.2,0,0.4,0.2,0.4,0.4l0.2,1.1   c0.3-1.2,0.7-2.2,0.7-2.2c0.1-0.2,0.3-0.3,0.5-0.3c0.2,0,0.4,0.1,0.5,0.3c0,0.1,0.5,1.2,0.9,2.6c0.2-0.9,0.4-1.5,0.4-1.6   c0.1-0.2,0.2-0.3,0.4-0.4c0.2,0,0.4,0.1,0.5,0.2c0.1,0.2,3,4.7,2.5,9.9c-0.6,5.3-7.3,7.3-7.6,7.4C75.7,66.4,75.7,66.4,75.6,66.4z    M74.8,64.8c0.3,0.4,0.6,0.5,0.8,0.6c0.8-0.3,6.3-2.3,6.8-6.5c0.4-3.4-0.9-6.5-1.7-8.1c-0.2,0.9-0.5,2.2-0.6,3.2   c0,0.3,0,0.5-0.1,0.7c0,0.3-0.3,0.4-0.5,0.4c-0.3,0-0.5-0.3-0.4-0.5c0-0.2,0-0.5,0.1-0.7c0-1.3-0.4-2.9-0.8-4   c-0.4,1.2-0.8,3-0.6,4.3l0.1,0.3c0,0.3-0.1,0.5-0.4,0.6c-0.3,0-0.5-0.1-0.6-0.4c0-0.1,0-0.2-0.1-0.4l-0.5-3   c-0.5,1.2-0.9,2.6-0.9,3.3v0l0,1.9c1.4,0.2,2.4,0.2,3.3-0.1c0.2,0,0.4,0,0.5,0.1c0.1,0.1,0.2,0.3,0.1,0.5c-0.6,1.6-1.8,2.8-3.8,3.4   c0.9,0.7,2.1,1.1,3.7,1.3c0.2,0,0.4,0.2,0.4,0.4c0.1,0.2,0,0.4-0.2,0.5C78.1,63.7,76.5,64.5,74.8,64.8z"></path></g></svg>