<svg fill="#DF4682" xmlns="http://www.w3.org/2000/svg" xmlns:xlink="http://www.w3.org/1999/xlink" version="1.1" x="0px" y="0px" viewBox="0 0 100 100" style="enable-background:new 0 0 100 100;" xml:space="preserve"><style type="text/css">
	.st0{fill:#DF4682;}
	.st1{fill:#DF4682;}
	.st2{fill:none;stroke:#DF4682;stroke-miterlimit:10;}
	.st3{fill:#DF4682;stroke:#DF4682;stroke-linecap:round;stroke-linejoin:round;stroke-miterlimit:10;}
</style><g><path d="M35.7,84.8c-4.1,0-9.5-1-10.4-2c0,0,0-0.1-0.1-0.1c-2.2-4.4-0.3-9,0.7-11.4c0.2-0.6,0.5-1.2,0.6-1.5   c-4.7-5-7.3-11.5-7.3-18.3c0-2.5,0.7-9.6,0.8-9.9c-0.7-8,0.9-24,3.7-24.9c2.6-0.9,11.7,4.2,16.5,8.4c0.9-0.1,4.5-0.4,6-0.4   c2.3,0,5.5,0.6,6.9,0.9c0-0.9,0.1-2.4,0.6-3.3c0.1-0.2,0.3-0.3,0.5-0.3c2.6,0.4,5.3,1.1,8,2c2.3,0.7,5.1,2.2,7.8,3.8   c0.1,0.1,0.2,0.2,0.2,0.3c0.3,1,0.3,1.9-0.1,2.7c-0.7,1.4-2.5,2.2-4.1,2.7c1.7,2.3,7.5,10.9,7.1,18c0,6.8-2.6,13.2-7.2,18.2   c-0.4,0.4,0,2.4,0.2,4.1c0.5,3.5,1.1,7.5-1.1,8.9c-2.3,1.1-12.9,2.5-14.2,1.6c-1-0.7-0.1-4.1,1-7.2c-1.2,0.5-3.3,1.2-5.7,1.3   c-2.5,0.1-4.9-0.5-6.2-0.9c0.8,1.9,1.9,5.6-0.1,6.8C39.1,84.6,37.6,84.8,35.7,84.8z M26.1,82.2c1.1,1,11.1,2.5,13.2,1.1   c1.5-1-0.1-5.2-0.7-6.6c-0.1-0.2-0.1-0.4,0.1-0.6c0.1-0.2,0.4-0.2,0.5-0.1c0,0,3.5,1.3,6.9,1.2c3.4-0.1,6.3-1.6,6.3-1.6   c0.2-0.1,0.4-0.1,0.6,0.1c0.2,0.1,0.2,0.4,0.1,0.6c-1.3,3.4-2.1,6.7-1.8,7.2c0.9,0.5,10.9-0.6,13.1-1.7c1.6-1,1-4.8,0.6-7.8   c-0.4-2.7-0.6-4.2,0.1-4.9c4.5-4.8,6.9-11,6.9-17.5c0,0,0,0,0,0c0.4-7.7-7.2-17.8-7.3-17.9c-0.1-0.1-0.1-0.3-0.1-0.5   c0.1-0.2,0.2-0.3,0.3-0.3c1.5-0.4,3.5-1.2,4.2-2.4c0.3-0.5,0.3-1.1,0.1-1.8c-2.6-1.5-5.3-3-7.4-3.6c-2.5-0.9-5-1.5-7.5-1.9   c-0.4,1-0.4,2.6-0.4,3.2c0,0.2-0.1,0.3-0.2,0.4s-0.3,0.1-0.4,0.1c0,0-4.4-1-7.2-1c-1.6,0-6.1,0.4-6.1,0.4c-0.1,0-0.3,0-0.4-0.1   c-4.9-4.5-13.8-9-15.6-8.4c-1.7,0.6-3.8,15-3,24c0,0.2-0.8,7.5-0.8,9.9c0,6.6,2.5,12.9,7.1,17.7c0.4,0.4,0.1,1.1-0.4,2.5   C25.9,74.1,24.2,78.2,26.1,82.2z"></path><circle cx="31.9" cy="47.4" r="3.1"></circle><circle cx="54.5" cy="47.4" r="3.1"></circle><path d="M42.9,62.9c-4.5,0-8.2-2.9-8.2-6.4s3.7-6.4,8.2-6.4s8.2,2.9,8.2,6.4S47.4,62.9,42.9,62.9z M42.9,51c-3.9,0-7.2,2.4-7.2,5.4   s3.2,5.4,7.2,5.4s7.2-2.4,7.2-5.4S46.9,51,42.9,51z"></path><circle cx="39.6" cy="56.2" r="1.2"></circle><circle cx="46.2" cy="56.2" r="1.2"></circle><path d="M40.5,67.6c-2.7,0-3.3-1.8-3.3-1.9c-0.1-0.3,0.1-0.5,0.3-0.6c0.3-0.1,0.5,0.1,0.6,0.3c0,0,0.4,1.2,2.3,1.2   c1.9,0,2.3-1.3,2.3-1.3c0.1-0.3,0.3-0.4,0.6-0.4c0.3,0.1,0.4,0.3,0.4,0.6C43.5,66.2,42.7,67.6,40.5,67.6z"></path><path d="M46.2,67.6c-2.4,0-3.4-1.9-3.4-2c-0.1-0.2,0-0.5,0.2-0.7c0.2-0.1,0.5,0,0.7,0.2l0,0c0,0.1,0.8,1.4,2.5,1.4   c1.8,0,2.6-1.7,2.6-1.7c0.1-0.2,0.4-0.4,0.7-0.2c0.2,0.1,0.4,0.4,0.2,0.7C49.7,65.4,48.6,67.6,46.2,67.6z"></path><path d="M56.2,34.9c-0.2,0-0.3-0.1-0.4-0.2c-2.6-4.5-3.2-8.4-2.1-12.3c0.1-0.2,0.3-0.4,0.6-0.4c6.3,1,11.5,2.9,15.8,5.8   c0.1,0.1,0.2,0.2,0.2,0.3c0.3,1.2,0.2,2.3-0.4,3.2c-1.7,2.4-6.6,2.9-11.8,3.4C57.4,34.8,56.8,34.8,56.2,34.9   C56.2,34.9,56.2,34.9,56.2,34.9z M54.5,23.1c-0.9,3.4-0.3,6.8,2,10.8c0.5,0,0.9-0.1,1.4-0.1c4.8-0.4,9.7-0.9,11.1-3   c0.4-0.6,0.5-1.3,0.3-2.2C65.2,25.9,60.3,24.1,54.5,23.1z"></path><path d="M68.9,38.7c-0.2,0-0.3-0.1-0.4-0.2c-1.1-1.9-2.4-3.5-3.7-4.8c-0.1-0.1-0.2-0.3-0.1-0.5c0-0.2,0.2-0.3,0.4-0.4   c1.7-0.5,3.3-1,4-2.1c0.1-0.2,0.3-0.3,0.5-0.2c0.2,0,0.4,0.2,0.4,0.4c0.4,1.8,0.3,4.1-0.5,7.5C69.4,38.5,69.2,38.6,68.9,38.7   C69,38.6,69,38.7,68.9,38.7z M66.1,33.5c0.9,1,1.8,2.1,2.6,3.4c0.4-2,0.5-3.5,0.4-4.8C68.3,32.7,67.3,33.1,66.1,33.5z"></path><path d="M76.7,60.8c-0.9,0-1.4-0.4-1.6-0.7c-0.7-0.8-0.5-2.1-0.5-2.3c0.3-1.5,1.1-2.5,2.3-3.2c-0.3-0.2-0.7-0.2-1.2-0.2   c-1.1,0-2.6,1.5-3.1,2.1c-0.2,0.2-0.5,0.2-0.7,0.1c-0.2-0.2-0.2-0.5-0.1-0.7c0.2-0.3,2.2-2.5,3.9-2.5c0.9,0,1.6,0.3,2.1,0.7   c0.6-0.3,1.5-0.7,2.6-0.7c2.1,0,3.6,2,3.7,2.1c0.2,0.2,0.1,0.5-0.1,0.7c-0.2,0.2-0.5,0.1-0.7-0.1c0,0-1.3-1.7-2.9-1.7   c-0.8,0-1.4,0.2-1.9,0.4c0.7,0.9,0.9,2.2,0.9,3C79.4,58.9,78.7,60.8,76.7,60.8z M77.7,55.3c-1.2,0.6-1.9,1.4-2.2,2.7   c0,0.2-0.1,1,0.3,1.4c0.2,0.2,0.5,0.3,0.9,0.3c1.6,0,1.7-1.9,1.8-2C78.5,57.7,78.4,56.3,77.7,55.3z"></path><path d="M27,20.9c-2.9,5.1-4,11-4.1,17.4c3.8-4.6,8.1-8.4,13.1-10.7C33.2,24.5,30.2,22,27,20.9z"></path><path d="M66,80.3c-0.1,0-0.3-0.1-0.4-0.1c-0.1-0.1-0.2-0.3-0.1-0.4c0.2-2-0.1-4.2-0.4-6.2c-0.4-2.2-0.6-3.8,0.1-4.5   c1.8-1.8,3.4-4.4,5-7.8c0.1-0.2,0.3-0.3,0.5-0.3c0.2,0,0.4,0.2,0.4,0.4c1.3,6.5,1.3,12,0,16.7c0,0.1,0,0.1-0.1,0.2   C69.8,79.7,67.7,80.1,66,80.3C66,80.3,66,80.3,66,80.3z M70.4,63c-1.4,2.8-2.9,5.1-4.5,6.7c-0.4,0.4-0.1,2.1,0.2,3.7   c0.3,1.7,0.6,3.9,0.5,5.9c1.8-0.3,2.9-0.8,3.6-1.6C71.3,73.4,71.4,68.6,70.4,63z"></path><path d="M25.7,82.5c0,0,4.1-1.5,4.5-1.5s2.8,1.6,2.8,1.6s3-1.6,3.2-1.6c0.2,0,3.7,2.6,3.7,2.6C34.8,85.2,30.2,84,25.7,82.5z"></path><path d="M51.1,83.8c0,0,3.5-3,4.1-3c0.6,0,3,0.9,3,0.9S61,80,61.3,80c0.3,0,3.6,1.9,3.6,1.9C59.9,84.2,51.1,83.8,51.1,83.8z"></path><path d="M42.1,83c-0.6,0-1.2-0.1-1.9-0.3c-0.2-0.1-0.4-0.3-0.3-0.5c0.1-1.1-0.3-2.3-0.6-3.3c-0.3-1.1-0.5-1.7-0.2-2.1   c0.1-0.2,0.4-0.3,0.7-0.3c2,0.5,3.5,0.7,4.6,0.7c0.2,0,0.4,0.2,0.5,0.4c0.2,1.6,0.2,3.1-0.1,4.5c0,0.2-0.1,0.3-0.3,0.3   C43.6,82.8,42.9,83,42.1,83z M40.9,81.8c1,0.3,1.9,0.2,2.8-0.1c0.2-1.1,0.3-2.3,0.1-3.5c-1-0.1-2.3-0.3-3.9-0.6   c0.1,0.3,0.2,0.7,0.3,1C40.5,79.5,40.9,80.7,40.9,81.8z"></path><path d="M44.2,82L40,79.7c0.3,0.9,0.4,1.7,0.4,2.5C41.8,82.6,43.2,82.6,44.2,82z"></path><path d="M70.6,77.9L66,77.1l0,2.7C68,79.6,69.7,79.1,70.6,77.9z"></path></g></svg>