<svg xmlns="http://www.w3.org/2000/svg" xmlns:xlink="http://www.w3.org/1999/xlink" version="1.1" x="0px" y="0px" viewBox="0 0 200 200" enable-background="new 0 0 200 200" xml:space="preserve"><path d="M123.473,48.803c7.3,1.962,14.766-0.938,18.951-6.715l-1.821-5.754l-6.054,6.039l-4.368-4.371l-5.132,5.123l-4.509-7.827  l7.46,1.726v-5.758l9.469,4.947l3.356-5.988l4.761,4.533c1.591-8.949-3.93-17.792-12.885-20.195  c-9.453-2.547-19.192,3.058-21.734,12.514C108.428,36.533,114.016,46.25,123.473,48.803z M182.196,98.889l-8.878-31.217  l-25.532-8.343l-33.322-8.963l-3.319-0.898c-0.645,0.019-1.293,0.117-1.928,0.338l-0.247,0.09L79.474,60.168L64.875,49.212  l-0.82,0.627l-1.186-0.157l-0.021-0.004c-0.657,0.673-1.608,1.629-3.105,2.773c-2.065,1.567-3.669,2.469-4.984,3.114  c0.043,0.061,0.065,0.085,0.065,0.085l2.188,2.947l20.293,15.538l27.743-9.659l-3.729,13.851c0,0-10.132,36.652-10.167,37.907  c-0.008,0.071-0.017,0.14-0.017,0.211c0,2.365,1.066,4.466,2.735,5.876c0.998,0.853,5.631,2.68,5.631,2.68l-23.758,22.943  l-22.968-13.019c-2.509-1.419-5.473-1.248-7.772,0.149c-0.159,0.097-0.308,0.184-0.457,0.283c-0.111,0.078-0.231,0.146-0.337,0.23  c-0.359,0.271-0.713,0.604-1.05,1.008c-0.337,0.387-0.628,0.788-0.884,1.236c-0.251,0.451-0.46,0.924-0.613,1.396  c-0.163,0.508-0.27,0.975-0.321,1.42c-0.02,0.143-0.025,0.273-0.029,0.407c-0.005,0.184-0.005,0.358,0,0.529  c-0.021,2.701,1.357,5.328,3.866,6.75l27.388,15.512l1.092,0.622c0.06,0.031,0.119,0.06,0.175,0.084  c0.128,0.056,0.256,0.1,0.384,0.144c0.167,0.059,0.337,0.105,0.508,0.149c2.58,0.79,5.485,0.211,7.564-1.793l7.439-7.186  l24.633-23.812l36.176,17.179l11.454,32.873c0.947,2.721,3.289,4.547,5.938,5.014c0.18,0.034,0.355,0.065,0.533,0.084  c0.124,0.022,0.266,0.044,0.406,0.047c0.443,0.041,0.934,0.019,1.454-0.056c0.495-0.071,0.985-0.178,1.472-0.352  c0.496-0.172,0.952-0.39,1.383-0.645c0.46-0.265,0.854-0.551,1.186-0.859c0.107-0.093,0.193-0.187,0.286-0.292  c0.128-0.121,0.239-0.259,0.354-0.389c1.791-2.014,2.49-4.898,1.535-7.624l-11.748-33.712c-0.094-1.397-0.568-2.751-1.365-3.902  c-0.725-1.059-1.732-1.958-2.974-2.543l-17.042-8.095l-12.68-6.01l12.803-47.628l1.006-3.748l18.592,6.07l7.056,24.841  c0.948,3.315,4.399,5.238,7.718,4.299C181.211,105.661,183.135,102.21,182.196,98.889z M51.834,58.832l0.055-0.034l0.039-0.025  l0.418-0.316l0.615-0.46l-0.452-0.62c0,0-1.109-1.499-1.681-2.231c-0.337-0.448-0.149-0.685-0.149-0.685l0.324-0.24  c0.004-0.004,0.013-0.014,0.022-0.021c0.464-0.299,0.904-0.504,1.497-0.777c0.159-0.073,0.324-0.152,0.513-0.239  c1.267-0.591,2.84-1.426,4.96-3.033c1.399-1.062,2.231-1.923,2.842-2.558c0.332-0.333,0.584-0.594,0.806-0.766  c0.163-0.113,0.319-0.171,0.529-0.171c0.153,0,0.325,0.029,0.496,0.062c0.097,0.021,0.188,0.036,0.276,0.05l0.316,0.043l0.243-0.191  c1.254-0.947,1.891-2.903,0.781-4.531c-0.601-0.896-1.412-1.344-2.393-1.344c-0.491,0-0.956,0.11-1.315,0.204  c-0.86,0.244-2,1.234-3.792,2.831c-0.436,0.378-0.871,0.772-1.315,1.15c-4.18,3.615-6.962,5.871-6.992,5.892l-0.14,0.098  c-0.452,0.364-0.619,0.47-0.619,0.47l-0.008,0.009l-0.022,0.017l-0.435,0.329l-0.415,0.353l-0.328,0.257l-0.03,0.02  c-4.625,3.642-19.974,15.755-23.041,18.694c-3.681,3.535-4.74,5.399-4.782,5.477l-0.508,0.915l1.075,0.221  c0,0,0.043,0.003,0.142,0.003c0.366,0,1.655-0.162,5.72-1.605c4.872-1.734,11.668-6.281,14.36-8.16  c2.342-1.637,9.948-7.268,12.222-8.958L51.834,58.832z"></path></svg>