<svg fill="#003200" enable-background="new 0 0 100 100" version="1.1" viewBox="0 0 100 100" xml:space="preserve" xmlns="http://www.w3.org/2000/svg" xmlns:cc="http://creativecommons.org/ns#" xmlns:dc="http://purl.org/dc/elements/1.1/" xmlns:rdf="http://www.w3.org/1999/02/22-rdf-syntax-ns#"><metadata><rdf:RDF><cc:Work rdf:about=""><dc:format>image/svg+xml</dc:format><dc:type rdf:resource="http://purl.org/dc/dcmitype/StillImage"/><dc:title/></cc:Work></rdf:RDF></metadata><path d="m91.884 74.732h-15.294v-51.637c0-6.04-4.946-10.771-11.262-10.771h-47.694c-6.104 0-11.263 5.287-11.263 11.546 0 1.332 1.079 2.411 2.41 2.411h15.294v50.862c0 6.211 5.053 11.264 11.264 11.264h47.692c6.211 0 11.264-5.053 11.264-11.264 0-1.331-1.079-2.411-2.411-2.411zm-80.246-53.273c0.952-2.495 3.313-4.312 5.996-4.312 2.807 0 5.199 1.803 6.081 4.312h-12.077zm30.141 55.685c0 3.552-2.889 6.44-6.44 6.44s-6.441-2.889-6.441-6.44v-53.557c0-2.395-0.753-4.614-2.031-6.44h38.462c3.671 0 6.44 2.558 6.44 5.948v51.638h-27.578c-1.332-1e-3 -2.412 1.079-2.412 2.411zm41.252 6.44h-38.457c0.836-1.193 1.446-2.559 1.768-4.029h42.662c-0.955 2.361-3.273 4.029-5.973 4.029z"/><g transform="matrix(.5 0 0 .5 25.068 24.911)"><g transform="translate(-15.655 15.655)"><path transform="translate(15.655 -15.655)" d="m19.732 19.465v10.432l28.477 28.479 10.34-10.715-28.197-28.195zm46.521 23.496-24.436 25 5.1699 5.7324 24.717-25.281zm0.56445 13.346-9.9629 10.338 13.535 13.533 10.15-10.15z"/></g></g></svg>
