<svg fill="#55665B" xmlns="http://www.w3.org/2000/svg" xmlns:xlink="http://www.w3.org/1999/xlink" version="1.1" x="0px" y="0px" viewBox="0 0 74.4 99" style="enable-background:new 0 0 74.4 99;" xml:space="preserve"><path d="M22.7,68.7c0.4-0.7,0.2-1.7-0.5-2.1c-0.7-0.5-1.7-0.2-2.1,0.5c-1.4,2.1-2.8,6.4,0.3,9c0.3,0.2,0.6,0.3,1,0.3  c0.4,0,0.9-0.2,1.2-0.6c0.5-0.7,0.4-1.6-0.2-2.1C20.5,72.2,22.6,68.8,22.7,68.7z"></path><path d="M52.9,68.7c-0.8,0.1-1.4,0.9-1.3,1.7c0.2,1.5-0.1,2.6-0.8,3.4c-1.2,1.4-3.6,1.4-3.6,1.4c-0.8,0-1.5,0.7-1.5,1.5  c0,0.8,0.7,1.5,1.5,1.5c0,0,0,0,0,0c0.2,0,3.7,0,5.9-2.5c1.3-1.5,1.8-3.4,1.5-5.7C54.5,69.2,53.7,68.6,52.9,68.7z"></path><path d="M47.7,46.7c-1.6-5.2-6.2-8.6-11.7-8.6s-10.1,3.4-11.7,8.6c-0.1,0.3-0.1,0.6,0,0.9c1.6,5.2,6.2,8.6,11.7,8.6  s10.1-3.4,11.7-8.6C47.8,47.3,47.8,47,47.7,46.7z M36,53.1c-3.2,0-7-1.6-8.7-6c1.6-4.4,5.5-6,8.7-6c3.2,0,7,1.6,8.7,6  C43,51.5,39.2,53.1,36,53.1z"></path><path d="M36,42.1c-2.8,0-5,2.3-5,5s2.3,5,5,5c2.8,0,5-2.3,5-5S38.8,42.1,36,42.1z M36,49.1c-1.1,0-2-0.9-2-2s0.9-2,2-2  c1.1,0,2,0.9,2,2S37.1,49.1,36,49.1z"></path><path d="M69,58.5c0-1.6,0.3-11.7,0.3-11.9c0.1-5.3-3.6-10.2-9.1-11.9l-1.9-1.5c-6.3-5-13.9-7.6-21.5-8c0.4-0.9,0.9-2,1.7-3.3  c0.4-0.7,0.9-1.6,1.4-2.4l6,2.7c0.2,0.1,0.4,0.1,0.6,0.1c0.6,0,1.1-0.3,1.4-0.9c0.3-0.8,0-1.7-0.8-2L41.7,17c0.4-0.5,0.8-1,1.2-1.5  l5.8,2.6c0.2,0.1,0.4,0.1,0.6,0.1c0.6,0,1.1-0.3,1.4-0.9c0.3-0.8,0-1.7-0.8-2L45,13.1c0.3-0.3,0.6-0.6,0.9-0.9l6.2,2.8  c0.2,0.1,0.4,0.1,0.6,0.1c0.6,0,1.1-0.3,1.4-0.9c0.3-0.8,0-1.7-0.8-2L48.5,10c0.4-0.3,0.9-0.6,1.3-0.9l5.6,2.6  c0.2,0.1,0.4,0.1,0.6,0.1c0.6,0,1.1-0.3,1.4-0.9c0.3-0.8,0-1.7-0.8-2l-3.5-1.6c1.6-0.7,3.4-1.2,5.3-1.4C59.4,5.8,60,5,59.9,4.2  c-0.1-0.8-0.9-1.4-1.7-1.3c-3.2,0.4-6,1.4-8.6,2.9c-0.2,0-0.4,0-0.6,0l-4.3-5.2c-0.5-0.7-1.5-0.7-2.1-0.2c-0.6,0.5-0.7,1.5-0.2,2.1  l4.3,5.1c-0.4,0.3-0.7,0.6-1.1,0.9l-3.8-4.6c-0.5-0.7-1.5-0.7-2.1-0.2c-0.6,0.5-0.7,1.5-0.2,2.1l3.9,4.7c-0.4,0.4-0.8,0.8-1.2,1.2  l-3.8-4.6c-0.5-0.7-1.5-0.7-2.1-0.2c-0.6,0.5-0.7,1.5-0.2,2.1l4.1,5c-0.3,0.4-0.6,0.8-0.9,1.2L34.8,10c-0.5-0.6-1.5-0.7-2.1-0.2  c-0.6,0.5-0.7,1.5-0.2,2.1l4.7,5.7c0.1,0.1,0.2,0.1,0.3,0.2c-0.2,0.2-0.3,0.5-0.4,0.7l-3.3-4c-0.5-0.7-1.5-0.7-2.1-0.2  c-0.6,0.5-0.7,1.5-0.2,2.1l4.1,4.9c-0.9,1.7-1.5,3-1.8,3.9c-7.8,0.4-15.5,3.1-21.8,8.3c-0.6,0-1.3,0.1-2,0.3C4.1,35.3,0,40.2,0,45.7  v12.1c0,0.4,0.2,0.8,0.5,1.1C0.6,59,0.6,59,0.7,59C0.2,60.3,0,61.7,0,63.1c0,4.9,2.7,9.5,7,11.9l1.8,1c3.5,5.6,7.5,8.6,12.1,8.8  c5.7,0.3,10.3-3.8,12.7-6.3c2.7,5.4,5.5,8.5,8.9,9.5c0.9,0.3,1.8,0.4,2.7,0.4c1,0,2-0.2,3-0.4C49.5,91.1,54.2,99,62.1,99  c0.8,0,1.6-0.1,2.5-0.3c0.4-0.1,0.7-0.3,0.9-0.5c0.4-0.5,3.6-4.7,3-8.7c-0.2-1.2-0.7-2.2-1.5-3.1c0.8-2.2,0.3-4.5-0.2-5.9  c3.9-1.8,6.3-4.2,7.2-7.3C75.6,67.9,72,62.2,69,58.5z M59.4,37.6c4.1,1.4,6.9,5,6.9,8.9c0,0,0,0.1-0.3,10.5c-0.1,0-0.3,0-0.4-0.1  c-1-0.2-2.1-0.3-3.1-0.5c-4.4-0.8-9.1-1.7-13.3-2.8c1.2-1.5,2.2-3.2,2.8-5.1h2.9c0.8,0,1.5-0.7,1.5-1.5c0-0.8-0.7-1.5-1.5-1.5h-3.1  c-0.7-1.8-1.7-3.4-2.8-4.8L59.4,37.6z M36,56.7c-6.2,0-11.3-3.8-13.3-9.6c1.9-5.8,7.1-9.6,13.3-9.6s11.3,3.8,13.3,9.6  C47.3,53,42.2,56.7,36,56.7z M55.3,34.6l-5.6,1.8l0.1-0.1c0.6-0.6,0.6-1.6,0-2.2c-0.6-0.6-1.6-0.6-2.2,0l-2.8,2.8  c-2.2-1.3-4.6-2.1-7.3-2.3v-3.2c0-0.8-0.7-1.5-1.5-1.5c-0.8,0-1.5,0.7-1.5,1.5v3.2c-2.7,0.2-5.1,1-7.3,2.3l-2.8-2.8  c-0.6-0.6-1.6-0.6-2.2,0c-0.6,0.6-0.6,1.6,0,2.2l0.8,0.8l-7.6-2.7C27.3,26.1,43.4,26.1,55.3,34.6z M3,45.7c0-4.1,3.1-7.7,7.5-8.9  c0.7-0.2,1.2-0.3,1.6-0.3l11,3.9c-1.2,1.4-2.2,3.1-2.9,4.9h-3.1c-0.8,0-1.5,0.7-1.5,1.5c0,0.8,0.7,1.5,1.5,1.5H20  c0.5,1.5,1.2,3,2.1,4.2c-5.8,1.5-13,2.7-19,3.5V45.7z M64.2,85.4c-0.5,1.3-1.6,2.3-3.4,3c-0.8,0.3-1.2,1.2-0.9,2  c0.2,0.6,0.8,1,1.4,1c0.2,0,0.4,0,0.6-0.1c1.4-0.5,2.5-1.3,3.4-2.1c0.1,0.3,0.2,0.5,0.3,0.8c0.3,2-1.2,4.6-2.1,5.9  c-6.7,0.9-11-6-12.6-9c2.1-0.9,4.3-2.2,6.5-3.6c2.5-0.4,4.7-1,6.6-1.6C64.3,82.6,64.6,84.1,64.2,85.4z M71.1,72.4  c-0.9,3.1-4.2,5.3-9.7,6.9c1-1.6,1.4-2.9,1.4-3c0.2-0.8-0.3-1.6-1.1-1.9c-0.8-0.2-1.6,0.3-1.9,1.1c0,0-1,3.4-3.8,5.1c0,0,0,0,0,0  c0,0,0,0,0,0c-5,3.1-9.3,5.6-12.8,4.6c-2.7-0.8-5.2-3.9-7.6-9.3l2.2-2.9c2.1-0.1,4.5-0.8,6.6-2.8c0.6-0.6,0.7-1.5,0.1-2.2  c-0.6-0.6-1.5-0.7-2.2-0.1c-4,3.7-8.3,1.1-8.5,1c-0.7-0.4-1.6-0.2-2.1,0.5c-0.5,0.7-0.2,1.7,0.5,2.1c0.5,0.3,1.3,0.7,2.1,1l-2.5,3.4  c0,0,0,0,0,0c-1.8,2-6,6.2-10.8,5.9c-3.5-0.2-6.8-2.7-9.7-7.5c-0.5-1.8-1.3-4.7-1.4-5.4C9.7,68,8.9,67.4,8,67.5  c-0.8,0.1-1.4,0.9-1.3,1.8c0.1,0.5,0.3,1.4,0.6,2.3c-2.7-2-4.3-5.1-4.3-8.5c0-1.4,0.3-2.8,0.9-4.1c1.8-0.2,4.2-0.5,6.9-1  c-0.6,1-1,2.1-1,3.7c0,0.8,0.7,1.5,1.5,1.5s1.5-0.7,1.5-1.5c0-3.1,2.6-3.7,2.9-3.8c0.6-0.1,1-0.5,1.2-1c2.5-0.5,5-1.1,7.3-1.8  c0.1,0.1,0.3,0.2,0.4,0.3l-2.4,2.4c-0.6,0.6-0.6,1.6,0,2.2c0.3,0.3,0.7,0.4,1.1,0.4c0.4,0,0.8-0.1,1.1-0.4l2.8-2.8  c2.2,1.3,4.6,2.1,7.3,2.3v3.2c0,0.8,0.7,1.5,1.5,1.5c0.8,0,1.5-0.7,1.5-1.5v-3.2c2.7-0.2,5.1-1,7.3-2.3l2.8,2.8  c0.3,0.3,0.7,0.4,1.1,0.4s0.8-0.1,1.1-0.4c0.6-0.6,0.6-1.6,0-2.2l-1.4-1.4c4,1.1,8.1,1.9,11.6,2.5c-0.6,0.4-1.3,0.9-2.2,1.3  c-0.8,0.4-1.1,1.3-0.7,2c0.3,0.5,0.8,0.9,1.4,0.9c0.2,0,0.5-0.1,0.7-0.2c2.2-1.1,3.7-2.3,4.7-3.4c1,0.2,1.9,0.3,2.6,0.4  C69.2,63.5,72.3,68.4,71.1,72.4z"></path></svg>