<svg fill="#003200" enable-background="new 0 0 100 100" version="1.1" viewBox="0 0 100 100" xml:space="preserve" xmlns="http://www.w3.org/2000/svg" xmlns:cc="http://creativecommons.org/ns#" xmlns:dc="http://purl.org/dc/elements/1.1/" xmlns:rdf="http://www.w3.org/1999/02/22-rdf-syntax-ns#"><metadata><rdf:RDF><cc:Work rdf:about=""><dc:format>image/svg+xml</dc:format><dc:type rdf:resource="http://purl.org/dc/dcmitype/StillImage"/><dc:title/></cc:Work></rdf:RDF></metadata><path d="m91.884 74.732h-15.294v-51.637c0-6.04-4.946-10.771-11.262-10.771h-47.694c-6.104 0-11.263 5.287-11.263 11.546 0 1.332 1.079 2.411 2.41 2.411h15.294v50.862c0 6.211 5.053 11.264 11.264 11.264h47.692c6.211 0 11.264-5.053 11.264-11.264 0-1.331-1.079-2.411-2.411-2.411zm-80.246-53.273c0.952-2.495 3.313-4.312 5.996-4.312 2.807 0 5.199 1.803 6.081 4.312h-12.077zm30.141 55.685c0 3.552-2.889 6.44-6.44 6.44s-6.441-2.889-6.441-6.44v-53.557c0-2.395-0.753-4.614-2.031-6.44h38.462c3.671 0 6.44 2.558 6.44 5.948v51.638h-27.578c-1.332-1e-3 -2.412 1.079-2.412 2.411zm41.252 6.44h-38.457c0.836-1.193 1.446-2.559 1.768-4.029h42.662c-0.955 2.361-3.273 4.029-5.973 4.029z"/><g transform="matrix(.512 0 0 .512 28.125 24.757)"><path d="m21.084 23.687 0.12-1.375c1.291-7e-3 2.585-0.169 3.808-0.596 0.666-0.232 1.305-0.54 1.895-0.926 0.372-0.243 0.724-0.517 1.051-0.817 0.232-0.211 0.451-0.436 0.657-0.672 1.452-1.662 2.214-3.819 2.538-5.976 0.054-0.364 0.097-0.731 0.128-1.098 0.058-0.701 0.077-1.407 0.04-2.11-4e-3 -0.06-6e-3 -0.119-0.015-0.178-0.026-0.101-0.085-0.184-0.183-0.226-0.03-0.013-0.039-0.014-0.072-0.021-0.037-4e-3 -0.037-4e-3 -0.075-4e-3 -0.038 6e-3 -0.074 0.013-0.109 0.029-0.08 0.038-0.142 0.11-0.167 0.195-9e-3 0.032-9e-3 0.041-0.012 0.074v0.038c0.028 0.358 0.031 0.719 0.024 1.078-8e-3 0.471-0.037 0.942-0.086 1.41-0.034 0.326-0.077 0.65-0.131 0.972-0.314 1.876-0.978 3.745-2.199 5.227-0.167 0.202-0.343 0.396-0.529 0.581-0.248 0.247-0.513 0.477-0.793 0.688-0.434 0.327-0.904 0.606-1.397 0.835-0.804 0.373-1.666 0.611-2.542 0.741-0.452 0.068-0.907 0.105-1.364 0.123-0.122 4e-3 -0.244 7e-3 -0.365 8e-3h-0.048l1.062-12.184c0.01 3e-3 0.02 6e-3 0.03 8e-3 0.023 6e-3 0.047 6e-3 0.07 8e-3h0.625c0.023-2e-3 0.047-2e-3 0.07-8e-3 0.045-0.01 0.088-0.031 0.125-0.06 0.133-0.106 0.155-0.306 0.049-0.439-0.029-0.037-0.066-0.066-0.108-0.087-0.021-0.01-0.044-0.015-0.066-0.023l-0.07-8e-3h-0.625c-0.016 2e-3 -0.032 3e-3 -0.048 4e-3l0.401-4.598v-0.8h7.915c-0.056 1.507-0.056 3.017 0 4.523 9e-3 0.079 0.04 0.151 0.099 0.206 0.145 0.134 0.385 0.098 0.484-0.073 0.024-0.041 0.035-0.085 0.041-0.133 0.056-1.506 0.056-3.016 0-4.523h12.375v5.394h-0.017c-0.023 3e-3 -0.047 3e-3 -0.07 8e-3 -0.045 0.011-0.088 0.031-0.125 0.06-0.154 0.124-0.154 0.366 0 0.489 0.037 0.029 0.08 0.05 0.125 0.06 0.023 6e-3 0.047 6e-3 0.07 8e-3h0.017v1.491l9e-3 0.132c0.085 1.522 0.109 3.051 0.053 4.576-0.024 0.677-0.065 1.354-0.135 2.028-0.053 0.513-0.123 1.025-0.222 1.531-0.073 0.369-0.161 0.736-0.282 1.093-0.088 0.258-0.192 0.513-0.333 0.746-0.153 0.252-0.366 0.509-0.671 0.563-0.052 8e-3 -0.105 8e-3 -0.157 0.013-0.079 0.019-0.146 0.052-0.196 0.117-0.037 0.048-0.057 0.103-0.063 0.159h-1.918l-4.857 55.754c-0.026-0.015-0.054-0.027-0.083-0.038l-0.051-9e-3 -0.622-0.058h-0.052c-0.053 8e-3 -0.1 0.019-0.146 0.048-0.169 0.108-0.192 0.354-0.045 0.491 0.053 0.05 0.114 0.071 0.185 0.084l0.622 0.058c0.051 0 0.096-2e-3 0.143-0.021l-0.287 3.293-18.398-1.603 0.301-3.446 9e-3 9e-3c0.054 0.05 0.115 0.071 0.185 0.083l0.623 0.059c0.053 0 0.101-3e-3 0.151-0.024 0.185-0.079 0.248-0.318 0.126-0.477-0.044-0.058-0.101-0.089-0.169-0.113l-0.05-9e-3 -0.623-0.058h-0.051c-0.053 8e-3 -0.1 0.018-0.146 0.048-5e-3 3e-3 -0.01 6e-3 -0.014 0.01l4.507-51.737c0.471-2e-3 0.942-0.021 1.412-0.063 1.021-0.093 2.035-0.293 3.005-0.629 0.746-0.258 1.465-0.597 2.136-1.016 0.445-0.278 0.868-0.592 1.265-0.936 1.132-0.983 2.029-2.209 2.699-3.546 0.623-1.242 1.056-2.575 1.343-3.933 0.091-0.434 0.168-0.872 0.231-1.312 0.128-0.901 0.201-1.813 0.195-2.724-1e-3 -0.068-1e-3 -0.135-8e-3 -0.203-8e-3 -0.036-8e-3 -0.045-0.023-0.078-0.034-0.075-0.097-0.135-0.174-0.164-0.035-0.013-0.044-0.013-0.08-0.019-0.041-1e-3 -0.04-1e-3 -0.081 3e-3 -0.036 8e-3 -0.045 8e-3 -0.078 0.023-0.076 0.034-0.135 0.097-0.164 0.174-0.013 0.035-0.013 0.044-0.019 0.08l-1e-3 0.041c0.013 0.42-4e-3 0.843-0.03 1.262-0.041 0.645-0.114 1.287-0.218 1.925-0.064 0.39-0.14 0.778-0.228 1.163-0.496 2.17-1.399 4.299-2.896 5.971-0.21 0.235-0.432 0.46-0.663 0.673-0.31 0.286-0.639 0.551-0.984 0.794-0.535 0.375-1.109 0.694-1.709 0.953-0.893 0.386-1.839 0.639-2.8 0.783-0.528 0.079-1.059 0.122-1.592 0.144-0.141 4e-3 -0.282 8e-3 -0.424 9e-3h-0.06zm40.368 0.624 4.52 51.889c-6e-3 0.046-2e-3 0.093 0.012 0.137l0.316 3.63-18.398 1.603-0.285-3.272h0.023l0.622-0.058c0.053-0.01 0.1-0.021 0.145-0.052 0.15-0.1 0.183-0.313 0.071-0.454-0.046-0.057-0.103-0.087-0.171-0.109-0.017-3e-3 -0.034-6e-3 -0.051-8e-3h-0.052l-0.622 0.058c-6e-3 1e-3 -0.013 2e-3 -0.019 3e-3l-4.842-55.587c0.292-0.196 0.514-0.498 0.679-0.807 0.074-0.14 0.139-0.284 0.197-0.43 0.076-0.191 0.141-0.386 0.199-0.583 0.139-0.479 0.236-0.971 0.312-1.464 0.091-0.586 0.152-1.177 0.196-1.769 0.106-1.439 0.115-2.885 0.081-4.327-0.01-0.335-0.021-0.669-0.035-1.003-0.011-0.239-0.023-0.478-0.038-0.718v-1.472c0.018-2e-3 0.035-3e-3 0.053-7e-3 0.045-0.01 0.088-0.031 0.125-0.06 0.133-0.106 0.155-0.306 0.049-0.439-0.029-0.037-0.066-0.066-0.108-0.087-0.021-0.01-0.044-0.015-0.066-0.023l-0.053-6e-3v-5.396h6.376c-0.056 1.507-0.056 3.017 0 4.523 9e-3 0.079 0.04 0.151 0.099 0.206 0.145 0.134 0.385 0.098 0.484-0.073 0.024-0.041 0.035-0.085 0.041-0.133 0.056-1.506 0.056-3.016 0-4.523h8.396v0.8l0.401 4.594h-0.189c-0.023 3e-3 -0.047 3e-3 -0.07 8e-3 -0.045 0.011-0.088 0.031-0.125 0.06-0.154 0.124-0.154 0.366 0 0.489 0.037 0.029 0.08 0.05 0.125 0.06 0.023 6e-3 0.047 6e-3 0.07 8e-3h0.243l1.066 12.243c-0.046-0.039-0.102-0.061-0.163-0.072l-0.038-2e-3c-1.165-6e-3 -2.333-0.14-3.445-0.501-0.629-0.204-1.235-0.479-1.796-0.829-0.351-0.218-0.684-0.466-0.995-0.738-0.219-0.193-0.427-0.398-0.624-0.613-1.41-1.553-2.15-3.604-2.475-5.649-0.068-0.428-0.119-0.859-0.151-1.291-0.041-0.552-0.056-1.105-0.042-1.658 3e-3 -0.085 6e-3 -0.171 0.011-0.256 4e-3 -0.056 9e-3 -0.111 0.01-0.167-4e-3 -0.038-0.01-0.074-0.025-0.109-0.035-0.082-0.105-0.146-0.19-0.174-0.032-0.01-0.04-0.01-0.073-0.015-0.039 0-0.038 0-0.076 4e-3 -0.101 0.023-0.186 0.079-0.231 0.175-0.015 0.03-0.015 0.039-0.024 0.072-5e-3 0.037-5e-3 0.036-8e-3 0.073-0.049 0.776-0.026 1.557 0.044 2.33 0.034 0.372 0.079 0.744 0.138 1.114 0.33 2.084 1.075 4.161 2.462 5.781 0.204 0.237 0.42 0.464 0.648 0.678 0.324 0.302 0.672 0.578 1.04 0.825 0.527 0.353 1.095 0.644 1.686 0.872 0.807 0.311 1.656 0.506 2.514 0.609 0.446 0.053 0.894 0.079 1.343 0.089 0.098 2e-3 0.197 6e-3 0.294 0 0.051-9e-3 0.097-0.023 0.14-0.052 0.025-0.017 0.047-0.037 0.065-0.059l0.129 1.488c-0.405-2e-3 -0.811-0.016-1.215-0.049-0.941-0.077-1.876-0.247-2.776-0.537-0.747-0.241-1.467-0.565-2.137-0.974-0.422-0.257-0.824-0.548-1.2-0.868-0.266-0.226-0.52-0.467-0.76-0.721-1.5-1.584-2.438-3.623-2.976-5.719-0.089-0.349-0.168-0.7-0.237-1.053-0.088-0.452-0.159-0.908-0.215-1.365-0.079-0.644-0.125-1.291-0.137-1.94-1e-3 -0.1-2e-3 -0.2-1e-3 -0.3 1e-3 -0.064 4e-3 -0.128 2e-3 -0.192-6e-3 -0.036-6e-3 -0.046-0.019-0.08-0.029-0.077-0.088-0.14-0.163-0.174-0.034-0.015-0.043-0.015-0.079-0.023-0.041-4e-3 -0.04-4e-3 -0.081-3e-3 -0.036 6e-3 -0.045 6e-3 -0.08 0.019-0.077 0.029-0.14 0.089-0.174 0.164-0.015 0.033-0.015 0.042-0.023 0.078l-4e-3 0.04c-0.014 0.441 3e-3 0.882 0.031 1.322 0.042 0.665 0.117 1.328 0.225 1.986 0.065 0.402 0.144 0.803 0.235 1.201 0.527 2.305 1.5 4.561 3.106 6.323 0.227 0.248 0.465 0.485 0.714 0.711 0.361 0.325 0.745 0.626 1.148 0.896 0.584 0.391 1.207 0.72 1.858 0.985 1.004 0.409 2.067 0.663 3.143 0.792 0.565 0.067 1.134 0.098 1.703 0.106 0.09 0 0.098 3e-3 0.167-1e-3zm-28.538 53.19 0.622 0.058 0.051 9e-3c0.068 0.024 0.125 0.055 0.169 0.113 0.121 0.159 0.058 0.398-0.126 0.477-0.05 0.021-0.098 0.024-0.152 0.023l-0.622-0.058c-0.053-9e-3 -0.099-0.021-0.145-0.051-0.166-0.111-0.184-0.358-0.035-0.492 0.054-0.049 0.116-0.068 0.186-0.079h0.052zm16.638 8e-3c0.067 0.022 0.125 0.051 0.171 0.109 0.112 0.141 0.078 0.354-0.071 0.454-0.046 0.03-0.092 0.042-0.145 0.051l-0.622 0.058c-0.054 1e-3 -0.102-2e-3 -0.152-0.023-0.184-0.079-0.247-0.318-0.126-0.477 0.042-0.055 0.102-0.095 0.169-0.113 0.016-4e-3 0.034-6e-3 0.051-9e-3l0.622-0.058h0.052c0.017 2e-3 0.034 5e-3 0.051 8e-3zm1.244-0.117c0.051 0.017 0.095 0.035 0.136 0.072 0.134 0.121 0.136 0.336 5e-3 0.46-0.054 0.05-0.115 0.071-0.185 0.083l-0.623 0.058c-0.017 0-0.034 2e-3 -0.051 1e-3 -0.069-5e-3 -0.136-0.033-0.187-0.08-0.149-0.134-0.131-0.38 0.036-0.492 0.045-0.03 0.091-0.042 0.144-0.051l0.623-0.058 0.051-1e-3c0.017 3e-3 0.034 6e-3 0.051 8e-3zm-19.127-7e-3 0.623 0.058 0.051 9e-3c0.05 0.018 0.094 0.037 0.134 0.074 0.146 0.138 0.123 0.384-0.046 0.492-0.062 0.039-0.126 0.048-0.197 0.047l-0.623-0.058c-0.053-9e-3 -0.099-0.021-0.144-0.051-0.167-0.111-0.185-0.358-0.036-0.492 0.055-0.049 0.116-0.069 0.187-0.08 0.017 1e-3 0.034 1e-3 0.051 1e-3zm20.372-0.109c0.068 0.023 0.125 0.052 0.171 0.109 0.112 0.141 0.079 0.355-0.071 0.455-0.046 0.03-0.092 0.042-0.145 0.051l-0.622 0.058c-0.054 1e-3 -0.101-2e-3 -0.152-0.024-0.184-0.078-0.247-0.317-0.126-0.476 0.042-0.055 0.102-0.095 0.169-0.113 0.017-5e-3 0.034-6e-3 0.051-9e-3l0.622-0.058 0.052-1e-3c0.017 3e-3 0.034 6e-3 0.051 8e-3zm-21.616-7e-3 0.622 0.058 0.051 9e-3c0.051 0.018 0.094 0.037 0.134 0.074 0.146 0.138 0.123 0.383-0.046 0.491-0.061 0.04-0.125 0.049-0.197 0.048l-0.622-0.058c-0.053-9e-3 -0.099-0.021-0.145-0.051-0.167-0.112-0.184-0.358-0.035-0.492 0.054-0.049 0.116-0.069 0.186-0.08 0.017 0 0.035 1e-3 0.052 1e-3zm22.86-0.109c0.051 0.017 0.095 0.035 0.136 0.072 0.134 0.12 0.136 0.336 5e-3 0.459-0.054 0.051-0.115 0.071-0.185 0.084l-0.622 0.058c-0.018 0-0.035 2e-3 -0.052 1e-3 -0.069-5e-3 -0.135-0.034-0.187-0.08-0.149-0.134-0.131-0.381 0.036-0.492 0.045-0.03 0.092-0.042 0.144-0.051l0.623-0.058 0.051-1e-3c0.017 3e-3 0.034 5e-3 0.051 8e-3zm-24.105-7e-3 0.623 0.058 0.05 9e-3c0.068 0.024 0.125 0.054 0.169 0.112 0.122 0.16 0.058 0.399-0.126 0.477-0.05 0.022-0.098 0.025-0.152 0.024l-0.622-0.058c-0.07-0.013-0.131-0.033-0.185-0.084-0.146-0.137-0.123-0.383 0.046-0.491 0.046-0.029 0.093-0.04 0.146-0.048 0.017 0 0.034 0 0.051 1e-3zm25.35-0.109c0.051 0.017 0.095 0.035 0.136 0.072 0.133 0.12 0.136 0.336 4e-3 0.459-0.053 0.05-0.114 0.071-0.185 0.084l-0.622 0.058c-0.054 0-0.101-2e-3 -0.151-0.024-0.185-0.078-0.248-0.317-0.127-0.477 0.042-0.055 0.102-0.095 0.169-0.112 0.017-5e-3 0.034-6e-3 0.051-9e-3l0.622-0.059h0.052c0.017 3e-3 0.034 5e-3 0.051 8e-3zm-26.594-8e-3 0.622 0.059 0.051 9e-3c0.05 0.018 0.094 0.037 0.134 0.074 0.146 0.137 0.123 0.383-0.046 0.491-0.062 0.039-0.126 0.049-0.197 0.048l-0.622-0.058c-0.053-0.01-0.1-0.021-0.145-0.052-0.167-0.111-0.185-0.357-0.036-0.491 0.055-0.049 0.116-0.069 0.187-0.08h0.052zm27.839-0.108c0.067 0.022 0.125 0.052 0.171 0.109 0.112 0.141 0.078 0.354-0.071 0.454-0.046 0.031-0.092 0.042-0.145 0.052l-0.622 0.058c-0.017 0-0.035 1e-3 -0.052 0-0.069-5e-3 -0.135-0.033-0.187-0.079-0.148-0.135-0.131-0.381 0.036-0.492 0.046-0.031 0.092-0.042 0.145-0.052l0.622-0.058h0.052c0.017 2e-3 0.034 5e-3 0.051 8e-3zm-29.084-8e-3 0.622 0.058 0.051 9e-3c0.068 0.024 0.125 0.055 0.169 0.113 0.121 0.16 0.058 0.398-0.126 0.477-0.05 0.021-0.098 0.024-0.152 0.024l-0.622-0.058c-0.07-0.013-0.132-0.034-0.185-0.084-0.146-0.137-0.123-0.383 0.046-0.491 0.046-0.029 0.092-0.04 0.145-0.048h0.052zm30.328-0.108c0.051 0.017 0.095 0.035 0.136 0.071 0.134 0.121 0.136 0.337 5e-3 0.46-0.054 0.05-0.115 0.071-0.185 0.083l-0.623 0.059c-0.017 0-0.034 1e-3 -0.051 0-0.069-5e-3 -0.136-0.033-0.187-0.079-0.149-0.135-0.131-0.381 0.036-0.492 0.045-0.031 0.091-0.042 0.144-0.052l0.623-0.058h0.051c0.017 2e-3 0.034 5e-3 0.051 8e-3zm-31.573-8e-3 0.623 0.058 0.051 9e-3c0.05 0.018 0.094 0.037 0.134 0.075 0.146 0.137 0.123 0.383-0.046 0.491-0.062 0.039-0.126 0.048-0.197 0.048l-0.623-0.059c-0.053-9e-3 -0.099-0.02-0.144-0.051-0.167-0.111-0.185-0.358-0.036-0.492 0.055-0.049 0.116-0.068 0.187-0.079h0.051zm32.818-0.109c0.051 0.017 0.095 0.035 0.135 0.072 0.134 0.121 0.136 0.337 5e-3 0.46-0.053 0.05-0.114 0.071-0.185 0.083l-0.622 0.058c-0.054 1e-3 -0.101-2e-3 -0.152-0.023-0.184-0.079-0.247-0.318-0.126-0.477 0.042-0.055 0.102-0.095 0.169-0.113 0.017-4e-3 0.034-6e-3 0.051-9e-3l0.622-0.058h0.052c0.017 2e-3 0.034 5e-3 0.051 7e-3zm-34.062-7e-3 0.622 0.058 0.051 9e-3c0.051 0.018 0.094 0.037 0.134 0.075 0.146 0.137 0.123 0.383-0.046 0.491-0.061 0.039-0.125 0.048-0.197 0.047l-0.622-0.058c-0.071-0.012-0.132-0.033-0.185-0.083-0.146-0.137-0.123-0.383 0.046-0.491 0.046-0.03 0.092-0.04 0.145-0.048h0.052zm35.306-0.109c0.051 0.017 0.095 0.035 0.136 0.072 0.134 0.121 0.136 0.336 5e-3 0.46-0.054 0.05-0.115 0.071-0.185 0.083l-0.623 0.058c-0.053 1e-3 -0.101-2e-3 -0.151-0.023-0.185-0.079-0.248-0.318-0.126-0.477 0.042-0.055 0.102-0.095 0.169-0.113 0.016-4e-3 0.033-6e-3 0.05-9e-3l0.623-0.058 0.051-1e-3c0.017 3e-3 0.034 6e-3 0.051 8e-3zm-36.551-7e-3 0.623 0.058 0.05 9e-3c0.051 0.018 0.095 0.037 0.135 0.074 0.146 0.138 0.123 0.384-0.046 0.491-0.062 0.04-0.126 0.049-0.197 0.048l-0.623-0.058c-0.053-9e-3 -0.099-0.021-0.144-0.051-0.167-0.112-0.185-0.358-0.036-0.492 0.054-0.049 0.116-0.069 0.187-0.08 0.017 1e-3 0.034 1e-3 0.051 1e-3zm37.796-0.109c0.068 0.023 0.125 0.052 0.171 0.109 0.112 0.141 0.079 0.355-0.071 0.455-0.046 0.03-0.092 0.042-0.145 0.051l-0.622 0.058c-0.017 0-0.034 2e-3 -0.052 1e-3 -0.069-5e-3 -0.135-0.034-0.186-0.08-0.149-0.134-0.131-0.38 0.035-0.492 0.046-0.03 0.092-0.042 0.145-0.051l0.622-0.058 0.052-1e-3c0.017 3e-3 0.034 6e-3 0.051 8e-3zm-39.04-7e-3 0.622 0.058 0.051 9e-3c0.05 0.018 0.094 0.037 0.134 0.074 0.146 0.138 0.123 0.383-0.046 0.491-0.062 0.04-0.126 0.049-0.197 0.048l-0.622-0.058c-0.053-9e-3 -0.099-0.021-0.145-0.051-0.167-0.112-0.184-0.358-0.036-0.492 0.055-0.049 0.116-0.069 0.187-0.08 0.017 0 0.034 1e-3 0.052 1e-3zm-1.245-0.116 0.622 0.058 0.051 9e-3c0.068 0.024 0.125 0.054 0.169 0.112 0.121 0.16 0.058 0.399-0.126 0.477-0.05 0.022-0.098 0.025-0.152 0.024l-0.622-0.058c-0.07-0.013-0.132-0.033-0.185-0.084-0.146-0.137-0.123-0.383 0.046-0.491 0.046-0.029 0.092-0.04 0.145-0.048 0.018 0 0.035 0 0.052 1e-3zm41.529 7e-3c0.068 0.023 0.126 0.052 0.172 0.109 0.112 0.141 0.078 0.354-0.071 0.455-0.046 0.03-0.092 0.042-0.145 0.051l-0.622 0.058c-0.054 1e-3 -0.102-2e-3 -0.152-0.024-0.184-0.078-0.247-0.317-0.126-0.477 0.042-0.055 0.102-0.095 0.169-0.112 0.016-5e-3 0.034-6e-3 0.051-9e-3l0.622-0.058 0.051-1e-3c0.017 3e-3 0.034 5e-3 0.051 8e-3zm1.245-0.116c0.068 0.022 0.126 0.052 0.171 0.109 0.112 0.141 0.079 0.354-0.071 0.454-0.045 0.031-0.092 0.042-0.144 0.052l-0.623 0.058c-0.017 0-0.034 2e-3 -0.051 0-0.069-5e-3 -0.136-0.033-0.187-0.079-0.149-0.134-0.131-0.381 0.036-0.492 0.045-0.031 0.091-0.042 0.144-0.051l0.622-0.059h0.052c0.017 3e-3 0.034 5e-3 0.051 8e-3zm-44.018-8e-3 0.622 0.059 0.051 9e-3c0.05 0.018 0.094 0.037 0.134 0.074 0.146 0.137 0.123 0.383-0.046 0.491-0.062 0.039-0.126 0.049-0.197 0.048l-0.623-0.058c-0.07-0.013-0.131-0.034-0.185-0.084-0.146-0.137-0.123-0.383 0.046-0.491 0.046-0.029 0.093-0.04 0.146-0.048h0.052zm45.263-0.108c0.068 0.022 0.125 0.052 0.171 0.109 0.112 0.141 0.079 0.354-0.071 0.454-0.046 0.031-0.092 0.042-0.145 0.052l-0.622 0.058c-0.054 0-0.101-3e-3 -0.152-0.024-0.184-0.079-0.247-0.317-0.126-0.477 0.042-0.055 0.102-0.095 0.169-0.113 0.017-4e-3 0.034-6e-3 0.051-9e-3l0.622-0.058h0.052c0.017 2e-3 0.034 5e-3 0.051 8e-3zm-46.508-8e-3 0.622 0.058 0.051 9e-3c0.051 0.018 0.094 0.037 0.134 0.075 0.146 0.137 0.123 0.383-0.046 0.491-0.061 0.039-0.125 0.048-0.197 0.048l-0.622-0.058c-0.053-0.01-0.099-0.021-0.145-0.052-0.166-0.111-0.184-0.357-0.035-0.492 0.054-0.049 0.116-0.068 0.186-0.079h0.052zm47.752-0.108c0.068 0.022 0.126 0.052 0.171 0.109 0.112 0.141 0.079 0.354-0.071 0.454-0.045 0.031-0.091 0.042-0.144 0.051l-0.623 0.059c-0.053 0-0.101-3e-3 -0.151-0.024-0.185-0.079-0.248-0.318-0.126-0.477 0.042-0.055 0.102-0.095 0.169-0.113 0.016-4e-3 0.033-6e-3 0.05-9e-3l0.623-0.058h0.051c0.017 2e-3 0.034 5e-3 0.051 8e-3zm-8.936-67.105h-0.625c-0.023 3e-3 -0.047 3e-3 -0.07 8e-3 -0.045 0.011-0.088 0.031-0.125 0.06-0.154 0.124-0.154 0.366 0 0.489 0.037 0.029 0.08 0.05 0.125 0.06 0.023 6e-3 0.047 6e-3 0.07 8e-3h0.625c0.023-2e-3 0.047-2e-3 0.07-8e-3 0.045-0.01 0.088-0.031 0.125-0.06 0.133-0.106 0.155-0.306 0.049-0.439-0.029-0.037-0.066-0.066-0.108-0.087-0.021-0.01-0.044-0.015-0.066-0.023zm-15 0h-0.625c-0.023 3e-3 -0.047 3e-3 -0.07 8e-3 -0.045 0.011-0.088 0.031-0.125 0.06-0.154 0.124-0.154 0.366 0 0.489 0.037 0.029 0.08 0.05 0.125 0.06 0.023 6e-3 0.047 6e-3 0.07 8e-3h0.625c0.023-2e-3 0.047-2e-3 0.07-8e-3 0.045-0.01 0.088-0.031 0.125-0.06 0.133-0.106 0.155-0.306 0.049-0.439-0.029-0.037-0.066-0.066-0.108-0.087-0.021-0.01-0.044-0.015-0.066-0.023zm-16.18 8e-3c0.022 8e-3 0.045 0.013 0.066 0.023 0.042 0.021 0.079 0.05 0.108 0.087 0.106 0.133 0.084 0.333-0.049 0.439-0.037 0.029-0.08 0.05-0.125 0.06-0.023 6e-3 -0.047 6e-3 -0.07 8e-3h-0.625c-0.023-2e-3 -0.047-2e-3 -0.07-8e-3 -0.045-0.01-0.088-0.031-0.125-0.06-0.154-0.123-0.154-0.365 0-0.489 0.037-0.029 0.08-0.049 0.125-0.06 0.023-5e-3 0.047-5e-3 0.07-8e-3h0.625c0.023 3e-3 0.046 5e-3 0.07 8e-3zm21.25 0c0.022 8e-3 0.045 0.013 0.066 0.023 0.042 0.021 0.079 0.05 0.108 0.087 0.106 0.133 0.084 0.333-0.049 0.439-0.037 0.029-0.08 0.05-0.125 0.06-0.023 6e-3 -0.047 6e-3 -0.07 8e-3h-0.625c-0.023-2e-3 -0.047-2e-3 -0.07-8e-3 -0.045-0.01-0.088-0.031-0.125-0.06-0.154-0.123-0.154-0.365 0-0.489 0.037-0.029 0.08-0.049 0.125-0.06 0.023-5e-3 0.047-5e-3 0.07-8e-3h0.625c0.023 3e-3 0.046 5e-3 0.07 8e-3zm-1.32 0.617c0.023-2e-3 0.047-2e-3 0.07-8e-3 0.045-0.01 0.088-0.031 0.125-0.06 0.133-0.106 0.155-0.306 0.049-0.439-0.029-0.037-0.066-0.066-0.108-0.087-0.021-0.01-0.044-0.015-0.066-0.023-0.024-3e-3 -0.047-5e-3 -0.07-8e-3h-0.625c-0.023 3e-3 -0.047 3e-3 -0.07 8e-3 -0.045 0.011-0.088 0.031-0.125 0.06-0.154 0.124-0.154 0.366 0 0.489 0.037 0.029 0.08 0.05 0.125 0.06 0.023 6e-3 0.047 6e-3 0.07 8e-3zm-2.5-0.625h-0.625c-0.023 3e-3 -0.047 3e-3 -0.07 8e-3 -0.045 0.011-0.088 0.031-0.125 0.06-0.154 0.124-0.154 0.366 0 0.489 0.037 0.029 0.08 0.05 0.125 0.06 0.023 6e-3 0.047 6e-3 0.07 8e-3h0.625c0.023-2e-3 0.047-2e-3 0.07-8e-3 0.045-0.01 0.088-0.031 0.125-0.06 0.133-0.106 0.155-0.306 0.049-0.439-0.029-0.037-0.066-0.066-0.108-0.087-0.021-0.01-0.044-0.015-0.066-0.023zm-18.75 0.625c0.023-2e-3 0.047-2e-3 0.07-8e-3 0.045-0.01 0.088-0.031 0.125-0.06 0.133-0.106 0.155-0.306 0.049-0.439-0.029-0.037-0.066-0.066-0.108-0.087-0.021-0.01-0.044-0.015-0.066-0.023-0.024-3e-3 -0.047-5e-3 -0.07-8e-3h-0.625c-0.023 3e-3 -0.047 3e-3 -0.07 8e-3 -0.045 0.011-0.088 0.031-0.125 0.06-0.154 0.124-0.154 0.366 0 0.489 0.037 0.029 0.08 0.05 0.125 0.06 0.023 6e-3 0.047 6e-3 0.07 8e-3zm11.25-0.625h-0.625c-0.023 3e-3 -0.047 3e-3 -0.07 8e-3 -0.045 0.011-0.088 0.031-0.125 0.06-0.154 0.124-0.154 0.366 0 0.489 0.037 0.029 0.08 0.05 0.125 0.06 0.023 6e-3 0.047 6e-3 0.07 8e-3h0.625c0.023-2e-3 0.047-2e-3 0.07-8e-3 0.045-0.01 0.088-0.031 0.125-0.06 0.133-0.106 0.155-0.306 0.049-0.439-0.029-0.037-0.066-0.066-0.108-0.087-0.021-0.01-0.044-0.015-0.066-0.023zm5 0h-0.625c-0.023 3e-3 -0.047 3e-3 -0.07 8e-3 -0.045 0.011-0.088 0.031-0.125 0.06-0.154 0.124-0.154 0.366 0 0.489 0.037 0.029 0.08 0.05 0.125 0.06 0.023 6e-3 0.047 6e-3 0.07 8e-3h0.625c0.023-2e-3 0.047-2e-3 0.07-8e-3 0.045-0.01 0.088-0.031 0.125-0.06 0.133-0.106 0.155-0.306 0.049-0.439-0.029-0.037-0.066-0.066-0.108-0.087-0.021-0.01-0.044-0.015-0.066-0.023zm8.75 0h-0.625c-0.023 3e-3 -0.047 3e-3 -0.07 8e-3 -0.045 0.011-0.088 0.031-0.125 0.06-0.154 0.124-0.154 0.366 0 0.489 0.037 0.029 0.08 0.05 0.125 0.06 0.023 6e-3 0.047 6e-3 0.07 8e-3h0.625c0.023-2e-3 0.047-2e-3 0.07-8e-3 0.045-0.01 0.088-0.031 0.125-0.06 0.133-0.106 0.155-0.306 0.049-0.439-0.029-0.037-0.066-0.066-0.108-0.087-0.021-0.01-0.044-0.015-0.066-0.023zm3.75 0h-0.625c-0.023 3e-3 -0.047 3e-3 -0.07 8e-3 -0.045 0.011-0.088 0.031-0.125 0.06-0.154 0.124-0.154 0.366 0 0.489 0.037 0.029 0.08 0.05 0.125 0.06 0.023 6e-3 0.047 6e-3 0.07 8e-3h0.625c0.023-2e-3 0.047-2e-3 0.07-8e-3 0.045-0.01 0.088-0.031 0.125-0.06 0.133-0.106 0.155-0.306 0.049-0.439-0.029-0.037-0.066-0.066-0.108-0.087-0.021-0.01-0.044-0.015-0.066-0.023zm-1.25 0h-0.625c-0.023 3e-3 -0.047 3e-3 -0.07 8e-3 -0.045 0.011-0.088 0.031-0.125 0.06-0.154 0.124-0.154 0.366 0 0.489 0.037 0.029 0.08 0.05 0.125 0.06 0.023 6e-3 0.047 6e-3 0.07 8e-3h0.625c0.023-2e-3 0.047-2e-3 0.07-8e-3 0.045-0.01 0.088-0.031 0.125-0.06 0.133-0.106 0.155-0.306 0.049-0.439-0.029-0.037-0.066-0.066-0.108-0.087-0.021-0.01-0.044-0.015-0.066-0.023zm-1.25 0h-0.625c-0.023 3e-3 -0.047 3e-3 -0.07 8e-3 -0.045 0.011-0.088 0.031-0.125 0.06-0.154 0.124-0.154 0.366 0 0.489 0.037 0.029 0.08 0.05 0.125 0.06 0.023 6e-3 0.047 6e-3 0.07 8e-3h0.625c0.023-2e-3 0.047-2e-3 0.07-8e-3 0.045-0.01 0.088-0.031 0.125-0.06 0.133-0.106 0.155-0.306 0.049-0.439-0.029-0.037-0.066-0.066-0.108-0.087-0.021-0.01-0.044-0.015-0.066-0.023zm-2.5 0h-0.625c-0.023 3e-3 -0.047 3e-3 -0.07 8e-3 -0.045 0.011-0.088 0.031-0.125 0.06-0.154 0.124-0.154 0.366 0 0.489 0.037 0.029 0.08 0.05 0.125 0.06 0.023 6e-3 0.047 6e-3 0.07 8e-3h0.625c0.023-2e-3 0.047-2e-3 0.07-8e-3 0.045-0.01 0.088-0.031 0.125-0.06 0.133-0.106 0.155-0.306 0.049-0.439-0.029-0.037-0.066-0.066-0.108-0.087-0.021-0.01-0.044-0.015-0.066-0.023zm6.25 0h-0.625c-0.023 3e-3 -0.047 3e-3 -0.07 8e-3 -0.045 0.011-0.088 0.031-0.125 0.06-0.154 0.124-0.154 0.366 0 0.489 0.037 0.029 0.08 0.05 0.125 0.06 0.023 6e-3 0.047 6e-3 0.07 8e-3h0.625c0.023-2e-3 0.047-2e-3 0.07-8e-3 0.045-0.01 0.088-0.031 0.125-0.06 0.133-0.106 0.155-0.306 0.049-0.439-0.029-0.037-0.066-0.066-0.108-0.087-0.021-0.01-0.044-0.015-0.066-0.023zm1.25 0h-0.625c-0.023 3e-3 -0.047 3e-3 -0.07 8e-3 -0.045 0.011-0.088 0.031-0.125 0.06-0.154 0.124-0.154 0.366 0 0.489 0.037 0.029 0.08 0.05 0.125 0.06 0.023 6e-3 0.047 6e-3 0.07 8e-3h0.625c0.023-2e-3 0.047-2e-3 0.07-8e-3 0.045-0.01 0.088-0.031 0.125-0.06 0.133-0.106 0.155-0.306 0.049-0.439-0.029-0.037-0.066-0.066-0.108-0.087-0.021-0.01-0.044-0.015-0.066-0.023zm2.5 0h-0.625c-0.023 3e-3 -0.047 3e-3 -0.07 8e-3 -0.045 0.011-0.088 0.031-0.125 0.06-0.154 0.124-0.154 0.366 0 0.489 0.037 0.029 0.08 0.05 0.125 0.06 0.023 6e-3 0.047 6e-3 0.07 8e-3h0.625c0.023-2e-3 0.047-2e-3 0.07-8e-3 0.045-0.01 0.088-0.031 0.125-0.06 0.133-0.106 0.155-0.306 0.049-0.439-0.029-0.037-0.066-0.066-0.108-0.087-0.021-0.01-0.044-0.015-0.066-0.023zm1.25 0h-0.625c-0.023 3e-3 -0.047 3e-3 -0.07 8e-3 -0.045 0.011-0.088 0.031-0.125 0.06-0.154 0.124-0.154 0.366 0 0.489 0.037 0.029 0.08 0.05 0.125 0.06 0.023 6e-3 0.047 6e-3 0.07 8e-3h0.625c0.023-2e-3 0.047-2e-3 0.07-8e-3 0.045-0.01 0.088-0.031 0.125-0.06 0.133-0.106 0.155-0.306 0.049-0.439-0.029-0.037-0.066-0.066-0.108-0.087-0.021-0.01-0.044-0.015-0.066-0.023zm-20 0h-0.625c-0.023 3e-3 -0.047 3e-3 -0.07 8e-3 -0.045 0.011-0.088 0.031-0.125 0.06-0.154 0.124-0.154 0.366 0 0.489 0.037 0.029 0.08 0.05 0.125 0.06 0.023 6e-3 0.047 6e-3 0.07 8e-3h0.625c0.023-2e-3 0.047-2e-3 0.07-8e-3 0.045-0.01 0.088-0.031 0.125-0.06 0.133-0.106 0.155-0.306 0.049-0.439-0.029-0.037-0.066-0.066-0.108-0.087-0.021-0.01-0.044-0.015-0.066-0.023zm-1.25 0h-0.625c-0.023 3e-3 -0.047 3e-3 -0.07 8e-3 -0.045 0.011-0.088 0.031-0.125 0.06-0.154 0.124-0.154 0.366 0 0.489 0.037 0.029 0.08 0.05 0.125 0.06 0.023 6e-3 0.047 6e-3 0.07 8e-3h0.625c0.023-2e-3 0.047-2e-3 0.07-8e-3 0.045-0.01 0.088-0.031 0.125-0.06 0.133-0.106 0.155-0.306 0.049-0.439-0.029-0.037-0.066-0.066-0.108-0.087-0.021-0.01-0.044-0.015-0.066-0.023zm-1.25 0h-0.625c-0.023 3e-3 -0.047 3e-3 -0.07 8e-3 -0.045 0.011-0.088 0.031-0.125 0.06-0.154 0.124-0.154 0.366 0 0.489 0.037 0.029 0.08 0.05 0.125 0.06 0.023 6e-3 0.047 6e-3 0.07 8e-3h0.625c0.023-2e-3 0.047-2e-3 0.07-8e-3 0.045-0.01 0.088-0.031 0.125-0.06 0.133-0.106 0.155-0.306 0.049-0.439-0.029-0.037-0.066-0.066-0.108-0.087-0.021-0.01-0.044-0.015-0.066-0.023zm-2.5 0h-0.625c-0.023 3e-3 -0.047 3e-3 -0.07 8e-3 -0.045 0.011-0.088 0.031-0.125 0.06-0.154 0.124-0.154 0.366 0 0.489 0.037 0.029 0.08 0.05 0.125 0.06 0.023 6e-3 0.047 6e-3 0.07 8e-3h0.625c0.023-2e-3 0.047-2e-3 0.07-8e-3 0.045-0.01 0.088-0.031 0.125-0.06 0.133-0.106 0.155-0.306 0.049-0.439-0.029-0.037-0.066-0.066-0.108-0.087-0.021-0.01-0.044-0.015-0.066-0.023zm-1.25 0h-0.625c-0.023 3e-3 -0.047 3e-3 -0.07 8e-3 -0.045 0.011-0.088 0.031-0.125 0.06-0.154 0.124-0.154 0.366 0 0.489 0.037 0.029 0.08 0.05 0.125 0.06 0.023 6e-3 0.047 6e-3 0.07 8e-3h0.625c0.023-2e-3 0.047-2e-3 0.07-8e-3 0.045-0.01 0.088-0.031 0.125-0.06 0.133-0.106 0.155-0.306 0.049-0.439-0.029-0.037-0.066-0.066-0.108-0.087-0.021-0.01-0.044-0.015-0.066-0.023zm-1.25 0h-0.625c-0.023 3e-3 -0.047 3e-3 -0.07 8e-3 -0.045 0.011-0.088 0.031-0.125 0.06-0.154 0.124-0.154 0.366 0 0.489 0.037 0.029 0.08 0.05 0.125 0.06 0.023 6e-3 0.047 6e-3 0.07 8e-3h0.625c0.023-2e-3 0.047-2e-3 0.07-8e-3 0.045-0.01 0.088-0.031 0.125-0.06 0.133-0.106 0.155-0.306 0.049-0.439-0.029-0.037-0.066-0.066-0.108-0.087-0.021-0.01-0.044-0.015-0.066-0.023zm-1.25 0h-0.625c-0.023 3e-3 -0.047 3e-3 -0.07 8e-3 -0.045 0.011-0.088 0.031-0.125 0.06-0.154 0.124-0.154 0.366 0 0.489 0.037 0.029 0.08 0.05 0.125 0.06 0.023 6e-3 0.047 6e-3 0.07 8e-3h0.625c0.023-2e-3 0.047-2e-3 0.07-8e-3 0.045-0.01 0.088-0.031 0.125-0.06 0.133-0.106 0.155-0.306 0.049-0.439-0.029-0.037-0.066-0.066-0.108-0.087-0.021-0.01-0.044-0.015-0.066-0.023zm-1.25 0.625c0.023-2e-3 0.047-2e-3 0.07-8e-3 0.045-0.01 0.088-0.031 0.125-0.06 0.133-0.106 0.155-0.306 0.049-0.439-0.029-0.037-0.066-0.066-0.108-0.087-0.021-0.01-0.044-0.015-0.066-0.023-0.024-3e-3 -0.047-5e-3 -0.07-8e-3h-0.625c-0.023 3e-3 -0.047 3e-3 -0.07 8e-3 -0.045 0.011-0.088 0.031-0.125 0.06-0.154 0.124-0.154 0.366 0 0.489 0.037 0.029 0.08 0.05 0.125 0.06 0.023 6e-3 0.047 6e-3 0.07 8e-3zm-1.25-0.625h-0.625c-0.023 3e-3 -0.047 3e-3 -0.07 8e-3 -0.045 0.011-0.088 0.031-0.125 0.06-0.154 0.124-0.154 0.366 0 0.489 0.037 0.029 0.08 0.05 0.125 0.06 0.023 6e-3 0.047 6e-3 0.07 8e-3h0.625c0.023-2e-3 0.047-2e-3 0.07-8e-3 0.045-0.01 0.088-0.031 0.125-0.06 0.133-0.106 0.155-0.306 0.049-0.439-0.029-0.037-0.066-0.066-0.108-0.087-0.021-0.01-0.044-0.015-0.066-0.023zm-1.25 0h-0.625c-0.023 3e-3 -0.047 3e-3 -0.07 8e-3 -0.045 0.011-0.088 0.031-0.125 0.06-0.154 0.124-0.154 0.366 0 0.489 0.037 0.029 0.08 0.05 0.125 0.06 0.023 6e-3 0.047 6e-3 0.07 8e-3h0.625c0.023-2e-3 0.047-2e-3 0.07-8e-3 0.045-0.01 0.088-0.031 0.125-0.06 0.133-0.106 0.155-0.306 0.049-0.439-0.029-0.037-0.066-0.066-0.108-0.087-0.021-0.01-0.044-0.015-0.066-0.023zm14.499-4.205c0.155 0.012 0.303 0.049 0.441 0.124 0.282 0.153 0.481 0.436 0.53 0.753 0.016 0.104 0.016 0.211 0 0.315-0.016 0.101-0.046 0.2-0.091 0.292-0.05 0.104-0.119 0.201-0.201 0.283-0.094 0.094-0.206 0.17-0.329 0.222-0.127 0.054-0.265 0.081-0.403 0.081-0.139 0-0.276-0.027-0.404-0.081-0.122-0.052-0.235-0.128-0.329-0.222-0.082-0.082-0.15-0.179-0.201-0.283-0.044-0.092-0.075-0.191-0.09-0.292-0.016-0.104-0.016-0.211 0-0.315 0.048-0.317 0.248-0.6 0.53-0.753 0.137-0.075 0.285-0.112 0.441-0.124 0.053-2e-3 0.053-2e-3 0.106 0zm-0.081 0.493c-0.081 6e-3 -0.159 0.025-0.231 0.064-0.199 0.109-0.312 0.336-0.278 0.56 8e-3 0.053 0.024 0.104 0.048 0.152 0.026 0.055 0.062 0.106 0.105 0.149 0.05 0.049 0.108 0.089 0.173 0.116 0.066 0.029 0.138 0.043 0.211 0.043 0.072 0 0.144-0.014 0.211-0.043 0.064-0.027 0.123-0.067 0.172-0.116 0.043-0.043 0.079-0.094 0.106-0.149 0.023-0.048 0.039-0.099 0.047-0.152 0.034-0.224-0.078-0.451-0.278-0.56-0.072-0.039-0.149-0.058-0.23-0.064-0.028-1e-3 -0.028-1e-3 -0.056 0z"/></g></svg>
