<svg fill="#CCCCCC" xmlns="http://www.w3.org/2000/svg" xmlns:xlink="http://www.w3.org/1999/xlink" version="1.1" x="0px" y="0px" viewBox="0 0 100 100" enable-background="new 0 0 100 100" xml:space="preserve"><path d="M94.105,47.391c-0.516-3.418-2.349-6.449-4.121-9.382c-2.011-3.326-3.91-6.468-4.044-10.111  c-0.019-0.505-0.002-1.01,0.015-1.516c0.021-0.628,0.042-1.277-0.003-1.928c-0.177-2.537-1.329-5.104-3.626-8.077  c-2.976-3.854-6.352-6.695-10.034-8.441c-2.07-0.981-5.045-1.847-7.454-0.398c-0.123,0.074-0.2,0.194-0.228,0.325  c-0.924-1.211-1.949-2.268-3.074-3.138C57.718,1.77,52.745,1,48.863,2.76c-2.839,1.288-5.24,3.935-7.136,7.867  c-1.538,3.19-1.776,5.713-0.73,7.711c0.133,0.252,0.286,0.493,0.44,0.733c0.222,0.347,0.432,0.675,0.56,1.024  c0.494,1.351-0.3,2.854-0.816,3.631c-0.289,0.434-0.61,0.846-0.932,1.259c-0.567,0.729-1.155,1.484-1.571,2.354  c-0.52,1.087-0.736,2.332-0.677,3.631c-5.782,4.002-10.827,8.672-14.996,13.879c-2.123,2.651-4.044,5.489-5.71,8.435  c-3.015,5.331-5.188,10.966-6.458,16.745c-0.121,0.55-0.23,1.09-0.333,1.624c-0.254-0.704-0.556-1.347-0.931-1.945  c-0.855-1.363-1.87-2.727-2.893-2.51c-1.293,0.276-1.077,2.681-0.105,7.966c0.181,0.981,0.351,1.908,0.357,2.226  c0.032,1.524-0.221,3.08-0.466,4.586c-0.105,0.648-0.211,1.296-0.296,1.945c-0.475,3.623-0.322,7.27,0.453,10.84  c0.147,0.68,0.598,2.749,2.228,3.292c0.249,0.082,0.498,0.12,0.745,0.12c1.198,0,2.319-0.9,2.828-1.971  c0.522-1.102,0.553-2.307,0.583-3.473l0.009-0.335c0.097-3.244,0.688-5.616,1.859-7.463c0.485-0.765,1.095-1.476,1.686-2.164  l0.475-0.558c0.743-0.884,1.175-1.596,1.669-2.526c0.419-0.788,0.937-1.552,1.438-2.29c0.719-1.059,1.462-2.153,1.968-3.391  c0.171-0.42,0.049-0.688-0.08-0.833c-0.147-0.171-0.341-0.218-0.408-0.233c-1.044-0.264-2.048,0.096-2.966,0.614  c2.591-3.242,5.821-6.116,9.504-8.419c6.083-3.804,13.538-6.277,22.154-7.366c0.452,1.181,0.802,2.52,1.042,4.047l0.066,0.433  c0.159,1.052,0.324,2.14,0.837,3.127c0.87,1.676,2.562,2.703,3.92,3.529c1.201,0.729,2.562,1.556,4.124,1.768  c1.836,0.251,3.564-0.39,5.234-1.007c1.065-0.394,2.166-0.801,3.259-0.956c2.863-0.409,5.707,0.85,8.457,2.066l1.008,0.442  c0.59,0.258,1.173,0.493,1.818,0.558c0.12,0.012,0.239,0.017,0.357,0.017c0.952,0,1.849-0.363,2.682-0.766  c2.806-1.351,4.871-3.04,6.14-5.023c1.592-2.487,1.866-5.581,0.7-7.881c-0.532-1.047-1.294-1.856-2.12-2.487  c1.043-0.105,1.982-0.618,2.854-1.166c0.977-0.614,1.985-1.299,2.65-2.312C94.141,50.94,94.397,49.337,94.105,47.391z M39.58,27.772  c0.369-0.773,0.898-1.453,1.458-2.172c0.336-0.433,0.672-0.864,0.975-1.318c1.074-1.613,1.402-3.222,0.924-4.529  c-0.166-0.453-0.416-0.843-0.657-1.22c-0.139-0.216-0.277-0.433-0.396-0.659c-0.878-1.674-0.627-3.966,0.744-6.812  c1.792-3.715,4.028-6.201,6.649-7.391c3.547-1.608,8.118-0.886,11.646,1.845c2.961,2.293,5.238,5.931,6.587,10.521  c0.143,0.489,0.268,0.965,0.214,1.408c-0.079,0.646-0.554,1.283-1.303,1.749c-0.526,0.327-1.115,0.547-1.738,0.779  c-0.221,0.083-0.44,0.165-0.658,0.253c-2.477,0.991-4.552,2.629-5.841,4.612c-1.453,2.235-1.926,4.98-1.266,7.341  c0.114,0.408,0.262,0.809,0.409,1.209c0.237,0.642,0.461,1.249,0.537,1.878c0.128,1.072-0.231,2.177-0.939,2.883  c-0.754,0.751-2.229,1.375-3.129,1.126c-2.187-1.192-5.423-2.329-7.818-0.036c-0.424,0.406-0.779,0.87-1.1,1.357  c-1.769-1.697-3.558-3.466-4.721-5.63C38.824,32.49,38.609,29.801,39.58,27.772z M18.166,53.777c1.639-2.898,3.53-5.691,5.62-8.302  c3.998-4.995,8.823-9.484,14.336-13.36c0.189,1.111,0.57,2.239,1.155,3.325c0.723,1.344,1.659,2.525,2.673,3.626  c-5.11,3.899-11.2,9.335-15.18,13.554c-4.959,5.255-8.613,10.211-11.171,15.15c-0.2,0.384-0.394,0.771-0.582,1.161  c-0.01,0.021-0.01,0.044-0.017,0.066c-1.48,0.879-2.719,2.141-3.672,3.716c0.143-0.803,0.3-1.623,0.486-2.469  C13.063,64.562,15.199,59.022,18.166,53.777z M16.867,76.152c0.388-0.491,0.837-0.796,1.357-1.149  c0.928-0.63,1.901-1.218,2.861-1.145c-0.461,1.045-1.099,1.984-1.771,2.975c-0.517,0.761-1.05,1.547-1.493,2.383  c-0.463,0.871-0.865,1.535-1.552,2.352l-0.469,0.55c-0.613,0.716-1.247,1.455-1.77,2.28c-1.272,2.005-1.913,4.537-2.016,7.969  l-0.009,0.339c-0.027,1.062-0.055,2.159-0.486,3.069c-0.418,0.877-1.436,1.633-2.354,1.33c-0.733-0.244-1.246-1.08-1.567-2.556  c-0.75-3.457-0.897-6.988-0.438-10.497c0.083-0.639,0.188-1.276,0.291-1.915c0.252-1.55,0.513-3.151,0.479-4.768  c-0.009-0.397-0.162-1.231-0.374-2.385c-0.315-1.715-1.153-6.271-0.669-6.807c0,0,0.003-0.001,0.009-0.001  c0.07,0,0.583,0.078,1.853,2.104c0.764,1.219,1.231,2.676,1.52,4.725c0.031,0.226,0.211,0.401,0.438,0.428  c0.232,0.02,0.441-0.104,0.523-0.315c0.879-2.259,2.218-3.974,3.986-5.106c0.402,2.523,0.565,4.915-0.643,6.795  c-0.011,0.016-0.021,0.032-0.031,0.049c-0.144,0.233-0.073,0.537,0.158,0.684c0.23,0.146,0.536,0.081,0.686-0.148  c0.008-0.011,0.015-0.021,0.021-0.031c0.103-0.147,0.368-0.329,0.604-0.491c0.067-0.046,0.132-0.096,0.2-0.144  c0.121-0.029,0.236-0.089,0.308-0.203c0.02-0.032,0.044-0.063,0.064-0.095C16.685,76.338,16.787,76.253,16.867,76.152z   M27.63,64.285c-4.557,2.849-8.437,6.554-11.309,10.75c0.374-1.86,0.106-3.914-0.236-5.91c-0.003-0.018-0.017-0.032-0.022-0.05  c0.139-0.282,0.278-0.565,0.423-0.845c2.515-4.855,6.116-9.737,11.01-14.925c3.968-4.204,10.05-9.631,15.136-13.505  c0.003-0.002,0.004-0.006,0.007-0.008c0.564,0.577,1.142,1.137,1.718,1.689c-1.115,2.255-1.26,5.051-0.262,7.612  c0.458,1.175,0.993,2.093,1.638,2.807c0.384,0.426,0.816,0.79,1.234,1.144c0.26,0.22,0.521,0.439,0.768,0.674  c0.873,0.828,1.592,1.86,2.175,3.096C41.268,57.94,33.769,60.445,27.63,64.285z M89.065,58.573c1.01,1.989,0.755,4.693-0.649,6.889  c-1.167,1.824-3.096,3.393-5.732,4.662c-0.805,0.389-1.666,0.738-2.507,0.653c-0.5-0.049-1.003-0.254-1.518-0.479l-1.002-0.44  c-2.483-1.1-5.041-2.231-7.72-2.231c-0.424,0-0.852,0.028-1.282,0.09c-1.199,0.171-2.351,0.597-3.465,1.009  c-1.628,0.603-3.162,1.167-4.753,0.954c-1.356-0.185-2.622-0.953-3.739-1.633c-1.253-0.761-2.812-1.707-3.552-3.135  c-0.437-0.841-0.582-1.8-0.735-2.816l-0.067-0.438c-0.264-1.676-0.658-3.143-1.172-4.436c0.001-0.025,0.009-0.047,0.006-0.073  c-0.014-0.119-0.075-0.219-0.155-0.297c-0.667-1.558-1.526-2.842-2.6-3.86c-0.261-0.247-0.535-0.479-0.811-0.711  c-0.41-0.347-0.798-0.675-1.137-1.05c-0.562-0.623-1.035-1.44-1.448-2.5c-1.223-3.136-0.562-6.66,1.643-8.77  c1.808-1.73,4.572-1.304,8.451,1.304c1.918,1.288,3.76,2.586,5.216,4.293c0.322,0.377,0.623,0.772,0.924,1.168  c0.513,0.672,1.042,1.367,1.674,1.977c1.397,1.346,3.154,2.145,4.688,2.749c2.983,1.175,6.105,1.968,9.281,2.356  c0.656,0.081,1.317,0.145,1.978,0.208c1.646,0.158,3.349,0.321,4.942,0.767C85.268,55.186,87.869,56.214,89.065,58.573z   M92.507,51.606c-0.555,0.846-1.464,1.459-2.348,2.015c-0.863,0.543-1.812,1.059-2.73,1.054c-0.69-0.013-1.357-0.31-2.062-0.624  c-0.229-0.102-0.457-0.203-0.687-0.296c-1.393-0.559-3.441-0.733-4.873-0.651c-0.277-0.028-0.555-0.056-0.83-0.083  c-0.651-0.063-1.304-0.126-1.952-0.205c-3.091-0.379-6.131-1.15-9.035-2.294c-1.443-0.568-3.09-1.315-4.361-2.54  c-0.576-0.556-1.06-1.189-1.571-1.861c-0.312-0.41-0.625-0.82-0.958-1.211c-0.06-0.07-0.129-0.13-0.19-0.198  c0.369-0.12,0.828-0.127,1.279-0.11l4.232,0.153c-0.014,0.14-0.02,0.281-0.006,0.423c0.079,0.811,0.615,1.59,1.397,2.032  c0.436,0.247,0.902,0.374,1.356,0.374c0.178,0,0.353-0.02,0.523-0.059c0.714-0.164,1.298-0.695,1.489-1.352  c0.305-1.04-0.387-2.044-1.135-2.637c-0.185-0.146-0.437-0.328-0.745-0.422c-0.326-0.099-0.683-0.091-1.028,0.018  c-0.132-0.146-0.343-0.21-0.538-0.139c-0.394,0.138-0.724,0.419-0.959,0.772l-4.552-0.164c-0.537-0.017-1.373-0.041-2.052,0.343  c-0.581-0.572-1.193-1.109-1.835-1.609c0.094-0.05,0.19-0.095,0.284-0.149c1.91-1.083,4.055-1.709,6.245-1.836  c0.032,0.12,0.068,0.23,0.103,0.312c0.285,0.667,0.61,0.751,1.16,0.841c0.381,0.062,0.735,0.094,1.067,0.094  c1.339,0,2.32-0.514,3.167-1.623c0.139-0.182,0.137-0.435-0.006-0.614c-0.895-1.131-2.227-1.898-3.654-2.106  c-0.582-0.084-1.027,0.112-1.192,0.527c-0.102,0.257,0.023,0.548,0.28,0.649c0.224,0.087,0.478,0.004,0.604-0.193  c0.033-0.004,0.089-0.006,0.163,0.007c1.046,0.152,2.029,0.668,2.753,1.435c-0.651,0.726-1.458,1.094-3.021,0.839  c-0.108-0.018-0.272-0.045-0.305-0.062c-0.004-0.004-0.034-0.036-0.098-0.185c-0.003-0.008-0.004-0.015-0.007-0.023  c0.149-0.087,0.253-0.242,0.253-0.427c0-0.108-0.042-0.203-0.101-0.284c0.053-0.069,0.096-0.149,0.107-0.242  c0.031-0.274-0.165-0.522-0.439-0.555c-0.293-0.034-0.554,0.077-0.723,0.303c-0.067,0.09-0.1,0.2-0.131,0.308  c-2.356,0.13-4.669,0.802-6.768,1.993c-0.222,0.126-0.432,0.245-0.621,0.266c-0.023,0.003-0.042,0.015-0.064,0.02  c-0.57-0.412-1.145-0.812-1.714-1.195c-0.114-0.076-0.248-0.166-0.393-0.261c0.893-0.243,1.77-0.744,2.345-1.317  c0.017-0.017,0.031-0.036,0.047-0.053c0.165-0.002,0.325-0.084,0.419-0.235c0.453-0.73,1.42-1.024,2.397-1.232  c4.383-0.938,9.021-1.03,13.447-0.282c-0.157,0.227-0.102,0.537,0.125,0.695c0.064,0.045,0.137,0.073,0.21,0.084  c0.104,0.238,0.255,0.455,0.444,0.627c0.447,0.408,1.084,0.624,1.823,0.624c0.129,0,0.263-0.007,0.397-0.02  c0.817-0.081,1.429-0.394,1.771-0.903c0.525-0.786,0.271-1.941-0.557-2.521c-0.678-0.477-1.63-0.531-2.485-0.142  c-0.217,0.1-0.425,0.224-0.626,0.375c-0.169-0.051-0.358-0.009-0.492,0.124c-0.037,0.037-0.06,0.085-0.093,0.126  c-4.654-0.833-9.552-0.754-14.173,0.235c-0.511,0.109-1.042,0.252-1.534,0.468c0.132-0.539,0.174-1.107,0.106-1.678  c-0.044-0.367-0.129-0.72-0.232-1.064c1.667-1.983,4.037-3.291,6.935-3.821c0.004,0.137,0.06,0.272,0.174,0.367  c0.174,0.146,0.422,0.154,0.603,0.03c0.189,0.271,0.441,0.512,0.745,0.704c0.615,0.392,1.324,0.523,1.873,0.596  c0.188,0.024,0.386,0.044,0.588,0.044c0.331,0,0.672-0.053,0.989-0.22c0.685-0.361,1.07-1.2,0.938-2.042  c-0.131-0.817-0.667-1.418-1.093-1.778c-0.225-0.189-0.574-0.448-1.023-0.494c-0.494-0.058-0.931,0.169-1.291,0.392  c-0.066,0.041-0.133,0.083-0.198,0.126c-0.1-0.147-0.274-0.234-0.461-0.22c-0.713,0.065-1.31,0.685-1.434,1.425  c-3.171,0.464-5.808,1.766-7.717,3.81c-0.133-0.361-0.267-0.723-0.37-1.092c-0.584-2.088-0.157-4.528,1.141-6.526  c1.179-1.812,3.087-3.313,5.374-4.229c0.211-0.084,0.424-0.164,0.638-0.243c0.641-0.24,1.305-0.488,1.915-0.867  c1.009-0.626,1.652-1.529,1.768-2.479c0.076-0.631-0.08-1.24-0.247-1.81c-0.822-2.799-1.99-5.252-3.436-7.301  c0.107,0.013,0.219,0,0.318-0.059c2.137-1.285,4.996-0.274,6.511,0.445c3.538,1.678,6.792,4.419,9.671,8.148  c2.17,2.81,3.257,5.204,3.419,7.535c0.042,0.6,0.022,1.195,0.002,1.825c-0.018,0.529-0.035,1.058-0.016,1.586  c0.144,3.902,2.2,7.303,4.188,10.592c1.722,2.848,3.502,5.793,3.988,9.013C93.371,49.235,93.166,50.603,92.507,51.606z   M68.163,44.308c0.217-0.174,0.556-0.326,0.847-0.236c0.146,0.044,0.292,0.15,0.415,0.248c0.471,0.373,0.962,1.008,0.796,1.573  c-0.09,0.31-0.394,0.574-0.754,0.657c-0.354,0.083-0.779,0.007-1.162-0.211c-0.46-0.26-0.786-0.685-0.876-1.132  C67.646,44.874,67.873,44.537,68.163,44.308z M75.122,37.163c0.31-0.353,0.628-0.602,0.964-0.755  c0.524-0.238,1.111-0.219,1.495,0.05c0.373,0.262,0.519,0.819,0.299,1.147c-0.225,0.336-0.746,0.435-1.037,0.464  c-0.358,0.034-1.025,0.038-1.448-0.349C75.246,37.586,75.144,37.373,75.122,37.163z M67.415,29.592  c0.368-0.321,0.754-0.622,1.173-0.88c0.218-0.135,0.485-0.262,0.662-0.248c0.131,0.014,0.287,0.1,0.481,0.264  c0.42,0.354,0.687,0.771,0.75,1.172c0.065,0.411-0.113,0.841-0.416,1c-0.264,0.14-0.643,0.113-0.98,0.068  c-0.446-0.058-1.017-0.162-1.467-0.447c-0.213-0.135-0.372-0.312-0.489-0.502C67.297,29.942,67.406,29.78,67.415,29.592z"></path></svg>