<svg fill="#444444" xmlns="http://www.w3.org/2000/svg" xmlns:xlink="http://www.w3.org/1999/xlink" version="1.1" x="0px" y="0px" viewBox="0 5 100 100" style="enable-background:new 0 0 100 100;" xml:space="preserve"><path d="M91.1,51.3c-3,2.4-2.8,9.3-3,15.6c-0.2,6.3-0.4,13-0.4,13c-0.6,0.2-1.5,0.1-2,0.1c0-9.1-1-10.5-1-16.9c0-1.9,0.6-9-1.3-8.9  c-5.3,0.3-2.8,21.3-3,26c-0.8,0.2-2.4,0-3.1-0.2c-0.5-9.1-2.2-12.4-10.7-15.6c0-0.7-0.1-1.4-0.1-1.8c0.1-2.4,0.1-4.8,0.3-7.1  c0.2-2.1,0.4-4.2,0.6-6.3c0.1-0.9-0.1-2.1,0.2-2.9c0.4-0.9,1.4-1.1,2.3-1.6c1.1-0.6,1.6-0.7,1.7-2c0.1-1.1-0.2-2,0.5-2.9  c1.9-2.4,2.6,0.9,2.7,2.3c0,0.7-0.1,6,1.9,3.7c0.4-0.5-0.1-1.8,0-2.6c0-1,0.2-2,0.3-3c0.2-1.9,0.4-4-1.3-5.3  c-1.6-1.2-3.6-0.1-5.3-1.1c-0.1-1.7,1.1-2.9,2.3-4c1.5-1.3,3.1-1,4.8-1.6c0.7-0.3,1.7-1,0.9-1.8C78,25.9,75.7,26,75,26  c-2.4,0.1-4.5,1.5-6.3,3c-0.8,0.7-1.4,1.3-2.4,1.7c-1,0.4-2,0.5-2.6,1.5c-0.5,0.9,0,1.9-0.3,2.8c-0.4,1-1.4,1-2.4,1.1  c-1.3,0.1-5.9-0.4-5.7,1.5c0.1,2,3.4,1.5,4.6,2.1c1.2,0.6,0.5,1.3,0.8,2.4c0.3,1,1,1,1.7,1.5c0.9,0.6,0.7,0.9,0.7,2.1  c0,1.2-0.1,2.4-0.1,3.6c-0.2,4.6-0.1,9.3,0,13.9c-3.5-1-7-1.6-10.6-1.9c0-0.4,0-0.7,0-0.9c-0.3-3-0.1-5.9-0.4-8.9  c-0.2-2.1-1.1-4.5-2.6-6.2c-1.6-1.9-3.4-3-4.2-5.4c0.2,3-2.7,5,1.3,7c0.2,3.2-1.2,2.2-3.3,3.8c2.5,1.6,3.6,1,3.5,4.6  c-0.8,0.2-1.6,0.5-2.5,0.4c-0.6,2.1,1.6,1.9,2.3,3.3c-0.3,0.2-0.7,0.3-1,0.5c3,0.6,5.2,2.7,5.2,5.2c0,3-3.1,5.4-6.9,5.4  c-3.8,0-6.9-2.4-6.9-5.4c0-2.3,1.9-4.3,4.5-5c0.5-0.2,1.1-0.3,1.5-0.4c-1.8-0.7-4.5-1.3-3.2-4.1c0.8-1.7,3.7-1.3,5.4-2.3  c-1.7-1-4.1-1.9-5.3-3.5c1.5-0.8,3-1.6,4.6-2.3c-1-0.7-4.9-1.2-5.2-2.6c-0.3-1.4,3.4-3.6,4.3-4.4c-6.5-0.4-8,3.7-9.6,9.3  c-0.8,2.8-1.3,5.8-1.7,8.7c-0.2,1.3-0.4,3-0.5,4.6c-2.5,0.1-5.1,0-7.3,0.7c-3.1,0.9-6.1,3.3-7.9,6.1c-1.8,2.7-1.9,7.8-5.5,8  c-1.2,0.1-3.2-1.6-4-2.2c1.1,3.5,4.1,4.8,6.5,7.3c-1.8,0.8-3.8,1.2-5.5,2.5c2,0.1,4.3-0.3,5.8,1c-1,0.8-4.5,0.8-4.9,0.9  C84,85,88.5,85,91,85C95.6,85,93.1,51.8,91.1,51.3z M30.6,75.4h-1.4v1.4c0,0.7-0.6,1.4-1.4,1.4c-0.8,0-1.4-0.6-1.4-1.4v-1.4h-1.4  c-0.8,0-1.4-0.6-1.4-1.4c0-0.8,0.6-1.4,1.4-1.4h1.4v-1.4c0-0.7,0.6-1.4,1.4-1.4c0.7,0,1.4,0.6,1.4,1.4v1.4h1.4  c0.8,0,1.4,0.6,1.4,1.4C32,74.8,31.3,75.4,30.6,75.4z"/></svg>