<svg fill="#924607" xmlns="http://www.w3.org/2000/svg" xmlns:xlink="http://www.w3.org/1999/xlink" version="1.1" x="0px" y="0px" viewBox="0 0 100 100" enable-background="new 0 0 100 100" xml:space="preserve"><g><g><path d="M45.569,95.944c0,0-0.256-1.38-0.704-3.794c-0.251-1.183-0.416-2.747-0.671-4.474c-0.281-1.743-0.396-3.689-0.616-5.818    c-0.106-1.063-0.131-2.176-0.204-3.324c-0.062-1.148-0.138-2.334-0.14-3.556c-0.018-1.22-0.036-2.473-0.054-3.753    c0.022-1.278,0.044-2.585,0.067-3.913c0.095-2.653,0.206-5.393,0.437-8.164c0.187-2.774,0.489-5.581,0.798-8.382    c1.276-11.205,3.309-22.253,4.712-30.553c0.326-2.076,0.766-3.982,1.106-5.648c0.346-1.675,0.647-3.135,0.895-4.337    c0.482-2.407,0.758-3.782,0.758-3.782s-0.21,1.388-0.579,3.817c-0.19,1.213-0.422,2.686-0.688,4.376    c-0.264,1.699-0.606,3.574-0.835,5.671c-1.009,8.357-2.516,19.49-3.253,30.647c-0.175,2.789-0.342,5.577-0.396,8.32    c-0.1,2.743-0.08,5.441-0.05,8.048c0.039,1.302,0.078,2.582,0.115,3.835c0.077,1.249,0.153,2.472,0.227,3.661    c0.058,1.19,0.187,2.341,0.3,3.454c0.124,1.112,0.198,2.192,0.35,3.218c0.311,2.045,0.514,3.949,0.857,5.57    c0.325,1.643,0.526,3.041,0.842,4.25c0.562,2.391,0.882,3.757,0.882,3.757L45.569,95.944z"></path></g><g><path d="M44.619,75.596c0,0,0.819-0.119,2.251-0.328c0.716-0.104,1.586-0.231,2.584-0.377c1.02-0.103,2.058-0.433,3.249-0.689    c1.174-0.305,2.468-0.52,3.806-0.955c1.342-0.423,2.756-0.869,4.22-1.331c1.452-0.502,2.925-1.106,4.439-1.676    c1.524-0.544,3.006-1.272,4.521-1.915c1.518-0.643,3.006-1.354,4.468-2.064c1.466-0.701,2.911-1.389,4.288-2.1    c2.763-1.41,5.341-2.727,7.551-3.854c1.114-0.555,2.079-1.122,2.97-1.609c0.882-0.489,1.651-0.917,2.284-1.269    c1.267-0.703,1.99-1.105,1.99-1.105s-0.703,0.436-1.934,1.197c-0.615,0.381-1.362,0.843-2.219,1.373    c-0.855,0.521-1.825,1.154-2.905,1.757c-2.156,1.232-4.671,2.67-7.365,4.21c-1.345,0.776-2.761,1.535-4.199,2.309    c-1.434,0.782-2.895,1.567-4.394,2.288c-1.498,0.72-2.956,1.524-4.474,2.149c-1.506,0.649-2.972,1.332-4.424,1.914    c-1.472,0.541-2.895,1.064-4.243,1.562c-1.345,0.509-2.702,0.808-3.913,1.181c-1.221,0.325-2.351,0.725-3.337,0.87    c-0.99,0.192-1.853,0.36-2.563,0.498c-1.421,0.276-2.233,0.435-2.233,0.435L44.619,75.596z"></path></g><g><path d="M44.428,79.355c0,0-0.736-0.682-2.023-1.872c-0.644-0.596-1.426-1.319-2.323-2.149c-0.924-0.778-1.832-1.911-2.882-3.024    c-0.518-0.569-1.057-1.161-1.615-1.774s-1.147-1.237-1.663-1.938c-1.073-1.371-2.204-2.818-3.374-4.314    c-1.126-1.525-2.199-3.164-3.336-4.793c-1.165-1.612-2.154-3.371-3.237-5.068c-1.084-1.698-2.089-3.439-3.066-5.159    c-0.988-1.714-1.963-3.398-2.853-5.056c-1.817-3.296-3.479-6.385-4.902-9.035c-0.731-1.312-1.321-2.578-1.863-3.665    c-0.543-1.094-1.017-2.048-1.406-2.833c-0.788-1.566-1.239-2.461-1.239-2.461S9.138,27.084,10,28.613    c0.426,0.767,0.944,1.697,1.539,2.765c0.6,1.072,1.232,2.278,2.027,3.558c1.545,2.58,3.353,5.587,5.319,8.786    c0.965,1.611,2.015,3.241,3.078,4.898c1.052,1.664,2.132,3.347,3.285,4.977c1.152,1.629,2.212,3.324,3.436,4.857    c1.197,1.552,2.329,3.114,3.504,4.558c1.213,1.409,2.386,2.771,3.498,4.062c0.539,0.665,1.13,1.231,1.691,1.791    c0.56,0.561,1.101,1.102,1.62,1.621c1.062,1.023,1.92,2.025,2.906,2.782c0.935,0.786,1.75,1.472,2.421,2.036    c1.343,1.129,2.11,1.773,2.11,1.773L44.428,79.355z"></path></g><g><path d="M44.379,59.174c0,0,0.737-0.249,2.026-0.687c0.645-0.219,1.427-0.483,2.326-0.788c0.926-0.269,1.83-0.75,2.887-1.19    c1.034-0.481,2.193-0.9,3.356-1.531c1.169-0.62,2.401-1.273,3.676-1.949c1.258-0.712,2.517-1.521,3.82-2.306    c1.317-0.763,2.562-1.689,3.855-2.542c1.294-0.853,2.55-1.764,3.78-2.669c1.236-0.898,2.455-1.78,3.608-2.672    c2.314-1.774,4.475-3.43,6.326-4.849c0.937-0.703,1.73-1.393,2.472-1.995c0.732-0.604,1.371-1.129,1.896-1.562    c1.052-0.866,1.652-1.361,1.652-1.361s-0.576,0.522-1.584,1.436c-0.504,0.457-1.116,1.012-1.818,1.648    c-0.702,0.627-1.49,1.378-2.387,2.12c-1.784,1.507-3.865,3.264-6.096,5.147c-1.111,0.947-2.291,1.889-3.489,2.85    c-1.192,0.967-2.41,1.943-3.674,2.864c-1.263,0.921-2.474,1.914-3.771,2.75c-1.282,0.856-2.521,1.738-3.766,2.522    c-1.269,0.752-2.494,1.479-3.657,2.167c-1.157,0.7-2.361,1.207-3.418,1.758c-1.074,0.509-2.05,1.07-2.938,1.373    c-0.883,0.347-1.652,0.648-2.286,0.897c-1.268,0.497-1.992,0.782-1.992,0.782L44.379,59.174z"></path></g><g><path d="M62.591,51.501c0,0,0.421,0.142,1.158,0.389c0.369,0.123,0.816,0.273,1.33,0.445c0.515,0.198,1.092,0.291,1.725,0.456    c0.637,0.139,1.309,0.35,2.056,0.465c0.746,0.122,1.532,0.251,2.346,0.385c0.817,0.11,1.67,0.178,2.534,0.272    c0.862,0.108,1.749,0.118,2.632,0.177c1.767,0.104,3.542,0.115,5.206,0.126c1.666-0.007,3.221-0.013,4.553-0.018    c1.327-0.013,2.438-0.085,3.217-0.107c0.777-0.03,1.222-0.048,1.222-0.048s-0.442,0.038-1.217,0.105    c-0.775,0.059-1.878,0.184-3.215,0.26c-1.332,0.068-2.886,0.147-4.551,0.232c-1.667,0.068-3.448,0.143-5.233,0.122    c-0.893-0.018-1.786,0.015-2.665-0.054c-0.879-0.054-1.747-0.081-2.585-0.155c-0.836-0.097-1.645-0.19-2.412-0.279    c-0.768-0.081-1.491-0.267-2.162-0.382c-0.664-0.14-1.302-0.223-1.811-0.392c-0.521-0.147-0.975-0.276-1.35-0.382    c-0.748-0.212-1.176-0.333-1.176-0.333L62.591,51.501z"></path></g><g><path d="M32.631,66.179c0,0-0.442,0.042-1.216,0.116c-0.387,0.037-0.857,0.083-1.396,0.135c-0.53,0.075-1.173,0.042-1.851,0.061    c-0.681-0.007-1.425,0.046-2.195-0.012c-0.771-0.05-1.583-0.103-2.423-0.157c-0.837-0.077-1.696-0.206-2.57-0.311    c-0.877-0.091-1.751-0.282-2.632-0.425c-1.76-0.3-3.499-0.691-5.126-1.057c-1.623-0.383-3.138-0.739-4.436-1.045    c-1.302-0.315-2.365-0.635-3.117-0.831c-0.75-0.204-1.178-0.321-1.178-0.321s0.434,0.097,1.193,0.266    c0.761,0.161,1.842,0.43,3.145,0.682c1.311,0.243,2.839,0.527,4.477,0.833c1.639,0.287,3.388,0.595,5.145,0.809    c0.879,0.1,1.752,0.249,2.621,0.297c0.867,0.062,1.718,0.149,2.542,0.187c0.824,0.015,1.621,0.028,2.376,0.042    c0.755,0.021,1.454-0.066,2.105-0.089c0.652-0.049,1.237-0.037,1.778-0.14c0.536-0.077,1.003-0.145,1.389-0.2    c0.77-0.111,1.209-0.175,1.209-0.175L32.631,66.179z"></path></g><g><path d="M45.019,47.049c0,0-0.36-0.69-0.99-1.896c-0.315-0.604-0.698-1.336-1.137-2.177c-0.408-0.874-1.023-1.693-1.621-2.669    c-0.635-0.948-1.227-2.029-2.03-3.082c-0.792-1.06-1.627-2.177-2.491-3.333c-0.897-1.133-1.891-2.252-2.866-3.42    c-0.957-1.184-2.063-2.272-3.104-3.418c-1.042-1.147-2.135-2.248-3.219-3.325c-1.078-1.083-2.137-2.152-3.195-3.154    c-2.109-2.014-4.078-3.894-5.765-5.505c-0.838-0.817-1.643-1.496-2.351-2.136c-0.708-0.631-1.327-1.181-1.835-1.633    c-1.018-0.906-1.599-1.423-1.599-1.423s0.604,0.489,1.663,1.344c0.529,0.428,1.171,0.947,1.908,1.543    c0.728,0.597,1.591,1.26,2.462,2.033c1.763,1.531,3.82,3.317,6.023,5.231c1.107,0.952,2.219,1.974,3.353,3.01    c1.139,1.029,2.29,2.083,3.395,3.189c1.104,1.105,2.271,2.15,3.297,3.303c1.043,1.135,2.104,2.224,3.071,3.333    c0.938,1.138,1.844,2.238,2.704,3.281c0.87,1.036,1.556,2.147,2.263,3.107c0.668,0.983,1.374,1.861,1.809,2.692    c0.479,0.819,0.895,1.533,1.238,2.121c0.687,1.176,1.079,1.847,1.079,1.847L45.019,47.049z"></path></g><g><path d="M46.937,36.642c0,0,0.733-0.259,2.017-0.713c0.642-0.227,1.421-0.502,2.314-0.818c0.915-0.278,1.839-0.782,2.9-1.241    c1.041-0.501,2.213-0.944,3.374-1.594c1.167-0.639,2.397-1.312,3.671-2.009c1.254-0.732,2.508-1.562,3.805-2.365    c1.312-0.783,2.549-1.728,3.833-2.599c1.285-0.871,2.53-1.8,3.751-2.723c1.226-0.915,2.434-1.813,3.575-2.721    c2.292-1.804,4.43-3.488,6.263-4.932c0.926-0.713,1.719-1.421,2.449-2.029c0.725-0.613,1.355-1.146,1.875-1.586    c1.04-0.879,1.634-1.382,1.634-1.382s-0.583,0.515-1.603,1.416c-0.511,0.45-1.13,0.997-1.84,1.625    c-0.714,0.62-1.503,1.355-2.411,2.085c-1.802,1.483-3.905,3.212-6.158,5.066c-1.123,0.932-2.313,1.858-3.522,2.801    c-1.203,0.951-2.432,1.909-3.703,2.811c-1.271,0.902-2.491,1.876-3.794,2.693c-1.288,0.836-2.532,1.698-3.78,2.463    c-1.271,0.73-2.499,1.437-3.663,2.107c-1.158,0.681-2.351,1.164-3.401,1.696c-1.069,0.49-2.025,1.03-2.924,1.323    c-0.887,0.335-1.66,0.627-2.296,0.868c-1.273,0.481-2.001,0.756-2.001,0.756L46.937,36.642z"></path></g><g><path d="M66.625,70.186c0,0,0.421,0.142,1.158,0.389c0.369,0.123,0.816,0.273,1.33,0.445c0.515,0.197,1.092,0.291,1.725,0.456    c0.637,0.139,1.309,0.349,2.056,0.464c0.746,0.122,1.532,0.251,2.346,0.385c0.817,0.11,1.67,0.178,2.534,0.272    c0.862,0.108,1.749,0.117,2.632,0.177c1.767,0.104,3.542,0.115,5.206,0.125c1.666-0.006,3.221-0.012,4.553-0.018    c0.669,0.005,1.27-0.036,1.814-0.053c0.541-0.021,1.014-0.04,1.402-0.055c0.777-0.03,1.222-0.048,1.222-0.048    s-0.442,0.038-1.217,0.105c-0.388,0.033-0.857,0.074-1.396,0.121c-0.536,0.041-1.154,0.112-1.818,0.14    c-1.332,0.067-2.886,0.147-4.551,0.232c-1.667,0.068-3.448,0.142-5.233,0.121c-0.892-0.018-1.786,0.015-2.665-0.053    c-0.879-0.054-1.747-0.081-2.584-0.154c-0.837-0.098-1.646-0.191-2.413-0.279c-0.768-0.082-1.49-0.268-2.162-0.383    c-0.663-0.14-1.302-0.222-1.81-0.391c-0.521-0.147-0.976-0.276-1.351-0.382c-0.748-0.212-1.176-0.333-1.176-0.333L66.625,70.186z"></path></g></g></svg>