<svg fill="#861001" xmlns="http://www.w3.org/2000/svg" xmlns:xlink="http://www.w3.org/1999/xlink" version="1.1" x="0px" y="0px" viewBox="0 0 100 100" enable-background="new 0 0 100 100" xml:space="preserve"><g><path d="M25.619,45.44c0-3.573-2.745-9.856-6.501-12.283c-1.609-1.673-2.624-3.437-3.594-6.208l-0.236-0.676l-0.561,0.446   c-3.805,3.027-3.565,7.812-3.515,8.444c-2.064,2.943-3.125,7.389-3.125,10.277c0,4.834,3.932,8.767,8.767,8.767   C21.686,54.207,25.619,50.275,25.619,45.44z M14.819,27.989c0.649,1.725,1.334,3.064,2.206,4.262   c-0.322-0.067-0.646-0.103-0.976-0.103c-1.472,0-2.738,0.702-3.811,1.791C12.336,32.466,12.813,29.916,14.819,27.989z    M11.141,45.44c0-3.852,2.376-10.237,4.908-10.237c2.685,0,6.517,6.623,6.517,10.237c0,3.15-2.562,5.713-5.711,5.713   C13.703,51.153,11.141,48.59,11.141,45.44z"></path><path d="M36.208,36.461c4.835,0,8.767-3.933,8.767-8.767c0-3.572-2.744-9.854-6.5-12.283c-1.611-1.675-2.624-3.437-3.596-6.21   l-0.237-0.677l-0.561,0.447c-3.8,3.027-3.561,7.805-3.512,8.444c-2.063,2.942-3.125,7.388-3.125,10.278   C27.443,32.528,31.375,36.461,36.208,36.461z M36.594,28.793l-3.586,3.627c-1.22-0.827-2.103-2.116-2.4-3.61l3.443-1.161   l-1.808,2.386L36.594,28.793z M34.172,10.242c0.649,1.725,1.338,3.064,2.208,4.264c-0.323-0.069-0.647-0.103-0.977-0.103   c-1.47,0-2.739,0.702-3.81,1.793C31.692,14.718,32.168,12.17,34.172,10.242z M35.404,17.457c2.687,0,6.518,6.622,6.518,10.237   c0,3.149-2.563,5.712-5.713,5.712c-0.808,0-1.577-0.171-2.273-0.476l6.112-6.186l-5.15,1.474l1.962-2.589l-6.357,2.143   c0-0.026-0.004-0.052-0.004-0.079C30.497,23.843,32.872,17.457,35.404,17.457z"></path><path d="M89.66,35.162c0.049-0.638,0.288-5.418-3.515-8.443l-0.561-0.446l-0.235,0.676c-0.971,2.773-1.985,4.536-3.595,6.208   c-3.756,2.428-6.501,8.71-6.501,12.283c0,4.834,3.933,8.767,8.766,8.767c4.835,0,8.767-3.932,8.767-8.767   C92.786,42.55,91.724,38.105,89.66,35.162z M86.057,27.989c1.996,1.921,2.476,4.473,2.578,5.95   c-1.073-1.089-2.339-1.791-3.811-1.791c-0.327,0-0.654,0.036-0.973,0.103C84.72,31.054,85.407,29.715,86.057,27.989z M84.02,51.153   c-3.149,0-5.711-2.563-5.711-5.713c0-3.615,3.831-10.237,6.516-10.237c2.532,0,4.908,6.386,4.908,10.237   C89.732,48.59,87.171,51.153,84.02,51.153z"></path><path d="M64.663,36.461c4.836,0,8.767-3.933,8.767-8.767c0-2.89-1.062-7.336-3.127-10.278c0.051-0.643,0.287-5.417-3.51-8.444   l-0.562-0.447l-0.237,0.677c-0.971,2.773-1.983,4.535-3.593,6.206c-3.756,2.427-6.503,8.712-6.503,12.287   C55.898,32.528,59.829,36.461,64.663,36.461z M66.699,10.242c1.997,1.921,2.478,4.474,2.58,5.951   c-1.073-1.088-2.339-1.791-3.812-1.791c-0.328,0-0.651,0.034-0.973,0.103C65.363,13.306,66.05,11.967,66.699,10.242z    M65.468,17.457c2.533,0,4.909,6.386,4.909,10.237c0,3.149-2.562,5.712-5.714,5.712c-3.148,0-5.71-2.563-5.71-5.712   C58.953,24.079,62.784,17.457,65.468,17.457z"></path><path d="M73.668,56.808c-4.609-0.793-8.023-2.673-9.687-9.277c-1.517-6.032-6.38-9.912-12.688-10.125l-0.054-0.002l-0.052,0.002   c-6.922,0.233-12.157,4.492-12.728,10.35c-0.68,6.98-7.557,8.692-9.648,9.053C19.964,58.322,14.02,65.15,14.02,73.795   c0,9.499,6.229,15.401,16.256,15.401c5.497,0,9.222-2.292,12.507-4.313c2.821-1.736,5.258-3.233,8.441-3.267   c3.217,0.033,5.652,1.53,8.474,3.267c3.285,2.021,7.011,4.313,12.508,4.313c10.026,0,16.256-5.902,16.256-15.401   C88.461,65.15,82.516,58.322,73.668,56.808z M40.684,51.458l4.686-0.868l-6.272,3.69C39.734,53.44,40.274,52.504,40.684,51.458z    M17.896,78.753l5.398-2.075l-3.35,3.352l8.905-3.532l-8.33,6.312C19.357,81.707,18.48,80.344,17.896,78.753z M72.205,86.142   c-4.633,0-7.822-1.962-10.907-3.86c-2.939-1.808-5.979-3.678-10.074-3.72c-4.065,0.042-7.103,1.912-10.041,3.72   c-3.085,1.898-6.274,3.86-10.908,3.86c-3.708,0-6.74-0.934-8.962-2.657l14.108-10.687L24.145,77.27l3.26-3.262l-9.826,3.776   c-0.333-1.216-0.506-2.548-0.506-3.989c0-7.216,4.81-12.703,12.253-13.979c2.474-0.424,5.07-1.407,7.237-3.031   c0.034,0.007,0.064,0.025,0.099,0.025c0.088,0,0.176-0.023,0.259-0.07l13.953-8.203l-9.818,1.817   c0.205-0.725,0.362-1.486,0.442-2.304c0.487-4.986,5.38-7.427,9.741-7.591c4.866,0.184,8.613,3.175,9.781,7.817   C63.213,56.986,68.385,59,73.153,59.816c7.445,1.275,12.254,6.763,12.254,13.979C85.407,81.524,80.472,86.142,72.205,86.142z"></path></g></svg>