<svg xmlns="http://www.w3.org/2000/svg" xmlns:xlink="http://www.w3.org/1999/xlink" xml:space="preserve" style="shape-rendering:geometricPrecision;text-rendering:geometricPrecision;image-rendering:optimizeQuality;" viewBox="0 0 100 100" x="0px" y="0px" fill-rule="evenodd" clip-rule="evenodd"><defs><style type="text/css">
   
    .fil0 {fill: #ff3300}
   
  </style></defs><g><path class="fil0" d="M55.38 10.4387c-0.119292,0.0295278 0.0401578,0.0933078 0,0 9.12999,0.729927 18.1053,2.29136 26.327,5.43902 2.29372,1.78112 3.99334,3.94373 5.49689,6.13824 -0.555122,-0.0968512 -1.82009,-0.666147 -2.05986,0.03189 0.791345,0.6378 2.0197,0.826778 2.76971,1.59332 -1.06772,1.71379 -2.60908,3.27522 -3.99334,4.89689 -1.1067,1.17639 -2.13309,2.5453 -3.44176,3.62601 1.58505,-1.87797 3.24451,-3.75357 4.62641,-5.72485 0.0791345,-0.224411 0.434649,-0.447641 0.278742,-0.66969 -1.50237,2.00435 -3.00475,4.13743 -4.98075,5.85477 1.91813,-2.30317 3.68271,-4.68193 5.48626,-7.02407 1.24489,-1.62049 0.428744,-0.827959 -0.503154,0.274018 -1.90986,2.26419 -3.48546,4.6583 -5.41776,6.94021 -0.27638,-0.06378 -0.594099,-0.285829 -0.87166,-0.0968512 0.395672,0.73347 1.82009,0.922448 1.97718,1.84726 -3.91184,5.15201 -8.42251,10.2095 -12.6497,15.2056 0.556304,-0.923629 1.22599,-1.81537 1.93702,-2.64215l0.908275 -1.11261c-0.55276,0.15945 -1.06772,1.17757 -1.57915,1.68545 -0.633076,0.700399 -1.18584,1.68545 -1.81891,2.29018 1.26261,-2.70475 3.87405,-5.05516 5.61382,-7.66541l-1.9382 2.28899 -1.89687 2.35514 -1.42442 1.81301c-0.434649,0.38268 -0.514965,1.43033 -1.3819,1.08072 1.69962,-2.6386 4.11027,-5.05752 6.04847,-7.56974l-1.89805 2.10002 -1.73978 2.00317c-0.317719,0.402759 -1.18584,1.37836 -1.86734,2.19214 -0.931897,1.11851 -1.60749,1.91576 -0.898826,0.353152 0.711029,-1.0193 1.50119,-2.00317 2.37167,-2.95868l1.18584 -1.4634 1.06654 -1.33466c-1.81773,1.93939 -3.55751,4.10082 -5.21933,6.13706 -0.0767723,-0.699218 0.59528,-1.17757 0.911818,-1.71852l1.26379 -1.68545 1.97718 -2.41537 0.395672 -0.572839c-1.73978,1.74923 -3.24215,4.07011 -4.86382,5.78863 0.142915,-0.314176 0.315357,-0.734651 0.545674,-1.04883 3.02246,-4.12562 6.47604,-8.05991 9.92961,-11.9942 0.43583,0.38268 0.633076,1.43269 1.42442,0.35079 -1.06654,-2.13191 -3.99216,-0.793707 -5.89138,-0.76536 2.25474,-1.52482 7.3536,-2.63742 5.73193,-5.65989 0.989772,0.572839 0.59528,1.90986 0.790164,2.64097 0.713391,-0.731108 -0.670871,-3.05435 0.120473,-2.61026 0.237403,0.729927 0.315357,1.52836 0.394491,2.29136 0.27638,-0.57402 0.0401578,-1.27324 -0.0389767,-1.90986l-0.0803156 -0.381499c1.6193,2.13309 4.94177,-3.21262 6.32485,-5.47091 -0.630714,-2.29018 -1.77875,-4.7398 -3.95318,-6.391 -0.947252,0.314176 0.989772,1.14332 0.553941,1.55671 -2.01734,1.27206 -1.3819,1.27324 0.277561,0.03189 1.34292,1.20828 -1.22836,1.74805 -2.01498,2.67167 -3.6768,3.18073 4.07011,-3.46774 2.52876,-0.51024l-1.02875 0.76536c-0.55276,0.317719 -1.06891,0.729927 -1.57915,1.11261 -0.831503,0.6378 0.0389767,0.28701 0.434649,-0.0968512l1.65946 -1.11261 1.14804 -0.796069c0.354333,2.06931 -4.19177,3.05435 -5.41776,4.86972l1.06654 -0.73347c0.514965,-0.317719 0.98859,-0.667328 1.54371,-0.953157l2.05513 -1.33702 1.30395 -0.827959c-0.869298,1.91104 -4.35003,3.24688 -5.96934,4.99492l1.06654 -0.73347 1.46458 -0.985047 2.13427 -1.46104 1.58033 -1.14686c-0.0377956,1.90868 -3.83507,2.8642 -5.17917,4.48586l1.58387 -1.01694 1.45985 -0.955519 2.49096 -1.58978c-0.858668,1.19529 -2.64805,2.22285 -4.11499,3.14176 -1.76931,1.10906 -3.30593,2.0386 -5.2524,2.64805 -11.3871,-10.0229 -29.2939,-10.2757 -44.907,-8.78157 -6.83982,0.3189 -13.2036,1.94175 -19.7635,3.11813 3.12168,-2.576 6.60005,-4.64413 9.9615,-6.93313 1.02639,-0.76536 5.01736,-3.18073 2.45081,-1.05237 -1.89923,1.75159 4.15043,-3.08388 1.50001,-0.603548l-0.82914 0.700399c-0.555122,0.413389 -0.199608,0.38268 0.155907,0 0.990953,-0.636619 1.85907,-1.71852 3.24333,-1.87797l-1.44922 0.908275 -0.487799 0.555122c-0.711029,0.44646 5.45437,-3.339 2.72837,-1.05001 -0.155907,0.125198 -0.575201,0.220868 -0.767723,0.362601 -0.249215,0.18071 -0.268112,0.41457 -0.381499,0.59528 1.26851,-0.86103 2.49096,-1.97246 4.15515,-2.13427l-1.77994 1.30395c-0.320081,0.22323 -0.910637,0.76536 -0.239766,0.317719 1.14804,-0.634257 2.05513,-1.81064 3.59885,-1.77994l-1.73151 1.04765 -0.681501 0.66969c1.65946,-0.82914 2.92679,-2.2264 5.06106,-2.13191 -0.790164,0.859849 -2.13427,1.62285 -2.92561,2.45317 1.4634,-0.735833 2.37049,-2.22994 4.03468,-2.54766 -0.675596,0.509059 -1.38663,1.0193 -1.97954,1.58978 1.22599,-0.570477 2.05513,-1.9075 3.6768,-1.81419 -0.724021,0.538587 -1.55434,1.03229 -2.276,1.57206 -0.261026,0.19134 -0.437011,0.429925 -0.689769,0.625989 1.34411,-0.543311 2.72837,-2.51577 4.82484,-2.35514 -0.881109,0.633076 -1.94765,1.09371 -2.7886,1.75277 -1.23544,0.962606 -0.363782,0.662604 0.540949,0.00590556 1.21891,-0.88229 2.29608,-1.98545 4.02759,-1.88742l-2.63152 1.63112 -0.889377 0.979142c1.85907,-0.891739 3.04609,-2.89609 5.41658,-2.64215 -0.355515,0.192521 -0.672053,0.44646 -0.98859,0.700399 -0.43583,0.25512 -0.953157,0.433468 -1.34883,0.720478 -0.275199,0.188978 -1.10198,0.998039 -0.389767,0.615359 0.236222,-0.125198 0.475988,-0.253939 0.631895,-0.442917 1.22599,-0.6378 2.25474,-2.00553 3.99216,-1.62521l-2.58545 1.32993 -0.496067 0.803156c1.65946,-0.66969 2.72601,-2.38821 4.70082,-2.16143 -0.471264,0.347247 -1.56852,0.740557 -2.1201,1.05828l-1.47639 1.32403c1.06654,-0.539768 2.01734,-1.17639 3.04609,-1.77994 0.51024,-0.25512 0.830321,-0.796069 1.54135,-0.635438 2.72601,-0.3189 -4.33468,3.39924 -1.39017,1.97954 0.395672,-0.15945 0.929535,-0.545674 1.24489,-0.767723 0.633076,-0.285829 1.05355,-0.957882 1.7256,-1.17875 0.670871,0.0283467 1.85907,-0.0330711 0.711029,0.474807 -1.02757,0.636619 -2.09411,1.30395 -3.00239,2.1012 1.19056,-0.58465 2.52876,-1.42442 3.8079,-1.96065 0.668509,-0.281105 1.10552,-0.653155 1.96183,-0.491342 0,0.22323 -0.908275,0.54213 -0.395672,0.636619 0.633076,-0.317719 1.18702,-0.890558 2.01734,-0.603548 -0.579926,0.540949 -1.52954,0.787801 -2.24175,1.21182 -0.79725,0.471264 -1.36064,1.11497 -2.02797,1.65238 2.05513,-0.764179 3.63901,-2.83231 5.80871,-2.80042 -0.551579,0.475988 -1.38544,0.804337 -1.97836,1.21655 -0.43583,0.38268 -0.983866,0.75473 -1.38072,1.16694 1.74096,-0.539768 2.92679,-2.66931 4.86146,-2.25592 -0.354333,0.317719 -0.911818,0.559847 -1.30749,0.845676l-1.063 0.902369c-0.275199,0.253939 -1.62167,1.0819 -1.06654,0.891739 1.73978,-0.731108 3.00239,-2.95987 5.25713,-2.5453 -0.751187,0.859849 -1.71852,1.13505 -2.62915,1.83545 -0.395672,0.220868 -0.491342,0.709848 -0.177167,0.424019 0.311813,-0.108662 0.679139,-0.335436 0.955519,-0.52087 1.1941,-0.811424 2.07994,-2.03978 3.75003,-1.54726 -0.396854,0.539768 -1.06891,0.954338 -1.66419,1.33702 -0.431106,0.220868 -0.415751,0.692131 0.0992134,0.309451 1.05001,-0.493705 3.72286,-2.37522 2.2701,-0.849219l-1.17993 0.918905 -0.793707 0.57402c1.50474,-0.445279 2.41537,-2.19451 4.11499,-2.00435 1.3819,0.253939 -4.53074,3.47365 -1.24962,1.82009l1.67245 -1.02993c0.395672,-0.285829 0.683864,-0.725203 1.19647,-0.566934 1.54253,0.15945 -3.7016,2.98467 -1.01339,1.61576 0.298821,-0.230317 1.04765,-0.383861 1.39844,-0.579926 0.673234,-0.379137 0.927173,-0.900007 1.47285,-1.06772 -14.23,-2.5453 -30.0038,-2.29018 -43.9964,0.827959 4.86027,-1.87915 11.0682,-2.51222 16.7978,-2.99176 5.29847,-0.477169 10.3583,-0.285829 15.4584,0.160631l0 0z"/><path class="fil0" d="M68.5045 12.697c0.11693,-0.03189 0.315357,0.0330711 0.275199,0.158269l-2.53112 1.65238 2.25592 -1.81064z"/><path class="fil0" d="M70.4415 13.3017l0.235041 0c0.198427,0.474807 -0.670871,0.633076 -1.02639,0.857487l0 -0.158269c0.315357,-0.19134 0.590556,-0.445279 0.791345,-0.699218z"/><path class="fil0" d="M72.4163 13.5875c0.0803156,0 0.15945,-0.03189 0.235041,0.0330711l0.0401578 0.188978c-0.394491,0.445279 -1.10552,0.670871 -1.69726,0.891739 0.355515,-0.41457 1.14686,-0.6378 1.42206,-1.11379l0 0z"/><path class="fil0" d="M75.3018 14.5726l0.160631 0c0.0779534,0.0968512 0.0779534,0.192521 0.0779534,0.317719 -0.398035,0.129922 -0.673234,0.507878 -1.1445,0.507878 0.235041,-0.317719 0.711029,-0.474807 0.905913,-0.825597l0 0z"/><path class="fil0" d="M77.0014 14.9552c0.120473,-0.03189 0.200789,0.0330711 0.239766,0.125198 -0.394491,0.57402 -1.30631,0.9567 -2.01852,1.24253 0,-0.0649611 0,-0.0968512 0.0401578,-0.126379 0.673234,-0.288191 1.30395,-0.76536 1.7386,-1.24135l0 0z"/><path class="fil0" d="M78.9786 15.9084c0.118111,0 0.198427,0.00236222 0.238585,0.0968512l0 0.126379c-0.633076,0.445279 -1.38308,0.827959 -2.17561,1.01812 0.516146,-0.35079 1.22718,-0.604729 1.73978,-1.01812l-0.118111 -0.12756c0.118111,0 0.27638,0.00118111 0.315357,-0.0933078l0 -0.00236222z"/><path class="fil0" d="M86.846 25.6726c0.633076,-0.506697 0.512602,-1.27088 1.18347,-1.84253 0.71221,0.762998 1.58505,-0.253939 0.752368,-0.732289 -0.986228,-0.572839 0.514965,-1.05001 1.06772,-1.33584 0.475988,0.762998 -0.315357,1.56025 -0.475988,2.32207 -4.82012,4.64413 -7.23077,10.3713 -9.68157,15.9048 -0.317719,-0.761817 -0.792526,-1.74686 -0.635438,-2.51341 0.635438,-0.380318 0.475988,1.27324 0.87166,1.68663 0.275199,-0.827959 -0.909456,-1.78112 -0.236222,-2.48152 0.431106,0.188978 0.471264,1.62167 0.631895,1.01812 0,-0.539768 -0.631895,-1.17521 -0.160631,-1.62167 0.43583,0.220868 0.315357,0.762998 0.514965,1.11379 0.355515,0.0614178 -0.15945,-1.05001 -0.275199,-1.43269 0.315357,-0.157088 0.355515,-0.474807 0.630714,-0.666147 0.316538,0.190159 0.158269,0.731108 0.475988,0.826778 -0.237403,-0.540949 -0.43583,-1.94293 0.592918,-1.52836 -0.315357,-0.507878 0.118111,-1.01694 -0.434649,-1.49529 1.85671,-2.35514 3.79255,-4.70673 5.17799,-7.2225l0 0z"/><path class="fil0" d="M42.8873 25.8026c1.72797,-1.45513 4.64295,-2.73427 7.47171,-2.99176l0.544492 -0.171261 1.0382 -0.0826778c-3.04609,0.732289 -5.93272,2.03624 -8.46267,3.62838 -0.155907,0.0625989 -0.275199,0.0307089 -0.431106,0 0.550398,-0.447641 1.33111,-0.696856 1.96183,-1.07835l2.81931 -1.49883c-1.18465,0.285829 -3.4394,1.58978 -4.94177,2.19451l0 0z"/><path class="fil0" d="M58.582 32.2573c-0.908275,2.38703 -2.68821,4.45633 -4.19058,6.65084 -0.514965,0.955519 -1.62167,1.71616 -2.48978,2.38585 -0.120473,0.316538 0.434649,0.316538 0.472445,0.540949l-0.355515 0.507878c-1.22363,-2.29018 -1.85671,-5.21697 -0.71221,-7.6666 0.239766,0.128741 0.15945,0.764179 0.752368,0.670871 3.47955,-3.2138 5.73312,-7.25439 6.56344,-11.3918 1.10552,1.91104 0.790164,4.26618 0.0401578,6.23745 -0.0803156,0.188978 -0.160631,0.381499 -0.160631,0.572839l0.0401578 0.190159c0.0803156,0.0625989 0.275199,0.0307089 0.355515,-0.03189l-0.830321 1.97128c0.277561,-0.158269 0.277561,-0.477169 0.513784,-0.6378l0.00118111 0z"/><path class="fil0" d="M86.846 25.6726c-1.93702,2.1012 -3.63664,4.80594 -5.92918,6.74533 1.85671,-2.4827 4.2272,-4.92996 6.2469,-7.37959l-0.317719 0.634257z"/><path class="fil0" d="M82.2207 25.2297c0.0377956,0.188978 -0.473626,0.922448 -0.830321,0.700399l-0.986228 0.856306c-0.0803156,0.224411 0.314176,0.00236222 0.432287,-0.0614178l0.355515 -0.15945 -1.30395 1.43033c-0.315357,-0.444098 -1.06654,-0.539768 -1.65946,-0.317719 1.22363,-0.891739 2.60789,-1.68663 3.99216,-2.44844l0 0z"/><path class="fil0" d="M46.7012 30.8471c-1.07717,1.01221 -2.05277,2.09411 -2.8264,3.25751 -0.432287,-0.285829 -0.987409,-0.253939 -1.46222,-0.128741l1.81655 -1.68663c0.357877,-0.379137 -0.275199,0.0649611 -0.429925,0.193702l-0.635438 0.509059c-1.02639,1.04883 -2.2512,1.81301 -3.55751,2.63978 0.315357,-0.66969 0.990953,-1.20946 1.42206,-1.84608 0.15945,-0.188978 0.395672,-0.349609 0.395672,-0.571658l-2.17325 2.44963c-0.356696,0.634257 -1.06891,1.08072 -1.6193,1.62285 0.236222,-1.0819 1.26261,-1.97364 1.93466,-2.96105l0.198427 -0.284648c-1.06654,1.17757 -2.56892,2.576 -2.60908,4.0394 2.05513,-0.761817 3.47719,-3.30711 6.08745,-3.37089 1.34411,0.09567 0.790164,2.03506 2.13427,1.68545 -0.23386,3.18191 1.18702,6.07682 2.80632,8.87487 -0.512602,0.38268 -0.908275,0.891739 -1.22363,1.36773l0.118111 -1.20946c-0.277561,-1.97128 -0.713391,-0.0307089 -0.277561,0.954338 0.199608,0.572839 -0.0803156,1.36891 -0.907094,1.4008 -0.119292,-0.57402 0.670871,-1.58978 -0.0389767,-1.81301 -0.0826778,0.896464 -0.0944889,1.42678 -0.509059,1.85435 -0.788983,0.81851 -2.29608,0.957882 -3.72168,0.562209 -1.06654,0.793707 -2.65041,0.447641 -3.952,0.923629l-0.832684 -0.793707c-0.356696,0.0307089 -0.473626,0.253939 -0.395672,0.506697 0.59528,0.955519 1.81891,2.5453 0.434649,3.30829 0.198427,0.604729 1.06891,0.41457 1.42442,0l0.0401578 -0.28701c0.631895,0.512602 0.0401578,-1.04883 -0.0803156,-1.43151l-0.119292 -0.667328c0.395672,-0.603548 0.513784,0.348428 0.59528,0.635438l0.434649 1.17757c1.65946,2.32207 -1.42206,-2.2571 0.355515,-2.06576l0.472445 1.14568 0.475988 1.07954c1.1067,1.21064 -1.4634,-2.32207 -0.119292,-2.38585 0.395672,0.475988 0.395672,1.17757 0.751187,1.71734l0.355515 0.57402c0.830321,0.986228 -1.26497,-2.80042 -0.355515,-1.81537l0.315357 0.636619c0.357877,0.539768 0.514965,1.36773 1.14804,1.65474l-0.98859 -2.00553c0.949614,0.285829 0.751187,1.46458 1.46458,1.90986 -0.0389767,-0.507878 -0.475988,-0.954338 -0.555122,-1.46222 0.555122,0.442917 0.870479,1.1445 0.986228,1.7823 -0.390948,-0.35079 -1.1445,-0.192521 -1.3819,0.28701 -0.416932,-0.40394 -1.02875,-0.289372 -1.37009,0.0484256 -0.142915,0.141733 0.0862212,0.629533 -0.250396,0.523232 0.0401578,-1.62403 -1.34411,0.445279 -1.26615,1.27088 -0.55276,-0.413389 -0.592918,-0.922448 -0.355515,-1.36773 -0.827959,-0.0330711 -1.18347,0.796069 -1.50119,1.27324 -0.87166,-0.413389 0.197246,-0.890558 0,-1.36773 -0.751187,0.22323 -1.26615,0.954338 -1.66182,1.52718 -0.395672,-0.444098 -0.431106,-1.33584 -1.18465,-1.46576 -0.355515,0.54213 0.198427,1.17875 -0.670871,1.62285 -0.43583,-0.953157 -1.42442,-1.77875 -1.54135,-0.316538 -0.43583,-0.572839 -1.22836,-0.380318 -1.73978,0.0295278 -0.160631,-0.666147 -0.791345,-2.32088 -0.516146,-2.32088 0.200789,0.575201 0.711029,1.97246 0.43583,0.635438 -0.275199,-1.07954 0.831503,1.68545 0.591737,0.636619l-0.115749 -0.349609 -0.200789 -0.477169c1.77994,0.445279 -0.790164,-1.43151 0.475988,-0.603548 1.82009,-0.03189 4.62523,0.793707 5.69178,-0.827959 -0.910637,-2.2264 -3.55633,-3.91184 -5.25595,-5.72367 -1.70198,1.39726 0.750006,3.94373 -1.1067,5.56658 0.471264,-1.97364 -0.555122,-4.16932 0.315357,-5.98233 0.196065,-0.0944889 0.315357,-0.315357 0.630714,-0.25512 0.238585,0.225592 0.398035,0.51024 0.713391,0.670871 0.197246,-0.0330711 0.395672,-0.0661423 0.555122,-0.160631 0.0755911,-0.317719 -0.239766,-0.570477 -0.396854,-0.827959 0.356696,-1.65474 1.34411,-3.24333 3.00357,-4.35594 0.0791345,-0.128741 0.199608,-0.253939 0.0791345,-0.41457 -0.474807,0.0649611 -0.908275,0.447641 -1.26379,0.700399l-0.199608 0.125198c0.277561,-1.01694 1.10906,-1.87561 1.62403,-2.86183 -0.635438,0.668509 -1.10906,1.49529 -1.58387,2.29018 -0.27638,0.571658 -0.516146,1.14568 -1.22718,1.49647 0.282286,-0.643706 0.392129,-1.3134 0.737014,-2.0197 0.232679,-0.481894 0.735833,-1.00158 0.845676,-1.44922 -1.20119,0.96733 -1.50828,3.16065 -2.33151,4.39137l-0.119292 0.506697c-0.0484256,-0.335436 0.102757,-1.61458 0.444098,-2.75199 0.474807,-1.58033 1.22599,-2.88191 0.00354333,-0.7441 -0.816148,1.42796 -0.809061,3.05199 -0.683864,4.67484l-0.555122 -0.06378 -0.670871 0.506697c-1.89923,-0.285829 -3.87405,-0.696856 -5.77209,-1.07954 0.751187,0.285829 1.62167,0.475988 2.45081,0.636619l3.00593 0.696856c-0.870479,0.0649611 -1.73978,-0.124017 -2.5701,-0.220868l-1.38426 -0.190159 -1.30277 -0.252758c1.50001,0.539768 3.39806,0.696856 5.05752,0.951976 -0.315357,0.12756 -0.711029,0 -1.02639,0.0649611l-1.30395 -0.0649611c-1.77994,-0.15945 0.94607,0.28701 1.58151,0.28701l0.71221 0.0625989c-1.58269,0.507878 -3.36026,0.128741 -4.94413,-0.284648 -0.748825,-0.03189 -1.3819,-0.827959 -2.09529,-0.51024 -0.196065,0.66969 0.830321,1.21064 0.514965,1.97246 -1.14568,-1.39962 -2.65041,-3.69097 -0.751187,-5.08823 -0.670871,-5.56894 4.76224,-11.7438 10.5343,-13.2367 -1.81655,1.11379 -3.87877,2.22994 -4.96185,3.59885 1.73978,-1.24253 3.51971,-2.38703 5.41658,-3.40514 0.592918,-0.413389 1.50356,-0.635438 2.25474,-0.54213l-2.65041 1.39962c-0.0803156,0 0,0.06378 0,0 0.929535,0.17008 1.70434,-0.58465 2.53703,-0.918905 2.04687,-0.824416 4.14334,-1.5508 6.47604,-1.21064 3.51971,-0.317719 7.70912,0.986228 8.93511,3.81735 -0.863393,0.285829 -1.50946,0.01063 -2.30907,0.214962 -0.224411,0.0578745 -1.11851,0.727565 -0.891739,0.230317 0.631895,-0.572839 -0.0803156,-0.732289 -0.713391,-0.25512 -0.0791345,-0.09567 0.158269,-0.15945 0.0401578,-0.190159 -0.474807,0.413389 -0.990953,0.827959 -1.34647,1.33466 -0.670871,0.636619 -1.18347,1.36773 -1.6193,2.06931 -0.157088,-0.0649611 -0.194883,-0.161812 -0.157088,-0.285829 0.483075,-1.30867 1.96891,-2.30081 2.96577,-3.48664 0.942527,-1.11969 0.216143,-0.500791 -0.45709,0.132285l0 0zm-3.89294 6.27879c0.434649,-0.0625989 1.06654,0.38268 0.711029,0.700399 -1.1067,-0.445279 2.33506,1.97246 0.673234,0.922448 -0.433468,-0.285829 -0.869298,-0.792526 -1.46222,-0.792526 1.46222,0.982685 2.21222,2.2571 2.64687,3.81499 0.831503,-0.3189 0.752368,1.05119 0.792526,1.65238 -0.672053,1.27324 -2.09529,2.19687 -2.25474,3.78546l-0.631895 0.670871c-0.355515,0 -0.194883,-0.415751 -0.395672,-0.57402 -1.50356,0.25512 -3.04372,0.477169 -4.58508,0.60591 -0.0401578,0.157088 0.275199,0.444098 -0.120473,0.507878 -1.06536,-0.128741 -1.77875,-1.05001 -2.60553,-1.58978 -0.0401578,0.379137 0.511421,0.793707 0.394491,1.2071 -0.949614,-0.796069 -1.18584,-1.90868 -1.54253,-2.92443 -0.395672,0.445279 0.356696,2.03269 0.908275,2.67049 -0.788983,-0.477169 -1.22481,-1.33584 -1.26379,-2.13073 -0.911818,0.475988 -0.631895,-1.08308 -0.316538,-1.49529 0.513784,-0.762998 1.976,-1.04883 2.21458,-1.87797 0.155907,-0.0614178 0.11693,0.15945 0.236222,0.12756 2.5701,-1.49647 4.34885,-3.56341 6.60005,-5.28075l0.00118111 0z"/><path class="fil0" d="M85.2645 27.8057c-0.870479,1.58978 -2.49096,3.21262 -3.6768,4.83429 -0.0767723,0.06378 -0.158269,0.0968512 -0.237403,0.06378 1.14804,-1.68545 2.72719,-3.21144 3.9142,-4.89807l0 0z"/><path class="fil0" d="M57.7505 28.1246c0.120473,-0.03189 0.277561,0.03189 0.277561,0.157088 -0.790164,1.75041 -1.81655,3.43585 -2.88546,5.12248l-0.355515 0.192521c-0.0401578,-0.06378 -0.120473,-0.128741 -0.120473,-0.192521 1.26497,-1.68663 2.37167,-3.43585 3.08388,-5.27957l0 0z"/><path class="fil0" d="M57.0772 30.605c0.120473,-0.0307089 0.240947,0.06378 0.278742,0.160631 -0.915362,1.28977 -1.42442,2.71065 -2.27246,4.01932 -0.174805,0.270475 -0.792526,1.32048 -0.692131,0.816148 0.830321,-1.68663 1.69962,-3.37207 2.68585,-4.9961l0 0z"/><path class="fil0" d="M48.8153 31.7506c0.0401578,0 0.120473,0.03189 0.0803156,0.06378 -0.879928,0.950795 -1.44332,1.98899 -1.88505,3.10042 -0.193702,0.487799 -0.196065,2.53467 -0.565752,1.51182 0.0803156,-1.71852 0.475988,-3.72286 2.37049,-4.67602l0 0z"/><path class="fil0" d="M57.1977 31.7506c0.158269,-0.0330711 0.275199,0.06378 0.236222,0.192521 -0.949614,1.31576 -1.72797,2.77443 -2.63624,4.10791 -0.81851,1.20001 -1.11024,1.39962 -0.721659,0.726384 1.06654,-1.68545 2.17561,-3.34136 3.12168,-5.02681l0 0z"/><path class="fil0" d="M51.0713 31.9101c0.235041,0.0330711 0.553941,0.0330711 0.66969,0.190159 -3.0012,3.21262 -2.44963,7.73038 -0.51024,11.2288l-0.713391 0.35079c0.118111,-0.22323 0.118111,-0.857487 -0.198427,-0.41457l-0.315357 0.794888c-0.317719,-0.285829 -0.0401578,-0.666147 0,-1.01694 0.315357,-0.700399 -0.396854,-0.03189 -0.396854,0.3189 -0.236222,-0.41457 0.396854,-0.79725 0.199608,-1.17639 -0.395672,-0.0330711 -0.239766,0.474807 -0.475988,0.636619 -0.394491,-0.479531 0,-1.05119 0.197246,-1.56025 -0.0366145,-1.01694 -0.631895,1.08072 -0.591737,0.253939 -0.0401578,-0.445279 0.275199,-0.921267 0.474807,-1.30277 -0.514965,-0.253939 -0.43583,0.475988 -0.711029,0.635438 -0.43583,-0.635438 0.115749,-1.20828 0.355515,-1.81301 -0.395672,-0.383861 -0.43583,0.509059 -0.670871,0.698037 -0.395672,-0.794888 0.395672,-1.49174 0.630714,-2.22521 -0.590556,-0.0968512 -0.555122,0.825597 -0.790164,1.14332 -0.0803156,-2.2571 0.315357,-4.61106 1.93702,-6.48785l0.909456 -0.253939z"/><path class="fil0" d="M77.4372 31.9432c0.120473,0 0.196065,0.0283467 0.236222,0.125198 -0.0401578,0.09567 -0.155907,0.160631 -0.236222,0.222049l-2.52994 0.79725 2.52994 -1.1445z"/><path class="fil0" d="M57.0382 33.214c0.119292,-0.03189 0.198427,0.03189 0.15945,0.126379 -0.711029,1.09961 -1.2756,2.40474 -2.03624,3.54688 -0.253939,0.380318 -0.982685,1.53545 -0.889377,1.03583 0.870479,-1.59332 1.77875,-3.18191 2.76616,-4.70909l0 0z"/><path class="fil0" d="M49.015 35.79c0.0803156,0 0.155907,0.00118111 0.196065,0.0330711 -0.115749,0.571658 -0.711029,0.954338 -0.711029,1.526 0,0.03189 -0.0401578,0.03189 -0.0755911,0.03189 -0.120473,-0.511421 0.275199,-1.11497 0.590556,-1.58978l0 -0.00118111z"/><path class="fil0" d="M51.5059 36.044c0.0791345,0 0.155907,0 0.235041,0.0649611l-0.630714 1.11261 -0.0803156 -0.0625989c0.15945,-0.381499 0.200789,-0.764179 0.475988,-1.11497l0 0z"/><path class="fil0" d="M51.4658 36.9995c0.119292,0 0.196065,0 0.275199,0.06378 -0.0791345,0.412208 -0.551579,0.731108 -0.590556,1.14568 -0.0401578,0.03189 -0.0803156,0.0330711 -0.120473,0.0330711 -0.0791345,-0.415751 0.27638,-0.86103 0.43583,-1.24253l0 0z"/><path class="fil0" d="M24.1502 37.6042c0.118111,1.36655 -0.830321,3.37089 0.395672,4.54846 -0.118111,-0.921267 0,-2.00317 0.237403,-2.92561l0.15945 -0.288191c-0.0389767,1.05001 -0.872842,2.83231 0.431106,3.49963 0.0803156,-0.128741 0.0401578,-0.317719 0.0401578,-0.44646l0.0401578 -0.793707 0.120473 -0.794888c0.235041,0.762998 -0.516146,2.06813 0.790164,2.38585 0.118111,-0.03189 0.118111,-0.0968512 0.118111,-0.192521l-0.0401578 -0.666147c0.120473,-0.47835 0,-1.02048 0.158269,-1.4634 0.119292,0.731108 -0.118111,1.58978 0.119292,2.32207 0.909456,0.761817 0.433468,-1.01812 0.82914,-1.33702 0.0401578,0.0968512 -0.0401578,0.158269 -0.0401578,0.22323l-0.0401578 0.477169c0.0803156,0.35079 -0.315357,0.858668 0.199608,1.08072 0.869298,0.509059 0.475988,-1.52718 0.711029,-0.922448l0 0.381499c-0.395672,0.636619 0.751187,1.21064 0.791345,0.3189 0.237403,0.0968512 -0.0803156,0.317719 0.0779534,0.445279 0.355515,0.22323 0.830321,0.285829 0.474807,0.73347 -2.29018,-0.0649611 -4.78114,-0.66969 -6.55989,-1.91104 0.275199,-0.315357 1.02639,-0.0295278 0.670871,-0.668509 -0.0803156,-0.539768 -0.120473,-1.05001 -0.0401578,-1.59096 -0.0401578,-0.825597 0.157088,-1.62049 0.355515,-2.41419l0 -0.00118111z"/><path class="fil0" d="M51.5059 37.955c0.0791345,0 0.155907,0 0.235041,0.0295278 0,0.41457 -0.394491,0.700399 -0.551579,1.05119 -0.118111,-0.35079 0.157088,-0.73347 0.316538,-1.08072l0 0z"/><path class="fil0" d="M51.6618 38.496l0.15945 0c0.0401578,0.317719 -0.275199,0.634257 -0.315357,0.951976 -0.0401578,0.03189 -0.0803156,0.03189 -0.120473,0.03189 -0.115749,-0.317719 0.0401578,-0.698037 0.27638,-0.983866l0 0z"/><path class="fil0" d="M51.8213 39.5767l0.120473 0 0.0389767 0.125198c-0.199608,0.192521 -0.0389767,0.543311 -0.355515,0.636619l-0.119292 -0.03189c0,-0.253939 0.0401578,-0.572839 0.315357,-0.729927l0 0z"/><path class="fil0" d="M21.3439 39.8306c0.0401578,0 0.0779534,0 0.0779534,0.0330711 0,0.409846 0,0.793707 0.0401578,1.17639 0,0.0307089 -0.0401578,0.06378 -0.0779534,0.06378 -0.317719,-0.38268 -0.119292,-0.830321 -0.0401578,-1.27324l0 0z"/><path class="fil0" d="M51.9417 40.2452l0.154726 0c0,0.25512 -0.115749,0.603548 -0.395672,0.664966 -0.0755911,-0.188978 0,-0.506697 0.240947,-0.664966l0 0z"/><path class="fil0" d="M54.3122 41.0708c0.194883,0.51024 -0.196065,1.05001 -0.316538,1.55789l-0.315357 0.03189c0,-0.253939 0.115749,-0.603548 0.355515,-0.825597 0,-0.285829 0.0803156,-0.572839 0.27638,-0.764179l0 0z"/><path class="fil0" d="M53.3248 41.6436c0.0401578,0 0.0803156,0.03189 0.0803156,0.0625989 -0.320081,0.41457 -0.15945,1.17639 -0.912999,1.27324 0.199608,-0.444098 0.357877,-1.01576 0.832684,-1.33584l0 0z"/><polygon class="fil0" points="53.7205,41.6436 53.4051,42.7255 53.2055,42.7255 "/><path class="fil0" d="M52.5725 41.8669l0.119292 0 -0.317719 0.922448 -0.0767723 0c-0.278742,-0.253939 0.194883,-0.636619 0.275199,-0.922448l0 0z"/><path class="fil0" d="M54.1516 43.2972c0.675596,-0.06378 2.37522,0.317719 1.34647,0.699218 0.0779534,0.128741 0.197246,0.193702 0.317719,0.28701 1.26143,0.413389 2.68585,1.33702 1.85789,2.54648 -0.43583,-0.479531 -0.990953,-0.859849 -1.62285,-1.11497 -0.119292,-0.12756 -0.512602,-0.253939 -0.592918,-0.0307089 0.0401578,0.158269 0,0.285829 0.158269,0.413389 2.17561,0.825597 1.81773,2.76616 0.670871,4.10318 -0.315357,-0.732289 0.43583,-1.39844 0.59528,-2.13191 -0.315357,0.15945 -0.514965,0.571658 -0.711029,0.857487 -0.673234,-0.0921267 1.02639,-2.3823 0,-1.2071 -0.0803156,0.12756 -0.239766,0.509059 -0.355515,0.381499 -0.594099,-2.16143 -5.49689,-2.60789 -6.96029,-0.731108 -0.0401578,-0.604729 0.711029,-1.30395 0.672053,-1.71734 -0.747644,0.859849 -0.827959,2.00317 -1.61812,2.83112l-0.0803156 -0.317719 0.395672 -1.11379c-0.355515,0.349609 -0.513784,0.827959 -0.711029,1.23899 -0.120473,0.41457 -0.0401578,0.889377 -0.395672,1.21064 -0.317719,-2.26065 1.58151,-4.55082 4.58271,-4.55082 0.240947,-0.0968512 0.279923,-0.220868 0.0401578,-0.35079 -0.235041,-0.0921267 -0.471264,-0.0921267 -0.751187,-0.0921267 0.87166,-0.89292 2.21577,-0.668509 3.32247,-0.571658 0.315357,-0.288191 -0.947252,-0.607091 -0.160631,-0.638981l0 0z"/><path class="fil0" d="M60.8343 44.9507c0.553941,-0.03189 1.10906,0 1.54017,0.285829 1.10906,2.45199 -2.17325,4.77169 -3.952,6.61895 0.119292,-0.827959 0.910637,-1.49647 1.58151,-2.16262l1.97482 -1.90986 -0.94607 0.793707 -0.673234 0.636619c-0.791345,0.57402 -1.34292,1.36773 -2.09293,1.91104 0.670871,-1.62285 2.37049,-2.83349 3.59649,-4.16932 -1.34411,0.986228 -2.52994,2.35514 -3.71696,3.56578 0.27638,-1.71852 2.29372,-2.86538 3.51735,-4.2024 -0.196065,0.0649611 -0.315357,0.253939 -0.471264,0.35079 -1.1882,0.922448 -2.21458,2.03624 -3.24333,3.02365 0,-0.766541 0.752368,-1.30631 1.26379,-1.90986 0.275199,-0.3189 0.59528,-0.604729 0.910637,-0.891739 0.236222,-0.347247 0.751187,-0.572839 0.948433,-0.921267 -0.98859,0.699218 -1.89923,1.65356 -2.80514,2.48152 0.118111,-0.38268 0.275199,-0.732289 0.630714,-0.987409 0.236222,-0.348428 0.555122,-0.666147 0.870479,-0.985047l1.06654 -0.954338c-0.434649,0.253939 -0.791345,0.603548 -1.14568,0.922448l-0.791345 0.761817 -0.512602 0.509059 -0.278742 0.28701c0.0803156,-0.826778 1.14686,-1.46104 1.66182,-2.19332l-0.434649 0.316538 -0.948433 0.923629c0.592918,-0.858668 1.26379,-1.7823 2.44963,-2.1012l0 0z"/><path class="fil0" d="M59.0969 45.8118l-0.474807 0.538587c-0.0803156,-0.285829 0.235041,-0.411027 0.474807,-0.538587l0 0z"/><path class="fil0" d="M45.259 46.4153c0.0389767,0 0.118111,0 0.15945,0.03189l-0.0803156 0.188978c-0.395672,0.193702 -0.118111,0.6378 -0.395672,0.86103 -0.0389767,-0.3189 0,-0.796069 0.316538,-1.0819l0 0z"/><path class="fil0" d="M51.7811 46.9551l0.315357 0.03189c-0.471264,0.89292 -0.986228,1.81537 -1.3819,2.73545 0.591737,-0.888196 0.947252,-1.9075 1.73978,-2.67049 0.0377956,-0.161812 0.355515,-0.06378 0.475988,-0.0330711 -0.317719,0.986228 -0.87166,1.97246 -1.02875,2.92798 0.157088,-0.3189 0.314176,-0.636619 0.434649,-0.987409l0.553941 -1.24135c0.275199,-0.220868 0.315357,-0.826778 0.870479,-0.634257 -0.239766,1.27206 -0.753549,2.576 -0.950795,3.81499l0.395672 -1.07954 0.275199 -1.05001c0.279923,-0.413389 0.355515,-2.13191 1.06654,-1.17757l-0.275199 1.27088 -0.196065 0.76536 -0.199608 0.796069 0.910637 -2.70593c0.275199,0.28701 0.315357,0.70158 0.434649,1.05237 0.158269,1.75041 1.22481,3.75357 0.0389767,5.37524 -1.58033,-0.15945 -3.27995,-0.128741 -4.5461,-0.987409 -1.54253,0 -3.04372,-0.634257 -4.26972,-1.33466 0.870479,-1.68545 2.01498,-3.56105 3.9142,-4.7398 -0.157088,0.380318 -0.673234,0.858668 -0.592918,1.2071 0.355515,-0.507878 0.713391,-1.0819 1.38426,-1.30277 -0.160631,0.252758 -0.315357,0.603548 -0.514965,0.826778 0.394491,-0.22323 0.634257,-0.731108 1.14568,-0.859849l0 0z"/><path class="fil0" d="M23.5974 47.0838c0.315357,0.348428 0.592918,0.764179 1.02639,1.0819 -0.115749,0.0968512 -0.473626,0.125198 -0.473626,0.35079 1.26379,1.27088 3.51853,1.14332 5.41658,1.20592 -0.831503,0.35079 -1.93702,0.47835 -2.76853,0.76536 0.635438,0.0330711 1.30631,-0.253939 1.97718,-0.28701 -0.555122,0.25512 -1.77994,0.412208 -1.97718,0.6378l0.751187 -0.161812 0.474807 -0.09567c0.551579,-0.0295278 1.02639,-0.347247 1.62049,-0.316538 0.0401578,0.126379 -0.0401578,0.256301 -0.158269,0.316538l-2.60789 0.82914 0.157088 0.0933078c-0.592918,0.38268 -1.22599,0.73347 -1.97718,0.891739 -2.09529,-1.11379 -0.98859,-3.40396 -1.57915,-5.05752l0.118111 -0.253939z"/><path class="fil0" d="M63.8911 53.2233c-0.620084,1.06064 -1.55671,1.65238 -2.34333,2.51222l-1.02875 1.01812c-0.197246,0.285829 -0.791345,0.604729 -0.59528,0.955519 1.1882,-1.08308 2.2949,-2.576 3.71932,-3.62719l-0.15945 0.732289c-0.278742,0.411027 -0.711029,0.761817 -1.14922,1.08072 -1.30159,1.24135 -2.45081,2.38585 -3.0012,3.65672 -0.316538,-2.47915 0.908275,-4.89807 1.85907,-7.18825 0.155907,-0.667328 1.1067,-1.23899 1.1067,-1.87561 -0.950795,0.28701 -1.58151,1.17639 -2.37522,1.68663l-1.6193 1.526c0.82914,-2.19687 3.24333,-3.05554 4.90043,-4.83665l-0.830321 0.47835c-0.115749,-0.28701 1.85907,-1.30513 1.22836,-1.11379 -0.237403,0.0625989 -0.398035,0.19134 -0.592918,0.3189l-0.475988 0.28701c-0.790164,0.125198 2.37049,-1.84608 0.670871,-0.922448 -0.157088,0.0295278 -0.11693,-0.0968512 -0.0366145,-0.128741l0.394491 -0.509059c3.12168,1.30277 0.158269,3.27758 -1.50474,4.39019 -0.354333,1.27206 1.94057,-1.97128 1.69962,-0.79725 -0.908275,1.0193 -2.24175,1.62875 -2.75671,2.77443 0.948433,-0.827959 1.57324,-1.72324 2.7201,-2.39175 -0.0377956,0.22323 0.317719,0.57402 -0.0377956,0.70158 -1.02875,1.04883 -2.84884,1.9382 -3.08624,3.27404 0.831503,-1.11143 1.97718,-2.19332 3.16065,-3.14766 1.03111,0.986228 -2.13545,2.32207 -2.88309,3.49845 -0.197246,0.317719 -0.870479,0.57402 -0.633076,0.9567 1.18702,-1.11379 2.26773,-2.27718 3.64964,-3.30947l0 0z"/><path class="fil0" d="M32.5703 47.8468c1.22599,0.890558 0.43583,2.64097 1.50237,3.56341l0.315357 -0.225592c0.0401578,0.160631 0.119292,0.288191 0.0791345,0.447641 -0.434649,-0.128741 -0.870479,-0.317719 -1.18584,-0.604729 -0.120473,-1.04883 -0.395672,-2.1638 -0.711029,-3.17955l0 -0.00118111z"/><polygon class="fil0" points="45.4988,48.8024 45.6134,48.8024 46.009,50.8988 45.8141,51.0913 45.3771,48.8626 "/><path class="fil0" d="M42.0192 48.8626c0.630714,0.257482 1.38426,0.638981 2.09529,0.41457 0.711029,1.0819 0.590556,2.67404 1.34411,3.46892 0.120473,-0.447641 -0.277561,-1.43151 -0.0401578,-1.62167 0.830321,1.68545 0.790164,3.52916 1.14568,5.37642l0.236222 0.442917c-0.196065,-1.36773 -0.355515,-2.86183 -0.395672,-4.26145 0.315357,0.317719 0.239766,0.857487 0.355515,1.27206l0.120473 1.27088 0.119292 1.36773c0.155907,-0.442917 0.0779534,-2.60671 -0.15945,-3.75003 0.434649,0.124017 0.592918,0.506697 0.71221,0.857487l0.15945 1.58978c0.11693,0.285829 0.0767723,-0.475988 0.0767723,-0.636619 -0.315357,-2.38585 1.81773,-0.413389 0.315357,0.793707 -0.433468,0.6378 -0.908275,1.33938 -1.22363,2.03624 0.790164,-0.698037 1.18584,-1.93939 1.93466,-2.73309 -0.0354333,1.52718 -2.05513,3.62483 -3.27758,5.37642 -0.239766,0.220868 -0.474807,0.506697 -0.634257,0.760636 1.74096,-1.62167 2.8075,-3.40396 4.19177,-5.18272 0.115749,0.507878 -0.120473,0.921267 -0.355515,1.36773l-1.06891 1.39962c-0.395672,0.412208 -0.633076,1.11261 -0.0401578,0.38268l0.553941 -0.638981c0.670871,-1.17639 1.26615,-0.857487 0.239766,0.12756l-0.555122 0.540949c-1.02875,1.05001 -0.316538,0.764179 0.394491,-0.0295278l0.908275 -0.73347c-1.02757,3.84924 -7.31226,3.37089 -10.9501,4.58035 -1.73978,-0.445279 -3.20081,-1.55671 -5.0965,-1.74923 -1.77875,0 -2.8453,0.986228 -4.19177,-0.539768 -0.357877,-0.700399 0.277561,-1.30395 0.670871,-1.87561 0.199608,-0.129922 0.239766,-0.447641 0.514965,-0.479531 0.0803156,0.700399 0,0.890558 -0.633076,1.33702 0.473626,0.442917 1.42442,-0.0968512 2.29254,-0.44646 -0.394491,0.192521 -0.315357,0.954338 0.0401578,0.41457 0.395672,-0.128741 -0.55276,0.731108 0.0803156,0.413389l0.275199 -0.12756c-0.790164,1.36773 1.26615,0 1.46222,-0.668509 0.15945,0.38268 -0.475988,0.668509 -0.43583,1.05001 0.315357,-0.224411 0.831503,-0.699218 0.315357,-0.0625989 -0.471264,0.412208 -0.235041,0.634257 0.160631,0.126379l0.197246 -0.15945c0.183072,0.213781 -0.264569,0.368507 -0.302365,0.479531 -0.142915,0.390948 0.431106,0.184253 1.00276,-0.183072 0.441736,-0.281105 -0.0377956,-0.702761 1.00158,-0.933078l-0.315357 0.41457 -0.120473 0.253939c0,0.764179 0.43583,-0.603548 0.631895,-0.253939 0,0.0933078 -0.0401578,0.158269 -0.120473,0.222049l-0.196065 0.3189c-0.15945,1.87442 2.37167,-1.08308 2.21577,-2.03742 0.434649,0.575201 1.77757,2.26065 2.37049,1.46576l0.27638 -0.00118111c0.949614,-0.38268 -1.34529,-0.09567 -0.396854,-0.41457 0.120473,-0.09567 0.355515,-0.125198 0.317719,-0.285829 -0.0401578,-0.03189 -0.157088,-0.09567 -0.197246,-0.0649611 -0.237403,0.0330711 -0.831503,0 -0.355515,-0.124017 0.910637,-0.193702 0.590556,-0.51024 -0.158269,-0.193702 0.0377956,-0.316538 0.118111,-0.985047 0.472445,-0.985047 0.752368,0.317719 2.84766,1.65356 2.88664,0.603548l0.395672 0c0.0803156,0.15945 0.120473,0.47835 0.395672,0.51024 1.93466,-2.38703 0.474807,-5.28075 0.236222,-7.85912 -0.631895,-0.602367 -1.66064,-0.761817 -2.33151,-1.33466 -0.15945,-0.28701 0.198427,-0.509059 0.43583,-0.668509l0 -0.00118111z"/><path class="fil0" d="M44.9826 48.9594c0.475988,0.509059 0.43583,1.24135 0.59528,1.87915l-0.239766 0.0283467c-0.157088,-0.539768 -0.196065,-1.23899 -0.592918,-1.77875l0.237403 -0.128741z"/><path class="fil0" d="M64.3139 49.309c0.0401578,0 0.155907,0.00118111 0.119292,0.0649611 -0.555122,0.477169 -1.18584,0.920086 -1.58387,1.49293l-0.275199 0.06378 -0.0803156 -0.155907c0.395672,-0.636619 1.26379,-0.923629 1.81891,-1.46458l0.00118111 -0.00118111z"/><path class="fil0" d="M44.587 49.5016c0.475988,0.603548 0.516146,1.42915 0.594099,2.16262 -0.238585,-0.70158 -0.43583,-1.43033 -0.594099,-2.16262l0 0z"/><path class="fil0" d="M66.8049 49.5311c1.77875,0 2.80514,1.65356 3.1205,2.8642 0.633076,0.128741 0.355515,-0.731108 0.200789,-1.01694 2.60553,0.412208 1.53899,3.11695 0.986228,4.51657 -0.315357,0.25512 -0.711029,0.444098 -1.14686,0.509059 -0.670871,-0.57402 -0.908275,-1.68545 -2.05513,-1.78348 -0.0791345,-0.380318 0.0791345,-0.761817 0.118111,-1.1445 0.0401578,-0.0933078 0.120473,-0.253939 0.0803156,-0.379137 -0.473626,0.474807 -0.119292,1.68545 -1.18465,1.55671 -0.320081,-0.858668 0.51024,-1.65356 0.748825,-2.47915 -0.633076,0.728746 -0.98859,1.62049 -1.1445,2.51104 -1.45277,0.559847 0.0862212,-1.21655 0.217325,-2.03033 -0.631895,0.571658 -1.00985,1.7445 -1.52363,2.28427 -0.0389767,-0.125198 0,-0.253939 0.0779534,-0.380318l0.317719 -0.47835 0.118111 -0.285829c-0.631895,0.415751 -0.553941,1.3382 -1.42324,1.49529 0.0413389,-1.17639 0.591737,-2.29018 1.34529,-3.27758 -0.277561,-0.348428 -0.553941,0.128741 -0.832684,0.161812 -0.511421,-1.24371 0.278742,-2.48152 1.97954,-2.64215l0 -0.00118111z"/><path class="fil0" d="M60.8343 49.6929l-0.55276 1.39844c-0.673234,0.444098 -1.18465,1.08308 -1.82009,1.526 0.316538,-1.17639 1.50237,-1.97246 2.37285,-2.92443l0 0z"/><path class="fil0" d="M55.543 55.3351c0.676777,-0.766541 1.35828,-1.52482 1.06418,-2.62089 0.115749,-0.28701 0.550398,-0.539768 0.390948,-0.858668 -0.236222,-0.0649611 -0.315357,0.126379 -0.315357,0.285829 -0.115749,0.190159 -0.155907,-0.09567 -0.0755911,-0.15945l0.0354333 -0.349609 0.675596 -1.24135c0.235041,1.49529 0.590556,3.30947 -0.87166,4.48468 -0.0401578,0.09567 0.0401578,0.160631 0.120473,0.225592 0.194883,0.124017 0.275199,-0.129922 0.395672,-0.193702 -0.120473,0.636619 -0.320081,1.33702 -0.831503,1.84608 -0.948433,0.35079 -2.05513,0.35079 -3.08388,0.126379 -0.910637,0.09567 -1.74096,0.636619 -2.68821,0.51024 -0.512602,-0.253939 -0.512602,-0.732289 -0.0791345,-1.05119 0.277561,-0.445279 0.950795,-0.667328 1.02639,-1.14568 -0.316538,-0.253939 -0.748825,0.06378 -1.10434,0.0968512 -0.198427,-0.572839 -0.751187,-1.9075 0.551579,-1.30395 0.0413389,0.19134 -0.0791345,0.348428 -0.118111,0.509059 -0.155907,1.30395 0.239766,-1.0193 1.02639,-0.12756 0.199608,0.317719 -0.355515,0.793707 -0.115749,1.14332 0.235041,-0.253939 0.235041,-0.603548 0.472445,-0.857487 0.355515,-0.35079 1.22718,0.128741 0.673234,0.539768l-0.355515 0.60591c-0.0389767,0.0625989 -0.120473,0.15945 -0.0389767,0.222049l0.98859 -1.27088c0.590556,-0.0649611 1.10552,0.157088 0.670871,0.636619 -0.160631,0.380318 -0.475988,0.857487 -0.516146,1.23899 0.555122,-0.635438 0.711029,-2.06695 2.0575,-1.75041l-0.480712 0.654336c-0.629533,1.3134 -0.158269,0.579926 0.525595,-0.193702l0 -0.00118111z"/><path class="fil0" d="M26.4829 50.4878l0.275199 0c-0.0377956,0.0933078 -0.235041,0.0933078 -0.275199,0l0 0z"/><path class="fil0" d="M29.4085 50.7748l0.236222 0.06378c-0.158269,0.252758 -0.631895,0.252758 -0.909456,0.442917l-0.315357 -0.190159 0.27638 -0.09567c0.237403,-0.0649611 0.514965,-0.0968512 0.71221,-0.220868l0 0z"/><path class="fil0" d="M60.6371 51.7268c-0.395672,1.08308 -1.77994,2.1012 -2.80632,2.95868 -0.0389767,-0.0968512 0,-0.157088 0.0401578,-0.220868l2.76616 -2.73782z"/><path class="fil0" d="M29.5266 54.1776c-0.315357,-0.702761 -1.02639,-1.24135 -1.73742,-1.71734 -0.0401578,-0.256301 0.0354333,-0.509059 0.235041,-0.70158l0.355515 0c0.475988,0.76536 0.831503,1.59096 1.14686,2.4201l0 -0.00118111z"/><path class="fil0" d="M42.7303 53.1583c0.357877,0.256301 0.157088,0.604729 0,0.890558 -0.158269,-0.253939 -0.198427,-0.603548 0,-0.890558l0 0z"/><path class="fil0" d="M59.6485 53.3189c0.0401578,0 0.0791345,0 0.119292,0.0307089 -0.15945,1.0819 -1.4634,1.68663 -2.21458,2.51222 0.120473,-1.07954 1.30395,-1.74805 2.09529,-2.54293l0 0z"/><path class="fil0" d="M41.3082 53.3496c0.39331,0.125198 0.551579,0.509059 0.670871,0.796069 0.315357,0.222049 0.315357,0.761817 -0.15945,0.922448 -0.236222,-0.285829 0.237403,-0.636619 -0.118111,-0.827959 0.0401578,-0.0625989 0.0401578,-0.158269 0.0401578,-0.253939l-0.197246 -0.0968512c-0.356696,0.385042 -0.43583,-0.317719 -0.236222,-0.539768l0 0z"/><path class="fil0" d="M40.1991 53.9863c0.553941,0.253939 0.513784,0.889377 0.909456,1.27088 -0.196065,0.28701 -0.751187,0.51024 -1.10788,0.253939 0.120473,-0.220868 0.792526,-0.728746 0.198427,-0.696856l0.238585 -0.539768c-0.238585,-0.0342522 -0.437011,-0.0342522 -0.238585,-0.288191l0 0z"/><path class="fil0" d="M38.222 54.5886c0.0803156,0.03189 0.160631,0.129922 0.160631,0.193702 -0.27638,0.0933078 -0.200789,0.411027 -0.355515,0.571658 -0.239766,-0.252758 -0.0401578,-0.539768 0.194883,-0.76536l0 0z"/><path class="fil0" d="M36.5235 56.2776c0.236222,0.0933078 0.592918,-0.38268 0.119292,-0.256301 -0.119292,-0.253939 0.275199,-0.380318 0.315357,-0.602367 0.197246,-0.28701 -0.315357,-0.285829 -0.355515,-0.03189l-0.0791345 0.284648c-0.196065,0.190159 -0.0413389,-0.41457 -0.0413389,-0.570477l0.160631 -0.447641c0.473626,0.447641 0.868117,1.0819 1.10788,1.65356 -0.15945,0.543311 -0.990953,0.25512 -1.22836,-0.0295278l0.00118111 0z"/><path class="fil0" d="M59.1725 54.6536c0.0803156,0.793707 -0.94607,1.33702 -1.53899,1.87915 -0.0401578,-0.06378 -0.0401578,-0.128741 -0.0401578,-0.193702 0.315357,-0.667328 1.02875,-1.14568 1.57915,-1.68545l0 0z"/><path class="fil0" d="M43.6385 54.7174c0.43583,0.285829 0.27638,0.987409 0.0803156,1.36773l-0.751187 -0.983866 0.670871 -0.383861z"/><path class="fil0" d="M32.9258 54.8756c0.119292,0 0.235041,0.06378 0.275199,0.160631 -0.194883,0.317719 -0.0755911,0.731108 0.0803156,1.04883l0.315357 -0.06378c0,0.09567 0,0.22323 -0.0401578,0.317719l-0.511421 0.193702c-0.672053,-0.38268 -0.199608,-1.14568 -0.119292,-1.6571l0 0z"/><path class="fil0" d="M31.4235 54.9075l0.118111 0c0.237403,0.44646 0.198427,1.02048 0.120473,1.43151 -0.238585,0.0968512 -0.516146,0 -0.751187,0 0,-0.477169 0.194883,-1.01694 0.512602,-1.43151l0 0z"/><path class="fil0" d="M38.4983 55.0682c0.239766,0.188978 0.356696,0.507878 0.434649,0.793707l-0.51024 0.0661423c-0.0401578,-0.128741 -0.240947,-0.256301 -0.0803156,-0.351971 -0.355515,0 0.0803156,-0.35079 0.155907,-0.507878l0 0z"/><path class="fil0" d="M62.8103 56.339c0.316538,-0.539768 -0.475988,0.193702 -0.672053,0.38268l-1.10552 0.987409c-0.235041,0.220868 -0.475988,0.475988 -0.751187,0.699218 0.830321,-1.17875 2.01734,-2.2264 3.12168,-3.24688 -0.119292,0.41457 -0.0779534,0.955519 -0.592918,1.17757l0 0z"/><path class="fil0" d="M34.6656 55.1933c0.275199,0.03189 0.0791345,0.38268 0,0.511421l-0.118111 0.22323 -0.0803156 0.253939c0.118111,0.157088 0.43583,-0.92481 0.553941,-0.38268l-0.158269 0.19134 -0.157088 0.445279c-0.0803156,0.38268 0.275199,-0.253939 0.355515,-0.381499 0.15945,0.190159 0.119292,0.47835 0.15945,0.732289 0.0401578,0.06378 0.115749,0.157088 0.0755911,0.253939 -0.39331,0.06378 -0.82914,0.0968512 -1.1445,-0.0968512 0.0779534,-0.572839 0.118111,-1.27206 0.513784,-1.75041l0 0z"/><path class="fil0" d="M67.0399 55.2571c1.94057,-0.188978 1.82009,2.76734 4.15279,1.65474 0.55276,1.05001 0.71221,2.29018 0.157088,3.37325l-0.434649 -0.70158 0 -0.539768c0,-0.09567 0.0389767,-0.188978 0.0791345,-0.285829 0.0401578,-0.762998 -0.395672,0.923629 -0.512602,0.0968512l-0.0401578 -0.257482c-0.0803156,-0.125198 0.11693,-0.348428 -0.120473,-0.381499 0.0401578,2.13191 0.948433,5.02563 -1.06654,7.22368l0.0401578 -1.3382c1.34411,-2.44963 -3.4394,-4.93114 -4.90043,-2.32088 -0.87166,1.49411 -1.30631,3.17955 -2.21577,4.64177 -0.395672,-0.220868 -0.556304,-0.603548 -0.986228,-0.792526 0.0755911,-1.84726 0.511421,-3.81972 2.21104,-5.18744 0.317719,-0.316538 0.635438,-0.604729 1.02993,-0.857487 -0.555122,-0.0968512 -1.82009,1.43151 -2.68939,1.87442l0.394491 -0.571658c1.10906,-1.36773 -0.394491,-0.0602367 -0.709848,0.668509 -0.316538,0.41457 -0.160631,0.891739 -0.553941,1.27442 -1.06654,-2.32443 2.60908,-4.26145 5.01854,-4.58153l0.990953 0.827959c0.511421,0.06378 1.02639,-0.507878 0.355515,-0.668509 -0.950795,-0.22323 0.909456,-1.21064 0.155907,-0.985047l-0.315357 0.220868c-0.236222,0.413389 -0.791345,0.15945 -0.869298,-0.12756 0.158269,-0.253939 0.39331,-0.507878 0.673234,-0.698037l0.431106 -0.511421c-0.905913,0.35079 -1.30159,1.40198 -2.45081,1.37009 -0.0389767,-0.128741 0.0803156,-0.253939 0.160631,-0.35079 0.119292,-0.253939 0.315357,-0.44646 0.474807,-0.668509 0.82914,-0.827959 0.0377956,-0.380318 -0.355515,0.192521 -0.474807,0.571658 -0.870479,1.2071 -1.74096,1.43033 -0.119292,-1.71852 1.81891,-2.73664 3.63664,-3.02365l0 0z"/><path class="fil0" d="M42.3358 55.4473c0.591737,0.28701 0.591737,1.37127 -0.198427,1.52836 -0.198427,-0.38268 0.55276,-0.506697 0.394491,-0.858668 -0.355515,-0.126379 -0.277561,0.3189 -0.512602,0.383861 -0.15945,-0.383861 0,-0.76536 0.315357,-1.05355l0.00118111 0z"/><path class="fil0" d="M58.778 55.7343l0.119292 0c0.0401578,0.636619 -0.670871,1.08426 -1.10552,1.52836 -0.198427,-0.66969 0.630714,-1.05001 0.986228,-1.52718l0 -0.00118111z"/><path class="fil0" d="M41.0684 55.9906c0.275199,0.15945 0.434649,0.445279 0.474807,0.699218 -0.434649,-0.0968512 -0.355515,0.507878 -0.790164,0.41457 -0.120473,-0.192521 0.315357,-0.47835 0.0401578,-0.635438 -0.355515,0 -0.196065,0.411027 -0.395672,0.571658 -0.355515,-0.0968512 -0.513784,-0.539768 -0.553941,-0.796069 0.433468,0.126379 0.909456,0 1.22481,-0.253939l0 0z"/><polygon class="fil0" points="62.8103,56.339 62.7725,56.3709 "/><path class="fil0" d="M38.4617 56.5327c0.866936,0 0.947252,1.1445 0.27638,1.33348l-0.239766 0.38268c0,-0.224411 -0.0366145,-0.477169 0.239766,-0.571658 0,-0.161812 -0.160631,-0.383861 -0.355515,-0.28701l-0.120473 0.475988c-0.474807,-0.41457 0.0401578,-0.890558 0.199608,-1.33348l0 0z"/><path class="fil0" d="M43.6787 56.8186c0.120473,0.317719 -0.199608,0.825597 -0.275199,1.23899 -0.355515,0.06378 -0.831503,-0.0330711 -1.14922,-0.19134l0.869298 0c0.199608,-0.0625989 -0.0755911,-0.12756 -0.196065,-0.12756 0.160631,-0.25512 -0.474807,-0.15945 -0.633076,-0.28701 0.473626,-0.188978 1.10906,-0.188978 1.38426,-0.633076l0 0z"/><path class="fil0" d="M58.582 56.8186c0.0803156,0.346066 -0.237403,0.760636 -0.592918,0.985047 -0.0803156,-0.351971 0.315357,-0.731108 0.591737,-0.985047l0.00118111 0z"/><path class="fil0" d="M41.5031 56.8504c0.0803156,0.125198 0.160631,0.412208 -0.0401578,0.507878 -0.394491,-0.128741 -0.0791345,-0.317719 0.0401578,-0.507878l0 0z"/><path class="fil0" d="M36.1267 56.9438c0.396854,0 0.594099,0.3189 0.87166,0.479531 0.0401578,0.571658 -0.120473,1.11379 -0.475988,1.55671l0.355515 -1.08072c-0.275199,-0.28701 -0.395672,0.222049 -0.474807,0.349609l-0.27638 -1.30513z"/><path class="fil0" d="M31.4235 57.0725l0.238585 0 0.157088 0.125198c-0.0401578,0.47835 -0.472445,0.76536 -0.472445,1.24253 -0.0401578,0.03189 -0.0803156,0.0968512 -0.160631,0.128741 -0.0401578,-0.00118111 -0.0803156,-0.03189 -0.0803156,-0.0649611l0.317719 -1.43151z"/><path class="fil0" d="M51.5307 62.697c0.325987,0.0354333 0.38268,-1.34883 1.51655,-3.20908l0.673234 -1.11261c0.196065,-0.35079 0.471264,-0.951976 1.1067,-0.698037 -0.751187,1.36655 -1.46222,2.82994 -2.01734,4.19767 0.197246,-0.22323 0.275199,-0.507878 0.395672,-0.761817l0.514965 -0.9567 0.711029 -1.39844c0.236222,-0.317719 0.551579,-0.668509 0.630714,-1.04883l0.475988 -0.0330711c0.238585,0.667328 -0.950795,2.57719 -1.26615,3.84806 0.633076,-1.30395 1.26615,-2.576 1.7386,-3.94491 0.437011,-0.0307089 0.751187,-0.252758 0.987409,-0.474807l0.15945 0.666147c0.238585,0.41457 -0.315357,0.15945 -0.514965,0.28701 -0.115749,0.158269 0.15945,0.285829 0.239766,0.41457 1.81891,0.729927 2.41065,2.82994 0.395672,3.78428 -0.0803156,-0.317719 0.194883,-0.603548 0.0779534,-0.889377 -0.433468,-0.35079 -0.513784,0.442917 -0.673234,0.636619 -0.27638,0.444098 -0.551579,0.888196 -1.06654,1.23781 -1.46458,-0.0933078 -3.24215,1.62403 -5.09886,1.71852l-0.592918 -0.381499c-0.433468,-1.77994 0,-3.91184 1.50119,-5.34453 0.315357,-0.379137 -0.43583,-0.475988 -0.550398,-0.125198l-0.43583 0.285829c-0.398035,-1.20946 0.866936,-1.49529 2.09293,-1.65592 -0.0401578,0.19134 -0.0779534,0.38268 -0.158269,0.572839l-0.157088 0.479531c0.512602,-0.193702 0.55276,-1.75041 1.65946,-1.27442 -0.578745,1.59804 -2.18506,3.52207 -2.34569,5.18036l0 0z"/><path class="fil0" d="M30.4349 57.1363c0.395672,-0.03189 0.315357,0.475988 0.199608,0.667328l-0.199608 -0.667328z"/><path class="fil0" d="M32.8857 57.3902c0.622446,-0.140552 0.745281,0.962606 0.109843,1.11615 -0.118111,0.0283467 -0.258663,-0.351971 -0.4252,-0.351971 0.0401578,-0.288191 -0.0803156,-0.731108 0.315357,-0.764179l0 0z"/><path class="fil0" d="M35.2207 57.5792c0.0401578,0 0.0755911,0 0.0755911,0.0330711 -0.0354333,0.349609 0.15945,1.01694 -0.39331,1.11379l-0.0401578 -0.38268c-0.0779534,0 -0.197246,-0.03189 -0.237403,0.03189 -0.0401578,0.128741 -0.0779534,0.222049 -0.0779534,0.35079 -0.15945,-0.253939 -0.0803156,-0.636619 0,-0.922448l0.673234 -0.224411z"/><path class="fil0" d="M62.4938 57.9949c-0.0389767,0.602367 -0.750006,1.23899 -1.3819,1.65356l1.3819 -1.65356z"/><path class="fil0" d="M44.7854 59.0438c0.118111,0 0.237403,-0.03189 0.277561,0.0968512 -0.673234,0.729927 -1.38426,1.526 -2.13545,2.2264 0.551579,-0.796069 1.34292,-1.52954 1.85789,-2.32207l0 -0.00118111z"/><path class="fil0" d="M72.4577 59.5198c0.869298,0.06378 1.46222,0.76536 1.85789,1.33702 -0.792526,0.288191 -1.26615,0.953157 -2.05513,1.17757l0.471264 -0.51024 0.396854 -0.317719 0.316538 -0.285829c-0.592918,0.15945 -1.10906,0.668509 -1.54017,1.05001l0 -0.22323c-0.119292,-0.12756 -0.0401578,-0.25512 0.0366145,-0.380318l1.06891 -0.955519c0.434649,-0.285829 0.0791345,-0.317719 -0.199608,-0.03189l-1.06536 0.826778c-0.15945,-0.540949 0.711029,-0.921267 0.870479,-1.43033 -0.119292,-0.0330711 -0.3189,0.222049 -0.279923,0.0307089l0.121655 -0.28701z"/><path class="fil0" d="M42.6499 59.7749c0.118111,0 0.277561,-0.03189 0.317719,0.0625989 -0.631895,0.477169 -1.06891,1.14686 -1.65946,1.62167 0.39331,-0.571658 0.868117,-1.17402 1.34174,-1.68308l0 -0.00118111z"/><path class="fil0" d="M26.4829 62.7336c-0.197246,0 -0.0401578,0.12756 0,0.00118111 0.751187,-0.192521 2.45081,-1.68663 2.41065,-0.572839 0.157088,-0.445279 0.633076,-0.158269 1.03111,0.06378 -0.950795,0.444098 -1.86025,0.922448 -2.77089,1.4634 -0.158269,0.188978 -0.55276,0.253939 -0.630714,0.442917 1.69726,-0.668509 3.12168,-2.19332 5.0587,-1.81183l-1.62167 0.827959c-0.869298,0.444098 -1.65946,0.859849 -2.45081,1.36891 0.15945,0.0614178 0.791345,-0.385042 1.14686,-0.54213 1.30395,-0.571658 2.5701,-1.46222 3.99452,-1.71852 -1.22718,0.985047 -2.96577,1.62167 -4.15043,2.73664l-0.516146 0.413389c1.90041,-1.17757 3.83507,-2.60789 5.96816,-3.30829 -0.471264,0.285829 -0.986228,0.603548 -1.3819,0.954338 -1.06891,0.729927 -2.33033,1.27088 -3.4394,1.97246 -0.670871,0.413389 -1.42206,0.825597 -2.01734,1.33584l3.1264 -1.7823c-0.09567,0.480712 -0.831503,0.548036 -1.22245,0.849219 -1.12796,0.872842 -2.07403,1.9075 -2.45435,3.0638 -0.438192,-0.190159 -0.277561,-0.604729 0.0779534,-0.793707 0.592918,-0.766541 -0.987409,0.762998 -0.87166,0l0.0401578 -0.192521c0.120473,-0.28701 0.555122,-0.477169 0.673234,-0.700399 -0.277561,0 -0.592918,0.288191 -0.82914,0.51024 -0.15945,0.381499 -0.59528,0.0968512 -0.674415,-0.15945l0.394491 -0.603548c0.316538,-0.51024 0.673234,0.158269 1.02875,-0.09567 0.0401578,-1.65592 -1.81655,-3.08506 -1.6193,-4.86736 0.395672,-1.01812 1.73978,-1.43269 2.84648,-1.7823 -0.0803156,0.3189 -0.634257,0.41457 -0.909456,0.635438 -0.355515,0.25512 -0.711029,0.54213 -1.06654,0.827959 -0.59528,0.44646 0.236222,0.0649611 0.431106,-0.157088 0.438192,-0.35079 0.990953,-0.700399 1.58387,-0.92481 0.751187,0.796069 -0.592918,1.11379 -1.18584,1.59214 -0.237403,0.158269 -0.55276,0.284648 -0.673234,0.509059 0.910637,-0.192521 2.01498,-1.7823 2.72837,-0.79725l-0.39331 0.224411c-0.555122,0.316538 -1.22599,0.603548 -1.66182,1.01812l0 -0.00118111z"/><path class="fil0" d="M74.2754 60.9843l0.315357 0.700399 -1.42324 0.125198c0.317719,-0.35079 0.752368,-0.571658 1.10788,-0.825597l0 0z"/><path class="fil0" d="M66.1328 61.3989c1.46222,0.0602367 -0.0791345,1.74923 0.0401578,2.54411 0.236222,-0.222049 0.155907,-0.539768 0.355515,-0.76536 0.196065,-0.539768 0.471264,-1.07954 0.551579,-1.68545 1.26615,0.06378 0.275199,1.27442 0.15945,1.84608 -0.239766,0.507878 -0.395672,1.01812 -0.555122,1.52718l0.711029 -1.40198 0.673234 -1.55671c0.911818,1.52836 -0.553941,3.37207 -0.395672,4.80358l0.791345 -2.67286c0.0401578,0.890558 0.0401578,1.71852 -0.315357,2.51459l-0.475988 1.43151c-0.0377956,0.442917 0.43583,-0.955519 0.633076,-1.24135 0,0.507878 -0.157088,1.08072 -0.316538,1.58978 -0.237403,0.954338 -0.790164,1.81301 -1.46104,2.60908 -0.950795,0.0625989 -2.61026,0.192521 -2.72955,-0.699218 -0.594099,-0.0649611 -1.30513,0.03189 -1.66064,-0.447641 -0.194883,-1.39844 0.711029,-3.05199 1.26497,-4.10082 -0.119292,0.571658 -0.27638,1.17639 -0.235041,1.75041l0.474807 -2.03742c0.0401578,-0.317719 0.0401578,-0.572839 0.235041,-0.858668 0.160631,-0.25512 0.160631,-0.604729 0.475988,-0.76536 -0.120473,1.05119 -0.555122,2.19687 -0.315357,3.27877l0.0755911 -0.70158c0,-0.348428 0.0791345,-0.634257 0.119292,-0.953157 0.236222,-0.890558 0.199608,-2.10002 0.948433,-2.73545l-0.39331 1.81183 -0.278742 1.62167c0.71221,-1.4634 0.434649,-3.52916 1.62285,-4.70555l0 0z"/><path class="fil0" d="M58.3044 62.4477c0.82914,1.36655 0.197246,3.30829 -0.433468,4.6772 -1.34411,0.158269 -2.49096,-0.51024 -3.55869,-0.98859 -0.475988,0.415751 0.474807,0.700399 0.750006,1.05001 -2.3327,0.79725 -5.09886,1.08308 -7.11384,-0.475988 0.27638,-0.413389 0.631895,-0.859849 1.06654,-1.24253 0.475988,0.128741 0.98859,0.320081 1.54253,0.192521 0.788983,-0.192521 0.196065,0.35079 0.0377956,0.636619l-0.788983 1.11379c0.433468,-0.224411 0.947252,-1.24135 1.54017,-1.71734 0.514965,-0.44646 2.09411,-0.89292 0.989772,0.03189 -0.239766,0.348428 -0.635438,0.731108 -0.555122,1.11143 0.555122,-0.986228 1.46458,-2.09765 2.88546,-2.44844l-0.434649 0.636619 -0.630714 0.762998c-0.236222,0.381499 -0.711029,0.731108 -0.670871,1.14332 0.750006,-1.11261 1.61694,-2.44844 3.1205,-3.08506 -0.394491,0.60591 -0.82914,1.24253 -1.10552,1.87915l1.58151 -2.06931c0.711029,-1.01812 0.550398,0.25512 0.0803156,0.700399 -0.239766,0.444098 -0.475988,0.890558 -0.635438,1.36891 0.466539,-0.609454 1.01812,-1.15395 1.39844,-1.80356 0.294097,-0.503154 0.380318,-1.13977 0.934259,-1.47403l0 0z"/><path class="fil0" d="M73.8407 62.5753c0.870479,-0.0625989 1.65828,0.19134 2.29254,0.635438 0.158269,0.699218 -0.43583,1.24253 -0.475988,1.87797 0.198427,0.253939 0.553941,-0.06378 0.753549,-0.160631 0.43583,0.636619 0.630714,1.14568 0.0401578,1.49411 1.50119,0.54213 2.37049,1.81537 2.33033,3.15121 -1.14804,-0.826778 -2.72837,-0.475988 -3.99452,-0.764179 -0.711029,0.380318 -1.02639,1.11379 -1.3819,1.71852 -0.0779534,-0.604729 0,-1.17639 0.118111,-1.78112 0.0413389,-0.0968512 0.119292,-0.19134 0.0791345,-0.285829 -0.434649,0.761817 -0.474807,1.81301 -0.354333,2.67286 -0.237403,-0.192521 -0.355515,-0.44646 -0.475988,-0.700399 -0.120473,-0.256301 -0.120473,-0.54213 -0.120473,-0.859849l0 -0.731108c-1.02639,1.4634 1.06891,2.44844 0.950795,3.75357 -1.06654,-0.285829 -2.25238,-1.01812 -2.60789,-1.90868 0.355515,-1.8449 1.1067,-3.40396 1.6571,-5.05752 -0.315357,0.474807 -0.670871,0.985047 -0.905913,1.49529 -0.0791345,0.253939 -0.198427,0.475988 -0.395672,0.698037 -0.355515,0.47835 -0.157088,-0.475988 -0.119292,-0.667328 -0.0377956,-0.413389 0.15945,-0.794888 0.316538,-1.1445 0.119292,-0.22323 0.553941,-1.08308 0.158269,-0.47835 -0.98859,0.955519 -0.43583,2.35396 -1.14686,3.30947l-0.432287 -1.08426c-0.516146,-0.571658 1.10434,-1.52482 -0.320081,-1.55671 0.395672,-0.73347 1.34647,-1.1445 2.05868,-1.52718 -0.474807,0.03189 -0.910637,0.253939 -1.34529,0.44646 0.237403,-0.76536 1.38544,-1.01812 2.13191,-1.3382 1.06891,-0.571658 -1.30159,0.225592 -1.73623,0.47835 0.315357,-1.05001 2.09411,-1.08308 2.92561,-1.68545l0 0z"/><path class="fil0" d="M73.1675 62.6048l0.237403 0 -2.01498 0.73347c0.0401578,-0.190159 0.157088,-0.349609 0.235041,-0.507878 0.516146,0 1.06654,-0.09567 1.54253,-0.225592l0 0z"/><path class="fil0" d="M33.8011 64.4816l1.06182 -0.667328c0.633076,-0.158269 1.18465,-1.04765 1.85789,-0.636619 -0.948433,0.636619 -2.09529,1.43269 -3.3201,1.71852 -1.50119,1.68663 -4.07129,2.25947 -5.89138,3.65908 0.15945,-0.764179 0.751187,-1.43033 1.46458,-1.97246 0.750006,-0.571658 1.54135,-1.08308 2.41065,-1.55789l3.75594 -1.87679c0.236222,-0.12756 0.631895,-0.60591 0.866936,-0.256301l-1.45985 0.922448c-0.355515,0.23386 -0.832684,0.388586 -1.17993,0.641344 -1.26615,0.927173 -0.582288,0.662604 0.433468,0.0259845l0 0z"/><path class="fil0" d="M59.6485 62.9875c0.315357,0.190159 0.474807,0.509059 0.673234,0.762998 -0.120473,0.28701 0.0779534,0.60591 -0.0803156,0.891739l-0.673234 -0.827959 0.0803156 -0.826778z"/><path class="fil0" d="M43.1236 67.823c-2.29136,0.285829 -3.79491,-1.71852 -5.57248,-2.66931l-0.315357 -0.6378 -0.357877 0.125198c0,1.4008 0.949614,2.8642 2.01616,3.9768 -1.26261,0.19134 -1.69844,1.62403 -2.68703,1.90986 0.0401578,-0.19134 0.631895,-0.698037 0.315357,-0.791345 -0.685045,0.940165 -1.35474,0.942527 -1.54135,0.981504l0.651974 -0.625989c0.474807,-0.506697 0.969693,-1.12324 1.20592,-1.69608 -0.356696,0.0307089 -0.511421,0.47835 -0.751187,0.70158 -0.551579,0.571658 -1.22481,2.00435 -2.01498,1.71616 0.315357,-0.253939 0.672053,-0.539768 0.868117,-0.858668l-1.06654 0.762998c-0.157088,0.09567 -0.277561,0.25512 -0.473626,0.25512l-0.474807 0c0.355515,-0.3189 2.05513,-1.62167 0.986228,-0.986228l-0.471264 0.349609c-0.514965,0.445279 -1.26615,0.890558 -1.77875,0.22323 1.34411,-0.668509 2.09411,-1.7823 2.92325,-2.82994 0.317719,-0.44646 0.990953,-1.46458 -0.0377956,-1.62521 -0.101576,0.145277 -1.31458,0.949614 -2.07639,1.65119 -0.759455,0.705124 -1.06772,1.30985 0.0944889,0.353152 0.503154,-0.412208 0.98859,-0.837408 1.58623,-1.1445 -0.0401578,0.222049 -0.277561,0.41457 -0.434649,0.603548 -1.06654,0.796069 -2.45081,2.57719 -3.91302,1.62167l-0.673234 -0.0602367c0.473626,-0.192521 0.869298,-0.41457 1.30395,-0.6378 1.30513,-0.954338 3.36144,-2.10002 3.55751,-3.56341 1.06891,-0.540949 2.09529,-1.05001 3.16302,-1.58978l0.911818 0.222049c2.33033,-0.507878 4.07011,1.21064 6.24218,1.56025 -0.51024,-0.320081 -1.14568,-0.47835 -1.73742,-0.700399l-1.1882 -0.54213c-0.395672,-0.157088 -0.78662,-0.317719 -1.1445,-0.539768 1.46222,0.222049 2.84884,1.11497 4.3087,1.46222 -0.118111,-0.190159 -0.473626,-0.252758 -0.713391,-0.347247 -0.315357,-0.192521 -0.866936,-0.289372 -1.10434,-0.54213l0.592918 0.126379c1.6193,0.445279 3.32129,0.890558 5.06106,0.955519 -0.395672,0.539768 -1.66419,-0.0649611 -2.33624,0.220868 0.240947,0.192521 0.672053,0.0649611 0.951976,0.160631 0.355515,0.03189 0.670871,0.03189 0.98859,0.125198 -0.98859,0.35079 -2.25474,-0.252758 -3.24333,-0.0602367 0.0401578,0.125198 0.277561,0.0933078 0.43583,0.125198l0.948433 0.09567c0.474807,0.0944889 1.02639,0.12756 1.4634,0.3189 -1.62403,0.0625989 -2.05513,0.317719 -3.4394,0.0625989 -1.66064,-0.381499 -3.71578,-1.39962 -5.29847,-2.32088 -0.39331,1.2071 1.26615,2.06695 2.3327,2.76734 0.395672,0.222049 0.791345,0.475988 1.26497,0.636619 0.277561,0.125198 0.555122,0.28701 0.870479,0.3189 1.97482,0.602367 -2.41065,-0.479531 -1.62167,0.0283467l0.592918 0.160631 0.82914 0.190159z"/><path class="fil0" d="M18.4183 63.4635c1.57915,0.479531 2.80632,1.52954 3.87405,2.61026 -0.55276,0.285829 -0.790164,-0.380318 -1.14568,-0.60591l-0.673234 -0.602367c-0.236222,-0.0944889 -0.43583,-0.509059 -0.711029,-0.445279 0.555122,0.636619 1.58151,1.20946 1.81891,1.94057 -0.356696,-0.00118111 -0.396854,-0.413389 -0.633076,-0.54213l-0.555122 -0.539768c-0.550398,-0.668509 -1.42206,-1.17639 -1.97482,-1.81419l0 -0.00118111z"/><path class="fil0" d="M39.5661 63.656l3.52207 1.4008c-1.26851,-0.22323 -2.37522,-0.796069 -3.55987,-1.21064 -0.0401578,-0.06378 -0.0401578,-0.125198 0.0377956,-0.188978l0 -0.00118111z"/><path class="fil0" d="M18.0226 64.0068c1.14686,0.699218 2.05513,1.68663 2.84648,2.63978l-0.196065 0.03189c-0.950795,-0.827959 -1.85907,-1.65356 -2.88546,-2.35514l0.235041 -0.316538z"/><path class="fil0" d="M59.4879 64.132c0.475988,0.47835 0.833865,1.02166 0.833865,1.65592 0.395672,0.603548 1.06654,1.01694 1.62167,1.52718 0,0.285829 -0.395672,0.507878 -0.279923,0.793707 -0.94607,-0.983866 -1.54017,-2.29018 -2.29136,-3.36971l0.115749 -0.607091z"/><path class="fil0" d="M17.6269 64.4521c1.06891,0.636619 2.09529,1.52718 2.80632,2.44844 -0.471264,0.224411 -0.751187,-0.539768 -1.18465,-0.731108l-1.14568 -0.70158c0.155907,0.38268 0.908275,0.636619 1.18347,1.02048 0.355515,0.253939 0.87166,0.761817 0.239766,0.983866 -0.752368,-0.729927 -1.58387,-1.49293 -2.61026,-1.93939 0.120473,-0.380318 0.43583,-0.761817 0.711029,-1.07954l0 -0.00118111z"/><path class="fil0" d="M39.8046 64.5785c0.98859,0.413389 2.01498,0.86103 3.04372,1.20946 -0.949614,-0.15945 -1.82009,-0.57402 -2.72719,-0.859849 -0.120473,-0.0944889 -0.199608,-0.222049 -0.316538,-0.349609l0 0z"/><path class="fil0" d="M59.3331 65.2139l2.17443 3.11813 -0.277561 0.604729 -2.09647 -2.5453c0,-0.412208 0.0791345,-0.794888 0.199608,-1.17757l0 0z"/><path class="fil0" d="M25.0183 65.2789l0.672053 0.857487 -1.02757 0.859849c0,-0.57402 0.200789,-1.17757 0.355515,-1.71734l0 0z"/><path class="fil0" d="M16.8367 65.5966c0.950795,0.507878 1.97718,1.27324 2.41183,2.16143 -0.0791345,0.128741 -0.157088,0.257482 -0.317719,0.3189 -0.235041,-0.253939 -0.512602,-0.444098 -0.787801,-0.664966l-0.279923 -0.256301c-0.155907,-0.15945 -0.631895,-0.477169 -0.355515,-0.12756 0.355515,0.477169 1.30631,0.923629 1.1882,1.4634l-2.29254 -1.59096c0.11693,-0.444098 0.197246,-0.889377 0.433468,-1.30395l0 0z"/><path class="fil0" d="M37.8275 65.6604c1.4634,0.796069 2.72837,2.00435 4.38901,2.48033l-1.02875 -0.125198c-0.119292,-0.0649611 0.120473,-0.06378 0.0401578,-0.160631 -1.26615,-0.571658 -2.61026,-1.27206 -3.40042,-2.19451l0 0z"/><path class="fil0" d="M42.3358 66.3277l2.8453 0.572839 -0.198427 0.09567c-0.98859,0 -1.81891,-0.317719 -2.64805,-0.668509l0.00118111 0z"/><path class="fil0" d="M59.0568 66.7741c1.89568,2.19451 4.26854,6.52092 8.18274,4.35948 0.115749,0.157088 0.236222,0.347247 0.315357,0.539768 0.316538,0.379137 0.316538,0.953157 0.711029,1.27088 -0.11693,-0.540949 -0.27638,-1.05001 -0.555122,-1.52482 -0.355515,-0.44646 -0.0377956,-0.827959 0.357877,-1.17757 0.277561,0.349609 0.55276,0.794888 0.711029,1.43151 1.02639,2.32207 -0.433468,5.02445 -2.2512,6.77368 -1.77875,0.0968512 -3.75594,0.447641 -5.45674,-0.06378 -0.750006,-1.08072 0.0803156,-2.47915 -0.514965,-3.65672 -0.275199,-0.699218 -0.513784,-1.52836 -1.22363,-2.00435 -0.670871,0.636619 -0.752368,-0.38268 -1.62167,-0.09567 -1.30513,0.732289 -2.41065,1.65474 -3.51971,2.576 -1.50001,0.317719 -3.20199,0.285829 -4.74098,0.0968512 -1.22599,-1.24371 -0.15945,-3.6579 1.4634,-4.07247 0.115749,0.03189 0.155907,-0.0614178 0.115749,-0.125198 -0.0401578,-0.0330711 -0.115749,-0.128741 -0.0401578,-0.193702 0.160631,-0.380318 0.59528,0.479531 0.672053,0.0968512l-0.236222 -0.125198c-0.155907,-0.0980323 -0.194883,-0.257482 -0.315357,-0.351971 -0.43583,-0.447641 -0.751187,-0.922448 -1.14686,-1.39844 -0.197246,-0.28701 -0.472445,-0.511421 -0.592918,-0.827959 1.73978,0.699218 2.57128,2.54411 4.11027,3.49727 0.0803156,-0.190159 -0.315357,-0.317719 -0.395672,-0.507878 -0.39331,-0.38268 -0.748825,-0.731108 -1.14332,-1.11379l-1.46222 -1.55907c1.61694,-0.0307089 2.29018,1.36891 3.35672,2.1638 0.355515,0.03189 -0.395672,-0.604729 -0.630714,-0.826778l-1.22481 -1.17757c2.05513,-0.668509 2.72601,2.03624 4.23074,2.83112 0,-0.317719 -0.555122,-0.603548 -0.713391,-0.921267l-0.910637 -0.954338c-0.236222,-0.41457 -1.34174,-0.986228 -0.907094,-1.33702 1.976,-0.858668 2.53112,2.06695 3.91302,2.79923l-2.53112 -3.17955 1.30513 -0.192521c1.93702,0.6378 2.61026,2.92561 4.03232,4.16814 -0.711029,-1.20946 -1.65828,-2.38585 -2.56892,-3.53034l-0.434649 -0.57402c0.434649,0 0.830321,-0.128741 1.22599,-0.253939 1.34174,1.46458 2.09529,3.37207 3.24097,4.86618 -0.555122,-2.00317 -2.88546,-3.75239 -2.80632,-5.72485l0 0z"/><path class="fil0" d="M21.6994 66.8698c1.54017,0 2.64805,1.11379 3.75475,1.8449l0.315357 0.253939c-1.1067,0.19134 -2.01498,-0.922448 -3.12168,-1.0819l2.25592 1.21064c-0.160631,0 -0.279923,0 -0.395672,0.0625989 -0.277561,0.25512 -0.438192,-0.0944889 -0.713391,-0.19134 -0.555122,-0.253939 -1.14686,-0.604729 -1.69962,-0.764179 0.39331,0.38268 1.1067,0.54213 1.54017,0.89292 0.910637,0.728746 2.52994,0.349609 3.87405,0.664966 -1.22363,0.923629 -2.29018,2.19687 -1.89568,3.50081 -1.06772,-0.35079 -2.09411,-0.732289 -3.12522,-1.14568 0,0.192521 0.320081,0.160631 0.43583,0.285829 0.673234,0.540949 2.80514,0.60591 2.37403,1.49647 -1.34647,-0.477169 -2.80986,-1.30395 -4.0335,-1.68663 0.592918,0.35079 1.26379,0.636619 1.85907,0.922448l1.81891 0.859849c0.355515,0.125198 0.155907,0.475988 0.0366145,0.667328l-3.87287 -2.00435c0.158269,0.19134 0.43583,0.317719 0.670871,0.477169l0.990953 0.57402c0.590556,0.507878 2.09529,0.761817 2.05513,1.49293 -0.948433,-0.634257 -2.21577,-1.0819 -3.4016,-1.39962 -0.82914,-0.794888 -1.06891,-1.77875 -1.34411,-2.73427 -0.471264,0.125198 -0.791345,-0.160631 -1.18465,-0.540949 0.118111,0.351971 0.553941,0.60591 0.673234,0.985047l0.155907 0.571658c-2.37049,-1.20473 -0.630714,-3.43467 1.38426,-4.13271 0.474807,-0.3189 -0.277561,-0.44646 -0.513784,-0.222049 -0.630714,0.220868 0.355515,-0.41457 0.553941,-0.543311l0.55276 -0.316538z"/><path class="fil0" d="M46.7201 67.2501c1.42442,0.38268 1.02875,2.00435 1.22836,2.99176 0.791345,0.158269 0.475988,1.30277 0.27638,1.9075 -0.315357,0.349609 -0.43583,0.891739 -1.06891,0.9567 -0.551579,0.0295278 -2.49096,0.157088 -2.0138,-0.415751 0.27638,-0.28701 0.71221,-0.60591 0.511421,-0.985047 -2.09529,1.0819 -3.08152,3.97562 -5.92682,4.16578 -1.38426,0.128741 -0.673234,-0.699218 0.315357,-0.603548 0.670871,0 1.1067,-0.28701 0.157088,-0.190159l-0.750006 0.0944889 -0.594099 0.0625989c0.0779534,-0.858668 1.89805,-0.475988 2.45317,-1.01694l-0.514965 0.03189 -1.976 0.381499c-0.15945,-0.603548 1.18347,-0.380318 1.66064,-0.602367l1.26379 -0.257482 0.512602 -0.158269c-1.02639,-0.03189 -2.09293,0.3189 -3.16065,0.38268 0.11693,-0.35079 0.394491,-0.732289 0.235041,-1.11379 -0.155907,-0.922448 -0.551579,-2.03624 -1.69726,-2.44844 1.1067,-1.4008 3.39688,-0.796069 4.58508,0.126379 0.670871,-0.73347 2.37049,-0.922448 3.55751,-1.17639 -0.514965,0 -1.06891,0.125198 -1.62049,0.157088 -0.674415,0.0649611 -2.21458,0.859849 -2.17443,0.128741l0.513784 -0.253939 1.58151 -0.35079 1.06891 -0.222049c0.23386,0 0.470082,-0.0330711 0.670871,-0.12756 -1.4634,0.0625989 -2.96577,0.474807 -4.43035,0.761817l1.14804 -0.571658c0.831503,-0.413389 1.81773,-0.47835 2.68821,-0.796069 0,-0.603548 0.748825,-0.729927 1.50001,-0.858668l0 0z"/><path class="fil0" d="M69.134 67.4438c0.475988,1.5886 1.02757,3.17837 1.30749,4.83429l-0.475988 0.474807c-0.119292,-0.157088 -0.235041,-0.413389 -0.514965,-0.253939l-0.155907 0.54213c-0.237403,-1.14686 -0.592918,-2.29254 -0.910637,-3.43585l0.555122 -1.01812 0.236222 0.953157c0.239766,0.891739 0.394491,1.81419 0.790164,2.64097 -0.15945,-1.52718 -0.870479,-3.14766 -0.831503,-4.73744l0 0z"/><path class="fil0" d="M48.7398 68.1726c0.571658,0.157088 1.80474,1.95356 2.25002,2.48152l-0.472445 0.03189c-0.751187,-0.731108 -1.66182,-1.55671 -1.77757,-2.51341l0 0z"/><path class="fil0" d="M49.1354 69.5403c0.39331,0.41457 0.827959,0.827959 1.1445,1.27324l-0.238585 0.0944889c-0.355515,-0.412208 -0.905913,-0.827959 -0.905913,-1.36773l0 0z"/><path class="fil0" d="M74.9073 69.6372c0.633076,0.349609 1.77875,-0.35079 1.65946,0.668509 0,0.602367 0,1.23899 -0.0779534,1.84372l-0.118111 1.14568c-0.0401578,0.220868 -0.0401578,0.41457 -0.0401578,0.668509 0.315357,-1.36773 0.631895,-3.05554 0.43583,-4.29452 0.27638,0 0.751187,0 0.670871,0.317719 0,0.509059 0.0803156,1.01812 0,1.49411 -0.0401578,0.51024 -0.0401578,1.05001 -0.119292,1.56025 -0.115749,0.539768 -0.196065,2.13073 0.0389767,0.793707 0.121655,-0.858668 0.27638,-1.68545 0.316538,-2.54411l0.0389767 -1.43151c0.315357,0.09567 0.59528,0.285829 0.791345,0.509059l-0.590556 4.61224 0.114568 -0.380318 0.673234 -3.02246c0.160631,1.43033 0.198427,2.86183 0.160631,4.29334 -0.0401578,1.17639 -0.238585,2.35514 -0.753549,3.43585 -1.50119,0.0649611 -2.72601,-0.827959 -3.32129,-1.87679 -0.429925,-0.12756 -0.431106,0.348428 -0.78662,0.288191 -0.15945,-0.0330711 -0.279923,-0.128741 -0.398035,-0.256301 -0.315357,-2.16262 1.38426,-4.35594 1.38426,-6.42525 -0.275199,-0.128741 -0.630714,0.35079 -0.790164,0.222049 0.119292,-0.572839 0.315357,-1.14568 0.711029,-1.62167l0 0z"/><path class="fil0" d="M34.4672 77.3356c0.692131,0.140552 2.61734,-1.13505 3.12404,-1.46458 -0.395672,0.825597 -1.62049,1.17639 -2.49096,1.55907 -1.1882,0.348428 -2.2949,0.859849 -3.51853,0.985047 -0.630714,-0.539768 -1.30159,-1.01576 -2.13545,-1.33348 -0.472445,0.0944889 0,0.474807 0.0401578,0.604729 -2.37285,0.0307089 -5.01854,-1.7823 -3.20081,-3.69097 0.237403,0.285829 0.98859,1.23899 0.98859,0.317719 -1.42442,-1.56025 -0.516146,-3.65908 1.58151,-4.48704 0.275199,-0.125198 0.55276,-0.0933078 0.868117,-0.03189 -0.119292,0.0968512 -0.55276,0.0968512 -0.633076,0.35079 1.50474,0.44646 2.61026,1.56025 4.07011,2.10002 0.516146,0.03189 0.200789,-0.413389 0,-0.539768 1.38663,-0.12756 2.92679,-0.700399 4.39019,-0.253939 1.97718,1.68427 -0.633076,4.16578 -2.64805,4.96067l-1.18584 0.604729c1.4634,-0.413389 2.76498,-1.24253 4.14925,-1.81419 0.0803156,0.35079 -0.395672,0.41457 -0.590556,0.636619l-0.948433 0.571658c-0.349609,0.281105 -1.70434,0.674415 -1.86025,0.92481l0 0z"/><path class="fil0" d="M49.3705 70.5596c0.196065,0.126379 0.315357,0.285829 0.43583,0.445279 -0.120473,0.12756 -0.278742,0.222049 -0.43583,0.285829l0 -0.731108z"/><path class="fil0" d="M70.5195 71.7679c0.157088,0.06378 0.474807,0.349609 0.119292,0.413389 -0.0803156,-0.128741 -0.0803156,-0.28701 -0.119292,-0.413389l0 0z"/><path class="fil0" d="M36.168 72.5958l0.235041 0c0.0401578,0.0933078 0,0.157088 -0.0377956,0.222049 -0.788983,0.35079 -1.73978,0.380318 -2.60908,0.412208 0.751187,-0.317719 1.73978,-0.188978 2.41065,-0.634257l0.00118111 0z"/><path class="fil0" d="M71.2305 72.6584c0.830321,0.571658 1.74096,1.37009 2.09647,2.22758l0 0.19134c-0.119292,0 -0.317719,-0.0968512 -0.395672,0.03189 0,0.857487 0,1.87561 -1.02639,2.25829 0.196065,-0.670871 0.711029,-1.36773 0.630714,-2.03624 -0.0779534,-0.06378 -0.15945,-0.03189 -0.238585,0.03189 -0.355515,1.01812 -0.355515,2.12954 -1.34292,2.92679 0.118111,-0.41457 0.315357,-0.827959 0.592918,-1.20828 0.0389767,-0.128741 0.118111,-0.256301 0.0779534,-0.415751 -0.0779534,-0.0307089 -0.194883,-0.0614178 -0.275199,-0.0307089l-0.830321 2.06695c-0.238585,-0.0944889 -0.433468,-0.25512 -0.633076,-0.379137 -0.43583,-0.226773 0.0791345,-0.572839 0.119292,-0.86103 0.155907,-0.668509 0.55276,-0.03189 0.315357,0.349609 0,0.12756 -0.119292,0.284648 0,0.381499 0.355515,-0.35079 0.395672,-0.825597 0.395672,-1.27206 -1.50119,-0.858668 -1.02639,-3.34018 0.513784,-4.26263l0 0z"/><path class="fil0" d="M56.1713 72.9124c0.115749,0 0.275199,0 0.315357,0.0968512 -0.0389767,0.09567 -0.119292,0.15945 -0.199608,0.188978 -0.82914,0.03189 -1.69962,0.0968512 -2.5264,0.0649611l0.390948 -0.0649611 0.675596 -0.0933078c0.473626,-0.03189 0.98859,0.0307089 1.34411,-0.192521l0 0z"/><path class="fil0" d="M58.4615 73.0411c0.279923,0.12756 0.791345,0.157088 0.87166,0.507878l-0.98859 -0.444098 0.11693 -0.06378z"/><path class="fil0" d="M28.2605 73.2632c1.06891,0.507878 2.13545,1.05001 3.12404,1.68545l0 0.160631c-0.0779534,0.0625989 -0.158269,0 -0.238585,0 -0.750006,-0.76536 -2.09529,-1.14568 -2.88546,-1.84608l0 0z"/><path class="fil0" d="M57.6335 73.2632c0.751187,0.03189 1.42324,0.349609 2.01498,0.732289l0.0791345 0.285829c-0.711029,-0.349609 -1.46104,-0.732289 -2.33151,-0.796069l0.237403 -0.222049z"/><path class="fil0" d="M73.2478 73.3588c0.316538,0 0.71221,0.222049 0.394491,0.444098l-0.394491 -0.444098z"/><path class="fil0" d="M35.5763 73.5159c0.115749,-0.0307089 0.196065,0.0330711 0.155907,0.129922l-0.0401578 0.09567c-0.82914,0.190159 -1.69962,0.28701 -2.53112,0.0933078 0.713391,-0.125198 1.70198,0 2.41537,-0.3189l0 0z"/><path class="fil0" d="M57.6335 73.7711c0.711029,0.317719 1.93466,0.381499 2.13427,1.11497 0.0779534,0.0625989 0.196065,0.12756 0.196065,0.22323 -0.830321,-0.44646 -1.65946,-0.98859 -2.60789,-1.24253l0.277561 -0.09567z"/><path class="fil0" d="M53.9166 73.9955c0.15945,-0.03189 0.315357,0.0602367 0.275199,0.190159 -0.78662,0.158269 -1.73742,-0.0330711 -2.52994,-0.0968512l0.356696 -0.0330711 0.673234 0 1.22481 -0.0602367z"/><path class="fil0" d="M28.616 74.5033l3.08506 1.58978 -0.0389767 0.160631c-0.0803156,0.0944889 -0.198427,0.12756 -0.355515,0.0944889 -0.120473,-0.0944889 -0.120473,-0.22323 -0.160631,-0.348428 -0.865755,-0.511421 -1.77757,-0.954338 -2.52994,-1.49647l0 0z"/><path class="fil0" d="M50.7146 74.6002c0.791345,0.0921267 1.58269,0.0625989 2.41065,0.0625989 0.0401578,0 0.0803156,0.0295278 0.0803156,0.06378 0,0.03189 0,0.09567 -0.0401578,0.12756 -0.791345,0 -1.77994,0.03189 -2.45081,-0.253939l0 0z"/><path class="fil0" d="M61.3883 74.6309c0.394491,0.19134 0.750006,0.41457 1.22481,0.47835 0.0413389,0.0307089 0.0791345,0.0625989 0.0791345,0.125198l-0.0779534 0.128741c-0.514965,0 -0.791345,-0.38268 -1.22599,-0.540949 -0.0401578,-0.06378 -0.0803156,-0.129922 0,-0.19134l0 0z"/><path class="fil0" d="M49.5665 74.8222c0.713391,0.126379 1.50356,0.22323 2.21458,0.19134 -0.591737,0.349609 -1.6193,0.06378 -2.21458,-0.19134l0 0z"/><path class="fil0" d="M58.3847 75.1093c0.592918,0.0933078 0.472445,0.507878 -0.0401578,0.636619l-0.948433 0.571658 -0.869298 0.539768c-0.0791345,0.0330711 -0.15945,0.12756 -0.239766,0.190159 1.14686,-0.190159 2.25474,-1.81301 3.28113,-1.17639l-0.275199 0.285829c-0.27638,0.19134 -0.551579,0.35079 -0.831503,0.509059l-1.26379 0.66969 -1.3819 0.793707c1.34174,-0.604729 2.72601,-1.20828 3.91184,-2.03624 0.118111,0.03189 0.236222,0.192521 0.236222,0.288191 0.317719,1.08072 -1.65946,1.43033 -2.45081,2.06576 -1.06536,0.51024 -0.11693,0.22323 0.43583,-0.0944889l1.89687 -0.922448c0.277561,0.859849 -0.868117,1.17875 -1.57915,1.55907 -5.65398,2.82994 -12.2576,0.128741 -16.9986,-2.73545 1.82009,0.571658 3.55751,1.5886 5.41422,2.22521 0.673234,0.22323 1.42206,0.539768 2.09765,0.66969 0.315357,0.03189 0.630714,0.317719 0.905913,0.19134 -2.76498,-0.827959 -5.45555,-2.00435 -8.02211,-3.27758 0.788983,0.0625989 1.6193,0.635438 2.41065,0.922448l2.13427 0.826778c1.34411,0.41457 2.84648,0.921267 4.23074,0.954338 -2.72719,-0.636619 -6.44533,-1.55907 -8.14495,-3.14884 2.88664,0.826778 5.615,2.25829 8.58078,2.73545l-1.22836 -0.381499c-2.37167,-0.764179 -4.78114,-1.55907 -6.99691,-2.63978 5.93036,1.81301 6.76068,2.19332 13.4009,1.49411 0.160631,-0.128741 0.395672,-0.12756 0.475988,-0.317719 -1.50356,-0.253939 1.18465,-1.0193 1.85789,-1.39844l0 0z"/><path class="fil0" d="M28.6963 75.427c1.1882,0.477169 2.33033,1.08072 3.39806,1.71734l0 0.126379c-0.0377956,0 -0.0767723,0.0968512 -0.157088,0.0649611 -0.870479,-0.700399 -2.29254,-1.24253 -3.24097,-1.9075l0 -0.00118111z"/><path class="fil0" d="M61.7036 75.8392c0.514965,0.160631 1.14568,0.03189 1.62167,0.22323 0,0.0944889 -0.0779534,0.19134 -0.198427,0.22323 -0.434649,-0.192521 -0.98859,-0.128741 -1.4634,-0.285829 -0.0401578,-0.0649611 -0.0413389,-0.128741 0.0401578,-0.160631l0 0z"/><path class="fil0" d="M44.144 82.4735c-1.16694,-0.920086 -2.26537,-1.89332 -3.27168,-2.94451l-1.22599 -1.23899 -0.948433 -1.14568c1.97482,1.75041 3.952,3.43585 6.16777,4.96067 -0.475988,-0.571658 -1.38663,-1.04765 -1.9382,-1.62049 4.62523,2.67167 10.1198,5.31146 16.0501,4.54728 0.355515,0 -0.236222,0.35079 0,0.38268 0.986228,-1.24135 1.85671,-2.60908 2.68585,-4.00869l0.751187 -1.8449c0.239766,0.955519 -0.0401578,1.87679 -0.511421,2.79805l-0.59528 1.56143c0.120473,0.09567 -0.115749,0.38268 0.15945,0.317719 0.591737,-1.87915 1.02639,-2.06931 1.65946,-4.32641 0.198427,0.09567 0.157088,0.3189 0.157088,0.475988 0.119292,1.14568 -0.909456,2.22876 -0.869298,3.34255 0.434649,-0.351971 0.673234,-1.21064 0.71221,-1.68545 0.0413389,-0.128741 0.0413389,-0.285829 0.198427,-0.38268 0.395672,2.79805 -1.70316,5.97879 -5.33626,6.5847 -6.99927,0.825597 -13.7966,-2.73782 -17.5915,-7.31699 -1.1067,-1.24017 -2.5701,-2.67167 -2.76616,-4.07247l1.89687 2.29136c2.01616,2.2571 4.30633,4.4209 7.07604,6.07446 1.82009,0.922448 -1.18584,-0.731108 -1.66182,-1.23899 -0.672053,-0.509059 -1.38426,-1.05119 -1.97482,-1.65356 -0.514965,-0.38268 -0.948433,-0.859849 -1.38426,-1.30513l-0.910637 -0.859849c-0.82914,-1.14686 -2.05513,-2.16143 -2.64569,-3.40396 1.95002,2.14136 3.79609,4.39137 6.26934,6.14414 2.9327,2.07994 1.73151,1.05473 -0.152363,-0.432287l0 0z"/><path class="fil0" d="M61.8241 76.8573c0.830321,0.12756 1.7386,0.190159 2.5701,0.09567 0.0389767,0 0.0755911,0.03189 0.0755911,0.06378 0,0.0649611 0,0.12756 -0.0755911,0.190159 -0.910637,0.03189 -1.82009,-0.0307089 -2.65041,-0.253939l0.0803156 -0.09567z"/><path class="fil0" d="M69.61 76.953c0.516146,0.19134 -0.0401578,0.73347 -0.0791345,1.0193 -0.196065,-0.160631 -0.355515,-0.38268 -0.511421,-0.572839 0.275199,-0.03189 0.511421,-0.22323 0.590556,-0.44646l0 0z"/><path class="fil0" d="M66.2887 77.5896c0.120473,0 0.315357,-0.0330711 0.239766,0.128741 -0.0401578,0.0602367 -0.0791345,0.0933078 -0.15945,0.124017 -1.54371,0.28701 -3.32129,0.3189 -4.74689,0.0968512 1.46576,-0.06378 3.20317,0.0649611 4.66657,-0.349609l0 0z"/><path class="fil0" d="M72.8108 78.2262c0.516146,0.09567 1.02993,0.349609 1.58505,0.220868 0.390948,0.415751 0.986228,0.670871 1.57915,0.987409 -0.0791345,0.634257 -0.0401578,1.39962 -0.832684,1.71852 -0.115749,-0.3189 0.474807,-1.05237 -0.0755911,-1.0193 -0.199608,1.0193 -0.395672,2.03506 -0.950795,2.92561 -0.155907,-0.348428 0.0401578,-0.857487 0.0401578,-1.27206 -0.119292,-0.253939 0.275199,-0.794888 -0.196065,-0.825597 -0.0791345,0.509059 -0.119292,1.11143 -0.119292,1.65474 0,0.379137 0.119292,1.30395 -0.27638,0.539768 -0.633076,-1.08308 -0.672053,-2.2264 -0.15945,-3.34136 -0.512602,-0.125198 -0.98859,0.44646 -1.18465,0.798431 -0.0389767,-0.512602 -0.199608,-1.27324 0.27638,-1.75041l-0.0389767 1.20592c0.353152,-0.157088 0.274018,-0.888196 0.353152,-1.27088 0.120473,-0.222049 -0.275199,-0.3189 -0.354333,-0.0944889 -0.751187,0.762998 -0.591737,1.74805 -0.475988,2.63978 -0.590556,-0.190159 -1.06536,-0.668509 -1.3819,-1.0819 0.27638,-0.889377 1.22718,-1.62285 2.21222,-2.03506l0 0z"/><path class="fil0" d="M61.0717 79.275c0.158269,0 0.316538,0 0.43583,0.0968512 -0.0791345,0.571658 -0.474807,1.11261 -0.870479,1.58978l0.434649 -1.68663z"/><path class="fil0" d="M61.8241 79.3388l0.235041 0.0330711c-0.315357,0.411027 -0.315357,0.954338 -0.670871,1.33348 0.119292,0.09567 0.15945,-0.188978 0.315357,-0.157088 -0.395672,1.36773 -1.42206,2.60789 -2.13545,3.87877 -0.434649,-0.188978 -0.987409,-0.0614178 -1.3819,0.0330711 0,-0.126379 0.198427,-0.190159 0.355515,-0.190159 1.14686,-1.62285 2.49096,-3.21262 3.28113,-4.92996l0.00118111 -0.00118111z"/><path class="fil0" d="M76.2915 79.5609c0.354333,0.160631 0.830321,0.160631 0.949614,0.507878l-1.1882 0.415751c0.0803156,-0.3189 0.0803156,-0.636619 0.238585,-0.923629l0 0z"/><path class="fil0" d="M77.9132 80.6404c0.908275,0.225592 1.6193,0.92481 2.01498,1.59332 -0.475988,0.125198 -0.98859,0.3189 -1.30513,0.699218 -0.0791345,0.126379 0.0779534,0.22323 0.158269,0.317719 -0.434649,1.43033 -1.26379,2.76971 -2.33033,3.9768 -1.10906,-0.348428 -2.25474,-1.14568 -2.61026,-2.10002l0.395672 -0.506697c0.120473,0.0602367 0.275199,0.125198 0.394491,0.0602367l0.236222 -0.379137c0.514965,-1.17757 0.514965,-2.99057 2.37403,-3.37207 0.196065,-0.09567 0.432287,-0.224411 0.672053,-0.289372l0 0z"/><path class="fil0" d="M79.8077 83.0912c1.38426,1.52954 0.870479,4.04058 -0.550398,5.56658l-0.0401578 0.349609c0.119292,0.128741 0.275199,0.0968512 0.434649,0.129922 -0.239766,0.794888 -1.62403,1.01694 -2.48978,0.761817 0.155907,-0.509059 0.115749,-1.01576 0.0791345,-1.55671 0.155907,-0.41457 0.196065,-0.859849 0.471264,-1.24135 0.0803156,0.253939 -0.0791345,0.57402 -0.115749,0.826778 0,0.38268 -0.119292,0.729927 -0.15945,1.11261l-0.0401578 0.604729c0.670871,-1.24135 0.236222,-2.86301 1.18702,-4.0394 0.0791345,0.06378 0,0.222049 0,0.317719l-0.197246 1.49411c-0.0791345,0.47835 -0.278742,1.05001 -0.199608,1.46576 0.674415,-1.56025 0.396854,-3.40396 1.26497,-4.93114l0 0.635438c0.0401578,0.859849 -0.275199,1.75159 -0.275199,2.57719 0.556304,-1.24135 0.514965,-2.73782 0.630714,-4.07247l0 -0.00118111z"/></g></svg>