<svg fill="#C82606" xmlns="http://www.w3.org/2000/svg" xmlns:xlink="http://www.w3.org/1999/xlink" version="1.1" x="0px" y="0px" viewBox="0 0 200 200" enable-background="new 0 0 200 200" xml:space="preserve"><path d="M84.698,107.732c-2.794,0.715-6.428,1.046-8.312,3.532c-2.837,3.744,4.349,6.189,6.709,6.646  c4.118,0.795,8.42,0.446,12.587,0.396c2.25-0.027,4.516-0.004,6.74,0.382c3.66,0.611,7.134,2.939,10.182,0.588  c2.12-5.354-1.779-8.363-5.686-10.437C100.18,105.272,92.489,105.76,84.698,107.732z M75.271,81.416  c-1.282-0.531-2.396-0.53-2.915,0.657c-0.54,1.237,1.886,4.71,2.56,5.675c1.197,1.711,2.385,3.41,3.539,5.151  c2.301,3.473,5.692,7.408,9.869,8.597c1.102,0.313,2.224,0.358,3.344,0.112c0.708-0.156,2.996-0.744,3.358-1.412  c1.663-3.056,1.029-7.172-1.022-8.819c-1.027-0.824-2.678-0.869-3.899-1.253c-1.588-0.5-3.074-1.245-4.494-2.108  C82.131,85.899,79.067,82.987,75.271,81.416z M114.093,104.831c6.013-1.427,8.7-10.475,9.55-15.791  c0.335-2.094,0.494-4.268,0.429-6.39c-1.903,2.112-5.401,4.812-9.772,8.131c-2.568,1.958-8.843,5.021-9.469,7.599  c-0.853,3.507,3.059,5.856,5.848,6.451C111.92,105.097,113.056,105.077,114.093,104.831z M8.615,78.379  c21.307,3.559,40.122,3.567,55.836-0.975c-10.189-12.642-0.248-32.324,10.723-38.8C41.566,35.389,20.468,50.226,8.615,78.379z   M22.998,162.541c37.407,52.269,151.771,40.106,159.028-15.621c-18.939,37.809-82.18,27.621-99.989-3.319  c6.762,0.719,12.425-0.163,15.667-4.564c-25.145-11.869-44.69-27.621-58.096-47.612C25.667,110.526-3.988,130.989,3.775,166.47  C7.784,161.657,16.255,163.344,22.998,162.541z M197.5,38.559c-10.515-4.611-11.659,4.258-22.182-0.34  C128.38-19.068,12.653-0.527,6.604,66.411c22.399-46.854,84.306-43.271,109.699-9.261c-5.454,2.762-14.026,0.975-16.354,8.17  c30.481,6.073,38.907,27.388,59.401,40.425C177.377,90.936,188.595,66.457,197.5,38.559z M133.285,126.981  c6.963,8.898-2.398,32.557-10.128,35.172c33.849,5.122,54.077-9.471,62.915-40.448C170.073,125.783,143.18,114.085,133.285,126.981z  "/></svg>