<svg fill="#570606" xmlns="http://www.w3.org/2000/svg" xmlns:xlink="http://www.w3.org/1999/xlink" version="1.1" x="0px" y="0px" viewBox="0 0 100 100" style="enable-background:new 0 0 100 100;" xml:space="preserve"><g><path d="M27.6,26c0,0,0-0.8-0.6-1.7c-0.6-0.8-2-1.5-3-2.5c-1-1-1.1-0.3-1.1-0.3s-0.4,0.5,0.2,1.4c0.6,0.9,2,2.6,2.2,3.8   c0.2,1.3,1.5,3.6,3.2,4.3l0,0v0l0,0L27.6,26z"></path><path d="M27.8,15.9c0,0,0.9-1.9,2.6-3.4l0.7-0.6c0,0-3.7,0.2-5.1-1.8c-1.4-2.1-0.5-6.4-0.8-6.9c-0.3-0.4-3.4,3.5-2.2,7.6   C23.9,14.2,26.8,16.1,27.8,15.9z"></path><path d="M67.8,83.8c-1.4-1.4-6.2-6.2-6.2-6.2s-0.8-2.6-1-4.9c-1.5,0.2-6.1,0.3-6.3-5c-0.1-3,0.6-5.1,1.5-6.4   c-0.3-1.7-1.7-10.7-2.7-13.4c0,0,2.8,3.9,4.9,7.5c1.3,2.3-0.2,5-1.2,7.6c0,0,0,0,0,0c-0.2,0.5-1.2,2.9-0.9,4.6   c0.4,1.8,1.3,4.9,4.8,3.4c0,0,0-0.1,0-0.1c0.6-0.3,1-1,0.9-2.4c0,0-0.2-1.7,1-4.7c1.2-3,3.1-7.8,0.3-12.5c-1.6-2.7-4.4-6.4-5.8-9.1   c-1.4-2.7-4.1-4.6-7.1-5c-2.5-0.3-4.8-0.4-5.3-0.8c-0.8-0.7,1.7-3.3,1.7-3.3c0.5-0.7,0.9-1.5,1.3-2.3l1.4-0.5   c2.9-1.3,3.4-5.4,3.7-7c0.3-1.6,1.2-4,1-5.1c-0.2-1.1-0.6-0.8-0.7-0.4c-0.1,0.3-2.2,3-3.3,3.4c-0.1,0-0.1,0.1-0.2,0.1   c-0.2-1.2-0.4-2.3-0.5-2.8c-0.3-1.2-0.8-2.6-1.6-3.8c0.6-0.6,1.4-1.6,2.5-3.3c2.2-3.5-1.3-7.5-2.5-8.6c-1.3-1.1-1.2-0.3-1.2-0.3   s0.9,1.6,1.4,4.2c0.4,1.8-2,3.8-3.7,5c-1.3-0.6-3-1-5.2-1.1c-4-0.2-8,2.6-9.4,5.3c-1.2,2.3-1.5,5-1,7.5c0.2,1,0.4,1.8,0.5,2.3   c0,0.6,0.1,1.1,0.2,1.7c0.4,4.8,2.7,8.7,6.8,9.9l-0.1,0l0.6,4.2l-1.6-2.8c0,0-1.5,0.1-3.7,1.7c0,0-3.5,1.5-4,7.4   c-0.6,5.9-3,10.7-3,10.7s-6.2,3.8-6.9,5.4c-0.7,1.6-1.2,3.6,0,5.4c1.3,1.9,4.2,0.7,5.4-0.7c1.2-1.4,0.4-2.4,0.4-2.4   s4.5-2.8,6.4-3.8c1.9-1,3.5-9.9,3.5-9.9l0.5-1.8l1.9,6.4c0,0,1.3,5.4,2.7,8.3c0.5,1.1-0.2,2.4-3.5,5.1c-3.2,2.7-8,10.7-6,13.6   c2.5,3.6,9.4,3.3,14.8,2.2c0,0,0.6-0.5,2.6,2.2c2,2.7,0.4,7.4,3.2,8.7c0,0,1.2,1.6,2.6,0.2c1.4-1.4-0.3-6.3-0.3-7.8   c0.1-1.5,0-7.4-2.3-8.3C46.5,80.1,41,79,41,79s-3.3,2-5,2.6l1.2-1.5c2.5-2.9,5.6-5.3,9.1-6.8c0,0,0.1,0,0.1,0   c2.5-1.1,7.5,8.7,12.4,10c4.9,1.3,5.2,4.1,5.2,4.1s1.1,4.9,1.2,6.4c0.1,1.5,1.2,4.2,2.8,4.1c1.5-0.1,4.5-1.3,3.2-5.7   C69.9,87.8,69.2,85.2,67.8,83.8z M30.4,26.2c0,0,0.7-1,1.6-1.1c0.9-0.1,2,0.7,2,0.7C32.3,28,30.4,26.2,30.4,26.2z M39,25.7   c0,0,0.7-1,1.6-1.1c0.9-0.1,2,0.7,2,0.7C40.9,27.4,39,25.7,39,25.7z"></path><path d="M52.9,27.9c-0.6,2.7-4.3,4.4-4.3,4.4l-0.6,3c4.3-0.2,7.2,2.3,7.2,2.3c5.7-4.6,8.8,4.2,8.8,4.2c-0.4-4.6,3.1-11.3,7.1-11.7   c4-0.4,9.9,3.8,9.9,3.8s-1.6-1.9-3-7.6c-1.4-5.7,9.3-13.6,9.3-13.6S74,14.8,67.6,17.8L63.9,16c0.1,1.4,0.7,2.9,0.9,3.6   c-0.2,0.2-0.3,0.4-0.4,0.6C62.2,24.5,52.9,27.9,52.9,27.9z"></path><path d="M90.9,61.8c-1.2,3.8-7,7.4-7,7.4c1.7-0.1,2.7,1.5,3,2c-1.8,2.4-4.3,4.8-7,4.2c-4.4-0.9-4.2-2.4-7.7-7c-1.6-2-3.6-3.6-6-4.5   c-0.7-0.3-1.4-0.4-2-0.4l-1,2.9c0,0,3.4,0.5,5.9,3c3.6,3.6,4.9,8.3,10.4,8.9c4.8,0.5,7.4-3.6,8.8-7c2.1,0.2,3.1,1.6,3.1,1.6   C92.4,68.7,90.9,61.8,90.9,61.8z"></path><path d="M23.8,42.7l0.6,2l1.8-1.2c0,0,2.2-5.1,6.8-5.7l-2.7-2.5c0,0-4.3-1.5-5-5.9c0,0-1.7,0.3-4.9-3.3c-3.2-3.6-12.1-5-12.1-5   s7.1,5.2,7.7,11.2c0.5,6.1-0.8,7.6-0.8,7.6S21,37.8,23.8,42.7z"></path></g></svg>