<svg fill="#C82606" xmlns="http://www.w3.org/2000/svg" xmlns:xlink="http://www.w3.org/1999/xlink" version="1.1" x="0px" y="0px" viewBox="0 0 100 100" enable-background="new 0 0 100 100" xml:space="preserve"><g><path d="M61.998,38.059l-0.155,0.058l-0.165-0.015c-1.571-0.146-4.545-1.408-4.545-5.147v-0.644l0.64-0.07   c0.107-0.013,1.288-0.166,2.805-0.908c-1.157-0.674-2.472-1.058-3.867-1.058c-2.854,0-5.377,1.594-6.89,4.026   c-1.514-2.433-4.036-4.026-6.89-4.026c-1.388,0-2.696,0.379-3.849,1.046c1.56,0.766,2.759,0.916,2.786,0.919l0.639,0.07v0.644   c0,3.739-2.973,5.001-4.544,5.147l-0.165,0.015l-0.155-0.058c-1.038-0.391-1.899-0.916-2.621-1.527   c-0.306,0.972-0.475,2.018-0.475,3.107c0,2.044,0.587,3.936,1.582,5.475c0,0,4.786,7.894,13.692,11.898   c8.907-4.004,13.692-11.898,13.692-11.898c0.995-1.539,1.582-3.431,1.582-5.475c0-1.09-0.168-2.135-0.476-3.108   C63.896,37.143,63.035,37.667,61.998,38.059z"></path><path d="M37.896,37.442c0,0,3.892-0.36,3.892-4.432c0,0-6.467-0.718-9.341-8.083C32.446,24.927,30.59,34.688,37.896,37.442z"></path><path d="M61.744,37.442c7.306-2.755,5.449-12.515,5.449-12.515c-2.874,7.365-9.342,8.083-9.342,8.083   C57.852,37.083,61.744,37.442,61.744,37.442z"></path><path d="M56.71,70.625c0.086-1.641-0.254-2.922-1.036-3.893c-1.595-1.979-4.689-2.256-7.965-2.551   c-2.894-0.26-5.885-0.529-8.042-1.955c-1.121-0.74-1.669-1.416-1.546-1.904c0.359-1.418,5.316-2.475,8.721-2.773   c0.297-0.025,0.516-0.287,0.49-0.584c-0.026-0.295-0.286-0.518-0.583-0.49c-1.497,0.131-8.997,0.918-9.672,3.582   c-0.256,1.01,0.397,2.014,1.996,3.07c2.384,1.574,5.513,1.855,8.539,2.129c3.042,0.273,5.915,0.531,7.222,2.154   c0.566,0.703,0.83,1.654,0.807,2.883c-1.014-1.055-2.551-1.725-3.887-2.148c1.589,2.043,3.027,4.344,3.428,6.928   c1.535-2.137,3.749-3.686,6.117-4.723C59.979,70.084,58.073,70.066,56.71,70.625z"></path><path d="M32.432,41.837c0,0-8.342-3.701-12.294-10.652c0,0-3.234,10.174-16.408,19.636c0,0,11.576-6.947,14.351-0.6   c0,0,5.77-6.108,9.003-0.599c0,0,2.04-5.509,5.348-5.509S32.981,42.101,32.432,41.837z M19.917,42.148   c-0.053,0.439-0.097,0.877-0.213,1.282c-0.104,0.404-0.224,0.777-0.343,1.093c-0.121,0.315-0.237,0.572-0.328,0.75   c-0.09,0.179-0.153,0.277-0.153,0.277s-0.029-0.118-0.058-0.317c-0.031-0.2-0.061-0.481-0.077-0.814   c-0.016-0.333-0.014-0.714,0.011-1.119c0.015-0.202,0.029-0.41,0.038-0.624c0.01-0.213,0.031-0.428,0.05-0.644   c0.046-0.43,0.112-0.858,0.193-1.258c0.067-0.401,0.149-0.774,0.238-1.095c0.091-0.32,0.181-0.59,0.248-0.779   c0.067-0.189,0.118-0.297,0.118-0.297s0.042,0.111,0.095,0.305c0.057,0.192,0.114,0.469,0.161,0.803   c0.045,0.333,0.08,0.723,0.091,1.14C19.985,41.267,19.961,41.708,19.917,42.148z M26.229,44.413c0,0-0.081-0.086-0.2-0.241   c-0.121-0.153-0.279-0.375-0.448-0.643c-0.085-0.134-0.162-0.283-0.269-0.43c-0.1-0.15-0.2-0.309-0.298-0.476   c-0.1-0.165-0.191-0.341-0.292-0.515c-0.109-0.169-0.209-0.347-0.312-0.523c-0.099-0.179-0.188-0.362-0.294-0.533   c-0.103-0.172-0.198-0.348-0.287-0.519c-0.085-0.175-0.183-0.332-0.265-0.492c-0.081-0.161-0.158-0.313-0.229-0.453   c-0.145-0.281-0.254-0.529-0.336-0.702c-0.079-0.176-0.125-0.283-0.125-0.283s0.109,0.038,0.278,0.136   c0.083,0.05,0.195,0.105,0.301,0.187c0.11,0.078,0.235,0.167,0.365,0.271c0.132,0.103,0.257,0.228,0.393,0.36   c0.132,0.134,0.279,0.273,0.403,0.436c0.129,0.16,0.259,0.328,0.384,0.503c0.134,0.171,0.235,0.366,0.346,0.555   c0.104,0.192,0.21,0.383,0.305,0.577c0.094,0.193,0.16,0.397,0.23,0.59c0.068,0.194,0.127,0.383,0.18,0.563   c0.059,0.179,0.079,0.36,0.104,0.523c0.044,0.33,0.064,0.605,0.068,0.8C26.238,44.3,26.229,44.413,26.229,44.413z"></path><path d="M79.861,31.185c-3.951,6.952-12.294,10.652-12.294,10.652c-0.55,0.264-3.308,2.276,0,2.276s5.348,5.509,5.348,5.509   c3.234-5.509,9.003,0.599,9.003,0.599c2.775-6.347,14.352,0.6,14.352,0.6C83.096,41.359,79.861,31.185,79.861,31.185z M77,38.887   c-0.083,0.173-0.192,0.421-0.337,0.702c-0.071,0.14-0.147,0.292-0.229,0.453c-0.081,0.16-0.179,0.316-0.264,0.492   c-0.089,0.171-0.184,0.347-0.286,0.519c-0.106,0.171-0.195,0.354-0.295,0.533c-0.102,0.177-0.202,0.354-0.312,0.523   c-0.103,0.174-0.192,0.35-0.293,0.515c-0.098,0.167-0.199,0.325-0.298,0.476c-0.106,0.146-0.183,0.296-0.269,0.43   c-0.17,0.268-0.327,0.489-0.447,0.643c-0.119,0.155-0.2,0.241-0.2,0.241s-0.01-0.113-0.004-0.308c0.004-0.195,0.023-0.47,0.068-0.8   c0.025-0.163,0.046-0.344,0.104-0.523c0.054-0.18,0.111-0.37,0.181-0.563c0.07-0.192,0.135-0.396,0.229-0.59   c0.095-0.194,0.2-0.385,0.305-0.577c0.111-0.189,0.213-0.384,0.347-0.555c0.125-0.175,0.256-0.343,0.385-0.503   c0.123-0.163,0.271-0.302,0.402-0.436c0.137-0.132,0.262-0.258,0.392-0.36c0.131-0.105,0.256-0.193,0.366-0.271   c0.104-0.082,0.218-0.137,0.301-0.187c0.169-0.098,0.278-0.136,0.278-0.136S77.078,38.711,77,38.887z M81.254,44.42   c-0.017,0.333-0.047,0.614-0.077,0.814c-0.029,0.199-0.059,0.317-0.059,0.317s-0.063-0.099-0.152-0.277   c-0.091-0.178-0.208-0.435-0.328-0.75c-0.119-0.316-0.238-0.689-0.343-1.093c-0.116-0.404-0.16-0.843-0.213-1.282   c-0.044-0.44-0.068-0.881-0.07-1.297c0.01-0.417,0.045-0.808,0.091-1.14c0.046-0.334,0.104-0.61,0.16-0.803   c0.053-0.194,0.096-0.305,0.096-0.305s0.05,0.107,0.117,0.297c0.066,0.189,0.155,0.459,0.248,0.779   c0.089,0.321,0.171,0.694,0.237,1.095c0.081,0.4,0.146,0.828,0.192,1.258c0.02,0.215,0.041,0.43,0.05,0.644   c0.01,0.214,0.023,0.422,0.039,0.624C81.268,43.706,81.269,44.087,81.254,44.42z"></path></g></svg>