<svg xmlns="http://www.w3.org/2000/svg" viewBox="-1 0 53 66" x="0px" y="0px"><path fill="#550000" d="M74.67989,31.07334c-.20935-.50946-.496-.98822-.69018-1.50262a32.762,32.762,0,0,0-4.98688-8.39411C66.542,18.0015,63.76992,15.06809,61.14315,12.021a19.26258,19.26258,0,0,0-7.68579-5.4469,11.40715,11.40715,0,0,0-8.25714-.32763c-1.0813.39251-2.139.86126-3.2395,1.18725a26.39919,26.39919,0,0,1-9.57758,1.305c-1.0921.13641-3.15918.27276-5.17065.68206a3.80662,3.80662,0,0,0-3.06824,3.51453,12.79136,12.79136,0,0,0,.28711,5.24854c.3482,1.20727.71429,2.41156,1.00238,3.63366a40.6796,40.6796,0,0,1,1.29931,11.37488A92.616,92.616,0,0,1,25.365,43.35642c-.47088,2.87842-1.20239,5.71509-1.64648,8.59674a13.97721,13.97721,0,0,0,1.79937,10.172,3.24546,3.24546,0,0,1,.511,2.24445,4.40065,4.40065,0,0,0,.31073,3.06982,17.80275,17.80275,0,0,0,1.42255,2.483c1.9718,2.80707,1.95123,5.94208,1.56836,9.13666-.11365.94794-.35443,1.88013-.52222,2.8222a5.82486,5.82486,0,0,0,1.03564,4.43311c.74988,1.1037,2.59412,2.00122,3.50086,1.56488A6.40024,6.40024,0,0,0,36.324,85.64176a8.49663,8.49663,0,0,0,.99218-7.36645c-.33032-1-.62542-2.016-.85626-3.04273a4.1636,4.1636,0,0,1-.00549-1.48321c.09466-.64557.52167-1.25238,1.13837-1.23047a2.24176,2.24176,0,0,1,1.45025.847,6.15148,6.15148,0,0,1,.6192,1.67536c.21161.57135.43964,1.13788,1.11945,1.3219a2.248,2.248,0,0,0,2.95764-2.08124,4.35114,4.35114,0,0,1,.02423-.45172c.1659-.8172.7663-1.06031,1.42963-.586a1.93791,1.93791,0,0,1,.83227,2.356c-.29724,1.06494-.69256,2.10705-.92065,3.18548a2.83907,2.83907,0,0,0,1.37524,2.95905,2.50332,2.50332,0,0,0,2.94837-.34381,3.3798,3.3798,0,0,0,1.34076-2.11316,7.06865,7.06865,0,0,0-.37177-4.13849,7.04128,7.04128,0,0,1-.86706-3.62518,1.99962,1.99962,0,0,1,.61413-1.27466,9.88861,9.88861,0,0,1,3.20441-1.61432c4.66064-1.11151,8.59021-3.65662,12.25244-6.60474A45.25731,45.25731,0,0,0,70.226,57.48808a20.42257,20.42257,0,0,0,5.06928-9.131c.42615-1.75232.71631-3.54162.99036-5.32611A22.13574,22.13574,0,0,0,74.67989,31.07334ZM26.55105,19.20469a2.85727,2.85727,0,0,1,1.59619-3.74542,10.11047,10.11047,0,0,1,5.54724-.87061c-.54895,2.77643-1.07062,5.37329-2.7912,7.52808a1.55871,1.55871,0,0,1-2.71643-.04572A16.88424,16.88424,0,0,1,26.55105,19.20469Zm13.88818-1.0221A1.09,1.09,0,0,1,41.793,17.3021c.05347.08637.15485.17316.14844.251a9.10757,9.10757,0,0,1-2.51715,5.80878c-1.08441,1.10949-1.95117,1.05749-2.84619-.23792a16.19224,16.19224,0,0,1-1.60474-3.20471,1.4997,1.4997,0,0,1,.37195-1.167c.12927-.16388.62842-.11506.93127-.04157a2.46184,2.46184,0,0,1,.93958.46906,1.511,1.511,0,0,0,1.78937.15124l-.00281.00494A1.58227,1.58227,0,0,0,40.43923,18.18259Zm8.47949,2.51581a1.36,1.36,0,0,1-2.50982.1482c-.60871-.86329-1.177-1.75495-1.97718-2.9549.85126,0,1.3938-.16156,1.742.03a2.894,2.894,0,0,0,3.28094-.0011A4.13852,4.13852,0,0,1,48.91872,20.6984ZM40.49276,66.052c.45483-2.61444.84784-5.2464,1.46674-7.8233a2.393,2.393,0,0,1,4.27044-1.07587,12.5948,12.5948,0,0,1,2.98786,6.28406,21.03228,21.03228,0,0,1-8.52308,3.65039A3.25544,3.25544,0,0,1,40.49276,66.052Zm7.44293-8.77069a2.58,2.58,0,0,1,1.18268-3.47174A2.76773,2.76773,0,0,1,52.76205,55.012a20.39409,20.39409,0,0,1,1.28387,2.55066c.55213,1.23779,1.05731,2.4967,1.575,3.7497.14624.354.26618.71881.40821,1.10577-1.9029.2345-3.67792.45331-5.59363.68939C49.61745,61.21922,48.70254,59.27872,47.93569,57.28135Zm7.23993.43329c-.54065-1.23731-1.17535-2.43793-1.64172-3.7016a4.7255,4.7255,0,0,1-.30988-2.19629,2.76135,2.76135,0,0,1,3.4552-2.0575c2.50177.637,4.69129,1.777,5.83606,4.30591.454,1.00281,1.03107,1.95447,1.42725,2.97772.42206,1.09.28717,1.37122-.7442,1.92823-1.762.9516-3.54523,1.86426-5.32727,2.77813a5.45877,5.45877,0,0,1-.86091.2757C56.38747,60.55875,55.79458,59.131,55.17562,57.71464Zm8.30945-5.178c-.70368-1.599-1.60065-3.113-2.47254-4.778a3.34381,3.34381,0,0,0,.35315-3.42492c-.134-.28858.041-.72064.1056-1.44385.74969.57562,1.24566.94275,1.726,1.32935a13.6879,13.6879,0,0,0,1.268,1.05676,1.74541,1.74541,0,0,0,2.50306-.81818c.32843-.68329.72741-.76123,1.313-.49737a6.37978,6.37978,0,0,1,1.04834.5874c.5691.40027,1.11151.83832,1.85639,1.40649-.28968,1.56525-.57636,3.1377-.87659,4.70752a1.52505,1.52505,0,0,1-.22662.5564c-1.20874,1.78058-2.41095,3.56616-3.65674,5.32068a7.0026,7.0026,0,0,1-1.11218,1.00689C64.6791,55.78025,64.17983,54.11539,63.48507,52.5366Zm7.62427-7.79779c-.51148-.32569-.91046-.61493-1.34088-.8454a10.51724,10.51724,0,0,0-1.89338-.89911,1.16067,1.16067,0,0,0-1.56463.76276c-.5185,1.261-.89856,1.30688-1.98114.48462a21.83426,21.83426,0,0,0-2.09674-1.46894c-.29724-.17492-.86719-.2846-1.06775-.12176-.23554.19128-.27387.71136-.2724,1.08838.00207.54754.17212,1.09533.16589,1.64184a10.41591,10.41591,0,0,1-.26843,1.57459,6.1229,6.1229,0,0,1-2.52045-2.48822,13.55078,13.55078,0,0,1-1.47186-3.93317,2.79371,2.79371,0,0,1,3.04407-3.50574,14.59123,14.59123,0,0,1,10.971,5.81079A1.71234,1.71234,0,0,1,71.10934,44.73881ZM56.95974,16.93168a9.90015,9.90015,0,0,1-.55164,2.47912c-.45861,1.106-1.235,1.23908-2.30761.71094a5.7209,5.7209,0,0,1-2.28717-2.71136,30.5133,30.5133,0,0,1-1.23182-2.89722c-.41192-.96191-.84344-1.91547-1.33789-3.03455a8.14689,8.14689,0,0,1,3.82758,1.04822A26.75784,26.75784,0,0,1,55.72774,14.23,2.60975,2.60975,0,0,1,56.95974,16.93168Zm-7.35169-1.25043c.03449,1.65058-1.06152,2.46008-2.58428,1.91968a5.6965,5.6965,0,0,0-2.04755-.37824.943.943,0,0,1-1.12811-.88964c-.09845-.49048-.23755-.97333-.32306-1.4657-.06781-.39038-.08179-.79-.13227-1.31726,1.64527-.5196,2.75367-1.89441,4.52253-1.96881C48.70449,12.86741,49.57461,14.079,49.60805,15.68125Zm-8.63037.93933a2.85751,2.85751,0,0,0-.9085.92792c-.38624.56036-.704,1.16791-1.04883,1.75678a9.31036,9.31036,0,0,1-1.65625-.81678c-.75788-.57171-1.48072-1.05182-2.51288-.528a6.77853,6.77853,0,0,1-.31952-3.44623c2.53644-.1424,5.01178-.28143,7.49445-.42084C42.43258,15.59214,42.26119,15.94071,40.97768,16.62058ZM34.92135,48.81016a5.16177,5.16177,0,0,1,3.59735.81231,2.16842,2.16842,0,0,1,.92395,2.51539c-.41583,1.69683-.99762,3.355-1.55389,5.01471-.39612,1.18182-.81678,2.36029-1.318,3.5a6.11333,6.11333,0,0,1-1.18249,1.85217,1.55372,1.55372,0,0,1-2.06348.28277,3.92026,3.92026,0,0,1-.80768-1.37909c.13922-.7398.25366-1.17913.29846-1.62548a11.42874,11.42874,0,0,0,.101-1.94342,2.20981,2.20981,0,0,0-1.99018-2.279c-.3396-.085-.696-.10272-1.03552-.18792-.9259-.23249-1.33783-.84607-.888-1.64972C30.335,51.34293,32.06765,49.34538,34.92135,48.81016ZM28.042,55.01524a2.90379,2.90379,0,0,0,2.4314,1.23083c1.18646.06995,1.88409,1.18347,1.74738,2.56238-.06922.69836-.27417,1.38214-.37836,2.07837-.22888,1.52954.04022,2.24725.9884,2.74621a2.65441,2.65441,0,0,0,3.19617-.55072,12.68947,12.68947,0,0,0,1.40533-2.27557,6.34112,6.34112,0,0,0,.31079-.83118c.43049,2.37647.81806,4.51587,1.26026,6.957a7.90165,7.90165,0,0,1-1.70215-.23266,14.08284,14.08284,0,0,1-2.307-1.11292,3.73711,3.73711,0,0,0-3.13134-.68017A1.76119,1.76119,0,0,1,30.62,64.5554a3.6882,3.6882,0,0,0-2.66364-.83252.96.96,0,0,1-1.11438-.80255,10.27767,10.27767,0,0,1-.42083-2.21167A9.58676,9.58676,0,0,1,28.042,55.01524ZM57.78323,65.83036a4.41643,4.41643,0,0,1-1.64039.093c-2.43035-.431-4.30926.765-6.09649,2.0874a3.80341,3.80341,0,0,0-1.46948,3.76782,17.59793,17.59793,0,0,0,1.10626,4.04779,4.54593,4.54593,0,0,1,.15954,3.50544,3.142,3.142,0,0,1-.50659.90692,1.99844,1.99844,0,0,1-2.293.6709,2.30224,2.30224,0,0,1-.93054-2.49872c.26428-.81177.5849-1.606.828-2.42365a3.30544,3.30544,0,0,0-1.91076-3.95477,1.6797,1.6797,0,0,0-2.07691,1.01617,4.12429,4.12429,0,0,0-.09277.747c-.15607,1.45331-.16388,1.4607-1.8689,1.59949-.2301-.56274-.46185-1.16193-.71991-1.74957a5.24275,5.24275,0,0,0-.61071-1.1991,2.33,2.33,0,0,0-2.37214-1.01038,2.26974,2.26974,0,0,0-1.7077,1.91871,5.0877,5.0877,0,0,0-.03882,1.93243,19.7016,19.7016,0,0,0,.93872,3.33362,6.73415,6.73415,0,0,1-.569,5.80389A5.17521,5.17521,0,0,1,33.498,86.60764a2.09169,2.09169,0,0,1-2.71662-.982,6.16072,6.16072,0,0,1-.8009-2.535,16.0628,16.0628,0,0,1,.30164-3.75262,18.52288,18.52288,0,0,0,.17614-5.54938,9.90907,9.90907,0,0,0-1.82568-4.40729,18.834,18.834,0,0,1-1.32977-2.17974,12.10883,12.10883,0,0,1-.572-1.88648c1.665-.7854,2.45392-.71783,3.48626.31909a2.84087,2.84087,0,0,0,2.461.87879,3.90128,3.90128,0,0,1,3.0127.93982,4.78922,4.78922,0,0,0,3.64068,1.00525A28.1512,28.1512,0,0,0,48.1495,65.582a14.90763,14.90763,0,0,1,5.80194-2.0011,4.29049,4.29049,0,0,1,2.61761.48657c.37043.22839.8631.25409,1.24573.46893a.9432.9432,0,0,1,.4541.67139A.82158.82158,0,0,1,57.78323,65.83036Zm17.6101-22.17023a27.16215,27.16215,0,0,1-3.8,10.55127,29.17943,29.17943,0,0,1-7.785,8.12165c-1.32349.98651-2.75262,1.83129-4.33734,2.87439a2.73283,2.73283,0,0,0-2.21875-2.1106c.96887-.47382,1.94958-.92517,2.9043-1.426a28.36172,28.36172,0,0,0,6.67682-4.34619,16.98565,16.98565,0,0,0,5.131-9.36541c.13049-.69227.26355-1.38685.45154-2.06482a9.26441,9.26441,0,0,0,.07586-3.72419,26.84455,26.84455,0,0,0-1.393-6.61737,38.05374,38.05374,0,0,0-5.08649-9.712c-1.54529-1.97815-2.81793-4.16687-4.28839-6.20673-1.057-1.46612-2.238-2.84283-3.366-4.25763-.39734-.49841-.70129-1.2185-1.22-1.44745-2.24786-.99194-4.09656-2.78-6.55115-3.32428a5.834,5.834,0,0,0-4.66137.69568,14.86547,14.86547,0,0,1-9.03766,2.35681,27.69067,27.69067,0,0,0-8.5304.76355,3.59274,3.59274,0,0,0-2.61981,2.26374,2.30075,2.30075,0,0,1-.30322.49261c-.01728.02509-.08838.01325-.33472.04108a31.56144,31.56144,0,0,1,.03021-3.83484,3.85246,3.85246,0,0,1,3.45313-3.29816,27.84049,27.84049,0,0,1,4.65466-.35193,31.40321,31.40321,0,0,0,9.1919-1.47644A26.34821,26.34821,0,0,0,45.0837,7.235c2.84479-1.1297,5.619-.59582,8.39874.30127,2.83667.91541,4.88739,2.91974,6.963,4.89746a79.60367,79.60367,0,0,1,8.31311,9.75415A39.8503,39.8503,0,0,1,72.403,28.25a31.4595,31.4595,0,0,1,2.35766,5.86114A23.4397,23.4397,0,0,1,75.39333,43.66013Z" transform="translate(-23.47507 -5.61928)"/><path fill="#550000" d="M51.97293,82.6679a18.58918,18.58918,0,0,1,.44278-2.18233,1.59114,1.59114,0,0,1,2.72284-.73389,3.26533,3.26533,0,0,1,1.01656,1.44978q1.03287,3.78095,1.88775,7.60987a5.438,5.438,0,0,1-1.116,4.26514,3.39412,3.39412,0,0,1-4.08356,1.03065,3.42972,3.42972,0,0,1-2.20311-3.27546c.1546-1.28942.50892-2.55457.76943-3.83164.29044-1.42367.574-2.84874.86051-4.27321ZM53.398,80.34206a9.28274,9.28274,0,0,0-.28222,1.73131,18.47858,18.47858,0,0,1-.909,5.47491,15.49342,15.49342,0,0,0-.52942,2.95347,2.60861,2.60861,0,0,0,5.0921.956,5.24271,5.24271,0,0,0,.3639-2.49264c-.54116-2.55049-1.25051-5.06724-1.95931-7.57886C54.99194,80.741,54.49968,80.26762,53.398,80.34206Z" transform="translate(-23.47507 -5.61928)"/></svg>