<svg fill="#0365C0" xmlns:dc="http://purl.org/dc/elements/1.1/" xmlns:cc="http://creativecommons.org/ns#" xmlns:rdf="http://www.w3.org/1999/02/22-rdf-syntax-ns#" xmlns:svg="http://www.w3.org/2000/svg" xmlns="http://www.w3.org/2000/svg" xmlns:sodipodi="http://sodipodi.sourceforge.net/DTD/sodipodi-0.dtd" xmlns:inkscape="http://www.inkscape.org/namespaces/inkscape" viewBox="0 0 79.999937 79.999937" version="1.1" x="0px" y="0px"><path d="M 8.5607782,20.825658 C 6.2522435,19.509181 2.9466372,15.338833 4.3254703,12.49398 5.0350977,11.033232 6.8540793,11.668927 9.4141277,9.0990921 12.010106,6.4886799 11.543011,3.9999969 13.052091,3.9999969 c 1.181215,0 1.40129,1.9521732 2.245658,3.3407863 1.315954,2.1550556 3.714314,4.0125498 6.287837,4.2199408 2.730719,0.220916 5.385084,-1.6095286 6.894165,-3.7690923 1.212655,-1.7357663 1.280024,-3.7916348 2.537592,-3.7916348 1.181215,0 1.401291,1.9521732 2.245658,3.3407863 1.109354,1.8169188 2.892405,3.3362778 4.940443,3.9494308 3.242728,0.978342 6.395631,-0.856611 8.241559,-3.4985823 1.212654,-1.7357663 1.280024,-3.7916348 2.537593,-3.7916348 1.257567,0 1.324937,2.0558685 2.537591,3.7916348 1.428238,2.0423428 3.871512,3.7871263 6.445034,3.7871263 2.573522,0 5.016798,-1.7447835 6.445034,-3.7871263 1.212656,-1.7357663 1.280024,-3.7916348 2.537593,-3.7916348 1.50908,0 1.041985,2.488683 3.637964,5.0990952 2.560048,2.5698349 4.379029,1.9341399 5.088657,3.3948879 1.378832,2.844853 -1.926773,7.015201 -4.235309,8.331678 -1.221637,0.698815 -2.232183,0.816036 -3.59305,0.942274 0.808436,2.709598 1.253075,4.260517 3.602033,6.136046 2.08846,1.668139 3.602033,1.334511 4.226326,2.623937 1.378832,2.844853 -1.926773,7.015201 -4.235309,8.331678 -1.221637,0.698816 -2.232183,0.816036 -3.59305,0.942276 0.808436,2.709599 1.253075,4.260518 3.602033,6.136046 2.08846,1.66814 3.602033,1.334512 4.226326,2.623938 1.378832,2.844853 -1.926773,7.0152 -4.235309,8.331678 -1.221637,0.698815 -2.232183,0.816036 -3.59305,0.942274 0.75005,2.511225 1.100372,3.917872 3.161885,5.766349 2.995706,2.687057 5.263819,1.208275 4.837143,5.054012 -0.65124,5.888079 -7.873272,8.931306 -12.939472,6.505742 -2.488188,-1.19024 -3.768213,-3.237092 -4.940445,-5.604046 -2.19176,4.43184 -4.383521,6.411064 -9.431757,6.30286 -1.702207,-0.03155 -3.036128,-0.238949 -4.491313,-1.208274 -2.079478,-1.388613 -2.973249,-2.935023 -4.042181,-5.094586 -2.191761,4.43184 -4.383522,6.411064 -9.431758,6.30286 -1.702207,-0.03155 -3.036128,-0.238949 -4.491313,-1.208274 -2.079478,-1.388613 -2.973249,-2.935023 -4.042181,-5.094586 -1.172233,2.366954 -2.452258,4.413806 -4.940446,5.604046 C 12.028073,77.587472 4.8060408,74.544245 4.1548004,68.656166 3.7281257,64.810429 5.9962387,66.289211 8.9919444,63.602154 11.053457,61.753677 11.403779,60.34703 12.153829,57.835805 10.792961,57.709567 9.7824156,57.592346 8.5607782,56.893531 6.2522435,55.577053 2.9466372,51.406706 4.3254703,48.561853 4.9497628,47.272427 6.4633353,47.606055 8.5517957,45.937915 10.900752,44.062387 11.345393,42.511468 12.153829,39.801869 10.792961,39.675629 9.7824156,39.558409 8.5607782,38.859593 6.2522435,37.543116 2.9466372,33.372768 4.3254703,30.527915 4.9497628,29.238489 6.4633353,29.572117 8.5517957,27.903978 10.900752,26.028449 11.345393,24.47753 12.153829,21.767932 10.792961,21.641694 9.7824156,21.524473 8.5607782,20.825658 Z M 4.967728,12.750963 c 1.8010163,8.86368 9.997663,10.085479 14.19704,4.941299 1.235111,-1.51485 1.594417,-3.083803 1.971686,-4.941299 C 16.721494,12.052149 15.432488,9.8835684 13.052091,6.4390867 10.671695,9.8835684 9.3826885,12.052149 4.967728,12.750963 Z m 17.965252,0 c 0.37727,1.857496 0.736576,3.426449 1.971687,4.941299 4.199377,5.14418 12.396024,3.922381 14.19704,-4.941299 C 34.686747,12.052149 33.39774,9.8835684 31.017343,6.4390867 28.636947,9.8835684 27.347941,12.052149 22.93298,12.750963 Z m 17.965252,0 c 1.801017,8.86368 9.997663,10.085479 14.19704,4.941299 1.235111,-1.51485 1.594417,-3.083803 1.971687,-4.941299 C 52.651998,12.052149 51.362991,9.8835684 48.982596,6.4390867 46.6022,9.8835684 45.313193,12.052149 40.898232,12.750963 Z m 17.965253,0 c 0.377269,1.857496 0.736575,3.426449 1.971686,4.941299 4.199377,5.14418 12.396024,3.922381 14.19704,-4.941299 C 70.61725,12.052149 69.328243,9.8835684 66.947848,6.4390867 64.567451,9.8835684 63.278444,12.052149 58.863485,12.750963 Z m -44.913131,9.016969 c 1.801017,8.863678 9.997663,10.085477 14.197041,4.941298 1.235111,-1.514851 1.594416,-3.083804 1.971686,-4.941298 -4.41496,-0.698816 -5.703968,-2.867396 -8.084363,-6.311878 -2.380397,3.444482 -3.669403,5.613062 -8.084364,6.311878 z m 17.965252,0 c 1.801017,8.863678 9.997663,10.085477 14.197041,4.941298 1.235111,-1.514851 1.594416,-3.083804 1.971686,-4.941298 -4.41496,-0.698816 -5.703967,-2.867396 -8.084363,-6.311878 -2.380396,3.444482 -3.669403,5.613062 -8.084364,6.311878 z m 17.965252,0 c 1.801017,8.863678 9.997663,10.085477 14.197041,4.941298 1.235111,-1.514851 1.594416,-3.083804 1.971686,-4.941298 -4.414961,-0.698816 -5.703968,-2.867396 -8.084364,-6.311878 -2.380395,3.444482 -3.669403,5.613062 -8.084363,6.311878 z m -44.91313,9.016967 c 1.8010163,8.86368 9.997663,10.085481 14.19704,4.941299 1.235111,-1.514851 1.594417,-3.083803 1.971686,-4.941299 -4.41496,-0.698815 -5.703966,-2.867396 -8.084363,-6.311877 -2.380396,3.444481 -3.6694025,5.613062 -8.084363,6.311877 z m 17.965252,0 c 1.801016,8.86368 9.997663,10.085481 14.19704,4.941299 1.235111,-1.514851 1.594417,-3.083803 1.971687,-4.941299 -4.41496,-0.698815 -5.703967,-2.867396 -8.084364,-6.311877 -2.380396,3.444481 -3.669402,5.613062 -8.084363,6.311877 z m 17.965252,0 c 1.801017,8.86368 9.997663,10.085481 14.19704,4.941299 1.235111,-1.514851 1.594417,-3.083803 1.971687,-4.941299 -4.414961,-0.698815 -5.703968,-2.867396 -8.084363,-6.311877 -2.380396,3.444481 -3.669403,5.613062 -8.084364,6.311877 z m 17.965253,0 c 0.377269,1.857496 0.736575,3.426448 1.971686,4.941299 4.199377,5.144182 12.396024,3.922381 14.19704,-4.941299 -4.414961,-0.698815 -5.703968,-2.867396 -8.084363,-6.311877 -2.380397,3.444481 -3.669404,5.613062 -8.084363,6.311877 z m -44.913131,9.01697 c 1.801017,8.863679 9.997663,10.085478 14.197041,4.941298 1.235111,-1.51485 1.594416,-3.083803 1.971686,-4.941298 -4.41496,-0.698817 -5.703968,-2.867398 -8.084363,-6.31188 -2.380397,3.444482 -3.669403,5.613063 -8.084364,6.31188 z m 17.965252,0 c 1.801017,8.863679 9.997663,10.085478 14.197041,4.941298 1.235111,-1.51485 1.594416,-3.083803 1.971686,-4.941298 -4.41496,-0.698817 -5.703967,-2.867398 -8.084363,-6.31188 -2.380396,3.444482 -3.669403,5.613063 -8.084364,6.31188 z m 17.965252,0 c 1.801017,8.863679 9.997663,10.085478 14.197041,4.941298 1.235111,-1.51485 1.594416,-3.083803 1.971686,-4.941298 -4.414961,-0.698817 -5.703968,-2.867398 -8.084364,-6.31188 -2.380395,3.444482 -3.669403,5.613063 -8.084363,6.31188 z m -44.91313,9.016967 c 1.8010163,8.86368 9.997663,10.085479 14.19704,4.941299 1.235111,-1.514851 1.594417,-3.083803 1.971686,-4.941299 -4.41496,-0.698814 -5.703966,-2.867395 -8.084363,-6.311876 -2.380396,3.444481 -3.6694025,5.613062 -8.084363,6.311876 z m 17.965252,0 c 1.801016,8.86368 9.997663,10.085479 14.19704,4.941299 1.235111,-1.514851 1.594417,-3.083803 1.971687,-4.941299 -4.41496,-0.698814 -5.703967,-2.867395 -8.084364,-6.311876 -2.380396,3.444481 -3.669402,5.613062 -8.084363,6.311876 z m 17.965252,0 c 0.37727,1.857496 0.736576,3.426448 1.971687,4.941299 4.199377,5.14418 12.396024,3.922381 14.19704,-4.941299 -4.414961,-0.698814 -5.703968,-2.867395 -8.084363,-6.311876 -2.380396,3.444481 -3.669403,5.613062 -8.084364,6.311876 z m 17.965253,0 c 1.801016,8.86368 9.997663,10.085479 14.197039,4.941299 1.235111,-1.514851 1.594417,-3.083803 1.971687,-4.941299 -4.414961,-0.698814 -5.703968,-2.867395 -8.084363,-6.311876 -2.380397,3.444481 -3.669404,5.613062 -8.084363,6.311876 z m -44.913131,9.016969 c 1.801017,8.863678 9.997663,10.085477 14.197041,4.941297 1.235111,-1.51485 1.594416,-3.083803 1.971686,-4.941297 -4.41496,-0.698816 -5.703968,-2.867396 -8.084363,-6.311878 -2.380397,3.444482 -3.669403,5.613062 -8.084364,6.311878 z m 17.965252,0 c 0.37727,1.857494 0.736575,3.426447 1.971686,4.941297 4.199378,5.14418 12.396024,3.922381 14.197041,-4.941297 -4.41496,-0.698816 -5.703967,-2.867396 -8.084363,-6.311878 -2.380396,3.444482 -3.669403,5.613062 -8.084364,6.311878 z m 17.965252,0 c 0.37727,1.857494 0.736575,3.426447 1.971686,4.941297 4.199378,5.14418 12.396024,3.922381 14.197041,-4.941297 -4.414961,-0.698816 -5.703968,-2.867396 -8.084364,-6.311878 -2.380395,3.444482 -3.669403,5.613062 -8.084363,6.311878 z m -44.91313,9.016967 c 0.3772703,1.857496 0.7365754,3.426448 1.9716862,4.941298 4.1993778,5.14418 12.3960238,3.922382 14.1970398,-4.941298 -4.41496,-0.698815 -5.703966,-2.867396 -8.084363,-6.311877 -2.380396,3.444481 -3.6694025,5.613062 -8.084363,6.311877 z m 17.965252,0 c 0.37727,1.857496 0.736576,3.426448 1.971687,4.941298 4.199377,5.14418 12.396024,3.922382 14.19704,-4.941298 -4.41496,-0.698815 -5.703967,-2.867396 -8.084364,-6.311877 -2.380396,3.444481 -3.669402,5.613062 -8.084363,6.311877 z m 17.965252,0 c 0.37727,1.857496 0.736576,3.426448 1.971687,4.941298 4.199377,5.14418 12.396024,3.922382 14.19704,-4.941298 -4.414961,-0.698815 -5.703968,-2.867396 -8.084363,-6.311877 -2.380396,3.444481 -3.669403,5.613062 -8.084364,6.311877 z m 17.965253,0 c 1.801016,8.86368 9.997663,10.085478 14.197039,4.941298 1.235111,-1.51485 1.594417,-3.083802 1.971687,-4.941298 -4.414961,-0.698815 -5.703968,-2.867396 -8.084363,-6.311877 -2.380397,3.444481 -3.669404,5.613062 -8.084363,6.311877 z" style="" fill="#0365C0" fill-opacity="1" stroke="none"></path></svg>