<svg fill="#C82606" xmlns:dc="http://purl.org/dc/elements/1.1/" xmlns:cc="http://creativecommons.org/ns#" xmlns:rdf="http://www.w3.org/1999/02/22-rdf-syntax-ns#" xmlns:svg="http://www.w3.org/2000/svg" xmlns="http://www.w3.org/2000/svg" xmlns:sodipodi="http://sodipodi.sourceforge.net/DTD/sodipodi-0.dtd" xmlns:inkscape="http://www.inkscape.org/namespaces/inkscape" viewBox="0 0 100 100" version="1.1" x="0px" y="0px"><g style="display:inline;opacity:1"><g style="display:inline;opacity:1" transform="translate(-15.654621,15.65501)"><path style="color:#000000;font-style:normal;font-variant:normal;font-weight:normal;font-stretch:normal;font-size:medium;line-height:normal;font-family:sans-serif;text-indent:0;text-align:start;text-decoration:none;text-decoration-line:none;text-decoration-style:solid;text-decoration-color:#000000;letter-spacing:normal;word-spacing:normal;text-transform:none;direction:ltr;block-progression:tb;writing-mode:lr-tb;baseline-shift:baseline;text-anchor:start;white-space:normal;clip-rule:nonzero;display:inline;overflow:visible;visibility:visible;opacity:1;isolation:auto;mix-blend-mode:normal;color-interpolation:sRGB;color-interpolation-filters:linearRGB;solid-color:#000000;solid-opacity:1;fill:#C82606;fill-opacity:1;fill-rule:nonzero;stroke:none;stroke-width:4;stroke-linecap:butt;stroke-linejoin:round;stroke-miterlimit:4;stroke-dasharray:none;stroke-dashoffset:0;stroke-opacity:1;color-rendering:auto;image-rendering:auto;shape-rendering:auto;text-rendering:auto;enable-background:accumulate" d="M 25.164062 10.390625 C 24.059537 10.390734 23.164174 11.286101 23.164062 12.390625 L 23.164062 22.390625 C 23.164164 22.921023 23.374929 23.429664 23.75 23.804688 L 52.361328 52.416016 L 49.091797 55.685547 L 17.470703 24.064453 C 17.095681 23.68938 16.587039 23.478619 16.056641 23.478516 L 6.0566406 23.478516 C 4.9521166 23.478626 4.0567516 24.373992 4.0566406 25.478516 L 4.0566406 35.478516 C 4.0567436 36.008913 4.2675061 36.517555 4.6425781 36.892578 L 36.263672 68.513672 L 27.677734 77.099609 C 26.896999 77.880668 26.896998 79.146674 27.677734 79.927734 L 32.677734 84.927734 C 33.458794 85.70847 34.7248 85.70847 35.505859 84.927734 L 44.091797 76.341797 L 57.677734 89.927734 C 58.458793 90.708468 59.724801 90.708468 60.505859 89.927734 L 70.505859 79.927734 C 71.286589 79.146674 71.286599 77.880668 70.505859 77.099609 L 66.537109 73.130859 L 69.806641 69.861328 L 83.392578 83.447266 C 84.173636 84.227998 85.439643 84.227998 86.220703 83.447266 L 96.220703 73.447266 C 97.001443 72.666205 97.001443 71.400201 96.220703 70.619141 L 82.634766 57.033203 L 91.220703 48.447266 C 92.001443 47.666206 92.001443 46.400202 91.220703 45.619141 L 86.220703 40.619141 C 85.838533 40.236807 85.317874 40.025444 84.777344 40.033203 C 84.257119 40.041003 83.76039 40.251163 83.392578 40.619141 L 74.806641 49.205078 L 36.578125 10.976562 C 36.203102 10.601491 35.69446 10.390728 35.164062 10.390625 L 25.164062 10.390625 z M 27.164062 14.390625 L 34.335938 14.390625 L 71.978516 52.033203 L 64.806641 59.205078 L 63.017578 57.416016 L 65.505859 54.927734 C 66.286589 54.146674 66.286589 52.880669 65.505859 52.099609 L 60.505859 47.099609 C 60.123687 46.717275 59.603032 46.505914 59.0625 46.513672 C 58.542275 46.521472 58.045548 46.731631 57.677734 47.099609 L 55.189453 49.587891 L 27.164062 21.5625 L 27.164062 14.390625 z M 8.0566406 27.478516 L 15.228516 27.478516 L 46.263672 58.513672 L 39.091797 65.685547 L 8.0566406 34.650391 L 8.0566406 27.478516 z M 84.806641 44.861328 L 86.978516 47.033203 L 63.708984 70.302734 L 61.537109 68.130859 L 84.806641 44.861328 z M 59.091797 51.341797 L 61.263672 53.513672 L 34.091797 80.685547 L 31.919922 78.513672 L 59.091797 51.341797 z M 79.806641 59.861328 L 91.978516 72.033203 L 84.806641 79.205078 L 72.634766 67.033203 L 79.806641 59.861328 z M 60.189453 60.244141 L 61.978516 62.033203 L 58.708984 65.302734 L 56.919922 63.513672 L 60.189453 60.244141 z M 54.091797 66.341797 L 66.263672 78.513672 L 59.091797 85.685547 L 46.919922 73.513672 L 54.091797 66.341797 z " transform="translate(15.654621,-15.65501)"></path></g></g></svg>