<svg xmlns="http://www.w3.org/2000/svg" xmlns:xlink="http://www.w3.org/1999/xlink" version="1.1" x="0px" y="0px" viewBox="0 0 100 100" enable-background="new 0 0 100 100" xml:space="preserve"><g><g><g><g><g><path d="M49.9,53.8C49.9,53.8,49.9,53.8,49.9,53.8c-0.2,0-0.5,0-0.7-0.1c-1-0.2-1.9-0.7-2.5-1.6c-0.6-0.9-0.8-1.9-0.6-2.9       c0.3-1.9,1.9-3.2,3.8-3.2c0.2,0,0.5,0,0.7,0.1c2.1,0.4,3.5,2.4,3.2,4.5C53.4,52.4,51.8,53.8,49.9,53.8z M49.9,47.3       c-1.3,0-2.3,0.9-2.5,2.1c-0.1,0.7,0,1.4,0.4,1.9s1,0.9,1.7,1.1c0.2,0,0.3,0,0.5,0c1.3,0,2.3-0.9,2.5-2.1c0.2-1.4-0.7-2.8-2.1-3       C50.2,47.3,50.1,47.3,49.9,47.3z"></path></g></g></g></g><g><g><g><g><rect x="47.8" y="36.7" width="4.3" height="9.9"></rect></g></g></g></g><g><g><g><g><rect x="47.8" y="52.9" width="4.2" height="9.9"></rect></g></g></g></g><g><g><g><g><path d="M52.9,28h-1.3c0-2-0.4-4.7-1.2-7l1.2-0.4C52.5,23.1,52.9,25,52.9,28z"></path></g></g></g></g><g><g><g><g><path d="M52.9,37.6l-6.1-0.2l2.3-5.1l-1.6-17.2L47.1,10l1.3,1.4c4.2,4.5,6.5,10.4,6.5,16.6c0,3.2-0.6,6.3-1.8,9.2L52.9,37.6z        M48.8,36.1l3.3,0.1c1-2.6,1.5-5.4,1.5-8.3c0-5.2-1.7-10.2-4.9-14.2l0.1,1.2l1.7,17.5L48.8,36.1z"></path></g></g></g></g><g><g><g><g><g><path d="M48.3,79.4C47.5,77,47.1,75,47.1,72h1.3c0,3,0.4,4.6,1.2,6.9L48.3,79.4z"></path></g></g></g></g></g><g><g><g><g><g><path d="M52.9,90l-1.3-1.4c-4.2-4.5-6.5-10.4-6.5-16.6c0-3.2,0.6-6.3,1.8-9.2l0.2-0.4l6.1,0.2l-2.3,5.1l1.6,17.2L52.9,90z         M47.9,63.8c-1,2.6-1.5,5.4-1.5,8.3c0,5.2,1.7,10.2,4.9,14.2L51.2,85l-1.7-17.5l1.7-3.7L47.9,63.8z"></path></g></g></g></g></g></g></svg>