<svg xmlns="http://www.w3.org/2000/svg" xmlns:xlink="http://www.w3.org/1999/xlink" version="1.1" x="0px" y="0px" viewBox="0 0 100 100" style="enable-background:new 0 0 100 100;" xml:space="preserve"><g><path d="M94.6,70.1c-0.4-1.5,0.4-3.7,0.4-3.7c-0.5,0.1-1.7,1.5-2.4,2.4c-1.6-0.9-2.9-1.5-4-1.8c-0.3-1.5,0.5-3.3,0.5-3.3   c-0.7,0.1-2.4,2.4-2.8,2.9c-1.4-0.2-2.6-0.2-4.2-0.4c-0.5-1.9,0.5-4.6,0.5-4.6c-0.9,0.1-3.2,3.2-3.6,3.7c-0.1,0-0.1,0-0.2-0.1   c-0.9-0.3-1.6-0.7-2.4-1.2c-0.1-1.9,1.3-4.3,1.3-4.3c-0.7,0-2.3,1.4-3.3,2.4c-0.7-0.8-1.4-1.7-2.2-2.9c0,0,1.8,4.8-4.8,9.9   c0,0,8.3,3.2,16.1,3.2c7.7,0,9.3,2,10.3,6c0.4,1.4-0.4,3.4-1.4,5.3l-1.8,0.4c0,0-3.8,0.8-4.4,0.8c-0.6,0-3.4,1.8-3.4,1.8l3.2,0.4   l-2.3,1.5c-0.9,0.6-1.6,1.3-2.1,2.2l-1,1.8l4-1.6l-3.4,6.1c0,0,6-3.6,7.1-4.8l-1.2,4c0,0,3.2-2.4,3.6-4.4c0.2-1,0.6-2.2,0.6-2.2   l1.2,3c0,0,0.6-3.4,0.6-4.8c0-0.5,0-1.4,0-2.2C97.6,81.3,100.7,74.5,94.6,70.1z"/><path d="M52.2,82.6c0,0,1.8-2,1.8-3.2c0-1.1-1.8-3.4-1.8-3.4s0,0-1.8-1.4c-1.8-1.4-3-5.2-3-5.2l-4.4,0.6l-1.6,0.2   c0,0,2.4,5.4,5,8.1c2.6,2.8-2,6.7-3.8,6.3c-1.8-0.4-5,1.2-5,1.2c-4.4-0.2-2.6,3-2.6,3s0.4-1.8,2.2-0.6c1.8,1.2,3.2-0.4,3.2-0.4   l4,0.6c1.6-2,5.4-4.4,5.4-4.4L52.2,82.6z"/><path d="M23.1,71.4c0,0-0.7,3-1.6,4.5c-0.9,1.4-4.1,4.5-4.1,5.6s0.4,3.4,1.1,3.6s2.3,1.6,3.2-0.4c0,0-2.1-0.4-2.1-2   c0,0,2.1-1.3,2.1-2.1c0-0.9,1.3,0,1.6,0.9c0.4,0.9,0.5,2.7,0.5,3.2c0,0.5,1.3,2.3,1.3,2.3l0.2-3.8c0,0,2.1-2.1,0.7-4.1   c-1.4-2,2.5-6.6,2.5-6.6S24.1,72.1,23.1,71.4z"/><path d="M64.5,80.6c0,0,2.2-1.6,1.8-3.4c-0.4-1.8-3.6-1.8-3.8-5c-0.2-3.2,3.8-4.4,5.6-6.5c1.8-2.2,7.2-9-7.3-15.4   c-0.8-0.3-1.9-0.6-3.4-0.9c1.8-3.4,7.7-5.5,9.3-5.1c2,0.6,2.8,4.8,2.8,4.8c1.8-2,0.4-4.8,0.4-4.8c2.6-0.6,5.8,5.2,5.8,5.2   c3,2.2,1,6.1,1,6.1c3.6,0,2.4-6.9,2.4-6.9s-1-7.1,2.2-7.5c3.2-0.4,6.3,2.2,6.3,2.2c1.8,2.8-3.2,5-3.2,5c6.9,1.2,5.8-6.7,5.8-6.7   l-6.9-10.2c0,0-15.4-14.4-20.2-18.8c-4.8-4.4-21-4.2-23.6-4.2S36.1,9,36.1,7.7s4.8-4.6,4.8-4.6l-4.8,1c-6.3,2.8-4.4,6.1-4.4,6.1   c13.1,10.1,16.9,26.4,13.5,30.9c-2,2.7-5.8,4.2-8.7,5l0.2-0.1c-3.3,1.2-6.9,0.5-9.5-1.7l1.6-2.1l-2.4,1.3c-0.5-0.5-0.9-1.1-1.3-1.7   c-0.2-0.3-0.3-0.6-0.5-0.8l2.2-1.9L24,39.9c-0.6-1.2-1-2.3-1.2-3.8l3.3-0.6l-3.4-0.9c0-1-0.2-1.8-0.3-2.6l2.5-1.7l-3,0.1   c-0.5-1.4-1.1-2.5-1.7-3.6c0.8-0.2,3.8-1.4,3.8-1.4c-0.7,0.2-4.3,0.2-4.8-0.2c-0.1-0.1-0.2-0.3-0.3-0.4c1.7-0.3,2.8-1.8,2.8-1.8   c-1.2,0.2-3.8,0.6-4.7,0.4c-0.1-0.1-0.3-0.1-0.4-0.2c1-2.7,6.1-5.1,6.1-5.1c-6.4,0.6-8.7,3.5-9.5,4.9C10.7,24.2,9.8,27,7,28.6   c-3.2,1.8-4.4,3.1-4.4,3.1C2.3,32.1,2.1,32.6,2,33c-0.1,0.8,0.2,1.6,0.8,2l0.3-1l1,0.8l0.3-1.3l0.9,0.5L6,33   C7.6,33,10,32.9,10,32.9c-0.8,0.6-1.3,1.7-1.5,2.2l-0.6-0.2l-0.2,1l-0.9-0.1l0,1l-1-0.1l0.1,1.1c-0.3,1.7,1.9,0.5,1.9,0.5   c3-2.3,5-4.3,6.7-3.7s1.6,3.2,1.7,4.4c0.1,3,0.4,4.4,0.9,6.2c0.6,2.5,1.9,4.4,3.6,6.3l1.9,1.6c-3.7,3,0,11,0,11l2.5,1l-9.4-1   c0,0-2.1,0.3-3,1.9c-0.9,1.6-2.5,2.8-3.4,4c-0.9,1.2,0.3,4.6,0.3,4.6L10,72c0,0,1.5-1.2,2.7-2.4c0,0-0.6,2.2-0.4,3.1   c0.1,0.9,0.3,3,1.3,3.4l-0.3-2.7c0,0,0.4,0,1.3-1.2c0.9-1.2,1.3-3.1,1.3-3.1l2.7-0.7c0,0,7.4,3.6,11.2,2.5c3.7-1,1.8-10.4,1.8-10.4   s2.2,3.7,1.6,8.2c0,0,6.9-0.2,10.7-0.8l4.4-0.6c0,0,4-9.9,10.3-10.7c0,0-7.7,5-8.3,12.5c-0.6,7.5,11.9,8.1,7.1,12.7   c-3.3,3.2-1,3.4-6,4c-3.2,0.4-4.6,2.6-5.4,4c0,0,1.2-0.8,3.2-0.2c0,0,2.4-1.4,4-1.6c0,0-2.4,1.2-3.6,3.6c-1.2,2.4-0.2,3.6-0.2,3.6   s0.8-3.4,2.4-3.4c1.6,0,1.4-2,6.1-1.8l1.8-0.8c0,0,4.6,0.8,4.2,3.6c0,0,3.4-2.4-0.6-4.4c0,0-1.4-1.8-3.2-1.8   C60.2,86.6,62,81.4,64.5,80.6z M11,28.9c0,0,0.2-0.9,1.1-1.1c0.9-0.2,1.6,0.3,1.6,0.3S12.9,29.6,11,28.9z"/><path d="M37.7,35.6c-0.1,8.7-2.1,9.7-2.1,9.7s8.4-3,8.9-6s0.9-6.3-1.3-11.2C41,23.2,36.9,16.3,30.8,11c0,0-1.7-1.7-0.1-3.8L28.5,8   c0,0-5.2,1.5-4.8,3.8C24.8,17.1,37.8,20,37.7,35.6z"/></g></svg>
