<svg xmlns="http://www.w3.org/2000/svg" xmlns:xlink="http://www.w3.org/1999/xlink" version="1.1" x="0px" y="0px" viewBox="0 0 100 100" enable-background="new 0 0 100 100" xml:space="preserve"><path d="M42.646,23.256c0-2.246,1.827-4.074,4.074-4.074c1.078,0,2.094,0.417,2.861,1.176L50,20.77l0.416-0.412  c0.768-0.759,1.784-1.176,2.861-1.176c2.247,0,4.075,1.828,4.075,4.074c0,1.563-0.873,2.957-2.254,3.643  c-0.007-0.006-0.015-0.011-0.021-0.017c-0.335-0.283-0.692-0.538-1.069-0.761c-0.073-0.044-0.148-0.083-0.224-0.124  c-0.112-0.063-0.225-0.124-0.34-0.18c-0.091-0.044-0.183-0.085-0.274-0.126c-0.105-0.045-0.209-0.09-0.314-0.132  c-0.098-0.037-0.197-0.073-0.295-0.108c-0.106-0.037-0.215-0.071-0.323-0.103c-0.099-0.029-0.196-0.058-0.296-0.084  c-0.115-0.029-0.233-0.054-0.352-0.078c-0.094-0.019-0.188-0.041-0.281-0.056c-0.137-0.023-0.275-0.04-0.414-0.055  c-0.078-0.01-0.156-0.021-0.234-0.028c-0.219-0.019-0.439-0.03-0.66-0.03c-0.223,0-0.443,0.011-0.661,0.03  c-0.079,0.006-0.157,0.018-0.235,0.028c-0.139,0.016-0.275,0.032-0.412,0.055c-0.096,0.016-0.189,0.037-0.285,0.056  c-0.115,0.024-0.232,0.049-0.347,0.078c-0.101,0.026-0.2,0.055-0.301,0.085c-0.106,0.031-0.213,0.065-0.317,0.102  c-0.101,0.035-0.2,0.071-0.299,0.109c-0.105,0.041-0.208,0.085-0.311,0.13c-0.094,0.041-0.188,0.082-0.279,0.127  c-0.113,0.055-0.225,0.116-0.336,0.177c-0.074,0.041-0.152,0.081-0.227,0.125c-0.377,0.224-0.734,0.479-1.069,0.761  c-0.007,0.006-0.015,0.011-0.021,0.017C43.52,26.212,42.646,24.819,42.646,23.256z"></path><path d="M5.133,30.567c-0.027-1.604,2.566-2.341,4.115-2.638c1.791-0.344,4.014-0.518,6.607-0.518c10.729,0,24.627,2.978,24.734,3  l1.492,0.409c-4.951,0.535-17.42,2.282-25.588,6.872C10.977,36.752,5.174,33.13,5.133,30.567z"></path><path d="M31.396,44.214c-2.72,1.377-7.053,2.232-11.309,2.232l0,0c-4.373,0-7.64-0.939-8.129-2.338  c-0.299-0.854,0.48-2.078,2.195-3.445c0.891-0.711,1.901-1.366,2.992-1.972c0.162-0.091,0.326-0.182,0.492-0.27  c0.153-0.081,0.309-0.161,0.464-0.24c0.138-0.07,0.276-0.142,0.418-0.21c0.216-0.107,0.435-0.21,0.655-0.312  c0.082-0.038,0.164-0.078,0.247-0.116c8.485-3.862,20.196-5.284,23.778-5.643C41.82,34.374,37.658,41.044,31.396,44.214z"></path><path d="M46.764,53.067c0.93,0.63,2.052,0.981,3.235,0.981c1.185,0,2.307-0.352,3.236-0.981v6.108  C52.414,60.022,51.252,60.51,50,60.51s-2.416-0.487-3.236-1.334V53.067z"></path><path d="M46.764,60.713c0.93,0.629,2.052,0.981,3.236,0.981c1.184,0,2.306-0.353,3.235-0.981v6.107  c-0.821,0.848-1.983,1.333-3.236,1.333s-2.415-0.485-3.235-1.332V60.713z"></path><path d="M53.235,51.53c-0.821,0.848-1.983,1.333-3.236,1.333s-2.415-0.485-3.235-1.332v-6.109c0.93,0.63,2.052,0.982,3.236,0.982  c1.184,0,2.306-0.353,3.235-0.982V51.53z"></path><path d="M50,80.817c-2.094,0-3.236-3.676-3.236-5.563v-6.896c0.93,0.63,2.052,0.982,3.235,0.982c1.185,0,2.307-0.353,3.236-0.982  v6.896C53.235,77.142,52.094,80.817,50,80.817z"></path><path d="M53.235,40.075v3.811c-0.821,0.847-1.983,1.332-3.235,1.332s-2.416-0.485-3.236-1.333v-3.81  c0.022,0.011,0.047,0.017,0.068,0.027c0.215,0.094,0.433,0.179,0.655,0.255c0.032,0.011,0.065,0.021,0.099,0.032  c0.764,0.247,1.573,0.388,2.414,0.388s1.651-0.141,2.416-0.388c0.031-0.011,0.062-0.021,0.092-0.031  c0.226-0.075,0.446-0.162,0.662-0.257C53.191,40.092,53.214,40.085,53.235,40.075z"></path><path d="M53.541,38.569l-0.025,0.016c-2.123,1.316-4.907,1.317-7.033,0l-0.018-0.011c-1.605-1.003-2.768-2.668-3.074-4.641  c0.854-1.388,1.322-2.346,1.381-2.467l0.073-0.151l0.246-0.508l0.321-0.304l0,0h0.001l-1.487-0.408  c0.373-0.811,0.902-1.521,1.537-2.108c0.127-0.118,0.257-0.229,0.391-0.334c0.025-0.021,0.049-0.041,0.074-0.06  c0.156-0.121,0.318-0.235,0.482-0.341c0.018-0.011,0.036-0.02,0.054-0.032c0.142-0.087,0.284-0.169,0.431-0.247  c0.056-0.029,0.112-0.056,0.168-0.084c0.118-0.059,0.237-0.111,0.357-0.163c0.059-0.024,0.114-0.049,0.172-0.072  c0.17-0.065,0.341-0.125,0.516-0.176c0.041-0.013,0.084-0.021,0.127-0.034c0.141-0.039,0.281-0.073,0.425-0.102  c0.063-0.013,0.129-0.025,0.193-0.036c0.13-0.022,0.263-0.042,0.396-0.056c0.059-0.007,0.118-0.014,0.178-0.021  c0.189-0.016,0.381-0.026,0.574-0.026c0.191,0,0.383,0.011,0.572,0.026c0.061,0.006,0.119,0.013,0.18,0.021  c0.132,0.015,0.264,0.034,0.394,0.056c0.065,0.011,0.13,0.023,0.194,0.036c0.143,0.029,0.285,0.063,0.424,0.102  c0.043,0.012,0.086,0.021,0.129,0.034c0.174,0.051,0.345,0.111,0.514,0.176c0.059,0.022,0.115,0.049,0.172,0.073  c0.121,0.05,0.24,0.103,0.357,0.162c0.057,0.028,0.113,0.055,0.169,0.084c0.146,0.078,0.289,0.16,0.429,0.247  c0.02,0.011,0.038,0.021,0.055,0.032c0.166,0.106,0.326,0.22,0.483,0.341c0.024,0.019,0.05,0.04,0.075,0.06  c0.133,0.106,0.263,0.217,0.39,0.334c0.636,0.588,1.164,1.298,1.537,2.108l-1.487,0.408l0,0l0,0l0.322,0.302l0.315,0.655  l0.004,0.006c0.058,0.121,0.527,1.079,1.38,2.467C56.302,35.903,55.144,37.565,53.541,38.569z"></path><path d="M88.039,44.108c-0.489,1.398-3.755,2.338-8.126,2.338c-4.258,0-8.592-0.855-11.311-2.232  c-6.255-3.166-10.421-9.84-11.803-12.313c3.581,0.36,15.291,1.781,23.775,5.643c0.085,0.039,0.168,0.079,0.254,0.119  c0.219,0.101,0.436,0.204,0.65,0.309c0.14,0.069,0.279,0.141,0.42,0.212c0.153,0.079,0.309,0.158,0.46,0.239  c0.168,0.088,0.332,0.18,0.495,0.271c1.091,0.605,2.101,1.26,2.99,1.971C87.56,42.03,88.34,43.255,88.039,44.108z"></path><path d="M83.504,37.692c-8.166-4.591-20.637-6.337-25.587-6.872l1.461-0.402c0.14-0.03,14.033-3.008,24.767-3.008  c2.593,0,4.816,0.174,6.606,0.518c1.549,0.297,4.142,1.035,4.115,2.638C94.825,33.13,89.023,36.752,83.504,37.692z"></path></svg>