<svg xmlns="http://www.w3.org/2000/svg" xmlns:xlink="http://www.w3.org/1999/xlink" version="1.1" x="0px" y="0px" viewBox="0 0 26 26" style="enable-background:new 0 0 26 26;" xml:space="preserve"><g><path fill="#55222a" d="M13,0C5.82,0,0,5.82,0,13s5.82,13,13,13c7.18,0,13-5.82,13-13S20.18,0,13,0z M5,11h2V9h1v2h2v1H8v2H7v-2H5V11z    M18.585,20.778C18.508,20.665,16.67,18,13,18c-3.69,0-5.565,2.75-5.584,2.777l-0.832-0.555C6.672,20.091,8.781,17,13,17   c4.219,0,6.328,3.091,6.416,3.223L18.585,20.778z M21,12h-2v2h-1v-2h-2v-1h2V9h1v2h2V12z"/></g></svg>