<svg fill="#70C041" xmlns:dc="http://purl.org/dc/elements/1.1/" xmlns:cc="http://creativecommons.org/ns#" xmlns:rdf="http://www.w3.org/1999/02/22-rdf-syntax-ns#" xmlns:svg="http://www.w3.org/2000/svg" xmlns="http://www.w3.org/2000/svg" xmlns:sodipodi="http://sodipodi.sourceforge.net/DTD/sodipodi-0.dtd" xmlns:inkscape="http://www.inkscape.org/namespaces/inkscape" version="1.1" x="0px" y="0px" viewBox="0 0 100 100"><g transform="translate(0,-952.36218)"><path style="font-size:medium;font-style:normal;font-variant:normal;font-weight:normal;font-stretch:normal;text-indent:0;text-align:start;text-decoration:none;line-height:normal;letter-spacing:normal;word-spacing:normal;text-transform:none;direction:ltr;block-progression:tb;writing-mode:lr-tb;text-anchor:start;baseline-shift:baseline;opacity:1;color:#000000;fill:#70C041;fill-opacity:1;stroke:none;stroke-width:6;marker:none;visibility:visible;display:inline;overflow:visible;enable-background:accumulate;font-family:Sans;-inkscape-font-specification:Sans" d="M 37.40625 8 A 3.0003 3.0003 0 0 0 35.875 8.625 L 28.96875 14 C 22.953374 14.012106 17.395191 17.514239 16.1875 23.0625 L 16.15625 23.0625 L 16.03125 23.5 L 5.15625 57.0625 A 3.0003 3.0003 0 0 0 7.1875 60.875 L 21.1875 64.875 A 3.0003 3.0003 0 0 0 24.8125 63.0625 L 25.71875 60.6875 L 26.875 68.28125 A 3.0003 3.0003 0 0 0 26.90625 68.59375 L 30.03125 89.4375 A 3.0003 3.0003 0 0 0 33 92 L 67 92 A 3.0003 3.0003 0 0 0 69.96875 89.4375 L 73.0625 68.8125 A 3.0003 3.0003 0 0 0 73.125 68.40625 L 74.28125 60.6875 L 75.1875 63.0625 A 3.0003 3.0003 0 0 0 78.8125 64.875 L 92.8125 60.875 A 3.0003 3.0003 0 0 0 94.84375 57.0625 L 83.96875 23.5 L 83.84375 23.0625 L 83.8125 23.0625 C 82.604809 17.514239 77.046626 14.012106 71.03125 14 L 64.125 8.625 A 3.0003 3.0003 0 0 0 62.28125 8 L 37.71875 8 A 3.0003 3.0003 0 0 0 37.40625 8 z M 38.75 14 L 61.25 14 L 64.34375 16.40625 C 58.498408 19.17215 53.81711 21.55449 50 24.3125 C 46.18289 21.55449 41.501592 19.17215 35.65625 16.40625 L 38.75 14 z M 29 20 L 29.3125 20 C 38.601891 24.336266 43.567148 26.697464 48.125 30.34375 A 3.0003 3.0003 0 0 0 51.875 30.34375 C 56.432852 26.697464 61.398109 24.336266 70.6875 20 L 71 20 C 74.792654 20 77.664259 22.33142 78.03125 24.5 A 3.0003 3.0003 0 0 0 78.15625 24.90625 L 88.1875 55.9375 L 79.8125 58.34375 L 75.8125 47.90625 A 3.0003 3.0003 0 0 0 70.1875 47.9375 L 69.125 46.875 A 3.0003 3.0003 0 0 0 64.6875 47.0625 L 61.78125 50.53125 L 58.125 46.875 A 3.0003 3.0003 0 0 0 53.875 46.875 L 50 50.75 L 46.125 46.875 A 3.0003 3.0003 0 0 0 41.875 46.875 L 38.21875 50.53125 L 35.3125 47.0625 A 3.0003 3.0003 0 0 0 32.625 46 A 3.0003 3.0003 0 0 0 30.875 46.875 L 29.8125 47.9375 A 3.0003 3.0003 0 0 0 24.1875 47.90625 L 20.1875 58.34375 L 11.8125 55.9375 L 21.84375 24.90625 A 3.0003 3.0003 0 0 0 21.96875 24.5 C 22.335741 22.33142 25.207346 20 29 20 z M 44 53.21875 L 47.875 57.09375 A 3.0003 3.0003 0 0 0 52.125 57.09375 L 56 53.21875 L 59.875 57.09375 A 3.0003 3.0003 0 0 0 64.3125 56.90625 L 67.21875 53.4375 L 69.03125 55.25 L 68 62.1875 A 3.0003 3.0003 0 0 0 64.6875 63.0625 L 61.78125 66.53125 L 58.125 62.875 A 3.0003 3.0003 0 0 0 53.875 62.875 L 50 66.75 L 46.125 62.875 A 3.0003 3.0003 0 0 0 41.875 62.875 L 38.21875 66.53125 L 35.3125 63.0625 A 3.0003 3.0003 0 0 0 32.625 62 A 3.0003 3.0003 0 0 0 32 62.15625 L 30.96875 55.25 L 32.78125 53.4375 L 35.6875 56.90625 A 3.0003 3.0003 0 0 0 40.125 57.09375 L 44 53.21875 z M 44 69.21875 L 47.875 73.09375 A 3.0003 3.0003 0 0 0 52.125 73.09375 L 56 69.21875 L 59.875 73.09375 A 3.0003 3.0003 0 0 0 64.3125 72.90625 L 66.8125 69.90625 L 64.40625 86 L 35.59375 86 L 33.1875 69.90625 L 35.6875 72.90625 A 3.0003 3.0003 0 0 0 40.125 73.09375 L 44 69.21875 z " transform="translate(0,952.36218)"></path></g></svg>