<svg fill="#70C041" xmlns:dc="http://purl.org/dc/elements/1.1/" xmlns:cc="http://creativecommons.org/ns#" xmlns:rdf="http://www.w3.org/1999/02/22-rdf-syntax-ns#" xmlns:svg="http://www.w3.org/2000/svg" xmlns="http://www.w3.org/2000/svg" xmlns:sodipodi="http://sodipodi.sourceforge.net/DTD/sodipodi-0.dtd" xmlns:inkscape="http://www.inkscape.org/namespaces/inkscape" version="1.1" x="0px" y="0px" viewBox="0 0 100 100"><g transform="translate(0,-952.36218)"><path style="text-indent:0;text-transform:none;direction:ltr;block-progression:tb;baseline-shift:baseline;color:#000000;enable-background:accumulate;" d="m 26.133884,960.17416 c -2.030228,22.2796 -1.046526,62.15504 0.9375,81.37504 0.834725,2.8854 2.856883,3.8672 4.78125,4.375 1.84189,0.4595 3.7013,0.4433 5.1875,0.4375 1.86984,-0.09 3.697753,-0.076 5.21875,-0.4375 1.860572,-0.4601 3.93172,-1.6632 4.6875,-3.9375 1.10438,-9.5447 2.03913,-19.219 3.0312,-28.8125 1.26177,9.5566 1.73771,19.3145 3.1562,28.8125 0.75013,2.2575 2.80341,3.4747 4.65625,3.9375 1.85284,0.4628 3.71954,0.4435 5.21875,0.4375 1.47623,0 3.33708,0.022 5.1875,-0.4375 2.52319,-0.8601 4.05197,-1.4597 4.74995,-4.3437 1.19879,-27.9506 3.42664,-55.05674 0.84375,-81.43734 -0.10864,-0.9935 -1.06382,-1.8184 -2.0625,-1.7812 -17.864,0.8206 -25.67079,0.9975 -43.5,0 -1.117761,-0.01 -1.832391,0.885 -2.0936,1.8122 z m 3.90625,2.2187 c 15.48705,0.8124 24.40231,0.7238 39.875,0.031 0.0388,0.4398 0.0573,0.9225 0.0937,1.375 -13.35516,1.3992 -26.707248,1.3856 -40.0625,-0.031 0.03362,-0.453 0.05797,-0.9345 0.09375,-1.375 z m -0.375,5.3438 c 0.958798,0.101 1.916139,0.2257 2.875,0.3125 l -0.625,2.25 c 0.125846,0.339 0.18971,0.7009 0.1875,1.0625 l 0,11 c 0.01628,1.5811 -1.418793,3.0311 -3,3.0312 0.0039,-0.3359 0.02671,-0.6656 0.03125,-1 1.047164,-0.016 1.985028,-0.984 1.96875,-2.0312 l 0,-11 c 0.01422,-0.8894 -0.638695,-1.7464 -1.5,-1.9688 0.02832,-0.5546 0.03164,-1.1145 0.0625,-1.6562 z m 40.25,0.062 -0.25,0.875 c 0.21435,-0.1187 0.45077,-0.2181 0.6875,-0.2813 0.0209,0.3508 0.0427,0.7065 0.0625,1.0626 -0.77251,0.2828 -1.32392,1.0836 -1.3125,1.9062 l 0,11 c -0.0198,0.9978 0.81887,1.9377 1.8125,2.0312 0.0524,3.3327 0.0408,6.7496 0.0312,10.1876 l -13.90625,46.37504 c -0.4726,-3.4099 -0.78813,-6.9252 -1.15625,-10.375 l 13.34375,-45.81264 c -0.71613,-0.573 -1.14446,-1.4892 -1.125,-2.4062 l 0,-8.25 -13.28125,46.53124 -1.5,-13.8437 10.3125,-38.43754 c 2.19134,-0.1631 4.41143,-0.372 6.2813,-0.5625 z m -33.28125,0.563 c 1.270746,0.088 2.541686,0.1555 3.8125,0.2188 l -11.09375,42.15624 c -0.139736,-5.0165 -0.223197,-10.1499 -0.25,-15.28124 z m 22.78125,0.2188 -7.28125,27.1562 -0.1875,-1.75 c -0.12021,-0.9563 -1.02055,-1.7506 -1.98437,-1.7506 -0.96383,0 -1.86417,0.7943 -1.98438,1.7506 l -2.375,22.81254 -8.9375,25.5625 c -1.521882,0 -2.969342,-0.1026 -4.3125,-0.4688 l 21.4375,-73.12504 c 1.87526,-0.036 3.74982,-0.098 5.625,-0.1874 z m -14.875,0.1562 c 1.68775,0.048 3.37472,0.089 5.0625,0.094 l -19.15625,65.25004 c -0.230473,-3.1305 -0.413572,-6.5366 -0.59375,-10.1876 z m 26.21875,40.03124 c -0.21411,8.5247 -0.57851,16.7093 -1.0625,23.5626 l -3,9.8124 c -2.07984,0.2605 -3.90354,0.2432 -5.9062,0.1878 z m -26.875,24.625 -0.78125,7.4376 c -0.697284,0.9275 -1.214377,1.063 -2.125,1.2812 z" fill="#70C041" fill-opacity="1" stroke="none" marker="none" visibility="visible" display="inline" overflow="visible"></path></g></svg>