<svg width="60" height="60" xmlns="http://www.w3.org/2000/svg" xmlns:svg="http://www.w3.org/2000/svg">
 <g>
  <title>Layer 1</title>
  <path fill="black" id="svg_1" d="m35.121,36.949l-6.394,-5.231c-0.887,-0.348 -1.727,-0.984 -1.727,-1.718l0.015,-0.187c-0.025,-0.25 0.005,-0.526 0.062,-0.806l0.923,-12.007c0,-1.104 0.896,-2 2,-2s2,0.896 2,2l0.837,10.872l5.113,6.25c0.78,0.781 0.78,2.047 0,2.828c-0.781,0.78 -2.048,0.78 -2.829,-0.001zm24.879,-6.949c0,16.568 -13.432,30 -30,30s-30,-13.432 -30,-30c0,-16.569 13.432,-30 30,-30c8.533,0 16.223,3.572 21.685,9.292c1.117,-0.651 1.959,-1.142 2.056,-1.198c0.393,-0.229 0.937,0.006 0.955,0.54c0.016,0.428 0.283,9.007 0.306,9.74c0.015,0.481 -0.487,0.765 -0.916,0.534c-0.478,-0.258 -8.212,-4.52 -8.761,-4.834c-0.402,-0.23 -0.47,-0.801 -0.037,-1.053c0.166,-0.097 1.368,-0.797 2.816,-1.641c-4.681,-4.558 -11.055,-7.38 -18.104,-7.38c-14.359,0 -26,11.641 -26,26s11.641,26 26,26s26,-11.641 26,-26c0,-0.338 -0.037,-0.666 -0.051,-1l0.051,0c0,-1.104 0.896,-2 2,-2s2,0.896 2,2c0,0.068 -0.014,0.134 -0.021,0.2c0.01,0.266 0.021,0.531 0.021,0.8z" clip-rule="evenodd" fill-rule="evenodd"/>
 </g>
</svg>
