<svg fill="#BE5B0C" xmlns="http://www.w3.org/2000/svg" xmlns:xlink="http://www.w3.org/1999/xlink" version="1.1" x="0px" y="0px" viewBox="0 0 100 100" enable-background="new 0 0 100 100" xml:space="preserve"><path d="M86.626,21.414L88,19.95v-1.414L81.729,12h-1.414l-1.464,1.575L70.166,5h-1.414L58,15.552v1.414l8.623,8.444  c-2.502,2.12-10,8.614-14.853,13.467c-2.788,2.788-5.269,5.619-7.943,8.616c-3.036,3.402-6.152,6.921-10.088,10.857  c-4.956,4.956-17.622,16.354-24.431,22.478c-1.832,1.646-3.242,2.921-3.988,3.6c-0.473,0.431-0.738,1.02-0.753,1.658  c-0.015,0.633,0.236,1.254,0.675,1.693l6.717,6.731C12.397,94.948,12.996,95,13.611,95c0.018,0,0.035,0,0.053,0  c0.639,0,1.228-0.087,1.657-0.56c0.936-1.025,2.961-3.24,5.526-6.169c6.323-7.22,15.879-18.082,20.34-22.543  c3.938-3.938,7.458-7.053,10.862-10.089c2.996-2.673,5.826-5.185,8.612-7.971c4.85-4.85,11.246-12.266,13.345-14.812L82.897,42  h1.414L95,31.112v-1.414L86.626,21.414z M81.022,14.499l4.743,4.744L85.009,20l-4.744-4.744L81.022,14.499z M69.459,7.278  l5.444,5.444c-2.601-1.914-5.071-3.584-6.414-4.473L69.459,7.278z M80.543,19.957c3.685,3.685,8.201,10.77,9.55,12.941l-3.863,3.863  c-2.424-1.552-10.757-6.965-13.648-9.856c-2.88-2.879-8.051-10.827-9.562-13.187l4.024-4.024  C69.304,11.184,76.831,16.246,80.543,19.957z M61.571,15.167c0.907,1.412,2.614,4.026,4.459,6.645l-5.552-5.552L61.571,15.167z   M6.569,86.133c0.002-0.062,0.021-0.15,0.104-0.227c0.743-0.678,2.156-1.948,3.982-3.591c2.042-1.836,4.613-4.148,7.342-6.616  c-4.25,6.6-6.14,12.409-6.884,15.262l-4.445-4.586C6.58,86.286,6.568,86.186,6.569,86.133z M13.844,93.288  c-0.076,0.084-0.165,0.103-0.227,0.104c-0.056,0.009-0.154-0.011-0.232-0.089l-0.857-0.639C13.118,89.998,17,76.744,29,65.206  v-0.001c3-2.141,4.544-4.046,5.938-5.44c3.977-3.977,7.253-7.517,10.307-10.939c2.654-2.976,5.221-5.786,7.969-8.534  c1.77-1.77,3.941-3.763,6.065-5.682c0.069,0.253,0.116,0.525,0.098,0.831c-0.309,5.199-11.955,15.245-24.294,25.882l-0.239,0.209  c-7.684,6.624-17.008,19.665-18.872,29.363C15.035,91.958,14.303,92.784,13.844,93.288z M39.773,64.363  c-4.508,4.508-14.09,15.449-20.431,22.688c-0.102,0.116-0.197,0.225-0.297,0.339c3.074-8.496,10.667-18.792,17.107-24.344  l0.243-0.21C49.613,51.442,61.029,41.602,61.388,35.56c0.052-0.876-0.127-1.661-0.509-2.358c1.639-1.46,3.206-2.827,4.515-3.956  c1.063,4.306-3.702,12.818-13.402,23.787c-0.424,0.379-0.844,0.755-1.274,1.139C47.293,57.226,43.751,60.385,39.773,64.363z   M62.519,42.838c4.415-6.669,5.936-11.693,4.516-15.002c0.48-0.41,0.876-0.746,1.184-1.007l4.366,4.366  C71.055,33.056,66.692,38.304,62.519,42.838z M83.604,39.386l-5.968-5.968c2.802,1.975,5.65,3.832,7.145,4.792L83.604,39.386z   M91.546,31.444c-0.839-1.34-2.382-3.742-4.182-6.261l5.221,5.221L91.546,31.444z"></path></svg>