<svg fill="#924607" xmlns="http://www.w3.org/2000/svg" xmlns:xlink="http://www.w3.org/1999/xlink" version="1.1" x="0px" y="0px" viewBox="0 0 100 100" enable-background="new 0 0 100 100" xml:space="preserve"><g><path d="M82.618,32.314l9.134-6.197c1.084-5.397,1.439-11.13,1.076-17.188c-0.18-1.538-1.028-1.733-1.646-1.691   c-9.149,2.669-36.021,12.318-44.556,36.523C46.329,44.782,42.428,57.5,33.176,57.5h-0.002c-1.171,0-2.382-0.201-3.6-0.62   c-2.234-0.766-4.684-1.265-7.081-1.265c-5.227,0-11.269,2.092-13.335,7.704c0.602,0.232,1.319,0.59,2.048,1.052   c1.029-1.44,4.6-5.701,4.6-5.701l-0.277,4.568l-3.958,1.394c0.94,0.652,1.858,1.531,2.521,2.691c0.86-0.051,1.979-0.208,3.06-0.634   l0.167-0.053c0.272-0.105,0.783-0.258,1.481-0.258c1.913,0,4.749,1.093,7.421,6.292l0.054,0.137   c0.019,0.049,2.124,4.438,5.684,8.354c0.069-0.164,0.54-0.323,0.54-0.478v0.013c0,0,0.187-1.175,1.491-0.549   c1.096,0.526,0.807,1.381,0.735,1.643c-0.248,0.577-0.577,1.155-0.789,1.723l-0.321,0.776c-0.174,0.497-0.347,0.947-0.47,1.358   c-0.027,0.09-0.063,0.177-0.089,0.266c-0.029,0.1-0.065,0.205-0.091,0.299c-0.024,0.086-0.047,0.166-0.068,0.248l-0.487,1.171   c-0.26-0.662-0.588-1.313-1.006-1.896l0.023-0.06l-0.103-0.043c-0.208-0.279-0.435-0.546-0.688-0.784   c-0.088-0.084-0.181-0.158-0.272-0.233c0.042-0.139,0.082-0.277,0.125-0.415c-0.439-0.433-0.854-0.873-1.249-1.316   c-0.11,0.306-0.214,0.607-0.312,0.904c-0.595-0.216-1.235-0.318-1.905-0.297l0.076,2.151c-0.314-0.535-0.687-1.036-1.136-1.46   c-0.992-0.938-2.232-1.398-3.612-1.359l0.104,2.92c0.614-0.031,1.073,0.156,1.5,0.559c0.167,0.158,0.319,0.345,0.459,0.548   c-0.088,0.033-0.176,0.07-0.264,0.113c-1.006-0.641-2.099-1.081-3.187-1.044c-0.875,0.02-2.123,0.337-3.106,1.781l2.415,1.485   c0.343-0.502,0.622-0.687,0.757-0.687c0.009,0,0.018,0,0.028,0c1.318,0,3.603,2.356,4.86,3.964l1.934,3.059l2.452-1.553   l-1.419-2.175l0.092-0.213c0.682,0.646,1.312,1.361,1.77,1.971l0.176,0.23l1.603,2.477l2.452-1.588l-1.42-2.191l2.495-6.014   c0.022-0.029,0.044-0.057,0.065-0.087l0.257-0.355c0.364-0.531,0.729-1.128,1.079-1.778c0.226-0.295,0.898-0.996,1.933-0.521   c0.989,0.454,0.931,1.184,0.852,1.499c-0.228,0.438-0.467,0.872-0.726,1.303c0.801,0.262,1.612,0.462,2.427,0.579l0.737,0.108   l0.359,0.657c0.103,0.194,2.417,4.397,0.792,9.578c0.856,0.138,1.672,0.282,3.672,0.354v-5.016c0-1.02,0.421-2.653,2.338,0.212   c0.104,0.154,0.12,0.286,0.206,0.41l2.82,4.223c3.367-0.382,6.412-1.262,9.154-2.628c0.146-0.103,0.347-0.226,0.642-0.369   c2.104-1.034,1.061-1.987,0.27-2.458c-6.197-2.3-15.402-7.825-14.878-20.266l0.041-1.078l1.043-0.272   c0.035-0.01,3.064-0.812,7.465-2.772l-1.005-2.976c-0.542-2.086,1.166-1.987,2.346-1.696l4.694,1.629   c1.908-1.079,3.764-2.245,5.541-3.482l-3.73-2.542c-2.951-2.065,0.485-1.809,2.114-1.6l5.726,1.034   c2.986-2.456,5.688-5.137,8.062-8.004L73.427,49.6c-3.242-0.639,1.646-2.931,2.327-3.241l9.176-2.636   c1.613-2.656,2.996-5.463,4.133-8.378l-5.225,0.687c-0.108,0.01-0.221,0.022-0.342,0.035   C78.196,36.658,81.509,33.324,82.618,32.314z M27.735,86.959c-0.07-0.177-0.145-0.354-0.224-0.527   c0.141,0.016,0.276,0.047,0.404,0.094L27.735,86.959z"></path><path d="M7.214,69.996c0.837-0.912,1.998-1.875,3.435-2.361c-0.89-0.84-1.992-1.345-2.74-1.617   C7.078,67.295,6.839,68.627,7.214,69.996z"></path><path d="M39.607,51.021c2.837-3.399,4.201-8.046,4.221-8.121l0.028-0.07c3.052-8.682,8.217-15.571,14.095-20.994   C58.233,19.354,56.824,8.7,51.166,2.37c-0.753-0.691-1.282-0.397-1.566-0.098C46.172,7.235,38.173,20.858,38.515,39.5   c0.185,0.963,1.059,6.202-0.812,10.616l0.067-0.061C37.77,50.056,36.23,53.754,39.607,51.021z"></path></g></svg>