<svg xmlns="http://www.w3.org/2000/svg" xmlns:xlink="http://www.w3.org/1999/xlink" version="1.1" x="0px" y="0px" viewBox="256 256 100 100" enable-background="new 256 256 100 100" xml:space="preserve"><g><path d="M352.549,315.184c-1.613-0.943-1.504-1.63,0.24-1.527c1.746,0.104,1.836-0.696,0.199-1.776l-0.93-0.613   c-1.637-1.082-1.613-1.976,0.055-1.986c1.666-0.011,1.615-0.774-0.117-1.697l-0.543-0.289c-1.73-0.923-1.799-1.836-0.146-2.03   c1.648-0.194,1.496-0.918-0.338-1.61l-1.541-0.58c-1.836-0.691-1.793-1.441,0.096-1.667c1.889-0.226,1.941-1,0.117-1.72   l-3.018-1.192c-1.824-0.721-1.83-1.899-0.016-2.619c1.816-0.719,1.744-1.694-0.16-2.165l-2.975-0.736   c-1.904-0.471-2.088-1.685-0.406-2.697l1.035-0.625c1.682-1.012,1.451-1.867-0.51-1.899l-5.725-0.094   c-1.961-0.033-2.254-0.984-0.65-2.113l2.215-1.559c1.604-1.129,1.322-1.863-0.625-1.629l-8.984,1.078   c-1.949,0.234-2.375-0.676-0.947-2.023l2.969-2.803c1.428-1.346,1.086-1.903-0.76-1.237l-7.912,2.854   c-1.846,0.666-2.832-0.307-2.191-2.161l0.75-2.168c0.641-1.854-0.082-2.359-1.604-1.122l-8.441,6.86   c-1.521,1.238-2.389,0.69-1.928-1.217l1.072-4.426c0.463-1.907-0.158-2.21-1.379-0.674l-6.87,8.651   c-1.22,1.537-2.456,1.206-2.747-0.734l-0.354-2.372c-0.291-1.94-1.336-2.141-2.324-0.445l-4.102,7.045   c-0.987,1.696-1.793,1.478-1.79-0.484l0.003-1.901c0.003-1.962-0.92-2.257-2.053-0.655l-4.471,6.323   c-1.133,1.602-2.135,1.31-2.228-0.65l-0.102-2.183c-0.092-1.959-0.726-2.059-1.41-0.219l-1.976,5.323   c-0.683,1.839-1.958,1.908-2.833,0.151l-0.772-1.549c-0.876-1.756-1.8-1.601-2.053,0.345l-0.95,7.281   c-0.253,1.946-1.103,2.066-1.886,0.268l-0.158-0.362c-0.785-1.797-1.496-1.665-1.58,0.294c0,0-0.663,15.395-0.872,17.994   c-0.21,2.599-2.201,6.604-2.992,7.606c-1.06,1.341-5.492,5.111-5.492,5.111c-1.494,1.271-2.041,3.223-1.215,4.335   c0,0,0,0,2.514-1.699c2.516-1.699,5.917-4.116,5.917-4.116c1.599-1.139,4.497-2.281,6.442-2.544c0,0,1.993-0.267,8.022,1.646   c2.404,0.763,4.275,2.351,4.275,2.351c1.497,1.27,1.616,3.385,0.269,4.699c-1.349,1.316-1.004,1.701,0.767,0.855l1.229-0.588   c1.771-0.846,2.744-0.291,2.163,1.231c-0.58,1.522,0.151,1.71,1.626,0.415l0.206-0.181c1.474-1.295,2.438-1.172,2.142,0.271   c-0.296,1.443,0.511,1.411,1.794-0.072l1.102-1.274c1.283-1.482,3.924-2.482,5.869-2.22l6.102,0.821   c1.945,0.263,4.975,0.54,6.736,0.616c1.758,0.077,2.9-0.152,2.537-0.508c-0.363-0.356,0.936-0.476,2.885-0.263l1.395,0.151   c1.949,0.212,3-0.14,2.332-0.782c-0.666-0.644,0.363-0.863,2.289-0.491l1.424,0.276c1.926,0.373,2.904,0.147,2.172-0.5   c-0.734-0.647,0.238-0.844,2.156-0.438l0.27,0.058c1.92,0.406,3.254-0.088,2.969-1.099c-0.287-1.01,0.783-0.902,2.379,0.241   l2.729,1.955c1.596,1.144,2.535,1.05,2.088-0.21c-0.445-1.258,0.598-1.517,2.318-0.574l1.672,0.918   c1.721,0.944,2.201,0.405,1.066-1.195l-0.225-0.316c-1.133-1.601-0.605-2.235,1.174-1.409l0.691,0.321   c1.777,0.825,2.059,0.407,0.623-0.93l-2.195-2.044c-1.436-1.336-1.057-2.488,0.842-2.559c1.9-0.07,2.531-0.53,1.406-1.022   c-1.123-0.492-0.723-1.414,0.896-2.046c1.617-0.634,2.02-1.899,0.895-2.813s-0.844-1.859,0.623-2.099   C354.277,317.093,354.16,316.125,352.549,315.184z M276.411,318.367c-0.095,1.173-1.124,2.048-2.298,1.953   c-1.173-0.094-2.049-1.122-1.955-2.298c0.095-1.174,1.124-2.05,2.297-1.954C275.63,316.163,276.505,317.191,276.411,318.367z    M323.955,288.407c1.82-0.731,1.973-0.44,0.34,0.647l-9.191,6.122c-1.633,1.088-4.17,2.108-5.637,2.268   c-1.467,0.159-1.908-0.563-0.98-1.605c0.928-1.043,3.176-2.495,4.996-3.226L323.955,288.407z M306.073,289.453   c1.589-1.152,1.808-0.907,0.487,0.545l-5.217,5.738c-1.32,1.452-3.327,2.982-4.461,3.401s-1.628-0.066-1.099-1.08   c0.531-1.012,2.263-2.784,3.852-3.936L306.073,289.453z M285.509,301.969c0.359-1.085,1.782-3.114,3.162-4.508l5.597-5.651   c1.381-1.395,1.637-1.188,0.57,0.458l-4.218,6.509c-1.068,1.646-2.8,3.482-3.852,4.079   C285.717,303.454,285.15,303.054,285.509,301.969z M279.025,309.185c-0.555,0.62-1.012,0.483-1.017-0.304   c-0.003-0.787,0.703-2.873,1.568-4.634l1.437-2.925c0.866-1.761,1.174-1.647,0.686,0.253l-0.776,3.025   C280.436,306.502,279.582,308.564,279.025,309.185z M283.312,313.12c-1.627,0.146-2.229-0.733-1.335-1.956   c0.894-1.222,3.104-2.846,4.912-3.609l11.673-4.929c1.809-0.763,2-0.428,0.428,0.745l-9.857,7.352   C287.559,311.896,284.941,312.974,283.312,313.12z M311.18,311.173c1.959,0.116,1.973,0.445,0.033,0.73l-7.674,1.13   c-1.94,0.286-4.464,0.197-5.606-0.197c-1.143-0.394-1.217-1.083-0.166-1.53c1.052-0.448,3.515-0.719,5.474-0.604L311.18,311.173z    M287.065,323.69c-1.808-0.76-3.725-1.905-4.258-2.545c-0.533-0.641-0.332-1.072,0.448-0.961c0.78,0.109,2.74,1.112,4.356,2.225   l2.684,1.849c1.616,1.112,1.458,1.401-0.351,0.642L287.065,323.69z M293.325,318.854c-1.962,0-4.444-0.456-5.517-1.014   c-1.074-0.557-1.046-1.248,0.06-1.539c1.105-0.288,3.583-0.196,5.503,0.204l7.785,1.623c1.92,0.4,1.888,0.729-0.075,0.728   L293.325,318.854z M300.521,324.313c-1.952-0.195-4.093-0.718-4.756-1.161c-0.664-0.443-0.6-0.904,0.143-1.026   c0.744-0.122,2.879,0.27,4.748,0.868l2.658,0.851c1.869,0.6,1.8,0.929-0.152,0.733L300.521,324.313z M315.764,318.415   c-1.951,0.2-4.412-0.022-5.465-0.491c-1.053-0.47-1.096-1.183-0.098-1.585c1-0.403,3.41-0.532,5.357-0.288l6.963,0.87   c1.947,0.243,1.943,0.605-0.008,0.804L315.764,318.415z M313.377,304.713c-1.77,0.844-4.561,1.49-6.201,1.435   c-1.64-0.055-2.011-0.919-0.827-1.92c1.186-1.001,3.717-2.201,5.622-2.666l12.967-3.167c1.904-0.466,2.016-0.155,0.246,0.689   L313.377,304.713z"></path></g></svg>