<svg fill="#4C4C4C" xmlns="http://www.w3.org/2000/svg" xmlns:xlink="http://www.w3.org/1999/xlink" version="1.1" x="0px" y="0px" viewBox="0 0 512 512" enable-background="new 0 0 512 512" xml:space="preserve"><g><path d="M469.342,288c-5.905,0-10.687,4.766-10.687,10.656s4.781,10.672,10.687,10.672c5.875,0,10.656-4.781,10.656-10.672   S475.217,288,469.342,288z"></path><path d="M384,32.001c5.89,0,10.655-4.781,10.655-10.672S389.89,10.658,384,10.658c-5.891,0-10.656,4.781-10.656,10.672   S378.109,32.001,384,32.001z"></path><path d="M128.001,490.654c-5.891,0-10.664,4.781-10.664,10.672s4.773,10.672,10.664,10.672s10.664-4.781,10.664-10.672   S133.892,490.654,128.001,490.654z"></path><path d="M42.666,330.656c-5.891,0-10.664,4.781-10.664,10.672S36.775,352,42.666,352c5.89,0,10.671-4.781,10.671-10.672   S48.556,330.656,42.666,330.656z"></path><path d="M106.665,42.658v10.671c0,5.891,4.781,10.672,10.672,10.672s10.664-4.781,10.664-10.672V42.658   c5.891,0,10.664-4.781,10.664-10.656c0-5.906-4.773-10.672-10.664-10.672V10.658c0-5.891-4.773-10.656-10.664-10.656   s-10.672,4.766-10.672,10.656V21.33c-5.891,0-10.664,4.766-10.664,10.672C96.001,37.876,100.774,42.658,106.665,42.658z"></path><path d="M447.999,426.654v-10.656c0-5.906-4.781-10.672-10.656-10.672c-5.906,0-10.688,4.766-10.688,10.672v10.656   c-5.875,0-10.656,4.781-10.656,10.672s4.781,10.672,10.656,10.672v10.656c0,5.891,4.781,10.672,10.688,10.672   c5.875,0,10.656-4.781,10.656-10.672v-10.656c5.891,0,10.656-4.781,10.656-10.672S453.89,426.654,447.999,426.654z"></path><path d="M447.999,132.032c0-0.312,0-0.625-0.016-0.938l-0.062-1.125c-0.203-9.875-8.109-17.906-17.797-18.093   c-32.562-1.297-114.218-10.156-172.46-64.234c-0.391-0.359-0.805-0.688-1.242-0.984c-0.438-0.406-0.914-0.766-1.422-1.094   c-2.844-1.844-6.125-2.844-9.508-2.906c-0.117,0-0.234,0-0.352,0c-4.477,0.062-8.758,1.812-12.07,4.937   c-58.304,54.109-139.866,62.984-172.382,64.281c-9.812,0.188-17.797,8.281-17.945,18.203l-0.07,1.859   c-0.007,0.25-0.007,0.516,0,0.766c5.711,163.562,103.047,290.419,192.226,354.623c0.031,0.016,0.062,0.047,0.102,0.062   c3.039,2.141,6.609,3.266,10.328,3.266c3.734,0,7.32-1.141,10.32-3.266l1.188-0.844c0.039-0.016,0.086-0.047,0.125-0.078   C306,450.889,351.062,401.092,383.844,346.25c18.858-31.547,33.843-64.859,44.515-99   C440.093,209.75,446.687,170.985,447.999,132.032z M245.336,468.529C161.017,406.998,69.829,287.156,64.032,133.094   c35.984-1.75,119.453-12.015,181.312-67.812c61.688,55.719,145.124,66.046,181.265,67.796   C420.812,287.047,329.469,407.107,245.336,468.529z"></path><path d="M251.242,84.188c-0.258-0.188-0.531-0.344-0.805-0.5c-0.016,0-0.023-0.016-0.023-0.016   c-0.305-0.156-0.609-0.312-0.914-0.438c-0.047-0.016-0.094-0.031-0.141-0.047c-0.25-0.109-0.508-0.203-0.766-0.281   c-0.102-0.031-0.203-0.062-0.305-0.094c-0.211-0.062-0.43-0.125-0.648-0.172c-0.109-0.016-0.219-0.047-0.336-0.062   c-0.227-0.047-0.453-0.078-0.68-0.109c-0.102,0-0.203-0.016-0.297-0.031c-0.336-0.031-0.664-0.047-1-0.047l0,0   c-0.016,0-0.023,0-0.031,0c-0.312,0-0.633,0.016-0.945,0.047c-0.133,0.016-0.258,0.031-0.391,0.047   c-0.18,0.016-0.367,0.047-0.555,0.078c-0.156,0.031-0.312,0.062-0.461,0.094c-0.148,0.047-0.297,0.078-0.445,0.125   c-0.172,0.047-0.336,0.094-0.5,0.141c-0.125,0.047-0.234,0.078-0.352,0.125c-0.672,0.25-1.312,0.562-1.914,0.938   c-0.07,0.047-0.148,0.078-0.219,0.125c-0.18,0.125-0.359,0.25-0.531,0.375c-0.055,0.047-0.109,0.078-0.172,0.125   c-25.929,20.016-57.062,35.359-92.507,45.593c-19.531,5.656-39.984,9.656-60.789,11.891c-5.781,0.625-10,5.781-9.477,11.578   c2.602,28.672,8.344,57.234,17.062,84.89c10.023,31.797,24.078,62.828,41.773,92.266c27.516,45.75,63.328,86.904,103.593,119.045   c0.062,0.047,0.133,0.109,0.203,0.156l0.016,0.016c0.016,0.016,0.031,0.031,0.055,0.047c0.664,0.516,1.383,0.953,2.164,1.312   c0.047,0.016,0.086,0.047,0.133,0.062c0.195,0.094,0.391,0.156,0.586,0.234c0.109,0.031,0.211,0.078,0.328,0.109   c0.172,0.062,0.352,0.125,0.531,0.172c0.141,0.031,0.281,0.062,0.422,0.109c0.164,0.031,0.328,0.062,0.492,0.094   c0.18,0.031,0.359,0.062,0.531,0.078c0.141,0.031,0.281,0.047,0.422,0.062c0.305,0.031,0.617,0.047,0.93,0.047   c0.016,0,0.031,0,0.047,0l0,0h0.008c0.328,0,0.664-0.016,0.992-0.047c0.109-0.016,0.203-0.031,0.305-0.047   c0.227-0.031,0.461-0.062,0.688-0.094c0.117-0.031,0.227-0.047,0.344-0.078c0.211-0.047,0.422-0.109,0.633-0.172   c0.109-0.031,0.219-0.062,0.32-0.094c0.234-0.062,0.461-0.156,0.695-0.25c0.07-0.031,0.141-0.047,0.211-0.078   c0.867-0.375,1.695-0.859,2.461-1.469c28.469-22.703,69.75-62.047,104.672-120.67c32.905-55.219,52.405-114.328,57.952-175.718   c0.516-5.797-3.703-10.938-9.484-11.562c-20.781-2.25-41.218-6.25-60.718-11.875c-35.484-10.234-66.625-25.578-92.555-45.609   c-0.148-0.109-0.305-0.219-0.453-0.328C251.344,84.251,251.297,84.22,251.242,84.188z M234.656,210.829v26.328L212.728,224   L234.656,210.829z M224.594,256l-21.937,13.156v-26.328L224.594,256z M234.422,274.969l-0.32,25.844L212.728,288L234.422,274.969z    M255.43,301.484l0.336-26.797L277.922,288L255.43,301.484z M288,269.156L266.055,256L288,242.828V269.156z M255.992,237.156   v-26.328L277.938,224L255.992,237.156z M153.157,319.828c-16.828-27.984-30.188-57.484-39.711-87.688   c-7.211-22.89-12.273-46.421-15.086-70.109c18.391-2.5,36.469-6.297,53.867-11.328c30.555-8.828,58.188-21.25,82.429-37.031v72.281   l-48.069,28.843c-0.016,0.016-0.031,0.016-0.047,0.031l-0.031,0.016c-0.242,0.141-0.469,0.297-0.695,0.453   c-0.086,0.062-0.172,0.125-0.258,0.203c-0.18,0.125-0.352,0.266-0.516,0.406c-0.062,0.062-0.133,0.109-0.195,0.172   c-0.211,0.188-0.414,0.391-0.609,0.594c-0.07,0.078-0.133,0.141-0.195,0.219c-0.195,0.219-0.383,0.438-0.555,0.672   c-0.016,0.016-0.031,0.047-0.047,0.062c-0.188,0.25-0.359,0.516-0.523,0.781c-0.023,0.031-0.047,0.062-0.07,0.094   c-0.016,0.031-0.023,0.062-0.039,0.094c-0.164,0.266-0.305,0.531-0.445,0.812c-0.031,0.062-0.055,0.125-0.078,0.188   c-0.109,0.234-0.203,0.469-0.289,0.703c-0.031,0.078-0.062,0.156-0.094,0.25c-0.086,0.266-0.164,0.531-0.242,0.812   c-0.023,0.094-0.047,0.203-0.07,0.297c-0.047,0.219-0.086,0.422-0.117,0.641c-0.016,0.094-0.031,0.188-0.047,0.281   c-0.039,0.266-0.062,0.547-0.078,0.828c0,0.094-0.008,0.203-0.008,0.297s-0.008,0.188-0.008,0.297v64c0,0.094,0,0.188,0.008,0.281   c0,0.094,0,0.188,0.008,0.297c0.016,0.281,0.039,0.562,0.078,0.828c0.008,0.094,0.031,0.188,0.047,0.281   c0.031,0.219,0.07,0.422,0.117,0.641c0.023,0.094,0.047,0.203,0.07,0.297c0.07,0.281,0.156,0.547,0.242,0.812   c0.031,0.094,0.062,0.172,0.094,0.25c0.086,0.234,0.18,0.469,0.281,0.703c0.031,0.062,0.055,0.125,0.086,0.188   c0.133,0.281,0.281,0.547,0.445,0.828c0.016,0.016,0.023,0.047,0.039,0.078c0.031,0.047,0.07,0.109,0.109,0.156   c0.062,0.109,0.133,0.219,0.195,0.312c0.07,0.094,0.141,0.203,0.211,0.297c0.062,0.078,0.125,0.172,0.188,0.25   c0.078,0.109,0.164,0.219,0.25,0.312c0.055,0.078,0.109,0.141,0.172,0.203c0.102,0.109,0.203,0.234,0.305,0.328   c0.047,0.062,0.094,0.109,0.148,0.156c0.117,0.125,0.234,0.234,0.352,0.344c0.047,0.047,0.086,0.078,0.133,0.125   c0.133,0.109,0.266,0.219,0.398,0.328c0.039,0.031,0.086,0.078,0.125,0.109c0.141,0.109,0.281,0.203,0.43,0.312   c0.039,0.031,0.094,0.062,0.141,0.094c0.141,0.094,0.281,0.188,0.43,0.281c0.023,0.016,0.047,0.031,0.07,0.047l48.155,28.891   v92.639C203.517,390.67,175.048,356.234,153.157,319.828z M392.296,162.016c-6.422,54.515-24.546,107.078-53.952,156.437   c-26.734,44.844-57.312,77.826-82.352,100.264v-92.686l48.164-28.891c0.016-0.016,0.047-0.031,0.062-0.047   c0.156-0.094,0.281-0.188,0.438-0.281c0.031-0.031,0.094-0.062,0.141-0.109c0.141-0.094,0.281-0.188,0.422-0.297   c0.031-0.031,0.094-0.078,0.125-0.109c0.141-0.109,0.266-0.219,0.391-0.328c0.047-0.047,0.094-0.078,0.141-0.125   c0.125-0.109,0.234-0.219,0.344-0.344c0.062-0.047,0.109-0.094,0.156-0.156c0.109-0.109,0.203-0.219,0.312-0.328   c0.047-0.062,0.109-0.141,0.156-0.203c0.094-0.094,0.188-0.203,0.25-0.312c0.078-0.078,0.141-0.172,0.203-0.25   c0.078-0.094,0.141-0.203,0.203-0.297s0.125-0.203,0.188-0.312c0.047-0.047,0.094-0.109,0.125-0.156   c0-0.031,0.031-0.062,0.031-0.078c0.156-0.281,0.312-0.547,0.438-0.828c0.031-0.062,0.062-0.125,0.094-0.188   c0.094-0.234,0.188-0.469,0.281-0.703c0.031-0.078,0.062-0.156,0.094-0.25c0.094-0.266,0.172-0.531,0.25-0.812   c0.016-0.094,0.031-0.203,0.062-0.297c0.047-0.219,0.094-0.422,0.125-0.641c0-0.094,0.031-0.188,0.031-0.281   c0.047-0.266,0.062-0.547,0.094-0.828c0-0.109,0-0.203,0-0.297s0.016-0.188,0.016-0.281v-64c0-0.109-0.016-0.203-0.016-0.297   s0-0.203,0-0.297c-0.031-0.281-0.047-0.562-0.094-0.828c0-0.094-0.031-0.188-0.031-0.281c-0.031-0.219-0.078-0.422-0.125-0.641   c-0.031-0.094-0.047-0.203-0.062-0.297c-0.078-0.281-0.156-0.547-0.25-0.828c-0.031-0.078-0.062-0.156-0.094-0.234   c-0.094-0.234-0.188-0.469-0.281-0.703c-0.031-0.062-0.062-0.125-0.094-0.188c-0.125-0.281-0.281-0.547-0.438-0.812   c0-0.031-0.031-0.062-0.031-0.094c-0.031-0.031-0.062-0.062-0.078-0.094c-0.156-0.266-0.328-0.531-0.516-0.781   c-0.016-0.016-0.031-0.047-0.062-0.078c-0.172-0.219-0.344-0.438-0.531-0.656c-0.078-0.078-0.141-0.141-0.219-0.219   c-0.188-0.203-0.375-0.406-0.594-0.594c-0.062-0.062-0.156-0.125-0.219-0.188c-0.156-0.125-0.312-0.266-0.5-0.391   c-0.078-0.062-0.172-0.141-0.266-0.203c-0.219-0.156-0.453-0.312-0.672-0.453l-0.031-0.016c-0.031-0.016-0.047-0.016-0.062-0.031   l-48.07-28.843v-72.281c24.242,15.781,51.914,28.218,82.492,37.046C355.859,155.735,373.906,159.516,392.296,162.016z"></path></g></svg>