<svg fill="#5d5b5b" xmlns="http://www.w3.org/2000/svg" xmlns:xlink="http://www.w3.org/1999/xlink" version="1.1" x="0px" y="0px" viewBox="0 0 100 100" enable-background="new 0 0 100 100" xml:space="preserve"><path fill-rule="evenodd" clip-rule="evenodd" d="M22.661,85.55c0.002-0.003,0.004-0.007,0.005-0.009  c0.001-0.003,0.003-0.006-0.002,0.003L22.661,85.55z"></path><path fill-rule="evenodd" clip-rule="evenodd" d="M67.601,66.591c0.017-0.038,0.035-0.077,0.055-0.115  c-0.131,0.088-0.281,0.171-0.456,0.239c-0.412,0.167-0.926,0.276-1.478,0.303c-0.275,0.015-0.564,0.012-0.851-0.003  c-0.29-0.014-0.581-0.048-0.873-0.071c-0.29-0.048-0.582-0.078-0.864-0.143c-0.142-0.03-0.282-0.057-0.421-0.089  c-0.137-0.036-0.272-0.072-0.405-0.107c-0.265-0.078-0.519-0.162-0.75-0.264c-0.117-0.047-0.231-0.095-0.337-0.15  c-0.106-0.053-0.212-0.101-0.306-0.159c-0.194-0.106-0.361-0.222-0.502-0.333c-0.142-0.11-0.258-0.215-0.345-0.31  c-0.069-0.069-0.119-0.135-0.156-0.186c-0.11,0.659-0.245,1.223-0.409,1.635c-0.886,2.214-5.027,5.849-6.47,6.727  c-1.383,0.843-3.757,2.417-4.458,3.119c-0.661,0.662-1.039,2.232-0.775,3.231c0.188,0.714,0.721,0.792,0.943,0.792  c0.008,0,0.016,0,0.022,0c0.154-0.078,0.817-0.422,1.722-1.036c-0.016-0.003-0.03-0.008-0.048-0.011  c0.002-0.045,0.005-0.089,0.006-0.134c0.141,0.006,0.295-0.071,0.447-0.137c0.349-0.248,0.724-0.531,1.112-0.85  c0.695-0.568,1.974-1.11,3.591-1.796c2.737-1.162,6.145-2.608,8.662-4.988c0.805-0.761,1.497-1.605,2.096-2.509  c-0.002-0.012-0.004-0.024-0.007-0.037c0.402-0.739,0.805-1.479,1.207-2.218C67.569,66.857,67.585,66.724,67.601,66.591z"></path><path fill-rule="evenodd" clip-rule="evenodd" d="M89.813,23.118c-0.205-0.157-0.418-0.32-0.633-0.503  c-0.322-0.274-0.627-0.547-0.921-0.812c-0.724-0.652-1.472-1.326-2.6-2.104c-1.579-1.089-1.835-1.134-3.068-1.348  c-1.341-0.233-3.72-0.809-5.156-1.208c-1.611-0.448-3.72-0.728-6.267-0.833c-0.164-0.006-0.317-0.01-0.463-0.01  c-1.387,0-1.906,0.287-2.094,0.458c0.006,0.012,0.01,0.024,0.018,0.039c0.038,0.078,0.121,0.191,0.278,0.292  c0.076,0.049,0.174,0.098,0.277,0.134c0.025,0.01,0.051,0.019,0.077,0.028c0.031,0.009,0.065,0.018,0.098,0.026  c0.066,0.018,0.134,0.036,0.202,0.054c0.147,0.035,0.292,0.087,0.439,0.14c0.146,0.059,0.292,0.116,0.431,0.188  c0.563,0.274,1.062,0.643,1.411,0.938c0.353,0.295,0.56,0.519,0.56,0.519s-0.236-0.195-0.618-0.439  c-0.38-0.244-0.913-0.537-1.474-0.724c-0.139-0.051-0.282-0.086-0.421-0.123c-0.14-0.03-0.277-0.061-0.411-0.073  c-0.071-0.011-0.141-0.02-0.208-0.029c-0.035-0.005-0.068-0.009-0.101-0.014c-0.039-0.009-0.078-0.017-0.114-0.025  c-0.148-0.034-0.279-0.082-0.403-0.142c-0.243-0.12-0.424-0.296-0.521-0.445c-0.003-0.004-0.004-0.008-0.008-0.012  c-0.154,0.032-0.37,0.063-0.632,0.063c-0.313,0-0.629-0.044-0.939-0.13c-0.189-0.053-0.617-0.116-1.576-0.116  c-1.336,0-2.924,0.121-2.939,0.122l-1.771,0.11c-0.084,0.005-2.044,0.123-2.767,0.123c-0.189,0-0.249-0.009-0.286-0.018  c-0.081-0.019-0.151-0.074-0.23-0.152c-0.005,0.002-0.008,0.004-0.014,0.007c-0.043,0.022-0.103,0.047-0.178,0.081  c-0.152,0.064-0.369,0.147-0.633,0.232c-0.133,0.039-0.282,0.087-0.43,0.123c-0.147,0.037-0.312,0.08-0.458,0.12  c-0.15,0.047-0.309,0.101-0.466,0.169c-0.158,0.063-0.316,0.141-0.475,0.216c-0.631,0.314-1.237,0.694-1.684,0.988  c-0.445,0.296-0.733,0.509-0.733,0.509s0.263-0.243,0.676-0.587c0.413-0.343,0.977-0.789,1.587-1.182  c0.154-0.096,0.309-0.193,0.469-0.278c0.156-0.089,0.32-0.166,0.481-0.236c0.171-0.069,0.316-0.122,0.463-0.174  c0.146-0.052,0.269-0.105,0.389-0.154c0.238-0.104,0.429-0.2,0.56-0.27c0.005-0.003,0.008-0.005,0.014-0.008  c-0.313-0.285-0.769-0.588-1.479-0.669c-0.118-0.014-0.25-0.021-0.393-0.021c-1.108,0-2.743,0.412-4.185,0.776  c-0.499,0.126-0.97,0.245-1.41,0.345c-1.216,0.278-1.807,0.487-2.623,0.776c-0.474,0.167-1.011,0.357-1.781,0.601  c-0.388,0.123-0.765,0.237-1.13,0.347c-1.602,0.483-2.984,0.9-4.402,1.786c-1.503,0.939-2.385,1.906-3.501,3.128  c-0.176,0.192-0.355,0.39-0.546,0.594c-1.429,1.543-2.443,2.941-2.487,3.188c0,0.246,0.327,2.377,0.603,3.476  c0.213,0.853,0.111,1.752,0.046,2.347c-0.021,0.193-0.04,0.36-0.04,0.464c0,0.354,0.538,1.224,1.059,1.86  c0.188,0.23,0.471,0.451,0.8,0.707c0.486,0.381,1.095,0.854,1.635,1.564c0.59,0.774,0.957,1.175,1.127,1.35l1.343-0.996  c0.009-0.01,0.015-0.019,0.023-0.031c0.079-0.103,0.194-0.246,0.341-0.412c0.146-0.166,0.32-0.355,0.523-0.546  c0.102-0.096,0.21-0.191,0.325-0.283c0.112-0.092,0.251-0.191,0.365-0.263l0.05-0.031l0.039-0.022  c0.026-0.016,0.053-0.027,0.078-0.047c0.053-0.037,0.106-0.073,0.157-0.117c0.104-0.082,0.201-0.176,0.295-0.267  c0.187-0.185,0.351-0.371,0.489-0.534c0.275-0.327,0.444-0.56,0.444-0.56s-0.118,0.261-0.325,0.64  c-0.105,0.19-0.231,0.41-0.384,0.639c-0.078,0.114-0.159,0.231-0.255,0.347c-0.047,0.058-0.1,0.115-0.155,0.172  c-0.024,0.029-0.059,0.055-0.09,0.083L41.06,37.08c-0.004,0.006-0.024,0.02-0.037,0.03c-0.122,0.088-0.211,0.163-0.311,0.255  c-0.098,0.089-0.19,0.184-0.278,0.277c-0.174,0.188-0.326,0.376-0.452,0.541c-0.127,0.165-0.225,0.306-0.292,0.406  c-0.017,0.024-0.03,0.045-0.043,0.064l-0.483,1.888c0.523,0.319,1.408,0.839,1.717,0.956c0.373,0.14,2.157,0.764,2.673,0.944  l-0.022-0.027c0,0,0.021-0.016,0.061-0.046c0.037-0.028,0.092-0.064,0.161-0.11c0.138-0.09,0.337-0.211,0.581-0.341  c0.123-0.062,0.262-0.135,0.401-0.198c0.139-0.062,0.291-0.133,0.428-0.199c0.141-0.072,0.286-0.153,0.429-0.249  c0.146-0.089,0.287-0.194,0.43-0.296c0.566-0.421,1.095-0.902,1.481-1.271c0.386-0.37,0.633-0.631,0.633-0.631  s-0.216,0.286-0.561,0.698c-0.347,0.411-0.822,0.949-1.354,1.444c-0.135,0.121-0.27,0.245-0.412,0.357  c-0.138,0.115-0.285,0.22-0.433,0.318c-0.154,0.098-0.288,0.176-0.423,0.252c-0.136,0.078-0.245,0.152-0.355,0.222  c-0.217,0.144-0.389,0.271-0.503,0.364c-0.025,0.021-0.047,0.038-0.065,0.054c0.194,0.207,0.424,0.509,0.461,0.812  c0.041,0.32,0.882,1,1.559,1.546l0.247,0.2c0.754,0.613,3.959,1.346,4.864,1.346c0.065,0,0.096-0.004,0.106-0.007  c0.23-0.046,0.752-1.132,1.116-2.324c0.028-0.09,0.114-0.149,0.209-0.143c0.094,0.008,0.171,0.079,0.185,0.173  c0.109,0.755,0.244,1.589,0.31,1.872c0.063,0.004,0.172,0.009,0.354,0.012c0.063-0.497,0.117-0.875,0.148-1.089  c-0.026-0.003-0.054-0.012-0.077-0.028c-0.035-0.023-0.061-0.055-0.074-0.091c-0.048-0.12-0.073-0.228-0.104-0.34  c-0.034-0.11-0.055-0.223-0.075-0.335l-0.062-0.338c-0.021-0.113-0.024-0.219-0.036-0.329l-0.032-0.328l-0.014-0.164l-0.003-0.041  c-0.002-0.033,0-0.035-0.001-0.053l0.001-0.09c-0.002-0.239,0.038-0.468,0.084-0.693c0.104-0.446,0.251-0.868,0.414-1.278  c0.163-0.412,0.336-0.815,0.502-1.219c0.166-0.404,0.333-0.809,0.478-1.216c0.074-0.203,0.14-0.416,0.216-0.619l0.227-0.622  c0.075-0.208,0.149-0.415,0.23-0.62l0.266-0.605c0.088-0.202,0.175-0.403,0.277-0.599c0.099-0.197,0.199-0.392,0.31-0.582  c-0.091,0.2-0.165,0.407-0.246,0.61c-0.086,0.201-0.156,0.409-0.227,0.616l-0.214,0.62l-0.186,0.629l-0.188,0.627  c-0.064,0.212-0.119,0.421-0.188,0.633c-0.133,0.426-0.278,0.84-0.435,1.252c-0.156,0.412-0.318,0.82-0.469,1.228  c-0.074,0.204-0.148,0.408-0.213,0.612c-0.068,0.204-0.123,0.41-0.168,0.615c-0.041,0.205-0.074,0.411-0.07,0.611L53.51,43.12  c0,0.009,0.001,0.034,0,0.029l0.003,0.041l0.016,0.164l0.03,0.328c0.011,0.108,0.013,0.222,0.032,0.325l0.055,0.309  c0.015,0.092,0.032,0.183,0.057,0.272c0.045-0.044,0.089-0.089,0.141-0.128c0.078-0.058,0.159-0.115,0.253-0.156  c0.092-0.044,0.191-0.074,0.296-0.092c0.051-0.009,0.104-0.009,0.157-0.012c0.052,0.002,0.104,0.009,0.157,0.014l0.151,0.039  c0.062,0.022,0.085,0.035,0.129,0.053c0.079,0.036,0.157,0.063,0.237,0.105l0.239,0.124c0.16,0.082,0.303,0.172,0.454,0.259  l0.44,0.272c0.19,0.123,0.379,0.247,0.567,0.373c0.003-0.034,0.008-0.068,0.021-0.103c0.032-0.092,0.104-0.166,0.176-0.205  c0.018-0.013,0.035-0.019,0.053-0.028l0.027-0.012l0.012-0.005l0.042-0.023l0.021-0.012c0.003-0.004,0.004-0.007,0.006-0.011  c0.006-0.011,0.02-0.018,0.03-0.046c0.014-0.021,0.025-0.044,0.032-0.073c0.021-0.052,0.029-0.115,0.039-0.176  c0.018-0.125,0.021-0.255,0.024-0.386c0.005-0.263,0.002-0.528,0.013-0.794c0.009-0.265,0.039-0.531,0.091-0.791  c-0.01,0.132-0.018,0.264-0.018,0.396s0.002,0.263,0.008,0.395c0.011,0.264,0.036,0.525,0.053,0.791  c0.007,0.134,0.014,0.267,0.007,0.406c-0.006,0.07-0.009,0.14-0.029,0.214c-0.008,0.037-0.021,0.074-0.039,0.111  c-0.012,0.035-0.044,0.078-0.081,0.116l-0.027,0.027l-0.021,0.013l-0.041,0.027l-0.052,0.027c-0.011,0.007-0.025,0.011-0.033,0.02  c-0.043,0.027-0.064,0.06-0.074,0.093c-0.009,0.033-0.006,0.076,0.01,0.123c0.017,0.045,0.046,0.099,0.075,0.133  c0.043,0.056,0.033,0.136-0.021,0.179c-0.033,0.026-0.075,0.033-0.113,0.022c-0.021,0.081-0.053,0.201-0.092,0.353  c0.851-0.021,1.499-0.041,1.513-0.041c0.002,0,0.004,0,0.007,0c0.091,0,0.17,0.061,0.194,0.148c0.002,0.006,0.169,0.617,0.495,1.65  c0.35,1.107,1.169,4.963,1.169,7.407c0,1.701,0,5.303-0.276,8.156c0.059,0.021,0.131,0.045,0.217,0.072  c0.126,0.041,0.278,0.086,0.455,0.132c0.178,0.047,0.38,0.094,0.599,0.144c0.22,0.051,0.458,0.098,0.712,0.145  c0.255,0.048,0.523,0.086,0.803,0.132c0.278,0.041,0.565,0.086,0.859,0.119c0.293,0.038,0.592,0.068,0.891,0.096  c0.3,0.027,0.599,0.056,0.895,0.083c0.289,0.016,0.587,0.039,0.861,0.03c0.14,0.003,0.276-0.004,0.41-0.016  c0.134-0.005,0.266-0.014,0.391-0.033c0.127-0.014,0.251-0.031,0.368-0.059c0.059-0.012,0.115-0.024,0.173-0.036  c0.056-0.016,0.11-0.033,0.164-0.048c0.214-0.061,0.398-0.146,0.561-0.227c0.107-0.063,0.203-0.126,0.282-0.189  c0.045-0.102,0.09-0.204,0.133-0.307c0.188-0.636,0.356-1.277,0.508-1.918c-0.004,0.004-0.007,0.007-0.01,0.012  c-0.088,0.103-0.214,0.205-0.368,0.313c-0.159,0.098-0.347,0.199-0.565,0.27c-0.053,0.019-0.109,0.038-0.165,0.058  c-0.059,0.015-0.118,0.03-0.178,0.045c-0.118,0.034-0.245,0.058-0.374,0.078c-0.13,0.026-0.264,0.042-0.401,0.054  c-0.137,0.014-0.276,0.023-0.421,0.023c-0.29,0.013-0.575-0.005-0.878-0.017c-0.297-0.025-0.599-0.039-0.898-0.075  c-0.302-0.032-0.602-0.067-0.896-0.109c-0.296-0.037-0.585-0.087-0.864-0.133c-0.281-0.047-0.548-0.106-0.802-0.163  c-0.254-0.059-0.493-0.117-0.711-0.178c-0.22-0.058-0.418-0.122-0.593-0.182c-0.175-0.059-0.324-0.115-0.447-0.166  c-0.245-0.1-0.377-0.174-0.377-0.174s0.139,0.059,0.39,0.138c0.126,0.041,0.278,0.086,0.457,0.131  c0.176,0.047,0.378,0.094,0.597,0.144c0.219,0.051,0.46,0.099,0.713,0.146c0.254,0.048,0.523,0.086,0.801,0.132  c0.279,0.041,0.565,0.086,0.86,0.12c0.293,0.037,0.592,0.067,0.892,0.095c0.299,0.028,0.599,0.056,0.893,0.083  c0.291,0.016,0.588,0.039,0.862,0.03c0.14,0.002,0.276-0.004,0.41-0.016c0.134-0.006,0.266-0.014,0.393-0.034  c0.126-0.014,0.249-0.031,0.366-0.059c0.059-0.012,0.116-0.024,0.172-0.035c0.057-0.017,0.111-0.032,0.164-0.048  c0.215-0.061,0.4-0.146,0.562-0.226c0.154-0.091,0.287-0.181,0.378-0.274c0.021-0.019,0.039-0.038,0.056-0.056  c0.105-0.451,0.203-0.902,0.293-1.351c-0.043,0.031-0.089,0.061-0.139,0.092c-0.17,0.098-0.373,0.199-0.606,0.267  c-0.115,0.042-0.238,0.071-0.366,0.101c-0.126,0.035-0.26,0.054-0.397,0.076c-0.137,0.025-0.279,0.039-0.426,0.051  c-0.146,0.015-0.294,0.021-0.446,0.021c-0.307,0.012-0.61-0.006-0.931-0.019c-0.314-0.026-0.634-0.048-0.953-0.08  c-0.159-0.015-0.32-0.03-0.479-0.045c-0.158-0.021-0.315-0.042-0.473-0.063c-0.313-0.044-0.62-0.081-0.918-0.129  c-0.297-0.051-0.581-0.111-0.853-0.162c-0.27-0.057-0.521-0.124-0.756-0.179c-0.234-0.052-0.443-0.128-0.631-0.182  c-0.189-0.053-0.347-0.12-0.479-0.165s-0.231-0.096-0.301-0.124c-0.068-0.032-0.104-0.049-0.104-0.049s0.149,0.058,0.416,0.137  c0.136,0.035,0.297,0.091,0.486,0.13c0.191,0.042,0.401,0.1,0.638,0.144c0.235,0.045,0.488,0.101,0.758,0.145  c0.271,0.043,0.558,0.082,0.852,0.132c0.296,0.044,0.604,0.076,0.915,0.116c0.155,0.018,0.313,0.037,0.471,0.056  c0.158,0.013,0.316,0.026,0.476,0.038c0.317,0.025,0.635,0.059,0.948,0.087c0.309,0.017,0.624,0.041,0.916,0.032  c0.148,0.002,0.294-0.002,0.436-0.015c0.143-0.008,0.282-0.012,0.417-0.032c0.135-0.015,0.267-0.028,0.391-0.056  c0.126-0.023,0.246-0.047,0.359-0.082c0.115-0.028,0.222-0.064,0.322-0.104c0.103-0.032,0.192-0.081,0.281-0.119  c0.07-0.036,0.135-0.073,0.194-0.111c0.106-0.538,0.204-1.072,0.295-1.6c-0.015,0.016-0.03,0.034-0.048,0.05  c-0.097,0.104-0.234,0.209-0.404,0.313c-0.17,0.099-0.373,0.199-0.606,0.268c-0.115,0.042-0.238,0.071-0.366,0.101  c-0.126,0.035-0.26,0.054-0.397,0.076c-0.137,0.026-0.279,0.039-0.426,0.052c-0.146,0.014-0.294,0.021-0.446,0.021  c-0.307,0.013-0.61-0.005-0.931-0.018c-0.314-0.027-0.634-0.049-0.953-0.081c-0.159-0.015-0.32-0.03-0.479-0.045  c-0.158-0.021-0.315-0.042-0.473-0.063c-0.313-0.044-0.62-0.081-0.918-0.128c-0.297-0.052-0.581-0.112-0.853-0.163  c-0.27-0.057-0.521-0.124-0.756-0.178c-0.234-0.052-0.443-0.128-0.631-0.182c-0.189-0.054-0.347-0.12-0.479-0.165  s-0.231-0.096-0.301-0.124c-0.068-0.032-0.104-0.049-0.104-0.049s0.149,0.059,0.416,0.137c0.136,0.035,0.297,0.09,0.486,0.131  c0.191,0.041,0.401,0.099,0.638,0.144c0.235,0.044,0.488,0.101,0.758,0.145c0.271,0.042,0.558,0.082,0.852,0.132  c0.296,0.044,0.604,0.076,0.915,0.116c0.155,0.018,0.313,0.037,0.471,0.056c0.158,0.013,0.316,0.025,0.476,0.038  c0.317,0.025,0.635,0.059,0.948,0.087c0.309,0.017,0.624,0.04,0.916,0.032c0.148,0.002,0.294-0.002,0.436-0.014  c0.143-0.008,0.282-0.012,0.417-0.032c0.135-0.016,0.267-0.028,0.391-0.057c0.126-0.023,0.246-0.046,0.359-0.081  c0.115-0.028,0.222-0.065,0.322-0.104c0.103-0.033,0.192-0.082,0.281-0.12c0.17-0.087,0.312-0.18,0.414-0.273  c0.032-0.028,0.06-0.055,0.086-0.082c0.024-0.144,0.048-0.286,0.071-0.428c0.118-0.714,0.222-1.52,0.315-2.36  c-0.007,0.003-0.013,0.007-0.021,0.01c-0.068,0.029-0.174,0.059-0.311,0.081c-0.137,0.025-0.304,0.044-0.496,0.063  c-0.191,0.018-0.408,0.031-0.646,0.037c-0.236,0.008-0.493,0.011-0.765,0.012c-0.271,0.003-0.557-0.002-0.853-0.013  c-0.295-0.012-0.6-0.023-0.91-0.035c-0.309-0.013-0.624-0.026-0.938-0.039c-0.628-0.038-1.256-0.052-1.846-0.074  c-0.295-0.003-0.58-0.016-0.85-0.023c-0.271-0.009-0.526-0.007-0.762-0.012c-0.472-0.004-0.864-0.007-1.14,0  c-0.275,0.005-0.433,0.013-0.433,0.013s0.038-0.005,0.111-0.016c0.073-0.007,0.182-0.025,0.318-0.035  c0.138-0.011,0.305-0.028,0.496-0.039c0.191-0.011,0.409-0.031,0.645-0.034c0.473-0.017,1.025-0.028,1.616-0.027  c0.591,0.014,1.222,0.019,1.852,0.048c0.63,0.027,1.258,0.067,1.847,0.096c0.588,0.025,1.138,0.055,1.608,0.061  c0.471,0.004,0.864,0.006,1.137-0.022c0.137-0.013,0.242-0.03,0.313-0.051c0.011-0.003,0.019-0.006,0.026-0.01  c0.341-3.053,0.53-6.575,0.595-7.921c-0.021-0.199-0.028-0.391,0.024-0.537c0-0.016,0.001-0.027,0.001-0.029  c0.003-0.09,0.065-0.166,0.153-0.188l0.221-0.056c0.014-0.003,0.044-0.01,0.085-0.019c0.819,1.565,2.45,4.802,3.025,6.83  c0.577,2.032,0.994,7.316,0.998,7.37l0.021,0.273l0.255-0.101c0.066-0.026,1.648-0.664,2.072-1.86  c0.422-1.187,0.559-3.489,0.005-5.592c-0.494-1.879-1.828-5.09-2.379-6.383c-0.186-0.436-0.308-0.91-0.39-1.341  c0.143-0.037,0.266-0.071,0.359-0.1c0.008-0.012,0.013-0.025,0.021-0.037c0.144-0.058,0.289-0.107,0.436-0.155  c0.521-0.247,1.36-0.664,1.647-0.807l0.215-2.181c-0.002-0.018-0.004-0.035-0.005-0.055c-0.016-0.147-0.047-0.359-0.097-0.614  c-0.029-0.127-0.054-0.258-0.096-0.408c-0.04-0.149-0.079-0.3-0.119-0.479c-0.036-0.173-0.064-0.351-0.082-0.531  c-0.021-0.18-0.028-0.362-0.037-0.543c-0.025-0.725,0.02-1.442,0.066-1.977c0.047-0.536,0.097-0.89,0.097-0.89s-0.011,0.357,0,0.893  c0.012,0.534,0.046,1.248,0.147,1.946c0.028,0.173,0.054,0.347,0.093,0.513c0.033,0.168,0.08,0.329,0.126,0.479  c0.051,0.143,0.109,0.301,0.163,0.443c0.055,0.142,0.101,0.293,0.144,0.424c0.081,0.264,0.136,0.49,0.17,0.652  c0.016,0.082,0.028,0.145,0.035,0.192c0.004,0.026,0.007,0.045,0.009,0.058l0.618,1.473c0.248-0.148,0.685-0.41,1.055-0.639  c0.175-0.118,0.355-0.229,0.534-0.342l0.065-0.044c0.039-0.026,0.082-0.054,0.126-0.083c0.106-0.072,0.211-0.146,0.311-0.227  c0.013,0.001,0.022-0.003,0.035-0.003c0.125-0.085,0.262-0.177,0.403-0.275c0.059-0.082,0.116-0.165,0.191-0.225  c0.108-0.027,0.205-0.07,0.296-0.119c0.144-0.104,0.288-0.21,0.432-0.318c0.223-0.209,0.423-0.449,0.665-0.636  c0.188-0.078,0.34-0.197,0.478-0.333c0.005-0.004,0.01-0.009,0.015-0.015c0.134-0.134,0.254-0.282,0.382-0.421  c0.622-0.737,1.031-1.473,1.035-1.481c0.012-0.02,0.024-0.037,0.042-0.052c0.005-0.005,0.218-0.201,0.518-0.51  c-0.018-0.026-0.042-0.066-0.077-0.118c-0.067-0.1-0.165-0.241-0.292-0.406c-0.126-0.165-0.278-0.352-0.453-0.541  c-0.087-0.093-0.18-0.188-0.278-0.277c-0.099-0.092-0.188-0.167-0.31-0.255c-0.013-0.01-0.033-0.024-0.038-0.03l-0.047-0.042  c-0.031-0.027-0.065-0.054-0.091-0.083c-0.055-0.057-0.108-0.114-0.154-0.172c-0.096-0.116-0.177-0.233-0.255-0.347  c-0.153-0.229-0.278-0.448-0.383-0.639c-0.208-0.379-0.327-0.64-0.327-0.64s0.17,0.232,0.445,0.56  c0.138,0.163,0.303,0.35,0.489,0.534c0.094,0.091,0.191,0.185,0.295,0.267c0.051,0.043,0.104,0.08,0.156,0.117  c0.026,0.02,0.054,0.031,0.078,0.047l0.04,0.022l0.05,0.031c0.113,0.071,0.252,0.17,0.365,0.263  c0.115,0.092,0.224,0.188,0.325,0.283c0.203,0.191,0.379,0.38,0.524,0.546c0.145,0.166,0.261,0.309,0.34,0.412  c0.006,0.007,0.009,0.013,0.015,0.02c0.36-0.401,0.76-0.886,1.074-1.378c0.438-0.689,0.785-1.077,1.091-1.419  c0.232-0.26,0.432-0.484,0.619-0.788c0.242-0.391,0.304-0.686,0.383-1.059c0.057-0.267,0.12-0.57,0.263-0.95  c0.151-0.401,0.291-0.608,0.414-0.792c0.152-0.227,0.264-0.391,0.351-0.885c0.049-0.278,0.084-0.538,0.115-0.768  c0.076-0.566,0.137-1.014,0.349-1.395c0.25-0.449,0.526-1.653,0.582-3.333C91.304,24.256,90.647,23.754,89.813,23.118z   M55.327,31.912c-0.478,0.318-1.434,0-1.434,0l-0.585-0.637c0,0,0.479-0.796,1.169-0.69s1.063,0.69,1.063,0.69  S55.805,31.593,55.327,31.912z M55.575,26.415c-0.022,0.007-0.057,0.017-0.103,0.03c-0.043,0.019-0.096,0.042-0.158,0.069  c-0.058,0.035-0.123,0.075-0.197,0.12c-0.064,0.056-0.137,0.118-0.216,0.184c-0.066,0.077-0.14,0.161-0.217,0.25  c-0.063,0.101-0.131,0.207-0.202,0.319c-0.064,0.114-0.117,0.247-0.18,0.377c-0.015,0.033-0.03,0.066-0.045,0.1  c-0.021,0.041-0.032,0.074-0.048,0.111c-0.032,0.074-0.058,0.146-0.096,0.225c-0.07,0.158-0.153,0.312-0.236,0.469  c-0.169,0.312-0.354,0.627-0.513,0.952c-0.162,0.326-0.273,0.671-0.341,1.035c-0.068,0.364-0.078,0.749-0.056,1.136  c0.017,0.386,0.057,0.805,0.081,1.2c0.031,0.398,0.044,0.791,0.068,1.169c0.024,0.378,0.046,0.744,0.067,1.09  c0.025,0.346,0.049,0.671,0.076,0.973c0.03,0.3,0.063,0.574,0.096,0.817c0.021,0.121,0.039,0.233,0.058,0.338  c0.021,0.104,0.041,0.199,0.058,0.285c0.048,0.168,0.077,0.306,0.114,0.394c0.031,0.09,0.05,0.138,0.05,0.138  s-0.027-0.043-0.078-0.124c-0.056-0.081-0.121-0.206-0.199-0.37c-0.034-0.083-0.072-0.176-0.114-0.277  c-0.037-0.102-0.073-0.214-0.114-0.333c-0.073-0.24-0.149-0.514-0.213-0.816c-0.135-0.602-0.244-1.311-0.33-2.07  c-0.041-0.379-0.091-0.771-0.122-1.17c-0.031-0.402-0.076-0.791-0.103-1.216c-0.017-0.423,0-0.855,0.087-1.276  c0.08-0.422,0.249-0.82,0.441-1.169c0.19-0.352,0.411-0.652,0.6-0.939c0.095-0.144,0.181-0.284,0.262-0.417  c0.042-0.065,0.08-0.14,0.119-0.208c0.02-0.033,0.04-0.072,0.058-0.1c0.021-0.034,0.042-0.069,0.063-0.104  c0.087-0.134,0.155-0.27,0.246-0.383c0.097-0.111,0.186-0.217,0.271-0.311c0.102-0.085,0.193-0.164,0.28-0.232  c0.098-0.056,0.187-0.106,0.267-0.153c0.087-0.033,0.163-0.062,0.23-0.084c0.069-0.013,0.129-0.025,0.178-0.034  c0.097-0.008,0.147-0.004,0.147-0.004S55.601,26.411,55.575,26.415z M69.683,22.667c0.004-0.106,0.013-0.199,0.031-0.28  c0.016-0.081,0.025-0.149,0.044-0.204c0.028-0.109,0.053-0.163,0.053-0.163s-0.013,0.059-0.021,0.169  c-0.008,0.055-0.003,0.123-0.004,0.203c-0.003,0.08,0.005,0.171,0.018,0.273c0.009,0.102,0.019,0.213,0.049,0.332  c0.033,0.12,0.039,0.251,0.094,0.384c0.046,0.133,0.088,0.276,0.146,0.422c0.066,0.142,0.136,0.292,0.209,0.449  c0.072,0.156,0.182,0.302,0.275,0.461c0.049,0.081,0.099,0.163,0.149,0.246c0.055,0.083,0.107,0.168,0.163,0.254  c0.221,0.333,0.453,0.725,0.649,1.131c0.205,0.406,0.386,0.837,0.568,1.255c0.089,0.211,0.192,0.409,0.297,0.606  c0.124,0.195,0.247,0.393,0.371,0.589c0.133,0.25,0.226,0.483,0.298,0.727c0.071,0.243,0.125,0.487,0.159,0.73  c0.072,0.487,0.066,0.97,0.022,1.432c-0.045,0.462-0.15,0.903-0.303,1.305c-0.02,0.05-0.039,0.1-0.059,0.149l-0.007,0.018  l-0.003,0.004l-0.003,0.008l-0.009,0.017l-0.018,0.034l-0.033,0.067c-0.038,0.084-0.106,0.185-0.171,0.275  c-0.133,0.174-0.28,0.313-0.431,0.426c-0.3,0.229-0.583,0.371-0.748,0.568c-0.16,0.196-0.195,0.44-0.189,0.64  c0.011,0.201,0.031,0.363,0.059,0.471c0.022,0.109,0.033,0.167,0.033,0.167s-0.022-0.055-0.065-0.158  c-0.046-0.103-0.104-0.258-0.146-0.468c-0.039-0.205-0.056-0.502,0.121-0.787c0.176-0.277,0.47-0.472,0.711-0.699  c0.254-0.23,0.421-0.508,0.53-0.879c0.034-0.118,0.063-0.241,0.089-0.367c-0.122,0.063-0.228-0.106-0.228-0.106l-0.569-0.127  c0,0,0.178-0.455,0.329-0.934c0.087-0.275,0.34-0.542,0.539-0.719c-0.009-0.083-0.019-0.166-0.032-0.249  c-0.033-0.218-0.083-0.434-0.149-0.644c-0.063-0.209-0.155-0.413-0.243-0.583c-0.125-0.206-0.251-0.413-0.376-0.618  c-0.113-0.221-0.224-0.442-0.313-0.663c-0.189-0.438-0.332-0.868-0.514-1.262c-0.083-0.203-0.182-0.388-0.27-0.577  c-0.084-0.188-0.19-0.372-0.286-0.551c-0.1-0.181-0.19-0.347-0.275-0.529c-0.084-0.181-0.181-0.345-0.241-0.519  c-0.059-0.174-0.115-0.34-0.169-0.499c-0.041-0.163-0.065-0.32-0.096-0.465c-0.016-0.073-0.025-0.144-0.027-0.214  c-0.005-0.069-0.009-0.135-0.013-0.2C69.667,22.891,69.675,22.773,69.683,22.667z M58.233,38.928  c0.045-0.093,0.115-0.228,0.228-0.386c0.107-0.161,0.26-0.342,0.444-0.539c0.193-0.189,0.421-0.396,0.697-0.581  c0.14-0.093,0.282-0.193,0.442-0.275c0.079-0.043,0.158-0.088,0.24-0.133c0.082-0.043,0.169-0.079,0.257-0.119  c0.087-0.04,0.175-0.079,0.264-0.12c0.093-0.033,0.186-0.067,0.281-0.101c0.094-0.033,0.189-0.066,0.287-0.101  c0.098-0.029,0.197-0.053,0.299-0.08c0.201-0.053,0.406-0.109,0.618-0.141c0.212-0.034,0.423-0.088,0.641-0.104  c0.218-0.022,0.437-0.046,0.657-0.069c0.22-0.012,0.439-0.025,0.659-0.038c0.438-0.027,0.882-0.027,1.316-0.033  c0.218-0.007,0.434,0.004,0.646,0.008c0.213,0.009,0.424,0.004,0.63,0.022c0.207,0.015,0.411,0.028,0.61,0.042  c0.198,0.02,0.392,0.047,0.58,0.069c0.189,0.019,0.37,0.058,0.547,0.087c0.177,0.027,0.347,0.064,0.508,0.104  c0.163,0.035,0.317,0.074,0.461,0.122c0.072,0.022,0.144,0.043,0.212,0.065c0.066,0.026,0.132,0.051,0.194,0.075  c0.128,0.046,0.242,0.098,0.348,0.15c0.107,0.046,0.199,0.104,0.283,0.152c0.167,0.1,0.284,0.198,0.356,0.272  c0.074,0.072,0.102,0.121,0.102,0.121s-0.03-0.047-0.109-0.113c-0.036-0.036-0.091-0.07-0.148-0.115  c-0.065-0.037-0.134-0.088-0.221-0.13c-0.085-0.043-0.177-0.095-0.286-0.135c-0.105-0.046-0.222-0.092-0.35-0.13  c-0.063-0.02-0.128-0.042-0.195-0.063c-0.068-0.017-0.139-0.035-0.212-0.054s-0.147-0.038-0.223-0.057  c-0.077-0.015-0.155-0.031-0.236-0.047c-0.159-0.034-0.328-0.066-0.504-0.087c-0.176-0.023-0.355-0.056-0.544-0.068  c-0.188-0.016-0.379-0.037-0.576-0.05c-0.197-0.01-0.399-0.021-0.604-0.032c-0.204-0.015-0.414-0.009-0.625-0.015  c-0.212-0.001-0.426-0.011-0.642-0.001c-0.431,0.011-0.868,0.016-1.309,0.047c-0.219,0.01-0.439,0.021-0.658,0.031  c-0.216,0.021-0.432,0.041-0.645,0.062c-0.216,0.013-0.422,0.064-0.631,0.095c-0.209,0.03-0.41,0.083-0.607,0.132  c-0.099,0.025-0.197,0.047-0.294,0.075c-0.096,0.031-0.189,0.063-0.283,0.093c-0.093,0.031-0.186,0.061-0.277,0.091  c-0.088,0.037-0.176,0.073-0.262,0.109c-0.087,0.037-0.174,0.068-0.255,0.108c-0.081,0.042-0.16,0.083-0.239,0.122  c-0.159,0.076-0.301,0.169-0.44,0.256c-0.275,0.175-0.508,0.365-0.708,0.541c-0.192,0.184-0.351,0.355-0.466,0.509  c-0.116,0.151-0.199,0.279-0.249,0.368c-0.052,0.09-0.072,0.14-0.072,0.14S58.188,39.021,58.233,38.928z M58.585,42.361  c-0.283,0.277-0.414,0.463-0.414,0.463s0.116-0.196,0.386-0.491c0.27-0.292,0.689-0.686,1.268-1.055  c0.576-0.37,1.303-0.725,2.125-0.971c0.41-0.125,0.843-0.226,1.286-0.298c0.445-0.073,0.899-0.127,1.356-0.149  c0.455-0.024,0.913-0.019,1.361,0.002c0.445,0.017,0.889,0.054,1.313,0.101c0.85,0.093,1.636,0.27,2.279,0.51  c0.32,0.12,0.604,0.264,0.837,0.42c0.231,0.158,0.413,0.327,0.531,0.488c0.123,0.16,0.181,0.31,0.207,0.414  c0.025,0.104,0.021,0.162,0.021,0.162s0-0.058-0.032-0.159c-0.031-0.1-0.101-0.241-0.227-0.392  c-0.125-0.151-0.309-0.307-0.542-0.449c-0.234-0.139-0.517-0.265-0.835-0.375c-0.638-0.222-1.419-0.357-2.259-0.444  c-0.422-0.042-0.854-0.073-1.302-0.086c-0.443-0.017-0.895-0.015-1.343,0.01c-0.451,0.017-0.898,0.066-1.336,0.133  c-0.438,0.067-0.864,0.162-1.268,0.281c-0.81,0.233-1.537,0.549-2.115,0.899C59.305,41.722,58.866,42.083,58.585,42.361z   M60.872,56.784c0.136,0.036,0.297,0.091,0.486,0.131c0.191,0.042,0.401,0.1,0.638,0.144c0.235,0.044,0.488,0.101,0.758,0.145  c0.271,0.043,0.558,0.082,0.852,0.132c0.296,0.044,0.604,0.076,0.915,0.116c0.155,0.018,0.313,0.037,0.471,0.055  c0.158,0.013,0.316,0.026,0.476,0.039c0.317,0.025,0.635,0.059,0.948,0.087c0.309,0.017,0.624,0.041,0.916,0.032  c0.148,0.002,0.294-0.002,0.436-0.015c0.143-0.008,0.282-0.012,0.417-0.032c0.135-0.016,0.267-0.028,0.391-0.056  c0.126-0.022,0.246-0.046,0.359-0.082c0.115-0.027,0.222-0.065,0.322-0.104c0.103-0.032,0.192-0.081,0.281-0.119  c0.17-0.088,0.312-0.18,0.414-0.274c0.211-0.181,0.273-0.336,0.273-0.336s-0.012,0.04-0.048,0.105  c-0.038,0.065-0.096,0.162-0.198,0.261c-0.097,0.104-0.234,0.209-0.404,0.313c-0.17,0.099-0.373,0.199-0.606,0.268  c-0.115,0.041-0.238,0.071-0.366,0.1c-0.126,0.035-0.26,0.055-0.397,0.077c-0.137,0.026-0.279,0.038-0.426,0.051  c-0.146,0.015-0.294,0.021-0.446,0.021c-0.307,0.013-0.61-0.006-0.931-0.019c-0.314-0.026-0.634-0.048-0.953-0.079  c-0.159-0.016-0.32-0.031-0.479-0.045c-0.158-0.021-0.315-0.042-0.473-0.063c-0.313-0.044-0.62-0.081-0.918-0.129  c-0.297-0.051-0.581-0.111-0.853-0.162c-0.27-0.056-0.521-0.124-0.756-0.178c-0.234-0.051-0.443-0.128-0.631-0.182  c-0.189-0.053-0.347-0.12-0.479-0.165s-0.231-0.096-0.301-0.124c-0.068-0.032-0.104-0.049-0.104-0.049S60.605,56.706,60.872,56.784z   M70.053,52.504c-0.28-0.006-0.682-0.006-1.161-0.024c-0.48-0.017-1.041-0.026-1.642-0.058c-0.601-0.028-1.239-0.057-1.877-0.068  c-0.319-0.009-0.638-0.008-0.952-0.003c-0.313,0.005-0.623,0.017-0.921,0.036c-0.298,0.018-0.586,0.038-0.859,0.063  c-0.272,0.03-0.53,0.06-0.767,0.097c-0.473,0.073-0.864,0.153-1.134,0.228c-0.27,0.072-0.419,0.131-0.419,0.131  s0.143-0.074,0.408-0.167c0.266-0.091,0.652-0.207,1.126-0.3c0.236-0.048,0.494-0.089,0.769-0.13  c0.273-0.035,0.563-0.074,0.864-0.095c0.301-0.023,0.612-0.039,0.928-0.049c0.317-0.009,0.638-0.015,0.96-0.01  c0.322-0.005,0.643,0.021,0.96,0.033c0.313,0.019,0.624,0.037,0.924,0.054c0.601,0.033,1.158,0.083,1.638,0.118  c0.479,0.034,0.878,0.077,1.157,0.101c0.279,0.028,0.438,0.044,0.438,0.044S70.333,52.505,70.053,52.504z M70.682,49.588  c-0.062-0.054-0.162-0.12-0.3-0.184c-0.136-0.067-0.313-0.127-0.514-0.188c-0.207-0.054-0.439-0.109-0.695-0.158  c-0.258-0.048-0.538-0.088-0.835-0.126c-0.3-0.029-0.614-0.065-0.94-0.09c-0.324-0.031-0.666-0.045-1.007-0.064  c-0.344-0.006-0.692-0.024-1.04-0.014c-0.349-0.003-0.697,0.018-1.04,0.039c-0.341,0.031-0.678,0.06-1,0.113  c-0.322,0.045-0.634,0.102-0.927,0.164c-0.293,0.063-0.566,0.136-0.818,0.208c-0.124,0.039-0.244,0.078-0.358,0.113  c-0.111,0.039-0.219,0.077-0.318,0.112c-0.199,0.076-0.371,0.147-0.51,0.211c-0.139,0.066-0.247,0.118-0.319,0.157  c-0.071,0.04-0.109,0.063-0.109,0.063s0.141-0.106,0.411-0.253c0.136-0.073,0.304-0.156,0.499-0.244  c0.1-0.042,0.204-0.087,0.315-0.134c0.112-0.041,0.231-0.084,0.355-0.13c0.251-0.083,0.525-0.168,0.82-0.242  c0.146-0.042,0.299-0.07,0.453-0.106c0.154-0.038,0.316-0.065,0.479-0.09c0.326-0.058,0.667-0.091,1.012-0.127  c0.346-0.025,0.699-0.05,1.052-0.052c0.354-0.017,0.705,0.013,1.052,0.021c0.348,0.024,0.684,0.042,1.014,0.078  c0.329,0.028,0.646,0.071,0.945,0.117c0.299,0.05,0.579,0.103,0.838,0.162c0.129,0.028,0.251,0.064,0.368,0.094  c0.116,0.033,0.224,0.072,0.326,0.104c0.202,0.077,0.376,0.148,0.51,0.227c0.137,0.073,0.232,0.151,0.289,0.211  c0.058,0.06,0.073,0.103,0.073,0.103S70.744,49.641,70.682,49.588z M71.046,45.8l-0.094,0.107l0.068,0.124  c0.002,0.004,0.021,0.04,0.053,0.098c-0.001,0-0.002,0-0.004,0c-0.053-0.002-0.125-0.035-0.142-0.052  c-0.028-0.019-0.054-0.044-0.072-0.071c-0.018-0.026-0.035-0.06-0.041-0.079l-0.015-0.05l-0.007-0.035  c-0.014-0.086-0.014-0.142-0.015-0.203c0.001-0.054,0.004-0.104,0.006-0.157c-0.102-0.101-0.227-0.203-0.376-0.297  c-0.215-0.138-0.477-0.262-0.771-0.374c-0.295-0.11-0.626-0.203-0.98-0.277c-0.354-0.076-0.731-0.131-1.125-0.182  c-0.394-0.047-0.802-0.082-1.215-0.104c-0.418-0.019-0.839-0.039-1.261-0.02c-0.42,0.017-0.841,0.045-1.252,0.103  c-0.409,0.055-0.811,0.134-1.193,0.232c-0.766,0.197-1.463,0.446-2.037,0.715c-0.573,0.269-1.035,0.531-1.344,0.735  c-0.312,0.202-0.478,0.336-0.478,0.336s0.153-0.147,0.454-0.37c0.301-0.218,0.743-0.52,1.316-0.806  c0.573-0.286,1.267-0.58,2.044-0.782c0.388-0.103,0.794-0.189,1.212-0.25c0.416-0.061,0.844-0.104,1.272-0.113  c0.429-0.014,0.857,0.011,1.273,0.034c0.421,0.027,0.832,0.066,1.229,0.118c0.794,0.112,1.527,0.285,2.124,0.529  c0.299,0.12,0.56,0.265,0.772,0.417c0.134,0.094,0.243,0.192,0.337,0.291c0.007-0.149,0.017-0.294,0.031-0.44l0.07-0.642l0.08-0.634  l0.076-0.636c0.025-0.211,0.058-0.424,0.076-0.635l0.054-0.632l0.028-0.317l0.007-0.317c0.002-0.211,0.021-0.425,0.009-0.637  l-0.041-0.638l0.141,0.629c0.041,0.211,0.049,0.426,0.074,0.641l0.03,0.322l0.007,0.324l0.01,0.648c0,0.215-0.014,0.428-0.021,0.642  l-0.027,0.64l-0.041,0.641l-0.031,0.635c-0.002,0.054-0.003,0.108-0.005,0.162c0.117-0.1,0.239-0.185,0.361-0.266  c0.189-0.123,0.386-0.228,0.584-0.328c0.197-0.1,0.398-0.19,0.602-0.274c0.1-0.042,0.209-0.083,0.309-0.122l0.155-0.056l0.178-0.048  l0.178-0.046c0.06-0.015,0.128-0.014,0.191-0.019c0.065-0.003,0.13-0.009,0.195-0.007l0.204,0.031  c0.063,0.006,0.124,0.031,0.186,0.055l-0.018-0.355c0.001-0.071-0.021-0.157-0.031-0.236l-0.037-0.242l-0.037-0.242l-0.006-0.03  l-0.002-0.012v-0.001l-0.015-0.058l-0.031-0.116l-0.25-0.93l-0.06-0.234c-0.019-0.078-0.046-0.154-0.069-0.23l-0.146-0.46  l0.012,0.025c-0.15-0.335-0.304-0.669-0.448-1.006l-0.438-1.009c-0.291-0.674-0.553-1.356-0.811-2.044  c0.182,0.318,0.361,0.638,0.538,0.96c0.176,0.321,0.347,0.645,0.527,0.962l0.523,0.962c0.175,0.32,0.344,0.643,0.514,0.965  l0.006,0.011l0.005,0.014l0.178,0.464c0.027,0.078,0.062,0.153,0.086,0.232l0.074,0.237l0.292,0.95l0.037,0.119l0.018,0.06  l0.003,0.008l0.005,0.023l0.003,0.015l0.005,0.031l0.047,0.24l0.047,0.24c0.014,0.082,0.034,0.155,0.037,0.247l0.036,0.53  l-0.007,0.261c-0.001,0.085-0.007,0.177-0.021,0.274l-0.07,0.012c0-0.017,0-0.029,0-0.03l-0.002-0.141l-0.133-0.047  c-0.029-0.01-0.734-0.258-1.393-0.258c-0.207,0-0.392,0.025-0.548,0.074C72.143,44.56,71.09,45.75,71.046,45.8z M75.131,47.632  c0.547,1.285,1.872,4.474,2.36,6.328c0.525,2.002,0.395,4.253,0.004,5.355c-0.27,0.761-1.15,1.284-1.588,1.503  c-0.097-1.149-0.474-5.343-0.988-7.159c-0.73-2.569-3.037-6.887-3.476-7.695c0.345-0.375,1.083-1.102,1.555-1.25  c0.117-0.037,0.261-0.056,0.427-0.056c0.433,0,0.904,0.126,1.128,0.193C74.572,45.277,74.667,46.545,75.131,47.632z"></path><path fill-rule="evenodd" clip-rule="evenodd" d="M53.437,84.937c-0.023-0.055-0.049-0.109-0.074-0.164  c-0.008-0.004-0.018-0.008-0.026-0.012c-0.245-0.124-0.481-0.258-0.71-0.403c-0.458-0.291-0.896-0.607-1.295-0.982  c-0.198-0.19-0.391-0.384-0.548-0.643c-0.082-0.144-0.118-0.272-0.153-0.413c-0.034-0.14-0.052-0.29-0.042-0.438  c0.004-0.047,0.014-0.092,0.021-0.138c-0.009-0.11-0.019-0.219-0.024-0.328c-0.016-0.252-0.024-0.505-0.034-0.757l-0.014-0.377  c-0.003-0.05-0.005-0.099-0.008-0.149c-0.941,0.624-1.581,0.937-1.621,0.956c-0.02,0.009-0.043,0.016-0.064,0.019  c0,0-0.038,0.004-0.1,0.004c-0.246,0-1.068-0.079-1.335-1.093c-0.299-1.135,0.122-2.859,0.881-3.619  c0.286-0.286,0.834-0.707,1.477-1.165c-0.019-0.073-0.044-0.163-0.073-0.27c-0.038-0.152-0.088-0.336-0.137-0.549  c-0.047-0.214-0.099-0.455-0.157-0.718c-0.111-0.529-0.229-1.143-0.346-1.805c-0.059-0.331-0.117-0.673-0.172-1.021  c-0.054-0.348-0.119-0.701-0.163-1.058c-0.046-0.356-0.099-0.712-0.126-1.067c-0.028-0.354-0.058-0.705-0.062-1.048  c0-0.34,0.004-0.686,0.066-1.008c0.055-0.302,0.106-0.588,0.154-0.852c0.045-0.262,0.083-0.502,0.126-0.716  c0.039-0.215,0.072-0.403,0.105-0.557c0.038-0.193,0.069-0.334,0.087-0.413c-0.087-0.122-0.177-0.241-0.265-0.363l-0.185-0.257  c-0.063-0.085-0.135-0.162-0.201-0.244c-0.138-0.161-0.271-0.323-0.413-0.483c-0.149-0.159-0.301-0.318-0.453-0.478  c-0.154-0.159-0.299-0.315-0.454-0.496c-0.074-0.089-0.157-0.171-0.225-0.268l-0.2-0.287c-0.521-0.779-0.821-1.668-1.007-2.537  c-0.057-0.216-0.082-0.438-0.122-0.655c-0.041-0.22-0.066-0.434-0.09-0.645c-0.012-0.105-0.024-0.211-0.037-0.317l-0.019-0.163  l-0.012-0.16c-0.014-0.214-0.028-0.426-0.041-0.636c-0.034-0.844,0.015-1.655,0.07-2.413c0.059-0.76,0.104-1.465,0.113-2.119  c-0.01-0.329,0.001-0.654-0.023-0.946c-0.018-0.3-0.034-0.585-0.051-0.853c-0.029-0.537-0.055-1.006-0.076-1.391  c-0.069-0.77-0.108-1.21-0.108-1.21s0.021,0.108,0.062,0.312c0.037,0.204,0.102,0.502,0.166,0.884  c0.052,0.383,0.115,0.849,0.188,1.384c0.034,0.268,0.072,0.553,0.11,0.854c0.01,0.077,0.021,0.154,0.03,0.232  c0.006,0.077,0.011,0.156,0.016,0.234c0.011,0.158,0.022,0.32,0.033,0.486c0.029,0.67,0.024,1.401-0.009,2.156  c-0.026,0.758-0.035,1.549,0.01,2.36c0.059,0.804,0.185,1.66,0.362,2.479c0.183,0.826,0.469,1.638,0.938,2.328l0.177,0.257  c0.058,0.086,0.135,0.16,0.199,0.24c0.13,0.155,0.283,0.324,0.435,0.482c0.15,0.161,0.3,0.321,0.449,0.481  c0.146,0.167,0.29,0.344,0.433,0.515c0.07,0.087,0.146,0.17,0.212,0.26l0.191,0.27c0.124,0.182,0.256,0.359,0.371,0.541  c0.225,0.37,0.452,0.721,0.665,1.09c0.202,0.362,0.409,0.711,0.596,1.065c0.182,0.361,0.367,0.709,0.531,1.056  c0.081,0.174,0.161,0.345,0.241,0.514c0.039,0.083,0.075,0.179,0.112,0.267l0.056,0.133l0.004,0.009  c0.013,0.047,0.004,0.018,0.007,0.03l0.001,0.017l0.003,0.034l0.006,0.067c0.036,0.354,0.061,0.707,0.082,1.044  c0.044,0.665,0.084,1.273,0.119,1.813c0.042,0.536,0.078,1.003,0.108,1.388c0.05,0.492,0.087,0.847,0.107,1.041  c0.191-0.12,0.373-0.233,0.54-0.335c1.407-0.858,5.448-4.393,6.304-6.532c0.441-1.102,0.658-3.414,0.766-5.719  c-0.006-0.009-0.01-0.018-0.015-0.027c-0.124-0.24-0.298-0.583-0.489-1.001c-0.096-0.209-0.201-0.437-0.303-0.68  c-0.103-0.243-0.218-0.496-0.319-0.766c-0.099-0.271-0.21-0.548-0.308-0.835c-0.099-0.287-0.207-0.574-0.287-0.876  c-0.081-0.3-0.164-0.6-0.239-0.896c-0.078-0.288-0.128-0.583-0.189-0.862c-0.116-0.562-0.213-1.089-0.285-1.544  c-0.076-0.454-0.123-0.835-0.155-1.104c-0.029-0.268-0.041-0.423-0.041-0.423s0.063,0.143,0.159,0.394  c0.097,0.251,0.23,0.612,0.375,1.049c0.148,0.436,0.309,0.948,0.466,1.5c0.156,0.548,0.324,1.131,0.491,1.715  c0.07,0.292,0.17,0.58,0.262,0.864c0.094,0.284,0.171,0.569,0.256,0.841c0.17,0.546,0.324,1.059,0.444,1.502  c0.078,0.28,0.143,0.529,0.195,0.743c0.086-2.099,0.087-4.135,0.087-5.181c0-2.366-0.817-6.228-1.151-7.286  c-0.233-0.741-0.387-1.267-0.456-1.511c-0.259,0.007-0.812,0.022-1.469,0.039c-0.391,1.581-1.144,4.892-1.058,6.617  c0.113,2.316,1.398,8.507,1.398,8.507s-0.023,0.161-0.321,0.115s-3.013-2.661-3.738-5.664c-0.569-2.361-0.121-7.022,0.186-9.527  c-0.546-0.008-0.567-0.039-0.625-0.121c-0.026-0.038-0.081-0.117-0.264-1.28c-0.284,0.764-0.72,1.717-1.154,1.804  c-0.049,0.01-0.109,0.015-0.185,0.015c-0.889,0-4.231-0.714-5.12-1.437l-0.246-0.2c-0.883-0.713-1.645-1.329-1.705-1.811  c-0.031-0.252-0.352-0.604-0.563-0.785c-0.307-0.107-2.372-0.829-2.787-0.984c-0.455-0.17-1.854-1.031-1.913-1.067  c-0.075-0.046-0.112-0.136-0.09-0.222l0.467-1.824l-1.255,0.931c-0.076,0.056-0.182,0.053-0.253-0.009  c-0.016-0.014-0.413-0.358-1.3-1.522c-0.509-0.668-1.069-1.105-1.563-1.491c-0.347-0.271-0.646-0.504-0.861-0.769  c-0.43-0.522-1.151-1.555-1.151-2.116c0-0.126,0.018-0.295,0.043-0.509c0.063-0.566,0.158-1.423-0.037-2.205  c-0.272-1.09-0.614-3.273-0.614-3.584c0-0.443,1.549-2.322,2.596-3.452c0.188-0.203,0.368-0.401,0.543-0.592  c1.093-1.196,2.036-2.229,3.586-3.198c1.464-0.915,2.87-1.339,4.499-1.831c0.365-0.11,0.738-0.223,1.126-0.345  c0.764-0.241,1.296-0.43,1.767-0.596c0.831-0.294,1.43-0.506,2.669-0.79c0.436-0.1,0.904-0.218,1.4-0.343  c1.465-0.369,3.125-0.788,4.284-0.788c0.157,0,0.305,0.008,0.438,0.023c1.138,0.129,1.724,0.767,2.037,1.109  c0.058,0.063,0.129,0.141,0.164,0.167c0.021,0.002,0.07,0.005,0.181,0.005c0.711,0,2.721-0.12,2.741-0.122l1.769-0.11  c0.013-0.001,1.616-0.123,2.967-0.123c0.818,0,1.369,0.042,1.685,0.13c0.147,0.041,0.296,0.07,0.445,0.089  c-0.137-0.271-0.297-0.531-0.481-0.775c-0.452-0.436-1.057-0.658-1.614-0.945c-0.274-0.132-0.548-0.265-0.822-0.397  c-0.067-0.062-0.136-0.124-0.205-0.186c-0.397-0.106-0.794-0.187-1.191-0.241c-0.069,0.013-0.14,0.027-0.208,0.042  c-0.608,0.145-1.24,0.223-1.867,0.204c-0.301-0.006-0.601-0.027-0.899-0.055c-0.039,0.011-0.079,0.021-0.118,0.033  c-0.011,0.003-0.022,0.005-0.033,0.009c-0.53-0.007-1.041-0.267-1.583-0.132c-0.365-0.263-0.78-0.257-1.2-0.222  c-0.858-0.034-1.715-0.043-2.56,0.042c-0.307,0.118-0.607,0.26-0.914,0.392c-0.573,0.25-1.158,0.484-1.759,0.672  c-0.6,0.189-1.215,0.333-1.835,0.439c-0.747,0.13-1.502,0.202-2.258,0.238c-1.512,0.341-3.045,0.546-4.625,0.435  c-0.269-0.062-0.538-0.125-0.805-0.187c-1.238-0.498-2.54-0.39-3.829-0.401c-0.143-0.001-0.285-0.002-0.427-0.004  c-0.417-0.042-0.83-0.051-1.211,0.17c-0.276-0.049-0.533-0.035-0.78,0.016c-0.264,0.121-0.524,0.253-0.79,0.384  c-1.113,0.558-2.214,1.148-3.299,1.764c-2.169,1.233-4.284,2.561-6.313,4.01c-1.013,0.725-1.999,1.486-2.961,2.279  c-0.958,0.792-1.886,1.623-2.736,2.522c-0.529,0.562-1.028,1.151-1.475,1.775c-0.412,0.767-0.771,1.57-1.085,2.403  c-0.324,0.548-0.597,1.113-0.831,1.689c-0.041,0.168-0.084,0.337-0.126,0.509c-0.594,2.422-1.123,4.863-1.489,7.323  c-0.18,1.23-0.311,2.468-0.342,3.701c-0.019,0.599,0.007,1.195,0.047,1.801c-0.072,0.139-0.147,0.281-0.228,0.429  c-0.183,0.339-0.377,0.712-0.555,1.103c-0.176,0.397-0.4,0.788-0.562,1.244c-0.173,0.445-0.351,0.906-0.532,1.374  c-0.183,0.458-0.367,0.923-0.553,1.388c-0.173,0.479-0.424,0.893-0.631,1.337c-0.221,0.446-0.477,0.861-0.655,1.309  c-0.199,0.427-0.383,0.871-0.496,1.286c-0.131,0.412-0.255,0.801-0.368,1.161c-0.101,0.364-0.108,0.721-0.159,1.023  c-0.039,0.305-0.073,0.572-0.101,0.791C9.587,58.91,9.555,59.16,9.555,59.16s0.047-0.247,0.13-0.679  c0.041-0.215,0.091-0.477,0.148-0.776c0.069-0.297,0.096-0.642,0.218-0.997c0.136-0.353,0.284-0.734,0.44-1.138  c0.142-0.414,0.334-0.8,0.559-1.217c0.197-0.419,0.48-0.822,0.726-1.249c0.24-0.438,0.537-0.877,0.734-1.335  c0.216-0.458,0.433-0.915,0.645-1.365c0.205-0.444,0.406-0.881,0.601-1.305c0.18-0.426,0.435-0.816,0.633-1.198  c0.077-0.146,0.155-0.28,0.232-0.414c0.017,0.148,0.025,0.296,0.043,0.444c0.09,0.741,0.204,1.48,0.327,2.218l0.03,0.02  c0,0-0.008,0.011-0.021,0.029c0.287,1.704,0.622,3.408,0.833,5.145c0.15,1.259,0.172,2.526,0.168,3.776  c0.002,0.625,0.001,1.247,0.035,1.86c0.018,0.306,0.044,0.61,0.086,0.911c0.016,0.151,0.049,0.298,0.073,0.447  c0.027,0.166,0.055,0.309,0.08,0.47c0.186,1.292,0.101,2.567-0.035,3.818l-0.104,0.932l-0.098,0.931  c-0.067,0.631-0.173,1.257-0.26,1.868c-0.043,0.306-0.081,0.61-0.106,0.916c-0.016,0.152-0.021,0.305-0.031,0.458l-0.025,0.469  c-0.027,0.625-0.116,1.301-0.313,1.914c-0.188,0.614-0.428,1.195-0.593,1.772c-0.163,0.584-0.278,1.186-0.343,1.791  c-0.03,0.301-0.049,0.604-0.049,0.903c-0.002,0.302,0.035,0.569,0.08,0.9c0.009,0.083,0.02,0.181,0.009,0.295  c-0.01,0.115-0.042,0.217-0.068,0.295l-0.161,0.446l-0.151,0.437c-0.05,0.148-0.108,0.311-0.174,0.462  c-0.255,0.609-0.642,1.146-0.92,1.659c-0.067,0.127-0.124,0.254-0.158,0.374c-0.019,0.061-0.028,0.119-0.034,0.174  c-0.003,0.028-0.003,0.056-0.003,0.083l0.007,0.096c0.039,0.316,0.013,0.691,0.071,0.859c0.027,0.084,0.094,0.168,0.189,0.263  c0.095,0.091,0.216,0.188,0.321,0.256c0.227,0.151,0.484,0.247,0.764,0.312c0.565,0.12,1.185,0.141,1.8,0.131  c0.629,0.005,1.244-0.021,1.863-0.042l0.933-0.046l0.232-0.013l0.029-0.001c0.002,0,0.002,0,0.002,0c0.002,0,0.004,0,0.008-0.001  l0.059-0.008l0.117-0.014l0.464-0.058l0.003,0c0.012-0.001,0.024-0.002,0.035-0.002c0.249,0.002,0.494,0.006,0.742,0.016  c0.245,0.006,0.495,0.024,0.743,0.04l0.173,0.008c0.049,0,0.099,0.001,0.152-0.003c0.104-0.006,0.208-0.021,0.306-0.046  c0.099-0.025,0.192-0.06,0.274-0.104c0.042-0.022,0.079-0.047,0.11-0.071c0.007-0.005,0.015-0.013,0.021-0.019  c0.009-0.014,0.025-0.038,0.037-0.048c0.019-0.02,0.036-0.042,0.101-0.071c0.053-0.025,0.136-0.022,0.136-0.022  c0.035,0.001,0.084,0.018,0.076,0.016l0.017,0.006c0.061,0.013,0.191,0.021,0.302,0.022c0.114,0.002,0.232,0,0.353-0.004  l0.351-0.015l0.364-0.03c0.126-0.006,0.233-0.026,0.349-0.041c0.114-0.013,0.226-0.035,0.338-0.059  c0.077-0.013,0.148-0.033,0.22-0.053c-0.041-0.054-0.077-0.107-0.11-0.161c-0.113-0.18-0.201-0.362-0.282-0.546  c-0.158-0.367-0.285-0.738-0.394-1.113c-0.056-0.188-0.105-0.37-0.156-0.565c-0.043-0.187-0.094-0.367-0.131-0.56  c-0.085-0.383-0.158-0.761-0.223-1.141c-0.255-1.52-0.416-3.048-0.492-4.585c-0.035-0.769-0.05-1.539-0.02-2.314  c0.018-0.391,0.049-0.774,0.08-1.153l0.098-1.143c0.068-0.762,0.145-1.525,0.244-2.288c0.104-0.763,0.219-1.525,0.405-2.284  c0.087-0.376,0.213-0.764,0.354-1.125c0.139-0.356,0.281-0.715,0.431-1.068c0.301-0.708,0.615-1.414,1.011-2.093  c0.202-0.338,0.412-0.675,0.736-0.978c0.303-0.26,0.624-0.491,0.951-0.705c0.163-0.106,0.33-0.209,0.497-0.308l0.125-0.073  l0.06-0.034l0.023-0.014l0.013-0.007c-0.009,0.003,0.111-0.057,0.069-0.034c0.045-0.022,0.154-0.016,0.152-0.012  c0.018,0.004,0.042,0.009,0.052,0.013c0.025,0.008,0.047,0.017,0.063,0.023c0.035,0.016,0.062,0.03,0.088,0.045  c0.051,0.029,0.097,0.059,0.14,0.088c0.34,0.241,0.623,0.513,0.893,0.81c0.132,0.146,0.263,0.309,0.373,0.464l0.086,0.114  l0.081,0.103c0.057,0.068,0.115,0.133,0.173,0.192c0.122,0.118,0.245,0.208,0.4,0.285c0.153,0.079,0.336,0.155,0.512,0.243  l0.133,0.066l0.071,0.038l0.063,0.035c0.083,0.048,0.165,0.088,0.252,0.145c0.176,0.105,0.339,0.215,0.498,0.326  c0.319,0.223,0.62,0.458,0.927,0.66l0.237,0.154l0.242,0.166c0.153,0.106,0.293,0.19,0.445,0.245c0.3,0.112,0.661,0.119,1.024,0.095  c0.707-0.034,1.379-0.353,1.993-0.758c0.153-0.102,0.305-0.209,0.453-0.323l0.236-0.177c-0.01,0.005,0.029-0.021,0.031-0.021  l0.016-0.009l0.03-0.018c0.034-0.017,0.083-0.039,0.122-0.05c0.073-0.02,0.149-0.03,0.224-0.025  c0.306,0.017,0.534,0.229,0.648,0.438c0.06,0.106,0.101,0.217,0.127,0.326c0.015,0.056,0.025,0.11,0.032,0.164l0.021,0.141  c0.017,0.092,0.026,0.192,0.047,0.278l0.061,0.262c0.048,0.177,0.096,0.359,0.153,0.536c0.112,0.356,0.24,0.709,0.386,1.053  c0.069,0.174,0.153,0.338,0.23,0.506l0.27,0.5c0.09,0.201,0.16,0.391,0.213,0.582c0.057,0.191,0.099,0.383,0.138,0.575  c0.146,0.768,0.223,1.54,0.228,2.318c0.035,1.519,0.092,3.049,0.086,4.582c-0.001,0.381-0.01,0.775-0.043,1.16  c-0.041,0.395-0.103,0.772-0.171,1.15c-0.067,0.377-0.146,0.753-0.199,1.121c-0.011,0.078-0.022,0.158-0.029,0.236  c0.003,0.119,0.005,0.238,0.008,0.358l0.011,0.045c0.01,0.047,0.021,0.093,0.034,0.133c0.024,0.082,0.051,0.167,0.083,0.257  c0.12,0.355,0.271,0.711,0.355,1.115c0.039,0.201,0.066,0.376,0.099,0.572c0.03,0.193,0.05,0.396,0.05,0.598  c-0.002,0.101-0.002,0.203-0.015,0.302c-0.008,0.102-0.021,0.201-0.04,0.299c-0.019,0.101-0.036,0.191-0.055,0.285  c-0.017,0.088-0.031,0.178-0.043,0.27c-0.045,0.363-0.061,0.742-0.008,1.087c0.012,0.081,0.039,0.177,0.058,0.213  c0.026,0.048,0.046,0.068,0.065,0.095c0.027,0.031,0.054,0.063,0.085,0.093c0.122,0.123,0.266,0.233,0.416,0.332  c0.303,0.198,0.644,0.342,0.994,0.444c0.177,0.051,0.356,0.087,0.538,0.117l0.27,0.033l0.285,0.018  c0.384,0.03,0.756,0.027,1.134,0.034c0.759-0.001,1.521-0.025,2.28-0.061c0.38-0.021,0.76-0.041,1.139-0.069l0.572-0.046  c0.188-0.016,0.383-0.022,0.579-0.024c0.771-0.01,1.531,0.022,2.287-0.004c0.724-0.012,1.454-0.189,2.111-0.483  c0.018-0.141-0.032-0.318-0.179-0.542C53.417,84.967,53.428,84.953,53.437,84.937z"></path><path fill-rule="evenodd" clip-rule="evenodd" d="M68.881,87.078c-0.039-0.124-0.058-0.148-0.088-0.283l-0.018-0.092  c-0.005-0.032-0.005-0.042-0.008-0.063c-0.004-0.049-0.013-0.049-0.013-0.065c-0.02-0.039-0.041-0.086-0.092-0.151l-0.064-0.091  l-0.078-0.095l-0.158-0.19l-0.33-0.376l-0.35-0.375l-0.353-0.358c-0.122-0.128-0.246-0.243-0.366-0.38l-0.18-0.205  c-0.06-0.067-0.109-0.148-0.165-0.223c-0.115-0.147-0.195-0.315-0.283-0.48c-0.159-0.333-0.271-0.678-0.354-1.021l-0.035-0.128  l-0.017-0.064l-0.008-0.031l-0.002-0.016l-0.005-0.032l-0.043-0.253c-0.025-0.169-0.059-0.336-0.079-0.509  c-0.027-0.352-0.069-0.709-0.081-1.054c-0.033-0.692-0.033-1.382-0.017-2.07c0.016-0.689,0.041-1.371,0.098-2.065  c0.032-0.333,0.038-0.682,0.052-1.02l0.021-1.018l0.049-2.052V72.31v-0.001l0.081-0.83c-0.044-0.152-0.103-0.302-0.188-0.445  c-0.023-0.069-0.048-0.14-0.072-0.208c0.005-0.028,0.009-0.055,0.014-0.082c-0.374,0.456-0.777,0.893-1.214,1.305  c-0.942,0.891-2.002,1.65-3.103,2.314l0.079,2.312c0.056,0.254,0.119,0.51,0.241,0.728c0.114,0.222,0.295,0.393,0.493,0.566  s0.403,0.35,0.593,0.544c0.098,0.098,0.187,0.196,0.274,0.294c0.091,0.106,0.18,0.207,0.261,0.319  c0.167,0.219,0.315,0.458,0.43,0.717c0.116,0.257,0.188,0.536,0.245,0.796c0.028,0.131,0.057,0.253,0.091,0.369  c0.018,0.06,0.037,0.111,0.056,0.158c0.021,0.053,0.055,0.113,0.083,0.179c0.078,0.168,0.091,0.343,0.084,0.501  c-0.01,0.159-0.041,0.307-0.083,0.448c-0.086,0.281-0.212,0.534-0.353,0.776c-0.141,0.241-0.297,0.47-0.479,0.688  c-0.095,0.115-0.198,0.214-0.304,0.313c-0.111,0.098-0.233,0.193-0.368,0.268c-0.269,0.152-0.538,0.235-0.799,0.314  c-0.257,0.077-0.511,0.146-0.752,0.225l-0.752,0.257c-0.259,0.082-0.543,0.157-0.796,0.208l-0.193,0.043  c-0.061,0.013-0.122,0.026-0.183,0.042c-0.121,0.03-0.243,0.066-0.366,0.104c-0.25,0.075-0.519,0.165-0.81,0.209  c-0.29,0.045-0.586,0.045-0.867,0.015c-0.289-0.031-0.556-0.085-0.816-0.149c-0.113-0.026-0.225-0.055-0.337-0.084  c-0.042,0.244-0.107,0.486-0.22,0.714c-0.043,0.075-0.1,0.156-0.152,0.218c-0.058,0.065-0.11,0.128-0.146,0.195  c-0.08,0.129-0.02,0.272,0.069,0.416c0.038,0.071,0.09,0.141,0.136,0.211c0.044,0.061,0.1,0.137,0.151,0.199  c0.108,0.109,0.225,0.214,0.376,0.268c0.292,0.121,0.631,0.163,0.967,0.199c0.34,0.035,0.671,0.062,1.015,0.079  c0.168,0.004,0.328,0.009,0.492-0.004c0.081-0.004,0.162-0.012,0.244-0.023l0.144-0.015c0.053,0,0.132,0.004,0.186,0.023  c0.122,0.041,0.193,0.092,0.275,0.139l0.009,0.004c-0.036-0.021-0.006-0.003-0.012-0.007l0.014,0.007l0.028,0.014l0.059,0.027  c0.038,0.016,0.08,0.044,0.113,0.049c0.068,0.012,0.125,0.033,0.201,0.044c0.079,0.009,0.155,0.022,0.234,0.03  c0.322,0.027,0.658,0.009,0.995-0.01c0.165-0.01,0.35-0.021,0.502-0.035c0.084-0.01,0.174-0.016,0.251-0.028  c0.076-0.017,0.146-0.025,0.227-0.046c0.157-0.035,0.317-0.087,0.514-0.124c0.051-0.007,0.104-0.015,0.156-0.02l0.169,0.006  c0.057,0.005,0.111,0.022,0.167,0.036l0.04,0.011l0.024,0.006l0.015,0.005l0.061,0.023l0.236,0.088  c0.074,0.021,0.147,0.052,0.221,0.064c0.072,0.019,0.147,0.033,0.223,0.039c0.074,0.012,0.151,0.015,0.229,0.015  c0.154,0.009,0.316-0.013,0.476-0.024c0.164-0.025,0.318-0.042,0.489-0.075c0.328-0.062,0.658-0.133,0.978-0.22  c0.159-0.043,0.317-0.091,0.464-0.144c0.021-0.007,0.042-0.016,0.063-0.024c0-0.021,0.003-0.043,0.011-0.07  c0.02-0.081,0.112-0.167,0.125-0.167c0.027-0.019,0.068-0.037,0.091-0.044c0.025-0.008,0.058-0.015,0.08-0.018l0.049-0.005  c0.033-0.002,0.056-0.002,0.084-0.003l0.141,0.001l0.264,0.01l0.509,0.029c0.087,0.004,0.172,0.007,0.241,0.003  c0.073,0.001,0.148-0.008,0.22-0.015c0.142-0.016,0.267-0.064,0.307-0.107c0.021-0.021,0.031-0.031,0.035-0.064  c0.007-0.031,0.009-0.079-0.004-0.137C68.929,87.211,68.906,87.144,68.881,87.078z"></path><path fill-rule="evenodd" clip-rule="evenodd" d="M61.232,64.973c0.101,0.042,0.21,0.079,0.321,0.116  c0.112,0.039,0.229,0.076,0.351,0.109c0.241,0.073,0.5,0.128,0.766,0.194c0.27,0.057,0.547,0.116,0.833,0.158  c0.283,0.051,0.576,0.078,0.867,0.116c0.292,0.029,0.584,0.062,0.87,0.084c0.291,0.021,0.569,0.027,0.844,0.02  c0.545-0.018,1.054-0.083,1.466-0.229c0.289-0.098,0.526-0.229,0.703-0.362c0.075-0.196,0.139-0.396,0.185-0.604  c0.099-0.192,0.192-0.386,0.28-0.582c-0.06,0.049-0.125,0.098-0.197,0.148c-0.158,0.098-0.346,0.199-0.563,0.271  c-0.056,0.019-0.11,0.038-0.167,0.058c-0.058,0.014-0.117,0.03-0.177,0.045c-0.119,0.034-0.244,0.058-0.374,0.079  c-0.13,0.026-0.264,0.042-0.401,0.054c-0.137,0.014-0.277,0.023-0.421,0.023c-0.29,0.013-0.576-0.005-0.879-0.017  c-0.296-0.026-0.598-0.039-0.898-0.075c-0.301-0.033-0.601-0.067-0.896-0.11c-0.296-0.037-0.585-0.087-0.864-0.132  c-0.28-0.046-0.548-0.106-0.801-0.163c-0.254-0.059-0.493-0.117-0.711-0.178c-0.22-0.058-0.418-0.122-0.593-0.182  c-0.174-0.059-0.325-0.116-0.447-0.166c-0.083-0.033-0.149-0.063-0.206-0.088c-0.027,0.27-0.056,0.533-0.088,0.787  c0.055,0.042,0.135,0.101,0.242,0.167C60.492,64.653,60.822,64.816,61.232,64.973z"></path><path fill-rule="evenodd" clip-rule="evenodd" d="M59.916,65.182c0.043,0.049,0.102,0.11,0.179,0.18  c0.094,0.086,0.215,0.181,0.363,0.277c0.146,0.097,0.317,0.196,0.511,0.293c0.095,0.052,0.199,0.094,0.306,0.141  c0.105,0.049,0.219,0.091,0.336,0.132c0.231,0.089,0.485,0.155,0.744,0.231c0.132,0.032,0.264,0.065,0.399,0.099  c0.136,0.029,0.275,0.054,0.415,0.081c0.277,0.059,0.566,0.084,0.854,0.127c0.288,0.027,0.576,0.065,0.859,0.083  c0.284,0.02,0.562,0.026,0.832,0.016c0.538-0.02,1.041-0.088,1.446-0.234c0.218-0.075,0.404-0.169,0.561-0.269  c0.168-0.345,0.345-0.688,0.487-1.043c-0.162,0.129-0.368,0.256-0.618,0.353c-0.419,0.166-0.939,0.275-1.499,0.296  c-0.278,0.014-0.572,0.011-0.86-0.006c-0.293-0.019-0.587-0.044-0.883-0.073c-0.294-0.042-0.589-0.074-0.876-0.131  c-0.288-0.047-0.568-0.111-0.84-0.172c-0.271-0.068-0.53-0.141-0.771-0.226c-0.122-0.039-0.238-0.082-0.35-0.127  c-0.112-0.042-0.222-0.084-0.322-0.132c-0.205-0.087-0.387-0.183-0.543-0.275c-0.156-0.091-0.288-0.178-0.391-0.256  c-0.101-0.071-0.172-0.138-0.222-0.185C59.998,64.647,59.959,64.922,59.916,65.182z"></path><path fill-rule="evenodd" clip-rule="evenodd" d="M56.572,85.041c0.252,0.06,0.507,0.107,0.744,0.131  c0.244,0.024,0.482,0.021,0.716-0.018c0.232-0.037,0.468-0.115,0.724-0.196c0.129-0.041,0.261-0.082,0.396-0.116  c0.067-0.018,0.136-0.034,0.205-0.049l0.192-0.041c0.267-0.054,0.495-0.113,0.742-0.188l0.753-0.25  c0.262-0.083,0.521-0.151,0.771-0.223c0.246-0.073,0.485-0.149,0.682-0.253c0.099-0.051,0.188-0.117,0.277-0.19  c0.09-0.081,0.18-0.162,0.255-0.25c0.32-0.371,0.608-0.814,0.766-1.26c0.077-0.22,0.111-0.453,0.049-0.605  c-0.021-0.056-0.051-0.114-0.076-0.184c-0.028-0.077-0.052-0.15-0.068-0.219c-0.034-0.139-0.06-0.277-0.082-0.405  c-0.045-0.259-0.101-0.497-0.187-0.729c-0.086-0.231-0.206-0.453-0.348-0.664c-0.067-0.107-0.148-0.209-0.223-0.31  c-0.082-0.104-0.165-0.207-0.25-0.302c-0.168-0.196-0.349-0.382-0.536-0.571c-0.186-0.188-0.383-0.403-0.491-0.666  c-0.114-0.258-0.154-0.528-0.188-0.793l-0.001-0.004v-0.005l0.028-2.313c-1.899,1.145-3.92,2.003-5.67,2.746  c-1.524,0.646-2.841,1.206-3.491,1.737c-0.161,0.132-0.318,0.256-0.474,0.375c-0.146,0.403-0.295,0.804-0.451,1.206l-0.293,0.736  c-0.091,0.244-0.172,0.489-0.17,0.723c0.002,0.116,0.023,0.231,0.058,0.347c0.034,0.113,0.082,0.24,0.14,0.321  c0.129,0.187,0.319,0.367,0.515,0.53c0.396,0.325,0.828,0.617,1.277,0.874c0.224,0.129,0.452,0.247,0.684,0.351  c0.231,0.101,0.473,0.195,0.688,0.233c0.028,0.006,0.052,0.008,0.075,0.01l0.1,0.007l0.197,0.016  c0.139,0.018,0.293,0.036,0.428,0.069c0.277,0.06,0.529,0.142,0.78,0.208C56.065,84.926,56.316,84.986,56.572,85.041z"></path></svg>
