<svg xmlns="http://www.w3.org/2000/svg" xmlns:xlink="http://www.w3.org/1999/xlink" version="1.1" x="0px" y="0px" viewBox="0 0 100 100" enable-background="new 0 0 100 100" xml:space="preserve"><g><path d="M56.232,84.814c0,1.143-0.691,2.068-1.545,2.068h-9.375c-0.853,0-1.544-0.926-1.544-2.068l2.757-28.264   c0-1.141,0.69-2.066,1.543-2.066h3.862c0.853,0,1.543,0.926,1.543,2.066L56.232,84.814z"></path></g><g><path d="M34.606,84.814c-0.2,1.143-1.055,2.068-1.908,2.068h-6.619c-0.853,0-1.379-0.926-1.179-2.068l9.811-28.264   c0.2-1.141,1.055-2.066,1.908-2.066h3.86c0.853,0,1.381,0.926,1.18,2.066L34.606,84.814z"></path></g><g><path d="M18.275,84.814c-0.306,1.143-1.245,2.068-2.098,2.068H6.802c-0.853,0-1.295-0.926-0.99-2.068l17.224-28.264   c0.306-1.141,1.246-2.066,2.099-2.066h3.859c0.853,0,1.297,0.926,0.99,2.066L18.275,84.814z"></path></g><g><path d="M30.072,37.384c-5.256,0-9.22-2.223-9.22-5.17c0-2.76,3.478-4.886,8.237-5.144c0.427-2.768,3.5-4.852,7.347-4.852   c4.147,0,7.397,2.422,7.397,5.515c0,0.22-0.018,0.44-0.052,0.658c2.409,0.657,3.956,2.136,3.956,3.886   c0,2.381-2.943,4.246-6.699,4.246c-1.486,0-2.897-0.294-4.048-0.837C35.273,36.757,32.75,37.384,30.072,37.384z M30.095,29.112   c-4.117,0-7.174,1.637-7.174,3.102c0,1.464,3.059,3.102,7.151,3.102c2.507,0,4.89-0.635,6.216-1.657l0.559-0.431l0.605,0.363   c0.912,0.549,2.219,0.863,3.586,0.863c2.65,0,4.631-1.15,4.631-2.178c0-0.781-1.256-1.774-3.36-2.083l-1.392-0.204l0.61-1.267   c0.159-0.329,0.238-0.662,0.238-0.99c0-1.868-2.44-3.446-5.33-3.446c-2.888,0-5.329,1.578-5.329,3.446   c0,0.078,0.01,0.154,0.019,0.231l0.128,1.148h-1.156C30.097,29.112,30.096,29.112,30.095,29.112z"></path></g><g><path d="M72.408,31.74c-3.401,0-6.599-0.809-8.725-2.186c-1.441,0.71-3.236,1.097-5.133,1.097c-4.596,0-8.196-2.237-8.196-5.093   c0-2.142,1.981-3.949,5.042-4.711c-0.071-0.341-0.108-0.686-0.108-1.031c0-3.693,4.072-6.697,9.077-6.697   c4.743,0,8.647,2.699,9.043,6.124c5.908,0.276,10.38,2.917,10.38,6.237C83.789,28.99,78.789,31.74,72.408,31.74z M63.827,27.09   l0.559,0.431c1.748,1.347,4.747,2.151,8.022,2.151c5.488,0,9.312-2.21,9.312-4.193c0-1.983-3.823-4.193-9.312-4.193h-1.156   l0.097-1.148c0.012-0.107,0.025-0.213,0.025-0.322c0-2.509-3.209-4.629-7.008-4.629s-7.009,2.12-7.009,4.629   c0,0.455,0.111,0.916,0.328,1.37l0.61,1.267l-1.392,0.204c-2.555,0.375-4.48,1.622-4.48,2.901c0,1.431,2.517,3.025,6.127,3.025   c1.775,0,3.477-0.411,4.671-1.129L63.827,27.09z"></path></g><g><path d="M65.396,84.814c0.199,1.143,1.054,2.068,1.908,2.068h6.617c0.854,0,1.38-0.926,1.179-2.068l-9.809-28.264   c-0.2-1.141-1.055-2.066-1.909-2.066h-3.859c-0.853,0-1.381,0.926-1.181,2.066L65.396,84.814z"></path></g><g><path d="M81.726,84.814c0.307,1.143,1.245,2.068,2.098,2.068h9.375c0.854,0,1.296-0.926,0.99-2.068L76.965,56.551   c-0.305-1.141-1.245-2.066-2.098-2.066h-3.86c-0.854,0-1.296,0.926-0.99,2.066L81.726,84.814z"></path></g></svg>