<svg fill="#00C82B" xmlns="http://www.w3.org/2000/svg" xmlns:xlink="http://www.w3.org/1999/xlink" version="1.1" x="0px" y="0px" viewBox="0 0 100 100" enable-background="new 0 0 100 100" xml:space="preserve"><path fill="#00C82B" d="M86.273,56.585c0.686-0.357,1.387-1.146,2.014-2.024c-1.098-0.979-2.145-1.608-2.145-1.608  c1.318-1.429,2.317-2.673,3.062-3.761c-0.982-0.125-1.938-0.108-2.628,0.215c-1.259,0.589,1.21-0.974,3.615-1.845  c2.155-4.169-0.412-5.359-2.837-5.642c-0.83,1.708-1.681,2.971-1.212,2.032c0.268-0.535,0.389-1.286,0.428-2.097  c-1.323-0.062-2.428,0.097-2.428,0.097c0.724-1.81,1.21-3.277,1.514-4.472c-0.705,0.111-1.346,0.311-1.803,0.649  c-0.919,0.682,0.354-0.571,2.051-1.779c0.587-3.275-0.633-3.795-2.099-3.419c-0.919,2.15-2.22,4.133-1.663,3.021  c0.317-0.634,0.433-1.57,0.443-2.553c-1.289,0.63-2.443,1.553-2.443,1.553c0.38-1.709,0.59-3.19,0.672-4.491  c-0.815,0.316-1.549,0.692-2,1.129c-0.828,0.802,0.432-0.732,2.039-2.176c0.011-1.402-0.148-2.561-0.442-3.501  c-1.343,0.666-2.797,1.597-3.288,2.671c-0.67,1.466,0.607-2.519,2.195-4.747c-1.411-1.686-3.556-1.969-5.418-1.8  c-0.529,1.578-1.11,2.807-0.81,1.956c0.17-0.48,0.244-1.162,0.266-1.895c-1.8,0.25-3.214,0.854-3.214,0.854  c0.845-2.534-2.581-4.349-3.67-4.854c-0.357,0.748-0.591,1.498-0.544,2.146c0.096,1.312-0.417-1.184-0.435-3.622  c-0.707-1.384-1.399-2.502-2.073-3.389c-0.316,0.705-0.513,1.405-0.464,2.014c0.098,1.214-0.352-0.836-0.446-3.084  c-2.443-2.574-4.605-2.314-6.311-1.598c0.491,1.753,0.674,3.329,0.431,2.369c-0.161-0.636-0.671-1.322-1.282-1.961  c-0.922,0.482-1.673,0.979-2.206,0.979c-1.193,0-0.254,1.071,0.275,2.569c0.864,0.998,1.451,1.944,0.976,1.382  c-0.187-0.219-0.445-0.384-0.743-0.51c0.143,0.803,0.078,1.68-0.508,2.559c-2,3-3-1-3-1c-0.467-1.401-0.926-2.55-1.373-3.48  c-0.397,0.628-0.656,1.286-0.641,1.931c0.033,1.364-0.379-1.122-0.317-3.62c-1.735-2.551-3.259-1.956-4.411-0.535  c0.728,1.837,1.105,3.437,0.727,2.426c-0.208-0.555-0.668-1.148-1.229-1.724c-1.104,1.731-1.756,4.003-1.756,4.003  c-2.4-1.478-4.317-2.471-5.864-3.12c0.049,0.82,0.206,1.58,0.557,2.12c0.68,1.047-0.776-0.648-1.944-2.645  c-4.868-1.609-5.015,1.044-5.56,1.559c1.945,0.529,3.459,1.209,2.377,0.904c-0.72-0.204-1.624-0.066-2.53,0.22  c0.592,1.716,2.174,4.962-0.035,4.962c-1.433,0-3.545,0.466-5.582,1.271c0.627,1.886,1.582,3.729,0.582,2.729l-1.688-2.245  c1.463,2.222,2.603,5.613,1.969,4.267c-0.492-1.044-1.928-2.04-3.242-2.776c1.184,1.292,1.976,2.354,1.325,1.635  c-0.512-0.566-1.452-1.196-2.439-1.768c-0.793,0.57-1.466,1.201-1.924,1.888c-0.955,1.434-0.081,3.092,1.089,4.436  c1.711,0.485,3.703,1.652,2.782,1.261c-0.441-0.188-1.002-0.163-1.572-0.04c0.91,0.813,1.701,1.344,1.701,1.344  s-1.971,0.981-4.527,1.224c0.343,0.851,0.783,1.609,1.352,2.036c1.04,0.78-1.115-0.435-2.952-1.997  c-0.403-0.019-0.813-0.069-1.225-0.14c0.261,0.6,0.569,1.124,0.93,1.458c0.742,0.688-0.637-0.304-1.974-1.629  c-3.461-0.357-4.427,6.351-2.89,9.53c2.218-0.921,4.584-1.412,3.359-0.98c-0.869,0.307-1.669,1.196-2.327,2.182  c1.156,0.696,2.962,0.506,4.85,0.311c1.33-1.37,2.549-2.318,1.806-1.571c-0.351,0.353-0.65,0.881-0.91,1.483  c1.744-0.161,3.477-0.198,4.771,0.547c1.625-1.453,3.32-2.543,2.421-1.8c-0.606,0.501-1.134,1.444-1.566,2.453  c1.344,1.294,3.777,2.389,6.095,3.214c-0.031,0.699-0.045,1.45-0.029,2.269c0.147,7.773,1.885,20.493,2.011,21.387  c-0.023,0.032-0.04,0.14-0.063,0.174c-0.505,0.178-0.98,0.484-1.395,0.869c-0.162,0.149-0.576,0.338-0.708,0.505L22,73.607v0.015  c-1,0.021-1.048,0.257-1.464,0.699c-1.618,1.726,0.312,6.03,4.138,9.623c3.825,3.591,8.311,5.165,9.928,3.44  c0.342-0.362,0.578-1.35,0.639-1.351l0.125-0.002l-0.005-0.368c-0.002-0.07-0.051-0.146-0.054-0.217l-0.158-6.358  c0.5-0.582,0.802-1.276,0.918-2.012l0.019,0.022c3.689-0.079,13.399-0.368,19.743-1.256c0.934-0.131,1.775-0.287,2.544-0.459  c2.027,4.028,3.534,7.024,5.232,9.25c0.523-1.073,0.903-2.219,0.759-3.118c-0.252-1.563,0.854,2.292,0.813,5.021  c0.401,0.444,0.785,0.826,1.159,1.177c0.513-1.348,0.967-2.891,0.847-3.915c-0.18-1.521,0.683,2.408,0.534,5.052  c6.065,4.254,8.011-4.538,8.363-6.514c-2.592-0.576-5.521-2.014-4.134-1.539c0.993,0.34,2.385,0.03,3.646-0.43  c-0.626-2.127-1.23-5.722,1.552-6.417c0.897-0.225,1.686-0.447,2.42-0.669c-0.679-0.446-1.375-0.771-2.011-0.814  c-1.386-0.095,1.528-0.266,4.054,0.136c4.277-1.609,4.6-3.111,3.385-4.352c-2.751,0.136-6.674-0.85-5.085-0.651  c0.852,0.105,1.874-0.271,2.843-0.797c-2.458-1.15-5.605-1.853-5.605-1.853c3.723-0.465,6.505-1.075,8.553-1.773  c-0.836-1.091-1.871-2.148-2.893-2.425c-1.586-0.428,2.749,0.208,5.187,1.454c4.167-2.219,2.886-4.971,1.07-6.896  C87.152,56.406,85.23,57.127,86.273,56.585z M23.125,74.875c0,0-2.875-0.375-0.25,5.25C24.604,83.828,18.125,73,23.125,74.875z   M46.849,56.41c0.546-0.942,0.98-1.799,1.344-2.591c0.862,0.706,1.698,1.502,2.502,2.389c-0.664,0.459-1.375,0.986-2.142,1.609  c-1.844,1.5-3.95,3.396-6.008,5.322C44.114,60.841,45.651,58.48,46.849,56.41z M44.59,51.396c-0.548,0.638-1.127,1.363-1.742,2.218  c-1.273,1.77-2.626,3.838-3.993,6.033c0.797-2.706,1.545-5.482,2.052-7.828c0.15-0.69,0.263-1.327,0.356-1.937  C42.365,50.288,43.481,50.789,44.59,51.396z M41.258,27.92c0.315-2.62,2.009-4.759,2.009-4.759c-1.46,2.208-1.753,4.362-1.677,5.982  c0.229,0.935,0.408,1.86,0.546,2.759l0.003,0.007c-0.001-0.002-0.002-0.003-0.003-0.005c0.774,5.048,0.266,9.228,0.266,9.228  c0.366-15.309-6.569-22.363-6.569-22.363C38.628,21.278,40.285,24.604,41.258,27.92z M29.812,50.31l2.537,20.305  C30.334,64.728,29.812,50.31,29.812,50.31z M36.266,50.347c-0.846,2.616-1.686,5.859-2.446,9.009  c-0.123-3.036-0.316-6.395-0.622-8.971c-0.094-0.794-0.209-1.52-0.336-2.198c1.191,0.064,2.545,0.208,3.996,0.483  C36.659,49.192,36.461,49.741,36.266,50.347z M47.3,60.461l-8.713,8.969C40.348,65.806,47.3,60.461,47.3,60.461z M51.687,61.562  c0.635-0.63,1.191-1.23,1.683-1.799c0.678,1.086,1.313,2.261,1.885,3.555c-0.458,0.146-0.931,0.305-1.434,0.489  c-2.58,0.948-5.67,2.279-8.619,3.623C47.517,65.46,49.846,63.39,51.687,61.562z M55.563,70.97c-2.18,0.087-4.79,0.309-7.362,0.584  c2.623-1.038,5.226-2.143,7.385-3.188c0.442-0.214,0.854-0.426,1.247-0.637c0.294,1.021,0.559,2.091,0.786,3.22  C56.979,70.938,56.303,70.94,55.563,70.97z M59.28,39.367c0,0-3.188,0.364-5.592,3.044c-0.529,0.862-1.051,1.657-1.552,2.391  c-0.031,0.068-0.067,0.13-0.098,0.2c0,0,0.017-0.049,0.041-0.117c-0.874,1.273-1.671,2.328-2.322,3.148  c-0.001-0.109-0.004-0.207-0.009-0.289c4.405-6.263,6.987-12.181,8.486-17.071c0.786-6.596-2.626-11.082-2.626-11.082  c2.944,2.697,3.409,6.341,3.131,9.333c1.801-6.685,1.561-11.058,1.561-11.058c0.973,9.026-2.475,17.468-5.944,23.426  C55.494,40.163,57.094,39.242,59.28,39.367z M73.748,30.73c0.989-0.81,1.313-1.766,1.313-1.766  c-0.097,0.711-0.478,1.241-0.933,1.634c0.957-0.322,1.96-0.529,3.009-0.529c0,0-6.063,0.415-12.097,8.264  C65.041,38.333,68.599,32.679,73.748,30.73z M73.228,52.896c1.878,0.928,1.446,2.713,1.446,2.713  c0.105-1.446-1.085-2.308-2.049-2.766c-2.624-0.2-5.608-0.167-8.897,0.317c0,0,3.334-0.814,7.825-0.721  c-0.061-0.017-0.103-0.027-0.103-0.027c0.063,0.008,0.114,0.021,0.175,0.028c2.315,0.054,4.928,0.345,7.56,1.123  c1.782,0.047,2.932-0.56,2.932-0.56c-0.681,0.54-1.499,0.736-2.303,0.752c1.499,0.488,2.994,1.136,4.431,1.991  C84.244,55.747,80.07,53.525,73.228,52.896z"></path><path fill="#00C82B" d="M21.603,85.242l0.031,0.061c-0.01-0.021-0.02-0.039-0.028-0.059C21.604,85.242,21.603,85.242,21.603,85.242z  "></path><path fill="#00C82B" d="M19.409,80.968l0.01,0.068c-0.002-0.023-0.005-0.042-0.007-0.065C19.409,80.97,19.409,80.97,19.409,80.968z"></path><path fill="#00C82B" d="M17.45,76.77c0.001-0.002,0.001-0.002,0-0.005l-0.012,0.068C17.444,76.811,17.446,76.791,17.45,76.77z"></path><path fill="#00C82B" d="M33.327,88.905c0.022,0.005,0.041,0.008,0.064,0.014l-0.067-0.015  C33.325,88.905,33.326,88.905,33.327,88.905z"></path><path fill="#00C82B" d="M28.606,88l0.06,0.034c-0.021-0.014-0.036-0.023-0.055-0.035C28.608,87.999,28.608,87.999,28.606,88z"></path><path fill="#00C82B" d="M24.09,86.952l0.046,0.05c-0.017-0.017-0.027-0.029-0.044-0.048C24.091,86.953,24.092,86.952,24.09,86.952z"></path></svg>
