<svg fill="#F5D327" xmlns="http://www.w3.org/2000/svg" xmlns:xlink="http://www.w3.org/1999/xlink" version="1.1" x="0px" y="0px" viewBox="-255 347 100 100" enable-background="new -255 347 100 100" xml:space="preserve"><g display="none"><path display="inline" fill-rule="evenodd" clip-rule="evenodd" d="M-205,349.5c-26.2,0-47.5,21.3-47.5,47.5s21.3,47.5,47.5,47.5   s47.5-21.3,47.5-47.5S-178.8,349.5-205,349.5z M-205,436.9c-22,0-39.9-17.9-39.9-39.9s17.9-39.9,39.9-39.9s39.9,17.9,39.9,39.9   S-183,436.9-205,436.9z"></path><g display="inline"><path fill-rule="evenodd" clip-rule="evenodd" d="M-208.1,422.6c0,0-16.8-5.7-16.8-19.1s8.3-14.3,13.7-22.1    c5.4-7.9,5.3-9.9,5.3-9.9s4.2,3.1,6.9,9.9s0,16,0,16s3.2-1.6,5.3-4.6c2.1-3,3.1-6.9,3.1-6.9s5.3,5.1,5.3,15.3    c0,14.6-11.4,21.4-11.4,21.4s-7-6.2-9.2-10.7c-2.2-4.4-3.8-9.9-3.8-9.9s-3.1,4.3-3.1,8.4C-212.6,418.5-208.1,422.6-208.1,422.6z"></path></g></g><g display="none"><path display="inline" fill-rule="evenodd" clip-rule="evenodd" d="M-205,349.5c-26.2,0-47.5,21.3-47.5,47.5s21.3,47.5,47.5,47.5   s47.5-21.3,47.5-47.5S-178.8,349.5-205,349.5z M-205,436.9c-22,0-39.9-17.9-39.9-39.9s17.9-39.9,39.9-39.9s39.9,17.9,39.9,39.9   S-183,436.9-205,436.9z"></path><path display="inline" fill-rule="evenodd" clip-rule="evenodd" d="M-205,370.5c-8.5,10.8-22,16.2-22,31c0,12.2,9.9,22,22,22   s22-9.9,22-22C-183,386.6-196.5,381.2-205,370.5z M-206.8,417.2c-8.2,0-14.9-6.6-14.9-14.9c0-3.2,1-6.2,2.7-8.6c0,0.3,0,0.6,0,0.9   c0,11,8.6,19.9,19.4,20.6C-201.7,416.6-204.2,417.2-206.8,417.2z"></path></g><g><path fill-rule="evenodd" clip-rule="evenodd" d="M-205,349.5c-26.2,0-47.5,21.3-47.5,47.5s21.3,47.5,47.5,47.5   s47.5-21.3,47.5-47.5S-178.8,349.5-205,349.5z M-205,436.9c-22,0-39.9-17.9-39.9-39.9s17.9-39.9,39.9-39.9s39.9,17.9,39.9,39.9   S-183,436.9-205,436.9z"></path><g><path fill-rule="evenodd" clip-rule="evenodd" d="M-198.6,371.5l-28.9,30.6h22.9l-6.8,20.4l28.9-30.6h-22.9L-198.6,371.5z"></path></g></g></svg>