<svg fill="#F5D327" xmlns="http://www.w3.org/2000/svg" xmlns:xlink="http://www.w3.org/1999/xlink" version="1.1" x="0px" y="0px" viewBox="0 0 100 100" enable-background="new 0 0 100 100" xml:space="preserve"><path d="M82.5,5h-65C10.6,5,5,10.6,5,17.5v65C5,89.4,10.6,95,17.5,95h65C89.4,95,95,89.4,95,82.5v-65C95,10.6,89.4,5,82.5,5z   M90,82.5c0,4.1-3.4,7.5-7.5,7.5h-65c-4.1,0-7.5-3.4-7.5-7.5v-65c0-4.1,3.4-7.5,7.5-7.5h65c4.1,0,7.5,3.4,7.5,7.5V82.5z"></path><path d="M77.5,40H60V22.5c0-1.4-1.1-2.5-2.5-2.5h-15c-1.4,0-2.5,1.1-2.5,2.5V40H22.5c-1.4,0-2.5,1.1-2.5,2.5v15  c0,1.4,1.1,2.5,2.5,2.5H40v17.5c0,1.4,1.1,2.5,2.5,2.5h15c1.4,0,2.5-1.1,2.5-2.5V60h17.5c1.4,0,2.5-1.1,2.5-2.5v-15  C80,41.1,78.9,40,77.5,40z M75,55H57.5c-1.4,0-2.5,1.1-2.5,2.5V75H45V57.5c0-1.4-1.1-2.5-2.5-2.5H25V45h17.5c1.4,0,2.5-1.1,2.5-2.5  V25h10v17.5c0,1.4,1.1,2.5,2.5,2.5H75V55z"></path></svg>