<svg fill="#51A7F9" xmlns="http://www.w3.org/2000/svg" xmlns:xlink="http://www.w3.org/1999/xlink" version="1.1" x="0px" y="0px" viewBox="0 0 100 100" style="enable-background:new 0 0 100 100;" xml:space="preserve"><style type="text/css">
	.st0{fill:none;stroke:#51A7F9;stroke-width:0.6943;stroke-miterlimit:10;}
</style><path d="M54.5,49.8l2.1-2.1l-4.2-4.2l-2.1,2.1l-9.6-9.6c0.5,0,0.9,0.1,1.4,0.1c8.6,0,15.6-7,15.6-15.6s-7-15.6-15.6-15.6  c-6.1,0-11.4,3.5-13.9,8.6C26.3,9.7,22.4,7,17.9,7C11.7,7,6.6,12.1,6.6,18.3c0,4.5,2.7,8.4,6.5,10.2C8,31.1,4.5,36.4,4.5,42.5  c0,8.6,7,15.6,15.6,15.6s15.6-7,15.6-15.6c0-1.2-0.1-2.3-0.4-3.4L46,49.8l-2.1,2.1l4.2,4.2l2.1-2.1L75,78.8l-6.3,6.3l4.2,4.2  l6.3-6.3l3.5,3.5l-6.3,6.3l4.2,4.2l10.6-10.6L54.5,49.8z M17.9,15c1.8,0,3.3,1.5,3.3,3.3c0,1.8-1.5,3.3-3.3,3.3  c-1.8,0-3.3-1.5-3.3-3.3C14.6,16.5,16.1,15,17.9,15z M20.1,50c-4.2,0-7.6-3.4-7.6-7.6c0-4.2,3.4-7.6,7.6-7.6c4.2,0,7.6,3.4,7.6,7.6  C27.6,46.6,24.2,50,20.1,50z M34.5,20.5c0-4.2,3.4-7.6,7.6-7.6c4.2,0,7.6,3.4,7.6,7.6S46.2,28,42.1,28C37.9,28,34.5,24.6,34.5,20.5z  "></path></svg>