<svg xmlns="http://www.w3.org/2000/svg" xmlns:xlink="http://www.w3.org/1999/xlink" version="1.0" x="0px" y="0px" viewBox="0 0 100 100" enable-background="new 0 0 100 100" xml:space="preserve"><path fill="#22aa55" d="M72.2497559,52.1491089c-0.858284-4.4663162-2.7476425-4.4663162-2.23349-2.9203186  c0.5158157,1.5459976,0.1329651,2.8725319-1.3735428,3.7787132c-1.5851593,0.9535294-1.0300751-0.3433571-1.0300751-0.3433571  c1.0300751-4.4654312-2.4043961-8.5875015-6.0114326-11.6795006c-3.6069221-3.0911102-4.8096733-6.698143-4.1220703-11.1635742  c0.6877136-4.4663162,0.1717911-4.1220722-2.5768471-1.0309601c-2.7478638,3.0919952-0.8583984-1.2017555-0.8583984-1.2017555  c5.3247147-12.0237417-0.3433571-17.519249-3.2637863-20.7820396c-2.9193192-3.2636757-7.2130699-1.3743191-4.4644318,0  c2.7476387,1.3734341,3.2627907,10.6476526,0,13.9113283c-3.2637863,3.2627907-6.526577,10.6494236-5.8690643,14.4272518  c0.6585083,3.7787132-0.6575127,5.1530342-1.8600426,2.2327156c-1.2027512-2.9194336,0-8.759182,1.0300751-11.5078201  c1.0309601-2.7477512,2.0619202-3.4344692-3.2629013,0c-5.3247128,3.4353561-9.7900314,17.862606-3.607811,25.4200325  c6.1829987,7.5565453,4.2538185,15.293396,3.778717,12.7104645c-0.9803009-5.3291397-2.622757-6.8583221-4.8882141-7.5945969  c-6.1310062-1.9926758-6.6188335,2.6132393-4.7294769,2.0973167c1.8894672-0.5150375,4.2197475,5.9450569,0,13.5688591  c0,0-6.5978146,12.8030472,9.1093979,21.260788c1.7678986,0.9518738,3.4817047,1.6566162,5.142746,2.1673431  c-0.9288597-1.008728-1.680397-2.0625839-2.2296181-3.0476379c-7.5865192-11.4350357-3.5188713-17.5933609-2.9686584-20.4515152  c0.5495529-2.8592529,1.7590485-2.8592529,1.4298515-1.8695526c-0.3301964,0.9897003-0.0850677,1.838913,0.8794136,2.4191055  c1.0148087,0.6103897,0.6593933-0.2199097,0.6593933-0.2199097c-0.6593933-2.8585892,1.5392494-5.4974976,3.8485146-7.4771194  c2.3091507-1.9789543,3.0791626-4.2879982,2.6389046-7.1468086c-0.4402618-2.8593674-0.1099548-2.6389046,1.6497574-0.6600609  c1.7590485,1.9795113,0.5495491-0.7693481,0.5495491-0.7693481c-3.4088058-7.6974678,0.219799-11.215786,2.0893555-13.3044777  c1.8690033-2.0894661,4.6178627-0.8798561,2.8581505,0c-1.7590485,0.8791924-2.0888023,6.8165054,0,8.9058609  c2.0894661,2.088913,4.1782646,6.8178368,3.7573624,9.2362785c-0.421566,2.4191055,0.4209023,3.2989655,1.1908035,1.4294052  c0.7699051-1.8690033,0-5.607563-0.6593933-7.3672752c-0.6600571-1.7590485-1.3200035-2.1987534,2.0888023,0  c3.4088058,2.1993103,6.2676201,11.4355888,2.3097038,16.2737999c-3.9583549,4.8376617-2.7231941,9.7906952-2.4189949,8.1371765  c0.6275368-3.4116821,1.6789589-4.3906555,3.1293831-4.8621063c3.9250641-1.27565,4.2373352,1.6729889,3.0277328,1.3427963  c-1.2096138-0.3297577-2.7014084,3.8060303,0,8.6867218c0,0,0.44944,0.8780899,0.7058487,2.2446671  c0.7513199-0.981514,1.3927917-1.9636917,1.9176788-2.9052734C79.4630508,66.2330017,73.1091461,56.6136551,72.2497559,52.1491089z"/></svg>