<svg xmlns="http://www.w3.org/2000/svg" xmlns:xlink="http://www.w3.org/1999/xlink" version="1.1" x="0px" y="0px" viewBox="0 0 100 100" style="enable-background:new 0 0 100 100;" xml:space="preserve"><path fill="#C96F7F" d="M93.934,27.619c-0.353,0.03-0.708,0.139-1.044,0.262c-2.016,0.733-4.025,1.487-6.043,2.214  c-0.237,0.085-0.518,0.079-0.777,0.068c-2.341-0.101-4.681-0.291-7.022-0.3c-3.06-0.012-6.059,0.502-8.922,1.606  c-1.131,0.436-2.197,1.053-3.256,1.652c-0.419,0.237-0.78,0.618-1.091,0.996c-0.571,0.694-0.876,1.498-0.546,2.396  c0.302,0.821,0.163,1.637,0.033,2.446c-0.054,0.339-0.244,0.694-0.468,0.963c-0.72,0.867-1.672,1.229-2.842,1.189  c-0.074-0.287-0.175-0.532-0.197-0.783c-0.169-1.953-1.082-3.574-2.234-5.094c-0.578-0.764-0.572-0.81,0.075-1.654  c1.251,0.244,2.522,0.222,3.756-0.252c1.79-0.688,3.186-1.87,4.205-3.476c1.195-1.882,2.153-3.866,2.343-6.14  c0.024-0.292,0.057-0.619,0.202-0.859c0.946-1.57,0.689-3.186,0.183-4.79c-0.648-2.055-1.806-3.821-3.33-5.328  c-3.246-3.21-7.158-4.756-11.733-4.542c-1.082,0.051-2.82,1.133-2.82,1.133c1.005-0.184,1.919-0.412,2.932-0.525  c1.721-0.192,3.351,0.258,4.908,0.941c4.579,2.008,7.474,5.41,8.482,10.356c0.238,1.168,0.2,2.296-0.414,3.411  c0.239,0.114,0.431,0.205,0.663,0.315c-0.479,1.706-1.549,3.043-2.728,4.293c-2.035,2.158-4.336,3.24-6.34,3.018  c-0.019-0.241-0.023-0.497-0.061-0.748c-0.058-0.39-0.088-0.795-0.221-1.16c-0.31-0.853-0.845-1.121-1.714-0.823  c-0.489,0.168-0.94,0.457-1.395,0.717c-0.637,0.364-1.264,0.729-2.119,0.126c0.219-0.24,0.409-0.434,0.582-0.642  c0.165-0.198,0.313-0.411,0.515-0.68c-0.337-0.135-0.603-0.24-0.867-0.348c-0.87-0.358-1.464-0.98-1.443-1.94  c0.039-1.873-1.083-3.124-2.202-4.392c-0.105-0.119-0.257-0.214-0.406-0.271c-0.447-0.173-0.809,0.112-0.738,0.591  c0.046,0.312,0.148,0.616,0.229,0.941c-0.831,0.353-1.45,0.036-1.973-0.426c-1.628-1.438-2.692-4.065-1.284-6.651  c0.107-0.196,0.228-0.385,0.246-0.718c-0.206,0.109-0.454,0.176-0.613,0.332c-1.088,1.075-1.472,2.43-1.3,3.899  c0.19,1.629,0.961,3.013,2.19,4.104c0.361,0.321,0.815,0.563,1.264,0.753c0.881,0.373,1.74,0.286,2.543-0.346  c0.478,0.447,0.699,0.965,0.697,1.591c-0.002,0.528-0.002,1.057,0.01,1.585c0.017,0.762,0.326,1.393,0.841,1.953  c0.303,0.33,0.57,0.704,0.797,1.091c0.283,0.482,0.631,0.777,1.205,0.916c0.922,0.224,1.812,0.19,2.768-0.169  c0.081,1.282-0.244,2.335-0.737,3.418c0.257,0.07,0.458,0.125,0.697,0.19c0.055,1.426,0.83,2.527,1.697,3.583  c0.147,0.179,0.297,0.354,0.44,0.536c1.192,1.509,1.529,3.194,0.964,5.029c-0.656,2.128-1.612,4.111-2.974,5.888  c-0.924,1.205-1.845,2.412-2.748,3.633c-0.771,1.043-1.199,2.21-1.048,3.523c0.052,0.448,0.173,0.919,0.385,1.313  c0.531,0.982,1.331,1.067,2.068,0.36c1.932-0.255,3.359,0.781,4.897,1.563c-0.093,0.865-0.621,1.272-1.318,1.49  c-1.143,0.356-2.295,0.277-3.406-0.122c-0.679-0.244-1.32-0.598-1.971-0.916c-0.326-0.159-0.634-0.355-0.957-0.521  c-0.94-0.482-1.008-0.471-1.819,0.221c-0.99-0.421-5.108-3.948-5.773-4.982c0.672-0.083,1.315-0.124,1.941-0.249  c1.292-0.259,2.585-0.528,3.86-0.86c0.872-0.227,1.446-0.756,1.778-1.476c-0.389,0.069-0.737,0.127-1.084,0.192  c-1.279,0.238-2.557,0.223-3.843,0.032c-1.533-0.227-3.095-0.313-4.604-0.644c-3.97-0.872-6.553-4.032-6.733-8.116  c-0.036-0.822-0.251-1.562-0.747-2.213c-0.36-0.472-0.751-0.921-1.115-1.389c-1.213-1.557-1.862-3.259-1.319-5.258  c0.15-0.553,0.37-1.041,0.904-1.361c0.27-0.162,0.551-0.426,0.665-0.709c0.407-1.014,1.091-1.861,1.598-2.812  c0.539-1.009,1.286-1.836,2.204-2.51c0.178-0.13,0.388-0.216,0.726-0.401c-0.034,0.649-0.074,1.164-0.085,1.68  c-0.038,1.807,0.105,3.573,1.239,5.094c0.15,0.201,0.328,0.38,0.578,0.667c0-0.765,0-1.384,0-2.073  c0.756,0.159,2.296,0.35,2.326,0.29c-0.42-0.575-0.779-1.213-1.284-1.699c-0.279-0.268-0.805-0.28-1.275-0.424  c-0.538-2.036-0.336-4.989,0.508-6.438c0.542,0.439,1.007,1.2,1.911,0.688c-0.18-0.69-0.35-1.34-0.565-2.159  c0.437,0.329,0.991,0.773,0.991,0.773c-0.197-0.661-0.349-1.341-0.615-1.972c-0.106-0.251-0.445-0.501-0.719-0.56  c-0.371-0.08-0.524,0.267-0.665,0.595c-0.206,0.478-0.492,0.921-0.735,1.384c-0.548,1.044-1.09,2.091-1.72,3.302  c-1.878,0.457-3.526,1.544-4.403,3.852c-0.193-0.509-0.321-0.831-0.438-1.157c-1.393-3.88-2.779-7.762-4.185-11.637  c-0.141-0.389-0.794-2.077-0.998-2.443c0,0,0.535,2.036,0.63,2.383c1.198,4.358,2.404,8.715,3.606,13.072  c0.078,0.282,0.144,0.567,0.251,0.99c-0.661,0.016-1.243,0.076-1.817,0.034c-1.02-0.074-2.042-0.169-3.051-0.33  c-1.454-0.232-2.891-0.188-4.333,0.075c-1.663,0.303-3.335,0.45-5.024,0.223c-0.255-0.034-0.519-0.005-0.861-0.005  c0.279,0.387,0.655,0.426,0.99,0.487c1.428,0.258,2.853,0.608,4.294,0.701c1.994,0.128,3.905,0.627,5.845,1.007  c0.897,0.176,1.801,0.312,2.784,0.48c-0.767,1.918-1.477,3.771-0.989,5.903c-0.288-0.015-0.5-0.012-0.708-0.04  c-0.883-0.12-1.763-0.263-2.647-0.374c-1.818-0.23-3.53-0.818-5.215-1.508c-0.794-0.325-1.594-0.639-2.409-0.904  c-1.199-0.39-2.421-0.67-3.7-0.461c-0.16,0.026-0.329,0.015-0.493,0.003c-0.058-0.004-0.112-0.059-0.212-0.115  c0.039-0.36,0.081-0.738,0.122-1.116c-0.056-0.028-0.112-0.057-0.168-0.085c-0.222,0.338-0.46,0.666-0.663,1.015  c-0.44,0.755-1.019,0.829-1.536,0.132c-0.312-0.42-0.576-0.89-0.781-1.371c-0.562-1.316-0.778-2.701-0.785-4.116  c0.838-0.132,1.648-0.012,2.616,0.375c0.02,0.329,0.024,0.688,0.065,1.043c0.16,1.387,1.1,2.021,2.442,1.656  c0.943-0.256,1.247-0.465,1.736-1.206c-0.774-0.973-1.693-0.214-2.671-0.179c-0.062-0.281-0.125-0.563-0.194-0.874  c0.326-0.101,0.557-0.138,0.754-0.24c0.734-0.377,0.794-1.291,0.05-1.645c-1.037-0.494-2.106-0.972-3.214-1.242  c-0.621-0.152-1.369,0.052-2.019,0.237c-0.588,0.167-0.76,0.533-0.68,1.162c0.191,1.506,0.389,3.017,0.966,4.437  c0.545,1.344,0.996,2.773,2.605,3.239c-0.014,0.223,0,0.358-0.034,0.479c-0.727,2.536-0.124,4.873,0.966,7.18  c0.771,1.632,1.852,3.041,2.919,4.464c0.745,0.993,1.27,2.085,1.685,3.236c0.391,1.086,0.011,2.075-0.501,3.026  c-0.156,0.29-0.37,0.552-0.498,0.853c-0.268,0.626-0.046,1.296,0.504,1.646c0.535,0.34,1.279,0.253,1.711-0.247  c0.212-0.245,0.407-0.539,0.502-0.844c0.302-0.975,0.747-1.959,0.776-2.951c0.041-1.373-0.506-2.631-1.526-3.646  c-0.77-0.766-1.509-1.569-2.21-2.4c-2.363-2.8-3.307-6.104-3.356-9.708c-0.004-0.284,0.061-0.569,0.105-0.946  c1.515,0.131,2.816,0.621,4.086,1.268c1.233,0.628,2.475,1.253,3.76,1.76c2.503,0.986,5.054,1.238,7.63,0.217  c0.2-0.079,0.428-0.084,0.617-0.119c0.356,0.47,0.008,0.735-0.187,1.012c-1.366,1.946-2.745,3.882-4.115,5.825  c-1.027,1.457-2.051,2.917-3.066,4.383c-0.184,0.266-0.495,0.831-0.495,0.831c0.108-0.072,0.24-0.124,0.32-0.22  c2.377-2.833,4.754-5.667,7.118-8.511c0.337-0.405,0.608-0.865,0.922-1.29c0.133-0.181,0.299-0.337,0.443-0.499  c0.541,0.213,0.6,0.634,0.563,1.077c-0.062,0.723-0.173,1.442-0.231,2.165c-0.335,4.15-0.613,8.305-0.149,12.462  c0.373,3.342,1.529,6.419,3.402,9.205c1.053,1.567,2.643,2.562,4.18,3.591c1.423,0.953,3.017,1.469,4.679,1.817  c0.271,0.057,0.568,0.184,0.762,0.372c1.014,0.98,2.275,1.441,3.601,1.761c0.72,0.174,1.361-0.066,1.959-0.606  c0.304,0.318,0.583,0.59,0.838,0.882c2.45,2.809,5.413,4.945,8.777,6.496c3.301,1.522,6.727,2.706,10.332,3.301  c1.668,0.275,3.34,0.396,5.03,0.172c0.75-0.099,1.516-0.107,2.275-0.108c0.32-0.001,0.657,0.078,0.956,0.197  c0.796,0.319,1.73,0.517,2.317,1.072c0.578,0.547,0.806,1.47,1.171,2.236c0.255,0.536,0.459,1.099,0.729,1.627  c0.27,0.528,0.548,1.063,0.904,1.532c0.743,0.978,1.733,1.085,2.659,0.292c0.397-0.34,0.755-0.747,1.046-1.181  c0.512-0.766,0.982-1.563,1.426-2.372c0.379-0.69,0.424-1.462,0.318-2.223c-0.283-2.018-0.912-3.92-2.03-5.64  c-0.753-1.158-1.694-2.015-3.191-2.034c-0.778-0.01-1.347-0.41-1.782-1.068c-0.436-0.66-0.949-1.269-1.428-1.901  c-1.405-1.854-3.245-3.081-5.46-3.749c-1.972-0.596-3.899-0.804-5.576,0.93c-0.891-7.398-4.24-12.964-11.232-16.026  c0.119-0.537,0.539-0.699,1.006-0.751c0.843-0.093,1.663,0.055,2.378,0.508c1.422,0.9,2.807,1.857,4.222,2.768  c1.303,0.839,2.607,1.679,3.943,2.463c0.809,0.475,1.721,0.67,2.67,0.61c1.605-0.102,2.521-1.291,1.983-2.808  c-0.733-2.069-2.117-3.632-4.165-4.535c-0.33-0.145-0.682-0.291-1.013,0.063c-0.051,0.407,0.309,0.514,0.525,0.742  c0.725,0.761,2.331,2.286,2.616,3.637c-0.59,0.058-0.905-0.207-1.209-0.424c-1.264-0.901-2.5-1.84-3.764-2.741  c-1.733-1.237-3.651-1.997-5.799-2.027c-1.469-0.021-2.89,0.341-4.219,0.93c-0.537,0.238-0.934,0.79-1.32,1.318  c-0.192,0.026-0.383,0.074-0.575,0.076c-1.507,0.01-2.056-0.736-1.52-2.171c0.755-2.02,1.795-3.892,3.081-5.627  c1.055-1.423,1.766-3.017,2.25-4.713c0.152-0.533,0.238-1.084,0.333-1.524c0.752,0,1.444,0.082,2.109-0.015  c2.452-0.357,3.861-2.84,2.958-5.135c-0.445-1.131-0.301-1.736,0.646-2.5c1.34-1.081,2.933-1.645,4.557-2.107  c2.903-0.827,5.873-1.254,8.892-1.329c1.486-0.037,2.973-0.063,4.459-0.069c0.319-0.001,0.696,0.019,0.948,0.182  c1.186,0.766,2.416,0.636,3.612,0.155c0.848-0.341,1.623-0.865,2.423-1.321c0.215-0.122,0.4-0.296,0.647-0.366  c-1.52,2.942-4.188,3.905-7.346,4.104c0.427,0.456,1.214,0.677,2.644,0.355c-0.7,0.437-1.235,0.82-1.812,1.124  c-1.8,0.947-3.708,1.55-5.74,1.763c-0.414,0.043-0.852,0.178-1.207,0.391c-0.915,0.548-0.872,1.668,0.094,2.119  c0.464,0.217,1.009,0.308,1.526,0.353c0.722,0.063,1.453,0.023,2.179,0.039c0.212,0.005,0.423,0.047,0.842,0.098  c-1.784,0.831-3.488,0.812-5.288,0.783c0.693,0.639,1.117,0.68,4.156,0.471c-0.146,0.608-0.575,0.961-1.001,1.271  c-1.309,0.952-2.759,1.538-4.405,1.547c-0.562,0.003-1.123,0.005-1.685,0.013c-0.231,0.004-0.462,0.016-0.692,0.038  c-0.352,0.034-0.722,0.178-0.724,0.541c-0.001,0.275,0.196,0.64,0.421,0.807c0.419,0.31,0.922,0.507,1.392,0.746  c0.436,0.222,0.891,0.416,1.194,0.905c-0.645,0.622-1.458,0.711-2.211,0.73c-2.842,0.07-5.587-0.387-8.112-1.794  c-0.056-0.031-0.126-0.035-0.197-0.053c-0.411,0.122-0.522,0.397-0.307,0.752c0.221,0.364,0.461,0.732,0.758,1.033  c0.672,0.681,1.383,1.324,2.082,1.977c0.163,0.152,0.345,0.283,0.468,0.516c-1.771,0.196-3.356-0.375-4.946-0.944  c-1.604-0.574-4.321-2.603-4.373-2.556c0.038,0.127,0.04,0.286,0.119,0.377c1.912,2.207,4.145,3.974,6.929,4.954  c1.002,0.353,2.042,0.548,3.115,0.344c0.162-0.031,0.329-0.051,0.483-0.107c0.709-0.258,1.34-0.606,1.441-1.46  c0.096-0.82-0.406-1.275-1.034-1.649c-0.192-0.114-0.371-0.251-0.516-0.508c0.532,0.066,1.065,0.122,1.596,0.201  c1.365,0.202,2.701,0.056,4.014-0.335c0.251-0.075,0.494-0.189,0.726-0.313c1.094-0.587,1.175-1.518,0.195-2.255  c-0.306-0.23-0.639-0.425-0.924-0.8c1.314,0,2.628-0.029,3.94,0.009c1.123,0.032,2.086-0.276,2.847-1.119  c0.785-0.87,1.065-1.822,0.336-2.929c0.184-0.104,0.31-0.223,0.451-0.248c1.646-0.284,3.009-1.147,4.328-2.101  c0.332-0.24,0.655-0.5,0.505-0.972c-0.149-0.469-0.554-0.506-0.969-0.505c-0.122,0-0.244-0.032-0.417-0.057  c0.097-0.124,0.14-0.222,0.215-0.27c1.336-0.852,2.129-2.131,2.822-3.505c0.185-0.367,0.467-0.728,0.793-0.975  c1.292-0.976,2.024-2.329,2.643-3.766c0.088-0.206,0.114-0.449,0.122-0.676C94.618,27.837,94.367,27.582,93.934,27.619z   M49.365,72.748c0.763-0.01,1.447,0.193,1.989,0.768C50.581,73.527,49.915,73.284,49.365,72.748z M62.138,60.036  c0.029-0.082,0.124-0.141,0.242-0.269c0.282,0.246,0.559,0.47,0.816,0.714c1.697,1.604,3.065,3.462,4.144,5.523  c0.857,1.637,1.629,3.319,2.453,4.973c0.632,1.268,1.339,2.503,1.56,3.934c0.007,0.047,0.099,0.08,0.219,0.172  c0.545-0.057,1.066-0.305,1.562-0.638c0.559-0.375,1.169-0.641,1.855-0.594c0.657,0.044,1.332,0.072,1.961,0.245  c1.905,0.521,3.646,1.356,4.977,2.885c0.347,0.399,0.695,0.798,1.068,1.172c0.864,0.868,1.961,1.277,3.143,1.636  c-0.03-0.238-0.048-0.381-0.067-0.535c0.932,0.321,1.293,0.601,1.838,1.549c1.053,1.829,1.618,3.826,1.904,5.901  c0.245,1.77-0.828,3.305-2.745,3.87c-0.342-0.634-0.696-1.291-1.039-1.927c0.653-0.916,0.398-1.701-0.187-2.413  c-0.745-0.906-1.745-1.399-2.891-1.585c-1.172-0.19-2.35-0.339-3.524-0.521c-2.706-0.419-5.418-0.809-8.115-1.281  c-4.115-0.719-7.697-2.742-11.212-4.839c-2.633-1.571-5.148-3.332-7.371-5.491c-0.877-0.852-1.79-1.649-2.508-2.648  c-0.165-0.229-0.428-0.388-0.645-0.579c0,0,0.365,1.284,0.553,2.001c-0.234,0.011-2.757-0.35-3.798-0.654  c-3.867-1.13-6.801-3.426-8.625-7.066c-1.855-3.702-2.661-7.657-2.733-11.762c-0.044-2.509,0.07-5.02,0.117-7.53  c0.003-0.159,0.044-0.318,0.069-0.495c0.522,0.033,0.723,0.311,0.774,0.763c0.062,0.557,0.135,1.114,0.226,1.667  c0.367,2.218,1.128,4.234,2.625,5.991c1.908,2.24,4.056,4.133,6.642,5.56c1.993,1.1,3.909,2.341,5.867,3.504  c0.737,0.437,1.5,0.786,2.211,0.009c0.67,0.305,1.266,0.585,1.868,0.85c1.217,0.536,2.475,0.668,3.776,0.369  C60.556,62.171,61.633,61.455,62.138,60.036z"/><path fill="#9E6570" d="M60.65,82.631c-1.436,0.19-2.86,0.487-4.282,0.773c-1.064,0.214-2.115,0.497-3.176,0.724  c-1.549,0.331-2.933-0.125-4.238-0.932c-2.787-1.723-4.737-4.167-6.114-7.101c-0.603-1.284-1.234-2.559-1.752-3.878  c-0.467-1.189-1.31-2.024-2.237-2.827c-0.032,0.049,1.482,5.831,2.73,8.549c1.309,2.851,3.248,5.109,5.924,6.73  c1.276,0.773,2.617,1.184,4.154,0.84c0.794-0.178,1.641-0.119,2.464-0.167c3.229-0.19,6.446-0.475,9.602-1.229  c0.341-0.081,0.665-0.233,0.996-0.352C64.718,83.674,62.093,82.44,60.65,82.631z"/><path fill="#9E6570" d="M16.222,28.639c0.124-0.38,0.196-0.529,0.22-0.685c0.515-3.333,2.234-5.952,4.814-8.042c1.692-1.371,3.413-2.707,5.13-4.046  c1.387-1.082,2.669-2.267,3.641-3.745c0.763-1.16,0.961-2.377,0.2-3.629c-0.468-0.77-1.147-1.024-1.83-0.705  c-0.729,0.341-1.021,1.099-0.571,1.928c0.662,1.219,0.369,2.269-0.481,3.171c-0.787,0.835-1.688,1.571-2.581,2.297  c-1.587,1.29-3.226,2.518-4.808,3.814c-1.442,1.182-2.657,2.569-3.478,4.264c-0.714,1.473-0.941,3.012-0.551,4.619  C15.971,28.067,16.064,28.241,16.222,28.639z"/><path fill="#9E6570" d="M53.211,41.606c-0.663-0.579-1.324-0.526-1.959-0.449c-1.323,0.16-2.58,0.55-3.736,1.232c-0.28,0.165-0.567,0.32-0.91,0.513  c-0.154-0.247-0.31-0.449-0.418-0.675c-0.5-1.045-1.315-1.753-2.403-2.078c-2.048-0.612-3.303-1.957-3.93-3.966  c-0.216-0.692-0.489-1.369-0.779-2.034c-0.235-0.539-0.528-1.057-1.356-1.358c1.037,1.317,1.17,2.671,1.396,4.008  c0.158,0.939,0.358,1.884,0.663,2.784c0.538,1.586,1.707,2.461,3.368,2.677c0.426,0.055,0.852,0.107,1.274,0.186  c0.605,0.112,1.107,0.39,1.432,0.976c-0.646,0.916-1.895,1.481-1.759,3.104C46.83,44.143,49.766,42.515,53.211,41.606z"/><path fill="#9E6570" d="M11.87,26.171c0.449-0.78,0.249-1.599-0.403-2.008c-0.665-0.417-1.412-0.226-1.973,0.524  c-0.532,0.712-1.072,1.421-1.568,2.158c-0.606,0.901-1.285,1.681-2.604,1.822c0.255,0.262,0.385,0.424,0.542,0.554  c1.262,1.042,2.393,2.166,2.757,3.859c0.129,0.601,0.562,0.958,1.188,1.027c0.5,0.055,1.009-0.229,1.234-0.661  c0.264-0.508,0.187-1.19-0.292-1.635c-0.601-0.559-1.256-1.062-1.906-1.566c-0.413-0.321-0.858-0.6-1.429-0.995  c0.443-0.112,0.695-0.179,0.949-0.24C9.986,28.622,11.072,27.559,11.87,26.171z"/><path fill="#9E6570" d="M43.77,35.061c-0.177-0.061-0.376-0.058-0.663-0.098c0.207,0.642,0.659,0.907,1.109,1.152  c1.46,0.795,3.031,1.098,4.681,0.971c2.025-0.156,3.873-0.773,5.411-2.16c0.495-0.446,0.904-0.951,1.137-1.643  c-0.438-0.192-0.713,0.122-1.006,0.255c-2.429,1.109-4.968,1.748-7.639,1.859C45.772,35.441,44.756,35.403,43.77,35.061z"/><path fill="#9E6570" d="M43.729,20.011c0.138,0.024,0.415-0.22,0.476-0.396c0.126-0.366,0.178-0.765,0.212-1.154c0.138-1.581,0.43-3.126,0.948-4.63  c0.814-2.361,2.472-3.562,4.948-3.697c0.719-0.039,1.435-0.136,2.231-0.214c-0.091-0.238-0.826-0.495-1.146-0.488  c-0.755,0.018-1.523-0.061-2.264,0.047c-2.021,0.294-3.525,1.363-4.489,3.187c-0.936,1.771-1.574,3.624-1.62,5.644  c-0.01,0.423,0.019,0.864,0.139,1.265C43.221,19.769,43.514,19.974,43.729,20.011z"/><path fill="#9E6570" d="M47.748,27.257c-0.198-0.109-0.512-0.148-0.717-0.069c-0.304,0.117-0.371,0.423-0.28,0.753  c0.25,0.907,1.269,1.61,2.192,1.468c0.449-0.069,0.868-0.161,1.346-0.075c0.621,0.112,1.052-0.504,0.817-1.103  c-0.104-0.264-0.287-0.564-0.52-0.696c-0.706-0.401-1.453-0.727-2.185-1.083c0,0,0.605,1.956,0.537,2.004  c-0.221-0.207-0.451-0.407-0.662-0.623C48.093,27.645,47.964,27.376,47.748,27.257z"/><path fill="#9E6570" d="M55.527,38.425c-1.038-0.058-2.549,0.92-3.135,2.082c1.541-0.187,3.028-0.209,4.17-1.355  C56.376,38.543,55.95,38.448,55.527,38.425z"/><path fill="#A82F45" d="M42.856,27.977c-0.052,0.238-0.218,0.535-0.132,0.701c0.192,0.367,0.471,0.716,0.789,0.983  c0.27,0.226,0.617,0.199,0.89-0.237c-0.276-0.409-0.532-0.867-0.871-1.254C43.403,28.022,43.087,28.037,42.856,27.977z"/></svg>