<svg xmlns="http://www.w3.org/2000/svg" xmlns:xlink="http://www.w3.org/1999/xlink" version="1.1" x="0px" y="0px" viewBox="0 0 100 100" style="enable-background:new 0 0 100 100;" xml:space="preserve">
<rect x="12" y="20" width="47" height="70" fill="#D21D16"/><circle cx="77" cy="23" r="11.5" stroke="none" stroke-width="0" fill="red" /><circle cx="77" cy="49.5" r="11.5" stroke="none" stroke-width="0" fill="red" /><circle cx="77" cy="77" r="11.5" stroke="none" stroke-width="0" fill="red" /><path fill="#000000" d="M11,90h48.4951172c0.5527344,0,1-0.4477539,1-1V19.7363281c0-0.0396118-0.0180664-0.0732422-0.0224609-0.1116333  c-0.0042725-0.0376587,0.0057373-0.0736694-0.0029297-0.1115112l-0.7617188-3.3276367  C58.8740234,12.543457,55.6826172,10,51.9472656,10H18.5488281c-3.7363281,0-6.9277344,2.543457-7.7617188,6.1855469  l-0.7617188,3.3276367c-0.008667,0.0378418,0.0013428,0.0738525-0.0029297,0.1115112  C10.0180664,19.6630859,10,19.6967163,10,19.7363281V89C10,89.5522461,10.4472656,90,11,90z M58.4951172,88H12V20.7363281  h46.4951172V88z M18.5488281,12h33.3984375c2.796875,0,5.1865234,1.9047852,5.8115234,4.6318359l0.4816895,2.1044922H12.2546387  l0.4816895-2.1044922C13.3613281,13.9047852,15.7509766,12,18.5488281,12z"/><path fill="#000000" d="M77.5570068,10.008728C77.541748,10.0080566,77.5290527,10,77.5136719,10  c-0.0155029,0-0.0283203,0.0081177-0.0437012,0.0087891c-3.182251,0.0112305-6.361084,1.2216187-8.7834473,3.6347656  c-2.359375,2.3510742-3.6591797,5.4770508-3.6591797,8.8022461c0.0009766,3.324707,1.2998047,6.4501953,3.6591797,8.8007812  c2.4345703,2.425293,5.6308594,3.6381836,8.828125,3.6376953c3.1962891-0.0004883,6.3935547-1.2128906,8.8271484-3.6376953  C88.7001953,28.8959961,90,25.7705078,90,22.4458008c0-3.3251953-1.2988281-6.4511719-3.6582031-8.8022461  C83.9190674,11.2296143,80.7397461,10.0194092,77.5570068,10.008728z M74.1455078,25.7983398v-6.7060547h6.7373047v6.7060547  H74.1455078z M67.0273438,22.4453125c0-2.7890625,1.0908203-5.4121094,3.0712891-7.3847656  c1.7905273-1.7841797,4.0716553-2.786438,6.4150391-3.0081787v5.039917h-3.3681641c-0.5527344,0-1,0.4477539-1,1v8.7060547  c0,0.5522461,0.4472656,1,1,1h3.3681641v5.0401001c-2.3433838-0.2218628-4.6254883-1.2247925-6.4150391-3.0088501  C68.1181641,27.8574219,67.0283203,25.2348633,67.0273438,22.4453125z M84.9296875,29.8295898  c-1.7902832,1.78479-4.0727539,2.7874146-6.4160156,3.0089722v-5.0402222h3.3691406c0.5527344,0,1-0.4477539,1-1v-8.7060547  c0-0.5522461-0.4472656-1-1-1h-3.3691406v-5.039978c2.3428955,0.2215576,4.6259766,1.2241211,6.4160156,3.0082397  C86.9091797,17.0332031,88,19.6557617,88,22.4453125S86.9091797,27.8574219,84.9296875,29.8295898z"/><path fill="#FFDD66" d="M35.0255127,41.9311523c-0.0144043-0.0006104-0.0264893-0.0083008-0.0411377-0.0083008  s-0.0266113,0.0076904-0.0410156,0.0083008c-3.1831055,0.010376-6.3630371,1.2208252-8.7871094,3.6352539  c-2.3583984,2.3510742-3.6582031,5.4765625-3.6582031,8.8017578s1.2998047,6.4506836,3.6582031,8.8017578  c2.4345703,2.4248047,5.6308594,3.6376953,8.828125,3.6376953s6.3945312-1.2128906,8.828125-3.6376953  c2.3583984-2.3510742,3.6582031-5.4765625,3.6582031-8.8017578s-1.2998047-6.4506836-3.6582031-8.8017578  C41.3884277,43.1520386,38.2084961,41.9415283,35.0255127,41.9311523z M31.6162109,57.7211914v-6.7060547h6.7363281v6.7060547  H31.6162109z M24.4980469,54.3681641c0-2.7895508,1.0908203-5.4121094,3.0703125-7.3847656  c1.7904053-1.7839966,4.0726318-2.7867432,6.4160156-3.0085449v5.0402832h-3.3681641c-0.5527344,0-1,0.4477539-1,1v8.7060547  c0,0.5522461,0.4472656,1,1,1h3.3681641v5.0403442c-2.3433838-0.2216187-4.6256104-1.2241821-6.4160156-3.008606  C25.5888672,59.7802734,24.4980469,57.1577148,24.4980469,54.3681641z M42.4003906,61.7529297  c-1.7904053,1.7839966-4.0726318,2.7867432-6.4160156,3.0085449v-5.0402832h3.3681641c0.5527344,0,1-0.4477539,1-1v-8.7060547  c0-0.5522461-0.4472656-1-1-1H35.984375v-5.0403442c2.3433838,0.2216187,4.6256104,1.2241821,6.4160156,3.008606  c1.9794922,1.9726562,3.0703125,4.5952148,3.0703125,7.3847656S44.3798828,59.7802734,42.4003906,61.7529297z"/><path fill="#000000" d="M77.5570068,37.5634155c-0.0152588-0.0006714-0.0279541-0.008728-0.043335-0.008728  c-0.0155029,0-0.0283203,0.0081177-0.0437012,0.0087891c-3.182251,0.0112305-6.361084,1.2216187-8.7834473,3.6347656  C66.3271484,43.5493164,65.0273438,46.6748047,65.0273438,50s1.2998047,6.4506836,3.6591797,8.8017578  c2.4335938,2.4248047,5.6308594,3.637207,8.8271484,3.637207c3.1972656,0,6.3945312-1.2124023,8.828125-3.637207  C88.7001953,56.4506836,90,53.3251953,90,50s-1.2998047-6.4506836-3.6582031-8.8017578  C83.9190674,38.7843018,80.7397461,37.5740967,77.5570068,37.5634155z M74.1455078,53.3530273v-6.7060547h6.7373047v6.7060547  H74.1455078z M67.0273438,50c0-2.7895508,1.0908203-5.4121094,3.0712891-7.3847656  c1.7905273-1.7841797,4.0716553-2.786438,6.4150391-3.0081787v5.039917h-3.3681641c-0.5527344,0-1,0.4477539-1,1v8.7060547  c0,0.5522461,0.4472656,1,1,1h3.3681641v5.039917c-2.3433838-0.2217407-4.6254883-1.2243652-6.4150391-3.0081787  C68.1181641,55.4121094,67.0273438,52.7895508,67.0273438,50z M84.9296875,57.3847656  c-1.7902832,1.7841187-4.0727539,2.7865601-6.4160156,3.0081787v-5.039917h3.3691406c0.5527344,0,1-0.4477539,1-1v-8.7060547  c0-0.5522461-0.4472656-1-1-1h-3.3691406v-5.039978c2.3428955,0.2215576,4.6259766,1.2241211,6.4160156,3.0082397  C86.9091797,44.5878906,88,47.2104492,88,50S86.9091797,55.4121094,84.9296875,57.3847656z"/><path fill="#000000" d="M77.5554199,65.1177979c-0.0146484-0.0006104-0.0268555-0.0084229-0.041748-0.0084229  s-0.0273438,0.0078125-0.0419922,0.0084839c-3.1828613,0.0109863-6.3623047,1.2218018-8.7851562,3.6355591  c-2.359375,2.3505859-3.6582031,5.4760742-3.6591797,8.8007812c0,3.3251953,1.2998047,6.4511719,3.6591797,8.8022461  c2.4335938,2.4248047,5.6308594,3.637207,8.8271484,3.637207c3.1972656,0,6.3945312-1.2124023,8.828125-3.637207  C88.7011719,84.0053711,90,80.8793945,90,77.5541992c0-3.324707-1.2998047-6.4501953-3.6582031-8.8007812  C83.9187012,66.3383179,80.7386475,65.1279297,77.5554199,65.1177979z M74.1455078,80.9077148v-6.7060547h6.7373047v6.7060547  H74.1455078z M67.0273438,77.5546875c0.0009766-2.7895508,1.0908203-5.4121094,3.0712891-7.3842773  c1.789917-1.7843628,4.0718994-2.7870483,6.4150391-3.008728v5.039978h-3.3681641c-0.5527344,0-1,0.4477539-1,1v8.7060547  c0,0.5522461,0.4472656,1,1,1h3.3681641v5.039917c-2.3433838-0.2217407-4.6254883-1.2243652-6.4150391-3.0081787  C68.1181641,82.9667969,67.0273438,80.34375,67.0273438,77.5546875z M84.9296875,84.9394531  c-1.7902832,1.7841187-4.0727539,2.7865601-6.4160156,3.0081787v-5.039917h3.3691406c0.5527344,0,1-0.4477539,1-1v-8.7060547  c0-0.5522461-0.4472656-1-1-1h-3.3691406v-5.039978c2.3438721,0.2216187,4.6259766,1.2242432,6.4160156,3.008728  C86.9091797,72.1425781,88,74.7651367,88,77.5546875S86.9091797,82.9667969,84.9296875,84.9394531z"/><path fill="#FFDD66" d="M18.234375,82.5073242h33.5c0.5527344,0,1-0.4477539,1-1V27.2290039c0-0.5522461-0.4472656-1-1-1h-33.5  c-0.5527344,0-1,0.4477539-1,1v54.2783203C17.234375,82.0595703,17.6816406,82.5073242,18.234375,82.5073242z M19.234375,28.2290039  h31.5v52.2783203h-31.5V28.2290039z"/></svg>