<svg xmlns="http://www.w3.org/2000/svg" xmlns:xlink="http://www.w3.org/1999/xlink" version="1.1" x="0px" y="0px" viewBox="0 0 100 100" enable-background="new 0 0 100 100" xml:space="preserve"><path fill="#bb9988" d="M40.134,34.188l11.489-4.277c5.781,1.296,15.113,4.023,19.602,1.231c3.328-2.072,4.115-4.225,4.742-5.711l1.665,0.798  c-0.478,1.537-2.602,5.009-5.334,6.54c-2.188,1.23-5.692,2.421-11.626,1.028c-0.385-0.088-5.519-1.292-5.557-1.302  c-1.178-0.285-2.939-0.444-3.612,1.036L43.5,51.304c2.044,0.465,4.044,0.907,5.877,1.293l6.155-13.673l1.431,0.688l-0.021,0.049  l0.023,0.012l-5.98,13.256c1.263,0.258,2.415,0.479,3.409,0.651c0.858,0.149,1.713,0.296,2.561,0.438l5.318-11.79l1.406,0.612  l-5.16,11.438c2.077,0.341,4.1,0.659,6.035,0.953l4.418-9.779l1.393,0.641l-4.228,9.376c2.184,0.326,4.229,0.618,6.09,0.874  l10.598-23.334c0,0,0.865-2.282,0.709-4.346c-0.142-1.85-2.13-3.789-2.13-3.789l-0.009-0.003L92.133,1.032H71.238l-7.517,16.572  l-9.488,0.035L36.915,28.34c-1.126,0.716-1.653,2.355-1.117,3.826C36.436,33.924,38.381,34.827,40.134,34.188z"/><path fill="#223344" d="M92.886,90.093L82.45,59.778c0,0-13.32-1.511-28.058-4.072c-8.805-1.53-30.021-6.861-30.021-6.861l2.179,12.411  c-2.385,1.222-6.033,3.164-9.736,5.415C4.974,73.869,3.466,77.605,3.363,79.79c-0.047,0.98,0.21,2.828,2.459,4.182  c0.645,0.388,1.829,1.101,4.624,1.101c2.389,0,5.955-0.521,11.366-2.211l-6.148,8.643c0,0-2.026,2.567-0.911,5.011  c1.196,2.619,5.068,2.195,5.068,2.195h66.876c0,0,4.476,0.294,6.15-2.158C94.587,94.01,92.886,90.093,92.886,90.093z M7.815,80.661  c-0.606-0.367-0.597-0.593-0.591-0.688c0.024-0.507,0.695-3.366,11.574-9.984c3.073-1.869,6.159-3.544,8.452-4.74l1.404,7.995  l-3.002,4.22C12.936,82.199,8.984,81.363,7.815,80.661z M57.196,66.67c-0.186,0.103-20.413,10.75-35.148,15.811l3.265-4.533  c13.961-5.131,30.179-13.979,30.353-14.074c0.772-0.423,1.741-0.14,2.165,0.633C58.252,65.278,57.97,66.248,57.196,66.67z"/></svg>