<svg xmlns="http://www.w3.org/2000/svg" xmlns:xlink="http://www.w3.org/1999/xlink" version="1.1" x="0px" y="0px" viewBox="0 0 527 360" style="enable-background:new 0 0 527.062 266.04;" xml:space="preserve"><g><g><path fill="#D21D16" d="M245.895,210.954c-0.188-0.21-0.365-0.415-0.537-0.616c-2.76-0.93-5.45-1.955-8.057-3.082    c-0.039,0.015-0.07,0.023-0.11,0.039c-2.031,0.795-4.004,1.197-5.885,1.197c-3.438,0.019-6.401-1.399-8.508-3.298    c-0.241-0.215-0.47-0.437-0.693-0.661l-3.99,11.97c0.772,1.558,1.741,3.017,2.828,3.955c1.161,0.998,2.263,1.515,3.861,1.534    c0.89-0.002,1.98-0.185,3.331-0.715c2.189-0.859,4.152-1.303,6.016-1.307c3.646-0.066,6.405,2.002,7.887,3.751    c1.553,1.784,2.553,3.253,3.427,3.835c0.172,0.115,0.329,0.212,0.49,0.294l4.584-13.752    C248.516,213.389,246.92,212.133,245.895,210.954z"/><path fill="#D21D16" d="M239.394,231.454c-1.613-1.809-2.631-3.335-3.465-3.908c-0.56-0.389-0.864-0.547-1.778-0.573    c-0.71-0.003-1.834,0.181-3.46,0.821c-2.032,0.796-4.004,1.197-5.887,1.197c-3.436,0.02-6.4-1.397-8.506-3.297    c-0.332-0.296-0.642-0.605-0.941-0.919l-7.172,21.517c-2.62,7.859,1.627,16.354,9.486,18.974c1.574,0.525,3.174,0.774,4.747,0.774    c6.28,0,12.133-3.976,14.227-10.262l7.094-21.28C241.856,233.774,240.369,232.576,239.394,231.454z"/><path fill="#D21D16" d="M312.523,228.993c-1.881,0-3.855-0.401-5.887-1.2c-1.621-0.64-2.748-0.824-3.458-0.819    c-1.293,0.065-1.572,0.303-2.691,1.437c-1.047,1.102-2.21,3.092-4.524,4.816c-0.676,0.503-1.48,0.939-2.37,1.274l7.093,21.278    c2.096,6.285,7.948,10.261,14.229,10.261c1.573,0,3.173-0.249,4.746-0.774c7.858-2.62,12.106-11.114,9.486-18.975l-7.175-21.524    c-0.301,0.316-0.607,0.63-0.939,0.929C318.925,227.594,315.96,229.01,312.523,228.993z"/><path fill="#D21D16" d="M297.179,221.96c1.479-1.149,3.619-2.016,5.999-1.988c1.862,0.002,3.825,0.447,6.017,1.306    c1.348,0.527,2.439,0.714,3.328,0.714c1.409-0.015,2.408-0.417,3.435-1.181c1.009-0.763,1.964-1.953,2.746-3.337    c0.182-0.315,0.351-0.642,0.512-0.97l-2.589-7.768c-8.796,3.795-18.727,6.206-29.294,6.987l4.044,12.133    c0.448-0.221,0.828-0.576,1.415-1.156C293.846,225.626,294.958,223.694,297.179,221.96z"/><path fill="#D21D16" d="M401.495,231.454c-1.615-1.808-2.631-3.335-3.464-3.907c-0.559-0.39-0.865-0.548-1.778-0.576    c-0.711-0.002-1.835,0.183-3.461,0.823c-2.033,0.797-4.004,1.197-5.887,1.197c-3.436,0.02-6.399-1.398-8.506-3.297    c-0.332-0.296-0.642-0.605-0.941-0.92l-7.172,21.517c-2.62,7.86,1.628,16.354,9.486,18.974c1.574,0.524,3.174,0.774,4.747,0.774    c6.28,0,12.132-3.975,14.227-10.261l7.093-21.279C403.957,233.774,402.471,232.576,401.495,231.454z"/><path fill="#D21D16" d="M380.3,216.669c0.758,1.494,1.695,2.883,2.744,3.788c1.161,1.001,2.262,1.515,3.861,1.534c0.89,0,1.98-0.185,3.331-0.714    c2.19-0.858,4.153-1.304,6.017-1.307c3.647-0.066,6.405,2.003,7.888,3.751c1.551,1.784,2.551,3.254,3.427,3.834    c0.171,0.115,0.327,0.212,0.488,0.294l4.008-12.023C401.84,216.621,391.152,216.95,380.3,216.669z"/><path fill="#D21D16" d="M468.124,208.492c-1.828,0-3.743-0.387-5.714-1.14c-2.38,0.668-4.874,1.313-7.463,1.933    c-0.824,1.04-1.848,2.297-3.383,3.441c-0.753,0.559-1.657,1.041-2.668,1.387l4.581,13.743c0.448-0.22,0.828-0.575,1.415-1.155    c1.054-1.073,2.166-3.007,4.389-4.741c1.477-1.148,3.617-2.015,5.997-1.986c1.862,0,3.825,0.444,6.015,1.304    c1.351,0.527,2.441,0.713,3.331,0.713c1.408-0.013,2.405-0.417,3.434-1.179c1.011-0.763,1.963-1.953,2.747-3.337    c0.182-0.316,0.351-0.642,0.512-0.971l-3.996-11.99c-0.227,0.229-0.445,0.462-0.689,0.681    C474.525,207.094,471.56,208.51,468.124,208.492z"/><path fill="#D21D16" d="M474.624,228.992c-1.882,0-3.855-0.401-5.888-1.2c-1.622-0.638-2.747-0.823-3.458-0.819    c-1.291,0.065-1.572,0.305-2.691,1.438c-1.047,1.1-2.209,3.091-4.522,4.816c-0.677,0.503-1.481,0.938-2.372,1.272l7.093,21.278    c2.095,6.286,7.947,10.261,14.228,10.261c1.572,0,3.172-0.249,4.745-0.773c7.86-2.618,12.105-11.114,9.487-18.974l-7.175-21.525    c-0.301,0.315-0.607,0.629-0.94,0.928C481.026,227.593,478.06,229.01,474.624,228.992z"/><path fill="#D21D16" d="M526.39,96.486c-3.5-7.912-19.713-8.408-36.211-1.109c-3.478,1.539-6.685,3.303-9.558,5.199    c-0.365-0.35-0.732-0.697-1.105-1.037c-35.958-32.93-65.896-15.721-88.735-11.918c-2.636-2.247-6.616-3.54-11.295-3.779    c8.87-5.629,13.745-13.554,11.373-19.783c-2.213-5.799-10.094-8.509-19.535-7.479c-4.735,5.556-16.107,13.548-29.101,21.223    c7.52,5.122,11.727,14.358,9.97,23.882c-2.375,12.863-14.729,21.365-27.592,18.992c-11.756-2.171-19.865-12.674-19.362-24.287    c-10.525,4.183-18.452,5.936-19.976,3.164c-0.175-0.318-0.327-0.645-0.46-0.981c18.342-0.779,89.053-40.817,84.134-49.773    c-0.554-1.007-1.307-1.877-2.223-2.627c-6.595-5.392-22.078-4.163-39.339,2.869c2.032-23.956-10.247-45.044-29.206-48.543    c-18.959-3.499-37.957,11.815-44.611,34.917c-13.616-12.73-27.641-19.406-35.724-16.721c-1.122,0.373-2.135,0.917-3.011,1.659    c-7.797,6.609,43.97,69.259,60.821,76.529c-0.244,0.267-0.504,0.519-0.78,0.753c-2.412,2.046-9.191-2.422-17.531-10.087    c-3.675,11.025-14.998,17.944-26.754,15.775c-12.867-2.375-21.369-14.73-18.994-27.592c1.757-9.523,8.983-16.648,17.836-18.749    c-9.393-11.8-17.157-23.318-19.601-30.2c-8.454-4.334-16.784-4.627-20.921,0.001c-4.446,4.976-2.712,14.13,3.578,22.562    c-6.597-2.146-12.6-1.606-15.912,2.099c-5.631,6.303-1.354,19.314,9.553,29.063c2.877,2.571,5.927,4.643,8.962,6.207    c-6.969,6.984-11.363,15.578-12.191,24.559c-0.293,3.189-0.147,6.428,0.507,9.66c4.428,21.85,29.877,35.131,56.846,29.67    c14.734-2.984,19.236-23.869,34.121-21.121c14.885,2.748,11.637,23.863,24.332,31.91c23.242,14.729,51.76,11.406,63.693-7.422    c2.172-3.428,3.637-7.136,4.452-10.993c1.912-0.921,3.947-2.003,6.126-3.288c14.813-8.732,29.195-11.313,42.255-11.302    c18.327,0.036,34.277,4.889,45.874,4.826c6.422-0.03,11.114-1.299,14.985-5.021c1.388-1.345,3.601-1.312,4.947,0.077    c1.345,1.388,1.311,3.604-0.077,4.948c-5.502,5.365-12.558,7.024-19.855,6.995c-13.309-0.064-28.755-4.861-45.874-4.825    c-12.171,0.011-25.067,2.322-38.703,10.335c-4.139,2.43-7.904,4.276-11.36,5.628c-0.864,3.076-2.154,6.041-3.916,8.82    c-2.422,3.821-5.536,6.992-9.141,9.516c-0.691,3.051-1.668,5.988-2.91,8.804c4.844-1.031,10.806-3.162,18.055-6.897    c16.833-8.672,33.077-11.214,47.891-11.207c20.795,0.03,38.969,4.874,52.456,4.827c7.462-0.013,13.164-1.372,17.661-5.178    c1.474-1.25,3.683-1.066,4.932,0.408c1.25,1.474,1.066,3.683-0.406,4.932c-6.223,5.278-13.955,6.851-22.186,6.838    c-14.988-0.047-32.719-4.854-52.456-4.825c-14.035,0.007-28.986,2.356-44.688,10.429c-10.392,5.34-18.686,7.846-25.49,8.357    c-4.898,7.309-11.742,13.514-19.982,18.345c57.873,15.258,127.347,4.866,155.54-8.146c19.27-8.894,26.201-26.27,24.854-44.721    c-0.631-8.636-3.075-17.504-6.921-25.851c1.461-0.528,2.933-1.116,4.407-1.769C519.355,116.732,529.892,104.4,526.39,96.486z     M243.92,134.576c-5.478-1.012-9.103-6.273-8.09-11.754c1.012-5.482,6.273-9.105,11.754-8.092    c5.479,1.01,9.104,6.273,8.092,11.754C254.664,131.964,249.401,135.587,243.92,134.576z M272.748,33.987    c2.537-13.747,12.947-23.392,23.209-21.497c10.26,1.893,16.543,14.618,14.004,28.365    C307.426,54.603,270.213,47.734,272.748,33.987z M300.983,145.107c-5.48-1.01-9.105-6.273-8.094-11.754    c1.014-5.48,6.277-9.104,11.756-8.092c5.48,1.012,9.104,6.273,8.094,11.756C311.727,142.495,306.463,146.118,300.983,145.107z     M430.851,123.704c-3.498,0-6.334-2.836-6.334-6.334c0-3.498,2.836-6.334,6.334-6.334c3.498,0,6.334,2.836,6.334,6.334    C437.185,120.868,434.349,123.704,430.851,123.704z M451.185,125.704c-3.498,0-6.334-2.836-6.334-6.334    c0-3.498,2.836-6.334,6.334-6.334c3.496,0,6.332,2.836,6.332,6.334C457.517,122.868,454.681,125.704,451.185,125.704z     M469.851,120.37c-3.498,0-6.334-2.836-6.334-6.334c0-3.498,2.836-6.332,6.334-6.332c3.496,0,6.332,2.834,6.332,6.332    C476.183,117.534,473.347,120.37,469.851,120.37z"/><path fill="#D21D16" d="M259.707,208.894c38.425,7.091,74.205-8.396,85.081-35.252c-9.282,3.767-20.479,4.19-31.574,1.016    c-10.975,8.769-29.828,12.953-48.929,9.428c-19.102-3.527-35.218-14.166-42.339-26.273c-11.497-0.996-21.805-5.389-29.131-12.22    C193.387,174.561,221.282,201.8,259.707,208.894z"/><path stroke="#000000" stroke-width="2" fill="#FFDD66" d="M266.576,171.681c12.857,2.373,24.454,0.451,32.465-3.186c-0.498-0.297-0.997-0.59-1.49-0.902    c-12.697-8.049-9.447-29.164-24.33-31.912c-14.887-2.748-19.391,18.137-34.121,21.123c-0.573,0.116-1.145,0.212-1.716,0.31    C243.57,163.372,253.717,169.308,266.576,171.681z"/><path stroke="#000000" stroke-width="2" fill="#FFDD66" d="M240.709,70.405c-6.063,0.054-11.435,4.384-12.576,10.569c-1.293,7.016,3.344,13.756,10.361,15.049    c7.014,1.295,13.754-3.342,15.049-10.357c0.096-0.516,0.148-1.03,0.182-1.541C249.55,80.056,245.112,75.365,240.709,70.405z"/><path stroke="#000000" stroke-width="2" fill="#FFDD66" d="M334.862,100.675c1.144-6.186-2.33-12.149-7.974-14.364c-5.883,3.062-11.704,5.859-17.056,8.17    c-0.152,0.488-0.285,0.987-0.381,1.503c-1.293,7.018,3.346,13.754,10.359,15.049C326.83,112.329,333.569,107.691,334.862,100.675z    "/></g><g><path fill="#aa3333" d="M21.042,205.397c-0.002,13.217-1.978,28.171-7.764,43.8c-2.397,6.474,0.906,13.665,7.38,16.063    c1.431,0.53,2.897,0.781,4.339,0.781c5.081,0,9.857-3.12,11.726-8.163c6.956-18.781,9.32-36.775,9.318-52.48    c-0.017-13.647-1.771-25.581-3.878-35.012c1.709,0.928,3.451,1.934,5.212,3.03c15.306,9.581,31.67,25.097,39.651,51.697    c1.617,5.424,6.591,8.93,11.975,8.93c1.183,0,2.385-0.169,3.576-0.524c6.616-1.975,10.378-8.938,8.405-15.552    c-5.128-17.216-13.337-31.151-22.696-42.105c-14.059-16.458-30.517-26.247-43.426-31.995c-3.038-1.35-5.876-2.472-8.466-3.411    c0.196-7.64,1.289-15.422,2.597-22.687c-0.914-0.438-1.826-0.888-2.736-1.355c-9.105-4.699-14.902-9.416-16.461-10.75    c-5.454-4.775-5.998-13.006-1.273-18.398c2.468-2.818,6.034-4.435,9.779-4.435c3.135,0,6.164,1.135,8.53,3.192    c0.139,0.115,0.294,0.242,0.511,0.415c0.44,0.352,1.176,0.918,2.156,1.614c1.826,1.299,4.811,3.262,8.666,5.25    c0.368,0.19,0.751,0.382,1.142,0.575c1.516,0.035,3.086,0.056,4.703,0.057c12.076-0.078,26.629-0.976,39.669-5.448    c-2.657-4.728-4.002-10.118-3.848-15.575c-7.051,2.567-15.783,4.009-24.295,4.637c-5.031,3.662-11.196,5.795-17.819,5.795    c-2.311,0-4.633-0.268-6.903-0.797c-4.535-1.056-8.594-3.086-12.011-5.815c-0.001,0-0.003,0-0.004,0.001    c-8.029-0.037-17.631,5.173-21.917,17.637c-6.805,20.174-8.268,33.305-5.682,55.52c2.112,10.871,7.831,15.152,14.142,16.752    C17.888,175.027,21.065,188.832,21.042,205.397z M17.288,160.84c0,0-0.001,0-0.002,0C17.287,160.84,17.288,160.84,17.288,160.84z"/><path fill="#aa3333" d="M109.421,104.285l1.784-3.879c13.316,4.324,28.059-1.904,34.053-14.935c6.463-14.049-8.438-34.701-13.736-37.139    s-30.676-0.313-37.139,13.736C88.387,75.1,93.25,90.346,105.199,97.643l-1.604,3.485c-0.753-0.053-1.52,0.002-2.282,0.172    c-0.39,0.087-0.778,0.193-1.162,0.342c-3.399,1.315-6.713,2.275-9.943,2.951c1.39,2.699,2.198,6.357,2.407,9.884    c0.137,2.303,0.014,4.32-0.336,6.015c0.075-0.015,0.151-0.03,0.227-0.045c0.811-0.159,1.625-0.332,2.442-0.519l-2.022,4.397    l6.006,2.762l4.403-9.572c0.862-0.301,1.726-0.616,2.594-0.952c0.02-0.008,0.038-0.018,0.058-0.025    c3.981-1.579,5.993-6.003,4.612-10.025c-0.034-0.099-0.061-0.199-0.099-0.297C110.226,105.505,109.857,104.864,109.421,104.285z"/><path fill="#aa3333" d="M84.645,102.477c-2.354,0.277-4.643,0.406-6.871,0.406c-12.111,0.016-22.838-3.836-30.525-7.805    c-3.833-1.975-6.881-3.955-8.907-5.395c-1.015-0.721-1.772-1.305-2.247-1.684c-0.235-0.188-0.402-0.326-0.496-0.402    c-0.031-0.027-0.054-0.047-0.067-0.059c-0.013-0.01-0.014-0.01-0.014-0.01c-4.571-3.975-11.498-3.507-15.492,1.051    c-4.002,4.57-3.544,11.521,1.027,15.525l-0.003-0.002c0.485,0.414,6.274,5.449,16.122,10.531    c9.835,5.059,23.844,10.232,40.602,10.25c3.082,0,6.238-0.18,9.465-0.564C93.27,123.604,90.676,101.76,84.645,102.477z"/><path fill="#aa3333" d="M41.266,80.598c15.232,3.549,30.453-5.926,34.002-21.156c3.547-15.232-5.926-30.453-21.156-33.999    c-15.232-3.548-30.457,5.925-34.004,21.155C16.563,61.828,26.035,77.053,41.266,80.598z M61.024,42.723    c4.832,0,8.75,3.918,8.75,8.75s-3.918,8.75-8.75,8.75c-4.832,0-8.75-3.918-8.75-8.75S56.192,42.723,61.024,42.723z"/></g></g></svg>