<svg xmlns="http://www.w3.org/2000/svg" xmlns:xlink="http://www.w3.org/1999/xlink" version="1.1" x="0px" y="0px" viewBox="0 0 100 100" enable-background="new 0 0 100 100" xml:space="preserve"><g><path fill="#ffffff" xmlns="http://www.w3.org/2000/svg" d="M38.22,2.098c-0.181,0.134-0.362,0.068-0.543,0C37.859,2.098,38.039,2.098,38.22,2.098z"/><path fill="#337700" xmlns="http://www.w3.org/2000/svg" d="M43.498,78.946c-0.187,0.202-0.218,0.381-0.292,0.544c-0.509,1.121-0.967,2.257-1.533,3.361   c-0.572,1.117-1.246,2.205-1.883,3.304c-0.188,0.324-0.402,0.64-0.604,0.959c-0.076,0.12-0.096,0.202,0.092,0.304   c0.837,0.458,1.321,1.092,1.558,1.849c0.084,0.269,0.046,0.573,0.366,0.791c0.141,0.096-0.005,0.206-0.084,0.288   c-0.373,0.388-0.815,0.732-1.322,1.018c-0.391,0.221-0.776,0.446-1.147,0.685c-0.498,0.32-1.056,0.391-1.66,0.215   c-0.194-0.056-0.333-0.045-0.49,0.06c-0.216,0.143-0.46,0.263-0.685,0.399c-1.318,0.796-2.773,1.426-4.284,1.979   c-0.663,0.242-1.36,0.441-2.103,0.517c-0.054,0.005-0.112,0.003-0.161,0.017c-0.928,0.282-1.867,0.215-2.815,0.067   c-0.765-0.119-1.279-0.481-1.657-0.961c-0.229-0.291-0.401-0.609-0.57-0.925c-0.334-0.623,0.091-1.652,0.82-2.029   c0.045-0.023,0.091-0.047,0.142-0.059c0.184-0.044,0.38-0.169,0.559-0.081c0.215,0.106,0.05,0.27,0.013,0.41   c-0.021,0.08-0.046,0.162-0.045,0.243c0.004,0.216-0.032,0.457,0.282,0.575c0.324,0.122,0.65,0.208,1.025,0.051   c1.075-0.449,2.136-0.912,3.099-1.493c0.154-0.093,0.298-0.198,0.432-0.308c0.258-0.212,0.541-0.398,0.841-0.576   c0.966-0.573,1.832-1.232,2.725-1.866c0.448-0.318,0.903-0.627,1.415-0.888c0.511-0.26,0.639-0.892,0.199-1.202   c-0.298-0.21-0.499-0.458-0.72-0.703c-0.212-0.235-0.424-0.471-0.632-0.709c-0.835-0.952-1.568-1.95-2.319-2.939   c-0.323-0.425-0.657-0.846-1.003-1.261c-0.126-0.151-0.235-0.307-0.325-0.47c-0.5-0.906-1.107-1.774-1.625-2.675   c-0.504-0.877-0.998-1.757-1.345-2.672c-0.332-0.875-0.793-1.731-0.917-2.644c-0.199-1.465-0.64-2.905-0.748-4.379   c-0.034-0.467,0.053-0.925,0.067-1.388c0.005-0.15,0.025-0.301,0.006-0.449c-0.137-1.089,0.131-2.148,0.477-3.192   c0.139-0.42,0.092-0.802-0.038-1.201c-0.03-0.092-0.081-0.145-0.205-0.161c-0.413-0.052-0.779-0.205-1.163-0.318   c-0.138-0.041-0.273-0.052-0.419-0.06c-0.368-0.02-0.506-0.149-0.507-0.422c0-0.113,0.032-0.221,0.101-0.315   c0.288-0.396,0.426-0.84,0.692-1.241c0.237-0.357,0.355-0.743,0.546-1.11c0.048-0.092,0.088-0.182,0.007-0.272   c-0.233-0.258-0.403-0.559-0.715-0.763c-0.875-0.574-1.587-1.257-2.35-1.907c-0.5-0.427-0.967-0.875-1.463-1.305   c-0.36-0.312-0.702-0.654-0.986-1.015c-0.36-0.459-0.793-0.875-1.225-1.294c-0.382-0.371-0.522-0.833-0.758-1.258   c-0.077-0.138-0.112-0.292-0.21-0.42c-0.489-0.637-0.613-1.366-0.931-2.045c-0.024-0.05-0.036-0.108-0.031-0.161   c0.06-0.678,0.111-1.357,0.197-2.033c0.023-0.185,0.138-0.367,0.235-0.542c0.801-1.436,1.98-2.652,3.66-3.576   c0.073-0.04,0.149-0.078,0.211-0.127c1.667-1.316,3.631-2.361,5.563-3.43c1.468-0.813,2.999-1.56,4.579-2.248   c0.39-0.17,0.743-0.387,1.122-0.573c0.168-0.082,0.237-0.197,0.283-0.333c0.106-0.317,0.209-0.635,0.331-0.949   c0.061-0.157,0.07-0.306-0.09-0.418c-0.145-0.102-0.169-0.236-0.246-0.356c-0.294-0.46-0.203-0.877,0.26-1.24   c0.214-0.168,0.171-0.311-0.001-0.465c-0.118-0.106-0.232-0.216-0.234-0.36c-0.007-0.516-0.349-0.931-0.688-1.351   c-0.339-0.42-0.257-0.526,0.261-0.832c0.641-0.38,1.358-0.728,1.581-1.39c0.037-0.111,0.08-0.202-0.017-0.306   c-0.228-0.244-0.421-0.506-0.747-0.693c-0.245-0.14-0.452-0.311-0.627-0.504c-0.306-0.337-0.766-0.564-1.069-0.916   c-0.378-0.44-0.763-0.879-1.156-1.31c-0.483-0.53-0.788-1.095-0.994-1.7c-0.139-0.408-0.228-0.825-0.184-1.254   c0.021-0.208,0.131-0.423-0.061-0.633c-0.083-0.091,0.032-0.212,0.086-0.309c0.348-0.616,0.822-1.177,1.302-1.739   c0.648-0.758,1.629-1.167,2.658-1.545c1.662-0.611,3.417-0.72,5.226-0.587c0.378,0.028,0.749,0.08,1.122,0.128   c0.396,0.051,0.501-0.007,0.503-0.293c0.003-0.491,0.014-0.982-0.013-1.472c-0.062-1.144-0.097-2.292-0.342-3.422   c-0.133-0.614-0.293-1.23-0.424-1.844c-0.128-0.598-0.43-1.146-0.619-1.722c-0.171-0.523-0.461-1.033-0.406-1.594   c0.012-0.118,0.048-0.191,0.135-0.285c0.392-0.423,1.02-0.544,1.592-0.728c1.103-0.354,2.268-0.537,3.448-0.677   c0.48-0.057,0.963-0.122,1.43-0.224c1.32-0.288,2.678-0.278,4.029-0.309c0.291-0.007,0.563-0.08,0.852-0.069   c0.735,0.028,1.471,0.044,2.205,0.076c0.848,0.037,1.679,0.173,2.506,0.303c0.649,0.102,1.297,0.216,1.942,0.332   c0.449,0.081,0.866,0.267,1.296,0.405c0.777,0.25,1.551,0.515,2.269,0.859c0.213,0.102,0.423,0.206,0.664,0.274   c0.356,0.101,0.426,0.178,0.37,0.463c-0.069,0.349-0.132,0.698-0.253,1.042c-0.274,0.777-0.635,1.531-0.959,2.295   c-0.363,0.857-0.77,1.699-1.216,2.532c-0.014,0.025-0.03,0.05-0.037,0.077c-0.236,0.913-0.842,1.734-1.134,2.632   c-0.284,0.872-0.549,1.748-0.823,2.622c-0.146,0.466,0.044,0.811,0.595,1.07c1.161,0.546,2.379,1.016,3.578,1.508   c0.481,0.197,1.071,0.238,1.593,0.386c1.453,0.414,2.968,0.68,4.437,1.056c0.271,0.069,0.566,0.084,0.85,0.123   c0.141,0.019,0.287,0.025,0.424,0.053c1.069,0.217,1.116,0.939,0.709,1.409c-0.479,0.553-1.126,0.993-1.76,1.441   c-0.701,0.495-1.555,0.786-2.436,1.038c-0.521,0.149-1.068,0.119-1.609,0.104c-0.901-0.026-1.8-0.078-2.695-0.166   c-0.445-0.044-0.886-0.112-1.328-0.174c-0.184-0.026-0.345-0.023-0.509,0.071c-0.363,0.206-0.786,0.321-1.23,0.385   c-0.163,0.023-0.314,0.062-0.463,0.111c-0.562,0.181-0.635,0.392-0.268,0.747c0.079,0.076,0.188,0.064,0.293,0.077   c0.675,0.084,1.036,0.365,1.07,0.869c0.014,0.208,0.071,0.403,0.145,0.6c0.178,0.47,0.161,0.903-0.314,1.298   c-0.365,0.303-0.356,0.402-0.036,0.713c0.129,0.125,0.153,0.238,0.119,0.376c-0.02,0.08-0.048,0.16-0.074,0.239   c-0.139,0.423-0.192,0.828,0.286,1.172c0.252,0.181,0.264,0.383,0.053,0.621c-0.222,0.25-0.165,0.384,0.123,0.616   c0.396,0.318,0.425,0.37,0.125,0.732c-0.189,0.228-0.218,0.387,0.04,0.604c0.271,0.229,0.203,0.517,0.005,0.766   c-0.175,0.222-0.374,0.436-0.592,0.635c-0.227,0.208-0.265,0.407-0.071,0.634c0.089,0.104,0.164,0.221,0.16,0.344   c-0.011,0.341,0.247,0.558,0.583,0.731c0.585,0.301,1.036,0.718,1.605,1.033c0.324,0.179,0.494,0.462,0.743,0.693   c0.68,0.633,1.342,1.276,2.005,1.919c0.487,0.473,0.955,0.956,1.32,1.492c0.074,0.108,0.163,0.213,0.27,0.304   c0.607,0.515,0.93,1.158,1.386,1.741c0.348,0.444,0.602,0.926,0.991,1.353c0.155,0.17,0.214,0.375,0.286,0.572   c0.261,0.722,0.532,1.437,0.685,2.183c0.101,0.49,0.124,0.972,0.125,1.458c0.001,0.512-0.199,1.006-0.475,1.46   c-0.504,0.828-0.956,1.679-1.579,2.463c-1.031,1.297-1.979,2.636-3.201,3.84c-0.58,0.571-1.158,1.155-2,1.537   c-0.223,0.101-0.299,0.227-0.252,0.441c0.09,0.402,0.135,0.807,0.276,1.205c0.164,0.463,0.005,0.942,0.043,1.414   c0.013,0.155-0.208,0.24-0.403,0.298c-0.269,0.079-0.536,0.162-0.799,0.25c-0.281,0.095-0.379,0.255-0.359,0.494   c0.096,1.131-0.012,2.261-0.044,3.391c-0.024,0.845-0.089,1.689-0.116,2.533c-0.023,0.736-0.081,1.471-0.243,2.198   c-0.116,0.524-0.179,1.053-0.312,1.577c-0.123,0.483-0.255,0.962-0.471,1.426c-0.181,0.388-0.246,0.797-0.41,1.186   c-0.641,1.522-1.368,3.017-2.497,4.381c-0.22,0.266-0.427,0.539-0.612,0.82c-0.59,0.893-1.323,1.72-2.039,2.556   c-0.216,0.251-0.416,0.513-0.588,0.782c-0.481,0.752-1.233,1.374-1.764,2.102c-0.171,0.235-0.256,0.452-0.257,0.727   c-0.002,0.487,0.165,0.943,0.306,1.405c0.116,0.38,0.411,0.696,0.7,1.008c0.32,0.345,0.676,0.669,0.998,1.015   c0.243,0.261,0.598,0.472,0.937,0.672c0.767,0.452,1.438,0.994,2.23,1.415c0.968,0.515,1.877,1.108,2.995,1.449   c0.017,0.005,0.033,0.011,0.05,0.016c0.978,0.291,1.505,0.074,1.75-0.721c0.075-0.244,0.165-0.278,0.495-0.185   c0.79,0.222,1.083,0.71,1.065,1.349c-0.012,0.42-0.313,0.591-0.655,0.796c-0.604,0.362-1.29,0.556-2.043,0.706   c-1.115,0.222-2.231,0.339-3.372,0.307c-1.146-0.032-2.296-0.197-3.283-0.611c-1.493-0.626-2.914-1.359-3.997-2.396   c-0.244-0.234-0.253-0.218-0.643-0.084c-0.26,0.089-0.483,0.108-0.781-0.039c-0.562-0.278-1.094-0.569-1.541-0.949   c-0.118-0.1-0.268-0.184-0.419-0.255c-0.522-0.247-0.869-0.645-1.389-0.897c-0.227-0.11-0.202-0.273-0.006-0.414   c0.078-0.057,0.139-0.127,0.221-0.18c0.335-0.216,0.418-0.466,0.442-0.813c0.074-1.102,0.587-2.073,1.866-2.723   c0.165-0.084,0.328-0.164,0.474-0.269c0.427-0.309,0.459-0.374,0.154-0.769c-0.202-0.261-0.363-0.533-0.494-0.815   c-0.255-0.55-0.461-1.115-0.751-1.653c-0.762-1.413-1.108-2.9-1.437-4.392C43.554,79.079,43.534,79.042,43.498,78.946z    M26.85,66.169c-0.03,0.476-0.135,0.953-0.034,1.428c0.238,1.118,0.287,2.25,0.471,3.372c0.078,0.473,0.121,0.954,0.265,1.416   c0.297,0.954,0.624,1.902,1.091,2.821c0.31,0.61,0.507,1.254,0.848,1.852c0.82,1.437,1.701,2.856,2.788,4.192   c0.294,0.362,0.473,0.767,0.798,1.112c0.575,0.61,1.14,1.224,1.571,1.903c0.085,0.134,0.194,0.262,0.314,0.379   c0.672,0.656,1.202,1.379,1.734,2.101c0.067,0.091,0.135,0.119,0.25,0.103c0.451-0.065,0.848,0.034,1.248,0.188   c0.322,0.124,0.531,0.036,0.676-0.226c0.055-0.1,0.088-0.211,0.163-0.302c0.838-1.016,1.278-2.162,1.87-3.258   c0.814-1.504,1.283-3.092,1.879-4.648c0.06-0.158,0.103-0.317,0.098-0.483c-0.007-0.22,0.046-0.437,0.134-0.645   c0.245-0.58,0.246-1.183,0.317-1.779c0.039-0.328,0.023-0.35-0.435-0.446c-0.918-0.193-1.53-0.701-2.192-1.161   c-0.085-0.059-0.111-0.14-0.046-0.222c0.075-0.094,0.187-0.13,0.323-0.085c0.082,0.027,0.155,0.068,0.231,0.104   c0.083,0.038,0.179,0.061,0.238-0.009c0.113-0.133,0.262-0.225,0.43-0.094c0.117,0.091,0.313,0.132,0.339,0.296   c0.063,0.391,0.494,0.582,0.825,0.826c0.083,0.061,0.2,0.088,0.302,0.064c0.289-0.068,0.593-0.062,0.886-0.147   c0.379-0.111,0.599-0.344,0.881-0.529c0.259-0.169,0.546-0.336,0.721-0.55c0.177-0.216,0.58-0.279,0.622-0.578   c0.012-0.088,0.178-0.09,0.278-0.063c0.109,0.029,0.163,0.105,0.14,0.198c-0.031,0.125-0.128,0.226-0.232,0.32   c-0.419,0.375-0.823,0.757-1.277,1.112c-0.739,0.578-1.402,1.187-1.497,2.057c-0.121,1.112-0.124,2.198,0.575,3.223   c0.097,0.142,0.131,0.31,0.176,0.468c0.088,0.306,0.143,0.618,0.248,0.921c0.545,1.576,1.411,3.055,2.409,4.493   c0.09,0.13,0.119,0.233,0.057,0.38c-0.143,0.342-0.005,0.48,0.464,0.517c0.215,0.017,0.438,0.007,0.646,0.045   c0.31,0.056,0.528-0.027,0.708-0.203c0.198-0.194,0.404-0.385,0.586-0.587c0.711-0.788,1.375-1.599,2.011-2.424   c1.025-1.329,2.102-2.634,3.063-3.993c0.744-1.051,1.327-2.145,1.851-3.262c0.587-1.251,0.891-2.553,1.181-3.856   c0.108-0.483,0.195-0.968,0.223-1.461c0.055-0.966,0.048-1.933,0.213-2.896c0.145-0.85,0.286-1.702,0.289-2.564   c0.002-0.573-0.079-1.142-0.08-1.714c-0.001-0.571,0.002-0.571-0.72-0.466c-0.053,0.008-0.107,0.014-0.161,0.015   c-0.453,0.008-0.837,0.147-1.188,0.352c-0.099,0.057-0.213,0.139-0.321,0.141c-0.627,0.01-1.294,0.075-1.777-0.318   c-0.236-0.192-0.439-0.186-0.712-0.095c-0.84,0.282-1.684,0.559-2.527,0.836c-1.313,0.431-2.679,0.739-4.08,0.954   c-0.773,0.118-1.589,0.075-2.317,0.362c-0.075,0.03-0.178,0.018-0.267,0.028c-1.406,0.166-2.816,0.094-4.217-0.001   c-0.619-0.042-1.23-0.216-1.723-0.529c-0.266-0.169-0.556-0.236-0.886-0.259c-0.467-0.032-0.961-0.012-1.394-0.124   c-0.984-0.254-2.012-0.33-3.019-0.462c-1.174-0.153-2.227-0.531-3.331-0.814c-0.542-0.139-1.05-0.351-1.582-0.513   c-0.185-0.056-0.362-0.113-0.529-0.197c-0.313-0.158-0.421-0.118-0.484,0.176c-0.075,0.35-0.127,0.702-0.213,1.05   C26.863,64.724,26.831,65.445,26.85,66.169z M50.549,45.461c-0.357-0.049-0.667-0.029-0.941,0.134   c-0.054,0.032-0.146,0.069-0.198,0.055c-0.506-0.133-0.756,0.121-1.027,0.364c-0.091,0.082-0.223,0.137-0.337,0.204   c-0.378,0.219-0.752,0.294-1.184,0.052c-0.394-0.221-0.833-0.228-1.278-0.058c-0.126,0.048-0.289,0.104-0.411,0.082   c-0.401-0.073-0.787,0.023-1.181,0.02c-0.636-0.004-0.905-0.156-1.096-0.616c-0.131-0.316-0.431-0.606-0.791-0.721   c-0.438-0.139-0.671-0.341-0.821-0.644c-0.114-0.231-0.226-0.454-0.55-0.581c-0.115-0.045-0.187-0.162-0.263-0.254   c-0.315-0.384-0.716-0.617-1.366-0.599c-0.494,0.014-0.744-0.212-0.794-0.586c-0.024-0.178-0.007-0.354,0.033-0.53   c0.031-0.137,0.043-0.27-0.114-0.378c-0.375-0.256-0.384-0.566-0.225-0.9c0.037-0.077,0.067-0.156,0.087-0.237   c0.076-0.318-0.081-0.468-0.499-0.494c-0.271-0.017-0.374,0.115-0.476,0.271c-0.451,0.689-0.708,1.429-0.963,2.165   c-0.289,0.836-0.633,1.659-1.241,2.385c-0.668,0.798-0.888,1.69-1.149,2.577c-0.176,0.598-0.298,1.206-0.514,1.797   c-0.436,1.197-0.769,2.413-0.994,3.64c-0.168,0.917-0.42,1.823-0.584,2.741c-0.062,0.349,0.017,0.648,0.219,0.934   c0.12,0.17,0.158,0.33,0.115,0.508c-0.026,0.108-0.1,0.23,0.009,0.314c0.318,0.245,0.45,0.62,0.819,0.8   c0.481,0.234,0.702,0.555,0.89,0.932c0.285,0.572,0.47,1.117-0.195,1.625c-0.174,0.133-0.108,0.249,0.145,0.285   c0.453,0.065,0.843,0.222,1.238,0.395c0.819,0.357,1.589,0.81,2.601,0.832c0.12,0.003,0.236,0.064,0.356,0.095   c0.428,0.11,0.865,0.194,1.318,0.209c0.994,0.034,1.969,0.156,2.927,0.354c0.397,0.082,0.585,0.03,0.817-0.235   c0.399-0.457,0.704-0.953,1.007-1.447c0.577-0.941,0.99-1.929,1.435-2.909c0.343-0.755,0.423-1.545,0.618-2.32   c0.184-0.728,0.104-1.469,0.231-2.2c0.079-0.457,0.14-0.919,0.042-1.383c-0.054-0.255-0.118-0.515-0.103-0.771   c0.017-0.308-0.062-0.6-0.182-0.882c-0.139-0.327-0.234-0.657-0.29-0.996c-0.092-0.555-0.345-1.073-0.876-1.46   c-0.374-0.273-0.175-0.716-0.602-0.946c-0.019-0.01-0.002-0.082,0.024-0.113c0.087-0.105,0.159-0.212,0.197-0.334   c0.02-0.066,0.081-0.13,0.181-0.134c0.146-0.007,0.159,0.095,0.191,0.167c0.091,0.203,0.025,0.429,0.207,0.626   c0.322,0.348,0.457,0.766,0.701,1.145c0.361,0.56,0.381,1.189,0.598,1.778c0.327,0.887,0.332,1.8,0.379,2.709   c0.039,0.765-0.102,1.523-0.187,2.283c-0.179,1.611-0.571,3.185-1.397,4.687c-0.173,0.314-0.226,0.665-0.463,0.957   c-0.331,0.409-0.534,0.864-0.852,1.277c-0.106,0.138-0.257,0.321-0.12,0.458c0.138,0.139,0.408,0.065,0.614,0.033   c0.44-0.07,0.871-0.186,1.314-0.233c0.688-0.072,1.321-0.271,1.975-0.42c0.085-0.019,0.192-0.039,0.24-0.086   c0.226-0.221,0.573-0.279,0.882-0.382c0.561-0.187,1.135-0.353,1.699-0.535c0.265-0.086,0.534-0.171,0.737-0.335   c0.039-0.032,0.041-0.073-0.012-0.108c-0.144-0.027-0.229,0.135-0.408,0.066c-0.036-0.213,0.182-0.34,0.33-0.482   c0.43-0.415,0.651-0.858,0.558-1.402c-0.069-0.403-0.041-0.817-0.025-1.225c0.042-1.063,0.037-2.129-0.101-3.184   c-0.132-1.007-0.124-2.012-0.133-3.018c-0.005-0.558,0.059-1.117,0.088-1.675c0.019-0.366-0.112-0.622-0.435-0.846   c-0.067-0.047-0.061-0.095-0.051-0.143c0.105-0.471,0.201-0.941,0.616-1.334c0.219-0.207,0.207-0.233,0.121-0.557   c-0.449,0.207-0.478,0.638-0.847,0.924c-0.069-0.188-0.021-0.315,0.042-0.445c0.158-0.324,0.359-0.627,0.713-0.854   c0.198-0.127,0.268-0.268,0.17-0.477c-0.316,0.113-0.492,0.307-0.699,0.473c-0.1,0.08-0.208,0.167-0.164,0.286   c0.039,0.107,0.04,0.187-0.114,0.232c-0.071,0.021-0.145,0.022-0.205-0.013c-0.124-0.074-0.112-0.185-0.042-0.258   c0.21-0.218,0.129-0.451,0.051-0.664C50.529,45.765,50.523,45.613,50.549,45.461z M48.008,21.765   c0.199-0.073,0.267-0.199,0.348-0.318c0.055-0.081,0.141-0.128,0.263-0.077c0.123,0.051,0.11,0.128,0.053,0.209   c-0.025,0.036-0.046,0.074-0.068,0.112c-0.092,0.158,0.032,0.229,0.204,0.269c0.143,0.033,0.283,0.015,0.42-0.036   c0.251-0.093,0.495-0.159,0.739,0.031c0.093,0.072,0.57-0.023,0.624-0.113c0.103-0.172-0.075-0.242-0.226-0.319   c-0.301-0.152-0.539-0.354-0.794-0.546c-0.479-0.36-0.873-0.795-1.499-1.035c-0.296-0.114-0.555-0.268-0.711-0.488   c-0.182-0.255-0.499-0.382-0.777-0.553c-0.268-0.165-0.401-0.418-0.78-0.531c-0.36-0.107-0.691-0.25-1.079-0.331   c-0.33-0.069-0.604-0.268-0.99-0.148c-0.078,0.024-0.168-0.035-0.223-0.094c-0.099-0.106-0.278-0.124-0.401-0.204   c-0.225-0.146-0.452-0.133-0.692-0.012c-0.211,0.107-0.445,0.182-0.702,0.198c-0.331,0.02-0.525,0.161-0.63,0.387   c-0.061,0.132-0.124,0.245-0.355,0.263c-0.485,0.038-0.775,0.315-0.824,0.619c-0.063,0.39-0.427,0.483-0.765,0.602   c-0.567,0.199-0.766,0.505-0.498,0.934c0.072,0.115,0.109,0.188-0.014,0.281c-0.215,0.163-0.235,0.358-0.168,0.57   c0.027,0.086-0.048,0.204,0.119,0.244c0.166,0.039,0.272-0.038,0.362-0.13c0.155-0.16,0.348-0.275,0.618-0.301   c0.268-0.025,0.387-0.134,0.437-0.344c0.067-0.278,0.207-0.356,0.607-0.365c0.396-0.008,0.699-0.102,0.896-0.372   c0.075-0.103,0.17-0.21,0.367-0.129c-0.005,0.121-0.129,0.178-0.172,0.266c-0.036,0.074-0.014,0.132,0.07,0.177   c0.086,0.047,0.173,0.035,0.248-0.01c0.054-0.033,0.103-0.075,0.141-0.12c0.27-0.321,0.491-0.402,0.964-0.326   c0.511,0.082,1.033,0.142,1.492,0.349c0.167,0.075,0.3,0.06,0.441-0.033c0.122-0.08,0.253-0.154,0.389-0.221   c0.218-0.107,0.443-0.111,0.777-0.018c-0.304,0.116-0.521,0.18-0.71,0.277c-0.156,0.08-0.364,0.186-0.198,0.362   c0.183,0.194,0.039,0.275-0.172,0.328c-0.242,0.061-0.264-0.082-0.287-0.206c-0.039-0.211-0.176-0.274-0.449-0.204   c-0.31,0.079-0.63,0.119-0.942,0.001c-0.094-0.036-0.179-0.021-0.254,0.016c-0.261,0.127-0.536,0.21-0.851,0.226   c-0.148,0.007-0.242,0.096-0.336,0.187c-0.246,0.239-0.489,0.226-0.614-0.044c-0.068-0.145-0.145-0.191-0.339-0.189   c-0.431,0.005-0.635,0.131-0.673,0.452c-0.011,0.094,0.007,0.191,0.007,0.286c-0.003,0.366-0.151,0.486-0.639,0.499   c-0.187,0.005-0.382,0.009-0.505,0.112c-0.238,0.2-0.549,0.22-0.862,0.29c-0.373,0.083-0.56-0.083-0.823-0.185   c-0.318-0.123-0.435-0.286-0.374-0.548c0.04-0.173-0.056-0.268-0.309-0.2c-0.176,0.047-0.352,0.041-0.534,0.023   c-0.732-0.072-1.396-0.239-1.913-0.669c-0.217-0.18-0.424-0.378-0.67-0.528c-0.343-0.209-0.645-0.409-0.597-0.786   c-0.235,0.064-0.274,0.194-0.335,0.3c-0.385,0.675-0.366,1.378-0.225,2.087c0.01,0.052,0.051,0.102,0.08,0.151   c0.514,0.887,1.241,1.643,2.296,2.218c0.412,0.225,0.808,0.4,1.334,0.334c0.22-0.028,0.38,0.038,0.475,0.2   c0.26,0.444,0.61,0.871,0.548,1.383c-0.065,0.538,0.029,1.058,0.211,1.576c0.152,0.432,0.073,0.837-0.301,1.2   c-0.144,0.14-0.253,0.295-0.313,0.472c-0.18,0.537,0.304,1.021,0.205,1.557c-0.028,0.148,0.055,0.336,0.166,0.467   c0.452,0.532,0.723,1.124,1.038,1.702c0.146,0.268,0.318,0.518,0.657,0.681c0.126,0.06,0.189,0.155,0.246,0.26   c0.127,0.237,0.18,0.243,0.447,0.075c0.304-0.192,0.596-0.396,0.907-0.583c0.339-0.203,0.698-0.388,1.04-0.589   c0.137-0.081,0.238-0.177,0.017-0.286c-0.499-0.246-0.969-0.517-1.333-0.883c-0.071-0.071-0.215-0.098-0.315-0.156   c-0.173-0.099-0.315-0.108-0.538-0.039c-0.273,0.084-0.586,0.227-0.905,0.058c0.012-0.04,0.008-0.076,0.029-0.091   c0.503-0.348,1.088-0.627,1.486-1.064c0.096-0.105,0.262-0.067,0.338,0.066c0.064,0.111,0.049,0.22-0.06,0.305   c-0.256,0.202-0.135,0.374,0.067,0.535c0.309,0.246,0.608,0.503,0.95,0.72c0.452,0.285,0.879,0.664,1.59,0.436   c0.059-0.019,0.142,0,0.214,0.007c0.764,0.066,1.434,0.247,1.789,0.823c0.148,0.24,0.398,0.356,0.754,0.402   c1.084,0.141,2.163,0.303,3.241,0.467c0.508,0.078,1.013,0.068,1.503-0.03c0.411-0.082,0.846-0.172,1.019-0.535   c0.05-0.104,0.167-0.176,0.291-0.237c0.105-0.051,0.208-0.125,0.344-0.072c0.142,0.055,0.114,0.163,0.096,0.255   c-0.093,0.462-0.414,0.814-0.963,1.023c-0.915,0.348-1.866,0.171-2.8,0.057c-1.085-0.133-2.142-0.367-3.209-0.566   c-0.106-0.02-0.216-0.038-0.319-0.003c-0.098,0.034-0.205,0.078-0.211,0.169c-0.006,0.081,0.104,0.101,0.185,0.124   c0.627,0.181,1.267,0.309,1.942,0.35c0.503,0.031,1.001,0.107,1.501,0.164c0.15,0.017,0.296,0.048,0.295,0.19   c-0.001,0.143-0.164,0.171-0.301,0.193c-0.231,0.037-0.471,0.047-0.697-0.009c-0.465-0.116-0.947-0.172-1.422-0.255   c-0.755-0.132-1.514-0.255-2.242-0.461c-0.478-0.135-0.606-0.373-0.428-0.744c0.046-0.096,0.015-0.147-0.075-0.209   c-0.184-0.127-0.351-0.086-0.54-0.003c-0.801,0.352-1.504,0.801-2.168,1.282c-0.403,0.292-0.386,0.305,0.094,0.563   c0.059,0.031,0.115,0.066,0.168,0.103c0.475,0.333,1.092,0.463,1.667,0.647c0.608,0.194,1.262,0.147,1.902,0.157   c0.722,0.012,1.44,0.053,2.152,0.146c0.553,0.073,1.106,0.107,1.67,0.054c0.869-0.082,1.713-0.197,2.394-0.667   c0.156-0.108,0.376-0.161,0.554-0.254c0.431-0.223,0.884-0.433,0.955-0.884c0.02-0.127,0.132-0.224,0.306-0.262   c0.316-0.068,0.498-0.255,0.707-0.426c0.472-0.387,0.677-0.926,1.282-1.241c0.149-0.078,0.242-0.241,0.31-0.379   c0.357-0.732,0.565-1.491,0.681-2.264c0.057-0.378-0.029-0.758,0.062-1.14c0.166-0.696,0.28-1.399,0.413-2.099   c0.02-0.107,0.059-0.229-0.061-0.311c-0.194-0.133-0.136-0.235-0.014-0.384c0.198-0.242,0.112-0.645-0.143-0.737   c-0.257-0.093-0.536-0.19-0.813-0.204c-0.75-0.039-1.51-0.084-2.22,0.192c-0.12,0.046-0.289,0.058-0.423,0.038   c-0.315-0.047-0.603,0.006-0.905,0.06c-0.432,0.078-0.859,0.091-1.103-0.283c-0.039-0.06-0.114-0.106-0.164-0.162   c-0.313-0.346-0.382-0.732-0.229-1.121c0.175-0.444,0.832-0.766,1.455-0.763c0.163,0.001,0.329,0.017,0.487-0.004   c0.521-0.07,0.99,0.012,1.459,0.192c0.35,0.135,0.728,0.244,1.138,0.236c0.069-0.001,0.152,0.002,0.182-0.061   c0.034-0.071,0.007-0.143-0.073-0.181c-0.184-0.086-0.37-0.173-0.568-0.238c-0.251-0.083-0.535-0.159-0.688-0.314   c-0.371-0.376-1.032-0.198-1.443-0.473c-0.029-0.019-0.134,0.019-0.199,0.04c-0.149,0.048-0.291,0.111-0.444,0.151   c-0.304,0.081-0.625,0.232-0.936,0.145c-0.359-0.1-0.706-0.102-1.06-0.069c-0.32,0.03-0.571-0.027-0.76-0.222   c-0.172-0.179-0.47-0.123-0.68-0.215c-0.228-0.099-0.221-0.343-0.489-0.461c-0.371-0.163-0.753-0.242-1.165-0.296   c-0.656-0.086-0.771-0.247-0.606-0.783c0.048,0.021,0.118,0.032,0.134,0.06c0.11,0.198,0.246,0.198,0.436,0.055   c0.192-0.143,0.362-0.298,0.503-0.515c0.128,0.162,0.277,0.26,0.483,0.258c0.297-0.003,0.398,0.131,0.478,0.317   C47.754,21.312,47.887,21.535,48.008,21.765z M57.483,53.577c-0.151-0.028-0.194,0.047-0.24,0.097   c-0.869,0.945-1.528,1.972-2.068,3.044c-0.059,0.117-0.062,0.242,0.018,0.358c0.277,0.405,0.473,0.823,0.377,1.291   c-0.02,0.097,0.009,0.185,0.138,0.246c0.693,0.331,1.235,0.788,1.79,1.234c0.147,0.118,0.31,0.152,0.522,0.17   c0.439,0.035,0.763-0.079,1.055-0.316c0.615-0.499,1.257-0.979,1.869-1.48c0.622-0.509,1.42-0.891,1.888-1.512   c0.169-0.224,0.388-0.427,0.567-0.648c0.467-0.579,1.14-1.058,1.437-1.72c0.086-0.192,0.203-0.378,0.324-0.56   c0.472-0.704,0.984-1.391,1.327-2.144c0.348-0.764,0.683-1.521,0.598-2.344c-0.006-0.054-0.001-0.109,0.008-0.163   c0.077-0.477-0.097-0.917-0.331-1.351c-0.217-0.403-0.437-0.805-0.631-1.215c-0.291-0.615-0.594-1.235-1.058-1.778   c-1.092-1.279-1.948-2.671-3.231-3.86c-0.488-0.452-0.902-0.952-1.342-1.431c-0.645-0.702-1.549-1.166-2.39-1.692   c-0.304-0.19-0.362-0.175-0.602,0.075c-0.256,0.265-0.507,0.523-0.87,0.72c-0.483,0.262-0.932,0.561-1.4,0.84   c-0.242,0.145-0.426,0.299-0.28,0.555c0.096,0.168-0.007,0.29-0.18,0.388c-0.144,0.082-0.292,0.161-0.438,0.241   c-0.143,0.078-0.238,0.179-0.19,0.313c0.096,0.274-0.062,0.493-0.292,0.668c-0.501,0.381-0.633,0.946-1.177,1.303   c-0.083,0.055-0.171,0.169-0.082,0.258c0.106,0.106,0.221-0.035,0.337-0.024c0.031,0.003,0.059,0.023,0.099,0.04   c0.028,0.207-0.15,0.386-0.165,0.588c-0.051,0.653-0.195,1.3-0.246,1.954c-0.031,0.396,0.035,0.787-0.009,1.183   c-0.155,1.384-0.454,2.758-0.506,4.151c-0.052,1.375-0.261,2.745-0.182,4.126c0.046,0.802,0.146,1.605,0.082,2.41   c-0.041,0.511,0.155,0.999,0.228,1.499c0.012,0.086,0.079,0.151,0.166,0.204c0.217,0.133,0.244,0.288,0.116,0.472   c-0.045,0.065-0.122,0.143,0.042,0.233c0.554-0.495,1.11-0.992,1.666-1.488c0.154-0.137,0.113-0.317,0.011-0.417   c-0.174-0.172-0.113-0.327-0.08-0.5c0.047-0.245,0.138-0.482,0.265-0.707c0.572-1.016,1.084-2.051,1.809-3.015   c0.275-0.365,0.363-0.766,0.086-1.173c-0.09-0.132-0.149-0.283-0.073-0.434c0.189-0.377-0.072-0.693-0.269-1.004   c-0.135-0.213-0.439-0.371-0.272-0.657c0.035-0.06,0.002-0.137-0.056-0.193c-0.327-0.318-0.383-0.732-0.671-1.064   c-0.079-0.091-0.164-0.229-0.023-0.296c0.183-0.087,0.222,0.082,0.297,0.163c0.041,0.044,0.064,0.098,0.099,0.146   c0.284,0.396,0.66,0.745,0.99,1.118c0.049,0.055,0.113,0.121,0.217,0.079c0.111-0.045,0.134-0.136,0.093-0.213   c-0.052-0.1-0.119-0.204-0.216-0.28c-0.583-0.453-0.931-1.032-1.455-1.516c-0.08-0.073-0.109-0.162-0.138-0.258   c-0.143-0.485-0.277-0.974-0.681-1.388c-0.117-0.12-0.215-0.253-0.306-0.386c-0.049-0.07-0.123-0.169-0.058-0.232   c0.219-0.211,0.388-0.426,0.308-0.707c0.331-0.154,0.126-0.324,0.026-0.492c-0.04-0.066-0.183-0.15-0.041-0.205   c0.314-0.121,0.248-0.321,0.187-0.496c-0.078-0.223,0.011-0.42,0.052-0.669c0.29,0.148,0.53,0.283,0.87,0.229   c0.18-0.029,0.275,0.087,0.296,0.232c0.055,0.365,0.122,0.73,0.19,1.094c0.022,0.119,0.005,0.246,0.112,0.352   c0.286,0.285,0.435,0.623,0.635,0.942c0.247,0.394,0.523,0.773,1.051,1.006c0.136,0.06,0.235,0.167,0.347,0.256   c0.747,0.592,1.369,1.263,2.076,1.88c0.157,0.137,0.28,0.272,0.568,0.25c0.184-0.014,0.242,0.096,0.185,0.225   c-0.045,0.102-0.074,0.212-0.196,0.286c-0.796,0.485-1.352,1.129-1.985,1.72c-0.462,0.432-0.804,0.906-0.619,1.501   c0.042,0.134-0.006,0.272-0.084,0.398c-0.031,0.05-0.076,0.092-0.202,0.077C57.424,53.99,57.579,53.759,57.483,53.577z    M35.662,38.382c-0.074-0.097-0.199-0.094-0.295-0.115c-0.295-0.064-0.478-0.213-0.506-0.429c-0.056-0.443-0.365-0.748-0.832-0.987   c-0.088-0.045-0.145-0.124-0.232-0.171c-0.293-0.16-0.329-0.374-0.254-0.619c0.041-0.133,0.074-0.267,0.104-0.401   c0.03-0.134-0.044-0.196-0.231-0.21c-0.245-0.019-0.456,0.028-0.674,0.11c-0.533,0.202-0.995,0.496-1.527,0.694   c-1.315,0.489-2.524,1.104-3.74,1.716c-1.095,0.551-2.215,1.07-3.213,1.723c-1.54,1.007-3.052,2.036-4.47,3.143   c-1.027,0.802-1.721,1.742-2.07,2.825c-0.092,0.286-0.25,0.575-0.019,0.872c0.037,0.048,0.008,0.136-0.017,0.199   c-0.175,0.452-0.067,0.899,0.095,1.33c0.337,0.894,0.856,1.739,1.478,2.534c0.685,0.876,1.391,1.75,2.265,2.534   c0.104,0.093,0.211,0.185,0.312,0.281c0.64,0.605,1.25,1.23,1.926,1.81c1.077,0.924,2.21,1.81,3.242,2.764   c0.318,0.294,0.318,0.293,0.782,0.165c0.024-0.006,0.061,0.016,0.085,0.023c0.159,0.133-0.146,0.283,0.002,0.395   c0.668,0.025,1.156-0.254,1.669-0.471c0.667-0.281,1.241-0.655,1.762-1.076c0.092-0.074,0.228-0.14,0.097-0.274   c-0.346-0.356-0.495-0.782-0.704-1.185c-0.334-0.645-0.66-1.293-0.979-1.942c-0.301-0.612-0.799-1.159-1.018-1.798   c-0.131-0.38-0.377-0.72-0.616-1.071c-0.512-0.754-1.387-1.278-1.984-1.969c-0.59-0.2-0.43-0.684-0.67-1.017   c-0.044-0.061,0.004-0.133,0.095-0.172c0.098-0.042,0.178-0.003,0.241,0.045c0.09,0.067,0.164,0.145,0.249,0.215   c0.11,0.091,0.235,0.047,0.348,0.007c0.116-0.04,0.236-0.098,0.216-0.209c-0.018-0.102-0.167-0.084-0.259-0.117   c-0.792-0.283-1.491-0.655-1.991-1.209c-0.083-0.092-0.187-0.16-0.281-0.24c-0.285-0.241-0.665-0.448-0.802-0.752   c-0.139-0.308-0.329-0.601-0.482-0.902c-0.163-0.321-0.112-0.565,0.073-0.85c0.398-0.612,1.152-0.94,1.852-1.277   c0.76-0.367,1.658-0.526,2.55-0.652c0.305-0.043,0.621-0.05,0.91,0.03c0.397,0.109,0.881,0.129,1.138,0.414   c0.239,0.265,0.591,0.391,0.913,0.561c0.127,0.067,0.271,0.103,0.408,0.047c0.231-0.093,0.452-0.061,0.683-0.013   c0.234,0.048,0.452,0.021,0.682-0.053c0.951-0.308,1.652-0.827,2.163-1.487C34.814,40.28,35.144,39.295,35.662,38.382z    M42.866,11.514c-0.213,0.117-0.41,0.066-0.602,0.081c-0.239,0.018-0.366,0.127-0.39,0.32c-0.025,0.201,0.146,0.216,0.341,0.223   c0.162,0.006,0.325,0.016,0.484,0.037c0.195,0.026,0.288,0.11,0.203,0.263c-0.087,0.158-0.185,0.304-0.473,0.215   c-0.065-0.02-0.14-0.041-0.208-0.036c-0.188,0.014-0.297,0.114-0.31,0.243c-0.014,0.148,0.168,0.108,0.279,0.121   c0.356,0.043,0.715,0.063,1.067,0.134c0.174,0.035,0.308,0.072,0.337,0.217c0.033,0.163,0.199,0.212,0.374,0.26   c0.475,0.128,0.939,0.286,1.425,0.383c0.458,0.092,0.926,0.179,1.417,0.097c0.754-0.126,1.513-0.262,2.284-0.048   c0.065,0.018,0.146,0.002,0.215,0.014c0.664,0.121,1.357,0.125,2.009,0.304c0.332,0.091,0.698,0.188,1.036,0.167   c0.436-0.027,0.865-0.032,1.292,0.01c0.886,0.086,1.762,0.025,2.645-0.033c0.434-0.029,0.592-0.203,0.694-0.471   c0.158-0.419,0.326-0.835,0.482-1.254c0.249-0.669,0.594-1.315,0.856-1.982c0.283-0.718,0.606-1.429,0.971-2.125   c0.374-0.715,0.553-1.466,0.824-2.2c0.036-0.099,0.069-0.221-0.079-0.301c-0.689-0.371-1.396-0.763-2.172-0.973   c-0.754-0.204-1.526-0.4-2.302-0.569c-0.675-0.147-1.341-0.348-2.041-0.398c-1.668-0.119-3.339-0.221-5.018-0.197   c-0.07,0.001-0.161,0.009-0.207-0.019c-0.255-0.157-0.55-0.088-0.833-0.101c-0.535-0.026-1.027,0.125-1.538,0.198   c-0.692,0.099-1.394,0.173-2.07,0.316c-0.317,0.067-0.713,0.071-0.999,0.356c0.568,0.01,1.055-0.151,1.558-0.117   c-0.007,0.103-0.07,0.142-0.138,0.149c-0.409,0.047-0.784,0.187-1.182,0.252c-0.631,0.101-1.235,0.271-1.862,0.379   c-0.175,0.03-0.347,0.08-0.509,0.137c-0.193,0.068-0.356,0.163-0.321,0.382c0.297-0.045,0.631-0.024,0.805-0.139   c0.295-0.197,0.559-0.181,0.888-0.122c0.224,0.04,0.452-0.088,0.696-0.038c-0.348,0.177-0.904,0.095-1.1,0.519   c0.462,0.016,0.879,0.031,1.326,0.046c-0.196,0.213-0.45,0.204-0.702,0.221c-0.236,0.016-0.505,0.016-0.625,0.309   c0.498-0.047,0.939-0.07,1.383-0.055c0.431,0.014,0.863-0.115,1.332-0.056c-0.146,0.255-0.395,0.292-0.644,0.331   c-0.583,0.09-1.165,0.186-1.75,0.268c-0.225,0.032-0.417,0.094-0.548,0.235c-0.101,0.108-0.067,0.252,0.086,0.267   c0.306,0.031,0.585,0.203,0.876,0.163c0.465-0.064,0.937-0.049,1.398-0.117c0.224-0.033,0.454-0.057,0.691-0.012   c-0.021,0.154-0.155,0.23-0.295,0.192c-0.528-0.147-1.036,0.03-1.553,0.026c-0.204-0.002-0.395,0.067-0.422,0.203   c-0.037,0.187-0.087,0.296-0.372,0.305c-0.118,0.004-0.207,0.121-0.186,0.222c0.029,0.141,0.189,0.091,0.305,0.088   c0.233-0.004,0.472-0.096,0.73,0.013c-0.105,0.083-0.187,0.137-0.252,0.201c-0.145,0.146-0.108,0.227,0.127,0.239   c0.233,0.011,0.468-0.011,0.702-0.009c0.276,0.002,0.566-0.045,0.837,0.089c-0.269,0.153-0.27,0.156-0.489,0.151   c-0.325-0.008-0.649-0.02-0.972,0.027c-0.167,0.024-0.336,0.058-0.383,0.189c-0.048,0.137,0.157,0.161,0.247,0.238   c0.021,0.018,0.023,0.048,0.038,0.083c-0.171,0.038-0.351,0.062-0.51,0.119c-0.108,0.039-0.212,0.121-0.168,0.231   c0.041,0.102,0.175,0.075,0.276,0.079c0.342,0.013,0.686,0.003,1.025,0.055c0.121,0.019,0.287,0.004,0.277,0.136   c-0.009,0.114-0.121,0.204-0.286,0.21c-0.198,0.007-0.399-0.021-0.594-0.005c-0.226,0.019-0.478,0.001-0.64,0.171   c-0.124,0.13-0.098,0.216,0.102,0.274C42.33,11.369,42.599,11.441,42.866,11.514z M43.488,45.295   c0.277,0.028,0.279,0.031,0.643-0.119c0.214-0.088,0.404-0.141,0.514,0.093c0.068,0.144,0.238,0.198,0.412,0.241   c0.154,0.038,0.313,0.068,0.464,0.112c0.642,0.186,0.962,0.134,1.4-0.234c0.085-0.071,0.164-0.146,0.256-0.211   c0.312-0.219,0.476-0.212,0.731,0.057c0.109,0.115,0.22,0.194,0.397,0.136c0.516-0.169,1.089-0.192,1.601-0.363   c0.35-0.117,0.677-0.269,0.695-0.611c0.005-0.091,0.115-0.135,0.166-0.204c0.268-0.364,0.953-0.581,0.704-1.13   c-0.007-0.016,0.043-0.043,0.055-0.068c0.2-0.418,0.529-0.766,0.978-1.051c0.175-0.111,0.271-0.243,0.249-0.428   c-0.026-0.219,0.1-0.396,0.34-0.526c0.311-0.167,0.601-0.345,0.702-0.648c0.024-0.071,0.119-0.145,0.208-0.183   c0.294-0.126,0.41-0.302,0.442-0.56c0.041-0.338,0.258-0.605,0.698-0.772c0.402-0.152,0.793-0.324,1.194-0.481   c0.588-0.23,0.705-0.54,0.399-0.979c-0.075-0.108-0.149-0.219-0.244-0.317c-0.396-0.41-0.399-0.409,0.035-0.775   c0.024-0.02,0.047-0.042,0.075-0.059c0.546-0.355,0.392-0.914,0.679-1.346c0.029-0.043-0.058-0.124-0.073-0.19   c-0.093-0.401-0.138-0.812-0.408-1.178c-0.015-0.021,0-0.054-0.002-0.081c-0.03-0.4,0.127-0.744,0.488-1.048   c0.383-0.322,0.377-0.571,0.029-0.915c-0.097-0.097-0.209-0.188-0.333-0.266c-0.704-0.441-0.83-0.877-0.359-1.464   c0.273-0.341,0.375-0.702,0.371-1.087c-0.003-0.238,0.049-0.459,0.19-0.672c0.08-0.122,0.159-0.249,0.197-0.38   c0.061-0.208-0.244-0.466-0.574-0.511c-0.27-0.037-0.305,0.131-0.333,0.251c-0.158,0.669-0.357,1.338-0.427,2.014   c-0.092,0.883-0.246,1.76-0.35,2.641c-0.014,0.12-0.051,0.248-0.124,0.354c-0.436,0.642-0.81,1.313-1.493,1.841   c-0.103,0.079-0.187,0.167-0.225,0.276c-0.067,0.19-0.231,0.283-0.481,0.344c-0.367,0.089-0.639,0.29-0.634,0.594   c0.006,0.306-0.186,0.487-0.506,0.62c-0.285,0.119-0.554,0.24-0.766,0.44c-0.13,0.122-0.336,0.202-0.574,0.197   c-0.301-0.006-0.563,0.084-0.797,0.221c-0.19,0.111-0.379,0.203-0.644,0.139c-0.094-0.023-0.215,0.001-0.318,0.021   c-0.915,0.179-1.864,0.123-2.788,0.237c-0.071,0.009-0.146,0.012-0.216,0.003c-0.718-0.091-1.478-0.028-2.131-0.357   c-0.16-0.081-0.367-0.131-0.56-0.147c-0.562-0.047-1.092-0.175-1.606-0.338c-0.461-0.146-0.953-0.259-1.302-0.559   c-0.334-0.288-0.357-0.296-0.656,0.028c-0.35,0.38-0.665,0.779-0.989,1.173c-0.525,0.639-0.909,1.33-1.264,2.03   c-0.137,0.27-0.118,0.275,0.225,0.385c0.233,0.075,0.46,0.158,0.653,0.285c0.799,0.528,0.895,0.664,0.481,1.316   c-0.112,0.176-0.188,0.352,0.037,0.528c0.147,0.115,0.111,0.279,0.122,0.429c0.024,0.328,0.143,0.428,0.552,0.521   c0.585,0.132,1.069,0.35,1.304,0.815c0.134,0.264,0.326,0.311,0.699,0.216c0.17-0.043,0.327-0.117,0.495-0.165   c0.318-0.091,0.488,0.002,0.466,0.262c-0.017,0.204-0.077,0.406-0.09,0.609c-0.027,0.433,0.097,0.526,0.673,0.54   c0.387,0.009,0.392,0.015,0.288,0.297C43.511,45.19,43.502,45.242,43.488,45.295z M50.502,19.021   c-0.496-0.083-0.972-0.041-1.667,0.134c-0.491,0.124-0.521,0.24-0.149,0.529c0.14,0.109,0.297,0.195,0.465,0.277   c0.165,0.08,0.345,0.149,0.464,0.277c0.209,0.226,0.478,0.412,0.772,0.569c0.763,0.408,1.484,0.854,2.173,1.331   c0.291,0.202,0.626,0.365,0.989,0.493c0.845,0.298,1.621,0.692,2.476,0.985c0.636,0.218,1.28,0.427,1.921,0.638   c0.261,0.086,0.553,0.166,0.925,0.086c-0.231-0.155-0.414-0.279-0.599-0.403c0.239-0.188,0.241-0.198,0.38-0.185   c0.125,0.011,0.244,0.026,0.374,0.013c0.688-0.071,1.382-0.18,2.04,0.103c0.03,0.013,0.07,0.012,0.105,0.018   c0.216,0.038,0.433,0.088,0.521-0.145c0.037-0.099,0.18-0.123,0.265-0.085c0.364,0.163,0.685-0.072,1.033-0.047   c0.092,0.007,0.228-0.023,0.235-0.13c0.006-0.091-0.079-0.145-0.178-0.188c-0.144-0.063-0.378,0.009-0.454-0.164   c0.104-0.073,0.208-0.045,0.306-0.009c0.816,0.301,1.72,0.207,2.576,0.33c0.067,0.01,0.144-0.032,0.162-0.09   c0.022-0.069-0.044-0.092-0.122-0.098c-0.36-0.029-0.661-0.202-1.027-0.208c0.171-0.516,0.29-0.576,0.915-0.483   c0.053,0.008,0.105,0.019,0.159,0.026c0.113,0.015,0.227,0.091,0.343,0.003c-0.218-0.228-0.218-0.228-0.069-0.425   c-0.17-0.139-0.486-0.066-0.636-0.229c0.065-0.133,0.235-0.143,0.338-0.214c0.268-0.186,0.248-0.254-0.07-0.37   c-0.297-0.11-0.626-0.121-0.935-0.195c-0.994-0.238-1.938-0.578-2.937-0.81c-1.082-0.252-2.108-0.623-3.135-0.985   c-0.521-0.184-1.066-0.333-1.666-0.235c-0.03,0.005-0.066-0.014-0.113-0.026c0.017-0.075,0.034-0.15,0.051-0.227   c-0.168-0.057-0.322-0.011-0.482,0.004c-0.45,0.042-0.863,0.366-1.358,0.104c-0.037-0.02-0.135,0.023-0.203,0.04   c-0.256,0.065-0.51,0.135-0.767,0.198c-0.123,0.03-0.251,0.102-0.387,0.013c0.08-0.254,0.48-0.179,0.636-0.397   c-0.427,0.03-0.768,0.176-1.131,0.272c-0.192,0.051-0.411,0.23-0.602-0.025c-0.04-0.054-0.165-0.024-0.253-0.002   c-0.324,0.08-0.677,0.089-0.978,0.23c-0.071,0.033-0.181,0.085-0.239,0.011c-0.14-0.18-0.311-0.077-0.469-0.041   c-0.202,0.046-0.394,0.125-0.639,0.1C49.954,19.144,50.284,19.179,50.502,19.021z M49.16,87.294   c-0.172-0.046-0.375-0.053-0.516,0.021c-0.465,0.246-0.907,0.168-1.363-0.001c-0.128-0.048-0.274-0.069-0.408-0.108   c-0.122-0.036-0.239-0.049-0.368-0.016c-0.686,0.176-1.284,0.432-1.604,0.96c-0.257,0.424-0.493,0.858-0.498,1.327   c-0.004,0.366-0.081,0.678-0.389,0.985c-0.373,0.371-0.305,0.557,0.13,0.886c0.742,0.561,1.58,1.03,2.45,1.469   c0.128,0.064,0.254,0.095,0.399,0.018c0.103-0.055,0.225-0.089,0.327-0.145c0.224-0.124,0.382-0.078,0.55,0.075   c0.636,0.579,1.373,1.073,2.171,1.528c1.049,0.597,2.169,1.062,3.443,1.317c1.447,0.289,2.905,0.391,4.392,0.201   c0.814-0.104,1.549-0.358,2.269-0.643c0.139-0.055,0.266-0.145,0.364-0.24c0.163-0.157,0.209-0.332,0.05-0.508   c-0.909,0.384-1.809,0.415-2.725,0.106c-0.313-0.106-0.609-0.237-0.949-0.294c-0.143-0.024-0.285-0.083-0.355-0.176   c-0.315-0.417-0.903-0.569-1.387-0.817c-0.329-0.168-0.665-0.037-0.755,0.262c-0.04,0.132-0.052,0.27-0.092,0.402   c-0.096,0.316-0.323,0.447-0.747,0.485c-0.469,0.042-0.832-0.069-1.164-0.323c-0.91-0.697-1.875-1.351-2.892-1.957   c-0.468-0.279-0.591-0.633-0.581-1.041c0.004-0.185,0.106-0.35,0.327-0.447c0.373-0.163,0.585-0.438,0.864-0.668   c0.206-0.169,0.174-0.304,0.035-0.472C49.58,88.811,49.356,88.059,49.16,87.294z M36.19,16.24c-0.619-0.033-1.105,0.095-1.59,0.192   c-1.184,0.237-2.268,0.622-3.123,1.311c-0.549,0.442-0.986,0.938-1.287,1.501c-0.278,0.52-0.075,1.072-0.188,1.604   c-0.013,0.059,0.025,0.144,0.08,0.188c0.142,0.112,0.124,0.251,0.15,0.383c0.041,0.202,0.033,0.416,0.122,0.605   c0.377,0.808,0.764,1.617,1.392,2.339c0.434,0.499,0.982,0.931,1.538,1.353c0.262,0.199,0.426,0.187,0.667-0.021   c0.11-0.095,0.231-0.171,0.373-0.232c0.177-0.078,0.308-0.188,0.399-0.326c0.115-0.174,0.13-0.322-0.107-0.463   c-0.228-0.136-0.463-0.258-0.715-0.365c-0.503-0.214-0.865-0.535-1.1-0.925c-0.367-0.607-0.59-1.251-0.795-1.9   c-0.104-0.33-0.056-0.641,0.072-0.964c0.219-0.555,0.56-1.062,0.962-1.548c0.152-0.184,0.226-0.401,0.438-0.561   c0.137-0.104,0.262-0.188,0.469-0.121c0.207,0.066,0.142,0.204,0.144,0.319c0.005,0.267-0.181,0.497-0.27,0.745   c-0.193,0.544,0.019,0.949,0.686,1.187c0.322,0.115,0.563,0.292,0.816,0.463c0.473,0.32,1.004,0.396,1.608,0.27   c0.306-0.064,0.472-0.241,0.642-0.415c0.079-0.081,0.063-0.166-0.04-0.256c-0.467-0.408-0.403-0.766,0.206-1.022   c0.303-0.127,0.452-0.269,0.433-0.544c-0.028-0.387,0.233-0.675,0.674-0.871c0.285-0.126,0.584-0.223,0.92-0.212   c0.268,0.008,0.449-0.072,0.556-0.256c0.1-0.173,0.288-0.273,0.51-0.347c0.28-0.093,0.558-0.19,0.835-0.288   c0.115-0.041,0.236-0.089,0.243-0.2c0.01-0.143-0.17-0.122-0.271-0.149c-0.623-0.163-1.249-0.3-1.913-0.371   c-1.104-0.118-2.193-0.326-3.315-0.115C36.307,16.25,36.195,16.24,36.19,16.24z M41.085,33.893   c-0.448,0.407-0.994,0.712-1.498,1.053c-0.27,0.182-0.531,0.368-0.758,0.583c-1.261,1.19-2.187,2.528-3.013,3.909   c-0.407,0.681-0.705,1.4-1.251,2.035c-0.135,0.157-0.339,0.3-0.36,0.496c-0.019,0.186-0.159,0.296-0.325,0.405   c-0.19,0.125-0.374,0.257-0.571,0.377c-0.54,0.327-1.128,0.596-1.823,0.671c-0.589,0.063-1.184,0.095-1.67-0.27   c-0.203-0.152-0.451-0.271-0.682-0.401c-0.109-0.061-0.232-0.093-0.326,0.015c-0.394,0.448-1.014,0.693-1.578,0.98   c-0.834,0.423-1.629,0.907-2.653,1.074c-0.366,0.06-0.481,0.243-0.408,0.525c0.058,0.224,0.238,0.395,0.435,0.555   c0.517,0.421,1.092,0.796,1.745,1.087c0.283,0.126,0.599,0.347,0.977,0.105c0.078-0.05,0.17-0.027,0.254,0.005   c0.161,0.061,0.331,0.111,0.483,0.183c0.282,0.134,0.561,0.149,0.876,0.064c0.475-0.128,0.956-0.247,1.444-0.343   c0.859-0.168,1.622-0.511,2.269-0.922c1.014-0.644,1.765-1.476,2.239-2.425c0.522-1.044,1.125-2.065,1.51-3.147   c0.207-0.58,0.6-1.108,0.872-1.67c0.323-0.667,0.702-1.312,1.147-1.937c0.728-1.022,1.526-2.004,2.636-2.822   C41.103,34.044,41.17,34.008,41.085,33.893z M33.538,29.024c0.002,0.179-0.198,0.231-0.361,0.312   c-0.127,0.063-0.26,0.218-0.132,0.262c0.424,0.147,0.388,0.378,0.328,0.649c-0.012,0.056,0.104,0.138,0.179,0.194   c0.076,0.056,0.18,0.091,0.265,0.141c0.378,0.221,0.417,0.326,0.269,0.682c-0.021,0.051-0.055,0.112-0.035,0.157   c0.145,0.324-0.11,0.546-0.33,0.779c-0.105,0.111-0.218,0.219-0.306,0.337c-0.106,0.141-0.104,0.271,0.069,0.404   c0.429,0.331,0.444,0.451,0.147,0.852c-0.132,0.179-0.272,0.357-0.32,0.56c-0.092,0.387,0.078,0.525,0.591,0.499   c0.036-0.002,0.071-0.013,0.107-0.013c0.243,0.001,0.37,0.091,0.279,0.249c-0.216,0.374-0.039,0.755-0.085,1.13   c-0.018,0.151,0.051,0.245,0.285,0.278c0.183,0.026,0.438,0.07,0.458,0.244c0.047,0.408,0.565,0.662,0.58,1.081   c0.005,0.128,0.169,0.158,0.335,0.112c0.14-0.039,0.276-0.09,0.344-0.189c0.421-0.607,1.02-1.123,1.501-1.699   c0.377-0.451,0.787-0.879,1.25-1.28c0.07-0.061,0.157-0.124,0.185-0.197c0.063-0.161-0.093-0.267-0.249-0.323   c-0.153-0.056-0.206,0.053-0.237,0.156c-0.022,0.073-0.043,0.168-0.204,0.13c-0.074-0.107,0-0.215-0.009-0.322   c-0.011-0.124-0.061-0.193-0.251-0.211c-0.725-0.067-0.737-0.082-0.735-0.621c0-0.108,0-0.223,0.045-0.323   c0.175-0.394,0.039-0.707-0.344-0.998c-0.338-0.257-0.555-0.563-0.473-0.955c0.058-0.275-0.017-0.543-0.186-0.793   c-0.13-0.192-0.127-0.393-0.078-0.598c0.026-0.107,0.067-0.213,0.073-0.32c0.04-0.695,0.212-1.376,0.384-2.057   c0.156-0.616-0.078-1.215-0.196-1.813c-0.052-0.264-0.422-0.401-0.79-0.475c-0.348-0.069-0.482,0.11-0.668,0.256   c-0.137,0.108-0.307,0.19-0.45,0.294c-0.181,0.132-0.353,0.272-0.524,0.412c-0.175,0.143-0.177,0.29-0.003,0.437   c0.048,0.041,0.089,0.086,0.128,0.132c0.536,0.618,0.437,1.118-0.35,1.491c-0.287,0.136-0.54,0.319-0.782,0.5   c-0.235,0.176-0.166,0.323,0.161,0.397C33.454,28.974,33.506,28.975,33.538,29.024z M25.183,91.829   c-0.319,0.209-0.396,0.302-0.43,0.553c-0.063,0.467-0.018,0.922,0.204,1.368c0.211,0.424,0.769,0.633,1.046,1.012   c0.023,0.031,0.088,0.045,0.137,0.063c0.776,0.278,1.585,0.354,2.427,0.216c0.493-0.08,0.983-0.168,1.476-0.247   c0.249-0.04,0.498-0.08,0.716-0.181c1.076-0.496,2.241-0.88,3.24-1.473c0.933-0.553,1.994-0.982,2.817-1.645   c0.124-0.1,0.29-0.193,0.472-0.178c0.227,0.019,0.134,0.196,0.187,0.301c0.156,0.309,0.258,0.339,0.624,0.151   c0.809-0.414,1.555-0.887,2.286-1.376c0.144-0.097,0.262-0.194,0.17-0.35c-0.12-0.206-0.111-0.426-0.115-0.643   c-0.005-0.316-0.141-0.608-0.433-0.816c-0.423-0.302-0.701-0.807-1.474-0.693c-0.015,0.002-0.041-0.004-0.048-0.012   c-0.233-0.282-0.605-0.196-0.927-0.176c-0.353,0.021-0.684,0.016-0.992-0.125c-0.119-0.055-0.249-0.083-0.345,0.003   c-0.319,0.286-0.764,0.457-1.114,0.713c-0.216,0.158-0.223,0.251,0.021,0.387c0.274,0.152,0.438,0.356,0.586,0.577   c0.139,0.206,0.269,0.417,0.441,0.607c0.159,0.175,0.149,0.33,0.001,0.489c-0.218,0.234-0.424,0.473-0.686,0.684   c-0.648,0.523-1.416,0.929-2.212,1.307c-0.289,0.137-0.575,0.275-0.908,0.357c-0.61,0.151-0.726,0.139-1.108-0.23   c-0.255-0.246-0.481-0.512-0.76-0.741c-0.314-0.257-0.42-0.248-0.756-0.013c-0.943,0.659-1.981,1.18-3.274,1.366   c-0.305,0.044-0.587,0.16-0.814-0.11c-0.158-0.188-0.446-0.308-0.404-0.591C25.262,92.217,25.338,92.032,25.183,91.829z    M31.264,54.688c0.294-1.005,0.366-1.954,0.633-2.878c0.265-0.917,0.453-1.848,0.65-2.775c0.198-0.928,0.674-1.814,0.775-2.769   c-0.186,0.009-0.284,0.075-0.373,0.138c-0.846,0.596-1.878,0.978-2.878,1.385c-0.308,0.126-0.467,0.259-0.578,0.48   c-0.32,0.636-0.611,1.274-0.807,1.944c-0.097,0.332-0.071,0.569,0.153,0.831c0.628,0.736,1.063,1.541,1.518,2.342   C30.591,53.804,30.841,54.227,31.264,54.688z M33.126,61.003c-0.223,0.024-0.396,0.139-0.569,0.257   c-0.276,0.189-0.589,0.316-0.976,0.298c-0.295-0.014-0.518,0.079-0.712,0.241c-0.158,0.132-0.336,0.269-0.587,0.271   c-0.508,0.004-0.907,0.249-1.38,0.33c-0.135,0.023-0.308,0.067-0.311,0.196c-0.003,0.166,0.205,0.16,0.354,0.19   c0.747,0.149,1.494,0.295,2.213,0.514c0.736,0.224,1.545,0.269,2.273,0.524c0.309,0.108,0.613,0.227,0.952,0.289   c1.036,0.191,2.09,0.294,3.147,0.389c0.257,0.023,0.392-0.048,0.379-0.238c-0.024-0.352,0.087-0.671,0.346-0.965   c0.057-0.065,0.066-0.154,0.1-0.231c0.08-0.185-0.027-0.28-0.26-0.326c-0.506-0.098-0.968-0.291-1.482-0.378   c-0.82-0.139-1.503-0.516-2.249-0.784c-0.278-0.1-0.55-0.211-0.861-0.205c-0.188,0.004-0.269-0.031-0.268-0.174   C33.235,61.136,33.238,61.064,33.126,61.003z M51.751,61.007c-0.234-0.049-0.37,0.063-0.531,0.112   c-1.02,0.307-1.959,0.748-2.999,1.026c-0.457,0.122-0.903,0.286-1.358,0.397c-0.582,0.142-0.705,0.351-0.63,0.792   c0.08,0.468-0.055,0.947-0.216,1.412c-0.088,0.254-0.04,0.29,0.298,0.278c0.452-0.016,0.891-0.097,1.332-0.168   c0.711-0.115,1.36-0.357,2.033-0.551c0.883-0.254,1.702-0.592,2.496-0.971c0.276-0.132,0.489-0.313,0.658-0.512   c-0.067-0.103-0.173-0.111-0.28-0.133c-0.758-0.16-1.049-0.51-0.924-1.094C51.673,61.398,51.711,61.202,51.751,61.007z    M29.627,59.809c0.179,0.132,0.354,0.261,0.312,0.426c-0.105,0.413,0.05,0.814,0.053,1.221c0.001,0.101-0.073,0.241,0.095,0.294   c0.182,0.058,0.353-0.019,0.49-0.112c0.093-0.064,0.184-0.137,0.242-0.219c0.282-0.408,0.335-0.828,0.076-1.256   c-0.037-0.061-0.092-0.119-0.113-0.183c-0.029-0.087,0.02-0.165,0.13-0.203c0.126-0.043,0.209,0.007,0.249,0.095   c0.058,0.128,0.113,0.258,0.157,0.389c0.112,0.336,0.218,0.673,0.326,1.01c0.891-0.178,1.03-0.38,0.7-0.993   c-0.027-0.05-0.077-0.094-0.099-0.145c-0.084-0.193-0.145-0.389-0.067-0.611c0.279,0.026,0.486,0.112,0.627,0.287   c0.075,0.093,0.144,0.191,0.233,0.276c0.098,0.093,0.24,0.1,0.308-0.009c0.152-0.246,0.273-0.493,0.146-0.782   c-0.211-0.48-0.686-0.824-1.103-1.183c-0.2-0.173-0.285-0.402-0.543-0.543c-0.175-0.095-0.302-0.14-0.462-0.008   c-0.061,0.05-0.137,0.091-0.189,0.146c-0.699,0.754-1.758,1.165-2.766,1.609c-0.391,0.172-0.539,0.35-0.535,0.67   c0.006,0.491-0.022,0.983-0.325,1.437c-0.065,0.097-0.105,0.206-0.032,0.315c0.184,0.277,0.534,0.291,0.878,0.323   c0.311,0.029,0.461-0.097,0.561-0.297c0.237-0.474,0.382-0.963,0.44-1.468C29.43,60.136,29.393,59.961,29.627,59.809z    M56.752,62.287c0.063-0.015,0.114-0.015,0.123-0.03c0.309-0.508,0.613-1.017,0.919-1.525c0.068-0.113,0.055-0.222-0.066-0.3   c-0.328-0.21-0.538-0.495-0.904-0.694c-0.467-0.253-0.986-0.451-1.413-0.75c-0.405-0.283-0.483-0.289-0.907-0.002   c-0.443,0.299-0.836,0.641-1.261,0.956c-0.209,0.155-0.367,0.335-0.538,0.511c-0.427,0.439-0.376,0.961-0.437,1.46   c-0.018,0.147,0.154,0.272,0.267,0.391c0.091,0.096,0.231,0.075,0.317-0.019c0.059-0.065,0.085-0.148,0.124-0.224   c0.326-0.639,0.965-1.074,1.675-1.46c0.049-0.027,0.146-0.032,0.204-0.014c0.102,0.03,0.092,0.11,0.069,0.175   c-0.066,0.184-0.138,0.365-0.302,0.519c-0.365,0.343-0.608,0.741-0.862,1.133c-0.084,0.13-0.233,0.284-0.034,0.409   c0.174,0.109,0.382,0.019,0.559-0.042c0.094-0.032,0.184-0.093,0.243-0.157c0.266-0.29,0.602-0.544,0.784-0.879   c0.1-0.184,0.319-0.265,0.448-0.178c0.163,0.11,0.063,0.227-0.034,0.327c-0.328,0.342-0.57,0.729-0.981,1.027   c-0.085,0.062-0.197,0.137-0.096,0.247c0.13,0.141,0.302,0.243,0.535,0.245c0.153,0.001,0.2-0.102,0.227-0.198   c0.224-0.791,1.007-1.335,1.541-1.988c0.012-0.014,0.067-0.008,0.145-0.016C57.174,61.6,56.711,61.901,56.752,62.287z    M51.401,18.364c0.084,0.092,0.203,0.093,0.305,0.095c1.212,0.031,2.411-0.045,3.589-0.27c0.193-0.037,0.301-0.137,0.341-0.284   c0.24-0.879,0.503-1.754,0.81-2.621c0.099-0.279,0.036-0.312-0.377-0.334c-0.539-0.029-1.077,0.011-1.62-0.045   c-0.513-0.053-1.041-0.001-1.563-0.015c-0.396-0.011-0.477,0.106-0.407,0.403c0.041,0.175,0.073,0.35,0.21,0.501   c0.113,0.124,0.107,0.252,0.045,0.389c-0.069,0.154-0.102,0.319-0.184,0.469c-0.298,0.548-0.435,1.16-1.079,1.575   C51.425,18.256,51.421,18.323,51.401,18.364z M48.82,18.275c0.606-0.049,1.215-0.087,1.818-0.153   c0.335-0.037,0.577-0.19,0.746-0.427c0.313-0.438,0.391-0.932,0.631-1.387c0.079-0.151,0.135-0.313,0.166-0.473   c0.075-0.394,0.029-0.732-0.495-0.99c-0.367-0.181-0.758-0.23-1.148-0.323c-0.798-0.189-1.618-0.259-2.446-0.288   c-1.049-0.036-1.709,0.31-2.054,1.052c-0.054,0.116-0.124,0.227-0.183,0.341c-0.249,0.485-0.461,0.974-0.429,1.506   c0.018,0.301,0.065,0.337,0.409,0.447c0.413,0.132,0.848,0.221,1.256,0.356C47.646,18.118,48.209,18.24,48.82,18.275z    M53.951,25.184c0.355,0.003,0.662-0.064,0.912,0.072c0.592,0.323,1.202,0.194,1.804,0.052c0.169-0.04,0.428-0.09,0.424-0.27   c-0.003-0.147-0.25-0.117-0.38-0.177c-0.061-0.028-0.133-0.051-0.177-0.09c-0.234-0.208-0.505-0.339-0.889-0.306   c-0.074,0.006-0.173-0.043-0.236-0.087c-0.374-0.258-0.784-0.293-1.254-0.162c-0.229,0.063-0.501,0.118-0.608-0.156   c-0.036-0.091-0.155-0.108-0.267-0.109c-0.114-0.001-0.223-0.01-0.274-0.098c-0.093-0.158-0.24-0.128-0.404-0.08   c-0.377,0.109-0.755,0.176-1.155,0.051c-0.204-0.064-0.394,0.019-0.561,0.096c-0.168,0.077-0.243,0.188-0.121,0.344   c0.046,0.059-0.055,0.121-0.121,0.167c-0.243,0.17-0.234,0.365-0.052,0.547c0.101,0.101,0.081,0.197,0.094,0.304   c0.026,0.231,0.116,0.293,0.419,0.246c0.31-0.048,0.642-0.063,0.913-0.212c0.137-0.075,0.301-0.134,0.456-0.1   C52.997,25.331,53.505,25.146,53.951,25.184z M43.734,15.911c0.749,0.184,0.944,0.425,0.836,1.009   c-0.017,0.094-0.029,0.189-0.032,0.284c-0.003,0.098,0.096,0.139,0.197,0.172c0.103,0.034,0.171-0.016,0.235-0.064   c0.178-0.136,0.2-0.307,0.209-0.488c0.039-0.747,0.058-1.499,0.588-2.171c0.027-0.034,0.033-0.078,0.054-0.115   c0.072-0.125,0.027-0.227-0.143-0.256c-0.35-0.06-0.667-0.185-1.028-0.233c-0.566-0.075-1.15-0.038-1.703-0.171   c-0.253-0.061-0.443,0.036-0.635,0.133c0.079,0.18,0.348,0.254,0.381,0.405c0.061,0.277,0.305,0.333,0.597,0.381   c0.1,0.016,0.219,0.022,0.293,0.126c-0.091,0.113-0.239,0.223-0.189,0.389c0.064,0.212,0.424,0.056,0.507,0.241   C43.869,15.67,43.685,15.744,43.734,15.911z M45.374,63.01c-0.476,0.149-0.499,0.147-0.529,0.318   c-0.075,0.437-0.362,0.828-0.467,1.253c-0.083,0.336-0.344,0.454-0.728,0.497c-0.601,0.067-1.194,0.117-1.81,0.019   c-0.561-0.089-1.137-0.111-1.698-0.231c-0.438-0.094-0.636-0.264-0.661-0.596c-0.01-0.129,0.015-0.291-0.144-0.381   c-0.186-0.105-0.123-0.208-0.043-0.319c0.112-0.155,0.234-0.306,0.347-0.461c0.034-0.046,0.071-0.1,0.009-0.148   c-0.058-0.046-0.134-0.032-0.202-0.013c-0.265,0.072-0.404,0.227-0.448,0.426c-0.055,0.248-0.199,0.468-0.358,0.681   c-0.423,0.564-0.11,0.719,0.398,1.006c0.07,0.039,0.167,0.051,0.249,0.079c0.706,0.245,1.482,0.219,2.225,0.301   c0.912,0.1,1.836,0.018,2.753-0.041c0.264-0.017,0.478-0.09,0.679-0.219c0.693-0.446,0.801-1.007,0.581-1.631   C45.47,63.38,45.375,63.219,45.374,63.01z M57.665,52.079c0.228-0.035,0.285-0.18,0.389-0.284c0.358-0.36,0.667-0.744,1.028-1.103   c0.622-0.619,0.56-0.376-0.096-0.971c-0.022-0.02-0.063-0.028-0.089-0.046c-0.571-0.399-1.014-0.882-1.534-1.315   c-0.117-0.097-0.168-0.24-0.253-0.36c-0.058-0.083-0.111-0.174-0.282-0.159c-0.111,0.108-0.059,0.234-0.041,0.347   c0.09,0.581,0.127,1.17,0.366,1.733c0.173,0.406,0.227,0.824,0.297,1.244C57.5,51.47,57.478,51.79,57.665,52.079z M31.992,92.284   c0.52-0.023,0.51-0.034,0.939-0.239c0.455-0.217,0.884-0.462,1.355-0.665c0.531-0.229,0.96-0.569,1.327-0.945   c0.154-0.158,0.137-0.311,0.086-0.498c-0.147-0.539-0.853-0.703-1.226-1.087c-0.051-0.053-0.17-0.05-0.24,0.011   c-0.057,0.049-0.017,0.099,0.026,0.145c0.234,0.251,0.292,0.549,0.415,0.832c0.14,0.323-0.012,0.549-0.301,0.764   c-0.372,0.277-0.789,0.515-1.171,0.782c-0.247,0.172-0.49,0.197-0.791,0.141c-0.255-0.048-0.506-0.137-0.637-0.287   c-0.23-0.265-0.511-0.181-0.806-0.144c-0.12,0.015-0.206,0.059-0.23,0.146c-0.026,0.098-0.005,0.199,0.136,0.24   c0.337,0.099,0.498,0.315,0.602,0.546C31.576,92.252,31.733,92.344,31.992,92.284z M42.995,64.505c0.115,0,0.205-0.001,0.295,0   c0.09,0.001,0.181,0.006,0.271,0.003c0.364-0.012,0.445-0.08,0.545-0.354c0.093-0.255-0.004-0.513,0.069-0.77   c0.06-0.212-0.02-0.274-0.323-0.256c-0.667,0.039-1.327,0.053-1.995-0.025c-0.371-0.043-0.795,0.376-0.67,0.646   c0.176,0.379,0.715,0.812,1.293,0.784C42.66,64.525,42.84,64.514,42.995,64.505z M57.529,62.853   c0.574-0.079,1.04-0.207,1.486-0.382c0.673-0.265,0.837-0.488,0.702-1.053c-0.086-0.362-0.211-0.719-0.234-1.089   c-0.011-0.172-0.106-0.225-0.306-0.134c-0.406,0.184-0.792,0.382-0.95,0.75c-0.1,0.233-0.248,0.455-0.331,0.69   C57.76,62.024,57.658,62.42,57.529,62.853z M26.164,58.349c-0.027,0.012-0.049,0.015-0.055,0.025   c-0.4,0.598-0.535,1.269-0.895,1.879c-0.046,0.077-0.032,0.173,0.063,0.225c0.467,0.255,0.935,0.517,1.536,0.556   c0.224,0.015,0.463-0.024,0.533-0.211c0.133-0.355,0.239-0.715,0.058-1.084c-0.061-0.123-0.131-0.203-0.325-0.234   c-0.545-0.086-0.678-0.206-0.76-0.613C26.283,58.71,26.327,58.513,26.164,58.349z M61.037,24.697   c0.172,0.084,0.342,0.147,0.544,0.148c0.774,0.002,1.546,0.063,2.322-0.028c0.765-0.09,1.453-0.294,2.092-0.62   c0.568-0.29,1.024-0.689,1.632-0.94c0.149-0.061,0.276-0.159,0.302-0.358c-0.228,0.071-0.407,0.124-0.583,0.182   c-0.613,0.202-1.161,0.496-1.76,0.717c-1.019,0.376-2.026,0.786-3.208,0.776C61.929,24.569,61.489,24.614,61.037,24.697z    M28.159,47.872c-0.472-0.116-0.876,0.163-1.331,0.308c-0.223,0.071-0.245,0.205-0.13,0.333c0.362,0.403,0.741,0.797,1.117,1.192   c0.059,0.062,0.098,0.16,0.235,0.141c0.129-0.018,0.141-0.111,0.172-0.187c0.178-0.428,0.354-0.856,0.531-1.285   C28.961,47.869,28.961,47.869,28.159,47.872z M32.401,91.18c0.032-0.008,0.092-0.012,0.13-0.036   c0.495-0.32,1.055-0.571,1.577-0.861c0.274-0.152,0.22-0.354,0.099-0.589c-0.141-0.273-0.523-0.147-0.725-0.315   c-0.07-0.058-0.179,0.133-0.301,0.187c-0.139,0.062-0.255,0.153-0.394,0.216c-0.379,0.17-0.657,0.425-0.97,0.65   c-0.101,0.072-0.211,0.156-0.166,0.284C31.692,90.836,32.223,91.173,32.401,91.18z M53.471,92.472   c-0.154-0.054-0.247-0.139-0.358-0.205c-0.562-0.331-0.9-0.807-1.367-1.198c-0.152-0.128-0.3-0.306-0.567-0.236   c-0.268,0.07-0.327,0.271-0.363,0.466c-0.036,0.193,0.071,0.333,0.248,0.469c0.453,0.348,0.953,0.643,1.512,0.891   c0.435,0.193,0.443,0.212,0.796-0.074C53.395,92.565,53.411,92.54,53.471,92.472z M50.473,92.166   c-0.111-0.427-0.087-0.84,0.004-1.253c0.041-0.187,0.058-0.348,0.393-0.349c0.166-0.001,0.191-0.102,0.119-0.209   c-0.164-0.243-0.469-0.282-0.75-0.062c-0.227,0.177-0.458,0.343-0.713,0.496c-0.255,0.153-0.296,0.362-0.144,0.586   c0.114,0.169,0.236,0.341,0.395,0.486C49.941,92.011,50.12,92.175,50.473,92.166z M52.068,93.045   c0.312,0.515,0.614,0.725,1.165,0.839c0.077,0.016,0.162,0.016,0.186-0.04c0.083-0.193,0.357-0.331,0.322-0.61   C53.102,93.535,52.667,93.091,52.068,93.045z M47.581,45.241c-0.312,0.144-0.494,0.346-0.681,0.543   c-0.054,0.057-0.065,0.119-0.003,0.188c0.156,0.174,0.474,0.266,0.716,0.169c0.23-0.093,0.474-0.193,0.574-0.441   C47.817,45.679,47.745,45.441,47.581,45.241z M57.141,36.219c-0.582,0.307-0.597,0.364-0.259,0.775   c0.085,0.104,0.146,0.219,0.229,0.323c0.06,0.075,0.085,0.19,0.269,0.163C57.572,37.042,57.475,36.632,57.141,36.219z    M48.492,18.962c0.005-0.209-0.045-0.258-0.352-0.277c-0.139-0.009-0.219-0.067-0.325-0.116c-0.219-0.103-0.364,0.01-0.491,0.138   c-0.136,0.137,0.026,0.189,0.124,0.26c0.144,0.105,0.317,0.176,0.494,0.245C48.274,19.34,48.486,19.246,48.492,18.962z    M57.402,32.713c-0.212,0.234-0.229,0.449-0.219,0.666c0.007,0.167,0.045,0.363,0.28,0.397c0.229,0.033,0.369-0.14,0.475-0.282   c0.066-0.089,0.199-0.207,0.063-0.292C57.783,33.066,57.652,32.87,57.402,32.713z M39.344,18.357   c-0.367-0.028-0.544,0.149-0.726,0.307c-0.092,0.08-0.182,0.184-0.155,0.291c0.035,0.14,0.224-0.017,0.308,0.065   c0.021,0.021,0.053,0.036,0.076,0.056c0.202,0.173,0.322,0.048,0.387-0.081C39.333,18.794,39.337,18.579,39.344,18.357z    M46.572,21.596c0.386-0.008,0.591-0.12,0.667-0.373c0.023-0.076,0.066-0.166-0.042-0.224c-0.091-0.049-0.215-0.065-0.307-0.026   c-0.186,0.079-0.365,0.172-0.53,0.275c-0.094,0.059-0.174,0.15-0.113,0.25C46.308,21.598,46.44,21.606,46.572,21.596z    M44.85,45.878c-0.615-0.395-0.697-0.404-1.226-0.172c-0.082,0.036-0.152,0.071-0.127,0.154c0.022,0.072,0.083,0.128,0.176,0.136   C44.055,46.025,44.437,46.036,44.85,45.878z M57.031,29.86c-0.33,0.372-0.361,0.616-0.131,0.847   c0.111,0.112,0.241,0.104,0.335-0.019C57.425,30.439,57.357,30.134,57.031,29.86z M38.297,40.852   c0.013,0.044,0.023,0.112,0.056,0.174c0.029,0.054,0.097,0.081,0.176,0.053c0.278-0.099,0.415-0.611,0.222-0.805   c-0.095-0.095-0.201-0.071-0.255,0.008C38.379,40.451,38.321,40.637,38.297,40.852z M68.304,22.373   c-0.025-0.144-0.036-0.303-0.275-0.344c-0.114-0.019-0.485,0.324-0.439,0.413c0.083,0.159,0.32,0.16,0.489,0.185   C68.301,22.659,68.283,22.491,68.304,22.373z M57.639,35.174c0.272-0.176,0.344-0.338,0.402-0.506   c0.044-0.128,0.002-0.242-0.131-0.329c-0.078-0.051-0.161-0.117-0.279-0.061c-0.088,0.042-0.095,0.114-0.074,0.18   C57.623,34.667,57.674,34.878,57.639,35.174z M40.857,8.916c0.302-0.002,0.523-0.111,0.531-0.286   c0.009-0.21-0.232-0.168-0.384-0.184c-0.168-0.017-0.407,0.18-0.405,0.316C40.6,8.871,40.681,8.933,40.857,8.916z M60.821,24.044   c-0.119,0.027-0.259-0.009-0.295,0.094c-0.034,0.096,0.089,0.134,0.172,0.182c0.128,0.074,0.246,0.161,0.426,0.154   c0.145-0.005,0.33,0.005,0.374-0.111c0.056-0.146-0.125-0.204-0.278-0.243C61.086,24.086,60.944,24.067,60.821,24.044z    M42.188,43.774c-0.176,0.058-0.306,0.1-0.435,0.144c-0.197,0.066-0.122,0.184-0.073,0.278c0.062,0.12,0.078,0.284,0.31,0.299   c0.104,0.007,0.155-0.067,0.164-0.137C42.176,44.184,42.235,44.01,42.188,43.774z M38.236,21.857   c-0.2-0.017-0.344,0.015-0.38,0.167c-0.029,0.122,0.169,0.26,0.382,0.276c0.154,0.011,0.329-0.124,0.325-0.26   C38.558,21.865,38.358,21.888,38.236,21.857z M43.198,33.251c-0.582,0.036-0.874,0.191-1.188,0.645   C42.382,33.619,42.876,33.572,43.198,33.251z M57.449,28.844c0.367-0.327,0.384-0.446,0.155-0.764   C57.387,28.302,57.446,28.542,57.449,28.844z M56.123,47.436c0.002-0.12-0.092-0.207-0.194-0.281   c-0.098-0.07-0.157-0.248-0.31-0.184c-0.195,0.081,0.036,0.176,0.07,0.265c0.035,0.091,0.073,0.183,0.128,0.267   c0.039,0.06,0.112,0.114,0.215,0.072C56.1,47.549,56.122,47.493,56.123,47.436z M38.043,19.752   c-0.499,0.223-0.515,0.249-0.382,0.562C37.888,20.162,37.974,19.963,38.043,19.752z M40.021,21.591   c-0.101-0.053-0.19-0.025-0.274-0.014c-0.141,0.019-0.287,0.045-0.32,0.173c-0.007,0.028,0.037,0.084,0.073,0.093   c0.153,0.04,0.314,0.065,0.439-0.045C39.996,21.747,40.043,21.689,40.021,21.591z M36.946,28.873   c0.334-0.228,0.388-0.464,0.254-0.809C36.989,28.346,36.966,28.588,36.946,28.873z M33.199,32.169   c0.174-0.139,0.471-0.226,0.433-0.516C33.305,31.758,33.186,31.928,33.199,32.169z M53.382,62.096   c0.514-0.348,0.549-0.397,0.534-0.703C53.671,61.579,53.478,61.76,53.382,62.096z M37.835,33.23   c-0.103,0.138-0.094,0.255-0.044,0.373c0.034,0.079,0.082,0.163,0.22,0.132c0.12-0.027,0.175-0.114,0.115-0.192   C38.051,33.444,38.051,33.304,37.835,33.23z M42.943,15.035c-0.049-0.094-0.133-0.168-0.269-0.15   c-0.15,0.02-0.235,0.127-0.248,0.226c-0.013,0.1,0.133,0.104,0.234,0.109C42.831,15.229,42.914,15.155,42.943,15.035z    M63.813,24.119c0.107-0.01,0.245-0.024,0.256-0.144c0.007-0.086-0.103-0.099-0.193-0.103c-0.114-0.005-0.22,0.011-0.232,0.118   C63.636,24.066,63.676,24.12,63.813,24.119z M52.73,42.165c-0.263,0.12-0.498,0.262-0.593,0.596   C52.446,42.551,52.662,42.405,52.73,42.165z M41.653,11.756c0-0.011-0.047-0.034-0.1-0.041c-0.137-0.016-0.28,0.121-0.268,0.252   c0.004,0.044,0.03,0.076,0.093,0.082C41.503,12.061,41.668,11.91,41.653,11.756z M51.285,44.732   c-0.184,0.057-0.356,0.124-0.46,0.366C51.096,44.971,51.243,44.892,51.285,44.732z M64.568,23.803   c0.102-0.013,0.214-0.031,0.194-0.143c-0.011-0.064-0.088-0.083-0.162-0.078c-0.113,0.008-0.217,0.037-0.202,0.144   C64.408,23.792,64.487,23.8,64.568,23.803z M41.785,17.216c-0.244,0.072-0.363,0.15-0.388,0.328   C41.627,17.5,41.747,17.425,41.785,17.216z M27.234,42.482c0.171-0.001,0.271-0.044,0.292-0.149   c0.013-0.063-0.062-0.099-0.131-0.09c-0.121,0.017-0.236,0.059-0.232,0.173C27.164,42.455,27.209,42.482,27.234,42.482z    M44.429,34.375c0.085-0.01,0.086-0.069,0.094-0.118c0.018-0.115-0.084-0.128-0.199-0.123c-0.073,0.004-0.146,0.027-0.126,0.093   C44.224,34.308,44.305,34.359,44.429,34.375z M43.343,16.695c-0.008,0.05,0.03,0.078,0.079,0.091   c0.126,0.032,0.207-0.01,0.242-0.102c0.015-0.041-0.003-0.087-0.061-0.096C43.48,16.569,43.403,16.625,43.343,16.695z    M49.059,22.208c-0.024-0.034-0.028-0.049-0.04-0.056c-0.088-0.056-0.184-0.073-0.283-0.02c-0.023,0.012-0.045,0.056-0.035,0.066   c0.06,0.058,0.149,0.053,0.234,0.045C48.967,22.24,48.998,22.225,49.059,22.208z M56.335,63.364   c0.153-0.025,0.248-0.094,0.231-0.224c-0.005-0.036-0.034-0.083-0.107-0.061c-0.124,0.037-0.204,0.104-0.223,0.207   C56.227,63.336,56.27,63.355,56.335,63.364z M32.569,29.192c0.129-0.042,0.149-0.132,0.127-0.229   c-0.008-0.035-0.054-0.067-0.115-0.036c-0.095,0.049-0.143,0.118-0.128,0.205C32.46,29.171,32.488,29.205,32.569,29.192z    M51.104,22.236c0.103-0.004,0.154-0.055,0.179-0.121c0.019-0.049-0.023-0.075-0.083-0.072c-0.093,0.006-0.164,0.04-0.178,0.117   C51.012,22.206,51.042,22.232,51.104,22.236z M40.719,17.975c0.097-0.067,0.21-0.129,0.159-0.252   C40.726,17.77,40.677,17.855,40.719,17.975z M39.663,6.116c0.078-0.028,0.156-0.06,0.132-0.14   c-0.003-0.011-0.064-0.026-0.087-0.019c-0.08,0.024-0.158,0.057-0.134,0.137C39.577,6.106,39.632,6.109,39.663,6.116z    M41.011,9.296c-0.007-0.042-0.025-0.08-0.093-0.069c-0.072,0.011-0.121,0.052-0.138,0.103c-0.018,0.054,0.042,0.063,0.093,0.058   C40.941,9.38,41.004,9.36,41.011,9.296z M39.676,18.621c0.032-0.012,0.049-0.017,0.063-0.025c0.085-0.054,0.141-0.119,0.108-0.206   c-0.005-0.015-0.057-0.034-0.077-0.029c-0.121,0.032-0.138,0.109-0.129,0.193C39.641,18.567,39.653,18.579,39.676,18.621z    M60.409,94.181c-0.017-0.019-0.033-0.054-0.052-0.055c-0.103-0.005-0.089,0.062-0.097,0.108c-0.003,0.019,0.028,0.059,0.038,0.058   C60.381,94.284,60.396,94.232,60.409,94.181z M56.063,62.666c-0.039,0.069-0.082,0.126-0.101,0.187   c-0.006,0.021,0.051,0.028,0.083,0.002C56.109,62.804,56.14,62.749,56.063,62.666z M50.551,22.395   c-0.012-0.023-0.02-0.063-0.038-0.066c-0.084-0.014-0.129,0.029-0.164,0.081c-0.023,0.034-0.015,0.057,0.034,0.062   C50.464,22.48,50.521,22.453,50.551,22.395z"/><path fill="#dd9900" xmlns="http://www.w3.org/2000/svg" d="M68.668,96.474c-0.089,0-0.164-0.012-0.229,0.002c-0.668,0.145-1.204-0.062-1.692-0.369   c-0.253-0.159-0.43-0.359-0.441-0.629c-0.016-0.394-0.086-0.789,0.076-1.2c-0.281-0.121-0.594-0.156-0.912-0.199   c-1.212-0.164-2.404-0.378-3.455-0.898c-0.03-0.015-0.063-0.035-0.096-0.037c-0.586-0.038-0.864-0.403-1.235-0.666   c-0.301-0.214-0.617-0.415-0.928-0.619c-0.459-0.3-0.849-0.672-1.138-1.079c-0.208-0.292-0.513-0.523-0.74-0.798   c-0.601-0.729-1.164-1.48-1.497-2.303c-0.294-0.725-0.513-1.454-0.34-2.246c0.295-1.343,1.107-2.462,2.304-3.445   c0.601-0.493,1.136-1.022,1.599-1.593c0.379-0.467,0.457-0.931,0.006-1.41c-0.325-0.345-0.398-0.755-0.42-1.168   c-0.005-0.092,0.006-0.172,0.176-0.083c0.1,0.052,0.151-0.031,0.205-0.083c0.733-0.717,1.679-1.215,2.786-1.552   c0.708-0.215,1.385-0.09,2.046,0.109c0.309,0.093,0.615,0.158,0.943,0.148c0.421-0.013,0.815,0.107,1.231,0.126   c0.71,0.032,1.345-0.187,2.007-0.309c0.964-0.178,1.91-0.422,2.883-0.562c0.755-0.108,1.535-0.191,2.315-0.086   c0.106,0.014,0.215,0.022,0.323,0.022c1.315-0.006,2.399,0.405,3.322,1.076c0.456,0.332,0.993,0.587,1.44,0.925   c0.137,0.104,0.333,0.112,0.509,0.118c0.54,0.018,1.077,0.076,1.621,0.052c0.529-0.023,1.027,0.137,1.548,0.175   c0.17,0.012,0.302,0.141,0.424,0.243c0.144,0.12,0.266,0.255,0.472,0.33c0.134,0.049,0.17,0.159,0.217,0.268   c0.128,0.293,0.162,0.606,0.379,0.88c0.121,0.153,0.081,0.36,0.035,0.516c-0.152,0.515-0.068,1.071-0.331,1.55   c-0.27,0.491-0.328,1.071-0.921,1.449c-0.069,0.044-0.134,0.1-0.135,0.172c-0.005,0.343-0.273,0.614-0.445,0.909   c-0.332,0.572-0.38,1.111,0.076,1.673c0.366,0.451,0.695,0.928,0.953,1.419c0.432,0.821,0.394,1.654-0.102,2.462   c-0.352,0.571-0.833,1.066-1.419,1.526c-0.883,0.694-1.919,1.179-3.08,1.538c-0.733,0.227-1.44,0.508-2.237,0.601   c-0.086,0.01-0.168,0.048-0.248,0.079c-0.027,0.01-0.039,0.041-0.06,0.064c0.045,0.122,0.183,0.109,0.305,0.117   c0.517,0.032,0.981,0.15,1.359,0.436c0.152,0.115,0.331,0.212,0.511,0.302c0.294,0.147,0.357,0.363,0.35,0.605   c-0.018,0.615-0.528,0.959-1.193,1.202c-0.223,0.082-0.481,0.119-0.729,0.15c-0.445,0.056-0.895,0.094-1.343,0.136   c-0.399,0.037-0.79,0.009-1.183-0.058c-0.489-0.083-0.482-0.068-0.756,0.255c-0.316,0.373-0.753,0.662-1.228,0.914   c-0.429,0.227-0.872,0.44-1.326,0.637c-0.61,0.264-1.297,0.321-1.982,0.374c-0.601,0.046-1.23-0.541-1.124-1.039   c0.064-0.301,0.161-0.584,0.42-0.826C68.621,96.701,68.714,96.627,68.668,96.474z M82.254,83.581   c-0.5,0.273-1.026,0.292-1.535,0.349c-0.509,0.057-0.98,0.172-1.403,0.402c-0.589,0.32-1.252,0.54-1.912,0.761   c-0.657,0.22-1.281,0.125-1.842-0.164c-0.692-0.357-1.4-0.445-2.204-0.254c-0.742,0.176-1.447,0.42-2.174,0.622   c-0.285,0.08-0.544,0.084-0.837-0.004c-0.511-0.155-0.967-0.369-1.369-0.645c-0.243-0.166-0.5-0.314-0.777-0.442   c-0.187-0.087-0.389-0.153-0.617-0.104c-0.552,0.118-1.116,0.072-1.672,0.053c-0.558-0.019-1.11-0.083-1.552-0.402   c-0.313-0.226-0.499-0.535-0.867-0.722c-0.076-0.039-0.067-0.122-0.079-0.19c-0.021-0.122-0.044-0.243-0.077-0.363   c-0.141-0.521-0.293-1.036-0.172-1.578c0.056-0.254-0.096-0.483-0.4-0.629c-0.213-0.102-0.416-0.212-0.643-0.301   c-0.323-0.126-0.664-0.208-0.999-0.307c-0.407-0.12-0.403-0.137-0.418,0.194c-0.012,0.258-0.018,0.509-0.201,0.749   c-0.425,0.558-0.9,1.088-1.498,1.547c-0.627,0.481-1.098,1.043-1.552,1.616c-0.489,0.616-0.739,1.293-0.865,1.999   c-0.012,0.067-0.023,0.14,0.001,0.203c0.124,0.317,0.122,0.647,0.171,0.97c0.054,0.358,0.181,0.684,0.389,1.009   c0.351,0.548,0.938,1.005,1.099,1.626c0.016,0.063,0.073,0.143,0.183,0.115c0.243-0.064,0.256,0.065,0.319,0.182   c0.074,0.138,0.185,0.265,0.283,0.395c0.547,0.729,1.27,1.363,2.071,1.924c0.684,0.48,1.392,1.018,2.472,0.971   c0.138-0.006,0.296,0.02,0.419,0.068c0.734,0.283,1.559,0.336,2.323,0.538c0.206,0.055,0.436,0.125,0.63,0.032   c0.42-0.201,0.921-0.229,1.355-0.395c0.382-0.146,0.799-0.165,1.218-0.154c0.19,0.005,0.38,0.03,0.587,0.048   c0.056-0.188,0.001-0.349-0.002-0.51c-0.003-0.186-0.061-0.394,0.141-0.545c0.175-0.13,0.259-0.288,0.35-0.453   c0.169-0.306,0.529-0.436,0.961-0.385c0.39,0.046,0.705,0.198,1.01,0.372c0.74,0.421,1.414,0.89,1.881,1.504   c0.072,0.095,0.162,0.154,0.304,0.118c0.446-0.114,0.933-0.068,1.373-0.213c0.462-0.153,0.949-0.249,1.436-0.35   c1.736-0.359,3.153-1.133,4.453-2.033c0.376-0.261,0.747-0.576,0.859-0.976c0.123-0.438,0.186-0.886,0.254-1.331   c0.08-0.518-0.128-1.004-0.476-1.426c-0.45-0.547-0.882-1.084-0.964-1.742c-0.05-0.397-0.08-0.781,0.259-1.136   C82.094,84.042,82.236,83.858,82.254,83.581z M75.01,83.867c0.135,0.157,0.412,0.166,0.508,0.312   c0.143,0.217,0.412,0.277,0.669,0.298c1.06,0.087,2.073-0.08,2.926-0.554c0.7-0.389,1.421-0.64,2.289-0.617   c0.541,0.015,0.932-0.17,1.24-0.485c0.217-0.222,0.381-0.462,0.445-0.737c0.081-0.351,0.237-0.683,0.427-1.008   c0.134-0.228,0.161-0.46,0.126-0.715c-0.065-0.474-0.303-0.9-0.595-1.301c-0.413-0.567-0.994-0.951-1.961-0.865   c-0.294,0.026-0.618,0.095-0.906,0.029c-0.315-0.072-0.633-0.101-0.952-0.145c-0.537-0.074-0.983-0.252-1.23-0.653   c-0.138-0.224-0.364-0.405-0.641-0.541c-0.124-0.061-0.241-0.13-0.308-0.225c-0.125-0.177-0.344-0.237-0.571-0.279   c-0.212-0.039-0.409-0.108-0.617-0.151c-0.977-0.203-1.954-0.336-2.988-0.227c-1.079,0.114-2.099,0.385-3.152,0.566   c-0.668,0.115-1.324,0.27-2.009,0.329c-0.728,0.063-1.424-0.043-2.113-0.204c-0.206-0.048-0.411-0.11-0.622-0.132   c-1.2-0.122-2.275,0.066-3.235,0.665c-0.493,0.308-0.69,0.72-0.948,1.12c-0.029,0.044-0.038,0.117-0.009,0.158   c0.205,0.294,0.331,0.642,0.818,0.759c0.549,0.132,1.1,0.259,1.653,0.382c0.207,0.046,0.322-0.021,0.279-0.189   c-0.074-0.285,0.071-0.492,0.338-0.69c0.857-0.638,1.918-0.86,3.068-0.816c0.714,0.027,1.426,0.152,2.125,0.275   c0.282,0.05,0.372-0.002,0.4-0.184c0.022-0.142,0.096-0.261,0.21-0.37c0.512-0.486,1.116-0.873,1.89-1.118   c0.449-0.142,0.885-0.141,1.323-0.062c0.678,0.121,0.874,0.364,0.835,0.885c-0.014,0.188-0.119,0.364-0.132,0.556   c0.232,0.019,0.361-0.091,0.512-0.152c0.865-0.355,1.739-0.474,2.691-0.174c0.767,0.241,1.165,0.814,0.904,1.411   c-0.027,0.061-0.101,0.118-0.029,0.192c0.166,0.029,0.249-0.085,0.371-0.129c0.588-0.214,1.184-0.414,1.851-0.411   c0.28,0.001,0.537,0.005,0.687-0.244c0.226,0.249,0.193,0.509,0.344,0.731c0.382,0.559,0.313,0.78-0.296,1.225   c-0.393,0.287-0.746,0.612-1.351,0.801c0.589,0.267,0.724,0.679,0.899,1.059c0.095,0.207,0.173,0.441,0.061,0.677   c-0.213,0.449-0.723,0.598-1.259,0.666c-0.681,0.086-1.369,0.089-1.964-0.261c-0.082-0.048-0.198-0.063-0.296-0.096   c-0.107-0.036-0.201-0.037-0.298,0.027C76.007,83.522,75.508,83.682,75.01,83.867z M74.539,83.935   c-0.309-0.162-0.672-0.184-0.965-0.349c-0.455-0.256-0.468-0.243-0.912-0.01c-0.059,0.031-0.114,0.069-0.179,0.093   c-0.695,0.256-1.368,0.538-2.204,0.429c-0.441-0.058-0.683-0.223-0.798-0.521c-0.234-0.605-0.046-1.152,0.425-1.658   c0.107-0.115,0.303-0.19,0.322-0.373c-0.379-0.016-0.611,0.059-0.75,0.351c-0.289,0.609-0.657,0.757-1.514,0.789   c-0.655,0.024-1.159-0.124-1.638-0.474c-0.655-0.478-1.208-0.973-1.231-1.696c-0.006-0.199-0.094-0.293-0.366-0.323   c-0.226-0.025-0.441-0.088-0.642-0.198c-0.149-0.082-0.309-0.314-0.528-0.165c-0.2,0.136,0.034,0.298,0.12,0.439   c0.244,0.401,0.472,0.824,0.325,1.26c-0.186,0.549-0.043,1.012,0.384,1.456c0.484,0.504,1.148,0.795,1.945,0.693   c0.578-0.074,1.146-0.063,1.717-0.098c0.378-0.023,0.664,0.093,0.914,0.286c0.138,0.107,0.293,0.207,0.404,0.328   c0.48,0.525,1.686,0.706,2.389,0.396c0.373-0.165,0.791-0.26,1.207-0.355C73.479,84.119,73.986,83.987,74.539,83.935z    M72.081,95.652c-1.02-0.022-1.773,0.291-2.461,0.704c-0.338,0.203-0.613,0.461-0.848,0.738c-0.243,0.286-0.073,0.745,0.336,0.809   c0.757,0.118,1.495,0.184,2.192-0.161c0.21-0.104,0.448-0.177,0.671-0.266c0.485-0.193,0.92-0.434,1.265-0.758   c0.438-0.413,0.179-0.93-0.499-1.004C72.487,95.686,72.24,95.636,72.081,95.652z M75.969,96.18c0.376-0.05,0.78-0.043,1.155-0.148   c0.642-0.18,1.204-0.417,1.383-0.984c0.062-0.198,0.006-0.312-0.204-0.408c-0.322-0.148-0.639-0.304-0.966-0.446   c-0.552-0.239-1.169-0.265-1.78-0.25c-0.405,0.01-0.525,0.134-0.548,0.436c-0.009,0.124-0.053,0.238-0.097,0.356   c-0.142,0.383-0.506,0.615-0.928,0.812c-0.089,0.041-0.207,0.063-0.22,0.161c-0.017,0.138,0.276,0.375,0.474,0.356   c0.457-0.045,0.896,0.031,1.34,0.085C75.703,96.165,75.829,96.169,75.969,96.18z M66.658,80.145   c0.363,0.081,0.803-0.072,1.231-0.202c0.505-0.154,0.948-0.398,1.212-0.775c0.225-0.32,0.021-0.587-0.449-0.605   c-0.118-0.004-0.203-0.042-0.3-0.075c-0.254-0.088-0.499-0.204-0.766-0.253c-0.994-0.181-1.917-0.099-2.724,0.439   c-0.278,0.185-0.48,0.356-0.405,0.654c0.079,0.315,0.258,0.562,0.691,0.662C65.599,80.095,66.055,80.173,66.658,80.145z    M74.751,81.527c0.066-0.005,0.225,0.04,0.343-0.042c0.117-0.082,0.228-0.111,0.396-0.137c0.571-0.087,0.932-0.645,0.727-1.059   c-0.204-0.411-0.701-0.637-1.088-0.931c-0.031-0.024-0.103-0.017-0.156-0.024c-0.266-0.036-0.537-0.059-0.798-0.11   c-0.517-0.101-0.958,0.037-1.39,0.224c-0.114,0.049-0.214,0.11-0.245,0.208c-0.088,0.277-0.19,0.554-0.238,0.835   c-0.03,0.172,0.001,0.38,0.272,0.444c0.232,0.055,0.411,0.168,0.622,0.242C73.669,81.343,74.126,81.55,74.751,81.527z    M78.362,83.339c0.162-0.005,0.288-0.006,0.414-0.014c0.606-0.039,1.153-0.544,1.035-0.999c-0.141-0.543-0.64-1.051-1.458-1.092   c-0.888-0.044-1.756,0.07-2.559,0.389c-0.226,0.09-0.242,0.177-0.115,0.353c0.365,0.504,0.849,0.887,1.543,1.148   C77.608,83.268,77.968,83.38,78.362,83.339z M68.882,93.639c-0.546,0.007-0.821,0.164-0.934,0.515   c-0.029,0.091-0.077,0.159-0.197,0.162c-0.402,0.011-0.481,0.296-0.706,0.457c-0.344,0.246-0.004,0.447,0.065,0.664   c0.029,0.091,0.102,0.173,0.159,0.258c0.208,0.315,0.313,0.349,0.765,0.288c0.902-0.122,1.704-0.422,2.473-0.781   c0.169-0.079,0.322-0.175,0.378-0.331c0.11-0.308-0.219-0.852-0.604-1.012C69.822,93.668,69.297,93.738,68.882,93.639z    M73.691,95.075c0.578,0,0.729-0.124,0.698-0.526c-0.01-0.123-0.032-0.241-0.095-0.358c-0.164-0.303-0.347-0.6-0.589-0.87   c-0.504-0.562-1.121-1.029-1.985-1.276c-0.138-0.04-0.29-0.103-0.401-0.004c-0.232,0.206-0.553,0.375-0.455,0.72   c0.057,0.2,0.084,0.398,0.216,0.583c0.345,0.484,0.811,0.903,1.315,1.287C72.747,94.898,73.203,95.093,73.691,95.075z    M70.953,83.408c0.493,0.116,0.962-0.086,1.438-0.245c0.521-0.174,0.859-0.485,1.064-0.881c0.149-0.289-0.019-0.546-0.23-0.758   c-0.155-0.156-0.449-0.289-0.716-0.209c-0.31,0.093-0.629,0.111-0.94,0.172c-0.638,0.125-1.117,0.43-1.526,0.805   c-0.131,0.12-0.198,0.262-0.167,0.419C69.985,83.273,69.88,83.552,70.953,83.408z M67.919,82.425   c0.403,0.002,0.727-0.114,0.944-0.385c0.199-0.249,0.18-0.478-0.035-0.722c-0.297-0.337-0.587-0.676-0.917-0.997   c-0.125-0.122-0.262-0.134-0.426-0.098c-0.525,0.117-1.05,0.153-1.6,0.107c-0.412-0.035-0.516,0.099-0.357,0.404   c0.131,0.253,0.277,0.504,0.456,0.739C66.41,82.032,66.997,82.424,67.919,82.425z M72.431,79.121   c0.315,0.001,0.494-0.061,0.677-0.108c0.366-0.095,0.733-0.104,1.119-0.069c0.627,0.057,1.187,0.222,1.695,0.498   c0.144,0.078,0.286,0.198,0.481,0.1c0.269-0.135,0.557-0.255,0.748-0.465c0.394-0.431,0.216-0.925-0.411-1.156   c-0.264-0.097-0.537-0.134-0.83-0.157c-0.601-0.047-1.134,0.077-1.671,0.256C73.533,78.257,72.967,78.611,72.431,79.121z    M69.396,80.537c-0.035,0.067-0.031,0.148-0.011,0.229c0.022,0.093,0.029,0.189,0.064,0.28c0.097,0.256,0.156,0.282,0.504,0.2   c0.24-0.057,0.486-0.115,0.702-0.208c0.389-0.169,0.86-0.339,0.962-0.675c0.101-0.335,0.238-0.648,0.429-0.953   c0.116-0.186,0.002-0.317-0.175-0.425c-0.302-0.184-0.732-0.181-1.035,0.02c-0.115,0.076-0.222,0.13-0.372,0.142   c-0.191,0.016-0.321,0.11-0.455,0.204C69.558,79.671,69.369,80.065,69.396,80.537z M78.295,80.929   c0.115,0.008,0.307-0.025,0.474-0.115c0.457-0.243,0.895-0.502,1.271-0.819c0.237-0.199,0.29-0.43,0.305-0.678   c0.012-0.196-0.128-0.302-0.357-0.359c-0.159-0.039-0.319-0.022-0.481-0.007c-0.953,0.087-1.668,0.478-2.279,1.005   c-0.086,0.074-0.139,0.151-0.131,0.257c0.041,0.567,0.089,0.608,0.84,0.677C78.027,80.897,78.116,80.909,78.295,80.929z    M72.207,76.871c-1.081-0.033-1.705,0.464-2.258,1.045c-0.087,0.092-0.139,0.22-0.022,0.303c0.193,0.136,0.393,0.299,0.671,0.314   c0.501,0.028,0.983-0.144,1.491-0.103c0.045,0.004,0.102-0.027,0.143-0.052c0.38-0.23,0.759-0.462,0.983-0.801   c0.072-0.11,0.128-0.225,0.131-0.351c0.004-0.139-0.048-0.244-0.253-0.264C72.791,76.931,72.495,76.856,72.207,76.871z    M74.529,83.489c0.536,0.008,0.732-0.034,1.118-0.22c0.512-0.246,0.523-0.251,0.195-0.624c-0.418-0.475-0.781-1.016-1.723-0.957   c-0.016,0.001-0.034-0.008-0.051-0.013c-0.223-0.054-0.302,0.024-0.289,0.182c0.008,0.096,0.028,0.187,0.13,0.26   c0.177,0.126,0.141,0.264,0.034,0.408c-0.071,0.095-0.14,0.192-0.188,0.294c-0.134,0.288,0.051,0.555,0.442,0.634   C74.336,83.481,74.482,83.484,74.529,83.489z M69.22,79.616c-0.296,0.034-0.465,0.173-0.647,0.297   c-0.08,0.055-0.124,0.144-0.006,0.207c0.095,0.051,0.219,0.052,0.286-0.026C68.987,79.94,69.099,79.776,69.22,79.616z    M76.889,79.742c-0.206,0.007-0.351,0.083-0.431,0.225c-0.024,0.042,0.04,0.08,0.09,0.081c0.22,0.003,0.281-0.133,0.359-0.251   C76.912,79.79,76.901,79.776,76.889,79.742z M71.607,94.907c-0.075,0.032-0.066,0.088-0.065,0.138   c0.002,0.087,0.036,0.165,0.173,0.167c0.066,0.001,0.17-0.011,0.192-0.043c0.062-0.09-0.055-0.142-0.121-0.2   C71.739,94.929,71.69,94.888,71.607,94.907z M71.355,81.098c0.203,0.029,0.398,0.029,0.528-0.11   c0.03-0.032,0.009-0.093-0.043-0.102C71.611,80.848,71.486,80.972,71.355,81.098z M70.211,78.793   c-0.044-0.116-0.143-0.178-0.306-0.166c-0.052,0.004-0.087,0.06-0.06,0.095C69.926,78.828,70.039,78.879,70.211,78.793z    M69.772,79.129c-0.002-0.053-0.026-0.084-0.078-0.096c-0.068-0.016-0.095,0.023-0.1,0.061c-0.006,0.043-0.033,0.112,0.077,0.1   C69.711,79.189,69.743,79.148,69.772,79.129z"/><path fill="#dd9900" d="M44.826,56.321c-0.037,0.162-0.153,0.31-0.366,0.405c-0.19,0.085-0.363,0.036-0.465-0.093   c-0.158-0.199-0.229-0.427-0.285-0.653c-0.027-0.105,0.043-0.216,0.164-0.288c0.053-0.031,0.127-0.056,0.193-0.059   C44.19,55.631,44.831,56.2,44.826,56.321z"/><path fill="#dd9900" d="M43.482,50.808c-0.262,0.049-0.391-0.015-0.391-0.219c0-0.176-0.091-0.348-0.052-0.527   c0.025-0.115,0.098-0.211,0.253-0.241c0.157-0.031,0.208,0.066,0.278,0.149c0.087,0.103,0.197,0.194,0.3,0.289   c0.133,0.122,0.223,0.249,0.114,0.409C43.87,50.834,43.674,50.832,43.482,50.808z"/><path fill="#dd9900" d="M42.994,47.55c-0.021,0.154-0.294,0.379-0.493,0.395c-0.257,0.021-0.331-0.134-0.42-0.266   c-0.088-0.132-0.207-0.26-0.098-0.422c0.108-0.161,0.392-0.303,0.555-0.269C42.754,47.034,43.02,47.361,42.994,47.55z"/><path fill="#dd9900" d="M43.998,54.07c-0.246-0.404,0.03-0.743,0.218-1.082c0.075-0.136,0.251-0.131,0.394-0.012   c0.372,0.308,0.315,0.652-0.171,0.866C44.295,53.904,44.244,54.042,43.998,54.07z"/><path fill="#dd9900" d="M42.969,59.308c0.034-0.257,0.13-0.503,0.322-0.722c0.08-0.092,0.183-0.183,0.351-0.097   c0.128,0.065,0.321,0.11,0.263,0.269c-0.097,0.264-0.252,0.509-0.523,0.7c-0.08,0.057-0.186,0.086-0.298,0.058   C42.947,59.482,42.978,59.39,42.969,59.308z"/><path fill="#dd9900" d="M41.819,61.964c-0.183,0.002-0.29-0.063-0.292-0.192c-0.002-0.111,0.054-0.221,0.175-0.287   c0.241-0.13,0.418-0.291,0.531-0.498c0.043-0.078,0.141-0.138,0.259-0.107c0.136,0.035,0.104,0.137,0.075,0.208   c-0.094,0.233-0.195,0.466-0.377,0.669C42.102,61.857,41.991,61.954,41.819,61.964z"/><path fill="#dd9999" d="M50.967,32.846c0.981-0.007,2.29-0.367,2.681-1.101c0.281-0.526,0.23-1.031-0.162-1.515   c-0.019-0.023-0.047-0.043-0.061-0.068c-0.42-0.733-1.31-0.852-2.206-0.961c-0.087-0.011-0.188,0.019-0.267-0.003   c-0.996-0.272-2.041-0.447-2.972-0.849c-0.249-0.108-0.433-0.246-0.446-0.476c-0.01-0.184,0.115-0.256,0.336-0.187   c0.131,0.041,0.258,0.091,0.349,0.185c0.325,0.335,0.762,0.53,1.312,0.569c0.312,0.022,0.555,0.177,0.863,0.226   c0.546,0.087,1.092,0.17,1.637,0.256c1.806,0.285,2.792,1.594,1.967,2.973c-0.427,0.714-1.216,1.052-2.188,1.191   c-0.852,0.121-1.686,0.086-2.492-0.186c-0.31-0.104-0.641-0.173-0.96-0.263c-0.644-0.181-1.069-0.529-1.479-0.91   c-0.117-0.108-0.208-0.229-0.226-0.364c-0.025-0.196-0.174-0.232-0.372-0.179c-0.283,0.075-0.568,0.069-0.855,0.051   c-0.43-0.026-0.539-0.122-0.533-0.438c0.008-0.467,0.296-0.834,0.731-1.144c0.17-0.121,0.359-0.229,0.548-0.333   c0.257-0.141,0.46-0.285,0.437-0.564c-0.016-0.187,0.235-0.304,0.489-0.282c0.153,0.013,0.233,0.081,0.208,0.193   c-0.045,0.203-0.112,0.402-0.323,0.55c-0.316,0.223-0.597,0.472-0.957,0.662c-0.322,0.169-0.549,0.396-0.523,0.717   c0.019,0.229,0.138,0.326,0.436,0.325c0.339-0.001,0.649-0.061,0.801-0.33c0.143-0.253,0.448-0.386,0.722-0.538   c0.085-0.047,0.209-0.077,0.294,0.004c0.096,0.091,0.262,0.162,0.2,0.312c-0.037,0.09-0.121,0.139-0.241,0.131   c-0.382-0.023-0.483,0.197-0.596,0.394c-0.126,0.22-0.052,0.444,0.121,0.621c0.255,0.261,0.548,0.488,0.953,0.647   c0.593,0.233,1.187,0.441,1.84,0.565C50.35,32.789,50.673,32.795,50.967,32.846z"/><path fill="#884400" d="M41.511,22.372c0.374,0.022,0.721-0.038,1.02-0.212c0.188-0.109,0.401-0.14,0.613-0.11c0.484,0.069,0.966,0.048,1.45,0.021   c0.409-0.023,0.786,0.086,1.154,0.19c0.387,0.108,0.751,0.262,1.127,0.392c0.104,0.036,0.216,0.091,0.225,0.165   c0.035,0.306,0.158,0.61,0.074,0.919c-0.037,0.136-0.157,0.249-0.326,0.312c-0.192,0.072-0.375,0.163-0.596,0.189   c-0.729,0.085-1.458,0.173-2.187,0.26c-0.13,0.015-0.26,0-0.37-0.043c-0.401-0.157-0.831-0.151-1.265-0.168   c-0.502-0.019-0.999-0.088-1.488-0.186c-0.683-0.138-1.381-0.149-2.082-0.115c-0.226,0.011-0.399,0.119-0.576,0.213   c-0.091,0.049-0.19,0.084-0.296,0.02c-0.08-0.049-0.077-0.12-0.075-0.187c0.007-0.183,0.148-0.298,0.345-0.387   c0.588-0.265,1.15-0.563,1.783-0.769c0.248-0.081,0.485-0.178,0.666-0.339C40.923,22.346,41.219,22.356,41.511,22.372z    M39.727,23.603c0.881,0.167,1.726,0.358,2.615,0.394c0.571,0.023,1.141,0.109,1.687-0.105c0.206-0.081,0.465-0.054,0.629,0.026   c0.58,0.284,1.151-0.012,1.723,0.017c0.211,0.01,0.313-0.21,0.145-0.291c-0.328-0.16-0.305-0.381-0.285-0.613   c0.021-0.25-0.105-0.384-0.434-0.486c-0.436-0.135-0.84-0.113-1.249,0c-0.179,0.049-0.34,0.114-0.502,0.013   c-0.224-0.139-0.431-0.095-0.649-0.003c-0.124,0.053-0.287,0.167-0.389,0.107c-0.275-0.163-0.55,0.001-0.799-0.041   c-0.434-0.074-0.767,0.05-1.129,0.183c-0.274,0.101-0.449,0.267-0.64,0.429C40.259,23.395,39.871,23.326,39.727,23.603z"/><path fill="#dd9999" d="M37.029,22.233c0.019,0.179-0.103,0.201-0.194,0.235c-0.224,0.085-0.421,0.168-0.249,0.399   c0.079,0.105-0.024,0.173-0.137,0.23c-0.196,0.099-0.198,0.213-0.03,0.333c0.026,0.019,0.054,0.036,0.079,0.056   c0.12,0.098,0.31,0.211,0.21,0.341c-0.128,0.165-0.368,0.1-0.586,0.065c-0.607-0.098-0.947-0.459-1.353-0.756   c-0.45-0.33-0.575-0.807-0.922-1.184c-0.057-0.062-0.054-0.127,0.02-0.184c0.103-0.079,0.22-0.041,0.287,0.015   c0.45,0.379,1.049,0.397,1.644,0.363C36.224,22.122,36.604,22.271,37.029,22.233z"/><path fill="#884400" d="M44.723,26.905c-0.707,0.066-1.208-0.59-0.966-1.02c0.107-0.19,0.021-0.294-0.211-0.337   c-0.594-0.109-1.134-0.358-1.764-0.373c-0.189-0.004-0.379-0.03-0.341-0.229c0.033-0.172,0.225-0.262,0.481-0.21   c1.138,0.228,2.204,0.583,3.197,1.059c0.263,0.126,0.455,0.592,0.359,0.807C45.388,26.804,45.12,26.911,44.723,26.905z"/><path fill="#884400" d="M51.615,26.828c0.08,0.088,0.15,0.151,0.198,0.222c0.194,0.284,0.099,0.462-0.312,0.561   c-0.256,0.062-0.524,0.096-0.783,0.152c-0.149,0.032-0.283,0.014-0.42-0.027c-0.645-0.195-0.721-0.496-0.197-0.833   c0.234-0.151,0.508-0.258,0.798-0.34c0.815-0.23,1.656-0.372,2.521-0.443c0.256-0.021,0.504,0.009,0.754,0.034   c0.093,0.009,0.177,0.044,0.18,0.126c0.003,0.077-0.068,0.121-0.159,0.145c-0.206,0.056-0.421,0.074-0.639,0.077   c-0.451,0.007-0.9,0.014-1.345,0.087C51.994,26.625,51.795,26.674,51.615,26.828z"/><path d="M47.471,4.444c-0.656,0.166-1.331,0.008-1.993,0.074C46.137,4.42,46.782,4.08,47.471,4.444z"/><path d="M48.74,4.52c0.387-0.046,0.774-0.095,1.163-0.136c0.156-0.016,0.327-0.044,0.437,0.084   c0.055,0.064,0.036,0.125-0.015,0.187c-0.107,0.127-0.257,0.121-0.425,0.092c-0.382-0.065-0.766-0.124-1.149-0.186   C48.747,4.548,48.744,4.534,48.74,4.52z"/><path d="M45.213,5.329c-0.371,0.14-0.627,0.147-0.89,0.121C44.571,5.359,44.826,5.292,45.213,5.329z"/><path d="M49.266,5.455c-0.226,0.153-0.37,0.081-0.594,0.009C48.892,5.351,49.043,5.367,49.266,5.455z"/><path d="M63.163,22.327c0.199-0.046,0.363,0,0.595,0.08C63.473,22.502,63.325,22.374,63.163,22.327z"/><path d="M37.405,88.196c0,0.058,0.011,0.087-0.002,0.107c-0.08,0.118-0.21,0.174-0.385,0.157c-0.022-0.002-0.058-0.04-0.055-0.059   c0.02-0.134,0.191-0.135,0.304-0.186C37.294,88.202,37.333,88.205,37.405,88.196z"/><path fill="#dd9900" d="M49.867,17.434c-0.94-0.005-1.775-0.099-2.598-0.258c-0.623-0.121-0.936-0.489-0.773-0.958   c0.128-0.368,0.349-0.714,0.567-1.058c0.122-0.193,0.336-0.262,0.614-0.275c0.834-0.037,1.648,0.004,2.439,0.234   c0.249,0.072,0.522,0.099,0.788,0.132c0.231,0.029,0.33,0.125,0.376,0.292c0.046,0.163,0.058,0.322,0.028,0.486   c-0.017,0.094-0.067,0.2-0.028,0.281c0.166,0.349-0.137,0.604-0.312,0.87c-0.122,0.185-0.351,0.342-0.709,0.259   C50.112,17.405,49.939,17.434,49.867,17.434z M50.869,16.044c-0.028-0.102,0.015-0.302-0.18-0.424   c-0.482-0.302-1.061-0.436-1.677-0.443c-0.222-0.003-0.452,0.073-0.667,0.136c-0.21,0.062-0.504,0.628-0.359,0.749   c0.219,0.183,0.247,0.469,0.674,0.561c0.237,0.051,0.447,0.235,0.75,0.233c0.093-0.001,0.154,0.051,0.217,0.105   c0.328,0.283,0.572,0.278,0.896-0.006C50.801,16.712,50.838,16.416,50.869,16.044z"/></g></svg>