<svg xmlns:dc="http://purl.org/dc/elements/1.1/" xmlns:cc="http://creativecommons.org/ns#" xmlns:rdf="http://www.w3.org/1999/02/22-rdf-syntax-ns#" xmlns:svg="http://www.w3.org/2000/svg" xmlns="http://www.w3.org/2000/svg" xmlns:sodipodi="http://sodipodi.sourceforge.net/DTD/sodipodi-0.dtd" xmlns:inkscape="http://www.inkscape.org/namespaces/inkscape" version="1.1" x="0px" y="0px" viewBox="5 5 90 90"><g transform="translate(0,-952.36218)"><g transform="translate(23.496063,961.33068)"><path fill="#693B1F" d="M 27.566929,0.03543307 53.007874,24.555118 42.484252,27.566929 20.161417,1.9488189 z m -9,3.11811013 L 29.125984,15.271653 21.437008,30.188976 12.082677,19.381889 z M 11.267716,16.015748 9.9921259,19.204724 c -0.1062992,0.318898 -0.035433,0.708661 0.2125981,0.992126 l 21.543307,24.980314 c 0.212599,0.248032 0.566929,0.389764 0.885827,0.354331 l 9.92126,-1.098425 3.507874,6.129921 c -8.929134,-1.417323 -17.645669,-1.913386 -23.952756,2.692913 -1.488189,-1.700787 -3.330709,-2.763779 -5.244094,-3.437007 -1.984252,-0.637796 -3.968504,-1.098426 -5.775591,-1.736221 0.46063,-3.366141 0.992126,-6.377952 1.594488,-9.708661 0.03543,-0.248032 0,-0.46063 -0.106299,-0.673228 C 10.84252,34.547243 9.7795275,31.322834 9.1062991,27.708661 9.035433,27.283464 8.7165354,26.964566 8.3267716,26.8937 L 5.4212598,26.291338 5.2086614,22.783464 C 5.2086614,22.5 5.0669291,22.216535 4.8188976,22.03937 L 1.488189,19.594488 c 2.9409448,-2.76378 6.023622,-4.251969 9.779527,-3.57874 z m 19.275591,0.885826 10.381889,11.905512 -8.681102,13.925197 -9.389763,-10.913386 z m 22.181102,9.814961 -9.850394,15.732283 -8.681102,0.92126 8.645669,-13.854331 z M 8.0787401,31.748031 c 0.6377953,2.267716 1.4527559,4.429134 2.5866139,6.519685 -0.531496,3.366141 -1.2047242,6.519685 -1.5590549,9.779527 -0.1417323,0.814961 0.070866,1.169291 0.6023622,1.700787 2.1968507,0.885827 4.4999997,1.311024 6.5196847,1.984252 2.019685,0.673229 3.720473,1.523622 4.996063,3.330709 0.318898,0.46063 1.027559,0.566929 1.452756,0.212598 1.417323,-1.169291 3.011811,-1.984252 4.748032,-2.586614 L 11.125984,81.389762 0,57.720471 z M 39.295275,51.661416 23.208661,79.334644 13.074803,82.027557 30.082677,52.015747 c 3.224409,-0.531496 6.23622,-0.566929 9.212598,-0.354331 z" style="" fill-opacity="1" fill-rule="nonzero" stroke="none"/></g></g></svg>