<svg fill="#ED66A5" xmlns="http://www.w3.org/2000/svg" xmlns:xlink="http://www.w3.org/1999/xlink" version="1.1" x="0px" y="0px" viewBox="0 0 66 66" enable-background="new 0 0 66 66" xml:space="preserve"><g><path d="M63.9,20.4C64.7,6.6,44.9-0.4,33,8.4C21-0.5,1.3,6.7,2.1,20.4c-6.5,13.2,9.2,24.7,20.7,33.2   c4,2.9,7.4,5.5,9.5,7.6c0.2,0.2,0.5,0.3,0.7,0.3s0.5-0.1,0.7-0.3c2.1-2.2,5.5-4.7,9.5-7.7C54.7,45.1,70.4,33.6,63.9,20.4z    M8.8,28.9c-2.5-2-4-4.5-4.6-7.2h14.2c0,0.6-0.1,1.1-0.1,1.7c0,3.1,0.7,6.8,2.8,8.1c0.2,0.2,0.7,0.4,1.5,0.4c1.4,0,4.1-0.8,9.1-4.7   c0.1,0,0.2,0.1,0.3,0.1v20.4L8.8,28.9z M45.6,23.4c0,3-0.8,5.7-1.8,6.4C43,30.2,40.3,29.2,36,26c0.6-0.7,1-1.6,1-2.6   c0-1-0.4-1.9-1-2.6c4.3-3.2,7-4.2,7.8-3.7C44.9,17.7,45.6,20.4,45.6,23.4z M35,23.4c0,1.1-0.9,2-2,2c-1.1,0-2-0.9-2-2   c0-1.1,0.9-2,2-2C34.1,21.4,35,22.3,35,23.4z M30,26c-4.3,3.2-7,4.2-7.8,3.7c-1.1-0.7-1.8-3.3-1.8-6.4c0-3,0.8-5.7,1.8-6.4   c0.7-0.5,3.5,0.5,7.8,3.7c-0.6,0.7-1,1.6-1,2.6C29,24.4,29.3,25.3,30,26z M34,27.3c0.1,0,0.2-0.1,0.3-0.1c5,3.8,7.7,4.7,9.1,4.7   c0.8,0,1.2-0.3,1.5-0.4c2-1.3,2.8-5,2.8-8.1c0-0.5,0-1.1-0.1-1.7h14.2c-0.5,2.7-2.1,5.2-4.6,7.2L34,47.7V27.3z M62,19.7   C62,19.7,62,19.7,62,19.7l-14.7,0.1c-0.4-1.9-1.2-3.6-2.4-4.4c-1.9-1.1-5.4,0.3-10.6,4.3c-0.1,0-0.2-0.1-0.3-0.1v-9.4   C44.5,2.1,62,8.1,62,19.7z M20.6,6.5c4.1,0,8.2,1.2,11.4,3.7v9.4c-0.1,0-0.2,0.1-0.3,0.1c-5.2-4-8.7-5.4-10.6-4.3   c-1.3,0.8-2,2.5-2.4,4.4H4c0,0,0,0,0-0.1C4,11.7,12.3,6.5,20.6,6.5z M42.1,51.9c-3.7,2.7-6.9,5-9.1,7.2c-2.2-2.1-5.4-4.5-9-7.1   C13.4,44.2,0.5,34.7,2.8,24.1c0.9,2.4,2.5,4.5,4.7,6.3l24.7,20c0.1,0.1,1,0.4,1.4,0.1l24.8-20.1c2.2-1.8,3.8-4,4.7-6.3   C65.6,34.7,52.6,44.2,42.1,51.9z"/></g></svg>