<svg xmlns:dc="http://purl.org/dc/elements/1.1/" xmlns:cc="http://creativecommons.org/ns#" xmlns:rdf="http://www.w3.org/1999/02/22-rdf-syntax-ns#" xmlns:svg="http://www.w3.org/2000/svg" xmlns="http://www.w3.org/2000/svg" xmlns:sodipodi="http://sodipodi.sourceforge.net/DTD/sodipodi-0.dtd" xmlns:inkscape="http://www.inkscape.org/namespaces/inkscape" version="1.1" x="0px" y="0px" viewBox="0 0 100 100"><g transform="translate(0,-952.36218)"><path style="text-indent:0;text-transform:none;direction:ltr;block-progression:tb;baseline-shift:baseline;color:#000000;enable-background:accumulate;" d="m 49.769419,971.00284 c -7.52191,0.075 -13.27474,3.2364 -16.90625,8 -3.63151,4.7637 -5.21037,10.9823 -5.03125,17.3438 0.335,11.89756 6.8508,24.62366 18.875,29.21866 l 0,2.375 -1.6875,2.7187 a 2.0001436,2.0001436 0 0 0 1.6875,3.0626 l 3.3125,0 3.28125,0 a 2.0001436,2.0001436 0 0 0 1.6875,-3.0626 l -1.6875,-2.7187 0,-2.5313 c 12.24913,-4.8084 18.68153,-17.4088 18.875,-29.18736 0.10434,-6.3518 -1.59032,-12.5845 -5.3125,-17.3126 -3.72217,-4.7281 -9.54442,-7.831 -17.0625,-7.9062 a 2.0001436,2.0001436 0 0 0 -0.0312,0 z m -0.75,5 c 8.58784,0.087 14.44364,5.1431 16.90625,11.6562 2.4626,6.5133 1.87564,14.42866 -1.4375,21.12506 -1.28144,2.2197 -4.94736,0.6175 -3.5625,-1.7812 2.82669,-5.7132 3.24977,-12.64856 1.25,-17.93756 -1.99977,-5.2891 -6.06579,-8.99 -13.1875,-9.0625 -2.4728,0 -2.68849,-4 0.0312,-4 z" fill="#8888aa" fill-opacity="1" fill-rule="evenodd" stroke="none" marker="none" visibility="visible" display="inline" overflow="visible"/><path style="text-indent:0;text-transform:none;direction:ltr;block-progression:tb;baseline-shift:baseline;color:#000000;enable-background:accumulate;" d="m 24.613279,975.30894 c -6.35199,0.0655 -11.272481,2.7503 -14.353981,6.7939 -3.0815,4.0436 -4.3987,9.3116 -4.24769,14.6705 0.28212,10.01226 5.75049,20.71976 15.892361,24.60766 0.23469,1.5305 -0.437,2.7513 -1.18841,4.2115 -0.81877,1.4181 0.2285,2.9149 1.77839,2.9149 1.54329,0 3.08659,0 4.62987,0 1.69434,0 2.56701,-1.549 1.77839,-2.9149 -1.04617,-1.4704 -1.63395,-2.6734 -1.1884,-4.3361 2.01641,-0.7945 3.85304,-1.8433 5.49453,-3.082 1.92267,-1.8789 -0.30852,-4.4057 -2.40931,-3.1928 -1.79371,1.3538 -3.84271,2.4245 -6.16108,3.1078 -9.161761,-2.7474 -14.372591,-12.3525 -14.628331,-21.42856 -0.13024,-4.6221 1.04188,-8.9982 3.43115,-12.1334 2.386611,-3.1318 5.913371,-5.1594 11.196241,-5.2183 2.03262,0.0202 3.818,0.3527 5.39673,0.914 2.2999,0.6163 3.3158,-2.9561 1.33996,-3.7686 -2.0157,-0.7167 -4.26347,-1.1237 -6.722,-1.1456 -0.01281,0 -0.02562,0 -0.03842,0 z" fill="#ffcc77" fill-opacity="1" fill-rule="evenodd" stroke="none" marker="none" visibility="visible" display="inline" overflow="visible"/><path style="text-indent:0;text-transform:none;direction:ltr;block-progression:tb;baseline-shift:baseline;color:#000000;enable-background:accumulate;" d="m 75.344649,975.30894 c -2.45853,0.0219 -4.70643,0.4285 -6.71544,1.1469 -0.24935,0.0859 -0.48139,0.2217 -0.67838,0.3971 -0.19698,0.1754 -0.35876,0.3902 -0.47294,0.6279 -0.11419,0.2378 -0.1807,0.4983 -0.19446,0.7617 -0.01375,0.2634 0.02527,0.5294 0.11407,0.7777 0.08881,0.2484 0.22733,0.4788 0.40498,0.6738 0.17764,0.1949 0.39428,0.3542 0.63333,0.4656 0.23904,0.1115 0.50032,0.175 0.76385,0.1857 0.26353,0.0107 0.52909,-0.0314 0.7764,-0.1231 1.56549,-0.5597 3.35067,-0.8929 5.38328,-0.9131 5.28288,0.0589 8.81042,2.0867 11.19781,5.2186 2.39005,3.1354 3.563,7.5114 3.43334,12.1334 -0.2546,9.07606 -5.46474,18.68116 -14.63178,21.42856 -2.31835,-0.6833 -4.36568,-1.754 -6.14763,-3.1053 -2.37308,-1.37 -4.114,1.49 -2.41681,3.1871 1.63633,1.2408 3.47204,2.2902 5.48828,3.0849 0.26893,1.7521 -0.41175,2.8269 -1.18841,4.3361 -0.84158,1.4577 0.35163,2.9149 1.77839,2.9149 1.54329,0 3.08659,0 4.62987,0 1.69084,0 2.51418,-1.6405 1.77839,-2.9149 -1.01086,-1.4292 -1.1884,-2.5514 -1.1884,-4.2111 10.14617,-3.8876 15.61524,-14.5954 15.89611,-24.60806 0.15033,-5.359 -1.1679,-10.627 -4.25019,-14.6705 -3.08229,-4.0435 -8.00325,-6.7284 -14.35523,-6.7939 -0.01281,0 -0.02562,0 -0.03843,0 z" fill="#664422" fill-opacity="1" fill-rule="evenodd" stroke="none" marker="none" visibility="visible" display="inline" overflow="visible"/></g></svg>