<svg xmlns="http://www.w3.org/2000/svg" data-name="Layer 1" viewBox="0 0 512 512" x="0px" y="0px"><title>c1</title><g data-name="Group"><path fill="#ddcc66"  d="M233.311,148.48l-71.586-19.175a8,8,0,0,0-9.439,4.611L96.2,266.542l-.048.116a65.3,65.3,0,0,0,35.679,84.89L99.78,471.189l-31.223-8.364a8,8,0,1,0-4.141,15.455l78.723,21.088a8,8,0,1,0,4.14-15.455l-32.044-8.584L147.254,355.8a65.325,65.325,0,0,0,74.187-55.581c.006-.042.011-.083.017-.125l17.722-142.9A8,8,0,0,0,233.311,148.48Z"/></g><g data-name="Group"><path fill="#dd9900"  d="M442.794,373.677l-31.2,11.279L369.521,268.583a65.316,65.316,0,0,0,29.086-88.014c-.018-.037-.038-.074-.057-.111L331.381,53.086a8,8,0,0,0-9.8-3.792l-69.694,25.2a8,8,0,0,0-5.107,9.18L276.6,224.549c.007.041.017.082.026.123a65.342,65.342,0,0,0,77.816,49.263L396.549,390.4l-30.4,10.991a8,8,0,1,0,5.44,15.047l76.642-27.71a8,8,0,1,0-5.439-15.047Z"/></g><g data-name="Group"><path fill="#9900ff" d="M198.587,82.628A8,8,0,1,0,213.192,76.1L190.123,24.521a8,8,0,1,0-14.6,6.534Z"/></g><g data-name="Group"><path fill="#cc0099"  d="M244.855,12.5a8,8,0,0,0-9.358,6.358l-8.813,46.187a8,8,0,1,0,15.716,3l8.814-46.187A8,8,0,0,0,244.855,12.5Z"/></g><g data-name="Group"><path fill="#cc66ff" d="M132.812,74.819l40.3,24.216a8,8,0,1,0,8.24-13.715L141.053,61.1a8,8,0,0,0-8.241,13.715Z"/></g></svg>