<svg fill="#337700" xmlns="http://www.w3.org/2000/svg" xmlns:xlink="http://www.w3.org/1999/xlink" version="1.1" x="0px" y="0px" viewBox="0 0 100 100" enable-background="new 0 0 100 100" xml:space="preserve"><g><path d="M35.279,9.288c0.191-0.537-0.197-0.786-0.558-1.023c-0.354-0.232-0.453-0.495-0.403-0.906   c0.039-0.316,0.145-0.461,0.435-0.596c0.557-0.259,0.561-0.293,0.221-0.762c-0.17-0.235-0.409-0.421,0.058-0.602   c0.341-0.132,0.057-0.269-0.034-0.383c-0.267-0.333-0.586-0.636,0.18-0.8c0.285-0.061-0.207-0.366,0.112-0.548   c0.287,0.319,0.643,0.625,0.882,0.996c0.635,0.989,1.626,1.567,2.666,2.081c1.715,0.847,3.442,1.672,5.181,2.476   c0.485,0.224,0.846,0.63,1.384,0.762c0.148,0.036,0.33,0.202,0.438,0.086c0.585-0.631,1.395-0.355,2.099-0.47   c0.744-0.122,1.525-0.168,2.234-0.343C51.21,9,52.18,9.473,53.177,9.266c0.187-0.039,0.367,0.076,0.517,0.195   c0.682,0.541,1.407,0.433,2.089,0.049c1.357-0.765,2.754-1.472,3.933-2.495c0.554-0.481,1.19-0.904,1.851-1.25   c1.356-0.71,2.434-1.708,3.498-2.733c0.327-0.315,0.677-0.611,1.087-0.86c-0.328,0.862-1.181,1.379-1.677,2.158   c1.036,0.133,1.136,0.085,1.493-0.698c0.037-0.08,0.036-0.179,0.085-0.249c0.072-0.102,0.194-0.177,0.323-0.12   c0.067,0.03,0.121,0.133,0.136,0.21c0.067,0.356-0.124,0.635-0.355,0.887c-0.579,0.633-1.185,1.239-1.895,1.755   c-2.721,1.975-5.622,3.686-8.665,5.192c-0.112,0.055-0.241,0.084-0.347,0.147c-0.108,0.063-0.201,0.156-0.136,0.294   c0.059,0.125,0.182,0.172,0.31,0.139c0.151-0.039,0.294-0.109,0.436-0.173c1.64-0.731,3.191-1.59,4.628-2.64   c1.127-0.823,2.309-1.583,3.5-2.323c0.837-0.52,1.386-1.389,2.411-1.681c0.246-0.07,0.333-0.335,0.468-0.54   c0.254-0.386,0.358-0.403,1.036-0.377c0.017,0.598-0.601,0.798-0.859,1.179c-0.034,0.09-0.001,0.119,0.085,0.129   c0.232,0.028,0.51-0.265,0.689,0.027c0.173,0.281-0.061,0.517-0.249,0.71c-0.472,0.484-0.895,0.997-1.28,1.546   c-0.269,0.383-0.436,0.775-0.466,1.228c0.855-0.264,1.551-0.758,2.062-1.491c0.171-0.245,0.398-0.371,0.696-0.417   c0.409-0.063,0.532,0.054,0.414,0.425c-0.051,0.161-0.261,0.298-0.123,0.484c0.397,0.531-0.014,0.85-0.378,1.12   c-0.571,0.425-1.179,0.81-1.795,1.177c-2.982,1.775-6.085,3.345-9.303,4.716c-0.778,0.332-1.503,0.782-2.368,0.916   c-0.321,0.05-0.398,0.23-0.391,0.506c0.032,1.239-0.262,2.412-0.875,3.511c-0.115,0.207-0.1,0.39,0.014,0.59   c0.119,0.209,0.168,0.468,0.327,0.64c0.836,0.904,0.72,1.985,0.448,2.967c-0.337,1.216-0.541,2.518-1.458,3.538   c-0.213,0.237-0.116,0.416,0.038,0.632c0.28,0.395,0.512,0.819,0.796,1.211c0.764,1.056,1.279,2.241,1.97,3.328   c0.92,1.446,1.802,2.923,2.945,4.237c0.921,1.059,1.696,2.211,2.474,3.361c1.064,1.573,2.075,3.182,3.293,4.657   c0.315,0.381,0.573,0.792,0.801,1.2c0.59,1.053,1.326,2.01,2.018,2.998c0.398,0.568,0.832,1.159,1.023,1.798   c0.265,0.891,0.899,1.559,1.347,2.333c0.46,0.795,1.165,1.48,1.032,2.485c-0.006,0.049,0.025,0.137,0.063,0.151   c0.606,0.232,0.657,0.809,0.743,1.255c0.169,0.866,0.548,1.651,0.847,2.467c0.298,0.812,0.556,1.637,0.851,2.45   c0.41,1.131,0.653,2.298,0.862,3.47c0.156,0.874-0.084,1.768,0.165,2.652c0.143,0.506,0.125,1.053,0.384,1.538   c0.091,0.171,0.062,0.345,0.051,0.523c-0.088,1.424-0.249,2.84-0.407,4.258c-0.049,0.443-0.363,0.793-0.343,1.25   c0.013,0.296-0.144,0.518,0.187,0.84c0.278,0.271-0.027,0.853-0.212,1.223c-0.882,1.767-1.637,3.573-2.338,5.41   c-0.753,1.974-2.092,3.642-3.629,5.177c-2.257,2.254-4.84,4.077-7.716,5.605c-2.025,1.075-4.017,2.181-6.25,2.823   c-1.795,0.516-3.623,0.798-5.529,0.835c-1.461,0.028-2.815-0.377-4.229-0.495c-0.372-0.031-0.761-0.144-1.09-0.31   c-1.542-0.781-3.224-1.259-4.794-1.983c-1.504-0.693-2.803-1.628-4.028-2.667c-0.449-0.381-0.886-0.769-1.408-1.061   c-1.344-0.75-2.35-1.809-3.149-3.041c-1.213-1.871-2.28-3.821-3.168-5.838c-0.712-1.616-1.038-3.346-1.187-5.105   c-0.129-1.534-0.099-3.08-0.388-4.606c-0.075-0.398,0.012-0.828,0.057-1.24c0.17-1.565,0.519-3.103,0.798-4.652   c0.37-2.052,0.881-4.067,1.694-6.011c0.13-0.312,0.266-0.606,0.52-0.838c0.513-0.468,0.782-1.066,1.099-1.65   c0.659-1.215,1.332-2.428,2.094-3.587c1.232-1.875,2.284-3.841,3.436-5.755c1.669-2.771,3.541-5.42,5.433-8.058   c0.531-0.74,0.987-1.518,1.389-2.33c0.614-1.238,1.29-2.449,1.934-3.673c0.953-1.811,1.818-3.658,2.577-5.548   c0.228-0.568,0.243-1.012-0.217-1.606c-0.673-0.869-1.216-1.9-1.333-3.001c-0.153-1.439,0.329-2.752,1.252-3.918   c0.057-0.072,0.121-0.138,0.181-0.208c0.579-0.679,0.611-0.698,0.117-1.396c-0.586-0.826-0.776-1.662-0.319-2.587   c0.066-0.133,0.096-0.282,0.134-0.426c0.169-0.636,0.167-0.66-0.541-0.864c-2.809-0.809-5.434-1.967-7.802-3.6   c-0.997-0.688-1.959-1.421-2.931-2.139c-0.164-0.121-0.441-0.257-0.255-0.488c0.173-0.214,0.395-0.031,0.586,0.068   C35.095,9.251,35.187,9.262,35.279,9.288z M69.048,81.726c0.069-0.052,0.135-0.065,0.236-0.07c1.204-0.064,1.495-0.306,1.649-1.326   c-0.235-0.112-0.335,0.071-0.465,0.187c0.147-0.252,0.239-0.512,0.545-0.691c0.443-0.259,0.593-0.678,0.451-1.251   c-0.779,0.483-1.219,1.191-2.011,1.47c0.482-0.95,1.444-1.466,2.225-2.146c0.044-0.039,0.13-0.092,0.164-0.076   c0.559,0.261,0.904-0.215,1.353-0.315c0.233-0.052,0.355-0.065,0.296-0.299c-0.054-0.213-0.244-0.208-0.434-0.259   c-0.4-0.107-0.331,0.54-0.727,0.376c-0.145-0.459,0.246-0.889,0.092-1.373c-1.126,0.639-4.677,3.498-5.019,4.027   c0.207,0.047,0.352-0.094,0.526-0.143l-0.021-0.006c-0.003,0.086,0.033,0.213-0.015,0.252c-0.771,0.642-1.454,1.395-2.457,1.756   c-0.157,0.057-0.442,0.058-0.254,0.318c0.093,0.129,0.245,0.219,0.062,0.354c-0.177,0.13-0.346,0.067-0.507-0.069   c-0.101-0.086-0.075-0.282-0.277-0.283c-0.075,0.712,0.626,1.205,0.59,1.898c-0.001,0.028,0.01,0.062,0.028,0.083   c0.142,0.168,0.332,0.306,0.554,0.297c0.227-0.009,0.421-0.096,0.308-0.404c-0.143-0.39,0.231-1.032,0.625-0.955   c0.559,0.109,0.636-0.211,0.825-0.492c0.151-0.226,0.296-0.456,0.453-0.677c0.09-0.127,0.216-0.281-0.007-0.352   c-0.452-0.144-0.257-0.32-0.045-0.478c0.47-0.35,0.955-0.681,1.434-1.02c-0.047,0.231,0.053,0.345,0.291,0.445   c0.346,0.145,0.655-0.072,0.983-0.025c-0.343,0.555-0.848,0.948-1.436,1.257c-0.036,0.321-0.356,0.381-0.566,0.546   c-0.289,0.227-0.617,0.421-0.822,0.729c-0.069,0.103-0.079,0.23,0.03,0.323c0.037,0.031,0.121,0.047,0.168,0.031   c0.312-0.107,0.545-0.313,0.694-0.58C68.756,82.443,69.325,82.249,69.048,81.726z M59.479,12.333   c-0.851,0.713-1.975,0.979-2.948,1.504c0.152,0.217,0.312,0.121,0.45,0.09c0.953-0.216,1.675-0.831,2.493-1.278   c0.151-0.083,0.022-0.211,0.005-0.318c0.667,0.3,0.994-0.224,1.632-0.559C60.346,11.801,60.021,12.329,59.479,12.333z    M28.922,63.144c0.922-0.304,1.218-0.991,1.377-1.925c-0.835,0.521-1.212,1.16-1.377,1.932c0.015,0.442-0.53,0.777-0.318,1.292   c0.678-0.478,0.676-0.477,0.382-1.047C28.946,63.321,28.942,63.229,28.922,63.144z M43.002,92.904   c-0.276,0.461-0.921,0.646-1.171,1.324c0.926-0.328,1.529-0.754,1.844-1.509c-0.334-0.113-0.464,0.199-0.71,0.219   c-0.11-0.37,0.367-0.642,0.236-1.102c-0.754,0.439-1.441,0.84-2.129,1.239c-0.157,0.091-0.224,0.223-0.133,0.366   c0.11,0.174,0.256,0.368,0.521,0.247c0.224-0.103,0.424-0.249,0.637-0.373C42.383,93.148,42.612,92.871,43.002,92.904z    M31.836,62.607c0.825-0.77,1.604-1.587,2.568-2.217c0.128-0.084,0.305-0.128,0.294-0.307c-0.015-0.252-0.291-0.169-0.426-0.267   c-0.29-0.212-0.498,0.021-0.667,0.145c-0.842,0.623-1.69,1.245-2.473,1.93c-0.392,0.342-0.647,0.818-0.652,1.414   c0.566-0.168,0.845-0.658,1.38-0.714c-0.102,0.33-0.347,0.553-0.625,0.759c-0.373,0.276-0.732,0.567-1.097,0.852   c-0.576,0.45-0.671,1.073-0.777,1.725c0.13-0.015,0.209-0.001,0.246-0.031c1.428-1.178,2.893-2.311,4.429-3.366   c0.742-0.51,0.721-0.537,0.372-1.35c-0.035-0.081-0.09-0.156-0.286-0.137C33.503,61.677,32.705,62.19,31.836,62.607z M47.19,35.645   c-0.04-0.399-0.267-0.606-0.591-0.268c-0.381,0.397-0.91,0.658-1.192,1.135c-0.136,0.23-0.313,0.354-0.601,0.36   c-0.584,0.012-0.615,0.37-0.583,0.841c0.633-0.259,0.925-0.801,1.424-1.107c0.527-0.324,1.047-0.658,1.569-0.988   c-0.334,0.59-0.978,0.902-1.43,1.388c-0.342,0.368-0.873,0.605-0.848,1.208c0.009,0.206-0.22,0.252-0.396,0.324   c-0.76,0.313-1.144,0.933-1.463,1.615c0.888-0.589,1.642-1.332,2.583-1.843c-0.02,0.301-0.311,0.431-0.467,0.647   c-0.07,0.097-0.201,0.273-0.18,0.291c0.555,0.484-0.158,0.609-0.298,0.874c-0.208,0.395-0.713,0.612-0.889,1.107   c0.392-0.039,0.547-0.303,0.794-0.417c0.608-0.281,0.993-0.892,1.714-0.999c-0.493,0.67-1.299,1.005-1.912,1.547   c-0.298,0.264-0.732,0.459-0.892,0.778c-0.199,0.397-0.5,0.663-0.794,0.971c-0.679,0.712-1.308,1.466-1.958,2.202   c0.538-0.24,0.952-0.592,1.386-0.922c1.502-1.143,3.019-2.265,4.577-3.345c1.34-0.929,2.668-1.876,4.016-2.798   c0.335-0.229,0.673-0.437,1.158-0.504c-0.153,0.277-0.341,0.395-0.525,0.507c-1.818,1.094-3.521,2.335-5.228,3.568   c-2.086,1.506-4.171,3.018-5.873,4.924c-0.164,0.183-0.469,0.284-0.455,0.714c0.997-0.746,1.9-1.432,2.815-2.104   c1.648-1.21,3.21-2.526,5.032-3.521l-0.022-0.017c0.112,0.208-0.026,0.337-0.175,0.453c-0.367,0.285-0.73,0.575-1.11,0.842   c-2.11,1.482-4.168,3.025-6.203,4.597c-0.881,0.681-1.195,1.69-1.944,2.438c0.29-0.094,0.529-0.227,0.734-0.394   c2.442-1.994,5.036-3.809,7.607-5.653c2.092-1.5,4.204-2.977,6.38-4.367c1.434-0.915,2.923-1.762,4.703-2.288   c-0.651-0.869-1.198-1.687-1.951-2.368c-0.674-0.609-0.756-0.655-1.522-0.219c-1.301,0.742-2.613,1.467-3.841,2.319   c-1.32,0.916-2.685,1.775-4.025,2.654c0.19-0.236,0.376-0.472,0.636-0.653c2.255-1.568,4.466-3.192,6.847-4.595   c0.187-0.11,0.385-0.205,0.572-0.316c0.205-0.123,0.33-0.286,0.205-0.52c-0.127-0.237-0.241-0.504-0.582-0.523   c-0.449-0.026-1.967,0.866-2.144,1.256c-0.03,0.066,0.014,0.237-0.083,0.192c-0.687-0.32-1.003,0.388-1.541,0.46   c0.166-0.336,0.469-0.564,0.763-0.785c0.427-0.32,0.544-0.683,0.351-1.155c-0.411,0.012-0.739,0.204-0.966,0.41   c-0.826,0.755-1.892,1.199-2.743,1.913C47.502,35.619,47.354,35.648,47.19,35.645z M34.818,82.656l-0.002,0.001   c0.166,0.31,0.032,0.514-0.192,0.775c-0.484,0.564-0.744,1.214-0.481,1.967c0.42-0.08,0.787-0.15,1.155-0.219   c-0.418,0.357-0.857,0.673-1.576,0.7c0.507,0.184,0.309,0.707,0.657,0.931c0.274-0.089,0.51-0.167,0.748-0.239   c0.013-0.004,0.042,0.039,0.069,0.066c0.058,0.204-0.113,0.306-0.237,0.435c-0.579,0.607-0.503,0.818,0.35,0.987   c0.517,0.102,0.559,0.082,0.626-0.494c0.015-0.133,0.026-0.241,0.158-0.265c0.198-0.037,0.295,0.12,0.319,0.258   c0.018,0.099-0.092,0.211-0.113,0.323c-0.061,0.317,0.061,0.468,0.414,0.335c0.205-0.077,0.417-0.157,0.593-0.277   c0.441-0.299,0.905-0.603,1.427-0.686c0.496-0.079,0.947-0.196,1.478-0.639c-0.169,0.57-0.439,0.798-0.761,0.979   c-0.458,0.258-0.215,0.437,0.091,0.631c-0.139,0.088-0.295,0.15-0.395,0.257c-0.263,0.279-0.684-0.152-0.842,0.119   c-0.156,0.268-0.329,0.496-0.575,0.677c-0.222,0.164-0.478,0.287-0.701,0.45c-0.091,0.067-0.167,0.186-0.081,0.313   c0.073,0.108,0.183,0.154,0.319,0.158c0.206,0.007,0.348-0.134,0.525-0.192c0.744-0.246,1.412-0.722,2.306-0.683   c-0.379,0.525-0.728,1.009-1.189,1.649c0.504-0.244,0.821-0.376,1.113-0.545c0.36-0.209,0.657-0.137,0.94,0.116l0.002-0.002   c-0.222,0.235-0.379,0.565-0.82,0.468c-0.247-0.055-0.42,0.101-0.61,0.199c-0.147,0.076-0.259,0.2-0.153,0.357   c0.068,0.101,0.209,0.104,0.343,0.081c0.775-0.136,1.512-0.357,2.165-0.787c0.272-0.178,0.548-0.371,0.92-0.265   c-0.048,0.546-0.782,0.734-0.686,1.405c1.452-0.891,2.958-1.556,4.128-2.795c-0.096,0.539,0.087,0.827,0.577,0.924l-0.021-0.027   c-0.328,0.826-1.323,1.21-1.692,2.115c1.854-0.585,1.854-0.585,2.231-0.41c-0.524,0.371-0.936,0.82-1.287,1.323   c1.197-0.425,2.259-0.985,2.764-2.151c-0.205-0.195-0.471,0.174-0.602-0.131c-0.09-0.21,0.066-0.335,0.207-0.454   c0.141-0.119,0.278-0.268,0.448-0.326c0.428-0.147,0.58-0.507,0.814-0.809c0.027-0.035,0.107-0.035,0.166-0.051   c0.191,0.119-0.192,0.345,0.118,0.456c0.386-0.128,0.791-0.263,1.197-0.397c-0.61,0.517-1.036,1.168-1.655,1.66   c0.266,0.231,0.451,0.18,0.663,0.055c0.884-0.522,1.737-1.095,2.709-1.475c0.137-0.054,0.174-0.144,0.229-0.252   c0.583-1.136,1.702-1.782,2.693-2.543c0.016-0.012,0.093,0.045,0.158,0.078c-0.939,1.653-2.572,2.828-3.677,4.453   c0.352,0.075,0.521-0.032,0.632-0.157c0.277-0.314,0.709-0.471,0.933-0.845c0.067-0.111,0.259-0.264,0.469-0.075   c0.377,0.339,0.422,0.367,0.669,0.13c0.413-0.396,0.967-0.625,1.469-0.729c0.547-0.114,0.824-0.376,1.085-0.744   c0.12-0.169,0.167-0.391,0.411-0.454c0.153,0.038,0.167,0.157,0.203,0.268c0.112,0.349,0.337,0.414,0.641,0.193   c0.292-0.213,0.159-0.317-0.081-0.511c-0.156-0.126-0.489-0.369-0.217-0.68c0.111-0.127,0.405-0.148,0.334-0.372   c-0.104-0.326-0.393-0.019-0.566-0.103c-0.183-0.089-0.432-0.028-0.573-0.21c0.329-0.475,0.903-0.65,1.351-0.947   c0.441-0.292,0.727-0.814,1.373-0.969c-0.058,0.292-0.497,0.379-0.237,0.667c0.078,0.086,0.389-0.111,0.289,0.187   c-0.05,0.148-0.203,0.24-0.378,0.153c-0.163-0.081-0.402-0.082-0.356,0.07c0.153,0.507-0.339,0.65-0.531,0.955   c-0.127,0.202-0.333,0.376-0.11,0.625c0.391,0.021,0.615-0.423,1.033-0.349c0.251,0.758-0.672,1.023-0.748,1.61   c0.119,0.085,0.211,0.068,0.282-0.001c0.757-0.738,1.543-1.449,2.499-1.959c0.377-0.201,0.391-0.413,0.204-0.718   c-0.059-0.096-0.276-0.197-0.182-0.264c0.39-0.278,0.122-0.784,0.516-1.088c0.406-0.313,0.701-0.753,1.036-1.144   c0.021-0.024-0.03-0.101-0.043-0.139c-0.259-0.184-0.445,0.221-0.704,0.057c-0.087-0.264,0.172-0.336,0.294-0.492   c0.163-0.211,0.695-0.204,0.556-0.506c-0.197-0.426-0.496,0.233-0.821,0.028c0.524-0.825,1.9-0.954,2.037-2.152   c-0.637,0.136-0.914,0.77-1.719,0.882c0.425-0.333,0.317-0.786,0.565-0.999c0.493-0.424,0.809-1.247,1.781-0.866   c0.108,0.042,0.353-0.062,0.374-0.216c0.037-0.274-0.231-0.052-0.323-0.135c-0.231-0.208,0.003-0.31,0.128-0.408   c0.652-0.517,1.315-1.022,1.972-1.534c0.296-0.23,0.515-0.589,1.014-0.513c-0.492,0.786-1.411,1.176-2.017,1.919   c0.49-0.009,1.093-0.082,1.196-0.303c0.313-0.668,0.978-0.738,1.526-0.98c0.381-0.169,0.706-0.376,1.033-0.613   c0.647-0.468,1.127-1.145,1.955-1.392c0.175-0.052,0.238-0.181,0.258-0.338c0.088-0.698,0.017-1.382-0.153-2.152   c-0.373,0.309-0.823,0.388-0.908,0.836l0.02-0.016c-0.183,0.049-0.347,0.124-0.506,0.231c-1.438,0.976-2.765,2.079-4.117,3.152   c-0.187,0.149-0.332,0.38-0.65,0.218c0.005-0.278,0.244-0.376,0.43-0.524c1.766-1.402,3.527-2.81,5.29-4.216   c0.097-0.077,0.202-0.146,0.29-0.23c0.188-0.182,0.15-0.409,0.012-0.568c-0.167-0.192-0.37-0.036-0.471,0.097   c-0.3,0.393-1.207,0.416-0.861,1.21c0.01,0.023-0.073,0.093-0.124,0.125c-1.595,0.982-2.963,2.236-4.52,3.263   c-0.078,0.051-0.175,0.05-0.264-0.095c0.244-0.641,1.105-0.87,1.395-1.572c-0.436-0.111-0.745,0.086-1.014,0.26   c-0.929,0.602-1.859,1.129-3.055,0.681c-0.108-0.04-0.25,0.012-0.286,0.16c-0.037,0.156,0.097,0.196,0.198,0.262   c0.169,0.109,0.356,0.101,0.55,0.091c0.599-0.032,1.198-0.056,1.798-0.083c0.259,0.513,0.113,0.871-0.412,1.173   c-0.706,0.406-1.304,0.95-1.823,1.547c-0.469,0.539-1.153,0.822-1.642,1.328c-0.11,0.114-0.299,0.061-0.446-0.017l0.022,0.02   c0.545-0.653,1.477-1.028,1.624-1.968c0.003-0.021,0.046-0.041,0.074-0.052c0.675-0.254,0.892-1.086,1.71-1.173   c0.162-0.017,0.239-0.197,0.203-0.355c-0.04-0.177-0.21-0.2-0.372-0.203c-0.381-0.005-0.765-0.034-1.142,0.001   c-0.373,0.035-0.737,0.114-1.064,0.336c-0.247,0.168-0.596-0.033-0.895,0.319c-0.237,0.279,0.002,0.677-0.48,0.862   c-0.151-0.513,0.111-0.991,0.084-1.466c-0.029-0.515,0.236-0.761,0.72-0.868c-0.239,0.474-0.03,0.629,0.464,0.627   c0.061-0.398-0.322-0.424-0.477-0.619c-0.186-0.096-0.175-0.396-0.472-0.382c-0.667,0.032-0.481-0.508-0.599-0.821   c-0.113-0.299-0.017-0.603,0.287-0.778c0.157-0.091,0.405-0.296,0.541,0.03c0.257,0.615,0.884,0.812,1.408,1.127   c0.93,0.558,2.21,0.531,3.001-0.107c1.056-0.852,1.785-1.876,1.967-3.22c0.043-0.321,0.031-0.637,0.069-0.953   c0.15-1.249,0.251-2.486-1.011-3.369c-0.043-0.03-0.056-0.101-0.079-0.154c-0.617-1.461-1.834-2.379-3.297-3.001   c-1.765-0.75-3.678-1.081-5.557-1.486c-0.369-0.08-0.729-0.156-0.847-0.467c-0.134-0.352-0.378-0.591-0.608-0.87   c-0.357-0.432-0.199-0.791,0.398-0.868c0.309-0.04,0.508-0.223,0.776-0.296c0.142-0.038,0.35-0.2,0.419-0.062   c0.241,0.48,0.477,0.171,0.728,0.04c0.245-0.129,0.433-0.354,0.737-0.381c-0.285,0.556-0.989,0.76-1.375,1.325   c0.54,0.142,1.158,0.128,1.359,0.488c0.234,0.421,0.373,0.56,0.83,0.328c0.27-0.137,0.442,0.149,0.645,0.2   c0.708,0.179,1.397,0.409,2.095,0.613c0.232,0.068,0.451,0.067,0.543-0.193c0.053-0.149,0.148-0.254,0.275-0.349   c1.138-0.847,2.273-1.696,3.41-2.544c0.175-0.13,0.35-0.268,0.597-0.143l-0.018-0.017c-0.006,0.208-0.189,0.291-0.325,0.412   c-0.989,0.882-2.185,1.533-3.138,2.455c-0.206,0.199-0.523,0.333-0.525,0.714c0.367,0.062,0.555-0.148,0.77-0.31   c0.396-0.298,0.797-0.59,1.2-0.879c0.907-0.651,1.826-1.288,2.719-1.955c0.37-0.276,0.65-0.665,1.037-0.913   c0.607-0.388,0.631-0.356,0.326-0.95c-0.328-0.641-0.418-0.671-1.045-0.255c-0.673,0.446-1.304,0.942-1.92,1.456   c-1.06,0.884-2.298,1.567-3.311,2.506c-0.13,0.121-0.215,0.311-0.486,0.167c0.062-0.341,0.297-0.562,0.586-0.753   c1.844-1.219,3.438-2.728,5.283-3.945c0.077-0.051,0.15-0.111,0.214-0.177c0.161-0.166,0.078-0.332-0.023-0.487   c-0.11-0.169-0.28-0.125-0.418-0.057c-0.196,0.096-0.391,0.205-0.559,0.338c-1.936,1.526-4.064,2.811-6.074,4.244   c-0.244,0.174-0.357,0.553-0.774,0.529c-0.021-0.194,0.081-0.267,0.167-0.355c0.649-0.665,1.482-1.101,2.251-1.622   c1.414-0.957,2.755-2.008,4.126-3.02c0.966-0.714,0.967-0.72,0.453-1.736c-0.04-0.079-0.082-0.158-0.102-0.196   c-0.362,0.109-0.532,0.281-0.713,0.45c-1.1,1.026-2.121,2.127-3.323,3.056c-0.188,0.145-0.371,0.282-0.692,0.206   c1.535-1.344,2.85-2.877,4.502-4.158c-0.311-0.588-0.641-1.195-0.955-1.808c-0.688-1.34-1.566-2.578-2.369-3.856   c-0.11-0.175-0.218-0.4-0.504-0.296c-0.366,0.132-0.686,0.364-0.785,0.714c-0.127,0.448,0.337,0.461,0.633,0.542   c-0.028,0.211-0.156,0.3-0.282,0.391c-0.309,0.221-0.166,0.51-0.048,0.722c0.148,0.263,0.388,0.068,0.573-0.024   c0.184-0.092,0.356-0.118,0.542,0.005c-0.097,0.32-0.465,0.376-0.668,0.592c-0.193,0.205-0.379,0.403-0.36,0.697   c0.008,0.118,0.034,0.24,0.156,0.305c0.139,0.073,0.261-0.007,0.333-0.096c0.231-0.287,0.476-0.566,0.796-0.763   c0.211-0.13,0.443-0.351,0.84-0.069c-0.851,0.429-1.175,1.263-1.923,1.728c-0.281,0.175-0.327,0.448-0.148,0.831   c0.422-0.435,0.747-0.834,1.143-1.16c0.372-0.306,0.718-0.737,1.257-0.657c-0.684,0.692-1.33,1.427-2.068,2.07   c-0.642,0.559-0.728,0.604-0.594,1.403c0.342-0.129,0.541-0.401,0.775-0.638c0.54-0.544,1.088-1.081,1.63-1.623   c0.219-0.219,0.451-0.373,0.902-0.215c-1.264,0.993-1.987,2.407-3.579,2.925c-0.048,0.016-0.084,0.088-0.109,0.14   c-0.126,0.265-0.203,0.532-0.654,0.469c-0.162-0.022-0.273,0.216-0.123,0.483c0.256,0.457,0.607,0.02,0.887,0.127   c-0.05,0.291-0.298,0.462-0.491,0.518c-0.942,0.272-1.46,1.067-2.249,1.515c-0.371,0.211-0.678,0.547-1.153,0.582   c-0.017-0.22,0.163-0.295,0.323-0.391c0.507-0.302,0.97-0.667,1.528-0.897c0.164-0.068,0.332-0.235,0.149-0.423   c-0.134-0.138-0.289-0.018-0.421,0.059c-0.292,0.171-0.41,0.627-0.97,0.472c0.322-0.528,0.63-1.031,0.937-1.535   c0.745-1.22,1.333-2.497,1.465-3.912c0.074-0.796,0.092-1.597,0.149-2.394c0.055-0.778-0.052-1.577-1.07-1.931   c-0.528-0.184-0.99-0.528-1.487-0.792c-0.134-0.071-0.291-0.154-0.441-0.044c-0.17,0.126-0.035,0.268,0.006,0.402   c0.294,0.982,0.595,1.961,0.877,2.946c0.064,0.225,0.054,0.457-0.002,0.701c-0.185,0.797-0.278,1.615-0.493,2.404   c-0.263,0.965-0.494,1.969-1.462,2.612c-0.548-0.394-0.073-0.899-0.109-1.448c-0.985,0.724-1.712,1.562-2.672,2.146   c-0.276,0.168-0.156,0.434-0.017,0.636c0.205,0.298,0.459,0.131,0.643-0.016c0.239-0.191,0.434-0.43,0.643-0.651   c0.125-0.132,0.293-0.379,0.424-0.308c0.571,0.308,0.75-0.25,1.114-0.383c-0.442,1.139-1.445,1.864-2.329,2.661   c-0.308,0.278-0.739,0.385-1.298,0.184c-0.569-0.205-0.498-0.541-0.543-0.892c-0.113-0.879,0.055-1.782-0.279-2.643   c-0.139-0.359-0.173-0.752-0.279-1.107c-0.213-0.71-0.257-1.471-0.634-2.134c-0.544-0.956-1.298-1.769-2.192-2.439   c-0.53-0.397-1.086-0.82-1.841-0.858c-1.518-0.078-2.977,0.081-4.318,0.812c-0.948,0.518-1.7,1.241-1.833,2.259   c-0.092,0.709-0.23,1.461,0.072,2.201c0.214,0.523,0.012,0.627-0.598,0.493c-0.923-0.203-1.854-0.395-2.793-0.51   c-0.653-0.08-1.186,0.359-1.776,0.536c-1.092,0.327-1.593,0.996-1.804,1.969c-0.063,0.29-0.157,0.578-0.276,0.852   c-0.396,0.906-0.248,1.818,0.002,2.71c0.257,0.917,0.758,1.698,1.764,2.08c0.187,0.071,0.294,0.216,0.436,0.332   c1.161,0.957,2.467,1.631,4.011,1.92c0.738,0.138,1.487,0.301,2.196,0.528c0.785,0.251,1.57,0.472,2.383,0.61   c0.406,0.069,0.817,0.118,1.226,0.173c0.231,0.031,0.455,0.079,0.469,0.348c0.013,0.255-0.18,0.364-0.408,0.421   c-0.184,0.046-0.373,0.071-0.561,0.104c-1.179,0.206-2.309-0.166-3.462-0.26c-0.213-0.017-0.429-0.193-0.642-0.11   c-0.509,0.198-0.945-0.012-1.366-0.198c-0.728-0.321-1.454-0.586-2.284-0.481c-0.184,0.023-0.386-0.007-0.568-0.052   c-1.619-0.398-2.976,0.325-4.367,0.89c-0.165,0.067-0.302,0.217-0.424,0.351c-0.894,0.971-1.32,2.052-1.098,3.368   c0.134,0.794,0.314,1.585,0.561,2.335c0.43,1.304,1.574,1.966,2.97,2.214c0.566,0.1,1.115,0.227,1.643,0.432   c0.339,0.131,0.579,0.352,0.627,0.717c0.067,0.499,0.105,1.006,0.223,1.495c0.242,1.001,0.41,2.069,1.776,2.339   c0.084,0.017,0.166,0.09,0.226,0.155c0.567,0.611,1.39,0.741,2.149,0.954c1.304,0.367,2.617,0.174,3.898-0.137   c0.602-0.146,1.133-0.497,1.777-0.585c0.166-0.023,0.848-0.101,0.362-0.627c-0.096-0.104,0.078-0.203,0.208-0.192   c0.519,0.041,0.387-0.37,0.768-0.647c-0.491,0.056-0.454,0.453-0.753,0.341c-0.231-0.087-0.188-0.307-0.147-0.464   c0.29-1.125,0.416-2.278,0.681-3.405c0.091-0.385,0.154-0.726,0.084-1.121c-0.292-1.643-0.455-3.297-0.357-4.965   c0.014-0.234-0.022-0.476,0.126-0.693c0.121-0.177,0.291-0.276,0.46-0.112c0.373,0.36,0.734,0.712,0.748,1.289   c0.048,2.043-0.061,4.079-0.143,6.119c-0.053,1.314,0.348,2.528,1.845,3.111c0.173,0.068,0.337,0.172,0.481,0.287   c0.837,0.666,1.788,0.927,2.877,0.744c0.187-0.031,0.406-0.087,0.566-0.029c0.818,0.3,1.491,0.119,2.158-0.388   c0.338-0.257,0.911-0.265,0.858-0.867c-0.006-0.066,0.221-0.229,0.263-0.209c0.63,0.308,0.715-0.203,0.961-0.511   c0.074-0.093,0.223-0.287,0.453-0.164c-0.096,0.573-0.453,0.985-0.816,1.401c-0.551,0.631-1.263,1.076-1.964,1.535   c-0.342,0.224-0.654,0.626-1.116,0.135c-0.115-0.122-0.292,0.043-0.442,0.065c-0.985,0.147-1.768,0.608-2.43,1.292   c-0.255,0.263-0.532,0.534-1.065,0.699c0.347-0.617,0.853-0.907,1.182-1.331c0.219-0.282,0.151-0.43-0.244-0.385   c0.125-0.122,0.278-0.228,0.367-0.369c0.088-0.14-0.017-0.307-0.14-0.372c-0.183-0.098-0.287,0.093-0.339,0.2   c-0.1,0.208-0.131,0.441-0.013,0.664c-0.338,0.181-0.552,0.488-0.841,0.716c-0.491,0.385-0.9,0.89-1.752,1.095   c0.588-0.49,1.049-0.848,1.473-1.241c0.163-0.151,0.494-0.277,0.369-0.558c-0.13-0.291-0.499-0.211-0.762-0.278   c-0.23-0.059-0.41,0.13-0.595,0.239c-0.594,0.349-1.127,0.771-1.642,1.214c-0.128,0.11-0.253,0.284-0.545,0.057   c0.652-0.551,1.293-1.093,1.948-1.647c-0.188-0.245-0.402-0.357-0.671-0.329c-0.361,0.038-0.41-0.05-0.324-0.387   c0.074-0.291-0.254-0.455-0.509-0.573c-0.297-0.138-0.48,0.07-0.633,0.259c-0.191,0.236-0.361,0.487-0.526,0.74   c-0.311,0.476-0.662,0.871-1.355,0.741c-0.077-0.015-0.245,0.043-0.245,0.063c0.025,0.671-0.644,0.848-1.028,1.19   c-0.945,0.843-1.967,1.612-2.957,2.41c-0.046-0.043-0.091-0.087-0.137-0.13c0.831-0.799,1.663-1.597,2.622-2.519   c-0.709,0.068-1.208,0.009-1.698,0.191c-0.487,0.181-0.989,0.148-1.475-0.054c-0.344-0.143-0.709-0.219-1.046-0.406   c-0.66-0.366-1.347-0.478-2.024,0.049c-0.274,0.213-0.636,0.329-0.958,0.489c0.223-0.385,0.517-0.67,0.902-0.884   c0.174-0.097,0.442-0.245,0.339-0.476c-0.114-0.256-0.397-0.366-0.707-0.353c-0.414,0.017-0.71,0.273-0.994,0.495   c-1.287,1.007-2.552,2.039-3.825,3.061c0.096-0.352,0.279-0.629,0.595-0.872c1.1-0.846,2.165-1.731,3.251-2.593   c0.587-0.465,0.585-0.448,0.05-0.944c-0.323-0.299-0.675-0.586-0.267-1.094c0.118-0.147,0.146-0.624-0.205-0.682   c-0.738-0.121-0.762-0.641-0.826-1.125c-0.062-0.475-0.303-0.684-0.801-0.693c-0.155-0.003-0.336-0.024-0.459-0.101   c-0.559-0.351-0.965-0.17-1.424,0.218c-1.481,1.252-2.872,2.594-4.418,3.78c-0.449,0.344-0.246,0.703,0.049,1.108   c0.652-0.518,1.235-1.021,1.862-1.47c0.67-0.479,1.192-1.17,2.098-1.325l-0.025-0.026c-0.175,0.446-0.612,0.672-0.951,0.977   c-0.434,0.39-0.889,0.76-1.325,1.149c-0.395,0.352-0.471,0.786-0.377,1.4c0.781-0.532,1.484-0.976,2.144-1.469   c0.719-0.536,1.398-1.119,2.098-1.678c0.189-0.151,0.378-0.344,0.65-0.13c0.033,0.186-0.109,0.267-0.23,0.361   c-1.348,1.037-2.63,2.15-4.062,3.09c-0.324,0.212-0.604,0.427-0.564,0.854c0.048,0.504,0.268,0.64,0.73,0.353   C33.601,83.835,34.27,83.306,34.818,82.656z M61.087,42.174c-0.199,0.188-0.395,0.375-0.651,0.505   c-2.882,1.467-5.391,3.426-7.968,5.293c-0.196,0.142-0.342,0.349-0.49,0.54c-0.086,0.111-0.215,0.253-0.056,0.392   c0.166,0.144,0.283-0.011,0.401-0.093c0.94-0.655,1.885-1.304,2.816-1.97c1.284-0.918,2.546-1.862,3.84-2.767   c0.446-0.312,0.895-0.652,1.545-0.561c0.373,0.052,0.664-0.238,0.864-0.481c0.179-0.216-0.155-0.406-0.249-0.613   c-0.034-0.075-0.038-0.162-0.055-0.244c-0.055-0.013-0.139-0.009-0.16-0.041c-0.495-0.755-0.57-0.774-1.357-0.323   c-0.054,0.031-0.103,0.07-0.155,0.104c-2.366,1.505-4.694,3.059-6.936,4.723c-0.575,0.427-1.152,0.854-1.9,1.409   c0.557-0.989,1.714-1.923,4.57-3.834c1.646-1.101,3.252-2.254,4.984-3.241c-0.549-0.752-0.55-0.752-1.247-0.368   c-0.082,0.045-0.163,0.093-0.241,0.144c-3.377,2.219-6.891,4.274-9.75,7.111c-0.112,0.112-0.249,0.222-0.404,0.089   c-0.155-0.133-0.041-0.28,0.058-0.389c0.518-0.566,1.107-1.062,1.726-1.533c2.761-2.106,5.626-4.081,8.578-5.947   c0.336-0.212,0.407-0.384,0.195-0.711c-0.205-0.316-0.43-0.397-0.782-0.226c-1.834,0.893-3.59,1.908-5.207,3.11   c-1.965,1.46-3.941,2.909-5.818,4.47c-0.681,0.566-1.313,1.173-1.955,1.857c0.648,0.224,1.229,0.26,1.684,0.015   c0.672-0.363,1.317-0.253,2.013-0.213c0.582,0.034,1.118,0.19,1.659,0.333c0.359,0.095,0.566,0.082,0.802-0.223   c0.504-0.653,1.14-1.199,1.828-1.683c1.651-1.162,3.306-2.319,4.971-3.463C59.092,42.759,60.023,42.32,61.087,42.174z    M49.03,22.173c0.093,0.054,0.2,0.083,0.242,0.148c0.493,0.758,1.138,1.42,1.543,2.236c0.306,0.616,0.692,1.198,1.043,1.794   c0.079,0.134,0.181,0.253,0.366,0.233c0.18-0.02,0.26-0.147,0.306-0.297c0.473-1.562,0.621-3.141,0.216-4.733   c-0.152-0.596-0.194-0.61-0.863-0.486c-0.993,0.184-1.953,0.049-2.912-0.181c-0.491-0.118-0.995-0.205-1.227-0.916   c-0.915,1.304-1.664,2.449-1.671,3.873c-0.003,0.743,0.096,1.478,0.468,2.156c0.083,0.152,0.197,0.409,0.386,0.269   c0.309-0.229,0.817-0.221,0.936-0.681c0.207-0.796,0.773-1.489,0.715-2.372C48.553,22.855,48.724,22.476,49.03,22.173z    M37.975,53.98c0.041,0.05,0.056,0.088,0.079,0.093c0.715,0.15,0.714,0.15,0.975-0.495c0.021-0.052,0.065-0.1,0.11-0.138   c0.794-0.676,1.588-1.353,2.387-2.024c0.192-0.161,0.412-0.317,0.686-0.221c0.364,0.128,0.495-0.059,0.662-0.313   c0.986-1.505,2.292-2.758,3.642-3.975c1.052-0.949,2.135-1.866,3.286-2.709c2.276-1.668,4.497-3.408,7.023-4.752   c0.44-0.234,0.917-0.408,1.383-0.598c0.127-0.052,0.249-0.112,0.208-0.242c-0.045-0.144-0.169-0.264-0.353-0.241   c-0.122,0.015-0.237,0.075-0.354,0.12c-1.358,0.523-2.631,1.195-3.859,1.941c-1.359,0.825-2.636,1.753-3.879,2.725   c-1.364,1.066-2.75,2.107-4.113,3.175c-2.247,1.761-4.241,3.761-6.227,5.768C39.039,52.693,38.395,53.261,37.975,53.98z    M56.381,38.443c-1.854,0.716-3.533,1.72-5.134,2.823c-2.583,1.78-5.126,3.61-7.664,5.446c-2.362,1.708-4.722,3.421-6.735,5.504   c-0.283,0.293-1.273,1.639-1.396,1.953c0.142-0.069,0.271-0.1,0.352-0.177c1.03-0.969,2.11-1.886,3.222-2.772   c0.528-0.421,0.995-1.091,1.591-1.21c0.756-0.151,1.111-0.612,1.586-1.005c0.523-0.433,0.99-0.924,1.515-1.354   c2.003-1.642,3.959-3.336,6.079-4.852c1.789-1.28,3.528-2.62,5.523-3.631C55.697,38.975,56.156,38.868,56.381,38.443z    M36.539,64.819c-0.042-0.043-0.084-0.085-0.127-0.128c-0.273,0.143-0.566,0.262-0.817,0.433c-1.921,1.313-3.851,2.615-5.696,4.021   c-0.51,0.389-1.096,0.721-1.334,1.355c-0.082,0.218-0.277,0.35-0.519,0.171c-0.185-0.137-0.14-0.322,0.008-0.466   c0.374-0.363,0.724-0.756,1.142-1.069c2.368-1.773,4.813-3.451,7.314-5.138c-0.244-0.274-0.489-0.668-0.89-0.437   c-0.319,0.184-0.675,0.318-0.974,0.534c-1.831,1.322-3.776,2.511-5.473,3.991c-0.445,0.388-1.073,0.679-1.09,1.379   c-0.002,0.07-0.095,0.144-0.158,0.204c-0.551,0.529-0.675,1.215-0.338,1.946c1.723-1.22,3.38-2.507,4.985-3.853   c0.45-0.378,0.904-0.758,1.51-0.891c0.219-0.048,0.342-0.14,0.403-0.321c0.113-0.332,0.37-0.522,0.671-0.714   C35.642,65.531,36.081,65.162,36.539,64.819z M66.833,64.791c0.466,0.384,0.801,0.416,1.205,0.028c0.73-0.7,1.522-1.342,2.277-2.02   c0.249-0.224,0.454-0.502,0.881-0.367c-0.005,0.267-0.208,0.381-0.363,0.515c-0.72,0.624-1.448,1.239-2.167,1.864   c-0.209,0.181-0.405,0.377-0.586,0.583c-0.101,0.116-0.152,0.27,0.008,0.392c0.149,0.115,0.303,0.062,0.434-0.03   c0.1-0.071,0.174-0.172,0.266-0.254c0.575-0.51,1.158-1.013,1.725-1.531c0.281-0.256,0.516-0.365,0.718,0.061   c0.12,0.252,0.28,0.169,0.437,0.037c0.249-0.21,0.401-0.452,0.316-0.784c-0.234-0.922-0.442-1.85-0.702-2.766   c-0.132-0.466-0.333-0.51-0.746-0.198c-0.592,0.447-1.16,0.921-1.742,1.381c-0.776,0.613-1.559,1.219-2.329,1.838   c-0.21,0.169-0.479,0.354-0.164,0.654c0.232,0.221,0.46,0.172,0.663-0.021c0.979-0.931,2.239-1.56,3.151-2.563   c0.162-0.178,0.361-0.332,0.563-0.472c0.136-0.094,0.316-0.092,0.423,0.048c0.094,0.123-0.032,0.218-0.12,0.297   c-0.092,0.082-0.201,0.146-0.297,0.223C69.41,62.726,68.135,63.748,66.833,64.791z M30.29,60.282   c0.597-0.305,0.972-0.709,1.009-1.32c0.03-0.498,0.375-0.804,0.709-1.112c0.163-0.15,0.434-0.26,0.446,0.116   c0.018,0.565,0.293,0.345,0.518,0.155c0.589-0.495,1.123-1.052,1.744-1.507c0.674-0.494,1.448-0.847,2.1-1.399   c0.316-0.268,0.531-0.501,0.476-0.828c-0.054-0.32,0.066-0.51,0.261-0.709c0.686-0.699,1.377-1.393,2.06-2.094   c0.182-0.187,0.427-0.347,0.427-0.798c-2.619,2.083-4.983,4.252-7.272,6.518c0.035-0.256,0.141-0.46,0.28-0.64   c0.392-0.507,0.456-1.163,0.894-1.653c0.182-0.204-0.013-0.417-0.197-0.517c-0.158-0.086-0.279,0.089-0.345,0.214   c-0.188,0.356-0.424,0.653-0.843,0.801c-0.231,0.081-0.277,0.315-0.369,0.499c-0.589,1.182-1.174,2.365-1.754,3.551   C30.333,59.766,30.215,59.976,30.29,60.282z M58.862,49.398c-0.489,0.755-1.031,1.253-1.813,1.691   c-0.654,0.366-1.308,0.731-1.965,1.092c-0.305,0.168-0.371,0.424-0.209,0.68c0.149,0.235,0.397,0.098,0.589,0.009   c1.288-0.598,2.52-1.287,3.493-2.287c0.257-0.264,0.926-0.272,0.72-0.896c-0.131-0.398-0.253-0.797-0.47-1.161   c-0.107-0.179-0.29-0.32-0.39-0.501c-0.407-0.732-0.521-0.573-1.038-0.182c-1.01,0.765-1.959,1.603-3.123,2.179   c-0.247,0.122-0.445,0.33-0.66,0.505c-0.102,0.083-0.149,0.201-0.08,0.318c0.092,0.155,0.244,0.176,0.404,0.096   c0.224-0.113,0.461-0.213,0.66-0.358c0.947-0.689,2.11-1.12,2.833-2.08c0.128-0.17,0.366-0.314,0.555-0.078   c0.161,0.2-0.09,0.298-0.218,0.415c-0.797,0.734-1.725,1.309-2.644,1.895c-0.339,0.217-0.671,0.444-0.995,0.68   c-0.106,0.077-0.122,0.209-0.054,0.323c0.07,0.119,0.198,0.147,0.326,0.107c0.149-0.047,0.302-0.099,0.433-0.178   c0.773-0.465,1.589-0.866,2.299-1.428C57.902,49.935,58.261,49.551,58.862,49.398z M47.477,18.831   c0.378-0.024,0.63-0.218,0.909-0.342c0.349-0.155,0.746-0.317,1.088-0.238c0.935,0.218,1.969,0.032,2.819,0.595   c0.264,0.175,0.465,0.064,0.636-0.162c0.359-0.473,0.328-1.009,0.258-1.532c-0.078-0.581-0.228-0.693-0.816-0.516   c-0.831,0.25-1.67,0.175-2.433-0.053c-0.729-0.218-1.437-0.156-2.156-0.214c-0.409-0.033-0.584,0.148-0.63,0.492   C47.061,17.545,47.19,18.194,47.477,18.831z M55.802,55.443c0.713-0.367,1.33-0.726,1.816-1.255   c0.248-0.27,0.506-0.533,0.763-0.795c0.118-0.12,0.28-0.177,0.425-0.082c0.175,0.114,0.083,0.27-0.022,0.381   c-0.316,0.333-0.614,0.69-0.976,0.974c-0.51,0.399-1.054,0.765-1.615,1.1c-0.429,0.256-0.482,0.601-0.402,1.001   c0.09,0.445,0.359,0.523,0.705,0.192c0.51-0.487,1.001-0.992,1.487-1.501c0.199-0.208,0.414-0.451,0.717-0.321   c0.54,0.231,0.578-0.119,0.689-0.432c0.404-1.14,0.522-2.315,0.49-3.508c-0.004-0.17,0.045-0.369-0.235-0.441   c-1.094,0.992-2.395,1.725-3.735,2.405c-0.14,0.071-0.278,0.145-0.415,0.22c-0.217,0.12-0.34,0.298-0.216,0.519   c0.146,0.259,0.367,0.157,0.565,0.04c0.83-0.491,1.729-0.894,2.398-1.595c0.21-0.22,0.536-0.316,0.702-0.589   c0.025-0.041,0.188-0.045,0.263-0.015c0.159,0.065,0.111,0.199,0.037,0.293c-0.132,0.167-0.283,0.321-0.432,0.475   c-0.761,0.784-1.72,1.304-2.704,1.801C55.507,54.612,55.521,54.637,55.802,55.443z M30.445,80.758   c1.685-1.386,3.454-2.578,4.868-4.144c-0.337-0.291-0.688-0.49-1.033-0.702c-0.32-0.196-0.522-0.179-0.827,0.059   c-1.072,0.839-2.022,1.788-2.977,2.735c-0.21,0.208-0.325,0.418-0.313,0.709C30.181,79.832,30.191,80.245,30.445,80.758z    M32.25,70.337c-1.655,1.348-3.134,2.816-4.7,4.2c-0.524,0.463-1.117,1.094-0.514,1.9c0.166,0.026,0.259-0.066,0.349-0.145   c1.509-1.312,3.063-2.577,4.391-4.067C32.302,71.635,32.285,71.023,32.25,70.337z M33.367,67.95   c-0.477,0.024-0.648,0.22-0.826,0.377c-1.429,1.27-3.062,2.316-4.495,3.584c-0.699,0.618-0.794,0.831-0.413,1.76   c0.083-0.037,0.18-0.057,0.243-0.112c1.293-1.139,2.652-2.216,3.769-3.52c0.158-0.185,0.302-0.452,0.511-0.515   C32.965,69.277,32.95,68.557,33.367,67.95z M60.467,46.808c0.378,0.417,0.711,0.248,1.042-0.053   c0.514-0.467,0.971-0.994,1.685-1.313c-0.315-0.502-0.59-0.964-0.89-1.412c-0.425-0.635-0.461-0.658-1.093-0.271   c-0.901,0.552-1.832,1.066-2.664,1.712c-0.097,0.075-0.212,0.132-0.307,0.21c-0.123,0.101-0.229,0.224-0.089,0.372   c0.11,0.116,0.264,0.181,0.425,0.096c0.136-0.072,0.261-0.168,0.379-0.266c0.522-0.433,1.036-0.874,1.562-1.303   c0.278-0.226,0.554-0.493,1.092-0.281c-0.723,0.766-1.635,1.264-2.342,1.952c0.353,0.411,0.672,0.328,0.995,0.035   c0.433-0.393,0.866-0.786,1.307-1.17c0.184-0.16,0.392-0.27,0.656-0.078C61.81,45.804,60.938,46.127,60.467,46.808z M53.89,32.733   c-0.377-0.748-0.729-1.408-1.007-2.104c-0.161-0.404-0.317-0.828-0.523-1.223c-0.121-0.232-0.208-0.511-0.564-0.544   c-0.865-0.08-1.881,0.629-2.052,1.454c0.092,0.009,0.187,0.04,0.271,0.023c0.489-0.098,0.976-0.201,1.461-0.312   c0.766-0.175,0.867-0.086,0.68,0.603c-0.07,0.258-0.134,0.519-0.189,0.78c-0.056,0.264-0.032,0.446,0.355,0.464   c0.396,0.019,0.287,0.244,0.085,0.401c-0.312,0.242-0.728,0.387-0.789,0.839c-0.024,0.177-0.103,0.365,0.069,0.498   c0.178,0.138,0.363,0.036,0.524-0.06C52.716,33.251,53.203,32.917,53.89,32.733z M55.433,13.327   c0.596-0.22,1.332-0.421,1.987-0.794c3.015-1.715,5.92-3.577,8.661-5.657c0.172-0.13,0.333-0.275,0.488-0.423   c0.181-0.172,0.065-0.341-0.055-0.474c-0.155-0.172-0.277-0.004-0.385,0.081c-0.607,0.478-1.203,0.968-1.813,1.444   c-2.124,1.656-4.314,3.227-6.763,4.452c-0.692,0.346-1.368,0.752-2.225,0.672c-0.29-0.027-0.322,0.232-0.304,0.453   C55.037,13.242,55.096,13.37,55.433,13.327z M27.876,68.629c1.344-1.35,2.911-2.26,4.346-3.325   c0.894-0.663,1.823-1.286,2.768-1.884c0.23-0.145,0.468-0.196,0.311-0.499c-0.158-0.306-0.401-0.471-0.765-0.282   c-0.193,0.1-0.368,0.234-0.54,0.365c-1.38,1.047-2.758,2.097-4.136,3.146c-0.397,0.302-0.763,0.646-1.011,1.054   c-0.197,0.325-0.382,0.607-0.776,0.725C27.748,68.026,27.75,68.241,27.876,68.629z M57.907,46.914   c-0.145-0.111-0.235-0.192-0.337-0.257c-0.763-0.482-0.755-0.471-1.455,0.033c-0.929,0.669-1.874,1.319-2.812,1.977   c-0.177,0.124-0.36,0.243-0.524,0.381c-0.091,0.076-0.169,0.199-0.044,0.3c0.06,0.048,0.182,0.069,0.26,0.048   c0.117-0.03,0.232-0.094,0.329-0.166c0.867-0.647,1.875-1.112,2.685-1.833c0.233-0.207,0.501-0.43,0.917-0.249   c-0.185,0.31-0.446,0.473-0.699,0.646c-0.819,0.557-1.639,1.111-2.449,1.678c-0.186,0.13-0.539,0.253-0.353,0.529   c0.179,0.265,0.452,0.045,0.675-0.051c0.057-0.025,0.117-0.05,0.166-0.086C55.502,48.943,56.846,48.14,57.907,46.914z    M47.932,29.666c0.403-0.401,0.654-0.801,0.868-1.222c0.372-0.732,0.385-0.739,1.123-0.275c0.304,0.191,0.604,0.338,0.945,0.061   c0.351-0.285,0.422-0.587,0.141-1.017c-0.296-0.453-0.647-0.874-0.974-1.31c-0.388-0.516-0.501-0.515-0.834,0.024   c-0.095,0.153-0.183,0.311-0.249,0.476c-0.367,0.911-0.724,1.826-1.09,2.738C47.804,29.283,47.751,29.417,47.932,29.666z    M56.441,93.927c0.308,0.177,0.487,0.019,0.678-0.07c0.654-0.303,1.306-0.612,1.961-0.912c0.256-0.118,0.491-0.243,0.7-0.442   c1.313-1.248,2.702-2.421,4.119-3.565c0.75-0.606,0.745-0.612,0.071-1.35c-0.196,0.095-0.304,0.325-0.236,0.439   c0.209,0.347-0.062,0.496-0.253,0.668c-0.753,0.679-1.52,1.343-2.278,2.018c-0.187,0.167-0.393,0.372-0.641,0.352   c-0.482-0.039-0.759,0.252-1.081,0.476c-0.509,0.355-1.018,0.71-1.503,1.091C57.459,93.042,56.966,93.484,56.441,93.927z    M27.254,77.894c0.203-0.277,0.583-0.299,0.712-0.6c0.11-0.255,0.058-0.67,0.524-0.608c0.403,0.053,0.547-0.208,0.786-0.393   c1.058-0.82,1.823-1.903,2.849-2.745c0.268-0.22,0.38-0.473,0.185-0.676c-0.283-0.295-0.502,0.032-0.673,0.212   c-1.141,1.2-2.406,2.278-3.696,3.332c-0.331,0.27-0.424,0.714-0.834,0.943C26.954,77.444,27.006,77.683,27.254,77.894z    M68.578,84.533c-0.696,0.96-1.948,1.467-2.519,2.682c0.774-0.195,1.48,0.178,2.016-0.385c0.133,0.299-0.065,0.395-0.161,0.538   c-0.093,0.138-0.239,0.277-0.093,0.527c0.93-0.752,1.372-1.782,1.996-2.716c-0.449,0.198-0.86,0.422-1.339,0.158   C68.519,85.087,68.769,84.89,68.578,84.533z M65.489,63.685c0.264-0.046,0.459-0.21,0.638-0.37c1.37-1.226,3.005-2.17,4.276-3.502   c0.187-0.196,0.712-0.302,0.384-0.649c-0.29-0.308-0.522,0.14-0.782,0.248c-0.027,0.011-0.047,0.039-0.071,0.059   c-1.233,1.068-2.589,1.992-3.936,2.927c-0.302,0.209-0.561,0.477-0.818,0.736c-0.109,0.11-0.124,0.267-0.021,0.41   C65.239,63.655,65.359,63.679,65.489,63.685z M39.102,7.56c0.143,0.169,0.204,0.277,0.298,0.346c1.17,0.864,2.458,1.559,3.753,2.24   c0.494,0.26,1.033,0.45,1.558,0.655c0.205,0.08,0.47,0.14,0.607-0.069c0.154-0.235-0.061-0.36-0.265-0.472   c-1.826-1.003-3.721-1.882-5.64-2.719C39.366,7.521,39.296,7.546,39.102,7.56z M55.487,90.469c-1.764,0.465-4.133,2.316-4.61,3.572   c0.696,0.19,1.142-0.21,1.573-0.598c1.018-0.916,1.912-1.946,2.988-2.808C55.458,90.62,55.456,90.58,55.487,90.469z M31.75,60.694   c0.601-0.284,1.14-0.594,1.54-1.066c0.18-0.212,0.394-0.424,0.671-0.479c0.559-0.112,0.759-0.462,0.877-0.925   c0.102-0.398,0.423-0.763,0.192-1.311C33.575,57.979,32.36,59.108,31.75,60.694z M57.033,9.677c1.688-0.472,6.876-3.919,7.44-4.821   c-0.373-0.007-0.703,0.121-0.968,0.324C61.419,6.772,59.175,8.165,57.033,9.677z M30.393,77.945   c1.073-0.665,1.83-1.562,2.754-2.288c0.216-0.169,0.224-0.328,0.07-0.533c-0.153-0.205-0.347-0.269-0.571-0.141   c-0.27,0.154-0.548,0.311-0.775,0.513c-0.483,0.428-0.927,0.893-1.401,1.331C29.959,77.299,29.953,77.293,30.393,77.945z    M42.239,51.592c-1.168,0.593-1.941,1.326-2.807,2.055c0.838,0.591,1.607,0.157,2.347,0.152c0.144-0.001,0.213-0.198,0.231-0.351   C42.079,52.897,42.146,52.347,42.239,51.592z M69.394,72.186c0.469-0.075,0.67-0.396,0.929-0.643   c0.403-0.384,0.823-0.746,1.304-1.036c0.817-0.493,0.824-0.483,0.463-1.464C71.127,70.104,69.68,70.698,69.394,72.186z    M40.42,10.579c-1.576-1.119-3.234-2.107-5.004-2.933c-0.117,0.218-0.059,0.325,0.038,0.402c0.902,0.714,1.944,1.232,2.953,1.788   C39.019,10.173,39.648,10.536,40.42,10.579z M69.077,67.597c0.092-0.049,0.184-0.081,0.254-0.137   c0.841-0.674,1.676-1.354,2.52-2.024c0.132-0.105,0.201-0.22,0.219-0.373c0.017-0.153,0.007-0.316-0.133-0.403   c-0.156-0.096-0.298,0.007-0.42,0.107c-0.907,0.736-1.623,1.658-2.598,2.328c-0.116,0.08-0.114,0.211-0.045,0.319   C68.919,67.485,69.005,67.534,69.077,67.597z M52.773,89.922c-1.338,0.889-2.399,2.025-3.373,3.239   C51.134,92.636,51.833,91.168,52.773,89.922z M63.811,46.449c-0.072-0.095-0.158-0.255-0.288-0.374   c-0.191-0.174-0.352-0.003-0.489,0.099c-0.418,0.311-0.826,0.634-1.232,0.958c-0.279,0.222-0.371,0.42-0.038,0.717   c0.289,0.258,0.486,0.328,0.775,0.039c0.343-0.343,0.707-0.667,1.055-1.006C63.7,46.78,63.832,46.683,63.811,46.449z M68.138,8.506   c-2.298,1.309-4.553,2.679-6.83,4.021C63.736,11.411,66.023,10.087,68.138,8.506z M45.009,13.219   c-1.532-0.794-3.207-1.207-4.792-1.835C41.786,12.076,43.091,13.365,45.009,13.219z M46.626,95.641   c1.014,0.909,1.998,0.17,2.936,0.293c0.049-0.365-0.112-0.601-0.349-0.635C48.354,95.178,47.478,95.069,46.626,95.641z    M72.144,67.775c-0.843,0.679-1.605,1.287-2.359,1.903c-0.279,0.228-0.425,0.491-0.143,0.831c0.33-0.104,0.519-0.333,0.738-0.542   c0.46-0.44,0.814-1.025,1.419-1.27C72.309,68.491,72.272,68.232,72.144,67.775z M32.659,74.399   c-0.801-0.025-1.144,0.397-1.525,0.771c-0.414,0.407-0.858,0.787-1.267,1.198c-0.358,0.36-0.797,0.669-0.934,1.194   C30.14,76.538,31.346,75.514,32.659,74.399z M68.97,73.302c0.046,0.05,0.092,0.101,0.138,0.151c0.903-0.434,1.548-1.19,2.377-1.72   c0.26-0.166,0.532-0.321,0.783-0.5c0.131-0.093,0.225-0.231,0.104-0.379c-0.119-0.146-0.285-0.086-0.433-0.029   c-0.058,0.022-0.115,0.054-0.161,0.093C70.841,71.712,69.906,72.507,68.97,73.302z M46.136,33.323   c0.864-0.797,1.548-2.265,1.505-3.23C47.02,30.901,46.255,32.544,46.136,33.323z M72.055,66.372   c-0.685,0.094-1.183,0.475-1.643,0.85c-0.446,0.364-1.153,0.592-1.034,1.414C70.27,67.882,71.162,67.127,72.055,66.372z    M63.473,49.079c-0.179-0.701,0.256-0.987,0.79-1.212c0.172-0.073,0.368-0.153,0.214-0.389c-0.122-0.188-0.259-0.344-0.533-0.217   c-0.287,0.133-0.532,0.315-0.774,0.51C62.685,48.162,62.753,48.596,63.473,49.079z M52.461,79.775   c-0.158,0.224,0,0.338,0.037,0.471c0.184,0.664,1.132,1.05,1.739,0.717c0.119-0.066,0.235-0.151,0.197-0.264   c-0.031-0.095-0.167-0.226-0.256-0.226C53.502,80.476,53.067,79.977,52.461,79.775z M58.004,89.39   c-1.266,0.933-1.525,1.235-1.534,1.787c0.603-0.104,0.987-0.616,1.583-0.735c0.12-0.024,0.248-0.21,0.155-0.263   C57.842,89.97,58.269,89.603,58.004,89.39z M45.872,34.974c1.458-0.636,1.738-0.952,1.626-1.738   C46.691,33.541,46.172,34.085,45.872,34.974z M51.254,19.934c-0.847-0.482-1.568-0.49-2.433-0.035   C49.66,20.339,50.374,20.466,51.254,19.934z M36.762,49.434c0.992-0.797,1.729-2.176,1.676-3.172   C37.902,47.386,37.223,48.254,36.762,49.434z M33.837,84.538c-0.579,0.09-0.749,0.457-1.054,0.656   c-0.304,0.199-0.254,0.44-0.124,0.698c0.072,0.144,0.187,0.262,0.367,0.205c0.279-0.088,0.55-0.237,0.545-0.545   C33.566,85.223,33.696,84.927,33.837,84.538z M48.45,93.211c0.616-0.372,0.963-0.891,1.383-1.47   c-0.668,0.104-1.1,0.407-1.559,0.657c-0.271,0.147-0.28,0.26,0.018,0.408C48.371,92.845,48.196,93.084,48.45,93.211z    M70.551,64.911c-0.774,0.293-1.343,0.792-1.904,1.299c-0.087,0.078-0.158,0.187-0.195,0.294c-0.041,0.122,0.038,0.225,0.149,0.298   c0.099,0.065,0.198,0.02,0.256-0.042C69.426,66.147,69.987,65.529,70.551,64.911z M29.758,79.578   c-0.76,0.519-0.819,0.742-0.472,1.484c0.068,0.145,0.112,0.377,0.38,0.294c0.203-0.064,0.286-0.222,0.259-0.423   C29.868,80.523,29.701,80.132,29.758,79.578z M33.883,87.915c-0.43,0.026-0.809,0.225-1.144,0.504   c-0.056,0.047-0.086,0.158-0.074,0.232c0.022,0.146,0.175,0.179,0.291,0.158c0.401-0.072,0.82-0.102,1.158-0.358   c0.123-0.093,0.27-0.179,0.206-0.354C34.254,87.92,34.06,87.967,33.883,87.915z M64.528,84.687   c-0.896,0.113-1.225,0.755-1.673,1.252c-0.024,0.026,0.007,0.119,0.041,0.161c0.096,0.119,0.216,0.084,0.335,0.025   C63.827,85.825,64.303,85.423,64.528,84.687z M38.325,87.906c-0.682,0.085-1.204,0.456-1.736,0.804   c-0.109,0.071-0.137,0.208-0.075,0.322c0.087,0.159,0.253,0.188,0.401,0.1C37.461,88.809,37.987,88.461,38.325,87.906z    M28.891,79.425c0.745-0.544,0.745-0.544,0.636-1.53C28.701,78.26,28.701,78.26,28.891,79.425z M46.39,93.933   c-0.046-0.191-0.138-0.333-0.318-0.236c-0.375,0.203-0.737,0.432-1.082,0.678c-0.141,0.1-0.094,0.258,0.027,0.382   c0.141,0.143,0.351,0.25,0.465,0.066c0.182-0.293,0.449-0.451,0.738-0.615C46.311,94.157,46.342,94.016,46.39,93.933z    M37.413,6.877c-0.698-0.919-0.974-1.094-1.704-1.148C36.143,6.34,36.143,6.34,37.413,6.877z M38.071,90.419   c-0.256,0.003-0.672,0.296-0.677,0.449c-0.009,0.232,0.375,0.611,0.604,0.569c0.22-0.04,0.464-0.144,0.402-0.395   C38.344,90.815,38.411,90.488,38.071,90.419z M32.885,87.593c-0.025-0.335-0.375-0.28-0.572-0.344   c-0.284-0.093-0.597,0.066-0.675,0.329c-0.072,0.244,0.166,0.431,0.422,0.501C32.313,88.147,32.855,87.815,32.885,87.593z    M45.623,90.699c-0.83,0.182-1.225,0.575-1.371,1.359C44.832,91.691,45.32,91.314,45.623,90.699z M36.432,7.2   c0.511,0.688,1.24,1.043,2.068,1.25C37.899,7.904,37.223,7.469,36.432,7.2z M50.596,31.621c0.39-0.195,0.816-0.371,0.818-0.887   c0-0.079-0.06-0.149-0.187-0.143C50.857,30.609,50.636,30.901,50.596,31.621z M50.296,32.92c0.975-0.258,1.114-0.421,1.015-1.109   C50.719,31.981,50.625,32.547,50.296,32.92z M55.889,13.972c-0.58,0.327-1.248,0.241-1.365,1.068   C55.073,14.747,55.768,14.913,55.889,13.972z M58.412,62.003c0.446,0.298,0.916,0.514,1.515,0.301   C59.465,62.06,59.021,61.754,58.412,62.003z M55.075,94.115c-0.568,0.144-0.874,0.517-1.257,0.899   C54.801,95.008,54.801,95.008,55.075,94.115z M48.741,34.181c0.127-0.045,0.222-0.062,0.298-0.107   c0.34-0.202,0.735-0.371,0.692-0.844c-0.003-0.033-0.103-0.091-0.146-0.083c-0.467,0.086-0.763,0.356-0.903,0.775   C48.666,33.969,48.705,34.032,48.741,34.181z M31.076,87.028c0.595-0.012,0.873-0.294,1.138-0.571   c0.107-0.111,0.087-0.295-0.025-0.412c-0.149-0.154-0.302-0.038-0.395,0.07C31.565,86.379,31.362,86.661,31.076,87.028z    M61.536,11.335c0.987-0.271,1.479-0.582,1.874-1.182C62.763,10.533,62.134,10.845,61.536,11.335z M49.855,31.746   c-0.406,0.085-0.625,0.29-0.79,0.546c-0.039,0.061-0.038,0.175-0.002,0.239c0.046,0.083,0.165,0.095,0.249,0.04   C49.593,32.389,49.894,32.212,49.855,31.746z M37.216,91.475c-0.049-0.219-0.2-0.338-0.405-0.292   c-0.202,0.046-0.468,0.12-0.469,0.363c-0.001,0.174,0.171,0.347,0.369,0.344C36.979,91.886,37.161,91.723,37.216,91.475z    M47.582,93.463C47.426,93.595,47.1,93.666,47.14,94c0.018,0.151,0.197,0.277,0.342,0.246c0.317-0.068,0.416-0.324,0.422-0.602   C47.909,93.5,47.794,93.453,47.582,93.463z M31.432,82.438c-0.305,0.013-0.436,0.201-0.48,0.449   c-0.04,0.223,0.015,0.438,0.305,0.44c0.242,0.002,0.279-0.194,0.27-0.383C31.52,82.774,31.569,82.593,31.432,82.438z    M43.731,95.163c0.341,0.199,0.666,0.327,1.069,0.201C44.308,94.784,44.308,94.784,43.731,95.163z M33.907,86.878   c-0.057-0.131-0.13-0.268-0.323-0.245c-0.292,0.034-0.45,0.206-0.436,0.477c0.008,0.142,0.069,0.312,0.283,0.263   C33.692,87.312,33.869,87.156,33.907,86.878z M52.534,94.317c-0.37,0.181-0.617,0.285-0.843,0.419   c-0.111,0.066-0.123,0.206-0.045,0.31c0.078,0.103,0.209,0.135,0.324,0.054C52.209,94.932,52.401,94.729,52.534,94.317z    M50.956,79.028c0.102,0.117,0.22,0.075,0.337,0.037c0.179-0.058,0.364-0.109,0.328-0.346c-0.018-0.117-0.042-0.241-0.174-0.28   c-0.249-0.075-0.299,0.15-0.411,0.27C50.952,78.799,50.921,78.913,50.956,79.028z M43.329,94.138   c-0.296,0.191-0.796,0.135-0.894,0.575c-0.006,0.027,0.09,0.111,0.117,0.103C42.913,94.71,43.131,94.442,43.329,94.138z    M35.529,90.996c0.455-0.115,0.809-0.182,1.02-0.509c0.017-0.026-0.039-0.135-0.078-0.145c-0.42-0.109-0.576,0.261-0.849,0.421   C35.601,90.775,35.599,90.816,35.529,90.996z M34.888,90.324c0.208-0.069,0.47-0.117,0.465-0.432   c-0.002-0.097-0.074-0.185-0.171-0.161c-0.242,0.058-0.507,0.133-0.588,0.38C34.558,90.22,34.719,90.295,34.888,90.324z    M49.645,93.694c-0.199,0.104-0.499,0.141-0.497,0.422c0.001,0.128,0.17,0.256,0.334,0.247c0.309-0.018,0.366-0.256,0.396-0.482   C49.895,93.75,49.805,93.676,49.645,93.694z M67.531,74.229c0.208,0.2,0.414,0.088,0.608-0.001c0.11-0.051,0.241-0.139,0.201-0.269   c-0.055-0.182-0.253-0.169-0.385-0.122C67.764,73.904,67.526,73.965,67.531,74.229z M36.24,89.882   c-0.021-0.361,0.022-0.642-0.375-0.684c-0.072-0.008-0.212,0.074-0.224,0.132C35.563,89.687,35.865,89.743,36.24,89.882z    M59.129,89.359c-0.251,0.139-0.519,0.257-0.458,0.614c0.005,0.032,0.107,0.081,0.15,0.071c0.324-0.076,0.402-0.31,0.403-0.584   C59.224,89.439,59.187,89.419,59.129,89.359z M67.1,83.706c-0.418,0.082-0.647,0.269-0.805,0.545   c-0.041,0.072-0.018,0.186,0.088,0.22c0.082,0.026,0.199,0.047,0.263,0.011C66.909,84.336,66.969,84.071,67.1,83.706z    M48.237,34.477c0.067-0.196-0.021-0.256-0.108-0.263c-0.325-0.025-0.41,0.221-0.507,0.433c-0.051,0.111-0.043,0.247,0.115,0.276   c0.232,0.043,0.317-0.149,0.423-0.285C48.213,34.569,48.235,34.479,48.237,34.477z M42.203,13.385   c0.409,0.368,0.731,0.537,1.151,0.51C43.061,13.665,42.777,13.417,42.203,13.385z M40.879,43.5c0.487-0.287,0.708-0.555,0.838-0.9   C41.38,42.772,41.102,42.992,40.879,43.5z M64.309,86.745c0.188-0.063,0.456-0.045,0.494-0.317   c0.014-0.101-0.098-0.137-0.193-0.133c-0.229,0.009-0.458,0.037-0.495,0.307C64.101,86.704,64.19,86.747,64.309,86.745z    M31.471,84.023c-0.161,0.337-0.087,0.565,0.138,0.756c0.017,0.015,0.145-0.034,0.153-0.067   C31.821,84.459,31.813,84.217,31.471,84.023z M40.923,94.019c-0.241-0.244-0.374-0.488-0.725-0.378   c-0.073,0.023-0.103,0.082-0.066,0.144C40.279,94.036,40.489,94.16,40.923,94.019z M59.748,80.584   c-0.114-0.137-0.233-0.065-0.332-0.004c-0.115,0.071-0.296,0.127-0.189,0.326C59.468,80.881,59.648,80.789,59.748,80.584z    M43.396,38.454c0.366-0.237,0.608-0.364,0.498-0.713C43.585,37.847,43.477,38.043,43.396,38.454z M45.396,93.475   c-0.487-0.099-0.604,0.189-0.888,0.5C44.989,93.94,45.175,93.749,45.396,93.475z M27.025,73.605   c-0.266,0.119-0.213,0.316-0.232,0.483c-0.011,0.095,0.044,0.172,0.156,0.167c0.111-0.005,0.153-0.092,0.17-0.181   C27.147,73.928,27.155,73.781,27.025,73.605z M63.844,87.04c-0.337-0.01-0.533-0.155-0.721,0.029   c-0.036,0.035-0.01,0.188,0.039,0.223C63.394,87.456,63.554,87.299,63.844,87.04z M29.688,83.911   c-0.039-0.134-0.155-0.185-0.28-0.17c-0.184,0.021-0.266,0.143-0.212,0.308c0.043,0.132,0.17,0.147,0.299,0.11   C29.624,84.121,29.702,84.046,29.688,83.911z M30.562,86.444c0.381-0.129,0.573-0.311,0.743-0.682   C30.854,85.867,30.59,85.982,30.562,86.444z M61.449,89.349c0.113-0.038,0.3-0.038,0.286-0.233   c-0.007-0.091-0.114-0.119-0.204-0.099c-0.15,0.034-0.303,0.093-0.306,0.259C61.223,89.378,61.337,89.369,61.449,89.349z    M29.921,82.482c0.225-0.055,0.265-0.184,0.229-0.337c-0.026-0.109-0.069-0.243-0.229-0.21c-0.183,0.038-0.216,0.194-0.19,0.334   C29.748,82.366,29.781,82.505,29.921,82.482z M71.403,82.389c-0.228,0.177-0.222,0.372-0.254,0.561   C71.449,82.852,71.478,82.669,71.403,82.389z M38.836,91.907c-0.01-0.13-0.082-0.214-0.173-0.189   c-0.145,0.04-0.291,0.117-0.349,0.263c-0.04,0.1,0.035,0.178,0.134,0.18C38.652,92.166,38.795,92.073,38.836,91.907z M66.658,88.01   c-0.065-0.115-0.169-0.18-0.302-0.143c-0.081,0.022-0.211,0.107-0.204,0.146c0.032,0.174,0.187,0.205,0.35,0.177   C66.595,88.173,66.656,88.109,66.658,88.01z M61.216,88.295c0.057-0.008,0.135,0.003,0.161-0.026   c0.082-0.091,0.356-0.16,0.182-0.285C61.456,87.91,61.254,88.105,61.216,88.295z M35.873,88.596   c-0.002-0.113-0.063-0.166-0.168-0.163c-0.171,0.006-0.309,0.076-0.346,0.24c-0.022,0.099,0.059,0.152,0.163,0.145   C35.688,88.809,35.828,88.755,35.873,88.596z M38.781,46.076c0.062-0.021,0.139-0.025,0.161-0.059   c0.078-0.124,0.358-0.305,0.086-0.383C38.823,45.575,38.712,45.843,38.781,46.076z M57.889,91.242   c0.256-0.115,0.44-0.199,0.511-0.49C58.098,90.819,57.943,90.916,57.889,91.242z M51.708,19.172   c-0.161-0.092-0.231-0.153-0.312-0.173c-0.128-0.032-0.374-0.137-0.312,0.108C51.142,19.339,51.397,19.332,51.708,19.172z    M33.62,73.92c-0.104-0.007-0.164,0.049-0.207,0.127c-0.033,0.06-0.016,0.12,0.056,0.138c0.133,0.033,0.243-0.002,0.249-0.15   C33.719,73.998,33.654,73.958,33.62,73.92z M30.321,85.253c0.002-0.118-0.087-0.153-0.185-0.156   c-0.108-0.003-0.175,0.069-0.175,0.164c0,0.122,0.034,0.242,0.214,0.192C30.271,85.426,30.317,85.348,30.321,85.253z M37.64,92.236   c-0.099-0.012-0.19,0.021-0.203,0.11c-0.019,0.133,0.082,0.213,0.212,0.218c0.072,0.002,0.206-0.059,0.208-0.097   C37.866,92.343,37.765,92.27,37.64,92.236z M62.235,57.396c0.028-0.108-0.041-0.163-0.136-0.157   c-0.076,0.005-0.189,0.042-0.213,0.093c-0.041,0.088,0.049,0.148,0.142,0.165C62.119,57.513,62.194,57.478,62.235,57.396z    M49.96,10.072c0.118-0.028,0.264-0.055,0.256-0.203c-0.005-0.096-0.123-0.122-0.213-0.09c-0.08,0.028-0.185,0.075-0.21,0.138   C49.754,10.016,49.843,10.07,49.96,10.072z"/><path d="M71.746,73.763c0.093,0.166,0.792-0.01,0.338,0.444c-0.709,0.709-1.428,1.417-2.285,1.983   c-0.135,0.089-0.263,0.158-0.577,0.083c0.861-0.882,1.911-1.531,2.542-2.524C71.766,73.748,71.746,73.763,71.746,73.763z"/><path d="M49.448,82.998c-0.786,0.983-1.924,1.512-2.801,2.317C47.055,84.503,48.818,83.051,49.448,82.998z"/><path d="M44.874,86.905c-0.65,0.726-1.461,1.277-2.23,1.874c-0.059-0.062-0.119-0.125-0.178-0.187   c0.739-0.623,1.479-1.246,2.218-1.868C44.748,86.784,44.811,86.844,44.874,86.905z"/><path d="M42.771,89.156c-0.389,0.48-0.998,0.672-1.504,0.998c-0.157,0.101-0.342,0.16-0.302,0.386c0,0-0.002,0.002-0.003,0.002   c-0.162-0.536,0.263-0.815,0.556-1.17c0.376-0.457,0.84-0.182,1.271-0.197L42.771,89.156z"/><path d="M44.321,89.004c-0.052,0.274,0.291,0.337,0.363,0.576c-0.254,0.168-0.499,0.341-0.757,0.495   c-0.132,0.079-0.286,0.124-0.414-0.026c-0.1-0.117-0.198-0.251-0.081-0.388c0.242-0.283,0.414-0.667,0.912-0.634L44.321,89.004z"/><path d="M42.366,84.965c-0.418,0.685-1.076,1.123-1.781,1.51C41.033,85.823,41.648,85.346,42.366,84.965z"/><path d="M64.75,78.601c-0.047,0.63-0.395,0.982-1.113,1.126C64.222,78.886,64.222,78.886,64.75,78.601z"/><path d="M48.772,86.928c0.312-0.471,0.701-0.871,1.259-1.203C49.796,86.317,49.59,86.524,48.772,86.928z"/><path d="M44.205,83.694c-0.256,0.528-0.775,0.625-1.089,0.938c-0.066,0.066-0.171,0.062-0.252,0.005   c-0.089-0.064-0.088-0.165-0.023-0.226C43.2,84.076,43.471,83.595,44.205,83.694z"/><path d="M46.705,88.845c0.307-0.416,0.563-0.878,1.141-1.028C47.687,88.362,47.1,88.525,46.705,88.845z"/><path d="M45.476,87.899c0.223-0.643,0.94-0.823,1.372-1.268c-0.302,0.573-0.742,1.013-1.397,1.242   C45.451,87.873,45.476,87.899,45.476,87.899z"/><path d="M49.763,82.537c0.294-0.392,0.614-0.737,1.125-0.856C50.521,81.983,50.315,82.456,49.763,82.537z"/><path d="M57.664,85.031c0.168-0.222,0.281-0.353,0.462-0.422c0.21-0.08,0.412-0.14,0.588,0.053   c0.062,0.068,0.088,0.152,0.034,0.234c-0.116,0.177-0.261,0.345-0.504,0.319C58.069,85.196,57.901,85.109,57.664,85.031z"/><path d="M57.342,84.037c-0.323,0.544-0.693,0.847-1.089,1.176C56.257,84.764,56.333,84.681,57.342,84.037z"/><path d="M44.343,89.026c0.066-0.648,0.645-0.847,1.133-1.126c-0.001-0.001-0.025-0.026-0.026-0.027   c-0.169,0.557-0.587,0.898-1.13,1.131C44.321,89.004,44.343,89.026,44.343,89.026z"/><path d="M38.05,86.472c-0.293,0.425-0.576,0.571-1.081,0.513C37.257,86.616,37.479,86.345,38.05,86.472z"/><path d="M40.963,88.469c0.237-0.381,0.497-0.543,0.733-0.725c0.073-0.056,0.185-0.08,0.237,0.014   c0.037,0.067,0.052,0.195,0.009,0.239C41.716,88.23,41.456,88.421,40.963,88.469z"/><path d="M42.125,83.331c-0.329,0.4-0.581,0.61-1.064,0.718C41.235,83.55,41.565,83.439,42.125,83.331z"/><path d="M61.537,80.24c-0.06,0.467-0.389,0.676-0.938,0.834c0.165-0.536,0.504-0.734,0.96-0.814   C61.559,80.26,61.537,80.24,61.537,80.24z"/><path d="M55.678,85.627c-0.295,0.253-0.591,0.507-0.886,0.76c0.078-0.466,0.51-0.591,0.733-0.911   C55.576,85.526,55.627,85.577,55.678,85.627z"/><path d="M60.209,81.413c-0.129,0.337-0.288,0.649-0.83,0.773C59.573,81.749,59.847,81.542,60.209,81.413z"/><path d="M62.325,82.35c-0.26,0.172-0.519,0.343-0.956,0.632C61.629,82.477,62.001,82.434,62.325,82.35z"/><path d="M46.829,90.127c0.107-0.323,0.19-0.67,0.715-0.679c-0.071,0.459-0.513,0.441-0.737,0.651   C46.808,90.101,46.829,90.127,46.829,90.127z"/><path d="M60.088,82.778c0.336-0.066,0.443-0.493,0.93-0.465c-0.248,0.348-0.414,0.68-0.929,0.464L60.088,82.778z"/><path d="M56.812,83.112c-0.072,0.275-0.247,0.405-0.48,0.487c-0.032-0.048-0.092-0.101-0.081-0.128   C56.346,83.25,56.49,83.085,56.812,83.112z"/><path d="M56.754,86.383c-0.081-0.072-0.209-0.135-0.244-0.229c-0.064-0.171,0.092-0.26,0.237-0.306   c0.131-0.042,0.153,0.073,0.143,0.154C56.873,86.126,56.992,86.291,56.754,86.383z"/><path d="M66.254,77.666c-0.055,0.367-0.343,0.443-0.723,0.564C65.678,77.849,66.012,77.806,66.254,77.666z"/><path d="M53.168,87.581c0.208-0.245,0.403-0.503,0.729-0.637c-0.155,0.301-0.456,0.457-0.754,0.616   C53.142,87.559,53.168,87.581,53.168,87.581z"/><path d="M42.789,89.175c0.159-0.335,0.504-0.372,0.837-0.424c-0.21,0.262-0.507,0.377-0.855,0.406   C42.771,89.156,42.789,89.175,42.789,89.175z"/><path d="M50.808,88.512c0.04-0.397,0.269-0.464,0.493-0.624C51.286,88.213,51.128,88.353,50.808,88.512z"/><path d="M62.333,83.97c0.09,0.009,0.217,0.028,0.207,0.114c-0.019,0.166-0.164,0.237-0.336,0.235   c-0.116-0.001-0.169-0.076-0.147-0.173C62.086,84.014,62.194,83.965,62.333,83.97z"/><path d="M56.247,88.652c0.011,0.135-0.076,0.174-0.15,0.21c-0.184,0.091-0.303,0.024-0.331-0.156   c-0.014-0.088,0.044-0.192,0.158-0.175C56.041,88.548,56.15,88.613,56.247,88.652z"/><path d="M57.432,82.537c0.095-0.208,0.161-0.453,0.532-0.477C57.972,82.401,57.689,82.46,57.432,82.537z"/><path d="M62.367,80.94c0.06-0.31,0.251-0.396,0.511-0.589C62.853,80.725,62.707,80.86,62.367,80.94z"/><path d="M53.224,84.428c-0.028,0.072-0.035,0.167-0.09,0.216c-0.085,0.075-0.198,0.155-0.306,0.165   c-0.083,0.007-0.122-0.122-0.07-0.2c0.081-0.123,0.197-0.218,0.365-0.226C53.149,84.381,53.176,84.406,53.224,84.428z"/><path d="M38.972,83.824c-0.069,0.052-0.134,0.12-0.215,0.157c-0.076,0.035-0.108-0.015-0.042-0.08   c0.063-0.062,0.146-0.107,0.22-0.159C38.946,83.764,38.956,83.787,38.972,83.824z"/><path d="M60.089,82.776c0.007,0.256,0.193,0.607-0.36,0.582c-0.106-0.322,0.481-0.263,0.359-0.579   C60.088,82.778,60.089,82.776,60.089,82.776z"/><path d="M42.648,87.093c0.042-0.179,0.206-0.405,0.305-0.335c0.186,0.13-0.097,0.191-0.171,0.287   C42.76,87.074,42.698,87.076,42.648,87.093z"/><path d="M62.423,83.508c-0.009,0.154-0.117,0.251-0.265,0.298c-0.091,0.029-0.202-0.015-0.159-0.124   c0.039-0.1,0.123-0.197,0.214-0.263C62.285,83.367,62.378,83.409,62.423,83.508z"/><path d="M58.436,83.248c-0.032,0.091-0.093,0.158-0.201,0.146c-0.075-0.008-0.099-0.066-0.079-0.136   c0.028-0.098,0.109-0.148,0.205-0.146C58.433,83.113,58.458,83.179,58.436,83.248z"/><path d="M55.273,89.467c-0.038-0.036-0.105-0.068-0.109-0.107c-0.013-0.103,0.068-0.141,0.161-0.113   c0.034,0.01,0.072,0.087,0.063,0.124C55.377,89.41,55.313,89.436,55.273,89.467z"/><path d="M37.831,84.706c-0.006,0.098-0.066,0.155-0.164,0.17c-0.079,0.012-0.116-0.031-0.082-0.095   c0.026-0.049,0.071-0.094,0.118-0.127C37.768,84.608,37.816,84.631,37.831,84.706z"/><path d="M52.56,88.11c0.051-0.327,0.297-0.46,0.607-0.529c0.001,0-0.025-0.021-0.024-0.021c-0.179,0.199-0.285,0.471-0.605,0.529   L52.56,88.11z"/><path d="M52.538,88.088c-0.016,0.246-0.18,0.345-0.422,0.373c-0.019-0.307,0.191-0.354,0.444-0.352   C52.56,88.11,52.538,88.088,52.538,88.088z"/><path d="M55.008,37.425c-0.034,0.193-0.171,0.3-0.35,0.38c-0.796,0.356-1.53,0.813-2.262,1.267   c-1.148,0.713-2.278,1.451-3.419,2.175c-0.003-0.003,0.017,0.018,0.017,0.018c-0.166-0.28,0.019-0.418,0.233-0.581   c1.062-0.807,2.274-1.406,3.393-2.134c0.567-0.369,1.13-0.761,1.777-1.022c0.211-0.085,0.404-0.173,0.633-0.082L55.008,37.425z"/><path d="M55.595,35.908c-0.952,0.673-2.051,1.081-3.151,1.488C53.47,36.856,54.265,35.9,55.595,35.908z"/><path d="M55.029,37.447c0.38-0.507,0.38-0.507,1.288-0.549c-0.355,0.463-0.832,0.496-1.309,0.528   C55.008,37.425,55.029,37.447,55.029,37.447z"/><path d="M47.683,41.831c0.242-0.173,0.49-0.339,0.724-0.521c0.188-0.146,0.372-0.187,0.584-0.047   c0.003,0.003-0.018-0.019-0.014-0.015c-0.449,0.162-0.726,0.673-1.312,0.569C47.662,41.814,47.683,41.831,47.683,41.831z"/><path d="M63.763,56.734c1.175-0.904,2.037-2.1,3.449-3.023c-0.196,0.587-1.965,2.393-2.854,3.054   C64.196,56.886,64.04,56.958,63.763,56.734z"/><path d="M63.199,58.963c-0.406,0.437-0.639,1.054-1.473,1.263C62.108,59.574,62.695,59.304,63.199,58.963z"/><path d="M68.246,59.408c0.155-0.643,0.541-1.055,1.403-1.184c-0.348,0.652-1.027,0.762-1.422,1.167   C68.228,59.391,68.246,59.408,68.246,59.408z"/><path d="M34.818,82.656c0.384,0.015,0.521-0.298,0.74-0.496c0.591-0.531,1.173-1.072,1.76-1.608c0.097-0.088,0.219-0.134,0.34-0.06   c0.15,0.092,0.083,0.223-0.006,0.3c-0.675,0.58-1.361,1.148-2.036,1.727c-0.242,0.207-0.51,0.204-0.798,0.138   C34.816,82.657,34.818,82.656,34.818,82.656z"/><path d="M34.78,79.406c0.399-0.925,1.171-1.436,2.277-1.869c-0.443,0.677-1.477,1.466-2.302,1.842   C34.756,79.38,34.78,79.406,34.78,79.406z"/><path d="M45.638,38.34c0.322-0.594,0.807-1.002,1.465-1.283c0.65-0.277,1.108-0.863,1.822-1.06   C47.955,36.931,46.882,37.74,45.638,38.34z"/><path d="M48.897,36.018c0.302-0.505,0.739-0.835,1.368-0.916C49.947,35.587,49.465,35.859,48.897,36.018z"/><path d="M67.929,79.835c0.454-0.061,0.581-0.713,1.237-0.549c-0.453,0.207-0.735,0.59-1.254,0.544   C67.908,79.829,67.929,79.835,67.929,79.835z"/></g></svg>