<svg xmlns="http://www.w3.org/2000/svg" xmlns:xlink="http://www.w3.org/1999/xlink" viewBox="0 0 100 100" version="1.1" x="0px" y="0px"><title>valentine 5</title><desc>Created with Sketch.</desc><g stroke="none" stroke-width="1" fill="none" fill-rule="evenodd"><g fill="#000000"><g transform="translate(-5.150000, 15.225000)"><g transform="translate(31.605724, 36.843472) rotate(20.000000) translate(-31.605724, -36.843472) translate(7.605724, 12.843472)"><path fill="#ff3377" d="M34.8398943,0.288749992 C31.391367,0.345584213 27.9806195,1.54003206 25.339355,3.61832427 C22.6399508,1.48826103 19.2624956,0.286624389 15.6933519,0.286624389 C7.17683645,0.286624389 0.262153989,7.08228658 0.241776382,15.5174174 C0.242264765,17.8684292 0.782087698,20.1418885 1.80535795,22.2053019 C2.07291068,22.8328247 2.44522887,23.5883235 2.86499696,24.3524582 C4.9666422,28.1782371 8.21441991,32.1647883 12.3043015,36.2244224 C14.8451324,38.7464622 17.5593058,41.1458017 20.2731428,43.3483611 C21.2231986,44.1194297 22.1064177,44.8116589 22.9008968,45.4153748 C23.3823903,45.7812564 23.7308425,46.0388333 23.9242822,46.1783232 L25.3955088,47.2392291 L26.8667353,46.1783232 C27.060175,46.0388333 27.4086272,45.7812564 27.8901207,45.4153748 C28.6845998,44.8116589 29.5678189,44.1194297 30.5178747,43.3483611 C33.2317117,41.1458017 35.9458851,38.7464622 38.486716,36.2244224 C42.2020597,32.5365562 45.2224716,28.9090005 47.3200334,25.4074924 C46.3779436,25.1393041 45.4745285,24.8462476 44.6121194,24.5272614 C43.7219654,24.1980131 42.8785212,23.8417329 42.2137346,23.5157774 C42.1674828,23.4963788 42.121339,23.4767709 42.0753043,23.4569543 C40.2932782,26.0563852 37.9232503,28.7981956 35.0986501,31.6019059 C32.6873385,33.9953842 30.0956449,36.2864512 27.5036148,38.3901517 C26.5966172,39.1262741 25.5697172,39.9511416 25.5697172,39.9511416 C25.5697172,39.9511416 24.2986823,38.9577175 23.599368,38.3901517 C21.007338,36.2864512 18.4156443,33.9953842 16.0043327,31.6019059 C12.2269767,27.8524859 9.2625723,24.2137672 7.4302333,20.8782262 C7.08455486,20.2489623 6.78194053,19.6349048 6.52366821,19.0375161 C5.78726109,17.5448165 5.4288304,16.0352889 5.42849965,14.4709002 C5.44212842,8.83298554 10.0898026,4.26531035 15.8493346,4.26531035 C18.8906933,4.26531035 21.7123767,5.54463334 23.6796948,7.73612895 L25.5514914,9.82121832 L27.423288,7.73612895 C28.920556,6.06824606 30.9126967,4.92871952 33.1199173,4.4794016 C33.5038635,3.03339843 34.0788201,1.62288858 34.8398943,0.288749992 Z"/></g><g transform="translate(74.801573, 35.111968) rotate(-20.000000) translate(-74.801573, -35.111968) translate(45.801573, 9.111968)"><path fill="#bb33bb" d="M2.01932425,24.2834202 C0.856025904,22.0243737 0.242331597,19.5353669 0.241776382,16.9614548 C0.264942536,7.72658595 8.12585581,0.286624389 17.8078028,0.286624389 C21.8653614,0.286624389 25.7050001,1.60218867 28.7738008,3.93420402 C31.8513042,1.60218867 35.8477147,0.286624389 39.8674748,0.286624389 C49.5224694,0.286624389 57.3814193,7.69046667 57.4332955,16.8894622 C57.4329866,19.5226102 56.8247143,22.0137659 55.7188698,24.1527642 C55.3517878,24.9704387 54.9285202,25.7975667 54.4513095,26.6341492 C52.0620673,30.8226517 48.3698516,35.1871694 43.7202955,39.6316989 C40.8317678,42.3928543 37.7461769,45.0196761 34.6609684,47.431061 C33.5809034,48.2752349 32.5768214,49.0330947 31.6736228,49.6940491 C31.1262398,50.0946201 30.7301042,50.3766179 30.5101935,50.5293329 L28.8376388,51.6908237 L27.1650841,50.5293329 C26.9451735,50.3766179 26.5490378,50.0946201 26.0016549,49.6940491 C25.0984563,49.0330947 24.0943743,48.2752349 23.0143093,47.431061 C19.9291008,45.0196761 16.8435099,42.3928543 13.9549822,39.6316989 C9.30542604,35.1871694 5.61321037,30.8226517 3.2239682,26.6341492 C2.74675748,25.7975667 2.32348989,24.9704387 2.01932425,24.2834202 Z M17.9851307,4.6425311 C11.437443,4.6425311 6.15376389,9.64326935 6.13827011,15.8157168 C6.13864612,17.5284259 6.54612579,19.1810723 7.3833056,20.8152954 C7.67692086,21.4693228 8.02094606,22.1415993 8.41392842,22.8305239 C10.4970115,26.4823089 13.8670759,30.466016 18.1613394,34.5709198 C20.9026239,37.1913248 23.8489745,39.6996087 26.7957076,42.0027619 C27.5907186,42.6241389 29.0356866,43.7117499 29.0356866,43.7117499 C29.0356866,43.7117499 30.2031114,42.8086763 31.2342259,42.0027619 C34.180959,39.6996087 37.1273097,37.1913248 39.8685941,34.5709198 C44.1628576,30.466016 47.532922,26.4823089 49.6160051,22.8305239 C50.0089874,22.1415993 50.3530126,21.4693228 50.7095443,20.6846394 C51.487362,19.1741702 51.8912401,17.5201031 51.8914915,15.7523109 C51.8568757,9.61923376 46.5742595,4.6425311 40.0448028,4.6425311 C36.5872532,4.6425311 33.3794402,6.04314721 31.142907,8.44241937 L29.0149668,10.7251969 L26.8870265,8.44241937 C24.6504933,6.04314721 21.4426803,4.6425311 17.9851307,4.6425311 Z"/></g></g></g></g></svg>