<svg xmlns="http://www.w3.org/2000/svg" xmlns:xlink="http://www.w3.org/1999/xlink" xmlns:sketch="http://www.bohemiancoding.com/sketch/ns" viewBox="0 0 47 60" version="1.1" x="0px" y="0px"><g stroke="none" stroke-width="1" fill="none" fill-rule="evenodd" sketch:type="MSPage"><g sketch:type="MSLayerGroup" fill="#33bb66"><path d="M46.497,42.343 L26.24,0.563 C25.905,-0.126 24.775,-0.126 24.44,0.563 L4.184,42.343 C3.961,42.803 4.12,43.356 4.554,43.627 C6.089,44.586 7.682,45.432 9.321,46.166 C9.664,47.117 9.969,48.393 10.205,49.927 C10.236,50.132 10.258,50.336 10.272,50.54 C7.621,50.727 3.419,51.537 0.999,54.636 C0.284,55.552 0.089,56.745 0.478,57.828 C0.85,58.866 1.713,59.628 2.787,59.867 C3.14,59.945 3.543,59.998 3.989,59.997 C5.388,59.997 7.218,59.484 9.295,57.654 C10.838,56.295 11.831,54.475 12.163,52.498 C12.4,52.504 12.539,52.514 12.552,52.515 C16.357,52.685 20.106,53.13 23.414,53.523 C31.121,54.442 37.207,55.164 40.198,52.176 C41.599,50.778 42.165,48.707 41.943,45.881 C43.374,45.212 44.776,44.471 46.126,43.627 C46.56,43.356 46.719,42.803 46.497,42.343 L46.497,42.343 Z M7.973,56.154 C6.279,57.646 4.68,58.24 3.222,57.914 C2.665,57.791 2.443,57.384 2.36,57.153 C2.205,56.72 2.285,56.238 2.575,55.866 C4.433,53.487 7.805,52.769 10.11,52.566 C9.794,53.94 9.06,55.196 7.973,56.154 L7.973,56.154 Z M38.785,50.761 C36.48,53.063 30.534,52.356 23.65,51.538 C20.308,51.141 16.52,50.69 12.673,50.519 C12.634,50.516 12.495,50.506 12.273,50.498 C12.257,50.207 12.226,49.916 12.181,49.624 C12.04,48.704 11.876,47.876 11.694,47.131 C16.041,48.745 20.655,49.589 25.34,49.589 C30.39,49.589 35.351,48.596 39.989,46.726 C40.037,48.569 39.645,49.902 38.785,50.761 L38.785,50.761 Z M25.34,47.589 C18.656,47.589 12.121,45.797 6.38,42.397 L12.096,30.608 L13.348,30.374 L16.345,33.359 C16.535,33.55 16.79,33.651 17.05,33.651 C17.159,33.651 17.268,33.634 17.374,33.598 C17.733,33.475 17.993,33.158 18.042,32.78 L18.588,28.585 L22.353,26.658 C22.692,26.484 22.903,26.134 22.898,25.753 C22.892,25.372 22.671,25.028 22.327,24.864 L18.507,23.048 L17.836,18.872 C17.833,18.85 17.822,18.83 17.817,18.808 L25.34,3.292 L27.196,7.12 C27.131,7.224 27.077,7.336 27.054,7.461 L26.272,11.618 L22.403,13.33 C22.055,13.483 21.825,13.822 21.809,14.202 C21.793,14.583 21.995,14.939 22.329,15.121 L26.04,17.15 L26.473,21.359 C26.512,21.738 26.763,22.061 27.119,22.194 C27.233,22.236 27.351,22.257 27.468,22.257 C27.719,22.257 27.965,22.162 28.154,21.984 L31.23,19.08 L33.2,19.504 L44.3,42.397 C38.56,45.797 32.024,47.589 25.34,47.589 L25.34,47.589 Z" sketch:type="MSShapeGroup"/><path d="M31.015,32.641 L28.227,29.46 C27.976,29.174 27.584,29.052 27.216,29.153 C26.849,29.251 26.568,29.55 26.494,29.923 L25.665,34.07 L21.778,35.739 C21.428,35.89 21.194,36.225 21.174,36.605 C21.154,36.985 21.351,37.344 21.683,37.53 L25.372,39.601 L25.758,43.813 C25.793,44.193 26.04,44.519 26.395,44.656 C26.512,44.701 26.633,44.723 26.754,44.723 C27.001,44.723 27.244,44.631 27.432,44.458 L30.541,41.589 L34.666,42.523 C35.04,42.607 35.425,42.474 35.664,42.178 C35.904,41.882 35.955,41.476 35.796,41.13 L34.028,37.287 L36.192,33.652 C36.387,33.325 36.379,32.916 36.172,32.597 C35.965,32.277 35.595,32.097 35.216,32.148 L31.015,32.641" sketch:type="MSShapeGroup"/></g></g></svg>