<svg fill="#221144" xmlns="http://www.w3.org/2000/svg" xmlns:xlink="http://www.w3.org/1999/xlink" version="1.1" x="0px" y="0px" viewBox="0 0 153.783 214.178" style="enable-background:new 0 0 153.783 214.178;" xml:space="preserve"><g><path d="M109.055,123.483c0.043-1.318,0.016-2.797-0.082-4.466c-1.037-7.734-0.619-16.05,0.399-24.135   c-4.119-1.27-7.667-3.558-10.294-6.291c-4.15-4.242-6.571-9.255-8.226-13.938c-1.373-3.971-2.196-7.778-2.696-10.892   c-0.681-4.237-0.76-7.182-0.783-7.441c-0.136-4.416,3.331-8.106,7.747-8.243c3.743-0.116,6.956,2.36,7.936,5.806   c0.176,0.62,0.289,1.268,0.31,1.94c0,0,0,0,0.004,0.078c0.004,0.09,0.013,0.242,0.025,0.449c0.026,0.412,0.074,1.041,0.158,1.831   c0.164,1.583,0.471,3.818,1.012,6.241c0.268,1.28,0.62,2.603,1.04,3.902c1.178,3.652,2.9,7.133,4.864,9.025   c0.552,0.525,1.073,0.954,1.608,1.313c1.229,0.824,2.55,1.236,4.596,1.288c2.109,0.042,5.299-0.654,9.526-2.713   c2.187-1.065,4.655-2.504,7.396-4.392c1.591-1.097,3.266-2.331,5.042-3.752c0.326-0.259,0.669-0.479,1.019-0.68   c-0.46-0.635-0.924-1.26-1.39-1.88c0.171-0.253,0.339-0.491,0.513-0.751c2.446-3.681,1.446-8.646-2.232-11.092   c-2.653-1.765-5.971-1.728-8.535-0.195c-3.551-3.679-7.205-7.019-10.911-10.042c12.021,2.666,23.975-4.835,26.775-16.855   c2.817-12.1-4.708-24.193-16.808-27.01c-12.1-2.818-24.193,4.707-27.011,16.807c-1.416,6.083-0.217,12.163,2.862,17.065   c-20.068-12.1-39.691-15.969-50.802-15.107C34.59,20.715-3.202,25.991,0.217,75.997c1.266,18.518,27.608,32.181,44.978,30.251   c10.615-1.93,18.333-7.72,24.439-16.545c1.166-1.581,2.258-3.247,3.289-4.968c-1.332,9.605-1.157,19.219,0.295,31.698   c0.84,4.322,2.254,7.596,4.044,10.08c0.834,2.201,3.679,10.922,3.646,20.802c-0.002,6.832-1.277,14.032-4.913,20.627   c-3.677,6.587-9.633,12.993-20.942,18.455c-6.226,2.98-8.86,10.443-5.881,16.673c2.979,6.227,10.444,8.859,16.673,5.881   l-0.002-0.003c15.411-7.317,25.93-17.733,32.056-28.953c0.334-0.607,0.655-1.215,0.964-1.824   c-0.748,5.701-2.258,12.097-4.84,19.265c-2.34,6.494,1.026,13.658,7.523,15.998c1.4,0.505,2.831,0.745,4.238,0.745   c5.12,0,9.922-3.171,11.758-8.266c4.863-13.49,6.916-25.687,6.914-36.52c0.042-19.885-7.015-34.825-14.166-44.314   C109.877,124.529,109.465,124,109.055,123.483z M51.421,81.528c-3.508,0.999-7.269,1.159-11.019,0.693   c0.111,2.04,0.315,4.047,0.63,5.999c0.297,1.84-5.535,3.171-5.796,1.553c-0.461-2.854-0.686-5.804-0.729-8.797   c-4.915-1.461-9.564-3.885-13.31-6.851c-2.532-2.006,2.633-4.688,4.505-3.205c2.609,2.066,5.669,3.836,8.899,5.145   c0.267-4.821,1.02-9.702,2.17-14.487c-4.612-3.293-8.492-7.33-8.393-12.057c0.13-6.203,8.176-8.041,13.093-7.729   c0.854,0.055,1.703,0.157,2.543,0.3c0.744-1.428,1.511-2.828,2.323-4.168c0.837-1.381,6.576-2.198,5.327-0.137   c-1.074,1.772-2.087,3.638-3.034,5.576c4.487,1.738,8.362,4.849,10.706,9.231c1.371,2.563-4.193,4.596-5.325,2.479   c-1.396-2.61-4.121-5.473-7.307-7.396c-1.488,3.58-2.764,7.337-3.765,11.188c3.745,2.746,7.418,4.938,8.221,5.399   c2.915,1.67,9.614,4.692,9.228,9.002C60.011,77.481,55.128,80.471,51.421,81.528z"/><path d="M142.496,86.13c3.772,2.188,7.536,4.443,11.287,6.727c-1.738-3.836-3.591-7.487-5.537-10.968   C146.276,83.436,144.363,84.846,142.496,86.13z"/><path d="M48.83,68.723c-1.854-1.078-4.454-2.422-7.179-4.019c-0.815,4.38-1.274,8.796-1.33,13.114   c0.963,0.2,1.927,0.368,2.887,0.466c3.166,0.321,9.672,0.524,11.122-3.381C55.375,72.09,50.698,69.809,48.83,68.723z"/><path d="M35.909,46.245c-3.826,1.8-1.366,5.489,2.614,9.07c1.054-3.289,2.292-6.488,3.691-9.544   C40.074,45.254,37.903,45.306,35.909,46.245z"/><path d="M147.351,80.052c2.59-2.061,3.02-5.844,0.962-8.432c-1.146-1.439-2.86-2.264-4.702-2.264c-0.99,0-1.936,0.243-2.791,0.697   c-0.326,0.173-0.642,0.37-0.937,0.605c-4.455,3.564-8.261,6.018-11.473,7.711c-0.105,0.056-0.217,0.12-0.321,0.174   c-5.472,2.835-9.154,3.408-11.236,3.408l-0.23-0.002c-2.124-0.053-3.643-0.473-4.951-1.193c-0.925-0.51-1.749-1.164-2.592-1.966   c-2.667-2.569-4.653-7.223-5.803-11.255c-0.267-0.937-0.489-1.84-0.664-2.676c-0.586-2.623-0.894-4.967-1.05-6.467   c-0.088-0.826-0.137-1.482-0.166-1.924l-0.025-0.477l-0.005-0.093v-0.014c-0.003-0.102-0.016-0.201-0.024-0.302   c-0.249-3.111-2.811-5.512-5.967-5.512l-0.193,0.005c-1.603,0.049-3.088,0.719-4.186,1.888c-1.09,1.159-1.664,2.674-1.623,4.267   c0.002,0.052,0.006,0.123,0.01,0.214c0.087,1.774,0.311,4.476,0.858,7.685c0.504,2.959,1.284,6.348,2.496,9.857   c1.985,5.619,4.454,9.815,7.782,13.217c2.523,2.626,5.677,4.563,9.117,5.673c2.18,0.703,4.473,1.077,6.796,1.077h0.223   c7.271-0.062,14.999-2.93,23.92-8.932c2.151-1.447,4.371-3.073,6.672-4.891C147.282,80.105,147.316,80.08,147.351,80.052z"/></g></svg>