<svg xmlns:dc="http://purl.org/dc/elements/1.1/" xmlns:cc="http://creativecommons.org/ns#" xmlns:rdf="http://www.w3.org/1999/02/22-rdf-syntax-ns#" xmlns:svg="http://www.w3.org/2000/svg" xmlns="http://www.w3.org/2000/svg" xmlns:sodipodi="http://sodipodi.sourceforge.net/DTD/sodipodi-0.dtd" xmlns:inkscape="http://www.inkscape.org/namespaces/inkscape" version="1.1" x="0px" y="0px" viewBox="0 0 100 100"><g transform="translate(0,-952.36218)"><path d="m 87.023135,959.37411 -32,1 c -1.04732,0.032 -1.97063,1.0152 -1.9375,2.0625 0.11965,2.6323 0.42289,5.093 0.875,7.4063 l -22.40625,27.25001 c -0.68237,0.9514 -0.48014,2.0383 0.3125,2.9062 l -13.78125,18.37488 11,-7 -16,24 13,-12 -4,10 13,-11 -4,9 10,-10 -1,3 8.4375,-6.75 c 0.86677,0.9644 2.09372,0.8573 2.81245,0.3125 l 29,-22.99988 c 2.08223,0.069 5.6242,0.432 7.75005,0.4375 1.06833,4e-4 2.03328,-0.9947 2,-2.0625 l -1,-32.00001 c -0.0323,-1.0473 -1.0152,-1.9706 -2.0625,-1.9375 z m -53.96875,1.5 -2.53125,2.0938 -3.34375,-0.25 c -1.37509,-0.055 -2.50932,1.5111 -1.96875,2.7187 l 1.3125,2.9687 -1.1875,2.9688 c -0.534,1.2396 0.69543,2.8177 2.09375,2.6875 l 2.3125,-0.1875 -2.65625,26.49999 5.40625,-25.18749 0.875,0.6875 c 1.06087,0.856 2.98561,0.2568 3.3125,-1.0312 l 0.71875,-3.125 2.8125,-1.6876 c 1.18115,-0.7218 1.12618,-2.6824 -0.0937,-3.3437 l -2.84375,-1.6563 -0.875,-3.125 c -0.20353,-0.7735 -0.94952,-1.3886 -1.78125,-1.4687 -0.66173,-0.1305 -1.08705,0.1192 -1.5625,0.4375 z m -15.03125,13.4375 c -0.63479,0.02 -1.25087,0.3819 -1.59375,0.9375 l -1.90625,3.125 -2.8125,0.25 c -0.71317,0.06 -1.37578,0.5605 -1.65155,1.2467 -0.2757804,0.6863 -0.1522904,1.5276 0.3078,2.0971 l 2.25,2.8124 -0.65625,2.8438 c -0.30698,1.4332 1.30803,2.87521 2.625,2.3438 l 1.25,-0.5 -1.75,20.90609 4.8125,-21.12489 1.375,0.87501 c 0.61466,0.4023 1.44913,0.4081 2.06895,0.014 0.61982,-0.39381 0.99534,-1.16841 0.93105,-1.92041 l -0.21875,-3.6563 2.125,-1.9063 c 0.52969,-0.4836 0.77575,-1.2792 0.61643,-1.9929 -0.15932,-0.7138 -0.71725,-1.3154 -1.39768,-1.5071 l -3.4375,-0.9374 -1.0625,-2.6563 c -0.50966,-0.8539 -1.25978,-1.2091 -1.875,-1.2498 z m 37.15625,0.2813 c 1.77376,5.4181 4.60158,9.7771 8.34375,13.0312 3.32746,2.89351 7.31946,4.90721 11.8125,6.15621 l -7.40625,5.875 c -9.09564,-9.464 -12.54953,-16.32821 -12.75,-25.06241 z m -3.6875,4.5 c 1.44335,9.0752 6.82396,17.48051 13.25,23.09369 l -3.5625,2.8125 c -6.44408,-5.76088 -11.79707,-14.93478 -12.0625,-22.99999 z m -5.90625,7.1874 c 1.50766,8.01791 6.43406,15.81859 12.40625,21.28119 l -3.5,2.75 c -5.57295,-4.9109 -10.94706,-13.91668 -11.375,-21.03119 z m -5.90625,7.18761 c 1.58966,7.30298 6.28436,14.59038 11.59375,19.37488 l -1,0.8124 -14.53125,-15.40608 z m 39.34375,8.84368 c -0.61892,0.023 -1.21878,0.3708 -1.5625,0.9063 l -1.40625,2.1874 -2.53125,0.5313 c -1.29772,0.9478 -1.76985,2.3107 -1.0313,3.3749 l -5.40625,4.0625 c 2.17898,-0.6872 6.78792,-2.0826 6.84375,-2.0938 l -0.3125,2.625 c -0.15897,1.3784 1.37132,2.6354 2.625,2.1563 l 2.40625,-0.9063 2.28125,1.0626 c 1.21431,0.5813 2.83713,-0.5493 2.78125,-1.9376 l -0.0625,-2.625 1.71875,-1.9687 c 0.87713,-1.0114 0.37599,-2.9085 -0.875,-3.3124 l -2.4375,-0.7188 -1.25,-2.2812 c -0.34469,-0.6575 -1.06106,-1.0849 -1.78125,-1.0625 z m -16.0312,11.3436 -1.9375,3.125 -2.78125,0.25 c -0.71318,0.06 -1.37578,0.5605 -1.65155,1.2467 -0.27578,0.6863 -0.15229,1.5276 0.3078,2.0971 l 1.28125,1.625 -13.125,4.375 13.78125,-1.8438 -0.34375,1.5 c -0.30698,1.4332 1.30803,2.8752 2.625,2.3438 l 3.3125,-1.3438 2.375,1.5 c 0.61375,0.3844 1.43414,0.3796 2.04381,-0.012 0.60967,-0.3915 0.98094,-1.1519 0.92494,-1.8944 l -0.1875,-3.6562 2.09375,-1.9063 c 0.52969,-0.4836 0.77575,-1.2792 0.61643,-1.9929 -0.15932,-0.7138 -0.71725,-1.3154 -1.39768,-1.5071 l -3.40625,-0.9375 -1.09375,-2.6562 c -0.28623,-0.7094 -0.98958,-1.2119 -1.72704,-1.2482 -0.73507,-0.021 -1.28516,0.4214 -1.71046,0.9358 z m 4.28125,17.9063 -2.3125,1.1563 -2.40625,-0.75 c -1.86295,-0.442 -2.75679,1.0908 -2.5938,2.4062 l -19.875,0 19.9375,2.7188 -1.3125,1.8124 c -0.72384,1.0899 -0.0784,2.8519 1.15625,3.1563 l 2.5,0.4063 1.4375,2.0937 c 0.77435,1.1733 2.7865,1.0056 3.375,-0.2813 l 1.21875,-2.3124 2.4375,-0.8126 c 1.28424,-0.3886 1.7961,-2.3629 0.875,-3.375 l -1.71875,-1.8437 0.0937,-2.5937 c -0.007,-0.8012 -0.50891,-1.5735 -1.21875,-1.875 -0.65304,-0.2456 -1.00738,-0.1068 -1.59365,0.094 z" style="text-indent:0;text-transform:none;direction:ltr;block-progression:tb;baseline-shift:baseline;color:#000000;enable-background:accumulate;" fill="#2244ff" fill-opacity="1" stroke="none" marker="none" visibility="visible" display="inline" overflow="visible"/></g></svg>