<svg xmlns="http://www.w3.org/2000/svg" xmlns:xlink="http://www.w3.org/1999/xlink" viewBox="0 0 48 48" version="1.1" x="0px" y="0px"><g stroke="none" stroke-width="1" fill="none" fill-rule="evenodd"><g transform="translate(-432.000000, -576.000000)" fill="#D21D16"><g transform="translate(432.000000, 576.000000)"><path d="M32.941427,9.71176789 C32.0049847,9.32213861 31.0233737,8.9938695 30,8.73233919 L30,7.70134466 C31.2580489,8.00817707 32.4575332,8.411153 33.5926588,8.90124807 L32.941427,9.71176789 Z M44.737987,24.6628048 C44.9111153,25.7475927 45,26.8624342 45,28 C45,28.2761424 45.2238576,28.5 45.5,28.5 C45.7761424,28.5 46,28.2761424 46,28 C46,26.40998 45.8339744,24.8618217 45.5136893,23.373851 L44.737987,24.6628048 Z M14.9528999,9.75607695 C15.9210933,9.34697413 16.9380618,9.00372491 18,8.73233919 L18,7.70134466 C16.7259898,8.01206997 15.5120396,8.42139389 14.364167,8.91994418 L14.9529066,9.75607412 Z M3.25948798,24.6786661 C3.08802053,25.7584589 3,26.8679777 3,28 C3,28.2761424 2.77614237,28.5 2.5,28.5 C2.22385763,28.5 2,28.2761424 2,28 C2,26.488288 2.15007487,25.0144159 2.44011278,23.594133 L3.25948798,24.6786661 Z" fill-rule="nonzero"/><g transform="translate(27.000000, 2.000000)"><path d="M3.79227185,24.3732188 C5.51065489,25.9964572 7.88162162,27 10.5,27 C15.7467051,27 20,22.9705627 20,18 C20,16.173276 19.4255394,14.4736628 18.4384279,13.0544537 C18.0979799,13.2616792 17.6839775,13.3274625 17.2884525,13.2267822 C16.7811367,13.0976456 16.2917462,12.9976761 15.8177526,12.9275054 C16.5688408,14.1204331 17,15.5128271 17,17 C17,21.418278 13.1944204,25 8.5,25 C6.99266743,25 5.5769734,24.6307282 4.34947383,23.9830609 C4.17427539,24.1265596 3.9880535,24.2571002 3.79227185,24.3732188 Z"/><path d="M5.95068996,21.1684681 C6.84426195,21.6967986 7.88672273,22 9,22 C12.3137085,22 15,19.3137085 15,16 C15,14.8259326 14.6627821,13.7306267 14.0799191,12.8056549 C13.0089996,12.8217446 12.0106011,13.0199917 11.0480022,13.4095709 C11.6417277,14.107489 12,15.011905 12,16 C12,18.209139 10.209139,20 8,20 C7.21262386,20 6.47838305,19.7725006 5.85942402,19.3796482 C5.95120106,19.7378206 6,20.1132115 6,20.5 C6,20.7271464 5.98317035,20.9503621 5.95068996,21.1684681 Z"/><path d="M6.0337824,17.3679911 C6.20652468,18.2967873 7.02114027,19 8,19 C9.1045695,19 10,18.1045695 10,17 C10,16.0259023 9.30361273,15.2144546 8.38153043,15.036349 C7.68227564,15.6089852 6.98362647,16.2952483 6.26985897,17.0990669 C6.19225299,17.1864639 6.11401067,17.2755835 6.0337824,17.3679911 Z"/><path d="M3.1873074,16.3270254 C3.62820469,15.3365006 4.14071063,14.3514038 4.70932992,13.4386952 C7.05141035,9.67934897 10.1164268,7.300749 13.8179442,6.89014022 C13.9765673,6.87254418 14.1440171,6.8571913 14.3333758,6.84245517 C14.4916171,6.83014064 14.6103642,6.82198435 14.9100404,6.8022512 C17.7617928,6.61446827 19.2398234,5.99633327 19.9252358,3.85090234 C20.2013534,6.58210208 19.2229644,9.38761918 17.5002492,11.2192529 C12.1346669,9.94295244 8.42589017,11.6588864 4.77435878,15.7711064 C4.51283135,16.0656289 4.25128378,16.370933 3.95364937,16.7271603 C4.23429536,16.9100507 4.4932723,17.1234072 4.72588856,17.3625381 C5.01552733,17.0159652 5.26939828,16.71968 5.52210887,16.4350867 C9.01265385,12.5041636 12.4352618,10.95952 17.5351347,12.2576858 C17.7051753,12.3009694 17.8854612,12.2519537 18.0101784,12.1285321 C20.6700107,9.49633148 21.8580511,4.88781883 20.2305931,1.01652735 C20.0676607,0.628954203 19.5282123,0.603288077 19.3292189,0.973641347 C18.5391233,2.44411433 17.7808751,2.68449302 15.3600269,2.63406114 C14.3575025,2.61317623 13.8675341,2.62011985 13.2438085,2.68930964 C7.3840285,3.33933417 2.49997931,9.65880323 0.230411289,16.1815844 C0.633052474,16.0634016 1.05912212,16 1.5,16 C2.09668298,16 2.66624197,16.1161316 3.1873074,16.3270254 Z" fill-rule="nonzero"/></g><g transform="translate(10.500000, 15.500000) scale(-1, 1) translate(-10.500000, -15.500000) translate(0.000000, 2.000000)"><path d="M3.79227185,24.3732188 C5.51065489,25.9964572 7.88162162,27 10.5,27 C15.7467051,27 20,22.9705627 20,18 C20,16.173276 19.4255394,14.4736628 18.4384279,13.0544537 C18.0979799,13.2616792 17.6839775,13.3274625 17.2884525,13.2267822 C16.7811367,13.0976456 16.2917462,12.9976761 15.8177526,12.9275054 C16.5688408,14.1204331 17,15.5128271 17,17 C17,21.418278 13.1944204,25 8.5,25 C6.99266743,25 5.5769734,24.6307282 4.34947383,23.9830609 C4.17427539,24.1265596 3.9880535,24.2571002 3.79227185,24.3732188 Z"/><path d="M5.95068996,21.1684681 C6.84426195,21.6967986 7.88672273,22 9,22 C12.3137085,22 15,19.3137085 15,16 C15,14.8259326 14.6627821,13.7306267 14.0799191,12.8056549 C13.0089996,12.8217446 12.0106011,13.0199917 11.0480022,13.4095709 C11.6417277,14.107489 12,15.011905 12,16 C12,18.209139 10.209139,20 8,20 C7.21262386,20 6.47838305,19.7725006 5.85942402,19.3796482 C5.95120106,19.7378206 6,20.1132115 6,20.5 C6,20.7271464 5.98317035,20.9503621 5.95068996,21.1684681 Z"/><path d="M6.0337824,17.3679911 C6.20652468,18.2967873 7.02114027,19 8,19 C9.1045695,19 10,18.1045695 10,17 C10,16.0259023 9.30361273,15.2144546 8.38153043,15.036349 C7.68227564,15.6089852 6.98362647,16.2952483 6.26985897,17.0990669 C6.19225299,17.1864639 6.11401067,17.2755835 6.0337824,17.3679911 Z"/><path d="M3.1873074,16.3270254 C3.62820469,15.3365006 4.14071063,14.3514038 4.70932992,13.4386952 C7.05141035,9.67934897 10.1164268,7.300749 13.8179442,6.89014022 C13.9765673,6.87254418 14.1440171,6.8571913 14.3333758,6.84245517 C14.4916171,6.83014064 14.6103642,6.82198435 14.9100404,6.8022512 C17.7617928,6.61446827 19.2398234,5.99633327 19.9252358,3.85090234 C20.2013534,6.58210208 19.2229644,9.38761918 17.5002492,11.2192529 C12.1346669,9.94295244 8.42589017,11.6588864 4.77435878,15.7711064 C4.51283135,16.0656289 4.25128378,16.370933 3.95364937,16.7271603 C4.23429536,16.9100507 4.4932723,17.1234072 4.72588856,17.3625381 C5.01552733,17.0159652 5.26939828,16.71968 5.52210887,16.4350867 C9.01265385,12.5041636 12.4352618,10.95952 17.5351347,12.2576858 C17.7051753,12.3009694 17.8854612,12.2519537 18.0101784,12.1285321 C20.6700107,9.49633148 21.8580511,4.88781883 20.2305931,1.01652735 C20.0676607,0.628954203 19.5282123,0.603288077 19.3292189,0.973641347 C18.5391233,2.44411433 17.7808751,2.68449302 15.3600269,2.63406114 C14.3575025,2.61317623 13.8675341,2.62011985 13.2438085,2.68930964 C7.3840285,3.33933417 2.49997931,9.65880323 0.230411289,16.1815844 C0.633052474,16.0634016 1.05912212,16 1.5,16 C2.09668298,16 2.66624197,16.1161316 3.1873074,16.3270254 Z" fill-rule="nonzero"/></g><path d="M18.0244394,25.5448756 C18.3018143,28.6228921 20.8892497,31 24,31 C27.1107503,31 29.6981857,28.6228921 29.9755606,25.5448756 C30.0003447,25.2698476 29.797482,25.026802 29.5224541,25.0020179 C29.2474261,24.9772338 29.0043805,25.1800965 28.9795964,25.4551244 C28.7485674,28.018842 26.5921157,30 24,30 C21.4078843,30 19.2514326,28.018842 19.0204036,25.4551244 C18.9956195,25.1800965 18.7525739,24.9772338 18.4775459,25.0020179 C18.202518,25.026802 17.9996553,25.2698476 18.0244394,25.5448756 Z" fill-rule="nonzero"/><path d="M20.8801433,18.2238097 C21.603422,16.8720488 22.7155993,16 24,16 C25.2844007,16 26.396578,16.8720488 27.1198567,18.2238097 C26.801041,18.329404 26.4958202,18.470333 26.2096469,18.6422294 C25.651582,17.6294353 24.8535865,17 24,17 C23.1464135,17 22.348418,17.6294353 21.7903531,18.6422294 C21.5041798,18.470333 21.198959,18.329404 20.8801433,18.2238097 Z M20.0135087,22.5 C20.1790553,25.551309 21.8477282,28 24,28 C26.1522718,28 27.8209447,25.551309 27.9864913,22.5 L26.9849008,22.5 C26.8297685,25.0541541 25.5008118,27 24,27 C22.4991882,27 21.1702315,25.0541541 21.0150992,22.5 L20.0135087,22.5 Z" fill-rule="nonzero"/><path d="M28.5,26 C26.5670034,26 25,24.4329966 25,22.5 C25,20.5670034 26.5670034,19 28.5,19 C30.4329966,19 32,20.5670034 32,22.5 C32,24.4329966 30.4329966,26 28.5,26 Z" fill-rule="nonzero"/><path d="M19.5,26 C17.5670034,26 16,24.4329966 16,22.5 C16,20.5670034 17.5670034,19 19.5,19 C21.4329966,19 23,20.5670034 23,22.5 C23,24.4329966 21.4329966,26 19.5,26 Z" fill-rule="nonzero"/><path d="M24,8 C22.3431458,8 21,6.65685425 21,5 C21,3.34314575 22.3431458,2 24,2 C25.6568542,2 27,3.34314575 27,5 C27,6.65685425 25.6568542,8 24,8 Z" fill-rule="nonzero"/><path d="M20.2906484,6.49972793 C20.8839681,7.96578722 22.3212074,9 24,9 C25.6787926,9 27.1160319,7.96578722 27.7093516,6.49972793 C27.8994295,6.96940845 28,7.47678629 28,8 C28,10.209139 26.209139,12 24,12 C21.790861,12 20,10.209139 20,8 C20,7.47678629 20.1005705,6.96940845 20.2906484,6.49972793 Z M28,4.99953991 C27.9997513,2.79061235 26.2089856,1 24,1 C21.7910144,1 20.0002487,2.79061235 20,4.99953991 C19.3556438,5.85710315 19,6.90189746 19,8 C19,10.7614237 21.2385763,13 24,13 C26.7614237,13 29,10.7614237 29,8 C29,6.90189746 28.6443562,5.85710315 28,4.99953991 Z M24,14 C20.1340068,14 17,10.8659932 17,7 C17,3.13400675 20.1340068,0 24,0 C27.8659932,0 31,3.13400675 31,7 C31,10.8659932 27.8659932,14 24,14 Z" fill-rule="nonzero"/><path d="M38.7020283,40.9617171 L37.4594877,43.9767055 C36.4561423,46.4112935 34.0830685,48 31.4498346,48 L16.5501654,48 C13.9169315,48 11.5438577,46.4112935 10.5405123,43.9767055 L9.29781425,40.9613352 C10.1530387,40.8616386 10.996856,40.6309991 11.7968583,40.2616286 C12.3183029,40.0208715 12.7755866,39.7452971 13.2326943,39.3948498 L13.8812974,40.891626 C14.4359569,42.1716095 15.6977493,43 17.0927421,43 L30.9072579,43 C32.3022507,43 33.5640431,42.1716095 34.1187026,40.891626 L34.7664482,39.3968286 C35.2226961,39.7463348 35.6792394,40.0213249 36.199702,40.2616286 C37.0007277,40.6314716 37.8456807,40.8622284 38.7020283,40.9617171 Z" fill-rule="nonzero"/><path d="M31,36 L16.9965604,36 C15.6996711,36 15.0230172,36.3485265 14.0187861,37.3257056 C14.0038872,37.3402032 13.5508856,37.7871238 13.4095831,37.921773 C12.7343836,38.5651805 12.145089,38.9994029 11.3776704,39.3537291 C8.04997791,40.890164 3.49013789,39.7224998 1.49212537,35.9914228 C0.0767609871,33.3483795 0.492098174,29.0539159 2.14419925,27.3806089 C2.45824794,27.0625291 3,27.2849092 3,27.7319005 C3,31.4557499 4.78508176,33.7466493 7.38305367,34.007353 C8.85317484,34.1548781 9.7110745,33.5891366 11.4090392,31.7374338 L11.4663788,31.6748943 C13.2751062,29.7021735 14.267069,29 15.9965604,29 L32,29 C33.7294913,29 34.7214542,29.7021735 36.5301816,31.6748943 L36.5875212,31.7374338 C38.2854859,33.5891366 39.1433855,34.1548781 40.6135067,34.007353 C43.2125498,33.7465418 45,31.4548433 45,27.7319005 C45,27.2849092 45.5417521,27.0625291 45.8558007,27.3806089 C47.5072824,29.0532885 47.9201597,33.3477067 46.504435,35.9914228 C44.5064225,39.7224998 39.9465824,40.890164 36.6188899,39.3537291 C35.8514714,38.9994029 35.2621767,38.5651805 34.5869772,37.921773 C34.4456748,37.7871238 33.9926731,37.3402032 33.9777742,37.3257056 C32.9735432,36.3485265 32.2968892,36 31,36 Z" fill-rule="nonzero"/></g></g></g></svg>