<svg fill="#ED0E76" xmlns="http://www.w3.org/2000/svg" xmlns:xlink="http://www.w3.org/1999/xlink" version="1.1" x="0px" y="0px" viewBox="14 16 72 72" enable-background="new 0 0 100 100" xml:space="preserve"><path stroke="black" stroke-opacity="0.7" stroke-width="0.5" d="M85.267,18.13c-0.011-0.187-0.057-0.373-0.133-0.542l-0.001,0c-0.144-0.317-0.397-0.581-0.724-0.737  c-0.01-0.005-0.02-0.01-0.03-0.014c-0.21-0.098-0.443-0.142-0.677-0.142c-1.997-0.284-9.408-1.06-12.239,2.201  c-0.715,0.822-1.063,1.805-1.034,2.921c0.053,2.07,0.953,3.231,1.699,3.841c0.437,0.356,0.915,0.598,1.396,0.772l-7.058,7.057  c-12.62-11.581-32.486-11.471-44.939,0.493c-0.598,0.574-0.617,1.523-0.042,2.121c0.574,0.598,1.524,0.617,2.121,0.042  c0.871-0.836,1.786-1.602,2.73-2.311c0.018,0.02,0.024,0.046,0.043,0.065l19.838,19.838l-5.747,5.746l-10.353-0.566  c-0.422-0.016-0.841,0.136-1.143,0.438L14.815,73.512c-0.426,0.426-0.556,1.064-0.33,1.622c0.225,0.559,0.762,0.928,1.364,0.938  l9.983,0.176l0.176,9.985c0.011,0.602,0.38,1.139,0.938,1.364c0.182,0.073,0.373,0.109,0.562,0.109c0.391,0,0.774-0.152,1.061-0.439  l14.158-14.158c0.302-0.302,0.46-0.717,0.437-1.143l-0.568-10.369l5.74-5.74l19.697,19.697c0.07,0.07,0.158,0.104,0.237,0.158  c-0.719,0.96-1.495,1.89-2.346,2.774c-0.574,0.598-0.556,1.547,0.041,2.121c0.291,0.28,0.666,0.419,1.04,0.419  c0.394,0,0.787-0.154,1.081-0.46c11.978-12.456,12.092-32.332,0.499-44.958l7.019-7.018c0.174,0.44,0.398,0.876,0.729,1.276  c0.609,0.739,1.768,1.631,3.826,1.685c0.054,0.001,0.107,0.002,0.16,0.002c1.074,0,1.85-0.289,2.704-0.989  C86.565,27.786,85.554,19.904,85.267,18.13z M26.587,65.982l6.839,0.545l-2.089,2.089l-6.832-0.553L26.587,65.982z M35.556,68.655  l0.543,6.841l-2.081,2.08l-0.555-6.829L35.556,68.655z M30.621,61.948l7,0.384l-1.407,1.407l-6.839-0.544L30.621,61.948z   M21.721,70.849l6.832,0.552l-1.861,1.862l-7.256-0.128L21.721,70.849z M28.818,75.392l1.861-1.861l0.555,6.83l-2.288,2.288  L28.818,75.392z M38.887,72.708l-0.543-6.841l1.406-1.406l0.383,7.001L38.887,72.708z M28.858,32.136  c11.077-6.645,25.667-5.463,35.487,3.473L48.337,51.615L28.858,32.136z M69.944,73.223L50.458,53.736l16.008-16.007  C75.407,47.553,76.59,62.144,69.944,73.223z M81.148,28.224c-0.382,0.313-0.51,0.342-0.911,0.329  c-1.123-0.029-1.474-0.454-1.589-0.594c-0.551-0.667-0.517-1.915-0.422-2.481c0.08-0.48-0.077-0.97-0.424-1.313  c-0.283-0.281-0.664-0.435-1.056-0.435c-0.087,0-0.174,0.007-0.261,0.023c-0.448,0.08-1.756,0.157-2.459-0.417  c-0.142-0.115-0.57-0.466-0.599-1.595c-0.01-0.367,0.076-0.621,0.299-0.876c1.443-1.664,6.483-1.596,8.741-1.35  C82.75,21.857,82.852,26.887,81.148,28.224z"/></svg>