<svg xmlns="http://www.w3.org/2000/svg" xmlns:xlink="http://www.w3.org/1999/xlink" version="1.1" x="0px" y="0px" viewBox="0 0 64 64" style="enable-background:new 0 0 64 64;" xml:space="preserve"><g><path style="" d="M59.173,6.612L59.173,6.612   c-6.1-7.483-17.655-7.483-23.755,0l-0.033,0.04c-1.521,1.865-4.227,1.865-5.748,0l-0.033-0.04c-6.075-7.452-17.722-7.452-23.797,0   l0,0c-7.45,9.138-5.744,24.092,1.706,33.231l2.907,3.566l19.561,18.564c1.444,1.371,3.616,1.371,5.06,0l19.561-18.564l0,0   l2.907-3.566C63.609,32.36,65.273,14.095,59.173,6.612z" fill="#FFAED6" stroke="#ED0E76" stroke-width="2" stroke-linejoin="round" stroke-miterlimit="10"/><path style="" d="M28,14l0.5-0.5   c0.828-0.828,2.172-0.828,3,0l0,0c0.828,0.828,0.828,2.172,0,3l-5.601,5.601c-5.467,5.467-5.467,14.332,0,19.799L31.5,47.5   c0.828,0.828,0.828,2.172,0,3h0c-0.828,0.828-2.172,0.828-3,0L28,50" fill="#FFAED6" stroke="#ED0E76" stroke-width="2" stroke-linejoin="round" stroke-miterlimit="10"/><line style="" x1="31" y1="17" x2="44" y2="30" fill="none" stroke="#ED0E76" stroke-width="2" stroke-linejoin="round" stroke-miterlimit="10"/><line style="" x1="31" y1="48" x2="44" y2="35" fill="none" stroke="#ED0E76" stroke-width="2" stroke-linejoin="round" stroke-miterlimit="10"/><path style="" d="M7,32.034l4.351-4.351   c0.91-0.91,2.387-0.91,3.297,0l0,0c0.786,0.786,0.908,2.017,0.291,2.942L14,32.034l0.94,1.41c0.616,0.925,0.495,2.156-0.291,2.942   l0,0c-0.91,0.91-2.387,0.91-3.297,0L7,32.034z" fill="#ffffff" stroke="#ED0E76" stroke-width="2" stroke-linejoin="round" stroke-miterlimit="10"/><line style="" x1="14" y1="32.034" x2="42" y2="32" fill="none" stroke="#ED0E76" stroke-width="2" stroke-linejoin="round" stroke-miterlimit="10"/><path style="" d="M60,37H46   c-1.657,0-3-1.343-3-3v0l-1-1v-3h5v-1c0-1.105,0.895-2,2-2h0c1.105,0,2,0.895,2,2v1h11" fill="none" stroke="#ED0E76" stroke-width="2" stroke-linejoin="round" stroke-miterlimit="10"/><line style="" x1="42" y1="21" x2="44" y2="21" fill="none" stroke="#ED0E76" stroke-width="2" stroke-linejoin="round" stroke-miterlimit="10"/><line style="" x1="46" y1="21" x2="48" y2="21" fill="none" stroke="#ED0E76" stroke-width="2" stroke-linejoin="round" stroke-miterlimit="10"/><line style="" x1="50" y1="21" x2="52" y2="21" fill="none" stroke="#ED0E76" stroke-width="2" stroke-linejoin="round" stroke-miterlimit="10"/></g></svg>