<svg xmlns:dc="http://purl.org/dc/elements/1.1/" xmlns:cc="http://creativecommons.org/ns#" xmlns:rdf="http://www.w3.org/1999/02/22-rdf-syntax-ns#" xmlns:svg="http://www.w3.org/2000/svg" xmlns="http://www.w3.org/2000/svg" xmlns:sodipodi="http://sodipodi.sourceforge.net/DTD/sodipodi-0.dtd" xmlns:inkscape="http://www.inkscape.org/namespaces/inkscape" viewBox="0 0 32 32" version="1.1" x="0px" y="0px"><g transform="translate(0,-1020.3622)"><path fill="#113300" style="color:#000000;font-style:normal;font-variant:normal;font-weight:normal;font-stretch:normal;font-size:medium;line-height:normal;font-family:sans-serif;text-indent:0;text-align:start;text-decoration:none;text-decoration-line:none;text-decoration-style:solid;text-decoration-color:#000000;letter-spacing:normal;word-spacing:normal;text-transform:none;direction:ltr;writing-mode:lr-tb;baseline-shift:baseline;text-anchor:start;white-space:normal;clip-rule:nonzero;display:inline;overflow:visible;visibility:visible;opacity:1;isolation:auto;mix-blend-mode:normal;color-interpolation:sRGB;color-interpolation-filters:linearRGB;solid-color:#000000;solid-opacity:1;fill-opacity:1;fill-rule:nonzero;stroke:none;stroke-width:3.77952743;stroke-linecap:round;stroke-linejoin:round;stroke-miterlimit:4;stroke-dasharray:none;stroke-dashoffset:0;stroke-opacity:1;color-rendering:auto;image-rendering:auto;shape-rendering:auto;text-rendering:auto;enable-background:accumulate" d="m 6.0328794,1031.8827 c 0.5506404,0.8694 0.5916274,2.0312 0.249982,2.9444 -1.5494583,4.142 -0.8776967,8.7574 2.5838038,11.606 3.8336338,3.1576 10.4825048,3.1532 14.3192778,0 3.492558,-2.8712 4.002872,-7.5491 2.353341,-11.7326 -0.355055,-0.9003 -0.264211,-2.0324 0.380832,-2.8178 z m 11.2159916,1.9941 0.002,0 c 0.954511,10e-4 1.747924,0.7721 1.747924,1.7214 a 0.50001392,0.49856574 0 0 1 0,0.01 c -0.001,0.4296 -0.171978,0.8236 -0.443328,1.1333 -0.438429,0.501 -0.850079,0.9583 -1.343653,1.5112 0.653693,-0.1293 1.11199,-0.2117 1.632692,-0.333 0.405061,-0.094 0.893636,-0.1098 1.335844,0.148 0.4085,0.2377 0.647333,0.6247 0.744086,1.0145 0.09639,0.3899 0.06849,0.784 -0.06639,1.1334 -0.129321,0.335 -0.384222,0.6008 -0.671822,0.7594 -0.13738,0.076 -0.299908,0.099 -0.449187,0.1461 0.0113,0.06 0.0217,0.052 0.0293,0.1188 0.0472,0.3506 0.066,0.8194 -0.189447,1.2657 -0.463826,0.811 -1.505051,1.1075 -2.310373,0.6387 a 0.50001392,0.49856574 0 0 1 -0.008,0 c -0.363903,-0.2131 -0.616785,-0.5528 -0.746036,-0.9347 -0.173047,-0.5103 -0.300798,-0.9096 -0.511683,-1.5539 -0.211295,0.6446 -0.340545,1.0451 -0.513633,1.5559 -0.129401,0.3819 -0.389912,0.7214 -0.753856,0.9347 -0.805322,0.4687 -1.846627,0.1704 -2.310373,-0.6407 -0.272111,-0.4757 -0.205875,-0.9779 -0.124991,-1.3475 0.0113,-0.054 0.0142,-0.046 0.0293,-0.095 -0.149499,-0.04 -0.312378,-0.049 -0.449188,-0.1188 -0.315677,-0.1615 -0.596497,-0.4285 -0.738227,-0.779 -0.2752,-0.6799 -0.120461,-1.6311 0.679641,-2.0972 0.441529,-0.2574 0.929203,-0.2415 1.333894,-0.148 l 0.002,0 c 0.520853,0.1213 0.9778,0.2037 1.630743,0.333 -0.463567,-0.5311 -0.826321,-0.9559 -1.234291,-1.3924 -0.291569,-0.3119 -0.552091,-0.7399 -0.552691,-1.2599 0,-0.5018 0.254512,-0.926 0.576129,-1.2132 0.321577,-0.2868 0.711569,-0.4586 1.121009,-0.5004 0.353895,-0.036 0.713339,0.058 0.996028,0.2492 0.119042,0.08 0.201046,0.2212 0.302708,0.3252 0.0238,-0.022 0.0164,-0.022 0.0391,-0.045 0.27048,-0.2455 0.674331,-0.5368 1.214762,-0.5375 z m -0.816351,8.9713 c 0,0 0.145749,0.2528 0.287089,0.5667 0.128681,0.2848 0.270731,0.6048 0.271471,0.9951 a 0.50001393,0.49856575 0 0 1 0.002,0.1168 c -0.0418,0.5468 -0.331686,1.0125 -0.589797,1.4138 -0.257981,0.4013 -0.509733,0.7068 -0.509733,0.7068 a 0.50001393,0.49856575 0 1 1 -0.775334,-0.627 c 0,0 0.218084,-0.2672 0.443328,-0.6173 0.224973,-0.3501 0.424189,-0.8109 0.435508,-0.9503 0.003,-0.038 -0.07539,-0.3755 -0.191386,-0.6329 -0.116022,-0.2572 -0.236313,-0.4634 -0.236313,-0.4634 z"/><path fill="#eebb33" style="color:#000000;font-style:normal;font-variant:normal;font-weight:normal;font-stretch:normal;font-size:medium;line-height:normal;font-family:sans-serif;text-indent:0;text-align:start;text-decoration:none;text-decoration-line:none;text-decoration-style:solid;text-decoration-color:#000000;letter-spacing:normal;word-spacing:normal;text-transform:none;direction:ltr;writing-mode:lr-tb;baseline-shift:baseline;text-anchor:start;white-space:normal;clip-rule:nonzero;display:inline;overflow:visible;visibility:visible;opacity:1;isolation:auto;mix-blend-mode:normal;color-interpolation:sRGB;color-interpolation-filters:linearRGB;solid-color:#000000;solid-opacity:1;fill-opacity:1;fill-rule:nonzero;stroke:none;stroke-width:0.99999994;stroke-linecap:round;stroke-linejoin:round;stroke-miterlimit:4;stroke-dasharray:none;stroke-dashoffset:0;stroke-opacity:1;color-rendering:auto;image-rendering:auto;shape-rendering:auto;text-rendering:auto;enable-background:accumulate" d="m 11.653553,1022.8666 c 0.153816,0.01 0.299317,0.019 0.431629,0.043 0.529247,0.089 0.771913,0.2705 0.826107,0.3875 0.05404,0.1168 0.01134,0.3693 -0.332196,0.6815 -0.343534,0.3121 -0.936008,0.6218 -1.671754,0.8101 -0.735783,0.1885 -1.4666152,0.2171 -1.9959376,0.1285 -0.5293225,-0.089 -0.7719507,-0.2686 -0.8261074,-0.3855 -0.054043,-0.1168 -0.011338,-0.3712 0.3321965,-0.6835 0.3435343,-0.312 0.9437556,-0.6218 1.6795385,-0.8101 0.551809,-0.1413 1.09538,-0.1922 1.556524,-0.1715 z"/><path fill="#eebb33" style="color:#000000;font-style:normal;font-variant:normal;font-weight:normal;font-stretch:normal;font-size:medium;line-height:normal;font-family:sans-serif;text-indent:0;text-align:start;text-decoration:none;text-decoration-line:none;text-decoration-style:solid;text-decoration-color:#000000;letter-spacing:normal;word-spacing:normal;text-transform:none;direction:ltr;writing-mode:lr-tb;baseline-shift:baseline;text-anchor:start;white-space:normal;clip-rule:nonzero;display:inline;overflow:visible;visibility:visible;opacity:1;isolation:auto;mix-blend-mode:normal;color-interpolation:sRGB;color-interpolation-filters:linearRGB;solid-color:#000000;solid-opacity:1;fill-opacity:1;fill-rule:nonzero;stroke:none;stroke-width:0.99999994;stroke-linecap:round;stroke-linejoin:round;stroke-miterlimit:4;stroke-dasharray:none;stroke-dashoffset:0;stroke-opacity:1;color-rendering:auto;image-rendering:auto;shape-rendering:auto;text-rendering:auto;enable-background:accumulate" d="m 19.465501,1023.4411 c 0.585331,-0.038 1.292769,0.081 1.952968,0.37 0.660198,0.2898 1.155091,0.6991 1.41397,1.0827 0.226,0.335 0.267949,0.6076 0.193498,0.8374 -0.374146,0.1899 -0.722405,0.4141 -1.03117,0.6777 a 0.49393961,0.50469704 67.051305 0 0 -0.07218,0.01 c -0.665715,0.098 -1.504823,-0.049 -2.236147,-0.3738 0.186317,-0.2585 0.310655,-0.5476 0.310655,-0.8783 0,-0.7027 -0.508877,-1.2336 -1.165938,-1.5968 0.184805,-0.061 0.3924,-0.1089 0.634726,-0.1247 z"/><path fill="#eebb33" style="color:#000000;font-style:normal;font-variant:normal;font-weight:normal;font-stretch:normal;font-size:medium;line-height:normal;font-family:sans-serif;text-indent:0;text-align:start;text-decoration:none;text-decoration-line:none;text-decoration-style:solid;text-decoration-color:#000000;letter-spacing:normal;word-spacing:normal;text-transform:none;direction:ltr;writing-mode:lr-tb;baseline-shift:baseline;text-anchor:start;white-space:normal;clip-rule:nonzero;display:inline;overflow:visible;visibility:visible;opacity:1;isolation:auto;mix-blend-mode:normal;color-interpolation:sRGB;color-interpolation-filters:linearRGB;solid-color:#000000;solid-opacity:1;fill-opacity:1;fill-rule:nonzero;stroke:none;stroke-width:0.99999994;stroke-linecap:round;stroke-linejoin:round;stroke-miterlimit:4;stroke-dasharray:none;stroke-dashoffset:0;stroke-opacity:1;color-rendering:auto;image-rendering:auto;shape-rendering:auto;text-rendering:auto;enable-background:accumulate" d="m 15.997014,1023.9123 c 0.898669,0 1.709546,0.1922 2.251793,0.4635 0.54221,0.2713 0.751883,0.572 0.751883,0.7867 0,0.1477 -0.109598,0.3399 -0.347691,0.5336 a 0.49393961,0.50469704 67.051305 0 0 -0.195388,0.1364 c -0.06727,0.042 -0.127361,0.084 -0.208993,0.1247 -0.542247,0.2713 -1.353124,0.4576 -2.251793,0.4576 -0.898669,0 -1.709546,-0.1861 -2.251794,-0.4576 -0.542248,-0.2713 -0.746063,-0.5797 -0.746063,-0.7945 0,-0.071 0.03401,-0.1537 0.08201,-0.2397 0.109598,-0.078 0.219575,-0.1548 0.312544,-0.2396 0.07294,-0.066 0.131896,-0.1417 0.195388,-0.2141 0.05291,-0.03 0.09486,-0.063 0.156083,-0.093 0.542248,-0.2713 1.353125,-0.4635 2.251794,-0.4635 z"/><path fill="#eebb33" style="color:#000000;font-style:normal;font-variant:normal;font-weight:normal;font-stretch:normal;font-size:medium;line-height:normal;font-family:sans-serif;text-indent:0;text-align:start;text-decoration:none;text-decoration-line:none;text-decoration-style:solid;text-decoration-color:#000000;letter-spacing:normal;word-spacing:normal;text-transform:none;direction:ltr;writing-mode:lr-tb;baseline-shift:baseline;text-anchor:start;white-space:normal;clip-rule:nonzero;display:inline;overflow:visible;visibility:visible;opacity:1;isolation:auto;mix-blend-mode:normal;color-interpolation:sRGB;color-interpolation-filters:linearRGB;solid-color:#000000;solid-opacity:1;fill-opacity:1;fill-rule:nonzero;stroke:none;stroke-width:0.99999994;stroke-linecap:round;stroke-linejoin:round;stroke-miterlimit:4;stroke-dasharray:none;stroke-dashoffset:0;stroke-opacity:1;color-rendering:auto;image-rendering:auto;shape-rendering:auto;text-rendering:auto;enable-background:accumulate" d="m 12.040247,1025.4741 c 0.03968,0.1771 0.129628,0.3357 0.228645,0.4888 -0.587788,0.066 -1.18612,0.254 -1.757656,0.5472 -0.295538,-0.2333 -0.6166236,-0.4369 -0.9648064,-0.6057 0.5670394,0.019 1.1739504,-0.044 1.7850554,-0.2004 0.251321,-0.064 0.485068,-0.1436 0.708913,-0.2299 z"/><path fill="#eebb33" style="color:#000000;font-style:normal;font-variant:normal;font-weight:normal;font-stretch:normal;font-size:medium;line-height:normal;font-family:sans-serif;text-indent:0;text-align:start;text-decoration:none;text-decoration-line:none;text-decoration-style:solid;text-decoration-color:#000000;letter-spacing:normal;word-spacing:normal;text-transform:none;direction:ltr;writing-mode:lr-tb;baseline-shift:baseline;text-anchor:start;white-space:normal;clip-rule:nonzero;display:inline;overflow:visible;visibility:visible;opacity:1;isolation:auto;mix-blend-mode:normal;color-interpolation:sRGB;color-interpolation-filters:linearRGB;solid-color:#000000;solid-opacity:1;fill-opacity:1;fill-rule:nonzero;stroke:none;stroke-width:0.99999994;stroke-linecap:round;stroke-linejoin:round;stroke-miterlimit:4;stroke-dasharray:none;stroke-dashoffset:0;stroke-opacity:1;color-rendering:auto;image-rendering:auto;shape-rendering:auto;text-rendering:auto;enable-background:accumulate" d="m 24.996365,1026.2121 c 0.374524,0 0.682798,0.088 0.871005,0.2299 0.188207,0.1417 0.278153,0.3097 0.297049,0.5433 0.0189,0.2336 -0.05329,0.5464 -0.255855,0.8958 a 0.49498316,0.50509366 17.052333 0 0 -0.01134,0.019 l -3.905974,0 c 0.365454,-0.5521 0.994511,-1.1024 1.732298,-1.4157 0.457101,-0.1941 0.898895,-0.2747 1.273344,-0.2728 z"/><path fill="#eebb33" style="color:#000000;font-style:normal;font-variant:normal;font-weight:normal;font-stretch:normal;font-size:medium;line-height:normal;font-family:sans-serif;text-indent:0;text-align:start;text-decoration:none;text-decoration-line:none;text-decoration-style:solid;text-decoration-color:#000000;letter-spacing:normal;word-spacing:normal;text-transform:none;direction:ltr;writing-mode:lr-tb;baseline-shift:baseline;text-anchor:start;white-space:normal;clip-rule:nonzero;display:inline;overflow:visible;visibility:visible;opacity:1;isolation:auto;mix-blend-mode:normal;color-interpolation:sRGB;color-interpolation-filters:linearRGB;solid-color:#000000;solid-opacity:1;fill-opacity:1;fill-rule:nonzero;stroke:none;stroke-width:0.99999994;stroke-linecap:round;stroke-linejoin:round;stroke-miterlimit:4;stroke-dasharray:none;stroke-dashoffset:0;stroke-opacity:1;color-rendering:auto;image-rendering:auto;shape-rendering:auto;text-rendering:auto;enable-background:accumulate" d="m 7.6558194,1026.4322 c 0.3767918,-0 0.8221014,0.078 1.2792023,0.2724 0.6402814,0.2717 1.1974193,0.7217 1.5740973,1.1957 l -3.8473949,0 c -0.1205582,-0.266 -0.1829159,-0.5101 -0.1677989,-0.6971 0.018896,-0.2337 0.099394,-0.3976 0.2872234,-0.5395 0.1882069,-0.1416 0.4979924,-0.2287 0.8749354,-0.2317 z"/><path fill="#eebb33" style="color:#000000;font-style:normal;font-variant:normal;font-weight:normal;font-stretch:normal;font-size:medium;line-height:normal;font-family:sans-serif;text-indent:0;text-align:start;text-decoration:none;text-decoration-line:none;text-decoration-style:solid;text-decoration-color:#000000;letter-spacing:normal;word-spacing:normal;text-transform:none;direction:ltr;writing-mode:lr-tb;baseline-shift:baseline;text-anchor:start;white-space:normal;clip-rule:nonzero;display:inline;overflow:visible;visibility:visible;opacity:1;isolation:auto;mix-blend-mode:normal;color-interpolation:sRGB;color-interpolation-filters:linearRGB;solid-color:#000000;solid-opacity:1;fill-opacity:1;fill-rule:nonzero;stroke:none;stroke-width:0.99999994;stroke-linecap:round;stroke-linejoin:round;stroke-miterlimit:4;stroke-dasharray:none;stroke-dashoffset:0;stroke-opacity:1;color-rendering:auto;image-rendering:auto;shape-rendering:auto;text-rendering:auto;enable-background:accumulate" d="m 18.87178,1026.7418 c 0.694891,0.386 1.476177,0.6347 2.249866,0.6854 -0.09524,0.1557 -0.197655,0.3083 -0.265682,0.4733 l -1.810414,0 c -0.494667,-0.2035 -0.914315,-0.4614 -1.240163,-0.7264 0.320481,-0.088 0.62524,-0.1914 0.892509,-0.3252 0.06198,-0.03 0.114512,-0.073 0.173846,-0.107 z"/><path fill="#eebb33" style="color:#000000;font-style:normal;font-variant:normal;font-weight:normal;font-stretch:normal;font-size:medium;line-height:normal;font-family:sans-serif;text-indent:0;text-align:start;text-decoration:none;text-decoration-line:none;text-decoration-style:solid;text-decoration-color:#000000;letter-spacing:normal;word-spacing:normal;text-transform:none;direction:ltr;writing-mode:lr-tb;baseline-shift:baseline;text-anchor:start;white-space:normal;clip-rule:nonzero;display:inline;overflow:visible;visibility:visible;opacity:1;isolation:auto;mix-blend-mode:normal;color-interpolation:sRGB;color-interpolation-filters:linearRGB;solid-color:#000000;solid-opacity:1;fill-opacity:1;fill-rule:nonzero;stroke:none;stroke-width:0.99999994;stroke-linecap:round;stroke-linejoin:round;stroke-miterlimit:4;stroke-dasharray:none;stroke-dashoffset:0;stroke-opacity:1;color-rendering:auto;image-rendering:auto;shape-rendering:auto;text-rendering:auto;enable-background:accumulate" d="m 12.702297,1026.9015 c 0.191986,-0 0.369989,0.01 0.525354,0.041 0.310655,0.068 0.497123,0.1955 0.609367,0.3368 0.113,0.1414 0.170822,0.3087 0.136809,0.5648 a 0.51085174,0.48798862 14.077545 0 0 -0.0076,0.056 l -2.286941,0 c -0.114512,-0.2276 -0.249809,-0.446 -0.414018,-0.6524 0.496179,-0.2114 1.00309,-0.3342 1.437365,-0.3467 z"/><path fill="#eebb33" style="color:#000000;font-style:normal;font-variant:normal;font-weight:normal;font-stretch:normal;font-size:medium;line-height:normal;font-family:sans-serif;text-indent:0;text-align:start;text-decoration:none;text-decoration-line:none;text-decoration-style:solid;text-decoration-color:#000000;letter-spacing:normal;word-spacing:normal;text-transform:none;direction:ltr;writing-mode:lr-tb;baseline-shift:baseline;text-anchor:start;white-space:normal;clip-rule:nonzero;display:inline;overflow:visible;visibility:visible;opacity:1;isolation:auto;mix-blend-mode:normal;color-interpolation:sRGB;color-interpolation-filters:linearRGB;solid-color:#000000;solid-opacity:1;fill-opacity:1;fill-rule:nonzero;stroke:none;stroke-width:0.99999994;stroke-linecap:round;stroke-linejoin:round;stroke-miterlimit:4;stroke-dasharray:none;stroke-dashoffset:0;stroke-opacity:1;color-rendering:auto;image-rendering:auto;shape-rendering:auto;text-rendering:auto;enable-background:accumulate" d="m 14.950198,1027.3318 c 0.335598,0.049 0.681853,0.084 1.046816,0.084 0.206347,0 0.405287,-0.015 0.603471,-0.03 0.144368,0.1832 0.314812,0.3543 0.505816,0.5161 l -2.118991,0 c 0.01512,-0.1937 0.0076,-0.3858 -0.03779,-0.5686 z"/><path fill="#225500" style="color:#000000;font-style:normal;font-variant:normal;font-weight:normal;font-stretch:normal;font-size:medium;line-height:normal;font-family:sans-serif;text-indent:0;text-align:start;text-decoration:none;text-decoration-line:none;text-decoration-style:solid;text-decoration-color:#000000;letter-spacing:normal;word-spacing:normal;text-transform:none;direction:ltr;writing-mode:lr-tb;baseline-shift:baseline;text-anchor:start;white-space:normal;clip-rule:nonzero;display:inline;overflow:visible;visibility:visible;opacity:1;isolation:auto;mix-blend-mode:normal;color-interpolation:sRGB;color-interpolation-filters:linearRGB;solid-color:#000000;solid-opacity:1;fill-opacity:1;fill-rule:nonzero;stroke:none;stroke-width:0.99999994;stroke-linecap:round;stroke-linejoin:round;stroke-miterlimit:4;stroke-dasharray:none;stroke-dashoffset:0;stroke-opacity:1;color-rendering:auto;image-rendering:auto;shape-rendering:auto;text-rendering:auto;enable-background:accumulate" d="m 3.9431925,1028.8936 24.1076425,0 c 0.251698,0 0.449164,0.1911 0.449164,0.442 l 0,1.554 -1.296776,0 a 0.50001394,0.49856576 0 0 0 -0.349581,0 l -21.7640503,0 a 0.50001394,0.49856576 0 0 0 -0.062358,-0 l 0,0 -1.5272348,0 0,-1.554 c 0,-0.2509 0.1916083,-0.442 0.4433444,-0.442 z"/><path fill="#225500" style="color:#000000;font-style:normal;font-variant:normal;font-weight:normal;font-stretch:normal;font-size:medium;line-height:normal;font-family:sans-serif;text-indent:0;text-align:start;text-decoration:none;text-decoration-line:none;text-decoration-style:solid;text-decoration-color:#000000;letter-spacing:normal;word-spacing:normal;text-transform:none;direction:ltr;writing-mode:lr-tb;baseline-shift:baseline;text-anchor:start;white-space:normal;clip-rule:nonzero;display:inline;overflow:visible;visibility:visible;opacity:1;isolation:auto;mix-blend-mode:normal;color-interpolation:sRGB;color-interpolation-filters:linearRGB;solid-color:#000000;solid-opacity:1;fill-opacity:1;fill-rule:evenodd;stroke:none;stroke-width:0.99999994;stroke-linecap:round;stroke-linejoin:round;stroke-miterlimit:4;stroke-dasharray:none;stroke-dashoffset:0;stroke-opacity:1;color-rendering:auto;image-rendering:auto;shape-rendering:auto;text-rendering:auto;enable-background:accumulate" d="m 9.1010183,1047.5373 a 0.50001394,0.49856576 0 0 0 -0.050796,0.08 l -0.9960182,1.9883 a 0.50001394,0.49856576 0 1 0 0.8925056,0.442 l 0.9979781,-1.9804 a 0.50001394,0.49856576 0 0 0 0.004,-0.01 c -0.290729,-0.1615 -0.5742786,-0.3345 -0.8475989,-0.5219 z"/><path fill="#225500" style="color:#000000;font-style:normal;font-variant:normal;font-weight:normal;font-stretch:normal;font-size:medium;line-height:normal;font-family:sans-serif;text-indent:0;text-align:start;text-decoration:none;text-decoration-line:none;text-decoration-style:solid;text-decoration-color:#000000;letter-spacing:normal;word-spacing:normal;text-transform:none;direction:ltr;writing-mode:lr-tb;baseline-shift:baseline;text-anchor:start;white-space:normal;clip-rule:nonzero;display:inline;overflow:visible;visibility:visible;opacity:1;isolation:auto;mix-blend-mode:normal;color-interpolation:sRGB;color-interpolation-filters:linearRGB;solid-color:#000000;solid-opacity:1;fill-opacity:1;fill-rule:evenodd;stroke:none;stroke-width:0.99999994;stroke-linecap:round;stroke-linejoin:round;stroke-miterlimit:4;stroke-dasharray:none;stroke-dashoffset:0;stroke-opacity:1;color-rendering:auto;image-rendering:auto;shape-rendering:auto;text-rendering:auto;enable-background:accumulate" d="m 22.916433,1047.5606 c -0.275111,0.1868 -0.559,0.3612 -0.851509,0.5219 l 0.980399,1.9649 a 0.5017781,0.50032481 0 0 0 0.900325,-0.4421 l -0.996018,-1.9882 a 0.50001394,0.49856576 0 0 0 -0.0332,-0.056 z"/></g></svg>