<svg fill="#861001" xmlns="http://www.w3.org/2000/svg" xmlns:xlink="http://www.w3.org/1999/xlink" version="1.1" x="0px" y="0px" viewBox="0 0 100 100" enable-background="new 0 0 100 100" xml:space="preserve"><g><path fill="#861001" d="M91.885,29.765c-0.236-0.491-0.776-0.765-1.315-0.658c-1.857,0.366-3.762,0.553-5.66,0.553   c-4.291,0-8.439-0.927-12.222-2.677l3.023-3.022c1.362-1.362,2.111-3.172,2.111-5.098s-0.749-3.735-2.111-5.095   c-1.363-1.362-3.171-2.111-5.097-2.111s-3.733,0.75-5.097,2.111l-4.039,4.04c-1.077-1.462-2.031-3.012-2.825-4.659   c-0.236-0.492-0.772-0.763-1.315-0.658c-6.143,1.212-11.736,4.199-16.173,8.638c-4.439,4.437-7.426,10.031-8.638,16.176   c-0.105,0.537,0.165,1.078,0.659,1.315c1.646,0.791,3.196,1.744,4.657,2.823L7.117,72.168c-2.81,2.811-2.81,7.383,0,10.192   c1.36,1.362,3.171,2.112,5.096,2.112s3.735-0.75,5.098-2.112l29.697-29.697c2.541,5.502,3.345,11.737,2.136,17.872   c-0.105,0.537,0.166,1.078,0.658,1.314c1.356,0.651,2.768,1.193,4.208,1.645c2.982,1.377,5.246,2.59,5.246,10.651   c0,5.993,3.97,5.071,3.784,0.369c-0.183-4.702,1.066-5.144,3.417-5.731c2.352-0.588,4.995-0.773,6.429-3.895   c1.011-2.2,3.901-0.998,3.901,2.718c0,3.717,3.191,3.455,3.191-0.263c0-3.717,0.639-3.904,2.741-5.331   c1.484-1.007,4.4-5.97,5.854-9.54C95.64,53.153,97.052,40.51,91.885,29.765z M67.217,15.466c1.816-1.816,4.979-1.816,6.795,0   c0.908,0.907,1.408,2.113,1.408,3.396c0,0.075-0.02,0.148-0.023,0.223c-0.16,0.218-0.337,0.429-0.535,0.627l-5.456,5.456   c-0.744-0.468-1.474-0.957-2.172-1.488c-0.011-0.008-0.02-0.017-0.03-0.024c-0.453-0.347-0.893-0.709-1.323-1.081   c-0.085-0.073-0.169-0.146-0.254-0.22c-0.449-0.396-0.89-0.804-1.313-1.228c-0.009-0.01-0.017-0.019-0.026-0.028   c-0.451-0.453-0.875-0.929-1.293-1.409L67.217,15.466z M8.816,73.867l30.913-30.912c0.488,0.428,0.975,0.859,1.436,1.32   c0.447,0.447,0.878,0.909,1.294,1.383c0.079,0.09,0.15,0.186,0.229,0.275c0.336,0.396,0.669,0.796,0.986,1.208   c0.062,0.083,0.119,0.167,0.182,0.25c0.324,0.431,0.64,0.868,0.938,1.317c0.048,0.072,0.092,0.146,0.14,0.218   c0.094,0.144,0.18,0.295,0.271,0.441L16.461,78.113c-2.347,2.347-6.15,2.347-8.494,0c-0.196-0.196-0.373-0.406-0.534-0.623   C7.372,76.186,7.821,74.862,8.816,73.867z M47.267,48.111c-0.047-0.076-0.097-0.149-0.146-0.224   c-0.338-0.527-0.69-1.046-1.062-1.554c-0.104-0.144-0.209-0.287-0.315-0.428c-0.333-0.441-0.68-0.875-1.037-1.299   c-0.124-0.149-0.245-0.3-0.372-0.447c-0.449-0.513-0.912-1.017-1.397-1.505c-0.025-0.026-0.048-0.054-0.073-0.08   c-0.444-0.442-0.921-0.881-1.445-1.337c-0.298-0.262-0.604-0.514-0.91-0.765c-0.032-0.027-0.062-0.052-0.095-0.079   c-0.003-0.003-0.009-0.003-0.013-0.007c-0.574-0.466-1.162-0.913-1.768-1.336c0.862-4.93,3.16-9.656,6.968-13.464   c3.815-3.815,8.556-6.117,13.497-6.975c0.42,0.598,0.861,1.179,1.322,1.747c0.003,0.005,0.004,0.013,0.009,0.019   c0.025,0.031,0.047,0.054,0.072,0.083c0.274,0.338,0.555,0.671,0.845,0.997c0.43,0.491,0.852,0.954,1.267,1.369   c0.507,0.506,1.033,0.987,1.567,1.455c0.095,0.082,0.188,0.163,0.283,0.243c5.7,4.873,12.865,7.537,20.445,7.537   c0.33,0,0.659-0.03,0.989-0.041c4.811,9.47,3.301,21.324-4.617,29.241c-7.91,7.908-19.741,9.427-29.207,4.639   C52.281,59.601,50.6,53.415,47.267,48.111z"></path><circle fill="#861001" cx="70.391" cy="18.894" r="2.928"></circle></g></svg>