<?xml version="1.0" encoding="utf-8"?>
<svg version="1.1" id="Layer_1" xmlns="http://www.w3.org/2000/svg" xmlns:xlink="http://www.w3.org/1999/xlink" x="0px" y="0px"
	 viewBox="0 0 1058 1744" enable-background="new 0 0 1058 1744" xml:space="preserve">
<path fill="#6047b0" enable-background="new    " d="M980.778,108.254c-57.925-46.288-245.98,137.651-283.545,215.743
	c-1.037-1.175-1.969-2.428-2.864-3.704c-0.67-0.055-1.34-0.11-1.987-0.165c1.331,0.675,2.295,1.818,2.814,3.217
	c-0.913,1.221,0.349,2.704,0.464,4.021c-0.734,1.423-1.391,2.892-1.951,4.393c-0.487-1.002-3.213-5.805-3.543-8.496
	c0.262-1.005,0.762-1.923,1.069-2.915c0.441-1.129-0.418-2.18-0.505-3.286c0.368-3.318,2.758-6.22-2.474-10.414
	c-0.5,1.391-0.027,3.539-1.478,4.328c-0.555-0.431-1.047-0.923-1.538-1.4c0.902-1.264,1.706-2.148,1.368-3.149
	c-0.444-1.031-2.938-3.8-5.306-4.631c-0.597,0.578-1.198,1.157-1.79,1.735c-0.601-0.969-1.221-1.919-1.808-2.887
	c-0.344-1.948,0.283-15.867-11.727-25.226c-7.012-6.378,0.586-2.204-23.312-12.59c-1.73-3.493-5.659-5.678-9.497-5.623
	c0.312,0.675,1.161,0.652,1.795,0.858c2.29,0.395,4.448,1.57,6.091,3.213c-2.111-0.551-3.709-2.359-5.944-2.483
	c-1.519-0.317-3.034-0.67-4.489-1.193c0.633-0.138,1.299-0.225,1.905-0.523c-0.037-0.092-0.106-0.271-0.138-0.363
	c-9.912-1.898-4.166-2.134-10.896-2.134c-4.828,0.097-3.371-1.711-6.499-0.698c-3.213,1.026-5.517-0.417-8.514-0.863
	c-0.083-0.106-0.248-0.317-0.331-0.418c-0.087-0.376-0.257-1.12-0.34-1.492c-1.033,0.05-1.983,0.422-2.836,0.973
	c-2.262-0.922-4.607,1.005-6.458,0.45c-1.687-1.674-0.965-2.225-3.465-0.913c-21.539-2.742-28.087,4.116-35.705,9.194
	c-3.596,0.929-5.129-0.276-8.914,3.888c-0.537-0.147-1.069-0.289-1.588-0.431c-2.933,1.285-6.095,1.818-9.216,2.387
	c-1.414,2.382-2.983,4.705-4.884,6.724c0.225-0.845,0.468-1.685,0.725-2.515c0.496-0.441,0.991-0.881,1.482-1.336
	c-1.494-0.518-6.775-0.24-6.15,8.569c-0.202,0.152-0.399,0.308-0.578,0.473c-2.736,0.092-5.526,1.469-6.688,4.048
	c0.349-0.009,1.047-0.023,1.395-0.032c-0.156,0.372-0.303,0.748-0.445,1.125c-1.676-0.818-1.983-1.332-5.292-0.9
	c0.032-0.289,0.096-0.867,0.129-1.157c-0.528,0.491-1.014,1.019-1.464,1.574c0.647,1.056,1.01,2.254,0.638,3.484
	c0.253-0.128,0.757-0.381,1.01-0.509c-0.193,0.744-0.367,1.492-0.587,2.226c-11.619,14.214-6.135,12.416-6.678,16.895
	c-0.937,3.469-2.516,2.451-3.961,9.143c-0.629,1.216-1.193,2.469-1.583,3.791c0.528,0.422,1.065,0.858,1.606,1.294
	c0.243-0.799,0.505-1.593,0.789-2.373c0.927,1.253-0.275,2.584-0.615,3.832c-0.618,2.796-7.558,4.751-1.317,10.672
	c-1.844,5.481-2.91,12.817-2.263,14.94c0.151-2.222,1.048-10.544,1.886-12.659c0.867,3.64-0.436,7.399,0.464,11.002
	c0.607,2.29,0.739,2.348,1.212,4.668c-0.17,2.41,0.771,4.668,1.845,6.765c0.185,2.07-0.859,4.888,0.913,6.784
	c0.826,0.018,1.652-0.161,2.488-0.184c4.075,2.709-2.168,9.689,0.229,25.116c-0.433,2.968,2.024,17.185,1.964,18.185
	c-1.512,9.266-4.384,7.112-7.605,34.53c-0.016,0.193-1.443,12.643-1.639,13.54c-0.73,1.547-1.23,3.208-1.019,4.948
	c0.532-1.065,0.991-2.162,1.423-3.268c0.542,0.454,1.092,0.909,1.652,1.363c1.652-4.378,0.735-6.045,2.171-12.205
	c-0.176-3.624,1.447-6.578,2.171-8.432c0.413,2.699-0.955,5.251-0.794,7.95c-0.78,9.262-3.677,18.35-3.19,27.718
	c0.116-1,3.237-25.527,4.273-28.099l0.142,0.262c-0.108,2.048,0.874,20.9,2.098,25.221c1.696-11.107,4.127-40.371,4.149-40.529
	c0.264,1,2.316,9.028,2.501,9.955c-1.729,9.858-4.038,40.017,1.524,48.377c-0.028-0.835-0.06-1.671-0.078-2.497
	c0.707,1.106,1.372,2.245,2.015,3.401c-1.824-11.118-2.329,3.789-2.359-30.339c0.046-2.942-0.06-5.889,0.289-8.817
	c0.652,4.067-0.184,8.207,0.523,12.269c0.684-1.864,0.753-3.86,1.079-5.793c-0.005,3.002-0.197,6.095,0.987,8.932
	c0.926,28.537,1.456,12.027,5.008,32.106c-27.583,2.605-51.077-7.024-70.882,24.831c-60.096-224.306-30.684-165.673-180.952-357.263
	c-21.769-27.221-65.392-86.748-124.515-92.238c-9.019-0.72-27.919,0.151-31.188,8.611c-2.577,7.761,5.592,19.406,9.795,33.938
	c21.206,69.665-54.962,208.998-37.38,280.676c0.669,3.029,6.757,9.048,12.498,9.418c1.758,0.22,3.548,0.165,5.292,0.514
	c1.308,0.776,2.235,2.052,3.291,3.126c-26.096,43.036-38.05,51.204-40.735,124.023c-4.691,144.8,54.02,123.849,52.527,189.59
	c-0.766,35.419-14.126,63.412-4.865,76.858c28.437,5.918,74.355-65.959,83.784-78.079c43.329-53.5,203.375-161.744,227.158-157.883
	c11.297,1.032-35.588,34.358-78.689,76.83c-31.818,30.353-54.55,67.718-83.421,102.006c-60.382,73.517-30.506,46.399-81.714,128.522
	c-59.47,92.072-98.603,72.064-112.585,81.691c4.84,4.929,67.735,15.78,83.871,12.306c41.036-7.939,95.867-77.227,118.929-107.555
	c59.439-77.812,79.11-190.699,91.385-215.146c0.294,3.387-0.436,6.77-0.06,10.162c-0.115-0.753-0.22-1.487-0.326-2.226
	c-0.321,12.943-2.616,25.735-3.41,38.638c1.55-3.453,13.478-31.862,19.181-42.75c6.594-12.69,38.479-58.124,60.27-69.872
	c-0.235,3.829-1.897,29.385-5.375,33.492c-62.976,69.463-107.502,178.012-116.528,196.865
	c-37.925,78.895-60.09,98.987-91.013,170.67c-27.391,64.103-36.844,134.289-37.348,158.411c-0.078-0.225-0.156-0.436-0.229-0.624
	c-0.023,3.929-0.615,7.835-0.643,11.773c-7.664,151.975,76.192,204.143,78.056,196.098c1.456-6.699,0.243-9.208-4.567-24.694
	c-4.327-13.763,3.805-14.037,12.581-29.692c4.523-8.08,4.671-32.126,12.104-53.61c30.489-96.214,45.96-58.308,20.053-139.982
	c-46.396-142.59,22.208-165.779,99.821-398.292c6.32-18.764,12.893-37.536,22.123-55.106
	c-26.626,116.679-24.196,63.362-46.831,132.873c-39.703,118.4-82.168,187.364-70.386,230.155c1.166,2.956,1.193,6.43,3.3,8.959
	c2.462,3.401-0.073-1.467,4.122,13.972c0.184,1.148,0.028,2.323,0.014,3.498c0.629,0.285,1.262,0.574,1.905,0.872
	c1.478,4.433,1.934,6.542,3.424,6.88c7.056-0.072,5.456-7.475,4.911-12.2c0.551-1.978,1.524-3.837,1.79-5.898
	c6.837-33.841,2.044-11.482,10.052-36.274c0.785-2.566,3.061-4.214,4.36-6.481c4.41-6.757,4.506-16.969,6.862-19.034
	c1.253,0.142,1.955,1.359,1.992,2.534c0.936,12.128-1.559,15.62-2.345,18.36c-1.822,6.012-2.884,17.944,5.87,18.869
	c3.814,0.364,4.055-1.968,7.045-10.539c3.521-9.631,1.777-11.325,4.057-22.536c0.936-5.058,2.882-9.96,2.809-15.174
	c-0.33-8.142-0.055-16.455-2.396-24.354c-4.353-14.435-22.734-10.365,39.859-101.001c56.433-81.15,34.248-57.366,61.803-142.516
	c3.277-10.286,6.311-20.641,9.138-31.055c6.292,31.65,0.438,25.373,7.284,35.328c0.799,2.249,0.918,4.686,1.437,7.018
	c-1.574,0.991-3.213,2.075-4.145,3.736c0.285,3.745,1.831,7.261,2.249,10.988c0.211,1.561,1.611,2.547,2.226,3.938
	c4.288,10.271,0.884,21.63,10.268,50.833c7.539,22.303,3.201,20.648,6.871,35.875c0.252,0.918,0.358,1.992,1.184,2.625
	c0.193-0.858,0.381-1.698,0.574-2.543c4.795,10.64,5.656,4.973,3.484,35.461c-0.56,8.776-2.428,17.405-2.869,26.19
	c-0.491,9.365,0.789,7.942-2.534,27.103c-3.217-0.5-5.04,2.57-6.995,4.526c-0.578,0.156-1.147,0.326-1.694,0.565
	c0.055,2.111,0.767,4.172,0.565,6.316c-0.766,0.234-1.561,0.418-2.258,0.817c-1.083,1.515-0.835,4.214,1.469,4.246
	c-1.76,6.081-2.44,4.429-0.523,6.256c1.454,5.415,1.058,1.476,3.282,6.086c-0.806,2.868-23.11,71.45-25.538,74.65
	c-1.491-3.436-2.589-5.303-7.215,1.877c-5.986,1.869-5.268,1.263-5.526,3.842c-0.411,13.85-3.157,6.377-3.089,15.573
	c-0.454,2.465-2.57,4.379-2.726,6.935c0.45,1.533,2.042,2.231,3.245,3.094c-0.303,1.873-0.528,4.2,1.189,5.503
	c1.891,0.133,2.671-1.997,3.663-3.222c0.9,0.826,0.202,2.02,0.027,3.016c-14.456,52.63-8.294,53.3-15.073,58.755
	c-0.33-1.359-0.032-3.181-1.313-4.067c-1.804-0.679-3.346,0.845-4.383,2.121c-4.021,4.586-1.462,11.482-3.934,20.361
	c-3.196,10.235-5.104,5.818-10.639,16.455c-0.89,1.14,0.446,7.081,10.571-6.426c0.363,0.427,0.744,0.863,1.069,1.354
	c0.161,1.349-0.441,2.667-0.464,4.03c1.253,2.217,2.396,4.503,3.484,6.816c-5.617,26.186-7.78,46.695-10.717,49.263
	c-1.593-2.171-1.203-5.021-2.368-7.367c-1.092-2.41-2.208-4.81-3.475-7.124c-1.52-3.784-8.63,9.383-8.583,19.434
	c-0.317,3.501,6.618,5.669,4.769,11.929c-2.783,11.879-2.452,9.28,0.023,10.864c0.088,6.145-0.867,3.932,2.029,8.459
	c-3.545,12.383-6.932,23.299-13.063,32.845c-2.189,0.519-4.241,1.473-6.421,2.033c-1,0.831-19.066,12.169-22.215,21.38
	c-1.818,1.602-4.232,2.341-6.15,3.823c0.638,1.896,2.703,1.988,4.383,2.185c0.174,0.89,0.528,1.804,0.436,2.745
	c-4.319,6.055-9.963,8.407-12.071,10.387c-5.291,5.098-1.486,4.497-5.76,10.805c-36.579,51.758-31.413,88.584-46.675,138.183
	c-5.408,23.028-2.749,23.275-19.512,40.671c-26.032,27.159-5.523,14.319-44.628,72.901c-9.945,14.504-13.96,24.847-24.551,43.053
	c-0.464,5.774-2.639,11.163-4.214,16.675c0.849,4.448,1.423,9.033,3.259,13.219c11.308,8.667,2.094,4.957,26.461,22.715
	c10.869,4.124,1.829,0.972,23.39,2.735c7.54-7.32,8.895-12.092,10.157-14.187c23.87-43.781-3.359-9.632,33.887-98.297
	c0.638,0.693,0.799,2.391,1.905,2.295c18.611-29.578,2.978-30.563,31.239-83.554c12.861-25.388,49.394-72.181,61.844-91.908
	c20.154-32.893,9.099-18.569,17.038-26.635c2.952-2.969,8.017-11.528,8.546-12.53c19.872-36.896,37.879-47.031,56.837-90.448
	c0,0,36.686-99.723,36.687-99.724c10.015-26.509,28.332-55.933,37.288-75.136c8.375-17.712,14.261-38.679,27.337-53.445
	c7.408-8.633,26.335-17.907,29.857-18.58c2.71,6.939,2.878,12.083,4.668,37.495c0.055-0.179,0.156-0.537,0.211-0.716
	c0.517,11.238,7.995,46.839,8.243,47.84c40.537,187.468,12.103,218.826,11.704,239.046c3.307,12.451-1.571,14.359,3.117,33.561
	c2.108,18.492-4.884,18.04-5.081,44.394l-0.193,0.496c0.216,0.037,0.445,0.092,0.679,0.161c-0.097,1,2.505,79.962-5.237,101.29
	c-7.661,20.964-11.64,15.113-8.528,26.355c0.34,0.969-0.505,1.822-0.872,2.676c-15.127,26.312-9.834,30.012-13.338,50.842
	c-3.322,20.157-13.819,22.279-6.899,32.473c-0.611,0.491-1.221,0.991-1.822,1.515c10.812,15.623-0.22,4.03,19.071,15.876
	c3.617-2.292,3.29-2.991,11.548-2.327c7.342,3.758,8.711,9.822,6.591,15.463c-0.742,1.331,0.36,1.495,4.695,6.779
	c4.682,5.646,8.988,12.347,13.329,22.422c0.046-0.248,0.133-0.748,0.174-0.996c0.464,0.643,0.923,1.317,1.354,2.006
	c5.541,1.81,34.653,14.725,49.3,5.696c3.381-2.096,6.96-4.682,7.954-8.354c24.946-36.967-35.184-78.555-37.155-124.028
	c0.321-0.018,0.973-0.051,1.294-0.069c0.803,1.46,1.524,3.213,3.263,3.782c1.349-6.235-6.173-31.37-6.256-43.797
	c-0.17-22.27,42.814-149.55,44.673-188.199c-0.048-3.165,4.069-2.089,16-14.899c64.667-69.848,79.298-79.594,88.732-142.493
	c5.151-34.602,2.757-126.872-14.412-198.761c-13.404-55.736-26.771-76.868-55.538-143.7
	c-20.665-48.037-20.332-57.269-57.323-119.957c-2.139-4.1-3.298,0.608-1.909-34.778c3.897,8.891,7.794,17.79,11.516,26.755
	c-0.567-9.571-4.09-33.528-4.099-44.306c1.532,2.314,4.6,13.89,10.405,30.858c10.673,33.258,28.747,100.284,57.943,157.337
	c13.46,26.759,47.436,85.598,77.271,96.204c15.199,5.314,71.905-13.558,76.486-17.175c-1.914-1.749-4.705-1.34-7.078-1.726
	c-28.955-1.92-43.521-7.312-65.989-71.276c-19.959-54.892-23.17-64.792-46.601-91.972c-45.24-51.68-57.274-77.806-107.302-123.596
	c-1.944-2.326-1.687,2.267,3.094-27.659c13.098,6.115,107.295,73.155,141.97,103.351c28.693,24.895,53.408,70.031,80.341,84.895
	c19.983,10.346,16.45-10.5,11.126-36.315c-17.453-78.161,1.683-64.369,13.352-104.264c16.527-58.196,2.656-140.994-3.594-163.18
	c-10.428-31.925-15.441-32.932-26.718-56.543c0.927-0.932,1.694-2.098,2.85-2.763c2.513-0.47,15.69,0.968,17.974-17.841
	c6.529-48.447-7.368-131.932,0.404-207.982C967.983,135.719,993.308,117.476,980.778,108.254z M510.512,299.464
	c0.711-0.968,1.841-1.551,2.993-1.831c0.069,0.179,0.202,0.537,0.271,0.716c-2.797,6.306-1.119,3.59-3.116,6.655
	C510.369,303.178,510.14,301.291,510.512,299.464z M530,496.21c1.98-3.534-0.102-6.031-2.52-13.577
	c-0.424-2.048-2.339-22.304-0.858-27.989c0.431,0.62,0.872,1.248,1.317,1.877c0.321-1.019,0.643-2.038,0.886-3.071
	c1.691,5.855-1.109,11.109-0.588,17.602c0.422-1.299,0.826-2.612,1.134-3.943c0.193,1.386,0.376,2.772,0.514,4.168
	c0.408-1.597,0.895-3.172,1.515-4.695c3.434,11.624-0.162,23.824,0.624,29.885C531.341,496.371,530.67,496.288,530,496.21z
	 M533.842,496.072c-0.008-1,0.565-14.402,1.423-15.583c0.638,4.985,0.909,9.987,1.157,15.004
	C535.559,495.691,534.691,495.875,533.842,496.072z M567.683,470.332c-3.621,5.063-6.127,11.144-11.199,15
	c-1.928,1.685,0.734,3.428-16.973,9.281c-0.211-0.055-0.629-0.165-0.84-0.22c0.49-10.515-3.994-27.703-4.617-36.554
	c0.353-0.817,0.762-1.597,1.175-2.378c0.528,0.34,1.06,0.684,1.611,1.037c0.468-1.937,0.252-3.943,0.624-5.889
	c0.475,2.311,0.102,2.252,2.185,3.14c0.193-2.479-1.138-4.769-0.84-7.238c1.047,2.772,1.152,5.857,2.713,8.436
	c0.161-2.277-0.789-4.383-1.097-6.6c1.354,1.643,2.121,3.681,3.557,5.265c-1.46-3.603-3.75-6.825-4.975-10.525
	c4.753,7.861,4.962,10.303,8.234,12.035c-3.368-11.122-12.174-17.352-11.649-26.314c0.327-5.287-0.364-8.478,0.509-12.471
	c2.266,3.358,6.083,9.74,6.091,9.749c-0.211-1.579-0.551-3.13-0.854-4.686c1.253,1.841,1.873,4.044,3.254,5.811
	c-1.116-10.339-5.675-2.314-8.193-23.128c-0.321-2.919-1.583-5.65-1.73-8.583c1.037,1.643,1.864,3.415,2.566,5.232
	c0.5,5.769,2.006,11.713,5.609,16.372c3.25,7.767,5.063,20.595,5.063,20.595c0.193-1.267,0.312-2.538,0.418-3.814
	c0.129,0.399,0.266,0.803,0.413,1.216c0.431-0.11,0.867-0.216,1.317-0.317c1.138,2.217,2.323,4.416,3.704,6.499
	c0.133,1.716-1.014,3.13-1.62,4.65c0.858-0.519,1.717-1.047,2.57-1.583c-0.22,0.762-0.427,1.524-0.629,2.295
	c0.454,0.165,0.918,0.335,1.386,0.509c-0.454,1.056-0.904,2.111-1.354,3.167c1.368-0.978,2.805-1.864,4.241-2.745
	c0.321,0.399,0.633,0.812,0.973,1.221c-0.569,0.927-1.294,1.845-1.382,2.974c0.546,0.638,1.235-0.321,1.827-0.482
	c0.606,0.032,1.198,0.064,1.813,0.115c2.313,2.515,4.636,5.021,6.949,7.541C570.302,460.562,569.302,468.337,567.683,470.332z
	 M643.205,457.861c0.542-1.873,1.423-3.631,2.501-5.251c2.429,7.331-0.028,6.902-0.028,10.906c-0.179-0.051-0.542-0.156-0.721-0.207
	C644.506,462.085,643.422,459.017,643.205,457.861z M686.272,311.784c-0.069,1.689-1.175,3.057-2.107,4.374
	c-0.211-0.285-0.638-0.854-0.854-1.138c0.762-1.561,1.097-3.268,1.593-4.92C685.336,310.65,686.079,311.063,686.272,311.784z
	 M644.256,478.057c1.464-3.842,3.006-7.661,4.076-11.631c0.22-0.087,0.656-0.257,0.877-0.344c0.136,5.263-1.884,12.928-3.635,17.648
	C644.954,481.885,644.449,479.989,644.256,478.057z M651.49,498.156c-5.113-6.656-2.073-1.891-4.365-9.198
	c0.053-3.911,2.267-5.36,1.028-8.432c0.56-1.712,1.46-3.314,1.818-5.086c0.61-1.85,0.229-4.14,1.712-5.595
	c0.633,0.565,1.281,1.138,1.937,1.703c-0.647-0.946-1.331-1.859-2.029-2.754c0.078-0.79,0.165-1.57,0.266-2.345
	c0.904,1.349,1.767,2.781,3.107,3.768c-1.056-1.473-2.511-2.823-2.855-4.668c0.197-2.093,0.431-4.209,1.088-6.215
	c0.73,1.551,1.102,3.424,2.639,4.429c-2.346-7.861-2.751-6.955-1.652-10.855c1.06,1.928,1.675,4.067,2.795,5.971
	c1.543-4.282-0.942-8.841-0.872-12.044c0.748-2.933,1.207-5.926,2.006-8.845c0.142,0.652,0.275,1.299,0.422,1.965
	c-0.96,11.699,0.452,13.108,0.945,16.9C656.635,470.575,654.318,484.423,651.49,498.156z M752.454,1254.533
	c-0.878,13.407,4.571,11.389-1.505,23.904c-0.229-2.153-1.138-4.117-2.323-5.884c-1.001-3.443,1.712-6.766,0.785-10.231
	c-1.283-4.027-6.177-4.345-6.366-6.421c-0.13-4.332,1.493-18.718,1.565-19.718c2.103-23.372,0.376-22.541,2.731-24.45
	c0.34,1.065,0.542,2.231,1.212,3.181c0.487,0.817,1.831,0.744,2.345-0.027c1.147-1.308,0.987-3.185,1.248-4.787
	c7.889-3.398,3.273-5.467,4.337-10.864c0.624-2.813-0.124-5.682,0.239-8.514c0.028-2.676,1.17-5.182,1.285-7.821
	c-0.744-1.978-2.795-2.951-4.057-4.521c-0.149-7.322-2.305-5.344-3.97-4.236c-0.507-3.14,1.937-32.941,2.029-33.947
	C779.261,1221.137,753.319,1236.807,752.454,1254.533z M763.337,937.358c0.203,1.011,13.642,43.229,14.559,48.708
	c0.505,14.528-8.016,16.955-1.322,23.275c-2.905,19.43-8.913,46.375-17.864,75.527c-1.418-1.248-2.01-3.144-3.309-4.494
	c0.84-18.438,2.231-36.861,2.203-55.327c-0.11-1.147-0.009-2.304,0.886-3.117c1.358-1.425,2.528-17.631,2.584-18.791
	c0.537-0.142,1.088-0.271,1.648-0.386c0.234-2.249,1.29-5.747-1.441-6.839c-0.335-3.75-0.188-7.527-0.624-11.264
	c-0.413-3.075-3.791-4.2-5.462-6.426c-3.195-28.373-11.007-59.431-19.411-83.412c-0.643-1.473,0.785-2.74,0.936-4.172
	c1.108-3.89-1.502-4.727-11.672-26.396c-0.84-1.946-2.423-3.374-3.943-4.769c-45.633-87.94-52.313-75.416-50.112-110.245
	c10.384,33.125,17.203,36.879,39.556,74.443C775.398,928.912,756.28,902.287,763.337,937.358z"/>
</svg>
