<svg fill="#8040d0" xmlns="http://www.w3.org/2000/svg" xmlns:xlink="http://www.w3.org/1999/xlink" version="1.1" x="0px" y="0px" viewBox="0 0 100 100" enable-background="new 0 0 100 100" xml:space="preserve"><g><path d="M2.835,0.492h32.214c0,0,3.057,8.294,3.057,9.936c0,1.645-1.744,3.595-1.744,5.441c0,1.849,7.454,11.548,7.454,11.548   s0.617,1.07,0.31,1.992c-0.12,0.364-0.647,0.878-1.296,1.104c-1.493,0.519-3.544,1.274-3.544,1.274s-0.587,0.139-0.476,0.907   c0.083,0.606,0.518,1.003,0.518,1.003l2.329,2.457c0,0,0.519,0.562,0.288,1.122c-0.167,0.411-0.461,0.503-0.461,0.503   s-3.158,1.458-3.243,1.552l2.205,2.009c0,0,0.648,0.418,0.648,1.362c0,0.842-0.777,1.363-0.777,1.363l-4.098,1.422   c0,0,1.77,6.201,0.204,8.01c-3.902,4.517-17.454-0.615-17.454-0.615s-3.144-0.212-4.519,0.615   c-2.392,1.435-7.642,6.667-11.615,10.791V0.492z"/><path d="M2.835,76.349l27.203-15.416c0,0,1.403-1.07,3.316-1.418c1.28-0.233,2.659-0.317,2.659-0.317l17.519,0.017   c0.643,0,1.264,0.181,1.814,0.521c0.465,0.32,0.867,0.745,1.135,1.259c0.266,0.474,0.406,1.02,0.414,1.584   c-0.021,1.858-1.529,3.363-3.383,3.366l-9.896-0.029l-0.023,1.772l9.994,0.026c2.516,0.006,5.299-1.734,5.299-4.858   c0.102-0.956-0.482-2.888-1.59-3.62l22.77,0.032c1.662,0,3.008,1.344,3.008,3.007c0,1.66-1.346,3.005-3.006,3.005   c0,0-9.26-0.055-16.371,2.525c-5.193,1.88-8.762,5.374-8.762,5.374s-2.201,1.289-3.861,1.463L31.908,77.88L2.835,99.175V76.349z"/><circle cx="47.654" cy="41.207" r="1.785"/><circle cx="52.328" cy="47.914" r="1.785"/><circle cx="57.589" cy="44.658" r="1.786"/><circle cx="74.453" cy="33.915" r="1.785"/><circle cx="65.643" cy="42.675" r="1.785"/><circle cx="63.601" cy="48.165" r="1.784"/><circle cx="67.725" cy="53.909" r="1.785"/><circle cx="70.781" cy="47.08" r="1.785"/><circle cx="77.39" cy="43.409" r="1.786"/><circle cx="79.961" cy="50.017" r="1.785"/><circle cx="88.211" cy="52.833" r="1.785"/><circle cx="84.642" cy="44.908" r="1.784"/><circle cx="96.111" cy="48.549" r="1.785"/></g></svg>