<svg fill="#0365C0" xmlns="http://www.w3.org/2000/svg" xmlns:xlink="http://www.w3.org/1999/xlink" version="1.1" x="0px" y="0px" viewBox="0 0 100 100" style="enable-background:new 0 0 100 100;" xml:space="preserve"><g><path d="M75.8,53.2c1.1,0,2-0.9,2-2l0.1-14.3c0-0.5-0.2-1-0.6-1.4s-0.9-0.6-1.4-0.6c0,0,0,0-0.1,0c-2.4,0-4.7,0.9-6.4,2.6   c-0.7,0.6-1.2,1.4-1.6,2.2l-10.1-0.9l2.9-3.4c1.5-1.8,1.4-4.4-0.2-6L41.2,10.2c-1.7-1.7-4.4-1.7-6.2-0.1l-1.3,1.2c0,0,0,0,0-0.1   c-3.1-3.1-7.2-4.8-11.5-4.8s-8.4,1.7-11.5,4.8C7.6,14.3,6,18.4,6,22.7c0,3.9,1.4,7.6,3.9,10.5l-2.6,2.4c-0.9,0.8-1.4,2-1.4,3.2   c0,1.2,0.4,2.4,1.3,3.2l22.4,22.4c0,0,0,0,0,0c0.8,0.8,2,1.3,3.1,1.3c0.1,0,0.1,0,0.2,0c1.2,0,2.4-0.6,3.2-1.6l8.5-10l24-4.8   C70.2,51.7,72.8,53.2,75.8,53.2C75.8,53.2,75.8,53.2,75.8,53.2z M13.5,14.1c2.3-2.3,5.4-3.6,8.7-3.6c3.2,0,6.3,1.3,8.6,3.5   l-18,16.6c-1.8-2.2-2.8-4.9-2.8-7.8C10,19.5,11.2,16.4,13.5,14.1z M32.9,61.6c-0.1,0.1-0.2,0.2-0.3,0.2c-0.1,0-0.2,0-0.3-0.1v0   L9.9,39.3c-0.1-0.1-0.1-0.2-0.1-0.3c0-0.1,0-0.2,0.1-0.3L37.8,13c0.2-0.2,0.5-0.2,0.6,0l19.1,19.1c0.2,0.2,0.2,0.4,0,0.6L32.9,61.6   z M48.7,49.3l5.8-6.8l12.3,1.1c0,0.1,0,0.2,0,0.3c0,0.6,0.1,1.1,0.2,1.7L48.7,49.3z M73.8,48.8C72,48,70.7,46.1,70.7,44   c0-1.4,0.5-2.7,1.5-3.6c0.5-0.5,1-0.8,1.6-1.1L73.8,48.8z"></path><path d="M78.9,54.2c-0.8,0-1.4,0.4-1.8,1.1c-0.9,1.8-5.4,11-2.7,15.4c0.6,1,1.9,2.3,4.5,2.3s3.8-1.2,4.5-2.3   c2.7-4.4-1.8-13.6-2.7-15.4C80.3,54.6,79.7,54.2,78.9,54.2z M80,68.5c-0.1,0.1-0.2,0.4-1.1,0.4s-1-0.3-1.1-0.4   c-0.7-1.1-0.1-4.1,1.1-7.3C80,64.3,80.7,67.4,80,68.5z"></path><path d="M78.9,75.6c-0.8,0-1.4,0.4-1.8,1.1c-0.9,1.8-5.4,11-2.7,15.4c0.6,1,1.9,2.3,4.5,2.3s3.8-1.2,4.5-2.3   c2.7-4.4-1.8-13.6-2.7-15.4C80.3,76,79.7,75.6,78.9,75.6z M80,90c-0.1,0.1-0.2,0.4-1.1,0.4s-1-0.3-1.1-0.4   c-0.7-1.1-0.1-4.1,1.1-7.3C80,85.7,80.7,88.8,80,90z"></path></g></svg>