<svg fill="#861001" xmlns="http://www.w3.org/2000/svg" xmlns:xlink="http://www.w3.org/1999/xlink" version="1.1" x="0px" y="0px" viewBox="0 0 487.155 277.376" style="enable-background:new 0 0 487.155 277.376;" xml:space="preserve"><g><path d="M461.026,89.07c-1.951-3.965-6.744-5.598-10.709-3.646c-26.148,12.941-58.527,15.548-77.873,15.558L342.2,39.249   c-1.596-3.255-5.143-5.022-8.701-4.335c-0.004,0.002-12.873,2.486-25.82,5.022c-6.473,1.269-12.965,2.549-17.891,3.542   c-2.465,0.497-4.535,0.92-6.043,1.241c-0.758,0.161-1.369,0.293-1.867,0.409c-0.254,0.06-0.471,0.111-0.74,0.182   c-0.141,0.039-0.283,0.077-0.545,0.163c-0.137,0.045-0.297,0.099-0.582,0.214c-0.314,0.154-0.635,0.204-1.73,0.967   c-3.563,2.615-4.328,7.623-1.711,11.184c2.09,2.845,5.707,3.906,8.893,2.884c1.133-0.268,5.059-1.077,9.965-2.056   c7.596-1.517,17.879-3.531,26.254-5.162c3.352-0.652,6.397-1.243,8.844-1.717l6.17,12.592   c-21.271,10.686-31.603,22.785-47.129,41.208c-0.602,0.486-1.17,1.028-1.688,1.639l-0.002-0.001   c-0.25,0.299-6.895,7.842-18.846,15.098c-11.988,7.273-29.064,14.276-50.994,14.282c-4.453,0-9.119-0.288-14-0.932   c-6.844-0.901-13.125,3.916-14.025,10.762c-0.9,6.844,3.918,13.123,10.764,14.023c5.959,0.786,11.721,1.147,17.262,1.147   c0.012,0,0.025,0,0.039,0c28.25,0,50.439-9.429,65.369-18.802c3.889-2.44,7.293-4.874,10.229-7.156   c-0.268,3.524-1.512,13.065-6.688,22.414c-3.227,5.877-7.84,11.724-14.814,16.667c-6.988,4.926-16.447,9.07-29.978,10.956   c-6.84,0.946-11.617,7.257-10.67,14.097c0.865,6.256,6.223,10.788,12.367,10.788c0.57,0,1.146-0.039,1.729-0.119   c17.256-2.371,31.006-8.105,41.486-15.665c15.787-11.354,23.762-26.339,27.635-38.203c1.898-5.804,2.889-10.921,3.41-14.811   c15.31-21.399,28.352-23.457,48.107-24.847c1.705,0.038,3.557,0.062,5.541,0.062c20.566-0.045,55.26-2.35,85.584-17.206   C461.346,97.828,462.977,93.032,461.026,89.07z M287.846,107.26L287.846,107.26v0.002V107.26z"></path><ellipse transform="matrix(0.8055 -0.5926 0.5926 0.8055 38.6845 241.399)" cx="387.069" cy="61.771" rx="22.5" ry="22.5"></ellipse><path d="M364.459,17.262c-0.359,0.545-0.328,1.257,0.082,1.766l8.715,10.867c0.518,0.646,1.463,0.749,2.107,0.232   c0.648-0.519,0.752-1.464,0.232-2.109l-5.793-7.225l10.436,2.923c0.506,0.142,1.047,0.009,1.43-0.349   c0.385-0.36,0.551-0.889,0.443-1.404l-1.684-8.032l7.785,5.853c0.406,0.306,0.941,0.386,1.418,0.211   c0.475-0.174,0.834-0.581,0.947-1.074l2.883-12.617l4.953,11.48c0.195,0.45,0.598,0.777,1.08,0.874   c0.48,0.099,0.98-0.045,1.334-0.386l8.238-7.872l-1.381,12.424c-0.057,0.508,0.148,1.007,0.545,1.33   c0.396,0.323,0.926,0.42,1.412,0.261l10.156-3.322l-7.781,11.47c-0.262,0.381-0.33,0.865-0.188,1.302   c0.139,0.439,0.477,0.79,0.912,0.95l7.428,2.714l-7.074,3.188c-0.756,0.34-1.092,1.229-0.752,1.985   c0.25,0.555,0.797,0.884,1.369,0.884c0.207,0,0.416-0.042,0.615-0.133v-0.002l10.43-4.7c0.557-0.252,0.904-0.812,0.881-1.423   c-0.022-0.609-0.408-1.143-0.982-1.354l-9.078-3.317l9.168-13.511c0.361-0.532,0.344-1.231-0.041-1.746   c-0.389-0.512-1.055-0.723-1.666-0.523l-12.115,3.961l1.584-14.211c0.068-0.627-0.262-1.231-0.826-1.509   c-0.565-0.28-1.248-0.177-1.701,0.258l-9.666,9.235l-5.918-13.708c-0.258-0.594-0.869-0.958-1.516-0.9   c-0.646,0.06-1.182,0.53-1.326,1.161l-3.387,14.832l-9.125-6.863c-0.5-0.377-1.18-0.402-1.707-0.067   c-0.527,0.336-0.793,0.962-0.662,1.574l1.992,9.518l-12.551-3.516C365.485,16.468,364.819,16.718,364.459,17.262z"></path><path d="M275.948,38.477c-3.037-0.023-4.928,1.593-5.84,3.133c-0.936,1.541-1.084,2.992-1.1,3.074   c-0.059,0.548,0.342,1.041,0.889,1.1c0.037,0.004,0.074,0.006,0.109,0.006c0.506,0,0.94-0.381,0.994-0.895   c0,0,0.023-0.239,0.141-0.67c0.424-1.346,1.377-3.732,4.807-3.747c0.385,0,0.803,0.029,1.262,0.099   c0.545,0.085,1.057-0.29,1.141-0.835c0.086-0.546-0.291-1.056-0.836-1.141C276.957,38.517,276.438,38.477,275.948,38.477z"></path><path d="M277.731,34.153c-1.033-0.197-1.988-0.288-2.875-0.288c-4.272-0.019-6.924,2.166-8.32,4.282   c-1.416,2.12-1.74,4.16-1.758,4.243c-0.088,0.543,0.281,1.058,0.828,1.146c0.053,0.009,0.105,0.013,0.158,0.013   c0.482,0,0.908-0.35,0.988-0.842c0,0,0.061-0.39,0.277-1.045c0.711-2.012,2.521-5.787,7.826-5.797c0.75,0,1.58,0.076,2.496,0.252   c0.543,0.106,1.066-0.25,1.17-0.791C278.627,34.783,278.272,34.258,277.731,34.153z"></path><path d="M336.645,29.264c0.07,0.546,0.572,0.932,1.121,0.862v-0.002c0,0,0.147-0.019,0.463-0.019   c0.674-0.004,1.926,0.124,2.967,0.787c1.031,0.671,1.978,1.791,2.207,4.276c0.045,0.522,0.478,0.916,0.994,0.916   c0.029,0,0.059-0.001,0.088-0.003c0.549-0.047,0.959-0.531,0.912-1.081c-0.232-2.975-1.59-4.845-3.135-5.799   c-1.539-0.962-3.145-1.092-4.033-1.096c-0.422,0-0.688,0.034-0.723,0.039C336.957,28.213,336.573,28.716,336.645,29.264z"></path><path d="M338.911,25.485c0,0,0.084-0.006,0.289-0.006c0.775-0.004,2.898,0.137,4.769,1.278c1.857,1.154,3.584,3.179,3.809,7.515   c0.023,0.536,0.467,0.955,1,0.955c0.014,0,0.029,0,0.043,0c0.551-0.026,0.977-0.495,0.953-1.046   c-0.197-4.867-2.385-7.715-4.77-9.134c-2.375-1.43-4.828-1.562-5.805-1.566c-0.262,0-0.42,0.011-0.443,0.013   c-0.551,0.043-0.963,0.523-0.92,1.075c0.043,0.548,0.523,0.962,1.074,0.92V25.485z"></path><path d="M463.903,83.668c0.045,0.522,0.482,0.917,0.998,0.917c0.027,0,0.055-0.002,0.084-0.003c0.549-0.046,0.959-0.53,0.912-1.082   c-0.23-2.976-1.588-4.845-3.133-5.799c-1.541-0.962-3.147-1.092-4.035-1.096c-0.422,0-0.688,0.034-0.723,0.039   c-0.547,0.071-0.934,0.573-0.861,1.121c0.07,0.547,0.574,0.934,1.121,0.863v-0.002c0,0,0.148-0.02,0.463-0.02   c0.676-0.004,1.928,0.126,2.969,0.787C462.729,80.065,463.676,81.183,463.903,83.668z"></path><path d="M469.274,83.724c0.016,0,0.031,0,0.047-0.001c0.553-0.023,0.978-0.491,0.955-1.043c-0.197-4.869-2.385-7.716-4.77-9.134   c-2.377-1.43-4.83-1.563-5.805-1.567c-0.264,0-0.422,0.011-0.445,0.013c-0.549,0.044-0.963,0.523-0.92,1.073   c0.043,0.552,0.523,0.962,1.074,0.92c0.004,0,0.086-0.007,0.291-0.007c0.773-0.004,2.898,0.136,4.768,1.277   c1.859,1.156,3.586,3.181,3.809,7.515C468.301,83.307,468.743,83.724,469.274,83.724z"></path><polygon points="459.413,73.986 459.411,73.986 459.411,73.986  "></polygon><rect y="96.565" width="283.905" height="3.5"></rect><rect x="470.405" y="96.565" width="16.75" height="3.5"></rect><path d="M118.299,159.152c0.379,0.102,0.744,0.173,1.07,0.173c0.748,0,1.93,0.103,3.408,0.224   c-0.799,2.348-2.162,5.999-3.406,7.528c3.779-0.769,7.896-2.099,10.529-7.139c6.709,0.094,14.879-0.763,20.186-5.439   c1.369-1.208,2.285-2.196,2.898-2.937l-3.117-1.755l-2.166,2.233l-3.135-2.571l-2.484,2.485l-1.414-1.416l3.762-3.767l3.117,2.556   l1.957-2.018l4.451,2.502l-0.578-2.115c0,0-12.727-14.042-21.939-13.602c-0.502,0.024-1.021,0.079-1.551,0.152   c-7.305-5.947-13.986-5.354-13.986-5.354s1.879,3.504,2.033,9.338c-3.086,1.407-5.965,2.893-8.211,3.98   c-1.373-0.531-3.154-1.488-5.16-3.215c-4.43-3.815-10.375-5.417-10.375-5.417s4.273,10.12,4.002,12.627   c-0.326,3.002-3.768,8.189-5.336,10.54c2.48-0.065,7.623,0.057,11.5-3.5c0.945-0.866,2.072-1.399,3.086-1.732   c0.854,0.799,2.076,1.904,3.461,3.044c-1.047,2.639-2.568,5.656-4.373,6.769C109.819,162.357,114.143,162.597,118.299,159.152z    M137.69,140.247c1.564,0,2.832,1.269,2.832,2.833c0,1.564-1.268,2.833-2.832,2.833c-1.564,0-2.834-1.269-2.834-2.833   C134.856,141.515,136.126,140.247,137.69,140.247z"></path><path d="M160.844,223.407c0.359,2.454,0.809,6.324,0.398,8.252c3.016-2.407,6.072-5.467,6.119-11.153   c6.014-2.974,12.895-7.46,15.488-14.04c0.67-1.7,1.033-2.998,1.242-3.938l-3.574-0.141l-0.91,2.975l-3.963-0.861l-1.078,3.348   l-1.906-0.615l1.637-5.07l3.936,0.854l0.824-2.689l5.1,0.201l-1.477-1.617c0,0-17.729-6.697-25.729-2.109   c-0.436,0.25-0.873,0.535-1.309,0.842c-9.215-1.963-14.892,1.609-14.892,1.609s3.269,2.264,6.066,7.386   c-2.105,2.659-3.99,5.293-5.496,7.285c-1.461,0.152-3.486,0.113-6.057-0.511c-5.682-1.377-11.703-0.092-11.703-0.092   s8.416,7.061,9.316,9.414c1.078,2.822,0.379,9.008,0.055,11.813c2.178-1.188,6.811-3.422,8.641-8.355   c0.447-1.201,1.207-2.189,1.957-2.947c1.125,0.322,2.723,0.752,4.469,1.135c0.27,2.826,0.291,6.203-0.807,8.016   c3.395-0.582,7.352-2.336,9.48-7.291c0.391-0.082,0.742-0.193,1.037-0.344C158.376,224.42,159.473,223.973,160.844,223.407z    M165.321,199.429c1.393-0.713,3.098-0.162,3.811,1.23c0.715,1.393,0.164,3.1-1.229,3.813c-1.393,0.713-3.102,0.164-3.814-1.229   C163.375,201.851,163.928,200.142,165.321,199.429z"></path><path d="M98.69,210.325c1.189-1.387,1.957-2.493,2.463-3.313l-3.332-1.304l-1.836,2.511l-3.461-2.111l-2.113,2.807l-1.6-1.205   l3.205-4.251l3.441,2.097l1.656-2.271l4.754,1.859l-0.863-2.013c0,0-14.555-12.137-23.617-10.424c-0.494,0.094-1,0.22-1.514,0.366   c-8.063-4.875-14.596-3.358-14.596-3.358s2.348,3.208,3.31,8.964c-2.859,1.822-5.504,3.693-7.578,5.082   c-1.432-0.335-3.332-1.036-5.557-2.468c-4.916-3.162-11.027-3.922-11.027-3.922s5.638,9.428,5.718,11.949   c0.094,3.018-2.594,8.633-3.821,11.178c2.447-0.41,7.557-1.002,10.903-5.064c0.815-0.988,1.857-1.673,2.815-2.143   c0.955,0.673,2.324,1.603,3.85,2.536c-0.672,2.759-1.758,5.957-3.389,7.31c3.398,0.561,7.711,0.201,11.348-3.782   c0.395,0.05,0.764,0.061,1.09,0.015c0.74-0.104,1.924-0.166,3.406-0.251c-0.465,2.436-1.309,6.239-2.328,7.929   c3.637-1.288,7.527-3.176,9.438-8.533C86.11,217.676,94.082,215.693,98.69,210.325z M84.434,197.933   c1.549-0.219,2.98,0.863,3.197,2.412c0.217,1.549-0.861,2.982-2.41,3.199c-1.549,0.217-2.984-0.863-3.201-2.412   C81.803,199.583,82.885,198.15,84.434,197.933z"></path><path d="M228.639,264.823c1.988-3.306,3.791-7.237,1.859-12.586c4.605-4.879,9.496-11.477,9.641-18.549   c0.037-1.828-0.074-3.172-0.205-4.126l-3.4,1.111l0.182,3.106l-4.016,0.573l0.152,3.511l-2,0.084l-0.229-5.32l3.986-0.568   l-0.162-2.806l4.848-1.587l-1.943-1.002c0,0-18.951-0.117-24.855,6.967c-0.322,0.387-0.633,0.806-0.936,1.244   c-9.322,1.364-13.402,6.687-13.402,6.687s3.853,0.985,8.256,4.815c-1.051,3.226-1.902,6.351-2.621,8.741   c-1.318,0.651-3.229,1.317-5.857,1.627c-5.805,0.686-11.004,3.982-11.004,3.982s10.346,3.695,12.01,5.59   c1.99,2.27,3.486,8.313,4.158,11.057c1.629-1.873,5.195-5.578,5.195-10.84c0.002-1.281,0.371-2.473,0.811-3.444   c1.166-0.088,2.814-0.241,4.584-0.489c1.234,2.556,2.43,5.714,2.029,7.795c2.982-1.727,6.082-4.745,6.356-10.132   c0.338-0.213,0.629-0.439,0.851-0.683c0.506-0.551,1.381-1.352,2.469-2.358C226.586,259.4,228.352,262.872,228.639,264.823z    M221.426,237.191c-1.152-1.059-1.228-2.854-0.17-4.006c1.057-1.152,2.848-1.229,4.002-0.17c1.152,1.057,1.23,2.85,0.174,4.002   C224.373,238.169,222.58,238.247,221.426,237.191z"></path><path d="M16.014,171.355c3.392,0.609,7.707,0.308,11.399-3.626c0.394,0.055,0.763,0.071,1.091,0.03   c0.742-0.094,1.927-0.141,3.409-0.206c-0.498,2.43-1.395,6.222-2.436,7.896c3.653-1.238,7.57-3.074,9.553-8.404   c6.666-0.748,14.664-2.622,19.344-7.925c1.207-1.37,1.99-2.466,2.508-3.278l-3.314-1.349l-1.869,2.484l-3.432-2.156l-2.152,2.779   l-1.582-1.227l3.262-4.208l3.412,2.14l1.688-2.247l4.73,1.928l-0.838-2.027c0,0-14.387-12.335-23.47-10.745   c-0.496,0.087-1.005,0.206-1.521,0.346c-7.994-4.984-14.547-3.559-14.547-3.559s2.303,3.241,3.188,9.009   c-2.887,1.783-5.557,3.618-7.65,4.978c-1.426-0.355-3.315-1.082-5.52-2.544c-4.872-3.228-10.972-4.072-10.972-4.072   s5.508,9.504,5.553,12.026c0.053,3.019-2.711,8.597-3.972,11.126c2.452-0.377,7.569-0.899,10.97-4.915   c0.829-0.977,1.881-1.648,2.844-2.105c0.947,0.686,2.304,1.634,3.814,2.588C18.794,166.842,17.664,170.026,16.014,171.355z    M44.287,146.534c1.553-0.197,2.967,0.904,3.165,2.456c0.195,1.552-0.902,2.97-2.454,3.165c-1.551,0.195-2.972-0.902-3.168-2.455   C41.635,148.148,42.736,146.73,44.287,146.534z"></path><path d="M164.198,128.481c-3.037-0.023-4.928,1.593-5.84,3.134c-0.936,1.539-1.084,2.989-1.098,3.073   c-0.06,0.549,0.338,1.042,0.889,1.101c0.035,0.004,0.07,0.005,0.105,0.005c0.506,0,0.941-0.38,0.996-0.893v-0.002   c0,0,0.023-0.24,0.142-0.67c0.422-1.345,1.375-3.733,4.805-3.748c0.385,0,0.803,0.029,1.262,0.1   c0.545,0.083,1.057-0.29,1.141-0.835c0.084-0.547-0.291-1.057-0.836-1.142C165.209,128.518,164.688,128.481,164.198,128.481z"></path><path d="M165.981,124.156c-1.031-0.198-1.988-0.29-2.877-0.29c-4.27-0.019-6.922,2.167-8.318,4.284   c-1.416,2.119-1.74,4.159-1.758,4.24c-0.09,0.545,0.283,1.059,0.828,1.148c0.053,0.008,0.105,0.013,0.158,0.013   c0.482,0,0.908-0.351,0.988-0.842h-0.002c0-0.002,0.063-0.391,0.279-1.046c0.711-2.013,2.523-5.788,7.824-5.798   c0.754,0,1.582,0.077,2.496,0.253c0.543,0.104,1.068-0.251,1.172-0.791C166.877,124.785,166.524,124.261,165.981,124.156z"></path></g></svg>