<svg fill="#BBBBBB" xmlns="http://www.w3.org/2000/svg" xmlns:xlink="http://www.w3.org/1999/xlink" xml:space="preserve" version="1.1" style="shape-rendering:geometricPrecision;text-rendering:geometricPrecision;image-rendering:optimizeQuality;" viewBox="0 0 50800 50800" x="0px" y="0px" fill-rule="evenodd" clip-rule="evenodd"><defs><style type="text/css">
   
    .fil0 {fill:#BBBBBB}
   
  </style></defs><g><path class="fil0" d="M42202 41893c111,217 132,130 0,332 -321,-355 -77,-261 0,-332zm-1002 -496c335,134 360,201 386,630 -520,-231 -768,-32 -1118,-441 375,-171 646,61 947,181l-159 -220c-11,-22 -39,-122 -56,-150zm-2505 -264c248,-163 304,-28 462,142l-462 -142zm1698 -395c372,395 79,297 44,334l-44 -334zm386 28c384,103 279,-53 334,322 -179,-81 -1,77 -178,-106 -106,-109 -64,-82 -156,-216zm-1715 -179c252,383 69,222 0,322 -125,-171 -132,-191 0,-322zm-1271 -275c396,116 657,310 857,585 -318,-47 -248,-67 -467,-194 -498,-287 -178,33 -390,-391zm4470 -369c88,67 254,-48 37,233l-37 -233zm-6466 172c194,-94 172,-74 307,6 -311,250 -186,72 -307,-6zm2271 -57c381,-3 325,-30 428,244l-428 -244zm-1557 -41c249,-95 736,257 947,458 -298,-11 -206,-6 -476,-139l-471 -319zm3931 -201c240,171 317,127 413,516 -394,-172 -281,-97 -413,-516zm-3147 -118c311,71 132,-65 565,386 -134,-24 -188,-15 -326,-99 -375,-228 -94,-141 -239,-287zm3638 -162c365,118 871,65 582,648 -102,-66 -38,-10 -145,-120l-437 -528zm-4123 -84c478,135 204,1 281,241 -493,-158 -132,-35 -281,-241zm2355 -511c290,330 447,880 448,880 5,9 21,29 28,38 166,217 355,62 110,498 -451,-265 -535,-829 -586,-1416zm-4515 -2l297 -318c783,490 17,323 953,823 -587,284 -943,-204 -1250,-505zm2061 -596c74,80 211,202 263,357 111,332 82,245 -175,412 -189,-264 -277,-452 -88,-769zm-382 400c-11,-174 161,-124 135,10 -50,254 226,19 -39,24 -95,2 -88,110 -96,-34zm5350 -221c346,170 166,-28 289,358l-161 -111c-203,-274 18,16 -128,-247zm-662 -65c462,72 553,191 707,612 -294,-85 -180,-24 -410,-215 -334,-278 -148,-120 -297,-397zm1317 53c53,-332 18,-797 162,-1029 94,174 99,289 83,580 -25,476 49,271 -245,449zm-5038 -675c462,429 611,828 584,1499 -16,394 -29,192 -90,285 -109,-283 -56,-472 -270,-804 -263,-408 -234,-361 -224,-980zm2475 -136c348,147 540,277 589,673 -402,-62 -657,-233 -589,-673zm-4234 358l177 -304c169,160 135,20 235,526 -315,-143 -222,10 -412,-222zm6519 -274c195,191 97,207 48,283l-48 -283zm-5443 -290c22,31 128,-12 119,276 -16,507 29,188 -217,321 -154,-292 -37,-421 98,-597zm1799 74l4 -653c346,259 656,689 668,1185l-672 -532zm1827 -103c811,146 581,268 1577,203l85 496c-688,-56 -1327,-283 -1662,-699zm-5292 -404c-105,-205 -137,-270 98,-598 55,114 139,-189 67,292 -18,123 -84,246 -165,306zm6063 -789c385,103 238,-52 327,321 -387,-194 -162,20 -327,-321zm-2399 -77c91,-49 -216,-205 418,-73 190,39 715,429 1136,506 353,65 613,329 1046,554 422,218 184,6 304,288 -353,190 -338,26 -650,-229 -466,-382 -568,-235 -1450,-711l-804 -335zm1152 -306c474,42 850,252 1095,645 -397,-128 -873,-382 -1095,-645zm-1880 -592c255,132 200,71 284,295 -297,-121 -118,-115 -284,-295zm-3048 152l186 -333c295,138 289,104 281,449l-467 -116zm5632 -120l630 159 29 398c-398,-170 -380,-254 -659,-557zm-1493 -97c258,51 441,125 732,224l-502 17c-340,-184 -127,-124 -230,-241zm-700 20c432,86 598,156 818,557 -622,-200 -647,-282 -818,-557zm-1266 -211c434,146 472,612 846,993l173 161c-408,378 -223,522 -26,1942 -351,-360 -355,-2098 -566,-2462 -187,-321 -388,-59 -427,-634zm5023 -340c98,68 303,302 338,355 175,271 230,854 305,1199 85,391 285,217 -80,404 -277,-475 -62,-638 -223,-1020 -91,-215 -327,-93 -340,-938zm-4356 122c342,-161 769,85 986,298 -185,-16 -349,-41 -509,-73 -409,-82 -316,-64 -477,-225zm-2769 -196c280,-168 213,-159 728,-122 -52,48 -21,143 -329,207 -718,149 -262,5 -399,-85zm5629 -343c134,115 153,28 239,444 -263,-77 -191,64 -294,-149 -219,-455 -56,-228 55,-295zm-4508 965l-13 -524 694 -368c-81,303 21,85 -416,635l-265 257zm1354 -916c391,-599 1292,-125 1507,396 -998,-189 -319,-288 -1314,-344 -183,-10 -92,30 -193,-52zm4169 -168c261,9 215,-35 351,183 229,366 135,213 -44,439 -125,-35 -167,31 -192,-154 -21,-157 37,-65 126,-104l-241 -364zm-712 -127c427,72 271,-70 255,272 -412,-114 -130,-38 -255,-272zm-4050 -270c-39,402 72,218 -327,321 146,-263 49,-215 327,-321zm4255 -185c359,16 406,104 504,445 -371,-156 -275,-107 -504,-445zm-2313 -230c189,-100 -201,-163 222,-81 369,71 126,50 230,179 -156,107 220,183 -223,103 -519,-93 -67,-62 -229,-201zm1507 201c67,162 -113,103 71,154 -461,-17 -843,-116 -1011,-429l940 275zm0 0c-64,-78 3,-49 -146,-148l-578 -307c-13,-9 -38,-29 -57,-43 540,27 1089,149 1270,579l-489 -81zm-781 -498c-322,-38 -205,12 -417,-193 299,-171 602,-184 890,0 -209,107 -191,27 -545,9l72 184zm-6484 -2546c361,-217 507,-81 860,-155 67,-14 292,-125 362,-138 581,-107 302,-15 401,195l-331 108c-271,35 -1071,90 -1292,-10zm-3997 -64l108 -103c216,20 40,-23 157,69l-265 34zm-1958 547c182,-241 248,-748 1533,-567 -289,493 -326,106 -1533,567zm6160 -879c-65,385 -769,200 -977,137 66,-209 -15,-298 394,-315 269,-11 371,93 583,178zm-3611 176c200,-92 640,-168 901,-239 455,-122 623,-282 840,-31l-758 213c-367,57 -569,100 -983,57zm3611 -176c85,-230 -83,-39 142,-171l550 -131c438,34 153,8 296,128 -333,191 -494,267 -988,174zm-1345 191l453 218 -2138 30c1642,-436 1179,-228 1391,-615 166,-305 96,-233 346,-298 -123,348 -84,223 -52,665zm-4030 -122l179 -673c212,120 81,0 275,216l-454 457zm6231 -1122c104,662 21,527 -165,637 -83,-139 -276,203 -42,-386 78,-197 105,-160 207,-251zm-1722 648l429 -341c394,-59 -40,-267 373,-34 -199,349 192,25 -802,375zm-172 -514c-152,343 49,98 -253,253 110,-307 -129,-114 253,-253zm-2276 143c-216,497 -217,93 -24,570l-606 61c102,-451 276,-496 630,-631zm1009 164c181,25 126,0 236,2 24,1 107,-2 128,0l96 26c-168,177 -53,123 -373,219 -201,60 -407,83 -617,107 106,-313 293,-531 672,-707l-142 353zm3857 752l1214 -588c131,-360 -11,-681 560,-709 -160,509 -649,1051 -1224,1302 -452,196 -295,207 -550,-5zm-4866 -916c58,-65 32,-135 102,-236l-394 50c176,-107 415,-275 758,-112l-466 298zm711 -465c234,-177 242,-192 550,-177 -157,225 -285,256 -550,177zm604 392c117,-431 281,-664 678,-848l-378 680c-249,211 -40,47 -300,168zm3216 228l4 -1167c206,231 165,-91 87,451 -55,382 -140,181 69,422 215,-227 182,-728 232,-1106 221,11 162,-25 394,210 9,9 29,35 45,51 -461,1125 -290,1101 -831,1139zm-6284 -47c20,-413 128,-474 297,-860 261,-595 44,-508 614,-477 -152,416 -518,1208 -911,1337zm7588 -1552c46,17 73,22 74,49l-74 -49zm-4747 632c187,-232 733,-592 1067,-702 -116,601 6,151 -460,476 -297,208 -96,296 -607,226zm-2181 451c111,-274 287,-650 490,-890l359 -15c-105,333 -99,167 -345,492 -264,351 -10,297 -504,413zm3729 153c51,-370 153,-592 523,-646 -90,-169 -127,-243 -153,-327 221,-333 180,-324 511,-502 -19,316 -133,664 -253,939 -162,370 -279,374 -628,536zm887 10c-7,-511 157,-884 485,-1272 61,-71 81,-91 143,-158l107 -115c13,-13 37,-40 56,-60 -97,549 -397,1380 -791,1605zm-3847 -1276c90,-39 -5,-159 281,0 -412,290 -281,0 -281,0zm6791 584c1,-308 12,-285 93,-575 6,-22 80,-275 93,-298 105,-188 67,-110 221,-225 -30,574 -75,775 -407,1098zm-6377 -290l352 148c21,10 53,31 70,39 16,8 46,27 67,44 -112,64 -382,229 -519,325 -262,-58 114,127 -118,-34l-135 -127c-133,281 -25,237 -392,287 46,-78 570,-834 652,-892 308,-220 1068,-165 1540,-196l-114 125c-86,69 -59,55 -188,133 -665,404 -637,-99 -1215,148zm2240 -109c-43,-557 206,-653 639,-812 -63,591 -221,704 -639,812zm-1186 -407c180,-317 431,-319 725,-170 -347,209 -597,113 -725,170zm4143 -268c-11,-244 146,-104 125,1 -28,137 -114,266 -125,-1zm-2202 219c90,-492 149,-971 521,-415 -189,264 -162,281 -521,415zm3949 462c9,-263 22,-280 75,-506 87,-369 37,-272 230,-491 6,14 176,-65 -1,487 -93,292 -129,355 -304,510zm-4954 -779l812 -461c-129,259 -594,566 -812,461zm3511 -137c-428,-465 -213,-653 -14,-1234 14,20 37,26 43,60l106 192c19,41 120,305 128,357 41,294 -71,453 -263,625zm-1710 -565c-98,316 116,166 -274,220l274 -220zm2477 295c-170,-338 -120,-407 98,-683 10,13 205,-66 108,383 -25,113 -116,255 -206,300zm-6240 -51c49,239 30,151 155,330 -1058,404 -649,424 -1098,340 58,-389 227,-484 411,-697 235,431 -296,562 309,303 0,-3 6,-107 9,-146 7,-115 -29,25 17,-230 365,-207 939,-277 1346,-128 -71,145 167,248 -791,374l-98 -300 -260 154zm6866 109c-212,-330 -86,-575 158,-720 185,231 106,6 110,383 -129,67 65,75 -311,26l43 311zm-3160 249c117,-333 172,-707 574,-775 -96,314 -267,609 -574,775zm-1370 -782c331,-239 667,-218 909,-135 16,5 43,26 65,39 -308,116 -625,279 -974,96zm1753 -497c-195,426 -487,460 -823,228 287,-226 467,-222 823,-228zm-2713 203l880 -137c-230,246 -551,278 -880,137zm-794 -99c2,-74 218,-320 131,-14 -51,181 -134,99 -131,14zm-1410 802c94,-209 162,-329 288,-527 233,-366 261,-302 437,-401 -141,295 -172,242 -333,503 -207,335 -63,249 -392,425zm5727 -836c-4,-315 -73,-128 162,-287 -139,440 -34,49 -162,287zm-594 -82c138,-443 34,-196 239,-262 -85,217 57,75 -239,262zm-3368 18c85,-77 12,-68 177,-134 680,-270 1764,-115 2386,-57 -558,334 -715,104 -1277,91 -237,-5 -491,39 -717,86 -455,93 -348,117 -569,14zm-966 300c127,-309 210,-497 588,-603 -110,215 -383,489 -588,603zm6760 -587l48 -167c275,198 319,124 447,484 -379,-179 -236,-14 -495,-317zm0 0l15 319c-299,-138 -397,-345 -534,-652 394,84 336,79 519,333zm-2459 -203c-178,374 36,204 -497,131 -296,-40 -605,-29 -906,-45 326,-203 1081,-278 1403,-86zm-2943 -294c237,-210 141,-243 374,-98 -83,160 60,91 -117,141 -411,117 -220,-27 -257,-43zm3532 -270c419,-33 514,-110 878,74 -19,15 -51,9 -61,38l-264 126c-43,26 -189,160 -263,219 -312,252 -357,348 -579,107 247,-215 304,-132 450,-246 183,-143 67,-77 -161,-318zm-1244 -122l-1784 -10c419,-454 415,-141 869,-133 109,1 340,-76 557,-93 584,-45 307,72 358,236zm747 -477c143,5 287,-20 455,36 431,143 142,-59 216,245l-647 110 -24 -391zm-2917 -108c-101,309 -155,329 -493,453 30,-336 -120,-89 146,-298 116,-92 223,-112 347,-155zm0 0c164,-239 585,-430 849,-297 -265,211 -443,353 -849,297zm3689 -101c-33,22 99,236 -357,2l-745 -438c-276,-228 -130,-148 -486,-224 345,-220 378,-95 868,136 315,148 133,7 355,229 233,235 39,117 365,295zm-16145 102c-534,-2100 -728,-409 -258,-3091 1635,63 1122,-56 1316,317 22,43 109,-55 136,310 49,679 -678,2182 -1194,2464zm1594 -2563c-133,-405 -180,-176 -171,-526 317,-72 572,-44 851,-118 304,-80 434,-190 800,-285 49,1140 212,1650 -433,2722 -683,-349 -783,-1511 -817,-2159 -337,96 -43,-46 -230,366zm-2612 -87c254,477 334,-266 181,422 -27,123 -204,515 -269,632 -180,327 -684,741 -953,889 -138,-821 -631,-2013 -104,-2777l1706 320c-21,18 -56,15 -67,51l-249 190c-255,221 -73,-4 -245,273zm4438 -1097l684 -399c816,806 374,291 921,778 526,467 577,1510 503,2227 -204,-34 -526,-248 -682,-380 -682,-580 -1568,-1166 -1426,-2226zm-7895 2331c9,-469 60,-500 -102,-884 -141,-336 -236,-326 -98,-791 88,-296 408,-1261 551,-1454 561,152 973,640 1596,765 -344,696 -314,774 -690,1349 -318,487 -731,764 -1257,1015zm11926 -1314c-355,-56 -1899,-626 -2122,-843 -755,-735 -361,-1263 449,-1604 362,538 -15,154 524,364 576,225 981,1510 1149,2083zm-14208 -141c-83,-999 584,-2137 944,-2822 449,205 78,196 495,406 356,180 264,-96 606,261 193,413 73,-72 -62,427 -122,449 26,-127 -5,303 -36,498 -1533,1323 -1978,1425zm13006 -2916c115,-297 472,-693 706,-877 1199,279 1951,1102 2334,2130 -2156,-109 -1989,-392 -3040,-1253zm12050 -148c226,35 347,119 492,246l-1153 -119 343 -133c106,-14 211,-11 318,6zm454 -48c112,-147 -187,-172 456,-185 211,-4 347,23 472,75 -403,283 -391,16 -928,110zm-839 -197c143,-196 -317,-412 449,-137 -191,171 91,94 -449,137zm-377 -195l132 -78c460,-115 -86,-93 126,78 -134,62 196,308 -258,0zm-25885 780c310,-583 1084,-1437 1675,-1657l597 1259c-359,90 -733,314 -1014,370 -346,69 -877,17 -1258,28zm26092 -1073c184,-439 241,-243 715,-365 566,-147 305,-200 751,-369l25 121c4,11 11,43 16,54 140,303 184,-5 280,461 -1108,98 -345,-283 -1787,98zm-10325 -582c159,-686 188,-966 608,-900l184 39c1080,161 1007,617 1777,1234 -335,286 -1021,263 -1403,148 -520,-156 -781,-373 -1166,-521zm13630 -169c204,-224 -261,-72 219,-245 -133,296 87,94 -219,245zm-2838 -161c-10,-11 -51,33 -111,-131 -50,-139 1,-97 32,-171 198,113 293,-146 79,302zm-780 844c-212,-98 -157,-50 -286,-229 -433,-601 48,-799 195,-1071 14,20 34,48 39,61 64,176 120,409 52,1239zm-26640 -831c152,-320 563,-520 815,-920 397,-631 347,-515 1168,-652 111,570 597,1435 455,1658l-174 -446c-732,19 -120,334 -1040,441 -433,50 -738,-75 -1224,-81zm26783 -8c140,-449 377,-1084 645,-1436 -48,511 49,528 -170,879 -155,248 -179,401 -475,557zm1946 122c242,-171 344,-117 669,-192 1029,-236 -50,-182 763,-710 286,-186 176,-174 519,-279 -187,502 -75,-61 -502,593 -86,132 -9,260 -639,465l160 80c18,7 53,16 71,21l171 22c-177,199 -79,291 -1019,110l-193 -110zm-28770 -550c137,-313 14,-195 346,-413 116,-76 211,-124 346,-187 -297,316 -186,381 -692,600zm28952 60c143,-244 1053,-653 1330,-746 -219,224 -510,267 -727,469 -1,1 -263,423 -603,277zm-9987 -1055c-154,237 80,131 -322,128l322 -128zm10300 -139c366,-320 234,-377 796,-503l-162 191c-17,16 -40,33 -58,48l-576 264zm-1929 -511c282,-95 526,-236 882,-202 -319,1144 -185,765 -489,842 -77,-283 14,-242 107,-569 -787,25 -200,168 -500,-71zm-28378 -158c199,-118 420,-251 628,-343 305,-135 308,-78 577,-303 745,-624 541,-229 1505,-318l198 1321c-747,-548 30,380 -1359,156 -354,-57 -1300,-238 -1549,-513zm29790 118c137,-341 57,-291 518,-300l-408 599c-292,-323 -289,-74 -417,-417 219,-53 -16,-101 307,118zm1102 -109c101,-259 383,-597 627,-664 9,476 25,40 -161,304 -184,261 265,100 -466,360zm-213 -329c-301,-216 -141,-271 189,-349 -98,148 -105,207 -189,349zm-12003 -211c4,-68 -18,-201 -18,-206l60 -195c1430,20 1588,541 2547,924 -362,558 -2175,881 -3087,796l173 -1543 325 224zm12176 -508c209,-225 171,-235 582,-302 -128,354 -170,410 -582,302zm-967 -153c268,-281 1207,-605 1607,-776 -208,380 -1108,806 -1607,776zm1663 -760c156,-280 267,-321 554,-443 -14,30 -30,67 -44,88 -236,361 -267,297 -510,355zm-8500 796c-69,-71 -65,-68 -147,-175 -87,-112 -24,-53 -126,-174 -194,-233 -452,-427 -608,-861 400,233 749,749 881,1210zm-4913 -1397l563 -112c-17,-28 -90,-154 -90,-155 -48,-145 -38,1 11,-141 739,-257 1895,-32 2171,315l-1104 771c-356,259 -756,444 -1342,366l-209 -1044zm-17574 201c86,-104 0,-23 158,-150 743,-596 1132,-497 1627,-526 617,-36 167,-25 611,-203l-259 1631c-1133,-21 -1290,-257 -2137,-752zm19592 -1108c-353,231 -419,66 -1003,-31 111,-192 38,-68 162,-216 14,-17 76,-72 102,-92 366,124 217,221 739,339zm-17122 -12c-349,-199 -247,-214 123,-320l-123 320zm881 -649c-137,200 6,129 -269,187 133,-177 -211,-136 269,-187zm13502 -1017c471,-172 620,-486 1276,-432 536,44 1048,112 1645,64 -187,409 -630,940 -916,1311 -353,458 -654,589 -1330,758l-675 -1701zm-16411 -253c623,-402 1882,193 2553,494l-367 955c-720,-372 -283,588 -2186,-1449zm15418 -1176c403,-597 382,-582 1195,-808 464,-128 1125,-231 1687,-261 -269,530 -566,769 -833,1213 -305,508 -607,729 -1321,773 -156,-155 -273,-247 -407,-412 -183,-226 -203,-256 -321,-505zm-12844 717c-535,-234 -589,-195 -749,-815 -254,-975 -285,-773 -400,-1181 388,122 957,229 1307,380 219,95 836,567 948,708 -40,303 -861,1368 -1064,1591l-153 -369c-110,-169 -100,-125 -206,-202l317 -112zm2069 -2566l-303 -393 303 393zm-1757 3375c481,-419 482,-829 1240,-1587 482,-482 971,-849 1621,-1219 1261,-718 3188,-1119 4596,-965 -106,147 -558,577 29,665 360,53 431,-307 586,-616l1127 215c-304,691 -551,835 -253,1306 432,-153 540,-586 513,-763 -2,-15 -12,-42 -16,-57 -4,-13 -95,-74 -143,-378 1654,447 2278,1331 3160,2384 452,539 291,545 592,1155 -17,17 -47,32 -60,40 -1025,642 -400,721 -330,1629l583 -1113c6,-37 26,-46 44,-65 633,794 835,2175 762,3231 -195,105 -686,240 -837,343 -774,535 51,1383 461,668 208,-362 -88,-390 271,-825 56,87 42,39 101,208 239,693 -580,2464 -761,2959 -320,878 -293,779 -747,1419 -293,414 -185,265 -528,547 -354,290 33,166 -340,446 -462,346 -829,500 -1397,764 -450,209 -992,464 -1404,651 -997,449 -2586,231 -3744,69 103,-299 889,-844 291,-1726 -320,124 -34,17 -284,164 -434,256 -320,25 -278,1312 -823,-54 -1439,-328 -1923,-919 337,-535 346,-332 242,-655l-384 3 -214 582c-5,-14 -19,51 -35,72 -305,-358 -491,-369 -820,-816 -585,-793 -941,-1057 -1082,-1271 -687,-1039 -454,-250 -710,-874l-615 -1715c-113,-392 -190,-954 -223,-1331 -56,-643 -22,-1453 264,-2011 205,-398 149,30 193,-614 534,241 722,-337 791,-878 -301,-366 -243,-61 -339,-434zm1201 -1956c-394,-295 -830,-1912 -1066,-2408 510,107 762,403 1030,718 312,367 570,557 736,1042 -213,157 -226,134 -396,307 -140,143 -115,175 -304,341zm2876 -1764c-221,-1098 -376,-1500 623,-2981 723,2673 747,722 824,2726l-1447 255zm2034 -477c-104,-2091 634,-2087 960,-3056l705 1415c397,812 241,785 227,1670 -2024,-521 -805,-58 -1892,-29zm2639 276c-87,-163 -96,-91 -58,-558 75,-925 409,-1142 1082,-1905l455 -446c189,-138 -88,17 225,-133 226,1087 -35,2483 -238,3370 -145,-5 -1290,-278 -1466,-328zm2060 -351c241,-239 216,-351 545,-531l2203 -861c-235,715 -258,535 -659,1900 -88,300 -250,764 -453,929l-755 453c-284,-255 -194,-293 -573,-533 -264,-168 -427,-194 -611,-473 155,-352 157,-309 487,-470 -42,-91 -108,-183 -111,-190 -35,-73 -40,-17 -73,-224zm-7001 590c-116,88 -963,524 -1138,601 -14,-21 -31,-51 -39,-65l-333 -658c-414,-872 -581,-1502 -643,-2538 874,340 1569,2113 2153,2660zm2060 -1597c-249,-381 -555,-667 -727,-1170 -273,-795 -192,-1015 -352,-1596 -519,164 -83,633 -573,1491 -322,563 -482,980 -675,1663l-940 -1076c-251,-325 -726,-895 -1205,-934 -438,461 -403,641 -140,1303 176,444 440,1146 486,1662 -832,-179 -1533,-794 -1995,-1225l273 -468c-914,172 -542,695 -394,1365 350,1577 358,843 712,1653 -529,-180 -755,-269 -1171,-609 -283,-232 -736,-510 -1276,-446 4,333 362,1128 480,1628 31,131 60,273 92,399 164,629 439,498 629,1236 -1647,-607 -1231,-174 -2173,-369 -360,-75 -282,-173 -671,-120 6,385 200,320 443,637 587,770 713,1514 1910,1738l-775 290c-536,165 -956,456 -1534,513 -748,74 -648,-46 -781,305 238,99 353,76 598,187l1105 663c82,44 188,98 254,134l326 203c-476,149 -902,334 -1257,619 -310,248 -954,543 -1094,755 252,180 250,98 544,194 982,319 499,394 1991,465 -293,376 -775,479 -1066,922 -601,915 -555,533 -1075,955 342,382 600,-63 1222,6 809,90 844,165 1752,67 -211,393 -567,674 -848,1003 -220,259 -664,624 -749,1046 268,40 845,-163 1438,-159 926,6 698,-119 1381,-295 -174,480 -746,887 -735,1659 18,1340 -442,1321 -414,1825 186,-15 192,-29 329,-70 28,-8 114,-34 141,-46 421,-182 230,-380 783,-605 337,-138 472,-55 800,-285 107,-76 147,-136 244,-240l343 -316c-260,1563 448,1637 -371,3135 274,165 496,19 609,-176l539 -645c257,-193 434,-248 655,-424 365,-292 140,-358 605,-564l459 2380c359,23 352,-398 706,-733 262,-247 599,-518 808,-883 287,485 609,1279 675,1874 48,432 -84,506 89,757 336,-149 161,-280 347,-709 141,-325 323,-430 503,-673 131,-178 363,-473 446,-624l264 -625c97,-191 20,-77 120,-202 182,518 365,829 534,1222 175,409 255,947 432,1316 407,-113 238,-518 579,-1359 158,-388 355,-1378 640,-1693 208,327 657,669 1045,1008 309,270 775,867 1070,998 340,-376 254,-675 79,-1172 -214,-609 -206,-717 -132,-1434 501,75 710,68 1211,261 477,184 758,579 985,458 97,-185 -304,-624 -462,-1086 -193,-567 72,-689 -227,-1388 427,49 2422,588 2610,572 -27,-550 -394,-590 -658,-1106 -247,-481 -406,-886 -662,-1314 370,17 2194,142 2242,121 -24,-411 -632,-636 -976,-1071 -170,-215 -838,-889 -1043,-890 175,-221 513,-182 808,-343 226,-123 452,-296 744,-433 449,-211 1681,-393 1851,-498 -136,-260 -484,-233 -783,-390l-1658 -887c-292,-119 -712,-155 -962,-291 425,-223 731,-171 1223,-519 399,-283 580,-596 1007,-781 589,333 1440,1529 1761,2192 226,467 1029,2283 1136,2782 144,674 152,938 404,1547l587 1382c158,533 653,2928 573,3337 -2356,-23 -2706,328 -4261,1531 -762,590 -2199,2905 -2456,3812l-277 519c-111,190 -228,549 -308,766 -283,760 -193,809 -662,1371 328,1099 518,94 2522,97 308,0 572,26 885,2l1272 -135c770,1 1366,267 2107,90 218,-52 620,66 1091,-81 388,-122 -127,-15 334,-159 131,270 -146,165 333,138 10,612 178,1028 165,1615 -23,974 -325,633 273,1260 -320,208 -1213,795 -1395,1057 -188,270 -480,1588 -536,1919 -150,892 366,1609 811,2186 103,134 133,199 249,340 779,953 681,-115 773,2844 26,830 66,1458 131,2251 172,2097 -728,4729 456,4681 105,-4 187,-22 293,-83 197,-113 139,-90 265,-236 -466,25 -829,194 -800,-303 412,309 494,74 1041,82 14,-1396 -138,-2598 -127,-4040 11,-1503 -183,-2538 -286,-3956 1186,68 1680,599 2683,985 434,167 860,302 1333,450 517,163 879,567 1160,618 -380,-159 -312,-125 -474,-479 499,116 691,219 1075,439 80,47 421,205 478,232l333 102c615,-49 -44,-460 -179,-773 -136,-312 -127,-792 -111,-1148 33,-744 189,-1667 198,-2252 13,-926 311,-1349 70,-2336 -302,-1240 -798,-2624 -1780,-3414 -276,-222 -1532,-662 -1942,-685 -1111,-64 -1936,1258 -2492,1302 -378,31 -659,18 -1103,104 160,-419 305,-394 721,-491 -35,-861 -153,-1507 -187,-2325 -29,-727 -23,-590 381,-930 256,-216 298,-527 481,-885 584,-1140 922,-1793 572,-3019 -150,-529 -264,-457 -413,-929 -645,29 -1458,-183 -1608,-955 -101,-523 96,-19 29,-376 -32,-172 -127,-220 -194,-453 -101,-354 -32,-838 -74,-1274 -70,-710 -412,-1681 -396,-2347 9,-409 599,-1771 1065,-1682 269,51 558,1094 2369,419 830,-310 1572,-431 2002,-1326 448,-932 672,-1443 623,-2510 -27,-568 46,-1028 -25,-1649 -63,-540 157,-855 85,-1342 -440,-72 -504,66 -723,262 -1343,1202 -4552,1231 -4619,2986 438,-633 267,-630 943,-1077 406,-268 967,-420 1514,-552 0,554 -257,503 -629,746 -345,-126 269,165 -118,-94 -116,-78 36,-72 -204,-114l-289 392c-445,-80 110,-137 -378,-80l-169 1079 -152 -534c-235,254 -148,345 -55,661 -174,141 -263,163 -443,326l42 1344c-584,-304 25,-1503 -166,-1978 -17,15 -39,21 -44,53 -41,257 -301,589 -251,1430 12,218 91,509 166,719 97,269 54,147 153,335l166 320c-368,256 -317,86 -523,454 -127,228 -215,414 -331,624 -17,-19 -41,-74 -49,-58 -15,31 -380,-264 -614,-1170 -419,-1630 -923,-2758 -1648,-4227 -273,-552 -238,-875 -643,-1225 -559,-483 -183,-17 -272,-558 -68,-417 -912,-655 -1715,-1173 -365,-237 -922,-375 -1226,-705 180,-209 327,-433 520,-622 203,-200 491,-311 674,-554 -424,-285 -721,-16 -1298,-98 -510,-72 -985,-155 -1485,-214 144,-336 729,-1082 922,-1304 295,-339 1057,-808 1189,-1016 -399,-254 -339,-13 -830,108 -719,178 -1430,200 -2174,277 -423,44 -683,210 -961,273 225,-497 586,-1178 768,-1740 658,-2029 472,-1163 813,-1873 -586,-245 -1274,466 -1776,704 -508,242 -1040,247 -1489,568 -339,243 -56,138 -412,320 227,-1304 0,-1535 32,-2477 14,-409 107,-307 150,-659 -315,17 -929,917 -1422,1267 -691,490 -699,850 -1042,1528 -10,20 -30,53 -38,69 -9,16 -25,48 -40,70 -212,-598 -75,-999 -445,-1803 -352,-765 -250,-1650 -329,-1804 -385,126 -204,280 -485,641 -738,944 -990,1173 -1206,2528z"></path><path class="fil0" d="M20847 12668c185,-248 71,93 252,-292 -157,-60 -95,-42 -173,-115 -226,-208 150,30 -195,-183 -953,576 -399,350 -832,746 -380,348 -630,342 -507,1005l876 35c-111,-258 -199,-181 -230,-539 324,-369 88,-88 445,-294 -31,-74 -168,-140 52,-472 191,346 22,475 528,439 -28,-223 -17,-71 -216,-330z"></path><path class="fil0" d="M12934 16338c153,522 180,454 703,973 398,394 309,78 624,273 325,201 -61,172 409,379 -397,-1581 -66,-851 -606,-1566 -509,170 -310,27 -503,52 -136,18 -55,-86 -243,207 -197,-496 -9,-364 -384,-318z"></path><path class="fil0" d="M23184 11592c-21,-16 -56,-26 -71,-33 -249,-120 -323,0 -325,-486 345,77 98,37 234,91 445,179 98,100 435,21 518,-122 85,25 606,106 48,-377 79,-602 -195,-834 -400,140 -2,110 -550,551 -650,-236 113,-278 -620,-296 -94,256 -134,510 -69,849 100,529 -10,375 1,815l204 136c505,299 273,-515 350,-920z"></path><path class="fil0" d="M19086 7475c31,-362 150,-799 -22,-1054 -453,243 107,536 -392,960 -86,-125 -31,25 -88,-217l-49 -337c-4,-17 -24,-33 -27,-69 -3,-35 -19,-44 -32,-64 -473,296 141,584 -258,1207 -163,256 -357,422 -325,945l79 329c230,-30 159,-103 336,-388 433,-700 376,-404 114,-920l664 -392z"></path><path class="fil0" d="M15734 7783c111,-198 134,-74 290,-308 200,-301 24,-185 338,-546 123,-142 178,-113 180,-336 5,-609 73,-76 -157,-305 -251,-26 -96,92 -299,271 -331,290 -83,28 -449,132 99,526 344,86 241,738 -405,132 -687,-200 -757,340 -47,357 114,684 316,840l297 -826z"></path><path class="fil0" d="M19162 12906c437,-336 300,-635 561,-1048 61,-97 658,-592 795,-665l-278 -552c-560,169 -523,700 -771,1155 -165,304 -1004,740 -307,1110z"></path><path class="fil0" d="M18562 10491c314,-578 470,-382 646,-718 152,-291 -19,-235 202,-483 162,-182 148,51 323,-345 -552,-236 -262,-203 -861,-90l-32 949c-292,-134 -131,-177 -521,-129 -107,213 -45,319 -155,680 326,16 216,-10 398,136z"></path><path class="fil0" d="M12985 14958c198,-212 270,-405 483,-494l210 -46 -330 -631 -517 119c-83,22 -400,156 -540,201l93 648 601 203z"></path><path class="fil0" d="M24206 8885c156,-206 -65,179 90,-114 147,-276 59,-883 -232,-1001 -143,333 -67,619 -71,1001 -399,-93 -231,-143 -575,-172 -4,533 250,174 -64,832 339,-63 196,11 394,-185 17,362 -69,704 120,927 371,-427 -282,-356 419,-761l-241 -336 160 -191z"></path><path class="fil0" d="M20353 10323c639,-189 281,-855 589,-1756 125,-365 142,-240 -15,-499 -374,67 -292,49 -397,486 -377,-207 -306,-61 -384,-1 462,829 156,-409 207,1770z"></path><path class="fil0" d="M15928 10183c-699,57 -342,-44 -982,-494l-201 231c-97,114 -85,95 -161,201 79,97 148,149 196,250 51,105 42,189 120,398l531 -156c29,463 29,491 300,725 361,-40 361,-8 483,-341 -223,56 -219,89 -468,91 -76,-513 -131,-474 34,-716l148 -189z"></path><path class="fil0" d="M13769 13062c14,-514 83,-240 105,-512 23,-272 -6,-197 -139,-339 -468,173 -536,706 -458,1318l325 -151c11,-30 46,-22 70,-32 141,446 -73,197 234,454 304,-106 260,-174 324,-444 -119,-123 -53,-63 -200,-148l-198 -105c-10,-30 -43,-26 -63,-41z"></path><path class="fil0" d="M24652 15467c426,-346 133,-185 239,-700 69,-337 254,-368 55,-716 -447,232 -86,198 -490,765 -305,-115 17,27 -178,-102l-108 -88c-200,-119 28,-40 -324,-107 51,853 -42,636 316,984 100,-192 -39,-203 98,-482 592,308 65,41 392,446z"></path><path class="fil0" d="M18059 15507c9,-1 168,48 174,49l129 -1103c-184,-91 -437,-180 -703,-240 -111,601 -60,944 192,1406 248,55 40,-102 208,-112z"></path><path class="fil0" d="M13747 9919c436,-424 59,-206 424,-436 3,591 -37,702 -377,989 -173,-221 -119,-92 -165,-449l118 -104zm-231 -753c-53,809 -240,731 151,1532 681,-98 731,-1104 453,-1514 -99,-145 -54,-62 -154,-163 -276,108 -133,84 -450,145z"></path><path class="fil0" d="M18066 12808c322,-40 341,111 589,-538l258 -1018c-437,15 -587,201 -718,548 -93,245 -159,803 -129,1008z"></path><path class="fil0" d="M19946 16527c459,-211 737,-696 683,-1292 -536,65 -5,80 -472,148 -119,17 -177,-24 -409,23 16,471 26,765 198,1121z"></path><path class="fil0" d="M19598 18757c-206,-408 -233,-277 50,-988l256 -846c-363,-27 -232,-24 -436,358 -553,1032 -889,1385 130,1476z"></path><path class="fil0" d="M21509 11575c246,-165 240,-141 279,-473l-482 -267c-438,531 -19,1708 395,2000 -74,-350 -167,-389 -200,-868l317 -277 -309 -115z"></path><path class="fil0" d="M21638 17425c316,-208 429,-420 315,-982 -316,-88 -213,-98 -841,246 73,746 -77,642 526,736z"></path><path class="fil0" d="M16983 16247c127,-511 201,-253 280,-735 -36,-32 -111,-119 -184,-167 -160,-105 -20,-60 -240,-79l-324 737c101,222 112,303 196,558 408,44 600,-104 820,-495l-548 181z"></path><path class="fil0" d="M16715 6789c21,12 52,7 62,37l267 159 -184 762c402,-143 880,-1339 243,-1697 -361,195 -375,199 -388,739z"></path><path class="fil0" d="M18361 17952c280,-341 65,24 124,-288 134,-716 -169,-88 333,-809 -134,-153 -211,-254 -452,-412l-480 246c103,562 328,742 475,1263z"></path><path class="fil0" d="M23378 17580c136,-332 -15,-489 159,-930 110,-281 237,-397 135,-725 -423,-33 -934,393 -532,1196 59,118 66,163 118,270 67,138 74,132 120,189z"></path><path class="fil0" d="M24806 11357c-246,540 -243,680 44,1136l536 -168c-113,-477 -68,-465 -98,-1011l-482 43z"></path><path class="fil0" d="M16417 13248c-474,383 -193,984 -147,1634 466,18 184,-93 346,-728 227,-893 -155,-879 -199,-906z"></path><path class="fil0" d="M17647 10469c-2,-113 3,-645 -84,-796 -241,-419 -1195,302 -607,701 135,92 536,93 691,95z"></path><path class="fil0" d="M23084 18933c444,-110 654,-533 604,-1002 -272,-46 -239,-97 -504,37 -46,23 -288,218 -352,289 39,352 191,659 206,620 5,-15 29,38 46,56z"></path><path class="fil0" d="M17217 12346c442,-12 160,93 365,-163l213 -409c82,-432 -133,-660 -405,-747 -201,351 -285,792 -173,1319z"></path><path class="fil0" d="M15829 16113c290,-710 380,-704 523,-1023 -572,68 -819,-260 -910,228 -88,472 30,696 387,795z"></path><path class="fil0" d="M23048 7119c-227,104 -148,123 -382,220 -291,120 -186,-227 -388,317 -157,423 -35,546 190,639 265,110 -52,-23 256,44l324 -1220z"></path><path class="fil0" d="M20020 14338c-192,-67 -900,-255 -1033,-181l77 871c360,-2 862,-469 956,-690z"></path><path class="fil0" d="M21712 10025c54,485 31,986 432,1018 -48,-308 -189,-185 -157,-725 18,-297 117,-483 141,-803l-803 158 91 448c152,51 154,6 296,-96z"></path><path class="fil0" d="M19984 7815c270,-26 403,-153 538,-355 408,-616 111,-685 111,-685l-294 338c-193,-280 -68,-217 -295,-347 -13,24 -30,55 -37,73 -132,332 -171,680 -23,976z"></path><path class="fil0" d="M16254 18656l456 83 68 356c180,-288 191,-400 213,-838 -312,-208 -353,-319 -574,-481 -76,101 -48,16 -106,195 -4,13 -43,235 -44,240 -32,246 -26,173 -13,445z"></path><path class="fil0" d="M15891 17355c-234,-583 252,-582 -258,-1092 -409,360 -289,219 -307,518 -13,208 0,449 -19,710l584 -136z"></path><path class="fil0" d="M21717 18528c-265,-53 -134,-105 -212,218 -216,-351 47,-278 -284,-226 -311,572 542,1362 843,619 -184,-82 -136,45 -346,-98 38,-114 72,-169 71,-298 0,-170 -37,-145 -72,-215z"></path><path class="fil0" d="M25669 13120c532,-170 -163,-92 629,-450 41,-365 103,-364 -77,-680 -413,-10 -520,60 -552,1130z"></path><path class="fil0" d="M25877 15952c431,-486 227,-1266 -357,-649 -105,112 -188,269 -251,406 134,140 395,212 608,243z"></path><path class="fil0" d="M21213 13846c158,336 171,401 625,403l188 -501 -413 -501 -400 599z"></path><path class="fil0" d="M21809 16088c144,-207 256,-353 323,-686 -196,-110 -265,-187 -525,-246l-304 258c49,408 231,526 506,674z"></path><path class="fil0" d="M16119 9339c404,21 383,88 530,-258 89,-211 119,-411 134,-612l-624 24 -40 846z"></path><path class="fil0" d="M16090 12148c-336,710 247,850 607,620 -4,-25 -17,-57 -24,-72 -386,-797 -25,-338 -256,-794 -399,47 -115,-201 -327,246z"></path><path class="fil0" d="M23286 14924c175,-221 213,-346 92,-594 -370,73 -242,54 -399,492 -252,704 -201,820 493,420l-144 -259c-6,-34 -28,-39 -42,-59z"></path><path class="fil0" d="M15768 13548c-97,-310 -89,-217 -162,-565 -58,-279 -14,-263 -169,-485 -359,95 -364,80 -263,527 1,2 117,378 122,392 65,163 78,153 138,224l334 -93z"></path><path class="fil0" d="M17768 13417c239,-143 180,-229 133,-368 -370,-190 -242,-52 -607,87 43,755 315,779 855,500 -339,-228 -230,69 -310,-169 -12,-37 -49,-32 -71,-50z"></path><path class="fil0" d="M20196 18208c-80,447 -34,97 44,244 893,-779 469,-988 197,-1253 -352,459 -132,297 -146,672 -12,326 -24,-64 -95,337z"></path><path class="fil0" d="M14398 8492c269,-288 202,-291 336,-583l-642 -197c-216,480 40,417 -13,1022l319 -242z"></path><path class="fil0" d="M22867 13187c-548,58 -688,750 -329,903 273,116 612,-428 329,-903z"></path><path class="fil0" d="M24750 16158c-350,193 -750,767 -98,933 396,-246 343,-454 98,-933z"></path><path class="fil0" d="M19566 19921c189,-348 19,-332 160,-617 97,-197 102,-46 277,-325 -531,-254 -1218,705 -437,942z"></path><path class="fil0" d="M13877 14937c-290,41 -489,178 -544,413 -113,477 208,381 543,410l1 -823z"></path><path class="fil0" d="M12985 11149c-266,55 -309,165 -316,542 -8,439 -16,377 218,537 299,-208 249,-666 98,-1079z"></path><path class="fil0" d="M14520 15735c504,-25 476,-83 516,-623 -244,52 -234,94 -387,244 -2,-327 50,-371 -95,-588 -247,280 -141,700 -34,967z"></path><path class="fil0" d="M22763 9657c351,-41 115,-103 503,-222 -229,-756 66,-598 -378,-757 -163,249 -125,632 -125,979z"></path><path class="fil0" d="M15211 11615c-527,-224 -727,145 -545,604l730 2 -333 -234 148 -372z"></path><path class="fil0" d="M23770 13545c148,-264 232,-792 0,-1002 -187,134 -247,312 -285,543 -76,459 -31,410 285,459z"></path><path class="fil0" d="M18287 6482c577,-48 436,-101 695,-477 -283,-253 -194,-226 -503,-283l-192 760z"></path><path class="fil0" d="M15083 13806c-288,-212 -102,-344 -517,-259 148,444 559,669 1044,767 -6,-504 -162,-239 -527,-508z"></path><path class="fil0" d="M17299 17454c173,-249 223,-582 251,-926 -342,51 -523,57 -500,436 0,12 73,270 77,279 83,177 68,121 172,211z"></path><path class="fil0" d="M19202 10249c220,239 154,314 254,542 382,-287 284,-745 88,-989 -248,6 -149,189 -342,447z"></path><path class="fil0" d="M20731 20068c157,-101 231,-157 211,-384 -42,-470 -282,-446 -309,-457 -349,355 -212,544 98,841z"></path><path class="fil0" d="M12274 13608c-53,-503 -235,-210 121,-644l-610 -214c52,472 172,640 489,858z"></path><path class="fil0" d="M21962 18770c753,-67 363,-393 141,-508 -53,90 -38,32 -88,201 -3,10 -49,289 -53,307z"></path><path class="fil0" d="M24554 13131c85,-184 192,208 152,-218 -39,-421 -32,-108 -159,-240 -69,280 -123,231 7,458z"></path><path class="fil0" d="M17401 8051c12,301 84,178 139,196l-45 -456c-146,165 -114,-269 -94,260z"></path><path class="fil0" d="M24916 8651c-16,281 127,88 162,-4 61,-158 -154,-121 -162,4z"></path></g></svg>
