<svg fill="#005070" xmlns="http://www.w3.org/2000/svg" xmlns:xlink="http://www.w3.org/1999/xlink" version="1.1" x="0px" y="0px" viewBox="0 0 100 100" enable-background="new 0 0 100 100" xml:space="preserve"><g><path d="M12.012,49.064c0,0-0.364,0.05-0.995,0.084C9.386,49.24,5.966,49.233,2.473,48c-4.839-1.708,12.1-1.85,14.378-3.132   c0,0,14.288-3.405,23.256-2.409c0,0,6.175-8.337,5.749-5.882c-0.224,1.289,0.103,3.78-0.106,6.059   c-0.144,1.544,17.65,0.668,17.65,0.668s4.983-8.919,4.983-7.141c0,1.482-0.013,7.717,3.226,7.682c0,0,11.293,3.586,13.285,2.305   c0,0,16.229-10.962,13.665-6.406c-2.562,4.556-2.418,5.783-4.979,9.44c0,0,4.979,10.774,3.985,12.482   c-0.997,1.708-13.951-7.688-13.951-7.688s-2.137,1.141-9.11,2.278c0,0-1.422,7.438-2.422,6.69c0,0-1.705-0.284-7.115-6.263   c0,0-14.804,0.567-24.626,0.284c0,0-1.103,5.445-1.566,4.697c0,0-2.846-1.852-4.981-4.697c0,0-18.222,1.958-31.319-7.491   C2.473,49.478,2.083,48.419,12.012,49.064z"/></g></svg>