<svg fill="#702020" xmlns="http://www.w3.org/2000/svg" xmlns:xlink="http://www.w3.org/1999/xlink" version="1.1" x="0px" y="0px" viewBox="0 0 100 100" enable-background="new 0 0 100 100" xml:space="preserve"><g><path d="M86.25,48.167c1.875-1.917-0.721-2.78-1.438-2.542C83.5,46.062,79.625,49.75,72,49.583c-1-0.022-8-3.75-8-3.75l3.583-1.333   c-2.417-3.75-17.268-13.045-17.667-13.167c-1.016-0.311-0.86,0.899-2.833,0c-0.532-0.243-0.401,1.051-2.333,0.167   c-0.479-0.219-0.391,1.541-2.333,0.583c-0.529-0.26-2.5,1.167-2.5,1.167s-7.104-1-12.917,0.875c-8.655,2.792-12.5,11.542-13,12.042   s-0.333,0.917-0.25,1.417s-0.571,1.031-0.917,1.167c-0.609,0.239,0.25,0.917,0.25,0.917c-0.885,1.294-1.39,3.021-1.429,3.789   c-0.022,0.117,0.166,0.188,0.221,0.028c0.581-1.695,2.109-3.344,2.109-3.344s0.599,0.352,1.292,0.761   c-0.683,1.036-0.694,2.769-0.558,3.207c0.078,0.25,0.302,0.159,0.328-0.016c0.266-1.781,1.172-2.344,1.531-2.422   c0.701,0.426,0.272,0.144,1.188,0.766c-0.246,0.273-0.683,1.511-0.441,2.38c0.035,0.124,0.26,0.182,0.291-0.034   c0.228-1.58,0.991-1.644,1.025-1.752c1.105,0.77,5.526,4.76,6.42,5.901c0.033,0.05,0.075,0.101,0.106,0.152   c-0.25-0.167-6.141,0.314-6.333,0.083c-0.33-0.396-0.194-1.632-0.052-2.104c0.054-0.179-0.166-0.265-0.268-0.104   c-0.266,0.42-0.701,1.948-1.169,2.042c-0.295,0.059-1.332-0.099-1.76-0.417c-0.543-0.402,0.205-2.764,0.417-3.396   c0.071-0.211-0.075-0.188-0.196-0.12c-0.835,0.464-1.647,2.839-1.647,2.839c-0.417-0.25-1.448-1.01-1.448-1.01   c-0.478-0.956,1.086-4.246,1.667-5.405c0.128-0.256-0.042-0.264-0.165-0.175c-1.729,1.262-3.127,4.767-3.127,4.767   c-0.191,0.382-0.09,2.076-0.032,2.855c0.018,0.241,0.219,0.436,0.447,0.46c1.399,0.145,3.712,2.971,4.835,3.852   c5.104,4,17.953,2.588,19.417,2.25c1.625-0.375,5.167-0.75,5.167-0.75s2.5,6.875,5.625,7.167c0.875-0.083,0.797-0.617,0.792-1.333   c-0.003-0.359,0.458-0.708,0.708-1.208S48.083,68.333,47.75,68c-0.333-0.333,0.055-0.824,0.083-1.167c0.083-1-3.917-3-3.917-3   S55.062,61.75,59.062,60c1.622,0.127,3.313,1.417,4.854,4.333c0.136,0.258,1.958-0.25,2.208-0.917   c0.176-0.468,0.588-0.981,1.042-1.375c0.625-0.542,0.583-1.75-0.042-2.417C66.722,59.195,63,58,63,58   c2.208-3.083,6.667-2.75,8.167-2.667s9.76,4.479,12.417,5.75c1.917,0.917,3.104-1.208,2.5-2.583   c-0.626-1.425-2.583-3.25-3.25-5.083C82.167,51.583,84.106,50.359,86.25,48.167z M20.726,45.72   c-0.36,0.648-1.506,1.103-2.461,0.721c-0.955-0.382-0.636-1.273-0.636-1.273c1.061-1.655,2.164-1.337,2.164-1.337   C20.513,44.002,21.044,45.147,20.726,45.72z"/></g></svg>