<svg xmlns="http://www.w3.org/2000/svg" xmlns:xlink="http://www.w3.org/1999/xlink" version="1.1" x="0px" y="0px" viewBox="0 0 164 164" enable-background="new 0 0 164 164" xml:space="preserve"><path fill-rule="evenodd" clip-rule="evenodd" fill="#000000" d="M1.185,93.515c7-24.72,22.874-30.22,37.59-47.596  c0,0,0.376,0.501,0.125,1.279c1.222-0.514,10.974-4.86,12.814-5.466c-0.301,0.468-0.602,0.936-0.902,1.404  c2.826-1.348,10.537-1.993,11.811-1.781c-0.376,0.251-0.752,0.502-1.128,0.752c2.661-0.187,9.614,3.06,13.567,3.06  c-1.163,3.488,17.027-0.225,21.59,3.035c0,0-1.027,0.125-1.153,0.627c0.924,0.477,6.273,1.723,5.091,2.433  c10.063,3.309-0.126,2.245,6.847,5.19c6.709,2.835-5.152-2.513,5.215,4.438c1.635,1.096,2.6,1.803,1.655,2.558  c-0.017,0.226-0.033,0.452-0.05,0.677c12.559,12.559-8.92,5.496-3.01,8.827c17.393,9.802,36.373-26.873,47.872-25.252  c3.331,0.47-0.45,8.132-2.031,8.752c-1.487,0.583,0.736,0.253-0.126,2.783c-1.721,5.054-0.268,2.623-2.809,6.094  c-0.114,0.157,1.259,1.454-1.654,6.871c-4.053,7.536-6.716,7.378-0.251,13.843l6.62,10.908c2.672,6.982,11.871,11.851-5.592,6.094  c-8.632-2.846-24.083-9.097-26.907-9.905c-6.835-1.957-12.81-0.886-17.529,2.407c16.501-3.485,7.567,2.29,6.721,4.965  c-0.206,0.617-0.665,1.588-1.391,2.608c-0.374,0-2.207,4.738-7.611,6.52c-7.668,2.528,0.891,1.881-1.781,3.436  c-7.854,4.57-17.915,2.987-21.842-0.752c-4.843,2.044-32.334,7.222-23.848,7.222c7.871,0,14.554,4.862,1.504,3.06  c-20.198-2.79-32.647-4.979-53.438-15.246c-6.781-3.349-8.919-5.61-1.655-8C-4.541,93.646,2.505,94.505,1.185,93.515z"></path></svg>