<svg xmlns="http://www.w3.org/2000/svg" xmlns:xlink="http://www.w3.org/1999/xlink" version="1.0" x="0px" y="0px" viewBox="0 0 100 100" enable-background="new 0 0 100 100" xml:space="preserve"><path d="M45.0526657,49.3790741C54.239254,36.4803352,48.5921898,10.705122,70.2734756,8.9872589  C48.1025696,4.5436697,45.0322647,20.4499207,36.2223282,35.9847183c-2.0020294,3.5302773-5.3029156,7.5009956-9.4043045,8.8461342  c-2.5611572-11.1775818-14.566987-10.415226-14.566987-10.415226c5.3407049,6.8788376,3.0645113,12.5693245-1.0198107,17.7067986  c-12.371171,15.5610771-6.3228064,43.8538551,17.0911484,42.5000267  c16.6597576-0.9632874,22.4983807-13.5982666,29.3610592-26.349144c5.5947838-10.3951416,9.6686249-22.2865334,32.7326431-20.078495  C77.4512863,35.6059608,58.4090729,39.5746155,45.0526657,49.3790741z M31.1371727,85.3155899  c-13.1615925,6.490715-22.7738152-4.5083694-15.1712837-15.7312775c5.6622639-8.3586578,22.5240631-6.219368,25.2377586-17.8088493  C48.258091,63.778038,43.6961746,79.1219864,31.1371727,85.3155899z"/><path d="M94.919487,13.431284c-2.9477386,3.3511791-4.3342743,4.4061184-18.8172684,5.5641804  c-20.592411,1.646574-18.3545189,18.1270752-18.3545189,18.1270752l0.5135155,1.7904625c0,0-1.2261391-8.4684105,18.97715-8.8507786  C97.441658,29.6798935,94.919487,13.431284,94.919487,13.431284z"/></svg>
