<svg fill="#78945E" xmlns:dc="http://purl.org/dc/elements/1.1/" xmlns:cc="http://creativecommons.org/ns#" xmlns:rdf="http://www.w3.org/1999/02/22-rdf-syntax-ns#" xmlns:svg="http://www.w3.org/2000/svg" xmlns="http://www.w3.org/2000/svg" xmlns:sodipodi="http://sodipodi.sourceforge.net/DTD/sodipodi-0.dtd" xmlns:inkscape="http://www.inkscape.org/namespaces/inkscape" viewBox="8 8 84 84" version="1.1" x="0px" y="0px"><g><path style="opacity:1;fill:#78945E;fill-opacity:1;stroke:none;stroke-width:4;stroke-linejoin:miter;stroke-miterlimit:4;stroke-dasharray:none;stroke-opacity:1" d="M 37.300781 8.0761719 C 37.745516 9.5434138 38.163165 11.011274 38.570312 12.478516 L 34.625 11.625 L 34 13.125 L 39.753906 16.960938 C 40.76669 20.981791 41.649096 25.002584 42.394531 29.023438 L 38.240234 28.125 L 37.5625 29.75 L 43.169922 33.488281 C 43.961699 38.38555 44.560076 43.282418 44.986328 48.179688 L 39.277344 46.945312 L 38.4375 48.958984 L 45.386719 53.591797 C 45.625312 57.511988 45.759984 61.431371 45.785156 65.351562 L 41.542969 54.568359 L 36.59375 51.386719 C 26.347544 54.076219 20.151396 59.550981 15.203125 65.882812 C 21.373809 63.275944 26.076731 58.100392 34.648438 59.695312 C 36.34127 64.33976 36.919869 68.240583 37.654297 72.246094 C 35.45956 69.992432 32.924671 67.399613 30.40625 64.822266 L 24.748047 65.175781 C 18.98698 70.182653 16.471544 76.163302 13.964844 82.146484 C 17.58305 78.330571 19.826848 73.688415 26.515625 71.714844 C 32.770941 77.684434 35.896556 84.175672 38.183594 90.806641 L 53.386719 90.984375 C 57.078371 82.082263 66.350285 80.476033 74.070312 76.841797 C 79.826554 78.953002 81.467538 82.093104 84.853516 84.796875 C 82.819804 80.447856 82.794208 76.902045 77.78125 71.361328 L 73.185547 70.478516 C 64.744349 71.65208 59.870309 74.014395 54.269531 76.134766 C 55.970735 72.365057 57.03685 68.722879 60.28125 64.644531 C 66.652371 61.996402 70.615413 66.092473 75.484375 67.650391 C 72.084166 63.188629 68.538246 58.783891 61.871094 55.628906 L 55.861328 57.574219 C 57.392888 52.160148 59.757743 46.884605 62.640625 41.701172 L 71.490234 40.310547 L 71.574219 38.074219 L 65.570312 36.736328 C 65.858282 36.273348 66.148614 35.811319 66.443359 35.349609 L 66.603516 35.634766 L 66.736328 34.894531 C 68.317356 32.437822 70.002965 30.001201 71.732422 27.574219 L 78.082031 26.576172 L 78.142578 24.953125 L 74.248047 24.085938 C 76.447842 21.094933 78.699196 18.115469 80.962891 15.146484 L 80.433594 13.025391 C 78.692525 14.833877 77.007116 16.683634 75.373047 18.570312 L 75.472656 18.404297 L 73.087891 14.318359 L 71.560547 14.869141 L 72.634766 21.828125 C 70.6191 24.306943 68.705306 26.860861 66.876953 29.476562 L 63.628906 26.835938 L 62.289062 27.978516 L 64.832031 32.490234 C 62.314093 36.320247 59.993224 40.293679 57.888672 44.425781 L 55.800781 40.847656 L 53.75 41.587891 L 55.095703 50.302734 C 52.618842 55.87014 50.499811 61.697488 48.791016 67.826172 C 48.627755 59.212209 47.957259 50.628034 46.771484 42.074219 L 50.435547 36.544922 L 49.181641 35.308594 L 46.083984 37.476562 C 45.424873 33.373447 44.639679 29.278317 43.738281 25.189453 L 47.287109 19.835938 L 46.130859 18.695312 L 42.779297 21.037109 C 41.736247 16.709038 40.564445 12.387934 39.244141 8.0761719 L 37.300781 8.0761719 z "/></g></svg>