<svg fill="#660000" xmlns="http://www.w3.org/2000/svg" xmlns:xlink="http://www.w3.org/1999/xlink" version="1.1" x="0px" y="0px" viewBox="0 0 100 100" enable-background="new 0 0 100 100" xml:space="preserve"><path d="M91.667,34.218H80.02c-0.035,0-0.066,0.009-0.1,0.01c-0.184,0.005-0.369,0.019-0.55,0.055  c-0.114,0.022-0.222,0.064-0.332,0.098c-0.097,0.03-0.196,0.051-0.291,0.091c-0.121,0.049-0.231,0.118-0.346,0.182  c-0.076,0.042-0.156,0.075-0.229,0.125c-0.18,0.119-0.343,0.253-0.494,0.403c-0.006,0.005-0.011,0.008-0.017,0.014l-4.117,4.117  c-1.445,1.446-3.891,2.612-5.641,2.996c-0.754-0.904-1.517-1.741-2.28-2.54c-0.075-1.021-0.247-2.034-0.52-3.027  c4.293-2.907,7.161-7.534,7.834-12.698l9.688-3.783c1.715-0.67,2.561-2.603,1.893-4.318c-0.671-1.715-2.606-2.563-4.318-1.892  l-11.647,4.549c-0.012,0.004-0.023,0.012-0.036,0.018c-0.126,0.052-0.242,0.12-0.36,0.185c-0.076,0.042-0.158,0.078-0.23,0.125  c-0.09,0.06-0.168,0.134-0.252,0.202c-0.084,0.068-0.175,0.132-0.252,0.208c-0.067,0.066-0.121,0.144-0.182,0.216  c-0.077,0.09-0.16,0.176-0.227,0.274c-0.06,0.085-0.103,0.182-0.153,0.274c-0.052,0.094-0.111,0.185-0.154,0.283  c-0.038,0.091-0.062,0.189-0.093,0.284c-0.037,0.111-0.08,0.221-0.104,0.336c-0.017,0.079-0.02,0.161-0.03,0.241  c-0.02,0.139-0.041,0.278-0.043,0.42c0,0.014-0.003,0.025-0.003,0.039c0,3.602-1.694,6.941-4.468,9.089  c-0.278-0.329-0.562-0.655-0.872-0.965c-0.415-0.415-0.853-0.796-1.304-1.158c2.073-1.506,3.427-3.941,3.427-6.692  c0-3.57-2.275-6.609-5.449-7.767C56.608,11.039,53.569,8.763,50,8.763c-3.569,0-6.609,2.276-7.768,5.449  c-3.173,1.158-5.448,4.198-5.448,7.767c0,2.751,1.354,5.187,3.426,6.692c-0.451,0.361-0.889,0.744-1.303,1.158  c-0.31,0.31-0.593,0.637-0.872,0.965c-2.773-2.148-4.468-5.487-4.468-9.089c0-0.015-0.004-0.027-0.004-0.042  c-0.001-0.134-0.022-0.265-0.04-0.396c-0.012-0.089-0.014-0.179-0.033-0.265c-0.023-0.104-0.062-0.203-0.095-0.304  c-0.034-0.106-0.06-0.214-0.104-0.314c-0.037-0.087-0.09-0.166-0.135-0.249c-0.056-0.104-0.105-0.212-0.173-0.309  c-0.06-0.089-0.136-0.167-0.206-0.25c-0.067-0.081-0.128-0.167-0.202-0.24c-0.073-0.071-0.158-0.13-0.237-0.195  c-0.088-0.073-0.172-0.15-0.268-0.214c-0.068-0.045-0.146-0.078-0.219-0.119c-0.121-0.067-0.242-0.137-0.372-0.19  c-0.012-0.005-0.022-0.012-0.034-0.018L19.802,14.05c-1.717-0.673-3.648,0.177-4.317,1.891c-0.67,1.716,0.177,3.649,1.891,4.318  l9.686,3.783c0.672,5.166,3.542,9.791,7.835,12.698c-0.273,0.993-0.445,2.007-0.52,3.029c-0.762,0.799-1.524,1.635-2.279,2.539  c-1.75-0.384-4.196-1.551-5.641-2.996l-4.116-4.116c-0.156-0.156-0.327-0.295-0.511-0.418c-0.081-0.054-0.168-0.09-0.252-0.136  c-0.105-0.059-0.208-0.123-0.321-0.169c-0.109-0.045-0.223-0.071-0.336-0.104c-0.095-0.028-0.187-0.065-0.286-0.085  c-0.215-0.042-0.434-0.065-0.653-0.065H8.333C6.492,34.218,5,35.71,5,37.551c0,1.841,1.493,3.334,3.333,3.334H18.6l3.141,3.141  c1.621,1.621,3.867,3.001,6.161,3.92c-1.598,2.387-3.126,4.952-4.526,7.641c-7.378,14.176-10.697,30.688-2.762,34.818  c2.385,1.241,6.323,1.62,12-2.803v0.29c0,1.841,1.493,3.333,3.333,3.333c1.841,0,3.333-1.492,3.333-3.333v-6.997  c0.723-0.886,1.442-1.801,2.148-2.771c2.521,2.062,5.495,3.191,8.571,3.191c3.112,0,6.053-1.127,8.568-3.198  c0.707,0.973,1.427,1.889,2.15,2.776v6.999c0,1.841,1.493,3.333,3.334,3.333s3.333-1.492,3.333-3.333v-0.286  c3.494,2.725,6.328,3.63,8.547,3.63c1.388,0,2.535-0.352,3.452-0.83c2.677-1.393,5.6-4.997,4.323-14.262  c-0.839-6.096-3.354-13.396-7.081-20.558c-1.4-2.69-2.929-5.255-4.527-7.642c2.293-0.918,4.538-2.299,6.158-3.919l3.143-3.141  h10.267c1.841,0,3.333-1.493,3.333-3.334C95,35.71,93.508,34.218,91.667,34.218z M50.002,49.942  C50.001,49.942,50.001,49.942,50.002,49.942c-2.411,0-4.677-0.939-6.38-2.641c-3.517-3.518-3.517-9.242,0-12.759  c1.703-1.703,3.967-2.642,6.377-2.642c2.411,0,4.675,0.939,6.378,2.642c3.517,3.517,3.517,9.241,0,12.758  C54.675,49.004,52.411,49.942,50.002,49.942z M45.058,20.371c0.887,0,1.608,0.721,1.608,1.607s-0.721,1.608-1.608,1.608  c-0.886,0-1.607-0.722-1.607-1.608S44.172,20.371,45.058,20.371z M54.941,20.371c0.887,0,1.608,0.721,1.608,1.607  s-0.722,1.608-1.608,1.608s-1.608-0.722-1.608-1.608S54.055,20.371,54.941,20.371z M30.242,80.879  c-3.664,3.396-5.991,3.9-6.549,3.613c-1.791-0.932-2.048-11.137,5.597-25.826c2.042-3.924,4.354-7.547,6.744-10.617  c0.728,1.429,1.681,2.772,2.875,3.967c1.901,1.899,4.206,3.244,6.719,3.97c-1.068,3.001-2.417,6.093-3.989,9.109  C38.255,71.595,34.208,77.2,30.242,80.879z M50,74.65c-1.739,0-3.423-0.75-4.881-2.146c0.838-1.401,1.656-2.84,2.432-4.332  c0.881-1.691,1.701-3.409,2.449-5.128c0.749,1.72,1.568,3.438,2.45,5.129c0.774,1.487,1.59,2.924,2.426,4.321  C53.416,73.89,51.729,74.65,50,74.65z M77.104,77.056c0.682,4.951-0.243,7.149-0.798,7.438c-0.553,0.289-2.882-0.216-6.546-3.614  c-3.968-3.68-8.015-9.285-11.397-15.784c-1.57-3.014-2.918-6.105-3.989-9.11c2.513-0.725,4.818-2.07,6.719-3.971  c1.194-1.194,2.147-2.537,2.875-3.968c2.39,3.071,4.702,6.693,6.746,10.619C74.097,65.166,76.366,71.697,77.104,77.056z"></path><g><g><path d="M91.662,34.215H79.978c-0.807,0-1.672,0.324-2.306,0.963c-0.006,0.006-0.011,0.008-0.017,0.014l-4.118,4.117    c-1.445,1.446-3.892,2.613-5.642,2.996c-0.754-0.904-1.517-1.741-2.28-2.541c-0.075-1.021-0.247-2.034-0.52-3.027    c4.293-2.908,7.162-7.535,7.835-12.7l9.689-3.784c4.131-1.614,1.701-7.83-2.427-6.211l-11.649,4.55    c-1.095,0.442-2.12,1.625-2.12,3.105c0,3.603-1.694,6.943-4.469,9.091c-0.278-0.329-1.725-1.762-2.176-2.123    c5.396-3.919,4.202-12.19-2.023-14.461c-2.652-7.268-12.884-7.266-15.537,0c-6.046,2.205-7.576,10.427-2.022,14.461    c-0.451,0.361-1.896,1.794-2.175,2.123c-2.774-2.148-4.469-5.488-4.469-9.091c0-1.296-0.734-2.476-2.12-3.105l-11.648-4.55    c-4.089-1.603-6.514,4.614-2.427,6.21l9.687,3.784c0.672,5.167,3.542,9.792,7.836,12.7c-0.273,0.994-0.445,2.008-0.52,3.029    c-0.763,0.799-1.524,1.635-2.28,2.54c-1.75-0.384-4.197-1.551-5.642-2.996l-4.117-4.117c-0.694-0.676-1.441-0.979-2.359-0.979    H8.314c-4.419,0-4.419,6.668,0,6.668h10.269l3.142,3.142c1.621,1.621,3.868,3.002,6.162,3.921    c-1.598,2.388-3.126,4.954-4.526,7.643c-7.38,14.178-10.699,30.693-2.763,34.824c2.386,1.241,6.324,1.62,12.002-2.803v0.29    c0,4.428,6.668,4.428,6.668,0v-6.999c0.724-0.886,1.442-1.801,2.148-2.771c5.229,4.277,11.994,4.233,17.142-0.007    c0.708,0.973,1.428,1.889,2.151,2.776V87.9c0,4.441,6.668,4.441,6.668,0v-0.286c4.976,3.878,9.008,4.361,12.001,2.8    c2.678-1.393,5.601-4.998,4.324-14.264c-0.839-6.098-3.354-13.399-7.082-20.562c-1.401-2.69-2.93-5.256-4.528-7.644    c2.293-0.918,4.539-2.299,6.159-3.92l3.143-3.142h10.269C96.112,40.883,96.112,34.215,91.662,34.215z M54.931,20.366    c0.887,0,1.608,0.721,1.608,1.607c0,0.887-0.722,1.609-1.608,1.609s-1.608-0.722-1.608-1.609    C53.322,21.086,54.044,20.366,54.931,20.366z M45.045,20.366c0.888,0,1.609,0.721,1.609,1.607c0,0.887-0.721,1.609-1.609,1.609    c-0.886,0-1.607-0.722-1.607-1.609C43.438,21.086,44.159,20.366,45.045,20.366z M43.609,34.54c3.517-3.517,9.24-3.517,12.758,0    c3.518,3.518,3.518,9.243,0,12.76c-3.48,3.481-9.185,3.571-12.758,0.001C40.092,43.782,40.092,38.057,43.609,34.54z     M30.227,80.884c-3.664,3.397-5.992,3.901-6.55,3.614c-1.792-0.932-2.049-11.139,5.598-25.83c2.043-3.925,4.354-7.549,6.745-10.62    c1.602,3.145,4.715,6.529,9.595,7.938c-1.068,3.002-2.417,6.094-3.989,9.111C38.242,71.599,34.194,77.205,30.227,80.884z     M45.106,72.509c1.905-3.187,3.492-6.267,4.882-9.462c1.414,3.25,3.064,6.421,4.876,9.452    C51.865,75.364,48.104,75.378,45.106,72.509z M77.098,77.061c0.682,4.952-0.243,7.15-0.798,7.439    c-0.554,0.289-2.883-0.216-6.548-3.615c-3.968-3.68-8.016-9.286-11.399-15.786c-1.57-3.015-2.918-6.106-3.989-9.112    c4.601-1.326,7.856-4.521,9.595-7.94c2.391,3.072,4.703,6.695,6.748,10.622C74.089,65.169,76.359,71.701,77.098,77.061z"></path></g></g></svg>