<svg xmlns:dc="http://purl.org/dc/elements/1.1/" xmlns:cc="http://creativecommons.org/ns#" xmlns:rdf="http://www.w3.org/1999/02/22-rdf-syntax-ns#" xmlns:svg="http://www.w3.org/2000/svg" xmlns="http://www.w3.org/2000/svg" version="1.1" viewBox="5 5 91 90" xml:space="preserve" x="0px" y="0px"><path d="m 50,5 -23.4375,24.28125 14.625,0 c -0.252455,7.555741 -1.948512,15.5643 -4.90625,22.90625 -1.345057,3.338107 -3.927173,8.332897 -5.8125,11.28125 -3.4265,5.358088 -8.699935,11.540077 -12.9375,15.15625 -2.875491,2.453519 -3.938906,3.310629 -5.375,4.34375 -0.918293,0.66055 -1.622094,1.124196 -1.9375,1.375 0,0 2.504235,-0.820637 4.625,-1.75 2.632122,-1.153236 5.487168,-2.775813 7.78125,-4.125 1.365544,-0.80297 2.845583,-1.86317 3.96875,-2.625 6.823309,-4.629453 13.539508,-11.302068 18.84375,-18.625 L 50,95 54.5625,57.25 c 5.300513,7.309816 12.030819,13.971339 18.84375,18.59375 1.123166,0.76183 2.603206,1.82203 3.96875,2.625 2.294082,1.349187 5.117878,2.971764 7.75,4.125 2.120765,0.929363 4.65625,1.75 4.65625,1.75 C 89.465845,84.092946 88.730793,83.6293 87.8125,82.96875 86.376406,81.935629 85.34424,81.078519 82.46875,78.625 78.231184,75.008827 72.95775,68.826838 69.53125,63.46875 67.645924,60.520397 65.063807,55.525607 63.71875,52.1875 60.761012,44.84555 59.064955,36.836991 58.8125,29.28125 l 14.625,0 L 50,5 z" style="" fill="#0000ff" fill-opacity="1" fill-rule="evenodd" stroke-width="0.50099999" stroke-linejoin="bevel" overflow="visible"/></svg>