<svg xmlns="http://www.w3.org/2000/svg" xmlns:xlink="http://www.w3.org/1999/xlink" version="1.1" x="0px" y="0px" viewBox="0 0 100 100" style="enable-background:new 0 0 100 100;" xml:space="preserve"><g><path fill="#ff0000" d="M85.356,14.646c-19.527-19.527-51.184-19.527-70.712,0c-19.526,19.526-19.526,51.183,0.002,70.71   c19.524,19.525,51.182,19.526,70.709,0C104.883,65.828,104.881,34.17,85.356,14.646z M18.18,18.181   c16.949-16.95,44.166-17.524,61.814-1.727L16.455,79.993C0.658,62.346,1.23,35.131,18.18,18.181z M81.819,81.82   c-16.955,16.955-44.181,17.525-61.827,1.712L83.628,20.1C99.342,37.75,98.74,64.9,81.819,81.82z"/></g></svg>