<svg fill="#445544" xmlns="http://www.w3.org/2000/svg" data-name="Layer 2" viewBox="0 0 100 100" x="0px" y="0px"><path d="M94.67,42.52a1.48,1.48,0,0,0-.65-1L80.65,32.86l-.83-15.92a1.49,1.49,0,0,0-1.66-1.39l-15.82,2L51.47,5.84a1.52,1.52,0,0,0-2.16,0L38.44,17.5l-15.82-2A1.48,1.48,0,0,0,21,16.94l-.83,15.92L6.77,41.54a1.48,1.48,0,0,0-.38,2.13L14.91,55a14.89,14.89,0,0,0,.5,3.3,16.69,16.69,0,0,0,1,2.9L8.06,69.54a1.69,1.69,0,0,0,0,2.38L30.64,94.51a1.7,1.7,0,0,0,2.38,0l8.86-8.86q.39.14.78.24a16,16,0,0,0,5.25.64,15.38,15.38,0,0,0,3.77-.6l12.91,6.58a1.58,1.58,0,0,0,.68.16,1.42,1.42,0,0,0,.5-.09,1.45,1.45,0,0,0,.85-.81l6.23-14.68,15.53-3.58a1.47,1.47,0,0,0,1.08-1.87L84.8,56.4l9.6-12.73A1.52,1.52,0,0,0,94.67,42.52ZM49.39,68a7.38,7.38,0,0,1-7.17-6.7L64.28,39.28s6.83,6.82,6.93,6.94ZM73.22,49A12.57,12.57,0,0,1,71.48,64L58.21,77.33a7.42,7.42,0,0,1-6.68-6.68ZM46.09,52.72A9.29,9.29,0,0,0,40.49,45L55.23,30.24c.12.1,6.68,6.66,6.68,6.66Zm-9-9.13-9.49-3.86L37.4,30a12.57,12.57,0,0,1,15.08-1.74ZM39,48a6,6,0,0,1-4.48,11l-16.21-6.6a11.84,11.84,0,0,1,3-6.37c.12-.15,3.73-3.76,3.73-3.76Zm3.07,34.14a1.69,1.69,0,0,0-1.85.36l-8.44,8.44L15,74.11l-3.38-3.38L16,66.32l3.64-3.64a1.69,1.69,0,0,0,.28-2,13.93,13.93,0,0,1-1.25-3.08,11.61,11.61,0,0,1-.32-1.51l14.92,6.06a9.12,9.12,0,0,0,5.69.42,10.77,10.77,0,0,0,9.23,8.76,10.76,10.76,0,0,0,7.14,8.8,11.67,11.67,0,0,1-3.94,2.35,12.23,12.23,0,0,1-3.46.7A13.25,13.25,0,0,1,42.12,82.14ZM82,55.22a1.46,1.46,0,0,0-.23,1.32L86.17,71,71.45,74.38a1.47,1.47,0,0,0-1,.87l-5.9,13.9L55.21,84.4a14.87,14.87,0,0,0,3-2.3L73.86,66.43C80,60.27,79.75,50,73.26,43.5L58,28.19c-6.49-6.49-16.77-6.76-22.93-.6L19.34,43.27a15.09,15.09,0,0,0-4.05,7.29L9.7,43.15l12.68-8.22A1.52,1.52,0,0,0,23,33.76l.78-15.08,15,1.84a1.48,1.48,0,0,0,1.26-.46L50.39,9l10.3,11a1.51,1.51,0,0,0,1.27.46l15-1.84.79,15.08a1.46,1.46,0,0,0,.67,1.17l12.67,8.22Z"/></svg>