<svg fill="#367EEB" xmlns="http://www.w3.org/2000/svg" xmlns:xlink="http://www.w3.org/1999/xlink" version="1.1" x="0px" y="0px" viewBox="0 0 100 100" enable-background="new 0 0 100 100" xml:space="preserve"><g display="none"><ellipse display="inline" fill="#367EEB" cx="50.023" cy="22.039" rx="0.367" ry="2.969"></ellipse><line display="inline" fill="none" stroke="#367EEB" stroke-width="0.25" stroke-miterlimit="10" x1="23.75" y1="53.458" x2="31.09" y2="66.417"></line></g><g><path d="M36.8,83.189 M45.407,66.336h-0.769H43.87c0,0-0.046,0.627,0.219,1.06c0.223,0.364,0.55,0.412,0.55,0.412   s0.328-0.048,0.549-0.412C45.454,66.963,45.407,66.336,45.407,66.336z M46.922,66.336h-0.769h-0.769c0,0-0.046,0.627,0.219,1.06   c0.223,0.364,0.55,0.412,0.55,0.412s0.328-0.048,0.549-0.412C46.969,66.963,46.922,66.336,46.922,66.336z M48.466,66.336h-0.769   h-0.769c0,0-0.046,0.627,0.219,1.06c0.223,0.364,0.55,0.412,0.55,0.412s0.328-0.048,0.549-0.412   C48.513,66.963,48.466,66.336,48.466,66.336z M50.009,66.336H49.24h-0.769c0,0-0.046,0.627,0.219,1.06   c0.223,0.364,0.55,0.412,0.55,0.412s0.328-0.048,0.549-0.412C50.056,66.963,50.009,66.336,50.009,66.336z M25.902,86.486h-3.453   h-3.453c0,0-0.206-2.266,0.984-3.828c1-1.313,2.469-1.484,2.469-1.484s1.469,0.172,2.469,1.484   C26.108,84.221,25.902,86.486,25.902,86.486z M19.829,85.846h0.268c-0.017-0.276-0.066-1.769,0.748-2.837   c0.757-0.992,1.867-1.123,1.867-1.123s0.057,0.009,0.141,0.026c-0.242-0.078-0.404-0.098-0.404-0.098s-1.114,0.131-1.873,1.126   C19.673,84.127,19.829,85.846,19.829,85.846z M33.069,86.486h-3.453h-3.453c0,0-0.206-2.266,0.984-3.828   c1-1.313,2.469-1.484,2.469-1.484s1.469,0.172,2.469,1.484C33.275,84.221,33.069,86.486,33.069,86.486z M26.996,85.846h0.688   c-0.017-0.276-0.066-1.769,0.748-2.837c0.55-0.721,1.281-0.984,1.643-1.076c-0.27-0.093-0.459-0.118-0.459-0.118   s-1.114,0.131-1.873,1.126C26.84,84.127,26.996,85.846,26.996,85.846z M35.659,79.788h1.139h2.066c0,0,0.123-1.686-0.589-2.85   c-0.599-0.977-1.478-1.105-1.478-1.105s-0.879,0.129-1.478,1.105c-0.298,0.487-0.449,1.065-0.525,1.573h0.456   c0.048-0.425,0.159-0.945,0.422-1.373c0.455-0.744,1.122-0.845,1.125-0.845h0.001c0,0,0.113,0.02,0.275,0.089   c-0.217,0.069-0.657,0.267-0.987,0.807c-0.541,0.884-0.447,2.168-0.447,2.168 M42.768,86.486h-3.453h-3.453   c0,0-0.206-2.266,0.984-3.828c1-1.313,2.469-1.484,2.469-1.484s1.469,0.172,2.469,1.484C42.974,84.221,42.768,86.486,42.768,86.486   z M41.326,83.161c-0.046-0.073-0.084-0.15-0.138-0.221c-0.759-0.995-1.873-1.126-1.873-1.126s-1.114,0.131-1.873,1.126   c-0.903,1.187-0.747,2.905-0.747,2.905h0.55c-0.007-0.475,0.048-1.641,0.711-2.511c0.714-0.938,1.763-1.061,1.763-1.061   S40.625,82.39,41.326,83.161z M49.844,86.486h-3.453h-3.453c0,0-0.206-2.266,0.984-3.828c1-1.313,2.469-1.484,2.469-1.484   s1.469,0.172,2.469,1.484C50.05,84.221,49.844,86.486,49.844,86.486z M48.264,82.94c-0.759-0.995-1.873-1.126-1.873-1.126   s-1.114,0.131-1.873,1.126c-0.903,1.187-0.747,2.905-0.747,2.905h0.615c-0.009-0.132-0.084-1.475,0.581-2.425   c0.588-0.84,1.451-0.95,1.451-0.95s0.863,0.11,1.449,0.95c0.666,0.95,0.589,2.293,0.58,2.425h0.565   C49.011,85.846,49.167,84.127,48.264,82.94z M43.764,66.146h-0.866H42.03c0,0-0.051-0.664,0.247-1.121   c0.25-0.386,0.62-0.437,0.62-0.437s0.367,0.051,0.619,0.437C43.814,65.481,43.764,66.146,43.764,66.146z M42.239,65.958h0.068   c-0.003-0.046-0.027-0.503,0.187-0.832c0.189-0.291,0.469-0.329,0.469-0.329s0.012,0.003,0.016,0.004   c-0.046-0.016-0.082-0.024-0.082-0.024s-0.28,0.039-0.471,0.329C42.2,65.453,42.239,65.958,42.239,65.958z M45.561,66.146h-0.865   h-0.866c0,0-0.052-0.664,0.247-1.121c0.25-0.386,0.619-0.437,0.619-0.437s0.368,0.051,0.619,0.437   C45.613,65.481,45.561,66.146,45.561,66.146z M44.037,65.958h0.173c-0.003-0.046-0.027-0.503,0.188-0.832   c0.136-0.21,0.317-0.286,0.409-0.313c-0.063-0.024-0.112-0.036-0.112-0.036s-0.28,0.039-0.471,0.329   C43.998,65.453,44.037,65.958,44.037,65.958z M47.303,66.146h-0.867H45.57c0,0-0.052-0.664,0.247-1.121   c0.25-0.386,0.618-0.437,0.618-0.437s0.368,0.051,0.619,0.437C47.354,65.481,47.303,66.146,47.303,66.146z M45.778,65.958h0.139   c-0.002-0.133,0.009-0.476,0.178-0.736c0.18-0.274,0.442-0.31,0.442-0.31s0.225,0.039,0.4,0.262   c-0.012-0.021-0.017-0.047-0.031-0.068c-0.19-0.29-0.471-0.329-0.471-0.329s-0.279,0.039-0.469,0.329   C45.739,65.453,45.778,65.958,45.778,65.958z M49.076,66.146h-0.865h-0.866c0,0-0.051-0.664,0.247-1.121   c0.251-0.386,0.619-0.437,0.619-0.437s0.368,0.051,0.619,0.437C49.129,65.481,49.076,66.146,49.076,66.146z M48.681,65.105   c-0.19-0.29-0.47-0.329-0.47-0.329s-0.28,0.039-0.471,0.329c-0.226,0.348-0.186,0.853-0.186,0.853h0.119   c-0.002-0.022-0.027-0.426,0.152-0.712c0.157-0.246,0.385-0.276,0.385-0.276s0.229,0.03,0.384,0.276   c0.181,0.286,0.155,0.689,0.153,0.712h0.121C48.869,65.958,48.908,65.453,48.681,65.105z M50.852,66.146h-0.865h-0.867   c0,0-0.05-0.664,0.247-1.121c0.251-0.386,0.62-0.437,0.62-0.437s0.368,0.051,0.619,0.437   C50.903,65.481,50.852,66.146,50.852,66.146z M50.456,65.105c-0.19-0.29-0.47-0.329-0.47-0.329s-0.28,0.039-0.471,0.329   c-0.226,0.348-0.187,0.853-0.187,0.853h0.111c-0.002-0.022-0.027-0.426,0.152-0.712C49.75,65,49.978,64.97,49.978,64.97   s0.229,0.03,0.384,0.276c0.181,0.286,0.155,0.689,0.153,0.712h0.129C50.644,65.958,50.683,65.453,50.456,65.105z M45.217,79.803   h-2.008h-2.008c0,0-0.119-1.662,0.572-2.81c0.582-0.962,1.436-1.088,1.436-1.088s0.854,0.126,1.436,1.088   C45.337,78.141,45.217,79.803,45.217,79.803z M41.686,79.333h0.32c-0.004-0.349,0.028-1.205,0.414-1.843   c0.414-0.687,1.025-0.778,1.025-0.778s0.527,0.086,0.934,0.651c-0.027-0.054-0.049-0.11-0.081-0.162   c-0.441-0.73-1.09-0.826-1.09-0.826s-0.647,0.096-1.089,0.826C41.596,78.071,41.686,79.333,41.686,79.333z M49.68,79.803h-2.008   h-2.008c0,0-0.12-1.662,0.572-2.81c0.581-0.962,1.436-1.088,1.436-1.088s0.854,0.126,1.436,1.088   C49.799,78.141,49.68,79.803,49.68,79.803z M48.761,77.201c-0.441-0.73-1.089-0.826-1.089-0.826s-0.648,0.096-1.09,0.826   c-0.524,0.87-0.434,2.132-0.434,2.132h0.319c-0.005-0.092-0.052-1.081,0.345-1.779c0.348-0.616,0.86-0.697,0.86-0.697   s0.512,0.081,0.859,0.697c0.396,0.698,0.349,1.688,0.344,1.779h0.319C49.195,79.333,49.286,78.071,48.761,77.201z M49.991,80.08   l-14.73-0.002c0,0-0.591-0.057-0.628,0.491c-0.028,0.406,0.05,0.549,0.05,0.549h15.325 M18.683,80.024c0,0-0.369-0.07-0.538,0.478   c-0.119,0.389-0.018,0.616-0.018,0.616h13.405c-0.025-0.211-0.054-0.64,0.063-1.038 M32.331,75.352   c0.138-0.189,0.297-0.396,0.297-0.396h-2.766c0,0-0.141,0.184-0.141,0.396c0,0.275,0.134,0.396,0.134,0.396h2.241   C32.271,75.448,32.214,75.512,32.331,75.352z M37.834,75.426c-0.009-0.16,0.028-0.438,0.028-0.438h-4.625   c0,0-0.154,0.266-0.233,0.363c-0.185,0.226-0.282,0.396-0.282,0.396h5.125C37.841,75.571,37.841,75.571,37.834,75.426z    M50.062,74.955h-9.595c0,0-0.212,0.184-0.212,0.396c0,0.275,0.179,0.396,0.179,0.396h9.628 M50.012,63.658h-9.087v0.792h9.087   V63.658z M31.113,78.627v0.594h1.28v-0.594H31.113z M32.531,78.627v0.594l0.609,0.13c0,0-0.5,1.688-0.208,2.834s2,2.604,2,2.604   l0.645-0.819c0,0-0.957-1.118-1.374-2.368s0.334-1.729,0.334-1.729h0.854v-1.245H32.531z M14.753,78.627v0.594h1.344v-0.594H14.753   z M16.206,78.627v0.594l0.609,0.13c0,0-0.5,1.688-0.208,2.834s2,2.604,2,2.604l0.645-0.819c0,0-0.957-1.118-1.374-2.368   s0.333-1.729,0.333-1.729h0.854v-1.245H16.206z M37.396,73.564v0.479h1.084v-0.479H37.396z M27.045,73.564v0.479h1.084v-0.479   H27.045z M34.795,84.788 M15.706,79.439h0.875l-0.484-0.094h-1.266L15.706,79.439z M16.581,79.533h-0.875   c0,0-0.364,2.006,0.125,2.828c0.223,0.374,0.266,0.531,1.047,1.266c0.766,0.72,1.328,1.161,1.328,1.161l0.281-0.012   c0,0-1.32-0.921-1.906-2.231C16.206,81.707,16.347,80.627,16.581,79.533z M27.796,74.209h0.333l-0.023-0.073h-1.005L27.796,74.209z    M38.112,74.209h0.695l-0.385-0.073h-1.006L38.112,74.209z M38.872,74.284h-0.695c0,0-0.289,1.594,0.1,2.247   c0.177,0.297,0.211,0.422,0.831,1.005c0.608,0.572,1.056,0.923,1.056,0.923l0.224-0.01c0,0-1.049-0.731-1.515-1.772   C38.574,76.012,38.686,75.153,38.872,74.284z M32.007,79.428h0.875l-0.484-0.094h-1.266L32.007,79.428z M32.882,79.521h-0.875   c0,0-0.364,2.006,0.125,2.828c0.223,0.374,0.266,0.531,1.047,1.266c0.766,0.72,1.328,1.161,1.328,1.161l0.288,0.012   c0,0-1.327-0.944-1.913-2.255C32.507,81.695,32.647,80.615,32.882,79.521z M39.305,77.174l1.228,1.359l0.52-0.661   c0,0-0.548-0.829-0.873-1.345c-0.219-0.347-0.354-1.16-0.354-1.16s-0.1,0.307-0.29,0.928   C39.497,76.415,39.305,77.174,39.305,77.174z M40.009,74.789l0.204-0.22h0.688v-1.005h-0.515L40.009,74.789z M39.824,73.564h-1.229   v0.479l0.491,0.105c-0.144,0.516-0.369,1.665-0.186,2.199c0.023,0.069,0.291-0.868,0.519-1.69   C39.573,74.104,39.824,73.564,39.824,73.564z M28.864,73.564h-0.641v0.525c0,0,0.241-0.196,0.321-0.262   C28.623,73.763,28.864,73.564,28.864,73.564z M28.48,75.503c-0.009,0.232-0.003,0.708,0.065,0.931   c0.113,0.365,0.394,0.795,0.577,1.024c0.232,0.292,1.035,1.075,1.035,1.075l0.521-0.661l-0.499-0.686c0,0-0.159-0.205-0.364-0.56   c-0.178-0.307-0.346-0.794-0.365-1.26c-0.024-0.584,0.39-0.798,0.39-0.798h0.688v-1.005h-0.807c0,0-0.358,0.284-0.478,0.379   c-0.15,0.119-0.6,0.477-0.6,0.477S28.491,75.229,28.48,75.503z M27.787,74.284l-0.037,0.236l0.305-0.236H27.787z M28.49,76.677   c-0.262-0.586-0.201-1.324-0.057-2.086l-0.006,0.005l-0.731,0.768c-0.008,0.43,0.03,0.886,0.198,1.168   c0.178,0.297,0.211,0.422,0.832,1.005c0.608,0.572,1.056,0.923,1.056,0.923l0.223-0.01C30.005,78.449,28.956,77.718,28.49,76.677z    M63.2,83.189 M56.13,66.336h-0.768h-0.77c0,0-0.047,0.627,0.221,1.06c0.221,0.364,0.549,0.412,0.549,0.412   s0.326-0.048,0.549-0.412C56.177,66.963,56.13,66.336,56.13,66.336z M54.616,66.336h-0.77h-0.768c0,0-0.047,0.627,0.219,1.06   c0.221,0.364,0.549,0.412,0.549,0.412s0.328-0.048,0.551-0.412C54.661,66.963,54.616,66.336,54.616,66.336z M53.071,66.336h-0.768   h-0.77c0,0-0.047,0.627,0.221,1.06c0.221,0.364,0.549,0.412,0.549,0.412s0.326-0.048,0.549-0.412   C53.118,66.963,53.071,66.336,53.071,66.336z M51.528,66.336H50.76h-0.769c0,0-0.047,0.627,0.22,1.06   c0.222,0.364,0.549,0.412,0.549,0.412s0.327-0.048,0.55-0.412C51.575,66.963,51.528,66.336,51.528,66.336z M80.888,86.486h-3.453   h-3.453c0,0-0.207-2.266,0.984-3.828c1-1.313,2.469-1.484,2.469-1.484s1.469,0.172,2.469,1.484   C81.093,84.221,80.888,86.486,80.888,86.486z M79.308,82.94c-0.76-0.995-1.873-1.126-1.873-1.126s-0.162,0.02-0.403,0.098   c0.083-0.018,0.14-0.026,0.14-0.026s1.111,0.131,1.867,1.123c0.815,1.068,0.765,2.561,0.748,2.837h0.268   C80.054,85.846,80.21,84.127,79.308,82.94z M73.72,86.486h-3.453h-3.453c0,0-0.205-2.266,0.984-3.828   c1-1.313,2.469-1.484,2.469-1.484s1.469,0.172,2.469,1.484C73.927,84.221,73.72,86.486,73.72,86.486z M72.14,82.94   c-0.758-0.995-1.873-1.126-1.873-1.126s-0.188,0.025-0.459,0.118c0.362,0.092,1.094,0.355,1.643,1.076   c0.815,1.068,0.765,2.561,0.748,2.837h0.689C72.888,85.846,73.044,84.127,72.14,82.94z M64.271,79.358c0,0,0.094-1.284-0.447-2.168   c-0.329-0.54-0.77-0.738-0.986-0.807c0.162-0.069,0.275-0.089,0.275-0.089c0.004,0,0.67,0.101,1.125,0.845   c0.264,0.428,0.375,0.948,0.422,1.373h0.457c-0.076-0.508-0.229-1.086-0.525-1.573c-0.6-0.977-1.479-1.105-1.479-1.105   s-0.879,0.129-1.477,1.105c-0.713,1.164-0.59,2.85-0.59,2.85h2.066h1.139 M64.14,86.486h-3.453h-3.453c0,0-0.207-2.266,0.984-3.828   c1-1.313,2.469-1.484,2.469-1.484s1.469,0.172,2.469,1.484C64.345,84.221,64.14,86.486,64.14,86.486z M62.56,82.94   c-0.76-0.995-1.873-1.126-1.873-1.126s-1.115,0.131-1.873,1.126c-0.054,0.07-0.093,0.147-0.139,0.222   c0.7-0.772,1.607-0.888,1.607-0.888s1.049,0.123,1.762,1.061c0.663,0.87,0.719,2.036,0.712,2.511h0.55   C63.306,85.846,63.462,84.127,62.56,82.94z M57.063,86.486H53.61h-3.453c0,0-0.207-2.266,0.984-3.828   c1-1.313,2.469-1.484,2.469-1.484s1.469,0.172,2.469,1.484C57.269,84.221,57.063,86.486,57.063,86.486z M55.483,82.94   c-0.76-0.995-1.873-1.126-1.873-1.126s-1.115,0.131-1.873,1.126c-0.904,1.187-0.748,2.905-0.748,2.905h0.564   c-0.009-0.132-0.085-1.475,0.58-2.425c0.586-0.84,1.449-0.95,1.449-0.95s0.863,0.11,1.451,0.95c0.665,0.95,0.591,2.293,0.581,2.425   h0.614C56.229,85.846,56.386,84.127,55.483,82.94z M57.97,66.146h-0.867h-0.865c0,0-0.051-0.664,0.246-1.121   c0.252-0.386,0.619-0.437,0.619-0.437s0.371,0.051,0.621,0.437C58.021,65.481,57.97,66.146,57.97,66.146z M57.573,65.105   c-0.189-0.29-0.471-0.329-0.471-0.329s-0.036,0.009-0.083,0.024c0.005-0.001,0.019-0.004,0.019-0.004s0.279,0.038,0.469,0.329   c0.214,0.329,0.189,0.786,0.187,0.832h0.067C57.761,65.958,57.8,65.453,57.573,65.105z M56.171,66.146h-0.865H54.44   c0,0-0.053-0.664,0.246-1.121c0.25-0.386,0.619-0.437,0.619-0.437s0.369,0.051,0.619,0.437   C56.224,65.481,56.171,66.146,56.171,66.146z M55.776,65.105c-0.191-0.29-0.471-0.329-0.471-0.329s-0.049,0.012-0.112,0.036   c0.092,0.027,0.272,0.104,0.409,0.313c0.216,0.329,0.19,0.786,0.188,0.832h0.173C55.964,65.958,56.003,65.453,55.776,65.105z    M54.431,66.146h-0.865h-0.867c0,0-0.051-0.664,0.248-1.121c0.25-0.386,0.619-0.437,0.619-0.437s0.367,0.051,0.617,0.437   C54.481,65.481,54.431,66.146,54.431,66.146z M54.034,65.105c-0.189-0.29-0.469-0.329-0.469-0.329s-0.281,0.039-0.471,0.329   c-0.014,0.021-0.019,0.047-0.03,0.068c0.174-0.223,0.399-0.262,0.399-0.262s0.262,0.035,0.441,0.31   c0.17,0.261,0.181,0.604,0.178,0.736h0.139C54.222,65.958,54.261,65.453,54.034,65.105z M52.655,66.146H51.79h-0.866   c0,0-0.052-0.664,0.246-1.121c0.251-0.386,0.62-0.437,0.62-0.437s0.367,0.051,0.619,0.437   C52.706,65.481,52.655,66.146,52.655,66.146z M52.261,65.105c-0.191-0.29-0.471-0.329-0.471-0.329s-0.28,0.039-0.471,0.329   c-0.227,0.348-0.188,0.853-0.188,0.853h0.121c-0.002-0.022-0.028-0.426,0.152-0.712C51.562,65,51.79,64.97,51.79,64.97   s0.227,0.03,0.385,0.276c0.179,0.286,0.154,0.689,0.152,0.712h0.119C52.446,65.958,52.485,65.453,52.261,65.105z M58.8,79.803   h-2.008h-2.008c0,0-0.121-1.662,0.572-2.81c0.582-0.962,1.436-1.088,1.436-1.088s0.854,0.126,1.436,1.088   C58.919,78.141,58.8,79.803,58.8,79.803z M57.88,77.201c-0.441-0.73-1.088-0.826-1.088-0.826s-0.648,0.096-1.09,0.826   c-0.031,0.052-0.054,0.108-0.081,0.163c0.407-0.566,0.935-0.652,0.935-0.652s0.611,0.092,1.025,0.778   c0.386,0.638,0.418,1.494,0.413,1.843h0.321C58.315,79.333,58.405,78.071,57.88,77.201z M54.337,79.803h-2.008h-2.008   c0,0-0.119-1.662,0.572-2.81c0.582-0.962,1.436-1.088,1.436-1.088s0.855,0.126,1.436,1.088   C54.458,78.141,54.337,79.803,54.337,79.803z M53.419,77.201c-0.441-0.73-1.09-0.826-1.09-0.826s-0.646,0.096-1.088,0.826   c-0.525,0.87-0.436,2.132-0.436,2.132h0.319c-0.005-0.092-0.052-1.081,0.344-1.779c0.349-0.616,0.86-0.697,0.86-0.697   s0.512,0.081,0.859,0.697c0.396,0.698,0.35,1.688,0.345,1.779h0.319C53.853,79.333,53.944,78.071,53.419,77.201z M49.992,81.118   h15.325c0,0,0.078-0.143,0.051-0.549c-0.037-0.548-0.629-0.491-0.629-0.491l-14.73,0.002 M68.405,80.08   c0.117,0.398,0.088,0.827,0.063,1.038h13.406c0,0,0.102-0.228-0.018-0.616c-0.17-0.548-0.539-0.478-0.539-0.478 M67.903,75.747   h2.242c0,0,0.133-0.12,0.133-0.396c0-0.213-0.141-0.396-0.141-0.396h-2.766c0,0,0.16,0.207,0.297,0.396   C67.786,75.512,67.729,75.448,67.903,75.747z M62.153,75.747h5.125c0,0-0.098-0.17-0.281-0.396   c-0.08-0.098-0.234-0.363-0.234-0.363h-4.625c0,0,0.037,0.277,0.029,0.438C62.159,75.571,62.159,75.571,62.153,75.747z    M49.938,75.747h9.629c0,0,0.178-0.12,0.178-0.396c0-0.213-0.211-0.396-0.211-0.396h-9.596 M49.966,64.45h9.109v-0.792h-9.109   V64.45z M67.606,78.627v0.594h1.281v-0.594H67.606z M64.61,78.627v1.245h0.854c0,0,0.75,0.479,0.334,1.729   c-0.418,1.25-1.375,2.368-1.375,2.368l0.645,0.819c0,0,1.709-1.457,2-2.604c0.293-1.146-0.207-2.834-0.207-2.834l0.609-0.13v-0.594   H64.61z M83.903,78.627v0.594h1.344v-0.594H83.903z M80.935,78.627v1.245h0.855c0,0,0.75,0.479,0.332,1.729   c-0.416,1.25-1.373,2.368-1.373,2.368l0.645,0.819c0,0,1.707-1.457,2-2.604c0.291-1.146-0.209-2.834-0.209-2.834l0.609-0.13v-0.594   H80.935z M61.521,73.564v0.479h1.084v-0.479H61.521z M71.872,73.564v0.479h1.084v-0.479H71.872z M65.206,84.788 M85.169,79.346   h-1.266l-0.484,0.094h0.875L85.169,79.346z M83.419,82.545c-0.586,1.311-1.906,2.231-1.906,2.231l0.281,0.012   c0,0,0.563-0.441,1.328-1.161c0.781-0.734,0.824-0.892,1.047-1.266c0.49-0.822,0.125-2.828,0.125-2.828h-0.875   C83.653,80.627,83.794,81.707,83.419,82.545z M72.899,74.136h-1.004l-0.023,0.073h0.332L72.899,74.136z M62.583,74.136h-1.006   l-0.385,0.073h0.695L62.583,74.136z M61.128,76.677c-0.465,1.041-1.514,1.772-1.514,1.772l0.223,0.01c0,0,0.447-0.351,1.057-0.923   c0.619-0.583,0.654-0.708,0.83-1.005c0.389-0.653,0.1-2.247,0.1-2.247h-0.695C61.315,75.153,61.427,76.012,61.128,76.677z    M68.868,79.334h-1.266l-0.484,0.094h0.875L68.868,79.334z M67.118,82.533c-0.586,1.311-1.912,2.255-1.912,2.255l0.287-0.012   c0,0,0.563-0.441,1.328-1.161c0.781-0.734,0.824-0.892,1.047-1.266c0.49-0.822,0.125-2.828,0.125-2.828h-0.875   C67.353,80.615,67.493,81.695,67.118,82.533z M60.466,76.295c-0.189-0.621-0.289-0.928-0.289-0.928s-0.137,0.813-0.355,1.16   c-0.324,0.516-0.873,1.345-0.873,1.345l0.52,0.661l1.229-1.359C60.696,77.174,60.503,76.415,60.466,76.295z M59.614,73.564h-0.516   v1.005h0.689l0.203,0.22L59.614,73.564z M60.581,74.658c0.227,0.822,0.494,1.76,0.518,1.69c0.184-0.534-0.041-1.684-0.186-2.199   l0.492-0.105v-0.479h-1.229C60.177,73.564,60.427,74.104,60.581,74.658z M71.48,73.819c0.075,0.063,0.298,0.253,0.298,0.253v-0.508   h-0.595C71.184,73.564,71.407,73.756,71.48,73.819z M71.356,74.42c0,0-0.449-0.357-0.6-0.477c-0.119-0.095-0.479-0.379-0.479-0.379   h-0.807v1.005h0.689c0,0,0.414,0.214,0.389,0.798c-0.02,0.466-0.188,0.953-0.365,1.26c-0.205,0.354-0.363,0.56-0.363,0.56   l-0.5,0.686l0.521,0.661c0,0,0.803-0.783,1.035-1.075c0.184-0.229,0.463-0.659,0.576-1.024c0.068-0.223,0.074-0.698,0.066-0.931   C71.509,75.229,71.356,74.42,71.356,74.42z M71.885,74.284l0.366,0.298l-0.045-0.298H71.885z M69.995,78.449l0.223,0.01   c0,0,0.447-0.351,1.057-0.923c0.621-0.583,0.654-0.708,0.832-1.005c0.168-0.282,0.205-0.738,0.197-1.168l-0.73-0.768l-0.006-0.005   c0.145,0.762,0.205,1.5-0.057,2.086C71.044,77.718,69.995,78.449,69.995,78.449z M50.021,10.361c-0.134,0-0.242,0.602-0.242,1.344   s0.108,1.344,0.242,1.344s0.242-0.602,0.242-1.344S50.154,10.361,50.021,10.361z M47.254,67.977v6.813 M44.483,68.736h-0.447v5.922   h0.447V68.736z M48.4,63.658c0,0-0.135-12.283-0.556-15.09c-0.047-0.313-0.224-0.785-0.601-1.035   c-0.378-0.25-0.506,0.063-0.613,0.188c-0.108,0.125-0.604,0.891-0.733,1.234s0.422-0.234,0.422-0.234s0.311-0.25,0.538-0.063   s0.356,0.813,0.386,1.188s0.772,13.813,0.772,13.813H48.4z M46.608,63.658c0,0-0.103-9.343-0.423-11.478   c-0.035-0.237-0.17-0.597-0.457-0.787c-0.287-0.189-0.384,0.048-0.466,0.143c-0.082,0.096-0.459,0.678-0.558,0.939   c-0.099,0.261,0.32-0.179,0.32-0.179s0.236-0.19,0.41-0.048c0.173,0.143,0.271,0.618,0.293,0.903s0.587,10.506,0.587,10.506H46.608   z M41.054,64.45c0,0,0.302,0.983,0.406,1.332c0.182,0.604,0.467,0.817,0.703,1.01c0.434,0.352,1.819,1.185,1.819,1.185   c-0.001,0-0.717-0.56-1.313-1.083c-0.296-0.26-0.563-0.511-0.699-0.68c-0.108-0.134-0.536-1.764-0.536-1.764H41.054 M50.034,67.977   h-6.052v0.46h6.052V67.977z M47.272,68.736h-0.447v5.922h0.447 M50.235,68.736h-0.446v5.922h0.446 M52.747,67.977v6.813    M55.517,74.658h0.447v-5.922h-0.447V74.658z M58.337,18.143c-4.443-2.075-6.705,0.82-7.687,2.838   c0.071-2.013,0.134-3.617,0.161-3.85c0.08-0.684-0.055-1.95,0.783-3.748c0.836-1.798,0.354-0.633,1.365-0.861   c1.014-0.228,0.982,0.245,1.232,0.498c0.131,0.131,0.188,0.329,0.541,0.743c0.152,0.179,0.297,0.538,0.447,0.87   c0.021,0.046,0.135,0.055,0.135-0.217c0-0.417-0.379-1.834-1.916-2.551c-2.622-1.225-3.369,1.823-3.369,1.823v8.918   c-0.006,0.022-0.01,0.037-0.01,0.037s-0.004-0.015-0.01-0.037v-8.918c0,0-0.747-3.048-3.369-1.823   c-1.536,0.717-1.915,2.135-1.916,2.551c0,0.272,0.114,0.263,0.135,0.217c0.15-0.332,0.295-0.69,0.447-0.87   c0.354-0.414,0.411-0.612,0.541-0.743c0.251-0.253,0.219-0.726,1.232-0.498c1.013,0.228,0.53-0.937,1.366,0.861   c0.837,1.798,0.703,3.064,0.782,3.748c0.027,0.233,0.09,1.837,0.161,3.85c-0.981-2.019-3.243-4.913-7.686-2.838   c-3.792,1.771-4.729,5.27-4.729,6.297c-0.001,0.672,0.282,0.65,0.333,0.537c0.37-0.818,0.727-1.705,1.104-2.146   c0.875-1.021,1.014-1.511,1.333-1.833c0.621-0.626,0.542-1.792,3.042-1.229s1.31-2.313,3.373,2.125   c2.064,4.438,1.734,7.563,1.931,9.25s1.157,32.516,1.157,32.516h0.771h0.771c0,0,0.961-30.828,1.158-32.516   c0.195-1.688-0.135-4.813,1.93-9.25s0.873-1.563,3.373-2.125s2.422,0.603,3.043,1.229c0.318,0.323,0.457,0.813,1.332,1.833   c0.379,0.441,0.734,1.328,1.105,2.146c0.051,0.113,0.334,0.135,0.332-0.537C63.065,23.412,62.128,19.914,58.337,18.143z    M51.985,63.658c0,0,0.742-13.438,0.771-13.813s0.158-1,0.387-1.188c0.227-0.188,0.537,0.063,0.537,0.063s0.553,0.578,0.422,0.234   c-0.129-0.344-0.625-1.109-0.732-1.234s-0.236-0.438-0.613-0.188s-0.555,0.723-0.602,1.035c-0.42,2.807-0.555,15.09-0.555,15.09   H51.985z M53.685,63.658c0,0,0.564-10.221,0.588-10.506c0.021-0.285,0.119-0.761,0.293-0.903s0.41,0.048,0.41,0.048   s0.418,0.439,0.32,0.179c-0.1-0.262-0.477-0.844-0.559-0.939c-0.082-0.095-0.178-0.332-0.465-0.143   c-0.287,0.19-0.422,0.55-0.457,0.787c-0.32,2.135-0.424,11.478-0.424,11.478H53.685z M58.946,64.45h-0.379   c0,0-0.428,1.63-0.537,1.764c-0.135,0.169-0.402,0.42-0.699,0.68c-0.596,0.523-1.313,1.083-1.313,1.083s1.385-0.833,1.818-1.185   c0.236-0.192,0.521-0.406,0.703-1.01C58.646,65.434,58.946,64.45,58.946,64.45 M49.966,68.437h6.053v-0.46h-6.053V68.437z    M52.728,74.658h0.447v-5.922h-0.447 M36.411,89.639 M63.589,89.639 M76.911,89.639 M35.813,65.377   c3.961-4.627,9.2-5.205,9.253-5.211l-0.025-0.248c-0.053,0.005-5.388,0.591-9.417,5.297c-4.548,5.313-4.656,9.401-4.656,9.441   l0.25,0.004C31.218,74.62,31.33,70.614,35.813,65.377z M37.772,65.9c3.052-4.599,7.606-4.932,7.652-4.935l-0.016-0.25   c-0.046,0.003-4.721,0.34-7.844,5.046c-3.37,5.074-3.806,8.846-3.811,8.883l0.249,0.027C34.006,74.635,34.439,70.919,37.772,65.9z    M27.614,75.284c0.744-0.748,1.475-1.428,2.172-2.02c2.372-2.014,4.321-2.977,5.756-2.868c2.59,0.198,4.651,1.539,6.128,3.985   c0.117,0.193,0.146,0.24,0.193,0.269l0.145-0.202c-0.018-0.02-0.072-0.109-0.125-0.196c-1.521-2.519-3.648-3.9-6.322-4.105   c-1.509-0.111-3.513,0.868-5.938,2.927c-0.703,0.598-1.438,1.282-2.187,2.035c-2.431,2.443-3.88,4.505-3.895,4.525l0.205,0.143   C23.761,79.756,25.2,77.711,27.614,75.284z M38.981,70.396c0.013,0,0.025,0,0.037,0c3.59,0,4.669,2.758,5.076,3.798   c0.119,0.304,0.16,0.402,0.233,0.45l0.147-0.2c-0.027-0.032-0.089-0.189-0.148-0.341c-0.424-1.084-1.548-3.957-5.308-3.957   c-0.013,0-0.026,0-0.039,0c-4.497,0.023-8.735,9.119-8.914,9.506l0.228,0.105C30.336,79.664,34.642,70.419,38.981,70.396z    M42.101,70.619c0.336-0.231,0.666-0.313,1.009-0.243c2.57,0.513,3.862,4.037,3.885,4.266l0.248,0.033   c0.04-0.295-1.394-4.007-4.084-4.545c-0.407-0.08-0.811,0.014-1.2,0.284c-2.315,1.601-3.553,8.958-3.605,9.271l0.247,0.041   C38.612,79.65,39.872,72.16,42.101,70.619z M22.87,75.264c1.685-1.845,4.23-4.633,7.989-4.866c4.816-0.312,6.944,2.982,6.965,3.015   l0.212-0.133c-0.022-0.035-2.209-3.448-7.193-3.132c-3.859,0.24-6.446,3.073-8.158,4.948c-1.695,1.855-2.713,3.649-3.169,4.553   l0.224,0.113C20.189,78.869,21.195,77.098,22.87,75.264z M30.944,79.373l-0.011-0.597l-0.166,0.551l0.006,0.454h0.43h0.524   l0.049-0.192l-0.254-0.075L30.944,79.373z M34.295,76.933c-0.599-0.977-1.478-1.105-1.478-1.105l-0.537,0.691l0.615-0.163   c0,0,0.107,0.019,0.262,0.087c-0.104-0.038-0.172-0.045-0.172-0.045s-0.598,0.067-1.003,0.59c-0.484,0.618-0.4,1.518-0.4,1.518   h1.403h1.384v0.001h0.414v-0.217C34.693,77.805,34.615,77.457,34.295,76.933z M69.032,74.656c-0.001-0.04-0.107-4.129-4.655-9.441   c-4.028-4.706-9.365-5.292-9.418-5.297l-0.025,0.248c0.053,0.006,5.292,0.584,9.254,5.211c4.482,5.237,4.594,9.243,4.595,9.283   L69.032,74.656z M66.246,74.645c-0.004-0.037-0.44-3.809-3.809-8.883c-3.124-4.706-7.798-5.043-7.845-5.046l-0.016,0.25   c0.046,0.003,4.597,0.33,7.651,4.935c3.332,5.019,3.766,8.734,3.77,8.771L66.246,74.645z M76.459,79.634   c-0.015-0.021-1.464-2.082-3.895-4.525c-0.751-0.754-1.487-1.438-2.188-2.035c-2.426-2.058-4.431-3.036-5.938-2.927   c-2.676,0.205-4.803,1.587-6.322,4.107c-0.053,0.086-0.106,0.176-0.124,0.194l0.081,0.095l0.064,0.106   c0.047-0.028,0.076-0.074,0.192-0.267c1.476-2.446,3.537-3.788,6.128-3.986c1.44-0.108,3.385,0.854,5.757,2.867   c0.695,0.592,1.427,1.271,2.172,2.021c2.415,2.427,3.854,4.472,3.867,4.492L76.459,79.634z M69.935,79.652   c-0.178-0.387-4.417-9.482-8.913-9.506c-0.014,0-0.026,0-0.039,0c-3.759,0-4.884,2.872-5.308,3.955   c-0.061,0.153-0.122,0.311-0.139,0.334l0.137,0.209c0.073-0.048,0.115-0.146,0.234-0.451c0.407-1.04,1.486-3.797,5.076-3.797   c0.012,0,0.024,0,0.036,0c4.339,0.022,8.646,9.268,8.688,9.361L69.935,79.652z M61.647,79.685c-0.052-0.313-1.29-7.67-3.605-9.271   c-0.39-0.271-0.793-0.366-1.2-0.284c-2.766,0.554-4.105,4.377-4.084,4.544l0.249-0.017c0.022-0.244,1.319-3.769,3.884-4.281   c0.346-0.073,0.674,0.012,1.009,0.243c2.229,1.541,3.489,9.031,3.502,9.106L61.647,79.685z M80.483,79.648   c-0.454-0.902-1.471-2.695-3.167-4.553c-1.713-1.875-4.302-4.708-8.159-4.948c-4.987-0.315-7.17,3.097-7.191,3.132l0.211,0.133   c0.021-0.032,2.145-3.322,6.965-3.015c3.757,0.233,6.304,3.021,7.989,4.866c1.678,1.836,2.681,3.605,3.13,4.498L80.483,79.648z    M69.048,78.783l-0.01,0.597l-0.578,0.141l-0.254,0.075l0.049,0.192h0.523h0.43l0.006-0.454 M67.999,76.994   c-0.404-0.522-1.002-0.59-1.002-0.59s-0.067,0.007-0.172,0.045c0.154-0.068,0.262-0.087,0.262-0.087l0.615,0.163l-0.537-0.691   c0,0-0.879,0.129-1.479,1.105c-0.32,0.524-0.398,0.872-0.488,1.356v0.217h0.414v-0.001h1.385h1.402   C68.399,78.512,68.483,77.612,67.999,76.994z M85.247,86.656H14.753V88h70.494V86.656z"></path></g></svg>