<svg fill="#51A7F9" xmlns:dc="http://purl.org/dc/elements/1.1/" xmlns:cc="http://creativecommons.org/ns#" xmlns:rdf="http://www.w3.org/1999/02/22-rdf-syntax-ns#" xmlns:svg="http://www.w3.org/2000/svg" xmlns="http://www.w3.org/2000/svg" xmlns:sodipodi="http://sodipodi.sourceforge.net/DTD/sodipodi-0.dtd" xmlns:inkscape="http://www.inkscape.org/namespaces/inkscape" version="1.1" x="0px" y="0px" viewBox="0 0 739.42499 665.92932" enable-background="new 0 0 2000 2000" xml:space="preserve"><path style="" d="M 288.5745,0 C 206.6505,0 157.1385,33.3201 130.0385,61.2953 95.343495,96.991 76.307495,144.7507 76.307495,195.761 c 0,49.4094 19.059,99.1397 56.228005,134.43033 -15.842,3.9404 -30.38,8.712 -43.068005,14.2615 -36.321,15.8476 -64.327,44.76 -78.925,81.3929 -14.6269995,36.79 -14.0339995,76.9228 1.782,113.0253 16.499,37.778 53.645,60.3424 92.766005,60.356 13.589,0 27.425,-2.7531 40.733,-8.5319 37.071,-16.2219 54.167,-59.4517 38.038,-96.3042 -5.97,-13.7523 -16.971,-24.3806 -30.943,-29.8811 -14.159,-5.5329 -29.568,-5.2191 -43.479,0.8454 -15.814005,6.8768 -23.038005,25.3167 -16.129005,41.1317 5.938,13.4718 20.037005,20.6635 34.009005,18.2876 -0.5,3.6263 -2.876,6.9996 -6.532,8.593 -20.035,8.6588 -42.854005,-0.155 -51.293005,-19.534 -9.034,-20.6929 -9.409,-43.6985 -0.97,-64.8594 8.501,-21.2544 24.787,-38.0078 45.917005,-47.2293 30.944,-13.5029 79.236,-21.5968 129.247,-21.91 2.046,-0.011 4.042,-0.2181 5.972,-0.5991 5.401,0.371 10.921,0.5687 16.564,0.5687 l 441.9435,0 c 17.253,0 31.257,-13.972 31.257,-31.257 0,-17.2851 -13.972,-31.2593 -31.257,-31.2593 l -441.9435,0 c -88.019,0 -127.403,-61.01303 -127.403,-121.52713 0,-34.6636 12.815,-66.9501 36.07,-90.9249 26.818,-27.6932 66.142,-42.3222 113.683,-42.3222 42.354,0 76.861,34.5078 76.861,76.8919 0,18.5666 -15.068,33.633 -33.572,33.633 -4.282,0 -7.689,-3.4391 -7.689,-7.6892 0,-17.2851 -13.971,-31.257 -31.257,-31.257 -17.285,0 -31.256,13.9719 -31.256,31.257 0,38.6954 31.505,70.2029 70.202,70.2029 52.981,0 96.083,-43.1349 96.083,-96.1467 C 427.9465,62.5451 365.4365,0 288.5745,0 Z m 79.987,430.37683 c -76.86,0 -139.376,62.5451 -139.376,139.4058 0,53.012 43.167,96.1467 96.146,96.1467 38.696,0 70.143,-31.5075 70.143,-70.2028 0,-17.2852 -13.972,-31.2569 -31.257,-31.2569 -17.286,0 -31.26,13.9717 -31.26,31.2569 0,4.2513 -3.407,7.6891 -7.626,7.6891 -18.566,0 -33.633,-15.0664 -33.633,-33.633 0,-42.3841 34.51,-76.8919 76.863,-76.8919 l 194.7,0 c 17.285,0 31.256,-13.9719 31.256,-31.2569 0,-17.285 -13.971,-31.257 -31.256,-31.257 l -194.7,0 z" fill="#51A7F9"></path></svg>