<svg fill="#51A7F9" xmlns="http://www.w3.org/2000/svg" xmlns:xlink="http://www.w3.org/1999/xlink" version="1.1" x="0px" y="0px" viewBox="0 0 512 512" enable-background="new 0 0 512 512" xml:space="preserve"><g><path d="M509.826,227.664c-2.688-22.585-7.531-40.819-14.469-54.436l9.312-3.102c5.406-1.797,8.437-7.516,6.906-13   c-6.344-22.624-23.952-43.319-52.312-61.506c-6.578-4.218-12.953-7.781-18.594-10.695l1.406-0.703   c3.609-1.812,5.891-5.508,5.891-9.547c0-4.039-2.281-7.734-5.906-9.539c-3.172-1.578-78.139-38.726-132.043-43.741   c-5.344-0.492-10.203,3.047-11.391,8.273l-12.703,56.194c-1.062,4.719,1.172,9.562,5.453,11.804l1.812,0.945   c-11.891,4.734-24.883,8.07-37.976,8.07c-12.781,0-25.39-3.219-36.905-7.812l2.312-1.203c4.281-2.242,6.531-7.085,5.453-11.804   l-12.703-56.194c-1.188-5.227-6.047-8.766-11.391-8.273C148.092,26.411,73.094,63.558,69.938,65.136   c-3.625,1.805-5.906,5.5-5.906,9.539c0,4.039,2.281,7.734,5.891,9.547l1.406,0.703c-5.641,2.914-12.016,6.477-18.594,10.695   c-28.358,18.188-45.967,38.882-52.311,61.506c-1.531,5.484,1.5,11.203,6.906,13l9.312,3.102   c-6.937,13.617-11.781,31.851-14.468,54.436c-2.531,21.265-2.156,38.53-2.141,39.256c0.094,3.852,2.266,7.359,5.672,9.172   c1.562,0.828,3.281,1.234,5,1.234c2.016,0,4.016-0.562,5.766-1.703l63.139-40.655c1.172-0.75,2.172-1.719,2.969-2.852   l15.406-22.023c3.359,8.25,3.656,17.281,0.922,27.296c-3.547,12.976-11.046,22.514-11.109,22.584   c-2.266,2.812-2.953,6.578-1.828,10.016c42.046,128.287,63.483,211.801,63.702,212.629c1.203,4.719,5.453,8.031,10.328,8.031   H351.97c4.875,0,9.141-3.312,10.344-8.031c0.203-0.828,21.656-84.342,63.687-212.629c1.125-3.438,0.438-7.203-1.828-10.016   c-0.062-0.094-7.328-9.335-10.938-21.999c-2.859-10.078-2.578-19.382,0.812-27.828l15.374,21.968   c0.797,1.133,1.797,2.102,2.969,2.852l63.14,40.655c1.75,1.141,3.75,1.703,5.766,1.703c1.719,0,3.438-0.406,5-1.234   c3.406-1.812,5.578-5.32,5.672-9.172C511.982,266.193,512.356,248.929,509.826,227.664z M447.749,113.573   c22.672,14.546,34,28.655,39.594,39.851l-109.686,36.554l-33.28-49.929l13.983-13.937l57.999-29.023   C422.516,99.674,434.749,105.229,447.749,113.573z M352.532,437.322H159.436c-4.843-17.25-11.296-39.623-19.343-66.373   l106.732-62.623c2.953,0.641,6.016,1,9.172,1c3.141,0,6.218-0.359,9.171-1l106.725,62.623   C363.829,397.699,357.376,420.072,352.532,437.322z M107.906,268.436c3.344-5.125,8.296-13.89,11.343-24.624   c3.641-12.773,3.734-24.976,0.406-36.241l15.656,5.219c1.125,0.367,2.25,0.547,3.375,0.547c3.5,0,6.859-1.719,8.875-4.75   l2.953-4.422l56.295,59.811l-85.201,47.07C117.312,297.498,112.75,283.264,107.906,268.436z M172.592,171.04l56.124,62.858   c-3.953,3.289-7.281,7.281-9.843,11.773l-56.218-59.725L172.592,171.04z M349.329,185.93l-56.232,59.741   c-2.547-4.5-5.891-8.484-9.828-11.773l56.124-62.874L349.329,185.93z M277.315,266.662c0,11.758-9.555,21.336-21.319,21.336   c-11.766,0-21.328-9.578-21.328-21.336c0-11.757,9.562-21.327,21.328-21.327C267.761,245.335,277.315,254.905,277.315,266.662z    M128.124,331.824l88.451-48.873c2.047,4.969,5.031,9.469,8.703,13.281l-91.56,53.732   C131.921,344.074,130.046,338.043,128.124,331.824z M286.69,296.232c3.688-3.812,6.656-8.312,8.719-13.281l88.451,48.873   c-1.938,6.219-3.797,12.25-5.594,18.141L286.69,296.232z M392.72,243.812c3.062,10.734,8.016,19.499,11.359,24.624   c-4.859,14.828-9.422,29.062-13.703,42.609l-85.217-47.07l56.311-59.826l2.969,4.438c2.016,3.031,5.375,4.75,8.875,4.75   c1.125,0,2.266-0.18,3.359-0.547l15.641-5.211C388.985,218.844,389.095,231.046,392.72,243.812z M317.3,43.809   c32.576,5.125,72.139,20.984,95.419,31.249l-60.562,30.304l-43.623-22.796L317.3,43.809z M245.324,127.518v32.491   c0,5.891,4.781,10.664,10.672,10.664c5.89,0,10.655-4.773,10.655-10.664v-32.655c18.352-2.047,35.773-8.688,50.445-16.25   l17.124,8.953l-11.108,11.062c-3.594,3.594-4.172,9.234-1.344,13.476l5.405,8.094l-64.179,71.896   c-2.28-0.375-4.624-0.586-6.999-0.586c-2.391,0-4.719,0.211-7,0.586l-64.17-71.881l5.406-8.109   c2.828-4.242,2.266-9.882-1.344-13.476l-11.109-11.062l16.656-8.703C209.138,119.025,226.7,125.697,245.324,127.518z    M194.701,43.809l8.765,38.757l-43.624,22.796L99.281,75.05C122.546,64.792,162.092,48.934,194.701,43.809z M95.656,97.096   l57.983,29.015l13.984,13.937l-4.781,7.172c-0.25,0.328-0.469,0.664-0.672,1.008l-21.687,32.522   c-0.188,0.258-0.359,0.523-0.516,0.789l-5.625,8.438L24.626,153.408C39.813,122.611,82.203,102.76,95.656,97.096z M66.297,218.172   l-44.437,28.616c1.297-20.781,5.281-49.272,15.312-66.709l45.233,15.07L66.297,218.172z M168.217,469.307   c-0.75-2.828-1.703-6.406-2.875-10.656h181.284c-1.156,4.25-2.124,7.828-2.874,10.656H168.217z M445.702,218.172l-16.109-23.023   l45.234-15.07c10.031,17.438,14.016,45.929,15.312,66.709L445.702,218.172z"></path><path d="M245.324,266.662c0,5.883,4.781,10.664,10.672,10.664c5.89,0,10.655-4.781,10.655-10.664s-4.766-10.663-10.655-10.663   C250.105,255.999,245.324,260.779,245.324,266.662z"></path></g></svg>