<svg fill="#51A7F9" xmlns="http://www.w3.org/2000/svg" xmlns:xlink="http://www.w3.org/1999/xlink" version="1.1" preserveAspectRatio="none" x="0px" y="0px" viewBox="5 5 90 90"><defs><g id="a"><path stroke="none" d=" M 63.85 24.6 L 63.8 24.6 60.75 24.95 55.2 26.5 51.55 26.95 49.9 27.45 49.7 27.55 49.1 27.75 49.15 27.7 49.2 27.6 49.2 27.55 49.25 27.35 49.3 27.25 49.3 27.2 49.35 27.15 49.35 26.95 49.4 26.7 49.45 26.55 49.45 25.85 49.4 25.55 49.4 25.4 49.35 25.25 49.3 24.95 49.1 24.3 49.1 23.7 49.35 22.95 49.35 22.3 49.3 22.1 49.3 22 49.25 21.9 49.2 21.7 49.2 21.6 49.15 21.55 49.05 21.35 49.35 21.35 49.5 21.3 49.6 21.3 49.65 21.25 49.8 21.2 49.95 21.1 50 21.05 50.05 21.05 50.1 21 50.2 20.8 50.45 20.45 50.6 20.3 51.05 20.1 51.3 20.1 51.9 19.8 52 19.8 52 19.75 52.2 19.65 52.4 19.45 52.5 19.3 52.65 19.15 52.7 19.05 52.8 18.95 52.8 18.9 52.85 18.85 52.95 18.6 Q 52.95 18.5 52.85 18.45 L 52.45 18.45 52.3 18.5 52.2 18.5 52.15 18.55 51.85 18.65 51.65 18.75 51.6 18.8 51.4 18.9 51.35 18.95 51.15 19.1 51.1 19.2 50.85 19.45 50.75 19.7 50.6 19.9 50.45 20.05 50.35 20.1 50.3 20.1 50.25 20.15 49.8 20.25 49.7 20.25 49.6 20.3 49.55 20.3 49.45 20.4 49.45 20.3 49.4 20.15 49.4 20.05 49.35 20 49.3 19.85 49.1 19.55 49.1 19.25 49.2 19.1 49.3 19 49.35 18.9 49.35 18.6 49.3 18.5 49.3 18.45 49.2 18.35 49.2 18.3 49.1 18.2 49.25 18.2 49.3 18.15 49.4 18.15 49.45 18.1 49.5 18.1 49.65 18 49.75 17.95 49.8 17.9 49.8 17.85 49.85 17.85 49.85 17.75 49.9 17.65 50 17.3 50 17.25 50.05 17.25 50.1 17.2 50.15 17.1 50.25 17.1 50.4 17 50.8 16.9 50.85 16.85 50.95 16.8 51.05 16.7 51.1 16.7 51.35 16.45 51.35 16.35 51.45 16.25 51.5 16.15 51.5 16.05 51.55 16 51.55 15.85 51.6 15.8 51.6 15.6 Q 51.6 15.45 51.5 15.45 L 51.25 15.45 51.2 15.5 51.05 15.5 51 15.55 50.9 15.55 50.8 15.6 50.7 15.7 50.6 15.7 50.35 15.95 50.35 16 50.25 16.1 50.2 16.2 50.15 16.25 50.05 16.65 49.95 16.8 49.95 16.9 49.85 16.95 49.8 17 49.8 17.05 49.75 17.05 49.45 17.1 49.4 17 49.4 16.95 49.35 16.85 49.3 16.7 49.2 16.6 49.1 16.45 49.1 16.15 49.3 15.85 49.35 15.8 49.35 15.5 49.3 15.4 49.3 15.35 49.2 15.25 49.2 15.15 49.15 15.15 49.05 15.05 Q 48.9 14.9 48.85 15.05 L 48.7 15.15 48.65 15.15 48.65 15.25 48.55 15.35 48.55 15.4 48.5 15.5 48.5 15.8 48.55 15.85 48.75 16.15 48.75 16.45 48.65 16.6 48.55 16.7 48.5 16.85 48.45 16.95 48.3 16.85 48.25 16.85 48.15 16.8 48 16.7 47.8 16.7 47.6 16.6 47.55 16.6 47.45 16.55 47.4 16.45 47.35 16.45 47.35 16.4 47.25 16.05 47.2 15.95 47.2 15.9 47 15.7 46.85 15.65 46.8 15.6 46.75 15.6 46.65 15.55 46.35 15.55 Q 46.2 15.55 46.2 15.7 L 46.2 15.9 46.25 15.95 46.25 16 46.3 16.1 46.3 16.2 46.35 16.2 46.4 16.35 46.55 16.5 46.6 16.5 46.65 16.55 46.75 16.55 47.1 16.65 47.15 16.65 47.3 16.8 47.35 16.9 47.45 17.25 47.55 17.45 47.65 17.55 47.75 17.7 47.75 17.75 47.8 17.75 47.85 17.85 47.9 17.9 47.95 17.9 48 17.95 48.2 18.05 48.35 18.1 48.4 18.15 48.55 18.15 48.6 18.2 48.75 18.2 48.7 18.25 48.65 18.3 48.65 18.35 48.55 18.45 48.55 18.5 48.5 18.6 48.5 18.9 48.55 19 48.65 19.1 48.75 19.25 48.75 19.35 Q 48.8 19.4 48.75 19.4 L 48.75 19.55 48.55 19.85 48.5 20 48.45 20.05 48.45 20.15 48.4 20.2 48.4 20.2 48.3 20.15 48.2 20.05 48.15 20.05 48 19.95 47.8 19.85 47.2 19.7 47 19.6 46.85 19.45 46.75 19.3 46.65 19.1 46.65 19 46.45 18.8 46.3 18.75 46.2 18.7 46.15 18.65 46.05 18.65 45.95 18.6 45.6 18.6 Q 45.45 18.6 45.45 18.7 L 45.45 18.75 45.5 19 45.55 19 45.55 19.1 45.65 19.2 45.65 19.25 45.8 19.4 45.9 19.55 46 19.6 46.05 19.6 46.15 19.65 46.25 19.65 46.65 19.75 46.7 19.75 46.8 19.85 46.9 19.9 47.15 20.4 47.25 20.55 47.55 20.85 47.55 20.9 47.6 20.9 47.6 20.95 47.65 21 47.75 21.05 47.8 21.1 47.9 21.15 47.95 21.15 48.25 21.25 48.3 21.3 48.4 21.3 48.55 21.35 48.8 21.35 48.7 21.55 48.65 21.6 48.65 21.7 48.6 21.9 48.55 22 48.55 22.1 48.5 22.3 48.5 22.95 48.75 23.7 48.75 24.3 48.55 24.95 48.5 25.25 48.45 25.4 48.45 25.55 48.4 25.85 48.4 26.55 48.45 26.7 48.5 26.95 48.5 27.15 48.55 27.2 48.55 27.25 48.6 27.35 48.65 27.55 48.65 27.6 48.75 27.8 48.25 27.6 45.8 26.85 45.45 26.8 45.15 26.7 39.4 25.95 35.5 24.85 33.8 24.65 33.55 24.6 32.4 24.55 32.2 24.6 32.15 24.6 Q 32.1 24.51015625 32.1 24.65 L 31.8 25.3 31.7 25.65 31.6 25.85 31.05 28.25 30.95 28.95 30.9 30.35 30.7 31.45 30.1 33.25 29.1 37.95 29 40.3 28.8 40.1 28.7 40.05 28.55 39.9 28.1 39.55 27.85 39.4 27.75 39.3 27.6 39.25 27.45 39.15 27.3 39.1 26.65 38.8 25.9 38.6 25.5 38.55 24.95 38.4 24.8 38.3 24.45 38.15 23.9 37.65 23.6 37.45 Q 23.45 37.3 23.05 37.2 L 22.8 37.1 22.75 37.1 22.65 37.05 22.55 37.05 22.35 37 22.25 36.95 21.8 36.95 21.9 36.75 21.9 36.7 21.95 36.65 21.95 35.7 21.9 35.6 21.9 35.45 21.85 35.45 21.85 35.4 21.75 35.2 21.7 35.05 21.55 34.75 21.25 34.35 21.15 34.15 21.15 33.7 21.2 33.45 21.2 33.35 21.25 33.25 21.2 33.2 21.2 33.05 21.15 32.85 21.05 32.7 20.95 32.6 20.9 32.45 20.8 32.35 20.6 32.2 Q 20.55 32.15 20.45 32.2 L 20.45 32.25 20.35 32.5 20.3 32.55 20.3 33.25 20.35 33.35 20.35 33.4 20.4 33.45 20.45 33.55 20.5 33.6 20.8 34 20.8 34.05 20.85 34.1 20.85 34.2 20.9 34.35 20.9 34.45 20.8 34.95 20.8 35.3 20.85 35.4 20.85 35.75 20.9 35.85 20.9 35.95 20.95 36.1 20.85 36.05 20.8 36.05 20.7 36 20.55 36 20.35 36.05 20.1 36.05 20 36 19.95 35.95 19.9 35.95 19.9 35.9 19.7 35.6 19.6 35.5 19.6 35.45 19.55 35.45 19.5 35.4 19.4 35.35 18.95 35.35 18.85 35.4 18.9 35.3 18.9 35.25 18.95 35.25 18.95 35.1 19 35.05 19 34.55 18.95 34.5 18.95 34.4 18.9 34.4 18.9 34.35 18.8 34.2 18.8 34.15 18.75 34.05 18.5 33.8 18.35 33.7 18.3 33.6 18.3 33.55 18.25 33.5 18.25 33.4 18.35 33.05 18.35 32.75 18.25 32.55 18.2 32.55 18.2 32.5 18.15 32.45 18.05 32.4 18.05 32.35 18 32.35 17.8 32.25 Q 17.65 32.1 17.65 32.3 L 17.55 32.5 17.5 32.55 17.5 32.7 17.45 32.75 17.45 32.9 17.5 33.05 17.5 33.15 17.55 33.15 17.95 33.55 18 33.65 18 33.8 17.9 34.15 17.9 34.65 17.85 34.65 17.8 34.6 17.55 34.6 17.4 34.65 17.05 34.65 17 34.6 16.95 34.6 16.95 34.55 16.85 34.45 16.75 34.3 16.7 34.2 16.65 34.15 16.6 34.15 16.55 34.1 16.45 34.05 16.25 34.05 16.15 34.1 16.05 34.1 15.85 34.2 Q 15.65 34.2 15.8 34.35 L 15.85 34.55 15.85 34.6 16 34.75 16 34.8 16.1 34.85 16.2 34.95 16.45 34.95 16.65 34.9 16.95 34.9 17.05 35 17.25 35.3 17.35 35.4 17.45 35.45 17.6 35.6 17.6 35.6 17.55 35.65 17.45 35.8 17.4 35.85 17.3 35.9 16.95 35.9 16.75 35.85 16.4 35.85 16.25 35.9 16.2 35.9 16.1 35.95 16.05 35.95 15.95 36 15.9 36.05 15.85 36.05 15.65 36.25 15.6 36.25 15.6 36.3 15.45 36.45 15.45 36.5 15.35 36.7 Q 15.2 36.85 15.4 36.85 L 15.6 36.95 15.7 36.95 15.8 37 16.25 37 16.35 36.95 16.5 36.95 16.55 36.9 16.6 36.9 16.6 36.85 16.75 36.75 16.8 36.75 16.9 36.7 17 36.55 17.15 36.4 17.25 36.25 17.35 36.2 17.4 36.2 17.5 36.15 17.75 36.15 17.95 36.2 18.25 36.2 18.35 36.1 18.45 36.05 18.5 36.05 18.5 36 18.65 35.85 18.65 35.8 18.7 35.65 18.75 35.8 18.75 35.85 18.9 36 18.9 36.05 19 36.15 19.1 36.2 19.15 36.25 19.9 36.25 20 36.35 20.1 36.5 20.2 36.7 20.35 36.85 20.45 36.9 20.55 37 20.55 37.05 20.6 37.05 20.6 37.05 20.55 37.1 20.5 37.15 20.45 37.15 20.35 37.2 20.3 37.3 20.1 37.5 19.95 37.7 19.9 37.7 19.85 37.75 19.65 37.85 19.5 37.9 19 37.9 18.75 37.95 18.65 38 18.3 38.1 18.2 38.1 18.2 38.15 17.7 38.4 17.55 38.5 17.45 38.65 17.4 38.65 17.15 38.9 17.15 38.95 17 39.2 Q 16.95 39.3 17 39.35 L 17.05 39.35 17.35 39.4 17.6 39.4 17.7 39.35 17.75 39.35 17.95 39.3 18.15 39.3 18.35 39.2 18.45 39.2 18.65 39.1 18.7 39.05 18.75 39.05 18.95 38.9 19.05 38.85 19.75 38.15 19.9 38.1 20 38.05 20.05 38 20.35 38 20.6 37.95 20.8 37.95 20.85 37.9 20.9 37.9 21.2 37.75 21.3 37.65 21.35 37.65 21.6 37.4 21.6 37.35 21.65 37.35 21.7 37.15 21.95 37.4 21.95 37.45 22 37.45 22.1 37.5 22.4 37.8 22.45 37.8 23.25 38.25 23.4 38.3 23.6 38.3 23.95 38.35 24.3 38.45 24.65 38.6 24.8 38.7 25 38.8 25.3 39 25.6 39.3 26.85 40.05 27 40.1 27.15 40.2 28.45 40.55 28.55 40.55 28.65 40.6 28.75 40.6 28.35 40.8 28.2 40.9 28.05 41.05 27.85 41.15 26.8 41.95 26.6 42.15 Q 26.4 42.25 26.35 42.35 L 25.85 42.75 25.6 43 25.4 43.3 23.85 44.95 19 48.65 17.05 50.7 16.95 50.85 16.8 50.95 16.4 51.45 Q 16.361328125 51.4884765625 16.35 51.55 16.323828125 51.576171875 16.35 51.6 L 16.35 51.7 17.1 52.45 17.5 52.75 17.7 52.95 19.85 54.55 22.05 55.75 22.8 56.25 28.35 60.55 32.05 62.65 31.85 62.7 31.8 62.7 31.75 62.75 31.6 62.8 31.4 62.9 31.25 62.95 31.15 63 31.1 63 30.8 63.15 30.05 63.7 29.6 64.2 28.7 64.9 28.5 65 28.05 65.15 26.45 65.95 25.45 66.65 24.5 67.55 24.4 67.6 24.35 67.7 24.1 67.95 24.05 67.85 23.75 67.55 23.65 67.5 23.5 67.4 23.45 67.35 23.35 67.3 23.3 67.25 23.2 67.25 23.1 67.2 23 67.2 22.8 67.15 22.2 67.15 21.95 67.2 21.85 67.15 21.75 67.15 21.7 67.1 21.65 67.1 21.25 66.7 21.15 66.65 21.1 66.6 21 66.55 20.85 66.55 20.7 66.5 20.65 66.5 20.55 66.55 20.35 66.55 20.1 66.65 Q 20 66.65 20.05 66.8 L 20.15 67 20.4 67.25 20.45 67.25 20.55 67.35 20.7 67.4 20.8 67.45 21.05 67.45 21.25 67.4 21.6 67.4 21.65 67.45 21.85 67.55 22.15 67.85 22.35 67.95 22.4 68 22.7 68.15 22.7 68.2 22.75 68.2 22.85 68.25 22.95 68.25 23 68.3 23.15 68.3 23.1 68.35 23.05 68.55 22.95 68.7 22.9 68.75 22.8 68.8 22.75 68.85 22.65 68.9 22.3 68.9 22.1 68.95 22 68.95 21.95 69 21.8 69.05 21.75 69.1 21.7 69.1 21.25 69.55 21.25 69.6 21.2 69.65 21.15 69.75 21.15 69.85 21.1 69.9 21.1 69.85 21.1 69.8 21.05 69.8 21 69.7 21 69.65 20.95 69.65 20.95 69.6 20.85 69.55 20.8 69.45 20.7 69.35 20.65 69.35 20.6 69.3 20.5 69.3 20.45 69.25 19.85 69.25 19.7 69.3 19.6 69.3 19.55 69.25 19.5 69.25 19.45 69.2 19.25 68.9 19.25 68.85 19.2 68.8 19.15 68.8 19.15 68.75 19.1 68.75 19 68.7 18.75 68.7 18.65 68.75 18.6 68.75 18.4 68.85 Q 18.2 68.85 18.35 69 L 18.4 69.2 18.4 69.25 18.5 69.35 18.5 69.4 18.55 69.4 18.55 69.45 18.75 69.55 18.8 69.6 19 69.6 19.3 69.5 19.35 69.5 19.35 69.55 19.45 69.55 19.55 69.65 19.65 69.8 19.75 69.9 19.85 70.05 19.95 70.15 20.05 70.2 20.15 70.3 20.3 70.3 20.35 70.35 20.3 70.5 20.3 70.55 20.25 70.6 20.2 70.6 20.15 70.65 19.6 70.65 19.5 70.7 19.45 70.7 19.35 70.8 19.3 70.8 19.3 70.85 19.25 70.9 19.2 71 19.2 71.1 19.15 71.1 19.15 71.25 19.1 71.3 19.1 71.5 Q 19.1 71.65 19.25 71.65 L 19.4 71.7 19.85 71.7 19.9 71.65 20 71.65 20 71.6 20.05 71.55 20.1 71.55 20.15 71.45 20.25 71.35 20.3 71.05 20.35 70.95 20.4 70.9 20.4 70.85 20.45 70.8 20.7 70.8 20.7 71 20.75 71.05 20.95 71.35 20.95 71.45 Q 21 71.5 20.95 71.5 L 20.95 71.65 20.85 71.85 20.75 72 20.7 72.15 20.65 72.2 20.65 72.3 20.6 72.45 20.6 72.8 20.65 72.85 20.7 73 20.7 73.1 20.8 73.2 20.85 73.3 20.85 73.35 21.05 73.55 Q 21.05 73.7 21.2 73.55 L 21.25 73.55 21.35 73.4 21.4 73.35 21.4 73.3 21.45 73.2 21.55 73.1 21.55 73 21.6 72.85 21.65 72.8 21.65 72.45 21.6 72.3 21.6 72.2 21.55 72.15 21.5 72 21.4 71.85 21.3 71.65 21.3 71.35 21.5 71.05 21.55 71 21.55 70.65 21.5 70.55 21.5 70.5 21.45 70.45 21.4 70.35 21.4 70.3 21.3 70.2 21.4 70.25 21.6 70.25 21.65 70.2 21.85 70.2 22 70.15 22.05 70.1 22.1 70.1 22.2 70.05 22.25 70 22.3 70 22.3 69.95 22.35 69.95 22.35 69.9 22.45 69.8 22.55 69.75 22.6 69.7 22.7 69.55 22.8 69.35 22.85 69.2 23.05 69 23.3 69 23.5 68.95 23.7 68.95 23.7 69.4 23.95 69.95 23.95 70.4 23.65 71.25 23.65 71.35 23.6 71.6 23.6 72.1 23.65 72.2 23.7 72.4 23.7 72.55 23.75 72.6 23.75 72.65 23.8 72.7 23.85 72.85 23.85 72.9 23.9 72.95 24.05 73.2 Q 24.05 73.35 24.2 73.2 L 24.25 73.2 24.35 72.95 24.4 72.9 24.4 72.85 24.45 72.7 24.5 72.65 24.5 72.6 24.55 72.55 24.55 72.4 24.6 72.2 24.65 72.1 24.65 71.6 24.6 71.35 24.6 71.25 24.3 70.4 24.3 69.95 24.55 69.4 24.55 68.9 24.5 68.75 24.5 68.65 24.45 68.6 24.4 68.45 24.4 68.35 24.35 68.35 24.25 68.15 24.6 68.1 26 67.5 27.9 66.15 28.05 65.95 28.4 65.65 28.7 65.3 28.9 65.15 29.05 65 30.3 64.45 30.5 64.4 31.3 63.9 31.75 63.45 31.95 63.3 32.05 63.2 32.05 63.15 32.2 63 32.25 65.8 33.15 70.75 33.7 78.35 34.6 82.4 Q 34.537890625 82.533203125 34.65 82.55 L 34.8 82.55 34.95 82.45 35.5 82.2 35.65 82.1 36.05 81.9 37.75 80.75 40.6 78.15 47 73.65 48.3 72.35 48.45 72.25 48.7 71.95 48.7 72 48.65 72.05 48.65 72.2 48.6 72.45 48.55 72.6 48.55 72.75 48.5 73.05 48.5 73.95 48.75 75 48.75 75.85 48.5 76.95 48.4 79 48.45 79.2 48.45 79.55 48.65 80.4 48.65 80.5 48.7 80.6 48.8 80.95 48.6 81 48.55 81 48.5 81.05 48.35 81.1 48.3 81.15 48.25 81.15 47.95 81.35 47.85 81.4 47.8 81.45 47.7 81.5 47.65 81.6 47.55 81.65 47.55 81.7 47.5 81.75 47.4 81.9 47.35 82 47.25 82.1 47.15 82.3 47.1 82.55 46.95 82.85 46.75 83.05 46.7 83.05 46.15 83.3 46.1 83.35 46.05 83.35 45.95 83.45 45.75 83.75 45.7 83.75 45.7 83.85 45.65 84 45.6 84.05 45.6 84.1 45.55 84.35 45.65 84.5 45.7 84.5 45.95 84.45 46 84.45 46.05 84.4 46.2 84.35 46.25 84.3 46.3 84.3 46.6 84.1 46.65 84 46.7 83.95 46.8 83.75 46.85 83.55 46.95 83.3 46.95 83.25 47 83.25 47.25 83 47.45 82.9 47.7 82.85 47.9 82.7 48.1 82.6 48.25 82.45 48.3 82.45 48.3 82.4 48.35 82.4 48.4 82.3 48.6 82.1 48.65 82.15 48.7 82.15 48.85 82.25 48.7 82.25 48.6 82.35 48.55 82.35 48.5 82.4 48.5 82.55 48.4 82.65 48.4 82.85 48.45 82.95 48.4 83 48.4 83.15 48.45 83.15 48.5 83.2 48.6 83.25 48.65 83.3 48.7 83.3 48.7 83.35 48.75 83.35 48.75 83.4 48.65 83.4 48.6 83.45 48.55 83.45 48.5 83.5 48.5 83.6 48.55 83.6 48.65 83.65 48.55 83.7 48.45 83.8 48.4 83.8 48.4 83.9 48.5 83.9 48.4 84 48.4 84.1 48.45 84.1 48.5 84.15 48.6 84.2 48.5 84.2 48.5 84.25 48.4 84.25 48.4 84.3 48.5 84.3 48.65 84.35 48.6 84.35 48.55 84.4 48.45 84.4 48.4 84.45 48.35 84.45 48.25 84.55 48.1 84.6 47.85 84.85 47.85 84.9 47.8 84.95 47.75 85.1 47.7 85.15 47.7 85.25 47.6 85.6 47.6 85.8 47.55 85.85 47.5 85.95 47.4 86.05 47.2 86.1 47.05 86.2 46.95 86.2 46.8 86.35 46.75 86.45 46.7 86.6 46.65 86.6 46.65 87.1 Q 46.65 87.25 46.8 87.25 L 47 87.2 47.05 87.2 47.1 87.15 47.2 87.15 47.25 87.1 47.3 87.1 47.6 86.8 47.6 86.65 47.65 86.45 47.65 86.25 47.75 86.15 47.8 86.05 47.85 86 48.2 85.9 48.4 85.8 48.5 85.7 48.65 85.6 48.65 85.55 48.7 85.55 48.7 85.5 48.85 85.55 48.7 85.6 48.55 85.75 48.55 85.8 48.5 85.85 48.5 86.05 48.75 86.3 48.75 86.5 48.45 86.8 48.45 86.85 48.4 86.95 48.4 87.2 48.45 87.2 48.5 87.3 48.5 87.35 48.7 87.55 48.85 87.65 49.05 87.65 49.35 87.35 49.35 87.3 49.4 87.2 49.45 87.2 49.45 86.95 49.4 86.85 49.4 86.8 49.1 86.5 49.1 86.3 49.35 86.05 49.35 85.85 49.3 85.8 49.3 85.75 49.15 85.6 49.05 85.55 49.35 85.5 49.4 85.45 49.45 85.45 49.4 85.4 49.25 85.4 49.35 85.35 49.4 85.3 49.5 85.3 49.65 85.35 49.7 85.4 49.75 85.4 49.8 85.45 49.85 85.55 49.9 85.6 49.95 85.8 49.95 86 50.05 86.15 50.05 86.2 50.1 86.3 50.2 86.4 50.2 86.45 50.45 86.7 50.5 86.7 50.65 86.8 50.75 86.85 50.8 86.85 50.85 86.9 51.05 86.9 51.25 86.95 Q 51.4 86.95 51.4 86.8 L 51.4 86.5 51.35 86.4 51.35 86.3 51.3 86.3 51.25 86.15 51.2 86.05 51.2 86 51.15 85.95 51.1 85.85 51 85.75 50.95 85.75 50.95 85.7 50.8 85.65 50.75 85.6 50.65 85.55 50.5 85.45 50.15 85.35 50.05 85.3 49.95 85.2 49.95 85.15 49.9 85.1 49.9 84.95 49.85 84.75 49.85 84.7 49.8 84.6 49.7 84.5 49.6 84.45 49.5 84.35 49.45 84.35 49.4 84.3 49.45 84.3 49.45 84.25 49.35 84.25 49.35 84.2 49.25 84.2 49.35 84.15 49.4 84.1 49.45 84.1 49.45 84 49.35 83.9 49.45 83.9 49.45 83.8 49.4 83.8 49.3 83.7 49.2 83.65 49.3 83.6 49.35 83.6 49.35 83.5 49.3 83.45 49.25 83.45 49.2 83.4 49.1 83.4 49.1 83.35 49.15 83.35 49.15 83.3 49.2 83.3 49.25 83.25 49.35 83.2 49.4 83.15 49.45 83.15 49.45 83 49.4 82.95 49.45 82.85 49.45 82.65 49.35 82.55 49.35 82.4 49.3 82.35 49.25 82.35 49.15 82.25 49.05 82.25 49.15 82.15 49.2 82.15 49.25 82.1 49.3 82.1 49.35 82.05 49.35 82 49.4 82 49.5 82.05 49.6 82.05 50 82.15 50.05 82.15 50.3 82.4 50.65 83.1 50.75 83.15 50.85 83.3 51.05 83.5 51.15 83.55 51.2 83.6 51.25 83.6 51.55 83.75 51.65 83.75 51.7 83.8 51.8 83.8 51.9 83.85 52.15 83.85 Q 52.3 83.85 52.3 83.75 L 52.3 83.7 52.25 83.5 52.2 83.45 52.2 83.35 52.15 83.25 52.1 83.2 52.1 83.15 51.9 82.85 51.8 82.75 51.75 82.65 51.65 82.6 51.6 82.55 51.55 82.55 51.5 82.5 51.35 82.4 51.15 82.3 50.55 82.15 50.35 82.05 50.3 81.95 50.25 81.9 50 81.4 49.95 81.35 49.95 81.3 49.85 81.2 49.7 81.1 49.6 81.05 49.5 81.05 49.45 81 49.35 81 49.3 80.95 49.05 80.95 49.15 80.6 49.2 80.5 49.2 80.4 49.4 79.55 49.4 79.2 49.45 79 49.35 76.95 49.1 75.85 49.1 75 49.35 73.95 49.35 73.05 49.3 72.75 49.3 72.6 49.25 72.45 49.2 72.2 49.2 72.05 49.15 72 49.1 71.8 49.85 72.35 57.65 76.05 63.6 79.4 64 79.55 64.35 79.75 66.95 80.75 67.15 80.85 67.4 80.9 68.2 81.15 68.25 81.2 Q 68.2751953125 81.2251953125 68.3 81.2 68.383203125 81.2748046875 68.4 81.2 68.4802734375 81.1818359375 68.4 81.1 L 68.45 80.9 68.45 80.25 68.5 80.05 68.5 79.55 68.45 79.3 68.4 78.05 68.35 77.7 68.35 77.3 67.5 72.75 66.9 64.65 66.25 62.1 66.3 62.1 66.75 62.55 66.8 62.55 67.05 62.75 67.6 63.1 67.95 63.2 68.3 63.35 68.7 63.45 69.4 63.85 70.45 64.85 71.55 65.6 71.7 65.65 71.9 65.75 72.95 66.15 73.05 66.15 73.15 66.2 73.45 66.25 73.4 66.45 73.4 66.55 73.35 66.7 73.35 67.5 73.4 67.6 73.4 67.7 73.45 67.75 73.55 67.95 73.6 68.1 73.75 68.4 73.9 68.55 74.05 68.75 74.15 68.95 74.15 69.4 74.1 69.65 74.1 70.05 74.15 70.2 74.25 70.35 74.25 70.4 74.3 70.4 74.4 70.6 74.5 70.7 74.7 70.85 Q 74.8 70.95 74.85 70.85 L 74.85 70.8 74.95 70.55 75 70.5 75 69.8 74.95 69.75 74.95 69.7 74.9 69.65 74.8 69.45 74.65 69.3 74.5 69.1 74.5 69.05 74.45 69 74.45 68.9 74.4 68.8 74.4 68.65 74.5 68.2 74.5 67.85 74.45 67.75 74.45 67.4 74.4 67.3 74.4 67.2 74.35 67.1 74.3 67.05 74.3 66.95 74.2 66.85 74.45 66.85 74.5 66.9 74.5 66.95 74.6 67.1 74.7 67.4 74.8 67.5 74.9 67.55 74.9 67.6 75 67.7 75.2 67.7 75.3 67.75 75.55 67.75 75.6 67.7 75.65 67.7 75.75 67.65 75.7 67.8 75.7 67.85 75.65 67.85 75.65 68.4 75.7 68.5 75.7 68.55 76.15 69 76.2 69.1 76.2 69.3 76.1 69.7 76.1 70.05 76.15 70.2 76.15 70.4 76.2 70.45 76.2 70.55 76.3 70.65 76.4 70.8 76.45 70.9 76.55 71 76.65 71.05 76.65 71.1 76.7 71.15 76.9 71.25 Q 77 71.35 77.05 71.2 L 77.15 71 77.15 70.95 77.2 70.9 77.2 70.65 77.25 70.55 77.25 70.3 77.2 70.25 77.2 70.05 77.15 70 77.15 69.95 77.1 69.9 77.05 69.75 77 69.7 76.95 69.6 76.85 69.45 76.7 69.3 76.55 69.2 76.45 69 76.45 68.85 76.5 68.65 76.5 68.45 76.55 68.4 76.55 68.35 76.75 68.35 76.8 68.4 76.85 68.4 77 68.55 77.1 68.7 77.15 68.85 77.25 69 77.3 69.05 77.35 69.15 77.45 69.25 77.5 69.25 77.5 69.3 77.55 69.3 77.6 69.35 77.65 69.35 77.7 69.4 77.75 69.4 77.85 69.45 77.95 69.45 78.05 69.5 78.4 69.5 78.55 69.45 Q 78.7 69.45 78.7 69.3 L 78.65 69.1 78.6 69.05 78.6 69 78.55 68.9 78.55 68.85 78.5 68.85 78.5 68.8 78.45 68.7 78.25 68.5 78.2 68.5 78.1 68.4 78.05 68.4 78.05 68.35 77.9 68.3 77.8 68.3 77.75 68.25 77.2 68.25 77.15 68.2 77.1 68.2 77 68.15 77 68.1 76.95 68.1 76.85 67.8 77 67.8 77.1 67.75 77.15 67.75 77.15 67.7 77.3 67.65 77.4 67.6 77.45 67.55 77.6 67.45 77.95 67.1 78.05 67.05 78.25 67.05 78.4 67.1 78.6 67.1 78.7 67.15 78.85 67.15 78.9 67.1 79.05 67.05 79.15 67 79.25 66.9 79.35 66.85 79.35 66.8 79.4 66.8 79.4 66.75 79.5 66.55 Q 79.55 66.5 79.45 66.4 L 79.25 66.3 79.2 66.25 78.65 66.25 78.6 66.3 78.5 66.3 78.45 66.35 78.4 66.45 78.25 66.55 78.1 66.7 78.1 66.75 78.05 66.75 77.95 66.8 77.8 66.8 77.4 66.7 77.05 66.7 76.85 66.75 76.7 66.75 76.65 66.8 76.55 66.8 76.45 66.9 76.3 67 76.2 67.05 76.1 67.15 76.05 67.25 76 67.25 75.95 67.3 75.9 67.35 75.9 67.3 75.85 67.25 75.85 67.15 75.8 67.1 75.8 67.05 75.75 67 75.7 66.9 75.55 66.75 75.5 66.75 75.45 66.7 75.4 66.7 75.3 66.65 75.15 66.65 75.05 66.6 74.85 66.65 74.65 66.65 74.6 66.6 74.55 66.6 74.5 66.55 74.4 66.3 74.6 66.25 74.65 66.25 74.7 66.2 74.75 66.2 74.85 66.15 74.9 66.05 75.05 65.9 Q 75.2 65.75 75.25 65.75 L 75.25 65.7 75.3 65.65 75.4 65.65 75.5 65.6 76.35 65.6 76.45 65.55 76.55 65.55 76.75 65.5 76.85 65.5 76.85 65.45 76.95 65.45 77.15 65.35 77.2 65.3 77.3 65.25 77.6 65.05 77.85 64.8 77.85 64.75 78 64.55 Q 78.1 64.5 78 64.4 L 77.95 64.4 77.7 64.35 77.65 64.3 77.3 64.3 77.15 64.35 76.85 64.35 76.75 64.4 76.65 64.4 76.6 64.45 76.5 64.5 76.45 64.5 76.4 64.55 76.1 64.7 76.05 64.75 75.85 64.9 75.5 65.25 75.2 65.4 74.85 65.4 74.65 65.35 74.45 65.35 74.4 65.4 74.35 65.4 74.25 65.45 74.1 65.5 73.95 65.6 73.7 65.85 73.7 65.9 73.6 66.05 73.35 65.8 73.3 65.7 72.65 65.1 71.45 64.3 71.1 64.15 70.95 64.05 70.75 63.95 69.55 63.55 69.4 63.45 68.85 63.15 68.6 62.85 68.3 62.6 68.2 62.45 67.45 62 67.2 61.9 67.15 61.85 67.05 61.85 66.7 61.7 66.6 61.7 66.55 61.65 66.5 61.65 66.35 61.6 66.85 61.35 67 61.2 67.2 61.1 68.75 59.85 69.05 59.65 72.45 56.2 74.55 54.7 79.45 50.05 79.9 49.45 Q 79.93828125 49.466796875 79.95 49.4 L 79.95 49.25 77.15 46.6 72.2 43.35 70.1 41.35 67.1 39.45 67.2 39.45 67.3 39.4 67.35 39.4 68.35 39 68.45 38.95 68.75 38.75 68.9 38.7 69.2 38.5 69.45 38.25 69.75 38.05 70.55 37.2 70.7 37.1 70.85 36.95 71.5 36.65 72.15 36.45 72.85 35.95 73.3 35.5 73.3 35.45 73.45 35.2 73.55 35.35 73.85 35.65 73.95 35.7 74.1 35.8 74.2 35.8 74.25 35.85 74.45 35.85 74.65 35.8 74.95 35.8 75.05 35.85 75.15 35.85 75.7 36.4 75.9 36.5 76.05 36.6 76.15 36.6 76.15 36.65 76.25 36.65 76.3 36.7 76.4 36.7 76.5 36.75 77.25 36.75 77.5 36.65 Q 77.6 36.65 77.6 36.5 L 77.55 36.5 77.45 36.3 77.05 35.9 76.9 35.85 76.85 35.8 76.75 35.75 76.7 35.7 76.6 35.65 76.45 35.65 76.4 35.6 76.25 35.6 76.15 35.55 75.6 35.55 75.4 35.6 75.25 35.55 75.2 35.55 75.1 35.5 75.05 35.5 74.7 35.15 74.65 35.05 74.55 35 74.6 34.95 74.7 34.8 74.8 34.7 75 34.4 75.05 34.25 75.15 34.15 75.25 34.1 75.3 34.05 75.85 34.05 76.1 33.8 76.1 33.75 76.15 33.65 76.2 33.6 76.2 33.55 76.25 33.6 76.25 33.65 76.35 33.75 76.35 33.8 76.4 33.8 76.55 33.95 76.85 33.95 77 33.9 77.3 33.9 77.4 33.95 77.45 34 77.65 34.3 77.85 34.5 78 34.6 78.05 34.65 78.1 34.65 78.15 34.7 78.25 34.7 78.3 34.75 78.7 34.75 78.8 34.7 78.9 34.7 79.1 34.6 Q 79.15 34.6 79.15 34.55 79.2 34.5 79.15 34.45 L 79.1 34.25 79.05 34.2 79 34.1 78.95 34.05 78.95 34 78.9 34 78.85 33.9 78.75 33.85 78.6 33.7 78.55 33.7 78.45 33.65 78.25 33.65 78.15 33.6 77.95 33.6 77.75 33.65 77.45 33.65 77.35 33.6 77.2 33.45 77.1 33.3 77.1 33.25 77.15 33.25 77.15 33.2 77.2 33.2 77.25 33.1 77.35 33 77.5 32.55 77.65 32.4 78.2 32.4 78.4 32.2 78.4 32.1 78.45 32 78.45 31.95 78.5 31.75 Q 78.5 31.6 78.35 31.6 L 78.2 31.55 77.8 31.55 77.7 31.65 77.65 31.65 77.65 31.7 77.6 31.75 77.6 31.8 77.5 32.1 77.5 32.15 77.45 32.15 77.35 32.25 76.85 32.25 76.75 32.3 76.7 32.3 76.7 32.1 76.65 31.95 76.65 31.85 76.6 31.75 76.55 31.6 76.45 31.45 76.35 31.25 76.35 30.9 76.55 30.6 76.6 30.5 76.6 30.35 Q 76.65 30.3 76.6 30.3 L 76.6 30.15 76.55 30.05 76.55 29.95 76.5 29.9 76.45 29.8 76.45 29.75 76.4 29.75 76.3 29.6 Q 76.2 29.45 76.1 29.55 L 76.1 29.6 75.95 29.75 75.9 29.75 75.9 29.8 75.85 29.9 75.8 29.95 75.8 30.05 75.75 30.15 75.75 30.5 75.8 30.6 76 30.9 76 31 Q 76.05 31.05 76 31.1 L 76 31.25 75.9 31.45 75.8 31.6 75.75 31.75 75.7 31.85 75.7 31.95 75.65 32.1 75.65 32.5 75.7 32.55 75.75 32.7 75.75 32.8 75.8 32.85 75.8 32.9 75.85 32.95 75.9 33.05 75.9 33.1 75.95 33.1 76 33.15 75.9 33.15 75.6 33.15 75.4 33.25 75.25 33.4 75.25 33.45 75.15 33.6 75.1 33.8 75 33.9 74.9 33.9 74.85 33.95 74.5 33.95 74.35 34 74.25 34 74.2 34.05 74.05 34.1 74 34.1 74 33.6 73.95 33.4 73.95 33.25 73.9 33.15 73.85 32.95 73.65 32.5 73.65 32.05 73.9 31.55 73.9 31.35 Q 73.95 31.3 73.9 31.3 L 73.9 31.1 73.85 30.95 73.85 30.9 73.75 30.7 73.75 30.6 73.7 30.6 73.6 30.4 Q 73.5 30.25 73.4 30.35 L 73.4 30.4 73.25 30.6 73.2 30.6 73.2 30.7 73.1 30.9 73.1 30.95 73.05 31.1 73.05 31.55 73.3 32.05 73.3 32.2 Q 73.35 32.25 73.3 32.3 L 73.3 32.5 73.1 32.95 73.05 33.15 73 33.25 73 33.4 72.95 33.6 72.95 34.1 73 34.15 73.05 34.35 73.05 34.5 73.1 34.55 73.2 34.75 73.2 34.8 73.25 34.85 73.35 35 73.05 35.05 73 35.05 72.95 35.1 72.85 35.1 72.55 35.25 72.45 35.25 71.7 35.7 70.95 36.5 70.35 36.9 69.1 37.35 68.95 37.45 68.6 37.6 68.3 37.8 68.2 37.9 67.9 38.1 67.8 38.15 67 38.95 66.95 39.05 66.85 39.15 66.9 38.75 66.8 36.2 66.3 33.35 65.6 31 65.45 28.05 65 25.8 64.9 25.6 64.8 25.25 64.55 24.65 64.55 24.6 64.25 24.6 64.2 24.55 64.05 24.55 63.95 24.6 63.85 24.6 M 60.6 26.4 Q 59.75 26.9 59.3 27.15 L 55.55 29.85 52.3 31.45 49.45 33.35 49.2 33.6 49.25 33.4 49.3 33.35 49.3 33.3 49.35 33.25 49.35 33.05 49.4 32.8 49.45 32.7 49.45 32.1 49.4 31.8 49.4 31.65 49.35 31.55 49.3 31.25 49.1 30.7 49.1 30.15 49.35 29.5 49.35 28.9 49.3 28.7 49.3 28.6 49.25 28.55 49.2 28.35 49.2 28.25 49.15 28.25 49.05 28.05 49.15 28.1 50.2 28.05 52.6 27.65 54.6 26.95 55.65 26.7 61 25.95 61.3 25.85 61.6 25.8 61.9 25.7 61.8 25.75 60.9 26.2 60.6 26.4 M 54.95 34.9 L 54.65 35.3 51.35 38.5 50 40.15 49.8 40.35 49.2 41.2 49.25 41.1 49.3 41 49.3 40.9 49.35 40.85 49.35 40.6 49.4 40.3 49.45 40.15 49.45 39.35 49.4 39 49.4 38.8 49.35 38.65 49.3 38.25 49.1 37.55 49.1 36.8 49.35 35.95 49.35 35.2 49.3 34.95 49.3 34.8 49.25 34.7 49.2 34.5 49.2 34.35 49.15 34.3 49.05 34 49.15 34 49.7 33.8 50.1 33.6 50.3 33.55 50.55 33.4 51.6 32.9 55.35 30.3 58.4 28.85 63.15 25.8 63.2 25.95 62.1 26.85 57.1 32.15 55.3 34.55 54.95 34.9 M 48.6 28.55 L 48.55 28.6 48.55 28.7 48.5 28.9 48.5 29.5 48.75 30.15 48.75 30.3 Q 48.8 30.35 48.75 30.4 L 48.75 30.7 48.55 31.25 48.5 31.55 48.45 31.65 48.45 31.8 48.4 32.1 48.4 32.7 48.45 32.8 48.5 33.05 48.5 33.25 48.55 33.3 48.55 33.35 48.6 33.4 48.65 33.6 48.65 33.65 41.95 29.6 41.5 29.45 39.05 28.35 38.3 27.9 36.6 26.65 35.6 26.1 35.3 25.9 34.7 25.6 35 25.7 37.4 26 Q 37.95 26 38.2 26.05 L 38.95 26.15 43.55 27.45 48.15 28.05 48.8 28.05 48.7 28.25 48.65 28.25 48.65 28.35 48.6 28.55 M 46.75 41.2 L 47 41.35 47.3 41.4 47.95 41.65 48 41.7 48.05 41.7 48.35 41.75 48.6 41.85 48.8 41.9 48.7 42.25 48.65 42.3 48.65 42.45 48.6 42.7 48.55 42.85 48.55 43 48.5 43.35 48.5 44.25 48.75 45.3 48.75 46.2 48.5 47.35 48.4 49.45 48.45 49.6 48.45 49.95 48.65 50.85 48.65 50.95 48.7 51.05 48.7 51.15 48.65 51.05 48.5 50.9 48.3 50.75 47.8 50.3 47.35 50 45.6 49.1 45.4 49.05 45.2 48.95 44.3 48.65 43.85 48.45 43.15 47.95 42.5 47.35 42.15 47.15 42 47.1 41.85 47 41.55 46.85 41.45 46.85 41.4 46.8 41.25 46.75 41 46.7 40.85 46.65 40.8 46.65 40.75 46.6 40.35 46.55 40.95 43.95 41.3 38.55 41.25 38.35 41.65 38.5 42.65 38.95 42.9 39.1 43.15 39.2 43.35 39.35 45.15 40.5 46.75 41.2 M 49.2 42.45 L 49.2 42.3 49.15 42.25 49.05 41.85 49.8 41.65 55.15 39.1 56.75 38 56.75 40 56.55 41.35 56.55 41.6 56.5 41.7 56.55 44.55 56.75 45.85 56.8 46.05 56.45 46.15 56.4 46.15 56.35 46.2 56.25 46.25 55.85 46.4 55.8 46.4 55.7 46.45 54.85 47 53.95 47.9 53.4 48.3 53.2 48.4 52.75 48.55 51.15 49.35 50.35 49.9 50.2 50.05 49.9 50.25 49.45 50.7 49.3 50.9 49.2 50.95 49.2 50.85 49.4 49.95 49.4 49.6 49.45 49.45 49.35 47.35 49.1 46.2 49.1 45.3 49.35 44.25 49.35 43.35 49.3 43 49.3 42.85 49.25 42.7 49.2 42.45 M 40.55 47.1 L 40.6 47.1 40.9 47.4 41.1 47.5 41.15 47.55 42.05 48.15 42.45 48.25 43.3 48.55 43.9 48.85 45.95 50.4 47.95 51.35 48.2 51.4 48.25 51.4 48.25 51.6 48.3 51.75 47.9 51.85 47.85 51.85 47.8 51.9 47.3 52.1 47.25 52.1 47.2 52.15 46.9 52.3 46.75 52.4 46.6 52.45 46.3 52.7 46.15 52.8 46 52.95 45.75 53.3 45.1 53.85 42 55.45 41.85 55.6 41.45 55.9 41 56.35 40.85 56.55 40.75 56.6 40.7 56.7 40.45 56.95 39.3 55.85 35.2 52.9 Q 34.8 52.6 34.7 52.6 L 33.55 51.9 33.85 51.6 34.1 51.45 34.3 51.25 34.95 50.75 35.2 50.6 35.35 50.55 35.45 50.45 38.3 48.65 39.35 47.7 39.55 47.55 39.95 47.15 40.15 46.9 40.3 46.75 40.55 47.05 40.55 47.1 M 60.45 43.2 L 60.35 43.3 60.3 43.4 60.1 43.6 59.95 43.85 59.85 43.95 59.75 44 59.65 44.1 59.5 44.15 59.2 44.2 58.65 44.4 58.55 44.45 58.4 44.5 58.2 44.65 57.95 44.75 57.85 44.85 57.75 44.9 57.7 45 57.6 45.05 57.45 45.25 57.4 45.3 57.85 44.35 59.95 38.1 60.7 34.7 61.5 32.45 61.9 31.65 62.5 30.05 63.35 26.3 63.35 26.1 63.5 26.15 63.7 26.15 63.7 26.1 63.8 26.1 63.85 26.05 63.85 26 63.9 26 63.9 25.95 63.85 25.9 63.85 25.6 63.9 25.6 63.95 25.55 64.05 25.55 63.9 26.3 Q 63.7 27 63.65 27.45 L 63.5 28.1 63.2 32.45 61.9 38.5 61.9 38.85 61.85 39.2 61.7 41.95 61.75 42.7 61.45 42.7 61.4 42.75 61.35 42.75 61.2 42.8 61.1 42.8 61.05 42.85 61 42.85 60.8 42.95 60.45 43.2 M 60.4 44.05 L 60.7 44 60.8 43.95 60.95 43.9 Q 61.1 43.85 61.3 43.65 L 61.45 43.5 61.5 43.5 61.5 43.45 61.55 43.35 61.75 43.15 61.75 43.1 61.85 42.9 62 43 62.7 43.4 64.8 44.35 68.3 45.3 75.15 48.15 75.1 48.15 74.6 48.05 66.3 47.3 59.1 46.05 58.2 46.05 57.95 46 57.85 46 57.95 45.95 58.15 45.9 58.35 45.8 58.45 45.7 58.55 45.65 58.75 45.5 59.05 45.2 59.15 45.15 59.55 44.7 59.7 44.45 59.9 44.25 60.05 44.2 60.1 44.15 60.15 44.15 60.4 44.05 M 60.45 47.9 L 60.2 47.8 58.05 46.55 58.4 46.65 66.75 47.65 74.5 49.1 79 49.35 78.6 49.45 78.35 49.55 77.7 49.65 76.3 50.05 70.8 52.2 62.25 54.65 61.85 54.85 59.1 55.95 58.85 56.1 58.6 56.2 58.55 56.2 58.85 56 59.05 55.8 59.25 55.65 59.4 55.45 59.6 55.3 60 54.9 60.15 54.7 60.5 54.35 61.55 52.85 61.65 52.75 61.7 52.6 61.85 52.4 62.75 51.45 63.55 50.8 Q 63.8 50.6 63.6 50.4 L 63.55 50.4 63.5 50.3 61.25 48.45 60.45 47.9 M 64.65 28.45 L 65.15 30.05 65.35 31.4 65.35 32.8 65.4 33.15 65.4 33.5 65.95 37.2 66.45 38.85 66.65 39.35 66.4 39.35 66.35 39.4 66.3 39.4 66.1 39.45 66.05 39.45 66 39.5 65.95 39.5 65.75 39.6 65.4 39.85 65.2 40.05 64.9 40.5 64.8 40.6 64.7 40.65 64.55 40.75 64.45 40.8 64.15 40.85 63.45 41.1 62.9 41.4 62.8 41.5 62.7 41.55 62.6 41.65 62.5 41.7 62.35 41.9 62.2 42.05 62.15 42.05 62.15 42.1 62.1 42.2 62.15 42.05 62.25 41.85 62.7 40 62.8 39.35 62.9 39 63.55 32.05 64.3 28.95 64.5 27.55 64.65 28.45 M 66.7 39.8 L 66.7 39.75 66.8 39.6 66.85 39.65 67.2 40.05 67.3 40.2 67.45 40.3 69.05 41.7 72 43.55 76.5 47.45 77.2 47.9 75.85 47.3 69.65 45.45 67.65 44.6 66.9 44.2 63.6 43.05 63.35 43 63.1 42.9 62.9 42.85 62.7 42.85 62.35 42.75 62.45 42.75 62.55 42.75 62.6 42.7 62.65 42.7 62.85 42.6 63.05 42.55 63.25 42.45 63.35 42.35 63.5 42.3 63.7 42.15 64 41.85 64.1 41.8 64.85 40.9 64.95 40.85 65 40.8 65.1 40.8 65.35 40.7 65.65 40.65 65.85 40.55 66.25 40.3 66.4 40.15 66.45 40.15 66.45 40.1 66.5 40 66.7 39.8 M 33.05 28.25 L 33.3 29.05 35.5 34.15 37.25 39.85 Q 37.65 41.15 37.9 41.7 L 39.45 45.3 39.75 45.85 39.8 45.95 39.75 45.9 39.75 45.85 39.55 45.75 39.35 45.55 39.25 45.5 39.15 45.4 39 45.35 38.9 45.25 38.35 45.05 38.2 44.95 37.75 44.8 37.1 44.7 36.95 44.65 36.55 44.4 36 43.85 35.85 43.75 35.2 43.4 35.1 43.4 35 43.35 34.8 43.35 34.75 43.3 34.35 43.3 34.35 39.35 33.1 31.4 33.05 28.25 M 32.9 61.65 L 32.85 61.75 32.6 62 32.6 62.05 32.55 62.05 32.45 62.25 32.35 62.35 32.3 62.5 29.25 59.9 23.35 56.25 20 53.6 24.5 55.15 29.9 57.8 35 59.65 35.25 59.7 35.5 59.8 35.9 59.85 35.85 59.9 35.75 59.9 35.7 59.95 35.55 60 35.4 60.1 35.3 60.15 35.25 60.15 35.25 60.2 35.1 60.35 35 60.55 34.85 60.75 34.75 60.85 34.45 61 33.95 61.1 33.35 61.4 33.25 61.4 33.25 61.45 33.05 61.55 33 61.6 32.9 61.65 M 35.05 61.05 L 35.3 61 35.5 61 35.7 60.9 35.8 60.9 35.9 60.85 36 60.7 36.15 60.6 36.15 60.55 36.15 60.55 35.6 65.1 35.6 69.1 34.65 77.3 33.45 70.7 33.35 67.6 32.75 63.7 32.65 63.5 32.5 62.9 32.45 62.75 32.75 62.75 32.9 62.7 33 62.7 33.05 62.65 33.4 62.55 33.5 62.5 33.55 62.45 33.85 62.3 33.85 62.25 33.9 62.25 34.4 61.75 34.55 61.55 34.65 61.35 34.85 61.15 34.95 61.1 35 61.1 35.05 61.05 M 39.75 57.15 L 39.6 57.2 39.45 57.3 39.35 57.35 39.2 57.5 39.05 57.8 38.9 58 38.75 58.15 38.55 58.25 37.8 58.4 37.4 58.6 37.35 58.65 37.3 58.65 37.15 58.8 37.05 58.85 37 58.9 36.95 59 36.8 59.1 36.7 59.25 36.65 59.3 36.55 59.5 36.45 59.6 36.35 59.8 35.2 59.1 30.3 56.8 28.45 56.15 28 55.95 25.1 55.05 24.6 54.85 21.05 53.1 22.9 53.5 24 53.6 39.1 57.1 39.4 57.1 39.8 57.15 39.75 57.15 M 38.9 58.4 L 39 58.35 39.05 58.3 39.1 58.3 39.6 58.2 39.7 58.15 39.8 58.15 39.85 58.1 39.95 58.05 40.1 57.9 40.1 58.15 40.2 58.35 40.3 58.5 40.4 58.7 40.45 58.75 40.45 59.1 40.4 59.3 40.3 59.5 40.25 59.7 40.25 59.8 40.2 59.9 40.2 60.4 40.25 60.45 40.25 60.65 40.35 60.8 40.4 60.95 40.4 61 40.45 61.05 40.5 61.15 40.6 61.25 40.7 61.4 40.6 61.6 40.25 62.5 40.15 62.7 40.05 63 39.9 63.25 39.2 65.35 37.9 70.9 35.6 77.6 35.85 69.65 36.55 64.3 36.55 63.9 36.6 63.5 36.55 60.2 36.5 60 36.85 60 37 59.95 37.1 59.95 37.15 59.9 37.5 59.8 37.55 59.75 37.85 59.6 38.15 59.3 38.25 59.25 38.3 59.15 38.75 58.55 38.9 58.4 M 38.05 79.4 L 37.85 79.55 40.6 75.85 46.05 70.15 48.5 66.85 48.5 67.4 48.55 67.5 48.75 68 48.75 68.5 48.55 69.05 48.5 69.3 48.45 69.45 48.45 69.55 48.4 69.8 48.4 70.4 48.45 70.5 48.5 70.7 48.5 70.9 48.55 70.95 48.55 71 48.6 71.05 48.65 71.2 48.65 71.25 48.8 71.5 48.15 71.85 48 71.95 47.8 72.05 44.1 74.6 39.75 78.4 38.05 79.4 M 62.3 59.95 L 62.45 60.05 62.55 60.1 62.6 60.1 62.65 60.15 62.85 60.15 63.3 60.25 63.4 60.25 63.5 60.3 63.6 60.4 63.7 60.45 64.15 61.05 64.25 61.1 64.3 61.2 64.5 61.35 64.55 61.4 64.85 61.55 64.9 61.6 65 61.6 65.35 61.7 65.4 61.7 65.45 61.75 66 61.75 66 65.5 67.2 72.8 67.4 76.35 67.25 75.9 66.15 73.15 63.6 63.25 62.3 59.95 M 61.8 59.25 L 61.8 59.25 61.95 60.2 61.95 60.45 64.05 68.25 65.85 73.25 66.2 75.25 66.05 74.8 64.65 72.25 60.45 61.7 58.35 57.6 58.4 57.65 58.45 57.65 58.55 57.7 58.65 57.7 58.9 57.75 59.15 57.75 59.2 57.8 59.25 57.8 59.45 57.9 59.5 58 59.8 58.4 60.05 58.65 60.15 58.7 60.35 58.9 60.4 58.9 60.45 58.95 60.85 59.15 61 59.15 61.15 59.2 61.2 59.25 61.8 59.25 M 48.65 52.15 L 48.6 52.05 48.65 52.1 48.65 52.15 M 48.4 51.9 L 48.55 52.2 48.6 52.25 48.6 52.45 48.55 52.6 48.55 52.75 48.5 53.05 48.5 54 48.75 55.1 48.75 56 48.5 57.15 48.4 59.3 48.45 59.5 48.45 59.85 48.65 60.75 48.65 60.85 48.7 60.95 48.8 61.3 48.35 61.45 47.4 61.8 47.3 61.85 46.5 62.15 46.4 62.25 46 62.4 45.8 62.55 45.3 62.8 43.9 63.7 43.7 63.9 43.45 64.05 42.6 64.75 41.6 65.3 41.45 65.35 41.55 64.9 41.55 64.2 41.5 64.05 41.5 63.8 41.45 63.55 41.45 63.4 41.4 63.25 41.35 63 41.35 62.85 41.3 62.75 41.2 62.2 41.15 62.05 41.1 61.95 40.9 61.4 Q 40.9583984375 61.3859375 40.9 61.35 L 41.05 61.2 41.05 61.15 41.1 61.1 41.15 61 41.15 60.9 41.2 60.85 41.2 60.7 41.25 60.55 41.25 60 41.2 59.85 41.1 59.65 41.05 59.45 40.9 59.25 40.8 59.05 40.8 58.95 40.75 58.85 40.75 58.7 40.8 58.65 40.85 58.45 40.95 58.25 40.95 58.2 41 58.1 41 57.9 40.9 57.6 40.9 57.55 40.85 57.5 40.8 57.4 40.75 57.35 40.75 57.3 40.6 57.15 40.95 57.1 42.45 56.4 42.6 56.35 43.95 55.35 45.05 54.25 45.25 54.1 46 53.7 46.4 53.6 46.8 53.4 47.4 53 47.85 52.6 48 52.4 48.1 52.35 48.15 52.3 48.15 52.25 48.4 51.9 M 49.25 66.5 L 49.2 66.4 53.15 69.85 55.8 71.6 Q 56.4 71.95 56.7 72.25 L 61.85 76.75 Q 62.95 77.65 63.5 78 L 64.25 78.55 64.05 78.45 Q 63.45 78.1 62.4 77.65 L 57.35 75.55 52.85 73 49.2 71.55 49.05 71.5 49.2 71.25 49.2 71.2 49.25 71.05 49.3 71 49.3 70.95 49.35 70.9 49.35 70.7 49.4 70.5 49.45 70.4 49.45 69.8 49.4 69.55 49.4 69.45 49.35 69.3 49.3 69.05 49.1 68.5 49.1 68 49.3 67.5 49.35 67.4 49.35 66.85 49.3 66.65 49.3 66.55 49.25 66.5 M 49.1 81.7 L 49.15 81.8 49.3 81.9 49.1 81.8 49.1 81.7 49.1 81.7 M 54.85 35.5 L 60.35 30.05 62.6 27.05 61.85 29.05 61.75 29.4 61.6 29.75 60.4 34.6 57.9 41.3 57.3 43.65 57.35 41.7 57.3 41.6 57.3 41.35 57.1 40 57.15 37.65 Q 57.2 37.45 56.95 37.35 L 56.85 37.4 56.8 37.4 51.7 39.8 50.65 40.45 52.6 38.45 54.85 35.5 M 48.1 33.8 L 48.8 34 48.7 34.3 48.65 34.35 48.65 34.5 48.6 34.7 48.55 34.8 48.55 34.95 48.5 35.2 48.5 35.95 48.75 36.8 48.75 37.55 48.55 38.25 48.5 38.65 48.45 38.8 48.45 39 48.4 39.35 48.4 40.15 48.45 40.3 48.5 40.6 48.5 40.85 48.55 40.9 48.55 41 48.6 41.1 48.65 41.3 48.65 41.3 48.05 40.5 Q 47.75 40.2 47.65 40 L 45.4 37.5 Q 45.2 37.25 44 36.05 L 39.1 31.55 35.75 27.65 34.2 26.25 34.9 26.7 39.3 28.8 46.1 32.9 Q 46.95 33.35 47.2 33.4 L 48.1 33.8 M 47.35 40.65 L 45.65 39.75 45.5 39.7 45.4 39.65 42.8 38.7 41.1 37.7 Q 40.85 37.6 40.75 37.8 L 40.7 37.9 40.7 37.95 40.05 42.8 40.1 45.3 40 45.1 38.9 41.35 35.6 33.55 33 26 32.9 25.8 34.5 27.65 38.9 31.75 44.65 38.2 47.35 40.65 M 54.95 47.9 L 55.15 47.8 55.3 47.75 55.65 47.55 55.9 47.3 Q 56.1 47.2 56.15 47.1 L 56.2 47.05 56.3 47 56.4 46.9 56.55 46.7 56.65 46.65 56.7 46.6 56.7 46.55 56.9 46.25 58.2 47.5 58.3 47.55 58.65 47.9 59.65 48.65 59.8 48.8 62.85 50.7 61.65 52.2 61.45 52.35 59.3 54.3 58.85 54.9 58.65 55.1 57.9 56.2 57.8 56.4 57.7 56.55 57.45 56.3 57.4 56.2 57.3 56.15 56.6 55.5 56.3 55.3 56.1 55.2 55.95 55.05 53.95 54.05 53.45 53.9 52.6 53.5 52.2 53.25 51.2 52.35 50.2 51.8 50.15 51.8 50.05 51.75 49.65 51.6 49.55 51.55 49.45 51.55 49.2 51.5 49.4 51.45 50.75 50.85 51.05 50.65 Q 51.35 50.55 51.75 50.2 L 53.1 49.05 53.4 48.7 54.15 48.2 54.95 47.9 M 32.05 27.5 L 32.05 27.65 32.9 32.3 32.9 32.75 32.95 33.15 33.25 39.1 33.3 39.45 33.4 39.8 33.95 42.6 34.05 42.95 34.05 42.95 33.95 42.8 33.85 42.7 33.85 42.65 33.5 42.4 33.4 42.35 33.3 42.25 33.1 42.15 32.9 42 32.65 41.9 32.5 41.9 32.1 41.75 31.5 41.65 31.4 41.6 31.25 41.55 31.15 41.5 30.65 41 30.6 40.9 30.5 40.8 30.1 40.6 29.9 40.55 29.85 40.5 29.7 40.5 29.55 40.45 29.2 40.45 29.45 39.9 29.5 39.7 30.25 37.25 31.05 31.15 31.9 28.45 32.05 27.5 M 29.2 40.85 L 29.2 40.9 29.5 41.2 29.7 41.35 30.05 41.55 30.2 41.6 30.3 41.6 30.85 41.7 30.95 41.75 31 41.75 31.1 41.8 31.25 41.9 32.05 42.7 32.4 42.9 32.6 43.05 32.8 43.15 32.95 43.2 33.05 43.25 33.25 43.3 33.45 43.4 33.65 43.4 33.7 43.4 33.2 43.55 33 43.65 32.75 43.7 30.65 44.55 26.95 46.6 21.85 48.55 Q 21.15 48.8 20.35 49.25 L 19.15 49.85 19.45 49.65 23.75 45.4 26.45 43.45 28.6 41.35 29.1 40.65 29.2 40.85 M 26.65 47.05 L 29.55 45.95 29.95 45.85 32.8 44.45 33 44.3 33.25 44.2 34.15 43.6 34.25 43.45 34.4 43.75 34.45 43.75 34.45 43.8 34.55 43.85 34.65 44 34.75 44.05 34.8 44.1 35 44.25 35.45 44.5 35.75 44.6 36.35 44.7 36.65 44.85 36.8 44.9 37.6 45.7 38.4 46.2 38.5 46.25 38.65 46.35 38.75 46.4 38.9 46.45 39.15 46.5 39.3 46.55 Q 39.2583984375 46.5916015625 39.2 46.6 L 38.95 46.65 38.65 46.65 34.65 47.35 31.65 48.25 20.45 50.3 20.8 50.2 26.65 47.05 M 35.75 48.05 L 39.05 47.15 37.3 48.25 35.1 50.25 35 50.3 34.8 50.5 34.35 50.85 34.1 51 34 51.1 33.85 51.15 32.9 51.75 Q 32.7 51.95 32.85 52.1 L 32.85 52.15 33.75 52.95 37.9 55.9 39.1 56.5 38.95 56.5 35.5 55.45 35 55.35 Q 33.15 54.9 33 54.9 L 25.15 53.45 23.1 52.75 17.65 51.6 17.75 51.6 18.05 51.6 30.6 48.8 35.75 48.05 M 38.35 70.5 L 39.85 66.45 40.6 63.45 40.6 63.9 40.65 64.15 40.65 64.4 40.75 64.95 40.85 65.2 41 65.75 41 65.8 Q 41.1 66.05 41.25 65.95 L 41.35 65.95 41.55 65.75 42.25 65.3 42.75 65.05 43.8 64.7 44.05 64.55 44.8 64.25 46.75 63.2 46.9 63.1 47 63 47.7 62.55 47.8 62.45 47.9 62.4 47.95 62.35 47.35 63.15 Q 47.25 63.3 46.35 64.4 L 40.4 73.8 35.75 80.35 Q 35.923046875 79.9369140625 36.1 79.3 L 36.65 77.75 38.35 70.5 M 38.65 77.4 L 38.9 76.9 46.35 66.15 48.4 62.65 48.5 62.4 48.5 62.55 48.75 63.05 48.75 63.45 48.55 63.9 48.5 64.1 48.45 64.2 48.45 64.3 48.4 64.5 48.4 65 48.45 65.1 48.5 65.25 48.5 65.4 48.55 65.45 48.55 65.5 48.6 65.55 48.65 65.65 48.65 65.75 48.7 65.8 48.8 65.95 48.15 66.55 47.95 66.7 46.35 68.25 40.7 75.3 38.55 77.5 38.65 77.4 M 76.3 51.85 L 71.6 56.55 68.45 58.95 67.1 60.25 66.8 60.65 66.5 60.95 66.15 61.45 66.1 61.5 66 61.35 66 61.3 65.8 61.1 65.8 61.05 65.45 60.7 65.35 60.65 65.3 60.6 65.1 60.5 65.1 60.45 65 60.45 64.7 60.3 64.6 60.3 64.35 60.2 64.1 60.2 63.85 60.15 63.55 60 63.5 59.95 63.5 59.9 63.35 59.75 63.2 59.55 63.15 59.45 63.05 59.4 63.05 59.35 63 59.3 62.9 59.25 62.6 59.15 62.55 59.15 62.5 59.1 62.4 59.1 62.75 58.95 62.95 58.9 63.2 58.8 69.25 55.3 69.7 55.1 70.1 54.85 74.45 52.9 76.3 51.85 M 71.95 52.15 L 74.4 51.6 75.1 51.3 69.1 55.05 65.85 56.5 65.15 56.9 64.8 57.05 62.7 58.4 62.55 58.55 62 58.95 61.9 59 61.8 58.85 61.8 58.8 61.6 58.6 61.6 58.55 61.55 58.55 61.45 58.4 61.3 58.3 61.25 58.2 61.2 58.15 60.9 58 60.85 58 60.8 57.95 60.6 57.9 60.4 57.8 59.7 57.65 59.6 57.65 59.4 57.55 59.3 57.45 59.05 57.1 59 57 58.9 56.9 58.85 56.9 58.85 56.85 58.75 56.8 58.45 56.7 59 56.6 59.25 56.5 61.35 56 71.95 52.15 M 52.65 53.9 L 52.8 54.05 53.2 54.35 53.55 54.7 53.75 54.85 53.9 55 54.7 55.5 Q 55 55.8 55.4 55.95 L 57 56.65 57.1 56.65 57.65 56.8 57.45 57.65 57.3 59.1 57.25 59.35 57.3 63.85 57.25 63.85 56.7 63.75 56.4 63.65 56.25 63.65 56.15 63.6 55.85 63.55 55.55 63.45 53.1 62.35 53.05 62.3 52.1 61.95 51.8 61.9 51.25 61.7 49.25 61.3 49.05 61.3 49.15 60.95 49.2 60.85 49.2 60.75 49.4 59.85 49.4 59.5 49.45 59.3 49.35 57.15 49.1 56 49.1 55.1 49.35 54 49.35 53.05 49.3 52.75 49.3 52.6 49.25 52.45 49.2 52.15 49.2 52 49.15 51.95 49.1 51.85 49.2 51.95 49.2 52 49.25 52.05 49.35 52.1 49.55 52.3 49.7 52.4 49.8 52.5 50.95 53.2 51.15 53.25 52.45 53.75 52.65 53.9 M 58.2 59.35 L 58.15 59.1 58.05 58.15 59.7 62.6 64.35 72.4 67 79 67.55 80 64.95 76.95 56.9 69.3 54.1 66.05 53.9 65.85 53.75 65.65 50.7 62.7 50.15 62.25 49.95 62.05 49.75 61.9 51 62.5 52.8 63.1 52.85 63.1 52.9 63.15 54.35 63.4 54.65 63.5 54.9 63.55 56.3 64.05 56.55 64.2 57.6 64.7 Q 58 64.8 58.05 64.5 L 58.1 64.4 58.1 64.3 58.15 64.1 58.15 63.85 58.2 63.35 58.2 59.35 M 49.6 62.4 L 49.75 62.65 53.3 66.45 53.55 66.65 62.85 76.3 50.4 66.75 50.15 66.55 49.9 66.45 49.05 65.95 49.15 65.8 49.2 65.75 49.2 65.65 49.25 65.55 49.3 65.5 49.3 65.45 49.35 65.4 49.35 65.25 49.4 65.1 49.45 65 49.45 64.5 49.4 64.3 49.4 64.2 49.35 64.1 49.3 63.9 49.1 63.45 49.1 63.05 49.35 62.55 49.35 62.05 49.6 62.4 Z"></path></g></defs><g transform="matrix( 1, 0, 0, 1, 0,0) "><use xlink:href="#a"></use></g></svg>