<svg xmlns="http://www.w3.org/2000/svg" xmlns:xlink="http://www.w3.org/1999/xlink" version="1.1" x="0px" y="0px" viewBox="0 0 100 100" enable-background="new 0 0 100 100" xml:space="preserve"><path fill="#cc2200" d="M70.37,18.849c-2.189,0-4.12,1.075-5.308,2.726c-1.098-4.459-2.284-8.623-2.578-8.988  c-1.513-1.356-5.864-4.188-9.039-6.196c1.638-1.234,2.632-1.986,2.632-1.986s-1.664-2.32-2.323-2.215  c-0.131,0.021-1.349,0.937-3.21,2.385c-0.438-0.271-0.695-0.428-0.695-0.428s-2.122-0.694-2.859,0.546  c-0.471,0.789,0.049,1.717,0.489,2.29c-4.383,3.463-10.258,8.172-14.931,11.929l-2.719-3.775c-0.599-0.831-1.758-1.019-2.588-0.421  l-3.51,2.529c-0.83,0.598-1.019,1.757-0.421,2.587l2.973,4.127c-0.926,0.747-1.476,1.191-1.476,1.191s-1.225,2.111-0.836,2.677  c0.078,0.113,1.419-0.765,3.495-2.225l2.254,3.129c0.598,0.831,1.758,1.02,2.589,0.421l3.508-2.528  c0.831-0.598,1.02-1.757,0.421-2.587l-2.259-3.137c5.22-3.828,11.435-8.474,15.943-11.86c2.882,2.247,7.938,6.272,8.111,7.002  c0.241,1.021,1.021,10.132-2.453,15.101L53.43,34.28l-9.772,13.316c-0.535,0.72-1.137,1.456-1.764,2.39  c-0.032,0.055-1.812,3.325-1.856,3.382L39.109,70.52L31.94,91.805c0,0-0.853,2.967,1.736,3.879c2.589,0.912,4.182-1.047,4.459-1.813  c0.731-2.555,7.114-19.207,7.564-20.395c1.056-2.84,1.188-3.744,1.226-6.996c0.039-3.248,0.185-8.641,0.185-8.641  c0.605,0.672,9.537,15.842,9.537,15.842c0,0.031-0.904,18.941-0.904,18.941c0,3.061,0.671,3.729,3,4.102  c2.107-0.102,3.609-1.152,3.609-4.215l1.322-17.141c0,0,0.301-5.418-1.396-7.336c-1.897-3.122-8.44-14.117-8.793-14.346  l10.384-14.029c0,0,2.8-4.698,3.212-7.062c0.054-0.306,0.025-0.86-0.064-1.586c0.981,0.587,2.126,0.93,3.354,0.93  c3.61,0,6.537-2.922,6.537-6.538C76.907,21.77,73.98,18.849,70.37,18.849z"></path></svg>