<svg xmlns="http://www.w3.org/2000/svg" xmlns:xlink="http://www.w3.org/1999/xlink" version="1.1" x="0px" y="0px" viewBox="0 0 100 100" enable-background="new 0 0 100 100" xml:space="preserve"><g><path fill="#000000" d="M51.908,63.986c0.321,0,0.462-0.219,0.456-0.541c-0.006-0.292-0.195-0.43-0.46-0.466   c-0.323-0.046-0.592,0.022-0.608,0.304C51.275,63.605,51.585,63.986,51.908,63.986z"></path><path fill="#000000" d="M50.354,62.979c-0.267,0.036-0.455,0.174-0.461,0.466c-0.009,0.322,0.127,0.541,0.452,0.541   s0.636-0.381,0.614-0.703C50.938,63.002,50.674,62.932,50.354,62.979z"></path><path fill="#000000" d="M53.005,37.333c-0.178,0.11-0.258,0.233-0.295,0.276l2.56-0.05c0,0-0.146-0.251-0.997-0.392   c-0.155-0.023-0.295-0.033-0.419-0.034c0.786-0.246,1.022-0.427,1.718-0.204c0.443,0.144,0.709,0.501,0.709,0.501   s-0.762-1.594-1.872-1.211c-0.991,0.344-0.604,0.231-1.501,0.527c-0.688,0.227-1.145-0.05-1.145-0.05S52.105,37.397,53.005,37.333z   "></path><path fill="#000000" d="M49.885,43.999c-0.439,0-0.912-0.138-0.912-0.138s0.254,0.707,2.146,0.686   c1.894,0.021,2.146-0.686,2.146-0.686s-0.473,0.138-0.909,0.138H49.885z"></path><path fill="#000000" d="M45.99,37.432c0,0,0.263-0.357,0.708-0.501c0.694-0.225,0.929-0.042,1.715,0.204   c-0.126,0.001-0.265,0.011-0.418,0.034C47.142,37.31,47,37.561,47,37.561l2.56,0.05c-0.04-0.043-0.119-0.166-0.297-0.276   c0.9,0.062,1.245-0.638,1.245-0.638s-0.462,0.277-1.147,0.051c-0.894-0.296-0.508-0.183-1.501-0.527   C46.748,35.838,45.99,37.432,45.99,37.432z"></path><path fill="#000000" d="M97.501,46.368l2.043-1.785l-1.257-0.177l-2.14,1.761l1.569-1.841l-4.803-0.674l-2.033,1.776l-3.362-0.473   c-0.299-0.379-0.646-0.743-1.029-1.078c1.037,0.227,1.944,0.598,2.657,1.062c-0.558-1.363-2.282-2.429-4.44-2.601   c-0.02-0.041-0.038-0.082-0.055-0.122c1.584,0.011,3.062,0.327,4.299,0.881c-1.189-1.673-3.461-2.745-5.955-2.716l-0.049-0.051   c1.102-0.497,2.332-0.739,3.539-0.723c-1.457-0.644-3.148-0.811-4.622-0.458c-0.292-0.401-0.673-0.722-1.12-0.915   c2.432-0.059,4.792,0.403,6.502,1.24c-1.361-1.685-4.338-2.772-7.334-2.752c-0.23-0.234-0.506-0.451-0.818-0.648l2.805-2.275   l2.637,0.474l3.768-3.053l0.447-0.364l0.986-0.797l-2.65-0.475c0.409-0.492-0.195-1.231-0.761-0.92l0.085-2.71l-0.984,0.799   l-0.174,2.766l-0.275-2.403l-3.769,3.053l-0.087,2.696l-3.233,2.619c-0.175-0.067-0.354-0.13-0.538-0.186   c-0.515-0.419-1.211-0.813-2.036-1.152c1.344-0.188,2.628-0.178,3.685,0.028c-1.273-0.909-3.605-1.169-5.843-0.72   c-0.742-0.181-1.533-0.32-2.349-0.408c-0.99-0.106-1.922-0.126-2.764-0.072l2.277-3.251l2.661-0.273l2.783-3.973l0.33-0.473   l0.729-1.039l-2.678,0.273c0.257-0.585-0.528-1.129-0.988-0.673l-0.664-2.63l-0.728,1.039l0.598,2.708l-0.929-2.235l-2.782,3.974   l0.663,2.617l-2.825,4.031c-1.967-0.443-3.952-0.719-6.016-0.887c3.611-0.8,8.215-2.537,4.845-5.908   c-7.438-7.435-1.834-14.564-1.834-14.564s-7.512,5.288-1.442,14.25c2.74,4.052-8.898,3.088-8.898,3.088   c-0.55-0.148-1.126-0.238-1.717-0.263c-0.059-0.11-0.173-0.185-0.308-0.185c-0.132,0-0.25,0.074-0.304,0.185   c-0.604,0.023-1.19,0.114-1.75,0.264c-0.046,0.003-0.248,0.02-0.56,0.038l-0.189-2.731l1.997-1.985l-0.354-5.053l-2.032,1.491   l1.99-2.092l-0.092-1.321l-2.01,1.997c-0.164-0.654-1.161-0.589-1.246,0.073l-2.247-1.685l0.091,1.321l0.041,0.601l0.352,5.054   l2.236,1.673l0.19,2.709c-3.164,0.075-9.095-0.162-7.053-3.178c6.065-8.962-1.443-14.25-1.443-14.25s5.6,7.13-1.833,14.564   c-3.374,3.373,1.238,5.109,4.848,5.909c-2.013,0.165-3.951,0.431-5.871,0.856l-0.742-1.101l0.701-2.582l-2.715-4.021l-0.321-0.479   l-0.71-1.051l-0.706,2.599c-0.455-0.45-1.245,0.088-0.982,0.678l-2.693-0.322l0.708,1.052l2.745,0.414l-2.421,0.065l2.713,4.021   l2.679,0.321l0.242,0.358c-0.888-0.07-1.886-0.057-2.947,0.058c-0.816,0.088-1.606,0.226-2.35,0.407   c-0.747-0.15-1.503-0.221-2.229-0.215l-0.999-2.904l1.343-2.312l-1.578-4.587l-0.185-0.545l-0.416-1.199l-1.353,2.328   c-0.324-0.551-1.224-0.236-1.124,0.402l-2.518-1.01l0.414,1.2l2.542,1.108l-2.355-0.563l1.58,4.587l2.505,1.003l0.891,2.585   c-0.939,0.135-1.768,0.418-2.362,0.843c0.77-0.149,1.659-0.195,2.602-0.138l0.183,0.53c-0.438,0.23-0.82,0.478-1.135,0.733   c-1.062,0.332-1.969,0.822-2.56,1.427c-0.109,0-0.218,0-0.327,0.002l-1.011-1.554l0.746-2.568l-2.644-4.068l-0.313-0.483   l-0.692-1.064l-0.75,2.586c-0.446-0.458-1.243,0.067-0.991,0.662l-2.689-0.369l0.689,1.062l2.736,0.461l-2.42,0.024l2.642,4.068   l2.674,0.368l0.636,0.981c-2.367,0.312-4.52,1.284-5.62,2.646c1.71-0.837,4.07-1.299,6.504-1.241   c-0.447,0.193-0.832,0.513-1.123,0.916c-1.473-0.354-3.163-0.187-4.623,0.458c1.207-0.015,2.44,0.225,3.539,0.723l-0.046,0.051   c-2.495-0.03-4.771,1.042-5.955,2.716c1.232-0.555,2.715-0.872,4.297-0.881c-0.019,0.04-0.037,0.08-0.053,0.122   c-1.581,0.125-2.927,0.729-3.756,1.578l-3.25-0.574l-1.551-2.599l-5.407-0.953l-0.645-0.113l-1.413-0.25l1.562,2.617   c-0.725,0.018-0.907,1.083-0.22,1.334l-2.383,1.94l1.415,0.25l2.491-1.909l-1.85,2.021l5.409,0.954l2.37-1.93l4.07,0.718   c-0.26,0.391-0.471,0.792-0.623,1.196c-0.983,0.548-1.721,1.357-2.064,2.294c0.889-0.668,2.074-1.157,3.419-1.363   c-1.657,1.476-2.748,3.304-2.732,4.728c0.537-1.039,1.458-2.156,2.627-3.183c-1.084,2.232-1.567,4.521-1.322,6.342   c0.5-1.557,1.29-3.22,2.326-4.839c-0.758,2.346-0.629,4.883,0.338,6.084c-0.323-1.707-0.005-4.174,0.937-6.456   c0.005-0.011,0.03-0.019,0.072-0.029c-0.52,1.873-0.382,3.943,0.279,5.808c-0.064,0.261-0.138,0.53-0.218,0.81   c-0.114,0.39-0.245,0.8-0.394,1.235c-0.463,1.366-0.522,2.839-0.305,4.338l-1.977,0.453l-2.272-1.663l-4.936,1.141l1.79,1.775   l-2.376-1.641l-1.291,0.298l2.287,1.673c-0.622,0.265-0.401,1.237,0.268,1.219l-1.313,2.484l1.292-0.297l0.584-0.137l4.935-1.139   l1.305-2.471l1.947-0.449c0.974,4.064,3.709,8.123,5.637,10.488v0.004c0.578,0.707,1.082,1.264,1.444,1.625   c-0.481,4.662,5.832,5.812,8.805,3.617c2.878,0.67,5.335-1.323,2.699-3.904c0.177-0.522,0.104-0.969-0.128-1.34l-0.001-0.002   c-0.756-1.217-3.227-1.643-4.39-1.26c-1.001-0.455-3.933-9.888-2.15-16.049l-0.004-0.002c0.318-1.105,0.789-2.104,1.45-2.929   c1.203-1.497,3.728-1.897,4.747-0.325c0.209,0.323,0.412,0.646,0.605,0.967l0.084,0.152c0.102,1.145,0.779,2.135,0.779,2.135   c0.183,0.275,0.607,0.887,1.019,1.367c0.055,0.122,0.105,0.245,0.153,0.363l0.03,0.069c1.618,4.007,1.83,7.487,1.555,10.583   l-0.827-0.582l-0.273-2.658l-3.975-2.782l-0.472-0.33l-1.041-0.728l0.275,2.676c-0.585-0.254-1.129,0.531-0.676,0.988l-2.628,0.665   l1.037,0.726l2.71-0.594l-2.234,0.924l3.974,2.783l2.615-0.66l1.359,0.951c-0.136,1.006-0.31,1.973-0.491,2.902   c-0.041,0.219-0.084,0.438-0.126,0.648l-0.001,0.006c-0.918,4.621-1.864,8.787,2.451,12.413c-0.962,0.228-9.297,1.21-7.281,3.655   c1.02,1.238,4.977,0.604,6.018,0.203c2.668-1.023,1.93-1.234,5.37-1.846c1.131-0.33,1.772-1.391,0.642-2.27   c-6.148-4.78-0.448-11.555,5.405-11.572c5.854,0.014,11.56,6.79,5.409,11.572c-1.132,0.879-0.49,1.939,0.637,2.27   c3.442,0.611,2.705,0.824,5.373,1.846c1.041,0.4,4.998,1.035,6.018-0.203c2.018-2.445-6.318-3.428-7.281-3.655   c4.314-3.626,3.369-7.792,2.453-12.419H63.73c-0.045-0.215-0.089-0.432-0.13-0.648c-0.801-4.143-1.508-8.981,0.969-15.008   c0.035-0.055,0.066-0.125,0.098-0.195c0.051-0.124,0.113-0.271,0.195-0.439c0.283-0.354,0.527-0.692,0.73-1.018l-0.006-0.008   c0.393-0.64,0.636-1.242,0.736-1.84l0.189-0.361c0.209-0.349,0.428-0.695,0.657-1.049c1.017-1.572,3.544-1.172,4.745,0.325   c0.661,0.823,1.131,1.823,1.45,2.927l0.006,0.006c1.784,6.161-1.148,15.592-2.15,16.049c-1.16-0.385-3.633,0.043-4.392,1.26h0.001   c-0.231,0.373-0.3,0.818-0.12,1.338c-2.639,2.583-0.186,4.576,2.693,3.906c2.974,2.195,9.285,1.045,8.804-3.619   c0.365-0.361,0.868-0.916,1.446-1.625h-0.002c2.041-2.506,4.984-6.909,5.791-11.209l1.454-0.741l2.478,1.009l5.965-3.04   l-2.492-1.015c0.502-0.396,0.065-1.244-0.552-1.059l0.647-2.634l-1.131,0.574l-0.741,2.672l0.226-2.407l-4.32,2.201l-0.646,2.621   l-0.698,0.355c0.076-1.174-0.041-2.322-0.404-3.401c-0.146-0.437-0.281-0.851-0.396-1.237l-0.008-0.006   c-0.08-0.279-0.154-0.547-0.219-0.806c0.663-1.866,0.797-3.937,0.283-5.812c0.041,0.014,0.062,0.02,0.068,0.031   c0.941,2.282,1.26,4.749,0.936,6.458c0.963-1.203,1.097-3.74,0.342-6.088c1.035,1.621,1.823,3.282,2.32,4.841   c0.246-1.821-0.236-4.111-1.322-6.342c1.17,1.026,2.096,2.144,2.631,3.181c0.014-1.421-1.076-3.25-2.734-4.727   c1.346,0.208,2.529,0.697,3.42,1.362c-0.343-0.935-1.078-1.743-2.064-2.292c-0.04-0.105-0.082-0.212-0.131-0.317l2.377,0.334   l1.449,2.247l4.801,0.676l0.575,0.081l1.255,0.176l-1.46-2.261C97.985,47.517,98.117,46.569,97.501,46.368z M15.75,43.884   c-0.123,0.105-0.237,0.213-0.35,0.323l-0.52-0.092C15.158,44.027,15.449,43.949,15.75,43.884z M3.078,42.97   c-0.153-0.027-0.211-0.125-0.188-0.267c0.026-0.141,0.114-0.213,0.266-0.186l10.281,1.813c-0.096,0.136-0.183,0.275-0.255,0.421   L3.078,42.97z M13.358,44.781c0.212-0.124,0.441-0.239,0.682-0.346l0.979,0.172c-0.121,0.134-0.232,0.27-0.34,0.408L13.358,44.781z    M15.92,45.936c-0.457,0.056-0.891,0.157-1.299,0.303c0.23-0.219,0.477-0.432,0.735-0.636l0.604,0.105   C15.946,45.785,15.931,45.859,15.92,45.936z M16.074,45.26l-0.208-0.036c0.096-0.065,0.192-0.13,0.289-0.194   C16.126,45.105,16.1,45.184,16.074,45.26z M26.987,34.855l0.01,0.027l-0.189,0.02L26.987,34.855z M26.768,34.217   c-0.127,0.055-0.254,0.11-0.373,0.168l-0.109-0.312c0.149,0.014,0.298,0.03,0.446,0.049L26.768,34.217z M26.015,33.284   l-3.053-8.868c-0.045-0.131,0.007-0.218,0.126-0.259c0.12-0.041,0.213-0.004,0.259,0.126l3.086,8.97   C26.293,33.261,26.153,33.271,26.015,33.284z M26.503,35.949l0.024,0.069c-0.892,0.186-1.716,0.483-2.394,0.862l-0.071-0.012   c-0.515-0.081-1.036-0.126-1.557-0.138C23.619,36.287,25.021,36.01,26.503,35.949z M21.069,36.784l-4.32-6.65   c-0.075-0.116-0.048-0.212,0.059-0.281c0.108-0.069,0.207-0.057,0.281,0.06l4.439,6.836C21.375,36.756,21.221,36.769,21.069,36.784   z M18.543,66.06c-0.351-0.854-0.644-1.721-0.851-2.587l2.473-0.57c0.001-0.147,0.008-0.293,0.018-0.44L8.26,65.215   c-0.14,0.033-0.224-0.031-0.252-0.16c-0.029-0.129,0.019-0.221,0.159-0.254l12.044-2.78c0.011-0.149,0.026-0.298,0.042-0.446   l-2.801,0.648c-0.192-1.366-0.134-2.699,0.282-3.926c0.139-0.406,0.262-0.797,0.371-1.178c0.602,1.222,1.444,2.301,2.479,3.109   c-0.545-1.019-0.932-2.181-1.141-3.408l-0.004-0.002c-0.326-1.914-0.221-3.986,0.39-5.926c0.071,0.222,0.183,0.413,0.323,0.562   c-0.402,1.723-0.204,3.629,0.532,5.361l0.036,0.074c0.45,1.061,1.068,1.99,1.904,2.842c-0.348-0.919-0.56-1.906-0.619-2.912   l-0.005-0.002c-0.085-1.407,0.122-2.855,0.631-4.213c-0.082,1.396,0.204,2.857,0.85,4.211l0.067,0.137   c0.321,0.672,0.672,1.188,1.169,1.789c-0.172-0.624-0.277-1.267-0.308-1.922h-0.006c-0.067-1.297,0.146-2.619,0.635-3.863   c-0.009,0.09-0.018,0.178-0.025,0.273c-0.096,1.237,0.05,2.494,0.37,3.586c0,0,0.54,1.965,1.811,2.887   c-0.42-0.766-0.946-2.885-0.946-2.885c-0.189-1.088-0.256-2.293-0.168-3.497l0.075,0.026c0.069,1.296,0.311,2.49,0.713,3.469   l0.005,0.004c0.26,0.631,0.587,1.172,0.974,1.592c-0.286,1.96-0.274,4.123-0.065,6.189c-0.685,0.934-2.235,1.858-4.17,2.239   C21.23,67.305,19.55,66.709,18.543,66.06z M28.109,56.816l0.004,0.006c0.007,0.031,0.016,0.062,0.027,0.09   c-0.115,0.466-0.21,0.944-0.283,1.438c-0.127-0.473-0.226-0.985-0.294-1.529h-0.005c-0.118-0.932-0.149-1.956-0.094-3.031   c0.281,0.089,0.56,0.176,0.837,0.26C27.995,55.076,27.917,56.055,28.109,56.816z M22.51,67.664c0.39-0.025,0.801-0.075,1.23-0.16   c1.126-0.221,2.163-0.621,3-1.127l0.029,0.265c0.264,2.396,0.789,4.692,1.541,6.464c-0.464,0.277-1.058,0.507-1.678,0.656   C25.5,72.488,23.799,70.186,22.51,67.664z M29.813,72.43c0.431,0.77,0.879,1.215,1.299,1.205c0.606-0.248,1.501-0.262,2.323,0.012   c0.375,0.125,0.685,0.295,0.92,0.482l0.001,0.004c0.498,0.4,0.663,0.9,0.362,1.312c-0.047,0.062-0.1,0.119-0.161,0.172   c1.26,0.916,1.685,2.096,0.931,2.739c-0.573,0.489-1.683,0.538-2.817,0.193c-1.254,1.103-3.356,1.539-5.07,0.967   c-1.421-0.478-3.206-1.684-2.758-4.04c-0.2-0.168-0.479-0.449-0.819-0.824c0.613,0.135,1.32,0.02,2.183-0.117   c0.51-0.082,1.035-0.221,1.518-0.404v-0.002C28.74,73.744,29.588,73.15,29.813,72.43z M29.835,34.982   c-0.101-0.018-0.204-0.035-0.31-0.05c-0.696-0.101-1.41-0.125-2.11-0.083l-0.031-0.093c0.407-0.097,0.826-0.188,1.256-0.267   c0.457,0.12,0.911,0.26,1.358,0.423L29.835,34.982z M31.572,34.296c-0.108-0.053-0.214-0.106-0.332-0.157   c0.327-0.029,0.645-0.048,0.956-0.064C31.99,34.146,31.778,34.219,31.572,34.296z M34.911,33.044l-4.098-6.075   c-0.077-0.114-0.053-0.211,0.054-0.282c0.104-0.071,0.205-0.06,0.283,0.055l4.307,6.383C35.281,33.093,35.098,33.066,34.911,33.044   z M63.944,45.479c-0.277-0.451-0.424-0.927-0.454-1.46c0.387-0.518,0.55-1.036,0.462-1.716c-0.004-0.051-0.012-0.1-0.02-0.145   l0.031-0.023C65.282,42.846,65.272,44.659,63.944,45.479z M62.964,44.154c0.051,0.645,0.26,1.222,0.646,1.772   c0.011,0.099-0.014,0.21-0.043,0.304c-0.073,0.245-0.223,0.495-0.428,0.753c-0.026-0.042-0.053-0.087-0.084-0.139   C62.547,45.951,62.409,45.031,62.964,44.154z M62.085,42.639c-0.509-0.821-0.25-1.462-0.076-1.745   c0.219,0.029,0.402,0.046,0.54,0.055c0.099,0.494,0.423,1.006,0.849,1.263c0.093,0.479,0.035,0.911-0.223,1.344l-0.027,0.053   C62.851,43.414,62.328,43.035,62.085,42.639z M62.54,38.655c0.015-0.049,0.023-0.099,0.037-0.152   c1.203,0.496,2.088,2.409,1.061,3.237c-0.291-0.257-0.521-0.513-0.582-0.956c0.393-0.509-0.084-1.443-0.621-1.895   C62.479,38.812,62.514,38.73,62.54,38.655z M62.616,40.459c-1.409-0.059-2.902-0.551-3.205-1.948   c-0.021-0.086-0.033-0.161-0.039-0.226c0.141-0.008,0.284-0.021,0.432-0.043c0.208-0.03,0.375-0.072,0.492-0.108   c0.377,0.444,1.117,1.117,1.682,1.049C62.332,39.41,62.794,40.097,62.616,40.459z M56.122,34.118   c-0.084-0.194-0.153-0.382-0.217-0.567h1.338c0.789,0.221,1.338,0.562,1.766,1.231c0.301,0.537,0.545,1.117,0.684,1.705   c0.092,0.414,0.252,0.922,0.349,1.2c-0.087,0.022-0.193,0.048-0.323,0.066c-2.041,0.3-3.351-1.079-3.973-2.747   c-0.193-0.513-0.291-0.98-0.376-1.455h0.189c0.077,0.284,0.173,0.573,0.305,0.879c0.556,1.298,1.495,2.327,2.795,2.513   C57.52,36.456,56.671,35.393,56.122,34.118z M56.557,32.78c0-0.191,0.155-0.345,0.349-0.345c0.189,0,0.342,0.154,0.342,0.345   s-0.154,0.344-0.342,0.344C56.712,33.124,56.557,32.971,56.557,32.78z M61.68,36.521c0.226,0.39,0.606,1.69,0.275,2.139   l-0.036,0.029c-0.447-0.026-1.112-0.708-1.315-1.004c-0.304-0.871-0.476-1.762-0.849-2.614   C60.438,35.148,61.178,35.649,61.68,36.521z M58.698,29.765c1.291-0.133,2.655-0.403,3.533-0.999c1.09-0.74,1.32-1.921,0.434-3.233   c-2.45-3.622-2.545-6.535-1.9-8.679c-0.287,2.829,0.461,6.384,4.023,9.945c3.406,3.408-4.761,4.818-7.384,5.151   c-0.606-0.832-1.38-1.537-2.259-2.064C56.183,29.907,57.481,29.891,58.698,29.765z M54.973,32.457c0.193,0,0.345,0.155,0.345,0.346   c0,0.191-0.151,0.345-0.345,0.345c-0.189,0-0.344-0.155-0.344-0.345C54.629,32.613,54.783,32.457,54.973,32.457z M53.043,32.481   c0.191,0,0.347,0.154,0.347,0.345c0,0.192-0.157,0.346-0.347,0.346c-0.193,0-0.347-0.155-0.347-0.346S52.85,32.482,53.043,32.481z    M51.117,29.583c0.189,0,0.343,0.154,0.343,0.345c0,0.191-0.153,0.345-0.343,0.345c-0.192,0-0.345-0.154-0.345-0.345   C50.772,29.738,50.926,29.584,51.117,29.583z M51.117,31.042c0.189,0,0.343,0.155,0.343,0.345c0,0.191-0.153,0.346-0.343,0.346   c-0.192,0-0.345-0.155-0.345-0.346C50.772,31.197,50.926,31.042,51.117,31.042z M51.117,32.5c0.189,0,0.343,0.155,0.343,0.346   c0,0.19-0.153,0.345-0.343,0.345c-0.192,0-0.345-0.154-0.345-0.345C50.772,32.655,50.926,32.5,51.117,32.5z M51.117,33.96   c0.189,0,0.343,0.154,0.343,0.344c0,0.191-0.153,0.346-0.343,0.346c-0.192,0-0.345-0.154-0.345-0.346   C50.772,34.114,50.926,33.961,51.117,33.96z M51.117,35.419c0.189,0,0.343,0.155,0.343,0.346c0,0.19-0.153,0.345-0.343,0.345   c-0.192,0-0.345-0.155-0.345-0.345C50.772,35.574,50.926,35.419,51.117,35.419z M49.183,32.529c0.194,0,0.349,0.154,0.349,0.345   c0,0.192-0.155,0.346-0.349,0.346c-0.19,0-0.345-0.154-0.345-0.346C48.838,32.684,48.993,32.529,49.183,32.529z M50.249,33.533   v2.162c0,0.519,0.392,0.941,0.874,0.941c0.483,0,0.874-0.422,0.874-0.941v-2.162h2.77c0.028,0.156,0.064,0.333,0.118,0.59   c0.396,1.843,1.539,3.688,3.339,4.144c0.012,0.075,0.023,0.149,0.033,0.221c0.004,0.015,0.004,0.031,0.004,0.046   c-1.448,0.437-2.555,1.262-2.983,2.265c0.444-0.503,1.078-0.933,1.84-1.244c0.004,1.537,0.054,6.277,0.054,6.277l-0.393,0.288   c-0.012-0.197-0.016-0.405-0.016-0.621c0-0.352,0.271-3.188-1.466-4.277c-1.447-0.84-3.031-0.556-4.205-0.234   c-1.175-0.322-2.758-0.605-4.204,0.234c-1.738,1.087-1.468,3.925-1.468,4.277c0,0.214-0.004,0.419-0.014,0.615l-0.387-0.282   c0,0,0.049-4.74,0.055-6.277c0.762,0.312,1.397,0.741,1.842,1.244c-0.432-1.002-1.537-1.828-2.986-2.265   c-0.001-0.015-0.001-0.031,0.002-0.046c0.011-0.077,0.025-0.156,0.04-0.238c1.76-0.483,2.88-2.306,3.271-4.126   c0.053-0.257,0.09-0.435,0.121-0.59H50.249z M46.258,33.537c-0.066,0.19-0.137,0.382-0.223,0.582   c-0.546,1.275-1.398,2.339-2.535,2.825c1.297-0.186,2.235-1.216,2.793-2.513c0.133-0.312,0.229-0.604,0.31-0.894v0h0.198   c-0.086,0.476-0.185,0.943-0.377,1.456c-0.624,1.667-1.931,3.046-3.974,2.747c-0.128-0.019-0.238-0.043-0.321-0.065   c0.092-0.279,0.253-0.787,0.35-1.201c0.136-0.588,0.381-1.167,0.679-1.705c0.427-0.668,0.981-1.009,1.768-1.231H46.258z    M44.975,32.922c0-0.191,0.158-0.345,0.349-0.345c0.19,0,0.346,0.154,0.346,0.345c0,0.191-0.155,0.346-0.346,0.346   S44.975,33.114,44.975,32.922z M46.995,19.584c-0.011-0.143,0.066-0.216,0.196-0.226c0.133-0.009,0.216,0.053,0.228,0.198   l0.669,9.555l-0.427,0.017L46.995,19.584z M47.255,32.554c0.189,0,0.343,0.154,0.343,0.345c0,0.192-0.155,0.346-0.343,0.346   c-0.192,0-0.347-0.154-0.347-0.346C46.909,32.708,47.063,32.554,47.255,32.554z M37.441,26.799   c3.562-3.562,4.309-7.117,4.023-9.945c0.644,2.145,0.551,5.059-1.899,8.679c-0.889,1.312-0.658,2.494,0.433,3.233   c0.873,0.596,2.245,0.865,3.531,0.999c1.22,0.125,2.514,0.141,3.556,0.121c-0.881,0.527-1.654,1.232-2.26,2.064   C42.204,31.617,34.034,30.208,37.441,26.799z M40.49,36.506c0.503-0.869,1.24-1.372,1.927-1.449   c-0.375,0.852-0.547,1.742-0.849,2.614c-0.202,0.293-0.87,0.977-1.316,1.004l-0.037-0.028C39.88,38.197,40.266,36.896,40.49,36.506   z M40.19,39.17c0.568,0.066,1.305-0.606,1.684-1.051c0.119,0.036,0.284,0.078,0.492,0.108c0.148,0.023,0.292,0.037,0.433,0.043   c-0.006,0.065-0.018,0.141-0.037,0.227c-0.251,1.138-1.287,1.675-2.423,1.867c-0.15,0.024-0.301,0.043-0.452,0.057   c-0.109,0.011-0.221,0.018-0.331,0.022c-0.064-0.131-0.047-0.305,0.021-0.483c0.051-0.134,0.131-0.273,0.223-0.399   C39.919,39.397,40.063,39.252,40.19,39.17z M39.023,43.593l-0.032-0.054c-0.255-0.431-0.311-0.863-0.219-1.342   c0.429-0.257,0.75-0.768,0.851-1.262c0.133-0.009,0.318-0.025,0.538-0.057c0.171,0.283,0.43,0.926-0.078,1.746   C39.84,43.019,39.319,43.397,39.023,43.593z M39.114,46.831c-0.029,0.055-0.059,0.099-0.083,0.139   c-0.205-0.258-0.357-0.509-0.428-0.753c-0.031-0.093-0.055-0.204-0.043-0.306c0.384-0.547,0.594-1.126,0.648-1.772   C39.757,45.018,39.623,45.938,39.114,46.831z M38.9,38.958c0.098-0.096,0.203-0.184,0.313-0.26   c0.122-0.084,0.249-0.155,0.379-0.208c0.012,0.051,0.023,0.103,0.038,0.151c0.024,0.076,0.056,0.157,0.103,0.234   c-0.081,0.069-0.162,0.149-0.238,0.238c-0.094,0.107-0.18,0.227-0.254,0.352c-0.265,0.446-0.385,0.969-0.129,1.305   c-0.06,0.442-0.29,0.699-0.583,0.957C37.715,41.07,38.104,39.731,38.9,38.958z M38.204,42.121l0.031,0.025   c-0.008,0.044-0.014,0.093-0.022,0.145c-0.084,0.679,0.081,1.198,0.463,1.714c-0.028,0.534-0.172,1.01-0.452,1.46   C36.898,44.646,36.887,42.833,38.204,42.121z M38.834,56.82c-1.165-2.128,0.243-4.107,0.243-4.107s-1.362,1.432-1.362,3.108   c0,0.353,0.029,0.685,0.081,0.999c0.074,0.452,0.202,0.869,0.371,1.248c-0.432-0.42-0.771-0.836-1.036-1.248l-0.006-0.002   c-2.002-3.134,0.491-5.857,1.157-6.759c0.068-0.096,0.127-0.186,0.175-0.271c-0.055,0.923-0.777,1.747-0.777,1.747   s1.854-1.474,1.101-2.501c-0.149-0.206-0.494-0.684-0.806-1.115c-0.34-0.53-0.638-1.213-0.374-2.36   c0.131,0.116,0.279,0.223,0.444,0.317c-0.011,0.295,0.116,0.898,1.015,1.762c1.155,1.11,1.702,1.821,1.891,2.38   c0.603,1.77-1.687,2.838-1.835,4.926c-0.042,0.592,0.121,1.251,0.36,1.873l0.007,0.004c0.23,0.594,0.531,1.145,0.779,1.561   c-0.038-0.018-0.076-0.031-0.112-0.05c-0.617-0.495-1.037-1.007-1.313-1.511H38.834z M32.638,65.535   c-0.112-0.08-0.124-0.18-0.049-0.283c0.071-0.104,0.169-0.129,0.283-0.053l7.325,5.133c-0.017,0.148-0.034,0.299-0.056,0.457   L32.638,65.535z M38.487,79.814c1.094,0.871,2.582,1.062,3.872,0.607C42.224,81,42.182,81.596,42.245,82.2   c-1.252,0.021-2.712-0.526-3.713-1.481C38.503,80.422,38.488,80.119,38.487,79.814z M40.17,84.693   c-0.705-0.853-1.147-1.738-1.399-2.662c1.206,0.879,2.508,1.078,3.62,0.945c0.042,0.164,0.095,0.322,0.155,0.483   C41.669,84.205,40.7,84.57,40.17,84.693z M43.897,85.637c-0.25,0.307-1.139,0.668-2.25,0.5c-0.277-0.225-0.535-0.447-0.769-0.678   c0.075-0.02,0.158-0.047,0.245-0.081c0.87-0.407,1.249-0.702,1.76-1.166C43.139,84.689,43.476,85.166,43.897,85.637z    M44.261,65.557h-4.16c-0.087-1.407-0.312-2.89-0.735-4.451h4.895V65.557z M45.686,65.557v-4.451h5.033   c-1.058,0.189-1.86,1.113-1.86,2.228c0,1.104,0.789,2.022,1.833,2.224H45.686z M47.692,47.779l0.045-0.075   c0.617-1.053,0.804-2.502,0.793-3.624c-0.007-0.802,0.592-0.753,0.769-0.753h3.585c0.174,0,0.775-0.049,0.768,0.753   c-0.011,1.122,0.174,2.57,0.794,3.624l0.047,0.079l-1.072,0.783h-4.648L47.692,47.779z M50.433,65.004   c0-0.189,0.061-0.313,0.116-0.296c0.055,0.02,0.079,0.176,0.079,0.365c0,0.018,0.004,0.062-0.061,0.037   C50.436,65.059,50.433,65.016,50.433,65.004z M50.956,65.3c-0.257,0-0.258-0.065-0.258-0.079c0-0.254,0.083-0.459,0.187-0.459   c0.105,0,0.189,0.229,0.189,0.482C51.074,65.271,51.057,65.3,50.956,65.3z M50.881,64.58c-0.072,0-0.128,0.033-0.172,0.074   c-0.068-0.13-0.192-0.165-0.289-0.09c-0.007-0.052,0.003-0.107,0.009-0.167c-0.634,0.026-0.936,0.117-0.768-0.782   c-0.007-0.197-0.233-0.366-0.137-0.898c0.183-1.003,0.54-1.188,1.606-1.188c1.072,0,1.431,0.186,1.61,1.188   c0.096,0.532-0.131,0.701-0.135,0.898c0.166,0.897-0.136,0.807-0.77,0.782c0.006,0.06,0.016,0.115,0.01,0.167   c-0.096-0.075-0.221-0.04-0.289,0.09c-0.044-0.041-0.1-0.074-0.17-0.074c-0.122,0-0.202,0.088-0.255,0.2   C51.082,64.668,51.002,64.58,50.881,64.58z M51.845,65.004c0,0.012-0.004,0.057-0.136,0.106c-0.065,0.024-0.062-0.02-0.062-0.037   c0-0.189,0.029-0.346,0.081-0.365C51.782,64.69,51.845,64.814,51.845,65.004z M51.206,65.244c0-0.254,0.083-0.482,0.187-0.482   c0.102,0,0.188,0.205,0.188,0.459c0,0.014-0.006,0.079-0.261,0.077C51.222,65.298,51.206,65.269,51.206,65.244z M56.573,65.557   h-5.018c1.044-0.201,1.834-1.121,1.834-2.224c0-1.114-0.802-2.038-1.86-2.228h5.044V65.557z M56.581,48.742   c-1.686-0.871-1.744-3.279-1.746-3.279l-0.002,0.031c-0.011,0.976,0.102,1.71,0.238,2.238c-0.067-0.088-0.133-0.184-0.191-0.284   c-0.551-0.941-0.799-2.302-0.799-3.366c0-0.938-0.224-1.227-1.125-1.227h-3.672c-0.898,0-1.124,0.289-1.124,1.227   c0,1.064-0.246,2.425-0.796,3.366c-0.062,0.101-0.125,0.196-0.195,0.284c0.137-0.527,0.249-1.26,0.238-2.238v-0.031   c-0.003,0-0.061,2.408-1.747,3.279c0,0-0.487,0.251-1.034,0.328c0.525-0.384,0.844-0.846,1.042-1.365   c0.156-0.388,0.386-1.199,0.382-2.608c-0.001-0.932,0.708-2.207,0.708-2.207s-0.533,0.59-0.808,1.313   c0.022-0.968,0.213-1.874,1.219-2.517c1.023-0.594,1.9-0.632,2.565-0.528c0.34,0.054,1.166,0.376,1.387,0.381   c0.217-0.005,1.044-0.327,1.383-0.381c0.665-0.104,1.545-0.066,2.565,0.528c1.004,0.642,1.196,1.549,1.221,2.517   c-0.279-0.726-0.81-1.313-0.81-1.313s0.706,1.275,0.706,2.207c-0.002,1.409,0.229,2.22,0.385,2.608   c0.193,0.519,0.52,0.981,1.039,1.365C57.067,48.993,56.581,48.742,56.581,48.742z M60.602,86.135c-1.11,0.17-1.999-0.193-2.253-0.5   c0.424-0.469,0.758-0.945,1.012-1.423c0.516,0.464,0.896,0.759,1.766,1.166c0.084,0.033,0.168,0.062,0.243,0.081   C61.136,85.688,60.876,85.912,60.602,86.135z M62.081,84.693c-0.532-0.123-1.502-0.488-2.379-1.233   c0.061-0.161,0.11-0.319,0.152-0.483c1.112,0.133,2.418-0.066,3.625-0.945C63.226,82.955,62.78,83.841,62.081,84.693z    M63.759,79.814c-0.002,0.305-0.016,0.607-0.044,0.904c-0.998,0.955-2.458,1.502-3.713,1.481c0.067-0.604,0.021-1.2-0.114-1.778   C61.178,80.877,62.667,80.686,63.759,79.814z M62.146,65.557h-4.147v-4.451h4.883C62.461,62.667,62.235,64.149,62.146,65.557z    M65.036,56.816l-0.13,0.215c-0.311,0.481-0.529,0.688-0.902,1.053c0.169-0.385,0.295-0.806,0.37-1.262v-0.004   c0.053-0.31,0.078-0.638,0.078-0.987c0-1.673-1.359-3.105-1.359-3.105s1.402,1.976,0.246,4.095v0.004   c-0.275,0.508-0.699,1.024-1.32,1.524c-0.035,0.013-0.073,0.032-0.107,0.044c0.248-0.416,0.436-0.768,0.667-1.361l0.108-0.217   c0.231-0.614,0.396-1.27,0.354-1.857c-0.148-2.088-2.438-3.154-1.837-4.926c0.19-0.56,0.736-1.269,1.893-2.38   c0.896-0.863,1.024-1.467,1.015-1.762c0.167-0.096,0.314-0.201,0.445-0.317c0.264,1.147-0.035,1.831-0.373,2.362   c-0.312,0.431-0.656,0.905-0.811,1.112c-0.75,1.026,1.104,2.502,1.104,2.502s-0.722-0.825-0.778-1.748   c0.051,0.086,0.106,0.178,0.179,0.27C64.538,50.973,67.024,53.688,65.036,56.816z M67.521,33.022   c-0.188,0.021-0.371,0.044-0.548,0.072l6.438-9.194c0.08-0.114,0.18-0.122,0.283-0.05c0.104,0.073,0.131,0.169,0.05,0.283   L67.521,33.022z M70.676,34.296c-0.207-0.076-0.414-0.15-0.626-0.221c0.314,0.016,0.632,0.036,0.957,0.064   C70.892,34.19,70.784,34.243,70.676,34.296z M79.744,36.729c-0.522,0.011-1.046,0.057-1.559,0.138l-0.073,0.012l0.604-0.489   C79.077,36.489,79.425,36.603,79.744,36.729z M86.479,29.057c0.105-0.085,0.203-0.068,0.285,0.03   c0.078,0.099,0.078,0.199-0.031,0.286l-8.012,6.489c-0.13-0.069-0.266-0.135-0.404-0.198L86.479,29.057z M77.705,36.163   c0.173,0.031,0.347,0.066,0.518,0.104l-0.509,0.41c-0.131-0.066-0.272-0.127-0.414-0.185L77.705,36.163z M72.724,34.933   c-0.105,0.015-0.21,0.032-0.31,0.05l-0.163-0.069c0.445-0.164,0.899-0.304,1.355-0.423c0.639,0.119,1.254,0.257,1.836,0.412   C74.549,34.8,73.62,34.803,72.724,34.933z M77.165,36.076l-0.31,0.251c-0.49-0.167-1.021-0.299-1.566-0.39   C75.931,35.944,76.562,35.992,77.165,36.076z M74.687,56.818c-0.073,0.546-0.17,1.057-0.295,1.531   c-0.076-0.493-0.167-0.972-0.283-1.436c0.009-0.029,0.017-0.059,0.026-0.094h-0.01c0.19-0.756,0.114-1.729-0.186-2.747   c0.277-0.079,0.554-0.167,0.831-0.255c0.059,1.061,0.022,2.074-0.092,2.998L74.687,56.818z M77.406,75.477   c0.448,2.356-1.338,3.562-2.759,4.04c-1.713,0.572-3.819,0.136-5.07-0.967c-1.135,0.345-2.24,0.296-2.816-0.193   c-0.753-0.644-0.332-1.823,0.932-2.739c-0.061-0.055-0.114-0.109-0.162-0.172c-0.299-0.411-0.135-0.91,0.361-1.312   c0.234-0.191,0.545-0.359,0.92-0.484c0.822-0.273,1.715-0.26,2.324-0.012c0.418,0.01,0.866-0.436,1.297-1.205   c0.225,0.721,1.072,1.314,2.088,1.699h0.003c0.483,0.186,1.007,0.322,1.519,0.404c0.861,0.137,1.57,0.254,2.184,0.117   C77.889,75.027,77.604,75.309,77.406,75.477z M75.614,73.762c-0.62-0.149-1.211-0.377-1.678-0.656   c0.756-1.771,1.278-4.068,1.542-6.464l0.029-0.265c0.84,0.506,1.874,0.906,3.001,1.127c0.43,0.085,0.841,0.135,1.231,0.16   C78.45,70.186,76.749,72.488,75.614,73.762z M84.843,61.861l-1.992,1.014c-0.016,0.165-0.037,0.326-0.064,0.489l9.572-4.876   c0.125-0.063,0.217-0.025,0.275,0.088c0.056,0.111,0.033,0.211-0.09,0.273l-9.85,5.02c-0.035,0.174-0.074,0.346-0.124,0.52   l2.017-1.028c-0.212,0.901-0.518,1.808-0.881,2.699c-1.008,0.651-2.688,1.247-5.068,0.781c-1.938-0.381-3.49-1.306-4.174-2.239   c0.213-2.064,0.227-4.229-0.062-6.189c0.896-0.99,1.146-2.1,1.146-2.1c0.399-0.971,0.46-1.647,0.531-2.932l0.08-0.029   c0.085,1.197,0.017,2.389-0.174,3.465l0.007,0.006c-0.191,1.116-0.517,2.115-0.934,2.881c0.775-0.509,1.415-1.579,1.804-2.883   l-0.008-0.008c0.321-1.088,0.465-2.345,0.367-3.582c-0.006-0.092-0.013-0.176-0.017-0.264c0.482,1.238,0.693,2.557,0.628,3.85   l0.007,0.002c-0.03,0.651-0.134,1.298-0.309,1.924c0.5-0.601,0.91-1.248,1.233-1.922l-0.008-0.002   c0.644-1.355,0.931-2.814,0.849-4.213c0.509,1.357,0.716,2.804,0.633,4.211l0.008,0.006c-0.061,1.004-0.27,1.991-0.623,2.91   c0.84-0.852,1.488-1.85,1.939-2.912h-0.008c0.736-1.736,0.932-3.643,0.528-5.365c0.142-0.149,0.253-0.341,0.325-0.562   c0.612,1.939,0.717,4.012,0.391,5.924l0.01,0.006c-0.209,1.226-0.596,2.39-1.14,3.408c1.032-0.809,1.874-1.89,2.478-3.109   c0.109,0.379,0.231,0.771,0.369,1.178C84.896,59.414,84.978,60.621,84.843,61.861z M86.263,45.604   c-0.033-0.146-0.07-0.287-0.118-0.429l0.208,0.031c0.235,0.163,0.457,0.332,0.674,0.505L86.263,45.604z M87.465,46.183l0.12,0.018   l0.037,0.038C87.573,46.219,87.519,46.2,87.465,46.183z M88.138,45.867c-0.087-0.152-0.178-0.301-0.28-0.449l9.469,1.33   c0.136,0.019,0.189,0.104,0.173,0.228c-0.016,0.127-0.092,0.194-0.229,0.174L88.138,45.867z"></path></g></svg>