<svg xmlns="http://www.w3.org/2000/svg" viewBox="-2 -2 104 104" x="0px" y="0px"><g><path fill="#fff9f5" stroke="#253911" stroke-width="0.75" stroke-linecap="butt" d="m35.68,9.33c4-14.11,29.58-11.74,28.99,3.9-6.92,4.37-8.85,15.7-11.28,23.38-.09-1-1.18-10.28-5.47-12.63-.25-.14-.55.74-.77,1.67-.44,1.89-.54,3.84-.33,5.76l.89,8.27c-.73.24-1.41.59-2.02,1.05-6.45-7.39-11.78-16.93-10.57-26.97h0c.12-1.97.31-3.47.56-4.43Zm-27.05,26.78C.09,24.18,17.89,5.66,29.75,15.88c-.9,8.14,6.76,16.71,11.25,23.39-.84-.55-8.77-5.48-13.29-3.6-.27.11.23.89.82,1.64,1.2,1.52,2.66,2.82,4.3,3.85l7.02,4.46c-.27.71-.41,1.47-.44,2.23-9.8.43-20.58-1.34-27.68-8.55h0c-1.47-1.32-2.52-2.4-3.12-3.2Zm4.07,37.84c-14.65-.76-18.03-26.22-2.64-29.13,5.8,5.78,17.27,5.13,25.3,5.79-.96.31-9.76,3.44-11.1,8.14-.08.28.84.37,1.8.38,1.94.01,3.86-.33,5.69-.96l7.87-2.71c.39.65.89,1.24,1.47,1.74-5.77,7.93-13.88,15.25-23.94,16.31h0c-1.95.32-3.45.47-4.45.44Zm32.12,20.42c-9.73,10.98-31.74-2.25-24.42-16.09,8.14-.94,14.78-10.3,20.3-16.17-.35.94-3.39,9.77-.56,13.75.17.23.82-.43,1.42-1.17,1.22-1.51,2.15-3.22,2.8-5.05l2.78-7.84c.76.1,1.53.08,2.28-.07,2.6,9.45,3.27,20.36-2.17,28.88h0c-.96,1.73-1.78,2.99-2.43,3.75Zm35.99-12.39c2.52,14.45-21.55,23.41-27.81,9.06,4.34-6.94,1.16-17.98.02-25.96.51.86,5.53,8.75,10.41,9.01.29.02.18-.91-.03-1.84-.42-1.89-1.18-3.69-2.2-5.34l-4.39-7.06c.55-.53,1.01-1.15,1.37-1.82,9.01,3.86,17.96,10.14,21.23,19.71h0c.75,1.83,1.22,3.26,1.42,4.24Zm12.76-35.86c12.87,7.04,4.87,31.45-10.26,27.39-2.72-7.72-13.34-12.12-20.28-16.2,1,.14,10.28,1.13,13.53-2.52.19-.22-.6-.7-1.45-1.12-1.74-.85-3.62-1.38-5.55-1.61l-8.26-.97c-.07-.76-.27-1.51-.57-2.2,8.64-4.64,19.12-7.72,28.64-4.31h0c1.9.56,3.31,1.07,4.2,1.53Zm-20.09-32.33c13.53-5.67,27.62,15.8,15.02,25.1-7.74-2.69-17.79,2.87-25.31,5.76.73-.69,7.3-7.33,6.47-12.15-.05-.28-.92.03-1.78.44-1.75.83-3.34,1.97-4.71,3.33l-5.91,5.86c-.64-.42-1.34-.73-2.08-.93,1.76-9.65,5.89-19.77,14.49-25.08h0c1.62-1.14,2.9-1.92,3.82-2.32Zm-23.53,30.01c-3.87,0-7.01,3.14-7.01,7.01s3.14,7.01,7.01,7.01,7.01-3.14,7.01-7.01-3.14-7.01-7.01-7.01Z"/></g></svg>