<svg fill="#999999" xmlns="http://www.w3.org/2000/svg" xmlns:xlink="http://www.w3.org/1999/xlink" version="1.1" x="0px" y="0px" viewBox="0 0 100 100" enable-background="new 0 0 100 100" xml:space="preserve"><g><path fill="none" d="M84.948,48.102c-2.139-6.357-6.343-11.323-11.368-15.642C64.953,25.043,53.814,18.132,51.48,6.148   c-0.3,0.049-0.6,0.098-0.901,0.147c-0.037,0.139-0.133,0.267-0.309,0.357l-2.897,1.471c-0.683,0.347-0.484,2.169-0.555,2.807   c-0.176,1.578-0.508,3.17-0.97,4.689c-1.07,3.515-2.707,6.889-4.68,9.985c-4.035,6.332-9.356,11.624-14.319,17.211   c-5.379,6.055-10.602,12.727-12.42,20.805c-1.706,7.585-0.3,15.52,5.665,20.899c9.708,8.755,25.495,10.453,37.742,7.207   c12.185-3.23,23.459-12.044,27.159-24.478C86.837,61.058,87.023,54.27,84.948,48.102z M59.069,28.858   c0.042-0.356,0.049-0.731,0.351-0.971c0.094-0.075,0.192-0.075,0.285,0c0.302,0.24,0.309,0.615,0.351,0.971   c0.051,0.435,0.107,0.868,0.017,1.3c-0.105,0.507-0.916,0.507-1.021,0C58.962,29.726,59.018,29.293,59.069,28.858z M55.107,35.994   c-0.105,0.401-0.217,0.8-0.294,1.208c-0.085,0.452-0.158,0.718-0.614,0.902c-0.221,0.089-0.525-0.055-0.631-0.257   c-0.251-0.48-0.009-0.801,0.235-1.218c0.183-0.314,0.332-0.651,0.493-0.977C54.522,35.189,55.231,35.519,55.107,35.994z    M54.035,41.892c-0.077,0.492-0.027,1.264-0.631,1.422c-0.152,0.04-0.284-0.028-0.37-0.151c-0.349-0.497,0.207-1.087,0.457-1.5   C53.675,41.355,54.085,41.571,54.035,41.892z M54.738,31.679c-0.324,0.92-0.429,1.902-0.713,2.837   c-0.113,0.371-0.423,0.592-0.804,0.612c-0.239,0.013-0.436-0.056-0.59-0.244c-0.241-0.294-0.333-0.663-0.13-1.011   c0.494-0.847,1.145-1.596,1.602-2.462C54.284,31.064,54.87,31.305,54.738,31.679z M52.853,21.544   c-0.04,0.551-1.038,4.115-1.917,3.601c-0.59-0.346,0.1-1.283,0.309-1.64c0.407-0.695,0.783-1.507,1.392-2.049   C52.713,21.387,52.861,21.426,52.853,21.544z M50.561,21.684c0.158-0.456,0.496-0.94,0.836-1.281   c0.073-0.073,0.225-0.024,0.215,0.089c-0.039,0.474-0.178,1.045-0.42,1.457c-0.074,0.126-0.245,0.21-0.39,0.159   c-0.028-0.01-0.056-0.02-0.082-0.035C50.591,22.003,50.512,21.826,50.561,21.684z M35.29,91.068   c-13.308-2.706-19.255-18.712-10.75-29.355c0.057-0.072,0.172,0.021,0.125,0.097c-6.657,10.96-1.55,25.084,10.707,28.958   C35.566,90.828,35.486,91.108,35.29,91.068z M42.764,91.221c-4.134-1.481-7.042-4.705-8.114-9.078   c-1.282-5.226,0.791-9.512,3.251-14.024c0.037-0.067,0.156-0.02,0.126,0.053c-1.661,4.051-3.204,8.508-2.051,12.91   c1.011,3.864,3.658,7.472,6.948,9.76C43.104,90.969,42.998,91.304,42.764,91.221z M35.015,45.847   c-0.148,0.154-0.412-0.047-0.296-0.229c5.799-9.112,10.498-18.833,12.877-29.453c0.028-0.126,0.24-0.1,0.228,0.031   c-0.494,5.533-1.533,10.49-3.781,15.619C41.83,36.867,38.848,41.843,35.015,45.847z M50.505,29.687   c-0.054-0.042-0.093-0.102-0.125-0.167c-0.187,1.826-0.662,3.698-0.997,5.061c-0.875,3.556-2.091,7.152-3.829,10.386   c-0.121,0.225-0.484,0.071-0.411-0.173c1.063-3.536,2.038-6.998,2.709-10.635c0.308-1.667,0.569-3.33,0.799-5.01   c0.195-1.424,0.146-2.861,0.954-4.076c0.055-0.083,0.186-0.095,0.238,0c0.533,0.972,0.667,2.263,0.6,3.628   c0.642-1.902,1.805-4.01,3.292-5.319c0.137-0.121,0.399-0.008,0.329,0.191c-0.335,0.96-0.825,1.862-1.242,2.789   c-0.447,0.993-0.766,2.025-1.183,3.027c-0.117,0.28-0.324,0.503-0.654,0.498C50.749,29.882,50.691,29.833,50.505,29.687z    M51.996,30.032c0.463-0.954,0.904-1.915,1.335-2.885c0.202-0.455,0.966-0.129,0.803,0.338c-0.352,1.004-0.69,2.008-1.007,3.023   c-0.222,0.711-0.319,1.672-1.148,1.863c-0.179,0.041-0.338-0.028-0.439-0.179C51.066,31.482,51.671,30.701,51.996,30.032z    M51.607,92.634c-0.062,0.057-0.168-0.017-0.12-0.092c5.748-9.03,9.224-18.69,9.197-29.453c0-0.136,0.217-0.173,0.242-0.033   C62.822,73.589,59.56,85.365,51.607,92.634z M65.026,38.324c-0.068,0.085-0.212,0.09-0.3,0.039c-0.324-0.191-0.495-0.5-0.476-0.877   c0.018-0.367,0.032-0.694-0.009-1.061c-0.038-0.339,0.505-0.398,0.585-0.079c0.059,0.235,0.125,0.444,0.219,0.663   c0.066,0.153,0.159,0.314,0.203,0.474C65.333,37.793,65.215,38.085,65.026,38.324z M66.066,40.024   c-0.042,0.149-0.259,0.149-0.302,0c-0.045-0.16-0.028-0.308-0.021-0.472c0.01-0.221,0.333-0.221,0.343,0   C66.094,39.716,66.111,39.864,66.066,40.024z M71.301,81.001c-0.11,0.167-0.415,0.063-0.338-0.143   c1.765-4.738,3.381-9.354,3.754-14.455c0.342-4.682,0.095-9.399-1.087-13.957c-1.825-7.037-5.48-13.831-10.496-19.193   c0.078,0.729,0.177,1.463,0.138,2.18c-0.034,0.628,0.016,1.257-0.54,1.638c-0.068,0.046-0.182,0.046-0.25,0   c-0.61-0.419-0.579-1.312-0.533-1.994c0.065-0.946,0.182-1.879,0.214-2.827c-0.16-0.16-0.321-0.318-0.483-0.475   c0.01,0.15,0.027,0.298,0.028,0.45c0.004,0.874,0.146,2.096-0.594,2.694c-0.144,0.117-0.348,0.112-0.452-0.058   c-0.466-0.764-0.083-1.781-0.011-2.636c0.037-0.439,0.063-0.882,0.088-1.325c-0.187-0.169-0.371-0.343-0.561-0.508   c-0.08-0.07,0.028-0.212,0.114-0.148c0.158,0.118,0.31,0.242,0.466,0.361c0.026-0.57,0.04-1.141,0.031-1.707   c-0.002-0.154,0.212-0.171,0.258-0.035c0.27,0.798,0.492,1.6,0.596,2.428c0.24,0.193,0.472,0.394,0.707,0.591   c0.256-0.174,0.69-0.062,0.703,0.346c0.003,0.087,0.013,0.175,0.018,0.263c6.083,5.323,10.578,12.175,12.376,20.219   C77.521,61.986,76.624,72.877,71.301,81.001z"></path><path d="M50.72,22.074c0.026,0.014,0.054,0.025,0.082,0.035c0.145,0.051,0.316-0.032,0.39-0.159   c0.242-0.412,0.381-0.984,0.42-1.457c0.009-0.113-0.142-0.162-0.215-0.089c-0.34,0.341-0.678,0.824-0.836,1.281   C50.512,21.826,50.591,22.003,50.72,22.074z"></path><path d="M50.936,25.144c0.879,0.515,1.877-3.049,1.917-3.601c0.009-0.118-0.14-0.157-0.215-0.089   c-0.609,0.542-0.985,1.354-1.392,2.049C51.036,23.861,50.346,24.799,50.936,25.144z"></path><path d="M51.638,29.388c0.418-1.002,0.736-2.034,1.183-3.027c0.417-0.926,0.907-1.829,1.242-2.789   c0.07-0.199-0.192-0.312-0.329-0.191c-1.487,1.309-2.651,3.417-3.292,5.319c0.068-1.365-0.067-2.656-0.6-3.628   c-0.052-0.095-0.183-0.083-0.238,0c-0.808,1.215-0.759,2.652-0.954,4.076c-0.23,1.68-0.491,3.343-0.799,5.01   c-0.671,3.637-1.646,7.099-2.709,10.635c-0.073,0.244,0.29,0.399,0.411,0.173c1.738-3.234,2.955-6.831,3.829-10.386   c0.335-1.362,0.811-3.234,0.997-5.061c0.032,0.065,0.071,0.125,0.125,0.167c0.186,0.146,0.245,0.195,0.48,0.199   C51.314,29.891,51.521,29.668,51.638,29.388z"></path><path d="M51.978,32.372c0.83-0.192,0.926-1.153,1.148-1.863c0.317-1.015,0.655-2.019,1.007-3.023   c0.164-0.467-0.601-0.794-0.803-0.338c-0.43,0.97-0.871,1.93-1.335,2.885c-0.325,0.669-0.93,1.45-0.457,2.161   C51.639,32.344,51.799,32.413,51.978,32.372z"></path><path d="M52.5,33.873c-0.203,0.348-0.111,0.717,0.13,1.011c0.154,0.188,0.351,0.257,0.59,0.244   c0.381-0.021,0.691-0.241,0.804-0.612c0.285-0.934,0.39-1.917,0.713-2.837c0.132-0.374-0.454-0.615-0.637-0.268   C53.645,32.277,52.994,33.026,52.5,33.873z"></path><path d="M54.295,35.652c-0.161,0.327-0.31,0.663-0.493,0.977c-0.243,0.417-0.485,0.738-0.235,1.218   c0.106,0.202,0.41,0.346,0.631,0.257c0.456-0.184,0.53-0.449,0.614-0.902c0.076-0.408,0.189-0.807,0.294-1.208   C55.231,35.519,54.522,35.189,54.295,35.652z"></path><path d="M53.49,41.662c-0.249,0.413-0.806,1.004-0.457,1.5c0.086,0.123,0.219,0.19,0.37,0.151c0.603-0.158,0.553-0.93,0.631-1.422   C54.085,41.571,53.675,41.355,53.49,41.662z"></path><path d="M60.073,30.158c0.089-0.432,0.034-0.866-0.017-1.3c-0.042-0.356-0.049-0.731-0.351-0.971c-0.094-0.075-0.192-0.075-0.285,0   c-0.302,0.24-0.309,0.615-0.351,0.971c-0.051,0.435-0.107,0.868-0.017,1.3C59.156,30.666,59.968,30.666,60.073,30.158z"></path><path d="M65.045,37.009c-0.095-0.219-0.16-0.429-0.219-0.663c-0.08-0.319-0.623-0.26-0.585,0.079   c0.042,0.367,0.028,0.694,0.009,1.061c-0.019,0.377,0.153,0.686,0.476,0.877c0.087,0.052,0.232,0.047,0.3-0.039   c0.189-0.239,0.308-0.531,0.222-0.842C65.204,37.322,65.111,37.161,65.045,37.009z"></path><path d="M65.743,39.551c-0.007,0.165-0.024,0.313,0.021,0.472c0.042,0.149,0.259,0.149,0.302,0c0.045-0.16,0.028-0.308,0.021-0.472   C66.077,39.33,65.753,39.33,65.743,39.551z"></path><path d="M85.556,44.659c-6.968-16.312-29.661-20.861-33.126-39.27c-0.058-0.306-0.395-0.43-0.666-0.378   c-0.843,0.162-1.687,0.324-2.53,0.487C48.99,5.545,48.88,5.711,48.87,5.893c-0.985,0.448-1.97,0.895-2.955,1.343   c-0.235,0.107-0.348,0.389-0.36,0.627C44.187,34.344,6.827,46.41,12.361,74.712c2.233,11.419,13.872,17.378,24.299,19.382   c12.433,2.389,25.782,0.093,36.138-7.34C86.037,77.252,92.078,59.929,85.556,44.659z M57.836,91.725   c-12.247,3.246-28.034,1.548-37.742-7.207c-5.965-5.379-7.372-13.314-5.665-20.899c1.817-8.078,7.04-14.75,12.42-20.805   c4.963-5.586,10.284-10.879,14.319-17.211c1.973-3.096,3.61-6.47,4.68-9.985c0.462-1.519,0.794-3.111,0.97-4.689   c0.071-0.638-0.127-2.46,0.555-2.807l2.897-1.471c0.177-0.09,0.272-0.218,0.309-0.357c0.3-0.049,0.6-0.098,0.901-0.147   C53.814,18.132,64.953,25.043,73.58,32.46c5.025,4.32,9.229,9.285,11.368,15.642c2.075,6.168,1.889,12.956,0.047,19.145   C81.295,79.681,70.021,88.496,57.836,91.725z"></path><path d="M47.596,16.166c-2.379,10.62-7.078,20.34-12.877,29.453c-0.116,0.182,0.149,0.383,0.296,0.229   c3.833-4.004,6.815-8.98,9.028-14.031c2.248-5.129,3.286-10.086,3.781-15.619C47.836,16.066,47.624,16.039,47.596,16.166z"></path><path d="M63.072,32.492c-0.005-0.087-0.016-0.176-0.018-0.263c-0.013-0.408-0.446-0.52-0.703-0.346   c-0.235-0.197-0.468-0.398-0.707-0.591c-0.104-0.828-0.326-1.631-0.596-2.428c-0.046-0.137-0.26-0.119-0.258,0.035   c0.008,0.567-0.005,1.137-0.031,1.707c-0.156-0.12-0.308-0.244-0.466-0.361c-0.086-0.064-0.195,0.079-0.114,0.148   c0.19,0.165,0.374,0.339,0.561,0.508c-0.024,0.443-0.051,0.886-0.088,1.325c-0.072,0.854-0.455,1.871,0.011,2.636   c0.104,0.171,0.308,0.175,0.452,0.058c0.74-0.598,0.598-1.82,0.594-2.694c-0.001-0.152-0.018-0.3-0.028-0.45   c0.163,0.157,0.323,0.316,0.483,0.475c-0.031,0.948-0.149,1.882-0.214,2.827c-0.047,0.682-0.077,1.575,0.533,1.994   c0.068,0.046,0.182,0.046,0.25,0c0.555-0.382,0.506-1.01,0.54-1.638c0.038-0.717-0.06-1.451-0.138-2.18   c5.016,5.362,8.671,12.156,10.496,19.193c1.182,4.558,1.429,9.275,1.087,13.957c-0.372,5.1-1.989,9.717-3.754,14.455   c-0.077,0.206,0.229,0.31,0.338,0.143c5.323-8.125,6.219-19.015,4.146-28.29C73.65,44.667,69.155,37.815,63.072,32.492z"></path><path d="M60.684,63.089c0.028,10.763-3.448,20.423-9.197,29.453c-0.048,0.076,0.058,0.149,0.12,0.092   c7.953-7.269,11.215-19.045,9.319-29.578C60.901,62.916,60.684,62.953,60.684,63.089z"></path><path d="M35.975,81.082c-1.152-4.402,0.39-8.86,2.051-12.91c0.03-0.073-0.089-0.121-0.126-0.053   c-2.46,4.513-4.533,8.798-3.251,14.024c1.072,4.372,3.98,7.596,8.114,9.078c0.234,0.084,0.34-0.252,0.159-0.378   C39.633,88.554,36.987,84.946,35.975,81.082z"></path><path d="M35.373,90.767c-12.258-3.874-17.364-17.998-10.707-28.958c0.046-0.076-0.068-0.169-0.125-0.097   c-8.505,10.643-2.558,26.649,10.75,29.355C35.486,91.108,35.566,90.828,35.373,90.767z"></path></g></svg>