<svg xmlns="http://www.w3.org/2000/svg" xmlns:xlink="http://www.w3.org/1999/xlink" version="1.1" x="0px" y="0px" viewBox="-25 -25 150 150" style="enable-background:new 0 0 100 100; fill: #667722;" xml:space="preserve"><path d="M90.4,73.4c0.2,0.1,0.3,0.1,0.4,0c0.1-0.1,0.3-0.1,0.4,0.1c0.1,0.1,0,0.3-0.1,0.4c-1.3,1.1-2.8,1.7-4.2,2.6  c-2.6,1.5-5.2,2.9-7.7,4.4c-1.8,1.1-3.8,2-5.6,3.1c-1.6,0.9-3.3,1.8-4.8,2.8c-1.2,0.8-2.5,1.3-3.7,2.1c-1.1,0.8-2.3,1.5-3.6,2.1  c-0.5,0.2-0.5,1-1.3,0.8c-0.5-0.1-1,0.6-1.6,0.8c-0.5,0.3-1,0.5-1.5,0.8c-0.3,0.2-0.8,0.3-0.9,0.8c0,0.1-0.1,0.2-0.2,0.2  c-1.8,0.4-3.1,1.6-4.5,2.5c-0.6,0.4-1.4,0.7-2,1.1c-0.2,0.1-0.3,0-0.5-0.1c-0.8-0.5-1.6-0.9-2.5-1.3c-1.2-0.6-2.2-1.3-3.4-1.9  c-1.3-0.6-2.5-1.3-3.7-1.9c-0.9-0.5-1.7-1-2.5-1.6c-1.3-1-2.8-1.6-4.2-2.3c-3.2-1.7-6.4-3.5-9.5-5.4c-1-0.6-2.1-1.1-3.1-1.6  c-1-0.5-1.9-1.1-2.9-1.6c-2.2-1.3-4.4-2.5-6.7-3.8c-0.5-0.3-0.9-0.5-1.4-0.7c-0.7-0.4-1-0.9-1-1.7c0.1-2.8,0.1-5.5,0-8.3  c-0.2-4.8-0.1-9.6-0.1-14.3c0-2.5-0.1-5,0.1-7.6c0.1-0.9,0.1-1.8,0.1-2.8c0-2.6-0.1-5.3-0.2-7.9c0-0.7,0.2-1.4-0.2-2.1  c0.3-0.6,0.2-1.2,0.2-1.9c-0.1-0.7-0.2-1.5-0.2-2.2c0-0.3,0-0.4,0.3-0.6c1.7-1,3.3-2.1,4.9-3.3c1.2-0.8,2.4-1.6,3.5-2.6  c0.5-0.4,1.1-0.7,1.7-0.9c0.8-0.3,1.4-0.8,2.1-1.3c0.5-0.4,1.2-0.7,1.7-1c2.5-1.3,4.7-3.1,7.1-4.6c1.7-1.1,3.5-2,5.2-3  c0.2-0.1,0.5-0.2,0.7-0.4c3.4-2.5,7.2-4.4,10.7-6.7c0.9-0.6,1.8-1,2.7-1.3c0.5-0.2,0.9-0.1,1.4,0.2c2,1.1,3.8,2.5,5.8,3.5  c0.9,0.5,1.8,0.8,2.7,1.3C59.3,7,60.6,7.9,62,8.7c4.2,2.3,8.4,4.6,12.6,6.9c2.7,1.5,5.3,3,8,4.4c1.7,0.9,3.4,1.8,5.1,2.7  c0.5,0.3,0.9,0.5,1.4,0.8c0.5,0.3,0.7,1,0.5,1.6c-0.2,0.3-0.2,0.7-0.2,1c-0.1,2.5-0.2,4.9,0,7.4c0.2,1.9-0.1,3.7,0,5.5  c0,0.4-0.2,1,0.4,1.3c0.2,0.1,0,0.3-0.1,0.4c-0.4,0.4-0.4,0.8-0.2,1.3c0.1,0.1,0.1,0.3,0.1,0.4c-0.4,2.7,0,5.5,0,8.2  c0,3.7,0.5,7.4,0.4,11.1c0,1.5,0.3,3.1,0.3,4.6c0,0.2,0.1,0.4,0,0.5c-0.6,1.5,0.1,3-0.2,4.5c-0.1,0.5,0.7,0.6,0.4,1  C90.3,72.7,90.4,73.1,90.4,73.4z M82.1,63.5c-0.2-0.1-0.3-0.1-0.5,0c-0.2,0.1-0.3,0.1-0.3,0.3c0,0.1,0.1,0.2,0.2,0.2  c0.2,0.1,0.3,0,0.5-0.1C82,63.8,82,63.6,82.1,63.5c0.1,0,0.2,0.1,0.2,0.1c0.2,0.1,0.4,0,0.5-0.2c0.1-0.1-0.1-0.2-0.1-0.2  c-0.2-0.1-0.4-0.1-0.5,0.1C82.1,63.2,82.1,63.4,82.1,63.5z M80.7,64.8c0,0.1,0.1,0.2,0.1,0.3c0.1,0.2,0.3,0.2,0.4,0.2  c0,0,0-0.1,0-0.1c0-0.2-0.2-0.3-0.4-0.3C80.8,64.8,80.7,64.8,80.7,64.8c0.5-0.3,0.3-0.7,0-1c0-0.6-0.4-1-0.5-1.5  c-0.2-0.8-0.3-0.8-1.1-0.4c-0.8,0.4-1.4,1.1-2.3,1.3c0.1-0.5,0.7-0.6,1-0.9c0.5-0.4,1-0.6,1.4-1c-0.2-0.5-0.9-0.5-0.9-1.1  c0.4,0,0.6,0.3,0.8,0.5c0.3,0.4,0.3-0.5,0.7-0.1c0.3,0.3,0.7-0.1,0.9-0.3c0.2-0.4-0.2-0.4-0.5-0.6c-0.6-0.4-1.2-0.7-1.7-1.5  c0.7,0.2,0.9,0.6,1.3,0.9c1.4,0.9,1.3,0.9,2.5-0.2c0,0,0-0.1,0-0.1c-0.5-0.8-1.1-0.4-1.6-0.1c-0.1-0.4,0.4-0.4,0.4-0.7  c0-0.3-0.5-0.3-0.4-0.7c0.3-0.1,0.7-0.2,1-0.3c-0.2,0.1-0.4,0.2-0.3,0.5c0.1,0.2,0.3,0.2,0.5,0.1c0.2-0.1,0.4-0.2,0.4-0.4  c0-0.2-0.2-0.4-0.4-0.3c0.3-0.7-0.6-0.9-0.7-1.4c0.2-0.1,0.4-0.1,0.4-0.2c0-0.2,0-0.5-0.4-0.5c-0.2,0-0.5-0.1-0.3-0.2  c0.6-0.6-0.1-1.1,0-1.7c0.1,0,0.1,0,0.2,0.1c0.3,0.3,0.4,0.9,0.9,0.7c0.4-0.2,0.8-0.5,1.1-0.8c0.2-0.2,0-0.3-0.1-0.5  c-0.2-0.2-0.4-0.2-0.7-0.1c-0.3,0.1-0.6,0.4-1,0.1c0.9-0.5,1.9-0.8,2.7-1.5c-1.1-1.1-1.7-1.2-3-0.4c-1.8,1.1-3.6,2.1-5.5,3.2  c-0.2,0.1-0.3,0.2-0.5,0c-0.1-0.2,0-0.3,0.1-0.5c0.2-0.2,0.5-0.3,0.7-0.5c1.7-0.8,3.4-1.7,5-2.7c0.2-0.1,0.5-0.3,0.7-0.5  c0.2-0.3-0.3-0.4-0.2-0.7c0-0.1,0.1-0.1,0.2-0.2c0.5,0.8,1,0.6,1.6,0.1c0.3-0.2,0.6-0.3,0.9-0.4c0-0.2-0.4-0.3-0.1-0.6  c0.2,0,0.3,0.1,0.5,0.3c0.3,0.4,0.6,0.1,0.9-0.1c0.3-0.3,0.2-0.7,0-1c-0.2-0.3-0.5-0.4-0.8-0.2c-0.2,0.1-0.4,0.3-0.7,0.2  c0-0.3,0.6-0.3,0.4-0.7C84.1,46,83.8,46,83.6,46c-0.1,0-0.3,0.1-0.3,0c-0.1-0.8-0.9-0.8-1.2-1.2c-0.2-0.2-0.4-0.3-0.3-0.7  c0.6,0.2,1,0.7,1.6,1c0.4,0.2,0.8,0.3,1.1-0.2c-0.3-0.3-0.6-0.5-1-0.7c-0.3-0.2-0.6-0.3-0.8-0.5c-0.2-0.2-0.2-0.5,0.1-0.5  c0.9,0,1.2-0.9,1.9-1.1c0.3-0.1,0.5-0.4-0.1-0.4c-0.2,0-0.3-0.1-0.1-0.2c0.5-0.3,0.3-0.6,0-0.9c-0.3-0.4-0.6-0.1-0.9,0.1  c-0.5,0.3-0.9,0.6-1.6,0.9c0.1-0.3,0.1-0.4,0.2-0.4c0.9-0.6,2-1,2.1-2.3c0-0.1,0.2-0.1,0.4-0.2c0,0.2-0.3,0.5,0,0.7  c0.2,0.1,0.4,0,0.5-0.2c0.1-0.4-0.1-0.5-0.4-0.5c-0.1-0.7-0.8-0.6-1.1-1c-0.4-0.4-0.7,0.1-1.1,0c0.2-0.6,0-1.8-0.5-2.7  c-0.1-0.1,0-0.2,0.1-0.2c0.5-0.5,0.4-1,0.2-1.6c-0.1-0.2-0.3-0.4-0.1-0.6c0.2-0.2,0.4-0.4,0.1-0.6c-0.2-0.2-0.4,0.1-0.5,0.2  c-0.1,0.1-0.2,0.2-0.4,0.1c0.1-0.5,1-0.5,1-1.2c0-0.6-0.2-1-0.6-1.4c0.2-0.5,0.9-0.6,0.6-1.2c0.4,0.1,0.8-0.1,1.2-0.3  c-0.6,0.5-0.8,1.1-0.7,1.9c0.9,0.1,0.6-1.2,1.4-1c-0.1-0.5-0.6-0.5-0.8-0.8c-0.2-0.4,0.4-0.3,0.3-0.7c-0.6,0.2-1,0.5-1.5,1  c-1,0.4-1.8,1.1-2.8,1.6c-0.1,0.1-0.4,0.2-0.2,0.4c0.4,0.4,0.1,0.5-0.2,0.7c-0.4,0.3-0.8,0.7-1.3,1c-0.4,0.3-0.6,0.6-0.5,1.1  c0.1,0.6,0,1.2-0.3,1.8c-0.2-0.6,0-1.2-0.2-2c-0.7,0.7-0.6,1.5-0.9,2.2c-0.3,0.7,0,1.5-0.6,2.3c-0.3-0.9,0.3-1.7,0-2.7  c-0.3,0.5-0.5,0.9-0.6,1.3c0,0.2,0,0.5-0.4,0.4c-0.3-0.1-0.3-0.3-0.2-0.5c0.1-0.2,0.2-0.3,0.2-0.5c0.4-1,0.8-1.9,1.3-3.1  c-0.6,0.3-1,0.5-1.2,1c-0.6,0.9-0.9,2-1.3,3.1c-0.1,0.3-0.1,0.8-0.6,1c-0.1-1.2,0.8-2.2,0.7-3.7c-1.5,1.6-2.2,3.3-3.4,4.8  c0.4-1.3,1.2-2.3,1.9-3.6c-0.7,0.3-1.3,0.7-1.8,1c-0.2,0.1-0.3,0.3-0.3,0.5c-0.2,0-0.4-0.1-0.6,0.1c-0.8,0.7-1.8,1.1-2.7,1.7  c-0.1,0.1-0.2,0.1-0.2,0.2c-0.1,0.3,0.1,0.6,0.3,0.5c0.6-0.2,1.4,0.1,1.7-0.8c0.1-0.4,0.4-0.7,0.6-1c0.2-0.3,0.4-0.7,0.9-0.8  c0.1,0,0.1-0.1,0.2-0.1c0.2,0,0.2,0.2,0.1,0.3c-1.1,1.1-1.9,2.4-2.7,3.7c-0.1,0.2-0.2,0.5-0.6,0.4c0-0.6,0.6-0.9,0.7-1.6  c-1.3,0.7-1.9,2-3,3.1c0-0.8,0.4-1.2,0.7-1.5c0.5-0.5,0.3-1.1,0.4-1.8c-1,0.7-1.9,1.2-2.6,1.9c-0.7,0.7-1.1,1.7-1.7,2.6  c-0.1-0.8,0.6-1.3,0.8-2c-0.2-0.1-0.4,0-0.5,0.1c-1.3,0.9-2.6,1.7-3.9,2.5c-1.8,1-3,2.5-3.6,4.5c-0.1,0.3-0.1,0.6-0.5,0.7  c0.2-0.8-0.3-1.5,0.1-2.4c-1,0.5-2,1-2.8,1.8c-0.4,0.3-0.7,0.8-1.1,1.1c-0.1,0-0.2,0.2-0.2,0.2c0.4,0.6,0.2,1.1-0.4,1.5  c0.2,0.5-0.1,0.9-0.1,1.4c0,2.4-0.3,4.9-0.2,7.3c0.1,1.2-0.1,2.5,0,3.7c0.1,1.3,0.5,2.6,0.8,4c0,0.2,0.2,0.3,0.4,0.4  c0.2,0.1,0.3,0.4,0,0.5c-0.3,0.1-0.2,0.3-0.2,0.5c0.2,1.4,0.5,2.7,0.2,4.1c-0.2,1.3,0.4,2.7,0,4.1c0.3,1.7,0.3,3.5,0.3,5.2  c0,0.5,0,1,0,1.5c0,0.5,0.3,1,0.1,1.6c-0.2-0.4-0.3-0.7-0.3-1c0-1.1-0.1-2.1-0.2-3.2c-0.1-1-0.3-1.9-0.4-2.8  c-0.4-2.9-0.1-5.8-0.4-8.7c0-0.1,0-0.2,0-0.3c0.2-0.7,0-1.3-0.3-2.2c-0.1,0.6-0.2,1.1-0.2,1.5c0.1,1.7,0,3.4,0.1,5  c0.1,2.1-0.3,4.2,0.4,6.2c0,0.1,0,0.3,0,0.4c0,1.6,0.2,3.3,0.3,4.9c0,1,0.5,1.8,1.3,2.5c0.7,0.5,1,0.4,2.1-0.3  c0.6-0.4,0.2-0.8,0.1-1.2c-0.1-0.2-0.2-0.4-0.2-0.7c0.9,0,1.5,1,2.4,0.8c-0.5-0.9-1-1.7-1.3-2.6c0.3,0.3,0.6,0.7,0.8,1.1  c0.2,0.3,0.4,0.7,0.6,1c0.1,0.2,0.4,0.3,0.6,0.3c0.3-0.1,0.3-0.3,0.2-0.6c-0.1-0.5,0.2-1,0.7-1.2c0.9-0.3,1.6-1,2.4-1.4  c0.8-0.4,0.8-0.4,0.5-1.3c0.3,0.2,0.7,0.3,1,0.5c0.1,0,0.2,0,0.3-0.1c0.1-0.1,0-0.2-0.1-0.2c-0.4-0.2-0.8-0.2-1.2-0.1  c-0.3-0.5-0.8-0.8-0.6-1.5c0.3,0.2,0.6,0.3,0.8,0.6c0.6,0.6,1.3,1,2.2,0.9c0.3,0,0.6-0.2,0.7-0.6c0-0.4-0.3-0.4-0.6-0.5  c-0.5-0.2-1-0.3-1.5-0.6c-0.3-0.2-0.4-0.4-0.2-0.7c0.4,0.3,0.7,0.5,1,0.7c0.4,0.2,0.9,0.4,1.2,0c0.3-0.3,0-0.7-0.2-1  c-0.3-0.8-0.7-1.5-0.9-2.4c0.4,0.3,0.5,0.6,0.6,0.9c0.1,0.2,0.3,0.3,0.5,0.3c0.3,0,0.3-0.3,0.3-0.4c0.1-0.4,0.2-0.9,0.2-1.3  c0.3,0.3,0.5,0.6,1.1,0.5c-0.5-1.3-1.1-2.5-1.4-3.9c0.7,1.4,1.3,2.9,2,4.3c0.5-0.3,1-0.4,1.4-0.7C66.4,76,66,76,65.6,75.8  c-0.3-0.2-0.2-0.4,0.1-0.6c0.2-0.1,0.5-0.2,0.6,0.1c0.2,0.5,0.7,0.6,1.2,0.6c0.5,0,0.7-0.2,0.5-0.7c-0.5-1.1-1-2.1-1.5-3.2  c-0.3-0.7-0.5-1.3-1-1.9l-0.1-0.1c0.1-0.6-0.3-1.1-0.4-1.7l0,0c0.2,0.1,0.4,0.2,0.5,0.5c0.2,0.5,0.5,1.1,0.7,1.6  c0.5,1.5,1.3,2.8,1.9,4.2c0.4,0.9,0.7,1,1.6,0.3c-0.6-0.4-1.3-0.5-1.6-1.4c0.5,0.2,0.8,0.6,1.2,0.8c0.7,0.2,0.7,0.2,0.8-0.5  c0.1-1.3,0.2-2.6,0.2-4c0-0.2-0.1-0.4,0.2-0.4c0.1,0,0.1,0.2,0.1,0.3c-0.2,1.3-0.2,2.7-0.2,4.1c0,0.1,0,0.2,0,0.3  c0,0.4,0.1,0.6,0.6,0.4c0.1-0.1,0.3-0.1,0.4-0.2c0.4-0.1,0.5-0.3,0.3-0.7c-0.1-0.2-0.1-0.5-0.3-0.7c-0.5-0.4-0.4-0.9-0.4-1.4  c0.5,1.3,1.7,1.3,2.7,1.6c0.3-0.4,0.1-0.7,0.2-1.1c0-0.4-0.4-0.4-0.5-0.6c0-0.2,0.5-0.2,0.5-0.6c0-0.5-0.1-1.1-0.6-1.4  c-0.1-0.1-0.5-0.2-0.3-0.3c0.4-0.3-0.2-0.7,0.2-1c0.4,0.2,0.2,0.7,0.6,0.9c0.3-0.2,0-0.5,0.2-0.7c0.2,0.1,0.1,0.2,0.1,0.4  c0.1,0.9,0.1,0.9,0.9,1.2c0.8,0.3,1.5,0.2,2.3-0.1l0,0c0.1,0.4-0.6,0.3-0.5,0.7c0.3,0.3,0.7,0.3,1.1,0.5c0.3,0.1,0.7,0.5,1.1,0.2  c0.3-0.3,0.1-0.7,0.1-1.1c0-0.4-0.3-0.7-0.7-0.8c-0.9-0.3-1.7-0.7-2.6-1c-0.3-0.1-0.7-0.3-0.8-1c1.1,0.8,2.2,1.3,3.5,1.6  c-0.3-0.9-0.7-1.5-1-2.2c-0.6-1.1-1.6-1.6-2.6-2.4c0.3-0.4,0.7-0.3,1-0.4c-0.3,0.2-0.6,0.4-0.1,0.7c0.2,0.1,0.4,0.3,0.8,0.3  c-0.1-0.5-0.1-0.9-0.7-1c0.1-0.4,0.1-0.7-0.1-1.1c-0.1-0.3-0.4-0.6-0.2-1l0,0c0.4,0.2,0.4,0.6,0.6,1c0.2,0.4,0.4,0.5,0.8,0.4  c-0.3,0.3-0.4,0.6-0.2,1.1c0.1,0.2,0.2,0.4,0.3,0.7c0.2,0.6,0.6,0.6,1.1,0.5c-0.1,0.3-0.1,0.6,0.3,0.4c0.2-0.1,0.4-0.3,0.7-0.1  c-0.2,0.2-0.7,0.5,0,0.7c0.3,0.1,0.6,0.2,0.9,0.3c0.3,0.3,0.6,0.5,1,0.6c0.5,0.2,0.8-0.2,1.1-0.5c0.2-0.2,0-0.5-0.1-0.7  c-0.2-0.4-0.6-0.1-0.8-0.1c0.1-0.3,0.1-0.4-0.2-0.6c-0.2-0.1-0.4-0.3-0.8-0.2c-0.3,0.1-0.7,0.4-1.1,0.4c0.1-0.4,0.5-0.4,0.8-0.7  c-0.2-0.4-0.5-0.2-0.7-0.3c0-0.2-0.2-0.4-0.2-0.7c0.8,0.6,1.2-0.1,1.8-0.3c-0.1,0.1-0.1,0.2-0.2,0.3c-0.1,0.2-0.4,0.2-0.4,0.4  C80.1,64.8,80.5,64.7,80.7,64.8z M57.6,85.9c0.2-0.1,0.3-0.2,0.5-0.4c0.2-0.2,0-0.4-0.1-0.6c-0.1-0.1-0.2-0.1-0.3-0.1  c-0.2,0.1-0.2,0.3-0.2,0.5C57.5,85.5,57.5,85.7,57.6,85.9c0.3,0.3,0.6,0.6,1.1,0.5C58.6,85.4,57.9,86,57.6,85.9z M13.1,28  c-0.2-0.1-0.3-0.1-0.5-0.2c-0.3-0.1-0.5,0-0.5,0.3c0,0.3,0.2,0.4,0.5,0.4C13,28.6,13.2,28.4,13.1,28c0.2,0,0.6,0.3,0.7,0  c0.2-0.3-0.3-0.4-0.5-0.6c-0.1-0.1-0.3-0.2-0.5-0.1C12.7,27.6,13.1,27.8,13.1,28z M87,24.3c0.1,0.2-0.2,0.5,0.2,0.5  c0.1,0,0.3-0.1,0.3-0.2C87.5,24.2,87.2,24.4,87,24.3c-0.6-0.3-1.1-0.8-2.1-0.7C85.7,24.1,86.3,24.3,87,24.3z M12.9,25.2  c-0.1,0-0.2-0.1-0.3-0.1c-0.4-0.1-0.7,0.1-0.8,0.5c0,0.2,0.2,0.3,0.3,0.3c0.4,0,0.7-0.1,0.7-0.5C12.9,25.3,12.9,25.3,12.9,25.2  c0.4,0,0.8,0.1,0.9-0.5c0-0.1-0.1-0.2-0.2-0.2C13.2,24.6,12.8,24.6,12.9,25.2z M80.7,73c-0.6,0.6-0.6,0.6,0,0.8c0.1,0,0.1,0,0.2-0.1  C81,73.5,80.6,73.3,80.7,73c-0.5-0.7-0.8-0.7-1.2-0.3c-0.1,0.1-0.2,0.2-0.1,0.4c0.1,0.1,0.2,0.2,0.3,0.2C80,73.2,80.3,73.1,80.7,73z   M32.4,16.1c0.1,0,0.1-0.1,0.2-0.1c0.1-0.1,0.4-0.2,0.2-0.5c-0.2-0.2-0.4-0.2-0.6-0.1c-0.3,0.3,0.1,0.3,0.2,0.5  C32.4,15.9,32.4,16,32.4,16.1c0.2,0.5,0.5,0.8,1,0.8c-0.1,0.5,0.5,0.5,0.6,0.8c-0.2,0.2-0.3,0.2-0.5,0.2c-0.2-0.1-0.4-0.2-0.6-0.3  c-0.4-0.1-0.7,0-0.9,0.4c-0.1,0.3,0.2,0.4,0.4,0.6c0.2,0.1,0.4,0.3,0.7,0.4c-0.1,0.1-0.1,0.2-0.2,0.2c-0.8,0.1-1.2-0.9-2-0.8  c0-0.1,0-0.2,0-0.3c0.1-0.3-0.1-0.5-0.4-0.5c-0.3,0-0.7,0.1-0.8,0.4c-0.1,0.3,0.2,0.4,0.5,0.5c0.1,0,0.2,0.1,0.2,0.2  C30,19.3,30,19.3,31,20.2c-0.4,0.2-0.7-0.1-0.9-0.3c-0.2-0.2-0.5-0.3-0.5,0c-0.1,0.5-0.6,0.3-0.8,0.5c0.1,0.4,0.6,0.5,0.5,0.9  c-0.4,0.1-0.6-0.2-0.8-0.4c-0.3-0.2-1,0-1.3,0.3c-0.4,0.4,0.3,0.4,0.3,0.7c-0.1,0-0.1,0.1-0.2,0.1c-1-0.3-1.8,0-2.3,0.9  c-0.1,0.1-0.1,0.2-0.2,0.1c-0.7-0.1-0.9,0.6-1.4,0.8c-0.4,0.2-0.4,0.5,0,0.8c0.4,0.3,0.8,0.6,1.1,1.2c-0.8-0.3-1.2-0.9-1.9-1  c-0.3,0.3,0.3,0.6,0,0.9l0,0c0-0.1-0.1-0.2-0.1-0.3c-0.4-0.5-0.5-0.5-0.8,0.1c-0.1,0.2-0.2,0.2-0.3,0.2c-0.4-0.1-0.5,0.3-0.8,0.4  c-0.5,0.2-0.2,0.9-0.7,0.9c-0.5,0-0.5-0.6-0.8-0.9c-0.8-0.7-0.8-0.7-1.7,0c1.1,0.8,1.6,2,2.7,2.8c0.2,0.1,0.3,0.3,0.3,0.5l0,0  c-0.3,0.2-0.6-0.5-0.8-0.1c-0.2,0.4,0.3,0.5,0.5,0.7c0.2,0.3,0.5,0.5,0.8,0.7c0.4,0.4,0.9,0.7,1.2,1.2c-0.6-0.1-1-0.6-1.4-1  c-0.4-0.3-0.7-0.7-1.2-0.9c-0.2-0.1-0.6-0.3-0.8,0c-0.2,0.4,0.2,0.5,0.4,0.6c0.4,0.4,0.8,0.7,1.2,1c0.5,0.4,1,0.7,1.6,0.9  c0.3,0.1,1.1,0,0.2,0.6c-0.1,0.1,0,0.2,0.1,0.3c0.2,0.2,0.5,0.3,0.7,0.5c1,0.7,2.1,1.1,3.2,1.7c2.5,1.4,4.8,3.1,7.3,4.6  c1.5,1,3.1,2,4.7,2.8c2.5,1.4,5.1,2.7,7.6,4.1c1.1,0.6,2.2,1.1,3.3,1.6c0.4,0.2,0.7,0,0.7-0.3c-0.1-0.5,0.2-0.6,0.4-0.8  c0.6-0.6,1.4-1,2-1.5c1.2-1,2.3-2,3.5-3c0.2-0.1,0.3-0.4,0.5-0.4c0.8-0.1,1.3-0.6,1.9-1c0.6-0.4,1.2-0.9,1.9-1.2  c0.6-0.3,1.3-0.7,1.9-1.1c1.2-1,2.4-2,3.8-2.8c1.3-0.7,2.5-1.7,4-2.1c0.1,0,0.1-0.1,0.2-0.2c1.1-1.2,2.4-2.3,3.8-3.3  c0.4-0.3,0.7-0.7,1.3-0.7c-2.1,2-4.3,3.9-6.3,6.1c0.8-0.4,1.6-0.9,2.4-1.4c0.6-0.4,1.5-0.6,1.5-1.6c0-0.1,0.1-0.1,0.1-0.2  c0.9-0.7,1.8-1.3,2.6-2c0,0,0.1,0,0.2,0.1c-0.2,0.5-0.8,0.7-1,1.3c1.5-1.1,3.6-1.7,4.6-3.8c-0.5,0.4-0.9,0.7-1.3,1  c-0.3,0.3-0.7,0.5-1.1,0.7c-0.2,0.1-0.3,0-0.4-0.1c-0.1-0.1,0-0.2,0.1-0.3c0.3-0.2,0.6-0.5,1-0.7c0.6-0.4,1.2-0.9,1.8-1.3  c0.3-0.2,0.1-0.7,0.5-0.7c0.9,0,1.3-0.8,1.9-1.2c-0.2-0.5-0.8-0.5-1.1-1c0.5,0,0.9,0,1.3,0.3c0.3,0.2,0.5,0,0.7-0.2  c0.1-0.1,0.2-0.3,0.1-0.4c-0.5-0.5-0.7-1.2-1.6-1.4c-0.4-0.1-0.9-0.2-1.3-0.8c1.5,0.2,2.7,1,4.1,1.2c-0.1-0.2-0.2-0.3-0.3-0.3  c-1.6-0.7-3-1.7-4.5-2.6c-0.3-0.2-0.5-0.3-0.8-0.1c-0.7,0.4-1.5,0.8-2.2,1.3c1.3,0.8,2.6,1.4,3.8,2.3c-0.9-0.4-1.7-0.8-2.6-1.2  c-0.5-0.2-0.9-0.7-1.4-0.7c-0.6-0.1-0.7-0.3-0.7-0.8c1.3,0.3,1.9-0.9,2.9-1.1c-0.2-0.7-0.9-0.6-1.1-1.1c0.4-0.1,0.7,0.2,1,0.4  c0.7,0.5,1.4,0.3,2-0.2c-0.4-0.5-0.9-0.7-1.4-0.9c-0.4-0.2-0.7,0.2-1.1,0.3c-0.2,0-0.4,0-0.5,0.1c0.4-0.3,0.6-0.5,0-0.8  c-0.3-0.2-0.6-0.4-0.9-0.5c-0.9-0.5-1.9-0.3-2.6,0.5c-0.1,0.1,0,0.3-0.2,0.2c-0.4-0.2-0.7,0.3-1.2,0.1c0.4-0.4,0.4-0.6-0.1-0.9  c-0.5-0.2-1-0.5-1.5-0.8c-0.2-0.1-0.4-0.3-0.6-0.2c-0.4,0.1-0.4,0-0.6-0.3c-0.3-0.6-1.1-0.7-1.7-1c-0.4-0.2-0.6,0.2-1,0.3  c-0.1,0-0.2,0-0.3-0.1c0.1-0.3,0.5-0.4,0.5-0.7c-2.2-1.3-1.9-1.4-2.6-0.9c0.4,0.5,1.1,0.7,1.6,1.4c-0.6-0.1-1-0.5-1.4-0.7  c-0.8-0.5-0.8-0.5-1.5,0.1c0.1,0.7,0.7,1,1.2,1.3c1,0.6,2.1,1.2,3.1,1.9c0.8,0.5,1.7,0.9,2.5,1.6c-0.3,0.1-0.4,0-0.5-0.1  c-1.3-0.7-2.6-1.4-3.8-2.1c-1.1-0.7-2.1-1.4-3.3-2c-1-0.5-2-1-3-1.7c-0.5-0.3-1-0.6-1.5-0.8c-0.7-0.4-1.5-0.6-2-1.3  c-0.1-0.8-0.5-1.2-1.2-1.1c0.3,0.5,1,0.5,1.2,1.1c-0.5-0.2-1-0.4-1.5-0.7c-0.4-0.2-0.6,0-0.8,0.3c-0.2,0.3,0.1,0.5,0.3,0.6  c0.4,0.2,0.8,0.6,1.4,0.5c0.5-0.1,0.2,0.4,0.3,0.6c-0.4,0.1-0.7-0.2-1.1,0.1c1.2,1.2,2.9,1.8,4.3,2.8c-0.5-0.1-1-0.2-1.5-0.5  c-0.9-0.6-1.9-1.1-2.8-1.7c-0.3-0.2-0.5-0.5-0.9-0.3c-0.2,0.1-0.3,0-0.3-0.2c0.1-0.6-0.5-0.8-0.8-1c-0.6-0.3-1-0.9-1.5-1.4  c-0.4-0.4-1.2-0.4-1.2-1.3c0-0.2-0.5-0.5-0.8-0.3c-0.3,0.1-0.7,0.1-0.9,0.5c0.9,0.7,2,1.2,2.8,2.1c-0.5-0.2-1-0.5-1.4-0.7  c-0.3-0.2-0.6-0.3-0.9-0.2c-0.4,0.2-0.8,0.4-1.4,0.7c0.5,0.3,1,0.6,1.4,0.8c0.3,0.2,0.6,0.2,0.9,0c0.4-0.3,0.9-0.4,1.4-0.6  c0.2,0.1,0.5,0.1,0.5,0.2c0,0.8,0.7,0.8,1.1,1.1c0.4,0.3,1,0.5,1.2,1c-0.1,0.3-0.5,0.4-0.7,0.5c-1,0.5-1.9,0.9-2.9,1.4  c-0.2,0.1-0.4,0.4-0.6,0.1c-0.1-0.3,0.1-0.5,0.4-0.6c0.2-0.1,0.4-0.1,0.6-0.2c0.9-0.4,1.9-0.7,2.8-1.3c-0.2-0.1-0.3-0.2-0.4-0.3  c-1-0.7-1-0.6-2,0.1c-0.1,0-0.1,0.1-0.2,0.1c-1,0-1.8,0.7-2.6,1.2c-1.4,0.8-2.8,1.7-4.2,2.5c-0.2-0.4,0-0.7,0.3-0.8  c1.2-0.5,2.2-1.2,3.4-1.9c0.7-0.4,1.5-0.7,2.2-1.3c-0.3-0.4-0.6-0.5-1.1-0.3c-0.5,0.2,0,0.6-0.3,0.8c-0.4-0.3-1-0.3-1.5,0  c-1.2,0.7-2.4,1.4-3.6,2.1c-0.5,0.3-0.8,0.6-0.6,1.3c-0.7-0.4-1.2-0.2-1.6,0.1c-0.1,0.1-0.3,0.2-0.5,0.3c-0.9,0.6-0.9,0.6-0.1,1.3  c0,0,0,0.1,0,0.2c-0.2,0.1-0.4-0.1-0.5-0.2c-0.8-0.6-1.8-1-2.7-1.3c-0.2-0.1-0.4-0.2-0.5,0c-0.2,0.3,0,0.4,0.2,0.5  c0.4,0.3,0.8,0.6,1.2,0.9c-0.4,0.2-0.7,0-0.9-0.2c-0.4-0.3-0.7-0.8-1.4-0.6c-0.1,0-0.1-0.1-0.2-0.2c-0.2-1.3-0.3-1.4-1.5-1.2  c0.4-0.8,0.3-1-0.6-0.9C32.7,16,32.6,16,32.4,16.1z M84.1,56.7c-0.3,0.3-0.2,0.5,0.1,0.7c0.1,0.1,0.3,0.1,0.3-0.1  C84.5,57.1,84.5,56.8,84.1,56.7C84.1,56.7,84.1,56.7,84.1,56.7c0-0.2,0.5-0.5-0.1-0.8c-0.4-0.2-0.7,0.2-0.9,0.4  C83,56.4,83,56.5,83,56.6c0.2,0.3,0.5,0.3,0.8,0.2C83.9,56.8,84,56.7,84.1,56.7z M32.2,13.8c0,0,0,0.1,0,0.1c0,0.2-0.2,0.5,0.2,0.6  c0.2,0,0.6-0.1,0.6-0.3c0-0.3-0.3-0.3-0.6-0.3C32.3,13.8,32.3,13.8,32.2,13.8c-0.1-0.2,0.1-0.4-0.2-0.6c-0.3,0.2-0.8,0.2-1,0.6  C31.7,14.2,31.7,14.2,32.2,13.8z M29.8,84.2c0.6,0.1,0.7-0.3,0.6-0.7c-0.2-0.6-0.7-0.3-1.3-0.3C29.6,83.6,29.8,83.9,29.8,84.2  c-0.2,0.2-0.3-0.3-0.5,0c0,0.2,0.2,0.3,0.4,0.4c0.1,0.1,0.2,0.2,0.2-0.1C29.9,84.4,29.9,84.3,29.8,84.2z M84.5,37.1  c0.1-0.1,0.2-0.3,0-0.3c-0.3,0-0.7,0.1-0.8,0.5C84.1,37.4,84.3,37.1,84.5,37.1c0,0.1-0.1,0.2-0.1,0.3c-0.3,0.5,0.2,0.6,0.5,0.7  c0.5,0.1,0.3-0.3,0.4-0.6C85.4,36.7,84.8,37.1,84.5,37.1z M28.8,16.8c0,0.1,0,0.1-0.1,0.2c-0.3,0.4-0.1,0.6,0.3,0.7  c0.3,0.1,0.6-0.1,0.7-0.4c0.1-0.3-0.2-0.4-0.5-0.4C29.1,16.8,28.9,16.8,28.8,16.8c-0.1-0.7-0.6-0.8-1.1-0.8  c-0.1-0.3-0.4-0.4-0.7-0.6c-0.5-0.3-0.9-0.2-1.1,0.2c-0.3,0.5,0.2,0.6,0.5,0.7c0.4,0.3,0.8,0.4,1-0.2c0.1-0.2,0.3-0.2,0.4-0.2  c0,0.3-0.4,0.5-0.3,0.9C27.9,16.7,28.4,17,28.8,16.8z M73.5,74.9c-0.1,0.1-0.1,0.2-0.2,0.3c-0.1,0.1-0.3,0.2-0.2,0.3  c0.1,0.1,0.2,0.2,0.4,0.1c0.1,0,0.3-0.1,0.3-0.3C73.9,75.1,73.6,75.1,73.5,74.9c0-0.1,0.1-0.1,0.2-0.2c0.1-0.1,0.2-0.3,0.1-0.5  c-0.1-0.2-0.3-0.1-0.5-0.1c-0.1,0-0.1,0-0.2,0c-0.3,0.1-0.6,0.2-0.5,0.6c0.1,0.3,0.4,0.3,0.6,0.2C73.3,75,73.4,74.9,73.5,74.9z   M80.7,75.6c-0.3,0.1-0.7,0-1,0.3c-0.1,0.1-0.3,0.2-0.4,0.4c-0.1,0.2,0,0.4,0.2,0.4C79.9,76.7,80.5,76,80.7,75.6  c0.2,0.1,0.4,0.1,0.6,0c0.3-0.1,0.4-0.3,0.4-0.6c-0.1-0.4-0.4,0-0.6-0.1c0.2-0.3,0.3-0.7-0.2-0.8c-0.4-0.1-0.8-0.4-1.3-0.4  c-0.1,0.4-0.3,0.9,0.1,1.3c0.4,0.3,0.8,0.1,1.2-0.1c0.1,0,0.1,0,0.2,0C80.9,75.2,80.7,75.3,80.7,75.6z M66.9,82.4  c0-0.2,0.3-0.3,0.1-0.4c-0.1-0.1-0.3-0.1-0.4,0.1C66.6,82.2,66.8,82.3,66.9,82.4c-0.1,0.2-0.6,0.5,0,0.7c0.3,0.1,0.7,0.1,1-0.1  c0.1-0.1,0.1-0.2,0-0.4C67.7,82.2,67.4,82.3,66.9,82.4C67,82.4,67,82.4,66.9,82.4z M64.4,78.1c0-0.1,0.1-0.1,0.1-0.2  c0.1-0.1,0.3-0.3,0.1-0.4c-0.2-0.2-0.4-0.3-0.7-0.2c-0.2,0.1-0.2,0.3-0.2,0.5C63.7,78.3,64.2,78,64.4,78.1c0.1,0.2-0.2,0.3-0.2,0.6  c0.5,0.1,0.9,0.4,1.5,0.3C65.4,78,65.4,78,64.4,78.1z M85.2,43.7c0,0.2-0.2,0.3-0.3,0.4c-0.1,0.1-0.2,0.3,0,0.4  c0.1,0.1,0.2,0.2,0.4,0.1c0.1-0.1,0.2-0.2,0.2-0.4C85.4,44.1,85.1,44,85.2,43.7c-0.2-0.2-0.4-0.4-0.6-0.6c-0.3-0.3-0.6-0.1-0.8,0.1  c-0.1,0.1-0.3,0.2-0.2,0.4c0.2,0.3,0.5,0.5,0.8,0.4C84.6,44,84.9,43.9,85.2,43.7z M23.6,20.2c0-0.1-0.1-0.1-0.1-0.2  c0-0.3,0.3-0.5-0.1-0.7c-0.4-0.2-0.7,0-1,0.2c-0.2,0.1-0.2,0.3,0,0.5c0.3,0.2,0.7,0.4,1,0.5C23.5,20.5,23.6,20.3,23.6,20.2  c0.3,0.2,0.5,0,0.8-0.3C23.9,19.8,23.8,20.1,23.6,20.2z M87.4,61.8c-0.5-0.2-1.1-0.5-1.6,0c-0.3,0.3-0.3,0.5,0.1,0.7  c0.3,0.2,0.5,0.1,0.8-0.1C86.8,62.3,87,61.9,87.4,61.8c0-0.2,0.1-0.4,0.1-0.6c0-0.1,0-0.3-0.2-0.3c-0.1,0-0.1,0-0.2,0.1  c-0.1,0.1-0.2,0.2-0.1,0.3C87.1,61.5,87.2,61.7,87.4,61.8z M77.8,73.5c-0.1-0.1,0-0.4-0.3-0.3c-0.4,0.1-0.8,0.3-1.2,0.7  C76.9,74.1,77.3,73.4,77.8,73.5c0,0.4-0.6,0.3-0.5,0.7c0.3,0.2,0.6,0.2,0.9,0.1c0,0.2,0.2,0.3,0.3,0.4c0.2,0.1,0.5,0.1,0.5-0.2  c0-0.3-0.2-0.3-0.4-0.2c0.1-0.3,0.5-0.4,0.3-0.7c-0.2-0.4-0.6-0.1-0.8,0C77.9,73.5,77.8,73.5,77.8,73.5z M63.7,83.9  c0.1-0.6,0.8-0.4,1-0.8c-0.2-0.3-0.5-0.2-0.7-0.3c-0.5-0.1-0.7,0.1-0.6,0.6C63.5,83.7,63.6,83.8,63.7,83.9c-0.1,0.2-0.3,0.4-0.2,0.6  c0.2,0.3,0.5,0.2,0.7,0.1c0.3-0.1,0.5-0.3,0.7-0.4c0.3-0.1,0.4-0.2,0.3-0.5c-0.2-0.3-0.4-0.2-0.6-0.1C64.3,83.7,64,83.8,63.7,83.9z   M75,80.4c-0.1-0.1,0.1-0.4-0.2-0.5c-0.1,0-0.3,0.1-0.3,0.3C74.6,80.5,74.8,80.3,75,80.4c-0.4,0.3-0.7,0.6-0.4,1.1  c0.1,0.2,0.1,0.5,0.4,0.4c0.3-0.1,0.7-0.2,0.6-0.7C75.5,80.9,75.4,80.5,75,80.4z M44.9,12.5c-0.4-0.5-0.6-0.5-1.1,0.2  C44.2,12.7,44.5,12.4,44.9,12.5c-0.5,0.5-0.5,0.5,0,1.1c-0.8-0.5-1.6-0.4-2.3,0.1c-0.4,0.3-0.9,0.5-1.4,0.6c0.6-0.5,1.3-1,1.3-1.9  c-0.5,0-0.8,0.3-1.1,0.6c-0.2,0.2-0.4,0.3-0.6,0c-0.4-0.6-0.9-0.2-1.4-0.1c0-0.3,0.2-0.6-0.2-0.8c-0.3-0.1-0.6-0.3-1-0.5  c-0.2-0.1-0.4-0.1-0.6,0.1c-0.1,0.2-0.1,0.4,0.1,0.6c0.4,0.6,1,0.9,1.6,1.2c0.3,0.1,0.6,0.1,0.7,0.4c0.3,0.5,0.7,0.4,1.1,0.4  c0,0.5-0.5,0.5-0.8,0.7c-0.4,0.2-0.8,0.3-0.6,0.8c-0.3,0.1-0.5-0.3-0.8,0c-0.5,0.4-1.2,0.6-1.8,1.1c0.3,0.3,0.6,0.6,0.9,0.9  c0.1,0.1,0.3,0.2,0.4,0.1c0.6-0.6,1.5-0.6,2-1.3c-0.2-0.4-0.7-0.4-0.8-0.8c0.3,0,0.6,0.2,0.9,0.4c0.3,0.2,0.5,0.3,0.9,0  c0.9-0.7,2-1.3,3-1.9c0.3-0.1,0.5-0.3,0.5-0.6c0.6,0.2,1,0,1.4-0.6C45.8,12.7,45.4,12.4,44.9,12.5z M71.8,80  c-0.1,0.1-0.3,0.3-0.3,0.4c0.1,0.3,0.4,0.4,0.6,0.5c0.2,0.1,0.5-0.1,0.5-0.4c0-0.4,0.2-0.4,0.5-0.4c0.2,0,0.5,0,0.6-0.4  c-0.4-0.1-0.8-0.1-1.2,0.1c0-0.2,0-0.4-0.2-0.4c-0.5-0.2-1-0.3-1.6-0.3C70.9,79.9,70.9,79.9,71.8,80z M10.9,57.8  c0.9-0.2,0.3-0.9,0.4-1.3c0.1-0.4-0.3-0.6-0.6-0.7c-0.1,0-0.3,0.1-0.3,0.2C10.3,56.7,10.3,57.4,10.9,57.8c-0.1,0-0.3,0-0.4,0.2  c0,0.2,0.1,0.3,0.2,0.3c0.2,0,0.4,0.1,0.4-0.1C11.3,58,11,58,10.9,57.8z M85.6,55.6c0-0.4,0.4-0.6,0.4-0.9c-0.4-0.2-0.6,0.1-0.8,0.2  c-0.2,0.1-0.4,0.3-0.4,0.6C85,55.9,85.3,55.6,85.6,55.6c-0.2,0.3-0.5,0.4-0.2,0.8c0.3,0.2,0.5,0.4,0.8,0.1c0.2-0.1,0.3-0.3,0.5-0.4  c0.4-0.2,0.2-0.4,0.1-0.7c-0.2-0.3-0.4-0.4-0.7-0.1C86,55.4,85.8,55.5,85.6,55.6z M16.3,59.1c0.2,0,0.5,0.2,0.6,0  c0.2-0.2,0-0.4-0.2-0.5c-0.1-0.1-0.3-0.2-0.1-0.4c0.1-0.1,0.4,0,0.3-0.3c-0.1-0.2-0.3-0.2-0.4-0.3c-0.2-0.1-0.4-0.3-0.8-0.3  c-0.3,1-0.3,1,0.3,1.5C16.2,58.9,16.3,59,16.3,59.1c-0.2,0.1-0.4-0.1-0.5-0.1c-0.2,0-0.3,0.2-0.3,0.3c0.1,0.4,0.5,0.2,0.7,0.2  C16.6,59.5,16.2,59.2,16.3,59.1z M86.5,33c0-0.4-0.1-0.5-0.5-0.4c-0.2,0.1-0.5,0.1-0.4,0.5c0.1,0.3,0.3,0.3,0.6,0.2  c-0.2,0.4,0.2,0.5,0.5,0.7c0.1,0.1,0.1,0.1,0,0.2c-0.2,0-0.4-0.2-0.6-0.2c0.2,0.8,0.2,0.8,0.5,0.7c0.6-0.2,1-0.7,0.8-1.4  C87.3,32.9,86.9,32.9,86.5,33z M59.7,84.9c0-0.2,0.3-0.4-0.1-0.7c-0.6-0.4-0.9,0.1-1.4,0.3c0.3,0.4,0.5,0.7,1,0.4  C59.4,84.9,59.6,84.9,59.7,84.9c0,0-0.1,0.1-0.2,0.2c-0.7,0.5-0.7,0.7-0.2,1.2c0.2,0.2,0.4,0.4,0.8,0.3c0.3-0.1,0.2-0.4,0.2-0.6  c0-0.2,0-0.4,0.1-0.5C60.5,84.8,60.1,84.8,59.7,84.9z M16.1,68.1c-0.1,0-0.3,0-0.4-0.1c-0.3-0.1-0.6-0.3-0.7,0  c-0.2,0.3,0,0.6,0.3,0.8c0.5,0.3,0.9,0.7,1.4,0.8C16.7,68.6,16.7,68.6,16.1,68.1c0.2-0.1,0.7-0.1,0.3-0.4c-0.3-0.3-0.8-0.7-1.4-0.6  c0.1,0.5,0.4,0.6,0.8,0.6C16,67.8,16.1,67.9,16.1,68.1z M85.7,58.6c0.7,0.3,1.2,0,1.5-0.6c-1.1-1-1.2-1-2.1-0.1  C85.2,58.2,85.7,58.3,85.7,58.6c-0.2,0.2-0.4-0.2-0.7,0c0.1,0.3,0,0.6,0.2,1C85.9,59.3,85.9,59.3,85.7,58.6z M82.8,65  c0.2-0.4,0.6-0.5,0.9-0.7c0.2-0.1,0.3-0.3,0.1-0.5c-0.2-0.2-0.5-0.3-0.8-0.2c-0.3,0.2-0.8,0.2-0.8,0.7C82.2,64.8,82.5,64.9,82.8,65  c0,0.1-0.1,0.2-0.2,0.2c-0.3,0.2-0.3,0.5-0.1,0.7c0.2,0.3,0.5,0.1,0.7-0.1c0.4-0.3,0.8-0.6,1.2-0.9c0.2-0.2,0.4-0.3,0.3-0.6  c-0.2-0.2-0.4-0.2-0.7,0C83.7,64.6,83.3,65,82.8,65z M54.1,6.2c0.3-0.1,0.6,0.5,1,0.2c-1.3-1.3-4-3-5-3.4c0.1,0.1,0.1,0.2,0.2,0.3  c1,0.8,2.1,1.5,3.1,2.3C53.6,5.8,54,5.9,54.1,6.2c-0.3,0.1-0.6-0.1-0.8-0.3c-0.2-0.1-0.4-0.3-0.7-0.3c-0.2,0-0.4,0-0.5,0.2  c-0.1,0.2,0.1,0.4,0.2,0.4c0.4,0.1,0.9,0.3,1.2,0.6C53.8,6.9,54,7,54.2,6.9C54.5,6.6,54,6.5,54.1,6.2z M75.1,75.1  c0.1-0.3,0.6-0.4,0.6-0.9c-0.6,0-0.9,0.3-1.3,0.5c-0.1,0.1-0.1,0.2-0.1,0.4c0.1,0.2,0.3,0.2,0.5,0.1c-0.1,0.2-0.4,0.2-0.4,0.5  c0.1,0.3,0.3,0.3,0.6,0.2c0.3-0.1,0.3,0.1,0.5,0.2c0.5,0.3,1,0.6,1.6,0.5c-0.2-0.6-0.5-1.2-1.3-1c0.2-0.2,0.5-0.2,0.4-0.5  c-0.1-0.2-0.3-0.3-0.5-0.2C75.4,75,75.3,75.1,75.1,75.1z M10,50.9c0.5,0.1,0.7,0.5,1.2,0.5c0.5,0.1,0.6,0,0.5-0.5  c-0.1-0.4-0.5-0.6-0.8-0.8c-0.2-0.1-0.4-0.2-0.2-0.4c0.2-0.3,0.1-0.4-0.1-0.4c-0.3,0-0.3,0.2-0.3,0.3C10.3,50.1,10.3,50.6,10,50.9  c0.2-1.2,0.2-2.2-1.1-2.7c0,0,0-0.1-0.1-0.1c0.4-0.1,1.1,0.2,1.2-0.3c0.1-0.5-0.5-0.7-1.1-0.8c0,0.4,0,0.7-0.1,1.1  c-0.5,0.3-0.2,0.8-0.2,1.3c0,0.3,0.2,0.6,0.5,0.6c0.4,0.1,0.2-0.4,0.4-0.5c0.1,0,0.1,0,0.2,0C9.6,50.1,9.6,50.6,10,50.9z M76.3,77.6  c0.3-0.3,0.5-0.6-0.2-0.8c-0.3-0.1-0.6-0.2-0.9-0.3c-0.3-0.1-0.6-0.2-0.8,0.1c-0.2,0.2-0.1,0.5,0.1,0.8c0.1,0.1,0.3,0.2,0.2,0.3  c-0.2,0.7,0.1,0.4,0.4,0.3c0.2-0.1,0.4-0.3,0.7-0.3c-0.1,0.4-0.6,0.4-0.8,0.6c-0.1,0.1-0.1,0.2-0.1,0.3c0,0.1,0.1,0.1,0.2,0.1  c0.2,0,2.3-0.9,2.4-1.1c0-0.1,0-0.2,0-0.3c-0.1-0.1-0.2-0.2-0.3-0.2C76.8,77.4,76.6,77.6,76.3,77.6z M84.6,25.3  c-0.2-0.4-0.5-0.5-1-0.7C83.8,25.2,84.3,25.2,84.6,25.3c0.1,0.1,0.2,0.2,0.2,0.3c0,0.2-0.2,0.1-0.3,0.1c-0.4-0.1-0.8-0.2-1.1-0.3  c-0.3-0.1-0.5,0.1-0.6,0.3C82.6,26,83,25.8,83.1,26c0.2,0.1,0.3,0.2,0.1,0.4c-0.1,0.1-0.2,0.2-0.4,0.1c-0.8-0.4-1.4-0.1-1.9,0.4  c-0.3,0.3-0.6,0.5-0.9,0.7c-0.3,0.2-1.1,1.6-1.2,2c1.6-0.6,2.9-1.7,4.3-2.7c0.2-0.2,0.2-0.3,0.2-0.6c0.3,0.2,0.5,0.5,0.8,0.3  c0.6-0.3,1.3-0.5,1.7-1.1C85.4,25.3,85,25.1,84.6,25.3z M41,92.5c0-0.4-0.3-0.5-0.6-0.4C40.5,92.4,40.8,92.4,41,92.5  c0.4,0.7,1.1,0.9,1.8,1.2c0-0.5,0.4-0.9,0-1.2c-0.6-0.5-1.3-1-2.2-1.3c0,0.7,0.6,0.7,0.9,1c0.1,0.1,0.2,0.2,0.1,0.4  c-0.1,0.1-0.2,0-0.3,0C41.2,92.5,41.1,92.5,41,92.5z M14.8,26.5c-0.3,0.1-0.6-0.2-1-0.1c0.8,0.8,1.6,1.4,2.4,2.2  c0.5,0.5,0.7,0.1,0.9-0.3l0,0c0,0.1,0.1,0.2,0.2,0.1c0,0,0-0.1,0-0.1c-0.7-0.4-0.9-1.3-1.7-1.6c0.4-0.8-0.5-0.8-0.7-1.2  c-0.1-0.2-0.2-0.4-0.5-0.4c-0.3,0-0.5,0.1-0.6,0.4c-0.1,0.3,0.2,0.4,0.4,0.4C14.5,26,14.9,26.1,14.8,26.5z M80.7,77.6  c0.1-0.6,0.7-0.6,1.1-0.9c0.4-0.2,0.4-0.4,0.1-0.8c-0.2,0.5-0.6,0.7-1,0.8c-0.4,0.1-0.8,0.3-1.2,0.5c-0.3,0.1-0.4,0.3-0.2,0.6  C80,77.9,80.3,77.5,80.7,77.6c-0.6,0.3-1,0.8-1.7,1c-0.2,0.1-0.2,0.3-0.1,0.4c0.2,0.4,0.5,0.4,0.8,0.2c0.7-0.4,1.4-0.8,2.1-1.1  c0.5-0.2,0.6-0.5,0.3-1c-0.2,0.1-0.5,0.2-0.7,0.3C81.2,77.5,81,77.6,80.7,77.6z M64.4,86.8c0,0.3-0.2,0.3-0.4,0.4  c-0.3,0.1-0.3,0.3-0.2,0.5c0.1,0.2,0.3,0.4,0.6,0.2c0.3-0.3,0.7-0.2,1.1-0.4c0.7-0.4,0.7-0.4,0.3-1.3C65.4,86.4,65,86.9,64.4,86.8  c0.4-0.4,0.9-0.6,1.4-0.8c0.2-0.1,0.3-0.3,0.2-0.5c-0.1-0.2-0.2-0.5-0.4-0.6c-0.3-0.1-0.2,0.2-0.3,0.4c-0.1,0.2-0.3,0.2-0.5,0.2  c-1.3,0.1-1.5,0.4-1.2,1.6C64,87.1,64.2,86.8,64.4,86.8z M69.6,81.1c0.1-0.2,0.5-0.2,0.4-0.6c-0.7-0.3-1.5-0.4-2.2-0.5  c-0.6-0.1-0.8,0.2-0.5,0.8c0.5,0.9,0.5,0.9,1.4,0.6c0.1,0,0.3-0.1,0.4-0.1c0,0.3-0.6,0.3-0.2,0.8c0.3,0.4,0.5,0.1,0.7,0  c0.1,0,0.1-0.1,0.2-0.1c0.4-0.1,0.4-0.4,0.4-0.7C70.1,80.8,69.8,81.1,69.6,81.1z M49,6.5c0,1.1,0.7,1.5,1.8,1  C50.2,7,49.7,6.7,49,6.5c-0.1-0.4,0.2-0.6,0.3-0.9c0.2-0.5,0-0.8-0.5-0.9c-0.3,0-1.5,0.6-1.6,0.9c0,0.1-0.1,0.2,0,0.3  c0.3,0.4,0.7,0.6,1.1,0.9C48.6,6.9,48.7,6.5,49,6.5z M59,13c0.3,0.3,0.6,0.8,1,0.7c0.5-0.1,0.9,0.2,1.2,0.4c0.9,0.6,0.9,0.6,1.7-0.3  c0-0.1-0.1-0.1-0.1-0.2c-0.5-0.4-1-0.8-1.5-1.2c-0.3-0.3-0.7-0.3-1-0.1C59.8,12.6,59.5,13,59,13c0.3-0.6,1-0.7,1.3-1.3  c-1.5-1.2-1.5-1.2-3.1-0.5c-0.1,0.1-0.3,0.1-0.4,0.1c0.3-0.4,0.8-0.5,1.2-0.9c-0.4-0.5-0.9-0.7-1.4-1c-0.5-0.4-0.8-0.2-1.2,0.2  c0.1,0.3,0.6,0.4,0.7,0.7c-0.5,0-0.7-0.4-1.2-0.4c0.5,0.7,1.1,1.2,1.9,1.4c0.1,0.1,0,0.4,0.2,0.5C57.7,12.2,58.2,12.7,59,13z   M39.4,7.4c1.1,0.3,1.8-0.5,2.8-0.9c-0.7,1.2-0.7,1.2,0.1,1.7c0.2-0.2,0.4-0.5,0.4-0.8c0-0.7,0.5-1.1,0.8-1.6  c0.1-0.2,0.3-0.4,0.5-0.1C44,5.7,44.2,5.9,44,6.1c-0.1,0.1-0.3,0.2-0.4,0.4c-0.2,0.2-0.2,0.4,0.1,0.5c0.2,0.2,0.4,0,0.5-0.2  c0.1-0.3,0.3-0.5,0.3-0.8c0.1-0.5,1-1.7,1.5-2c-0.4,0.5,0,1.2-0.7,1.6c-0.2,0.1,0,0.4,0.2,0.5c0.2,0.1,0.4,0.4,0.6,0.2  c0.2-0.1,0.2-0.3,0.1-0.5c0-0.2-0.1-0.4-0.1-0.6c0-0.4,0-0.8,0.6-0.8c0.3,0,0.4-0.2,0.6-0.4c0.2-0.2,0.1-0.4-0.1-0.5  c-0.3-0.2-0.6-0.2-0.9,0c-0.1-0.4-0.3-0.4-0.6-0.2c-2,1-3.7,2.3-5.7,3.4C39.7,6.9,39.4,7.1,39.4,7.4c-0.5,0.1-0.9,0.3-1.1,0.8  C38.9,8.2,39,7.7,39.4,7.4z M9.1,55.2c0-0.3-0.5-0.5-0.3-0.9c0.6-1,0-2.1,0.4-3c0.1-0.2-0.1-0.5-0.3-0.5c-0.3,0-0.3,0.3-0.3,0.4  c0,2.4-0.1,4.8-0.1,7.2c0,0.7,0,1.4,0,2c0.1,0.7-0.1,1.3-0.2,2c-0.1,1.6-0.1,3.3,0.1,4.9c0.1,1.2,0.2,2.4,0.1,3.6  c-0.1,1.1,0.2,1.8,1.3,2.2c0.2-0.9-0.9-1.3-0.9-2.1c0.4,0,0.5,0.5,1,0.3c0.1-0.3,0.2-0.7-0.1-0.8c-0.4-0.1-0.4-0.3-0.4-0.6  c0-0.6,0.3,0,0.4-0.1c0.2-0.3,0.1-1.1-0.2-1.3c-0.3-0.2-0.7-0.3-0.8-0.8c0.4-0.1,0.7,0.3,1.1,0.2c0.1-0.6,0.1-1.2,0-1.8  c-0.1-0.6-0.4,0-0.6-0.1c0-0.4,0-0.7,0-1.1c0-1.7,0-3.4-0.1-5C9.1,58.5,9.1,56.8,9.1,55.2c0.4,0.7,0.2,1.4,0.3,2.2  c0,0.4-0.1,0.8,0.1,1.2c0.3-0.1,0.3-0.3,0.3-0.5c0-0.7-0.1-1.3,0-2C9.9,55.4,9.6,55.3,9.1,55.2z M30.5,47.9c-0.2,0-0.4,0.1-0.6,0  c-0.4,0-0.5,0.2-0.4,0.5c0.1,1.3,0.3,2.5,0.4,3.8c0,0.4,0.1,0.8,0.6,1c0.4,0.2,0.7,0.6,1.1,1.1c-0.6-0.2-0.9-0.6-1.5-0.6  c-0.1,0.7,0.2,1.3-0.2,2.1c-0.1-0.8-0.2-1.4-0.2-2c0-0.4-0.2-0.6-0.5-0.8c-0.7-0.4-1.5-0.7-2.3-0.9c-0.3-0.1-0.6-0.1-0.7-0.4  c1.2-0.3,2.2,0.6,3.3,0.8c0.1-1.5-0.2-2.9-0.3-4.4c0-0.5-0.3-0.7-0.8-0.9c-1.7-0.6-3.3-1.3-5-1.9c-1-0.4-2.1-0.8-3.2-1  c-0.9-0.1-1.7-0.1-2.5-0.7c-0.1,0.3-0.2,0.6-0.1,0.7c0.5,0.5,0.9,1.1,1.6,1.3c0.5,0.1,1,0.2,1.6,0.4c-0.7,0.2-1.3-0.2-1.8,0  c0,0-0.1-0.1-0.2-0.1c-1.3-0.4-1.3-0.4-1.3,0.9c0,0.3,0.1,0.4,0.3,0.6c0.3,0.1,0.6,0.3,1,0.5c-0.3,0.1-0.5,0.1-0.7,0  c-0.5-0.2-0.6,0-0.6,0.5c0,0.7,0.1,1.3,0.2,1.9c0,0.4,0.3,0.5,0.6,0.6c0.5,0.2,1.1,0,1.5,0.4l0,0c-0.3,0.1-0.6-0.2-0.9,0.1  c-0.1,0.3,0.5,0.4,0.4,0.8c-0.6-0.1-0.9-0.7-1.5-0.7c0,0.4,0.5,0.4,0.6,0.7l-0.1,0.1c-0.6,0.1-0.8,0.3-0.5,0.8  c0.2,0.3,0.5,0.6,0.9,0.7c1.3,0.1,1.9,1,2.8,1.7c-0.4,0.1-0.6-0.2-0.8-0.3c-0.1-0.1-0.3-0.2-0.4-0.2c-0.5,0.5-0.7-0.1-1-0.3  c-0.5-0.2-0.8-0.7-1.4-0.8c-0.2,0.4-0.2,0.7,0.2,1c-0.2,1.1,0.7,0.9,1.3,1c0.3,0.1,0.6,0,0.9,0c-0.1,0.6-0.7,0.3-1,0.6  c0.5,0.4,1.1,0.8,1.6,1.2c-0.6,0-0.9-0.4-1.3-0.6c-0.3-0.2-0.7-0.3-1,0c-0.3,0.2-0.1,1.7,0.2,2c0.7,0.4,1.4,1,2.2,1.2  c0.3,0.1,0.7,0.1,1.2,0.3c-1,0.5-1.6-0.3-2.4-0.2c-0.5,0.8,0.3,1.1,0.7,1.5c-1-0.2-1-0.1-1,0.7c0,0.1,0,0.2,0,0.3  c0,0.2,0,0.4,0.3,0.5c0.4,0.1,0.4-0.2,0.5-0.4c0.1-0.1,0-0.4,0.4-0.4c-0.2,0.4,0,0.8-0.1,1.3c-0.3,1.4-0.3,1.4,0.9,2.1  c0.2,0.1,0.4,0.2,0.6,0.3c0.7,0.5,1.3,1,1.6,1.8c-0.7-0.7-1.7-0.6-2.5-0.6c-0.2,0-0.4,0-0.4,0.2c-0.1,0.4,0.1,0.8,0.5,1  c0.5,0.2,0.5-0.3,0.8-0.6c-0.1,0.7-0.2,1.3,0.7,1.4c0.3,0,0.6,0.4,0.7,0.7c-0.7,0.2-1-0.6-1.6-0.5c-0.5,1.7-0.5,1.7,1,1.6  c-0.3,0.7-0.1,1.5-0.4,2.2c0-0.5,0-0.9,0-1.4c0-0.3,0-0.5-0.3-0.5c-0.3,0-0.7,0-0.7,0.4c0,0.4-0.1,0.9-0.1,1.3  c0,0.3,0.3,0.5,0.6,0.6c0.3,0.1,0.4-0.2,0.5-0.4c0.1,0.9,0.3,1,1,0.9c0.2,0,0.5-0.2,0.6-0.2c0.7,0.4,0.7-0.1,0.8-0.5  c0-0.3-0.1-0.6,0.4-0.6l0,0c-0.2,0.4-0.2,0.8-0.2,1.1c0,0.2,0.1,0.3,0.3,0.4c0.2,0,0.4-0.1,0.4-0.2c0.1-0.2,0.1-0.3,0.1-0.5  c0.2-1.6,0.6-3.2,0.9-4.7c0.1-0.5,0.2-1,0.6-1.6c0,0.2,0,0.4,0,0.5c-0.5,1.8-0.8,3.6-1,5.4c-0.1,1.1-0.1,1.1,1,1.1  c0.7,0,0.5-0.6,0.8-0.8c-0.3,1.1-0.1,2.1-0.1,3.2c0.1,1.2,0.1,1.3,1.4,1.8c0.2-0.6,0.3-1.1,0.5-1.9c0,0.3,0.1,0.3,0.1,0.4  c0,0.1,0,0.2,0,0.3c-0.3,1-0.3,1.8,0.7,2.3c0.1,0,0.1,0.1,0.2,0.1c0.2,0.3,0.4,0.6,0.7,0.5c0.5-0.1,0.3-0.6,0.4-0.9  c0,0,0.1,0,0.3-0.1c-0.5,1,0.1,1.7,0.6,2.4c-0.2,0-0.3-0.1-0.4-0.2c-0.1-0.1-0.3-0.2-0.5-0.1c-0.1,0.2-0.1,0.3,0,0.5  c0.2,0.2,0.4,0.4,0.7,0.5c0.8,0.5,0.8,0.5,1-0.4c0.1-0.5,0.2-1.1,0.6-1.5c0.2,0.3,0,0.6-0.1,0.8c-0.1,0.5-0.5,1,0,1.5  c-0.5,0.8,0.2,0.8,0.6,1.1c0,0,0,0.1,0,0.1c0,0.7,0.7,0.4,1.1,0.7c0.2,0.1,0.4,0,0.5-0.3c0.1-0.4,0.1-0.8,0.7-1  c-0.1,0.5-0.3,0.9-0.4,1.4c-0.1,0.3-0.1,0.5,0.2,0.8c0.7,0.5,1.5,1,2.1,1.5c0.4-0.2,0.4-0.8,1.1-0.8c-0.3,0.4-0.5,0.7-0.5,1.1  c0,0.6,0.4,0.6,0.8,0.8c-0.3,0.2-0.6,0-0.8,0.3c1.4,0.9,2.6,2.1,4.3,2.4c-0.5,1.4-0.2,1.8,1,1.7c0,0,0.1,0,0.1,0  c0.4-0.1,0.5,0.1,0.5,0.4c0,0.3-0.1,0.6,0.4,0.8c0.2-0.4-0.1-0.9-0.1-1.3c0-0.2,0-0.5,0.3-0.5c0.3,0,0.3,0.2,0.3,0.4  c0,0.5,0,1.1,0,1.6c0,0.4,0,0.7,0.5,0.8c0.2-0.2,0.1-0.3,0.1-0.5c-0.3-1-0.4-2.1-0.3-3.2c0-0.2,0-0.5,0.5-0.5  c-0.3,1.3,0.1,2.6,0.3,3.9c0.1,0.7,0.5,0.8,1.2,1.1c-0.7-1-0.9-2-0.9-3c0-0.2-0.1-0.5,0.1-0.6c0.5-0.5,0.4-1,0.3-1.6  c-0.1-1.9-0.1-3.8-0.1-5.7c0-1.5,0.3-2.9,0.3-4.4c0-2.4,0.2-4.9-0.3-7.4c-0.4-2.4-0.5-4.9-0.8-7.3c0-0.5-0.1-1.1,0-1.5  c0.3-0.8,0.2-1.5,0.1-2.2c-0.1-0.6-0.1-1.2-0.1-1.8c0-0.2,0-0.4,0.4-0.5c0.2,1.2,0.1,2.5,0.4,3.6c0-1.1,0-2.3-0.1-3.4  c-0.2-2.8-0.4-5.6-0.3-8.3c0-0.3,0-0.5,0.3-0.8c0.6-0.5,0.5-0.6-0.1-1c-1.3-0.8-2.6-1.5-3.9-2.3c-0.5-0.3-0.9-0.7-1.5-0.8  c0.7,0.7,1.4,1.3,2.2,1.8c0.8,0.5,1.8,0.8,2.5,1.5c-0.4,0.2-0.6,0-0.9-0.1c-1.4-0.7-2.8-1.5-4-2.5c-0.3-0.3-0.9-0.5-0.7-1.2  c0.1-0.1-0.2-0.3-0.4-0.4c-2-1.1-3.9-2.2-5.9-3.2c-0.3-0.1-0.6-0.1-0.8-0.2c-0.2,0-0.4-0.1-0.6-0.2c-1.9-1.1-3.9-2.1-5.8-3.3  c-0.4-0.2-0.9,0-1.2-0.2c-1.4-0.9-2.8-1.9-4-3c-0.6-0.5-1.3-0.9-2.2-1.1c0.9,1.2,1.9,2.2,3.3,2.8c0.4,0.2,1.1,0.4,1.1,0.7  c-0.1,0.7,0.3,0.6,0.6,0.6c0.6,0,0.7,0.3,0.6,0.8c-2.3-1.1-4.6-2.3-6.8-3.6c-1.3-0.8-3-1.1-3.9-2.6c-0.1-0.1-0.4-0.3-0.6-0.1  c-0.2,0.2-0.2,0.5,0.1,0.7c0.4,0.3,0.8,0.6,1.2,0.9c0.5,0.4,1.1,0.7,1.7,1c-0.5,0.1-0.9-0.2-1.3,0.1c-0.1,0.1-0.2-0.1-0.3-0.2  c-0.4-0.2-0.6-0.4-1-0.5c-0.2,0-0.3,0-0.3,0.2c0,0.1,0,0.3,0.2,0.3c0.4,0.2,0.8,0.2,1.2,0c-0.2,0.3-0.6,0.3-1,0.3  c-0.7,0-0.7,0.2-0.4,0.8c0.1,0.1,0.1,0.3,0.2,0.4c0.2,0.2,0.3,0.6,0.6,0.5c0.3-0.1,0.1-0.4,0.3-0.6c0.1-0.1,0.2-0.1,0.3-0.1  c0.2,0.4,0.1,0.7,0.1,1.1c0,0.3,0.2,0.5,0.4,0.7c0.3,0.3,0.6,0,0.9,0.1c0.4,0.1,0.1,0.7,0.5,0.8c0.2,0.1,0.5,0.2,0.7,0.2  c0.2,0.1,0.4,0.1,0.4,0.3c-0.3,0.3-0.6,0-0.9,0c-0.5-0.1-0.8,0-0.7,0.5c0.1,0.6,0,1.2,0,1.9c0,0.4,0.5,1,0.9,1  c0.9,0,1.7,0.4,2.6,0.5c1.5,0.2,2.8,0.9,4.2,1.4c1.2,0.4,2.4,0.9,3.7,1.3c0.2-0.6-0.1-1.3,0.3-1.9c0.3,0.3,0.3,0.7,0.3,0.9  C29.2,47.1,29.7,47.6,30.5,47.9L30.5,47.9z M89.1,68.1c-0.7,0.7-0.5,1.2-0.1,1.7c0.5,0.6,0.4,0.7-0.2,1.2c-0.5,0.4-0.8,1.2-0.5,1.8  c0.1,0.1,0.1,0.2,0.3,0.2c0.4,0,0.9-0.5,1-1c0-0.4,0-0.7,0-1.1c0-2.4-0.2-4.7-0.2-7.1c0-0.5,0.1-1.1-0.1-1.6  c-1.1,0.3-1.1,0.3-1.2,1.3c0,0.1-0.1,0.2-0.2,0.4c-0.2,0.6-0.1,1.3,0,1.9c0,0.3,0.2,0.4,0.6,0.3c0.2-0.1,0.4-0.2,0.5,0  c0.1,0.3-0.2,0.3-0.3,0.5c-0.1,0.2-0.3,0.3-0.5,0.4c-0.2,0.2-0.3,0.4-0.2,0.7c0.1,0.3,0.3,0.3,0.6,0.3  C88.6,68.1,88.7,68.1,89.1,68.1z M69.5,84.5c-0.2-0.1-0.3-0.1-0.4-0.2c-0.8-0.9-0.8-0.9-1.9-0.5c-0.1,0-0.1,0-0.2,0.1  c-0.4,0.1-0.6,0.5-0.6,0.9c0,0.4,0.1,0.8,0.3,1.1c0.4,0.6,0.6,0.7,1.2,0.3c0.7-0.5,1.3-1,2.1-1.3c0.2-0.1,0.3-0.3,0.3-0.5  c0-0.3,0-0.6,0-1c0-0.7-0.1-0.7-0.8-0.6c-0.2,0-0.4,0.1-0.6,0.3C69,83.6,69.6,83.8,69.5,84.5z M87.9,62.5c0.3-0.1,0.4-0.2,0.6-0.3  c1-0.3,1-0.4,0.9-1.4c0-1,0-2.1,0-3.1c0-0.8-0.1-1.6-0.4-2.4c-0.8,0.4-0.8,0.5-0.8,0.7c-0.3,1,0.5,1.5,0.9,2.1  c-0.5,0.3-0.7-0.2-1-0.2c-0.2,0.2,0.3,0.4-0.1,0.7c-0.3,0.2-0.3,0.8,0.1,0.9c0.8,0.2,0.3,0.7,0.1,0.8c-0.4,0.2-0.5,0.5-0.3,0.8  c0.2,0.4,0.5-0.1,0.7,0c0.1,0,0.1,0.1,0.1,0.1C88.6,61.7,87.8,61.7,87.9,62.5z M74.2,70.2c0.1,1.4,1,1.9,2.2,2.1  c0.2,0,0.5,0.1,0.7,0.2c0.5,0.3,1,0.2,1.5-0.2c0.1-0.1,0.4-0.1,0.4-0.3c0-0.3-0.2-0.3-0.4-0.4c-1.4-0.5-2.8-1-4.1-1.5  C74.3,70.1,74.3,70.1,74.2,70.2z M60.1,41.5c0.3,0.2,0.3,0.1,0.4,0c1.5-0.9,2.9-1.8,4.4-2.7c0.5-0.3,1.1-0.7,1.6-1.1  c0.2-0.1,0.2-0.4,0-0.4c-0.3-0.1-0.6,0-0.8-0.3c-0.1-0.1-0.4,0.2-0.5,0.3c-0.3,0.3-0.7,0.6-1,1c-0.3,0.4-0.6,0.9-1.2,0.5  c-0.1,0-0.3,0.1-0.4,0.2C61.8,39.8,60.9,40.6,60.1,41.5z M21.9,36.8c-0.4-0.3-0.7-0.6-1.1-1c-0.3-0.3-0.7-0.6-0.7-0.9  c0-0.8-0.5-0.9-1-1.2c-0.6-0.4-1.3-0.8-1.9-1.1c-0.3-0.2-0.7-0.5-1.2-0.4C17.1,33.6,20.3,36.4,21.9,36.8z M78.7,20.6  c1,0.6,1.8,1.2,2.7,1.5c0.3,0.1,0.7-0.2,0.7,0.4c0.7,0.3,1.4,0.7,2.1,1c0.1,0,0.2-0.1,0.3-0.1c0-0.1,0-0.2,0-0.3  c-0.5-0.4-0.8-1-1.4-1.1c-0.4-0.1-0.6-0.3-0.8-0.5c-0.3-0.3-0.7-0.5-1-0.8C80.5,20.1,79.7,20.2,78.7,20.6z M37.3,11.3  c-0.3-0.2-0.5,0-0.8,0.1c-0.4,0.2-1,0.2-1.2,0.6c-0.4,0.5-0.9-0.1-1.3,0.3c-0.3,0.2-0.6,0.4-0.9,0.6c-0.2,0.1-0.3,0.3-0.1,0.5  c0.3,0.3,0.6,0.7,1.1,0.4c0.5-0.2,1.1-0.3,1.4-0.7c0.1-0.1,0.2-0.2,0.3-0.2C37,12.7,37.1,12.6,37.3,11.3z M11.8,71  c0,0.4-0.1,0.8-0.1,1.3c0,0.3,0,0.5,0.3,0.6c0.6,0.3,1.3,0.5,2,0.8c0.1,0.1,0.3,0,0.4-0.1c0.3-0.4,0.1-1.3-0.3-1.5  c-0.3-0.1-0.6-0.2-1-0.2c-0.2,0-0.3-0.7-0.7-0.8C12.2,71,12.1,70.9,11.8,71z M31.2,12.9c1.4-0.4,1.3-0.4,2.1-1.1  c0.1-0.1,0.2-0.1,0.3-0.2c0.4,0.8,0.8,0,1.3,0c0.4,0,0.5-0.4,0.7-0.8c0.2-0.4-0.1-0.5-0.3-0.7c-0.1-0.2-0.3-0.2-0.4-0.1  C33.5,10.8,32.2,11.5,31.2,12.9z M87.6,69.1c-0.4-0.1-0.7,0.2-1,0.4c-1.1,0.6-1.1,0.7-1,1.8c0.1,0.6,0.4,0.8,0.9,0.7  c1.2-0.4,1.5-1,1-2.3c-0.3,0-0.4,0.5-0.8,0.3C86.9,69.6,87.5,69.6,87.6,69.1z M61.9,11.6c0.7,0.7,1.4,1,2.1,1.4  c0.1,0.1,0.3,0.2,0.4,0.1c0.4-0.3,1-0.2,1.5-0.6c-0.4-0.5-0.9-0.6-1.3-0.9C63.7,10.8,62.8,11.1,61.9,11.6z M79.3,69.2  c0.9,0.3,1.7,0.6,2.5,0.9c0.3,0.1,0.6,0.1,0.8-0.2c0.2-0.2,0-1.3-0.3-1.5c-0.4-0.3-0.8-0.6-1.3-0.3C80.5,68.4,80,68.8,79.3,69.2z   M50.3,88.3c-0.1,1.9,0,2.1,1.4,2.5c0.4,0.1,0.9,0.6,1.3,0.1c0.3-0.4-0.2-0.8-0.4-1.2C52.2,89,52,89,51.3,89.2  c-0.2,0.1-0.3,0.1-0.5,0.2C51,88.8,51,88.8,50.3,88.3z M83.9,35.5c0.4,0,0.6,0.2,0.8,0.3c0.3,0.2,0.6,0,0.7-0.3  c0.1-0.2-0.1-0.4-0.3-0.5c-0.3-0.2-0.6-0.3-0.9-0.5c-0.6-0.3-1.1-0.2-1.4,0.4c-0.2,0.5-0.1,1.1-0.1,1.6c0,0.4,0.6,0.5,1,0.4  C84.3,36.5,84.3,36.3,83.9,35.5z M52.1,5.2c-1.4-1-2.7-2-4.1-2.7c-0.3-0.1-0.5,0-0.7,0.1c-0.1,0.1-0.2,0.2-0.1,0.3  C47.8,3.1,48,4.1,48.9,4c0.2,0,0.5-0.1,0.6,0.3c0,0.1,1.4,1.2,1.5,1.2C51.4,5.6,51.7,5.5,52.1,5.2z M74,17.1  c-1.9-1.3-2.7-1.6-3.9-0.6c0.5,0.3,1.1,0.6,1.5,1c0.6,0.5,1.1,0.4,1.7,0C73.6,17.4,73.8,17.3,74,17.1z M49.1,89.7  c-0.2,0.1-0.2,0.3-0.2,0.4c0.1,1.2,0,2.4,0,3.6c0,0.3,0,0.6,0.1,1c0,0.2,0.1,0.4,0.4,0.4c0.2,0,0.2-0.3,0.2-0.4  c0-0.6-0.1-1.1-0.2-1.7c-0.1-0.7-0.1-1.3,0-2c0.3,0.5,0.3,1.2,1,1.6C50.3,91.4,50.1,90.4,49.1,89.7z M43.7,8.4  c-0.2-0.3,0.4-0.4,0.1-0.7c-0.2-0.2-0.4-0.4-0.6-0.2c-0.2,0.2-0.5,0.5-0.2,0.9c0.3,0.5,0.8,1.1,1.3,1.3c0.3,0.2,0.5,0.2,0.8,0  c0.3-0.1,0.6-0.3,1.1-0.5C45.3,9,44.8,7.9,43.7,8.4z M77.6,66.2c0.2,0.6,0.5,1.1,0.8,1.7c0.6,1,0.5,1.1,1.4,0.4  c0.3-0.2,0.6-0.3,0.8-0.6c-0.7-0.5-1.5-0.8-2.2-1.2C78.2,66.3,78,66.2,77.6,66.2z M8.8,45.3c0,0.3,0,0.5,0,0.7  c0,0.2,0.2,0.4,0.4,0.4c0.3,0,0.6,0,0.8-0.2c0.1-0.2,0.1-0.4-0.1-0.5c-0.2-0.1-0.2-0.2,0-0.3c0.2-0.1,0.3-0.3,0.2-0.4  c-0.4-0.4-0.2-0.6,0-1c0.1-0.3-0.5-0.9-0.8-0.8c-0.4,0-0.3,0.4-0.3,0.7C8.9,44.3,8.9,44.8,8.8,45.3z M55.6,89.2  c0.3-0.1,0.8,0.1,1-0.3c0.2-0.5-0.3-0.7-0.5-1.1c-0.1-0.1-0.1-0.2-0.2-0.2c-0.4-0.3-1.5-0.1-1.7,0.3c-0.1,0.1-0.1,0.2-0.1,0.3  C54.2,88.6,55.1,89.2,55.6,89.2z M83.7,32.5c0.4,0.1,0.5,0.1,0.6,0.2c0.5,0.3,0.8-0.2,0.9-0.5c0.1-0.3-0.3-0.4-0.6-0.5  c-0.2-0.1-0.5-0.1-0.7-0.3c-0.4-0.3-0.7,0-0.9,0.2c-0.4,0.4-0.4,1.3,0,1.7c0.2,0.2,0.5,0.4,0.8,0.2C84.2,33.2,84.2,32.9,83.7,32.5z   M22.9,20.8c-0.2-0.2-0.4-0.2-0.5-0.4c-0.5-0.5-0.7-0.6-1.2-0.1c-0.1,0.1-0.2,0.3-0.4,0.4c-1.1,0.4-1.1,0.5-0.4,1.4  c0.2,0.2,0.2,0.1,0.3,0C21.5,22,22.1,21.5,22.9,20.8z M68.2,13.9c-1.7-1.3-1.8-1.3-3.3-0.4c0.1,0.4,0.5,0.3,0.8,0.5  C66.6,14.8,67.4,14.7,68.2,13.9z M84.9,50.3c0.4,0,0.6-0.3,0.7-0.6c0.1-0.3,0.1-0.4,0.5-0.4c0.4,0,0.8-0.5,1.1-0.8  c0.1-0.1,0.1-0.2,0.1-0.3c-0.1-0.3-0.4-0.4-0.6-0.5c-0.2-0.1-0.5,0-0.6,0.2c-0.1,0.5-0.6,0.6-1,0.8c-0.8,0.5-0.8,0.5-0.4,1.3  C84.7,50.1,84.8,50.2,84.9,50.3z M19.4,76.8c0.3-1.7-0.5-2.3-2.2-1.9c0.3,0.2,0.7,0.1,1,0.5c-0.8,0.1-1.4-0.5-2.4-0.3  C17.1,75.7,18.2,76.2,19.4,76.8z M63.6,79c0,0.3-0.1,0.4,0,0.6c0.1,1.3,0.6,1.6,1.8,1c0.2-0.1,0.4-0.2,0.6-0.3  c0.2-0.1,0.4-0.2,0.4-0.4c0-0.2-0.2-0.3-0.4-0.3C65.1,79.4,64.4,79.2,63.6,79z M70.9,15.5c-1.5-1.3-2-1.3-3.2-0.4  C69.3,16.4,69.4,16.4,70.9,15.5z M26.2,18.6c0.5,0.2,0.8,0.2,1.1,0.4c0.4,0.3,0.9,0.4,1.4,0.3c0.5-0.1,0.6-0.3,0.3-0.7  c-0.9-1.4-1.2-1.4-2.5-0.4C26.4,18.4,26.4,18.4,26.2,18.6z M26.8,74.8c-0.8,0-0.8,0-1,0.7c-0.2,0.8-0.1,1.1,0.7,1.5  c0.5,0.3,0.6,0.2,0.7-0.3c0.1-0.4,0.1-0.8,0.2-1.1C27.6,74.9,27.5,74.8,26.8,74.8z M10.9,53.8c-0.1-0.4-0.6-0.2-0.6-0.6  c0.2-0.2,0.5,0,0.6-0.3c-0.6-0.4-0.6-0.4-1.5-0.3c0,0.5,0,1.1,0,1.6c0,0.3,0.1,0.6,0.5,0.6c0.3,0,0.5,0.2,0.7,0.4  c0.1,0.1,0.3,0.2,0.5,0c0.1-0.1,0.1-0.3,0-0.5c-0.1-0.4-0.5-0.4-0.8-0.5c-0.1,0-0.1-0.1-0.1-0.2C10.5,53.9,10.7,54,10.9,53.8z   M15.9,22.1c0.3,0.2,0.5,0.1,0.7,0c1.3-0.9,2.6-1.7,4-2.5c0.1-0.1,0.2-0.2,0.3-0.3C21,19.2,21,19,21,18.9c-0.1-0.2-0.3-0.1-0.5,0  c-0.4,0.4-1,0.7-1.5,1C17.9,20.4,16.9,21.2,15.9,22.1z M84.2,28.1c0.3,0.3,0.6,0.3,0.8,0.4c0.2,0.1,0.4,0,0.4-0.2  c0.2-0.5,0.6-0.7,1-1c0.4-0.3,0.9-0.6,1.1-1.1c0.1-0.2,0.2-0.3,0-0.5c-0.1-0.1-0.3,0-0.4,0C86,26.3,85.1,27.2,84.2,28.1z M69.2,78.6  c-1.2-0.3-2.3-0.7-3.5-0.8c0,0.5,0.2,0.8,0.4,1.1c0.1,0.1,0.3,0.3,0.3,0.2c0.4-0.5,0.4-0.1,0.6,0.2c0.1,0.2,0.4,0.2,0.6,0.1  C68.2,79.2,68.7,79.1,69.2,78.6z M52.4,7.8c0.2-0.1,0.3-0.2,0.5-0.3c0.1-0.1,0-0.3-0.1-0.4c-0.1-0.2-0.3-0.3-0.4-0.5  c-0.6-0.5-1.5-0.6-2-1.2c-0.2-0.2-0.5,0-0.6,0.2c-0.2,0.3,0,0.4,0.2,0.6c0.7,0.4,1.4,0.9,2.1,1.3C52.1,7.6,52.3,7.7,52.4,7.8z   M57.6,89c0.8,1.1,0.8,1.1,1.9,0.5c0.1-0.1,0.2-0.1,0.4-0.2c0.4-0.3,0.3-0.6,0.1-0.9c-0.2-0.4-0.5-0.5-0.9-0.2  C58.7,88.4,58.1,88.5,57.6,89z M70.8,78.4c0.7,0.2,1.2,0.3,1.7,0.5c0.5,0.2,1,0.1,1.3-0.3c0.2-0.2,0.1-0.5,0-0.7  c-0.3-0.5-0.9-0.4-1.3-0.4C71.9,77.7,71.5,78.1,70.8,78.4z M84.2,68.8c0.1,0,0.3-0.1,0.4-0.2c0.7-0.4,0.7-0.8,0-1.2  c-0.2-0.1-0.5-0.3-0.8-0.4c-0.3-0.2-0.6-0.3-0.9,0c-0.3,0.3,0,0.6,0.1,0.9C83.3,68.3,83.5,68.8,84.2,68.8z M66.2,77.3  c1,0.4,2.1,0.6,3.2,0.7C68.8,76.4,67.6,76.1,66.2,77.3z M16.2,48.5c0-1.1-0.3-1.5-1.2-1.7c-0.2-0.1-0.4,0-0.3,0.2  c0.1,0.3,0.4,0.5,0,0.9c-0.2,0.2,0.8,0.6,0.2,1.1c0.1,0.1,0.1,0.2,0.2,0.2c0.3,0.1,0.6,0.2,0.9,0C16.3,49,16.2,48.7,16.2,48.5z   M63,83.5c0-0.8-0.1-0.9-0.7-0.9c-0.6,0-1.3,0.4-1.3,0.7c0,0.4,0.7,1.2,1,1.2C62.5,84.5,63,84,63,83.5z M49.8,89.5  c-0.2-2-0.5-3.9-0.7-5.9C49,83.8,49,83.8,49,83.9c0,1.6,0,3.2-0.1,4.8C48.9,89.2,49.2,89.4,49.8,89.5z M24.9,16.2  c-1.8,0.7-3,1.7-3.3,2.6c0.1,0,0.1,0,0.2,0c0.2-0.1,0.4-0.2,0.5-0.4c0.1-0.1,0.2-0.3,0.4-0.2c0.7,0.5,1-0.3,1.3-0.6  C24.4,17.3,24.6,16.8,24.9,16.2z M89.1,53.9c0-0.1-0.1-0.4-0.1-0.7c0-0.1,0-0.3-0.2-0.3c-0.1,0-0.3,0.1-0.2,0.3  c0.2,0.4-0.2,0.6-0.4,0.7c-0.2,0.2-0.5,0.4-0.8,0.6c-0.2,0.1-0.4,0.2-0.2,0.5c0.1,0.3,0.3,0.5,0.6,0.5  C88.1,55.5,89.1,54.5,89.1,53.9z M82.9,73.1c0.2-0.2,0.2-0.5,0.1-0.7c-0.1-0.2-0.2-0.4-0.3-0.7c-0.2-1-0.2-1-1.1-0.5  c-0.1,0-0.1,0.1-0.2,0.1c-0.2,0.3-0.9,0.2-0.7,0.7c0.2,0.4,0.7,0.2,1.1,0.1c0.1,0,0.1,0,0.2,0C81.9,72.7,81.9,72.7,82.9,73.1z   M38,11c0.5,0.3,1,0.4,1.3,0.7c0.6,0.5,1.1,0.4,1.6-0.2c-0.2-0.4-0.6-0.5-0.9-0.7C39.4,10.2,38.7,10.4,38,11z M87.9,72  c-0.6,0.2-1,0.8-1.7,0.9c-0.1,0-0.2,0.2-0.2,0.2c0.1,0.4,0.2,0.8,0.6,1c0.4,0.2,0.5-0.1,0.5-0.4c0-0.1,0.1-0.1,0.2-0.2  C88.2,73.1,88.2,73.1,87.9,72z M77.8,76.6c0.4,0,1.2-0.7,1.2-1.1c0-0.3-0.6-0.7-1.2-0.7c-0.4,0-0.8,0.1-0.9,0.6  C76.8,75.7,77.5,76.6,77.8,76.6z M24.8,19.5c0.2,0.3,0.6-0.2,0.7,0.1c0.1,0.3,0.3,0.5,0.3,0.8c0,0.1-0.1,0.2,0,0.3  c0.1,0.2,0.5,0.4,0.6,0.2c0.3-0.5,1.2-0.2,1.1-0.9c-0.1-0.4-0.6-0.5-1-0.6c-0.2-0.1-0.4,0.1-0.6,0C25.3,19,25.3,19,24.8,19.5z   M83.8,71.4c-0.3,0-0.5,0.1-0.5,0.5c0,0.6,0.6,1,0.5,1.6c0,0.1,0.2,0.2,0.4,0.1c0.7-0.1,0.9-0.6,0.6-1.2c-0.1-0.2-0.1-0.4-0.2-0.6  C84.4,71.5,84.1,71.4,83.8,71.4z M27.2,17.3c-0.5-0.4-1.1-0.5-1.6-0.8c-0.1-0.1-0.3-0.1-0.4,0c-0.2,0.3-0.5,0.6-0.4,1  c0.1,0.3,0.7,0.6,1.1,0.5C26.4,17.9,26.9,17.8,27.2,17.3z M17.9,68.9c-0.3,0.3-0.1,0.7-0.1,1.1c0,0.5,0.5,1.1,1.1,1.1  c0.2,0,0.3-0.1,0.3-0.2C19.4,69.9,19,69.2,17.9,68.9z M76.6,81.1c0.5-0.4,1.2-0.6,1.7-1.1c0.2-0.2,0.1-0.5-0.1-0.7  c-0.2-0.2-0.4-0.1-0.6,0c-0.5,0.2-0.9,0.5-1.4,0.7C76,80,75.9,80.2,76,80.4C76.1,80.7,76.2,81,76.6,81.1z M70.9,84.3  c0.4-0.2,0.8-0.4,1.2-0.6c0.3-0.1,0.3-0.3,0.2-0.6c-0.1-0.2-0.2-0.4-0.3-0.6c-0.1-0.3-0.3-0.6-0.7-0.4c-0.4,0.2-0.7,0.3-0.6,0.9  C70.8,83.3,70.8,83.8,70.9,84.3z M10.1,41c0-0.3,0-0.5-0.1-0.7c-0.1-0.3-0.4-0.6-0.7-0.5c-0.4,0.1-0.2,0.4-0.1,0.6  C9.2,40.8,9.1,41,9,41.3c-0.2,0.6,0.1,1.1,0.6,1.3c0.4,0.2,0.6-0.2,0.5-0.3C9.6,41.8,10.2,41.4,10.1,41z M20.6,68.9  c0,0.7,0,1.3-0.2,1.9c-0.1,0.4-0.1,0.8-0.1,1.2c0,0.3,0.2,0.4,0.5,0.5c0.2,0,0.2-0.2,0.3-0.4c0.1-0.7,0.1-1.4,0.3-2.1  C21.5,69.3,21.3,69.1,20.6,68.9z M11.6,30.7c0.3-0.3-0.3-0.4,0-0.6c0.2-0.1,0.3,0,0.5,0.1c0.1,0.1,0.2,0.3,0.4,0.4  c0.1,0.1,0.3,0.1,0.4-0.1c0.1-0.1,0.1-0.3,0-0.4c-0.3-0.2-0.6-0.4-0.9-0.6c-0.7-0.3-1.3-0.7-2-1c0,0.1-0.1,0.1-0.1,0.2  c0.4,0.3,0.7,0.6,1.1,0.9c-0.3,0.2-0.5-0.1-0.7,0.2C10.7,30.2,11.1,30.4,11.6,30.7z M14.3,70.3c0.2-1.4-0.1-1.9-1.4-2.1  C12.9,70,13,70.1,14.3,70.3z M74,81c-0.4,0.2-0.8,0.3-1.2,0.5c-0.2,0.1-0.5,0.2-0.3,0.5c0.3,0.3,0.2,1,0.9,0.9  c0.7-0.1,0.9-0.5,0.8-1.2C74.1,81.5,74.2,81.3,74,81z M88.7,50c-0.7,0.4-1.2,1.2-2,1.4c-0.2,0-0.5,0.2-0.3,0.6  c0.2,0.3,0.5,0.5,0.8,0.1c0.3-0.4,0.6-0.4,1-0.6C89,51.1,89.1,51.1,88.7,50z M15.7,42.1c0.3-0.4,0-0.6,0-0.9c0.1-1-0.1-1.1-1.2-1.1  c0.2,0.4-0.1,0.9,0,1.3C14.7,41.9,15.2,42,15.7,42.1z M80.1,61.3c1.2,0.8,1.2,0.9,2.5-0.1C81.3,60.2,81.2,60.2,80.1,61.3z   M10.5,66.3c0,0.7-0.2,1.1-0.1,1.6c0.1,0.4,0.3,0.7,0.6,0.9c0.3,0.2,0.6,0.2,0.6-0.3c0-0.5,0.1-1-0.1-1.5  C11.3,66.7,10.8,66.8,10.5,66.3z M12.1,66.4c0.3-1,0.3-1.1-0.7-1.4c-0.3-0.1-0.5-0.4-0.8-0.4c-0.3,0.8-0.2,1.1,0.4,1.5  c0.4,0.3,0.6,0.1,0.8-0.3C12,65.8,11.7,66.3,12.1,66.4z M53.1,10.3c-1.5-1.2-1.9-1.3-2.7-0.7c0.5,0.3,0.9,0.7,1.4,0.9  C52.5,11,52.5,11,53.1,10.3z M58.1,87.6c-0.1,0.1-0.3,0.1-0.4,0.1c-0.2,0-0.4,0-0.4,0.2c-0.1,0.2,0,0.4,0.2,0.5  c0.2,0.2,0.3,0,0.5-0.1c0.4-0.2,0.9-0.4,1.3-0.7c0.3-0.2,0.4-0.5,0-0.6c-0.5-0.2-1-0.3-1.5-0.4c-0.1,0-0.3,0.1-0.3,0.2  c0,0.2,0,0.3,0.1,0.4C57.6,87.3,58,87.2,58.1,87.6z M49.2,8c-0.7-0.5-1.3-1-1.9-1.4c-0.2-0.1-0.4-0.4-0.6-0.1  c-0.2,0.2-0.2,0.5,0.1,0.7c0.5,0.3,0.9,0.7,1.4,1C48.5,8.5,48.8,8.3,49.2,8z M11.5,75.4c-0.9-0.7-1.8-1.1-2.2-2  c-0.1-0.1-0.3-0.2-0.5-0.2c-0.2,0.1-0.2,0.3-0.1,0.5C8.7,74.2,8.8,74.6,9,75c0.7-0.3,0.7-0.3,1.3,0C10.6,75.2,10.9,75.4,11.5,75.4z   M85.9,74.7c-0.6-1.1-0.6-1.1-1.5-0.4c-0.1,0.1-0.2,0.1-0.3,0.2c-0.2,0.2-0.4,0.4-0.2,0.7c0.2,0.3,0.4,0.4,0.7,0.2  C85.1,75.1,85.6,75.1,85.9,74.7z M13.2,30.6c0.6,1.1,0.9,2.3,2.4,2C15.3,31.4,14.4,31,13.2,30.6z M37.2,14.6  c-0.2-0.3-0.5-0.3-0.7-0.5c-0.8-0.6-1.1-0.5-1.8,0.3c0.3,0.2,0.6-0.3,0.8,0c0.1,0.3-0.4,0.3-0.2,0.5c0.2,0.2,0.5,0.5,0.8,0.3  C36.6,15,37,14.9,37.2,14.6z M12.4,41.6c-0.6,0.7-0.2,1.6-0.4,2.3c-0.1,0.2,0.2,0.4,0.5,0.4c0.3,0,0.3-0.2,0.3-0.4  c0-0.2,0.1-0.4,0.1-0.5C13,42.7,13.2,42,12.4,41.6z M13,57.4c-0.2,0.4-0.3,0.8,0,1c0.4,0.4,0.8,0.7,1.3,0.9c0.2,0.1,0.4-0.1,0.4-0.3  c0-0.4,0.1-0.9-0.4-1.1C13.8,57.8,13.5,57.5,13,57.4z M23.8,22.5c-0.1-0.4-0.5-0.5-0.6-0.8c0-0.1-0.1-0.2-0.2-0.1  c-0.3,0.3-0.8,0.1-1.1,0.5c-0.3,0.4-0.3,0.7,0.1,0.8C22.7,23.2,23.3,23.1,23.8,22.5z M85.3,66.2c0.1,0.4,0.1,0.7,0.2,1.1  c0.1,0.3,0.2,0.5,0.5,0.4c0.2,0,0.8-0.7,0.7-0.8c-0.2-0.4-0.4-0.8-0.6-1.2c-0.2-0.3-0.4-0.2-0.6,0C85.3,65.8,85.3,66.1,85.3,66.2z   M63.5,88.4c0-0.4-0.4-0.6-0.8-0.4c-0.4,0.2-0.8,0.5-1.3,0.7c-0.2,0.1-0.3,0.2-0.3,0.4c0,0.2,0.2,0.4,0.4,0.4  C61.9,89.6,63.4,88.8,63.5,88.4C63.5,88.5,63.5,88.4,63.5,88.4z M19.9,80.3c0.6,0.6,2.5,1.4,3.2,1.5c-0.1-0.4-0.8-0.4-0.7-0.6  c0.2-0.7-0.5-0.5-0.7-0.8c-0.5,0.5-0.8-0.1-1.2-0.1C20.3,80.2,20.1,80.1,19.9,80.3z M16.7,61.4c0-0.3,0.1-0.6,0.1-0.9  c0.1-0.5-0.1-0.7-0.6-0.7c-0.3,0-1-0.2-0.5,0.5c0.1,0.1,0,0.2-0.1,0.3c-0.3,0.5-0.2,0.7,0.3,0.8C16.1,61.5,16.4,61.6,16.7,61.4z   M9.8,60.5c-0.1,0-0.2,0-0.2,0c-0.3,0.8-0.1,1.6-0.1,2.4c-0.1,1.7,0,1.9,0.3,2.3C9.8,63.7,9.8,62.1,9.8,60.5z M62.5,10.6  c-1.6-1-1.6-1-2.3-0.6C61.3,11.4,61.3,11.4,62.5,10.6z M9.8,33.8c0-0.3,0.1-0.6,0-0.9c-0.1-0.2-0.2-0.4-0.5-0.3  c-0.2,0-0.2,0.2-0.2,0.4c0,0.2-0.1,0.5-0.1,0.7C9,34,9,34.4,9,34.7c0,0.2,0.1,0.5,0.4,0.5c0.4,0,0.4-0.3,0.4-0.5  C9.8,34.5,9.8,34.1,9.8,33.8z M48,51.7c-0.2,2-0.1,4,0.3,6C48.4,55.7,48.3,53.7,48,51.7z M16,24c0.4,0.2,0.7,0.4,0.9,0.6  c0.5,0.3,0.8,0,1.1-0.3c0.1-0.1,0.1-0.3,0-0.5C17.3,23.2,16.8,23.2,16,24z M70.6,76.5c0.7,0.4,1.7,0.5,2.5,0.4  c-0.5-1.3-0.5-1.3-1.7-0.9C71.1,76.1,70.8,76.2,70.6,76.5z M81.7,60.1c0.4,0.3,0.8,0.5,1.1,0.7c0.2,0.1,0.5,0.1,0.7-0.1  c0.2-0.1,0-0.3,0-0.5c-0.2-0.4-0.2-0.8-0.7-1.1C82.6,59.6,82.1,59.7,81.7,60.1z M51.9,92.3c-0.2,0-1,0.6-1,0.8c0,0.4,0.2,0.9,0.5,1  c0.3,0,1.1-0.7,1.1-0.9C52.6,93,52.1,92.3,51.9,92.3z M14.6,57.7c0.3-1.2,0.3-1.2-0.9-1.4c-0.1,0-0.2-0.1-0.3-0.1  c-0.2,0-0.4,0-0.4,0.2c-0.1,0.2,0,0.4,0.1,0.5C13.6,57.2,14.1,57.6,14.6,57.7z M16.6,26.7c0.6,1,1.4,1.7,2.3,2.5c0.1,0,0.2,0,0.3,0  c0.2-0.1,0.1-0.2,0-0.3c-0.6-0.7-1.3-1.2-1.8-1.9C17.2,26.7,17,26.5,16.6,26.7z M10.7,34.1c0,0.2-0.1,0.4-0.1,0.5  c0,0.4,0.4,0.5,0.7,0.6c0.2,0,0.4,0.1,0.4-0.1c0.3-0.6-0.2-1.7-0.9-1.8c-0.2,0-0.4,0.1-0.3,0.3C10.6,33.8,10.6,34,10.7,34.1z   M53,7.8c0,0.1-0.1,0.2-0.1,0.3c0.6,0.4,1.1,0.7,1.7,1.1c0.4,0.3,0.7,0,1.1-0.4C54.8,8.3,54,7.7,53,7.8z M62.9,87.2  c-0.5,0.2-1.1,0.1-1.6,0.1c-0.2,0-0.5-0.1-0.5,0.2c-0.1,0.3-0.1,0.7,0.1,1c0,0.1,0.2,0.1,0.3,0.1C61.7,88.1,62.5,88,62.9,87.2z   M43.9,10.3c-0.5-0.9-1.4-1-2.2-1c-0.2,0-0.4,0.2-0.2,0.4c0.4,0.4,0.9,0.6,1.3,0.8C43.2,10.7,43.5,10.5,43.9,10.3z M85.5,51.2  c0.1,0,0.2,0,0.3-0.1c0.4-0.3,0.9-0.6,1.3-0.9c0.2-0.1,0.3-0.4,0.3-0.6c0-0.3-0.2-0.4-0.4-0.3c-0.6,0.4-1.2,0.8-1.7,1.2  c-0.1,0.1-0.2,0.2-0.1,0.4C85.2,51.1,85.3,51.1,85.5,51.2z M45.1,10.3c1.2,0.8,1.2,0.8,2.4,0C46.7,9.5,46.7,9.5,45.1,10.3z M19,79.6  c-1.2-0.9-2.2-1.4-2.9-1.5C16.9,79.3,17.8,79.8,19,79.6z M54.5,9.5c-0.9-0.4-1.4-1.3-2.4-0.5C53.2,10.1,53.5,10.2,54.5,9.5z   M23.4,78.6c0-0.1,0-0.3-0.1-0.4c-0.2-0.4-0.5-0.4-0.9-0.5c-0.3,0-0.4,0.2-0.4,0.4c-0.1,0.3,0,0.6,0.3,0.8c0.1,0.1,0.2,0.1,0.4,0.2  c0.2,0.1,0.3,0.3,0.6,0.2C23.4,79.1,23.3,78.9,23.4,78.6z M64.4,81.5c0.1,0.5,0.4,0.8,0.6,1c0.2,0.3,0.6,0.2,0.9,0.1  c0.2-0.1,0.4-0.3,0.4-0.6c0-0.4-0.3-0.4-0.6-0.5C65.3,81.5,64.9,81.4,64.4,81.5z M32.9,14.8c0.2,0.5,0.9,0.3,1.2,0.8  c0.4,0.8,0.8,0.7,1.3-0.2C34.6,15.1,33.9,14.4,32.9,14.8z M36.5,13.3c0.1,0.3,0.4,0.3,0.6,0.5c0.8,0.7,0.8,0.7,1.6-0.2  C37.4,13,37.4,13,36.5,13.3z M47.7,12.4C46.8,12,46.3,11,45.2,12C46,12.3,46.5,13.3,47.7,12.4z M48,8.5c-0.5-0.3-0.9-0.6-1.3-0.9  c-0.1-0.1-0.3-0.1-0.4,0c-0.2,0.3-0.4,0.6-0.2,1C46.2,8.9,46.6,9.2,47,9C47.2,8.9,47.5,8.7,48,8.5z M15,55.8  c0.1-0.9-0.1-1.5-0.8-1.8c-0.2-0.1-0.4-0.3-0.7-0.1c-0.2,0.3-0.3,0.6,0,0.8C14,55,14.4,55.4,15,55.8z M45.9,7.4  c0-0.3-0.6-0.9-0.9-0.8c-0.4,0-0.5,0.4-0.6,0.8c0,0.3,0.6,0.9,0.9,0.9C45.9,8.2,45.7,7.7,45.9,7.4z M82.5,54.2  c0.4,0.3,0.6,0.8,1.2,0.5c0.4-0.2,0.7-0.5,0.6-1c0-0.4-0.2-0.6-0.5-0.4C83.4,53.6,83,53.9,82.5,54.2z M31.5,81.5  c0-0.2,0-0.3-0.1-0.4c-0.6-0.4-1.2-0.8-1.8-1c-0.1,0-0.2,0.1-0.2,0.1c-0.1,0.1,0,0.2,0,0.3c0.6,0.4,1.2,0.9,1.8,1.3  C31.4,81.8,31.5,81.6,31.5,81.5z M9.8,32c0.3-0.5,0.4-1.1,0.3-1.4c-0.1-0.3-0.3-0.4-0.5-0.5c-0.3,0-0.3,0.2-0.4,0.4  C8.8,31.3,8.9,31.6,9.8,32z M88.5,43.8c-1,0.5-1.1,0.7-0.7,1.9C88.8,45.2,88.8,45.2,88.5,43.8z M11.7,62.3c0.1-1-0.1-1.4-0.9-1.5  c-0.2,0-0.3,0-0.4,0.2c-0.1,0.5,0,0.8,0.5,1C11.1,62.1,11.3,62.2,11.7,62.3z M79.4,69.7c0.6,1.5,0.8,2.1,2,0.8  C80.7,70,80.5,69.9,79.4,69.7z M19,63.1c0-0.2,0-0.4,0-0.5c0-0.2,0.1-0.3,0.1-0.5c0.1-0.9,0.1-1-0.9-1.2C18.4,61.6,18,62.5,19,63.1z   M12.8,59.8c-0.1,1.1,0.4,1.5,1.6,1.6C14.4,60.5,13.6,60.2,12.8,59.8z M9.1,36.3c-0.1,0.5,0,1.1,0,1.7c0,0.2,0,0.4,0,0.5  c0,0.2,0.1,0.3,0.2,0.3c0.1,0,0.3-0.1,0.3-0.2c0.1-0.7,0.1-1.4,0-2C9.6,36.3,9.4,36.2,9.1,36.3z M42.4,10.8c-0.6-0.4-1-0.7-1.5-1  c-0.2-0.1-0.4,0-0.6,0.1c-0.1,0.1-0.2,0.2-0.1,0.4c0.3,0.4,0.7,0.5,1.1,0.8C41.7,11.4,42,11.2,42.4,10.8z M11.6,71.8  c0-0.2,0-0.5,0-0.7c0-0.3-0.3-0.4-0.6-0.4c-0.3,0-0.4,0.2-0.4,0.5c0,0.2,0,0.4,0.1,0.6c0.1,0.4,0.3,0.7,0.7,0.6  C11.8,72.4,11.6,72,11.6,71.8z M16.3,77.5c1,0.6,1.9,1.3,3,1.5C18.4,78.3,17.6,77.4,16.3,77.5z M85.5,28.7c0.3,0.4,0.6,0.5,1,0.2  c0.4-0.4,1.3-0.7,0.8-1.6C86.7,27.6,86.1,28.1,85.5,28.7z M55.8,6.4c0.1,0.3-0.5,0.5-0.1,0.8C56.1,7.5,56.5,7.7,57,8  c0.3,0.1,0.5,0,0.7-0.3c-0.3-0.2-0.6-0.5-0.9-0.6C56.4,6.9,56.3,6.5,55.8,6.4z M18.2,22.4c-0.3,0.1-0.7,0.2-0.7,0.5  c-0.1,0.3,0.2,0.3,0.4,0.5c0.3,0.2,0.6,0.3,0.9,0.4c0.3,0,0.7-0.4,0.5-0.5C18.9,22.9,18.6,22.7,18.2,22.4z M54,92.3  c0-0.3-0.4-0.7-0.8-0.7c-0.4,0-0.8,0.3-0.8,0.5c0.1,0.4,0.4,0.7,0.8,0.8C53.5,93,54,92.6,54,92.3z M15.7,45.1c0,0,0.1,0,0.3-0.2  c0.1-0.2,0-0.4-0.1-0.5c-0.2-0.2-0.4-0.4-0.7-0.5c-0.2-0.1-0.3-0.6-0.7-0.3c-0.2,0.2-0.1,1.1,0.2,1.2C15,45,15.3,45,15.7,45.1z   M14.9,69.4c-0.3,1.3,0,1.4,1,1.4c0.2,0,0.5,0.1,0.8-0.2C16.2,70.1,15.6,69.8,14.9,69.4z M21.1,24.7c0-0.2-0.7-0.9-1-1  c-0.3-0.1-0.6,0-0.7,0.3c-0.1,0.2,0.2,0.3,0.3,0.5c0.3,0.3,0.6,0.4,1,0.5C20.9,25.1,21,24.9,21.1,24.7z M17.8,61.2  C17.8,61.2,17.8,61.2,17.8,61.2c0-0.2,0-0.4,0-0.6c0-0.3-0.2-0.5-0.5-0.5c-0.3,0-0.3,0.3-0.3,0.5c0,0.4,0.4,0.8,0.1,1.2  c-0.1,0.1,0.2,0.3,0.4,0.3c0.1,0,0.3-0.1,0.3-0.2C17.8,61.6,17.8,61.4,17.8,61.2z M14.8,76.7c0.1-0.1,0.1-0.1,0.2-0.2  c-0.2-0.7-0.9-0.7-1.4-0.9c-0.5-0.3-1.1-0.5-1.7-0.8c0.1,0.4,0.4,0.5,0.6,0.6C13.2,75.9,14,76.3,14.8,76.7z M16.4,51.9  c0-0.6-0.4-0.9-1.1-1c-0.2,0-0.4-0.1-0.5,0.1c-0.2,0.5,0.3,0.7,0.5,0.9c0.2,0.2,0.3,0.3,0.6,0.3C16.3,52.2,16.4,52.1,16.4,51.9z   M37.4,9.2c-0.4,0-0.9,0.4-0.9,0.7c0,0.2,0.6,0.7,0.9,0.6c0.5,0,0.5-0.5,0.6-0.8C38,9.4,37.7,9.3,37.4,9.2z M31.5,14.9  c-0.1-0.5-0.5-0.6-0.8-0.8c-0.4-0.3-0.5,0.1-0.7,0.3c-0.2,0.3-0.1,0.5,0.2,0.7C30.8,15.6,31.1,15.2,31.5,14.9z M38.6,15.5  c-0.6-0.6-0.9-0.7-1.6-0.2c-0.1,0.1-0.3,0.2-0.3,0.3c0,0.2,0.2,0.3,0.3,0.3C37.7,16.2,38.1,15.8,38.6,15.5z M12.5,69.6  c0.1-0.5-0.1-1-0.1-1.4c0-0.3,0-0.8-0.4-0.7c-0.4,0-0.2,0.5-0.2,0.8C11.8,68.7,11.6,69.4,12.5,69.6z M85.8,34.9  c-0.2-0.6-0.1-1.1-0.7-1.4c-0.5-0.2-0.7,0.2-1,0.4C84.6,34.3,85,34.7,85.8,34.9z M75.8,79.7c0.8-0.2,1.4-0.8,2.1-1.1  c0.1-0.1,0.1-0.2,0-0.3c-0.1-0.1-0.2-0.1-0.3-0.1c-0.7,0.3-1.4,0.7-2.1,1.1c-0.1,0.1-0.1,0.2-0.1,0.3C75.6,79.7,75.7,79.7,75.8,79.7  z M87.7,49.7c0.4,0.1,0.6-0.2,0.9-0.3c0.5-0.2,0.4-0.6,0.2-0.9c-0.2-0.4-0.5-0.2-0.8,0C87.5,48.9,87.5,49.3,87.7,49.7z M59.9,9.3  c-1.2-1.2-1.3-1.2-2.1-0.7C58.5,8.9,58.9,9.8,59.9,9.3z M31.5,84.1c-0.2,0.4-0.2,0.9,0.1,1.1c0.4,0.3,0.9,0.2,1.4-0.2  C32.5,84.6,32.1,84.3,31.5,84.1z M26.4,82.3c0-0.1,0-0.2-0.1-0.2c-0.5-0.4-1.2-0.5-1.5-1c0,0-0.2,0-0.3,0c-0.1,0.1-0.1,0.3,0,0.4  c0.5,0.5,1,0.9,1.7,1.1C26.2,82.6,26.4,82.5,26.4,82.3z M60.8,86.6c0.2,0.1,0.4,0,0.6-0.1c0.7-0.3,0.7-0.7,0.2-1.2  c-0.2-0.2-0.4-0.2-0.6-0.1c-0.2,0-0.3,0.2-0.3,0.4C60.8,85.9,60.7,86.2,60.8,86.6z M10.6,47.8c-0.3,0-0.4,0.2-0.3,0.4  c0.1,0.3,0.4,0.5,0.7,0.6c0.2,0.1,0.4,0.5,0.7,0.2c0.2-0.2,0.1-0.6-0.3-0.9C11.2,48.1,10.9,48,10.6,47.8z M18.7,77.1  c-0.9-0.8-1.8-1.1-2.8-0.9C16.8,76.7,17.6,77.3,18.7,77.1z M14.7,29.8c0.3-0.1,0.6-0.2,1-0.3c0.2-0.1,0.2-0.2,0.1-0.4  c-0.3-0.4-0.7-0.4-1.4,0c-0.2,0.1-0.4,0.2-0.3,0.5C14.2,29.7,14.4,29.8,14.7,29.8z M30.1,15.8c-0.1-0.3-0.3-0.4-0.5-0.3  c-0.4,0.2-0.5,0.3-0.4-0.2c0-0.3-0.2-0.4-0.5-0.4c-0.2,0-0.4,0.2-0.3,0.3c0,0.6,0.7,0.6,1,0.9c0.3,0.3,0.5,0,0.7-0.2  C30,15.9,30,15.9,30.1,15.8z M10.8,32.8c0.3-0.3,0.9-0.1,0.9-0.6c0.1-0.7-0.6-0.8-1.1-1.1C10.8,31.6,10.6,32.1,10.8,32.8z   M23.9,20.8c0.3,0.3,0.8,0.5,1.2,0.7c0.2,0.1,0.3,0,0.5-0.1c0.1-0.2,0-0.3-0.1-0.5C24.9,20.2,24.8,20.2,23.9,20.8z M18.6,22.1  c0,0,0,0.1,0,0.1c0.2,0.4,0.7,0.6,1.1,0.8c0.1,0.1,0.3,0,0.3-0.2c0.1-0.4-0.2-0.6-0.4-0.9c0-0.1-0.1-0.1-0.1-0.2  c-0.1-0.2-0.3-0.1-0.5,0C18.8,21.8,18.6,21.9,18.6,22.1z M88.4,34.5c-0.6,0.2-0.8,0.5-0.9,1c0,0.7,0.7,0.3,0.9,0.7  C88.5,35.6,88.6,35.1,88.4,34.5z M18.7,35.4c-0.8-0.8-1.5-1.5-2.7-1.7C16.9,34.2,17.6,35.2,18.7,35.4z M54.4,91.6  c0,0.1,0,0.4,0.2,0.5c0.3,0.1,0.5-0.2,0.7-0.3c0.2-0.1,0.3-0.2,0.2-0.4c-0.2-0.3-0.3-0.8-0.7-0.8c-0.5,0-0.3,0.5-0.4,0.8  C54.5,91.3,54.5,91.4,54.4,91.6z M49.7,96.9c0.2-0.1,0.2-0.2,0.2-0.3c0-0.3-0.1-0.7,0.4-0.3c0.1,0.1,0.3-0.1,0.3-0.2  c0-0.3,0.4-0.5,0.3-0.9c-0.5,0.1-0.9,0.5-1.4,0.6c-0.5,0.1-0.5,0.4-0.2,0.7C49.4,96.6,49.5,96.8,49.7,96.9z M86.8,75.2  c-0.9,0.1-1.6,0.7-2.5,0.7c-0.2,0-0.3,0.3-0.2,0.5c0.1,0.3,0.3,0.2,0.5,0.1C85.3,76.1,86,75.6,86.8,75.2z M14.7,38.3  c-0.2,0-0.3,0.1-0.3,0.4c0.1,0.4,0.7,1.1,1.1,1c0.2,0,0.2-0.1,0.3-0.3c0.1-0.5-0.3-0.9-0.9-1C14.9,38.4,14.8,38.3,14.7,38.3z   M57.2,92c0.5-0.2,0.9-0.4,1.3-0.7c0.2-0.1,0.2-0.3,0.1-0.5c-0.1-0.1-0.2-0.4-0.4-0.3c-0.3,0.2-0.7,0.4-1,0.6  C57,91.4,57,91.6,57.2,92z M19.7,25.9c0.2-0.1,0.6,0.1,0.7-0.3c0.1-0.3-0.3-0.4-0.5-0.5c-0.1-0.1-0.2-0.1-0.4-0.2  c-0.3-0.2-0.6-0.2-0.7,0.1c-0.1,0.3,0.1,0.4,0.3,0.6C19.3,25.8,19.4,25.9,19.7,25.9z M70.1,80c-0.1-1.2-0.1-1.2-1.1-0.7  c-0.2,0.1-0.4,0.1-0.5,0.5C69,79.7,69.5,80.1,70.1,80z M16.4,41.1c-0.2,0.4,0.1,0.6,0,0.9c-0.1,0.6-0.1,0.7,0.8,0.9  C16.9,42.2,17.6,41.3,16.4,41.1z M11.5,64.4c0.2-1-0.1-1.3-0.8-1.2c-0.3,0-0.4,0.2-0.3,0.5C10.5,64.3,11,64.4,11.5,64.4z M56.6,89.5  c-0.4,0.1-1,0.2-1,0.6c-0.1,0.4,0.3,0.8,0.8,1C56.6,90.6,56.7,90.1,56.6,89.5z M16,54.9c-0.4,1.3-0.3,1.5,0.8,1.4  C16.9,55.6,16.7,55.1,16,54.9z M75.4,73.7c-0.4-0.7-0.4-1.3-1.1-1.6C74,73.4,74,73.4,75.4,73.7z M18.2,31.8c0.2-0.5,0-0.8-0.4-1.1  c-0.2-0.2-0.8-0.1-0.9,0.2c-0.1,0.3,0.2,0.4,0.4,0.6C17.6,31.6,17.9,31.8,18.2,31.8z M12.6,61.9c0.1,0.3,0,0.7,0.2,0.8  c0.5,0.1,0.9,0.4,1.5,0.2C13.6,62.2,13.6,62.2,12.6,61.9z M13.4,51.5c-0.1,0.9,0.1,1.1,0.7,1.4c0.2,0.1,0.4,0.1,0.5-0.1  c0.1-0.2,0.1-0.4,0-0.5C14.3,51.9,13.9,51.7,13.4,51.5z M14.9,45.2c-0.2,0-0.3,0.1-0.3,0.3c0,0.4,0.6,0.9,1.1,0.9  c0.2,0,0.3-0.1,0.4-0.3c0-0.6-0.4-0.7-0.8-0.8C15.1,45.3,15,45.3,14.9,45.2z M82.7,73.4c-0.5-0.3-0.9-0.6-1.6-0.6  C81.7,74.4,82,74.4,82.7,73.4z M75.3,72.5c0.1,0.5,0.2,0.9,0.7,1.1c0.4,0.1,0.7-0.2,1-0.6C76.4,72.6,75.9,72.4,75.3,72.5z   M21.6,67.1c-0.1-0.4-0.5-0.5-0.8-0.7c-0.2-0.2-0.5-0.3-0.6,0.1c-0.1,0.3-0.1,0.7,0.3,0.8C20.9,67.3,21.3,67.4,21.6,67.1z   M16.3,23.1c-0.1-0.1-0.1-0.2-0.2-0.3c-0.6,0.3-1.2,0.7-1.8,1c-0.2,0.1-0.4,0.2-0.3,0.4c0.1,0.2,0.4,0.2,0.6,0.1  C15.2,23.9,15.8,23.5,16.3,23.1z M18.8,67.1c0.1-0.9,0.1-0.9-0.5-1.3c-0.2-0.2-0.4-0.1-0.4,0.2C17.7,66.6,17.9,66.8,18.8,67.1z   M11.8,46.1c-0.1-0.9-0.3-1.2-1-1.4c-0.2,0-0.4-0.1-0.4,0.1c-0.1,0.2,0,0.3,0.2,0.4C10.9,45.6,11.3,45.8,11.8,46.1z M60,89.6  c-0.4-0.1-0.6,0.3-0.9,0.4c-0.2,0.1-0.3,0.3-0.2,0.5c0.1,0.2,0.3,0.4,0.6,0.2C60.1,90.6,60.1,90.4,60,89.6z M40.2,14.6  c-0.8-0.9-1-0.5-1.7,0.1C39.2,15.3,39.2,15.3,40.2,14.6z M51.8,91.5c0-0.3-0.6-0.6-1-0.6c-0.2,0-0.3,0.2-0.2,0.4  c0.1,0.3,0.1,0.8,0.6,0.8C51.4,92.1,51.7,91.9,51.8,91.5z M52.9,89.4c0,0.4,0.2,0.5,0.4,0.8c0.1,0.2,0.2,0.4,0.6,0.3  c0.2-0.1,0.3-0.3,0.3-0.5c0-0.3-0.1-0.5-0.4-0.5C53.5,89.4,53.2,89.3,52.9,89.4z M37.6,90.6c0.6,0.8,1.4,1.2,2.2,1.1  C39.2,91,38.5,90.8,37.6,90.6z M87,39.9c-0.4-0.3-0.6-0.8-1.1-0.5c-0.5,0.3-0.2,0.8-0.2,1.3C86.2,40.4,86.6,40.2,87,39.9z   M45.5,11.1c-0.9-0.7-0.9-0.7-1.8-0.1C44.3,11.2,44.8,11.8,45.5,11.1z M16.6,54.6c0-0.9-0.5-1.4-1.2-1.3c-0.1,0-0.2,0.1-0.2,0.2  c0,0.1,0,0.3,0.1,0.3C15.8,53.8,16.1,54.4,16.6,54.6z M14.3,66.6c-0.1-0.6-0.8-0.6-1-1c-0.1-0.1-0.4-0.2-0.5,0  c-0.1,0.2,0,0.4,0.1,0.6C13.2,66.7,13.7,66.6,14.3,66.6z M35.5,87.9c-0.4-0.6-1-0.8-1.4-1.1c-0.1-0.1-0.3-0.1-0.4,0  c-0.1,0.1,0,0.3,0,0.4C34.1,87.6,34.6,87.9,35.5,87.9z M49.9,92.9c0,0.6,0,1,0,1.4c0,0.2,0.1,0.5,0.4,0.5c0.3-0.1,0.5-0.3,0.4-0.7  C50.6,93.7,50.3,93.4,49.9,92.9z M79.1,30.8c-1.3,0.4-1.9,0.9-1.9,1.6C78.1,31.9,78.7,31.4,79.1,30.8z M86.9,68.9  c-0.2-0.4-0.5-0.5-0.9-0.3c-0.3,0.1-0.5,0.3-0.5,0.6c0,0.2,0,0.4,0.2,0.5c0.2,0.1,0.3,0,0.4-0.1C86.4,69.3,86.6,69.1,86.9,68.9z   M56.6,8.4c-0.4-0.6-1-0.8-1.4-1.2c-0.1-0.1-0.3-0.1-0.4-0.1c-0.1,0-0.2,0-0.2,0.2c0,0.1,0,0.2,0,0.2C55.2,7.8,55.7,8.4,56.6,8.4z   M16.6,64.2c0-0.4-0.9-0.9-1.3-0.7c-0.2,0.1-0.3,0.4,0,0.5c0.3,0.2,0.6,0.4,1,0.4C16.5,64.5,16.6,64.4,16.6,64.2z M10.4,37.8  c0,0.3,0.3,0.5,0.9,0.5c0.2,0,0.5,0,0.4-0.3c0-0.3-0.4-0.6-0.9-0.6C10.6,37.4,10.4,37.5,10.4,37.8z M51.5,10.9  c0.5,0.6,1,1.2,1.7,1.5c0.2,0.1,0.3,0,0.4-0.3C53,11.6,52.3,11.3,51.5,10.9z M85.1,30.6c-0.3,0-0.5,0.1-0.6,0.4  c-0.1,0.3,0.2,0.3,0.4,0.4c0.2,0.1,0.3,0.2,0.5,0.2c0.2,0,0.4-0.1,0.5-0.3c0.1-0.1,0-0.3-0.1-0.4C85.5,30.8,85.4,30.6,85.1,30.6z   M14.2,23.5c-0.1-0.1-0.1-0.1-0.2-0.2c-0.9,0.4-1.7,1-2.3,1.8C12.5,24.6,13.4,24,14.2,23.5z M14.3,65.7c-0.3-0.5-0.8-0.8-1.1-1.2  c-0.1-0.1-0.3-0.2-0.5,0c-0.2,0.2-0.2,0.4,0,0.6C13.2,65.3,13.7,65.7,14.3,65.7z M21.1,74.9C21,75.3,21,75.7,21.1,76  c0.1,0.3,0.4,0.5,0.7,0.4c0.2-0.1,0-0.3-0.1-0.4c0-0.1-0.1-0.1,0-0.3C21.8,75.2,21.8,75.2,21.1,74.9z M10.4,42.9  c0.2,0.6,0.7,0.7,1.1,0.9c0.1,0.1,0.3,0,0.3-0.1c0-0.2,0-0.5-0.1-0.7c-0.1-0.2-0.3-0.1-0.5,0C10.9,43.2,10.7,42.9,10.4,42.9z   M15.4,30.2c0.5,0.5,0.9,0.5,1.3,0.3c0.1,0,0.3-0.1,0.3-0.3c0-0.2-0.1-0.3-0.2-0.3C16.3,29.5,15.9,29.9,15.4,30.2z M73.6,73.6  c-0.6-0.1-1.1-0.5-1.7-0.4C72.3,74.3,72.3,74.3,73.6,73.6z M11.7,36.9c0-0.2,0.1-0.5,0.1-0.8c0-0.3-0.4-0.4-0.4-0.3  c-0.1,0.4-0.7,0.2-0.7,0.4c-0.1,0.4,0.3,0.4,0.5,0.6C11.2,36.9,11.4,37,11.7,36.9z M26.8,79.4c0-0.4-0.3-0.6-0.7-0.7  c-0.2,0-0.4-0.2-0.5,0.1c-0.1,0.2,0,0.4,0.1,0.5c0.2,0.2,0.5,0.3,0.7,0.5C26.6,79.8,26.8,79.7,26.8,79.4z M84.6,59.6  c-0.1-0.5,0-0.9-0.2-1.3c-0.4,0.2-0.7,0.3-0.9,0.7C83.9,59.3,84.2,59.5,84.6,59.6z M25.6,75.4c0-0.6-0.1-0.7-0.5-0.7  c-0.3,0-0.5,0.1-0.5,0.4c0,0.5,0.3,0.9,0.7,0.8C25.7,76,25.5,75.6,25.6,75.4z M52.6,88.7c0.5,0.3,1,0.4,1.5,0.2  C53.6,87.9,53.5,87.9,52.6,88.7z M81.8,62.7c-0.3-0.5-1.1-0.1-1.3-0.7c0.2,0.5,0.1,1,0.6,1.3C81.3,63.1,81.7,63.1,81.8,62.7z   M40.8,7.6c-0.6,0.1-1,0.2-1.3,0.7C40.4,9,40.5,8.9,40.8,7.6z M14,43.8C14,43.8,14,43.8,14,43.8c0-0.1,0-0.3,0-0.4  c0-0.3-0.1-0.5-0.4-0.5c-0.3,0.1-0.2,0.4-0.2,0.6c0,0.3,0.4,0.4,0.3,0.6c-0.1,0.2-0.4,0.4,0.1,0.5c0.3,0.1,0.3-0.3,0.3-0.5  C14,44,14,43.9,14,43.8z M50.4,12.6c-0.7-0.5-0.7-0.5-1.5,0.1C49.4,13.4,49.9,13,50.4,12.6z M55.7,92c-0.2,0.1-0.5,0.3-0.7,0.4  c-0.1,0.1-0.2,0.2-0.1,0.4c0.2,0.2,0.4,0.3,0.6,0.1c0.3-0.2,0.7-0.2,0.6-0.7C56.1,92.1,56,92,55.7,92z M17.1,48.7  c-0.1-0.3,0.2-0.8-0.3-0.8c-0.7,0-0.1,0.6-0.2,0.9c0,0.1-0.1,0.3,0,0.4c0.1,0.1,0.2,0.1,0.3,0.1c0.1,0,0.2-0.1,0.2-0.2  C17.2,49,17.1,48.9,17.1,48.7z M88.6,41.8c-0.6,0.1-0.8,0.5-0.8,1c0,0.4,0.2,0.4,0.5,0.3C88.9,42.8,88.6,42.3,88.6,41.8z M17.6,73.8  c0.6,0.5,1.1,0.2,1.7,0.1C18.5,73.2,18.5,73.2,17.6,73.8z M87.6,37.8c0.3-0.1,0.7-0.2,0.9-0.5c0.1-0.1,0.1-0.3,0-0.4  c-0.2-0.2-0.5-0.2-0.8,0c-0.2,0.2-0.5,0.3-0.4,0.7C87.3,37.6,87.4,37.7,87.6,37.8z M83.7,61.8c-0.7-0.5-1.1,0-1.5,0.2  c-0.1,0-0.3,0.2-0.2,0.3c0.1,0.2,0.3,0.3,0.4,0.2C82.8,62.3,83.2,62.1,83.7,61.8z M49.1,8.7c0.2,0.3,0.4,0.5,0.8,0.5  c0.2,0,0.4-0.1,0.5-0.3c0.1-0.3-0.1-0.4-0.3-0.5C49.8,8.4,49.4,8.4,49.1,8.7z M20.1,76c-0.2,0.2-0.2,0.4-0.1,0.6  c0.1,0.3-0.1,0.8,0.4,0.7c0.5-0.1,0.3-0.6,0.3-0.9C20.6,76.1,20.4,76,20.1,76z M15.1,72.9c-0.3,0-0.3,0.2-0.3,0.5  c0,0.4,0.3,0.6,0.6,0.6c0.2,0,0.4-0.2,0.4-0.4C15.9,73.2,15.5,72.8,15.1,72.9z M87.6,33.6c0,0.2-0.1,0.5,0.3,0.5  c0.3,0,0.6-0.2,0.6-0.6c0-0.3-0.2-0.5-0.5-0.5C87.5,33,87.7,33.3,87.6,33.6z M53.2,94.1c-0.1,0-0.2-0.2-0.2-0.2  c-0.3,0.1-0.7,0.1-0.9,0.4c-0.1,0.1-0.3,0.3-0.1,0.4c0.1,0.2,0.3,0.3,0.5,0.2c0.3-0.2,0.6-0.4,0.8-0.6  C53.2,94.3,53.2,94.2,53.2,94.1z M12.8,46.8c0.2-0.3,0-0.6,0-0.8c0-0.4-0.2-0.4-0.5-0.4c-0.3,0-0.4,0.2-0.4,0.5  C12,46.6,12.4,46.7,12.8,46.8z M88.6,26.1c0-0.4,0.2-0.8,0-1.2c-0.4,0.1-0.7,0.2-0.9,0.5C88,25.5,88.2,25.8,88.6,26.1z M71.9,77.5  c-0.4-0.3-0.8-0.4-1.1-0.4c-0.2,0-0.3,0-0.4,0.3c0,0.2-0.1,0.3,0,0.5c0.1,0.2,0.3,0.1,0.5,0.1C71.2,77.8,71.5,77.7,71.9,77.5z   M83.9,66.6c0.3,0.3,0.7,0.5,1.1,0.5c0.1-0.4,0.1-0.7-0.1-1.1C84.6,66.1,84.2,66.3,83.9,66.6z M16.8,22.5c0.9-0.2,1.6-0.7,2.2-1.5  C18.2,21.6,17.4,21.8,16.8,22.5z M14.3,48.6c0-0.4,0.1-0.7,0-0.9c0-0.2-0.3-0.3-0.5-0.3c-0.4,0,0,0.3-0.1,0.4  C13.2,48.5,13.9,48.4,14.3,48.6z M85.8,45.8c-0.2,0.4,0,0.8,0.4,1c0.2,0.2,0.5,0.1,0.6-0.2c0.1-0.2,0-0.3-0.2-0.4  C86.4,46.1,86.2,45.8,85.8,45.8z M86.7,42.4c0-0.3-0.4-0.6-0.7-0.6c-0.2,0.1-0.4,0.2-0.4,0.4c0.1,0.2,0.1,0.6,0.5,0.6  C86.5,42.9,86.7,42.7,86.7,42.4z M15,64.7c0.6,0.7,0.6,0.7,1.5,1c0.1-0.2,0.1-0.4-0.1-0.6C16,64.8,15.6,64.6,15,64.7z M19.3,70.1  c0,0.1,0,0.2,0,0.2c0,0.3,0,0.7,0.3,0.7c0.5,0,0.2-0.5,0.3-0.8c0-0.1,0-0.1,0-0.2c-0.1-0.2-0.2-0.4-0.4-0.4  C19.2,69.8,19.3,70,19.3,70.1z M35.7,89.6c-0.9-1-1.5-1.4-2.2-1.1C34.3,88.6,34.8,89.2,35.7,89.6z M85.6,60.4c0.4,0,0.6-0.3,1-0.5  c0.1,0,0.3-0.1,0.2-0.3c-0.1-0.1-0.2-0.2-0.3-0.2c-0.4,0.1-0.7,0.3-1,0.6c0,0-0.1,0.1,0,0.2C85.5,60.3,85.6,60.4,85.6,60.4z   M56.9,90.7c0.6-0.1,0.8-0.2,1.1-0.6c-0.2-0.2-0.3-0.7-0.7-0.8C56.8,89.7,57.2,90.2,56.9,90.7z M17,45.7c-0.2,0.3-0.5,0.5-0.4,0.9  c0,0.2,0.1,0.5,0.4,0.5c0.3,0,0.3-0.3,0.3-0.5C17.1,46.3,17.3,46,17,45.7z M43.9,11.8c-0.5-0.3-0.9-0.8-1.5-0.4  c-0.1,0.1-0.2,0.2-0.2,0.3c0,0.1,0.1,0.2,0.3,0.1c0.2,0,0.6-0.2,0.7,0C43.4,12.3,43.6,12,43.9,11.8z M39.4,9.8  c0.2-0.1,0.5,0,0.5-0.4c-0.1-0.4-0.4-0.5-0.8-0.6c-0.3,0-0.3,0.2-0.3,0.5C38.8,9.7,39.1,9.8,39.4,9.8z M58.5,9.9  c-0.3-0.3-0.4-0.5-0.5-0.6c-0.3-0.1-0.2-0.5-0.5-0.6c-0.2-0.1-0.4-0.1-0.6,0.1c-0.1,0.2,0.1,0.3,0.2,0.4C57.5,9.3,57.8,9.8,58.5,9.9  z M16.5,73.1c-0.1,0.2,0.1,0.2,0.2,0.2c0.1,0.1,0.3,0.2,0.3,0.3c-0.1,0.2-0.3,0-0.4-0.1c-0.1,0-0.2,0-0.2,0.2c0.3,0.2,0.7,0.2,1,0.1  c0.2-0.1,0.1-0.2,0.1-0.4C17.2,73.1,16.8,73.1,16.5,73.1z M13.1,36.5c0-0.3-0.1-0.5-0.4-0.5c-0.3,0-0.4,0.3-0.4,0.5  c0,0.3,0.1,0.5,0.4,0.5C13.1,37,13.1,36.8,13.1,36.5z M87.5,57.7c0-0.3,0-0.5,0-0.7c0-0.2-0.1-0.4-0.3-0.5c-0.3,0-0.5,0.1-0.6,0.4  c-0.1,0.2,0.1,0.4,0.3,0.5C87.1,57.5,87.2,57.5,87.5,57.7z M78.6,76.5c-0.2,0.1-0.5,0.2-0.7,0.4c-0.2,0.1-0.2,0.3,0,0.5  c0.2,0.2,0.4,0.1,0.6,0c0.2-0.2,0.5-0.3,0.4-0.7C78.9,76.5,78.8,76.5,78.6,76.5z M84.3,62.3c0-0.1-0.1-0.1-0.1-0.2  c-0.3-0.1-1.2,0.3-1.2,0.6c0,0.1,0,0.1,0.1,0.2c0.2,0.2,0.4,0.1,0.6,0C83.9,62.7,84.2,62.6,84.3,62.3z M87.5,65.6  c0.1-0.4,0.2-0.7,0-1c-0.4,0-0.7,0.2-0.8,0.5C86.8,65.3,87.1,65.5,87.5,65.6z M87.3,42.7c-0.2,0-0.9,0.5-0.9,0.7  c0,0.1,0.1,0.3,0.3,0.3c0.4-0.1,0.8-0.2,0.8-0.7C87.4,42.9,87.4,42.8,87.3,42.7z M26,80.4c-0.2,0.1-0.5-0.1-0.5,0.3  c0,0.4,0.3,0.4,0.6,0.4c0.3,0,0.5,0,0.5-0.4C26.6,80.3,26.3,80.4,26,80.4z M17.6,65.9c0-0.3,0-0.6-0.4-0.6c-0.2,0-0.4,0.1-0.3,0.3  c0,0.3,0.1,0.6,0.5,0.7C17.5,66.3,17.6,66.1,17.6,65.9z M13.1,51.8c0-0.3,0-0.7-0.3-0.7c-0.4,0-0.2,0.4-0.3,0.7  c-0.1,0.3,0,0.5,0.4,0.5C13.1,52.2,13.1,51.9,13.1,51.8z M37.1,89.4c0.7,0.6,1.3,0.9,2,1C38.5,90.1,38.1,89.3,37.1,89.4z M12.5,74.1  c0.7,0.4,1.2,0.6,1.9,0.4C13.8,74.2,13.3,73.9,12.5,74.1z M13,67.1c0.3,0.3,0.6,0.5,1,0.8c0.1,0.1,0.3,0.2,0.4,0  c0.1-0.2,0.1-0.4-0.1-0.5C13.9,67.2,13.5,67.1,13,67.1z M37.3,86.9c0.6,0.8,0.8,0.9,1.6,1.1C38.6,87.4,38.6,87.4,37.3,86.9z   M83.9,57.8c-0.1-0.3-0.4-0.4-0.7-0.4c-0.2,0-0.3,0.2-0.3,0.4c0.1,0.2,0.1,0.5,0.4,0.5C83.7,58.2,83.9,58.1,83.9,57.8z M86.7,65.6  c0,0.5,0.3,0.8,0.5,1.1c0.1,0.1,0.2,0.2,0.3,0.1c0.1-0.1,0.2-0.2,0.1-0.4C87.5,65.9,87.1,65.8,86.7,65.6z M12.7,54.1  C13,54,13,53.7,13,53.4c0-0.3-0.2-0.4-0.4-0.4c-0.3,0-0.3,0.3-0.3,0.5C12.2,53.9,12.4,54,12.7,54.1z M19.1,72.4  c-0.3-0.5-0.7-0.6-1.2-0.5c-0.1,0-0.2,0.1-0.2,0.2c0,0.1,0.1,0.2,0.2,0.2C18.2,72.2,18.6,72.6,19.1,72.4z M85.7,53.2  c0-0.3-0.1-0.7-0.5-0.7c-0.2,0-0.4,0.2-0.4,0.4c0,0.4,0.3,0.5,0.6,0.6C85.6,53.5,85.7,53.3,85.7,53.2z M38.1,88.6  c0.7,0.8,0.9,0.9,1.8,0.9C39.4,89.1,38.8,88.9,38.1,88.6z M55.1,44.8c0.1,0.1,0.1,0.1,0.2,0.2c0.4-0.5,1.2-0.5,1.3-1.5  C56,43.9,55.6,44.3,55.1,44.8z M10.9,41.2c0.1,0.5,0.1,1,0.6,1.1c0.1,0,0.2-0.1,0.2-0.2C11.9,41.5,11.5,41.4,10.9,41.2z M25.1,79.5  c0-0.2-0.2-0.4-0.5-0.4c-0.4,0-0.3,0.3-0.3,0.5c0,0.2,0.1,0.4,0.3,0.4C24.9,80,25.1,80,25.1,79.5z M10.3,52.2c0.2,0,0.4,0.1,0.4-0.2  c0-0.1-0.1-0.3-0.3-0.3c-0.3,0.1-0.4-0.2-0.6-0.3c-0.1-0.1-0.3-0.1-0.4,0.1c-0.1,0.1-0.1,0.3,0,0.4C9.7,52.1,10.1,52.1,10.3,52.2z   M86,38.7c0.3,0,0.8-0.4,0.9-0.6c0-0.1,0-0.2-0.1-0.3c-0.4-0.2-0.6,0.2-0.9,0.4c0,0-0.1,0-0.1,0.1c-0.1,0.1-0.2,0.2-0.1,0.3  C85.9,38.6,86,38.6,86,38.7z M12.5,39.8c-0.3,0-0.5,0.1-0.4,0.4c0,0.3,0.1,0.5,0.4,0.5c0.3,0,0.3-0.4,0.5-0.7  C13,39.9,12.7,39.8,12.5,39.8z M23.3,77.2c0-0.1,0-0.2,0-0.2c-0.3-0.2-0.5-0.4-0.9-0.5c-0.1,0-0.3,0.1-0.2,0.3  c0.1,0.2,0.8,0.7,1,0.6C23.3,77.3,23.3,77.3,23.3,77.2z M88.4,29.1c0-0.2,0-0.5-0.3-0.5c-0.4,0-0.3,0.4-0.3,0.7  c0,0.2-0.1,0.4,0.2,0.4C88.5,29.8,88.4,29.4,88.4,29.1z M85.4,71.5c0.2-0.2,0.1-0.5,0-0.7c0-0.2,0-0.5-0.3-0.4  c-0.2,0.1-0.5,0.2-0.3,0.5C84.9,71.3,85,71.6,85.4,71.5z M19.6,63.9c-0.2,0.1-0.2,0.2-0.2,0.4c0,0.4,0.2,0.5,0.5,0.5  c0.2,0,0.3-0.2,0.3-0.4C20.1,64.1,19.9,63.9,19.6,63.9z M57.9,43c0,0,0.1,0.1,0.1,0.1c0.4-0.2,0.8-0.5,1.1-0.7  c0.1-0.1,0.2-0.2,0.1-0.3c-0.1-0.2-0.3-0.1-0.4,0C58.6,42.4,58.3,42.7,57.9,43z M87.3,63.7c-0.5,0-0.9,0.4-1.3,0.7c0,0,0,0.2,0,0.2  c0.5,0.1,0.8-0.3,1.2-0.5C87.3,64,87.3,63.9,87.3,63.7z M19.3,66.6c0,0.1,0,0.5,0.3,0.4c0.4,0,0.4-0.4,0.4-0.6  c0-0.2-0.1-0.4-0.4-0.4C19.3,66,19.3,66.2,19.3,66.6z M71.4,75.6c-0.2-0.1-0.5-0.2-0.7-0.3c-0.3,0-0.5,0.2-0.5,0.4  c0,0.2,0.2,0.4,0.5,0.3C71,75.9,71.3,76,71.4,75.6z M70,76c0-0.1,0-0.3-0.2-0.4c-0.2-0.1-0.9,0.3-0.8,0.5c0,0.2,0.2,0.3,0.4,0.3  C69.7,76.4,70,76.4,70,76z M13.3,76.4c-0.5-0.3-0.9-0.7-1.6-0.7C12.2,76.3,12.7,76.5,13.3,76.4z M41.8,8.8c-0.1-0.3-0.2-0.5-0.6-0.7  c-0.1,0.4-0.5,0.6-0.3,1.1C41.2,9.1,41.5,9.1,41.8,8.8z M31.8,17.5c0.3-0.1,0.6-0.2,0.6-0.5c0-0.2-0.2-0.4-0.5-0.3  c-0.3,0-0.6,0.1-0.6,0.5C31.4,17.4,31.6,17.5,31.8,17.5z M13,39c0-0.4-0.1-0.7-0.5-0.8c-0.2-0.1-0.3,0.1-0.3,0.3  c0,0.3,0.1,0.6,0.5,0.7C12.9,39.4,13,39.2,13,39z M87.4,42.2c0-0.5,0.3-0.9-0.3-1.1c-0.2-0.1-0.5,0.1-0.5,0.3  C86.5,41.9,87,41.9,87.4,42.2z M88.6,47.4c0-0.3,0.4-0.8-0.1-1c-0.1-0.1-0.4,0-0.4,0.2C87.9,47.1,88.2,47.3,88.6,47.4z M87.5,52.7  c0,0.1,0.1,0.1,0.1,0.2c0.4-0.2,0.8-0.4,1.2-0.6c0.1-0.1,0.1-0.2,0.1-0.3c0-0.1-0.2-0.1-0.3-0.1C88.2,52.1,87.8,52.4,87.5,52.7z   M18.3,60.1c0,0.3,0.2,0.3,0.4,0.4c0.2,0.1,0.3,0.3,0.6,0.2c0.1-0.1,0.1-0.3,0.1-0.4c0-0.3-0.3-0.3-0.5-0.3  C18.7,59.9,18.5,59.9,18.3,60.1z M83.7,63.3c0.3,0.3,0.5,0.6,0.9,0.3c0.2-0.2,0.2-0.5,0-0.6C84.2,62.6,84.1,63.1,83.7,63.3z   M83,76.2c0.3-0.1,0.4-0.3,0.3-0.6c0-0.2-0.1-0.4-0.4-0.4c-0.2,0-0.4,0.2-0.4,0.4C82.6,75.9,82.7,76.2,83,76.2z M10.8,69.2  c-0.2,0-0.3,0-0.3,0.2c0,0.3,0,0.6,0.1,0.8c0.1,0.1,0.2,0.1,0.3,0.1c0.1,0,0.1-0.1,0.1-0.2c0-0.1-0.1-0.2-0.1-0.3  C11.1,69.4,11.1,69.3,10.8,69.2z M85.2,69.9c0-0.2-0.2-0.3-0.4-0.3c-0.3,0-0.5,0-0.6,0.3c0,0.2,0.1,0.4,0.4,0.4  C84.9,70.3,85.1,70.2,85.2,69.9z M85.8,64c0.3,0,0.7-0.4,0.6-0.6c0-0.2-0.2-0.2-0.3-0.2c-0.3,0-0.6,0.1-0.6,0.5  C85.5,63.8,85.6,64,85.8,64z M28.5,84c0.1-0.5-0.3-0.7-0.5-0.9c-0.1-0.1-0.3-0.1-0.4,0.1c-0.1,0.1-0.1,0.3,0,0.4  C27.8,83.9,28.1,84,28.5,84z M84.3,50.4c0.2-0.3,0-0.5-0.1-0.8c-0.1-0.2-0.2-0.2-0.4-0.2c-0.1,0-0.2,0.1-0.2,0.2  c-0.2,0.2,0.1,0.3,0.2,0.4C83.9,50.1,84.1,50.3,84.3,50.4z M13.5,49.5c-0.2,0-0.2,0.1-0.2,0.2c-0.1,0.3,0.1,0.4,0.3,0.5  c0.2,0.1,0.5,0.2,0.7,0c0,0,0.1-0.2,0-0.2C14.1,49.8,13.8,49.6,13.5,49.5z M72.5,81.2c0.5-0.2,1.1-0.2,1.5-0.8  C73.4,80.6,72.9,80.8,72.5,81.2z M35.1,85.5c-0.3-0.5-0.8-0.8-1.3-0.9C34,85.1,34.5,85.3,35.1,85.5z M88.1,69.9  c-0.1,0.4-0.2,0.7,0.1,0.9c0.2,0.1,0.5-0.1,0.5-0.3C88.9,70.2,88.5,70.1,88.1,69.9z M88.7,26.6c-0.7,0.5-0.8,0.7-0.5,1.5  C88.7,27.7,88.4,27.2,88.7,26.6z M11.8,39c-0.4-0.4-0.8-0.5-1.2-0.4c-0.1,0-0.1,0.2-0.1,0.3c0.3,0.3,0.7,0.3,1,0.2  C11.6,39.1,11.6,39.1,11.8,39z M11.7,39.9c-0.6-0.4-0.6-0.4-1.3-0.1C10.9,40.1,11.3,40,11.7,39.9z M87.9,41.6  c0.2-0.1,0.3-0.2,0.4-0.2c0.2-0.2,0.3-0.4,0.2-0.6c0-0.1-0.2-0.1-0.3-0.1c-0.3,0.1-0.4,0.3-0.4,0.6C87.9,41.3,87.9,41.4,87.9,41.6z   M23.8,78.6c-0.1,0.4-0.4,0.9,0.1,1.4C24,79.4,24.1,79,23.8,78.6z M84.8,46c0.2-0.1,0.5-0.1,0.5-0.4c0-0.2-0.2-0.3-0.4-0.3  c-0.3,0-0.5,0.2-0.5,0.4C84.4,45.9,84.6,45.9,84.8,46z M14.3,77.3c0.2,0.4,0.5,0.4,0.7,0.6c0.1,0.1,0.3,0.1,0.4-0.1  c0.1-0.1,0-0.3-0.1-0.3C14.9,77.3,14.7,77.1,14.3,77.3z M88.3,32.6c0.2-0.4,0.1-0.8,0-1.1C87.7,32,87.7,32,88.3,32.6z M13,63.4  c0.4,0.3,0.6,0.9,1.3,0.8C13.8,64.1,13.8,63.2,13,63.4z M81.9,54.7c0,0.3,0.1,0.6,0.2,0.7c0.2,0.2,0.4,0.1,0.5,0  c0.2-0.2,0.1-0.3,0-0.4C82.5,54.8,82.3,54.7,81.9,54.7z M20.4,78.9c0.7,0.6,0.7,0.6,1.3,0.5C21.2,79.2,20.8,78.9,20.4,78.9z   M13.4,71c0.2,0.4,0.4,0.6,0.9,0.5c0,0,0.1-0.2,0.1-0.3c-0.1-0.5-0.5-0.3-0.8-0.3C13.5,71,13.5,71,13.4,71z M17.1,53.8  c-0.1,0.4-0.3,0.9,0.2,1.2C17.4,54.6,17.5,54.2,17.1,53.8z M86,61.1c-0.4-0.1-0.7,0-0.9,0.4c0,0,0,0.2,0.1,0.2  c0.4,0.2,0.6-0.1,0.8-0.3C86,61.3,86,61.2,86,61.1z M27.6,82.1c0.2,0.4,0.5,0.7,0.9,0.6c0.1,0,0.1-0.2,0.1-0.3  c-0.1-0.4-0.5-0.3-0.8-0.4C27.9,82,27.8,82,27.6,82.1z M83.7,52.3c0.5,0,0.6-0.2,0.6-0.5c0-0.1,0-0.3-0.2-0.3  c-0.3,0-0.6,0.2-0.6,0.5C83.5,52.1,83.6,52.3,83.7,52.3z M62.5,12.9c0.7,0.7,0.7,0.7,1.3,0.6C63.4,13.1,63.1,12.9,62.5,12.9z   M50.7,8.2c0.4,0.4,0.7,0.2,1,0c0.1-0.1,0.1-0.2,0-0.3c-0.3-0.2-0.5-0.1-0.8,0.1C50.8,8,50.8,8.1,50.7,8.2z M14,38.6  c0.1-0.1,0.2-0.2,0.2-0.4c0-0.3-0.2-0.4-0.4-0.4c-0.2,0-0.3,0.1-0.3,0.3C13.5,38.4,13.6,38.6,14,38.6z M40.7,12.5  c0.5,0.1,0.8,0,1.1-0.4c0,0,0-0.2,0-0.2c-0.4-0.2-0.7,0.1-1,0.3C40.8,12.3,40.8,12.4,40.7,12.5z M35.4,16.4c0,0.2,0.3,0.3,0.4,0.3  c0.2,0.1,0.4-0.1,0.3-0.3c0-0.2-0.1-0.4-0.4-0.4C35.6,16.1,35.4,16.2,35.4,16.4z M87.3,39.5c0.1-0.4,0-0.6-0.3-0.8  c-0.1,0-0.3,0.1-0.3,0.2c-0.1,0.3,0.3,0.4,0.5,0.6C87.2,39.5,87.2,39.5,87.3,39.5z M16.3,66.8c-0.4-0.3-0.6-0.5-0.9-0.7  c-0.1-0.1-0.2-0.1-0.3,0c-0.1,0.1-0.1,0.2,0,0.3C15.4,66.6,15.8,66.9,16.3,66.8z M25.3,77.3c0-0.3-0.3-0.4-0.5-0.4  c-0.1,0-0.3,0.1-0.2,0.2c0.1,0.3,0.2,0.4,0.5,0.4C25.2,77.5,25.3,77.5,25.3,77.3z M30.8,84.9c0.3-0.6,0.5-0.9,0.1-1.3  C30.7,84.1,30.7,84.1,30.8,84.9z M17.6,64.7c0-0.3-0.2-0.4-0.4-0.5c-0.1-0.1-0.3,0.1-0.3,0.2c0,0.3,0.2,0.4,0.4,0.5  C17.4,64.9,17.5,64.9,17.6,64.7z M88.1,30.4c-0.3,0-0.5,0.1-0.4,0.3c0,0.2,0.2,0.3,0.5,0.3c0.1,0,0.2-0.1,0.3-0.3  C88.4,30.5,88.3,30.4,88.1,30.4z M84,70.6c0-0.2-0.1-0.4-0.4-0.4c-0.2,0-0.4,0.1-0.5,0.3c0,0.3,0.3,0.3,0.4,0.3  C83.8,70.9,83.9,70.8,84,70.6z M13,35.2c0-0.2,0-0.5-0.3-0.6c-0.2,0-0.2,0.2-0.2,0.4c0,0.3,0,0.5,0.3,0.6C13,35.6,13,35.4,13,35.2z   M85.7,52.1c0.2,0.3,0.2,0.7,0.6,0.7c0.1,0,0.2-0.1,0.2-0.2C86.4,52.3,86.2,52.1,85.7,52.1z M64.3,82.5c-0.1-0.4-0.1-0.8-0.6-0.7  c-0.2,0-0.3,0.2-0.2,0.3C63.6,82.5,63.9,82.4,64.3,82.5z M17.2,70.2c0.4-0.4,0.2-0.8,0.2-1.2c0-0.1-0.1-0.3-0.3-0.3  c-0.3,0-0.2,0.2-0.2,0.4C17.1,69.5,17.2,69.8,17.2,70.2z M88.4,38.6c0.1-0.4,0-0.4-0.1-0.5c-0.3-0.1-0.7,0.2-0.6,0.4  c0,0.1,0.1,0.3,0.3,0.3C88.2,38.8,88.4,38.6,88.4,38.6z M22.4,75.8c0.2,0.4,0.5,0.6,1.2,0.8C23.3,75.9,22.8,75.8,22.4,75.8z   M42.2,91.4c0.3,0.3,0.5,0.6,0.8,0.5c0.1,0,0.2-0.3,0.1-0.4C42.9,91.2,42.6,91.3,42.2,91.4z M62.2,85.3c0.1,0.2,0.1,0.4,0.4,0.5  c0.2,0.1,0.4,0,0.4-0.2c0-0.3-0.2-0.3-0.4-0.4C62.4,85.1,62.2,85.1,62.2,85.3z M24.5,75.1c0-0.2,0-0.3-0.3-0.4  c-0.2,0-0.4,0.1-0.4,0.3c0,0.2,0.1,0.3,0.3,0.4C24.4,75.4,24.4,75.3,24.5,75.1z M83,73.8c-0.2,0.2-0.6,0.2-0.6,0.6  c0,0.1,0.2,0.2,0.3,0.2C83.2,74.5,83.2,74.2,83,73.8z M88.7,73.6c0.2,0.1,0.3,0.2,0.5,0.2c0.2,0.1,0.3,0,0.4-0.2  c0-0.1,0.1-0.3,0-0.4c-0.1-0.1-0.3,0-0.4,0C89,73.4,88.9,73.5,88.7,73.6z M11.9,70c0.1,0.4,0.3,0.5,0.6,0.4c0,0,0.1-0.1,0.1-0.2  C12.5,70,12.3,69.9,11.9,70C11.9,69.9,11.9,70,11.9,70z M25.2,78.4c-0.1-0.3-0.3-0.4-0.6-0.5c-0.1,0-0.2,0.1-0.1,0.2  c0.1,0.3,0.3,0.5,0.6,0.5C25.2,78.6,25.2,78.5,25.2,78.4z M33.2,84.2c-0.4-0.6-0.7-0.8-1.3-0.9C32.3,83.8,32.6,84.1,33.2,84.2z   M21.1,78.6c-0.5-0.1-0.3-0.8-0.7-0.9C20.2,78.3,20.4,78.6,21.1,78.6z M87.4,62.7c0-0.1,0-0.3-0.1-0.3c-0.3,0-0.5,0.2-0.7,0.5  c0,0,0.1,0.2,0.2,0.2C87.1,63.1,87.4,63,87.4,62.7z M16.5,62.8c-0.6-0.6-0.6-0.6-1.3-0.5C15.8,62.4,16,62.7,16.5,62.8z M17.4,59.6  c0.4,0.1,0.4,0,0.4-0.1c0.1-0.2-0.1-0.4-0.3-0.5c-0.2-0.1-0.3,0.1-0.3,0.2C17.2,59.5,17.3,59.6,17.4,59.6z M12.3,58.1  c0.2-0.5,0.3-0.9,0.1-1.3C12,57.2,12,57.5,12.3,58.1z M12,49.2c0,0.2-0.1,0.5,0.2,0.5c0.3,0,0.2-0.3,0.3-0.5c0-0.2,0-0.4-0.2-0.4  C11.9,48.8,12,49.1,12,49.2z M11,46.2c-0.1-0.2-0.3-0.2-0.4-0.3c-0.2,0-0.2,0.2-0.2,0.3c0.1,0.2,0.2,0.2,0.4,0.2  C10.9,46.4,11,46.3,11,46.2z M16.3,40.5c0.2,0.1,0.3,0.3,0.5,0.4c0.1,0.1,0.3,0.1,0.3-0.1c0-0.1,0-0.2-0.1-0.3  C16.9,40.2,16.7,40.2,16.3,40.5z M13.1,32.3c0.3,0.3,0.5,0.7,1.1,0.7c-0.2-0.4-0.4-0.5-0.6-0.7C13.4,32.2,13.3,32.1,13.1,32.3z   M86.4,30.2c0-0.2-0.1-0.4-0.4-0.4c-0.2,0-0.3,0.1-0.3,0.3c0,0.3,0.3,0.4,0.5,0.4C86.4,30.5,86.3,30.4,86.4,30.2z M85.7,24.8  c-0.6-0.4-0.6-0.4-1-0.3C84.9,24.8,85.2,25,85.7,24.8z M15.7,24.8c-0.1-0.1-0.1-0.3-0.3-0.3c-0.2,0-0.4,0.2-0.4,0.4  c0,0.2,0.2,0.3,0.4,0.3C15.5,25.1,15.7,25,15.7,24.8z M23.8,21.3c0.1,0.5,0.4,1,1.1,0.5C24.5,21.7,24.2,21.5,23.8,21.3z M65.4,81.1  c0.4,0.2,0.7,0.4,0.9,0c0-0.1,0-0.3,0-0.3C66,80.5,65.8,80.8,65.4,81.1z M30.8,12.5c-0.2,0-0.4,0.1-0.6,0.3  c-0.1,0.1-0.2,0.2-0.2,0.3c0.1,0.2,0.3,0.2,0.5,0C30.7,12.9,30.9,12.8,30.8,12.5z M86.5,36.9c0-0.3,0-0.6-0.4-0.7  c-0.1,0-0.2,0.1-0.2,0.2c0,0.4,0.3,0.4,0.5,0.5C86.4,36.9,86.4,36.9,86.5,36.9z M15.3,52.7c-0.1,0-0.3,0-0.3,0.2  c0,0.3,0.2,0.3,0.5,0.3c0.2,0,0.4,0,0.3-0.3C15.8,52.6,15.5,52.7,15.3,52.7z M26.9,78.4c-0.2-0.3-0.5-0.6-1-0.4  C26.2,78.3,26.5,78.3,26.9,78.4z M16.4,43.4c-0.1,0.2,0,0.4,0.1,0.4c0.1,0.1,0.3,0.4,0.5,0.2c0.2-0.3-0.1-0.4-0.3-0.5  C16.7,43.4,16.6,43.4,16.4,43.4z M47.9,70.9c0.3-0.5,0.2-0.9-0.1-1.3C47.9,70,47.9,70.4,47.9,70.9z M60.5,83.8c0-0.1,0-0.3-0.2-0.3  c-0.2,0-0.4,0-0.4,0.2c0,0.2,0.2,0.3,0.3,0.3C60.4,84,60.5,83.9,60.5,83.8z M21.4,76.7c-0.2,0-0.3,0-0.3,0.2c0,0.3,0.1,0.4,0.3,0.4  c0.1,0,0.3,0,0.3-0.2C21.8,76.9,21.6,76.8,21.4,76.7z M56.6,87.1c0.3,0,0.4-0.1,0.4-0.4c0-0.1,0-0.3-0.2-0.2  c-0.2,0.1-0.5,0.1-0.6,0.4C56.2,87.1,56.4,87.1,56.6,87.1z M24.3,18.6c0,0.1,0,0.2,0.1,0.2c0.3,0,0.5-0.1,0.6-0.3  c0.1-0.1-0.1-0.2-0.2-0.2C24.6,18.3,24.4,18.4,24.3,18.6z M74.4,73.8c-0.2,0-0.3,0.1-0.3,0.2c0,0.2,0.2,0.3,0.4,0.3  c0.1,0,0.3-0.1,0.3-0.2C74.9,73.8,74.6,73.9,74.4,73.8z M15.3,74.7c-0.2,0-0.2,0.1-0.2,0.3c0,0.2,0.1,0.4,0.4,0.4  c0.2,0,0.2-0.1,0.3-0.3C15.7,74.8,15.5,74.7,15.3,74.7z M12.3,27.3c0.1,0,0.3-0.1,0.3-0.2c0-0.2-0.2-0.3-0.5-0.3  c-0.2,0-0.3,0.1-0.3,0.3C11.9,27.2,12.1,27.3,12.3,27.3z M71.2,81.1c0-0.2-0.2-0.4-0.4-0.4c-0.2,0-0.2,0.2-0.2,0.3  c0,0.2,0,0.4,0.3,0.4C71.1,81.5,71.2,81.3,71.2,81.1z M19,68.7c-0.5-0.6-0.5-0.6-1.1-0.6C18.1,68.4,18.4,68.6,19,68.7z M16.9,45.3  c0.2,0,0.3-0.1,0.3-0.3c0-0.2-0.1-0.4-0.3-0.5c-0.2,0-0.3,0.2-0.3,0.3C16.5,45.1,16.6,45.3,16.9,45.3z M29.1,80.2  c-0.2-0.7-0.6-0.7-1.1-0.8C28.3,79.8,28.6,80,29.1,80.2z M79.3,70.7c0,0.3-0.3,0.7,0.2,0.9c0.1,0,0.2,0,0.2,0  C79.8,71.2,79.6,70.9,79.3,70.7z M18,29.6c-0.1-0.2-0.2-0.5-0.6-0.5c-0.1,0-0.2,0.1-0.2,0.2c0,0.3,0.3,0.4,0.6,0.5  C17.9,29.8,18,29.7,18,29.6z M19,63.9c0-0.2-0.2-0.2-0.3-0.2c-0.2,0-0.3,0.1-0.2,0.3c0,0.2,0.2,0.2,0.3,0.2C19,64.2,19,64.1,19,63.9  z M87.4,68.4c0-0.2-0.1-0.4-0.3-0.4c-0.1,0-0.3,0-0.3,0.2c0,0.3,0.2,0.3,0.4,0.4C87.3,68.7,87.3,68.6,87.4,68.4z M26.3,84.2  c-0.4-0.3-0.7-0.6-1.4-0.5C25.5,83.9,25.7,84.2,26.3,84.2z M84.3,30c-0.5,0.1-0.8,0.3-0.9,0.7C83.8,30.6,84,30.4,84.3,30z M17,51.7  c-0.2,0.1-0.2,0.3-0.2,0.4c0,0.1,0.1,0.3,0.2,0.3c0.2,0,0.2-0.3,0.2-0.4C17.2,51.9,17.2,51.7,17,51.7z M72,75.3  c0.2,0,0.3-0.1,0.3-0.2c0-0.2-0.2-0.3-0.4-0.3c-0.1,0-0.3,0-0.3,0.2C71.6,75.2,71.8,75.2,72,75.3z M85.3,29.5c0-0.2-0.2-0.3-0.3-0.3  c-0.2,0-0.3,0.1-0.3,0.3c0,0.2,0.2,0.2,0.3,0.2C85.1,29.8,85.3,29.7,85.3,29.5z M87.2,29.6c0.2,0,0.2-0.2,0.2-0.3  c0-0.2-0.1-0.3-0.3-0.2c-0.2,0-0.4,0.1-0.3,0.3C86.9,29.6,87,29.6,87.2,29.6z M82,65.2c0.1-0.1,0.1-0.3,0.1-0.4  c0-0.1,0.1-0.4-0.2-0.4c-0.2,0-0.3,0.2-0.2,0.4C81.7,65,81.8,65.1,82,65.2z M83.3,77.3c0.3-0.2,0.3-0.4,0.1-0.7c0,0-0.2,0-0.2,0  C82.9,76.8,83,77,83.3,77.3C83.2,77.2,83.2,77.2,83.3,77.3z M24.2,76.8c0-0.2-0.1-0.3-0.3-0.3c-0.1,0-0.2,0.1-0.2,0.2  c0,0.2,0.1,0.3,0.3,0.3C24.2,77,24.2,76.9,24.2,76.8z M13.7,59.6c0.2,0.4,0.5,0.6,0.9,0.5C14.4,59.8,14.2,59.6,13.7,59.6z   M54.3,45.3c-0.6,0-0.7,0.3-0.9,0.6C53.8,45.8,54,45.7,54.3,45.3z M83.8,59.6c0,0.5,0,0.8,0.4,0.8c0.1,0,0.1-0.1,0.2-0.1  C84.5,59.9,84.1,59.8,83.8,59.6z M21.5,23.6c0.1-0.3-0.1-0.5-0.2-0.7c-0.1-0.1-0.2-0.2-0.3-0.1c-0.2,0.1-0.1,0.3,0,0.3  C21.2,23.4,21.2,23.6,21.5,23.6z M13.9,41c0.1-0.4,0-0.6-0.3-0.7c0,0-0.2,0-0.2,0.1c-0.2,0.4,0.1,0.5,0.4,0.6  C13.8,41,13.8,41,13.9,41z M14.1,39.5c-0.1-0.3-0.2-0.5-0.6-0.4c-0.1,0-0.2,0.2-0.1,0.2C13.5,39.6,13.8,39.6,14.1,39.5z M13.8,35.4  c-0.1,0-0.2,0-0.2,0.1c0,0.2,0.1,0.3,0.3,0.4c0.1,0,0.2-0.1,0.2-0.1C14.1,35.6,13.9,35.5,13.8,35.4z M11.8,55.4  c0.2-0.1,0.2-0.2,0.2-0.3c0-0.1,0-0.3-0.2-0.2c-0.1,0-0.1,0.2-0.1,0.3C11.6,55.2,11.6,55.4,11.8,55.4z M83,68.8  c-0.1,0.3-0.2,0.6,0.2,0.8c0,0,0.1,0,0.2-0.1C83.4,69.2,83.3,69,83,68.8z M10.6,59.4c0.1,0.2,0.3,0.2,0.4,0.3c0.2,0.1,0.4,0.2,0.4,0  c0.1-0.2-0.2-0.3-0.3-0.3C11,59.3,10.8,59.3,10.6,59.4z M86.5,44.7c-0.1,0-0.2-0.1-0.2-0.1c-0.2,0-0.4,0.1-0.5,0.3  c0,0.1,0.1,0.2,0.2,0.2C86.1,45.1,86.3,45,86.5,44.7z M29,14c0.4,0,0.6-0.1,0.8-0.5C29.4,13.4,29.2,13.7,29,14z M69.9,77.7  c0.1-0.3,0.2-0.5-0.2-0.7c-0.1,0-0.2,0-0.2,0c-0.1,0.3,0.1,0.4,0.3,0.6C69.8,77.7,69.9,77.7,69.9,77.7z M17.6,63.2  c0-0.2-0.2-0.3-0.3-0.3c-0.1,0-0.2,0-0.3,0.1c-0.1,0.3,0.1,0.4,0.3,0.4C17.4,63.4,17.5,63.3,17.6,63.2z M17,39.9  c0-0.2-0.1-0.3-0.2-0.3c-0.1-0.1-0.3-0.2-0.4,0c-0.1,0.2,0.1,0.2,0.2,0.3C16.7,40,16.8,40,17,39.9z M31.1,16.5  c0.2-0.2,0.1-0.3,0-0.3c-0.1-0.1-0.3-0.1-0.4,0c-0.1,0.2,0,0.2,0.1,0.3C30.9,16.6,31,16.5,31.1,16.5z M86.2,37.4  c0-0.2-0.1-0.2-0.3-0.3c-0.2-0.1-0.2,0.1-0.3,0.2c0,0.2,0,0.4,0.3,0.3C86.1,37.7,86.2,37.6,86.2,37.4z M79,78c0-0.1-0.1-0.2-0.2-0.2  c-0.2,0-0.4,0.1-0.4,0.3c0,0.2,0.1,0.3,0.2,0.3C78.9,78.3,79,78.2,79,78z M12.3,47.2c0,0.1,0,0.1,0,0.2c0.1,0.2,0.2,0.4,0.4,0.4  c0,0,0.2-0.1,0.2-0.1c0-0.2-0.2-0.3-0.3-0.4C12.4,47.2,12.4,47.2,12.3,47.2z M86.9,60.5c-0.1-0.1-0.3,0-0.4,0  c-0.1,0.1-0.3,0.1-0.2,0.3c0.1,0.2,0.3,0.1,0.4,0C86.8,60.7,86.9,60.6,86.9,60.5z M85.4,56.9c-0.1-0.1-0.2-0.3-0.4-0.3  c-0.1,0-0.1,0.1-0.1,0.3c0,0.1,0.1,0.3,0.2,0.3C85.2,57.1,85.3,57,85.4,56.9z M20.7,79.7c-0.1-0.1-0.3-0.2-0.4-0.3  c-0.1-0.1-0.2-0.1-0.3,0c-0.1,0.1,0,0.3,0.1,0.3C20.3,79.8,20.5,79.9,20.7,79.7z M85.3,42.8c-0.1-0.1,0-0.4-0.3-0.3  c-0.1,0-0.2,0.1-0.2,0.2c0,0.2,0.1,0.4,0.3,0.4C85.3,43.1,85.2,42.9,85.3,42.8z M13.9,46.8c0-0.2-0.2-0.2-0.3-0.2  c-0.1,0-0.2,0.1-0.2,0.2c0,0.2,0.1,0.3,0.3,0.3C13.8,47.1,13.9,47,13.9,46.8z M83.5,55.4c-0.5,0.1-0.8,0.3-1.2,0.8  C82.9,56.1,83.2,55.9,83.5,55.4z M29.1,82.6c0,0.2,0.1,0.2,0.3,0.2c0.1,0,0.4,0,0.4,0c0.1-0.2-0.2-0.2-0.3-0.3  C29.3,82.4,29.1,82.4,29.1,82.6z M19.7,72.1c0.1-0.1,0.2-0.2,0.2-0.3c0-0.2-0.1-0.3-0.2-0.3c-0.1,0-0.2,0.1-0.2,0.3  C19.5,71.9,19.5,72,19.7,72.1z M15.4,71.9c-0.1-0.2-0.2-0.3-0.4-0.3c0,0-0.1,0.1-0.1,0.2c0,0.2,0.1,0.2,0.3,0.3  C15.2,72.1,15.4,72.1,15.4,71.9z M21.5,77.7c-0.2,0-0.2,0.1-0.3,0.2c0,0.1,0,0.3,0.2,0.3c0.2,0,0.2-0.1,0.3-0.2  C21.7,77.9,21.7,77.7,21.5,77.7z M76.7,74.5c-0.1,0-0.2,0-0.2,0.1c0,0.2,0.1,0.3,0.2,0.3c0.1,0,0.3,0,0.3-0.2  C77,74.6,76.9,74.5,76.7,74.5z M19.2,74.8c0.1,0,0.2-0.1,0.2-0.1c0-0.2-0.2-0.3-0.4-0.3c-0.1,0-0.2,0.1-0.2,0.1  C18.9,74.7,19,74.8,19.2,74.8z M12.7,55.3c0-0.2-0.2-0.3-0.3-0.2c-0.1,0-0.2,0.2-0.1,0.4c0,0.1,0.1,0.2,0.2,0.2  C12.6,55.6,12.7,55.4,12.7,55.3z M86.8,45.5c-0.1-0.1-0.1-0.3-0.3-0.2c-0.1,0-0.2,0.2-0.1,0.2c0.1,0.1,0.2,0.2,0.2,0.2  C86.8,45.7,86.8,45.6,86.8,45.5z M15.2,42.6c-0.1,0-0.1,0.1-0.1,0.1c0.2,0.2,0.4,0.3,0.7,0.4C15.7,42.8,15.4,42.7,15.2,42.6z   M12.1,50.7c-0.2,0.3-0.1,0.6,0,1C12.2,51.3,12.3,51,12.1,50.7z M11.5,27.8c0.1,0,0.3-0.1,0.3-0.2c0-0.2-0.2-0.2-0.3-0.2  c-0.1,0-0.3,0.1-0.3,0.2C11.2,27.8,11.3,27.8,11.5,27.8z M84.8,65.4c-0.4,0.1-0.7,0.2-0.7,0.5C84.5,65.9,84.6,65.8,84.8,65.4z   M10.8,26.8c0-0.1,0-0.3-0.2-0.3c-0.2,0-0.4,0.1-0.4,0.2c0,0.1,0.2,0.2,0.3,0.2C10.6,27.2,10.7,27,10.8,26.8z M13.3,26.4  c0-0.2-0.1-0.3-0.3-0.2c-0.1,0-0.2,0.1-0.1,0.2c0.1,0.1,0.2,0.2,0.3,0.2C13.3,26.6,13.4,26.6,13.3,26.4z M11.3,26.6  c0.1,0,0.3-0.1,0.3-0.2c0-0.1-0.1-0.3-0.3-0.2c-0.2,0-0.2,0.1-0.2,0.3C11.1,26.5,11.2,26.6,11.3,26.6z M18.8,67.8  c-0.2-0.1-0.3-0.6-0.7-0.3C18.3,67.7,18.5,67.9,18.8,67.8z M82.2,24.2c0.3,0.3,0.5,0.5,0.8,0.3C82.8,24.2,82.6,24.1,82.2,24.2z   M86.5,53.5c0.1,0.1,0.3,0.1,0.4,0c0.1-0.1,0.4-0.1,0.2-0.4C86.8,53.1,86.6,53.2,86.5,53.5z M27.9,14.7c0-0.2-0.1-0.2-0.3-0.2  c-0.1,0-0.3,0-0.3,0.2c0,0.2,0.2,0.2,0.3,0.2C27.8,15,27.9,14.9,27.9,14.7z M35.6,9.5c0.4,0,0.6-0.2,0.8-0.4  C36,9.1,35.8,9.2,35.6,9.5z M28,85.2c-0.1,0-0.1,0.1-0.1,0.1c0.1,0.1,0.2,0.2,0.3,0.2c0,0,0.1,0,0.2-0.1  C28.3,85.3,28.2,85.2,28,85.2z M85.2,40.4c0-0.2,0-0.3-0.1-0.3c-0.1,0-0.2,0-0.2,0.1c0,0.1,0.1,0.2,0.1,0.2  C85.1,40.5,85.2,40.4,85.2,40.4z M18.5,56.5c-0.1-0.2-0.2-0.2-0.3-0.2c0,0-0.1,0.1-0.2,0.1c-0.1,0.2,0.1,0.2,0.2,0.2  C18.3,56.6,18.4,56.6,18.5,56.5z M33.4,41.8c-0.1-0.1-0.2-0.2-0.4-0.2c-0.1,0-0.2,0-0.2,0.1c0.1,0.1,0.2,0.2,0.3,0.2  C33.3,41.9,33.3,41.9,33.4,41.8z M20.4,75.6c0.1,0,0.2-0.1,0.2-0.1c0-0.2-0.1-0.2-0.3-0.3c-0.1,0-0.2,0.1-0.2,0.1  C20.1,75.5,20.3,75.6,20.4,75.6z M53.8,93.8c0.1,0,0.2-0.1,0.2-0.2c0-0.1,0-0.2-0.1-0.3c-0.2,0-0.3,0.1-0.3,0.3  C53.5,93.7,53.6,93.7,53.8,93.8z M87.4,59.2c0-0.2,0-0.3-0.2-0.3c-0.1,0-0.3,0-0.3,0.2c0,0.2,0.1,0.3,0.2,0.3  C87.4,59.5,87.4,59.3,87.4,59.2z M87.3,53.8c-0.1-0.1-0.3,0-0.4,0c-0.1,0.1-0.2,0.2,0,0.4C87,54,87.3,54.1,87.3,53.8z M17.2,50.2  c0-0.2-0.1-0.3-0.2-0.3c-0.1,0-0.2,0-0.2,0.2c0,0.1,0.1,0.3,0.2,0.3C17.2,50.4,17.2,50.3,17.2,50.2z M85,54.6c0.2,0,0.3-0.1,0.4-0.3  c0-0.1-0.1-0.2-0.2-0.1c-0.2,0.1-0.3,0.2-0.3,0.3C84.9,54.6,85,54.6,85,54.6z M24.7,82.9c0.3,0.1,0.4,0.3,0.7,0.3  c0.1,0,0.1-0.1,0.1-0.1C25.3,82.9,25.1,82.7,24.7,82.9z M65.7,83.4c-0.1,0-0.2,0.1-0.2,0.2c0,0.1,0.1,0.3,0.3,0.3  c0.1,0,0.3-0.1,0.2-0.3C66.1,83.4,65.9,83.4,65.7,83.4z M82.7,58.3c0.1-0.1,0-0.2-0.1-0.3c-0.1-0.1-0.2,0-0.3,0.1  c-0.1,0.1,0,0.2,0.1,0.3C82.5,58.4,82.6,58.4,82.7,58.3z M16.7,71.6c-0.1,0-0.2,0-0.2,0.1c0,0.1,0.2,0.2,0.3,0.2  c0.1,0,0.1,0,0.2-0.1C17,71.7,16.9,71.6,16.7,71.6z M54.3,87.1c-0.2-0.1-0.3-0.2-0.5-0.2c-0.1,0-0.2,0.1-0.2,0.2  c0,0.2,0.2,0.3,0.4,0.3C54.1,87.3,54.2,87.3,54.3,87.1z M11,74.3c-0.1,0-0.2,0-0.2,0.1c0,0.2,0.2,0.1,0.3,0.2c0.1,0,0.2,0,0.2-0.2  C11.3,74.2,11.1,74.3,11,74.3z M26.4,83.7c0,0.1,0.1,0.1,0.1,0.1c0.1,0.1,0.4,0.3,0.4,0C26.9,83.7,26.6,83.6,26.4,83.7z M87.2,36.3  c0-0.1-0.1-0.2-0.3-0.3c-0.1,0-0.2,0.1-0.2,0.2c0,0.1,0.1,0.3,0.3,0.3C87.1,36.5,87.2,36.4,87.2,36.3z M19.9,68.5  c-0.1-0.1-0.1-0.3-0.3-0.3c-0.1,0-0.2,0-0.2,0.1c0,0.1,0.1,0.3,0.2,0.3C19.7,68.6,19.8,68.5,19.9,68.5z M62.2,86.8  c0.1,0,0.2,0,0.2-0.2c0-0.1-0.1-0.1-0.2-0.1c-0.1,0-0.2,0.1-0.2,0.2C62,86.8,62.1,86.8,62.2,86.8z"></path><path d="M35.2,43c0.1,0.1,0.1,0.2,0.2,0.4c-0.4-0.1-0.8-0.3-1-0.7C34.7,42.9,34.9,43,35.2,43z"></path><path d="M56.8,27.9c-0.1-0.3-0.6-0.1-0.7-0.5c0.2-0.2,0.5-0.2,0.7-0.1c0.6,0.4,1.1,0.1,1.6-0.2c1.8-1,3.6-2,5.4-2.8  c0.2-0.1,0.5-0.4,0.9-0.2c-0.8,0.6-1.8,1-2.6,1.4c-4,2.1-7.9,4.3-11.7,6.8c-0.9,0.6-1.7,1.2-2.4,1.9c-0.4,0.3-0.8,0.5-1.3,0.7  c0.1-0.4,0.5-0.5,0.7-0.8c0.3-0.2,0.5-0.5,0.8-0.8c-0.5-0.7-1.3-1.1-2.2-1.3c0.8-0.3,1.3-0.2,1.7,0.3c0.1,0.2,0.2,0.4,0.4,0.5  c0.2,0.2,0.4,0.3,0.7,0.1C51.2,31.2,54.1,29.7,56.8,27.9C56.8,28,56.8,28,56.8,27.9z"></path><path d="M32.2,29.1c0.2,0.4,0.8,0.5,0.9,1c-0.8-0.1-1.5-1-2.3-0.2c0.1-0.2,0.3-0.4,0.4-0.6c-0.4-0.6-1.3-0.6-1.9-1.1  c0.6-0.1,1.1,0.1,1.5,0.3c0.6,0.4,1,0.2,1.5-0.2c2.8-2.1,5.7-3.9,8.7-5.6c0.1-0.1,0.3-0.2,0.7-0.1c-1.7,1.1-3.3,2.1-4.9,3.1  C35.3,26.8,33.7,27.9,32.2,29.1z"></path><path d="M46.9,46.4c-4-2.3-8.2-4.5-11.9-7.2c-0.2-0.1-0.4-0.3-0.3-0.7C38.6,41.5,42.9,43.7,46.9,46.4z"></path><path d="M60.1,34.1c-3.3,2-6.6,3.9-9.6,6.4c-0.1-0.6,0.3-0.8,0.5-1c0.9-0.6,1.7-1.3,2.6-1.9c1.9-1.3,3.9-2.4,5.9-3.5  C59.6,34.1,59.8,34,60.1,34.1z"></path><path d="M38.1,33.1c2.4-2.3,6-4.5,9.2-5.9c-1.5,1.1-3.1,1.9-4.6,2.8C41.1,31,39.7,32.3,38.1,33.1z"></path><path d="M38,42.2c-0.3,0.1-0.5-0.1-0.7-0.2c-2.2-1.2-4.4-2.5-6.6-3.7c-0.2-0.1-0.4-0.3-0.6-0.4c-0.1-0.1-0.2-0.2-0.1-0.3  c0.1-0.1,0.3-0.1,0.4-0.1c0.5,0.3,1,0.7,1.5,1c1.9,1.1,3.8,2.2,5.7,3.4C37.8,41.9,38,41.9,38,42.2L38,42.2z"></path><path d="M23.5,28c2.4-0.2,3.8,1.6,5.6,2.5C27.1,30,25.7,28.2,23.5,28z"></path><path d="M30.9,24.2c-1.1,0.8-2.3,1.5-3.4,2.3c0.9-1.1,2.1-1.8,3.3-2.4C30.8,24.1,30.8,24.1,30.9,24.2z"></path><path d="M76.2,25.5c0.8,0.5,1.6,1,2.4,1.5c-1-0.2-1.8-0.6-2.5-1.2C76.1,25.7,76.1,25.6,76.2,25.5z"></path><path d="M20.2,29.5c0.9,0.3,1.5,1.1,2.2,1.6C21.5,30.8,20.7,30.4,20.2,29.5C20.2,29.5,20.2,29.5,20.2,29.5z"></path><path d="M32,21.9c-0.9-0.1-1.5-0.8-2.4-1.3C30.3,20.7,31.1,21.1,32,21.9L32,21.9z"></path><path d="M38,42.2c1,0.1,1.7,0.9,2.5,1.4C39.6,43.2,38.7,42.8,38,42.2C38,42.2,38,42.2,38,42.2z"></path><path d="M32,22c0.8,0.3,1.4,0.7,1.9,1.3l0,0C33.2,23.2,32.5,22.7,32,22C32,21.9,32,22,32,22z"></path><path d="M76.7,19.2c0,0.2,0,0.3,0,0.5c-0.6-0.2-1.1,0.1-1.6,0.3C75.5,19.3,76.1,19.2,76.7,19.2z"></path><path d="M44,17.8c0.6,0.1,1.3,0.2,1.8,0.6C45.2,18.3,44.5,18.2,44,17.8z"></path><path d="M40.1,19.4c-0.4,0.4-0.8,0.7-1.4,0.9C39.3,19.6,39.3,19.6,40.1,19.4z"></path><path d="M33.9,23.3c0.5,0.1,0.9,0.2,1.1,0.7C34.5,23.9,34.1,23.8,33.9,23.3C33.9,23.3,33.9,23.3,33.9,23.3z"></path><path d="M21.3,28.2c0.3,0.2,0.5,0.4,0.8,0.6C21.7,28.8,21.4,28.7,21.3,28.2z"></path><path d="M70.2,19.8c0.2-0.6,0.5-0.7,0.9-0.8C71,19.5,70.7,19.6,70.2,19.8z"></path><path d="M22.4,25.8c0.8-0.3,0.7,0.6,1.1,0.8C23,26.5,22.9,25.9,22.4,25.8C22.4,25.8,22.4,25.8,22.4,25.8z"></path><path d="M74.9,27.4c0.3,0.1,0.7,0.1,0.9,0.5C75.3,28,75.1,27.7,74.9,27.4z"></path><path d="M46.9,18.8c0.3-0.1,0.5-0.2,0.8,0.3C47.3,19.1,47.1,19.1,46.9,18.8z"></path><path d="M20.8,27.9c-0.4-0.2-0.4-0.2-0.7-0.6C20.5,27.4,20.7,27.5,20.8,27.9z"></path><path d="M58.2,52.3c-0.2,0-0.4,0.3-0.6,0.2c-0.1-0.3,0.1-0.4,0.3-0.5c1.5-1.2,3-2.3,4.7-3.2c0.6-0.3,0.8-0.7,0.8-1.3  c0-0.3-0.1-0.7,0.1-1c0.5,0.4,0.1,0.9,0.3,1.3c0.3,0.2,0.5-0.1,0.7-0.2c1.4-0.9,2.8-1.8,4.3-2.7c0.4-0.3,0.8-0.6,1.7-0.6  c-1.5,1-2.8,1.8-4.1,2.7c-0.7,0.5-1.4,0.9-2.2,1.4c-0.3,0.2-0.5,0.4-0.5,0.9c0,1.5-0.2,2.9-0.3,4.4c-0.2,2.7-0.2,5.5-0.1,8.2  c0,1.6,0.1,3.2,0.1,5C63,66.2,63,65.7,63,65.1c0-0.8,0-1.6-0.1-2.5c0-0.2,0-0.4,0-0.5c-0.3-0.7-0.2-1.3-0.1-2c0.1-0.9,0-1.8,0.1-2.7  c0.1-2.1,0-4.2,0.3-6.3c0.1-0.7,0-1.4,0-2.2C61.3,50,59.7,51.1,58.2,52.3L58.2,52.3z"></path><path d="M53.4,54.3c0.3,0.7,0.2,1.4,0,2.1c-0.2,0.8-0.2,1.6-0.2,2.3c0,2,0,4,0,6c0,0.3,0.1,0.7-0.1,1c-0.1-0.1,0,0-0.1,0  c0,0-0.1,0-0.1-0.1c-0.2-3.1,0-6.3,0-9.4c0-0.5,0.1-1.1,0.2-1.6C53.1,54.6,53.2,54.4,53.4,54.3z"></path><path d="M65.5,70.1c-0.6,0.6-1.4,1-2.1,1.5c-2.4,1.6-4.8,3.1-7.1,4.9C56,76.7,55.6,77,55,77c0.1-0.4,0.4-0.5,0.6-0.7  c2.9-2.1,5.8-3.9,8.8-5.8C64.8,70.3,65.1,70.1,65.5,70.1C65.5,70.1,65.5,70.1,65.5,70.1z"></path><path d="M65.1,68.4c-0.5,0-0.9,0.4-1.3,0.6c-1.3,0.8-2.6,1.6-3.9,2.3c-0.1,0.1-0.3,0.2-0.5,0.2c0.6-0.8,6.3-4.2,7.7-4.6  c-0.2,0.4-0.6,0.5-0.9,0.7C65.8,67.9,65.2,68,65.1,68.4C65,68.4,65.1,68.4,65.1,68.4z"></path><path d="M50,67.9c-0.2-1.6-0.3-3.2-0.5-4.7c0.7,0.3,0.4,1,0.6,1.4c0.2,0.5,0.2,1.1,0.1,1.6C50.2,66.7,50.5,67.3,50,67.9z"></path><path d="M79.4,36.3c-0.3-1.5-0.2-3.6,0.1-4.2C79.7,32.5,79.6,35.4,79.4,36.3z"></path><path d="M59.3,59.2c0.6-0.6,1.3-1.2,2.2-1.4C61,58.6,60.2,58.9,59.3,59.2z"></path><path d="M53.1,69.1c-0.2-0.9-0.2-1.8-0.2-2.9C53.3,66.8,53.3,67.5,53.1,69.1z"></path><path d="M77.1,45.4c-0.4,0.4-0.6,0.9-1,1.3C75.7,45.7,75.9,45.4,77.1,45.4z"></path><path d="M72.1,41.4c0.1,0.7,0.1,1.2-0.1,1.8C71.7,42.5,71.7,42.5,72.1,41.4z"></path><path d="M75.4,61.7c-0.6-0.5-0.6-1.3-0.8-2C75,60.3,75.3,60.9,75.4,61.7C75.4,61.7,75.4,61.7,75.4,61.7z"></path><path d="M49.5,59.2c0.4,0.6,0.1,1,0.1,1.4C49.3,60.2,49.3,59.8,49.5,59.2z"></path><path d="M58.2,52.3c0,0.6-0.2,1.2-0.5,1.9C57.4,53.4,57.7,52.8,58.2,52.3C58.2,52.3,58.2,52.3,58.2,52.3z"></path><path d="M65.2,40.3c-0.2,0.3-0.6,0.4-0.6,0.8c0,0.2-0.1,0.3-0.2,0.2c-0.1,0-0.2-0.1-0.2-0.2c-0.1-0.1,0-0.3,0.1-0.4  C64.5,40.5,64.7,40.3,65.2,40.3z"></path><path d="M80.3,39.9c0,0.5,0.1,0.9-0.3,1.2C79.9,40.7,79.9,40.4,80.3,39.9z"></path><path d="M53.3,82.6c0.3,0.2,0.4,0.4,0.3,0.7C53.3,83.1,53.2,82.9,53.3,82.6z"></path><path d="M77.3,69.8c0.3-0.1,0.5-0.4,1-0.3C77.8,69.8,77.6,70,77.3,69.8C77.2,69.8,77.3,69.8,77.3,69.8z"></path><path d="M24.5,63.7c1.3,0.3,1.9,1.7,3.2,1.9c0.4-0.2,0-0.9,0.6-0.9c0,0,0.1,0.1,0.1,0.1c-0.3,1.1,0.4,1.6,1.2,2  c1.1,0.6,2.2,1.2,3.1,1.9c0.3-0.1,0.3-0.2,0.3-0.4c-0.4-2.6-0.4-5.2-0.4-7.8c0-0.4,0-0.9,0.1-1.3c0.1-0.2,0.1-0.4,0.3-0.3  c0.2,0.1,0.2,0.2,0.1,0.4c-0.3,1.7-0.1,3.3-0.1,5c0,1.4,0.1,2.8,0.2,4.3c0,0.4,0.2,0.6,0.5,0.9c0.4,0.4,1,0.6,1.4,1.3  c-0.7-0.2-1.1-0.7-1.6-0.8c-0.2,0.2-0.1,0.4-0.2,0.6c-0.1,0-0.1,0-0.1-0.1c0-0.7-0.4-1.2-1-1.6c-1.1-0.6-2.1-1.3-3.2-1.9  c-0.8-0.4-0.8-0.4-0.8,0.5c0,1.4,0.1,2.8,0.4,4.1c0.1,0.2,0.1,0.5,0,0.8c-0.5-0.7-0.4-1.6-0.6-2.3c-0.2-0.9-0.2-1.9-0.2-2.9  c0-0.7-0.2-1-0.8-1.3c-0.9-0.5-1.7-1-2.5-1.7C24.5,64,24.4,63.9,24.5,63.7z"></path><path d="M39.7,65.6c1.1-0.5,1.5,0.6,2.3,0.9c0.3-0.2,0.2-0.4,0.2-0.7c0.1-2.6,0.2-5.3,0.3-7.9c0-0.5,0.1-1,0.2-1.5  c0-0.2,0.1-0.3,0.3-0.3c0.1,0,0.3,0.1,0.3,0.3c0,0.2,0,0.4,0,0.6c-0.5,3.2-0.6,6.5-0.7,9.8c-0.1,2.6,0,5.2,0,7.7  c-0.2-0.3-0.2-0.8-0.2-1.2c0-1.8-0.1-3.6-0.1-5.5c0-0.4,0-0.7-0.5-1C41,66.5,40.4,66.1,39.7,65.6z"></path><path d="M47,71.2c0.3,2.1,0.5,4.2,0.8,6.3c-0.6-0.3-0.5-0.8-0.5-1.2c-0.1-0.5-0.2-1-0.4-1.5c-0.3,0.7-0.2,1.4-0.1,2.1  c0.1,1.1,0.2,2.1,0.3,3.2c0,0.2,0,0.4,0,0.6c0,0.1-0.1,0.1-0.3,0.1c-0.1,0-0.2-0.1-0.2-0.2c0.2-1.7-0.2-3.3-0.3-5  c0-0.5-0.1-1.1,0.4-1.5c0.3-0.3,0.1-0.7,0.1-1c0-0.6-0.2-1.3,0-1.9C46.8,71.3,46.9,71.2,47,71.2z"></path><path d="M47.1,89.3c-0.4-0.4-0.6-0.7-0.7-1.1c-0.2-1.7-0.5-3.4-0.4-5.2c0-0.4,0-0.9,0.7-1c-0.3,1.3-0.5,2.6-0.2,3.9  c0.4-0.1,0.2-0.6,0.6-0.6c0.1,0,0.1,0,0.1,0.1C47,86.7,46.8,87.9,47.1,89.3z"></path><path d="M37.8,61.4c-0.3-3.2-0.5-6.4-0.3-9.8c0.2,0.3,0.1,0.2,0.2,0.2c0,0,0.1,0,0.1,0.1c0,0.2,0.1,0.3,0.1,0.5  C37.8,55.3,37.9,58.3,37.8,61.4z"></path><path d="M39.7,48.9c-1.6-1-3.5-1.7-4.8-3.4c0.8,0.1,1.1,0.8,1.6,1.1c0.6,0.4,1.1,0.8,1.7,1.1c0.5,0.3,1.1,0.7,1.6,1  C39.8,48.7,39.8,48.8,39.7,48.9z"></path><path d="M30.5,48c1,0.2,2.4,0.8,3.1,1.4c-1.1-0.3-2.1-0.6-3.1-1.2C30.5,48.2,30.5,48,30.5,48C30.5,47.9,30.5,48,30.5,48z"></path><path d="M36.5,81c-0.9-0.4-1.8-0.8-2.4-1.7C35,79.6,35.8,80.2,36.5,81z"></path><path d="M41.4,86.3c-1-0.3-1.4-1-2.3-1.4C40,84.7,40.2,84.8,41.4,86.3z"></path><path d="M31,42.9c0.6,0.2,1.1,0.5,1.5,0.9C31.9,43.8,31.8,43.8,31,42.9z"></path><path d="M25.1,73.1c-0.3-0.9-0.1-1.7,0.2-2.6C25.3,71.4,25,72.2,25.1,73.1C25.1,73.1,25.1,73.1,25.1,73.1z"></path><path d="M28.4,40.7c0.8,0,1.2,0.4,1.8,0.7c0,0.1-0.1,0.1-0.1,0.2C29.6,41.3,29,41,28.4,40.7z"></path><path d="M18.3,52.2c0.5,0.1,0.8,0.4,1.4,0.9C18.9,53,18.5,52.7,18.3,52.2C18.2,52.3,18.3,52.2,18.3,52.2z"></path><path d="M22.7,42c0,0.1,0.1,0.3-0.2,0.3c-0.2,0-0.2-0.2-0.2-0.3c0-0.1,0-0.3,0.2-0.3C22.7,41.7,22.7,41.9,22.7,42z"></path><path d="M21.2,51.5c0.3,0.2,0.7,0,1.3,0.4C21.9,51.7,21.5,52.1,21.2,51.5L21.2,51.5z"></path><path d="M21.2,51.5c-0.5,0.1-1,0.3-1.5-0.1c0,0,0,0,0,0C20.2,51.3,20.7,51.5,21.2,51.5C21.2,51.5,21.2,51.5,21.2,51.5z"></path><path d="M25.5,69.6c-0.1-0.2-0.1-0.4,0-0.6C25.7,69.2,25.4,69.4,25.5,69.6z"></path><path d="M79.1,64.7c-0.3,0.4-0.6,0.6-1.1,0.7C78.1,64.9,78.6,64.9,79.1,64.7z"></path><path d="M14.8,26.5c0.3,0,0.5,0.3,0.9,0.2c0,0.2,0.1,0.5-0.2,0.4C15.1,27.1,14.8,26.9,14.8,26.5z"></path><path d="M17.1,28.3c-0.4,0.1-0.7-0.1-0.9-0.4C16.7,27.7,16.7,28.4,17.1,28.3C17.1,28.3,17.1,28.3,17.1,28.3z"></path></svg>
