<svg fill="#306080" xmlns="http://www.w3.org/2000/svg" xmlns:xlink="http://www.w3.org/1999/xlink" version="1.1" x="0px" y="0px" viewBox="0 0 70 70" style="enable-background:new 0 0 70 70;" xml:space="preserve"><g><g><path d="M53.1274414,60.0003929H16.8657227c-2.2597656,0-4.0981445-1.7900391-4.0981445-3.9897461V25.583889    c0-0.5522461,0.4477539-1,1-1h42.4580078c0.5522461,0,1,0.4477539,1,1v30.4267578    C57.2255859,58.2103539,55.387207,60.0003929,53.1274414,60.0003929z M14.7675781,26.583889v29.4267578    c0,1.097168,0.9414063,1.9897461,2.0981445,1.9897461h36.2617188c1.1567383,0,2.0981445-0.8925781,2.0981445-1.9897461V26.583889    H14.7675781z"/></g><g><path d="M57.7875977,26.583889H12.2124023C10.9926758,26.583889,10,25.6102562,10,24.4139671v-3.6635742    c0-1.1962891,0.9926758-2.1699219,2.2124023-2.1699219h45.5751953C59.0073242,18.580471,60,19.5541039,60,20.7503929v3.6635742    C60,25.6102562,59.0073242,26.583889,57.7875977,26.583889z M12.2124023,20.580471    C12.097168,20.580471,12,20.6581078,12,20.7503929v3.6635742c0,0.0922852,0.097168,0.1699219,0.2124023,0.1699219h45.5751953    C57.902832,24.583889,58,24.5062523,58,24.4139671v-3.6635742c0-0.0922852-0.097168-0.1699219-0.2124023-0.1699219H12.2124023z"/></g><g><path d="M38.1088867,26.583889h-6.2177734c-0.5522461,0-1-0.4477539-1-1v-6.003418c0-0.5522461,0.4477539-1,1-1h6.2177734    c0.5522461,0,1,0.4477539,1,1v6.003418C39.1088867,26.1361351,38.6611328,26.583889,38.1088867,26.583889z M32.8911133,24.583889    h4.2177734v-4.003418h-4.2177734V24.583889z"/></g><g><path d="M34.9995117,45.4105492c-1.6767578,0-3.0410156-1.3999023-3.0410156-3.1201172s1.3642578-3.1201172,3.0410156-3.1201172    c1.671875,0,3.0322266,1.3999023,3.0322266,3.1201172S36.6713867,45.4105492,34.9995117,45.4105492z M34.9995117,41.1703148    c-0.5742188,0-1.0410156,0.5024414-1.0410156,1.1201172s0.4667969,1.1201172,1.0410156,1.1201172    c0.5693359,0,1.0322266-0.5024414,1.0322266-1.1201172S35.5688477,41.1703148,34.9995117,41.1703148z"/></g><g><g><path d="M34.996582,41.1708031c-0.5522461,0-1-0.4477539-1-1v-5.7714844c0-0.5522461,0.4477539-1,1-1s1,0.4477539,1,1v5.7714844     C35.996582,40.7230492,35.5488281,41.1708031,34.996582,41.1708031z"/></g><g><path d="M34.9897461,35.3993187c-0.2504883,0-0.5004883-0.0932617-0.6943359-0.2802734l-3.0532227-2.9462891     c-0.3974609-0.3837891-0.4086914-1.0166016-0.0253906-1.4140625c0.3847656-0.3974609,1.0180664-0.4077148,1.4140625-0.0253906     l2.3603516,2.277832l2.3730469-2.2792969c0.3969727-0.3823242,1.0302734-0.3701172,1.4140625,0.0283203     c0.3828125,0.3984375,0.3696289,1.03125-0.0283203,1.4140625l-3.0673828,2.9462891     C35.4887695,35.3065453,35.2392578,35.3993187,34.9897461,35.3993187z"/></g></g><g><g><path d="M33.4423828,41.7923851c-0.25,0-0.5004883-0.0932617-0.6943359-0.2802734L28.519043,37.431057     c-0.3974609-0.3837891-0.4086914-1.0166016-0.0253906-1.4140625c0.3842773-0.3974609,1.0175781-0.4077148,1.4140625-0.0253906     l4.2290039,4.0810547c0.3974609,0.3837891,0.4086914,1.0166016,0.0253906,1.4140625     C33.9658203,41.6903343,33.7041016,41.7923851,33.4423828,41.7923851z"/></g><g><path d="M29.2080078,37.7162132H24.890625c-0.5522461,0-1-0.4477539-1-1s0.4477539-1,1-1h3.3198242l0.0078125-3.1787109     c0.0014648-0.5512695,0.4487305-0.9975586,1-0.9975586c0.0009766,0,0.0014648,0,0.0024414,0     c0.5522461,0.0014648,0.9990234,0.4501953,0.9975586,1.0024414l-0.0102539,4.1762695     C30.206543,37.2699242,29.7592773,37.7162132,29.2080078,37.7162132z"/></g></g><g><g><path d="M32.7983398,43.2923851h-5.9804688c-0.5522461,0-1-0.4477539-1-1s0.4477539-1,1-1h5.9804688c0.5522461,0,1,0.4477539,1,1     S33.3505859,43.2923851,32.7983398,43.2923851z"/></g><g><path d="M23.7646484,46.2455101c-0.2617188,0-0.5234375-0.1020508-0.7197266-0.3056641     c-0.3833008-0.3974609-0.3720703-1.0302734,0.0253906-1.4140625l2.309082-2.2280273l-2.3110352-2.2407227     c-0.3964844-0.3842773-0.40625-1.0170898-0.0214844-1.4140625c0.3842773-0.3959961,1.0170898-0.40625,1.4140625-0.0214844     l3.0532227,2.9599609c0.1943359,0.1884766,0.3041992,0.4477539,0.3037109,0.71875s-0.1103516,0.5302734-0.3056641,0.71875     l-3.0532227,2.9462891C24.2651367,46.1522484,24.0146484,46.2455101,23.7646484,46.2455101z"/></g></g><g><g><path d="M29.2133789,48.8729515c-0.2617188,0-0.5234375-0.1020508-0.7197266-0.3056641     c-0.3833008-0.3974609-0.3720703-1.0302734,0.0253906-1.4140625l4.2290039-4.0810547     c0.3969727-0.3818359,1.0302734-0.3720703,1.4140625,0.0253906c0.3833008,0.3974609,0.3720703,1.0302734-0.0253906,1.4140625     l-4.2290039,4.0810547C29.7138672,48.7796898,29.4633789,48.8729515,29.2133789,48.8729515z"/></g><g><path d="M29.2182617,53.0448265c-0.5522461,0-1-0.4477539-1-1v-3.1694336l-3.3300781-0.0073242     c-0.5522461-0.0014648-0.9990234-0.4501953-0.9975586-1.0024414c0.0014648-0.5512695,0.4487305-0.9975586,1-0.9975586     c0.0009766,0,0.0014648,0,0.0024414,0l4.3276367,0.0097656c0.5512695,0.0014648,0.9975586,0.4487305,0.9975586,1v4.1669922     C30.2182617,52.5970726,29.7705078,53.0448265,29.2182617,53.0448265z"/></g></g><g><g><path d="M34.996582,51.1849632c-0.5522461,0-1-0.4477539-1-1v-5.7714844c0-0.5522461,0.4477539-1,1-1s1,0.4477539,1,1v5.7714844     C35.996582,50.7372093,35.5488281,51.1849632,34.996582,51.1849632z"/></g><g><path d="M31.9365234,54.1312523c-0.2626953,0-0.5249023-0.1030273-0.7211914-0.3071289     c-0.3828125-0.3984375-0.3696289-1.03125,0.0283203-1.4140625l3.0673828-2.9462891     c0.3886719-0.3730469,1.0004883-0.371582,1.387207,0.0014648l3.0532227,2.9462891     c0.3974609,0.3837891,0.4086914,1.0166016,0.0253906,1.4140625c-0.3837891,0.3984375-1.0170898,0.4086914-1.4140625,0.0253906     l-2.3603516-2.277832l-2.3730469,2.2792969C32.4355469,54.0384789,32.1860352,54.1312523,31.9365234,54.1312523z"/></g></g><g><g><path d="M40.7802734,48.8729515c-0.25,0-0.5004883-0.0932617-0.6943359-0.2802734l-4.2294922-4.0810547     c-0.3974609-0.3837891-0.4086914-1.0166016-0.0253906-1.4140625c0.3837891-0.3974609,1.0180664-0.4072266,1.4140625-0.0253906     l4.2294922,4.0810547C41.8720703,47.537014,41.8833008,48.1698265,41.5,48.5672874     C41.3037109,48.7709007,41.0419922,48.8729515,40.7802734,48.8729515z"/></g><g><path d="M40.7749023,53.0448265c-0.0009766,0-0.0014648,0-0.0024414,0     c-0.5522461-0.0014648-0.9990234-0.4501953-0.9975586-1.0024414l0.0102539-4.1767578     c0.0014648-0.5512695,0.4487305-0.9975586,1-0.9975586h4.3178711c0.5522461,0,1,0.4477539,1,1s-0.4477539,1-1,1h-3.3203125     l-0.0078125,3.1791992C41.7734375,52.5985374,41.3261719,53.0448265,40.7749023,53.0448265z"/></g></g><g><g><path d="M43.1757813,43.2923851h-5.980957c-0.5522461,0-1-0.4477539-1-1s0.4477539-1,1-1h5.980957c0.5522461,0,1,0.4477539,1,1     S43.7280273,43.2923851,43.1757813,43.2923851z"/></g><g><path d="M46.2285156,46.2455101c-0.2509766,0-0.5019531-0.09375-0.6962891-0.2822266l-3.0527344-2.9604492     c-0.1943359-0.1884766-0.3041992-0.4482422-0.3037109-0.7192383c0.0004883-0.2705078,0.1108398-0.5297852,0.3056641-0.7182617     l3.0527344-2.9458008c0.3969727-0.3823242,1.03125-0.3720703,1.4140625,0.0253906     c0.3833008,0.3974609,0.3720703,1.0302734-0.0253906,1.4140625l-2.3085938,2.2280273l2.3105469,2.2407227     c0.3964844,0.3842773,0.40625,1.0175781,0.0214844,1.4140625C46.7504883,46.1439476,46.4892578,46.2455101,46.2285156,46.2455101     z"/></g></g><g><g><path d="M36.5507813,41.7923851c-0.2617188,0-0.5234375-0.1020508-0.7197266-0.3056641     c-0.3833008-0.3974609-0.3720703-1.0302734,0.0253906-1.4140625l4.2294922-4.0810547     c0.3974609-0.3823242,1.0302734-0.3720703,1.4140625,0.0253906c0.3833008,0.3974609,0.3720703,1.0302734-0.0253906,1.4140625     l-4.2294922,4.0810547C37.0512695,41.6991234,36.8007813,41.7923851,36.5507813,41.7923851z"/></g><g><path d="M45.1030273,37.7162132c-0.0009766,0-0.0014648,0-0.0024414,0l-4.328125-0.0097656     c-0.5512695-0.0014648-0.9975586-0.4487305-0.9975586-1v-4.1665039c0-0.5522461,0.4477539-1,1-1s1,0.4477539,1,1v3.1689453     l3.3305664,0.0073242c0.5522461,0.0014648,0.9990234,0.4501953,0.9975586,1.0024414     C46.1015625,37.2699242,45.6542969,37.7162132,45.1030273,37.7162132z"/></g></g><g><path d="M41.7822266,20.6141624c-0.2651367,0-0.5283203-0.0126953-0.7895508-0.0385742    c-0.6367188-0.0625-1.2890625-0.0415039-1.9794922-0.019043c-0.3637695,0.012207-0.7280273,0.0239258-1.0932617,0.0239258H35    c-0.3515625,0-0.6767578-0.1845703-0.8574219-0.4858398s-0.1904297-0.675293-0.0249023-0.9853516l2.293457-4.2958994    c1.4697266-2.7294922,4.1118164-4.5146484,7.0693359-4.777832c1.0234375-0.0908203,1.9921875-0.0063477,2.8842773,0.2485352    c1.6015625,0.4589844,2.7792969,1.5366211,3.230957,2.9555664c0.4477539,1.4082031,0.1166992,2.9487314-0.9077148,4.2265635    C47.1499023,19.3832054,44.3989258,20.6136742,41.7822266,20.6141624z M40.0351563,18.5340843    c0.3793945,0,0.7641602,0.0126953,1.1542969,0.0512695c2.1665039,0.2163086,4.6645508-0.7822266,5.9384766-2.3706055    c0.5981445-0.7460947,0.8032227-1.6098642,0.5615234-2.3686533c-0.2446289-0.7705078-0.9287109-1.3676758-1.8759766-1.6391602    c0,0,0,0-0.0004883,0c-0.6450195-0.1855469-1.3911133-0.2480469-2.1547852-0.1791992    c-2.2519531,0.2006836-4.3530273,1.6298828-5.484375,3.730957l-1.5063477,2.8217783h1.2524414    c0.3432617,0,0.6855469-0.0112305,1.027832-0.0224609C39.3041992,18.5462914,39.6674805,18.5340843,40.0351563,18.5340843z"/></g><g><path d="M28.2177734,20.6141624c-2.6166992,0-5.3671875-1.2304688-6.9052734-3.1474609    c-1.0249023-1.2783203-1.355957-2.8188486-0.9082031-4.2270517c0.4516602-1.4189453,1.6293945-2.496582,3.230957-2.9555664l0,0    c0.8925781-0.2558594,1.8608398-0.340332,2.8842773-0.2485352c2.9575195,0.2631836,5.5996094,2.0483398,7.0673828,4.7749023    l2.2954102,4.2988291c0.1655273,0.3100586,0.1557617,0.684082-0.0249023,0.9853516S35.3515625,20.580471,35,20.580471h-2.9199219    c-0.3652344,0-0.7294922-0.0117188-1.0932617-0.0239258c-0.6904297-0.0224609-1.3422852-0.043457-1.9799805,0.019043    C28.7460938,20.6014671,28.4824219,20.6141624,28.2177734,20.6141624z M25.7431641,12.0008802    c-0.5512695,0-1.0810547,0.0693359-1.5561523,0.2060547c-0.0004883,0-0.0004883,0-0.0004883,0    c-0.9472656,0.2714844-1.6313477,0.8686523-1.8759766,1.6391602c-0.2416992,0.7587891-0.0366211,1.6225586,0.5620117,2.3691416    c1.2734375,1.5874023,3.7724609,2.5874023,5.9375,2.3701172c0.7700195-0.0761719,1.5180664-0.0512695,2.2421875-0.0273438    c0.3422852,0.0112305,0.6845703,0.0224609,1.027832,0.0224609h1.2524414l-1.5083008-2.824708    c-1.1293945-2.0981445-3.2304688-3.5273438-5.4824219-3.7280273    C26.140625,12.0096693,25.9404297,12.0008802,25.7431641,12.0008802z M23.9111328,11.2455091h0.0097656H23.9111328z"/></g></g></svg>