<svg xmlns="http://www.w3.org/2000/svg" xmlns:xlink="http://www.w3.org/1999/xlink" version="1.1" x="0px" y="0px" viewBox="0 0 100 100" enable-background="new 0 0 100 100" xml:space="preserve"><path fill="#000000" d="M84.913,41.115c-0.994,0-9.46-5.533-13.271-8.184c-3.811-2.651-5.138,1.491-7.789,2.65  c-2.65,1.16-6.297-1.822-6.96-2.485c-0.662-0.664-4.575-5.178-6.894-5.178s-6.231,4.515-6.894,5.178  c-0.662,0.663-4.309,3.645-6.959,2.485c-2.65-1.159-3.979-5.301-7.789-2.65c-3.81,2.65-12.277,8.184-13.271,8.184  C8.449,43.67,3.19,47.961,3.19,57.396c0,9.434,7.647,17.081,17.081,17.081c9.302,0,13.583-7.139,14.498-8.056  c3.051-3.406,10.508-10.863,11.377-12.728c0.87-1.863,0.787-3.272-0.58-4.764c-1.368-1.492-2.608-4.611-0.704-5.634  c1.214-0.651,3.646-0.788,5.137-0.788s3.923,0.136,5.137,0.788c1.904,1.022,0.664,4.142-0.703,5.634  c-1.367,1.491-1.451,2.9-0.581,4.764c0.87,1.864,8.327,9.321,11.378,12.728c0.914,0.917,5.197,8.056,14.498,8.056  c9.435,0,17.081-7.647,17.081-17.081C96.81,47.961,91.551,43.67,84.913,41.115z M20.271,70.819c-7.415,0-13.42-6.012-13.42-13.423  c0-7.415,6.006-13.424,13.42-13.424c7.414,0,13.42,6.009,13.42,13.424C33.692,64.808,27.686,70.819,20.271,70.819z M79.729,70.819  c-7.415,0-13.421-6.012-13.421-13.423c0-7.415,6.006-13.424,13.421-13.424c7.414,0,13.421,6.009,13.421,13.424  C93.149,64.808,87.143,70.819,79.729,70.819z"></path><path fill="#000000" d="M11.807,59.371c1.033,0.164,14.255-11.434,8.867-10.854S10.773,59.206,11.807,59.371z"></path><path fill="#000000" d="M71.264,59.371c1.033,0.164,14.256-11.434,8.867-10.854C74.741,49.096,70.23,59.206,71.264,59.371z"></path></svg>