<svg xmlns="http://www.w3.org/2000/svg" xmlns:xlink="http://www.w3.org/1999/xlink" version="1.1" x="0px" y="0px" viewBox="0 0 100 100" style="enable-background:new 0 0 100 100;" xml:space="preserve"><title>Zeichenfläche 1</title><path d="M95.6,32l-0.8,0.9l0.2,1.5h1V32H95.6z M66.8,13.5l-2.1,2.8l0.2,2.2l0.5,0.2l1.5-3.2l2.9-1.5v-0.6L66.8,13.5z M86.5,14.2  l-0.1,0.4l3.6,3.3l2.3-0.5l1.5-1.3l-0.1-0.6l-4.9-2.2L86.5,14.2z M23.2,70.9l2.7-3l1.1-3.5l0.6-3.9l1.8-2.2l0.7,0.3l-0.9,1.8  l-0.7,7.7l-4.8,3.2L23.2,70.9z M79.7,24.2l-0.1-0.5l2.7-1.9l2.2,1.1v0.4l-0.9,1L79.7,24.2z M73.7,11.1l-0.1-0.5l2.3-0.2l2,0.9  l1.6,2.2l-1.8,0.5L73.7,11.1z M76,8.9l-3.1,0.2l-2.3,1.2l-3.8-0.1l-4,2.1l-3.5,3L58,18.1l-0.1,2.1l1,0.4l2-4.3l6-3.8l5-0.2l2,1.6  l0.1,2l-2.9,2.8l-0.6,4.4l-0.9,1.4l0.3,0.5l4.6-2.4l2.7-1.5l0.8-1.3l1.7,0.3l-1.7,2.5l-9.7,5.2L67,27l1.4-2.6l1.2-2.5l-0.4-0.2  l-3.8,5.2l-4.9,4.3l-9.8-1.5l-6.3,2.4l-7.6,0.2l-6.1-1.8l-3.6,0.1l-4.6,0.5l-11.6,6.1L4.5,48.4l-0.5,6.8l0.9,8.2h0.5L5.6,62L6,62  l0.4,1.4h0.2l1.8-7.2L9,56.4v7l0.3,0.2L10,63v1.3l-0.6,1l0.4,0.3l2.4-1.8L9.7,69v1.8h0.4l0.6-1.5l2-2.7l0.4,0.5L11,70.9l0.2,0.5  l2.8-2.1l0.1,0.7L13,72l-2.4,2.7l1.8,13.2l4.5,4l3.4,0.3v-0.4l-0.5-0.6l0.5-0.5l0.8,0.5l0.2-0.4l-3.8-4.2l-1.1-2l-0.2-6.8l5.8-5.6  l0.6,0.4L22,83l5.6,8l4-0.2v-0.3L31,90l0.1-0.3l0.8,0.3v-0.3l-1.4-1.4L28,86l-1.2-6.1l2.2-9.1l0.8-0.3l1.7,5.4l0.7-0.2l0.5-3.7  l0.3-0.1l2,3.7l0.5-0.3l0.5-3.7l0.2,0.1l0.9,3.5h0.5l1-3.3l0.4-0.1l0.9,3.2l0.3-0.1l1.2-3.5h0.3l1.4,3.6h0.5l0.8-3.7l0.4-0.1l1.2,3  l0.5-0.1l1.1-2.9l0.5,0.2v3.3l0.5,0.1l1.4-3H50l1.1,2.3l0.4-0.1l0.4-2.8l-2.2-6.4l1.6-0.6l2.1,6.2l1.1,3.6l0.6,9.7l-0.5,3.8l2.7,3.9  l4.1,0.3l0.1-0.3L60.8,91l0.7-0.2l0.2-0.3L58.5,87l-0.2-14.2l2.9-4l0.9,1l-2.2,3.5l-0.2,13.5l1.7,1.9l2.9,0.3l0.3-0.7l0.8,0.1  l0.2-0.5l-2.3-3l0.4-14.7l1,1.1l0.3-0.2l0.5-2.9L66,68l0.4,2.9l0.6-0.1l1-5.1h0.4l0.5,2.2l0.4-0.1l0.8-5h0.5l0.1,2.3h0.3l0.4-4  l0.2-2.8L72,59l0.8-4.3l8.5-18.6l-2.2-0.9l-2.2-2.1l-1.1-2.5l0.9-0.4l2.8,3.4l3.2,1.5l-1,5.8l1.1,3.3h0.5l0.6-3.9h0.6l-0.3,8  l0.5,0.5l1.2-3.9l0.6,0.7l-0.2,7.5l0.6,1.6l0.5-2.3h0.4l0.8,3.4l0.4,0.2l1-19.3l2.3,0.7l2.1-0.2l1.1-0.7v-0.4l-1.1-0.5L93,35.7  l-0.6,0.4l-1.6-0.2L89.7,35l0.1-0.6l0.8-0.7l1.6,1.1l1.4-0.7l0.2-1.6l-1.5-0.5l-0.9-1l0.4-0.8l1.7,0.7l0.8,0.1l0.9-0.9l-4.4-5.6  L88.8,23l-0.1-0.8l0.8-0.4l-0.8-3.1l-4-3.8l-2-0.6L81.5,13l-2.1-2.7L76,8.9z"></path></svg>