<svg fill="#00882B" xmlns="http://www.w3.org/2000/svg" xmlns:xlink="http://www.w3.org/1999/xlink" version="1.1" x="0px" y="0px" viewBox="-10 -10 120 120" style="enable-background:new 0 0 100 100;" xml:space="preserve"><g><path d="M33.9,20c0,0,1.5,2.7,2.8,6.3c1.1,3,3.9,3.8,6.7,3.5c2.7-0.3,5.7-4.9,9.5-8.8c0.4-0.4,0.6-0.9,0.7-1.4l0.2-2   c0,0,1.9,2.2,4.4,0.9c2.5-1.3,3.5-4.1,6.6-5c0,0,1.6-4.4,6-6.3c4.4-1.9,6-4.4,6-4.4s-7.8,1.6-11.3,1.6c-3.5,0-12.9,2.2-13.2,3.8   c0,0-0.6-1.3,4.1-3.5c0,0-6.3-2.8-10.7-2.5c0,0-4.1-0.6-6.6,0.6S34.6,7,34.6,7s-2.7,4.2-2.7,7C31.9,16.8,33.9,20,33.9,20z    M55.2,14.5c0.2-0.2,0.5-0.5,0.8-0.7c0.8-0.8-1.5-3.5,3.6-4.9c5-1.5,7.7-1.9,7.7-1.9s-2.5,1.9-4.2,4.4c-0.3,0.5-1.4,0.8-2,1   c-1.6,0.6-2.5,1.3-3.1,2.7c-0.4,0.9-1.6,0.7-2.4,0.4C55,15.4,54.8,14.8,55.2,14.5z M44.1,17.5l5.7-1.3c0,0-0.3,2.8-3.1,3.1   C43.8,19.7,44.1,17.5,44.1,17.5z M37.6,17.1c0,0,1.3,2.5-0.9,2.5c-2.2,0-2.2-3.5-2.2-3.5L37.6,17.1z"></path><path d="M20.5,8.7c3.1,1.9,4.7,6,4.7,6c2.2,0.6,2.8,3.1,5.3,5c2.5,1.9,2.2,1.3,2.2,1.3s-1.6-1.6-2.2-5.3c-0.6-0.3-1.5-1-3-2.3   c0,0-0.8-1.6-4.1-5.3c0,0,1.2,0.5,4.8,2.5c1.1,0.6,2.3,0.1,3-0.2c0.8-2,1.7-3.6,1.7-3.6s-4.4,0.5-6,0c-3.8-1.3-11.3-3.8-11.3-3.8   S17.3,6.9,20.5,8.7z"></path><path d="M59.1,67.4c1.9-3.8,5.2-2.3,5.2-2.3l-2.7-7.7c0,0-4.4,3.8-11.5,3.1c-6-0.5-10.9-2.7-10.9-2.7l-4.6,4.8c0,0,4.7,3.3,5.7,4.6   c2.5,3.6,5.2,7.7,5.2,7.7l1.9-4.4c0,0,1.9,0.8,1.9,1.5s1.3,2.9,1.3,2.9l1-4.6l2.7,7.3v-4.2c0,0,0-2.3,1.3-1.5l1.5,0.4   C57,72.5,58.3,69,59.1,67.4z"></path><path d="M33.3,64.1c0,0-3.6,4.8-4.8,6.1c-1.3,1.3-1,3.1-1,3.1s4.8,12.8,4.2,14.4c-0.6,1.7-2.7,2.3-4.4,4.2c0,0-2.9,0.6-2.9,1.9   s1.5,0.8,1.5,0.8l2.3-1c0,0-3.1,2.1-0.2,2.1l2.5-1.7c0,0-1.9,1.5-0.6,2.5c1.3,1,3.3-1,4-1.5c0.6-0.4,4.8-1.7,4-4.8   c-0.8-3.1,0.4-6.1,0.4-10.5s-1.7-6.3-1.7-6.3s1.3,0,1.9,1.7l3.1-3.3C41.5,71.8,39.4,67.2,33.3,64.1z"></path><path d="M72.3,88.8c0,0-1.7-9-3.6-10.9c-1.9-1.9-4-10.7-4-10.7s-2.3-1-4,0.6c-1.7,1.7-2.5,6.3-2.5,6.3h-1.7l3.3,5   c0,0,0.7,1.2,1.1,2.7c0.3,1.4,1.1,2.7,2.1,3.7c0.8,0.8,1.7,1.7,2.5,2.3c2.1,1.7,2.7,2.7,2.9,4c0.2,1.3-0.2,2.3-1.5,3.8   c-1.3,1.5-0.6,1.9,1.5,1.9s3.1,0.4,4.4,0.4s4.2-0.8,3.3-2.3C75.4,94.2,72.3,88.8,72.3,88.8z"></path><path d="M84.8,62.2c-0.6-3.6-1.5-4.8-2.5-5c-1-0.2-3.1-3.3-3.1-3.3s0-5.2-2.9-10s-5.7-4.6-8.6-9.6c-2.9-5-7.7-6.7-10.3-7.7   c-2.5-1-4.2-3.3-4.2-3.3L51.5,25c0,0,0,0-1.3,1.5c-1.3,1.5-4.6,4.2-4.6,4.2c-7.1,3.3-9.4-1.7-9.4-1.7l-1.9-3.8c0,0-4.8,4.2-5.4,7.3   c-0.6,3.1,0.4,11.1,0.4,11.1c-0.6,1.7-7.5,6.7-7.5,6.7s-6.1,5.9-6.7,7.5c-0.6,1.7,3.1,6.1,4.4,6.1c1.3,0,2.9-1,3.3-1.9   c0.4-0.8-0.4-2.7-0.4-2.7c1.3-0.2,1.9-4.2,1.9-4.2s5.9-2.5,7.5-3.6c3.6-2.3,3.6-5.9,3.6-5.9l-0.2-3.8c0,0-0.6-3.1-0.8-4.2   c-0.2-1-2.3-2.9-2.3-2.9s2.3-0.4,3.1,1.9c0.8,2.3,1.5,4.8,1.5,4.8s0.3,0.8,0.4,2.7c0.6-0.3,1.7-0.8,2.3-1.3c0,0-1.2,2-2.1,4.1   c0,0.5,0,1,0,1.6c0,5.2,2.3,7.3,2.3,7.3l5,1.9c8.8,3.6,16.5-1.7,16.5-1.7l-1.9-6.5l-2.7,6.5c0,0-0.4-1.9,0.6-4   c1-2.1,3.3-9.4,3.3-9.4S56.8,39,56.1,39c-0.6,0-3.3,1.3-3.3,1.3s2.7-4,3.8-2.7s9.8,6.7,9.8,6.7c3.8,6.7,7.1,8.4,7.1,9   s1.7,1.7-2.1,3.3c-3.8,1.7-0.6,5.7,0.2,4c0.8-1.7,3.3-1.5,4-0.6c0.6,0.8-1.3,2.9-1.9,4.4c-0.6,1.5,0,2.7,0.8,2.7   c0.8,0,2.9-4.8,2.9-4.8s-1.3,5,0,5.2c1.3,0.2,2.5-5.9,2.5-5.9s0.2,2.1-0.2,3.3c-0.4,1.3-0.4,3.8,1.3,1.9c1.7-1.9,1.5-5.4,1.5-5.4   c1,2.1,0.8,4,0.8,4S85.4,65.8,84.8,62.2z"></path></g></svg>