<svg fill="#F5D327" xmlns="http://www.w3.org/2000/svg" xmlns:xlink="http://www.w3.org/1999/xlink" version="1.1" x="0px" y="0px" viewBox="0 0 100 100" enable-background="new 0 0 100 100" xml:space="preserve"><g><path fill="#F5D327" d="M77.777,83.744H22.223v-5.912h55.555V83.744z M23.536,82.43h52.928v-3.283H23.536V82.43z"></path></g><g><path fill="#F5D327" d="M77.805,75.861H22.195v-7.072L8.87,41.56c-0.369,0.113-0.745,0.169-1.125,0.169   c-2.203,0-3.995-1.792-3.995-3.996c0-2.204,1.792-3.996,3.995-3.996s3.996,1.792,3.996,3.996c0,0.454-0.08,0.9-0.239,1.333   l25.667,13.988l10.852-29.344c-1.228-0.703-2.016-2.022-2.016-3.458c0-2.203,1.792-3.996,3.995-3.996s3.995,1.792,3.995,3.996   c0,1.436-0.788,2.755-2.016,3.458l10.853,29.344l25.666-13.988c-0.159-0.433-0.239-0.879-0.239-1.333   c0-2.204,1.792-3.996,3.996-3.996c2.203,0,3.995,1.792,3.995,3.996c0,2.203-1.792,3.996-3.995,3.996   c-0.38,0-0.757-0.057-1.125-0.169L77.805,68.789V75.861z M23.509,74.549h52.983v-6.063l14.011-28.634l0.589,0.285   c0.38,0.185,0.771,0.278,1.163,0.278c1.479,0,2.682-1.203,2.682-2.682c0-1.479-1.203-2.682-2.682-2.682s-2.683,1.203-2.683,2.682   c0,0.442,0.118,0.878,0.351,1.296l0.323,0.58l-28.12,15.324L50.312,22.986l0.615-0.228c1.051-0.389,1.756-1.396,1.756-2.506   c0-1.479-1.203-2.682-2.683-2.682c-1.479,0-2.683,1.203-2.683,2.682c0,1.11,0.706,2.117,1.756,2.506l0.615,0.228L37.873,54.934   L9.754,39.61l0.323-0.58c0.232-0.418,0.351-0.854,0.351-1.296c0-1.479-1.203-2.682-2.683-2.682c-1.479,0-2.682,1.203-2.682,2.682   c0,1.479,1.203,2.682,2.682,2.682c0.393,0,0.783-0.093,1.163-0.278l0.589-0.285l14.012,28.634V74.549z M45.259,71.445l0.906-5.279   l-3.836-3.738l5.301-0.771L50,56.854l2.37,4.803l5.301,0.771l-3.836,3.738l0.906,5.279L50,68.951L45.259,71.445z M50,67.467   l2.997,1.576l-0.572-3.336l2.424-2.363l-3.35-0.486L50,59.822l-1.498,3.035l-3.351,0.486l2.425,2.363l-0.573,3.336L50,67.467z"></path></g></svg>