<svg fill="#DCBD23" xmlns="http://www.w3.org/2000/svg" xmlns:xlink="http://www.w3.org/1999/xlink" version="1.1" x="0px" y="0px" viewBox="0 0 100 100" enable-background="new 0 0 100 100" xml:space="preserve"><path d="M50,10.327c-21.875,0-39.672,17.797-39.672,39.672c0,21.876,17.797,39.673,39.672,39.673  c21.876,0,39.673-17.797,39.673-39.673C89.673,28.124,71.876,10.327,50,10.327z M52.128,73.303l0.057,0.51  c0.01,0.507,0.063,0.855,0.067,1.187h-4.713c0.009-0.462,0.194-1.059,0.227-1.828C47.813,72.078,48,71.297,48,70.773v-0.861  l-1.015-0.128c-3.015-0.45-5.996-1.443-8.653-2.922c-0.953-0.606-1.493-0.969-1.753-1.177c0.543-1.361,1.744-3.487,3.621-6.338  c0.239,0.104,0.545,0.274,0.953,0.551c1.005,0.681,1.341,0.875,1.537,0.958c2.182,1.176,4.746,1.771,7.628,1.771  c4.037,0,4.638-2.337,4.638-3.73c0-2.004-0.983-3.757-2.965-5.242c-0.446-0.297-1.473-0.904-3.14-1.856  c-1.613-0.922-2.744-1.586-3.359-1.973c-0.605-0.382-1.518-1.056-2.712-2.004c-1.149-0.911-1.961-1.716-2.414-2.396  c-0.472-0.707-0.933-1.632-1.372-2.75c-0.418-1.068-0.631-2.206-0.631-3.381c0-5.578,2.888-8.898,8.854-10.152L48,28.975v-0.812  c0-0.386-0.011-0.989-0.059-1.809c-0.045-0.771-0.062-1.694-0.062-2.103c0-0.103,0.022-0.189,0.04-0.252h4.618  c0.096,0.33,0.139,0.619,0.14,0.703c0,0.937,0.026,2.235,0.149,3.098l0.112,0.78l0.785,0.073c1.295,0.121,2.916,0.505,5.091,1.208  c0.149,0.099,0.339,0.202,0.568,0.309c0.279,0.128,0.567,0.289,0.865,0.459l0.982,0.566c0.163,0.094,0.311,0.181,0.453,0.27  c-0.19,0.405-0.582,1.166-1.385,2.572c-1.095,1.917-1.654,2.78-1.937,3.168c-0.34-0.123-0.973-0.363-2.143-0.834  c-1.816-0.731-3.222-1.087-4.294-1.087c-1.088,0-2.103,0.318-3.018,0.946c-1.016,0.7-1.553,1.711-1.553,2.924  c0,0.498,0.095,0.988,0.282,1.458c0.163,0.406,0.344,0.768,0.54,1.076c0.226,0.354,0.607,0.743,1.164,1.188  c0.502,0.401,0.919,0.707,1.273,0.935c0.325,0.209,0.894,0.58,1.708,1.115c0.801,0.526,1.453,0.972,2.016,1.378  c0.369,0.23,1.002,0.645,1.899,1.243l1.891,1.261c0.338,0.225,0.844,0.598,1.521,1.117c0.803,0.615,1.181,0.987,1.358,1.193  c0.286,0.329,0.646,0.789,1.067,1.368c0.384,0.525,0.656,1.015,0.809,1.454c0.174,0.501,0.34,1.11,0.493,1.81  c0.146,0.676,0.222,1.404,0.222,2.167c0,3.031-0.977,5.544-2.984,7.682c-2.015,2.145-4.672,3.541-7.716,4.149L52,69.909v0.819  C52,71.294,52.104,72.152,52.128,73.303z"></path></svg>