<svg xmlns="http://www.w3.org/2000/svg" xmlns:xlink="http://www.w3.org/1999/xlink" version="1.1" x="0px" y="0px" viewBox="0 0 100 100" enable-background="new 0 0 100 100" xml:space="preserve"><path d="M77.897,20.997c-0.268-0.593-0.807-1.02-1.446-1.143l-6.805-1.309c-1.085-0.211-2.133,0.501-2.342,1.586  c-0.209,1.085,0.501,2.133,1.586,2.342l5.786,1.113l12.013,26.672c-3.563-4.716-9.214-7.768-15.566-7.768  c-6.687,0-12.596,3.386-16.11,8.531c-1.11-0.879-2.782-1.422-4.746-1.466c-1.755-0.042-3.867,0.367-5.268,1.48  c-3.513-5.153-9.427-8.545-16.121-8.545c-6.411,0-12.108,3.109-15.665,7.899l11.861-26.805l5.778-1.111  c1.084-0.208,1.795-1.257,1.586-2.342c-0.208-1.085-1.253-1.796-2.342-1.586l-6.805,1.309c-0.644,0.124-1.186,0.555-1.451,1.154  c0,0-16.34,36.875-16.34,37.249v5.1c0,0.552,0.448,1,1,1h2.685c0.121,0,0.233-0.03,0.341-0.069  c1.142,9.672,9.378,17.202,19.352,17.202c10.752,0,19.5-8.748,19.5-19.5c0-3.333-0.844-6.471-2.323-9.218  c0.791-0.769,2.371-1.263,4.168-1.218c1.647,0.036,3.04,0.5,3.739,1.185c-1.49,2.754-2.339,5.904-2.339,9.25  c0,10.752,8.748,19.5,19.5,19.5c9.974,0,18.21-7.531,19.352-17.202c0.107,0.039,0.22,0.069,0.341,0.069H93.5c0.552,0,1-0.448,1-1  v-5.1C94.5,57.893,77.897,20.997,77.897,20.997z M9.185,62.357H7.5v-3.1h2.043c0.018,0,0.033-0.009,0.05-0.01  c-0.127,0.899-0.215,1.81-0.215,2.744c0,0.138,0.018,0.272,0.021,0.41C9.328,62.385,9.261,62.357,9.185,62.357z M28.878,77.491  c-8.547,0-15.5-6.953-15.5-15.5s6.953-15.5,15.5-15.5s15.5,6.953,15.5,15.5S37.425,77.491,28.878,77.491z M71.122,77.491  c-8.547,0-15.5-6.953-15.5-15.5s6.953-15.5,15.5-15.5s15.5,6.953,15.5,15.5S79.669,77.491,71.122,77.491z M92.5,62.357h-1.685  c-0.076,0-0.143,0.027-0.214,0.043c0.003-0.138,0.021-0.271,0.021-0.41c0-0.933-0.088-1.845-0.216-2.744  c0.018,0.001,0.033,0.01,0.051,0.01H92.5V62.357z M83.363,62.167c0,0.552-0.448,1-1,1s-1-0.448-1-1c0-2.776-1.603-5.333-4.184-6.674  c-0.49-0.254-0.681-0.858-0.426-1.348c0.254-0.491,0.859-0.682,1.348-0.426C81.347,55.405,83.363,58.643,83.363,62.167z   M23.453,70.804c-0.159,0.385-0.532,0.618-0.924,0.618c-0.127,0-0.257-0.025-0.382-0.077c-4.044-1.673-6.461-5.608-6.016-9.792  c0.058-0.549,0.543-0.952,1.1-0.888c0.549,0.058,0.947,0.551,0.888,1.1c-0.351,3.294,1.575,6.401,4.792,7.732  C23.421,69.708,23.664,70.293,23.453,70.804z"></path></svg>