<svg fill="#EC5D57" xmlns="http://www.w3.org/2000/svg" xmlns:xlink="http://www.w3.org/1999/xlink" version="1.1" x="0px" y="0px" viewBox="0 0 100 100" enable-background="new 0 0 100 100" xml:space="preserve"><g><path d="M94.8,36.1c0.1-0.3,0.1-0.7,0.1-1c0.4-3.5-0.4-7.2-2.2-10.8c-3.4-6.8-10.1-12.2-18-14.5c-7.2-2.1-15.3-1.9-23.4,0.7   c-4.3,1.4-7.6,3.1-10,5.3c-4.4,3.9-6.9,10.3-6.9,17.1c-7.3,0.5-14.8,4.3-20,10.3c-4.9,5.7-8,13.1-9.1,21.5C4.7,69.2,5,72.9,6,76.1   c2.2,7.1,9,12.9,17.8,15l0.3,0.1c0.9,0.2,1.6,0.4,2.9,0.4h0c0.2,0,0.4,0,0.6,0c0.9,0.1,1.9,0.1,2.8,0.1c6.5,0,13.5-1.9,18-4.9   c1.6-1.1,3.1-2.3,4.4-3.4c2.2-1.8,4.6-3.8,6.4-6.4c0.7-1,1.1-1.8,1.3-2.6c0.2-0.8,0.2-1.6,0.3-2.4c0-0.4,0-0.7,0.1-1.1   c0.1-1,0.4-2.1,0.6-3.1c0.2-1,0.5-2.1,0.6-3.1c0.6,0.1,1.7,0.3,2.7,0.3c0.3,0,0.6,0,0.8-0.1c0.8-0.1,1.5-0.4,2.3-0.7   c0.3-0.1,0.7-0.3,1-0.4c1-0.3,2.1-0.6,3.1-0.7c1.1-0.2,2.3-0.4,3.4-0.8c2.2-0.8,4-2.3,5.8-3.7l4.3-3.4c1-0.8,2.1-1.6,2.8-2.7   c0.4-0.6,0.8-1.3,1.1-2c0.2-0.4,0.4-0.7,0.6-1.1c0.3-0.5,0.6-1,0.9-1.5c0.6-1,1.3-2,1.6-3.1c0.1-0.2,0.2-0.6,0.3-1.1   c0.7-2.1,1.9-6,2-6.8C94.9,36.5,95,36.2,94.8,36.1z M41.7,16.2c2.4-2.2,5.6-3.9,9.8-5.2c8-2.5,16-2.8,23-0.7   c7.8,2.3,14.4,7.6,17.7,14.2c1.8,3.5,2.5,7.2,2.1,10.5c-0.1,0.6-0.2,1.2-0.3,1.7c-0.1,0.2-0.2,0.6-0.4,1c-0.1,0.2-0.1,0.4,0,0.5   c-1.5,4.5-5.2,8.7-10.1,11.4c-6.1,3.3-13,4.1-18.4,4.4c-0.7,0-2.9,0.2-4.7,0.1l-0.5-2.2c-0.3-1.3-0.6-2.6-1.3-3.7   c0-0.1-0.1-0.1-0.1-0.2c0.2,0,0.4,0,0.7,0c0,0,0.1,0,0.1,0c1.1,0,2.2-0.4,2.8-1c0,0,0-0.1,0.1-0.1c0.6-1.7,0.6-3.4,0.7-5.2l0.2-9.3   c0,0,0,0,0,0c0,0,0.1,0,0.1,0c0,0,0.1,0,0.1,0c0.2,2.2,0.1,4.5-0.1,6.7c-0.2,2.7-0.4,5.3,0.1,7.7c0.1,0.4,0.3,0.9,0.7,1.2   c0.4,0.4,1,0.4,1.5,0.5c0.4,0,0.8,0,1.2,0c2.3,0,4.5-0.4,6.6-1.3c0.3-0.1,0.5-0.2,0.7-0.5c0.4-0.5,0.3-1.1,0.3-1.6   c-0.5-2.7-2.3-4.9-3.9-6.8L65.9,33c0.1,0,0.2,0,0.2-0.1c2.9,3.3,5.5,6.8,7.8,10.5c0.6,1,1.5,2.4,2.9,2.6c0.1,0,0.3,0,0.4,0   c0.5,0,1-0.1,1.4-0.2c4.9-1.4,8.3-4.4,9-8c0.2-0.9,0.1-1.6-0.2-2.1c-0.7-1.3-2.5-1.5-3.4-1.5c-4-0.3-8-1-12-1.9l-0.8-0.2   c-1.4-0.3-2.9-0.7-4.4-0.9c0,0-0.1,0-0.1,0c0-0.1,0.1-0.2,0.1-0.3c0.8,0.2,1.7,0.4,2.5,0.6c4.6,1.1,9.3,2.2,14.2,2.4   c0.3,0,0.5,0,0.8,0c0.7,0,1.4-0.1,2-0.3c1-0.4,1.8-1.2,2-2.1c0.1-0.6,0-1.3-0.1-1.8l-1-4.5c-0.2-0.9-0.7-1.4-1.4-1.6   c-0.5-0.1-0.9,0-1.3,0.1c-3.2,1-6.5,2-9.7,2.9c-2.3,0.7-4.7,1.4-7,2.1c0,0,0,0-0.1,0c-0.1-0.1-0.2-0.1-0.3-0.2   c1.9-0.6,3.8-1.2,5.8-1.7c2.5-0.7,5-1.5,7.5-2.2c0.9-0.3,1.8-0.7,2.4-1.1l0.1-0.1c0.6-0.5,1.3-1,1.3-1.9c0-0.7-0.4-1.3-0.9-1.9   c-1.1-1.5-2.5-2.8-4-3.9c-0.6-0.4-1.3-0.8-2-0.8c-1,0.1-1.6,0.8-2.2,1.5c-1.2,1.4-2.7,2.7-4.1,3.9c-2.1,1.9-4.2,3.8-5.7,6.1   l-0.3-0.9c0,0,0.1,0,0.1-0.1c2.5-3.1,5.4-5.9,8.4-8.4c0.4-0.4,0.9-0.7,1.2-1.2c0.4-0.6,0.4-1.3,0-1.8c-0.3-0.5-0.9-0.7-1.4-0.8   c-1.6-0.4-3.1-0.8-4.7-1.1c-1.8-0.3-3.7-0.5-5.3,0.3c-0.1,0-0.2,0.2-0.1,0.3c0.3,4.1,0.7,8.4,0.2,12.6c0,0,0,0,0,0   c-0.3,0-0.5,0-0.8-0.1c0.2-3.5,0.2-7,0.1-10.5c-0.1-1.8-0.6-2.9-1.6-3.2c-0.6-0.2-1.2,0-1.7,0.1l-0.1,0c-0.8,0.2-1.6,0.3-2.4,0.5   c-0.8,0.1-1.5,0.2-2.3,0.4c-2,0.5-3.4,1.2-4.4,2.3c-0.2,0.2-0.4,0.5-0.5,0.8c-0.1,0.6,0.3,1.1,0.7,1.5c2.8,3,6.3,6.3,10.3,9.9   l-0.1,0c0,0,0-0.1-0.1-0.1c-0.2-0.1-0.4-0.3-0.5-0.4c-0.3-0.2-0.6-0.5-0.9-0.8c-1.6-1.4-3.2-2.8-4.8-4.3c-1.6-1.4-3.2-2.9-4.8-4.3   c-0.4-0.3-0.9-0.8-1.5-0.9c-0.9-0.2-2,0.2-3.1,1.3c-1.2,1.2-2.1,2.6-2.9,4c-0.3,0.6-0.7,1.5-0.3,2.3c0.3,0.6,0.9,0.9,1.5,1.2   c5.3,2.4,11.2,3.7,17,3.9c0,0,0,0.1,0,0.1c-0.7-0.2-1.5-0.2-2.3-0.1l-0.3,0c-2.8,0.2-5.5-0.7-8.1-1.5c-2.5-0.8-5.2-1.6-7.9-1.6   c-0.3,0-0.7,0-1.1,0.3c-0.3,0.2-0.5,0.5-0.6,0.8C39.3,29,39.2,31,40,32.7c0,0.1,0.1,0.1,0.1,0.2c0.1,0.1,0.1,0.3,0.2,0.4   c-1.4-0.3-2.9-0.4-4.4-0.4c-0.3,0-0.6,0-0.9,0c0,0-0.1,0-0.1,0C34.9,26.2,37.4,20,41.7,16.2z M57.6,44.3L57.6,44.3   c-0.1-0.2-0.1-0.3,0.1-0.4c0,0,0.1,0,0.1,0c0.1,0,0.2,0.1,0.2,0.1l0.1,0.1c0,0,0,0.1,0.1,0.1c0.1,0.4,0.2,0.7,0.2,0.9   c-0.1,0.5-0.5,1-1,1l0,0.3v-0.3c-0.1,0-0.2-0.1-0.2-0.1c0-0.1,0-0.2,0-0.3c0.3-0.4,0.5-0.9,0.5-1.4C57.7,44.4,57.7,44.3,57.6,44.3z    M58.9,45.3c0-0.4,0-0.8-0.2-1.2c0-0.1-0.1-0.2-0.1-0.3l0-0.1c-0.2-0.4-0.7-0.5-1-0.4c-0.4,0.2-0.5,0.6-0.3,1l0,0.1   c0,0.3-0.1,0.7-0.4,0.9c-0.1,0.1-0.2,0.2-0.2,0.3c-0.1-0.1-0.1-0.2-0.2-0.2c-0.2-0.3-0.5-0.7-0.7-1c0.1-0.2,0.2-0.3,0.3-0.6   l0.3-0.6c0.1-0.1,0.2-0.3,0.2-0.4c0.2-0.2,0.4-0.5,0.6-0.8c0.1-0.2,0.2-0.3,0.4-0.4c0.3-0.3,0.3-0.7,0-1c-0.1-0.2-0.3-0.2-0.5-0.3   c-0.1-0.1-0.3-0.1-0.4-0.2c-0.3,0-0.6,0.2-0.7,0.4c-0.1,0.2-0.2,0.5-0.4,0.9c-0.2,0.3-0.5,0.8-0.8,1.2c-0.4-0.5-0.8-1-1.2-1.4   c-0.1-0.1-0.3-0.2-0.5-0.4c0.7-0.6,1.4-1.3,2.2-1.9l-1.1,1.3c-0.2,0.2-0.2,0.6-0.1,0.8c0,0.1,0.1,0.2,0.2,0.3   c0.1,0.1,0.3,0.2,0.5,0.2c0.2,0,0.4-0.1,0.6-0.3l1.3-1.5c0.2-0.2,0.4-0.5,0.4-1c0-0.3-0.1-0.5-0.4-0.7C56.3,38,56.2,38,56.2,38   c0.4-0.3,0.7-0.6,1.1-1c1.6-1.3,3.2-2.7,4.6-4.1c0,0,0.1-0.1,0.2-0.2c0.1-0.1,0.2-0.2,0.3-0.3c0.1,0,0.1,0.1,0.2,0.1   c0,0,0,0.1,0,0.1l-0.2,9.3c0,1.7-0.1,3.4-0.6,4.9c-0.6,0.6-1.5,0.9-2.5,0.8c-0.5,0-0.7,0-1.2-0.1c-0.2-0.3-0.4-0.6-0.6-0.8   C58.1,46.7,58.8,46.1,58.9,45.3z M55.4,44c-0.2-0.2-0.3-0.5-0.5-0.7c0.2-0.4,0.6-1.1,0.9-1.4c0,0,0,0,0-0.1   c0.2-0.4,0.3-0.7,0.4-0.9c0-0.1,0.1-0.1,0.2-0.1c0.1,0,0.1,0,0.2,0.1c0.1,0.1,0.1,0.1,0.2,0.1c0.1,0,0.2,0,0.2,0.1   c0.1,0.1,0.1,0.2,0,0.3c-0.1,0.2-0.3,0.3-0.4,0.5c0,0,0,0,0,0.1c-0.1,0.3-0.3,0.5-0.5,0.7c-0.1,0.1-0.2,0.3-0.3,0.5l-0.3,0.6   C55.5,43.8,55.4,43.9,55.4,44z M47.3,36.1c0.7-0.4,1.3-0.7,2.2-1c0.1,0,0.1,0,0.2,0c0.1,0,0.1,0.1,0.1,0.1c0,0.1,0,0.3-0.1,0.3   c-0.3,0.1-0.4,0.2-0.6,0.2c-0.5,0.2-0.7,0.2-1.3,0.7C47.5,36.3,47.4,36.1,47.3,36.1z M48.1,36.8c0.5-0.3,0.6-0.4,1.1-0.5   c0.2-0.1,0.4-0.1,0.6-0.2c0.4-0.2,0.6-0.6,0.5-1c-0.1-0.2-0.2-0.4-0.4-0.4c-0.2-0.1-0.4-0.1-0.6,0c-1.1,0.4-1.7,0.7-2.7,1.3   c-0.3-0.2-0.6-0.4-0.9-0.5c-0.1-0.1-0.2-0.1-0.4-0.2c2.7-1,5.3-1.6,8.4-2c0.3,0,0.7-0.1,1-0.1c1.9-0.3,3.9-0.5,5.7-1.4   c0,0,0.1,0.1,0.1,0.1c0.1,0.1,0.2,0.2,0.4,0.3c-0.4,0.3-0.9,0.7-1.1,0.9c-1.5,1.2-2.9,2.4-4.2,3.5c-1.3,1.1-2.6,2.3-4.1,3.4   c0,0,0,0,0,0.1C50.5,38.8,49.1,37.6,48.1,36.8z M41,33.4c-0.1-0.2-0.3-0.5-0.4-0.8c0-0.1-0.1-0.2-0.1-0.2c-0.7-1.5-0.7-3.4,0.1-4.9   c0.1-0.2,0.2-0.4,0.4-0.6c0.2-0.1,0.5-0.2,0.8-0.2c2.6-0.1,5.2,0.8,7.7,1.6c2.7,0.9,5.5,1.7,8.3,1.6l0.3,0c0.7-0.1,1.5-0.1,2.1,0.1   c0,0.1-0.1,0.2-0.1,0.3c0,0.1-0.1,0.1,0,0.2c0,0,0,0,0,0.1c0,0,0,0,0,0c-1.2,0.7-2.8,0.8-4.3,0.9c-0.6,0-1.1,0.1-1.7,0.1   c-1.8,0.2-3.6,0.7-5.3,1.3c-2.1,0.6-4.1,1.2-6,1.2C42.2,33.8,41.6,33.6,41,33.4z M49.7,26.4c0-0.1,0.1-0.1,0.3-0.1   c1.9,0.4,3.8,0.7,5.7,0.9c0.2,0,0.5,0.1,0.7,0.1c0.3,0,0.5,0,0.8-0.1c0.1-0.1,0.3,0,0.3,0.1c0,0.1,0,0.3-0.1,0.3   c-0.3,0.1-0.6,0.2-1,0.2c-0.3,0-0.5,0-0.8-0.1c-1.4-0.2-2.8-0.4-4.2-0.6c0,0,0,0,0,0c0,0-0.1,0-0.1,0c0,0-0.1,0-0.1,0   c-0.4,0-0.9-0.1-1.3-0.4c0,0-0.1-0.1-0.1-0.1C49.7,26.5,49.7,26.4,49.7,26.4z M51.3,27.5c1.4,0.2,2.8,0.4,4.2,0.6   c0.3,0,0.5,0.1,0.8,0.1c0.5,0,0.8-0.1,1.2-0.2c0.4-0.2,0.5-0.6,0.4-1c-0.2-0.4-0.7-0.5-1-0.4c-0.1,0.1-0.3,0.1-0.5,0.1   c-0.2,0-0.4,0-0.6,0c-1.9-0.2-3.8-0.5-5.6-0.9c-0.4-0.1-0.7,0.1-0.9,0.5c-0.1,0.2-0.1,0.4,0,0.6c0.1,0.1,0.2,0.3,0.3,0.3   c0,0,0,0,0,0c-2-0.6-4-1.3-6-2.2c-0.5-0.2-1-0.5-1.2-0.9c-0.3-0.6,0-1.3,0.3-1.9c0.7-1.4,1.7-2.8,2.8-3.9c0.9-1,1.8-1.4,2.6-1.2   c0.5,0.1,0.9,0.5,1.3,0.8c1.6,1.4,3.2,2.8,4.8,4.3c1.6,1.4,3.2,2.9,4.8,4.3c0.3,0.3,0.6,0.5,0.9,0.8c0.1,0.1,0.3,0.2,0.4,0.3   c-0.1,0-0.1,0.1-0.1,0.1c0,0.1,0,0.2,0,0.2c0.2,0.3,0.3,0.6,0.4,0.9c-3.1-0.1-6.2-0.5-9.3-1.2C51.2,27.5,51.3,27.5,51.3,27.5z    M61.3,27c-4-3.6-7.5-7-10.4-10c-0.3-0.3-0.6-0.7-0.5-1.1c0-0.2,0.2-0.4,0.3-0.6c0.9-1,2.3-1.7,4.1-2.1c0.4-0.1,0.9-0.2,1.3-0.3   c-0.1,0.1-0.1,0.2-0.1,0.3c-0.3,0.8-0.2,1.7,0.2,2.5c0.2,0.4,0.4,0.7,0.7,1c0.1,0.1,0.3,0.2,0.5,0.2c0.1,0,0.2,0,0.4-0.1   c0.3-0.2,0.5-0.5,0.4-0.8l0-0.1c0-0.1,0-0.2,0-0.3c0-0.6-0.2-1.1-0.4-1.7c0-0.2,0-0.5-0.1-0.7c-0.1-0.3-0.3-0.4-0.6-0.5   c0.8-0.1,1.6-0.3,2.4-0.5l0.1,0c0.5-0.1,1-0.2,1.4-0.1c0.8,0.2,1.2,1.1,1.2,2.7c0.1,3.4,0.1,6.9-0.1,10.3c-0.1,0-0.2,0-0.4-0.1   c-0.1,0-0.2,0-0.3,0.1c-0.1,0.1-0.1,0.2-0.1,0.2l0.2,1.3c0,0.1,0,0.1,0,0.1c0,0-0.1,0-0.1,0L61.3,27C61.3,27,61.3,27,61.3,27z    M57.5,16.1c0,0.1,0,0.2-0.1,0.2c-0.1,0-0.2,0-0.3,0c-0.2-0.2-0.4-0.5-0.6-0.9c-0.3-0.7-0.4-1.4-0.1-2.1c0-0.1,0.1-0.2,0.2-0.2   c0,0,0.1,0,0.1,0c0,0,0.1,0,0.1,0.1c0.1,0,0.2,0.1,0.2,0.2c0.1,0.2,0.1,0.4,0.1,0.6c0,0,0,0.1,0,0.1c0.2,0.5,0.3,1,0.3,1.6   c0,0,0,0.1,0,0.1c0,0,0,0.1,0,0.2L57.5,16.1z M61.8,27.4c0.1,0,0.2-0.1,0.3-0.2c0.1-0.2,0.1-0.4,0.1-0.5L62,25.8   c0.9,0.2,1.8,0.2,2.7,0.1l0.5,1.4c0,0.1,0.1,0.2,0.2,0.2c0.1,0,0.2,0,0.3-0.1c0.1-0.1,0.5,0.1,0.6,0.3c0.1,0.2,0.1,0.3,0.1,0.5   c0,0.3,0.1,0.6,0.2,0.8c0.1,0.1,0.2,0.2,0.4,0.1c0.2-0.1,0.4,0,0.6,0.1c0.1,0.2,0.1,0.4,0,0.6c-0.1,0.1-0.2,0.2-0.4,0.2   c-0.2,0.1-0.4,0.2-0.6,0.3c-0.3,0.3-0.3,0.8-0.3,1.2c0,0.1,0,0.2,0,0.3c0,0.3-0.2,0.6-0.4,0.6l0,0c-0.1,0-0.2-0.1-0.3-0.2   c-0.1-0.1-0.2-0.2-0.3-0.2c-0.2-0.1-0.4-0.2-0.6-0.2c-0.3,0-0.6,0.1-0.8,0.2l-0.2,0c-0.1,0-0.3,0.1-0.4,0.1c-0.1,0-0.5,0-0.6-0.3   c0-0.1-0.1-0.3-0.3-0.4c-0.2-0.1-0.4,0-0.6,0.1c-0.2,0.1-0.6,0-0.8-0.2c-0.2-0.2-0.3-0.6-0.4-0.9c0.4-0.8,0.5-1.8,0-2.6L61.8,27.4z    M63.9,13c1.5-0.7,3.3-0.4,4.8-0.2c1.6,0.3,3.2,0.6,4.7,1.1c0.4,0.1,0.9,0.3,1.1,0.6c0.3,0.4,0.2,0.9,0,1.3   c-0.2,0.4-0.6,0.8-1.1,1.1c-3.1,2.5-5.9,5.4-8.5,8.5c0,0,0,0,0,0c0,0,0,0,0,0c-0.3,0.1-0.6,0.1-0.9,0.1   C64.5,21.3,64.2,17.1,63.9,13z M66.9,28.2C66.9,28.2,66.9,28.2,66.9,28.2c0-0.2-0.1-0.4-0.1-0.5c0.1,0.1,0.3,0.2,0.5,0.2   c0.1,0,0.2,0,0.3-0.1c1.5-0.6,3-1.3,4.4-2c0.3-0.2,0.5-0.6,0.4-0.9c-0.1-0.4-0.5-0.6-0.9-0.5c-0.6,0.1-1.1,0.2-1.7,0.4   c0.1,0,0.1-0.1,0.2-0.2l2.4-2.5c0.1-0.1,0.2-0.3,0.2-0.6c0-0.2-0.1-0.4-0.2-0.5c-0.3-0.2-0.7-0.3-1-0.1c0,0,0.1-0.1,0.1-0.1   c1.4-1.3,2.9-2.6,4.1-4c0.5-0.6,1.1-1.3,1.8-1.3c0.6,0,1.1,0.3,1.6,0.7c1.5,1.1,2.8,2.3,3.9,3.8c0.4,0.5,0.7,1,0.8,1.6   c0,0.6-0.4,0.9-1,1.4L82.8,23c-0.6,0.4-1.4,0.8-2.3,1.1c-2.5,0.8-5,1.5-7.5,2.2C71,27,68.9,27.6,66.9,28.2z M67.2,27   c1.3-1.1,2.8-1.8,4.4-2c0.1,0,0.2,0.1,0.2,0.2c0,0.1,0,0.2-0.1,0.3c-1.4,0.7-2.8,1.4-4.3,2c-0.1,0-0.2,0-0.3-0.1   C67.1,27.2,67.1,27,67.2,27z M69.7,24.3c-0.1,0.1-0.2,0.1-0.3,0c0,0,0,0,0-0.1c0-0.1,0-0.2,0-0.3l2.4-2.5c0,0,0.1-0.1,0.2-0.1   c0.1,0,0.1,0,0.2,0.1c0,0,0.1,0.1,0.1,0.2c0,0.1,0,0.1-0.1,0.2L69.7,24.3z M68.9,23.6c-0.2,0.2-0.3,0.6-0.1,0.9   c0,0.1,0.1,0.2,0.2,0.2c0.1,0.1,0.3,0.2,0.5,0.2c0,0,0.1,0,0.1,0c-1,0.4-2,0.9-2.8,1.7c-0.2,0.2-0.3,0.4-0.3,0.7   c-0.1-0.2-0.3-0.3-0.5-0.4c1.3-2.1,3.2-3.8,5.1-5.5L68.9,23.6z M67.9,30.2c0.3-0.3,0.3-0.7,0.2-1c2.3-0.7,4.6-1.4,6.9-2   c3.2-0.9,6.4-1.9,9.7-2.9c0.3-0.1,0.7-0.2,1-0.1c0.5,0.2,0.9,0.6,1,1.2l1,4.5c0.1,0.5,0.2,1.1,0.1,1.6c-0.2,0.9-1,1.4-1.7,1.7   c-0.8,0.3-1.7,0.3-2.6,0.2c-4.8-0.2-9.5-1.3-14.1-2.4c-0.7-0.2-1.3-0.3-2-0.5C67.6,30.4,67.8,30.3,67.9,30.2z M66.7,31.9   c0-0.1,0-0.1,0-0.2c0,0,0,0,0.1,0c1.4,0.2,2.9,0.5,4.3,0.8l0.8,0.2c3.9,0.9,8,1.6,12,1.9c1.2,0.1,2.5,0.3,3,1.2   c0.2,0.4,0.3,1,0.1,1.8c-0.7,3.4-3.9,6.2-8.7,7.6c-0.5,0.1-1,0.3-1.6,0.2c-1.1-0.2-1.8-1.2-2.5-2.4c-2.3-3.8-4.9-7.3-7.8-10.6   C66.6,32.3,66.7,32.1,66.7,31.9z M63.7,39.4c0.2-2.2,0.3-4.6,0.1-6.8c0,0,0,0,0,0l0.1,0c0.3-0.1,0.6-0.1,0.8-0.1l5.2,6.5   c1.5,1.9,3.3,4,3.7,6.6c0.1,0.5,0.1,0.9-0.1,1.1c-0.1,0.1-0.3,0.2-0.5,0.3c-2.4,1-5,1.4-7.6,1.2c-0.4,0-0.9-0.1-1.2-0.3   c-0.2-0.2-0.4-0.5-0.5-0.9C63.4,44.6,63.6,42.1,63.7,39.4z M48.9,33.3c1.7-0.5,3.4-1,5.2-1.2c0.5-0.1,1.1-0.1,1.6-0.1   c1.6-0.1,3.2-0.2,4.5-0.9c0,0,0,0,0,0c-1.7,0.8-3.6,1.1-5.5,1.3c-0.3,0-0.7,0.1-1,0.1c-3.3,0.5-6.1,1.2-9,2.2   c-0.2-0.1-0.5-0.2-0.7-0.3C45.6,34.3,47.2,33.8,48.9,33.3z M56.2,36.7c1.3-1.1,2.6-2.3,4.1-3.5c0.2-0.2,1-0.8,1.3-1.1c0,0,0,0,0,0   c0.1,0,0.2,0,0.3-0.1c-0.1,0.1-0.2,0.2-0.3,0.3c-0.1,0.1-0.1,0.1-0.1,0.1c-1.5,1.3-3.1,2.7-4.6,4.1c-1.5,1.3-3,2.6-4.5,3.9   c-0.1-0.1-0.3-0.2-0.4-0.4C53.5,39,54.9,37.9,56.2,36.7z M55.7,38.8c0-0.1,0-0.2,0-0.2c0-0.1,0.1-0.1,0.2-0.1c0,0,0.1,0,0.1,0.1   c0.1,0.1,0.2,0.2,0.2,0.3c0,0.2-0.1,0.5-0.2,0.6l-1.3,1.5c-0.1,0.1-0.2,0.1-0.3,0c0,0,0,0-0.1-0.1c0-0.1,0-0.2,0-0.3l1.3-1.5   c0,0,0,0,0,0C55.7,39,55.7,38.9,55.7,38.8z M27,91c-1.2,0-1.8-0.2-2.7-0.4l-0.3-0.1c-8.6-2.1-15.2-7.6-17.4-14.6   c-1-3.1-1.2-6.7-0.7-11.1c1-8.3,4.1-15.7,8.9-21.3C20,37.4,27.6,33.6,35,33.4c0.3,0,0.6,0,0.9,0c3.6,0,6.9,0.8,9.6,2.4   c5,3,8.4,9.1,8.9,15.9c0.1,1.8,0.1,3.6-0.1,5.4c0,0.1,0,0.1,0,0.2c-0.5,4.8-2.1,9.4-3.5,13c-1,2.6-2.2,5.4-3.9,7.8   c-2,2.7-4.6,4.8-7.1,6.9c-3.3,2.7-6.7,5.5-10.8,5.9C28.1,91,27.5,91,27,91C27,91,27,91,27,91z M54.8,57.4c0.1,0,0.3,0,0.4,0.1   c0.1,0.1,0.2,0.3,0.1,0.4c-0.1,0.2-0.4,0.4-0.6,0.4C54.7,58,54.7,57.7,54.8,57.4z M39.7,89.3c-0.1-0.1-0.1-0.2,0-0.3l0.2-0.2   c0,0,0.1-0.1,0.2-0.1c0.1,0,0.1,0,0.2,0.1c0,0,0.1,0.1,0.1,0.2c0,0.1,0,0.1-0.1,0.2L40,89.3C40,89.4,39.8,89.4,39.7,89.3z M61,67.6   c-0.2,1-0.5,2.1-0.6,3.2c0,0.4-0.1,0.8-0.1,1.1c0,0.8-0.1,1.5-0.3,2.3c-0.2,0.8-0.6,1.5-1.2,2.5c-1.7,2.5-4.1,4.5-6.3,6.3   c-1.3,1.1-2.8,2.4-4.4,3.4c-2.1,1.4-4.9,2.6-7.9,3.4c0,0,0.1,0,0.1-0.1l0.2-0.2c0.1-0.1,0.2-0.3,0.2-0.5c0-0.2-0.1-0.4-0.2-0.5   c-0.3-0.3-0.8-0.3-1.1,0l-0.2,0.2c-0.3,0.3-0.3,0.8,0,1.1c0.1,0.1,0.3,0.2,0.5,0.2c-2.9,0.8-6.1,1.2-9.1,1.2   c3.5-0.9,6.6-3.4,9.3-5.7c2.6-2.1,5.2-4.3,7.2-7c1.8-2.4,3-5.2,4-7.9c1.3-3.3,2.6-7.3,3.3-11.6c0.5,0,0.9-0.2,1.2-0.7   c0.2-0.4,0.1-0.8-0.2-1.1c-0.2-0.2-0.4-0.2-0.7-0.2c0.2-1.7,0.2-3.4,0.1-5.2c-0.3-4.7-2-9-4.6-12.3c0.7,0.6,1.3,1.2,1.8,1.6   c0.4,0.4,0.7,0.6,0.9,0.8c0.8,0.7,1.4,1.7,2.1,2.7c0.3,0.5,0.6,1,1,1.5c0.3,0.3,0.5,0.7,0.8,1c0.5,0.6,0.9,1.1,1.3,1.8   c0.6,1.1,0.9,2.4,1.3,3.6l1.3,5.3c0.5,2.2,1.1,4.4,0.9,6.7C61.5,65.3,61.3,66.5,61,67.6z M61.8,60c-0.1-0.3-0.1-0.7-0.2-1   c0.1,0,0.2,0,0.2,0c0.1,0,0.2,0,0.3-0.1l0.1-0.1l0.7,0.8l-0.2,0.1C62.4,59.9,62.1,60,61.8,60z M92.4,43.3c-0.2,0.5-0.3,0.9-0.3,1.1   c-0.3,1.1-0.9,2-1.6,3c-0.3,0.5-0.6,1-0.9,1.5c-0.2,0.4-0.4,0.8-0.6,1.1c-0.3,0.7-0.7,1.3-1.1,1.9c-0.7,1-1.8,1.8-2.7,2.6l-4.3,3.4   c-1.7,1.4-3.6,2.8-5.7,3.6c-1.1,0.4-2.2,0.6-3.3,0.8c-1,0.2-2.1,0.4-3.2,0.8c-0.4,0.1-0.7,0.3-1.1,0.4c-0.7,0.3-1.4,0.6-2.2,0.7   c-0.8,0.1-2.2,0-3.3-0.2c0.1-1.2-0.1-2.4-0.3-3.5c0.4,0,0.7-0.1,1-0.3l0.5-0.3c0.1,0,0.1-0.1,0.1-0.2c0-0.1,0-0.2-0.1-0.2l-1.1-1.3   c-0.1-0.1-0.1-0.1-0.2-0.1c-0.1,0-0.2,0-0.2,0.1l-0.2,0.2c-0.1,0-0.3,0-0.4,0c-0.1-0.3-0.2-0.7-0.2-1l-0.6-2.6c0.2,0,0.4,0,0.7,0   c1.6,0,3.4-0.1,4-0.1c5.5-0.3,12.5-1.1,18.7-4.5c4.1-2.2,7.4-5.6,9.3-9.3C92.8,41.8,92.6,42.7,92.4,43.3z"></path><path d="M55.6,16.3c-0.1-0.2-0.1-0.3-0.2-0.5c-0.1-0.2-0.3-0.3-0.4-0.4c0,0-0.1-0.1-0.1-0.1c-0.2-0.2-0.6-0.3-0.9-0.1   c-0.3,0.2-0.5,0.5-0.4,0.9c-0.1,0.2-0.1,0.4,0,0.6c0.1,0.4,0.3,0.8,0.5,1.2c0.4,0.8,0.8,1.6,1.4,2.4c0.1,0.2,0.4,0.3,0.6,0.3   c0.1,0,0.2,0,0.3,0c0.3-0.1,0.5-0.4,0.5-0.8C56.7,18.6,56.3,17.4,55.6,16.3L55.6,16.3z M56,20c-0.1,0-0.2,0-0.3-0.1   c-0.5-0.7-1-1.5-1.3-2.3c-0.2-0.4-0.3-0.8-0.5-1.1c0-0.1,0-0.2,0-0.2c0.1-0.1,0.1-0.2,0-0.2l0-0.1c0-0.1,0-0.2,0.1-0.3   c0,0,0.1,0,0.1,0c0.1,0,0.1,0,0.2,0.1c0.1,0.1,0.1,0.1,0.2,0.2c0,0,0.1,0.1,0.1,0.1c0.1,0,0.1,0.1,0.2,0.1c0.1,0.1,0.1,0.3,0.2,0.4   l0.1,0.1c0.6,0.9,0.9,2,1,3.1C56.2,19.9,56.1,20,56,20z"></path><path d="M60.6,23.2c-0.2-0.5-0.5-1.1-0.8-1.6c-0.2-0.4-0.8-0.8-1.4-0.8c-0.4,0-0.7,0.3-0.8,0.7c-0.1,0.2,0,0.4,0,0.6   c0,0,0,0.1,0.1,0.1l0.5,0.8c0.3,0.9,0.8,1.6,1.5,2.3l0.3,0.4c0.1,0.2,0.4,0.4,0.7,0.4c0.1,0,0.2,0,0.3-0.1c0.3-0.2,0.5-0.5,0.4-0.9   C61.2,24.4,60.9,23.8,60.6,23.2z M60.7,25.4c-0.1,0-0.2,0-0.3-0.1l-0.3-0.5c0,0,0,0,0,0c-0.6-0.6-1.1-1.4-1.4-2.2c0,0,0,0,0,0   l-0.5-0.8c0-0.1,0-0.1,0-0.2c0.1-0.2,0.2-0.3,0.4-0.3c0.3,0,0.7,0.3,0.8,0.5c0.3,0.5,0.6,1,0.8,1.6c0.3,0.6,0.5,1.2,0.7,1.8   C60.8,25.3,60.8,25.4,60.7,25.4z"></path><path d="M59.4,15.3C59.4,15.3,59.4,15.4,59.4,15.3c0.1,0.6,0.5,0.8,0.7,0.9c0.1,0,0.2,0.1,0.3,0.1c0.2,0,0.3-0.1,0.5-0.2   c0.2-0.2,0.3-0.4,0.3-0.7l-0.3-1.9c-0.1-0.4-0.4-0.6-0.8-0.7c-0.4,0-0.7,0.2-0.8,0.6c-0.1,0.2-0.1,0.5-0.1,0.7c0,0,0,0,0,0.1   c-0.1,0.3-0.2,0.6,0,0.9C59.2,15.2,59.3,15.3,59.4,15.3z M59.7,14.4C59.7,14.4,59.7,14.4,59.7,14.4c0.1-0.1,0.1-0.2,0.1-0.2   c0-0.2,0-0.4,0.1-0.6c0-0.1,0.1-0.2,0.2-0.2c0,0,0,0,0,0c0.1,0,0.2,0.1,0.2,0.2l0.3,1.9c0,0.1,0,0.2-0.1,0.2   c-0.1,0.1-0.2,0.1-0.2,0c-0.2-0.1-0.3-0.2-0.3-0.5c0-0.1-0.1-0.2-0.2-0.3c0,0-0.1-0.1-0.1-0.1C59.6,14.7,59.6,14.5,59.7,14.4z"></path><path d="M61.8,21l-0.3-1.4c-0.1-0.4-0.5-0.7-0.9-0.6c-0.1,0-0.1,0-0.2,0.1c-0.3,0.2-0.5,0.5-0.4,0.9l0.3,1.4c0,0.1,0,0.1,0.1,0.2   c0.1,0.3,0.4,0.5,0.7,0.5c0.1,0,0.1,0,0.2,0c0.1,0,0.1,0,0.2-0.1C61.7,21.7,61.9,21.3,61.8,21z M61.1,21.4c-0.1,0-0.2,0-0.3-0.2   l-0.3-1.4c0-0.1,0-0.2,0.1-0.3l-0.1-0.2l0.2,0.2c0.1,0,0.2,0.1,0.2,0.2l0.3,1.4C61.3,21.2,61.3,21.3,61.1,21.4z"></path><path d="M54.6,24.8l-1.9-0.7c-0.4-0.1-0.8,0.1-1,0.5c-0.1,0.2-0.1,0.4,0,0.6c0.1,0.2,0.2,0.3,0.4,0.4l0.9,0.3c0,0,0.1,0,0.1,0   l1,0.4c0.1,0,0.2,0,0.3,0c0.3,0,0.6-0.2,0.7-0.5C55.2,25.4,55,25,54.6,24.8z M54.6,25.6c0,0.1-0.2,0.2-0.3,0.1l-1-0.4   c0,0,0,0-0.1,0l-0.8-0.3c-0.1,0-0.1-0.1-0.1-0.1c0-0.1,0-0.1,0-0.2c0-0.1,0.1-0.2,0.2-0.2c0,0,0.1,0,0.1,0l1.9,0.7   C54.5,25.4,54.6,25.5,54.6,25.6z"></path><path d="M51.7,21.3c-0.4-0.4-0.9-0.7-1.4-0.9c-0.3-0.1-0.6-0.1-0.8,0.1c-0.2,0.2-0.3,0.5-0.2,0.8c0,0.1,0,0.1,0.1,0.2   c0.2,0.5,0.7,0.9,1.2,1c0.1,0,0.2,0,0.3,0c0.1,0,0.2,0.1,0.3,0.1c0.2,0,0.4-0.1,0.6-0.3C52,22.1,52,21.6,51.7,21.3z M51.3,22.1   c-0.1,0.1-0.2,0.1-0.3,0c0,0-0.1,0-0.1,0c0,0-0.1,0-0.1,0c0,0-0.1,0-0.1,0c-0.4-0.1-0.7-0.4-0.9-0.7c0,0,0-0.1,0-0.1   c0-0.1,0-0.2,0.1-0.2c0.1-0.1,0.2-0.1,0.3,0c0.5,0.2,0.9,0.4,1.2,0.8C51.4,21.8,51.4,22,51.3,22.1z"></path><path d="M48.4,22.2l-0.1-0.1c-0.1-0.2-0.3-0.3-0.5-0.4l-1.1-0.3c-0.1,0-0.1,0-0.2-0.1c-0.4-0.1-0.8,0.1-1,0.5c-0.1,0.2,0,0.4,0,0.5   c0.1,0.2,0.3,0.4,0.5,0.4l0.2,0.1c0.4,0.1,0.9,0.4,1.3,0.6c0.1,0.1,0.3,0.1,0.4,0.1c0.3,0,0.5-0.1,0.6-0.4   C48.9,22.9,48.8,22.4,48.4,22.2z M48.2,22.9C48.1,23,48,23.1,47.9,23c-0.4-0.3-0.9-0.5-1.4-0.7l-0.2-0.1c-0.1,0-0.1-0.1-0.1-0.1   c0,0,0-0.1,0-0.2c0-0.1,0.1-0.2,0.2-0.2c0,0,0,0,0.1,0c0.1,0,0.1,0,0.2,0.1l1.1,0.3c0.1,0,0.1,0.1,0.2,0.1c0,0.1,0.1,0.1,0.1,0.1   l0.2,0.1C48.2,22.7,48.3,22.8,48.2,22.9z"></path><path d="M47.3,23.8c-1-0.5-2.1-0.7-3.3-0.8c0,0-0.1,0-0.1,0c-0.4,0-0.7,0.3-0.8,0.7c0,0.1,0,0.3,0.1,0.4c0.1,0.3,0.4,0.4,0.6,0.5   c1,0.1,1.9,0.3,2.8,0.7c0.1,0,0.2,0.1,0.3,0.1c0.3,0,0.6-0.2,0.7-0.5c0.1-0.2,0.1-0.4,0-0.6C47.6,24.1,47.4,23.9,47.3,23.8z    M47.2,24.6c-0.1,0.1-0.2,0.2-0.3,0.1c-0.9-0.4-1.9-0.7-2.9-0.8c-0.1,0-0.2-0.1-0.2-0.1c0,0,0-0.1,0-0.1c0-0.1,0.1-0.2,0.3-0.2   c0,0,0,0,0,0c1.1,0.1,2.1,0.4,3.1,0.8c0.1,0,0.1,0.1,0.1,0.1C47.2,24.5,47.2,24.6,47.2,24.6z"></path><path d="M43.9,29.8l3-0.3c0.6,0.1,1.1,0.2,1.7,0.3c0.1,0,0.1,0,0.2,0c0.4,0,0.7-0.2,0.7-0.6c0.1-0.2,0-0.4-0.1-0.6   c-0.1-0.2-0.3-0.3-0.5-0.4c-0.2-0.1-0.4-0.1-0.6-0.1c-0.1-0.2-0.4-0.3-0.6-0.3l-1.9,0c-1-0.1-2-0.1-3.1,0c-0.1,0-0.1,0-0.2,0   c-0.2-0.1-0.3-0.1-0.5,0c-0.2,0.1-0.4,0.2-0.5,0.4c-0.1,0.2-0.1,0.4-0.1,0.6c0,0.1,0,0.1,0.1,0.2C42,29.6,42.8,30,43.9,29.8z    M42.2,28.4c0-0.1,0.1-0.1,0.1-0.1c0.1,0,0.1,0,0.2,0c0.1,0,0.2,0.1,0.3,0c0,0,0.1,0,0.1,0c1.1-0.1,2.1,0,3,0l1.9,0   c0.1,0,0.2,0.1,0.2,0.2c0,0.1,0.1,0.1,0.2,0.2c0.2,0,0.5,0.1,0.7,0.2c0.1,0,0.1,0.1,0.1,0.1c0,0.1,0,0.1,0,0.2   c0,0.1-0.2,0.2-0.3,0.2c-0.6-0.2-1.2-0.3-1.8-0.4c0,0,0,0,0,0c0,0,0,0,0,0l-3.1,0.3c-0.8,0.1-1.4-0.1-1.6-0.6c0,0,0-0.1,0-0.1   C42.1,28.6,42.1,28.5,42.2,28.4z"></path><path d="M52,31.6C52,31.6,52,31.6,52,31.6l2.4-0.2c0.4,0,0.7-0.4,0.7-0.8c0-0.4-0.4-0.7-0.8-0.7c0,0-0.1,0-0.1,0L51.9,30   c-0.4,0-0.7,0.4-0.7,0.8c0,0.1,0,0.2,0.1,0.3C51.4,31.4,51.7,31.6,52,31.6z M51.9,30.6l2.3-0.2c0.1,0,0.2,0.1,0.2,0.2   c0,0.1-0.1,0.2-0.2,0.3L52,31l0,0.3V31c-0.1,0-0.2-0.1-0.2-0.1c0,0,0-0.1,0-0.1C51.7,30.7,51.8,30.6,51.9,30.6z"></path><path d="M43.7,32.7c1.7,0,3.5-0.4,5.2-0.8c0.2,0,0.4-0.2,0.5-0.3c0.1-0.2,0.1-0.4,0.1-0.6c-0.1-0.4-0.5-0.7-0.9-0.6   c-1.4,0.3-2.8,0.7-4.2,0.7c-0.2-0.3-0.6-0.4-0.9-0.3c-0.3,0.1-0.6,0.2-0.9,0.2c-0.4,0-0.7,0.4-0.7,0.8c0,0.1,0,0.2,0.1,0.3   c0.1,0.2,0.3,0.4,0.6,0.4C42.9,32.7,43.3,32.7,43.7,32.7z M42.4,32c0,0,0-0.1,0-0.1c0-0.1,0.1-0.2,0.2-0.2c0.4,0,0.7-0.1,1.1-0.3   c0,0,0.1,0,0.1,0c0.1,0,0.2,0.1,0.2,0.2c0,0.1,0.1,0.2,0.3,0.2c1.4-0.1,3-0.4,4.4-0.8c0.1,0,0.3,0.1,0.3,0.2c0,0.1,0,0.1,0,0.2   c0,0.1-0.1,0.1-0.1,0.1c-1.7,0.4-3.5,0.8-5.1,0.8c-0.4,0-0.8,0-1.1-0.1C42.5,32.1,42.5,32.1,42.4,32z"></path><path d="M51.7,37.9c0.1,0,0.3,0,0.4-0.1l4.8-3.1c0.3-0.2,0.7-0.7,0.6-1.2c0-0.3-0.2-0.6-0.6-0.8c-0.4-0.2-0.9,0-1,0.4   c-0.1,0.1-0.1,0.2-0.1,0.4L55.2,34c0-0.1,0-0.1-0.1-0.1c-0.2-0.4-0.6-0.6-1-0.4l-1.5,0.7c-0.4,0.2-0.6,0.6-0.4,1   c0.1,0.2,0.3,0.3,0.5,0.4l-1.4,0.9c-0.3,0.2-0.4,0.6-0.3,1c0,0,0,0.1,0.1,0.1C51.2,37.8,51.4,37.9,51.7,37.9z M52.8,34.7l1.5-0.7   c0,0,0.1,0,0.1,0c0.1,0,0.2,0.1,0.2,0.1c0.1,0.1,0,0.3-0.1,0.3L53,35.1c-0.1,0.1-0.3,0-0.3-0.1C52.6,34.9,52.7,34.7,52.8,34.7z    M51.6,36.9l4.8-3c0.1-0.1,0.2-0.2,0.1-0.3c0-0.1,0-0.1,0-0.2c0-0.1,0.1-0.1,0.2-0.1c0,0,0.1,0,0.1,0c0.1,0.1,0.2,0.2,0.2,0.3   c0,0.3-0.2,0.5-0.4,0.7l-4.8,3.1c-0.1,0.1-0.3,0-0.3-0.1C51.4,37.1,51.5,37,51.6,36.9z"></path><path d="M59.7,38.5c0.1,0,0.1,0,0.2,0c0.2,0,0.3-0.1,0.4-0.2c1-1,1.6-2.2,1.8-3.6c0.1-0.4-0.1-0.7-0.5-0.8c-0.3-0.1-0.7,0-0.9,0.3   l-1.8,2.6c-0.1,0.1-0.2,0.3-0.2,0.6c0,0.2,0,0.3,0.1,0.5C58.9,38.2,59.3,38.5,59.7,38.5z M59.4,37l1.8-2.7c0-0.1,0.1-0.1,0.2-0.1   c0,0,0.1,0,0.1,0c0.1,0,0.2,0.1,0.1,0.3c-0.2,1.2-0.8,2.4-1.7,3.3c0,0-0.1,0.1-0.1,0.1c-0.2,0-0.5-0.1-0.6-0.3c0-0.1,0-0.2,0-0.2   C59.2,37.2,59.3,37.1,59.4,37z"></path><path d="M61.7,38.9c0-0.4-0.3-0.7-0.7-0.7c-0.4,0-0.7,0.2-0.8,0.5L59,42.4c-0.1,0.2,0,0.4,0,0.6c0,0.1,0.1,0.1,0.1,0.2   c0.1,0.2,0.4,0.3,0.6,0.3c0,0,0,0,0,0c0.9,0,1.5-0.7,1.8-1.4c0.2-0.6,0.2-1.3,0.2-1.8L61.7,38.9z M61.1,41.8   c-0.2,0.5-0.7,1-1.3,1.1l0,0.3v-0.3c-0.1,0-0.1,0-0.2-0.1c0,0,0,0,0,0c0-0.1,0-0.1,0-0.2l1.1-3.7c0-0.1,0.1-0.2,0.3-0.2   c0,0,0,0,0,0c0.1,0,0.2,0.1,0.2,0.2l0.1,1.3C61.2,40.7,61.2,41.3,61.1,41.8z"></path><path d="M75.5,24.1c0.1,0.3,0.4,0.5,0.7,0.5c0,0,0.1,0,0.1,0c2.1-0.3,4-1.4,5.3-3c0.1-0.1,0.2-0.3,0.2-0.5c0-0.4-0.2-0.7-0.5-0.9   c-0.1-0.1-0.2-0.1-0.4-0.1c-0.3-0.1-0.6-0.1-0.8,0l-3.6,2.5c0.2-0.1,0.3-0.3,0.5-0.5c0.3-0.1,0.5-0.3,0.5-0.6   c0.1-0.2,0.1-0.6-0.1-0.8c-0.2-0.3-0.6-0.4-0.9-0.3c-0.1,0-0.1,0-0.2,0.1l3-1.5c0.4-0.2,0.5-0.6,0.3-1c-0.2-0.4-0.6-0.8-1.1-0.9   c-0.6-0.2-1.4-0.1-2,0.3c-0.4,0.2-0.6,0.5-0.9,0.8l-0.1,0.1c-0.1,0.1-0.1,0.1-0.2,0.2c-0.1,0.1-0.2,0.2-0.3,0.2   c-0.1,0.1-0.1,0.1-0.2,0.1c-0.2,0.1-0.3,0.3-0.4,0.5c-0.2,0.3-0.3,0.5-0.4,0.8c-0.1,0.2,0,0.4,0,0.5c0,0.1,0.1,0.2,0.2,0.3   c0.1,0.1,0.3,0.2,0.5,0.2c-0.2,0.1-0.4,0.2-0.6,0.3c-0.7,0.3-1.4,0.7-2,1.2c-0.1,0.1-0.2,0.1-0.3,0.2c-0.1,0.1-0.1,0.1-0.2,0.2   c-0.3,0.2-0.3,0.6-0.2,0.9c0,0,0,0,0,0c0.1,0.3,0.4,0.4,0.7,0.4c0,0,0.1,0,0.1,0c1.1-0.1,2.1-0.5,3-1.1   C75.4,23.5,75.4,23.8,75.5,24.1z M80.4,20.6c0,0,0.1,0,0.1,0c0,0,0.1,0,0.1,0c0,0,0.1,0,0.1,0c0.1,0,0.2,0,0.2,0.1   c0.1,0.1,0.2,0.2,0.2,0.4c0,0.1,0,0.1-0.1,0.2c-1.2,1.5-3.1,2.5-5,2.8l0,0c-0.1,0-0.2-0.1-0.2-0.2c0-0.1,0-0.2,0.1-0.3L80.4,20.6z    M75,20.5C74.9,20.5,74.9,20.5,75,20.5c-0.1-0.1-0.1-0.2-0.1-0.2c0.1-0.3,0.2-0.5,0.3-0.7c0,0,0-0.1,0-0.1c0-0.1,0.1-0.2,0.1-0.2   c0.1-0.1,0.2-0.1,0.3-0.2c0.1-0.1,0.2-0.2,0.3-0.2c0.1-0.1,0.1-0.1,0.2-0.2l0.1-0.1c0.3-0.2,0.5-0.5,0.8-0.7   c0.3-0.2,0.7-0.3,1.1-0.3c0.2,0,0.3,0,0.5,0.1c0.3,0.1,0.6,0.3,0.7,0.6c0.1,0.1,0,0.3-0.1,0.3l-4,2C75.1,20.6,75,20.6,75,20.5z    M72.6,23.8L72.6,23.8c-0.1,0-0.2-0.1-0.2-0.1c0,0,0,0,0,0c0-0.1,0-0.2,0.1-0.3c0,0,0,0,0,0c0,0,0,0,0-0.1c0,0,0,0,0.1-0.1   c0.1-0.1,0.2-0.1,0.3-0.2c0.6-0.5,1.2-0.8,1.9-1.2c0.6-0.3,1.3-0.6,2-0.9c0.1,0,0.2,0,0.3,0.1c0.1,0.1,0.1,0.2,0,0.3   c0,0,0,0.1,0,0.1c0,0.1-0.1,0.2-0.2,0.2c0,0,0,0,0,0c0,0-0.1,0-0.1,0.1C75.6,22.9,74.1,23.6,72.6,23.8z"></path><path d="M67.7,19.3c0,0.1,0.1,0.2,0.1,0.2c0.1,0.2,0.3,0.2,0.6,0.2c0.1,0,0.3,0,0.4-0.1c1.5-0.9,2.7-2.3,3.3-4   c0.1-0.3,0-0.7-0.3-0.9c-0.3-0.2-0.7-0.2-1,0.1c-1.2,1.1-2.2,2.3-3.1,3.7C67.6,18.7,67.6,19,67.7,19.3z M68.2,18.8   c0.9-1.3,1.9-2.5,3-3.6c0,0,0.1-0.1,0.2-0.1c0,0,0.1,0,0.1,0c0.1,0.1,0.1,0.2,0.1,0.3c-0.6,1.5-1.7,2.8-3.1,3.7   c-0.1,0.1-0.2,0-0.3,0c0,0,0,0,0-0.1C68.2,19,68.2,18.9,68.2,18.8z"></path><path d="M65.6,18.7c0.1,0.2,0.4,0.2,0.6,0.2c0.1,0,0.2,0,0.3,0c0.4-0.1,0.9-0.5,0.9-1.5c0.2-0.7,0.4-1.5,0.4-2.3   c0-0.3-0.2-0.7-0.5-0.8c-0.3-0.1-0.7,0-0.9,0.3c-0.5,0.7-0.7,1.6-0.6,2.5l0,0.2c-0.1,0.2-0.2,0.5-0.3,0.7c-0.1,0.2-0.1,0.4,0,0.6   C65.5,18.6,65.6,18.7,65.6,18.7z M66,18.1c0.1-0.3,0.2-0.5,0.3-0.8c0,0,0-0.1,0-0.1l0-0.2c-0.1-0.8,0.1-1.5,0.5-2.1   c0-0.1,0.1-0.1,0.2-0.1c0,0,0.1,0,0.1,0c0.1,0,0.2,0.1,0.2,0.2c-0.1,0.8-0.2,1.5-0.4,2.2c0,0,0,0.1,0,0.1c0,0.9-0.4,1-0.5,1.1   c-0.1,0-0.2,0-0.3-0.1c0,0,0,0,0-0.1C66,18.2,66,18.2,66,18.1z"></path><path d="M64.8,24.1c0.1,0.1,0.2,0.1,0.4,0.1c0.2,0,0.4-0.1,0.5-0.2c1-1,2-2.1,2-3.6c0-0.3-0.2-0.6-0.5-0.7   c-0.3-0.1-0.6-0.1-0.8,0.1c-1,0.9-1.7,2.1-2,3.4c0,0.2,0,0.4,0,0.5C64.6,23.9,64.7,24,64.8,24.1z M66.8,20.2c0,0,0.1-0.1,0.2-0.1   c0,0,0.1,0,0.1,0c0.1,0,0.1,0.1,0.1,0.2c0,1.3-0.9,2.3-1.9,3.2c-0.1,0.1-0.2,0.1-0.3,0c0,0-0.1-0.1-0.1-0.1c0,0,0-0.1,0-0.2   C65.3,22.2,65.9,21.1,66.8,20.2z"></path><path d="M79.3,28.9c0.1,0,0.2,0,0.3,0l2.7-1c0.4-0.1,0.6-0.5,0.5-0.9c-0.1-0.4-0.5-0.6-0.9-0.6c-1,0.2-2,0.6-3,1.1   c-0.3,0.2-0.5,0.6-0.3,1C78.7,28.7,79,28.9,79.3,28.9z M79.2,27.9c0.9-0.5,1.8-0.9,2.8-1c0.1,0,0.2,0.1,0.2,0.2   c0,0.1,0,0.2-0.1,0.3l-2.7,1c-0.1,0-0.2,0-0.3-0.1C79,28.1,79.1,28,79.2,27.9z"></path><path d="M76.8,30.3c0.4,0.9,1.4,1.4,2.6,1.4c0.4,0,0.8,0,1.1-0.1c0.3-0.1,0.7-0.2,1-0.3c0.4-0.1,0.8-0.3,1.2-0.4c0.3,0,0.6,0,0.9,0   c0.4,0,0.7-0.3,0.7-0.7c0-0.4-0.3-0.8-0.7-0.8c-0.4-0.1-0.8,0-1.1,0l-0.4,0c-1.6,0-3.2-0.1-4.7-0.3c-0.3,0-0.5,0.1-0.7,0.3   c-0.2,0.2-0.2,0.5-0.1,0.7C76.8,30.2,76.8,30.3,76.8,30.3z M77.3,29.7c0-0.1,0.1-0.1,0.2-0.1c0,0,0,0,0,0c1.6,0.2,3.2,0.3,4.8,0.3   l0.4,0c0.4-0.1,0.7-0.1,1,0c0.1,0,0.2,0.1,0.2,0.2c0,0.1-0.1,0.2-0.2,0.2c-0.3,0-0.6,0-1,0c-0.4,0.1-0.9,0.2-1.3,0.4   c-0.3,0.1-0.6,0.2-1,0.3c-0.3,0.1-0.7,0.1-1,0.1c-1,0-1.8-0.4-2.2-1.1c0,0,0-0.1-0.1-0.1C77.2,29.9,77.3,29.8,77.3,29.7z"></path><path d="M82.8,28.7C82.8,28.7,82.8,28.7,82.8,28.7c0.2,0.3,0.4,0.5,0.7,0.5c0.1,0,0.2,0,0.3-0.1l2.1-0.9c0.2-0.1,0.3-0.2,0.4-0.4   c0.1-0.2,0-0.4,0-0.6L86,26.6c-0.1-0.2-0.3-0.4-0.5-0.4c-0.2,0-0.5,0-0.7,0.2c-0.6,0.5-1.2,1-1.8,1.4   C82.7,27.9,82.6,28.3,82.8,28.7z M83.3,28.2c0.7-0.4,1.3-0.9,1.9-1.4c0,0,0.1-0.1,0.2-0.1c0,0,0,0,0,0c0.1,0,0.1,0.1,0.2,0.1   l0.2,0.5c0,0.1,0,0.2,0,0.2c0,0.1-0.1,0.1-0.1,0.1l-2.1,0.9c-0.1,0-0.2,0-0.3-0.1C83.2,28.4,83.2,28.2,83.3,28.2z"></path><path d="M84.1,31.3c-0.1,0-0.2,0-0.4,0c-0.4,0-0.7,0.3-0.8,0.7c0,0.1,0,0.3,0.1,0.4c0.1,0.3,0.4,0.4,0.7,0.5c0.1,0,0.3,0,0.4,0   c1,0,1.9-0.2,2.8-0.5c0.2-0.1,0.3-0.2,0.4-0.4c0.1-0.2,0.1-0.4,0-0.6c0,0,0,0,0-0.1c-0.2-0.4-0.6-0.5-1-0.4   C85.6,31.2,84.9,31.3,84.1,31.3z M86.8,31.5c0,0.1,0,0.1,0,0.2c0,0.1-0.1,0.1-0.1,0.1c-0.9,0.4-2,0.5-3,0.5c-0.1,0-0.2-0.1-0.2-0.1   c0,0,0-0.1,0-0.1c0-0.1,0.1-0.2,0.3-0.2c0,0,0,0,0,0c0.9,0.1,1.9-0.1,2.8-0.5C86.6,31.4,86.8,31.4,86.8,31.5z"></path><path d="M69.1,30.4c0.1,0.3,0.4,0.5,0.7,0.5c0,0,0.1,0,0.1,0c1-0.1,2-0.3,3-0.5c0,0,0,0.1-0.1,0.1c-0.1,0.2,0,0.4,0,0.5   c0.1,0.2,0.3,0.4,0.5,0.4c0.6,0.2,1.2,0.3,1.8,0.3c0.3,0,0.6,0,0.9-0.1c0.2,0,0.4-0.1,0.5-0.3c0.1-0.2,0.2-0.4,0.1-0.6   c-0.1-0.4-0.5-0.7-0.9-0.7c-0.6,0.1-1.1,0-1.7-0.1c0.4-0.1,0.9-0.3,1.3-0.4c0.2-0.1,0.4-0.2,0.4-0.4c0.1-0.2,0.1-0.4,0-0.6   c-0.1-0.4-0.6-0.6-1-0.5c-1.7,0.6-3.4,1-5.2,1.2c-0.4,0-0.7,0.4-0.7,0.9C69,30.3,69.1,30.3,69.1,30.4z M75.9,30.6   c0.1,0,0.2,0.1,0.2,0.2c0,0.1,0,0.1,0,0.2c0,0.1-0.1,0.1-0.2,0.1c-0.8,0.1-1.7,0.1-2.4-0.2c-0.1,0-0.1-0.1-0.1-0.1c0,0,0-0.1,0-0.2   c0-0.1,0.1-0.2,0.2-0.2c0,0,0,0,0.1,0c0.5,0.1,1,0.2,1.5,0.2C75.4,30.7,75.6,30.7,75.9,30.6z M69.8,29.9c1.8-0.2,3.6-0.6,5.3-1.2   c0,0,0,0,0.1,0c0.1,0,0.2,0.1,0.2,0.2c0,0.1,0,0.1,0,0.2c0,0.1-0.1,0.1-0.1,0.1c-1.7,0.6-3.6,1-5.4,1.2l0,0c-0.1,0-0.2-0.1-0.2-0.1   c0,0,0,0,0-0.1C69.6,30,69.6,29.9,69.8,29.9z"></path><path d="M78.5,37.3c0.8,0.4,1.7,0.7,2.5,0.9c-1.9-0.3-3.7-0.7-5.5-1.3c-0.4-0.1-0.8,0-0.9,0.4c-0.1,0.2-0.1,0.5,0,0.7   c0.1,0.1,0.2,0.2,0.3,0.3c1.4,0.9,3.5,2,5.8,2c0.8,0,1.5-0.1,2.2-0.4c0.3-0.1,0.6-0.5,0.5-0.8c0-0.2-0.1-0.3-0.2-0.4   c0.2,0,0.4,0.1,0.7,0.1c0,0,0.1,0,0.1,0c0.3,0,0.6-0.2,0.7-0.5c0.1-0.3,0-0.7-0.3-0.9c-1.6-1-3.5-1.5-5.4-1.5l-0.2,0   c-0.4,0-0.7,0.3-0.7,0.6c0,0.2,0,0.3,0.1,0.5C78.2,37.1,78.4,37.2,78.5,37.3z M82.7,39.4c-0.7,0.2-1.3,0.3-2.1,0.3   c-2.2,0-4.2-1-5.5-1.9c0,0-0.1-0.1-0.1-0.1c0-0.1,0-0.1,0-0.2c0-0.1,0.1-0.1,0.2-0.1c0,0,0.1,0,0.1,0c2.4,0.8,4.8,1.3,7.3,1.5   c0.1,0,0.2,0.1,0.2,0.2C82.9,39.2,82.8,39.3,82.7,39.4z M78.9,36.4l0.2,0c1.8,0,3.6,0.5,5.1,1.4c0.1,0.1,0.1,0.2,0.1,0.3   c0,0.1-0.1,0.2-0.2,0.2l0,0c-1.8-0.2-3.5-0.7-5.2-1.4c-0.1,0-0.1-0.1-0.1-0.1c0,0,0-0.1,0-0.1C78.6,36.4,78.7,36.4,78.9,36.4z"></path><path d="M68.8,34.8c1.8,1,3.8,1.5,5.8,1.5c0.2,0,0.5,0,0.7,0c0.4,0,0.7-0.3,0.7-0.7c0-0.4-0.2-0.7-0.5-0.8c-2-0.7-4.2-1.2-6.3-1.4   c-0.4,0-0.7,0.2-0.8,0.5c-0.1,0.2,0,0.4,0,0.5C68.5,34.6,68.6,34.7,68.8,34.8z M68.9,34c0-0.1,0.1-0.2,0.2-0.2c0,0,0,0,0,0   c2.1,0.2,4.2,0.7,6.2,1.4c0.1,0,0.2,0.1,0.2,0.3c0,0.1-0.1,0.2-0.2,0.2c-2.1,0.1-4.4-0.4-6.3-1.4c-0.1,0-0.1-0.1-0.1-0.1   C68.9,34.1,68.9,34.1,68.9,34z"></path><path d="M76.7,39.7c-0.3-0.1-0.7,0.1-0.9,0.4c-0.1,0.2-0.1,0.5,0,0.7c0,0.1,0.1,0.2,0.2,0.2c1,0.9,2.2,1.6,3.5,1.9   c0.1,0,0.1,0,0.2,0c0.3,0,0.5-0.2,0.7-0.4c0.2-0.3,0.1-0.7-0.1-0.9C79.2,40.7,78,40,76.7,39.7z M79.8,42.3   c-0.1,0.1-0.2,0.1-0.3,0.1c-1.2-0.3-2.3-0.9-3.2-1.8c0,0,0,0-0.1-0.1c0-0.1,0-0.1,0-0.2c0-0.1,0.1-0.1,0.2-0.1c0,0,0,0,0.1,0   c1.2,0.3,2.3,0.9,3.2,1.8C79.9,42.1,79.9,42.2,79.8,42.3z"></path><path d="M73.2,38.2c-0.3-0.3-0.8-0.3-1.1-0.1c-0.2,0.2-0.3,0.6-0.2,0.9c0,0.1,0.1,0.1,0.1,0.2l5,5.5c0.1,0.2,0.4,0.3,0.6,0.3   c0.2,0,0.4-0.1,0.5-0.2c0.2-0.1,0.2-0.3,0.3-0.5c0-0.2-0.1-0.4-0.2-0.6L73.2,38.2z M77.8,44.4c-0.1,0.1-0.2,0.1-0.3,0l-5-5.5   c0,0,0,0,0-0.1c0-0.1,0-0.2,0.1-0.3c0,0,0.1-0.1,0.2-0.1c0.1,0,0.1,0,0.2,0.1l5,5.5c0,0,0.1,0.1,0.1,0.2   C77.8,44.3,77.8,44.3,77.8,44.4z"></path><path d="M68.7,42.3l1.6,3.5c0.1,0.3,0.4,0.5,0.7,0.5c0.1,0,0.1,0,0.2,0c0.4-0.1,0.6-0.5,0.6-0.8c-0.2-1.2-0.6-2.4-1.2-3.5   c-0.4-0.6-0.8-0.8-1.1-0.8c-0.1,0-0.1,0-0.2,0c-0.2,0-0.4,0.2-0.5,0.4C68.7,41.8,68.7,42.1,68.7,42.3z M69.2,41.9   c0-0.1,0.1-0.1,0.2-0.1c0,0,0.1,0,0.1,0c0.2,0,0.5,0.2,0.7,0.5c0.6,1,1,2.1,1.1,3.3c0,0.1-0.1,0.2-0.2,0.3c-0.1,0-0.2,0-0.3-0.1   l-1.6-3.5C69.2,42,69.2,41.9,69.2,41.9z"></path><path d="M65,35.9c0.9,1.1,1.6,2.3,2.2,3.6c0.1,0.3,0.4,0.5,0.7,0.5c0.1,0,0.2,0,0.3-0.1c0.4-0.2,0.6-0.6,0.4-1   c-0.5-1.5-1.3-2.9-2.4-4c-0.3-0.3-0.8-0.3-1.1-0.1c-0.3,0.2-0.3,0.6-0.2,0.9C65,35.8,65,35.8,65,35.9z M65.5,35.2   c0.1-0.1,0.3-0.1,0.3,0c1,1.1,1.8,2.4,2.3,3.9c0,0.1,0,0.3-0.1,0.3c-0.1,0-0.3,0-0.3-0.1c-0.6-1.3-1.4-2.6-2.2-3.7l-0.2,0.2   l0.2-0.2C65.4,35.4,65.4,35.3,65.5,35.2z"></path><path d="M65,41.6c0.1,0.1,0.2,0.3,0.3,0.3c0.1,0.1,0.3,0.1,0.4,0.1c0.1,0,0.2,0,0.3-0.1l0.7-0.3c0.3-0.1,0.5-0.5,0.5-0.8   c-0.1-0.8-0.4-1.6-0.9-2.2c-0.2-0.3-0.6-0.4-0.9-0.3c-0.3,0.1-0.5,0.4-0.5,0.8l0.1,2.2C65,41.4,65,41.5,65,41.6z M65.5,38.9   C65.6,38.9,65.6,38.9,65.5,38.9c0.2,0,0.2,0,0.3,0.1c0.4,0.6,0.7,1.3,0.8,2c0,0.1,0,0.2-0.1,0.3l-0.7,0.3c-0.1,0-0.2,0-0.2,0   c0,0-0.1-0.1-0.1-0.1c0,0,0-0.1,0-0.1l-0.1-2.2C65.4,39,65.4,38.9,65.5,38.9z"></path><path d="M68.3,43.8c-0.2-0.4-0.6-0.6-1-0.4c-0.2,0.1-0.3,0.2-0.4,0.4c-0.1,0.2-0.1,0.4,0,0.6l0.9,2c0.1,0.3,0.4,0.5,0.7,0.5   c0.1,0,0.2,0,0.3-0.1c0.2-0.1,0.3-0.2,0.4-0.4c0.1-0.2,0.1-0.4,0-0.6L68.3,43.8z M68.8,46.2c0,0.1-0.1,0.1-0.1,0.1   c-0.1,0.1-0.3,0-0.3-0.1l-0.9-2c0-0.1,0-0.1,0-0.2c0-0.1,0.1-0.1,0.1-0.1c0,0,0.1,0,0.1,0c0.1,0,0.2,0.1,0.2,0.1l0.9,2   C68.8,46.1,68.8,46.1,68.8,46.2z"></path><path d="M65,46.8c0.1,0.3,0.4,0.5,0.7,0.5c0,0,0.1,0,0.1,0c0.4,0,0.7-0.4,0.7-0.8l-0.1-1.8c0-0.4-0.4-0.7-0.8-0.7c0,0,0,0-0.1,0   c-0.4,0-0.7,0.4-0.7,0.8l0.1,1.8C64.9,46.6,65,46.7,65,46.8z M65.6,44.5c0.1,0,0.2,0.1,0.2,0.2l0.1,1.8c0,0.1-0.1,0.2-0.2,0.3   l0,0.3v-0.3c-0.1,0-0.2-0.1-0.2-0.1c0,0,0-0.1,0-0.1l-0.1-1.8C65.3,44.6,65.4,44.5,65.6,44.5z"></path><path d="M61.8,29.4c0.2,0.6,0.2,0.9-0.1,1.1c-0.1,0-0.1,0.1-0.1,0.2c0,0.1,0,0.2,0.1,0.2c0.5,0.5,1.1,0.8,2,0.8c0,0,0,0,0,0   c0.6,0,1.1-0.4,1.3-1l0.3-1.1c0.1-0.5-0.1-1-0.6-1.2l-0.1-0.1c0-0.4-0.1-0.7-0.4-1c-0.4-0.5-1.1-0.7-1.7-0.4c-0.7,0.3-1,0.9-1,1.6   C61.6,28.8,61.7,29.1,61.8,29.4z M62.8,27.4c0.4-0.2,0.8-0.1,1,0.3c0.2,0.2,0.3,0.5,0.2,0.8c0,0.1,0,0.2,0.2,0.3l0.3,0.1   c0.2,0.1,0.3,0.3,0.2,0.5l-0.3,1.1c-0.1,0.3-0.4,0.6-0.8,0.6v0.3l0-0.3c-0.6,0-1-0.2-1.4-0.4c0.3-0.4,0.2-1,0-1.5   c-0.1-0.2-0.2-0.5-0.2-0.7C62.1,28,62.3,27.6,62.8,27.4z"></path><path d="M70.2,59.8L69.7,60c-0.4,0.2-0.6,0.6-0.4,1c0.1,0.3,0.4,0.5,0.7,0.5c0.1,0,0.2,0,0.3-0.1l0.5-0.2c0.2-0.1,0.3-0.2,0.4-0.4   c0.1-0.2,0.1-0.4,0-0.6C71.1,59.8,70.6,59.6,70.2,59.8z M70.8,60.6c0,0.1-0.1,0.1-0.1,0.1l-0.5,0.2c-0.1,0.1-0.3,0-0.3-0.1   c-0.1-0.1,0-0.3,0.1-0.3l0.5-0.2c0,0,0.1,0,0.1,0c0.1,0,0.2,0.1,0.2,0.1C70.8,60.5,70.8,60.5,70.8,60.6z"></path><path d="M33.5,82.1c0.3-0.6,0.2-1.4,0-2.1c-0.6-2.5-1.4-5.2-2.2-7.8c-0.8-2.6-1.5-5.2-2.2-7.7c0.1-0.1,0.1-0.2,0.1-0.3   c0.6,1.7,1.2,3.6,1.7,5.4c0.7,2,1.3,4,1.9,6c0.3,1,0.7,2,1.3,2.9c0.7,1,1.8,1.6,2.8,1.7c0,0,0,0,0,0c0.1,0,0.2,0,0.2-0.1l3.8-4.4   c0.7-0.7,1.3-1.5,1.8-2.5c0.5-1.1,0.6-2.2,0.3-3.1c0,0,0-0.1-0.1-0.1c-1.3-1.2-2.9-2-4.4-2.8l-8.4-4.1c0-0.1,0.1-0.1,0.1-0.2   c2.3,0.7,4.2,1.7,6.3,2.8c1.9,1,3.8,1.9,6,2.7c0.8,0.3,1.3,0.4,1.7,0.4c0.2,0,0.3,0,0.4-0.1c0.5-0.2,0.8-0.7,1.1-1.2   c1.3-2.3,2-5,2.1-7.6c0-0.3,0-0.6-0.1-0.8c-0.2-0.6-0.9-0.8-1.3-0.9c-2.6-0.6-5.4,0.1-7.8,0.7c-1.3,0.3-2.7,0.7-4.1,1   c-1,0.2-1.9,0.5-2.9,0.7c0-0.1,0-0.2,0-0.2c0,0,0,0,0,0c4.2-1.3,8.5-2.2,12.8-2.7c1.1-0.1,2.8-0.3,3.6-1.5c0.3-0.5,0.5-1.1,0.5-1.7   c0.7-5.1-0.6-9.4-3.6-11.5c-0.7-0.5-1.4-0.8-2-0.7c-1.5,0.1-2.3,1.7-2.8,2.5c-1.6,2.9-4.1,7.1-6.8,10.6c-0.4,0.5-0.8,1-1.2,1.4   c-0.7,0.8-1.3,1.5-1.9,2.4c0,0,0,0.1,0,0.1c0,0-0.1-0.1-0.1-0.1c3.4-4.4,6.9-9,9.5-14.1c0.4-0.8,0.8-1.7,0.9-2.7   c0.1-1.1-0.3-2.1-1-2.7c-0.5-0.4-1.1-0.5-1.7-0.6l-4.5-1c-0.7-0.2-1.4-0.3-2,0.3c-0.3,0.4-0.4,0.9-0.4,1.2   c-0.4,3.4-0.9,6.8-1.4,10.1c-0.3,2.5-0.7,4.9-1,7.4c0,0,0,0,0,0c0,0-0.1,0.1-0.1,0.1c0.2-1.9,0.5-3.8,0.7-5.7   c0.3-2.4,0.6-5,0.9-7.5l0.1-0.4c0.1-0.8,0.3-1.9,0.1-2.6c-0.2-0.8-0.5-1.7-1.4-2c-0.7-0.3-1.4-0.1-2.1,0c-1.8,0.4-3.6,1.1-5.2,2.1   c-0.6,0.4-1.3,0.8-1.5,1.5c-0.3,0.9,0.1,1.8,0.5,2.7c0.8,1.7,1.3,3.5,1.9,5.3c0.8,2.7,1.7,5.4,3.2,7.7l-0.9-0.1c0,0,0-0.1,0-0.1   c-1.7-3.6-3.2-7.3-4.2-11.2c-0.1-0.5-0.3-1.1-0.6-1.6c-0.4-0.6-1.1-0.9-1.7-0.8c-0.6,0.1-1,0.5-1.3,1c-1,1.2-2,2.5-2.9,3.9   c-1.1,1.5-2,3.2-2,5c0,0.1,0.1,0.2,0.2,0.2c3.9,1.4,8,2.9,11.5,5.1c-0.1,0.2-0.2,0.5-0.4,0.7c-3.1-1.6-6.3-3.1-9.5-4.4   c-1.7-0.7-2.9-0.7-3.6,0.1c-0.4,0.5-0.5,1.1-0.6,1.6l0,0.1c-0.2,0.8-0.4,1.6-0.6,2.4c-0.2,0.7-0.4,1.5-0.6,2.3   c-0.4,2-0.3,3.6,0.2,4.9c0.1,0.3,0.3,0.6,0.6,0.8c0.2,0.1,0.5,0.2,0.7,0.2c0.3,0,0.6-0.1,1-0.2c4.5-1.5,8.9-3.3,13.3-5.2l0,0   c-0.2,0.1-0.5,0.2-0.7,0.4c-0.4,0.2-0.9,0.5-1.3,0.7c-1.9,0.9-3.9,1.7-5.8,2.5c-1.9,0.8-3.9,1.6-5.8,2.5c-0.5,0.2-1.1,0.5-1.4,1   c-0.6,0.8-0.6,1.9,0,3.3c0.6,1.5,1.5,3,2.5,4.3c0.4,0.5,1.1,1.2,2,1.2c0,0,0,0,0,0c0.7,0,1.2-0.5,1.7-0.9c4.4-3.8,8-8.6,10.6-13.9   c0,0,0.1,0.1,0.1,0.1c-0.5,0.5-0.8,1.3-1,2l-0.1,0.3c-1,2.6-2.9,4.7-4.8,6.8c-1.8,2-3.6,4-4.7,6.5c-0.1,0.3-0.3,0.7-0.2,1.1   c0.1,0.3,0.3,0.6,0.5,0.9c1.2,1.4,3,2.3,4.8,2.3c0,0,0,0,0,0c0.3,0,0.7,0,1-0.2c0.5-0.2,0.9-0.7,1.1-1c1.5-2.1,1.9-4.8,2.2-7.3   c0.2-1.6,0.4-3.2,0.9-4.6l0.2-0.6c0.6-1.7,1.2-3.7,1.1-5.4c0.1,0,0.2,0,0.3,0c0,1.9-0.6,4.1-1.3,6.6c-1,3.5-1.6,7-1.8,10.6   c0,0.2,0,0.6,0.1,0.8c0.1,0.2,0.4,0.4,0.6,0.5c0.7,0.3,1.5,0.5,2.3,0.5c1.3,0,2.6-0.4,3.9-0.7C32.2,83.2,33.1,82.9,33.5,82.1z    M32.7,72.1c0.1,0,0.1,0,0.2,0c0.1,0,0.1,0,0.1,0c0.2,0.1,0.4,0.3,0.4,0.5l0.8,1.8c0,0.1,0,0.1,0,0.2c0,0.1-0.1,0.1-0.1,0.1   c-0.1,0.1-0.3,0-0.3-0.1l-0.8-1.8c0,0,0,0,0,0c0-0.1-0.1-0.1-0.2-0.1c-0.1,0-0.2-0.1-0.2-0.1C32.6,72.3,32.6,72.1,32.7,72.1z    M42.7,70.4c0.3,0.8,0.2,1.7-0.3,2.6c-0.4,0.9-1.1,1.6-1.7,2.3l-3.8,4.3c-0.8-0.1-1.6-0.6-2.2-1.5c-0.6-0.8-0.9-1.8-1.2-2.8   c-0.2-0.6-0.4-1.3-0.6-1.9l0.6,1.3c0.1,0.3,0.4,0.5,0.7,0.5c0.1,0,0.2,0,0.3-0.1c0.2-0.1,0.3-0.2,0.4-0.4c0.1-0.2,0.1-0.4,0-0.6   L34,72.3c-0.1-0.2-0.3-0.6-0.7-0.7c-0.2-0.1-0.5-0.1-0.8,0c-0.1,0-0.1,0.1-0.2,0.2c-0.2-0.8-0.5-1.5-0.7-2.3   c-0.6-1.9-1.2-3.8-1.8-5.6c0.1,0,0.2-0.1,0.3-0.1l8.5,4.1C39.9,68.5,41.5,69.3,42.7,70.4z M34.8,60.7c1.4-0.4,2.8-0.7,4.1-1   c2.4-0.6,5-1.3,7.6-0.7c0.5,0.1,0.8,0.3,0.9,0.6c0.1,0.2,0.1,0.4,0.1,0.6c-0.1,2.6-0.8,5.1-2,7.4c-0.2,0.4-0.4,0.8-0.8,0.9   c-0.1,0.1-0.6,0-1.7-0.3c-2.2-0.8-4.1-1.7-5.9-2.7c-2-1-4.1-2.1-6.4-2.8l0-0.1c0-0.3,0.1-0.6,0.2-0.8C32.1,61.3,33.4,61,34.8,60.7z    M32.8,57.2c0.4-0.5,0.8-0.9,1.2-1.4c2.7-3.5,5.2-7.7,6.8-10.6c0.6-1,1.3-2.2,2.4-2.2c0.5,0,1,0.2,1.6,0.6c2.8,2,4.1,6.2,3.4,11   c-0.1,0.5-0.2,1.1-0.5,1.5c-0.6,0.9-1.9,1.1-3.2,1.3c-4.4,0.5-8.7,1.4-12.9,2.7c0,0,0,0,0,0c-0.1-0.2-0.3-0.4-0.5-0.5   c0,0-0.1,0-0.1-0.1c0,0,0,0,0,0C31.6,58.7,32.2,58,32.8,57.2z M30.3,50c0.5-3.3,0.9-6.8,1.4-10.1c0-0.4,0.1-0.7,0.3-0.9   c0.3-0.4,0.8-0.3,1.5-0.2l4.5,1c0.5,0.1,1.1,0.2,1.5,0.5c0.7,0.5,0.9,1.5,0.8,2.2c-0.1,0.9-0.5,1.7-0.9,2.5   c-2.5,4.9-5.9,9.4-9.3,13.8c0,0,0-0.1,0-0.1c0-0.2,0-0.4-0.1-0.7c-0.1-0.3-0.5-0.6-0.8-0.6C29.6,54.9,29.9,52.4,30.3,50z    M28.7,58.3c0-0.2,0.1-0.4,0.3-0.5c0.2,0,0.4,0.1,0.5,0.3c0,0.1,0,0.3,0,0.4c0,0.2,0,0.4,0.1,0.7c0.2,0.4,0.6,0.6,0.9,0.8   c0.1,0,0.2,0.1,0.2,0.1c0.2,0.1,0.4,0.3,0.4,0.5c0,0.1,0,0.1,0,0.2c-0.1,0.1-0.2,0.1-0.3,0.2c-0.1,0-0.2,0.1-0.3,0.1   c-0.5,0.3-0.6,0.9-0.6,1.3l0,0.2c-0.1,0.4-0.3,0.8-0.6,0.8l-0.1,0c-0.2,0-0.3,0-0.4,0.1c-0.2,0.2-0.2,0.4-0.1,0.6   c0,0.3-0.2,0.5-0.5,0.6c-0.3,0.1-0.7,0-1,0c-0.5-0.7-1.4-1.2-2.3-1.1l0.1-1.2c0-0.1,0-0.2-0.1-0.4c-0.1-0.2-0.3-0.3-0.4-0.3   l-0.9-0.3c0.6-0.7,1-1.6,1.2-2.4l1.5,0.2c0.1,0,0.2,0,0.3-0.1c0.1-0.1,0.1-0.2,0-0.3c0,0,0-0.1,0-0.1c0.1-0.1,0.3-0.2,0.5-0.2   c0,0,0,0,0,0c0.2,0,0.3,0.1,0.5,0.1c0.3,0.1,0.5,0.1,0.8,0.1C28.7,58.5,28.8,58.4,28.7,58.3z M24.5,54.2c0.1,0.3,0.4,0.5,0.7,0.5   c0.1,0,0.2,0,0.3-0.1c0.2-0.1,0.4-0.3,0.5-0.5c-0.1,1.1,0,2.2,0.3,3.2c0.1,0.3,0.3,0.4,0.5,0.5c-0.2,0.1-0.4,0.2-0.6,0.4   c-1.3-2.1-2.2-4.5-2.9-6.9L24.5,54.2z M23.9,50.5C23.9,50.4,23.9,50.4,23.9,50.5c0.2,0,0.3,0,0.3,0.1l1.3,3.2c0,0.1,0,0.3-0.1,0.3   c-0.1,0-0.3,0-0.3-0.1l-1.3-3.2C23.7,50.6,23.8,50.5,23.9,50.5z M27.1,57.4l0,0.3L27.1,57.4c-0.1,0-0.2-0.1-0.2-0.2   c-0.5-1.6-0.5-3.3,0-4.8c0-0.1,0.1-0.2,0.2-0.2c0,0,0,0,0,0c0.1,0,0.2,0.1,0.2,0.2c0.1,1.6,0.1,3.2,0,4.7   C27.3,57.2,27.2,57.3,27.1,57.4z M21.2,45.2c-0.3-0.8-0.7-1.5-0.4-2.2c0.2-0.5,0.7-0.9,1.3-1.2c1.6-0.9,3.3-1.6,5.1-2   c0.6-0.1,1.2-0.2,1.8,0c0.5,0.2,0.8,0.7,1,1.6c0.1,0.6,0,1.7-0.1,2.4l-0.1,0.4c-0.3,2.6-0.6,5.1-0.9,7.5c-0.2,2.1-0.5,4.2-0.8,6.3   c-0.1,0-0.1,0-0.2-0.1c-0.1,0-0.3-0.1-0.5-0.1c0.3-0.1,0.5-0.4,0.5-0.7c0.1-1.6,0.1-3.2,0-4.8c0-0.4-0.3-0.7-0.7-0.7   c-0.4,0-0.7,0.2-0.8,0.6c-0.2,0.6-0.2,1.1-0.3,1.7c0-0.1,0-0.2-0.1-0.3l-1.3-3.2c-0.2-0.4-0.6-0.6-1-0.4c-0.3,0.1-0.5,0.4-0.5,0.8   c0,0,0-0.1,0-0.1C22.6,48.8,22,46.9,21.2,45.2z M12.7,54.4c0-1.6,1-3.2,1.9-4.5c0.9-1.3,1.9-2.6,2.9-3.8c0.3-0.4,0.6-0.7,1-0.8   c0.4-0.1,0.9,0.2,1.1,0.6c0.3,0.4,0.4,0.9,0.6,1.4c1,3.9,2.5,7.6,4.2,11.2c0,0,0,0,0,0c-0.1,0.3-0.2,0.6-0.3,0.8   C20.6,57.2,16.6,55.8,12.7,54.4z M11,67.9c-0.4,0.2-0.9,0.3-1.2,0.1c-0.2-0.1-0.3-0.3-0.4-0.5c-0.5-1.2-0.6-2.7-0.2-4.6   c0.1-0.4,0.2-0.9,0.3-1.3c0,0.1,0.1,0.2,0.2,0.2c0.6,0.6,1.5,0.9,2.3,0.9c0.4,0,0.8-0.1,1.2-0.2c0.3-0.1,0.5-0.4,0.5-0.8   c0-0.3-0.2-0.6-0.6-0.7l-0.1,0c-0.1-0.1-0.2-0.1-0.3-0.2c-0.5-0.2-1.1-0.3-1.7-0.4c-0.2-0.1-0.4-0.2-0.7-0.2   c-0.3,0-0.5,0.1-0.7,0.3c0.2-0.8,0.4-1.6,0.6-2.4l0-0.1c0.1-0.5,0.2-1,0.5-1.3c0.5-0.6,1.5-0.6,3,0c3.2,1.3,6.3,2.8,9.4,4.4   c-0.1,0.1-0.1,0.2-0.2,0.3c-0.1,0.1-0.1,0.2-0.1,0.3c0,0.1,0.1,0.2,0.2,0.2l1.2,0.4c0.1,0,0.1,0,0.1,0c0,0,0,0.1,0,0.1l0,0.4   C20.1,64.6,15.5,66.4,11,67.9z M10,61.1c0-0.1,0.1-0.1,0.1-0.1c0,0,0.1-0.1,0.1-0.1c0-0.1,0.1-0.1,0.2-0.1c0,0,0,0,0,0   c0.2,0,0.4,0.1,0.6,0.2c0,0,0.1,0,0.1,0c0.5,0,1.1,0.1,1.6,0.3c0,0,0.1,0,0.1,0.1c0,0,0.1,0.1,0.1,0.1l0.1,0c0.1,0,0.2,0.1,0.2,0.2   c0,0.1-0.1,0.2-0.2,0.2c-1,0.4-2.2,0.1-3-0.5C10,61.3,9.9,61.2,10,61.1z M20.2,71.9c-0.2,0.4-0.5,0.8-0.9,1c-0.1,0.1-0.2,0-0.3,0   c-0.1-0.1-0.1-0.2,0-0.3c1.1-1.5,2.2-3.2,3.1-4.8c0.3-0.5,0.5-0.9,0.5-1.4c0-0.1,0-0.1,0.1-0.2c0,0,0.1-0.1,0.1-0.1   c0.1,0,0.3,0.1,0.3,0.2c0,0.6-0.3,1.1-0.6,1.6c-0.7,1.2-1.5,2.4-2.3,3.6c0,0.1-0.1,0.1,0,0.2C20.2,71.8,20.2,71.8,20.2,71.9z    M20.7,72c0-0.1,0.1-0.1,0.1-0.2c0.8-1.2,1.6-2.3,2.3-3.5c0.4-0.6,0.7-1.2,0.7-1.9c0-0.4-0.3-0.7-0.8-0.8c-0.2,0-0.4,0.1-0.5,0.2   c-0.1,0.1-0.2,0.3-0.2,0.6c0,0.3-0.2,0.7-0.4,1.1c-1,1.6-2,3.2-3.1,4.8c-0.2,0.3-0.2,0.7,0.1,1c0.1,0.2,0.3,0.2,0.6,0.2   c0.2,0,0.3,0,0.4-0.1c0,0,0,0,0,0c-1.4,1.6-2.8,3.1-4.4,4.5c-0.4,0.4-0.9,0.7-1.4,0.7c-0.7,0-1.2-0.6-1.6-1c-1-1.3-1.8-2.7-2.4-4.2   c-0.5-1.3-0.5-2.2,0-2.8c0.3-0.4,0.8-0.6,1.2-0.8c1.9-0.9,3.9-1.7,5.8-2.5c1.9-0.8,3.9-1.6,5.8-2.5c0.4-0.2,0.9-0.4,1.3-0.7   c0.1-0.1,0.3-0.1,0.4-0.2c0,0,0,0.1,0.1,0.1c0.1,0.1,0.1,0.1,0.2,0.1c0.3-0.1,0.7,0,1,0.1C24.3,66.9,22.6,69.6,20.7,72z M25.8,70.4   L25.6,71c-0.5,1.5-0.7,3.2-0.9,4.7c-0.3,2.6-0.7,5.1-2.1,7.1c-0.2,0.3-0.5,0.7-0.9,0.8c-0.3,0.1-0.6,0.1-0.9,0.1   c-1.7,0-3.4-0.8-4.4-2.1C16.2,81.5,16,81.2,16,81c0-0.3,0.1-0.5,0.2-0.8c1-2.4,2.8-4.4,4.6-6.4c1.9-2.1,3.9-4.3,4.9-7l0.1-0.3   c0.2-0.7,0.5-1.4,1-1.8c0.1,0.1,0.1,0.1,0.1,0.2C27,66.6,26.4,68.6,25.8,70.4z M25.5,83.2c-0.1-0.1-0.3-0.2-0.4-0.3   c-0.1-0.1-0.1-0.3-0.1-0.5c0.2-3.6,0.8-7.1,1.8-10.5c0.7-2.5,1.3-4.8,1.3-6.7c0.1,0,0.2,0,0.2,0c0.1,0,0.2-0.1,0.3-0.1   c0.6,2.4,1.3,4.9,2.1,7.4c0.8,2.6,1.6,5.3,2.2,7.8c0.2,0.6,0.3,1.2,0,1.7c-0.3,0.6-1,0.9-1.7,1.1C29.2,83.5,27.2,84,25.5,83.2z"></path><path d="M15.9,63.7c-0.8-0.3-1.6-0.5-2.5-0.5c-0.3,0-0.7,0-0.9,0.1l-0.1,0c-0.2,0-0.3,0-0.5,0c-0.2,0-0.4,0.1-0.5,0.2   c-0.1,0-0.1,0-0.2,0.1c-0.3,0.1-0.5,0.4-0.5,0.8c0,0.3,0.3,0.6,0.6,0.7c0.1,0.2,0.3,0.3,0.5,0.3c0.4,0,0.8,0.1,1.3,0.1   c0.9,0,1.8-0.1,2.7-0.3c0.3-0.1,0.6-0.4,0.6-0.7C16.5,64.1,16.3,63.8,15.9,63.7z M15.7,64.7c-1.3,0.3-2.6,0.3-3.8,0.2   c-0.1,0-0.2-0.1-0.2-0.1c0-0.1-0.1-0.1-0.2-0.1l-0.1,0c-0.1,0-0.2-0.1-0.2-0.2c0-0.1,0.1-0.2,0.2-0.2c0.1,0,0.1,0,0.2-0.1   c0.1,0,0.1-0.1,0.1-0.1c0-0.1,0.1-0.1,0.2-0.1c0.2,0,0.3,0,0.5,0l0.1,0c0.3,0,0.6-0.1,0.9-0.1c0.8,0,1.6,0.1,2.3,0.4   c0.1,0,0.2,0.1,0.2,0.2C15.9,64.5,15.8,64.6,15.7,64.7z"></path><path d="M22.6,61.7c-0.7-0.1-1.4-0.1-2-0.1c-0.6,0-1.2,0-1.8,0.1c-0.5,0-1.1,0.4-1.3,0.9c-0.1,0.4,0,0.8,0.3,1   c0.1,0.1,0.3,0.2,0.5,0.2c0,0,0.1,0,0.1,0l0.9-0.1c0.9,0.1,1.8-0.1,2.7-0.4l0.5-0.1c0.4-0.1,0.7-0.4,0.7-0.8   C23.3,62.1,23,61.8,22.6,61.7z M22.6,62.7L22,62.8c0,0,0,0-0.1,0c-0.8,0.3-1.7,0.4-2.6,0.4c0,0,0,0-0.1,0l-1,0.1l0,0   c-0.1,0-0.1,0-0.2-0.1c-0.1-0.1-0.2-0.3-0.1-0.5c0.1-0.3,0.5-0.5,0.8-0.6c0.6-0.1,1.2-0.1,1.8-0.1c0.2,0,0.3,0,0.5,0   c0.5,0,0.9,0,1.4,0.1c0.1,0,0.2,0.1,0.2,0.2C22.8,62.6,22.7,62.7,22.6,62.7z"></path><path d="M14.3,58.4c-0.1-0.3-0.3-0.5-0.5-0.6L12,57.4c-0.4-0.1-0.7,0.1-0.9,0.4c-0.2,0.3-0.1,0.7,0.2,1c0.2,0.1,0.4,0.3,0.6,0.4   c0,0,0,0,0,0.1c0.2,0.2,0.5,0.4,0.8,0.4c0.1,0,0.2,0,0.4-0.1c0,0,0,0,0,0c0.4,0.1,0.8,0,1-0.2C14.3,59,14.4,58.7,14.3,58.4z    M13.7,58.8c-0.1,0.1-0.4,0.2-0.6,0.1c-0.1,0-0.2,0-0.3,0.1c-0.2,0.1-0.4,0-0.5-0.1c0,0,0,0,0-0.1c0-0.1-0.1-0.1-0.1-0.1   c-0.2-0.1-0.4-0.2-0.6-0.3c-0.1-0.1-0.1-0.2-0.1-0.3c0-0.1,0.1-0.1,0.2-0.1c0,0,0,0,0.1,0l1.8,0.5c0.1,0,0.1,0.1,0.2,0.2   C13.8,58.6,13.8,58.7,13.7,58.8z"></path><path d="M19,61.1c0.4,0,0.7-0.3,0.8-0.6c0-0.1,0-0.1,0-0.2c0-0.4-0.3-0.7-0.6-0.8l-1.4-0.3c-0.4-0.1-0.8,0.2-0.9,0.6   c0,0.1,0,0.1,0,0.2c0,0.4,0.3,0.7,0.6,0.8l1.4,0.3C18.9,61.1,19,61.1,19,61.1z M17.4,60c0-0.1,0.1-0.2,0.3-0.2c0,0,0,0,0,0l1.4,0.3   c0.1,0,0.2,0.1,0.2,0.3c0,0.1-0.1,0.2-0.2,0.2l-1.4-0.3C17.5,60.3,17.4,60.2,17.4,60z"></path><path d="M19.7,67.8l-1.4,1.5c-0.3,0.3-0.3,0.8,0,1.1c0.1,0.1,0.3,0.2,0.5,0.2c0.2,0,0.4-0.1,0.6-0.2l0.6-0.6c0,0,0,0,0,0l0.7-0.8   c0.3-0.3,0.3-0.8,0-1.1C20.5,67.5,20,67.5,19.7,67.8z M20.4,68.5l-0.7,0.8c0,0,0,0,0,0L19,69.9c-0.1,0.1-0.2,0.1-0.3,0   c-0.1-0.1-0.1-0.2,0-0.3l1.4-1.5c0,0,0.1-0.1,0.2-0.1c0.1,0,0.1,0,0.2,0.1C20.5,68.2,20.5,68.4,20.4,68.5z"></path><path d="M14.4,71.2c0.1,0,0.1,0,0.2,0c0.6,0,1.1-0.3,1.4-0.7c0.1-0.1,0.1-0.2,0.1-0.3c0.2-0.2,0.3-0.6,0.2-0.9   c-0.2-0.4-0.6-0.6-1-0.4c-0.5,0.2-1,0.5-1.4,0.9c-0.2,0.2-0.3,0.5-0.2,0.8C13.8,71,14.1,71.2,14.4,71.2z M14.3,70.3   c0.4-0.3,0.8-0.6,1.2-0.8c0,0,0.1,0,0.1,0c0.1,0,0.2,0.1,0.2,0.1c0,0.1,0,0.2-0.1,0.3c-0.1,0-0.1,0.1-0.1,0.2c0,0,0,0.1,0,0.1   c-0.3,0.3-0.7,0.5-1.2,0.5c-0.1,0-0.2-0.1-0.2-0.2C14.2,70.4,14.2,70.3,14.3,70.3z"></path><path d="M14.3,74.6l0.1-0.2c0.3-0.3,0.7-0.6,1.1-0.9c0.4-0.2,0.5-0.7,0.2-1.1c-0.2-0.3-0.7-0.5-1.1-0.2c0,0-0.1,0.1-0.1,0.1   c-0.2,0-0.4,0.1-0.5,0.3l-0.7,0.8c-0.1,0.1-0.1,0.1-0.2,0.2c-0.3,0.3-0.2,0.8,0.1,1.1c0.1,0.1,0.3,0.2,0.5,0.2   C14,74.9,14.2,74.8,14.3,74.6z M13.6,74c0-0.1,0.1-0.1,0.1-0.2l0.7-0.8c0-0.1,0.1-0.1,0.2-0.1c0,0,0,0,0,0c0.1,0,0.1,0,0.2,0   c0.1,0,0.1-0.1,0.2-0.1c0.1-0.1,0.3,0,0.3,0.1c0.1,0.1,0,0.3-0.1,0.3c-0.4,0.3-0.8,0.6-1.2,1l-0.1,0.2c-0.1,0.1-0.2,0.1-0.3,0   C13.5,74.2,13.5,74.1,13.6,74z"></path><path d="M15.7,74c-0.9,0.8-1.6,1.6-2.1,2.6c-0.1,0.2-0.1,0.4-0.1,0.6c0.1,0.2,0.2,0.4,0.4,0.5c0.1,0.1,0.2,0.1,0.4,0.1   c0.3,0,0.5-0.2,0.7-0.4c0.5-0.8,1.1-1.6,1.8-2.2c0.3-0.3,0.3-0.8,0.1-1.1C16.6,73.8,16.1,73.7,15.7,74z M16.4,74.8   c-0.8,0.7-1.4,1.5-1.9,2.4c-0.1,0.1-0.2,0.2-0.3,0.1c-0.1,0-0.1-0.1-0.1-0.1c0-0.1,0-0.1,0-0.2c0.5-0.9,1.2-1.8,2-2.5   c0,0,0.1-0.1,0.2-0.1c0.1,0,0.1,0,0.2,0.1C16.5,74.5,16.5,74.7,16.4,74.8z"></path><path d="M21.8,75.3c0.1-0.2,0.2-0.4,0.2-0.6c0-0.2-0.1-0.4-0.3-0.5c-0.3-0.3-0.8-0.2-1.1,0.1c-0.1,0.2-0.2,0.3-0.4,0.5   c-0.2,0-0.5,0.2-0.6,0.4l-0.8,1.7c-0.5,0.9-0.9,1.8-1.3,2.8c0,0.1,0,0.1,0,0.2c-0.1,0.1-0.2,0.3-0.2,0.4c0,0.2,0,0.4,0.1,0.6   c0.1,0.2,0.3,0.3,0.5,0.3c0.1,0,0.1,0,0.2,0c0.7,0,1.4-0.6,1.7-1.6l1-2.9C21.1,76.2,21.4,75.7,21.8,75.3z M20.3,76.5l-1,2.9   c-0.3,0.8-0.7,1.3-1.2,1.3c0,0-0.1,0-0.1,0c-0.1,0-0.1,0-0.2-0.1s-0.1-0.1,0-0.2c0-0.1,0-0.1,0.1-0.2C18,80.2,18,80.1,18,80   c0,0,0-0.1,0-0.1c0.4-1,0.8-1.9,1.3-2.8l0.8-1.7c0-0.1,0.2-0.1,0.2-0.1c0.1,0,0.2,0,0.2-0.1c0.1-0.2,0.3-0.4,0.4-0.5   c0-0.1,0.1-0.1,0.2-0.1c0,0,0.1,0,0.2,0.1c0,0,0.1,0.1,0.1,0.2c0,0.1,0,0.1-0.1,0.2C21,75.4,20.6,75.9,20.3,76.5   C20.3,76.4,20.3,76.5,20.3,76.5z"></path><path d="M25.1,69.7c-0.4-0.1-0.8,0.1-1,0.5l-0.8,2.2c-0.1,0.4,0.1,0.8,0.5,1c0.1,0,0.2,0,0.3,0c0.3,0,0.6-0.2,0.7-0.5l0.8-2.2   C25.7,70.3,25.5,69.9,25.1,69.7z M25,70.5l-0.8,2.2c0,0.1-0.2,0.2-0.3,0.1c-0.1,0-0.2-0.2-0.1-0.3l0.8-2.2c0-0.1,0.1-0.2,0.2-0.2   c0,0,0.1,0,0.1,0C25,70.3,25.1,70.4,25,70.5z"></path><path d="M23.2,74.9c-0.4-0.1-0.8,0.2-0.9,0.6c-0.3,1.4-0.6,2.9-1.1,4.1c-0.3,0.1-0.6,0.4-0.6,0.7c0,0.3-0.1,0.6-0.2,0.9   c-0.1,0.4,0,0.8,0.4,1c0.1,0.1,0.2,0.1,0.3,0.1c0.3,0,0.5-0.1,0.7-0.4c1.1-1.7,1.5-3.9,2-6.1c0-0.2,0-0.4-0.1-0.6   C23.6,75.1,23.4,74.9,23.2,74.9z M23.3,75.7c-0.4,2.2-0.9,4.3-1.9,6c-0.1,0.1-0.2,0.1-0.3,0.1c-0.1-0.1-0.2-0.2-0.1-0.3   c0.1-0.3,0.2-0.7,0.2-1.1c0-0.1,0.1-0.2,0.3-0.2c0.1,0,0.2-0.1,0.3-0.2c0.5-1.3,0.9-2.9,1.1-4.4c0-0.1,0.1-0.2,0.3-0.2   c0.1,0,0.1,0,0.2,0.1C23.3,75.6,23.3,75.6,23.3,75.7z"></path><path d="M30.5,75.4l-0.8-5.6c-0.1-0.4-0.3-0.9-0.8-1.1c-0.3-0.1-0.7,0-0.9,0.2c-0.3,0.3-0.3,0.8-0.1,1.1c0.1,0.1,0.2,0.2,0.3,0.2   l0.1,0.9c-0.1,0-0.1,0-0.2,0c-0.4,0-0.8,0.3-0.8,0.8v1.7c0,0.4,0.3,0.8,0.8,0.8c0.2,0,0.4-0.1,0.6-0.3l0.2,1.6   c0.1,0.4,0.4,0.7,0.8,0.7c0,0,0.1,0,0.1,0c0.2,0,0.4-0.1,0.5-0.3C30.4,75.8,30.5,75.6,30.5,75.4z M28.4,73.5c0,0.1-0.1,0.2-0.2,0.2   s-0.2-0.1-0.2-0.2v-1.7c0-0.1,0.1-0.2,0.2-0.2s0.2,0.1,0.2,0.2V73.5z M29.9,75.6c0,0.1-0.1,0.1-0.2,0.1l0,0c-0.1,0-0.2-0.1-0.2-0.2   l-0.8-5.6c0-0.1-0.1-0.2-0.2-0.2c-0.1,0-0.1,0-0.2-0.1c-0.1-0.1-0.1-0.2,0-0.3c0.1-0.1,0.2-0.1,0.3-0.1c0,0,0.1,0,0.1,0   c0.2,0.1,0.4,0.4,0.4,0.6l0.8,5.6C29.9,75.5,29.9,75.6,29.9,75.6z"></path><path d="M28.8,78.4C28.8,78.4,28.8,78.4,28.8,78.4c-0.4,0-0.7,0.3-0.8,0.7c0,0.2,0,0.4,0,0.6c-0.1-1-0.2-2-0.1-3   c0-0.4-0.3-0.8-0.7-0.8c0,0-0.1,0-0.1,0c-0.4,0-0.7,0.3-0.8,0.7c-0.1,1.2,0,2.5,0.2,3.7c0.1,0.4,0.4,0.6,0.8,0.6c0.1,0,0.1,0,0.1,0   c0.2,0,0.4-0.1,0.5-0.3c0-0.1,0.1-0.1,0.1-0.2c0,0.3,0.1,0.6,0.1,0.9c0.1,0.4,0.4,0.6,0.8,0.6h0c0.4,0,0.7-0.3,0.8-0.6   c0.2-0.8,0.1-1.6-0.1-2.4C29.5,78.7,29.2,78.4,28.8,78.4z M27.5,80.4c0,0.1-0.1,0.1-0.2,0.1c0,0,0,0,0,0c-0.1,0-0.2-0.1-0.2-0.2   c-0.2-1.2-0.3-2.4-0.2-3.6c0-0.1,0.1-0.2,0.3-0.2c0,0,0,0,0,0c0.1,0,0.2,0.1,0.2,0.3c-0.1,1.2,0,2.3,0.2,3.5   C27.6,80.2,27.5,80.3,27.5,80.4z M29.1,81.3c0,0.1-0.1,0.2-0.2,0.2v0.3l0-0.3c-0.1,0-0.2-0.1-0.2-0.2c-0.1-0.7-0.2-1.4-0.1-2.1   c0-0.1,0.1-0.2,0.2-0.2c0.1,0,0.2,0.1,0.2,0.2C29.3,79.8,29.3,80.6,29.1,81.3z"></path><path d="M31.2,77.1c-0.2-0.2-0.6-0.2-0.8,0c-0.3,0.2-0.4,0.5-0.4,0.8c0.1,1,0.5,1.9,1,2.7c0.1,0.2,0.4,0.4,0.7,0.4c0,0,0.1,0,0.1,0   c0.3,0,0.5-0.3,0.6-0.6C32.7,79.1,32.2,77.8,31.2,77.1z M31.8,80.2c0,0.1-0.1,0.2-0.2,0.2l0,0c-0.1,0-0.2,0-0.2-0.1   c-0.5-0.7-0.8-1.6-0.9-2.5c0-0.1,0-0.2,0.1-0.2c0,0,0.1,0,0.1,0c0,0,0.1,0,0.1,0C31.7,78.1,32.1,79.2,31.8,80.2z"></path><path d="M30.6,66l1.7,2.7c0.1,0.1,0.2,0.3,0.5,0.5c0.1,0.1,0.3,0.1,0.5,0.1c0.5,0,0.9-0.3,1-0.8c0-0.2,0-0.3,0-0.5   c-0.5-1.3-1.4-2.4-2.5-3.2c-0.3-0.2-0.7-0.2-1,0.1C30.5,65.3,30.5,65.7,30.6,66z M31.1,65.4c0,0,0.1-0.1,0.2-0.1c0,0,0.1,0,0.1,0   c1,0.7,1.9,1.7,2.3,2.9c0,0,0,0.1,0,0.1c-0.1,0.3-0.5,0.5-0.7,0.3c-0.1-0.1-0.2-0.2-0.3-0.3l-1.7-2.7C31,65.6,31.1,65.5,31.1,65.4z   "></path><path d="M37.5,71c0.1,0.1,0.3,0.2,0.5,0.2c0.1,0,0.1,0,0.2,0c0.2-0.1,0.4-0.2,0.5-0.5c0.3-0.8,0-1.7-0.6-2.2   c-0.5-0.5-1.1-0.7-1.5-0.9l-1.2-0.5c-0.3-0.1-0.8,0-0.9,0.3c-0.2,0.3-0.1,0.7,0.1,1L37.5,71z M34.9,67.7c0-0.1,0.1-0.1,0.2-0.1   c0,0,0.1,0,0.1,0l1.2,0.5c0.4,0.2,1,0.4,1.4,0.8c0.4,0.4,0.7,1,0.4,1.6c0,0.1-0.1,0.1-0.2,0.1c-0.1,0-0.2,0-0.2-0.1L35,68   C34.9,67.9,34.9,67.8,34.9,67.7z"></path><path d="M38.4,75.2C38.4,75.2,38.4,75.2,38.4,75.2c-0.2-0.3-0.7-0.8-1.2-1.3c-0.1-0.1-0.2-0.3-0.3-0.4c-0.1-0.3-0.3-0.6-0.5-0.9   c-0.1-0.2-0.2-0.3-0.2-0.5c-0.2-0.4-0.6-0.6-0.9-0.4c-0.2,0.1-0.4,0.2-0.5,0.4c-0.1,0.1-0.2,0.2-0.3,0.3c-0.1,0.3-0.1,0.6,0.1,0.9   c0.1,0.2,0.4,0.4,0.6,0.7c0.2,0.4,0.5,0.8,0.7,1.1c0.4,0.7,1,1.2,1.7,1.5c0.1,0,0.2,0.1,0.3,0.1h0c0.4,0,0.8-0.3,0.8-0.8   C38.7,75.6,38.6,75.4,38.4,75.2z M38,76.1L38,76.1c-0.1,0-0.1,0-0.1,0c-0.6-0.2-1.1-0.7-1.4-1.3c-0.3-0.3-0.5-0.7-0.7-1.1   c0,0,0,0,0-0.1c-0.3-0.3-0.5-0.6-0.6-0.7c-0.1-0.1-0.1-0.2,0-0.3c0-0.1,0.1-0.1,0.1-0.1c0.1,0,0.1-0.1,0.2-0.2   c0-0.1,0.1-0.1,0.2-0.2c0,0,0,0,0.1,0c0.1,0,0.2,0.1,0.2,0.1c0.1,0.2,0.2,0.4,0.3,0.6c0,0,0,0,0,0c0.2,0.2,0.3,0.5,0.4,0.8   c0.1,0.1,0.2,0.3,0.3,0.5c0.5,0.6,0.9,1.1,1.2,1.3c0,0,0.1,0.1,0.1,0.1c0,0,0,0,0.1,0c0.1,0,0.1,0.1,0.1,0.2   C38.2,76,38.1,76.1,38,76.1z"></path><path d="M38.7,72l-0.1,0c-0.2,0-0.4,0.1-0.5,0.2c-0.1,0.2-0.2,0.3-0.2,0.6c0,0.4,0.3,0.7,0.8,0.7l0.1,0c0.3,0.1,0.6,0.4,0.7,0.7   c0.1,0.3,0.4,0.5,0.7,0.5h0c0.3,0,0.6-0.2,0.7-0.5c0.3-0.7,0-1.5-0.7-1.9C39.8,72.2,39.4,72,39,72C38.9,72,38.7,72,38.7,72z    M38.9,72.6c0.4,0,0.7,0.1,0.9,0.2c0.5,0.3,0.7,0.8,0.5,1.3c0,0.1-0.1,0.1-0.2,0.1v0.3l0-0.3c-0.1,0-0.2-0.1-0.2-0.2   c-0.2-0.5-0.6-0.8-1-1c0,0-0.1,0-0.1,0c0,0,0,0,0,0l-0.1,0c-0.1,0-0.3-0.1-0.3-0.2c0-0.1,0-0.1,0.1-0.2c0,0,0.1-0.1,0.2-0.1l0.2,0   c0,0,0,0,0.1,0L38.9,72.6z"></path><path d="M23.6,47.8c0.1,0.1,0.3,0.2,0.5,0.2c0.1,0,0.2,0,0.3-0.1c0.2-0.1,0.3-0.2,0.4-0.4c0,0.2,0,0.4,0,0.6c0,0.8,0.1,1.6,0.3,2.3   c0,0.1,0,0.2,0.1,0.4c0,0.1,0.1,0.2,0.1,0.3c0.1,0.3,0.4,0.5,0.7,0.6h0c0.3,0,0.6-0.2,0.7-0.5c0.3-1,0.4-2.1,0.3-3.2   c0.1,0.3,0.4,0.5,0.7,0.5c0,0,0,0,0.1,0c0.3,0,0.6-0.2,0.7-0.6c0.6-2,0.4-4.2-0.5-6.1c-0.1-0.2-0.2-0.3-0.4-0.4   c-0.3-0.1-0.7-0.1-1,0.1c-0.1,0.1-0.2,0.2-0.2,0.3c-0.1,0.1-0.1,0.1-0.2,0.2c0,0,0,0,0,0c-0.4,0-0.7,0.2-0.9,0.5   c-0.5,0.7-0.5,1.6,0,2.3c0,0.1,0,0.1,0.1,0.2c0.1,0.1,0.2,0.1,0.3,0.1c0.2,0,0.5-0.2,0.6-0.4c0.1-0.1,0.1-0.3,0.2-0.4l0.4,2.4   c-0.1-0.2-0.1-0.4-0.2-0.6c0-0.3-0.1-0.6-0.4-0.7c-0.2-0.2-0.4-0.3-0.7-0.3c-0.3,0.1-0.6,0.4-0.6,0.7c0,0.1,0,0.1,0,0.2l-0.1-3.4   c0-0.4-0.4-0.7-0.8-0.7c-0.5,0-0.9,0.2-1.3,0.6c-0.4,0.5-0.6,1.2-0.5,1.9c0.1,0.4,0.2,0.8,0.3,1.2l0,0.1c0,0.1,0.1,0.2,0.1,0.2   c0,0.1,0.1,0.3,0.1,0.4c0,0.1,0,0.2,0,0.2c0,0.2,0.1,0.4,0.3,0.6C23.2,47.4,23.4,47.6,23.6,47.8z M25.7,44.5   C25.7,44.6,25.6,44.6,25.7,44.5C25.6,44.6,25.6,44.6,25.7,44.5c-0.5-0.4-0.5-1.2-0.1-1.7c0.1-0.1,0.3-0.2,0.4-0.3l0.1,0.6   C26.1,43.6,25.9,44.1,25.7,44.5z M26.6,42.3C26.6,42.3,26.6,42.3,26.6,42.3c0-0.1,0-0.1,0-0.1c0,0,0.1-0.1,0.1-0.1   c0-0.1,0.1-0.1,0.1-0.2c0.1-0.1,0.2-0.1,0.3-0.1c0.1,0,0.1,0,0.2,0c0.1,0,0.1,0.1,0.1,0.1c0.9,1.8,1,3.8,0.5,5.7   c0,0.1-0.1,0.2-0.2,0.2v0.3l0-0.3c-0.1,0-0.2-0.1-0.2-0.2l-0.8-4.6C26.6,42.8,26.6,42.6,26.6,42.3z M25.4,46c0-0.1,0.1-0.2,0.2-0.2   c0.1,0,0.2,0,0.2,0.1c0,0,0.1,0.1,0.1,0.1c0.1,0,0.1,0.2,0.1,0.3c0,0,0,0,0,0c0,0,0,0.1,0,0.1c0.6,1.5,0.6,3.1,0.2,4.6   c0,0.1-0.1,0.2-0.2,0.2v0.3l0-0.3c-0.1,0-0.2-0.1-0.2-0.2c0,0,0,0,0-0.1c0,0,0-0.1,0-0.1c0-0.1,0-0.2-0.1-0.4   c-0.2-0.7-0.3-1.5-0.3-2.2C25.3,47.4,25.3,46.7,25.4,46z M23.2,46.5c0-0.1,0-0.2-0.1-0.3c0-0.1-0.1-0.2-0.1-0.4   c0-0.1-0.1-0.2-0.1-0.3l0-0.1c-0.1-0.3-0.2-0.7-0.3-1c-0.1-0.5,0.1-1.1,0.4-1.5c0.2-0.3,0.5-0.4,0.8-0.4c0.1,0,0.3,0.1,0.3,0.2   l0.2,4.5c0,0.1,0,0.2-0.1,0.2c-0.1,0-0.2,0-0.3,0c-0.2-0.2-0.4-0.4-0.5-0.6c0,0-0.1-0.1-0.1-0.1C23.2,46.7,23.2,46.6,23.2,46.5z"></path><path d="M20.3,53.4c0.3-0.1,0.6-0.5,0.5-0.8c-0.2-1.8-1-3.4-2.2-4.7c-0.2-0.2-0.6-0.3-1-0.1c-0.3,0.2-0.4,0.6-0.3,0.9   c0.5,1.5,1.2,3,2.1,4.4c0.1,0.2,0.4,0.4,0.7,0.4C20.1,53.5,20.2,53.5,20.3,53.4z M17.8,48.6c0-0.1,0-0.2,0.1-0.3c0,0,0.1,0,0.1,0   c0.1,0,0.1,0,0.2,0.1c1.2,1.2,1.9,2.7,2.1,4.4c0,0.1-0.1,0.2-0.2,0.3c-0.1,0-0.2,0-0.3-0.1C19,51.5,18.3,50.1,17.8,48.6z"></path><path d="M18.2,53.1c-0.6-0.5-1.2-1-1.9-1.3c-0.3-0.2-0.7-0.1-0.9,0.1c-0.2,0.2-0.3,0.6-0.1,0.9c0.4,0.7,1.1,1.3,2,1.6l0.2,0   c0.2,0.2,0.4,0.3,0.5,0.5c0.1,0.2,0.4,0.3,0.6,0.3c0.1,0,0.2,0,0.2,0c0.3-0.1,0.5-0.4,0.5-0.7C19.3,54.1,19.1,53.5,18.2,53.1z    M18.7,54.5c0,0.1-0.1,0.2-0.2,0.2c-0.1,0-0.2,0-0.3-0.1c-0.2-0.2-0.4-0.4-0.6-0.6c0,0-0.1,0-0.1-0.1l-0.2-0.1   c-0.7-0.2-1.3-0.7-1.7-1.3c-0.1-0.1,0-0.2,0-0.3c0,0,0.1-0.1,0.2-0.1c0,0,0.1,0,0.1,0c0.7,0.4,1.3,0.8,1.8,1.3c0,0,0,0,0.1,0   C18.7,53.9,18.7,54.3,18.7,54.5z"></path><path d="M21.1,53.9c-0.3-0.1-0.6-0.1-0.9,0.1c-0.2,0.2-0.3,0.5-0.2,0.8c0.4,1.3,1.3,2.4,2.3,3.3c0.1,0.1,0.3,0.2,0.5,0.2   c0.2,0,0.3-0.1,0.5-0.1c0.3-0.2,0.4-0.6,0.3-0.9C23,55.9,22.4,54.6,21.1,53.9z M23,57.7c-0.1,0.1-0.2,0.1-0.3,0   c-1-0.8-1.7-1.8-2.1-3c0-0.1,0-0.2,0.1-0.3c0,0,0.1-0.1,0.2-0.1c0,0,0.1,0,0.1,0c1.2,0.6,1.7,1.8,2.2,3C23.1,57.5,23,57.7,23,57.7z   "></path><path d="M32.9,47.4L32.9,47.4C32.9,47.4,32.9,47.4,32.9,47.4c0.4,0,0.7-0.3,0.8-0.7l0.2-2.9c0-0.4-0.2-0.8-0.6-0.8   c-0.4-0.1-0.8,0.2-0.9,0.6c-0.3,1-0.3,2.1-0.2,3.1C32.2,47.1,32.5,47.4,32.9,47.4z M32.9,43.7c0-0.1,0.1-0.2,0.3-0.2c0,0,0,0,0,0   c0.1,0,0.2,0.1,0.2,0.3l-0.2,2.9c0,0.1-0.1,0.2-0.2,0.2l0,0.3l0-0.3c-0.1,0-0.2-0.1-0.2-0.2C32.6,45.7,32.6,44.7,32.9,43.7z"></path><path d="M33.1,48.6c-0.1,0.2-0.2,0.5,0,0.7c0.1,0.2,0.4,0.4,0.6,0.4c0.1,0,0.1,0,0.2,0c1.5,0,2.5-1.5,2.7-2.9   c0.1-0.3,0.1-0.7,0.1-1c0-0.5,0.1-0.9,0.2-1.2c0.1-0.3,0.2-0.5,0.3-0.8c0,0,0.1,0,0.1,0c0.1,0,0.3,0,0.4-0.1c0,0,0,0.1-0.1,0.1   c-0.1,0.2-0.1,0.4-0.1,0.6c0.1,0.2,0.2,0.4,0.4,0.5c0.1,0.1,0.2,0.1,0.4,0.1c0.3,0,0.6-0.2,0.7-0.4c0.5-1,0.8-2.1,0.9-3.2   c0-0.2-0.1-0.4-0.2-0.6c-0.1-0.2-0.3-0.2-0.5-0.2c0,0,0,0-0.1,0c-0.4,0-0.8,0.3-0.8,0.7c0,0.2,0,0.5-0.1,0.7c0-0.3,0-0.6,0-0.9   c0-0.3-0.1-0.7-0.3-1c-0.3-0.4-0.8-0.5-1.2-0.2c-0.1,0.1-0.1,0.1-0.1,0.2l0,2.5c-0.3,0-0.6,0.1-0.8,0.3c-0.2,0.3-0.4,0.7-0.4,1   C34.8,45.6,34,47.1,33.1,48.6z M38.9,41.4c0-0.1,0.1-0.2,0.2-0.2c0,0,0,0,0,0c0.1,0,0.1,0,0.2,0.1c0,0,0.1,0.1,0.1,0.2   c0,1-0.3,2-0.8,2.9c-0.1,0.1-0.2,0.2-0.3,0.1c-0.1,0-0.1-0.1-0.1-0.1c0-0.1,0-0.1,0-0.2C38.6,43.3,38.8,42.4,38.9,41.4z M37.5,40.6   c0.1,0.2,0.2,0.4,0.2,0.7c0,0.5,0,1,0,1.5c0,0.2-0.1,0.4-0.2,0.5c0,0-0.1,0.1-0.2,0.1l0,0c0-0.1,0-0.1-0.1-0.2c0,0,0-0.1,0-0.1   l0-2.6C37.3,40.4,37.5,40.5,37.5,40.6z M36,44.2c0.1-0.3,0.2-0.6,0.4-0.9c0-0.1,0.1-0.1,0.2-0.1c0,0,0.1,0,0.1,0c0,0,0,0,0.1,0   c0,0.1,0,0.1,0.1,0.2c0,0,0,0,0,0c-0.1,0.3-0.2,0.6-0.4,0.9c-0.1,0.4-0.2,0.9-0.2,1.4c0,0.4-0.1,0.7-0.1,1   c-0.2,1.3-1.1,2.6-2.4,2.4c-0.1,0-0.2-0.1-0.2-0.1c0-0.1,0-0.2,0-0.2C34.5,47.4,35.3,45.8,36,44.2z"></path><path d="M34.1,43.1c0.1,0.4,0.4,0.7,0.8,0.7c0,0,0.1,0,0.1,0c0.4,0,0.7-0.4,0.7-0.8l0-2.3c0-0.2-0.1-0.4-0.2-0.6   c-0.2-0.2-0.4-0.2-0.6-0.2l-0.6,0c-0.2,0-0.5,0.1-0.6,0.3c-0.1,0.2-0.2,0.4-0.1,0.7C33.8,41.6,34,42.3,34.1,43.1z M34.1,40.5   c0-0.1,0.1-0.1,0.2-0.1l0.5,0c0.1,0,0.2,0,0.2,0.1c0,0,0.1,0.1,0.1,0.2l0,2.3c0,0.1-0.1,0.2-0.2,0.2l0,0.3v-0.3   c-0.1,0-0.2-0.1-0.2-0.2c-0.1-0.8-0.3-1.5-0.5-2.3C34.1,40.6,34.1,40.5,34.1,40.5z"></path><path d="M30.5,56.8c0.1,0,0.2,0,0.2,0c0.3,0,0.6-0.2,0.7-0.5c0.3-1,0.6-1.9,0.8-2.9c0,0,0.1,0.1,0.1,0.1c0.1,0.1,0.3,0.2,0.5,0.2   c0.2,0,0.4-0.1,0.6-0.3c0.6-0.7,1-1.5,1.3-2.3c0.1-0.2,0-0.4-0.1-0.6c-0.1-0.2-0.3-0.3-0.5-0.4c-0.4-0.1-0.8,0.1-1,0.5   c-0.2,0.5-0.4,1.1-0.8,1.5c0.1-0.5,0.1-0.9,0.2-1.4c0-0.2,0-0.4-0.2-0.6c-0.1-0.2-0.3-0.3-0.5-0.3c-0.4-0.1-0.8,0.3-0.8,0.7   c-0.2,1.8-0.5,3.5-1.1,5.2c-0.1,0.2,0,0.4,0,0.6C30.2,56.6,30.3,56.8,30.5,56.8z M32.7,52.8c0.5-0.6,0.9-1.2,1.1-2   c0-0.1,0.1-0.2,0.2-0.2c0,0,0,0,0.1,0c0.1,0,0.1,0.1,0.1,0.1c0,0.1,0,0.1,0,0.2c-0.2,0.8-0.6,1.5-1.2,2.1c-0.1,0.1-0.2,0.2-0.3,0   c0,0-0.1-0.1-0.1-0.2C32.6,52.9,32.7,52.8,32.7,52.8z M30.5,56c0.6-1.7,0.9-3.5,1.1-5.3c0-0.1,0.1-0.2,0.3-0.2c0,0,0,0,0,0   c0.1,0,0.1,0,0.2,0.1c0,0,0.1,0.1,0.1,0.2c-0.2,1.8-0.6,3.7-1.1,5.4c0,0.1-0.2,0.2-0.3,0.2c-0.1,0-0.1-0.1-0.1-0.1   C30.5,56.1,30.5,56.1,30.5,56z"></path><path d="M34.2,59.1c0.2,0,0.3-0.1,0.5-0.2c1.8-1.4,3.2-3.3,4-5.4c0.1-0.3,0-0.7-0.3-0.9c-0.3-0.2-0.7-0.1-1,0.1   c-1.5,1.6-2.8,3.3-3.9,5.2c-0.2,0.3-0.1,0.7,0.2,1C33.8,59,34,59.1,34.2,59.1z M34,58.2c1.1-1.8,2.4-3.5,3.8-5.1   c0,0,0.1-0.1,0.2-0.1c0,0,0.1,0,0.1,0c0.1,0.1,0.1,0.2,0.1,0.3c-0.8,2-2.1,3.9-3.9,5.2c-0.1,0.1-0.2,0.1-0.3,0   C33.9,58.4,33.9,58.3,34,58.2z"></path><path d="M39.9,55c0.1,0,0.3,0,0.4-0.1c1.7-1,4.5-3.3,4.8-6.6c0-0.4-0.2-0.7-0.5-0.8c-0.2-0.1-0.3,0-0.5,0c0.1-0.2,0.3-0.4,0.4-0.6   c0.1-0.2,0.1-0.5,0-0.8c0.5,0.1,0.9,0.3,1.2,0.7c0.1,0.1,0.1,0.1,0.2,0.1c0,0,0,0,0,0c0.1,0,0.2-0.1,0.2-0.2c0.2-0.5,0.1-1-0.2-1.5   c-0.3-0.5-0.7-0.8-1.2-0.9c-1-0.2-2.1,0.7-2.1,1.7c0,0.1,0,0.2,0.1,0.2c-1.3,1.1-2.4,2.4-3.1,4c-0.1,0.3,0,0.7,0.3,0.9   c0.1,0.1,0.3,0.1,0.5,0.1c0.2,0,0.4-0.1,0.5-0.2c0.7-0.6,1.3-1.2,1.8-1.9c-1,1.6-2.2,3.1-3.5,4.5c-0.3,0.3-0.3,0.7,0,1   C39.5,54.9,39.7,55,39.9,55z M44.7,44.8c0.3,0.1,0.6,0.3,0.8,0.6c0.1,0.2,0.2,0.4,0.2,0.6c-0.5-0.3-1-0.5-1.6-0.5   c-0.2,0-0.5,0-0.7,0.1C43.6,45.1,44.1,44.7,44.7,44.8z M40.6,50.7c-0.1,0.1-0.2,0.1-0.3,0c-0.1-0.1-0.1-0.2-0.1-0.3   c0.7-1.7,1.9-3.1,3.4-4.2c0,0,0.1,0,0.1,0c0.1,0,0.1,0,0.2,0.1c0.1,0.1,0.1,0.2,0,0.3C43.1,48.1,42,49.5,40.6,50.7z M39.7,54   c1.7-1.8,3.2-3.8,4.4-6c0-0.1,0.1-0.1,0.2-0.1c0,0,0,0,0.1,0c0.1,0,0.2,0.1,0.2,0.2c-0.3,3.1-3,5.3-4.6,6.2c-0.1,0.1-0.2,0-0.3-0.1   C39.6,54.3,39.7,54.1,39.7,54z"></path><path d="M45.6,51.4c-1.3,0.5-2.4,1.3-3.2,2.4c-0.2,0.3-0.2,0.7,0,0.9c0.1,0.2,0.4,0.3,0.6,0.3c0.1,0,0.2,0,0.3-0.1   c1.2-0.5,2.3-1.3,3.2-2.4c0.2-0.3,0.2-0.7,0-0.9C46.3,51.4,45.9,51.3,45.6,51.4z M46,52c0.1,0.1,0.1,0.2,0,0.3   c-0.8,1-1.8,1.7-3,2.2c-0.1,0-0.2,0-0.3-0.1c-0.1-0.1-0.1-0.2,0-0.3c0.8-1,1.8-1.8,3-2.2c0,0,0.1,0,0.1,0C45.9,51.9,46,51.9,46,52z   "></path><path d="M39.8,57.9c0.1,0,0.2,0,0.2,0l7.1-2.3c0.2-0.1,0.4-0.2,0.5-0.4c0.1-0.2,0.1-0.4,0-0.6c-0.1-0.4-0.6-0.6-1-0.5l-7.1,2.3   c-0.2,0.1-0.4,0.2-0.5,0.4c-0.1,0.2-0.1,0.4,0,0.6C39.1,57.7,39.4,57.9,39.8,57.9z M39.6,57c0-0.1,0.1-0.1,0.1-0.1l7.1-2.3   c0,0,0,0,0.1,0c0.1,0,0.2,0.1,0.2,0.2c0,0.1,0,0.1,0,0.2C47,55,47,55,46.9,55l-7.1,2.3c-0.1,0-0.3,0-0.3-0.2   C39.5,57.1,39.5,57,39.6,57z"></path><path d="M41.5,62.1l3.9,0c0,0,0,0,0,0c0.4,0,0.7-0.3,0.8-0.7c0.1-0.4-0.2-0.7-0.5-0.9c-1.2-0.4-2.4-0.5-3.6-0.3   c-0.9,0.1-1.2,0.7-1.2,0.9c-0.1,0.2,0,0.5,0.1,0.7C41,62,41.2,62.1,41.5,62.1z M41.2,61.3c0.1-0.3,0.3-0.5,0.8-0.5   c0.3,0,0.6,0,0.9,0c0.9,0,1.7,0.1,2.5,0.4c0.1,0,0.2,0.1,0.2,0.3c0,0.1-0.1,0.2-0.2,0.2l-3.9,0c-0.1,0-0.1,0-0.2-0.1   C41.2,61.4,41.2,61.3,41.2,61.3z"></path><path d="M33.1,62.3c0.1,0.3,0.4,0.6,0.7,0.6c0.1,0,0.1,0,0.2,0c1.4-0.3,2.8-0.5,4.2-0.5c0.4,0,0.8-0.3,0.8-0.7   c0-0.4-0.3-0.8-0.7-0.8c-1.6-0.1-3.2,0-4.7,0.5C33.3,61.4,33,61.9,33.1,62.3z M33.8,61.8c1.1-0.4,2.3-0.6,3.5-0.6c0.3,0,0.7,0,1,0   c0.1,0,0.2,0.1,0.2,0.2c0,0.1-0.1,0.2-0.2,0.2c-1.5,0-2.9,0.2-4.3,0.5c-0.1,0-0.3,0-0.3-0.2C33.6,62,33.7,61.9,33.8,61.8z"></path><path d="M37.1,62.9c-0.3,0.1-0.6,0.4-0.6,0.7c0,0.3,0.2,0.7,0.5,0.8l2,0.8c0.1,0,0.2,0.1,0.3,0.1c0.2,0,0.3,0,0.4-0.1   c0.2-0.1,0.3-0.4,0.3-0.6l0-0.7c0-0.4-0.2-0.7-0.6-0.8C38.7,62.7,37.9,62.7,37.1,62.9z M39.5,63.7l0,0.7c0,0.1,0,0.1-0.1,0.2   c-0.1,0-0.1,0.1-0.2,0l-2-0.8c-0.1,0-0.2-0.1-0.2-0.2c0-0.1,0.1-0.2,0.2-0.2c0.3-0.1,0.6-0.1,0.9-0.1c0.4,0,0.8,0.1,1.2,0.2   C39.4,63.5,39.5,63.6,39.5,63.7z"></path><path d="M44.8,63.1h-2.2c-0.4,0-0.8,0.3-0.8,0.8c0,0.4,0.3,0.8,0.8,0.8h2.2c0.4,0,0.8-0.3,0.8-0.8C45.6,63.4,45.3,63.1,44.8,63.1z    M44.8,64.1h-2.2c-0.1,0-0.2-0.1-0.2-0.2s0.1-0.2,0.2-0.2h2.2c0.1,0,0.2,0.1,0.2,0.2S45,64.1,44.8,64.1z"></path><path d="M44.2,65.9l-1.6-0.6c-0.4-0.1-0.8,0.1-1,0.5c-0.1,0.2-0.1,0.4,0,0.6c0.1,0.2,0.2,0.3,0.4,0.4l1.6,0.6c0.1,0,0.2,0,0.3,0   c0.3,0,0.6-0.2,0.7-0.5c0.1-0.2,0.1-0.4,0-0.6C44.6,66.1,44.4,65.9,44.2,65.9z M44.2,66.7c0,0.1-0.2,0.2-0.3,0.1l-1.6-0.6   c-0.1,0-0.1-0.1-0.1-0.1c0-0.1,0-0.1,0-0.2c0-0.1,0.1-0.2,0.2-0.2c0,0,0.1,0,0.1,0l1.6,0.6c0.1,0,0.1,0.1,0.1,0.1   C44.2,66.5,44.2,66.6,44.2,66.7z"></path><path d="M27.6,59.5L27,60.1c-0.6-0.3-1.5-0.1-1.9,0.5c-0.5,0.6-0.3,1.6,0.3,2.1c0.4,0.3,0.9,0.4,1.3,0.5c0.6,0.1,0.9,0.2,0.9,0.5   c0,0.1,0.1,0.1,0.1,0.2c0,0,0.1,0,0.1,0c0,0,0.1,0,0.1,0c1.3-0.4,1.8-1.8,1.9-2.3c0-0.1,0-0.2-0.1-0.3L28,59.5   C27.9,59.4,27.7,59.4,27.6,59.5z M28.1,63.2c-0.2-0.5-0.8-0.6-1.3-0.7c-0.4-0.1-0.8-0.1-1.1-0.4c-0.4-0.3-0.5-0.9-0.2-1.3   c0.2-0.2,0.5-0.4,0.8-0.4c0.2,0,0.4,0,0.5,0.1c0.1,0.1,0.2,0.1,0.3,0l0.5-0.5l1.6,1.4C29.1,62.3,28.7,62.9,28.1,63.2z"></path><path d="M55.2,74.2c0-0.1-0.1-0.1-0.1-0.2C55,74,55,74,54.9,74l-1.6,0.5c-0.1,0-0.1,0.1-0.2,0.1c0,0.1,0,0.2,0,0.2l0.1,0.2   c-0.1,0.2-0.2,0.4-0.2,0.6c0,0.4,0.3,0.7,0.6,0.8c0.1,0.1,0.3,0.1,0.5,0.1c0.2,0,0.3,0,0.5-0.1l0.2-0.1c0.1,0,0.1-0.1,0.2-0.1   l0.1-0.2c0.3-0.4,0.4-0.9,0.3-1.4L55.2,74.2z M54.6,75.9L54.6,75.9L54.4,76c-0.1,0-0.4,0.1-0.5,0c-0.1-0.1-0.2-0.2-0.3-0.4   c0-0.1,0-0.2,0.1-0.3c0.1-0.1,0.1-0.2,0.1-0.3l0-0.1l1-0.3l0,0.3C54.8,75.2,54.8,75.6,54.6,75.9z"></path><path d="M49.4,80.3c-0.4,0.2-0.6,0.6-0.6,1c0,0,0,0.1,0,0.1c-0.1,0.1-0.2,0.3-0.2,0.5c0,0.4,0.4,0.8,0.8,0.8h0c0,0,0,0,0,0   c0.5,0,0.9-0.3,1.1-0.7c0.2-0.5,0.2-1-0.1-1.4C50.3,80.2,49.8,80.1,49.4,80.3z M50.2,81.7c-0.1,0.3-0.4,0.4-0.7,0.4l0,0.3l0-0.3   c-0.1,0-0.2-0.1-0.2-0.2c0-0.1,0-0.2,0.1-0.2c0.1-0.1,0.2-0.2,0.1-0.4c0,0,0-0.1,0-0.1c0-0.2,0.1-0.3,0.3-0.4c0.1,0,0.1,0,0.2,0   c0.1,0,0.2,0,0.3,0.1C50.3,81.1,50.3,81.4,50.2,81.7z"></path><path d="M58.8,67.2c-0.4,0-0.8,0.3-0.8,0.8v0.5c0,0.4,0.3,0.8,0.8,0.8s0.8-0.3,0.8-0.8V68C59.5,67.6,59.2,67.2,58.8,67.2z M59,68.5   c0,0.1-0.1,0.2-0.2,0.2c-0.1,0-0.2-0.1-0.2-0.2V68c0-0.1,0.1-0.2,0.2-0.2c0.1,0,0.2,0.1,0.2,0.2V68.5z"></path><path d="M68.7,16C68.7,16,68.8,16,68.7,16c1-0.2,1.7-1.1,1.8-2c0-0.1,0-0.2-0.1-0.2c-0.3-0.2-0.8-0.3-1.2-0.3   c-0.1,0-0.2,0.1-0.2,0.1c-0.3,0.7-0.5,1.4-0.6,2.1c0,0.1,0,0.2,0.1,0.2C68.6,16,68.7,16,68.7,16z M69.4,14c0.2,0,0.4,0,0.5,0.1   c-0.1,0.5-0.5,1-0.9,1.2C69.1,14.9,69.2,14.4,69.4,14z"></path><path d="M59.4,19c0,0,0.1,0.1,0.2,0.1c0,0,0.1,0,0.1,0c0.1-0.1,0.1-0.2,0.1-0.3c-0.1-0.3,0-0.7,0-1c0-0.3,0.1-0.6,0.1-0.8   c0-0.8-0.5-1.6-1.3-1.6c-0.1,0-0.2,0.1-0.3,0.2C57.9,16.7,58.4,18.2,59.4,19z M58.8,15.8c0.4,0.1,0.6,0.6,0.6,1.1   c0,0.3,0,0.5-0.1,0.8c0,0.2,0,0.3-0.1,0.5C58.8,17.5,58.6,16.6,58.8,15.8z"></path></g></svg>