<svg fill="#aa00dd" xmlns="http://www.w3.org/2000/svg" xmlns:xlink="http://www.w3.org/1999/xlink" version="1.1" x="0px" y="0px" viewBox="15 15 65 65" style="enable-background:new 0 0 95 95;" xml:space="preserve"><style type="text/css">
	.st0{clip-path:url(#d);}
	.st1{clip-path:url(#c);}
</style><g><defs><rect id="b" x="2" y="2" width="90" height="90"/></defs><clipPath id="d"><use xlink:href="#b" style="" overflow="visible"/></clipPath><g class="st0"><defs><rect id="a" x="2" y="2" width="90" height="90"/></defs><clipPath id="c"><use xlink:href="#a" style="" overflow="visible"/></clipPath><path class="st1" d="M63.6,53.5c-0.1,0.5-0.4,1.1-0.9,1.4c-0.5,0.2-1.1-0.2-1.5-0.5c-0.3-0.1-0.5,0.1-0.3,0.4     c0.4,0.7,1.3,1.3,2.2,0.9c0.8-0.4,1.1-1.2,1.2-2C64.2,53.3,63.7,53.1,63.6,53.5"/><path class="st1" d="M27.9,55c-0.1-0.1-0.3-0.2-0.4-0.3c-0.1-0.1-0.2-0.2-0.3-0.4c-0.1-0.1-0.1-0.3-0.2-0.5     c-0.1-0.2-0.2-0.4-0.3-0.6c-0.1-0.2-0.4-0.4-0.6-0.1c-0.3,0.6-0.2,1.2,0.2,1.7c0.3,0.4,1.2,0.8,1.6,0.4C28,55.2,28,55.1,27.9,55"/><path class="st1" d="M67.5,56.9c-0.1-0.7-0.5-1.6-1.2-1.9c-0.1-0.1-0.2,0.1-0.1,0.2c1,1.2,1.1,2.8,0.8,4.2     c-0.3,1.4-1.2,3-2.7,3.5c-0.2,0.1-0.1,0.3,0.1,0.3c1.8-0.1,2.7-2.1,3.1-3.6C67.7,58.7,67.7,57.7,67.5,56.9"/><path class="st1" d="M55.4,66.9c0-0.1-0.2-0.1-0.1,0c0.2,1,0.3,2.1,0.1,3.1c-0.3,1.1-1.1,1.8-2,2.4c-0.1,0.1,0,0.3,0.1,0.3     c1.2-0.3,2-1.3,2.3-2.4C56.1,69.2,55.9,67.9,55.4,66.9"/><path class="st1" d="M47,62.1c-2.1,1.7-4.6,3-7.4,2.8c-2.7-0.3-4.8-2.2-6.2-4.5c-0.1-0.1-0.2,0-0.2,0.1c1.2,2.6,3.3,4.8,6.3,5.2     c3,0.4,5.8-1.2,7.7-3.3C47.3,62.2,47.1,62,47,62.1"/><path class="st1" d="M53.4,59.1c-1.6-0.2-3.2-0.2-4.4-1.4c-1.1-1.1-1.4-2.9-1.3-4.4c0-0.1-0.2-0.2-0.3-0.1     c-0.2,1.7,0,3.5,1.2,4.8c1.2,1.3,3.2,1.7,4.8,1.4C53.6,59.3,53.5,59.1,53.4,59.1"/><path class="st1" d="M40.6,50.7c-0.7-0.1-1.4-0.1-2.1-0.4c-0.5-0.2-0.9-0.5-1.2-0.9c-0.3-0.4-0.6-0.9-0.9-1.3     c-0.3-0.5-0.6-1.1-1-1.4c-0.1-0.1-0.2,0-0.2,0.1c0.2,0.6,0.5,1.2,0.8,1.7c0.3,0.5,0.6,1,1,1.5c0.9,1,2.3,1.4,3.6,1.1     C40.8,50.9,40.7,50.7,40.6,50.7"/><path class="st1" d="M62.7,41.9c-0.1,0.7-0.4,1.2-0.9,1.6c-0.5,0.3-1,0.6-1.6,0.9c-0.1,0.1,0,0.2,0.1,0.2     c0.7-0.1,1.3-0.3,1.8-0.8c0.5-0.5,0.8-1.1,0.8-1.8C63,41.9,62.7,41.8,62.7,41.9"/><path class="st1" d="M45,74.4c-0.5,0.6-1,1.1-1.8,1.4c-0.7,0.2-1.3,0.2-2,0c-1.4-0.5-2.3-2-2.3-3.5c0-0.1-0.1-0.1-0.1,0     c-0.1,0.8-0.1,1.6,0.4,2.4c0.4,0.7,1.1,1.2,1.8,1.5c1.6,0.6,3.6,0,4.3-1.6C45.3,74.5,45.1,74.3,45,74.4"/><path class="st1" d="M35.1,72.2c-0.7-0.2-1.5,0-2.1-0.4c-0.7-0.4-0.9-1.3-0.8-2c0,0-0.1-0.1-0.1,0c-0.2,0.8-0.2,1.7,0.5,2.3     c0.6,0.5,1.8,0.7,2.5,0.4C35.2,72.3,35.2,72.2,35.1,72.2"/><path class="st1" d="M25.5,59.1c-1.2,0.1-2.5,0.1-3.5-0.7c-1.1-0.8-1.2-2.2-0.7-3.4c0-0.1-0.1-0.1-0.1-0.1     c-0.3,0.6-0.6,1.4-0.5,2.1c0.1,0.6,0.4,1.2,0.9,1.6c1.1,0.9,2.7,1.1,4,0.7C25.7,59.3,25.6,59.1,25.5,59.1"/><path class="st1" d="M76.2,32.7c-0.8-0.5-1.8-0.7-2.7-1.2c-0.8-0.5-1-1.5-1.6-2.1c-0.5-0.5-1.2-0.8-2-0.9c-0.2,0-0.3,0-0.4-0.2     c-0.2-0.3-0.2-0.7-0.2-1c0.1-0.5,0.6-0.9,0.7-1.4c0.2-0.6-0.2-1.4-0.7-1.8c-0.6-0.4-1.4-0.5-2-0.9c-0.9-0.6-0.5-1.7-0.8-2.6     c-0.3-0.7-1.2-1.2-1.9-1.4c-0.8-0.2-1.5,0-2.2,0.1c-0.3,0.1-0.7,0.3-1,0.5c-0.3,0.2-0.6,0.5-0.9,0.8c-0.5,0.5-1,1.2-1.3,1.9     c-0.1,0.3,0.3,0.6,0.5,0.3c0.5-0.6,1-1.2,1.6-1.7c0.3-0.3,0.6-0.5,1-0.7c0.2-0.1,0.4-0.2,0.5-0.3c0.2-0.1,0.3-0.2,0.6-0.3     c0.9-0.3,1.7,0,2.4,0.6c0.4,0.4,0.4,1,0.4,1.5c0,0.5,0.1,0.9,0.4,1.3c0.3,0.4,0.7,0.6,1.1,0.8c-0.1,0.1-0.3,0.3-0.4,0.4     c-0.3,0.2-0.6,0.4-1,0.5c-0.6,0.2-1.2,0.3-1.9,0.5c0.1,0,0.2-0.1,0.3-0.1c0.1-0.1,0.1-0.2-0.1-0.2c-0.4-0.1-0.8-0.1-1.2-0.1     c-0.1,0-0.3,0-0.4,0c0,0,0,0,0,0c0,0-0.1,0-0.1,0c0.1-0.1-0.1-0.2-0.2-0.2c-0.1,0-0.1,0-0.1,0.1c-0.7-0.2-1.3-0.6-1.9-0.9     c0.4,0,0.8-0.1,1.2-0.3c0.5-0.2,1-0.6,1.3-0.9c0-0.1,0-0.2-0.1-0.1c-0.4,0.1-0.8,0.5-1.2,0.7c-0.5,0.3-1,0.4-1.5,0.5c0,0,0,0,0,0     c-1-0.5-2-0.9-3.1-1.2c-0.9-0.2-1.9-0.3-2.7,0.2c0,0,0,0-0.1,0.1c0.1-1,0.2-2,0.4-3c0.1-0.5,0.2-1,0.4-1.5     c0.1-0.4,0.3-0.8,0.4-1.2c0-0.1,0-0.2-0.1-0.3c0,0,0,0,0.1,0c0.2-0.1,0.1-0.4-0.1-0.5c-0.8-0.3-1.5-0.1-2.1,0.5     c-0.3,0.3-0.3,0.9-0.3,1.2c-0.1,0.5-0.1,0.9-0.1,1.4c-0.1,0.9,0,1.8,0.1,2.7c0,0.5,0,0.9,0.1,1.4c0,0,0,0,0,0.1     c0,0.8,0,1.6,0,2.4c-0.4-0.4-0.9-0.7-1.2-1.2c-0.5-0.6-1-1.2-1.4-1.9c-0.9-1.2-1.9-2.6-3.4-3.2c-1.5-0.6-3.4-0.5-4.9,0.2     c-1.5,0.6-2.5,1.9-2.9,3.4c-0.1,0.6-0.1,1.1-0.2,1.7c0,0.5-0.1,1-0.3,1.5c-0.2,0.7-0.6,1.4-1.2,1.9c-1.5,1.2-3.6,1.3-5.4,1.7     c-0.2,0.1-0.1,0.4,0.1,0.4c0,0.9,0.5,1.6,1.3,1.9c0.9,0.3,2,0.1,3-0.1c1.2-0.2,2.3-0.7,3.4-1.1c0.5-0.2,0.9-0.3,1.4-0.5     c0.3-0.1,0.5-0.2,0.8-0.3c0.2,0.6,1,1.1,1.5,1.3c0.2,0.1,0.3,0.1,0.5,0.2c-1.2,0.2-2.2,1.1-3,1.9c-0.8,0.9-1.7,2.2-1.8,3.5     c0,0.5,0.1,1,0.3,1.4c-0.7,0.1-1.4,0.3-2.1,0.6c-1.3,0.5-2.6,1.3-3.6,2.3c-0.7,0.7-1.2,1.5-1.4,2.4c-0.2-0.1-0.5-0.2-0.7-0.2     c-0.5,0-1,0.1-1.4,0.2c-0.9,0.4-1.6,1.1-2,2c-0.4,0.9-0.5,2-0.2,2.9c0.4,0.9,1.1,1.6,2,1.9c-0.6,0.3-1.2,0.7-1.7,1.2     c-0.2,0.2-0.5,0.4-0.7,0.7c0-0.8-0.2-1.6-1-2.1c-0.9-0.6-2.2-0.5-3.3-0.2c-2.2,0.6-4.4,1.8-5.6,3.8c-1,1.6-0.9,3.7,0.3,5.1     c1.2,1.5,3,2.3,4.8,2.4c0.4,0,0.8,0,1.2,0c-0.7,0.6-1.2,1.4-1.5,2.4c-0.3,1.6,0.5,3.1,1.6,4.2c1.1,1.1,2.8,1.9,4.3,1.9     c0.1,0,0.3,0,0.4,0c0,0.4,0,0.7,0.1,1.1c0.2,1,0.8,2.2,1.8,2.6c0.1,0,0.2,0.1,0.3,0.1c0.4,0.4,0.9,0.7,1.4,0.8     c0.6,0.2,1.2,0.4,1.8,0.4c0.3,0,0.6-0.1,0.9-0.1c0.2,0,0.3-0.1,0.5-0.2c0,0,0.1,0,0.1,0c0.1,0,0.3-0.1,0.4-0.2     c0.6,1.6,1.9,2.7,3.5,3.3c2,0.7,4,0,5.7-1.2c0.4-0.3,0.7-0.6,1.1-0.9c0.4-0.2,0.7-0.5,1.1-0.8c0.5-0.4,0.9-0.9,1-1.5     c1.3,1.4,3.2,2.1,5.1,1.9c2.2-0.2,4-1.8,4.4-4c0.1-0.6,0.1-1.3,0-1.9c-0.1-0.8-0.5-1.5-0.9-2.2c-0.1-0.2-0.5-0.1-0.4,0.2     c0.2,0.7,0.3,1.4,0.4,2.1c0.1,0.6,0,1.1-0.1,1.7c-0.2,0.9-0.9,1.7-1.6,2.1c-1.6,1.1-3.8,0.9-5.3-0.2c-0.3-0.2-0.8-0.7-1.1-1     c-0.4-0.5-0.6-1-0.8-1.6c-0.1-0.4-0.2-1-0.2-1.5c0-0.6,0.1-1.2,0.2-1.8c0.4-2,1.8-5.1,4.3-4.7c0.3,0,0.6,0.1,0.8,0.2     c0.3,0.1,0.4-0.2,0.4-0.4c0.4,0,0.8-0.1,1.2-0.1c0.1,0,0.1,0,0.1-0.1c0.4,1.2,1.2,2.4,2.2,3.2c2.4,2,5.8,2.3,8.5,0.6     c2.7-1.8,4.3-5.2,4.2-8.4c-0.1-1.3-0.5-2.6-1.1-3.7c0.1,0,0.2,0,0.2-0.1c0.2-0.1,0.3-0.4,0.1-0.6c-0.9-1.3-2.1-2.2-3.6-2.7     c-1-0.3-2-0.3-3-0.1c-0.2-0.6-0.4-1.2-0.7-1.7c-0.4-0.8-0.9-1.6-1.6-2.2c0,0-0.1-0.1-0.1-0.1c0.3,0,0.5,0,0.8,0     c0.5,0,0.8-0.1,1.3-0.3c0,0,0,0,0,0c0.1,0.1,0.3,0.2,0.4,0.1c0.2-0.2,0.5-0.3,0.7-0.5c0.2-0.2,0.5-0.5,0.7-0.7     c0.4-0.4,0.8-0.9,1-1.5c0.5-1.2,0.3-2.3-0.2-3.4c-0.5-1.1-1.4-2-2.3-2.7c-0.5-0.4-1.1-0.7-1.7-0.8c-0.4,0-0.9,0-1.3,0.2     c-1.5-0.2-3,0.5-3.9,1.8c-0.3-0.4-0.6-0.8-1-1.2c0.2-0.2,0.4-0.3,0.5-0.5c0.2-0.2,0.4-0.4,0.5-0.6c0.1-0.3,0.2-0.5,0.3-0.8     c0.3-1.1,0.2-2.4,0.1-3.5c-0.2-1.2-0.5-2.4-0.9-3.5c-0.2-0.5-0.4-1-0.6-1.4c0-0.1,0-0.2-0.1-0.4c-0.1-0.6-0.1-1.2-0.2-1.8     c0,0,0-0.1,0-0.1c0.1-0.2,0.1-0.4,0.2-0.6c0.2-0.3,0.4-0.5,0.7-0.7c0.2-0.1,0.6-0.1,0.9-0.1c0.1,0,0.2,0,0.3,0     c-0.1,0.1,0,0.2,0.1,0.3c0.3,0.1,0.7,0.2,1,0.4c0.2,0.2,0.4,0.5,0.5,0.8c0.2,0.6,0.1,1.4,0,2c-0.1,0.9-0.2,1.8-0.2,2.7     c0,0.5,0,0.9,0.2,1.4c0.1,0.2,0.2,0.5,0.3,0.7c0.1,0.1,0.2,0.2,0.4,0.3c0.2,0,0.4,0.2,0.6,0.4c0.3,0.2,0.6,0.4,1,0.5     c0.4,0.1,0.7,0.4,1,0.8c0.3,0.5,0.3,1,0.6,1.5c0.4,0.7,1.2,1,1.9,1.3c0.8,0.3,1.7,0.6,2.6,0.8c0.4,0.1,0.8,0.2,1.2,0.3     c0.2,0.1,0.5,0.1,0.7,0.2c-0.1,0.1-0.1,0.4,0.1,0.4c1.1,0.2,2.1,0.5,3,1c0.5,0.3,0.9,0.6,1.4,0.9c0.1,0.1,0.2,0.2,0.3,0.2     c-0.1,0-0.1,0.1-0.1,0.1c-0.1,0.6,0.7,0.9,1.2,0.9c0.6,0,1.2-0.3,1.6-0.7c0.1-0.1,0.1-0.2,0-0.3c0,0,0.1-0.1,0.1-0.1     c0.2-0.7-0.1-1.3-0.4-1.9c-0.3-0.7-0.6-1.3-0.9-1.9c-0.2-0.5-0.4-1.1-0.3-1.6c0.2-0.7,1-1,1.6-1.2C76.5,33.2,76.4,32.8,76.2,32.7      M52.6,27c-0.1-0.3-0.3-0.7-0.6-1c0.4,0.3,0.8,0.5,1.3,0.6c0,0,0.1,0,0.1,0c0.1,0.6,0.2,1.2,0.5,1.8c0,0,0,0,0,0     c-0.1,0.4-0.2,0.8-0.3,1.1c-0.2,0.7-0.6,1.2-1.1,1.7c-0.5,0.5-1.1,0.8-1.7,1.1c-0.7,0.4-1.6,0.5-2.1,1.2c-0.6-0.5-1.3-0.9-2-1.2     c-0.2-0.1-0.4-0.2-0.6-0.2c0.1,0,0.1,0,0.2-0.1c1.8-0.8,1.3-3.3,1.4-4.9c0.7,0.1,1.4,0.2,1.9,0.7c0.4,0.3,0.2,0.7,0.1,1.1     c-0.2,1.3,1.5,1.2,2.2,0.7C52.8,29,52.9,27.8,52.6,27 M34.3,31.9c-0.8-0.1-1.3-0.7-1.5-1.5c0.1,0,0.1,0,0.2,0     c0.1,0.2,0.3,0.5,0.5,0.6c0.4,0.3,1,0.5,1.5,0.5c0.5,0.1,1.1,0.1,1.7,0.1C35.9,31.9,35.1,32,34.3,31.9 M42.8,30.1     c0-0.2-0.2-0.3-0.3-0.2c-0.7,0.2-1.4,0.4-2.2,0.7c-0.7,0.2-1.4,0.5-2,0.7c-1,0.1-2,0.2-2.9,0.1c-0.5,0-1-0.1-1.5-0.4     c-0.2-0.1-0.3-0.2-0.5-0.4c0-0.1-0.1-0.1-0.1-0.2c1.2-0.1,2.4-0.4,3.6-0.8c1.1-0.4,2-1.1,2.6-2.2c0.3-0.6,0.5-1.3,0.6-1.9     c0.1-0.8,0-1.6,0.3-2.4c0.5-1.5,2-2.5,3.5-2.8c1-0.2,2.2-0.1,3.1,0.3c0.9,0.4,1.5,1.1,2.1,1.8c0.3,0.4,0.7,0.8,1,1.3     c-0.9-0.3-2-0.3-2.9-0.2c-0.1-0.6-0.5-1-0.9-1.4c-0.6-0.6-1.3-1-1.9-1.6c-0.1-0.1-0.3,0-0.2,0.1c0.3,0.7,0.9,1.1,1.5,1.6     c0.5,0.4,1.2,0.8,1.4,1.4c-0.2,0-0.3,0.1-0.5,0.1c-0.8,0.2-1.7,0.5-2.4,0.9c-0.2,0.1-0.4,0.2-0.6,0.3c-0.7-0.3-1.6-0.4-2.4-0.3     c-0.1,0-0.1,0.2,0,0.2c0.4,0.1,0.8,0.1,1.3,0.2c0.2,0,0.5,0.1,0.7,0.2c-0.4,0.2-0.7,0.5-1,0.8c-0.1,0.1,0.1,0.3,0.2,0.3     c0.1-0.1,0.2-0.1,0.3-0.2c-0.2,0.7-0.5,1.3-0.8,1.9c0,0.1,0.1,0.2,0.1,0.1c0.5-0.6,0.8-1.4,0.9-2.2c0.5-0.2,0.9-0.5,1.4-0.7     c0.2-0.1,0.5-0.2,0.7-0.3c-0.2,0.3-0.3,0.8-0.4,1.2c-0.1,0.7-0.2,1.4-0.1,2.1c0,0.1,0.2,0.1,0.2,0c0.1-0.6,0.1-1.3,0.2-1.9     c0.1-0.5,0.1-1,0.3-1.4c0.4-0.2,0.9-0.3,1.4-0.4c0.8-0.2,1.5-0.3,2.3-0.2c0.8,0.1,1.4,0.3,2,0.7c0,0,0.1,0,0.1,0     c0,0,0.1,0.1,0.1,0.1c0.1,0.2,0.3,0.3,0.5,0.5c-0.3-0.3-0.7-0.4-1.2-0.4c-0.2,0-0.3,0.3-0.1,0.4c0.8,0.4,1.3,0.9,1.6,1.7     c0.2,0.7,0.2,1.6-0.6,1.9c-0.2,0.1-0.5,0.1-0.7,0.1c0,0,0,0,0,0c0,0,0,0,0-0.1c0-0.4,0.2-0.7,0.1-1.1c-0.1-0.5-0.6-0.9-1.1-1.1     c-0.6-0.3-1.4-0.5-2.1-0.6c-0.2,0-0.4,0-0.5,0.3c-0.2,0.8-0.1,1.7-0.1,2.5c0,0.7-0.1,1.6-0.6,2.2c-0.5,0.5-1.3,0.2-1.9,0.1     C43.9,31.1,42.9,30.8,42.8,30.1 M41.6,37.4c0.1-0.6,0.4-1.1,0.6-1.7c0-0.1,0-0.2-0.1-0.2c0.1-0.1,0.1-0.2,0.2-0.2     c0.4-0.5,0.9-0.9,1.4-1.2c0.2-0.2,0.5-0.3,0.7-0.4c0,0,0.1,0,0.1,0c0,0,0.1,0,0.1,0c0.1,0,0.3-0.1,0.4-0.1c0,0,0,0,0,0     c0.1,0,0.1,0,0.2,0c0,0,0.1,0,0.1,0c0,0,0.1,0,0.1,0c0.3,0.1,0.7,0.2,0.9,0.3c1.1,0.5,2.2,1.2,3,2.2c-0.7,0.2-1.5,0.6-2.1,0.9     c-1.2,0.6-2.3,1.6-3.2,2.7c-0.5-0.4-1.2-0.7-2-0.8c0,0-0.1,0-0.1,0C41.7,38.3,41.6,37.9,41.6,37.4 M40.8,37.9c0-0.1,0-0.1,0-0.2     c0,0,0,0,0,0c0,0,0,0,0-0.1c0.1-0.2,0.2-0.5,0.3-0.8c0,0,0,0,0,0c-0.2,0.7-0.2,1.4,0.2,1.9c-0.2,0-0.3,0-0.5,0     c-0.1-0.2-0.1-0.3-0.1-0.5C40.8,38.1,40.8,37.9,40.8,37.9 M34.5,44.6c0.1-0.4,0.3-0.7,0.6-1.1c0-0.1,0.1-0.1,0.1-0.2     c-0.1,0.2,0,0,0,0c0.1-0.1,0.2-0.3,0.3-0.4c0.3-0.3,0.6-0.6,0.9-0.8c0,0,0,0,0,0c0,0,0.1-0.1,0.1-0.1c0.1-0.1,0.2-0.1,0.3-0.2     c0.2-0.1,0.4-0.3,0.6-0.4c0.8-0.5,1.6-0.9,2.6-1.1c0.8-0.2,1.6-0.3,2.5-0.1c0.3,0.1,0.6,0.2,0.9,0.4c-0.6,1-1,2.2-0.9,3.4     c0,1.4,0.6,3,1.8,4c0.1,0,0.1,0.1,0.2,0.1c0.1,0.1,0.4,0.3,0.2,0.1c0.2,0.2,0.4,0.3,0.6,0.4c0.3,0.2,0.7,0.4,1.1,0.5     c0.3,0.1,0.5,0.2,0.8,0.3c-0.7,0.5-1.3,1.1-1.8,1.9c-0.2,0.3-0.3,0.5-0.5,0.8c-1.3,0.1-2.6,0.4-4,0.3c-0.8,0-1.6-0.1-2.4-0.4     c-0.7-0.2-1.5-0.6-2-1c-0.4-0.3-0.6-0.6-0.9-0.9c0.1,0.1-0.1-0.1-0.1-0.1c-0.1-0.1-0.1-0.2-0.2-0.3c-0.1-0.2-0.3-0.4-0.4-0.6     c-0.2-0.3-0.3-0.7-0.4-1c-0.1-0.4-0.2-0.8-0.2-1.2C34.1,46.1,34.2,45.3,34.5,44.6 M47.3,63.6c-0.2,0.3-0.4,0.5-0.6,0.7     c-0.4,0.4-0.7,0.6-1.2,0.9c-0.2,0.1-0.5,0.2-0.7,0.4c0,0-0.1,0-0.1,0c-0.1,0-0.1,0-0.2,0.1c-0.1,0.1-0.3,0.1-0.4,0.1     c-0.3,0.1-0.5,0.1-0.8,0.2c-0.1,0-0.3,0.1-0.4,0.1c-0.1,0-0.1,0-0.2,0c0,0-0.2,0-0.2,0c-0.6,0.1-1.1,0.1-1.7,0     c-0.3,0-0.6-0.1-0.9-0.1c-0.1,0-0.1,0-0.2,0c0,0,0,0-0.1,0c-0.2,0-0.3-0.1-0.5-0.1c-0.6-0.1-1.2-0.3-1.8-0.5     c-0.1,0-0.2-0.1-0.3-0.1c0.1,0-0.2-0.1-0.3-0.1c-0.3-0.1-0.6-0.3-0.8-0.4c-0.2-0.1-0.5-0.3-0.7-0.4c0,0-0.2-0.2-0.3-0.2     c-0.1-0.1-0.2-0.2-0.3-0.2c-0.2-0.2-0.4-0.4-0.6-0.6c-0.1-0.1-0.2-0.2-0.3-0.3c0,0-0.1-0.1-0.1-0.2c0,0-0.1-0.1-0.1-0.1     c-0.2-0.2-0.3-0.4-0.4-0.6c-0.1-0.1-0.1-0.2-0.2-0.3c0-0.1-0.1-0.1-0.1-0.2c0,0,0,0,0-0.1c0,0,0,0,0,0c-0.1-0.2-0.2-0.5-0.3-0.7     c0-0.1-0.1-0.3-0.1-0.4c0,0,0,0,0,0c0,0,0,0,0,0c0-0.1,0-0.2,0-0.3c0-0.3-0.1-0.5-0.1-0.8c0,0,0-0.1,0-0.1c0,0,0-0.1,0-0.1     c0-0.1,0-0.3,0-0.4c0-0.1,0-0.2,0.1-0.3c0-0.1,0-0.1,0-0.2c0,0,0,0,0,0c0,0,0,0,0,0c0.1-0.3,0.2-0.6,0.3-0.9     c0.6-1.3,1.3-2.4,2.2-3.3c0.4-0.4,0.9-0.8,1.4-0.9c0,0,0,0,0,0c0.4,0.2,0.7,0.3,1.1,0.5c1.4,0.5,2.9,0.4,4.4,0.3     c0.7-0.1,1.5-0.2,2.2-0.3c0.1,0,0.2,0,0.4-0.1c0,0.1-0.1,0.3-0.1,0.4c-0.7,0.4-1.2,1-1.9,1.5c-0.4,0.3-0.9,0.5-1.3,0.7     c-0.1,0.1-0.3,0.1-0.5,0.2c-0.1-0.1-0.1-0.2-0.1-0.3c0-0.4,0.4-0.7,0.8-0.8c0.4-0.1,0.2-0.7-0.1-0.7c-0.6,0.1-1.3,0.3-1.5,1     c-0.3,0.6,0.1,1.4,0.5,1.9c0.4,0.5,1.1,0.4,1.7,0.4c0.6-0.1,1.1-0.2,1.6-0.4c0.3-0.1,0-0.5-0.2-0.5c-0.3,0-0.6,0-0.9,0     c0.2-0.1,0.4-0.2,0.5-0.4c0.5-0.4,0.9-0.8,1.3-1.3c0,0.5,0,1.1,0.1,1.6c0.2,1.3,0.8,2.5,1.7,3.4c0.7,0.8,1.6,1.3,2.5,1.7     c-0.1,0.1-0.3,0.2-0.4,0.3c-0.2,0.2-0.4,0.3-0.5,0.6c-0.1,0.1-0.1,0.3-0.3,0.5C47.2,63.4,47.2,63.5,47.3,63.6 M30.3,49.6     c-0.1-0.1-0.2-0.2-0.2-0.2c0,0,0,0,0,0c0,0,0,0,0,0c0,0-0.1-0.1-0.1-0.1c0,0-0.1-0.2-0.1-0.2c0-0.1-0.1-0.2-0.1-0.2     c0-0.1-0.1-0.2-0.1-0.3c0,0,0,0,0,0c0,0,0,0,0,0c0-0.1,0-0.1,0-0.2c0-0.1,0-0.2,0-0.3c0,0,0-0.1,0-0.1c0,0,0-0.1,0-0.1     c0-0.2,0.1-0.5,0.1-0.7c0.2-0.6,0.7-1.5,1.3-1.9c0.3-0.2,0.6-0.4,1-0.4c0.1,0,0.4,0,0.6,0c-0.1,0.5-0.2,1-0.2,1.5     c0,1.5,0.4,2.9,1.2,4.2c-0.2-0.1-0.5-0.1-0.8-0.2c-0.2,0-0.5,0-0.7,0c-0.4-0.1-0.9-0.2-1.3-0.4C30.6,49.8,30.4,49.6,30.3,49.6      M24.4,60.1c0,0-0.2,0-0.2,0c-0.1,0-0.2,0-0.3,0c-0.2,0-0.4,0-0.6,0c-0.1,0-0.2,0-0.3,0c0,0,0,0-0.1,0c0,0-0.1,0-0.1,0     c-0.4-0.1-0.8-0.2-1.2-0.3l0,0c0,0-0.1,0-0.1-0.1c-0.1,0-0.2-0.1-0.3-0.1c-0.2-0.1-0.4-0.2-0.5-0.3c0,0-0.1,0-0.1-0.1     c-0.1-0.1-0.1-0.1-0.2-0.2c-0.2-0.1-0.3-0.3-0.4-0.4c0,0,0,0,0,0c0,0,0,0,0,0c-0.1-0.1-0.1-0.1-0.2-0.2c-0.1-0.1-0.1-0.2-0.1-0.2     c0,0,0-0.1-0.1-0.1c0,0,0,0,0,0c-0.1-0.2-0.1-0.3-0.2-0.5c0,0,0-0.1,0-0.2c0-0.1,0-0.2,0-0.2c0-0.1,0-0.2,0-0.3c0,0,0-0.1,0-0.1     v0c0.1-0.2,0.1-0.4,0.1-0.6c0,0,0-0.1,0-0.1c0,0,0,0,0,0c0-0.1,0.1-0.2,0.1-0.3c0.1-0.2,0.2-0.5,0.3-0.7c0,0,0.1-0.2,0.2-0.2     c0.1-0.1,0.1-0.2,0.2-0.3c0.2-0.2,0.3-0.4,0.5-0.6c0.1-0.1,0.2-0.1,0.2-0.2c0,0,0,0,0,0c0,0,0.1-0.1,0.1-0.1     c0.2-0.2,0.5-0.3,0.7-0.5c0.3-0.2,0.6-0.4,0.9-0.5c0.4-0.2,0.6-0.3,0.9-0.4c0.3-0.1,0.7-0.2,1.1-0.3c0.2,0,0.3-0.1,0.5-0.1     c0.1,0,0.1,0,0.2,0c0,0,0.1,0,0.2,0c0.2,0,0.3,0,0.5,0c0,0,0,0,0.1,0c0,0,0,0,0,0c0.1,0,0.1,0,0.2,0c0,0,0.1,0,0.1,0     c0,0,0.1,0,0.1,0.1c0.3,0.1-0.3-0.2,0.2,0.1c0,0,0,0,0,0c0,0,0,0,0,0c0,0,0.1,0.1,0.1,0.1c0,0,0.1,0.1,0.1,0.1     c0.1,0.1,0.1,0.2,0.2,0.3c0.1,0.4,0.1,0.8,0.1,1.1c0,0.2,0.2,0.3,0.3,0.3c0,0.1,0.1,0.2,0.3,0.3c0.3,0.1,0.6,0,0.8-0.1     c0.4-0.1,0.8-0.3,1.1-0.6c0.5-0.4,1-0.8,1.6-1.2c1-0.7,2.1-0.8,3.2-0.8c0.2,0.2,0.3,0.3,0.5,0.5c-0.1,0-0.2,0.1-0.2,0.1     c-1.2,0.7-2.2,1.9-2.9,3.1c-0.6,1-1.2,2.1-1.3,3.3c0,0.4-0.1,0.8,0,1.2c-0.4,0-0.8,0-1.1,0c-0.5,0-0.9,0.1-1.3,0.2     c1.4-1.5,2-3.8,1.8-5.8c0-0.4-0.6-0.5-0.7-0.1c-0.3,1.2-0.5,2.4-1.1,3.5c-0.1,0.1-0.1,0.2-0.2,0.3c0,0-0.1,0.2-0.2,0.2     c-0.2,0.2-0.3,0.4-0.5,0.6c-0.2,0.2-0.3,0.3-0.5,0.4c0.2-0.1-0.1,0.1-0.1,0.1c-0.1,0.1-0.2,0.1-0.3,0.2c-0.2,0.1-0.4,0.2-0.6,0.3     c0,0,0,0-0.1,0c0,0-0.1,0-0.1,0c-0.1,0-0.2,0.1-0.3,0.1C24.8,60,24.6,60.1,24.4,60.1 M29.7,68.2c0,0.1-0.1,0.1-0.1,0.2h0     c-1.1-0.1-1.8-0.5-2.3-1.5c-0.4-0.9-0.5-2-0.7-2.9c0,0-0.1-0.1-0.1,0c-0.1,1.1-0.1,2.3,0.4,3.3c0.5,1,1.4,1.6,2.5,1.4     c-0.1,0.2-0.1,0.4-0.2,0.6c-0.4-0.1-0.8-0.2-1.2-0.4c-0.7-0.3-1.2-0.6-1.7-1.1c-0.1-0.1-0.3-0.2-0.4-0.4c0,0-0.1-0.1-0.1-0.1     c0,0-0.1-0.1-0.1-0.1c-0.2-0.3-0.4-0.5-0.5-0.8c0,0,0,0,0,0c0,0,0,0,0,0c0-0.1-0.1-0.1-0.1-0.2c0-0.1-0.1-0.3-0.1-0.4     c0,0.1,0-0.2,0-0.3c0-0.1,0-0.2,0-0.3c0,0,0-0.1,0-0.2c0-0.1,0-0.1,0-0.2c0-0.1,0-0.1,0.1-0.2c0,0,0,0,0,0c0,0,0,0,0,0     c0.1-0.2,0.1-0.3,0.2-0.4c0,0,0.1-0.1,0.1-0.1c0,0,0.1-0.1,0.1-0.1c0.1-0.1,0.2-0.3,0.4-0.4c0.1-0.1,0.1-0.1,0.2-0.2     c-0.1,0.1,0.1-0.1,0.1-0.1c0.3-0.2,0.7-0.5,1-0.7c0.7-0.4,1.5-0.7,2.3-0.9c0.3-0.1,0.7-0.2,1-0.3c0.1,0.4,0.2,0.8,0.4,1.2     c0.6,1.3,1.5,2.4,2.6,3.2c-0.1,0-0.2,0-0.3,0c-0.6,0-1.1,0.2-1.6,0.4C30.9,66.4,30.1,67.3,29.7,68.2 M36.1,73.5     c-0.4-0.1-0.8,0-1.2,0.1c-0.2,0.1-0.5,0.1-0.8,0c0,0,0,0,0,0c0.1-0.2,0-0.4-0.1-0.5C33.8,73,33.5,73,33.2,73     c-0.1,0-0.3,0-0.4-0.1c-0.1,0-0.1,0-0.2-0.1c0,0-0.3-0.1-0.1,0c0.1,0-0.1,0-0.2-0.1c0,0-0.1,0-0.1-0.1c-0.1,0-0.2-0.1-0.3-0.2     c0,0-0.1-0.1-0.1-0.1c-0.1-0.1-0.2-0.2-0.3-0.2c0,0,0,0-0.1-0.1c0,0,0,0,0,0c-0.1-0.1-0.1-0.2-0.2-0.3c0,0,0-0.1,0-0.1     c0,0,0,0,0,0c0-0.1-0.1-0.2-0.1-0.3c0-0.1,0-0.1-0.1-0.2c0,0.1,0-0.2,0-0.2c0-0.2,0-0.4,0-0.6c0,0,0-0.2,0-0.3c0-0.1,0-0.2,0-0.3     c0-0.1,0-0.2,0.1-0.3c0-0.1,0-0.1,0-0.2c0,0,0,0,0-0.1c0,0,0,0,0,0c0.2-0.4,0.4-0.9,0.6-1.3c0,0,0.1-0.2,0.2-0.2     c0.1-0.1,0.2-0.2,0.2-0.3c0.2-0.2,0.3-0.3,0.5-0.4c0.4-0.3,0.8-0.5,1.3-0.6c0.2,0,0.5,0,0.8-0.1c0.6,0.4,1.2,0.7,1.9,0.9     c0.7,0.3,1.5,0.5,2.2,0.7c-0.5,0.3-1,0.8-1.4,1.3C36.5,70.3,35.9,72,36.1,73.5 M48,65.2c-0.6,1.2-0.9,2.5-0.9,3.9     c0,1.1,0.2,2.2,0.8,3.1c-0.2,0.1-0.4,0.3-0.3,0.7c0,0,0,0,0,0c0,0,0,0,0,0c0-0.2-0.1,0.2,0,0c0,0,0,0.1,0,0.1c0,0,0,0,0,0.1     c0,0.1-0.1,0.2-0.1,0.2c-0.2,0.3-0.5,0.6-0.8,0.9c-0.3,0.3-0.6,0.6-0.9,0.9c-0.2,0.2-0.4,0.3-0.5,0.5c-0.8,0.5-1.6,0.9-2.6,1.1     c-1.7,0.3-3.6-0.3-4.6-1.8c-0.9-1.4-0.7-3,0.1-4.3c0.4-0.7,0.8-1.3,1.4-1.8c0.5-0.4,1.4-0.8,2-0.6c0.1,0,0.2,0,0.2-0.1     c0.8,0,1.5-0.2,2.3-0.4c1.9-0.6,3.8-2,4.3-4c0.6-0.3,1.1-0.8,1.4-1.4c0.2,0,0.4,0.1,0.5,0.1C49.2,63,48.5,64.1,48,65.2 M62.5,54     c0.1,0.4,0.7,0.5,0.7,0c0-0.7-0.1-1.4-0.2-2.1c0,0,0,0,0.1,0c0.7-0.2,1.4-0.2,2.1-0.1c0.4,0.2,0.8,0.4,1.1,0.7     c0.6,0.4,1.1,0.9,1.5,1.5c0.7,1.1,1.1,2.5,1,3.8c-0.1,1.4-0.6,2.9-1.4,4c-0.5,0.7-1.1,1.3-1.7,1.8c-0.3,0.3-0.4,0.4-0.8,0.6     c-0.3,0.2-0.7,0.4-1,0.6c0,0,0,0-0.1,0c0,0,0,0,0,0c-0.1,0-0.2,0.1-0.2,0.1c-0.2,0.1-0.3,0.1-0.5,0.1c-0.2,0-0.3,0.1-0.5,0.1     c0,0-0.1,0-0.2,0c-0.1,0-0.2,0-0.3,0c-0.3,0-0.6,0-1,0c0,0-0.1,0-0.2,0c0,0-0.1,0-0.1,0c-0.2,0-0.4-0.1-0.5-0.1     c-0.2,0-0.3-0.1-0.5-0.2c0,0,0,0,0,0c0,0,0,0,0,0c-0.1,0-0.1-0.1-0.2-0.1c-0.3-0.1-0.6-0.3-0.8-0.5c0,0-0.1-0.1-0.1-0.1     c-0.1-0.1-0.1-0.1-0.2-0.2c-0.1-0.1-0.2-0.2-0.4-0.3c-0.1-0.1-0.1-0.1-0.2-0.2c0,0-0.1-0.1-0.1-0.1c-0.1-0.1-0.2-0.3-0.3-0.4     c-0.1-0.1-0.2-0.3-0.3-0.4c0-0.1-0.1-0.2-0.1-0.2c0,0,0,0,0,0c0,0,0,0,0-0.1c-0.2-0.4-0.3-0.7-0.4-1.1c-0.1-0.5-0.2-1.4-0.2-1.9     c0-0.3,0.1-0.7,0.2-1c0.1-0.4,0.1-0.5,0.3-0.9c0.1-0.3,0.3-0.6,0.4-0.9c0.2-0.3,0.4-0.7,0.5-0.9c1-1.4,2.4-2.6,4-3.3     C62.2,52.8,62.3,53.4,62.5,54 M60.9,49.3c0.2,0.5,0.5,1,0.7,1.5c-2.8,0.9-5.3,3.2-6.3,6c-0.5,1.5-0.6,3.1-0.3,4.7     c0,0-0.1,0-0.1,0c-0.8-0.1-1.6-0.2-2.4-0.3c-0.7-0.1-1.5-0.2-2.2-0.4c-0.2-0.1-0.3-0.1-0.5-0.2c-0.1,0-0.2-0.1-0.3-0.1     c0,0-0.1,0-0.2-0.1c-0.3-0.1-0.7-0.3-1-0.5c-0.1-0.1-0.3-0.2-0.4-0.3c0,0,0,0,0,0c0,0,0,0-0.1,0c-0.1-0.1-0.1-0.1-0.2-0.2     c-0.1-0.1-0.3-0.2-0.4-0.4c0,0-0.1-0.1-0.1-0.1c0.1,0.1-0.1-0.2-0.1-0.2c-0.1-0.1-0.2-0.3-0.3-0.5c-0.1-0.1-0.1-0.2-0.1-0.2     c0,0-0.1-0.2-0.1-0.2c-0.2-0.4-0.3-0.8-0.4-1.2c0,0.1,0-0.2,0-0.2c0-0.1,0-0.2,0-0.3c0-0.2,0-0.4,0-0.6c0-0.4,0-0.8,0.1-1.2     c0.1-0.4,0.2-0.6,0.3-1.1c0.1-0.2,0.2-0.4,0.3-0.6c0.1-0.1,0.1-0.2,0.2-0.3c0,0,0.2-0.3,0.2-0.2c0.5-0.7,1.1-1.3,1.8-1.7     c0.8-0.5,1.7-0.8,2.6-1c0.7-0.2,1.5-0.2,2.3-0.1c0.7,0.1,1.2,0.4,1.8,0.8c-0.1,0.1-0.2,0.2-0.3,0.3c-0.1-0.2-0.4-0.4-0.7-0.3     c-0.4,0.2-0.9,0.5-1,1.1c-0.1,0.6,0.2,1,0.7,1.3c0.1,0.1,0.3,0,0.3-0.2c0-0.1,0-0.1,0-0.2c0,0,0,0,0,0c0.1-0.1,0.1-0.1,0.1-0.2     c0-0.1,0-0.3,0-0.4c0-0.2,0.1-0.4,0.3-0.6c0,0.2,0.3,0.4,0.5,0.3c0.3-0.1,0.6-0.3,0.9-0.4c0.5,0.5,0.8,1,1.2,1.5     c0.3,0.4,0.8,0.1,0.6-0.3c-0.3-0.6-0.6-1.1-1-1.6c0.5-0.3,0.9-0.6,1.3-1c0.5-0.4,1.2-1,1.5-1.6C60.3,48.3,60.7,48.8,60.9,49.3      M56.4,41.3c0-0.1,0-0.1,0-0.2c0-0.4,0.1-0.8,0.2-1.2c0,0,0,0,0,0c0,0,0,0,0,0c0,0,0-0.1,0.1-0.1c0-0.1,0.1-0.2,0.1-0.3     c0.1-0.2,0.2-0.3,0.3-0.5c0,0,0.1-0.1,0.1-0.1c0-0.1,0.1-0.1,0.2-0.2c0.1-0.1,0.2-0.2,0.3-0.3c0.2-0.1,0.5-0.3,0.7-0.5     c0.5-0.2,1-0.3,1.6-0.2c0.3,0.1,0.5,0.2,0.8,0.4c0.4,0.3,0.8,0.5,1.2,0.7c0,0,0,0,0.1,0c0,0,0,0,0.1,0.1c0.1,0.1,0.2,0.2,0.3,0.3     c0.2,0.2,0.4,0.4,0.6,0.6c0.3,0.3,0.6,0.7,0.8,1.1c0.2,0.4,0.4,0.7,0.5,1.1c0.1,0.4,0,1-0.1,1.4c-0.2,0.5-0.5,0.9-0.8,1.3     c-0.3,0.4-0.6,0.7-0.8,1.1c-0.1-0.1-0.2-0.2-0.3-0.2c-0.4,0-0.7-0.1-1.1-0.1c-0.3,0-0.7,0-1-0.1c-0.3,0-0.6-0.1-0.9-0.2     c-0.1,0-0.3-0.1-0.4-0.1c0,0,0,0,0,0c0,0,0,0,0,0c-0.1,0-0.1-0.1-0.2-0.1c0,0,0,0,0,0c-0.2-0.1-0.4-0.2-0.6-0.3     c0,0-0.1-0.1-0.1-0.1c0,0,0,0,0,0c-0.1-0.1-0.2-0.2-0.3-0.2c-0.1-0.1-0.2-0.1-0.2-0.2c0,0-0.1-0.1-0.1-0.1c0,0,0,0,0,0     c-0.1-0.2-0.3-0.4-0.4-0.6c0,0,0,0,0-0.1c0,0,0,0,0-0.1c0-0.1-0.1-0.2-0.1-0.3c0-0.1-0.1-0.2-0.1-0.3c0,0,0-0.1,0-0.1     c0,0,0,0,0,0c0,0,0,0,0,0c0-0.2-0.1-0.4-0.1-0.6C56.4,41.5,56.4,41.4,56.4,41.3C56.4,41.3,56.4,41.3,56.4,41.3 M56.7,45.3     c0.4,0.4,1,0.6,1.5,0.8c0.2,0.1,0.3,0.1,0.5,0.2c0.2,0.2,0.3,0.3,0.5,0.5c0,0.2-0.3,0.5-0.5,0.7c-0.4,0.4-0.8,0.8-1.2,1.1     c-0.4,0.3-0.8,0.6-1.1,0.9c-0.4-0.4-0.9-0.8-1.5-1c-0.2-0.1-0.3-0.1-0.4-0.2c0.2-0.1,0.3-0.1,0.5-0.2     C55.9,47.5,56.5,46.4,56.7,45.3 M55.3,39.4c-0.7,1.5-0.5,3.2,0.3,4.6c0,0.1,0.1,0.2,0.2,0.3c-0.1,0.6-0.2,1.1-0.5,1.6     c-0.3,0.5-0.7,0.7-1.1,1c-0.4,0.3-0.9,0.5-1.4,0.6c-0.1,0-0.2,0-0.3,0c1.1-0.8,1.9-2,2.4-3.2c0-0.1-0.1-0.1-0.1-0.1     c-0.6,1.4-2,2.7-3.4,3.2c-0.1,0-0.1,0-0.2,0.1c0,0-0.1,0-0.1,0c-0.1,0-0.2,0-0.2,0.1c-0.5,0.1-1.1,0.1-1.6,0     c-0.8-0.2-1.5-0.8-2-1.5c-0.1-0.1-0.3,0-0.2,0.2c0.4,0.8,1.1,1.5,1.9,1.8c0.2,0.1,0.3,0.1,0.5,0.1c-0.4,0.1-0.8,0.3-1.2,0.5     c-0.5-0.2-0.9-0.4-1.4-0.7c-0.3-0.2-0.4-0.3-0.7-0.6c-0.1-0.1-0.2-0.2-0.4-0.3c0,0-0.1-0.1-0.1-0.1c0-0.1-0.1-0.1-0.1-0.2     c-0.2-0.2-0.3-0.5-0.5-0.7c0,0,0-0.1-0.1-0.1c0,0,0-0.1,0-0.1c-0.1-0.1-0.1-0.3-0.2-0.5c0-0.1-0.1-0.3-0.1-0.4c0,0,0-0.1,0-0.1     c0,0,0-0.1,0-0.1c0-0.3-0.1-0.5-0.1-0.8c0,0,0-0.3,0-0.3c0-0.1,0-0.3,0.1-0.4c0-0.1,0.1-0.3,0.1-0.4c0-0.1,0-0.1,0.1-0.2     c0,0,0,0,0,0c0,0,0-0.1,0-0.1c0.1-0.3,0.2-0.6,0.4-0.8c0.1-0.1,0.2-0.3,0.2-0.4c0-0.1,0.1-0.1,0.1-0.2c0,0,0,0,0,0     c0,0,0.1-0.1,0.1-0.1c1-1.3,2-2,3.5-2.8c0.4-0.2,0.7-0.4,1.1-0.5c0.2,0.2,0.6,0.1,0.7-0.2c0,0,0.1,0,0.1,0     c0.3-0.1,0.4-0.1,0.7-0.1c0.1,0,0.3,0,0.4,0c0.1,0,0.1,0,0.2,0c0,0,0,0,0,0c0,0,0,0,0.1,0C53.7,37.6,54.5,38.5,55.3,39.4      M54.6,33.3c0,0.6,0,1,0,1.5c0,0.2,0,0.5-0.1,0.7c0,0.2,0,0.5-0.1,0.7c-0.1,0.2-0.1,0.4-0.2,0.6c-0.5-0.5-1.1-0.8-1.8-1     c-0.6-0.2-1.2-0.2-1.8-0.1c-0.2-0.5-0.6-0.9-1-1.3c0.3-0.1,0.6-0.3,0.9-0.5c0.3-0.3,0.6-0.5,0.9-0.7c0.6-0.5,1.3-0.9,1.8-1.4     c0.5-0.5,0.8-1.1,1.1-1.7c0.1,0.6,0.2,1.2,0.2,1.8C54.5,32.2,54.6,32.8,54.6,33.3 M61,32.2c-0.3-0.2-0.6-0.2-0.9-0.4     c-0.3-0.2-0.5-0.5-0.9-0.6c-0.1,0-0.1,0-0.2-0.1c-0.1-0.2-0.2-0.5-0.3-0.8c-0.2-0.5-0.1-1-0.1-1.5c0-0.5,0.1-1,0.1-1.4     c0.1-0.7,0.1-1.4,0.1-2c0-0.6-0.3-1.1-0.6-1.5c0.7,0.3,1.5,0.6,2.2,0.8c0.2,0,0.4,0.1,0.6,0.2c0.1,1.1,0.3,2.2,0.4,3.2     c-0.3,0.2-0.5,0.4-0.8,0.7c-0.5,0.5-1,0.9-1.5,1.4c-0.1,0.1,0,0.2,0.1,0.1c0.6-0.3,1-0.8,1.5-1.3c0.2-0.2,0.5-0.5,0.7-0.7     c0,0.1,0,0.2,0,0.3c0.1,1.3,0,2.7,0.1,4C61.5,32.5,61.3,32.4,61,32.2 M73.9,33.9c-0.4,0.6-0.2,1.3,0,1.9c0.2,0.7,0.6,1.4,1,2     c0.4,0.7,0.6,1.4,0.9,2.1c0,0,0,0-0.1,0c-0.4,0.1-0.7,0.3-1.1,0.4c-0.1,0-0.2,0-0.2,0c0,0,0,0,0,0c-0.1-0.4-0.6-0.8-1-1.1     c-0.4-0.4-0.9-0.7-1.4-0.9c-0.9-0.5-1.8-0.8-2.8-0.9c0-0.1,0-0.2-0.1-0.2c-0.4-0.3-0.9-0.3-1.3-0.4c-0.5-0.1-1.1-0.3-1.6-0.4     c-1-0.3-2.1-0.6-3-1.2c-0.5-0.3-0.7-0.8-0.9-1.3c-0.1-0.3-0.2-0.7-0.4-0.9c0,0,0,0,0,0c0.2-1.4,0.1-2.9,0-4.3c0-0.2,0-0.5,0-0.7     c0,0,0.1,0,0.1-0.1c0,0,0-0.1,0-0.1c0,0,0,0,0,0c0-1-0.1-1.9-0.4-2.9c0.3,0.1,0.6,0.2,0.9,0.2c0,0,0,0,0,0c0.1,0,0.1,0,0.2,0     c-0.1,0-0.2,0.1-0.3,0.2c-0.1,0.1,0,0.1,0.1,0.1c1-0.1,1.5,0.9,1.8,1.7c0.4,0.9,0.6,1.9,1,2.9c0.2,0.5,0.4,1.1,0.6,1.6     c0,0.1-0.1,0.3-0.2,0.4c-0.2,0.4-0.4,0.7-0.5,1.1c0,0.1,0.1,0.2,0.2,0.1c0.3-0.3,0.6-0.8,0.7-1.2c0.3,0.7,0.7,1.3,1.2,2     c0.9,1.2,1.9,2.3,3.2,3c0.1,0,0.1-0.1,0.1-0.1c-1.3-1-2.4-2.2-3.2-3.6c-0.4-0.6-0.7-1.3-1-2c0-0.2,0-0.3,0-0.5     c0-0.1-0.2-0.1-0.2,0c0,0,0,0,0,0c-0.2-0.5-0.4-1-0.5-1.5c-0.1-0.2-0.1-0.3-0.2-0.5c0.3,0.2,0.7,0.4,0.9,0.5     c0.9,0.4,1.8,0.6,2.6,1.3c0,0,0.1,0,0.1-0.1c-0.2-0.8-1.3-1.1-1.9-1.3c-0.6-0.2-1.5-0.5-1.8-1c-0.2-0.7-0.5-1.3-0.8-1.9     c-0.2-0.4-0.5-0.8-0.9-1c0.1,0,0.2,0,0.3,0c0.1,0,0.3,0,0.5,0c0,0,0,0,0,0c-0.2,0-0.1,0.3,0.1,0.3c0.8,0,1.6-0.2,2.3-0.5     c0.5-0.2,1.3-0.5,1.6-1c0.1,0.1,0.3,0.1,0.4,0.2c0.6,0.2,1.2,0.9,0.9,1.5c-0.2,0.5-0.6,0.9-0.7,1.4c-0.1,0.6,0.1,1.4,0.6,1.7     c0.3,0.2,0.8,0.1,1.1,0.3c0.3,0.1,0.7,0.4,0.9,0.6c0.3,0.2,0.5,0.6,0.6,0.9c0.4,0.7,0.9,1.3,1.6,1.6c0.5,0.3,1.1,0.4,1.6,0.7     C74.7,33.1,74.2,33.5,73.9,33.9"/><path class="st1" d="M70.5,32.2c-0.3-0.8-1.3-1.5-2.2-1.7c-0.1,0-0.1,0.1,0,0.1c0.4,0.2,0.8,0.4,1.1,0.7c0.4,0.3,0.7,0.6,1,1     C70.5,32.3,70.6,32.3,70.5,32.2"/></g></g></svg>