<svg fill="#70C041" xmlns="http://www.w3.org/2000/svg" xmlns:xlink="http://www.w3.org/1999/xlink" version="1.1" x="0px" y="0px" viewBox="0 0 100 100" enable-background="new 0 0 100 100" xml:space="preserve"><g><path fill="#70C041" d="M96.82373,40.45166c-3.95886-0.12048-12.6889,4.75531-15.1377,6.17218   c-0.62848-0.95026-1.56262-1.67603-2.71631-2.06036c-2.25146-0.75-5.89648,0.13428-9.16455,1.09912   c-0.32422,0.0957-0.56836,0.17041-0.70508,0.20264c-0.87158-0.01074-1.73535-0.19922-2.64795-0.39844   c-0.27783-0.06104-0.55615-0.12158-0.83594-0.17773c-0.87427-0.17554-1.75146-0.24347-2.62689-0.27325   c-0.03333,0.00092-0.06604-0.00818-0.09906-0.00403c-1.3291-0.039-2.65295,0.0296-3.94983,0.11224   c-0.61963,0.03955-1.23779,0.0791-1.85254,0.10449c-5.30908,0.21924-10.64062,0.31836-15.87549,0.31982   c-1.00128-0.00134-1.99518-0.00708-2.98022-0.01721c-4.03949-1.9375-8.38068-4.04614-9.34155-4.75037   c-2.31836-1.70117-5.0542-1.41846-5.16846-1.40576c-0.31689,0.03516-0.59766,0.21924-0.75684,0.49512l-3.08435,5.36566   c-8.35077,0.2782-8.81445,1.63617-8.93323,2.20856c-0.08643,0.32715-0.31152,1.52979,0.58545,2.87549   c0.7442,1.1167,2.05536,2.00256,3.89423,2.66345l-5.13007,8.92444c-2.53516-0.2168-5.03418,0.24219-5.14795,0.26367   c-0.54297,0.10156-0.8999,0.62402-0.79883,1.1665c0.08984,0.48096,0.51025,0.81641,0.98242,0.81641   c0.06055,0,0.12256-0.00537,0.18408-0.01709c0.02734-0.00488,2.76611-0.50537,5.18408-0.17285   c0.40283,0.05811,0.80078-0.13916,1.00391-0.49219l5.70282-9.92065c1.30176,0.30322,2.76978,0.53448,4.44757,0.67261   c0.789,0.065,1.53967,0.1203,2.26624,0.16974c0.0426,0.112,0.10059,0.22015,0.18542,0.31464   c0.28253,0.31482,6.64233,7.14984,21.29919,7.52802l-0.30164,0.5921l-3.97705,1.1709   c-0.52979,0.15625-0.83301,0.71191-0.67725,1.2417c0.12842,0.43555,0.52686,0.71826,0.95898,0.71826   c0.09375,0,0.18848-0.01367,0.28271-0.04102l4.39014-1.29248c0.26367-0.07764,0.48389-0.26074,0.60889-0.50537l0.95386-1.87207   c0.49164-0.00952,0.97473-0.01172,1.48267-0.03564c2.82764-0.13477,5.13379-0.23584,7.02832-0.31885   c8.79834-0.38574,8.9668-0.39307,11.10449-1.63818l0.11316-0.06512c0.51562,0.40619,1.19794,0.71411,2.05432,0.91376   c3.55713,0.83154,8.9126-1.59766,10.97314-2.63623l3.43311,5.44482c0.13477,0.21387,0.34521,0.36865,0.58984,0.43359   c1.87012,0.49463,4.72656,1.30371,5.22363,1.55176c0.14307,0.07178,0.2959,0.10547,0.4458,0.10547   c0.36719,0,0.72021-0.20264,0.89551-0.55322c0.24707-0.49365,0.04639-1.09424-0.44775-1.34131   c-0.7627-0.38135-3.96143-1.25635-5.22461-1.59473l-3.71631-5.89453c-0.28223-0.44971-0.86768-0.59863-1.33301-0.34033   c-1.86426,1.03955-7.36719,3.57666-10.38525,2.87744c-0.87256-0.20361-1.43555-0.53467-1.58447-0.93213   c-0.20099-0.5376,0.23352-1.32605,0.40375-1.56311c0.56805,0.24567,1.20636,0.40833,1.90143,0.40833   c2.75195,0,4.59375-1.97168,4.78516-3.87842c0.1145-1.14838,0.22528-5.34387,0.26208-6.84631   c0.30109-0.03192,0.5921-0.05103,0.87274-0.05859c-0.25256,1.51959-0.41418,4.41254,1.84711,5.07776   c0.58734,0.17255,1.07013,0.24146,1.49146,0.26019c-0.31049,0.69922-0.76257,1.4212-1.35962,2.1485l-3.18799,1.53076   c-0.49805,0.23877-0.70801,0.83643-0.46875,1.33398c0.17188,0.3584,0.5293,0.56738,0.90186,0.56738   c0.14551,0,0.29297-0.03174,0.43213-0.09863l3.38379-1.62451c0.12695-0.06055,0.23926-0.14746,0.33008-0.25439   c1.93219-2.27716,2.74286-4.64478,2.34454-6.72699c3.19769-1.867,11.21307-6.11859,14.32196-6.05035   c0.56494,0.02881,1.01367-0.41553,1.03174-0.96729C97.80859,40.93115,97.37549,40.46973,96.82373,40.45166z M57.1709,47.22656   c0.62939-0.02588,1.26221-0.06641,1.89697-0.10693c1.18176-0.07526,2.38409-0.13928,3.57068-0.11542   c0.54449,0.51111,1.03479,1.24091,1.46222,2.05194c-1.14655,0.1637-2.9693,0.56085-4.89294,1.01862   c-1.43793-0.41083-3.32666-0.6734-5.26447-0.83789c1.01642-0.9472,1.94171-1.77728,2.23053-1.98041   C56.50616,47.24371,56.83887,47.2403,57.1709,47.22656z M51.18359,52.12744c-0.1156,0.03137-0.21545,0.08911-0.30804,0.1543   c-0.55353-0.47815-1.13507-0.91162-1.71155-1.2868c1.58575,0.03705,3.44,0.11987,5.2066,0.28876   C52.62677,51.73615,51.33472,52.0863,51.18359,52.12744z M33.98199,54.6626c1.48944-0.0387,2.58228-0.11493,3.29517-0.18359   c-0.12201,2.00214-0.44348,3.91425-0.74689,4.34229c-0.04449,0.03284-0.07123,0.0791-0.10876,0.11768   c-1.08972-0.29816-2.07794-0.63251-2.99164-0.98285C33.81757,56.90759,33.94476,55.56549,33.98199,54.6626z M21.05237,47.21155   c2.22461-0.04718,5.02631-0.02576,8.5614,0.11169c0.44763,0.01752,0.90839,0.03082,1.36249,0.04633   c0.04297,0.07196,0.0788,0.14752,0.14142,0.20905c0.08942,0.08807,0.71027,0.69739,1.64032,1.58832   c-6.09326,0.08179-10.5174-0.80133-12.1463-1.18878L21.05237,47.21155z M33.86292,47.45343   c0.36053,0.00867,0.71759,0.01868,1.0813,0.02612c0.57672,0.57477,7.95746,7.86871,12.98944,10.18903l-0.50403,0.98926   c-0.54169-0.33954-1.10541-0.7121-1.68011-1.09485l-1.06494-0.70508C41.81177,54.97571,36.3783,49.8681,33.86292,47.45343z    M51.24176,49.06348c-2.72772-0.12445-5.10693-0.10095-5.86102-0.08844c-0.89374-0.43964-1.89301-0.92377-2.96503-1.43909   c3.50549-0.01447,7.05536-0.08051,10.61658-0.1853c-0.57648,0.53131-1.18323,1.10516-1.73688,1.63568   C51.27185,49.00891,51.26263,49.03925,51.24176,49.06348z M48.84131,55.88702c-3.42456-1.54688-8.30328-5.87238-10.84222-8.24963   c0.35193,0.1687,0.71045,0.34039,1.07709,0.51593c3.51074,1.68066,6.82715,3.26807,8.22656,4.05176   c0.92535,0.51813,1.77435,1.13824,2.49744,1.79993L48.84131,55.88702z M39.24548,55.11096   c1.00879,0.87134,1.99139,1.68475,2.87842,2.36456c-0.07141,0.99402-0.21185,2.05334-0.31335,2.38092   c-0.02216,0.03101-0.03131,0.06763-0.04956,0.10059c-1.17596-0.14081-2.2926-0.31714-3.33026-0.53595   C38.836,58.50128,39.11096,57.07031,39.24548,55.11096z M44.0116,58.8111l0.62952,0.41693   c0.55298,0.36816,1.07684,0.7135,1.5849,1.03619c-0.84045-0.01227-1.64606-0.05194-2.43073-0.10657   C43.87231,59.83307,43.94574,59.39764,44.0116,58.8111z M51.81396,59.19873c-0.38574,0.62256-0.7251,0.75879-0.94727,0.80713   c-0.43536,0.09595-1.01825-0.06506-1.68909-0.37286l2.04919-4.02185c0.39978,0.56793,0.69714,1.13342,0.83423,1.66327   C52.24805,57.99854,52.16699,58.62793,51.81396,59.19873z M24.4209,41.35156c0.71533,0.01611,2.10107,0.17188,3.28711,1.04199   c0.75647,0.55438,2.76019,1.58978,5.74695,3.04956c-1.27423-0.03259-2.53516-0.07001-3.76306-0.11792   c-2.93231-0.11426-5.3949-0.15283-7.47693-0.13611L24.4209,41.35156z M13.24072,49.27393   c-0.32764-0.46143-0.38525-0.86426-0.38525-1.0918c0.41046-0.19977,1.78998-0.67334,5.84137-0.88641l-2.2561,3.92487   C14.48651,50.57654,13.61755,49.8045,13.24072,49.27393z M18.4483,51.74158l1.12677-1.96014   c1.02368,0.27686,5.57391,1.39435,12.34778,1.39435c0.89014,0,1.81934-0.01953,2.7832-0.0625   c0.03101-0.0014,0.05652-0.01746,0.08667-0.02161c0.49915,0.46649,1.02545,0.95325,1.57147,1.45251   c-2.23572,0.16315-6.83502,0.30597-14.34467-0.31323C20.62177,52.11584,19.44891,51.94476,18.4483,51.74158z M31.97614,54.68811   c-0.05109,0.93463-0.18939,1.90869-0.38306,2.49945c-2.00232-0.92902-3.4671-1.89215-4.41907-2.61975   C29.01715,54.65247,30.61865,54.68756,31.97614,54.68811z M56.26807,59.896c-0.79755,0.03491-1.68646,0.07397-2.63788,0.11646   c0.52527-0.97662,0.66473-2.08655,0.36688-3.23853c-0.26764-1.03577-0.84027-2.01764-1.57068-2.91028   c0.1817-0.04865,0.37225-0.09949,0.57385-0.15302c1.47742,1.05341,5.17676,3.76801,6.09497,4.78839   c0.19727,0.21924,0.46973,0.33105,0.74365,0.33105c0.23828,0,0.47705-0.08447,0.66846-0.25684   c0.41064-0.36914,0.44385-1.00146,0.07422-1.41211c-0.87183-0.96912-3.41766-2.8916-5.07379-4.10522   c1.71368-0.44043,3.62042-0.91534,5.29852-1.30151c0.51819,0.90216,1.87183,3.76868,1.06897,7.8703   C60.58301,59.7063,58.81274,59.78442,56.26807,59.896z M66.5163,58.492l-0.06219,0.03583   c-0.84601,0.49249-1.27704,0.74133-2.51636,0.91217c0.6015-3.82086-0.40778-6.69415-1.10883-8.12708   c0.91266-0.18567,1.6524-0.31207,2.07343-0.33539c0.02026-0.00116,0.03662-0.01239,0.05652-0.01471   c0.47174,1.2226,0.79614,2.37799,0.9425,3.02594c0.02881,0.12793,0.08301,0.24951,0.15869,0.35693   c0.03601,0.05096,0.45258,0.62695,1.15747,1.23602C66.96741,55.95044,66.25287,57.16919,66.5163,58.492z M73.59766,52.99268   c-0.08643,0.86279-1.01074,2.07764-2.79492,2.07764c-1.4624,0-2.65088-1.31006-3.00293-1.74219   c-0.20441-0.83197-0.99176-3.75861-2.41278-6.04321c0.21338,0.04413,0.42633,0.08929,0.63837,0.1355   c0.78674,0.17206,1.59583,0.34399,2.44556,0.41193c0.42389,1.18115,0.92554,2.83582,0.92554,3.63544c0,0.55225,0.44775,1,1,1   s1-0.44775,1-1c0-1.09778-0.52325-2.81366-0.90564-3.922c0.76599-0.22626,2.01941-0.58966,3.35046-0.87048   C73.79755,48.38953,73.69623,52.0061,73.59766,52.99268z M78.69543,46.62787c0.85138,0.39581,1.48163,1.08685,1.73035,1.97565   c0.08936,0.3194,0.12158,0.65778,0.11652,1.00653c-0.18048,0.04614-0.61407,0.06903-1.40802-0.16425   C78.53003,49.26813,78.49524,47.85474,78.69543,46.62787z"></path></g></svg>