<svg xmlns="http://www.w3.org/2000/svg" xmlns:xlink="http://www.w3.org/1999/xlink" version="1.1" x="0px" y="0px" viewBox="0 8.75 100 100" enable-background="new 0 0 100 100" xml:space="preserve"><path fill="#554422" d="M22,32.856c-10.408,0-22,6.928-22,16.876v35.416c0,1.1,0.896,2,2,2h40c1.104,0,2-0.9,2-2V49.672  C44,39.76,32.408,32.856,22,32.856z M28,51.145h-4v16c0,1.104-0.896,2-2,2s-2-0.896-2-2v-16h-4c-1.104,0-2-0.896-2-2  c0-1.104,0.896-2,2-2h4v-4c0-1.104,0.896-2,2-2s2,0.896,2,2v4h4c1.104,0,2,0.896,2,2C30,50.248,29.104,51.145,28,51.145z"/><path fill="#555533" d="M72,29.496v-3.832c0-9.908-11.592-16.812-22-16.812S28,15.78,28,25.728v3.764c10.492,2.148,20,9.704,20,20.172v25.477h4  V49.725C52,39.228,61.508,31.652,72,29.496z M56,27.144h-4v12c0,1.104-0.896,2-2,2c-1.104,0-2-0.896-2-2v-12h-4  c-1.104,0-2-0.896-2-2s0.896-2,2-2h4v-4c0-1.104,0.896-2,2-2c1.104,0,2,0.896,2,2v4h4c1.1,0,2,0.896,2,2S57.1,27.144,56,27.144z"/><path fill="#445544" d="M78,32.856c-10.408,0-22,6.928-22,16.876v35.416c0,1.1,0.9,2,2,2h40c1.1,0,2-0.9,2-2V49.672  C100,39.76,88.408,32.856,78,32.856z M84,51.145h-4v16c0,1.104-0.9,2-2,2s-2-0.896-2-2v-16h-4c-1.1,0-2-0.896-2-2c0-1.104,0.9-2,2-2  h4v-4c0-1.104,0.9-2,2-2s2,0.896,2,2v4h4c1.1,0,2,0.896,2,2C86,50.248,85.1,51.145,84,51.145z"/></svg>