<svg xmlns="http://www.w3.org/2000/svg" xmlns:xlink="http://www.w3.org/1999/xlink" version="1.1" x="0px" y="0px" viewBox="-10 -10 120 120" enable-background="new 0 0 100 100" xml:space="preserve"><g><path fill="#338833" d="M55.6,42.8C55.6,42.8,55.6,42.8,55.6,42.8c5.9,0,10.2-1.8,12-5c2.4-4.3,2.3-10.4-0.3-16.3   c-2.3-5.2-6.1-9-9.7-9.9c-4.4-1-9.7-0.9-12.9,0.3c-4.5,1.7-8.1,5.2-10,9.9c-1.8,4.2-1.9,8.9-0.4,12.4   C36.3,39.1,47.3,42.8,55.6,42.8z M45.4,13.8c1.5-0.6,3.6-0.9,6-0.9c1.9,0,3.9,0.2,5.7,0.6c3,0.7,6.3,4.1,8.4,8.7   c0,0.1,0,0.1,0.1,0.2c-1.9-2.1-5.3-4.2-9.1-5.5c0,0-0.1,0-0.1,0c-1-0.4-2-0.7-3.1-0.9c-1.6-0.3-3.1-0.5-4.7-0.5   c-3.6,0-8.4,1.1-11.5,5.8C38.9,17.8,41.8,15.2,45.4,13.8z M61.8,26.4c0,4.3-2.6,7.9-6.3,9.3c-0.2,0-0.3,0-0.5,0   c2.1-1.2,3.8-3.7,4.4-6.8c1.2-0.6,1.9-1.3,1.9-2.1c0-0.8-0.6-1.5-1.8-2.2c-0.4-2.8-1.6-5.3-3.3-6.8c0.7,0.3,1.4,0.5,2.1,0.8   C60.4,20.6,61.8,23.3,61.8,26.4z M40.2,33.9c-0.3-0.4-0.5-0.9-0.6-1.5c-1-4.7,2.2-13.3,5.1-15.4c0.1,0,0.1,0,0.2-0.1   c0.4,0,1.3,0,3.1,0c-3.5,1.6-6,5.3-6,9.5c0,3.9,2.1,7.3,5.2,9.1c-1.5-0.2-3.1-0.4-4.7-0.7C41.7,34.6,40.9,34.3,40.2,33.9z    M58.9,24.4c-1.7-0.8-4.3-1.3-7.2-1.4c-2.5,0-4.9,0.4-6.6,0.9c0.7-3.6,2.8-7,5.5-7c0.2,0,0.3,0,0.5,0h0.1c0.8,0,1.6,0,2.4,0.2   c0.3,0.1,0.6,0.1,0.9,0.2C56.8,18.6,58.4,21.2,58.9,24.4z M52.6,35.8L52.6,35.8c-0.8,0-1.6,0-2.4-0.1c-2.4-0.8-4.3-3.3-5-6.5   c1.7,0.6,3.9,1,6.4,1.1c2.8,0,5.4-0.4,7.2-1.1c-0.7,3.3-2.7,5.8-5.1,6.6C53.3,35.8,53,35.8,52.6,35.8z M42.5,25.4   c0.4-4,3.1-7.3,6.7-8.5c-2.3,1.2-4.1,3.9-4.6,7.2C43.7,24.5,43,24.9,42.5,25.4z M42.6,27.7c0.4,0.5,1.2,1,2.1,1.4   c0.6,2.9,2.2,5.3,4.2,6.6c-0.1,0-0.2,0-0.3,0C45.4,34.3,43.1,31.3,42.6,27.7z M39.1,32.3c0.1,0.4,0.2,0.7,0.3,1   c-0.7-0.5-1.3-1.2-1.8-1.9c-2.2-3.5-0.5-8.2-0.5-8.2c1.5-3.1,3.8-4.9,6.1-5.8C40.6,20.7,38.2,28,39.1,32.3z M56.9,35.6   c3.2-1.8,5.3-5.2,5.3-9.2c0-2.7-1-5.2-2.7-7c1,0.5,2,1.1,2.9,1.7c1.2,5.8,0.8,9.8-1.1,12.2c-0.9,1.2-2.2,1.9-4,2.3   C57.2,35.5,57.1,35.6,56.9,35.6z M61.7,33.8c2-2.5,2.4-6.6,1.3-12.3c1.9,1.4,3,2.9,3.1,4c0.2,3.1-0.5,5.5-2.1,7.1   c-0.8,0.8-1.8,1.5-3.1,2C61.2,34.4,61.5,34.1,61.7,33.8z M35.7,25c-0.3,1.9-0.4,4.6,1.1,7c1.6,2.5,4.5,4,8.7,4.4   c2.2,0.2,4.1,0.4,5.8,0.4c0.7,0,1.3,0.1,1.9,0.1c0,0,0,0,0,0c1.1,0,2.1-0.1,3-0.3c3.9-0.4,6.7-1.5,8.5-3.4c1.4-1.4,2.1-3.3,2.3-5.7   c0.6,3.4,0.4,6.7-1,9.2c-1.9,3.4-7,4-10,4v0c-9,0-18.1-3.6-19.7-7.3C35.2,31,34.9,28,35.7,25z"/><path fill="#115511" d="M78.2,47.3c-0.3-2.5-4.4-4.8-6.5-5.9c0,0,0.1-0.1,0.1-0.1c4.2-5.9,8.5-11.9,5.2-19.6   C72.3,10.5,66.9,4,53.6,4c-1.1,0-2.2,0-3.6,0.1C43.2,4.5,34.1,8,29.5,14.9c-3.8,5.8-4.2,13-1.2,21.4c0.8,2.3,1.7,4.4,2.4,6.3   c-0.3,0-0.6,0.1-0.9,0.1c-3.3,0.4-6.2,0.8-7.5,2.6c-0.6,0.8-0.8,1.7-0.7,2.9c0.2,1.5,1.2,4.1,5.7,4.1c2,0,4.4-0.5,7.1-1.6   c0.3,0.5,0.5,1,0.7,1.5c3.8,7.7,4.7,9.6-0.1,16.6c-3.2,4.8-4,8.9-2.4,12.1c0.5,0.9,1.2,1.7,2,2.5c-1.8,2.8-3.1,6.6-2,9.1   c0.5,1.3,1.6,2.1,3.1,2.3c0.6,0.1,1.1,0.1,1.6,0.1c4.4,0,5.7-3.9,6.3-8.2c1.2,0.1,2.5,0.3,3.9,0.3H49l0,0c3,0,5.8-0.4,8.3-0.7   c0.2,2.4,1.3,8.6,4.6,9.5c0.4,0.1,0.9,0.2,1.4,0.2c3.3,0,5.7-3,5.8-3.2c0-0.1,0.1-0.1,0.1-0.2c1.8-3.9,0-7.5-1.7-9.6   c0.8-0.6,1.4-1.3,1.9-2.2c2.2-3.5,1.5-8.7-2.1-15.6c-2.9-5.7-2.7-10.4-1.1-14.6c1.3,1.2,3.5,2.9,5.6,2.9c0.3,0,0.6,0,0.9-0.1   C76.5,52.6,78.6,50.2,78.2,47.3z M27.3,50.4l-1.3-4.9c0.9-0.3,2-0.4,3.1-0.6l1.7,5C29.6,50.2,28.4,50.4,27.3,50.4   C27.4,50.4,27.4,50.4,27.3,50.4z M23.7,48c-0.1-0.8,0.1-1.2,0.3-1.4c0.3-0.4,0.9-0.7,1.6-0.9l1.3,4.7C24,50.2,23.8,48.5,23.7,48z    M31.4,49.8l-1.7-4.9c0.2,0,0.3,0,0.5-0.1c0.4-0.1,0.9-0.1,1.3-0.2l1.4,4.7C32.4,49.5,31.9,49.6,31.4,49.8z M31.2,16   c4.8-7.3,14.2-9.7,19-9.9C51.5,6,52.6,6,53.6,6c9.5,0,15.7,2.6,21.6,16.4c2.9,6.7-0.8,11.8-5,17.7c-0.2,0.3-0.4,0.6-0.6,0.9   c-0.1,0.1-0.1,0.1-0.2,0.2l-0.3,0.4c-1.4,2-2.8,4.2-3.9,6.4L65,48.4c-0.1,0.1-0.1,0.2-0.1,0.4c-0.3,0.6-0.6,1.3-0.8,2   c-1.2,1.3-3,2.3-5.3,2.8c-6.4,1.5-15.8-0.4-22.9-4.5c-1.6-3.3-3.6-7.6-5.7-13.4C27.4,27.9,27.7,21.2,31.2,16z M63.4,60.3   c-0.1,0-0.3,0.1-0.4,0.2c-4.7,5.5-18.9,2.2-22.6,0.3c0-1.5-0.4-3-1.1-4.7c5.6,2.9,10.5,4.1,14.5,4.1c4,0,7.1-1.1,9.2-2.8   C63.1,58.4,63.2,59.4,63.4,60.3z M63,56.2c-5.7,5.1-16.1,3.1-24.4-1.5c-0.5-1-1-2.1-1.6-3.3c-0.1-0.2-0.2-0.5-0.4-0.7   c5.3,2.8,11.8,4.5,17.3,4.5c1.8,0,3.5-0.2,5.1-0.6c1.8-0.4,3.3-1.1,4.5-2C63.3,53.7,63.1,54.9,63,56.2z M40.2,91.6l-5.6-2.3   c0.1-0.8,0.4-1.6,0.7-2.4l6.1,1.8C41,90,40.6,91,40.2,91.6z M37.4,92.9c-0.4,0-0.8,0-1.2-0.1c-0.8-0.1-1.3-0.5-1.6-1.1   c-0.2-0.5-0.2-1.2-0.2-1.9l5.4,2.2C39.1,92.8,38.2,92.9,37.4,92.9z M41.4,88.2l-6-1.8c0.3-0.6,0.6-1.2,1-1.8l0.3,0.1   c1.4,0.8,3.1,1.3,5,1.7C41.6,87,41.5,87.7,41.4,88.2z M63.3,94c-0.3,0-0.6,0-0.8-0.1c-0.7-0.2-1.2-0.9-1.7-2l7.1-1.6   c-0.1,0.5-0.2,0.9-0.4,1.4C67.1,92.1,65.4,94,63.3,94z M68,89.8l-7.3,1.7c-0.4-1-0.7-2.1-0.9-3.2l7.4-2.1   C67.7,87.1,68.1,88.4,68,89.8z M66.9,85.7l-7.2,2.1c-0.1-0.6-0.2-1.1-0.2-1.6l0.1,0c2.4-0.4,4.5-1,6.3-1.9   C66.1,84.5,66.5,85,66.9,85.7z M67.7,80c-0.4,0.7-1.1,1.3-1.8,1.9c-0.1,0-7.8,2.7-7.8,2.7c-3,0.4-6.2,0.5-8.8,0.5c0,0,0,0,0,0h-1.6   c-1.5,0-2.9-0.2-4.1-0.3c-0.1-0.1-6-1.9-6-1.9c-1.4-0.8-2.4-1.7-3-2.8c-1.3-2.4-0.5-6.1,2.3-10.1c0.7-1,1.2-1.9,1.7-2.7   c4.1,2.1,10.2,3.3,15.9,3.3c5,0,9.5-0.9,11.7-2.9C68.8,73.1,69.3,77.3,67.7,80z M65.5,66.4c0,0.1,0.1,0.1,0.1,0.2   c-4.1,4.3-19.3,3.5-26.7-0.3c0.8-1.6,1.2-3,1.4-4.4c2.6,1.1,8.2,2.6,13.5,2.6c3.9,0,7.6-0.8,9.8-3.2C64,62.9,64.6,64.6,65.5,66.4z    M68.7,50.2l3.5-6.3c1,0.6,1.9,1.2,2.7,1.9l-4.7,5.4C69.7,50.9,69.2,50.6,68.7,50.2z M70.6,43.1c0.4,0.2,0.8,0.4,1.2,0.6l-3.5,6.2   c-0.5-0.4-0.9-0.7-1.2-1.1L70.6,43.1z M72.2,51.6c-0.1,0-0.3,0-0.4,0c-0.4,0-0.8-0.1-1.2-0.3l4.6-5.2c0.5,0.5,0.9,1,1,1.4   C76.6,50.3,73.3,51.3,72.2,51.6z"/></g></svg>