<svg xmlns="http://www.w3.org/2000/svg" xmlns:xlink="http://www.w3.org/1999/xlink" version="1.1" x="0px" y="0px" viewBox="2 4 96 96" enable-background="new 0 0 100 100" xml:space="preserve"><g><path fill="#005500" d="M53.5,37.6L53.5,37.6c0.4,0,0.7,0,1,0c2.4-0.8,4.4-3.3,5.1-6.6c-1.8,0.7-4.3,1.2-7.2,1.1   c-2.5,0-4.7-0.4-6.4-1.1c0.7,3.2,2.6,5.6,5,6.5C52,37.5,52.8,37.6,53.5,37.6z"/><path fill="#005500" d="M62.7,28.1c0-3.1-1.4-5.8-3.5-7.7c-0.7-0.3-1.4-0.6-2.1-0.8c1.7,1.5,3,4,3.3,6.8c1.1,0.6,1.8,1.4,1.8,2.2   c0,0.8-0.7,1.6-1.9,2.1c-0.6,3-2.2,5.5-4.4,6.8c0.2,0,0.3,0,0.5,0C60.1,36,62.7,32.4,62.7,28.1z"/><path fill="#005500" d="M49.8,37.4c-2-1.2-3.6-3.6-4.2-6.6c-0.9-0.4-1.6-0.9-2.1-1.4c0.5,3.6,2.8,6.6,6,7.9   C49.6,37.4,49.7,37.4,49.8,37.4z"/><path fill="#005500" d="M63.9,23.2c1.1,5.8,0.7,9.9-1.3,12.3c-0.2,0.3-0.5,0.5-0.8,0.8c1.3-0.5,2.3-1.2,3.1-2   c1.6-1.6,2.2-4,2.1-7.1C66.9,26.1,65.8,24.6,63.9,23.2z"/><path fill="#005500" d="M52.6,24.7c2.9,0,5.5,0.6,7.2,1.4c-0.5-3.2-2.2-5.8-4.4-7c-0.3-0.1-0.6,0-0.9-0.1c-0.8-0.2-1.6-0.1-2.4-0.1   h-0.1c-0.2,0-0.3,0-0.5,0c-2.7,0-4.8,3.3-5.5,6.8C47.8,25.2,50.1,24.7,52.6,24.7z"/><path fill="#005500" d="M62.2,35c1.9-2.4,2.3-6.3,1.1-12.2c-0.8-0.6-1.8-1.2-2.9-1.7c1.7,1.9,2.7,4.3,2.7,7c0,4-2.2,7.4-5.3,9.2   c0.1,0,0.3,0,0.4-0.1C60,36.9,61.3,36.2,62.2,35z"/><path fill="#005500" d="M43.5,27.2c0.4-0.5,1.1-0.9,2-1.3c0.6-3.3,2.3-6,4.6-7.2C46.5,19.8,43.8,23.1,43.5,27.2z"/><path fill="#005500" d="M45.6,18.7c-2.9,2.1-6.1,10.7-5.1,15.4c0.1,0.6,0.3,1.1,0.6,1.5c0.7,0.4,1.5,0.7,2.4,1   c1.6,0.3,3.1,0.5,4.7,0.7c-3.1-1.8-5.2-5.2-5.2-9.1c0-4.2,2.5-7.9,6-9.5c-1.8,0-2.8,0-3.1,0C45.8,18.7,45.7,18.7,45.6,18.7z"/><path fill="#224422" d="M79.2,49c-0.3-2.5-4.4-4.8-6.5-5.9c0,0,0.1-0.1,0.1-0.1C77,37.1,81.3,31,78,23.3   C73.2,12.2,67.9,5.7,54.5,5.7c-1.1,0-2.2,0-3.6,0.1c-6.9,0.4-15.9,3.9-20.5,10.8c-3.8,5.8-4.2,13-1.2,21.4c0.8,2.3,1.7,4.4,2.4,6.3   c-0.3,0-0.6,0.1-0.9,0.1c-3.3,0.4-6.2,0.8-7.5,2.6c-0.6,0.8-0.8,1.7-0.7,2.9c0.2,1.5,1.2,4.1,5.7,4.1c2,0,4.4-0.5,7.1-1.6   c0.3,0.5,0.5,1,0.7,1.5c3.8,7.7,4.7,9.6-0.1,16.6c-3.2,4.8-4,8.9-2.4,12.1c0.5,0.9,1.2,1.7,2,2.5c-1.8,2.8-3.1,6.6-2,9.1   c0.5,1.3,1.6,2.1,3.1,2.3c0.6,0.1,1.1,0.1,1.6,0.1c4.4,0,5.7-3.8,6.3-8.1c1.2,0.1,2.5,0.4,3.9,0.4H50l0,0c2.9,0,5.8-0.7,8.4-1   c0.2,2.4,1.2,8.6,4.5,9.5c0.4,0.1,0.9,0.2,1.3,0.2c3.3,0,5.7-3,5.8-3.2c0-0.1,0.1-0.1,0.1-0.2c1.8-3.9,0-7.6-1.8-9.6   c0.7-0.6,1.4-1.3,1.9-2.1c2.2-3.5,1.6-8.7-2-15.6c-2.9-5.7-2.7-10.4-1.1-14.6c1.3,1.2,3.5,2.9,5.6,2.9c0.3,0,0.6,0,0.9-0.1   C77.4,54.3,79.5,51.9,79.2,49z M28.3,53.3C28.3,53.3,28.3,53.3,28.3,53.3c-0.2,0-0.3-0.1-0.3-0.2l-1.8-6.8c0-0.1,0-0.3,0.2-0.3   c0.1,0,0.3,0,0.3,0.2l1.8,6.8C28.6,53.2,28.5,53.3,28.3,53.3z M32.5,52.7C32.5,52.7,32.5,52.7,32.5,52.7c-0.2,0-0.3-0.1-0.3-0.2   l-2.4-6.9c0-0.1,0-0.3,0.2-0.3c0.1,0,0.3,0,0.3,0.2l2.4,6.9C32.7,52.5,32.6,52.7,32.5,52.7z M37.6,52.4c-0.2-0.5-0.5-1-0.8-1.6   c7.1,4.2,16.5,6,22.9,4.5c2.3-0.5,4-1.5,5.3-2.8c-0.2,0.6-0.4,1.2-0.5,1.8c-1.2,0.9-2.7,1.6-4.5,2c-1.5,0.4-3.3,0.6-5.1,0.6   C49.4,56.8,42.9,55.2,37.6,52.4z M41.3,62.5c3.7,1.8,17.9,5.2,22.6-0.3c0.1-0.1,0.2-0.2,0.4-0.2c0.1,0.3,0.1,0.6,0.2,1   c-2.2,2.4-5.9,3.2-9.8,3.2c-5.3,0-10.9-1.5-13.5-2.6C41.3,63.2,41.3,62.9,41.3,62.5z M40.2,57.9c-0.2-0.5-0.4-1-0.6-1.5   c8.3,4.6,18.7,6.7,24.4,1.5c0,0.4,0,0.9,0,1.3c-2.2,1.6-5.3,2.8-9.2,2.8C50.7,62,45.8,60.8,40.2,57.9z M41.9,94.2   C41.8,94.2,41.8,94.1,41.9,94.2l-7.2-2.9c-0.1-0.1-0.2-0.2-0.1-0.3c0.1-0.1,0.2-0.2,0.3-0.1l7.1,2.9c0.1,0.1,0.2,0.2,0.1,0.3   C42.1,94.1,42,94.2,41.9,94.2z M42.9,90.6C42.9,90.6,42.9,90.6,42.9,90.6l-7.7-2.3c-0.1,0-0.2-0.2-0.2-0.3c0-0.1,0.2-0.2,0.3-0.2   l7.6,2.3c0.1,0,0.2,0.2,0.2,0.3C43.1,90.6,43,90.6,42.9,90.6z M70.5,91.3c0,0.1-0.1,0.3-0.2,0.3l-9.6,2.2c0,0,0,0-0.1,0   c-0.1,0-0.2-0.1-0.2-0.2c0-0.1,0.1-0.3,0.2-0.3l9.6-2.2C70.3,91.1,70.5,91.2,70.5,91.3z M68.3,87.2c0.1,0,0.3,0,0.3,0.2   c0,0.1,0,0.3-0.2,0.3l-8.7,2.5c0,0,0,0-0.1,0c-0.1,0-0.2-0.1-0.2-0.2c0-0.1,0-0.3,0.2-0.3L68.3,87.2z M66.6,68.3   c0.2,0.3,0.3,0.6,0.5,0.9c-2.3,2-6.8,2.9-11.7,2.9c-5.6,0-11.8-1.2-15.9-3.3c0.2-0.3,0.3-0.6,0.5-0.9   C47.3,71.9,62.5,72.6,66.6,68.3z M56.5,44.5C56.5,44.5,56.5,44.5,56.5,44.5c-8.3,0-19.3-3.7-21.4-8.5c-1.5-3.5-1.4-8.2,0.4-12.4   c2-4.7,5.5-8.2,10-9.9c3.1-1.2,8.5-1.4,12.9-0.3c3.7,0.8,7.4,4.6,9.7,9.9c2.6,5.9,2.7,12,0.3,16.3C66.7,42.7,62.4,44.5,56.5,44.5z    M68.9,52.9c0,0-0.1,0-0.1,0c-0.1-0.1-0.2-0.2-0.1-0.3l4.5-8c0.1-0.1,0.2-0.2,0.3-0.1c0.1,0.1,0.2,0.2,0.1,0.3l-4.5,8   C69.1,52.8,69,52.9,68.9,52.9z M76.9,47.1L71,53.7c0,0.1-0.1,0.1-0.2,0.1c-0.1,0-0.1,0-0.2-0.1c-0.1-0.1-0.1-0.2,0-0.4l5.8-6.6   c0.1-0.1,0.2-0.1,0.4,0C76.9,46.8,77,47,76.9,47.1z"/><path fill="#005500" d="M65.6,35c-1.8,1.9-4.5,3.1-8.5,3.5c-0.9,0.1-1.9,0.4-3,0.4c0,0,0,0,0,0c-0.6,0-1.3-0.2-1.9-0.3   c-1.7,0-3.7-0.3-5.8-0.5c-4.2-0.4-7.2-2-8.7-4.5c-1.5-2.4-1.4-5.2-1.1-7.1c-0.8,3-0.7,6,0.4,8.4c1.6,3.7,11.3,7.3,19.5,7.3   c0,0,0,0,0,0c3,0,8.3-0.5,10.2-3.9c1.4-2.5,1.8-5.7,1.2-9.2C67.8,31.7,67,33.6,65.6,35z"/><path fill="#005500" d="M49.5,17.2c1.5,0,3.1,0.2,4.7,0.5c1.1,0.1,2.1,0.4,3.1,0.9c0,0,0.1,0,0.1,0c3.9,1.3,7.3,3.4,9.1,5.5   c0-0.1,0-0.1-0.1-0.2c-2-4.6-5.3-8-8.4-8.7c-1.8-0.4-3.8-0.6-5.7-0.6c-2.3,0-4.5,0.3-6,0.9c-3.6,1.4-6.4,4-8.3,7.5   C41.1,18.3,45.8,17.2,49.5,17.2z"/><path fill="#005500" d="M40.3,35.1c-0.1-0.3-0.2-0.6-0.3-1c-0.9-4.3,1.5-11.7,4.2-14.9c-2.3,0.9-4.6,2.7-6.1,5.8   c0,0-1.7,4.7,0.5,8.2C39,33.9,39.6,34.5,40.3,35.1z"/></g></svg>