<svg xmlns:dc="http://purl.org/dc/elements/1.1/" xmlns:cc="http://creativecommons.org/ns#" xmlns:rdf="http://www.w3.org/1999/02/22-rdf-syntax-ns#" xmlns:svg="http://www.w3.org/2000/svg" xmlns="http://www.w3.org/2000/svg" xmlns:sodipodi="http://sodipodi.sourceforge.net/DTD/sodipodi-0.dtd" xmlns:inkscape="http://www.inkscape.org/namespaces/inkscape" viewBox="4 4 24 25" version="1.1" x="0px" y="0px"><g transform="translate(0,-1020.3622)"><g transform="matrix(0.70710678,-0.70710678,0.70710678,0.70710678,-727.89285,315.33551)"><g style="" transform="translate(9.6135846,-9.7746952)" fill="#ffffff"><path style="color:#000000;font-style:normal;font-variant:normal;font-weight:normal;font-stretch:normal;font-size:medium;line-height:normal;font-family:sans-serif;text-indent:0;text-align:start;text-decoration:none;text-decoration-line:none;text-decoration-style:solid;text-decoration-color:#000000;letter-spacing:normal;word-spacing:normal;text-transform:none;direction:ltr;block-progression:tb;writing-mode:lr-tb;baseline-shift:baseline;text-anchor:start;white-space:normal;clip-rule:nonzero;display:inline;overflow:visible;visibility:visible;opacity:1;isolation:auto;mix-blend-mode:normal;color-interpolation:sRGB;color-interpolation-filters:linearRGB;solid-color:#000000;solid-opacity:1;fill:#000000;fill-opacity:1;fill-rule:evenodd;stroke:none;stroke-width:1px;stroke-linecap:round;stroke-linejoin:round;stroke-miterlimit:4;stroke-dasharray:none;stroke-dashoffset:0;stroke-opacity:1;color-rendering:auto;image-rendering:auto;shape-rendering:auto;text-rendering:auto;enable-background:accumulate" d="M 21.279297 5.6289062 C 19.559337 5.6285464 17.840362 6.2874298 16.527344 7.6054688 L 16 8.1328125 L 15.474609 7.6054688 C 12.897912 5.0190136 8.7723434 5.0050285 6.1367188 7.4941406 A 0.50005 0.50005 0 0 0 5.96875 7.6035156 L 5.96875 7.6054688 C 3.3459809 10.243794 3.3445924 14.504588 5.9707031 17.140625 L 6.8496094 18.023438 L 15.646484 26.853516 A 0.50005 0.50005 0 0 0 16.353516 26.853516 L 25.150391 18.023438 L 26.03125 17.142578 A 0.50005 0.50005 0 0 0 26.033203 17.142578 C 28.656026 14.504199 28.659228 10.243261 26.033203 7.6074219 C 25.324142 6.8956878 24.493627 6.3841891 23.611328 6.0566406 A 0.50004988 0.50004988 0 0 0 23.361328 5.9667969 C 23.361328 5.9667969 23.359375 5.9667969 23.359375 5.9667969 C 22.684148 5.7464792 21.982307 5.6290533 21.279297 5.6289062 z M 10.720703 6.6191406 C 12.181111 6.6194916 13.641995 7.1846315 14.765625 8.3125 L 15.646484 9.1933594 A 0.50005 0.50005 0 0 0 16.353516 9.1933594 L 17.234375 8.3125 A 0.50005 0.50005 0 0 0 17.236328 8.3125 C 18.637069 6.902933 20.563795 6.3742439 22.361328 6.7246094 L 21.033203 8.0546875 A 0.50005 0.50005 0 0 0 21.007812 8.078125 L 16.763672 12.320312 A 0.50005 0.50005 0 0 0 16.730469 12.357422 L 13.582031 15.503906 C 12.804677 16.28126 12.804638 17.554638 13.582031 18.332031 L 15.703125 20.453125 C 16.480447 21.230447 17.755849 21.230479 18.533203 20.453125 L 21.714844 17.271484 L 25.957031 13.027344 L 26.990234 11.994141 C 27.095288 13.584497 26.543861 15.210791 25.324219 16.4375 L 24.443359 17.318359 L 16.001953 25.792969 L 7.5585938 17.318359 L 6.6796875 16.435547 C 4.4339178 14.181289 4.4329031 10.57515 6.6738281 8.3164062 A 0.50005 0.50005 0 0 0 6.6777344 8.3125 C 7.7999716 7.1831917 9.2602953 6.6187896 10.720703 6.6191406 z M 23.447266 7.0527344 C 24.12808 7.335023 24.76787 7.7540522 25.324219 8.3125 C 26.038774 9.0297085 26.523244 9.8850981 26.783203 10.789062 L 25.603516 11.966797 L 22.068359 8.4316406 L 23.447266 7.0527344 z M 10.75 7.6289062 C 9.0537861 7.6289124 7.4848239 8.5349614 6.6367188 10.003906 C 5.7885986 11.472866 5.7885493 13.284887 6.6367188 14.753906 A 0.50050437 0.50050437 0 1 0 7.5039062 14.253906 C 6.8336037 13.092944 6.8335866 11.664817 7.5039062 10.503906 C 8.1741452 9.3429352 9.4097363 8.6292026 10.75 8.6289062 A 0.50005 0.50005 0 1 0 10.75 7.6289062 z M 21.361328 9.1386719 L 24.896484 12.673828 L 22.923828 14.646484 L 21.361328 16.210938 L 17.824219 12.673828 L 21.361328 9.1386719 z M 21.318359 10.761719 A 0.5 0.5 0 0 0 21.007812 10.908203 A 0.5 0.5 0 0 0 20.904297 11.058594 A 0.5 0.5 0 0 1 20.904297 11.060547 A 0.5 0.5 0 0 0 21.007812 11.615234 A 0.5 0.5 0 0 0 21.714844 11.615234 A 0.5 0.5 0 0 0 21.738281 11.587891 A 0.5 0.5 0 0 0 21.841797 11.121094 A 0.5 0.5 0 0 1 21.841797 11.119141 A 0.5 0.5 0 0 0 21.714844 10.908203 A 0.5 0.5 0 0 0 21.318359 10.761719 z M 19.955078 12.175781 A 0.5 0.5 0 0 0 19.669922 12.257812 A 0.5 0.5 0 0 0 19.59375 12.322266 A 0.5 0.5 0 0 0 19.449219 12.716797 A 0.5 0.5 0 0 0 19.449219 12.71875 A 0.5 0.5 0 0 0 19.59375 13.029297 A 0.5 0.5 0 0 0 19.658203 13.083984 A 0.5 0.5 0 0 0 19.746094 13.132812 A 0.5 0.5 0 0 0 20.300781 13.029297 A 0.5 0.5 0 0 0 20.324219 13.001953 A 0.5 0.5 0 0 0 20.4375 12.583984 A 0.5 0.5 0 0 0 20.4375 12.582031 A 0.5 0.5 0 0 0 20.300781 12.322266 A 0.5 0.5 0 0 0 20.275391 12.296875 A 0.5 0.5 0 0 0 20.193359 12.240234 A 0.5 0.5 0 0 0 20.101562 12.199219 A 0.5 0.5 0 0 0 20.003906 12.177734 A 0.5 0.5 0 0 0 19.955078 12.175781 z M 22.783203 12.175781 A 0.5 0.5 0 0 0 22.421875 12.322266 A 0.5 0.5 0 0 0 22.277344 12.716797 A 0.5 0.5 0 0 1 22.277344 12.71875 A 0.5 0.5 0 0 0 22.388672 12.992188 A 0.5 0.5 0 0 0 22.421875 13.029297 A 0.5 0.5 0 0 0 22.486328 13.083984 A 0.5 0.5 0 0 0 22.574219 13.132812 A 0.5 0.5 0 0 0 22.621094 13.150391 A 0.5 0.5 0 0 0 22.667969 13.164062 A 0.5 0.5 0 0 1 22.669922 13.164062 A 0.5 0.5 0 0 0 22.71875 13.171875 A 0.5 0.5 0 0 0 22.767578 13.175781 A 0.5 0.5 0 0 0 23.128906 13.029297 A 0.5 0.5 0 0 0 23.152344 13.001953 A 0.5 0.5 0 0 0 23.267578 12.583984 A 0.5 0.5 0 0 1 23.267578 12.582031 A 0.5 0.5 0 0 0 23.128906 12.322266 A 0.5 0.5 0 0 0 23.103516 12.296875 A 0.5 0.5 0 0 0 22.783203 12.175781 z M 17.117188 13.382812 L 20.654297 16.917969 L 17.824219 19.746094 C 17.426375 20.143937 16.807975 20.143912 16.410156 19.746094 L 14.289062 17.625 C 13.891174 17.227111 13.891219 16.608781 14.289062 16.210938 L 17.117188 13.382812 z M 21.369141 13.589844 A 0.5 0.5 0 0 0 21.007812 13.736328 A 0.5 0.5 0 0 0 20.886719 13.933594 A 0.5 0.5 0 0 1 20.886719 13.935547 A 0.5 0.5 0 0 0 20.865234 14.03125 A 0.5 0.5 0 0 1 20.865234 14.033203 A 0.5 0.5 0 0 0 21.007812 14.443359 A 0.5 0.5 0 0 0 21.714844 14.443359 A 0.5 0.5 0 0 0 21.738281 14.417969 A 0.5 0.5 0 0 1 21.738281 14.416016 A 0.5 0.5 0 0 0 21.861328 14.097656 A 0.5 0.5 0 0 1 21.861328 14.095703 A 0.5 0.5 0 0 0 21.824219 13.902344 A 0.5 0.5 0 0 1 21.824219 13.900391 A 0.5 0.5 0 0 0 21.714844 13.736328 A 0.5 0.5 0 0 0 21.369141 13.589844 z " transform="matrix(0.70710678,0.70710678,-0.70710678,0.70710678,6.5552322,1023.0018)"></path></g></g></g></svg>