<svg fill="#C82606" xmlns="http://www.w3.org/2000/svg" xmlns:xlink="http://www.w3.org/1999/xlink" version="1.1" x="0px" y="0px" viewBox="0 0 100 100" enable-background="new 0 0 100 100" xml:space="preserve"><g><path d="M20.753,32.352l8.402-0.006l4.032,4.016c-0.097,0.097-0.205,0.175-0.296,0.274c-4.474,4.79-5.509,12.011-2.914,20.33   c5.465,17.528,27.667,26.215,28.608,26.575l0.404,0.155l0.403-0.155c0.493-0.19,6.852-2.698,13.552-7.594l14.815,14.776   l-6.02,0.006c-0.621,0-1.123,0.504-1.122,1.124c0,0.621,0.504,1.125,1.125,1.125l0,0l9.826-0.012l-0.009-9.934   c-0.001-0.619-0.504-1.123-1.124-1.123c0,0-0.002,0-0.003,0c-0.621,0-1.123,0.504-1.122,1.126l0.006,6.062L74.75,74.571   c5.422-4.297,10.745-10.146,13.069-17.604c2.595-8.318,1.561-15.539-2.913-20.33c-3.975-4.257-10.098-5.908-16.412-4.402   c-3.798,1.059-7.785,3.624-9.654,7.91c-1.861-4.113-5.723-6.847-9.58-7.92c-5.312-1.265-10.493-0.256-14.374,2.657l-4.144-4.127   l-0.01-8.508L19.554,11.094l0.009,10.092l-9.986,0.013L20.753,32.352z M44.756,33.93c1.288,0,2.61,0.155,3.941,0.472   c4.5,1.252,9.042,5.189,9.042,11.16c0,0.623,0.492,1.168,1.134,1.125c0.588,0.03,1.133-0.501,1.133-1.125   c0-8.005,6.96-10.566,9.051-11.149c5.477-1.306,10.79,0.101,14.207,3.76c3.897,4.174,4.754,10.611,2.409,18.125   C80.924,71.53,62,80.014,58.986,81.278c-3.027-1.259-22.105-9.728-26.862-24.98c-2.344-7.515-1.487-13.952,2.41-18.127   c0.076-0.081,0.161-0.15,0.239-0.229l0.956,0.953c-2.846,2.964-4.944,8.254-2.006,17.618c0.05,0.16,0.199,0.263,0.357,0.263   c0.038,0,0.076-0.005,0.113-0.017c0.197-0.062,0.307-0.272,0.246-0.47c-2.821-8.989-0.855-14.042,1.827-16.859l7.172,7.145   c-0.398,1.013-0.19,2.212,0.627,3.029c0.073,0.073,0.168,0.11,0.263,0.11c0.097,0,0.193-0.037,0.267-0.11   c0.146-0.146,0.146-0.384,0-0.53c-0.509-0.509-0.659-1.213-0.527-1.872l0.591,0.589c0.22,0.219,0.506,0.328,0.793,0.328   c0.29,0,0.577-0.11,0.796-0.331c0.439-0.44,0.438-1.152-0.003-1.59l-0.583-0.582c0.653-0.128,1.353,0.024,1.859,0.53   c0.146,0.146,0.383,0.146,0.53,0s0.146-0.383,0-0.53c-0.817-0.817-2.012-1.024-3.022-0.63l-7.057-7.029   c0.571-0.4,1.139-0.73,1.666-0.988c0.185-0.09,0.264-0.314,0.173-0.5c-0.091-0.187-0.317-0.264-0.5-0.173   c-0.594,0.289-1.234,0.666-1.877,1.124l-0.949-0.944C38.824,34.813,41.693,33.93,44.756,33.93z M28.494,30.073   c-0.006,0.005-0.012,0.006-0.018,0.011c-0.003,0.004-0.004,0.01-0.009,0.014l-6.784,0.006l-3.048-3.042l6.802-0.005l-0.006-6.924   l3.054,3.047L28.494,30.073z M21.807,16.519l2.873,2.866l0.007,6.922l-6.802,0.006l-2.878-2.872l6.806-0.008L21.807,16.519z"></path><path d="M11.317,25.447c-0.146-0.145-0.383-0.146-0.53,0.001c-0.146,0.146-0.146,0.384,0.001,0.53l1.654,1.646   c0.073,0.073,0.168,0.109,0.265,0.109c0.095,0,0.191-0.037,0.265-0.111c0.145-0.146,0.145-0.383-0.001-0.53L11.317,25.447z"></path><path d="M36.285,25.109c0.094,0,0.188-0.035,0.261-0.107c0.149-0.144,0.152-0.381,0.006-0.53l-9.49-9.726   c-0.144-0.146-0.381-0.151-0.53-0.006c-0.149,0.145-0.152,0.381-0.006,0.53l9.49,9.726C36.089,25.071,36.187,25.109,36.285,25.109z   "></path><path d="M82.294,89.234c0.096,0,0.19-0.035,0.264-0.108c0.146-0.146,0.146-0.386,0-0.53l-4.632-4.625   c-0.146-0.146-0.384-0.146-0.53,0s-0.146,0.385,0,0.53l4.633,4.625C82.101,89.199,82.197,89.234,82.294,89.234z"></path><path d="M85.574,81.407c-0.146,0.146-0.146,0.384,0,0.53l1.095,1.095c0.073,0.073,0.17,0.11,0.267,0.11   c0.095,0,0.19-0.037,0.264-0.11c0.146-0.146,0.146-0.384,0-0.53l-1.096-1.095C85.957,81.261,85.72,81.261,85.574,81.407z"></path><path d="M74.526,84.768c0.095,0,0.19-0.037,0.264-0.11c0.146-0.146,0.146-0.384,0-0.529l-1.985-1.982   c-0.146-0.146-0.384-0.146-0.53,0s-0.146,0.385,0,0.529l1.985,1.982C74.333,84.73,74.43,84.768,74.526,84.768z"></path><path d="M24.86,13.397c0.094,0,0.188-0.035,0.261-0.107c0.149-0.144,0.152-0.381,0.006-0.53l-1.628-1.669   c-0.144-0.146-0.381-0.151-0.53-0.006c-0.149,0.144-0.152,0.381-0.006,0.53l1.628,1.669C24.664,13.359,24.762,13.397,24.86,13.397z   "></path><path d="M15.165,11.51c-0.145-0.145-0.384-0.146-0.53,0.001c-0.146,0.146-0.146,0.384,0.001,0.53l1.652,1.646   c0.072,0.072,0.168,0.109,0.265,0.109c0.095,0,0.192-0.037,0.265-0.11c0.145-0.146,0.145-0.384-0.001-0.53L15.165,11.51z"></path><path d="M15.714,16.702c-0.145,0.146-0.145,0.383,0.001,0.53l1.573,1.566c0.073,0.073,0.168,0.109,0.263,0.109   c0.097,0,0.193-0.037,0.267-0.111c0.146-0.146,0.146-0.383-0.001-0.53L16.244,16.7C16.098,16.555,15.86,16.554,15.714,16.702z"></path><path d="M62.185,78.33c0.056,0,0.111-0.012,0.165-0.038c5.36-2.65,18.228-10.1,21.95-22.034c2.847-9.12,0.647-16.626-5.878-20.078   c-0.18-0.096-0.41-0.027-0.507,0.157c-0.097,0.183-0.026,0.409,0.157,0.507c6.181,3.269,8.242,10.443,5.512,19.193   c-3.635,11.656-16.293,18.977-21.566,21.582c-0.185,0.093-0.261,0.316-0.17,0.504C61.912,78.254,62.047,78.33,62.185,78.33z"></path><path d="M59.484,79.571c0.05,0,0.098-0.009,0.145-0.027c0.204-0.087,0.465-0.198,0.771-0.336c0.188-0.085,0.273-0.308,0.188-0.494   c-0.084-0.19-0.311-0.277-0.494-0.189c-0.301,0.135-0.554,0.245-0.753,0.327c-0.19,0.078-0.28,0.298-0.202,0.49   C59.199,79.486,59.338,79.571,59.484,79.571z"></path><path d="M42.403,36.025c0.025,0,0.05-0.002,0.075-0.007c0.744-0.149,1.514-0.231,2.286-0.243c0.207-0.003,0.373-0.173,0.37-0.38   c-0.003-0.206-0.171-0.37-0.375-0.37c-0.003,0-0.004,0-0.006,0c-0.818,0.012-1.634,0.098-2.423,0.257   c-0.203,0.041-0.335,0.239-0.294,0.441C42.073,35.902,42.229,36.025,42.403,36.025z"></path></g></svg>