<svg fill="#992222" xmlns="http://www.w3.org/2000/svg" data-name="glyph copy" viewBox="0 0 64 64" x="0px" y="0px"><path d="M32.136,23.278,24.55,30.864l7.586,7.586,7.586-7.586ZM30,32H28V30h2Zm3,3H31V33h2Zm0-6H31V27h2Zm1,3V30h2v2Z"/><path d="M30.722,21.864l-2.293-2.293a5.364,5.364,0,0,0-7.586,7.586l2.293,2.293Z"/><path d="M20.843,34.571a5.364,5.364,0,1,0,7.586,7.586l2.293-2.293-7.586-7.586Z"/><path d="M33.55,39.864l2.293,2.293a5.364,5.364,0,0,0,7.586-7.586l-2.293-2.293Z"/><path d="M43.429,19.571a5.364,5.364,0,0,0-7.586,0L33.55,21.864l7.586,7.586,2.293-2.293A5.371,5.371,0,0,0,43.429,19.571Z"/><path d="M56.086,14.564a14.967,14.967,0,0,0-21.236-.876l-2.2,2.044a1,1,0,0,1-1.361,0l-1.949-1.809a14.832,14.832,0,0,0-10.162-4c-.265,0-.53.007-.8.021a14.846,14.846,0,0,0-10.488,5.09l-.334.383a15.006,15.006,0,0,0,.68,20.438L31.958,59.576,55.765,35.089A14.985,14.985,0,0,0,56.086,14.564ZM14.105,38.9,9.652,34.441a13,13,0,0,1-.59-17.707L9.4,16.35a12.979,12.979,0,0,1,14.841-3.391l-.785,1.84A10.979,10.979,0,0,0,10.9,17.666l-.336.385a11,11,0,0,0,.5,14.976L15.52,37.48Zm30.738-5.738A7.364,7.364,0,1,1,34.429,43.571l-2.293-2.293-2.293,2.293A7.364,7.364,0,0,1,19.429,33.157l2.293-2.293-2.293-2.293A7.364,7.364,0,1,1,29.843,18.157l2.293,2.293,2.293-2.293A7.364,7.364,0,0,1,44.843,28.571L42.55,30.864Zm9.488.538-3.892,4L49.006,36.3l3.891-4A10.969,10.969,0,0,0,40.024,14.9l-.915-1.777A12.968,12.968,0,0,1,54.331,33.7Z"/></svg>