<svg fill="#CC0000" xmlns="http://www.w3.org/2000/svg" xmlns:xlink="http://www.w3.org/1999/xlink" version="1.1" x="0px" y="0px" viewBox="0 0 100 125" enable-background="new 0 0 100 100" xml:space="preserve"><path display="none" fill="none" stroke="#000000" stroke-width="4" stroke-linejoin="round" stroke-miterlimit="10" d="  M73.075,43.19c-0.024,1.496-0.315,2.958-0.865,4.351c-1.369,4.188-5.384,9.115-11.931,14.645c-4.809,4.061-9.285,6.977-9.329,7.007  c-0.285,0.185-0.616,0.282-0.957,0.282c-0.341,0-0.672-0.098-0.957-0.282c-0.19-0.124-4.624-3.035-9.328-7.007  c-6.549-5.532-10.564-10.459-11.933-14.646c-0.57-1.455-0.862-2.975-0.867-4.52c-0.001-0.028-0.001-0.057-0.001-0.072  c0-6.85,5.573-12.423,12.424-12.423c4.382,0,8.449,2.372,10.668,6.066c2.22-3.694,6.289-6.066,10.669-6.066  c6.851,0,12.424,5.573,12.424,12.423C73.093,43.029,73.089,43.11,73.075,43.19z"/><path d="M43.305,80.48c-0.102,0.189-0.216,0.375-0.344,0.553c-2.393,3.346-1.972,7.942,1.007,10.922  c1.643,1.643,3.813,2.547,6.112,2.547h0.001c2.224,0,4.306-0.856,5.863-2.413c2.947-2.947,3.214-7.718,0.619-11.098  c-0.104-0.135-0.205-0.281-0.3-0.436l-6.343-10.341L43.305,80.48z"/><path d="M69.636,5.498c-7.663,0-14.942,3.63-19.636,9.639c-4.692-6.009-11.971-9.639-19.634-9.639  C16.655,5.498,5.5,16.651,5.5,30.36L5.502,30.5c0.011,3.073,0.587,6.096,1.713,8.987c2.652,8.048,10.239,17.404,22.554,27.806  c3.873,3.27,7.645,6.147,10.69,8.372l7.41-11.501c0.465-0.722,1.285-1.123,2.129-1.146c0.859,0.01,1.654,0.46,2.103,1.192  l7.146,11.651c3.089-2.248,6.964-5.196,10.959-8.57c12.31-10.398,19.896-19.753,22.548-27.802c1.07-2.726,1.645-5.589,1.707-8.513  c0.032-0.247,0.037-0.464,0.037-0.617C94.5,16.651,83.346,5.498,69.636,5.498z"/></svg>