<svg fill="#F5D327" xmlns:dc="http://purl.org/dc/elements/1.1/" xmlns:cc="http://creativecommons.org/ns#" xmlns:rdf="http://www.w3.org/1999/02/22-rdf-syntax-ns#" xmlns:svg="http://www.w3.org/2000/svg" xmlns="http://www.w3.org/2000/svg" xmlns:sodipodi="http://sodipodi.sourceforge.net/DTD/sodipodi-0.dtd" xmlns:inkscape="http://www.inkscape.org/namespaces/inkscape" version="1.1" x="0px" y="0px" viewBox="0 0 100 100"><path style="" d="m 72.310571,94.961329 c -0.08964,-0.0173 -0.474557,-0.0914 -0.855418,-0.16459 -0.677441,-0.13025 -0.961358,-0.239449 -2.036703,-0.783309 -1.149258,-0.58123 -1.692798,-0.87851 -2.217391,-1.212709 -0.300999,-0.19176 -0.571297,-0.34865 -0.600645,-0.34865 -0.02934,0 -0.352788,-0.21989 -0.718736,-0.48863 -0.762264,-0.55978 -2.015821,-1.224629 -3.153863,-1.672699 -0.885347,-0.34858 -2.134341,-0.975439 -2.923211,-1.467119 -0.291567,-0.18173 -0.933132,-0.51595 -1.425698,-0.74272 -0.492567,-0.22675 -1.253058,-0.578689 -1.689986,-0.782049 -0.436928,-0.20337 -1.115154,-0.48082 -1.50717,-0.61655 -0.79977,-0.27692 -1.419871,-0.570329 -2.25998,-1.069329 -0.314018,-0.18651 -1.249166,-0.67189 -2.07811,-1.07861 -0.828935,-0.406719 -1.617143,-0.819839 -1.751564,-0.918049 -0.13442,-0.0982 -0.391048,-0.25688 -0.570279,-0.3526 -0.179231,-0.0957 -0.509181,-0.28543 -0.733212,-0.42159 -0.631836,-0.383979 -2.042132,-1.070479 -2.846629,-1.385659 -0.400644,-0.15697 -1.005547,-0.459019 -1.344226,-0.671239 -1.32417,-0.82968 -2.090202,-1.21529 -3.46071,-1.742039 -1.204255,-0.46284 -2.374181,-0.99591 -2.774672,-1.26424 -0.133473,-0.0894 -0.536745,-0.393159 -0.896154,-0.674949 -0.370166,-0.29022 -0.988984,-0.66855 -1.42741,-0.87267 -1.145641,-0.533389 -2.300787,-1.236999 -3.21271,-1.956898 -0.671706,-0.53027 -2.400421,-1.656659 -2.542542,-1.656659 -0.115678,0 -0.725756,-0.51414 -1.393591,-1.17444 -0.548439,-0.542229 -0.753585,-0.702079 -0.753585,-0.587139 0,0.256499 -0.46547,1.964568 -0.614366,2.254458 -0.232536,0.45272 -0.620508,0.78224 -1.306638,1.10977 -0.766176,0.365729 -0.846455,0.441359 -1.12316,1.058129 -0.314385,0.70079 -0.940894,1.292039 -1.640266,1.547949 -1.005843,0.36806 -3.054627,1.406049 -3.269062,1.656239 -0.270288,0.31533 -0.457943,0.69017 -0.722027,1.442259 -0.248458,0.70757 -0.252095,1.283049 -0.01569,2.489959 0.151646,0.774409 0.232852,2.134798 0.150362,2.519268 -0.0763,0.35543 -0.308741,0.40155 -0.792609,0.15725 -0.294348,-0.14862 -0.85005,-0.690439 -0.85005,-0.828809 0,-0.0226 -0.0873,-0.16747 -0.194083,-0.32189 -0.106754,-0.15442 -0.219794,-0.41695 -0.251209,-0.58339 -0.03137,-0.16644 -0.149853,-0.48256 -0.263187,-0.702499 -0.113335,-0.21994 -0.296213,-0.63251 -0.40639,-0.91683 -0.110176,-0.28431 -0.344333,-0.817289 -0.520355,-1.184379 -0.176012,-0.36711 -0.320018,-0.69491 -0.320018,-0.72847 0,-0.0335 -0.174698,-0.31034 -0.388216,-0.615079 -1.210204,-1.727279 -1.57983,-2.679499 -1.81036,-4.663688 -0.07263,-0.625189 -0.504434,-2.017478 -0.697366,-2.248578 -0.05511,-0.066 -0.192065,-0.29991 -0.304402,-0.51985 -0.167282,-0.32753 -0.212632,-0.55907 -0.250638,-1.279629 -0.04136,-0.78356 -0.09198,-1.01091 -0.463087,-2.079399 -0.517401,-1.489649 -0.645863,-1.933879 -0.647543,-2.239359 -0.001,-0.235679 -0.249885,-0.665829 -0.6523623,-1.128779 -0.2085272,-0.23987 -0.6990361,-0.51075 -0.9248497,-0.51075 -0.310453,0 -1.494905,-0.368729 -1.6821425,-0.523659 -0.067231,-0.0556 -0.4318451,-0.28514 -0.8103131,-0.51004 -0.8120041,-0.48255 -1.1914297,-0.86165 -1.3162649,-1.315099 -0.072629,-0.26382 -0.06774,-0.37073 0.024346,-0.53037 0.1151988,-0.19982 0.1159627,-0.19994 1.2717194,-0.18432 l 1.1564392,0.0156 0,-0.19559 c 0,-0.596809 0.6905712,-0.606069 1.5576637,-0.0209 0.2966095,0.20019 0.7182071,0.4257 0.93688,0.50114 0.2186722,0.0754 0.5543782,0.20617 0.7460062,0.29051 0.191627,0.0843 0.393269,0.15346 0.448082,0.15359 0.0548,0 0.337946,0.14128 0.629188,0.31365 0.464075,0.274669 0.545454,0.299349 0.658168,0.199699 0.07069,-0.0625 0.213722,-0.11371 0.317756,-0.11371 0.196406,0 0.948972,0.32644 1.307515,0.56715 0.113294,0.0761 0.369911,0.22656 0.570279,0.33444 0.200358,0.10787 0.635157,0.34503 0.966217,0.52702 0.33106,0.18199 0.638213,0.330889 0.682565,0.330889 0.04431,0 0.272009,0.10749 0.505911,0.23886 0.511086,0.28706 1.648313,0.69558 2.136357,0.76742 0.590815,0.087 0.810802,-0.0573 0.998895,-0.65512 0.08811,-0.28016 0.183825,-0.698719 0.212612,-0.930129 0.05623,-0.45199 0.342296,-1.488439 0.447502,-1.621369 0.03524,-0.0445 0.143527,-0.28944 0.240655,-0.54427 0.09708,-0.25484 0.333444,-0.713099 0.525174,-1.018379 0.622505,-0.9912 0.615517,-1.668489 -0.022,-2.131179 -0.230428,-0.16725 -0.232588,-0.16731 -0.67028,-0.016 -0.777421,0.26876 -1.88962,0.1297 -2.369016,-0.2962 -0.143191,-0.12722 -0.164053,-0.12751 -0.302772,-0.004 -0.198799,0.17662 -0.813318,0.17369 -1.075274,-0.005 -0.313743,-0.21415 -0.46329,-0.41556 -0.788636,-1.062149 -0.165999,-0.3299 -0.40316,-0.74873 -0.527017,-0.93071 l -0.225193,-0.330879 -0.51679,0.0407 c -1.051956,0.0829 -1.387519,-0.30586 -1.914607,-2.218139 -0.418165,-1.517089 -0.420182,-2.068169 -0.0107,-2.924928 0.319213,-0.66787 0.511595,-0.88545 0.995931,-1.12639 1.040242,-0.517489 1.842447,-0.622209 3.35583,-0.43808 2.946171,0.35846 3.630019,0.32777 5.155932,-0.231359 0.24692,-0.0905 0.632701,-0.15784 0.903896,-0.15784 0.643387,0 0.768355,0.13968 0.810293,0.905609 0.0385,0.70267 0.149618,0.85389 0.627629,0.85389 0.490244,0 0.558778,0.11669 0.506685,0.862729 -0.02373,0.34054 -0.08985,0.77182 -0.146767,0.95842 -0.05694,0.186589 -0.08119,0.361239 -0.05378,0.388109 0.0274,0.0269 0.217053,0.0674 0.421526,0.09 0.453338,0.0502 0.52774,0.22289 0.342897,0.79601 -0.06805,0.21106 -0.165072,0.630849 -0.215556,0.932879 -0.100948,0.60391 -0.333913,1.15832 -0.577817,1.374999 -0.219784,0.19526 -0.198219,0.33048 0.107121,0.67162 0.145625,0.16269 0.404932,0.46111 0.576238,0.66316 0.50203,0.592119 1.185318,0.802249 1.645736,0.506089 0.217552,-0.13993 0.531825,-0.737589 0.73748,-1.402469 0.093,-0.30073 0.0929,-0.37599 -9.37e-4,-0.47986 -0.248346,-0.274979 -0.387198,-0.814849 -0.494492,-1.922668 -0.06173,-0.63782 -0.172325,-1.37561 -0.245667,-1.639529 -0.07334,-0.26392 -0.204382,-0.74978 -0.291181,-1.07969 -0.17372,-0.660249 -0.544364,-1.676259 -0.65501,-1.795479 -0.03881,-0.0418 -0.07049,-0.12817 -0.07049,-0.19194 0,-0.0638 -0.138903,-0.353499 -0.308671,-0.643819 -0.169767,-0.29032 -0.393177,-0.75675 -0.496457,-1.0365 -0.103281,-0.279759 -0.291232,-0.675639 -0.417686,-0.879749 -0.126445,-0.20411 -0.365583,-0.63423 -0.531428,-0.955829 -0.375087,-0.72738 -0.600605,-0.87673 -1.777834,-1.17737 -0.486384,-0.12421 -1.146172,-0.35439 -1.46619,-0.511499 -0.635269,-0.31189 -0.80412,-0.53365 -0.906667,-1.19074 -0.09769,-0.626049 0.279059,-0.892979 1.261767,-0.893959 0.563292,-8e-4 0.94994,-0.10749 1.19032,-0.32917 0.177458,-0.16367 0.20104,-0.16613 0.455396,-0.0474 0.147541,0.0689 0.576259,0.32773 0.95271,0.57526 0.622332,0.409179 0.704374,0.441929 0.903917,0.360799 0.183224,-0.0745 0.292147,-0.057 0.659767,0.1059 0.242173,0.10732 0.522087,0.21956 0.622037,0.2494 0.09993,0.0299 0.660042,0.28799 1.244664,0.57365 1.328916,0.649339 1.922757,0.869269 2.647035,0.980329 0.313651,0.0481 0.691906,0.12221 0.840557,0.16469 0.171469,0.049 0.344659,0.0495 0.473742,10e-4 0.111908,-0.0418 0.323003,-0.076 0.469107,-0.076 0.397333,0 0.601022,-0.26554 0.741188,-0.966229 0.17153,-0.85751 0.272518,-1.169379 0.567651,-1.752989 0.144587,-0.28591 0.381015,-0.85347 0.525387,-1.261239 l 0.262496,-0.7414 -0.217003,-0.43541 c -0.251972,-0.505599 -0.439301,-0.600109 -0.735738,-0.371199 -0.114608,0.0885 -0.336795,0.202509 -0.493738,0.253359 -0.51459,0.16672 -0.768304,0.0521 -1.537281,-0.694319 -0.518633,-0.50344 -0.731296,-0.66276 -0.797692,-0.59758 -0.04981,0.0489 -0.315811,0.0889 -0.591151,0.0889 -0.687627,0 -0.80523,-0.13229 -0.81776,-0.919919 -0.0081,-0.53189 -0.03341,-0.61588 -0.270175,-0.90935 l -0.260855,-0.32333 -0.507205,0.0465 c -0.471674,0.0432 -0.526375,0.0307 -0.780915,-0.1796 -0.35071,-0.289699 -0.495959,-0.637329 -0.495959,-1.186979 0,-0.38697 -0.02577,-0.45566 -0.218662,-0.582409 -0.710802,-0.46711 -1.054167,-1.0805 -0.966737,-1.726999 0.02506,-0.18487 0.06071,-0.4801 0.07935,-0.65605 0.05511,-0.51934 0.28957,-1.090239 0.606207,-1.475959 0.575912,-0.70157 1.258792,-1.356939 1.549575,-1.487139 0.161945,-0.0725 0.45942,-0.2035 0.661061,-0.29108 0.201631,-0.0876 0.439923,-0.19125 0.529544,-0.23037 0.48891,-0.21342 0.727904,-0.26395 1.507159,-0.31867 0.782728,-0.055 0.912687,-0.0429 1.529325,0.14204 0.605708,0.18166 0.74457,0.26383 1.372168,0.81197 0.38405,0.335419 0.868998,0.719829 1.077667,0.854239 0.467417,0.30108 1.323426,0.67616 1.762249,0.77216 0.496285,0.10857 1.191542,0.605639 1.60932,1.150579 0.356923,0.46555 0.903713,0.832009 1.241414,0.832009 0.06672,0 0.180291,0.0885 0.252502,0.1967 0.18297,0.27413 0.08923,0.61225 -0.288409,1.04062 l -0.309383,0.35092 0.122207,0.364429 c 0.171519,0.51146 0.08638,0.85327 -0.302549,1.2151 -0.27587,0.256629 -0.306806,0.319219 -0.229287,0.463899 0.0493,0.092 0.114027,0.18524 0.143874,0.20723 0.02985,0.022 0.195855,0.2513 0.368903,0.50957 0.424694,0.63386 1.526819,1.765019 1.846277,1.894919 0.250505,0.10186 0.267109,0.0957 0.521781,-0.19351 0.144679,-0.16431 0.344985,-0.51382 0.445128,-0.77669 0.100133,-0.26288 0.213977,-0.497319 0.252961,-0.520969 0.03901,-0.0236 0.0709,-0.0956 0.0709,-0.15985 0,-0.0643 0.09015,-0.25708 0.200429,-0.4285 0.110228,-0.17142 0.225192,-0.41364 0.255476,-0.53826 0.03025,-0.12462 0.102334,-0.316559 0.160111,-0.426519 0.05776,-0.10997 0.217695,-0.43655 0.355355,-0.72573 0.13765,-0.28919 0.406176,-0.6928 0.596713,-0.896919 0.190528,-0.20412 0.493066,-0.55428 0.672297,-0.77813 0.298087,-0.37229 0.528189,-0.56729 1.461249,-1.238359 0.655479,-0.47142 1.110926,-0.75009 1.610277,-0.98525 0.690979,-0.325399 1.492185,-0.654099 1.594365,-0.654099 0.04584,0 0.307021,-0.10897 0.580456,-0.24215 0.328758,-0.16013 0.497171,-0.29017 0.497171,-0.38389 0,-0.078 0.04248,-0.18349 0.09453,-0.23452 0.138985,-0.13644 -0.239504,-0.4233 -0.482074,-0.36537 -0.104799,0.025 -0.273588,-0.0138 -0.392414,-0.0902 -0.38353,-0.246689 -1.410927,-0.462429 -2.009494,-0.421959 -1.029954,0.0696 -2.114894,0.788839 -2.787038,1.847499 -0.203872,0.321119 -0.370676,0.618759 -0.370676,0.661439 0,0.0427 -0.107783,0.24445 -0.239514,0.44837 -0.131742,0.20393 -0.298841,0.54388 -0.371338,0.75545 -0.536012,1.564209 -1.030279,2.453178 -1.42143,2.556568 -0.165336,0.0437 -0.256464,-0.009 -0.535492,-0.31193 -0.35453,-0.38442 -0.467936,-0.756939 -0.687984,-2.259848 -0.09962,-0.68065 -0.233026,-1.03044 -0.961175,-2.521009 -0.311115,-0.63687 -0.679386,-1.517829 -0.818381,-1.957699 -0.138994,-0.43988 -0.346034,-0.923729 -0.460092,-1.075239 -0.114058,-0.1515 -0.207376,-0.32475 -0.207376,-0.38499 0,-0.20776 -1.263336,-2.515148 -1.505468,-2.749618 -0.133494,-0.12927 -0.335125,-0.25382 -0.448083,-0.27678 -0.112947,-0.0229 -0.261557,-0.071 -0.330235,-0.10672 -0.06866,-0.0357 -0.251993,-0.0914 -0.407346,-0.12362 -0.482228,-0.10013 -1.602719,-0.67041 -1.823653,-0.928169 -0.240401,-0.28048 -0.256139,-0.39417 -0.09647,-0.6972 0.265001,-0.50308 0.367609,-0.53669 1.602983,-0.52505 0.620957,0.006 1.224322,0.0341 1.340794,0.0628 0.169055,0.0417 0.25839,0.003 0.442796,-0.19059 0.285781,-0.300329 0.580578,-0.314449 0.975945,-0.0467 0.159235,0.10782 0.637795,0.32597 1.063467,0.48477 0.425672,0.15881 1.250542,0.51719 1.833035,0.79641 1.438512,0.689559 2.025559,0.922099 2.327852,0.922099 0.362985,0 1.338961,-0.52665 1.613537,-0.870679 0.338893,-0.4246 0.397781,-0.56301 0.499697,-1.17446 0.118224,-0.709219 0.256882,-1.062469 0.636736,-1.622169 0.168535,-0.24833 0.371867,-0.598729 0.451851,-0.778669 0.130193,-0.2929 0.133198,-0.35586 0.02873,-0.60138 -0.106927,-0.25124 -0.536246,-0.706349 -1.030657,-1.092569 -0.178456,-0.1394 -0.23111,-0.1443 -0.547268,-0.0509 -0.192392,0.0568 -0.476176,0.0832 -0.630624,0.0586 -0.328758,-0.0524 -1.015193,-0.62742 -1.528235,-1.28025 -0.236132,-0.300459 -0.365755,-0.406889 -0.424867,-0.348859 -0.04676,0.0459 -0.251881,0.0813 -0.455753,0.0786 -0.344017,-0.005 -0.390243,-0.0313 -0.642654,-0.3707 -0.259592,-0.34909 -0.49441,-0.93377 -0.796714,-1.983669 -0.171815,-0.59677 -0.197322,-0.62506 -0.471287,-0.52281 -0.389979,0.14556 -0.772165,-0.20304 -0.824106,-0.751689 -0.01457,-0.15355 -0.07019,-0.54516 -0.123552,-0.87023 -0.08383,-0.510169 -0.07823,-0.654709 0.04064,-1.0563996 0.193686,-0.6540497 0.968784,-2.1398388 1.309359,-2.5099086 0.465501,-0.5058296 1.154249,-0.7895295 2.132771,-0.8785094 0.457729,-0.0416 0.866553,-0.0965 0.908491,-0.12194 0.08322,-0.0505 1.384758,0.1890399 2.406145,0.4428698 0.931155,0.2313998 1.925324,0.7676995 3.022335,1.630369 1.229721,0.9670194 2.71774,1.7990598 3.217427,1.7990598 0.164603,0 0.509374,0.0414 0.766175,0.0921 0.371256,0.0732 0.507541,0.14437 0.665329,0.347459 0.109138,0.14047 0.198443,0.29453 0.198443,0.34236 0,0.23443 -0.579824,1.11841 -0.978441,1.491699 l -0.448897,0.42037 0.18412,0.13634 c 0.12347,0.0914 0.184131,0.22012 0.184131,0.39065 0,0.2083 -0.105053,0.35813 -0.580568,0.828079 -0.568374,0.56171 -0.577786,0.57767 -0.448082,0.75947 0.07283,0.10213 0.132495,0.3378 0.132495,0.52372 0,0.287519 -0.03962,0.367719 -0.265306,0.536689 -0.145921,0.10926 -0.369056,0.25149 -0.495867,0.31608 l -0.230561,0.11742 0.294114,0.31959 c 0.318959,0.34659 0.803468,0.614569 0.986488,0.545629 0.06295,-0.0237 0.192331,-0.215559 0.287432,-0.426289 0.09514,-0.21073 0.366407,-0.79702 0.602896,-1.302879 0.236499,-0.50585 0.508427,-1.15367 0.604282,-1.43958 0.09585,-0.285919 0.212785,-0.627819 0.259836,-0.759789 0.04706,-0.13196 0.135287,-0.41991 0.19609,-0.63989 0.162331,-0.587379 0.677624,-1.509959 1.688784,-3.0235886 0.50425,-0.7548196 0.696031,-0.9486894 1.592644,-1.609899 0.413723,-0.3051099 0.75223,-0.5783597 0.75223,-0.6072297 0,-0.0289 0.134196,-0.1211399 0.298219,-0.2050399 0.164022,-0.0839 0.379609,-0.2246798 0.47909,-0.3128398 0.337701,-0.2992498 1.606966,-0.9467394 2.392017,-1.2202293 0.430032,-0.1498199 1.093507,-0.3193298 1.474369,-0.3766897 0.380862,-0.0574 1.019482,-0.1646299 1.419158,-0.2383699 0.772022,-0.1424299 1.536537,-0.1038499 3.224537,0.1627199 0.734057,0.1159299 2.322138,0.5301397 2.62819,0.6855096 0.100337,0.0509 0.255792,0.1299099 0.345403,0.1754699 0.878827,0.4468097 1.707802,0.9239795 2.077438,1.1957993 0.690093,0.5074697 3.819366,3.6475382 4.349877,4.3648782 0.325457,0.44007 0.658056,0.851199 1.106637,1.367929 0.24747,0.28506 0.477878,0.55498 0.512013,0.59983 0.363738,0.477749 0.561223,0.741889 0.861979,1.152919 0.194572,0.2659 0.707817,0.854559 1.140558,1.308119 0.789462,0.82746 0.9844,1.04865 1.617061,1.834829 0.858536,1.066869 1.452693,1.792079 1.542446,1.882629 0.05378,0.0543 0.268189,0.35028 0.476431,0.65778 0.518949,0.766329 1.38373,1.736499 3.138777,3.521317 2.521843,2.564639 3.129018,3.110069 4.444305,3.992428 0.366702,0.246 0.982271,0.66962 1.36793,0.94139 0.38567,0.271759 0.924412,0.610899 1.197226,0.753639 0.539313,0.28219 0.811271,0.55768 0.811892,0.82244 8.15e-4,0.350039 -0.287951,0.948589 -0.584601,1.211699 -0.385925,0.34228 -0.728913,0.40528 -1.307454,0.24017 -0.442347,-0.12624 -1.751614,-0.84663 -2.204127,-1.21277 -0.209332,-0.169359 -1.280103,-0.808369 -2.109608,-1.258939 -0.194042,-0.1054 -0.5911,-0.32105 -0.882352,-0.47922 -0.291251,-0.158169 -0.55124,-0.288399 -0.577745,-0.289399 -0.02648,-0.001 -0.09229,0.1427 -0.146227,0.319319 -0.173853,0.56966 -1.091939,0.97322 -1.622786,0.71334 -0.750183,-0.36725 -1.400945,-0.792059 -1.91364,-1.249219 -0.575393,-0.51304 -1.659773,-1.281119 -1.718488,-1.217219 -0.0164,0.0178 -0.108302,0.185279 -0.2043,0.372179 -0.422239,0.82194 -1.699663,1.18001 -3.074398,0.86175 -0.61732,-0.14292 -1.334499,-0.44892 -1.492715,-0.63691 -0.0981,-0.11661 -0.457607,-0.36901 -1.12099,-0.787069 -0.07018,-0.0443 -0.06356,0.0365 0.02292,0.276989 0.154886,0.43094 0.111583,0.90599 -0.101661,1.11533 -0.196547,0.19295 -1.057161,0.32241 -1.552336,0.23352 -0.735992,-0.13212 -1.786034,-0.72906 -2.75054,-1.563629 -0.313651,-0.27141 -0.66976,-0.55661 -0.791356,-0.63379 l -0.221077,-0.14033 0.04594,0.38718 c 0.04013,0.33797 0.02098,0.41002 -0.150383,0.566769 -0.471002,0.43082 -1.71755,0.27822 -2.915815,-0.356959 -0.291251,-0.15439 -0.932816,-0.49407 -1.425698,-0.75485 -0.492883,-0.26078 -0.951141,-0.50834 -1.018351,-0.55013 -0.268567,-0.166999 -1.391635,-0.796989 -1.420778,-0.796989 -0.01711,0 -0.300186,-0.12133 -0.629035,-0.26963 -0.32885,-0.1483 -0.872869,-0.3855 -1.20892,-0.52711 -0.336062,-0.141609 -0.720998,-0.305919 -0.855419,-0.365129 -1.231442,-0.54245 -1.564611,-0.6732 -2.729189,-1.07109 -0.69813,-0.23852 -0.768895,-0.24073 -0.800127,-0.025 -0.08251,0.56954 0.703875,1.592739 1.981126,2.577869 0.484753,0.37389 1.103072,0.859759 1.374032,1.079689 0.27096,0.21994 0.897581,0.71938 1.3925,1.109869 0.49491,0.39049 1.064812,0.86046 1.266443,1.04438 1.31926,1.203339 3.54321,2.483688 6.028658,3.470758 1.340335,0.532299 3.898565,1.155629 6.110118,1.488779 1.901681,0.28646 2.27529,0.35319 3.0958,0.55294 0.470483,0.114529 1.112047,0.266249 1.425698,0.337159 0.74619,0.1687 1.927891,0.55697 2.460623,0.8085 0.548969,0.2592 0.782341,0.57134 1.140161,1.525029 0.327353,0.872479 1.876704,4.020428 2.235971,4.543007 0.127952,0.18613 0.232638,0.37332 0.232638,0.416 0,0.0427 0.06774,0.16341 0.150516,0.26831 0.08282,0.10491 0.173598,0.28371 0.201804,0.39734 0.07691,0.309539 0.637703,0.891289 1.085154,1.125619 0.217563,0.11394 0.670514,0.2706 1.006576,0.34813 0.336052,0.0775 0.656589,0.17626 0.712289,0.21937 0.122421,0.0948 0.05878,0.615159 -0.122635,1.003529 -0.119467,0.25569 -0.116044,0.2715 0.108557,0.50163 0.127545,0.1307 0.447848,0.31494 0.71179,0.409409 0.655204,0.23453 0.742634,0.42667 0.406908,0.89427 l -0.24801,0.3454 0.317665,0.432169 c 0.174709,0.23769 0.380781,0.53565 0.457943,0.66213 0.07711,0.12646 0.270746,0.39639 0.430216,0.59982 0.159469,0.20343 0.316707,0.423859 0.349436,0.489839 0.0327,0.066 0.11251,0.20994 0.177306,0.31991 0.153469,0.26047 0.152878,0.90564 -0.001,1.19796 -0.20212,0.383689 -0.244068,0.384049 -1.702016,0.0144 -0.3649,-0.0925 -0.856132,-0.29254 -1.138093,-0.46339 -0.45995,-0.27869 -0.954859,-0.5558 -2.089622,-1.17001 -0.246441,-0.133379 -0.613052,-0.332959 -0.814683,-0.443499 -0.201631,-0.11054 -0.476594,-0.25484 -0.611015,-0.32066 -0.134421,-0.0658 -0.351433,-0.19277 -0.482238,-0.28209 -0.220211,-0.15037 -0.828231,-0.38426 -2.043283,-0.786019 -0.268841,-0.0889 -0.635452,-0.2261 -0.814683,-0.30489 -0.179231,-0.0788 -0.582493,-0.24223 -0.896144,-0.36319 -0.313662,-0.12096 -1.010213,-0.44257 -1.547905,-0.71471 -0.537693,-0.272129 -1.252579,-0.595679 -1.588631,-0.719009 -0.336062,-0.12332 -0.720998,-0.27147 -0.855419,-0.32922 -0.322279,-0.13847 -1.283648,-0.44033 -1.312404,-0.41209 -0.05205,0.0511 2.121994,2.152639 2.592232,2.505739 0.28186,0.21165 0.860757,0.561159 1.286429,0.776709 0.425672,0.21554 0.810904,0.42112 0.85607,0.45687 0.04523,0.0357 0.246808,0.13077 0.448083,0.21119 0.692303,0.27663 1.773168,0.926359 2.222015,1.335709 0.794809,0.72485 0.77845,1.208389 -0.05613,1.657809 -0.322564,0.17371 -0.530562,0.21616 -1.259913,0.25712 -0.841575,0.0473 -0.901767,0.0394 -1.643699,-0.21498 -0.423573,-0.14523 -1.155074,-0.46674 -1.625546,-0.714469 -0.470482,-0.24773 -1.185369,-0.61744 -1.588641,-0.82158 -0.403262,-0.20414 -0.788198,-0.41752 -0.855419,-0.47417 -0.06723,-0.0566 -0.378824,-0.23579 -0.692476,-0.398099 -0.313651,-0.1623 -0.608529,-0.32619 -0.655285,-0.3642 -0.05704,-0.0463 -0.07456,0.0184 -0.05348,0.19635 0.03728,0.313539 -0.157738,0.723799 -0.406114,0.854289 -0.244455,0.12844 -1.001299,0.0467 -1.940217,-0.20949 -0.75334,-0.20556 -1.529121,-0.444269 -1.807701,-0.556239 -0.110584,-0.0444 -0.148702,0.005 -0.194184,0.251299 -0.132913,0.72009 -0.498444,1.05275 -1.184798,1.0783 -1.047414,0.039 -1.922533,-0.11535 -2.996258,-0.52844 l -0.485569,-0.18681 -0.09402,0.54719 c -0.05175,0.30096 -0.145921,0.58948 -0.209352,0.64116 -0.08231,0.0671 -0.366082,0.0781 -0.991378,0.0386 -1.094913,-0.0692 -1.329905,-0.12866 -1.936774,-0.49027 -0.96639,-0.57584 -1.683853,-0.92989 -1.747172,-0.86219 -0.03555,0.038 -0.108771,0.20484 -0.162811,0.37081 -0.150729,0.46297 -0.5676,0.64092 -1.598104,0.6822 -0.829932,0.0332 -1.809972,-0.1292 -2.559676,-0.42426 -1.537943,-0.60527 -3.400039,-1.435809 -3.584608,-1.598809 -0.06723,-0.0594 -0.305512,-0.17919 -0.529543,-0.2663 -0.224041,-0.0871 -0.645639,-0.2668 -0.936891,-0.39932 -0.291251,-0.1325 -0.74951,-0.32053 -1.018351,-0.417819 -0.268851,-0.0973 -0.672113,-0.24318 -0.896154,-0.3242 -0.224042,-0.081 -0.544824,-0.14846 -0.71285,-0.1499 -0.279679,-0.002 -0.305481,0.016 -0.305196,0.21733 7.33e-4,0.529649 0.564676,1.022039 1.672659,1.460439 0.866379,0.3428 0.889798,0.35258 1.537351,0.642099 0.309425,0.13835 1.042636,0.41424 1.629367,0.61309 0.914307,0.30987 2.517321,1.015759 2.777605,1.223139 0.206307,0.16437 3.221776,1.19976 3.494183,1.19976 0.04543,0 0.524328,0.14044 1.06416,0.312089 2.322881,0.73862 4.294075,1.29158 5.014187,1.40657 0.425672,0.068 0.920592,0.16113 1.099823,0.207009 0.179231,0.0459 0.67415,0.15562 1.099822,0.24388 0.425673,0.0883 1.195545,0.25271 1.710838,0.36546 2.023348,0.44271 2.347013,0.50514 3.055054,0.5892 1.544962,0.18341 2.353176,0.626119 3.133093,1.716199 0.33324,0.465769 0.453176,0.792459 0.571828,1.557749 0.171968,1.109019 0.464095,2.287878 0.683583,2.758548 0.112978,0.24224 0.356547,0.59875 0.541288,0.79224 0.354052,0.370829 0.602387,0.466839 1.47333,0.569579 0.686894,0.081 0.678552,0.068 0.567448,0.88884 -0.05277,0.39003 -0.113355,0.800339 -0.134574,0.911809 -0.04533,0.2379 0.24308,0.58579 0.720194,0.8688 0.188704,0.11194 0.305512,0.24202 0.305512,0.34024 0,0.210609 -0.421332,0.803859 -0.753258,1.060609 l -0.265103,0.20506 0.152288,0.26085 c 0.08373,0.14347 0.269615,0.530779 0.41303,0.860679 0.313092,0.7202 1.330098,2.071839 2.101255,2.792669 0.302029,0.282319 0.570849,0.580429 0.597375,0.662449 0.02649,0.082 0.225488,0.40175 0.442154,0.7105 0.286148,0.407779 0.484794,0.831409 0.726051,1.548269 0.293309,0.871579 0.323766,1.030779 0.260661,1.362409 -0.03932,0.20653 -0.111287,0.41461 -0.159968,0.4624 -0.09973,0.0979 -0.799108,-0.0518 -1.553712,-0.3328 -0.473884,-0.17643 -0.543081,-0.23315 -1.888194,-1.547519 -0.483928,-0.47286 -0.911067,-0.85975 -0.949206,-0.85975 -0.0381,0 -0.564697,-0.476859 -1.17014,-1.059699 -0.605432,-0.58283 -1.276048,-1.185659 -1.49027,-1.339619 -0.214211,-0.15395 -0.52335,-0.38944 -0.686965,-0.52328 -0.839151,-0.6865 -2.541401,-1.650109 -3.922839,-2.220649 -0.753167,-0.311059 -1.531994,-0.638309 -1.763879,-0.741159 -0.141154,-0.0626 -0.290457,-0.11387 -0.331753,-0.11387 -0.04126,0 -0.439026,-0.14614 -0.883839,-0.32475 -0.444823,-0.17861 -0.918738,-0.36186 -1.053169,-0.40723 -0.404586,-0.13653 -1.297827,-0.493499 -1.384962,-0.553479 -0.04482,-0.0308 -0.236988,-0.0812 -0.427088,-0.11203 -0.19009,-0.0308 -0.526528,-0.14163 -0.747656,-0.24635 -0.221118,-0.10472 -0.578846,-0.23288 -0.794932,-0.2848 -0.4638,-0.11143 -0.934771,-0.3294 -1.329782,-0.61544 l -0.28514,-0.206479 0.325865,0.362029 c 0.179231,0.19911 0.527507,0.60143 0.773958,0.89405 0.246441,0.29262 0.470778,0.532639 0.498526,0.533389 0.02771,8e-4 0.229389,0.13802 0.448082,0.30505 0.414661,0.31672 1.328458,0.81599 1.493448,0.81599 0.05246,0 0.413948,0.14724 0.803275,0.3272 0.389337,0.179969 0.927844,0.417189 1.196686,0.527159 0.683165,0.27944 1.423355,0.65148 1.556777,0.78246 0.06183,0.0607 0.198473,0.17682 0.303618,0.25801 0.476513,0.367959 0.443763,0.819489 -0.08282,1.142039 -0.181553,0.11121 -0.480435,0.30087 -0.664168,0.42147 -0.444578,0.2918 -1.42524,0.37712 -2.220293,0.19317 -0.295123,-0.0683 -0.790043,-0.1462 -1.099823,-0.17315 -0.309771,-0.027 -0.819848,-0.1155 -1.133499,-0.19676 -0.313662,-0.0813 -1.1215,-0.25846 -1.795202,-0.39375 -1.513363,-0.30394 -2.049691,-0.47454 -3.066199,-0.975309 -0.438731,-0.21614 -0.825857,-0.39226 -0.860277,-0.39139 -0.03443,8.8e-4 -0.169442,0.17834 -0.300063,0.39436 -0.16931,0.280019 -0.356404,0.456639 -0.651741,0.615259 -0.475687,0.25548 -1.290534,0.37289 -1.748548,0.25195 -0.280769,-0.0742 -1.262704,-0.51279 -1.43565,-0.641329 -0.22127,-0.16447 -1.208023,-0.78128 -1.22042,-0.76289 -0.0081,0.0116 -0.06275,0.14067 -0.122065,0.28681 -0.138526,0.34128 -0.741412,0.933109 -1.168337,1.146929 -0.295336,0.14791 -0.416952,0.16039 -1.090298,0.11187 -0.778521,-0.0561 -1.241456,-0.18528 -2.59047,-0.72283 -0.783309,-0.312119 -1.405631,-0.519489 -1.563276,-0.520899 -0.109199,-9.6e-4 -0.238588,0.638479 -0.200205,0.989429 0.02323,0.21224 0.0071,0.22718 -0.198178,0.18859 -0.122879,-0.0231 -0.326283,-0.007 -0.452014,0.0363 -0.195234,0.0668 -0.279527,0.0427 -0.577563,-0.1654 -0.239789,-0.16742 -0.55287,-0.28391 -1.000708,-0.37237 -1.255859,-0.248049 -2.942188,-0.780119 -3.910484,-1.233839 -0.268851,-0.12597 -0.763771,-0.34453 -1.099822,-0.48569 -0.336062,-0.14116 -0.904304,-0.392659 -1.262756,-0.558909 -2.108925,-0.97804 -2.099064,-0.97424 -2.295968,-0.88617 -0.142081,0.0635 -0.188817,0.14998 -0.188817,0.34914 0,0.20641 0.08516,0.35257 0.386974,0.66392 0.581841,0.600279 1.138511,0.986099 2.228616,1.544589 0.376125,0.19271 0.830513,0.447229 1.009744,0.565619 0.17923,0.11837 0.564167,0.34287 0.855418,0.49887 0.291252,0.156 0.698721,0.37491 0.905496,0.48647 0.206775,0.11154 0.638529,0.29579 0.959433,0.40943 0.320914,0.11364 0.683318,0.257119 0.805342,0.318849 0.326099,0.16494 2.412502,0.82165 3.073247,0.96732 0.554409,0.12222 1.903148,0.549909 2.168271,0.687569 0.168658,0.0876 1.459365,0.41261 2.353227,0.59261 0.380862,0.0767 1.114074,0.24079 1.629367,0.36465 0.515282,0.12386 1.114695,0.25041 1.332013,0.28121 0.217318,0.0308 0.712238,0.14279 1.099823,0.24886 0.387585,0.106079 0.924656,0.242899 1.193507,0.304059 0.616373,0.14022 1.124016,0.31853 2.403314,0.8442 0.560093,0.23015 1.133703,0.45743 1.274684,0.50508 0.546555,0.184729 1.689955,0.969129 2.000368,1.372309 0.382919,0.497359 1.053464,1.827909 1.2696,2.519268 0.08944,0.28592 0.239851,0.77178 0.334371,1.07969 0.255741,0.833139 0.425316,1.058209 0.968417,1.285359 1.028457,0.43016 1.194649,0.541529 1.274185,0.853969 0.06519,0.25594 0.04614,0.33337 -0.149762,0.61092 -0.184527,0.26141 -0.207539,0.34368 -0.129561,0.46332 0.08485,0.13018 0.09015,0.13075 0.05052,0.006 -0.02435,-0.077 -0.0051,-0.13995 0.0437,-0.13995 0.05592,0 0.06906,0.0991 0.03596,0.27228 -0.04676,0.244809 -0.02119,0.297289 0.253908,0.519859 0.16826,0.13616 0.343406,0.24869 0.389204,0.25008 0.327903,0.01 0.910446,0.95587 0.830462,1.348479 -0.05114,0.25094 -0.412949,0.64101 -0.599127,0.64589 -0.05297,0.001 -0.120149,0.0762 -0.149242,0.16615 -0.05766,0.17825 0.469291,0.824589 1.278198,1.567859 0.64734,0.59481 0.880406,0.842449 1.083779,1.151529 0.252064,0.38307 1.372647,1.500939 1.875553,1.871019 1.250481,0.92018 1.751573,1.634469 1.751573,2.496789 0,0.413799 -0.0275,0.515779 -0.157574,0.584119 -0.156566,0.0822 -0.385762,0.093 -0.697844,0.0328 z" fill="#F5D327" stroke="none"></path><path style="" d="m 78.497544,-759.19253 c 0,-0.825 0.4359,-1.5 0.9686,-1.5 0.5327,0 0.7096,0.675 0.393,1.5 -0.3166,0.825 -0.7525,1.5 -0.9686,1.5 -0.2162,0 -0.393,-0.675 -0.393,-1.5 z" fill="#F5D327" stroke="none"></path></svg>