<svg style="fill: #a98307;" xmlns="http://www.w3.org/2000/svg" xmlns:xlink="http://www.w3.org/1999/xlink" version="1.0" x="0px" y="0px" viewBox="0 0 100 100" enable-background="new 0 0 100 100" xml:space="preserve"><path d="M76.2877579,30.0500317c0,0-0.0045853-13.5627403-26.4476471-14.4499187  c-26.4430656,0.8871784-26.4476757,14.4499187-26.4476757,14.4499187S47.4208832,22.8570023,76.2877579,30.0500317z"/><path d="M93.0166931,60.0262909c-2.3898468-6.6915741-7.3485184-11.2026176-26.606987-12.7458382  c-18.3913574-1.4737587-33.1392212,0-33.1392212,0C13.9923553,48.5550194,9.0533447,53.3347168,6.6634965,60.0262909  s1.9118791,12.1085892,1.9118791,12.1085892s1.0062332,1.3542328,4.6801291,2.1309357  c1.9635735,0.4151306,11.7433987,2.2804184,26.2944298,2.9151382c-1.074646-5.3267212-3.0430298-20.7448616,10.2901764-20.3492737  c13.2933846-0.3944206,11.376461,14.9293747,10.2998886,20.2999954c8.1415329-0.3924637,16.9951401-1.264267,26.2846909-2.86586  c0,0,2.9181061-0.2589111,4.6801224-2.1309357C91.1048126,72.1348801,95.4065399,66.717865,93.0166931,60.0262909z"/><path d="M47.2909203,80.2603607c-24.0577984-0.6373138-36.3256989-3.9831009-36.3256989-3.9831009  s2.7085047,16.2509689,23.8984852,17.5255661c0,0,14.0908852,1.4837036,29.952774,0  c21.1360092-1.9770508,23.8984833-17.5255661,23.8984833-17.5255661s-12.2678986,3.345787-36.325695,3.9831009H47.2909203z"/><path d="M86.325119,48.236393c0,0,1.5932236-10.037365-7.9661713-15.4543724c0,0-9.0918961-4.3415489-28.5188675-3.6644154  c-18.4521255-0.5576401-28.518837,3.6644154-28.518837,3.6644154C11.7618494,38.199028,13.355072,48.236393,13.355072,48.236393  S49.6115685,38.3981628,86.325119,48.236393z"/><path d="M64.8164825,15.5751123c0,0,0-9.2407379-14.1797752-10.0373631h-1.5932236  C34.8637085,6.3343744,34.8637085,15.5751123,34.8637085,15.5751123S48.4166451,10.9547577,64.8164825,15.5751123z"/></svg>
