<svg fill="#206020" xmlns="http://www.w3.org/2000/svg" xmlns:xlink="http://www.w3.org/1999/xlink" version="1.1" x="0px" y="0px" viewBox="0 0 100 100" enable-background="new 0 0 100 100" xml:space="preserve"><g><path d="M24.7,11.352v3.242c-0.412-0.249-0.894-0.396-1.411-0.396c-1.511,0-2.736,1.225-2.736,2.735s1.225,2.736,2.736,2.736   s2.735-1.226,2.735-2.736c0-0.075-0.005-0.149-0.011-0.223h0.011v-5.044l8.585,2.048v3.279c-0.413-0.249-0.894-0.396-1.411-0.396   c-1.511,0-2.736,1.225-2.736,2.736c0,1.511,1.225,2.735,2.736,2.735s2.735-1.225,2.735-2.735c0-0.076-0.005-0.149-0.011-0.224   h0.011v-5.08v-3.74V9.007L24.7,6.327V11.352z"/><path d="M75.178,46.479v3.242c-0.412-0.249-0.895-0.396-1.41-0.396c-1.512,0-2.736,1.225-2.736,2.735s1.225,2.736,2.736,2.736   c1.51,0,2.734-1.226,2.734-2.736c0-0.075-0.004-0.149-0.01-0.223h0.01v-5.044l8.586,2.048v3.279   c-0.412-0.249-0.895-0.396-1.412-0.396c-1.51,0-2.734,1.225-2.734,2.736c0,1.511,1.225,2.735,2.734,2.735   c1.512,0,2.736-1.225,2.736-2.735c0-0.076-0.006-0.149-0.012-0.224h0.012v-5.08v-3.74v-1.284l-11.234-2.68V46.479z"/><path d="M78.822,17.083l-7.285-2.681v5.025v3.242c-0.412-0.249-0.893-0.396-1.41-0.396c-1.512,0-2.736,1.225-2.736,2.735   s1.225,2.735,2.736,2.735c1.51,0,2.736-1.225,2.736-2.735c0-0.075-0.006-0.149-0.012-0.223h0.012v-4.872l5.959,2.192V17.083z"/><path d="M25.02,41.973l-7.284-2.681v5.025v3.242c-0.412-0.249-0.894-0.396-1.411-0.396c-1.511,0-2.735,1.225-2.735,2.735   s1.225,2.735,2.735,2.735s2.736-1.225,2.736-2.735c0-0.075-0.006-0.149-0.012-0.223h0.012v-4.872l5.959,2.192V41.973z"/></g><g><polygon points="52.231,49.825 51.117,47.894 50.002,45.963 48.887,47.894 47.772,49.825 50.002,49.825  "/><circle cx="43.194" cy="47.817" r="2.912"/><circle cx="56.81" cy="47.817" r="2.912"/><path d="M58.904,52.702H41.1c0,2.483,3.986,4.496,8.902,4.496S58.904,55.186,58.904,52.702z"/><path d="M48.551,19.006c-0.487,0.334-0.917,0.815-1.064,1.505l1.836,0.823c0,0,0.16-1.123,0.732-1.836   c0.529,0.793,0.619,1.89,0.619,1.89l2.245-0.847c-0.173-1.093-1.068-1.731-1.889-2.093c0.953-0.507,2.281-0.601,2.281-0.601   l-0.704-1.896c-1.147,0.147-1.923,0.819-2.422,1.475c0.256-0.71,0.377-1.616-0.148-2.426l-1.88,0.719c0,0,0.798,1.06,0.796,2.037   c-0.586-0.435-1.372-0.785-2.259-0.551l0.095,2.01C46.789,19.216,47.705,18.906,48.551,19.006z"/><path d="M56.93,59.916c2.973-1.579,5.361-4.159,6.512-7.356c3.046-2.123,3.278-9.257,3.278-9.257   c-1.134,0.349-2.254,1.246-3.009,1.955c-0.627-2.225-1.856-4.174-3.482-5.738l-4.674-8.83l-5.552-9.617L44.45,30.69L39.788,39.5   c-1.624,1.578-2.853,3.542-3.484,5.767c-0.756-0.71-1.881-1.613-3.021-1.964c0,0,0.231,7.06,3.232,9.224   c0.649,1.834,1.729,3.521,3.102,4.909c1.013,1.023,2.183,1.856,3.447,2.506l-0.049,0.215c-0.872,0.711-4.803,3.822-7.19,4.096   v2.055c0,0,3.131,0.279,5.926-0.612l-2.985,13.069c0,0,3.111,2.903,11.234,2.903s11.234-2.903,11.234-2.903l-2.985-13.069   c2.795,0.892,5.926,0.612,5.926,0.612v-2.055c-2.389-0.273-6.319-3.385-7.19-4.096L56.93,59.916z M46.541,31.602l5.508-2.528   l0.934,1.617l0.012,0.022l-7.902,3.627L46.541,31.602z M55.713,35.85h-5.71h-3.291l7.241-3.324L55.713,35.85z M51.02,27.292   l-2.768,1.27l1.751-3.032L51.02,27.292z M39.588,53.682c-1.695-2.779-1.907-6.319-0.559-9.283c0.092-0.202,0.19-0.401,0.294-0.595   h4.259l0.951-2.697l0.95,2.697h3.669l0.951-2.697l0.951,2.697h3.668l0.951-2.697l0.951,2.697h4.016   c0.761,1.41,1.204,3.003,1.22,4.71c-0.067,7.258-7.469,11.815-14.2,10.591C44.35,58.503,41.349,56.565,39.588,53.682z    M50.001,68.383c-0.74,0-1.341-0.6-1.341-1.34s0.601-1.341,1.341-1.341s1.34,0.601,1.34,1.341S50.741,68.383,50.001,68.383z    M50.001,64.924c-0.74,0-1.341-0.6-1.341-1.341c0-0.74,0.601-1.34,1.341-1.34s1.34,0.6,1.34,1.34   C51.341,64.324,50.741,64.924,50.001,64.924z"/><path d="M33.971,63.307c-0.562,0.059,0,0.975,0,0.975s-3.013,0.679-2.511,1.979s1.611,1.891,3.929-0.384v-1.24   C35.389,64.636,34.532,63.248,33.971,63.307z"/><path d="M66.029,64.281c0,0,0.562-0.916,0-0.975s-1.418,1.329-1.418,1.329v1.24c2.317,2.274,3.427,1.684,3.929,0.384   S66.029,64.281,66.029,64.281z"/><path d="M43.309,84.905c3.44,0.7,4.652-2.695,4.652-2.695c-2.981-0.033-4.161-0.632-4.161-0.632S40.888,84.413,43.309,84.905z"/><path d="M56.2,81.578c0,0-1.18,0.599-4.161,0.632c0,0,1.212,3.396,4.652,2.695C59.112,84.413,56.2,81.578,56.2,81.578z"/></g></svg>