<svg fill="#206020" xmlns="http://www.w3.org/2000/svg" xmlns:xlink="http://www.w3.org/1999/xlink" version="1.1" x="0px" y="0px" viewBox="0 0 100 100" enable-background="new 0 0 100 100" xml:space="preserve"><g><polygon points="33.01,51.766 32.199,50.36 31.388,48.956 30.577,50.36 29.766,51.766 31.388,51.766  "/><circle cx="24.953" cy="49.852" r="2.753"/><circle cx="37.823" cy="49.851" r="2.752"/><path d="M36.484,54.578H26.292c0,1.422,2.281,2.574,5.096,2.574S36.484,56,36.484,54.578z"/><path d="M30.014,22.615c-0.46,0.316-0.867,0.771-1.006,1.423l1.736,0.778c0,0,0.151-1.062,0.692-1.736   c0.501,0.751,0.585,1.787,0.585,1.787l2.122-0.801c-0.163-1.033-1.01-1.637-1.785-1.979c0.9-0.479,2.156-0.567,2.156-0.567   l-0.666-1.793c-1.084,0.14-1.818,0.775-2.289,1.395c0.242-0.671,0.356-1.527-0.14-2.293l-1.777,0.68c0,0,0.754,1.002,0.752,1.926   c-0.554-0.411-1.297-0.742-2.136-0.521l0.09,1.9C28.348,22.814,29.214,22.521,30.014,22.615z"/><path d="M37.938,61.288c1.553-0.825,2.937-1.938,4.048-3.279c0.1,0.026,0.205,0.043,0.313,0.043   c0.119,0,0.233-0.019,0.342-0.051c-0.001,0.018-0.003,0.034-0.003,0.052c0,0.429,0.327,0.781,0.745,0.821   c-1.444,2.211,3.326,4.864,3.326,4.864c0.359-5.719-1.614-5.787-2.427-5.581c0.004-0.034,0.007-0.068,0.007-0.104   c0-0.455-0.37-0.825-0.825-0.825c-0.011,0-0.022,0.002-0.033,0.002c0.038-0.116,0.059-0.24,0.059-0.369   c0-0.263-0.086-0.505-0.23-0.701c0.327-0.581,0.606-1.191,0.835-1.827c2.877-2.009,3.097-8.749,3.097-8.749   c-1.071,0.33-2.129,1.177-2.844,1.847c-0.592-2.103-1.754-3.944-3.291-5.423l0.394,0.745h-0.005l-4.812-9.091l-5.249-9.092   l-5.249,9.092l-4.413,8.337c-1.53,1.489-2.688,3.344-3.284,5.443c-0.714-0.671-1.778-1.526-2.855-1.858   c0,0,0.218,6.678,3.057,8.721c0.23,0.649,0.518,1.279,0.855,1.882c-0.132,0.191-0.21,0.424-0.21,0.675   c0,0.129,0.021,0.253,0.059,0.369c-0.011,0-0.021-0.002-0.033-0.002c-0.456,0-0.825,0.37-0.825,0.825   c0,0.036,0.003,0.07,0.007,0.104c-0.813-0.206-2.787-0.138-2.428,5.581c0,0,4.771-2.653,3.327-4.864   c0.417-0.04,0.744-0.393,0.744-0.821c0-0.018-0.001-0.034-0.002-0.052c0.108,0.032,0.223,0.051,0.342,0.051   c0.092,0,0.182-0.012,0.268-0.032c0.262,0.321,0.538,0.629,0.829,0.924c0.957,0.968,2.063,1.755,3.259,2.368l-0.047,0.203   c-0.824,0.673-4.539,3.613-6.796,3.871v1.942c0,0,2.959,0.265,5.601-0.578l-2.822,12.354c0,0,2.941,2.744,10.62,2.744   s10.62-2.744,10.62-2.744L39.186,66.75c2.642,0.843,5.601,0.578,5.601,0.578v-1.942c-2.257-0.258-5.973-3.198-6.796-3.871   L37.938,61.288z M36.784,38.538h-5.398h-3.111l6.846-3.143L36.784,38.538z M28.114,34.522l5.206-2.39l0.882,1.528l0.011,0.021   l-7.469,3.429L28.114,34.522z M32.348,30.448l-2.616,1.201l1.655-2.866L32.348,30.448z M21.546,55.395   c-1.313-2.152-1.685-4.787-1.075-7.209c2.062-0.371,6.562-1.583,10.918-5.434c4.342,3.839,8.829,5.055,10.899,5.43   c0.195,0.744,0.304,1.522,0.311,2.327c-0.063,6.861-7.06,11.17-13.424,10.012C26.046,59.952,23.21,58.121,21.546,55.395z    M31.389,69.291c-0.7,0-1.267-0.566-1.267-1.267s0.567-1.267,1.267-1.267c0.699,0,1.267,0.566,1.267,1.267   S32.088,69.291,31.389,69.291z M31.389,66.021c-0.7,0-1.267-0.567-1.267-1.267c0-0.7,0.567-1.268,1.267-1.268   c0.699,0,1.267,0.567,1.267,1.268C32.656,65.454,32.088,66.021,31.389,66.021z"/><path d="M16.236,64.493c-0.53,0.056,0,0.921,0,0.921s-2.848,0.642-2.373,1.87c0.475,1.229,1.522,1.787,3.713-0.362   v-1.173C17.576,65.749,16.767,64.438,16.236,64.493z"/><path d="M46.541,65.414c0,0,0.53-0.865,0-0.921c-0.531-0.056-1.34,1.256-1.34,1.256v1.173   c2.191,2.149,3.239,1.592,3.713,0.362C49.388,66.056,46.541,65.414,46.541,65.414z"/><path d="M25.062,84.91c3.253,0.661,4.398-2.549,4.398-2.549c-2.818-0.03-3.934-0.597-3.934-0.597   S22.774,84.444,25.062,84.91z"/><path d="M37.25,81.765c0,0-1.116,0.566-3.934,0.597c0,0,1.145,3.21,4.398,2.549   C40.002,84.444,37.25,81.765,37.25,81.765z"/><polygon points="70.721,51.749 69.667,49.924 68.613,48.098 67.559,49.924 66.505,51.749 68.613,51.749  "/><circle cx="62.178" cy="49.851" r="2.752"/><circle cx="75.048" cy="49.851" r="2.752"/><path d="M77.027,54.469H60.198c0,2.348,3.767,4.25,8.415,4.25C73.26,58.719,77.027,56.816,77.027,54.469z"/><path d="M67.241,22.615c-0.461,0.316-0.867,0.771-1.007,1.423l1.736,0.778c0,0,0.151-1.062,0.691-1.736   c0.501,0.751,0.586,1.787,0.586,1.787l2.122-0.801c-0.163-1.033-1.01-1.637-1.785-1.979c0.9-0.479,2.156-0.567,2.156-0.567   l-0.666-1.793c-1.084,0.14-1.817,0.775-2.289,1.395c0.242-0.671,0.356-1.527-0.14-2.293l-1.777,0.68c0,0,0.754,1.002,0.753,1.926   c-0.555-0.411-1.298-0.742-2.137-0.521l0.09,1.9C65.575,22.814,66.441,22.521,67.241,22.615z"/><path d="M75.161,61.288c2.811-1.493,5.068-3.933,6.155-6.954c2.88-2.007,3.1-8.751,3.1-8.751   c-1.072,0.33-2.131,1.179-2.845,1.849c-0.592-2.104-1.755-3.945-3.291-5.424l-4.418-8.347l-5.249-9.092l-5.248,9.092l-4.408,8.327   c-1.534,1.491-2.695,3.348-3.294,5.452c-0.714-0.672-1.777-1.525-2.854-1.857c0,0,0.218,6.674,3.055,8.719   c0.614,1.734,1.635,3.328,2.933,4.642c0.957,0.968,2.062,1.755,3.258,2.368l-0.046,0.203c-0.824,0.673-4.54,3.613-6.797,3.871   v1.942c0,0,2.959,0.265,5.601-0.578l-2.821,12.354c0,0,2.941,2.744,10.619,2.744c7.679,0,10.62-2.744,10.62-2.744L76.409,66.75   c2.642,0.843,5.601,0.578,5.601,0.578v-1.942c-2.257-0.258-5.973-3.198-6.797-3.871L75.161,61.288z M65.342,34.522l5.205-2.391   l0.883,1.529l0.011,0.021l-7.469,3.429L65.342,34.522z M74.012,38.538h-5.398h-3.111l6.846-3.143L74.012,38.538z M69.575,30.448   l-2.616,1.201l1.654-2.866L69.575,30.448z M58.769,55.395c-1.603-2.628-1.803-5.974-0.528-8.775   c0.088-0.191,0.181-0.379,0.278-0.562h4.025l0.898-2.55l0.899,2.55h3.468l0.899-2.55l0.898,2.55h3.468l0.899-2.55l0.898,2.55h3.797   c0.719,1.333,1.138,2.839,1.152,4.452c-0.063,6.861-7.061,11.17-13.424,10.012C63.27,59.952,60.433,58.121,58.769,55.395z    M68.611,69.291c-0.699,0-1.267-0.566-1.267-1.267s0.567-1.267,1.267-1.267c0.7,0,1.268,0.566,1.268,1.267   S69.312,69.291,68.611,69.291z M68.611,66.021c-0.699,0-1.267-0.567-1.267-1.267c0-0.7,0.567-1.268,1.267-1.268   c0.7,0,1.268,0.567,1.268,1.268C69.879,65.454,69.312,66.021,68.611,66.021z"/><path d="M53.459,64.493c-0.531,0.056,0,0.921,0,0.921s-2.849,0.642-2.374,1.87c0.475,1.229,1.523,1.787,3.714-0.362   v-1.173C54.799,65.749,53.989,64.438,53.459,64.493z"/><path d="M83.763,65.414c0,0,0.531-0.865,0-0.921c-0.53-0.056-1.34,1.256-1.34,1.256v1.173   c2.191,2.149,3.239,1.592,3.714,0.362C86.611,66.056,83.763,65.414,83.763,65.414z"/><path d="M62.285,84.91c3.253,0.661,4.398-2.549,4.398-2.549c-2.818-0.03-3.935-0.597-3.935-0.597   S59.997,84.444,62.285,84.91z"/><path d="M74.472,81.765c0,0-1.115,0.566-3.934,0.597c0,0,1.146,3.21,4.398,2.549   C77.225,84.444,74.472,81.765,74.472,81.765z"/><path d="M45.689,26.607c1.314,0,2.38-1.065,2.38-2.38c0-0.065-0.004-0.13-0.01-0.194h0.01v-4.388l7.468,1.782v2.853   c-0.358-0.217-0.777-0.344-1.228-0.344c-1.314,0-2.38,1.065-2.38,2.38s1.065,2.38,2.38,2.38s2.38-1.065,2.38-2.38   c0-0.065-0.005-0.13-0.01-0.194h0.01v-4.42v-3.254v-1.117L46.917,15v4.371v2.82c-0.359-0.217-0.778-0.344-1.228-0.344   c-1.314,0-2.38,1.065-2.38,2.38S44.375,26.607,45.689,26.607z"/></g></svg>