<svg xmlns="http://www.w3.org/2000/svg" data-name="Layer 1" viewBox="0 0 128 128" x="0px" y="0px"><path fill="#ffaa00" d="M126,101h-4.08a8,8,0,0,0-4.28-11.54l.06-.1.21-.35.17-.3c.06-.12.12-.25.18-.38l.14-.31c.05-.13.1-.27.15-.41s.07-.2.11-.31.08-.3.11-.44.05-.2.07-.3.06-.34.08-.51,0-.17,0-.26c0-.26,0-.53,0-.79a8,8,0,0,0-.09-1.15c0-.08,0-.16,0-.25a7.92,7.92,0,0,0-.26-1.06l-.06-.16a8,8,0,0,0-.38-.9l-.09-.19a8,8,0,0,0-.55-.9l-.14-.18a8.06,8.06,0,0,0-.64-.75l-.08-.09a8.07,8.07,0,0,0-.8-.7l-.2-.15a8,8,0,0,0-.9-.58l-.09,0a8,8,0,0,0-.92-.41l-.12-.05a8,8,0,0,0-4-12,8,8,0,0,0-4-12A8,8,0,0,0,99,41h-.08A8,8,0,0,0,92,29h-.08A8,8,0,0,0,85,17a8,8,0,0,0-7.55-8C75.74,3.77,70.26,0,64,0S52.26,3.77,50.55,9A8,8,0,0,0,43,17a8,8,0,0,0-6.92,12H36a8,8,0,0,0-6.92,12H29a8,8,0,0,0-6.64,12.46,8,8,0,0,0-4,12,8,8,0,0,0-4,12,8,8,0,0,0-4,12A8,8,0,0,0,6.08,101H2a2,2,0,0,0,0,4H6v21a2,2,0,0,0,4,0V105H118v21a2,2,0,0,0,4,0V105h4a2,2,0,0,0,0-4Zm-7-4a4,4,0,0,1-4,4h-4V96.07l4.53-3A4,4,0,0,1,119,97ZM55,92.6l-7-4.67V81.07l3.5-2.33L55,76.4l3.5,2.33L62,81.07v6.86ZM73,46.4l7,4.67v6.86l-3.5,2.33L73,62.6l-3.5-2.33L66,57.93V51.07ZM91,92.6l-3.5-2.33L84,87.93V81.07l3.5-2.33L91,76.4l7,4.67v6.86l-3.5,2.33ZM89,72.93l-3.5,2.33L82,77.6l-3.5-2.33L75,72.93V66.07l3.5-2.33L82,61.4l7,4.67ZM64,77.6l-3.5-2.33L57,72.93V66.07l3.5-2.33L64,61.4l3.5,2.33L71,66.07v6.86l-3.5,2.33ZM62,57.93l-3.5,2.33L55,62.6l-3.5-2.33L48,57.93V51.07l7-4.67,7,4.67ZM46,61.4l3.5,2.33L53,66.07v6.86l-3.5,2.33L46,77.6l-7-4.67V66.07ZM66,81.07l3.5-2.33L73,76.4l3.5,2.33L80,81.07v6.86l-3.5,2.33L73,92.6l-7-4.67Zm9,15,3.5-2.33L82,91.4l3.5,2.33L89,96.07V101H75Zm18,0,3.5-2.33L100,91.4l1.88,1.25h0L107,96.07V101H93ZM13,93H28a2,2,0,0,0,0-4H17a4,4,0,0,1,0-8H32a2,2,0,0,0,0-4H21a4,4,0,0,1,0-8h7a2,2,0,0,0,0-4H25a4,4,0,0,1,0-8h3a2,2,0,0,0,.33,0c.22,0,.44,0,.67,0h3a2,2,0,0,0,0-4H29a4,4,0,0,1,0-8H41a2,2,0,0,0,0-4H36a4,4,0,0,1,0-8H49a2,2,0,0,0,0-4H43a4,4,0,0,1,0-8h7a2,2,0,0,0,0-4H47a4,4,0,0,1,4-4h8a2,2,0,0,0,0-4H54.89A10.27,10.27,0,0,1,64,4c5,0,9.22,3.15,9.9,7.32a2,2,0,0,0,2,1.68H77a4,4,0,0,1,4,4H71a2,2,0,0,0,0,4H85a4,4,0,0,1,0,8H83a2,2,0,0,0,0,4h9a4,4,0,0,1,0,8H90a2,2,0,0,0,0,4h9a4,4,0,0,1,0,8H91a2,2,0,0,0,0,4h8c.22,0,.45,0,.67,0a2,2,0,0,0,.33,0h3a4,4,0,0,1,0,8h-2a2,2,0,0,0,0,4h6a4,4,0,0,1,4,4,4,4,0,0,1-.6,2.08c-.07.12-.15.22-.23.33l-.16.2a4,4,0,0,1-.69.64l-.21.14a4,4,0,0,1-.46.25l-.13.06a4,4,0,0,1-.64.2l-.17,0A4,4,0,0,1,107,77h-1a2,2,0,0,0,0,4h5a4,4,0,0,1,0,8h-7.39L102,87.93v-9l-.88-.59h0L93,72.93V66.07l4.38-2.92-2.22-3.33L91,62.6l-7-4.67v-9L73,41.6l-9,6-9-6L44,48.93v9l-9,6V75.07l9,6v9L55,97.4l9-6,7,4.67V101H13a4,4,0,0,1,0-8Z"/><path fill="#bb7700" d="M63,111H16a2,2,0,0,0,0,4H63a2,2,0,0,0,0-4Z"/><path fill="#bb7700" d="M50,120a2,2,0,0,0,2,2H74a2,2,0,0,0,0-4H52A2,2,0,0,0,50,120Z"/><path fill="#bb7700" d="M106,117a2,2,0,0,0,0-4H81a2,2,0,0,0,0,4Z"/></svg>