<svg style="fill: #e5a454" xmlns="http://www.w3.org/2000/svg" xmlns:xlink="http://www.w3.org/1999/xlink" version="1.1" x="0px" y="0px" viewBox="0 0 100 125" enable-background="new 0 0 100 100" xml:space="preserve"><g><path d="M94.281,17.854L73.418,5.803c-0.309-0.179-0.691-0.179-1,0L51.549,17.853c-0.311,0.179-0.5,0.509-0.5,0.866v24.096   c0,0.357,0.189,0.688,0.5,0.866L72.418,55.73c0.154,0.09,0.326,0.135,0.5,0.135c0.172,0,0.346-0.045,0.5-0.135l20.863-12.05   c0.309-0.178,0.5-0.508,0.5-0.866V18.719C94.781,18.362,94.59,18.032,94.281,17.854z M92.781,42.238L72.918,53.71L53.049,42.238   V19.296L72.918,7.823l19.863,11.473V42.238z M48.777,42.815V18.719c0-0.357-0.189-0.688-0.5-0.866L27.414,5.803   c-0.311-0.179-0.691-0.178-1,0L5.547,17.853c-0.311,0.179-0.5,0.509-0.5,0.866v24.096c0,0.357,0.189,0.688,0.5,0.866L26.414,55.73   c0.154,0.09,0.326,0.135,0.5,0.135c0.172,0,0.346-0.045,0.5-0.135l20.863-12.05C48.588,43.502,48.777,43.172,48.777,42.815z    M46.777,37.228L22.35,51.075l-3.762-2.172l28.189-15.917V37.228z M46.777,32.125L17.834,48.467l-3.713-2.144l32.656-18.537V32.125   z M13.367,45.888l-3.766-2.175l37.176-21.216v4.427L13.367,45.888z M7.047,28.786v-4.379l24.516-13.897l3.768,2.176L7.047,28.786z    M36.082,13.119l3.883,2.243L7.047,33.838v-4.189L36.082,13.119z M7.047,34.699l33.674-18.901l3.633,2.099L7.047,39.013V34.699z    M26.914,7.823l3.896,2.25L7.047,23.544v-4.248L26.914,7.823z M7.047,39.874l38.061-21.542l1.67,0.965v2.336L8.85,43.279   l-1.803-1.041V39.874z M26.914,53.71l-3.811-2.2l23.674-13.42v4.148L26.914,53.71z M71.203,57.307L50.346,45.259   c-0.309-0.179-0.689-0.179-1,0L28.477,57.307c-0.309,0.18-0.5,0.51-0.5,0.867V82.27c0,0.357,0.191,0.688,0.5,0.865l20.869,12.049   c0.154,0.09,0.328,0.135,0.5,0.135c0.174,0,0.346-0.045,0.5-0.135l20.857-12.049c0.311-0.178,0.5-0.508,0.5-0.865V58.174   C71.703,57.816,71.514,57.486,71.203,57.307z M69.703,81.691L49.846,93.164L29.977,81.691V58.75l19.869-11.47l19.857,11.47V81.691z    M27.732,54.865"/></g></svg>
