<svg fill="#226655" xmlns="http://www.w3.org/2000/svg" xmlns:xlink="http://www.w3.org/1999/xlink" version="1.1" x="0px" y="0px" viewBox="0 0 100 100" enable-background="new 0 0 100 100" xml:space="preserve"><g><path fill-rule="evenodd" clip-rule="evenodd" d="M23.371,73.273c-0.042,0.128-0.05,0.337-0.131,0.372   c-0.819,0.35-1.017,1.135-1.232,1.847c-0.513,1.698-0.979,3.412-1.39,5.137c-0.209,0.874-0.301,1.787,0.025,2.705   c-0.484,0.607-0.434,1.345-0.229,2.057c0.12,0.412,0.222,0.903,0.736,1.093c0.077,0.028,0.11,0.197,0.147,0.308   c0.185,0.55,0.35,0.651,0.888,0.479c0.906-0.29,1.59-0.864,2.072-1.681c0.121-0.206,0.228-0.423,0.368-0.615   c0.059-0.08,0.188-0.108,0.328-0.184c0.137,0.496-0.107,0.847-0.24,1.22c-0.474,1.327-1.58,1.882-2.814,2.216   c-0.712,0.192-1.603-0.32-1.94-1.074c-0.425-0.946-0.717-1.929-0.584-2.998c0.095-0.761,0.102-1.533,0.2-2.293   c0.095-0.734,0.219-1.469,0.399-2.187c0.333-1.324,0.631-2.668,1.105-3.943c0.44-1.18,1.07-2.293,1.661-3.413   c0.278-0.525,0.781-0.813,1.35-1.013c1.232-0.433,2.502-0.665,3.798-0.762c0.991-0.074,1.987-0.013,2.902,0.386   c1.201,0.523,2.371,0.317,3.48-0.137c0.944-0.387,1.837-0.938,2.688-1.513c0.994-0.671,1.98-1.345,3.057-1.88   c0.356-0.178,0.683-0.424,0.881-0.908c-0.791-0.377-1.52-0.794-2.297-1.079c-1.158-0.425-2.262-0.931-3.195-1.744   c-0.355-0.309-0.668-0.312-1.02-0.041c-0.037,0.029-0.085,0.046-0.124,0.073c-1.377,0.954-2.719,1.965-4.145,2.84   c-0.785,0.481-1.697,0.771-2.576,1.075c-1.058,0.365-2.174,0.412-3.273,0.305c-1.361-0.134-2.512-0.762-3.419-1.784   c-0.811-0.913-1.569-1.871-2.374-2.789c-0.233-0.267-0.583-0.431-0.816-0.697c-0.718-0.819-2.406-0.305-2.705,0.863   c-0.101,0.395-0.201,0.791-0.272,1.192c-0.061,0.343-0.15,0.617-0.643,0.463c-0.168,0.895-0.34,1.733-0.479,2.577   c-0.14,0.837-0.247,1.68-0.286,2.555c0.116-0.163,0.232-0.325,0.36-0.506c0.13,0.261,0.13,0.261-0.198,1.261   c-0.124-0.006-0.255-0.012-0.355-0.016c-0.305,3.431-0.605,6.84-0.913,10.248c-0.012,0.133-0.092,0.259-0.246,0.386   c-0.025-0.146-0.066-0.293-0.074-0.441c-0.12-2.094,0.136-4.166,0.365-6.239c0.059-0.523,0.133-1.051,0.119-1.575   c-0.021-0.846,0.035-1.668,0.263-2.491c0.165-0.594,0.261-1.215,0.307-1.83c0.102-1.373,0.454-2.691,0.794-4.015   c0.148-0.579,0.277-1.175,0.52-1.717c0.356-0.796,0.928-1.433,1.718-1.852c0.672-0.356,1.307-0.262,1.897,0.157   c1.201,0.853,2.296,1.835,3.04,3.115c0.591,1.017,1.436,1.646,2.499,2.044c1.04,0.389,2.099,0.441,3.183,0.185   c1.413-0.335,2.731-0.83,3.898-1.751c0.843-0.665,1.792-1.202,2.729-1.734c0.419-0.237,0.925-0.322,1.412-0.483   c-1.32-0.454-2.173-1.566-3.279-2.346c-0.545,0.294-1.12,0.547-1.631,0.893c-0.824,0.56-1.76,0.716-2.702,0.902   c-0.823,0.162-1.537-0.195-2.184-0.54c-0.879-0.47-1.656-1.133-2.461-1.734c-0.402-0.301-0.772-0.646-1.148-0.98   c-1.285-1.142-2.073-2.618-2.813-4.136c-0.27-0.555-0.611-1.077-0.957-1.59c-0.333-0.494-0.727-0.946-1.069-1.434   c-0.326-0.464-0.719-0.831-1.257-1.031c-0.424-0.159-0.822-0.127-1.258,0.019c-0.845,0.281-1.546,0.722-2.049,1.469   c-0.118,0.176-0.294,0.313-0.446,0.468c-1.038,1.051-1.7,2.292-1.977,3.752c-0.156,0.823-0.399,1.63-0.591,2.446   c-0.219,0.934-0.418,1.871-0.636,2.805c-0.119,0.513-0.267,1.019-0.389,1.53c-0.105,0.44-0.263,0.885-0.274,1.33   c-0.031,1.21-0.216,2.378-0.666,3.507c-0.113,0.283-0.18,0.606-0.176,0.91c0.018,1.257-0.178,2.484-0.418,3.711   c-0.487,2.488-0.417,4.961,0.25,7.41c0.265,0.972,0.565,1.932,0.834,2.902c0.174,0.625,0.635,0.998,1.125,1.351   c0.268,0.193,0.576,0.271,0.885,0.134c0.39-0.175,0.813-0.328,1.13-0.598c0.65-0.553,1.241-1.178,1.863-1.779   c-0.002-0.001,0.066,0.031,0.063,0.047c-0.318,1.382-1.011,2.461-2.397,2.998c-0.699,0.271-1.384,0.315-1.974-0.175   c-0.451-0.375-0.908-0.801-1.202-1.299c-0.837-1.42-1.216-3.017-1.573-4.608c-0.095-0.417-0.09-0.857-0.119-1.288   c-0.1-1.481-0.191-2.945,0.133-4.435c0.299-1.375,0.359-2.802,0.519-4.206c0.08-0.713,0.167-1.411,0.42-2.104   c0.217-0.594,0.215-1.267,0.31-1.904c0.091-0.613,0.147-1.234,0.279-1.838c0.255-1.17,0.545-2.332,0.836-3.493   c0.273-1.092,0.628-2.168,0.837-3.271c0.183-0.965,0.564-1.828,1.017-2.676c0.604-1.133,1.473-2.054,2.35-2.977   c0.5-0.526,1.058-0.872,1.754-1.034c1.126-0.265,2.608,0.25,3.256,1.208c0.896,1.324,1.979,2.533,2.619,4.019   c0.474,1.098,1.131,2.073,1.964,2.901c0.692,0.688,1.519,1.241,2.281,1.858c0.186,0.15,0.347,0.328,0.536,0.472   c0.301,0.229,0.593,0.483,0.927,0.649c1.753,0.867,3.342,0.418,4.841-0.651c0.23-0.165,0.461-0.332,0.765-0.551   c-0.346-0.39-0.63-0.771-0.975-1.086c-1.267-1.16-2.262-2.514-3.166-3.977c-0.978-1.58-1.537-3.29-2.036-5.043   c-0.065-0.23-0.151-0.456-0.24-0.678c-0.271-0.676-0.423-1.375-0.418-2.105c0.012-1.701,0.032-3.403,0.037-5.105   c0.004-1.367-0.011-2.734-0.017-4.102c0-0.119-0.01-0.243,0.016-0.358c0.359-1.66,0.491-3.37,1.094-4.977   c0.102-0.269,0.223-0.539,0.266-0.82c0.164-1.058,0.653-2,1.021-2.986c0.285-0.761,0.541-1.535,0.854-2.285   c0.415-0.992,0.87-1.968,1.318-2.946c0.1-0.216,0.244-0.41,0.371-0.612c0.114-0.183,0.301-0.348,0.341-0.545   c0.154-0.752,0.656-1.248,1.158-1.771c0.479-0.499,0.923-1.043,1.122-1.735c0.025-0.091,0.071-0.181,0.128-0.256   c0.635-0.842,1.25-1.699,1.919-2.514c0.466-0.566,0.645-1.145,0.426-1.858c-0.273-0.893-0.559-1.786-0.752-2.697   c-0.343-1.62-0.537-3.265-0.566-4.925c-0.012-0.708,0.266-0.93,0.864-0.569c1.391,0.839,2.976,1.38,4.131,2.579   c0.391,0.405,0.829,0.707,1.305,0.981c0.294,0.17,0.55,0.186,0.872,0.017c1.274-0.665,2.566-1.296,3.852-1.939   c0.064-0.032,0.131-0.095,0.193-0.091c0.736,0.046,1.203-0.467,1.766-0.809c1.269-0.771,2.65-1.275,4.096-1.629   c1.117-0.273,2.205-0.662,3.321-0.938c0.834-0.206,1.688-0.389,2.541-0.438c0.605-0.036,1.188-0.119,1.745-0.315   c0.688-0.242,1.365-0.189,2.06-0.087c1.018,0.15,2.039,0.276,3.06,0.411c0.047,0.006,0.096-0.001,0.144,0.002   c0.169,0.008,3.476,0.944,3.634,1.012c0.484,0.205,1.006,0.346,1.45,0.614c0.777,0.469,1.537,0.977,2.25,1.537   c1.296,1.019,2.655,1.954,3.673,3.311c0.611,0.814,1.46,1.449,2.188,2.177c0.66,0.659,1.359,1.289,1.746,2.169   c0.116,0.265,0.321,0.34,0.588,0.282c0.211-0.046,0.416-0.122,0.629-0.148c0.83-0.102,1.661-0.201,2.494-0.279   c1.216-0.116,2.435-0.216,3.652-0.316c0.286-0.023,0.576-0.054,0.86-0.028c0.473,0.043,0.623,0.302,0.437,0.746   c-0.081,0.194-0.219,0.371-0.352,0.538c-0.537,0.676-1.068,1.356-1.628,2.013c-0.504,0.593-0.9,1.238-1.172,1.967   c-0.1,0.269-0.226,0.533-0.38,0.773c-0.062,0.098-0.271,0.205-0.344,0.169c-0.126-0.062-0.219-0.223-0.285-0.361   c-0.033-0.071,0.001-0.193,0.038-0.277c0.399-0.919,0.687-1.888,1.413-2.646c0.477-0.498,0.858-1.086,1.275-1.641   c0.065-0.087,0.087-0.207,0.173-0.425c-0.534,0.071-0.974,0.138-1.416,0.185c-0.38,0.041-0.762,0.085-1.143,0.081   c-1.156-0.012-2.301,0.078-3.427,0.352c-0.181,0.044-0.356,0.112-0.64,0.202c0.139,0.254,0.223,0.467,0.356,0.644   c0.519,0.689,1.064,1.359,1.579,2.052c0.858,1.153,1.71,2.311,2.542,3.481c0.22,0.31,0.328,0.695,0.532,1.018   c0.691,1.092,1.404,2.169,2.103,3.256c0.115,0.18,0.199,0.379,0.295,0.57c0.43,0.856,0.804,1.746,1.301,2.561   c0.598,0.976,1.032,1.998,1.282,3.109c0.179,0.795,0.39,1.583,0.567,2.378c0.238,1.063,0.238,2.137,0.156,3.219   c-0.052,0.692-0.1,1.391-0.067,2.083c0.046,1.004-0.314,1.933-0.435,2.902c-0.044,0.349,0.022,0.71,0.002,1.063   c-0.034,0.595,0.014,1.226-0.171,1.774c-0.567,1.679-1.212,3.332-1.861,4.981c-0.342,0.87-0.75,1.713-1.144,2.561   c-0.425,0.916-0.918,1.789-1.58,2.563c-0.277,0.326-0.447,0.745-0.725,1.07c-0.901,1.059-1.841,2.084-2.746,3.139   c-0.994,1.158-2.21,2.045-3.451,2.906c-0.786,0.545-1.555,1.118-2.351,1.648c-0.335,0.223-0.721,0.371-1.083,0.551   c-0.064,0.031-0.146,0.037-0.199,0.081c-0.922,0.765-2.106,0.996-3.137,1.542c0.506,0.264,1.627,0.227,2.146-0.078   c2.42-1.42,4.826-2.856,7.008-4.642c0.683-0.559,1.449-1.034,2.229-1.45c1.438-0.767,2.77-1.735,4.314-2.291   c0.623-0.224,1.276-0.366,1.943-0.457c-0.541,0.265-1.082,0.529-1.623,0.793l0.019-0.02c-1.361,0.794-2.713,1.604-4.086,2.376   c-1.768,0.992-3.258,2.358-4.887,3.538c-0.444,0.322-0.937,0.579-1.405,0.868c-0.772,0.476-1.59,0.894-2.305,1.443   c-1.003,0.771-2.106,1.047-3.312,0.846c-1.335-0.223-2.603-0.048-3.874,0.355c-1.185,0.376-2.39,0.688-3.585,1.031   c-0.11,0.031-0.214,0.09-0.33,0.14c0.055,0.762,0.615,1.159,1.097,1.556c1.387,1.144,2.983,1.486,4.728,1.028   c2.112-0.555,4.174-1.266,6.173-2.143c1.514-0.664,3.038-1.315,4.494-2.091c1.16-0.617,2.218-1.423,3.334-2.123   c0.402-0.252,0.842-0.449,1.273-0.65c0.565-0.263,1.154-0.478,1.706-0.765c0.694-0.361,1.434-0.536,2.197-0.643   c0.142-0.02,0.287-0.018,0.431-0.011c1.061,0.051,1.28,0.352,1.025,1.474c-0.172-0.161-0.312-0.319-0.477-0.441   c-0.388-0.288-0.788-0.405-1.27-0.162c-0.357,0.182-0.771,0.252-1.145,0.408c-0.751,0.314-1.472,0.714-2.241,0.966   c-1.051,0.345-1.883,1.021-2.786,1.602c-1.797,1.156-3.7,2.117-5.671,2.942c-0.771,0.323-1.522,0.709-2.315,0.963   c-1.687,0.542-3.391,1.032-5.097,1.511c-1.196,0.336-2.325-0.026-3.435-0.444c-1.21-0.456-2.216-1.142-2.7-2.408   c-0.129-0.336-0.382-0.389-0.7-0.334c-0.566,0.099-1.133,0.207-1.703,0.274c-0.618,0.072-1.241,0.099-1.862,0.154   c-0.182,0.017-0.361,0.064-0.58,0.104c0.086,0.67,0.425,1.171,0.747,1.656c0.49,0.737,1.021,1.452,1.591,2.13   c0.286,0.341,0.66,0.645,1.055,0.849c1.383,0.719,2.791,1.391,4.194,2.069c0.213,0.104,0.45,0.19,0.684,0.216   c2.024,0.218,4.009,0.686,6.064,0.751c1.675,0.053,2.972,0.94,3.67,2.572c0.478,1.118,0.616,2.247,0.412,3.445   c-0.104,0.61-0.128,1.24-0.128,1.862c-0.001,1.736-0.254,3.437-0.657,5.121c-0.244,1.023-0.427,2.063-0.703,3.075   c-0.163,0.597-0.391,1.195-0.703,1.727c-0.585,0.996-2.198,1.261-3.034,0.534c-0.188-0.163-0.372-0.409-0.416-0.644   c-0.1-0.538-0.184-1.099-0.143-1.64c0.071-0.958-0.036-1.868-0.42-2.744c-0.223-0.509-0.25-1.011-0.063-1.54   c0.086-0.243,0.1-0.515,0.13-0.775c0.063-0.547,0.088-1.1,0.179-1.642c0.218-1.3,0.05-2.499-0.949-3.438   c-0.502-0.472-1.056-0.917-1.656-1.248c-1.198-0.661-2.484-1.127-3.81-1.485c-0.506-0.137-0.992-0.355-1.476-0.563   c-1.077-0.465-2.121-1.02-3.226-1.402c-1.584-0.55-2.808-1.573-3.852-2.802c-0.74-0.87-1.387-1.847-1.919-2.857   c-0.404-0.77-0.612-1.657-0.816-2.514c-0.172-0.718-0.115-0.749-0.885-0.878c-1.538-0.256-3.07-0.528-4.511-1.163   c-0.396-0.174-0.712-0.08-1.04,0.222c-1.285,1.188-2.528,2.437-3.922,3.484c-0.96,0.723-1.971,1.409-3.118,1.898   c-1.411,0.602-2.886,0.883-4.358,1.131c-1.116,0.188-2.291,0.29-3.427-0.05c-1.397-0.419-2.466,0.193-3.447,1.087   c-0.139,0.126-0.273,0.255-0.462,0.431c-0.391-0.558,0.369-1.107-0.098-1.536c0.604-0.328,1.16-0.639,1.725-0.934   c0.439-0.229,0.913-0.313,1.396-0.182c2.146,0.586,4.256,0.389,6.396-0.115c1.881-0.442,3.455-1.388,4.931-2.557   c1.089-0.864,2.146-1.769,3.229-2.64c0.268-0.216,0.581-0.375,1.01-0.646c-0.718-0.21-1.273-0.416-1.847-0.524   c-0.364-0.068-0.616-0.212-0.813-0.511c-0.231-0.354-0.548-0.59-1.04-0.679c-0.681,1.004-1.8,1.434-2.77,2.074   c-0.559,0.369-1.111,0.758-1.618,1.194c-0.773,0.667-1.679,1.108-2.569,1.57c-0.301,0.156-0.688,0.173-1.04,0.195   c-0.66,0.044-1.324,0.047-2.108,0.07c-0.396-0.388-1.035-0.559-1.716-0.611c-1.6-0.124-3.149,0.058-4.663,0.631   c-0.621,0.234-1.234,0.402-1.523,1.072c-0.059,0.133-0.14,0.282,0.111,0.307L23.371,73.273z M76.858,15.363   c-0.135-0.696-0.505-1.254-1.209-1.909c-1.229-1.143-2.504-2.233-3.528-3.581c-0.328-0.432-0.782-0.773-1.209-1.12   c-0.947-0.77-1.87-1.582-2.885-2.253c-0.969-0.641-2-1.208-3.226-1.272c-0.392-0.021-0.772-0.216-1.162-0.316   c-0.481-0.123-0.98-0.364-1.446-0.314c-0.836,0.089-1.609-0.068-2.4-0.261c-0.347-0.085-0.709-0.126-1.066-0.148   c-0.332-0.021-0.673-0.021-1.001,0.026c-0.658,0.097-1.311,0.234-1.967,0.351c-0.92,0.164-1.854,0.275-2.758,0.501   c-0.855,0.213-1.681,0.549-2.521,0.822c-0.433,0.142-0.862,0.327-1.307,0.387c-1.042,0.139-1.862,0.745-2.708,1.26   c-0.789,0.48-1.485,1.112-2.221,1.679c-0.209,0.16-0.401,0.346-0.624,0.482c-0.13,0.079-0.372,0.168-0.449,0.106   c-0.365-0.29-0.646-0.051-0.911,0.121c-0.262,0.17-0.501,0.245-0.807,0.155c-0.311-0.091-0.579-0.014-0.876,0.165   c-0.641,0.386-1.143,0.989-1.895,1.199c-0.084,0.023-0.154,0.111-0.223,0.178c-0.412,0.398-0.807,0.816-1.235,1.197   c-0.677,0.603-1.366,1.179-1.916,1.919c-0.64,0.861-1.108,1.838-1.873,2.621c-0.386,0.396-0.546,1.001-0.871,1.467   c-0.357,0.511-0.75,0.99-0.91,1.612c-0.027,0.104-0.158,0.178-0.227,0.275c-0.349,0.503-0.71,0.998-1.033,1.517   c-0.328,0.527-0.631,1.071-0.918,1.622c-0.428,0.824-0.886,1.64-1.233,2.498c-0.629,1.551-1.196,3.128-1.765,4.702   c-0.168,0.464-0.256,0.957-0.379,1.43c0.189,0.069,0.289,0.106,0.389,0.144c-0.61,0.128-0.799,0.505-0.877,1.047   c-0.085,0.591-0.281,1.164-0.399,1.751c-0.15,0.749-0.335,1.499-0.386,2.257c-0.051,0.761,0.077,1.531,0.071,2.297   c-0.014,1.701-0.066,3.403-0.093,5.104c-0.021,1.322,0.035,2.638,0.451,3.911c0.282,0.864,0.598,1.721,0.832,2.598   c0.473,1.776,1.417,3.291,2.506,4.734c0.302,0.4,0.572,0.835,0.925,1.186c0.915,0.907,1.854,1.791,2.809,2.657   c0.688,0.625,1.401,1.228,2.133,1.803c0.393,0.309,0.884,0.496,1.268,0.813c1.334,1.104,2.963,1.658,4.462,2.455   c0.058,0.03,0.138,0.019,0.256,0.032c0.038-0.173,0.073-0.338,0.108-0.499c0.259-0.025,0.508-0.109,0.65,0.234   c-0.163,0.143-0.324,0.283-0.5,0.437c0.114,0.079,0.169,0.125,0.23,0.16c1.88,1.07,3.86,1.914,5.884,2.67   c1.586,0.593,3.222,0.89,4.905,1.033c1.509,0.128,3,0.182,4.484-0.167c0.108-0.026,0.234,0.03,0.353,0.04   c0.238,0.021,0.478,0.061,0.714,0.047c2.601-0.146,5.123-0.673,7.57-1.564c0.36-0.131,0.732-0.228,1.099-0.341   c1.119-0.346,2.257-0.64,3.351-1.052c1.007-0.379,1.968-0.881,2.943-1.34c0.249-0.117,0.479-0.277,0.638-0.37   c-0.146-0.28-0.365-0.507-0.324-0.664c0.092-0.344,0.316-0.651,0.486-0.975c0.054,0.011,0.107,0.022,0.161,0.033   c0.069,0.374,0.14,0.748,0.224,1.196c1.712-0.706,2.9-2.013,4.362-2.903c0.246-0.149,0.438-0.389,0.669-0.6   c-0.572-0.44-0.544,0.416-0.944,0.282c-0.229-0.236-0.011-0.435,0.089-0.629c0.175-0.34,0.423-0.65,0.551-1.005   c0.1-0.273,0.14-0.616,0.069-0.893c-0.217-0.857-0.066-1.498,0.609-2.029c0.122-0.096,0.339-0.071,0.511-0.103   c0.014,0.178,0.064,0.363,0.029,0.53c-0.026,0.126-0.172,0.222-0.248,0.342c-0.063,0.098-0.162,0.23-0.137,0.315   c0.098,0.319,0.097,0.561-0.131,0.866c-0.156,0.211-0.06,0.596-0.131,0.889c-0.092,0.378,0.014,0.6,0.47,0.725   c0.967-1.02,1.953-2.06,2.939-3.101c0.016-0.018,0.025-0.04,0.039-0.061c0.746-1.116,1.506-2.223,2.232-3.352   c0.349-0.542,0.652-1.116,0.946-1.691c0.514-1.001,0.97-2.033,1.514-3.016c0.51-0.923,0.834-1.875,0.842-2.936   c0.007-1.006-0.04-2.023,0.093-3.015c0.17-1.26,0.371-2.511,0.402-3.786c0.031-1.292,0.194-2.585-0.14-3.866   c-0.181-0.695-0.273-1.416-0.48-2.103c-0.24-0.798-0.517-1.593-0.861-2.351c-0.385-0.849-0.928-1.628-1.286-2.485   c-0.478-1.142-1.089-2.183-1.865-3.139c-0.194-0.24-0.343-0.52-0.495-0.791c-0.386-0.688-0.707-1.42-1.155-2.063   c-0.97-1.393-1.935-2.792-3.06-4.071c-0.423-0.48-0.784-1.014-1.185-1.539c-0.321,0.281-0.573,0.229-0.766-0.061   c-0.186-0.278-0.42-0.557-0.499-0.869c-0.171-0.672-0.625-1.118-1.075-1.583c-0.17-0.176-0.334-0.358-0.501-0.538   C75.737,13.907,76.252,14.678,76.858,15.363z M55.815,70.267c-0.949,0-1.905-0.01-2.86,0.004c-0.657,0.01-0.749,0.143-0.602,0.792   c0.042,0.186,0.11,0.366,0.171,0.548c0.126,0.383,0.252,0.766,0.384,1.147c0.047,0.134,0.09,0.277,0.17,0.392   c0.592,0.839,1.048,1.757,1.719,2.559c1.306,1.56,2.888,2.631,4.822,3.229c0.541,0.168,1.068,0.42,1.555,0.713   c0.683,0.412,1.37,0.785,2.16,0.941c1.158,0.23,2.254,0.641,3.336,1.109c1.09,0.473,1.969,1.239,2.679,2.124   c0.431,0.536,0.79,0.744,1.412,0.611c0.025-0.005,0.065,0.058,0.11,0.1c0.008,0.262-0.175,0.345-0.391,0.418   c-0.524,0.18-0.565,0.211-0.498,0.752c0.069,0.562-0.052,1.088-0.137,1.635c-0.253,1.613-0.432,3.236,0.292,4.798   c0.07,0.15,0.133,0.317,0.145,0.479c0.042,0.563,0.33,0.855,0.883,0.969c0.502,0.103,0.598,0.246,0.601,0.653   c0.003,0.435-0.138,0.634-0.593,0.768c-0.302,0.088-0.597,0.163-0.758,0.452c0.091,0.397,0.34,0.564,0.689,0.518   c0.591-0.078,1.15-0.282,1.381-0.887c0.211-0.553,0.334-1.141,0.486-1.716c0.056-0.208,0.037-0.446,0.133-0.628   c0.249-0.478,0.312-0.994,0.435-1.505c0.491-2.037,0.666-4.107,0.751-6.192c0.019-0.452,0.104-0.901,0.135-1.354   c0.042-0.594,0.133-1.196,0.075-1.782c-0.153-1.544-0.992-2.612-2.428-3.2c-0.582-0.239-1.171-0.338-1.82-0.283   c-1.587,0.135-3.15-0.192-4.717-0.388c-0.838-0.104-1.622-0.394-2.377-0.775c-1.048-0.53-2.13-0.995-3.152-1.567   c-0.618-0.348-1.231-0.773-1.702-1.294c-0.589-0.652-1.065-1.417-1.522-2.174C56.413,71.622,56.146,70.952,55.815,70.267z    M33.554,7.253c-0.121,0.774,0.456,4.558,0.87,5.647c0.127,0.334,0.122,0.765,0.58,1.01c1.01-1.316,2.525-2.096,3.584-3.481   c-0.219-0.149-0.373-0.326-0.559-0.369c-0.487-0.112-0.754-0.456-1.056-0.808c-0.833-0.969-1.936-1.54-3.105-1.995   C33.788,7.226,33.686,7.253,33.554,7.253z M14.823,63.391c-0.332,0.22-0.332,0.22-0.249,0.593   C14.646,63.814,14.717,63.645,14.823,63.391z"/><path fill-rule="evenodd" clip-rule="evenodd" d="M86.085,58.883c0.958-0.305,1.906-0.644,2.875-0.906   c0.946-0.257,1.904-0.5,2.873-0.638c1.756-0.248,2.923,0.685,3.108,2.468c0.079,0.758,0.074,1.536,0.008,2.295   c-0.147,1.674-0.523,3.307-0.955,4.932c-0.206,0.78-0.253,1.603-0.369,2.407c-0.112,0.781-0.261,1.561-0.324,2.346   c-0.108,1.345-0.39,2.646-0.755,3.942c-0.199,0.708-0.186,1.473-0.331,2.199c-0.397,1.974-0.792,3.949-1.258,5.908   c-0.321,1.354-0.938,2.54-2.227,3.285c-0.701,0.406-1.296,0.992-2.119,1.186c-0.292,0.068-0.563,0.131-0.809-0.198   c0.095-0.067,0.174-0.155,0.271-0.189c1.349-0.481,2.38-1.415,3.391-2.374c0.147-0.141,0.254-0.354,0.312-0.554   c0.243-0.827,0.495-1.654,0.679-2.496c0.341-1.568,0.648-3.145,0.945-4.723c0.172-0.917,0.273-1.847,0.447-2.764   c0.11-0.584,0.35-1.146,0.436-1.732c0.269-1.822,0.456-3.656,0.745-5.475c0.158-0.99,0.473-1.955,0.688-2.938   c0.117-0.536,0.148-1.091,0.262-1.628c0.208-0.991,0.332-1.985,0.253-2.998c-0.017-0.215-0.03-0.432-0.074-0.642   c-0.228-1.087-0.896-1.721-2.002-1.698c-0.927,0.02-1.86,0.171-2.773,0.351c-0.916,0.18-1.812,0.463-2.713,0.711   c-0.213,0.059-0.414,0.163-0.563-0.098C86.104,58.863,86.085,58.883,86.085,58.883z"/><path fill-rule="evenodd" clip-rule="evenodd" d="M86.817,81.021c0.249,0.268,0.154,0.497,0.107,0.719   c-0.121,0.563-0.253,1.122-0.361,1.686c-0.049,0.256-0.053,0.521-0.074,0.781c-0.014,0.166,0.038,0.371-0.042,0.492   c-0.388,0.594-0.239,1.249-0.269,1.885c-0.012,0.238,0.002,0.487-0.063,0.712c-0.046,0.157-0.185,0.365-0.321,0.401   c-0.26,0.068-0.481-0.108-0.525-0.37c-0.054-0.328-0.076-0.671-0.046-1.002c0.055-0.591,0.162-1.164,0.635-1.613   c0.132-0.126,0.126-0.4,0.174-0.608c0.204-0.886,0.403-1.773,0.611-2.657C86.673,81.317,86.742,81.2,86.817,81.021z"/><path fill-rule="evenodd" clip-rule="evenodd" d="M87.752,75.29c-0.095-0.478,0.14-0.919,0.207-1.378   c0.063-0.423,0.169-0.84,0.255-1.26c0.101-0.489,0.203-0.979,0.299-1.469c0.045-0.233,0.122-0.473,0.104-0.703   c-0.044-0.567,0.228-0.992,0.553-1.481c0.21,0.321,0.116,0.595,0.07,0.863c-0.085,0.492-0.155,0.987-0.262,1.474   c-0.086,0.392-0.22,0.772-0.324,1.16c-0.081,0.297-0.151,0.598-0.225,0.896c-0.157,0.642-0.314,1.283-0.472,1.925   C87.89,75.309,87.82,75.299,87.752,75.29z"/><path fill-rule="evenodd" clip-rule="evenodd" d="M23.79,77.367c-0.22,0.304-0.456,0.539-0.574,0.822   c-0.121,0.29-0.21,0.569-0.493,0.733c-0.499-0.519-0.596-0.81-0.382-1.107C22.632,77.409,23.306,77.184,23.79,77.367z"/><path fill-rule="evenodd" clip-rule="evenodd" d="M24.821,83.493c-0.13-0.938-0.213-1.725,0.187-2.58   C25.223,81.49,25.132,82.869,24.821,83.493z"/><path fill-rule="evenodd" clip-rule="evenodd" d="M23.852,75.824c-0.319,0.384-0.567,0.693-0.838,0.982   c-0.018,0.019-0.268-0.096-0.292-0.181c-0.096-0.34,0.357-1.021,0.693-1.04C23.532,75.579,23.657,75.713,23.852,75.824z"/><path fill-rule="evenodd" clip-rule="evenodd" d="M34.513,72.24c-0.503,0.311-1.031,0.511-1.688,0.534   c0.041-0.181,0.029-0.343,0.105-0.427C33.121,72.138,33.86,72.077,34.513,72.24z"/><path fill-rule="evenodd" clip-rule="evenodd" d="M28.132,73.196c-0.467,0.146-0.89,0.559-1.443,0.246   C27.027,72.893,27.262,72.849,28.132,73.196z"/><path fill-rule="evenodd" clip-rule="evenodd" d="M88.619,66.318c0.294,0.898,0.274,1.422,0,2.256   C88.619,67.748,88.619,67.033,88.619,66.318z"/><path fill-rule="evenodd" clip-rule="evenodd" d="M87.641,76.433c0.172,0.659,0.008,1.16-0.304,1.662   C87.101,77.577,87.159,77.244,87.641,76.433z"/><path fill-rule="evenodd" clip-rule="evenodd" d="M25.354,78.684c-0.19-0.63-0.11-1.058,0.315-1.447   C25.807,77.793,25.761,78.026,25.354,78.684z"/><path fill-rule="evenodd" clip-rule="evenodd" d="M92.618,59.646c-0.476,0.452-0.692,0.467-1.132,0.073   C91.952,59.347,92.059,59.34,92.618,59.646z"/><path fill-rule="evenodd" clip-rule="evenodd" d="M85.244,61.888c-0.485,0.39-0.89,0.614-1.438,0.502   C84.1,61.895,84.479,61.749,85.244,61.888z"/><path fill-rule="evenodd" clip-rule="evenodd" d="M23.375,73.285c0.385-0.086,0.768-0.178,1.154-0.256   c0.166-0.033,0.338-0.038,0.563-0.062c-0.305,0.616-1.031,0.71-1.719,0.31C23.371,73.273,23.375,73.285,23.375,73.285z"/><path fill-rule="evenodd" clip-rule="evenodd" d="M25.352,74.985c-0.256,0.02-0.425,0.086-0.509,0.028   c-0.161-0.111-0.28-0.287-0.4-0.449c-0.018-0.023,0.07-0.173,0.088-0.168c0.194,0.044,0.396,0.086,0.571,0.177   C25.188,74.617,25.222,74.762,25.352,74.985z"/><path fill-rule="evenodd" clip-rule="evenodd" d="M11.576,57.696c-0.501,0.23-0.747,0.22-0.816-0.039   c-0.026-0.1,0.053-0.307,0.137-0.343C11.226,57.169,11.433,57.338,11.576,57.696z"/><path fill-rule="evenodd" clip-rule="evenodd" d="M37.48,71.081c0.289-0.143,0.438-0.26,0.598-0.278   c0.088-0.01,0.257,0.132,0.28,0.231c0.06,0.248-0.126,0.357-0.338,0.331C37.882,71.348,37.756,71.231,37.48,71.081z"/><path fill-rule="evenodd" clip-rule="evenodd" d="M27.688,71.479c0.488-0.216,0.799,0.033,1.175,0.166   C28.374,71.943,28.26,71.928,27.688,71.479z"/><path fill-rule="evenodd" clip-rule="evenodd" d="M9.445,60.877c-0.027-0.486-0.027-0.486,0.887-0.456   C10.1,60.764,9.788,60.834,9.445,60.877z"/><path fill-rule="evenodd" clip-rule="evenodd" d="M24.5,78.514c-0.134-0.154-0.202-0.233-0.271-0.312   c0.147-0.124,0.295-0.247,0.442-0.37c0.063,0.082,0.195,0.201,0.176,0.24C24.771,78.219,24.645,78.339,24.5,78.514z"/><path fill-rule="evenodd" clip-rule="evenodd" d="M82.879,62.496c-0.05,0.423-0.271,0.48-0.521,0.447   c-0.095-0.012-0.176-0.127-0.263-0.195c0.082-0.097,0.149-0.248,0.252-0.277C82.492,62.431,82.662,62.48,82.879,62.496z"/><path fill-rule="evenodd" clip-rule="evenodd" d="M91.11,64.76c0.223-0.011,0.415-0.02,0.592-0.027   c0.107,0.279,0.035,0.434-0.189,0.48C91.264,65.264,91.104,65.164,91.11,64.76z"/><path fill-rule="evenodd" clip-rule="evenodd" d="M88.502,60.67c-0.162,0.083-0.316,0.197-0.488,0.237   c-0.101,0.023-0.229-0.071-0.344-0.112c0.079-0.097,0.141-0.247,0.24-0.278c0.175-0.055,0.372-0.036,0.56-0.049   C88.48,60.535,88.491,60.603,88.502,60.67z"/><path fill-rule="evenodd" clip-rule="evenodd" d="M11.639,55.178c-0.377,0.302-0.597,0.342-0.753,0.086   c-0.047-0.076,0.048-0.238,0.077-0.361C11.153,54.979,11.343,55.057,11.639,55.178z"/><path fill-rule="evenodd" clip-rule="evenodd" d="M15.713,54.943c0.047-0.427,0.365-0.501,0.804-0.424   c-0.224,0.185-0.447,0.369-0.67,0.555C15.802,55.03,15.758,54.986,15.713,54.943z"/><path fill-rule="evenodd" clip-rule="evenodd" d="M14.669,58.736c-0.13,0.09-0.251,0.201-0.395,0.254   c-0.037,0.015-0.217-0.169-0.201-0.229C14.146,58.48,14.361,58.515,14.669,58.736z"/><path fill-rule="evenodd" clip-rule="evenodd" d="M89.857,64.642c0.153,0.03,0.307,0.055,0.456,0.099   c0.009,0.003-0.027,0.222-0.04,0.222c-0.154-0.003-0.31-0.028-0.464-0.048C89.825,64.823,89.842,64.732,89.857,64.642z"/><path fill-rule="evenodd" clip-rule="evenodd" d="M90.416,66.805c0.257,0.031,0.32,0.193,0.232,0.397   c-0.025,0.059-0.245,0.11-0.287,0.071C90.194,67.116,90.223,66.944,90.416,66.805z"/><path fill-rule="evenodd" clip-rule="evenodd" d="M91.58,68.878c-0.314,0.254-0.486,0.191-0.667-0.065   C91.146,68.551,91.318,68.675,91.58,68.878z"/><path fill-rule="evenodd" clip-rule="evenodd" d="M13.984,66.912c0.02-0.154,0.04-0.309,0.061-0.463   c0.039,0.003,0.079,0.006,0.119,0.009c0,0.153,0,0.308,0,0.461C14.104,66.917,14.044,66.914,13.984,66.912z"/><path fill-rule="evenodd" clip-rule="evenodd" d="M91.978,60.911c0.161-0.068,0.259-0.141,0.356-0.141   c0.065,0,0.131,0.103,0.196,0.159c-0.104,0.07-0.201,0.159-0.315,0.199C92.178,61.142,92.096,61.022,91.978,60.911z"/><path fill-rule="evenodd" clip-rule="evenodd" d="M13.31,54.384c-0.062-0.079-0.142-0.162-0.132-0.174   c0.063-0.081,0.138-0.163,0.228-0.207c0.024-0.013,0.111,0.1,0.17,0.155C13.493,54.229,13.41,54.298,13.31,54.384z"/><path fill-rule="evenodd" clip-rule="evenodd" d="M18.758,57.792c0.063-0.08,0.126-0.161,0.189-0.241   c0.029,0.023,0.059,0.047,0.088,0.071c-0.057,0.082-0.113,0.165-0.171,0.248C18.829,57.844,18.794,57.818,18.758,57.792z"/><path fill-rule="evenodd" clip-rule="evenodd" d="M87.077,79.563c-0.013,0.11-0.02,0.175-0.027,0.239   c-0.029-0.037-0.073-0.071-0.08-0.112C86.966,79.665,87.018,79.63,87.077,79.563z"/><path fill-rule="evenodd" clip-rule="evenodd" d="M17.974,56.709c-0.104,0-0.209,0-0.313,0c-0.003-0.036-0.007-0.071-0.01-0.106   c0.105-0.019,0.211-0.038,0.317-0.058C17.97,56.6,17.972,56.654,17.974,56.709z"/><path fill-rule="evenodd" clip-rule="evenodd" d="M78.469,44.065c0.146-0.218,0.206-0.31,0.306-0.46   c-0.636,0.04-1.112,0.351-1.619,0.605c1.517,0.155,3.033,0.115,4.585-0.008c-0.027,0.482-0.306,0.526-0.558,0.56   c-0.784,0.103-1.57,0.186-2.355,0.277c-0.478,0.055-0.957,0.094-1.43,0.173c-0.688,0.114-1.355,0.294-1.963,0.666   c-0.49,0.301-0.995,0.579-1.511,0.835c-0.339,0.169-0.476,0.514-0.731,0.735c-0.239,0.208-0.657,0.213-0.888,0.426   c-0.537,0.495-1.158,0.841-1.772,1.214c-0.446,0.271-0.832,0.646-1.232,0.988c-1.035,0.889-2.074,1.775-3.087,2.689   c-0.258,0.232-0.416,0.572-0.627,0.857c-0.081,0.11-0.168,0.272-0.278,0.297c-0.432,0.097-0.667,0.44-0.987,0.682   c-0.631,0.474-1.302,0.896-1.972,1.315c-1.532,0.959-3.119,1.796-4.936,2.082c-0.497,0.078-0.992,0.18-1.492,0.229   c-0.546,0.054-1.069,0.088-1.597,0.332c-0.496,0.229-1.075,0.115-1.616-0.07c-0.354-0.122-0.737-0.186-1.111-0.216   c-1.467-0.118-2.799-0.612-4.033-1.396c-0.344-0.218-0.668-0.477-1.032-0.652c-1.077-0.521-1.684-1.54-2.509-2.325   c-1.041-0.99-2.041-2.023-3.059-3.039c-0.065-0.066-0.196-0.136-0.191-0.194c0.057-0.67-0.529-0.926-0.851-1.35   c-0.245-0.322-0.563-0.608-0.733-0.966c-0.349-0.734-0.891-1.298-1.445-1.863c-0.232-0.238-0.481-0.489-0.623-0.783   c-0.288-0.596-0.699-1.084-1.15-1.551c-0.779-0.809-1.406-1.756-2.335-2.433c-0.398-0.29-0.716-0.708-1.021-1.106   c-0.786-1.025-1.784-1.56-3.097-1.495c-0.676,0.033-0.79-0.085-0.918-0.732c-0.113-0.572-0.087-0.523,0.46-0.821   c1.469-0.798,3.121-1.064,4.651-1.676c0.531-0.212,1.034-0.496,1.546-0.753c0.213-0.107,0.415-0.236,0.627-0.348   c1.207-0.633,2.425-1.247,3.621-1.901c1.262-0.689,2.498-1.425,3.753-2.127c1.482-0.829,2.973-1.646,4.46-2.467   c0.042-0.023,0.081-0.054,0.125-0.072c2.688-1.15,5.343-2.425,8.313-2.684c2.291-0.199,4.566-0.303,6.859,0.257   c1.335,0.326,2.527,0.807,3.667,1.538c0.579,0.371,1.265,0.573,1.885,0.884c0.336,0.168,0.664,0.373,0.95,0.615   c0.527,0.445,1.036,0.915,1.523,1.404c0.42,0.423,0.799,0.887,1.195,1.331c0.303,0.34,0.598,0.687,0.911,1.015   c1.162,1.215,2.107,2.593,3.036,3.986c0.193,0.29,0.461,0.532,0.701,0.791c0.472,0.509,0.947,1.015,1.422,1.521   c0.392,0.417,0.783,0.834,1.18,1.248c0.133,0.138,0.309,0.244,0.412,0.399c0.348,0.523,0.821,0.819,1.416,1.027   c0.387,0.136,0.715,0.469,1.041,0.746c0.478,0.406,0.938,0.826,1.6,0.903c0.069,0.008,0.157,0.024,0.2,0.07   c0.122,0.13,0.225,0.276,0.336,0.417c-0.144,0.105-0.298,0.314-0.428,0.3c-0.493-0.054-1.002-0.118-1.46-0.295   c-0.428-0.165-0.808-0.191-1.252-0.103C80.442,43.779,79.521,43.898,78.469,44.065z M50.225,42.99c0.47,0.053,0.91,0.015,1.21-0.45   c-0.398,0.154-0.798,0.309-1.197,0.463c-0.975,0.091-1.952,0.276-2.923,0.246c-0.935-0.028-1.62,0.28-2.188,0.971   c-0.258,0.313-0.533,0.614-0.776,0.938c-0.103,0.138-0.144,0.322-0.213,0.485c0.034,0.042,0.068,0.084,0.103,0.126   c0.27-0.105,0.539-0.211,0.81-0.315c0.887-0.344,1.797-0.636,2.515-1.317c0.131-0.124,0.389-0.118,0.589-0.167   C48.911,43.786,49.662,43.587,50.225,42.99z M78.885,41.123c0.02-0.036,0.039-0.072,0.059-0.108   c-0.426-0.412-0.854-0.821-1.277-1.237c-0.461-0.454-0.924-0.907-1.371-1.376c-0.313-0.328-0.624-0.663-0.892-1.027   c-0.538-0.734-0.994-1.534-1.576-2.229c-1.305-1.56-2.539-3.185-4.02-4.587c-0.517-0.489-1.049-1.023-1.676-1.319   c-0.847-0.4-1.672-0.816-2.473-1.305c-0.686-0.418-1.361-0.888-2.199-1.011c-0.686-0.101-1.361-0.265-2.042-0.395   c-0.352-0.067-0.706-0.169-1.06-0.173c-2.132-0.027-4.247-0.058-6.355,0.498c-1.801,0.476-3.496,1.176-5.165,1.947   c-1.3,0.602-2.525,1.362-3.784,2.05c-1.535,0.839-3.063,1.692-4.61,2.507c-0.832,0.438-1.632,0.899-2.292,1.587   c-0.164,0.172-0.448,0.242-0.689,0.324c-0.631,0.215-1.33,0.309-1.888,0.642c-0.563,0.337-1.119,0.617-1.75,0.788   c-0.553,0.15-1.09,0.362-1.631,0.558c-0.136,0.049-0.259,0.134-0.388,0.202c0.415,0.069,0.796,0.05,1.176,0.017   c0.74-0.064,1.483-0.112,2.219-0.214c0.707-0.099,1.429-0.188,2.105-0.403c1.896-0.6,3.774-1.25,5.652-1.902   c1.425-0.495,2.85-0.978,4.162-1.762c1.046-0.625,2.135-1.212,3.27-1.646c1.808-0.693,3.622-1.389,5.549-1.726   c1.13-0.197,2.225-0.611,3.399-0.495c0.5,0.05,1,0.122,1.501,0.146c1.821,0.083,3.55,0.535,5.21,1.27   c0.15,0.066,0.314,0.147,0.419,0.268c0.504,0.582,1.174,0.894,1.855,1.196c0.786,0.35,1.398,0.907,1.912,1.594   c0.284,0.381,0.594,0.756,0.947,1.071c0.605,0.541,1.271,1.016,1.651,1.771c0.082,0.163,0.255,0.283,0.396,0.413   c0.829,0.762,1.657,1.524,2.492,2.278c0.425,0.383,0.863,0.752,1.299,1.122c0.091,0.076,0.193,0.153,0.303,0.188   C77.841,40.81,78.364,40.963,78.885,41.123z M58.893,35.604c-0.381-0.26-0.671-0.431-0.93-0.64   c-0.834-0.674-1.854-0.681-2.812-0.636c-0.649,0.029-1.279,0.046-1.921-0.042c-0.665-0.092-1.332-0.169-2.001-0.219   c-0.299-0.021-0.627,0.119-0.9,0.042c-0.577-0.163-1.138-0.071-1.711-0.06c-0.699,0.015-1.227,0.305-1.533,0.892   c-0.331,0.635-0.828,1.118-1.276,1.651c-0.938,1.116-1.283,2.491-1.71,3.845c-0.377,1.194-0.556,2.373-0.319,3.604   c0.028,0.15,0.1,0.292,0.18,0.518c0.606-0.493,1.146-0.933,1.681-1.367c-0.333-0.411-0.616-0.734-0.866-1.083   c-0.086-0.121-0.155-0.32-0.118-0.451c0.126-0.436,0.282-0.865,0.467-1.279c0.183-0.413,0.507-0.697,0.915-0.922   c-0.244,0.7-0.464,1.332-0.717,2.061c0.474-0.045,0.824-0.082,1.175-0.11c0.328-0.027,0.663-0.248,1.091,0.025   c-0.763,0.414-1.58,0.446-2.25,0.874c0.531,0.551,0.732,0.597,1.281,0.307c0.276-0.146,0.537-0.317,0.813-0.46   c0.154-0.079,0.327-0.123,0.492-0.183c-0.252,0.444-0.916,0.402-1.038,1.036c0.987-0.015,1.914-0.017,2.772-0.488   c0.202-0.11,0.45-0.155,0.683-0.187c0.613-0.083,1.23-0.13,1.843-0.216c0.158-0.021,0.306-0.129,0.454-0.204   c0.171-0.086,0.332-0.238,0.51-0.259c0.668-0.079,0.961-0.626,1.379-1.056c-0.512,0.017-1.001,0.088-1.485,0.19   c-0.468,0.099-0.925,0.271-1.396,0.335c-0.473,0.065-0.877,0.454-1.487,0.317c0.464-0.493,1.034-0.537,1.531-0.729   c0.479-0.187,1.022-0.249,1.38-0.671c-0.526,0.145-1.014,0.435-1.532,0.513c-0.485,0.072-0.993,0.439-1.516,0.067   c0.546-0.272,1.099-0.488,1.663-0.668c0.246-0.078,0.528-0.146,0.772-0.102c0.419,0.075,0.745-0.048,1.075-0.271   c0.479-0.325,0.984-0.542,1.586-0.611c0.626-0.072,1.287-0.193,1.559-0.945c0.091-0.251,0.327-0.445,0.712-0.469   c-0.425,1.07-0.175,2.09,0.024,3.086c0.321,1.605,1.808,2.392,3.297,2.126c1.003-0.179,1.854-0.663,2.671-1.193   c0.661-0.429,0.981-1.104,0.801-1.936c-0.103-0.468-0.24-0.932-0.295-1.405c-0.087-0.758-0.476-1.344-0.954-1.894   c-0.499-0.573-1.169-0.605-1.852-0.564c-0.515,0.032-1.008,0.124-1.145,0.856c-0.493-0.64-0.987-0.423-1.481-0.222   c-0.287,0.117-0.572,0.245-0.868,0.336c-0.151,0.045-0.33,0.049-0.486,0.018c-1.078-0.221-2.152-0.461-3.229-0.683   c-0.327-0.067-0.661-0.108-0.993-0.146c-0.896-0.102-1.791-0.194-2.687-0.291c1.194-0.321,2.392-0.367,3.6-0.117   c0.773,0.159,1.551,0.296,2.328,0.436c0.046,0.008,0.104-0.053,0.185-0.096c-0.401-0.339-0.771-0.651-1.205-1.016   c0.614-0.083,0.772-0.029,1.07,0.251c0.432,0.406,0.874,0.801,1.334,1.221C57.968,36.081,58.389,35.864,58.893,35.604z    M50.683,54.223c0.008-0.041,0.016-0.081,0.023-0.122c-0.368-0.082-0.742-0.146-1.103-0.253c-0.292-0.088-0.615-0.172-0.842-0.357   c-0.774-0.633-1.717-1.066-2.308-1.921c-0.054-0.076-0.135-0.137-0.211-0.194c-0.938-0.702-1.546-1.692-2.258-2.589   c-0.424-0.534-0.668-1.17-0.778-1.839c-0.128-0.778-0.215-1.563-0.309-2.346c-0.046-0.38-0.049-0.766-0.1-1.146   c-0.104-0.771-0.079-1.53,0.15-2.277c0.269-0.87,0.521-1.746,0.818-2.605c0.162-0.472,0.36-0.942,0.618-1.368   c0.435-0.716,0.932-1.395,1.397-2.093c0.07-0.106,0.11-0.232,0.229-0.487c-0.392,0.148-0.646,0.253-0.905,0.343   c-1.788,0.621-3.576,1.241-5.365,1.857c-1.859,0.642-3.727,1.243-5.716,1.343c-0.66,0.033-1.315,0.153-1.973,0.233   c0.091,0.169,0.188,0.242,0.295,0.268c0.649,0.15,1.168,0.499,1.666,0.941c0.946,0.842,1.9,1.673,3.025,2.295   c0.484,0.269,0.886,0.728,1.25,1.162c0.691,0.825,1.288,1.732,2.001,2.538c0.933,1.054,1.672,2.237,2.22,3.502   c0.473,1.094,1.239,1.917,1.983,2.78c0.211,0.246,0.516,0.424,0.803,0.589c1.487,0.853,3.081,1.403,4.776,1.658   C50.275,54.164,50.479,54.193,50.683,54.223z M80.007,42.492c-0.956-0.362-1.819-0.795-2.754-1.07   c-0.311-0.092-0.639-0.223-0.881-0.427c-0.911-0.77-1.797-1.57-2.681-2.372c-0.618-0.563-1.216-1.147-1.826-1.72   c-0.091-0.085-0.194-0.157-0.335-0.269c0.086,1.056,0.229,2.031,0.227,3.005c-0.003,0.954-0.175,1.905-0.237,2.86   c-0.066,1.005-0.478,1.908-0.834,2.815c-0.349,0.888-0.843,1.719-1.273,2.573c0.041,0.042,0.083,0.084,0.125,0.126   c1.184-0.533,2.24-1.314,3.419-1.858c1.19-0.551,2.24-1.393,3.541-1.719C77.434,43.446,78.855,43.34,80.007,42.492z M45.735,53.74   c-0.036,0.054-0.071,0.108-0.106,0.163c0.217,0.246,0.4,0.536,0.657,0.729c1.147,0.859,2.358,1.604,3.67,2.212   c1.155,0.536,2.444,0.457,3.59,0.961c0.121,0.053,0.285,0.021,0.428,0.007c0.356-0.037,0.713-0.081,1.068-0.133   c1.711-0.245,3.388-0.558,4.938-1.419c1.577-0.876,3.118-1.777,4.443-3.019c1.013-0.95,1.948-1.989,3.114-2.768   c0.069-0.047,0.11-0.136,0.164-0.205c-0.592,0.151-1.172,0.326-1.638,0.661c-1.531,1.1-3.22,1.897-4.932,2.649   c-0.678,0.298-1.392,0.521-2.1,0.743c-0.271,0.085-0.571,0.075-1.004,0.125c0.511-0.354,1.061-0.334,1.288-0.846   c-0.209,0.009-0.402,0.058-0.578,0.143c-0.342,0.163-0.656,0.426-1.014,0.508c-1.493,0.342-2.96,0.787-4.489,0.991   c-1.566,0.208-3.048-0.153-4.539-0.481c-0.534-0.118-1.036-0.373-1.556-0.555C46.675,54.043,46.204,53.895,45.735,53.74z    M52.251,48.217c-0.625,0.278-0.911,0.669-1.165,1.091c-0.412,0.687-0.878,1.325-1.623,1.682c-0.667,0.319-1.132,0.008-1.019-0.723   c0.067-0.434,0.244-0.884,0.486-1.252c0.683-1.041,1.425-2.043,2.139-3.063c0.033-0.046,0.025-0.12,0.039-0.197   c-0.191,0.063-0.351,0.115-0.659,0.217c0.166-0.206,0.215-0.289,0.284-0.348c0.748-0.635,1.489-1.28,2.258-1.89   c0.255-0.202,0.569-0.376,0.883-0.444c0.439-0.097,0.629-0.364,0.807-0.777c-0.151,0-0.253-0.029-0.327,0.005   c-0.633,0.283-1.303,0.514-1.882,0.883c-1.21,0.771-2.386,1.6-3.547,2.444c-0.417,0.304-0.785,0.695-1.108,1.101   c-0.224,0.281-0.423,0.629-0.342,1.063c0.914-0.588,1.796-1.154,2.677-1.722c0.004,0.185-0.061,0.28-0.146,0.354   c-0.72,0.629-1.438,1.26-2.167,1.88c-0.591,0.503-0.597,0.496-1.214,0.071c-0.26,0.416,0.157,0.93-0.186,1.407   c-0.587-1.491-0.336-2.942-0.191-4.519c-0.773,0.382-1.445,0.714-2.175,1.074c0.116,0.39,0.176,0.749,0.33,1.063   c0.188,0.383,0.448,0.732,0.692,1.086c0.339,0.492,0.632,1.034,1.05,1.45c0.896,0.891,1.853,1.721,2.796,2.564   c0.288,0.257,0.618,0.449,1.039,0.293C50.396,51.299,51.335,49.849,52.251,48.217z M50.261,33.255   c-0.008-0.059-0.016-0.118-0.023-0.178c0.608-0.218,1.25-0.262,1.89-0.313c1.12-0.09,2.239-0.184,3.36-0.255   c0.354-0.023,0.721-0.019,1.068,0.042c1.206,0.21,2.06,0.948,2.757,1.906c0.073,0.101,0.197,0.163,0.343,0.279   c0.179-0.45,0.343-0.893,0.062-1.212c-0.619-0.706-1.21-1.509-2.296-1.538c-0.216-0.006-0.432,0.004-0.646-0.018   c-0.174-0.017-0.344-0.068-0.575-0.118c0.446-0.352,0.592-0.369,1.024-0.318c0.845,0.098,1.521,0.524,2.166,1.034   c0.174,0.138,0.314,0.385,0.639,0.26c0.211-0.85,0.258-1.771,0.947-2.583c-1.052-0.03-1.973-0.253-2.901-0.08   c-2.047,0.381-4.1,0.75-6.016,1.619c-0.98,0.445-1.962,0.887-2.937,1.344c-0.236,0.111-0.511,0.21-0.617,0.52   c0.099,0.017,0.146,0.035,0.19,0.03c1.747-0.177,3.489-0.281,5.208,0.243c0.208,0.063,0.475,0.004,0.698-0.056   c0.897-0.238,1.784-0.363,2.659,0.085c0.041,0.021,0.114-0.018,0.203-0.034c-0.31-0.461-0.754-0.535-1.213-0.566   c-0.286-0.019-0.577,0.012-0.861-0.023c-1.48-0.184-2.962-0.212-4.447-0.073C50.718,33.274,50.488,33.255,50.261,33.255z    M61.93,51.439c-0.096-0.59-0.178-1.096-0.259-1.602c0.49,0.457,0.667,1.012,0.649,1.619c-0.011,0.401-0.354,0.644-0.75,0.559   c-0.157-0.034-0.321-0.11-0.447-0.211c-0.471-0.376-0.895-0.789-1.099-1.388c-0.072-0.212-0.209-0.467-0.39-0.561   c-0.276-0.144-0.615-0.165-1.004-0.256c-0.272,1.386-0.397,2.828-1.563,3.868c0.501-0.037,0.958-0.147,1.419-0.228   c0.564-0.097,1.135-0.159,1.699-0.254c0.322-0.055,0.641-0.136,0.958-0.219c0.161-0.041,0.31-0.132,0.472-0.169   c1.254-0.286,2.195-1.1,3.23-1.824c-0.101-0.092-0.143-0.154-0.201-0.181c-1.2-0.524-2.256-1.25-3.111-2.249   c-0.258-0.301-0.563-0.505-0.956-0.559C59.759,49.027,60.423,51.063,61.93,51.439z M68.229,47.561   c1.832-2.068,2.54-4.445,2.61-7.215c-0.416,0.194-0.704,0.328-1.005,0.469c0.058,0.582,0.201,1.141-0.318,1.554   c-0.052,0.04-0.039,0.183-0.029,0.274c0.042,0.432-0.217,0.636-0.58,0.68c-0.64,0.078-1.284,0.113-1.928,0.15   c-0.323,0.019-0.648,0.003-1.069,0.003c0.218,0.463,0.397,0.848,0.579,1.232c0.164,0.346,0.347,0.684,0.49,1.037   c0.104,0.257,0.084,0.516-0.139,0.728c-0.221,0.211-0.479,0.23-0.733,0.12c-0.396-0.171-0.773-0.381-1.164-0.563   c-0.169-0.078-0.351-0.129-0.527-0.191C65.536,46.797,66.817,47.33,68.229,47.561z M67.053,36.344   c0.095-0.202,0.172-0.396,0.272-0.576c0.204-0.367,0.177-0.739,0.041-1.112c-0.151-0.422-0.481-0.605-0.837-0.369   c-0.586,0.388-1.162,0.798-1.527,1.444c-0.32,0.569-0.421,1.192-0.374,1.796c0.048,0.62-0.04,1.297,0.362,1.897   c0.479-0.089,0.948-0.158,1.406-0.271c0.202-0.049,0.394-0.17,0.571-0.286c0.479-0.313,0.957-0.629,1.417-0.969   c0.365-0.271,0.712-0.565,1.045-0.874c0.101-0.094,0.127-0.269,0.195-0.425c-0.741-0.208-1.257,0.254-1.824,0.451   c-0.205,0.071-0.293,0.46-0.448,0.693c-0.253,0.379-0.46,0.811-1.031,0.866c0.223-0.282,0.445-0.564,0.667-0.847   c-0.03-0.043-0.062-0.087-0.092-0.13c-0.556,0.303-1.11,0.605-1.665,0.908c-0.025-0.042-0.052-0.085-0.077-0.127   c0.116-0.109,0.218-0.242,0.352-0.321c0.412-0.243,0.827-0.482,1.257-0.691c0.434-0.21,0.607-0.554,0.688-1.01   C67.291,36.374,67.199,36.363,67.053,36.344z M56.665,52.997c0.229-0.192,0.426-0.319,0.573-0.49   c1.028-1.197,1.218-2.612,0.979-4.105c-0.197-1.234-0.371-2.46-0.081-3.702c0.043-0.186,0.076-0.379,0.075-0.568   c-0.002-0.151-0.062-0.303-0.103-0.481c-0.491,0.094-0.606,0.459-0.686,0.79c-0.223,0.928-0.452,1.858-0.589,2.801   c-0.209,1.443-0.347,2.897-0.507,4.348C56.277,52.041,56.268,52.494,56.665,52.997z M66.937,32.629   c-0.599-0.428-1.025-1.063-1.871-1.253c0.025,0.916,0.357,1.771,0.114,2.689c-0.235-0.39-0.207-0.393-0.245-0.754   c-0.066-0.641-0.166-1.278-0.265-1.916c-0.038-0.246-0.135-0.473-0.432-0.498s-0.423,0.19-0.521,0.415   c-0.065,0.15-0.098,0.315-0.14,0.476c-0.056,0.208-0.079,0.43-0.166,0.624c-0.206,0.459-0.123,0.887,0.076,1.316   c0.142,0.304,0.29,0.605,0.408,0.919c0.039,0.102-0.011,0.235-0.021,0.355c-0.216-0.153-0.31-0.336-0.402-0.519   c-0.091-0.177-0.181-0.354-0.305-0.598c-0.35,0.821,0.004,1.684,0.717,2.058c0.201-0.212,0.385-0.41,0.574-0.604   c0.201-0.205,0.459-0.374,0.6-0.613c0.203-0.348,0.477-0.581,0.804-0.796C66.327,33.625,66.668,33.198,66.937,32.629z    M67.593,48.243c-1.224-0.585-2.38-1.139-3.556-1.7c-0.336,0.237-0.439,0.548-0.321,1.022c0.144,0.576-0.192,0.847-0.784,0.728   c-0.208-0.041-0.413-0.101-0.62-0.151c-0.02,0.048-0.039,0.096-0.059,0.145c0.717,0.55,1.42,1.12,2.156,1.643   c0.454,0.322,0.675,0.229,1.066-0.437c0.091,0.217,0.166,0.394,0.273,0.647C66.487,49.464,67.148,48.97,67.593,48.243z    M50.893,52.226c0.042,0.034,0.084,0.068,0.126,0.103c0.239-0.201,0.498-0.385,0.715-0.609c0.513-0.531,1.044-1.053,1.494-1.634   c0.434-0.561,0.778-1.19,1.155-1.793c0.075-0.119,0.136-0.252,0.184-0.385c0.349-0.968,0.695-1.936,1.036-2.905   c0.048-0.135,0.06-0.281,0.088-0.423c-0.709,0.663-1.412,1.306-1.881,2.09c-0.97,1.621-1.815,3.315-2.705,4.985   C51.01,51.831,50.962,52.034,50.893,52.226z M55.921,41.953c-0.365,0.425-0.619,0.79-0.943,1.077   c-0.38,0.335-0.276,0.796-0.405,1.192c-0.126,0.386-0.563,0.73-0.183,1.316c0.291-0.371,0.482-0.756,0.791-0.981   c0.686-0.502,0.992-1.335,1.686-1.82c0.17-0.118,0.329-0.302,0.208-0.554c-0.256-0.532-0.515-1.062-0.805-1.659   c-0.491,0.242-0.978,0.435-1.415,0.705c-1.138,0.7-2.256,1.434-3.377,2.16c-0.09,0.058-0.144,0.168-0.309,0.368   c1.076-0.571,1.995-1.08,2.934-1.549C54.612,41.954,55.153,41.75,55.921,41.953z M63.387,47.719   c-0.147-0.521-0.275-0.949-0.391-1.381c-0.21-0.785-0.399-1.575-0.623-2.355c-0.086-0.3-0.218-0.583-0.646-0.523   c-0.599,0.082-0.757,0.207-0.861,0.67c-0.308,1.349,0.942,3.189,2.103,3.586C63.051,47.744,63.151,47.719,63.387,47.719z    M64.398,43.522c-0.206-0.078-0.383-0.134-0.548-0.212c-0.128-0.062-0.233-0.175-0.364-0.224c-0.256-0.096-0.533-0.332-0.792-0.057   c-0.294,0.313,0.007,0.575,0.152,0.826c0.093,0.161,0.228,0.321,0.383,0.417c0.974,0.599,1.954,1.186,2.942,1.759   c0.094,0.055,0.256-0.011,0.504-0.029c-0.178-0.396-0.313-0.718-0.465-1.032c-0.183-0.383-0.463-0.741-0.544-1.143   c-0.072-0.354-0.22-0.495-0.523-0.567c-0.247-0.06-0.493-0.123-0.745-0.187C64.398,43.238,64.398,43.347,64.398,43.522z    M41.773,49.721c-0.033-0.526-0.045-0.519-0.244-0.844c-0.286-0.467-0.538-0.954-0.832-1.415c-0.28-0.44-0.54-0.915-0.905-1.276   c-0.752-0.745-1.422-1.549-1.947-2.461c-0.352-0.608-0.864-1.011-1.453-1.341c-0.098-0.054-0.243-0.021-0.501-0.037   c0.234,0.311,0.384,0.519,0.544,0.719c0.434,0.54,0.875,1.074,1.307,1.616c0.385,0.483,0.761,0.973,1.14,1.461   c0.32,0.412,0.702,0.791,0.943,1.245C40.305,48.293,41.058,48.939,41.773,49.721z M70.26,36.613   c-0.375,0.784-0.995,1.271-1.65,1.712c-0.436,0.294-0.902,0.541-1.346,0.823c-0.123,0.078-0.214,0.207-0.318,0.313   c1.313,0.039,2.595-0.439,3.934,0.319C70.765,38.624,70.932,37.574,70.26,36.613z M53.886,50.2c-0.06-0.026-0.119-0.053-0.18-0.078   c-0.386,0.563-0.724,1.17-1.172,1.679c-0.465,0.527-1.036,0.961-1.617,1.485c0.707,0.329,1.376,0.218,2.029,0.193   c0.515-0.02,0.53-0.082,0.573-0.605c0.053-0.64,0.144-1.278,0.229-1.917C53.781,50.704,53.839,50.452,53.886,50.2z M61.773,31.522   c-1.221,0.67-1.462,2.096-0.636,2.981c0.271,0.292,0.459,0.301,0.963,0.085c0.314-0.135,0.45-0.381,0.369-0.687   C62.264,33.125,62.021,32.36,61.773,31.522z M70.018,35.807c-0.245-1.082-1.26-2.234-2.008-2.296   c-0.014,0.933-0.288,1.855-0.075,2.878C68.658,36.187,69.315,36.003,70.018,35.807z M49.081,50.404   c0.371,0.025,0.59-0.124,0.773-0.368c0.157-0.209,0.324-0.414,0.509-0.6c0.196-0.199,0.288-0.39,0.246-0.695   c-0.033-0.24,0.037-0.536,0.16-0.75c0.608-1.054,1.193-2.129,2.073-2.997c0.17-0.167,0.3-0.349,0.245-0.625   C52.168,44.833,49.172,49.326,49.081,50.404z M64.859,41.258c0.71,0.148,3.119-0.312,3.893-0.761   c-0.256-0.081-0.442-0.179-0.638-0.197c-0.781-0.072-1.564-0.148-2.348-0.17c-0.841-0.023-0.894,0.051-0.935,0.873   C64.829,41.073,64.847,41.143,64.859,41.258z M59.549,49.282c0.121-0.516-0.333-3.223-0.601-3.628   c-0.24,0.432-0.429,1.331-0.337,1.975c0.063,0.441,0.205,0.876,0.356,1.298C59.044,49.136,59.177,49.374,59.549,49.282z    M54.816,50.171c0.364-0.065,0.507-0.36,0.603-0.639c0.377-1.099,0.901-2.16,0.985-3.428c-0.46,0.331-0.52,0.42-0.851,1.195   C54.994,48.611,54.738,49.595,54.816,50.171z M56.285,53.545c-0.7-0.763-0.422-1.679-0.495-2.548   c-0.425,0.875-0.834,1.713-1.264,2.595C55.069,53.782,55.623,53.939,56.285,53.545z M49.702,44.001   c-0.665,0.021-1.309,0.129-1.845,0.464c-0.501,0.313-0.872,0.789-0.933,1.565C47.914,45.308,48.808,44.655,49.702,44.001z    M60.436,43.784c-0.604-0.067-1.134-0.127-1.735-0.194c-0.029,0.318-0.051,0.562-0.079,0.863c0.737-0.266,1.189,0.307,1.814,0.439   C60.436,44.521,60.436,44.2,60.436,43.784z M55.448,50.569c-1.151,0.185-1.674,1.293-1.174,2.262   C54.898,52.215,55.047,51.41,55.448,50.569z M63.476,30.675c-0.747-0.138-1.368-0.252-1.988-0.366   c-0.021,0.05-0.042,0.1-0.063,0.149c0.303,0.208,0.636,0.383,0.898,0.633c0.275,0.26,0.241,0.764,0.702,0.987   C63.171,31.626,63.299,31.225,63.476,30.675z M52.52,47.219c0.983-0.582,1.4-1.359,1.207-2.147   C53.097,45.564,52.941,45.836,52.52,47.219z M67.672,41.498c-0.001,0.064-0.002,0.129-0.003,0.192   c0.338,0.095,0.671,0.223,1.016,0.27c0.195,0.027,0.425-0.045,0.611-0.132c0.21-0.1,0.344-0.323,0.199-0.532   c-0.085-0.124-0.33-0.235-0.472-0.204C68.565,41.19,68.121,41.357,67.672,41.498z M59.922,47.558   c0.475-0.824,0.252-1.841-0.475-2.448C59.565,45.88,59.637,46.66,59.922,47.558z M68.69,39.917   c0.749,0.577,0.804,0.581,1.492,0.091C69.695,39.549,69.198,39.67,68.69,39.917z M68.841,42.849   c0.005-0.065,0.01-0.131,0.015-0.195c-1.073,0-2.146,0-3.22,0C66.695,42.972,67.768,42.912,68.841,42.849z M67.934,42.116   c-0.56-0.2-1.394-0.21-1.846,0C66.747,42.116,67.293,42.116,67.934,42.116z M47.117,46.703c-0.572,0.161-0.628,0.35-0.38,1.031   C46.89,47.32,47.004,47.011,47.117,46.703z M62.31,31.604c-0.05,0.022-0.099,0.044-0.147,0.066c0.079,0.396,0.15,0.797,0.486,1.078   c0.049-0.021,0.098-0.044,0.146-0.065C62.633,32.324,62.471,31.963,62.31,31.604z M67.598,33.239   c-0.347,0.011-0.524,0.135-0.615,0.477c0.231,0.048,0.421,0.087,0.687,0.143C67.64,33.598,67.62,33.429,67.598,33.239z    M64.94,42.616c-0.342-0.613-0.632-0.678-0.907-0.232C64.326,42.458,64.611,42.532,64.94,42.616z M60.929,34.815   c-0.272-0.087-0.44-0.141-0.608-0.195c-0.026,0.127-0.118,0.31-0.066,0.369C60.42,35.183,60.616,35.112,60.929,34.815z    M55.283,40.122c0.333-0.108,0.573-0.186,0.895-0.29C55.631,39.545,55.631,39.545,55.283,40.122z M56.471,43.551   c0.386,0.118,0.386,0.118,0.546-0.335C56.795,43.352,56.633,43.452,56.471,43.551z M56.635,54.088   c0.013,0.035,0.025,0.069,0.038,0.104c0.09-0.038,0.18-0.075,0.27-0.113c-0.01-0.027-0.02-0.055-0.029-0.082   C56.82,54.026,56.728,54.058,56.635,54.088z"/><path fill-rule="evenodd" clip-rule="evenodd" d="M57.456,17.534c0.496-0.441,0.959-0.686,1.712-0.573   c1.173,0.174,2.383,0.118,3.577,0.127c0.184,0.002,0.395-0.144,0.548-0.272c0.313-0.263,0.628-0.191,0.935-0.042   c0.236,0.115,0.242,0.417-0.001,0.501c-0.328,0.113-0.713,0.25-1.028,0.179c-1.28-0.289-2.573-0.167-3.86-0.188   c-0.226-0.004-0.475,0.18-0.679,0.324C58.139,17.956,58.056,17.964,57.456,17.534z"/><path fill-rule="evenodd" clip-rule="evenodd" d="M50.592,66.823c0.154-0.284,0.309-0.567,0.475-0.871   c0.275,0.296,0.483,0.568,0.74,0.781c0.249,0.205,0.557,0.339,0.822,0.526c0.139,0.097,0.347,0.245,0.344,0.365   c-0.008,0.281-0.277,0.43-0.515,0.364c-0.405-0.113-0.816-0.268-1.167-0.494c-0.225-0.146-0.344-0.455-0.51-0.691   C50.718,66.811,50.655,66.816,50.592,66.823z"/><path fill-rule="evenodd" clip-rule="evenodd" d="M85.116,32.36c-1.07,0.053-1.305-0.428-0.716-1.729   c-0.221-0.179-0.478-0.352-0.685-0.57c-0.093-0.099-0.089-0.29-0.128-0.438c0.151-0.014,0.346-0.093,0.444-0.027   c0.21,0.139,0.424,0.325,0.538,0.544c0.141,0.268,0.192,0.585,0.263,0.886C84.934,31.45,85.015,31.878,85.116,32.36z"/><path fill-rule="evenodd" clip-rule="evenodd" d="M72.476,27.044c0.248-0.088,0.448-0.212,0.649-0.214   c0.148-0.001,0.384,0.129,0.424,0.252c0.041,0.128-0.061,0.374-0.18,0.467c-0.235,0.186-0.516,0.329-0.799,0.432   c-0.109,0.039-0.313-0.044-0.409-0.138c-0.146-0.141-0.214-0.356-0.35-0.511c-0.325-0.371-0.312-0.513,0.183-0.949   C72.144,26.588,72.289,26.789,72.476,27.044z"/><path fill-rule="evenodd" clip-rule="evenodd" d="M64.833,12.758c0.474,0.041,0.947,0.09,1.421,0.121   c0.29,0.019,0.417,0.207,0.507,0.438c0.138,0.354,0.264,0.712,0.406,1.103c-0.091,0.085-0.191,0.181-0.332,0.313   c-0.101-0.124-0.163-0.272-0.27-0.321c-0.471-0.215-0.739-0.567-0.878-1.061c-0.036-0.13-0.222-0.227-0.353-0.318   c-0.153-0.108-0.321-0.196-0.483-0.292C64.85,12.742,64.833,12.758,64.833,12.758z"/><path fill-rule="evenodd" clip-rule="evenodd" d="M67.805,64.191c0.149,0.299,0.217,0.443,0.292,0.583   c0.264,0.491,0.104,1.139-0.391,1.354c-0.188,0.082-0.491,0.084-0.661-0.016c-0.261-0.153-0.113-0.412,0.011-0.624   C67.281,65.104,67.501,64.718,67.805,64.191z"/><path fill-rule="evenodd" clip-rule="evenodd" d="M64.044,64.623c0.219,0.504,0.454,0.964,0.606,1.448   c0.048,0.153-0.076,0.427-0.209,0.553c-0.155,0.146-0.401,0.228-0.618,0.258c-0.069,0.01-0.265-0.248-0.247-0.358   c0.103-0.626,0.252-1.244,0.388-1.863C63.968,64.646,64.006,64.64,64.044,64.623z"/><path fill-rule="evenodd" clip-rule="evenodd" d="M56.441,65.77c0.092,0.083,0.179,0.123,0.186,0.173   c0.072,0.59,0.15,1.181,0.184,1.773c0.006,0.113-0.151,0.296-0.274,0.345c-0.24,0.096-0.481,0.017-0.615-0.225   c-0.16-0.291-0.146-0.594-0.005-0.896C56.087,66.576,56.246,66.207,56.441,65.77z"/><path fill-rule="evenodd" clip-rule="evenodd" d="M75.264,22.882c-0.755,0.172-0.839,0.108-1.002-0.451   c-0.128-0.439-0.331-0.856-0.489-1.254c0.21,0.187,0.48,0.36,0.88,0.277c0.134-0.028,0.424,0.23,0.483,0.41   C75.242,22.186,75.229,22.548,75.264,22.882z"/><path fill-rule="evenodd" clip-rule="evenodd" d="M82.929,52.249c0.162-0.12,0.288-0.288,0.436-0.309   c0.401-0.057,0.8-0.07,1.129-0.364c0.061-0.055,0.252-0.042,0.323,0.015c0.068,0.057,0.11,0.229,0.075,0.313   c-0.108,0.263-0.233,0.528-0.405,0.75c-0.084,0.107-0.301,0.186-0.437,0.161c-0.302-0.054-0.593-0.172-0.88-0.285   C83.096,52.501,83.051,52.396,82.929,52.249z"/><path fill-rule="evenodd" clip-rule="evenodd" d="M63.347,5.2c0.448,0.152,0.887,0.348,1.347,0.448   c1.45,0.317,2.776,0.88,3.917,1.847c0.254,0.215,0.521,0.413,0.754,0.668c-0.37-0.099-0.663-0.336-0.97-0.548   c-0.353-0.244-0.68-0.548-1.066-0.714c-0.959-0.412-1.854-0.985-2.935-1.118C64.017,5.736,63.499,5.739,63.347,5.2L63.347,5.2z"/><path fill-rule="evenodd" clip-rule="evenodd" d="M61.118,61.854c0.028,0.592,0.065,1.063,0.067,1.535   c0,0.185-0.048,0.385-0.131,0.55c-0.134,0.263-0.389,0.276-0.581,0.063c-0.286-0.319-0.33-0.684-0.099-1.054   C60.586,62.612,60.82,62.29,61.118,61.854z"/><path fill-rule="evenodd" clip-rule="evenodd" d="M60.648,65.922c0.026,0.126,0.054,0.253,0.078,0.38   c0.049,0.251,0.071,0.511,0.15,0.752c0.146,0.445-0.296,0.994-0.76,0.878c-0.132-0.033-0.335-0.297-0.305-0.381   c0.207-0.561,0.468-1.103,0.711-1.649C60.565,65.908,60.607,65.915,60.648,65.922z"/><path fill-rule="evenodd" clip-rule="evenodd" d="M76.838,50.401c-0.028,0.193,0.006,0.437-0.099,0.569   c-0.23,0.292-0.242,0.591-0.237,0.934c0.004,0.264-0.097,0.53-0.169,0.882c-0.527-0.488-0.481-1.011-0.471-1.527   c0.011-0.541,0.488-0.644,0.801-0.904C76.722,50.371,76.78,50.386,76.838,50.401z"/><path fill-rule="evenodd" clip-rule="evenodd" d="M84.263,37.532c0.199,0.259,0.351,0.471,0.517,0.669   c0.349,0.418,0.331,0.587-0.124,0.9c-0.115,0.079-0.243,0.141-0.354,0.205C83.656,38.802,83.647,38.528,84.263,37.532z"/><path fill-rule="evenodd" clip-rule="evenodd" d="M59.233,11.322c0.634-0.594,1.218-0.548,1.675,0.096   C60.358,12.073,59.769,12.051,59.233,11.322z"/><path fill-rule="evenodd" clip-rule="evenodd" d="M80.028,51.939c-0.215,0.678-0.402,1.269-0.6,1.892   c-0.481-0.43-0.624-0.872-0.411-1.356C79.175,52.116,79.456,51.876,80.028,51.939z"/><path fill-rule="evenodd" clip-rule="evenodd" d="M80.644,47.043c0.103-0.258,0.277-0.492,0.273-0.725   c-0.01-0.707,0.458-0.977,0.985-1.272C81.967,46.112,81.484,46.841,80.644,47.043z"/><path fill-rule="evenodd" clip-rule="evenodd" d="M66.132,10.397c0.085-0.218,0.15-0.388,0.234-0.603   c-0.119-0.014-0.24,0.002-0.33-0.044c-0.129-0.067-0.236-0.178-0.353-0.27c0.116-0.128,0.235-0.367,0.349-0.363   c0.291,0.009,0.611,0.068,0.86,0.211c0.261,0.15,0.269,0.512,0.041,0.733C66.743,10.248,66.631,10.661,66.132,10.397z"/><path fill-rule="evenodd" clip-rule="evenodd" d="M75.189,59.941c0.2,0.768,0.161,1.364-0.063,1.943   c-0.086,0.223-0.423,0.238-0.522,0.018c-0.107-0.241-0.099-0.536-0.131-0.809c-0.004-0.038,0.043-0.083,0.068-0.124   C74.726,60.677,74.911,60.383,75.189,59.941z"/><path fill-rule="evenodd" clip-rule="evenodd" d="M70.212,17.394c0.179-0.123,0.351-0.24,0.592-0.406   c0.159,0.158,0.353,0.294,0.47,0.478c0.223,0.351,0.142,0.654-0.159,0.772c-0.351,0.136-0.665-0.001-0.791-0.36   C70.27,17.724,70.248,17.558,70.212,17.394z"/><path fill-rule="evenodd" clip-rule="evenodd" d="M54.736,7.326c0.031,0.37-0.002,0.597,0.078,0.771   c0.104,0.228,0.066,0.367-0.129,0.475c-0.247,0.137-0.772,0.034-0.926-0.169c-0.154-0.205-0.143-0.432,0.053-0.571   C54.073,7.646,54.375,7.519,54.736,7.326z"/><path fill-rule="evenodd" clip-rule="evenodd" d="M70.84,59.77c0.27,0.905,0.042,1.616-0.207,2.386   C70.168,61.491,70.214,60.944,70.84,59.77z"/><path fill-rule="evenodd" clip-rule="evenodd" d="M61.566,6.785c-0.342,0.531-0.806,0.692-1.287,0.776   c-0.113,0.02-0.329-0.168-0.39-0.308c-0.092-0.212,0.065-0.353,0.286-0.384C60.605,6.809,61.022,6.567,61.566,6.785z"/><path fill-rule="evenodd" clip-rule="evenodd" d="M69.001,52.564c-0.061,0.491-0.088,0.908-0.171,1.314   c-0.047,0.228-0.313,0.238-0.516,0.046c-0.238-0.225-0.244-0.506-0.178-0.795C68.219,52.771,68.323,52.698,69.001,52.564z"/><path fill-rule="evenodd" clip-rule="evenodd" d="M51.357,14.168c0.127-0.633,0.205-0.677,1.047-0.601   c0.098,0.329,0.155,0.66-0.016,1.049C52.021,14.457,51.713,14.323,51.357,14.168z"/><path fill-rule="evenodd" clip-rule="evenodd" d="M58.591,22.773c-0.202,0.145-0.387,0.309-0.6,0.418   c-0.206,0.105-0.469,0.215-0.63-0.057c-0.158-0.267-0.018-0.502,0.187-0.692c0.303-0.282,0.647-0.28,0.865,0.002   C58.469,22.516,58.502,22.606,58.591,22.773z"/><path fill-rule="evenodd" clip-rule="evenodd" d="M64.93,55.964c0.011,0.452-0.114,0.68-0.363,0.687   c-0.248,0.008-0.418-0.212-0.424-0.549c-0.008-0.354,0.175-0.62,0.442-0.619C64.931,55.483,64.914,55.75,64.93,55.964z"/><path fill-rule="evenodd" clip-rule="evenodd" d="M74.485,16.004c0.731,0.332,0.155,0.855,0.365,1.259   c-0.472,0.071-0.648-0.207-0.75-0.491C73.978,16.43,74.17,16.183,74.485,16.004z"/><path fill-rule="evenodd" clip-rule="evenodd" d="M41.643,26.927c-0.243-0.009-0.446-0.324-0.456-0.667   c-0.007-0.256,0.262-0.5,0.529-0.443c0.347,0.071,0.323,0.379,0.326,0.632C42.044,26.714,41.906,26.901,41.643,26.927z"/><path fill-rule="evenodd" clip-rule="evenodd" d="M70.789,54.94c-0.235,0.277-0.495,0.44-0.808,0.196   c-0.122-0.096-0.239-0.339-0.2-0.467c0.043-0.139,0.26-0.294,0.417-0.314C70.601,54.304,70.702,54.617,70.789,54.94z"/><path fill-rule="evenodd" clip-rule="evenodd" d="M63.222,22.881c0.239,0.291,0.479,0.583,0.716,0.872   c-0.461,0.478-0.734,0.453-0.887-0.048C62.974,23.452,62.831,23.159,63.222,22.881z"/><path fill-rule="evenodd" clip-rule="evenodd" d="M80.1,25.628c-0.183,0.353-0.36,0.692-0.538,1.034   c-0.413-0.2-0.521-0.436-0.378-0.756C79.333,25.572,79.61,25.473,80.1,25.628z"/><path fill-rule="evenodd" clip-rule="evenodd" d="M45.797,19.3c0.42,0.639,0.389,0.994-0.08,1.183   c-0.099,0.039-0.266,0.06-0.325,0.005c-0.087-0.08-0.165-0.247-0.143-0.354C45.318,19.816,45.432,19.504,45.797,19.3z"/><path fill-rule="evenodd" clip-rule="evenodd" d="M65.594,58.549c0.006-0.372,0.369-0.705,0.642-0.638   c0.138,0.035,0.309,0.21,0.339,0.35c0.051,0.236-0.278,0.495-0.584,0.467C65.839,58.715,65.696,58.599,65.594,58.549z"/><path fill-rule="evenodd" clip-rule="evenodd" d="M68.262,58.843c0.04,0.277,0.092,0.554,0.115,0.833   c0.021,0.236-0.062,0.439-0.341,0.426c-0.261-0.013-0.406-0.227-0.343-0.44c0.089-0.3,0.277-0.57,0.424-0.854   C68.165,58.818,68.214,58.831,68.262,58.843z"/><path fill-rule="evenodd" clip-rule="evenodd" d="M34.822,57.816c0.328,0.369,0.596,0.67,0.894,1.005   c-0.423,0.28-0.682,0.083-0.891-0.117C34.613,58.501,34.539,58.229,34.822,57.816z"/><path fill-rule="evenodd" clip-rule="evenodd" d="M74.392,49.096c-0.02,0.412-0.016,0.744-0.063,1.068   c-0.016,0.101-0.159,0.219-0.27,0.256c-0.054,0.018-0.198-0.115-0.243-0.208C73.57,49.7,73.746,49.295,74.392,49.096z"/><path fill-rule="evenodd" clip-rule="evenodd" d="M73.682,57.229c-0.517-0.836-0.471-1.008,0.347-1.503   C74.085,56.264,74.011,56.729,73.682,57.229z"/><path fill-rule="evenodd" clip-rule="evenodd" d="M68.955,19.011c0.291,0.445,0.539,0.825,0.81,1.239   C68.755,20.164,68.526,19.817,68.955,19.011z"/><path fill-rule="evenodd" clip-rule="evenodd" d="M64.563,22.875c0.008-0.333,0.344-0.627,0.602-0.64   c0.247-0.014,0.333,0.157,0.353,0.356c0.025,0.257-0.274,0.583-0.539,0.541C64.81,23.106,64.664,22.943,64.563,22.875z"/><path fill-rule="evenodd" clip-rule="evenodd" d="M79.49,54.535c0.029-0.333,0.582-0.824,0.83-0.753   c0.104,0.029,0.239,0.327,0.22,0.344c-0.242,0.214-0.502,0.413-0.779,0.578C79.715,54.731,79.564,54.584,79.49,54.535z"/><path fill-rule="evenodd" clip-rule="evenodd" d="M54.797,65.141c-0.026,0.338-0.403,0.613-0.699,0.545   c-0.122-0.028-0.279-0.184-0.301-0.303c-0.042-0.237,0.36-0.507,0.677-0.451C54.604,64.955,54.714,65.085,54.797,65.141z"/><path fill-rule="evenodd" clip-rule="evenodd" d="M73.249,60.495c0.324,0.595,0.313,0.735-0.064,1.227   C72.794,61.348,72.799,61.141,73.249,60.495z"/><path fill-rule="evenodd" clip-rule="evenodd" d="M75.896,57.411c0.129,0.504,0.186,0.902-0.217,1.227   C75.231,58.131,75.269,57.866,75.896,57.411z"/><path fill-rule="evenodd" clip-rule="evenodd" d="M73.38,30.495c-0.205-0.265-0.393-0.416-0.45-0.606   c-0.06-0.196,0.088-0.361,0.323-0.382c0.296-0.026,0.599,0.182,0.545,0.426C73.76,30.101,73.578,30.239,73.38,30.495z"/><path fill-rule="evenodd" clip-rule="evenodd" d="M70.219,65.613c-0.188-0.197-0.38-0.308-0.385-0.425   c-0.007-0.188,0.088-0.395,0.186-0.567c0.03-0.052,0.29-0.058,0.307-0.021c0.074,0.16,0.133,0.346,0.129,0.521   C70.453,65.245,70.343,65.367,70.219,65.613z"/><path fill-rule="evenodd" clip-rule="evenodd" d="M65.837,19.422c0.441,0.105,0.441,0.105,1.127,1.18   C66.391,20.637,66.302,20.543,65.837,19.422z"/><path fill-rule="evenodd" clip-rule="evenodd" d="M38.866,19.129c-0.057-0.341-0.131-0.586-0.121-0.827   c0.005-0.121,0.145-0.307,0.258-0.338c0.214-0.06,0.363,0.1,0.363,0.316C39.367,18.583,39.33,18.888,38.866,19.129z"/><path fill-rule="evenodd" clip-rule="evenodd" d="M62.261,18.086c-0.361,0.485-0.6,0.609-0.798,0.42   c-0.225-0.216-0.122-0.437,0.046-0.631C61.728,17.625,61.854,17.66,62.261,18.086z"/><path fill-rule="evenodd" clip-rule="evenodd" d="M68.112,24.61c-0.132,0.2-0.204,0.435-0.329,0.467   c-0.139,0.035-0.353-0.081-0.481-0.192c-0.155-0.134-0.256-0.331-0.419-0.555C67.374,24.156,67.67,24.468,68.112,24.61z"/><path fill-rule="evenodd" clip-rule="evenodd" d="M56.375,18.625c0.175-0.059,0.351-0.165,0.524-0.161   c0.162,0.003,0.417,0.087,0.462,0.202c0.107,0.273-0.159,0.359-0.361,0.424C56.648,19.203,56.525,19.111,56.375,18.625z"/><path fill-rule="evenodd" clip-rule="evenodd" d="M51.108,63.594c-0.512-0.157-0.764-0.482-0.678-0.806   c0.026-0.097,0.127-0.221,0.214-0.24c0.076-0.018,0.238,0.077,0.263,0.153C50.994,62.975,51.038,63.261,51.108,63.594z"/><path fill-rule="evenodd" clip-rule="evenodd" d="M78.421,24.5c-0.242,0.354-0.484,0.708-0.784,1.146   C77.479,24.849,77.599,24.666,78.421,24.5z"/><path fill-rule="evenodd" clip-rule="evenodd" d="M67.538,20.666c0.397,0.205,0.667,0.344,0.946,0.488   c-0.062,0.382-0.292,0.485-0.568,0.413C67.521,21.463,67.57,21.119,67.538,20.666z"/><path fill-rule="evenodd" clip-rule="evenodd" d="M86.804,38.795c-0.216,0.339-0.362,0.602-0.545,0.837   c-0.048,0.063-0.211,0.074-0.305,0.049c-0.05-0.013-0.098-0.157-0.091-0.237C85.896,39.057,86.201,38.824,86.804,38.795z"/><path fill-rule="evenodd" clip-rule="evenodd" d="M54.705,61.636c-0.462,0.603-0.462,0.603-0.986,0.493   C53.843,61.56,54.027,61.458,54.705,61.636z"/><path fill-rule="evenodd" clip-rule="evenodd" d="M77.626,46.177c-0.109,0.239-0.141,0.394-0.233,0.487   c-0.102,0.103-0.259,0.197-0.393,0.199c-0.068,0.001-0.2-0.212-0.194-0.323c0.007-0.144,0.094-0.365,0.199-0.401   C77.167,46.083,77.374,46.155,77.626,46.177z"/><path fill-rule="evenodd" clip-rule="evenodd" d="M57.687,14.69c-0.43,0.222-0.687,0.21-0.734-0.067   c-0.024-0.143,0.075-0.376,0.194-0.456C57.369,14.017,57.538,14.194,57.687,14.69z"/><path fill-rule="evenodd" clip-rule="evenodd" d="M68.693,17.406c-0.259,0.218-0.505,0.452-0.782,0.641   c-0.077,0.052-0.248-0.035-0.377-0.058c0.041-0.122,0.045-0.304,0.129-0.354c0.283-0.171,0.595-0.296,0.896-0.438   C68.604,17.266,68.648,17.336,68.693,17.406z"/><path fill-rule="evenodd" clip-rule="evenodd" d="M72.387,49.864c0.023,0.301,0.07,0.515,0.044,0.719   c-0.015,0.112-0.153,0.21-0.236,0.313c-0.114-0.102-0.298-0.187-0.328-0.309C71.781,50.251,71.896,49.987,72.387,49.864z"/><path fill-rule="evenodd" clip-rule="evenodd" d="M56.717,62.431c0.261,0.407,0.245,0.736-0.02,1.07   C56.181,63.053,56.18,62.772,56.717,62.431z"/><path fill-rule="evenodd" clip-rule="evenodd" d="M69.872,11.261c-0.438-0.425-0.227-0.811-0.14-1.225   C70.148,10.401,70.172,10.579,69.872,11.261z"/><path fill-rule="evenodd" clip-rule="evenodd" d="M84.615,47.619c-0.215-0.307-0.366-0.461-0.436-0.646   c-0.038-0.101,0.025-0.302,0.112-0.37c0.084-0.065,0.281-0.065,0.383-0.01c0.097,0.053,0.191,0.22,0.183,0.328   C84.842,47.099,84.743,47.271,84.615,47.619z"/><path fill-rule="evenodd" clip-rule="evenodd" d="M82.587,40.249c-0.272,0.327-0.449,0.54-0.606,0.729   c-0.337-0.109-0.44-0.286-0.329-0.518C81.803,40.145,82.09,40.168,82.587,40.249z"/><path fill-rule="evenodd" clip-rule="evenodd" d="M60.35,22.599c-0.268-0.5-0.066-0.803,0.613-1.02   C60.988,21.851,60.988,21.851,60.35,22.599z"/><path fill-rule="evenodd" clip-rule="evenodd" d="M63.088,65.299c-0.324,0.099-0.56,0.2-0.803,0.229   c-0.088,0.011-0.221-0.137-0.283-0.242c-0.021-0.034,0.113-0.227,0.191-0.237C62.463,65.013,62.783,64.772,63.088,65.299z"/><path fill-rule="evenodd" clip-rule="evenodd" d="M40.989,13.78c0.165,0.32,0.075,0.493-0.136,0.54   c-0.219,0.048-0.455,0.013-0.685,0.014c0.017-0.122-0.002-0.328,0.055-0.351C40.46,13.887,40.719,13.846,40.989,13.78z"/><path fill-rule="evenodd" clip-rule="evenodd" d="M54.488,68.542c-0.229,0.13-0.386,0.292-0.511,0.27   c-0.133-0.022-0.235-0.219-0.352-0.339c0.157-0.11,0.303-0.261,0.477-0.31C54.171,68.145,54.303,68.353,54.488,68.542z"/><path fill-rule="evenodd" clip-rule="evenodd" d="M83.031,49.371c-0.147-0.203-0.298-0.315-0.302-0.435   c-0.012-0.304,0.251-0.383,0.483-0.377c0.107,0.003,0.211,0.174,0.316,0.27C83.386,48.985,83.242,49.141,83.031,49.371z"/><path fill-rule="evenodd" clip-rule="evenodd" d="M73.525,15.816c0.034,0.134,0.099,0.269,0.095,0.4   c-0.004,0.122-0.051,0.275-0.135,0.35c-0.061,0.053-0.256,0.039-0.317-0.021c-0.089-0.085-0.179-0.265-0.146-0.359   c0.062-0.169,0.215-0.306,0.329-0.455C73.409,15.758,73.468,15.788,73.525,15.816z"/><path fill-rule="evenodd" clip-rule="evenodd" d="M62.317,21.208c-0.204-0.055-0.4-0.049-0.453-0.133   c-0.203-0.321-0.114-0.771,0.189-1.043C62.131,20.377,62.204,20.703,62.317,21.208z"/><path fill-rule="evenodd" clip-rule="evenodd" d="M80.639,37.408c-0.05,0.452-0.185,0.626-0.436,0.525   c-0.131-0.054-0.313-0.315-0.279-0.382C80.089,37.237,80.371,37.321,80.639,37.408z"/><path fill-rule="evenodd" clip-rule="evenodd" d="M39.802,58.799c-0.6-0.207-0.667-0.274-0.908-0.836   C39.452,58.013,39.621,58.414,39.802,58.799z"/><path fill-rule="evenodd" clip-rule="evenodd" d="M58.626,23.295c0.414-0.059,0.827-0.117,1.301-0.185   C59.37,23.668,59.085,23.732,58.626,23.295z"/><path fill-rule="evenodd" clip-rule="evenodd" d="M46.991,65.695c-0.496-0.181-0.691-0.4-0.598-0.657   c0.024-0.067,0.132-0.147,0.202-0.147C46.84,64.89,46.995,65.196,46.991,65.695z"/><path fill-rule="evenodd" clip-rule="evenodd" d="M58.292,65.968c0.151-0.269,0.372-0.391,0.623-0.421   c0.104-0.013,0.226,0.106,0.339,0.166c-0.052,0.096-0.078,0.233-0.158,0.279C58.848,66.135,58.583,66.175,58.292,65.968z"/><path fill-rule="evenodd" clip-rule="evenodd" d="M74.85,51.801c-0.082,0.172-0.125,0.4-0.261,0.498   c-0.101,0.072-0.323-0.025-0.491-0.047c0.045-0.142,0.049-0.327,0.144-0.413c0.108-0.098,0.297-0.108,0.451-0.157   C74.745,51.722,74.797,51.761,74.85,51.801z"/><path fill-rule="evenodd" clip-rule="evenodd" d="M81.079,27.48c-0.178-0.222-0.335-0.329-0.344-0.447   c-0.019-0.253,0.179-0.392,0.412-0.38c0.101,0.005,0.289,0.184,0.273,0.232C81.367,27.06,81.242,27.212,81.079,27.48z"/><path fill-rule="evenodd" clip-rule="evenodd" d="M80.854,31.97c-0.174,0.158-0.308,0.279-0.44,0.399   c-0.093-0.111-0.287-0.282-0.262-0.324c0.095-0.16,0.26-0.278,0.397-0.413C80.63,31.722,80.712,31.813,80.854,31.97z"/><path fill-rule="evenodd" clip-rule="evenodd" d="M68.138,22.875c-0.017,0.498-0.254,0.666-0.671,0.693   C67.452,22.921,67.46,22.914,68.138,22.875z"/><path fill-rule="evenodd" clip-rule="evenodd" d="M80.086,35.931c0.165,0.176,0.304,0.322,0.439,0.468   c-0.153,0.311-0.39,0.388-0.592,0.205C79.746,36.433,79.765,36.175,80.086,35.931z"/><path fill-rule="evenodd" clip-rule="evenodd" d="M33.288,34.503c-0.256,0.185-0.421,0.344-0.617,0.426   c-0.089,0.037-0.273-0.052-0.355-0.14c-0.057-0.059-0.053-0.243,0.001-0.317c0.05-0.07,0.201-0.102,0.304-0.096   C32.801,34.388,32.979,34.442,33.288,34.503z"/><path fill-rule="evenodd" clip-rule="evenodd" d="M72.073,20.115c0.088,0.323,0.225,0.604-0.161,0.697   c-0.105,0.025-0.349-0.125-0.375-0.231C71.446,20.208,71.731,20.17,72.073,20.115z"/><path fill-rule="evenodd" clip-rule="evenodd" d="M49.608,59.563c-0.144-0.26-0.269-0.417-0.309-0.594   c-0.016-0.069,0.157-0.182,0.245-0.275c0.124,0.149,0.274,0.287,0.356,0.457C49.927,59.205,49.767,59.348,49.608,59.563z"/><path fill-rule="evenodd" clip-rule="evenodd" d="M61.124,14.055c0.118-0.148,0.171-0.277,0.23-0.28   c0.174-0.011,0.352,0.021,0.523,0.057c0.024,0.006,0.05,0.176,0.032,0.186c-0.138,0.07-0.282,0.139-0.432,0.167   C61.402,14.198,61.311,14.127,61.124,14.055z"/><path fill-rule="evenodd" clip-rule="evenodd" d="M76.878,21.191c-0.271,0.222-0.508,0.417-0.742,0.609   c-0.285-0.094-0.275-0.29-0.113-0.425C76.244,21.192,76.478,20.875,76.878,21.191z"/><path fill-rule="evenodd" clip-rule="evenodd" d="M44.728,65.088c-0.188,0.163-0.301,0.335-0.396,0.326   c-0.118-0.012-0.315-0.18-0.31-0.27c0.008-0.122,0.156-0.288,0.28-0.331C44.379,64.785,44.523,64.949,44.728,65.088z"/><path fill-rule="evenodd" clip-rule="evenodd" d="M49.067,67.532c0.067-0.23,0.121-0.415,0.23-0.789   c0.193,0.286,0.362,0.424,0.357,0.554C49.644,67.558,49.434,67.623,49.067,67.532z"/><path fill-rule="evenodd" clip-rule="evenodd" d="M76.281,17.62c0.249-0.308,0.519-0.305,0.835-0.111   C76.811,18.064,76.715,18.076,76.281,17.62z"/><path fill-rule="evenodd" clip-rule="evenodd" d="M64.565,61.421c0.046,0.314,0.115,0.468,0.072,0.576   c-0.05,0.122-0.201,0.202-0.308,0.302c-0.072-0.152-0.205-0.309-0.195-0.454C64.143,61.734,64.335,61.638,64.565,61.421z"/><path fill-rule="evenodd" clip-rule="evenodd" d="M81.657,24.375c-0.455,0.118-0.728,0.132-0.866-0.199   c-0.037-0.087-0.008-0.255,0.058-0.315c0.058-0.055,0.238-0.057,0.308-0.005C81.314,23.974,81.437,24.139,81.657,24.375z"/><path fill-rule="evenodd" clip-rule="evenodd" d="M71.819,12.29c-0.254,0.345-0.467,0.454-0.711,0.214   c-0.076-0.075-0.119-0.317-0.067-0.367C71.334,11.857,71.528,12.13,71.819,12.29z"/><path fill-rule="evenodd" clip-rule="evenodd" d="M31.713,31.426c-0.262,0.266-0.371,0.561-0.694,0.391   c-0.081-0.042-0.156-0.28-0.111-0.347C31.096,31.19,31.35,31.328,31.713,31.426z"/><path fill-rule="evenodd" clip-rule="evenodd" d="M79.312,32.792c-0.57,0.511-0.589,0.509-0.92-0.009   C78.675,32.476,78.93,32.704,79.312,32.792z"/><path fill-rule="evenodd" clip-rule="evenodd" d="M34.82,25.493c-0.601,0.248-0.629,0.237-0.87-0.245   C34.293,25.039,34.492,25.27,34.82,25.493z"/><path fill-rule="evenodd" clip-rule="evenodd" d="M38.08,61.734c-0.268,0.578-0.309,0.589-0.866,0.267   C37.43,61.728,37.688,61.658,38.08,61.734z"/><path fill-rule="evenodd" clip-rule="evenodd" d="M76.086,26.814c-0.27,0.168-0.5,0.252-0.604-0.072   c-0.035-0.109,0.079-0.378,0.164-0.396C75.951,26.28,76.022,26.527,76.086,26.814z"/><path fill-rule="evenodd" clip-rule="evenodd" d="M55.958,21.686c0.31-0.534,0.64-0.391,1.068-0.392   C56.682,21.59,56.418,21.712,55.958,21.686z"/><path fill-rule="evenodd" clip-rule="evenodd" d="M32.091,54.892c-0.3,0.396-0.532,0.279-0.816,0.063   C31.627,54.7,31.627,54.7,32.091,54.892z"/><path fill-rule="evenodd" clip-rule="evenodd" d="M56.859,7.286c-0.48-0.152-0.584-0.328-0.44-0.591   c0.024-0.046,0.229-0.06,0.237-0.039C56.727,6.819,56.771,6.993,56.859,7.286z"/><path fill-rule="evenodd" clip-rule="evenodd" d="M71.406,12.864c0.22,0.111,0.438,0.223,0.647,0.329   c-0.048,0.315-0.266,0.376-0.413,0.284c-0.165-0.103-0.255-0.325-0.378-0.495C71.311,12.942,71.358,12.903,71.406,12.864z"/><path fill-rule="evenodd" clip-rule="evenodd" d="M28.214,49.744c0.284,0.213,0.478,0.358,0.737,0.554   c-0.341,0.105-0.59,0.134-0.771-0.098C28.127,50.132,28.192,49.973,28.214,49.744z"/><path fill-rule="evenodd" clip-rule="evenodd" d="M27.766,42.649c-0.279-0.055-0.438-0.193-0.339-0.452   c0.039-0.102,0.214-0.151,0.455-0.31C27.825,42.255,27.796,42.45,27.766,42.649z"/><path fill-rule="evenodd" clip-rule="evenodd" d="M85.858,35.654c0.023-0.074,0.025-0.102,0.039-0.118   c0.157-0.19,0.331-0.358,0.587-0.172c0.045,0.032,0.059,0.198,0.02,0.244C86.33,35.806,86.121,35.855,85.858,35.654z"/><path fill-rule="evenodd" clip-rule="evenodd" d="M53.451,9.544c-0.272,0.149-0.472,0.258-0.721,0.395   C52.749,9.333,52.817,9.296,53.451,9.544z"/><path fill-rule="evenodd" clip-rule="evenodd" d="M63.152,59.935c0.046-0.096,0.051-0.124,0.067-0.137   c0.194-0.149,0.397-0.164,0.571,0.018c0.039,0.041,0.021,0.209-0.027,0.246C63.528,60.242,63.328,60.173,63.152,59.935z"/><path fill-rule="evenodd" clip-rule="evenodd" d="M47.608,10.083c-0.309-0.085-0.507-0.194-0.372-0.502   c0.026-0.061,0.17-0.127,0.23-0.106C47.767,9.578,47.759,9.789,47.608,10.083z"/><path fill-rule="evenodd" clip-rule="evenodd" d="M61.44,57.645c-0.301-0.062-0.349-0.243-0.257-0.469   c0.018-0.045,0.19-0.083,0.242-0.049C61.665,57.284,61.603,57.463,61.44,57.645z"/><path fill-rule="evenodd" clip-rule="evenodd" d="M52.833,20.043c-0.037,0.339-0.206,0.498-0.549,0.5   C52.274,20.017,52.274,20.017,52.833,20.043z"/><path fill-rule="evenodd" clip-rule="evenodd" d="M34.698,20.201c-0.101-0.127-0.206-0.25-0.292-0.387   c-0.007-0.011,0.119-0.153,0.185-0.154c0.336-0.003,0.227,0.261,0.293,0.42C34.821,20.121,34.76,20.161,34.698,20.201z"/><path fill-rule="evenodd" clip-rule="evenodd" d="M77.521,33.9c0.045,0.27,0.011,0.454-0.252,0.439   c-0.077-0.005-0.213-0.155-0.207-0.23C77.081,33.846,77.282,33.856,77.521,33.9z"/><path fill-rule="evenodd" clip-rule="evenodd" d="M66.379,62.628c-0.166,0.387-0.38,0.466-0.731,0.377   C65.776,62.645,65.953,62.493,66.379,62.628z"/><path fill-rule="evenodd" clip-rule="evenodd" d="M33.771,49.811c0.396-0.11,0.586-0.01,0.745,0.322   C34.117,50.261,33.942,50.13,33.771,49.811z"/><path fill-rule="evenodd" clip-rule="evenodd" d="M85.396,37.499c-0.086,0.075-0.102,0.1-0.122,0.104   c-0.236,0.06-0.414-0.01-0.483-0.254c-0.013-0.045,0.046-0.15,0.092-0.165C85.159,37.096,85.306,37.232,85.396,37.499z"/><path fill-rule="evenodd" clip-rule="evenodd" d="M83.896,32.113c-0.011,0.32-0.126,0.466-0.395,0.396   c-0.054-0.014-0.126-0.16-0.107-0.22C83.47,32.049,83.631,31.962,83.896,32.113z"/><path fill-rule="evenodd" clip-rule="evenodd" d="M48.482,24.576c0.042,0.292-0.033,0.474-0.336,0.473   c-0.047,0-0.141-0.137-0.132-0.199C48.05,24.589,48.221,24.526,48.482,24.576z"/><path fill-rule="evenodd" clip-rule="evenodd" d="M49.906,15.107c-0.048,0.215-0.093,0.414-0.146,0.65   C49.478,15.283,49.481,15.27,49.906,15.107z"/><path fill-rule="evenodd" clip-rule="evenodd" d="M73.287,28.655c0.221,0.346,0.106,0.461-0.283,0.463   C73.124,28.921,73.205,28.789,73.287,28.655z"/><path fill-rule="evenodd" clip-rule="evenodd" d="M40.729,30.942c0.146-0.105,0.238-0.217,0.348-0.236   c0.064-0.012,0.155,0.121,0.234,0.188c-0.1,0.099-0.189,0.215-0.307,0.284C40.977,31.195,40.855,31.053,40.729,30.942z"/><path fill-rule="evenodd" clip-rule="evenodd" d="M82.147,55.973c-0.114-0.134-0.206-0.221-0.265-0.327   c-0.011-0.02,0.148-0.177,0.172-0.164c0.106,0.059,0.204,0.146,0.278,0.242C82.347,55.741,82.239,55.853,82.147,55.973z"/><path fill-rule="evenodd" clip-rule="evenodd" d="M86.94,46.21c-0.194,0.258-0.356,0.448-0.742,0.278   C86.395,46.211,86.53,45.958,86.94,46.21z"/><path fill-rule="evenodd" clip-rule="evenodd" d="M71.029,57.196c-0.091-0.159-0.206-0.28-0.181-0.332   c0.053-0.105,0.18-0.175,0.276-0.259c0.062,0.08,0.187,0.178,0.171,0.237C71.267,56.953,71.154,57.04,71.029,57.196z"/><path fill-rule="evenodd" clip-rule="evenodd" d="M85.315,42.836c0.167-0.108,0.268-0.211,0.381-0.229   c0.057-0.009,0.138,0.14,0.207,0.217c-0.097,0.081-0.184,0.193-0.295,0.229C85.554,43.069,85.454,42.943,85.315,42.836z"/><path fill-rule="evenodd" clip-rule="evenodd" d="M72.735,22.417c-0.179,0.057-0.359,0.113-0.632,0.199   c0.109-0.486,0.353-0.409,0.559-0.416C72.687,22.273,72.711,22.345,72.735,22.417z"/><path fill-rule="evenodd" clip-rule="evenodd" d="M77.679,22.391c-0.239,0.219-0.415,0.207-0.629-0.032   C77.29,22.147,77.465,22.174,77.679,22.391z"/><path fill-rule="evenodd" clip-rule="evenodd" d="M43.354,56.991c-0.1-0.128-0.18-0.207-0.223-0.303   c-0.009-0.02,0.148-0.158,0.181-0.143c0.095,0.045,0.177,0.134,0.234,0.224C43.56,56.788,43.446,56.888,43.354,56.991z"/><path fill-rule="evenodd" clip-rule="evenodd" d="M45.204,60.873c-0.134,0.088-0.231,0.185-0.263,0.167   c-0.087-0.051-0.154-0.145-0.21-0.232c-0.008-0.013,0.102-0.139,0.132-0.129C44.96,60.709,45.046,60.777,45.204,60.873z"/><path fill-rule="evenodd" clip-rule="evenodd" d="M77.413,27.083c0-0.142,0-0.284,0-0.426c0.04-0.004,0.079-0.009,0.119-0.013   c0.018,0.145,0.036,0.289,0.054,0.434C77.528,27.079,77.471,27.081,77.413,27.083z"/><path fill-rule="evenodd" clip-rule="evenodd" d="M47.949,63.996c-0.068-0.086-0.153-0.163-0.142-0.184   c0.042-0.07,0.113-0.16,0.181-0.166c0.053-0.005,0.116,0.104,0.174,0.161C48.098,63.865,48.032,63.923,47.949,63.996z"/><path fill-rule="evenodd" clip-rule="evenodd" d="M53.237,19.932c-0.038-0.142-0.102-0.263-0.071-0.293   c0.063-0.065,0.175-0.084,0.267-0.121c0.019,0.08,0.071,0.174,0.046,0.237C53.454,19.818,53.354,19.852,53.237,19.932z"/><path fill-rule="evenodd" clip-rule="evenodd" d="M47.904,66.846c-0.098-0.111-0.205-0.189-0.192-0.229   c0.028-0.089,0.105-0.176,0.187-0.226c0.026-0.015,0.187,0.101,0.181,0.141C48.066,66.623,47.988,66.706,47.904,66.846z"/><path fill-rule="evenodd" clip-rule="evenodd" d="M48.897,61.973c0.109-0.1,0.179-0.209,0.23-0.201   c0.098,0.014,0.187,0.095,0.278,0.148c-0.06,0.08-0.114,0.221-0.181,0.227C49.139,62.153,49.042,62.056,48.897,61.973z"/><path fill-rule="evenodd" clip-rule="evenodd" d="M70.47,9.151c-0.207-0.172-0.414-0.344-0.621-0.516   c0.021-0.03,0.043-0.06,0.064-0.09c0.219,0.155,0.438,0.311,0.656,0.465C70.536,9.057,70.503,9.104,70.47,9.151z"/><path fill-rule="evenodd" clip-rule="evenodd" d="M60.885,4.929c0.282,0.033,0.567,0.052,0.847,0.105   c0.176,0.033,0.341,0.119,0.512,0.181l0.003-0.001c-0.231-0.035-0.466-0.061-0.694-0.108C61.327,5.058,61.107,4.989,60.885,4.929   L60.885,4.929z"/><path fill-rule="evenodd" clip-rule="evenodd" d="M76.817,33.184c-0.139,0.06-0.277,0.118-0.417,0.178   c-0.022-0.035-0.046-0.07-0.069-0.105c0.068-0.061,0.129-0.14,0.208-0.177c0.068-0.032,0.159-0.017,0.24-0.022   C76.792,33.099,76.805,33.142,76.817,33.184z"/><path fill-rule="evenodd" clip-rule="evenodd" d="M36.904,54.822c0.187,0.12,0.312,0.2,0.542,0.349   C36.993,55.182,36.993,55.182,36.904,54.822z"/><path fill-rule="evenodd" clip-rule="evenodd" d="M63.422,9.367c-0.29,0.167-0.476,0.151-0.673-0.08   C62.997,9.07,63.175,9.117,63.422,9.367z"/><path fill-rule="evenodd" clip-rule="evenodd" d="M69.044,16.465c0.103-0.069,0.171-0.146,0.247-0.154   c0.044-0.005,0.1,0.103,0.149,0.16c-0.072,0.05-0.139,0.116-0.219,0.141C69.188,16.622,69.128,16.538,69.044,16.465z"/><path fill-rule="evenodd" clip-rule="evenodd" d="M70.523,25.977c-0.209-0.044-0.336-0.069-0.572-0.119   C70.246,25.636,70.377,25.639,70.523,25.977z"/><path fill-rule="evenodd" clip-rule="evenodd" d="M64.007,12.433c0.274,0.109,0.55,0.218,0.825,0.326   c0.001-0.001,0.018-0.018,0.02-0.019c-0.328,0.029-0.664,0.078-0.831-0.317L64.007,12.433z"/><path fill-rule="evenodd" clip-rule="evenodd" d="M64.391,11.479c0.145-0.094,0.217-0.177,0.272-0.167   c0.065,0.012,0.117,0.104,0.175,0.16c-0.045,0.044-0.09,0.123-0.136,0.124C64.629,11.596,64.555,11.544,64.391,11.479z"/><path fill-rule="evenodd" clip-rule="evenodd" d="M72.569,19.853c-0.101,0.035-0.174,0.077-0.247,0.078   c-0.025,0-0.088-0.129-0.072-0.149c0.047-0.059,0.126-0.092,0.192-0.135C72.475,19.7,72.508,19.753,72.569,19.853z"/><path fill-rule="evenodd" clip-rule="evenodd" d="M60.886,4.929c-0.303,0.014-0.605,0.027-0.907,0.041   c-0.001-0.014-0.001-0.027-0.002-0.041c0.303,0,0.605,0,0.907,0C60.885,4.929,60.886,4.929,60.886,4.929z"/><path fill-rule="evenodd" clip-rule="evenodd" d="M60.718,64.879c-0.047-0.031-0.103-0.052-0.103-0.072   c0-0.041,0.021-0.093,0.052-0.118c0.021-0.017,0.073,0.002,0.112,0.005C60.759,64.753,60.739,64.813,60.718,64.879z"/><path fill-rule="evenodd" clip-rule="evenodd" d="M47.157,59.544c-0.095,0.064-0.147,0.126-0.199,0.126   c-0.04-0.001-0.079-0.08-0.118-0.125c0.035-0.028,0.07-0.081,0.104-0.08C47.001,59.467,47.056,59.504,47.157,59.544z"/><path fill-rule="evenodd" clip-rule="evenodd" d="M57.002,59.063c-0.057-0.113-0.111-0.183-0.119-0.256   c-0.003-0.036,0.083-0.08,0.128-0.121c0.049,0.066,0.112,0.126,0.137,0.2C57.157,58.915,57.079,58.974,57.002,59.063z"/><path fill-rule="evenodd" clip-rule="evenodd" d="M76.04,27.535c-0.115-0.005-0.229-0.006-0.343-0.021   c-0.013-0.002-0.015-0.082-0.021-0.125c0.12-0.019,0.239-0.037,0.359-0.055C76.036,27.401,76.038,27.468,76.04,27.535z"/><path fill-rule="evenodd" clip-rule="evenodd" d="M38.63,54.218c-0.058-0.038-0.093-0.062-0.129-0.085   c0.043-0.043,0.079-0.096,0.13-0.124c0.019-0.01,0.07,0.04,0.106,0.063C38.701,54.121,38.665,54.17,38.63,54.218z"/><path fill-rule="evenodd" clip-rule="evenodd" d="M34.779,24.572c0.108,0.033,0.218,0.066,0.326,0.1   c-0.009,0.039-0.019,0.078-0.027,0.118c-0.108-0.02-0.218-0.039-0.326-0.059C34.761,24.678,34.77,24.625,34.779,24.572z"/><path fill-rule="evenodd" clip-rule="evenodd" d="M32.214,43.5c0.053-0.059,0.094-0.104,0.134-0.149   c0.054,0.058,0.108,0.115,0.163,0.173c-0.047,0.042-0.097,0.12-0.14,0.117C32.321,43.637,32.277,43.561,32.214,43.5z"/><path fill-rule="evenodd" clip-rule="evenodd" d="M58.888,61.011c0.083-0.054,0.161-0.129,0.187-0.114   c0.062,0.036,0.098,0.114,0.145,0.175c-0.06,0.027-0.12,0.08-0.177,0.075C58.994,61.143,58.953,61.071,58.888,61.011z"/><path fill-rule="evenodd" clip-rule="evenodd" d="M73.201,60.191c-0.038-0.089-0.063-0.144-0.086-0.197   c0.054-0.022,0.106-0.055,0.163-0.062c0.018-0.002,0.07,0.078,0.061,0.1C73.316,60.083,73.266,60.121,73.201,60.191z"/><path fill-rule="evenodd" clip-rule="evenodd" d="M64.021,12.423c-0.216-0.019-0.433-0.038-0.648-0.058   c0.008-0.046,0.017-0.093,0.024-0.139c0.202,0.069,0.403,0.141,0.607,0.208C64.007,12.433,64.021,12.423,64.021,12.423z"/><path fill-rule="evenodd" clip-rule="evenodd" d="M38.152,13.243c-0.109,0.035-0.219,0.072-0.327,0.107   c-0.015-0.031-0.028-0.063-0.043-0.096c0.103-0.054,0.204-0.106,0.306-0.16C38.109,13.144,38.131,13.193,38.152,13.243z"/><path fill-rule="evenodd" clip-rule="evenodd" d="M38.688,26.605c0.005-0.097-0.013-0.177,0.017-0.2   c0.035-0.029,0.111-0.02,0.166-0.01c0.013,0.002,0.032,0.097,0.015,0.111C38.843,26.544,38.782,26.561,38.688,26.605z"/><path fill-rule="evenodd" clip-rule="evenodd" d="M70.558,27.592c-0.043-0.057-0.098-0.11-0.09-0.121   c0.034-0.049,0.086-0.086,0.131-0.127c0.025,0.034,0.08,0.079,0.071,0.1C70.648,27.498,70.601,27.54,70.558,27.592z"/><path fill-rule="evenodd" clip-rule="evenodd" d="M30.604,26.774c-0.063-0.079-0.102-0.126-0.139-0.172   c0.048-0.037,0.091-0.085,0.145-0.106c0.02-0.007,0.095,0.058,0.09,0.081C30.69,26.633,30.65,26.685,30.604,26.774z"/><path fill-rule="evenodd" clip-rule="evenodd" d="M71.083,9.4c0.07,0.04,0.14,0.08,0.209,0.12c-0.01,0.023-0.02,0.046-0.029,0.068   c-0.072-0.024-0.145-0.05-0.217-0.074C71.059,9.476,71.07,9.438,71.083,9.4z"/><path fill-rule="evenodd" clip-rule="evenodd" d="M87.054,46.815c0.029-0.031,0.059-0.063,0.088-0.094   c0.03,0.049,0.061,0.098,0.091,0.146c-0.037,0.02-0.083,0.063-0.109,0.053C87.091,46.909,87.076,46.852,87.054,46.815z"/><path fill-rule="evenodd" clip-rule="evenodd" d="M63.348,5.199c-0.366,0.005-0.732,0.011-1.101,0.017   c-0.001-0.001-0.004,0-0.004,0C62.61,5.21,62.979,5.206,63.348,5.199L63.348,5.199z"/><path fill-rule="evenodd" clip-rule="evenodd" d="M67.898,63.832c-0.031,0.018-0.062,0.038-0.096,0.05   c-0.006,0.003-0.038-0.034-0.035-0.042c0.016-0.032,0.04-0.06,0.061-0.089C67.852,63.778,67.875,63.805,67.898,63.832z"/><path fill-rule="evenodd" clip-rule="evenodd" d="M73.146,20.715c-0.078-0.067-0.156-0.135-0.234-0.202   c0.021-0.029,0.041-0.058,0.062-0.087c0.092,0.056,0.183,0.111,0.273,0.167C73.213,20.634,73.179,20.675,73.146,20.715z"/><path fill-rule="evenodd" clip-rule="evenodd" d="M65.472,19.982c-0.03,0.02-0.06,0.044-0.093,0.056   c-0.011,0.004-0.05-0.027-0.048-0.033c0.009-0.033,0.028-0.063,0.044-0.094C65.407,19.934,65.439,19.958,65.472,19.982z"/><path fill-rule="evenodd" clip-rule="evenodd" d="M66.109,78.91c-0.598,0.588-1.055,0.61-1.593,0.116   C65.033,78.744,65.528,78.841,66.109,78.91z"/><path fill-rule="evenodd" clip-rule="evenodd" d="M72.174,86.788c0.1,0.402-0.009,0.635-0.315,0.73   c-0.1,0.031-0.295-0.042-0.349-0.129c-0.047-0.073,0.009-0.287,0.088-0.346C71.752,86.93,71.954,86.88,72.174,86.788z"/><path fill-rule="evenodd" clip-rule="evenodd" d="M56.593,74.584c0.339,0.151,0.612,0.273,0.899,0.4   c-0.134,0.386-0.366,0.371-0.599,0.3C56.645,75.207,56.5,75.04,56.593,74.584z"/><path fill-rule="evenodd" clip-rule="evenodd" d="M68.825,80.187c0.297-0.27,0.56-0.057,0.871-0.012   C69.355,80.679,69.157,80.671,68.825,80.187z"/><path fill-rule="evenodd" clip-rule="evenodd" d="M58.347,76.662c-0.175,0.079-0.296,0.182-0.363,0.154   c-0.102-0.043-0.165-0.176-0.245-0.271c0.1-0.044,0.203-0.129,0.298-0.12C58.122,76.434,58.198,76.543,58.347,76.662z"/><path fill-rule="evenodd" clip-rule="evenodd" d="M68.357,81.865c0.227-0.363,0.433-0.334,0.713-0.191   C68.774,81.912,68.774,81.912,68.357,81.865z"/><path fill-rule="evenodd" clip-rule="evenodd" d="M55.519,72.028c-0.156,0.014-0.313,0.027-0.469,0.041   c-0.011-0.069-0.021-0.138-0.032-0.208c0.153-0.032,0.306-0.065,0.458-0.099C55.49,71.852,55.504,71.939,55.519,72.028z"/><path fill-rule="evenodd" clip-rule="evenodd" d="M71.841,82.405c-0.351,0.208-0.549,0.148-0.748-0.135   C71.37,82.064,71.567,82.141,71.841,82.405z"/><path fill-rule="evenodd" clip-rule="evenodd" d="M72.517,84.711c-0.156,0.076-0.25,0.16-0.306,0.14   c-0.089-0.032-0.152-0.134-0.228-0.206c0.07-0.053,0.147-0.156,0.208-0.146C72.283,84.512,72.362,84.604,72.517,84.711z"/><path fill-rule="evenodd" clip-rule="evenodd" d="M72.688,80.382c-0.099-0.102-0.196-0.203-0.325-0.336   C72.721,80.001,72.721,80.001,72.688,80.382z"/><path fill-rule="evenodd" clip-rule="evenodd" d="M64.102,79.979c-0.019-0.066-0.046-0.136-0.038-0.141   c0.052-0.027,0.11-0.041,0.167-0.06c0.011,0.039,0.041,0.101,0.026,0.114C64.217,79.932,64.158,79.95,64.102,79.979z"/><path fill-rule="evenodd" clip-rule="evenodd" d="M49.267,39.18c0.888-0.602,1.83-0.435,2.736-0.844   c-1.691-0.292-3.318,0.232-4.86-0.393c0.035-0.051,0.051-0.084,0.058-0.082c1.189,0.28,2.276-0.378,3.438-0.376   c0.452,0.001,0.905-0.063,1.358-0.068c0.155-0.002,0.4,0.036,0.452,0.135c0.212,0.409,0.486,0.247,0.79,0.17   c0.317-0.082,0.654-0.156,0.976-0.135c0.159,0.01,0.369,0.219,0.432,0.384c0.036,0.099-0.149,0.312-0.277,0.428   c-0.098,0.09-0.256,0.143-0.393,0.157c-0.745,0.081-1.466,0.46-2.249,0.15c-0.174-0.068-0.422,0.032-0.631,0.075   C50.54,38.896,49.986,39.022,49.267,39.18z M49.648,37.9c0.001,0.05,0.002,0.1,0.004,0.148c0.752,0.237,1.493,0.082,2.377-0.148   C51.14,37.9,50.394,37.9,49.648,37.9z"/><path fill-rule="evenodd" clip-rule="evenodd" d="M47.297,37.075c0.505-0.086,1.008-0.196,1.516-0.251   c0.402-0.044,0.813-0.036,1.219-0.021c0.526,0.019,1.029-0.021,1.554-0.149c0.519-0.128,1.092-0.066,1.638-0.034   c0.691,0.04,1.38,0.132,2.069,0.206c0.117,0.013,0.258,0.019,0.338,0.087c0.073,0.063,0.112,0.205,0.106,0.31   c-0.004,0.064-0.11,0.146-0.188,0.176c-0.084,0.032-0.189,0.021-0.283,0.013c-1.33-0.111-2.657-0.273-3.989-0.323   c-1.024-0.038-2.055,0.063-3.082,0.108c-0.283,0.013-0.564,0.052-0.847,0.078C47.33,37.208,47.313,37.141,47.297,37.075z"/></g></svg>