<svg fill="#51A7F9" xmlns="http://www.w3.org/2000/svg" xmlns:xlink="http://www.w3.org/1999/xlink" version="1.1" x="0px" y="0px" viewBox="0 0 254.612 313.537" style="enable-background:new 0 0 254.612 313.537;" xml:space="preserve"><g><path d="M73.137,266.434c0,8.973,0.577,18.539,1.849,28.707c1.328,10.622,10.376,18.396,20.812,18.396   c0.87,0,1.749-0.054,2.634-0.165c11.508-1.44,19.67-11.937,18.231-23.443c-1.065-8.503-1.522-16.317-1.522-23.495   c0.039-28.7,7.219-47.214,13.787-58.694c1.129-1.962,2.244-3.698,3.313-5.249c-11.789-3.491-26.623-7.808-41.758-12.012   C81.261,207.772,73.101,232.988,73.137,266.434z"></path><path d="M194.921,239.234l-4.211,13.777c-0.855,2.793-3.033,4.604-5.686,4.723c-1.389,0.063-2.805-0.354-4.092-1.203   l-17.628-11.616c0.941,6.443,1.507,13.581,1.517,21.517c0,7.179-0.461,14.996-1.521,23.5c-1.439,11.507,6.727,22.003,18.236,23.441   c0.883,0.11,1.76,0.164,2.627,0.164c10.437,0,19.485-7.773,20.813-18.4c1.27-10.165,1.847-19.728,1.847-28.705   c0.014-12.01-1.048-22.934-2.818-32.837C202.051,236.748,198.705,238.882,194.921,239.234z"></path><path d="M209.665,98.97c-7.806-5.456-15.3-8.646-21.643-10.5c-0.803-0.515-1.639-0.942-2.503-1.273   c-0.222,0.146-0.445,0.288-0.67,0.43c-5.425,3.421-11.839,5.409-18.713,5.409c-2.516,0-4.969-0.271-7.336-0.774   c-3.6-0.767-6.992-2.088-10.094-3.865c-5.796,8.763-15.401,14.787-26.44,15.701c-0.967,0.081-1.941,0.132-2.93,0.132   c-12.117,0-22.822-6.157-29.154-15.508c-0.025-0.037-0.049-0.076-0.074-0.113c-6.244,1.872-13.564,5.037-21.184,10.361   c-6.983,4.852-14.025,11.462-20.611,20.213c-5.781,7.681-11.208,17.015-15.931,28.271c-0.249,0.595-0.495,1.199-0.741,1.804   c-2.627,6.48-5.027,13.568-7.129,21.334c-0.182,0.666-0.299,1.333-0.387,1.999c-0.088,0.665-0.131,1.328-0.129,1.986   c0.014,6.584,4.38,12.616,11.039,14.433c1.322,0.359,2.65,0.531,3.957,0.531c5.897,0,11.342-3.508,13.734-9.015   c0.262-0.605,0.492-1.232,0.678-1.885c0.016-0.053,0.035-0.104,0.051-0.157c1.836-6.678,3.85-12.597,5.975-17.869   c0.256-0.634,0.512-1.26,0.771-1.875c3.654-8.686,7.618-15.51,11.607-20.905c4.352-5.888,8.73-10.08,12.765-13.143l12.53,46.926   c1.514,0.506,3.046,1.017,4.599,1.531c9.643,3.199,20.017,6.561,31.022,10.049c4.141,1.313,8.37,2.643,12.683,3.988   c2.263,0.706,4.548,1.416,6.857,2.131c0.124,0.038,0.247,0.077,0.371,0.115l0.035-0.115l4.734-15.494   c1.178-3.854,5.145-6.896,9.221-7.08c0.156-0.008,0.313-0.01,0.469-0.01l5.727,0.061l9.928,0.105l11.269-42.204   c10.172,7.725,22.538,22.607,31.118,53.789c1.819,6.671,7.865,11.057,14.462,11.058c1.307,0,2.634-0.172,3.955-0.532   c7.993-2.18,12.705-10.427,10.525-18.418C243.831,132.721,226.566,110.714,209.665,98.97z"></path><path d="M29.859,148.353c-3.523-1.837-5.799-3.392-6.418-4.558c-5.477-10.303-17.873-5.162-22.188,8.955   c-4.314,14.115,3.086,25.307,13.389,19.83c1.129-0.601,3.749-0.637,7.502-0.232c0.101-0.765,0.234-1.528,0.441-2.285   C24.746,162.074,27.205,154.873,29.859,148.353z"></path><path d="M159.32,174.404l-4.558,14.91l-0.8,2.615c-2.397-0.74-5.237-1.621-8.425-2.615c-0.418-0.131-0.841-0.263-1.271-0.396   c-3.217-1.006-6.758-2.118-10.552-3.318c-9.874-3.126-21.438-6.842-33.296-10.771c-0.897-0.297-1.796-0.596-2.695-0.895   c-12.467-4.151-25.14-8.505-36.412-12.629c-2.193,5.432-4.174,11.334-5.928,17.711c-0.009,0.035-0.022,0.068-0.032,0.102   c11.284,2.785,23.804,6.136,36.12,9.559c15.223,4.231,30.127,8.571,41.992,12.089c6.495,1.925,12.081,3.604,16.305,4.883   l-5.357,17.527c-0.963,3.154,0.5,7.223,3.256,9.039l15.219,10.029l19.146,12.617c2.756,1.816,5.801,0.723,6.764-2.436l4.633-15.146   c4.426,0.17,8.584-2.627,9.939-7.063l0.01-0.034l8.762-28.653c1.354-4.434-0.531-9.078-4.297-11.41l4.631-15.148   c0.965-3.156-0.945-5.768-4.246-5.803l-26.012-0.275l-7.56-0.08l-7.583-0.08C163.775,168.697,160.285,171.25,159.32,174.404z"></path><path d="M154.529,69.039c0,6.3-1.673,12.213-4.584,17.334c-0.064,0.111-0.127,0.222-0.191,0.332   c3.213,1.829,6.761,3.134,10.529,3.805c1.901,0.339,3.855,0.525,5.854,0.525c5.743,0,11.146-1.46,15.857-4.028   c0.299-0.162,0.592-0.336,0.885-0.508c9.836-5.761,16.445-16.431,16.445-28.651c0-4.796-1.025-9.351-2.855-13.468   c-5.777,5.928-12.59,8.833-22.156,8.833l-0.33-1.897c9.797-0.186,16.705-3.717,21.557-8.858c0.488-0.518,0.951-1.054,1.398-1.602   C209.193,25.843,206.513,0,206.513,0c-5.002,13.339-14.008,22.341-21.76,28.008c-0.6,0.438-1.188,0.849-1.77,1.247   c-5.428,3.719-9.985,5.744-11.716,6.45L170.972,34c0.107-0.039,4.549-1.74,10.338-5.666c-4.549-2.344-9.705-3.676-15.174-3.676   c-11.556,0-21.727,5.909-27.67,14.866C148.124,45.805,154.529,56.685,154.529,69.039z"></path><path d="M92.13,88.032c6,8.578,15.945,14.194,27.209,14.194c1.088,0,2.164-0.057,3.227-0.158   c10.208-0.986,19.061-6.595,24.443-14.709c0.216-0.325,0.428-0.653,0.633-0.986c0.142-0.231,0.275-0.467,0.412-0.702   c2.84-4.892,4.473-10.569,4.473-16.632c0-11.658-6.016-21.904-15.105-27.825c-0.555-0.361-1.121-0.705-1.697-1.033   c-4.836-2.752-10.424-4.331-16.385-4.331c-6.117,0-11.842,1.662-16.762,4.548c8.586,7.482,16.599,10.55,16.744,10.603l-0.297,1.705   c-2.375-0.968-10.076-4.417-18.031-11.322c-0.508-0.44-1.018-0.896-1.525-1.365C93.465,34.479,87.509,26.946,83.779,17   c0,0-1.991,19.192,5.301,34.106c0.344,0.704,0.707,1.399,1.094,2.082c4.725,8.337,12.721,14.874,26.137,15.127l-0.33,1.897   c-10.125,0-17.166-3.25-23.158-9.898c-1.4-1.553-2.623-3.231-3.704-4.988c-1.9,4.181-2.968,8.821-2.968,13.713   c0,6.926,2.125,13.354,5.753,18.674C91.976,87.82,92.055,87.925,92.13,88.032z"></path></g></svg>
