<svg fill="#E25822" xmlns="http://www.w3.org/2000/svg" xmlns:xlink="http://www.w3.org/1999/xlink" version="1.1" x="0px" y="0px" viewBox="0 0 528.457 350.347" style="enable-background:new 0 0 528.457 350.347;" xml:space="preserve"><g><path d="M135.188,253.542c-3.16-5.104-7.553-9.361-12.761-12.366C125.909,245.108,130.132,249.319,135.188,253.542z"></path><path d="M511.566,298.067c1.921-3.381,3.023-7.286,3.023-11.452c0-12.824-10.397-23.221-23.222-23.221   c-2.575,0-5.049,0.426-7.363,1.199c0.068-0.714,0.107-1.436,0.107-2.168c0-12.289-9.964-22.254-22.254-22.254   c-5.318,0-10.197,1.868-14.025,4.979c-3.935-3.398-8.607-5.964-13.747-7.427c0.129-1.263,0.196-2.545,0.196-3.842   c0-14.877-8.725-27.714-21.334-33.684l1.978-8.406l-6.741,6.539c-3.522-1.105-7.269-1.701-11.154-1.701   c-3.188,0-6.281,0.402-9.234,1.155c6.732-9.554,11.99-22.024,14.185-38.073c0,0-1.052,2.948-3.66,7.677   c-6.722,12.186-23.789,36.198-59.846,52.08c-2.643,1.164-5.381,2.286-8.23,3.354c2.13,2.89,10.977,3.776,21.81,0.708   c-0.026,0.052-0.056,0.11-0.082,0.161c-1.404,2.716-2.574,4.871-3.387,6.335c-0.813,1.466-1.25,2.21-1.25,2.213l-5.568,9.489   l10.591-2.005l0.222-0.042c0.338-0.123,22.868-4.253,43.921-18.321c-5.988,15.28-14.768,28.662-22.857,38.891   c-2.402,3.043-4.733,5.789-6.911,8.244c8.107-3.138,15.09-6.753,21.02-10.438c8.788-12.479,17.504-28.142,22.329-46   c8.25,5.498,14.175,14.199,16.013,24.327c-0.648-0.034-1.301-0.054-1.957-0.054c-3.944,0-7.738,0.638-11.294,1.802   c-1.454,3.181-3.001,6.161-4.632,8.942c-9.586,10.069-32.213,28.957-71.176,35.148c-2.845,0.452-5.752,0.855-8.772,1.163   c1.496,3.77,11.936,7.247,25.438,5.975c0.9,1.098,2.512,2.852,4.905,4.649c3.649,2.745,9.287,5.571,16.568,5.566   c1.802,0.002,3.689-0.173,5.648-0.548c-5.293,11.208-13.62,19.35-21.417,25.003c-4.915,3.564-9.579,6.097-12.978,7.718   c-1.7,0.813-3.083,1.395-4.022,1.77c-0.47,0.188-0.827,0.322-1.058,0.406c-0.232,0.086-0.298,0.105-0.298,0.108l-4.736,1.599   l3.2,9.477l4.738-1.602c0.307-0.112,9.973-3.382,21.02-11.377c9.759-7.065,20.707-17.987,26.662-33.754   c0.766-2.027,1.459-4.124,2.046-6.315l2.945-11.009l-10.093,5.286c-0.285,0.148-0.557,0.272-0.835,0.409   c-4.3,2.109-7.861,2.82-10.823,2.827c-3.829-0.006-6.835-1.185-9.152-2.618c5.336-1.585,10.85-3.958,16.266-7.328   c10.289-6.403,20.222-16.406,27.907-31.449c1.904-0.364,3.868-0.563,5.879-0.563c17.188,0,31.122,13.934,31.122,31.123   c0,0.186-0.011,0.371-0.014,0.557c-4.863,1.083-9.355,3.141-13.266,5.959c3.123-0.874,6.412-1.352,9.815-1.352   c20.084,0,36.363,16.279,36.363,36.363c0,11.987-5.803,22.617-14.752,29.241c2.694-0.792,5.256-1.887,7.65-3.247   c10.978-6.237,18.391-18.029,18.391-31.559c0-4.609-0.868-9.014-2.435-13.069c1.006-0.116,2.027-0.183,3.065-0.183   c14.606,0,26.447,11.842,26.447,26.445c0,9.474-4.983,17.777-12.468,22.448c12.777-2.33,22.468-13.512,22.468-26.962   C528.457,311.974,521.483,302.194,511.566,298.067z M368.843,224.358c-2.625,1.016-5.087,1.871-7.298,2.581   c1.374-2.693,2.931-5.845,4.579-9.355c4.717-2.693,9.44-6.162,13.859-10.543c3.022-0.792,6.194-1.217,9.466-1.217   c3.282,0,6.464,0.429,9.496,1.226C389.36,215.184,378.098,220.785,368.843,224.358z M476.91,264.391   c0,1.583-0.228,3.109-0.618,4.57c-3.037,2.595-5.397,5.956-6.777,9.787c-0.857,0.615-1.772,1.151-2.735,1.607   c-2.209-0.751-4.513-1.294-6.89-1.608c0.34-1.995,0.526-4.042,0.526-6.134c0-9.21-3.438-17.612-9.091-24.01   c2.383-1.197,5.064-1.887,7.913-1.887C468.999,246.717,476.91,254.629,476.91,264.391z M487.947,299.295   c-3.463-7.368-9.329-13.377-16.591-17.024c2.603-7.027,9.346-12.046,17.279-12.046c10.186,0,18.44,8.256,18.44,18.439   c0,2.734-0.61,5.321-1.679,7.654c-1.419-0.227-2.873-0.348-4.355-0.348C496.299,295.971,491.838,297.176,487.947,299.295z"></path><path d="M411,238.793c-7.928,3.081-14.503,8.861-18.594,16.221C401.486,248.758,407.579,242.672,411,238.793z"></path><path d="M291.241,242.258c0.02-0.227,0.034-0.454,0.034-0.686v-47.413l12.375,15.725c1.448,1.842,3.628,2.953,5.97,3.047   c0.107,0.004,0.214,0.006,0.32,0.006c2.227,0,4.353-0.929,5.872-2.57l24.334-26.335c2.997-3.245,2.797-8.306-0.446-11.303   c-3.245-2.999-8.306-2.799-11.305,0.446l-17.971,19.445l-9.262-11.77c5.592-7.711,9.391-18.896,7.197-34.032   c0,0-0.123,1.863-0.837,4.978c-1.825,7.954-7.561,24.142-25.206,38.851c-2.571,0.727-4.593,0.716-5.523,0   c7.856-5.833,13.662-12.025,17.962-17.938l-3.282-4.171c-1.403-1.783-3.412-2.803-5.505-3.008   c-4.088,7.848-12.295,13.222-21.739,13.222c-9.443,0-17.65-5.374-21.738-13.221c-2.094,0.205-4.105,1.225-5.508,3.009l-0.002-0.002   l-10.54,13.395c10.953,11.612,27.333,24.301,51.204,33.367c-1.191,1.604-4.477,2.573-9.026,2.571   c-35.729-15.915-52.573-39.824-59.196-51.95c-2.57-4.706-3.603-7.637-3.603-7.637c1.74,13.13,5.556,23.854,10.558,32.545   l-16.316-17.657c-2.999-3.245-8.06-3.443-11.305-0.444c-3.244,2.997-3.444,8.058-0.445,11.305l24.334,26.333   c1.517,1.642,3.645,2.57,5.872,2.57c0.107,0,0.213-0.002,0.319-0.006c2.343-0.094,4.52-1.205,5.97-3.047l3.165-4.022   c2.969,2.904,6.07,5.399,9.212,7.524v28.186c0,0.232,0.015,0.459,0.034,0.685l-14.196,59.143   c6.531,4.024,14.084,7.856,22.757,11.145l15.18-63.243h6.541l6.566,27.355c8.436-5.313,15.516-10.979,21.439-16.634   L291.241,242.258z"></path><circle cx="264.229" cy="154.252" r="22.5"></circle><path d="M355.605,75.504l-5.479-10.766l-3.733,11.487c0,0-0.13,0.4-0.413,1.201c-0.989,2.811-3.744,10.146-7.75,17.514   c-2.21,4.138-4.888,8.249-7.703,11.56c-0.393-3.514-0.987-7.746-1.879-12.373c7.435-10.413,12.452-25.389,9.684-45.588   c0,0-0.183,2.487-1.163,6.649c-2.538,10.769-10.489,32.84-34.771,52.753c-1.772,1.454-3.608,2.899-5.56,4.325   c2.868,2.242,13.4-0.344,23.233-8.761c0.37,2.652,0.631,5.032,0.812,7.021c0.181,2.007,0.285,3.617,0.343,4.714   c0.057,1.096,0.065,1.63,0.068,1.63l0.167,8.447l7.324-4.212c9.179-5.43,15.421-15.813,20.021-24.831   c0.735-1.47,1.418-2.906,2.046-4.281c1.648,7.229,2.316,15.368,2.3,23.387c0,3.148-0.101,6.275-0.269,9.327   c4.162-4.507,7.52-8.947,10.214-13.096C362.788,99.031,360.967,86.123,355.605,75.504z"></path><path d="M265.663,19.028c-15.07-7.966-27.399-12.861-27.508-12.905L222.73,0l9.475,13.626c6.081,8.652,8.795,15.204,8.708,19.302   c-0.077,3.162-1.062,5.411-4.541,8.465c-2.308,1.97-5.759,4.005-10.358,6.053c1.404,2.795,3.059,5.721,4.98,8.728   c4.747-2.169,8.662-4.48,11.832-7.141c5.081-4.177,8.165-9.902,8.088-16.105c-0.042-3.775-0.969-7.514-2.622-11.401   c5.29,2.497,11.651,5.674,18.264,9.365c4.025,2.239,8.145,4.682,12.167,7.269c1.868-3.185,3.328-6.225,4.466-9.017   C277.285,25.402,271.285,22.013,265.663,19.028z"></path><path d="M378.858,185.746c4.69-14.34,8.266-30.042,8.289-44.975v-17.242l-9.226,14.566h0.002c-0.176,0.272-2.433,3.628-6.685,7.286   c-2.935,2.526-6.783,5.186-11.568,7.176c0.536-3.033,1.132-6.774,1.678-10.991c9.111-9.498,15.833-24.895,13.533-48.393   c0,0-0.436,3.952-2.508,10.039c-3.704,10.878-12.645,28.581-33.697,42.771c-3.495,2.355-7.321,4.615-11.516,6.73   c2.77,2.811,12.668,2.719,22.778-2.565c-0.336,1.941-0.652,3.615-0.915,4.942c-0.228,1.15-0.417,2.05-0.548,2.652   c-0.132,0.605-0.198,0.888-0.198,0.89l-1.777,7.603l7.65-1.568c9.467-1.941,16.791-6.216,22.012-10.382   c-2.102,15.183-7.286,31.114-12.734,44.531C369.401,194.516,374.511,190.081,378.858,185.746z"></path><path d="M309.897,50.804c-5.688-6.441-12.994-12.394-20.765-17.738c0.69-4.913,0.668-10.42-0.386-16.573   c0,0-0.074,1.865-0.709,4.997c-1.62,7.998-6.94,24.328-24.204,39.485c-1.27,1.116-2.589,2.227-3.992,3.326   c3.308,2.413,19.524-3.931,26.528-20.939c6.191,4.468,11.804,9.227,16.016,14.042c7.017,7.925,11.601,19.163,14.427,29.754   c2.829-3.504,5.257-6.96,7.331-10.303C321.043,67.701,316.554,58.423,309.897,50.804z"></path><path d="M192.099,279.805c-3.226-4.283-4.671-7.033-4.671-7.033c6.551,23.021,18.659,37.306,31.491,45.718l-3.86,16.083   c-1.594,6.641,2.498,13.314,9.137,14.906c6.639,1.596,13.314-2.492,14.91-9.135l2.972-12.383   c12.665,2.459,22.827,0.257,24.683-3.189c-2.951-0.652-5.801-1.372-8.56-2.146C220.541,312.056,200.409,290.842,192.099,279.805z"></path><path d="M220.311,96.728c-1.958-2.527-2.852-4.167-2.852-4.167c10.753,36.094,44.414,35.186,47.098,30.049   c-1.746-0.363-3.42-0.775-5.054-1.213C237.313,115.46,225.309,103.181,220.311,96.728z"></path><path d="M107.886,283.887c4.309,9.824,9.488,17.751,15.138,24.109c11.586,13.041,25.152,19.457,37.288,21.951   c0.966,0.761,1.928,1.498,2.877,2.185c11.047,7.995,20.713,11.265,21.02,11.375l4.739,1.601l3.199-9.472l-4.736-1.601   c0,0-0.066-0.022-0.298-0.108c-0.863-0.313-3.495-1.333-7.065-3.16c7.421-1.026,12.53-3.552,13.493-6.128   c-3.003-0.245-5.895-0.586-8.727-0.977C131.017,316.228,107.886,283.887,107.886,283.887z"></path><path d="M133.569,173.287c-2.074-4.184-2.885-6.785-2.885-6.785c1.182,12.722,4.668,22.974,9.402,31.151   c-2.779-0.662-5.676-1.022-8.658-1.022c-3.887,0-7.634,0.597-11.156,1.701l-6.739-6.532l1.978,8.399   c-12.61,5.971-21.334,18.807-21.334,33.684c0,1.297,0.067,2.579,0.196,3.842c-5.14,1.463-9.812,4.028-13.747,7.427   c-3.828-3.111-8.708-4.979-14.025-4.979c-12.29,0-22.254,9.965-22.254,22.254c0,0.731,0.038,1.454,0.106,2.168   c-2.314-0.773-4.788-1.199-7.363-1.199c-12.825,0-23.222,10.396-23.222,23.221c0,4.166,1.102,8.071,3.023,11.452   C6.974,302.194,0,311.974,0,323.385c0,13.45,9.69,24.632,22.468,26.962C14.983,345.676,10,337.372,10,327.898   c0-14.603,11.841-26.445,26.447-26.445c1.038,0,2.06,0.066,3.065,0.183c-1.567,4.056-2.436,8.46-2.436,13.069   c0,13.529,7.412,25.321,18.391,31.559c2.395,1.36,4.956,2.455,7.65,3.247c-8.949-6.624-14.752-17.254-14.752-29.241   c0-20.084,16.279-36.363,36.363-36.363c3.402,0,6.691,0.478,9.814,1.352c-3.911-2.818-8.403-4.876-13.266-5.959   c-0.003-0.186-0.014-0.37-0.014-0.557c0-17.189,13.934-31.123,31.122-31.123c0.712,0,1.415,0.032,2.115,0.079   c7.277,16.04,18.066,26.37,28.966,32.632c6.246,3.589,12.528,5.843,18.207,7.071c-2.209,1.223-5.006,2.186-8.389,2.174   c-2.966-0.005-6.525-0.717-10.823-2.826c-0.278-0.137-0.549-0.26-0.833-0.408l-10.095-5.284l2.945,11.007   c0.587,2.19,1.281,4.287,2.047,6.315c0.644,1.705,1.349,3.347,2.102,4.939c4.811,2.575,10.206,5.041,16.206,7.237   c-2.708-3.418-5.175-7.244-7.196-11.525c1.96,0.375,3.846,0.549,5.647,0.547c7.279,0.005,12.914-2.821,16.566-5.566   c3.358-2.52,5.184-4.959,5.642-5.599c3.911-0.408,6.67-1.52,7.664-3.049c-2.295-0.711-4.518-1.461-6.687-2.239l-0.821-0.7   c-0.297,0.027-0.597,0.053-0.905,0.072c-51.251-19.08-66.892-55.941-66.892-55.941c0.715,3.629,1.584,7.053,2.577,10.299   c-1.986-0.337-4.024-0.521-6.106-0.521c-0.656,0-1.309,0.02-1.957,0.054c0.985-5.431,3.145-10.448,6.212-14.785   c-0.074-0.358-0.154-0.706-0.226-1.067c0,0,0.127,0.297,0.388,0.84c2.625-3.654,5.89-6.816,9.639-9.314   c4.782,17.697,13.384,33.241,22.092,45.663c6.88,5.144,15.067,10.17,24.73,14.592c-0.445-0.475-0.9-0.967-1.366-1.475   c-9.678-10.563-23.541-28.153-31.897-49.49c21.058,14.081,43.601,18.212,43.94,18.335l0.224,0.042l10.591,2.01l-5.57-9.494   c0-0.003-0.438-0.747-1.25-2.213c-0.646-1.162-1.523-2.777-2.557-4.744c6.629,1.292,11.731,0.616,13.271-1.294   c-2.427-1.032-4.736-2.114-6.98-3.222C152.857,205.608,138.936,184.11,133.569,173.287z M51.546,264.391   c0-9.762,7.912-17.674,17.673-17.674c2.849,0,5.53,0.689,7.913,1.887c-5.654,6.397-9.092,14.8-9.092,24.01   c0,2.092,0.187,4.139,0.526,6.134c-2.377,0.314-4.68,0.857-6.889,1.608c-0.963-0.456-1.878-0.992-2.735-1.606   c-1.38-3.833-3.741-7.194-6.778-9.79C51.773,267.5,51.546,265.974,51.546,264.391z M27.415,295.971   c-1.482,0-2.937,0.121-4.356,0.348c-1.068-2.333-1.679-4.92-1.679-7.654c0-10.184,8.255-18.439,18.44-18.439   c7.934,0,14.677,5.019,17.279,12.046c-7.262,3.647-13.128,9.656-16.591,17.024C36.619,297.176,32.158,295.971,27.415,295.971z    M129.516,207.049c3.031-0.797,6.211-1.225,9.491-1.225c2.516,0,4.971,0.253,7.347,0.729c5.322,6.264,11.397,10.773,17.322,13.857   c1.149,2.388,2.24,4.582,3.234,6.528C156.913,223.711,141.814,217.51,129.516,207.049z"></path><path d="M325.372,222.439c0,0-0.785,3.005-2.955,7.906c-5.594,12.632-20.397,37.856-54.685,56.682   c-2.513,1.38-5.125,2.727-7.851,4.029c2.052,2.328,9.013,2.713,17.678,0.15l11.795,49.137c1.594,6.643,8.269,10.73,14.91,9.135   c6.637-1.592,10.73-8.266,9.135-14.906l-13.376-55.727C312.829,267.967,324.026,250.035,325.372,222.439z"></path><path d="M216.861,32.082c-0.925-4.173-1.074-6.662-1.074-6.662c-1.478,9.804-1.093,18.394,0.526,25.846   c-8.655,3.661-14.204,10.655-17.261,18.22c-3.321,8.118-4.23,17.036-4.241,25c0.001,2.967,0.133,5.804,0.335,8.416   c-2.46-3.453-4.721-7.357-6.556-11.103c-2.082-4.153-3.729-8.088-4.844-10.961c-0.559-1.435-0.984-2.607-1.27-3.411   c-0.283-0.801-0.411-1.201-0.413-1.201l-3.731-11.479l-5.48,10.755c-3.551,7.027-5.545,15.06-6.583,23.335   c2.432,3.825,5.425,7.918,9.103,12.093c0.2-6.547,0.885-13.048,2.229-18.942c0.628,1.377,1.312,2.815,2.048,4.287   c4.601,9.018,10.843,19.401,20.021,24.831l9.971,5.74l-2.607-11.208c0,0-0.024-0.102-0.081-0.373   c-0.409-1.888-2.149-10.699-2.143-20.779c-0.013-7.162,0.901-14.943,3.489-21.196c2.34-5.563,5.659-9.813,10.999-12.386   c9.767,23.745,32.622,32.216,37.126,28.792c-1.932-1.451-3.748-2.921-5.501-4.398C226.91,65.06,219.254,42.883,216.861,32.082z"></path><path d="M157.497,91.213c-2.072-6.087-2.508-10.039-2.508-10.039c-2.05,20.938,3.065,35.443,10.65,45.076   c0.631,10.524,2.021,19.951,3.146,26.307c-5.014-2.085-9-4.904-11.978-7.533c-2.166-1.911-3.782-3.713-4.831-5.003   c-0.525-0.645-0.907-1.161-1.148-1.499c-0.121-0.17-0.205-0.294-0.254-0.366c-0.018-0.026-0.03-0.047-0.04-0.06h0.001l-9.226-14.56   v17.235c0.027,17.16,4.741,35.337,10.455,51.296c4.459,4.592,9.81,9.291,16.231,13.787c-1.537-3.519-3.098-7.272-4.617-11.209   c-4.828-12.471-9.195-26.719-11.083-40.356c5.223,4.165,12.545,8.438,22.01,10.379l7.653,1.57l-1.78-7.607   c0,0-0.066-0.285-0.198-0.888c-0.576-2.638-2.27-10.949-3.452-21.573c11.201,7.205,23.102,7.672,26.182,4.544   c-4.194-2.115-8.02-4.375-11.516-6.73C170.142,119.794,161.201,102.091,157.497,91.213z"></path></g></svg>
