<svg xmlns="http://www.w3.org/2000/svg" xmlns:xlink="http://www.w3.org/1999/xlink" version="1.1" x="0px" y="0px" viewBox="0 0 100 100" enable-background="new 0 0 100 100" xml:space="preserve"><path d="M82.119,5.542c-0.022-0.296-0.274-0.599-0.665-0.532C67.804,7.442,52.38,15.102,44.128,26.593  c-0.118,0.163,0.044,0.325,0.207,0.325l0.015,0.081c-0.436,0.059-0.577,0.784-0.059,0.902c3.098,0.71,6.145,1.56,9.146,2.581  c-1.568-0.141-3.142-0.266-4.717-0.392c-1.538-0.126-3.46-0.599-4.991-0.318c-2.669,0.495-4.348,4.355-5.309,6.507  c-3.586,8.023-2.825,17.132-0.325,25.34c0,0.007,0,0.007,0,0.007c-0.222,0.865-0.421,1.73-0.577,2.603  c-3.86,0.007-7.712,0.052-11.557,0.266c-0.052,0-0.096,0.022-0.133,0.044c-0.074-0.074-0.177-0.104-0.281-0.03  c-1.42,0.954-2.115,2.573-1.479,4.237c0.569,1.508,2.226,2.655,3.852,2.425c0.311,1.094,0.355,2.24,0.007,3.327  c-0.037,0.126-0.022,0.237,0.03,0.333c-5.886,0.355-11.623,6.381-10.448,12.452c1.383,7.128,10.869,7.889,16.629,7.69  c6.167-0.222,15.727-1.375,18.744-7.734c3.49-7.35-5.102-11.587-10.699-13.346c-0.015-0.007-0.022,0-0.044-0.007  c-0.333-0.799-0.444-1.59-0.163-2.411c1.73,0.525,3.764-0.118,4.717-1.708c0.946-1.59,0.51-3.579-0.791-4.814  c0.104-0.303-0.059-0.695-0.473-0.695c-2.433-0.015-4.873-0.03-7.313-0.03c0.407-1.323,0.858-2.625,1.353-3.911  c0.059-0.007,0.118-0.015,0.185-0.037c8.917-3.941,17.169-9.25,24.356-15.853c3.564-3.276,6.854-6.84,9.827-10.662  c2.662-3.416,5.287-6.84,5.072-11.335c0.104-0.274,0.022-0.621-0.333-0.725c-1.043-0.303-2.092-0.584-3.15-0.85  c1.161,0.074,2.322,0.148,3.483,0.214c0.229,0.015,0.429-0.17,0.495-0.384c1.582-4.888,2.825-9.901,3.239-15.032  C82.666,5.357,82.215,5.283,82.119,5.542z"></path></svg>