<svg fill="#F5D327" xmlns="http://www.w3.org/2000/svg" xmlns:xlink="http://www.w3.org/1999/xlink" version="1.1" x="0px" y="0px" viewBox="0 0 100 100" style="enable-background:new 0 0 100 100;" xml:space="preserve"><path d="M47.8,40.9L29,28l0.5-0.9c0-0.1,1.2-1.9,3.6-3.7c1.4-1.1,3.4-2.2,6.1-2.9l0-0.6c-2.8,0.7-5,2-6.5,3.1  c-2.5,1.8-3.7,3.7-3.7,3.8l-0.8,1.3l19.3,13.3C47.6,41.2,47.7,41.1,47.8,40.9z"></path><path d="M36.4,5.1c0,0,4.4,8.8,4,14.5c0,0,25.9-3.4,29.5,18.1C69.9,37.7,74.4,13.5,36.4,5.1z"></path><path d="M32.3,66.3l-2.6-3.5c0,0,18.8-17.1,19.4-17.6C49.1,45.3,32.3,66.3,32.3,66.3z"></path><path d="M28.2,61.8l-1.8-2.8L48,44.7C48,44.7,28.2,61.8,28.2,61.8z"></path><path d="M52.5,42.1c-0.6-1-1.7-1.5-2.4-1c-0.5,0.3-0.8,1-0.7,1.7c-0.1,0.1-13.6,8.9-16.5,10.8c-0.8,0.5-1.7,1.1-2.5,1.6l-5.7,3.6  l3.2,5.1l0.5-0.4l3.6,4.8l0.6-0.5c0,0,16.7-21.8,17.1-22.3h-0.1L32,67l-2.8-4.2c0,0,6.2-5.5,9.2-8.3c2.5-2.3,11.1-10.2,11.5-10.5  c0.6,0.8,1.5,1.1,2.2,0.7C52.9,44.3,53,43.1,52.5,42.1z M47.9,45.3C44.9,48,28,62.8,28,62.8l-2.3-3.8c0.4-0.2,12.9-8.4,16.2-10.5  c2.3-1.5,7.7-5.1,7.7-5.1l0,0c0.1,0.1,0.1,0.3,0.2,0.4C49.7,43.7,48.4,44.8,47.9,45.3z"></path><path d="M48,88c-9.7,0-21.6-6.3-22.9-7c-1.4-0.7-2.8-1.1-3.9-1.2c1.3-1.4,3.5-2.8,5.3-3.7C33.8,84,42.6,85,49.5,85h0  c0.2,0,0.5,0,0.7,0c6.6,0,11.9-1.8,15.2-3.4c3-1.4,5.7-3.2,7.1-4.8c1.1,0.2,3.2,0.7,5.3,1.8c-0.9,0.4-1.8,0.8-2.5,1.3  c-5.2,3.3-10.9,5.6-17,6.9c-4.7,1-7.9,1-8.3,1l-0.1,0l-0.1,0C49.3,88,48.7,88,48,88z"></path><path d="M76,82.2c0,0-7.1,3.5-13.5,5.8c-12.1,3.4-15.3,2.8-23.2,1.3c-8.9-1.8-15.6-6.5-15.6-6.5c-1.3-0.5-7.9,8.6-7.9,8.6  c4-1.5,27.1,4.2,27.1,4.2c3.2,0.7,9,1.1,14.2-0.5s6.5-1.3,13.2-4.2c3.9-1.7,8.3-2,11.2-1.9l0,0h0c1.2,0,2.4,0.1,3,0.2  C86.8,89.7,76,82.2,76,82.2z"></path><polygon points="41,47.4 38.5,43.8 39.3,40.7 36.2,39.6 34.9,44 38.3,49.2 "></polygon><polygon points="31.5,38 29.7,37.3 27,44.7 32,53.2 33.9,52 29.7,44.7 "></polygon><polygon points="37,50 33.6,44.6 35,39.2 32.5,38.3 30.7,44.3 35,51.3 "></polygon><polygon points="40.6,41.2 39.9,43.7 42.1,46.7 47.1,43.5 "></polygon><polygon points="29.7,54.8 31.3,53.7 31.3,53.7 26.1,44.7 28.8,37 27.1,36.4 23.9,44.8 "></polygon><g><polygon points="26.7,56.6 19.9,45.1 24,35.3 23.1,35 18.7,45.1 26,57.1 26.8,56.6  "></polygon><polygon points="27.4,56.2 27.4,56.2 28.5,55.5 22.5,45 26.1,36 24.6,35.5 20.6,45.2  "></polygon></g><polygon points="24.2,31 23.4,33.4 47.6,42.2 "></polygon><g><polygon points="22.4,33.9 23.7,29.8 25.7,30.8 27.7,26.7 27.3,26.4 25.4,30.3 23.3,29.2 21.8,33.7  "></polygon></g><polygon points="26.8,30.6 28.3,27.7 47.1,40.7 "></polygon><path d="M49.6,45.4"></path><path d="M65.9,54c0,0,4.8-9.4,0.3-20.6c-2.8-6.7-9.8-9.5-9.8-9.5c-18.1-8.6-25.9,3.7-25.9,3.7l18,12.4c0,0,0.1,0,0.2-0.1  c0.1-0.1,0.2-0.2,0.4-0.3c1.9-1.3,4.4-1.1,5.6,0.6c0.4,0.6,0.6,1.4,0.6,2.1c0,0.2-0.1,1-0.3,1.2c-0.3,0.8-0.9,1.6-1.7,2.1  c-0.4,0.3-0.8,0.5-1.3,0.6c-1.4,0.6-2.4,0.4-2.4,0.4L35.5,65c1.5,5.4-5.8,11-5.8,11s9.4,7.2,20.7,6.8c12.6-0.9,17.9-5.2,17.9-5.2  C62.3,72,61.2,63,65.9,54z"></path><path d="M53.7,40.9c-0.5-0.7-1.3-1.2-2.3-1.2c-0.7,0-1.5,0.3-2.2,0.7c-0.7,0.5-1.2,1.1-1.4,1.8l0.5,0.2c0.2-0.6,0.6-1.1,1.2-1.6  c0.6-0.4,1.2-0.6,1.9-0.6c0.8,0,1.5,0.3,1.9,1c0.4,0.5,0.4,1.2,0.3,1.9c-0.2,0.7-0.7,1.4-1.3,1.9c-0.6,0.4-1.2,0.6-1.9,0.6  c-0.3,0-0.5,0-0.7-0.1l-0.3,0.4c0.3,0.1,0.7,0.2,1.1,0.2c0.7,0,1.5-0.3,2.2-0.7C54.1,44.2,54.6,42.2,53.7,40.9z"></path><polygon points="29,28 48.8,41.5 48.5,41.9 26.8,30.6 "></polygon><line x1="71.3" y1="38.4" x2="69.3" y2="48.2"></line><path d="M69.4,47.9"></path><path d="M85.6,87.4c-0.7-0.7-2-1.8-4.4-3.6c-1.7-1.3-3.4-2.5-4.2-3c2.2-1.1,4.5-1.5,4.5-1.5c-4.3-3.7-9.7-4.1-9.7-4.1  c-0.3,0.5-1,1.2-1.9,1.9l-0.6-0.6c-5.5-5.2-6.3-13.5-2-21.7c0.1-0.1,1.4-2.9,2.1-6.9l2-9.5l0,0l0.1-0.4c0.1-0.3,1.2-6.7-2.6-14.2  c-2.2-4.4-5.7-8.2-10.2-11.4c-5.6-3.9-13-6.9-21.8-8.9l-3.2-0.7l1.5,3c0,0.1,4.2,8.5,3.8,13.7l0,0.6l0.5-0.1  c0.4-5.3-3.8-14.3-3.9-14.4l-1-2L36.6,4c8.8,2,16.1,4.9,21.6,8.8c4.5,3.2,7.9,6.9,10.1,11.2c3.7,7.3,2.6,13.6,2.6,13.8l-1.6,8.5  c-0.7,3.9-2.4,8-2.4,8.1c-4.4,8.4-3.6,17,2.1,22.3l0.9,0.8l-0.9,0.8c-0.2,0.2-5.6,4.5-18.4,5.5l0,0c-0.3,0-0.7,0-1,0  c-5.8,0-11.1-1.9-14.4-3.5c-3.6-1.7-5.9-3.5-6-3.5L27.9,76l1.1-0.8c0.1-0.1,6.8-5.3,5.5-9.9l-0.1-0.5L49,46.3c0,0-0.1,0-0.1-0.1  l-14,17.6L34,65.4c1.2,4.3-5.2,9.3-5.3,9.4L28,75.3c-0.4-0.4-0.8-0.8-1.1-1.2c0,0-7.7,3.5-8.3,7.2c0,0,1.7-0.2,3.7,0.4  c-0.9,0.5-2.1,1.8-4.3,4.5c-1.7,2.2-3.3,4.3-3.3,4.4l-3,4.2l4.8-1.8c0.1,0,0.5-0.1,1.5-0.1c6.7,0,24.5,4.3,24.7,4.4l0,0  c1.8,0.4,4.2,0.7,6.5,0.7c3,0,6-0.4,8.5-1.2c1.6-0.5,2.8-0.8,3.9-1.1c2.5-0.6,4.7-1.2,9.4-3.2c3.4-1.5,7.3-1.8,9.9-1.8  c2.2,0,3.8,0.2,3.8,0.2l0.9,0.1l3,1C88.6,91.9,87.9,89.4,85.6,87.4z M20.1,80.2c1.2-1.8,4.2-3.7,6.5-4.8c7.2,8,16,9.1,22.9,9.1h0  c0.2,0,0.5,0,0.7,0c0,0,0,0,0,0c6.5,0,11.7-1.8,15-3.3c0.1-0.1,0.2-0.1,0.4-0.2c1.7-0.8,2.8-1.5,3.3-1.8c1.6-1,2.8-2,3.5-2.8  c1.2,0.2,4,0.8,6.8,2.5c-1,0.3-2.3,0.8-3.5,1.6c-5.2,3.3-11,5.7-17.1,7c-4.7,1-8,1.1-8.4,1.1l-0.1,0l-0.1,0c-0.6,0.1-1.3,0.1-2,0.1  c-9.9,0-21.9-6.3-23.2-7C23.1,80.6,21.3,80.3,20.1,80.2z M85.1,89.8L85.1,89.8l-0.3,0c0,0-1.6-0.2-3.9-0.2c-2.7,0-6.7,0.3-10.3,1.9  c-4.6,2-6.8,2.5-9.3,3.2c-1.2,0.3-2.4,0.6-4,1.1c-2.4,0.7-5.3,1.1-8.2,1.1c-2.3,0-4.5-0.2-6.3-0.6l0,0c-0.7-0.2-18.1-4.4-24.9-4.4  c-0.9,0-1.5,0.1-1.9,0.2l-1.6,0.6l1-1.4c0.1-0.1,1.6-2.2,3.3-4.3c3.6-4.5,4.5-4.5,4.9-4.5c0.1,0,0.2,0,0.3,0.1l0.1,0l0.1,0  c0,0,0.4,0.2,1.2,0.5c4,2.1,15.8,7.5,24.9,6.6c0,0,5.3,0.1,12.7-2.1c9.5-3.5,12-5.3,12.6-5.8l0.1-0.1l0.3-0.4l0.3,0.3l0,0l0,0  c0,0,2.3,1.6,4.5,3.2c0.1,0.1,0.3,0.2,0.4,0.3c1.9,1.5,3.2,2.5,3.8,3.2l0,0l0,0c0.7,0.6,1.3,1.4,1.7,2l-0.8-0.3L85.1,89.8z"></path><path d="M69.2,37.9"></path></svg>