<svg fill="#164F86" xmlns="http://www.w3.org/2000/svg" xmlns:xlink="http://www.w3.org/1999/xlink" viewBox="0 0 100 100" version="1.1" x="0px" y="0px"><title>yoga-man</title><desc>Created with Sketch.</desc><g stroke="none" stroke-width="1" fill="none" fill-rule="evenodd"><g fill="#164F86"><path d="M50.4533799,89.7464621 C50.4533799,89.7464621 52.5915872,90.6027427 53.5144912,90.7859097 C54.4373951,90.9690768 57.7445985,91.1583602 59.2260194,90.7859097 C60.7074403,90.4134593 64.4784717,89.0089979 67.3143047,87.9003902 C69.3447396,87.1066689 71.3002542,86.1471388 73.2679733,85.2315617 C77.2682502,83.3703049 84.2101625,80.1483975 85.157614,79.4274643 C86.1050655,78.7065311 87.0024292,76.9581553 87.6491799,75.9197821 C88.1317847,75.1449489 88.0147651,73.0360269 87.7851315,72.3197729 C87.5170193,71.4833639 87.5536403,71.3831921 88.3640805,70.9861614 C88.5433822,70.8983197 88.7554129,70.8677069 88.9555904,70.8244239 C89.5442697,70.6972958 90.1303837,70.5520552 90.7251665,70.4597917 C91.673953,70.3125953 92.5102225,69.9588476 93.296691,69.4222737 C94.377101,68.6851861 94.9659572,65.7953349 94.99904,64.6681095 C95.0330507,63.5092682 94.1563131,62.8645918 93.4965146,62.1417052 C93.2635197,61.8865137 92.9547174,61.6699283 92.6384847,61.5152487 C91.8621004,61.1356503 91.8674078,61.1705999 91.208317,61.7367662 C90.3791239,62.4491084 89.7033148,63.3461478 88.6279468,63.7686892 C87.2423612,64.3131714 86.1245341,65.1670978 85.3107325,66.3832754 C85.176013,66.5846394 85.0204176,66.7837925 84.833774,66.9386421 C84.7147998,67.0373683 84.5113494,67.1158561 84.3618576,67.0952775 C83.1867989,66.9336251 82.1810463,66.473413 81.463751,65.5184644 C81.3101018,65.313869 81.0985134,65.1493254 80.9119582,64.9679447 C79.2059825,63.3096676 77.631188,61.5085309 75.4585148,60.3583409 C75.3448479,60.2981357 75.2462187,60.157317 75.2044672,60.0340155 C74.5911969,58.2197834 73.9648351,56.4091227 73.3898666,54.5834958 C72.7198072,52.4559928 72.4076435,50.2895437 72.5952602,48.0518348 C72.7470519,46.2421095 72.617109,44.4408878 72.2173732,42.6487648 C71.9834053,41.5995119 71.7316575,40.6007701 71.0653133,39.711639 C70.5673906,39.0473418 70.1786234,38.3082983 69.7069723,37.6243579 C69.554473,37.4032656 69.3234241,37.1922075 69.0774261,37.0767293 C64.9119121,35.1209981 60.7376408,33.1824441 56.5687655,31.2334307 C56.3769914,31.1438033 56.1833597,31.0188861 56.0480209,30.8641215 C55.6880907,30.4523797 55.346294,30.024141 55.0267,29.5828918 C54.9309014,29.4505766 54.8677433,29.2418145 54.8982609,29.0879853 C55.2431535,27.3509653 55.6357243,25.6221938 55.9535492,23.8808371 C56.049967,23.3527667 55.9386885,23.0691733 56.4844663,23.0194276 C56.8275013,22.9882195 56.9607171,22.7944237 57.0397974,22.4774964 C57.2802226,21.5150647 57.5697414,20.5641979 57.8209584,19.6041472 C57.8838511,19.3638369 57.8856202,19.1065195 57.8968542,18.8562601 C57.9381635,17.9388972 57.9472745,17.214735 57.0397974,16.7850507 C56.897559,16.7177026 56.745325,16.5097908 56.73931,16.3614889 C56.6799555,14.9137597 56.1337462,13.2163857 55.5160036,11.906903 C54.8982609,10.5974202 53.0602576,9.6497097 52.6505048,9.46884676 C52.240752,9.28798383 50.9892589,9 50.000384,9 C49.0115092,9 47.5956028,9.37008711 47.2153367,9.46884676 C46.8350706,9.56760642 45.1850696,10.5264913 44.3146177,11.906903 C43.4441659,13.2873147 43.3208125,14.9137597 43.2614581,16.3614889 C43.255443,16.5097908 43.1032091,16.7177026 42.9609707,16.7850507 C42.0534935,17.214735 41.7382339,17.9388972 41.7795432,18.8562601 C41.7907772,19.1065195 41.7925463,19.3638369 41.855439,19.6041472 C42.106656,20.5641979 42.3961748,21.5150647 42.6366,22.4774964 C42.7156803,22.7944237 42.8488961,22.9882195 43.1919311,23.0194276 C43.7377089,23.0691733 43.9508011,23.3527667 44.0472189,23.8808371 C44.3650438,25.6221938 44.7576146,27.3509653 45.1025072,29.0879853 C45.1330248,29.2418145 45.0698667,29.4505766 44.9740681,29.5828918 C44.6544741,30.024141 44.3126774,30.4523797 43.9527471,30.8641215 C43.8174084,31.0188861 43.6237767,31.1438033 43.4320026,31.2334307 C39.2631272,33.1824441 35.088856,35.1209981 30.923342,37.0767293 C30.677344,37.1922075 30.4462951,37.4032656 30.2937958,37.6243579 C29.8221447,38.3082983 29.4333775,39.0473418 28.9354548,39.711639 C28.2691106,40.6007701 28.0173628,41.5995119 27.7833949,42.6487648 C27.3836591,44.4408878 27.2537162,46.2421095 27.4055079,48.0518348 C27.5931245,50.2895437 27.2809609,52.4559928 26.6109015,54.5834958 C26.035933,56.4091227 25.4095711,58.2197834 24.7963009,60.0340155 C24.7545494,60.157317 24.6559201,60.2981357 24.5422533,60.3583409 C22.3695801,61.5085309 20.7947856,63.3096676 19.0888099,64.9679447 C18.9022547,65.1493254 18.6906663,65.313869 18.537017,65.5184644 C17.8197217,66.473413 16.8139692,66.9336251 15.6389105,67.0952775 C15.4894187,67.1158561 15.2859683,67.0373683 15.1669941,66.9386421 C14.9803504,66.7837925 14.8247551,66.5846394 14.6900356,66.3832754 C13.876234,65.1670978 12.7584068,64.3131714 11.3728212,63.7686892 C10.2974533,63.3461478 9.62164414,62.4491084 8.79245113,61.7367662 C8.13336033,61.1705999 8.13866773,61.1356503 7.36228336,61.5152487 C7.04605069,61.6699283 6.73724838,61.8865137 6.50425346,62.1417052 C5.84445501,62.8645918 5.03481092,63.5092459 5.00172812,64.6681095 C4.96158096,66.0744318 5.62366711,68.6851861 6.70407713,69.4222737 C7.49054556,69.9588476 8.32681511,70.3125953 9.27560157,70.4597917 C9.87038436,70.5520552 10.4564984,70.6972958 11.0451777,70.8244239 C11.2453551,70.8677069 11.4573858,70.8983197 11.6366875,70.9861614 C12.4471277,71.3831921 12.4837488,71.4833639 12.2156366,72.3197729 C11.986003,73.0360269 11.8803275,74.6633496 12.3230303,75.8739116 C12.7657332,77.0844737 13.9777088,78.7767425 14.8431541,79.4274643 C15.7085995,80.0781861 22.7325179,83.3703049 26.7327948,85.2315617 C28.7005139,86.1471388 30.4245489,87.1066689 32.4549838,87.9003902 C35.2908355,89.0089585 40.1270837,90.5508178 41.7795432,90.7859097 C43.4320026,91.0210017 45.207346,91.013618 46.6590796,90.7859097 C47.9390629,90.585141 50.4533799,89.7464621 50.4533799,89.7464621 Z M64.8674869,56.3916054 C64.8239662,56.5052128 64.7677077,56.6158439 64.7387824,56.7328528 C63.7435562,60.7642153 62.7494799,64.7959179 61.7627455,68.8293212 C61.7202863,69.0027936 61.7245322,69.1959092 61.7508038,69.3738885 C61.8210385,69.8499172 61.9061338,70.3244152 62.0022862,70.7963622 C62.1176337,71.3629536 62.1824725,71.9514842 62.3949455,72.4841465 C62.6137873,73.0329656 62.9677025,73.5359505 63.2989728,74.0367245 C63.3861027,74.1685295 63.608129,74.2937868 63.7679702,74.2934467 C65.1677973,74.2907255 66.5678014,74.2651298 67.9672747,74.2300102 C68.2266297,74.2235475 68.495538,74.1755024 68.7405631,74.093018 C72.3215552,72.8871297 75.899363,71.6723127 79.4774361,70.458261 C79.5928721,70.4191447 79.7032661,70.3663377 79.8752259,70.2955031 C79.6822134,70.201709 79.5566049,70.1351262 79.4264851,70.0784075 C77.0551381,69.044376 74.6873294,68.0028613 72.3091713,66.9836259 C71.6038177,66.6813248 70.956757,66.3240907 70.3907226,65.8065647 C69.6224763,65.1040015 68.8042519,64.4521194 68.0162797,63.7691144 C67.8909365,63.660439 67.7771812,63.5152834 67.7166769,63.3651958 C67.0631588,61.743654 66.4168058,60.1193911 65.7785023,58.4922371 C65.5048173,57.7946059 65.2547503,57.0883862 64.9938915,56.3860781 C64.9517861,56.3879488 64.9095923,56.3897346 64.8674869,56.3916054 Z M34.6193279,56.3860781 C34.6614333,56.3879488 34.7036271,56.3897346 34.7457325,56.3916054 C34.7892532,56.5052128 34.8455117,56.6158439 34.874437,56.7328528 C35.8696632,60.7642153 36.8637395,64.7959179 37.8504739,68.8293212 C37.8929331,69.0027936 37.8886872,69.1959092 37.8624156,69.3738885 C37.7921809,69.8499172 37.7070856,70.3244152 37.6109332,70.7963622 C37.4955857,71.3629536 37.4307469,71.9514842 37.2182739,72.4841465 C36.9994321,73.0329656 36.6455169,73.5359505 36.3142466,74.0367245 C36.2271167,74.1685295 36.0050904,74.2937868 35.8452492,74.2934467 C34.4454221,74.2907255 33.045418,74.2651298 31.6459447,74.2300102 C31.3865897,74.2235475 31.1176814,74.1755024 30.8726563,74.093018 C27.2916641,72.8871297 23.7138564,71.6723127 20.1357833,70.458261 C20.0203473,70.4191447 19.9099533,70.3663377 19.7379935,70.2955031 C19.931006,70.201709 20.0566145,70.1351262 20.1867343,70.0784075 C22.5580813,69.044376 24.92589,68.0028613 27.3040481,66.9836259 C28.0094017,66.6813248 28.6564624,66.3240907 29.2224968,65.8065647 C29.9907431,65.1040015 30.8089675,64.4521194 31.5969397,63.7691144 C31.7222828,63.660439 31.8360382,63.5152834 31.8965425,63.3651958 C32.5500606,61.743654 33.1964136,60.1193911 33.8347171,58.4922371 C34.1084021,57.7946059 34.3584691,57.0883862 34.6193279,56.3860781 Z"></path></g></g></svg>