<svg fill="#999999" xmlns="http://www.w3.org/2000/svg" xmlns:xlink="http://www.w3.org/1999/xlink" viewBox="0 0 84 84" version="1.1" xml:space="preserve" style="" x="0px" y="0px" fill-rule="evenodd" clip-rule="evenodd" stroke-linejoin="round" stroke-miterlimit="1.41421"><path d="M21.084,23.687L21.204,22.312C22.495,22.305 23.789,22.143 25.012,21.716C25.678,21.484 26.317,21.176 26.907,20.79C27.279,20.547 27.631,20.273 27.958,19.973C28.19,19.762 28.409,19.537 28.615,19.301C30.067,17.639 30.829,15.482 31.153,13.325C31.207,12.961 31.25,12.594 31.281,12.227C31.339,11.526 31.358,10.82 31.321,10.117C31.317,10.057 31.315,9.998 31.306,9.939C31.28,9.838 31.221,9.755 31.123,9.713C31.093,9.7 31.084,9.699 31.051,9.692C31.014,9.688 31.014,9.688 30.976,9.688C30.938,9.694 30.902,9.701 30.867,9.717C30.787,9.755 30.725,9.827 30.7,9.912C30.691,9.944 30.691,9.953 30.688,9.986L30.688,10.024C30.716,10.382 30.719,10.743 30.712,11.102C30.704,11.573 30.675,12.044 30.626,12.512C30.592,12.838 30.549,13.162 30.495,13.484C30.181,15.36 29.517,17.229 28.296,18.711C28.129,18.913 27.953,19.107 27.767,19.292C27.519,19.539 27.254,19.769 26.974,19.98C26.54,20.307 26.07,20.586 25.577,20.815C24.773,21.188 23.911,21.426 23.035,21.556C22.583,21.624 22.128,21.661 21.671,21.679C21.549,21.683 21.427,21.686 21.306,21.687C21.286,21.687 21.271,21.687 21.258,21.687L22.32,9.503C22.33,9.506 22.34,9.509 22.35,9.511C22.373,9.517 22.397,9.517 22.42,9.519L23.045,9.519C23.068,9.517 23.092,9.517 23.115,9.511C23.16,9.501 23.203,9.48 23.24,9.451C23.373,9.345 23.395,9.145 23.289,9.012C23.26,8.975 23.223,8.946 23.181,8.925C23.16,8.915 23.137,8.91 23.115,8.902L23.045,8.894L22.42,8.894C22.404,8.896 22.388,8.897 22.372,8.898L22.773,4.3L22.773,3.5L30.688,3.5C30.632,5.007 30.632,6.517 30.688,8.023C30.697,8.102 30.728,8.174 30.787,8.229C30.932,8.363 31.172,8.327 31.271,8.156C31.295,8.115 31.306,8.071 31.312,8.023C31.368,6.517 31.368,5.007 31.312,3.5L43.687,3.5L43.687,8.894L43.67,8.894C43.647,8.897 43.623,8.897 43.6,8.902C43.555,8.913 43.512,8.933 43.475,8.962C43.321,9.086 43.321,9.328 43.475,9.451C43.512,9.48 43.555,9.501 43.6,9.511C43.623,9.517 43.647,9.517 43.67,9.519L43.687,9.519L43.687,11.01L43.696,11.142C43.781,12.664 43.805,14.193 43.749,15.718C43.725,16.395 43.684,17.072 43.614,17.746C43.561,18.259 43.491,18.771 43.392,19.277C43.319,19.646 43.231,20.013 43.11,20.37C43.022,20.628 42.918,20.883 42.777,21.116C42.624,21.368 42.411,21.625 42.106,21.679C42.054,21.687 42.001,21.687 41.949,21.692C41.87,21.711 41.803,21.744 41.753,21.809C41.716,21.857 41.696,21.912 41.69,21.968L39.772,21.968L34.915,77.722C34.889,77.707 34.861,77.695 34.832,77.684L34.781,77.675L34.159,77.617C34.141,77.617 34.124,77.617 34.107,77.617C34.054,77.625 34.007,77.636 33.961,77.665C33.792,77.773 33.769,78.019 33.916,78.156C33.969,78.206 34.03,78.227 34.101,78.24L34.723,78.298C34.774,78.298 34.819,78.296 34.866,78.277L34.579,81.57L16.181,79.967L16.482,76.521C16.485,76.524 16.488,76.527 16.491,76.53C16.545,76.58 16.606,76.601 16.676,76.613L17.299,76.672C17.352,76.672 17.4,76.669 17.45,76.648C17.635,76.569 17.698,76.33 17.576,76.171C17.532,76.113 17.475,76.082 17.407,76.058L17.357,76.049L16.734,75.991C16.717,75.991 16.7,75.991 16.683,75.991C16.63,75.999 16.583,76.009 16.537,76.039C16.532,76.042 16.527,76.045 16.523,76.049L21.03,24.312C21.501,24.31 21.972,24.291 22.442,24.249C23.463,24.156 24.477,23.956 25.447,23.62C26.193,23.362 26.912,23.023 27.583,22.604C28.028,22.326 28.451,22.012 28.848,21.668C29.98,20.685 30.877,19.459 31.547,18.122C32.17,16.88 32.603,15.547 32.89,14.189C32.981,13.755 33.058,13.317 33.121,12.877C33.249,11.976 33.322,11.064 33.316,10.153C33.315,10.085 33.315,10.018 33.308,9.95C33.3,9.914 33.3,9.905 33.285,9.872C33.251,9.797 33.188,9.737 33.111,9.708C33.076,9.695 33.067,9.695 33.031,9.689C32.99,9.688 32.991,9.688 32.95,9.692C32.914,9.7 32.905,9.7 32.872,9.715C32.796,9.749 32.737,9.812 32.708,9.889C32.695,9.924 32.695,9.933 32.689,9.969L32.688,10.01C32.701,10.43 32.684,10.853 32.658,11.272C32.617,11.917 32.544,12.559 32.44,13.197C32.376,13.587 32.3,13.975 32.212,14.36C31.716,16.53 30.813,18.659 29.316,20.331C29.106,20.566 28.884,20.791 28.653,21.004C28.343,21.29 28.014,21.555 27.669,21.798C27.134,22.173 26.56,22.492 25.96,22.751C25.067,23.137 24.121,23.39 23.16,23.534C22.632,23.613 22.101,23.656 21.568,23.678C21.427,23.682 21.286,23.686 21.144,23.687C21.118,23.687 21.1,23.687 21.084,23.687ZM61.452,24.311L65.972,76.2C65.966,76.246 65.97,76.293 65.984,76.337L66.3,79.967L47.902,81.57L47.617,78.298C47.625,78.298 47.632,78.298 47.64,78.298L48.262,78.24C48.315,78.23 48.362,78.219 48.407,78.188C48.557,78.088 48.59,77.875 48.478,77.734C48.432,77.677 48.375,77.647 48.307,77.625C48.29,77.622 48.273,77.619 48.256,77.617L48.204,77.617L47.582,77.675C47.576,77.676 47.569,77.677 47.563,77.678L42.721,22.091C43.013,21.895 43.235,21.593 43.4,21.284C43.474,21.144 43.539,21 43.597,20.854C43.673,20.663 43.738,20.468 43.796,20.271C43.935,19.792 44.032,19.3 44.108,18.807C44.199,18.221 44.26,17.63 44.304,17.038C44.41,15.599 44.419,14.153 44.385,12.711C44.375,12.376 44.364,12.042 44.35,11.708C44.339,11.469 44.327,11.23 44.312,10.99L44.312,9.518C44.33,9.516 44.347,9.515 44.365,9.511C44.41,9.501 44.453,9.48 44.49,9.451C44.623,9.345 44.645,9.145 44.539,9.012C44.51,8.975 44.473,8.946 44.431,8.925C44.41,8.915 44.387,8.91 44.365,8.902L44.312,8.896L44.312,3.5L50.688,3.5C50.632,5.007 50.632,6.517 50.688,8.023C50.697,8.102 50.728,8.174 50.787,8.229C50.932,8.363 51.172,8.327 51.271,8.156C51.295,8.115 51.306,8.071 51.312,8.023C51.368,6.517 51.368,5.007 51.312,3.5L59.708,3.5L59.708,4.3L60.109,8.894L59.92,8.894C59.897,8.897 59.873,8.897 59.85,8.902C59.805,8.913 59.762,8.933 59.725,8.962C59.571,9.086 59.571,9.328 59.725,9.451C59.762,9.48 59.805,9.501 59.85,9.511C59.873,9.517 59.897,9.517 59.92,9.519L60.163,9.519L61.229,21.762C61.183,21.723 61.127,21.701 61.066,21.69L61.028,21.688C59.863,21.682 58.695,21.548 57.583,21.187C56.954,20.983 56.348,20.708 55.787,20.358C55.436,20.14 55.103,19.892 54.792,19.62C54.573,19.427 54.365,19.222 54.168,19.007C52.758,17.454 52.018,15.403 51.693,13.358C51.625,12.93 51.574,12.499 51.542,12.067C51.501,11.515 51.486,10.962 51.5,10.409C51.503,10.324 51.506,10.238 51.511,10.153C51.515,10.097 51.52,10.042 51.521,9.986C51.517,9.948 51.511,9.912 51.496,9.877C51.461,9.795 51.391,9.731 51.306,9.703C51.274,9.693 51.266,9.693 51.233,9.688C51.194,9.688 51.195,9.688 51.157,9.692C51.056,9.715 50.971,9.771 50.926,9.867C50.911,9.897 50.911,9.906 50.902,9.939C50.897,9.976 50.897,9.975 50.894,10.012C50.845,10.788 50.868,11.569 50.938,12.342C50.972,12.714 51.017,13.086 51.076,13.456C51.406,15.54 52.151,17.617 53.538,19.237C53.742,19.474 53.958,19.701 54.186,19.915C54.51,20.217 54.858,20.493 55.226,20.74C55.753,21.093 56.321,21.384 56.912,21.612C57.719,21.923 58.568,22.118 59.426,22.221C59.872,22.274 60.32,22.3 60.769,22.31C60.867,22.312 60.966,22.316 61.063,22.31C61.114,22.301 61.16,22.287 61.203,22.258C61.228,22.241 61.25,22.221 61.268,22.199L61.397,23.687C60.992,23.685 60.586,23.671 60.182,23.638C59.241,23.561 58.306,23.391 57.406,23.101C56.659,22.86 55.939,22.536 55.269,22.127C54.847,21.87 54.445,21.579 54.069,21.259C53.803,21.033 53.549,20.792 53.309,20.538C51.809,18.954 50.871,16.915 50.333,14.819C50.244,14.47 50.165,14.119 50.096,13.766C50.008,13.314 49.937,12.858 49.881,12.401C49.802,11.757 49.756,11.11 49.744,10.461C49.743,10.361 49.742,10.261 49.743,10.161C49.744,10.097 49.747,10.033 49.745,9.969C49.739,9.933 49.739,9.923 49.726,9.889C49.697,9.812 49.638,9.749 49.563,9.715C49.529,9.7 49.52,9.7 49.484,9.692C49.443,9.688 49.444,9.688 49.403,9.689C49.367,9.695 49.358,9.695 49.323,9.708C49.246,9.737 49.183,9.797 49.149,9.872C49.134,9.905 49.134,9.914 49.126,9.95L49.122,9.99C49.108,10.431 49.125,10.872 49.153,11.312C49.195,11.977 49.27,12.64 49.378,13.298C49.443,13.7 49.522,14.101 49.613,14.499C50.14,16.804 51.113,19.06 52.719,20.822C52.946,21.07 53.184,21.307 53.433,21.533C53.794,21.858 54.178,22.159 54.581,22.429C55.165,22.82 55.788,23.149 56.439,23.414C57.443,23.823 58.506,24.077 59.582,24.206C60.147,24.273 60.716,24.304 61.285,24.312C61.375,24.312 61.383,24.315 61.452,24.311ZM32.914,77.501L33.536,77.559L33.587,77.568C33.655,77.592 33.712,77.623 33.756,77.681C33.877,77.84 33.814,78.079 33.63,78.158C33.58,78.179 33.532,78.182 33.478,78.181L32.856,78.123C32.803,78.114 32.757,78.102 32.711,78.072C32.545,77.961 32.527,77.714 32.676,77.58C32.73,77.531 32.792,77.512 32.862,77.501C32.88,77.501 32.897,77.501 32.914,77.501ZM49.552,77.509C49.619,77.531 49.677,77.56 49.723,77.618C49.835,77.759 49.801,77.972 49.652,78.072C49.606,78.102 49.56,78.114 49.507,78.123L48.885,78.181C48.831,78.182 48.783,78.179 48.733,78.158C48.549,78.079 48.486,77.84 48.607,77.681C48.649,77.626 48.709,77.586 48.776,77.568C48.792,77.564 48.81,77.562 48.827,77.559L49.449,77.501L49.501,77.501C49.518,77.503 49.535,77.506 49.552,77.509ZM50.796,77.392C50.847,77.409 50.891,77.427 50.932,77.464C51.066,77.585 51.068,77.8 50.937,77.924C50.883,77.974 50.822,77.995 50.752,78.007L50.129,78.065C50.112,78.065 50.095,78.067 50.078,78.066C50.009,78.061 49.942,78.033 49.891,77.986C49.742,77.852 49.76,77.606 49.927,77.494C49.972,77.464 50.018,77.452 50.071,77.443L50.694,77.385L50.745,77.384C50.762,77.387 50.779,77.39 50.796,77.392ZM31.669,77.385L32.292,77.443L32.343,77.452C32.393,77.47 32.437,77.489 32.477,77.526C32.623,77.664 32.6,77.91 32.431,78.018C32.369,78.057 32.305,78.066 32.234,78.065L31.611,78.007C31.558,77.998 31.512,77.986 31.467,77.956C31.3,77.845 31.282,77.598 31.431,77.464C31.486,77.415 31.547,77.395 31.618,77.384C31.635,77.385 31.652,77.385 31.669,77.385ZM52.041,77.276C52.109,77.299 52.166,77.328 52.212,77.385C52.324,77.526 52.291,77.74 52.141,77.84C52.095,77.87 52.049,77.882 51.996,77.891L51.374,77.949C51.32,77.95 51.273,77.947 51.222,77.925C51.038,77.847 50.975,77.608 51.096,77.449C51.138,77.394 51.198,77.354 51.265,77.336C51.282,77.331 51.299,77.33 51.316,77.327L51.938,77.269L51.99,77.268C52.007,77.271 52.024,77.274 52.041,77.276ZM30.425,77.269L31.047,77.327L31.098,77.336C31.149,77.354 31.192,77.373 31.232,77.41C31.378,77.548 31.355,77.793 31.186,77.901C31.125,77.941 31.061,77.95 30.989,77.949L30.367,77.891C30.314,77.882 30.268,77.87 30.222,77.84C30.055,77.728 30.038,77.482 30.187,77.348C30.241,77.299 30.303,77.279 30.373,77.268C30.39,77.268 30.408,77.269 30.425,77.269ZM53.285,77.16C53.336,77.177 53.38,77.195 53.421,77.232C53.555,77.352 53.557,77.568 53.426,77.691C53.372,77.742 53.311,77.762 53.241,77.775L52.619,77.833C52.601,77.833 52.584,77.835 52.567,77.834C52.498,77.829 52.432,77.8 52.38,77.754C52.231,77.62 52.249,77.373 52.416,77.262C52.461,77.232 52.508,77.22 52.56,77.211L53.183,77.153L53.234,77.152C53.251,77.155 53.268,77.157 53.285,77.16ZM29.18,77.153L29.803,77.211L29.853,77.22C29.921,77.244 29.978,77.274 30.022,77.332C30.144,77.492 30.08,77.731 29.896,77.809C29.846,77.831 29.798,77.834 29.744,77.833L29.122,77.775C29.052,77.762 28.991,77.742 28.937,77.691C28.791,77.554 28.814,77.308 28.983,77.2C29.029,77.171 29.076,77.16 29.129,77.152C29.146,77.152 29.163,77.152 29.18,77.153ZM54.53,77.044C54.581,77.061 54.625,77.079 54.666,77.116C54.799,77.236 54.802,77.452 54.67,77.575C54.617,77.625 54.556,77.646 54.485,77.659L53.863,77.717C53.809,77.717 53.762,77.715 53.712,77.693C53.527,77.615 53.464,77.376 53.585,77.216C53.627,77.161 53.687,77.121 53.754,77.104C53.771,77.099 53.788,77.098 53.805,77.095L54.427,77.036L54.479,77.036C54.496,77.039 54.513,77.041 54.53,77.044ZM27.936,77.036L28.558,77.095L28.609,77.104C28.659,77.122 28.703,77.141 28.743,77.178C28.889,77.315 28.866,77.561 28.697,77.669C28.635,77.708 28.571,77.718 28.5,77.717L27.878,77.659C27.825,77.649 27.778,77.638 27.733,77.607C27.566,77.496 27.548,77.25 27.697,77.116C27.752,77.067 27.813,77.047 27.884,77.036C27.901,77.036 27.918,77.036 27.936,77.036ZM55.775,76.928C55.842,76.95 55.9,76.98 55.946,77.037C56.058,77.178 56.024,77.391 55.875,77.491C55.829,77.522 55.783,77.533 55.73,77.543L55.108,77.601C55.091,77.601 55.073,77.602 55.056,77.601C54.987,77.596 54.921,77.568 54.869,77.522C54.721,77.387 54.738,77.141 54.905,77.03C54.951,76.999 54.997,76.988 55.05,76.978L55.672,76.92L55.724,76.92C55.741,76.922 55.758,76.925 55.775,76.928ZM26.691,76.92L27.313,76.978L27.364,76.987C27.432,77.011 27.489,77.042 27.533,77.1C27.654,77.26 27.591,77.498 27.407,77.577C27.357,77.598 27.309,77.601 27.255,77.601L26.633,77.543C26.563,77.53 26.501,77.509 26.448,77.459C26.302,77.322 26.325,77.076 26.494,76.968C26.54,76.939 26.586,76.928 26.639,76.92C26.657,76.92 26.674,76.92 26.691,76.92ZM57.019,76.812C57.07,76.829 57.114,76.847 57.155,76.883C57.289,77.004 57.291,77.22 57.16,77.343C57.106,77.393 57.045,77.414 56.975,77.426L56.352,77.485C56.335,77.485 56.318,77.486 56.301,77.485C56.232,77.48 56.165,77.452 56.114,77.406C55.965,77.271 55.983,77.025 56.15,76.914C56.195,76.883 56.241,76.872 56.294,76.862L56.917,76.804L56.968,76.804C56.985,76.806 57.002,76.809 57.019,76.812ZM25.446,76.804L26.069,76.862L26.12,76.871C26.17,76.889 26.214,76.908 26.254,76.946C26.4,77.083 26.377,77.329 26.208,77.437C26.146,77.476 26.082,77.485 26.011,77.485L25.388,77.426C25.335,77.417 25.289,77.406 25.244,77.375C25.077,77.264 25.059,77.017 25.208,76.883C25.263,76.834 25.324,76.815 25.395,76.804C25.412,76.804 25.429,76.804 25.446,76.804ZM58.264,76.695C58.315,76.712 58.359,76.73 58.399,76.767C58.533,76.888 58.535,77.104 58.404,77.227C58.351,77.277 58.29,77.298 58.219,77.31L57.597,77.368C57.543,77.369 57.496,77.366 57.445,77.345C57.261,77.266 57.198,77.027 57.319,76.868C57.361,76.813 57.421,76.773 57.488,76.755C57.505,76.751 57.522,76.749 57.539,76.746L58.161,76.688L58.213,76.688C58.23,76.69 58.247,76.693 58.264,76.695ZM24.202,76.688L24.824,76.746L24.875,76.755C24.926,76.773 24.969,76.792 25.009,76.83C25.155,76.967 25.132,77.213 24.963,77.321C24.902,77.36 24.838,77.369 24.766,77.368L24.144,77.31C24.073,77.298 24.012,77.277 23.959,77.227C23.813,77.09 23.836,76.844 24.005,76.736C24.051,76.706 24.097,76.696 24.15,76.688C24.167,76.688 24.185,76.688 24.202,76.688ZM59.508,76.579C59.559,76.596 59.603,76.614 59.644,76.651C59.778,76.772 59.78,76.987 59.649,77.111C59.595,77.161 59.534,77.182 59.464,77.194L58.841,77.252C58.788,77.253 58.74,77.25 58.69,77.229C58.505,77.15 58.442,76.911 58.564,76.752C58.606,76.697 58.666,76.657 58.733,76.639C58.749,76.635 58.766,76.633 58.783,76.63L59.406,76.572L59.457,76.571C59.474,76.574 59.491,76.577 59.508,76.579ZM22.957,76.572L23.58,76.63L23.63,76.639C23.681,76.657 23.725,76.676 23.765,76.713C23.911,76.851 23.888,77.097 23.719,77.204C23.657,77.244 23.593,77.253 23.522,77.252L22.899,77.194C22.846,77.185 22.8,77.173 22.755,77.143C22.588,77.031 22.57,76.785 22.719,76.651C22.773,76.602 22.835,76.582 22.906,76.571C22.923,76.572 22.94,76.572 22.957,76.572ZM60.753,76.463C60.821,76.486 60.878,76.515 60.924,76.572C61.036,76.713 61.003,76.927 60.853,77.027C60.807,77.057 60.761,77.069 60.708,77.078L60.086,77.136C60.069,77.136 60.052,77.138 60.034,77.137C59.965,77.132 59.899,77.103 59.848,77.057C59.699,76.923 59.717,76.677 59.883,76.565C59.929,76.535 59.975,76.523 60.028,76.514L60.65,76.456L60.702,76.455C60.719,76.458 60.736,76.461 60.753,76.463ZM21.713,76.456L22.335,76.514L22.386,76.523C22.436,76.541 22.48,76.56 22.52,76.597C22.666,76.735 22.643,76.98 22.474,77.088C22.412,77.128 22.348,77.137 22.277,77.136L21.655,77.078C21.602,77.069 21.556,77.057 21.51,77.027C21.343,76.915 21.326,76.669 21.474,76.535C21.529,76.486 21.59,76.466 21.661,76.455C21.678,76.455 21.695,76.456 21.713,76.456ZM20.468,76.34L21.09,76.398L21.141,76.407C21.209,76.431 21.266,76.461 21.31,76.519C21.431,76.679 21.368,76.918 21.184,76.996C21.134,77.018 21.086,77.021 21.032,77.02L20.41,76.962C20.34,76.949 20.278,76.929 20.225,76.878C20.079,76.741 20.102,76.495 20.271,76.387C20.317,76.358 20.363,76.347 20.416,76.339C20.434,76.339 20.451,76.339 20.468,76.34ZM61.997,76.347C62.065,76.37 62.123,76.399 62.169,76.456C62.281,76.597 62.247,76.81 62.098,76.911C62.052,76.941 62.006,76.953 61.953,76.962L61.331,77.02C61.277,77.021 61.229,77.018 61.179,76.996C60.995,76.918 60.932,76.679 61.053,76.519C61.095,76.464 61.155,76.424 61.222,76.407C61.238,76.402 61.256,76.401 61.273,76.398L61.895,76.34L61.946,76.339C61.963,76.342 61.98,76.344 61.997,76.347ZM63.242,76.231C63.31,76.253 63.368,76.283 63.413,76.34C63.525,76.481 63.492,76.694 63.342,76.794C63.297,76.825 63.25,76.836 63.198,76.846L62.575,76.904C62.558,76.904 62.541,76.906 62.524,76.904C62.455,76.899 62.388,76.871 62.337,76.825C62.188,76.691 62.206,76.444 62.373,76.333C62.418,76.302 62.464,76.291 62.517,76.282L63.139,76.223L63.191,76.223C63.208,76.226 63.225,76.228 63.242,76.231ZM19.224,76.223L19.846,76.282L19.897,76.291C19.947,76.309 19.991,76.328 20.031,76.365C20.177,76.502 20.154,76.748 19.985,76.856C19.923,76.895 19.859,76.905 19.788,76.904L19.165,76.846C19.095,76.833 19.034,76.812 18.98,76.762C18.834,76.625 18.857,76.379 19.026,76.271C19.072,76.242 19.119,76.231 19.172,76.223C19.189,76.223 19.206,76.223 19.224,76.223ZM64.487,76.115C64.555,76.137 64.612,76.167 64.658,76.224C64.77,76.365 64.737,76.578 64.587,76.678C64.541,76.709 64.495,76.72 64.442,76.73L63.82,76.788C63.766,76.788 63.719,76.785 63.668,76.764C63.484,76.685 63.421,76.447 63.542,76.287C63.584,76.232 63.644,76.192 63.711,76.174C63.728,76.17 63.745,76.168 63.762,76.165L64.384,76.107L64.436,76.107C64.453,76.109 64.47,76.112 64.487,76.115ZM17.979,76.107L18.601,76.165L18.652,76.174C18.703,76.192 18.746,76.211 18.786,76.249C18.932,76.386 18.909,76.632 18.74,76.74C18.679,76.779 18.615,76.788 18.543,76.788L17.921,76.73C17.868,76.72 17.822,76.709 17.776,76.678C17.61,76.567 17.592,76.321 17.741,76.186C17.795,76.137 17.857,76.118 17.927,76.107C17.945,76.107 17.962,76.107 17.979,76.107ZM65.731,75.999C65.799,76.021 65.857,76.051 65.902,76.108C66.014,76.249 65.981,76.462 65.831,76.562C65.786,76.593 65.74,76.604 65.687,76.613L65.064,76.672C65.011,76.672 64.963,76.669 64.913,76.648C64.728,76.569 64.665,76.33 64.787,76.171C64.829,76.116 64.889,76.076 64.956,76.058C64.972,76.054 64.989,76.052 65.006,76.049L65.629,75.991L65.68,75.991C65.697,75.993 65.714,75.996 65.731,75.999ZM56.795,8.894L56.17,8.894C56.147,8.897 56.123,8.897 56.1,8.902C56.055,8.913 56.012,8.933 55.975,8.962C55.821,9.086 55.821,9.328 55.975,9.451C56.012,9.48 56.055,9.501 56.1,9.511C56.123,9.517 56.147,9.517 56.17,9.519L56.795,9.519C56.818,9.517 56.842,9.517 56.865,9.511C56.91,9.501 56.953,9.48 56.99,9.451C57.123,9.345 57.145,9.145 57.039,9.012C57.01,8.975 56.973,8.946 56.931,8.925C56.91,8.915 56.887,8.91 56.865,8.902L56.795,8.894ZM41.795,8.894L41.17,8.894C41.147,8.897 41.123,8.897 41.1,8.902C41.055,8.913 41.012,8.933 40.975,8.962C40.821,9.086 40.821,9.328 40.975,9.451C41.012,9.48 41.055,9.501 41.1,9.511C41.123,9.517 41.147,9.517 41.17,9.519L41.795,9.519C41.818,9.517 41.842,9.517 41.865,9.511C41.91,9.501 41.953,9.48 41.99,9.451C42.123,9.345 42.145,9.145 42.039,9.012C42.01,8.975 41.973,8.946 41.931,8.925C41.91,8.915 41.887,8.91 41.865,8.902L41.795,8.894ZM25.615,8.902C25.637,8.91 25.66,8.915 25.681,8.925C25.723,8.946 25.76,8.975 25.789,9.012C25.895,9.145 25.873,9.345 25.74,9.451C25.703,9.48 25.66,9.501 25.615,9.511C25.592,9.517 25.568,9.517 25.545,9.519L24.92,9.519C24.897,9.517 24.873,9.517 24.85,9.511C24.805,9.501 24.762,9.48 24.725,9.451C24.571,9.328 24.571,9.086 24.725,8.962C24.762,8.933 24.805,8.913 24.85,8.902C24.873,8.897 24.897,8.897 24.92,8.894L25.545,8.894C25.568,8.897 25.591,8.899 25.615,8.902ZM46.865,8.902C46.887,8.91 46.91,8.915 46.931,8.925C46.973,8.946 47.01,8.975 47.039,9.012C47.145,9.145 47.123,9.345 46.99,9.451C46.953,9.48 46.91,9.501 46.865,9.511C46.842,9.517 46.818,9.517 46.795,9.519L46.17,9.519C46.147,9.517 46.123,9.517 46.1,9.511C46.055,9.501 46.012,9.48 45.975,9.451C45.821,9.328 45.821,9.086 45.975,8.962C46.012,8.933 46.055,8.913 46.1,8.902C46.123,8.897 46.147,8.897 46.17,8.894L46.795,8.894C46.818,8.897 46.841,8.899 46.865,8.902ZM45.545,9.519C45.568,9.517 45.592,9.517 45.615,9.511C45.66,9.501 45.703,9.48 45.74,9.451C45.873,9.345 45.895,9.145 45.789,9.012C45.76,8.975 45.723,8.946 45.681,8.925C45.66,8.915 45.637,8.91 45.615,8.902C45.591,8.899 45.568,8.897 45.545,8.894L44.92,8.894C44.897,8.897 44.873,8.897 44.85,8.902C44.805,8.913 44.762,8.933 44.725,8.962C44.571,9.086 44.571,9.328 44.725,9.451C44.762,9.48 44.805,9.501 44.85,9.511C44.873,9.517 44.897,9.517 44.92,9.519L45.545,9.519ZM43.045,8.894L42.42,8.894C42.397,8.897 42.373,8.897 42.35,8.902C42.305,8.913 42.262,8.933 42.225,8.962C42.071,9.086 42.071,9.328 42.225,9.451C42.262,9.48 42.305,9.501 42.35,9.511C42.373,9.517 42.397,9.517 42.42,9.519L43.045,9.519C43.068,9.517 43.092,9.517 43.115,9.511C43.16,9.501 43.203,9.48 43.24,9.451C43.373,9.345 43.395,9.145 43.289,9.012C43.26,8.975 43.223,8.946 43.181,8.925C43.16,8.915 43.137,8.91 43.115,8.902L43.045,8.894ZM24.295,9.519C24.318,9.517 24.342,9.517 24.365,9.511C24.41,9.501 24.453,9.48 24.49,9.451C24.623,9.345 24.645,9.145 24.539,9.012C24.51,8.975 24.473,8.946 24.431,8.925C24.41,8.915 24.387,8.91 24.365,8.902C24.341,8.899 24.318,8.897 24.295,8.894L23.67,8.894C23.647,8.897 23.623,8.897 23.6,8.902C23.555,8.913 23.512,8.933 23.475,8.962C23.321,9.086 23.321,9.328 23.475,9.451C23.512,9.48 23.555,9.501 23.6,9.511C23.623,9.517 23.647,9.517 23.67,9.519L24.295,9.519ZM35.545,8.894L34.92,8.894C34.897,8.897 34.873,8.897 34.85,8.902C34.805,8.913 34.762,8.933 34.725,8.962C34.571,9.086 34.571,9.328 34.725,9.451C34.762,9.48 34.805,9.501 34.85,9.511C34.873,9.517 34.897,9.517 34.92,9.519L35.545,9.519C35.568,9.517 35.592,9.517 35.615,9.511C35.66,9.501 35.703,9.48 35.74,9.451C35.873,9.345 35.895,9.145 35.789,9.012C35.76,8.975 35.723,8.946 35.681,8.925C35.66,8.915 35.637,8.91 35.615,8.902L35.545,8.894ZM40.545,8.894L39.92,8.894C39.897,8.897 39.873,8.897 39.85,8.902C39.805,8.913 39.762,8.933 39.725,8.962C39.571,9.086 39.571,9.328 39.725,9.451C39.762,9.48 39.805,9.501 39.85,9.511C39.873,9.517 39.897,9.517 39.92,9.519L40.545,9.519C40.568,9.517 40.592,9.517 40.615,9.511C40.66,9.501 40.703,9.48 40.74,9.451C40.873,9.345 40.895,9.145 40.789,9.012C40.76,8.975 40.723,8.946 40.681,8.925C40.66,8.915 40.637,8.91 40.615,8.902L40.545,8.894ZM49.295,8.894L48.67,8.894C48.647,8.897 48.623,8.897 48.6,8.902C48.555,8.913 48.512,8.933 48.475,8.962C48.321,9.086 48.321,9.328 48.475,9.451C48.512,9.48 48.555,9.501 48.6,9.511C48.623,9.517 48.647,9.517 48.67,9.519L49.295,9.519C49.318,9.517 49.342,9.517 49.365,9.511C49.41,9.501 49.453,9.48 49.49,9.451C49.623,9.345 49.645,9.145 49.539,9.012C49.51,8.975 49.473,8.946 49.431,8.925C49.41,8.915 49.387,8.91 49.365,8.902L49.295,8.894ZM53.045,8.894L52.42,8.894C52.397,8.897 52.373,8.897 52.35,8.902C52.305,8.913 52.262,8.933 52.225,8.962C52.071,9.086 52.071,9.328 52.225,9.451C52.262,9.48 52.305,9.501 52.35,9.511C52.373,9.517 52.397,9.517 52.42,9.519L53.045,9.519C53.068,9.517 53.092,9.517 53.115,9.511C53.16,9.501 53.203,9.48 53.24,9.451C53.373,9.345 53.395,9.145 53.289,9.012C53.26,8.975 53.223,8.946 53.181,8.925C53.16,8.915 53.137,8.91 53.115,8.902L53.045,8.894ZM51.795,8.894L51.17,8.894C51.147,8.897 51.123,8.897 51.1,8.902C51.055,8.913 51.012,8.933 50.975,8.962C50.821,9.086 50.821,9.328 50.975,9.451C51.012,9.48 51.055,9.501 51.1,9.511C51.123,9.517 51.147,9.517 51.17,9.519L51.795,9.519C51.818,9.517 51.842,9.517 51.865,9.511C51.91,9.501 51.953,9.48 51.99,9.451C52.123,9.345 52.145,9.145 52.039,9.012C52.01,8.975 51.973,8.946 51.931,8.925C51.91,8.915 51.887,8.91 51.865,8.902L51.795,8.894ZM50.545,8.894L49.92,8.894C49.897,8.897 49.873,8.897 49.85,8.902C49.805,8.913 49.762,8.933 49.725,8.962C49.571,9.086 49.571,9.328 49.725,9.451C49.762,9.48 49.805,9.501 49.85,9.511C49.873,9.517 49.897,9.517 49.92,9.519L50.545,9.519C50.568,9.517 50.592,9.517 50.615,9.511C50.66,9.501 50.703,9.48 50.74,9.451C50.873,9.345 50.895,9.145 50.789,9.012C50.76,8.975 50.723,8.946 50.681,8.925C50.66,8.915 50.637,8.91 50.615,8.902L50.545,8.894ZM48.045,8.894L47.42,8.894C47.397,8.897 47.373,8.897 47.35,8.902C47.305,8.913 47.262,8.933 47.225,8.962C47.071,9.086 47.071,9.328 47.225,9.451C47.262,9.48 47.305,9.501 47.35,9.511C47.373,9.517 47.397,9.517 47.42,9.519L48.045,9.519C48.068,9.517 48.092,9.517 48.115,9.511C48.16,9.501 48.203,9.48 48.24,9.451C48.373,9.345 48.395,9.145 48.289,9.012C48.26,8.975 48.223,8.946 48.181,8.925C48.16,8.915 48.137,8.91 48.115,8.902L48.045,8.894ZM54.295,8.894L53.67,8.894C53.647,8.897 53.623,8.897 53.6,8.902C53.555,8.913 53.512,8.933 53.475,8.962C53.321,9.086 53.321,9.328 53.475,9.451C53.512,9.48 53.555,9.501 53.6,9.511C53.623,9.517 53.647,9.517 53.67,9.519L54.295,9.519C54.318,9.517 54.342,9.517 54.365,9.511C54.41,9.501 54.453,9.48 54.49,9.451C54.623,9.345 54.645,9.145 54.539,9.012C54.51,8.975 54.473,8.946 54.431,8.925C54.41,8.915 54.387,8.91 54.365,8.902L54.295,8.894ZM55.545,8.894L54.92,8.894C54.897,8.897 54.873,8.897 54.85,8.902C54.805,8.913 54.762,8.933 54.725,8.962C54.571,9.086 54.571,9.328 54.725,9.451C54.762,9.48 54.805,9.501 54.85,9.511C54.873,9.517 54.897,9.517 54.92,9.519L55.545,9.519C55.568,9.517 55.592,9.517 55.615,9.511C55.66,9.501 55.703,9.48 55.74,9.451C55.873,9.345 55.895,9.145 55.789,9.012C55.76,8.975 55.723,8.946 55.681,8.925C55.66,8.915 55.637,8.91 55.615,8.902L55.545,8.894ZM58.045,8.894L57.42,8.894C57.397,8.897 57.373,8.897 57.35,8.902C57.305,8.913 57.262,8.933 57.225,8.962C57.071,9.086 57.071,9.328 57.225,9.451C57.262,9.48 57.305,9.501 57.35,9.511C57.373,9.517 57.397,9.517 57.42,9.519L58.045,9.519C58.068,9.517 58.092,9.517 58.115,9.511C58.16,9.501 58.203,9.48 58.24,9.451C58.373,9.345 58.395,9.145 58.289,9.012C58.26,8.975 58.223,8.946 58.181,8.925C58.16,8.915 58.137,8.91 58.115,8.902L58.045,8.894ZM59.295,8.894L58.67,8.894C58.647,8.897 58.623,8.897 58.6,8.902C58.555,8.913 58.512,8.933 58.475,8.962C58.321,9.086 58.321,9.328 58.475,9.451C58.512,9.48 58.555,9.501 58.6,9.511C58.623,9.517 58.647,9.517 58.67,9.519L59.295,9.519C59.318,9.517 59.342,9.517 59.365,9.511C59.41,9.501 59.453,9.48 59.49,9.451C59.623,9.345 59.645,9.145 59.539,9.012C59.51,8.975 59.473,8.946 59.431,8.925C59.41,8.915 59.387,8.91 59.365,8.902L59.295,8.894ZM39.295,8.894L38.67,8.894C38.647,8.897 38.623,8.897 38.6,8.902C38.555,8.913 38.512,8.933 38.475,8.962C38.321,9.086 38.321,9.328 38.475,9.451C38.512,9.48 38.555,9.501 38.6,9.511C38.623,9.517 38.647,9.517 38.67,9.519L39.295,9.519C39.318,9.517 39.342,9.517 39.365,9.511C39.41,9.501 39.453,9.48 39.49,9.451C39.623,9.345 39.645,9.145 39.539,9.012C39.51,8.975 39.473,8.946 39.431,8.925C39.41,8.915 39.387,8.91 39.365,8.902L39.295,8.894ZM38.045,8.894L37.42,8.894C37.397,8.897 37.373,8.897 37.35,8.902C37.305,8.913 37.262,8.933 37.225,8.962C37.071,9.086 37.071,9.328 37.225,9.451C37.262,9.48 37.305,9.501 37.35,9.511C37.373,9.517 37.397,9.517 37.42,9.519L38.045,9.519C38.068,9.517 38.092,9.517 38.115,9.511C38.16,9.501 38.203,9.48 38.24,9.451C38.373,9.345 38.395,9.145 38.289,9.012C38.26,8.975 38.223,8.946 38.181,8.925C38.16,8.915 38.137,8.91 38.115,8.902L38.045,8.894ZM36.795,8.894L36.17,8.894C36.147,8.897 36.123,8.897 36.1,8.902C36.055,8.913 36.012,8.933 35.975,8.962C35.821,9.086 35.821,9.328 35.975,9.451C36.012,9.48 36.055,9.501 36.1,9.511C36.123,9.517 36.147,9.517 36.17,9.519L36.795,9.519C36.818,9.517 36.842,9.517 36.865,9.511C36.91,9.501 36.953,9.48 36.99,9.451C37.123,9.345 37.145,9.145 37.039,9.012C37.01,8.975 36.973,8.946 36.931,8.925C36.91,8.915 36.887,8.91 36.865,8.902L36.795,8.894ZM34.295,8.894L33.67,8.894C33.647,8.897 33.623,8.897 33.6,8.902C33.555,8.913 33.512,8.933 33.475,8.962C33.321,9.086 33.321,9.328 33.475,9.451C33.512,9.48 33.555,9.501 33.6,9.511C33.623,9.517 33.647,9.517 33.67,9.519L34.295,9.519C34.318,9.517 34.342,9.517 34.365,9.511C34.41,9.501 34.453,9.48 34.49,9.451C34.623,9.345 34.645,9.145 34.539,9.012C34.51,8.975 34.473,8.946 34.431,8.925C34.41,8.915 34.387,8.91 34.365,8.902L34.295,8.894ZM33.045,8.894L32.42,8.894C32.397,8.897 32.373,8.897 32.35,8.902C32.305,8.913 32.262,8.933 32.225,8.962C32.071,9.086 32.071,9.328 32.225,9.451C32.262,9.48 32.305,9.501 32.35,9.511C32.373,9.517 32.397,9.517 32.42,9.519L33.045,9.519C33.068,9.517 33.092,9.517 33.115,9.511C33.16,9.501 33.203,9.48 33.24,9.451C33.373,9.345 33.395,9.145 33.289,9.012C33.26,8.975 33.223,8.946 33.181,8.925C33.16,8.915 33.137,8.91 33.115,8.902L33.045,8.894ZM31.795,8.894L31.17,8.894C31.147,8.897 31.123,8.897 31.1,8.902C31.055,8.913 31.012,8.933 30.975,8.962C30.821,9.086 30.821,9.328 30.975,9.451C31.012,9.48 31.055,9.501 31.1,9.511C31.123,9.517 31.147,9.517 31.17,9.519L31.795,9.519C31.818,9.517 31.842,9.517 31.865,9.511C31.91,9.501 31.953,9.48 31.99,9.451C32.123,9.345 32.145,9.145 32.039,9.012C32.01,8.975 31.973,8.946 31.931,8.925C31.91,8.915 31.887,8.91 31.865,8.902L31.795,8.894ZM30.545,8.894L29.92,8.894C29.897,8.897 29.873,8.897 29.85,8.902C29.805,8.913 29.762,8.933 29.725,8.962C29.571,9.086 29.571,9.328 29.725,9.451C29.762,9.48 29.805,9.501 29.85,9.511C29.873,9.517 29.897,9.517 29.92,9.519L30.545,9.519C30.568,9.517 30.592,9.517 30.615,9.511C30.66,9.501 30.703,9.48 30.74,9.451C30.873,9.345 30.895,9.145 30.789,9.012C30.76,8.975 30.723,8.946 30.681,8.925C30.66,8.915 30.637,8.91 30.615,8.902L30.545,8.894ZM29.295,9.519C29.318,9.517 29.342,9.517 29.365,9.511C29.41,9.501 29.453,9.48 29.49,9.451C29.623,9.345 29.645,9.145 29.539,9.012C29.51,8.975 29.473,8.946 29.431,8.925C29.41,8.915 29.387,8.91 29.365,8.902C29.341,8.899 29.318,8.897 29.295,8.894L28.67,8.894C28.647,8.897 28.623,8.897 28.6,8.902C28.555,8.913 28.512,8.933 28.475,8.962C28.321,9.086 28.321,9.328 28.475,9.451C28.512,9.48 28.555,9.501 28.6,9.511C28.623,9.517 28.647,9.517 28.67,9.519L29.295,9.519ZM28.045,8.894L27.42,8.894C27.397,8.897 27.373,8.897 27.35,8.902C27.305,8.913 27.262,8.933 27.225,8.962C27.071,9.086 27.071,9.328 27.225,9.451C27.262,9.48 27.305,9.501 27.35,9.511C27.373,9.517 27.397,9.517 27.42,9.519L28.045,9.519C28.068,9.517 28.092,9.517 28.115,9.511C28.16,9.501 28.203,9.48 28.24,9.451C28.373,9.345 28.395,9.145 28.289,9.012C28.26,8.975 28.223,8.946 28.181,8.925C28.16,8.915 28.137,8.91 28.115,8.902L28.045,8.894ZM26.795,8.894L26.17,8.894C26.147,8.897 26.123,8.897 26.1,8.902C26.055,8.913 26.012,8.933 25.975,8.962C25.821,9.086 25.821,9.328 25.975,9.451C26.012,9.48 26.055,9.501 26.1,9.511C26.123,9.517 26.147,9.517 26.17,9.519L26.795,9.519C26.818,9.517 26.842,9.517 26.865,9.511C26.91,9.501 26.953,9.48 26.99,9.451C27.123,9.345 27.145,9.145 27.039,9.012C27.01,8.975 26.973,8.946 26.931,8.925C26.91,8.915 26.887,8.91 26.865,8.902L26.795,8.894ZM41.294,4.689C41.449,4.701 41.597,4.738 41.735,4.813C42.017,4.966 42.216,5.249 42.265,5.566C42.281,5.67 42.281,5.777 42.265,5.881C42.249,5.982 42.219,6.081 42.174,6.173C42.124,6.277 42.055,6.374 41.973,6.456C41.879,6.55 41.767,6.626 41.644,6.678C41.517,6.732 41.379,6.759 41.241,6.759C41.102,6.759 40.965,6.732 40.837,6.678C40.715,6.626 40.602,6.55 40.508,6.456C40.426,6.374 40.358,6.277 40.307,6.173C40.263,6.081 40.232,5.982 40.217,5.881C40.201,5.777 40.201,5.67 40.217,5.566C40.265,5.249 40.465,4.966 40.747,4.813C40.884,4.738 41.032,4.701 41.188,4.689C41.241,4.687 41.241,4.687 41.294,4.689ZM41.213,5.182C41.132,5.188 41.054,5.207 40.982,5.246C40.783,5.355 40.67,5.582 40.704,5.806C40.712,5.859 40.728,5.91 40.752,5.958C40.778,6.013 40.814,6.064 40.857,6.107C40.907,6.156 40.965,6.196 41.03,6.223C41.096,6.252 41.168,6.266 41.241,6.266C41.313,6.266 41.385,6.252 41.452,6.223C41.516,6.196 41.575,6.156 41.624,6.107C41.667,6.064 41.703,6.013 41.73,5.958C41.753,5.91 41.769,5.859 41.777,5.806C41.811,5.582 41.699,5.355 41.499,5.246C41.427,5.207 41.35,5.188 41.269,5.182C41.241,5.181 41.241,5.181 41.213,5.182Z"></path></svg>
