<svg fill="#D756CB" xmlns="http://www.w3.org/2000/svg" xmlns:xlink="http://www.w3.org/1999/xlink" version="1.1" x="0px" y="0px" viewBox="0 0 100 100" enable-background="new 0 0 100 100" xml:space="preserve"><g><g><path fill="#D756CB" d="M90.66602,69.51367c-0.3374-0.43652-0.96533-0.51855-1.40234-0.17969    c-0.03564,0.02734-3.58789,2.7334-6.62256,2.30078c-2.39746-0.3418-4.52148-1.74316-6.76953-3.22559    c-2.07178-1.36719-4.21387-2.78027-6.68604-3.39648c-4.021-1.00195-9.52783-2.37402-11.79688-6.58008    c-0.32605-0.60437-0.59393-1.2417-0.8208-1.8905c0.77661,0.53638,1.57489,1.06396,2.42041,1.56726    c1.36426,0.81152,2.48828,1.51758,3.46338,2.12988c4.93018,3.09473,6.41455,3.89746,14.53467,3.89746    c0.30341,0,0.62134-0.00171,0.94379-0.00391c1.47577,1.94556,2.11603,3.67041,2.12848,3.70508    c0.14697,0.40723,0.53174,0.66113,0.94141,0.66113c0.1123,0,0.22607-0.01855,0.3374-0.05859    c0.51904-0.18652,0.79004-0.75684,0.60449-1.27637c-0.0459-0.12891-0.52948-1.42566-1.57874-3.0625    c2.26874-0.04053,4.94281-0.11279,8.15442-0.19922l1.00928-0.02734c0.55225-0.01562,0.98779-0.47461,0.97266-1.02734    c-0.01465-0.55176-0.46143-0.9668-1.02637-0.97266l-1.00977,0.02734c-3.93817,0.10693-7.04266,0.19067-9.55969,0.22168    c-1.68988-1.99292-4.16467-4.02808-7.64392-4.96484c-6.65881-1.79297-12.21771-6.25537-15.96777-10.04614    c0.0248-1.16224,0.09616-2.323,0.18774-3.48173c0.04579-0.57941,0.09681-1.15839,0.14984-1.73717    c0.07104-0.77541,0.10662-1.44357-0.10708-2.18446c-0.11892-0.41227-0.24842-0.8215-0.38571-1.228    c-0.42413-1.25584-0.92327-2.48688-1.49017-3.685c-0.74489-1.57429-1.60981-3.09409-2.60862-4.52151    c-1.1278-1.61175-2.4299-3.10748-3.91925-4.39546c-1.60989-1.39223-3.43803-2.5302-5.42202-3.30683    c-1.05521-0.41306-2.14969-0.72377-3.26361-0.93129c-2.75-0.5116-5.35577-0.56177-7.78943-0.21265    c-0.14545-0.01196-0.29059,0.00952-0.42957,0.06152c-2.9574,0.4895-5.64404,1.59619-7.94849,3.34546    c-4.48877,3.40723-7.28809,8.99414-7.8822,15.73779c-0.73517,5.75977-1.06506,12.21362,4.29822,15.9624    c0.46533,0.32617,0.94092,0.6416,1.41748,0.95801c1.5459,1.02637,3.00586,1.99512,4.15527,3.30371    c0.78125,0.88867,1.33398,1.87207,1.59814,2.84277c0.11328,0.41699,0.18066,0.84961,0.25146,1.30762    c0.13232,0.85254,0.26855,1.73438,0.7168,2.62988c0.73096,1.45801,1.58887,2.94141,2.55078,4.40918    c1.64258,2.50391,3.93945,5.61621,7.14941,7.46777c0.15723,0.09082,0.3291,0.13379,0.49854,0.13379    c0.3457,0,0.68213-0.17969,0.86719-0.5c0.27588-0.47852,0.11182-1.08984-0.3667-1.36621    c-2.84424-1.64062-4.95508-4.51367-6.47559-6.83301c-0.91992-1.40234-1.73926-2.81836-2.43555-4.20703    c-0.30762-0.61523-0.41504-1.30762-0.52832-2.04004c-0.07666-0.49316-0.15527-1.00195-0.29834-1.52734    c-0.34375-1.2627-1.04395-2.52051-2.0249-3.6377c-1.3252-1.50781-2.96582-2.59668-4.55176-3.64941    c-0.46338-0.30762-0.92578-0.61426-1.37842-0.93066c-4.19958-2.93628-4.14227-8.25171-3.56702-13.19434    c0.83923,0.04224,2.18396,0.10693,3.89954,0.1792c-0.216,2.72998-0.01074,11.00464,9.3125,16.80029    c0.36426,0.22644,0.72467,0.46045,1.08276,0.69824c0.15411,0.96436,0.39398,1.89856,0.78052,2.77344    c1.32422,2.99609-0.02637,5.11914-0.08008,5.20215c-0.16162,0.23828-0.2124,0.53516-0.13916,0.81348    c0.07275,0.2793,0.26221,0.5127,0.52002,0.6416c0.48486,0.24219,1.11426,0.41016,1.7832,0.41016    c1.20752,0,2.54248-0.5459,3.38574-2.17969c0.31494-0.61023,0.56659-1.31519,0.77368-2.07373    c5.96008,5.50659,9.99597,11.15454,10.23022,11.48486c0.19482,0.27539,0.50342,0.42188,0.81689,0.42188    c0.19971,0,0.40137-0.05957,0.57715-0.18359c0.45068-0.31934,0.55713-0.94336,0.23779-1.39453    c-0.25195-0.35571-4.78418-6.69873-11.40497-12.61084c0.1109-0.80652,0.18616-1.6416,0.22156-2.49121    c3.07037,1.36523,6.30115,2.87146,9.36963,4.35693c0.6181,2.07031,0.98114,3.79907,1.14044,4.63574l0.03418,0.17773    c0.49219,2.5918,0.95752,5.04004,3.94922,8.42188c0.19775,0.22363,0.47266,0.33789,0.74951,0.33789    c0.23535,0,0.47168-0.08301,0.66211-0.25098c0.41357-0.36621,0.45215-0.99805,0.08643-1.41113    c-2.62744-2.9707-3.00488-4.95703-3.48242-7.4707l-0.03418-0.17969c-0.14166-0.7439-0.36993-1.8208-0.69635-3.08386    c5.16754,2.55444,9.53314,4.89148,11.26959,6.09363C61.47949,71.94238,61.67773,72,61.87402,72    c0.31738,0,0.62891-0.15039,0.82324-0.43066c0.31445-0.4541,0.20117-1.07715-0.25293-1.3916    c-2.01526-1.39502-7.19116-4.1416-13.15698-7.04773c-0.11353-0.35681-0.23376-0.71887-0.36115-1.08667    c1.06244,0.32043,2.24146,0.56274,3.59674,0.70178c0.15088,0.01465,0.2915,0.02246,0.42334,0.02246    c1.06006,0,1.52295-0.46973,1.72412-0.89062c0.51709-1.0791-0.23291-2.43262-2.76709-4.99316l-0.77637-0.79492    c-2.13574-2.18652-4.34424-4.44727-5.7832-7.13379c-0.84229-1.57227-1.65723-3.20508-2.44531-4.78418    c-0.30975-0.62085-0.62225-1.2395-0.9342-1.8584c0.40479-0.00415,0.80798-0.00879,1.20856-0.01465    c0.78552,1.36548,4.3136,7.09717,10.79468,12.30737c0.33411,1.58496,0.83765,3.25037,1.66095,4.77661    c2.68799,4.9834,8.69092,6.47949,13.07373,7.57227c2.14014,0.5332,4.04785,1.79199,6.06787,3.12402    c2.3335,1.53906,4.74658,3.13086,7.58838,3.53711c0.31543,0.04492,0.63184,0.06543,0.94775,0.06543    c3.56494,0,7.02295-2.64258,7.18115-2.76465C90.92334,70.57812,91.00342,69.95117,90.66602,69.51367z M70.74023,59.09082    c2.23773,0.60254,4.00427,1.76221,5.37897,3.04236c-6.97156-0.05798-8.25989-0.86047-12.60406-3.58826    c-0.98633-0.61914-2.12402-1.33301-3.50342-2.1543c-1.52869-0.90991-2.9281-1.89685-4.22693-2.91064    c-0.13898-0.76758-0.24353-1.51123-0.32385-2.18994c-0.05078-0.42883-0.08911-0.86108-0.11761-1.2959    C59.18536,53.58618,64.45593,57.39856,70.74023,59.09082z M50.85748,42.01392c0.97888-0.06445,1.90833-0.13965,2.7738-0.22852    c-0.09998,1.08765-0.19122,2.18359-0.2569,3.2832C52.2652,43.82227,51.41565,42.75244,50.85748,42.01392z M17.09418,36.62207    c0.46216,0.16492,1.14307,0.5166,1.52545,1.22656c0.18066,0.33594,0.52539,0.52637,0.88135,0.52637    c0.16016,0,0.32227-0.03809,0.47314-0.11914c0.48633-0.2627,0.66797-0.86914,0.40625-1.35449    c-0.71136-1.32153-1.91058-1.92322-2.70477-2.19092c1.21674-3.43726,3.17963-6.29309,5.79901-8.28174    c1.28375-0.97412,2.71399-1.71167,4.24915-2.24841c-1.04187,1.47583-2.11377,3.50525-2.35071,5.83142    c-0.05615,0.5498,0.34375,1.04004,0.89307,1.09668c0.03467,0.00293,0.06885,0.00488,0.10254,0.00488    c0.50684,0,0.94141-0.38379,0.99365-0.89844c0.33771-3.3103,2.8429-6.03613,3.62665-6.8158    c1.88422-0.26477,3.89355-0.24817,6.00403,0.05444c0.04199,0.06958,0.07599,0.14307,0.13641,0.20276    c0.02734,0.02734,2.73193,2.74023,3.18945,6.70801c0.05908,0.50977,0.49121,0.88574,0.99219,0.88574    c0.03857,0,0.07715-0.00195,0.11621-0.00684c0.54834-0.06348,0.94189-0.55957,0.87842-1.10742    c-0.29407-2.55078-1.35583-4.63293-2.27899-6.02087c5.78522,1.88,9.37695,6.81067,11.42926,10.84741    c-1.01703,0.55103-1.99902,1.61804-2.33679,2.00745c-0.36133,0.41797-0.31641,1.04883,0.10107,1.41113    c0.18896,0.16406,0.42236,0.24414,0.6543,0.24414c0.27979,0,0.55859-0.11719,0.75635-0.34473    c0.53387-0.61658,1.22852-1.23352,1.672-1.51135c0.53271,1.22766,0.91364,2.29382,1.14783,3.02795    c-10.72705,1.10156-31.99707,0.15723-36.96484-0.08594C16.62164,38.63928,16.83832,37.61694,17.09418,36.62207z     M28.51947,42.17139c0.49957,0.01331,1.00592,0.02612,1.51904,0.03833c0.81952,1.96167,1.20734,3.61938,1.18512,5.17114    c-0.01318,0.91699-0.1665,1.84375-0.3291,2.82422c-0.00433,0.02612-0.00824,0.05225-0.01257,0.07837    C29.33899,47.01318,28.73376,43.71912,28.51947,42.17139z M32.20111,42.25586c0.53003,0.01001,1.06372,0.01929,1.60138,0.02759    c-0.06421,2.46143,0.74048,5.90454,1.64771,9.30737c0.37311,1.39868,0.65186,3.28931,0.76691,5.28735    c-1.49475-1.01685-2.71112-2.31323-3.69354-3.72925c0.0249-0.25684,0.05011-0.51367,0.0741-0.74951    c0.06299-0.62207,0.16699-1.24414,0.27002-1.86719c0.16748-1.01074,0.34082-2.05469,0.35596-3.12207    C33.2464,45.80432,32.90363,44.13354,32.20111,42.25586z M35.94891,44.54932c-0.11377-0.83203-0.16583-1.58618-0.14532-2.24048    c0.30029,0.00317,0.60107,0.00562,0.9021,0.00806c0.72522,1.62915,4.22906,9.38269,7.0907,13.61768    c0.4126,0.6106,0.79431,1.25562,1.14978,1.91821c-0.68982-0.47363-1.37439-0.98633-2.09607-1.52759    C40.58368,54.62488,37.12762,47.31128,35.94891,44.54932z M22.14612,41.9624c1.32068,0.0509,2.78247,0.10254,4.34375,0.15051    c0.2226,1.88428,1.07355,7.11145,3.97864,11.60913c-0.086,1.05164-0.13593,2.10559-0.12085,3.14368    C21.84845,51.47632,21.92126,44.10376,22.14612,41.9624z M35.02783,66.125c-0.43555,0.84375-1.02246,1.08887-1.52832,1.1084    c0.43652-1.25488,0.78223-3.36035-0.33496-5.8877c-0.02008-0.04541-0.03156-0.09619-0.05072-0.14209    c0.95392,0.72595,1.87726,1.4801,2.76654,2.24719C35.68146,64.47278,35.40527,65.39355,35.02783,66.125z M32.42194,58.22913    c-0.06714-0.69019-0.08801-1.38611-0.07867-2.07422c1.09644,1.19836,2.39264,2.26587,3.92664,3.10022    c-0.00769,0.62195-0.03174,1.23975-0.07788,1.84277C34.98779,60.10046,33.72754,59.1333,32.42194,58.22913z M46.74536,61.90649    c-2.80438-1.33704-5.70056-2.67188-8.47083-3.89246c-0.04529-1.88757-0.24042-3.73108-0.5274-5.29089    c1.25128,2.19604,2.64642,4.2594,3.90277,5.20166c1.56824,1.17615,3.02917,2.26904,4.76782,3.12866    C46.53101,61.33923,46.64081,61.62354,46.74536,61.90649z M39.73438,42.33008c0.46338,0.90723,0.91895,1.82031,1.37451,2.7334    c0.79443,1.5918,1.61621,3.23828,2.47217,4.83691c1.57275,2.93555,3.88184,5.2998,6.11523,7.58594l0.78564,0.80371    c1.25488,1.26855,1.83789,2.01953,2.10791,2.4502c-1.84564-0.20142-3.3139-0.61951-4.61572-1.18311    c-0.69067-1.63086-1.52222-3.2644-2.52051-4.7417c-2.40131-3.55371-5.38177-9.9231-6.54871-12.48877    c0.11108,0,0.22235,0.00049,0.33337,0.00049c0.16559,0,0.32941-0.00171,0.49475-0.00195    C39.73383,42.32678,39.73358,42.32861,39.73438,42.33008z M45.49573,42.25122c1.02454-0.02673,2.0166-0.06323,2.98291-0.10669    c0.35876,0.5271,2.04608,2.93286,4.80554,5.81494c0.00037,1.19397,0.05072,2.38525,0.19043,3.56494    c0.0014,0.01196,0.00336,0.02515,0.00476,0.03711C49.34253,47.85425,46.68854,44.11255,45.49573,42.25122z"></path><path fill="#D756CB" d="M28.94727,36.98047c-3.60352-1.80176-5.45312-0.01562-5.5293,0.0625    c-0.39062,0.39062-0.39062,1.02344,0,1.41406s1.02344,0.39062,1.41406,0c0.00928-0.00879,1.00439-0.79688,3.2207,0.3125    c0.14355,0.07129,0.29639,0.10547,0.44629,0.10547c0.36719,0,0.72021-0.20215,0.89551-0.55273    C29.6416,37.82812,29.44141,37.22754,28.94727,36.98047z"></path><path fill="#D756CB" d="M35.32812,35.28809c-1.4126-0.11426-2.81104,0.61816-3.66309,1.91211    c-0.3042,0.46094-0.17627,1.08105,0.28516,1.38477c0.46045,0.30273,1.08154,0.17578,1.38477-0.28516    c0.45703-0.69434,1.14355-1.0791,1.8291-1.01758c0.61719,0.05078,1.12256,0.44922,1.42236,1.12402    C36.75195,38.7793,37.11719,39,37.50049,39c0.13574,0,0.27344-0.02734,0.40576-0.08594    c0.50439-0.22461,0.73193-0.81543,0.50732-1.32031C37.82129,36.26074,36.66748,35.39844,35.32812,35.28809z"></path><path fill="#D756CB" d="M41.42627,38.96973c0.10889,0.03613,0.21973,0.05371,0.32812,0.05371    c0.41211,0,0.79053-0.25098,0.92871-0.66602c0.01172-0.02441,0.0791-0.15332,0.27734-0.22168    c0.20215-0.06836,0.80908-0.15918,2.07812,0.50195c0.49023,0.25195,1.09326,0.06348,1.34863-0.42676    c0.25488-0.48926,0.06396-1.09375-0.42578-1.34863c-1.50684-0.7832-2.77979-0.97461-3.78516-0.56738    c-0.77832,0.31543-1.22705,0.94531-1.375,1.38867C40.62646,38.20801,40.90234,38.79492,41.42627,38.96973z"></path></g></g></svg>