<svg fill="#DDB0A1" xmlns="http://www.w3.org/2000/svg" xmlns:xlink="http://www.w3.org/1999/xlink" xml:space="preserve" version="1.1" style="shape-rendering:geometricPrecision;text-rendering:geometricPrecision;image-rendering:optimizeQuality;" viewBox="-20 -10 369.68 369.68" x="0px" y="0px" fill-rule="evenodd" clip-rule="evenodd"><defs><style type="text/css">
   
    .fil0 {
        fill: #DDB0A1;
        stroke: #892F26;
        stroke-width: 2;
        stroke-linecap: "butt;
    }
   
  </style></defs><g><path class="fil0" d="M183.39 0.21c-5.4,1.4 -9.65,4.62 -13.39,10.14 -0.92,1.37 -2.49,3.45 -3.49,4.62 -2.05,2.42 -2.52,3.27 -2.52,4.74 0,0.83 0.15,1.15 0.86,1.86 0.83,0.83 0.93,0.85 2.2,0.73 0.88,-0.1 2.69,-0.71 5.3,-1.83 5.86,-2.52 6.82,-2.79 10.78,-2.93 5.2,-0.17 9.62,0.53 15.19,2.51 6.55,2.32 14.37,5.52 18.64,7.67 6.21,3.11 17.47,7.31 24,8.95 0.88,0.22 2.15,0.56 2.81,0.73 4.69,1.17 8.55,2.81 11.02,4.69 0.68,0.51 2.15,1.76 3.27,2.81 1.91,1.74 2.03,1.93 2.22,3.15 0.35,2.08 1.62,3.01 3.25,2.32 1.42,-0.58 1.62,-1.29 1.62,-5.74 0,-4.84 -0.4,-7.03 -1.72,-9.72 -0.95,-1.96 -3.17,-4.89 -4.56,-6.01 -4.21,-3.47 -9.24,-5.6 -22.56,-9.51 -0.46,-0.14 -1.95,-0.78 -3.29,-1.44 -2.47,-1.2 -3.86,-2.27 -7.21,-5.45 -6.21,-5.89 -9.19,-7.57 -16.13,-9.16 -2.51,-0.59 -3.76,-0.71 -9.28,-0.98 -4.23,-0.22 -6.04,-0.56 -10.14,-1.85 -1.71,-0.52 -5.33,-0.69 -6.87,-0.3l0 0z"/><path class="fil0" d="M141.05 2.34c-2.66,0.27 -14.49,2.59 -17,3.32 -2.91,0.86 -5.16,2.47 -10.14,7.28 -4.45,4.3 -6.84,6.14 -11.61,8.82 -1.76,1 -3.86,3.11 -4.71,4.72 -1.03,1.95 -1.47,4.01 -1.76,8.23 -0.15,2.01 -0.37,4.28 -0.52,5.04 -0.48,2.93 -2.07,5.96 -4.83,9.35 -2.98,3.69 -3.81,5.62 -2.76,6.58 0.95,0.85 1.49,0.56 4.93,-2.84 5.94,-5.84 12.02,-9.11 18.81,-10.16 2.06,-0.32 4.77,-1.42 6.97,-2.79 4.91,-3.08 6.03,-3.83 7.57,-4.96 2.4,-1.76 3.59,-2.76 6.11,-5.2 4.89,-4.74 8.14,-6.72 16.13,-9.87 6.08,-2.4 10.38,-3.55 14.04,-3.69 1.91,-0.1 2.84,-0.52 4.55,-2.15 1.42,-1.35 1.95,-2.47 1.59,-3.4 -0.37,-0.98 -1.03,-1.39 -3.2,-1.9 -3.35,-0.83 -6.85,-1.98 -8.78,-2.89 -6.47,-3.03 -10.57,-3.96 -15.39,-3.49l0 0z"/><path class="fil0" d="M184.15 21.13c-2.74,0.68 -3.76,1.27 -6.23,3.61 -1.27,1.2 -3.05,2.67 -3.96,3.23 -1.73,1.1 -2.32,2 -1.93,3.03 0.34,0.9 1,1.27 4.67,2.69 3.62,1.41 4.3,1.56 9.89,2.24 2.94,0.37 6.8,1.05 12.64,2.3 1.32,0.29 4.32,1.12 6.72,1.86 5.08,1.56 8.5,2.2 12.9,2.44 3.15,0.2 3.17,0.2 4.12,1 2.45,2.1 3.79,0.08 1.98,-2.95 -1.61,-2.67 -4.37,-6.33 -6.2,-8.26 -2.08,-2.18 -3.79,-3.37 -7.23,-5.06 -3.28,-1.61 -5.55,-2.32 -10.51,-3.3 -2.27,-0.44 -5.33,-1.2 -6.79,-1.68 -3.08,-1.03 -5.84,-1.62 -7.31,-1.59 -0.58,0 -1.81,0.19 -2.76,0.44l0 0z"/><path class="fil0" d="M157.15 22.01c-0.88,0.17 -2.46,0.34 -3.54,0.34 -4.15,0.05 -7.99,1.12 -11.63,3.32 -5.94,3.57 -7.11,5.18 -8.58,11.97 -0.95,4.3 -1.17,5.65 -1.17,6.82 0,2.64 1.03,4.13 2.25,3.23 4.59,-3.35 7.57,-4.43 13.02,-4.7 2.1,-0.09 4.18,0.03 9.41,0.64 10.31,1.17 10.38,1.17 15.17,0.86 4.37,-0.27 4.45,-0.3 5.01,-0.96 0.93,-1.05 0.73,-1.68 -0.95,-3.52 -0.52,-0.58 -1.37,-1.97 -1.88,-3.05 -0.52,-1.1 -1.32,-2.86 -1.81,-3.91 -0.49,-1.07 -0.88,-2 -0.88,-2.08 0,-0.31 -2.32,-3.64 -3.23,-4.64 -1.29,-1.42 -3.86,-3.39 -5.23,-4.01 -1.49,-0.63 -3.86,-0.78 -5.96,-0.31l0 0z"/><path class="fil0" d="M194.41 40.55c-3.2,0.76 -6.42,2.1 -11.24,4.64 -2.15,1.13 -5.22,2.52 -6.84,3.08 -4.52,1.59 -6.18,2.54 -7.11,4.11 -0.02,0.02 -0.68,-0.22 -1.46,-0.54 -0.81,-0.34 -2.2,-0.9 -3.13,-1.27 -0.9,-0.34 -2.57,-1.2 -3.67,-1.88 -2.29,-1.42 -5.91,-3.15 -7.47,-3.62 -0.61,-0.17 -2.3,-0.32 -3.79,-0.32 -3.22,0.03 -3.49,0.1 -12.95,4.45 -7.96,3.64 -10.92,6.52 -15,14.59 -1.15,2.32 -1.49,3.25 -1.64,4.52 -0.19,2.03 -0.29,2.15 -0.83,1.27 -0.24,-0.42 -0.68,-0.81 -0.97,-0.91 -0.64,-0.19 -1.62,0.39 -1.84,1.15 -0.09,0.32 -0.93,1.61 -1.83,2.88 -3.76,5.33 -5.25,9.46 -5.2,14.42 0.02,5.03 0.95,7.45 4.78,12.71 1.42,1.95 3.08,4.37 3.69,5.39 1.1,1.84 1.52,2.18 2.42,1.98 0.83,-0.17 0.96,-1.14 0.39,-3.17 -0.73,-2.64 -0.9,-8.11 -0.36,-11.17 0.22,-1.22 0.68,-3.74 1.02,-5.62 0.71,-3.91 0.69,-5.25 -0.24,-9.21 -1,-4.3 -1.03,-4.76 -0.07,-2.61 1,2.24 1.27,2.64 3.05,4.47 1.73,1.76 4.57,3.64 7.62,5.06 3.08,1.39 3.79,1.9 7.09,4.98 5.18,4.81 9.87,7.4 19.2,10.63 5.23,1.81 7.23,2.83 9.48,4.86 2.25,2.03 3.42,2.54 4.42,1.88 0.79,-0.51 0.79,-1.29 0,-2.37 -0.63,-0.88 -0.78,-1.15 -1.46,-2.83 -0.49,-1.2 -3.69,-4.45 -6.35,-6.5 -3.01,-2.3 -4.5,-3.25 -14.05,-9.09 -5.92,-3.62 -7.8,-5.52 -9.34,-9.53 -0.78,-2.03 -0.78,-4.71 0,-6.18 1.49,-2.81 7.43,-7.23 12.54,-9.36 1,-0.39 2.73,-0.95 3.88,-1.22 2.5,-0.59 8.26,-1.05 10.63,-0.83 2.03,0.17 3.18,-0.29 3.79,-1.47 0.19,-0.41 0.36,-0.75 0.36,-0.78 0,-0.02 0.62,0.17 1.35,0.42 1.07,0.34 2.47,0.46 6.96,0.58 6.01,0.17 7.97,0.39 10.87,1.18 4.92,1.29 9.41,3.71 13.69,7.33 2.9,2.46 5.23,5.64 6.15,8.45 2.1,6.35 -0.07,12.09 -7.69,20.3 -3.5,3.74 -4.79,5.96 -5.18,8.77 -0.12,0.88 -0.08,1.4 0.12,1.64 0.39,0.47 1.2,0.47 1.37,0.03 0.07,-0.18 0.63,-0.4 1.27,-0.49 1.34,-0.17 4.45,-1.69 7.38,-3.62 1.15,-0.73 3.56,-2.12 5.4,-3.1 3.93,-2.08 6.57,-4.13 9.16,-7.06 2.81,-3.2 3.52,-4.94 4.13,-10.14 0.22,-1.79 0.61,-4.45 0.85,-5.94 0.59,-3.3 0.61,-4.86 0.1,-7.21 -0.78,-3.42 -2.56,-6.4 -6.47,-10.7 -3.47,-3.81 -4.47,-5.06 -6.45,-8.06 -3.03,-4.62 -3.69,-5.43 -5.48,-6.77 -2.61,-1.95 -4.79,-2.59 -9.18,-2.69 -2.94,-0.07 -3.77,0 -5.87,0.49l0 0z"/><path class="fil0" d="M241.57 41.19c-3.4,0.34 -8.41,1.34 -13.81,2.78 -1.8,0.49 -4.59,1.15 -6.15,1.49 -3.16,0.64 -5.09,1.37 -5.09,1.91 0,0.54 0.62,0.93 1.69,1.07 0.86,0.13 0.98,0.2 0.86,0.66 -0.08,0.35 0.41,1.42 1.63,3.45 0.96,1.61 2.4,4.13 3.2,5.62 0.81,1.46 1.69,2.95 1.96,3.3 0.24,0.34 2.98,3.12 6.03,6.23 3.08,3.07 6.57,6.86 7.8,8.35 3.51,4.38 6.54,9.8 7.72,13.78 0.41,1.52 1.37,7.58 1.37,8.87 0,1.2 0.8,2.1 1.85,2.1 0.78,0 1.15,-0.29 3.47,-2.64 1.88,-1.88 3.08,-2.88 4.33,-3.54 3.44,-1.86 6.2,-4.25 8.08,-7.04 1.62,-2.37 2.18,-3.47 2.64,-5.27 0.76,-2.93 0.42,-5.38 -1.34,-9.53 -0.86,-1.98 -1,-2.62 -1.22,-5.13 -0.52,-6.53 -1.1,-8.21 -4.65,-13.56 -1.09,-1.66 -2.71,-4.08 -3.59,-5.4 -1.95,-2.98 -4.18,-5.26 -5.93,-6.11 -2.42,-1.2 -6.92,-1.76 -10.85,-1.39l0 0z"/><path class="fil0" d="M272.52 41.85c-0.97,0.19 -2.12,1.56 -2.44,2.98 -0.54,2.34 -0.27,4.59 0.51,4.27 0.22,-0.07 0.49,0.42 0.86,1.42 0.63,1.83 0.9,3.57 1.27,8.14 0.46,5.42 1.93,10.75 4.4,15.88 1.54,3.2 2.49,4.66 6.11,9.53 4.93,6.59 6.3,10.7 7.32,21.99 0.15,1.61 0.37,4 0.49,5.32 0.15,1.32 0.2,2.49 0.15,2.59 -0.07,0.1 0.1,0.61 0.34,1.17 0.56,1.25 1.59,1.71 2.76,1.2 1.13,-0.46 5.62,-4.84 7.28,-7.06 1.86,-2.52 2.77,-4.37 3.55,-7.38 0.56,-2.1 0.66,-2.93 0.66,-6.11 0,-3.05 -0.08,-3.98 -0.54,-5.62 -0.56,-2.05 -2.2,-5.52 -3.45,-7.33 -1.83,-2.66 -2.98,-5.42 -3.69,-8.99 -1.41,-7.08 -2.49,-10.38 -4.3,-13.48 -1.17,-2.03 -4.1,-5.43 -5.96,-6.99 -0.73,-0.61 -2.29,-1.91 -3.52,-2.91 -1.19,-1 -3.56,-3.13 -5.25,-4.74 -3.59,-3.39 -4.88,-4.18 -6.55,-3.88z"/><path class="fil0" d="M121.92 42.56c-0.1,0.09 -2.52,0.24 -5.37,0.34 -4.16,0.14 -5.6,0.29 -7.14,0.73 -3.76,1.03 -6.2,2.57 -9.18,5.84 -1.01,1.1 -3.18,3.44 -4.84,5.2 -4.03,4.28 -5.16,5.99 -7.23,11 -2.42,5.84 -2.81,8.6 -2.37,17.13 0.31,5.76 0.63,8.08 1.53,10.92 1.47,4.59 4.43,8.3 10.1,12.7 1.49,1.15 5.27,4.62 8.42,7.7 7.97,7.82 10.41,9.7 16.62,12.78 4.42,2.2 5.5,2.64 8.79,3.61 4.5,1.32 5.84,1.81 8.17,2.96 1.19,0.56 2.49,1.05 2.83,1.05 1,0 1.95,-0.86 1.95,-1.76 0,-0.93 -0.92,-1.83 -3.71,-3.57 -2.76,-1.73 -6.65,-5.32 -10.11,-9.33 -1.57,-1.81 -5.45,-5.89 -8.63,-9.04 -7.77,-7.7 -11.61,-12.46 -14.07,-17.35 -1.96,-3.86 -2.37,-5.32 -2.49,-8.67 -0.18,-4.47 0.34,-5.55 5.76,-11.9 3.42,-4.01 4.18,-5.15 7.43,-11.31 1.42,-2.69 4.05,-7.43 5.89,-10.51 3.61,-6.08 3.81,-6.62 2.73,-7.87 -0.56,-0.63 -0.73,-0.68 -2.76,-0.75 -1.17,-0.05 -2.22,0 -2.32,0.1z"/><path class="fil0" d="M170.59 63.79c-1.15,0.17 -3.22,0.44 -4.64,0.58 -9.26,1.05 -12.66,2.79 -15.05,7.75 -0.76,1.56 -0.88,2.15 -1,4.13 -0.32,5.23 1.71,9.89 5.54,12.8 1.66,1.25 5.74,3.4 8.68,4.54 0.95,0.37 2.9,1.28 4.39,2.06 3.38,1.71 5.21,3.47 7.77,7.35 2.28,3.42 4.67,5.96 6.67,7.01 2.15,1.15 5.18,1.64 8.14,1.3 3.01,-0.34 4.15,-0.95 4.5,-2.44 0.22,-0.88 0.46,-8.17 0.51,-14.54 0.05,-8.16 0.37,-7.87 -8.6,-7.89 -12.83,-0.05 -18.96,-1.18 -21.8,-4.04 -1.63,-1.63 -2.41,-4.66 -1.61,-6.23 0.76,-1.41 2.84,-3.03 9.73,-7.47 1.68,-1.08 2.39,-1.93 2.39,-2.89 0,-0.97 -0.37,-1.58 -1.22,-2.02 -0.83,-0.42 -1.54,-0.42 -4.4,0l0 0z"/><path class="fil0" d="M185.98 66.01c-2.56,0.68 -4.86,2.61 -7.52,6.38 -0.64,0.88 -1.69,1.93 -2.57,2.54 -1.88,1.32 -2.56,2.03 -3.12,3.27 -0.88,1.91 -0.44,3.89 1.19,5.57 1.4,1.44 2.2,1.71 5.3,1.71 4.82,0 13.25,-1.73 16.62,-3.39 1.44,-0.74 2.88,-2.08 3.39,-3.13 1.35,-2.86 0.03,-8.19 -2.61,-10.56 -2.52,-2.29 -7.16,-3.32 -10.68,-2.39l0 0z"/><path class="fil0" d="M78.26 75.81c-2.1,0.76 -9.48,5.3 -13.54,8.3 -5.47,4.09 -9.62,9.95 -11.43,16.13 -1,3.42 -1.32,4.01 -3.2,6.06 -4.23,4.57 -5.01,7.18 -4.23,14.17 0.22,2.1 0.37,5.69 0.37,9.33l0 5.92 -0.61 0.66c-1.49,1.61 -2.23,5.42 -1.98,10.43 0.17,4.08 0.61,6.64 1.37,8.45 1.15,2.62 3.76,5.35 7.03,7.28 1.64,0.98 6.04,2.79 7.58,3.13 2.34,0.51 5.67,2.4 7.5,4.25 1.46,1.49 3.76,3.23 5.08,3.79 1.91,0.85 3.71,1.12 7.6,1.12l3.44 0 1.23 0.86c0.66,0.46 1.63,1.37 2.12,2 0.49,0.64 1.37,1.76 1.91,2.47 2.47,3.18 5.54,3.74 9.62,1.71 2.3,-1.15 4.43,-3.4 6.09,-6.43 0.22,-0.41 0.9,-1.83 1.51,-3.17l1.13 -2.42 0.88 1.44c0.48,0.81 1.8,3.18 2.95,5.25 6.18,11.29 10.04,16.23 15.08,19.31 2.88,1.75 3.64,2 10.67,3.27 1.32,0.24 3.33,0.9 5.33,1.73 6.38,2.69 9.41,3.42 14.05,3.4 2.76,0 3.79,-0.15 7.94,-1.03 2.61,-0.56 6.21,-1.41 7.94,-1.88 4.06,-1.1 5.77,-1.24 8.55,-0.78 5.5,0.93 7.75,0.78 13.93,-0.95 7.13,-2.01 9.11,-2.15 14.78,-1.08 10.78,2.03 18.72,6.92 23.09,14.27 1.29,2.15 2.3,3.32 2.83,3.32 0.42,0 1.44,-1.36 1.59,-2.15 0.17,-0.95 -0.27,-6.35 -0.78,-9.4 -0.42,-2.42 -1.52,-5.74 -2.57,-7.75 -0.8,-1.54 -3,-4.15 -4.61,-5.49 -2.3,-1.94 -5.53,-3.82 -10.27,-5.97 -1.34,-0.61 1.86,0.03 4.4,0.86 4.42,1.46 8.68,3.96 12.34,7.21 2.64,2.37 3.49,2.9 4.52,2.9 1.34,0 2,-0.8 2.76,-3.34 1.61,-5.33 2.59,-11.54 2.98,-19.01 0.08,-1.61 0.22,-3.81 0.27,-4.89 0.27,-4.2 -0.41,-6.08 -2.34,-6.38 -0.71,-0.12 -1.42,0.15 -4.16,1.49 -3.74,1.86 -6.69,2.94 -10.75,3.91 -1.54,0.37 -4.52,1.1 -6.59,1.64 -8.36,2.15 -14,3.18 -19.72,3.62 -5.21,0.39 -11.58,1.1 -20.5,2.29 -2.74,0.37 -3.76,0.86 -3.76,1.76 0,0.86 0.61,1.03 3.17,0.98 2.18,-0.07 2.42,-0.02 3.91,0.71 2.86,1.42 8.65,3.1 11.8,3.42 2.01,0.22 2.4,0.61 0.61,0.61 -0.7,0 -2.27,0.12 -3.49,0.24 -4.52,0.49 -13.05,0.96 -15.56,0.86 -5.77,-0.2 -8.82,-0.76 -13.81,-2.49 -2.91,-1 -4.93,-2.18 -9.94,-5.7 -2.01,-1.41 -4.2,-2.93 -4.89,-3.39 -1.64,-1.1 -3.22,-2.4 -6.62,-5.45 -3.18,-2.86 -7.18,-5.38 -13.19,-8.36 -3.69,-1.83 -10.61,-4.66 -13.25,-5.42 -3.05,-0.88 -9.43,-3.62 -11.04,-4.74 -0.34,-0.24 -2.93,-1.95 -5.77,-3.81 -6.18,-4.08 -7.89,-5.43 -11.8,-9.26 -1.66,-1.61 -3.64,-3.32 -4.39,-3.79 -5.92,-3.61 -8.24,-6.28 -8.53,-9.77 -0.12,-1.42 -0.05,-1.83 0.49,-3.01 0.34,-0.75 1.22,-2.12 1.95,-3.05 1.71,-2.15 3.06,-4.23 3.47,-5.42 0.17,-0.52 0.51,-2.18 0.73,-3.72 0.22,-1.51 0.66,-3.76 1.01,-4.98 0.73,-2.79 0.73,-3.91 0,-6.89 -1.01,-4.11 -1.01,-7.19 0.09,-14.22 0.13,-0.88 0.25,-2.05 0.25,-2.62 0,-2.2 -2.1,-3.27 -4.62,-2.34l0 0z"/><path class="fil0" d="M235.04 80.79c-0.8,0.3 -1.29,1.32 -1.93,3.96 -1.58,6.77 -3.54,10.65 -8.01,16.05 -1.39,1.71 -2.71,3.03 -4.74,4.69 -4.57,3.84 -11.14,6.36 -19.72,7.6 -4.25,0.64 -4.98,0.69 -12.21,0.69 -6.72,0.02 -9.07,-0.15 -14.91,-1.01 -0.88,-0.12 -3.78,-0.34 -6.47,-0.48 -10.56,-0.57 -13.29,-1.15 -20.4,-4.4 -1.81,-0.81 -5.79,-2.32 -8.82,-3.33 -3.18,-1.05 -6.04,-2.15 -6.72,-2.58 -2.27,-1.42 -3.52,-2.67 -4.3,-4.21 -0.98,-1.95 -1.76,-3 -2.64,-3.44 -0.68,-0.34 -1.47,-0.3 -1.47,0.12 0,0.12 -0.29,0.24 -0.66,0.29 -0.95,0.1 -0.97,0.71 -0.09,2.01 0.41,0.61 0.75,1.22 0.75,1.36 0,0.15 0.57,1.71 1.27,3.5 1.69,4.25 4.23,8.06 10.14,15.15 4.96,5.93 10.14,8.55 19.74,9.94 3.99,0.59 6.94,1.3 10.63,2.54 8.31,2.84 13.73,3.64 20.67,3.06 2.13,-0.2 5.04,-0.35 6.45,-0.35 2.32,0 2.81,0.1 5.13,0.91 4.33,1.51 6.72,1.73 11.51,1.07 1.39,-0.19 3.42,-0.41 4.5,-0.51 6.91,-0.51 9.28,-1.22 12.36,-3.64 1.93,-1.52 2.83,-2.71 5.06,-6.74 4.91,-8.97 6.5,-10.93 11.16,-13.81 3.59,-2.22 5.01,-3.44 5.87,-5.13 0.66,-1.27 0.73,-1.69 0.73,-3.52 0,-2.47 -0.24,-3 -2.76,-6.45 -2.22,-3.03 -3.15,-4.59 -4.99,-8.48 -1.14,-2.37 -1.83,-3.51 -2.49,-4.1 -0.49,-0.42 -1,-0.78 -1.12,-0.78 -0.1,0 -0.34,-0.05 -0.54,-0.1 -0.17,-0.07 -0.61,0 -0.98,0.12l0 0z"/><path class="fil0" d="M129.2 88.61c-0.49,0.76 -0.24,2.61 0.81,6.01 1.12,3.54 1.37,3.86 4.54,5.47 1.49,0.74 5.16,2.62 8.19,4.18 8.09,4.16 10.02,4.74 16.49,4.94 3.2,0.09 3.45,0.07 3.98,-0.42 0.59,-0.54 0.69,-1.54 0.22,-2.15 -0.17,-0.22 -1.44,-1 -2.86,-1.73 -1.41,-0.74 -4.03,-2.3 -5.81,-3.47 -4.11,-2.69 -7.43,-4.74 -8.02,-4.96 -0.24,-0.1 -1.68,-0.86 -3.15,-1.69 -1.49,-0.83 -3.52,-1.9 -4.52,-2.42 -1,-0.49 -3.03,-1.63 -4.47,-2.51 -2.03,-1.23 -2.91,-1.62 -3.81,-1.71 -1.05,-0.1 -1.25,-0.05 -1.59,0.46l0 0z"/><path class="fil0" d="M276.85 92.01c-7.06,1.17 -10.43,2.54 -14.27,5.69 -2.88,2.37 -3.57,3.22 -9.53,11.78 -2.17,3.1 -3.96,5.13 -6.5,7.35 -9.23,8.04 -11.87,10.63 -13.83,13.56 -1.41,2.08 -6.25,10.14 -6.5,10.8 -0.39,1.03 -2.34,3.57 -3.93,5.13 -2.83,2.76 -7.45,5.3 -14.19,7.82 -1.62,0.61 -4.57,1.73 -6.6,2.49 -4.08,1.56 -9.73,3.54 -12.71,4.45 -3.44,1.05 -9.21,2.69 -11.48,3.22 -8.26,2.06 -13.51,4.45 -17.03,7.8 -0.51,0.49 -0.93,1.05 -0.93,1.27 0,0.56 0.49,0.97 1.15,0.97 0.49,0 0.51,0.08 0.29,0.64 -0.12,0.37 -0.17,0.71 -0.12,0.78 0.07,0.05 0.88,0.17 1.81,0.25 1.88,0.12 5.15,-0.59 9.31,-2.03 3.32,-1.15 6.77,-1.98 10.28,-2.45 1.69,-0.22 4.38,-0.65 5.99,-1 4.35,-0.85 7.79,-1.41 14.29,-2.29 8.41,-1.13 14.83,-2.32 19.43,-3.6 1.93,-0.51 7.52,-2.63 13.31,-5 3.23,-1.32 5.65,-2.08 9.04,-2.79 0.35,-0.07 2.5,-0.29 4.77,-0.46 4.08,-0.32 6.2,-0.76 9.97,-2.06 3.17,-1.1 7.69,-4.44 10.21,-7.57 4.1,-5.11 6.18,-11.34 6.96,-21.04 0.56,-7.01 1.15,-8.57 5.08,-13.68 1.84,-2.39 3.16,-4.86 3.69,-6.96 0.22,-0.81 0.52,-3.3 0.66,-5.52 0.39,-5.72 0,-7.24 -2.07,-8.02 -0.98,-0.36 -1.93,-0.29 -6.55,0.47l0 0z"/><path class="fil0" d="M286.77 116.68c-2.32,0.59 -3.72,1.84 -5.06,4.5 -0.54,1.07 -1.88,4.64 -3,7.94 -2.79,8.28 -2.86,8.45 -5.04,12.85 -2.22,4.52 -4.05,7.11 -7.23,10.17 -3.64,3.51 -5.23,4.86 -6.89,5.76 -3.22,1.79 -5.08,3.13 -7.11,5.18 -2.47,2.49 -3.54,4.5 -5.08,9.43 -1.39,4.47 -1.69,6.11 -2.25,12.46 -0.46,5.23 -0.78,6.45 -4.89,18.94 -0.53,1.68 -1.02,3.32 -1.07,3.66 -0.07,0.35 -0.44,1.54 -0.86,2.69 -1.12,3.15 -0.92,4.4 0.71,4.4 0.88,0 1.22,-0.47 2.03,-2.84 0.39,-1.1 1.22,-2.59 2.32,-4.15 0.95,-1.32 2.15,-3 2.66,-3.74 1.4,-2 5.55,-6.23 7.68,-7.84 2.02,-1.52 4.13,-2.44 8.03,-3.54 1.28,-0.37 3.82,-1.13 5.62,-1.71 7.46,-2.4 9.31,-2.69 16.13,-2.57 10.6,0.2 12.14,0.15 14.42,-0.46 4.2,-1.13 6.62,-2.32 10.01,-5.08 3.33,-2.69 4.55,-4.35 7.31,-9.97 1.32,-2.72 2.69,-5.35 3,-5.89 2.57,-4.08 2.62,-8.7 0.13,-11.29 -0.98,-1.03 -2.57,-1.86 -4.74,-2.47 -0.93,-0.24 -2.67,-0.9 -3.84,-1.46l-2.13 -1 1.45 -1.62c1.97,-2.2 2.59,-3.47 2.59,-5.47 0,-1.32 -0.15,-1.91 -0.93,-3.54 -0.49,-1.08 -1.3,-2.94 -1.76,-4.11 -2.3,-5.96 -5.94,-10.77 -10.78,-14.24 -4.64,-3.32 -6.52,-4.6 -7.38,-4.89 -0.95,-0.34 -2.9,-0.39 -4.05,-0.1l0 0z"/><path class="fil0" d="M92.41 117.22c-1.62,1.08 -2.94,4.89 -2.94,8.48 0,2.83 1.86,7.52 4.21,10.7 1.51,2.05 4.49,5.13 6.3,6.55 0.76,0.59 2.96,1.95 4.89,3.08 1.95,1.1 4.69,2.76 6.08,3.69 4.23,2.81 8.72,4.86 12.97,5.93 2.86,0.71 3.82,0.79 13.52,1.13 4.27,0.14 7.96,0.29 8.21,0.34 0.24,0.05 2.34,0.19 4.69,0.37 5.2,0.34 9.01,0.8 11.72,1.44 6.82,1.56 10.46,1.34 17.2,-1.08 4.87,-1.73 10.51,-3.64 12.95,-4.4 6.06,-1.83 9.53,-4.22 13.81,-9.52 1.66,-2.08 2.32,-3.5 2.08,-4.5 -0.2,-0.73 -1.06,-1.73 -1.5,-1.73 -0.17,0 -0.46,-0.22 -0.65,-0.52 -0.2,-0.27 -0.79,-0.66 -1.32,-0.83 -1.13,-0.41 -4.87,-0.46 -8.14,-0.12 -10.31,1.1 -17.25,1.78 -20.16,1.98 -1.88,0.12 -4.4,0.32 -5.62,0.46 -7.38,0.78 -25.6,0.42 -35.3,-0.73 -1.15,-0.15 -3.74,-0.42 -5.79,-0.61 -6.31,-0.64 -9.92,-1.54 -14.54,-3.74 -4.81,-2.25 -6.3,-3.52 -14.71,-12.22 -2.61,-2.71 -4.86,-4.37 -6.16,-4.59 -0.75,-0.1 -1.12,-0.02 -1.8,0.44l0 0z"/><path class="fil0" d="M56.42 174.1c-0.34,0.27 -0.74,0.86 -0.88,1.3 -0.37,1.09 -0.03,2.05 2.17,5.66 0.98,1.62 2.01,3.33 2.27,3.79 0.27,0.46 0.64,1.03 0.79,1.22 0.71,0.88 2.93,5.38 4.15,8.41 0.73,1.83 2.1,5.64 3.05,8.48 0.96,2.83 2.28,6.3 2.94,7.69 0.66,1.39 1.14,2.54 1.1,2.54 -0.03,0 -0.74,-0.63 -1.52,-1.41 -7.65,-7.48 -21.62,-15.81 -31.59,-18.84 -1.86,-0.56 -4.13,-1.1 -10.16,-2.45 -2.45,-0.53 -6.02,-1.41 -7.95,-1.93 -9.72,-2.66 -15.19,-3.95 -17.46,-4.12 -1.67,-0.13 -1.76,-0.1 -2.55,0.58 -0.66,0.59 -0.78,0.88 -0.78,1.74 0.05,2.49 1.91,3.95 13.37,10.55 8.08,4.64 21.84,13.37 28.95,18.35 5.55,3.88 9.11,6.69 13.32,10.51 0.66,0.61 2.41,2.15 3.9,3.42l2.67 2.29 -0.95 0.17c-0.54,0.1 -1.52,0.25 -2.18,0.35 -2.1,0.24 -3.1,1.8 -2.25,3.47 1.35,2.56 8.07,6.23 13.95,7.59 5.62,1.32 8.38,2.06 12.34,3.3 4.94,1.54 8.92,2.96 11.36,4.01 8.77,3.76 9.65,4.08 16.86,6.08 4.13,1.13 6.45,1.64 7.82,1.74 1.08,0.05 2.25,0.27 2.61,0.44 1.01,0.51 1.84,0.41 2.28,-0.25 0.8,-1.24 1.07,-0.92 -9.07,-10.43 -4.03,-3.76 -6.69,-6.96 -10.77,-13.05 -0.81,-1.22 -1.81,-2.68 -2.2,-3.29 -0.42,-0.62 -1.1,-1.71 -1.54,-2.45 -0.73,-1.27 -0.59,-1.15 2.86,2.2 2,1.96 4.3,4.08 5.13,4.77 0.83,0.66 4.64,4.39 8.43,8.28 11.11,11.31 19.28,18.37 24.58,21.21 7.94,4.22 14.97,6.64 24.6,8.4 3.45,0.64 4.08,0.68 10.63,0.68 7.57,0 9.85,-0.22 16.25,-1.56 3.76,-0.78 9.89,-2.49 12.95,-3.61 5.05,-1.89 10.99,-5.16 14.75,-8.19 2.54,-2.05 7.58,-7.11 8.58,-8.6 0.44,-0.68 1.2,-1.73 1.66,-2.37 0.81,-1.08 0.9,-1.12 1.37,-0.78 0.27,0.19 0.71,0.34 0.95,0.34 0.51,0 4.37,-1.61 6.82,-2.83 0.9,-0.47 1.71,-0.83 1.76,-0.83 0.05,0 -0.05,0.34 -0.27,0.75 -0.29,0.59 -0.32,0.88 -0.1,1.4 0.44,1.02 1.12,1.31 3.42,1.41 1.15,0.08 3.25,0.22 4.64,0.34 7.24,0.69 13.42,-0.24 21.41,-3.22 4.83,-1.78 10.92,-4.45 11.26,-4.94 0.54,-0.78 0.42,-1.58 -0.39,-2.51 -0.39,-0.44 -0.73,-1.03 -0.73,-1.3 0,-0.93 1.58,-2.25 5.64,-4.66 2.27,-1.35 4.3,-2.69 4.5,-2.99 0.73,-1.05 0.31,-2.36 -0.93,-2.83 -0.54,-0.19 -1.66,0 -5.84,1.08 -2.86,0.7 -5.23,1.29 -5.26,1.27 -0.07,-0.08 4.35,-3.96 5.58,-4.89 3.32,-2.57 11.63,-7.4 17.49,-10.24 3.64,-1.76 9.11,-3.66 13.58,-4.74 2.91,-0.71 3.35,-1.02 3.35,-2.56 0,-1.66 -1.34,-2.2 -3.93,-1.59 -2.35,0.54 -5.92,1.25 -10.61,2.1 -6.23,1.12 -13.8,3.05 -17.47,4.45 -5.86,2.2 -9.04,3.96 -15.39,8.4 -1.51,1.08 -6.28,5.67 -8.11,7.87 -0.98,1.17 -2.61,3.22 -3.62,4.57 -4.59,6.18 -6.86,8.6 -9.4,10.02 -0.86,0.46 -2.69,1.14 -4.38,1.56 -3.22,0.85 -4.05,0.93 -2.95,0.34 2.81,-1.51 8.65,-6.84 10.55,-9.63 0.42,-0.58 1.71,-2.83 2.91,-4.98 2.83,-5.13 4.81,-7.92 8.89,-12.41 7.92,-8.8 13.69,-13.07 22.65,-16.91 5.16,-2.17 5.99,-2.64 6.72,-3.64 1.54,-2.12 0.32,-4.25 -3.57,-6.13 -2.73,-1.32 -3.9,-1.61 -6.98,-1.76 -3.4,-0.17 -5.45,0.27 -10.24,2.17 -4.11,1.64 -6.06,2.08 -10.41,2.37 -8.5,0.59 -11.92,2.67 -14.95,9.02 -1.66,3.44 -2.59,7.99 -3.15,15.2 -0.39,5.25 -1.74,10.5 -3.33,13.19 -0.97,1.61 -5.64,8.31 -5.74,8.21 -0.05,-0.05 0.17,-0.73 0.52,-1.54 1.19,-2.83 2.46,-9.97 1.9,-10.65 -0.15,-0.17 -0.29,-1.57 -0.34,-3.11 -0.15,-4.44 -0.71,-5.15 -6.26,-7.86 -4.08,-2.01 -6.45,-3.45 -10.04,-6.16 -3.15,-2.37 -3.91,-2.91 -5.4,-3.79 -3.78,-2.24 -7.55,-3.22 -14.19,-3.69 -3.81,-0.27 -5.87,-0.19 -13.66,0.52 -3.47,0.31 -9.58,1.1 -11.04,1.41 -0.59,0.15 -2.72,0.42 -4.72,0.64 -2.03,0.19 -4.59,0.51 -5.74,0.66 -2.93,0.41 -16.05,0.41 -19.18,0 -1.34,-0.2 -3.59,-0.49 -5.01,-0.69 -9.65,-1.27 -13.85,-2.51 -21.08,-6.2 -5.89,-3.01 -7.53,-4.23 -14.52,-10.68 -3.03,-2.78 -3.91,-3.32 -5.35,-3.3 -1.29,0 -1.56,0.15 -7.57,4.13 -6.06,4.03 -5.5,3.67 -6.01,3.84 -1.3,0.39 -1.76,3.13 -1.44,8.4 0.41,6.43 1.83,11.54 4.39,15.88 0.98,1.67 0.42,1.4 -1.61,-0.78 -3.1,-3.3 -4.96,-6.79 -8.26,-15.54 -2.54,-6.72 -3.96,-9.62 -6.08,-12.43 -0.56,-0.71 -1.34,-1.81 -1.78,-2.42 -2.06,-2.91 -9.39,-9.55 -13.86,-12.54 -1.66,-1.1 -2.88,-1.24 -3.88,-0.46l0 0z"/><path class="fil0" d="M325.49 243.49c-10.45,8.09 -15.32,11.16 -21.5,13.61 -3.08,1.22 -4.25,1.49 -4.49,1.07 -0.37,-0.58 -1.57,-0.27 -2.89,0.78 -2.44,1.98 -4.91,3.6 -5.44,3.6 -0.08,0 -0.13,-0.59 -0.13,-1.32 0,-2.15 -1.27,-3.18 -2.85,-2.28 -0.27,0.18 -1.47,1.32 -2.64,2.57 -2.54,2.69 -5.57,5.18 -7.5,6.18 -0.79,0.39 -1.45,0.71 -1.52,0.71 -0.05,0 -0.15,-0.73 -0.19,-1.61 -0.1,-1.42 -0.2,-1.71 -0.79,-2.2 -0.78,-0.69 -1.61,-0.73 -3.1,-0.22 -2.71,0.98 -5.86,1.39 -7.89,1.07 -2.74,-0.44 -9.19,-3.59 -14.03,-6.86 -3.71,-2.52 -9.21,-4.69 -11.89,-4.69 -2.15,-0.03 -3.28,0.66 -7.43,4.52 -2.01,1.83 -4.35,3.83 -5.21,4.44 -4.2,3.01 -10.82,6.55 -15.1,8.09 -1.68,0.61 -1.78,0.64 -2.88,0.27 -1.1,-0.39 -2.22,-0.32 -2.51,0.15 -0.25,0.41 0.34,2.46 0.73,2.61 0.22,0.07 1,0.61 1.76,1.2 0.73,0.58 1.44,1.05 1.54,1.05 0.09,0 0.58,0.32 1.07,0.73 2.25,1.79 6.7,3.13 14.47,4.37 0.88,0.15 2.68,0.42 4.03,0.64 1.34,0.22 3.1,0.49 3.91,0.64 4.59,0.75 14.7,1.71 21.99,2.02 1.75,0.1 5.05,0.27 7.33,0.42 4.91,0.34 8.57,0.17 11.14,-0.49 4.03,-1.03 7.06,-2.98 7.06,-4.54 0,-0.69 0.1,-0.81 0.76,-0.96 0.41,-0.07 1.49,-0.14 2.39,-0.14 2.03,0 6.06,-0.59 7.84,-1.13 3.37,-1 10.02,-4.03 10.78,-4.88 1.02,-1.18 0.73,-2.59 -0.64,-3.18 -0.61,-0.25 -1.34,-0.32 -2.61,-0.2l-1.79 0.13 3.79 -1.91c3.45,-1.76 5.96,-3.13 8.31,-4.52 1.71,-1.03 6.45,-4.72 8.99,-6.99 3.93,-3.54 9.77,-9.33 10.6,-10.5 1.27,-1.84 0.81,-3.47 -1,-3.47 -0.68,0 -1.24,0.29 -2.47,1.22l0 0z"/><path class="fil0" d="M71.25 259.1c-0.42,0.25 -0.88,0.78 -1.03,1.17 -0.56,1.67 0.44,2.96 2.84,3.64 2,0.57 6.5,2.11 6.72,2.3 0.09,0.1 -0.3,0.29 -0.86,0.47 -0.59,0.17 -2.32,0.92 -3.86,1.66 -1.54,0.75 -3.4,1.61 -4.11,1.93 -2.05,0.93 -7.57,4.08 -10.77,6.15 -7.11,4.62 -9.75,6.58 -16,12 -4.23,3.67 -16.47,16.08 -19.04,19.3 -1.49,1.86 -7.2,7.72 -8.84,9.07 -1.66,1.36 -2.57,2.61 -2.57,3.54 0,0.22 0.32,0.73 0.71,1.12 1.35,1.35 2.71,0.81 5.67,-2.17 1.66,-1.71 5.69,-4.69 9.33,-6.94 2.35,-1.44 2.84,-1.73 8.12,-4.96 2.02,-1.22 4.49,-2.79 5.49,-3.44 11.78,-7.9 20.4,-11.63 36.63,-15.89 1.27,-0.34 2.39,-0.66 2.49,-0.73 0.37,-0.22 0.27,0.1 -0.54,1.64 -0.41,0.83 -1.17,2.71 -1.71,4.22 -0.54,1.5 -1.34,3.67 -1.81,4.84 -1.05,2.67 -1.07,3.42 -0.14,4.38 1.22,1.22 2.9,0.85 4.17,-0.91 1.4,-1.88 13.98,-12.56 18.21,-15.42 1.63,-1.09 8.74,-5.2 9.04,-5.2 0.22,0 4.93,-2.93 6.3,-3.93 1.96,-1.42 8.97,-8.48 9.58,-9.65 0.19,-0.39 0.36,-1.18 0.36,-1.74 0,-2.1 -2.22,-3.39 -4.15,-2.39 -0.56,0.29 -0.85,0.34 -1.05,0.14 -0.37,-0.36 -1.37,-0.34 -3.03,0.1 -2.81,0.73 -5.4,0.49 -14,-1.34 -1.95,-0.42 -4.47,-0.91 -5.62,-1.1 -1.15,-0.2 -3.05,-0.51 -4.27,-0.71 -3.47,-0.61 -10.85,-1.2 -18.21,-1.49 -2.98,-0.12 -3.37,-0.1 -4.05,0.34z"/><path class="fil0" d="M134.8 265.7c-2.03,1.32 -2.91,2.49 -5.35,7.13 -1.91,3.62 -2.57,5.48 -3.3,9.14 -0.76,3.88 -0.95,7.18 -0.69,12.44 0.37,7.18 -0.09,10.04 -2.61,15.9 -0.73,1.74 -0.81,2.84 -0.2,3.37 1.1,1.01 2.01,0.42 7.07,-4.66 0.58,-0.57 1.07,-1.03 1.12,-1.03 0.1,0 -0.05,1.39 -0.46,4.52 -0.71,5.06 -2.81,12.22 -6.19,20.94 -0.53,1.44 -1,2.88 -1,3.22 0,0.84 0.81,1.62 1.69,1.62 0.68,0 1.61,-0.69 6.94,-5.21 0.75,-0.63 1.39,-1.15 1.39,-1.07 0,0.32 -1,4.64 -1.3,5.54 -2.76,8.65 -10.84,25.56 -16.12,33.77 -1.42,2.2 -5.5,9.14 -6.06,10.31 -0.46,0.93 -0.51,1.2 -0.27,1.74 0.39,0.87 1.34,1.17 2.32,0.75 3.13,-1.29 18.3,-14.75 26.14,-23.18 7.38,-7.9 13.98,-18.16 15.93,-24.73 0.37,-1.22 0.74,-2.47 0.84,-2.78 0.14,-0.49 0.31,-0.27 1.36,1.8 0.66,1.3 1.47,2.59 1.81,2.84 0.76,0.61 1.76,0.58 2.42,-0.03 0.59,-0.56 0.64,-0.71 1,-3.66 0.15,-1.15 0.47,-3.3 0.74,-4.77 0.26,-1.49 0.53,-3.47 0.63,-4.39 0.2,-2.13 0.76,-6.41 1.1,-8.19 0.44,-2.42 1.81,-6.4 1.54,-4.47 -0.32,2.1 1.98,3.59 3.22,2.08 1.2,-1.47 5.92,-8.04 8.21,-11.46 2.94,-4.38 4.23,-6.89 5.79,-11.31 1.54,-4.43 2.94,-7.77 4.08,-9.9 1.35,-2.49 1.47,-3.18 0.62,-4.03 -0.66,-0.66 -1.76,-0.64 -4.87,0.12 -5.84,1.42 -6.03,1.44 -11.14,1.44 -5.25,-0.02 -7.96,-0.36 -11.85,-1.49 -3.86,-1.1 -14.19,-5.86 -18.93,-8.7 -2.96,-1.76 -3.3,-2.05 -3.3,-2.76 0,-0.66 -0.59,-1.32 -1.17,-1.32 -0.22,0 -0.74,0.22 -1.15,0.47l0 0z"/></g></svg>