<?xml version="1.0" encoding="iso-8859-1"?>
<svg fill="#89B17A" version="1.1" id="Capa_1" xmlns="http://www.w3.org/2000/svg" xmlns:xlink="http://www.w3.org/1999/xlink" viewBox="0 0 49.459 49.459" xml:space="preserve">
<g>
	<g>
		<path d="M5.207,19.503c1.098-0.747,1.382-2.243,0.637-3.335c-0.75-1.098-4.524-2.376-4.524-2.376s-0.196,3.98,0.553,5.078
			C2.619,19.968,4.113,20.25,5.207,19.503z"/>
		<path d="M18.137,14.774c1.379-0.472,2.115-1.968,1.646-3.349c-0.471-1.382-4.098-3.836-4.098-3.836s-1.369,4.164-0.897,5.541
			C15.26,14.509,16.758,15.246,18.137,14.774z"/>
		<path d="M44.298,19.536c1.073,0.778,2.575,0.537,3.352-0.534c0.778-1.073,0.702-5.06,0.702-5.06s-3.812,1.165-4.591,2.237
			C42.983,17.254,43.223,18.756,44.298,19.536z"/>
		<path d="M45.729,24.637c1.282-0.346,3.73-3.489,3.73-3.489s-3.697-1.497-4.977-1.151c-0.218,0.059-0.412,0.152-0.596,0.261
			c0.02-0.196,0.022-0.4-0.01-0.607c-0.211-1.311-3.08-4.071-3.08-4.071s-1.872,3.519-1.664,4.827
			c0.207,1.311,1.439,2.202,2.75,1.993c0.307-0.05,0.588-0.159,0.84-0.307c-0.009,0.088-0.012,0.176-0.01,0.266
			c-0.549,0.75-1.064,1.569-1.545,2.44c-0.061,0.023-0.117,0.053-0.173,0.082c-0.042-0.274-0.125-0.544-0.265-0.8
			c-0.656-1.189-4.371-2.851-4.371-2.851s-0.582,4.029,0.072,5.216c0.631,1.15,2.05,1.586,3.218,1.015
			c0.005,0.027,0.004,0.058,0.009,0.087c0.014,0.071,0.042,0.135,0.061,0.205c-0.361,0.824-0.698,1.664-1.014,2.506
			c-0.035,0.026-0.064,0.062-0.099,0.092c-0.023-0.429-0.14-0.856-0.38-1.247c-0.381-0.621-1.574-1.329-2.693-1.893
			c0.246-0.533,0.398-0.899,0.398-0.899s-3.595-0.418-5.508-0.012l0.08-0.672c0.651,0.217,1.387,0.186,2.049-0.145
			c1.334-0.667,3.327-4.671,3.327-4.671s-2.954-0.551-4.753-0.383l0.174-1.452c0.828,0.848,2.15,1.063,3.217,0.436
			c1.258-0.738,2.934-4.786,2.934-4.786s-4.35-0.504-5.607,0.238c-0.212,0.123-0.39,0.281-0.555,0.449
			c-0.035-0.217-0.092-0.432-0.186-0.642c-0.605-1.328-4.454-3.414-4.454-3.414s-0.956,4.27-0.353,5.599
			c0.603,1.329,2.168,1.912,3.495,1.31c0.311-0.143,0.576-0.338,0.8-0.571c0.016,0.095,0.039,0.189,0.066,0.283
			c-0.361,0.956-0.668,1.976-0.927,3.041c-0.056,0.042-0.104,0.088-0.156,0.135c-0.128-0.277-0.292-0.541-0.517-0.771
			c-1.039-1.069-5.463-1.747-5.463-1.747s0.049,0.387,0.145,0.949c-1.287,0.266-2.764,0.672-3.324,1.213
			c-0.23,0.226-0.403,0.483-0.537,0.756c-0.05-0.048-0.097-0.097-0.152-0.142c-0.227-1.07-0.504-2.098-0.838-3.061
			c0.031-0.092,0.057-0.187,0.076-0.279c0.217,0.236,0.476,0.44,0.782,0.591c1.31,0.643,2.891,0.104,3.533-1.206
			c0.641-1.309-0.188-5.609-0.188-5.609s-3.91,1.976-4.551,3.285c-0.102,0.205-0.164,0.417-0.208,0.633
			C18.173,15.494,18,15.331,17.792,15.2c-1.233-0.773-5.599-0.4-5.599-0.4s1.555,4.095,2.79,4.872
			c1.049,0.659,2.376,0.48,3.23-0.342l0.131,1.453c-1.794-0.218-4.763,0.243-4.763,0.243s1.873,4.066,3.189,4.769
			c0.65,0.352,1.383,0.402,2.042,0.207l0.06,0.672c-1.899-0.461-5.506-0.148-5.506-0.148s0.141,0.369,0.372,0.911
			c-1.135,0.53-2.35,1.2-2.749,1.812c-0.25,0.384-0.378,0.809-0.416,1.235c-0.033-0.031-0.062-0.068-0.095-0.095
			c-0.289-0.852-0.603-1.702-0.94-2.539c0.021-0.067,0.051-0.13,0.066-0.201c0.007-0.029,0.007-0.058,0.012-0.086
			c1.15,0.604,2.58,0.212,3.246-0.919c0.691-1.168,0.227-5.211,0.227-5.211S9.33,22.983,8.64,24.15
			c-0.148,0.251-0.237,0.52-0.289,0.794c-0.056-0.03-0.108-0.062-0.169-0.086c-0.457-0.885-0.949-1.719-1.473-2.485
			c0.003-0.09,0.003-0.178-0.003-0.268c0.247,0.158,0.524,0.273,0.829,0.332c1.305,0.248,2.562-0.607,2.807-1.908
			c0.25-1.306-1.518-4.879-1.518-4.879s-2.953,2.677-3.199,3.983c-0.038,0.204-0.043,0.407-0.027,0.604
			c-0.182-0.114-0.373-0.213-0.588-0.278C3.738,19.579,0,20.961,0,20.961s2.355,3.217,3.627,3.599
			c1.078,0.325,2.199-0.151,2.75-1.079l0.466,1.247c-1.628,0.24-4.118,1.361-4.118,1.361s2.627,3.111,3.949,3.41
			c0.658,0.152,1.311,0.02,1.84-0.312l0.217,0.576c-1.778,0.056-4.865,1.2-4.865,1.2s2.648,3.607,4.075,4.034
			c0.92,0.276,1.868,0.032,2.543-0.557l0.501,1.342c-0.049-0.019-0.095-0.048-0.146-0.063C9.415,35.278,5.206,36.8,5.206,36.8
			s2.617,3.63,4.039,4.071c1.248,0.387,2.564-0.182,3.164-1.291l0.961,2.562c0,0-0.211-1.402-0.658-3.523
			c0.004-0.031,0.01-0.064,0.014-0.099c0.152,0.181,0.323,0.349,0.529,0.487c1.045,0.703,2.396,0.568,3.294-0.23
			c1.146,0.525,2.494,0.27,3.358-0.632l0.27,2.995c0,0,0.188-1.545,0.331-3.922c0.014-0.034,0.03-0.064,0.044-0.1
			c0.11,0.233,0.241,0.46,0.417,0.668c1.034,1.199,2.815,1.363,4.053,0.404c1.042,0.289,2.202,0.008,2.983-0.848
			c0.182-0.202,0.32-0.424,0.438-0.653c0.01,0.035,0.025,0.066,0.04,0.101c0.072,2.381,0.214,3.932,0.214,3.932l0.359-2.988
			c0.838,0.928,2.18,1.222,3.34,0.734c0.873,0.824,2.219,0.996,3.287,0.324c0.207-0.131,0.381-0.295,0.539-0.467
			c0.004,0.032,0.01,0.066,0.012,0.1c-0.51,2.105-0.761,3.498-0.761,3.498l1.035-2.531c0.567,1.125,1.865,1.732,3.125,1.383
			c1.435-0.4,4.156-3.952,4.156-3.952s-4.163-1.645-5.597-1.246c-0.053,0.016-0.098,0.04-0.149,0.059l0.541-1.325
			c0.657,0.607,1.598,0.881,2.526,0.631c1.441-0.383,4.193-3.914,4.193-3.914s-3.055-1.235-4.83-1.341l0.232-0.57
			c0.52,0.346,1.171,0.497,1.832,0.367c1.33-0.258,4.049-3.294,4.049-3.294s-2.458-1.192-4.078-1.483l0.503-1.229
			C43.533,24.422,44.642,24.93,45.729,24.637z M25.197,24.044c1.004,1.035,2.633,1.078,3.705,0.134
			c0.014,0.031,0.021,0.061,0.033,0.092c0.037,0.07,0.084,0.129,0.125,0.195c-0.142,0.982-0.256,1.973-0.344,2.955
			c-0.028,0.04-0.049,0.086-0.075,0.125c-0.15-0.447-0.396-0.867-0.766-1.211c-0.121-0.113-0.286-0.219-0.476-0.317
			c0.099-0.417,0.152-0.687,0.152-0.687s-0.641,0.049-1.514,0.162c-0.779-0.227-1.648-0.4-2.402-0.529
			c0.188-0.11,0.369-0.231,0.53-0.391c0.236-0.228,0.453-0.627,0.649-1.101C24.936,23.707,25.062,23.904,25.197,24.044z
			 M20.621,27.971c-0.026-0.044-0.045-0.088-0.072-0.129c-0.059-0.984-0.145-1.977-0.257-2.961c0.042-0.067,0.091-0.124,0.128-0.191
			c0.017-0.032,0.024-0.063,0.038-0.092c0.413,0.386,0.919,0.619,1.444,0.695c0.059,0.287,0.136,0.658,0.234,1.079
			c-0.291,0.125-0.543,0.262-0.715,0.414C21.044,27.118,20.784,27.531,20.621,27.971z M12.521,35.267
			c-0.185,0.273-0.303,0.569-0.376,0.874c-0.237-0.97-0.513-2.013-0.823-3.086c0.031-0.127,0.062-0.256,0.073-0.381
			c0.116,0.109,0.239,0.213,0.378,0.305c0.443,0.291,0.941,0.428,1.436,0.434c0.088,0.227,0.221,0.557,0.391,0.953
			C13.115,34.663,12.721,34.969,12.521,35.267z M19.371,33.598c-0.381-0.244-1.029-0.389-1.768-0.475
			c-0.008-0.338-0.02-0.553-0.02-0.553s-0.52,0.18-1.222,0.463c-0.606-0.023-1.206-0.021-1.728-0.007
			c0.34-0.204,0.641-0.474,0.871-0.825c0.139-0.213,0.242-0.523,0.323-0.883c0.23,0.291,0.46,0.529,0.681,0.668
			c0.895,0.561,1.972,0.578,2.857,0.152l0.141,1.568C19.461,33.671,19.421,33.629,19.371,33.598z M20.633,34.423
			c0.031-1.097,0.044-2.28,0.027-3.507c0.068-0.127,0.139-0.254,0.188-0.383c0.092,0.15,0.19,0.297,0.312,0.434
			c0.249,0.285,0.547,0.502,0.866,0.668c-0.197-0.021-0.319-0.033-0.319-0.033s0.126,0.678,0.348,1.582
			c-0.315,0.127-0.585,0.266-0.769,0.424C21.01,33.843,20.799,34.124,20.633,34.423z M27.811,33.161
			c-0.13-0.118-0.31-0.23-0.516-0.334c0.088-0.363,0.141-0.596,0.141-0.596s-0.589,0.039-1.4,0.129
			c-0.67-0.188-1.407-0.34-2.09-0.455c0.429-0.082,0.839-0.262,1.205-0.537c1.004,0.244,2.107-0.033,2.865-0.844
			c0.124-0.133,0.229-0.277,0.322-0.424c0.047,0.13,0.111,0.255,0.178,0.383c-0.054,1.229-0.078,2.412-0.078,3.51
			C28.281,33.69,28.078,33.406,27.811,33.161z M29.726,33.206c-0.053,0.031-0.093,0.072-0.144,0.105l0.188-1.564
			c0.874,0.455,1.951,0.469,2.862-0.064c0.223-0.131,0.46-0.363,0.699-0.65c0.07,0.363,0.166,0.676,0.298,0.893
			c0.22,0.357,0.512,0.637,0.843,0.85c-0.521-0.027-1.119-0.047-1.725-0.045c-0.694-0.303-1.207-0.496-1.207-0.496
			s-0.018,0.215-0.037,0.551C30.766,32.848,30.111,32.973,29.726,33.206z M35.472,34.143c0.179-0.391,0.323-0.717,0.417-0.939
			c0.495,0.008,0.997-0.113,1.449-0.391c0.143-0.086,0.268-0.189,0.387-0.295c0.008,0.127,0.033,0.256,0.062,0.385
			c-0.344,1.062-0.649,2.095-0.915,3.057c-0.064-0.305-0.173-0.605-0.35-0.882C36.333,34.775,35.945,34.457,35.472,34.143z"/>
		<path d="M31.514,14.427c1.363,0.512,2.887-0.178,3.395-1.543c0.513-1.365-0.733-5.567-0.733-5.567s-3.697,2.349-4.209,3.712
			C29.456,12.394,30.147,13.918,31.514,14.427z"/>
	</g>
	<g id="Capa_1_153_">
	</g>
</g>
</svg>