<svg fill="#DE6A0F" xmlns="http://www.w3.org/2000/svg" xmlns:xlink="http://www.w3.org/1999/xlink" version="1.1" x="0px" y="0px" viewBox="0 0 100 100" enable-background="new 0 0 100 100" xml:space="preserve"><path d="M90.493,54.862c-0.316-0.459-0.803-0.744-1.269-0.744c-0.468,0-0.853,0.27-1.083,0.759  c-0.315,0.667-0.104,1.271,0.101,1.854c0.207,0.589,0.402,1.146,0.028,1.729c-0.421,0.659-1.418,0.758-1.976,0.758  c-0.526,0-1.086-0.088-1.5-0.235c-2.394-0.853-4.109-3.483-5.487-5.597L78.989,52.9c-1.619-2.461-3.012-5.133-4.359-7.717  l-0.166-0.317c-1.464-2.808-3.115-5.458-5.044-8.102c-1.637-2.241-3.492-4.782-5.728-6.851c-0.671-0.621-1.464-1.157-2.23-1.676  c-0.339-0.229-0.677-0.458-1-0.691c-1.01-0.728-2.148-1.355-3.383-1.866c-0.529-0.218-0.998-0.561-1.451-0.892  c-0.533-0.389-1.083-0.792-1.745-1.008c-0.211-0.069-0.423-0.134-0.635-0.198c-0.395-0.12-0.803-0.244-1.192-0.396  c-0.303-0.118-0.589-0.285-0.866-0.447c-0.264-0.154-0.537-0.314-0.829-0.435c-0.827-0.341-1.788-0.508-2.938-0.508  c-1.766,0-3.663,0.408-5.188,0.736l-0.28,0.06c-1.094,0.234-1.847,0.81-2.645,1.419c-0.231,0.177-0.468,0.358-0.72,0.536  c-0.965,0.681-1.89,1.559-2.749,2.611c-1.901,2.325-3.243,4.989-4.199,7.05c-0.104,0.225-0.208,0.458-0.312,0.695  c-0.42,0.951-0.854,1.935-1.497,2.674c-0.538,0.619-1.39,1.039-2.214,1.445c-0.379,0.187-0.737,0.363-1.063,0.557  c-0.165,0.098-0.33,0.195-0.495,0.292c-0.513,0.3-1.042,0.61-1.546,0.946c-0.511,0.341-0.76,0.429-1.129-0.006  c-0.609-0.716-1.428-1.294-2.221-1.854c-0.269-0.189-0.524-0.37-0.771-0.555c1.683-1.3,2.89-2.268,2.899-4.593  c0-0.101,0.004-0.215,0.009-0.339c0.024-0.677,0.057-1.604-0.428-2.051c-0.222-0.203-0.551-0.248-0.924-0.125L21.9,31.311  c-0.106,0.03-0.214,0.062-0.297,0.095c-0.051-0.067-0.105-0.143-0.162-0.222c-0.353-0.49-0.792-1.099-1.313-1.134  c-0.002,0-0.029-0.001-0.032-0.001c-0.518,0-0.818,0.84-1.037,1.454c-0.066,0.187-0.124,0.348-0.172,0.439  c-0.754,1.437-1.679,3.098-2.818,4.526c-0.541,0.677-1.089,1.204-1.676,1.61l-0.21,0.144c-0.467,0.316-0.95,0.643-1.241,1.157  c-0.068,0.121-0.102,0.274-0.134,0.422c-0.037,0.168-0.075,0.341-0.154,0.419c-0.112,0.109-0.243,0.199-0.382,0.294  c-0.112,0.077-0.228,0.157-0.333,0.248c-0.3,0.258-0.543,0.606-0.779,0.943c-0.184,0.263-0.375,0.536-0.586,0.754  c-0.181,0.187-0.413,0.383-0.659,0.591c-0.966,0.816-2.169,1.833-1.125,3.131c0.388,0.483,1.042,0.738,1.723,0.674  c0.149-0.014,0.295-0.037,0.441-0.06c0.262-0.042,0.506-0.082,0.767-0.064c0.096,0.006,0.191,0.021,0.285,0.037  c0.185,0.03,0.383,0.062,0.584,0.026c0.44-0.077,0.778-0.399,1.104-0.71c0.178-0.17,0.347-0.331,0.524-0.446  c0.333-0.215,0.67-0.312,1.096-0.312c0.29,0,0.596,0.044,0.892,0.087c0.222,0.032,0.447,0.055,0.671,0.077  c0.674,0.066,1.312,0.129,1.888,0.454c0.113,0.064,0.23,0.096,0.349,0.096c0.478,0,0.85-0.54,0.852-1.004  c0-0.045-0.024-0.087-0.064-0.11c-0.04-0.021-0.089-0.021-0.127,0.003c-0.07,0.043-0.13,0.084-0.184,0.121  c-0.261,0.177-0.333,0.207-0.635,0.116c-0.167-0.05-0.334-0.102-0.501-0.154c-0.171-0.053-0.342-0.106-0.514-0.157  c-0.736-0.221-1.312-0.341-1.866-0.391c-1.252-0.113-2.251,0.208-2.925,0.945l-0.116,0.127c-0.417,0.46-0.492,0.543-1.19,0.575  c-0.125,0.006-0.266,0.018-0.414,0.031c-0.236,0.021-0.48,0.043-0.719,0.043c-0.316,0-0.554-0.04-0.726-0.122  c-0.203-0.097-0.317-0.182-0.34-0.254c-0.025-0.077,0.042-0.197,0.133-0.363c0.028-0.051,0.059-0.106,0.09-0.167  c0.122-0.236,0.148-0.388,0.083-0.494c-0.03-0.049-0.092-0.108-0.219-0.108c-0.162,0-0.394,0.1-0.608,0.197  c0.284-0.63,0.805-1.086,1.353-1.565c0.336-0.294,0.684-0.599,0.979-0.951c0.195-0.232,0.419-0.457,0.656-0.694  c0.526-0.527,1.071-1.072,1.326-1.746c0.042-0.112,0.068-0.217,0.092-0.315c0.053-0.218,0.092-0.375,0.299-0.521  c0.207-0.146,0.434-0.278,0.653-0.406l0.153-0.089c0.168-0.099,0.337-0.197,0.506-0.294c0.4-0.231,0.814-0.47,1.211-0.725  c0.689-0.441,1.203-1.039,1.7-1.617c0.128-0.149,0.258-0.301,0.393-0.451c-0.38,1.449-0.353,2.061,0.32,2.547  c0.054,0.038,0.129,0.029,0.171-0.024c0.208-0.261,0.188-0.72,0.168-1.165c-0.009-0.217-0.018-0.421,0.004-0.564  c0.099-0.648,0.346-1.25,0.713-1.743c0.569-0.763,1.208-1.514,1.824-2.24c0.207-0.243,0.413-0.485,0.616-0.727  c0.339,0.546,0.359,0.822,0.371,1.556l0.005,0.273c0.014,0.692,0.029,1.408-0.148,2.045c-0.264,0.952-1.227,1.727-2.077,2.409  c-0.279,0.225-0.542,0.436-0.773,0.646c-0.028,0.025-0.043,0.063-0.041,0.1c0.002,0.038,0.021,0.073,0.053,0.095  c0.898,0.63,1.605,1.212,2.291,1.886c0.095,0.093,0.199,0.21,0.313,0.336c0.455,0.508,1.022,1.14,1.667,1.14  c0.085,0,0.17-0.012,0.253-0.034c0.609-0.168,1.211-0.607,1.792-1.033c0.247-0.18,0.479-0.351,0.7-0.49  c0.225-0.142,0.449-0.29,0.675-0.438c0.639-0.42,1.3-0.855,1.991-1.161c0.785-0.347,1.421-0.677,1.866-1.488  c0.218-0.398,0.402-0.822,0.581-1.233c0.124-0.284,0.247-0.568,0.381-0.845c0.271-0.558,0.527-1.123,0.773-1.67  c0.58-1.285,1.128-2.499,1.891-3.686c1.377-2.141,3.073-3.856,5.67-5.735c0.117-0.084,0.232-0.173,0.347-0.262  c0.426-0.329,0.867-0.669,1.399-0.771c0.208-0.041,0.473-0.013,0.721,0.02c0.273,0.036,0.572,0.064,0.813,0.01  c0.279-0.063,0.536-0.174,0.785-0.281c0.305-0.131,0.593-0.256,0.922-0.303c0.523-0.074,1.068-0.077,1.861-0.001  c2.951,0.28,5.389,1.559,7.747,2.795c0.416,0.218,0.833,0.433,1.25,0.647c0.879,0.453,1.788,0.921,2.665,1.41  c1.093,0.611,2.055,1.458,2.985,2.277l0.182,0.16c2.004,1.764,3.908,3.786,5.994,6.364c0.582,0.719,1.114,1.512,1.629,2.279  c0.304,0.453,0.619,0.922,0.94,1.37c0.802,1.119,1.5,2.303,2.132,3.619c1.033,2.149,2.229,4.261,3.385,6.304  c0.298,0.528,0.597,1.055,0.893,1.583c1.496,2.669,3.075,4.784,4.827,6.465c0.495,0.475,2.265,2.026,4.255,2.026  c0.794,0,1.503-0.256,2.108-0.759c0.953-0.793,0.712-1.811,0.479-2.796l-0.03-0.127c-0.14-0.597-0.068-1.015,0.224-1.317  c0.061-0.063,0.125-0.094,0.197-0.094c0.229,0,0.512,0.299,0.681,0.479l0.025,0.027c0.767,0.811,1.003,2.467,0.788,3.6  c-0.201,1.06-0.777,1.922-1.58,2.366c-0.655,0.362-1.598,0.545-2.805,0.545c-0.334,0-0.688-0.014-1.084-0.041  c-1.298-0.09-2.549-0.422-3.719-0.987c-2.417-1.166-4.798-3.203-6.369-5.45c-0.428-0.612-0.932-1.169-1.42-1.708  c-0.495-0.547-1.006-1.113-1.434-1.732c-0.858-1.241-1.686-2.498-2.487-3.713l-0.217-0.33c-0.742-1.13-1.443-2.197-2.327-3.205  c-0.373-0.424-0.73-0.889-1.076-1.338c-0.461-0.6-0.938-1.219-1.463-1.761c-0.341-0.352-1.528-1.497-2.498-1.497  c-0.231,0-0.435,0.065-0.606,0.195c-0.178,0.134-0.345,0.284-0.506,0.428c-0.378,0.338-0.734,0.657-1.102,0.657  c-0.233,0-0.471-0.129-0.724-0.393c0.261-0.214,0.514-0.442,0.759-0.662c0.259-0.233,0.526-0.474,0.8-0.696  c0.134-0.109,0.286-0.157,0.493-0.157c0.137,0,0.282,0.021,0.435,0.044c0.164,0.024,0.333,0.049,0.506,0.049  c0.047,0,0.091-0.027,0.112-0.069c0.021-0.043,0.017-0.094-0.013-0.131c-0.759-0.994-1.54-1.063-2.202-0.21  c-0.14,0.18-0.312,0.335-0.493,0.5c-0.134,0.122-0.272,0.248-0.396,0.384c-0.265,0.291-0.357,0.319-0.521,0.319  c-0.067,0-0.145-0.006-0.238-0.015c-0.064-0.005-0.135-0.011-0.216-0.016c-1.165-0.075-1.685,0.179-2.636,0.897  c-0.369,0.278-0.742,0.55-1.115,0.821c-0.553,0.403-1.125,0.819-1.672,1.252c-0.126,0.1-0.261,0.195-0.397,0.292  c-0.245,0.174-0.499,0.354-0.71,0.563c-0.287,0.283-0.487,0.716-0.664,1.098c-0.065,0.141-0.128,0.277-0.192,0.399  c-0.102,0.195-0.213,0.39-0.324,0.585c-0.428,0.751-0.87,1.528-0.884,2.399l-0.017,1.018c-0.015,0.911-0.03,1.822-0.042,2.733  c-0.003,0.229-0.013,0.46-0.023,0.692c-0.04,0.893-0.08,1.815,0.282,2.653c0.005,0.012,0.012,0.023,0.021,0.033l-0.032,0.002  c-0.066,0.004-0.117,0.059-0.117,0.125c0,0.15-0.001,0.302-0.002,0.454c-0.008,1.042-0.016,2.121,0.348,3.128  c0.17,0.473,0.413,0.874,0.721,1.193c0.086,0.089,0.163,0.147,0.224,0.194c0.135,0.104,0.16,0.122,0.111,0.367  c-0.04,0.176-0.071,0.355-0.093,0.535c-0.01,0.1-0.015,0.195-0.019,0.285c-0.021,0.383-0.034,0.637-0.387,0.898  c-0.375,0.279-0.741,0.64-1.149,1.135c-0.531,0.644-1.019,1.335-1.49,2.005c-0.128,0.182-0.257,0.365-0.386,0.546  c-0.004-0.021-0.008-0.041-0.011-0.062c-0.104-0.566-0.234-1.271-0.66-1.339c-0.035-0.004-0.075,0.006-0.103,0.03  c-0.028,0.025-0.043,0.062-0.042,0.099c0.131,2.923-1.647,5.467-3.48,7.821c-1.503,1.931-3.775,3.164-6.755,3.667  c0.13-0.115,0.307-0.189,0.491-0.265c0.362-0.15,0.772-0.32,0.843-0.856c0.006-0.045-0.013-0.09-0.05-0.117  c-0.038-0.026-0.085-0.031-0.127-0.012c-0.115,0.054-0.23,0.107-0.346,0.16c-0.353,0.162-0.718,0.329-1.063,0.53  c-0.215,0.126-0.37,0.301-0.519,0.47c-0.142,0.16-0.276,0.312-0.455,0.418c-0.277,0.164-0.6,0.252-0.911,0.337l-0.216,0.06  c-0.128,0.037-0.231,0.079-0.319,0.115c-0.096,0.04-0.171,0.071-0.228,0.071c-0.036,0-0.082-0.012-0.157-0.08  c0.771-0.364,1.519-0.805,2.154-1.193c0.28-0.171,0.506-0.38,0.725-0.583c0.315-0.292,0.613-0.568,1.025-0.675  c0.305-0.079,0.624-0.141,0.932-0.201c0.629-0.123,1.281-0.249,1.878-0.532c0.817-0.386,1.353-1.1,1.871-1.79l0.085-0.113  c1.082-1.435,2.19-3.041,2.971-5.069c0.056-0.146,0.114-0.291,0.171-0.436c0.307-0.772,0.624-1.57,0.692-2.443  c0.004-0.046,0.01-0.109,0.017-0.185c0.111-1.148,0.108-1.879-0.247-1.972c-0.035-0.009-0.069-0.004-0.097,0.015  c-0.029,0.018-0.049,0.047-0.057,0.08c-0.081,0.371-0.151,0.732-0.22,1.086c-0.284,1.456-0.552,2.832-1.406,4.202  c-0.183,0.292-0.361,0.589-0.54,0.886c-0.734,1.22-1.494,2.481-2.545,3.474c-0.538,0.508-1.259,1.115-2.066,1.296  c-0.179,0.04-0.376,0.059-0.623,0.059c-0.129,0-0.259-0.005-0.388-0.01c-0.132-0.005-0.263-0.01-0.395-0.01  c-0.331,0-0.722,0.027-1.116,0.225c-0.488,0.247-0.976,0.577-1.448,0.896c-0.277,0.188-0.564,0.382-0.841,0.552  c-0.076,0.046-0.161,0.094-0.25,0.145c-0.538,0.303-1.351,0.761-1.023,1.562c0.014,0.035,0.043,0.062,0.08,0.072  c0.035,0.01,0.075,0.005,0.106-0.016l1.594-1.087c0.043-0.03,0.064-0.083,0.051-0.134c-0.011-0.042-0.042-0.075-0.082-0.088  c0.657-0.262,1.302-0.522,1.938-0.789l0.046-0.02c0.316-0.133,0.724-0.3,1.063-0.274c-0.575,0.313-1.149,0.625-1.726,0.935  c-0.186,0.1-0.382,0.17-0.59,0.244c-0.272,0.097-0.553,0.197-0.821,0.37l-0.157,0.1c-0.618,0.389-1.767,1.114-1.832,1.905  c-0.023,0.286,0.097,0.548,0.356,0.779c0.003,0.003,0.007,0.006,0.011,0.009c0.015,0.011,0.032,0.018,0.049,0.021  c0.008,0.001,0.016,0.002,0.024,0.002s0.017-0.001,0.025-0.002c0.005-0.001,0.011-0.002,0.016-0.004c0,0,0,0,0.001,0  c0.841-0.271,1.71-0.5,2.551-0.722c2.452-0.646,4.988-1.313,7.02-3.102c1.882-1.657,3.221-3.777,4.516-5.829  c0.563-0.891,1.145-1.813,1.763-2.682c0.519-0.731,1.098-1.439,1.658-2.124l0.09-0.11c0.146-0.179,0.313-0.355,0.489-0.542  c0.444-0.471,0.904-0.957,1.097-1.548c0.09-0.28,0.494-1.801,0.229-2.278c-0.082-0.147-0.166-0.292-0.25-0.437  c-0.321-0.551-0.624-1.072-0.774-1.69c-0.188-0.771-0.148-1.58-0.11-2.363c0.045-0.915,0.091-1.861-0.218-2.767  c-0.505-1.482-0.097-3.342,0.255-4.613c0.673-2.432,2.679-4.027,4.619-5.57l0.388-0.31c0.383-0.307,0.971-0.721,1.645-0.772  c0.337-0.025,0.526,0.105,0.768,0.275c0.121,0.085,0.247,0.174,0.405,0.251c0.476,0.232,1.085,0.246,1.601,0.036  c0.279-0.113,0.49-0.311,0.694-0.501c0.201-0.188,0.39-0.365,0.631-0.454c0.045-0.016,0.092-0.024,0.145-0.024  c0.7,0,1.791,1.412,2.377,2.17c0.138,0.179,0.254,0.329,0.339,0.429c0.866,1.015,1.752,2.13,2.635,3.313  c0.79,1.059,1.515,2.189,2.215,3.282c0.857,1.337,1.744,2.719,2.76,3.988c4.52,5.645,9.091,8.401,14.004,8.424  c2.262,0,4.729-1.345,5.068-3.916C91.746,57.527,91.361,56.121,90.493,54.862z M51.327,60.383c-0.193-0.606-0.361-1.202-0.509-1.8  c0.082,0.307,0.171,0.61,0.259,0.909c0.087,0.296,0.173,0.593,0.253,0.891L51.327,60.383z M50.39,55.005  c0.006,0.71,0.025,1.435,0.125,2.147c0.009,0.065,0.019,0.129,0.029,0.194c-0.094-0.477-0.176-0.96-0.249-1.457  c-0.009-0.062-0.062-0.107-0.124-0.107c-0.002,0-0.005,0-0.008,0l-0.01,0C50.294,55.662,50.361,55.38,50.39,55.005z M16.828,36.274  c0.007-0.013,0.014-0.031,0.019-0.05l0.385-0.596c0.524-0.811,1.049-1.622,1.569-2.435c0.346-0.541,0.71-1.128,1.027-1.763  c0.142-0.285,0.304-0.455,0.433-0.455c0.113,0,0.235,0.138,0.343,0.388c0.457,1.063-0.255,1.826-1.161,2.644  c-0.363,0.327-0.718,0.664-1.074,1c-0.554,0.525-1.123,1.064-1.717,1.561C16.703,36.487,16.761,36.39,16.828,36.274z"></path><path d="M19.626,45.963c-0.032,0.012-0.057,0.037-0.07,0.068c-0.316,0.756,1.287,1.61,2.814,2.352  c0.248,0.12,0.444,0.215,0.552,0.278c0.279,0.163,0.472,0.402,0.677,0.655c0.189,0.234,0.384,0.477,0.657,0.661  c0.272,0.184,0.547,0.199,0.784,0.199l0.202-0.001c0.187,0,0.343,0.013,0.496,0.074c0.264,0.106,0.48,0.306,0.708,0.518  c0.22,0.204,0.448,0.416,0.732,0.55c0.525,0.25,1.145,0.343,1.806,0.275c0.666-0.069,1.306-0.271,1.925-0.467  c0.703-0.222,1.43-0.452,2.181-0.478c1.079-0.039,2.629,0.441,3.214,1.356c0.832,1.298,1.579,2.618,2.262,3.851  c0.074,0.133,0.147,0.271,0.221,0.409c0.277,0.521,0.564,1.059,0.945,1.5c0.44,0.512,1.161,0.735,1.796,0.932  c0.096,0.03,0.189,0.059,0.279,0.088c0.13,0.042,0.261,0.089,0.392,0.137c0.438,0.157,0.89,0.32,1.363,0.32  c0.185,0,0.359-0.024,0.531-0.074c0.444-0.129,0.829-0.386,1.201-0.634c0.035-0.023,0.07-0.047,0.105-0.07l0.42,3.718  c0.006,0.057,0.051,0.103,0.108,0.11c0.005,0,0.011,0.001,0.016,0.001c0.051,0,0.098-0.031,0.117-0.08  c0.564-1.465,0.354-2.456-0.06-3.913c-0.192-0.677-0.277-1.382-0.36-2.064c-0.084-0.696-0.172-1.415-0.372-2.111l-0.089-0.311  c-0.376-1.316-0.765-2.677-1.322-3.91c-0.631-1.397-1.014-2.463-1.105-3.776l-0.002-0.032c-0.096-1.388-0.179-2.587-0.761-3.919  c-0.239-0.546-0.499-1.094-0.75-1.623c-0.338-0.713-0.688-1.45-0.989-2.192c-0.568-1.395-0.696-2.587-0.393-3.645  c0.137-0.477,0.434-0.934,0.721-1.376c0.436-0.671,0.887-1.366,0.823-2.173c-0.004-0.049-0.036-0.091-0.082-0.107  c-0.044-0.017-0.097-0.006-0.132,0.029c-0.916,0.922-1.773,2.398-2.217,3.453c-0.554,1.316-0.514,2.598,0.117,3.707  c0.789,1.387,1.456,2.887,2.02,4.184l0.039,0.089c0.449,1.033,0.912,2.099,0.903,3.231c-0.323-0.259-0.642-0.385-0.968-0.385  c-0.634,0-1.167,0.472-1.732,0.971c-0.143,0.126-0.289,0.255-0.437,0.376c-0.508-0.763-1.399-1.539-2.258-1.539  c-0.372,0-0.708,0.143-1.001,0.425c-0.034,0.033-0.046,0.082-0.032,0.127c0.014,0.045,0.053,0.079,0.1,0.086  c1.082,0.171,1.944,0.389,2.375,1.479c0.212,0.539,0.295,0.813,0.254,1.359c-0.037,0.481-0.071,0.963-0.106,1.445l-0.044,0.608  c-0.004,0.05,0.022,0.097,0.066,0.12c0,0.003,0.001,0.006,0.002,0.009l1.876,5.587c0.188,0.567,0.29,0.74,0.439,0.74  c0.117,0,0.167-0.104,0.19-0.208l3.919,1.269c-0.479,0.371-1.076,0.404-1.947,0.095c-0.226-0.08-0.465-0.148-0.719-0.22  c-0.485-0.137-0.986-0.279-1.374-0.511c-0.454-0.271-0.655-0.801-0.849-1.314c-0.041-0.108-0.081-0.214-0.123-0.315  c-0.257-0.625-0.603-1.154-0.97-1.713l-0.08-0.123c-0.805-1.232-1.638-2.507-2.92-3.322c-0.173-0.11-0.297-0.256-0.428-0.411  c-0.198-0.234-0.404-0.476-0.785-0.594c-0.294-0.09-0.674-0.076-1.027-0.042c-0.047,0.004-0.096,0.009-0.144,0.014l1.198-0.638  c0,0,0,0,0.001,0c0.012-0.006,0.022-0.014,0.032-0.023c0.012-0.012,0.022-0.027,0.028-0.043c0,0,0,0,0,0s0,0,0,0c0,0,0,0,0,0  c0.005-0.014,0.008-0.029,0.008-0.044c0-0.006,0-0.012-0.001-0.018v0c-0.001-0.01-0.004-0.02-0.008-0.03l-0.098-0.237  c-0.026-0.063-0.097-0.094-0.16-0.07c-0.252,0.095-0.492,0.195-0.728,0.293c-0.696,0.291-1.354,0.565-2.166,0.621  c-0.059,0.004-0.119,0.006-0.179,0.006c-0.896,0-1.835-0.415-2.315-0.662c-0.82-0.424-1.475-1.091-1.75-1.784  c-0.077-0.192-0.063-0.631-0.049-1.056c0.026-0.783,0.027-1.269-0.251-1.376c-0.032-0.013-0.066-0.012-0.097,0.003  c-0.031,0.014-0.054,0.04-0.065,0.072c-0.564,1.582-0.12,2.601,0.622,3.976c0.386,0.716,0.688,0.889,1.459,1.077  c0.427,0.104,0.863,0.196,1.286,0.284c0.136,0.028,0.272,0.057,0.408,0.086c-0.813,0.705-1.905,0.875-2.821,0.413  c-0.219-0.111-0.427-0.24-0.629-0.366c-0.294-0.182-0.598-0.371-0.944-0.509c-0.193-0.078-0.415-0.135-0.628-0.191  c-0.294-0.077-0.598-0.156-0.827-0.286c-0.137-0.078-0.265-0.305-0.389-0.525c-0.125-0.221-0.254-0.45-0.421-0.592  c-0.364-0.31-0.785-0.521-1.257-0.747c-0.459-0.219-0.919-0.455-1.364-0.684c-0.486-0.249-0.988-0.507-1.495-0.746  C19.694,45.953,19.658,45.952,19.626,45.963z M39.159,49.283c0.004-0.105-0.016-0.239-0.036-0.38  c-0.021-0.147-0.05-0.344-0.037-0.478l0.165,0.36c0.018,0.039,0.055,0.066,0.097,0.072c0.042,0.003,0.085-0.012,0.113-0.044  c0.295-0.355,0.192-0.669,0.11-0.921c-0.098-0.299-0.156-0.479,0.4-0.724c0.114-0.05,0.234-0.109,0.358-0.169  c0.364-0.179,0.776-0.381,1.107-0.381c0.188,0,0.459,0.055,0.632,0.529c0.281,0.771,0.515,1.579,0.742,2.36  c0.194,0.67,0.396,1.363,0.625,2.033c0.307,0.892,0.624,1.78,0.941,2.668c0.159,0.447,0.319,0.894,0.477,1.342  c-0.207,0.074-0.402,0.167-0.592,0.257c-0.38,0.181-0.74,0.351-1.141,0.351c-0.14,0-0.276-0.02-0.417-0.062  c-0.607-0.182-1.187-0.563-1.748-0.932c-0.183-0.12-0.363-0.239-0.535-0.344c-0.067-0.064-0.188-0.487-0.24-0.667  c-0.037-0.127-0.067-0.233-0.087-0.281c-0.192-0.457-0.384-0.913-0.577-1.369c-0.05-0.117-0.099-0.266-0.151-0.427  c-0.178-0.542-0.396-1.205-0.843-1.374C38.92,50.329,39.139,49.841,39.159,49.283z"></path><path d="M49.187,27.817c-0.009-0.003-0.019-0.006-0.028-0.007c-0.444-0.075-0.989,0.307-1.511,0.68  c-0.352,0.252-0.716,0.512-1.006,0.591c-0.309,0.083-0.647,0.122-1.067,0.122c-0.295,0-0.598-0.019-0.891-0.038  c-0.292-0.019-0.595-0.038-0.888-0.038c-0.046,0-0.089,0.026-0.111,0.067c-0.021,0.041-0.019,0.091,0.008,0.129  c0.448,0.652,0.642,0.811,1.522,0.876c0.127,0.01,0.255,0.014,0.382,0.014c0.505,0,0.999-0.074,1.47-0.219  c0.592-0.183,1.162-0.482,1.692-0.89c0.248-0.19,0.328-0.511,0.399-0.793c0.031-0.121,0.059-0.235,0.098-0.331c0,0,0,0,0,0  C49.281,27.916,49.25,27.843,49.187,27.817z"></path><path d="M47.628,58.762c0.014,0.211,0.028,0.422,0.041,0.633c0.037,0.576,0.074,1.17,0.136,1.755  c0.065,0.615,0.368,0.982,0.812,0.982c0.492,0,1.094-0.499,1.208-1.241c0.007-0.044-0.01-0.088-0.045-0.116  c-0.035-0.029-0.083-0.036-0.123-0.02c-0.493,0.188-0.747,0.466-1.052,0.817c-0.133-0.696-0.183-1.406-0.232-2.095  c-0.065-0.921-0.133-1.874-0.397-2.8c0-0.001-0.001-0.002,0-0.003l0,0c0,0,0,0,0-0.001c-0.002-0.006-0.004-0.012-0.007-0.018l0,0  c-0.027-0.055-0.092-0.083-0.148-0.065c0,0,0,0,0,0s0,0,0,0c-0.405,0.124-0.343,0.898-0.229,1.821  C47.607,58.555,47.622,58.677,47.628,58.762z"></path><path d="M13.461,41.469c-0.006,0.056,0.027,0.109,0.08,0.129c0.015,0.005,0.03,0.008,0.045,0.008c0.039,0,0.077-0.018,0.101-0.051  c0.308-0.42,0.781-0.494,1.282-0.573c0.564-0.088,1.204-0.189,1.615-0.837c0.021-0.033,0.025-0.073,0.012-0.109  c-0.013-0.037-0.043-0.065-0.08-0.077c-0.296-0.094-0.6-0.143-0.902-0.143C14.466,39.817,13.56,40.512,13.461,41.469z"></path><path d="M33.772,45.933c0.046,0.008,0.11,0.013,0.185,0.013c0.074,0,0.731-0.009,0.93-0.329c0.049-0.08,0.09-0.211,0.004-0.387  c-0.114-0.23-0.29-0.279-0.418-0.279c-0.196,0-0.403,0.111-0.579,0.225c-0.033-0.035-0.08-0.058-0.129-0.059  c-0.016-0.087-0.032-0.181-0.048-0.276c-0.111-0.667-0.237-1.422-0.731-1.659c-0.032-0.016-0.07-0.016-0.104-0.002  c-0.033,0.015-0.059,0.042-0.069,0.077c-0.146,0.46-0.106,1.504,0.288,2.158C33.279,45.71,33.505,45.884,33.772,45.933z"></path><path d="M19.725,40.023c-0.054-0.054-0.125-0.083-0.204-0.083c-0.004,0-0.031,0.001-0.035,0.001  c-0.064,0.006-0.113,0.06-0.113,0.125c0,1.114,0.069,1.974,0.419,3.077c0.011,0.036,0.038,0.064,0.073,0.078  c0.027,0.011,0.057,0.012,0.085,0.003c0.013,0.004,0.025,0.006,0.039,0.006c0.021,0,0.042-0.005,0.06-0.016  c0.195-0.106,0.318-0.25,0.368-0.426c0.102-0.365-0.131-0.771-0.337-1.129c-0.066-0.115-0.129-0.224-0.171-0.319  c-0.052-0.116-0.049-0.353-0.047-0.563C19.865,40.464,19.868,40.167,19.725,40.023z"></path><path d="M48.827,55.599c0.02-0.046,0.009-0.1-0.026-0.136c-0.555-0.565-0.92-0.566-1.456,0.001c-0.034,0.037-0.044,0.09-0.024,0.135  c0.02,0.046,0.065,0.076,0.115,0.076h1.275C48.762,55.675,48.807,55.645,48.827,55.599z"></path><path d="M65.746,81.875c-5.397-0.082-12.575-0.126-20.209-0.126s-14.812,0.045-20.209,0.126c-8.493,0.128-8.493,0.255-8.493,0.431  s0,0.302,8.493,0.43c5.401,0.082,12.578,0.127,20.209,0.127c7.631,0,14.808-0.045,20.209-0.127c8.493-0.128,8.493-0.255,8.493-0.43  S74.239,82.003,65.746,81.875z"></path></svg>