<svg fill="#5F327C" xmlns="http://www.w3.org/2000/svg" xmlns:xlink="http://www.w3.org/1999/xlink" version="1.1" x="0px" y="0px" viewBox="0 0 100 100" enable-background="new 0 0 100 100" xml:space="preserve"><g><g><g><path d="M33.378,72.573c-2.479,0-4.652-0.789-6.396-2.282c-1.981,1.358-3.975,1.812-5.586,0.715     c-3.13-2.132-5.814-3.506-8.738-3.244c-0.725,0.065-1.595,0.193-1.885,0.967c-0.197,0.524,0.387,0.58,2.03,0.87     c2.884,0.509,5.162,3.688,6.285,5.318c3.291,4.778,10.815,2.446,16.634-2.686C34.885,72.446,34.089,72.573,33.378,72.573z"></path></g><g><path d="M87.341,67.761c-2.924-0.262-5.608,1.112-8.738,3.244c-1.611,1.097-3.605,0.644-5.586-0.715     c-1.743,1.493-3.917,2.282-6.396,2.282c-0.711,0-1.507-0.126-2.345-0.343c5.819,5.131,13.343,7.463,16.634,2.686     c1.123-1.63,3.401-4.809,6.285-5.318c1.644-0.29,2.227-0.346,2.03-0.87C88.937,67.954,88.066,67.826,87.341,67.761z"></path></g><g><path d="M91.17,25.24c-1.95,0.73-11.93,5.57-11.47,16.39c0.628,14.644-8.062,13.578-12.533,8.91     c-2.044-2.133-3.505-5.12-3.877-8.616c-0.02-0.21,0-0.5,0.15-0.66c0.11-0.12,0.28-0.24,0.47-0.31     c0.28-0.11,0.976-0.098,1.447-0.121c1.78-0.086,3.633-2.004,3.633-4.244v-0.56c0-1.5-0.7-2.75-1.92-3.46     c-0.14-0.08-0.26-0.23-0.31-0.38c-0.06-0.15,0-0.39,0.07-0.53c1.22-2.48,1.82-5.06,1.82-8.01C68.65,13.35,60.3,5,50,5     s-18.65,8.35-18.65,18.65c0,2.95,0.6,5.53,1.82,8.01c0.07,0.14,0.13,0.38,0.07,0.53c-0.05,0.15-0.17,0.3-0.31,0.38     c-1.22,0.71-1.92,1.96-1.92,3.46v0.56c0,2.24,1.853,4.157,3.633,4.244c0.471,0.023,1.167,0.011,1.447,0.121     c0.19,0.07,0.36,0.19,0.47,0.31c0.15,0.16,0.17,0.45,0.15,0.66c-0.371,3.495-1.833,6.483-3.877,8.616     c-4.471,4.667-13.162,5.734-12.533-8.91c0.46-10.82-9.52-15.66-11.47-16.39c-2.73-1.03-3.74-0.54-3.74-0.03     c0,0.62,1.23,0.76,2.25,1.49c7.42,5.31,7.45,8.19,6.36,14.44c-2.212,12.66,2.95,20.978,9.622,23.057     c-0.586-2.031-0.889-4.389-0.887-7.076c0-0.198-0.005-0.368-0.008-0.514c-0.018-0.663-0.042-1.572,1.058-1.974     c0.165-0.06,0.335-0.091,0.504-0.091c1.186,0,1.597,1.324,1.748,1.81c1.447,4.461,3.52,7,6.024,7.421     c1.623-0.629,2.502-1.797,3.113-3.342c-0.272,1.341-0.875,2.471-1.705,3.37c3.874-0.419,6.615-4.463,6.192-7.802     c0.808,3.682-2.158,8.844-6.849,8.844c-2.895,0-5.792-2.218-7.726-8.182c-0.172-0.554-0.408-1.119-0.797-1.119     c-0.051,0-0.104,0.01-0.161,0.03c-0.526,0.192-0.392,0.462-0.393,1.549c-0.002,3.107,0.413,5.636,1.13,7.671     c0.06,0.169,0.12,0.339,0.184,0.5c0.037,0.093,0.078,0.179,0.115,0.27c0.759,1.787,1.776,3.134,2.974,4.085     c-0.012,0.01-0.025,0.018-0.037,0.028c1.607,1.303,3.535,1.896,5.578,1.896c4.778,0,12.094-4.486,14.944-10.098     c-1.623,4.202-5.625,7.687-9.477,9.575c-0.335,1.094-0.712,2.223-1.182,3.429c-4.144,10.634,7.02,13.257,0.846,16.978     c-3.567,2.15-5.671-1.524-6.255-1.052c-0.75,0.606,0.689,2.649,1.752,3.247c2.406,1.353,6.055,1.766,9.404-1.428     c5.058-4.823-2.8-8.989,2.971-16.62C49.742,71.161,50,64.801,50,64.801s0.258,6.36,3.619,10.804     c5.771,7.631-2.086,11.796,2.971,16.62c3.349,3.194,6.997,2.781,9.404,1.428c1.063-0.598,2.502-2.641,1.752-3.247     c-0.584-0.472-2.687,3.201-6.255,1.052c-6.175-3.721,4.99-6.343,0.846-16.978c-0.47-1.207-0.847-2.335-1.182-3.429     c-3.852-1.887-7.854-5.372-9.477-9.575c2.85,5.613,10.166,10.098,14.944,10.098c2.043,0,3.971-0.593,5.578-1.896     c-0.012-0.01-0.025-0.018-0.037-0.028c1.198-0.952,2.215-2.299,2.974-4.085c0.038-0.091,0.079-0.177,0.115-0.27     c0.065-0.161,0.124-0.332,0.184-0.5c0.716-2.035,1.132-4.564,1.13-7.671c-0.001-1.086,0.133-1.357-0.393-1.549     c-0.056-0.021-0.11-0.03-0.161-0.03c-0.389,0-0.625,0.565-0.797,1.119c-1.935,5.964-4.831,8.182-7.726,8.182     c-4.691,0-7.657-5.162-6.849-8.844c-0.423,3.338,2.318,7.383,6.192,7.802c-0.83-0.898-1.433-2.029-1.705-3.37     c0.612,1.545,1.49,2.713,3.113,3.342c2.504-0.421,4.577-2.96,6.024-7.421c0.151-0.486,0.562-1.81,1.748-1.81     c0.169,0,0.339,0.031,0.504,0.091c1.101,0.402,1.076,1.31,1.058,1.974c-0.004,0.146-0.009,0.316-0.008,0.514     c0.002,2.687-0.301,5.045-0.887,7.076C83.35,62.118,88.512,53.8,86.3,41.14c-1.09-6.25-1.06-9.13,6.36-14.44     c1.02-0.73,2.25-0.87,2.25-1.49C94.91,24.7,93.9,24.21,91.17,25.24z M35.95,38.568c-1.148,0-2.079-0.931-2.079-2.079     s0.931-2.079,2.079-2.079s2.079,0.931,2.079,2.079S37.098,38.568,35.95,38.568z M61.971,36.49c0-1.148,0.931-2.079,2.079-2.079     s2.079,0.931,2.079,2.079s-0.931,2.079-2.079,2.079S61.971,37.638,61.971,36.49z"></path></g></g></g></svg>