<svg fill="#B36AE2" xmlns="http://www.w3.org/2000/svg" xmlns:xlink="http://www.w3.org/1999/xlink" version="1.1" x="0px" y="0px" viewBox="0 0 100 100" enable-background="new 0 0 100 100" xml:space="preserve"><path d="M65.797,25.733c0.103-0.01,0.203-0.015,0.301-0.06c0.471-0.215,1.064-0.744,1.618-1.986  c1.434-1.927,3.323-4.707,4.002-6.794c0.189-0.582,0.226-1.17,0.108-1.67c-0.176-0.745-0.671-1.186-1.291-1.245  c0.59-1.432,1.07-2.854,1.269-4.052c0.118-0.717,0.054-1.413-0.175-1.979c-0.362-0.905-1.095-1.341-1.901-1.22  c0.008-0.041,0.02-0.084,0.025-0.125c0.116-0.717,0.054-1.413-0.174-1.979c-0.492-1.222-1.651-1.595-2.764-0.886  c-0.514,0.328-0.968,0.857-1.291,1.507c-0.619,1.259-1.105,2.979-1.483,4.739c0.022-0.765,0.005-1.489-0.084-2.113  c-0.084-0.613-0.311-1.161-0.639-1.563c-0.709-0.87-1.746-0.88-2.469-0.025c-0.335,0.396-0.572,0.941-0.668,1.551  c-0.347,2.189,0.077,5.556,0.481,7.946c-0.071,1.369,0.221,2.119,0.547,2.526c0.149,0.188,0.356,0.282,0.572,0.326  c0.168,0.904,0.417,1.885,0.788,2.818c-0.279,1.688-0.641,3.707-1.096,5.996c-0.856-1.515-1.335-3.187-1.544-4.062  c0.127-0.091,0.237-0.208,0.32-0.354c0.303-0.532,0.507-1.455,0.174-3.033l-0.001,0.004c0.039-2.85-0.079-6.836-0.877-9.316  c-0.223-0.691-0.597-1.281-1.058-1.679c-0.996-0.863-2.199-0.664-2.864,0.474c-0.308,0.527-0.472,1.206-0.457,1.932  c0.044,2.606,1.221,6.421,2.175,9.106c0-0.003-0.004-0.009-0.004-0.009c0.195,1.602,0.685,2.409,1.146,2.816  c0.171,0.151,0.375,0.233,0.583,0.266c0.204,0.868,0.646,2.446,1.458,3.977c0.205,0.388,0.439,0.766,0.695,1.133  c-0.996,4.833-2.392,10.721-4.305,17.142c-0.305-1.01-0.447-1.952-0.507-2.485c0.08-0.056,0.162-0.109,0.225-0.192  c0.299-0.407,0.553-1.143,0.434-2.465L57.066,40.7c0.304-2.325,0.592-5.598,0.176-7.7c-0.114-0.587-0.364-1.105-0.703-1.475  c-0.73-0.801-1.733-0.754-2.387,0.114c-0.303,0.4-0.501,0.939-0.562,1.535c-0.211,2.135,0.384,5.365,0.905,7.651l-0.001-0.004  c0.006,1.33,0.328,2.035,0.665,2.413c0.104,0.117,0.232,0.197,0.367,0.249c0.091,0.788,0.336,2.326,0.961,3.779  c-0.207,0.671-0.42,1.35-0.637,2.031c-1.357-1.486-2.248-3.453-2.633-4.42c0.11-0.108,0.204-0.24,0.265-0.395  c0.224-0.571,0.293-1.513-0.263-3.029c0,0,0,0.005,0,0.006c-0.37-2.825-1.058-6.755-2.204-9.096  c-0.319-0.652-0.775-1.183-1.288-1.512c-1.109-0.71-2.271-0.341-2.766,0.881c-0.229,0.567-0.293,1.261-0.177,1.978  c0.417,2.572,2.129,6.174,3.459,8.695l-0.004-0.002c0.422,1.557,1.023,2.286,1.536,2.622c0.191,0.125,0.404,0.179,0.615,0.181  c0.181,0.46,0.464,1.122,0.859,1.866c0.551,1.041,1.326,2.212,2.298,3.168c-1.438,4.435-3.122,9.056-5.082,13.704  c-0.251-0.996-0.296-1.973-0.3-2.439c0.029-0.024,0.065-0.034,0.093-0.065c0.263-0.293,0.516-0.846,0.521-1.88  c0,0-0.003,0.006-0.003,0.008c0.413-1.784,0.882-4.307,0.717-5.979c-0.043-0.463-0.2-0.885-0.434-1.199  c-0.507-0.677-1.29-0.715-1.864-0.092c-0.264,0.289-0.46,0.692-0.551,1.15c-0.327,1.644-0.106,4.194,0.129,6.013l-0.002-0.002  c-0.097,1.033,0.103,1.608,0.336,1.925c0.046,0.063,0.111,0.101,0.17,0.146c0.006,0.682,0.09,2.256,0.661,3.648  c-0.351,0.812-0.71,1.623-1.079,2.436c-0.846-1.398-1.301-3.017-1.489-3.816c0.09-0.075,0.171-0.162,0.232-0.27  c0.268-0.465,0.447-1.27,0.159-2.651c0,0,0,0.006-0.002,0.008c0.038-2.491-0.055-5.982-0.748-8.153  c-0.194-0.606-0.521-1.123-0.922-1.472c-0.87-0.757-1.923-0.584-2.505,0.41c-0.271,0.459-0.415,1.052-0.405,1.689  c0.032,2.274,1.054,5.608,1.882,7.959c0.169,1.403,0.595,2.107,0.997,2.466c0.132,0.117,0.288,0.188,0.449,0.224  c0.175,0.761,0.563,2.173,1.288,3.539c0.185,0.349,0.4,0.688,0.629,1.016c-0.495,1.073-1.008,2.146-1.535,3.217  c-0.016,0.002-0.027,0.006-0.043,0.008l0.01,0.06c-2.136,4.322-4.529,8.591-7.214,12.678c-0.074-0.91-0.038-1.721,0-2.186  c0.072-0.036,0.149-0.063,0.216-0.123c0.351-0.325,0.72-0.959,0.846-2.21c0,0-0.003,0.002-0.003,0.004  c0.701-2.105,1.554-5.09,1.548-7.12c-0.001-0.564-0.143-1.091-0.388-1.495c-0.536-0.873-1.477-1.008-2.236-0.322  c-0.354,0.318-0.635,0.782-0.799,1.324c-0.582,1.945-0.606,5.055-0.531,7.271c0.001,0-0.002-0.008-0.002-0.008  c-0.231,1.233-0.06,1.948,0.186,2.356c0.072,0.119,0.167,0.212,0.272,0.285c-0.053,0.684-0.102,1.994,0.143,3.351  c-0.3,0.448-0.603,0.888-0.91,1.329c-0.084,0.117-0.163,0.239-0.244,0.358c-0.595-1.293-0.895-2.644-1.023-3.356  c0.094-0.069,0.179-0.15,0.246-0.254c0.291-0.453,0.51-1.249,0.297-2.644l-0.002,0.01c0.17-2.485,0.259-5.977-0.32-8.181  c-0.161-0.616-0.46-1.149-0.844-1.52c-0.829-0.8-1.89-0.683-2.523,0.279c-0.293,0.443-0.467,1.028-0.494,1.666  c-0.084,2.273,0.763,5.659,1.468,8.05l-0.002-0.004c0.094,1.406,0.481,2.137,0.862,2.514c0.129,0.124,0.278,0.203,0.438,0.247  c0.152,0.852,0.525,2.511,1.322,4.038c-2.545,3.741-4.96,7.75-7.226,11.987h2.357c2.027-3.72,4.168-7.259,6.416-10.579  c1.971,0.103,4.021-0.678,4.897-1.065c0.104,0.081,0.226,0.141,0.361,0.166c0.47,0.097,1.2,0.024,2.288-0.602  c0,0-0.013,0.004-0.017,0.002c2.12-0.658,5.05-1.705,6.696-2.897c0.461-0.331,0.806-0.753,0.989-1.188  c0.398-0.946-0.04-1.788-1.041-2.006c-0.463-0.1-1.007-0.06-1.541,0.127c-1.921,0.663-4.457,2.453-6.215,3.808  c0.001-0.002,0.006-0.006,0.006-0.006c-1.139,0.531-1.619,1.088-1.81,1.525c-0.034,0.081-0.032,0.162-0.045,0.245  c-0.706,0.313-2.339,0.946-3.971,1.008c0.123-0.18,0.244-0.364,0.367-0.54c0.462-0.662,0.903-1.335,1.352-2.007  c1.512-0.667,2.787-1.76,3.378-2.316c0.124,0.039,0.258,0.054,0.397,0.033c0.471-0.063,1.136-0.374,1.953-1.329  c0,0-0.01,0.007-0.012,0.007c1.778-1.327,4.187-3.292,5.344-4.967c0.321-0.464,0.508-0.975,0.534-1.448  c0.062-1.023-0.634-1.671-1.648-1.543c-0.473,0.06-0.97,0.279-1.411,0.632c-1.589,1.266-3.383,3.799-4.587,5.662l0.001-0.004  c-0.896,0.877-1.161,1.564-1.195,2.038c-0.006,0.089,0.021,0.168,0.04,0.249c-0.347,0.325-0.973,0.878-1.754,1.398  c2.607-4.081,4.933-8.308,6.996-12.544c1.375-0.596,2.531-1.414,3.135-1.883c0.147,0.075,0.313,0.118,0.491,0.112  c0.536-0.023,1.315-0.301,2.329-1.279c0,0-0.019,0.008-0.022,0.01c2.13-1.295,5.042-3.235,6.517-4.986  c0.407-0.487,0.67-1.04,0.752-1.566c0.177-1.137-0.528-1.935-1.682-1.899c-0.532,0.018-1.11,0.21-1.645,0.555  c-1.91,1.243-4.186,3.886-5.732,5.838v-0.002c-1.095,0.89-1.466,1.628-1.555,2.157c-0.021,0.122-0.013,0.241,0.012,0.354  c-0.416,0.32-1.122,0.825-1.979,1.297c1.002-2.109,1.938-4.215,2.817-6.302c0.908-0.612,1.632-1.275,2.035-1.676  c0.127,0.04,0.262,0.05,0.401,0.026c0.476-0.077,1.137-0.408,1.934-1.393l-0.005,0.002c1.756-1.384,4.125-3.422,5.241-5.135  c0.31-0.478,0.484-0.996,0.501-1.474c0.031-1.034-0.684-1.668-1.703-1.511c-0.473,0.075-0.968,0.309-1.403,0.675  c-1.565,1.315-3.306,3.917-4.471,5.824l0.004-0.008c-0.878,0.911-1.127,1.608-1.147,2.088c-0.005,0.089,0.025,0.168,0.046,0.251  c-0.18,0.179-0.436,0.42-0.753,0.693c1.625-3.99,3.036-7.894,4.247-11.583c1.492-0.713,2.736-1.837,3.314-2.41  c0.125,0.038,0.26,0.049,0.399,0.026c0.477-0.078,1.138-0.41,1.936-1.391c0,0-0.013,0.007-0.017,0.009  c1.755-1.385,4.135-3.428,5.253-5.145c0.312-0.477,0.484-0.996,0.501-1.475c0.031-1.031-0.685-1.666-1.704-1.508  c-0.472,0.074-0.965,0.308-1.402,0.674c-1.563,1.313-3.305,3.913-4.468,5.82c-0.878,0.908-1.128,1.604-1.148,2.084  c-0.003,0.089,0.026,0.167,0.047,0.25c-0.424,0.421-1.277,1.207-2.321,1.843c0.255-0.8,0.504-1.589,0.742-2.365  c0.604-0.744,1.026-1.454,1.314-2.046c0.101-0.011,0.202-0.017,0.301-0.061c0.472-0.215,1.064-0.744,1.618-1.985  c0,0-0.006,0.007-0.007,0.008c1.435-1.928,3.327-4.713,4.008-6.803c0.19-0.581,0.226-1.169,0.108-1.67  c-0.254-1.081-1.175-1.54-2.192-1.091c-0.468,0.209-0.915,0.591-1.266,1.094c-0.288,0.414-0.568,0.903-0.835,1.436  c0.65-2.68,1.204-5.186,1.667-7.462C64.576,27.87,65.349,26.658,65.797,25.733z M65.278,17.405c0.043-0.051,0.087-0.107,0.128-0.166  c-0.019,0.144-0.037,0.283-0.056,0.422c-0.001-0.002,0-0.007,0-0.007c-0.07,0.185-0.128,0.361-0.178,0.53  C65.213,17.897,65.248,17.637,65.278,17.405z M64.922,19.888c0.018,0.322,0.078,0.583,0.159,0.792  c0.044,0.113,0.109,0.211,0.183,0.301c-0.162,0.213-0.372,0.445-0.622,0.69C64.746,21.028,64.84,20.433,64.922,19.888z   M64.416,23.013c0.416-0.308,0.781-0.619,1.063-0.917c-0.041,0.142-0.085,0.281-0.123,0.417c-0.659,1.189-0.725,1.983-0.61,2.488  c0.037,0.161,0.116,0.298,0.216,0.415c-0.292,0.586-0.725,1.297-1.362,2.038C63.918,25.829,64.189,24.341,64.416,23.013z   M62.845,19.742c-0.114-0.439-0.208-0.874-0.282-1.291c0.057-0.044,0.123-0.072,0.171-0.131c0.147-0.18,0.286-0.44,0.395-0.782  c0.012,0.02,0.021,0.041,0.034,0.06C63.081,18.184,62.976,18.902,62.845,19.742z"></path></svg>