<svg xmlns="http://www.w3.org/2000/svg" xmlns:xlink="http://www.w3.org/1999/xlink" xmlns:sketch="http://www.bohemiancoding.com/sketch/ns" viewBox="0 0 100 100" version="1.1" x="0px" y="0px"><title>icon-5</title><desc>Created with Sketch.</desc><g stroke="none" stroke-width="1" fill="none" fill-rule="evenodd" sketch:type="MSPage"><path d="M75.9465248,64.8931878 L24.0438027,64.8931878 L15,40.4894293 C18.8931878,43.105845 23.5553406,44.5809037 28.4931601,44.5809037 C38.3204366,44.5809037 46.1358298,35.2952881 49.9951637,26 C53.8544977,35.2952881 61.6698908,44.5809037 71.4923311,44.5809037 C76.4059693,44.5809037 81.0826309,43.0864999 85,40.4410667 L75.9465248,64.8931878 L75.9465248,64.8931878 Z M77.2571508,74.4447976 L22.6412878,74.4447976 C21.3645157,74.4447976 20.3295564,73.4050021 20.3295564,72.0411773 C20.3295564,70.7644051 21.3645157,69.7294459 22.6412878,69.7294459 L77.2571508,69.7294459 C78.5339229,69.7294459 79.5688821,70.7644051 79.5688821,72.1330662 C79.5688821,73.4050021 78.5339229,74.4447976 77.2571508,74.4447976 L77.2571508,74.4447976 L77.2571508,74.4447976 Z" fill="#F5D327" sketch:type="MSShapeGroup"></path></g></svg>
