<svg xmlns="http://www.w3.org/2000/svg" xmlns:xlink="http://www.w3.org/1999/xlink" version="1.1" x="0px" y="0px" viewBox="0 0 24 24" style="enable-background:new 0 0 24 24;" xml:space="preserve"><g><g><path d="M8.5,14C8.224,14,8,13.776,8,13.5v-2C8,11.224,8.224,11,8.5,11S9,11.224,9,11.5v2C9,13.776,8.776,14,8.5,14z"></path></g><g><path d="M22.5,11h-10c-0.276,0-0.5-0.224-0.5-0.5s0.224-0.5,0.5-0.5h10c0.276,0,0.5,0.224,0.5,0.5S22.776,11,22.5,11z"></path></g><g><path d="M19.5,14c-0.128,0-0.256-0.049-0.354-0.146c-0.195-0.195-0.195-0.512,0-0.707l2.646-2.646l-2.646-2.646    c-0.195-0.195-0.195-0.512,0-0.707s0.512-0.195,0.707,0l3,3c0.195,0.195,0.195,0.512,0,0.707l-3,3    C19.756,13.951,19.628,14,19.5,14z"></path></g><g><g><path d="M15.5,21h-5c-0.276,0-0.5-0.224-0.5-0.5s0.224-0.5,0.5-0.5h5c0.827,0,1.5-0.673,1.5-1.5v-5c0-0.276,0.224-0.5,0.5-0.5     s0.5,0.224,0.5,0.5v5C18,19.878,16.878,21,15.5,21z"></path></g><g><path d="M17.5,8C17.224,8,17,7.776,17,7.5v-5C17,1.673,16.327,1,15.5,1h-12C3.224,1,3,0.776,3,0.5S3.224,0,3.5,0h12     C16.878,0,18,1.122,18,2.5v5C18,7.776,17.776,8,17.5,8z"></path></g><g><path d="M8.5,14C8.224,14,8,13.776,8,13.5v-2C8,11.224,8.224,11,8.5,11S9,11.224,9,11.5v2C9,13.776,8.776,14,8.5,14z"></path></g><g><path d="M8.841,24c-0.295,0-0.582-0.059-0.852-0.175l-5.68-2.435C1.514,21.05,1,20.271,1,19.406V2.159C1,0.969,1.969,0,3.159,0     c0.295,0,0.582,0.059,0.852,0.175l5.68,2.435C10.486,2.95,11,3.729,11,4.594v17.247C11,23.031,10.031,24,8.841,24z M3.159,1     C2.52,1,2,1.52,2,2.159v17.247c0,0.464,0.276,0.883,0.703,1.066l5.681,2.435C8.529,22.969,8.683,23,8.841,23     C9.48,23,10,22.48,10,21.841V4.594c0-0.464-0.276-0.883-0.703-1.066L3.616,1.094C3.471,1.031,3.317,1,3.159,1z"></path></g></g></g></svg>