<svg fill="#7A4900" xmlns:dc="http://purl.org/dc/elements/1.1/" xmlns:cc="http://creativecommons.org/ns#" xmlns:rdf="http://www.w3.org/1999/02/22-rdf-syntax-ns#" xmlns:svg="http://www.w3.org/2000/svg" xmlns="http://www.w3.org/2000/svg" xmlns:sodipodi="http://sodipodi.sourceforge.net/DTD/sodipodi-0.dtd" xmlns:inkscape="http://www.inkscape.org/namespaces/inkscape" viewBox="0 0 100 100" version="1.1" x="0px" y="0px"><g><path style="opacity:1;fill:#7A4900;fill-opacity:1;stroke:none;stroke-width:2;stroke-linejoin:miter;stroke-miterlimit:4;stroke-dasharray:none;stroke-opacity:1" d="M 77.49124,21.960938 C 71.339148,28.457115 65.194182,34.954974 61.264209,41.944955 58.131512,35.36636 54.37553,29.456188 47.985096,26.385925 c 5.376512,6.231482 7.724444,12.464249 9.28563,18.695731 -3.077272,-1.34626 -6.527153,-2.333636 -10.4287,-2.813073 4.588109,1.733493 8.217617,3.820574 11.183831,6.157226 -0.437149,1.066461 -0.892172,2.121026 -1.340152,3.180266 -0.998123,-0.431013 -2.031953,-0.849498 -3.201011,-1.346374 1.014561,0.807424 1.904756,1.662073 2.698974,2.55168 -0.692354,1.73176 -1.301573,3.518694 -1.626438,5.49545 -3.797225,-5.081816 -7.494043,-10.884002 -12.204502,-9.387282 8.468388,7.288815 8.456367,19.537881 7.377054,26.995351 -2.274383,-5.253672 -3.297873,-14.592299 -7.377054,-19.620371 2.05757,5.69005 0.940835,15.309817 0.719864,20.999939 l 15.156569,0 c 1.21885,-3.511278 2.226722,-10.920844 3.142925,-14.390464 0.93335,3.484883 1.344949,10.974227 1.802772,14.390464 l 18.11486,0 C 80.85025,69.682997 79.639746,56.153833 86.745751,46.772403 81.74565,49.456274 78.132988,54.489413 76.418704,62.733893 75.918007,61.96512 75.388954,61.188024 74.84413,60.410411 77.661527,47.897553 80.671702,35.830616 93.85519,47.442479 81.662009,31.017913 75.324253,41.858686 69.1516,53.460712 67.832925,52.107126 66.406873,50.810606 64.851084,49.606221 67.374106,40.624439 70.703608,31.53094 77.49124,21.960938 Z M 18.613797,46.907249 c 3.420179,7.778863 3.929319,15.557605 5.229909,23.336469 C 19.938195,65.012859 16.25392,59.480549 8.4215959,59.649056 14.537634,63.136593 16.165672,72.20569 17.935424,77.294468 l 24.834286,0 c -0.926316,-4.299922 -1.199605,-12.637153 -3.501819,-16.707721 -0.0284,3.352959 -0.02978,6.150772 -2.145071,10.059431 -0.204871,-1.397986 0.253026,-2.834848 1.072535,-4.292218 -2.145989,0.429063 -3.263423,2.093091 -4.157372,4.024603 1.784931,-7.389462 1.3046,-14.645938 6.974594,-22.263935 C 34.697263,52.595245 32.632967,58.846705 29.07569,64.476504 26.194629,58.399632 24.110901,52.032831 18.613797,46.907249 Z m 45.038205,7.14678 c 1.078127,1.355445 2.042402,2.753309 2.914725,4.188491 -0.335914,0.609156 -0.67196,1.220787 -1.012374,1.808997 -0.793037,-1.632357 -1.594602,-2.90972 -2.433433,-3.947845 0.174337,-0.682837 0.353549,-1.366365 0.531082,-2.049643 z m -2.721793,13.621412 c 0.07312,1.897201 -0.9709,7.721969 -2.186563,9.619027 l 4.163597,0 c -0.58656,-1.9693 -1.234711,-7.805452 -1.977034,-9.619027 z"></path></g></svg>
