<svg fill="#F5D327" xmlns="http://www.w3.org/2000/svg" xmlns:xlink="http://www.w3.org/1999/xlink" version="1.1" x="0px" y="0px" viewBox="0 0 100 100" enable-background="new 0 0 100 100" xml:space="preserve"><g><path fill="#F5D327" d="M21.619,94.271c-1.745,0-3.347-0.535-4.637-1.551c-2.958-2.326-3.678-6.664-1.877-10.787   c-7.565-11.836-5.36-29.498,5.514-43.322c8.376-10.651,20.269-17.009,31.809-17.009c3.098,0,6.065,0.47,8.831,1.398   c3.55-3.048,8.464-3.602,11.517-1.208c3.152,2.481,3.743,7.192,1.544,11.478c7.448,11.835,5.212,29.427-5.605,43.177   C60.335,87.1,48.444,93.459,36.905,93.459c-0.003,0-0.003,0-0.003,0c-3.158,0-6.18-0.49-8.991-1.451   C25.979,93.473,23.777,94.271,21.619,94.271z M52.428,24.688c-10.603,0-21.588,5.918-29.386,15.831   c-10.278,13.069-12.293,29.688-4.896,40.419c0.325,0.469,0.362,1.086,0.093,1.592c-1.563,2.975-1.289,6.24,0.651,7.766   c1.91,1.506,5.243,0.969,7.704-1.195c0.431-0.379,1.042-0.488,1.57-0.281c2.697,1.031,5.638,1.555,8.738,1.555   c10.603,0,21.588-5.918,29.389-15.834c10.239-13.018,12.272-29.605,4.948-40.336c-0.341-0.5-0.358-1.157-0.042-1.674   c1.896-3.099,1.754-6.672-0.331-8.312c-2.048-1.615-5.649-0.869-8.148,1.639c-0.428,0.43-1.073,0.566-1.639,0.354   C58.402,25.2,55.492,24.688,52.428,24.688z"></path></g><g><path fill="#F5D327" d="M71.82,24.547c-0.386,0-0.771-0.144-1.07-0.433c-0.61-0.591-0.629-1.567-0.038-2.181   c0.058-0.062,5.968-6.306,6.082-14.941c0.013-0.845,0.699-1.523,1.544-1.523c0.006,0,0.012,0,0.021,0   c0.85,0.012,1.533,0.711,1.521,1.563c-0.129,9.894-6.673,16.76-6.951,17.046C72.625,24.391,72.225,24.547,71.82,24.547z"></path></g><g><path fill="#F5D327" d="M83.604,26.283L83.604,26.283c-2.444,0-4.785-1.062-6.421-2.916c-0.439-0.498-0.509-1.221-0.178-1.796   c1.386-2.384,3.841-3.969,6.563-4.239c2.771-0.275,5.438,0.806,7.271,2.867c0.442,0.499,0.515,1.225,0.177,1.8   c-1.389,2.388-3.841,3.973-6.565,4.241C84.168,26.27,83.884,26.283,83.604,26.283z M80.396,22.145   c1.074,0.783,2.386,1.163,3.754,1.025c1.355-0.133,2.576-0.751,3.48-1.74c-1.08-0.783-2.387-1.172-3.758-1.027   C82.538,20.536,81.302,21.167,80.396,22.145z"></path></g><g><path fill="#F5D327" d="M44.663,85.041c-0.554,0-1.087-0.299-1.364-0.822c-0.398-0.754-0.109-1.689,0.647-2.086   c1.639-0.863,3.206-1.777,4.658-2.717c0.708-0.463,1.669-0.26,2.133,0.455c0.462,0.715,0.26,1.67-0.457,2.133   c-1.528,0.992-3.176,1.955-4.9,2.859C45.151,84.984,44.908,85.041,44.663,85.041z"></path></g><g><path fill="#F5D327" d="M54.564,78.488c-0.439,0-0.877-0.189-1.185-0.553c-0.545-0.652-0.461-1.625,0.193-2.174   c17.639-14.77,12.667-32.92,12.447-33.685c-0.235-0.819,0.234-1.672,1.055-1.911c0.798-0.225,1.669,0.229,1.908,1.048   c0.06,0.207,5.796,20.813-13.428,36.915C55.267,78.371,54.914,78.488,54.564,78.488z"></path></g></svg>