<svg fill="#F5D327" xmlns="http://www.w3.org/2000/svg" viewBox="0 0 100 100" x="0px" y="0px"><title>Lemonade</title><path d="M78.16,57.41l-2-15.4a7.6,7.6,0,0,0-7.59-7.48H61.86l-.17-1.75,1.44-7.92a1.47,1.47,0,0,0-1.45-1.73H35.83l-5.46-2.31a1.47,1.47,0,0,0-.57-.12H23.29a1.47,1.47,0,0,0-1.12,2.42l8.56,10L26.9,72.47a6.22,6.22,0,0,0,6.2,6.83H59.36a6.22,6.22,0,0,0,6.2-6.83L62.72,43.34h4.63l2,14.37a4.41,4.41,0,0,0,8.81-.11A1.48,1.48,0,0,0,78.16,57.41ZM50.81,48.54l-.89.36L49.56,48l.89-.36Zm-6.71-4a1.47,1.47,0,0,0-1.26-1.32L39,42.67a1.47,1.47,0,0,0-1.61,1,29.76,29.76,0,0,1-4.28-1.16c2.68-1.5,6-1.21,7.92-.87a46,46,0,0,1,5.34,1.42c.84.26,1.69.52,2.56.76v.71l-1.82,0C46.07,44.6,45.07,44.57,44.09,44.52ZM40,45.78l.95.13-.13.95-.95-.13ZM33.59,34.12H58.87l.7,7.15a10.45,10.45,0,0,1-3.83.71V40.87a1.47,1.47,0,0,0-1.47-1.47h-3.9a1.47,1.47,0,0,0-1.47,1.4l-1.7-.52a48.92,48.92,0,0,0-5.69-1.5,16,16,0,0,0-8.43.52ZM51.84,43.3v-1h1v1ZM29.5,23.64,35,25.95a1.47,1.47,0,0,0,.57.12H59.92L59,31.18H32.93l-6.45-7.54ZM61.8,75.28a3.25,3.25,0,0,1-2.43,1.08H33.09a3.29,3.29,0,0,1-3.27-3.61l2.66-27.29a33.19,33.19,0,0,0,4.46,1.16l-.16,1.16A1.47,1.47,0,0,0,38,49.44L41.9,50h.2a1.47,1.47,0,0,0,1.45-1.27l.18-1.27c.82,0,1.65.07,2.49.08a1.47,1.47,0,0,0,.06.21l1.45,3.62a1.47,1.47,0,0,0,1.91.82l3.62-1.45a1.47,1.47,0,0,0,.82-1.91l-.64-1.61A43.34,43.34,0,0,0,60,46l2.61,26.75A3.25,3.25,0,0,1,61.8,75.28Zm12-16.21A1.47,1.47,0,0,1,72.3,57.6a1.47,1.47,0,0,0,0-.2l-2-14.64a2.48,2.48,0,0,0-2.48-2.36H62.43l-.29-2.94h6.39a4.65,4.65,0,0,1,4.65,4.65,1.48,1.48,0,0,0,0,.19l2,15.38A1.47,1.47,0,0,1,73.77,59.07ZM50.93,56.16A1.47,1.47,0,0,0,50,54.3L35.46,49.36a1.47,1.47,0,0,0-1.86.92,9.16,9.16,0,1,0,17.34,5.88ZM36.07,52.67l3.18,1.08-2.67,2A6.16,6.16,0,0,1,36.07,52.67Zm2.29,5.39,3.08-2.27.8,3.65a6.25,6.25,0,0,1-3.89-1.38Zm6.74.69-.72-3.26,3.13,1.06A6.17,6.17,0,0,1,45.1,58.75Zm9.8-5.3a1.47,1.47,0,0,0-1.94.74l-6.29,14a1.47,1.47,0,0,0,.74,1.94A9.16,9.16,0,0,0,54.9,53.45ZM55,56.89a6.17,6.17,0,0,1,2,2.61l-3.31.41ZM50,67.92l1.37-3.06,1.71,2.85A6.16,6.16,0,0,1,50,67.92Zm5.58-1.77-2-3.28,3.71-.45a6.25,6.25,0,0,1-1.74,3.74Z"></path></svg>