<svg fill="#70C041" xmlns="http://www.w3.org/2000/svg" xmlns:xlink="http://www.w3.org/1999/xlink" version="1.1" x="0px" y="0px" viewBox="0 0 100 100" enable-background="new 0 0 100 100" xml:space="preserve"><g><path fill="#70C041" d="M47.248,93.913c-2.534,0-5.204-0.174-7.941-0.521c-0.175-0.021-0.346-0.078-0.499-0.16   c-0.357-0.197-8.791-4.902-9.818-14.024c-0.824-7.365,3.428-15.258,12.643-23.464c1.187-2.672,10.022-20.906,29.663-20.906   c5.23,0,10.834,1.297,16.659,3.859c0.478,0.21,0.802,0.672,0.835,1.195c0.071,1.097,1.6,27.054-13.055,42.703   C68.702,90.107,59.12,93.913,47.248,93.913z M39.939,90.638c14.516,1.77,25.901-1.589,33.745-9.966   C86.081,67.43,86.146,45.5,86.02,40.926c-5.176-2.174-10.125-3.276-14.725-3.276c-19.201,0-27.108,19.265-27.185,19.459   c-0.084,0.205-0.215,0.387-0.381,0.533c-8.648,7.639-12.67,14.788-11.943,21.251C32.566,85.835,38.709,89.888,39.939,90.638z"></path></g><g><path fill="#70C041" d="M39.483,93.402c-0.062,0-0.116-0.004-0.177-0.011c-13.195-1.671-23.01-6.87-29.162-15.451   C-0.093,63.672,3.468,45.363,3.627,44.59c0.137-0.691,0.687-1.153,1.474-1.124c25.867,1.791,31.685,19.422,31.921,20.171   c0.231,0.739-0.182,1.527-0.918,1.76c-0.736,0.231-1.531-0.177-1.763-0.913c-0.215-0.665-5.368-15.988-28.152-18.107   c-0.59,4.255-1.82,18.708,6.251,29.941c5.682,7.909,14.842,12.716,27.221,14.283c0.768,0.097,1.313,0.802,1.218,1.571   C40.785,92.883,40.182,93.402,39.483,93.402z"></path></g><g><path fill="#70C041" d="M10.983,46.945c-0.033,0-0.061-0.001-0.093-0.002c-0.773-0.051-1.363-0.72-1.313-1.495   c1.23-18.9,9.543-30.709,9.9-31.202c0.341-0.481,0.955-0.698,1.521-0.536c22.559,6.361,35.521,25.506,36.06,26.318   c0.434,0.647,0.259,1.519-0.39,1.951c-0.637,0.429-1.517,0.258-1.95-0.391c-0.126-0.187-12.56-18.521-33.495-24.88   c-1.845,2.947-7.84,13.604-8.84,28.922C12.335,46.374,11.72,46.945,10.983,46.945z"></path></g><g><path fill="#70C041" d="M44.384,93.84c-0.488,0-0.966-0.257-1.225-0.716c-0.385-0.675-0.144-1.533,0.532-1.914   c25.144-14.233,27.852-39.619,27.873-39.874c0.077-0.773,0.818-1.319,1.533-1.268c0.774,0.073,1.341,0.759,1.27,1.532   c-0.105,1.099-2.831,27.078-29.291,42.057C44.857,93.781,44.619,93.84,44.384,93.84z"></path></g><g><path fill="#70C041" d="M36.154,92.796c-0.27,0-0.545-0.077-0.78-0.237C16.215,79.794,14.66,61.45,14.605,60.675   s0.521-1.447,1.296-1.505c0.785-0.047,1.449,0.521,1.511,1.297c0.011,0.176,1.555,17.78,19.521,29.752   c0.645,0.429,0.821,1.305,0.392,1.95C37.049,92.575,36.604,92.796,36.154,92.796z"></path></g><g><path fill="#70C041" d="M56.429,84.851c-0.154,0-0.31-0.025-0.457-0.075c-0.736-0.251-1.126-1.053-0.873-1.787   c2.731-7.974-0.621-14.757-0.654-14.824c-0.352-0.692-0.071-1.538,0.616-1.89c0.703-0.349,1.538-0.077,1.89,0.612   c0.164,0.318,3.939,7.874,0.808,17.013C57.561,84.484,57.009,84.851,56.429,84.851z"></path></g><g><path fill="#70C041" d="M19.479,73.654c-0.105,0-0.208-0.011-0.313-0.034c-0.758-0.172-1.231-0.926-1.061-1.684   c0.044-0.189,1.084-4.691,3.516-9.229c0.364-0.688,1.221-0.939,1.902-0.573c0.687,0.366,0.945,1.218,0.577,1.903   c-2.258,4.205-3.243,8.48-3.254,8.522C20.699,73.212,20.12,73.654,19.479,73.654z"></path></g><g><path fill="#70C041" d="M38.726,61.919c-0.352,0-0.698-0.129-0.972-0.387c-0.354-0.339-0.497-0.816-0.413-1.266   c-0.044-2.398-3.43-21.688-11.131-30.99c-0.501-0.598-0.413-1.485,0.181-1.98c0.604-0.496,1.488-0.413,1.982,0.187   c7.803,9.416,12.973,32.313,11.369,33.999C39.467,61.771,39.094,61.919,38.726,61.919z"></path></g><g><path fill="#70C041" d="M35.309,46.142c-0.33,0-0.661-0.117-0.931-0.352c-0.059-0.054-6.24-5.428-12.895-6.074   c-0.774-0.074-1.34-0.762-1.265-1.536c0.078-0.773,0.819-1.324,1.534-1.264c7.577,0.735,14.208,6.518,14.487,6.764   c0.583,0.514,0.638,1.402,0.122,1.985C36.087,45.979,35.697,46.142,35.309,46.142z"></path></g><g><path fill="#70C041" d="M82.333,39.484c-0.061,0-0.12-0.004-0.181-0.012c-0.774-0.101-1.313-0.806-1.214-1.577   c1.203-9.225-4.973-17.39-6.731-19.499c-19.119,2.427-29.032,10.679-29.131,10.764c-0.587,0.497-1.473,0.435-1.982-0.161   c-0.507-0.591-0.436-1.477,0.158-1.98c0.429-0.37,10.852-9.093,31.361-11.507c0.445-0.063,0.886,0.109,1.192,0.436   c0.386,0.415,9.488,10.299,7.923,22.314C83.636,38.967,83.032,39.484,82.333,39.484z"></path></g><g><path fill="#70C041" d="M67.938,19.421c-0.385,0-0.771-0.158-1.05-0.468c-0.065-0.072-6.511-7.18-16.69-11.457   c-2.145,0.379-13.331,2.7-21.672,11.034c-0.549,0.549-1.439,0.549-1.988,0c-0.549-0.55-0.549-1.441,0-1.989   C36.444,6.646,49.615,4.727,50.171,4.65c0.246-0.039,0.498-0.001,0.724,0.091c11.018,4.515,17.808,12.021,18.094,12.337   c0.516,0.578,0.467,1.467-0.115,1.985C68.609,19.302,68.273,19.421,67.938,19.421z"></path></g><g><path fill="#70C041" d="M73.978,95.365c-0.412,0-0.825-0.181-1.104-0.532c-0.484-0.608-0.379-1.492,0.225-1.976   c1.396-1.104,2.735-2.274,3.987-3.475c0.556-0.54,1.446-0.518,1.991,0.042c0.532,0.563,0.516,1.452-0.044,1.991   c-1.319,1.258-2.726,2.485-4.182,3.645C74.592,95.265,74.285,95.365,73.978,95.365z"></path></g><g><path fill="#70C041" d="M84.389,84.601c-0.292,0-0.582-0.091-0.831-0.273c-0.625-0.461-0.764-1.341-0.301-1.968   C97.008,63.663,93.97,41.951,93.942,41.734c-0.114-0.768,0.412-1.483,1.183-1.597c0.785-0.118,1.483,0.413,1.599,1.181   c0.137,0.931,3.264,23.048-11.202,42.708C85.245,84.402,84.822,84.601,84.389,84.601z"></path></g></svg>