<svg xmlns="http://www.w3.org/2000/svg" xmlns:xlink="http://www.w3.org/1999/xlink" version="1.1" x="0px" y="0px" viewBox="5 5 90 90" style="enable-background:new 0 0 100 100;" xml:space="preserve"><path fill="#772200" d="M31.4,29.2c-1.3,0.4-2,1.2-2.8,2c-1.1,1.1-2.4,1.7-3.9,1.9c-1.4,0.2-1.9-0.3-2-1.8c-0.1-1.6,0.4-3.2,0.6-4.8  c0.1-0.4,0.1-0.8,0.2-1.2c0-0.3,0-0.6-0.2-0.7c-0.4-0.2-0.6,0-0.9,0.2c-0.4,0.4-0.7,0.8-1.1,1.2c-0.5,0.5-1.1,0.7-1.8,0.5  c-0.9-0.2-1.1-0.7-0.7-1.6c1.7-3.4,3.8-6.4,6.4-9.2c0.6-0.6,1-1.2,1.6-1.8c1.3-1.4,2.7-1.1,3.4,0.7c0.3,0.8,0.2,1.6,0.1,2.4  c-0.1,0.7-0.2,1.5-0.4,2.2c-0.2,0.6-0.4,1.2,0.2,1.6c0.6,0.4,1.2,0.1,1.7-0.2c1.5-1,2.9-2.2,3.8-3.8c0.8-1.4,1.6-2.9,2.8-4.1  c1.8-2,3.7-3.8,5.9-5.3c4.2-2.8,7.3-1.9,9.9,1.9c1.3,1.9,2.2,3.9,3.5,5.8c2.2,3.2,4.1,6.7,6.8,9.6c1.1,1.2,1.9,2.8,2.7,4.2  c1.8,3,3.6,5.9,5.6,8.8c1.8,2.7,3.5,5.3,4.7,8.3c0.3,0.7,0.7,1.3,1.1,1.9c1,1.5,1.6,3.2,2.1,4.9c0.1,0.4,0.2,0.8,0.1,1.2  c-0.4,4.4-0.7,8.8-1.9,13c-1.2,3.9-3.4,7.2-6.4,9.7c-4.6,3.9-8.9,8-12.9,12.6c-0.8,1-1.8,1.8-2.7,2.7c-2.7,2.7-7.8,2.1-10.4,0.1  c-1.2-0.9-2.2-1.9-2.7-3.4c-1.1-2.7-3.2-4.7-5.4-6.6c-2.9-2.4-6-4.5-8.8-6.9c-1.4-1.2-2.7-2.6-4-3.9c-1.5-1.7-2.5-3.5-2.6-5.9  c0-1.7-0.7-3.4-0.9-5.1c-0.3-4.4,0.4-8.6,1.9-12.7c1.8-4.9,3.8-9.7,5.7-14.5C30.3,31.9,31.2,30.8,31.4,29.2z M55.9,70.3  c-0.6,0.8-1,1.7-1,2.7c0,0.6,0.3,0.8,0.9,0.5C57.2,72.9,57.2,71.6,55.9,70.3c0-0.1-0.1-0.1-0.1-0.2c0-0.1,0.1-0.1,0.1-0.1  c0.5-0.2,1,0.3,1.5-0.2c1-1.1,2.3-1,3.8-0.6c0-1.1-0.4-1.9-0.6-2.8c-0.3-1.1-0.5-2.2,0-3.3c0.5-1.1,0.7-1.3,1.7-0.5  c0.5,0.4,1.1,0.5,1.6,0.7c1.3,0.4,2.5,0.1,3.8,0c1.6-0.1,2.7-1,3-2.7c0.8-3.6,0.1-6.9-2.6-9.5c-0.3-0.3-0.5-0.8-1.1-0.5  c0,2.8-0.2,3.5-1.3,5.8c-1.1,2.3-4.7,3.8-7,2.8c-1-0.4-1.8-1.2-2.6-1.8c-0.7-0.5-1.5-1-2.4-0.7c-1.5,0.4-3.1,0.2-4.6,0  c-0.9-0.1-1.3,0.1-1.8,0.7c-1.7,1.9-3.9,2.8-6.4,2.8c-1.3,0-2.5-0.3-3.1-1.5c-0.6-1-1.3-1.9-1.4-3.3c-0.1-1.1-0.7-2.2-1-3.2  c-0.2-0.8-0.8-0.8-1.2-0.3c-1.7,2.4-4,4.4-3.5,7.9c0.5,3.2,3.6,5.3,6.5,4c1.1-0.5,2.3-0.7,3.5-0.7c0.9,0,1.3,0.5,1.4,1.4  c0.1,1,0.1,2-0.2,3c-0.4,1.3,0,2.2,1.1,2.9c0.5-1.2,1-2,2.4-1.3c0.2,0.1,0.5,0,0.8-0.1c0.8-0.4,1.5-0.2,2.2,0.4  c0.5,0.4,0.9,0.4,1.6,0.3c1.5-0.3,3-0.3,4.5,0.4C54.9,70.3,55.3,70.4,55.9,70.3z M72.7,57.2c-0.4,0.7-0.3,1.1-0.3,1.4  c0.1,3.5-1.9,5.6-5.4,5.7c-0.5,0-1.1,0.1-1.6,0.1c-0.7,0-1.1,0.4-1.5,1.1c-0.9,1.7-1.3,3.4-0.8,5.4c0.2,0.8,0.3,1.6,0.4,2.4  c0.2,1.6,0.3,3.3-0.7,4.6c-1.8,2.2-3.5,4.4-6.8,4.8c-4.1,0.5-8.1,0.6-11.9-1.2c-0.4-0.2-0.8-0.2-1-0.6c-0.4-1.1-1.4-1.8-2-2.8  c-0.9-1.7-1.7-3.3-1.4-5.4c0.6-4,0.4-4-2-6.7c-0.5-0.5-0.9-0.6-1.5-0.6c-3.8,0.3-6.5-2.2-6.6-5.9c0-0.4,0.2-0.8-0.3-1.2  c-1.1,0.9-1.3,2.2-1.9,3.4c-1.3,2.5-1,4.9,0.6,7.1c1.7,2.3,3.6,4.2,6.2,5.7C36.7,76,39,78,41,80.3c2.3,2.7,4.7,5.5,6.6,8.5  c1.2,1.9,4.3,2.6,6.2,1.6c0.2-0.1,0.4-0.3,0.6-0.5c1.2-2,2.6-3.8,4.3-5.5c1.4-1.4,2.7-2.7,4.2-3.9c2-1.6,4.3-3,5.9-5.1  c1.5-1.8,3.1-3.5,4.7-5.3c0.9-1,1.5-2.1,1.9-3.4C76.2,63.2,74.9,60.2,72.7,57.2z M50.1,55.6c0.2-0.2,0-0.5,0.1-0.7  c0.1-0.8,0.1-1.8,1.2-1.8c1.1,0,1,1,0.8,1.8c0,0.1,0,0.1,0,0.2c0,0.6,0.2,1,1,0.8c1.1-0.4,2.1-0.6,3.2-1.2c2.8-1.4,5.4-3.2,8.1-4.8  c1.2-0.7,1.3-1,0.2-1.7c-4.7-3-8.5-7.2-12.9-10.7c-1.1-0.9-1.1-0.9-2.1,0c-1.7,1.6-3.2,3.4-5.3,4.5c-0.2,0.1-0.4,0.3-0.5,0.6  c-0.6,1.1-1.6,1.8-2.6,2.5c-1,0.7-1.8,1.5-2.7,2.4c-1,1-1,1.3,0.2,2.1c2.4,1.6,4.4,3.9,7.3,4.7c0.2,0.1,0.5,0.2,0.7,0.4  C47.6,55.8,48.8,55.9,50.1,55.6z M40.9,70.4c-0.1,2.2-0.6,4.1,0.6,5.9c1.4,2,3,3.7,5.4,4.6c2,0.7,4,0.9,6.1,0.9  c3.1,0.1,5.9-0.7,8-3.3c1.7-2.1,2.1-4.8,0.7-7.3c-0.3,0.7,0.1,1.3,0,2c0,0.9-0.2,1.7-0.9,2.3c-1.4,1.1-3.2,1.3-4.7,2.3  c-0.7,0.4-1.2-0.3-1.8-0.4c-0.2,0-0.4,0.1-0.5,0.2c-0.5,0.4-0.9,0.6-1.6,0.6c-0.9,0-0.8-1-1.4-1.3c-0.5,0.5-0.9,1-1.6,1.2  c-0.8,0.2-1.4-0.2-2-0.7c0,0-0.1-0.1-0.2-0.1c-1.9,0.7-2.3-2.3-4.2-1.8c-0.2,0-0.3-0.5-0.4-0.9c0-0.6-0.1-1.2,0-1.8  C42.5,71.9,42,71.2,40.9,70.4z M57,74.8c0.1,0.2,0.2,0.4,0.3,0.6c0.2,0.4,0.3,1.2,1,0.9c0.6-0.2,1-0.7,0.8-1.4  c-0.1-0.4-0.4-0.7,0-1.1c0.7,0,0.7,1.2,1.6,1c0.8-1,0.7-2,0-3.2c-1.5,1.3-3.1,2.2-4.8,3c-0.3,0.1-0.6,0.3-0.9,0.5  c-0.4,0.2-0.6,0.5-0.4,1c0.2,0.5,0.4,1,1,1.1c0.5,0.1,0.6-0.4,0.8-0.7C56.6,75.9,56.3,75.3,57,74.8z M54.1,73c0-0.3,0-0.6,0.1-0.9  c0.1-0.9-0.5-1.4-1.2-1.6c-0.7-0.2-0.6,0.7-0.9,1.1c-0.5,0.5-0.4,1.1-0.4,1.7c0,1.3,0.4,1.7,1.7,1.4C54.5,74.5,54.2,73.7,54.1,73z   M47.7,73.9c-0.1-1.2-0.1-2.3-0.2-3.5c0-0.4-0.3-0.8-0.6-0.6c-0.6,0.5-1.5,0.7-1.8,1.6c-0.3,1,0.1,1.8,1.1,2.2  C46.7,73.9,47.2,74.2,47.7,73.9z M48.5,74.4c1,0,2.1,0.6,2.6-0.1c0.5-0.7,0.1-1.8-0.2-2.7c-0.2-0.6-0.5-0.9-1.2-0.8  c-0.6,0.2-1,0.6-0.8,1.1C49.3,72.8,48.7,73.4,48.5,74.4z M38.6,64.6c1,0.6,1.2,1.8,2.1,2.6c0.1-1.1,0.9-2.1,0-3  C40.1,63.7,39.3,64.1,38.6,64.6z M50.5,75.7c-1-0.2-1.9-1-2.6,0.1c-0.4,0.5-0.2,1.2,0.5,1.4C49.7,77.6,49.8,76.5,50.5,75.7z   M45.3,74.2C45,75.4,45,76.3,46,76.7c0.6,0.2,0.9-0.5,1-1C47.2,74.4,46.1,74.7,45.3,74.2z M43,72.7c-0.2,0.6-0.2,1.2,0,1.8  c0.1,0.3,0.2,0.6,0.7,0.6c0.3-0.1,0.6-0.2,0.7-0.6C44.6,73.3,43.9,72.9,43,72.7z M53.6,76c-0.4-0.3-0.8-0.2-1.2-0.3  c-0.6,0-0.9,0.2-0.8,0.8c0.1,0.6,0.5,0.9,1.1,0.8C53.4,77.2,53.6,76.7,53.6,76z M61.8,66.9c0.6-0.3,0.5-0.9,0.8-1.3  c0.2-0.3,0.1-0.6-0.2-0.8c-0.3-0.2-0.7-0.3-0.9-0.1c-0.3,0.2-0.3,0.6-0.2,0.9C61.4,66,61.5,66.5,61.8,66.9z M58.1,72  c0.8-0.1,1.2-0.6,1.6-1.1c0.2-0.2,0.3-0.5,0.1-0.7c-0.2-0.1-0.5-0.3-0.7-0.2C58,70.3,57.9,71,58.1,72z M44.5,72.3  c0.2-1.1,0.5-1.8-0.2-2.4c-0.1,0-0.3,0-0.3,0.1C43.4,70.7,43.6,71.4,44.5,72.3z"/><path fill="#772200" d="M52.9,68.4c-1.1-0.7-2.3-0.1-3.5,0.1c-1.4,0.2-2-0.4-1.8-1.8c0.4-2.3,0.9-4.6,2.2-6.6c1.2-1.8,2.4-1.8,3.4,0.1  c1.2,2.1,1.6,4.5,1.8,6.9C55.1,67.8,54.1,68.4,52.9,68.4z"/></svg>