<svg fill="#DCBD23" xmlns="http://www.w3.org/2000/svg" xmlns:xlink="http://www.w3.org/1999/xlink" version="1.1" x="0px" y="0px" viewBox="0 0 100 100" enable-background="new 0 0 100 100" xml:space="preserve"><g display="none"><g display="inline" opacity="0.2"><path fill="none" stroke="#DCBD23" stroke-width="4" stroke-linecap="round" stroke-linejoin="round" stroke-miterlimit="10" d="    M83.24,28.982c-0.061,0-0.119,0.008-0.179,0.009c0-0.003,0.001-0.006,0.001-0.009C83.062,16.842,73.221,7,61.08,7    c-8.865,0-16.486,5.26-19.962,12.819c-2.312-1.22-4.942-1.918-7.739-1.918c-7.25,0-13.4,4.652-15.672,11.128    c-0.312-0.026-0.627-0.047-0.947-0.047c-6.12,0-11.08,4.96-11.08,11.08c0,6.119,4.96,11.08,11.08,11.08h66.48    c6.12,0,11.08-4.961,11.08-11.08C94.32,33.942,89.36,28.982,83.24,28.982z"></path><polygon fill="none" stroke="#DCBD23" stroke-width="4" stroke-linecap="round" stroke-linejoin="round" stroke-miterlimit="10" points="    47.348,58.436 55.414,58.436 50.773,70.701 58.066,70.701 41.934,93.686 48.711,75.333 42.486,75.333   "></polygon><polygon fill="none" stroke="#DCBD23" stroke-width="4" stroke-linecap="round" stroke-linejoin="round" stroke-miterlimit="10" points="    17.348,58.436 25.414,58.436 20.773,70.701 28.066,70.701 11.934,93.686 18.711,75.333 12.486,75.333   "></polygon><polygon fill="none" stroke="#DCBD23" stroke-width="4" stroke-linecap="round" stroke-linejoin="round" stroke-miterlimit="10" points="    77.348,58.436 85.414,58.436 80.773,70.701 88.066,70.701 71.934,93.686 78.711,75.333 72.486,75.333   "></polygon></g></g><g><g><g><path d="M15.333,49.167c-5.196,0.549-7.922-7.05-7.274-11.193c0.746-4.78,6.48-6.864,10.507-7.86     c1.878-0.464,1.081-3.357-0.797-2.893c-5.56,1.375-12.589,4.77-12.824,11.425C4.746,44.276,8.581,52.88,15.333,52.167     C17.236,51.966,17.256,48.964,15.333,49.167L15.333,49.167z"></path></g></g><g><g><path d="M19.5,29.167c0.311-4.124,4.561-6.896,7.812-8.688c4.576-2.522,9.835-1.414,14.457,0.3     c1.817,0.674,2.595-2.226,0.797-2.893c-5.67-2.104-11.202-2.65-16.769,0.001c-4.428,2.11-8.912,6.163-9.297,11.278     C16.354,31.098,19.355,31.083,19.5,29.167L19.5,29.167z"></path></g></g><g><g><path d="M43.128,19.091c3.521-8.234,14.325-12.549,22.689-10.595c4.243,0.992,9.134,3.294,12.172,6.484     c2.515,2.642,6.301,9.565,4.716,13.263c-0.754,1.757,1.83,3.288,2.59,1.514c1.9-4.432-0.666-9.586-2.809-13.507     c-2.752-5.037-7.78-7.659-12.941-9.713c-10.168-4.048-24.513,0.527-29.007,11.04C39.786,19.334,42.37,20.865,43.128,19.091     L43.128,19.091z"></path></g></g><g><g><path d="M84.269,29.946c4.818,0.789,9.635,5.764,8.384,10.855c-1.071,4.359-4.901,6.824-8.962,7.776     c-6.108,1.432-12.918-0.054-19.155,0.399c-9.091,0.659-18.154,1.119-27.271,0.796c-3.928-0.139-7.84-0.178-11.765,0.062     c-2.087,0.127-6.381,1.142-8.106-0.394c-1.439-1.282-3.569,0.833-2.121,2.121c2.047,1.822,5.011,1.598,7.586,1.481     c5.409-0.244,10.719-0.4,16.142-0.208c12.129,0.43,24.169-1.376,36.278-0.893c8.137,0.324,15.579-0.793,19.591-8.631     c3.578-6.991-2.734-15.099-9.804-16.256C83.174,26.744,82.362,29.635,84.269,29.946L84.269,29.946z"></path></g></g><g><g><path d="M17.102,60.113c1.204,0.257,2.388,0.091,3.595-0.064c0.753-0.097,2.611-0.583,3.243,0.011     c1.406,1.326,3.531-0.792,2.121-2.121c-2.377-2.24-5.448-0.14-8.162-0.719C16.012,56.818,15.21,59.709,17.102,60.113     L17.102,60.113z"></path></g></g><g><g><path d="M46.41,59.795c2.385,1.109,5.646,1.657,8.155,0.651c1.772-0.71,1-3.613-0.797-2.893     c-1.761,0.706-4.143,0.442-5.845-0.349C46.182,56.395,44.657,58.98,46.41,59.795L46.41,59.795z"></path></g></g><g><g><path d="M76.667,59.667c2.476,0.254,4.976-0.458,7.435-0.054c1.892,0.312,2.703-2.579,0.797-2.893     c-2.756-0.454-5.475,0.229-8.231-0.054C74.743,56.469,74.762,59.471,76.667,59.667L76.667,59.667z"></path></g></g><g><g><path d="M22.833,71.833c1.894-0.017,3.775-0.296,5.667-0.333c1.932-0.039,1.936-3.039,0-3c-1.892,0.038-3.773,0.317-5.667,0.333     C20.899,68.851,20.897,71.851,22.833,71.833L22.833,71.833z"></path></g></g><g><g><path d="M11.5,77c2.056,0,4.111,0,6.167,0c1.935,0,1.935-3,0-3c-2.056,0-4.111,0-6.167,0C9.565,74,9.565,77,11.5,77L11.5,77z"></path></g></g><g><g><path d="M50.833,71.167c2.076-0.15,4.294-0.113,6.269,0.613c1.819,0.669,2.598-2.231,0.797-2.893     c-2.197-0.808-4.752-0.887-7.065-0.72C48.915,68.306,48.901,71.307,50.833,71.167L50.833,71.167z"></path></g></g><g><g><path d="M41.667,76.833c2.327,0.185,4.659,0.642,7,0.5c1.922-0.116,1.934-3.117,0-3c-2.341,0.142-4.673-0.315-7-0.5     C39.737,73.68,39.752,76.681,41.667,76.833L41.667,76.833z"></path></g></g><g><g><path d="M81.769,70.946c2.066,0.496,4.134,0.244,6.231,0.221c1.934-0.021,1.936-3.021,0-3c-1.804,0.02-3.66,0.312-5.435-0.113     C80.686,67.603,79.888,70.495,81.769,70.946L81.769,70.946z"></path></g></g><g><g><path d="M72.167,76.5c2.061,0.023,4.105,0.31,6.166,0.333c1.936,0.022,1.934-2.978,0-3c-2.061-0.023-4.105-0.31-6.166-0.333     C70.231,73.478,70.233,76.478,72.167,76.5L72.167,76.5z"></path></g></g><g><g><path d="M15.721,59.768c-1.591,4.621-3.086,9.274-4.334,14c-0.494,1.873,2.399,2.667,2.893,0.798     c1.248-4.727,2.743-9.379,4.334-14C19.245,58.731,16.347,57.95,15.721,59.768L15.721,59.768z"></path></g></g><g><g><path d="M23,59.333c0.209,3.386-1.821,6.555-2.613,9.768c-0.463,1.878,2.43,2.675,2.893,0.798     c0.865-3.508,2.95-6.853,2.721-10.565C25.881,57.412,22.881,57.4,23,59.333L23,59.333z"></path></g></g><g><g><path d="M13.113,93.899c0.701-2.649,2.129-4.926,3.09-7.467c1.256-3.319,1.731-6.853,3.425-10.008     c0.915-1.704-1.675-3.219-2.59-1.514c-1.452,2.705-2.159,5.584-2.984,8.524c-0.943,3.36-2.938,6.286-3.833,9.667     C9.725,94.974,12.619,95.768,13.113,93.899L13.113,93.899z"></path></g></g><g><g><path d="M13.228,93.561c2.525-2.602,4.306-5.696,6.134-8.804c2.723-4.629,6.023-8.937,9.101-13.333     c1.113-1.589-1.489-3.086-2.59-1.514c-2.579,3.683-5.219,7.333-7.717,11.072c-2.354,3.524-4.062,7.38-7.049,10.458     C9.759,92.828,11.879,94.951,13.228,93.561L13.228,93.561z"></path></g></g><g><g><path d="M43.113,74.399c0.903-2.948,2.606-5.472,3.666-8.333c0.786-2.123,0.91-4.747,2.183-6.642     c1.083-1.611-1.518-3.11-2.59-1.514c-1.31,1.948-1.565,4.503-2.244,6.708c-0.956,3.101-2.944,5.84-3.907,8.983     C39.652,75.456,42.548,76.243,43.113,74.399L43.113,74.399z"></path></g></g><g><g><path d="M51.962,69.257c1.34-2.72,2.467-5.544,4-8.166c0.979-1.674-1.614-3.183-2.59-1.515c-1.534,2.622-2.66,5.447-4,8.167     C48.521,69.472,51.107,70.993,51.962,69.257L51.962,69.257z"></path></g></g><g><g><path d="M42.613,93.399c1.646-5.624,3.423-11.29,6.515-16.308c1.019-1.652-1.577-3.158-2.59-1.515     c-3.224,5.231-5.103,11.164-6.817,17.025C39.176,94.462,42.071,95.251,42.613,93.399L42.613,93.399z"></path></g></g><g><g><path d="M43.295,93.424c4.891-7.155,10.413-13.861,14.833-21.333c0.987-1.669-1.606-3.178-2.59-1.515     c-4.421,7.472-9.942,14.179-14.833,21.334C39.609,93.512,42.211,95.011,43.295,93.424L43.295,93.424z"></path></g></g><g><g><path d="M76,58.167c-0.41,4.909-1.6,9.976-4.128,14.243c-0.989,1.668,1.605,3.176,2.59,1.514     c2.81-4.741,4.082-10.308,4.538-15.757C79.161,56.238,76.16,56.253,76,58.167L76,58.167z"></path></g></g><g><g><path d="M76.554,76.601c-1.808,5.426-4.957,10.232-7.182,15.475c-0.747,1.76,1.837,3.29,2.59,1.515     c2.327-5.484,5.593-10.516,7.484-16.192C80.06,75.558,77.162,74.775,76.554,76.601L76.554,76.601z"></path></g></g><g><g><path d="M72.561,94.228c5.13-4.099,7.939-9.943,11.479-15.312c1.381-2.094,6.253-7.176,5.407-9.98     c-0.557-1.847-3.452-1.06-2.893,0.798c-0.226-0.746-0.346,0.25-0.597,0.698c-0.404,0.723-0.861,1.418-1.306,2.116     c-1.196,1.885-2.46,3.728-3.688,5.592c-3.253,4.936-5.793,10.188-10.523,13.968C68.928,93.314,71.065,95.422,72.561,94.228     L72.561,94.228z"></path></g></g><g><g><path d="M82.779,68.732c0.846-2.012,2.241-3.734,3.087-5.747c0.299-0.709,0.586-1.421,0.871-2.136     c0.119-0.306,0.246-0.609,0.379-0.909c0.344-0.789,0.554-0.471-0.218-0.327c1.9-0.355,1.094-3.247-0.797-2.893     c-1.441,0.27-1.982,2.641-2.431,3.766c-1.037,2.607-2.698,4.866-3.784,7.448C79.137,69.717,82.041,70.487,82.779,68.732     L82.779,68.732z"></path></g></g></g></svg>