<svg fill="#F5D327" xmlns="http://www.w3.org/2000/svg" xmlns:xlink="http://www.w3.org/1999/xlink" version="1.1" x="0px" y="0px" viewBox="0 0 100 100" enable-background="new 0 0 100 100" xml:space="preserve"><g><path d="M74.812,10.043c0.223-0.45,0.361-0.933,0.361-1.492c0-0.938-0.379-1.848-1.042-2.512C73.466,5.376,72.556,5,71.618,5   c-0.875,0-1.924,0.351-2.512,1.039c-0.498,0.583-0.984,1.176-1.478,1.763c-1.162-0.077-2.328-0.106-3.483-0.139   c-2.527-0.073-5.058-0.123-7.582-0.243c-2.603-0.123-5.203-0.224-7.8-0.423c-4.117-0.313-8.23-0.632-12.343-0.983   c-0.083-0.007-0.166-0.011-0.25-0.011c-1.116,0-2.309,0.627-3.064,1.382c-0.875,0.875-1.371,2.076-1.371,3.314   c0,1.235,0.496,2.436,1.371,3.311c0.524,0.524,1.1,0.853,1.729,1.064c-1.873,4.414-3.738,8.834-5.489,13.298   c-0.957,2.445-1.908,4.897-2.834,7.355c-0.395,1.055-0.764,2.114-1.131,3.178c-0.281,0.809-0.524,1.611-0.743,2.442   c-0.202,0.784-0.268,1.608-0.291,2.414c0.008,0.062,0.017,0.124,0.025,0.186c-0.18,0.715-0.197,1.469,0,2.186   c0.275,0.995,1.008,2.107,1.971,2.562c3.207,1.52,6.416,3.042,9.686,4.429c1.7,0.72,3.406,1.406,5.134,2.057   c0.832,0.313,1.69,0.57,2.557,0.794c-0.669,1.145-1.336,2.291-2.002,3.437c-0.477,0.821-0.9,1.674-1.349,2.515   c-0.543,1.02-1.112,2.035-1.627,3.068c-0.61,1.22-1.219,2.439-1.829,3.659c-0.505,1.014-0.938,2.069-1.406,3.105   c-0.998,2.215-1.836,4.515-2.613,6.815c-0.316,0.941-0.584,1.927-0.787,2.897c-0.256,1.229-0.537,2.483-0.632,3.738   c-0.041,0.556-0.066,1.109-0.079,1.665c-0.013,0.708,0.12,1.409,0.228,2.104c0.161,1.055,0.528,2.098,0.821,3.121   c0.196,0.676,0.815,1.159,1.526,1.159c0.075,0,0.149-0.012,0.223-0.022c0.212,0.566,0.597,1.069,1.149,1.392   c0.632,0.37,1.396,0.468,2.098,0.275c0.727-0.199,1.207-0.651,1.627-1.251c1.839-2.625,3.27-5.504,4.831-8.296   c1.501-2.689,3.093-5.323,4.698-7.952c1.665-2.733,3.428-5.399,5.175-8.081c0.667-1.024,1.39-2.016,2.088-3.02   c1.077-1.551,2.155-3.106,3.235-4.66c1.33-1.915,2.714-3.794,4.072-5.687c1.263-1.762,2.534-3.517,3.801-5.273   c1.455-0.084,2.749-1.147,3.135-2.551c0.191-0.692,0.14-1.427-0.095-2.096c0.078-0.453,0.061-0.931-0.049-1.33   c-0.199-0.724-0.682-1.349-1.33-1.728c-0.443-0.26-0.951-0.394-1.461-0.394c-0.258,0-0.516,0.034-0.766,0.103   c-0.413,0.113-0.742,0.304-1.03,0.549c-2.078-0.573-4.139-1.229-6.209-1.812c-2.109-0.592-4.226-1.157-6.344-1.718   c0.25-0.435,0.5-0.871,0.751-1.305c0.724-1.245,1.456-2.493,2.243-3.696c0.821-1.251,1.599-2.543,2.486-3.747   c1.03-1.404,2.059-2.809,3.092-4.21c1.618-2.073,3.205-4.178,4.873-6.209c1.035-1.259,2.069-2.518,3.105-3.775   c0.771-0.021,1.542-0.04,2.313-0.066c1.823-0.06,3.444-1.204,3.94-2.998C75.995,12.345,75.631,11.023,74.812,10.043z"></path></g></svg>