<svg fill="#F5D327" xmlns="http://www.w3.org/2000/svg" xmlns:xlink="http://www.w3.org/1999/xlink" version="1.1" x="0px" y="0px" viewBox="0 0 100 100" enable-background="new 0 0 100 100" xml:space="preserve"><path d="M21.77,15.82c-0.279,2.959-0.654,5.957-0.654,8.989C21.115,51.243,32,75.143,49,92.293v0.004  c-6.05-0.161-11.314-1.926-16.032-4.883c2.744,2.308,5.668,3.975,9.127,5.173l-0.148-0.052  c-10.184-1.796-18.637-5.791-25.765-12.687c8.253,9.692,20.542,15.84,34.274,15.84c12.825,0,24.394-5.367,32.591-13.979  l-0.359,0.362c-5.38,4.337-11.681,7.6-18.538,9.463l0.057-0.045c6.312-2.918,11.345-7.986,14.32-14.267l-0.149-0.01  C72.748,85.832,63,91.68,52,92.261v0.005C44,81.131,39.586,69,37.261,55h-0.008c3.858,4,8.049,7,12.525,10h-0.005  c-0.128-2-0.193-4.049-0.193-6.098C49.58,31.461,62.427,11.222,64.448,8h0.002c-2.366-1.042-9.106-2.262-13.99-2.262  c-3.108,0-6.142,0.27-9.071,0.869l0.159-0.027c-3.063,8.487-4.947,17.548-5.451,26.965l-0.004,0.009  C31.482,27.551,27.575,21,24.497,14L21.77,15.82z"></path></svg>