<svg fill="#E45A2A" xmlns="http://www.w3.org/2000/svg" xmlns:xlink="http://www.w3.org/1999/xlink" version="1.1" x="0px" y="0px" viewBox="4 4 92 92" enable-background="new 0 0 100 100" xml:space="preserve"><g><path d="M90.675,59.659c-0.541-3.109-4.461-4.731-4.461-4.731c-2.067-5.222-11.223-7.378-14.719-8.021   c1.283-1.775,5.122-7.163,5.122-8.064c0-1.081-2.028-1.757-2.028-1.757s-0.946-1.487-5.136-7.975   c-4.19-6.488-13.165,4.219-13.165,4.219l-0.001,0.002c0.024-0.238,0.045-0.475,0.055-0.707   C55.26,8.565,42.357,10.998,42.357,10.998c-0.062-2.028-5.615-2.163-5.116,0c0.499,2.163-1.191,4.32-2.932,9.732   c-1.476,4.797-2.133,9.122-2.167,12.835c-5.547-7.845-7.701-6.542-7.701-6.542C15.115,20.746,4.167,36.14,4.167,36.14   c1.773,1.622,3.109-0.27,3.109-0.27c5.947-1.487,11.219,2.433,18.487,10.943c0,0.001,0.001,0.001,0.001,0.001   c-9.516,2.327-11.324,19.063-11.324,19.063s-1.352,1.622,0,2.703c0,0-2.148,1.352-0.601,4.19h1.682c0,0,1.757,0.541,2.298,1.216   c0,0,4.596-0.98,10.002-3.869c0,0,2.974-0.997,3.65-1.673c0,0,2.568-0.135,3.65-1.081c0,0,7.98-0.543,8.38-1.487   c0.105-0.248,0.521-0.742,1.042-1.372l5.256,5.354c7.649,11.877,15.7,13.92,17.627,14.774c3.109,1.593,2.703,0,2.703,0   c2.839-5.649-1.757-20.857-2.298-22.161c-0.541-1.304-4.596-2.173-4.596-2.173c-0.103-0.045-0.205-0.084-0.308-0.128   c4.203,0.095,9.778,0.109,14.771-0.243c9.597-0.676,15.544,6.488,15.544,6.488L95,65.606C94.73,61.551,90.675,59.659,90.675,59.659   z M42.272,52.386c0.007-0.019,0.016-0.038,0.022-0.058c0.004,0.03,0.009,0.063,0.012,0.093   C42.295,52.409,42.285,52.398,42.272,52.386z M64.905,39.921l-1.23,0.216c-3.178,5.149-11.263,7.87-14.978,8.882   c0.014,0.077,0.037,0.154,0.017,0.229c-0.115,0.443-0.817,0.644-1.567,0.449c-0.75-0.195-1.264-0.713-1.149-1.156   c0.072-0.278,0.388-0.445,0.789-0.494c0.481-2.957,1.419-11.029-1.57-16.106l-0.007,0.026c-0.062,0.245-0.313,0.395-0.558,0.333   c-0.245-0.062-0.395-0.313-0.333-0.558l0.209-0.828c-0.003-0.004-0.006-0.009-0.01-0.013l0.016-0.012l0.348-1.377   c0.062-0.245,0.313-0.395,0.558-0.333c0.245,0.062,0.395,0.313,0.333,0.558l-0.306,1.209c3.415,4.991,2.697,13.049,2.158,16.616   c0.156-0.111,0.331-0.24,0.514-0.375c1.911-3.463,5.239-10.525,4.039-15.864l-0.198,0.178c-0.188,0.169-0.48,0.153-0.649-0.035   c-0.169-0.188-0.153-0.48,0.035-0.649l1.712-1.538c0.188-0.169,0.48-0.153,0.649,0.035s0.153,0.48-0.035,0.649l-0.886,0.796   c1.346,4.996-1.196,11.359-3.203,15.294c2.731-2.205,6.507-5.813,7.76-9.704c-0.062-0.014-0.126-0.019-0.186-0.048   c-0.419-0.202-0.594-0.706-0.392-1.125c0.045-0.094,0.11-0.17,0.181-0.238c-0.019-0.008-0.04-0.006-0.059-0.015   c-0.419-0.202-0.594-0.706-0.392-1.125c0.202-0.419,0.706-0.594,1.125-0.392c0.242,0.117,0.39,0.338,0.443,0.582   c0.239-0.158,0.546-0.201,0.823-0.068c0.419,0.202,0.594,0.706,0.392,1.124c-0.172,0.355-0.558,0.519-0.928,0.442   c0.01,0.141-0.003,0.285-0.069,0.421c-0.044,0.09-0.107,0.164-0.175,0.23c-1.344,4.909-6.506,9.316-9.326,11.417   c-0.158,0.283-0.305,0.54-0.441,0.773c0.024-0.007,0.051-0.014,0.075-0.021c2.819-1.423,10.544-5.727,12.953-11.226l-0.016,0.007   c-0.234,0.095-0.504-0.018-0.599-0.252c-0.095-0.234,0.018-0.504,0.252-0.599l0.79-0.322c0.001-0.005,0.004-0.01,0.005-0.016   l0.02,0.006l1.316-0.536c0.234-0.095,0.504,0.018,0.599,0.252c0.095,0.234-0.018,0.504-0.252,0.599l-1.157,0.472   c-1.59,4.487-6.5,8.18-10.207,10.429c3.645-1.34,8.169-3.55,10.516-6.803l-0.018,0.003c-0.249,0.044-0.489-0.124-0.532-0.373   c-0.044-0.249,0.124-0.489,0.373-0.532l0.841-0.148c0.003-0.005,0.006-0.009,0.008-0.014l0.018,0.01l1.4-0.246   c0.249-0.044,0.488,0.124,0.532,0.373C65.322,39.638,65.154,39.877,64.905,39.921z"/></g></svg>