<svg xmlns="http://www.w3.org/2000/svg" xmlns:xlink="http://www.w3.org/1999/xlink" version="1.1" x="0px" y="0px" viewBox="0 0 90 90" enable-background="new 0 0 90 90" xml:space="preserve"><g><path d="M9.185,32.225c0.34-0.054,3.318-1.131,3.797-1.417c0.479-0.287,0.304-0.64,0.304-0.64s1.225-1.105,2.408-1.771   c-0.39-0.861-0.557-1.98,0.443-2.843c1.087-0.939,4.897-2.462,9.253-1.494c-4.652,0.384-6.306,1.25-6.49,2.18   c2.765-1.359,9.079-2.117,13.396,0.512c-2.152-0.249-3.812,0.188-3.191,0.951c1.348,1.653,5.762,0.461,5.831,0.063   c0.144,0.996-0.72,2.479-2.452,3.253c-0.816,0.907,5.581,0.214,7.323,3.912c-3.98-1.423-5.05,0.049-5.252,0.42   c-0.66,1.2,1.054,4.095,6.887,4.788c-5.064-1.013-6.053-4.026-6.053-4.026c1.85,1.244,7.44,4.115,11.564,2.907   c3.953-1.16,13.248-1.688,15.326,3.721c5.85,2.662,14.272,7.306,16.922,1.256c1.447-3.311-1.258-5.25-3.521-5.484   c-2.933-0.302-4.748,1.908-3.916,4.14c0.731,0.397,1.707,0.389,2.602,0.047c1.439-0.552-0.053-3.121-0.979-3.28   c2.348-0.588,5.139,2.693,3.467,4.791c-0.062-0.725-0.89-1.324-1.213-1.298c0.426,0.782,0.164,3.222-1.81,3.31   c0.479-0.924-0.224-2.126-0.472-2.251c-0.648,1.432-2.87,1.626-3.618,1.094c1.385-0.548,1.235-1.716,1.133-2.138   c-1.679-2.505,0.619-5.721,5.056-5.454c3.094,0.188,6.233,3.265,4.711,6.951c-2.649,6.409-12.043,3.838-18.188,1.449   c-0.254,1.152-1.261,2.948-2.466,4.674c0.002,0.033,0.005,0.067,0.005,0.102c1.001-0.871,2.184-2.225,3.102-4.162   c0.171,2.143-1.926,5.063-2.805,6.184c0.394,1.549,1.175,2.923,2.444,3.861c0.293,1.058-1.233,2.324-1.553,4.238   c0.297,1.23,0.98,2.336,2.225,2.805c-0.799,0.199-1.486-0.163-2.053-0.74c0.108,0.331,0.26,0.68,0.461,1.042   c0.104,0.188,0.783,1.312-0.178,1.526c-0.959,0.214-3.389-0.327-4.383,0.395c-0.684,0.498-1.48-0.322-1.596-0.466   c-0.529-0.666-0.592-1.121-0.295-1.455c-0.012-0.099,0.017-0.229,0.115-0.412c0.201-0.372,0.768-0.563,1.391-0.569   c-0.029-0.107-0.04-0.338,0.318-0.471c0.34-0.126,0.793,0.092,1.258,0.274c1.141-1.041,0.732-3.761,0.703-4.421   c-0.035-0.783-0.935-1.512-2.533-2.725c-0.004-0.229,0.074-0.654,0.209-1.195c-0.143,0.138-0.281,0.266-0.414,0.379   c-0.977,2.701,0.453,4.216,0.445,4.711c-0.013,0.89-4.767,2.732-3.646,5.279c0.104,0.237,0.632,1.199-0.622,1.385   c-0.783,0.117-1.977,0.106-2.751,0.063c-0.864-0.05-1.437-0.098-2.067-0.294c-0.524-0.16-0.49-0.695,0.017-1.021   c-0.046-0.194-0.028-0.452,0.247-0.668c0.152-0.117,0.453-0.172,0.8-0.174c0.017-0.088,0.073-0.186,0.198-0.285   c0.291-0.232,0.979-0.262,1.514-0.103c0.033-0.019,0.064-0.034,0.098-0.052c1.279-0.721,2.053-3.653,1.412-6.105   c-5.547-4.213-4.318-11.574-3.68-12.906c-0.818,0.402-1.521,3.091-1.418,5.21c0.053,0.318,0.086,0.67,0.135,1.056   c0.023,0.112,0.053,0.218,0.084,0.319v0.133c-0.007,0-0.014,0-0.02,0c0.238,1.484,0.873,3.438,3.645,5.947   c-3.631-1.565-5.115-3.698-5.67-5.459c-2.55,0.971-6.178,2.938-9.554,1.764c-1.747,0.814-2.528,2.234-2.383,3.544   c-0.747-1.092-0.274-2.853,0.803-4.42c-0.144-0.513,0.247-1.377,0.247-1.377c-1.229,1.123-2.294,3.983-1.629,5.999   c0.218,0.656-0.562,2.176-0.409,4.234c0.32,1.157,0.96,2.103,1.877,2.186c-0.503,0.283-0.929,0.309-1.278,0.199   c0.015,0.031,0.024,0.062,0.038,0.091c0.39,0.856,0.602,1.676,0.227,1.881c-0.372,0.204-2.763,0.81-5.137-0.151   c0,0-0.72-1.111,0.283-1.467c0.112-0.039,0.221-0.068,0.33-0.091c0.052-0.147,0.118-0.287,0.204-0.347   c0.147-0.1,0.564-0.146,1.045-0.1c1.396-2.65-1.046-4.58-0.653-7.277c-0.713-1.566-1.149-3.857-1.188-5.465   c-0.31,1.5-0.729,2.892-1.281,3.336c-0.963-0.024-4.001-1.816-4.741-1.11c-0.189,0.18-0.369,0.512-0.495,0.926   c0.275,1.405,1.021,2.687,2.126,2.804c-0.86,0.39-1.633-0.065-2.234-0.725c0.148,0.788,0.541,1.564,1.309,2.119   c1.064,1.847,0.17,3.525-0.181,3.928c-0.503,0.328-0.968,0.036-1.37-0.484c-0.266,0.019-0.57-0.043-0.847-0.306   c-0.091-0.084-0.166-0.266-0.225-0.498c-0.287-0.087-0.761-0.713-0.081-2.257c0.049-1.617-0.608-2.633-0.608-2.633   s-1.521-2.973-0.715-3.5c1.327-0.869,2.608-2.911,4.954-4.455c-4.166-2.555-0.572-7.396-0.572-7.396s-4.463,2.845-1.039,7.787   c0,0-4.046-0.035-5.646-3.058c-0.57-0.943-0.326-1.969,0.224-3.05c-1.72,1.772-1.107,3.244-0.444,4.32   c-2.773-2.187-1.119-4.479,1.15-6.713c1.614-1.749,2.413-2.876,2.128-4.906c-0.228-0.681-0.7-1.36-1.519-2.033   c0.779,1.218,1.005,2.392,0.759,3.215c-1.276,4.295-5.162,2.391-5.354,2.343c-0.115-0.029-0.701,0.126-1.262,0.28   c-0.366,0.102-0.854,0.948-0.837,0.936c0.05-0.033-0.817-2.841-0.244-2.698c0.574,0.143,1.229-0.975,1.134-1.453   c-0.034-0.169-0.378-0.28-0.799-0.369c-0.21-0.045-0.405-0.092-0.587-0.14c-0.062,0.148-0.175,0.525-0.002,0.989   c0,0-0.729-0.556-0.729-1.162c0-0.019,0.021-0.029,0.055-0.033c-0.159-0.057-0.288-0.111-0.374-0.156   C8.87,34.434,8.819,32.282,9.185,32.225"></path></g></svg>