<svg fill="#950002" xmlns="http://www.w3.org/2000/svg" xmlns:xlink="http://www.w3.org/1999/xlink" version="1.1" x="0px" y="0px" viewBox="0 0 100 100" enable-background="new 0 0 100 100" xml:space="preserve"><path fill-rule="evenodd" clip-rule="evenodd" d="M63.936,38.025c0.216,0.741,0.309,1.479,0.277,2.224  c0,0.521-0.076,1.018-0.231,1.48l-0.185,0.418l-0.509,0.738c-0.062,0.03-0.169,0.125-0.324,0.278  c-0.402,0.308-0.895,0.506-1.481,0.601c-0.34,0.065-0.787,0.03-1.343-0.095c-0.71-0.213-1.312-0.602-1.805-1.153  c-0.433-0.464-0.696-0.898-0.788-1.299c-0.062-0.397-0.016-0.646,0.14-0.74c0.091,0,0.277,0.062,0.555,0.185  c0.4,0.277,0.695,0.464,0.879,0.556c0.124,0.065,0.248,0.099,0.371,0.099c0.185-0.127,0.401-0.313,0.648-0.558  c0.34-0.373,0.818-1.115,1.436-2.224c0.37-0.647,0.664-1.157,0.879-1.528c0.371-0.648,0.71-1.218,1.019-1.712  c0.556-0.773,1.096-1.36,1.621-1.76c0.247-0.123,0.448-0.234,0.602-0.325l0.139-0.094l0.417-0.091  c0.216-0.095,0.616-0.187,1.204-0.279c0.926-0.094,1.805,0.033,2.639,0.37c0.865,0.338,1.652,0.927,2.361,1.759  c1.358,1.575,2.161,3.533,2.407,5.884c0.155,1.2,0.093,2.391-0.185,3.562c-0.309,1.296-0.833,2.391-1.574,3.289  c-0.741,0.925-1.636,1.617-2.686,2.08c-0.864,0.402-1.853,0.65-2.963,0.745c-1.79,0.153-3.611-0.018-5.463-0.51  c-1.512-0.435-3.04-1.083-4.583-1.946l-1.899-1.297c-0.093-0.06-0.37-0.308-0.833-0.738l-0.786-0.742  c-1.049-1.05-1.93-2.162-2.64-3.333c0,0.738-0.03,1.464-0.092,2.177c-0.093,0.833-0.215,1.666-0.371,2.499  c-0.339,1.604-0.756,3.024-1.25,4.262c-0.464,1.201-1.003,2.28-1.62,3.238c-0.556,0.802-1.142,1.466-1.761,1.988  c-0.153,0.156-0.416,0.325-0.786,0.512l-0.602,0.323c-0.339,0.158-0.525,0.171-0.556,0.046c-0.031-0.03,0.093-0.185,0.371-0.461  l0.463-0.42c0.247-0.274,0.432-0.508,0.556-0.696c1.141-1.321,2.021-3.019,2.638-5.09c0.371-1.233,0.679-2.589,0.926-4.072  c0.093-0.742,0.154-1.498,0.185-2.271c0.093-0.77,0.093-1.571,0-2.406c-0.092-1.602-0.4-3.289-0.925-5.047  c-0.524-1.575-1.25-3.288-2.176-5.137c-0.401-0.774-0.848-1.56-1.342-2.365c-0.403-0.587-0.942-1.279-1.621-2.081  c-0.556-0.589-1.126-1.143-1.713-1.667c-0.709-0.585-1.342-1.033-1.898-1.343c-1.172-0.679-2.439-1.141-3.795-1.389  c-1.297-0.183-2.531-0.278-3.704-0.278c-2.13,0-3.859,0.278-5.186,0.836c-0.401,0.152-0.833,0.385-1.296,0.692  c-0.278,0.216-0.448,0.294-0.51,0.231c-0.061-0.061,0.017-0.26,0.232-0.603c0.063-0.062,0.217-0.229,0.463-0.508  c0.093-0.123,0.201-0.217,0.325-0.276c0.215-0.187,0.354-0.295,0.417-0.327c0.616-0.464,1.388-0.831,2.314-1.108  c0.987-0.278,2.053-0.465,3.194-0.556c1.235-0.096,2.531-0.096,3.89,0c1.573,0.123,3.07,0.585,4.491,1.389  c0.555,0.275,1.281,0.756,2.176,1.433c0.71,0.619,1.389,1.252,2.037,1.898c0.71,0.804,1.296,1.56,1.759,2.268  c0.556,0.802,1.065,1.667,1.528,2.595c1.019,2.008,1.774,3.857,2.268,5.556c0.402,1.297,0.679,2.639,0.834,4.027  c1.019,1.579,2.237,2.996,3.658,4.26c0.153,0.154,0.401,0.355,0.74,0.603l2.639,1.665c1.451,0.74,2.872,1.268,4.26,1.575  c1.729,0.401,3.364,0.508,4.908,0.323c0.864-0.062,1.651-0.246,2.361-0.554c0.771-0.372,1.419-0.898,1.944-1.575  c0.494-0.617,0.864-1.387,1.11-2.313c0.216-0.835,0.278-1.731,0.185-2.686c-0.061-0.865-0.262-1.729-0.601-2.594  c-0.309-0.803-0.726-1.495-1.251-2.083c-0.494-0.617-1.034-1.063-1.62-1.345c-0.556-0.278-1.173-0.401-1.852-0.369  c-0.495,0.062-0.802,0.091-0.926,0.091c-0.309,0.127-0.571,0.232-0.787,0.328c-0.371,0.214-0.803,0.646-1.297,1.295  c-0.247,0.278-0.524,0.648-0.833,1.111C63.812,37.622,63.874,37.809,63.936,38.025z M62.176,40.759  c0.092-0.125,0.154-0.373,0.185-0.742c0.063-0.121,0.108-0.373,0.139-0.743c-0.741,1.051-1.374,1.775-1.898,2.178  c-0.062,0.03-0.109,0.092-0.139,0.185h0.046c0.278,0,0.51-0.047,0.694-0.139c0.248-0.029,0.433-0.093,0.556-0.181L62.176,40.759z   M74.77,46.59c0.154-0.031,0.309,0.107,0.462,0.415c0.061,0.156,0.124,0.373,0.185,0.652l0.047,0.784  c0,0.554-0.108,1.233-0.324,2.037c-0.248,0.74-0.572,1.48-0.973,2.223c-0.216,0.309-0.417,0.629-0.602,0.972  c0.494,0.342,0.956,0.771,1.389,1.296c1.235,1.45,2.268,3.349,3.102,5.693l0.325,0.836c0.154,0.371,0.247,0.583,0.277,0.648  l0.278,0.415l0.046,0.091c0.062,0.096,0.153,0.157,0.277,0.188h0.231l1.205-0.141c0.771-0.09,1.435-0.09,1.991,0l1.111,0.188  l1.017,0.552c0.525,0.371,1.035,0.912,1.529,1.621c0.647,0.926,1.219,2.132,1.712,3.614c0.525,1.756,0.926,3.889,1.205,6.387  c0.123,1.268,0.2,2.454,0.23,3.565c0,0.154,0,0.293,0,0.416c2.995,0.185,4.492,0.387,4.492,0.602c0,0.216-1.513,0.431-4.538,0.648  c-0.185,0-0.371,0-0.555,0c-0.154,0-0.309,0.016-0.463,0.048c-0.061-1.143-0.123-2.023-0.186-2.643  c-0.092-0.646-0.308-1.833-0.648-3.563c-0.338-1.696-0.755-3.271-1.25-4.722c-0.494-1.268-0.988-2.254-1.481-2.966  c-0.339-0.433-0.694-0.769-1.064-1.015c-0.371-0.248-0.803-0.404-1.297-0.464c-0.463-0.033-1.003-0.033-1.619,0l-1.112,0.139  c-0.062,0-0.154,0-0.278,0l-0.648-0.047l-0.648-0.324c-0.278-0.214-0.463-0.371-0.556-0.462l-0.647-1.02  c-0.031-0.06-0.17-0.367-0.417-0.923l-0.231-0.977c-0.679-2.128-1.482-3.902-2.408-5.324c-0.37-0.554-0.787-1.03-1.249-1.433  c-0.495,0.433-0.973,0.787-1.436,1.065c-0.432,0.244-0.818,0.385-1.157,0.414c-0.309,0-0.494-0.062-0.556-0.182  c-0.03-0.157,0.032-0.357,0.186-0.604c0.093-0.094,0.324-0.401,0.694-0.927c0.093-0.121,0.293-0.341,0.602-0.646  c0.833-1.266,1.328-2.038,1.481-2.317c0.371-0.646,0.679-1.232,0.926-1.758c0.278-0.65,0.479-1.141,0.602-1.482  c0.185-0.523,0.31-0.881,0.371-1.063C74.521,46.792,74.646,46.622,74.77,46.59z M72.361,72.055  c-1.358,0.091-2.592,0.014-3.704-0.234c-0.247-0.06-0.462-0.137-0.648-0.229c-0.031,0.247-0.078,0.555-0.139,0.926  c-0.185,0.617-0.525,1.651-1.019,3.1c-0.401,1.299-0.71,2.239-0.927,2.825c4.291,0.031,8.304,0.093,12.039,0.187  c0-0.094,0.015-0.217,0.046-0.371c0.031-0.215,0.124-0.524,0.277-0.927c0.094-0.246,0.201-0.433,0.325-0.556l0.186-0.23l0.324-0.277  c0.309-0.248,0.756-0.431,1.343-0.556c0.679-0.095,1.11-0.169,1.296-0.231l0.555-0.183l0.094-0.096l-0.14-0.696  c-0.124-0.613-0.231-1.062-0.323-1.341c-0.278-1.171-0.618-2.036-1.019-2.59c-0.462-0.714-1.018-0.96-1.667-0.744  c-0.371,0.092-0.833,0.263-1.389,0.511c-0.648,0.309-1.158,0.537-1.528,0.696l-1.991,0.737c-0.463,0.096-0.786,0.138-0.971,0.138  L72.361,72.055z M73.103,69.691c0.123,0,0.278-0.031,0.463-0.093l0.37-0.044l1.667-0.648c0.339-0.125,0.849-0.357,1.527-0.694  c0.618-0.278,1.173-0.48,1.667-0.604l0.231-0.093h0.323c0.156,0,0.325,0,0.511,0c0.339,0,0.694,0.093,1.064,0.279  c0.587,0.337,1.096,0.833,1.528,1.48c0.309,0.495,0.57,1.065,0.787,1.712c0.155,0.494,0.293,1.035,0.417,1.621  c0.124,0.648,0.293,1.881,0.51,3.704c-0.618,0.277-1.05,0.446-1.297,0.508c-0.155,0.095-0.309,0.156-0.462,0.185l-0.417,0.093  c-0.37,0.032-0.849,0.048-1.435,0.048c-0.092,0-0.186,0.018-0.278,0.05c-0.988,0.768-1.481,1.896-1.481,3.375  c-4.567,0.156-9.615,0.262-15.139,0.327c0.771-2.748,1.296-4.8,1.574-6.158c0.278-1.391,0.602-2.702,0.972-3.937  c-0.216-0.121-0.478-0.31-0.787-0.556c-0.926-0.71-1.605-1.619-2.038-2.731c-0.183-0.554-0.4-1.419-0.647-2.594  c-0.124-0.739-0.247-1.371-0.371-1.896c-0.03-0.123-0.062-0.216-0.092-0.277l-1.204,1.573c-0.277,0.402-0.493,0.68-0.647,0.833  c-0.463,0.525-0.756,0.833-0.88,0.927c-1.112,1.018-2.331,1.805-3.658,2.36c-0.276,0.062-0.57,0.155-0.879,0.276  c0.247,0.156,0.479,0.341,0.695,0.558c0.216,0.185,0.571,0.495,1.064,0.926c0.402,0.373,0.817,0.634,1.25,0.786l0.648,0.188h0.787  c1.204-0.03,1.914-0.03,2.13,0c0.37,0,0.602,0.029,0.694,0.091c0.185,0.03,0.371,0.09,0.556,0.185  c0.031,0.03,0.093,0.078,0.185,0.14l0.231,0.229c0.154,0.187,0.262,0.342,0.324,0.465c0.063,0.122,0.139,0.323,0.232,0.603  c0.093,0.306,0.109,0.646,0.046,1.016c-0.031,0.528-0.139,1.067-0.325,1.621c-0.092,0.278-0.2,0.524-0.322,0.742l-0.372,0.508  c-0.216,0.278-0.371,0.479-0.463,0.604l-0.416,0.371c-0.093,0.093-0.231,0.183-0.417,0.277c-0.308,0.092-0.617,0.062-0.926-0.095  l-0.555-0.183c-0.278-0.063-0.556-0.14-0.833-0.232c-0.155-0.03-0.417-0.079-0.788-0.139c-0.524-0.032-0.895,0.016-1.11,0.139  c-0.216,0.123-0.463,1.248-0.742,3.381c-2.13,0.029-4.336,0.045-6.621,0.045c-0.215,0-0.431,0-0.647,0  c0.062-1.851,0.093-2.824,0.093-2.916v-1.668c-0.031-0.772-0.047-1.373-0.047-1.806c-0.122-1.512-0.308-2.885-0.555-4.121  c-0.339-1.327-0.726-2.621-1.159-3.887c-0.307-0.775-0.555-1.313-0.739-1.623l-0.694-1.435c-0.556-0.987-0.927-1.635-1.112-1.944  c-0.277-0.521-0.37-0.851-0.277-0.972c0.093-0.092,0.37,0.018,0.833,0.323l0.787,0.648c0.402,0.371,0.711,0.696,0.926,0.973  l0.972,1.343c0.216,0.31,0.526,0.879,0.926,1.713c0.34,0.805,0.632,1.589,0.879,2.362c0.094,0,0.17-0.016,0.232-0.048  c0.956-0.154,1.635-0.277,2.037-0.37c0.957-0.217,1.898-0.571,2.824-1.067c1.05-0.521,2.068-1.25,3.056-2.173  c0.371-0.341,0.818-0.835,1.343-1.482c0.585-0.712,1.033-1.218,1.342-1.527c0.957-1.173,1.837-1.99,2.639-2.456  c0.864-0.461,1.636-0.661,2.314-0.598c0.155,0,0.278,0.032,0.371,0.092l0.278,0.045c0.124,0.125,0.185,0.199,0.185,0.23  c0,0.094-0.247,0.262-0.741,0.514c-0.648,0.304-1.203,0.677-1.667,1.107c-0.462,0.435-1.003,1.065-1.62,1.898  c0.124,0.153,0.231,0.34,0.324,0.554c0.216,0.401,0.462,1.036,0.741,1.9c0.402,1.113,0.694,1.867,0.88,2.267  c0.401,0.773,0.942,1.406,1.62,1.898c0.803,0.464,1.698,0.791,2.687,0.974c0.987,0.187,2.082,0.23,3.286,0.139L73.103,69.691z   M50.695,69.922c0.34,1.484,0.509,2.996,0.509,4.539c-0.03,1.143-0.077,1.837-0.139,2.083l-0.231,1.667c0,0.03,0,0.062,0,0.091  c1.543,0,3.07,0.017,4.583,0.05c0.031-0.188,0.078-0.371,0.14-0.558c0.185-0.68,0.478-1.204,0.879-1.575  c0.062-0.031,0.216-0.152,0.462-0.367c0.278-0.123,0.448-0.202,0.51-0.235l0.508-0.092c0.124-0.029,0.293-0.045,0.509-0.045  c0.309,0,0.649,0.016,1.019,0.045c0.401,0.03,0.757,0.092,1.065,0.187l0.371,0.141h0.092l0.047-0.049l0.694-1.157  c0.093-0.369,0.139-0.662,0.139-0.879c0.031-0.095,0.015-0.2-0.046-0.323l-0.371-0.048c-0.864-0.031-1.527-0.063-1.991-0.093  l-1.157-0.094l-0.556-0.231c-0.185-0.09-0.338-0.185-0.462-0.276c-0.494-0.31-0.987-0.74-1.481-1.295  c-0.278-0.342-0.571-0.742-0.879-1.205l-0.602-0.926c-0.093-0.094-0.156-0.217-0.187-0.369c-0.524,0.152-1.049,0.231-1.573,0.231  c-0.803,0-1.498-0.11-2.084-0.325C50.555,69.152,50.633,69.523,50.695,69.922z M10.555,35.989l0.092-0.604  c0.154-0.492,0.293-0.832,0.416-1.017c0.309-0.523,0.711-0.987,1.205-1.387c0.37-0.312,0.755-0.589,1.157-0.835l1.066-0.466  c0.555-0.276,1.017-0.479,1.388-0.6c0.093,0,0.154-0.033,0.185-0.095c0-0.06,0-0.105,0-0.138c-0.031-0.712,0.201-1.406,0.694-2.083  c0.524-0.71,1.282-1.295,2.269-1.758c0.71-0.371,1.682-0.712,2.917-1.021c0.123,0,0.247-0.018,0.37-0.044  c-0.092-0.248-0.154-0.587-0.185-1.02c-0.031-0.371-0.031-0.677,0-0.927c0.03-0.216,0.062-0.402,0.092-0.554l0.139-0.512  c0.309-0.77,0.71-1.435,1.204-1.989c0.525-0.588,1.112-1.036,1.76-1.342c0.371-0.218,0.648-0.343,0.833-0.373  c0.155-0.027,0.401-0.073,0.741-0.139c0.432-0.062,0.802-0.029,1.111,0.097c0.278,0.09,0.417,0.23,0.417,0.415  c0.031,0.155-0.062,0.306-0.277,0.462c-0.154,0.123-0.432,0.324-0.833,0.602c-0.34,0.215-0.525,0.34-0.556,0.371  c-0.124,0.062-0.31,0.2-0.556,0.417c-0.463,0.308-0.88,0.679-1.25,1.112c-0.031,0.028-0.061,0.074-0.094,0.136  c-0.709,1.081-1.002,2.656-0.878,4.724h-0.047c-0.956,0.277-2.114,0.664-3.472,1.156c-1.357,0.558-2.268,1.021-2.731,1.391  c-0.31,0.278-0.617,0.647-0.926,1.111c-0.124,0.248-0.217,0.402-0.279,0.464c-0.061,0.06-0.123,0.123-0.184,0.185  c-0.187,0.401-0.587,0.863-1.204,1.387c-0.031,0.032-0.309,0.28-0.833,0.742c-0.371,0.276-0.663,0.542-0.879,0.786  c-0.278,0.279-0.494,0.571-0.648,0.883c-0.185,0.396-0.262,0.754-0.231,1.062c-0.031,0.71,0.201,1.483,0.694,2.315  c0.216,0.402,0.524,0.924,0.926,1.573c0.247-0.556,0.632-1.079,1.157-1.573c0.833-0.679,1.714-1.111,2.639-1.294  c0.71-0.095,1.359,0.012,1.945,0.321c0.339,0.125,0.648,0.371,0.926,0.74c0.277,0.308,0.478,0.681,0.602,1.113  c0.216,0.402,0.324,0.802,0.324,1.202c0.03,0.433,0,0.817-0.093,1.16c-0.124,0.707-0.355,1.34-0.694,1.897  c-0.68,1.079-1.499,1.773-2.455,2.081c-0.339,0.093-0.694,0.123-1.064,0.093c0.093,0.278,0.185,0.588,0.278,0.925  c0.216,0.65,0.385,1.098,0.508,1.347l0.371,0.505c0.062,0.095,0.14,0.188,0.232,0.279l0.277,0.23  c0.155,0.125,0.37,0.279,0.648,0.466l0.788,0.508c0.432,0.278,0.756,0.51,0.973,0.694c0.37,0.399,0.648,0.77,0.833,1.113  c0.093,0.183,0.186,0.431,0.278,0.738l0.186,0.648c0.155,0.617,0.231,0.988,0.231,1.109c0.124,0.805,0.201,1.514,0.231,2.131  c0.062,1.635,0.154,2.731,0.277,3.287c0.124,0.558,0.355,1.204,0.695,1.946c0.215,0.494,0.293,0.8,0.231,0.925  c-0.093,0.125-0.371,0.031-0.833-0.278c-0.617-0.523-1.111-1.202-1.481-2.035c-0.217-0.496-0.371-1.067-0.464-1.714  c-0.123-0.496-0.216-1.129-0.277-1.897c-0.124-0.895-0.216-1.531-0.278-1.9l-0.278-0.97c-0.031-0.25-0.061-0.389-0.093-0.419  l-0.185-0.371c-0.155-0.306-0.509-0.679-1.065-1.109c-0.834-0.587-1.358-0.989-1.574-1.204c-0.185-0.185-0.309-0.323-0.371-0.416  c-0.154-0.153-0.262-0.292-0.324-0.417l-0.324-0.464c-0.093-0.246-0.155-0.431-0.186-0.556c-0.153-0.463-0.277-1.127-0.37-1.99  c-0.092-0.863-0.138-1.355-0.138-1.482c0-0.123-0.016-0.339-0.046-0.646c-0.062-0.341-0.093-0.525-0.093-0.554  c0-0.187,0.031-0.281,0.093-0.281c0.031-0.063,0.123-0.046,0.277,0.05c0.154,0.12,0.294,0.275,0.417,0.462c0,0.06,0,0.107,0,0.139  c0.432-0.031,0.818-0.169,1.159-0.417c0.524-0.372,0.956-0.93,1.295-1.668c0.216-0.369,0.341-0.768,0.371-1.202  c0.062-0.431,0.031-0.79-0.092-1.067c-0.155-0.338-0.354-0.586-0.602-0.74c-0.216-0.125-0.525-0.185-0.926-0.185  c-0.555,0.033-1.234,0.23-2.037,0.604c-0.309,0.15-0.755,0.418-1.342,0.785l-0.047,0.092c0.31,0.557,0.526,1.065,0.649,1.529  c0.124,0.433,0.108,0.694-0.046,0.787c-0.092,0.032-0.293-0.093-0.603-0.37l-1.202-1.065c-0.804-0.744-1.39-1.373-1.759-1.897  c-0.34-0.431-0.634-0.96-0.88-1.573l-0.232-1.018c-0.031-0.065-0.062-0.232-0.093-0.512v-0.556  C10.508,36.297,10.524,36.114,10.555,35.989z M47.037,42.747c0.123,0,0.246,0.277,0.37,0.837c0.092,0.705,0.139,1.494,0.139,2.359  c0,1.266-0.201,2.481-0.602,3.656c-0.247,0.587-0.386,0.925-0.417,1.02l-0.509,0.923c-0.278,0.465-0.71,1.048-1.296,1.762  c-1.173,1.512-1.929,2.546-2.269,3.1c-0.586,0.958-0.925,1.823-1.018,2.593c-0.03,0.187-0.047,0.373-0.047,0.558  c0.032,0.091,0.078,0.216,0.14,0.371c0.03,0.123,0.107,0.305,0.23,0.555l0.833,1.479c0.031,0.096,0.139,0.389,0.324,0.883  c0.124,0.492,0.107,0.77-0.047,0.831c-0.092,0.096-0.292-0.031-0.601-0.368l-1.759-1.761c-0.278-0.368-0.432-0.585-0.463-0.648  c-0.216-0.398-0.34-0.665-0.371-0.787c-0.123-0.435-0.215-0.711-0.277-0.832c-0.402-1.233-0.603-2.516-0.603-3.843l-0.509,2.037  c-0.031,0.186-0.046,0.433-0.046,0.742c-0.031,0.986,0.016,1.896,0.139,2.729c0.062,0.529,0.185,1.175,0.371,1.948  c0.03,0.492,0,0.8-0.093,0.923c-0.124,0.031-0.339-0.153-0.648-0.556l-0.277-0.325l-0.742-1.526  c-0.369-0.896-0.571-1.96-0.602-3.192c0-0.557,0-0.881,0-0.974l0.139-1.063c0.062-0.342,0.139-0.681,0.231-1.021  c0.032-0.121,0.093-0.308,0.186-0.554l0.185-0.463c0.37-0.895,1.034-1.976,1.991-3.241c0.771-1.05,1.281-1.742,1.527-2.085  c0.401-0.738,0.71-1.265,0.926-1.573c0.062-0.094,0.124-0.187,0.185-0.276c0.216-0.371,0.386-0.527,0.51-0.464  c0.123,0.031,0.185,0.31,0.185,0.833c-0.031,0.619-0.2,1.343-0.508,2.175c-0.031,0.095-0.062,0.185-0.094,0.279  c-0.153,0.556-0.385,1.389-0.694,2.502c-0.215,0.984-0.323,2.004-0.323,3.05c0.001-0.026,0.016-0.058,0.046-0.09  c0.494-0.984,1.266-2.127,2.315-3.424c0.556-0.742,0.956-1.267,1.204-1.576l0.463-0.741c0.155-0.369,0.279-0.647,0.371-0.832  c0.309-0.68,0.617-1.65,0.925-2.916c0.248-1.327,0.402-2.054,0.464-2.173C46.744,43.024,46.883,42.747,47.037,42.747z   M35.925,58.996c0.063,0.619,0.139,1.16,0.232,1.625c0.154,0.8,0.293,1.387,0.417,1.756l0.231,0.833l0.463,0.742  c0.247,0.4,0.601,0.925,1.065,1.573c0.155,0,0.324,0.062,0.509,0.187c0.586,0.244,1.204,0.537,1.852,0.877  c1.112,0.681,1.991,1.313,2.64,1.9c0.524,0.523,0.972,1.109,1.342,1.758c0.371,0.617,0.664,1.373,0.88,2.27l0.231,1.205l0.047,0.924  c0,0.276-0.062,0.569-0.186,0.879c-0.124,0.278-0.324,0.494-0.602,0.648c-0.186,0.063-0.31,0.109-0.371,0.14l-1.388,0.091  c-0.31,0.03-0.525,0.079-0.648,0.141c-0.186,0-0.37,0.046-0.556,0.14c-0.308,0.183-0.587,0.414-0.833,0.694  c-0.124,0.246-0.324,1.435-0.602,3.564c-4.907-0.031-9.475-0.093-13.705-0.186c-0.216,0-0.416,0-0.601,0  c0.278-1.665,0.417-2.546,0.417-2.639l0.417-2.407c0.371-1.141,0.725-2.069,1.065-2.781c0.524-0.893,1.142-1.679,1.852-2.355  c0.494-0.494,1.049-0.976,1.666-1.437c0.216-0.186,0.463-0.387,0.74-0.604c-0.925-0.369-1.588-0.663-1.99-0.877  c-0.648-0.401-1.235-0.774-1.759-1.111c-0.617-0.464-1.112-0.927-1.482-1.391l-0.325,1.665c-0.092,0.404-0.216,0.958-0.37,1.67  c-0.124,0.523-0.293,1.219-0.509,2.085c-0.093,0.338-0.324,1.034-0.694,2.079l-0.325,0.931c-0.031,0.088-0.078,0.211-0.139,0.369  l-0.37,0.927c-0.247,0.615-0.448,1.062-0.603,1.339l-0.231,0.325c-0.093,0.123-0.215,0.261-0.371,0.419  c-0.401,0.274-0.709,0.415-0.925,0.415l-0.51-0.048l-0.462-0.185c-0.063-0.031-0.232-0.141-0.51-0.325l-0.833-0.508l-0.278-0.094  l-0.047-0.046h-0.092c-0.032,0-0.078,0.015-0.139,0.046l-0.139,0.048l-0.093,0.046c-0.247,0.154-0.524,0.492-0.833,1.018  c-0.062,0.123-0.277,0.525-0.648,1.204c0,0.03,0,0.063,0,0.094c-0.062,0.029-0.185,0.662-0.37,1.896  c-7.624-0.246-11.436-0.54-11.436-0.879c0-0.308,3.535-0.586,10.602-0.833l0.186-0.742c0.124-0.617,0.262-1.107,0.416-1.48  c0.309-0.833,0.665-1.435,1.065-1.806l0.278-0.231l0.278-0.137c0.092-0.065,0.185-0.109,0.277-0.14l0.324-0.141  c0.216-0.031,0.355-0.048,0.417-0.048c0.03,0,0.169,0.017,0.417,0.048c0.215,0.094,0.417,0.185,0.601,0.28l1.25,0.646h0.046  l0.092-0.183c0.124-0.219,0.263-0.514,0.417-0.881l0.232-0.556c0.123-0.373,0.216-0.587,0.277-0.65l0.37-0.973  c0.371-0.925,0.618-1.591,0.741-1.99l1.574-4.259l0.648-1.25c-0.154-0.187-0.247-0.292-0.278-0.323l-1.296-2.363l-0.556-1.85  c-0.124-0.433-0.2-0.773-0.232-1.02c-0.092-0.925-0.123-1.545-0.092-1.853l0.231-2.08l0.138-0.466  c0.217-0.587,0.387-0.863,0.51-0.831c0.123,0,0.216,0.321,0.278,0.97c0.123,1.173,0.215,1.946,0.277,2.317  c0,0.185,0.047,0.431,0.14,0.738c0.124,0.494,0.186,0.756,0.186,0.787c0.03,0.184,0.107,0.461,0.231,0.834l0.139,0.462l0.462,1.018  l1.158,1.854l0.602,0.788c0.402,0.464,0.879,0.928,1.436,1.389c0.432,0.309,0.941,0.664,1.527,1.062  c0.277,0.218,0.587,0.434,0.926,0.652c-0.37-0.403-0.709-0.85-1.019-1.345c-0.587-0.99-0.957-2.131-1.112-3.427  c-0.091-0.802-0.076-1.587,0.048-2.359c0.061-0.554,0.185-0.833,0.37-0.833c0.123,0,0.262,0.246,0.417,0.74  c0.092,0.371,0.277,1.062,0.555,2.083c0.309,1.02,0.71,1.867,1.204,2.546c0.34,0.402,0.694,0.773,1.065,1.11  c0.339,0.248,0.817,0.558,1.434,0.927c0.495,0.31,0.941,0.585,1.344,0.835c-0.371-0.496-0.696-0.958-0.973-1.389  c-0.246-0.373-0.432-0.728-0.555-1.063c-0.093-0.16-0.17-0.358-0.231-0.606l-0.186-0.554c-0.185-0.649-0.308-1.359-0.37-2.131  c-0.093-0.925-0.077-2.1,0.046-3.518c0.278-2.036,0.571-3.056,0.88-3.056c0.247,0,0.448,1.036,0.603,3.103  C35.864,57.779,35.895,58.286,35.925,58.996z M31.388,72.099c-0.617,0.771-1.08,1.452-1.389,2.037l-0.556,1.161  c-0.092,0.275-0.262,0.658-0.509,1.154l-0.741,2.083c3.58-0.062,7.408-0.123,11.481-0.183c0-0.125,0-0.264,0-0.42  c0.063-0.494,0.186-0.955,0.371-1.388c0.247-0.618,0.647-1.11,1.204-1.481c0.216-0.183,0.509-0.354,0.879-0.51  c0.248-0.092,0.571-0.169,0.973-0.232l0.462-0.044c0.063-0.062,0.139-0.095,0.231-0.095l0.047-0.046h-0.047v-0.093L43.61,73.07  c-0.184-0.646-0.385-1.2-0.602-1.664c-0.247-0.433-0.556-0.896-0.926-1.392c-0.34-0.307-1.019-0.956-2.037-1.942  c0.494,0.834,0.818,1.588,0.972,2.269c0.124,0.555,0.108,1.25-0.046,2.083c-0.124,0.8-0.34,1.329-0.648,1.575  c-0.031,0-0.062-0.016-0.092-0.046c-0.093-0.341-0.17-0.664-0.232-0.976c-0.123-0.554-0.354-1.05-0.694-1.48  c-0.463-0.619-1.111-1.187-1.945-1.712c-0.371-0.31-0.848-0.621-1.436-0.925c-0.215-0.127-0.431-0.25-0.648-0.371  c0.279,0.187,0.51,0.402,0.695,0.648c0.371,0.431,0.509,0.707,0.416,0.832c-0.031,0.154-0.324,0.123-0.88-0.092l-1.99-0.787  l-0.047-0.046c-0.154,0.337-0.416,0.771-0.787,1.296C32.623,70.464,32.19,71.049,31.388,72.099z"></path></svg>