<svg fill="#0A5D19" xmlns:x="http://ns.adobe.com/Extensibility/1.0/" xmlns:i="http://ns.adobe.com/AdobeIllustrator/10.0/" xmlns:graph="http://ns.adobe.com/Graphs/1.0/" xmlns="http://www.w3.org/2000/svg" xmlns:xlink="http://www.w3.org/1999/xlink" xmlns:a="http://ns.adobe.com/AdobeSVGViewerExtensions/3.0/" version="1.1" x="0px" y="0px" viewBox="0 0 100 100" enable-background="new 0 0 100 100" xml:space="preserve"><g><path d="M90.5,20c-0.9,0.3-1.5,1.1-1.4,2c0.1,3.1-0.7,5.4-2.5,7.2c-4.1,4-12,3.6-12.1,3.6c0,0-0.1,0-0.1,0   C68.3,26.3,59.6,22.3,50,22.3c-9.6,0-18.3,4-24.4,10.5c0,0-0.1,0-0.1,0c-2.2,0.2-8.6-0.2-12.1-3.5c-1.8-1.8-2.6-4.1-2.5-7.2   c0-0.9-0.5-1.7-1.4-2c-0.9-0.3-1.8,0.1-2.3,0.9C7,21.2,2.2,29.2,4.7,37.8c1.5,5.3,5.4,9.6,11.6,12.8c0.1,0,0.2,0.1,0.3,0.1   c-0.3,1.8-0.4,3.6-0.4,5.4c0,2.7,0.3,5.4,1,8h-2.1c-1.1,0-2,0.9-2,2v11.9c0,1.1,0.9,2,2,2h69.9c1.1,0,2-0.9,2-2V66.1   c0-1.1-0.9-2-2-2h-2.1c0.6-2.6,1-5.3,1-8c0-1.8-0.2-3.7-0.4-5.4c0.1,0,0.2-0.1,0.3-0.1c6.2-3.1,10.1-7.5,11.6-12.8   c2.5-8.6-2.3-16.6-2.5-16.9C92.3,20.1,91.4,19.7,90.5,20z M54,63.2H46V27.5H54V63.2z M8.6,36.7c-0.8-2.7-0.6-5.3-0.2-7.6   c0.6,1.1,1.3,2.1,2.2,3c3.4,3.3,8.4,4.3,11.8,4.6c-2.1,3-3.8,6.4-4.8,10C12.8,44.1,9.7,40.8,8.6,36.7z M20.2,56.1   c0-13.7,9.3-25.2,21.8-28.7v36.7H21.3C20.6,61.6,20.2,58.9,20.2,56.1z M82.9,76.1H17.1v-7.9h2.8c0,0,0,0,0,0c0,0,0,0,0,0h63.1V76.1   z M58,64.1V27.4c12.6,3.5,21.8,15,21.8,28.7c0,2.8-0.4,5.4-1.1,8H58z M91.5,36.7c-1.2,4-4.2,7.4-9,10c-1.1-3.6-2.7-7-4.8-10   c3.3-0.3,8.3-1.3,11.8-4.6c0.9-0.9,1.7-1.9,2.2-3C92.1,31.4,92.2,34,91.5,36.7z"></path><path d="M22.3,73.5c0.4,0.4,0.9,0.6,1.4,0.6s1-0.2,1.4-0.6c0.4-0.4,0.6-0.9,0.6-1.4s-0.2-1-0.6-1.4c-0.7-0.8-2.1-0.8-2.8,0   c-0.4,0.4-0.6,0.9-0.6,1.4S21.9,73.1,22.3,73.5z"></path><path d="M32.5,74.1c0.5,0,1-0.2,1.4-0.6c0.4-0.4,0.6-0.9,0.6-1.4s-0.2-1-0.6-1.4c-0.7-0.8-2.1-0.8-2.8,0c-0.4,0.4-0.6,0.9-0.6,1.4   s0.2,1,0.6,1.4C31.4,73.9,31.9,74.1,32.5,74.1z"></path><path d="M41.2,74.1c0.5,0,1-0.2,1.4-0.6c0.4-0.4,0.6-0.9,0.6-1.4c0-0.5-0.2-1-0.6-1.4c-0.8-0.7-2.1-0.7-2.8,0   c-0.4,0.4-0.6,0.9-0.6,1.4s0.2,1,0.6,1.4C40.2,73.9,40.7,74.1,41.2,74.1z"></path><path d="M50,74.1c0.5,0,1-0.2,1.4-0.6c0.4-0.4,0.6-0.9,0.6-1.4c0-0.5-0.2-1-0.6-1.4c-0.7-0.8-2.1-0.8-2.8,0   c-0.4,0.4-0.6,0.9-0.6,1.4c0,0.5,0.2,1,0.6,1.4C49,73.9,49.5,74.1,50,74.1z"></path><path d="M58.8,74.1c0.5,0,1-0.2,1.4-0.6c0.4-0.4,0.6-0.9,0.6-1.4s-0.2-1-0.6-1.4c-0.7-0.8-2.1-0.8-2.8,0c-0.4,0.4-0.6,0.9-0.6,1.4   s0.2,1,0.6,1.4C57.7,73.9,58.2,74.1,58.8,74.1z"></path><path d="M67.5,74.1c0.5,0,1-0.2,1.4-0.6c0.4-0.4,0.6-0.9,0.6-1.4c0-0.5-0.2-1-0.6-1.4c-0.8-0.8-2.1-0.8-2.8,0   c-0.4,0.4-0.6,0.9-0.6,1.4c0,0.5,0.2,1,0.6,1.4C66.5,73.9,67,74.1,67.5,74.1z"></path><path d="M76.3,74.1c0.5,0,1-0.2,1.4-0.6c0.4-0.4,0.6-0.9,0.6-1.4s-0.2-1-0.6-1.4c-0.8-0.8-2.1-0.8-2.8,0c-0.4,0.4-0.6,0.9-0.6,1.4   s0.2,1,0.6,1.4C75.2,73.9,75.8,74.1,76.3,74.1z"></path><path d="M50,58.4c0.5,0,1-0.2,1.4-0.6c0.4-0.4,0.6-0.9,0.6-1.4c0-0.5-0.2-1-0.6-1.4c-0.7-0.7-2.1-0.7-2.8,0   c-0.4,0.4-0.6,0.9-0.6,1.4s0.2,1,0.6,1.4C49,58.2,49.5,58.4,50,58.4z"></path><path d="M50,51.1c0.5,0,1-0.2,1.4-0.6c0.4-0.4,0.6-0.9,0.6-1.4c0-0.5-0.2-1-0.6-1.4c-0.7-0.7-2.1-0.7-2.8,0   C48.2,48,48,48.5,48,49.1c0,0.5,0.2,1,0.6,1.4C49,50.8,49.5,51.1,50,51.1z"></path><path d="M50,43.7c0.5,0,1-0.2,1.4-0.6c0.4-0.4,0.6-0.9,0.6-1.4c0-0.5-0.2-1-0.6-1.4c-0.7-0.7-2.1-0.7-2.8,0   c-0.4,0.4-0.6,0.9-0.6,1.4c0,0.5,0.2,1,0.6,1.4C49,43.5,49.5,43.7,50,43.7z"></path><path d="M50,36.3c0.5,0,1-0.2,1.4-0.6c0.4-0.4,0.6-0.9,0.6-1.4c0-0.5-0.2-1-0.6-1.4c-0.7-0.8-2.1-0.7-2.8,0   c-0.4,0.4-0.6,0.9-0.6,1.4c0,0.5,0.2,1,0.6,1.4C49,36.1,49.5,36.3,50,36.3z"></path></g></svg>