<svg fill="#A37511" xmlns="http://www.w3.org/2000/svg" xmlns:xlink="http://www.w3.org/1999/xlink" xml:space="preserve" version="1.1" style="shape-rendering:geometricPrecision;text-rendering:geometricPrecision;image-rendering:optimizeQuality;" viewBox="0 0 50800 50800" x="0px" y="0px" fill-rule="evenodd" clip-rule="evenodd"><defs><style type="text/css">
   
    .fil0 {fill:#A37511}
   
  </style></defs><g><path class="fil0" d="M18389 45092c186,30 383,61 363,515 -20,454 14,127 -110,308 -204,-55 -281,312 -253,-823zm700 -1c381,83 270,376 477,1124 264,952 199,352 288,1234l319 205c105,744 -34,461 -120,687 -66,174 -982,-784 -1016,-1107 -25,-231 150,61 -33,-274 -87,-159 -190,-118 -377,-675 363,61 249,-35 405,284 275,564 245,1078 798,1214 -129,-616 -526,-681 -407,-1438 -434,-307 -467,-1011 -334,-1254zm-88 -1143l213 920c-353,-148 -360,-635 -213,-920zm-876 -695c235,94 98,18 301,148 125,80 110,77 211,135 58,1286 23,1188 -265,1258l-247 -1541zm555 -112l-533 -137 40 -1197 630 373 -137 961zm-397 -1665c79,-358 133,-612 359,-832 418,222 365,262 161,1168l-354 -230c-16,-10 -42,-26 -56,-35l-110 -71zm832 -959l-368 -222c18,-255 281,-1155 577,-1027 382,165 -109,910 -209,1249zm515 -1379l-323 -197c20,-372 205,-775 413,-949l317 134c-48,352 -189,804 -407,1012zm429 -1257c-275,-333 -111,-416 86,-741 232,-383 180,-479 669,-349 -81,302 -459,970 -755,1090zm1041 436l236 -517c-545,178 -408,707 -895,1432 -401,596 -229,134 -827,1156 -11,19 -22,44 -33,61l-90 108c-11,13 -36,33 -53,50 97,-526 770,-1988 1013,-2534 304,-680 972,-1628 1403,-2137 -33,452 -201,827 -287,1261 -100,508 -38,933 -467,1120zm-334 -1835l-33 -129c27,-202 -28,-30 50,-183 301,-588 486,-647 822,-599 -49,289 -144,350 -296,574 -245,361 -185,493 -543,337zm1477 -1227c332,-345 368,-516 569,-845l251 -310c43,958 187,2388 -467,2863 -103,-213 -34,-659 88,-883 10,-17 27,-35 37,-51 11,-17 30,-35 40,-51 125,-188 -6,47 120,-184 -443,72 -665,178 -857,822 -144,486 -21,280 54,378 136,-331 108,-371 337,-567 -10,897 -169,971 -700,1324 -2,-517 313,-1809 710,-2083 -31,-100 -114,-347 -182,-413zm2089 -80c86,-346 288,-767 563,-856 -39,288 -293,736 -563,856zm-2545 164l-328 -164 485 -1067 561 161c-47,377 -485,897 -718,1070zm-4315 -1425c220,114 93,14 262,200 119,130 148,113 168,343l-341 156 -89 -699zm16983 -367c365,216 83,141 358,381 0,0 711,306 147,691 -1,1 -163,75 -168,76 -157,18 -96,-13 -171,-47 18,-16 46,-61 54,-44l299 -226c-437,-462 -67,-165 -361,-601 -11,-17 -31,-34 -42,-50l-116 -180zm-1239 -215c161,-142 142,-94 225,-32l-225 32zm-10530 606l-480 -107 279 -820 638 34c0,383 -214,681 -437,893zm863 116c5,653 248,1055 304,1606 -267,204 -215,269 -449,400 -526,-1453 621,-1909 -161,-2401 294,-555 594,-948 872,-1626 185,227 194,609 275,1006 172,839 490,944 -134,1749l-195 -1668c-239,142 -58,-235 -206,537 -53,277 -81,266 -306,397zm9617 -1204c82,-146 -181,-149 218,-184 352,-31 153,-29 253,184 -161,140 228,98 -179,105 -428,8 -212,-57 -292,-105zm-7506 908c79,-566 303,-1260 620,-1693l382 504c-147,496 -618,1065 -1002,1189zm9067 -903c-17,-16 -46,-61 -53,-45 -7,15 -43,-35 -52,-45 -11,-13 -73,-74 -84,-93 -122,-228 -80,-43 8,-279 275,108 71,40 361,229 582,-62 899,-399 1348,-399 171,229 180,236 158,605 -242,-60 -240,-153 -428,-414l-954 277c-163,75 -139,83 -304,164zm-899 429c80,-605 291,-398 42,-1101l383 52c-202,543 -33,304 15,637 52,362 -112,414 -440,412zm-10436 -463l-768 -139c74,-326 214,-630 349,-880l834 105c-97,415 -231,632 -415,914zm8230 -731c288,177 410,90 628,311 -53,27 58,239 -376,-20 -253,-151 -153,-116 -252,-291zm-16991 -138c244,-180 130,-126 288,0 -187,262 -156,235 -288,0zm17396 87c-7,-301 346,-1058 600,-1225 71,910 -96,943 723,1260 -114,315 -352,591 -674,657 -290,-432 37,-431 165,-790l-814 98zm3191 -416c-137,-91 -306,-32 -180,-330 60,-141 222,-203 338,-260 -2,462 -151,499 -158,590zm-10222 2464c-399,-517 -526,-1716 -548,-2497 -16,-560 559,-1815 1023,-2089 15,17 41,19 47,50l357 1020c100,381 240,800 343,1201 -404,654 -273,502 -660,517 -51,363 -58,408 -355,536 -49,-527 -76,-1063 -361,-1424 -276,384 -36,740 179,1364 213,618 225,632 -25,1322zm-1061 -2405l-734 -255 356 -941c414,42 501,98 734,298l-356 898zm7328 -1437c123,-308 315,-753 499,-965 162,433 92,832 122,1309 175,133 52,99 361,150l-470 505c-219,265 -31,65 -215,201 -39,-794 -145,-605 -297,-1200zm-13368 11354c-63,-445 75,-810 137,-1227 -350,152 -359,355 -391,831 -40,595 -19,638 212,1082 -22,624 -132,773 -201,1258 173,316 95,28 207,360 92,271 206,1039 125,1403 -1475,-3250 -955,-4318 267,-7190 406,-956 1825,-2977 2462,-4549 129,-317 648,-1378 672,-1578 -3,267 -91,566 -181,824 -227,650 126,213 -80,799 -163,466 -565,941 -698,1502 18,-16 45,-64 52,-49 7,15 39,-38 49,-50l170 -197c391,-372 226,-104 440,-717 200,-572 432,-757 677,-1161 -297,-876 -496,-286 250,-1523 73,-121 106,-220 192,-345 173,-250 622,-906 1025,-984 -106,252 -39,414 -175,754l-1685 3708c-853,1586 -1853,2656 -2353,4022 -250,681 -1121,2458 -1173,3027zm3353 -11683c-1,-1 -154,-48 -46,-420 50,-173 121,-216 193,-297 51,214 146,687 -147,717zm3258 518l-871 -332 202 -929c448,-17 762,130 1109,244 -68,515 -291,640 -440,1017zm5281 -715c34,-524 259,-939 627,-1120 239,434 153,905 127,1466 -325,302 -1497,827 -2013,884 81,-314 173,-372 324,-561 116,-144 95,-133 185,-264 258,-377 -7,-152 298,-245 162,216 75,215 144,371 13,29 24,53 38,81 16,31 42,56 56,81 16,26 43,55 67,81l77 -612c210,361 -40,118 271,302l387 -1053c-401,201 -320,325 -588,589zm-8264 1811c135,-882 264,-1719 235,-2666 420,170 309,-54 105,1274 -90,586 17,991 -340,1392zm-2270 -3021l286 299c83,149 108,275 128,500l-513 -136c0,-66 0,-308 8,-367 31,-217 13,-140 91,-296zm13048 1921c-369,-375 173,-819 274,-1264 90,-397 -16,-275 280,-454 -47,450 -166,408 -263,842l-291 876zm-14956 -1222c-46,-407 -21,-417 218,-585 307,107 231,84 374,364 -39,40 -47,216 -592,221zm13518 894c-34,-56 -236,58 -45,-616 150,-531 191,-375 257,-481 288,-467 -46,-707 617,-925 -30,440 -404,1881 -829,2022zm-10750 -420c-340,-410 -326,-922 204,-1227l-204 1227zm13398 -1445c7,741 -255,1932 -647,2344l152 -1237c295,-1277 -92,-912 495,-1107zm-8489 893c-419,-197 -610,-228 -1091,-316l77 -994c695,-134 1034,131 1470,327 -51,387 -243,798 -456,983zm-5358 -556l-100 -352 314 59 -214 293zm-435 -357c55,353 185,205 -215,218 58,-184 -127,-152 215,-218zm-1223 -126c532,419 133,-218 546,-481l286 1543 -784 64 49 -766c-29,-119 -85,-60 -97,-360zm11047 1174l42 -1680 479 390c-131,574 -345,1104 -521,1290zm1140 -876c80,-174 232,-292 472,-365 -201,412 -264,124 -472,365zm-8113 202c-53,-310 -99,-772 156,-950 194,281 49,582 -156,950zm-1561 -617l799 239 84 544c-525,129 -643,-294 -595,682 31,645 180,561 524,896 -3,512 -185,535 -532,271 -608,-462 -126,-779 -101,-811l-315 -161c-63,-1347 661,-666 136,-1660zm12558 24l4 -484c322,170 360,273 404,687 -115,-58 -272,-128 -408,-203zm-6528 -360c227,267 398,771 636,1165 289,482 515,735 803,1082 -15,868 -97,1530 -639,1893 -53,-727 58,-885 269,-1443l-101 -41c-298,-53 48,45 -163,-15 -372,-106 -794,-1646 -804,-1754l-1 -887zm-7595 91l200 -396c295,84 441,166 678,287 319,162 308,141 330,534 -351,-85 -901,-263 -1208,-425zm-1129 724c-454,-68 -578,99 -819,255 31,724 107,383 425,1132 375,882 172,368 631,801 170,-781 -181,-325 -3,-997 134,474 184,1167 89,1743 -62,374 -434,1049 -674,1298 -427,-117 -341,-199 -501,-513 -8,-16 -25,-44 -39,-65l-228 324c-7,12 -22,39 -35,56 -100,-336 -24,-347 78,-637 -370,94 -373,185 -359,649 -268,-252 -17,-156 -374,-317 37,693 432,573 1615,673 142,453 302,361 266,959 -173,-307 -172,-215 -470,-382 -623,-349 -183,43 -583,-421l-179 365c-265,-166 -32,-54 -270,-321l-550 176c388,-748 -97,-85 114,-830 -279,-200 -142,-23 -312,-269 376,-511 765,14 1233,-862 142,-264 115,-185 320,-396 154,-1049 -332,-1261 -336,-2159 -4,-726 502,-1359 1269,-1199 -232,310 -506,204 -308,937zm5151 -212c55,-315 205,-754 472,-837 -95,432 -242,535 -472,837zm9159 -58l-265 -357c-859,-42 -624,312 -1006,535l168 -380c346,-535 1189,-730 1798,-597l-394 88c-106,357 -163,507 -301,711zm-13802 -903c241,-116 304,-85 480,0 -194,177 -300,258 -480,0zm5241 -180l245 -250c4,367 -10,382 -96,670 -59,198 -114,1273 -320,2175 -937,28 -670,947 -1385,948 -16,-641 147,-1377 323,-1993 133,-467 -33,-363 226,-665 99,128 188,-160 57,385l-274 1327c394,130 429,74 614,-289 -407,75 -149,40 -419,163 229,-759 642,-1460 1142,-1982 -13,-123 -78,-435 -113,-489zm6390 244c-173,-558 -134,-1321 60,-1782 142,89 249,162 316,353 62,175 19,311 -18,464 -93,381 -165,768 -358,965zm-9076 -2212c252,116 226,63 90,344 -127,-180 -217,-194 -90,-344zm-269 -562c150,225 37,231 0,284 -118,-213 -155,-88 0,-284zm3249 1901l-1220 1308c-24,-59 -313,136 125,-593 526,-876 937,-1105 994,-1430 -545,90 -867,955 -1147,1453l-204 245c-416,-548 1022,-3012 1508,-3294 75,727 -170,609 -130,1005 56,539 60,776 74,1306zm400 -2458c684,-236 1000,-82 1531,122 171,1165 -147,2752 -219,3635l-1466 -390 57 -873c752,-110 1078,455 1459,54 -169,-269 -516,-295 -897,-435 -532,-194 -460,-418 -468,-1052 713,52 893,239 1412,332 -62,-574 -371,-344 -1436,-748l27 -645zm2281 3625c-83,-85 -122,-116 -269,-180 -100,274 -51,212 -23,499 61,605 -5,161 -81,452 -35,136 -29,673 477,745 -104,531 18,560 366,1067 437,640 179,183 -49,1072 -69,271 -112,594 -241,820 -347,-300 -1053,-2734 -1019,-3396 59,-1160 334,-1330 374,-3506 10,-574 42,-437 136,-561 140,480 179,904 434,1270 96,-255 -152,-707 -233,-1038 -46,-189 -37,-503 -72,-635 -231,-881 -259,865 -284,-1230 265,285 305,742 274,1137 21,8 57,-8 66,16 81,233 117,-347 407,424 343,912 914,1172 1033,1300 227,243 225,370 517,651 563,543 505,823 543,1813 25,653 80,1609 -445,1888 30,-385 48,-701 87,-1075 24,-237 27,-301 85,-533 118,-476 78,-332 -16,-463 -178,333 -108,521 -226,777 -79,172 -313,454 -404,562 -339,-397 -745,-1079 -1015,-1668 -527,-1150 -338,-1833 -691,-2038 -309,461 215,783 269,1830zm-6201 -4686l-36 965c-146,-65 -213,-174 -178,-375l214 -590zm4001 -39c439,-143 1103,-46 1431,233l10 608c-324,-12 -1020,-171 -1519,-199 0,-50 -12,-271 -6,-321l53 -251c5,-19 21,-47 31,-70zm10 -1125c565,207 884,70 1357,214l38 645 -1392 -130 -3 -729zm-322 -167l-104 2071c-292,157 -241,61 -430,359 -176,277 -118,353 -452,414 216,-607 594,-413 720,-1051 -298,84 -827,824 -1140,1208 -173,212 -244,519 -385,779 -210,386 -194,538 64,800 -126,316 -385,1042 -613,1307l-213 -559c-84,-358 -88,-309 -3,-706 262,120 -58,38 298,133 70,-787 7,-1527 394,-2127 293,-455 759,-1181 1120,-1431 -83,293 -169,276 -228,581 674,-681 582,-716 458,-1029 234,-155 241,-113 427,-302 -109,-398 -276,-298 87,-447zm2016 128l175 -2070 349 1697c-8,-16 11,-82 18,-64 71,195 -65,-67 218,-177l245 -124c491,980 650,1070 1101,1693l681 1027c260,392 904,778 887,1393 -20,732 -251,-344 -333,1970 -382,-169 -954,-933 -1083,-1506 -408,-91 -245,15 -451,-337l-634 -1172c-161,-362 -99,-288 45,-573 -155,-138 -203,-52 -324,-325l-371 -1687 -373 168c-24,13 -54,31 -74,43 -21,11 -50,30 -76,44zm-261 -165l-1414 -144 8 -718c47,-215 53,-150 80,-204 597,-209 -118,127 534,91 281,-15 456,-103 854,-92l-62 1067zm4262 -2115l366 1791c4,35 18,341 15,362 -62,486 -18,148 -117,300l-360 -1835c-128,-722 80,-598 96,-618zm-6224 353l183 211c116,260 55,862 11,1136 -505,179 -300,-49 -585,395 -459,714 -1667,2016 -1836,3113 -75,491 -149,319 -251,733 -60,244 -113,649 -130,730 -234,-886 336,-1851 416,-2082 141,-407 14,-217 -31,-296 -187,111 -31,-87 -199,173 -64,99 -61,141 -106,250 -120,293 -110,332 -318,499 -30,-1141 321,-928 458,-1712 192,-1098 830,-2017 1522,-2782 217,-240 396,-250 549,-523 211,-376 143,-415 602,-580 -76,544 -3,412 -285,735zm2049 324c-1103,26 -977,-151 -999,-378 -361,71 -344,70 -528,-36l117 -829c764,50 884,-59 1497,-132l-87 1375zm-5521 -1222c67,-435 82,-248 300,-502 -17,274 -55,359 -300,502zm6752 -980c470,296 204,556 398,1106 207,585 447,666 610,1083 -262,-157 -220,-37 -279,-424l-456 21c-125,-625 -324,-1141 -273,-1786zm-1035 579c-796,-187 -742,-126 -1481,23l201 -1262 1341 -129 -61 1368zm2856 3770c-402,-769 -840,-1026 -767,-1704 241,156 173,221 352,380 -73,-349 -110,-122 -192,-563 499,261 327,414 930,845 346,247 167,68 402,408 107,155 294,305 282,569 -9,226 -95,283 -29,670 69,408 603,1809 145,2087 -120,-224 -18,-65 -63,-224 -171,-602 -414,-773 -479,-893 -218,-407 40,-983 65,-1118 79,-428 5,-233 -62,-328 -242,251 -218,571 -299,980 -587,-245 -1148,-1508 -1513,-2218 -258,-502 -413,-798 -673,-1214 -230,-367 -143,-348 -260,-746 -281,-959 -531,578 -239,-2209 15,15 47,11 56,46 1,5 294,223 335,606 43,404 -143,395 -65,849 57,330 619,1993 795,2181 242,259 235,170 478,515 234,333 474,979 801,1081zm2698 -4808l370 -32c-141,116 -120,156 -370,32zm739 35c131,-283 123,-234 514,-357 304,-96 405,-161 670,-37 -281,314 -662,513 -1184,394zm1328 -115c105,-422 100,-357 569,-428 -111,251 -292,314 -569,428zm-4765 -549c429,-414 164,-291 315,-804 107,64 130,-109 216,393l272 1898c-338,-252 -668,-1090 -803,-1487zm3021 -179l778 -152 -35 379c-331,24 -525,26 -743,-227zm-8988 800c151,-389 357,-804 751,-857 -315,369 -237,545 -751,857zm11436 -653c-178,-227 -265,23 -50,-326 76,-124 259,-217 417,-285 -100,254 -216,410 -367,611zm-1117 -235c43,-157 -81,-205 235,-311 126,-42 378,-10 528,2 -283,246 -207,322 -763,309zm-3319 555c-203,-284 -291,-1122 -304,-1488 794,81 2,-19 530,355 787,558 1082,381 1417,1026 -1031,84 -1117,-456 -1247,-671 -76,-127 -40,-67 -126,-143 -363,348 -32,322 -119,695 -94,404 -31,95 -151,226zm1092 -1171c70,-48 -5,-70 162,-69l697 104 -410 235 -449 -270zm2388 -482c302,97 209,122 587,75 38,220 -55,46 62,216l-1142 182c274,-228 308,-181 493,-473zm-7238 1350c-519,-88 -743,-271 -1257,2l226 -1051c340,-198 758,-171 1186,-102l-155 1151zm914 -1153c18,129 237,899 309,1031 300,546 -104,-302 230,95 192,229 -15,201 353,431 -60,-268 -108,-409 -196,-657 -139,-395 -105,-259 -419,-451l-6 -556c373,212 1441,1969 1576,2357 368,1054 134,264 376,435 220,155 13,364 188,892 162,491 694,2301 523,2583 -381,-348 -1054,-1762 -1232,-1959 -695,-768 -1642,-2641 -1788,-3700 -51,-28 -131,-55 -168,-79l-203 -152c46,-220 107,-445 163,-622 125,-403 99,-330 263,-481 190,209 219,213 297,564l-266 269zm-6414 4313l-634 2155c-14,320 74,552 -82,860 -203,-498 -334,-3198 172,-4163 12,461 153,771 68,1213 -75,395 -230,801 -143,1267 231,-312 10,-1142 745,-2016 369,-438 144,151 586,-855 230,-523 820,-1193 1217,-1566 166,-155 1278,-1987 2371,-2065l-841 4050c-423,-27 -371,-58 -663,229 -517,508 -1203,1381 -1545,1960 -123,207 -237,454 -372,705 -247,460 -365,322 -519,650 -57,122 -211,713 -261,898l-140 674c-79,205 -70,143 -177,255 -11,-742 48,-1311 295,-1936 92,-233 275,-539 315,-750 83,-443 -243,-256 139,-856 281,-442 608,-915 949,-1290 291,-318 644,-987 1037,-1246l-279 569c286,-176 475,-504 642,-805 445,-800 321,-61 671,-569 -33,-171 -212,-409 -319,-603 185,-455 341,-632 346,-1239 -325,37 -1298,1331 -1419,1512 -315,473 14,789 -354,1170 -110,114 -157,142 -271,268l-899 1078c-371,573 -162,203 -635,446zm2177 -4398c401,-7 282,-55 528,-264 -85,309 -743,847 -975,975 117,-280 227,-293 75,-505l-898 1674c-180,359 -94,406 -523,367 59,-221 145,-463 303,-671 275,-360 378,-32 351,-402 -19,-246 12,-38 -137,-236 -306,165 -179,4 -504,806 -133,329 -234,565 -473,752 25,-307 235,-768 385,-1023 151,-257 222,-246 329,-402 153,-222 58,-255 216,-497 256,-392 467,-199 758,-674 219,-357 387,-594 843,-728 -140,401 -210,312 -278,828zm11215 -290c-214,-154 -258,-29 -89,-420 140,-323 125,-291 472,-289 -197,841 -252,653 -383,709zm648 -283c-113,-209 4,-315 224,-401l-224 401zm-8286 297l-1146 -191 340 -1146c559,-62 801,123 1148,338 -37,380 -130,727 -342,999zm771 -1094c523,-199 904,1437 958,1767 -494,-353 -677,-1244 -754,-1377 -174,-300 -348,-87 -204,-390zm-559 -376l182 34c-215,186 -82,73 -182,-34zm2231 1858c-278,-353 -204,-549 -283,-1016 -72,-420 51,190 -33,-148l-60 -121c-323,371 96,911 173,1287 127,618 0,259 -84,390 -270,-160 -183,-142 -321,-643 -240,-865 -337,-1033 -882,-1753 95,-448 261,-988 485,-1255 481,478 538,658 697,1464 110,557 307,1223 308,1795zm-4233 -1298c188,-318 334,-612 718,-816 -93,551 -209,696 -718,816zm9967 -185c-196,-308 128,-660 427,-706 -48,281 -253,553 -427,706zm-14476 -341c203,-820 526,-394 578,-359l-413 179c229,240 245,115 251,443l-416 -263zm-543 -419c103,-268 180,-321 358,-506 205,-215 195,-289 375,27 -24,8 -182,49 -190,52 -212,90 -54,2 -196,127 191,281 245,286 -87,559l-260 -259zm-87 -542c114,-311 27,-239 364,-284 -100,273 -49,216 -364,284zm14981 2978c57,-175 184,-275 319,-562 126,-268 225,-393 375,-614 846,-1244 453,-250 601,-1317l347 -114 -361 -219c244,-254 292,-207 714,-298 393,-85 436,-164 902,-137 -162,319 -576,325 -927,573 -536,378 -405,314 -701,920 -188,383 -710,1706 -1269,1768zm-9712 -2421c-33,-84 -93,-8 -38,-201 5,-18 587,-803 1027,-793 -34,319 -726,1032 -989,994zm12779 -1034c46,-32 -95,-192 554,-89 4,399 -128,815 -506,629l343 -274c14,-10 44,-20 53,-53 10,-35 36,-38 54,-60l-498 -153zm-11741 1140c51,-682 329,-839 515,-1354l967 80c-3,235 -83,457 -152,664 -235,711 -43,551 -1330,610zm-4066 198c-33,-411 -336,-698 -720,-764 -306,-52 -190,144 -455,-190 -158,-199 -175,-243 -228,-451 203,37 1802,892 1967,1056 -73,373 -284,574 -451,821l-399 -200c2,29 426,1112 -470,696 134,-224 140,-132 252,-419 -126,-357 -309,-336 -161,-784 360,8 318,174 665,235zm13584 -2014c195,21 194,-65 240,152 53,245 -219,360 -509,743 -241,-52 -156,22 -372,-248 212,-61 290,-41 449,37l192 -684zm-6755 1120c-304,-272 -795,-838 -434,-1354 222,270 350,766 434,1354zm8157 -963c-194,279 -275,853 -1305,768l1305 -768zm-2588 164c-109,58 -32,168 -284,36 -191,-100 -123,-100 -167,-306 366,80 323,16 451,270zm-4765 374c-71,-765 41,-1217 329,-1776 28,237 49,812 38,1040 -12,272 -160,572 -367,736zm-10314 166c-97,-165 -111,272 -70,-260l165 -759c368,217 5,137 379,263l-283 404c-117,249 -35,153 -191,352zm-449 -283c-369,-319 -425,-435 -315,-1020 584,190 67,130 511,285l-196 735zm917 -1292c7,15 22,46 30,66l140 347c137,417 131,161 -99,275 -126,-140 -117,188 -129,-368 -1,-45 28,-261 26,-384 12,21 25,49 32,64zm17462 523c176,-337 313,-596 547,-842 -68,622 -388,467 -547,842zm-10392 217c-104,-720 210,-1119 730,-1313l620 256c-105,408 -291,762 -427,1090l-923 -33zm8368 -1002c-197,-325 -104,-585 85,-777l-85 777zm-10571 1360c199,-468 1467,-1354 2103,-1481l-145 415c-894,202 -327,-200 -1007,466 -312,306 -430,309 -692,453l-259 147zm-5964 -963c-59,-100 -55,31 -70,-177l148 -646c53,-268 113,-607 133,-882 109,414 78,368 335,624 -112,269 -22,62 -181,277 -406,549 95,539 -365,804zm7251 -777c148,-289 -43,-88 242,-275 2,-1 201,-90 215,-96 -100,311 -81,320 -457,371zm-6359 -124c-12,-18 -33,-40 -39,-51 -162,-271 -134,-321 -65,-771l481 -75c-26,1449 -245,1210 -436,1451 -15,18 -12,276 -88,117 -7,-16 -31,42 -36,50l-216 -272c135,-372 74,-210 399,-449zm7946 -298c51,-245 670,-1193 779,-1296l608 267c-103,287 -214,289 -326,543 -103,235 -51,312 -195,588l-866 -102zm-7621 -825c42,-352 2,-374 221,-580 34,81 117,14 21,275 -24,65 -67,117 -116,185l-126 120zm9128 3560c-263,-1414 -835,-1633 -7,-3063 255,-439 1431,-2022 1737,-2178 701,2029 57,2048 166,3109 -410,279 -377,470 -717,749 -54,-2022 275,-1693 377,-2354 -187,50 -175,105 -316,225 -133,-540 -44,-398 -262,-588 -283,401 55,107 31,1214l-353 189c-173,802 -248,929 -260,1878 -6,541 103,581 155,907 15,97 -1,421 -26,518 -84,332 -124,244 -186,313l-30 -967 -309 48zm-9718 -4144c6,-422 -48,-285 182,-462 29,46 246,-142 -64,668 -169,443 -65,412 -465,387l25 -414c24,-14 54,-34 71,-44 15,-9 51,-31 68,-41l125 -66c10,-27 39,-19 58,-28zm-572 -221c-235,-80 -153,-46 -272,-271 341,-30 315,-45 272,271zm4426 5237c-36,-799 930,-1515 1668,-2376 329,-384 501,-377 591,-683l791 -1168c261,-338 72,-36 379,-252l1346 -1255c239,567 -586,1687 -836,2135 -188,336 -176,345 -611,470 157,-214 260,-225 502,-450l-403 -409c-631,279 -906,1129 -989,1217 -93,97 -280,238 -393,328 -275,216 -525,388 -800,638 -845,767 -703,629 -754,1314l470 -246c172,-52 331,16 515,47 262,-424 1206,-1424 1808,-1577 -271,963 -54,246 -885,896 -215,168 -305,324 -558,519 -790,608 -805,1031 -1162,752 148,-175 184,-143 274,-448 -448,68 -452,278 -984,967 -231,298 -430,450 -613,820l-419 248c163,-460 349,-579 728,-832l5 -565 330 -90zm-4032 -5931c146,297 127,219 -185,297 72,-352 -26,-161 185,-297zm1967 218c107,-267 132,-256 490,-331 -150,300 -116,278 -490,331zm-1248 -326c220,364 19,175 -31,211l31 -211zm-392 0c-219,-106 -135,-32 -194,-303 194,93 175,66 194,303zm1539 -250c67,-26 134,-51 201,-77 563,-218 375,-52 447,2 -18,13 -43,30 -57,36 -27,12 -597,250 -824,144l233 -105zm7654 745c119,-516 775,-1221 1084,-1535l603 625c-202,346 -274,552 -563,848 -211,217 -426,607 -672,740l-98 -233c12,-11 37,-30 51,-41 125,-101 122,21 159,-108 8,-26 35,-23 61,-68l-625 -228zm-8370 -1342c6,-355 -25,-730 288,-897 203,264 149,219 -15,499 -7,12 -122,191 -146,226l-127 172zm9958 -826c245,-389 436,-486 655,-812 386,148 284,183 902,194l-866 1358c-385,-146 -545,-269 -691,-740zm1447 -878c189,-135 -171,-59 292,-110 5,-1 295,19 342,20 -248,181 -294,190 -634,90zm-2839 951c684,-77 743,-631 1175,-1044 153,-147 157,-92 302,-236 640,-634 286,-910 1096,-919 -145,376 -1210,1391 -1575,1787 -539,587 -495,720 -735,971 -371,386 -505,467 -737,986 -699,44 -1017,485 -1563,593 48,-458 529,-1663 768,-2011 159,258 33,133 20,502 376,19 291,-55 638,-174 -31,494 -288,508 61,717 148,-219 35,-56 129,-315 97,-269 95,-35 82,-279 -6,-104 -45,-88 -73,-287l-23 -233c-9,-227 -438,-37 -504,-15 -8,-146 -164,-624 101,-594l224 76c20,8 47,15 68,25 358,169 252,380 311,260 8,-16 28,41 45,60l275 -585c136,-354 -4,-219 331,-439 -315,-224 -136,73 -242,-245l989 -34c-239,906 -1146,565 -1163,1433zm3046 2535c-234,703 -339,533 -555,523 -206,-599 -170,-1255 -429,-1986 337,-326 715,-823 880,-1259 112,152 53,-7 136,285 86,302 -16,353 253,792 890,120 1182,-201 1488,-693 38,-459 -137,-557 -336,-989l-881 62c498,-928 175,-272 224,-672 40,-326 234,-248 250,-608 -630,146 -452,411 -672,745 -370,-66 -385,-38 -623,-224 78,-295 480,-611 842,-972l770 -956c370,-34 809,-181 1090,-85 51,113 204,80 -126,528 -631,858 -934,779 -961,1116 -33,412 29,179 87,279l716 -564c238,-244 111,-432 560,-663 111,1271 -716,3479 -1143,3940l-579 405c-406,235 -178,-177 -560,440 -155,251 -261,390 -431,556zm-1901 -4687c511,-226 1725,-1145 2545,-1155 -204,393 -513,358 -745,789 -1118,-110 -1627,1221 -2572,828l772 -462zm1091 -927c-373,-191 -763,-609 -1406,-288 -458,229 -620,771 -714,1352 -1178,618 -1850,2092 -2268,3397 -361,1126 -326,1073 -897,1976 -197,311 -94,338 -379,610 -683,654 -2174,2707 -2603,3146 -640,-101 -2858,-1177 -2674,-2597 71,-546 312,-1615 645,-1945 525,-521 1389,-306 1217,-1477l-428 -379 -468 157c-508,-934 388,-548 -442,-1467 -576,-19 -680,72 -956,362 -3,579 286,537 -129,967 -143,-195 -145,-577 -318,-764 -198,-212 -552,-303 -844,-146 -559,335 -71,890 -36,1348l-497 -223c-674,326 -728,921 -174,1294 91,61 47,9 118,66 392,321 22,403 667,588 167,1832 -815,2638 69,4060 465,748 1839,1971 2832,2291 -313,1072 -954,1734 -1157,2830 -314,1699 -619,1427 -526,3485 36,800 326,2616 652,3255 232,456 457,715 690,1289 235,579 248,1082 415,1647 -1047,-119 -1741,-946 -2882,-865 -614,44 -1025,221 -1311,547 -71,80 -272,383 -367,533 -154,244 -191,421 -175,765 18,385 757,2375 -284,2814 -876,369 -2640,-708 -2428,1144 169,96 347,200 614,202 106,0 247,-31 333,-39l298 27c-466,801 -1244,-419 -1092,1527 785,156 977,-42 1550,-285 27,477 -89,732 140,1035 772,361 1109,-877 1430,-1267 40,426 102,726 306,1045 1622,315 536,-2009 570,-2301 26,-232 421,-720 510,-1282 93,-592 -56,-1186 25,-1771 1432,-236 1371,767 1954,1229 191,151 423,277 708,374 41,1139 -1355,3759 -1891,4560 -198,295 -404,654 -589,1029 -205,413 -434,715 -581,1032 -1000,2143 -1749,4034 -992,6419 213,674 1281,2774 1597,3250 240,362 1226,1744 1740,1311 519,-438 -599,-2317 -923,-4020 -133,-699 -367,-1554 -191,-2324 160,-695 336,-1439 646,-1948l317 54c58,-646 229,-776 539,-1174 304,-390 374,-606 737,-967 270,-268 600,-575 905,-804 302,-227 158,-66 414,-394 255,-327 123,-255 577,-311 2,-650 1022,-1214 1550,-1876 443,-554 1975,-1893 2293,-2465 786,-1412 1167,-1082 2280,-1590 604,-276 607,-449 1383,-407 490,747 1,1354 309,1821 204,309 1052,549 1462,950 -91,920 -705,543 -600,1437 665,691 811,63 1312,-129 14,-516 95,-709 653,-677 217,320 123,691 237,1109 551,136 977,-16 1270,-392 51,-877 -437,-753 -574,-1258 558,-486 1241,404 1768,-540 57,-584 -52,-752 -454,-1016 -516,5 -498,177 -997,225 404,-744 658,-795 65,-1687 -1017,-52 -903,402 -1081,1080 -363,391 -834,405 -1228,51 -95,-948 1329,-2718 623,-3853 -995,-1603 -2247,-45 -3340,18 -12,-760 869,-1991 411,-5098 -130,-883 -86,-1673 -266,-2613 -160,-834 -501,-1565 -600,-2435 1244,58 2592,843 4036,276 986,-387 1801,-3369 2587,-4146 753,-744 799,-164 1295,-244 398,-63 823,-663 610,-1277 -388,-246 -719,-131 -1204,-151 369,-744 1132,-873 364,-1944 -760,-59 -825,205 -957,860 -60,291 -492,1000 -705,1046 -108,-710 51,-1087 43,-1646 -17,-1242 -1593,-1114 -1420,338 78,645 613,770 236,1297 -493,-35 -400,-206 -675,-600 -318,-456 -1193,-688 -1027,401 127,835 1156,932 1175,1060 40,265 160,329 57,621 -234,662 -680,1541 -1183,1971 -640,547 -1759,221 -2551,16 -434,-112 -1527,54 -931,-887 -579,-655 426,-2814 814,-3325l2044 -2538c577,-648 1319,-1950 1674,-2902 385,-1035 881,-2819 75,-3623 -567,-50 -1223,134 -1840,223 -837,121 -936,272 -1586,540z"></path><path class="fil0" d="M19467 37535c-9,-456 -109,-397 129,-765l1183 -1391c-395,-51 -493,96 -693,352l-836 1147c-229,470 24,350 -258,724 -390,516 -1317,1744 -1396,2500 387,-132 858,-1829 1871,-2567z"></path><path class="fil0" d="M26805 22068c108,211 166,482 275,736 170,395 256,361 418,650 348,625 537,1174 849,1301l-669 -1449c482,226 319,734 732,993 -270,-735 -858,-1561 -1121,-2079 -150,-296 -187,-597 -291,-866 -149,230 49,149 -102,521 -265,653 67,-356 -91,193z"></path><path class="fil0" d="M27027 26227l-139 -84c-29,-21 -143,-121 -156,-133 489,1686 336,892 613,1180 240,249 406,1240 1033,1389 -167,-422 -8,-44 -297,-323 -144,-138 -878,-1570 -866,-1860 11,-268 102,-20 0,-415l-216 -441c-37,89 -93,-135 -54,272 5,60 66,263 82,415z"></path><path class="fil0" d="M17632 32268c-39,-157 -1,-56 -71,-150 -40,-54 -75,-66 -151,-166 128,-55 151,-28 240,-71 237,-115 91,-7 217,-179 -21,-132 -19,-48 -271,-243 67,-53 165,118 62,-210 -127,-406 -95,-222 -274,-308 -298,329 -510,1326 248,1327z"></path><path class="fil0" d="M21884 20284c493,-12 1668,-1614 1760,-1844 -415,142 -458,315 -724,628 -750,882 -408,222 -712,640l-324 576z"></path><path class="fil0" d="M22178 21888l121 446 366 -104c-27,-73 -360,-257 364,-985 154,-154 663,-697 688,-925 -488,20 -822,1263 -1539,1568z"></path><path class="fil0" d="M31673 8502c1,-300 23,-495 -36,-775 -67,-317 -24,-475 -145,-632 -298,142 -167,-111 -226,317 -30,212 -7,670 159,893l192 167c7,-16 37,21 56,30z"></path><path class="fil0" d="M29220 19805l-1143 -2394c-119,258 278,834 473,1230 199,404 390,883 670,1164z"></path><path class="fil0" d="M25545 32211l-229 -1496c-311,433 7,1202 229,1496z"></path><path class="fil0" d="M32770 3798c224,-111 151,-97 323,-255 149,-137 218,-168 286,-412 -187,111 -549,370 -609,667z"></path><path class="fil0" d="M28468 24584c5,67 148,230 89,13 -24,-86 -104,-207 -89,-13z"></path></g></svg>