<svg fill="#5F327C" xmlns="http://www.w3.org/2000/svg" xmlns:xlink="http://www.w3.org/1999/xlink" version="1.1" x="0px" y="0px" viewBox="6 6 88 88" enable-background="new 0 0 100 100" xml:space="preserve"><g><path fill="#5F327C" d="M86.007,11.593H67.335c-5.215-3.341-10.91-5.547-16.937-6.56c-0.264-0.044-0.531-0.044-0.795,0   c-6.026,1.012-11.72,3.218-16.936,6.56H13.993c-1.326,0-2.4,1.074-2.4,2.4V50c0,22.359,15.986,41.271,38.011,44.967   C49.734,94.989,49.867,95,50,95s0.266-0.011,0.397-0.033C72.422,91.271,88.408,72.36,88.408,50V13.993   C88.408,12.667,87.332,11.593,86.007,11.593z M83.607,50c0,19.871-14.108,36.698-33.607,40.163   C30.502,86.698,16.393,69.872,16.393,50V16.394h16.985c0.472,0,0.933-0.139,1.326-0.399c4.703-3.116,9.846-5.187,15.295-6.157   c5.45,0.971,10.593,3.041,15.297,6.157c0.392,0.26,0.853,0.399,1.325,0.399h16.985V50z"></path><path fill="#5F327C" d="M48.816,83.332c0.098,0.586,0.607,1.002,1.182,1.002c0.066,0,0.133-0.005,0.2-0.017   C67.007,81.496,79.206,67.063,79.206,50c0-0.663-0.538-1.2-1.2-1.2c-0.663,0-1.2,0.538-1.2,1.2   c0,15.886-11.357,29.323-27.004,31.95C49.147,82.06,48.707,82.679,48.816,83.332z"></path><path fill="#5F327C" d="M38.273,21.995c0-0.663-0.538-1.2-1.2-1.2H21.994c-0.663,0-1.2,0.538-1.2,1.2V50c0,0.663,0.538,1.2,1.2,1.2   c0.663,0,1.2-0.538,1.2-1.2V23.195h13.878C37.735,23.195,38.273,22.657,38.273,21.995z"></path><path fill="#5F327C" d="M52.4,70.004V44.399h9.602c1.325,0,2.4-1.074,2.4-2.4s-1.075-2.4-2.4-2.4H52.4v-9.602   c0-1.326-1.074-2.4-2.4-2.4s-2.4,1.074-2.4,2.4v9.602h-9.602c-1.326,0-2.4,1.074-2.4,2.4s1.074,2.4,2.4,2.4H47.6v25.605   c0,1.325,1.074,2.4,2.4,2.4S52.4,71.33,52.4,70.004z"></path></g></svg>