<svg fill="#9933cc" xmlns="http://www.w3.org/2000/svg" xmlns:xlink="http://www.w3.org/1999/xlink" version="1.1" x="0px" y="0px" viewBox="0 0 100 100" enable-background="new 0 0 100 100" xml:space="preserve"><g><path d="M49.999,5.943L15.154,17.544c0,0,0,28.918,0,34.008c0,5.088,4.606,32.307,34.845,44.391   c30.236-12.084,34.847-39.303,34.847-44.391c0-5.09,0-34.008,0-34.008L49.999,5.943z M80.229,51.162   c0,8.748-5.846,31.109-30.23,41.443C25.616,82.271,19.767,59.91,19.767,51.162c0-10.842,0-30.36,0-30.36L49.999,8.867l30.23,11.936   C80.229,20.802,80.229,40.32,80.229,51.162z"/><path d="M49.549,46.355c0-0.006-0.003-0.01-0.003-0.014c0,0,0.005-0.225,0.014-0.607c-0.008-0.178-0.017-0.377-0.027-0.621   c-0.008-0.406-0.089-0.861-0.141-1.402c-0.055-0.537-0.183-1.154-0.287-1.82c-0.261-1.334-0.622-2.887-1.001-4.57   c-0.182-0.846-0.367-1.721-0.521-2.621c-0.156-0.9-0.293-1.824-0.376-2.752l-0.112-1.396c-0.011-0.465-0.021-0.93-0.033-1.391   c-0.006-0.92,0.045-1.828,0.109-2.703c0.115-0.869,0.156-1.723,0.33-2.508c0.16-0.787,0.256-1.547,0.453-2.219   c0.175-0.678,0.336-1.301,0.478-1.852c0.017-0.051,0.031-0.094,0.048-0.146c-0.495-0.391-0.834-0.961-0.923-1.615L21.752,38.048   v5.998l24.592-22.65c0.155-0.141,0.396-0.141,0.548,0.008c0.157,0.154,0.159,0.406,0.007,0.563L21.752,47.72v1.156h0.005v2.286   c0,0.973,0.088,2.186,0.287,3.572l23.447-28.592c0.139-0.166,0.385-0.199,0.56-0.07c0.184,0.135,0.221,0.391,0.088,0.572   L22.771,58.439c0.475,1.941,1.14,4.068,2.041,6.297l20.491-33.631c0.117-0.189,0.363-0.26,0.561-0.152   c0.206,0.111,0.281,0.367,0.171,0.57L26.326,68.104c0.922,1.852,2.014,3.738,3.295,5.611l16.2-37.52   c0.093-0.211,0.333-0.316,0.55-0.236c0.227,0.084,0.34,0.334,0.256,0.557L31.78,76.623c1.283,1.596,2.719,3.16,4.321,4.67   L47.08,41.31c0.064-0.229,0.294-0.369,0.527-0.318c0.242,0.053,0.395,0.293,0.34,0.531L38.76,83.619   c1.577,1.275,3.293,2.492,5.156,3.631l5.628-40.86C49.545,46.378,49.547,46.367,49.549,46.355z"/><path d="M51.563,19.732c0.017,0.051,0.03,0.096,0.048,0.146c0.142,0.551,0.303,1.174,0.478,1.852   c0.197,0.672,0.293,1.432,0.453,2.219c0.174,0.785,0.215,1.639,0.33,2.508c0.064,0.875,0.115,1.783,0.109,2.703   c-0.012,0.461-0.022,0.926-0.033,1.391l-0.112,1.396c-0.083,0.928-0.22,1.852-0.376,2.752c-0.154,0.9-0.34,1.775-0.521,2.621   c-0.379,1.684-0.74,3.236-1.001,4.57c-0.104,0.666-0.232,1.283-0.287,1.82c-0.052,0.541-0.133,0.996-0.141,1.402   c-0.008,0.18-0.015,0.338-0.021,0.482c0.045,0.863,0.14,2.031,0.14,2.031l5.448,39.629c1.863-1.137,3.578-2.354,5.154-3.627   l-9.189-42.106c-0.055-0.238,0.098-0.479,0.34-0.531c0.233-0.051,0.463,0.09,0.527,0.318L63.89,81.303   c1.603-1.508,3.039-3.072,4.323-4.668l-14.852-40.12c-0.084-0.223,0.029-0.473,0.256-0.557c0.217-0.08,0.457,0.025,0.55,0.236   l16.206,37.532c1.281-1.873,2.373-3.758,3.296-5.609L53.954,31.523c-0.11-0.203-0.035-0.459,0.171-0.57   c0.197-0.107,0.443-0.037,0.561,0.152L75.185,64.75c0.901-2.229,1.568-4.355,2.044-6.297L53.85,26.644   c-0.133-0.182-0.096-0.438,0.088-0.572c0.175-0.129,0.421-0.096,0.56,0.07L77.956,54.75c0.2-1.395,0.289-2.611,0.289-3.588v-2.286   h0.005v-1.143L53.09,21.966c-0.152-0.156-0.15-0.408,0.007-0.563c0.151-0.148,0.393-0.148,0.548-0.008L78.25,44.058v-6   L52.483,18.156C52.387,18.794,52.049,19.349,51.563,19.732z"/><path d="M21.752,29.726v5.227l25.886-17.889c0.309-1.029,1.252-1.785,2.384-1.785c1.146,0,2.105,0.779,2.398,1.834L78.25,34.96   v-5.227L49.994,13.626L21.752,29.726z"/><path d="M48.337,30.5l0.08,1.342c0.061,0.896,0.175,1.791,0.309,2.67c0.131,0.879,0.295,1.744,0.458,2.582   c0.309,1.52,0.607,2.947,0.838,4.223c0.23-1.275,0.529-2.703,0.837-4.223c0.163-0.838,0.327-1.703,0.458-2.582   c0.134-0.879,0.248-1.773,0.309-2.67l0.08-1.342c0.001-0.447,0.002-0.891,0.003-1.332c-0.012-0.881-0.079-1.748-0.157-2.582   c-0.13-0.83-0.183-1.643-0.367-2.393c-0.17-0.752-0.272-1.475-0.479-2.119c-0.182-0.648-0.349-1.242-0.495-1.77   c-0.005-0.016-0.01-0.027-0.015-0.043c-0.059,0.004-0.114,0.018-0.174,0.018s-0.115-0.014-0.174-0.018   c-0.006,0.016-0.01,0.027-0.016,0.043c-0.146,0.527-0.313,1.121-0.495,1.77c-0.206,0.645-0.309,1.367-0.479,2.119   c-0.185,0.75-0.237,1.563-0.367,2.393c-0.078,0.834-0.146,1.701-0.157,2.582C48.335,29.609,48.336,30.052,48.337,30.5z"/><path d="M46.895,88.92c1.002,0.523,2.028,1.031,3.106,1.508c1.075-0.475,2.098-0.98,3.096-1.502L50,51.959L46.895,88.92z"/><path d="M21.752,26.949l28.059-14.078c0.022-0.012,0.046,0,0.069-0.006c0.038-0.016,0.073-0.008,0.114-0.01   c0.041,0.002,0.076-0.006,0.114,0.01c0.023,0.006,0.047-0.006,0.069,0.006L78.25,26.955v-4.797l-28.249-11.16l-28.249,11.16V26.949   z"/></g></svg>