<svg xmlns="http://www.w3.org/2000/svg" data-name="Layer 1" viewBox="3 3 94 94" x="0px" y="0px"><defs><style>.cls-1{fill:#c0c0c0;}</style></defs><g fill="#c0c0c0" stroke="#000000" stroke-width="0.75" stroke-linecap="butt" data-name="Shape 21"><path class="cls-1" d="M31.12,48.79c5.68-.48,10.35-4.52,14.42-8.51C50.88,35,56,29.52,62.08,25.16s13.31-7.54,20.79-7.33a13.89,13.89,0,0,1,5.29,1c3.6,1.61,5.87,5.29,7.05,9.06a21.31,21.31,0,0,1-.06,13.54A15.84,15.84,0,0,1,85.85,51a21.31,21.31,0,0,1-6.3,1,23.14,23.14,0,0,1-7.88-.85,11.62,11.62,0,0,1-6.33-4.57A9.2,9.2,0,0,1,77.74,33.71c1.46,0.85,2.78,2.63,2,4.14a3.11,3.11,0,0,0-1.68-2.7,5.87,5.87,0,0,0-3.25-.58c-3.07.2-6.31,2.22-6.65,5.27-0.31,2.81,2,5.38,4.69,6.25s5.61,0.41,8.35-.24a14.2,14.2,0,0,0,3.66-1.28,10.07,10.07,0,0,0,4.65-6.81A18.84,18.84,0,0,0,89,29.34a9.41,9.41,0,0,0-2.69-5.09,8.94,8.94,0,0,0-5.58-1.65c-7.34-.17-14.4,3-20.43,7.15s-11.28,9.37-17,14C39.85,46.64,35.62,49.45,31.12,48.79Z"/><path class="cls-1" d="M41,65a4.76,4.76,0,0,1,3.25.87,2,2,0,0,1,.18,3c0.47-1.18-.6-2.52-1.84-2.78a5.79,5.79,0,0,0-3.64.76,7.52,7.52,0,0,0-3.79,3.21c-1.3,2.75.86,6.18,3.74,7.17s6.06,0.17,8.85-1.05a16.76,16.76,0,0,0,5.53-3.6,8.5,8.5,0,0,0,2.51-6c-0.12-4-3.82-7.09-7.71-7.82s-7.87.44-11.58,1.84A85.78,85.78,0,0,0,24,66.55c-3.2,1.84-6.34,3.92-9.9,4.89s-7.75.61-10.4-2c2.85,1.84,6.64,1.64,9.78.37s5.8-3.47,8.47-5.57c6.46-5.09,13.52-9.86,21.6-11.42a18.67,18.67,0,0,1,6.68-.23A15.09,15.09,0,0,1,60.51,60,12.83,12.83,0,0,1,58.3,76.14a20.79,20.79,0,0,1-9.88,5.37c-4.16,1-8.84,1.05-12.45-1.27s-5.56-7.47-3.35-11.15C34.28,66.3,37.74,65.06,41,65Z"/><path class="cls-1" d="M60.56,53.18c1.8-.76,3.94.41,5,2.07a14.32,14.32,0,0,1,1.54,5.61,66.73,66.73,0,0,0,2.15,9.63,10.63,10.63,0,0,0,1.66,3.62c1.82,2.28,5,2.84,7.9,3.17,2.13,0.24,4.45.41,6.28-.71,2.45-1.5,3.15-4.72,3.31-7.59,0.15-2.61,0-5.37-1.3-7.63s-4.14-3.83-6.61-3A5.81,5.81,0,0,0,77.12,62a4.42,4.42,0,0,0,.55,4.5c1.1,1.15,3.48.9,3.87-.65-0.06,1.77-2.32,2.85-4,2.21a5.15,5.15,0,0,1-2.87-4.19,8.63,8.63,0,0,1,4.65-8.78A8.51,8.51,0,0,1,89.08,57a13,13,0,0,1,2.33,4.09,19.72,19.72,0,0,1,1.26,11.49c-0.88,3.81-3.59,7.33-7.34,8.47A14.42,14.42,0,0,1,78.07,81c-4.1-.9-8.36-2.95-10-6.79a16.53,16.53,0,0,1-1-4.8q-0.62-5.5-1.08-11A5.86,5.86,0,0,0,60.56,53.18Z"/></g></svg>