<svg fill="#5F327C" xmlns:dc="http://purl.org/dc/elements/1.1/" xmlns:cc="http://creativecommons.org/ns#" xmlns:rdf="http://www.w3.org/1999/02/22-rdf-syntax-ns#" xmlns:svg="http://www.w3.org/2000/svg" xmlns="http://www.w3.org/2000/svg" xmlns:sodipodi="http://sodipodi.sourceforge.net/DTD/sodipodi-0.dtd" xmlns:inkscape="http://www.inkscape.org/namespaces/inkscape" viewBox="0 0 370.45401 456.00377" version="1.1" x="0px" y="0px"><g transform="translate(-179.66901,-289.8755)"><path style="" d="m 353.45798,289.908 c -39.436,-0.87 -71.537,15.878 -93.368,32.281 -23.654,17.897 -40.812,43.535 -46.279,72.657 -1.656,9.735 -2.075,19.513 0.182,27.509 7.704,25.103 -19.244,56.587 -25.002,63.836 -5.468,7.084 -20.116,23.111 4.532,26.053 24.523,3.106 4.884,23.052 8.737,30.26 3.853,7.249 5.324,11.354 9.467,13.592 0,0 -23.329,16.687 -1.459,27.914 0,0 -26.6,29.311 3.725,47.33 30.281,18.145 69.998,14.785 79.775,22.655 8.534,7.084 32.339,34.972 26.457,61.734 -1.283,6.669 1.951,13.573 8.415,16.101 51.574,19.511 106.11702,18.07 162.86802,-0.417 7.375,-2.362 11.145,-10.55 8.576,-17.8 -11.101,-30.53 -9.51,-61.482 -7.605,-106.718 2.527,-51.574 89.39,-113.506 45.066,-214.003 C 493.386,292.271 429.867,291.346 353.47798,289.896 Z m 35.68,29.369 c 10.481,-0.58 20.418,2.925 27.833,9.305 3.106,-1.036 6.316,-1.57 9.54802,-1.86 16.529,-0.87 31.399,8.41 38.027,22.412 16.818,3.687 29.832,18.185 30.825,36.247 0.329,4.018 -0.07,7.802 -0.97,11.488 5.925,6.504 9.574,14.953 10.196,24.273 0.455,8.286 -1.805,16.269 -5.825,22.897 -0.107,11.516 -4.989,21.878 -13.108,29.127 -2.363,2.071 -4.828,3.973 -7.687,5.421 -8.575,6.504 -21.879,18.956 -27.346,35.194 -3.274,10.067 -11.689,17.464 -22.17,18.044 -13.13102,0.747 -24.52102,-8.758 -25.97202,-21.765 l -0.644,-5.987 c -1.784,-14.746 -8.106,-28.517 -17.881,-38.998 -8.7,-9.486 -22.282,-12.293 -34.71,-9.061 -2.526,0.579 -4.998,1.048 -7.525,1.213 -8.74,0.456 -16.916,-1.797 -23.544,-6.229 -9.196,7.828 -21.803,11.687 -35.68,8.414 -12.718,-2.942 -23.687,-12.492 -27.995,-24.92 -7.25,-21.002 2.636,-41.264 19.661,-49.839 -0.456,-21.127 15.802,-39.048 37.218,-40.374 1.327,-0.163 2.716,-0.163 4.207,0 6.504,-10.936 18.048,-18.429 31.636,-19.175 6.627,-0.456 13.093,0.828 18.851,3.479 6.214,-5.302 14.194,-8.682 23.059,-9.304 z m -19.579,26.619 c -2.443,0.332 -4.134,2.573 -3.803,5.017 1.327,9.776 -0.536,19.578 -5.34,28.236 -8.078,14.499 -23.325,23.181 -39.564,23.14 0.788,-3.687 1.375,-7.514 1.375,-11.408 0,-11.848 -3.799,-23.08 -10.923,-32.525 -1.451,-1.947 -4.203,-2.341 -6.149,-0.891 -1.947,1.451 -2.381,4.283 -0.89,6.23 5.966,7.871 9.063,17.244 9.063,27.185 0,18.228 -10.854,34.705 -27.671,41.83 -2.239,0.953 -3.256,3.509 -2.345,5.744 0.744,1.699 2.308,2.752 4.043,2.752 0.62,0 1.203,-0.165 1.783,-0.414 13.587,-5.759 23.785,-16.643 29.046,-29.775 0.912,0.03 1.838,0.164 2.749,0.164 19.098,0 36.828,-10.046 46.603,-26.7 10.191,9.86 23.421,15.453 37.299,15.453 5.635,0 11.279,-0.886 16.829,-2.667 1.699,-0.581 3.278,-1.401 4.93602,-2.104 7.291,4.225 35.753,23.474 18.851,59.225 -7.746,16.362 -12.745,24.949 -16.101,30.582 -6.04702,10.315 -6.87602,12.248 -6.87602,28.238 0,2.442 2.004,4.449 4.44902,4.449 2.442,0 4.369,-2.004 4.369,-4.449 0,-14.209 0.292,-14.51 5.665,-23.706 3.437,-5.8 8.552,-14.617 16.423,-31.312 17.44,-36.62 -5.906,-59.143 -17.961,-67.801 5.344,-3.646 10.024,-8.167 13.835,-13.594 1.407,-1.988 0.893,-4.739 -1.054,-6.148 -1.987,-1.367 -4.741,-0.936 -6.148,1.052 -5.676,8.078 -13.615,13.965 -23.05902,17.072 -17.026,5.509 -35.481,0.551 -47.494,-12.621 3.23,-8.41 4.318,-17.386 3.074,-26.458 -0.373,-2.444 -2.614,-4.133 -5.017,-3.802 z" fill="#5F327C"></path></g></svg>