<svg fill="#33FFFF" xmlns="http://www.w3.org/2000/svg" xmlns:xlink="http://www.w3.org/1999/xlink" version="1.1" x="0px" y="0px" viewBox="0 0 100 100" style="enable-background:new 0 0 100 100;" xml:space="preserve"><g><path d="M16,26.3h23.3c1.7,0,3.3,0.7,4.4,2c0.3,0.3,0.6,0.4,1,0.4c0.3,0,0.6-0.1,0.9-0.3c0.5-0.5,0.6-1.3,0.1-1.8   c-1.6-1.8-3.9-2.8-6.3-2.8H16c-0.7,0-1.3,0.6-1.3,1.3C14.7,25.7,15.3,26.3,16,26.3z"></path><path d="M16,33h23.3c1.7,0,3.3,0.7,4.4,2c0.3,0.3,0.6,0.4,1,0.4c0.3,0,0.6-0.1,0.9-0.3c0.5-0.5,0.6-1.3,0.1-1.8   c-1.6-1.8-3.9-2.8-6.3-2.8H16c-0.7,0-1.3,0.6-1.3,1.3C14.7,32.4,15.3,33,16,33z"></path><path d="M16,39.7h23.3c1.7,0,3.3,0.7,4.4,2c0.3,0.3,0.6,0.4,1,0.4c0.3,0,0.6-0.1,0.9-0.3c0.5-0.5,0.6-1.3,0.1-1.8   c-1.6-1.8-3.9-2.8-6.3-2.8H16c-0.7,0-1.3,0.6-1.3,1.3C14.7,39.1,15.3,39.7,16,39.7z"></path><path d="M16,46.4h23.3c1.7,0,3.3,0.7,4.4,2c0.3,0.3,0.6,0.4,1,0.4c0.3,0,0.6-0.1,0.9-0.3c0.5-0.5,0.6-1.3,0.1-1.8   c-1.6-1.8-3.9-2.8-6.3-2.8H16c-0.7,0-1.3,0.6-1.3,1.3C14.7,45.8,15.3,46.4,16,46.4z"></path><path d="M16,53.1h23.3c1.7,0,3.3,0.7,4.4,2c0.3,0.3,0.6,0.4,1,0.4c0.3,0,0.6-0.1,0.9-0.3c0.5-0.5,0.6-1.3,0.1-1.8   c-1.6-1.8-3.9-2.8-6.3-2.8H16c-0.7,0-1.3,0.6-1.3,1.3C14.7,52.5,15.3,53.1,16,53.1z"></path><path d="M44.7,62.2c0.3,0,0.6-0.1,0.9-0.3c0.5-0.5,0.6-1.3,0.1-1.8c-1.6-1.8-3.9-2.8-6.3-2.8H16c-0.7,0-1.3,0.6-1.3,1.3   c0,0.7,0.6,1.3,1.3,1.3h23.3c1.7,0,3.3,0.7,4.4,2C44,62,44.3,62.2,44.7,62.2z"></path><path d="M55,28.7c0.4,0,0.7-0.1,1-0.4c1.1-1.2,2.7-2,4.4-2h23.3c0.7,0,1.3-0.6,1.3-1.3c0-0.7-0.6-1.3-1.3-1.3H60.4   c-2.4,0-4.7,1-6.3,2.8c-0.5,0.5-0.4,1.3,0.1,1.8C54.4,28.6,54.7,28.7,55,28.7z"></path><path d="M83.7,30.4H60.4c-2.4,0-4.7,1-6.3,2.8c-0.5,0.5-0.4,1.3,0.1,1.8c0.2,0.2,0.6,0.3,0.9,0.3c0.4,0,0.7-0.1,1-0.4   c1.1-1.2,2.7-2,4.4-2h23.3c0.7,0,1.3-0.6,1.3-1.3C85,31,84.4,30.4,83.7,30.4z"></path><path d="M83.7,37.1H60.4c-2.4,0-4.7,1-6.3,2.8c-0.5,0.5-0.4,1.3,0.1,1.8c0.2,0.2,0.6,0.3,0.9,0.3c0.4,0,0.7-0.1,1-0.4   c1.1-1.2,2.7-2,4.4-2h23.3c0.7,0,1.3-0.6,1.3-1.3C85,37.7,84.4,37.1,83.7,37.1z"></path><path d="M55,48.8c0.4,0,0.7-0.1,1-0.4c1.1-1.2,2.7-2,4.4-2h23.3c0.7,0,1.3-0.6,1.3-1.3c0-0.7-0.6-1.3-1.3-1.3H60.4   c-2.4,0-4.7,1-6.3,2.8c-0.5,0.5-0.4,1.3,0.1,1.8C54.4,48.7,54.7,48.8,55,48.8z"></path><path d="M83.7,50.5H60.4c-2.4,0-4.7,1-6.3,2.8c-0.5,0.5-0.4,1.3,0.1,1.8c0.2,0.2,0.6,0.3,0.9,0.3c0.4,0,0.7-0.1,1-0.4   c1.1-1.2,2.7-2,4.4-2h23.3c0.7,0,1.3-0.6,1.3-1.3C85,51.1,84.4,50.5,83.7,50.5z"></path><path d="M55,62.2c0.4,0,0.7-0.1,1-0.4c1.1-1.2,2.7-2,4.4-2h23.3c0.7,0,1.3-0.6,1.3-1.3c0-0.7-0.6-1.3-1.3-1.3H60.4   c-2.4,0-4.7,1-6.3,2.8c-0.5,0.5-0.4,1.3,0.1,1.8C54.4,62.1,54.7,62.2,55,62.2z"></path><path d="M89.9,19.6v-3.4H59.2c-3.9,0-7.4,2.2-9.2,5.4c-1.8-3.2-5.2-5.4-9.2-5.4H10.2v3.4H5.4v65.3h44.6h44.6V19.6H89.9z M51.4,26.6   c0-4.3,3.5-7.9,7.9-7.9h28.1v49.9H59.2c-3.1,0-5.9,1.4-7.9,3.6V26.6z M87.3,71.3v6.6H51.5c0.6-3.7,3.9-6.6,7.8-6.6H87.3z    M12.8,18.8h28.1c4.3,0,7.9,3.5,7.9,7.9v45.6c-1.9-2.2-4.7-3.6-7.9-3.6H12.8V18.8z M12.8,71.3h28.1c3.9,0,7.1,2.8,7.8,6.6H12.8   V71.3z M92.1,82.2h-42H8V22.1h2.2v58.3h38.6h2.6h38.6V22.1h2.2V82.2z"></path></g></svg>