<svg fill="#bb4477" xmlns="http://www.w3.org/2000/svg" xmlns:xlink="http://www.w3.org/1999/xlink" version="1.1" x="0px" y="0px" viewBox="0 0 100 100" style="enable-background:new 0 0 100 100;" xml:space="preserve"><path d="M49.9,82.1c11.3,0,23.2-3.2,28-4.7l-1.6-3.8l-1-2.4c-1.5,0.4-3.3,0.9-5.3,1.3c-5.7,1.3-13,2.5-20.1,2.5  c-7.1,0-14.4-1.2-20.1-2.5c-1.9-0.4-3.7-0.9-5.3-1.3l-1,2.4l-1.6,3.8C26.7,78.9,38.6,82.1,49.9,82.1z"/><path d="M23.6,62.1c0,0-0.1,0-0.1,0l-1.6,3.8c0,0,0.1,0,0.1,0c1.1,0.3,2.6,0.8,4.3,1.2c1.1,0.3,2.4,0.6,3.7,0.9  c5.6,1.3,12.9,2.5,19.9,2.5c7.1,0,14.3-1.2,19.9-2.5c1.3-0.3,2.6-0.6,3.7-0.9c1.7-0.5,3.2-0.9,4.3-1.2c0,0,0.1,0,0.1,0L76.3,62  c0,0-0.1,0-0.1,0c-1.3,0.4-2.8,0.7-4.3,1.1c-6.1,1.4-14.1,2.9-21.9,2.9S34,64.6,27.9,63.2C26.3,62.8,24.9,62.4,23.6,62.1z"/><path d="M70,59.1L49.9,11.9L29.7,59.1c5.7,1.3,13,2.6,20.2,2.6S64.3,60.4,70,59.1z"/><path d="M18,75.1c-6.2,2-9.7,4.3-9.7,6.2c0,4.2,16.2,10.3,41.6,10.3s41.6-6.1,41.6-10.3c0-1.9-3.5-4.3-9.7-6.2l1.2,2.9  c0.2,0.6,0.2,1.2,0,1.8c-0.2,0.6-0.7,1-1.3,1.2c-0.7,0.2-16.4,5.7-31.8,5.7s-31.1-5.4-31.8-5.7c-0.6-0.2-1-0.6-1.3-1.2  c-0.2-0.6-0.3-1.2,0-1.8L18,75.1z"/></svg>