<svg xmlns="http://www.w3.org/2000/svg" xmlns:xlink="http://www.w3.org/1999/xlink" viewBox="0 0 24 24" version="1.1" x="0px" y="0px"><title>41 - Expand Window (user, interface, communication)</title><desc>Created with Sketch.</desc><g stroke="none" stroke-width="1" fill="none" fill-rule="evenodd"><g transform="translate(-531.000000, -540.000000)"><g transform="translate(532.000000, 541.000000)"><polygon stroke="#000000" stroke-width="2" stroke-linecap="round" stroke-linejoin="round" points="0 6 22 6 22 0 0 0"></polygon><polygon stroke="#000000" stroke-width="2" stroke-linecap="round" stroke-linejoin="round" points="0 22 22 22 22 0 0 0"></polygon><path d="M4,3 C4,2.448 3.552,2 3,2 C2.448,2 2,2.448 2,3 C2,3.552 2.448,4 3,4 C3.552,4 4,3.552 4,3" fill="#000000"></path><path d="M7,3 C7,2.448 6.552,2 6,2 C5.448,2 5,2.448 5,3 C5,3.552 5.448,4 6,4 C6.552,4 7,3.552 7,3" fill="#000000"></path><path d="M10,3 C10,2.448 9.552,2 9,2 C8.448,2 8,2.448 8,3 C8,3.552 8.448,4 9,4 C9.552,4 10,3.552 10,3" fill="#000000"></path><path d="M13,15 L19,9" stroke="#000000" stroke-width="2" stroke-linecap="round" stroke-linejoin="round"></path><path d="M19,13 L19,9" stroke="#000000" stroke-width="2" stroke-linecap="round" stroke-linejoin="round"></path><path d="M15,9 L19,9" stroke="#000000" stroke-width="2" stroke-linecap="round" stroke-linejoin="round"></path><path d="M9,13 L3,19" stroke="#000000" stroke-width="2" stroke-linecap="round" stroke-linejoin="round"></path><path d="M3,15 L3,19" stroke="#000000" stroke-width="2" stroke-linecap="round" stroke-linejoin="round"></path><path d="M7,19 L3,19" stroke="#000000" stroke-width="2" stroke-linecap="round" stroke-linejoin="round"></path></g></g></g></svg>