<svg xmlns="http://www.w3.org/2000/svg" xmlns:xlink="http://www.w3.org/1999/xlink" version="1.1" x="0px" y="0px" viewBox="0 0 30 30" xml:space="preserve"><g transform="translate(-90 -140)"><g xmlns="http://www.w3.org/2000/svg" xmlns:xlink="http://www.w3.org/1999/xlink"><path d="M114,164c-0.45-0.1-0.91-0.273-1.369-0.491c-0.165-0.077-0.33-0.157-0.494-0.247c-0.157,0.191-0.325,0.37-0.512,0.52    c-0.98,0.783-2.245,1.232-3.471,1.232c-1.419,0-2.559-0.586-3.049-1.566c-0.042-0.084-0.076-0.166-0.105-0.244    c-0.029,0.078-0.063,0.16-0.105,0.244c-0.49,0.98-1.63,1.566-3.049,1.566c-1.227,0-2.49-0.449-3.471-1.232    c-0.187-0.149-0.354-0.328-0.512-0.52c-0.164,0.09-0.329,0.17-0.494,0.247C96.91,163.727,96.45,163.9,96,164c-3.232,0.719-2,3-1,4    s1,1,10,1s9,0,10-1S117.232,164.719,114,164z"></path><path d="M107.598,152.444c-0.664,0.92-1.543,1.556-2.598,1.556c-1.055,0-1.934-0.636-2.598-1.556    c-1.065,0.94-3.526,0.806-4.402,2.556c-0.946,1.893-0.812,6.077,0.727,7.738c0.088,0.094,0.178,0.185,0.273,0.262    c1.795,1.436,4.367,1.266,5,0c0.627-1.253-1.493-0.936-2.673-2c-0.058-0.052-0.104-0.116-0.157-0.175    c-0.592-0.659-0.856-1.765-0.17-3.825c-0.211,0.856,0.535,2.519,0.746,2.936c0.039,0.077,0.1,0.138,0.154,0.202    c0.284,0.331,0.761,0.52,1.391,0.722c0.136,0.043,0.275,0.091,0.413,0.141c0.534,0.192,1.056,0.459,1.296,1.031    c0.24-0.572,0.762-0.839,1.296-1.031c0.138-0.05,0.277-0.098,0.413-0.141c0.63-0.202,1.106-0.391,1.391-0.722    c0.055-0.064,0.115-0.125,0.154-0.202c0.211-0.417,0.957-2.079,0.746-2.936c0.687,2.061,0.422,3.166-0.17,3.825    c-0.053,0.059-0.1,0.123-0.157,0.175c-1.18,1.064-3.3,0.747-2.673,2c0.633,1.266,3.205,1.436,5,0    c0.096-0.077,0.185-0.168,0.272-0.262c1.539-1.661,1.674-5.846,0.728-7.738C111.124,153.25,108.663,153.385,107.598,152.444z"></path><path d="M105,153c0.741,0,1.418-0.561,1.941-1.375c0.029-0.045,0.057-0.093,0.085-0.141C107.623,150.49,108,149.166,108,148    c0-2.209-1.344-4-3-4c-1.656,0-3,1.791-3,4c0,1.166,0.377,2.49,0.974,3.484c0.028,0.048,0.056,0.096,0.085,0.141    C103.582,152.439,104.259,153,105,153z"></path></g></g></svg>