<svg fill="#0365C0" xmlns="http://www.w3.org/2000/svg" xmlns:xlink="http://www.w3.org/1999/xlink" version="1.1" x="0px" y="0px" viewBox="0 0 60.143 100" style="enable-background:new 0 0 60.143 100;" xml:space="preserve"><style type="text/css">
	.st0{fill:none;stroke:#0365C0;stroke-width:3;stroke-linecap:round;stroke-linejoin:round;stroke-miterlimit:10;}
	.st1{fill:none;stroke:#0365C0;stroke-miterlimit:10;}
	.st2{fill:none;stroke:#0365C0;stroke-linejoin:round;stroke-miterlimit:10;}
	.st3{fill:#0365C0;stroke:#0365C0;stroke-width:5;stroke-miterlimit:10;}
	.st4{fill:none;stroke:#0365C0;stroke-width:5;stroke-linecap:round;stroke-linejoin:round;stroke-miterlimit:10;}
</style><g><path d="M56.79,28.547c-0.849-4.497-3.229-6.109-5.747-7.815c-1.836-1.244-3.735-2.531-5.134-5.061   c-1.048-1.897-0.468-4.173,1.725-6.765c1.459-1.725,3.188-3.022,3.616-3.333c0.2-0.066,0.296-0.14,0.267-0.32   c-0.009-0.053-0.053-0.217-0.293-0.217c-0.003,0-0.007,0-0.01,0c-0.001,0-0.002,0-0.003,0c-0.002,0-0.004-0.001-0.007-0.001   c-1.484,0-2.924,0.012-4.322,0.036c-0.037-0.022-0.081-0.035-0.127-0.036c-0.196-0.003-19.646-0.317-26.232,1.029   c-5.54,1.132-9.138,3.108-11.001,6.039C7.985,14.52,7.645,17.5,8.451,21.483c0.311,1.534,0.858,3.331,1.437,5.234   c1.413,4.643,3.015,9.905,1.872,13.513c-0.344,1.087-1.559,2.434-2.998,2.806c-0.911,0.236-1.757,0.015-2.447-0.637   c-0.928-0.878-0.761-1.935-0.185-2.593c0.658-0.752,1.96-1.08,3.264-0.025c0.089,0.072,0.216,0.076,0.31,0.01   c0.094-0.067,0.132-0.188,0.093-0.296c-0.374-1.039-1.015-1.734-1.852-2.008c-1.03-0.337-2.28-0.041-3.614,0.857   c-0.677,0.455-1.144,1.243-1.282,2.16c-0.182,1.211,0.223,2.503,1.14,3.637c1.123,1.388,2.354,2.125,3.659,2.19   c2.221,0.112,4.305-1.695,5.873-3.281c3.374-3.411,3.261-5.82,2.033-12.385c-0.287-1.533-0.809-3.229-1.363-5.025   c-1.506-4.888-3.212-10.429-0.048-13.417c2.833-2.675,8.484-4.572,16.793-5.638c3.332-0.428,6.753-0.681,9.975-0.831   c-1.568,0.162-3.225,0.359-4.897,0.597c-10.293,1.465-16.244,3.719-17.69,6.701c-1.511,3.117-0.394,7.468,0.788,12.076   c1.546,6.023,3.144,12.252-0.594,16.778c-1.547,1.873-2.974,3.55-4.234,5.031c-6.794,7.986-9.606,11.291-6.942,16.52   c1.77,3.474,3.845,5.351,6.168,5.581c0.159,0.016,0.318,0.023,0.479,0.023c2.265,0,4.652-1.57,7.104-4.675   c1.526-1.933,0.767-4.312-0.721-5.569c-1.423-1.202-3.653-1.534-5.429,0.431c-0.071,0.079-0.086,0.193-0.039,0.287   c0.048,0.095,0.15,0.15,0.254,0.14c0.703-0.07,2.656-0.059,3.251,0.809c0.293,0.427,0.238,1.046-0.163,1.839   c-0.646,1.278-1.44,1.881-2.357,1.787c-1.467-0.147-2.956-2.08-3.427-3.793c-0.286-1.042-0.191-4.388,6.855-12.933   c5.202-6.308,7.362-11.704,7.224-18.043c-0.053-2.424-1.234-5.016-2.376-7.524c-1.466-3.218-2.85-6.258-1.381-8.176   c1.906-2.487,6.614-4.675,13.616-6.328c2.188-0.517,4.29-0.907,6.009-1.187c1.866-0.176,3.556-0.302,4.936-0.391   c-5.884,1.261-17.016,4.056-19.428,7.02c-1.686,2.072-0.383,5.862,0.877,9.526c0.837,2.432,1.702,4.948,1.567,6.719   c-0.189,2.485-1.906,5.549-3.723,8.792c-2.041,3.642-4.151,7.409-4.076,10.515c0.183,7.536,4.511,17.348,6.592,22.063   c0.505,1.145,0.904,2.05,1.076,2.539c1.308,3.725,0.658,6.927-1.932,9.516c-1.456,1.456-4.612,2.807-6.987,2.497   c-1.298-0.169-2.265-0.788-2.876-1.84c-0.62-1.068-2.46-4.714-0.112-6.806c0.683-0.608,1.569-0.877,2.432-0.739   c1.093,0.175,2.079,0.973,2.852,2.307c0.724,1.247,0.773,2.983,0.762,3.666c-0.068,0.253-0.083,0.385,0.041,0.499   c0.077,0.071,0.184,0.091,0.287,0.055c0.01-0.003,0.02-0.008,0.03-0.012c0.09-0.044,1.387-0.698,1.907-2.444   c0.58-1.945-0.026-4.407-1.801-7.32c-1.666-2.734-5.692-2.41-8.809-0.678c-2.295,1.276-4.15,3.277-5.088,5.492   c-1.126,2.659-0.966,5.563,0.465,8.399c2.646,5.245,5.791,8.354,9.347,9.242C21.64,94.915,22.345,95,23.062,95   c2.242,0,4.595-0.836,6.914-2.471c4.082-2.879,7.026-5.755,8.751-8.549c1.8-2.916,2.344-5.851,1.616-8.722   c-0.749-2.956-2.199-6.388-3.733-10.021c-2.889-6.841-5.877-13.914-3.841-17.465c0.921-1.607,2.49-3.426,4.151-5.352   c4.109-4.764,8.767-10.164,6.551-15.407c-1.435-3.396-3.38-5.863-4.943-7.846c-1.62-2.055-2.79-3.539-2.479-4.894   c0.256-1.118,1.563-2.217,4.111-3.457l7.023-3.333c-0.718,0.482-1.476,1.012-2.217,1.569c-4.005,3.011-5.631,5.347-4.833,6.943   c0.682,1.364,2.439,2.636,4.474,4.11c3.388,2.454,7.229,5.235,7.229,9.27c0,4.42-3.057,7.519-6.596,11.108   c-1.616,1.638-3.287,3.333-4.761,5.267c-2.811,3.689-3.374,9.283-1.627,16.175c0.507,2.002,1.143,3.849,1.733,5.365   c0.829,2.455,1.766,3.99,1.781,4.014c0.048,0.078,0.132,0.121,0.218,0.121c0.043,0,0.087-0.011,0.127-0.034   c0.12-0.069,0.164-0.22,0.099-0.342c-0.027-0.051-0.867-1.667-1.809-4.128c-0.459-1.4-0.875-3.091-1.059-4.966   c-0.302-3.071,0.068-6.024,1.101-8.776c1.293-3.445,3.634-6.589,6.96-9.344C56.314,36.948,57.985,34.873,56.79,28.547z    M13.993,11.85c-3.396,3.207-1.64,8.909-0.09,13.94c0.549,1.782,1.067,3.464,1.349,4.968c1.257,6.719,1.235,8.768-1.893,11.931   c-2.219,2.243-3.908,3.208-5.484,3.13c-1.169-0.058-2.244-0.713-3.286-2.001c-0.826-1.021-1.192-2.171-1.032-3.238   c0.117-0.776,0.503-1.436,1.061-1.811c0.882-0.594,1.733-0.902,2.467-0.902c0.248,0,0.483,0.035,0.701,0.107   c0.461,0.151,0.843,0.454,1.143,0.906c-1.291-0.609-2.505-0.186-3.183,0.588c-0.714,0.816-0.951,2.197,0.218,3.303   c0.825,0.78,1.837,1.044,2.928,0.761c1.61-0.417,2.972-1.928,3.358-3.148c1.191-3.76-0.436-9.103-1.87-13.817   c-0.575-1.891-1.119-3.676-1.425-5.187C7.828,15.823,8.138,9.117,20.626,6.565c3.301-0.675,9.887-0.928,15.621-1.014   C24.834,6.452,17.504,8.535,13.993,11.85z M22.579,13.33c-1.657,2.162-0.21,5.338,1.321,8.7c1.121,2.46,2.279,5.004,2.33,7.323   c0.135,6.205-1.991,11.5-7.107,17.706c-5.144,6.238-7.613,10.995-6.953,13.395c0.513,1.869,2.139,3.993,3.87,4.167   c0.791,0.079,1.93-0.215,2.866-2.066c0.492-0.973,0.535-1.767,0.129-2.36c-0.619-0.904-2.132-1.053-3.029-1.057   c1.072-0.863,2.664-1.259,4.238,0.071c1.338,1.13,1.99,3.162,0.65,4.86c-2.509,3.179-4.909,4.678-7.13,4.459   c-2.138-0.211-4.077-1.996-5.762-5.304c-2.509-4.924,0.239-8.154,6.876-15.955c1.26-1.482,2.689-3.161,4.238-5.036   c3.904-4.727,2.199-11.37,0.695-17.231c-1.158-4.514-2.252-8.777-0.823-11.725c1.634-3.37,9.546-5.297,17.121-6.385   C30.775,8.177,24.956,10.228,22.579,13.33z M24.94,79.598c-0.118-0.667-0.326-1.387-0.688-2.01   c-1.078-1.859-2.343-2.416-3.215-2.555c-1.016-0.163-2.056,0.151-2.854,0.862c-0.749,0.667-1.216,1.634-1.316,2.724   c-0.128,1.399,0.318,2.987,1.325,4.722c0.685,1.18,1.81,1.903,3.253,2.091c2.606,0.339,5.88-1.107,7.415-2.643   c2.741-2.741,3.432-6.122,2.053-10.049c-0.178-0.508-0.561-1.375-1.091-2.576c-2.067-4.685-6.368-14.435-6.548-21.868   c-0.072-2.966,2.003-6.67,4.01-10.252c1.846-3.294,3.589-6.406,3.787-9.004c0.143-1.877-0.7-4.329-1.593-6.924   c-1.215-3.532-2.471-7.185-0.964-9.036c1.596-1.962,7.426-3.899,12.782-5.318c-4.05,1.304-8.054,2.968-9.375,4.794   c-2.086,2.885-0.436,5.817,1.311,8.92c0.774,1.375,1.574,2.796,2.043,4.234c2.097,6.426-1.938,12.019-4.607,15.72   c-0.309,0.428-0.601,0.833-0.868,1.217c-5.761,8.271-2.31,15.172-0.026,19.74l0.219,0.438c5.177,10.405,7.651,16.076,2.751,21.266   c-3.337,3.534-7.141,5.482-10.437,5.342c-1.995-0.084-3.697-0.942-4.922-2.48c-2.428-3.048-4.057-8.147-2.604-10.407   c1.44-2.239,4.055-3.538,5.817-3.538c0.04,0,0.079,0.001,0.118,0.002c1.356,0.046,2.429,0.771,3.191,2.154   C24.865,76.901,25.023,78.443,24.94,79.598z M39.936,10.354c-2.738,1.332-4.091,2.505-4.389,3.804   c-0.365,1.594,0.869,3.16,2.577,5.326c1.544,1.959,3.466,4.396,4.874,7.728c2.092,4.95-2.455,10.221-6.467,14.872   c-1.677,1.945-3.262,3.782-4.208,5.432c-2.162,3.772,0.876,10.964,3.813,17.92c1.527,3.615,2.969,7.029,3.709,9.948   c1.383,5.455-1.942,10.927-10.165,16.727c-2.976,2.099-5.871,2.818-8.605,2.135c-3.405-0.85-6.437-3.87-9.013-8.976   c-1.361-2.697-1.516-5.452-0.451-7.968c0.894-2.111,2.668-4.023,4.865-5.244c1.624-0.903,3.126-1.285,4.404-1.285   c1.74,0,3.065,0.709,3.718,1.782c1.692,2.776,2.281,5.096,1.751,6.894c-0.272,0.923-0.797,1.504-1.181,1.824   c0.292-1.092,0.779-3.47-0.811-6.356c-0.843-1.531-2.096-2.367-3.623-2.419c-2.419-0.087-5.15,1.853-6.383,3.771   c-1.613,2.509,0.094,7.812,2.634,11.003c1.32,1.658,3.153,2.582,5.302,2.672c3.449,0.143,7.392-1.861,10.831-5.503   c5.124-5.428,2.469-11.529-2.665-21.846l-0.219-0.439c-2.23-4.458-5.599-11.196-0.012-19.217c0.265-0.38,0.556-0.783,0.863-1.21   c2.73-3.785,6.857-9.505,4.679-16.178c-0.485-1.487-1.298-2.93-2.084-4.327c-1.664-2.956-3.236-5.749-1.342-8.368   c2.056-2.843,11.571-5.433,16.268-6.617L39.936,10.354z M47.674,43.441c-7.697,6.377-8.732,13.616-8.244,18.565   c0.003,0.027,0.005,0.054,0.008,0.081c-1.36-5.215-1.918-11.61,1.447-16.027c1.454-1.908,3.113-3.59,4.718-5.217   c3.468-3.516,6.744-6.837,6.744-11.467c0-4.296-3.953-7.159-7.441-9.685c-1.898-1.375-3.69-2.673-4.316-3.924   c-1.069-2.138,4.022-6.042,7.932-8.557c-0.42,0.409-0.856,0.865-1.273,1.358c-2.317,2.735-2.935,5.277-1.788,7.352   c1.458,2.638,3.408,3.96,5.295,5.237c2.428,1.645,4.722,3.199,5.531,7.486C57.431,34.697,55.796,36.712,47.674,43.441z"></path></g></svg>