<svg fill="#51A7F9" xmlns="http://www.w3.org/2000/svg" xmlns:xlink="http://www.w3.org/1999/xlink" version="1.1" x="0px" y="0px" viewBox="0 0 100 100" enable-background="new 0 0 100 100" xml:space="preserve"><g><g><g><path d="M81.2,76c3.2,0,3.2-5,0-5S78,76,81.2,76L81.2,76z"></path></g></g><g><g><path d="M78,75.8c4.5,1.1,5.6,7.1,7.8,10.5c1.7,2.7,6.1,0.2,4.3-2.5C87.1,79,85.8,72.5,79.4,71C76.2,70.2,74.9,75,78,75.8     L78,75.8z"></path></g></g><g><g><path d="M78.5,74.9c1.5,0.8,2.9,0.8,4.6,0.6c0.7-0.1,2.3-0.9,2.9-0.2c2.1,2.4,5.6-1.1,3.5-3.5c-1.1-1.3-2.7-1.7-4.4-1.7     c-1.1,0-3.1,1.1-4.1,0.5C78.2,69,75.7,73.3,78.5,74.9L78.5,74.9z"></path></g></g><g><g><path d="M81.3,32c0.2-2.8,2.6-4.2,5.1-4c1.4,0.1,2.5-1.2,2.5-2.5c0-1.5-1.1-2.4-2.5-2.5c-5.4-0.5-9.8,3.7-10.1,9     C76.1,35.2,81.1,35.2,81.3,32L81.3,32z"></path></g></g><g><g><g><path d="M38.2,10.6c1.6,6.9,4.9,20.9-4,23.7c-5.9,1.8-10.2,3.9-13.9,9.1c-2.5,3.4-4.7,9.2-0.5,12.1c5.7,3.8,0.6,6.4-1.9,9.7      c-2.4,3.1-3.9,6.3-4.5,10.2c-0.2,1.7,1.1,3.8,3.1,3.1c3.6-1.2,6.6-0.9,9.9,1c-0.4-0.9-0.8-1.9-1.1-2.8c-0.8,2.7-3.8,4.1-5.8,5.8      c-1.9,1.6-2.8,3.6-3.1,6c-0.4,3.2,4.6,3.2,5,0c0.3-2.3,3.5-3.9,5.2-5.2c1.8-1.4,3-3.2,3.6-5.3c0.3-1.1-0.2-2.3-1.1-2.8      c-4.3-2.6-8.9-3.2-13.7-1.5c1,1,2.1,2.1,3.1,3.1c0.6-4.4,2.6-7.6,5.7-10.8c1.9-2,4.6-3.8,4.6-6.9c0-3.2-2.6-5.1-4.8-6.9      c-2-1.5-0.9-2.6,0.2-4.9c1.1-2.1,2.8-3.8,4.7-5.2c4.7-3.5,12.4-2.4,15-8.7C46.3,26,44.7,16.6,43,9.3      C42.3,6.2,37.5,7.5,38.2,10.6L38.2,10.6z"></path></g></g><g><g><path d="M24.2,79.4c4.2,2.4,6.2,6.8,8.7,10.8c1.7,2.7,6,0.2,4.3-2.5c-3-4.8-5.4-9.7-10.5-12.6C23.9,73.5,21.4,77.9,24.2,79.4      L24.2,79.4z"></path></g></g><g><g><path d="M13.8,73.7c-1.9,1.2-3.1,2.9-3.9,5c-0.9,2.1-1.4,4.5-3,6.2c-2.3,2.3,1.3,5.8,3.5,3.5c1.5-1.5,2.3-3.3,3.1-5.2      c0.7-1.8,1.2-4,2.9-5.2C19,76.3,16.5,72,13.8,73.7L13.8,73.7z"></path></g></g><g><g><path d="M26.2,62.5c1.4-0.4,2.6-0.4,4.1-0.1c2.2,0.5,2.2,2,2.4,3.9c0.2,1.3,0.5,2.4,1.1,3.6c0.3,0.6,2.5,2.8,1.8,3.5      c-2.3,2.2,1.2,5.8,3.5,3.5c1.6-1.5,1.8-3.4,1.3-5.5c-0.3-1.2-1.2-2.3-1.9-3.3c-0.9-1.2-0.9-2.6-1.1-4c-0.9-6-7.4-7.7-12.6-6.3      C21.8,58.6,23.1,63.4,26.2,62.5L26.2,62.5z"></path></g></g><g><g><path d="M37.9,70.8c4.3,0.8,7,2.3,8.6,6.5c0.9,2.4,3.3,7.6,2.2,10.1c-1.3,2.9,3,5.5,4.3,2.5c2.1-4.8-0.4-10.5-2.1-15.2      c-2-5.4-6.2-7.9-11.7-8.8C36,65.5,34.7,70.3,37.9,70.8L37.9,70.8z"></path></g></g><g><g><path d="M45.8,75.3c-1.5,1.9-3.6,3.2-5.1,5.2c-1.5,2-2.2,4.3-2.3,6.8c-0.1,3.2,4.9,3.2,5,0c0.2-4.1,3.7-5.6,5.9-8.4      C51.3,76.3,47.8,72.7,45.8,75.3L45.8,75.3z"></path></g></g><g><g><path d="M38.6,31.8c-1.7,1.9-3.6,2.8-4.7,5.2c-1.1,2.2-0.9,4.9-0.5,7.3c0.9,5.3,6.7,7.3,11.2,8.2c3.3,0.7,6.2,1.4,9.1,3.1      c1.5,0.9,4.8,3.6,4.4,5.7c-0.2,1.5-0.8,2.7-0.5,4.3c0.5,2.7,1.8,4.9,3.1,7.3c2.8,5.2-0.5,10.2-3.4,14.4      c-1.8,2.7,2.5,5.2,4.3,2.5c3.4-5,6-9.9,4.8-16.1c-0.5-2.9-2.8-5.3-3.8-8.1c-1-2.7,1.7-5.2-0.2-8c-3-4.5-7.2-7.5-12.4-9.1      c-2.7-0.8-5.6-1.1-8.3-1.9c-2.8-0.8-3.7-3-3.8-5.7c0-2.6,2.6-3.9,4.1-5.6C44.3,33,40.8,29.4,38.6,31.8L38.6,31.8z"></path></g></g><g><g><path d="M62,79.7c0.7,1.8,1.9,2.6,3,4.1c1.2,1.6,2.6,4.5,2.5,6.5c-0.3,3.2,4.7,3.2,5,0c0.2-2.3-1-4.4-1.9-6.5      c-0.5-1.1-1-2.1-1.7-3c-0.5-0.7-1.8-1.5-2.1-2.4C65.7,75.3,60.9,76.6,62,79.7L62,79.7z"></path></g></g><g><g><path d="M63,68.8c2.8-0.7,5.3,1.4,7.7,2.5c2.6,1.1,4.7,1.2,4.9,4.6c0,0.7-2.1,1.9-2.3,2.9c-0.4,2.4,0,4.8,0.3,7.2      c0.3,3.2,5.3,3.2,5,0c-0.1-1-1.2-5.1,0-5.6c0.7-0.3,1.5-1.4,1.7-2.1c0.7-2.6,0.2-5.3-1-7.7c-1.5-2.9-5.7-3.4-8.3-4.7      c-3.1-1.6-5.7-2.8-9.2-1.9C58.6,64.8,59.9,69.6,63,68.8L63,68.8z"></path></g></g><g><g><path d="M42.5,33c2.4,1.4,4.7,2.8,6.8,4.6c1.7,1.5,2.8,3.7,4.4,5.4c3.8,4.2,12.1-2.2,12.6,6c0.2,3.2,5.2,3.2,5,0      c-0.3-4.8-3.4-9.5-8.6-9.8c-1.1-0.1-2.2-0.1-3.3,0.2c-2.5,0.7-4.3-2.7-5.5-4.2c-2.2-2.8-5.8-4.7-8.8-6.4      C42.2,27.1,39.7,31.4,42.5,33L42.5,33z"></path></g></g><g><g><path d="M69,46.5c3.6,0.1,5.2,0.9,6.8,4.1c1.8,3.6,3.5,7.3,5,11c1.2,2.9,6.1,1.6,4.8-1.3c-2-4.8-4.1-9.5-6.5-14.1      c-2-3.9-6.2-4.6-10.2-4.7C65.8,41.4,65.8,46.4,69,46.5L69,46.5z"></path></g></g><g><g><path d="M75.5,51.3c-2.7,1.6-4.9,3.9-6.5,6.6c-1.6,2.8,2.7,5.3,4.3,2.5c1.2-2,2.8-3.6,4.8-4.8C80.7,53.9,78.2,49.6,75.5,51.3      L75.5,51.3z"></path></g></g><g><g><path d="M56.1,39.2c7.7-9,20.2-2.9,28.6,1.3c2.9,1.4,5.4-2.9,2.5-4.3c-6-3-12.5-6.7-19.3-6.8c-5.2,0-11.9,2.2-15.3,6.2      C50.5,38.1,54,41.6,56.1,39.2L56.1,39.2z"></path></g></g><g><g><path d="M40.1,19c-3.1,6-11.6,6.8-17.3,6.2c-5.5-0.6-8.4,2.4-10.7,7.1c-1.4,2.9,2.9,5.4,4.3,2.5c0.8-1.6,1.5-3.2,3.1-4.4      c1.5-1.1,4.3,0,6,0.3c2.6,0.4,5.2-0.4,7.7-1.1c4.2-1.2,9.1-4.1,11.1-8C45.9,18.7,41.6,16.2,40.1,19L40.1,19z"></path></g></g><g><g><path d="M12,36.8c0.4,0,1.1,0.3,1.4,0.7c0.5,0.7,0.6,1.2,0.5,1.8c-0.7,3.1,4.1,4.5,4.8,1.3c1-4.4-2.2-8.6-6.7-8.8      c-1.4-0.1-2.5,1.2-2.5,2.5C9.5,35.7,10.6,36.7,12,36.8L12,36.8z"></path></g></g></g><g><g><path d="M8.6,32.1c-1.9,2.1-3.3,4.6-3.8,7.4c-0.2,1.3,0.3,2.7,1.7,3.1c1.2,0.3,2.8-0.4,3.1-1.7c0.3-2,1.1-3.8,2.5-5.2     C14.4,33.3,10.8,29.8,8.6,32.1L8.6,32.1z"></path></g></g></g></svg>