<svg fill="#861001" xmlns="http://www.w3.org/2000/svg" xmlns:xlink="http://www.w3.org/1999/xlink" version="1.1" x="0px" y="0px" viewBox="0 0 100 100" style="enable-background:new 0 0 100 100;" xml:space="preserve"><path d="M41.86336,81.66329c-2.94,5.37006-8.64001,9-15.19,9c-0.21002,0-0.41998,0-0.63-0.00995  c-0.27997-1.95001-1.96997-3.45001-3.98999-3.45001c-1.31,0-2.47998,0.62-3.21002,1.58997  c-4-2.01996-7.10999-5.54999-8.57001-9.83997c1.13-0.39001,1.95001-1.47003,1.95001-2.72998  c0-1.60004-1.28998-2.89001-2.89001-2.89001c0-5.04004,2.14001-9.56,5.57001-12.71003c0.76001,0.37,1.62,0.58002,2.52002,0.58002  c2.88,0,5.25-2.09003,5.70001-4.84003c1.14001-0.23999,2.33002-0.35999,3.54999-0.35999c3.27002,0,6.34002,0.90997,8.96002,2.48999  c-0.19,0.28003-0.30005,0.62-0.30005,0.97003c0,0.95996,0.78003,1.73999,1.74005,1.73999c0.51996,0,1.00995-0.25,1.31995-0.63  c3.11005,2.84998,5.18005,6.83997,5.55005,11.31c-2.32001,0.76001-3.98999,2.92999-3.98999,5.5  C39.95339,79.08334,40.69338,80.6133,41.86336,81.66329z"></path><rect x="44.50647" y="16.06322" transform="matrix(0.70686 0.70735 -0.70735 0.70686 38.89364 -21.18475)" width="1.00024" height="40.54056"></rect><rect x="81.16656" y="3.71965" transform="matrix(0.70711 0.70711 -0.70711 0.70711 36.88313 -52.37725)" width="0.99989" height="29.2272"></rect><rect x="63.8399" y="33.12022" transform="matrix(0.70711 0.70711 -0.70711 0.70711 57.26411 -29.5813)" width="0.99989" height="42.42606"></rect><rect x="74.8399" y="19.85786" transform="matrix(0.70711 0.70711 -0.70711 0.70711 46.10816 -43.31495)" width="0.99989" height="28.28427"></rect><rect x="61.17022" y="7.79488" transform="matrix(0.70711 0.70711 -0.70711 0.70711 38.57129 -35.11249)" width="0.99989" height="42.41708"></rect><path d="M43.34708,46.59158c0.70972,0.49706,1.13175,1.35534,1.02992,2.27675  c-0.00327,0.02954-0.00653,0.05908-0.01119,0.08847c-0.27867,0.00907-0.51595,0.22349-0.54736,0.50766  c-0.02036,0.18428,0.04866,0.35851,0.17377,0.47628c-0.34634,0.5313-0.89127,0.91391-1.51746,1.05261  c-0.0373-0.16503-0.17648-0.29717-0.35372-0.31676c-0.22508-0.02488-0.42661,0.13654-0.45148,0.36162  c-0.709-0.07835-1.31158-0.44966-1.70138-0.98114c0.06387-0.10116,0.10678-0.21888,0.12077-0.34549  c0.04477-0.40514-0.21239-0.77103-0.59225-0.87709c-0.01604-0.1641-0.01442-0.33337,0.00455-0.50499  c0.05083-0.46001,0.22657-0.87773,0.48957-1.22173c0.03644,0.03108,0.08255,0.05185,0.13179,0.05729  c0.13504,0.01492,0.2569-0.08268,0.27182-0.21773c0.00808-0.07314-0.01947-0.14596-0.06811-0.19548  c0.44926-0.3932,1.04273-0.62236,1.6773-0.60492c0.07085,0.33818,0.35015,0.60684,0.71168,0.64679  C42.95445,46.82016,43.18118,46.73985,43.34708,46.59158z"></path><path d="M59.86959,46.07608c0.6621-0.30423,1.46431-0.24629,2.08998,0.21875  c0.02007,0.01491,0.04012,0.02982,0.05947,0.04568c-0.1117,0.20615-0.05676,0.46942,0.1362,0.61284  c0.12513,0.09301,0.28091,0.11685,0.41952,0.07603c0.23868,0.47694,0.28513,1.03495,0.12002,1.5484  c-0.13563-0.04297-0.29064,0.00198-0.38009,0.12233c-0.1136,0.15284-0.08196,0.36765,0.07088,0.48125  C62.02774,49.6628,61.50241,49.94262,60.95111,50c-0.04633-0.0893-0.11357-0.17042-0.19954-0.23432  c-0.27511-0.20448-0.64989-0.17309-0.88812,0.05765c-0.12594-0.05801-0.24813-0.13104-0.36467-0.21766  c-0.31236-0.23216-0.54102-0.53705-0.67911-0.874c0.03803-0.01326,0.07268-0.03792,0.09753-0.07136  c0.06815-0.0917,0.04902-0.22159-0.04268-0.28975c-0.04967-0.03691-0.11422-0.04782-0.17082-0.03353  c-0.09474-0.49305-0.00919-1.02115,0.27283-1.47441c0.27557,0.09212,0.58916,0.0034,0.77163-0.2421  C59.86887,46.45813,59.90681,46.25945,59.86959,46.07608z"></path><path d="M65.91062,31.96647c0.42261-0.3373,1.01077-0.43874,1.54443-0.21545  c0.01711,0.00716,0.03422,0.01432,0.05099,0.02229c-0.04366,0.16842,0.04289,0.34825,0.20748,0.41711  c0.10673,0.04466,0.22319,0.03403,0.31574-0.02011c0.25704,0.30094,0.39009,0.69457,0.36279,1.09388  c-0.10536-0.00674-0.20899,0.0533-0.25195,0.15595c-0.05454,0.13036,0.00658,0.27944,0.13695,0.33399  c-0.17182,0.41064-0.50027,0.70596-0.88712,0.84568c-0.04931-0.05605-0.11221-0.10249-0.18555-0.13317  c-0.23465-0.09818-0.499-0.00869-0.62942,0.20003c-0.10106-0.01931-0.20211-0.0501-0.30151-0.09169  c-0.26643-0.11148-0.48554-0.29028-0.64514-0.50833c0.02502-0.01634,0.04559-0.04028,0.05752-0.0688  c0.03272-0.07822-0.00424-0.16836-0.08246-0.20109c-0.04237-0.01773-0.09081-0.01406-0.12902,0.00633  c-0.15623-0.33823-0.18887-0.73389-0.06663-1.1107c0.21493,0.01717,0.42497-0.1027,0.51258-0.3121  C65.97829,32.24178,65.97015,32.0919,65.91062,31.96647z"></path><rect x="52.5003" y="33.3294" transform="matrix(0.70711 0.70711 -0.70711 0.70711 48.7576 -23.71078)" width="0.99989" height="27.34169"></rect><rect x="52.83355" y="51.28607" transform="matrix(0.70711 0.70711 -0.70711 0.70711 55.219 -21.31046)" width="0.99989" height="9.42786"></rect></svg>