<svg xmlns="http://www.w3.org/2000/svg" xmlns:xlink="http://www.w3.org/1999/xlink" version="1.1" x="0px" y="0px" viewBox="0 0 100 100" enable-background="new 0 0 100 100" xml:space="preserve"><g><path fill="#000000" d="M90.8,92.9C90.8,92.9,90.8,92.9,90.8,92.9c0-1.7-0.3-15.1-12.2-20.5c0,0,0,0,0,0c-0.2-0.1-0.4-0.2-0.5-0.3   c0.4-0.9,0.9-2.3,1.3-4.1v0c0.7-2.4,1.1-5,1.1-7.6c0-0.4,0-0.9,0-1.3v0c0,0,0,0,0,0c0-0.1,0-0.1,0-0.2c0,0,0,0,0,0   c-0.6-11.3-8.1-20.7-18.3-24.4c0,0,0,0,0,0c-0.1,0-0.1,0-0.2-0.1c0,0,0,0,0,0c-0.3-0.1-0.6-0.2-0.9-0.3c-0.2-0.1-0.3-0.4-0.1-0.5   c1.1-0.8,2.1-1.7,2.9-2.7v0.3c0,1.9,1.3,3.6,3.2,3.9c2.4,0.4,4.5-1.5,4.5-3.8v-9c0-2-1.5-3.8-3.5-4c-0.5-0.1-1,0-1.5,0.1   c-0.9-3.4-2.9-6.2-5.7-8.2c0,0,0,0,0,0c0,0-0.1,0-0.1-0.1c0,0,0,0,0,0c-1.5-1-3.3-1.8-5.2-2.1c0.5-0.7,0.7-1.6,0.5-2.5   c-0.2-1.3-1.3-2.4-2.6-2.6c-2.1-0.4-3.9,1.2-3.9,3.2c0,0.7,0.2,1.3,0.6,1.9c-1.9,0.4-3.6,1.1-5.2,2.1c0,0-0.1,0.1-0.1,0.1   c-1.4,1-2.6,2.1-3.5,3.5c0,0-0.1,0.1-0.1,0.1c-0.1,0.2-0.3,0.4-0.4,0.5c0,0,0,0,0,0c0,0,0,0,0,0c-0.7,1.2-1.3,2.5-1.7,3.9   c-0.6-0.2-1.2-0.2-1.9-0.1c-1.8,0.4-3.1,2-3.1,3.9v8.9c0,1.9,1.3,3.6,3.2,3.9c2.4,0.4,4.5-1.5,4.5-3.8v-0.4c0.8,1,1.8,1.9,2.9,2.7   c0.2,0.2,0.2,0.5-0.1,0.6c-0.3,0.1-0.6,0.2-0.8,0.3c0,0,0,0,0,0c0,0,0,0,0,0c0,0-0.1,0-0.1,0c0,0,0,0,0,0c0,0,0,0,0,0   c-10.7,3.8-18.3,14-18.3,25.9c0,4.3,1,8.5,2.8,12.1c-0.2,0.1-0.3,0.2-0.5,0.2c-8.1,4.4-12.4,11.4-12.4,20.3c0,0.9,0.7,1.6,1.6,1.6   h20.2h52.1c0.1,0,0.1,0,0.2,0c0.1,0,0.1,0,0.1,0c0.1,0,0.1,0,0.2,0c0,0,0,0,0,0c0.1,0,0.3-0.1,0.4-0.2c0,0,0.1-0.1,0.1-0.1   c0,0,0.1-0.1,0.1-0.1c0.1-0.1,0.1-0.1,0.2-0.2c0.2-0.3,0.3-0.6,0.3-0.9C90.8,93,90.8,93,90.8,92.9z M52.3,58.8   c-3.6-0.3-6.3-3.5-6.3-7.1V40.8c0-0.5,0.6-0.8,1-0.5l12.6,11.1c0.2,0.2,0.4,0.5,0.3,0.8C59.6,56.1,56.2,59.1,52.3,58.8z M77,57.3   c0.1,0.6,0.1,1.2,0.2,1.8c0,3.4-0.5,6.2-1,8.2c-0.3,1-1,2.8-1.3,3.3c0,0.1-0.1,0.1-0.2,0.1l-17.3-2.4l-1.8-0.2L55,68   c-0.3,0-0.5-0.3-0.5-0.6l0,0V67v-3l0,0c0-0.4,0.3-0.7,0.7-0.7H56h1.8h9.9c0.9,0,1.6-0.7,1.6-1.6V49.7v-1.6c0-0.9-0.7-1.6-1.6-1.6   c-0.9,0-1.6,0.7-1.6,1.6v11.4c0,0.3-0.3,0.6-0.6,0.6h-6.2c-0.2,0-0.3-0.3-0.1-0.4c2.4-1.9,3.9-4.7,3.9-8V39.2   c0-0.5,0.5-0.7,0.9-0.5C71,42.3,76,49.2,77,57.3z M37.4,31.3l0-9.1c0-0.3,0.2-0.6,0.5-0.7c0.4-0.1,0.9,0.2,0.9,0.7v9.1   c0,0.3-0.2,0.6-0.5,0.7C37.8,32,37.4,31.7,37.4,31.3z M42,21.9c0-2.3,0.7-4.4,1.9-6.2c0,0,0,0,0,0c0.5-0.6,1.9-1.9,4.4-1.4   c0,0,0,0,0,0c0.3,0.1,0.6,0.2,1,0.3c0,0,0,0,0,0c0,0,0.1,0,0.1,0c1.1,0.3,2.4,0.5,3.8,0.5c0,0,0,0,0,0c1.6,0,3.1-0.2,4.6-0.7   c2.9-0.6,4.2,1.4,4.4,1.7c0.1,0.1,0.2,0.2,0.3,0.3c0,0,0,0,0,0c1,1.7,1.6,3.7,1.5,5.9c-0.2,5.9-5.2,10.7-11.1,10.6   C46.8,32.8,42,27.9,42,21.9z M42.7,39.2v10.9c0,0.3-0.4,0.5-0.6,0.2l-2.7-3.2l0,0c0,0-0.1-0.1-0.1-0.1c0,0,0,0-0.1-0.1   c0,0-0.1-0.1-0.1-0.1c0,0-0.1-0.1-0.1-0.1c0,0-0.1-0.1-0.1-0.1c-0.1,0-0.1,0-0.2-0.1c-0.1,0-0.2-0.1-0.3-0.1c-0.1,0-0.1,0-0.2,0   c0,0-0.1,0-0.1,0c-0.1,0-0.2,0-0.3,0c0,0-0.1,0-0.1,0c-0.1,0-0.2,0.1-0.2,0.1c-0.1,0.1-0.2,0.1-0.3,0.2c0,0-0.1,0.1-0.1,0.1   c-0.1,0.1-0.2,0.2-0.2,0.3c0,0,0,0.1-0.1,0.1c0,0,0,0.1-0.1,0.1c0,0,0,0,0,0c0,0.1,0,0.1-0.1,0.2c0,0,0,0.1,0,0.1c0,0,0,0.1,0,0.1   c0,0.1,0,0.1,0,0.2v4.7v8.9c0,0.9,0.7,1.6,1.6,1.6h11.5h1.1c0.3,0,0.6,0.3,0.6,0.6v3.5l0,0c0,0.3-0.2,0.5-0.5,0.6l-18.2,2.5   l-1.2,0.2c-0.3,0-0.5-0.1-0.6-0.4c0,0,0,0,0,0c-1.4-3.1-2.2-6.4-2.2-10c0-9.4,5.4-17.6,13.3-21.7C42.3,38.5,42.7,38.8,42.7,39.2z    M29.2,75.5C29.2,75.5,29.2,75.5,29.2,75.5c0.3-0.2,0.7-0.1,0.9,0.2c3.1,4.5,7.4,8.1,12.6,10.2c0.5,0.2,0.5,0.8,0.1,1.1l-6,4.3   c-0.1,0.1-0.2,0.1-0.4,0.1H19.3c-0.4,0-0.7-0.3-0.6-0.7C19.3,84.1,22.9,79,29.2,75.5z"></path><path fill="#000000" d="M48.6,21.7c-0.8,0.5-1.2,0.4-1.7,0c-0.7-0.5-1.7-0.3-2.2,0.4c-0.5,0.7-0.3,1.7,0.4,2.2   c0.8,0.6,1.7,0.9,2.6,0.9c0.9,0,1.8-0.3,2.7-0.8c0.7-0.5,1-1.5,0.5-2.2C50.4,21.4,49.4,21.2,48.6,21.7z"></path><path fill="#000000" d="M61.1,21.9c-0.5-0.5-1.4-0.6-2-0.2c-0.8,0.5-1.2,0.4-1.7,0c-0.7-0.5-1.7-0.3-2.2,0.4   c-0.5,0.7-0.3,1.7,0.4,2.2c0.8,0.6,1.7,0.9,2.6,0.9c0.9,0,1.8-0.3,2.7-0.8C61.6,23.8,61.8,22.6,61.1,21.9z"></path></g><circle fill="#000000" cx="53.1" cy="19.8" r="1.4"></circle></svg>