<svg fill="#4C4C4C" xmlns="http://www.w3.org/2000/svg" xmlns:xlink="http://www.w3.org/1999/xlink" version="1.1" x="0px" y="0px" viewBox="0 0 100 100" enable-background="new 0 0 100 100" xml:space="preserve"><g><path fill="#4C4C4C" d="M54.687,42.026c-1.448,0-2.78,0.702-3.478,1.831c-0.412,0.667-0.957,2.077,0.02,4.028   c1.08,2.157,2.984,3.346,5.361,3.346c1.095,0,1.91-0.261,1.999-0.291l0.781-0.26l0.161-0.807c0.055-0.271,0.48-2.732-1.221-5.768   C57.58,42.805,56.226,42.026,54.687,42.026z M56.59,48.396c-1.302,0-2.227-0.582-2.826-1.78c-0.189-0.378-0.368-0.905-0.143-1.27   c0.179-0.29,0.607-0.485,1.065-0.485c0.298,0,0.844,0.082,1.151,0.632c0.659,1.176,0.872,2.205,0.928,2.899   C56.709,48.395,56.65,48.396,56.59,48.396z"></path><circle fill="#4C4C4C" cx="67.144" cy="50.288" r="1.333"></circle><path fill="#4C4C4C" d="M82.89,42.512c0-1.869-1.52-3.39-3.387-3.39c-1.869,0-3.39,1.521-3.39,3.39   c0,0.593,0.167,1.143,0.436,1.628c-1.836,0.43-4.322,0.559-6.418,0.418c-0.12-4.107-1.393-9.343-5.66-9.795   c-3.945-0.415-6.434,2.011-7.605,4.038c-1.943-0.779-4.113-1.126-6.063-0.819c-3.336,0.522-5.528,2.836-6.166,6.385   c-1.694,0.115-5.593,0.725-9.988,3.739c-5.666,3.89-7.876,9.037-8.646,11.47c-0.521-0.311-0.564-1.137-0.423-3.63   c0.06-1.055,0.128-2.251,0.101-3.609c-0.044-2.248-1.064-3.352-1.912-3.882c-2.598-1.628-6.676,0.179-7.133,0.39   c-0.694,0.321-1.007,1.135-0.708,1.839c0.297,0.704,1.105,1.043,1.816,0.77c0.7-0.271,2.398-0.663,3.178-0.154   c0.121,0.08,0.492,0.321,0.54,1.348c0.049,1.044-0.16,2.193-0.382,3.411c-0.608,3.344-1.435,7.882,4.947,9.66   c0.713,1.172,2.685,3.001,8.12,3.92c2.259,0.383,4.253,0.673,5.936,0.673c2.793,0,4.713-0.82,5.57-3.327   c5.371,0.341,11.193-0.474,14.335-1.153c0.028,0.038,0.058,0.078,0.088,0.118c0.764,0.992,2.106,2.736,6.282,2.736   c0.559,0,1.17-0.031,1.836-0.1c0.649-0.067,1.155-0.452,1.353-1.031c0.339-0.992-0.355-1.652-1.028-2.291   c-0.93-0.884-1.389-1.463-1.366-1.718c0.001-0.003,0.118-0.278,0.932-0.646c1.6-0.723,2.939-1.682,4.234-2.609   c0.369-0.264,0.74-0.529,1.117-0.79c6.679-4.602,7.197-12.989,7.216-13.344c0.009-0.154-0.018-0.305-0.059-0.452   C81.924,45.245,82.89,43.996,82.89,42.512z M79.503,41.956c0.305,0,0.553,0.249,0.553,0.556c0,0.304-0.248,0.552-0.553,0.552   c-0.307,0-0.556-0.248-0.556-0.552C78.947,42.2,79.191,41.956,79.503,41.956z M64.172,37.581c2.215,0.235,2.928,3.812,3.09,6.525   c-0.019-0.006-0.04-0.011-0.059-0.017c-1.925-0.614-3.705-0.513-4.789-0.344c-0.101-0.191-0.187-0.348-0.234-0.433   c-0.526-1.195-1.541-2.282-2.816-3.17C60.008,39.036,61.463,37.294,64.172,37.581z M71.826,57.164   c-0.393,0.271-0.776,0.546-1.159,0.819c-1.237,0.887-2.406,1.724-3.751,2.33c-1.503,0.68-2.364,1.606-2.559,2.755   c-0.175,1.03,0.236,1.952,0.798,2.721c-1.796-0.223-2.375-0.976-2.833-1.57c-0.418-0.543-1.195-1.554-2.61-1.231   c-3.688,0.838-10.292,1.646-15.579,1.011c0.622-1.178,0.749-2.677,0.375-4.467c-0.989-4.718-5.501-5.08-7.75-4.612   c-0.767,0.16-1.258,0.91-1.099,1.677c0.16,0.766,0.906,1.258,1.677,1.099c0.382-0.078,3.746-0.686,4.396,2.418   c0.253,1.207,0.185,2.146-0.196,2.714c-0.334,0.498-0.848,0.6-0.841,0.6c-0.67,0.09-1.184,0.64-1.227,1.313   c-0.044,0.675,0.395,1.286,1.047,1.461c0.7,0.188,1.438,0.335,2.195,0.457c-0.66,0.913-2.368,1.154-8.092,0.185   c-4.945-0.836-6.019-2.327-6.189-2.632c-0.021-0.623-0.452-0.938-1.08-1.082c-1.261-0.289-2.14-0.652-2.736-1.104   c0.585,0.313,1.34,0.523,2.311,0.598c0.708,0.058,1.366-0.442,1.501-1.151c0.013-0.065,1.317-6.559,7.826-11.026   c3.546-2.433,6.701-3.055,8.211-3.213c0.14,2.179,0.911,4.027,2.325,5.503c3.224,3.364,8.721,3.611,10.265,3.611   c0.227,0,0.368-0.005,0.405-0.007c0.781-0.034,1.389-0.695,1.354-1.478c-0.034-0.781-0.668-1.397-1.478-1.354   c-1.578,0.063-6.162-0.292-8.5-2.733c-1.218-1.271-1.72-2.94-1.533-5.104c0.247-2.872,1.573-4.517,3.939-4.888   c3.287-0.512,7.5,1.656,8.362,3.716l0.085,0.17c0.264,0.449,0.996,1.859,1.22,2.971c0.155,0.768,0.899,1.263,1.669,1.11   c0.768-0.154,1.265-0.901,1.11-1.669c-0.04-0.202-0.091-0.405-0.148-0.607c0.755-0.053,1.75-0.018,2.803,0.319   c2.388,0.763,7.782,0.972,11.393-0.027C77.447,48.742,76.28,54.095,71.826,57.164z"></path></g></svg>