<svg xmlns="http://www.w3.org/2000/svg" xmlns:xlink="http://www.w3.org/1999/xlink" version="1.1" x="0px" y="0px" viewBox="0 0 100 100" enable-background="new 0 0 100 100" xml:space="preserve"><path d="M91.257,26.104l-0.197-0.641c-0.004-0.013-0.014-0.021-0.018-0.032c-0.165-0.521-0.32-1.196-0.375-1.676  c-0.274-2.39-1.199-4.413-2.826-6.186c-1.033-1.127-3.368-0.906-6.314-0.498l-0.511,0.069c-0.904,0.121-1.595,0.81-1.724,1.753  c-0.291,2.113-0.806,5.97,4.531,7.985c0.293,1.266,0.475,2.56,0.645,3.818c0.176,1.302,0.357,2.648,0.668,3.962  c0.113,0.479,0.064,0.906-0.152,1.348c-0.509,1.032-0.75,2.259-0.984,3.445c-0.138,0.701-0.287,1.461-0.484,2.033  c-1.361-0.559-2.946-0.876-4.584-0.876c-2.186,0-4.247,0.533-5.81,1.474c-0.05,0.004-0.099,0.007-0.149,0.009  c-1.58-1.08-3.885-1.732-6.386-1.732c-2.735,0-5.169,0.764-6.73,1.984c-0.139-0.007-0.281-0.009-0.415-0.023  c-1.604-0.18-2.795-1.634-2.656-3.241l0.291-3.394c0.682-0.225,1.336-0.909,1.75-1.882c0.568-1.33,0.438-2.565-0.28-3.102  c0.043-0.358,0.067-0.721,0.067-1.088c0-5.703-3.841-10.344-8.563-10.344c-4.721,0-8.563,4.641-8.563,10.344  c0,0.205,0.021,0.405,0.035,0.607c-0.458,0.568-0.611,1.537-0.346,2.64c0.3,1.246,1.003,2.119,1.8,2.291l0.238,4.815  c0.042,0.844-0.39,1.559-1.155,1.915l-1.895,0.882c-1.679-1.887-4.499-3.027-7.623-3.027c-2.274,0-4.383,0.636-6.014,1.693  c-1.521-1.082-3.552-1.692-5.694-1.692c-1.453,0-2.84,0.285-4.06,0.799c-0.348-0.629-0.481-1.326-0.651-2.206l-0.114-0.58  c-0.192-0.942,0.216-2.44,0.515-3.534l1.878-6.968c0.128-0.187,0.751-0.553,1.211-0.823c1.552-0.909,3.897-2.283,4.547-5.248  c0.01-0.044,0.017-0.089,0.021-0.135c0.059-0.744,0.239-3.009-1.422-3.683c-2.788-1.132-3.779-1.468-6.126-1.037  c-0.874,0.185-1.4,0.682-2.06,1.306c-1.234,1.167-1.934,2.553-2.14,4.237c-0.095,0.781-0.185,1.667-0.161,2.512l-0.299,0.512  C8.236,31.272,5.009,36.784,4.56,46.451c-0.047,1.017,0.394,1.946,1.209,2.551c6.016,4.467,12.857,6.5,20.996,6.231  c1.194-0.145,1.411,0.085,1.521,0.321c0.987,4.275,2.623,7.408,4.206,10.438c0.439,0.841,0.879,1.683,1.307,2.551  c1.247,2.533,1.786,4.921,1.747,7.743c-0.035,2.582-0.13,5.105-0.792,7.572h27.635c-0.062-1.156-0.125-2.544-0.188-3.931  l-0.035-0.771c-0.103-2.266,0.206-4.222,1.002-6.345c1.638-4.372,3.947-8.907,5.803-12.551c0.91-1.787,1.695-3.33,2.248-4.55  c0-0.003,0.002-0.004,0.004-0.006c0.069-0.153,0.125-0.229,0.129-0.255c0.152,0.028,0.483,0.206,0.688,0.316  c0.39,0.21,0.831,0.447,1.316,0.521c1.021,0.157,1.994,0.235,2.955,0.235c1.466,0,2.903-0.184,4.434-0.557  c4.354-1.063,8.511-2.843,12.356-5.292c1.372-0.874,2.189-2.248,2.304-3.869C95.813,40.94,93.071,32.012,91.257,26.104z   M51.719,78.672c-0.144,0.221-0.384,0.341-0.629,0.341c-0.141,0-0.283-0.039-0.409-0.121c-0.654-0.427-1.333-0.441-2.137-0.049  c-0.373,0.182-0.821,0.027-1.003-0.345s-0.027-0.821,0.345-1.003c1.271-0.621,2.52-0.573,3.613,0.139  C51.847,77.86,51.944,78.325,51.719,78.672z M58.499,72.36c-0.111,0.398-0.522,0.631-0.924,0.522  c-1.596-0.444-4.168-0.248-6.891-0.04c-0.128,0.01-0.257,0.018-0.386,0.027c0.007,0.558,0.028,1.127,0.069,1.714  c0.029,0.413-0.283,0.771-0.696,0.8c-0.018,0.001-0.036,0.002-0.053,0.002c-0.39,0-0.72-0.303-0.747-0.698  c-0.041-0.584-0.061-1.152-0.069-1.713c-1.006,0.066-2.005,0.119-2.964,0.119c-2.056,0-3.934-0.221-5.346-0.956  c-0.368-0.191-0.51-0.644-0.319-1.012c0.19-0.368,0.646-0.51,1.011-0.318c1.747,0.91,4.716,0.856,7.629,0.665  c0.031-1.26,0.109-2.477,0.192-3.665c0.041-0.579,0.081-1.163,0.116-1.757c-1.746-0.058-3.792,0.286-6.77,1.723  c-0.105,0.051-0.216,0.074-0.325,0.074c-0.279,0-0.547-0.156-0.676-0.424c-0.18-0.373-0.023-0.821,0.35-1.002  c3.267-1.576,5.563-1.939,7.487-1.872c0.048-1.398,0.044-2.858-0.096-4.449c-0.037-0.412,0.269-0.776,0.681-0.813  c0.417-0.034,0.777,0.269,0.813,0.682c0.15,1.699,0.151,3.242,0.098,4.714c0.523,0.072,1.028,0.165,1.529,0.257  c1.611,0.296,3.137,0.577,5.256,0.229c0.407-0.068,0.795,0.212,0.861,0.619c0.066,0.409-0.211,0.795-0.619,0.861  c-2.377,0.39-4.102,0.072-5.77-0.234c-0.441-0.081-0.879-0.16-1.325-0.226c-0.035,0.581-0.074,1.154-0.113,1.722  c-0.081,1.165-0.156,2.298-0.188,3.455c0.085-0.007,0.172-0.014,0.256-0.02c2.857-0.218,5.556-0.425,7.407,0.09  C58.376,71.548,58.609,71.962,58.499,72.36z M66.738,55.208c-1.866,2.753-3.841,4.271-5.644,5.079  c0.123,0.166,0.211,0.358,0.211,0.577c0,0.566-0.486,1.027-1.084,1.027c-0.575,0-1.037-0.431-1.071-0.968  c-0.575,0.121-1.118,0.182-1.61,0.195c-0.087,0.003-0.174,0.004-0.26,0.004c-2.98,0-5.857-1.492-8.223-4.217  c-1.606,2.066-4.724,4.016-8.148,4.067c-0.046,0-0.093,0.001-0.141,0.001c-0.079,0-0.162-0.004-0.242-0.007  c0.006,0.045,0.028,0.085,0.028,0.131c0,0.566-0.486,1.027-1.084,1.027s-1.084-0.461-1.084-1.027c0-0.148,0.036-0.288,0.096-0.415  c-2.25-0.578-4.835-2.156-7.071-5.886c-0.213-0.355-0.098-0.816,0.257-1.029c0.354-0.213,0.815-0.098,1.029,0.258  c2.165,3.612,5.009,5.469,8.189,5.447c3.269-0.049,6.182-2.089,7.355-4.036v-3.213c0-0.414,0.336-0.75,0.75-0.75  s0.75,0.336,0.75,0.75v3.164c2.217,2.806,4.98,4.303,7.755,4.231c2.961-0.085,5.728-1.902,7.999-5.254  c0.233-0.343,0.7-0.431,1.042-0.2C66.881,54.398,66.97,54.865,66.738,55.208z"></path></svg>