<svg fill="#D26B00" xmlns="http://www.w3.org/2000/svg" xmlns:xlink="http://www.w3.org/1999/xlink" version="1.1" x="0px" y="0px" viewBox="0 0 100 100" enable-background="new 0 0 100 100" xml:space="preserve"><path fill="none" d="M49.872,42.509c-1.464,0.42-2.798,0.659-3.785,0.703c0.038,0.204,0.078,0.407,0.12,0.61  c1.069-0.339,2.356-0.627,3.702-0.82C49.891,42.843,49.884,42.673,49.872,42.509z"></path><path fill="none" d="M44.956,49.572c-0.041-0.085-0.074-0.164-0.111-0.247C44.883,49.408,44.915,49.487,44.956,49.572z"></path><path fill="none" d="M44.146,46.702c0.001-0.083,0.001-0.168,0.009-0.243C44.147,46.535,44.147,46.619,44.146,46.702z"></path><path fill="none" d="M44.171,47.141c-0.01-0.088-0.02-0.176-0.024-0.257C44.152,46.966,44.161,47.052,44.171,47.141z"></path><path fill="none" d="M44.259,47.65c-0.021-0.092-0.039-0.183-0.053-0.27C44.22,47.468,44.238,47.557,44.259,47.65z"></path><path fill="none" d="M44.645,48.869c-0.038-0.095-0.069-0.184-0.103-0.275C44.576,48.685,44.607,48.774,44.645,48.869z"></path><path fill="none" d="M44.415,48.227c-0.03-0.095-0.055-0.186-0.08-0.276C44.359,48.041,44.384,48.131,44.415,48.227z"></path><path fill="none" d="M34.834,64.853c-3.695-1.144-5.681-2.586-6.679-4.024c-0.477,0.188-0.922,0.376-1.317,0.563  c-0.313,0.292-0.396,0.449-0.409,0.479c0.012,0.002,0.077,0.28,0.603,0.923c0.005,0.003,0.006,0.01,0.011,0.013  c1.06,0.677,1.791,0.868,2.978,1.168c0.635,0.161,1.426,0.361,2.437,0.685c2.975,0.954,5.096,2.644,5.185,2.715  c0.267,0.215,0.31,0.605,0.095,0.873c-0.123,0.153-0.303,0.232-0.484,0.232c-0.137,0-0.274-0.044-0.389-0.137  c-0.02-0.016-2.039-1.62-4.785-2.5c-0.975-0.312-1.712-0.499-2.363-0.664c-1.204-0.305-2.092-0.54-3.298-1.301  c-0.608-0.127-1.109-0.116-1.165-0.1c0.004,0.012-0.116,0.18-0.243,0.695c-0.448,2.751-0.53,4.127,0.543,5.691  c1.107,1.615,2.749,4.923,2.7,5.643c-0.022,0.328-0.295,0.58-0.619,0.58c-0.014,0-0.028,0-0.042-0.001  c-0.342-0.023-0.601-0.319-0.578-0.661c-0.065-0.396-1.304-3.135-2.485-4.857c-1.337-1.949-1.2-3.75-0.771-6.419  c-0.255-0.491-0.439-0.721-0.537-0.82c-2.869,1.7-4.394,3.112-4.765,4.429c-0.477,1.69-3.05,4.748-3.342,5.091  c-0.123,0.145-0.298,0.219-0.474,0.219c-0.142,0-0.285-0.049-0.402-0.148c-0.261-0.222-0.293-0.614-0.071-0.875  c0.745-0.875,2.751-3.413,3.093-4.624c0.457-1.622,2.049-3.183,5.094-5.018c-0.098-0.028-0.281-0.068-0.58-0.096  c-3.617,0.324-5.231,1.373-6.299,2.07c-0.184,0.12-0.354,0.231-0.516,0.328c-1.218,0.73-4.402,1.567-4.537,1.602  c-0.053,0.014-0.105,0.021-0.158,0.021c-0.275,0-0.527-0.185-0.6-0.464c-0.087-0.332,0.112-0.671,0.443-0.758  c0.872-0.228,3.328-0.936,4.213-1.466c0.149-0.089,0.306-0.192,0.476-0.303c1.157-0.755,2.908-1.885,6.733-2.25  c0.258-0.199,0.421-0.353,0.519-0.462l-0.669-0.299c-2.688-1.195-4.038-1.794-5.435-3.966c-1.312-2.038-3.477-2.617-3.499-2.623  c-0.331-0.085-0.532-0.423-0.447-0.755c0.084-0.332,0.423-0.532,0.752-0.449c0.107,0.027,2.652,0.692,4.237,3.155  c1.197,1.859,2.28,2.34,4.896,3.503l1.017,0.455c0.013-0.002,0.028-0.004,0.034-0.005c-0.004-0.012,0.116-0.178,0.265-0.644  c-0.713-2.031-1.302-5.141-1.638-7.798c-1.411-0.932-2.49-2.751-2.514-6.139c-0.033-0.388-0.052-0.761-0.06-1.122  c-0.183-0.025-0.371-0.037-0.562-0.037c-1.149,0-2.481,0.442-3.961,1.314c-1.972,1.146-3.144,2.427-3.485,3.806  c-0.449,1.813-1.489,3.312-2.928,4.222c-1.261,0.797-2.073,2.409-2.413,4.79c-0.346,2.329-0.05,4.079,0.88,5.206  c1.23,1.492,1.749,3.484,1.461,5.61c-0.203,1.5,0.537,3.167,2.199,4.955c0.878,0.956,1.752,1.655,2.599,2.081  c0.64,0.321,1.263,0.793,1.85,1.403c0.776,0.807,1.969,1.463,3.547,1.951c2.165,0.682,3.908,0.689,5.153,0.02  c1.789-0.96,3.948-1.144,5.898-0.503c0.375,0.124,0.776,0.186,1.192,0.186c1.208,0,2.599-0.521,4.132-1.551  c2.014-1.335,3.122-2.767,3.294-4.254c0.225-1.943,1.328-3.757,2.952-4.853c0.943-0.637,1.607-1.74,1.986-3.284  c-0.744,0.306-1.654,0.491-2.777,0.491C38.547,65.787,36.807,65.473,34.834,64.853z"></path><path fill="none" d="M25.372,61.217c-0.099-0.056-0.185-0.12-0.258-0.192c-0.12-0.124-0.214-0.276-0.286-0.463  c-0.232,0.022-0.434,0.001-0.608-0.062c-0.049-0.019-0.098-0.042-0.145-0.068c-0.154,0.276-0.327,0.469-0.524,0.587  c-0.054,0.031-0.11,0.057-0.169,0.08c-0.06,0.182-0.167,0.367-0.325,0.56c0.127,0.068,0.233,0.147,0.319,0.24  c0.126,0.139,0.221,0.314,0.289,0.533c0.176,0.081,0.392,0.234,0.646,0.557c0.082-0.102,0.169-0.185,0.265-0.25  c0.208-0.136,0.465-0.208,0.791-0.223c-0.173-0.374-0.186-0.621-0.168-0.796C25.217,61.554,25.274,61.388,25.372,61.217z"></path><path fill="none" d="M72.389,40.38c-0.079-0.015-0.156-0.038-0.234-0.069c-0.209,0.137-0.477,0.226-0.817,0.272  c0.084,0.18,0.13,0.35,0.139,0.513c0.007,0.213-0.043,0.435-0.152,0.677c0.105,0.209,0.193,0.527,0.155,1.083  c0.136-0.036,0.263-0.054,0.383-0.054c0.022,0,0.106,0.004,0.129,0.007c0.216,0.028,0.51,0.116,0.924,0.467  c0.122-0.524,0.305-0.766,0.457-0.91c0.148-0.136,0.339-0.24,0.579-0.315c-0.063-0.143-0.099-0.28-0.11-0.416  c-0.014-0.2,0.024-0.411,0.113-0.641c-0.241-0.157-0.411-0.327-0.52-0.518c-0.042-0.076-0.076-0.159-0.103-0.248  c-0.277,0.112-0.522,0.167-0.739,0.167C72.557,40.397,72.423,40.386,72.389,40.38z"></path><path fill="none" d="M24.677,59.347c0.022-0.012,0.108-0.03,0.225-0.059c1.45-2.117,2.075-4.252,2.622-6.143  c0.123-0.425,0.246-0.838,0.373-1.242c-1.007,0.281-2.049,0.476-3.065,0.476c-0.635,0-1.299-0.074-1.943-0.266  c0.33,2.351,0.847,5.029,1.528,6.905C24.581,59.279,24.676,59.346,24.677,59.347z"></path><path fill="none" d="M34.457,49.047c-0.041-0.061-0.083-0.121-0.124-0.182c-0.35,0.235-0.687,0.449-0.986,0.63  c-0.786,0.474-2.259,1.284-3.974,1.927c-0.232,0.624-0.437,1.311-0.656,2.068c-0.124,0.427-0.253,0.869-0.392,1.318  C29.666,52.599,32.092,50.531,34.457,49.047z"></path><path fill="none" d="M27.305,57.553c-0.361,0.791-0.806,1.597-1.36,2.409c0.025,0.114,0.05,0.176,0.06,0.196  c0.009,0.005,0.127,0.044,0.379,0.076c0.363-0.17,0.757-0.34,1.18-0.508C27.277,58.962,27.228,58.223,27.305,57.553z"></path><path fill="none" d="M51.523,43.821c0.201-0.017,0.404-0.029,0.608-0.04C51.927,43.792,51.724,43.804,51.523,43.821z"></path><path fill="none" d="M61.879,37.432c-0.677-0.115-1.678-0.477-2.618-0.86c-1.443,2.593-5.086,4.536-8.41,5.633  c0.014,0.227,0.027,0.456,0.05,0.671c0.813-0.086,1.633-0.134,2.425-0.134c1.137,0,2.432,0.107,3.666,0.411  c1.647-0.321,4.002-0.878,4.93-1.492c1.609-1.065,4.193-1.22,8.309-0.511c0-0.001,0.003-0.008,0.003-0.009  c-0.006,0-0.081-0.222-0.539-0.688c-3.439-2.432-5.654-2.728-7.121-2.921C62.324,37.499,62.093,37.468,61.879,37.432z"></path><path fill="none" d="M50.057,43.986c-0.091,0.013-0.178,0.029-0.267,0.043c0.088-0.014,0.179-0.026,0.268-0.039  C50.058,43.989,50.058,43.988,50.057,43.986z"></path><path fill="none" d="M51.049,43.866c0,0,0,0.001,0,0.002c0.049-0.005,0.098-0.011,0.147-0.016  C51.147,43.857,51.097,43.861,51.049,43.866z"></path><path fill="none" d="M52.418,43.764c0.301-0.013,0.604-0.021,0.908-0.021C53.021,43.743,52.719,43.751,52.418,43.764z"></path><path fill="none" d="M44.221,46.11c-0.021,0.07-0.033,0.151-0.046,0.232C44.187,46.262,44.199,46.18,44.221,46.11L44.221,46.11z"></path><path fill="none" d="M93.561,36.415c-0.342-0.716-0.589-1.502-0.733-2.338c-0.182-1.04-0.626-2.196-1.322-3.436  c-1.383-2.503-2.976-3.929-4.736-4.243c-2.279-0.406-4.268-1.652-5.456-3.42c-0.93-1.384-2.733-2.323-5.361-2.791  c-2.599-0.479-4.611-0.236-5.951,0.714c-1.725,1.223-3.739,1.746-5.658,1.464c-0.207-0.03-0.418-0.046-0.635-0.046  c-1.557,0-3.275,0.813-5.109,2.416c-1.336,1.154-2.239,2.3-2.719,3.426c0.313,0.187,0.627,0.385,0.944,0.607  c2.561,2.254,3.51,4.479,2.904,6.652c0.894,0.365,1.798,0.692,2.361,0.788c0.199,0.034,0.415,0.063,0.648,0.093  c1.572,0.207,3.94,0.53,7.563,3.064c0.132,0.007,0.266,0.015,0.384,0.015c0.281,0,0.459-0.022,0.581-0.046l-0.413-0.858  c-1.465-3.023-2.199-4.541-1.814-7.439c0.369-2.78-1.121-4.922-1.137-4.944c-0.198-0.279-0.133-0.667,0.146-0.865  c0.283-0.199,0.667-0.134,0.865,0.143c0.073,0.103,1.793,2.548,1.356,5.83c-0.335,2.529,0.261,3.76,1.701,6.734l0.563,1.17  c0.051,0.035,0.086,0.054,0.089,0.055c-0.014-0.005,0.23-0.029,0.812-0.388c1.681-4.37,6.728-11.89,7.843-12.366  c0.315-0.135,0.681,0.011,0.815,0.327c0.135,0.315-0.012,0.68-0.327,0.815c-0.729,0.49-5.602,7.452-7.227,11.808  c-0.053,0.354-0.023,0.499-0.015,0.521c0.005,0,0.089,0.078,0.325,0.193c2.882-0.755,5.037-2.152,6.938-3.393  c1.274-0.831,2.478-1.616,3.703-2.059c0.319-0.117,0.678,0.05,0.795,0.373c0.116,0.322-0.051,0.678-0.373,0.795  c-1.09,0.394-2.182,1.106-3.446,1.931c-1.974,1.287-4.209,2.736-7.265,3.543c-0.1,0.179-0.118,0.269-0.121,0.287  c0.005,0,0.068,0.147,0.326,0.431c3.863,1.066,10.107,4.102,11.195,4.667c0.304,0.158,0.423,0.533,0.266,0.837  c-0.111,0.213-0.328,0.335-0.553,0.335c-0.096,0-0.193-0.022-0.285-0.07c-1.017-0.528-7.33-3.592-11.032-4.595  c-0.578,0.02-0.767,0.117-0.784,0.128c0.006,0.002-0.175,0.285-0.19,1.361c0.431,1.394,0.937,2.105,1.761,3.26  c0.438,0.611,0.981,1.373,1.627,2.405c1.895,3.028,2.495,6.059,2.52,6.187c0.065,0.336-0.154,0.662-0.491,0.727  c-0.04,0.008-0.08,0.012-0.119,0.012c-0.291,0-0.551-0.206-0.608-0.503c-0.006-0.029-0.587-2.94-2.354-5.765  c-0.625-0.999-1.135-1.712-1.584-2.341c-0.834-1.165-1.44-2.02-1.931-3.593c-0.662-0.857-0.979-0.979-1.007-0.988  c0,0.005-0.237,0.033-0.805,0.437c-2.463,2.068-3.569,3.209-3.794,5.395c-0.224,2.163-1.248,6.288-1.805,6.854  c-0.122,0.124-0.282,0.186-0.443,0.186c-0.157,0-0.314-0.06-0.436-0.178c-0.244-0.24-0.248-0.633-0.008-0.878  c0.242-0.38,1.212-3.746,1.455-6.111c0.281-2.719,1.742-4.122,4.094-6.103c0.171-0.734,0.16-1.093,0.138-1.234  c-3.852-0.684-6.287-0.596-7.624,0.289c-0.767,0.507-2.174,0.94-3.502,1.265c0.719,0.401,1.358,0.911,1.83,1.596  c1.115,1.62,1.146,3.84,0.092,6.601c-0.874,1.98-1.85,3.321-2.833,4.225c0.06,0.016,0.119,0.04,0.18,0.053  c2.302,0.504,4.256,1.898,5.502,3.924c0.942,1.532,2.878,2.481,5.752,2.822c2.784,0.347,4.847-0.077,6.119-1.25  c1.619-1.495,3.918-2.249,6.145-1.987c1.715,0.199,3.644-0.659,5.674-2.559c1.97-1.822,2.96-3.594,2.944-5.269  c-0.021-2.317,0.82-4.404,2.367-5.875c1.269-1.206,1.797-3.238,1.573-6.041C94.337,38.69,94.038,37.417,93.561,36.415z"></path><path fill="none" d="M45.054,46.423c0.077,0.042,0.154,0.084,0.222,0.131C45.208,46.507,45.131,46.465,45.054,46.423z"></path><path fill="none" d="M44.63,46.232c0.119,0.042,0.231,0.089,0.336,0.141C44.861,46.32,44.748,46.275,44.63,46.232z"></path><path fill="none" d="M48.947,44.176c0.179-0.035,0.361-0.068,0.547-0.099C49.308,44.108,49.127,44.142,48.947,44.176z"></path><path fill="none" d="M48.087,44.357c0.202-0.047,0.409-0.092,0.622-0.135C48.496,44.265,48.29,44.311,48.087,44.357z"></path><path fill="none" d="M44.221,46.11c0.138,0.033,0.27,0.072,0.396,0.116C44.492,46.182,44.359,46.144,44.221,46.11z"></path><path fill="none" d="M46.584,44.761c0.419-0.131,0.884-0.259,1.386-0.378C47.467,44.503,47.002,44.63,46.584,44.761z"></path><path fill="#D26B00" d="M95.447,40.125c-0.122-1.633-0.453-3.026-0.984-4.141c-0.303-0.633-0.521-1.333-0.651-2.079  c-0.2-1.152-0.683-2.415-1.433-3.751c-1.535-2.777-3.363-4.372-5.435-4.741c-2.015-0.358-3.765-1.45-4.802-2.994  c-1.087-1.618-3.11-2.701-6.013-3.217c-2.879-0.529-5.139-0.231-6.708,0.882c-1.516,1.074-3.273,1.532-4.936,1.291  c-1.979-0.29-4.229,0.58-6.545,2.604c-1.414,1.222-2.398,2.459-2.948,3.697c-1.357-0.676-2.674-1.025-3.934-1.025  c-4.481,0-7.422,4.377-8.35,8.715c-0.17,0.794-0.276,1.618-0.306,2.421c-0.221,0.183-0.443,0.365-0.681,0.549  c0.937-2.178,1.535-4.858,1.43-7.272c-0.196-4.506-2.68-6.988-6.994-6.988c-0.996,0-2.104,0.135-3.315,0.408  c-5.052,1.407-5.758,4.296-5.46,6.472c0.572,4.187,5.282,8.981,8.291,10.871c-0.189,0.071-0.378,0.138-0.568,0.201  c-2.917-2.223-7.524-4.617-10.877-4.617c-1.584,0-2.839,0.491-3.729,1.459c-0.906,0.985-1.406,2.455-1.498,4.366  c-1.473-0.16-3.169,0.309-5.041,1.411c-2.212,1.286-3.541,2.776-3.951,4.429c-0.387,1.561-1.271,2.845-2.491,3.617  c-1.521,0.961-2.485,2.81-2.868,5.49c-0.389,2.618-0.02,4.632,1.099,5.987c1.051,1.273,1.492,2.992,1.241,4.84  c-0.245,1.811,0.582,3.752,2.456,5.768c0.958,1.043,1.929,1.815,2.885,2.295c0.546,0.274,1.063,0.668,1.578,1.203  c0.895,0.93,2.231,1.674,3.97,2.212c1.187,0.374,2.279,0.564,3.245,0.564c1.014,0,1.915-0.208,2.679-0.618  c1.551-0.832,3.421-0.99,5.113-0.434c0.476,0.156,0.982,0.236,1.505,0.236c1.41,0,2.988-0.579,4.687-1.719  c2.269-1.504,3.524-3.177,3.732-4.971c0.192-1.657,1.133-3.205,2.518-4.139c1.339-0.904,2.202-2.512,2.579-4.776  c1.198-0.938,1.708-2.302,1.9-3.531c0.441-2.825-0.553-6.503-1.88-9.42c0.247-0.169,0.497-0.327,0.75-0.476  c2.022,3.39,5.722,6.891,9.39,6.891c0.921,0,2.024-0.232,3.159-0.975c0.298,0.121,0.598,0.226,0.904,0.293  c2.035,0.446,3.763,1.679,4.865,3.471c1.11,1.806,3.293,2.913,6.483,3.291c0.667,0.083,1.307,0.125,1.901,0.125  c2.154,0,3.842-0.55,5.016-1.634c1.408-1.3,3.403-1.957,5.352-1.729c0.202,0.023,0.408,0.036,0.617,0.036  c1.859,0,3.829-0.961,5.854-2.855c2.183-2.02,3.281-4.042,3.263-6.01c-0.019-2.037,0.712-3.863,2.057-5.142  C95.063,45.543,95.696,43.24,95.447,40.125z M73.331,40.229c0.026,0.089,0.061,0.171,0.103,0.248c0.108,0.19,0.278,0.36,0.52,0.518  c-0.089,0.23-0.127,0.441-0.113,0.641c0.012,0.135,0.048,0.273,0.11,0.416c-0.24,0.075-0.431,0.179-0.579,0.315  c-0.152,0.145-0.335,0.386-0.457,0.91c-0.414-0.351-0.708-0.438-0.924-0.467c-0.022-0.002-0.106-0.007-0.129-0.007  c-0.12,0-0.247,0.018-0.383,0.054c0.038-0.556-0.05-0.874-0.155-1.083c0.109-0.242,0.159-0.464,0.152-0.677  c-0.009-0.164-0.055-0.333-0.139-0.513c0.341-0.047,0.608-0.136,0.817-0.272c0.078,0.031,0.155,0.054,0.234,0.069  c0.034,0.006,0.168,0.017,0.203,0.017C72.809,40.397,73.054,40.342,73.331,40.229z M69.695,40.454  c0.458,0.466,0.534,0.688,0.539,0.688c0,0.001-0.003,0.008-0.003,0.009c-4.117-0.709-6.701-0.554-8.309,0.511  c-0.927,0.614-3.283,1.171-4.93,1.492c-1.234-0.304-2.529-0.411-3.666-0.411c-0.793,0-1.612,0.048-2.425,0.134  c-0.024-0.215-0.036-0.445-0.05-0.671c3.323-1.098,6.967-3.041,8.41-5.633c0.94,0.383,1.941,0.744,2.618,0.86  c0.214,0.036,0.445,0.067,0.695,0.1C64.041,37.726,66.256,38.021,69.695,40.454z M44.849,60.947  c-0.59,3.777-3.946,4.766-9.716,2.951c-4.934-1.528-7.228-3.676-6.818-6.384c0.524-3.461,5.261-7.13,8.714-8.798  c-0.179,0.405-0.319,0.788-0.385,1.103c-0.157,0.745-0.044,1.337,0.335,1.759c0.221,0.247,0.539,0.388,0.872,0.388  c0.27,0,0.524-0.096,0.717-0.27c0.217-0.195,0.352-0.455,0.377-0.731c0.021-0.229-0.032-0.453-0.152-0.647  c0.05-0.446,0.672-1.646,1.345-2.509c0.003,0.001,0.011,0.002,0.013,0.003C41.633,48.286,45.618,56.021,44.849,60.947z   M25.365,62.516c-0.325,0.015-0.583,0.087-0.791,0.223c-0.096,0.065-0.184,0.148-0.265,0.25c-0.254-0.323-0.47-0.476-0.646-0.557  c-0.067-0.219-0.162-0.394-0.289-0.533c-0.086-0.092-0.192-0.172-0.319-0.24c0.158-0.193,0.266-0.378,0.325-0.56  c0.06-0.022,0.116-0.049,0.169-0.08c0.198-0.119,0.371-0.311,0.524-0.587c0.047,0.026,0.096,0.049,0.145,0.068  c0.174,0.063,0.376,0.083,0.608,0.062c0.072,0.188,0.166,0.339,0.286,0.463c0.073,0.072,0.159,0.136,0.258,0.192  c-0.097,0.171-0.154,0.337-0.174,0.502C25.18,61.895,25.192,62.142,25.365,62.516z M24.229,38.413c3.519,0,8.124,2.68,10.703,4.71  c-0.769,0.041-1.488,0.144-2.077,0.303c-1.017,0.274-1.644,0.709-1.914,1.333c-0.245,0.563,0.013,1.22,0.575,1.465  c0.142,0.061,0.291,0.092,0.444,0.092c0.416,0,0.795-0.233,0.959-0.55c0.084-0.051,0.329-0.172,0.882-0.279  c0.542-0.104,1.183-0.16,1.851-0.16c0.418,0,0.808,0.022,1.167,0.058c-0.747,1.421-7.069,5.994-11.986,5.994  c-3.145,0-4.755-2.028-4.786-6.067c-0.229-2.716,0.17-4.655,1.189-5.764C21.929,38.794,22.936,38.413,24.229,38.413z M33.087,25.455  c1.116-0.25,2.149-0.377,3.072-0.377c4.738,0,5.875,3.28,5.995,6.031c0.164,3.768-1.504,7.854-3.089,9.637  c-0.178-0.254-0.307-0.474-0.302-0.582c0.133-0.598-0.246-1.193-0.846-1.327c-0.595-0.126-1.193,0.254-1.324,0.844  c-0.138,0.619-0.005,1.178,0.278,1.728c-2.381-1.188-7.908-6.273-8.498-10.587C28.02,28.23,29.614,26.422,33.087,25.455z   M58.669,35.505c-1.555,4.113-9.835,6.723-12.915,6.723c-0.611,0-0.779-0.107-0.857-0.151c-0.348-0.156-0.64-0.45-0.871-0.85  c0.197-0.204,0.403-0.401,0.626-0.576c0.471-0.371,0.76-0.453,0.779-0.464c0.564,0.203,1.219-0.109,1.421-0.671  c0.206-0.576-0.094-1.213-0.672-1.421c-0.803-0.286-1.761-0.029-2.768,0.721c-0.058-0.966,0.027-2.073,0.276-3.238  c0.843-3.944,3.449-7.924,7.372-7.924c1.61,0,3.356,0.651,5.146,1.9C58.551,31.621,59.38,33.623,58.669,35.505z M42.974,44.96  c-0.411,0-0.839,0.034-1.292,0.102c-0.046,0-0.099-0.035-0.108-0.094c-0.009-0.061,0.033-0.118,0.093-0.127  c2.017-0.305,3.791,0.098,4.75,1.083l-0.002,0.157c-0.026,0.026-0.057,0.031-0.077,0.031l-0.08-0.034  C45.556,45.357,44.39,44.96,42.974,44.96z M29.374,51.422c1.715-0.644,3.188-1.454,3.974-1.927c0.299-0.18,0.636-0.394,0.986-0.63  c0.041,0.061,0.082,0.121,0.124,0.182c-2.365,1.484-4.792,3.552-6.133,5.761c0.139-0.449,0.269-0.891,0.392-1.318  C28.936,52.733,29.142,52.046,29.374,51.422z M37.819,50.626c0.021,0.075,0.058,0.144,0.11,0.202  c0.028,0.031,0.003,0.095-0.03,0.125c-0.051,0.046-0.136,0.003-0.177-0.042c-0.154-0.172-0.188-0.47-0.101-0.885  c0.253-1.202,1.745-3.674,3.009-4.234c0.034,0,0.081,0.017,0.103,0.065c0.021,0.047-0.008,0.125-0.056,0.147  C39.349,46.602,37.568,49.706,37.819,50.626z M37.57,39.898c0.013-0.057,0.061-0.084,0.124-0.084c0.003,0,0.006,0,0.009,0  c0.06,0.013,0.098,0.073,0.084,0.132c-0.15,0.671,0.434,1.391,1.245,2.391c0.442,0.544,0.942,1.161,1.414,1.888  c0.028,0.044,0.011,0.125-0.033,0.154c-0.031,0.02-0.078,0.084-0.154-0.033c-0.466-0.718-0.963-1.331-1.403-1.874  C37.924,41.324,37.405,40.638,37.57,39.898z M41.478,43.867c-0.037,0.007-0.068,0.027-0.104,0.038  c-0.028-0.075-0.044-0.154-0.089-0.223c-0.006-0.009-0.011-0.015-0.017-0.024c0.117-1.106,1.289-2.916,2.627-3.967  c0.761-0.597,1.458-0.829,1.948-0.655c0.058,0.021,0.088,0.085,0.068,0.142c-0.02,0.055-0.07,0.076-0.137,0.069  c-0.422-0.157-1.04,0.065-1.741,0.618C42.673,40.934,41.443,42.877,41.478,43.867z M39.421,44.891  c0.036,0.055,0.081,0.101,0.124,0.147c-0.003,0.011,0,0.024-0.006,0.032l-0.155,0.023c-0.766-0.565-2.43-0.767-3.733-0.767  c-0.731,0-1.437,0.062-2.041,0.179c-1.091,0.211-1.422,0.521-1.552,0.745c-0.021,0.048-0.065,0.065-0.099,0.065l-0.045-0.01  c-0.055-0.024-0.081-0.093-0.057-0.149c0.14-0.321,0.563-0.579,1.257-0.765c0.692-0.187,1.598-0.289,2.553-0.289  c1.57,0,2.99,0.284,3.712,0.729C39.393,44.852,39.408,44.87,39.421,44.891z M24.833,52.379c1.016,0,2.058-0.196,3.065-0.476  c-0.127,0.405-0.25,0.817-0.373,1.242c-0.547,1.891-1.171,4.026-2.622,6.143c-0.117,0.029-0.203,0.047-0.225,0.059  c-0.001-0.001-0.096-0.068-0.26-0.329c-0.681-1.875-1.198-4.553-1.528-6.905C23.533,52.305,24.198,52.379,24.833,52.379z   M26.385,60.234c-0.253-0.032-0.37-0.071-0.379-0.076c-0.01-0.02-0.035-0.082-0.06-0.196c0.554-0.811,0.999-1.618,1.36-2.409  c-0.077,0.67-0.027,1.409,0.26,2.172C27.142,59.894,26.748,60.064,26.385,60.234z M46.207,43.822  c-0.042-0.202-0.082-0.405-0.12-0.61c0.987-0.044,2.321-0.283,3.785-0.703c0.013,0.164,0.02,0.334,0.037,0.493  C48.563,43.195,47.276,43.483,46.207,43.822z M40.798,68.58c-1.624,1.096-2.727,2.91-2.952,4.853  c-0.172,1.488-1.28,2.919-3.294,4.254c-1.533,1.029-2.923,1.551-4.132,1.551c-0.416,0-0.817-0.063-1.192-0.186  c-1.951-0.641-4.11-0.458-5.898,0.503c-1.246,0.669-2.988,0.662-5.153-0.02c-1.578-0.488-2.771-1.144-3.547-1.951  c-0.587-0.61-1.209-1.082-1.85-1.403c-0.847-0.425-1.721-1.125-2.599-2.081c-1.662-1.788-2.402-3.455-2.199-4.955  c0.288-2.126-0.231-4.119-1.461-5.61c-0.931-1.126-1.227-2.877-0.88-5.206c0.34-2.381,1.151-3.992,2.413-4.79  c1.439-0.91,2.479-2.409,2.928-4.222c0.342-1.379,1.514-2.66,3.485-3.806c1.479-0.872,2.812-1.314,3.961-1.314  c0.191,0,0.379,0.012,0.562,0.037c0.008,0.361,0.027,0.734,0.06,1.122c0.025,3.388,1.103,5.206,2.514,6.139  c0.336,2.657,0.925,5.767,1.638,7.798c-0.149,0.466-0.269,0.633-0.265,0.644c-0.006,0.001-0.021,0.003-0.034,0.005l-1.017-0.455  c-2.616-1.163-3.699-1.644-4.896-3.503c-1.585-2.463-4.13-3.128-4.237-3.155c-0.33-0.083-0.668,0.117-0.752,0.449  c-0.085,0.332,0.116,0.669,0.447,0.755c0.022,0.006,2.187,0.585,3.499,2.623c1.397,2.171,2.747,2.771,5.435,3.966l0.669,0.299  c-0.098,0.109-0.261,0.263-0.519,0.462c-3.825,0.366-5.576,1.495-6.733,2.25c-0.17,0.111-0.327,0.213-0.476,0.303  c-0.885,0.53-3.341,1.238-4.213,1.466c-0.332,0.086-0.53,0.426-0.443,0.758c0.073,0.279,0.325,0.464,0.6,0.464  c0.052,0,0.105-0.006,0.158-0.021c0.135-0.035,3.319-0.872,4.537-1.602c0.162-0.097,0.332-0.208,0.516-0.328  c1.068-0.697,2.682-1.746,6.299-2.07c0.299,0.028,0.482,0.068,0.58,0.096c-3.046,1.835-4.637,3.397-5.094,5.018  c-0.342,1.21-2.349,3.748-3.093,4.624c-0.222,0.261-0.19,0.653,0.071,0.875c0.117,0.099,0.26,0.148,0.402,0.148  c0.176,0,0.351-0.074,0.474-0.219c0.292-0.343,2.866-3.401,3.342-5.091c0.372-1.317,1.896-2.729,4.765-4.429  c0.098,0.098,0.282,0.329,0.537,0.82c-0.429,2.669-0.566,4.47,0.771,6.419c1.181,1.723,2.42,4.461,2.485,4.857  c-0.023,0.342,0.236,0.638,0.578,0.661c0.014,0.001,0.028,0.001,0.042,0.001c0.324,0,0.597-0.251,0.619-0.58  c0.048-0.72-1.593-4.028-2.7-5.643c-1.072-1.564-0.991-2.94-0.543-5.691c0.127-0.514,0.246-0.683,0.243-0.695  c0.055-0.015,0.556-0.026,1.165,0.1c1.206,0.762,2.094,0.997,3.298,1.301c0.651,0.165,1.388,0.352,2.363,0.664  c2.746,0.88,4.765,2.484,4.785,2.5c0.115,0.092,0.252,0.137,0.389,0.137c0.182,0,0.362-0.079,0.484-0.232  c0.215-0.267,0.172-0.658-0.095-0.873c-0.089-0.071-2.21-1.762-5.185-2.715c-1.011-0.324-1.802-0.524-2.437-0.685  c-1.187-0.3-1.918-0.491-2.978-1.168c-0.004-0.004-0.006-0.01-0.011-0.013c-0.526-0.643-0.591-0.921-0.603-0.923  c0.012-0.03,0.096-0.187,0.409-0.479c0.395-0.187,0.84-0.376,1.317-0.563c0.999,1.438,2.985,2.879,6.679,4.024  c1.972,0.62,3.712,0.935,5.172,0.935c1.123,0,2.033-0.185,2.777-0.491C42.405,66.84,41.741,67.943,40.798,68.58z M54.097,57.097  c-3.405,0-6.92-3.507-8.746-6.766c-0.147-0.263-0.277-0.515-0.395-0.759c-0.041-0.085-0.073-0.164-0.111-0.247  c-0.071-0.155-0.14-0.309-0.199-0.456c-0.038-0.095-0.069-0.184-0.103-0.275c-0.046-0.125-0.091-0.249-0.128-0.367  c-0.03-0.095-0.055-0.186-0.08-0.276c-0.028-0.103-0.054-0.203-0.076-0.3c-0.021-0.093-0.039-0.182-0.053-0.27  c-0.014-0.083-0.025-0.162-0.034-0.239c-0.01-0.088-0.02-0.175-0.024-0.257c-0.003-0.063-0.002-0.122-0.001-0.181  c0.001-0.084,0.001-0.167,0.009-0.243c0.004-0.042,0.013-0.078,0.019-0.117c0.013-0.081,0.025-0.162,0.046-0.232l0,0l0,0  c0.138,0.033,0.271,0.072,0.396,0.116c0.005,0.002,0.009,0.004,0.013,0.005c0.118,0.043,0.232,0.089,0.336,0.141  c0.031,0.016,0.058,0.034,0.088,0.05c0.077,0.042,0.155,0.084,0.222,0.131c0.098,0.069,0.188,0.142,0.266,0.222  c0.21,0.217,0.493,0.336,0.796,0.336c0.292,0,0.567-0.112,0.775-0.315c0.213-0.208,0.332-0.485,0.336-0.782  s-0.108-0.577-0.315-0.789c-0.166-0.17-0.352-0.323-0.551-0.465c0,0,0,0,0,0c0.419-0.131,0.883-0.259,1.386-0.378  c0.038-0.009,0.079-0.017,0.118-0.026c0.202-0.047,0.409-0.092,0.622-0.135c0.078-0.016,0.159-0.031,0.238-0.046  c0.18-0.035,0.361-0.068,0.547-0.099c0.098-0.016,0.196-0.032,0.296-0.048c0.09-0.014,0.176-0.03,0.267-0.043  c0,0.001,0,0.003,0.001,0.004c0.088-0.013,0.175-0.026,0.264-0.038c0.108-0.014,0.216-0.029,0.326-0.042  c0.132-0.016,0.267-0.029,0.401-0.043c0-0.001,0-0.001,0-0.001c0.049-0.006,0.098-0.01,0.147-0.014  c0.109-0.011,0.217-0.022,0.327-0.031c0.201-0.017,0.404-0.029,0.608-0.04c0.096-0.005,0.191-0.013,0.287-0.017  c0.301-0.013,0.604-0.021,0.908-0.021c2.348,0,5.43,0.414,6.786,2.383c0.917,1.333,0.911,3.243-0.009,5.654  C58.545,55.308,56.524,57.097,54.097,57.097z M92.877,46.243c-1.547,1.472-2.388,3.559-2.367,5.875  c0.016,1.674-0.975,3.446-2.944,5.269c-2.03,1.9-3.959,2.758-5.674,2.559c-2.227-0.261-4.525,0.493-6.145,1.987  c-1.272,1.173-3.335,1.598-6.119,1.25c-2.874-0.341-4.81-1.29-5.752-2.822c-1.246-2.026-3.2-3.419-5.502-3.924  c-0.06-0.013-0.12-0.037-0.18-0.053c0.983-0.904,1.959-2.245,2.833-4.225c1.055-2.761,1.023-4.981-0.092-6.601  c-0.471-0.685-1.111-1.195-1.83-1.596c1.328-0.325,2.734-0.757,3.502-1.265c1.337-0.885,3.772-0.972,7.624-0.289  c0.022,0.141,0.033,0.5-0.138,1.234c-2.352,1.981-3.813,3.385-4.094,6.103c-0.243,2.366-1.213,5.731-1.455,6.111  c-0.24,0.245-0.236,0.638,0.008,0.878c0.121,0.119,0.278,0.178,0.436,0.178c0.161,0,0.321-0.062,0.443-0.186  c0.557-0.566,1.581-4.691,1.805-6.854c0.225-2.186,1.331-3.327,3.794-5.395c0.568-0.403,0.805-0.432,0.805-0.437  c0.027,0.009,0.345,0.131,1.007,0.988c0.49,1.573,1.097,2.428,1.931,3.593c0.449,0.629,0.959,1.342,1.584,2.341  c1.767,2.825,2.348,5.736,2.354,5.765c0.058,0.297,0.317,0.503,0.608,0.503c0.039,0,0.079-0.004,0.119-0.012  c0.337-0.065,0.557-0.391,0.491-0.727c-0.024-0.128-0.625-3.159-2.52-6.187c-0.646-1.032-1.189-1.793-1.627-2.405  c-0.825-1.154-1.33-1.866-1.761-3.26c0.015-1.076,0.196-1.358,0.19-1.361c0.018-0.011,0.206-0.107,0.784-0.128  c3.702,1.003,10.015,4.067,11.032,4.595c0.092,0.047,0.189,0.07,0.285,0.07c0.225,0,0.441-0.122,0.553-0.335  c0.157-0.304,0.038-0.679-0.266-0.837c-1.089-0.565-7.333-3.601-11.195-4.667c-0.258-0.283-0.321-0.43-0.326-0.431  c0.003-0.018,0.022-0.108,0.121-0.287c3.056-0.807,5.291-2.256,7.265-3.543c1.265-0.825,2.356-1.537,3.446-1.931  c0.322-0.117,0.489-0.473,0.373-0.795c-0.117-0.323-0.476-0.49-0.795-0.373c-1.226,0.443-2.429,1.228-3.703,2.059  c-1.901,1.24-4.056,2.638-6.938,3.393c-0.236-0.115-0.321-0.193-0.325-0.193c-0.007-0.022-0.038-0.167,0.015-0.521  c1.625-4.356,6.498-11.318,7.227-11.808c0.315-0.135,0.462-0.5,0.327-0.815c-0.135-0.316-0.5-0.462-0.815-0.327  c-1.115,0.476-6.162,7.996-7.843,12.366c-0.582,0.359-0.826,0.383-0.812,0.388c-0.003-0.001-0.038-0.021-0.089-0.055l-0.563-1.17  c-1.44-2.975-2.036-4.206-1.701-6.734c0.437-3.282-1.283-5.727-1.356-5.83c-0.198-0.277-0.582-0.342-0.865-0.143  c-0.278,0.198-0.344,0.586-0.146,0.865c0.016,0.021,1.506,2.164,1.137,4.944c-0.385,2.898,0.35,4.416,1.814,7.439l0.413,0.858  c-0.122,0.024-0.3,0.046-0.581,0.046c-0.118,0-0.252-0.008-0.384-0.015c-3.623-2.534-5.991-2.857-7.563-3.064  c-0.233-0.031-0.449-0.059-0.648-0.093c-0.563-0.096-1.466-0.423-2.361-0.788c0.606-2.173-0.343-4.398-2.904-6.652  c-0.317-0.222-0.631-0.42-0.944-0.607c0.479-1.126,1.383-2.272,2.719-3.426c1.834-1.603,3.553-2.416,5.109-2.416  c0.217,0,0.428,0.016,0.635,0.046c1.919,0.281,3.934-0.242,5.658-1.464c1.34-0.95,3.353-1.192,5.951-0.714  c2.628,0.468,4.432,1.407,5.361,2.791c1.188,1.768,3.177,3.015,5.456,3.42c1.761,0.313,3.354,1.74,4.736,4.243  c0.696,1.24,1.141,2.396,1.322,3.436c0.145,0.836,0.392,1.622,0.733,2.338c0.478,1.001,0.776,2.275,0.89,3.787  C94.674,43.004,94.146,45.037,92.877,46.243z"></path></svg>
