<svg fill="#baa48a" xmlns="http://www.w3.org/2000/svg" xmlns:xlink="http://www.w3.org/1999/xlink" version="1.1" x="0px" y="0px" viewBox="0 0 100 100" enable-background="new 0 0 100 100" xml:space="preserve"><path d="M12.709,89.697c-3.258,0-5.949-2.468-6.307-5.631h58.982c0.213,2.32,1.45,4.35,3.255,5.631H12.709z"></path><path d="M73.129,89.697c-3.499,0-6.346-2.848-6.346-6.346v-0.716H20.484V16.648c0-3.499,2.848-6.346,6.346-6.346h55.941  c-1.99,1.409-3.297,3.726-3.297,6.346v66.703C79.475,86.85,76.628,89.697,73.129,89.697z"></path><path d="M80.905,22.995v-2.86h1.392c0.16,1.115,0.69,2.108,1.46,2.86H80.905z"></path><path d="M87.251,22.995c-1.972,0-3.575-1.604-3.575-3.575v-0.715h-2.771v-2.056c0-3.499,2.847-6.346,6.346-6.346  s6.346,2.847,6.346,6.346C93.597,20.147,90.75,22.995,87.251,22.995z"></path></svg>
