<svg fill="#000088" xmlns="http://www.w3.org/2000/svg" xmlns:xlink="http://www.w3.org/1999/xlink" xmlns:sketch="http://www.bohemiancoding.com/sketch/ns" viewBox="0 0 60 60" version="1.1" x="0px" y="0px"><g stroke="none" stroke-width="1" fill="none" fill-rule="evenodd" sketch:type="MSPage"><g sketch:type="MSLayerGroup" fill="#000088"><path d="M60,30 L60,24 L57.975,24 C57.857,21.094 57.227,18.275 56.088,15.606 C55.871,15.098 55.285,14.86 54.776,15.078 C54.268,15.295 54.032,15.883 54.249,16.391 C55.281,18.811 55.861,21.365 55.978,24 L46.155,24 L50.314,19.842 C50.618,19.623 50.911,19.386 51.18,19.117 C52.875,17.423 53.592,14.981 53.201,12.242 C52.825,9.609 51.457,6.999 49.35,4.892 C46.836,2.379 43.641,0.938 40.582,0.938 C38.4,0.938 36.513,1.672 35.124,3.062 C33.429,4.756 32.711,7.197 33.102,9.937 C33.479,12.569 34.847,15.18 36.954,17.287 C39.467,19.8 42.663,21.241 45.722,21.241 C45.851,21.241 45.975,21.23 46.102,21.225 L43.327,24 L32,24 L32,3 L33,3 C33.552,3 34,2.553 34,2 C34,1.447 33.552,1 33,1 L26,1 C13.102,1 2.552,11.229 2.025,24 L0,24 L0,30 L2,30 L2,56 L0,56 L0,61 L60,61 L60,56 L58,56 L58,30 L60,30 L60,30 Z M40.489,13.751 C39.161,12.424 38.273,10.775 38.052,9.23 C37.889,8.086 38.105,7.151 38.659,6.597 C39.096,6.159 39.743,5.938 40.582,5.938 C41.226,5.938 43.504,6.117 45.815,8.428 C47.143,9.755 48.031,11.403 48.252,12.949 C48.415,14.093 48.199,15.027 47.645,15.582 C47.207,16.02 46.56,16.241 45.722,16.241 C45.078,16.241 42.8,16.062 40.489,13.751 L40.489,13.751 Z M6.446,20.79 C8.414,11.641 16.637,5 26,5 L27,5 C27.552,5 28,5.447 28,6 C28,6.553 27.552,7 27,7 L26,7 C17.573,7 10.172,12.977 8.401,21.21 C8.301,21.68 7.886,22 7.425,22 C7.355,22 7.285,21.993 7.213,21.978 C6.674,21.861 6.33,21.33 6.446,20.79 L6.446,20.79 Z M47,54 C47,54.552 46.552,55 46,55 C45.448,55 45,54.552 45,54 C45,53.448 45.448,53 46,53 C46.552,53 47,53.448 47,54 L47,54 Z M46,33 C46,33.553 45.552,34 45,34 C44.448,34 44,33.553 44,33 L44,30 L46,30 L46,33 L46,33 Z M43,54 C43,54.552 42.552,55 42,55 C41.448,55 41,54.552 41,54 C41,53.448 41.448,53 42,53 C42.552,53 43,53.448 43,54 L43,54 Z M35,54 C35,54.552 34.552,55 34,55 C33.448,55 33,54.552 33,54 C33,53.448 33.448,53 34,53 C34.552,53 35,53.448 35,54 L35,54 Z M34,33 C34,33.553 33.552,34 33,34 C32.448,34 32,33.553 32,33 L32,30 L34,30 L34,33 L34,33 Z M31,54 C31,54.552 30.552,55 30,55 C29.448,55 29,54.552 29,54 C29,53.448 29.448,53 30,53 C30.552,53 31,53.448 31,54 L31,54 Z M14,30 L16,30 L16,33 C16,33.553 15.552,34 15,34 C14.448,34 14,33.553 14,33 L14,30 L14,30 Z M20,30 L22,30 L22,33 C22,33.553 21.552,34 21,34 C20.448,34 20,33.553 20,33 L20,30 L20,30 Z M26,30 L28,30 L28,33 C28,33.553 27.552,34 27,34 C26.448,34 26,33.553 26,33 L26,30 L26,30 Z M38,53 C38.552,53 39,53.448 39,54 C39,54.552 38.552,55 38,55 C37.448,55 37,54.552 37,54 C37,53.448 37.448,53 38,53 L38,53 Z M38,33 L38,30 L40,30 L40,33 C40,33.553 39.552,34 39,34 C38.448,34 38,33.553 38,33 L38,33 Z M10,30 L10,33 C10,33.553 9.552,34 9,34 C8.448,34 8,33.553 8,33 L8,30 L10,30 L10,30 Z M5,45 L10,45 L10,52 L5,52 L5,45 Z M2,58 L58,58 L58,59 L2,59 L2,58 Z M25,56 L25,42 L19,42 L19,56 L17,56 L17,42 L13,42 L13,56 L11,56 L11,40 L27,40 L27,56 L25,56 L25,56 Z M52,52 L52,38 C52,37.447 52.448,37 53,37 C53.552,37 54,37.447 54,38 L54,52 C54,52.553 53.552,53 53,53 C52.448,53 52,52.553 52,52 L52,52 Z M52,33 C52,33.553 51.552,34 51,34 C50.448,34 50,33.553 50,33 L50,30 L52,30 L52,33 L52,33 Z" sketch:type="MSShapeGroup"/><path d="M38.96,23.356 C39.074,23.398 39.19,23.417 39.304,23.417 C39.711,23.417 40.095,23.166 40.243,22.76 C40.433,22.241 40.166,21.667 39.647,21.478 C38.329,20.996 37.084,20.192 36.042,19.15 C35.907,19.016 35.781,18.874 35.654,18.732 L35.634,18.71 C35.265,18.298 34.644,18.273 34.232,18.644 C33.821,19.012 33.796,19.655 34.164,20.066 C34.316,20.236 34.47,20.407 34.63,20.566 C35.873,21.811 37.371,22.775 38.96,23.356" sketch:type="MSShapeGroup"/></g></g></svg>