<svg fill="#1f1e1d" xmlns="http://www.w3.org/2000/svg" viewBox="0 0 60 60" x="0px" y="0px"><title>Weaponary - Solid - 056 - Hammer</title><g><path d="M25,6.62s0,0,0,0a4.37,4.37,0,0,1,.37-.48,4.47,4.47,0,0,1,.42-.45L26,5.53c.16-.14.32-.27.5-.4l0,0,0,0a6.54,6.54,0,0,1,.56-.35,5.53,5.53,0,0,1,.55-.26l.12,0a4.2,4.2,0,0,1,.5-.17,5.09,5.09,0,0,1,.56-.14l.14,0A3.45,3.45,0,0,1,29.55,4L30,4l.45,0a3.45,3.45,0,0,1,.55.07l.14,0a5.09,5.09,0,0,1,.56.14,4.2,4.2,0,0,1,.5.17l.12,0a5.53,5.53,0,0,1,.55.26,6.54,6.54,0,0,1,.56.35l0,0,0,0,.34.28.05,0a.39.39,0,0,1,.1.08,1.8,1.8,0,0,1,.2.19,3.12,3.12,0,0,1,.31.32l.1.12q.16.2.3.39l0,0a1.14,1.14,0,0,1,.1.13L44,2H16L25,6.71Z"></path><path d="M17.81,15.8l6.65-3.51a0,0,0,0,1,0,0,4.6,4.6,0,0,1-.19-.52,5.26,5.26,0,0,1-.14-.57,4,4,0,0,1-.08-.5.76.76,0,0,1,0-.15A4.53,4.53,0,0,1,24,10a5.82,5.82,0,0,1,0-.59,2.34,2.34,0,0,1,0-.37.28.28,0,0,1,0-.09,1.88,1.88,0,0,1,0-.23,1,1,0,0,1,0-.17L12.36,2.33,9,6.89v7.22l3.36,4.56,5-2.61Z"></path><path d="M35,41v1H25V41a3,3,0,0,1,2-2.82V19H16l2.52-1.33,7-3.67a6,6,0,0,0,1.07.94l.4.25V12.62a4.7,4.7,0,0,1-.35-.43,0,0,0,0,1,0,0,0,0,0,0,0,0,0A4.06,4.06,0,0,1,26,10a4.11,4.11,0,0,1,.3-1.55s0,0,0,0A4,4,0,0,1,30,6l.45,0a3.22,3.22,0,0,1,.43.07,2.58,2.58,0,0,1,.42.12l.41.16a4.12,4.12,0,0,1,1,.64,3.5,3.5,0,0,1,.38.39.39.39,0,0,1,.08.1,1.17,1.17,0,0,1,.21.3.57.57,0,0,1,.11.16,4,4,0,0,1,.24.46s0,0,0,0A4.19,4.19,0,0,1,34,10a4,4,0,0,1-.63,2.17s0,0,0,0a3,3,0,0,1-.35.45v2.55l.4-.25c.13-.09.26-.18.38-.28l.3-.26.39-.4,7,3.67L44,19H33V38.18A3,3,0,0,1,35,41Z"></path><path d="M47.64,2.33,35.83,8.55l0,.15a.06.06,0,0,1,0,0c0,.07,0,.14,0,.21a.28.28,0,0,1,0,.09,2.34,2.34,0,0,1,0,.37A5.82,5.82,0,0,1,36,10a4.53,4.53,0,0,1,0,.52.76.76,0,0,1,0,.15,4,4,0,0,1-.08.5,5.26,5.26,0,0,1-.14.57c0,.16-.11.32-.17.48l0,.07,6.65,3.51.5.26,5,2.61L51,14.11V6.89ZM49,13a1,1,0,0,1-2,0V8a1,1,0,1,1,2,0Z"></path><path d="M35,56v1a3,3,0,0,1-3,3H28a3,3,0,0,1-3-3V56Z"></path><rect x="25" y="52" width="10" height="2"></rect><rect x="25" y="48" width="10" height="2"></rect><rect x="25" y="44" width="10" height="2"></rect></g></svg>