<svg fill="#1f1e1d" xmlns="http://www.w3.org/2000/svg" xmlns:xlink="http://www.w3.org/1999/xlink" viewBox="0 0 22 24" version="1.1" x="0px" y="0px"><title>65 -Woman Necklace- (Solid)</title><desc>Created with Sketch.</desc><g stroke="none" stroke-width="1" fill="none" fill-rule="evenodd"><g fill="#1f1e1d"><path d="M20.9211,2.4956 C20.9541,2.4956 20.9871,2.4946 21.0221,2.4906 C21.5701,2.4356 21.9721,1.9456 21.9171,1.3966 C21.9001,1.2156 21.8771,1.0376 21.8521,0.8586 C21.7741,0.3116 21.2671,-0.0664 20.7211,0.0096 C20.1741,0.0876 19.7931,0.5936 19.8711,1.1406 C19.8931,1.2906 19.9111,1.4426 19.9271,1.5946 C19.9791,2.1106 20.4131,2.4956 20.9211,2.4956"></path><path d="M21.0071,3.9219 C20.4591,3.8509 19.9561,4.2329 19.8831,4.7799 C19.8481,5.0439 19.8061,5.3039 19.7541,5.5609 C19.6461,6.1019 19.9961,6.6289 20.5381,6.7369 C20.6051,6.7509 20.6701,6.7569 20.7361,6.7569 C21.2021,6.7569 21.6201,6.4289 21.7151,5.9529 C21.7751,5.6539 21.8241,5.3519 21.8651,5.0459 C21.9391,4.4979 21.5541,3.9949 21.0071,3.9219"></path><path d="M20.0979,8.0957 C19.6019,7.8557 19.0029,8.0647 18.7629,8.5607 C18.6479,8.7997 18.5249,9.0327 18.3959,9.2597 C18.1229,9.7407 18.2919,10.3507 18.7729,10.6227 C18.9279,10.7117 19.0979,10.7537 19.2649,10.7537 C19.6139,10.7537 19.9519,10.5717 20.1359,10.2467 C20.2859,9.9817 20.4289,9.7097 20.5639,9.4307 C20.8039,8.9337 20.5959,8.3357 20.0979,8.0957"></path><path d="M2.2493,5.5752 C2.1983,5.3182 2.1543,5.0562 2.1193,4.7922 C2.0463,4.2452 1.5453,3.8612 0.9953,3.9342 C0.4483,4.0072 0.0633,4.5102 0.1373,5.0582 C0.1783,5.3632 0.2283,5.6642 0.2863,5.9622 C0.3813,6.4382 0.7993,6.7682 1.2673,6.7682 C1.3313,6.7682 1.3953,6.7622 1.4613,6.7492 C2.0033,6.6432 2.3553,6.1172 2.2493,5.5752"></path><path d="M8.1799,15.5698 C8.4839,15.6648 8.7929,15.7448 9.1069,15.8088 C9.1749,15.8228 9.2419,15.8288 9.3079,15.8288 C9.7739,15.8288 10.1899,15.5028 10.2859,15.0288 C10.3969,14.4878 10.0479,13.9598 9.5069,13.8488 C9.2599,13.7988 9.0169,13.7368 8.7799,13.6618 C8.2479,13.4938 7.6899,13.7888 7.5259,14.3158 C7.3609,14.8428 7.6539,15.4038 8.1799,15.5698"></path><path d="M12.7024,15.8271 C12.7684,15.8271 12.8374,15.8211 12.9054,15.8061 C13.2174,15.7421 13.5254,15.6621 13.8294,15.5671 C14.3564,15.4021 14.6494,14.8411 14.4844,14.3141 C14.3194,13.7861 13.7614,13.4941 13.2314,13.6581 C12.9924,13.7331 12.7484,13.7971 12.5014,13.8481 C11.9604,13.9591 11.6124,14.4881 11.7234,15.0291 C11.8214,15.5021 12.2374,15.8271 12.7024,15.8271"></path><path d="M3.2424,8.5713 C3.0024,8.0753 2.4074,7.8643 1.9064,8.1073 C1.4094,8.3473 1.2014,8.9453 1.4414,9.4423 C1.5764,9.7203 1.7194,9.9923 1.8694,10.2573 C2.0544,10.5813 2.3914,10.7633 2.7404,10.7633 C2.9074,10.7633 3.0774,10.7213 3.2324,10.6333 C3.7134,10.3613 3.8824,9.7503 3.6094,9.2703 C3.4804,9.0433 3.3574,8.8093 3.2424,8.5713"></path><path d="M5.5217,11.7222 C5.1197,11.3452 4.4877,11.3612 4.1077,11.7642 C3.7297,12.1672 3.7487,12.8002 4.1507,13.1782 C4.3797,13.3942 4.6177,13.5992 4.8607,13.7922 C5.0437,13.9392 5.2637,14.0102 5.4817,14.0102 C5.7767,14.0102 6.0677,13.8802 6.2657,13.6322 C6.6087,13.2002 6.5377,12.5712 6.1047,12.2272 C5.9047,12.0682 5.7097,11.9002 5.5217,11.7222"></path><path d="M16.4866,11.7139 C16.2986,11.8919 16.1026,12.0609 15.9026,12.2209 C15.4696,12.5649 15.3996,13.1939 15.7436,13.6259 C15.9416,13.8739 16.2326,14.0029 16.5266,14.0029 C16.7446,14.0029 16.9656,13.9309 17.1486,13.7839 C17.3916,13.5909 17.6286,13.3859 17.8576,13.1699 C18.2596,12.7919 18.2786,12.1589 17.9006,11.7559 C17.5206,11.3539 16.8876,11.3359 16.4866,11.7139"></path><path d="M0.9788,2.4907 C1.0128,2.4937 1.0458,2.4957 1.0798,2.4957 C1.5868,2.4957 2.0218,2.1107 2.0738,1.5947 C2.0888,1.4427 2.1078,1.2907 2.1288,1.1407 C2.2078,0.5937 1.8268,0.0877 1.2798,0.0097 C0.7318,-0.0623 0.2268,0.3117 0.1488,0.8587 C0.1238,1.0367 0.1008,1.2157 0.0828,1.3967 C0.0288,1.9457 0.4298,2.4357 0.9788,2.4907"></path><path d="M11.0002,16 C8.7942,16 7.0002,17.794 7.0002,20 C7.0002,22.206 8.7942,24 11.0002,24 C13.2062,24 15.0002,22.206 15.0002,20 C15.0002,17.794 13.2062,16 11.0002,16"></path></g></g></svg>
