<svg fill="#51A7F9" xmlns="http://www.w3.org/2000/svg" xmlns:xlink="http://www.w3.org/1999/xlink" viewBox="0 0 28 60" version="1.1" x="0px" y="0px"><title>68 -Stylish Pants- (Solid)</title><desc>Created with Sketch.</desc><g stroke="none" stroke-width="1" fill="none" fill-rule="evenodd"><g transform="translate(-975.000000, -1070.000000)" fill="#51A7F9"><g transform="translate(975.000000, 1069.000000)"><path d="M17.4474,17.8909 C17.0784,18.0759 15.1764,18.9959 14.0004,18.9959 C12.8234,18.9959 10.9224,18.0759 10.5524,17.8909 C10.0584,17.6439 9.8584,17.0429 10.1054,16.5489 C10.3514,16.0559 10.9534,15.8559 11.4474,16.1019 C12.1704,16.4619 13.4814,16.9959 14.0004,16.9959 C14.5214,16.9959 15.8314,16.4619 16.5524,16.1019 C17.0464,15.8559 17.6474,16.0549 17.8944,16.5489 C18.1414,17.0429 17.9414,17.6439 17.4474,17.8909 L17.4474,17.8909 Z M4.0004,3.9959 L10.1304,3.9959 C10.1204,4.0309 10.1174,4.0669 10.1094,4.1019 C10.0944,4.1669 10.0824,4.2319 10.0704,4.2979 C10.0294,4.5269 10.0004,4.7599 10.0004,4.9959 C10.0004,5.2329 10.0294,5.4649 10.0704,5.6949 C10.0824,5.7609 10.0944,5.8259 10.1094,5.8909 C10.1174,5.9259 10.1204,5.9619 10.1304,5.9959 L4.0004,5.9959 L4.0004,3.9959 Z M15.4664,3.6469 C15.4714,3.6519 15.4734,3.6599 15.4784,3.6649 C15.6454,3.8509 15.7744,4.0609 15.8634,4.2849 C15.8684,4.2979 15.8714,4.3129 15.8764,4.3259 C15.9124,4.4239 15.9424,4.5229 15.9624,4.6249 C15.9854,4.7449 16.0004,4.8689 16.0004,4.9959 C16.0004,5.1239 15.9854,5.2469 15.9624,5.3679 C15.9424,5.4699 15.9124,5.5689 15.8764,5.6669 C15.8714,5.6799 15.8684,5.6949 15.8634,5.7079 C15.7744,5.9319 15.6454,6.1419 15.4784,6.3279 C14.7014,7.1909 13.3004,7.1899 12.5214,6.3269 C12.3544,6.1409 12.2254,5.9319 12.1374,5.7079 C12.1324,5.6949 12.1294,5.6799 12.1244,5.6669 C12.0884,5.5689 12.0574,5.4699 12.0374,5.3679 C12.0144,5.2469 12.0004,5.1239 12.0004,4.9959 C12.0004,4.8689 12.0144,4.7449 12.0374,4.6249 C12.0574,4.5229 12.0884,4.4239 12.1244,4.3259 C12.1294,4.3129 12.1324,4.2979 12.1374,4.2849 C12.2254,4.0609 12.3544,3.8509 12.5214,3.6649 C12.5264,3.6599 12.5294,3.6519 12.5344,3.6469 C12.9004,3.2499 13.4194,2.9959 14.0004,2.9959 C14.5814,2.9959 15.1004,3.2499 15.4664,3.6469 L15.4664,3.6469 Z M24.0004,3.9959 L24.0004,5.9959 L17.8704,5.9959 C17.8794,5.9619 17.8824,5.9259 17.8914,5.8909 C17.9054,5.8259 17.9174,5.7609 17.9294,5.6949 C17.9714,5.4649 18.0004,5.2329 18.0004,4.9959 C18.0004,4.7599 17.9714,4.5269 17.9294,4.2979 C17.9174,4.2319 17.9054,4.1669 17.8914,4.1019 C17.8824,4.0669 17.8794,4.0309 17.8704,3.9959 L24.0004,3.9959 Z M26.6874,14.2889 C26.3034,12.1759 26.0004,10.5059 26.0004,8.9959 L26.0004,6.9959 L26.0004,2.9959 C26.0004,2.4439 25.5524,1.9959 25.0004,1.9959 L16.6184,1.9959 C15.9144,1.3819 15.0054,0.9959 14.0004,0.9959 C12.9944,0.9959 12.0854,1.3819 11.3824,1.9959 L3.0004,1.9959 C2.4474,1.9959 2.0004,2.4439 2.0004,2.9959 L2.0004,6.9959 L2.0004,8.9959 C2.0004,10.5059 1.6964,12.1759 1.3124,14.2889 C0.7274,17.5049 0.0004,21.5059 0.0004,26.9959 C0.0004,35.9139 0.9914,59.7979 1.0014,60.0379 C1.0234,60.5739 1.4644,60.9959 2.0004,60.9959 L4.0004,60.9959 L4.0004,59.9959 C4.0004,58.2259 4.1854,56.3129 4.4014,54.0979 C4.6814,51.2089 5.0004,47.9349 5.0004,43.9959 C5.0004,43.4439 5.4474,42.9959 6.0004,42.9959 C6.5524,42.9959 7.0004,43.4439 7.0004,43.9959 C7.0004,48.0319 6.6764,51.3569 6.3914,54.2909 C6.1814,56.4539 6.0004,58.3229 6.0004,59.9959 L6.0004,60.9959 L9.0004,60.9959 C9.5524,60.9959 10.0004,60.5489 10.0004,59.9959 C10.0004,59.1539 10.6444,53.4749 11.2674,47.9829 C12.1194,40.4709 13.0004,32.7039 13.0004,30.9959 C13.0004,29.5459 13.5024,26.3129 14.0004,23.4579 C14.4984,26.3129 15.0004,29.5459 15.0004,30.9959 C15.0004,32.7039 15.8814,40.4709 16.7324,47.9829 C17.3554,53.4749 18.0004,59.1539 18.0004,59.9959 C18.0004,60.5489 18.4474,60.9959 19.0004,60.9959 L22.0004,60.9959 L22.0004,59.9959 C22.0004,58.3229 21.8184,56.4539 21.6084,54.2909 C21.3234,51.3569 21.0004,48.0319 21.0004,43.9959 C21.0004,43.4439 21.4474,42.9959 22.0004,42.9959 C22.5524,42.9959 23.0004,43.4439 23.0004,43.9959 C23.0004,47.9349 23.3184,51.2089 23.5984,54.0979 C23.8144,56.3129 24.0004,58.2259 24.0004,59.9959 L24.0004,60.9959 L26.0004,60.9959 C26.5364,60.9959 26.9764,60.5739 26.9994,60.0379 C27.0094,59.7979 28.0004,35.9139 28.0004,26.9959 C28.0004,21.5059 27.2724,17.5049 26.6874,14.2889 L26.6874,14.2889 Z"></path></g></g></g></svg>