<svg xmlns="http://www.w3.org/2000/svg" xmlns:xlink="http://www.w3.org/1999/xlink" version="1.1" x="0px" y="0px" viewBox="0 0 100 100" enable-background="new 0 0 100 100" xml:space="preserve"><g><path d="M50,61.8c-1.7,0-3.1,1.4-3.1,3.1S48.3,68,50,68c1.7,0,3.1-1.4,3.1-3.1S51.7,61.8,50,61.8z"></path><path d="M75.1,40.8h-3.7h-4H32.6V26.6C32.6,17,40.4,9.2,50,9.2c9.6,0,17.4,7.8,17.4,17.4v2c0,1.1,0.9,2,2,2s2-0.9,2-2v-2   c0-11.8-9.6-21.4-21.4-21.4s-21.4,9.6-21.4,21.4v14.2h-3.7c-3.7,0-6.6,3-6.6,6.6v40.9c0,3.7,3,6.6,6.6,6.6h50.2   c3.7,0,6.6-3,6.6-6.6V47.5C81.8,43.8,78.8,40.8,75.1,40.8z M52,71.7v6.5c0,0.7-0.9,1.3-2,1.3s-2-0.6-2-1.3v-6.5   c-3-0.9-5.1-3.6-5.1-6.8c0-3.9,3.2-7.1,7.1-7.1s7.1,3.2,7.1,7.1C57.1,68.1,55,70.8,52,71.7z"></path></g></svg>