<svg fill="#DE6A0F" xmlns="http://www.w3.org/2000/svg" xmlns:xlink="http://www.w3.org/1999/xlink" version="1.1" x="0px" y="0px" viewBox="0 0 100 100" enable-background="new 0 0 100 100" xml:space="preserve"><g><path fill="none" d="M63.596,78.337c-0.175-0.093-0.367-0.141-0.56-0.141c-0.118,0-0.235,0.017-0.351,0.053h0   c-0.306,0.093-0.557,0.3-0.707,0.582c-0.15,0.283-0.182,0.606-0.089,0.913c0.193,0.63,0.863,0.988,1.494,0.795   c0.631-0.192,0.988-0.863,0.795-1.494C64.085,78.739,63.878,78.487,63.596,78.337z"></path><path fill="none" d="M50.228,53.654c-0.256-0.136-0.536-0.206-0.818-0.206c-0.171,0-0.344,0.025-0.513,0.078   c-0.446,0.136-0.813,0.438-1.032,0.849c-0.219,0.412-0.265,0.885-0.129,1.331c0.281,0.921,1.259,1.444,2.181,1.16   c0.446-0.136,0.813-0.438,1.032-0.849c0.219-0.412,0.265-0.885,0.129-1.331C50.941,54.24,50.64,53.873,50.228,53.654z"></path><ellipse transform="matrix(0.9564 -0.2921 0.2921 0.9564 -9.3416 16.5851)" fill="none" cx="50.877" cy="39.58" rx="1.746" ry="1.747"></ellipse><ellipse transform="matrix(0.9564 -0.2921 0.2921 0.9564 -17.2279 23.2369)" fill="none" cx="69.213" cy="69.32" rx="1.747" ry="1.747"></ellipse><path fill="none" d="M57.058,50.382c0.191-0.058,0.348-0.188,0.442-0.364c0.094-0.177,0.114-0.379,0.055-0.571   s-0.188-0.349-0.365-0.442c-0.11-0.059-0.23-0.088-0.35-0.088c-0.074,0-0.148,0.011-0.22,0.033h0   c-0.191,0.058-0.348,0.188-0.442,0.364c-0.094,0.177-0.113,0.379-0.055,0.57C56.243,50.279,56.663,50.502,57.058,50.382z"></path><path fill="none" d="M43.377,30.369c-0.175-0.093-0.367-0.141-0.56-0.141c-0.118,0-0.235,0.017-0.351,0.053h0   c-0.306,0.093-0.557,0.3-0.707,0.582c-0.15,0.283-0.182,0.606-0.088,0.912c0.193,0.632,0.864,0.989,1.494,0.795   c0.631-0.192,0.988-0.863,0.795-1.494C43.867,30.77,43.66,30.518,43.377,30.369z"></path><path fill="none" d="M58.621,70.497c-0.11-0.059-0.23-0.089-0.351-0.089c-0.073,0-0.147,0.011-0.219,0.033   c-0.395,0.12-0.618,0.54-0.497,0.936c0.058,0.191,0.188,0.348,0.364,0.442c0.177,0.095,0.38,0.114,0.57,0.055   c0.192-0.058,0.349-0.188,0.443-0.364c0.094-0.177,0.114-0.379,0.055-0.571C58.927,70.748,58.797,70.591,58.621,70.497z"></path><ellipse transform="matrix(0.9565 -0.2917 0.2917 0.9565 -14.8876 20.2516)" fill="none" cx="60.48" cy="60.059" rx="1.197" ry="1.197"></ellipse><path fill="none" d="M91.278,12.736c-2.227-0.568-4.508-0.847-6.77-0.847c-5.214,0-10.328,1.48-14.467,4.297   c-5.751,3.914-9.754,10.934-10.709,18.777c-0.051,0.425,0.235,0.836,0.652,0.936c7.688,1.827,15.66,0.509,21.326-3.526   c5.848-4.163,9.813-11.161,10.607-18.72C91.96,13.242,91.679,12.839,91.278,12.736z M82.971,20.305l-9.959,7.377l4.336,1.285   c0.644,0.191,1.011,0.868,0.82,1.512c-0.157,0.528-0.641,0.87-1.165,0.87c-0.114,0-0.231-0.016-0.346-0.05l-6.091-1.806   l-2.001,1.482c-0.218,0.161-0.471,0.239-0.723,0.239c-0.372,0-0.739-0.17-0.978-0.492c-0.399-0.539-0.286-1.3,0.253-1.7   l14.406-10.671c0.54-0.401,1.301-0.287,1.701,0.253C83.623,19.144,83.51,19.905,82.971,20.305z"></path><path fill="none" d="M70.805,59.796c0.191-0.058,0.348-0.188,0.442-0.364c0.094-0.177,0.114-0.379,0.055-0.571   c-0.121-0.396-0.539-0.62-0.935-0.498c-0.395,0.121-0.618,0.541-0.497,0.935C69.991,59.693,70.409,59.917,70.805,59.796z"></path><ellipse transform="matrix(0.9564 -0.2922 0.2922 0.9564 -21.7556 20.2374)" fill="none" cx="56.872" cy="82.951" rx="0.749" ry="0.749"></ellipse><path fill="none" d="M59.42,38.264c-1.347-0.32-2.303-1.435-2.484-2.75c-0.082-0.005-0.164-0.011-0.247-0.032   c-6.279-1.676-11.557-5.781-14.118-10.977c-0.234-0.475-0.441-0.963-0.636-1.456c-3.119,0.084-6.224,0.586-9.243,1.507   C14.362,30.153,4.001,49.621,9.598,67.953c5.597,18.333,25.066,28.695,43.398,23.096c18.332-5.597,28.693-25.066,23.096-43.398   c-0.974-3.189-2.39-6.196-4.203-8.956c-1.657,0.28-3.353,0.438-5.077,0.438C64.365,39.134,61.878,38.848,59.42,38.264z    M41.629,39.963c-0.252,0.473-0.673,0.82-1.186,0.977c-0.194,0.059-0.392,0.089-0.589,0.089c-0.324,0-0.646-0.08-0.94-0.236   c-0.473-0.252-0.82-0.674-0.977-1.186c-0.157-0.514-0.104-1.057,0.148-1.53s0.673-0.82,1.186-0.977   c0.514-0.157,1.056-0.104,1.529,0.147c0.473,0.253,0.82,0.674,0.977,1.186C41.933,38.946,41.881,39.489,41.629,39.963z    M43.402,33.346c-0.195,0.059-0.391,0.087-0.585,0.087c-0.86,0-1.658-0.557-1.921-1.421c-0.157-0.513-0.104-1.057,0.148-1.53   c0.252-0.473,0.673-0.82,1.186-0.977c0.514-0.158,1.056-0.104,1.53,0.148c0.473,0.252,0.82,0.673,0.977,1.187   C45.058,31.897,44.459,33.022,43.402,33.346z M51.665,56.398c-0.321,0.603-0.858,1.045-1.511,1.244   c-0.247,0.075-0.499,0.112-0.75,0.112c-0.413,0-0.823-0.101-1.198-0.301c-0.603-0.321-1.045-0.857-1.244-1.511   c-0.199-0.653-0.133-1.345,0.188-1.948c0.321-0.603,0.857-1.045,1.511-1.244c0.654-0.199,1.345-0.132,1.948,0.188   c0.603,0.321,1.045,0.857,1.244,1.51C52.052,55.103,51.986,55.794,51.665,56.398z M51.624,42.026   c-0.247,0.075-0.498,0.112-0.745,0.112c-1.095,0-2.111-0.711-2.447-1.811c-0.412-1.348,0.35-2.781,1.699-3.193   c1.349-0.408,2.781,0.352,3.192,1.7C53.735,40.182,52.972,41.614,51.624,42.026z M55.462,48.933   c0.196-0.368,0.523-0.637,0.921-0.759c0.398-0.122,0.82-0.082,1.188,0.115c0.368,0.196,0.638,0.522,0.759,0.921   c0.122,0.398,0.081,0.82-0.114,1.188c-0.196,0.368-0.523,0.637-0.921,0.759c-0.151,0.046-0.304,0.068-0.454,0.068   c-0.668,0-1.288-0.433-1.492-1.105C55.226,49.722,55.266,49.301,55.462,48.933z M57.328,84.442   c-0.151,0.046-0.304,0.068-0.454,0.068c-0.668,0-1.288-0.433-1.493-1.104c-0.251-0.823,0.214-1.697,1.036-1.948   c0.822-0.251,1.696,0.214,1.947,1.037C58.614,83.316,58.15,84.19,57.328,84.442z M59.646,71.89   c-0.196,0.368-0.523,0.637-0.921,0.759c-0.151,0.046-0.305,0.069-0.458,0.069c-0.252,0-0.501-0.062-0.73-0.184   c-0.368-0.196-0.638-0.522-0.759-0.921c-0.251-0.822,0.214-1.696,1.036-1.947c0.399-0.121,0.82-0.08,1.188,0.116   c0.368,0.196,0.637,0.522,0.759,0.921C59.882,71.101,59.841,71.523,59.646,71.89z M58.561,60.646   c-0.323-1.058,0.275-2.183,1.333-2.507h0c1.06-0.323,2.183,0.275,2.506,1.334c0.323,1.058-0.275,2.183-1.333,2.507   c-0.195,0.059-0.391,0.087-0.585,0.087C59.622,62.067,58.824,61.509,58.561,60.646z M63.619,81.314   c-0.194,0.059-0.391,0.087-0.585,0.087c-0.86,0-1.658-0.557-1.921-1.421c-0.157-0.513-0.104-1.057,0.148-1.53   c0.252-0.473,0.673-0.82,1.185-0.977c0.513-0.158,1.056-0.104,1.53,0.148c0.473,0.252,0.82,0.673,0.977,1.187   C65.277,79.866,64.678,80.991,63.619,81.314z M69.96,71.766c-0.247,0.075-0.498,0.112-0.745,0.112   c-1.095,0-2.111-0.711-2.447-1.811c-0.412-1.348,0.35-2.781,1.699-3.193c1.348-0.409,2.781,0.351,3.193,1.699   C72.07,69.922,71.308,71.354,69.96,71.766z M70.131,57.587c0.823-0.25,1.696,0.214,1.947,1.037c0.122,0.398,0.081,0.82-0.114,1.188   c-0.196,0.368-0.523,0.637-0.921,0.759c-0.151,0.046-0.304,0.068-0.454,0.068c-0.668,0-1.288-0.433-1.492-1.105   C68.844,58.714,69.308,57.84,70.131,57.587L70.131,57.587z M68.614,46.43c0.603,0.321,1.045,0.857,1.244,1.51   c0.412,1.348-0.35,2.781-1.699,3.193c-0.248,0.075-0.499,0.112-0.745,0.112c-1.096,0-2.111-0.71-2.447-1.811   c-0.199-0.653-0.133-1.345,0.188-1.948c0.321-0.603,0.857-1.045,1.511-1.244C67.32,46.042,68.012,46.109,68.614,46.43z"></path><path fill="none" d="M40.419,37.963c-0.175-0.093-0.367-0.141-0.56-0.141c-0.118,0-0.235,0.017-0.351,0.053h0   c-0.306,0.093-0.557,0.3-0.707,0.582c-0.15,0.283-0.182,0.606-0.088,0.913c0.093,0.306,0.3,0.556,0.583,0.706   c0.282,0.15,0.605,0.182,0.912,0.088c0.306-0.093,0.557-0.3,0.707-0.582c0.15-0.283,0.182-0.606,0.088-0.913   C40.908,38.364,40.701,38.113,40.419,37.963z"></path><path fill="none" d="M57.151,33.084c0.459-2.659,1.246-5.214,2.313-7.59c-0.158-0.201-0.257-0.45-0.262-0.725   c-0.05-2.785-0.696-5.449-1.868-7.705c-2.428-4.676-7.112-8.275-12.53-9.626c-0.152-0.036-0.324,0.049-0.383,0.194   c-2.121,5.166-1.996,11.071,0.333,15.798C46.986,27.961,51.613,31.558,57.151,33.084z M46.909,23.371   c0.137-0.658,0.78-1.08,1.439-0.942l2.697,0.564l-3.668-7.81c-0.285-0.608-0.024-1.332,0.584-1.617   c0.608-0.285,1.333-0.025,1.618,0.583l5.686,12.108c0.285,0.608,0.024,1.332-0.584,1.617c-0.167,0.078-0.343,0.116-0.516,0.116   c-0.457,0-0.894-0.258-1.101-0.699l-0.724-1.543L47.85,24.81C47.193,24.673,46.771,24.028,46.909,23.371z"></path><path fill="none" d="M65.871,47.866c-0.219,0.412-0.265,0.885-0.129,1.331c0.281,0.921,1.259,1.445,2.181,1.16   c0.921-0.281,1.441-1.259,1.16-2.18c-0.137-0.446-0.438-0.813-0.85-1.032c-0.256-0.136-0.536-0.206-0.818-0.206   c-0.171,0-0.344,0.025-0.513,0.078C66.457,47.153,66.091,47.455,65.871,47.866z"></path><path d="M43.758,29.653c-0.474-0.253-1.016-0.306-1.53-0.148c-0.513,0.157-0.934,0.503-1.186,0.977   c-0.252,0.473-0.304,1.017-0.148,1.53c0.264,0.864,1.061,1.421,1.921,1.421c0.194,0,0.39-0.028,0.585-0.087   c1.058-0.324,1.656-1.449,1.333-2.506C44.579,30.326,44.232,29.905,43.758,29.653z M43.165,32.57   c-0.63,0.193-1.301-0.164-1.494-0.795c-0.093-0.306-0.062-0.629,0.088-0.912c0.15-0.282,0.401-0.489,0.707-0.582h0   c0.116-0.036,0.234-0.053,0.351-0.053c0.194,0,0.385,0.047,0.56,0.141c0.282,0.15,0.489,0.401,0.583,0.707   C44.152,31.707,43.795,32.378,43.165,32.57z"></path><path d="M62.4,59.473c-0.323-1.058-1.446-1.657-2.506-1.334h0c-1.058,0.324-1.656,1.449-1.333,2.507   c0.264,0.864,1.061,1.421,1.921,1.421c0.194,0,0.39-0.028,0.585-0.087C62.125,61.656,62.723,60.531,62.4,59.473z M59.336,60.408   c-0.193-0.631,0.164-1.3,0.795-1.494c0.63-0.196,1.301,0.165,1.494,0.795c0.193,0.631-0.164,1.3-0.795,1.494   C60.198,61.398,59.528,61.039,59.336,60.408z"></path><path d="M40.8,37.247c-0.473-0.251-1.016-0.304-1.529-0.147c-0.513,0.157-0.934,0.503-1.186,0.977s-0.304,1.016-0.148,1.53   c0.156,0.512,0.503,0.933,0.977,1.186c0.294,0.156,0.616,0.236,0.94,0.236c0.197,0,0.395-0.029,0.589-0.089   c0.513-0.157,0.934-0.503,1.186-0.977c0.252-0.473,0.304-1.016,0.148-1.53C41.62,37.921,41.273,37.5,40.8,37.247z M40.913,39.582   c-0.15,0.282-0.401,0.489-0.707,0.582c-0.307,0.094-0.63,0.062-0.912-0.088c-0.282-0.15-0.489-0.401-0.583-0.706   c-0.093-0.306-0.062-0.63,0.088-0.913c0.15-0.282,0.401-0.488,0.707-0.582h0c0.116-0.036,0.234-0.053,0.351-0.053   c0.193,0,0.385,0.047,0.56,0.141c0.282,0.15,0.489,0.401,0.583,0.706C41.095,38.976,41.064,39.3,40.913,39.582z"></path><path d="M56.84,51.226c0.15,0,0.303-0.022,0.454-0.068c0.399-0.122,0.725-0.391,0.921-0.759c0.196-0.368,0.236-0.79,0.114-1.188   c-0.122-0.399-0.391-0.726-0.759-0.921c-0.368-0.196-0.79-0.237-1.188-0.115c-0.398,0.122-0.725,0.391-0.921,0.759   c-0.196,0.367-0.236,0.789-0.114,1.187C55.552,50.793,56.172,51.226,56.84,51.226z M56.177,49.314   c0.094-0.177,0.251-0.306,0.442-0.364h0c0.072-0.022,0.146-0.033,0.22-0.033c0.121,0,0.241,0.029,0.35,0.088   c0.177,0.093,0.306,0.251,0.365,0.442s0.039,0.394-0.055,0.571c-0.094,0.177-0.251,0.306-0.442,0.364   c-0.395,0.12-0.814-0.103-0.935-0.498C56.064,49.693,56.084,49.491,56.177,49.314z"></path><path d="M69.095,59.534c0.205,0.672,0.824,1.105,1.492,1.105c0.15,0,0.303-0.022,0.454-0.068c0.399-0.122,0.725-0.391,0.921-0.759   c0.196-0.368,0.236-0.79,0.114-1.188c-0.251-0.823-1.124-1.287-1.947-1.037h0C69.308,57.84,68.844,58.714,69.095,59.534z    M70.367,58.363c0.396-0.122,0.814,0.102,0.935,0.498c0.059,0.192,0.039,0.394-0.055,0.571c-0.094,0.177-0.251,0.306-0.442,0.364   c-0.396,0.121-0.814-0.102-0.935-0.498C69.749,58.904,69.972,58.484,70.367,58.363z"></path><path d="M59.002,69.782c-0.368-0.196-0.789-0.237-1.188-0.116c-0.822,0.251-1.287,1.125-1.036,1.947   c0.122,0.399,0.391,0.726,0.759,0.921c0.229,0.122,0.478,0.184,0.73,0.184c0.153,0,0.307-0.023,0.458-0.069   c0.399-0.122,0.726-0.391,0.921-0.759c0.196-0.367,0.237-0.789,0.115-1.187C59.639,70.304,59.369,69.977,59.002,69.782z    M58.93,71.51c-0.094,0.177-0.251,0.306-0.443,0.364c-0.191,0.059-0.393,0.04-0.57-0.055c-0.177-0.093-0.306-0.251-0.364-0.442   c-0.121-0.396,0.103-0.815,0.497-0.936c0.072-0.022,0.146-0.033,0.219-0.033c0.121,0,0.241,0.03,0.351,0.089   c0.177,0.093,0.306,0.251,0.365,0.442C59.044,71.13,59.024,71.333,58.93,71.51z"></path><path d="M56.416,81.458c-0.822,0.251-1.287,1.125-1.036,1.948c0.205,0.671,0.825,1.104,1.493,1.104c0.15,0,0.303-0.022,0.454-0.068   c0.822-0.253,1.287-1.126,1.035-1.947C58.112,81.672,57.238,81.207,56.416,81.458z M57.09,83.667   c-0.395,0.121-0.815-0.102-0.935-0.497c-0.121-0.396,0.103-0.815,0.497-0.936c0.395-0.122,0.815,0.102,0.935,0.498   C57.709,83.126,57.485,83.546,57.09,83.667z"></path><path d="M65.156,47.486c-0.321,0.603-0.387,1.295-0.188,1.948c0.336,1.101,1.351,1.811,2.447,1.811   c0.247,0,0.497-0.036,0.745-0.112c1.348-0.412,2.11-1.845,1.699-3.193c-0.199-0.653-0.641-1.19-1.244-1.51   c-0.603-0.321-1.294-0.388-1.948-0.188C66.013,46.441,65.477,46.882,65.156,47.486z M67.416,46.939c0.282,0,0.562,0.07,0.818,0.206   c0.412,0.219,0.714,0.586,0.85,1.032c0.281,0.921-0.239,1.899-1.16,2.18c-0.922,0.285-1.899-0.239-2.181-1.16   c-0.136-0.446-0.091-0.918,0.129-1.331c0.219-0.412,0.586-0.713,1.032-0.849C67.072,46.965,67.244,46.939,67.416,46.939z"></path><path d="M50.609,52.938c-0.603-0.321-1.294-0.388-1.948-0.188c-0.653,0.199-1.19,0.641-1.511,1.244   c-0.321,0.603-0.387,1.295-0.188,1.948c0.199,0.654,0.641,1.19,1.244,1.511c0.375,0.199,0.785,0.301,1.198,0.301   c0.251,0,0.503-0.037,0.75-0.112c0.653-0.199,1.19-0.641,1.511-1.244s0.387-1.295,0.188-1.949   C51.653,53.796,51.212,53.259,50.609,52.938z M50.949,56.017c-0.219,0.412-0.586,0.713-1.032,0.849   c-0.922,0.283-1.899-0.239-2.181-1.16c-0.136-0.446-0.091-0.918,0.129-1.331c0.219-0.412,0.586-0.713,1.032-0.849   c0.169-0.052,0.341-0.078,0.513-0.078c0.282,0,0.562,0.07,0.818,0.206c0.412,0.219,0.714,0.586,0.85,1.032   C51.214,55.132,51.169,55.604,50.949,56.017z"></path><path d="M50.13,37.134c-1.348,0.412-2.11,1.845-1.699,3.193c0.336,1.1,1.352,1.811,2.447,1.811c0.247,0,0.497-0.036,0.745-0.112   c1.348-0.412,2.111-1.844,1.699-3.192C52.912,37.486,51.48,36.725,50.13,37.134z M51.387,41.251   c-0.92,0.279-1.899-0.24-2.181-1.161c-0.281-0.921,0.239-1.898,1.16-2.18c0.92-0.283,1.9,0.24,2.181,1.161   C52.829,39.991,52.308,40.97,51.387,41.251z"></path><path d="M68.466,66.874c-1.348,0.412-2.11,1.845-1.699,3.193c0.336,1.1,1.352,1.811,2.447,1.811c0.247,0,0.497-0.036,0.745-0.112   c1.348-0.412,2.11-1.844,1.699-3.193C71.247,67.225,69.814,66.464,68.466,66.874z M69.723,70.99   c-0.919,0.28-1.899-0.24-2.181-1.161c-0.281-0.921,0.239-1.898,1.16-2.18c0.921-0.281,1.899,0.241,2.181,1.16   C71.164,69.731,70.644,70.709,69.723,70.99z"></path><path d="M63.976,77.622c-0.474-0.252-1.016-0.306-1.53-0.148c-0.513,0.157-0.934,0.503-1.185,0.977   c-0.252,0.473-0.305,1.017-0.148,1.53c0.264,0.864,1.061,1.421,1.921,1.421c0.194,0,0.39-0.028,0.585-0.087   c1.059-0.324,1.657-1.449,1.334-2.506C64.797,78.295,64.45,77.874,63.976,77.622z M63.383,80.539   c-0.632,0.193-1.302-0.165-1.494-0.795c-0.093-0.306-0.062-0.63,0.089-0.913c0.15-0.282,0.401-0.489,0.707-0.582h0   c0.116-0.036,0.234-0.053,0.351-0.053c0.194,0,0.385,0.047,0.56,0.141c0.282,0.15,0.489,0.401,0.583,0.708   C64.371,79.676,64.014,80.346,63.383,80.539z"></path><path d="M47.85,24.81l4.488,0.938l0.724,1.543c0.207,0.441,0.645,0.699,1.101,0.699c0.173,0,0.349-0.037,0.516-0.116   c0.608-0.285,0.869-1.009,0.584-1.617l-5.686-12.108c-0.285-0.608-1.009-0.868-1.618-0.583c-0.608,0.285-0.869,1.009-0.584,1.617   l3.668,7.81l-2.697-0.564c-0.658-0.138-1.302,0.284-1.439,0.942C46.771,24.028,47.193,24.673,47.85,24.81z"></path><path d="M91.88,10.381L91.88,10.381c-8.031-2.05-16.706-0.63-23.208,3.795c-2.873,1.956-5.342,4.611-7.285,7.72   c-0.323-2.127-0.959-4.15-1.895-5.953c-2.745-5.285-8.016-9.346-14.1-10.865c-1.319-0.324-2.705,0.373-3.221,1.631   c-1.835,4.469-2.161,9.442-1.013,13.933c-3.097,0.143-6.176,0.673-9.174,1.588c-19.614,5.99-30.7,26.819-24.711,46.434   C12.16,84.674,26.933,95.001,42.865,95c3.587-0.001,7.236-0.525,10.84-1.625c19.614-5.989,30.7-26.818,24.711-46.434   c-0.949-3.109-2.291-6.058-3.991-8.793c3.029-0.796,5.855-2.058,8.293-3.794c6.407-4.562,10.749-12.206,11.615-20.447   C94.504,12.298,93.449,10.781,91.88,10.381z M44.42,7.632c0.059-0.145,0.231-0.23,0.383-0.194   c5.418,1.351,10.102,4.949,12.53,9.626c1.171,2.256,1.817,4.92,1.868,7.705c0.005,0.275,0.104,0.524,0.262,0.725   c-1.067,2.376-1.854,4.931-2.313,7.59c-5.537-1.525-10.164-5.123-12.398-9.654C42.424,18.704,42.299,12.799,44.42,7.632z    M76.092,47.652c5.597,18.332-4.764,37.801-23.096,43.398c-18.332,5.599-37.801-4.763-43.398-23.096   c-5.597-18.332,4.764-37.8,23.095-43.398c3.018-0.921,6.124-1.423,9.243-1.507c0.195,0.494,0.402,0.982,0.636,1.456   c2.561,5.196,7.839,9.301,14.118,10.977c0.083,0.022,0.165,0.028,0.247,0.032c0.181,1.315,1.137,2.43,2.484,2.75   c2.458,0.584,4.945,0.87,7.391,0.87c1.723,0,3.42-0.159,5.077-0.438C73.701,41.456,75.118,44.463,76.092,47.652z M81.309,32.374   c-5.667,4.034-13.638,5.352-21.326,3.526c-0.417-0.1-0.703-0.511-0.652-0.936c0.955-7.843,4.959-14.863,10.709-18.777   c4.139-2.817,9.253-4.297,14.467-4.297c2.262,0,4.543,0.279,6.77,0.847c0.401,0.103,0.682,0.506,0.639,0.917   C91.123,21.212,87.157,28.21,81.309,32.374z"></path><path d="M81.523,18.351L67.117,29.022c-0.539,0.4-0.653,1.161-0.253,1.7c0.239,0.322,0.606,0.492,0.978,0.492   c0.252,0,0.505-0.078,0.723-0.239l2.001-1.482l6.091,1.806c0.115,0.034,0.232,0.05,0.346,0.05c0.524,0,1.008-0.342,1.165-0.87   c0.191-0.644-0.176-1.321-0.82-1.512l-4.336-1.285l9.959-7.377c0.539-0.4,0.653-1.161,0.253-1.7   C82.824,18.065,82.063,17.951,81.523,18.351z"></path></g></svg>