<svg fill="#DE6A0F" xmlns="http://www.w3.org/2000/svg" xmlns:xlink="http://www.w3.org/1999/xlink" viewBox="0 0 24 24" version="1.1" x="0px" y="0px"><title>149 -Shirt- (Solid)</title><desc>Created with Sketch.</desc><g stroke="none" stroke-width="1" fill="none" fill-rule="evenodd"><g fill="#663399"><path d="M18.0732,24.0002 L5.9342,24.0002 C5.6312,24.0002 5.3442,23.8622 5.1542,23.6262 C4.9652,23.3892 4.8922,23.0792 4.9582,22.7832 L5.6912,19.4832 C6.1822,17.2792 6.2062,15.0392 5.7622,12.8242 L5.5022,11.1922 C5.2472,11.4432 4.8672,11.5472 4.5102,11.4402 L0.7172,10.3032 C0.4462,10.2222 0.2222,10.0292 0.1002,9.7742 C-0.0208,9.5202 -0.0288,9.2262 0.0792,8.9642 L2.7342,2.5162 C2.8392,2.2622 3.0442,2.0622 3.3002,1.9632 L8.2302,0.0662 C8.5382,-0.0498 8.8852,-0.0118 9.1562,0.1762 C9.4272,0.3622 9.5902,0.6712 9.5902,1.0002 C9.5902,1.9362 9.9562,2.5032 10.3512,2.9762 C10.7942,3.5022 11.3812,3.7932 12.0052,3.7932 C12.6292,3.7932 13.2152,3.5022 13.6562,2.9762 C14.0522,2.5032 14.4182,1.9362 14.4182,1.0002 C14.4182,0.6712 14.5802,0.3622 14.8512,0.1762 C15.1232,-0.0118 15.4692,-0.0498 15.7772,0.0662 L20.7082,1.9632 C20.9642,2.0622 21.1692,2.2622 21.2732,2.5162 L23.9282,8.9642 C24.0362,9.2262 24.0282,9.5202 23.9072,9.7742 C23.7852,10.0292 23.5612,10.2222 23.2912,10.3032 L19.4982,11.4402 C19.1422,11.5482 18.7612,11.4452 18.5072,11.1922 L18.2522,12.7862 C17.8022,15.0392 17.8252,17.2792 18.3162,19.4832 L19.0502,22.7832 C19.1152,23.0792 19.0432,23.3892 18.8532,23.6262 C18.6632,23.8622 18.3772,24.0002 18.0732,24.0002"></path></g></g></svg>
