<svg xmlns="http://www.w3.org/2000/svg" xmlns:xlink="http://www.w3.org/1999/xlink" xml:space="preserve" version="1.1" style="shape-rendering:geometricPrecision;text-rendering:geometricPrecision;image-rendering:optimizeQuality;" viewBox="-5 -5 787 710" x="0px" y="0px" fill-rule="evenodd" clip-rule="evenodd"><defs><style type="text/css">
   
    .fil0 {fill: #EC4CC2}
   
  </style></defs><g><path class="fil0" d="M443 277c15,-34 -4,-59 3,-91 27,-136 169,-69 237,-14 67,53 114,98 85,186 -17,50 -27,55 -57,95 -31,42 -43,61 -98,74 -51,11 -85,-2 -99,-56 -7,-26 -6,-49 -9,-75 -3,-29 -29,-61 -60,-62 -59,-1 -17,-25 -2,-57zm-2 21c20,-26 39,-53 19,-94 -13,-29 8,-4 11,15 6,44 -19,85 -9,74 15,-16 29,-79 12,-102l3 -1 1 -28c19,32 9,66 7,80 0,0 16,-39 6,-82 -6,-24 15,-25 6,51l-15 74c10,-11 38,-93 29,-133 -12,-51 9,-7 5,39 -4,45 -42,122 -15,78 43,-70 21,-146 21,-146 8,16 9,71 18,30l5 -15c0,14 -44,153 -2,50l13 -58c5,-44 -2,51 9,22l-17 50c-15,43 -60,90 -20,51 38,-38 16,-25 41,-69 16,-28 15,-57 17,-47 0,0 -5,36 16,15l-36 55c-20,54 33,-19 34,-21 7,-6 19,-9 19,-23l-15 32c-25,30 11,32 24,-1 13,-34 -3,-3 16,-7 34,-6 -26,18 -15,26 14,10 64,-37 37,-6 -16,19 26,-2 24,8 -3,23 -103,-17 -167,56l-8 14c58,-22 92,-58 68,-32 -15,17 -1,-1 86,-12 24,-3 40,-23 36,-15 -21,35 -59,7 -162,55 -18,9 -89,21 -62,29 10,3 216,-69 260,-52l-48 9c-7,0 -226,44 -209,60l246 -46 -220 49c21,2 38,2 61,7 4,1 165,-29 169,-28 5,1 -155,31 -149,33 109,30 136,-22 163,10 5,6 -3,-3 -27,-2 -25,1 -41,12 -56,11 -36,-2 -41,-7 -28,3 28,22 -11,-8 -73,-19l10 12c76,61 145,7 163,21 6,5 -41,-3 -22,12 32,27 -14,-7 -26,7 -9,9 52,14 17,14 -19,-1 4,35 -14,4 -18,-30 -54,-22 -24,3l20 29c-3,-14 -15,-15 -22,-20 -2,-1 -66,-64 -38,-14l45 48c-8,-6 -21,-18 -22,-14 0,5 9,31 9,31 -1,11 -4,-18 -25,-43 -32,-39 -8,-30 -52,-61 -46,-32 6,7 28,47 4,5 36,49 28,49 -2,0 -10,-12 -10,-7 1,17 10,52 3,27l-24 -54c-58,-95 9,35 11,48l-8 -14c-15,-39 -7,16 -12,33 0,0 9,-79 -45,-140 -35,-39 16,30 27,74 12,45 -1,92 2,39 2,-40 -39,-117 -51,-126l27 71c22,73 1,76 3,50 3,-44 -19,-79 -19,-79 4,13 19,45 6,80l-6 -27 -3 -1c13,-25 -12,-85 -29,-98 -12,-9 20,27 21,71 1,19 -16,47 -7,17 12,-45 -11,-68 -35,-90 -5,-4 -7,-8 -8,-10 -21,-4 -21,-27 -41,-21 -14,4 -16,-1 -6,-15z"/><path class="fil0" d="M334 275c-15,-34 3,-60 -3,-92 -27,-135 -169,-68 -237,-14 -68,53 -114,98 -85,187 17,50 27,55 56,95 31,42 43,60 99,73 51,12 85,-2 99,-55 7,-26 6,-49 9,-75 3,-30 29,-61 60,-62 59,-2 17,-25 2,-57zm1 21c-19,-26 -39,-53 -19,-95 14,-28 -7,-3 -10,16 -6,44 19,85 8,73 -14,-15 -28,-78 -11,-102l-3 0 -1 -28c-19,32 -9,66 -8,80 0,0 -15,-39 -5,-82 6,-25 -16,-25 -6,51l15 74c-10,-11 -38,-94 -29,-133 12,-51 -9,-7 -5,39 4,45 42,121 15,77 -43,-69 -21,-145 -21,-145 -8,15 -9,71 -18,30l-6 -15c0,13 44,153 3,49l-14 -57c-5,-44 3,50 -8,22l17 50c15,42 59,90 20,51 -38,-39 -16,-25 -41,-69 -16,-29 -15,-58 -17,-47 0,0 4,36 -17,15l37 54c19,55 -33,-19 -35,-20 -6,-6 -18,-9 -18,-23l15 32c25,30 -12,31 -24,-2 -13,-33 3,-3 -16,-6 -34,-7 25,18 15,25 -15,11 -64,-36 -37,-5 15,19 -26,-2 -25,8 4,23 104,-17 168,56l8 13c-59,-21 -92,-57 -68,-31 15,17 1,-1 -86,-12 -24,-3 -40,-23 -36,-16 20,36 59,8 161,56 19,9 90,21 63,29 -10,3 -216,-69 -260,-52l48 8c7,1 226,45 208,61l-245 -46 220 48c-21,2 -38,3 -61,8 -4,0 -165,-30 -169,-29 -6,1 154,32 149,34 -109,30 -137,-22 -163,9 -5,7 2,-3 27,-2 25,1 41,13 55,12 37,-2 42,-7 29,3 -28,21 11,-8 72,-19l-10 11c-76,62 -144,7 -162,22 -6,5 40,-4 22,12 -32,26 13,-7 26,6 9,9 -52,15 -18,14 19,0 -3,36 15,5 18,-30 54,-23 24,3l-20 29c3,-14 15,-15 22,-20 2,-1 66,-65 38,-14l-45 47c8,-5 21,-17 21,-14 1,6 -8,32 -8,32 1,11 4,-18 25,-43 32,-40 8,-30 52,-61 46,-33 -6,7 -29,46 -3,6 -35,50 -27,50 2,0 10,-12 10,-7 -1,17 -10,51 -3,27l23 -54c59,-95 -8,34 -11,47l8 -13c16,-39 8,16 13,32 0,0 -9,-78 45,-139 34,-39 -16,30 -28,73 -12,45 2,92 -1,40 -2,-41 39,-117 51,-126l-28 70c-22,73 0,76 -2,51 -3,-44 19,-80 19,-79 -4,13 -19,45 -6,79l6 -27 3 0c-13,-26 12,-86 28,-98 13,-10 -19,26 -20,71 -1,18 16,47 7,17 -13,-45 11,-68 35,-91 4,-4 7,-7 8,-10 21,-4 20,-26 41,-20 14,4 15,-2 5,-15z"/><path class="fil0" d="M280 92c13,-37 62,-88 99,-92 42,-4 92,69 111,100 2,4 2,4 -3,7 -30,18 -44,39 -49,75 -4,27 3,48 0,72 -1,12 -16,47 -25,55 -8,7 -31,-4 -43,3 -1,1 0,2 -4,-3 -13,-17 -28,-37 -29,-58 -1,-26 6,-50 2,-78 -5,-35 -26,-55 -57,-70 -5,-2 -5,-3 -2,-11zm130 -64c9,18 6,33 21,11l-9 20c11,34 10,-3 21,-13 11,-9 -25,42 -7,42 7,1 -2,-29 26,-24 6,1 -12,-1 -18,14 -5,14 -27,27 -8,29 16,2 13,-36 32,-27 19,10 -5,-5 -13,12 -19,43 -27,7 -18,35 3,7 -1,-7 17,-14l11 -12c2,-7 6,6 -14,18 -18,10 -20,38 -26,-34l-19 -62c0,-1 2,0 4,5zm-55 -5c-9,19 -6,34 -20,12l8 20c-11,33 -10,-4 -21,-13 -11,-9 25,41 8,42 -8,0 1,-30 -26,-24 -6,1 12,-2 18,14 5,13 26,27 8,29 -17,2 -14,-37 -33,-27 -18,9 6,-5 13,12 20,42 28,6 18,35 -2,7 1,-7 -16,-14l-11 -12c-2,-8 -7,6 14,18 17,9 19,38 25,-34l20 -62c-1,-1 -2,0 -5,4zm18 -7l-1 35c-21,67 -1,38 1,63 3,28 -15,-40 -14,8 1,44 -1,27 18,30 1,-36 2,-76 4,-112 1,-6 -4,207 -5,195 0,-10 0,-45 1,-72 -3,0 -10,1 -11,-4l11 -7 0 0 0 10c-2,0 -5,1 -11,2 -13,4 4,107 4,107 -18,-20 -10,-170 -14,-180 -12,-30 2,7 4,-11l11 -48 2 -16zm11 20c0,-7 5,206 5,195 1,-9 1,-38 0,-64 3,1 10,1 11,-4l-11 -6 0 9c1,1 5,1 10,3 14,3 -3,106 -3,106 17,-19 10,-170 14,-180 11,-30 -2,7 -5,-11l-10 -47 -3 -16 2 34c21,67 1,38 -2,63 -3,28 15,-40 14,9 0,43 2,27 -17,29l0 -8c-2,-36 -3,-76 -5,-112z"/><path class="fil0" d="M374 316c-5,4 -5,15 -21,19 -21,5 -40,5 -53,15 -12,11 -22,34 -24,77 -4,97 58,63 49,49 -11,-19 -21,-28 -13,-57 4,-15 4,40 20,36 3,-1 -17,-12 -10,-39l5 16c7,-58 -10,-63 53,-110 3,-2 5,-3 8,-5 2,1 5,3 7,4 67,49 49,54 56,113l4 -16c7,27 -12,38 -9,38 16,4 16,-51 20,-35 8,28 -2,37 -14,57 -8,13 54,47 50,-50 -4,-86 -33,-79 -73,-88 -15,-4 -18,-16 -24,-22 -1,-1 -1,-1 -2,-2 -3,-1 -10,-2 -15,-1l0 0c-4,-1 -13,0 -14,1z"/><path class="fil0" d="M343 365c6,6 14,16 21,24 5,5 14,19 16,25 2,7 -15,2 -19,4 -4,2 22,-1 23,8 0,1 0,3 0,4 1,-4 2,-8 2,-9 1,0 0,4 0,9 0,4 -1,30 4,30 8,0 6,-28 6,-34 0,-5 0,-6 0,-6 1,1 1,4 2,8 0,0 1,-4 2,-4 6,-3 21,-1 18,-3 -1,0 -11,-1 -14,-1 -2,0 -3,0 -3,-2 0,-3 11,-20 14,-23 5,-6 23,-30 23,-30 4,4 8,22 5,27 0,0 -16,15 -19,17 -1,1 1,-1 5,-4 2,-1 18,-11 19,-7 0,1 -20,17 -21,21 0,1 0,1 1,1 2,-1 7,-7 11,-9 9,-4 4,9 2,12 -5,14 -8,8 -13,12 -1,1 0,2 3,2 2,-1 6,-3 9,-6 3,-4 5,-9 7,-11 3,-3 3,24 3,23 -3,-2 -8,8 -11,10 -3,3 -23,14 -23,14 -6,8 14,-4 17,-7 3,-2 5,-4 6,-4 0,0 0,0 0,1 0,0 0,1 0,2 1,6 6,5 11,4 3,-1 6,-3 6,-3 0,1 -8,19 -9,21 -4,8 -19,13 -28,10 -8,-2 -4,-2 -11,0 -2,0 -11,2 -9,0 8,-13 7,-18 12,-30 3,-9 8,-14 9,-24 1,-3 1,-6 0,-7 0,0 -1,2 -1,5 -1,3 -1,7 -2,10 -4,9 -8,13 -11,24 -2,6 -7,23 -16,22 -10,0 -13,-15 -16,-22 -3,-12 -7,-16 -11,-26 -1,-3 -2,-7 -3,-10 0,-4 -1,-6 -1,-6 -1,1 -1,4 0,8 1,4 2,9 4,13 2,4 5,7 6,12 6,13 4,18 13,33 1,2 -8,0 -9,-1 -9,-1 -4,-2 -13,1 -10,3 -25,-2 -29,-11 -2,-3 -11,-22 -11,-23 0,0 4,2 7,3 15,5 10,-8 12,-7 1,0 4,2 6,4 4,3 25,16 19,8 -1,0 -21,-12 -25,-15 -4,-3 -10,-7 -12,-11 0,-1 2,-18 2,-21 0,-4 0,-5 2,-4 1,2 4,8 7,12 3,3 7,6 10,6 2,1 3,0 2,-1 -2,-3 -8,-2 -11,-8 -3,-3 -11,-23 0,-18 2,1 5,3 7,5 2,2 3,4 4,4 1,1 2,0 2,-1 -2,-5 -23,-21 -23,-23 2,-4 19,7 21,8 4,3 6,6 5,5 -3,-3 -20,-18 -21,-19 -3,-5 1,-29 9,-21zm39 106c0,2 6,14 8,15 4,0 9,-11 9,-15 0,-3 -4,-2 -5,0 -1,1 -2,7 -3,7 -2,-1 -3,-6 -4,-7 -1,-3 -5,-2 -5,0zm15 -11c-1,3 0,5 2,5 1,0 2,-1 2,-3 0,-3 -3,-3 -4,-2zm-12 2c-1,3 -5,2 -5,-1 0,-2 3,-4 5,1zm33 -6c-2,0 -3,1 -3,3 0,1 1,2 3,2 1,0 2,-1 2,-2 0,-2 -1,-3 -2,-3zm18 -15c0,2 3,2 3,0 0,-1 -3,-1 -3,0zm-10 2c0,3 5,3 5,0 0,-3 -5,-3 -5,0zm-2 7c0,3 5,3 5,0 0,-2 -5,-4 -5,0zm10 -1c0,3 5,3 5,0 0,-3 -5,-3 -5,0zm9 -8c0,3 4,3 4,0 0,-3 -4,-3 -4,0zm-10 -15c0,3 5,3 5,0 0,-3 -5,-3 -5,0zm-8 1c0,-3 5,-3 5,0 0,3 -5,4 -5,0zm-8 -19c0,0 -1,1 -1,2 0,1 1,2 1,2 1,0 1,-1 1,-2 0,-1 0,-2 -1,-2zm-5 5c-1,0 -2,1 -2,3 0,1 1,2 2,2 1,0 2,-1 2,-2 0,-2 -1,-3 -2,-3zm7 5c0,3 4,3 4,0 0,-3 -4,-3 -4,0zm-17 32c-3,0 -3,5 0,5 3,0 3,-5 0,-5zm11 -21c0,4 4,4 4,0 0,-5 -4,-5 -4,0zm-8 15c0,-1 5,-1 5,0 0,2 -5,2 -5,0zm1 -8c0,3 4,3 4,0 0,-3 -4,-3 -4,0zm-42 22c0,3 -5,3 -5,0 0,-4 5,-4 5,0zm-24 -20c1,0 2,0 2,1 0,1 -1,1 -2,1 -1,0 -2,0 -2,-1 0,-1 1,-1 2,-1zm12 3c0,3 -5,3 -5,0 0,-3 5,-3 5,0zm3 7c0,4 -5,4 -5,0 0,-3 5,-3 5,0zm-13 -4c1,0 2,1 2,3 0,1 -1,2 -2,2 -1,0 -3,-1 -3,-2 0,-2 2,-3 3,-3zm-9 -7c1,0 2,1 2,2 0,1 -1,3 -2,3 -2,0 -3,-2 -3,-3 0,-1 1,-2 3,-2zm9 -17c2,0 3,1 3,2 0,2 -1,3 -3,3 -1,0 -2,-1 -2,-3 0,-1 1,-2 2,-2zm12 4c0,-4 -5,-3 -5,0 0,3 5,3 5,0zm8 -20c1,0 1,0 1,2 0,1 0,1 -1,1 0,0 -1,0 -1,-1 0,-2 1,-2 1,-2zm8 8c0,3 -5,3 -5,0 0,-4 5,-4 5,0zm-9 2c0,3 -5,3 -5,0 0,-3 5,-3 5,0zm20 37c0,3 -5,3 -5,0 0,-3 5,-3 5,0zm-14 -26c0,2 -1,4 -2,4 -1,0 -2,-2 -2,-4 0,-4 4,-4 4,0zm8 17c0,-2 -5,-2 -5,0 0,2 5,2 5,0zm-1 -9c0,3 -4,3 -4,0 0,-3 4,-3 4,0z"/><path class="fil0" d="M382 452c0,0 1,1 1,2 0,1 -1,2 -1,2 -1,0 -2,-1 -2,-2 0,-1 1,-2 2,-2z"/><path class="fil0" d="M349 469c2,0 3,2 3,4 0,1 -1,3 -3,3 -2,0 -3,-2 -3,-3 0,-2 1,-4 3,-4z"/><path class="fil0" d="M389 339c-7,-20 -27,7 -12,17l7 9c-18,-3 -18,-23 -28,-11 -6,9 28,48 34,58 5,-9 44,-43 33,-58 -9,-13 -8,7 -26,11l5 -9c15,-11 -5,-38 -13,-17z"/><path class="fil0" d="M313 496c1,-2 14,-11 16,-9 7,6 10,10 20,10 7,0 13,-2 19,-2 5,0 9,2 13,2 2,0 4,-2 8,-2 3,-1 7,0 12,-1 4,0 11,-3 14,-1 2,0 6,2 11,2 8,0 18,-7 21,-6 3,0 4,2 7,6 24,28 -26,71 -56,71 -33,0 -66,-30 -82,-60 -2,-4 -4,-9 -3,-10zm79 4c-6,-1 1,63 1,62 1,-6 4,-62 -1,-62z"/><path class="fil0" d="M457 492c1,0 4,2 7,3 7,3 14,2 21,-2 2,-1 4,-3 5,-3 0,-1 22,-3 13,17 -6,14 -19,29 -30,41 -7,8 -12,20 -17,25 -5,5 -8,7 -12,7 -10,1 -17,-6 -22,-5 -6,2 -11,4 -19,3 -6,0 -9,-3 -17,-2 -8,1 -15,6 -23,6 -5,0 -9,-2 -15,-6 -15,-9 -36,-30 -47,-42 -8,-9 -22,-25 -24,-37 0,-4 4,-13 8,-12 0,1 5,5 7,6 5,5 17,4 17,4 1,1 0,2 0,5 1,7 12,22 17,28 7,8 15,18 25,25 14,10 31,18 50,17 15,-1 28,-7 39,-17 8,-7 18,-16 21,-26 3,-7 4,-15 2,-22 -2,-6 -4,-8 -7,-13 0,-1 0,-1 1,0z"/><path class="fil0" d="M518 496c21,40 59,43 99,35 22,-4 41,-13 58,-27 2,2 8,7 11,9 4,3 10,7 15,9 4,2 8,3 8,2 -7,-3 -21,-10 -31,-18l-2 -3c15,-12 28,-29 39,-49 0,-1 1,-1 3,2 2,4 6,12 8,18 3,7 3,13 4,19 0,5 0,10 -1,13 0,3 0,4 -6,10 -6,5 -19,15 -31,23 -13,7 -25,12 -39,15 -32,9 -62,10 -95,9 -28,-1 -50,-2 -77,-12 -2,-1 -3,-2 1,-6 8,-10 33,-39 27,-51 -2,-5 -9,-9 -10,-12 0,-1 1,-5 2,-9 1,-4 3,-9 4,-8 1,0 11,27 13,31zm-9 31c8,11 19,21 25,26 0,0 -3,-1 -7,-5 -4,-3 -9,-7 -13,-12 -4,-5 -13,-19 -5,-9zm36 6c8,10 20,19 26,24 1,0 -3,-1 -7,-4 -4,-3 -9,-7 -13,-12 -4,-4 -15,-18 -6,-8zm44 7c10,9 24,15 30,19 1,0 -3,0 -8,-3 -4,-2 -10,-5 -15,-8 -5,-4 -17,-16 -7,-8zm34 -2c9,7 21,13 27,16 0,0 -3,0 -7,-2 -4,-2 -10,-5 -14,-8 -4,-3 -15,-13 -6,-6zm37 -14c9,8 21,13 26,17 1,0 -3,-1 -7,-3 -4,-1 -9,-4 -13,-7 -4,-4 -15,-14 -6,-7zm35 -32c11,8 24,15 31,19 0,0 -4,-1 -8,-3 -5,-2 -11,-5 -15,-9 -5,-3 -18,-15 -8,-7zm9 -11c8,2 18,3 22,4 1,0 -2,0 -5,0 -3,0 -8,-1 -11,-2 -4,-1 -14,-5 -6,-2z"/><path class="fil0" d="M272 464c-1,-3 -1,-2 -3,3 -5,16 -11,34 -24,46 -22,22 -53,22 -82,16 -29,-6 -49,-17 -71,-37 -4,-3 -6,-5 -7,-6 -1,-1 -1,-1 -2,4 -3,18 -15,55 -3,68 88,100 251,15 241,5 -16,-17 -36,-35 -46,-57 -4,-9 -3,-14 1,-24 2,-4 -2,-13 -4,-18zm-182 65c1,-1 8,-6 13,-9 6,-3 10,-4 9,-3 0,1 -6,4 -11,8 -6,3 -11,5 -11,4zm6 28c0,0 41,-10 50,-14 9,-3 15,-7 18,-7 3,0 0,3 -8,7 -9,5 -53,18 -60,14zm143 -25c-5,2 -22,12 -35,18 -14,7 -57,24 -71,25 -8,0 4,2 15,0 12,-2 26,-7 41,-14 14,-6 29,-14 39,-20 10,-6 16,-11 11,-9zm57 25c-9,5 -24,15 -44,24 -15,8 -33,13 -30,13 21,1 88,-45 74,-37zm-125 34c34,-10 70,-29 89,-38 1,0 -7,7 -19,14 -12,7 -28,14 -43,19 -16,5 -62,14 -27,5z"/></g></svg>