<svg fill="#FFD700" xmlns="http://www.w3.org/2000/svg" xmlns:xlink="http://www.w3.org/1999/xlink" version="1.1" x="0px" y="0px" viewBox="0 0 100 100" enable-background="new 0 0 100 100" xml:space="preserve"><path fill="none" d="M21.311,76.52c0.588,0.486,1.129,1.042,1.595,1.65c0.988-0.987,1.975-1.975,2.962-2.962  c-0.541-0.541-1.082-1.082-1.623-1.623C23.267,74.563,22.289,75.542,21.311,76.52z"></path><path fill="none" d="M19.026,77.635c-1.535-0.91-3.269-1.103-4.488,0.14c-3.276,3.336,3.651,10.236,7.142,7.142  c1.156-1.305,0.908-3.095-0.025-4.652C20.778,79.388,19.902,78.512,19.026,77.635z"></path><path fill="none" d="M25.862,71.968c0.541,0.541,1.082,1.082,1.623,1.623c1.006-1.006,2.011-2.012,3.017-3.017  c-0.541-0.541-1.082-1.082-1.623-1.623C27.874,69.957,26.868,70.963,25.862,71.968z"></path><path fill="none" d="M78.354,15.455c-2.771,2.062-5.153,5.153-7.589,7.589c-4.679,4.679-9.357,9.357-14.036,14.036  c-6.207,6.207-12.245,12.683-18.652,18.693c0.741,0.735,1.425,1.658,1.872,2.115C53.637,44.199,67.326,30.51,81.016,16.821  c1.042-1.042,2.659,0.575,1.617,1.616C68.949,32.121,55.266,45.805,41.582,59.489c0.683,0.659,1.361,1.325,2.018,2.008  c2.291-2.291,4.582-4.583,6.873-6.874c9.255-9.256,18.512-18.511,27.769-27.768c1.438-1.439,2.878-2.879,4.317-4.319  c0.415-0.415,1.547-1.635,1.453-1.493c2.067-3.131,3.505-6.954,5.008-10.552c-1.667,0.777-3.333,1.555-5,2.332  C82.448,13.556,79.113,14.89,78.354,15.455z"></path><path fill="none" d="M30.497,67.334c0.541,0.541,1.082,1.082,1.623,1.623l3.017-3.018c-0.541-0.541-1.082-1.082-1.623-1.623  L30.497,67.334z"></path><path d="M92.345,8.006c-0.006-0.03-0.007-0.062-0.015-0.092c-0.026-0.097-0.068-0.184-0.118-0.27  c-0.015-0.026-0.025-0.053-0.042-0.078c-0.044-0.062-0.097-0.114-0.152-0.167c-0.041-0.041-0.078-0.082-0.125-0.116  c-0.031-0.022-0.065-0.037-0.1-0.056c-0.084-0.05-0.171-0.092-0.266-0.118c-0.008-0.002-0.016-0.002-0.022-0.004  c-0.119-0.03-0.241-0.039-0.368-0.025c-0.025,0.002-0.052,0.012-0.077,0.016c-0.09,0.016-0.179,0.035-0.27,0.076  c-0.036,0.014-0.071,0.014-0.108,0.031c-4.342,2.024-9.614,3.619-13.557,6.322c-2.137,1.464-3.942,3.867-5.764,5.688  c-9.383,9.382-18.766,18.766-28.148,28.149c-2.224,2.224-4.396,4.532-6.67,6.715L35.17,52.71c-5.74,1.25-4.67,6.62-4.67,6.62  s0.062,1.618,1.153,3.613l-3.583,3.582c-1.544,1.544-3.088,3.09-4.634,4.635c-1.366,1.365-2.731,2.73-4.097,4.098  c-2.149-0.996-4.555-0.967-6.419,0.897c-5.324,5.326,4.313,15.054,10.058,10.628c0.11-0.06,0.218-0.138,0.319-0.251  c0.113-0.101,0.191-0.209,0.251-0.319c1.395-1.811,1.386-4.005,0.548-5.999c1.399-1.398,2.799-2.798,4.198-4.197  c0.001-0.001,0.001-0.002,0.002-0.003c1.543-1.543,3.087-3.086,4.63-4.631c0,0,0.001-0.001,0.001-0.001l3.626-3.626  c2.046,1.136,3.545,1.176,3.696,1.204c5.54,0.62,6.54-4.68,6.54-4.68l-1.373-1.367c6.369-6.368,12.738-12.738,19.106-19.106  c4.779-4.78,9.56-9.56,14.339-14.339c2.187-2.186,5.01-4.339,6.844-6.842c2.87-3.921,4.484-9.44,6.543-13.855  c0.021-0.046,0.022-0.09,0.038-0.135c0.016-0.04,0.021-0.078,0.032-0.117c0.02-0.08,0.042-0.158,0.046-0.234  C92.372,8.188,92.361,8.097,92.345,8.006z M21.68,84.916c-3.491,3.095-10.418-3.806-7.142-7.142c1.219-1.242,2.954-1.05,4.488-0.14  c0.876,0.877,1.752,1.753,2.628,2.629C22.588,81.821,22.836,83.611,21.68,84.916z M22.905,78.17  c-0.466-0.608-1.007-1.164-1.595-1.65c0.979-0.978,1.957-1.956,2.935-2.935c0.541,0.541,1.082,1.082,1.623,1.623  C24.88,76.195,23.893,77.183,22.905,78.17z M27.485,73.591c-0.541-0.541-1.082-1.082-1.623-1.623  c1.005-1.005,2.011-2.011,3.017-3.017c0.541,0.541,1.082,1.082,1.623,1.623C29.497,71.579,28.491,72.585,27.485,73.591z   M32.119,68.957c-0.541-0.541-1.082-1.082-1.623-1.623l2.484-2.484c0.282,0.328,0.589,0.657,0.939,0.98  c0.24,0.222,0.477,0.424,0.711,0.614L32.119,68.957z M39.1,65.79c-0.062-0.019-0.631-0.108-1.495-0.595  c-0.018-0.021-0.023-0.044-0.043-0.064c-1.08-1.08-2.16-2.159-3.24-3.239c-0.026-0.026-0.062-0.036-0.091-0.06  c-0.448-0.824-0.561-1.412-0.561-1.412s-0.7-2.51,0.59-4.31l9.41,9.01C43.67,65.12,41.86,66.48,39.1,65.79z M84.013,21.043  c0.094-0.142-1.038,1.078-1.453,1.493c-1.439,1.439-2.879,2.879-4.317,4.319c-9.257,9.256-18.514,18.511-27.769,27.768  c-2.225,2.226-4.451,4.452-6.676,6.677l-2.017-2.009c13.618-13.618,27.236-27.236,40.853-40.854  c1.042-1.041-0.575-2.659-1.617-1.616C67.396,30.439,53.777,44.059,40.159,57.678l-1.996-1.988  c6.375-5.986,12.387-12.43,18.566-18.609c4.679-4.679,9.357-9.357,14.036-14.036c2.436-2.436,4.817-5.527,7.589-7.589  c0.76-0.565,4.095-1.899,5.667-2.632c1.667-0.777,3.333-1.555,5-2.332C87.518,14.09,86.08,17.913,84.013,21.043z"></path></svg>
