<svg fill="#4C4C4C" xmlns:dc="http://purl.org/dc/elements/1.1/" xmlns:cc="http://creativecommons.org/ns#" xmlns:rdf="http://www.w3.org/1999/02/22-rdf-syntax-ns#" xmlns:svg="http://www.w3.org/2000/svg" xmlns="http://www.w3.org/2000/svg" xmlns:sodipodi="http://sodipodi.sourceforge.net/DTD/sodipodi-0.dtd" xmlns:inkscape="http://www.inkscape.org/namespaces/inkscape" viewBox="0 0 100 100" version="1.1" x="0px" y="0px"><g style="display:inline;opacity:1"><path style="opacity:1;fill:#4C4C4C;fill-opacity:1;stroke:none;stroke-width:3;stroke-linecap:butt;stroke-linejoin:round;stroke-miterlimit:4;stroke-dasharray:none;stroke-opacity:1" d="m 48.519531,5.953125 -14.570312,4.800781 2.916015,3.763672 6.058594,5.585938 z m -22.285156,2.0351562 -8.490234,3.1855468 -2.566407,7.398438 0.257813,3.726562 2.873047,4.970703 4.083984,10.035157 4.214844,4.83789 -0.0039,0.01953 1.427734,0.259766 9.470703,6.3125 0.501953,1.546875 22.888672,16.146484 26.25,21.964844 5,-6.070312 L 75.714844,65.714844 54.8125,38.990234 49.75,35.476562 l -4.923828,-5.302734 -0.53125,-2.40625 -2.347656,-6.207031 0.0059,-0.01563 -7.607422,-7.28125 -2.326172,-3.042969 z M 14.14932,24.461933 3.9383821,35.354511 19.934476,36.702168 19.067289,33.885761 15.657133,26.688496 Z m 48.057711,-0.250995 -16.443359,3.222656 0.257812,1.544922 3.029297,3.537109 6.357422,4.460937 z M 25.878906,43.869141 22.777344,56.277344 36.679688,51.019531 36.433594,50.181641 27.46875,44.121094 Z"></path></g></svg>