<svg xmlns="http://www.w3.org/2000/svg" viewBox="2 2 60 60" x="0px" y="0px"><g><path fill="#3377bb" d="M10.771,36.041,6.342,34a1.969,1.969,0,0,0-2.709,2.361A27.781,27.781,0,0,0,10.5,47.009L6.271,51.288a2,2,0,0,0,1.646,3.393l4.814-.537a13.791,13.791,0,0,0,.572,6.169l.013.037a2.232,2.232,0,0,0,1.747,1.437,2.263,2.263,0,0,0,.374.03,2.218,2.218,0,0,0,1.732-.83c2.949-3.631,8.462-10.959,8.469-10.972a4.929,4.929,0,0,1,4.312-1.634l9.108,1.139A14.694,14.694,0,0,0,54.82,39.586l.164-.491a14.582,14.582,0,0,0,.681-6.109l-.471-4.708a1.982,1.982,0,0,1,1.351-2.086.948.948,0,0,0,.2-.088l.481-.287.02.766a1,1,0,0,0,1,.974h.027a1,1,0,0,0,.973-1.027l-.05-1.885,1.321-.786a1,1,0,0,0-.142-1.789l-1.323-.525c-.056-.494-.124-.985-.213-1.471a1.022,1.022,0,0,0,.191-.226l1.5-2.5a1,1,0,0,0-1.715-1.03l-.644,1.074a21.629,21.629,0,0,0-.769-2.06l1.381-1.7a1,1,0,0,0-1.554-1.26l-.8.982-1.55-2.831a1,1,0,1,0-1.754.958L54.5,14H53a1,1,0,0,0,0,2h2.494a19.77,19.77,0,0,1,1.4,4.692l-.543-.215a2.915,2.915,0,0,1-1.254-.959,6.436,6.436,0,0,0-7.241-2.205,6.239,6.239,0,0,0-1.221.563l-1.232-1.027a18.806,18.806,0,0,1-3.242-3.485L34.3,2.417a1,1,0,0,0-1.8.465L31.193,13.854c-.46-.238-.919-.477-1.391-.694L14.378,6.091c-.011,0-.022,0-.033-.009-.029-.012-.059-.016-.089-.026A.973.973,0,0,0,14,6.01a.938.938,0,0,0-.106,0,1.012,1.012,0,0,0-.265.057c-.022.008-.045.006-.066.015s-.017.014-.027.018a.994.994,0,0,0-.29.2l0,0a.39.39,0,0,0-.025.036,1.037,1.037,0,0,0-.241.6.945.945,0,0,0,0,.119.992.992,0,0,0,.058.265c.008.022,0,.046.015.068l4.492,10.211A15.014,15.014,0,0,0,18.5,19.42l-6.285-1.4h-.026c-.027,0-.053,0-.079,0a1,1,0,0,0-.268,0,1.034,1.034,0,0,0-.11.026.968.968,0,0,0-.247.107c-.019.012-.042.014-.06.027s-.011.013-.018.019a.962.962,0,0,0-.235.237c0,.006,0,.013-.009.019-.015.023-.022.048-.035.072a.987.987,0,0,0-.1.253c-.008.036-.012.071-.017.107a1.012,1.012,0,0,0,.005.252c0,.034.006.066.014.1a1.016,1.016,0,0,0,.135.319l2.414,3.587c.542.8,1.132,1.576,1.746,2.33A19.194,19.194,0,0,0,16.569,27H12a1,1,0,0,0-.71,1.7l3.052,3.075a33.019,33.019,0,0,0,4.245,3.611l2.973,2.124A18.63,18.63,0,0,1,10.771,36.041ZM33.109,14.674l1.072-9,6.358,8.856a20.8,20.8,0,0,0,3.587,3.856l.967.806a6.18,6.18,0,0,0-.97,1.56L42.77,23.908a32.361,32.361,0,0,0-9.731-9.022A.909.909,0,0,0,33.109,14.674ZM24.236,38.962a1,1,0,0,0,.343-.186,8.23,8.23,0,0,0,4.049-.057l3.622-.946a1,1,0,1,0-.5-1.935l-3.622.945a6.65,6.65,0,0,1-5.545-1.01c-.011-.007-.025-.008-.036-.015l-2.793-2a31.176,31.176,0,0,1-3.987-3.392L14.4,29h4.266a19.077,19.077,0,0,0,4.961,2.929,1,1,0,0,0,.744-1.858A17,17,0,0,1,19.5,27.083l-.706-.716c-.625-.632-1.218-1.3-1.786-1.986-.091-.123-.189-.24-.277-.366L14.3,20.534l6.083,1.353a15.255,15.255,0,0,0,6.306,4.061,1,1,0,1,0,.632-1.9,13.261,13.261,0,0,1-5.408-3.459c-.006-.014-.008-.029-.014-.042L16.134,9.1l12.835,5.883A30.386,30.386,0,0,1,42.113,26.53a1,1,0,0,0,1.767-.136l2.081-4.855a4.244,4.244,0,0,1,2.606-2.353A4.412,4.412,0,0,1,53.5,20.718a4.908,4.908,0,0,0,2.117,1.618l2.126.844L55.8,24.334a3.966,3.966,0,0,0-2.6,4.144l.471,4.708a12.6,12.6,0,0,1-.589,5.276l-.163.491a12.694,12.694,0,0,1-13.617,8.582L30.2,46.4a6.95,6.95,0,0,0-6.11,2.357c-.055.073-5.546,7.371-8.472,10.973a.232.232,0,0,1-.229.087.24.24,0,0,1-.193-.151,11.781,11.781,0,0,1-.26-6.429,1,1,0,0,0-1.083-1.227L7.7,52.692l4.865-4.933a1.057,1.057,0,0,0-.024-1.625A26.011,26.011,0,0,1,5.5,35.813l4.429,2.044A20.624,20.624,0,0,0,24.236,38.962Z"/><path fill="#5599ff" d="M50,23a.99.99,0,0,0,.92-1.38,1.032,1.032,0,0,0-.21-.33,1.047,1.047,0,0,0-1.42,0,1.032,1.032,0,0,0-.21.33A.99.99,0,0,0,50,23Z"/></g></svg>