<svg xmlns="http://www.w3.org/2000/svg" xmlns:xlink="http://www.w3.org/1999/xlink" version="1.1" x="0px" y="0px" viewBox="0 0 100 100" enable-background="new 0 0 100 100" xml:space="preserve"><g><path d="M94.701,39.977c4.5-2.004,6.531-7.298,4.526-11.799c-1.176-2.643-3.312-4.668-6.013-5.704   c-2.701-1.037-5.645-0.957-8.316,0.234L34.569,44.34c-4.89-0.012-8.796-2.591-11.028-7.078c-1.321-2.658-1.556-5.551-0.919-8.244   c0,0.014-7.174,5.71-7.174,5.71s-4.187-2.389-4.237-2.383c-1.24,3.154-1.247,6.752,0.368,9.999   c2.252,4.529,6.207,7.117,11.158,7.083l-14.496,6.23l0.011,0.027c-0.104,0.043-0.209,0.075-0.312,0.121   c-3.329,1.483-5.944,4.296-7.175,7.719c-1.173,3.262-0.99,6.727,0.515,9.756c3.033,6.1,9.155,8.454,15.995,6.367   c0.775-0.236,1.563-0.531,2.354-0.884l76.225-32.814c0.337-0.146,0.596-0.432,0.727-0.775c0.132-0.343,0.114-0.736-0.041-1.069   c-0.312-0.675-1.113-0.976-1.788-0.67c-3.648,1.626-7.02,1.859-9.776,0.726l9.724-4.188L94.701,39.977z M46.518,42.163   c3.632,0.807,6.54,3.194,8.351,6.835c0.744,1.498,1.131,3.07,1.231,4.638l-33.69,14.509c0.003-0.006,0.007-0.014,0.01-0.021   c0.854-2.228,0.79-4.656-0.181-6.837c-1.296-2.909-3.733-4.956-6.548-5.874L46.518,42.163z M18.537,76.271   c-6.523,2.909-12.067,1.338-14.822-4.203c-1.172-2.358-1.311-5.066-0.391-7.625c0.98-2.728,3.066-4.972,5.722-6.155   c4.068-1.814,8.839,0.004,10.68,4.044L8.582,67.543c-0.672,0.314-0.968,1.109-0.667,1.785c0.806,1.811,2.27,3.198,4.12,3.908   c1.774,0.681,3.699,0.653,5.448-0.061l0.019,0.044l38.426-16.551c-0.268,1.463-0.801,2.87-1.546,4.171L18.537,76.271z    M20.294,65.068c-0.017,0.704-0.155,1.406-0.415,2.083c-0.594,1.55-1.757,2.777-3.274,3.451c-1.151,0.513-2.424,0.545-3.597,0.095   c-0.746-0.286-1.391-0.745-1.895-1.336L20.294,65.068z M66.501,55.622c0.729-1.298,1.253-2.702,1.51-4.157l13.797-5.941   c1.241,0.843,2.616,1.428,4.089,1.748L66.501,55.622z M93.649,37.462L68.162,48.44c-0.105-1.547-0.492-3.094-1.225-4.57   c-1.827-3.671-4.765-6.071-8.439-6.856l27.538-11.838c4.093-1.824,8.888,0.022,10.709,4.107c1.385,3.112-0.001,6.769-3.094,8.182   L93.649,37.462z"></path></g></svg>