<svg enable-background="new 0 0 100 100" version="1.1" viewBox="0 20 100 80" xml:space="preserve" xmlns="http://www.w3.org/2000/svg"><g transform="matrix(1.0236 0 0 1.0236 -1.1813 -1.1818)" fill="#ffffff"><path fill="#445599" d="m75.154 50.75v-1h1c1.65 0 3-1.351 3-3v-1e-3c0-1.649-1.35-2.999-3-2.999h-1v-1.001c0-1.1-0.9-1.999-2-1.999-1.102 0-2 0.899-2 1.999v1.001h-18v-14h1c1.1 0 2-0.899 2-2s-0.9-2-2-2h-1v-1c0-1.65-1.35-3-3-3s-3 1.35-3 3v1h-1c-1.101 0-2 0.899-2 2s0.899 2 2 2h1v14h-18v-1.001c0-1.1-0.899-1.999-2-1.999s-2 0.899-2 1.999v1.001h-1.001c-1.649 0-2.999 1.35-2.999 2.999v1e-3c0 1.649 1.35 3 2.999 3h1.001v1c0 1.1 0.9 2 2 2 1.101 0 2-0.9 2-2v-1h18v40h-1c-1.101 0-2 0.899-2 2s0.899 2 2 2h1v1c0 1.65 1.35 3 3 3 1.651 0 3-1.35 3-3v-1h1c1.1 0 2-0.899 2-2s-0.9-2-2-2h-1v-40h18v1c0 1.1 0.9 2 2 2s2-0.9 2-2zm-25-2c-1.102 0-2-0.898-2-2.001 0-1.102 0.898-2 2-2s2 0.898 2 2c0 1.103-0.898 2.001-2 2.001z"/><path d="m16.346 46.75c0-0.553-0.447-1-1-1h-13.192c-0.553 0-1 0.447-1 1s0.447 1 1 1h13.192c0.553 0 1-0.447 1-1z"/><path d="m50.154 16.127c0.553 0 1-0.447 1-1v-11.877c0-0.553-0.448-1-1-1s-1 0.447-1 1v11.877c0 0.553 0.447 1 1 1z"/><path d="m37.872 35.881c0.195 0.195 0.451 0.293 0.707 0.293s0.512-0.098 0.707-0.293c0.391-0.391 0.391-1.023 0-1.414l-7.071-7.071c-0.391-0.391-1.023-0.391-1.414 0s-0.391 1.023 0 1.414z"/><path d="m23.728 21.738c0.195 0.195 0.451 0.293 0.707 0.293s0.512-0.098 0.707-0.293c0.391-0.391 0.391-1.023 0-1.414l-7.071-7.071c-0.391-0.391-1.023-0.391-1.414 0s-0.391 1.023 0 1.414z"/><path d="m38.241 20.159c0.167 0.371 0.531 0.591 0.914 0.591 0.136 0 0.275-0.028 0.408-0.087 0.504-0.227 0.729-0.817 0.504-1.322l-3.787-8.455c-0.227-0.502-0.814-0.729-1.322-0.504-0.504 0.227-0.729 0.817-0.504 1.322z"/><path d="m14.212 33.046 9.026 4.114c0.135 0.062 0.275 0.09 0.414 0.09 0.38 0 0.743-0.217 0.911-0.585 0.229-0.503 7e-3 -1.096-0.495-1.325l-9.026-4.114c-0.503-0.229-1.096-8e-3 -1.325 0.495-0.228 0.503-7e-3 1.095 0.495 1.325z"/><path d="m62.434 57.625c-0.391-0.391-1.023-0.391-1.414 0s-0.391 1.023 0 1.414l7.07 7.071c0.195 0.195 0.451 0.293 0.707 0.293s0.512-0.098 0.707-0.293c0.391-0.391 0.391-1.023 0-1.414z"/><path d="m76.576 71.768c-0.391-0.391-1.023-0.391-1.414 0s-0.391 1.023 0 1.414l7.072 7.071c0.195 0.195 0.451 0.293 0.707 0.293s0.512-0.098 0.707-0.293c0.391-0.391 0.391-1.023 0-1.414z"/><path d="m61.063 71.334c-0.23-0.502-0.822-0.725-1.324-0.493-0.502 0.229-0.723 0.822-0.494 1.325l4.783 10.461c0.168 0.367 0.531 0.584 0.91 0.584 0.139 0 0.281-0.029 0.416-0.091 0.502-0.229 0.723-0.822 0.492-1.325z"/><path d="m86.002 60.425-10.523-3.62c-0.521-0.181-1.09 0.098-1.27 0.62s0.098 1.091 0.619 1.271l10.523 3.62c0.107 0.037 0.217 0.055 0.324 0.055 0.416 0 0.803-0.26 0.945-0.675 0.181-0.523-0.097-1.092-0.618-1.271z"/><path d="m39.155 57.619c-0.391-0.391-1.023-0.391-1.414 0l-7.071 7.071c-0.391 0.391-0.391 1.023 0 1.414 0.195 0.195 0.451 0.293 0.707 0.293s0.512-0.098 0.707-0.293l7.071-7.071c0.39-0.39 0.39-1.023 0-1.414z"/><path d="m23.598 71.763-7.071 7.071c-0.391 0.391-0.391 1.023 0 1.414 0.195 0.195 0.451 0.293 0.707 0.293s0.512-0.098 0.707-0.293l7.071-7.071c0.391-0.391 0.391-1.023 0-1.414s-1.023-0.391-1.414 0z"/><path d="m25.083 57.383c-0.203-0.514-0.785-0.767-1.297-0.563l-9.585 3.788c-0.514 0.202-0.766 0.783-0.563 1.297 0.155 0.394 0.531 0.633 0.93 0.633 0.123 0 0.247-0.022 0.367-0.07l9.585-3.788c0.515-0.203 0.767-0.784 0.563-1.297z"/><path d="m40.298 70.731c-0.5-0.234-1.097-0.015-1.328 0.486l-4.86 10.474c-0.232 0.501-0.015 1.096 0.486 1.328 0.136 0.063 0.279 0.093 0.42 0.093 0.378 0 0.739-0.214 0.908-0.579l4.86-10.474c0.233-0.5 0.015-1.095-0.486-1.328z"/><path d="m61.025 35.886c0.195 0.195 0.451 0.293 0.707 0.293s0.512-0.098 0.707-0.293l7.07-7.071c0.391-0.391 0.391-1.023 0-1.414s-1.023-0.391-1.414 0l-7.07 7.071c-0.39 0.39-0.39 1.023 0 1.414z"/><path d="m75.875 22.036c0.256 0 0.512-0.098 0.707-0.293l7.072-7.072c0.391-0.391 0.391-1.023 0-1.414s-1.023-0.391-1.414 0l-7.072 7.072c-0.391 0.391-0.391 1.023 0 1.414 0.195 0.195 0.451 0.293 0.707 0.293z"/><path d="m75.654 37.249c0.131 0 0.266-0.026 0.395-0.081l9.957-4.282c0.508-0.219 0.742-0.807 0.523-1.314s-0.807-0.739-1.314-0.523l-9.957 4.282c-0.506 0.219-0.74 0.807-0.523 1.314 0.163 0.377 0.533 0.604 0.919 0.604z"/><path d="m60.781 21.179c0.123 0.049 0.248 0.071 0.373 0.071 0.396 0 0.771-0.237 0.928-0.628l3.617-9.022c0.205-0.513-0.043-1.095-0.557-1.301-0.514-0.205-1.094 0.044-1.301 0.557l-3.617 9.022c-0.204 0.513 0.046 1.095 0.557 1.301z"/><path d="m97.846 45.75h-13.192c-0.553 0-1 0.447-1 1s0.447 1 1 1h13.191c0.553 0 1-0.447 1-1s-0.447-1-0.999-1z"/></g></svg>
