<svg xmlns="http://www.w3.org/2000/svg" data-name="Layer 1" viewBox="0 0 100 100" x="0px" y="0px"><path fill="#778899" id="shield-outer" d="M78.47,18.54c0-1.79-.07-3.54-.07-5.22a2.5,2.5,0,0,0-2.5-2.5c-10.09,0-17.76-2.9-24.16-9.12a2.5,2.5,0,0,0-3.49,0c-6.4,6.22-14.07,9.12-24.16,9.12a2.5,2.5,0,0,0-2.5,2.5c0,1.68,0,3.42-.07,5.22-.33,17-.77,40.36,27.65,50.21a2.5,2.5,0,0,0,1.64,0C79.24,58.9,78.8,35.57,78.47,18.54ZM50,63.74c-24.16-8.8-23.8-28.07-23.47-45.1,0-1,0-1.93,0-2.87,9.41-.42,17-3.28,23.42-8.88,6.47,5.6,14,8.46,23.42,8.88,0,.94,0,1.9,0,2.87C73.8,35.66,74.16,54.93,50,63.74Z"/><path fill="#D1A88F" id="hand-right" d="M95.08,35.56a7.47,7.47,0,0,0-12.31,5.68V55.81a7.39,7.39,0,0,0-7.56,1.81l-18,18a13.39,13.39,0,0,0-3.95,9.53V96.5a2.5,2.5,0,0,0,5,0V85.14a8.42,8.42,0,0,1,2.48-6l18-18a2.44,2.44,0,0,1,3.45,3.45L71.76,75a2.5,2.5,0,0,0,3.54,3.54L85.73,68.13a7.48,7.48,0,0,0,2-6.87,2.51,2.51,0,0,0,0-.48V41.25a2.45,2.45,0,0,1,2.07-2.43,2.47,2.47,0,0,1,2.86,2.43V68.53a10.21,10.21,0,0,1-3,7.27L75.21,90.28A2.5,2.5,0,0,0,74.47,92V96.5a2.5,2.5,0,0,0,5,0V93.08L93.23,79.33a15.17,15.17,0,0,0,4.47-10.8V41.25A7.46,7.46,0,0,0,95.08,35.56Z"/><path fill="#D1A88F" id="hand-left" d="M24.79,57.62a7.4,7.4,0,0,0-6.07-2.13,7.48,7.48,0,0,0-1.49.33V41.25a7.47,7.47,0,1,0-14.93,0V68.53a15.17,15.17,0,0,0,4.47,10.8L20.53,93.08V96.5a2.5,2.5,0,0,0,5,0V92a2.5,2.5,0,0,0-.73-1.77L10.31,75.79a10.21,10.21,0,0,1-3-7.27V41.25a2.47,2.47,0,0,1,2.86-2.43,2.45,2.45,0,0,1,2.07,2.43V60.79a2.51,2.51,0,0,0,0,.48,7.48,7.48,0,0,0,2,6.87L24.7,78.57A2.5,2.5,0,0,0,28.24,75L17.81,64.6a2.45,2.45,0,0,1-.33-3,2.44,2.44,0,0,1,3.78-.41l18,18a8.42,8.42,0,0,1,2.48,6V96.5a2.5,2.5,0,0,0,5,0V85.14a13.39,13.39,0,0,0-3.95-9.53Z"/><path fill="#99aacc" id="shield-inner" d="M66.52,20a45.82,45.82,0,0,1-15.2-6,2.5,2.5,0,0,0-2.63,0,45.81,45.81,0,0,1-15.2,6,2.5,2.5,0,0,0-2,2.44c0,15.11,1.26,28.22,17.47,35.65a2.5,2.5,0,0,0,2.08,0C67.25,50.7,68.55,37.59,68.52,22.48A2.5,2.5,0,0,0,66.52,20Zm-30,4.45a51.67,51.67,0,0,0,11-4V51.69C38.63,46.21,36.63,38.08,36.49,24.49Zm16,27.2V20.45a51.71,51.71,0,0,0,11,4C63.37,38.09,61.36,46.21,52.5,51.69Z"/></svg>
