<svg fill="#445599" xmlns="http://www.w3.org/2000/svg" xmlns:xlink="http://www.w3.org/1999/xlink" version="1.1" x="0px" y="0px" viewBox="-1 -1 124 124" style="enable-background:new 0 0 122 121.508;" xml:space="preserve"><g><path fill="#D1A88F" id="finger-2" d="M58.565,60.641c-0.042,0.832-0.331,1.565-0.81,2.172c0.354,1.917,1.933,2.732,3.376,2.835   c1.682,0.12,3.727-0.685,4.209-2.74c0.958-4.628,1.598-16.403,1.645-17.305c-0.2-3.257-2.743-3.671-3.832-3.696   c-2.056-0.055-4.052,1.028-4.176,2.26c-0.002,0.019-0.013,0.033-0.016,0.051l-0.143,6.007c0.221,1.021,0.193,2.172-0.081,3.363   L58.565,60.641z"/><path fill="#D1A88F" id="finger-3" d="M71.48,66.591c1.309-0.022,2.857-0.673,3.314-2.427l1.245-13.64c0.252-1.528-0.248-2.509-0.915-3.148   c-0.003-0.003-0.006-0.006-0.009-0.009c-0.462-0.439-1.001-0.72-1.434-0.883c-1.841-0.692-4.03-0.355-4.783,0.709   c-0.209,3.532-0.781,12.164-1.606,16.145c-0.014,0.061-0.042,0.111-0.058,0.171C67.941,65.662,69.861,66.582,71.48,66.591z"/><path fill="#D1A88F" id="finger-1" d="M52.525,39.472c-1.966,0.017-3.987,1.132-4.068,3.588l-0.199,6.556c1.742-0.94,3.204-1.766,3.841-2.212   c0.027-0.02,0.057-0.037,0.086-0.054c1.685-0.941,3.394-0.975,4.705-0.127l0.092-3.806c-0.137-2.708-2.307-3.946-4.411-3.946   C52.556,39.472,52.541,39.472,52.525,39.472z"/><path fill="#D1A88F" id="finger-1b" d="M51.646,60.363c-0.452,0.223-0.795,0.611-0.975,1.073c0.936,1.034,2.771,1.333,4.104,0.983   c0.643-0.169,1.729-0.634,1.791-1.854l0.074-3.036c-0.518,0.495-1.112,0.926-1.78,1.253L51.646,60.363z"/><path fill="#000000" id="body-1" d="M60.986,29.601c-3.859,0-7,3.141-7,7c0,0.348,0.034,0.693,0.085,1.035c1.912,0.408,3.712,1.608,4.5,3.712   c1.236-0.951,3.001-1.466,4.628-1.441c1.137,0.027,2.321,0.324,3.321,0.971c0.946-1.221,1.465-2.707,1.465-4.276   C67.986,32.741,64.846,29.601,60.986,29.601z"/><path fill="#000000" id="head-4" d="M15.888,52.359c-0.205-2.669-2.462-4.759-5.139-4.759H9.496c1.013,4.551,2.327,8.987,3.928,13.288   c0.177-2.229,1.179-4.22,2.683-5.695L15.888,52.359z"/><path fill="#000000" id="body-6" d="M87.044,54.385l-0.156-2.026c-0.205-2.669-2.462-4.759-5.139-4.759h-4.068c0.33,0.773,0.464,1.641,0.394,2.578   c1.043-0.458,2.289-0.653,3.399-0.556c2.661,0.24,4.454,1.945,4.795,4.562c0.009,0.063,0.011,0.127,0.007,0.19l-0.041,0.676   C86.491,54.81,86.763,54.593,87.044,54.385z"/><path fill="#000000" id="body-2" d="M39.705,79.149c-1.341-2.557-2.728-5.2-4.55-7.168c-1.406-1.518-1.961-3.571-1.482-5.493   c0.574-2.308,1.373-5.116,2.354-7.565c-1.077-2.595-3.611-4.323-6.448-4.323h-7.184c-3.635,0-6.701,2.839-6.979,6.463l-0.311,4.051   c7.248,17.041,19.141,31.726,34.804,42.616l-0.414-17.688C44.479,88.218,41.979,83.486,39.705,79.149z"/><path fill="#000000" id="head-1" d="M12.986,37.601c0-2.757-2.219-5-4.945-5c-0.255,0-0.507,0.02-0.756,0.058c0.25,3.354,0.661,6.66,1.217,9.917   C10.982,42.343,12.986,40.198,12.986,37.601z"/><path fill="#D1A88F" id="thumb-and-palm" d="M83.046,80.934L83.5,68.261c-0.927,0.476-2.04,0.721-3.125,0.721c-0.193,0-0.385-0.008-0.573-0.022   c-1.856-0.146-3.319-0.955-4.171-2.206c-0.975,1.126-2.427,1.808-4.117,1.836c-0.034,0.001-0.067,0.001-0.102,0.001   c-1.915,0-4.059-0.918-5.34-2.904c-1.196,1.348-2.973,1.972-4.616,1.972c-0.157,0-0.313-0.006-0.468-0.017   c-2.02-0.144-4.123-1.308-4.947-3.55c-0.239,0.101-0.49,0.191-0.758,0.261c-0.515,0.136-1.08,0.206-1.66,0.206   c-1.174,0-2.408-0.292-3.421-0.924c-0.082,0.384-0.167,0.763-0.248,1.089c4.521,2.866,5.47,5.865,6.472,9.033   c0.556,1.755,1.13,3.569,2.392,5.492c0.303,0.462,0.175,1.082-0.287,1.385c-0.461,0.304-1.081,0.174-1.385-0.287   c-1.414-2.154-2.058-4.19-2.627-5.986c-1.01-3.193-1.809-5.716-6.236-8.314c-0.412-0.241-0.596-0.74-0.438-1.19   c0.162-0.466,0.543-2.195,0.74-3.365c0.002-0.012,0.008-0.023,0.01-0.035c0.004-0.018,0.01-0.033,0.015-0.051   c0.237-1.227,1.031-2.285,2.154-2.838l3.215-1.581c1.035-0.508,1.847-1.318,2.288-2.282c1.195-2.616,0.732-4.736-0.202-5.6   c-0.703-0.647-1.719-0.657-2.864-0.031c-2.203,1.517-12.019,6.497-13.709,7.352c-0.511,0.779-0.99,1.771-1.435,2.841   c-0.019,0.055-0.036,0.108-0.064,0.158c-1.051,2.566-1.891,5.589-2.378,7.547c-0.315,1.265,0.062,2.629,1.008,3.65   c2.003,2.163,3.452,4.927,4.854,7.599c3.182,6.068,6.195,11.803,15.357,10.392c0.554-0.087,1.057,0.291,1.141,0.836   c0.084,0.546-0.291,1.057-0.836,1.141c-1.063,0.163-2.056,0.24-2.984,0.24c-0.948,0-1.823-0.089-2.646-0.24l0.433,18.534   c2.894,1.912,5.911,3.698,9.045,5.348c5.336-2.81,10.328-6.015,14.959-9.566l0.039-14.342c-0.326,0.023-0.657,0.038-0.998,0.038   c-0.553,0-1-0.447-1-1s0.447-1,1-1c2.491,0,4.45-0.698,5.823-2.075C83.03,84.298,83.046,80.967,83.046,80.934z"/><path fill="#000000" id="body-3" d="M37.066,56.653c0.296-0.571,0.601-1.113,0.921-1.573c0.096-0.136,0.223-0.247,0.371-0.321   c0.068-0.035,4.123-2.081,7.864-4.056l0.094-3.064c-0.188-0.021-0.377-0.037-0.567-0.037h-5.525c-2.677,0-4.934,2.09-5.139,4.758   l-0.156,2.023C35.766,55.001,36.483,55.772,37.066,56.653z"/><path fill="#000000" id="head-3" d="M43.041,32.601c-2.728,0-4.946,2.243-4.946,5s2.219,5,4.946,5c2.727,0,4.945-2.243,4.945-5S45.768,32.601,43.041,32.601z"/><circle fill="#000000" id="head-2" cx="25.986" cy="41.601" r="7"/><path fill="#223377" id="shield-background" d="M60.986,8.005C43.231,25.133,13.076,25.691,6.991,25.623c0.016,1.693,0.085,3.372,0.178,5.045   c0.289-0.037,0.578-0.067,0.872-0.067c3.83,0,6.945,3.141,6.945,7c0,3.578-2.678,6.533-6.12,6.946   c0.067,0.352,0.133,0.704,0.203,1.054h1.679c3.716,0,6.849,2.901,7.133,6.605l0.12,1.562c1.307-0.739,2.805-1.168,4.392-1.168   h7.184c1.205,0,2.358,0.265,3.428,0.707l0.085-1.103c0.284-3.703,3.417-6.604,7.133-6.604h5.525c0.211,0,0.419,0.023,0.628,0.041   l0.059-1.941c-1.005,0.571-2.162,0.9-3.396,0.9c-3.83,0-6.946-3.141-6.946-7s3.116-7,6.946-7s6.945,3.141,6.945,7   c0,0.125-0.012,0.248-0.019,0.371c0.664-0.268,1.37-0.426,2.072-0.479c-0.029-0.296-0.053-0.594-0.053-0.893c0-4.963,4.037-9,9-9   s9,4.037,9,9c0,2.096-0.712,4.082-2.022,5.685c0.446,0.653,0.775,1.455,0.93,2.432c1.617-0.77,3.765-0.754,5.491-0.105   c0.68,0.256,1.273,0.59,1.776,0.99c0.021,0,0.041-0.002,0.062-0.002h5.525c3.716,0,6.849,2.901,7.133,6.605l0.084,1.092   c1.069-0.44,2.223-0.698,3.428-0.698h7.184c1.587,0,3.085,0.429,4.392,1.168l0.121-1.563c0.284-3.703,3.417-6.604,7.133-6.604   h1.679c0.072-0.356,0.138-0.713,0.207-1.07c-3.39-0.461-6.015-3.389-6.015-6.93c0-3.859,3.116-7,6.946-7   c0.257,0,0.51,0.027,0.763,0.055c0.093-1.669,0.161-3.344,0.177-5.033C108.882,25.665,78.743,25.133,60.986,8.005z M25.986,50.601   c-4.963,0-9-4.037-9-9s4.037-9,9-9s9,4.037,9,9S30.949,50.601,25.986,50.601z M79.041,44.601c-3.83,0-6.946-3.141-6.946-7   s3.116-7,6.946-7s6.945,3.141,6.945,7S82.871,44.601,79.041,44.601z M95.986,50.601c-4.963,0-9-4.037-9-9s4.037-9,9-9s9,4.037,9,9   S100.949,50.601,95.986,50.601z"/><circle fill="#000000" id="head-6" cx="95.986" cy="41.601" r="7"/><path fill="#000000" id="head-5" d="M79.041,32.601c-2.728,0-4.946,2.243-4.946,5s2.219,5,4.946,5c2.727,0,4.945-2.243,4.945-5S81.768,32.601,79.041,32.601z"/><path fill="#445599" id="shield-border" d="M60.986,0C41.147,19.029,6.494,19.547,0,19.455c0.047,3.305,0.206,13.627,0.45,17.991   c2.497,22.485,13.697,63.325,60.536,84.062c46.862-20.747,58.066-61.581,60.568-84.116c0.24-4.318,0.399-14.634,0.445-17.937   C115.507,19.549,80.83,19.032,60.986,0z M77.716,106.056c-0.107,0.135-0.238,0.249-0.401,0.314   c-4.899,3.77-10.193,7.164-15.867,10.117c-0.145,0.075-0.304,0.113-0.462,0.113s-0.317-0.038-0.462-0.113   c-3.456-1.799-6.767-3.764-9.94-5.873c-0.133-0.053-0.248-0.134-0.346-0.235C21.699,91.247,4.986,59.974,4.986,24.601   c0-0.271,0.11-0.531,0.307-0.72c0.196-0.189,0.471-0.305,0.73-0.279C6.381,23.607,41.645,24.7,60.276,5.896   c0.375-0.379,1.045-0.379,1.42,0c18.632,18.805,53.896,17.716,54.253,17.705c0.244-0.025,0.535,0.09,0.73,0.279   c0.196,0.188,0.307,0.448,0.307,0.72C116.986,57.425,102.593,86.717,77.716,106.056z"/><path fill="#000000" id="head-7" d="M109.095,37.601c0,2.561,1.922,4.654,4.38,4.942c0.554-3.249,0.964-6.549,1.213-9.895   c-0.214-0.028-0.429-0.047-0.647-0.047C111.313,32.601,109.095,34.844,109.095,37.601z"/><path fill="#000000" id="body-7" d="M106.085,52.358l-0.219,2.836c1.504,1.475,2.505,3.466,2.682,5.695c1.601-4.301,2.915-8.737,3.928-13.288h-1.253   C108.547,47.601,106.29,49.69,106.085,52.358z"/><path fill="#D1A88F" id="finger-4" d="M79.958,66.966c1.732,0.146,3.403-0.587,3.646-1.557l0.418-6.906c0-0.008,0.001-0.017,0.001-0.025l0.25-4.125   c-0.31-2.066-1.786-2.631-2.979-2.738c-1.748-0.155-3.205,0.628-3.462,1.243l-1.025,11.254   C76.913,66.469,79.043,66.894,79.958,66.966z"/><path fill="#000000" id="body-6" d="M99.578,54.601h-7.184c-2.773,0-5.257,1.627-6.383,4.148l-0.415,6.854l-0.551,15.361c0.002,0.124,0.004,4.126-2.803,6.957   c-1.14,1.15-2.568,1.927-4.257,2.337l-0.035,13.066c12.777-10.317,22.607-23.371,28.919-38.21l-0.311-4.051   C106.279,57.439,103.213,54.601,99.578,54.601z"/></g></svg>