<svg fill="#228b22" xmlns="http://www.w3.org/2000/svg" xmlns:xlink="http://www.w3.org/1999/xlink" xml:space="preserve" version="1.1" style="shape-rendering:geometricPrecision;text-rendering:geometricPrecision;image-rendering:optimizeQuality;" viewBox="0 0 645 736" x="0px" y="0px" fill-rule="evenodd" clip-rule="evenodd"><defs><style type="text/css">
   
    .fil0 {fill:#228b22}
   
  </style></defs><g><path class="fil0" d="M299 342c-16,-13 -69,-58 -88,-55 0,0 -18,10 -24,-1 -24,-36 -160,-8 -170,3l77 15c68,16 73,-17 98,-9l-77 52c-49,12 -51,28 -99,71 -42,37 11,7 11,7 66,-45 131,-111 -3,5 -18,16 60,-24 62,-25 18,-7 32,-27 38,-45 7,-21 41,-42 23,-17 -71,106 -62,160 2,10 2,-5 -9,30 -20,51 -46,88 30,-28 37,-54 11,-37 2,-33 35,-51 4,-2 17,-5 15,3 -2,10 -20,8 -29,26l-36 100c-2,7 -27,56 -4,24l49 -106c-29,85 -73,149 -12,68 20,-26 41,-52 42,-88 0,-7 -27,-53 56,15 28,23 26,10 17,1z"></path><path class="fil0" d="M340 727c-52,10 -66,27 -56,-47 16,-116 25,-132 21,-259 -2,-55 -16,-41 51,-58l-53 10c-9,1 -4,-20 3,-18 5,2 -2,-15 -7,-18 -12,-6 -29,-133 -30,-148 -1,-15 -24,-21 25,-12l-25 -11c5,-62 -10,-55 3,-159 1,-7 47,-13 49,3l8 123c0,0 -34,31 -8,35 40,5 11,56 24,94l16 58c5,25 23,28 9,63 0,0 -1,162 -12,199 -5,9 27,14 -44,28 -3,1 31,2 42,-9 2,-1 5,-6 8,-3 15,17 -93,39 -13,19 36,-9 16,-16 11,46 -3,41 15,58 -22,64z"></path><path class="fil0" d="M314 159c1,11 18,9 21,5l16 -42c12,-28 17,-10 13,-3 -18,31 -2,105 0,104 36,-25 -22,-121 17,-59 -4,-85 -27,-55 -29,-60l13 -16c9,-14 29,19 24,46 -4,29 10,30 30,74 15,31 58,62 30,25 -32,-43 -45,-112 -19,-42 22,61 28,39 8,-17l-38 -55c-6,-9 -10,-22 -15,-30 -1,-1 -16,-13 7,-5 12,4 0,22 30,52 13,14 21,17 36,27 15,11 17,40 19,35 19,-35 -74,-81 -60,-88 1,-1 3,2 8,7 15,16 28,22 41,35 5,4 13,20 13,17 16,-63 -130,-93 -92,-98 5,-1 25,0 24,0 -5,-6 -45,-8 -50,11 -7,20 -24,4 -17,21 5,14 -30,51 -30,56z"></path><path class="fil0" d="M409 530c-23,-52 -3,-110 3,-105 2,3 11,-15 9,-20 -13,-26 12,-55 39,-88 71,-90 55,-60 20,34 -16,40 -48,36 -54,64l84 -39c33,-33 83,-42 133,-53 5,-1 4,12 -54,27l-35 16c91,-28 109,-46 34,5 -53,36 -43,18 -83,16 -4,0 -47,16 -15,15l113 10 -86 2c44,8 116,2 29,11 -24,2 -40,9 -60,-4 -52,-32 -88,33 -59,17 40,-22 89,0 159,15l-87 -2c51,11 112,7 61,16 -151,26 -138,-53 -148,-5 -13,62 15,61 7,76 -5,8 -9,-5 -10,-8z"></path><path class="fil0" d="M408 558l11 -13 -2 -4c-6,4 -5,-10 -11,-3 -4,3 -4,8 -10,13 -8,8 -30,20 -35,28 -16,30 44,-19 45,-21l2 0z"></path></g></svg>