<svg fill="#006644" xmlns="http://www.w3.org/2000/svg" xmlns:xlink="http://www.w3.org/1999/xlink" version="1.1" x="0px" y="0px" viewBox="0 0 99.856 99.89" enable-background="new 0 0 99.856 99.89" xml:space="preserve"><g><path d="M30.449,21.133c0,0.264,0.044,0.576,0.069,0.864c0.005,0.008,0.013,0.014,0.019,0.019c0.834,0.967,1.997,1.454,3.192,1.459   c0.98-0.005,1.948-0.333,2.744-1.013c0.973-0.838,1.457-2.001,1.462-3.191c-0.005-0.986-0.34-1.954-1.029-2.76   c-0.363-0.429-0.876-0.973-1.445-1.558c-0.546,0.14-1.106,0.319-1.648,0.579C31.989,16.468,30.494,17.831,30.449,21.133z    M23.677,14.742c0,0.326,0.049,0.706,0.086,1.073c1.417,1.095,2.811,2.283,4.13,3.523c0.553-3.252,2.65-5.292,4.753-6.246   c0.219-0.103,0.439-0.19,0.657-0.278c-1.469-1.415-3.087-2.912-4.599-4.257c-0.55,0.137-1.113,0.318-1.658,0.582   C25.223,10.075,23.727,11.434,23.677,14.742z M31.288,58.174c-1.672-0.024-3.279,0.428-4.462,1.057   c-0.089,0.972-0.125,1.847-0.129,2.568c0,1.332,0.105,2.175,0.133,2.381c0.352,2.658,2.644,4.592,5.234,4.592   c0.229,0,0.475-0.016,0.719-0.045c2.848-0.462,4.41-2.379,4.533-6.008v-0.178c0-0.013-0.023-0.356-0.018-0.592   c-0.005-0.126-0.005-0.2-0.005-0.222c0.004-0.33,0.024-0.716,0.054-1.127C35.812,58.904,33.594,58.201,31.288,58.174z    M25.879,6.696c0.155-0.074,0.31-0.132,0.465-0.196c-0.147-0.125-0.277-0.23-0.416-0.346c-2.904,1.594-5.626,3.483-8.142,5.604   c1.02,0.6,2.104,1.283,3.241,2.067C21.323,10.059,23.594,7.737,25.879,6.696z M89.3,63.458c0,1.195-0.164,2.525-0.486,3.971   c0.47-0.086,0.954-0.193,1.42-0.271c0.096-0.011,1.557-0.218,3.723-0.218c0.849,0,1.821,0.04,2.854,0.127   c1.417-3.876,2.411-7.954,2.829-12.211c-3.284,0.558-7.646,1.38-12.063,2.324C88.539,58.667,89.305,60.71,89.3,63.458z    M81.301,37.774c-0.287-6.889-3.279-8.56-5.511-9.046c-2.118,1.407-4.94,2.581-8.701,3.581c1.799,1.724,3.548,4.371,3.592,8.207   c0,0.593-0.062,1.217-0.156,1.852C74.643,41.225,78.187,39.768,81.301,37.774z M67.626,43.112c0.232-0.943,0.348-1.814,0.348-2.597   c-0.006-2.987-1.413-5.008-2.906-6.394c-0.458-0.422-0.894-0.749-1.303-1.026c-2.762,0.582-5.916,1.111-9.608,1.584   c1.246,1.732,2.347,4.101,2.367,7.25c0,0.998-0.121,2.058-0.37,3.173C60.407,44.524,64.216,43.898,67.626,43.112z M80.025,27.812   c1.895,1.504,3.427,4.099,3.871,8.097c2.454-2.025,4.409-4.342,6.001-7.007c-0.007-0.011,1.175-1.979,2.613-4.99   c-2.095-3.413-4.543-6.582-7.367-9.389c-2.961,6.179-4.887,9.87-6.944,12.168C78.806,26.977,79.422,27.332,80.025,27.812z    M69.268,56.59c6.854-2.866,22.544-5.934,30.588-7.258c-0.082-6.955-1.592-13.56-4.241-19.557   c-0.641,1.184-1.058,1.882-1.073,1.909c-1.979,3.321-4.511,6.32-7.756,8.874c-8.099,6.214-17.921,8.322-30.896,10.054   c-8.189,1.243-9.996,3.435-11.539,5.447c-1.244,1.725-1.649,4.395-1.645,5.591h0.001c0,0.074,0,0.074,0,0.079h-1.377l1.377,0.071   c0.006,0.212,0.011,0.33,0.021,0.647c0,0.055,0,0.15,0.007,0.272c0.122,5.574-3.501,10.671-9.254,11.376   c-0.451,0.058-0.919,0.095-1.416,0.095c-5.29-0.005-9.871-3.913-10.595-9.28c-0.057-0.395-0.186-1.495-0.186-3.121   c0.012-3.679,0.591-10.68,5.296-17.719c4.766-7.25,13.841-13.21,26.579-14.724c11.978-1.424,18.148-3.712,20.434-5.68   c1.056-0.658,3.447-4.653,7.347-12.84C72.421,4.067,61.664,0,49.939,0C43.348,0,37.07,1.307,31.308,3.628   c3.354,2.93,7.604,6.928,9.704,9.355c1.563,1.809,2.336,4.062,2.336,6.288c0.005,2.687-1.135,5.389-3.344,7.299   c-1.807,1.544-4.055,2.319-6.275,2.319c-2.687,0.005-5.396-1.13-7.293-3.334c-3.225-3.84-9.666-8.28-12.73-9.912   C5.232,24.591,0,36.642,0,49.938c0,22.976,15.533,42.282,36.65,48.107C42.612,74.489,55.594,62.201,69.268,56.59z M71.375,73.571   c1.366-0.851,2.763-1.604,4.179-2.239c1.838-0.796,3.709-1.44,5.578-2.017c0.48-1.164,0.723-2.356,0.723-3.512   c-0.019-2.688-1.193-5.101-3.27-6.51c-2.979,0.779-5.548,1.565-7.219,2.287c-1.95,0.816-3.878,1.79-5.77,2.903   c0.584,0.259,1.175,0.592,1.752,1.016C69.362,66.966,70.997,69.565,71.375,73.571z M41.947,99.192   c2.609,0.421,5.266,0.698,7.992,0.698c0.796,0,1.572-0.082,2.358-0.119c0.84-2.945,1.942-5.745,3.26-8.379   c-4.452-0.027-7.744-1.62-9.92-3.181C44.233,91.505,42.997,95.157,41.947,99.192z M91.066,72.506   c-4.326,0.73-9.031,1.914-13.341,3.783c-8.017,3.536-15.883,12.005-19.573,22.868c15.955-2.644,29.331-12.825,36.373-26.789   c-0.189-0.005-0.391-0.015-0.568-0.015C92.137,72.354,91.002,72.517,91.066,72.506z M39.924,52.935   c0.148-0.217,0.333-0.438,0.501-0.66c-3.075-3.157-5.729-3.98-7.809-3.991c-0.941,0-1.778,0.183-2.515,0.432   c-1.471,2.599-2.316,5.126-2.791,7.372c1.239-0.395,2.594-0.605,3.977-0.622c2.234-0.021,4.619,0.611,6.586,2.023   C38.26,56.038,38.885,54.465,39.924,52.935z M62.562,66.424c-2.258,1.584-4.44,3.427-6.511,5.582   c2.897,0.743,6.225,2.784,8.003,7.446c1.487-1.502,3.064-2.854,4.693-4.066C68.611,68.225,65.083,66.808,62.562,66.424z    M53.881,74.42c-2.622,3.142-5.021,6.851-7.117,11.24c0.205,0.162,0.383,0.315,0.616,0.477c1.845,1.277,4.573,2.55,8.228,2.55   c0.461,0,0.984-0.077,1.481-0.119c1.441-2.454,3.068-4.733,4.849-6.805C60.262,75.837,56.641,74.682,53.881,74.42z M47.92,47.01   c-0.273-6.261-3.163-8.458-5.111-9.379c-4.69,2.049-8.206,4.889-10.628,7.983c0.149-0.008,0.284-0.035,0.437-0.035   c2.84-0.016,6.222,1.224,9.67,4.718C43.651,49.088,45.485,47.943,47.92,47.01z M53.215,45.577c0.41-1.348,0.6-2.567,0.604-3.647   c-0.005-2.869-1.164-4.934-2.356-6.354c-0.128-0.151-0.247-0.259-0.373-0.396c-1.793,0.33-3.519,0.721-5.097,1.234   c0.058,0.045,0.115,0.079,0.172,0.126c2.096,1.674,4.098,4.726,4.446,9.61C51.421,45.934,52.292,45.743,53.215,45.577z    M85.873,68.036c0.512-1.781,0.727-3.304,0.727-4.578c-0.015-2.827-0.962-4.561-1.928-5.639c-0.991,0.223-1.964,0.451-2.921,0.681   c1.809,1.953,2.824,4.576,2.808,7.304c0.003,0.869-0.125,1.756-0.326,2.634C84.781,68.299,85.328,68.159,85.873,68.036z"/></g>></svg>