<svg fill="#8A57E5" xmlns="http://www.w3.org/2000/svg" xmlns:xlink="http://www.w3.org/1999/xlink" version="1.2" baseProfile="tiny" x="0px" y="0px" viewBox="0 0 100 100" xml:space="preserve"><g><path d="M54.7,81.8c-2.3,0-4.2,1.9-4.2,4.2s1.9,4.2,4.2,4.2s4.3-1.8,4.3-4.1S57.1,81.8,54.7,81.8z"></path><path d="M63.7,90.8c-2.3,0-4.2,1.9-4.2,4.2s1.9,4.2,4.2,4.2S68,97.3,68,95S66.1,90.8,63.7,90.8z"></path><path d="M63.7,76.8c-2.3,0-4.2,1.9-4.2,4.2s1.9,4.2,4.2,4.2S68,83.3,68,81S66.1,76.8,63.7,76.8z"></path><g><path d="M42.9,35.3c-1.9,1.9-2.9,4.3-2.9,7c0,2.7,1,5.1,2.9,7c1.9,1.9,4.3,2.9,7,2.9c2.7,0,5.1-1,7-2.9c3.8-3.8,3.8-10.1,0-13.9    c-1.9-2-4.4-3-7-3C47.3,32.4,44.8,33.4,42.9,35.3z"></path><path d="M84.2,44.2c-1.8-7.2-6.8-15.3-13.9-22.4S55.1,9.7,47.9,7.9l0-1.8c0-2.9-2.4-5.3-5.3-5.3c-2.9,0-5.3,2.4-5.3,5.3v2.1    c-0.6,0.3-1.2,0.6-1.7,0.9l-0.1,0.1C32.2,12,29,15,26,18.1c-3.1,3.1-6,6.3-8.9,9.5L17,27.7c-0.3,0.5-0.6,1.1-0.9,1.7H14    c-2.9,0-5.3,2.4-5.3,5.3c0,2.9,2.4,5.3,5.3,5.3h1.8c1.8,7.2,6.8,15.3,13.9,22.4c7.4,7.4,15.9,12.5,23.4,14.1c0.1,0,0.2,0,0.3,0    c0.3,0,0.6-0.1,0.8-0.3c0.3-0.3,0.5-0.6,0.4-1L54.3,71l2.1,2.1c0.3,0.2,0.6,0.4,0.9,0.4c0.4,0,0.7-0.2,0.9-0.5l2.1-2.6l2.2,4.3    c0.2,0.3,0.5,0.6,0.9,0.7c0.4,0.1,0.8,0,1.1-0.3c3.3-2.8,6.5-5.8,9.5-8.9c3.1-3.1,6-6.3,8.9-9.5l0.1-0.1c0.3-0.5,0.6-1.1,0.9-1.7    H86c2.9,0,5.3-2.4,5.3-5.3c0-2.9-2.4-5.4-5.3-5.4H84.2z M63.3,30c0.5,3.2-0.6,5.8-1.5,7.4c1.8,0.4,4.7,1.5,6.6,4.1    c0.1,0.4,0.1,1-0.2,1.4c-1.9,2.6-4.8,3.7-6.6,4.1c0.9,1.5,2.1,4.2,1.5,7.4c-0.1,0.5-0.5,0.9-1,1c-0.6,0.1-1.1,0.1-1.6,0.1    c-2.4,0-4.5-0.9-5.7-1.7c-0.4,1.8-1.5,4.7-4.1,6.6c-0.2,0.2-0.5,0.2-0.7,0.2c-0.2,0-0.5-0.1-0.7-0.2c-2.6-1.9-3.7-4.8-4.1-6.6    c-1.3,0.8-3.3,1.7-5.7,1.7c-0.5,0-1.1,0-1.6-0.1c-0.5-0.1-0.9-0.5-1-1c-0.5-3.2,0.6-5.8,1.5-7.4c-1.8-0.4-4.7-1.5-6.6-4.1    c-0.3-0.4-0.3-1,0-1.4c1.9-2.6,4.8-3.7,6.6-4.1c-0.9-1.5-2.1-4.2-1.5-7.4c0.1-0.5,0.5-0.9,1-1c3.2-0.5,5.8,0.6,7.4,1.5    c0.4-1.8,1.5-4.7,4.1-6.6c0.4-0.3,1-0.3,1.4,0c2.6,1.9,3.7,4.8,4.1,6.6c1.5-0.9,4.2-2.1,7.4-1.5C62.8,29.1,63.2,29.5,63.3,30z"></path></g></g></svg>
