<svg fill="#8A57E5" xmlns="http://www.w3.org/2000/svg" viewBox="0.2 0.2 4.6 4.6" x="0px" y="0px"><path d="M1.7883,4.114c-.09383-.02206-.10888-.03576-.09983-.1309a1.93487,1.93487,0,0,1,.04493-.21869.217.217,0,0,0,.00736-.06883c-.01058.02092-.0225.04127-.0315.06285-.03523.08449-.07083.16888-.1031.25452a.16483.16483,0,0,0,.00248.0591.23333.23333,0,0,1,.00121.0919,1.45489,1.45489,0,0,1-.084.1469c-.01274.02245-.021.04748-.034.06971a.31772.31772,0,0,1-.04676.0657c-.0176.01749-.04559.03062-.06436.00538a.09418.09418,0,0,1-.02009-.069c.015-.05392.041-.10468.05972-.15771a.10616.10616,0,0,0-.003-.04545.25838.25838,0,0,1-.01154-.087,1.06546,1.06546,0,0,1,.07033-.21843c.02873-.05827.05524-.12953.13937-.13815.01026-.00105.02129-.01651.02791-.02769.03826-.06455.07613-.12936.112-.19525a.08356.08356,0,0,0,.00411-.0444c-.00277-.03158-.00795-.063-.01225-.09528-.02348.04228-.04707.08541-.07128.12819a.442.442,0,0,1-.14372.13911.8567.8567,0,0,0-.10461.0993c-.00749.0074-.0109.02134-.01934.025-.08338.03622-.09619.11763-.11987.19a.088.088,0,0,1-.08384.07319c-.05423.00691-.07908.06036-.106.10587a.08616.08616,0,0,1-.05764.039c-.01579.00115-.03883-.02176-.04867-.03951a.07775.07775,0,0,1,.00494-.05224.48977.48977,0,0,1,.14879-.18951.17521.17521,0,0,1,.02737-.0172c-.082-.05471-.04576-.12118-.02158-.17269a2.07081,2.07081,0,0,1,.13064-.20332A.82923.82923,0,0,0,1.327,3.4033l-.01664-.01255c-.02244.01585-.04594.03042-.06714.04779a3.08588,3.08588,0,0,0-.24869.21023.3989.3989,0,0,1-.11873.09976A1.504,1.504,0,0,1,.718,3.80811C.707,3.81146.68145,3.795.6766,3.78226a.05087.05087,0,0,1,.01577-.04583c.04353-.03062.09116-.05534.13551-.08488a.092.092,0,0,0,.028-.03906A.52213.52213,0,0,1,.895,3.5167a.79121.79121,0,0,1,.309-.23992.1221.1221,0,0,1,.13416.00133L1.386,3.18565c-.02933-.01959-.06332-.03178-.07926-.0559A.31562.31562,0,0,1,1.284,3.0279c-.03552.01669-.07311.03113-.10749.05111a1.02546,1.02546,0,0,1-.34175.11478A.1123.1123,0,0,1,.77607,3.191a.43653.43653,0,0,0-.301.01284.066.066,0,0,1-.05571-.0109c-.0087-.00863-.00027-.035.00162-.05344L.42958,3.129a.47048.47048,0,0,1,.25721-.0969A.07193.07193,0,0,0,.7306,3.01257a.19843.19843,0,0,0,.03608-.04741c.09247-.15471.24579-.12036.3862-.12314a.53857.53857,0,0,1,.07872.01951.04358.04358,0,0,0,.03816-.0196c-.0454-.00813-.09125-.01432-.13609-.02483a.12237.12237,0,0,1-.10134-.13752.12092.12092,0,0,1,.11688-.11432.237.237,0,0,0,.16723-.07972c-.03468-.00962-.06749-.02123-.10129-.02765A1.25863,1.25863,0,0,1,.79586,2.3033a.19892.19892,0,0,0-.1646-.0167c-.05924.01265-.11979.01948-.17994.02751-.03919.00523-.0557-.01739-.05957-.05323C.38766,2.223.40337,2.193.44045,2.19018a.79175.79175,0,0,1,.13139.00893c.01649.00152.03266.00673.04914.008a.059.059,0,0,0,.07361-.05245c.0104-.04828.04478-.06741.104-.06183.08683.00817.17341.02036.25956.03414.08756.014.17444.0322.26172.04806a.122.122,0,0,0,.04431-.00233c-.09765-.07776-.17032-.163-.099-.30333a.498.498,0,0,0-.32847.03595c.02151.01083.03722.01989.05382.02683.02729.01141.052.02661.0447.06017-.00757.03472-.037.03523-.06631.03313a.34189.34189,0,0,0-.19326.02077A.06249.06249,0,0,1,.69042,2.0241.07784.07784,0,0,1,.68774,1.926a.38123.38123,0,0,1,.04968-.048C.69309,1.85764.64875,1.83841.60536,1.81724c-.05347-.02609-.07226-.08207-.0345-.11372a.09125.09125,0,0,1,.077-.01781.796.796,0,0,1,.14044.08535c.03866.02747.01589.06267-.002.09887H.85148a.20923.20923,0,0,1,.00189-.08152.08261.08261,0,0,1,.09787-.04319,2.60331,2.60331,0,0,0,.46975.03861c.01965.00107.03926.003.06264.0048C1.47734,1.757,1.46355,1.74411,1.431,1.746a.0889.0889,0,0,1-.05714-.01677c-.11884-.09865-.23594-.19939-.35336-.29931-.01339.01235-.02888.03836-.0473.04064a.12112.12112,0,0,1-.07132-.02348.79285.79285,0,0,1-.11331-.08574C.7766,1.35023.76881,1.31587.77645,1.30688a.0674.0674,0,0,1,.05791-.01807A.33276.33276,0,0,1,.909,1.33267l.056.03319a.5049.5049,0,0,1,.017-.04891.05249.05249,0,0,1,.08877-.00658c.04534.04746.08381.1014.12739.15065.03551.04014.07422.07745.11152.116l.01-.00938c-.02458-.05849-.05218-.11593-.07278-.17579a.62994.62994,0,0,1-.03336-.14646.27742.27742,0,0,1,.02976-.09114c-.03464-.02559-.0772-.05685-.11955-.08839a.29256.29256,0,0,1-.04646-.0369A.06675.06675,0,0,1,1.10171.91988.16188.16188,0,0,0,1.141.89694a.11217.11217,0,0,1,.18827.0293c.02265.03624.03914.07672.06443.11083.03436.04636.07419.08871.1123.13224.01.01146.02736.019.03233.03182.0061.01575.01031.04139.00185.05164-.01605.01945-.03673.0126-.05326-.00876a.5639.5639,0,0,0-.169-.172c-.018-.0096-.03687-.01773-.05534-.02654l-.00629.01024a.31224.31224,0,0,1,.04009.03324c.02323.02657.04311.05609.06657.08243.02729.03065.05849.05787.08525.08894.06585.0765.13022.15428.19485.23182a.10069.10069,0,0,1,.01038.02052l.01526-.00914c-.01834-.06289-.0397-.12509-.05437-.18883-.0298-.12946-.05575-.2598-.0838-.38966A.10494.10494,0,0,1,1.57194.80661.17156.17156,0,0,1,1.72233.79833c.09057.03163.13675.11041.19458.176.0573.065.1082.13559.165.20767l.06568-.03074-.00414-.01352a.09979.09979,0,0,0-.01959-.00328c-.04672.00137-.07356-.01747-.07909-.06339A2.43081,2.43081,0,0,1,2.0189.79751C2.01847.72663,1.96245.68664,1.946.62748A.83194.83194,0,0,1,1.91638.46814c-.00352-.04657.03392-.06673.0741-.07353A.06118.06118,0,0,1,2.06024.4483,1.1017,1.1017,0,0,1,2.0772.598c.00286.034.00118.06393.05116.06858.03657.0034.05685.06907.0506.12077-.01075.089-.01879.17825-.02705.26749a.06832.06832,0,0,0,.01394.04608c.02247-.03341.04371-.06773.06765-.10006A2.26462,2.26462,0,0,1,2.41483.76474.36782.36782,0,0,0,2.486.55231C2.49756.49754,2.51007.44712,2.57237.429A.07036.07036,0,0,1,2.66582.51c-.00373.02375-.01187.0468-.019.07392a.11358.11358,0,0,1,.03623.00919c.021.01472.052.0299.05627.04976.005.02335-.01293.05227-.023.07794a.53483.53483,0,0,0-.0304.066c-.0173.07259-.032.14584-.04607.21914a1.59586,1.59586,0,0,0-.02926.21583c.01442-.03482.02945-.06941.04316-.10451C2.701.9961,2.7478.87475,2.79517.75364A.0668.0668,0,0,1,2.813.72212c.08743-.05721.09828-.15327.1234-.24152C2.95369.42,2.97457.396,3.00992.40558c.036.00977.05263.05064.03812.10446-.02742.1017-.05711.20278-.08564.30419a.04168.04168,0,0,0,.003.03077c.01553-.01694.0305-.03444.04671-.0507.02806-.02813.05563-.06395.10155-.04717.04393.01605.04962.06046.05407.0996a1.62385,1.62385,0,0,1,.022.47c.08267-.00339.2039-.26367.18456-.35506-.01495.0354-.0315.07024-.04428.1064-.00858.02429-.01993.04608-.0476.03726-.03074-.00981-.02065-.03524-.01225-.05768a.62615.62615,0,0,0,.044-.27218c-.00676,0-.01387.00017-.021,0C3.21191.77319,3.18158.72386,3.21417.64906c.0171-.03923.02891-.081.04844-.11887A.08712.08712,0,0,1,3.387.48164a.06548.06548,0,0,1,.03477.10067c-.01.02214-.02078.04391-.02717.05736a.66054.66054,0,0,0,.07684.08858c.0181.01469.048.014.07135.02325.038.015.03578-.02053.05059-.03628a.47577.47577,0,0,1,.08283-.076A.05768.05768,0,0,1,3.73092.652c.00777.00909,0,.03868-.00937.05387-.0303.04906-.06455.09568-.09728.14325-.006.00867-.01128.0244-.01791.025C3.5393.87981,3.54029.941,3.51817.98181a.357.357,0,0,0-.0345.106c.02664-.02107.05241-.04336.08011-.06293A1.56139,1.56139,0,0,1,3.72339.918.30737.30737,0,0,1,3.84153.8876a.0923.0923,0,0,1,.08985.08346.43625.43625,0,0,1,.00822.073.47309.47309,0,0,1-.005.05892c.069-.02628.13647-.05238.20427-.0776a.04586.04586,0,1,1,.02968.0865c-.081.02655-.121.09661-.16838.15722a.09468.09468,0,0,1-.16021.013l-.12817.16207.0068.00948c.06861-.02244.13883-.041.20544-.0683.08343-.03422.16337-.07687.24589-.11345a.12678.12678,0,0,1,.11853-.00961.053.053,0,0,1,.0301.06374c-.00457.03154-.02315.04292-.05247.0474-.05687.00868-.11335.01987-.17623.03114a.08632.08632,0,0,1-.03833.127c-.08262.0547-.16287.11354-.24871.16261-.06428.03675-.1359.06058-.2039.09093a.20367.20367,0,0,0-.03136.0223c.07263.08153.00028.14892-.01927.22448a.33171.33171,0,0,0,.06818-.01453.04392.04392,0,0,0,.02152-.03463.069.069,0,0,1,.04181-.07357c.1239-.07.24647-.14239.36979-.21343a.43.43,0,0,1,.21239-.06636c.04478-.00037.08416.02695.08556.05988a.07614.07614,0,0,1-.07646.07179,1.06741,1.06741,0,0,0-.4778.16288.45307.45307,0,0,0-.07894.0693c.10269,0,.20009.00015.29748-.00013a.29653.29653,0,0,0,.05956-.00324.06421.06421,0,0,1,.07483.031.05875.05875,0,0,1-.01588.07891.35416.35416,0,0,1-.24179.09491,1.10787,1.10787,0,0,0-.121.01013l.00034.01828c.07.00239.14008.00588.21015.00687s.14042.00161.21046-.00152c.07177-.00321.14326-.01246.215-.01625a.13759.13759,0,0,1,.06612.01188.0567.0567,0,0,1,.003.096A.17722.17722,0,0,1,4.39,2.344c-.10833-.00185-.21653-.01026-.32486-.01315-.10234-.00273-.20491.0013-.30714-.00318a.12.12,0,0,0-.1205.0817c.0579.04179.11881.08119.17429.12714a.78525.78525,0,0,1,.13539.13431.122.122,0,0,0,.12966.06631c.08752-.01217.17724-.00774.26581-.01354a.05732.05732,0,0,1,.06905.05575.05591.05591,0,0,1-.05369.06742c-.07143.00637-.14343.00677-.21523.00824-.02586.00053-.05179-.00307-.0777-.00455a.06761.06761,0,0,0-.079.04363.09828.09828,0,0,1-.11322.052c-.06287-.01156-.12478-.02838-.18714-.04277-.01449-.00334-.02915-.006-.05474-.01121.01468.01757.02128.02692.0293.03484.05453.05384.10747.10949.16451.16055A.60454.60454,0,0,0,4.1679,3.248a.09411.09411,0,0,1,.10019.08612c.00031.03294-.03223.04855-.06376.04456a.15037.15037,0,0,0-.079.0221.33394.33394,0,0,1-.13674.01569c-.04286-.00243-.08493-.01862-.13138-.01927.08648.04723.17318.094.25922.142a.10658.10658,0,0,1,.04463.03615.06313.06313,0,0,1-.00248.05323.05106.05106,0,0,1-.04555.01721,1.68273,1.68273,0,0,1-.48635-.21123.23882.23882,0,0,1-.05362-.05542c-.028-.0402-.05965-.06543-.11431-.04186a.08514.08514,0,0,0,.01308.02982c.07984.07684.1582.15556.24251.22723a.45865.45865,0,0,0,.10985.04487.06913.06913,0,0,1,.04314.08487.07035.07035,0,0,1-.092.02346c-.04292-.01565-.08656-.02952-.1304-.04242a.7866.7866,0,0,1-.32441-.19257c-.028-.02676-.05664-.05277-.08263-.07694-.01851.03475-.03483.06107-.04633.08934a.04237.04237,0,0,0,.00728.0362,2.30282,2.30282,0,0,0,.33662.39828.91694.91694,0,0,0,.12577.07488c.054.02723.08046.06562.063.10113-.02047.04167-.07224.05058-.12308.01207a.62365.62365,0,0,1-.10934-.10927c-.08373-.10535-.165-.21272-.245-.321-.03626-.0491-.06564-.10323-.10082-.15319-.02114-.03-.04743-.05645-.07141-.08449l-.01455.00928a.41508.41508,0,0,0,.0171.04866c.05408.10979.11117.21818.16244.32925a.16061.16061,0,0,1-.00085.15476c-.02569.04438-.018.05753.04662.09772.05067-.04346.06791-.0429.11068.01126a.42233.42233,0,0,1,.05792.09214.082.082,0,0,1-.03947.10776C3.3786,4.3401,3.34146,4.31,3.32793,4.2608c-.00233-.00848-.00629-.0165-.01187-.03084-.077.06376-.12077.00072-.1549-.0471a.56287.56287,0,0,0-.187-.16394.25674.25674,0,0,1-.10667-.22344c-.00413-.1007-.01026-.20134-.0175-.30186-.00383-.05319.01508-.072.0848-.071-.02411-.07947-.095-.11882-.14722-.17838a.3069.3069,0,0,0-.00218.04522.87293.87293,0,0,1-.04294.32611.197.197,0,0,1-.1363.14455.54392.54392,0,0,0,.1545.24119.03156.03156,0,0,0,.02881.00524c.04535-.02761.05834.003.07381.0364a2.70663,2.70663,0,0,0,.11912.24482c.03223.05444.0841.09685.12115.14894.04293.06037.04048.09518.00244.12033-.03533.02336-.06809.01586-.10485-.0491-.04264-.07535-.06991-.15928-.10657-.23822a.21567.21567,0,0,0-.04412-.05329A.72355.72355,0,0,1,2.755,4.11924c-.0888-.13732-.1724-.278-.25851-.41708-.01406-.02271-.0309-.04371-.04645-.0655l-.01156.00675c.02754.05718.05387.115.083.17137a.22171.22171,0,0,1,.02725.16693.78551.78551,0,0,0-.00987.12237c-.00567.05614-.01.11272-.02085.168a.09383.09383,0,0,1-.15328.03493.14512.14512,0,0,0-.04217-.03472l.04224.1587a.10218.10218,0,0,1,.0086.03983.05.05,0,0,1-.0227.034.04214.04214,0,0,1-.03793-.01038A.1113.1113,0,0,1,2.2865,4.442c-.01966-.12561-.03445-.252-.05628-.37724A1.877,1.877,0,0,0,2.178,3.87022a.02422.02422,0,0,0-.019-.01386.03584.03584,0,0,0-.024.01678,1.06245,1.06245,0,0,0-.1028.2938c-.00525.06236-.02128.12377-.03153.18576-.00572.03463-.025.05437-.05964.04825a.05122.05122,0,0,1-.04078-.07008c.00992-.0431.02429-.08516.03556-.128.02495-.09478.0479-.1901.07437-.28445.00884-.0315.02861-.05985.03836-.0912a.28286.28286,0,0,0,.01626-.09207c-.00281-.07434-.01135-.14846-.01748-.22268l-.00254-.04038-.01266-.00338c-.01144.03638-.02535.0722-.03376.10928-.01447.06382-.02634.12828-.03723.19282a.12181.12181,0,0,0,.00852.03907c.00353.0175.01526.04082.00819.0518a1.0146,1.0146,0,0,0-.09863.29519,1.61991,1.61991,0,0,0-.06042.34762.089.089,0,0,1-.0669.0783.07594.07594,0,0,1-.07553-.07709,1.18257,1.18257,0,0,1,.039-.21469A1.58157,1.58157,0,0,1,1.7883,4.114Zm.0773-.45882a.56994.56994,0,0,0,.09775-.18581l-.01525-.0072q-.041.09693-.08166.19425l-.04927.12535.02436.007ZM2.5549,2.49977c.02551.05.05162.09467.07153.14193a.342.342,0,0,0,.11818.13683c.02474.01891.043.02283.0648-.00469a.06577.06577,0,0,1,.04119-.015c.05013-.00565.07707.03212.10609.06234.08571.08922.16923.18053.25475.26993a.2189.2189,0,0,0,.18308.06754.06258.06258,0,0,0,.05231-.07535.53536.53536,0,0,0-.07138-.14752,1.57985,1.57985,0,0,0-.37025-.30452,1.18224,1.18224,0,0,0-.17607-.087A.41335.41335,0,0,0,2.5549,2.49977ZM2.406,2.6579c-.023.0645-.04969.125-.0653.18816a.4778.4778,0,0,0-.00272.1247c.00035.01314.0106.02586.01176.03917a.82081.82081,0,0,0,.14925.43119c.03486.047.066.09672.0989.14519l.019-.00295c.0097-.05784.02412-.11537.028-.17361.0061-.09155.00435-.1836.00732-.27539a.40249.40249,0,0,0-.04084-.22294,1.10869,1.10869,0,0,1-.08924-.13779C2.49938,2.71562,2.45352,2.69112,2.406,2.6579Zm.06687-.39709a.28491.28491,0,0,0,.0516-.06267.93984.93984,0,0,0,.09472-.25478,2.14772,2.14772,0,0,0-.015-.36458c-.00366-.05238-.015-.10423-.02278-.15632l-.01337-.00408c-.02173.03745-.04363.07481-.06517.11237a.71848.71848,0,0,0-.08661.52009.88151.88151,0,0,1,.01443.15441C2.43163,2.2359,2.43915,2.25532,2.47291,2.2608ZM2.0494,1.40745c0,.11431-.00265.22562.00169.33666a.20355.20355,0,0,0,.036.09231c.04767.07632.09907.15032.1494.225.0095.01409.02087.02692.03373.04333a1.122,1.122,0,0,0-.15338-.83543.36836.36836,0,0,0,.00727.04731C2.14573,1.38908,2.12748,1.41234,2.0494,1.40745Zm-.1608.21091c.00508-.05694.01112-.1055.0133-.15423a.19688.19688,0,0,1,.05533-.13756.05018.05018,0,0,0,.00518-.07309c-.04675-.07-.08994-.143-.1426-.20825A.568.568,0,0,0,1.69545.93838C1.65806.91292,1.64329.92445,1.64514.96969a2.06645,2.06645,0,0,0,.12324.5725C1.78975,1.60594,1.83687,1.606,1.88859,1.61836ZM3.06177.89093,3.04611.88571a.20559.20559,0,0,0-.02384.03075q-.10135.19754-.20147.39571a.4796.4796,0,0,0-.06228.2371.0343.0343,0,0,1-.00634.02162c-.04753.05715.00232.11784-.01075.17673a.0379.0379,0,0,0,.01875-.01633.66918.66918,0,0,1,.19892-.22485.20577.20577,0,0,0,.08736-.17727c.00029-.08542.00322-.17084.00614-.25623C3.05468,1.01223,3.05865.9516,3.06177.89093ZM3.819,2.723l.00922-.01465a.61723.61723,0,0,0-.08839-.07383c-.04886-.02778-.10266-.04675-.15376-.07074a.42014.42014,0,0,0-.22084-.058A1.75992,1.75992,0,0,1,3.119,2.48965c-.043-.00257-.08627-.00045-.12942-.00045l-.00541.01263c.02317.015.04526.03208.06969.0446.13406.06873.27.134.40275.20507a.76618.76618,0,0,0,.3475.0874c.0044.00012.00893-.0043.02046-.01024l-.04507-.01615c-.06181-.0221-.12405-.04307-.18524-.06677-.02955-.01145-.05074-.03266-.03516-.0679.015-.03381.04245-.02749.0704-.018C3.69254,2.68135,3.75583,2.702,3.819,2.723ZM2.74387,2.19829c.04089,0,.08165-.00082.12237.00016.10039.00243.20082.00432.30109.00939.03249.00164.06245.00889.08862-.01964.03469-.03781.07453-.071.10786-.10991s.06112-.082.09284-.12536A.79431.79431,0,0,0,2.74387,2.19829Zm.49052-.46614.007.01307a.22264.22264,0,0,0,.07094-.02477c.03741-.03045.06588-.07209.10394-.10147a1.173,1.173,0,0,0,.2914-.327.40579.40579,0,0,0,.06511-.247.48353.48353,0,0,0-.08344.04679c-.08083.07033-.15857.14419-.23853.21555a.16346.16346,0,0,0-.072.15845.0373.0373,0,0,1-.00552.02186c-.03067.05792-.06127.11589-.09315.17314C3.2664,1.68538,3.24972,1.70839,3.23438,1.73215Zm-.83554-.22134c.03006-.08079.09267-.13295.09842-.22366.00759-.11972.04122-.23766.06083-.35682A.7166.7166,0,0,0,2.55892.82166c-.03995.02456-.07911.036-.09709.062a1.9116,1.9116,0,0,0-.16129.26611.23414.23414,0,0,0-.0088.1563A1.26772,1.26772,0,0,0,2.39884,1.51082Zm-.213,1.17895c-.01765.01486-.03046.02414-.04151.03517a1.25967,1.25967,0,0,0-.2269.35312.5786.5786,0,0,0-.07187.21158c-.00152.0213-.00023.04281-.00023.06423l.01873.00638a1.28238,1.28238,0,0,0,.11985-.1476c.05967-.09943.10137-.2107.16826-.3044A.26558.26558,0,0,0,2.18583,2.68976ZM2.6975,2.053c.10962-.08895.2124-.16618.3079-.25157a1.38465,1.38465,0,0,0,.23117-.30982c-.06542-.02238-.08391-.02128-.12324.01685-.05483.05315-.10816.108-.15926.16479s-.09524.12038-.149.17444A.50206.50206,0,0,0,2.6975,2.053Zm-.90862.9549c-.07487.04108-.1544.05958-.18733.14182a.18378.18378,0,0,1-.02841.04168.56654.56654,0,0,0-.14154.30172.17652.17652,0,0,0,.00881.04634c.01728-.00773.04063-.01078.05081-.024A2.06231,2.06231,0,0,1,1.63244,3.324a.73555.73555,0,0,0,.14813-.26557A.28134.28134,0,0,0,1.78888,3.00785Zm-.814-.79563L.96774,2.234c.0401.0207.07949.043.12049.06168.04837.02209.10088.03636.14663.06266a.322.322,0,0,0,.19858.03728.90931.90931,0,0,1,.1294.00916c.02869.00162.05754.00031.08632.00031A1.01324,1.01324,0,0,0,.97484,2.21222Zm.40344-.86735c.02554.20072.27582.58463.38079.60036-.02826-.06179-.05719-.12071-.08206-.18128a.66178.66178,0,0,1-.02353-.09125.22732.22732,0,0,0-.02021-.074.782.782,0,0,0-.09612-.11061C1.486,1.43844,1.4314,1.39242,1.37827,1.34487Zm.54323.50694a.51834.51834,0,0,0,.00857.13625,1.4605,1.4605,0,0,0,.1072.24284.63829.63829,0,0,0,.1184.13186c.01257.01212.03779.01111.05721.01612a.37044.37044,0,0,0,.00684-.06022A.44438.44438,0,0,0,2.20761,2.265a.42468.42468,0,0,0-.07918-.1729.03812.03812,0,0,0-.02862-.01446c-.07812.00674-.083.00157-.09254-.07685A.16475.16475,0,0,0,1.92151,1.85181Zm-.05419.47954c-.0604-.15532-.39237-.37478-.50623-.33309A2.46983,2.46983,0,0,0,1.86732,2.33135Zm-.66808.33387.002.01343a1.45085,1.45085,0,0,0,.16144.00876c.08824-.00453.18258.00942.25306-.06725a.14241.14241,0,0,1,.049-.024c.04959-.02146.09936-.04251.14906-.06372a.05968.05968,0,0,0-.04373-.00713c-.10018.02012-.20007.04173-.30036.06129a1.41023,1.41023,0,0,1-.14837.02274A.194.194,0,0,0,1.19924,2.66522Zm.26364.372a.912.912,0,0,0,.35959-.29972A.35326.35326,0,0,0,1.46288,3.03726ZM2.92264.89092c-.0111.00143-.0256.00808-.0347.00364C2.84738.8748,2.8365.90214,2.82038.92984a1.41969,1.41969,0,0,0-.15031.373.2237.2237,0,0,0,.0121.07592Zm.5459.79326A.61319.61319,0,0,1,3.602,1.66281a.253.253,0,0,0,.15514-.04391c.061-.03867.12226-.07685.18341-.11524A.80922.80922,0,0,0,3.46854,1.68418Zm.26865,1.51192a.07144.07144,0,0,0-.02651-.10682c-.04178-.02774-.07821-.06346-.11762-.09488-.02685-.0214-.05478-.04144-.0865-.06531A.24457.24457,0,0,0,3.73719,3.19609Zm-1.3076.866a1.50262,1.50262,0,0,0-.10634-.64069,1.15942,1.15942,0,0,0,.00189.1683c.007.04692.03547.09031.04536.13719.01888.08948.03118.18035.04647.2706C2.42064,4.01912,2.42535,4.04057,2.42958,4.0621ZM2.979,3.50539l-.02266.00885a2.44114,2.44114,0,0,0,.13774.34361l.02078-.00813Zm.38188-.15323a.29329.29329,0,0,0-.20736-.16072C3.22643,3.24057,3.26681,3.33066,3.36091,3.35217Zm.09845-1.01-.225-.01136-.00065.01781C3.30868,2.35307,3.38261,2.39492,3.45936,2.34215Zm-2.4471.67754-.00232-.014c-.0473,0-.09462-.0007-.14188.00064-.00864.00024-.017.00877-.02556.01347.00527.0062.00994.01712.0159.01788A.3084.3084,0,0,0,1.01225,3.01969ZM2.69268,2.345l-.035-.0772-.05391.07232.00656.0115ZM1.59625,1.92565l.00463-.00856a.51441.51441,0,0,0-.043-.0506c-.00771-.00717-.02172-.00757-.03288-.011.00061.01513-.00445.03888.00293.04373A.31649.31649,0,0,0,1.59625,1.92565Zm.5885,1.6517a.14333.14333,0,0,0,.016-.15784Zm-.86753.07151L1.303,3.64076l-.06165.08813.0129.008Z"/><path d="M.724,2.65308c-.052.00125-.07045-.02152-.0749-.06928a.08948.08948,0,0,0-.01715-.048c-.0402-.04658-.03-.09626.02913-.11531a.16275.16275,0,0,1,.06732-.00154c.09787.01205.19568.02474.29313.03973a.19028.19028,0,0,1,.05215.02627c-.011.01669-.0184.03914-.0338.04863a.197.197,0,0,1-.06956.01993.34666.34666,0,0,0-.19721.07682A.13742.13742,0,0,1,.724,2.65308Z"/><path d="M4.20662,2.371q.1736,0,.3472,0c.02511,0,.05811-.00023.05484.03129a.07827.07827,0,0,1-.04772.05477c-.08011.01826-.16193.02944-.24343.041a1.48107,1.48107,0,0,1-.15933.01528.09352.09352,0,0,1-.0624-.02017c-.01809-.01732-.04155-.052-.03494-.067a.13545.13545,0,0,1,.06873-.05881.20855.20855,0,0,1,.077-.00191Z"/><path d="M.56331,2.93049c-.015-.009-.05432-.01957-.05907-.03871A.10493.10493,0,0,1,.52867,2.806a.40961.40961,0,0,1,.21169-.10312.619.619,0,0,1,.113-.01652c.02081-.00021.05372.01094.05949.02554a.06656.06656,0,0,1-.02054.06194c-.0991.05412-.20112.10288-.30231.15314Z"/><path d="M4.0671,4.0676a.73107.73107,0,0,1-.08665-.03183q-.16145-.08543-.321-.17444a.14661.14661,0,0,1-.053-.04892c-.00788-.0131-.00719-.04516.00171-.05133a.08636.08636,0,0,1,.05712-.00359c.0101.00171.01853.015.02711.02366a.43475.43475,0,0,0,.31714.14985.15561.15561,0,0,1,.08712.03141.0726.0726,0,0,1,.01219.063C4.10438,4.04237,4.08113,4.05432,4.0671,4.0676Z"/><path d="M2.72727,4.48255c.00263.02424.00577.04845.00777.07274a.07124.07124,0,0,1-.05315.08007.07221.07221,0,0,1-.08453-.0589.56809.56809,0,0,1,.00015-.10916c.00507-.07883.01311-.15747.01771-.23632.00162-.02786.00111-.05469.03741-.056.0354-.00131.04452.0211.04784.05327.00876.08477.021.16919.03186.25374Z"/><path d="M4.31563,1.79478c.07583,0,.15178-.00237.22738.00179.01736.001.03348.02436.05018.03744-.01366.01536-.02564.04173-.04128.04411-.05869.00894-.11872.0085-.178.0145-.0631.00639-.12623.014-.18864.02509-.04141.00735-.07716-.00306-.08248-.0354a.05816.05816,0,0,1,.05031-.07366c.05358-.00955.10773-.01593.16164-.02366Z"/><path d="M4.24476,3.087a.73006.73006,0,0,1-.09034.01334,1.10494,1.10494,0,0,1-.16322-.00335.06408.06408,0,0,1-.06462-.07749.07619.07619,0,0,1,.085-.06592c.04826.0048.09589.01621.14371.02521.03738.007.07441.01632.112.02181.03112.00455.06119.01286.06038.04888-.00086.03872-.03285.0423-.06411.04068-.0061-.00032-.01223,0-.01834,0Z"/><path d="M1.46657.45213c.00771-.05312.02737-.0812.06856-.08725.04326-.00635.07224.0171.08059.06769A.1464.1464,0,0,1,1.61557.4824.248.248,0,0,0,1.64.65571c.01467.02612.0211.05639-.00827.0727-.0296.01644-.05325-.00372-.06515-.032C1.53246.6153,1.4998.53359,1.46657.45213Z"/><path d="M.87814,1.56488c.0252.00695.05761.0154.08972.02485.04242.01248.08493.02483.12675.03914a.08334.08334,0,0,1,.04206.02511.06076.06076,0,0,1,.00652.04876.04692.04692,0,0,1-.03951.01841c-.08133-.00877-.16225-.02121-.24344-.03139a.056.056,0,0,1-.057-.06314A.06922.06922,0,0,1,.87814,1.56488Z"/><path d="M.74609,3.53346C.70815,3.53258.68435,3.49607.7036,3.47106A.68351.68351,0,0,1,.808,3.36365c.04329-.036.09176-.06575.13819-.09792.02647-.01834.05507-.02725.0757.00515.0193.03032.00411.05614-.02267.0743-.05935.04026-.12.07857-.17884.11959a.46554.46554,0,0,0-.04859.04777C.76233,3.52147.7516,3.529.74609,3.53346Z"/><path d="M2.0086,4.53667c.01445-.05486.02348-.09677.0368-.13727a.05737.05737,0,0,1,.072-.041.05928.05928,0,0,1,.0403.073,1.12826,1.12826,0,0,1-.02851.11536.05467.05467,0,0,1-.07317.03743C2.03536,4.57583,2.02159,4.55037,2.0086,4.53667Z"/></svg>