<svg fill="#70C041" xmlns="http://www.w3.org/2000/svg" xmlns:xlink="http://www.w3.org/1999/xlink" version="1.1" x="0px" y="0px" viewBox="0 0 100 100" enable-background="new 0 0 100 100" xml:space="preserve"><g><path fill="none" d="M70.307,25.125c0.394,0.098,0.797,0.158,1.099,0.39c0.149,0.115,0.126,0.307,0,0.421   c-0.588,0.562-1.732,0.056-2.282-0.35c-0.679-0.494-1.158-1.226-1.094-2.078c0.011-0.118,0.177-0.166,0.248-0.07   c0.094,0.13,0.193,0.261,0.287,0.391c0.096-0.449,0.195-0.904,0.317-1.355c-6.56-1.526-14.39,1.939-18.413,7.067   c-4.21,5.364-6.678,11.61-13.382,14.359c-2.864,1.178-5.927,1.794-8.775,3.009c-6.361,2.717-10.099,9.267-10.539,15.992   c-0.42,6.391,3.311,12.705,7.731,17.089c1.33,1.314,2.758,2.551,4.265,3.698c6.283,4.79,13.979,8.064,21.684,9.114   c6.045,0.824,12.707-0.057,17.884-3.167c1.628-0.977,3.107-2.172,4.377-3.606c1.379-1.566,2.507-3.404,3.3-5.543   c3.175-8.597-2.793-16.622-1.398-25.286c0.712-4.442,2.281-8.696,2.954-13.148c1.05-6.936-0.473-15.78-7.521-18.86   C70.799,23.835,70.555,24.481,70.307,25.125z M21.802,61.608c-0.156,0.431-0.696,0.634-1.105,0.468l-0.178-0.072   c-0.441-0.178-0.621-0.667-0.468-1.105c0.156-0.431,0.696-0.634,1.105-0.468l0.178,0.072   C21.775,60.681,21.953,61.175,21.802,61.608z M33.084,55.09c1.017,0.412,0.375,1.983-0.637,1.573   C31.435,56.254,32.072,54.681,33.084,55.09z M28.236,50.479c1.017,0.412,0.375,1.983-0.637,1.573   C26.587,51.643,27.224,50.069,28.236,50.479z M27.64,60.004c-1.017-0.412-0.375-1.983,0.637-1.573   C29.289,58.84,28.652,60.414,27.64,60.004z M24.395,56.456c1.012,0.41,0.375,1.983-0.637,1.573   C22.746,57.62,23.382,56.046,24.395,56.456z M23.71,69.199c-0.433-0.151-0.634-0.696-0.468-1.105l0.07-0.173   c0.178-0.441,0.674-0.624,1.105-0.468c0.433,0.151,0.636,0.691,0.468,1.105l-0.07,0.173C24.637,69.171,24.149,69.352,23.71,69.199z    M24.842,75.962c-1.017-0.412-0.375-1.983,0.637-1.573C26.491,74.798,25.855,76.372,24.842,75.962z M26.697,67.355   c-0.433-0.151-0.634-0.696-0.468-1.105l0.07-0.173c0.178-0.441,0.674-0.624,1.105-0.468c0.433,0.151,0.636,0.691,0.468,1.105   l-0.07,0.173C27.623,67.328,27.13,67.506,26.697,67.355z M27.617,73.631c-1.017-0.412-0.375-1.983,0.637-1.573   C29.266,72.467,28.629,74.04,27.617,73.631z M29.172,78.325c-1.012-0.41-0.375-1.983,0.637-1.573   C30.826,77.163,30.184,78.735,29.172,78.325z M31.801,65.045l-0.072,0.178c-0.178,0.441-0.667,0.621-1.105,0.468   c-0.431-0.156-0.634-0.696-0.468-1.105l0.072-0.178c0.178-0.44,0.672-0.619,1.105-0.468C31.764,64.096,31.966,64.636,31.801,65.045   z M33.693,81.48c-0.151,0.433-0.691,0.636-1.105,0.468l-0.173-0.07c-0.441-0.178-0.619-0.672-0.468-1.105   c0.151-0.433,0.696-0.634,1.105-0.468l0.173,0.07C33.666,80.553,33.849,81.049,33.693,81.48z M34.777,49.159l-0.072,0.178   c-0.178,0.441-0.672,0.619-1.105,0.468c-0.431-0.156-0.634-0.696-0.468-1.105l0.072-0.178c0.178-0.441,0.667-0.621,1.105-0.468   C34.74,48.21,34.942,48.75,34.777,49.159z M37.639,51.136l-0.07,0.173c-0.178,0.441-0.672,0.619-1.105,0.468   c-0.433-0.151-0.634-0.696-0.468-1.105l0.07-0.173c0.178-0.441,0.669-0.627,1.105-0.468C37.604,50.182,37.807,50.722,37.639,51.136   z M39.699,47.795c-1.012-0.41-0.375-1.983,0.637-1.573C41.354,46.633,40.712,48.205,39.699,47.795z M44.484,43.017   c-1.012-0.41-0.375-1.983,0.637-1.573C46.133,41.854,45.496,43.427,44.484,43.017z M48.406,38.605l-0.07,0.173   c-0.178,0.441-0.674,0.624-1.105,0.468c-0.433-0.151-0.636-0.691-0.468-1.105l0.07-0.173c0.178-0.441,0.672-0.619,1.105-0.468   C48.371,37.651,48.572,38.196,48.406,38.605z"></path><path fill="none" d="M80.771,6.288c-0.4,0.082-0.789,0.199-1.166,0.346c-0.288,0.14-0.574,0.317-0.86,0.525   c-2.754,1.992-5.228,6.807-6.122,8.594c-0.825,1.631-1.463,3.357-2.14,5.06c-0.389,0.825-0.773,1.683-1.08,2.548   c-0.11,0.242-0.229,0.475-0.35,0.713c-0.033,0.066-0.073,0.135-0.106,0.201c0.183,0.196,0.389,0.365,0.609,0.515   c0.244-0.634,0.483-1.269,0.733-1.901c-0.005-0.002-0.01-0.004-0.016-0.006c0.21-0.519,0.408-1.037,0.59-1.562   c0.016,0.006,0.039,0.01,0.055,0.016c2.368-5.744,5.304-11.232,10.344-15.058C81.098,6.262,80.937,6.27,80.771,6.288z"></path><path d="M83.221,5.18c-0.078-0.093-0.193-0.157-0.353-0.167c-1.955-0.102-3.646,0.398-5.118,1.304   c-4.647,2.855-7.148,9.711-9.004,14.447c-5.074-0.961-10.811,0.531-14.89,3.219c-6.754,4.456-8.481,13.652-15.788,17.365   c-3.245,1.653-6.92,2.228-10.266,3.633c-0.491,0.204-0.965,0.439-1.423,0.681c-0.117,0.002-0.241,0.037-0.372,0.106   c-10.153,5.601-12.71,19.502-6.969,29.126c0.743,1.241,1.656,2.392,2.647,3.489c2.134,2.359,4.537,4.565,7.135,6.545   c7.316,5.586,16.223,9.412,25.288,10.011c7.838,0.512,15.773-2.142,20.841-7.818c1.691-1.885,3.063-4.113,4.005-6.668   c0.439-1.19,0.751-2.443,0.91-3.77c0.405-3.321-0.09-6.805-1.097-10.363c-1.206-4.273-1.757-7.889-0.994-12.262   c0.807-4.587,2.324-9.118,2.772-13.783c0.582-6.051-1.148-13.509-6.395-17.269c-0.559-0.397-1.14-0.742-1.74-1.04   c2.743-6.007,5.761-11.939,11.333-15.811C84.286,5.776,83.766,5.01,83.221,5.18z M78.574,42.052   c-0.673,4.452-2.242,8.706-2.954,13.148c-1.395,8.664,4.573,16.689,1.398,25.286c-0.793,2.139-1.921,3.977-3.3,5.543   c-1.27,1.433-2.749,2.629-4.377,3.606c-5.178,3.111-11.839,3.991-17.884,3.167c-7.705-1.05-15.401-4.324-21.684-9.114   c-1.507-1.147-2.935-2.384-4.265-3.698c-4.421-4.384-8.152-10.698-7.731-17.089c0.44-6.725,4.178-13.275,10.539-15.992   c2.848-1.215,5.911-1.831,8.775-3.009c6.704-2.749,9.172-8.995,13.382-14.359c4.023-5.128,11.853-8.593,18.413-7.067   c-0.122,0.451-0.22,0.906-0.317,1.355c-0.094-0.13-0.193-0.261-0.287-0.391c-0.071-0.096-0.237-0.047-0.248,0.07   c-0.065,0.853,0.415,1.584,1.094,2.078c0.55,0.406,1.694,0.912,2.282,0.35c0.126-0.114,0.148-0.306,0-0.421   c-0.303-0.232-0.706-0.292-1.099-0.39c0.248-0.644,0.492-1.29,0.746-1.932C78.101,26.272,79.624,35.116,78.574,42.052z    M70.918,21.338c-0.016-0.006-0.039-0.01-0.055-0.016c-0.182,0.525-0.379,1.043-0.59,1.562c0.005,0.002,0.01,0.004,0.016,0.006   c-0.25,0.631-0.489,1.267-0.733,1.901c-0.22-0.15-0.426-0.319-0.609-0.515c0.033-0.066,0.073-0.135,0.106-0.201   c0.121-0.238,0.239-0.471,0.35-0.713c0.307-0.864,0.691-1.722,1.08-2.548c0.677-1.703,1.315-3.429,2.14-5.06   c0.894-1.787,3.368-6.602,6.122-8.594c0.286-0.208,0.571-0.385,0.86-0.525c0.377-0.147,0.766-0.264,1.166-0.346   c0.166-0.018,0.328-0.026,0.492-0.008C76.222,10.105,73.286,15.594,70.918,21.338z"></path><path d="M33.225,80.375l-0.173-0.07c-0.409-0.166-0.954,0.035-1.105,0.468c-0.151,0.433,0.028,0.927,0.468,1.105l0.173,0.07   c0.414,0.168,0.954-0.035,1.105-0.468C33.849,81.049,33.666,80.553,33.225,80.375z"></path><path d="M47.938,37.5c-0.433-0.151-0.927,0.028-1.105,0.468l-0.07,0.173c-0.168,0.414,0.035,0.954,0.468,1.105   c0.431,0.156,0.927-0.028,1.105-0.468l0.07-0.173C48.572,38.196,48.371,37.651,47.938,37.5z"></path><path d="M45.121,41.444c-1.012-0.41-1.649,1.164-0.637,1.573C45.496,43.427,46.133,41.854,45.121,41.444z"></path><path d="M29.809,76.752c-1.012-0.41-1.649,1.164-0.637,1.573C30.184,78.735,30.826,77.163,29.809,76.752z"></path><path d="M40.336,46.222c-1.012-0.41-1.649,1.164-0.637,1.573C40.712,48.205,41.354,46.633,40.336,46.222z"></path><path d="M37.171,50.031c-0.436-0.158-0.927,0.028-1.105,0.468l-0.07,0.173c-0.166,0.409,0.035,0.954,0.468,1.105   c0.433,0.151,0.927-0.028,1.105-0.468l0.07-0.173C37.807,50.722,37.604,50.182,37.171,50.031z"></path><path d="M31.333,63.94c-0.433-0.151-0.927,0.028-1.105,0.468l-0.072,0.178c-0.166,0.409,0.037,0.949,0.468,1.105   c0.439,0.153,0.927-0.028,1.105-0.468l0.072-0.178C31.966,64.636,31.764,64.096,31.333,63.94z"></path><path d="M28.254,72.057c-1.012-0.41-1.654,1.161-0.637,1.573C28.629,74.04,29.266,72.467,28.254,72.057z"></path><path d="M25.479,74.389c-1.012-0.41-1.654,1.161-0.637,1.573C25.855,76.372,26.491,74.798,25.479,74.389z"></path><path d="M32.447,56.664c1.012,0.41,1.654-1.161,0.637-1.573C32.072,54.681,31.435,56.254,32.447,56.664z"></path><path d="M27.802,66.887l0.07-0.173c0.168-0.414-0.035-0.954-0.468-1.105c-0.431-0.156-0.927,0.028-1.105,0.468l-0.07,0.173   c-0.166,0.409,0.035,0.954,0.468,1.105C27.13,67.506,27.623,67.328,27.802,66.887z"></path><path d="M34.309,48.054c-0.439-0.153-0.927,0.028-1.105,0.468l-0.072,0.178c-0.166,0.409,0.037,0.949,0.468,1.105   c0.433,0.151,0.927-0.028,1.105-0.468l0.072-0.178C34.942,48.75,34.74,48.21,34.309,48.054z"></path><path d="M24.816,68.73l0.07-0.173c0.168-0.414-0.035-0.954-0.468-1.105c-0.431-0.156-0.927,0.028-1.105,0.468l-0.07,0.173   c-0.166,0.409,0.035,0.954,0.468,1.105C24.149,69.352,24.637,69.171,24.816,68.73z"></path><path d="M28.277,58.43c-1.012-0.41-1.654,1.161-0.637,1.573C28.652,60.414,29.289,58.84,28.277,58.43z"></path><path d="M27.599,52.052c1.012,0.41,1.654-1.161,0.637-1.573C27.224,50.069,26.587,51.643,27.599,52.052z"></path><path d="M23.758,58.029c1.012,0.41,1.649-1.164,0.637-1.573S22.746,57.62,23.758,58.029z"></path><path d="M21.334,60.503l-0.178-0.072c-0.409-0.166-0.949,0.037-1.105,0.468c-0.153,0.439,0.028,0.927,0.468,1.105l0.178,0.072   c0.409,0.166,0.949-0.037,1.105-0.468C21.953,61.175,21.775,60.681,21.334,60.503z"></path></g></svg>