<svg xmlns="http://www.w3.org/2000/svg" xmlns:xlink="http://www.w3.org/1999/xlink" version="1.1" x="0px" y="0px" viewBox="0 0 100 100" enable-background="new 0 0 100 100" xml:space="preserve"><g><g><g><g><g><g><polygon points="20.3,83.8 19.4,82.9 58.6,43.7 54.6,43.5 17.3,80.8 16.4,79.9 54.1,42.1 61.5,42.7       "></polygon></g></g></g></g></g><g><g><g><g><g><path d="M16.5,87.6c-1.8,0-3.3-1.2-3.8-2.9c-0.6-2.1,0.7-4.2,2.7-4.8c0.3-0.1,0.7-0.1,1-0.1c1.8,0,3.3,1.2,3.8,2.9        c0.6,2.1-0.7,4.2-2.7,4.8C17.1,87.5,16.8,87.6,16.5,87.6z M16.5,81.1c-0.2,0-0.5,0-0.7,0.1c-1.4,0.4-2.2,1.8-1.8,3.2        c0.3,1.1,1.3,1.9,2.5,1.9c0.2,0,0.5,0,0.7-0.1c1.4-0.4,2.2-1.8,1.8-3.2C18.7,81.9,17.6,81.1,16.5,81.1z"></path></g></g></g></g></g><g><g><g><g><g><rect x="37.8" y="52.7" transform="matrix(0.7071 0.7071 -0.7071 0.7071 54.2868 -10.6173)" width="4.4" height="15.1"></rect></g></g></g></g></g><g><g><g><g><g><path d="M67.5,42.1L51.9,39l5.6-4.2l13.1,2.6L67.5,42.1z M55,38.3l11.9,2.4l1.6-2.4l-10.7-2.1L55,38.3z"></path></g></g></g></g></g><g><g><g><g><g><path d="M69.9,38.6l-13.8-2.7l5.6-4.2l11.3,2.2L69.9,38.6z M59.2,35.1l10.1,2l1.6-2.4L62.1,33L59.2,35.1z"></path></g></g></g></g></g><g><g><g><g><g><path d="M65.6,44.9l-17.2-3.4l4.9-3.6l15,3L65.6,44.9z M51.5,40.9L65,43.5l1.1-1.7l-12.5-2.5L51.5,40.9z"></path></g></g></g></g></g><g><g><g><g><g><path d="M72.3,35l-11.9-2.4l5.6-4.2l9.4,1.9L72.3,35z M63.5,31.9l8.2,1.6l1.6-2.4l-6.9-1.4L63.5,31.9z"></path></g></g></g></g></g><g><g><g><g><g><rect x="74" y="24.2" transform="matrix(0.8305 0.5571 -0.5571 0.8305 27.3841 -37.1015)" width="1.3" height="4.6"></rect></g></g></g></g></g><g><g><g><g><g><path d="M74.7,31.5l-10-2l22.8-17L74.7,31.5z M67.8,28.8l6.3,1.3l8-12L67.8,28.8z"></path></g></g></g></g></g></g></svg>