<svg fill="#000000" xmlns="http://www.w3.org/2000/svg" xmlns:xlink="http://www.w3.org/1999/xlink" version="1.1" x="0px" y="0px" viewBox="0 0 100 99.999" enable-background="new 0 0 100 99.999" xml:space="preserve"><path d="M51.364,86.577l2.027-13.263l0.015-0.009c4.849-0.704,9.52-2.917,13.251-6.648c3.719-3.719,5.91-8.375,6.621-13.207  l0.038-0.059l13.262-2.026c0.674-0.104,1.171-0.683,1.171-1.363c0-0.681-0.497-1.26-1.171-1.363L73.315,46.61  c-1.487-10.298-9.627-18.437-19.925-19.924l-2.027-13.263c-0.103-0.674-0.683-1.171-1.363-1.171c-0.681,0-1.26,0.497-1.363,1.171  L46.61,26.686l-0.06,0.033c-4.832,0.711-9.487,2.906-13.206,6.625c-3.718,3.718-5.913,8.372-6.625,13.203l-0.034,0.063  l-13.262,2.026C12.75,48.74,12.252,49.319,12.252,50c0,0.681,0.497,1.26,1.171,1.363l13.261,2.026  c1.487,10.298,9.627,18.438,19.925,19.924l2.027,13.263c0.103,0.674,0.683,1.171,1.363,1.171  C50.681,87.748,51.26,87.251,51.364,86.577z M67.017,61.975c-0.294,0.417-0.601,0.823-0.924,1.216  c-0.043,0.053-0.083,0.107-0.127,0.159c-0.041,0.049-0.078,0.101-0.12,0.15l-0.009-0.009c-0.061,0.071-0.129,0.137-0.19,0.208  l-4.337-4.337c-0.537-0.539-1.412-0.539-1.949,0c-0.539,0.538-0.539,1.411,0,1.949l4.34,4.34c-0.238,0.208-0.478,0.412-0.723,0.608  c-0.059,0.047-0.117,0.097-0.176,0.144c-0.309,0.242-0.625,0.471-0.944,0.692c-0.065,0.046-0.128,0.094-0.194,0.139  c-0.3,0.203-0.605,0.394-0.913,0.58c-0.098,0.059-0.193,0.123-0.292,0.181c-2.02,1.181-4.255,2.034-6.635,2.476l2.206-14.441  l14.442-2.207C69.917,56.817,68.708,59.579,67.017,61.975z M77.239,50l-21.937,3.352L51.951,50l3.352-3.352L77.239,50z   M62.88,33.659c0.208,0.164,0.419,0.324,0.62,0.495l-0.007,0.007c0.071,0.061,0.137,0.129,0.208,0.19l-4.346,4.346  c-0.539,0.538-0.539,1.411,0,1.949c0.269,0.27,0.622,0.404,0.975,0.404c0.353,0,0.706-0.135,0.975-0.404l4.349-4.349  c0.17,0.195,0.335,0.391,0.497,0.59c0.128,0.157,0.255,0.315,0.379,0.477c1.95,2.542,3.337,5.537,3.945,8.811l-14.442-2.207  l-2.206-14.441C57.202,30.156,60.286,31.61,62.88,33.659z M50,22.76l3.352,21.938L50,48.05l-3.353-3.352L50,22.76z M32.805,38.283  c0.307-0.448,0.629-0.885,0.97-1.307c0.145-0.181,0.303-0.354,0.455-0.531c0.041-0.048,0.083-0.095,0.123-0.144l4.297,4.298  c0.27,0.27,0.623,0.404,0.976,0.404s0.706-0.135,0.975-0.403c0.539-0.539,0.539-1.412,0.001-1.95l-4.295-4.296  c0.121-0.105,0.234-0.221,0.356-0.323l-0.004-0.004c0.281-0.235,0.572-0.459,0.865-0.679c0.197-0.148,0.397-0.288,0.598-0.428  c0.257-0.179,0.514-0.357,0.779-0.525c0.163-0.103,0.328-0.198,0.493-0.296c0.269-0.16,0.54-0.316,0.816-0.464  c1.842-0.988,3.844-1.713,5.966-2.107l-2.207,14.441l-14.442,2.207C30.063,43.289,31.205,40.618,32.805,38.283z M22.761,50  l21.937-3.352L48.05,50l-3.352,3.352L22.761,50z M37.273,66.452c-0.138-0.107-0.275-0.214-0.41-0.324  c-0.19-0.155-0.376-0.318-0.561-0.481l4.329-4.329c0.539-0.538,0.539-1.411,0-1.949c-0.537-0.539-1.412-0.539-1.949,0l-4.326,4.326  c-0.105-0.121-0.221-0.234-0.323-0.356l-0.005,0.005c-0.125-0.149-0.24-0.307-0.361-0.46c-0.143-0.181-0.291-0.36-0.428-0.545  c-0.192-0.26-0.372-0.528-0.552-0.797c-0.137-0.205-0.271-0.412-0.4-0.621c-0.187-0.302-0.371-0.606-0.543-0.918  c-1.047-1.899-1.808-3.976-2.218-6.178l14.442,2.207l2.207,14.441C42.862,69.856,39.835,68.44,37.273,66.452z M46.648,55.302  L50,51.95l3.352,3.352L50,77.24L46.648,55.302z"></path></svg>
