<?xml version="1.0" encoding="utf-8"?><!DOCTYPE svg PUBLIC "-//W3C//DTD SVG 1.1//EN" "http://www.w3.org/Graphics/SVG/1.1/DTD/svg11.dtd"><svg fill="#999999" version="1.1" xmlns="http://www.w3.org/2000/svg" xmlns:xlink="http://www.w3.org/1999/xlink" x="0px" y="0px" viewBox="0 -22.627 100 100" enable-background="new 0 0 100 100" xml:space="preserve"><g><path fill="#999999" d="M99.986,5.983l-1.522-5.683c-0.028-0.104-0.097-0.192-0.188-0.246c-0.094-0.054-0.202-0.068-0.309-0.041
		L66.412,8.47L65.97,6.818c-0.028-0.108-0.138-0.173-0.248-0.144l-1.871,0.501C63.8,7.19,63.755,7.224,63.728,7.27
		c-0.026,0.047-0.034,0.102-0.02,0.154l0.797,2.974c-2.845,0.785-4.082,1.133-4.945,1.376c-1.341,0.377-1.792,0.504-6.048,1.646
		C39.183,17.263,21.73,21.724,0.933,25.67L0,25.847l0.772,0.552c1.524,1.09,2.794,1.596,4.199,1.636
		c16.582-2.912,31.909-6.255,49.699-10.839c2.177-0.562,3.343-0.855,4.144-1.058c1.754-0.442,1.754-0.442,6.741-1.819l0.771,2.875
		c0.024,0.09,0.105,0.15,0.195,0.15c0.018,0,0.035-0.002,0.053-0.007l1.869-0.501c0.108-0.029,0.173-0.14,0.144-0.249l-0.443-1.651
		L99.699,6.48C99.915,6.422,100.044,6.2,99.986,5.983z M65.34,13.536c-4.979,1.374-4.979,1.374-6.724,1.814
		c-0.802,0.203-1.969,0.497-4.148,1.059C36.7,20.988,21.391,24.326,4.916,27.229c-0.917-0.031-1.821-0.329-2.851-0.947
		c20.392-3.906,37.539-8.291,51.657-12.077c4.264-1.144,4.715-1.271,6.058-1.648c0.861-0.242,2.098-0.59,4.936-1.374l0.631,2.352
		L65.34,13.536z M67.934,14.152l-1.312-4.898l1.824-0.489c-0.001,0.005-0.006,0.008-0.007,0.013l-0.525,2.567
		c-0.025,0.125,0.01,0.255,0.095,0.35l1.738,1.96c0.003,0.003,0.008,0.005,0.011,0.008L67.934,14.152z M70.441,13.479
		c0.001-0.005,0.006-0.008,0.007-0.013l0.525-2.567c0.025-0.125-0.01-0.255-0.094-0.35l-1.738-1.96
		c-0.003-0.004-0.009-0.004-0.013-0.008l3.237-0.868c-0.001,0.005-0.006,0.008-0.007,0.013l-0.525,2.567
		c-0.025,0.125,0.01,0.255,0.095,0.35l1.737,1.96c0.003,0.003,0.008,0.005,0.012,0.008L70.441,13.479z M74.36,12.43
		c0.001-0.005,0.006-0.008,0.007-0.013l0.525-2.567c0.025-0.125-0.01-0.255-0.095-0.351l-1.737-1.96
		c-0.004-0.004-0.009-0.004-0.013-0.008l3.236-0.868c-0.001,0.005-0.006,0.008-0.007,0.013l-0.525,2.567
		c-0.024,0.125,0.01,0.255,0.095,0.35l1.738,1.96c0.003,0.003,0.008,0.005,0.012,0.008L74.36,12.43z M78.28,11.379
		c0.001-0.005,0.006-0.008,0.006-0.013L78.812,8.8c0.025-0.125-0.01-0.255-0.094-0.35l-1.738-1.96
		c-0.004-0.004-0.009-0.004-0.013-0.008l3.236-0.867c-0.001,0.005-0.006,0.008-0.007,0.013l-0.524,2.567
		c-0.025,0.125,0.01,0.255,0.095,0.35l1.738,1.96c0.003,0.003,0.008,0.005,0.012,0.008L78.28,11.379z M82.199,10.329
		c0.001-0.005,0.006-0.008,0.007-0.013l0.525-2.567c0.025-0.125-0.01-0.255-0.095-0.351l-1.739-1.96
		c-0.003-0.003-0.009-0.004-0.012-0.007l3.237-0.868c-0.001,0.005-0.005,0.008-0.006,0.013l-0.525,2.567
		c-0.025,0.125,0.01,0.255,0.094,0.35l1.737,1.96c0.003,0.004,0.008,0.005,0.012,0.008L82.199,10.329z M86.118,9.279
		c0.001-0.005,0.006-0.008,0.007-0.013L86.65,6.7c0.024-0.125-0.01-0.255-0.095-0.351l-1.737-1.96
		c-0.004-0.004-0.009-0.004-0.013-0.008l3.236-0.867c-0.001,0.005-0.006,0.008-0.007,0.013L87.51,6.093
		c-0.025,0.125,0.01,0.255,0.095,0.351l1.738,1.96c0.003,0.003,0.008,0.005,0.012,0.008L86.118,9.279z M90.037,8.229
		c0.001-0.005,0.006-0.008,0.007-0.013l0.524-2.567c0.025-0.125-0.01-0.255-0.095-0.35l-1.737-1.96
		c-0.004-0.004-0.009-0.004-0.013-0.008l3.237-0.867c-0.001,0.005-0.006,0.008-0.007,0.013l-0.525,2.567
		c-0.025,0.125,0.01,0.255,0.094,0.351l1.739,1.96c0.003,0.003,0.008,0.004,0.011,0.008L90.037,8.229z M93.957,7.179
		c0.001-0.005,0.006-0.008,0.007-0.013l0.524-2.567c0.025-0.125-0.01-0.255-0.095-0.35l-1.738-1.96
		c-0.003-0.004-0.009-0.004-0.013-0.008l3.237-0.868c-0.001,0.005-0.006,0.008-0.007,0.014l-0.525,2.566
		c-0.025,0.125,0.01,0.255,0.095,0.35l1.738,1.96c0.003,0.004,0.008,0.005,0.012,0.008L93.957,7.179z M97.875,6.129
		c0.001-0.005,0.006-0.008,0.007-0.013l0.525-2.566c0.025-0.125-0.01-0.255-0.094-0.35l-1.739-1.96
		c-0.004-0.004-0.01-0.004-0.013-0.008l1.224-0.328l1.312,4.899L97.875,6.129z"></path><path fill="#999999" d="M66.239,21.629c-0.059-0.216-0.28-0.345-0.497-0.287l-32.744,8.772c-0.001,0-0.002,0.001-0.003,0.002
		L0.684,38.773c-0.216,0.059-0.345,0.28-0.287,0.497l1.522,5.683c0.028,0.104,0.096,0.192,0.189,0.246
		c0.062,0.036,0.132,0.055,0.203,0.055c0.035,0,0.07-0.005,0.105-0.014l32.312-8.658c0,0,0.001,0,0.002,0l32.744-8.774
		c0.216-0.059,0.345-0.28,0.287-0.497L66.239,21.629z M2.599,44.351l-1.312-4.897l1.222-0.328c-0.001,0.005-0.005,0.008-0.006,0.013
		l-0.525,2.566c-0.026,0.125,0.009,0.255,0.094,0.351l1.738,1.962c0.003,0.003,0.007,0.005,0.011,0.008L2.599,44.351z M4.503,43.84
		c0.001-0.004,0.005-0.007,0.006-0.012l0.525-2.565c0.025-0.126-0.009-0.255-0.094-0.352L3.203,38.95
		c-0.003-0.004-0.008-0.004-0.012-0.008l3.237-0.867c-0.001,0.005-0.006,0.009-0.007,0.014l-0.525,2.566
		c-0.026,0.125,0.009,0.256,0.094,0.352l1.738,1.959c0.003,0.004,0.008,0.005,0.011,0.008L4.503,43.84z M8.421,42.791
		c0.001-0.005,0.006-0.008,0.007-0.013l0.525-2.566c0.025-0.126-0.009-0.256-0.094-0.352l-1.738-1.959
		c-0.003-0.004-0.009-0.005-0.013-0.009l3.238-0.867c-0.001,0.005-0.006,0.008-0.007,0.013l-0.525,2.566
		c-0.026,0.126,0.009,0.255,0.094,0.352l1.738,1.96c0.003,0.004,0.008,0.005,0.011,0.008L8.421,42.791z M12.339,41.741
		c0.001-0.005,0.006-0.008,0.007-0.013l0.525-2.566c0.026-0.126-0.009-0.255-0.094-0.352l-1.738-1.96
		c-0.003-0.004-0.009-0.004-0.012-0.008l3.236-0.867c-0.001,0.004-0.005,0.007-0.006,0.012l-0.525,2.567
		c-0.026,0.126,0.009,0.255,0.094,0.352l1.738,1.96c0.003,0.003,0.008,0.005,0.011,0.008L12.339,41.741z M16.258,40.691
		c0.001-0.005,0.005-0.008,0.006-0.013l0.525-2.566c0.026-0.126-0.009-0.255-0.094-0.352L14.958,35.8
		c-0.003-0.004-0.008-0.004-0.012-0.007l3.236-0.867c-0.001,0.004-0.006,0.008-0.007,0.013l-0.525,2.566
		c-0.026,0.126,0.009,0.256,0.094,0.352l1.738,1.959c0.003,0.004,0.008,0.005,0.012,0.009L16.258,40.691z M20.176,39.642
		c0.001-0.005,0.006-0.009,0.007-0.014l0.525-2.566c0.026-0.125-0.009-0.256-0.094-0.352l-1.738-1.959
		c-0.003-0.004-0.009-0.004-0.013-0.008l3.237-0.867c-0.001,0.005-0.005,0.008-0.006,0.013l-0.525,2.565
		c-0.026,0.126,0.009,0.256,0.094,0.352l1.739,1.96c0.003,0.004,0.008,0.005,0.011,0.008L20.176,39.642z M24.095,38.591
		c0.001-0.005,0.006-0.008,0.007-0.013l0.525-2.566c0.026-0.125-0.009-0.255-0.094-0.351L22.795,33.7
		c-0.003-0.004-0.008-0.004-0.012-0.008l3.235-0.866c-0.001,0.005-0.005,0.007-0.006,0.012l-0.525,2.567
		c-0.026,0.125,0.009,0.256,0.094,0.351l1.738,1.961c0.003,0.004,0.008,0.004,0.011,0.007L24.095,38.591z M28.014,37.541
		c0.001-0.005,0.005-0.008,0.006-0.013l0.525-2.566c0.026-0.125-0.009-0.255-0.094-0.351l-1.738-1.962
		c-0.003-0.003-0.008-0.003-0.011-0.006l3.235-0.867c-0.001,0.005-0.006,0.008-0.007,0.013l-0.525,2.566
		c-0.025,0.125,0.009,0.256,0.094,0.351l1.738,1.96c0.003,0.004,0.008,0.005,0.012,0.009L28.014,37.541z M31.932,36.491
		c0.001-0.005,0.006-0.009,0.007-0.014l0.525-2.565c0.026-0.126-0.009-0.256-0.094-0.352l-1.738-1.959
		c-0.003-0.004-0.009-0.004-0.013-0.008l2.197-0.589l1.312,4.898L31.932,36.491z M37.24,35.058
		c-0.001,0.005-0.006,0.009-0.007,0.014c-0.035,0.143-0.142,0.258-0.286,0.297c-0.035,0.01-0.07,0.014-0.105,0.014
		c-0.109,0-0.215-0.047-0.292-0.128c-0.003-0.004-0.008-0.005-0.012-0.009l-1.738-1.959c-0.085-0.096-0.12-0.226-0.094-0.352
		l0.524-2.566c0.001-0.005,0.006-0.008,0.007-0.013c0.036-0.144,0.143-0.258,0.286-0.297c0.143-0.04,0.294,0.009,0.396,0.113
		c0.004,0.004,0.01,0.005,0.013,0.009l1.738,1.959c0.085,0.096,0.12,0.227,0.094,0.352L37.24,35.058z M41.159,34.008
		c-0.001,0.005-0.005,0.008-0.007,0.013c-0.036,0.145-0.143,0.259-0.286,0.298c-0.035,0.01-0.07,0.014-0.105,0.014
		c-0.109,0-0.215-0.047-0.292-0.128c-0.003-0.004-0.008-0.005-0.011-0.009l-1.738-1.96c-0.085-0.096-0.12-0.226-0.094-0.351
		l0.525-2.566c0.001-0.005,0.005-0.008,0.006-0.013c0.035-0.144,0.143-0.259,0.286-0.298c0.143-0.039,0.294,0.008,0.396,0.114
		c0.003,0.004,0.009,0.004,0.012,0.008l1.738,1.961c0.085,0.095,0.12,0.226,0.095,0.351L41.159,34.008z M45.077,32.958
		c-0.001,0.005-0.005,0.008-0.006,0.013c-0.036,0.145-0.143,0.259-0.287,0.298c-0.035,0.01-0.07,0.014-0.105,0.014
		c-0.11,0-0.215-0.047-0.292-0.128c-0.003-0.003-0.008-0.004-0.011-0.008l-1.738-1.961c-0.085-0.095-0.12-0.226-0.094-0.351
		l0.525-2.566c0.001-0.005,0.006-0.008,0.007-0.013c0.035-0.145,0.142-0.259,0.286-0.298c0.144-0.041,0.294,0.009,0.396,0.115
		c0.003,0.004,0.009,0.004,0.013,0.007l1.738,1.961c0.085,0.095,0.12,0.226,0.095,0.351L45.077,32.958z M48.996,31.907
		c-0.001,0.005-0.006,0.008-0.007,0.014c-0.036,0.144-0.143,0.258-0.286,0.297c-0.035,0.01-0.07,0.014-0.105,0.014
		c-0.109,0-0.214-0.047-0.292-0.127c-0.003-0.004-0.008-0.005-0.012-0.009l-1.738-1.96c-0.085-0.095-0.12-0.226-0.094-0.351
		l0.525-2.566c0.001-0.005,0.006-0.008,0.007-0.014c0.035-0.143,0.143-0.258,0.286-0.297c0.143-0.04,0.294,0.009,0.396,0.115
		c0.003,0.003,0.009,0.004,0.013,0.008l1.738,1.959c0.085,0.096,0.12,0.226,0.094,0.352L48.996,31.907z M52.915,30.858
		c-0.001,0.005-0.005,0.008-0.007,0.013c-0.035,0.144-0.143,0.258-0.286,0.297c-0.035,0.01-0.07,0.014-0.105,0.014
		c-0.109,0-0.215-0.047-0.293-0.128c-0.003-0.003-0.008-0.004-0.011-0.008l-1.738-1.96c-0.085-0.096-0.119-0.227-0.095-0.352
		l0.525-2.566c0.001-0.005,0.005-0.008,0.007-0.013c0.035-0.144,0.143-0.259,0.286-0.298c0.146-0.039,0.296,0.009,0.397,0.115
		c0.003,0.004,0.009,0.004,0.012,0.008l1.738,1.96c0.084,0.096,0.119,0.226,0.094,0.352L52.915,30.858z M56.833,29.809
		c-0.001,0.005-0.005,0.008-0.006,0.012c-0.035,0.145-0.143,0.26-0.287,0.298c-0.035,0.01-0.07,0.014-0.104,0.014
		c-0.111,0-0.217-0.046-0.293-0.128c-0.003-0.003-0.008-0.005-0.011-0.008l-1.738-1.96c-0.085-0.096-0.12-0.226-0.095-0.352
		l0.525-2.566c0.001-0.005,0.006-0.008,0.007-0.013c0.035-0.144,0.142-0.259,0.286-0.298c0.146-0.039,0.295,0.009,0.396,0.115
		c0.004,0.004,0.01,0.004,0.013,0.008l1.738,1.96c0.085,0.096,0.12,0.226,0.095,0.352L56.833,29.809z M60.752,28.758
		c-0.001,0.005-0.006,0.008-0.007,0.013c-0.035,0.143-0.143,0.259-0.286,0.298c-0.035,0.01-0.07,0.014-0.105,0.014
		c-0.109,0-0.215-0.047-0.293-0.129c-0.003-0.003-0.008-0.004-0.011-0.008l-1.738-1.959c-0.084-0.096-0.119-0.226-0.094-0.352
		l0.525-2.566c0.001-0.005,0.006-0.008,0.007-0.013c0.034-0.143,0.142-0.259,0.285-0.297c0.146-0.039,0.295,0.009,0.396,0.114
		c0.004,0.004,0.01,0.004,0.013,0.008l1.738,1.959c0.085,0.096,0.119,0.226,0.095,0.352L60.752,28.758z M64.67,27.709
		c-0.001,0.004-0.005,0.007-0.006,0.011c-0.035,0.145-0.142,0.261-0.287,0.3c-0.035,0.01-0.069,0.014-0.104,0.014
		c-0.111,0-0.217-0.048-0.294-0.13c-0.003-0.003-0.007-0.004-0.01-0.007l-1.738-1.961c-0.085-0.096-0.12-0.226-0.095-0.352
		l0.525-2.566c0.001-0.005,0.005-0.008,0.006-0.011c0.035-0.146,0.144-0.26,0.287-0.299c0.146-0.039,0.296,0.009,0.396,0.114
		c0.003,0.004,0.009,0.004,0.012,0.008l1.738,1.96c0.085,0.096,0.12,0.227,0.095,0.352L64.67,27.709z"></path></g></svg>