<svg fill="#C82606" xmlns="http://www.w3.org/2000/svg" xmlns:xlink="http://www.w3.org/1999/xlink" version="1.1" x="0px" y="0px" viewBox="0 0 100 100" enable-background="new 0 0 100 100" xml:space="preserve"><g><rect x="-192" width="185" height="99"></rect><rect y="-36" width="100" height="30"></rect><text transform="matrix(1 0 0 1 66 -19.5)" fill="#C82606" font-family="'Helvetica'" font-size="2.4">http://thenounproject.com</text><text transform="matrix(1 0 0 1 7.166 -24.5)"><tspan x="0" y="0" fill="#C82606" font-family="'Helvetica-Bold'" font-size="6.1578">The Noun Project</tspan><tspan x="1.12" y="4.8" fill="#C82606" font-family="'Helvetica-Bold'" font-size="4">Icon Template</tspan></text><text transform="matrix(1 0 0 1 -178.5 10.5)" fill="#C82606" font-family="'Helvetica-Bold'" font-size="6.1578">Reminders</text><line fill="#C82606" stroke="#C82606" stroke-miterlimit="10" x1="8" y1="-14.5" x2="18" y2="-14.5"></line><line fill="#C82606" stroke="#C82606" stroke-miterlimit="10" x1="-179" y1="16.5" x2="-162" y2="16.5"></line><g><g><g><rect x="-170.802" y="31.318" fill="#C82606" width="8.721" height="8.642"></rect><path fill="#C82606" d="M-164.455,42.312h4.747v-4.703h-4.747V42.312z M-159.266,42.749h-5.63V37.17h5.63V42.749      L-159.266,42.749z M-166.221,44.062h8.279v-8.203h-8.279V44.062L-166.221,44.062z M-157.5,44.5h-9.163v-9.079h9.163V44.5      L-157.5,44.5z"></path><polygon fill="#C82606" points="-166.149,44.133 -166.292,43.991 -158.013,35.787 -157.871,35.929     "></polygon></g></g></g><rect x="-179" y="58" fill="none" width="35" height="32.5"></rect><text transform="matrix(1 0 0 1 -179 60.1572)"><tspan x="0" y="0" fill="#C82606" font-family="'Helvetica-Bold'" font-size="3">Strokes</tspan><tspan x="0" y="5" fill="#C82606" font-family="'Helvetica'" font-size="2.4">Try to keep strokes at 4px</tspan><tspan x="0" y="10" fill="#C82606" font-family="'Helvetica'" font-size="2.4">Minimum stroke weight is 2px</tspan><tspan x="0" y="14.5" fill="#C82606" font-family="'Helvetica'" font-size="2.4">For thicker strokes use even </tspan><tspan x="0" y="17.5" fill="#C82606" font-family="'Helvetica'" font-size="2.4">numbers: 6px, 8px etc.</tspan><tspan x="0" y="22" fill="#C82606" font-family="'Helvetica-Bold'" font-size="2.4">Remember to expand strokes </tspan><tspan x="0" y="25" fill="#C82606" font-family="'Helvetica-Bold'" font-size="2.4">before saving as an SVG </tspan></text><rect x="-136.5" y="58" fill="none" width="35" height="32.5"></rect><text transform="matrix(1 0 0 1 -136.5 60.1572)"><tspan x="0" y="0" fill="#C82606" font-family="'Helvetica-Bold'" font-size="3">Size</tspan><tspan x="0" y="5" fill="#C82606" font-family="'Helvetica'" font-size="2.4">Cannot be wider or taller than </tspan><tspan x="0" y="8.5" fill="#C82606" font-family="'Helvetica'" font-size="2.4">100px (artboard size)</tspan><tspan x="0" y="13.5" fill="#C82606" font-family="'Helvetica'" font-size="2.4">Scale your icon to fill as much of </tspan><tspan x="0" y="16.5" fill="#C82606" font-family="'Helvetica'" font-size="2.4">the artboard as possible</tspan></text><rect x="-94" y="58" fill="none" width="35" height="32.5"></rect><text transform="matrix(1 0 0 1 -94 60.1572)"><tspan x="0" y="0" fill="#C82606" font-family="'Helvetica-Bold'" font-size="3">Ungroup</tspan><tspan x="0" y="5" fill="#C82606" font-family="'Helvetica'" font-size="2.4">If your design has more than one </tspan><tspan x="0" y="8" fill="#C82606" font-family="'Helvetica'" font-size="2.4">shape, make sure to ungroup</tspan></text><rect x="-50" y="58" fill="none" width="35" height="32.5"></rect><text transform="matrix(1 0 0 1 -50 60.1572)"><tspan x="0" y="0" fill="#C82606" font-family="'Helvetica-Bold'" font-size="3">Save as</tspan><tspan x="0" y="5" fill="#C82606" font-family="'Helvetica'" font-size="2.4">Save as .SVG and make sure </tspan><tspan x="0" y="8" fill="#C82606" font-family="'Helvetica'" font-size="2.4">“Use Artboards” is checked</tspan></text><text transform="matrix(1.0074 0 0 1 -125.542 30.5933)" fill="#C82606" font-family="'Helvetica'" font-size="2.5731">100px</text><text transform="matrix(1.0074 0 0 1 -41 39)" fill="#C82606" font-family="'Helvetica-Bold'" font-size="5.1462">.SVG</text><rect x="-126.514" y="34.815" fill="#C82606" width="10.261" height="10.185"></rect><rect x="-126.477" y="31.766" fill="#C82606" width="0.522" height="2.337"></rect><rect x="-116.812" y="31.766" fill="#C82606" width="0.523" height="2.337"></rect><rect x="-127" y="32.337" fill="#C82606" width="11.233" height="0.572"></rect><g><rect x="-83.805" y="33.844" fill="#C82606" width="10.305" height="10.156"></rect><rect x="-76.809" y="28.707" fill="#C82606" width="3.308" height="3.261"></rect></g><rect x="-178.5" y="22.5" fill="#C82606" stroke="#C82606" stroke-miterlimit="10" width="30" height="30"></rect><rect x="-136.5" y="22.5" fill="#C82606" stroke="#C82606" stroke-miterlimit="10" width="30" height="30"></rect><rect x="-93.5" y="22.5" fill="#C82606" stroke="#C82606" stroke-miterlimit="10" width="30" height="30"></rect><rect x="-49.5" y="22.5" fill="#C82606" stroke="#C82606" stroke-miterlimit="10" width="30" height="30"></rect></g><g><path d="M50,7C32.828,7,19,37.088,19,62c0,17.094,13.907,31,31,31s31-13.906,31-31C81,37.088,67.172,7,50,7z M50,91   c-15.991,0-29-13.01-29-29c0-2.929,0.204-5.938,0.587-8.962c7.062-1.594,13.342-6.98,15.414-13.951   c1.954-6.573-0.384-12.719-5.394-16.044C36.667,14.666,43.115,9,50,9c5.251,0,10.248,3.304,14.569,8.585   C58.483,19.479,54.793,25.877,56,33.5C57.443,42.613,65.329,50,73.613,50c1.514,0,2.924-0.267,4.226-0.729   C78.588,53.553,79,57.855,79,62C79,77.99,65.99,91,50,91z"></path><path d="M56.096,56.193c-7.231,0-13.545,6.448-14.102,14.403S46.85,85,54.081,85c7.232,0,13.545-6.448,14.101-14.403   C68.738,62.642,63.327,56.193,56.096,56.193z"></path></g></svg>