<svg fill="#DFC339" xmlns="http://www.w3.org/2000/svg" xmlns:xlink="http://www.w3.org/1999/xlink" version="1.1" x="0px" y="0px" viewBox="0 0 100 100" enable-background="new 0 0 100 100" xml:space="preserve"><g><g><g><path stroke="black" fill="#DFC339" d="M94.762,74.148l-2.24-2.248c-4.204-4.194-9.897-6.313-16.946-6.313c-12.265,0-24.457,6.47-24.573,6.536     l-1.956,1.05V20.643l0.697-0.371c0.518-0.285,12.89-6.862,25.832-6.862c7.775,0,14.095,2.387,18.808,7.083l0.379,0.381V74.148     L94.762,74.148z M51.686,22.243v46.599c4.049-1.894,13.789-5.896,23.888-5.896c6.595,0,12.161,1.726,16.558,5.112V21.996     c-4.154-3.951-9.721-5.95-16.558-5.95C64.979,16.046,54.443,20.875,51.686,22.243z"></path></g></g><g><g><path stroke="black" fill="#DFC339" d="M5.857,74.148V20.875l0.38-0.381c4.702-4.696,11.04-7.083,18.807-7.083     c12.941,0,25.313,6.578,25.831,6.862l0.695,0.371V73.17l-1.942-1.05c-0.128-0.063-12.319-6.536-24.587-6.536     c-7.044,0-12.741,2.118-16.935,6.313L5.857,74.148z M25.042,62.945c10.102,0,19.842,4.005,23.889,5.896V22.243     c-2.76-1.369-13.291-6.197-23.889-6.197c-6.834,0-12.403,1.997-16.554,5.95v46.062C12.892,64.668,18.438,62.945,25.042,62.945z"></path></g></g><g><g><path stroke="black" fill="#DFC339" d="M97.667,81.984l-2.315-2.672c-14.758-17.043-44.255-3.833-44.55-3.687l-1.87,0.85v-8.475h2.64v4.438     c6.656-2.631,29.235-10.116,43.465,2.784V24.499l-2.25-1.28l1.321-2.283l3.56,2.046V81.984z"></path></g></g><g><g><path stroke="black" fill="#DFC339" d="M2.833,81.984V22.982l3.56-2.046l1.311,2.283l-2.229,1.28v50.724c14.22-12.9,36.797-5.415,43.453-2.784     v-4.438h2.64v8.475l-1.868-0.85c-0.296-0.129-29.805-13.345-44.553,3.687L2.833,81.984z"></path></g></g><g><g><path stroke="black" fill="#DFC339" d="M5.857,86.59V75.5h2.63v3.408c5.231-4.976,19.05-14.088,42.483-2.007l-1.204,2.343     c-28.39-14.642-40.994,3.065-41.5,3.833L5.857,86.59z"></path></g></g><g><g><path stroke="black" fill="#DFC339" d="M94.825,86.59l-2.409-3.513c-0.519-0.752-13.099-18.475-41.499-3.833l-1.206-2.343     c23.436-12.081,37.253-2.977,42.484,2.007V75.5h2.63V86.59L94.825,86.59z"></path></g></g><g><g><rect x="48.931" y="54.525" fill="#DFC339" width="2.641" height="24.848"></rect></g></g><g><g><path stroke="black" fill="#DFC339" d="M56.368,26.977l-1.269-2.31c0.824-0.443,20.262-10.849,33.311,0.147l-1.688,2.019     C75.048,16.999,56.547,26.88,56.368,26.977z"></path></g></g><g><g><path stroke="black" fill="#DFC339" d="M56.368,33.937L55.1,31.619c0.824-0.445,20.262-10.845,33.311,0.152l-1.688,2.022     C75.048,23.96,56.547,33.839,56.368,33.937z"></path></g></g><g><g><path stroke="black" fill="#DFC339" d="M88.889,63.444l-2.167-1.82c-3.454-2.906-7.809-4.373-12.974-4.373c-8.99,0-17.296,4.469-17.38,4.512     l-1.952,1.076V38.952l0.684-0.371c0.371-0.2,9-4.85,18.648-4.85c5.799,0,10.744,1.691,14.662,5.004l0.477,0.385v24.325H88.889z      M57.045,40.547v17.961c3.137-1.416,9.645-3.899,16.703-3.899c4.783,0,8.97,1.15,12.498,3.403V40.356     c-3.369-2.636-7.573-3.983-12.498-3.983C66.27,36.374,59.232,39.492,57.045,40.547z"></path></g></g><g><g><path stroke="black" fill="#DFC339" d="M44.059,26.977c-0.189-0.097-18.689-9.979-30.363-0.144l-1.692-2.017     c13.06-10.988,32.488-0.591,33.313-0.148L44.059,26.977z"></path></g></g><g><g><path stroke="black" fill="#DFC339" d="M44.059,33.937c-0.189-0.1-18.689-9.979-30.363-0.142l-1.692-2.022     c13.06-10.999,32.488-0.597,33.313-0.152L44.059,33.937z"></path></g></g><g><g><path stroke="black" fill="#DFC339" d="M44.059,40.896C43.87,40.8,25.37,30.922,13.696,40.749l-1.692-2.012c13.06-11,32.488-0.609,33.313-0.154     L44.059,40.896z"></path></g></g><g><g><path stroke="black" fill="#DFC339" d="M44.059,47.857c-0.189-0.107-18.689-9.979-30.363-0.157l-1.692-2.008     c13.06-10.994,32.488-0.604,33.313-0.154L44.059,47.857z"></path></g></g><g><g><path stroke="black" fill="#DFC339" d="M44.059,54.819c-0.189-0.11-18.689-9.977-30.363-0.157l-1.692-2.016c13.06-10.99,32.488-0.6,33.313-0.143     L44.059,54.819z"></path></g></g><g><g><path stroke="black" fill="#DFC339" d="M44.059,61.771c-0.189-0.098-18.689-9.975-30.363-0.146l-1.692-2.017c13.06-11,32.488-0.597,33.313-0.145     L44.059,61.771z"></path></g></g><g><g><path stroke="black" fill="#DFC339" d="M59.145,54.979l4.008-12.573l4.193,2.388l5.176-7.455l10.185,16.509l-3.56-1.307     c-2.262-0.817-4.671-1.236-7.163-1.236c-5.675,0-9.963,2.188-10.003,2.211L59.145,54.979z M64.673,46.294l-1.194,3.784     c2.008-0.667,4.998-1.406,8.505-1.406c1.606,0,3.188,0.158,4.711,0.471l-4.311-6.999l-4.258,6.12L64.673,46.294z"></path></g></g></g></svg>
