<svg fill="#F5D327" xmlns="http://www.w3.org/2000/svg" xmlns:xlink="http://www.w3.org/1999/xlink" version="1.1" x="0px" y="0px" viewBox="0 0 100 100" enable-background="new 0 0 100 100" xml:space="preserve"><g><path fill="none" d="M49.963,75.871c-1.938-2.374-3.878-4.745-5.808-7.125c-2.418,2.06-4.815,4.145-7.191,6.255   c1.86,2.419,3.75,4.815,5.675,7.183C45.06,80.056,47.498,77.947,49.963,75.871z M41.678,76.091   c-0.03-0.673,0.594-1.246,1.246-1.246c0.028,0,0.057,0,0.085,0c0.698,0,1.215,0.571,1.246,1.246   c0.03,0.673-0.594,1.246-1.246,1.246c-0.028,0-0.057,0-0.085,0C42.225,77.337,41.708,76.766,41.678,76.091z"></path><path fill="none" d="M59.857,41.291c-2.238,1.75-4.466,3.512-6.68,5.292c2.133,2.412,4.266,4.824,6.399,7.236   c2.265-1.754,4.544-3.491,6.841-5.203C64.293,46.118,62.105,43.677,59.857,41.291z M59.568,48.913c-1.606,0-1.603-2.491,0-2.491   C61.174,46.422,61.171,48.913,59.568,48.913z"></path><path fill="none" d="M64.047,78.276c-1.787-2.388-3.615-4.748-5.47-7.087c-2.017,1.628-4.021,3.272-6.01,4.935   c1.961,2.397,3.935,4.783,5.909,7.169C60.333,81.62,62.19,79.948,64.047,78.276z M58.031,75.699c1.606,0,1.603,2.491,0,2.491   C56.426,78.191,56.429,75.699,58.031,75.699z"></path><path fill="none" d="M57.419,69.736c-1.932-2.41-3.892-4.799-5.873-7.171c-2.008,1.639-3.999,3.299-5.979,4.972   c1.935,2.387,3.882,4.765,5.825,7.145C53.386,73.016,55.396,71.368,57.419,69.736z M51.032,67.59c1.606,0,1.603,2.491,0,2.491   C49.427,70.082,49.429,67.59,51.032,67.59z"></path><path fill="none" d="M59.335,56.361c-2.129,1.662-4.244,3.341-6.343,5.04c1.98,2.372,3.94,4.759,5.871,7.169   c2.201-1.761,4.418-3.501,6.651-5.222C63.455,61.019,61.395,58.69,59.335,56.361z M58.458,63.338c-1.606,0-1.603-2.491,0-2.491   C60.064,60.847,60.061,63.338,58.458,63.338z"></path><path fill="none" d="M35.6,43.97c-1.613-1.864-3.221-3.729-4.822-5.597c-0.255,0.424-0.499,0.858-0.723,1.31   c-0.956,1.929-1.631,3.973-2.115,6.078c0.807,0.993,1.611,1.989,2.417,2.983C32.084,47.129,33.829,45.535,35.6,43.97z    M30.376,42.666c1.606,0,1.603,2.491,0,2.491C28.77,45.157,28.773,42.666,30.376,42.666z"></path><path fill="none" d="M29.529,64.959c2.134-2.122,4.311-4.196,6.527-6.225c-1.959-2.424-3.922-4.843-5.884-7.265   c-1.114,1.059-2.216,2.131-3.311,3.211c-0.085,2.18-0.081,4.356-0.059,6.483c0.075,0.059,0.146,0.127,0.207,0.216   C27.841,62.579,28.683,63.77,29.529,64.959z M28.556,57.712c0.029-0.029,0.057-0.057,0.085-0.085c0.477-0.477,1.284-0.477,1.762,0   c0.476,0.476,0.476,1.286,0,1.762c-0.028,0.028-0.057,0.057-0.085,0.085c-0.477,0.477-1.284,0.477-1.762,0   C28.08,58.998,28.08,58.188,28.556,57.712z"></path><path fill="none" d="M50.379,31.885c-1.165-1.079-2.344-2.145-3.537-3.197c-0.038-0.033-0.066-0.069-0.096-0.104   c-2.617,0.362-5.168,1.107-7.507,2.237c1.701,1.924,3.402,3.847,5.104,5.771C46.328,34.992,48.343,33.426,50.379,31.885z    M44.63,30.716c1.606,0,1.603,2.491,0,2.491C43.025,33.207,43.027,30.716,44.63,30.716z"></path><path fill="none" d="M56.762,29.478c-1.178,0.844-2.344,1.701-3.506,2.564c2.32,2.197,4.583,4.448,6.789,6.752   c2.171-1.69,4.349-3.371,6.527-5.048c-2.672-2.442-5.899-3.946-9.454-4.732C57.058,29.186,56.943,29.348,56.762,29.478z    M59.673,31.972c1.606,0,1.603,2.491,0,2.491C58.068,34.464,58.07,31.972,59.673,31.972z"></path><path fill="none" d="M51.337,25.839c2.717,0.073,5.443,0.413,8.036,1.133c2.899-5.336,6.019-10.529,9.356-15.595   c-3.523,1.664-6.926,3.558-10.292,5.54c-0.892,0.525-1.763-0.176-1.874-1.076c-0.254-2.053-0.508-4.106-0.762-6.158   c-1.729,2.704-3.566,5.631-5.895,7.379c-0.356,0.267-0.894,0.192-1.257,0c-3.086-1.626-5.081-6.262-8.062-8.43   c0.82,3.043,1.571,6.102,1.916,9.242c0.105,0.957-1.13,1.53-1.874,1.076c-2.04-1.244-4.125-2.308-6.289-3.234   c2.448,3.918,5.143,7.647,8.131,11.2C45.424,26.111,48.492,25.757,51.337,25.839z"></path><path fill="none" d="M27.471,48.134c-0.202,1.248-0.343,2.513-0.445,3.783c0.655-0.636,1.307-1.275,1.968-1.903   C28.486,49.388,27.979,48.76,27.471,48.134z"></path><path fill="none" d="M51.337,28.33c-0.692-0.02-1.386-0.004-2.079,0.028c0.881,0.789,1.763,1.578,2.628,2.382   c0.965-0.719,1.94-1.425,2.915-2.131C53.67,28.457,52.515,28.362,51.337,28.33z"></path><path fill="none" d="M67.904,47.504c1.556-1.15,3.122-2.285,4.692-3.416c-0.568-2.189-1.425-4.324-2.717-6.377   c-0.609-0.968-1.28-1.838-1.994-2.637c-2.188,1.685-4.375,3.373-6.555,5.07C63.581,42.542,65.773,44.995,67.904,47.504z    M67.506,40.105c0.029,0,0.057,0,0.085,0c0.698,0,1.215,0.571,1.246,1.246c0.03,0.673-0.594,1.246-1.246,1.246   c-0.029,0-0.057,0-0.085,0c-0.698,0-1.215-0.571-1.246-1.246C66.23,40.678,66.855,40.105,67.506,40.105z"></path><path fill="none" d="M51.946,45.191c2.195-1.765,4.405-3.512,6.625-5.247c-2.218-2.309-4.494-4.564-6.826-6.764   c-2.082,1.572-4.14,3.173-6.169,4.808C47.699,40.388,49.822,42.789,51.946,45.191z M51.63,37.886c1.606,0,1.603,2.491,0,2.491   C50.024,40.377,50.027,37.886,51.63,37.886z"></path><path fill="none" d="M58.102,54.966c-2.126-2.403-4.251-4.807-6.377-7.21c-2.036,1.651-4.056,3.322-6.056,5.014   c2.055,2.391,4.101,4.791,6.129,7.205C53.884,58.286,55.986,56.618,58.102,54.966z M51.8,51.885c1.606,0,1.603,2.491,0,2.491   C50.195,54.376,50.197,51.885,51.8,51.885z"></path><path fill="none" d="M38.221,44.152c2.078,2.4,4.159,4.801,6.233,7.207c1.995-1.686,4.009-3.351,6.039-4.997   c-2.122-2.4-4.244-4.799-6.366-7.198C42.132,40.797,40.164,42.459,38.221,44.152z M44.033,46.608c-1.606,0-1.603-2.491,0-2.491   C45.639,44.117,45.636,46.608,44.033,46.608z"></path><path fill="none" d="M31.534,50.198c1.966,2.428,3.935,4.854,5.899,7.284c1.845-1.665,3.713-3.305,5.602-4.92   c-2.069-2.398-4.143-4.791-6.215-7.182C35.034,46.958,33.275,48.567,31.534,50.198z M36.692,52.839c-1.606,0-1.603-2.491,0-2.491   C38.298,50.348,38.295,52.839,36.692,52.839z"></path><path fill="none" d="M38.608,58.935c1.928,2.386,3.856,4.771,5.787,7.154c1.972-1.665,3.956-3.317,5.956-4.949   c-2.019-2.401-4.055-4.789-6.101-7.167C42.347,55.602,40.467,57.256,38.608,58.935z M44.033,60.863c-1.606,0-1.603-2.491,0-2.491   C45.639,58.372,45.636,60.863,44.033,60.863z"></path><path fill="none" d="M35.823,73.52c2.365-2.099,4.752-4.173,7.159-6.223c-1.919-2.369-3.835-4.739-5.751-7.109   c-2.242,2.056-4.443,4.158-6.599,6.309C32.334,68.86,34.062,71.203,35.823,73.52z M36.607,65.456c1.606,0,1.603,2.491,0,2.491   C35.001,67.948,35.004,65.456,36.607,65.456z"></path><path fill="none" d="M42.895,37.772c-1.783-2.016-3.566-4.033-5.35-6.049c-2.189,1.301-4.13,2.984-5.686,5.049   c1.707,1.994,3.422,3.983,5.142,5.971C38.94,41.056,40.905,39.399,42.895,37.772z M36.521,36.179c1.606,0,1.603,2.491,0,2.491   C34.916,38.67,34.918,36.179,36.521,36.179z"></path><path fill="none" d="M38.334,88.526c3.084,1.944,6.592,3.232,10.191,3.725c0.029-0.026,0.059-0.053,0.088-0.08   c-2.099-2.412-4.162-4.852-6.191-7.32C41.053,86.068,39.691,87.294,38.334,88.526z M42.155,90.226c-1.606,0-1.603-2.491,0-2.491   C43.761,87.735,43.758,90.226,42.155,90.226z"></path><path fill="none" d="M72.69,68.646c0.104-1.117,0.189-2.229,0.262-3.329c-0.419,0.11-0.885,0.024-1.205-0.296   c-0.029-0.028-0.057-0.057-0.085-0.085c-0.477-0.477-0.477-1.284,0-1.762c0.382-0.382,0.971-0.442,1.438-0.212   c0.037-0.613,0.074-1.221,0.112-1.818c0.029-0.45,0.057-0.901,0.086-1.351c-1.697,1.259-3.386,2.53-5.065,3.812   C69.718,65.286,71.204,66.966,72.69,68.646z"></path><path fill="none" d="M51.228,92.329c0.042,0.048,0.084,0.097,0.127,0.145c3.59,0.062,7.224-0.707,10.376-2.343   c-1.155-1.38-2.297-2.771-3.447-4.156C55.932,88.093,53.58,90.212,51.228,92.329z M57.093,91.336c-1.606,0-1.603-2.491,0-2.491   C58.698,88.844,58.696,91.336,57.093,91.336z"></path><path fill="none" d="M26.851,64.39c0.029,1.04,0.08,2.082,0.16,3.12c0.393-0.406,0.783-0.814,1.18-1.216   C27.74,65.662,27.298,65.024,26.851,64.39z"></path><path fill="none" d="M72.713,50.535c-1.606,0-1.603-2.491,0-2.491c0.249,0,0.454,0.065,0.626,0.166   c-0.078-0.718-0.173-1.434-0.301-2.143c-1.315,0.95-2.629,1.9-3.933,2.864c1.516,1.82,2.997,3.672,4.45,5.549   c0.035-1.42,0.028-2.833-0.048-4.232C73.311,50.421,73.049,50.535,72.713,50.535z"></path><path fill="none" d="M51.139,77.314c-2.462,2.075-4.897,4.183-7.315,6.311c2.024,2.461,4.082,4.895,6.176,7.3   c2.364-2.129,4.728-4.258,7.093-6.386C55.103,82.134,53.114,79.729,51.139,77.314z M50.349,85.531c-1.606,0-1.603-2.491,0-2.491   C51.955,83.04,51.952,85.531,50.349,85.531z"></path><path fill="none" d="M73.051,56.846c-1.759-2.314-3.575-4.579-5.433-6.807c-2.286,1.703-4.553,3.43-6.807,5.175   c2.063,2.333,4.126,4.665,6.189,6.998c2.133-1.63,4.278-3.245,6.44-4.839c0.004-0.072,0.008-0.144,0.011-0.216   C73.304,57.095,73.165,56.996,73.051,56.846z M67.079,57.022c-0.028,0-0.057,0-0.085,0c-0.698,0-1.215-0.571-1.246-1.246   c-0.03-0.673,0.594-1.246,1.246-1.246c0.029,0,0.057,0,0.085,0c0.698,0,1.215,0.571,1.246,1.246   C68.355,56.449,67.731,57.022,67.079,57.022z"></path><path fill="none" d="M60.02,70.022c1.835,2.312,3.645,4.644,5.415,7.004c2.26-2.035,4.519-4.069,6.779-6.104   c-1.822-2.06-3.644-4.12-5.466-6.18C64.489,66.482,62.245,68.241,60.02,70.022z M66.055,71.96c-1.606,0-1.603-2.491,0-2.491   C67.661,69.468,67.658,71.96,66.055,71.96z"></path><path fill="none" d="M29.301,67.83c-0.685,0.696-1.363,1.399-2.037,2.107c0.181,1.404,0.433,2.791,0.771,4.15   c-0.005-0.043-0.014-0.086-0.014-0.129c0-0.029,0-0.057,0-0.085c0-0.698,0.571-1.215,1.246-1.246   c0.673-0.03,1.246,0.594,1.246,1.246c0,0.029,0,0.057,0,0.085c0,0.698-0.571,1.215-1.246,1.246   c-0.522,0.023-0.981-0.349-1.161-0.821c0.412,1.589,0.958,3.132,1.654,4.613c1.547-1.423,3.1-2.839,4.666-4.24   C32.686,72.47,30.982,70.159,29.301,67.83z"></path><path fill="none" d="M69.342,82.379c0.445-0.887,0.833-1.807,1.172-2.753c-1.448-0.155-1.399-2.476,0.151-2.476   c0.229,0,0.422,0.055,0.586,0.142c0.328-1.214,0.587-2.458,0.803-3.716c-1.835,1.652-3.669,3.304-5.504,4.956   C67.491,79.807,68.423,81.088,69.342,82.379z"></path><path fill="none" d="M65.162,79.783c-1.831,1.649-3.663,3.298-5.494,4.947c1.228,1.48,2.448,2.967,3.684,4.442   c1.965-1.287,3.678-2.953,4.986-5.012c-0.017-0.021-0.036-0.037-0.052-0.06C67.262,82.648,66.216,81.212,65.162,79.783z    M63.58,86.641c-1.606,0-1.603-2.491,0-2.491C65.185,84.15,65.183,86.641,63.58,86.641z"></path><path fill="none" d="M35.567,76.235c-1.65,1.478-3.287,2.97-4.916,4.472c0.765,1.32,1.67,2.579,2.756,3.752   c1.015,1.096,2.139,2.091,3.342,2.984c1.488-1.354,2.984-2.698,4.489-4.032C39.315,81.045,37.426,78.651,35.567,76.235z    M35.156,84.08c-1.606,0-1.603-2.491,0-2.491C36.761,81.589,36.759,84.08,35.156,84.08z"></path><path d="M68.902,32.391c-2.063-2.106-4.493-3.598-7.122-4.623c3.496-6.397,7.291-12.601,11.421-18.613   c0.58-0.845-0.403-2.242-1.407-1.83c-4.503,1.848-8.781,4.087-12.989,6.508c-0.314-2.538-0.628-5.077-0.942-7.615   c-0.154-1.242-1.562-1.676-2.321-0.629c-1.561,2.153-3.01,4.756-4.839,6.674c-0.991,1.039-1.002,1.917-2.46,1.208   c-0.741-0.36-1.771-1.89-2.282-2.445c-1.846-2.005-4.095-5.233-6.946-5.833c-0.912-0.192-1.795,0.573-1.532,1.532   c0.797,2.906,1.651,5.827,2.182,8.801c-2.551-1.386-5.189-2.546-7.957-3.499c-1.056-0.363-1.924,0.932-1.407,1.83   c2.828,4.905,6.053,9.507,9.641,13.872c-2.771,1.034-5.344,2.495-7.41,4.406c-4.521,4.18-6.686,10.216-7.519,16.18   c-1.799,12.89-2.342,29.994,8.208,39.455c4.878,4.375,11.395,6.979,17.919,7.168c0.192,0.085,0.393,0.077,0.576,0.011   c4.446,0.031,8.873-1.067,12.763-3.511c5.409-3.397,8.102-9.01,9.408-15.094c1.681-7.829,2.074-16.091,2.116-24.073   C76.042,44.866,74.244,37.844,68.902,32.391z M69.879,37.712c1.292,2.052,2.149,4.187,2.717,6.377   c-1.57,1.131-3.137,2.266-4.692,3.416c-2.13-2.509-4.322-4.963-6.574-7.36c2.18-1.697,4.367-3.385,6.555-5.07   C68.599,35.874,69.269,36.744,69.879,37.712z M58.571,39.944c-2.22,1.735-4.43,3.482-6.625,5.247   c-2.124-2.401-4.247-4.802-6.371-7.203c2.03-1.635,4.087-3.236,6.169-4.808C54.077,35.379,56.352,37.634,58.571,39.944z    M49.258,28.358c0.693-0.032,1.387-0.047,2.079-0.028c1.177,0.032,2.332,0.127,3.464,0.278c-0.975,0.706-1.95,1.412-2.915,2.131   C51.021,29.935,50.14,29.147,49.258,28.358z M45.669,52.77c2.001-1.692,4.02-3.363,6.056-5.014c2.126,2.403,4.251,4.807,6.377,7.21   c-2.115,1.652-4.218,3.32-6.304,5.009C49.77,57.561,47.724,55.161,45.669,52.77z M50.351,61.14c-2,1.632-3.984,3.283-5.956,4.949   c-1.931-2.383-3.859-4.768-5.787-7.154c1.858-1.679,3.739-3.333,5.642-4.962C46.296,56.351,48.332,58.739,50.351,61.14z    M50.493,46.363c-2.03,1.646-4.044,3.31-6.039,4.997c-2.075-2.407-4.155-4.807-6.233-7.207c1.943-1.693,3.912-3.356,5.906-4.988   C46.249,41.564,48.371,43.964,50.493,46.363z M43.035,52.562c-1.889,1.615-3.756,3.255-5.602,4.92   c-1.964-2.43-3.933-4.856-5.899-7.284c1.741-1.631,3.5-3.24,5.285-4.819C38.891,47.771,40.966,50.163,43.035,52.562z    M42.983,67.297c-2.407,2.049-4.794,4.124-7.159,6.223c-1.761-2.317-3.489-4.66-5.191-7.023c2.157-2.151,4.358-4.253,6.599-6.309   C39.148,62.558,41.064,64.928,42.983,67.297z M44.154,68.746c1.93,2.38,3.871,4.752,5.808,7.125   c-2.465,2.076-4.903,4.185-7.324,6.313c-1.925-2.368-3.815-4.764-5.675-7.183C39.339,72.89,41.736,70.806,44.154,68.746z    M45.567,67.537c1.98-1.673,3.971-3.332,5.979-4.972c1.982,2.372,3.942,4.761,5.873,7.171c-2.023,1.632-4.033,3.28-6.028,4.946   C49.448,72.302,47.502,69.924,45.567,67.537z M58.577,71.189c1.855,2.339,3.683,4.698,5.47,7.087   c-1.857,1.672-3.714,3.344-5.571,5.017c-1.974-2.386-3.948-4.771-5.909-7.169C54.556,74.461,56.56,72.817,58.577,71.189z    M52.992,61.401c2.099-1.699,4.214-3.378,6.343-5.04c2.06,2.329,4.119,4.658,6.179,6.987c-2.233,1.721-4.451,3.461-6.651,5.222   C56.932,66.161,54.972,63.773,52.992,61.401z M53.178,46.584c2.213-1.78,4.441-3.543,6.68-5.292   c2.248,2.385,4.436,4.827,6.561,7.325c-2.298,1.713-4.577,3.449-6.841,5.203C57.444,51.408,55.311,48.996,53.178,46.584z    M66.572,33.746c-2.179,1.678-4.357,3.359-6.527,5.048c-2.206-2.304-4.469-4.555-6.789-6.752c1.162-0.863,2.328-1.721,3.506-2.564   c0.181-0.129,0.295-0.291,0.356-0.464C60.673,29.799,63.9,31.303,66.572,33.746z M34.34,15.716c2.164,0.926,4.249,1.99,6.289,3.234   c0.744,0.454,1.979-0.118,1.874-1.076c-0.345-3.141-1.096-6.199-1.916-9.242c2.981,2.168,4.975,6.804,8.062,8.43   c0.363,0.192,0.901,0.267,1.257,0c2.329-1.748,4.166-4.675,5.895-7.379c0.254,2.053,0.508,4.106,0.762,6.158   c0.111,0.899,0.982,1.601,1.874,1.076c3.366-1.983,6.769-3.876,10.292-5.54c-3.337,5.066-6.457,10.26-9.356,15.595   c-2.594-0.72-5.319-1.06-8.036-1.133c-2.846-0.082-5.913,0.272-8.867,1.076C39.483,23.363,36.788,19.633,34.34,15.716z    M46.745,28.584c0.03,0.035,0.059,0.07,0.096,0.104c1.193,1.052,2.372,2.118,3.537,3.197c-2.036,1.541-4.05,3.107-6.037,4.708   c-1.701-1.924-3.402-3.847-5.104-5.771C41.578,29.691,44.129,28.947,46.745,28.584z M37.545,31.723   c1.783,2.016,3.566,4.033,5.35,6.049c-1.99,1.628-3.955,3.284-5.894,4.972c-1.72-1.988-3.436-3.977-5.142-5.971   C33.415,34.707,35.356,33.024,37.545,31.723z M30.055,39.683c0.224-0.452,0.468-0.885,0.723-1.31   c1.601,1.869,3.21,3.734,4.822,5.597c-1.771,1.565-3.516,3.159-5.244,4.774c-0.806-0.994-1.61-1.99-2.417-2.983   C28.424,43.655,29.099,41.611,30.055,39.683z M27.471,48.134c0.508,0.626,1.015,1.254,1.523,1.88   c-0.662,0.628-1.313,1.267-1.968,1.903C27.128,50.647,27.269,49.383,27.471,48.134z M26.861,54.68   c1.095-1.08,2.197-2.152,3.311-3.211c1.961,2.421,3.925,4.841,5.884,7.265c-2.216,2.03-4.393,4.103-6.527,6.225   c-0.846-1.189-1.688-2.38-2.519-3.581c-0.062-0.089-0.133-0.157-0.207-0.216C26.78,59.035,26.776,56.86,26.861,54.68z    M26.851,64.39c0.446,0.635,0.889,1.273,1.34,1.904c-0.396,0.402-0.787,0.81-1.18,1.216C26.931,66.471,26.88,65.43,26.851,64.39z    M28.105,74.382c0.181,0.472,0.639,0.844,1.161,0.821c0.675-0.03,1.246-0.547,1.246-1.246c0-0.029,0-0.057,0-0.085   c0-0.652-0.573-1.276-1.246-1.246c-0.675,0.03-1.246,0.547-1.246,1.246c0,0.029,0,0.057,0,0.085c0,0.044,0.009,0.086,0.014,0.129   c-0.339-1.359-0.59-2.746-0.771-4.15c0.674-0.708,1.353-1.411,2.037-2.107c1.681,2.329,3.385,4.641,5.124,6.926   c-1.566,1.401-3.119,2.817-4.666,4.24C29.062,77.514,28.517,75.971,28.105,74.382z M33.407,84.459   c-1.087-1.173-1.992-2.432-2.756-3.752c1.629-1.502,3.266-2.995,4.916-4.472c1.86,2.417,3.748,4.811,5.671,7.177   c-1.505,1.334-3.001,2.678-4.489,4.032C35.546,86.551,34.422,85.555,33.407,84.459z M48.526,92.252   c-3.599-0.493-7.107-1.781-10.191-3.725c1.356-1.232,2.718-2.459,4.089-3.674c2.029,2.468,4.092,4.908,6.191,7.32   C48.585,92.199,48.555,92.225,48.526,92.252z M50,90.925c-2.094-2.405-4.152-4.839-6.176-7.3c2.419-2.127,4.853-4.235,7.315-6.311   c1.976,2.416,3.964,4.82,5.953,7.225C54.728,86.667,52.364,88.796,50,90.925z M51.355,92.474c-0.042-0.048-0.084-0.097-0.127-0.145   c2.352-2.118,4.704-4.236,7.056-6.354c1.149,1.385,2.292,2.776,3.447,4.156C58.578,91.767,54.945,92.536,51.355,92.474z    M63.351,89.171c-1.235-1.474-2.455-2.961-3.684-4.442c1.831-1.649,3.662-3.298,5.494-4.947c1.055,1.429,2.1,2.865,3.124,4.316   c0.016,0.023,0.035,0.039,0.052,0.06C67.03,86.218,65.317,87.884,63.351,89.171z M71.25,77.293   c-0.164-0.087-0.357-0.142-0.586-0.142c-1.549,0-1.599,2.321-0.151,2.476c-0.339,0.946-0.727,1.865-1.172,2.753   c-0.919-1.291-1.851-2.572-2.793-3.846c1.835-1.652,3.669-3.304,5.504-4.956C71.838,74.834,71.579,76.079,71.25,77.293z    M65.435,77.026c-1.77-2.36-3.58-4.691-5.415-7.004c2.225-1.782,4.469-3.54,6.728-5.28c1.822,2.06,3.644,4.12,5.466,6.18   C69.954,72.957,67.694,74.991,65.435,77.026z M73.211,61.145c-0.038,0.597-0.075,1.206-0.112,1.818   c-0.467-0.231-1.056-0.17-1.438,0.212c-0.477,0.477-0.477,1.284,0,1.762c0.028,0.029,0.057,0.057,0.085,0.085   c0.32,0.32,0.786,0.405,1.205,0.296c-0.073,1.099-0.158,2.212-0.262,3.329c-1.486-1.68-2.972-3.36-4.457-5.04   c1.679-1.282,3.367-2.553,5.065-3.812C73.269,60.244,73.24,60.695,73.211,61.145z M73.439,57.373   c-2.162,1.594-4.307,3.209-6.44,4.839c-2.063-2.333-4.126-4.665-6.189-6.998c2.253-1.745,4.52-3.472,6.807-5.175   c1.858,2.227,3.674,4.492,5.433,6.807c0.114,0.15,0.253,0.249,0.4,0.312C73.447,57.23,73.443,57.301,73.439,57.373z M73.555,54.48   c-1.453-1.877-2.934-3.729-4.45-5.549c1.304-0.963,2.618-1.914,3.933-2.864c0.128,0.709,0.223,1.424,0.301,2.143   c-0.172-0.101-0.377-0.166-0.626-0.166c-1.603,0-1.606,2.491,0,2.491c0.336,0,0.598-0.114,0.793-0.287   C73.582,51.647,73.589,53.059,73.555,54.48z"></path><path d="M59.673,34.464c1.603,0,1.606-2.491,0-2.491C58.07,31.972,58.068,34.464,59.673,34.464z"></path><path d="M67.506,42.597c0.029,0,0.057,0,0.085,0c0.652,0,1.276-0.573,1.246-1.246c-0.03-0.675-0.547-1.246-1.246-1.246   c-0.029,0-0.057,0-0.085,0c-0.652,0-1.276,0.573-1.246,1.246C66.291,42.026,66.808,42.597,67.506,42.597z"></path><path d="M59.568,46.422c-1.603,0-1.606,2.491,0,2.491C61.171,48.913,61.174,46.422,59.568,46.422z"></path><path d="M51.63,40.377c1.603,0,1.606-2.491,0-2.491C50.027,37.886,50.024,40.377,51.63,40.377z"></path><path d="M44.63,30.716c-1.603,0-1.606,2.491,0,2.491C46.233,33.207,46.236,30.716,44.63,30.716z"></path><path d="M36.521,36.179c-1.603,0-1.606,2.491,0,2.491C38.124,38.67,38.127,36.179,36.521,36.179z"></path><path d="M30.376,42.666c-1.603,0-1.606,2.491,0,2.491C31.979,45.157,31.981,42.666,30.376,42.666z"></path><path d="M44.033,46.608c1.603,0,1.606-2.491,0-2.491C42.43,44.117,42.427,46.608,44.033,46.608z"></path><path d="M36.692,52.839c1.603,0,1.606-2.491,0-2.491C35.089,50.348,35.087,52.839,36.692,52.839z"></path><path d="M30.318,59.474c0.029-0.029,0.057-0.057,0.085-0.085c0.476-0.476,0.476-1.286,0-1.762c-0.477-0.477-1.284-0.477-1.762,0   c-0.028,0.029-0.057,0.057-0.085,0.085c-0.476,0.476-0.476,1.286,0,1.762C29.033,59.951,29.84,59.951,30.318,59.474z"></path><path d="M36.607,67.948c1.603,0,1.606-2.491,0-2.491C35.004,65.456,35.001,67.948,36.607,67.948z"></path><path d="M35.156,81.589c-1.603,0-1.606,2.491,0,2.491C36.759,84.08,36.761,81.589,35.156,81.589z"></path><path d="M43.009,77.337c0.652,0,1.276-0.573,1.246-1.246c-0.03-0.675-0.547-1.246-1.246-1.246c-0.028,0-0.057,0-0.085,0   c-0.652,0-1.276,0.573-1.246,1.246c0.03,0.675,0.547,1.246,1.246,1.246C42.952,77.337,42.98,77.337,43.009,77.337z"></path><path d="M44.033,60.863c1.603,0,1.606-2.491,0-2.491C42.43,58.372,42.427,60.863,44.033,60.863z"></path><path d="M51.8,51.885c-1.603,0-1.606,2.491,0,2.491C53.403,54.376,53.406,51.885,51.8,51.885z"></path><path d="M51.032,67.59c-1.603,0-1.606,2.491,0,2.491C52.635,70.082,52.638,67.59,51.032,67.59z"></path><path d="M50.349,83.04c-1.603,0-1.606,2.491,0,2.491C51.952,85.531,51.955,83.04,50.349,83.04z"></path><path d="M42.155,90.226c1.603,0,1.606-2.491,0-2.491C40.552,87.735,40.549,90.226,42.155,90.226z"></path><path d="M57.093,88.844c-1.603,0-1.606,2.491,0,2.491C58.696,91.336,58.698,88.844,57.093,88.844z"></path><path d="M58.031,75.699c-1.603,0-1.606,2.491,0,2.491C59.634,78.191,59.637,75.699,58.031,75.699z"></path><path d="M58.458,60.847c-1.603,0-1.606,2.491,0,2.491C60.061,63.338,60.064,60.847,58.458,60.847z"></path><path d="M67.079,54.531c-0.028,0-0.057,0-0.085,0c-0.651,0-1.276,0.573-1.246,1.246c0.03,0.675,0.547,1.246,1.246,1.246   c0.029,0,0.057,0,0.085,0c0.652,0,1.276-0.573,1.246-1.246C68.295,55.101,67.778,54.531,67.079,54.531z"></path><path d="M66.055,71.96c1.603,0,1.606-2.491,0-2.491C64.452,69.468,64.449,71.96,66.055,71.96z"></path><path d="M63.58,84.15c-1.603,0-1.606,2.491,0,2.491C65.183,86.641,65.185,84.15,63.58,84.15z"></path></g></svg>