<svg fill="#E5E4E2" xmlns="http://www.w3.org/2000/svg" xmlns:xlink="http://www.w3.org/1999/xlink" version="1.1" x="0px" y="0px" viewBox="0 0 100 100" enable-background="new 0 0 100 100" xml:space="preserve"><g><path d="M78,84.2c-1.8,3.9-4.3,5.8-4.5,5.9l-0.2,0.2l-0.3,0c-21.3-3.5-30.9-8.9-35.1-12.7c-0.7,0.8-1.3,1.5-1.8,2.3   c-0.6,0.8-0.4,1.9,0.3,2.6c3.2,2.7,13.2,9.4,37.9,12.5c0.7,0.1,1.4-0.2,1.8-0.8c1.2-1.7,3.3-5.6,2.3-9.3   C78.3,84.7,78.2,84.4,78,84.2z M42.5,84.5c-0.4,0-0.7-0.3-0.7-0.7c0-0.4,0.3-0.7,0.7-0.7c0.4,0,0.7,0.3,0.7,0.7   C43.1,84.2,42.8,84.5,42.5,84.5z M57.2,90.3c-0.4,0-0.7-0.3-0.7-0.7c0-0.4,0.3-0.7,0.7-0.7s0.7,0.3,0.7,0.7   C57.8,90,57.5,90.3,57.2,90.3z M74.2,93.4c-0.4,0-0.7-0.3-0.7-0.7s0.3-0.7,0.7-0.7c0.4,0,0.7,0.3,0.7,0.7S74.6,93.4,74.2,93.4z"></path><path d="M42.7,72.1c4.3,2.9,13.6,8,27.4,9.6c0.2,0,0.4,0,0.6,0c1.9,0,3.6-1,4.2-2.6c0.5-1.4,1-2.8,1.5-4.3   c-22.7-3.4-32.2-13.3-36.8-18.1c-1-1-1.8-1.8-2.3-2.1c-2-1.2-3.1-4.2-2.5-6.9c0.5-2.2,2-3.7,4.1-3.9c0.6-0.1,1.2,0,1.8,0.1   c1-1.7,7.5-11.7,23.2-16.6c0.3-0.5,1-1.5,1.8-2.5c-1.2-0.3-1.9-0.4-1.9-0.4c-1.7-0.2-3.3-0.3-4.8-0.3c-12,0-18.4,6-21.8,11   c-1.6,2.4-2.7,5.2-3.1,8.2c-0.9,6.6,0.6,14.5,4.3,22.8C39.3,68.4,40.6,70.7,42.7,72.1z M63.2,75.7c0.6,0,1.2,0.5,1.2,1.2   c0,0.6-0.5,1.2-1.2,1.2S62,77.5,62,76.8C62,76.2,62.5,75.7,63.2,75.7z M49.7,71.6c0.6,0,1.2,0.5,1.2,1.2c0,0.6-0.5,1.2-1.2,1.2   s-1.2-0.5-1.2-1.2C48.5,72.1,49,71.6,49.7,71.6z"></path><path d="M58.1,15.7c-7.6,0-16.6,2.2-21.7,17.7c3.7-5.1,10.5-10.8,22.4-10.8c1.6,0,3.3,0.1,5,0.3c0,0,1.1,0.1,2.8,0.7   c1.2-1.3,2.5-2.6,3.7-2.9c-1.8-2.5-6.7-5-11.8-5L58.1,15.7z"></path><path d="M65.5,27.5c2,0.8,6.9,3.1,10.9,8.6c0.2,0.3,0.2,0.8-0.2,1c-0.1,0.1-0.3,0.1-0.4,0.1c-0.2,0-0.4-0.1-0.6-0.3   c-4.3-5.9-9.8-7.9-10.9-8.3C49.8,33.3,43.4,42.3,42,44.4c0.9,0.4,1.8,1.1,2.7,1.8c2.5,1.8,5.5,4,11.3,4.5   c8.3,0.6,21.4-1.7,26.3-2.7c-0.1-1.3-0.3-2.5-0.6-3.7c-0.5,0-1.1,0-1.4-0.2c-0.8-0.4-0.5-1,0-1.7c0.2-0.2,0.5-0.3,0.9-0.4   c-0.5-1.9-1.1-3.5-1.9-5c-2.4-5.6-6.3-12.9-8-14.8c-0.2-0.1-0.5-0.1-0.7-0.1C69.5,22.2,67.1,25.1,65.5,27.5z M74.7,44.4   c-2.9-0.1-9.9,0.6-13.7,1c-0.5,0-0.6-0.6-0.2-0.8c6.5-2.7,11.9-2.5,14-2.3c0.5,0.1,1,0.5,1,1.1C75.8,44,75.3,44.4,74.7,44.4z"></path><path d="M87.4,49.1c0,0-0.1-0.1-0.1-0.1l-2.6,0c-1.4,0.3-18.3,3.9-28.7,3.1c-6.3-0.5-9.6-2.9-12.1-4.7c-1.8-1.3-3.1-2.3-4.9-2.1   c-2,0.2-2.6,1.8-2.8,2.7c-0.4,2.1,0.4,4.5,1.8,5.4c0.7,0.4,1.5,1.2,2.6,2.4c4.5,4.7,13.9,14.3,36.2,17.7c0.1-0.3,0.2-0.6,0.3-0.9   c2.2-6.6,4.6-14.1,10.2-23.2C87.4,49.2,87.4,49.1,87.4,49.1z M39.4,51.1c-0.9,0-1.7-0.8-1.7-1.7c0-0.9,0.8-1.7,1.7-1.7   c0.9,0,1.7,0.8,1.7,1.7C41.1,50.3,40.4,51.1,39.4,51.1z M58.2,58.1l-1,3.2c-0.2,0.6-0.8,1-1.5,0.8c-0.6-0.2-1-0.8-0.8-1.5l0.9-3.2   c0.2-0.6,0.8-1,1.4-0.8l0.1,0C58,56.8,58.4,57.5,58.2,58.1z M64.8,57.9l-1.9,6.5c-0.2,0.6-0.8,1-1.5,0.8c-0.6-0.2-1-0.8-0.8-1.5   l1.8-6.5c0.2-0.6,0.8-1,1.4-0.8l0.1,0C64.6,56.5,65,57.2,64.8,57.9z M71.5,57.9l-2.7,8.9c-0.2,0.6-0.8,1-1.5,0.8   c-0.6-0.2-1-0.8-0.8-1.5l2.6-8.9c0.2-0.6,0.8-1,1.4-0.8l0.1,0C71.3,56.5,71.7,57.2,71.5,57.9z M77.5,58.8l-3,9.8   c-0.2,0.6-0.8,1-1.5,0.8h0c-0.6-0.2-1-0.8-0.8-1.5l2.9-9.8c0.2-0.6,0.8-1,1.4-0.8l0.1,0C77.3,57.5,77.7,58.2,77.5,58.8z"></path><path d="M58.1,14.3l0.4,0c1,0,2.1,0.1,3.1,0.3c-0.8-1.7-2.6-4-6.2-6.4c-8.8-5.9-17.7-2.7-21.4,2.4c0,0-11.2,3.7-11.1,16.2   S21.9,40,17.7,40c-2.9,0-2.7-3.5-2.7-3.5s-6.9,7,2.4,11.7c4.9,2.5,10.6-0.6,15.1-5.7l0.6-2.7C38,16.9,49.7,14.3,58.1,14.3z"></path><path d="M70.6,83.2C70.6,83.2,70.6,83.2,70.6,83.2c-0.2,0-0.5,0-0.7,0c-14.1-1.5-23.6-6.8-28-9.8c-0.7,0.7-1.8,1.8-3,3.1   c3.9,3.6,13.1,8.9,34,12.4c0.7-0.6,2.7-2.5,4.1-5.8l-1.7-1.8C74.2,82.4,72.5,83.2,70.6,83.2z M46,79.2c-0.4,0-0.7-0.3-0.7-0.7   c0-0.4,0.3-0.7,0.7-0.7c0.4,0,0.7,0.3,0.7,0.7C46.6,78.9,46.3,79.2,46,79.2z"></path></g></svg>
