<svg xmlns="http://www.w3.org/2000/svg" xmlns:xlink="http://www.w3.org/1999/xlink" version="1.1" x="0px" y="0px" viewBox="0 0 100 100" style="enable-background:new 0 0 100 100;" xml:space="preserve"><g><path style="" d="M90.2,60.3H59.8v30c0,2.7-2.2,4.9-4.9,4.9H44.7c-2.7,0-4.9-2.2-4.9-4.9v-30   h-30c-2.7,0-4.9-2.2-4.9-4.9V45.1c0-2.7,2.2-4.9,4.9-4.9h30V9.8c0-2.7,2.2-4.9,4.9-4.9h10.3c2.7,0,4.9,2.2,4.9,4.9v30.4h30.4   c2.7,0,4.9,2.2,4.9,4.9v10.3C95.1,58.1,92.9,60.3,90.2,60.3z" fill-rule="evenodd" clip-rule="evenodd"></path></g></svg>