<svg fill="#DDC0CA" stroke="#D11C4F" stroke-width="0.5" stroke-linecap="butt" xmlns="http://www.w3.org/2000/svg" viewBox="4 4 92 92" x="0px" y="0px"><path d="M58.04,57.93h0s0,.03,0,.04c0,0,0-.02,0-.04Z"/><path d="M65.87,61.03c-.13,.66-.31,1.31-.55,1.94-.11,.28-.22,.57-.38,.83-.16,.25-.35,.35-.64,.39-.19,.03-.38,.08-.54,.15-.74-.82-1.57-1.56-2.35-2.34-.84-.84-1.53-1.81-2.42-2.6-.22-.19-.44-.37-.68-.54-.06-.17-.12-.35-.17-.52-.03-.08-.05-.17-.07-.25,0-.04-.02-.07-.02-.11h0s0-.02,0-.04h0s0-.01,0-.02h0c0-.06,0-.13,0-.2,0-.04,0-.08,0-.11v-.06h0c.04-.23,.09-.45,.15-.66,0,0,0-.02,0-.02h0s.02-.07,.01-.1c-.05-.56,.18-1.07,.6-1.45,.44-.39,.95-.49,1.51-.39,.83,.14,.86-.66,.91-1.26,.06-.66,.12-1.33,.18-1.99,.4,.06,.8,.1,1.21,.12,.42,.02,.91,.06,1.3-.14,.42-.22,.56-.64,.68-1.07v-.04c.7,2.05,1.26,4.15,1.44,6.31,.11,1.39,.08,2.8-.19,4.18Zm-14.63-5.1c-.32-.15-.61,.1-.56,.43,.28,1.74,.62,3.47,.93,5.21-1.52-1.66-3-3.36-4.44-5.1,.14-.17,.23-.39,.26-.62,.07-.54,.09-1.09,.11-1.63,.02-.57,.01-1.14-.01-1.71,0-.1-.11-.63-.02-.71,.02-.02,.15,0,.19,0,.32,.02,.62,.14,.94,.1,.42-.06,.67-.41,.62-.83-.06-.6-.28-1.23-.43-1.82l-.33-1.36c.72,.19,1.4,.55,2.15,.64,.01,0,.02,0,.04,0,.2,.09,.41,.16,.62,.22,0,.01,0,.03,.02,.04,.54,.77,1.1,1.56,1.39,2.46,.3,.92,.07,1.87,.3,2.79,.18,.73,.5,1.49,.95,2.1,.42,.56,.98,.84,1.65,1.02,.52,.14,1.13,.25,1.7,.16-.04,.21-.06,.41-.03,.62,.01,.13,.04,.26,.07,.39-.42-.18-.86-.31-1.33-.36-.59-.06-1.11,.13-1.68,.17-.41,.03-.75-.11-1.06-.37-.71-.59-1.19-1.43-2.04-1.85Zm-7.59-7.17c-.16,.36-.31,.73-.49,1.09-.03,.04-.05,.08-.07,.14-.2,.4-.42,.78-.7,1.11-.27,.32-.59,.61-.97,.79-.06,.03-.18,.1-.24,.08,.14,.04,.2-.21,.25-.3,.16-.29,.32-.59,.48-.88,.19-.34-.18-.7-.52-.52-.34,.18-.69,.32-1.06,.44l.15-.38c.1-.26-.21-.57-.47-.47-.67,.27-1.34,.55-2.01,.83-.19,.08-.55,.31-.68,.06-.13-.25,.09-.6,.2-.82,.14-.27-.1-.68-.43-.56-.53,.2-1.07,.39-1.6,.59l-.22-.99c.65-.26,1.25-.63,1.81-1.05,.44-.33,.85-.71,1.36-.93,.29-.13,.59-.18,.89-.28,.79-.27,.9-.99,.91-1.74,.09-.49,.18-.98,.27-1.46,.04-.22,.06-.45,.14-.67,.08-.23,.06-.22,.24-.11,.91,.55,1.78,1.17,2.66,1.75,.15,.1,.34,.05,.46-.06,.51-.43,.64-1.08,.85-1.67,.09-.26,.22-.48,.46-.63,.12-.08,.42-.24,.54-.07,.03,.04,.06,.07,.1,.09,.21,.64,.44,1.28,.73,1.9-1.44,1.29-2.31,2.97-3.07,4.72Zm-19.32-1.73c-.12-.19,.07-.46,.17-.63,.52-.85,1.37-1.42,2.33-1.63,.62-.14,1.26-.17,1.88-.26,.44-.07,.83-.22,1.22-.45,.49-.29,.98-.66,1.4-1.09,.05,.22,.15,.42,.3,.59,.39,.42,.91,.27,1.34,0,.13-.08,.36-.29,.52-.27,.14,.01,.18,.17,.22,.28,.15,.44,.2,.98,.64,1.25,.45,.27,.87,.07,1.2-.24,.28,.49,.57,.98,.85,1.47,.13,.23,.41,.23,.6,.08,.31-.26,.63-.53,.94-.79,.16-.13,.31-.26,.47-.39,.08-.07,.26-.29,.38-.28,.14,0,.31,.27,.4,.36,.1,.09,.2,.17,.31,.22,0,.22-.03,.45-.13,.61-.04,.06-.04,.06-.11,.1-.07,.04-.12,.05-.23,.08-.68,.2-1.26,.43-1.83,.88-.83,.65-1.72,1.28-2.75,1.56-.55,.15-1.1,.14-1.67,.19-.57,.05-1.08,.19-1.6,.43-.73,.35-1.65,1-2.49,.56-.41-.21-.37-.69-.66-1-.35-.37-.99-.5-1.45-.68-.57-.22-1.14-.44-1.71-.66-.16-.06-.45-.13-.55-.28Zm4.79-7.65c0-.07,.1-.25,.12-.3,.07-.15,.13-.3,.21-.44,.15-.31,.32-.61,.51-.9,.37-.59,.8-1.13,1.29-1.62,.18-.18,.13-.46-.08-.6-.82-.54-1.65-1.08-2.47-1.61,.2-.02,.47,.03,.59,.03,.37,.03,.79-.06,1.08-.31,.59-.51,.19-1.04-.31-1.47,.43-.07,.85-.2,1.26-.39,.25-.11,.21-.42,.08-.6-.16-.2-.33-.39-.52-.57,.26,0,.53,0,.79,.01,.25,0,.43-.25,.37-.48-.11-.41-.22-.81-.33-1.22,.44,.19,.88,.38,1.32,.57h0c-.03,1.37,.17,2.74,.61,4.04,.37,1.1,.9,2.19,1.72,3.03,.83,.85,1.96,1.34,3.07,1.74,2.32,.83,4.88,1.12,7.38,.87,.01,.69,.02,1.39,.03,2.08-.43-.05-.89,.16-1.22,.51-.51,.53-.49,1.36-.9,1.92l-1.44-.95c-.27-.18-.55-.36-.82-.54-.24-.15-.47-.31-.76-.29-.48,.04-.71,.53-.8,.95-.11,.51-.2,1.02-.29,1.53-.08-.09-.16-.19-.22-.24-.25-.21-.55-.29-.86-.19-.35,.12-.66,.46-.93,.69-.25,.21-.5,.42-.75,.64-.3-.51-.6-1.03-.9-1.54-.15-.26-.5-.23-.66,0-.09,.14-.28,.45-.47,.45-.14,0-.19-.17-.22-.27-.12-.35-.16-.72-.39-1.02-.27-.35-.7-.43-1.1-.27-.19,.07-.35,.18-.52,.29-.08,.05-.27,.21-.37,.16-.15-.06-.18-.46-.19-.59-.02-.27,0-.55,.01-.83,.02-.48,.02-.99-.21-1.42-.24-.44-.68-.72-1.17-.81-.25-.04-.5-.06-.75-.05-.2,0-.59,.11-.78,.02Zm-3.13-14.25c.41,0,.47-.5,.19-.71-.49-.37-.93-.8-1.33-1.27,.44,.18,.89,.36,1.33,.54,.34,.14,.55-.3,.43-.56-.28-.59-.62-1.14-1.02-1.66,.57,.11,1.13,.21,1.7,.32,.27,.05,.57-.17,.47-.47-.25-.74-.49-1.49-.74-2.23,.76,.29,1.53,.58,2.31,.84,.3,.1,.51-.2,.47-.47-.11-.66-.21-1.32-.32-1.98,.52,.18,1.03,.36,1.55,.54,.19,.07,.42-.08,.47-.27,.18-.77,.22-1.54,.15-2.32,.89,.27,1.71,.73,2.39,1.38,.12,.11,.26,.13,.38,.09,.19,0,.39-.12,.39-.37,0-.21-.01-.42-.03-.63l.11-.87,1.75,2.39c-1.34,2.73-1.59,5.97-.66,8.87l-.02,.05c-.19-.34-.45-.63-.82-.79-.5-.2-1.12-.11-1.46,.31-.02,.02-.04,.05-.06,.09-.02,.03-.04,.05-.06,.08-.04,.07-.04,.13-.04,.2-.24,.79-.39,1.6-.46,2.43-.52-.23-1.05-.45-1.57-.68-.06-.08-.15-.14-.29-.14-2.53,.03-5.42-.42-7.07-2.51,.61-.16,1.23-.24,1.87-.23Zm13.21-8.05c.16,.11,.44,.04,.52-.14,.1-.22,.19-.43,.29-.65,.03-.07,.08-.16,.11-.24,.09,.18,.25,.36,.34,.52,.13,.21,.26,.42,.39,.64,.52,.85,1.04,1.7,1.56,2.54,.14,.22,.53,.27,.66,0,.42-.9,.22-1.82,.27-2.76,.03,.02,.05,.05,.07,.07,.13,.14,.27,.27,.39,.41,.23,.26,.42,.54,.61,.84-.21,.32-.31,.7-.29,1.08,0,.16,.12,.43,.07,.58-.05,.15-.34,.2-.47,.3-.66,.48-.6,1.49-.03,2.01,.32,.29,.74,.44,1.17,.47,.34,.02,.8-.1,.75,.39-.04,.41-.39,.72-.58,1.06-.19,.34-.28,.71-.24,1.09,.08,.74,.53,1.35,.85,2,.22,.44,.33,.88,.2,1.29-.11-.2-.24-.38-.41-.55-.21-.2-.52-.43-.59-.72-.07-.3,.13-.62,.09-.93-.04-.33-.25-.56-.55-.67-.36-.13-.77-.18-1.14-.26-.35-.07-.69-.15-1.04-.22-.03-.51,.03-1,.2-1.49,.09-.26-.14-.46-.37-.48-.16-.02-.32,0-.47,.04-.04-.21-.13-.42-.24-.63-.14-.26-.31-.5-.45-.76-.16-.3-.23-.62-.34-.93-.18-.51-.56-1.05-1.16-1.06-.12,0-.24,.03-.35,.07-.3-1.13-.64-2.25-1.19-3.29,.05-.2,.12-.39,.22-.57,.35,.34,.73,.65,1.13,.93Zm2.24-8.53c.11,.5,.27,1,.48,1.47,.41,.92,1.01,1.7,1.68,2.44,.63,.7,1.32,1.42,1.51,2.38,.17,.87-.06,1.75-.36,2.59-.14-.19-.29-.38-.45-.56-.17-.18-.34-.35-.51-.52-.2-.2-.42-.43-.73-.37-.58,.11-.48,1.02-.47,1.44,0,.38,.04,.78,.02,1.17-.51-.84-1.03-1.68-1.54-2.51-.05-.08-.11-.19-.17-.29-.17-2.37-.01-4.75,.51-7.07,.01-.06,.03-.11,.04-.17Zm4.57,9.94c.25,.21,.64,.08,.65-.27,0-.32,0-.73,.2-1,.13-.17,.39-.28,.55-.09,.27,.31,.7-.03,.64-.37-.04-.22,0-.44,.11-.63,.11,.24,.22,.48,.32,.72,.13,.29,.64,.22,.7-.09,.01-.07-.01-.06,.09-.06,.09,0,.16,.02,.23,.09,.21,.19,.23,.61,.3,.87,.18,.67,.59,1.24,.89,1.85,.57,1.16,.79,2.47,.73,3.75-.06,1.28-.41,2.56-1,3.7-.64,1.23-1.65,2.19-2.34,3.38-.65,1.12-.83,2.4-.53,3.62-.06-.07-.11-.14-.16-.2-.43-.53-.97-1.04-1.71-.85-.46,.12-.79,.46-1.04,.86-.38-.32-.62-.78-.67-1.29-.06-.65,.2-1.18,.67-1.61,.29-.27,.62-.51,.93-.77,0,0,.01,0,.02,0,.13-.07,.23-.17,.3-.27,.53-.5,.92-1.07,.78-1.92-.11-.67-.51-1.25-.82-1.85-.13-.24-.25-.5-.28-.78-.05-.37,.12-.67,.32-.97,.38-.56,.78-1.33,.27-1.94-.53-.64-1.5-.06-2.01-.71-.22-.27-.17-.67,.15-.82,.4-.19,.68-.41,.67-.88,0-.43-.17-.82,.1-1.22,.2-.3,.66-.47,.96-.22Zm4.05,15.2c.17,.26,.39,.49,.67,.65,.47,.26,.9,.24,1.42,.19,.43-.05,.69,.2,.71,.64,.02,.47-.35,.84-.7,1.09-.87,.61-1.92,1.03-2.92,1.37-1.04,.35-2.11,.6-3.2,.74-2.18,.27-4.4,.1-6.51-.51-1.05-.31-2.14-.69-3.04-1.32-.88-.62-1.47-1.56-1.87-2.54-1-2.41-1.09-5.13-.34-7.61,.17-.2,.48-.18,.69-.04,.35,.23,.49,.69,.61,1.07,.09,.28,.53,.4,.69,.11,.07,.41,.14,.82,.18,1.23,.06,.48,.81,.49,.76,0,0-.02,0-.03,0-.05,0,0,.01,0,.02,0,.04-.02,.09-.03,.13-.01,.16,.04,.23,.33,.27,.46,.14,.5,.23,1.03,.34,1.54,.06,.27,.37,.33,.57,.21,.02,.12,.03,.24,.05,.36,.06,.36,.21,.73,.52,.95,.26,.18,.63,.17,.91,.03,.25,.5,.52,.99,.81,1.46,.14,.23,.4,.23,.6,.08,.42-.33,.72-.77,.89-1.26,.67,.82,1.33,1.63,2,2.45,.2,.25,.54,.07,.64-.17,.18-.45,.64-1.41,1.27-1.12,.52,.24,.77,.9,1.24,1.23,.54,.38,1.17,.27,1.65-.15,.34-.3,.6-.78,.97-1.05Zm3.18-4.56c0-.34-.13-1.1,.38-1.1,.43,0,.83,.27,1.27,.29,.41,.02,.83-.13,1.03-.51,.26-.5-.06-1.09-.14-1.59-.06-.37-.07-.75-.05-1.13,.52,.44,1.03,.89,1.55,1.33,.23,.19,.68,.09,.65-.27-.05-.62,0-1.22,.13-1.81,.17,.17,.35,.35,.52,.52,.19,.19,.58,.12,.64-.17,.14-.73,.46-1.38,.94-1.94,1.32,1.53,1.35,3.74,.87,5.63-.22,.87-.51,1.78-.89,2.62-.13,.08-.2,.24-.19,.38-.05,.09-.08,.18-.13,.27-.26,.47-.59,.84-1.06,1.1-.51,.29-1.08,.48-1.63,.69-1.18,.44-2.38,.83-3.57,1.23-.04-.11-.09-.23-.16-.34-.2-.33-.49-.5-.82-.56-.29-.38-.63-.71-.96-1.06-.23-.25-.45-.51-.53-.82,.46,.01,.92,.03,1.37,0,.58-.04,.8-.43,.82-.96,.01-.6,0-1.21-.01-1.81Zm-14.73-8.13c.13,.47,.85,.27,.73-.2-.03-.11,.14-.11,.2-.09,.14,.04,.24,.21,.31,.34,.16,.33,.21,.71,.37,1.05,.14,.31,.34,.59,.51,.89,.14,.26,.31,.55,.15,.83-.21,.37,.3,.79,.6,.46,.05-.05,.09-.09,.14-.13-.09,.46-.11,.94-.05,1.41,.02,.16,.1,.33,.28,.37,.66,.14,1.32,.28,1.98,.42,.1,.02,.35,.03,.42,.1,.08,.07,.03,.17,.01,.28-.05,.24-.1,.47-.06,.72,.09,.48,.47,.81,.8,1.14,.15,.14,.6,.67,.28,.85-.06,.03-.1,.07-.13,.12-.38,.3-.78,.57-1.12,.92-.52,.53-.76,1.25-.74,1.95-.28-.35-.57-.7-.85-1.05-.22-.27-.64-.03-.65,.27,0,.48-.18,.9-.47,1.25-.31-.53-.6-1.06-.86-1.61-.18-.39-.83-.12-.7,.29h0s-.08,.04-.12,.03c-.14-.03-.2-.3-.22-.41-.1-.45-.12-.92-.16-1.38-.04-.34-.45-.52-.67-.23-.04-.17-.07-.33-.11-.49-.09-.37-.23-.75-.55-.98-.2-.15-.49-.19-.74-.13-.05-.36-.12-.72-.19-1.08,.03-.07,.04-.15,0-.25-1.11-2.94-.91-6.29,.53-9.07,.5,1.1,.8,2.27,1.09,3.44Zm8.08,20.55l-.04-2.48c2-.29,3.94-.93,5.66-1.95,.62-.37,1.23-.97,1.38-1.65,1.2-.41,2.42-.8,3.61-1.24,1.15-.43,2.36-.82,3.08-1.89,.12-.18,.22-.36,.31-.56,.86,.2,1.73,.34,2.61,.42,.5,.05,1.05,.1,1.58,.1,.14,.13,.31,.3,.44,.49,.06,.11,.11,.22,.18,.32,.08,.21,.07,.42-.11,.6-.21,.2-.55,.05-.77-.03-.33-.12-.66-.23-1.01-.23-.17,0-.32,.12-.37,.28-.08,.29-.16,.58-.24,.86-.54-.19-1.05-.44-1.53-.76-.22-.15-.61,.04-.57,.33,.16,1.33,.17,2.66,.06,3.99-1.53,.17-3.08,.18-4.61,.01-.22-.02-.37,.19-.38,.38-.04,.5-.08,1-.12,1.49-.03,.41,.01,.92-.15,1.31-.15,.37-.7,.2-1.01,.18-.51-.04-1.03-.08-1.54-.12-.24-.02-.44,.26-.37,.48,.19,.61,.46,1.34,.23,1.98-.08,.24-.24,.46-.45,.6-.25,.17-.45,.08-.72,.13-.69,.11-.52,1.07-.53,1.57-.01,.58-.02,1.17-.03,1.75-1.11-.41-2.02-1.24-2.67-2.22-.84-1.27-1.47-2.69-1.91-4.15Zm15.79,4.96c.17,.34,.39,.65,.63,.94,.27,.33,.63,.6,.86,.95,.06,.17,.12,.34,.18,.51,.04,.23,.03,.46,0,.69-.05,.38-.13,.85-.3,1.19-.18,.36-.72,.26-1.06,.25-.51-.02-1.01-.07-1.51-.16-.26-.04-.46,.1-.48,.37-.07,.79-.14,1.58-.21,2.36-.01,.14,.02,.43-.05,.55-.03,.06,.03,.05-.09,0-.05-.02-.13-.02-.19-.03-.29-.03-.58,0-.86,.08-.99,.29-1.78,1.21-1.84,2.24-.54,.03-1.07-.18-1.46-.55-.53-.5-.74-1.21-.7-1.93,.09-1.55,1.31-2.68,2.59-3.39,.31-.17,.2-.59-.09-.7-1.18-.44-1.76-1.73-2.43-2.7-.63-.92-1.43-1.66-2.42-2.11,.92-.66,.87-1.82,.61-2.84,.44,.04,.89,.07,1.33,.11,.5,.04,.99,.01,1.29-.44,.26-.4,.25-.93,.29-1.39l.07-.94c.76,.79,1.89,1.1,2.86,1.61,1.3,.69,2.26,1.91,2.65,3.33-.08,.7,0,1.38,.33,2.02Zm-10.41-.4c0-.19,0-.38,.01-.57v-.02c.66,.19,1.29,.5,1.81,.96,.49,.44,.86,.98,1.21,1.52,.55,.85,1.1,1.71,1.93,2.26-1.36,.91-2.46,2.29-2.4,4,.02,.74,.28,1.45,.78,2h-.01c-.75-.32-1.12-1.16-1.37-1.88-.16-.44-.25-.86-.25-1.33,0-.59,0-1.17-.14-1.75-.28-1.07-.92-2-1.54-2.89-.01-.02-.03-.03-.05-.05l.04-2.25Zm15.38-4.97c-.42,.41-.8,.9-.87,1.51-.07,.59,.19,1.07,.66,1.41,.18,.13,.44,.25,.57,.45,.16,.25,0,.56-.17,.77-.31,.41-.92,.8-.69,1.4,.1,.27,.34,.39,.59,.48,.32,.12,.64,.24,.95,.39,.28,.13,.6,.26,.85,.46,.25,.19-.05,.41-.25,.49-.65,.27-1.46,.03-2.13,0-.72-.03-1.43-.02-2.14-.07-.06-.18-.15-.36-.26-.52-.27-.37-.63-.67-.92-1.02-.51-.63-.81-1.38-.74-2.19,.73-.37,1.11-1.09,1.44-1.83,.19-.42,.37-.85,.65-1.22,.3-.4,.71-.71,1.16-.94,.95-.49,1.97-.6,3.01-.59-.61,.27-1.21,.56-1.7,1.03Zm2.06-4.78c1.91,.96,3.92,1.73,5.96,2.35-1.73,1.16-4.13,.7-6.1,.65-2.05-.05-4.32,.43-5.36,2.39-.35,.66-.6,1.67-1.25,2.13-.45-1.29-1.32-2.41-2.47-3.15-.97-.62-2.32-.87-3.12-1.73,1.38,.1,2.76,.06,4.13-.11,.22-.03,.36-.15,.38-.38,.13-1.21,.13-2.43,.03-3.64,.46,.24,.94,.44,1.44,.58,.2,.06,.41-.07,.47-.27,.09-.31,.17-.62,.26-.94,.36,.07,.71,.26,1.08,.31,.44,.05,.88-.11,1.12-.5,.02-.04,.04-.07,.06-.11,.92,1.03,2.14,1.79,3.36,2.4Zm-4.3-4.83c-.51,.02-1.03,0-1.54-.04-.9-.06-1.79-.2-2.67-.4,.03-.08,.07-.16,.1-.24,.24-.63,.47-1.26,.66-1.91,.12-.42,.21-.85,.28-1.28,1.72-.54,3.47-1.19,4.88-2.33,.02,0,.03,0,.05,0,1.82-.64,3.63-1.28,5.45-1.92-.08,.52-.54,.94-.98,1.21-.55,.33-1.27,.42-1.69,.94-.46,.56-.2,1.25,.36,1.62,.17,.11,1.65,.64,1.27,.98-.12,.11-.41,.07-.56,.06-.27,0-.55-.03-.82,.03-.24,.05-.46,.18-.6,.39-.24,.37-.12,.76,.01,1.14,.1,.28,.24,.7,.03,.97-.19,.24-.57,.17-.83,.14-.33-.05-.65-.12-.99-.12-.41,0-.75,.14-1.09,.35-.43,.27-.81,.4-1.33,.43Zm9.39-9.91c.32-.06,.7-.03,.97,.17,.29,.2,.38,.55,.49,.87,.25,.75,.61,1.34,1.48,1.38,.13,0,1.02-.03,.9,.24-.03,.06-.21,.15-.26,.2-.06,.06-.11,.14-.15,.22-.07,.16-.08,.34-.03,.5,.12,.37,.5,.64,.87,.72,.23,.05,.56-.02,.84-.02-.78,.76-1.43,1.65-1.89,2.64-.22,.48-.66,1.24-.2,1.71,.08,.08,.17,.13,.26,.17,.06,.03,.3,.07,.34,.13,.09,.14-.27,.39-.39,.48-2.01,1.49-4.72,2.54-7.25,1.98-1.07-.24-2-.78-2.8-1.5,.18,.01,.37,.05,.54,.07,.7,.11,1.52,.13,1.86-.63,.15-.32,.14-.69,.07-1.03-.04-.21-.37-.78-.16-.93,.17-.12,.54-.04,.73-.04,.29,0,.61,0,.88-.14,.66-.34,.59-1.15,.1-1.61-.27-.25-.59-.37-.93-.52-.21-.09-.7-.29-.58-.6,.1-.26,.54-.4,.77-.48,.42-.16,.8-.35,1.16-.63,.63-.5,1.07-1.22,.95-2.02,.39-.56,.68-1.22,1.43-1.35Zm-9.29-6.62c.36-.86,1.22-1.5,2.09-1.78,.88-.28,2.33-.52,2.87,.46,.5,.9-.71,1.53-1.26,2-.59,.52-1.11,1.51-.62,2.26,.59,.89,2.07,.58,2.91,.32,.15-.04,.29-.1,.43-.15,.03-.01,.17-.07,.22-.1,0,.01,0,.02,0,.04-.04,.1-.06,.18-.13,.27-.29,.37-.84,.59-1.22,.84-.84,.56-1.36,1.34-1.8,2.23-.43,.87-.82,1.76-1.47,2.49-1.35,1.53-3.29,2.32-5.19,2.93,.04-.54,.03-1.08-.04-1.62-.08-.56-.23-1.11-.46-1.63,1.57-1.2,2.53-2.93,3.02-4.83,.3-1.16,.32-2.36,.57-3.52,0-.04,.02-.08,.03-.12,.02-.03,.04-.07,.06-.1Zm-4.9,1.29c.2-.04,.32-.28,.27-.47-.15-.58-.19-1.17-.11-1.75,.19,.16,.56,.08,.6-.19,.15-.86,.29-1.71,.44-2.57,.38-.26,.71-.56,1.01-.9,.08,.52,.15,1.03,.23,1.55,.04,.3,.45,.34,.64,.17,.21-.19,.42-.37,.63-.56,.12-.11,.24-.21,.36-.32,.02-.02,.04-.03,.05-.05,0,.07,.01,.14,.01,.16,0,.12-.03,.23-.06,.35-.07,.25-.18,.47-.34,.68-.23,.32,.21,.7,.52,.52,.28-.16,.56-.3,.86-.4-.39,.62-.7,1.29-.91,2-.33,1.16-.33,2.39-.58,3.57-.4,1.86-1.23,3.64-2.75,4.83-.22-.35-.47-.68-.77-.97-.15-.15-.39-.14-.54,0-.56,.53-.98,1.2-1.23,1.92-.17-.17-.34-.35-.51-.52-.21-.21-.55-.1-.64,.17-.2,.59-.31,1.2-.34,1.82-.48-.41-.97-.83-1.45-1.24-.03-.02-.06-.04-.09-.06-.47-.7-.8-1.48-.96-2.31-.08-.4-.11-.8-.11-1.21,0-.21,.01-.42,.04-.63,0-.08,.02-.44,.11-.49,.07-.04,.3,.13,.36,.16,.16,.09,.32,.18,.49,.24,.35,.11,.73,.06,1.06-.11,.52-.26,.8-.75,.99-1.28l.48,.53c.23,.26,.48,.66,.84,.76,.69,.2,.99-.66,.9-1.19-.09-.5-.43-.9-.74-1.29-.2-.25-.43-.51-.55-.81,.6,.05,1.2,.02,1.8-.1Zm-6.92-7.93c.03-.08,.06-.15,.09-.23,.01-.01,.02-.02,.03-.03,.22,.24,.52,.56,.88,.37,.18-.09,.31-.3,.4-.48,.08-.15,.15-.45,.33-.52,0,.01,0,.02,.01,.04l.03,.11c.04,.14,.07,.29,.09,.44,.04,.3,.05,.6,.02,.9-.03,.37,.55,.53,.71,.19,.12-.25,.25-.5,.42-.72,.09-.11,.18-.22,.28-.32,.05-.05,.17-.13,.25-.21h0c.04,.15,.07,.31,.1,.46,.06,.33,.1,.67,.12,1.01,.01,.28,.31,.48,.57,.33,.49-.29,1-.54,1.54-.74-.24,2.35-.93,4.62-1.59,6.89,0,.03,0,.05,0,.07,0,.01,0,.02,0,.03,0,.01,0,.02,0,.04,0,.01,0,.02,0,.04,0,.85,.69,1.44,1.14,2.09,.09,.14,.19,.29,.23,.46,.02,.08,.03,.15,.02,.23,0,.01,0,.03-.01,.04-.08-.09-.2-.2-.23-.23l-.38-.42-.75-.84c-.19-.21-.57-.1-.64,.17-.14,.59-.5,1.88-1.37,1.49-.34-.15-.65-.42-1.04-.39-.41,.03-.65,.36-.73,.74-.36,1.73,.09,3.62,1.07,5.06,.02,.03,.04,.04,.06,.06-.07,.45-.1,.91-.07,1.37,.02,.27,.06,.53,.12,.79,.05,.21,.16,.44,.17,.65,.02,.43-.58,.23-.82,.14-.4-.13-.85-.26-1.26-.09-.91,.37-.68,1.67-.68,2.44v.78c0,.13,.04,.32,0,.45-.03,.12-.01,.1-.16,.11-.27,.03-.57,0-.84,0h-.84c-.22,0-.36,.17-.38,.38-.1,.99,.68,1.61,1.31,2.28-.43-.04-.82-.25-.99-.72-.07-.18-.26-.34-.47-.27-.67,.24-.99,.83-1.47,1.3-.07,.07-.14,.12-.22,.17-.27-.67-.37-1.42-.25-2.14,.13-.75,.48-1.41,.91-2.02,.44-.62,.95-1.19,1.38-1.82,.4-.59,.73-1.22,.99-1.88,.53-1.31,.78-2.75,.69-4.16-.04-.68-.16-1.36-.37-2.02-.22-.7-.56-1.33-.91-1.97-.21-.38-.33-.74-.43-1.16-.09-.35-.21-.72-.5-.96-.12-.1-.27-.16-.43-.2,.67-1.07,1.37-2.14,1.87-3.3,.36-.84,.57-1.7,.63-2.58,0-.02,.02-.03,.02-.05,.08-.25,.15-.51,.25-.77,.09,.09,.17,.18,.26,.27,.25,.26,.62,.04,.65-.27,.03-.31,.1-.61,.2-.91Zm-10.4-.77c.47-.12,.82-.51,1.05-.91,.15-.26,.27-.55,.47-.77,.26,.48,.46,.97,.62,1.5,.11,.39,.6,.33,.73,0l.04-.1c.09,.13,.18,.26,.27,.39,.19,.27,.58,.23,.7-.09,.12-.33,.23-.66,.35-1,.34,.33,.66,.67,.94,1.05,.15,.21,.52,.28,.66,0,.44-.92,.96-1.81,1.53-2.66,.08,.34,.12,.68,.1,1.04-.02,.31,.33,.44,.57,.33l.08-.04c0,.59-.13,1.16-.36,1.71-.13,.3,.22,.5,.46,.47,.2,1.4-.02,2.77-.61,4.06-.51,1.1-1.17,2.1-1.81,3.13-.07-.15-.13-.3-.2-.45-.08-.18-.37-.25-.52-.14-.41,.3-.67,.71-.75,1.17-.28-.02-.58,.07-.81,.24-.37,.28-.51,.7-.56,1.14-.15-.03-.31-.04-.47-.02,.3-.86,.53-1.76,.42-2.67-.12-.99-.66-1.79-1.29-2.53-.65-.75-1.33-1.44-1.79-2.33-.45-.86-.7-1.81-.76-2.78,.12,.08,.26,.18,.32,.2,.2,.08,.42,.1,.63,.05Zm-9.07,2.71c.06-.37,.16-.75,.31-1.1,.07-.17,.16-.34,.26-.5,.06-.1,.22-.41,.34-.44,.08-.02,.35,.11,.43,.14,.18,.06,.36,.14,.54,.22,.32,.15,.63,.34,.93,.54,.59,.41,1.1,.93,1.5,1.52,.2,.29,.57,.22,.7-.09,.15-.38,.32-.75,.49-1.12,.09-.18,.17-.36,.26-.54,.04-.08,.08-.16,.13-.25,.05,.07,.1,.15,.11,.16,.06,.11,.1,.23,.15,.35,.1,.27,.18,.55,.28,.82,0,.01,.01,.02,.02,.03-.27,1.67-.36,3.37-.28,5.06-.04,0-.09,0-.13,0-.29,.06-.4,.33-.5,.57-.07,.16-.14,.31-.21,.47-.34-.26-.66-.54-.96-.86-.13-.14-.41-.16-.54,0-.31,.37-.53,.78-.63,1.25-.03,.05-.05,.1-.08,.14-.69-.94-1.39-1.89-2.08-2.83-.2-.27-.53-.22-.66,.03-.12-.3-.25-.6-.41-.89,0,0,0-.02,0-.03-.05-.89-.12-1.8,.04-2.68Zm-11.25,6.15c.54,0,1.07,0,1.61,.01,.15,0,.34-.12,.37-.28l.27-1.78c.39,.14,.78,.28,1.18,.41,.44,.14,.92,.06,1.08-.43,.16-.49,.15-1.08,.2-1.59l.14-1.21c.63,.23,1.27,.4,1.94,.51,.28,.04,.55-.16,.47-.47-.12-.46-.09-.91,.07-1.34,2.17,.99,3.71,3.16,4,5.51-.79-.6-1.7-1.03-2.68-1.23-.3-.06-.52,.18-.47,.47,.12,.71,.11,1.42,0,2.13-.58-.2-1.15-.4-1.73-.6-.3-.11-.51,.21-.47,.47,.11,.66,.21,1.32,.32,1.97-.82-.29-1.64-.59-2.44-.91-.27-.11-.55,.21-.47,.47,.26,.79,.52,1.58,.79,2.38-.69-.13-1.38-.26-2.07-.39-1.51-.87-2.06-2.44-2.09-4.09Zm-4.26,8.67c.26-.21,.66-.22,.98-.23,.35-.01,.7-.03,1.05-.04,.85-.04,1.69-.07,2.54-.08,.15,0,.3,0,.46,0h-.03c-.22,.08-.37,.35-.23,.57,1.67,2.56,4.77,3.26,7.65,3.29,.11,.41,.22,.81,.33,1.22-.47,0-.94-.01-1.41-.02-.39,0-.5,.51-.19,.71,.34,.21,.64,.47,.92,.75-.47,.15-.95,.2-1.45,.18-.31-.02-.53,.44-.27,.65,.19,.16,.39,.31,.58,.47,.1,.08,.19,.16,.29,.23,.04,.03,.22,.15,.24,.2,.04,.12-.45,.17-.59,.16-.61-.04-1.37-.04-1.58,.67-.05,.17,.03,.34,.17,.43,.84,.55,1.68,1.09,2.52,1.64-.82,.92-1.5,1.97-1.96,3.11-.06,.15-.08,.28-.07,.4-.83,.46-1.77,.76-2.73,.8-.14,0-.4,.04-.46-.12-.01-.04-.01-.09-.01-.13,.02-.05,.02-.11,.02-.16,.03-.18,.1-.37,.12-.49l.34-1.69c.03-.16-.02-.34-.17-.43-.45-.25-.9-.51-1.35-.76,.13-.6,.15-1.22,.04-1.83-.04-.23-.37-.36-.56-.23-.46,.34-1.19,.28-1.51-.24-.29-.48-.04-1.22,.48-1.43,.31-.12,.41-.66,0-.73-.85-.16-1.68,.12-2.53,.03-.17-.02-.33-.06-.48-.14-.03-.02-.16-.14-.2-.13,.04-.07,.17-.18,.2-.21,.39-.44,.78-.87,1.17-1.31,.2-.23,.1-.53-.17-.64-.36-.15-.71-.32-1.04-.52,.18-.06,.36-.13,.53-.19,.42-.15,.32-.69-.1-.75-.72-.09-1.42-.34-2.04-.72,.26-.05,.52-.1,.78-.15,.17-.03,.27-.21,.28-.37,.02-.4-.19-.71-.42-1.02-.16-.22-.43-.53-.14-.76Zm-.48,13.25c.1-.26,.09-.58-.08-.81-.25-.35-.65-.3-1.02-.23l-.13,.02c.33-.23,.7-.42,1.09-.55,.24-.08,.41-.44,.17-.64-.45-.36-.94-.66-1.46-.89,.04,0,.08-.01,.12-.02,.41-.07,.94-.09,1.26-.39,.31-.28,.33-.71,.1-1.05-.16-.23-.39-.32-.62-.42,.26-.23,.48-.49,.66-.8,.09-.17,.05-.43-.14-.52-.26-.12-.52-.21-.79-.29,.14-.05,.29-.09,.36-.12,.29-.11,.58-.28,.73-.56,.15-.27,.13-.6-.04-.86-.03-.04-.07-.09-.11-.13,.55,0,1.09,.04,1.63,.12-.31,.34-.63,.68-.91,1.04-.4,.51,0,1.03,.49,1.28,.72,.36,1.5,.18,2.26,.12-.34,.52-.43,1.19-.12,1.78,.38,.73,1.31,1.04,2.08,.82,.02,.42-.04,.84-.15,1.26-.05,.16,.03,.35,.17,.43,.45,.26,.91,.51,1.36,.77-.12,.6-.25,1.2-.37,1.8l-1.99,.27c-.39,.05-.79,.13-1.18,.16-.01,0-.03,0-.04,0-.34,.01-.56-.14-.8-.37-.73-.66-1.6-1.1-2.55-1.24Zm.96,10.68c.28-.27,.57-.54,.85-.81,.22-.21,.07-.68-.27-.65l-1.22,.13c.14-.13,.3-.24,.46-.34,.39-.26,.81-.5,1.13-.84,.38-.41,.41-.95-.17-1.19-.29-.12-.63-.15-.94-.21l-.28-.06c.34-.22,.69-.4,1.07-.53,.24-.09,.34-.33,.23-.56-.25-.51-.82-.59-1.33-.67-.18-.03-.48-.05-.6-.2-.19-.24,.17-.6,.35-.73,.99-.75,2.4-.74,3.29-1.64,.38-.03,.77-.12,1.12-.16,.63-.09,1.25-.17,1.88-.26,.08,.34,.3,.6,.73,.68,.59,.11,1.29-.05,1.86-.2,.61-.16,1.2-.41,1.75-.72,.15,.06,.32,.1,.52,.09,.52-.01,1.23-.16,1.66,.22,.39,.35,.3,.97,.27,1.45-.43,.7-1.18,1.29-1.9,1.68-.44,.24-.9,.28-1.39,.34-.6,.07-1.22,.13-1.8,.32-.99,.33-1.84,1.01-2.37,1.9-.25,.43-.42,.96-.12,1.39-1.22,.41-2.39,.95-3.49,1.61h0c-.45,.06-.89,.1-1.31-.02Zm12.04,5.18c-.64,.71-1.29,1.41-1.95,2.1-.3,.31-.59,.63-.91,.91-.1,.09-.23,.23-.36,.13-.13-.1-.12-.34-.11-.48,.02-.27-.26-.41-.48-.37-.35,.07-.7,.13-1.06,.2,.06-.57,.27-1.1,.62-1.57,.2-.27-.13-.65-.43-.56-.41,.13-.83,.23-1.25,.27-.23,.02-.46,.04-.69,.03-.21-.01-.24-.09-.3-.29-.2-.74,.12-1.49,.55-2.08,.12-.17,.03-.42-.14-.52-.73-.43-1.54-.63-2.37-.6,.11-.63,.35-1.23,.7-1.77,.19-.29-.12-.63-.43-.56-.24,.05-.48,.08-.71,.09,.91-.47,1.86-.86,2.85-1.15,.24,.1,.49,.17,.71,.26,.61,.23,1.22,.47,1.83,.7,.27,.1,.47,.15,.58,.43,.09,.23,.18,.45,.35,.64,.66,.71,1.77,.6,2.57,.25,.53-.23,1.01-.56,1.57-.72,.62-.19,1.27-.13,1.9-.22,.2-.03,.39-.07,.59-.12,.07,.31,.14,.62,.21,.93-1.34,1.3-2.58,2.71-3.84,4.09Zm9.99,4.11c-.17-.06-.33-.16-.52-.2-.33-.07-.67-.02-.9,.23-.24,.26-.34,.68-.48,1-.14,.34-.29,.67-.43,1.01-.55-.15-1.08-.37-1.58-.67-.21-.13-.49,0-.56,.23l-.1,.36c-.06-.25-.11-.51-.13-.77-.02-.26-.23-.42-.48-.37-.2,.04-.39,.1-.58,.18-.12-.49-.11-.99,.05-1.49,.07-.23-.13-.49-.37-.48-.39,.02-.77,0-1.15-.07-.15-.03-.4-.04-.52-.13-.09-.06-.05,0-.06-.1,0-.06,.04-.15,.05-.21,.18-.72,.38-1.43,.61-2.13,.44-1.34,.98-2.65,1.61-3.91,.39-.15,.79-.29,1.18-.44-.02,.14-.03,.28,0,.43,.08,.38,.34,.71,.73,.79,.47,.1,.96-.2,1.38-.37,.26-.11,.52-.21,.78-.32-.04,.09-.07,.18-.11,.28-.11,.29,.21,.53,.47,.47,.31-.07,.61-.16,.91-.27-.09,.16-.17,.32-.21,.49-.1,.45,.21,.87,.68,.86,.66,0,1.29-.56,1.73-1.08-.17,1.53-.36,3.05-.48,4.59-.03,.35-.05,.7-.06,1.05-.04,.04-.08,.1-.09,.17-.07,.31-.06,.69-.11,1.03-.13-.14-.25-.29-.37-.45h0s-.03-.05-.05-.08c-.27-.31-.81,.08-.61,.43h0c-.05-.03-.14-.03-.2-.06Zm.28,.16h0Zm3.78-1.98c-.29,.32-.42,.74-.58,1.13-.19,.45-.4,.89-.62,1.32-.11,.21-.21,.42-.32,.62-.06,.1-.11,.2-.17,.31-.01,.02-.08,.14-.11,.21-.01-.02-.02-.04-.03-.07-.02-.07-.03-.14-.04-.21-.02-.22-.02-.45-.02-.68-.01-.92,.03-1.83,.1-2.74,.16-2.07,.45-4.13,.64-6.2,.16-.32,.3-.66,.45-.99,.36-.82,.73-1.65,1.18-2.43,.44-.77,.98-1.45,1.62-2.05,.27,.52,.56,1.02,.89,1.49,.24,.35,.52,.67,.82,.98-.26-.08-.52-.15-.79-.19-.26-.03-.42,.27-.37,.48,.25,1.03,.5,2.07,.76,3.1,.02,.09,.18,.48,.14,.55,.02-.03-.11-.01-.15-.02-.26-.02-.51-.11-.76-.11-.29,0-.58,.1-.74,.36-.22,.35-.11,.85-.09,1.24,.04,1.02,.05,2.08-.09,3.09-.02,.15-.04,.28-.19,.34-.16,.06-.35,.03-.52,.04-.38,.03-.73,.13-.99,.43Zm11.06,9.57c-1-.87-1.92-1.85-2.83-2.81-.22-.23-.44-.47-.67-.71h0c-.29-1.83-.66-3.64-.97-5.46,.36,.34,.66,.75,1.02,1.08,.29,.27,.62,.51,1,.63,.48,.16,.96,.07,1.45-.03,2.5-.5,4.02,1.85,5.5,3.41,.87,.91,1.82,1.73,2.66,2.67-.03,.07-.05,.14-.06,.23-.09,.53,.16,1.06-.28,1.48-.4,.39-.99,.55-1.5,.72-.67,.22-1.36,.42-2.07,.38-1.24-.06-2.35-.8-3.26-1.6Zm5.47,7.4c-.61-1.67-1.14-3.36-1.61-5.07,.93-.08,1.85-.38,2.68-.75,.52-.23,1.02-.59,1.24-1.13,.1-.25,.12-.51,.1-.78-.01-.23-.11-.6,.14-.73,.22-.11,.51-.08,.75-.16,.01,0,.03-.01,.04-.02-.24,1.12-.4,2.26-.44,3.4-.03,.89,.01,1.79,.2,2.67,.19,.89,.59,1.66,1.06,2.43,.53,.88,1.09,1.77,1.15,2.81-.71,0-1.42-.02-2.12,.13-.67,.14-1.25,.47-1.68,.93-.13-.42-.31-.83-.51-1.25-.38-.8-.68-1.65-.98-2.48Zm-5.51,6.32c-.59,.48-.89,1.26-1.15,1.96-.53,1.42-.74,2.96-.65,4.47,.08,1.26,.36,2.5,.85,3.66-1.92-1.49-3.1-3.9-2.96-6.35,.02-.34,.07-.67,.13-.99h0c.67-.46,1.31-.96,1.9-1.51,.57-.53,1.06-1.14,1.62-1.68,.53-.51,1.17-.76,1.8-.23,.06,.05,.12,.11,.18,.16-.61-.03-1.23,.12-1.72,.51Zm5.61,1.75c-.67-.57-1.31-1.19-2.03-1.64,0-.02,0-.03-.01-.05-.17-.32-.48-.52-.78-.71-.3-.19-.51-.41-.78-.63-.64-.53-1.48-.62-2.2-.18-.72,.44-1.22,1.19-1.82,1.77-.44,.44-.92,.84-1.42,1.22,.87-2.22,2.82-3.94,5.24-4.4,1.54-.29,3.55-.09,4.59,1.24-.08,.2-.14,.4-.17,.62-.24,1.54,.61,2.96,1.93,3.71,.13,.07,.26,.12,.39,.18-1,.23-2.24-.57-2.93-1.15Zm6.88,10.61c-.34,.77-.75,1.5-1.23,2.19-.26,.37-.49,.76-.99,.6-.49-.16-.97-.42-1.44-.63-.48-.22-.97-.43-1.45-.64-.08-.03-.25-.08-.31-.14h0c0-.06,.02-.12,.03-.16,.06-.23,.16-.45,.26-.66,.2-.42,.42-.84,.55-1.29,.13-.45,.19-.92,.21-1.39,.04-1.1-.13-2.19-.1-3.3,.03-1.1,.18-2.19,.38-3.27,.42-.03,.82-.17,1.17-.44,1.08,.2,2.22,.02,3.26-.38,1.22,3.04,.99,6.55-.34,9.52Zm9.08-25.47c-.79-.05-1.55,.36-2.09,.9-1.38,1.37-1.23,3.44-1.66,5.2-.44,1.8-1.36,3.42-2.69,4.7-.76,.73-1.59,1.4-2.18,2.28-.47,.69-.54,1.41-.36,2.17-1.26,.5-2.74,.63-3.96-.03-1.06-.57-1.82-1.65-1.66-2.89,.38-2.85,3.81-1.82,5.73-2.28,1.24-.3,2-1.24,2.23-2.47,.13-.68,.14-1.37,.2-2.05,.06-.76,.16-1.53,.34-2.27,.32-1.35,.9-2.63,1.95-3.57,1.01-.91,2.33-1.3,3.66-.95,1.57,.41,2.98,1.53,4.2,2.56,.8,.67,1.54,1.41,2.24,2.18-1.2-.67-2.39-1.37-3.5-2.17-.74-.53-1.46-1.24-2.42-1.29Z"/></svg>