<svg fill="#4A802C" xmlns="http://www.w3.org/2000/svg" xmlns:xlink="http://www.w3.org/1999/xlink" viewBox="0 0 60 60" version="1.1" x="0px" y="0px"><title>47 -Poisoned Dagger- (medieval, antique, old)</title><desc>Created with Sketch.</desc><g stroke="none" stroke-width="1" fill="none" fill-rule="evenodd"><g transform="translate(-840.000000, -831.000000)" stroke="#4A802C" stroke-width="2"><g transform="translate(841.000000, 832.000000)"><path d="M0,0.0005 C0,0.0005 9.769,21.0835 29.686,41.0005 L41,29.6865 C21.083,9.7695 0,0.0005 0,0.0005 L0,0.0005 Z" stroke-linejoin="round"></path><path d="M44.1005,44.101 C44.1235,44.078 44.0775,44.125 44.1005,44.101 C46.1865,41.987 47.5795,39.304 48.1205,36.451 C48.4265,34.839 47.2005,33.346 45.5605,33.399 L45.5605,33.399 C44.3855,33.437 43.3745,34.277 43.1705,35.435 C42.8335,37.34 41.9845,39.126 40.5645,40.565 C39.0535,42.044 37.1775,42.993 35.1965,43.354 C34.0395,43.566 33.2135,44.598 33.1905,45.774 L33.1905,45.781 C33.1615,47.348 34.5585,48.612 36.0995,48.329 C39.0775,47.783 41.9335,46.268 44.1005,44.101 L44.1005,44.101 Z" stroke-linecap="round" stroke-linejoin="round"></path><path d="M50.2426,56.2431 C51.8996,57.9001 54.5856,57.9001 56.2426,56.2431 C57.8996,54.5861 57.8996,51.9001 56.2426,50.2431 C54.5856,48.5861 51.8996,48.5861 50.2426,50.2431 C48.5856,51.9001 48.5856,54.5861 50.2426,56.2431 L50.2426,56.2431 Z" stroke-linecap="round" stroke-linejoin="round"></path><path d="M40.5649,40.5654 C41.0489,40.0744 41.4429,39.5314 41.7969,38.9694 L36.7569,33.9294 L33.9289,36.7574 L38.9819,41.8104 C39.5379,41.4454 40.0759,41.0434 40.5649,40.5654 L40.5649,40.5654 Z"></path><path d="M50.2426,50.2431 C50.7566,49.7291 51.3756,49.3931 52.0266,49.1981 L45.4046,42.5771 C45.0056,43.1101 44.5736,43.6221 44.1006,44.1011 C43.6286,44.5731 43.1176,45.0081 42.5866,45.4151 L49.1976,52.0271 C49.3926,51.3761 49.7286,50.7571 50.2426,50.2431 L50.2426,50.2431 Z" stroke-linecap="round" stroke-linejoin="round"></path><path d="M4,7.476 L4,22 C4,23.65 5.35,25 7,25 C8.65,25 10,23.65 10,22 L10,17.031 C7.547,13.403 5.547,10.146 4,7.476 L4,7.476 Z"></path><path d="M28,28.0005 L16,16.0005" stroke-linecap="round"></path><path d="M16,25.3507 L16,40.0007 C16,41.6507 17.35,43.0007 19,43.0007 C20.65,43.0007 22,41.6507 22,40.0007 L22,32.7167 C19.839,30.2157 17.84,27.7467 16,25.3507 L16,25.3507 Z"></path></g></g></g></svg>