<svg fill="#0A5D19" xmlns="http://www.w3.org/2000/svg" xmlns:xlink="http://www.w3.org/1999/xlink" viewBox="0 0 40 60" version="1.1" x="0px" y="0px"><title>43 -Poison- (medieval, antique, old)</title><desc>Created with Sketch.</desc><g stroke="none" stroke-width="1" fill="none" fill-rule="evenodd"><g transform="translate(-370.000000, -830.000000)" fill="#0A5D19"><g transform="translate(370.000000, 830.000000)"><path d="M23.1973,43.7876 L24.5523,43.1096 C25.0473,42.8616 25.6473,43.0636 25.8943,43.5576 C26.1413,44.0516 25.9413,44.6516 25.4473,44.8986 L24.0003,45.6226 L24.0003,47.0046 C24.0003,47.5566 23.5523,48.0046 23.0003,48.0046 C22.4473,48.0046 22.0003,47.5566 22.0003,47.0046 L22.0003,45.4186 L20.0003,43.4186 L18.0003,45.4186 L18.0003,47.0046 C18.0003,47.5566 17.5523,48.0046 17.0003,48.0046 C16.4473,48.0046 16.0003,47.5566 16.0003,47.0046 L16.0003,45.6226 L14.5523,44.8986 C14.0583,44.6516 13.8583,44.0516 14.1053,43.5576 C14.3523,43.0636 14.9513,42.8616 15.4473,43.1096 L16.8023,43.7876 L18.5863,42.0046 L16.5863,40.0046 L15.0003,40.0046 C14.4473,40.0046 14.0003,39.5566 14.0003,39.0046 C14.0003,38.4526 14.4473,38.0046 15.0003,38.0046 L16.0003,38.0046 L16.0003,37.0046 C16.0003,36.4526 16.4473,36.0046 17.0003,36.0046 C17.5523,36.0046 18.0003,36.4526 18.0003,37.0046 L18.0003,38.5906 L20.0003,40.5906 L22.0003,38.5906 L22.0003,37.0046 C22.0003,36.4526 22.4473,36.0046 23.0003,36.0046 C23.5523,36.0046 24.0003,36.4526 24.0003,37.0046 L24.0003,38.0046 L25.0003,38.0046 C25.5523,38.0046 26.0003,38.4526 26.0003,39.0046 C26.0003,39.5566 25.5523,40.0046 25.0003,40.0046 L23.4143,40.0046 L21.4143,42.0046 L23.1973,43.7876 Z M36.2323,41.0046 L39.0003,41.0046 C39.5523,41.0046 40.0003,40.5566 40.0003,40.0046 C40.0003,39.4526 39.5523,39.0046 39.0003,39.0046 L35.9493,39.0046 C35.9703,38.6716 36.0003,38.3416 36.0003,38.0046 C36.0003,36.5986 35.7993,35.2416 35.4573,33.9416 L33.1483,32.6526 C29.5793,30.4176 24.1803,30.5116 20.5443,32.8456 C20.5263,32.8576 20.5083,32.8686 20.4893,32.8786 C16.7793,35.2986 10.5143,36.1026 5.6553,32.9666 L4.9973,32.4976 C4.3633,34.2176 4.0003,36.0676 4.0003,38.0046 C4.0003,38.3416 4.0303,38.6716 4.0503,39.0046 L1.0003,39.0046 C0.4473,39.0046 0.0003,39.4526 0.0003,40.0046 C0.0003,40.5566 0.4473,41.0046 1.0003,41.0046 L3.7673,41.0046 L0.0213,58.7986 C-0.0927,59.3386 0.2533,59.8696 0.7943,59.9826 C0.8633,59.9976 0.9323,60.0046 1.0013,60.0046 C1.4643,60.0046 1.8793,59.6816 1.9783,59.2106 L5.1793,44.0076 C7.5593,49.8616 13.3013,54.0046 20.0003,54.0046 C26.6993,54.0046 32.4403,49.8616 34.8213,44.0076 L38.0213,59.2106 C38.1203,59.6816 38.5363,60.0046 38.9993,60.0046 C39.0673,60.0046 39.1363,59.9976 39.2063,59.9826 C39.7463,59.8696 40.0923,59.3386 39.9783,58.7986 L36.2323,41.0046 Z"></path><path d="M17,12.0044 L23,12.0044 L23,22.2974 C22.544,22.2104 22.081,22.1424 21.612,22.0954 C21.55,22.0884 21.488,22.0804 21.425,22.0744 C20.955,22.0324 20.481,22.0044 20,22.0044 C19.521,22.0044 19.048,22.0324 18.58,22.0744 C18.518,22.0804 18.457,22.0874 18.395,22.0944 C17.924,22.1414 17.459,22.2084 17,22.2964 L17,12.0044 Z M15.387,2.0044 L24.613,2.0044 L23.279,6.0044 L16.721,6.0044 L15.387,2.0044 Z M19.444,31.1724 C19.469,31.1564 19.495,31.1414 19.521,31.1274 C23.831,28.3944 29.979,28.3074 34.167,30.9324 L34.391,31.0574 C32.514,27.1864 29.127,24.1844 25,22.8174 L25,12.0044 L26,12.0044 C26.552,12.0044 27,11.5564 27,11.0044 L27,7.0044 C27,6.4524 26.552,6.0044 26,6.0044 L25.388,6.0044 L26.949,1.3204 C27.05,1.0154 26.999,0.6804 26.811,0.4204 C26.623,0.1584 26.321,0.0044 26,0.0044 L14,0.0044 C13.679,0.0044 13.377,0.1584 13.189,0.4204 C13.001,0.6804 12.95,1.0154 13.051,1.3204 L14.612,6.0044 L14,6.0044 C13.448,6.0044 13,6.4524 13,7.0044 L13,11.0044 C13,11.5564 13.448,12.0044 14,12.0044 L15,12.0044 L15,22.8164 C11.024,24.1314 7.731,26.9614 5.817,30.6274 L6.778,31.3114 C10.859,33.9434 16.359,33.2104 19.444,31.1724 L19.444,31.1724 Z"></path></g></g></g></svg>