<svg fill="#E5E4E2" xmlns="http://www.w3.org/2000/svg" xmlns:xlink="http://www.w3.org/1999/xlink" version="1.1" x="0px" y="0px" viewBox="0 0 100 100" style="enable-background:new 0 0 100 100;" xml:space="preserve"><g><path d="M79.3,49.9l-2.9-9.1c-1-3.3-3.2-6-6.2-7.8l-11.1-6.6c-4.2-2.5-9.5-2.7-13.9-0.3l-10.9,5.9c-2.6,1.4-4.7,3.6-6,6.3l-7,14.8   c-1.9,3.9-1.8,8.4,0.1,12.3c2,4,5.9,6.9,10.4,7.6l16.5,2.6c0.7,0.1,1.5,0.2,2.2,0.2c2.1,0,4.2-0.5,6.2-1.4l15.3-7.5   C78.4,63.6,81.4,56.5,79.3,49.9z M71.2,64.9l-15.3,7.5c-2.2,1.1-4.7,1.5-7.2,1.1l-16.5-2.6c-3.8-0.6-7.1-3-8.9-6.5   c-1.7-3.3-1.7-7.2-0.1-10.6l7-14.8c1.1-2.3,2.9-4.2,5.2-5.4l10.9-5.9c3.7-2,8.3-1.9,11.9,0.3l11.1,6.6c2.5,1.5,4.4,3.9,5.3,6.7   l2.9,9.1C79.2,56.2,76.6,62.2,71.2,64.9z"></path><path d="M48,41c0.1-0.5-0.2-1.1-0.7-1.2c-1.6-0.4-4.4,0.8-6.4,2.2c-1.1,0.7-3.8,2.7-4.2,4.8c-0.3,1.8-2.1,4-5.1,6.3   c-2.5,1.8-4.1,5.6-4.2,5.8c-0.2,0.5,0,1.1,0.5,1.3c0.1,0.1,0.3,0.1,0.4,0.1c0.4,0,0.8-0.2,0.9-0.6c0,0,1.5-3.5,3.5-5   c3.5-2.6,5.5-5.2,5.9-7.5c0.1-0.7,1.2-2,3.3-3.4c2.1-1.4,4.1-2.1,4.8-1.9C47.3,41.8,47.9,41.5,48,41z"></path><path d="M62.9,58.2c-0.8,0.1-5.7,0-8.3-0.8c-3.6-1.1-6.9,2.8-7.1,3c-0.4,0.4-0.3,1.1,0.1,1.4c0.2,0.2,0.4,0.2,0.6,0.2   c0.3,0,0.6-0.1,0.8-0.4c0,0,2.7-3.1,5-2.4c2.7,0.8,8.9,1.3,9.8,0.7c0.5-0.3,0.6-0.9,0.3-1.4C63.9,58.2,63.4,58,62.9,58.2z"></path><path d="M67.2,51c-0.5-0.3-3.3-2.4-3.8-4c-0.8-2.9-5.5-2.4-6-2.3c-0.5,0.1-0.9,0.6-0.9,1.1c0.1,0.5,0.6,0.9,1.1,0.9   c1.2-0.1,3.6,0,3.9,0.9c0.7,2.5,4.3,5.1,4.9,5.3c0.1,0,0.2,0.1,0.4,0.1c0.4,0,0.7-0.2,0.9-0.6C67.9,51.9,67.7,51.3,67.2,51z"></path><path d="M34.8,65.2c-0.4,0.4-0.4,1,0,1.4c0.2,0.2,0.5,0.3,0.7,0.3c0.2,0,0.5-0.1,0.7-0.3c0,0,3-2.8,4.4-1.4c0.4,0.4,1,0.4,1.4,0   s0.4-1,0-1.4C39.8,61.6,36.4,63.6,34.8,65.2z"></path><path d="M51,34.6c2.3-0.2,5.3,0.1,5.8,0.8c1.4,1.9,5.6,3.9,6.3,4.1c0.1,0,0.2,0,0.3,0c0.4,0,0.8-0.3,1-0.7c0.2-0.5-0.2-1.1-0.7-1.2   c-0.6-0.2-4.3-2-5.2-3.3c-1.4-1.9-6.1-1.7-7.5-1.6c-0.6,0-1,0.5-0.9,1.1C50,34.3,50.4,34.7,51,34.6z"></path></g></svg>
