<svg fill="#b97167" xmlns="http://www.w3.org/2000/svg" xmlns:xlink="http://www.w3.org/1999/xlink" version="1.1" x="0px" y="0px" viewBox="0 0 226.8 226.8" style="enable-background:new 0 0 226.8 226.8;" xml:space="preserve"><path d="M96.1,135.1v29.5c6.6,1.2,20.2,2.9,34.5,0.5v-29.8c-5.5,0.9-11,1.3-16,1.3C106.9,136.6,100.3,135.8,96.1,135.1z   M113.6,164.7c-1.1,0-2-0.9-2-2c0-1.1,0.9-2,2-2c1.1,0,2,0.9,2,2C115.6,163.8,114.7,164.7,113.6,164.7z M113.6,155.6  c-1.1,0-2-0.9-2-2c0-1.1,0.9-2,2-2c1.1,0,2,0.9,2,2C115.6,154.7,114.7,155.6,113.6,155.6z M113.6,149c-1.1,0-2-0.9-2-2  c0-1.1,0.9-2,2-2c1.1,0,2,0.9,2,2C115.6,148.1,114.7,149,113.6,149z M115.6,140.1c0,1.1-0.9,2-2,2c-1.1,0-2-0.9-2-2c0-1.1,0.9-2,2-2  C114.7,138.1,115.6,139,115.6,140.1z M114.3,131c5.1,0,10.7-0.4,16.3-1.3v4.7c-14.1,2.4-27.6,0.9-34.5-0.2v-4.6  C100.4,130.2,106.8,131,114.3,131z M109,54.7l8.9,0.1c2.2-0.7,3.8-2.7,3.8-5.1c0-2.9-2.4-5.3-5.3-5.3h-5.6c-2.9,0-5.3,2.4-5.3,5.3  C105.4,52,106.9,53.9,109,54.7z M118.3,46.1c1.4,0,2.5,1.1,2.5,2.5c0,1.4-1.1,2.5-2.5,2.5c-1.4,0-2.5-1.1-2.5-2.5  C115.8,47.2,116.9,46.1,118.3,46.1z M106.2,48.7c0-1.4,1.1-2.5,2.5-2.5c1.4,0,2.5,1.1,2.5,2.5c0,1.4-1.1,2.5-2.5,2.5  C107.3,51.2,106.2,50,106.2,48.7z M99.4,50.1v4.5c0,3.6,1.6,6.8,4.1,9c-1.4,0.6-2.7,1.5-3.8,2.6c5.9,0.9,16.4,1.9,27.3-0.2  c-1-0.9-2.1-1.7-3.3-2.3c2.6-2.2,4.2-5.5,4.2-9.1v-4.5c0-1-0.1-2-0.4-2.9c2.3-2.4,5.1-6.7,3.3-12.8c-2.2,4-6.7,5.1-9,5.4  c-1.8-1-3.8-1.6-6-1.6h-4.5c-1.7,0-3.4,0.4-4.9,1.1c-1.9-0.2-7.1-1.1-9.5-5.4c-1.7,5.9,0.8,10.1,3,12.5  C99.6,47.4,99.4,48.7,99.4,50.1z M110.8,43.3h5.6c3.5,0,6.3,2.8,6.3,6.3c0,2.7-1.7,5-4.1,5.9l-5.2,6.1l-4.9-6.1  c-2.4-0.9-4.1-3.2-4.1-5.9C104.4,46.2,107.3,43.3,110.8,43.3z M114.3,125.3c5.1,0,10.6-0.3,16.3-1.3v4.7c-14,2.4-27.4,1-34.5-0.1  v-4.7C100.4,124.6,106.8,125.3,114.3,125.3z M130.3,72.4c-0.4-2.1-1.3-4-2.7-5.6c-5,1-9.9,1.3-14.4,1.3c-5.8,0.1-11-0.5-14.4-1.1  c-1.3,1.6-2.2,3.6-2.6,5.7C100.7,73.6,115.7,76,130.3,72.4z M111.6,71.3c0-1.1,0.9-2,2-2c1.1,0,2,0.9,2,2s-0.9,2-2,2  C112.5,73.3,111.6,72.4,111.6,71.3z M193.7,85.5c0,0-2.4,5.2-8.7,1.5c-1.8,5.4-5.3,5.7-5.3,5.7s-3.8,0.8-6.3-3  c-0.5,1.9-1.5,3.3-2.4,4.2c-1.7,1.7-4.2,2-6.2,0.8c-0.9-0.6-1.8-1.5-2.3-3c-0.7,6-5,6-5,6s-5-0.4-5.7-4.7c-0.2,0.7-0.4,1.4-0.6,2  c-1.7,4.1-7.5,4.2-8.9,0c-0.1-0.2-0.2-0.4-0.2-0.6c-1.2,4.8-5.7,5.3-5.7,5.3s-4,0.7-4.7-5.3c-0.3,0.3-0.7,0.7-1.1,1.1v11  c-13.8,2.5-27.2,1.2-34.5,0.1V95.1c-0.4-0.3-0.7-0.7-1-1c-0.7,6-4.7,5.3-4.7,5.3s-4.5-0.5-5.7-5.3c-0.1,0.2-0.1,0.4-0.2,0.6  c-1.4,4.1-7.2,4.1-8.9,0c-0.2-0.6-0.4-1.2-0.6-2c-0.7,4.4-5.7,4.7-5.7,4.7s-4.3,0-5-6c-0.5,1.5-1.4,2.4-2.3,3  c-2,1.2-4.5,0.8-6.2-0.8c-0.9-0.9-1.9-2.2-2.4-4.2c-2.5,3.8-6.3,3-6.3,3s-3.5-0.4-5.3-5.7c-6.4,3.7-8.7-1.5-8.7-1.5s-9.7-16.8,2-34  c10.7,23,48,26.8,61,27.4v-3.9c0-0.3,0-0.6,0-0.9c2.8,0.5,9.3,1.6,17.2,1.6c5.3,0,11.3-0.5,17.2-2c0.1,0.4,0.1,0.8,0.1,1.2V79  c12.9-0.6,50.4-4.4,61.1-27.4C203.4,68.8,193.7,85.5,193.7,85.5z M116.8,48.6c0-0.8,0.7-1.5,1.5-1.5s1.5,0.7,1.5,1.5  s-0.7,1.5-1.5,1.5S116.8,49.4,116.8,48.6z M96.1,165.7v15.4c0,6.6,5.4,12,12,12h10.5c6.6,0,12-5.4,12-12v-14.9  c-5.3,0.8-10.5,1.1-15.3,1.1C107.2,167.3,100.3,166.4,96.1,165.7z M113.6,185.5c-1.1,0-2-0.9-2-2c0-1.1,0.9-2,2-2c1.1,0,2,0.9,2,2  C115.6,184.6,114.7,185.5,113.6,185.5z M113.6,179.6c-1.1,0-2-0.9-2-2c0-1.1,0.9-2,2-2c1.1,0,2,0.9,2,2  C115.6,178.7,114.7,179.6,113.6,179.6z M113.6,173.7c-1.1,0-2-0.9-2-2c0-1.1,0.9-2,2-2c1.1,0,2,0.9,2,2  C115.6,172.8,114.7,173.7,113.6,173.7z M108.7,50.2c-0.8,0-1.5-0.7-1.5-1.5s0.7-1.5,1.5-1.5s1.5,0.7,1.5,1.5S109.5,50.2,108.7,50.2z   M96.1,107.5v15.4c7.1,1.1,20.5,2.5,34.5,0.1v-15.6c-5.8,1-11.6,1.4-16.8,1.4C106.6,108.8,100.4,108.1,96.1,107.5z M113.6,121.6  c-1.1,0-2-0.9-2-2c0-1.1,0.9-2,2-2c1.1,0,2,0.9,2,2C115.6,120.7,114.7,121.6,113.6,121.6z M115.6,112.4c0,1.1-0.9,2-2,2  c-1.1,0-2-0.9-2-2c0-1.1,0.9-2,2-2C114.7,110.4,115.6,111.3,115.6,112.4z"></path></svg>
