<?xml version="1.0" encoding="utf-8"?>
<!-- Generator: Adobe Illustrator 19.2.1, SVG Export Plug-In . SVG Version: 6.00 Build 0)  -->
<svg version="1.1" xmlns="http://www.w3.org/2000/svg" xmlns:xlink="http://www.w3.org/1999/xlink" x="0px" y="0px"
	 viewBox="0 0 100 100" style="enable-background:new 0 0 100 100;" xml:space="preserve">
<style type="text/css">
	.st0{fill:#BF0404;}
</style>
<g id="Layer_1">
	<path class="st0" d="M51.5,53.4c0-0.9,0.7-1.6,1.6-1.6c2.9,0,4.3,3.8,4.9,6.4c1.6,6.5,5.4,11.4,13.1,11.4c7.7,0,11.1-4.7,12.8-9.6
		c2.5-6.9,7.6-8.9,10.4-10.3c-2.8-1.5-7.8-3.4-10.4-10.3c-1.8-4.9-5.1-9.6-12.8-9.6C69,40.8,58,41.2,58,41.2c-0.6,2.6-2,6.4-4.9,6.4
		c-0.9,0-1.6-0.7-1.6-1.6c0-2.9,3.8-4.3,6.4-4.9c6.5-1.6,11.4-5.4,11.4-13.1c0-7.7-4.7-11-9.6-12.8c-6.9-2.5-8.9-7.6-10.3-10.4
		c-1.5,2.8-3.4,7.8-10.3,10.4c-4.9,1.8-9.6,5.1-9.6,12.8C40.8,30.6,40.8,41,40.8,41c2.6,0.6,6.4,2,6.4,4.9c0,0.9-0.7,1.6-1.6,1.6
		c-2.9,0-4.3-3.8-4.9-6.4c-1.6-6.5-5.4-11.4-13.1-11.4c-7.7,0-11,4.7-12.8,9.6c-2.5,6.9-7.6,8.9-10.4,10.3
		c2.8,1.5,7.9,3.4,10.4,10.3c1.8,4.9,5.1,9.6,12.8,9.6c3.8-11.7,13.1-11.4,13.1-11.4c0.6-2.6,2-6.4,4.9-6.4c0.9,0,1.6,0.7,1.6,1.6
		c0,2.9-3.8,4.3-6.4,4.9c-6.5,1.6-11.4,5.4-11.4,13.1c0,7.7,4.7,11.1,9.6,12.8c6.9,2.5,8.9,7.6,10.3,10.4c1.5-2.8,3.4-7.8,10.3-10.4
		c4.9-1.8,9.6-5.1,9.6-12.8c-11.3-3.6-11.4-13.1-11.4-13.1C55.2,57.7,51.5,56.3,51.5,53.4z"/>
</g>
<g id="Layer_2">
	<circle cx="48.5" cy="48.9" r="11.9"/>
</g>
</svg>
