<svg xmlns="http://www.w3.org/2000/svg" xmlns:xlink="http://www.w3.org/1999/xlink" version="1.1" x="0px" y="0px" viewBox="0 0 32 32" style="enable-background:new 0 0 32 32;" xml:space="preserve"><g><g><path fill="#442288" d="M28.948,22.684c-0.167-0.504-0.697-0.786-1.212-0.648l-1.36,0.372l-1.6-1.6C24.919,20.173,25,19.515,25,18.838    c0-1.443-0.345-2.822-0.963-4.048l1.923-1.923l1.678,0.652c0.253,0.1,0.538,0.091,0.787-0.026    c0.248-0.116,0.437-0.329,0.523-0.589l1-2.994c0.157-0.471-0.055-0.986-0.499-1.21l-1.704-0.857l-0.857-1.704    c-0.224-0.444-0.74-0.659-1.21-0.499l-2.994,1c-0.504,0.168-0.788,0.7-0.648,1.212l0.372,1.359l-1.868,1.868    c-0.485-0.283-0.997-0.528-1.539-0.72V7h1c0.553,0,1-0.447,1-1V3c0-0.553-0.447-1-1-1h-8c-0.553,0-1,0.447-1,1v3    c0,0.553,0.447,1,1,1h1v3.359c-0.639,0.226-1.239,0.521-1.798,0.873L9.593,9.623l0.372-1.359c0.14-0.512-0.145-1.044-0.648-1.212    l-2.994-1c-0.471-0.159-0.987,0.055-1.21,0.499L4.255,8.255L2.551,9.112c-0.444,0.224-0.656,0.739-0.499,1.21l1,2.994    c0.087,0.26,0.275,0.473,0.523,0.589c0.249,0.116,0.533,0.126,0.787,0.026l1.678-0.652l1.793,1.793C7.3,16.227,7,17.503,7,18.838    c0,0.795,0.113,1.562,0.309,2.297l-1.686,1.685l-1.359-0.372c-0.513-0.135-1.045,0.146-1.212,0.648l-1,2.994    c-0.157,0.471,0.055,0.986,0.499,1.21l1.75,0.88l0.849,1.352C5.334,29.826,5.656,30,5.996,30c0.063,0,0.128-0.006,0.192-0.019    l3.004-0.588c0.29-0.057,0.541-0.24,0.684-0.499c0.143-0.26,0.163-0.569,0.056-0.845l-0.652-1.678l0.786-0.786    c1.586,1.397,3.66,2.252,5.935,2.252c2.38,0,4.54-0.935,6.15-2.448l0.57,0.57l-0.652,1.678c-0.1,0.255-0.09,0.539,0.026,0.787    s0.329,0.437,0.589,0.523l2.994,1C25.782,29.983,25.889,30,25.994,30c0.369,0,0.72-0.205,0.894-0.551l0.857-1.704l1.704-0.857    c0.444-0.224,0.656-0.739,0.499-1.21L28.948,22.684z M24.232,10.215c0.254-0.254,0.353-0.624,0.258-0.971l-0.276-1.008    l1.276-0.426l0.616,1.227c0.097,0.192,0.252,0.348,0.444,0.444l1.227,0.616l-0.394,1.178l-1.306-0.509    c-0.369-0.144-0.789-0.057-1.07,0.225l-2.092,2.092c-0.234-0.28-0.49-0.544-0.757-0.795L24.232,10.215z M8.902,13.313l-1.91-1.91    c-0.191-0.191-0.446-0.293-0.707-0.293c-0.122,0-0.245,0.022-0.362,0.068l-1.307,0.509L4.223,10.51l1.227-0.616    c0.192-0.097,0.348-0.252,0.444-0.444L6.51,8.223l1.276,0.426L7.51,9.656c-0.095,0.347,0.004,0.717,0.258,0.971l1.862,1.861    c-0.005,0.005-0.008,0.01-0.013,0.015c-0.244,0.245-0.471,0.505-0.685,0.776C8.923,13.291,8.912,13.302,8.902,13.313z     M7.179,26.49l0.455,1.17l-1.155,0.227l-0.632-1.006c-0.097-0.155-0.234-0.28-0.397-0.362l-1.227-0.616l0.426-1.276l1.008,0.276    c0.346,0.093,0.718-0.003,0.971-0.258l1.482-1.483c0.17,0.309,0.362,0.603,0.566,0.888c0.014,0.02,0.024,0.041,0.038,0.061    L7.403,25.42C7.123,25.7,7.034,26.12,7.179,26.49z M16,25.838c-2.079,0-3.945-0.917-5.229-2.361    c-0.132-0.148-0.256-0.303-0.374-0.46c-0.023-0.031-0.048-0.063-0.07-0.095c-0.113-0.156-0.218-0.316-0.317-0.48    c-0.021-0.035-0.043-0.069-0.063-0.104c-0.1-0.172-0.19-0.349-0.275-0.528c-0.013-0.027-0.026-0.054-0.039-0.082    c-0.089-0.194-0.168-0.394-0.238-0.597C9.143,20.41,9,19.642,9,18.838c0-1.322,0.388-2.563,1.042-3.633    c0.178-0.29,0.37-0.566,0.584-0.824c0.087-0.104,0.182-0.201,0.274-0.3c0.199-0.213,0.409-0.414,0.634-0.601    c0.777-0.646,1.688-1.147,2.716-1.412C14.691,11.954,15,11.556,15,11.1V6c0-0.553-0.447-1-1-1h-1V4h6v1h-1c-0.553,0-1,0.447-1,1    v5.1c0,0.456,0.309,0.854,0.75,0.969c0.911,0.235,1.728,0.659,2.445,1.199c0.291,0.218,0.562,0.455,0.813,0.713    c0.073,0.075,0.144,0.154,0.213,0.233c0.217,0.243,0.414,0.502,0.596,0.774C22.558,16.104,23,17.425,23,18.838    c0,0.693-0.104,1.361-0.293,1.994c-0.062,0.205-0.134,0.406-0.212,0.604c-0.011,0.025-0.019,0.053-0.029,0.078    c-0.065,0.16-0.143,0.313-0.22,0.468c-0.03,0.06-0.056,0.122-0.088,0.181c-0.051,0.095-0.111,0.185-0.168,0.277    c-0.151,0.252-0.316,0.494-0.498,0.724c-0.033,0.042-0.063,0.087-0.097,0.129C20.11,24.846,18.169,25.838,16,25.838z     M26.551,26.106c-0.192,0.097-0.348,0.252-0.444,0.444l-0.616,1.227l-1.178-0.394l0.509-1.307    c0.145-0.369,0.056-0.789-0.225-1.069l-1.137-1.137c0.019-0.028,0.032-0.059,0.051-0.087c0.168-0.255,0.322-0.519,0.464-0.79    c0.019-0.034,0.042-0.065,0.06-0.101l1.339,1.339c0.254,0.255,0.624,0.351,0.971,0.258l1.008-0.276l0.426,1.276L26.551,26.106z"/><circle fill="#0000dd" cx="17" cy="23" r="1"/><circle fill="#0000dd" cx="14" cy="15" r="1"/><circle fill="#0000dd" cx="13" cy="22" r="1"/><circle fill="#0000dd" cx="16.5" cy="12.5" r="0.5"/><circle fill="#0000dd" cx="19.5" cy="15.5" r="0.5"/><circle fill="#0000dd" cx="12.5" cy="18.5" r="0.5"/><circle fill="#0000dd" cx="19" cy="19" r="2"/></g></g></svg>