<svg fill="#554411" xmlns="http://www.w3.org/2000/svg" xmlns:xlink="http://www.w3.org/1999/xlink" version="1.1" x="0px" y="0px" viewBox="3 3 94 94" style="enable-background:new 0 0 100 100;" xml:space="preserve"><g><circle cx="38.2984772" cy="33.4178696" r="11.4606209"/><path d="M94.7464905,50.2679749c0.0605545-1.3161774-0.3494263-2.5319595-1.0540848-3.4486351   c0.1194-0.2579079,0.1958694-0.5386314,0.1958694-0.8415604c0-22.5784435-11.7470627-40.9474792-26.1859436-40.9474792h-0.7785339   L48.8428307,21.3976917c-0.7442474,0.6737118-0.9736328,1.8063564-0.4289055,2.6496048   c0.696125,1.0776234,2.1519928,1.2425461,3.0635452,0.4157391L68.4581757,9.0926828   C80.155159,9.7494774,89.5629272,25.6075134,89.8221893,45.1583252c1.2069473-0.0789642-11.8096924-0.2615623-41.8295898-0.7026329   c-2.7196465-0.039959-5.4253616,0.4253311-7.9739914,1.3753624c-4.0070496,1.4936714-9.4016781,3.5851212-9.4016781,3.5851212   l-3.936697-1.8036232c0.504591-0.8404503,0.7949371-1.8585129,0.7507801-2.9552689   c-0.1084175-2.6947708-2.1246834-4.8219223-4.4805107-4.7271957L8.8616695,40.0328331   c-2.3559499,0.0948486-4.1947284,2.3771629-4.0863113,5.0718117c0.0035772,0.0891762,0.0259018,0.1716919,0.0336723,0.2596321   c-0.144063,1.6759682,0.4580913,3.1823425,1.7101331,3.794487l18.374094,8.9837189l9.3173561,5.4237022l14.9904633,26.2333069   L69.818634,72.8623276L54.4914474,54.3660049l35.3116302,0.5961113   c-0.4559097,19.658947-10.1551743,35.433773-22.0552826,35.4738579c-1.0225143,0.0034485-1.9397354,0.7720337-2.0532608,1.7882309   c-0.1363144,1.2201309,0.8151627,2.2535172,2.0077972,2.2535172c14.4388809,0,26.1859436-18.3690414,26.1859436-40.9474831   c0-0.159481-0.0558701-0.300705-0.0907822-0.4494553C94.3436508,52.2984276,94.6976471,51.3322906,94.7464905,50.2679749z"/></g></svg>