<svg fill="#004400" xmlns="http://www.w3.org/2000/svg" xmlns:xlink="http://www.w3.org/1999/xlink" version="1.1" x="0px" y="0px" viewBox="5 5 90 90" enable-background="new 0 0 100 100" xml:space="preserve"><g><path d="M25.871,38.458c-0.212,0-0.419,0.029-0.617,0.088c-0.651,0.192-1.205,0.702-1.648,1.514   c-1.3,2.393-1.314,6.733-0.034,11.062c1.963,6.628,5.897,10.35,8.263,9.628c1.907-0.565,3.07-4.204,2.419-9.048l-1.749,0.52   l-0.341,0.103l-0.312-0.171l-0.946-0.517c-0.166,0.585-0.456,1.033-0.893,1.165c-0.995,0.293-2.253-0.99-2.81-2.873   c-0.561-1.878-0.205-3.644,0.79-3.936c0.371-0.112,0.773,0.056,1.168,0.336l0.724-1.429l0.161-0.322l0.346-0.107l1.458-0.449   C30.002,40.479,27.617,38.458,25.871,38.458z"/><path d="M37.124,50.846l-0.858,0.256c0.873,5.843-0.576,10.672-3.841,11.643c-0.388,0.112-0.792,0.17-1.202,0.17   c-3.666,0-7.721-4.711-9.643-11.203c-1.451-4.907-1.373-9.75,0.202-12.645c0.705-1.297,1.702-2.166,2.885-2.514   c0.385-0.115,0.79-0.173,1.205-0.173c2.812,0,5.846,2.795,7.977,7.024l0.792-0.244l-0.451,0.985c0.164,0.358,0.342,0.7,0.493,1.076   l3.427-1.171c-3.634-10.077-10.257-17.43-16.076-17.43c-0.622,0-1.234,0.088-1.817,0.261c-6.558,1.943-8.811,13.933-5.019,26.724   c3.702,12.491,12.291,21.578,18.769,19.671c3.056-0.902,5.292-4.098,6.292-8.994c0.956-4.688,0.6-10.354-0.885-16.105l-3.438,1.175   c0.07,0.312,0.17,0.632,0.227,0.939L37.124,50.846z"/><path d="M42.291,64.695c-1.161,5.688-3.907,9.443-7.735,10.575c-0.773,0.229-1.583,0.346-2.407,0.346   c-7.299,0-15.267-9.009-18.944-21.422c-4.187-14.125-1.365-26.997,6.421-29.306c0.775-0.231,1.585-0.346,2.407-0.346   c6.775,0,14.076,7.802,18.037,18.837l3.18-1.088c-5.65-16.488-17.105-27.401-26.343-24.665c-3.6,1.073-6.599,3.985-8.375,8.238   l-0.049,0.088c-1.985,5.082-3.078,10.613-3.078,16.403c0,17.02,9.428,31.882,23.363,39.534l0.766,0.342   c2.122,0.658,4.458,0.78,6.565,0.156c9.401-2.785,13.023-18.695,8.404-35.964l-3.158,1.081   C42.94,53.606,43.318,59.662,42.291,64.695z"/><polygon points="72.017,33.37 72.86,35.829 71.544,36.28 72.563,36.835 78.431,40.042 84.708,38.174 76.158,33.234 80.304,24.152    74.694,25.883 71.217,32.736 70.661,33.833  "/><polygon points="90.19,20.542 84.576,22.279 79.768,31.766 88.317,36.438 94.595,34.57 86.045,29.629  "/><polygon points="30.807,47.452 31.912,47.073 32.402,45.998 33.065,44.54 30.646,45.286 29.841,46.874 29.761,47.032    28.568,49.383 31.022,50.724 31.363,50.912 32.261,51.402 34.973,50.593 33.978,50.02 32.995,49.451 31.651,49.91  "/><polygon points="72.017,33.37 70.661,33.833 31.912,47.073 30.807,47.452 31.651,49.91 32.995,49.451 71.544,36.28 72.86,35.829     "/></g></svg>