<svg xmlns="http://www.w3.org/2000/svg" xmlns:xlink="http://www.w3.org/1999/xlink" version="1.1" x="0px" y="0px" viewBox="0 0 100 100" style="enable-background:new 0 0 100 100;" xml:space="preserve"><g><path d="M88.6,51.5l-3.1-6c-0.1-0.3-0.2-0.6-0.2-0.9V34c0-0.9-0.3-1.8-0.9-2.5l-2.2-2.6c-0.3-0.4-0.7-0.7-1.1-0.9L72,22.5   c-0.8-0.5-1.8-0.7-2.8-0.5l-19,3.6c-0.3,0.1-0.6,0.1-0.9,0.3l-11.8,5.2c-0.5,0.2-0.9,0.5-1.3,0.9l-4.8,5c-0.4,0.4-0.9,0.6-1.4,0.6   h-1.8c-0.7,0-1.3,0.2-1.9,0.5L13,45.4c-1.8,1-2.5,3.1-1.8,5l1,2.4c0.2,0.5,0.2,1,0,1.4l-0.4,1c-0.6,1.6-0.1,3.4,1.2,4.5l1.9,1.6   c0.8,0.7,1.9,1,3,0.9l4.6-0.5c0.7-0.1,1.4,0.2,1.8,0.8l3.2,4.4c0.4,0.6,1,1,1.7,1.3l23.5,9.7c0.4,0.1,0.7,0.2,1.1,0.3   c0,0,0.1,0,0.1,0c0,0,0,0,0,0c0.1,0,0.2,0,0.3,0c0.4,0,0.8-0.1,1.3-0.2l6.6-2.2c0.4-0.1,0.8-0.3,1.1-0.6l9.5-7.2   c0.2-0.1,0.3-0.2,0.5-0.3l7-2.5c0.5-0.2,1-0.5,1.5-0.9l6.1-5.9c0.8-0.7,1.2-1.8,1.2-2.8v-2.1C89,52.7,88.9,52.1,88.6,51.5z    M30,66.2c-0.3-0.1-0.6-0.4-0.8-0.7L26,61.2c-0.8-1-2-1.6-3.2-1.6c-0.1,0-0.3,0-0.4,0l-4.6,0.5c-0.5,0.1-1.1-0.1-1.5-0.4l-1.9-1.6   c-0.7-0.5-0.9-1.4-0.6-2.2c0,0,0,0,0,0l0.4-1c0.3-0.9,0.3-2,0-2.9l-1-2.4c-0.4-0.9,0-2,0.9-2.5l13.4-7.3c0.3-0.2,0.6-0.2,0.9-0.2   h1.8c1.1,0,2.1-0.5,2.9-1.2l4.8-5c0.2-0.2,0.4-0.3,0.6-0.4l11.8-5.2c0.1-0.1,0.3-0.1,0.4-0.1l19-3.6c0,0,0.1,0,0.1,0L62,33.8   c-0.2,0.2-0.3,0.4-0.4,0.6l-6,11.9c-0.5,1-0.5,2.1-0.1,3.2l4,9.3c0.1,0.3,0.2,0.7,0.1,1.1l-2.1,8.8c0,0.2-0.1,0.3-0.2,0.5l-3.9,6.7   L30,66.2z M87,55.4c0,0.5-0.2,1-0.6,1.4l-6.1,5.9c-0.2,0.2-0.5,0.4-0.7,0.4l-7,2.5c-0.4,0.1-0.7,0.3-1.1,0.6L62,73.5   c-0.2,0.1-0.4,0.2-0.6,0.3l-5.6,1.9l3.1-5.4c0.2-0.3,0.3-0.7,0.4-1l2.1-8.8c0.2-0.8,0.1-1.6-0.2-2.3l-4-9.3c-0.2-0.5-0.2-1,0-1.5   l6-11.9c0.1-0.1,0.1-0.2,0.2-0.3l8.2-10.3l8.4,5c0.2,0.1,0.4,0.3,0.5,0.4l2.2,2.6c0.3,0.4,0.5,0.8,0.5,1.3v10.7   c0,0.6,0.2,1.3,0.4,1.8l3.1,6C87,52.7,87,53,87,53.4V55.4z"></path><path d="M43.8,40.6c-0.1-0.5-0.7-0.8-1.2-0.7l-5.9,1.6c-1.6,0.4-3.1,1.4-4.2,2.6l-3.4,4c-0.6,0.7-1.4,1.3-2.3,1.7l-6,2.6   c-0.5,0.2-0.7,0.8-0.5,1.3c0.2,0.4,0.5,0.6,0.9,0.6c0.1,0,0.3,0,0.4-0.1l6-2.6c1.2-0.5,2.2-1.3,3-2.2l3.4-4c0.9-1,2-1.7,3.2-2   l5.9-1.6C43.7,41.7,44,41.1,43.8,40.6z"></path><path d="M45.9,50.8c-0.6,0-1,0.4-1,1v2.3c0,2.2-1.1,4.2-2.8,5.4l-2.1,1.5c-0.5,0.3-0.6,0.9-0.3,1.4c0.2,0.3,0.5,0.4,0.8,0.4   c0.2,0,0.4-0.1,0.6-0.2l2.1-1.5c2.3-1.6,3.7-4.2,3.7-7v-2.3C46.9,51.2,46.5,50.8,45.9,50.8z"></path><path d="M80.5,53.3c-1.4-1.2-2.2-3-2.2-4.9v-5.9c0-1.8-0.6-3.6-1.6-5l-4.3-5.9c-0.3-0.4-1-0.5-1.4-0.2c-0.4,0.3-0.5,1-0.2,1.4   l4.3,5.9c0.8,1.1,1.3,2.5,1.3,3.9v5.9c0,2.4,1.1,4.8,2.9,6.4l0.3,0.3c0.2,0.2,0.4,0.2,0.7,0.2c0.3,0,0.6-0.1,0.8-0.3   c0.4-0.4,0.3-1-0.1-1.4L80.5,53.3z"></path><path d="M67.3,52c-1.3-1.4-2-3.3-1.8-5.2l0.3-3.5c0.1-0.5-0.3-1-0.9-1.1c-0.5,0-1,0.3-1.1,0.9l-0.3,3.5c-0.2,2.5,0.6,5,2.4,6.8   l0.9,1c1.6,1.7,2.2,4.1,1.6,6.3l-0.5,1.8c-0.1,0.5,0.2,1.1,0.7,1.2c0.1,0,0.2,0,0.3,0c0.4,0,0.8-0.3,1-0.7l0.5-1.8   c0.8-2.9,0-6.1-2.1-8.3L67.3,52z"></path></g></svg>