<svg fill="#E88A51" enable-background="new 0 0 100 100" version="1.1" viewBox="0 0 100 100" xml:space="preserve" xmlns="http://www.w3.org/2000/svg" xmlns:cc="http://creativecommons.org/ns#" xmlns:dc="http://purl.org/dc/elements/1.1/" xmlns:rdf="http://www.w3.org/1999/02/22-rdf-syntax-ns#"><metadata><rdf:RDF><cc:Work rdf:about=""><dc:format>image/svg+xml</dc:format><dc:type rdf:resource="http://purl.org/dc/dcmitype/StillImage"/><dc:title/></cc:Work></rdf:RDF></metadata><path d="m91.884 74.732h-15.294v-51.637c0-6.04-4.946-10.771-11.262-10.771h-47.694c-6.104 0-11.263 5.287-11.263 11.546 0 1.332 1.079 2.411 2.41 2.411h15.294v50.862c0 6.211 5.053 11.264 11.264 11.264h47.692c6.211 0 11.264-5.053 11.264-11.264 0-1.331-1.079-2.411-2.411-2.411zm-80.246-53.273c0.952-2.495 3.313-4.312 5.996-4.312 2.807 0 5.199 1.803 6.081 4.312h-12.077zm30.141 55.685c0 3.552-2.889 6.44-6.44 6.44s-6.441-2.889-6.441-6.44v-53.557c0-2.395-0.753-4.614-2.031-6.44h38.462c3.671 0 6.44 2.558 6.44 5.948v51.638h-27.578c-1.332-1e-3 -2.412 1.079-2.412 2.411zm41.252 6.44h-38.457c0.836-1.193 1.446-2.559 1.768-4.029h42.662c-0.955 2.361-3.273 4.029-5.973 4.029z"/><g transform="matrix(.45 0 0 .45 27.483 27.511)"><path d="m78 84.2c-1.8 3.9-4.3 5.8-4.5 5.9l-0.2 0.2h-0.3c-21.3-3.5-30.9-8.9-35.1-12.7-0.7 0.8-1.3 1.5-1.8 2.3-0.6 0.8-0.4 1.9 0.3 2.6 3.2 2.7 13.2 9.4 37.9 12.5 0.7 0.1 1.4-0.2 1.8-0.8 1.2-1.7 3.3-5.6 2.3-9.3-0.1-0.2-0.2-0.5-0.4-0.7zm-35.5 0.3c-0.4 0-0.7-0.3-0.7-0.7s0.3-0.7 0.7-0.7 0.7 0.3 0.7 0.7c-0.1 0.4-0.4 0.7-0.7 0.7zm14.7 5.8c-0.4 0-0.7-0.3-0.7-0.7s0.3-0.7 0.7-0.7 0.7 0.3 0.7 0.7c-0.1 0.4-0.4 0.7-0.7 0.7zm17 3.1c-0.4 0-0.7-0.3-0.7-0.7s0.3-0.7 0.7-0.7 0.7 0.3 0.7 0.7-0.3 0.7-0.7 0.7z"/><path d="m42.7 72.1c4.3 2.9 13.6 8 27.4 9.6h0.6c1.9 0 3.6-1 4.2-2.6 0.5-1.4 1-2.8 1.5-4.3-22.7-3.4-32.2-13.3-36.8-18.1-1-1-1.8-1.8-2.3-2.1-2-1.2-3.1-4.2-2.5-6.9 0.5-2.2 2-3.7 4.1-3.9 0.6-0.1 1.2 0 1.8 0.1 1-1.7 7.5-11.7 23.2-16.6 0.3-0.5 1-1.5 1.8-2.5-1.2-0.3-1.9-0.4-1.9-0.4-1.7-0.2-3.3-0.3-4.8-0.3-12 0-18.4 6-21.8 11-1.6 2.4-2.7 5.2-3.1 8.2-0.9 6.6 0.6 14.5 4.3 22.8 0.9 2.3 2.2 4.6 4.3 6zm20.5 3.6c0.6 0 1.2 0.5 1.2 1.2 0 0.6-0.5 1.2-1.2 1.2s-1.2-0.6-1.2-1.3c0-0.6 0.5-1.1 1.2-1.1zm-13.5-4.1c0.6 0 1.2 0.5 1.2 1.2 0 0.6-0.5 1.2-1.2 1.2s-1.2-0.5-1.2-1.2 0.5-1.2 1.2-1.2z"/><path d="m58.1 15.7c-7.6 0-16.6 2.2-21.7 17.7 3.7-5.1 10.5-10.8 22.4-10.8 1.6 0 3.3 0.1 5 0.3 0 0 1.1 0.1 2.8 0.7 1.2-1.3 2.5-2.6 3.7-2.9-1.8-2.5-6.7-5-11.8-5z"/><path d="m65.5 27.5c2 0.8 6.9 3.1 10.9 8.6 0.2 0.3 0.2 0.8-0.2 1-0.1 0.1-0.3 0.1-0.4 0.1-0.2 0-0.4-0.1-0.6-0.3-4.3-5.9-9.8-7.9-10.9-8.3-14.5 4.7-20.9 13.7-22.3 15.8 0.9 0.4 1.8 1.1 2.7 1.8 2.5 1.8 5.5 4 11.3 4.5 8.3 0.6 21.4-1.7 26.3-2.7-0.1-1.3-0.3-2.5-0.6-3.7-0.5 0-1.1 0-1.4-0.2-0.8-0.4-0.5-1 0-1.7 0.2-0.2 0.5-0.3 0.9-0.4-0.5-1.9-1.1-3.5-1.9-5-2.4-5.6-6.3-12.9-8-14.8-0.2-0.1-0.5-0.1-0.7-0.1-1.1 0.1-3.5 3-5.1 5.4zm9.2 16.9c-2.9-0.1-9.9 0.6-13.7 1-0.5 0-0.6-0.6-0.2-0.8 6.5-2.7 11.9-2.5 14-2.3 0.5 0.1 1 0.5 1 1.1s-0.5 1-1.1 1z"/><path d="m87.4 49.1-0.1-0.1h-2.6c-1.4 0.3-18.3 3.9-28.7 3.1-6.3-0.5-9.6-2.9-12.1-4.7-1.8-1.3-3.1-2.3-4.9-2.1-2 0.2-2.6 1.8-2.8 2.7-0.4 2.1 0.4 4.5 1.8 5.4 0.7 0.4 1.5 1.2 2.6 2.4 4.5 4.7 13.9 14.3 36.2 17.7l0.3-0.9c2.2-6.6 4.6-14.1 10.2-23.2 0.1-0.2 0.1-0.3 0.1-0.3zm-48 2c-0.9 0-1.7-0.8-1.7-1.7s0.8-1.7 1.7-1.7 1.7 0.8 1.7 1.7-0.7 1.7-1.7 1.7zm18.8 7-1 3.2c-0.2 0.6-0.8 1-1.5 0.8-0.6-0.2-1-0.8-0.8-1.5l0.9-3.2c0.2-0.6 0.8-1 1.4-0.8h0.1c0.7 0.2 1.1 0.9 0.9 1.5zm6.6-0.2-1.9 6.5c-0.2 0.6-0.8 1-1.5 0.8-0.6-0.2-1-0.8-0.8-1.5l1.8-6.5c0.2-0.6 0.8-1 1.4-0.8h0.1c0.7 0.1 1.1 0.8 0.9 1.5zm6.7 0-2.7 8.9c-0.2 0.6-0.8 1-1.5 0.8-0.6-0.2-1-0.8-0.8-1.5l2.6-8.9c0.2-0.6 0.8-1 1.4-0.8h0.1c0.7 0.1 1.1 0.8 0.9 1.5zm6 0.9-3 9.8c-0.2 0.6-0.8 1-1.5 0.8-0.6-0.2-1-0.8-0.8-1.5l2.9-9.8c0.2-0.6 0.8-1 1.4-0.8h0.1c0.7 0.2 1.1 0.9 0.9 1.5z"/><path d="m58.1 14.3h0.4c1 0 2.1 0.1 3.1 0.3-0.8-1.7-2.6-4-6.2-6.4-8.8-5.9-17.7-2.7-21.4 2.4 0 0-11.2 3.7-11.1 16.2s-1 13.2-5.2 13.2c-2.9 0-2.7-3.5-2.7-3.5s-6.9 7 2.4 11.7c4.9 2.5 10.6-0.6 15.1-5.7l0.6-2.7c4.9-22.9 16.6-25.5 25-25.5z"/><path d="m70.6 83.2h-0.7c-14.1-1.5-23.6-6.8-28-9.8-0.7 0.7-1.8 1.8-3 3.1 3.9 3.6 13.1 8.9 34 12.4 0.7-0.6 2.7-2.5 4.1-5.8l-1.7-1.8c-1.1 1.1-2.8 1.9-4.7 1.9zm-24.6-4c-0.4 0-0.7-0.3-0.7-0.7s0.3-0.7 0.7-0.7 0.7 0.3 0.7 0.7c-0.1 0.4-0.4 0.7-0.7 0.7z"/></g></svg>
