<svg fill="#E88A51" width="100" height="100" xmlns="http://www.w3.org/2000/svg"><metadata>image/svg+xml</metadata><g><rect fill="none" id="canvas_background" height="402" width="582" y="-1" x="-1"/></g><g><path  id="svg_1" d="m91.884,74.732l-15.294,0l0,-51.637c0,-6.04 -4.946,-10.771 -11.262,-10.771l-47.694,0c-6.104,0 -11.263,5.287 -11.263,11.546c0,1.332 1.079,2.411 2.41,2.411l15.294,0l0,50.862c0,6.211 5.053,11.264 11.264,11.264l47.692,0c6.211,0 11.264,-5.053 11.264,-11.264c0,-1.331 -1.079,-2.411 -2.411,-2.411zm-80.246,-53.273c0.952,-2.495 3.313,-4.312 5.996,-4.312c2.807,0 5.199,1.803 6.081,4.312l-12.077,0zm30.141,55.685c0,3.552 -2.889,6.44 -6.44,6.44s-6.441,-2.889 -6.441,-6.44l0,-53.557c0,-2.395 -0.753,-4.614 -2.031,-6.44l38.462,0c3.671,0 6.44,2.558 6.44,5.948l0,51.638l-27.578,0c-1.332,-0.001 -2.412,1.079 -2.412,2.411zm41.252,6.44l-38.457,0c0.836,-1.193 1.446,-2.559 1.768,-4.029l42.662,0c-0.955,2.361 -3.273,4.029 -5.973,4.029z"/><g stroke="null" id="svg_15"><polygon id="svg_13" points="56.733245342969894,58.120275035500526 59.90772196650505,64.38790656626225 63.14698740839958,58.120275035500526 61.00907465815544,59.4828047901392 61.00907465815544,38.445340648293495 63.14698740839958,36.70130683481693 63.14698740839958,30.43366576731205 59.90772196650505,33.10423041880131 56.733245342969894,30.43366576731205 56.733245342969894,36.70130683481693 58.87115427851677,38.445340648293495 58.87115427851677,59.4828047901392 "/><path id="svg_14" d="m39.759486,40.243883l-1.036565,0l0,25.01605c0,2.943065 2.850555,5.286616 6.284177,5.286616l3.368837,0c3.498408,0 6.284177,-2.398053 6.284177,-5.286616l0,-25.01605l-3.174481,0l0,-0.872019l2.137916,-1.79854l0,-5.341117l-3.239266,2.670559l-3.174481,-2.670559l0,5.341117l2.137916,1.79854l0,0.872019l-3.174481,0l0,-11.227247l2.137916,-1.79854l0,-5.722626l-3.174481,2.670559l-3.239266,-2.670559l0,5.722626l2.137916,1.79854l0,0.490511l-3.174481,2.670559l-3.174481,-2.670559l0,5.341117l2.137916,1.79854l0,3.597079l-0.064785,0zm2.137916,-3.542578l2.137916,-1.79854l0,5.341117l-2.137916,0l0,-3.542578zm-1.036565,5.341117l11.661359,0l0,4.033089l-11.661359,8.338683l0,-12.371772zm0,14.715324l11.661359,-8.338683l0,4.741604l-11.661359,6.81265l0,-3.215571zm0,5.395619l11.661359,-6.81265l0,9.919218c0,1.907542 -1.878775,3.488077 -4.146261,3.488077l-3.368837,0c-2.267487,0 -4.146261,-1.580535 -4.146261,-3.488077l0,-3.106568z"/></g></g></svg>