<svg xmlns="http://www.w3.org/2000/svg" xmlns:xlink="http://www.w3.org/1999/xlink" version="1.1" x="0px" y="0px" viewBox="0 0 96 96" enable-background="new 0 0 96 96.001" xml:space="preserve"><path fill="#888888" d="M88.271,90.449c-0.082-1.193-0.942-11.665-5.749-11.665c-0.352,0-0.715,0.059-1.08,0.174  c-1.061,0.335-2.143,0.505-3.216,0.505c-3.15,0-6.256-1.515-8.309-4.052c-2.724-3.368-8.499-5.908-13.435-5.908  c-4.422,0-6.843-0.132-9.268-2.974c-2.825-3.31-8.199-6.003-12.501-6.265c-3.134-0.189-3.172-3.551-2.873-8.656  c0.246-4.196,0.501-8.535-3.069-9.036c-1.932-0.271-3.243-0.936-4.009-2.032c-1.584-2.268-0.721-6.281,0.114-10.162  c0.965-4.487,1.963-9.128-0.723-11.67c-1.822-1.725-2.786-3.839-3.718-5.884C18.626,8.855,16.755,4.75,8.653,4.75L7.729,4.757  v86.494h80.597L88.271,90.449z"/><rect x="41.604" y="49.243" transform="matrix(0.9076 -0.4199 0.4199 0.9076 -16.8768 23.3216)" width="5.856" height="1.5"/><rect x="42.938" y="53.726" width="3.62" height="1.5"/><rect x="40.916" y="58.492" transform="matrix(-0.9463 -0.3232 0.3232 -0.9463 68.7906 129.9059)" width="8.528" height="1.5"/><path d="M73.874,53.083l6.745,5.839c0.59,0.511,1.347,0.792,2.131,0.792c0.95,0,1.85-0.409,2.469-1.123l1.83-2.114  c1.176-1.36,1.027-3.424-0.332-4.6l-6.746-5.84c-0.92-0.797-2.284-0.982-3.391-0.533L60.259,31.376l4.2-4.852l-1.273-1.102  l1.791-2.061l-6.381-5.547l-1.803,2.072l-1.303-1.127l-4.2,4.852l-1.234-1.068l-3.72,4.297l1.234,1.068l-4.201,4.852l1.412,1.222  L38.516,47.35l12.385-8.07l1.438,1.245l4.2-4.852l16.319,14.128C72.554,50.981,72.931,52.267,73.874,53.083z M42.109,43.219  l3.848-8.211l3.749,3.261L42.109,43.219z"/></svg>