<svg fill="#E6BE00" enable-background="new 0 0 100 100" version="1.1" viewBox="0 0 100 100" xml:space="preserve" xmlns="http://www.w3.org/2000/svg" xmlns:cc="http://creativecommons.org/ns#" xmlns:dc="http://purl.org/dc/elements/1.1/" xmlns:rdf="http://www.w3.org/1999/02/22-rdf-syntax-ns#"><metadata><rdf:RDF><cc:Work rdf:about=""><dc:format>image/svg+xml</dc:format><dc:type rdf:resource="http://purl.org/dc/dcmitype/StillImage"/><dc:title/></cc:Work></rdf:RDF></metadata><path d="m91.884 74.732h-15.294v-51.637c0-6.04-4.946-10.771-11.262-10.771h-47.694c-6.104 0-11.263 5.287-11.263 11.546 0 1.332 1.079 2.411 2.41 2.411h15.294v50.862c0 6.211 5.053 11.264 11.264 11.264h47.692c6.211 0 11.264-5.053 11.264-11.264 0-1.331-1.079-2.411-2.411-2.411zm-80.246-53.273c0.952-2.495 3.313-4.312 5.996-4.312 2.807 0 5.199 1.803 6.081 4.312h-12.077zm30.141 55.685c0 3.552-2.889 6.44-6.44 6.44s-6.441-2.889-6.441-6.44v-53.557c0-2.395-0.753-4.614-2.031-6.44h38.462c3.671 0 6.44 2.558 6.44 5.948v51.638h-27.578c-1.332-1e-3 -2.412 1.079-2.412 2.411zm41.252 6.44h-38.457c0.836-1.193 1.446-2.559 1.768-4.029h42.662c-0.955 2.361-3.273 4.029-5.973 4.029z"/><g transform="matrix(.405 0 0 .405 30.334 29.067)"><path d="m92.425 6.117c-4.382 2.914-9.23 5.547-13.307 8.872-2.638 2.152-4.993 4.797-7.444 7.154-11.005 10.575-22.01 21.15-33.014 31.725-2.731 2.625-5.462 5.25-8.193 7.873l-2.529-2.529c-0.207-0.205-0.491-0.289-0.77-0.271-1.903-2.068-3.806-4.137-5.709-6.207-0.28-0.304-0.612-0.348-0.909-0.257-0.172 0.033-0.342 0.101-0.499 0.257-0.738 0.738-1.477 1.477-2.214 2.215-0.369 0.369-0.397 1.043 0 1.408 2.068 1.902 4.137 3.805 6.205 5.707-0.018 0.279 0.066 0.562 0.273 0.77 1.422 1.422 2.843 2.844 4.265 4.266-1.329 1.33-2.658 2.658-3.987 3.988h-1e-3c-1.564 1.564-3.127 3.129-4.69 4.691l-4.328 4.328c-1.927-0.811-4.138-0.668-5.938 1.133-5.245 5.246 3.577 13.973 9.031 9.031 1.625-1.793 1.766-3.947 1.046-5.85 1.472-1.473 2.943-2.943 4.415-4.414l1e-3 -2e-3c1.563-1.562 3.127-3.127 4.691-4.691 1.33-1.328 2.659-2.658 3.988-3.988 1.421 1.422 2.842 2.844 4.263 4.264 0.208 0.209 0.493 0.293 0.773 0.273 1.916 2.082 3.833 4.166 5.749 6.248 0.364 0.396 1.039 0.369 1.407 0 0.738-0.738 1.476-1.477 2.214-2.215 0.155-0.154 0.222-0.324 0.256-0.494 0.092-0.297 0.05-0.631-0.256-0.912-2.081-1.914-4.163-3.828-6.243-5.744 3e-3 -0.025 8e-3 -0.049 9e-3 -0.074-1e-3 -0.027-8e-3 -0.053-0.012-0.082-0.01-0.211-0.081-0.428-0.275-0.621l-2.527-2.527c13.633-14.193 27.266-28.386 40.899-42.579 1.948-2.029 3.896-4.058 5.846-6.086 0.016-0.016 0.019-0.035 0.032-0.051 0.043-0.045 0.085-0.094 0.123-0.15 2.906-4.365 5.814-8.73 8.721-13.095 0.545-0.823-0.543-1.909-1.362-1.364zm-56.357 64.041c0.838 0.838 1.676 1.676 2.513 2.512-0.134 0.135-0.269 0.27-0.403 0.404s-0.269 0.27-0.404 0.404c-1.891-1.891-3.782-3.783-5.673-5.674-0.47-0.471-0.94-0.939-1.41-1.41-1.408-1.408-2.815-2.816-4.222-4.223 0.269-0.27 0.538-0.537 0.807-0.807l7.758 7.758c0.344 0.347 0.69 0.69 1.034 1.036zm-15.342-15.285 4.859 5.283c-0.108 0.107-0.217 0.217-0.325 0.324l-5.282-4.859c0.249-0.25 0.499-0.498 0.748-0.748zm9.968 14.338c0.235 0.236 0.471 0.471 0.706 0.707-1.095 1.094-2.189 2.189-3.284 3.283l-1.412-1.412c1.095-1.094 2.189-2.189 3.284-3.283 0.235 0.234 0.471 0.471 0.706 0.705zm-11.96 13.373-0.177-0.178c-0.364-0.457-0.778-0.873-1.23-1.24 1.093-1.092 2.186-2.186 3.278-3.277 0.471 0.471 0.942 0.941 1.413 1.412-1.095 1.094-2.189 2.189-3.284 3.283zm4.691-4.691-1.412-1.412c1.095-1.094 2.189-2.189 3.283-3.283l1.412 1.412c-1.094 1.093-2.188 2.189-3.283 3.283zm-12.382 4.753c1.415-1.402 3.26-1.186 4.724-0.215 0.529 0.529 1.057 1.057 1.585 1.586 0.987 1.48 1.242 3.371-0.093 4.846-3.564 3.229-9.65-2.814-6.216-6.217zm28.382-8.003c0.053-0.055 0.107-0.107 0.161-0.16 0.054-0.055 0.107-0.107 0.161-0.162 1.775 1.633 3.551 3.268 5.327 4.9-0.25 0.25-0.499 0.5-0.748 0.748-1.635-1.776-3.268-3.551-4.901-5.326zm2.489-11.979c-1.719 1.789-3.438 3.578-5.156 5.369l-1.739-1.74c13.913-13.912 27.826-27.825 41.739-41.738l5.966-5.966c0.907-0.907-0.499-2.314-1.407-1.408l-42.443 42.442c-1.754 1.754-3.508 3.51-5.262 5.264l-1.396-1.396c-0.114-0.113-0.228-0.229-0.342-0.342 7.433-7.143 14.865-14.285 22.297-21.427 8.65-8.312 17.006-17.178 26.064-25.046 0.513-0.445-0.08 0.033 0.66-0.504 1.409-1.022 2.911-1.936 4.36-2.899l4.103-2.729c-1.975 2.965-3.949 5.93-5.924 8.896-13.839 14.407-27.68 28.816-41.52 43.224z"/></g></svg>
