<svg fill="#558C37" xmlns="http://www.w3.org/2000/svg" xmlns:xlink="http://www.w3.org/1999/xlink" version="1.1" x="0px" y="0px" viewBox="5 5 90 90" enable-background="new 0 0 100 100" xml:space="preserve"><path d="M50.8649101,38.9638138l-0.6552467,0.0270119c0.1719818-0.2060966,0.3567581-0.4050865,0.5529175-0.5983887  l-0.3454018-0.1122932c-2.7588615,1.2934418-5.5347977,3.4908676-7.735054,8.4727478  c-0.5443916-2.8228226,0.392292-5.3471603,1.3090706-7.6568794c-2.7716599,3.9954491-1.0788193,4.1404457-4.5213509,8.1898918  c-1.06744,1.2536316-2.9408112,3.6443825-3.8334084,4.9207497c-0.6552429-1.9643135,0.6040802-5.9811096,1.3175926-7.6441078  c-2.1036186,2.8427277-3.4297638,7.6313095-3.922966,12.679985c-0.3922882-0.8727226-1.7624912-2.1377373-2.0041218-7.8374062  c-1.7070541,6.4871101,0.985014,8.0875587,0.9281616,13.8995247c-5.3016891-5.2391434-6.6406021-11.7816925-1.6686878-16.8360596  c-1.2422771,0.5614395-1.8349743,1.3929367-2.9649601,2.5968208c0.4136124-2.3750916,3.8746338-7.2361565,7.9880657-7.8246078  c-1.2508011-0.0341187-2.3395576,0.1393051-3.5036621,0.4264069c3.5363655-3.2520905,6.4828377-4.4062271,10.8023682-4.5952797  c-1.2522163-0.3297462-2.1064491,0.1151237-3.5505791,0l0.5315971-0.1861916  c-3.4070015,0.0838661-6.8907852,0.5415344-10.5365849,1.0972786c1.1129398-1.752552,3.0232296-2.8953056,4.9236126-3.5335045  c-3.3700504,0.2871056-9.0384617,1.0702972-13.1106701,2.8143005c0.4207191-0.8457108,1.2024689-1.641674,3.2094517-2.7020073  c-2.9265938,0.6140175-5.044426,1.2365875-10.3489466,5.7636337c1.277812-2.5698395,5.2718458-10.6005459,13.171771-10.6787205  c-1.4000435-0.4491463-2.3154087-0.5529175-3.9798203-1.012001c3.5704556-0.5159664,7.6341419-1.1783161,11.2245007,1.1740417  c-0.4377899-0.867033-0.7405243-1.5109215-2.1576405-2.3665714c5.1481686,0.9423752,8.4599476,1.5563946,11.9266605,4.1262302  c-0.3567581-0.5600224-0.6339226-0.9636955-0.9636955-1.3716164c-2.8043633-1.65872-5.7494202-2.9209023-8.856514-4.158905  c1.2607384-1.3872452,3.0346107-1.6900082,4.7032967-1.4384098c-2.7830391-1.3815536-7.5232906-3.3743229-11.1776123-3.4880333  c0.5145245-0.7263107,1.3090725-1.2124348,3.1469059-1.3815536c-2.4902172-0.7916889-4.3308849-1.1697941-9.5430431,1.1797314  c1.5563927-2.2102203,6.42029-9.1066685,12.8249779-5.2007761c-1.0404243-1.2095757-1.7624893-1.786644-3.0132904-3.1341085  c2.9933853,1.2266483,6.4146271,2.5414104,8.8437157,6.9632683c-0.1790848-1.1882553-0.2927933-2.0524559-1.2664299-3.7154512  c3.8049812,3.4908648,6.3108559,5.7934752,8.52108,10.026309l0.1904678,0.1336136  c-0.2842751-1.2394199-0.5088615-2.0041237-1.0404282-3.4965572c0.9636955,1.2635994,1.8378334,2.5627308,2.6210022,3.8774929  c-0.5045853-1.6743774-1.1029739-3.8348503-1.8378372-6.9845886c1.1740417,0.794548,2.2457542,1.3147621,2.9621277,0.8954601  c-0.5827599-2.0311356-0.5813408-3.8078403-0.1932983-5.4182291l2.0211678,3.5207071L50.461235,13.015398  c0.2117882-0.4775724,0.4534225-0.9466228,0.722065-1.4000435c0.6765633,0.4491453,1.3545723,3.522151,2.0311356,3.9727125  c0.4960594-4.0921125,2.8711548-8.484128,5.3528519-10.125803c0.1549339,3.4880328-0.3411293,6.5823321-1.7113304,9.1578598  c0.8371887,0,1.6743774-0.6822548,2.508709-0.6822548c-0.1066017,0.6381979-0.3297462,1.4654207-0.6381989,2.3935823  l-2.9734802,1.5905113l2.75317-0.949482c-1.0802383,3.0317822-2.9052734,6.8069191-4.4403496,8.373251  c2.2400665-1.8946896,3.5818405-3.0132923,4.8425789-3.3601112c-2.0368271,2.2713528-2.9763412,4.222868-3.4795113,6.0123711  c0.3525085-0.6140175,0.7334175-1.2266483,1.1484718-1.8349762c-0.2515678,1.4213638-0.2899628,2.0552883-0.2686424,3.3089466  c1.4540672-4.0594101,3.8689423-6.4103508,7.6227875-10.0589809c-0.7049904,1.4995384-0.5983887,2.2002811-0.4804306,3.1682243  c1.6772118-3.9513912,5.4253349-5.6613026,8.6802559-7.214838c-1.1271515,1.303381-1.8349762,1.9046288-2.7446442,3.0531006  c6.6107559-4.3323278,14.3927231,0.1236477,16.8872223,1.5535622c-6.9277344-0.8186989-9.0384598-0.1563492-11.8058472,0.9580059  c2.2542801-0.2288342,3.3487244-0.0056915,4.1702881,0.4633598c-4.3607559,0.8130093-9.5089264,3.3131943-12.4653625,4.9477615  c1.9373322-0.5259037,4.158905-0.6381969,6.056427,0.2018223c-5.0557861,2.372263-9.6780739,4.7118225-13.5797195,8.0150795  c1.9486847-0.4434547,4.0622711-0.6865311,6.2241592-0.7163734c-1.3119316,0.6225662-2.2713509,0.5088577-3.3245773,1.2522163  c4.1105728-1.3431892,7.2716904-1.2991333,11.7305298,0.4988937c-1.1939468,0.1421356-2.2670746,0.3652802-3.4311752,0.8400192  c4.0594101-0.9011497,9.0100327,2.4333649,10.2309875,4.5099983c-1.4782181-0.727726-2.3282089-1.2991295-3.687027-1.3901024  c6.4316711,2.983448,7.4806519,9.5785751,4.3650055,16.3485184c-2.0979309-5.4225044-0.1421356-7.8700829-4.02388-13.3409195  c1.7781219,5.4225044,0.9395218,7.0911903,0.879837,8.0449219c-2.237236-4.5511971-5.162384-8.5694084-8.1373138-10.4882507  c1.2536316,1.3062363,3.8476257,4.6180153,3.9257965,6.6889343c-1.2820587-0.8826637-3.8803253-2.4575462-5.3187332-3.2577553  c-4.6464424-2.5755005-3.1113739-3.3131943-7.1153412-6.0720596c1.6075554,1.7653236,3.2975616,3.6998253,3.8533096,6.3620224  l0.4178848,0.6950531c-1.1754532-0.840023-1.7283707-1.1484756-2.8668785-1.6743774  c3.0317802,3.0673141,4.1077461,6.2625237,5.766468,11.228775c-1.0489807-1.2835045-1.7226868-1.4938469-2.6480179-1.8022995  c2.8342056,3.2222214,2.7531738,7.3385124,2.7475128,10.9473343c-0.6865311-1.5805473-0.9181976-2.4788666-1.562088-3.7964592  c1.0418701,7.8317184-6.3421135,12.9202042-8.7101288,14.5504913c3.7396011-5.8887177,4.0565796-8.0790329,4.2470474-11.0596275  c-0.7703705,2.1377373-1.4441032,3.0232353-2.2216034,3.5605202c1.1513023-4.2868309,1.1242943-10.0035744,0.9338226-13.3793144  c-0.3624458,1.9771118-1.2266464,4.0295677-2.8043594,5.3770332c0.0625458-6.9973869-0.1236496-13.3608246-2.57267-19.4186668  c-0.3809357-0.0511627-0.7590141-0.0881119-1.1328163-0.1122932c-0.5358429,0.6893616-1.0546417,1.4156761-1.5450134,2.1789627  l-0.0966644-0.3169746c-0.0568542,15.9974518,2.8484192,36.0856056,9.2246552,52.5904732l-6.3961372,1.129982  c-6.2141953-20.8826675-7.4380112-40.7163887-4.7416649-55.5568466l0.0042725-0.0113831L50.8649101,38.9638138z"/></svg>