<svg fill="#882211" xmlns="http://www.w3.org/2000/svg" xmlns:xlink="http://www.w3.org/1999/xlink" version="1.1" x="0px" y="0px" viewBox="7 7 86 86" enable-background="new 0 0 100 100" xml:space="preserve"><g><polygon points="20.525,15.575 19.226,14.37 20.525,15.575  "/><polygon points="22.036,16.979 20.738,15.773 22.037,16.979  "/><polygon points="72.229,68.678 23.732,23.648 24.693,19.446 23.762,18.581 23.549,18.383 23.548,18.383 22.25,17.177    23.217,18.076 19.013,14.172 19.013,14.171 17.805,13.05 16.411,18.258 11.321,20.034 18.209,26.429 22.328,25.16 70.825,70.19    67.696,73.559 82.765,79.982 75.196,65.482  "/><polygon points="55.092,80.523 18.479,46.527 19.872,42.726 19.196,42.099 19.042,41.955 19.042,41.955 18.645,41.587    17.695,40.704 17.259,40.3 17.473,40.498 17.075,40.129 15.749,38.898 15.749,38.898 14.872,38.084 12.972,42.821 8.388,45.067    13.388,49.71 17.075,48.039 53.688,82.035 51.05,84.876 64.214,90.486 57.602,77.82  "/><polygon points="44.473,19.469 81.087,53.465 78.449,56.306 91.612,61.916 85,49.25 82.491,51.953 45.877,17.957 47.271,14.156    46.595,13.529 46.44,13.385 46.44,13.385 46.197,13.16 45.342,12.366 45.342,12.366 44.841,11.9 43.147,10.328 43.147,10.328    42.271,9.514 40.37,14.251 35.786,16.497 40.786,21.14  "/></g></svg>