<svg xmlns="http://www.w3.org/2000/svg" xmlns:xlink="http://www.w3.org/1999/xlink" version="1.1" x="0px" y="0px" viewBox="0 0 100 100" enable-background="new 0 0 100 100" xml:space="preserve"><circle cx="38.489" cy="56.967" r="2.589"></circle><path d="M34.8,54.548c0.013-0.017,1.342-1.749,3.229-1.901c1.357-0.106,2.824,0.613,4.358,2.148c0.786,0.786,2.061,0.786,2.848,0  c0.787-0.787,0.787-2.062,0-2.849c-2.408-2.408-4.942-3.522-7.529-3.314c-3.721,0.3-5.933,3.229-6.173,3.562  c-0.65,0.901-0.446,2.16,0.456,2.811c0.356,0.258,0.768,0.381,1.176,0.381C33.791,55.385,34.407,55.095,34.8,54.548z"></path><circle cx="61.217" cy="56.967" r="2.59"></circle><path d="M60.434,48.632c-3.721,0.3-5.933,3.229-6.172,3.562c-0.651,0.901-0.447,2.16,0.455,2.811  c0.355,0.258,0.768,0.381,1.176,0.381c0.625,0,1.242-0.29,1.636-0.837c0.013-0.017,1.341-1.749,3.229-1.901  c1.355-0.106,2.822,0.613,4.357,2.148c0.785,0.786,2.062,0.786,2.848,0c0.787-0.787,0.787-2.062,0-2.849  C65.555,49.538,63.021,48.424,60.434,48.632z"></path><path d="M86.492,23.417c-6.316-6.315-14.941-8.743-21.465-6.04c-3.274,1.355-8.566,5.114-9.438,15.183  c-1.85-0.403-3.768-0.622-5.737-0.622s-3.887,0.219-5.737,0.622c-0.871-10.069-6.163-13.827-9.437-15.183  c-6.523-2.703-15.149-0.274-21.465,6.041c-6.315,6.315-8.743,14.941-6.041,21.465c1.399,3.378,5.344,8.913,16.154,9.513  c-0.241,1.446-0.373,2.929-0.373,4.441c0,14.832,12.066,26.899,26.899,26.899s26.899-12.067,26.899-26.899  c0-1.513-0.132-2.995-0.373-4.441c10.808-0.601,14.755-6.135,16.154-9.513C95.234,38.358,92.807,29.732,86.492,23.417z   M10.894,43.341c-2.086-5.037-0.009-11.898,5.168-17.076s12.039-7.254,17.076-5.167c4.201,1.74,6.662,6.205,7.032,12.65  c-0.595,0.23-1.181,0.479-1.754,0.75c-0.396-4.972-2.217-8.344-5.229-9.591c-0.932-0.386-1.976-0.582-3.103-0.582  c-3.523,0-7.676,1.963-10.837,5.125c-4.296,4.296-6.165,10.028-4.545,13.941c1.302,3.143,4.922,4.985,10.257,5.269  c-0.235,0.573-0.449,1.157-0.645,1.749C17.453,50.194,12.703,47.708,10.894,43.341z M26.95,44.75  c-0.167-0.044-0.337-0.076-0.518-0.076c-4.282,0-7.275-1.056-8.008-2.825c-1.078-2.603,1.02-6.9,3.671-9.551  c2.397-2.397,5.533-3.946,7.989-3.946c0.596,0,1.121,0.092,1.562,0.274c1.769,0.733,2.825,3.727,2.825,8.008  c0,0.049,0.011,0.095,0.014,0.143C31.462,38.891,28.891,41.605,26.95,44.75z M49.853,81.708c-12.611,0-22.872-10.26-22.872-22.871  s10.26-22.872,22.872-22.872c12.612,0,22.872,10.26,22.872,22.872S62.465,81.708,49.853,81.708z M72.757,44.75  c-1.941-3.146-4.514-5.859-7.537-7.972c0.004-0.048,0.015-0.094,0.015-0.143c0-4.282,1.057-7.275,2.826-8.008  c0.439-0.182,0.965-0.274,1.561-0.274c2.457,0,5.594,1.549,7.99,3.946c2.65,2.651,4.748,6.948,3.671,9.551  c-0.733,1.769-3.728,2.825-8.009,2.825C73.094,44.674,72.923,44.706,72.757,44.75z M88.812,43.341  c-1.81,4.367-6.56,6.854-13.42,7.067c-0.195-0.592-0.41-1.175-0.646-1.749c5.335-0.283,8.955-2.125,10.257-5.269  c1.62-3.913-0.248-9.645-4.544-13.941c-3.162-3.162-7.313-5.125-10.838-5.125c-1.127,0-2.172,0.195-3.102,0.582  c-3.012,1.247-4.833,4.619-5.229,9.591c-0.573-0.271-1.159-0.519-1.755-0.75c0.371-6.446,2.832-10.91,7.033-12.65  c5.037-2.086,11.898-0.01,17.076,5.167C88.82,31.442,90.898,38.304,88.812,43.341z"></path><path d="M65.555,63.759c-0.219-1.091-1.279-1.796-2.371-1.578l-7.551,1.517c-1.133-2.027-3.298-3.402-5.78-3.402  c-2.41,0-4.517,1.299-5.674,3.229l-7.508-1.743c-1.083-0.252-2.166,0.422-2.417,1.506c-0.251,1.083,0.423,2.166,1.506,2.417  l4.578,1.063l-4.608,0.926c-1.09,0.219-1.797,1.28-1.578,2.37c0.191,0.957,1.032,1.618,1.972,1.618c0.131,0,0.265-0.014,0.398-0.04  l7.552-1.517c1.132,2.028,3.297,3.403,5.779,3.403c2.411,0,4.518-1.3,5.675-3.23l7.507,1.743c0.152,0.036,0.307,0.053,0.457,0.053  c0.916,0,1.744-0.629,1.959-1.559c0.252-1.083-0.422-2.165-1.505-2.417l-4.576-1.063l4.606-0.925  C65.066,65.911,65.773,64.849,65.555,63.759z M49.853,69.5c-1.428,0-2.589-1.161-2.589-2.589s1.161-2.589,2.589-2.589  c1.428,0,2.588,1.161,2.588,2.589S51.281,69.5,49.853,69.5z"></path></svg>