<svg fill="#C82606" xmlns="http://www.w3.org/2000/svg" version="1.0" viewBox="0 0 4096.000000 4096.000000" preserveAspectRatio="xMidYMid meet" x="0px" y="0px"><metadata>
Created by potrace 1.14, written by Peter Selinger 2001-2017
</metadata><g transform="translate(0.000000,4096.000000) scale(0.100000,-0.100000)" fill="#C82606" stroke="none"><path d="M17439 27290 c-80 -14 -135 -54 -175 -130 -25 -47 -22 -144 10 -331 74 -434 227 -840 453 -1203 462 -743 1248 -1299 2098 -1484 265 -58 599 -89 840 -77 159 8 221 25 281 78 63 55 80 95 104 243 38 237 89 420 185 664 235 596 691 1289 1192 1811 79 83 88 109 48 135 -22 14 -54 16 -252 12 -316 -6 -332 -13 -524 -224 -318 -351 -588 -741 -824 -1189 -68 -128 -89 -155 -125 -155 -42 0 -64 24 -126 137 -74 135 -231 371 -319 481 -560 693 -1413 1150 -2300 1232 -126 11 -497 11 -566 0z"></path><path d="M16807 24315 c-414 -52 -784 -208 -1107 -465 -106 -85 -286 -269 -367 -376 -104 -137 -221 -342 -293 -514 -15 -36 -63 -148 -107 -250 -313 -724 -492 -1493 -544 -2325 -15 -238 -6 -821 15 -1035 80 -801 259 -1490 571 -2195 538 -1217 1456 -2293 2582 -3028 428 -280 490 -315 646 -371 225 -82 389 -111 627 -110 150 0 206 4 296 22 179 36 327 87 439 152 221 128 536 227 794 251 320 29 727 -69 1036 -251 208 -121 524 -190 820 -177 321 14 630 117 910 301 61 40 183 121 273 179 696 455 1306 1030 1807 1702 713 955 1162 2062 1319 3245 43 322 50 457 51 900 0 442 -5 541 -46 880 -93 780 -328 1556 -682 2250 -137 268 -244 416 -443 611 -241 235 -509 398 -827 504 -405 135 -827 150 -1227 44 -161 -43 -277 -88 -490 -191 -362 -175 -626 -264 -1085 -366 -589 -132 -1131 -184 -1590 -153 -511 34 -1074 138 -1505 277 -204 65 -313 110 -528 218 -309 154 -474 212 -727 257 -156 27 -463 34 -618 14z m-64 -1668 c75 -34 152 -108 191 -182 29 -56 31 -67 31 -160 -1 -95 -3 -105 -44 -205 -59 -143 -143 -392 -196 -585 -165 -603 -234 -1185 -213 -1795 33 -952 357 -1852 926 -2570 111 -140 181 -219 330 -372 159 -165 193 -223 200 -349 11 -186 -92 -342 -254 -384 -124 -32 -248 -8 -345 68 -66 53 -288 289 -420 448 -675 810 -1052 1725 -1166 2829 -21 210 -24 836 -5 1045 61 657 186 1237 389 1800 77 214 101 262 156 322 108 118 279 155 420 90z"></path></g></svg>