<svg fill="#CC3333" xmlns="http://www.w3.org/2000/svg" xmlns:xlink="http://www.w3.org/1999/xlink" version="1.1" x="0px" y="0px" viewBox="0 0 100 100" enable-background="new 0 0 100 100" xml:space="preserve"><path fill-rule="evenodd" clip-rule="evenodd" fill="#CC3333" d="M51.455,53.441c0-0.893,0.723-1.615,1.613-1.615  c2.873,0,4.268,3.789,4.893,6.357c1.57,6.469,5.443,11.391,13.123,11.391c7.672,0,11.051-4.719,12.811-9.576  c2.516-6.93,7.613-8.854,10.365-10.325c-2.752-1.473-7.85-3.396-10.365-10.325c-1.76-4.857-5.139-9.576-12.811-9.576  C69,40.776,57.961,41.162,57.961,41.162c-0.625,2.57-2.02,6.358-4.893,6.358c-0.891,0-1.613-0.724-1.613-1.616  c0-2.872,3.787-4.266,6.357-4.89c6.467-1.57,11.391-5.444,11.391-13.124c0-7.672-4.719-11.05-9.576-12.812  c-6.93-2.514-8.854-7.612-10.326-10.363c-1.472,2.751-3.395,7.85-10.325,10.363C34.118,16.84,29.4,20.218,29.4,27.89  c11.43,2.693,11.391,13.124,11.391,13.124c2.569,0.624,6.357,2.018,6.357,4.89c0,0.893-0.723,1.616-1.615,1.616  c-2.873,0-4.267-3.788-4.891-6.358c-1.57-6.468-5.443-11.39-13.124-11.39c-7.672,0-11.05,4.719-12.812,9.576  c-2.513,6.93-7.611,8.853-10.363,10.325c2.752,1.471,7.851,3.395,10.363,10.325c1.762,4.857,5.14,9.576,12.812,9.576  c3.752-11.705,13.124-11.391,13.124-11.391c0.624-2.568,2.018-6.357,4.891-6.357c0.893,0,1.615,0.723,1.615,1.615  c0,2.871-3.788,4.266-6.357,4.891C34.323,59.902,29.4,63.775,29.4,71.455c0,7.674,4.719,11.051,9.576,12.812  c6.931,2.514,8.854,7.611,10.325,10.363c1.472-2.752,3.396-7.85,10.326-10.363c4.857-1.762,9.576-5.139,9.576-12.812  C57.89,67.871,57.812,58.332,57.812,58.332C55.242,57.707,51.455,56.312,51.455,53.441z"></path></svg>