<svg xmlns="http://www.w3.org/2000/svg" xmlns:xlink="http://www.w3.org/1999/xlink" version="1.1" x="0px" y="0px" viewBox="5 5 70 70" enable-background="new 0 0 80 80" xml:space="preserve"><g><path fill="#990000" d="M32,56H12c-2.4,0-5-2.1-5-5c0-1.8,3-3.6,3.6-3.9l7.5-2.9c0.4-0.1,0.6-0.1,0.6-0.6c-0.8-1-3.4-4.3-3.4-7.1   c0-4.6,3.1-8.3,7-8.3c3.8,0,7,3.7,7,8.3c0,2.9-2.7,6.2-3.5,7.2c0,0.6,0,0.6,0.4,0.7l7.5,2.9l0.4,0.3c1.7,1.2,3,2.3,3,3.5l0,0.2   C36.7,52.8,35.3,56,32,56z M18.6,46.1l-7.3,2.9C10.5,49.3,9.1,50.6,9,51c0,1.6,1.7,3,3,3h20c2.1,0,2.8-2.4,3-3   c-0.2-0.4-1.6-1.4-2.1-1.8l-0.3-0.2l-7.1-2.7c-1.7-0.6-1.8-1.8-1.7-3.1l0-0.3l0.2-0.2c0.9-1,3.2-4,3.2-6.1c0-3.4-2.3-6.3-5-6.3   c-2.7,0-5,2.9-5,6.3c0,2.1,2.2,5.1,3.1,6.1l0.2,0.3l0,0.3C20.7,44.7,20.1,45.7,18.6,46.1z"/></g><g><path fill="#888888" d="M72,48l-7.2-2.8c-1-0.3-1.2-0.9-1-2.1c0,0,3.5-3.9,3.5-6.8c0-4-2.7-7.3-6-7.3c-3.3,0-6,3.4-6,7.3   c0,3,3.3,6.8,3.3,6.8c0.1,1.2-0.3,1.7-1.3,2L50,48c-1,0.4-3,2-3,3l0,0c0,2.2,2.1,4,4,4h20c3.3,0,4-4,4-4C75,50.1,73,48.8,72,48z"/></g><g><g><rect x="35" y="39" fill="#000000" width="14" height="2"/></g><g><polygon fill="#000000" points="38.3,44.7 33.6,40 38.3,35.3 39.7,36.7 36.4,40 39.7,43.3   "/></g></g></svg>