<svg fill="#654321" xmlns="http://www.w3.org/2000/svg" xmlns:xlink="http://www.w3.org/1999/xlink" version="1.1" x="0px" y="0px" viewBox="0 0 100 100" style="enable-background:new 0 0 100 100;" xml:space="preserve"><g><g><path d="M38.9,10.3c1-1.6,1.6-3.4,1.7-5.3c6.3,0,12.5,0,18.8,0c0.2,2.3,1,4.6,2.5,6.4c1.1,1.3,2.6,2.1,4.3,2.3    c2.3,0.3,4.7-0.3,6.8-1.1c2.1-0.8,4.1-2,6-3.1c2.9,4.2,5.9,8.3,8.8,12.5c-1.9,1.2-3.6,2.7-5.1,4.4c-2.9,3.3-5.2,7.2-6.6,11.4    c-1.6,4.9-2.1,10.1-1.6,15.3c0.4,4.3,1.7,8.7,4.2,12.3c1.8,2.6,4.1,4.9,6.9,6.4c0.8,0.4,1.6,0.7,2.4,1c-2.9,4.4-5.9,8.8-8.8,13.2    c-2.4-1-5-1.4-7.5-1.4c-4,0-8,1.2-11.3,3.4c-2.7,1.8-5,4.3-6.9,7c-2.3,0-4.6,0.1-6.8,0c-2.3-3.3-5.2-6.3-8.8-8.1    c-4.6-2.4-10.2-2.9-15.1-1.5c-0.6,0.2-1.2,0.4-1.8,0.6c-2.9-4.4-5.9-8.8-8.8-13.2c3.4-1.1,6.2-3.4,8.4-6.2c2.9-3.7,4.5-8.4,5-13.1    c0.6-5.4,0-11-1.8-16.2c-1.4-3.9-3.5-7.5-6.2-10.6c-1.5-1.7-3.2-3.3-5.2-4.5C15.1,18,18,13.7,21,9.4c2.1,1.3,4.3,2.6,6.7,3.4    c2.2,0.8,4.7,1.3,7,0.7C36.4,13.1,37.9,11.8,38.9,10.3z M42.2,9.1c0.6-0.5,1.1-1,1.5-1.7c-0.3,0-0.7,0-1,0    C42.6,8,42.4,8.6,42.2,9.1z M44.8,7.5c-0.7,1.5-2.1,2.4-3.4,3.3c0.2,0.7,0.3,1.3,0.6,1.9c0.7,1.2,1.5,2.4,2.6,3.3    c1.4-0.6,2.7-1.1,3.9-2c0.7-0.5,1.4-1.1,1.8-1.9c0.4-0.8,0.5-1.6,0.5-2.5c-0.7,0.1-1.4,0.3-2.1,0.5c-0.8-0.9-1.7-1.7-2.4-2.7    C45.9,7.5,45.3,7.5,44.8,7.5z M47.7,7.5C48.1,8,48.5,8.6,49.1,9c0.2,0.2,0.6,0.1,0.9,0c1.1-0.4,2.2-0.9,3.2-1.6    C51.3,7.5,49.5,7.5,47.7,7.5z M52.8,8.8c0.5,2.1,1.7,3.9,3.4,5.2c1.1-0.5,2.3-1,3.4-1.7c-1.1-1.4-1.8-3.1-2.2-4.9    c-0.9,0-1.8,0-2.7,0C54,7.9,53.4,8.3,52.8,8.8z M51.1,12.7c-0.7,1.2-1.9,2-3,2.8c0,0.2,0.1,0.4,0.2,0.6c0.4,1.9,1.7,3.5,3.2,4.6    c1.6-0.7,3.2-1.3,4.5-2.5c0.9-0.7,1.5-1.8,1.6-2.9c0-0.2,0.2-0.7-0.2-0.8c-0.6,0-1.3,0.2-1.9,0.3c-1.1-1.1-2.2-2.2-2.9-3.5    c-0.1-0.2-0.3-0.4-0.5-0.6C51.7,11.3,51.6,12.1,51.1,12.7z M40.6,12.7c-0.3,0.5-0.3,1.1-0.6,1.6c-0.7,1.4-2,2.3-3.3,3.1    c0.1,0.6,0.2,1.2,0.5,1.8c0.7,1.3,1.6,2.6,2.7,3.5c1.3-0.6,2.6-1.1,3.7-1.9c0.8-0.6,1.6-1.2,2.1-2.1c0.4-0.7,0.4-1.5,0.5-2.2    c-0.7,0-1.4,0.2-2.2,0.3c-1-1-2-2-2.7-3.3C41.1,13.2,41,12.8,40.6,12.7z M19.1,16.6c0.5,1.1,1.3,2.1,2.2,3c0.3,0.3,0.7,0.4,1,0.3    c1.4-0.5,2.9-1.2,4.1-2.2c0.7-0.6,1.3-1.2,1.5-2.1c-2.2-0.7-4.2-1.6-6.2-2.8C20.8,14,20,15.3,19.1,16.6z M72.9,15.3    c0.4,0.4,0.7,0.8,1.1,1.1c0.3,0.2,0.7,0,1.1-0.1c1.4-0.6,2.8-1.4,4.1-2.4c-0.3-0.4-0.5-0.8-0.8-1.2C76.6,13.7,74.8,14.6,72.9,15.3    z M59.6,13.5c0.1,0.6,0.2,1.3,0.5,1.8c0.6,1.3,1.5,2.5,2.7,3.4c1.5-0.7,3.1-1.4,4.4-2.4c-2.7,0-5.4-1.2-7.1-3.2    C60,13.2,59.8,13.3,59.6,13.5z M31.6,16.2c0.5,0.6,1,1.3,1.7,1.8c1.6-0.7,3.2-1.3,4.5-2.4c0.6-0.5,1.1-1.2,1.5-1.9    C37.2,15.6,34.3,16.5,31.6,16.2z M77.7,16.1c0.2,0.6,0.3,1.3,0.6,1.9c0.6,1.3,1.6,2.4,2.7,3.3c0.9-0.4,1.7-0.7,2.6-1.1    c-1.3-1.9-2.6-3.7-3.9-5.6C79,15.2,78.4,15.6,77.7,16.1z M57.9,17.4c-0.7,1.2-1.9,1.9-3,2.7c0.1,0.6,0.2,1.3,0.5,1.8    c0.5,1.2,1.4,2.2,2.4,3.1c0.4,0.3,0.9,0.1,1.2-0.1c1-0.5,2.1-1,3-1.6s1.8-1.5,2.1-2.6c0.1-0.5,0.4-1,0.1-1.5    c-0.6-0.3-1.3,0.4-1.9,0.1c-0.4-0.2-0.7-0.5-1-0.9c-0.8-0.8-1.5-1.7-2.1-2.7c-0.1-0.2-0.3-0.4-0.4-0.5    C58.4,16,58.3,16.8,57.9,17.4z M68.7,16.2c-0.5,0.6-1.1,0.9-1.6,1.4c-0.3,0.2-0.6,0.5-0.7,0.8c0,0.5,0.2,0.9,0.4,1.3    c0.7,1.4,1.6,2.6,2.9,3.6c1.8-0.7,3.8-1.5,5.1-3.1c0.8-0.8,1-1.9,1.1-3c0-0.3-0.3-0.2-0.5-0.2c-0.5,0.1-1.1,0.3-1.6,0.4    c-0.6-0.6-1.3-1.2-1.9-1.9C70.8,15.9,69.7,16.1,68.7,16.2z M28.8,15.8c-0.3,0.9-1,1.7-1.8,2.4c-0.5,0.4-1.1,0.8-1.5,1.4    c-0.3,0.3-0.1,0.7,0,1.1c0.5,1.3,1.4,2.5,2.4,3.5c0.2,0.2,0.4,0.4,0.7,0.4c0.6,0,1.1-0.3,1.6-0.5c1-0.5,1.9-1,2.8-1.7    c1.2-0.9,1.8-2.4,1.8-3.9c-0.7,0-1.5,0.6-2.3,0.2c-0.9-0.7-1.7-1.6-2.3-2.5C29.8,16,29.3,15.9,28.8,15.8z M46.5,19.3    c-0.7,1.2-1.9,2.1-3.1,2.9c0.3,1,0.5,2.1,1.2,3c0.5,0.7,1.1,1.3,1.7,1.8c0.2,0.1,0.4,0.4,0.7,0.3c0.6-0.2,1.2-0.5,1.7-0.7    c1.1-0.6,2.3-1.2,3.1-2.2c0.7-0.7,1-1.7,1.1-2.6c0-0.2-0.1-0.5-0.3-0.4c-0.6,0-1.3,0.2-1.9,0.3c-0.7-0.8-1.5-1.5-2.2-2.4    c-0.4-0.6-0.7-1.2-1.2-1.7C47,17.9,46.9,18.7,46.5,19.3z M15.6,21.6c1.5,1.2,2.8,2.5,4,4c0.9-0.5,1.8-1.1,2.6-1.8    c1-0.8,1.1-2.2,1.2-3.4c-0.7,0.2-1.4,0.4-2.1,0.6c-1.1-1-2.1-2.2-3-3.4C17.5,18.9,16.6,20.3,15.6,21.6z M76.6,18.6    c-0.2,1.2-1,2.2-1.9,3c-0.6,0.5-1.2,0.9-1.6,1.5c-0.1,0.5,0.1,1,0.3,1.5c0.6,1.2,1.4,2.3,2.4,3.1c0.2,0.2,0.5,0.3,0.7,0.2    c0.9-0.3,1.7-0.7,2.6-1.1c0.3-0.1,0.4-0.4,0.6-0.7c0.8-1,1.7-1.9,2.5-2.9c0.2-0.5,0.2-1,0.2-1.5c-0.6,0-1.2,0.3-1.8,0.3    c-0.4,0-0.7-0.3-1-0.6c-0.7-0.7-1.3-1.6-1.9-2.4c-0.3-0.4-0.5-0.8-0.8-1.1C76.7,18.1,76.6,18.3,76.6,18.6z M35.7,20.1    c-0.2,0.9-0.8,1.6-1.4,2.3c-0.6,0.7-1.4,1.2-2.2,1.8c0.2,0.7,0.3,1.5,0.7,2.2c0.6,1.2,1.5,2.2,2.5,3.1c1.3-0.6,2.6-1.1,3.8-1.9    c0.8-0.5,1.5-1.2,1.9-2s0.5-1.6,0.5-2.5c-0.6,0.2-1.1,0.4-1.7,0.5c-0.4,0.1-0.8-0.3-1.1-0.5c-0.8-0.7-1.5-1.6-2.1-2.5    c-0.3-0.4-0.4-0.8-0.6-1.2C35.9,19.4,35.7,19.8,35.7,20.1z M64.8,21.7c-0.7,1.4-2.1,2.3-3.3,3.2c0.4,1.8,1.4,3.3,2.7,4.6    c0.3,0.2,0.6,0.5,1,0.3c1.5-0.5,2.9-1.2,4.2-2.2c0.6-0.5,1.2-1,1.4-1.8c0.2-0.7,0.3-1.4,0.3-2.1c-0.6,0.2-1.2,0.5-1.9,0.5    c-0.3-0.1-0.5-0.3-0.7-0.5c-0.7-0.6-1.3-1.3-1.9-2.1c-0.4-0.5-0.6-1.1-1-1.6C65.1,20.5,65.1,21.1,64.8,21.7z M23.9,23    c-0.4,0.8-1,1.5-1.7,2c-0.5,0.4-1,0.7-1.4,1.2c-0.2,0.3-0.1,0.7,0.1,0.9c0.9,1.2,1.8,2.5,2.5,3.8c0.2,0.4,0.7,0.4,1.1,0.3    c1.2-0.5,2.4-1,3.4-1.8c0.7-0.5,1.4-1.1,1.8-1.9c0.3-0.7,0.4-1.6,0.4-2.4c-0.7,0.2-1.4,0.4-2.1,0.5c-0.6-0.6-1.3-1.2-1.8-1.9    c-0.6-0.7-1.1-1.6-1.7-2.3C24.2,21.9,24.2,22.5,23.9,23z M53.3,23.8c-0.6,1.1-1.6,1.9-2.6,2.6c-0.3,0.2-0.6,0.5-0.5,0.8    c0.2,1.3,1,2.4,1.8,3.5c0.4,0.5,0.9,1.1,1.5,1.2c1.3-0.4,2.5-1,3.6-1.7c1.2-0.8,2.3-2,2.4-3.5c0-0.3,0.2-0.7-0.1-0.9    c-0.7,0-1.3,0.2-2,0.3c-1-1-2-2-2.7-3.2c-0.2-0.3-0.4-0.6-0.6-0.9C53.8,22.6,53.7,23.3,53.3,23.8z M42.1,25.4    c-0.6,1.2-1.5,2.2-2.6,2.9c-0.3,0.2-0.7,0.4-0.7,0.8c0.1,1.5,1,2.8,2,3.9c0.3,0.3,0.7,0.7,1.1,0.9c0.6,0.1,1.1-0.2,1.6-0.4    c1.5-0.7,3-1.6,4-3c0.6-0.8,0.7-1.8,0.7-2.7c-0.6,0.1-1.3,0.5-1.9,0.4c-0.6-0.2-1-0.7-1.4-1.1c-0.8-0.9-1.6-1.9-2.1-3    C42.3,24.2,42.4,24.9,42.1,25.4z M72.1,24.6c-0.2,0.5-0.2,1-0.4,1.4c-0.5,1.1-1.3,2-2.3,2.7c-0.4,0.3-0.8,0.6-1,1.1    c-0.1,0.5,0.2,1,0.4,1.4c0.5,1,1.2,1.9,1.9,2.7c0.3,0.4,0.8,0.8,1.3,0.6c1.3-0.4,2.5-1,3.5-1.9c0.7-1.3,1.3-2.5,2.1-3.7    c0.1-0.2,0.1-0.4,0.1-0.6c-0.4,0.1-0.8,0.3-1.2,0.5c-0.2,0.1-0.6,0.2-0.8,0c-0.4-0.3-0.8-0.7-1.1-1c-0.7-0.8-1.4-1.5-1.9-2.4    C72.6,25.1,72.4,24.8,72.1,24.6z M31.1,26.2c-0.2,0.3-0.2,0.7-0.3,1c-0.3,0.9-0.9,1.6-1.6,2.2C28.7,30,28,30.3,27.5,31    c-0.1,0.2-0.1,0.4,0,0.6c0.2,0.8,0.6,1.5,1,2.2c0.5,0.7,1.1,1.4,1.8,2c0.3,0.2,0.7,0.1,1,0c1.4-0.5,2.8-1.2,3.9-2.2    c0.6-0.6,1.2-1.2,1.4-2c0.1-0.5,0.3-1.1,0.2-1.7c-0.7,0-1.2,0.4-1.9,0.3c-0.5-0.1-0.9-0.6-1.2-0.9c-0.8-0.9-1.6-1.9-2.2-2.9    C31.5,26.2,31.3,26,31.1,26.2z M60.9,26.6c-0.4,0.5-0.4,1.2-0.7,1.8c-0.6,1.1-1.6,1.9-2.6,2.7c-0.3,0.3-0.8,0.6-0.6,1.1    c0.2,0.9,0.7,1.8,1.2,2.6c0.5,0.6,1,1.3,1.6,1.7s1.4,0,2-0.3c1.6-0.8,3.4-1.7,4.2-3.4c0.2-0.7,0.5-1.4,0.3-2.1    c-0.6-0.1-1.2,0.6-1.8,0.3c-0.6-0.3-1-0.8-1.4-1.2C62.2,28.7,61.4,27.7,60.9,26.6z M48.7,30.5c-0.6,1.1-1.6,1.9-2.6,2.7    c-0.3,0.2-0.6,0.4-0.6,0.8c0,0.8,0.4,1.5,0.8,2.2c0.5,0.8,1.1,1.5,1.7,2.1c0.3,0.2,0.7,0.5,1.1,0.3c1-0.3,2-0.9,2.9-1.4    c1.1-0.7,2.2-1.6,2.5-2.9c0.1-0.5,0.4-1.1,0.2-1.6c-0.5-0.1-0.9,0.2-1.3,0.3c-0.5,0.1-0.9-0.2-1.3-0.5c-0.7-0.6-1.3-1.3-1.9-2.1    c-0.4-0.5-0.6-1.1-1-1.6C49.1,29.2,49,29.9,48.7,30.5z M37.7,31.2c-0.2,1.3-1.2,2.4-2.2,3.3c-0.4,0.4-1,0.5-1.3,1    c-0.1,0.9,0.3,1.7,0.8,2.5s1,1.6,1.8,2.2c0.3,0.2,0.6,0.5,1,0.3c0.7-0.2,1.4-0.6,2.1-0.9c1.3-0.7,2.5-1.5,3.2-2.8    c0.4-0.7,0.4-1.5,0.5-2.3c-0.7,0-1.4,0.3-2.1,0.4c-1-1-2.1-2.1-2.8-3.3c-0.2-0.3-0.4-0.6-0.7-0.9C37.9,30.9,37.8,31,37.7,31.2z     M67.5,31.3c-0.3,0.6-0.4,1.3-0.7,1.9c-0.5,1-1.4,1.7-2.3,2.3c-0.4,0.3-1,0.7-0.8,1.3c0.4,1.9,1.8,3.3,3.1,4.6    c1.2-0.5,2.4-1,3.5-1.7c0.7-0.5,1.4-0.9,1.9-1.5c0.5-0.7,0.7-1.6,0.8-2.4c0-0.2,0-0.5-0.2-0.6c-0.6,0-1.1,0.3-1.7,0.5    c-0.9-0.8-1.7-1.6-2.4-2.6C68.3,32.6,68,31.8,67.5,31.3z M24.1,32.2c0.3,0.6,0.6,1.3,0.9,1.9c0.3-0.7,0.5-1.5,0.2-2.3    C24.9,31.9,24.5,32.1,24.1,32.2z M26.5,32.7c-0.1,0.3-0.2,0.6-0.3,0.9c-0.1,0.6-0.4,1.1-0.8,1.5c0.9,2.3,1.6,4.6,2,7    c1.3-0.6,2.5-1.3,3.5-2.3c0.8-0.9,1.2-2.2,1.1-3.4c-0.5,0.1-1,0.4-1.4,0.6c-0.5,0.2-0.8-0.2-1.1-0.5c-1-1-1.9-2-2.6-3.2    C26.9,33.1,26.7,32.9,26.5,32.7z M55.4,35.1c-0.7,1.4-2.1,2.2-3.3,3.1c0.4,2.1,1.7,3.9,3.3,5.2c1.4-0.5,2.7-1.1,3.9-2    c0.8-0.6,1.7-1.4,2.1-2.4c0.2-0.6,0.3-1.3,0.3-1.9c-0.5,0.2-1,0.4-1.6,0.5c-0.2,0-0.5-0.1-0.6-0.2c-0.8-0.6-1.4-1.3-1.9-2    c-0.5-0.6-1-1.3-1.3-2C55.7,33.7,55.8,34.5,55.4,35.1z M44.4,36.1c-0.2,1-0.9,1.9-1.6,2.6c-0.6,0.6-1.3,1-2,1.4    c0,0.2,0.1,0.3,0.1,0.5c0.4,1.9,1.6,3.6,3.1,4.7c1.7-0.6,3.4-1.4,4.8-2.5c1.2-0.9,1.5-2.4,1.5-3.8c-0.6,0.2-1.2,0.5-1.8,0.6    c-0.3-0.1-0.6-0.4-0.8-0.6c-0.8-0.7-1.5-1.5-2.1-2.4c-0.3-0.4-0.5-1-0.9-1.2C44.5,35.7,44.5,35.9,44.4,36.1z M32.8,38.8    c-0.5,0.9-1.1,1.7-1.8,2.4c-0.5,0.4-1.1,0.7-1.4,1.2c-0.1,0.5,0.1,0.9,0.2,1.3c0.6,1.5,1.7,2.8,3,3.8c1.8-0.8,3.6-1.6,5-3    c0.8-0.8,1.2-2.1,1.2-3.2c-0.7,0-1.3,0.3-1.9,0.5c-1.3-1.2-2.5-2.5-3.4-4.1c-0.1-0.1-0.2-0.2-0.3-0.3C33,37.8,33,38.3,32.8,38.8z     M73.7,37.5c-0.6,1.1-1.5,2.1-2.6,2.8c-0.4,0.3-0.9,0.6-0.7,1.1c0.2,1.2,0.9,2.3,1.8,3.3C72.4,42.3,72.9,39.8,73.7,37.5z M62.4,39    c-0.5,1.8-2.1,3-3.6,3.9c0.2,0.7,0.4,1.5,0.8,2.2c0.7,1.2,1.5,2.3,2.6,3.1c1.8-0.9,3.8-1.6,5.1-3.1c0.7-0.8,1-1.8,1-2.8    c0-0.2-0.1-0.5-0.3-0.4c-0.6,0.1-1.2,0.6-1.7,0.2c-0.9-0.6-1.5-1.4-2.1-2.2c-0.5-0.6-1-1.2-1.2-1.9C62.6,38.2,62.6,38.7,62.4,39z     M50.5,42.1c-0.7,1.2-2,2-3.1,2.8c0.3,0.9,0.5,1.8,0.9,2.6c0.6,1,1.4,1.8,2.3,2.6c1.7-0.6,3.4-1.5,4.8-2.7c1-0.9,1.6-2.2,1.4-3.5    c-0.6,0-1,0.3-1.6,0.3c-0.4,0-0.7-0.2-1-0.5c-0.8-0.7-1.4-1.5-2-2.3c-0.2-0.4-0.4-1-0.8-1.4C51,40.7,51,41.5,50.5,42.1z     M40.1,42.1c-0.2,0.3-0.4,0.7-0.5,1.1c-0.5,1.3-1.5,2.4-2.7,3.2c-0.2,0.2-0.6,0.3-0.6,0.7c0,0.8,0.2,1.7,0.7,2.4    c0.5,0.8,1.1,1.5,1.8,2.2c0.2,0.2,0.6,0.5,0.9,0.4c0.6-0.2,1.3-0.5,1.9-0.8c1.3-0.7,2.6-1.5,3.4-2.7c0.5-0.8,0.6-1.7,0.7-2.6    c-0.7,0.2-1.4,0.3-2.1,0.5c-1-1-2-1.9-2.7-3.1C40.6,42.8,40.4,42.5,40.1,42.1z M68.9,44.4c-0.7,1.1-1.5,2-2.6,2.7    c-0.4,0.3-0.8,0.7-0.6,1.2c0.4,1.6,1.4,2.9,2.6,4.1c0.3,0.3,0.7,0.5,1.1,0.3c0.9-0.3,1.7-0.8,2.6-1.2c-0.1-1.8-0.1-3.6,0.1-5.4    c-0.9-1-1.8-2-2.4-3.3C69.1,43.1,69.3,43.8,68.9,44.4z M28.5,44.1c-0.2,0.5-0.3,1.1-0.5,1.6c0.2,2.8,0.2,5.6-0.1,8.4    c0.7,0,1.3-0.4,1.9-0.7c1.4-0.7,2.8-1.5,3.7-2.8c0.5-0.8,0.6-1.8,0.7-2.8c-0.7,0.1-1.4,0.7-2.1,0.4c-1.3-1-2.4-2.3-3.2-3.8    C28.8,44.3,28.7,44.1,28.5,44.1z M57.4,46.5c-0.7,1.4-2,2.3-3.3,3.2c0.2,0.6,0.3,1.3,0.7,1.9c0.5,1,1.1,1.9,1.9,2.7    c0.2,0.2,0.5,0.5,0.9,0.5c0.5-0.1,0.9-0.3,1.4-0.5c1.3-0.6,2.7-1.3,3.7-2.4c0.7-0.7,1-1.7,1.1-2.7c0-0.2-0.1-0.5-0.3-0.4    c-0.6,0-1.1,0.3-1.7,0.5c-1-1-2.1-2-2.8-3.3c-0.2-0.4-0.4-0.8-0.7-1.2C57.8,45.2,57.8,45.9,57.4,46.5z M46.4,47.4    c-0.4,1.6-1.6,2.8-2.9,3.7c-0.3,0.2-0.7,0.5-0.6,0.9c0.2,1.5,1.1,2.7,2,3.8c0.4,0.4,0.9,1,1.6,0.8c0.9-0.3,1.6-0.8,2.4-1.2    c1.3-0.7,2.7-1.8,3.1-3.3c0.1-0.5,0.4-1,0.2-1.4c-0.7-0.1-1.4,0.2-2,0.3c-1-1-2-1.9-2.7-3.1c-0.2-0.4-0.4-0.8-0.8-1.1    C46.6,47,46.4,47.2,46.4,47.4z M34.6,50.5c-0.6,1.1-1.5,2-2.6,2.7c-0.3,0.1-0.6,0.4-0.5,0.7c0,0.6,0.2,1.2,0.5,1.8    c0.6,0.9,1.2,1.8,1.9,2.7c0.3,0.3,0.6,0.6,1,0.4c1.8-0.6,3.6-1.5,4.9-2.9c0.8-0.9,1-2.1,1.1-3.2c-0.7,0-1.3,0.4-2,0.5    c-0.7-0.7-1.5-1.4-2.1-2.2c-0.6-0.7-1-1.4-1.5-2.1C35,49.3,34.9,49.9,34.6,50.5z M64.4,50.8c-0.4,0.8-1,1.5-1.7,2.2    c-0.5,0.5-1.2,0.9-1.8,1.3c0.2,0.6,0.3,1.3,0.7,1.9c0.5,1,1.1,1.9,1.9,2.7c0.3,0.3,0.8,0.7,1.3,0.5c1.4-0.5,2.7-1.2,3.8-2.1    c0.9-0.7,1.6-1.8,1.8-2.9c0-0.3,0.2-0.7,0-0.9c-0.5-0.1-1,0.3-1.5,0.3c-0.4,0.1-0.7-0.2-0.9-0.5c-0.8-0.8-1.7-1.7-2.3-2.7    c-0.2-0.4-0.4-0.8-0.8-1C64.5,49.8,64.6,50.4,64.4,50.8z M52.8,53c-0.7,1.5-2,2.5-3.4,3.3c0.1,0.2,0.1,0.4,0.2,0.6    c0.4,1.9,1.7,3.5,3.2,4.6c1.7-0.8,3.6-1.5,5-3c0.7-0.8,1.1-1.8,1.2-2.9c0-0.2-0.1-0.4-0.3-0.4c-0.6,0-1.2,0.2-1.8,0.3    c-1-1-2-1.9-2.7-3.1c-0.2-0.4-0.5-0.7-0.8-1C53,51.9,53.1,52.5,52.8,53z M41.3,55.3c-0.7,1.3-1.9,2.2-3.1,3    c0.1,0.6,0.2,1.2,0.4,1.7c0.6,1.4,1.6,2.6,2.7,3.6c1.4-0.6,2.9-1.2,4.1-2.2c0.9-0.7,1.7-1.5,1.9-2.6c0.1-0.5,0.3-1,0.1-1.5    c-0.7,0-1.3,0.2-2,0.3c-1.1-1.1-2.2-2.2-3-3.5c-0.1-0.2-0.3-0.4-0.5-0.6C41.6,54,41.6,54.7,41.3,55.3z M71.5,54.2    c-0.4,0.7-0.5,1.5-0.9,2.1c-0.7,1.1-1.9,1.9-3,2.7c0.2,0.7,0.3,1.5,0.7,2.1c0.6,1.2,1.5,2.3,2.6,3.1c1.2-0.5,2.3-1,3.4-1.7    c-0.9-2.2-1.6-4.5-2-6.9C72.3,55,71.9,54.6,71.5,54.2z M27.7,55.1c-0.2,1.3-0.5,2.7-0.8,4c0.9-0.6,1.7-1.3,2.2-2.3    c0.3-0.7,0.5-1.4,0.3-2.1C28.8,54.7,28.3,54.9,27.7,55.1z M29.9,57.2c-0.5,1-1.4,1.7-2.2,2.4c-0.3,0.3-0.7,0.6-0.9,1    c0,0.4,0.1,0.8,0.2,1.1c0.5,1.3,1.4,2.5,2.4,3.4c0.3,0.4,0.9,0.3,1.3,0.1c1.7-0.7,3.4-1.6,4.6-3c0.7-0.8,0.7-2,0.9-3.1    c-0.7,0.2-1.4,0.6-2.1,0.4c-0.8-0.5-1.4-1.2-1.9-1.9s-0.9-1.4-1.5-2.1C30.2,56.1,30.2,56.7,29.9,57.2z M59.6,57.5    c-0.7,1.5-2,2.6-3.4,3.5c0,0.2,0.1,0.4,0.1,0.6c0.4,1.9,1.7,3.5,3.3,4.7c1.7-0.7,3.6-1.5,4.9-2.9c0.8-0.8,1.2-1.9,1.2-3    c0-0.2-0.2-0.3-0.3-0.3c-0.6,0-1.2,0.2-1.8,0.3c-0.9-1-1.9-1.9-2.6-3c-0.2-0.4-0.5-0.8-0.8-1.1C59.9,56.6,59.8,57.1,59.6,57.5z     M48.5,58.7c-0.1,1.1-0.9,2-1.6,2.7c-0.6,0.6-1.4,1.1-2.1,1.5c0.2,0.7,0.4,1.5,0.8,2.2c0.5,1,1.2,1.9,2.1,2.7    c0.2,0.1,0.4,0.3,0.6,0.3c0.8-0.2,1.5-0.6,2.2-0.9c1.3-0.7,2.5-1.5,3.3-2.8c0.5-0.7,0.5-1.6,0.6-2.4c-0.6,0-1.1,0.2-1.6,0.3    c-0.4,0.1-0.7-0.2-1-0.5c-0.8-0.7-1.5-1.6-2.1-2.5c-0.3-0.4-0.4-0.9-0.8-1.2C48.6,58.4,48.5,58.5,48.5,58.7z M37.2,60.3    C37.1,60.5,37,60.7,37,61c-0.2,1.1-0.9,1.9-1.7,2.6c-0.6,0.5-1.3,0.9-1.7,1.6c0,0.5,0.1,1,0.3,1.5c0.6,1.4,1.7,2.4,2.7,3.5    c2-0.7,3.9-1.6,5.4-3.2c0.8-0.8,1-2,1-3.1c-0.7,0-1.4,0.6-2.1,0.3c-0.8-0.5-1.4-1.3-2-2C38.2,61.6,37.9,60.8,37.2,60.3z M66,62.8    c-0.7,1.2-1.9,2-3,2.8c0.1,0.5,0.2,1.1,0.4,1.6c0.6,1.5,1.7,2.7,2.9,3.6c1.4-0.6,2.8-1.2,4-2.1c1-0.7,1.8-1.7,2.1-3    c0-0.3,0.3-0.9-0.1-1.1c-0.6-0.1-1.2,0.2-1.9,0.4c-1.1-1.1-2.3-2.3-3.1-3.7c-0.1-0.2-0.3-0.4-0.4-0.6C66.5,61.5,66.4,62.2,66,62.8    z M25.9,62.3c-0.3,0.6-0.4,1.3-0.8,1.9c-0.2,0.4-0.6,0.8-0.8,1.2c-0.6,1-1.2,2-2,2.9c0.6,1.6,1.6,3,3,4c1.3-0.6,2.6-1.1,3.7-1.9    c0.7-0.5,1.4-1,1.9-1.8c0.4-0.8,0.5-1.8,0.6-2.7c-0.7,0.2-1.4,0.4-2.1,0.6c-0.6-0.6-1.3-1.2-1.8-1.9c-0.5-0.6-1-1.3-1.5-2    C26.1,62.5,26,62.3,25.9,62.3z M54.7,64.5c-0.6,1.1-1.4,1.9-2.4,2.6c-0.3,0.2-0.6,0.4-0.7,0.8c0,0.7,0.3,1.3,0.6,1.9    c0.5,0.9,1.1,1.7,1.8,2.5c0.3,0.2,0.5,0.5,0.9,0.6c0.5-0.1,1-0.4,1.5-0.6c1.2-0.6,2.5-1.2,3.4-2.2c0.8-0.8,1.1-1.8,1.2-2.9    c0-0.2-0.1-0.4-0.3-0.3c-0.6,0-1.3,0.2-1.9,0.3c-0.9-1-2-1.9-2.7-3.1c-0.2-0.4-0.4-0.7-0.7-1C55.1,63.4,55,64,54.7,64.5z     M74.4,64.3c0.4,1.6,1.5,3,2.7,4.2c0.3,0.3,0.6,0.3,1,0.2c-1.3-1.6-2.5-3.4-3.3-5.3C74.5,63.6,74.3,64,74.4,64.3z M43.7,65.6    c-0.2,1-0.8,1.8-1.5,2.5c-0.6,0.6-1.4,1.1-2.1,1.7c0.1,0.3,0.1,0.5,0.2,0.8c0.4,1.8,1.6,3.3,3.1,4.5c1-0.4,1.9-0.8,2.8-1.3    c1.1-0.6,2.3-1.4,2.9-2.6c0.4-0.7,0.4-1.6,0.5-2.4c-0.6,0.1-1.3,0.4-1.9,0.4c-0.6-0.3-1.1-0.8-1.6-1.3c-0.7-0.9-1.5-1.7-1.8-2.8    C43.9,65,43.8,65.3,43.7,65.6z M73.5,65.5c-0.3,0.6-0.4,1.3-0.7,1.9c-0.7,1.3-2.1,2.2-3.3,3.1c0.4,1.5,1.3,2.9,2.3,4.1    c0.3,0.3,0.6,0.7,1.1,0.8c0.6-0.1,1-0.3,1.6-0.5c1.4-0.7,2.9-1.5,3.9-2.8c0.5-0.7,0.7-1.5,0.7-2.3c-0.1-0.1-0.3-0.3-0.4-0.4    c-0.6,0.1-1.1,0.3-1.6,0.4c-1.1-1.1-2.3-2.2-3-3.6C73.9,65.9,73.7,65.7,73.5,65.5z M32.5,66.9c-0.3,0.6-0.4,1.3-0.7,1.9    c-0.5,0.8-1.2,1.5-2,2.1c-0.4,0.3-0.8,0.6-1,1c-0.1,0.7,0.3,1.4,0.6,2c0.6,1.2,1.5,2.2,2.6,3c1.9-0.8,3.9-1.6,5.2-3.2    c0.7-0.9,0.9-2,1-3.1c-0.7,0.1-1.4,0.3-2.1,0.5c-0.8-0.8-1.7-1.6-2.3-2.5C33.4,68.1,33.1,67.4,32.5,66.9z M61.5,69.2    c-0.6,1.1-1.5,2-2.6,2.7c-0.3,0.2-0.6,0.4-0.6,0.8c0.2,1.5,1.2,2.8,2.2,4c0.3,0.3,0.7,0.9,1.2,0.7c1-0.3,2-0.8,2.9-1.3    c0.8-0.5,1.5-1,2.1-1.7s0.7-1.5,0.9-2.3c0-0.2,0.1-0.5-0.1-0.7c-0.6-0.1-1.2,0.7-1.8,0.3c-0.8-0.5-1.4-1.2-2-1.9    c-0.6-0.7-1.1-1.5-1.5-2.3C61.8,68,61.8,68.7,61.5,69.2z M20.6,70.4c-0.6,1.5-2,2.4-3.3,3.4c0.1,0.7,0.2,1.4,0.6,2    c0.6,1.1,1.3,2.1,2.4,2.9c0.3,0.3,0.8,0.1,1.1-0.1c1.6-0.7,3.2-1.5,4.3-2.8c0.6-0.7,0.9-1.6,1-2.6c0-0.2-0.1-0.5-0.4-0.4    c-0.6,0.1-1.1,0.3-1.7,0.4c-1.2-1.2-2.4-2.4-3.2-4C21.2,69.6,20.8,69.9,20.6,70.4z M50.2,70.8c-0.7,1.5-2,2.6-3.4,3.5    c0.1,0.7,0.2,1.3,0.5,1.9c0.5,0.9,1.1,1.6,1.7,2.4c0.3,0.4,0.7,0.8,1.2,0.8c0.7-0.1,1.3-0.4,1.9-0.7c1.3-0.7,2.6-1.6,3.5-2.8    c0.6-0.8,0.6-1.7,0.6-2.6c-0.6,0.1-1.1,0.4-1.7,0.4c-0.4,0-0.7-0.3-1-0.5c-0.7-0.7-1.4-1.5-1.9-2.3c-0.3-0.4-0.5-1-1-1.3    C50.4,70,50.4,70.4,50.2,70.8z M80,70.7c-0.2,1.2-1,2.2-1.8,3c-0.6,0.5-1.2,0.9-1.7,1.5c-0.1,0.8,0.4,1.5,0.7,2.1    c0.6,0.9,1.2,1.9,2.1,2.6c0.3,0.2,0.6,0.2,0.9,0.2c1.3-1.9,2.5-3.8,3.8-5.7c-0.9-0.6-1.6-1.5-2.3-2.3C81,71.6,80.5,71.2,80,70.7z     M39.2,71.7c-0.2,0.3-0.1,0.8-0.3,1.1c-0.6,1.2-1.5,2.2-2.6,3c-0.3,0.2-0.7,0.5-0.7,1c0,1.1,0.7,2.1,1.3,2.9    c0.5,0.6,0.9,1.2,1.5,1.6c0.3,0.2,0.7,0,1-0.1c1.6-0.6,3.1-1.4,4.3-2.7c0.8-0.8,1.2-2,1.1-3.2c-0.7-0.2-1.6,0.6-2.3,0    c-1.1-0.9-2-2.1-2.7-3.3C39.7,72,39.5,71.4,39.2,71.7z M68.9,72.2c-0.4,0.5-0.4,1.3-0.8,1.9c-0.6,1.2-1.7,2-2.7,2.8    c-0.3,0.2-0.5,0.7-0.4,1.1c0.5,1.7,1.7,3.1,3,4.4c2-0.5,3.9-1.5,5.3-3c0.8-0.9,1.1-2.1,1-3.3c-0.5,0.2-1,0.5-1.6,0.5    c-0.6-0.1-1-0.6-1.4-1C70.4,74.4,69.5,73.4,68.9,72.2z M27.1,75.5c-0.8,1.3-2,2.1-3.2,3c0.3,1.4,1.1,2.6,1.9,3.7    c1.5-0.2,3.1-0.2,4.6-0.1c0.8-0.5,1.6-1.1,2.2-1.9s0.8-1.9,0.8-2.9c-0.7,0.1-1.3,0.3-2,0.5c-1-1-2-2-2.8-3.2    c-0.2-0.4-0.4-0.8-0.7-1.1C27.6,74.2,27.5,74.9,27.1,75.5z M57.4,74.2c-0.3,0.5-0.4,1.1-0.6,1.6c-0.7,1.4-2,2.4-3.3,3.2    c0.2,0.7,0.3,1.5,0.7,2.1c0.5,1,1.2,1.9,2,2.6c0.3,0.2,0.6,0.5,1,0.4c0.8-0.2,1.6-0.7,2.4-1.1c0.9-0.6,1.9-1.1,2.6-2    c0.5-0.6,0.6-1.3,0.8-2c0.1-0.3,0.1-0.6,0.1-0.9c-0.6-0.1-1.2,0.4-1.8,0.3c-0.4-0.1-0.8-0.5-1.1-0.8c-0.6-0.6-1.2-1.3-1.7-2.1    C58,75.1,57.9,74.5,57.4,74.2z M45.5,77.7c-0.7,1.4-1.9,2.6-3.3,3.4c0.1,0.3,0.1,0.5,0.2,0.8c0.4,1.8,1.6,3.4,3,4.5    c1.8-0.6,3.6-1.5,5-2.9c0.9-0.9,1.2-2.2,1.3-3.4c-0.7,0-1.2,0.4-1.9,0.5c-0.3-0.1-0.4-0.3-0.6-0.5c-0.7-0.6-1.3-1.3-1.8-2    c-0.5-0.6-0.7-1.2-1.3-1.7C45.7,76.7,45.7,77.2,45.5,77.7z M74.8,78.8c-0.5,0.9-1.3,1.6-2.1,2.2c-0.4,0.3-0.8,0.6-1,1.1    c2.2,0,4.4,0.3,6.5,0.9c0.4-0.6,0.8-1.2,1.2-1.7c-1.2-1-2.3-2.2-3.1-3.6c-0.2-0.3-0.4-0.6-0.6-0.8C75.2,77.5,75.1,78.2,74.8,78.8z     M34,79.8c-0.5,1-1.3,1.9-2.3,2.6c2.7,0.4,5.3,1.3,7.7,2.6c0.6-1,0.8-2,0.8-3c-0.5,0-1,0.4-1.5,0.5c-0.4,0.1-0.8-0.2-1.1-0.5    c-1-0.9-1.9-2-2.6-3.1c-0.1-0.2-0.3-0.4-0.5-0.6C34.3,78.7,34.3,79.3,34,79.8z M63.5,80.6c-0.7,1.4-2.1,2.3-3.3,3.2    c0.1,0.4,0.2,0.7,0.3,1.1c2-1.1,4.2-2,6.5-2.4c-0.6-0.5-1.1-1.1-1.6-1.8c-0.5-0.6-0.9-1.2-1.2-1.9C63.8,79.3,63.8,80,63.5,80.6z     M19.2,79c0.7,1.1,1.4,2.2,2.2,3.2c0.4-0.7,0.6-1.5,0.8-2.4c0-0.2-0.2-0.4-0.4-0.4c-0.6,0-1.2,0.2-1.8,0.3    C19.6,79.5,19.4,79.2,19.2,79z M22.9,81.1c-0.2,0.7-0.5,1.4-1,1.9c0.9-0.3,1.9-0.5,2.8-0.6c-0.5-0.7-1.1-1.3-1.3-2.1    C23.1,80.4,23,80.8,22.9,81.1z M52,82.8c-0.5,1-1.4,1.8-2.3,2.4c-0.2,0.2-0.5,0.3-0.6,0.5c-0.2,0.2-0.1,0.6,0,0.8    c0.3,1.4,1.2,2.6,2.1,3.6c0.4,0.4,0.8,0.8,1.4,0.7c0.5-0.1,1.1-0.3,1.5-0.7c1.1-1.2,2.3-2.3,3.6-3.3c0.2-0.1,0.4-0.3,0.4-0.5    c0.1-0.4,0.3-0.9,0.2-1.3c0-0.4-0.5-0.2-0.7-0.1c-0.5,0.1-1.1,0.5-1.5,0.1c-0.9-0.7-1.7-1.6-2.4-2.6c-0.4-0.5-0.6-1.1-0.9-1.5    C52.4,81.5,52.3,82.2,52,82.8z M40.8,84.2c-0.2,0.4-0.4,0.7-0.7,1.1c2.1,1.3,4,2.9,5.6,4.7c0.8-0.9,1.1-2.1,1.2-3.2    c-0.7,0.1-1.3,0.4-2,0.6c-1.2-1-2.2-2.2-3.1-3.6c-0.2-0.3-0.3-0.6-0.6-0.8C41,83.3,41,83.8,40.8,84.2z M47.6,88.8    c-0.2,0.7-0.7,1.3-1.2,1.9c0.5,0.6,1,1.2,1.4,1.8c1.4,0,2.9,0,4.3,0c0.2-0.3,0.5-0.6,0.7-0.9c-0.4,0.1-0.9,0.2-1.3,0.3    c-1-1-2-2-2.7-3.2c-0.2-0.4-0.5-0.7-0.7-1.1C47.9,88,47.7,88.4,47.6,88.8z"></path></g></g></svg>
