<svg fill="#882222" xmlns="http://www.w3.org/2000/svg" xmlns:xlink="http://www.w3.org/1999/xlink" version="1.1" x="0px" y="0px" viewBox="0 0 100 100" style="enable-background:new 0 0 100 100;" xml:space="preserve"><path d="M91.7,29.5c-2.8-3.5-2.8,0.6-2.8,0.6c2.2,4.1-0.4,4.8-0.4,4.8c-2.4,0-3-0.6-3-2.8c0-2.2,3.7-8,5-9.3  c1.3-1.3-0.4-3.9-2.4-3.5c-1.9,0.4-4.1,8.9-4.5,11c-0.4,2.2-1.7,0.9-1.7,0.9c-0.4-6.1-2.6-13.4-3.9-16s-6.3,0-3,3  c3.2,3,3.9,15.1,1.9,18.2c-1.9,3-5.6,0.6-5.6,0.6s0.9-2.2,0.2-6.3c-0.6-4.1-3.7-0.4-3.7-0.4c0.6,3.5-1.1,9.1,0.2,10.2  c1.3,1.1,4.8,1.3,4.8,1.3c0,1.3,3,4.8,4.3,5.6c1.3,0.9,0.7,8.4-0.4,11.5c-0.9,2.4-5.5,2.2-7.4,2c-0.4-8.3-5-15.5-11.7-19.5  c0.1-2.2,0.2-4.9-1.5-5.6c-1.7-0.7-3,1.6-4.4,3C49.5,38.3,47.3,38,45,38c-4,0-7.7,1-11.1,2.7c-1.4-0.6-2.8-1.6-4.3-1  c-1.9,0.6-2.1,3.2-1.2,4.9c-2.8,2.6-5,6-6.3,9.7c-2.8-1.3-8.4-4.8-6.1-11.3c3-8.4,6.7-10,6.7-10s1.3,2.8,3.5,2.8c2.2,0,8.9-1.7,11,0  c0,0,1.3-5.6-8.9-4.5l0.6-8.9c0,0,0-8.7,2.6-8.9c2-0.2,2.3,3.9,2.4,5.9c0,1,1,1.8,1.9,1.5c0,0,0,0,0,0c0.5-0.2,0.9-0.7,0.9-1.3  c0-2.5-0.3-12.3-5.2-11.7c-5.6,0.6-6.9,12.8-6.9,12.8s-4.8-1.3-4.8-4.8c0-2.9,2-4.3,4.4-4.7c1.2-0.2,2.1-1,2.6-2  c0.2-0.5,0.4-1.1,0.6-1.8c0,0-7.6-1.5-9.9,0.9c-2.4,2.4-2.6,9.7-1.5,10.8c0,0-6.1-2.2-4.3-4.3c1.2-1.4,2.3-2.9,3-3.7  c0.4-0.4,0.5-1,0.5-1.5C15,8.5,14.7,6.7,13.2,7C11,7.5,10.4,12.5,7.8,14c-2.6,1.5-0.4,5,0.9,5.4c1.3,0.4,6.3,3.2,6.3,3.2  s-1.9,8.2,2.4,9.5c0,0-6.3,8-5.6,14.3c0.6,6,4.9,10.6,9.3,12.9c-0.1,1-0.2,1.9-0.2,2.9c0,3.8,0.9,7.4,2.5,10.6  c0.2,2.5-0.4,5.2-0.5,7.4c-0.1,2.4-1.5,7.4-0.1,9.3c-2.6,0.2-5.3-0.9-7.9-0.5c-2.7,0.4-5.6,3.5-1.3,4.1c1.3,0.2,3.1-0.5,4.5-0.6  c1.4-0.1,2.7-0.2,4.1-0.2c2.5,0,5.2,0.5,7.5,0.4c0.4-0.1,0.4-1,0-1.2c-1.1-0.4-2.3-1.8-3.5-1.8c-0.2-3.4-0.2-7.5,3.2-8.9  c4.2,3.6,9.7,5.8,15.7,5.8c5.3,0,10.2-1.7,14.2-4.7c1.4-1.1,2.9,0.1,3.5,1.8c0.6,1.8,0.1,4.7,0,6.6c-1.3-0.1-2.4,0.9-3.4,1.7  c-0.7,0.6-0.3,1.7,0.6,1.7c4.7,0.1,9.5,0,14.3-0.1c-0.4-1.5-4-2.3-5.7-2.3c-3.1-0.1-3.9,0-4.1-3.5c-0.1-2.3,0-4.6,0-6.9  c0-1.9,0.9-3.9,1.1-5.8c2-3.2,3.3-6.9,3.6-10.9c2.2-0.1,6.9-0.6,9.6-3.2c3.7-3.5,1.1-13,1.1-13s2.4,0.6,5.4-0.2  c3-0.9,2.4-9.3,2.4-9.3c2.2,1,3.8,0.4,4.5-0.1c0.4-0.3,0.7-0.7,0.8-1.2C93.4,35.7,93.9,32.2,91.7,29.5z M52.4,40.6  c0,0,1.7,3.5-0.2,5.4c-1.9,1.9-6.9,0-6.9,0L52.4,40.6z M46.7,49.4c1,0,1.7,0.8,1.7,1.7c0,1-0.8,1.7-1.7,1.7c-1,0-1.7-0.8-1.7-1.7  C45,50.2,45.8,49.4,46.7,49.4z M42.6,51.6c0,1-0.8,1.7-1.7,1.7c-1,0-1.7-0.8-1.7-1.7c0-1,0.8-1.7,1.7-1.7  C41.9,49.9,42.6,50.6,42.6,51.6z M33.5,43.4l7.8,3.5c0,0-3,3-6.3,1.7C31.8,47.3,33.5,43.4,33.5,43.4z M64.3,61.1  C63.6,69.3,56.5,78,56.5,78l1.1-8.9l-3.5,6.3l-1.3-10l-3,10.6L45,62.2l-5.6,16.2l-5.6-11L31.2,73l-1.1-6.5L26.8,70  c0,0-3-2.6-1.9-7.6c1.1-5,3.5-8,3.5-8l1.1,9.3l3.7-7.6l1.9,5l2.8-5.8l2.6,8.7l3.2-8.2l6.5,6.9l1.7-11l7.1,7.8L59.9,49  C59.9,49,64.9,52.9,64.3,61.1z"/></svg>