<svg xmlns="http://www.w3.org/2000/svg" xmlns:xlink="http://www.w3.org/1999/xlink" version="1.1" x="0px" y="0px" viewBox="0 0 100 100" enable-background="new 0 0 100 100" xml:space="preserve"><path fill="#440022" d="M93.261,59.704c1.286,1.287,2.395,2.686,3.322,4.165c-1.222-3.03-3.059-5.871-5.517-8.326  c-2.54-2.54-5.491-4.415-8.64-5.634c3.097-1.222,6.003-3.08,8.507-5.585c2.458-2.456,4.295-5.296,5.517-8.326  c-0.929,1.479-2.036,2.878-3.323,4.165c-7.736,7.737-19.501,8.984-28.541,3.751c2.651-10.15,11.883-17.643,22.864-17.643  c1.82,0,3.595,0.206,5.296,0.597c-3.008-1.28-6.313-1.987-9.789-1.987c-3.592,0-7.005,0.762-10.092,2.125  c1.325-3.054,2.067-6.422,2.067-9.964c0-3.473-0.708-6.781-1.988-9.788c0.391,1.701,0.597,3.475,0.597,5.295  c0,10.941-7.438,20.144-17.53,22.833c-5.304-9.052-4.072-20.876,3.693-28.642c1.287-1.288,2.686-2.396,4.166-3.324  c-3.031,1.222-5.872,3.062-8.327,5.517c-2.54,2.541-4.414,5.493-5.634,8.641c-1.221-3.098-3.08-6.003-5.583-8.508  c-2.458-2.455-5.298-4.295-8.328-5.516c1.479,0.928,2.878,2.035,4.166,3.322c7.736,7.736,8.983,19.503,3.75,28.543  c-10.15-2.652-17.643-11.885-17.643-22.866c0-1.82,0.206-3.592,0.597-5.295c-1.28,3.007-1.987,6.315-1.987,9.788  c0,3.594,0.762,7.006,2.125,10.094c-3.054-1.327-6.422-2.067-9.964-2.067c-3.473,0-6.781,0.708-9.789,1.987  c1.704-0.391,3.476-0.595,5.296-0.595c10.942,0,20.144,7.436,22.835,17.529c-9.054,5.302-20.879,4.071-28.645-3.694  c-1.287-1.286-2.395-2.685-3.323-4.165c1.222,3.031,3.062,5.87,5.517,8.327c2.541,2.54,5.493,4.413,8.641,5.634  c-3.098,1.222-6.003,3.078-8.508,5.584c-2.455,2.455-4.295,5.296-5.516,8.325c0.928-1.479,2.035-2.878,3.322-4.165  c7.736-7.736,19.503-8.984,28.543-3.75C32.763,66.237,23.53,73.728,12.549,73.728c-1.82,0-3.592-0.206-5.296-0.594  c3.008,1.277,6.316,1.987,9.789,1.987c3.592,0,7.006-0.764,10.094-2.128c-1.327,3.054-2.066,6.423-2.066,9.964  c0,3.476,0.708,6.781,1.986,9.789c-0.389-1.701-0.595-3.473-0.595-5.296c0-10.94,7.436-20.142,17.53-22.833  c5.301,9.055,4.072,20.878-3.695,28.644c-1.286,1.286-2.687,2.395-4.165,3.322c3.03-1.222,5.87-3.059,8.326-5.517  c2.541-2.54,4.416-5.491,5.635-8.64c1.222,3.097,3.078,6.003,5.584,8.507c2.455,2.458,5.296,4.295,8.325,5.517  c-1.479-0.929-2.877-2.036-4.163-3.323c-7.737-7.736-8.985-19.501-3.752-28.541c10.152,2.652,17.642,11.883,17.642,22.864  c0,1.823-0.206,3.595-0.594,5.296c1.277-3.008,1.987-6.313,1.987-9.789c0-3.592-0.764-7.005-2.128-10.092  c3.054,1.328,6.423,2.067,9.964,2.067c3.476,0,6.781-0.708,9.789-1.988c-1.701,0.391-3.476,0.597-5.296,0.597  c-10.94,0-20.141-7.438-22.833-17.532C73.672,50.707,85.495,51.938,93.261,59.704z M53.405,58.156  c-1.084-0.143-2.188-0.224-3.312-0.224c-1.173,0-2.324,0.086-3.453,0.242c-0.667-0.868-1.389-1.705-2.183-2.499  c-0.83-0.83-1.705-1.582-2.614-2.271c0.144-1.085,0.225-2.188,0.225-3.312c0-1.173-0.086-2.324-0.244-3.454  c0.868-0.665,1.707-1.388,2.502-2.182c0.828-0.829,1.581-1.705,2.27-2.614c1.084,0.144,2.188,0.225,3.311,0.225  c1.172,0,2.325-0.088,3.455-0.244c0.664,0.869,1.387,1.707,2.182,2.5c0.828,0.829,1.706,1.583,2.615,2.271  c-0.144,1.083-0.226,2.188-0.226,3.311c0,1.172,0.087,2.324,0.242,3.454c-0.868,0.665-1.706,1.388-2.499,2.183  C54.847,56.371,54.094,57.248,53.405,58.156z"/></svg>