<svg fill="#F5D327" xmlns="http://www.w3.org/2000/svg" xmlns:xlink="http://www.w3.org/1999/xlink" version="1.1" x="0px" y="0px" viewBox="0 0 100 100" enable-background="new 0 0 100 100" xml:space="preserve"><g><g><path fill="#F5D327" d="M83.81641,55.1582c-0.03418-0.67871-0.0957-1.35156-0.18359-2    c-1.12988-8.3623-6.18848-19.17188-16.72559-22.11621c-1.4834-0.41504-2.99414-0.625-4.49023-0.625c-0.55273,0-1,0.44727-1,1    s0.44727,1,1,1c1.31445,0,2.64355,0.18555,3.95117,0.55078c3.14929,0.87988,5.75397,2.55713,7.88275,4.67603    c-1.07574,0.24463-2.49524,0.57776-2.98431,0.74097c-0.52344,0.17383-0.80664,0.74023-0.63184,1.26465    c0.13965,0.41895,0.5293,0.68359,0.94824,0.68359c0.10449,0,0.21094-0.0166,0.31641-0.05176    c0.13678-0.04565,0.39874-0.11584,0.72754-0.19861c0.02228,0.57092,0.00488,1.36194-0.04102,2.01306    c-0.04004,0.55078,0.375,1.0293,0.92578,1.06836c0.02441,0.00195,0.04883,0.00293,0.07227,0.00293    c0.51953,0,0.95898-0.40234,0.99609-0.92871c0.03198-0.44189,0.104-1.66602,0.01898-2.6228    c0.41742-0.09509,0.8222-0.18579,1.18512-0.26587c1.61322,1.99231,2.88861,4.24255,3.83868,6.55664    c-0.88153,0.4563-2.75073,1.46313-3.38947,2.11035c-0.33203,0.12402-1.43457,0.16016-2.39062,0.07031    c-0.54004-0.05469-1.03711,0.35254-1.08789,0.90332c-0.05176,0.5498,0.35254,1.03711,0.90137,1.08887    c0.49219,0.0459,0.94336,0.06836,1.35254,0.06836c0.14941,0,0.27222-0.01465,0.41046-0.02075    c0.01263,2.98682,0.08032,3.20129,0.13153,3.35571c0.07617,0.23047,0.23438,0.4248,0.44336,0.54785l2.41699,1.41602    c0.15918,0.09277,0.33301,0.13672,0.50488,0.13672c0.34375,0,0.67773-0.17676,0.86426-0.49414    c0.27832-0.47656,0.11914-1.08984-0.35742-1.36914l-1.96582-1.15137c-0.02203-0.6228-0.03589-1.80151-0.03925-2.95935    c0.08978-0.06543,0.18848-0.12622,0.25507-0.20374c0.24213-0.25916,1.50427-1.00305,2.64838-1.60718    c0.64288,1.91736,1.08661,3.83301,1.32916,5.62769c0.08008,0.59375,0.13672,1.20996,0.16797,1.83203    c0.0564,1.13599,0.01062,2.26941-0.09851,3.39233c-1.32135-0.02344-2.72144,0.02808-3.52551,0.06567    c-0.50293-0.84082-1.38184-1.84961-1.95898-2.47559c-0.37207-0.40723-1.00781-0.43262-1.41211-0.05859    c-0.40723,0.37305-0.43262,1.00586-0.05859,1.41211c0.87695,0.9541,1.74023,2.07227,1.8418,2.37207    c0.0108,0.04858,0.0376,0.08826,0.05487,0.13354c-0.07251,0.79309-0.19055,1.74048-0.25702,1.94556    c-0.20508,0.5127,0.04395,1.09473,0.55664,1.30078c0.12207,0.04883,0.24805,0.07129,0.37207,0.07129    c0.39648,0,0.77148-0.2373,0.92871-0.62793c0.15363-0.38513,0.27405-1.3302,0.35095-2.08911    c0.73944-0.03137,1.802-0.06445,2.82684-0.05396c-0.39563,2.13525-1.07111,4.19434-2.02612,6.07532l-1.47198-0.90588    c-0.47363-0.29102-1.08789-0.14258-1.37598,0.32715c-0.28906,0.4707-0.14258,1.08691,0.32715,1.37598l1.52618,0.93921    c-0.31323,0.4917-0.64142,0.97156-0.99396,1.42896c-1.50793,1.95654-3.5144,3.5459-6.0224,4.81396    c0.04987-1.06079,0.0199-2.13818,0.01361-2.31592c-0.0166-0.55273-0.49609-1.02539-1.03125-0.9668    c-0.55176,0.01758-0.98535,0.47949-0.9668,1.03125c0.01971,0.62598,0.03339,2.30225-0.10352,3.18164    c-0.9729,0.38245-1.98975,0.73792-3.09399,1.0415c-0.24109-0.4873-0.60333-1.15576-0.96167-1.57373    c-0.43793-0.5105-1.69867-1.07471-2.80402-1.49805c0.31256-0.55518,0.59613-1.11475,0.84937-1.67236    c0.33716,0.03442,1.08978,0.10107,1.90289,0.10107c0.56836,0,1.16211-0.0332,1.65625-0.13184    c0.54102-0.1084,0.89258-0.63477,0.78418-1.17676c-0.10742-0.54102-0.62988-0.89844-1.17676-0.78418    c-0.63989,0.12695-1.65826,0.09851-2.39557,0.04871c0.17694-0.52905,0.32349-1.04529,0.43756-1.53992    c0.26898-1.1665,0.41992-2.31274,0.48755-3.4458c0.3645,0.59326,0.73267,1.37708,0.93726,2.36963    c0.09766,0.47266,0.51367,0.79785,0.97852,0.79785c0.06641,0,0.13477-0.00684,0.20312-0.02051    c0.54102-0.11133,0.88867-0.64062,0.77734-1.18164c-0.64844-3.14746-2.60156-4.75781-2.68457-4.8252    c-0.06659-0.05396-0.14404-0.08008-0.21857-0.11426c-0.02997-0.50562-0.07397-1.00964-0.12775-1.51257    c0.10583,0.0011,0.21912,0.00183,0.33948,0.00183c0.87109,0,2.06445-0.03711,2.72461-0.2168    c0.5332-0.14551,0.84766-0.69531,0.70215-1.22754c-0.14551-0.53418-0.7002-0.84766-1.22754-0.70215    c-0.47729,0.13074-1.82294,0.15698-2.8017,0.13989c-0.15686-1.01001-0.34167-2.01904-0.53815-3.03149    c-0.10547-0.54199-0.63086-0.89746-1.17188-0.79102c-0.54199,0.10449-0.89648,0.62988-0.79102,1.17188    c0.78516,4.04785,1.41113,8.02246,0.46191,12.13867c-0.84863,3.68262-3.65332,8.45703-7.37012,10.45605    c-10.47559,5.63379-26.49023,5.15527-34.09766-5.44238c-1.30371-1.81738-2.33008-3.91602-3.04199-6.21582    c-0.02246-0.08301-0.07422-0.33008-0.13965-0.64062c-0.04688-0.21875-0.08984-0.4209-0.12988-0.60645    c4.17828,0.82764,14.78461,2.81592,18.63287,2.39111c0.12909,0.07593,0.27112,0.13184,0.4306,0.14307    c0.1543,0.01074,1.85254,0.12402,4.1416,0.12402c2.9043,0,6.75879-0.18359,9.61621-0.99316    c5.38379-1.52539,9.8584-8.08984,10.85059-11.33691c0.16211-0.52832-0.13574-1.08691-0.66406-1.24805    c-0.52539-0.16504-1.08691,0.13574-1.24805,0.66406c-0.85352,2.79297-4.86328,8.6875-9.4834,9.99707    c-2.17584,0.6167-5.06354,0.83594-7.57458,0.89355c5.30542-2.0791,12.33228-5.98572,16.18005-11.86816l3.11426-1.21484    c0.51465-0.20117,0.76953-0.78027,0.56836-1.29492c-0.20117-0.51562-0.78418-0.76953-1.29492-0.56836l-3.41699,1.33301    c-0.19922,0.07812-0.36914,0.21777-0.48242,0.39844c-1.19287,1.89343-2.75183,3.56299-4.47717,5.03308l-1.79333-1.19617    c0.41309-1.84375,0.47266-3.07617,0.17676-3.66895c-0.14844-0.29688-0.54395-1.08496-4.58398-2.02539    c-0.53516-0.13281-1.0752,0.20801-1.2002,0.74707c-0.12598,0.53711,0.20898,1.0752,0.74707,1.2002    c1.3418,0.31348,2.74707,0.77051,3.23145,1.04297c0.0127,0.50586-0.18945,1.76465-0.47461,2.9082    c-0.10254,0.41016,0.06348,0.83984,0.41504,1.07422l1.8396,1.22656c-4.00226,2.95605-8.57336,4.90979-11.75946,5.90601    c-0.01019-0.03406-0.00653-0.06885-0.02057-0.10229c-1.79108-4.26587-2.55121-9.1217-2.12683-13.26123    c0.49512,0.01624,1.09607,0.03906,1.45093,0.0531c0.53503,1.11475,1.05634,2.35315,1.08801,2.67883    c0,0.00696,0.00403,0.01306,0.00415,0.02002c-0.12207,0.10962-0.22742,0.23914-0.28442,0.40576    c-1.05371,3.07422-1.05371,3.31543-1.05371,3.49121c0,0.55273,0.44727,1,1,1c0.51562,0,0.94043-0.39062,0.99414-0.8916    c0.06439-0.28613,0.46503-1.5188,0.84705-2.64258c0.62366,0.13782,1.59424,0.24133,3.13538,0.22168    c0.14941,0.79785,0.25586,2.15527-0.36426,3.35254c-0.25391,0.49023-0.0625,1.09375,0.42773,1.34766    C44.51953,60.96387,44.67676,61,44.83203,61c0.36133,0,0.71094-0.19629,0.88867-0.54004    c1.35156-2.60547,0.34766-5.50488,0.30469-5.62793c-0.14551-0.41211-0.53516-0.68945-0.97949-0.66406    c-1.375,0.05176-2.83691-0.0166-3.46289-0.14746c-0.22675-0.92139-0.8584-2.2876-1.32233-3.22913l1.04987-1.39978l1.6875,1.51855    c0.41211,0.37012,1.04297,0.33789,1.41211-0.07422c0.36914-0.41016,0.33594-1.04297-0.07422-1.41211l-2.5-2.25    c-0.20898-0.18848-0.48926-0.27637-0.76562-0.25195c-0.28027,0.02734-0.53516,0.1709-0.70312,0.39551l-1.93555,2.58008    c-0.28418-0.01099-0.64502-0.02441-0.98749-0.03638c0.40564-1.99756,1.04846-3.86719,1.90411-5.57642    c0.05933,0.01465,0.11285,0.04272,0.17615,0.04639c0.19141,0.01172,1.34668,0.07715,2.47852,0.07715    c0.43011,0,0.85211-0.01099,1.22107-0.03662l0.10999,2.09814c0.02832,0.5332,0.46973,0.94727,0.99805,0.94727    c0.01758,0,0.03516,0,0.05371-0.00098c0.55078-0.0293,0.97461-0.5,0.94629-1.05176l-0.15625-2.97559    c0.27734-0.84668,0.73047-2.52637,0.33594-3.50977c-0.26685-0.66748-0.96527-1.36621-1.53662-1.85986    c1.29907-1.24231,2.71851-2.29126,4.19464-3.15588l0.20325,1.96436l-1.47162,0.27209    c-0.54297,0.10059-0.90234,0.62207-0.80176,1.16504c0.08887,0.48145,0.50977,0.81836,0.98242,0.81836    c0.06055,0,0.12109-0.00488,0.18262-0.0166l1.59906-0.29565c0.06799,0.05615,0.14355,0.10425,0.22614,0.14136    c0.59668,0.26855,1.30176,0.61914,1.80371,0.89941c-0.41699,0.63477-0.99414,1.7041-1.80762,3.53223    c-0.22363,0.50488,0.00293,1.0957,0.50781,1.32031c0.13184,0.05859,0.26953,0.08594,0.40527,0.08594    c0.38379,0,0.74902-0.2207,0.91504-0.59375c0.63867-1.43555,1.52148-3.16602,1.86523-3.55566    c0.33301-0.19629,0.53613-0.53809,0.53906-0.92383c0.00391-0.48828,0.00879-0.99316-2.88281-2.34766l-0.35809-3.46729    c2.56708-1.17249,5.229-1.74048,7.72528-1.64429c0.00098,0.26343,0.01306,0.49976,0.04297,0.68872    c0.07715,0.49219,0.50293,0.84375,0.98633,0.84375c0.05176,0,0.10449-0.00391,0.15723-0.0127    c0.54492-0.08594,0.91797-0.59766,0.83105-1.14355c-0.14532-0.92236,0.35583-4.10132,0.77661-6.29785    c3.34888-0.24316,6.26703-1.26416,9.02417-2.36719c0.5127-0.20508,0.7627-0.78711,0.55762-1.2998    c-0.20508-0.51367-0.79199-0.76172-1.2998-0.55762c-4.75195,1.90137-9.58105,3.41797-16.39551,1.14746    c-0.5293-0.1748-1.08984,0.1084-1.26465,0.63184c-0.1748,0.52441,0.1084,1.09082,0.63184,1.26465    c2.4375,0.81274,4.64819,1.16101,6.70337,1.21411c-0.19257,1.02979-0.44983,2.51636-0.60876,3.87207    c-3.32867-0.16504-6.50775,0.61987-9.38086,2.07471c-0.02295,0.01123-0.0462,0.01965-0.06805,0.03259    c-6.88281,3.51562-11.99817,10.84705-13.19159,17.98816c-1.11975,6.70203,1.00934,12.93457,2.04688,15.44482    c-0.34338,0.07935-0.66058,0.14526-0.92676,0.18799c-3.11328,0.50488-14.29297-1.51562-19.79297-2.65625    c-0.00391-0.00098-0.00781-0.00195-0.01172-0.00293c-0.00195,0-0.00488-0.00098-0.00684-0.00098    c-0.54004-0.11133-1.06738,0.24121-1.17578,0.78125c-0.02759,0.13513-0.02026,0.26709,0.00525,0.39417    c-0.01306,0.05774-0.039,0.11023-0.04236,0.17126c-0.12109,2.18555-0.21777,4.69824,0.16797,6.87891    c0.70605,4.00391,4.07324,12.79199,19.9707,12.79102c1.22852-0.00098,2.53418-0.05273,3.91602-0.16406    c0.15424-0.01257,0.29254-0.06555,0.41785-0.13855c0.25366,0.00574,0.50708,0.01746,0.76086,0.01746    c5.48926,0,10.98535-1.35547,15.50684-3.78711c0.15161-0.08154,0.29742-0.17493,0.44568-0.26331    c0.04327,0.01135,0.07996,0.03601,0.12561,0.04163c0.64941,0.08008,1.24414,0.11426,1.80664,0.11426    c1.66797,0,3.04395-0.30664,4.67676-0.6709c0.37402-0.08398,0.76367-0.1709,1.17578-0.25781    c6.77051-1.43457,11.55859-4.07422,14.6377-8.07031C82.35156,66.77051,84.10449,60.95703,83.81641,55.1582z M43.65137,40.61328    c0.07141,0.23608-0.0451,0.97998-0.25317,1.73376c-0.66986,0.08838-2.01538,0.06238-2.96838,0.02527    c0.65259-1.03674,1.37329-2.01025,2.159-2.90503C43.08594,39.89233,43.55505,40.37219,43.65137,40.61328z M17.53711,71.14746    c-0.01782-0.10107-0.02234-0.21362-0.0379-0.31665c0.57245,1.18872,1.22815,2.3092,1.9715,3.34497    c2.38794,3.32593,5.53192,5.73083,9.06128,7.33264C22.35388,80.03882,18.48047,76.48779,17.53711,71.14746z M62.75977,77.4834    c-1.37079,0.30554-2.49341,0.55029-3.74121,0.60571c0.87268-0.83093,1.65723-1.76782,2.34845-2.75781    c1.12836,0.41809,2.17041,0.88623,2.37421,1.07007c0.14099,0.16406,0.31415,0.45166,0.47858,0.75562    c-0.09015,0.01978-0.17181,0.04443-0.26276,0.06372C63.53613,77.31055,63.13965,77.39844,62.75977,77.4834z"></path><path fill="#F5D327" d="M54.71094,46.72461c-0.15137-0.53125-0.70996-0.83691-1.23633-0.68555    c-0.48047,0.13672-1.98633,0.77637-2.84277,1.14648c-0.54004-0.41016-1.48926-1.14062-2.35254-1.80957    c-0.4375-0.33594-1.06445-0.25781-1.40332,0.17871c-0.33789,0.43652-0.25781,1.06445,0.17871,1.40332    c0.50714,0.39233,1.96655,1.52051,2.60559,1.99829l0.81433,2.29468c0.12988,0.36719,0.46191,0.62598,0.84961,0.66211    c1.35742,0.12598,3.02637,0.35254,3.45215,0.50098c0.16797,0.1123,0.3623,0.16895,0.55664,0.16895    c0.25586,0,0.51172-0.09766,0.70703-0.29297c0.39062-0.39062,0.39062-1.02344,0-1.41406    c-0.20703-0.20801-0.54688-0.54688-3.89355-0.89258l-0.39154-1.10352c0.9585-0.40991,1.9978-0.84094,2.27045-0.91895    C54.55664,47.80957,54.86328,47.25586,54.71094,46.72461z"></path><path fill="#F5D327" d="M57.99609,41.51758l1.38086,2.46973c0.18359,0.32812,0.52344,0.5127,0.87402,0.5127    c0.16504,0,0.33203-0.04102,0.48633-0.12695c0.48242-0.26953,0.65527-0.87891,0.38574-1.36035l-1.58301-2.83301    c-0.12988-0.23242-0.34668-0.40332-0.60254-0.47559l-1.58301-0.44531c0.57324-1.61621,0.4375-2.64746-0.4082-3.07031    c-0.3418-0.1709-1.45605-1.05664-2.29297-1.77832c-0.41602-0.35938-1.0498-0.31543-1.41016,0.10352    c-0.36133,0.41797-0.31445,1.04883,0.10352,1.41016c0.27637,0.23828,1.52637,1.30859,2.34277,1.83984    c-0.06543,0.39355-0.3125,1.12109-0.5957,1.73047c-0.00665,0.01428-0.00409,0.03052-0.01001,0.04492    c-0.00641,0.01562-0.01947,0.026-0.02515,0.04199l-0.83301,2.33301c-0.18652,0.51953,0.08496,1.0918,0.60547,1.27734    c0.11035,0.04004,0.22461,0.05859,0.33594,0.05859c0.41113,0,0.7959-0.25488,0.94141-0.66406l0.51898-1.45337L57.99609,41.51758z"></path><path fill="#F5D327" d="M64.38477,35.20117c-0.25684-0.48926-0.86328-0.67676-1.35059-0.41895    c-1.41309,0.74316-2.62207,0.98242-2.6377,0.98535c-0.54102,0.10254-0.89844,0.625-0.7959,1.16699    c0.08984,0.48047,0.50977,0.81543,0.98145,0.81543c0.06055,0,0.12305-0.00586,0.18555-0.01758    c0.03314-0.00586,0.48804-0.09644,1.16382-0.31909l2.09692,2.84644c0.19531,0.2666,0.49805,0.40723,0.80566,0.40723    c0.20605,0,0.41406-0.06348,0.5918-0.19531c0.44531-0.32715,0.54004-0.95312,0.21191-1.39746l-0.02368-0.03223    c1.22034-0.32446,2.97955-0.92249,3.73267-1.81348c0.35645-0.42188,0.30371-1.05273-0.11816-1.40918    c-0.42285-0.3584-1.05469-0.30371-1.40918,0.11816c-0.39893,0.47241-2.06561,1.04858-3.49335,1.3562l-0.49683-0.67456    c0.0462-0.02368,0.09003-0.04285,0.13666-0.06738C64.4541,36.29492,64.64258,35.69043,64.38477,35.20117z"></path><path fill="#F5D327" d="M64.72656,43.58789c-0.45801-0.30762-1.08008-0.1875-1.38867,0.26953l-2.06543,3.05957H58    c-0.55273,0-1,0.44727-1,1s0.44727,1,1,1h3.46436l1.10303,1.77734c0.18945,0.30469,0.51562,0.47266,0.85059,0.47266    c0.17969,0,0.3623-0.04883,0.52637-0.15039c0.46875-0.29102,0.61328-0.90723,0.32227-1.37695l-1.1582-1.86719l1.8877-2.7959    C65.30469,44.51855,65.18457,43.89746,64.72656,43.58789z"></path><path fill="#F5D327" d="M74.29004,46.12402c0.39062-0.39062,0.41992-1.0498,0.0293-1.44043    c-0.3916-0.38965-0.99414-0.41699-1.38574-0.02539c-0.20337,0.15356-1.33887,0.79541-2.50879,1.43518    c-0.48511-1.74353-1.45483-4.03491-1.50488-4.15198c-0.21582-0.50781-0.80469-0.74414-1.31152-0.52832    c-0.50781,0.21582-0.74512,0.80273-0.52832,1.31152c0.37988,0.89551,1.41016,3.48242,1.59961,4.68164    c0.13672,0.87109-1.09766,1.64453-1.10547,1.64941c-0.04071,0.02417-0.07422,0.05615-0.11053,0.08533    c-0.0105,0.00842-0.02374,0.01038-0.034,0.01917c-0.00586,0.00513-0.00793,0.01245-0.01367,0.01758    c-0.0863,0.07812-0.15619,0.16956-0.21039,0.27124c-0.01184,0.02222-0.02069,0.04419-0.03076,0.06714    c-0.04376,0.09912-0.07562,0.20337-0.08545,0.31384c-0.00055,0.00598-0.00287,0.01135-0.0033,0.01733    c-0.00012,0.00208-0.00104,0.00403-0.00116,0.00623l-0.33301,5.25c-0.03516,0.55176,0.38379,1.02637,0.93457,1.06152    c0.02148,0.00098,0.04297,0.00195,0.06445,0.00195c0.52344,0,0.96387-0.40723,0.99707-0.93652l0.19122-3.01074    c1.03265,0.89648,1.62061,1.03516,1.92401,1.03516c0.06738,0,0.12109-0.00586,0.16406-0.01074    c0.54883-0.06055,0.94434-0.55566,0.88379-1.10449c-0.05469-0.49512-0.46387-0.86621-0.94727-0.88867    c-0.26447-0.12427-0.83301-0.62146-1.42365-1.22705c0.45227-0.45508,0.86414-1.04688,1.04639-1.74219    C73.93646,46.47681,74.18488,46.22925,74.29004,46.12402z"></path><path fill="#F5D327" d="M71.99121,55.83203c-0.22949-0.50098-0.82129-0.72266-1.32617-0.49023    c-0.50098,0.23047-0.72168,0.82422-0.49023,1.32617c0.46777,1.01855,0.99121,2.21094,1.25488,2.87109l-1.86035,1.72852    c-0.4043,0.37598-0.42773,1.00879-0.05176,1.41309C69.71387,62.89258,69.98145,63,70.25,63    c0.24414,0,0.48828-0.08887,0.68066-0.26758l2.33301-2.16699c0.24609-0.22852,0.36035-0.56543,0.30566-0.89648    C73.48242,59.14648,72.66406,57.29395,71.99121,55.83203z"></path><path fill="#F5D327" d="M74.80957,63.7998c0.11914-0.53906-0.2207-1.07324-0.75977-1.19336    c-0.53418-0.1123-1.07324,0.2207-1.19336,0.75977c-0.04102,0.18652-0.33887,1.53125-0.50391,2.42676    C71.59961,66.08984,70.35059,66.5,69.41699,66.5c-0.55273,0-1,0.44727-1,1s0.44727,1,1,1    c1.08466,0,2.30243-0.35352,3.15979-0.65869c0.02747,0.01807,0.04602,0.04541,0.07556,0.06104    c0.06934,0.03613,0.67188,0.39453,0.52148,1.64551c-0.06543,0.54883,0.32617,1.0459,0.87402,1.1123    c0.04004,0.00488,0.08105,0.00684,0.12012,0.00684c0.49902,0,0.93066-0.37305,0.99219-0.88086    c0.185-1.54565-0.33557-2.56079-0.92053-3.1532c0.00049-0.00342,0.00214-0.00647,0.00256-0.00989    C74.30566,66.11523,74.67285,64.41309,74.80957,63.7998z"></path></g></g></svg>