<svg fill="#861001" xmlns="http://www.w3.org/2000/svg" xmlns:xlink="http://www.w3.org/1999/xlink" version="1.1" x="0px" y="0px" viewBox="0 0 100 100" enable-background="new 0 0 100 100" xml:space="preserve"><path fill="#861001" d="M598.322,661.412c-13.824,0-25.027,11.205-25.027,25.027s11.203,25.027,25.027,25.027  c13.822,0,25.025-11.205,25.025-25.027S612.145,661.412,598.322,661.412z M598.322,705.9c-10.748,0-19.463-8.711-19.463-19.461  s8.715-19.461,19.463-19.461s19.463,8.711,19.463,19.461S609.07,705.9,598.322,705.9z M595.77,697.48h4.33v-3.68h-4.33V697.48z   M598.316,675.73c-2.043,0-3.699,0.5-4.971,1.502c-1.271,1-1.896,2.443-1.863,4.328l0.029,0.09h4.184  c0.01-0.834,0.268-1.467,0.771-1.9c0.506-0.432,1.123-0.646,1.85-0.646c0.883,0,1.562,0.254,2.039,0.764  c0.475,0.518,0.715,1.223,0.715,2.123c0,0.812-0.209,1.553-0.627,2.207c-0.416,0.66-0.975,1.273-1.67,1.842  c-1.189,0.914-1.982,1.689-2.381,2.326c-0.398,0.641-0.604,1.646-0.609,3.021h4.285c0-0.816,0.094-1.457,0.279-1.924  c0.188-0.467,0.58-0.928,1.18-1.391c1.1-0.717,2.014-1.605,2.746-2.668c0.729-1.057,1.096-2.213,1.096-3.457  c0-1.916-0.625-3.432-1.879-4.545C602.24,676.287,600.516,675.73,598.316,675.73z"></path><path d="M74.495,63.398H52.879H52.4c-0.182-1.474-0.446-1.761-1.19-6.072c-0.029-0.041-0.937-4.264-2.025-9.347  c1.063,0.526,2.514,1.06,3.339,1.06c0.395,0,0.768-0.057,1.119-0.171c1.588-0.516,2.329-2.061,2.771-2.984  c0.071-0.151,0.135-0.286,0.196-0.401c0.625-1.173,2.715-3.292,2.736-3.312c0.123-0.126,0.167-0.309,0.117-0.477  c-0.054-0.169-0.193-0.295-0.367-0.328c-0.237-0.048-5.887-1.115-8.82,1.586c-0.534,0.492-1.229,1.765-1.602,2.65  c-0.979-4.577-2.013-9.42-2.645-12.35c0.407,0.647,0.84,1.28,1.33,1.881c0.526,0.646,1.08,1.276,1.719,1.836  c0.67,0.588,1.449,1.09,2.337,1.339c0.438,0.126,0.893,0.144,1.337,0.095c0.413-0.042,0.802-0.18,1.162-0.354  c0.53-0.257,0.979-0.653,1.27-1.13c0.285-0.469,0.391-1.017,0.394-1.558c0.005-0.471-0.097-0.952-0.228-1.411  c-0.146-0.52-0.371-1.022-0.61-1.516c-0.494-1.024-1.143-1.99-1.831-2.918c-0.484-0.651-1.002-1.287-1.539-1.905  c0.255,0.092,0.51,0.182,0.772,0.265c0.862,0.28,1.748,0.502,2.653,0.625c0.451,0.062,0.9,0.104,1.357,0.113  c0.477,0.006,0.953-0.036,1.425-0.106c0.437-0.068,0.853-0.191,1.261-0.338c0.454-0.167,0.851-0.394,1.231-0.667  c0.33-0.236,0.605-0.546,0.822-0.872c0.116-0.174,0.194-0.371,0.27-0.56c0.086-0.217,0.108-0.449,0.127-0.679  c0.02-0.202-0.016-0.418-0.059-0.619c-0.048-0.218-0.129-0.417-0.227-0.624c-0.22-0.449-0.562-0.845-0.919-1.219  c-0.333-0.352-0.726-0.654-1.13-0.933c-0.419-0.29-0.862-0.537-1.332-0.754c-1.438-0.668-3.009-1.001-4.583-1.17  c-0.504-0.052-1.006-0.082-1.509-0.091c0.46-0.371,0.906-0.759,1.335-1.16c0.771-0.721,1.471-1.499,2.121-2.309  c0.626-0.778,1.176-1.606,1.645-2.472c0.467-0.854,0.84-1.762,1.107-2.693c0.242-0.846,0.355-1.755,0.104-2.633  c-0.194-0.684-0.706-1.292-1.393-1.629c-0.363-0.179-0.744-0.268-1.147-0.319c-0.426-0.057-0.84-0.026-1.264,0.024  c-0.558,0.066-1.087,0.24-1.604,0.428c-0.552,0.195-1.074,0.452-1.584,0.719c-1.095,0.577-2.116,1.281-3.045,2.057  c-0.929,0.776-1.748,1.659-2.458,2.607c0-0.026,0.001-0.052,0-0.077c0.005-1.13-0.042-2.263-0.19-3.391  c-0.096-0.708-0.227-1.413-0.431-2.105c-0.184-0.62-0.445-1.246-0.817-1.801c-0.344-0.509-0.827-0.98-1.423-1.243  c-0.661-0.293-1.438-0.365-2.123-0.174c-0.827,0.227-1.394,0.793-1.806,1.46c-0.271,0.437-0.474,0.919-0.637,1.374  c-0.218,0.6-0.358,1.223-0.468,1.85c-0.099,0.57-0.167,1.146-0.203,1.727c-0.106,1.609,0.088,3.251,0.494,4.841  c0.126,0.489,0.278,0.975,0.453,1.455c-0.399-0.418-0.802-0.835-1.217-1.242c-1.126-1.106-2.321-2.15-3.651-3.05  c-0.696-0.473-1.44-0.874-2.239-1.177c-0.7-0.265-1.46-0.431-2.208-0.382c-0.81,0.05-1.62,0.328-2.162,0.872  c-0.12,0.121-0.222,0.253-0.308,0.391c-0.284,0.462-0.385,1.007-0.343,1.554c0.04,0.487,0.181,0.968,0.366,1.431  c0.209,0.517,0.478,1.018,0.778,1.5c0.553,0.893,1.232,1.738,2.007,2.482c0.602,0.58,1.284,1.087,1.984,1.564  c0.693,0.472,1.428,0.888,2.177,1.275c0.498,0.256,1.004,0.498,1.515,0.728c-1.104,0.104-2.188,0.325-3.225,0.653  c-1.737,0.55-3.346,1.402-4.624,2.595c-0.301,0.285-0.571,0.598-0.827,0.921c-0.096,0.124-0.186,0.25-0.266,0.381  c-0.141,0.229-0.26,0.469-0.365,0.719c-0.303,0.722-0.351,1.524-0.091,2.286c0.108,0.329,0.287,0.648,0.492,0.941  c0.187,0.262,0.411,0.512,0.668,0.723c0.481,0.397,1.064,0.669,1.688,0.808c1.097,0.246,2.25,0.097,3.303-0.161  c0.609-0.151,1.199-0.357,1.781-0.578c0.599-0.229,1.181-0.489,1.753-0.77c0.396-0.194,0.783-0.396,1.169-0.608  c-0.075,0.124-0.148,0.249-0.221,0.374c-0.525,0.911-0.956,1.874-1.283,2.865c-0.326,0.99-0.501,2.024-0.556,3.067  c-0.042,0.757,0.019,1.514,0.147,2.268c0.126,0.734,0.347,1.488,0.796,2.132c0.23,0.328,0.515,0.587,0.864,0.81  c0.165,0.106,0.366,0.174,0.551,0.237c0.221,0.074,0.47,0.094,0.699,0.103c0.225,0.006,0.454-0.03,0.673-0.069  c0.247-0.046,0.486-0.143,0.718-0.228c0.42-0.158,0.787-0.394,1.147-0.638c0.505-0.346,0.921-0.782,1.298-1.239  c0.404-0.489,0.742-1.017,1.037-1.567c0.62-1.165,1.05-2.42,1.392-3.687c0.137-0.504,0.252-1.014,0.361-1.524  c1.054,4.821,2.145,10.633,2.823,16.267c-0.763-0.559-2.589-1.426-3.396-1.571c-3.926-0.696-8.114,3.242-8.29,3.41  c-0.126,0.122-0.177,0.304-0.131,0.475c0.048,0.169,0.182,0.299,0.356,0.339c0.029,0.007,2.931,0.666,4.087,1.319  c0.114,0.064,0.241,0.144,0.382,0.232c0.869,0.54,2.324,1.445,3.94,1.025c0.358-0.094,0.704-0.246,1.038-0.458  c0.695-0.444,1.638-1.679,2.25-2.695c0.529,5.197,0.645,8.11-0.043,11.779H28.253c-0.373,0-0.675,0.305-0.675,0.675l1.807,7.651  c0,0.373,0.302,0.675,0.675,0.675h2.313l5.348,25.188c0.08,0.293,0.347,0.496,0.65,0.496h25.411c0.3,0,0.562-0.197,0.647-0.483  l5.936-25.2h2.323c0.372,0,0.674-0.302,0.674-0.675l1.809-7.651C75.171,63.703,74.868,63.398,74.495,63.398z M38.126,23.73  c-0.681-2.683,0.941-5.408,3.622-6.09c2.683-0.683,5.41,0.939,6.092,3.621c0.681,2.682-0.941,5.408-3.624,6.092  C41.536,28.033,38.809,26.411,38.126,23.73z M63.28,96.733H38.886l-5.102-24.292h35.161L63.28,96.733z M72.013,71.048H30.735  l-1.807-6.298h44.894L72.013,71.048z"></path></svg>