<svg fill="#C82606" xmlns="http://www.w3.org/2000/svg" xmlns:xlink="http://www.w3.org/1999/xlink" version="1.1" x="0px" y="0px" viewBox="0 0 100 100" enable-background="new 0 0 100 100" xml:space="preserve"><path d="M93.506,5L79.419,5c-0.396,0-0.777,0.158-1.057,0.437L64.275,19.525c-0.28,0.28-0.437,0.66-0.437,1.057l0,2.903  l-6.606,6.606c-0.28,0.28-0.437,0.66-0.437,1.057l0,7.336c-0.466-0.084-0.964,0.052-1.323,0.412L6.165,88.2  c-1.554,1.554-1.554,4.081,0,5.635c1.554,1.554,4.081,1.554,5.635,0L61.105,44.53c0.36-0.36,0.496-0.858,0.412-1.323l7.336,0  c0.396,0,0.777-0.158,1.057-0.437l6.606-6.606l2.903,0c0.396,0,0.777-0.158,1.057-0.437l14.087-14.087  c0.28-0.28,0.437-0.66,0.437-1.057l0-14.087C95,5.669,94.331,5,93.506,5z M70.444,28.5l-2.219-4.12l12.984-12.984l2.219,4.121  L70.444,28.5z M67.34,25.889l2,3.714l-2.515,2.515l0-2.625L67.34,25.889z M67.882,33.174l2.515-2.515l3.714,2l-3.604,0.515  L67.882,33.174z M71.5,29.556l12.984-12.984l4.121,2.219L75.621,31.775L71.5,29.556z M82.642,10.903l8.099-2.7l-6.209,6.209  L82.642,10.903z M66.826,21.2L79.607,8.419l0.889,1.651c-0.069,0.035-0.142,0.066-0.197,0.122L67.485,23.006l-0.66-1.225V21.2z   M76.994,32.515l12.814-12.814c0.055-0.055,0.086-0.128,0.122-0.197l1.651,0.889L78.8,33.174h-0.58L76.994,32.515z M85.588,15.469  l6.209-6.209l-2.7,8.099L85.588,15.469z M86.662,7.988l-4.739,1.58l-0.851-1.58L86.662,7.988z M57.936,43.473L9.687,91.722  c-0.388,0.388-1.02,0.388-1.409,0c-0.388-0.388-0.388-1.02,0-1.409l48.249-48.249L57.936,43.473z M68.234,40.218l-8.452,0l0-8.452  l4.056-4.056l0,6.958c0,0.825,0.669,1.494,1.494,1.494l6.958,0L68.234,40.218z M92.012,18.928l-1.58-0.851l1.58-4.739L92.012,18.928  z"></path></svg>