<svg fill="#77ccff" xmlns="http://www.w3.org/2000/svg" xmlns:xlink="http://www.w3.org/1999/xlink" version="1.1" x="0px" y="0px" viewBox="5 5 90 90" enable-background="new 0 0 100 100" xml:space="preserve"><g><path d="M50,5C25.1,5,5,25.1,5,50s20.1,45,45,45s45-20.1,45-45S74.9,5,50,5z M80,20.6c0.8,0,1.5,0.7,1.5,1.5c0,0.8-0.7,1.5-1.5,1.5   c-0.8,0-1.5-0.7-1.5-1.5C78.5,21.3,79.1,20.6,80,20.6z M50,7.4c0.8,0,1.5,0.7,1.5,1.5c0,0.8-0.7,1.5-1.5,1.5   c-0.8,0-1.5-0.7-1.5-1.5C48.5,8.1,49.2,7.4,50,7.4z M19.9,20.6c0.8,0,1.5,0.7,1.5,1.5c0,0.8-0.7,1.5-1.5,1.5   c-0.8,0-1.5-0.7-1.5-1.5C18.4,21.3,19.1,20.6,19.9,20.6z M9.1,51.8c-0.8,0-1.5-0.7-1.5-1.5c0-0.8,0.7-1.5,1.5-1.5   c0.8,0,1.5,0.7,1.5,1.5C10.6,51.2,9.9,51.8,9.1,51.8z M22.5,82.1c-0.8,0-1.5-0.7-1.5-1.5c0-0.8,0.7-1.5,1.5-1.5   c0.8,0,1.5,0.7,1.5,1.5C24,81.4,23.3,82.1,22.5,82.1z M50,92.4c-0.8,0-1.5-0.7-1.5-1.5c0-0.8,0.7-1.5,1.5-1.5   c0.8,0,1.5,0.7,1.5,1.5C51.5,91.8,50.8,92.4,50,92.4z M77,82.1c-0.8,0-1.5-0.7-1.5-1.5c0-0.8,0.7-1.5,1.5-1.5   c0.8,0,1.5,0.7,1.5,1.5C78.5,81.4,77.8,82.1,77,82.1z M50,87.2c-20.5,0-37.2-16.7-37.2-37.2S29.5,12.8,50,12.8S87.2,29.5,87.2,50   S70.5,87.2,50,87.2z M90.9,51.8c-0.8,0-1.5-0.7-1.5-1.5c0-0.8,0.7-1.5,1.5-1.5c0.8,0,1.5,0.7,1.5,1.5   C92.4,51.2,91.7,51.8,90.9,51.8z"></path><path fill="#60aaff" d="M50,14.6c-19.6,0-35.4,15.9-35.4,35.4c0,4.7,0.9,9.2,2.6,13.3l31.6-23c0.7-0.5,1.8-0.6,2.5,0l31.9,22.2   c1.4-3.9,2.2-8,2.2-12.4C85.4,30.4,69.6,14.6,50,14.6z"></path><path fill="#44aaff" d="M48.8,52.8L22.7,72.6C29.2,80.4,39,85.4,50,85.4c11.7,0,22-5.6,28.5-14.3L51.3,52.7C50.5,52.2,49.5,52.2,48.8,52.8z"></path></g></svg>