<svg fill="#70C041" xmlns="http://www.w3.org/2000/svg" xmlns:xlink="http://www.w3.org/1999/xlink" version="1.1" x="0px" y="0px" viewBox="0 0 100 100" enable-background="new 0 0 100 100" xml:space="preserve"><g><path d="M52.09,76.523c-0.109-3.092-0.568-16.798-0.445-25.653c0.086-6.248,2.049-7.828,5.301-10.446   c1.785-1.438,4.009-3.229,6.435-6.214c6.949-8.552,2.92-23.239,2.746-23.86l-0.199-0.706l-0.695,0.234   c-17.509,5.898-19.465,23.099-19.464,30.487C37.541,24.996,25.01,24.174,22.449,24.174c-0.221,0-0.338,0.007-0.338,0.007   l-0.719,0.042l0.063,0.715c1.293,14.809,8.875,17.601,14.967,19.845c4.029,1.484,7.212,2.656,8.063,6.743   c2.029,9.743,1.547,22.336,1.411,25.073c-16.707,0.833-29.653,6.672-29.653,13.757h67.515   C83.758,82.989,69.759,76.967,52.09,76.523z M47.299,76.494c0.148-3.133,0.571-15.56-1.447-25.253   c-1.01-4.843-4.865-6.264-8.947-7.768c-5.908-2.176-12.59-4.637-13.986-17.896c3.42,0.124,15.697,1.765,23.064,18.416l1.938,4.378   l-0.607-4.75c-0.031-0.248-2.906-24.673,17.65-32.17c0.709,3.035,2.996,14.912-2.666,21.88c-2.332,2.87-4.402,4.536-6.228,6.006   c-3.447,2.775-5.725,4.609-5.82,11.514c-0.122,8.804,0.329,22.377,0.444,25.644H47.299z"></path><path d="M41.443,41.214c-0.227-0.385-0.495-0.784-0.806-1.187c-0.305-0.407-0.632-0.835-1.007-1.241   c-0.368-0.414-0.752-0.842-1.18-1.235c-0.412-0.41-0.854-0.802-1.309-1.178c-1.814-1.514-3.861-2.716-5.505-3.381   c-0.81-0.353-1.522-0.572-2.022-0.708c-0.504-0.136-0.803-0.177-0.803-0.177s0.222,0.205,0.607,0.543   c0.387,0.339,0.936,0.814,1.597,1.365c0.658,0.556,1.421,1.194,2.243,1.86c0.813,0.68,1.691,1.38,2.545,2.107   c0.44,0.349,0.862,0.717,1.285,1.073c0.426,0.351,0.834,0.708,1.236,1.051c0.41,0.335,0.789,0.674,1.156,0.993   c0.373,0.313,0.731,0.607,1.047,0.895c0.316,0.287,0.629,0.534,0.9,0.762c0.255,0.239,0.496,0.436,0.691,0.602   c0.395,0.33,0.643,0.508,0.643,0.508s-0.098-0.282-0.309-0.757C42.251,42.628,41.928,41.956,41.443,41.214z"></path><path d="M51.473,36.548c0.227-0.539,0.473-1.123,0.732-1.74c0.271-0.608,0.558-1.25,0.854-1.914   c0.31-0.657,0.605-1.344,0.945-2.023c0.322-0.688,0.66-1.379,1.02-2.061c0.328-0.698,0.719-1.361,1.067-2.035   c0.343-0.679,0.743-1.308,1.088-1.946c0.342-0.641,0.726-1.226,1.059-1.805c0.337-0.578,0.675-1.111,0.989-1.604   c0.323-0.486,0.585-0.965,0.851-1.364c0.272-0.392,0.497-0.75,0.685-1.042c0.373-0.588,0.573-0.944,0.573-0.944   s-0.329,0.228-0.881,0.663c-0.274,0.218-0.613,0.481-0.985,0.802c-0.374,0.317-0.76,0.71-1.184,1.139   c-0.213,0.215-0.434,0.439-0.663,0.671c-0.228,0.235-0.427,0.504-0.651,0.767c-0.434,0.537-0.935,1.079-1.35,1.709   c-0.425,0.624-0.902,1.248-1.289,1.941c-0.406,0.681-0.82,1.375-1.172,2.101l-0.535,1.083c-0.168,0.364-0.315,0.737-0.473,1.101   c-0.321,0.725-0.572,1.465-0.818,2.178c-0.245,0.713-0.424,1.422-0.604,2.088c-0.167,0.671-0.311,1.308-0.406,1.904   c-0.117,0.59-0.18,1.142-0.233,1.628c-0.06,0.485-0.076,0.915-0.095,1.266C49.968,39.813,50,40.216,50,40.216   s0.146-0.372,0.401-1.023C50.66,38.555,51.029,37.643,51.473,36.548z"></path></g></svg>