<svg enable-background="new 0 0 100 100" version="1.1" viewBox="0 0 100 100" xml:space="preserve" xmlns="http://www.w3.org/2000/svg" xmlns:cc="http://creativecommons.org/ns#" xmlns:dc="http://purl.org/dc/elements/1.1/" xmlns:rdf="http://www.w3.org/1999/02/22-rdf-syntax-ns#"><metadata><rdf:RDF><cc:Work rdf:about=""><dc:format>image/svg+xml</dc:format><dc:type rdf:resource="http://purl.org/dc/dcmitype/StillImage"/><dc:title/></cc:Work></rdf:RDF></metadata><path d="m91.884 74.732h-15.294v-51.637c0-6.04-4.946-10.771-11.262-10.771h-47.694c-6.104 0-11.263 5.287-11.263 11.546 0 1.332 1.079 2.411 2.41 2.411h15.294v50.862c0 6.211 5.053 11.264 11.264 11.264h47.692c6.211 0 11.264-5.053 11.264-11.264 0-1.331-1.079-2.411-2.411-2.411zm-80.246-53.273c0.952-2.495 3.313-4.312 5.996-4.312 2.807 0 5.199 1.803 6.081 4.312h-12.077zm30.141 55.685c0 3.552-2.889 6.44-6.44 6.44s-6.441-2.889-6.441-6.44v-53.557c0-2.395-0.753-4.614-2.031-6.44h38.462c3.671 0 6.44 2.558 6.44 5.948v51.638h-27.578c-1.332-1e-3 -2.412 1.079-2.412 2.411zm41.252 6.44h-38.457c0.836-1.193 1.446-2.559 1.768-4.029h42.662c-0.955 2.361-3.273 4.029-5.973 4.029z"/><g transform="matrix(.45 0 0 .45 27.498 27.5)"><polygon points="79.5 19.1 81.7 14.8 77.4 16.9 13 81.3 12.1 80.4 76.6 15.8 84.5 12 80.6 19.8 16.1 84.3 15.2 83.4"/><path d="m12.3 88c-1.3 0-2.5-0.6-3.2-1.6-0.6-0.9-0.8-1.9-0.6-2.9s0.7-1.9 1.6-2.5c0.7-0.5 1.4-0.7 2.2-0.7 1.3 0 2.5 0.6 3.2 1.7 1.2 1.8 0.8 4.2-1 5.4-0.6 0.3-1.4 0.6-2.2 0.6zm0-6.5c-0.5 0-1 0.2-1.5 0.5-0.6 0.4-0.9 1-1.1 1.7-0.1 0.7 0 1.4 0.4 1.9 0.5 0.7 1.3 1.1 2.1 1.1 0.5 0 1-0.1 1.5-0.5 1.2-0.8 1.5-2.4 0.6-3.6-0.3-0.7-1.1-1.1-2-1.1z"/><rect transform="matrix(.7071 .7071 -.7071 .7071 58.649 5.2097)" x="20.9" y="65.8" width="4.2" height="15.1"/><path d="m37.9 31.6 0.7-2.2c0.9-2.7 2.4-5.2 4.4-7.2 2.9-2.9 6.6-4.7 10.6-5.1 3.8-0.4 7.7 0.4 11 2.3 0.9-0.5 1.8-1 2.8-1.3l0.7-0.3 0.2 0.7c0.4 1.7 1.1 3.4 2 4.9l-1.2 0.6c-0.9-1.4-1.5-3-1.9-4.6-0.8 0.3-1.5 0.7-2.2 1.1l-0.3 0.2-0.3-0.2c-6.6-4-15-3-20.4 2.5-1.4 1.4-2.4 2.9-3.2 4.6 2.3-1.5 4.9-2.5 7.7-2.9 3.5-0.5 7 0.1 10.2 1.7 1.8 0.9 3.4 2 4.8 3.4l-0.9 0.9c-1.3-1.3-2.8-2.4-4.5-3.2-6.1-3-13.3-2-18.3 2.5z"/><path d="m84.8 45.9-0.9-0.9c2.8-2.8 4.3-6.6 4.2-10.5-2.5 0.5-5.2 0.4-7.8-0.1l0.3-1.3c2.6 0.6 5.4 0.5 8 0l0.7-0.2 0.1 0.7c0.3 4.6-1.4 9.1-4.6 12.3z"/><path d="m73.7 52.7c-1.3 0-2.6-0.1-3.9-0.4l-0.8-0.2 0.3-0.7c1-2.6 1.3-5.5 0.9-8.3-0.5-3.6-2.1-6.8-4.7-9.4l0.9-0.9c2.8 2.8 4.5 6.2 5.1 10.1 0.4 2.8 0.1 5.6-0.7 8.3 5.3 0.9 10.8-0.8 14.6-4.6 3.9-3.9 5.6-9.3 4.6-14.7-3 1-6.1 1.1-9.2 0.5-3.4-0.7-6.5-2.4-9-4.9l0.9-0.9c4.6 4.6 11.4 6.1 17.5 3.8l0.7-0.3 0.2 0.7c0.7 2.9 0.6 5.9-0.2 8.8s-2.4 5.7-4.6 7.8c-3.4 3.4-7.9 5.3-12.6 5.3z"/><rect transform="matrix(.7071 .7071 -.7071 .7071 39.517 -41.13)" x="67.2" y="26.5" width="4.3" height="1.3"/><rect transform="matrix(.7071 .7071 -.7071 .7071 40.18 -39.616)" x="65.7" y="28" width="4.4" height="1.3"/><rect transform="matrix(.7071 .7071 -.7071 .7071 40.782 -38.077)" x="64.2" y="29.5" width="4.3" height="1.3"/></g></svg>
