<svg enable-background="new 0 0 100 100" version="1.1" viewBox="0 0 100 100" xml:space="preserve" xmlns="http://www.w3.org/2000/svg" xmlns:cc="http://creativecommons.org/ns#" xmlns:dc="http://purl.org/dc/elements/1.1/" xmlns:rdf="http://www.w3.org/1999/02/22-rdf-syntax-ns#"><metadata><rdf:RDF><cc:Work rdf:about=""><dc:format>image/svg+xml</dc:format><dc:type rdf:resource="http://purl.org/dc/dcmitype/StillImage"/><dc:title/></cc:Work></rdf:RDF></metadata><path d="m91.884 74.732h-15.294v-51.637c0-6.04-4.946-10.771-11.262-10.771h-47.694c-6.104 0-11.263 5.287-11.263 11.546 0 1.332 1.079 2.411 2.41 2.411h15.294v50.862c0 6.211 5.053 11.264 11.264 11.264h47.692c6.211 0 11.264-5.053 11.264-11.264 0-1.331-1.079-2.411-2.411-2.411zm-80.246-53.273c0.952-2.495 3.313-4.312 5.996-4.312 2.807 0 5.199 1.803 6.081 4.312h-12.077zm30.141 55.685c0 3.552-2.889 6.44-6.44 6.44s-6.441-2.889-6.441-6.44v-53.557c0-2.395-0.753-4.614-2.031-6.44h38.462c3.671 0 6.44 2.558 6.44 5.948v51.638h-27.578c-1.332-1e-3 -2.412 1.079-2.412 2.411zm41.252 6.44h-38.457c0.836-1.193 1.446-2.559 1.768-4.029h42.662c-0.955 2.361-3.273 4.029-5.973 4.029z"/><g transform="matrix(.45 0 0 .45 27.5 -403.06)"><path d="m50 957.36c-12.784 0-15.233 3.115-14.998 10.162l0.21096 3.8663c-0.20941-0.0662-0.42982-0.10614-0.66207-0.10614h-0.35028c-1.271 0-2.294 1.023-2.294 2.294v2.7372c0 1.2709 1.023 2.294 2.294 2.294h0.35028c0.37939 0 0.73018-0.1002 1.0429-0.2641l0.406 7.4102c0.32404 4.5203 2.9818 8.5856 14 8.5856 11.018 0 13.676-4.0653 14-8.5856l0.40599-7.4088c0.31236 0.1634 0.66399 0.2627 1.0429 0.2627h0.35028c1.271 0 2.294-1.0231 2.294-2.294v-2.7372c0-1.271-1.023-2.294-2.294-2.294h-0.35028c-0.2318 0-0.45301 0.0402-0.66207 0.10614l0.21096-3.8663c0.23542-7.0468-2.2137-10.162-14.998-10.162zm-8.6254 5.7543c0.20915-8e-3 0.42075-4e-3 0.6342 9e-3 2.8461 0.17971 6.0164 2.1639 7.9912 4.2006 1.9748-2.0367 5.1452-4.0209 7.9912-4.2006 1.7076-0.10788 3.2982 0.43425 4.4447 2.0034-0.63562-0.44216-1.4092-0.66339-2.2383-0.66339-1.7134 0-3.7313 0.99421-6.3566 3.1498-1.6581 1.3818-2.9844 2.7087-3.0397 2.7916l-0.80138 0.82925-0.80138-0.82925c-0.0553-0.0829-1.3815-1.4098-3.0397-2.7916-2.6254-2.1556-4.6432-3.1498-6.3566-3.1498-0.82907 0-1.6027 0.22123-2.2383 0.66339 1.0032-1.373 2.3464-1.9598 3.8105-2.0127zm-1.5722 3.5598c2.5425 0 7.5998 5.1957 7.5998 5.1957 0 0-2.0734 2.432-4.6159 2.432-2.5425 0-3.9375-0.78901-4.6146-2.432-0.67702-1.643-0.91186-5.1957 1.6306-5.1957zm20.395 0c2.5425 0 2.3063 3.5527 1.6293 5.1957-0.67702 1.643-2.0721 2.432-4.6146 2.432-2.5425 0-4.6146-2.432-4.6146-2.432 0-1e-5 5.0574-5.1957 7.5998-5.1957zm-13.394 8.6732c1.5936 0.069 1.9163 3.1429 1.7593 3.3461 0 0-2.4713-0.053-3.0569-0.8292-0.73568-0.9755-0.49754-2.1936 0.96192-2.4891 0.11778-0.024 0.22942-0.033 0.33568-0.028zm6.3367 0.016c0.10624 0 0.2179 0 0.33568 0.028 1.4595 0.2955 1.6976 1.5149 0.96192 2.4904-0.58564 0.7766-3.0569 0.8292-3.0569 0.8292-0.157-0.2031 0.16569-3.2783 1.7593-3.3475zm-3.1405 4.6955c8.8082 0 11.025 2.2926 11.165 6.0023 0.29035 7.6738-5.9594-2.899-11.165-2.899-5.2056 0-11.455 10.573-11.165 2.899 0.14037-3.7097 2.3567-6.0023 11.165-6.0023zm0 5.7237c1.0876 0 2.1744 0.2103 2.4161 0.6289 0.4834 0.8373 0.0068 5.5447-2.4161 5.5447-2.4228 0-2.9008-4.7074-2.4174-5.5447 0.2417-0.4186 1.3298-0.6289 2.4174-0.6289zm-12.26 7.1315c-1.2844 0.724-2.0442 2.1207-2.2608 3.3276-0.26488 1.1164-0.50949 12.794-0.76423 19.191-0.2772 5.8702 1.2687 6.1138 3.2267 6.1138 0 13.362 0.07366 9.3742 0 20.974 0 2.7176 0.82417 4.8401 4.0759 4.8401h15.964c3.2517 0 4.0759-2.1225 4.0759-4.8401-0.07366-11.6 0-7.6124 0-20.974 1.9581 0 3.5039-0.2436 3.2267-6.1138-0.25474-6.3969-0.49934-18.074-0.76423-19.191-0.21669-1.2069-0.97646-2.6036-2.2608-3.3276-0.07386 0.06-0.14484 0.1208-0.22157 0.1791-2.5162 1.911-6.3199 2.9442-12.038 2.9442-5.7181 0-9.5217-1.0332-12.038-2.9442-0.07673-0.058-0.14772-0.1193-0.22157-0.1791zm4.9967 5.9586a1.0191 1.0191 0 0 1 0.07165 0 1.0191 1.0191 0 0 1 0.99111 1.0761l-0.5891 14.181h13.577l-0.58776-14.181a1.0191 1.0191 0 0 1 0.95927-1.0747 1.0191 1.0191 0 0 1 1.076 0.9897l0.63288 15.242a1.0191 1.0191 0 0 1-1.0176 1.0614h-3.3952c0.47411 0.8146 0.6924 1.7533 0.69125 2.6854-0.0014 0.9317-0.22103 1.8702-0.69523 2.6841h3.3992a1.0191 1.0191 0 1 1 0 2.038h-6.8316v16.986c0.0195 1.378-2.0574 1.378-2.0379 0v-16.986h-6.8316a1.0191 1.0191 0 1 1 0-2.038h8.7767c0.76905 0 1.2234-0.2808 1.5908-0.7589 0.36743-0.4781 0.59107-1.1963 0.59174-1.9265 6.79e-4 -0.7302-0.22154-1.4481-0.58776-1.9252-0.36623-0.477-0.81975-0.7589-1.5948-0.7589h-8.7767a1.0191 1.0191 0 0 1-1.019-1.0614l0.63288-15.242a1.0191 1.0191 0 0 1 0.97387-0.9911zm-2.4678 43.469h7.6768c0 2.1199-0.03335 3.8384-3.8384 3.8384-3.805 0-3.8384-1.7185-3.8384-3.8384zm11.535 0h7.6755c0 2.1199-0.032 3.8384-3.8371 3.8384-3.805 0-3.8384-1.7185-3.8384-3.8384z" fill-rule="evenodd"/></g></svg>
