<svg xmlns="http://www.w3.org/2000/svg">
 <metadata>image/svg+xml</metadata>
 <g>
  <path id="svg_1" d="m91.884,74.732l-15.294,0l0,-51.637c0,-6.04 -4.946,-10.771 -11.262,-10.771l-47.694,0c-6.104,0 -11.263,5.287 -11.263,11.546c0,1.332 1.079,2.411 2.41,2.411l15.294,0l0,50.862c0,6.211 5.053,11.264 11.264,11.264l47.692,0c6.211,0 11.264,-5.053 11.264,-11.264c0,-1.331 -1.079,-2.411 -2.411,-2.411zm-80.246,-53.273c0.952,-2.495 3.313,-4.312 5.996,-4.312c2.807,0 5.199,1.803 6.081,4.312l-12.077,0zm30.141,55.685c0,3.552 -2.889,6.44 -6.44,6.44s-6.441,-2.889 -6.441,-6.44l0,-53.557c0,-2.395 -0.753,-4.614 -2.031,-6.44l38.462,0c3.671,0 6.44,2.558 6.44,5.948l0,51.638l-27.578,0c-1.332,-0.001 -2.412,1.079 -2.412,2.411zm41.252,6.44l-38.457,0c0.836,-1.193 1.446,-2.559 1.768,-4.029l42.662,0c-0.955,2.361 -3.273,4.029 -5.973,4.029z"/>
  <g stroke="null" id="svg_6">
   <path stroke="null" id="svg_5" d="m68.246947,35.142166c0.024082,-0.182858 0.007755,-0.41347 -0.04449,-0.649389c-0.08898,-0.393878 -0.260001,-0.715512 -0.437144,-0.817961c-0.077143,-0.044898 -0.144898,-0.043674 -0.186939,-0.034286c-0.00898,0.002041 -0.016735,0.008571 -0.025306,0.011837l-0.002449,-0.012653l-0.052653,0.038776c-0.008163,0.004898 -0.014694,0.009796 -0.022449,0.016327l-0.195102,0.142857c-0.106123,0.078776 -2.626128,1.932657 -3.28368,2.513883c-0.460817,0.404491 -0.68694,0.352246 -0.816736,0.277143c-0.2,-0.116735 -0.492246,-0.488572 -0.745716,-1.600003c-0.497144,-2.173474 -0.569797,-5.458379 -0.569797,-5.49144l-0.001224,-0.077959l-0.050612,-0.059592c-0.011837,-0.015102 -0.080408,-0.09347 -0.196327,-0.161225c-0.170204,-0.098776 -0.617961,-0.26449 -1.08041,0.33347l-0.044898,0.057551l-0.001224,0.074286c-0.072245,3.762049 0.553062,6.152666 1.161635,7.134709c0.43796,0.706124 -0.491838,1.723677 -0.911431,2.127351c-0.205715,0.19796 -0.399593,0.443266 -0.624899,0.72694c-0.429797,0.542042 -1.017961,1.284493 -2.084086,2.17878c-0.533471,0.44694 -0.955512,0.791838 -1.328166,1.096737c-0.754695,0.61592 -1.253064,1.022859 -1.866535,1.628575c-0.368164,0.362042 -1.191023,1.275513 -2.14327,2.333066c-1.383268,1.533473 -3.104088,3.443681 -4.045315,4.344091l-0.328572,0.314286c-1.752249,1.680004 -5.855115,5.61593 -8.309406,6.868994c-2.415924,1.234697 -4.772255,2.793475 -6.304095,4.171029l-1.350615,1.215513c-0.033469,0.024082 -0.074694,0.04 -0.101633,0.073878c-0.008571,0.009796 -0.015918,0.026123 -0.023265,0.038367l-0.068163,0.060408l0.025306,0.019592c-0.050204,0.126939 -0.068163,0.318776 0.071021,0.593062c0.116327,0.229388 0.318368,0.466123 0.569389,0.664491c0.095102,0.075102 0.194286,0.143266 0.294695,0.201225c0.450613,0.26245 0.857961,0.291021 1.092247,0.104898l0.008571,0.006531l0.03102,-0.035102c0.013469,-0.013061 0.033469,-0.017551 0.044898,-0.032653c0.011837,-0.015918 0.017551,-0.033469 0.027755,-0.049796l0.033061,-0.037551c0.024898,-0.027347 2.445311,-2.755108 4.602867,-4.201642c1.470615,-0.985308 2.579597,-1.586942 3.242864,-1.946127c0.343266,-0.187347 0.570613,-0.309797 0.69592,-0.402858c0.045306,-0.033469 0.095919,-0.030204 0.25796,0.000816c0.275511,0.052653 0.692655,0.133062 1.215513,-0.36245c0.315103,-0.299592 0.47143,-0.599593 0.464083,-0.893063c-0.003673,-0.131021 -0.04,-0.238776 -0.082449,-0.320817c0.710614,-0.679593 3.914294,-3.727355 4.540418,-4.138376c0.464491,-0.305307 0.875512,-0.824492 1.310207,-1.372248c0.277143,-0.348572 0.562858,-0.709389 0.863267,-1.011839c0.230205,-0.231837 0.801226,-0.826124 1.52286,-1.580003c1.661636,-1.732249 4.17307,-4.350213 4.791847,-4.880419c0.712246,-0.610205 1.668575,-1.419595 2.01878,-1.715514l0.374695,0.286123l0.587348,-0.637144l-0.066531,-0.137143c-0.002041,-0.003673 -0.187347,-0.389797 0.077143,-0.623267c0.103674,-0.091021 0.278776,-0.269796 0.520817,-0.517144c0.691838,-0.706124 1.979188,-2.020821 3.319191,-3.011843c1.800412,-1.330615 3.26164,-2.408577 3.26164,-2.408577l0.060816,-0.045306c0.022857,0.000408 0.044898,0.000408 0.061225,-0.003265c0.093061,-0.019592 0.210205,-0.104082 0.246531,-0.38694zm-24.175154,23.156376c-0.236327,0.197551 -0.523266,0.246123 -0.640818,0.106531c-0.118776,-0.140408 -0.022449,-0.415919 0.21347,-0.615103c0.236735,-0.197551 0.524083,-0.246123 0.642042,-0.106123c0.117551,0.140408 0.021225,0.414695 -0.214694,0.614695zm3.362048,-4.597969c-0.207347,0.227756 -0.484899,0.314286 -0.620818,0.192653c-0.135919,-0.123266 -0.078776,-0.409797 0.12898,-0.639593c0.208164,-0.227347 0.486532,-0.314286 0.622042,-0.191021c0.135919,0.123674 0.077959,0.408572 -0.130204,0.637961zm20.503309,-18.456366c-0.132245,0.029388 -0.305307,-0.241633 -0.38694,-0.604899c-0.081225,-0.364082 -0.04,-0.683267 0.092653,-0.712655c0.131429,-0.029388 0.305715,0.241633 0.386531,0.605307c0.081633,0.364082 0.040408,0.682042 -0.092245,0.712246z"/>
  </g>
 </g>
</svg>