<svg fill="#220077" xmlns="http://www.w3.org/2000/svg" xmlns:xlink="http://www.w3.org/1999/xlink" version="1.1" x="0px" y="0px" viewBox="0 4 100 100" enable-background="new 0 0 100 100" xml:space="preserve"><g display="none"><g display="inline"><path d="M69,91H30c-1.654,0-3-1.346-3-3V41c0-1.548,1.154-2.894,2.685-3.128L40,36.284V28h-3c-1.654,0-3-1.346-3-3V14    c0-1.654,1.346-3,3-3h25c1.654,0,3,1.346,3,3v11c0,1.654-1.346,3-3,3h-3v8.284l10.315,1.587C70.846,38.106,72,39.451,72,41v47    C72,89.654,70.654,91,69,91z M31,87h37V41.716l-10.315-1.587C56.154,39.894,55,38.549,55,37V27c0-1.654,1.346-3,3-3h3v-9H38v9h3    c1.654,0,3,1.346,3,3v10c0,1.548-1.154,2.894-2.685,3.128L31,41.716V87z"/></g></g><g display="none"><g display="inline"><defs><path id="b" d="M4,48c0,0,19,20,46,20s46-20,46-20S84,76,50,76S4,48,4,48z"/></defs><clipPath id="a"><use xlink:href="#b" overflow="visible"/></clipPath><polygon clip-path="url(#a)" fill="none" stroke="#000000" stroke-miterlimit="10" points="94,47.5 90,47.5 90.667,50.5     88,50.5 88.889,54.5 85,54.5 85.223,55.5 82,55.5 82.444,57.5 79,57.5 79.444,59.5 76,59.5 76.444,61.5 73,61.5 73.444,63.5     70,63.5 70.223,64.5 67,64.5 67.223,65.5 64,65.5 64.223,66.5 61,66.5 61.223,67.5 59,67.5 58,67.5 56,67.5 55,67.5 53,67.5     52,67.5 50,67.5 49,67.5 47,67.5 46,67.5 44,67.5 43,67.5 41,67.5 40,67.5 37.778,67.5 38,66.5 34.778,66.5 35,65.5 31.778,65.5     32,64.5 28.556,64.5 29,62.5 25.778,62.5 26,61.5 22.778,61.5 23,60.5 19.556,60.5 20,58.5 16.556,58.5 17,56.5 13.111,56.5     14,52.5 11.333,52.5 12,49.5 9.778,49.5 10,48.5 6,48.5 8,57.25 8.889,53.125 10,58.063 10.667,55.031 12,61.016 13.056,56.258     15,65.004 16.278,59.252 18,67.001 19.278,61.25 21,69 22.389,62.75 24,70 25.389,63.75 27,71 28.278,65.25 30,73 31.389,66.75     33,74 34.389,67.75 36,75 37.389,68.75 39,76 40.5,69.25 42,76 43.5,69.25 45,76 46.5,69.25 48,76 49.5,69.25 51,76 52.5,69.25     54,76 55.5,69.25 57,76 58.5,69.25 60,76 61.611,68.75 63,75 64.611,67.75 66,74 67.611,66.75 69,73 70.611,65.75 72,72     73.723,64.25 75,70 76.723,62.25 78,68 79.723,60.25 81,66 82.723,58.25 84,64 85.611,56.75 87,63 88.944,54.25 90,59 91.333,53     92,56.25   "/></g></g><g display="none"><path display="inline" d="M19.375,52.5"/><polygon display="inline" points="10,52 12,61 14,52  "/><polygon display="inline" points="8,49 10,58 12,49  "/><polygon display="inline" points="6,48 8,57 10,48  "/><polygon display="inline" points="13,56 15,65 17,56  "/><polygon display="inline" points="16,58 18,67 20,58  "/><polygon display="inline" points="19,60 21,69 23,60  "/><polygon display="inline" points="22,61 24,70 26,61  "/><polygon display="inline" points="25,62 27,71 29,62  "/><polygon display="inline" points="28,64 30,73 32,64  "/><polygon display="inline" points="31,65 33,74 35,65  "/><polygon display="inline" points="34,66 36,75 38,66  "/><polygon display="inline" points="37,67 39,76 41,67  "/><polygon display="inline" points="40,67 42,76 44,67  "/><polygon display="inline" points="43,67 45,76 47,67  "/><polygon display="inline" points="46,67 48,76 50,67  "/><polygon display="inline" points="49,67 51,76 53,67  "/><polygon display="inline" points="52,67 54,76 56,67  "/><polygon display="inline" points="55,67 57,76 59,67  "/><polygon display="inline" points="58,67 60,76 62,67  "/><polygon display="inline" points="61,66 63,75 65,66  "/><polygon display="inline" points="64,65 66,74 68,65  "/><polygon display="inline" points="67,64 69,73 71,64  "/><polygon display="inline" points="70,63 72,72 74,63  "/><polygon display="inline" points="73,61 75,70 77,61  "/><polygon display="inline" points="76,59 78,68 80,59  "/><polygon display="inline" points="79,57 81,66 83,57  "/><polygon display="inline" points="82,55 84,64 86,55  "/><polygon display="inline" points="85,54 87,63 89,54  "/><polygon display="inline" points="88,50 90,59 92,50  "/><polygon display="inline" points="90,47 92,56 94,47  "/></g><g display="none"><path display="inline" fill="none" stroke="#000000" stroke-miterlimit="10" d="M4,48c0,0,19,20,46,20s46-20,46-20S84,76,50,76   S4,48,4,48z"/></g><g display="none"><path display="inline" d="M20,31.579C20,31.579,34,47,46.578,51c0,0-14.048,0-18.313-2S20,31.579,20,31.579z"/><path display="inline" d="M71.734,49C77,46,80,31.579,80,31.579S68,44,53.421,51C53.421,51,66.469,52,71.734,49z"/></g><g display="none"><path display="inline" d="M48.38,60.18c-1.334,0,0.445-4.18,0.445-4.18S49.716,60.18,48.38,60.18z"/><path display="inline" d="M52.56,60.18c-1.334,0-0.946-4.18-0.946-4.18S53.896,60.18,52.56,60.18z"/></g><g><path fill="none" d="M52.165,68.455C51.448,68.483,50.728,68.5,50,68.5c-0.052,0-0.103-0.003-0.155-0.003L51,73.695L52.165,68.455z   "/><path fill="none" d="M24.708,69.116c0.504,0.284,1.02,0.562,1.546,0.833l-0.866-3.895L24.708,69.116z"/><path fill="none" d="M55.212,68.244c-0.787,0.074-1.582,0.133-2.385,0.174L54,73.695L55.212,68.244z"/><path fill="none" d="M64.266,67h-1.441c-0.345,0.08-0.688,0.161-1.037,0.235L63,72.695L64.266,67z"/><path fill="none" d="M36,72.695l1.261-5.676c-0.028-0.007-0.057-0.013-0.085-0.02h-2.441L36,72.695z"/><path fill="none" d="M58.266,68h-0.91c-0.523,0.07-1.048,0.137-1.578,0.192L57,73.695L58.266,68z"/><path fill="none" d="M33,71.695l1.213-5.46c-0.271-0.077-0.54-0.155-0.808-0.235h-1.671L33,71.695z"/><path fill="none" d="M18.897,65.267c0.298,0.23,0.604,0.458,0.913,0.685l-0.533-2.396L18.897,65.267z"/><path fill="none" d="M21,66.695l1.158-5.212c-0.316-0.16-0.625-0.321-0.934-0.483h-1.489L21,66.695z"/><path fill="none" d="M21.87,67.388c0.394,0.259,0.798,0.513,1.207,0.765l-0.688-3.098L21.87,67.388z"/><path fill="none" d="M30,70.695l1.199-5.396C30.914,65.201,30.634,65.1,30.352,65h-1.617L30,70.695z"/><path fill="none" d="M24,67.695l1.07-4.818c-0.636-0.287-1.259-0.579-1.871-0.877h-0.465L24,67.695z"/><path fill="none" d="M67.266,66h-0.67c-0.578,0.173-1.161,0.339-1.751,0.497L66,71.695L67.266,66z"/><path fill="none" d="M28.015,64.128c-0.763-0.303-1.505-0.619-2.239-0.94L27,68.695L28.015,64.128z"/><path fill="none" d="M10.357,54.109c-0.305-0.23-0.601-0.457-0.887-0.679l0.524,2.329L10.357,54.109z"/><path fill="none" d="M12.65,55.775c-0.538-0.376-1.06-0.749-1.554-1.113l0.902,4.05L12.65,55.775z"/><path fill="none" d="M12.798,59.728c0.222,0.235,0.443,0.472,0.675,0.709l-0.417-1.873L12.798,59.728z"/><path fill="none" d="M14.449,57h-0.716l1.052,4.733c0.117,0.111,0.235,0.224,0.355,0.336l0.899-4.048   C15.494,57.68,14.962,57.339,14.449,57z"/><path fill="none" d="M70.266,65h-0.617c-0.586,0.208-1.18,0.408-1.78,0.603L69,70.695L70.266,65z"/><path fill="none" d="M7.225,51.615l0.367,1.604c0.186,0.274,0.38,0.556,0.583,0.844l0.305-1.415   C8.03,52.287,7.615,51.944,7.225,51.615z"/><path fill="none" d="M5.824,50.406c0.05,0.087,0.109,0.184,0.162,0.274l-0.038-0.166C5.908,50.479,5.863,50.44,5.824,50.406z"/><path fill="none" d="M76.202,62.286c-0.712,0.338-1.44,0.669-2.183,0.992L75,67.695L76.202,62.286z"/><path fill="none" d="M15.991,62.849c0.237,0.213,0.471,0.426,0.716,0.638l-0.429-1.93L15.991,62.849z"/><path fill="none" d="M73.266,64h-0.97c-0.473,0.19-0.953,0.376-1.438,0.559L72,69.695L73.266,64z"/><path fill="none" d="M79.078,60.842c-0.631,0.335-1.276,0.664-1.937,0.989L78,65.695L79.078,60.842z"/><path fill="none" d="M17.64,59h-0.906l1.23,5.537c0.02,0.016,0.041,0.031,0.061,0.047l1.055-4.748   C18.589,59.559,18.11,59.279,17.64,59z"/><path fill="none" d="M81.995,59.217c-0.573,0.336-1.165,0.671-1.767,1.003L81,63.695L81.995,59.217z"/><path fill="none" d="M84.957,57.388c-0.544,0.353-1.101,0.706-1.678,1.06L84,61.695L84.957,57.388z"/><path fill="none" d="M27.598,70.616c0.496,0.237,1,0.469,1.515,0.692l-0.834-3.754L27.598,70.616z"/><path fill="none" d="M84.963,61.972c0.366-0.346,0.722-0.69,1.066-1.035l-0.418-1.882L84.963,61.972z"/><path fill="none" d="M81.796,64.725c0.538-0.43,1.062-0.862,1.564-1.298l-0.638-2.872L81.796,64.725z"/><path fill="none" d="M69.783,71.78c0.513-0.208,1.017-0.424,1.513-0.646l-0.685-3.08L69.783,71.78z"/><polygon fill="none" points="60,73.695 61.266,68 58.734,68  "/><path fill="none" d="M78.74,66.975c0.582-0.396,1.148-0.797,1.697-1.204l-0.715-3.216L78.74,66.975z"/><path fill="none" d="M75.77,68.841c0.573-0.332,1.134-0.671,1.68-1.017l-0.727-3.27L75.77,68.841z"/><path fill="none" d="M72.869,70.395c0.521-0.256,1.03-0.52,1.531-0.788l-0.678-3.052L72.869,70.395z"/><path fill="none" d="M93.645,51.296c0.19-0.312,0.371-0.613,0.531-0.89c-0.129,0.115-0.27,0.238-0.409,0.36L93.645,51.296z"/><path fill="none" d="M86.098,56.635l0.767,3.451c0.12-0.126,0.237-0.252,0.354-0.377l1.014-4.56   C87.559,55.635,86.847,56.132,86.098,56.635z"/><path fill="none" d="M91.735,52.474l0.272,1.328c0.02-0.027,0.039-0.055,0.058-0.082l0.427-1.868   C92.251,52.053,91.998,52.26,91.735,52.474z"/><path fill="none" d="M89.456,54.249l0.509,2.289c0.032-0.039,0.065-0.08,0.097-0.119l0.705-3.173   C90.353,53.571,89.912,53.907,89.456,54.249z"/><path fill="none" d="M88.576,58.21c0.201-0.231,0.392-0.459,0.583-0.688l-0.215-0.968L88.576,58.21z"/><path fill="none" d="M57.74,74.972c0.495-0.068,0.986-0.141,1.47-0.222l-0.71-3.195L57.74,74.972z"/><path fill="none" d="M66.76,72.886c0.535-0.178,1.063-0.36,1.58-0.552l-0.729-3.279L66.76,72.886z"/><path fill="none" d="M33.724,73.046c0.467,0.149,0.944,0.29,1.424,0.428l-0.76-3.419L33.724,73.046z"/><path fill="none" d="M30.738,71.984c0.468,0.185,0.939,0.366,1.422,0.539l-0.771-3.469L30.738,71.984z"/><path fill="none" d="M54.665,75.31c0.553-0.044,1.094-0.104,1.633-0.163L55.5,71.555L54.665,75.31z"/><path fill="none" d="M60.858,74.442c0.484-0.097,0.965-0.198,1.438-0.307l-0.685-3.081L60.858,74.442z"/><path fill="none" d="M63.783,73.778c0.529-0.139,1.043-0.291,1.557-0.444l-0.729-3.279L63.783,73.778z"/><path fill="none" d="M51.631,75.466c0.581-0.016,1.154-0.04,1.723-0.072L52.5,71.555L51.631,75.466z"/><path fill="none" d="M48.63,75.472c0.456,0.01,0.906,0.028,1.37,0.028c0.127,0,0.249-0.007,0.375-0.008L49.5,71.555L48.63,75.472z"/><path d="M88.232,55.149l-1.014,4.56c0.473-0.504,0.929-1.005,1.357-1.499l0.368-1.655l0.215,0.968   c0.278-0.332,0.547-0.66,0.806-0.984l-0.509-2.289C89.063,54.544,88.655,54.844,88.232,55.149z"/><path d="M17.64,59c-0.549-0.326-1.081-0.652-1.601-0.979l-0.899,4.048c0.277,0.26,0.561,0.52,0.851,0.779l0.287-1.292l0.429,1.93   c0.408,0.352,0.828,0.702,1.258,1.051L16.734,59H17.64z"/><path d="M90.767,53.246l-0.705,3.173c0.727-0.916,1.373-1.793,1.946-2.617l-0.272-1.328C91.426,52.725,91.105,52.981,90.767,53.246   z"/><path d="M14.449,57c-0.625-0.413-1.222-0.821-1.798-1.225l-0.651,2.937l-0.902-4.05c-0.254-0.187-0.498-0.37-0.74-0.553   l-0.363,1.65L9.47,53.431c-0.343-0.267-0.675-0.529-0.99-0.782l-0.305,1.415c1.214,1.72,2.746,3.663,4.623,5.664l0.258-1.164   l0.417,1.873c0.42,0.432,0.86,0.864,1.313,1.297L13.733,57H14.449z"/><path d="M5.948,50.515l0.038,0.166c0.436,0.742,0.969,1.597,1.605,2.54l-0.367-1.604C6.755,51.221,6.329,50.852,5.948,50.515z"/><path d="M92.492,51.852l-0.427,1.868c0.611-0.881,1.137-1.696,1.579-2.424l0.122-0.53C93.382,51.102,92.957,51.465,92.492,51.852z"/><g><path fill="none" d="M36,72.695l1.261-5.676c-0.028-0.007-0.057-0.013-0.085-0.02h-2.441L36,72.695z"/><path fill="none" d="M33,71.695l1.213-5.46c-0.271-0.077-0.54-0.155-0.808-0.235h-1.671L33,71.695z"/><path fill="none" d="M30,70.695l1.199-5.396C30.914,65.201,30.634,65.1,30.352,65h-1.617L30,70.695z"/><path fill="none" d="M42,73.695l1.249-5.619c-0.202-0.025-0.403-0.049-0.604-0.076h-1.91L42,73.695z"/><path fill="none" d="M46.185,68.363c-0.814-0.057-1.621-0.132-2.419-0.223L45,73.695L46.185,68.363z"/><path fill="none" d="M24,67.695l1.07-4.818c-0.636-0.287-1.259-0.579-1.871-0.877h-0.465L24,67.695z"/><path fill="none" d="M18.897,65.267c0.298,0.23,0.604,0.458,0.913,0.685l-0.533-2.396L18.897,65.267z"/><path fill="none" d="M21.87,67.388c0.394,0.259,0.798,0.513,1.207,0.765l-0.688-3.098L21.87,67.388z"/><path fill="none" d="M24.708,69.116c0.504,0.284,1.02,0.562,1.546,0.833l-0.866-3.895L24.708,69.116z"/><path fill="none" d="M49.158,68.484c-0.785-0.012-1.563-0.041-2.335-0.086L48,73.695L49.158,68.484z"/><path fill="none" d="M21,66.695l1.158-5.212c-0.316-0.16-0.625-0.321-0.934-0.483h-1.489L21,66.695z"/><path fill="none" d="M28.015,64.128c-0.763-0.303-1.505-0.619-2.239-0.94L27,68.695L28.015,64.128z"/><path fill="none" d="M76.202,62.286c-0.712,0.338-1.44,0.669-2.183,0.992L75,67.695L76.202,62.286z"/><path fill="none" d="M81.995,59.217c-0.573,0.336-1.165,0.671-1.767,1.003L81,63.695L81.995,59.217z"/><path fill="none" d="M79.078,60.842c-0.631,0.335-1.276,0.664-1.937,0.989L78,65.695L79.078,60.842z"/><path fill="none" d="M84.957,57.388c-0.544,0.353-1.101,0.706-1.678,1.06L84,61.695L84.957,57.388z"/><path fill="none" d="M17.64,59c-0.549-0.326-1.081-0.652-1.601-0.979c-0.545-0.342-1.077-0.683-1.59-1.021    c-0.625-0.413-1.222-0.821-1.798-1.225c-0.538-0.376-1.06-0.749-1.554-1.113c-0.254-0.187-0.498-0.37-0.74-0.553    c-0.305-0.23-0.601-0.457-0.887-0.679c-0.343-0.267-0.675-0.529-0.99-0.782c-0.449-0.361-0.864-0.704-1.255-1.033    c-0.469-0.395-0.896-0.763-1.277-1.101c-0.04-0.035-0.085-0.074-0.124-0.109c0.05,0.087,0.109,0.184,0.162,0.274    c0.436,0.742,0.969,1.597,1.605,2.54c0.186,0.274,0.38,0.556,0.583,0.844c1.214,1.72,2.746,3.663,4.623,5.664    c0.222,0.235,0.443,0.472,0.675,0.709c0.42,0.432,0.86,0.864,1.313,1.297c0.117,0.111,0.235,0.224,0.355,0.336    c0.277,0.26,0.561,0.52,0.851,0.779c0.237,0.213,0.471,0.426,0.716,0.638c0.408,0.352,0.828,0.702,1.258,1.051    c0.02,0.016,0.041,0.031,0.061,0.047l1.055-4.748C18.589,59.559,18.11,59.279,17.64,59z"/><path fill="none" d="M27.598,70.616c0.496,0.237,1,0.469,1.515,0.692l-0.834-3.754L27.598,70.616z"/><path fill="none" d="M52.165,68.455C51.448,68.483,50.728,68.5,50,68.5c-0.052,0-0.103-0.003-0.155-0.003L51,73.695L52.165,68.455    z"/><path fill="none" d="M70.266,65h-0.617c-0.586,0.208-1.18,0.408-1.78,0.603L69,70.695L70.266,65z"/><path fill="none" d="M58.266,68h-0.91c-0.523,0.07-1.048,0.137-1.578,0.192L57,73.695L58.266,68z"/><path fill="none" d="M55.212,68.244c-0.787,0.074-1.582,0.133-2.385,0.174L54,73.695L55.212,68.244z"/><path fill="none" d="M67.266,66h-0.67c-0.578,0.173-1.161,0.339-1.751,0.497L66,71.695L67.266,66z"/><path fill="none" d="M64.266,67h-1.441c-0.345,0.08-0.688,0.161-1.037,0.235L63,72.695L64.266,67z"/><path fill="none" d="M73.266,64h-0.97c-0.473,0.19-0.953,0.376-1.438,0.559L72,69.695L73.266,64z"/><path fill="none" d="M81.796,64.725c0.538-0.43,1.062-0.862,1.564-1.298l-0.638-2.872L81.796,64.725z"/><path fill="none" d="M78.74,66.975c0.582-0.396,1.148-0.797,1.697-1.204l-0.715-3.216L78.74,66.975z"/><path fill="none" d="M75.77,68.841c0.573-0.332,1.134-0.671,1.68-1.017l-0.727-3.27L75.77,68.841z"/><path fill="none" d="M69.783,71.78c0.513-0.208,1.017-0.424,1.513-0.646l-0.685-3.08L69.783,71.78z"/><path fill="none" d="M72.869,70.395c0.521-0.256,1.03-0.52,1.531-0.788l-0.678-3.052L72.869,70.395z"/><polygon fill="none" points="60,73.695 61.266,68 58.734,68   "/><path fill="none" d="M84.963,61.972c0.366-0.346,0.722-0.69,1.066-1.035l-0.418-1.882L84.963,61.972z"/><path fill="none" d="M30.738,71.984c0.468,0.185,0.939,0.366,1.422,0.539l-0.771-3.469L30.738,71.984z"/><path fill="none" d="M92.492,51.852c-0.241,0.201-0.494,0.408-0.757,0.622c-0.31,0.251-0.63,0.508-0.969,0.772    c-0.414,0.325-0.854,0.661-1.311,1.003c-0.393,0.295-0.801,0.595-1.224,0.9c-0.674,0.485-1.386,0.982-2.135,1.485l0.767,3.451    c0.12-0.126,0.237-0.252,0.354-0.377c0.473-0.504,0.929-1.005,1.357-1.499c0.201-0.231,0.392-0.459,0.583-0.688    c0.278-0.332,0.547-0.66,0.806-0.984c0.032-0.039,0.065-0.08,0.097-0.119c0.727-0.916,1.373-1.793,1.946-2.617    c0.02-0.027,0.039-0.055,0.058-0.082c0.611-0.881,1.137-1.696,1.579-2.424c0.19-0.312,0.371-0.613,0.531-0.89    c-0.129,0.115-0.27,0.238-0.409,0.36C93.382,51.102,92.957,51.465,92.492,51.852z"/><path fill="none" d="M66.76,72.886c0.535-0.178,1.063-0.36,1.58-0.552l-0.729-3.279L66.76,72.886z"/><polygon fill="none" points="39,73.695 40.266,68 37.734,68   "/><path fill="none" d="M45.661,75.331c0.563,0.042,1.126,0.082,1.702,0.107L46.5,71.555L45.661,75.331z"/><path fill="none" d="M42.725,75.042c0.521,0.066,1.055,0.117,1.587,0.17L43.5,71.555L42.725,75.042z"/><path fill="none" d="M63.783,73.778c0.529-0.139,1.043-0.291,1.557-0.444l-0.729-3.279L63.783,73.778z"/><path fill="none" d="M36.755,73.907c0.442,0.111,0.886,0.222,1.339,0.322l-0.706-3.175L36.755,73.907z"/><path fill="none" d="M39.829,74.576c0.46,0.086,0.926,0.165,1.396,0.239L40.5,71.555L39.829,74.576z"/><path fill="none" d="M33.724,73.046c0.467,0.149,0.944,0.29,1.424,0.428l-0.76-3.419L33.724,73.046z"/><path fill="none" d="M60.858,74.442c0.484-0.097,0.965-0.198,1.438-0.307l-0.685-3.081L60.858,74.442z"/><path fill="none" d="M54.665,75.31c0.553-0.044,1.094-0.104,1.633-0.163L55.5,71.555L54.665,75.31z"/><path fill="none" d="M57.74,74.972c0.495-0.068,0.986-0.141,1.47-0.222l-0.71-3.195L57.74,74.972z"/><path fill="none" d="M48.63,75.472c0.456,0.01,0.906,0.028,1.37,0.028c0.127,0,0.249-0.007,0.375-0.008L49.5,71.555L48.63,75.472z    "/><path fill="none" d="M51.631,75.466c0.581-0.016,1.154-0.04,1.723-0.072L52.5,71.555L51.631,75.466z"/><path d="M84.957,57.388L84,61.695l-0.721-3.248c-0.42,0.257-0.848,0.514-1.284,0.77L81,63.695l-0.771-3.476    c-0.378,0.209-0.761,0.416-1.15,0.622L78,65.695l-0.858-3.864c-0.311,0.152-0.623,0.305-0.939,0.455L75,67.695l-0.98-4.417    c-0.566,0.246-1.14,0.486-1.724,0.722h0.97L72,69.695l-1.142-5.137c-0.399,0.15-0.803,0.297-1.21,0.441h0.617L69,70.695    l-1.132-5.093c-0.421,0.136-0.845,0.27-1.272,0.397h0.67L66,71.695l-1.155-5.198c-0.665,0.178-1.34,0.345-2.021,0.503h1.441    L63,72.695l-1.213-5.46c-1.444,0.308-2.924,0.563-4.432,0.765h0.91L57,73.695l-1.223-5.503c-0.188,0.02-0.378,0.033-0.565,0.052    L54,73.695l-1.173-5.277c-0.221,0.012-0.44,0.027-0.662,0.037L51,73.695l-1.155-5.198c-0.23-0.001-0.458-0.009-0.687-0.013    L48,73.695l-1.177-5.297c-0.213-0.012-0.427-0.02-0.639-0.035L45,73.695l-1.234-5.555c-0.173-0.02-0.344-0.043-0.517-0.064    L42,73.695L40.734,68h1.91c-1.842-0.246-3.638-0.578-5.384-0.98L36,72.695L34.734,67h2.441c-1.004-0.233-1.992-0.488-2.963-0.765    L33,71.695L31.734,66h1.671c-0.746-0.224-1.483-0.456-2.207-0.701L30,70.695L28.734,65h1.617c-0.791-0.28-1.573-0.569-2.336-0.872    L27,68.695l-1.224-5.508c-0.236-0.104-0.474-0.205-0.706-0.311L24,67.695L22.734,62h0.465c-0.351-0.171-0.698-0.343-1.042-0.517    L21,66.695L19.734,61h1.489c-0.733-0.384-1.45-0.771-2.144-1.164l-1.055,4.748c0.285,0.229,0.578,0.456,0.873,0.683l0.38-1.712    l0.533,2.396c0.664,0.487,1.347,0.968,2.06,1.437l0.519-2.333l0.688,3.098c0.531,0.328,1.075,0.649,1.631,0.964l0.68-3.062    l0.866,3.895c0.44,0.228,0.888,0.449,1.343,0.667l0.68-3.062l0.834,3.754c0.532,0.232,1.073,0.459,1.625,0.676l0.651-2.93    l0.771,3.469c0.511,0.183,1.037,0.354,1.564,0.522l0.665-2.991l0.76,3.419c0.528,0.151,1.063,0.298,1.606,0.434l0.634-2.853    l0.706,3.175c0.568,0.126,1.149,0.238,1.734,0.347l0.671-3.021l0.725,3.261c0.497,0.079,0.992,0.16,1.5,0.227l0.775-3.487    l0.813,3.657c0.446,0.044,0.894,0.085,1.349,0.119l0.839-3.776l0.863,3.884c0.416,0.019,0.843,0.023,1.267,0.033l0.87-3.917    l0.875,3.938c0.423-0.003,0.84-0.015,1.256-0.026l0.869-3.911l0.854,3.839c0.439-0.025,0.88-0.049,1.312-0.084l0.835-3.755    l0.798,3.592c0.485-0.054,0.968-0.109,1.442-0.175l0.76-3.417l0.71,3.195c0.559-0.093,1.104-0.198,1.648-0.308l0.753-3.388    l0.685,3.081c0.5-0.115,1.001-0.229,1.487-0.357l0.828-3.724l0.729,3.279c0.48-0.143,0.952-0.294,1.42-0.448l0.852-3.831    l0.729,3.279c0.487-0.18,0.972-0.361,1.443-0.554l0.828-3.726l0.685,3.08c0.535-0.239,1.058-0.487,1.573-0.74l0.854-3.84    l0.678,3.052c0.466-0.25,0.921-0.506,1.369-0.766l0.953-4.286l0.727,3.27c0.439-0.279,0.869-0.563,1.291-0.85l0.982-4.42    l0.715,3.216c0.464-0.346,0.917-0.694,1.358-1.046l0.927-4.17l0.638,2.872c0.558-0.482,1.087-0.969,1.603-1.455l0.648-2.917    l0.418,1.882c0.285-0.284,0.564-0.568,0.835-0.851l-0.767-3.451C85.727,56.885,85.347,57.136,84.957,57.388z M39,73.695L37.734,68    h2.531L39,73.695z M60,73.695L58.734,68h2.531L60,73.695z"/><path d="M95.638,47.656C95.449,47.854,76.465,67.5,50,67.5S4.551,47.854,4.362,47.656l-1.919-2.019l1.097,2.56    C3.662,48.48,16.063,76.5,50,76.5c33.938,0,46.338-28.02,46.46-28.303l1.097-2.56L95.638,47.656z M93.645,51.296    c-0.442,0.728-0.968,1.543-1.579,2.424c-0.019,0.027-0.038,0.055-0.058,0.082c-0.573,0.824-1.22,1.701-1.946,2.617    c-0.031,0.039-0.064,0.08-0.097,0.119c-0.259,0.324-0.527,0.652-0.806,0.984c-0.191,0.229-0.382,0.456-0.583,0.688    c-0.429,0.494-0.885,0.995-1.357,1.499c-0.117,0.125-0.234,0.251-0.354,0.377c-0.271,0.282-0.55,0.566-0.835,0.851    c-0.345,0.345-0.7,0.689-1.066,1.035c-0.516,0.486-1.045,0.973-1.603,1.455c-0.503,0.436-1.026,0.868-1.564,1.298    c-0.441,0.352-0.895,0.7-1.358,1.046c-0.549,0.407-1.115,0.809-1.697,1.204c-0.422,0.287-0.852,0.57-1.291,0.85    c-0.546,0.346-1.106,0.685-1.68,1.017c-0.448,0.26-0.903,0.516-1.369,0.766c-0.501,0.269-1.01,0.532-1.531,0.788    c-0.516,0.253-1.038,0.501-1.573,0.74c-0.496,0.222-1,0.438-1.513,0.646c-0.472,0.192-0.956,0.374-1.443,0.554    c-0.518,0.191-1.045,0.374-1.58,0.552c-0.468,0.154-0.939,0.306-1.42,0.448c-0.514,0.153-1.027,0.306-1.557,0.444    c-0.486,0.128-0.987,0.242-1.487,0.357c-0.473,0.108-0.953,0.21-1.438,0.307c-0.544,0.109-1.09,0.215-1.648,0.308    c-0.483,0.081-0.975,0.153-1.47,0.222c-0.475,0.065-0.957,0.121-1.442,0.175c-0.539,0.06-1.08,0.119-1.633,0.163    c-0.432,0.035-0.872,0.059-1.312,0.084c-0.568,0.032-1.142,0.057-1.723,0.072c-0.416,0.012-0.833,0.023-1.256,0.026    C50.249,75.493,50.127,75.5,50,75.5c-0.464,0-0.914-0.019-1.37-0.028c-0.423-0.01-0.851-0.015-1.267-0.033    c-0.576-0.025-1.14-0.065-1.702-0.107c-0.455-0.034-0.903-0.075-1.349-0.119c-0.532-0.053-1.067-0.104-1.587-0.17    c-0.509-0.066-1.003-0.147-1.5-0.227c-0.47-0.074-0.936-0.153-1.396-0.239c-0.585-0.108-1.166-0.221-1.734-0.347    c-0.453-0.101-0.897-0.211-1.339-0.322c-0.544-0.136-1.078-0.282-1.606-0.434c-0.48-0.138-0.957-0.278-1.424-0.428    c-0.528-0.169-1.053-0.34-1.564-0.522c-0.483-0.173-0.954-0.354-1.422-0.539c-0.552-0.217-1.093-0.443-1.625-0.676    c-0.515-0.224-1.019-0.455-1.515-0.692c-0.455-0.218-0.903-0.439-1.343-0.667c-0.526-0.271-1.042-0.549-1.546-0.833    c-0.557-0.314-1.1-0.636-1.631-0.964c-0.409-0.252-0.813-0.506-1.207-0.765c-0.712-0.469-1.396-0.949-2.06-1.437    c-0.309-0.227-0.615-0.454-0.913-0.685c-0.294-0.227-0.588-0.453-0.873-0.683c-0.02-0.016-0.041-0.031-0.061-0.047    c-0.43-0.349-0.85-0.699-1.258-1.051c-0.245-0.212-0.479-0.425-0.716-0.638c-0.29-0.26-0.573-0.52-0.851-0.779    c-0.12-0.112-0.238-0.225-0.355-0.336c-0.452-0.433-0.893-0.865-1.313-1.297c-0.231-0.237-0.453-0.474-0.675-0.709    c-1.877-2.001-3.409-3.944-4.623-5.664c-0.203-0.288-0.398-0.569-0.583-0.844c-0.637-0.942-1.17-1.798-1.605-2.54    c-0.053-0.091-0.112-0.188-0.162-0.274c0.039,0.035,0.084,0.074,0.124,0.109c0.381,0.337,0.808,0.706,1.277,1.101    c0.391,0.329,0.806,0.672,1.255,1.033c0.315,0.253,0.647,0.516,0.99,0.782c0.286,0.222,0.582,0.448,0.887,0.679    c0.242,0.183,0.486,0.366,0.74,0.553c0.494,0.364,1.016,0.737,1.554,1.113c0.576,0.403,1.173,0.812,1.798,1.225    c0.513,0.339,1.045,0.68,1.59,1.021c0.52,0.326,1.052,0.652,1.601,0.979c0.47,0.279,0.949,0.559,1.44,0.836    c0.693,0.393,1.411,0.78,2.144,1.164c0.309,0.162,0.618,0.323,0.934,0.483c0.343,0.174,0.69,0.346,1.042,0.517    c0.612,0.298,1.235,0.59,1.871,0.877c0.232,0.105,0.47,0.207,0.706,0.311c0.733,0.321,1.476,0.638,2.239,0.94    c0.763,0.303,1.545,0.592,2.336,0.872c0.282,0.1,0.562,0.201,0.847,0.299c0.724,0.245,1.461,0.478,2.207,0.701    c0.268,0.08,0.537,0.158,0.808,0.235c0.971,0.276,1.958,0.531,2.963,0.765c0.028,0.007,0.057,0.013,0.085,0.02    c1.746,0.402,3.542,0.734,5.384,0.98c0.201,0.027,0.402,0.051,0.604,0.076c0.173,0.021,0.344,0.045,0.517,0.064    c0.798,0.091,1.604,0.166,2.419,0.223c0.212,0.016,0.426,0.023,0.639,0.035c0.771,0.045,1.55,0.074,2.335,0.086    c0.229,0.004,0.456,0.012,0.687,0.013c0.052,0,0.103,0.003,0.155,0.003c0.728,0,1.448-0.017,2.165-0.045    c0.222-0.01,0.441-0.025,0.662-0.037c0.803-0.041,1.598-0.1,2.385-0.174c0.188-0.019,0.378-0.032,0.565-0.052    c0.53-0.056,1.055-0.122,1.578-0.192c1.508-0.201,2.987-0.457,4.432-0.765c0.349-0.074,0.692-0.155,1.037-0.235    c0.681-0.158,1.355-0.325,2.021-0.503c0.59-0.158,1.173-0.324,1.751-0.497c0.428-0.128,0.852-0.262,1.272-0.397    c0.601-0.194,1.194-0.395,1.78-0.603c0.407-0.145,0.811-0.291,1.21-0.441c0.484-0.183,0.965-0.368,1.438-0.559    c0.584-0.235,1.157-0.476,1.724-0.722c0.742-0.323,1.471-0.654,2.183-0.992c0.316-0.15,0.629-0.303,0.939-0.455    c0.66-0.325,1.306-0.654,1.937-0.989c0.39-0.206,0.772-0.413,1.15-0.622c0.602-0.332,1.193-0.667,1.767-1.003    c0.437-0.256,0.864-0.513,1.284-0.77c0.577-0.354,1.134-0.707,1.678-1.06c0.39-0.252,0.77-0.503,1.141-0.753    c0.749-0.503,1.461-1,2.135-1.485c0.423-0.306,0.831-0.605,1.224-0.9c0.456-0.342,0.896-0.678,1.311-1.003    c0.339-0.265,0.659-0.521,0.969-0.772c0.263-0.214,0.516-0.421,0.757-0.622c0.465-0.387,0.89-0.75,1.274-1.086    c0.14-0.122,0.28-0.245,0.409-0.36C94.016,50.683,93.835,50.984,93.645,51.296z"/></g><path d="M28.265,49c4.265,2,18.313,2,18.313,2C34,47,20,31.579,20,31.579S24,47,28.265,49z"/><path d="M71.734,49C77,46,80,31.579,80,31.579S68,44,53.421,51C53.421,51,66.469,52,71.734,49z"/><path d="M48.38,60.18c1.335,0,0.445-4.18,0.445-4.18S47.046,60.18,48.38,60.18z"/><path d="M52.56,60.18c1.336,0-0.946-4.18-0.946-4.18S51.226,60.18,52.56,60.18z"/></g></svg>