<svg fill="#999999" xmlns="http://www.w3.org/2000/svg" data-name="Layer 1" viewBox="0 0 100 100" x="0px" y="0px"><title>WeaponsArtboards</title><path d="M76,35.29A154.2,154.2,0,0,0,44.14,45.58l-.13.06,0,.14s-.17,1.13-1,1.4l-.17.05a.62.62,0,0,0-.51,0A.63.63,0,0,0,42,48l.13.32a.62.62,0,1,0-1.16.46l.13.32a.62.62,0,0,0-1.16.46l.1.24a.63.63,0,0,0-1.16.46l.09.23a.63.63,0,0,0-1.16.46l.11.27a.62.62,0,0,0-1.16.46l.07.17a.62.62,0,1,0-1.16.46.63.63,0,0,0-1.16.46.62.62,0,0,0-1.16.46.63.63,0,0,0-.81-.35h0a.63.63,0,0,0-.35.81.63.63,0,0,0-1.16.46.63.63,0,1,0-1.16.46.63.63,0,0,0-.81-.35h0a.63.63,0,0,0-.35.81.62.62,0,1,0-1.16.46l-.07-.17a.62.62,0,1,0-1.16.46l-.06-.15a.63.63,0,1,0-1.16.46L25,56a.62.62,0,1,0-1.16.46.62.62,0,1,0-1.16.46l.07.17a5.08,5.08,0,1,0,1.77,4.47l.07.17a.63.63,0,1,0,1.16-.46.62.62,0,1,0,1.16-.46l-.05-.13A.63.63,0,1,0,28,60.25l-.06-.15a.63.63,0,1,0,1.16-.46L29,59.47A.63.63,0,1,0,30.19,59a.63.63,0,0,0,.81.35h0a.63.63,0,0,0,.35-.81.63.63,0,1,0,1.16-.46.62.62,0,1,0,1.16-.46.63.63,0,0,0,.81.35h0a.63.63,0,0,0,.35-.81A.63.63,0,0,0,36,56.72a.63.63,0,0,0,1.16-.46.62.62,0,0,0,1.16-.46l.07.17a.63.63,0,0,0,1.16-.46l.11.27a.63.63,0,0,0,1.16-.46l.09.23a.63.63,0,1,0,1.16-.46l.1.24a.62.62,0,1,0,1.16-.46l.13.32a.62.62,0,0,0,1.16-.46l.13.32a.63.63,0,0,0,.81.35.62.62,0,0,0,.35-.37l.16-.07a1.85,1.85,0,0,1,1.68.34l.11.09.13,0A154.22,154.22,0,0,0,78.27,41.09a59.65,59.65,0,0,0,9.06-6.69l.42-.41h-.59A59.67,59.67,0,0,0,76,35.29ZM20.53,64.56A3.73,3.73,0,1,1,23,59.91,3.73,3.73,0,0,1,20.53,64.56ZM44.72,50.87,43.4,47.55A2.35,2.35,0,0,0,44.46,46c23.16-10,37.81-11.33,41.67-11.49Zm3.24,4a2.62,2.62,0,0,0-1.39-.47,1.66,1.66,0,0,0-.45.06L44.81,51.1,86.22,34.73C83.29,37.25,71.72,46.33,48,54.83Z"></path></svg>