<svg xmlns="http://www.w3.org/2000/svg" xmlns:xlink="http://www.w3.org/1999/xlink" xml:space="preserve" version="1.1" style="shape-rendering:geometricPrecision;text-rendering:geometricPrecision;image-rendering:optimizeQuality;" viewBox="0 0 508000 508000" x="0px" y="0px" fill-rule="evenodd" clip-rule="evenodd"><defs><style type="text/css">
   
    .fil0 {fill:black}
   
  </style></defs><g><path class="fil0" d="M222000 446170c1140,-2010 -830,-470 1770,-2090 760,-480 1760,-480 2490,-660 -1110,3310 -810,3920 -4260,2750zm82900 -254700c-1160,2410 -1290,2920 -4240,3880l-670 -2870 4910 -1010zm38480 -14480c-1840,3940 -3150,6440 -7120,7370 1710,-4450 3540,-5020 7120,-7370zm-68640 -2400c1600,-560 3230,-620 5220,-1250l3810 -2180c-2800,-3230 -3470,-1780 -8350,-3210 1690,-2030 1160,-2120 3450,-3330 5070,3170 13570,13190 15380,20280l-14710 -1710c6380,-3030 6760,-1320 7490,-5470 -3800,-3280 -8320,-1700 -12290,-3130zm-39090 -13500c5650,-2430 6480,-4800 14460,-5660l-2380 2410c5030,-700 9860,-900 15140,400 -2800,2030 -18150,3630 -22500,5220 16000,940 29990,-9580 35710,1110 -1440,1570 -1120,1720 -4110,2420 -2170,510 -4190,540 -6410,550 -4150,10 -7730,-600 -10690,880l8160 560c-4450,3800 -14300,2490 -18630,4640 10360,2970 28720,-9310 35930,-2340 -8440,2320 -14080,2650 -22860,4300 -1840,350 -2920,1230 -5320,1720l-15210 2130c-190,40 -480,140 -630,180l-1010 570c8230,3030 33250,-7980 49040,-2380 -1410,2310 -5400,3030 -8270,3870 -3700,1090 -6470,1550 -10510,1690 -5180,190 -5870,1590 -9930,2330 -3190,590 -6710,-350 -8720,1050 4500,2620 17250,-1320 22720,-1720 6150,-450 15460,-460 21650,1410 3160,960 1240,490 2140,1130 -8550,6050 -31170,9050 -42770,12140 -3800,1010 -1300,330 -2600,1190 7380,-60 15830,-2190 22640,-4150 5620,-1610 5300,-230 10480,270 2910,280 6540,-150 9270,990 1920,810 430,200 1680,1370l-32560 8460c-4370,1130 -7570,-730 -8670,2570 5430,280 19100,-3250 24540,-4810 9400,-2700 19860,-2770 20500,-8250 -4720,-1450 -13180,-1700 -18850,-1550 2420,-2100 15120,-5430 18760,-6380l3690 15290c470,2500 670,1540 1260,4230 1530,6930 960,15380 830,22930 -250,13610 -4060,27770 -6100,41630l-9110 -1220c1400,700 1810,560 3040,1130 1130,520 670,300 1670,980l1010 910c-4500,3940 -12910,5070 -18420,6460 -3230,820 -18760,2870 -20050,4200 5740,3520 33790,-6540 40160,-8140 170,6640 -6580,38560 -9300,46730l-5130 -840c1210,1770 2290,2470 -930,3810 -1690,700 -4010,1140 -5800,1640 -3080,850 -8860,1750 -10320,4360 3560,2190 18460,-4830 21410,-6610 -1020,8180 -5430,20770 -8740,28350 -820,1870 -1960,3200 -2560,4780 -1650,4310 -2210,6430 -3820,10090 -1620,3680 -4800,12250 -7870,14400 -6390,4460 -19960,6270 -25230,10490 1570,2300 2110,1200 5360,-60l18660 -7160 -8710 17030c-4300,9000 -9230,16730 -14340,25060 -7360,12010 -7210,9840 -13630,12630 -2550,1110 -6900,2310 -7960,4970 2130,1180 3020,310 5850,-160l-2300 2260c-2000,1320 -5180,2080 -6420,3640 190,90 430,250 550,280 110,30 390,180 540,200 150,20 400,80 570,90l4080 -870c-1870,5040 -7300,10850 -11240,13980 -2610,-2910 -600,-4170 1100,-7600 4120,-8280 7070,-19630 10140,-25130 3640,-6530 9100,-28830 10370,-37410 1580,-10650 6370,-30610 4860,-41200 -2130,-14830 -2040,-27460 -6540,-41230 -2060,-6290 -3340,-11880 -5110,-18710 -4230,-16230 -12420,-25500 -17360,-53920 -2360,-13560 -5350,-32070 -1740,-46140 770,-3000 230,-920 900,-2300l8830 -18680c220,-950 1440,-2920 2050,-3390 1720,-1330 190,-450 1490,-200 130,20 100,2330 700,280 30,-110 230,90 350,80 4020,-1740 9010,-14590 23420,-14910 -1540,1920 -2860,3170 -4350,4650zm107730 15900c-580,-510 240,-2060 -3580,-610 -2070,790 -4540,4480 -5470,7130 -1270,3650 -120,2100 -3660,4370 -2650,1690 -2300,1930 -5250,3170 1660,-4220 4810,-5050 7790,-8410 -440,-220 -900,-810 -2640,-540 -1840,290 -4850,4170 -5850,5590 -2900,4110 -1030,6070 -7510,7270 -140,140 -360,300 -460,360l-7170 3480c-2810,1540 -4360,3030 -7130,3780 -2330,-4870 270,-5380 2870,-8060 2840,-2940 1500,-3290 5850,-5070 -620,730 -1240,1120 -1350,2330 -370,4230 -320,1090 830,2530 1290,-900 1140,-1680 2060,-3000l5320 -4550c7740,-7200 5010,-3220 15230,-8540 12970,-6750 22610,-14640 33740,-22860 7360,-5440 24430,-18940 30510,-26050 7700,-8980 14620,-16240 21210,-26330 1280,-1940 2220,-3870 3310,-5740 2060,-3550 4780,-7840 7370,-11480 8330,-11730 20600,-34410 26100,-48970 -3980,360 -6380,8070 -7790,11540 -1840,4520 -4480,8700 -6660,13020 -1270,2510 -2230,4400 -3410,6430 -1640,2820 -1840,4140 -3300,6510 -2400,3880 -5190,6650 -7970,10880 -2380,3610 -4880,8140 -7360,12340 -4860,8270 -19250,26230 -25160,32230 -6650,6770 -24050,20970 -31900,26320l-10700 8150c-7400,4860 -15410,10890 -24070,14480 -3940,1630 -10550,3650 -13820,5840 -4250,2850 -7520,5410 -14380,4860 -3540,-10310 -5590,-14110 -11780,-21020 -13010,-14490 -18690,-10770 -35000,-14230 -3740,-800 -4550,250 -7260,380 -7550,370 -6480,-2700 -18560,4530l-10110 6270c-6250,5690 -6790,10800 -9900,14720 -1540,1940 -2730,1390 -4080,4100 -2760,5570 -3700,21340 -3990,28840 -570,14700 5030,42820 9660,55160 3080,8230 5610,15670 9030,23790 3350,7970 5090,17200 7730,25080 4240,12710 6430,43480 4470,57710 -2000,14530 -7640,48270 -14430,59650 -3050,5110 -4060,12640 -6660,17980 -1860,3800 -3940,6800 -5630,10750l-5580 9800c3180,1580 3300,-1030 5330,-2770 2080,-1030 3070,1650 7990,-2590 2250,-1940 3770,-3530 5480,-5970 6890,-9810 7650,-8920 15050,-19390 4800,-6790 9520,-12450 14030,-20400 1770,-3120 2890,-4490 4510,-7810l15560 -30350c1400,-2500 2500,-4240 4090,-7370 2930,-5770 4400,-11450 6680,-16210 5250,-10950 8340,-22440 11700,-35110 920,-3470 970,-6190 1820,-9550 770,-3070 1860,-5920 2610,-8940 2290,-9290 2910,-20060 5500,-29820 830,-3130 980,-6730 1800,-9630 1850,-6540 2340,-11900 3660,-19250 1130,-6330 1390,-14490 1660,-21640 300,-7890 -980,-12880 -930,-20380 5660,-3000 14350,-9910 21230,-10590 4850,-480 3470,60 7470,-2510 4490,-2900 9250,-4070 13850,-6610 9660,-5350 27590,-18450 35890,-25600 4250,-3670 6490,-6060 10800,-9710 12070,-10230 28360,-31440 38250,-44560 3130,-4150 4460,-8840 7670,-12820 10290,-12790 10060,-19370 14760,-26250 2150,-3140 12610,-24500 12500,-27370 -3120,-190 -2670,1240 -3940,3940 -1910,4060 -5090,14230 -7490,17190l-3760 5180c-3060,6640 -7270,17290 -12680,21110 -4360,3080 -6980,10070 -9730,14710 -2290,3880 -3730,6800 -6150,10240 -19900,28270 -18100,24170 -39240,44400 -4110,3930 -29120,23840 -33730,23940 -50,0 -4410,-810 -4570,-860 2060,-1740 3920,-2960 4870,-5250 -3380,130 -1120,-390 -3580,910l-2470 1780z"></path><path class="fil0" d="M47450 65430c-2530,-4580 -4810,-15980 -7430,-19810l-3410 1730 3870 6930c6410,18100 1800,6940 9650,19950 8030,13280 2110,14570 19750,40110 6760,9800 14610,25670 22710,36330 7880,10370 9540,11360 19350,20810l11580 8090c12180,7770 53330,23660 67770,25770 3120,460 3020,-10 3840,-560 -1870,-2620 -4300,-3010 -8350,-3930 -15150,-3440 -40830,-12800 -54430,-19460 -6270,-3070 -3250,-3000 -3240,-3010 2320,-4470 -21140,-9660 -31190,-24870 -5090,-7720 -11620,-16260 -16590,-25220 -11220,-20220 -16860,-21300 -24010,-44830 -1160,-3830 -2470,-6470 -4270,-9680 -1870,-3360 -3780,-5060 -5600,-8350z"></path><path class="fil0" d="M198860 193300c-1970,-2070 -10140,-2860 -13890,-3860 -7510,-1990 -36980,-11970 -41100,-14620l-27120 -18780 -29260 -36380c-18460,-25510 -15390,-33510 -27290,-56330 -1160,-2210 -2450,-3820 -3660,-6160 -1980,-3810 -3100,-10540 -6580,-11970 -2080,4130 13190,28390 16570,38050 6440,18380 8410,21610 18920,37640l19870 26890c1730,1630 3640,2910 5160,4660 3200,3700 5180,6470 9340,9520l22820 14890c4770,3230 39260,15400 49270,17030 170,30 4320,630 4420,630 2550,40 1440,520 2530,-1210z"></path><path class="fil0" d="M257910 293330c3540,1760 12610,-1980 23350,-410 3130,460 1240,-260 3320,1230 -140,150 -340,200 -420,460 -300,1080 -11140,5760 -12060,6080 -4800,1720 -11690,1860 -15560,4120 1080,860 -2850,1750 6580,200 2840,-470 4700,-1140 6740,-1520 4770,-900 12180,-730 15230,1320 -4390,5550 -24710,5660 -28200,7070 -1740,710 -700,410 -1490,1130 3180,1940 5710,280 11780,220 4810,-40 7560,650 11860,1190 -2120,4060 -11810,6590 -16450,7910 -3530,1010 -4010,260 -5260,3160 3010,-170 11390,-2780 14360,-3930 4170,-1620 9940,-3410 10870,-7490 -3390,-1840 -3670,-1210 -5660,-1700 -1840,-450 610,330 -1430,-400 -230,-90 -500,-270 -690,-340 -190,-90 -460,-260 -690,-390 6160,-770 12970,-2470 14420,-7320 -4540,-2560 -6400,-1320 -11980,-2560 4250,-2660 10080,-3010 11490,-8030 -3020,-3420 -7110,-2100 -13080,-2860 6500,-2380 13330,-1350 14560,-6150 -5260,1830 -28980,5750 -31590,9010z"></path><path class="fil0" d="M282690 206280c2800,70 3630,170 5980,730l5020 1870c-3610,4520 -21740,10330 -27540,12070 -3240,980 -8920,810 -10720,2290 13870,2590 8310,-4830 28700,-2600 4870,530 7350,60 10280,2180 -160,140 -380,160 -450,420l-940 780c-130,90 -350,240 -500,340 -660,420 -1320,750 -2180,1150l-26420 8800c-12350,3090 -8710,-2520 -10640,2450 7970,2800 31610,-10170 39390,-830 -3350,4090 -10870,5600 -17050,7620 -2850,930 -17470,4740 -18740,5500 3950,1740 16780,-2900 21040,-4070 5800,-1600 15640,-4250 18000,-9050 -2750,-5010 -7990,-3740 -13740,-5090 5550,-3240 14050,-3110 16060,-8900 -6800,-3530 -9490,-2690 -18320,-3110 1070,-1140 40,-640 2140,-1610 4500,-2080 14030,-3940 14740,-9160 -2110,-1950 -3760,-1770 -6770,-2240 -660,-110 -3900,-660 -4230,-670 -2360,-120 -2240,430 -3110,1130z"></path><path class="fil0" d="M282180 245770c140,110 340,110 420,310l11240 1040c-1050,1100 10,570 -2180,1770 -13550,7460 -33030,7830 -38380,11640 4670,3110 27440,-7550 40100,0 -1240,2760 -6010,4180 -8730,5180 -3490,1290 -7190,2230 -11200,3520 -4370,1400 -22290,4610 -23490,5240 2970,1420 9530,-190 13160,-710 4960,-710 32840,-7070 33510,-14050 -3160,-3200 -11660,-3300 -16990,-3570 1980,-1750 11720,-4500 14930,-5940 2850,-1280 2980,-1330 3770,-3830 -3330,-1260 -12400,-2160 -16160,-600z"></path><path class="fil0" d="M247840 368770c2660,2130 9330,-460 13360,250 -1530,4960 -13960,4140 -16660,7130 3210,2540 12950,-1570 16700,-3480 3160,-1610 2900,-910 3660,-4100l-6300 -1120c4750,-2060 12420,-3210 11210,-7790 -2010,610 -870,200 -2300,1290 -2690,2040 -3860,2450 -8530,3730 -2550,700 -9750,2790 -11140,4090z"></path><path class="fil0" d="M239230 410630c3440,-1000 9100,-3680 10210,-7440 -3610,240 -1090,-320 -3180,1090 -6320,4260 -14740,7350 -15970,9580 1390,780 -1780,1020 2180,520 1110,-140 1950,-1030 7240,-1780 -1060,2800 80,2240 -6250,5230 -7530,3560 -4820,1700 -5770,4490 3550,100 13430,-4500 15050,-9280l-3510 -2410z"></path><path class="fil0" d="M235330 404020c3720,1390 5820,130 7610,-1330 5090,-4190 8880,-1640 11590,-8190 -3320,530 -3010,1160 -5100,2430 -1620,990 -3370,1330 -5370,2040 -8200,2910 -8420,2410 -8730,5050z"></path><path class="fil0" d="M253310 359750c1910,680 7770,-2580 10290,-3590 3390,-1360 9440,-2670 11270,-5430 -810,-410 900,-1890 -5400,620l-14430 6070c-3020,2050 -1090,570 -1730,2330z"></path><path class="fil0" d="M254420 350730c2020,1170 17430,-3940 20050,-5800 2800,-1980 780,310 2070,-2700 -10,0 -21270,6530 -22120,8500z"></path><path class="fil0" d="M242650 383530c1950,1220 4610,-90 10130,-2180 2690,-1020 8030,-2380 9610,-4380 -3260,-1790 -6700,910 -10270,2210l-7220 2530c-2410,1080 -1090,-10 -2250,1820z"></path><path class="fil0" d="M260490 342870c3500,-330 12050,-3870 15510,-5510 2740,-1300 2810,-1320 3640,-3690 -1480,40 -17400,5820 -19150,9200z"></path><path class="fil0" d="M317210 194960c960,-5480 4340,-4080 6380,-8940 -4520,-420 -7640,4040 -8060,8340l1680 600z"></path><path class="fil0" d="M217410 439100c3690,750 3980,-150 6170,-1650 2660,-1830 2530,-770 4950,-2270 -350,-330 370,-1960 -3710,-790 -2170,630 -6820,2870 -7410,4710z"></path><path class="fil0" d="M352460 175730c2000,-1920 1040,-2740 2730,-5090 2510,-3500 2330,-120 3980,-4680 -6180,270 -8420,7290 -6710,9770z"></path><path class="fil0" d="M223330 430520c2430,2090 7580,-1020 10280,-2720l790 -820c-2790,-1360 -8960,1910 -11070,3540z"></path><path class="fil0" d="M364440 164600c-2620,-1420 -3030,-120 -4120,2150 -2840,5890 -580,5230 -480,5440l4600 -7590z"></path><line class="fil0" x1="244870" y1="200680" x2="244870" y2="200680"></line></g></svg>