<svg xmlns="http://www.w3.org/2000/svg" xmlns:xlink="http://www.w3.org/1999/xlink" version="1.1" x="0px" y="0px" viewBox="0 0 100 100" enable-background="new 0 0 100 100" xml:space="preserve"><g><g transform="translate(0,-952.36218)"><g><path fill="#000000" d="M28.549,967.421c-0.343,0-0.615,0.206-0.744,0.414l-15.877,25.581c-0.089,0.139-0.137,0.304-0.138,0.469     c0,4.77,3.253,8.821,7.938,8.821c0.633,0,1.219-0.082,1.765-0.22v31.094c0,0.463,0.42,0.883,0.882,0.883h54.69     c0.462,0,0.882-0.42,0.882-0.883v-31.094c0.547,0.138,1.133,0.22,1.766,0.22c4.685,0,7.938-4.051,7.938-8.821     c-0.001-0.165-0.05-0.33-0.138-0.469l-15.878-25.581c-0.157-0.25-0.448-0.413-0.745-0.414H28.549z M29.019,969.186h2.812     l-7.608,29.579c-1.235,1.559-2.375,2.177-4.494,2.177c-3.631,0-6.074-2.979-6.147-6.892L29.019,969.186z M33.649,969.186h6.258     l-3.391,29.633c-1.198,1.394-3.234,2.122-5.32,2.122c-2.02,0-3.999-0.675-5.21-1.984L33.649,969.186z M41.699,969.186h7.14     v29.661c-1.202,1.375-3.222,2.095-5.294,2.095c-2.048,0-4.059-0.693-5.264-2.039L41.699,969.186z M50.603,969.186h7.141     l3.417,29.716c-1.206,1.346-3.217,2.039-5.266,2.039c-2.07,0-4.091-0.719-5.292-2.095V969.186z M59.534,969.186h6.257     l7.498,29.964c-1.221,1.19-3.121,1.791-5.045,1.791c-2.086,0-4.121-0.728-5.32-2.122L59.534,969.186z M67.61,969.186h2.813     l15.437,24.864c-0.073,3.913-2.516,6.892-6.146,6.892c-2.411-0.202-3.741-1.217-4.839-2.648L67.61,969.186z M24.994,1000.335     c1.625,1.598,3.916,2.37,6.202,2.37c2.267,0,4.551-0.745,6.174-2.315c1.624,1.57,3.908,2.315,6.174,2.315     c2.268,0,4.552-0.745,6.175-2.315c1.624,1.57,3.908,2.315,6.175,2.315c2.268,0,4.552-0.745,6.176-2.315     c1.622,1.57,3.907,2.315,6.174,2.315c1.43,0,2.857-0.297,4.124-0.911c0.821-0.383,1.459-0.916,2.052-1.329     c0.565,0.443,1.143,0.87,1.764,1.303c0,0.019,0,0.037,0,0.055v30.874h-7.939v-20.288c0-0.463-0.42-0.883-0.881-0.883H49.72     c-0.585,0-0.881,0.513-0.881,0.883v20.288H23.257v-30.874c0.001-0.019,0.001-0.037,0-0.055     C23.888,1001.39,24.458,1000.897,24.994,1000.335L24.994,1000.335z M50.603,1013.291H66.48v19.406H50.603V1013.291z"></path><g><path fill="#000000" d="M28.559,967.549c-0.134,0.006-0.207,0.025-0.309,0.066c-0.094,0.044-0.18,0.106-0.251,0.182      c-0.037,0.039-0.063,0.076-0.094,0.125l-0.095,0.154l-0.191,0.309l-0.764,1.236l-1.517,2.478      c-1.015,1.65-1.995,3.322-2.993,4.982c-0.496,0.833-1,1.659-1.485,2.498l-1.468,2.508c-0.982,1.67-1.95,3.35-2.918,5.028      l-2.906,5.036l-0.726,1.259l-0.181,0.315l-0.045,0.079l-0.012,0.02c0.009-0.015-0.027,0.047,0.018-0.03l-0.005,0.01      l-0.021,0.041l-0.02,0.041c-0.002,0.006-0.009,0.016-0.008,0.018l0.007-0.006c0.008-0.008,0.014-0.018,0.017-0.029      c0.007,0-0.002,0.011,0.004,0.016v0.004l0,0.002c0,0.007-0.001-0.072,0-0.033l0.001,0.011l0.006,0.091l0.025,0.362l0.026,0.362      c0.01,0.119,0.034,0.214,0.05,0.322c0.042,0.211,0.053,0.414,0.115,0.632c0.056,0.214,0.104,0.429,0.163,0.642l0.216,0.624      c0.641,1.629,1.763,3.044,3.217,3.871c0.723,0.42,1.528,0.669,2.351,0.766c0.204,0.041,0.413,0.039,0.622,0.048l0.312,0.014      l0.288-0.021l0.362-0.027c0.121-0.009,0.25-0.015,0.327-0.042c0.181-0.043,0.361-0.081,0.542-0.115l1.384-0.257l0.013,1.346      c0.024,2.492,0.034,4.984,0.022,7.477l-0.01,3.737l-0.041,3.739c-0.023,2.492-0.072,4.984-0.126,7.477l-0.178,7.477      l-0.023,0.935l-0.006,0.234c0.004,0.083-0.006-0.081-0.004-0.054l0.002,0.029l0.005,0.058c0.003,0.038,0.008,0.096,0.01,0.058      c0.002-0.015-0.002-0.03-0.012-0.042c-0.003-0.004,0.007,0.008,0.007,0.014c-0.002,0.017,0.021,0.026,0.024,0.045      c0.027,0.019,0.053,0.057,0.072,0.056c0.014,0.014,0.004-0.001,0.027,0.013l0.234,0.006l0.935,0.024l3.738,0.089      c2.492,0.055,4.984,0.11,7.477,0.138l3.738,0.05l3.738,0.018c2.492,0.021,4.984,0.011,7.476,0      c2.493-0.001,4.984-0.032,7.477-0.059c2.493-0.016,4.984-0.085,7.478-0.125l7.476-0.145l3.738-0.082l0.936-0.02l0.232-0.005      c-0.141,0.002,0.187-0.02,0.06-0.023c-0.021-0.001-0.043,0.005-0.06,0.016c0-0.005,0.002-0.009,0.005-0.01      c0.008,0.003,0.008-0.019,0.019-0.018c0.005-0.02,0.018-0.034,0.007-0.03c0.005,0-0.003,0.003-0.004,0.007      c-0.002,0.002-0.002,0.004-0.001,0.006c0-0.001,0.003,0.014,0.002-0.015l-0.005-0.234l-0.021-0.935l-0.142-7.477      c-0.049-2.493-0.066-4.984-0.1-7.477l-0.127-14.953l-0.014-1.501l1.579,0.28l0.564,0.1l0.142,0.026l0.143,0.007l0.285,0.014      l0.285,0.017l0.036,0.002c-0.133,0.004-0.025,0.001-0.049,0.001l0.021-0.001l0.087-0.006l0.173-0.01l0.347-0.022      c0.115-0.006,0.239-0.012,0.311-0.034c0.17-0.035,0.34-0.066,0.511-0.093l0.549-0.161c0.356-0.131,0.713-0.268,1.04-0.466      c0.663-0.373,1.26-0.871,1.764-1.46c0.502-0.593,0.896-1.284,1.193-2.015c0.291-0.733,0.501-1.511,0.574-2.311      c0.035-0.198,0.032-0.4,0.042-0.6l0.014-0.301l0.002-0.038l0.001-0.019c-0.004-0.1,0.006,0.116,0.004,0.086l-0.007-0.086      c-0.003-0.058-0.004,0.013,0.002,0.044c0.002,0.032,0.022,0.088,0.022,0.095c0.007,0.029,0.022,0.056,0.036,0.086l0.014,0.021      l-0.021-0.036l-0.046-0.074l-0.184-0.294l-0.366-0.59l-2.934-4.714c-0.982-1.568-1.942-3.15-2.908-4.729l-2.896-4.737      c-0.962-1.581-1.938-3.153-2.89-4.741l-2.857-4.76l-0.356-0.595l-0.177-0.299l-0.043-0.075l-0.022-0.038      c0.037,0.05-0.098-0.139,0.079,0.108l-0.014-0.017l-0.107-0.136l-0.013-0.016l0.01,0.019c0.008,0.012,0.016,0.023,0.024,0.035      c0.018,0.022,0.038,0.041,0.062,0.057c0.018,0.015,0.059,0.028,0.061,0.033c0.006,0.005,0.013,0.009,0.021,0.012      c0.024-0.003,0.077,0.025,0.101,0.005l-0.693-0.017l-2.776-0.066c-1.851-0.037-3.701-0.11-5.552-0.166l-11.104-0.358      c-1.851-0.064-3.701-0.115-5.552-0.162l-2.776-0.074l-2.776-0.05c-1.851-0.028-3.702-0.076-5.552-0.079l-5.552-0.038      L28.559,967.549z M28.549,967.294l5.552-0.038c1.85-0.003,3.701-0.051,5.552-0.079l2.776-0.05l2.776-0.074      c1.851-0.047,3.701-0.098,5.552-0.162l11.104-0.358c1.851-0.057,3.701-0.129,5.552-0.166l2.776-0.067l0.693-0.017      c0.252,0.012,0.542,0.045,0.774,0.152c0.061,0.024,0.122,0.05,0.181,0.078c0.057,0.023,0.14,0.082,0.205,0.127      c0.07,0.05,0.138,0.103,0.202,0.159l0.095,0.086l0.045,0.044l0.015,0.017l0.113,0.131l0.015,0.016l0.104,0.145l0.023,0.036      l0.048,0.072l0.189,0.291l0.376,0.584l2.997,4.673c1.001,1.557,1.978,3.129,2.967,4.693l2.959,4.697      c0.986,1.566,1.979,3.129,2.947,4.706l2.924,4.72l0.365,0.59l0.183,0.294l0.046,0.074l0.077,0.135      c0.075,0.13,0.129,0.265,0.175,0.404c0.023,0.061,0.049,0.175,0.065,0.263c0.018,0.088,0.03,0.215,0.03,0.215l0.007,0.087      c0-0.016,0.008,0.215,0.004,0.128v0.024l-0.002,0.049l-0.017,0.392c-0.014,0.262-0.016,0.523-0.057,0.784      c-0.101,1.043-0.376,2.075-0.788,3.048c-0.414,0.974-0.966,1.901-1.674,2.711c-0.711,0.807-1.564,1.5-2.522,2.017      c-0.473,0.271-0.986,0.466-1.499,0.639l-0.788,0.214c-0.286,0.049-0.572,0.093-0.859,0.134      c-0.154,0.026-0.264,0.027-0.379,0.033l-0.347,0.016l-0.173,0.008l-0.087,0.004l-0.113,0.003l-0.051-0.003l-0.407-0.027      l-0.408-0.03l-0.202-0.016l-0.201-0.038l-0.799-0.16l1.566-1.22l-0.128,14.953c-0.033,2.492-0.05,4.984-0.099,7.477      l-0.142,7.477l-0.021,0.935l-0.006,0.234c-0.007,0.119-0.021,0.32-0.067,0.458c-0.085,0.309-0.256,0.557-0.457,0.768      c-0.111,0.096-0.216,0.197-0.351,0.267c-0.064,0.037-0.13,0.072-0.198,0.105c-0.091,0.035-0.186,0.065-0.281,0.089      c-0.044,0.01-0.104,0.023-0.135,0.028l-0.058,0.005l-0.06,0.005l-0.028,0.003c0.071-0.004-0.131,0.008-0.121,0.006l-0.232-0.004      l-0.936-0.021l-3.738-0.081l-7.476-0.145c-2.493-0.041-4.984-0.108-7.478-0.125c-2.492-0.027-4.983-0.058-7.477-0.059      c-2.492-0.012-4.984-0.021-7.476,0l-3.738,0.018l-3.738,0.05c-2.492,0.028-4.984,0.083-7.477,0.138l-3.738,0.089l-0.935,0.024      l-0.234,0.006c-0.13-0.009-0.301-0.013-0.433-0.059c-0.288-0.071-0.518-0.232-0.722-0.416c-0.091-0.104-0.188-0.201-0.256-0.327      c-0.036-0.063-0.07-0.116-0.104-0.191c-0.034-0.085-0.063-0.174-0.085-0.263c-0.029-0.11-0.027-0.131-0.033-0.171l-0.008-0.058      l-0.004-0.029c0,0.009-0.01-0.177-0.006-0.112l-0.006-0.234l-0.023-0.935l-0.179-7.477c-0.054-2.493-0.103-4.984-0.126-7.477      l-0.041-3.739l-0.009-3.737c-0.012-2.493-0.002-4.985,0.021-7.477l1.397,1.088c-0.294,0.057-0.59,0.109-0.885,0.157      c-0.158,0.031-0.273,0.033-0.393,0.039l-0.363,0.019l-0.181,0.009l-0.091,0.004l-0.045,0.003l-0.082,0.002l-0.013,0      l-0.026-0.001l-0.413-0.025c-0.275-0.019-0.551-0.026-0.823-0.088c-1.091-0.172-2.161-0.555-3.094-1.146      c-0.938-0.583-1.748-1.344-2.397-2.208c-0.651-0.864-1.13-1.836-1.462-2.842l-0.216-0.764c-0.057-0.257-0.102-0.518-0.152-0.776      c-0.056-0.253-0.066-0.538-0.099-0.804c-0.011-0.133-0.031-0.276-0.034-0.4l-0.005-0.363l-0.006-0.364l-0.001-0.09v-0.067      l0.002-0.043l0.008-0.087c0.008-0.117,0.038-0.224,0.07-0.341c0.024-0.067,0.05-0.134,0.08-0.199l0.022-0.049l0.013-0.022      l0.023-0.04l0.023-0.039l0.035-0.059l0.013-0.019l0.05-0.075l0.201-0.302l0.807-1.21l3.224-4.838      c1.074-1.613,2.15-3.225,3.21-4.847l1.597-2.429c0.536-0.807,1.053-1.626,1.58-2.439c1.044-1.632,2.107-3.252,3.136-4.893      l1.547-2.459l0.769-1.233l0.192-0.308l0.096-0.154c0.035-0.053,0.078-0.115,0.125-0.164c0.095-0.101,0.209-0.182,0.334-0.24      c0.121-0.055,0.288-0.085,0.396-0.086H28.549z"></path><path fill="#000000" d="M29.019,969.058c0.469-0.073,0.937-0.141,1.406-0.197c0.468-0.058,0.937-0.117,1.406-0.161l0.565-0.054      l-0.095,0.66c-0.183,1.268-0.397,2.526-0.628,3.781c-0.229,1.255-0.487,2.502-0.749,3.749c-0.271,1.245-0.55,2.486-0.849,3.724      c-0.152,0.618-0.295,1.238-0.458,1.854c-0.156,0.617-0.327,1.229-0.501,1.842c-0.351,1.223-0.742,2.437-1.157,3.644l-0.626,1.81      c-0.208,0.604-0.425,1.205-0.623,1.811c-0.2,0.605-0.409,1.208-0.596,1.818c-0.19,0.607-0.375,1.217-0.546,1.83      c-0.347,1.225-0.663,2.458-0.951,3.698l-0.021,0.087l-0.055,0.064c-0.221,0.257-0.406,0.536-0.658,0.777      c-0.124,0.122-0.23,0.257-0.367,0.369l-0.406,0.342c-0.296,0.2-0.593,0.412-0.931,0.549l-0.248,0.115l-0.256,0.083      c-0.172,0.049-0.345,0.119-0.518,0.148l-0.521,0.104c-0.175,0.038-0.345,0.042-0.518,0.064l-0.259,0.026l-0.13,0.013      l-0.156,0.001l-0.486,0.009c-0.168-0.001-0.372-0.028-0.558-0.043c-0.095-0.011-0.192-0.018-0.286-0.032l-0.27-0.055      c-0.364-0.06-0.714-0.182-1.068-0.3c-0.34-0.149-0.688-0.296-1.005-0.5l-0.243-0.145l-0.228-0.166      c-0.148-0.115-0.308-0.221-0.442-0.353l-0.411-0.389l-0.372-0.424c-0.129-0.139-0.229-0.297-0.34-0.449      c-0.11-0.152-0.218-0.307-0.305-0.472c-0.091-0.163-0.187-0.325-0.271-0.491l-0.228-0.509c-0.081-0.169-0.128-0.347-0.192-0.521      c-0.059-0.175-0.124-0.35-0.163-0.529l-0.132-0.536c-0.035-0.18-0.062-0.361-0.092-0.542c-0.071-0.362-0.075-0.725-0.112-1.09      l-0.03-0.295l0.212-0.366c0.612-1.055,1.223-2.111,1.845-3.16l0.929-1.577c0.309-0.525,0.631-1.043,0.946-1.565      c0.639-1.039,1.289-2.07,1.952-3.094c0.327-0.515,0.669-1.02,1.003-1.531c0.334-0.51,0.673-1.017,1.015-1.522      c0.681-1.013,1.368-2.021,2.072-3.02c0.699-1.001,1.401-2.001,2.124-2.988c0.358-0.495,0.715-0.991,1.084-1.479      c0.368-0.489,0.728-0.983,1.103-1.469c0.375-0.484,0.742-0.975,1.126-1.454c0.379-0.482,0.763-0.962,1.157-1.435l0.042-0.05      L29.019,969.058z M29.094,969.324c-0.239,0.539-0.487,1.072-0.739,1.603c-0.259,0.557-0.537,1.103-0.804,1.654      c-0.268,0.551-0.552,1.093-0.827,1.639c-0.273,0.548-0.56,1.088-0.845,1.628c-0.563,1.085-1.147,2.158-1.735,3.229      c-0.583,1.074-1.181,2.138-1.787,3.197c-0.301,0.53-0.605,1.06-0.914,1.585c-0.31,0.525-0.61,1.057-0.927,1.578      c-0.623,1.049-1.259,2.089-1.907,3.122c-0.329,0.514-0.649,1.032-0.983,1.542l-1.001,1.532      c-0.664,1.023-1.339,2.039-2.013,3.056l0.182-0.661c0.016,0.28-0.004,0.567,0.037,0.843l0.043,0.418l0.076,0.411      c0.019,0.14,0.06,0.271,0.095,0.404c0.04,0.132,0.062,0.272,0.115,0.398l0.138,0.389c0.051,0.127,0.112,0.249,0.167,0.375      c0.051,0.128,0.121,0.244,0.187,0.362c0.068,0.117,0.125,0.245,0.207,0.351l0.23,0.336l0.261,0.309      c0.083,0.11,0.192,0.188,0.284,0.289l0.145,0.144l0.159,0.126c0.205,0.182,0.44,0.318,0.672,0.468      c0.247,0.119,0.492,0.253,0.761,0.335l0.199,0.072c0.065,0.02,0.128,0.032,0.193,0.05c0.133,0.029,0.246,0.072,0.4,0.095      l0.482,0.058l0.06,0.007l0.031,0.004l0.015,0.002l0.007,0l0.004,0.001c-0.014-0.001,0.037,0.001-0.031-0.001l0.112,0.003      l0.225,0.008c0.306,0.022,0.595,0,0.889-0.021c0.148-0.007,0.282-0.05,0.425-0.072l0.212-0.042l0.2-0.069      c0.276-0.076,0.526-0.215,0.78-0.353l0.358-0.256c0.121-0.083,0.226-0.196,0.338-0.295c0.229-0.193,0.422-0.444,0.633-0.667      l-0.075,0.151c0.346-1.225,0.664-2.457,0.951-3.697c0.146-0.619,0.278-1.243,0.404-1.867c0.131-0.624,0.238-1.252,0.355-1.88      c0.119-0.626,0.219-1.257,0.329-1.886l0.324-1.887c0.22-1.257,0.463-2.509,0.745-3.75c0.142-0.62,0.289-1.24,0.45-1.855      c0.154-0.618,0.328-1.229,0.493-1.844c0.335-1.228,0.69-2.45,1.054-3.671c0.372-1.219,0.748-2.436,1.153-3.646      c0.402-1.21,0.822-2.417,1.273-3.614l0.471,0.607c-0.469-0.044-0.938-0.104-1.406-0.162      C29.981,969.458,29.538,969.393,29.094,969.324z"></path><path fill="#000000" d="M33.649,969.058c0.521-0.082,1.043-0.154,1.564-0.215c0.521-0.068,1.043-0.124,1.564-0.174      c1.043-0.114,2.086-0.195,3.129-0.275l0.829-0.063l-0.042,0.946c-0.108,2.489-0.285,4.971-0.518,7.446      c-0.122,1.237-0.239,2.474-0.406,3.706c-0.079,0.617-0.172,1.231-0.271,1.845c-0.098,0.614-0.206,1.228-0.32,1.84      c-0.23,1.225-0.479,2.447-0.72,3.67c-0.125,0.611-0.231,1.224-0.347,1.837c-0.114,0.612-0.217,1.226-0.311,1.84      c-0.098,0.615-0.181,1.231-0.26,1.847c-0.079,0.617-0.149,1.234-0.214,1.852c-0.063,0.618-0.124,1.236-0.174,1.856      c-0.052,0.619-0.101,1.239-0.135,1.861l-0.008,0.149l-0.11,0.123c-0.178,0.197-0.354,0.402-0.541,0.594      c-0.202,0.171-0.402,0.353-0.614,0.515c-0.22,0.147-0.437,0.307-0.666,0.441c-0.235,0.121-0.468,0.255-0.709,0.365      c-0.245,0.097-0.49,0.203-0.74,0.293l-0.764,0.225l-0.781,0.155c-0.263,0.036-0.528,0.06-0.794,0.089l-0.05,0.005l-0.024,0.003      l-0.013,0.001l-0.006,0.001l-0.043-0.001l-0.091,0.003l-0.182,0.005l-0.364,0.01c-0.113,0.009-0.266-0.006-0.403-0.016      l-0.422-0.032c-0.284-0.022-0.541-0.081-0.813-0.122c-0.27-0.041-0.533-0.13-0.802-0.195c-0.268-0.069-0.524-0.19-0.788-0.286      c-0.262-0.1-0.511-0.25-0.765-0.378c-0.25-0.139-0.485-0.32-0.727-0.482c-0.23-0.183-0.448-0.391-0.669-0.591l-0.432-0.391      l0.158-0.697l0.85-3.749l0.437-1.872c0.148-0.623,0.284-1.25,0.442-1.871c0.305-1.244,0.623-2.484,0.961-3.72      c0.333-1.237,0.69-2.468,1.047-3.698c0.363-1.229,0.73-2.458,1.117-3.681c0.391-1.222,0.768-2.448,1.183-3.664      c0.207-0.608,0.4-1.22,0.618-1.825l0.64-1.819c0.443-1.208,0.884-2.418,1.378-3.614l0.034-0.082L33.649,969.058z       M33.757,969.329c-0.144,1.247-0.332,2.483-0.522,3.718l-0.317,1.902c-0.102,0.635-0.228,1.264-0.341,1.896      c-0.223,1.265-0.485,2.521-0.732,3.78c-0.252,1.258-0.523,2.51-0.799,3.762c-0.281,1.25-0.563,2.5-0.868,3.745      c-0.3,1.245-0.621,2.485-0.955,3.722c-0.161,0.62-0.344,1.234-0.515,1.852l-0.522,1.85l-1.066,3.693l-0.274-1.086      c0.135,0.128,0.257,0.267,0.397,0.396c0.156,0.113,0.295,0.246,0.461,0.353c0.174,0.096,0.331,0.219,0.515,0.308      c0.187,0.083,0.36,0.191,0.558,0.26c0.196,0.068,0.385,0.164,0.591,0.217c0.202,0.051,0.414,0.128,0.611,0.164l0.298,0.059      c0.103,0.019,0.189,0.048,0.319,0.057l0.362,0.041l0.181,0.021l0.091,0.01l0.003,0c-0.016,0,0.039,0.001-0.035,0h0.005l0.01,0      l0.021,0.001l0.041,0.001l0.657,0.02l0.66-0.036l0.654-0.096c0.214-0.045,0.426-0.103,0.642-0.155      c0.21-0.063,0.412-0.147,0.622-0.218c0.202-0.084,0.392-0.19,0.592-0.285c0.188-0.109,0.36-0.241,0.545-0.36      c0.166-0.138,0.322-0.287,0.488-0.431l-0.119,0.272c0.107-0.613,0.2-1.228,0.289-1.844c0.091-0.615,0.171-1.231,0.25-1.848      c0.076-0.617,0.148-1.234,0.21-1.852c0.061-0.618,0.119-1.237,0.163-1.857c0.047-0.62,0.086-1.242,0.113-1.864      c0.025-0.622,0.061-1.244,0.078-1.867c0.041-1.246,0.074-2.493,0.127-3.738c0.027-0.623,0.061-1.244,0.104-1.865      c0.042-0.62,0.09-1.241,0.153-1.858c0.116-1.238,0.281-2.47,0.441-3.702c0.332-2.464,0.721-4.921,1.177-7.371l0.787,0.882      c-1.043-0.08-2.086-0.161-3.129-0.275c-0.521-0.051-1.043-0.107-1.564-0.174C34.729,969.472,34.243,969.404,33.757,969.329z"></path><path fill="#000000" d="M41.699,969.058c0.595-0.095,1.19-0.172,1.785-0.242c0.595-0.079,1.19-0.129,1.785-0.192      c0.595-0.064,1.19-0.111,1.785-0.16c0.595-0.048,1.19-0.091,1.785-0.129l0.792-0.05l0.059,0.902      c0.081,1.236,0.144,2.472,0.189,3.708c0.045,1.236,0.08,2.472,0.096,3.708c0.009,0.618,0.019,1.236,0.016,1.854      c0,0.618-0.012,1.236-0.03,1.854c-0.037,1.236-0.112,2.472-0.21,3.708l-0.15,1.854c-0.048,0.618-0.107,1.235-0.148,1.854      c-0.04,0.618-0.092,1.236-0.123,1.854c-0.035,0.618-0.059,1.235-0.077,1.854c-0.037,1.236-0.033,2.472-0.012,3.707      c0.022,1.236,0.071,2.472,0.146,3.708l0.012,0.197l-0.146,0.162c-0.181,0.199-0.36,0.404-0.55,0.598      c-0.205,0.173-0.403,0.361-0.62,0.521c-0.223,0.146-0.442,0.311-0.676,0.442c-0.238,0.12-0.473,0.258-0.718,0.364      c-0.248,0.097-0.495,0.208-0.749,0.291c-0.255,0.074-0.512,0.157-0.772,0.221l-0.789,0.154l-0.802,0.086l-0.408,0.009      l-0.365,0.004c-0.262-0.007-0.561-0.037-0.841-0.059c-0.282-0.029-0.543-0.085-0.817-0.129c-0.27-0.051-0.536-0.141-0.804-0.212      c-0.269-0.076-0.527-0.197-0.79-0.299c-0.262-0.109-0.511-0.262-0.766-0.394c-0.25-0.147-0.485-0.33-0.726-0.498      c-0.229-0.189-0.446-0.402-0.667-0.607l-0.35-0.326l0.053-0.607l0.324-3.726c0.118-1.241,0.218-2.484,0.356-3.723      c0.131-1.239,0.279-2.477,0.444-3.712c0.16-1.236,0.34-2.47,0.525-3.703c0.188-1.233,0.378-2.466,0.593-3.695l0.317-1.846      c0.103-0.615,0.227-1.229,0.338-1.843c0.116-0.614,0.227-1.229,0.354-1.841l0.377-1.839c0.135-0.611,0.26-1.225,0.405-1.835      c0.14-0.611,0.284-1.221,0.442-1.831l0.025-0.097L41.699,969.058z M41.827,969.331c0.013,0.585,0.017,1.169,0.015,1.753      c0.002,0.628-0.016,1.253-0.022,1.879l-0.051,1.876c-0.014,0.626-0.046,1.25-0.073,1.874c-0.03,0.624-0.049,1.249-0.089,1.872      l-0.11,1.869c-0.07,1.247-0.165,2.49-0.262,3.733c-0.1,1.244-0.204,2.486-0.328,3.727c-0.12,1.24-0.257,2.479-0.411,3.716      c-0.146,1.238-0.331,2.471-0.498,3.707l-0.531,3.703l-0.297-0.934c0.132,0.129,0.252,0.269,0.388,0.398      c0.154,0.115,0.293,0.246,0.456,0.355c0.171,0.099,0.329,0.219,0.511,0.309c0.187,0.082,0.361,0.187,0.556,0.261      c0.197,0.068,0.386,0.156,0.59,0.213c0.202,0.053,0.411,0.125,0.61,0.168c0.202,0.036,0.383,0.083,0.606,0.117l0.363,0.036      l0.182,0.018l0.09,0.011l0.045,0.005l0.012,0.001l0.005,0.001c0.037,0-0.046-0.001-0.038-0.001h0.003l0.021,0.001l0.655,0.022      l0.657-0.034c0.217-0.022,0.433-0.062,0.652-0.09c0.216-0.039,0.425-0.101,0.641-0.149c0.211-0.057,0.411-0.142,0.621-0.211      c0.204-0.08,0.391-0.187,0.591-0.279c0.189-0.104,0.363-0.232,0.55-0.347c0.169-0.133,0.324-0.282,0.491-0.423l-0.135,0.359      c0.074-1.236,0.124-2.472,0.145-3.708c0.022-1.235,0.026-2.471-0.012-3.707c-0.018-0.618-0.042-1.235-0.077-1.854      c-0.03-0.618-0.083-1.236-0.123-1.854c-0.042-0.618-0.1-1.236-0.148-1.854l-0.151-1.854c-0.097-1.236-0.171-2.472-0.208-3.708      c-0.02-0.618-0.031-1.236-0.03-1.854c-0.003-0.618,0.006-1.235,0.015-1.854c0.016-1.236,0.05-2.472,0.096-3.708      c0.046-1.236,0.108-2.472,0.189-3.708l0.852,0.852c-0.595-0.038-1.19-0.081-1.785-0.129c-0.595-0.049-1.19-0.096-1.785-0.16      c-0.595-0.064-1.19-0.114-1.785-0.192C42.932,969.491,42.379,969.417,41.827,969.331z"></path><path fill="#000000" d="M50.603,969.058c0.595-0.095,1.19-0.172,1.784-0.242c0.596-0.079,1.19-0.129,1.786-0.192      c0.595-0.064,1.189-0.111,1.784-0.16c0.596-0.048,1.19-0.091,1.786-0.129l0.7-0.045l0.145,0.799      c0.224,1.229,0.429,2.46,0.616,3.693c0.188,1.233,0.365,2.467,0.522,3.704c0.081,0.618,0.16,1.236,0.229,1.855      c0.067,0.619,0.132,1.239,0.18,1.861c0.104,1.243,0.169,2.49,0.213,3.739l0.062,1.875c0.021,0.625,0.036,1.25,0.067,1.875      c0.03,0.624,0.051,1.249,0.094,1.871c0.038,0.623,0.083,1.245,0.142,1.865c0.109,1.242,0.255,2.48,0.424,3.715      c0.084,0.618,0.173,1.234,0.271,1.851c0.094,0.617,0.206,1.231,0.31,1.846l0.041,0.248l-0.181,0.19      c-0.186,0.195-0.364,0.403-0.557,0.594c-0.208,0.171-0.409,0.359-0.629,0.515c-0.226,0.144-0.445,0.308-0.683,0.434      c-0.239,0.118-0.476,0.257-0.723,0.356c-0.25,0.093-0.498,0.207-0.753,0.283c-0.257,0.071-0.514,0.157-0.775,0.213      c-0.262,0.049-0.524,0.109-0.79,0.147l-0.399,0.043l-0.201,0.021l-0.101,0.01l-0.05,0.005l-0.014,0.001l-0.006,0.001      l-0.048-0.001h-0.022l-0.73,0.009c-0.277-0.017-0.567-0.042-0.853-0.067c-0.276-0.037-0.543-0.089-0.815-0.141      c-0.27-0.059-0.536-0.147-0.804-0.222c-0.267-0.085-0.525-0.207-0.788-0.312c-0.259-0.116-0.509-0.268-0.762-0.406      c-0.246-0.152-0.48-0.336-0.72-0.509c-0.226-0.193-0.44-0.408-0.658-0.617l-0.282-0.271l-0.014-0.519l-0.103-3.708      c-0.027-1.235-0.063-2.471-0.067-3.707c-0.01-0.618-0.002-1.235-0.002-1.854c-0.002-0.618,0.015-1.236,0.022-1.854      c0.007-0.618,0.026-1.236,0.043-1.854c0.016-0.618,0.033-1.236,0.059-1.854c0.045-1.236,0.094-2.472,0.167-3.708l0.104-1.854      c0.033-0.618,0.084-1.235,0.126-1.854c0.044-0.618,0.085-1.236,0.142-1.854c0.055-0.618,0.102-1.236,0.162-1.854      c0.064-0.618,0.118-1.236,0.192-1.854c0.068-0.618,0.142-1.235,0.229-1.854l0.015-0.11L50.603,969.058z M50.748,969.333      c0.078,0.569,0.147,1.138,0.211,1.706c0.073,0.618,0.127,1.236,0.191,1.854c0.062,0.618,0.108,1.236,0.163,1.854      c0.057,0.618,0.097,1.235,0.142,1.854c0.041,0.618,0.092,1.236,0.126,1.854l0.103,1.854c0.073,1.236,0.122,2.472,0.167,3.708      c0.025,0.618,0.043,1.236,0.059,1.854c0.017,0.618,0.037,1.235,0.043,1.854c0.008,0.618,0.024,1.236,0.022,1.854      c-0.001,0.618,0.009,1.235-0.001,1.854c-0.004,1.236-0.041,2.472-0.068,3.707l-0.102,3.708l-0.296-0.791l0.382,0.404      c0.152,0.116,0.29,0.248,0.45,0.361c0.17,0.1,0.327,0.22,0.505,0.313c0.185,0.085,0.36,0.187,0.552,0.265      c0.195,0.07,0.385,0.156,0.585,0.218l0.608,0.171l0.594,0.121l0.727,0.072l0.616,0.023c0.219-0.001,0.436-0.02,0.656-0.028      c0.219-0.016,0.434-0.057,0.652-0.083c0.218-0.032,0.425-0.096,0.642-0.142c0.215-0.051,0.412-0.138,0.622-0.204      c0.207-0.073,0.393-0.181,0.594-0.27c0.193-0.1,0.365-0.227,0.554-0.338c0.173-0.127,0.33-0.273,0.497-0.412l-0.139,0.438      c-0.04-0.623-0.07-1.247-0.118-1.869c-0.044-0.622-0.099-1.243-0.155-1.864c-0.116-1.241-0.257-2.479-0.431-3.714      c-0.085-0.617-0.183-1.234-0.286-1.849c-0.099-0.616-0.222-1.229-0.334-1.844c-0.111-0.615-0.239-1.228-0.36-1.841l-0.364-1.839      c-0.242-1.227-0.461-2.457-0.643-3.69c-0.094-0.617-0.172-1.235-0.247-1.854c-0.074-0.619-0.138-1.239-0.199-1.859      c-0.127-1.24-0.235-2.482-0.332-3.726c-0.097-1.244-0.177-2.489-0.238-3.736l0.847,0.754c-0.596-0.038-1.19-0.081-1.786-0.129      c-0.595-0.049-1.189-0.096-1.784-0.16c-0.596-0.064-1.19-0.114-1.786-0.192C51.841,969.491,51.295,969.418,50.748,969.333z"></path><path fill="#000000" d="M59.534,969.058c0.521-0.082,1.043-0.154,1.564-0.215c0.521-0.067,1.043-0.123,1.564-0.174      c1.042-0.114,2.085-0.196,3.128-0.275l0.56-0.043l0.21,0.643c0.399,1.227,0.784,2.457,1.149,3.692      c0.366,1.235,0.714,2.475,1.051,3.717l0.491,1.867c0.16,0.623,0.309,1.25,0.451,1.876c0.282,1.256,0.525,2.522,0.742,3.794      l0.634,3.821c0.115,0.634,0.22,1.272,0.345,1.904c0.121,0.633,0.251,1.264,0.391,1.892c0.276,1.258,0.592,2.506,0.93,3.748      c0.335,1.242,0.709,2.476,1.094,3.706l0.097,0.311l-0.251,0.231c-0.192,0.178-0.375,0.373-0.577,0.543      c-0.21,0.154-0.413,0.332-0.638,0.466c-0.226,0.128-0.443,0.286-0.683,0.389c-0.237,0.107-0.47,0.239-0.717,0.318      c-0.245,0.086-0.488,0.19-0.741,0.25c-0.251,0.064-0.503,0.146-0.759,0.185c-0.256,0.044-0.514,0.104-0.772,0.123l-0.391,0.04      l-0.098,0.01l-0.05,0.004l-0.012,0.001h-0.053h-0.022l-0.178,0.004l-0.356,0.005c-0.117,0.001-0.233,0.005-0.38-0.01      c-0.273-0.023-0.56-0.038-0.828-0.077c-0.263-0.047-0.529-0.086-0.792-0.146l-0.782-0.227c-0.257-0.1-0.511-0.208-0.766-0.315      c-0.248-0.129-0.494-0.268-0.739-0.406c-0.235-0.16-0.466-0.335-0.697-0.505c-0.217-0.196-0.427-0.403-0.637-0.61l-0.221-0.216      l-0.061-0.428l-0.526-3.692c-0.167-1.232-0.349-2.462-0.494-3.696c-0.151-1.233-0.286-2.47-0.405-3.706      c-0.122-1.237-0.227-2.476-0.324-3.716c-0.097-1.239-0.189-2.48-0.258-3.723l-0.109-1.864c-0.038-0.621-0.057-1.245-0.087-1.867      c-0.025-0.623-0.057-1.244-0.07-1.868l-0.05-1.871c-0.007-0.625-0.023-1.248-0.021-1.874c-0.002-0.625,0-1.251,0.017-1.878      l0.003-0.124L59.534,969.058z M59.701,969.337c0.141,0.552,0.274,1.106,0.4,1.661c0.145,0.609,0.269,1.22,0.403,1.83      l0.374,1.833c0.127,0.611,0.237,1.224,0.353,1.836c0.111,0.613,0.234,1.224,0.337,1.838l0.314,1.84      c0.215,1.226,0.403,2.456,0.59,3.685c0.186,1.23,0.362,2.46,0.523,3.693c0.164,1.232,0.311,2.466,0.442,3.702      c0.137,1.235,0.237,2.475,0.353,3.712l0.321,3.716l-0.281-0.644l0.368,0.398l0.434,0.356l0.488,0.313      c0.178,0.087,0.355,0.174,0.532,0.267l0.567,0.22l0.595,0.175c0.197,0.053,0.384,0.08,0.579,0.125      c0.088,0.024,0.21,0.035,0.329,0.046l0.354,0.036l0.177,0.019l0.021,0.003l0.006,0l0.003,0.001      c-0.082-0.002-0.021-0.001-0.039-0.001h0.011l0.04,0.001l0.079,0.003l0.321,0.012c0.215,0.017,0.427-0.006,0.643-0.01      c0.217,0,0.426-0.04,0.64-0.063c0.217-0.017,0.421-0.076,0.633-0.116c0.215-0.035,0.41-0.116,0.617-0.174      c0.21-0.055,0.393-0.159,0.593-0.236c0.198-0.082,0.369-0.202,0.56-0.3c0.178-0.113,0.341-0.245,0.513-0.37l-0.153,0.542      c-0.24-1.266-0.491-2.531-0.781-3.784c-0.287-1.255-0.596-2.504-0.944-3.744c-0.173-0.62-0.354-1.238-0.546-1.854      c-0.188-0.617-0.396-1.228-0.594-1.841l-1.241-3.67c-0.407-1.225-0.789-2.456-1.132-3.697c-0.169-0.621-0.332-1.244-0.485-1.869      l-0.446-1.878c-0.288-1.255-0.565-2.512-0.824-3.774c-0.259-1.261-0.499-2.528-0.725-3.798l0.769,0.6      c-1.043-0.08-2.086-0.161-3.128-0.275c-0.521-0.051-1.043-0.107-1.564-0.174C60.633,969.474,60.167,969.408,59.701,969.337z"></path><path fill="#000000" d="M67.61,969.058c0.469-0.073,0.938-0.141,1.406-0.197c0.469-0.058,0.938-0.117,1.406-0.162l0.217-0.021      l0.196,0.25c0.756,0.966,1.487,1.948,2.203,2.938c0.717,0.99,1.415,1.992,2.104,3c0.688,1.008,1.359,2.026,2.025,3.049      c0.658,1.027,1.322,2.049,1.94,3.101c0.313,0.524,0.617,1.052,0.913,1.586c0.299,0.532,0.588,1.07,0.873,1.611      c0.567,1.083,1.12,2.175,1.679,3.264c0.276,0.546,0.568,1.083,0.852,1.625c0.284,0.542,0.58,1.076,0.88,1.606      c0.602,1.063,1.229,2.108,1.885,3.137l0.063,0.099l-0.006,0.113l-0.03,0.671c-0.013,0.223-0.049,0.445-0.073,0.668      c-0.021,0.224-0.077,0.443-0.115,0.666c-0.033,0.224-0.111,0.438-0.164,0.658c-0.052,0.222-0.141,0.433-0.216,0.648      c-0.071,0.218-0.173,0.424-0.267,0.635c-0.088,0.214-0.213,0.41-0.326,0.613c-0.108,0.207-0.256,0.389-0.389,0.583      c-0.127,0.199-0.296,0.366-0.445,0.55c-0.15,0.185-0.338,0.336-0.508,0.505c-0.176,0.163-0.376,0.298-0.566,0.449      c-0.199,0.138-0.411,0.257-0.619,0.385c-0.218,0.108-0.441,0.211-0.665,0.313c-0.23,0.079-0.463,0.162-0.698,0.234      c-0.238,0.054-0.479,0.111-0.721,0.158l-0.732,0.083l-0.008,0.001l-0.071-0.004c-0.263-0.015-0.526-0.037-0.79-0.06      c-0.265-0.016-0.532-0.089-0.8-0.134c-0.134-0.026-0.268-0.049-0.4-0.096l-0.399-0.126c-0.133-0.043-0.268-0.081-0.395-0.146      l-0.385-0.181c-0.129-0.06-0.258-0.121-0.375-0.2l-0.361-0.228c-0.123-0.074-0.234-0.159-0.342-0.249l-0.329-0.265      c-0.114-0.086-0.203-0.187-0.304-0.282l-0.294-0.29c-0.183-0.199-0.353-0.401-0.528-0.604l-0.13-0.149l-0.08-0.287l-1.011-3.612      c-0.325-1.207-0.674-2.409-0.98-3.621c-0.315-1.209-0.613-2.423-0.895-3.642c-0.145-0.608-0.282-1.218-0.415-1.829l-0.398-1.833      c-0.258-1.224-0.514-2.448-0.747-3.678l-0.352-1.845c-0.122-0.614-0.221-1.233-0.332-1.85c-0.106-0.618-0.222-1.233-0.316-1.854      l-0.295-1.859c-0.087-0.622-0.187-1.242-0.265-1.866c-0.085-0.623-0.164-1.248-0.229-1.875l-0.015-0.137L67.61,969.058z       M67.807,969.341c0.209,0.524,0.411,1.049,0.607,1.577c0.223,0.588,0.427,1.182,0.642,1.772l0.614,1.78      c0.207,0.592,0.395,1.189,0.591,1.785c0.191,0.596,0.396,1.19,0.576,1.789l0.556,1.794c0.373,1.195,0.723,2.396,1.069,3.598      l0.509,1.806c0.171,0.602,0.336,1.205,0.494,1.81c0.324,1.208,0.631,2.419,0.921,3.635c0.3,1.213,0.556,2.438,0.836,3.657      l0.805,3.664l-0.21-0.435c0.129,0.163,0.253,0.333,0.383,0.493l0.201,0.223c0.068,0.072,0.13,0.157,0.204,0.217l0.214,0.198      c0.07,0.069,0.142,0.134,0.222,0.186l0.23,0.171c0.072,0.064,0.156,0.11,0.24,0.157l0.249,0.146      c0.08,0.055,0.174,0.085,0.262,0.127l0.271,0.122c0.088,0.046,0.187,0.072,0.283,0.102c0.197,0.053,0.383,0.137,0.593,0.17      c0.206,0.04,0.414,0.081,0.623,0.127l-0.078-0.003l0.553,0.017l0.551-0.04l0.545-0.099l0.532-0.162      c0.169-0.076,0.346-0.142,0.514-0.225c0.161-0.097,0.333-0.179,0.489-0.287c0.149-0.117,0.317-0.213,0.458-0.345      c0.138-0.133,0.3-0.246,0.423-0.398c0.126-0.149,0.27-0.286,0.377-0.451c0.113-0.161,0.241-0.314,0.336-0.491      c0.098-0.172,0.213-0.338,0.287-0.525c0.081-0.184,0.178-0.363,0.237-0.556c0.064-0.192,0.145-0.38,0.187-0.58      c0.044-0.198,0.111-0.393,0.138-0.595c0.028-0.203,0.069-0.405,0.089-0.609l0.043-0.616l0.059,0.213      c-0.631-1.043-1.29-2.07-1.976-3.08c-0.342-0.504-0.689-1.007-1.049-1.501c-0.359-0.495-0.712-0.994-1.079-1.483      c-0.727-0.984-1.461-1.963-2.18-2.953c-0.357-0.496-0.712-0.994-1.057-1.497c-0.348-0.502-0.686-1.01-1.017-1.522      c-0.668-1.021-1.29-2.07-1.919-3.115c-0.62-1.049-1.234-2.104-1.833-3.167c-0.598-1.064-1.186-2.134-1.755-3.216      c-0.57-1.082-1.126-2.172-1.656-3.278l0.413,0.23c-0.469-0.044-0.938-0.104-1.406-0.162      C68.612,969.463,68.21,969.403,67.807,969.341z"></path><path fill="#000000" d="M24.988,1000.169l0.757,0.595l0.696,0.43l0.743,0.357l0.77,0.284l0.791,0.212l0.805,0.138l0.811,0.067      l0.812,0.002l0.826-0.064l0.777-0.129l0.777-0.196l0.751-0.264l0.718-0.331l0.678-0.393l0.627-0.458l0.567-0.522l0.445-0.409      l0.508,0.409l0.596,0.48l0.647,0.41l0.688,0.341l0.72,0.271l0.743,0.208l0.76,0.143l0.771,0.077l0.739,0.014l0.843-0.054      l0.726-0.112l0.744-0.178l0.72-0.242l0.688-0.305l0.65-0.364l0.603-0.426l0.546-0.487l0.668-0.595l0.716,0.595l0.561,0.467      l0.614,0.404l0.656,0.338l0.691,0.273l0.719,0.208l0.737,0.144l0.75,0.082l0.377,0.01l0.188,0.007l0.095,0.003l0.047,0.002      l0.024,0.001l0.011,0h0.006h0.004c-0.02,0.001,0.046,0-0.043,0.001l0.844-0.04l0.701-0.097l0.73-0.161l0.708-0.224l0.678-0.288      l0.639-0.35l0.593-0.412l0.539-0.471l0.775-0.68l0.803,0.68l0.543,0.46l0.595,0.4l0.639,0.339l0.674,0.283l0.702,0.22      l0.725,0.158l0.738,0.096l0.748,0.034l0.777-0.037c0.304-0.002,0.493-0.063,0.732-0.094l0.346-0.049      c0.116-0.018,0.237-0.06,0.355-0.088c0.235-0.069,0.483-0.108,0.711-0.199l0.685-0.267l0.042-0.017l0.012-0.004l0.005-0.002      l0.003-0.001c-0.068,0.035-0.018,0.009-0.031,0.016l0.022-0.012l0.094-0.048l0.188-0.096l0.187-0.096l0.094-0.048l0.069-0.045      c0.188-0.121,0.371-0.227,0.602-0.394l0.699-0.488l0.631-0.441l0.629,0.476c0.566,0.429,1.125,0.871,1.688,1.307l0.446,0.345      l-0.013,0.485l-0.096,3.866l-0.115,3.866l-0.221,7.732c-0.031,1.289-0.072,2.577-0.089,3.866l-0.064,3.866      c-0.014,0.645-0.011,1.289-0.017,1.933l-0.011,1.933c-0.006,1.289-0.021,2.577-0.011,3.866l0.004,0.387l-0.393,0.002      l-3.97,0.017c-1.323,0.002-2.646,0.03-3.97,0.043l-0.443,0.004l-0.005-0.453c-0.023-2.54-0.086-5.081-0.135-7.622l-0.192-7.622      l-0.098-3.811l-0.024-0.953l-0.006-0.238l-0.002-0.03c0.002,0.04-0.005-0.108,0.006,0.084l-0.003-0.014l-0.008-0.06      l-0.008-0.059c-0.003-0.021-0.006-0.047-0.008-0.02c-0.004,0.027,0,0.055,0.011,0.079c0.018,0.032-0.003,0.012,0.002,0.019      c0.004-0.001-0.009,0.002-0.008-0.003c-0.011,0.005-0.017-0.006,0.001,0.013c0.003-0.002,0.009,0.002,0.017,0.007      c0.001,0.004,0.032,0.001,0.009,0l-0.238,0.006l-0.953,0.021l-3.811,0.078l-3.811,0.06l-7.622,0.092l-0.952,0.01l-0.239,0.003      c-0.034,0.001,0.249-0.014,0.123-0.006l-0.016,0.001l-0.029,0.004l-0.06,0.007l-0.06,0.007l-0.028,0.003      c-0.002,0.001,0.02,0.002,0.028,0.002c0.24-0.033,0.247-0.095,0.3-0.128c0.044-0.042,0.051-0.07,0.072-0.122      c-0.001-0.01,0.007-0.03,0.011-0.054c0.002-0.02-0.003-0.066-0.001,0l0.003,0.238l0.01,0.953l0.041,3.811l0.063,7.622      c0.031,2.541,0.015,5.082,0.024,7.622l0.004,1.365l-1.37,0.001l-3.198,0.004c-1.066,0.005-2.132-0.009-3.198-0.017l-6.395-0.05      c-2.132-0.012-4.264-0.039-6.396-0.074l-6.396-0.094l-1.159-0.016l0.023-1.12l0.156-7.732l0.194-7.732l0.118-3.866      c0.043-1.289,0.074-2.578,0.128-3.866l0.149-3.866c0.052-1.289,0.095-2.578,0.154-3.866l0.006-0.138l0.108-0.064l0.47-0.279      l0.45-0.317l0.432-0.349L24.988,1000.169z M24.999,1000.519l-0.298,0.327l-0.411,0.403l-0.439,0.376l-0.472,0.345l0.114-0.202      c0.06,1.289,0.102,2.577,0.154,3.866l0.149,3.866c0.055,1.289,0.085,2.577,0.128,3.866l0.117,3.866l0.194,7.732l0.157,7.732      l-1.136-1.136l6.396-0.094c2.131-0.035,4.264-0.062,6.396-0.074l6.395-0.05c1.066-0.008,2.132-0.021,3.198-0.016l3.198,0.004      l-1.367,1.366c0.009-2.54-0.007-5.081,0.023-7.622l0.064-7.622l0.041-3.811l0.01-0.953l0.002-0.238      c-0.001-0.013,0.003-0.139,0.015-0.238c0.009-0.103,0.025-0.203,0.05-0.288c0.087-0.363,0.265-0.673,0.516-0.951      c0.13-0.139,0.274-0.262,0.448-0.362c0.14-0.1,0.415-0.203,0.655-0.253l0.085-0.017l0.029-0.003l0.06-0.006l0.06-0.006      l0.028-0.003l0.016-0.002l0.15-0.008l0.239,0.002l0.952,0.01l7.622,0.093l3.811,0.059l3.811,0.078l0.953,0.021l0.238,0.006      c0.14,0.011,0.348,0.023,0.495,0.079c0.329,0.092,0.585,0.282,0.805,0.5c0.102,0.119,0.202,0.235,0.274,0.379l0.056,0.105      c0.017,0.031,0.035,0.072,0.054,0.125c0.035,0.1,0.063,0.203,0.085,0.305c0.014,0.064,0.013,0.078,0.015,0.096l0.005,0.06      l0.006,0.06l0.001,0.015c0.011,0.202,0.003,0.064,0.005,0.113v0.03l-0.007,0.238l-0.024,0.953l-0.099,3.811l-0.191,7.622      c-0.05,2.541-0.111,5.082-0.135,7.622l-0.449-0.448c1.323,0.013,2.646,0.041,3.97,0.043l3.97,0.017l-0.389,0.389      c0.011-1.289-0.005-2.577-0.011-3.866l-0.011-1.933c-0.006-0.644-0.003-1.289-0.016-1.933l-0.065-3.866      c-0.016-1.289-0.058-2.578-0.089-3.866l-0.221-7.732l-0.115-3.866l-0.096-3.866l0.434,0.83c-0.612-0.432-1.23-0.858-1.839-1.298      l1.26,0.034l-0.666,0.496c-0.219,0.168-0.511,0.361-0.794,0.545l-0.107,0.068l-0.091,0.051l-0.185,0.102l-0.185,0.102      l-0.092,0.051l-0.023,0.013l-0.041,0.02l-0.007,0.003l-0.014,0.006l-0.054,0.024l-0.873,0.372      c-0.292,0.122-0.6,0.188-0.899,0.283c-0.153,0.041-0.298,0.093-0.458,0.125l-0.485,0.084c-0.316,0.046-0.675,0.118-0.934,0.118      l-0.42,0.023l-0.21,0.012l-0.105,0.006l-0.053,0.003l-0.025,0.002l-0.067,0.001l-0.007,0l-0.015,0l-0.934-0.037l-0.931-0.115      l-0.92-0.195l-0.905-0.277l-0.88-0.364l-0.842-0.458l-0.793-0.55l-0.731-0.638h1.578l-0.741,0.631l-0.803,0.54l-0.848,0.449      l-0.882,0.36l-0.906,0.273l-0.922,0.19l-0.974,0.113l-0.844,0.029l-0.053,0.001h-0.007l-0.015-0.001l-0.029-0.001l-0.059-0.003      l-0.116-0.005l-0.233-0.011l-0.466-0.024l-0.926-0.128l-0.915-0.208l-0.895-0.29l-0.869-0.374l-0.83-0.46l-0.781-0.549      l-0.719-0.635h1.384l-0.733,0.616l-0.792,0.525l-0.837,0.437l-0.872,0.342l-0.894,0.256l-0.908,0.174l-0.95,0.098l-0.845,0.016      l-0.043,0l-0.007,0l-0.014,0l-0.028-0.002l-0.057-0.003l-0.114-0.007l-0.229-0.014l-0.456-0.028l-0.906-0.133l-0.892-0.209      l-0.871-0.289l-0.839-0.376l-0.8-0.458l-0.748-0.542l-0.683-0.622h0.952l-0.717,0.584l-0.773,0.497l-0.815,0.408      c-0.284,0.106-0.565,0.216-0.849,0.317c-0.291,0.078-0.579,0.161-0.869,0.233c-0.295,0.052-0.587,0.107-0.882,0.154      c-0.303,0.027-0.608,0.057-0.905,0.078l-0.868,0.001c-0.295-0.023-0.589-0.043-0.882-0.073l-0.869-0.151l-0.851-0.225      l-0.825-0.302l-0.79-0.379l-0.743-0.46l-0.694-0.541L24.999,1000.519z"></path><path fill="#000000" d="M50.603,1013.163c0.661-0.118,1.323-0.205,1.984-0.293c0.662-0.076,1.323-0.157,1.985-0.221      c1.322-0.13,2.646-0.23,3.969-0.308c1.323-0.072,2.647-0.132,3.97-0.162c0.662-0.021,1.323-0.024,1.985-0.037      c0.331-0.007,0.661-0.001,0.992-0.003c0.331-0.003,0.661,0.009,0.992,0.014l1.162,0.014l-0.024,1.123      c-0.034,1.617-0.157,3.234-0.311,4.852c-0.07,0.809-0.153,1.617-0.217,2.425c-0.064,0.809-0.129,1.618-0.163,2.427      c-0.04,0.808-0.057,1.617-0.061,2.425c-0.004,0.808,0.006,1.617,0.03,2.426c0.022,0.808,0.061,1.617,0.113,2.426      c0.043,0.809,0.11,1.617,0.17,2.425l0.049,0.643l-0.749,0.058l-1.984,0.156c-0.662,0.051-1.323,0.107-1.985,0.144      c-0.661,0.043-1.322,0.082-1.984,0.11l-1.985,0.07c-1.322,0.041-2.646,0.094-3.969,0.123l-1.985,0.05      c-0.661,0.013-1.323,0.019-1.984,0.022l-1.38,0.008l0.004-1.384c0.002-0.809,0.002-1.617,0.021-2.425      c0.009-0.809,0.038-1.618,0.062-2.426c0.025-0.809,0.061-1.618,0.098-2.426c0.036-0.809,0.08-1.617,0.134-2.425      c0.052-0.809,0.093-1.618,0.163-2.427c0.065-0.809,0.119-1.617,0.202-2.425c0.073-0.809,0.156-1.618,0.25-2.426      c0.092-0.809,0.196-1.617,0.319-2.426l0.017-0.108L50.603,1013.163z M50.75,1013.441c0.113,0.759,0.213,1.518,0.299,2.276      c0.095,0.808,0.177,1.617,0.25,2.426c0.083,0.809,0.138,1.617,0.203,2.425c0.069,0.809,0.11,1.618,0.162,2.427      c0.055,0.808,0.098,1.617,0.135,2.425c0.036,0.808,0.071,1.617,0.097,2.426c0.023,0.808,0.053,1.617,0.062,2.426      c0.019,0.809,0.019,1.617,0.021,2.425l-1.375-1.375c0.661,0.004,1.323,0.01,1.984,0.022l1.985,0.05      c1.322,0.03,2.646,0.083,3.969,0.123l1.985,0.071c0.662,0.028,1.323,0.067,1.984,0.11c0.662,0.036,1.323,0.093,1.985,0.144      l1.984,0.156l-0.7,0.7c0.06-0.809,0.127-1.617,0.171-2.425c0.053-0.809,0.091-1.618,0.113-2.426      c0.023-0.809,0.034-1.618,0.031-2.426c-0.006-0.809-0.022-1.617-0.063-2.425c-0.034-0.809-0.098-1.618-0.163-2.427      c-0.063-0.809-0.146-1.617-0.217-2.425c-0.153-1.618-0.275-3.234-0.311-4.852l1.138,1.138c-0.331,0.004-0.661,0.017-0.992,0.014      c-0.331-0.001-0.661,0.003-0.992-0.003c-0.662-0.012-1.323-0.014-1.985-0.036c-1.322-0.029-2.646-0.09-3.97-0.161      c-1.323-0.077-2.646-0.178-3.969-0.308c-0.662-0.063-1.323-0.146-1.985-0.221C51.975,1013.631,51.362,1013.546,50.75,1013.441z"></path></g></g></g><g><g><path fill="#000000" d="M77.062,51.303c0,0-0.013,0.031-0.036,0.091c-0.026,0.055-0.059,0.145-0.113,0.241     c-0.1,0.202-0.258,0.473-0.47,0.762c-0.211,0.29-0.479,0.599-0.788,0.895c-0.309,0.298-0.658,0.586-1.031,0.84     c-0.742,0.513-1.58,0.885-2.276,1.066c-0.346,0.093-0.656,0.141-0.881,0.16c-0.109,0.015-0.205,0.013-0.266,0.017     c-0.064,0-0.099,0-0.099,0s0.013-0.032,0.036-0.091c0.026-0.055,0.059-0.145,0.112-0.242c0.101-0.203,0.257-0.474,0.47-0.763     c0.421-0.583,1.072-1.228,1.82-1.732c0.372-0.255,0.768-0.476,1.157-0.656c0.389-0.181,0.774-0.317,1.121-0.409     c0.347-0.094,0.655-0.141,0.88-0.162c0.108-0.016,0.204-0.013,0.266-0.018C77.027,51.303,77.062,51.303,77.062,51.303z"></path><path fill="#000000" d="M77.062,54.965c0,0-0.013,0.032-0.036,0.091c-0.026,0.055-0.059,0.145-0.113,0.241     c-0.1,0.203-0.258,0.473-0.47,0.762c-0.211,0.29-0.479,0.599-0.788,0.896c-0.309,0.297-0.658,0.585-1.031,0.839     c-0.741,0.514-1.58,0.886-2.276,1.067c-0.346,0.093-0.656,0.141-0.881,0.16c-0.109,0.015-0.205,0.013-0.266,0.018     c-0.064,0-0.099,0-0.099,0s0.013-0.032,0.036-0.091c0.026-0.056,0.059-0.145,0.112-0.241c0.101-0.203,0.257-0.474,0.47-0.763     c0.421-0.583,1.072-1.229,1.82-1.733c0.372-0.255,0.768-0.476,1.157-0.656c0.389-0.181,0.774-0.317,1.121-0.409     c0.347-0.093,0.655-0.14,0.88-0.161c0.108-0.016,0.204-0.013,0.266-0.018C77.027,54.965,77.062,54.965,77.062,54.965z"></path><path fill="#000000" d="M77.062,57.984c0,0-0.013,0.032-0.036,0.091c-0.026,0.055-0.059,0.145-0.113,0.241     c-0.1,0.202-0.258,0.473-0.47,0.762c-0.211,0.29-0.479,0.599-0.788,0.896c-0.309,0.297-0.658,0.585-1.031,0.839     c-0.741,0.514-1.58,0.886-2.276,1.067c-0.346,0.092-0.656,0.14-0.881,0.159c-0.109,0.016-0.205,0.013-0.266,0.018     c-0.064,0-0.099,0-0.099,0s0.013-0.032,0.036-0.092c0.026-0.055,0.059-0.145,0.112-0.241c0.101-0.203,0.257-0.474,0.47-0.763     c0.421-0.583,1.072-1.229,1.82-1.733c0.372-0.255,0.768-0.476,1.157-0.656c0.389-0.181,0.774-0.317,1.121-0.409     c0.347-0.093,0.655-0.141,0.88-0.161c0.108-0.016,0.204-0.013,0.266-0.018C77.027,57.984,77.062,57.984,77.062,57.984z"></path></g><g><path fill="#000000" d="M77.062,57.984c0,0-0.013,0.032-0.036,0.091c-0.026,0.055-0.059,0.145-0.113,0.241     c-0.1,0.202-0.258,0.473-0.47,0.762c-0.211,0.29-0.479,0.599-0.788,0.896c-0.309,0.298-0.658,0.585-1.031,0.839     c-0.742,0.514-1.58,0.886-2.276,1.067c-0.346,0.093-0.656,0.141-0.881,0.16c-0.109,0.016-0.205,0.013-0.266,0.018     c-0.064,0-0.099,0-0.099,0s0.013-0.032,0.036-0.091c0.026-0.055,0.059-0.145,0.112-0.242c0.101-0.203,0.257-0.474,0.47-0.763     c0.421-0.583,1.072-1.229,1.82-1.733c0.372-0.255,0.768-0.476,1.157-0.656c0.389-0.181,0.774-0.317,1.121-0.409     c0.347-0.093,0.655-0.141,0.88-0.161c0.108-0.016,0.204-0.013,0.266-0.018C77.027,57.984,77.062,57.984,77.062,57.984z"></path><path fill="#000000" d="M77.062,61.646c0,0-0.013,0.031-0.036,0.091c-0.026,0.055-0.059,0.145-0.113,0.241     c-0.1,0.202-0.258,0.472-0.47,0.761c-0.211,0.29-0.479,0.599-0.788,0.896c-0.309,0.296-0.658,0.585-1.031,0.839     c-0.741,0.514-1.58,0.886-2.276,1.067c-0.346,0.092-0.656,0.14-0.881,0.159c-0.109,0.015-0.205,0.013-0.266,0.017     c-0.064,0.001-0.099,0.001-0.099,0.001s0.013-0.032,0.036-0.092c0.026-0.055,0.059-0.145,0.112-0.241     c0.101-0.203,0.257-0.474,0.47-0.763c0.421-0.583,1.072-1.229,1.82-1.734c0.372-0.255,0.768-0.476,1.157-0.656     c0.389-0.181,0.774-0.317,1.121-0.409c0.347-0.094,0.655-0.142,0.88-0.162c0.108-0.016,0.204-0.013,0.266-0.018     C77.027,61.646,77.062,61.646,77.062,61.646z"></path><path fill="#000000" d="M77.062,64.665c0,0-0.013,0.032-0.036,0.091c-0.026,0.056-0.059,0.145-0.113,0.241     c-0.1,0.203-0.258,0.473-0.47,0.762c-0.211,0.29-0.479,0.599-0.788,0.896c-0.309,0.296-0.658,0.585-1.031,0.839     c-0.741,0.514-1.58,0.886-2.276,1.067c-0.346,0.092-0.656,0.141-0.881,0.16c-0.109,0.016-0.205,0.013-0.266,0.017     c-0.064,0-0.099,0-0.099,0s0.013-0.032,0.036-0.091c0.026-0.055,0.059-0.145,0.112-0.241c0.101-0.203,0.257-0.474,0.47-0.763     c0.421-0.583,1.072-1.229,1.82-1.733c0.372-0.255,0.768-0.476,1.157-0.656c0.389-0.18,0.774-0.317,1.121-0.408     c0.347-0.094,0.655-0.142,0.88-0.162c0.108-0.016,0.204-0.013,0.266-0.018C77.027,64.666,77.062,64.665,77.062,64.665z"></path></g><g><path fill="#000000" d="M77.062,64.665c0,0-0.013,0.032-0.036,0.091c-0.026,0.056-0.059,0.145-0.113,0.241     c-0.1,0.203-0.258,0.473-0.47,0.762c-0.211,0.29-0.479,0.599-0.788,0.896c-0.309,0.297-0.658,0.585-1.031,0.839     c-0.742,0.514-1.58,0.886-2.276,1.067c-0.346,0.093-0.656,0.141-0.881,0.16c-0.109,0.015-0.205,0.012-0.266,0.017     c-0.064,0-0.099,0-0.099,0s0.013-0.032,0.036-0.091c0.026-0.056,0.059-0.145,0.112-0.242c0.101-0.203,0.257-0.474,0.47-0.763     c0.421-0.583,1.072-1.228,1.82-1.733c0.372-0.255,0.768-0.476,1.157-0.656c0.389-0.18,0.774-0.317,1.121-0.408     c0.347-0.094,0.655-0.142,0.88-0.162c0.108-0.016,0.204-0.013,0.266-0.018C77.027,64.666,77.062,64.665,77.062,64.665z"></path><path fill="#000000" d="M77.062,68.327c0,0-0.013,0.032-0.036,0.091c-0.026,0.055-0.059,0.145-0.113,0.241     c-0.1,0.202-0.258,0.472-0.47,0.762c-0.211,0.29-0.479,0.599-0.788,0.896c-0.309,0.296-0.658,0.585-1.031,0.839     c-0.741,0.514-1.58,0.886-2.276,1.067c-0.346,0.092-0.656,0.14-0.881,0.159c-0.109,0.015-0.205,0.013-0.266,0.018     c-0.064,0-0.099,0-0.099,0s0.013-0.032,0.036-0.092c0.026-0.055,0.059-0.145,0.112-0.241c0.101-0.203,0.257-0.474,0.47-0.763     c0.421-0.583,1.072-1.229,1.82-1.733c0.372-0.255,0.768-0.476,1.157-0.656c0.389-0.181,0.774-0.317,1.121-0.409     c0.347-0.093,0.655-0.142,0.88-0.161c0.108-0.016,0.204-0.013,0.266-0.019C77.027,68.327,77.062,68.327,77.062,68.327z"></path><path fill="#000000" d="M77.062,71.346c0,0-0.013,0.031-0.036,0.091c-0.026,0.055-0.059,0.145-0.113,0.241     c-0.1,0.202-0.258,0.472-0.47,0.761c-0.211,0.29-0.479,0.599-0.788,0.896c-0.309,0.296-0.658,0.585-1.031,0.839     c-0.741,0.514-1.58,0.886-2.276,1.067c-0.346,0.092-0.656,0.14-0.881,0.159c-0.109,0.016-0.205,0.013-0.266,0.017     c-0.064,0.001-0.099,0.001-0.099,0.001s0.013-0.032,0.036-0.092c0.026-0.055,0.059-0.145,0.112-0.241     c0.101-0.203,0.257-0.474,0.47-0.763c0.421-0.583,1.072-1.229,1.82-1.733c0.372-0.255,0.768-0.476,1.157-0.656     c0.389-0.181,0.774-0.317,1.121-0.409c0.347-0.094,0.655-0.142,0.88-0.162c0.108-0.016,0.204-0.013,0.266-0.018     C77.027,71.346,77.062,71.346,77.062,71.346z"></path></g><g><path fill="#000000" d="M77.062,71.346c0,0-0.013,0.031-0.036,0.091c-0.026,0.055-0.059,0.145-0.113,0.241     c-0.1,0.202-0.258,0.473-0.47,0.761c-0.211,0.29-0.479,0.599-0.788,0.896c-0.309,0.297-0.658,0.585-1.031,0.839     c-0.742,0.514-1.58,0.886-2.276,1.067c-0.346,0.092-0.656,0.14-0.881,0.159c-0.109,0.016-0.205,0.013-0.266,0.017     c-0.064,0-0.099,0-0.099,0s0.013-0.031,0.036-0.091c0.026-0.055,0.059-0.145,0.112-0.241c0.101-0.203,0.257-0.474,0.47-0.763     c0.421-0.583,1.072-1.229,1.82-1.733c0.372-0.255,0.768-0.476,1.157-0.656c0.389-0.181,0.774-0.317,1.121-0.409     c0.347-0.094,0.655-0.141,0.88-0.162c0.108-0.016,0.204-0.013,0.266-0.018C77.027,71.346,77.062,71.346,77.062,71.346z"></path><path fill="#000000" d="M77.062,75.007c0,0-0.013,0.032-0.036,0.091c-0.026,0.055-0.059,0.145-0.113,0.241     c-0.1,0.203-0.258,0.473-0.47,0.762c-0.211,0.29-0.479,0.599-0.788,0.896c-0.309,0.297-0.658,0.585-1.031,0.839     c-0.741,0.514-1.58,0.886-2.276,1.067c-0.346,0.093-0.656,0.141-0.881,0.16c-0.109,0.015-0.205,0.013-0.266,0.017     c-0.064,0-0.099,0-0.099,0s0.013-0.032,0.036-0.091c0.026-0.056,0.059-0.145,0.112-0.241c0.101-0.203,0.257-0.474,0.47-0.763     c0.421-0.583,1.072-1.229,1.82-1.733c0.372-0.254,0.768-0.476,1.157-0.656c0.389-0.181,0.774-0.317,1.121-0.408     c0.347-0.094,0.655-0.141,0.88-0.162c0.108-0.016,0.204-0.013,0.266-0.018C77.027,75.007,77.062,75.007,77.062,75.007z"></path><path fill="#000000" d="M77.062,78.027c0,0-0.013,0.031-0.036,0.091c-0.026,0.054-0.059,0.145-0.113,0.241     c-0.1,0.202-0.258,0.473-0.47,0.762c-0.211,0.29-0.479,0.599-0.788,0.896c-0.309,0.297-0.658,0.585-1.031,0.839     c-0.741,0.514-1.58,0.886-2.276,1.067c-0.346,0.093-0.656,0.14-0.881,0.16c-0.109,0.015-0.205,0.012-0.266,0.017     c-0.064,0-0.099,0-0.099,0s0.013-0.032,0.036-0.092c0.026-0.055,0.059-0.145,0.112-0.241c0.101-0.203,0.257-0.474,0.47-0.763     c0.421-0.583,1.072-1.229,1.82-1.733c0.372-0.255,0.768-0.476,1.157-0.657c0.389-0.181,0.774-0.317,1.121-0.409     c0.347-0.093,0.655-0.141,0.88-0.161c0.108-0.016,0.204-0.013,0.266-0.018C77.027,78.027,77.062,78.027,77.062,78.027z"></path></g></g><g><g><path fill="#000000" d="M72.88,16.029c0,0,0.001,0.029,0.002,0.084c-0.004,0.052,0,0.135-0.013,0.226     c-0.016,0.191-0.056,0.448-0.136,0.73s-0.199,0.588-0.36,0.89c-0.159,0.302-0.356,0.603-0.587,0.876     c-0.452,0.551-1.037,0.993-1.567,1.247c-0.263,0.129-0.509,0.214-0.694,0.262c-0.088,0.028-0.171,0.04-0.221,0.052     c-0.055,0.009-0.084,0.014-0.084,0.014s0-0.029-0.001-0.084c0.004-0.052,0-0.135,0.013-0.226c0.015-0.191,0.054-0.449,0.134-0.73     c0.156-0.567,0.487-1.221,0.948-1.765c0.229-0.274,0.488-0.522,0.758-0.733c0.268-0.212,0.549-0.384,0.813-0.513     c0.263-0.129,0.509-0.214,0.694-0.263c0.087-0.029,0.169-0.04,0.219-0.052C72.852,16.034,72.88,16.029,72.88,16.029z"></path><path fill="#000000" d="M74.879,19.097c0,0-0.001,0.029-0.005,0.084c-0.008,0.051-0.011,0.134-0.031,0.224     c-0.03,0.188-0.09,0.442-0.193,0.716c-0.102,0.275-0.245,0.571-0.43,0.858c-0.184,0.288-0.404,0.571-0.655,0.825     c-0.495,0.513-1.113,0.905-1.662,1.117c-0.272,0.107-0.524,0.171-0.714,0.205c-0.089,0.021-0.172,0.026-0.223,0.034     c-0.055,0.005-0.085,0.007-0.085,0.007s0.002-0.029,0.006-0.084c0.007-0.051,0.011-0.134,0.03-0.225     c0.029-0.189,0.09-0.442,0.192-0.717c0.201-0.552,0.583-1.177,1.087-1.682c0.249-0.255,0.527-0.481,0.813-0.669     c0.285-0.189,0.578-0.338,0.852-0.445c0.271-0.108,0.524-0.172,0.712-0.206c0.09-0.022,0.173-0.026,0.224-0.035     C74.851,19.099,74.879,19.097,74.879,19.097z"></path><path fill="#000000" d="M76.621,21.828c0,0-0.003,0.031-0.009,0.09c-0.011,0.055-0.018,0.143-0.042,0.24     c-0.041,0.203-0.114,0.477-0.235,0.776c-0.119,0.3-0.284,0.625-0.49,0.946s-0.452,0.638-0.728,0.928     c-0.545,0.583-1.216,1.049-1.804,1.316c-0.293,0.136-0.563,0.224-0.764,0.274c-0.096,0.03-0.184,0.041-0.238,0.054     c-0.059,0.009-0.09,0.014-0.09,0.014s0.004-0.031,0.01-0.09c0.011-0.055,0.017-0.144,0.041-0.241     c0.04-0.203,0.113-0.477,0.233-0.776c0.236-0.602,0.665-1.296,1.22-1.872c0.274-0.29,0.579-0.552,0.888-0.775     c0.31-0.224,0.626-0.405,0.919-0.54c0.292-0.136,0.562-0.224,0.762-0.275c0.096-0.029,0.184-0.041,0.238-0.054     C76.59,21.833,76.621,21.828,76.621,21.828z"></path></g><path fill="#000000" d="M77.92,24.831c0,0-0.004,0.031-0.01,0.09c-0.011,0.055-0.017,0.144-0.042,0.24    c-0.04,0.203-0.114,0.477-0.234,0.775c-0.119,0.3-0.284,0.625-0.49,0.946c-0.207,0.321-0.452,0.638-0.728,0.928    c-0.546,0.583-1.216,1.049-1.805,1.316c-0.293,0.135-0.563,0.224-0.764,0.274c-0.095,0.029-0.184,0.041-0.237,0.054    c-0.059,0.009-0.09,0.014-0.09,0.014s0.003-0.031,0.01-0.09c0.01-0.055,0.016-0.144,0.04-0.241    c0.04-0.203,0.113-0.477,0.233-0.776c0.236-0.602,0.666-1.296,1.221-1.872c0.273-0.29,0.579-0.552,0.888-0.775    c0.309-0.224,0.625-0.405,0.919-0.54c0.291-0.136,0.561-0.224,0.762-0.275c0.095-0.029,0.184-0.041,0.237-0.054    C77.888,24.836,77.92,24.831,77.92,24.831z"></path><path fill="#000000" d="M79.261,27.514c0,0-0.003,0.031-0.009,0.089c-0.011,0.055-0.018,0.144-0.042,0.24    c-0.04,0.203-0.115,0.477-0.234,0.776c-0.119,0.3-0.284,0.625-0.49,0.945c-0.206,0.321-0.452,0.638-0.728,0.928    c-0.546,0.583-1.217,1.048-1.805,1.316c-0.293,0.136-0.563,0.224-0.764,0.274c-0.096,0.029-0.184,0.041-0.238,0.054    c-0.059,0.009-0.089,0.014-0.089,0.014s0.003-0.032,0.009-0.09c0.01-0.055,0.017-0.144,0.042-0.241    c0.039-0.203,0.113-0.478,0.232-0.777c0.236-0.602,0.666-1.295,1.22-1.871c0.275-0.291,0.579-0.552,0.889-0.775    c0.308-0.223,0.625-0.404,0.918-0.54c0.293-0.136,0.563-0.224,0.763-0.275c0.096-0.03,0.183-0.041,0.237-0.054    C79.23,27.519,79.261,27.514,79.261,27.514z"></path><path fill="#000000" d="M80.603,29.914c0,0-0.003,0.031-0.009,0.09c-0.011,0.055-0.018,0.144-0.043,0.24    c-0.04,0.203-0.113,0.477-0.234,0.775c-0.119,0.3-0.283,0.625-0.49,0.946c-0.206,0.321-0.452,0.638-0.728,0.928    c-0.545,0.583-1.215,1.049-1.804,1.316c-0.293,0.135-0.563,0.224-0.764,0.274c-0.096,0.029-0.184,0.041-0.238,0.054    c-0.059,0.009-0.09,0.014-0.09,0.014s0.004-0.032,0.01-0.09c0.011-0.055,0.017-0.144,0.041-0.241    c0.04-0.203,0.113-0.477,0.233-0.776c0.236-0.602,0.666-1.295,1.22-1.872c0.274-0.29,0.579-0.552,0.888-0.775    c0.31-0.224,0.626-0.405,0.919-0.54c0.292-0.136,0.562-0.224,0.762-0.275c0.096-0.03,0.185-0.042,0.238-0.054    C80.571,29.919,80.603,29.914,80.603,29.914z"></path><path fill="#000000" d="M82.268,32.232c0,0-0.003,0.031-0.009,0.089c-0.011,0.055-0.018,0.144-0.043,0.24    c-0.04,0.203-0.113,0.477-0.233,0.775c-0.12,0.3-0.284,0.626-0.491,0.946c-0.207,0.321-0.452,0.638-0.728,0.928    c-0.545,0.584-1.215,1.049-1.805,1.316c-0.292,0.136-0.563,0.224-0.763,0.274c-0.096,0.029-0.184,0.041-0.238,0.053    c-0.059,0.009-0.09,0.015-0.09,0.015s0.004-0.032,0.01-0.09c0.01-0.056,0.017-0.144,0.041-0.241    c0.04-0.204,0.113-0.478,0.233-0.777c0.236-0.602,0.665-1.295,1.22-1.871c0.274-0.291,0.579-0.552,0.888-0.775    c0.31-0.223,0.626-0.404,0.919-0.54c0.292-0.136,0.562-0.224,0.762-0.275c0.096-0.03,0.184-0.042,0.238-0.054    C82.236,32.237,82.268,32.232,82.268,32.232z"></path><path fill="#000000" d="M83.933,34.915c0,0-0.004,0.031-0.01,0.09c-0.01,0.055-0.018,0.143-0.042,0.24    c-0.04,0.203-0.114,0.477-0.234,0.776c-0.119,0.3-0.284,0.625-0.491,0.946c-0.206,0.321-0.451,0.638-0.727,0.927    c-0.546,0.584-1.216,1.049-1.805,1.316c-0.292,0.136-0.563,0.224-0.764,0.274c-0.095,0.029-0.184,0.041-0.238,0.054    c-0.058,0.009-0.089,0.014-0.089,0.014s0.003-0.032,0.01-0.09c0.01-0.055,0.016-0.144,0.041-0.241    c0.04-0.203,0.113-0.478,0.233-0.776c0.235-0.603,0.665-1.295,1.22-1.872c0.274-0.29,0.578-0.551,0.888-0.775    c0.309-0.223,0.625-0.404,0.919-0.539c0.292-0.136,0.562-0.224,0.762-0.275c0.096-0.029,0.184-0.041,0.237-0.054    C83.901,34.919,83.933,34.915,83.933,34.915z"></path><path fill="#000000" d="M85.274,37.597c0,0-0.004,0.032-0.011,0.09c-0.01,0.055-0.016,0.144-0.041,0.24    c-0.04,0.203-0.114,0.477-0.234,0.775c-0.119,0.3-0.283,0.626-0.49,0.946c-0.207,0.321-0.452,0.638-0.728,0.928    c-0.546,0.583-1.217,1.049-1.805,1.316c-0.293,0.136-0.563,0.224-0.764,0.274c-0.096,0.03-0.184,0.041-0.238,0.054    c-0.059,0.009-0.089,0.014-0.089,0.014s0.003-0.032,0.009-0.09c0.011-0.055,0.018-0.143,0.042-0.24    c0.039-0.203,0.113-0.477,0.233-0.777c0.235-0.602,0.665-1.295,1.219-1.871c0.275-0.291,0.579-0.552,0.889-0.775    c0.309-0.224,0.625-0.405,0.918-0.54c0.293-0.137,0.563-0.224,0.763-0.275c0.096-0.03,0.183-0.041,0.237-0.054    C85.243,37.602,85.274,37.597,85.274,37.597z"></path><path fill="#000000" d="M86.615,40.279c0,0-0.003,0.032-0.009,0.09c-0.011,0.055-0.018,0.143-0.042,0.24    c-0.04,0.203-0.114,0.477-0.234,0.776c-0.119,0.3-0.284,0.625-0.491,0.946c-0.206,0.32-0.451,0.638-0.727,0.928    c-0.546,0.583-1.216,1.049-1.805,1.316c-0.293,0.135-0.563,0.224-0.764,0.273c-0.096,0.03-0.184,0.041-0.238,0.054    c-0.058,0.009-0.09,0.014-0.09,0.014s0.004-0.031,0.01-0.089c0.011-0.056,0.017-0.144,0.041-0.241    c0.04-0.203,0.113-0.477,0.233-0.777c0.236-0.602,0.666-1.295,1.22-1.871c0.274-0.29,0.579-0.552,0.888-0.775    c0.31-0.224,0.626-0.405,0.92-0.54c0.291-0.136,0.562-0.224,0.762-0.275c0.095-0.03,0.184-0.041,0.237-0.054    C86.585,40.284,86.615,40.279,86.615,40.279z"></path></g></g></svg>