<svg fill="#445544" xmlns="http://www.w3.org/2000/svg" viewBox="0 0 512 512" x="0px" y="0px"><path d="M287.31,420.83c18.1-5.71,55.65-19.25,89.65-42.24a2.9,2.9,0,0,0-2.86-5A253.51,253.51,0,0,1,291.69,396a52.08,52.08,0,0,1-25.85-4.45c-56.75-25.65-125.14-71.53-151.91-90.06a32.2,32.2,0,0,1-3.87-3.15A10.5,10.5,0,0,0,99.13,296L80.76,303a2.88,2.88,0,0,0-1.26,4.51,23.35,23.35,0,0,0,5.37,4.79c31.31,20.34,98.66,62.68,181.8,106.69A26.87,26.87,0,0,0,287.31,420.83Z"/><path d="M77.56,282.34l14.66-5.52a7.63,7.63,0,0,0,5-6.58,32.3,32.3,0,0,1,4.09-13.78c31.26-55.7,19.2-98.33,9.23-118.78-.24-.5-.47-1-.67-1.5a5.72,5.72,0,0,0-9.14-2.18l-2.79,2.52a13.4,13.4,0,0,0-4.15,12.67C97.65,168.07,104.26,220.92,74,278.3l0,.06A2.89,2.89,0,0,0,77.56,282.34Z"/><path d="M476.32,47.09c-31.23,20.07-61.47,43.87-79.92,59a2.63,2.63,0,0,1-3.77-3.63l51.44-67.83a6.7,6.7,0,0,0-5.34-10.74H421a6.71,6.71,0,0,0-5.54,2.93C403,45.33,333.25,147,264.6,221.68a12.68,12.68,0,0,0,17.95,17.88c27.67-25.77,116.89-107.35,191.27-158.47A32.87,32.87,0,0,0,488.07,54v-.47A7.63,7.63,0,0,0,476.32,47.09Z"/><path d="M281.13,161.77c-8.61-7-17.92-14.16-27.86-21.19a13.43,13.43,0,0,0-15.82.25,150.92,150.92,0,0,1-43.27,22.62,8,8,0,0,0-5.44,8.46v0a3.23,3.23,0,0,0,2.89,2.89L233.86,179a10.16,10.16,0,0,1,9.08,8.83l2.4,18.75a2.45,2.45,0,0,0,4.24,1.34l0,0c10.85-11.8,21.72-24.28,32.38-37A6.45,6.45,0,0,0,281.13,161.77Z"/><path d="M229.55,243.4l-5-38.79a7.76,7.76,0,0,0-6.94-6.74l-21.85-2.18a5.85,5.85,0,0,0-6.43,5.49,211.05,211.05,0,0,1-7.83,46.37,13.37,13.37,0,0,0,1.27,10.23,6.64,6.64,0,0,0,7.47,3.15l33.45-8.87A7.93,7.93,0,0,0,229.55,243.4Z"/><path d="M309.61,284.64a10.41,10.41,0,0,0,4.3,10.5L334,309.06l0,0a4.69,4.69,0,0,0,4.47.6,234.83,234.83,0,0,0,24.22-11.52,8,8,0,0,0,4.15-7.4,140.08,140.08,0,0,0-21.46-67.07,20.82,20.82,0,0,0-1.95-2.58l0,0a6.86,6.86,0,0,0-9.72-.61c-13,11.66-23.93,21.61-31.67,28.76a3.93,3.93,0,0,0,1.82,6.72l1.17.26A10.17,10.17,0,0,1,312.78,268Z"/><path d="M289.73,280.31a6.72,6.72,0,0,0-5.14-7.83l-30.66-6.86a9.56,9.56,0,0,0-5,.2l-32.17,10a4.17,4.17,0,0,0-1.16,7.39c16.8,11.77,36.86,25,56.47,36a35.47,35.47,0,0,0,25.5,3.54c2.16-.51,4.45-1.08,6.84-1.71a3.81,3.81,0,0,0,1.22-6.82l-14.36-10A10.17,10.17,0,0,1,287.13,294Z"/><path d="M300.67,148.18q4.56-5.66,9-11.3a6.16,6.16,0,0,0-.79-8.46C288.83,110.8,266,92,242.34,74.92a17.61,17.61,0,0,0-23,2c-14.41,15-44.12,39.87-84.86,42.94a7.3,7.3,0,0,0-6.06,10.48c10,20.54,26.16,70.39-9.66,134.23a15.47,15.47,0,0,0,4.66,20.31c26.79,18.54,93.84,63.51,149.25,88.56a35.5,35.5,0,0,0,17.71,3.05A236.29,236.29,0,0,0,413,327.41a11.75,11.75,0,0,0,4.4-10.52c-2-18.63-9.76-73.76-33.15-113.92a56.67,56.67,0,0,0-8.4-11.07L375,191a5.44,5.44,0,0,0-7.44-.32q-6.22,5.35-12.14,10.53A5.44,5.44,0,0,0,355,209l1,1.19a39.3,39.3,0,0,1,3.43,4.55c27.29,42.73,24.21,84.75,24.07,86.52a8.36,8.36,0,0,1-4,6.45C351.07,325,321.35,334.25,301.42,339A52.13,52.13,0,0,1,264,333.74c-34.23-19.13-69.58-44.86-87.6-58.49A30.3,30.3,0,0,1,165.5,243c13.34-46.8,4.76-81.65,4.67-82a8.4,8.4,0,0,1,3.37-9,8.9,8.9,0,0,1,3.37-1.34c21.62-4.18,39.44-15,50.6-23.26a30.06,30.06,0,0,1,35.4-.49C273.29,134.3,283,141.78,292,149.1A6.16,6.16,0,0,0,300.67,148.18Z"/><path d="M33.69,487.85c38.47-9.2,76.71-23,101.6-32.71,5.57-2.18,3.79-10.47-2.18-10.19l-31.24,1.46a6.57,6.57,0,0,1-5-11.17c13.19-13.44,34.44-33.42,43.42-43a7.5,7.5,0,0,0-1.72-11.63l-16.45-9.5a7.49,7.49,0,0,0-9.78,2l-50.5,64.39a6.78,6.78,0,0,1-12.13-2.82l-1.66-9.17a5.59,5.59,0,0,0-10.9-.44c-6.43,23.85-10.65,42.29-13,53.43A7.89,7.89,0,0,0,33.69,487.85Z"/><path d="M42.86,212.1a10.45,10.45,0,0,0-11,11.46,65.08,65.08,0,0,0,5.51,20.37,10.49,10.49,0,0,0,14.91,4.71A66.2,66.2,0,0,0,71.9,231.23a10.44,10.44,0,0,0-6.35-16.43A160.32,160.32,0,0,0,42.86,212.1Z"/><path d="M149.82,40.4a8.24,8.24,0,0,0-12.68,5,102,102,0,0,0-2.42,18.7,8.23,8.23,0,0,0,7.48,8.36,109.4,109.4,0,0,0,17.59.29,8.21,8.21,0,0,0,7.05-11.17A45.39,45.39,0,0,0,149.82,40.4Z"/><circle cx="360.6" cy="422.22" r="12.23"/><path d="M471.37,249c-4.35-7.52-13.29-10.49-20-6.63s-8.59,13.09-4.25,20.61,13.29,10.49,20,6.63S475.71,256.53,471.37,249Z"/><path d="M478.94,117.9a5.53,5.53,0,0,0-8.42-5.2C445,128.5,410.67,157,399.35,166.54a5.39,5.39,0,0,0,6,8.88c18.67-9.7,46.69-19.72,61.33-24.71a15.72,15.72,0,0,0,10.6-13.54Z"/><path d="M356.76,37.3,332.63,84.15a6.39,6.39,0,0,0,10.82,6.71l26.27-35.69a13.15,13.15,0,0,0,1.14-13.77c-.77-1.52-1.61-3-2.46-4.45A6.65,6.65,0,0,0,356.76,37.3Z"/></svg>