<svg fill="#5F7C74" xmlns="http://www.w3.org/2000/svg" xmlns:xlink="http://www.w3.org/1999/xlink" version="1.1" x="0px" y="0px" viewBox="0 0 100 100" style="enable-background:new 0 0 100 100;" xml:space="preserve"><g><path d="M94.9,24.2c-0.3,3-3.9,5.7-5.1,6.5c-0.6,2.8-3.9,6-4.9,6.9c-0.9,3.2-4.5,6.5-5.6,7.5c-0.5,4.6-4.9,7.6-6.6,8.5    c0,3.4-2.8,5.3-4,5.9c-0.5,2.3-2.5,4.3-3.4,5.1c-0.2,3-3,5.9-4,6.8c-0.9,3.8-4.4,7.7-5.4,8.8c-0.2,4.6-4.3,9.1-5.2,10.1    c-0.9,2.6-6.1,7-9.4,9.6c4.2,0,11.7,0.1,14.7,0c8.9-0.2,16.2-5.9,21.7-16.9c4.4-8.8,6.7-18.8,8.2-26.5    C88,45.6,96.7,27.5,99.8,21.4C97.2,22.2,95.5,23.6,94.9,24.2z"/><path d="M32.3,82.2c-0.7-1.3-3.3-7-2.6-10.7c-0.9-1.6-4.5-7.9-4.2-12.2c-1.1-1.3-3.9-4.9-3.7-7.4c-0.8-1.5-3-6-3.2-8.4    c-0.9-1-3.2-4.2-2.8-7.1c-1.7-1.5-4.6-4.2-4.9-6.2c-0.7-1.1-4.2-6.2-10.8-8.6c4.2,7.1,16.3,28.7,16.1,42.8    c-0.2,9.8,2.3,22.8,9.6,30.3c3.3,3.4,7.3,5.2,11.9,5.3c0.8-0.6,1.7-1.3,2.6-2c-1.2-1.4-3.1-3.9-3.3-5.9    C35.9,90.9,32.4,87.1,32.3,82.2z"/><path d="M30.9,50.3c0,1.6-0.2,6.8-3.3,9.1c-0.1,3.5,2.9,9.3,4.1,11.3c0.1,0.2,0.2,0.5,0.1,0.8c-0.8,2.7,1.5,8,2.4,9.9    c0.1,0.1,0.1,0.3,0.1,0.5c0,4.9,4.4,8.8,4.4,8.8c0.2,0.2,0.4,0.5,0.3,0.9c-0.1,1.1,1.5,3.3,2.9,5c3.2-2.7,6.3-5.6,6.7-7    c0-0.2,0.1-0.3,0.3-0.5c0,0,4.7-4.8,4.8-9.1c0,0,0,0,0,0c-0.3-1-1.6-6.5-1.1-10c-0.4-1.2-1.7-5.7-1.2-9.4    c-0.6-1.6-2.4-6.5-1.8-9.2c-0.6-1.5-2.2-5.6-1.4-8c-0.8-1.5-2.9-5.9-2.4-8.7c-0.6-1-2-3.9-1.9-7c-0.6-1-2.4-4.7-1.4-7.7    c-0.6-1.4-2.4-5.4-1.8-8.2l-1.9-6c-0.3,5.4-0.8,12.9-2.1,16.1c0.1,1.3,0.5,6.3-0.8,8.8c0,0.2-0.1,0.5-0.1,1    c-0.3,1.9-1.1,5.8-2.8,8.4C33.2,41.9,33.1,48,30.9,50.3z"/><path d="M18.8,18.6c2.4,3.8,2.3,8.1,2.2,9.3c2.2,4.3,1.6,8.7,1.4,9.7c1.1,6.2,0.4,9.6,0.1,10.8c0,0,0,0,0,0c0.5,1,1,2,1.4,2.8    c0.1,0.2,0.2,0.5,0.1,0.7c-0.2,1,1.2,3.4,2.8,5.5c1.9-1.9,2.1-5.9,2-7.5c0-0.3,0.1-0.7,0.4-0.9c1.4-1.1,2-6.1,1.9-9.4    c0-0.2,0.1-0.4,0.2-0.6c1.4-2.1,2.2-5.2,2.5-7.2c-4-3-5.9-9.6-6.4-11.4c-4.1-2.5-6-9.6-6.4-11.3C19.4,7.6,17.5,3,16.4,0    c-1.1,3.4-0.4,7.7-0.2,8.8C18.7,11.6,18.8,17.1,18.8,18.6z"/><path d="M57.8,48.9c-0.4,3.6-3.9,6.9-5.3,8c0.3,1.1,0.7,2.2,1,3.1c0.1,0.2,0.1,0.4,0.1,0.6c-0.7,3.8,1.1,8.9,1.1,8.9    c0.1,0.2,0.1,0.4,0,0.6c-0.4,2.1,0.1,5.5,0.6,7.6c1.4-1.6,3.4-4.4,3.9-6.9c0-0.2,0.2-0.4,0.3-0.6c1-0.9,3.7-3.7,3.6-5.9    c0-0.3,0.1-0.7,0.4-0.9c0.8-0.6,3-2.7,3.1-4.6c0-0.4,0.3-0.7,0.6-0.9c0.1-0.1,3.5-1.5,3.3-4.7c-1.5-4.2,0.4-9.7,0.8-10.8    c0.1-2.9,2.1-8.4,2.5-9.6c-0.1-3.5,3.4-10.4,3.8-11.2c0,0,0-0.1,0.1-0.1C80,18.2,82.8,10.4,84.3,6c-2.6,2.7-5,6.6-5.5,7.5    c-0.5,3.5-4.1,7.1-5.3,8.1c-0.3,3.4-3.7,8.4-4.7,9.7c-0.3,3.8-4.6,7.7-5.9,8.8C62.7,44.1,59,47.9,57.8,48.9z"/><path d="M50.4,43.8c-0.7,1.1,0.4,4.9,1.4,7c0.1,0.2,0.1,0.5,0,0.8c-0.2,0.6-0.1,1.7,0.1,3.1c1.6-1.5,3.8-4,3.9-6.3    c0-0.3,0.1-0.6,0.4-0.7c0,0,4.8-4.2,4.8-8c0-0.2,0.1-0.4,0.2-0.6c-2.2-3-2.1-8.8-2-10.5c-1.4-2.2-1.4-8.5-1.3-10.9    c-0.6-1-1.2-3.3-1.7-5.9c-0.1,0.7-0.2,1.3-0.3,1.6c0.7,3.5-1.6,8-2.2,9.1c0.2,4.2-0.9,7.6-1.3,8.5c0.1,3.2-2.5,7.3-3.4,8.7    c0.4,1.1,1,2.2,1.4,3C50.6,43.1,50.5,43.5,50.4,43.8z"/></g></svg>