<svg xmlns="http://www.w3.org/2000/svg" xmlns:xlink="http://www.w3.org/1999/xlink" version="1.1" x="0px" y="0px" viewBox="0 0 95 95" enable-background="new 0 0 95 95" xml:space="preserve"><path d="M89.604,15.011C78.651-0.396,57.375,9.787,56.869,24.47c-0.463,13.428,4.635,18.617,3.191,21.624  c0,0-6.088-4.241-15.958-1.954c-9.868,2.288-16.487,7.584-21.785,7.584s-8.069-6.258-15.771,1.687  c-3.974,4.09-5.933,6.493-5.716,7.699c0.024,0.141,0.458,1.683,1.104,1.965c2.832,1.238,10.446,2.096,12.799,1.409  c2.889-0.843,6.986,6.136,10.111,8.906c3.126,2.771,3.61,6.379,2.168,9.39c-1.444,3.01-3.127,1.809-3.611,2.771  c-0.486,0.961-0.125,1.806-0.125,1.806s4.429,0.697,5.659,0c2.376-1.345,4.334-7.223,6.14-9.028s2.172-0.84,3.132,1.084  c0.958,1.924,1.918,3.25,0.958,4.694c-0.958,1.445-2.403,0.48-2.403,1.924c0,1.445,0,1.445,0,1.445s4.029,0,5.382,0  c2.798,0,1.118-8.187,0.876-11.194c-0.242-3.008,2.29,1.924,10.715-2.167c2.285-1.445,3.114,3.509,4.189,4.7  c0.971,1.076-0.674,5.58-2.911,6.16c-2.278,0.591-1.517,1.634-1.521,2.501c0,0,2.528,0.061,4.094,0.03  c2.631-0.051,4.81-3.541,4.81-10.042c-0.362-1.684,0.97-0.701,1.811-0.34s3.375,2.285,4.335,2.768  c0.959,0.482,0.835,3.368-0.486,4.333c-1.319,0.965-3.974,0.602-3.974,1.445s0.125,1.806,0.125,1.806s3.654,0.152,5.152,0.037  c3.06-0.234,3.634-7.135,3.272-12.073c-0.36-4.937-2.646-4.457-1.924-7.825c0.723-3.369,2.889-8.063,2.646-15.286  c-0.242-7.223-1.688-15.289,3.73-16.733c5.416-1.444,4.228,8.838,6.492,9.507C89.146,46.747,100.556,30.418,89.604,15.011z   M85.818,37.799c2.637-12.178-3.184-16.78-10.212-16.572c-8.285,0.245-10.62,10.169-8.872,18.581  c1.566,7.536,2.135,11.55,1.132,14.438c-1.005,2.888-8.438-0.822-17.227-1.952c-8.788-1.13-11.062,2.514-20.187,4.902  c-6.717,1.757-8.35-0.251-13.245-1.256c-4.897-1.004-7.722,1.695-7.722,1.695c4.093-7.782,8.035-2.887,12.932-2.636  c4.896,0.251,7.281-3.132,18.707-6.528c11.424-3.396,15.441-0.063,21.467,2.197c4.515,1.692,0.063-4.833-2.196-17.514  c-1.979-11.101,1.727-18.362,9.981-21c10.275-3.285,20.463,5.307,21.343,15.1C92.598,37.046,85.316,39.933,85.818,37.799z"></path></svg>