<svg xmlns="http://www.w3.org/2000/svg" xmlns:xlink="http://www.w3.org/1999/xlink" version="1.1" x="0px" y="0px" viewBox="0 0 100 100" enable-background="new 0 0 100 100" xml:space="preserve"><path fill="#000000" stroke="#FFFFFF" stroke-width="5" stroke-miterlimit="10" d="M72.566,48.57"></path><g><path d="M30.06,34.687c0,0-16.55-6.945-19.641-31.274c0,0-7.331,14.765-2.796,27.536c0,0,4.129,0.597,5.788,4.375   c0,0,5.871,16.551,55.274,42.872c1.786-1.778,3.8-3.87,5.571-5.915C57.959,62.139,29.421,43.122,30.06,34.687z"></path><path d="M95.863,89.306c-2.773-4.408-16.555-13.92-16.555-13.92c-0.817,1.088-2.522,3.175-5.27,5.706   c0,0,15.067,7.893,17.072,13.357c0,0,1.107,3.546,4.511,2.008C95.621,96.456,98.87,94.703,95.863,89.306z"></path><path d="M71.583,82.274c5.075-3.989,7.232-7.35,7.232-7.35C87.408,63.54,75.573,64.2,75.573,64.2   c3.422,1.927,2.137,4.387,2.137,4.387c-1.965,4.235-11.347,12.744-11.347,12.744c-5.56,5.494,4.777,6.842,4.777,6.842   C66.604,85.828,71.583,82.274,71.583,82.274z"></path></g></svg>