<svg xmlns="http://www.w3.org/2000/svg" xmlns:xlink="http://www.w3.org/1999/xlink" viewBox="0 0 77 75" version="1.1" x="0px" y="0px"><title>Shape</title><desc>Created with Sketch.</desc><g stroke="none" stroke-width="1" fill="none" fill-rule="evenodd"><g transform="translate(-1075.000000, -1776.000000)" fill="#000000"><path d="M1102,1838.95 C1101,1840.31 1099.82,1841.8 1098.15,1841.82 C1095.63,1841.82 1094.15,1838.53 1091.7,1838.19 C1089.71112,1840.14033 1087.88192,1842.24709 1086.23,1844.49 C1084.7,1846.57 1083.17,1848.89 1080.76,1849.84 C1078.35,1850.79 1074.93,1849.38 1075,1846.79 C1075.1525,1845.63489 1075.64703,1844.55181 1076.42,1843.68 L1083.17,1834.4 C1083.69,1833.69 1084.17,1832.59 1083.45,1832.06 L1078.08,1828 C1077.15,1827.31 1076.24,1825.8 1077.24,1825.23 C1078.75,1824.37 1079.24,1822.47 1079.87,1820.87 C1080.5,1819.27 1082.11,1817.62 1083.74,1818.21 C1084.74,1818.58 1085.28,1819.68 1086.01,1820.49 C1086.74,1821.3 1088.2,1821.77 1088.81,1820.87 C1097.67,1807.69 1108.67,1795.67 1122.32,1787.56 C1129.93,1783.03 1138.23,1779.8 1146.49,1776.56 C1147.44391,1776.10141 1148.50987,1775.9278 1149.56,1776.06 C1150.56,1776.28 1151.5,1777.39 1151.11,1778.37 C1150.72,1779.35 1149.49,1779.52 1148.47,1779.72 C1145.58,1780.29 1143.09,1782.04 1140.74,1783.81 C1124.39261,1796.09637 1110.19947,1811.01268 1098.74,1827.95 C1100.85264,1829.51376 1103.36032,1830.45587 1105.98,1830.67 C1106.98,1830.75 1106.73,1832.38 1106.12,1833.24 L1102,1838.95 L1102,1838.95 Z M1136.36,1783.89 C1135.03302,1784.10758 1133.75397,1784.55423 1132.58,1785.21 C1115.72438,1793.57501 1101.59747,1806.56428 1091.85,1822.66 C1091.63041,1822.89144 1091.52101,1823.20617 1091.54972,1823.52391 C1091.57844,1823.84165 1091.74248,1824.13168 1092,1824.32 C1092.50425,1824.95774 1093.14269,1825.47668 1093.87,1825.84 C1094.62525,1826.19413 1095.52335,1826.01126 1096.08,1825.39 C1107.55605,1809.78851 1121.10778,1795.82633 1136.36,1783.89 L1136.36,1783.89 Z M1098.47,1837.51 C1098.69075,1837.44295 1098.88153,1837.30163 1099.01,1837.11 C1099.98891,1835.93331 1100.84033,1834.65618 1101.55,1833.3 C1095.4776,1830.91984 1089.72372,1827.79602 1084.42,1824 C1083.65,1823.45 1082.64,1822.87 1081.83,1823.36 C1081.23399,1823.84193 1081.05128,1824.67242 1081.39,1825.36 C1081.76071,1826.03033 1082.28932,1826.60013 1082.93,1827.02 C1087.68286,1830.745 1092.65514,1834.18118 1097.82,1837.31 C1098.00665,1837.45056 1098.23662,1837.52132 1098.47,1837.51 L1098.47,1837.51 Z M1080.08,1846.78 C1080.28541,1846.72587 1080.46351,1846.59763 1080.58,1846.42 C1083.17572,1843.31707 1085.60577,1840.07923 1087.86,1836.72 C1088.08321,1836.45869 1088.20088,1836.12349 1088.19,1835.78 C1087.99806,1835.27551 1087.4404,1835.01438 1086.93,1835.19 C1086.45492,1835.40438 1086.05204,1835.75169 1085.77,1836.19 C1083.59387,1839.09306 1081.59041,1842.12163 1079.77,1845.26 C1079.59145,1845.51667 1079.4876,1845.81783 1079.47,1846.13 C1079.51,1846.49 1079.77,1846.81 1080.08,1846.78 Z"></path></g></g></svg>