<svg fill="#4C4C4C" xmlns="http://www.w3.org/2000/svg" xmlns:xlink="http://www.w3.org/1999/xlink" version="1.0" x="0px" y="0px" viewBox="0 0 100 100" enable-background="new 0 0 100 100" xml:space="preserve"><rect x="44.931" y="63.812" transform="matrix(0.7071 -0.7071 0.7071 0.7071 -28.9188 61.5296)" fill="none" stroke="#4C4C4C" stroke-linecap="round" stroke-linejoin="round" stroke-miterlimit="10" width="29.765" height="3.722"></rect><path fill="none" stroke="#4C4C4C" stroke-linecap="round" stroke-linejoin="round" stroke-miterlimit="10" d="M21.67,10  c-7.747,7.747-7.747,20.305,0.003,28.057l33.317,29.807l7.014-7.014L21.67,17.012C19.734,15.075,19.734,11.937,21.67,10z"></path><path fill="none" stroke="#4C4C4C" stroke-linecap="round" stroke-linejoin="round" stroke-miterlimit="10" d="M27.811,37.179  c-5.17-5.172-6.872-12.485-5.141-19.08l-1-1.087c-1.937-1.937-1.937-5.075,0-7.012c-7.747,7.747-7.747,20.305,0.003,28.057  l33.317,29.807l1.756-1.756L27.811,37.179z"></path><path fill="none" stroke="#4C4C4C" stroke-linecap="round" stroke-linejoin="round" stroke-miterlimit="10" d="M54.991,73.127  c1.936-1.94,5.078-1.94,7.014,0l15.784,15.779c1.451,1.458,3.807,1.458,5.258,0c1.455-1.451,1.455-3.807,0-5.258L67.268,67.864  c-1.94-1.936-1.94-5.078,0-7.014L54.991,73.127z"></path><path fill="none" stroke="#4C4C4C" stroke-linecap="round" stroke-linejoin="round" stroke-miterlimit="10" d="M76.91,88.034  l5.263-5.265L76.91,88.034z"></path><path fill="none" stroke="#4C4C4C" stroke-linecap="round" stroke-linejoin="round" stroke-miterlimit="10" d="M73.404,84.522  l5.259-5.259L73.404,84.522z"></path><path fill="none" stroke="#4C4C4C" stroke-linecap="round" stroke-linejoin="round" stroke-miterlimit="10" d="M69.896,81.019  l5.262-5.264L69.896,81.019z"></path><path fill="none" stroke="#4C4C4C" stroke-linecap="round" stroke-linejoin="round" stroke-miterlimit="10" d="M66.39,77.508  l5.263-5.259L66.39,77.508z"></path><path fill="none" stroke="#4C4C4C" stroke-linecap="round" stroke-linejoin="round" stroke-miterlimit="10" d="M62.881,74.002  l5.262-5.261L62.881,74.002z"></path></svg>