<svg fill="#70C041" xmlns="http://www.w3.org/2000/svg" xmlns:xlink="http://www.w3.org/1999/xlink" version="1.1" x="0px" y="0px" viewBox="0 0 100 100" enable-background="new 0 0 100 100" xml:space="preserve"><path d="M12.671,62.187c-0.209,0-0.424-0.007-0.643-0.023c-2.1-0.151-3.688-0.866-4.718-2.124c-1.505-1.835-1.235-4.139-1.223-4.235  c0.036-0.288,0.299-0.491,0.586-0.456c0.288,0.038,0.491,0.299,0.456,0.586c-0.004,0.033-0.216,1.974,1,3.449  c0.84,1.021,2.178,1.603,3.974,1.732c1.597,0.114,2.879-0.25,3.807-1.088c1.45-1.307,1.59-3.373,1.593-3.429  c0.003-0.287,0.237-0.519,0.525-0.519c0.29,0,0.525,0.236,0.525,0.525c0,0.024-0.081,2.474-1.881,4.149  C15.65,61.706,14.306,62.187,12.671,62.187L12.671,62.187z M5.56,31.734c-0.064,0-0.127-0.007-0.188-0.02  c-0.001,0.052-0.002,0.105-0.002,0.158c0,1.379,0.545,2.497,1.217,2.497c0.673,0,1.217-1.118,1.217-2.497s-0.544-2.497-1.217-2.497  c-0.168,0-0.328,0.07-0.474,0.196c-0.015,0.013-0.031,0.028-0.046,0.042c0.311,0.195,0.52,0.563,0.52,0.985  C6.587,31.226,6.127,31.734,5.56,31.734z M18.718,29.968c-0.026-0.421-0.257-0.776-0.579-0.951c0.015-0.016,0.029-0.031,0.043-0.045  c0.138-0.135,0.293-0.214,0.461-0.225c0.671-0.041,1.283,1.041,1.368,2.418c0.084,1.376-0.391,2.525-1.062,2.566  s-1.283-1.041-1.368-2.417c-0.003-0.053-0.006-0.106-0.007-0.158c0.062,0.008,0.124,0.011,0.188,0.007  C18.328,31.128,18.756,30.593,18.718,29.968z M98.439,69.734c-0.09-0.754-1.034-1.07-1.847-1.261  c-0.897-0.212-2.183-0.369-3.819-0.471c-2.77-0.171-6.484-0.178-10.806-0.022c0.815-0.826,1.58-1.717,2.291-2.672  c1.922-2.584,3.366-5.571,4.174-8.642c0.828-3.006,1.081-6.162,0.749-9.379c-0.315-3.068-1.178-6.103-2.494-8.778  c-2.428-5.178-6.384-9.688-11.141-12.696c-2.239-1.431-4.675-2.555-7.236-3.337c-2.432-0.744-4.924-1.166-7.404-1.256  c-0.37-0.014-0.745-0.021-1.115-0.021c-4.062,0-8.176,0.886-11.895,2.563c-3.216,1.434-6.178,3.303-8.804,5.556  c-4.031,3.453-7.221,7.662-9.483,12.511c-1.683,3.628-2.772,7.451-3.238,11.367c-0.173,1.569-0.246,3.019-0.244,4.354  c-0.584-0.986-1.157-2-1.717-2.992c-1.602-2.833-3.256-5.764-5.106-7.901c-0.054-0.062-0.107-0.123-0.162-0.184l0.102,0.062  c0.036-0.06,0.887-1.475,1.395-3.565c0.599-2.464,0.458-4.833-0.4-6.906c2.191-0.656,3.729-2.756,3.584-5.134  c-0.163-2.651-2.37-4.728-5.023-4.728c-0.104,0-0.209,0.003-0.313,0.009c-2.771,0.17-4.888,2.563-4.718,5.335  c0.163,2.651,2.369,4.728,5.023,4.728c0.103,0,0.208-0.003,0.312-0.009c0.026-0.002,0.052-0.004,0.078-0.006  c0.86,1.92,1.01,4.081,0.445,6.43c-0.355,1.481-0.908,2.615-1.155,3.076c-1.878-1.859-3.815-2.729-5.894-2.652  c-1.592,0.058-3.07,0.558-4.392,1.483c-0.306,0.214-0.603,0.451-0.89,0.709c-0.708-1.191-1.97-4.084-0.913-8.402  c0.067,0.003,0.135,0.005,0.203,0.005c2.777,0,5.037-2.259,5.037-5.036c0-2.777-2.259-5.037-5.037-5.037  c-2.777,0-5.036,2.259-5.036,5.037c0,2.347,1.613,4.323,3.79,4.879c-0.75,3.152-0.336,5.593,0.163,7.111  c0.331,1.011,0.739,1.752,1.031,2.208c-0.584,0.648-1.12,1.397-1.599,2.241c-1.768,3.108-2.702,7.294-2.702,12.104  c0,2.318,0.407,4.572,1.209,6.693c0.736,1.946,1.788,3.744,3.125,5.346c2.493,2.98,5.782,5.029,9.024,5.618  c1.914,0.349,10.023,0.728,20.529,0.728c4.514,0,9.472-0.069,14.568-0.243c10.668-0.361,21.694-1.286,30.252-2.537  c4.519-0.66,8.247-1.392,11.081-2.171c3.158-0.869,5.099-1.765,5.934-2.736C98.333,70.674,98.496,70.211,98.439,69.734z   M19.04,35.217c-0.082,0.005-0.166,0.008-0.248,0.008c-2.1,0-3.846-1.644-3.975-3.742c-0.135-2.194,1.541-4.088,3.734-4.223  c0.083-0.005,0.166-0.008,0.249-0.008c2.1,0,3.845,1.644,3.974,3.742C22.909,33.188,21.234,35.082,19.04,35.217z M2.602,31.873  c0-2.198,1.788-3.986,3.985-3.986c2.198,0,3.986,1.788,3.986,3.986c0,2.197-1.788,3.985-3.986,3.985  C4.389,35.858,2.602,34.07,2.602,31.873z M27.414,53.316c0.453-3.801,1.513-7.517,3.147-11.044c2.198-4.711,5.297-8.8,9.214-12.156  c2.549-2.187,5.426-4.001,8.551-5.396c3.586-1.616,7.551-2.471,11.465-2.471c0.356,0,0.717,0.007,1.075,0.021  c4.911,0.176,9.925,1.749,14.117,4.43c4.593,2.904,8.412,7.258,10.755,12.259l0.004,0.009c2.64,5.358,3.252,11.708,1.679,17.421  l-0.003,0.006c-1.615,6.135-5.606,11.431-10.946,14.525l-0.005,0.004c-2.837,1.692-6.068,2.677-9.1,2.776  c-0.224,0.01-0.449,0.013-0.673,0.013c-3.026,0.002-6.015-0.745-8.643-2.156c-2.797-1.476-5.207-3.684-6.969-6.389  c-0.86-1.332-1.538-2.719-2.075-4.242c-0.513-1.521-0.797-3.093-0.848-4.67c-0.103-3.121,0.737-6.294,2.366-8.936  c1.606-2.63,4.014-4.743,6.778-5.95l0.007-0.003c1.491-0.677,3.169-1.034,4.853-1.034c1.393,0,2.734,0.236,3.986,0.701l0.006,0.002  c2.692,0.963,5.044,2.96,6.451,5.481c0.717,1.272,1.191,2.63,1.374,3.931c0.194,1.353,0.116,2.76-0.227,4.071  c-0.664,2.592-2.325,4.822-4.566,6.12c-1.14,0.673-2.404,1.079-3.559,1.146h-0.007c-1.195,0.085-2.444-0.136-3.563-0.629  c-2.075-0.918-3.685-2.777-4.308-4.967c-0.56-2.008-0.102-4.238,1.198-5.819c0.603-0.742,1.365-1.331,2.206-1.705l0.009-0.004  c0.61-0.285,1.295-0.436,1.981-0.436c0.208,0,0.413,0.014,0.614,0.042c1.553,0.207,2.977,1.253,3.627,2.666l0.006,0.013  c0.581,1.172,0.548,2.623-0.083,3.695l-0.002,0.005c-0.306,0.533-0.721,0.969-1.199,1.277c0.448-0.358,0.822-0.828,1.059-1.353  c0.503-1.095,0.436-2.379-0.181-3.433c-0.679-1.228-1.95-2.048-3.316-2.143c-0.094-0.006-0.187-0.009-0.278-0.009  c-0.656,0-1.283,0.158-1.863,0.469c-0.69,0.355-1.308,0.888-1.781,1.535c-1.01,1.37-1.301,3.226-0.762,4.844  c0.59,1.756,2.002,3.249,3.681,3.896c0.697,0.273,1.428,0.414,2.175,0.414c1.196,0,2.377-0.364,3.416-1.056  c1.761-1.112,3.034-2.957,3.496-5.06c0.479-2.14,0.075-4.396-1.141-6.357c-1.197-1.992-3.128-3.538-5.29-4.238  c-0.923-0.308-1.889-0.464-2.872-0.464c-1.381,0-2.766,0.318-4.002,0.918c-2.213,1.041-4.12,2.807-5.367,4.969  c-1.263,2.172-1.879,4.751-1.733,7.266c0.07,1.26,0.329,2.51,0.767,3.717l0.002,0.008c0.463,1.216,1.082,2.406,1.79,3.445  c1.496,2.183,3.502,3.944,5.793,5.089c2.038,1.041,4.344,1.592,6.668,1.592c0.273,0,0.549-0.007,0.821-0.023  c2.48-0.146,4.928-0.952,7.271-2.396c2.203-1.332,4.109-3.109,5.667-5.284c1.493-2.085,2.603-4.485,3.207-6.942  c1.22-4.838,0.642-9.964-1.63-14.433c-1.043-2.143-2.388-4.126-3.995-5.893c-1.551-1.706-3.307-3.167-5.216-4.343  c-3.573-2.223-7.65-3.456-11.79-3.566c-0.223-0.006-0.448-0.01-0.67-0.01c-3.305,0-6.658,0.734-9.697,2.124  c-2.678,1.213-5.15,2.784-7.348,4.67c-3.36,2.879-6.076,6.401-8.07,10.47c-1.49,3.057-2.494,6.194-3.072,9.596  c-0.877,5.457-0.438,9.352-0.149,11.927l0.039,0.338l0.001,0.01c0.053,0.413,0.105,0.796,0.151,1.151  c0.241,1.806,0.388,2.897,0.313,3.497L32.2,70.881c-0.05,0.519-0.205,0.58-0.484,0.693c-0.123,0.049-0.232,0.091-0.322,0.091  c-0.125,0-0.29-0.094-0.487-0.278c-0.537-0.533-1.369-1.737-2.282-4.442C27.76,64.216,26.696,59.836,27.414,53.316z M32.93,67.232  c-0.047-0.354-0.098-0.733-0.151-1.144l-0.038-0.334c-0.284-2.52-0.713-6.329,0.142-11.639c0.56-3.298,1.534-6.342,2.979-9.307  c1.931-3.938,4.559-7.348,7.811-10.134c2.123-1.821,4.511-3.339,7.1-4.512c2.902-1.328,6.105-2.029,9.261-2.029  c0.211,0,0.427,0.003,0.64,0.009c3.956,0.105,7.852,1.284,11.268,3.41c3.729,2.297,6.861,5.781,8.821,9.807l0.004,0.008  c2.158,4.244,2.709,9.11,1.549,13.707c-1.194,4.854-4.254,9.075-8.401,11.583c-2.197,1.354-4.479,2.109-6.784,2.244  c-0.251,0.014-0.508,0.021-0.761,0.021c-2.158,0-4.299-0.511-6.194-1.478c-2.137-1.069-4.005-2.709-5.4-4.745  c-0.66-0.968-1.238-2.083-1.672-3.222c-0.402-1.11-0.64-2.259-0.705-3.416c-0.133-2.31,0.434-4.682,1.594-6.679  c1.144-1.981,2.887-3.596,4.909-4.547l0.006-0.003c1.095-0.532,2.322-0.813,3.546-0.813c0.87,0,1.724,0.137,2.544,0.411  c1.93,0.626,3.65,2.006,4.721,3.785l0.004,0.006c1.086,1.751,1.436,3.68,1.01,5.579c-0.397,1.808-1.532,3.454-3.037,4.403  l-0.012,0.007c-0.867,0.578-1.85,0.884-2.839,0.884c-0.613,0-1.216-0.115-1.793-0.344c-1.398-0.538-2.574-1.784-3.066-3.251  c-0.427-1.278-0.187-2.803,0.613-3.889c0.38-0.52,0.87-0.942,1.418-1.224l0.009-0.005c0.427-0.229,0.888-0.346,1.37-0.346  c0.068,0,0.138,0.002,0.206,0.007c1.002,0.069,1.972,0.701,2.474,1.608l0.006,0.012c0.446,0.761,0.496,1.685,0.134,2.474  c-0.348,0.772-1.021,1.219-1.49,1.366c-0.172,0.054-0.352,0.08-0.533,0.08c-0.309,0-0.627-0.079-0.9-0.221  c-0.51-0.278-0.769-0.597-0.94-0.807c-0.143-0.175-0.305-0.373-0.595-0.373c-0.061,0-0.121,0.011-0.179,0.029  c-0.159,0.05-0.289,0.173-0.349,0.341c-0.134,0.38,0.061,1.311,1.156,2.199l0.013,0.009c0.346,0.265,1.081,0.709,2.13,0.709  c0.217,0,0.435-0.019,0.65-0.058l0.007-0.002c1.249-0.24,2.356-1.056,3.036-2.238c0.804-1.368,0.851-3.206,0.121-4.685  c-0.637-1.376-2.136-2.953-4.436-3.26c-0.247-0.034-0.501-0.052-0.757-0.052c-0.837,0-1.675,0.184-2.423,0.532  c-0.988,0.441-1.884,1.132-2.587,1.998c-1.513,1.842-2.047,4.434-1.396,6.768c0.708,2.49,2.537,4.6,4.895,5.644  c1.273,0.562,2.695,0.813,4.059,0.718c1.688-0.097,3.123-0.756,4.025-1.288c2.479-1.436,4.32-3.901,5.053-6.765  c0.376-1.442,0.463-2.993,0.249-4.481c-0.203-1.447-0.708-2.894-1.499-4.297c-1.527-2.737-4.082-4.908-7.01-5.956  c-1.369-0.508-2.832-0.765-4.349-0.765c-1.831,0-3.658,0.389-5.283,1.126c-2.959,1.292-5.535,3.552-7.25,6.362  c-1.734,2.814-2.629,6.194-2.521,9.52c0.054,1.682,0.358,3.355,0.903,4.975l0.002,0.008c0.564,1.602,1.279,3.062,2.186,4.467  c1.022,1.569,2.251,2.979,3.64,4.19c-6.477,3.01-16.958,3.422-20.574,0.759C33.294,69.968,33.156,68.931,32.93,67.232z   M97.158,70.43c-0.47,0.548-1.791,1.411-5.415,2.408c-2.792,0.768-6.477,1.489-10.954,2.144c-8.521,1.246-19.504,2.167-30.135,2.526  c-16.622,0.564-32.248,0.01-34.874-0.468c-3.005-0.546-6.069-2.464-8.406-5.26c-1.866-2.232-4.09-6.015-4.09-11.364  c0-4.562,0.911-8.677,2.564-11.585c1.678-2.952,4.019-4.566,6.769-4.667c2.076-0.076,3.949,0.934,5.893,3.181  c1.781,2.059,3.337,4.815,4.986,7.732c0.822,1.455,1.672,2.961,2.551,4.368l0.128-0.081c0.186,3.463,0.862,6.051,1.448,7.902  l0.003,0.009c0.789,2.339,1.646,3.976,2.545,4.865l0.011,0.01c0.406,0.381,0.802,0.565,1.209,0.565c0.279,0,0.506-0.083,0.717-0.168  c0.353-0.142,0.696-0.34,0.914-0.756c1.786,1.114,4.682,1.72,8.218,1.72c0.505,0,1.025-0.012,1.555-0.038  c4.37-0.205,8.8-1.249,11.94-2.806c0.887,0.688,1.831,1.297,2.82,1.818c2.777,1.492,5.937,2.28,9.137,2.28  c0.236,0,0.476-0.005,0.709-0.013c3.204-0.105,6.613-1.143,9.599-2.924c1.357-0.787,2.629-1.708,3.81-2.753  c4.545-0.189,8.498-0.207,11.44-0.051c1.558,0.082,2.806,0.214,3.71,0.387c1.091,0.211,1.376,0.426,1.438,0.487  C97.403,69.986,97.385,70.166,97.158,70.43z M66.398,37.157c-1.889,0-3.426-1.537-3.426-3.426c0-1.889,1.537-3.425,3.426-3.425  s3.425,1.537,3.425,3.425C69.823,35.621,68.287,37.157,66.398,37.157L66.398,37.157z M66.398,31.356  c-1.31,0-2.375,1.066-2.375,2.375c0,1.31,1.065,2.376,2.375,2.376s2.375-1.066,2.375-2.376  C68.773,32.422,67.708,31.356,66.398,31.356L66.398,31.356z M52.347,36.527c-1.367,0-2.48-1.113-2.48-2.48s1.113-2.48,2.48-2.48  c1.368,0,2.48,1.113,2.48,2.48S53.715,36.527,52.347,36.527L52.347,36.527z M52.347,32.617c-0.788,0-1.429,0.641-1.429,1.43  c0,0.789,0.641,1.43,1.429,1.43c0.789,0,1.431-0.641,1.431-1.43C53.777,33.258,53.136,32.617,52.347,32.617L52.347,32.617z   M59.65,39.113c-1.367,0-2.48-1.113-2.48-2.48s1.113-2.48,2.48-2.48c1.368,0,2.48,1.113,2.48,2.48S61.019,39.113,59.65,39.113  L59.65,39.113z M59.65,35.202c-0.789,0-1.43,0.641-1.43,1.43c0,0.789,0.641,1.43,1.43,1.43c0.788,0,1.43-0.641,1.43-1.43  C61.08,35.843,60.438,35.202,59.65,35.202L59.65,35.202z M71.254,41.067c-1.368,0-2.48-1.113-2.48-2.48  c0-1.367,1.112-2.479,2.48-2.479c1.367,0,2.48,1.112,2.48,2.479C73.734,39.955,72.621,41.067,71.254,41.067L71.254,41.067z   M71.254,37.157c-0.788,0-1.431,0.642-1.431,1.43c0,0.789,0.643,1.431,1.431,1.431c0.789,0,1.43-0.642,1.43-1.431  C72.684,37.799,72.043,37.157,71.254,37.157L71.254,37.157z M58.993,33.217c-1.113,0-2.018-0.905-2.018-2.018  c0-1.112,0.904-2.018,2.018-2.018c1.112,0,2.017,0.906,2.017,2.018C61.01,32.312,60.105,33.217,58.993,33.217L58.993,33.217z   M58.993,30.231c-0.533,0-0.968,0.434-0.968,0.967s0.435,0.967,0.968,0.967s0.967-0.434,0.967-0.967S59.526,30.231,58.993,30.231  L58.993,30.231z"></path></svg>