<svg fill="#D99CAD" xmlns="http://www.w3.org/2000/svg" xmlns:xlink="http://www.w3.org/1999/xlink" version="1.2" baseProfile="tiny" x="0px" y="0px" viewBox="0 0 100 100" xml:space="preserve"><path d="M88.262,67.711c0.343-2.08,0.731-5.074,0.829-8.702c0.126-4.674,0.195-7.227-0.829-10.463  c-0.46-1.452-1.866-5.341-5.387-8.805c-2.584-2.543-5.203-3.798-9.841-6.008c-3.026-1.442-5.894-3.196-8.857-4.765  c-0.473-0.25-1.733-0.917-2.797-2.292c-0.964-1.247-1.297-2.469-1.398-2.888c-0.424-1.755-0.105-3.222,0.104-3.936  c4.602-1.298,8.06-2.693,10.359-3.729c1.793-0.808,3.128-1.509,4.558-2.486c1.85-1.264,3.221-2.554,4.144-3.522  c-0.207-0.38-0.414-0.76-0.622-1.139c-2.287,1.924-5.377,4.131-9.323,6.008c-4.31,2.05-7.88,2.868-11.188,3.626  c-3.614,0.828-6.229,1.114-11.188,1.657c-2.483,0.272-4.03,0.376-5.905,0.311c-2.624-0.092-4.794-0.479-6.319-0.829  c-0.173,0.414-0.345,0.829-0.518,1.243c1.808,0.366,3.781,0.69,5.905,0.932c2.023,0.231,3.929,0.359,5.697,0.414  c-1.176,1.757-3.244,4.61-6.319,7.666c-2.02,2.007-3.172,2.807-12.534,10.255c-3.747,2.981-5.729,4.589-7.562,7.562  c-1.363,2.211-2.086,4.273-2.486,5.697c-4.74-1.541-9.554,0.542-11.188,4.144c-2.094,4.617,1.632,10.422,6.423,11.706  c5.553,1.488,11.777-3.302,11.809-8.598c0.027-4.539-4.507-7.442-4.869-7.666c0.181-1.118,0.594-2.837,1.657-4.662  c0.863-1.48,1.809-2.435,3.108-3.729c1.99-1.983,3.701-3.267,4.04-3.522c2.844-2.138,7.013-5.39,12.431-9.634  c-0.611,3.206-0.407,5.68-0.104,7.355c0.336,1.855,0.704,2.234,0.829,3.833c0.24,3.077-0.822,5.533-1.45,6.941  c-1.732,3.883-3.433,4.173-4.765,7.769c-0.696,1.877-0.882,3.551-0.932,4.662c-0.488,0.213-1.242,0.615-1.968,1.347  c-0.846,0.853-1.256,1.753-1.45,2.279c-5.322,0.549-9.44,4.846-9.738,9.945c-0.341,5.846,4.471,10.497,9.22,11.084  c2.382,0.295,4.374-0.479,5.49-1.036c1.652,3.13,4.77,5.17,8.184,5.283c4.195,0.14,6.875-2.696,7.251-3.108  c2.709-2.964,2.528-6.53,2.486-7.148c0.898,0.081,3.524,0.198,6.112-1.45c0.727-0.463,3.465-2.207,3.936-5.283  c0.47-3.068-1.476-6.395-4.869-8.184c0.513-7.573-1.469-11.382-3.522-13.467c-0.669-0.68-0.863-0.685-8.287-6.526  c-2.673-2.103-3.214-2.548-3.833-3.522c-2.291-3.609-1.469-7.908-1.14-9.634c0.193-1.009,0.792-3.635,2.693-6.423  c1.321-1.937,2.785-3.24,3.833-4.04c1.448-0.06,3.086-0.21,4.869-0.518c1.915-0.33,3.616-0.776,5.076-1.243  c-0.078,0.834-0.132,2.017,0,3.419c0.15,1.592,0.592,4.019,2.693,8.08c1.257,2.43,3.295,5.806,6.526,9.427  c-0.578,0.306-2.422,1.374-3.315,3.626c-0.765,1.929-0.397,3.632-0.207,4.454c0.6,2.6,2.636,5.826,6.319,6.837  c2.783,0.764,5.575,0.009,7.446-1.36c1.481-1.083,2.259-2.46,3.108-3.962c0.817-1.445,1.313-2.324,1.321-3.496  c0.015-2.371-1.984-4.102-2.719-4.739c-3.845-3.33-9.351-2.273-10.372-2.059c-2.323-2.491-4.735-5.644-6.759-9.556  c-0.417-0.806-0.796-1.602-1.14-2.383c0.502,0.349,1.251,0.86,2.175,1.45c3.661,2.34,6.152,3.433,9.012,4.869  c5.257,2.64,7.886,3.96,9.53,5.594c1.308,1.3,3.927,3.975,4.662,8.287c0.269,1.575,0.504,4.649-0.932,7.769  c-1.402,3.046-3.986,5.242-4.765,5.905c-1.395,1.185-2.387,1.693-3.419,3.211c-0.961,1.415-1.364,2.836-1.554,3.833  c-1.115,0.48-3.452,1.671-5.218,4.234c-0.678,0.984-1.974,2.864-1.942,5.283c0.051,3.852,3.458,8.299,8.197,8.546  c3.289,0.171,6.474-1.72,8.184-4.804c0.712,0.228,1.637,0.411,2.693,0.311c3.395-0.321,7.521-3.503,7.355-8.08  C94.863,71.525,92.056,68.346,88.262,67.711z M19.063,55.799c0.56,0.309,1.614,0.998,2.279,2.279  c1.172,2.256,0.223,4.585-0.104,5.387c-1.04,2.555-3.454,4.574-5.801,4.765c-0.502,0.041-1.531,0.125-2.486-0.518  c-0.64-0.431-0.977-1.006-1.139-1.347c-2.157-0.957-3.602-3.043-3.729-5.387c-0.132-2.432,1.18-4.69,3.211-5.801  c2.085-1.14,4.16-0.651,4.662-0.518c-0.04,0.1-0.468,1.235,0.207,2.175c0.081,0.112,0.706,0.956,1.554,0.829  C18.437,57.555,19.055,56.785,19.063,55.799z M34.576,64.889c1.024-0.832,2.098-1.03,2.564-1.088  c0.16,0.902,0.701,3.247,2.719,5.335c2.202,2.277,4.793,2.83,5.672,2.978c0.01,0.552,0.034,1.132,0.078,1.735  c0.04,0.559,0.093,1.095,0.155,1.606c-0.167,0.62-0.656,2.072-2.02,3.03c-0.406,0.285-0.98,0.677-1.813,0.699  c-0.916,0.025-1.588-0.412-1.839-0.596c-0.011-1.013-0.131-2.343-0.57-3.833c-0.973-3.309-2.893-5.301-3.341-5.749  c-1.112-1.115-2.229-1.822-3.03-2.253C33.339,66.331,33.751,65.559,34.576,64.889z M38.461,62.092  c0.553-2.695,3.014-4.902,6.19-5.62c0.051,0.089,0.134,0.221,0.259,0.363c0.138,0.157,0.208,0.236,0.311,0.259  c0.092,0.021,0.224,0.003,0.544-0.259c0.306-0.252,0.493-0.488,0.518-0.518c0.434-0.517,3.654,0.15,5.723,2.59  c0.331,0.39,2.486,2.932,1.839,6.164c-0.701,3.498-4.315,5.953-7.769,5.827C41.64,70.735,37.593,66.322,38.461,62.092z   M35.534,81.852c-0.153,0.167-1.838,1.958-4.454,2.175c-4.103,0.341-8.587-3.344-8.857-7.666c-0.186-2.986,1.711-5.112,1.916-5.335  c1.62-1.76,3.978-2.551,6.112-2.331c4.059,0.419,6.929,4.455,7.044,8.08C37.312,77.315,37.392,79.817,35.534,81.852z M49.83,86.772  c-0.664,0.726-2.469,2.433-5.283,2.642c-0.984,0.073-2.967,0.027-4.869-1.295c-1.884-1.31-2.585-3.105-2.797-3.729  c0.485-0.478,1.068-1.144,1.606-2.02c0.47-0.765,0.778-1.483,0.984-2.072c1.092,0.333,2.703,0.605,4.092-0.052  c0.589-0.279,1.355-0.827,1.502-0.932c0.679-0.486,1.199-0.952,1.554-1.295c0.547,0.493,1.37,1.129,2.486,1.657  c1.135,0.538,2.165,0.772,2.901,0.881C52.039,81.157,52.15,84.239,49.83,86.772z M61.328,70.871c1.114,2.648-1.356,5.63-1.502,5.801  c-2.252,2.645-5.691,2.582-6.215,2.564c-0.009-0.018-0.227-0.419-0.673-0.44c-0.357-0.017-0.588,0.223-0.622,0.259  c-0.423-0.015-2.365-0.131-3.833-1.709c-0.25-0.268-1.698-1.826-1.398-3.885c0.1-0.684,0.362-1.214,0.57-1.554  c0.75-0.05,2.3-0.256,3.885-1.295c1.991-1.305,2.812-3.122,3.082-3.807c0.872,0.156,2.211,0.497,3.652,1.321  C59.567,68.866,60.775,69.557,61.328,70.871z M48.794,49.246c3.298,2.449,4.982,3.701,6.215,5.594  c0.751,1.154,2.582,4.46,1.554,10.255c-0.466-0.259-0.932-0.518-1.398-0.777c0.078-0.435,0.746-4.534-2.253-7.692  c-2.577-2.714-5.958-2.727-6.526-2.719c-0.226-1.239-0.567-2.659-1.088-4.195c-0.505-1.489-1.076-2.787-1.632-3.885  C44.936,46.584,46.737,47.719,48.794,49.246z M42.034,45.906c0.586,0.948,1.303,2.334,1.787,4.118  c0.451,1.663,0.551,3.123,0.544,4.195c-0.931,0.291-2.618,0.958-4.195,2.486c-2.072,2.007-2.733,4.316-2.952,5.283  c-0.229-0.053-0.462-0.105-0.699-0.155c-0.263-0.056-0.522-0.107-0.777-0.155c-0.052-0.79-0.047-1.98,0.311-3.341  c0.591-2.249,1.795-3.625,2.564-4.662C39.758,52.135,41.161,49.696,42.034,45.906z M70.004,43.536  c0.329-0.156,0.532-0.784,0.272-1.437c0.906-0.211,2.698-0.495,4.778,0.117c1.185,0.349,3.093,0.91,4.195,2.758  c1.136,1.905,0.851,4.232,0,5.827c-0.869,1.628-2.256,2.36-3.38,2.952c-1.272,0.671-3.087,1.629-5.205,1.165  c-3.657-0.8-4.927-5.113-5.05-5.555c-0.273-0.982-0.956-3.436,0.505-5.244c0.81-1.003,1.928-1.371,2.525-1.515  C68.912,43.401,69.639,43.709,70.004,43.536z M78.356,67.388c0.486-0.82,1.002-1.35,1.282-1.632c1.61-1.616,3.186-2.797,3.923-3.418  c0.989-0.834,2.304-2.212,3.457-4.506c-0.059,1.686-0.148,3.422-0.272,5.205c-0.109,1.568-0.24,3.097-0.388,4.584  c-0.709,0.372-1.522,0.865-2.37,1.515c-0.745,0.571-1.362,1.146-1.865,1.67c-0.487-0.309-1.15-0.662-1.981-0.932  c-1.051-0.342-1.981-0.422-2.642-0.427C77.634,68.935,77.88,68.192,78.356,67.388z M83.367,83.898  c-0.702,1.021-1.916,1.083-2.059,1.088c-0.052-0.181-0.104-0.363-0.155-0.544c-0.513,0.312-2.355,1.345-4.778,0.971  c-3.15-0.487-4.721-2.956-4.933-3.302c-1.424-2.324-1.004-4.669-0.893-5.205c0.233,0,0.466,0,0.699,0  c0.016-1.298,0.453-2.086,0.738-2.486c1.371-1.926,4.646-2.514,8.041-1.204c-0.284,0.732-0.657,2.021-0.427,3.574  c0.53,3.576,3.781,5.339,4.195,5.555C83.807,82.587,83.808,83.257,83.367,83.898z M88.068,81.8  c-3.725,0.499-7.085-2.612-7.264-5.477c-0.106-1.699,0.921-3.067,1.593-3.962c0.625-0.832,2.328-3.101,4.895-3.224  c2.912-0.14,6.246,2.516,6.371,6.138C93.776,78.589,91.155,81.386,88.068,81.8z"></path><path d="M54.776,77.242c0.095,0.175,0.254,0.469,0.466,0.466c0.177-0.002,0.299-0.21,0.518-0.596  c0.251-0.442,0.377-0.663,0.311-0.829c-0.154-0.385-1.143-0.546-1.45-0.13C54.371,76.493,54.68,77.064,54.776,77.242z"></path><path d="M46.333,68.229c0.483,0.11,1.039-0.406,1.036-0.958c-0.002-0.413-0.318-0.887-0.777-0.906  c-0.468-0.02-0.807,0.442-0.855,0.855C45.688,67.646,45.936,68.139,46.333,68.229z"></path><path d="M30.406,79.003c-0.533,0.027-0.98,0.654-0.829,1.088c0.123,0.353,0.607,0.481,0.932,0.466  c0.28-0.012,0.722-0.143,0.829-0.466C31.483,79.655,30.982,78.974,30.406,79.003z"></path><path d="M74.005,52.51c0.408-0.031,0.752-0.409,0.699-0.816c-0.047-0.363-0.392-0.616-0.738-0.622  c-0.386-0.006-0.766,0.299-0.777,0.699C73.178,52.195,73.583,52.541,74.005,52.51z"></path><path d="M88.534,77.41c-0.486,0.04-0.88,0.505-0.816,0.971c0.051,0.366,0.371,0.637,0.699,0.699  c0.484,0.091,1.059-0.258,1.088-0.777C89.532,77.807,89.046,77.368,88.534,77.41z"></path><path d="M76.763,83.121c-0.262,0.175-0.314,0.553-0.155,0.816c0.161,0.266,0.53,0.402,0.816,0.233  c0.283-0.167,0.343-0.55,0.194-0.816C77.454,83.062,77.048,82.931,76.763,83.121z"></path><path d="M44.443,86.151c-0.143,0.254-0.165,0.653,0.052,0.829c0.26,0.21,0.773,0.029,0.984-0.311  c0.171-0.274,0.179-0.707-0.052-0.881C45.158,85.586,44.643,85.797,44.443,86.151z"></path></svg>