<svg fill="#3A6931" xmlns="http://www.w3.org/2000/svg" xmlns:xlink="http://www.w3.org/1999/xlink" version="1.0" x="0px" y="0px" viewBox="0 0 100 100" enable-background="new 0 0 100 100" xml:space="preserve"><path fill-rule="evenodd" clip-rule="evenodd" d="M18.567,39.993c-0.21,0.204,0.219,0.474,0.328,0.599  c0.814,0.941,1.947,1.284,3.095,1.451c1.908,0.277,3.836,0.427,6.172,0.674c0.586-0.598-1.507-0.747-2.138-0.812  c-1.092-0.114-2.181-0.257-3.274-0.351c-1.322-0.116-2.52-0.52-3.565-1.356C19.065,40.103,18.778,39.757,18.567,39.993z   M33.542,48.81c0.257,0.149,0.633,0.29,0.877,0.204c0.233-0.083,0.515-0.465,0.506-0.705c-0.02-0.568,0.318-1.488-0.316-1.695  c0,0-0.104,0.031-0.159,0.005c-0.492-0.227-0.997-0.399-1.39,0.132c-0.344,0.465-0.271,0.978,0.015,1.455  C33.208,48.426,33.338,48.693,33.542,48.81z M24.865,18.505c-0.54,0.01-1.045,0.468-1.007,0.912  c0.035,0.407,0.474,0.783,0.925,0.792c0.432,0.01,0.838-0.379,0.868-0.83C25.684,18.908,25.313,18.496,24.865,18.505z M42.41,42.151  c-0.47,0.323-0.015,1.723,0.398,1.604c0.805-0.501,1.161-0.981,0.852-1.586C43.405,41.668,42.906,41.832,42.41,42.151z   M19.144,31.504c0.376-0.468-1.138-0.804-1.725-1.178c-0.096-0.061-0.704-0.708-0.704,0.079  C17.538,31.055,18.074,31.668,19.144,31.504z M35.752,38.715c-0.278,0.166,0.756,2.358,1.188,2.151  C36.758,39.378,36.758,39.378,35.752,38.715z M16.07,31.923c-0.093,0.471,1.653,1.175,2.585,1.129  C18.913,32.489,16.27,31.264,16.07,31.923z M26.42,44.399c-0.04,0.099-0.08,0.199-0.12,0.298c0.202,0.104,0.4,0.288,0.605,0.297  c0.6,0.025,0.601-0.003,1.497-0.729C28.402,43.807,26.657,43.942,26.42,44.399z M38.41,39.155c-0.238,0.215,0.527,1.725,0.881,1.713  C39.713,40.585,38.718,38.931,38.41,39.155z M36.604,46.603c0.403-0.398,0.468-0.754,0.063-1.034  c-0.291-0.201-0.608-0.126-0.837,0.188c-0.105,0.145-0.371,0.059-0.354,0.405C35.475,46.161,36.208,46.912,36.604,46.603z   M49.432,44.935c-0.559,0-0.66,1.325-0.203,1.352C49.666,46.287,50,44.935,49.432,44.935z M38.172,47.383  c0.522,0,0.458-0.388,0.522-0.584c0.083-0.257-0.065-0.486-0.374-0.532c-0.343-0.052-0.771,0.226-0.681,0.468  C37.719,46.945,37.841,47.383,38.172,47.383z M15.297,27.904c-0.204,0.673,0.108,1.042,0.505,1.35  c0.042,0.033,0.185-0.063,0.369-0.133C16.559,28.733,15.702,27.696,15.297,27.904z M38.796,49.549  c0.327,0.331,1.373-0.665,0.999-1.084C38.986,48.62,38.465,49.041,38.796,49.549z M47.272,52.002c0.513-0.203-0.196-1.026-0.58-0.68  c-0.095,0.128-0.282,0.271-0.263,0.38c0.035,0.205,0.172,0.401,0.307,0.567C46.758,52.295,47.035,52.359,47.272,52.002z   M79.289,63.142c-0.947-1.133-1.854-2.342-2.982-3.268c-0.683-0.561-1.452-1.02-1.878-1.6c-0.359,0-0.643,0.09-0.791-0.013  c-2.226-1.554-3.681-3.704-4.076-6.345c-0.223-1.482-0.714-2.859-1.058-4.286c-0.267-1.114-0.738-2.21-1.305-3.209  c-0.435-0.769-1.13-1.401-1.76-2.045c-0.74-0.755-1.58-1.366-2.735-1.073c-0.686,0.173-1.296-0.023-1.856-0.352  c-0.998-0.584-2.001-1.173-2.935-1.852c-1.148-0.833-2.224-1.729-2.537-3.271c-0.183-0.896-0.779-1.623-1.507-2.204  c-0.195-0.154-0.383-0.374-0.606-0.134c0.721,1.378,1.409,2.752,2.16,4.089c0.245,0.434,0.648,0.781,0.989,1.159  c1.02,1.126,2.491,1.569,3.69,2.426c0.814,0.581,1.698,0.918,2.732,0.722c0.524-0.101,1.047-0.03,1.458,0.35  c1.37,1.272,2.824,2.504,3.276,4.432c0.382,1.631,0.909,3.215,1.231,4.872c0.654,3.367,2.414,6.069,5.451,7.854  c0.876,0.516,1.815,1.046,2.473,1.792c2.003,2.272,4.021,4.556,5.147,7.444c0.045,0.116,0.37,0.715,0.578,0.355  c-0.405-1.497-0.844-2.73-1.707-3.799C80.218,64.538,79.824,63.781,79.289,63.142z M48.049,31.897  c-0.521-0.233-1.112-0.355-1.572-0.671c-1.103-0.76-2.143-1.61-3.216-2.413c-0.182-0.136-0.396-0.352-0.704,0.043  c-0.314,0.662,2.953,2.354,4.558,3.355c0.414,0.258,0.915,0.504,1.544,0.088C48.789,32.032,48.252,31.988,48.049,31.897z   M44.034,33.53c0.807,0.67,1.764,0.83,2.761,0.758c0.268-0.02,0.619-0.035,0.61-0.426C47.405,33.516,44.183,32.791,44.034,33.53z   M72.321,49.216c0.371,0.02,0.68-0.321,0.668-0.737c-0.016-0.554-0.396-0.944-1.108-0.969c-0.491,0.16-0.432,0.458-0.48,0.756  C71.315,48.781,71.771,49.186,72.321,49.216z M63.865,47.86c-0.333,0.013-0.642,0.528-0.631,1.057  c0.008,0.373,0.436,0.804,0.756,0.661c0.302-0.133,0.679-0.187,0.679-0.615C64.678,48.345,64.244,47.847,63.865,47.86z   M69.297,41.129c-0.979,2.24-0.979,2.24-0.733,2.998C69.395,44.405,69.952,41.234,69.297,41.129z M67.47,39.423  c-0.813,0.527-1.152,2.123-0.812,2.341C67.025,41.951,68.055,39.657,67.47,39.423z M71.208,42.021  c-0.757,0.947-0.887,1.68-0.391,2.383C71.293,44.405,71.748,42.17,71.208,42.021z M74.55,49.119  c0.243-0.083,0.205-0.605,0.235-0.844c0.048-0.364-0.124-0.644-0.499-0.666c-0.219-0.014-0.563,0.062-0.642,0.21  c-0.091,0.169-0.021,0.514,0.107,0.688C73.921,48.737,74.198,49.217,74.55,49.119z M58.816,46.992  c1.438,0.551,1.661,0.486,2.279-0.531C60.919,46.033,58.658,46.461,58.816,46.992z M55.962,43.13  c-0.171,0.427,0.502,0.862,1.031,0.873c0.254,0.004,0.737,0,0.853-0.391C57.73,42.878,56.077,42.676,55.962,43.13z M65.6,37.293  c-0.313-0.099-0.33,0.243-0.4,0.395c-0.181,0.389-0.957,1.193-0.561,1.467C65.711,38.785,65.831,38.482,65.6,37.293z M66.264,50.856  c-0.147-0.045-0.467,0.155-0.551,0.326c-0.139,0.28,0.268,0.796,0.588,0.748c0.187-0.027,0.634,0.047,0.634-0.466  C66.935,50.85,66.484,50.921,66.264,50.856z M72.685,51.99c-0.14,0.027-0.25,0.205-0.374,0.314c-0.292,0.308,0.13,0.763,0.476,0.536  c0.191-0.227,0.376-0.345,0.39-0.48C73.206,52.035,72.94,51.94,72.685,51.99z M39.895,63.423c0.425,0.712,1.84,0.61,1.84-0.28  c-0.079-0.279-0.104-0.605-0.253-0.862c-0.348-0.602-1.077-0.785-1.661-0.417c-0.507,0.319-0.277,0.784-0.133,1.205  C39.727,63.187,39.814,63.288,39.895,63.423z M35.051,56.349c0.2,1.438,0.398,2.877,0.612,4.313  c0.008,0.051,0.339,0.723,0.421,0.173C35.991,59.232,35.867,55.868,35.051,56.349z M37.097,57.34  c0.197,1.452,0.363,2.704,0.546,3.953c0.014,0.089,0.156,0.161,0.238,0.239C38.085,59.181,37.689,56.704,37.097,57.34z   M52.414,73.114c0.426,0.041,0.632-0.187,0.66-0.727c0.025-0.499-0.183-0.896-0.481-0.917c-0.307-0.021-0.774,0.351-0.839,0.665  C51.66,72.61,51.973,73.073,52.414,73.114z M25.934,57.189c-0.257-0.179-0.57-0.277-0.824-0.46c-0.306-0.22-0.56-0.513-0.865-0.732  c-0.202-0.146-0.313-0.593-0.806-0.245c-0.58,0.952,3.168,2.034,3.168,2.034C26.833,57.34,26.178,57.359,25.934,57.189z   M37.302,67.376c0.203-0.079,0.426-0.325,0.475-0.536c0.08-0.337-0.372-0.892-0.64-0.805c-0.248,0.08-0.461-0.01-0.561,0.484  C36.576,67.09,36.968,67.508,37.302,67.376z M41.618,68.921c0.449-0.813-1.601-1.32-1.858-0.611  C39.509,69.221,41.206,69.549,41.618,68.921z M89.866,77.607c-0.481-1.137-1.111-2.174-1.917-3.127  c-0.83-0.983-1.621-2.023-2.262-3.136c-0.533-0.928-1.083-1.939-0.598-3.117c0.089-0.213,0.002-0.498-0.007-0.748  c-0.069-1.729-0.965-3.042-2.14-4.205c-1.563-1.546-3.163-3.056-4.702-4.625c-1.756-1.79-2.552-3.844-1.601-6.349  c0.178-0.468,0.198-1.015,0.202-1.527c0.013-1.421,0.001-2.843-0.041-4.265c-0.038-1.311-0.292-2.634-1.105-3.644  c-0.785-0.976-1.107-2.066-1.221-3.198c-0.204-2.026-1.04-3.826-1.788-5.654c-0.228-0.558-0.786-1.019-1.279-1.416  c-0.446-0.358-1.001-0.589-1.526-0.838c-1.997-0.947-4.161-1.366-6.264-1.985c-0.861-0.252-1.735-0.544-2.514-0.979  c-1.536-0.856-2.825-2.089-3.901-3.431c-2.11-2.628-4.931-3.883-8.047-4.689c-1.493-0.386-2.822-0.111-3.846,1.142  c-0.742,0.909-1.682,1.381-2.874,1.331c-0.596-0.025-1.157,0.108-1.638,0.492c-1.383,1.106-2.586,2.342-3.022,4.141  c-0.362,1.501-0.86,2.981-0.643,4.566c0.008,0.062-0.161,0.146-0.32,0.283c-0.723-0.625-1.404-1.316-1.728-2.234  c-0.313-0.89-0.811-1.538-1.558-2.139c-1.548-1.246-1.742-2.632-0.892-4.463c0.542-1.17,1.008-2.345,1.086-3.683  c0.09-1.55-0.25-2.83-1.168-4.139c-0.981-1.398-2.156-2.385-3.694-2.996c-1.14-0.452-2.294-0.869-3.453-1.271  c-0.615-0.214-1.294-0.41-1.866,0.023c-0.88,0.667-1.793,0.518-2.767,0.344c-2-0.357-3.835,0.294-5.629,1.07  c-0.282,0.123-0.523,0.377-0.738,0.613c-0.479,0.525-0.937,1.071-1.393,1.619c-0.476,0.573-0.641,1.261-0.558,1.978  c0.098,0.831,0.219,1.667,0.432,2.475c0.854,3.229,0.403,3.109-1.192,5.072c-0.705,0.866-1.181,1.85-1.483,2.919  c-0.267,0.949-0.309,1.887,0.025,2.851c0.72,2.078,1.383,4.171,1.733,6.356c0.089,0.556,0.364,1.108,0.653,1.603  c0.633,1.082,0.966,2.254,1.2,3.465c0.161,0.824,0.253,1.665,0.445,2.482c0.333,1.411,0.976,2.657,2.088,3.634  c0.779,0.683,1.729,0.824,2.818,0.896c-0.039,0.562,0.045,1.108-0.13,1.552c-0.461,1.166-0.284,2.243,0.086,3.39  c0.533,1.651,0.949,3.324,0.94,5.105c-0.01,1.954,0.915,3.509,2.698,4.377c2.607,1.266,5.158,2.687,8.11,3.076  c0.682,0.092,1.33,0.439,1.798,0.602c0.528,0.937,0.815,1.783,1.375,2.371c1.471,1.547,3.171,2.854,5.142,3.707  c2.596,1.124,5.221,2.172,7.97,2.906c0.907,0.242,1.708,0.883,2.557,1.341c0.885,0.48,1.483,1.204,1.807,2.153  c0.812,2.369,2.461,4.229,3.826,6.26c0.394,0.587,0.912,1.088,1.347,1.65c0.624,0.811,1.502,0.989,2.423,0.921  c1.958-0.142,3.297-1.971,2.225-3.894c-0.126-0.225-0.248-0.459-0.411-0.654c-0.824-0.995-1.657-1.982-2.496-2.964  c-1.051-1.229-2.128-2.423-2.724-3.98c-0.443-1.156-0.521-2.3,0.008-3.381c0.549-1.12,0.407-2.152-0.138-3.148  c-0.65-1.186-1.385-2.313-2.374-3.283c-0.869-0.854-1.695-1.792-2.351-2.813c-0.848-1.328-1.702-2.571-3.199-3.251  c-0.435-0.198-3.814-0.664-4.353-2.213c-0.271-0.778-0.345-1.633-0.678-2.376c-0.498-1.107-1.145-2.146-1.729-3.216  c-0.148-0.269-0.299-0.536-0.453-0.813c0.564-0.32,1.101-0.393,1.541-0.124c0.357,0.219,0.59,0.645,0.865,0.986  c0.078,0.099,0.081,0.26,0.165,0.347c1.705,1.761,2.445,4.938,4.034,5.977c0.257,0.083,0.521,0.116,0.727,0.244  c1.645,1.024,3.289,2.052,4.91,3.113c0.424,0.278,0.797,0.657,1.141,1.037c0.649,0.716,1.195,1.536,1.897,2.191  c2.168,2.026,4.369,4.017,6.597,5.976c1.556,1.365,3.2,2.627,4.761,3.986c1.05,0.916,2.1,1.021,3.386,0.502  c0.989-0.397,1.427-1.043,1.502-2.019c0.055-0.721-0.033-1.432-0.521-2.016c-0.453-0.543-0.897-1.103-1.405-1.594  c-1.21-1.163-2.457-2.289-3.687-3.434c-1.09-1.015-2.226-1.959-3.48-2.774c-1.397-0.91-2.354-2.227-2.834-3.815  c-0.485-1.609-0.867-3.246-1.875-4.642c-0.111-0.153-0.173-0.347-0.245-0.526c-0.511-1.271-0.281-1.945,0.943-2.886  c1.354,0.623,2.698,1.204,4.009,1.858c0.762,0.38,1.342,0.977,1.726,1.775c1.062,2.196,1.079,6.698,2.621,6.931  c0.597,0.01,1.23,0.059,1.86,0.026c2.074-0.111,3.975,0.35,5.655,1.613c0.631,0.474,1.342,0.742,2.139,0.813  c0.806,0.352,1.676,2.237,2.284,3.557c0.363,0.789,1.098,1.411,1.67,2.104c0.365,0.442,0.796,0.843,1.1,1.324  c0.963,1.538,1.982,3.028,3.216,4.367c0.394,0.427,0.737,0.899,1.101,1.354c0.422,0.53,0.985,0.777,1.633,0.963  c0.637,0.183,1.195,0.074,1.607-0.346C89.959,78.926,90.152,78.282,89.866,77.607z M59.332,84.598  c0.328,0.463,0.604,0.963,0.944,1.512c-0.077,0.507-0.4,0.87-1.032,0.715c-0.42-0.102-0.807-0.34-1.207-0.518l0.046,0.029  c-0.36-0.25-0.804-0.433-1.064-0.761c-0.552-0.695-1.008-1.466-1.569-2.304c0.434-0.052,0.91,0.009,0.984-0.136  c0.47-0.91,1.128-0.569,1.598-0.178C58.558,83.395,58.929,84.027,59.332,84.598z M41.187,57.304  c0.173,0.881,0.385,1.784,0.762,2.591c0.723,1.55,1.857,2.621,3.714,2.676c0.874,0.026,1.621,0.43,2.226,1.054  c0.707,0.729,1.634,1.285,1.875,2.396c0.05,0.23,0.252,0.448,0.426,0.632c0.754,0.798,1.469,1.645,2.298,2.36  c1.902,1.645,2.232,3.656,1.563,5.954c-0.055,0.186-0.136,0.364-0.18,0.552c-0.188,0.793-0.108,1.524,0.396,2.21  c0.765,1.042,1.488,2.116,2.228,3.178c0.255,0.366,0.504,0.738,0.74,1.086c-0.296,0.422-0.578,0.293-0.86,0.117  c-0.812-0.505-1.203-1.346-1.625-2.135c-0.882-1.649-1.702-3.334-2.548-5.002c-0.029-0.059-0.049-0.127-0.093-0.17  c-1.541-1.537-2.411-3.441-3.282-5.413c-0.833-1.885-2.381-3.211-4.624-3.402c-0.38-0.032-0.76-0.158-1.121-0.29  c-0.797-0.293-1.597-0.489-2.46-0.453c-0.791,0.034-1.579-0.126-2.193-0.641c-0.884-0.74-1.919-1.081-3.011-1.236  c-0.832-0.119-1.454-0.513-1.979-1.112c-1.15-1.315-2.249-2.655-2.894-4.324c-0.699-1.808-1.498-3.578-2.255-5.364  c-0.12-0.283-0.182-0.648-0.914-0.421c0.475,1.229,0.906,2.368,1.354,3.5c0.215,0.54,0.482,1.06,0.692,1.601  c0.808,2.075,1.924,3.932,3.514,5.525c0.626,0.629,1.25,1.118,2.119,1.229c0.985,0.125,1.87,0.477,2.701,1.011  c0.945,0.605,1.967,0.884,3.114,0.922c1.763,0.058,3.399,0.746,4.982,1.448c1.28,0.566,2.188,1.606,2.54,3.024  c0.286,1.153,0.824,2.155,1.583,3.077c0.611,0.743,1.048,1.612,1.318,2.515c-0.299,0.337-0.53,0.123-0.725-0.004  c-0.661-0.433-1.394-0.635-2.147-0.847c-1.43-0.401-2.804-1.014-4.243-1.366c-2.558-0.626-4.716-2.033-6.948-3.313  c-0.886-0.51-1.481-1.23-1.844-2.172c-0.14-0.36-0.293-0.719-0.472-1.061c-0.431-0.826-0.989-1.477-1.969-1.719  c-0.747-0.186-1.471-0.494-2.173-0.818c-0.432-0.2-0.772-0.269-1.258-0.099c-0.373,0.13-0.906,0.027-1.29-0.146  c-1.586-0.718-3.218-1.381-4.691-2.293c-1.632-1.011-2.532-2.53-2.297-4.585c0.109-0.957,0.084-1.935,0.035-2.899  c-0.025-0.502-0.109-1.089-0.39-1.474c-0.666-0.911-0.541-1.824-0.234-2.767c0.238-0.728,0.4-1.508,1.141-2.101  c1.213,0.437,2.518,0.747,3.501,1.787c0.643,0.681,1.486,1.071,2.423,1.045c0.93-0.024,1.596,0.414,2.232,0.979  c0.291,0.257,0.562,0.537,0.833,0.815c0.956,0.986,2.052,1.523,3.48,1.258c0.561-0.104,1.156-0.012,1.735-0.036  c0.575-0.023,1.167,0.017,1.531-0.613c0.114-0.198,0.4-0.317,0.63-0.421c0.386-0.174,0.774-0.155,1.041,0.219  C40.06,54.574,40.891,55.792,41.187,57.304z M57.594,50.713c-0.291,0.27-0.609,0.479-0.688,0.883  c-0.172,0.891-0.519,1.693-1.098,2.4c-0.113,0.138-0.198,0.371-0.169,0.539c0.192,1.115,0.006,2.289,0.938,3.261  c0.991,1.033,1.583,2.33,1.844,3.788c0.12,0.678,0.512,1.313,0.816,1.951c0.271,0.569,0.613,1.109,0.654,1.907  c-0.291-0.187-0.486-0.249-0.586-0.385c-1.267-1.735-2.769-3.243-4.415-4.616c-0.295-0.246-0.546-0.55-0.802-0.842  c-0.882-1.001-1.194-2.168-0.714-3.411c0.201-0.519,0.091-0.868-0.142-1.249c-0.402-0.66-0.829-1.306-1.263-1.945  c-0.356-0.524-0.626-1.158-1.392-1.22c-0.974-1.003-2.217-1.747-2.706-3.202c-0.314-0.935-1.034-1.629-1.95-2.075  c-1.278-0.623-2.535-1.292-3.838-1.858c-0.579-0.253-1.248-0.418-1.876-0.419c-1.846-0.008-3.525-0.775-5.305-1.071  c-0.91-0.151-1.629-0.749-2.229-1.452c-0.16-0.189-0.249-0.491-0.445-0.588c-1.278-0.625-2.052-1.952-3.426-2.432l-0.066-0.008  c-1.602-1.034-2.898-2.328-3.565-4.166c-0.08-0.219-0.225-0.433-0.392-0.598c-1.442-1.428-2.144-3.172-2.317-5.176  c-0.106-1.22-0.25-2.443-0.483-3.645c-0.159-0.816-0.483-1.604-0.774-2.39c-0.081-0.216-0.322-1.374-0.706-0.836  c-0.207,0.138,0.093,0.8,0.157,1.013c0.661,2.186,0.95,4.43,0.957,6.702c0.004,1.167,0.345,2.109,1.127,2.988  c0.683,0.766,1.237,1.658,1.77,2.542c1.191,1.973,2.667,3.619,4.706,4.773c0.887,0.503,1.728,1.181,2.404,1.943  c1.039,1.173,2.27,1.764,3.792,2.062c1.897,0.37,3.755,0.941,5.702,1.053c0.253,0.014,0.525,0.068,0.749,0.181  c1.27,0.639,2.521,1.317,3.794,1.948c0.558,0.277,0.988,0.711,1.177,1.242c0.571,1.607,1.864,2.593,2.997,3.729  c0.453,0.454,0.897,0.929,1.268,1.451c0.833,1.181,1.433,2.446,1.282,3.964c-0.082,0.822,0.29,1.536,0.814,2.122  c0.688,0.769,1.442,1.479,2.192,2.19c1.031,0.977,2.113,1.896,2.785,3.197c0.229,0.442,0.628,0.815,0.999,1.168  c1.125,1.07,2.248,2.147,3.427,3.156c0.532,0.455,1.176,0.799,1.806,1.119c0.878,0.447,1.623,1.028,2.301,1.745  c0.664,0.703,1.422,1.32,2.156,1.955c0.172,0.148,0.388,0.56,0.684,0.336c0.244-0.657-0.179-0.931-0.486-1.212  c-0.806-0.739-1.612-1.481-2.47-2.156c-0.705-0.554-1.46-1.056-2.237-1.506c-1.364-0.793-2.531-1.782-3.34-3.148  c-0.184-0.31-0.262-0.682-0.548-1.456c0.524,0.416,0.697,0.547,0.862,0.687c0.643,0.54,1.295,1.07,1.922,1.628  c0.77,0.684,1.502,1.411,2.281,2.082c0.833,0.717,1.717,1.374,2.553,2.088c0.636,0.543,1.256,1.109,1.837,1.711  c0.728,0.754,0.827,1.578,0.094,2.428c-0.646,0.232-1.229,0.137-1.789-0.31c-0.704-0.561-1.585-0.959-2.151-1.628  c-1.731-2.048-4.051-3.395-5.977-5.198c-1.455-1.359-3.037-2.613-4.034-4.406c-0.177-0.32-0.534-0.549-0.831-0.79  c-0.502-0.405-1.05-0.758-1.528-1.188c-0.721-0.647-1.32-1.465-2.118-1.985c-0.779-0.508-1.755-0.703-2.619-1.094  c-0.523-0.238-0.995-0.589-1.495-0.878c-0.914-0.527-1.397-1.225-1.318-2.367c0.065-0.917-0.334-1.715-1.106-2.361  c-0.583-0.487-0.982-1.194-1.448-1.814c-0.421-0.56-0.959-0.811-1.668-0.811c-1.398,0.001-2.666,0.261-3.779,1.222  c-1.327,1.145-2.929,1.563-4.684,1.497c-0.702-0.024-1.236-0.302-1.722-0.743c-0.191-0.172-0.327-0.406-0.52-0.575  c-1.108-0.969-2.115-2.103-3.839-1.893c-0.578,0.07-1.081-0.33-1.544-0.718c-0.439-0.368-0.925-0.742-1.454-0.931  c-1.878-0.67-3.669-1.575-5.75-1.658c-1.74-0.069-2.918-1.427-2.992-3.195c-0.083-1.964-0.316-3.86-1.455-5.547  c-0.198-0.294-0.261-0.74-0.241-1.108c0.064-1.147-0.27-2.167-0.831-3.141c-0.226-0.392-0.45-0.788-0.639-1.199  c-0.781-1.699-0.976-3.485-0.599-5.298c0.168-0.812,0.535-1.594,1.305-2.082c0.273-0.172,0.536-0.369,0.772-0.588  c0.805-0.742,1.285-1.619,1.055-2.759c-0.152-0.761-0.239-1.545-0.49-2.273c-0.473-1.373-0.282-2.654,0.247-3.958  c0.238-0.586,0.565-1.024,1.146-1.227c1.158-0.405,2.32-0.805,3.497-1.15c0.834-0.244,1.685-0.1,2.464,0.234  c0.783,0.335,1.453,0.419,2.133-0.229c0.348-0.331,0.838-0.277,1.288-0.092c0.358,0.149,0.719,0.367,1.091,0.393  c1.914,0.134,3.189,1.304,4.367,2.627c1.422,1.598,1.75,3.413,0.979,5.413c-0.279,0.723-0.568,1.444-0.883,2.153  c-0.587,1.322-0.271,2.53,0.448,3.682c0.273,0.438,0.59,0.852,0.907,1.26c0.834,1.072,1.695,2.11,1.844,3.559  c0.059,0.583,0.455,1.03,1.048,1.298c0.824,0.373,1.583,0.898,2.42,1.229c0.813,0.321,2.544,0.986,2.932,1.438  c0.081,0.095,0.218,0.142,0.31,0.23c0.947,0.907,2.009,1.314,3.341,0.95c0.48-0.13,1.025-0.021,1.514-0.021  c0.393,0.364,0.714,0.679,1.053,0.975c0.467,0.405,2.045,2.907,2.709,3.494c0.289,0.254,0.844,0.298,1.273,0.284  c0.966-0.034,1.511,0.364,1.958,1.234c0.933,1.819,2.446,3.144,4.091,4.317c0.263,0.187,0.572,0.315,0.817,0.521  C58.3,49.029,58.358,50.007,57.594,50.713z M87.928,78.351c-0.454,0.139-0.738-0.158-0.994-0.445  c-0.518-0.578-1.01-1.177-1.511-1.768c-0.488-0.577-0.542-1.277-0.62-1.992c-0.037-0.351-0.202-0.771-0.785-0.514  c-0.121,0.054-0.448-0.199-0.585-0.381c-0.229-0.308-0.404-0.662-0.562-1.017c-0.425-0.954-0.951-1.823-1.742-2.535  c-0.643-0.578-0.954-1.366-1.197-2.186c-0.366-1.23-1.167-2.143-2.191-2.88c-0.157-0.113-0.304-0.315-0.47-0.332  c-1.51-0.143-2.651-1.288-4.135-1.5c-0.315-0.045-0.67-0.105-0.919-0.28c-1.033-0.73-2.174-0.726-3.324-0.519  c-0.981-0.742-1.473-1.67-1.543-2.838c-0.027-0.45-0.14-0.896-0.16-1.347c-0.051-1.105-0.563-1.966-1.337-2.711  c-0.372-0.358-0.813-0.699-1.034-1.143c-0.669-1.342-1.851-1.721-3.182-1.827c-0.999-0.079-1.91-0.288-2.622-1.142  c0-0.806,0.47-1.389,0-2.451c-0.444-0.699-0.985-1.257-1.729-1.548c-1.874-0.736-2.951-2.235-3.802-3.94  c-0.325-0.651-0.613-1.295-1.398-1.491c-0.49-0.123-0.932-0.283-1.481,0.011c-0.557,0.299-0.958,0.072-1.264-0.47  c-0.093-0.163-0.085-0.381-0.175-0.547c-0.81-1.495-1.867-2.761-3.435-3.593c-0.655-0.035-1.364-0.133-2.066-0.095  c-1.225,0.066-2.176-0.501-2.862-1.371c-1.202-1.521-2.1-3.158-2.185-5.235c-0.101-2.507,1.893-4.53,3.801-5.322  c0.06-0.024,0.124-0.042,0.187-0.053c1.914-0.331,3.448-1.367,4.863-2.625c0.545-0.223,1.001-0.729,1.573-0.042  c-0.541,0.567,1.029,1.844,2,1.547c0.336-0.177,0.724-0.381,1.132-0.596c1.521,0.643,2.886,1.387,3.671,2.958  c0.428,0.857,1.132,1.533,1.969,2.075c0.585,0.378,1.116,0.876,1.561,1.414c0.245,0.297-0.042,1.077,0.387,1.224  c0.518,0.032,1.025,0.063,1.531,0.093l0.322,0.014c0.229,0.081,0.655,0.161,0.655,0.243c0.004,0.878,0.613,0.932,1.198,0.847  c2.217-0.321,4.185,0.559,6.199,1.218c0.224,0.073,0.414,0.293,0.587,0.475c1.34,1.41,2.184,3.074,2.207,5.028  c0.021,1.837,0.719,3.405,1.7,4.861c0.44,0.654,0.839,1.201,0.692,2.067c-0.094,0.547,0.078,1.158,0.214,1.721  c0.421,1.745,0.182,3.43-0.31,5.12c-0.771,2.654,0.186,4.854,2.019,6.696c1.502,1.511,3.088,2.931,4.361,4.66  c0.453,0.616,1.102,1.088,1.65,1.635c0.689,0.684,0.965,1.471,0.771,2.465c-0.283,1.457,0.091,2.807,0.857,4.064  c0.701,1.152,1.339,2.342,2.07,3.473c0.38,0.59,0.927,1.068,1.351,1.634C88.222,77.672,88.233,78.257,87.928,78.351z"></path></svg>
