<svg style="fill: #efc900" enable-background="new 0 0 100 100" version="1.1" viewBox="0 0 100 100" xmlns="http://www.w3.org/2000/svg">
 <g transform="matrix(4.0651 0 0 4.0651 -133.48 -501.11)">
  <path d="m47.756 142.51c0-0.0214 0.0626-0.19177 0.13911-0.37869 0.3152-0.77006 0.48834-1.8728 0.39176-2.4952-0.12532-0.80771-0.55978-1.3615-1.0706-1.3647-0.09604-8e-4 -0.32939-0.0338-0.51857-0.0736l-0.34396-0.0726-0.2808 0.26467c-0.15444 0.14557-0.29168 0.2538-0.30496 0.24051-0.01328-0.0133 0.03669-0.16172 0.11105-0.32987 0.07436-0.16814 0.12825-0.32399 0.11975-0.34633-0.0085-0.0223-0.13879-0.13767-0.28953-0.25631l-0.27407-0.2157 0.12844 0.37762c0.07064 0.2077 0.11593 0.39014 0.10064 0.40542-0.04846 0.0485-0.70844-0.63708-1.0548-1.0956-0.36749-0.48654-0.72342-1.1686-0.85409-1.6366-0.0538-0.19269-0.13187-0.3386-0.21417-0.40024-0.11941-0.0894-0.13945-0.0905-0.2571-0.0134-0.27472 0.18-0.54281 0.5144-0.5753 0.71759-0.03712 0.23214 0.03563 0.67515 0.14588 0.88835 0.15341 0.29667 0.73375 0.80622 1.1628 1.021 0.22936 0.1148 0.46048 0.20872 0.5136 0.20872s0.11351 0.0274 0.13421 0.0609c0.0715 0.11569-0.81504 0.0157-1.2485-0.14076-0.672-0.24265-0.76643-0.31404-0.9457-0.71496-0.35003-0.78282-0.42032-1.4241-0.18932-1.7269 0.07424-0.0973 0.12153-0.17698 0.10508-0.17698s-0.33913 0.15495-0.71707 0.34435l-0.68716 0.34433 0.0013 0.22451c0.0037 0.63604 0.28361 1.1326 0.89126 1.5808 0.22214 0.16385 0.70826 0.49698 1.0802 0.74028 0.37199 0.24329 0.65426 0.44971 0.62725 0.45871-0.027 9e-3 -0.37622-0.0929-0.77605-0.2265-1.1492-0.38395-2.0093-0.8591-2.1315-1.1775-0.03078-0.0802-0.10567-0.37204-0.16644-0.64852-0.06077-0.2765-0.12382-0.56222-0.14011-0.63494-0.02868-0.12801-0.03203-0.12895-0.10469-0.0296-0.20986 0.287 0.09105 1.2701 0.58794 1.9209 0.28117 0.36824 0.15195 0.39607-0.17242 0.0371-0.52854-0.58485-1.0198-1.4287-1.0198-1.7519 0-0.0667-0.03544-0.0768-0.17198-0.0489-0.09459 0.0193-0.35819 0.0498-0.58578 0.0677-0.41293 0.0325-0.41373 0.0329-0.38083 0.16997 0.06172 0.25719 0.47613 1.0316 0.85794 1.6032 0.42619 0.63806 0.81625 1.1409 1.3578 1.7506 0.2012 0.22649 0.3515 0.42612 0.33398 0.44363-0.01751 0.0175-0.20527-0.0706-0.41723-0.19594-1.1659-0.68909-2.0265-1.5494-2.5525-2.5516-0.22363-0.42606-0.28-0.57202-0.39837-1.0315-0.04679-0.18163-0.08107-0.2249-0.17822-0.2249-0.39621 0-1.5079-0.41604-2.0846-0.78016-1.2282-0.77541-2.5201-2.4347-2.5961-3.3342-0.02294-0.2716-0.01821-0.2828 0.20798-0.4921 0.51332-0.475 1.4254-0.77877 2.4804-0.82609 1.8526-0.0831 4.175 0.58404 6.8887 1.9788l0.88267 0.45368 0.26391-0.11353c0.64674-0.27823 1.7297-0.38966 2.6944-0.27724 0.69226 0.0807 1.0647 0.17652 1.49 0.38354l0.3399 0.16543 0.15543-0.1798c0.08548-0.0989 0.48022-0.5101 0.87719-0.91379 2.2493-2.2874 4.254-3.5385 6.1615-3.8452 0.72964-0.11733 1.6623 0.0162 1.9716 0.28211 0.48902 0.42064-0.09531 2.7199-1.0264 4.0386-0.35169 0.49813-1.0301 1.1598-1.4588 1.4226-0.18983 0.11641-0.34598 0.22881-0.34702 0.24978-9.6e-4 0.021 0.0636 0.17574 0.14364 0.34396 0.14156 0.2975 0.14552 0.33107 0.14552 1.2319 0 1.0684-0.08165 1.5495-0.36442 2.147-0.21336 0.45085-0.51956 0.77715-0.89065 0.94908-0.15128 0.0701-0.28537 0.11711-0.29798 0.10449-0.01262-0.0126 0.07378-0.14855 0.19198-0.30208 0.40349-0.52411 0.75752-1.3588 0.83318-1.9644l0.0365-0.29217-0.33639-0.45356c-0.18502-0.24945-0.40022-0.54272-0.47824-0.65172-0.07802-0.10899-0.21003-0.27875-0.29336-0.37724l-0.15151-0.17908-0.91997 0.1368 0.0298 0.19002c0.0164 0.10452-0.01068 0.36862-0.06016 0.5869-0.04947 0.21828-0.10712 0.56356-0.1281 0.76729-0.03628 0.35238-0.09164 0.62135-0.3267 1.5875-0.05665 0.23283-0.22232 0.6692-0.36816 0.96972-0.21404 0.44107-0.33855 0.62071-0.64591 0.93196-0.33754 0.34179-0.6981 0.6032-0.75437 0.54692-0.0109-0.0109 0.13555-0.26864 0.32545-0.57276 0.80902-1.2956 1.0872-1.915 1.1088-2.4692l0.01488-0.38171-0.379 0.25622c-0.4889 0.33053-0.63909 0.40522-1.2786 0.63595l-0.52917 0.19092-0.01252 0.23703c-0.03798 0.71956-0.13862 1.6206-0.22204 1.988-0.08988 0.3958-0.31446 1.0755-0.37436 1.133-0.01514 0.0146-0.12828 0.14866-0.25141 0.29801-0.19762 0.23974-0.43614 0.39737-0.43614 0.28824zm0.52833-0.58495c0.38118-0.59401 0.57336-1.538 0.66284-3.2557 0.03181-0.61064 0.06972-0.99348 0.11429-1.1541 0.01956-0.0705-0.03986-0.045-0.22514 0.0964-0.24939 0.19036-0.81846 0.50205-0.91662 0.50205-0.02804 0-0.11551 0.0246-0.19437 0.0545l-0.14339 0.0546 0.2171 0.18583c0.47084 0.40302 0.68603 1.178 0.58565 2.1092-0.0529 0.49071-0.24297 1.2822-0.39627 1.6501l-0.08568 0.20562 0.11123-0.10026c0.06118-0.0551 0.18284-0.21184 0.27035-0.34823zm1.994-1.4269c0.53683-0.48859 0.97777-1.2546 1.1746-2.0405 0.18455-0.73686 0.19058-0.78805 0.08826-0.74878-0.04931 0.019-0.11152 0.0344-0.13824 0.0344-0.02673 0-0.04859 0.0722-0.04859 0.16042 0 0.37039-0.35625 1.1706-0.97102 2.1811-0.19034 0.31287-0.32952 0.56816-0.3093 0.5673 0.02022-8e-4 0.11216-0.0702 0.20428-0.15401zm-9.6455-0.43974c-0.02126-0.0364-0.15054-0.19712-0.2873-0.35719-0.38147-0.44649-1.11-1.4631-1.3853-1.933-0.33734-0.5759-0.50126-0.94748-0.60699-1.3759-0.08848-0.35856-0.1726-0.49227-0.37928-0.60288-0.2093-0.11201-0.27209-0.0732-0.2717 0.16797 5.2e-4 0.32031 0.18224 1.0363 0.3657 1.4409 0.37499 0.82702 1.1899 1.7615 2.0889 2.3956 0.4905 0.34593 0.5393 0.37306 0.47594 0.26459zm13.3-1.2303c0.22011-0.2508 0.41295-0.65404 0.55676-1.1642 0.07897-0.28012 0.11099-0.59939 0.13138-1.3097l0.02696-0.93927-0.15209 8e-4c-0.26022 2e-3 -0.29181 0.0514-0.23195 0.36702 0.18671 0.98451-0.07274 2.2727-0.62068 3.0817-0.25442 0.37563-0.25669 0.38476-0.06865 0.27551 0.09488-0.0551 0.2561-0.19547 0.35827-0.31189zm-11.278-0.41011c-0.22707-0.1528-0.61375-0.42624-0.8593-0.60765l-0.44645-0.32983-0.26726 0.0573-0.26726 0.0574 0.10938 0.11643c0.1567 0.1668 0.8655 0.53286 1.4984 0.77388 0.29909 0.11388 0.56664 0.2078 0.59454 0.20871 0.0279 8e-4 -0.13504-0.12338-0.3621-0.27617zm6.9863-0.40173c0.25784-0.17002 0.58952-0.41839 0.73706-0.55193 0.29891-0.27056 0.71071-0.84924 0.71071-0.99873 0-0.15403-0.18793-0.6075-0.36817-0.88838l-0.16542-0.25778-0.43435-0.057c-0.44299-0.0581-0.76292-0.0798-0.97798-0.0666-0.11457 7e-3 -0.11038 0.02 0.08799 0.2709 0.4273 0.54057 0.47244 1.0535 0.14011 1.5922-0.22035 0.35717-0.39689 1.2664-0.24589 1.2664 0.02592 0 0.25809-0.1391 0.51594-0.30913zm0.57464-0.0363c0.32014-0.15857 0.6839-0.37788 0.80833-0.48737l0.22625-0.19906-0.08364-0.635-0.16676 0.23812c-0.24031 0.34315-0.77557 0.84875-1.234 1.1656-0.47977 0.3316-0.33079 0.30434 0.44979-0.0823zm-3.7973-0.0947c0.67339-0.7752 1.0406-1.5183 1.1813-2.3906 0.07721-0.47859 0.0617-0.50098-0.34767-0.50223-0.33706-8e-4 -0.5932 0.0725-0.74307 0.21328-0.11115 0.10441-0.11633 0.14209-0.09015 0.65505 0.0378 0.74065-0.12299 1.7182-0.38146 2.3191-0.07895 0.18356 0.05696 0.0785 0.38103-0.2946zm1.473 0.12568c0.38123-0.13399 1.0262-0.53542 1.2262-0.76323 0.40008-0.45566 0.47314-0.90535 0.23009-1.4162-0.12962-0.27245-0.57184-0.74289-0.96144-1.0228-0.23536-0.16909-0.25742-0.17538-0.28712-0.0818-0.0177 0.0558-0.1004 0.15876-0.1838 0.22893-0.1139 0.0958-0.16034 0.19186-0.18668 0.38597-0.10638 0.78409-0.40659 1.5044-0.9336 2.2402-0.17295 0.24146-0.30482 0.44864-0.29304 0.46042 0.01178 0.0118 0.1259 0.0433 0.25361 0.0701 0.31507 0.0661 0.77623 0.0248 1.1358-0.10156zm-3.9918-0.2019c-0.15599-0.0781-0.38865-0.23444-0.51703-0.34745-0.24318-0.21405-0.35624-0.22896-0.56708-0.0747-0.08922 0.0653-0.06618 0.086 0.26458 0.23829 0.60788 0.27987 1.3389 0.44391 0.81953 0.1839zm1.4734-0.24055c-0.15751-0.56803-0.22625-1.3201-0.16521-1.8074 0.02902-0.23167 0.04246-0.4379 0.02986-0.45827-0.07319-0.11843-1.3212-0.19431-1.4286-0.0869-0.11197 0.11197 0.3862 1.223 0.80104 1.7866 0.24516 0.33304 0.81872 0.96812 0.84794 0.93891 0.0079-8e-3 -0.03035-0.17571-0.08503-0.37288zm0.81316-0.17292c0.10548-0.39497 0.19025-1.8762 0.10719-1.8729-0.02549 8e-4 -0.10588 0.0359-0.17864 0.0775-0.18453 0.10549-0.36743 0.0969-0.57014-0.0266-0.09529-0.0581-0.18211-0.10563-0.19293-0.10563-0.05953 0-0.08295 0.88822-0.03419 1.2964l0.05689 0.47626 0.30063 0.27894c0.16535 0.15343 0.32598 0.2708 0.35696 0.26081 0.03098-0.01 0.10039-0.18313 0.15424-0.38477zm-5.8938-0.0359c-0.08193-0.211-0.1662-0.53594-0.18726-0.72208-0.03615-0.31957-0.15024-0.53469-0.28358-0.53469-0.13188 0-0.05474 0.54915 0.12636 0.89958 0.10336 0.2 0.45216 0.74084 0.47778 0.74084 0.0086 0-0.05138-0.17264-0.13332-0.38365zm11.256 0.24531c0.21684-0.0582 0.29623-0.7951 0.14726-1.367-0.10987-0.42183-0.3963-0.94848-0.70603-1.2982l-0.25685-0.28999-0.22132 0.4338 0.13406 0.17892c0.366 0.48845 0.64717 1.2973 0.68444 1.9689 0.01158 0.2088 0.02155 0.38559 0.02214 0.39286 0.0018 0.021 0.07136 0.0142 0.19628-0.0193zm-10.301-0.20649c0.02505-0.0155-0.0251-0.14178-0.11142-0.28066-0.17824-0.28672-0.28032-0.78991-0.244-1.2027 0.02181-0.24785 9e-3 -0.28415-0.17688-0.50216l-0.20039-0.235-0.03782 0.2016c-0.05595 0.29826 3.2e-4 0.942 0.13663 1.5628l0.12041 0.54841 0.23396-0.0321c0.12868-0.0177 0.25446-0.0447 0.27951-0.0602zm1.7131-0.20413c0.09774-0.0349 0.09754-0.0391-7e-3 -0.15357-0.18274-0.19991-0.2874-0.46165-0.34114-0.85315-0.05021-0.36574-0.20485-0.65118-0.31567-0.58269-0.13935 0.0861 0.01189 0.9535 0.2667 1.5296 0.10322 0.23334 0.11981 0.24753 0.20448 0.17484 0.05067-0.0435 0.13738-0.0953 0.19267-0.11499zm11.118-1.1225c-0.0766-0.1307-0.30536-0.44508-0.50837-0.69862-0.43233-0.53993-1.5676-1.7574-1.6387-1.7574-0.02698 0-0.04905 0.0931-0.04905 0.20684 0 0.19142 0.02546 0.22685 0.34152 0.47522 0.38966 0.30624 0.84254 0.82014 1.5023 1.7048 0.42338 0.56768 0.4593 0.60251 0.4748 0.46048 0.01038-0.0951-0.03626-0.24412-0.1225-0.39129zm-14.755 0.23728c0.29241-0.0509 0.33506-0.0732 0.33506-0.17491 0-0.0641 0.28942-0.59745 0.64315-1.1852 0.6421-1.0669 0.64346-1.0686 0.83344-1.0727 0.1697-4e-3 0.15307-0.015-0.15367-0.1056-0.18918-0.0558-0.48236-0.12885-0.65151-0.16223l-0.30756-0.0607-0.21127 0.20597c-0.19855 0.19356-0.78352 1.0478-0.85674 1.2511-0.03126 0.0868-0.02098 0.0875 0.16277 0.0107 0.10787-0.045 0.30452-0.1515 0.43698-0.2365 0.28328-0.18178 0.76618-0.31099 0.84979-0.22738 0.0381 0.0381-0.02462 0.0656-0.20379 0.0894-0.14924 0.0198-0.38239 0.10874-0.5507 0.21009-0.16054 0.0967-0.33727 0.19451-0.39274 0.2174-0.09038 0.0373-0.08437 0.049 0.0579 0.11227 0.08731 0.0389 0.21233 0.0718 0.27781 0.073 0.06548 2e-3 0.11906 0.0262 0.11906 0.0553 0 0.0835-0.21783 0.0598-0.45968-0.05-0.12186-0.0554-0.26988-0.088-0.32894-0.0725-0.1613 0.0422-0.56239 0.85002-0.51526 1.0378 0.0332 0.13228 0.05641 0.14304 0.30837 0.14304 0.14986 0 0.42325-0.0262 0.60753-0.0583zm12.64-0.454c0.06843-0.62135-0.23684-1.5132-0.69077-2.0181-0.23589-0.26237-0.5645-0.46543-0.65884-0.40713-0.09119 0.0563 0.01276 0.36599 0.21343 0.63571 0.24076 0.32362 0.38374 0.60354 0.48812 0.95567 0.04366 0.14727 0.15074 0.4092 0.23796 0.58208s0.18961 0.41802 0.22753 0.54473c0.05804 0.19395 0.07526 0.21336 0.1088 0.12266 0.02193-0.0593 0.05512-0.24628 0.07377-0.41561zm-14.337 0.28745c-0.07934-0.51436-0.08548-0.67907-0.02922-0.78419 0.03493-0.0653 0.04098-0.1333 0.01425-0.16003-0.08854-0.0885-0.85161-0.25199-1.5833-0.33913-1.0055-0.11976-1.0944-0.13419-1.0569-0.17164 0.01796-0.018 0.1647-0.0266 0.32609-0.019l0.29343 0.0136-0.13549-0.21464c-0.16146-0.25577-0.3186-0.63324-0.27977-0.67207 0.01522-0.0152 0.13989 0.18515 0.27705 0.44527l0.24937 0.47296 0.32489 0.0341c0.17869 0.0187 0.5392 0.0787 0.80114 0.1332l0.47625 0.0991 0.15875-0.14481c0.08731-0.0797 0.24934-0.21182 0.36006-0.29371 0.16487-0.12196 0.18882-0.16119 0.13229-0.2168-0.11887-0.11693-2.2646-0.77878-3.8393-1.1842-0.12369-0.0318-0.2249-0.0808-0.2249-0.10879 0-0.0692 0.02856-0.0655 0.4206 0.0537 0.314 0.0955 0.47419 0.10092 0.3421 0.0116-0.09634-0.0651-0.23353-0.29564-0.23353-0.39239 0-0.0517 0.08486-0.18783 0.18857-0.30263l0.18857-0.20872-0.15802-0.0817c-0.08691-0.045-0.27126-0.17973-0.40968-0.29953-0.28953-0.25059-0.40126-0.25433-0.89162-0.0298-0.38375 0.17568-0.47829 0.3239-0.39764 0.62343 0.24114 0.89551 1.2661 2.234 2.2471 2.9344 0.70355 0.5023 1.7987 0.96146 2.3175 0.97168 0.13746 3e-3 0.14604-9e-3 0.12139-0.16907zm2.6003-0.29104c0.05811-0.16735 0.13402-0.40655 0.16868-0.53155 0.04343-0.15664 0.1017-0.242 0.18747-0.2746 0.15091-0.0574 0.66362-0.67797 0.66362-0.80326 0-0.10002-0.14755-0.26921-0.21369-0.24503-0.02346 9e-3 -0.3083 0.45462-0.63296 0.99122l-0.5903 0.97563 0.12317 0.0948c0.06774 0.0521 0.13784 0.0953 0.15576 0.0959 0.01793 4e-4 0.08015-0.13574 0.13826-0.30309zm13.935-0.1038c-0.03443-0.13936-0.14292-0.37543-0.24107-0.52459-0.15316-0.23276-0.19776-0.26752-0.3146-0.24519-0.07487 0.0143-0.13614 0.044-0.13614 0.066s0.12077 0.19109 0.26838 0.37575 0.3071 0.40128 0.35441 0.48136c0.1187 0.20096 0.14315 0.14664 0.06902-0.15336zm-15.606-0.25339c0.43871-0.85416 1.0296-1.7294 1.305-1.933 0.16027-0.11849 0.16903-0.19374 0.08458-0.72615l-0.0273-0.17208-0.16238 0.084c-0.4588 0.23725-1.2517 1.1962-1.8458 2.2322-0.2882 0.50263-0.32262 0.64732-0.15397 0.64732 0.13351 0 0.3776 0.12243 0.47281 0.23715 0.08347 0.10056 0.08856 0.0948 0.327-0.36944zm3.2114-0.0529c0.3713-0.18917 0.70064-0.34396 0.73186-0.34396s0.08888-0.0386 0.12813-0.086c0.06495-0.0782 0.04533-0.0825-0.21842-0.0477-0.44122 0.0584-0.85105 0.16069-1.1197 0.27954-0.22386 0.099-0.24423 0.12415-0.26336 0.32468-0.0114 0.11953-0.0011 0.21733 0.02286 0.21733 0.02397 0 0.34737-0.15478 0.71867-0.34396zm1.324-0.30189 0.25383-0.22727-0.17364-0.45412-0.34097 0.43576c-0.454 0.5802-0.44597 0.56379-0.33555 0.6858 0.09321 0.103 0.09577 0.10236 0.2184-0.0543 0.06825-0.0872 0.23831-0.26083 0.37792-0.38583zm3.2003 0.14909c0.36078-0.37548 0.7975-0.49529 1.2903-0.35396 0.15282 0.0438 0.18395 0.0327 0.30253-0.10824 0.27315-0.32462 0.29772-0.8603 0.05281-1.1514-0.2607-0.30982-1.1243-0.53279-2.2197-0.57312-0.81715-0.0301-1.4739 0.053-2.0122 0.25434-0.35701 0.13357-0.45066 0.29665-0.44439 0.77376 0.0042 0.32134 0.05983 0.51182 0.23243 0.79627l0.10416 0.17167 0.47792-0.0322c0.64503-0.0436 1.128 0.0672 1.4121 0.32392 0.30332 0.27404 0.46298 0.25399 0.80405-0.10098zm-0.75721-0.16215c-0.10127-0.12203-0.04426-0.2652 0.11286-0.28343 0.10462-0.0121 0.14956 0.0122 0.1759 0.0951 0.06489 0.20446-0.15588 0.34841-0.28876 0.18829zm-0.93344-0.36767c-0.23769-0.23769-0.2463-0.48494-0.02551-0.73206 0.13257-0.14837 0.18932-0.17281 0.40122-0.17281s0.26865 0.0245 0.40122 0.17281c0.2208 0.24712 0.21218 0.49437-0.02551 0.73206-0.13978 0.13978-0.2236 0.17992-0.37571 0.17992s-0.23593-0.0402-0.37571-0.17992zm1.4138 0.0407c-0.54432-0.38126-0.06166-1.232 0.53762-0.94765 0.50741 0.24079 0.34596 1.0339-0.21046 1.0339-0.11218 0-0.2594-0.0388-0.32716-0.0863zm-2.4933-0.38996c-0.28434-0.28434 0.07727-0.64151 0.48042-0.47453 0.2281 0.0945 0.26403 0.29908 0.08027 0.45714-0.17611 0.15148-0.41906 0.15901-0.56069 0.0174zm3.7042-0.11892c-0.16534-0.0859-0.20384-0.32563-0.07514-0.46784 0.11358-0.12551 0.45583-0.13624 0.57407-0.018 0.10184 0.10184 0.10884 0.35882 0.01196 0.43922-0.11687 0.097-0.36957 0.12005-0.51089 0.0466zm-2.8019-0.53931c-0.13387-0.16131 0.07737-0.37255 0.23867-0.23867 0.11308 0.0938 0.07493 0.28475-0.06078 0.30414-0.06075 9e-3 -0.14081-0.0208-0.1779-0.0654zm1.0748-3e-3c-0.07458-0.19433 0.1403-0.36595 0.28145-0.2248 0.11763 0.11762 0.04366 0.30417-0.1206 0.30417-0.07171 0-0.14409-0.0357-0.16084-0.0794zm1.1471-0.0504c-0.09573-0.11535-0.0442-0.26475 0.09828-0.28499 0.19581-0.0278 0.27522 0.1374 0.13396 0.27867-0.10312 0.10311-0.15083 0.10441-0.23224 6e-3zm-5.4177 1.4658c0.33069-0.1418 0.80718-0.26237 1.2134-0.30701 0.28047-0.0308 0.34012-0.0579 0.46083-0.20918l0.13865-0.17377-0.52978-0.2279-0.46765 0.26762c-0.51317 0.29366-1.1778 0.58414-1.3365 0.58414-0.09158 0-0.08739 0.0182 0.04391 0.19031 0.13062 0.17125 0.14895 0.18007 0.18301 0.088 0.02082-0.0563 0.15316-0.15177 0.2941-0.21221zm13.244 0.14556c0.06012 0 0.10931-0.015 0.10931-0.0335s-0.08598-0.20298-0.19106-0.4101c-0.5097-1.0046-1.4343-1.8927-2.4284-2.3323-0.17032-0.0753-0.32602-0.11853-0.346-0.096-0.04681 0.0527-0.15662 0.38048-0.15662 0.46749 0 0.0368 0.09071 0.0821 0.20158 0.10089 0.51931 0.0877 1.3874 0.85001 2.1231 1.8642 0.33013 0.45513 0.40608 0.53177 0.4851 0.48948 0.05153-0.0275 0.14288-0.0502 0.203-0.0502zm-4.1282-0.18429c-0.29335-0.1595-1.9769-0.60387-2.0419-0.53893-0.01478 0.0148 0.0407 0.0702 0.12326 0.12302 0.08256 0.0529 0.22155 0.16184 0.30886 0.2421 0.14629 0.13449 0.19407 0.14628 0.60854 0.15012 0.24738 2e-3 0.55695 0.0232 0.68792 0.0466 0.13097 0.0233 0.28575 0.0444 0.34396 0.0469 0.08934 4e-3 0.08456-7e-3 -0.03067-0.0698zm2.4098-0.0184c0.1392-0.0372 0.13608-0.0424-0.25392-0.42056-0.2709-0.26268-0.42142-0.37267-0.4795-0.35039-0.04655 0.0179-0.08464 6e-3 -0.08464-0.0261 0-0.0322-0.05017-0.0586-0.1115-0.0586-0.08659 0-0.1023 0.0207-0.07032 0.0926 0.02265 0.051 0.10107 0.26743 0.17428 0.48111l0.13311 0.38852 0.27578-0.0345c0.15168-0.019 0.3392-0.0514 0.41672-0.0722zm-14.857-0.30104c0.16657-0.28503 0.17988-0.34388 0.05318-0.23515-0.03515 0.0302-0.16512 0.12748-0.28881 0.21624-0.2449 0.17576-0.27458 0.23733-0.13229 0.27452 0.17873 0.0467 0.19979 0.0321 0.36792-0.25561zm12.648 7e-3 0.11254-0.23164-0.45814-0.091c-0.25198-0.0501-0.69673-0.17465-0.98835-0.27692-0.44906-0.15746-0.89139-0.23476-0.95029-0.16605-0.0086 0.0101-0.0309 0.10271-0.04952 0.20589l-0.03384 0.1876 0.38401 0.0656c0.3875 0.0662 1.5865 0.4046 1.7334 0.4892 0.12212 0.0703 0.1301 0.0645 0.2502-0.18272zm0.57875-0.0462c-0.08617-0.19704-0.1551-0.28273-0.2371-0.29472-0.06358-9e-3 -0.11561-2e-3 -0.11561 0.0166 0 0.0315 0.43573 0.55581 0.46199 0.55587 0.0067 2e-5 -0.04247-0.12499-0.10929-0.27778zm-9.6396-0.08 0.21167-0.10951-0.14896-0.0574c-0.08193-0.0316-0.17915-0.0574-0.21604-0.0574-0.06188 0-0.40229 0.37859-0.40229 0.4474 0 0.0351 0.25208-0.0661 0.55563-0.22312zm12.087 0.20318c0.06021-0.0382 0.04072-0.0913-0.10159-0.277-0.09685-0.12641-0.28008-0.33869-0.40717-0.47174-0.19374-0.20282-0.25641-0.23819-0.38789-0.21889-0.08625 0.0126-0.15682 0.041-0.15682 0.0629 0 0.0816 0.82324 0.95339 0.89958 0.95269 0.04366-4e-4 0.1129-0.0219 0.15388-0.0479zm-11.466-0.5306 0.27324-0.15605-0.15366-0.0584c-0.12539-0.0477-0.74674-0.15041-0.94955-0.157-0.02765-8e-4 -0.0217 0.027 0.01322 0.0618 0.03493 0.0349 0.0635 0.11628 0.0635 0.1808 0 0.10435 0.14592 0.19245 0.4649 0.28068 0.0083 2e-3 0.13806-0.0661 0.28835-0.15188zm12.722-0.13989c0.54371-0.38713 0.81144-0.64607 1.1895-1.1505 0.7201-0.9607 1.1935-2.1578 1.2936-3.2713 0.0727-0.80841-0.04552-0.94433-0.82139-0.94433h-0.43126l-0.07229 0.17197c-0.03976 0.0946-0.14105 0.26724-0.2251 0.38365-0.08405 0.11642-0.16879 0.23823-0.18832 0.2707-0.02092 0.0347 0.07268 0.12628 0.2278 0.2227 0.14482 0.09 0.26331 0.1847 0.26331 0.21038 0 0.0257-0.0338 0.15899-0.0751 0.29625l-0.0751 0.24956 0.19417-0.14503c0.10679-0.0798 0.25096-0.18828 0.32037-0.24114 0.13699-0.10435 0.21776-0.12283 0.21776-0.0498 0 0.0385-0.41198 0.3488-0.91859 0.69186-0.83037 0.56231-2.3867 1.7411-2.4791 1.8778-0.05366 0.0794-0.0056 0.1085 0.3941 0.23909 0.19614 0.0641 0.36898 0.13652 0.3841 0.16097 0.01512 0.0245 0.1642-0.0459 0.3313-0.15635s0.47051-0.28895 0.67424-0.39668c0.20373-0.10772 0.39837-0.2318 0.43254-0.27572 0.03417-0.0439 0.09113-0.29209 0.12658-0.55149s0.08509-0.47164 0.11032-0.47164c0.05017 0 0.0093 0.50041-0.06458 0.79078-0.0255 0.10022-0.03798 0.19062-0.02774 0.20086 0.01024 0.0102 0.12814-0.0346 0.26198-0.0996 0.13385-0.065 0.25976-0.10184 0.2798-0.0818 0.02004 0.02 0.02652 0.0424 0.01438 0.0497-0.01212 7e-3 -0.36733 0.1856-0.78934 0.39629-0.73674 0.36783-1.2271 0.66053-1.5568 0.92934l-0.15446 0.12594 0.27243 0.32736c0.14984 0.18005 0.29758 0.37435 0.3283 0.43177 0.03074 0.0574 0.07635 0.1044 0.10137 0.1044s0.23254-0.13318 0.46116-0.29595zm-16.59 0.0446c0.06788-0.10915 0.14334-0.22908 0.16769-0.26653 0.04628-0.0712 0.01172-0.0674-0.45875 0.0506l-0.20455 0.0513 0.17809 0.0892c0.10798 0.0541 0.1752 0.12557 0.17074 0.18153-0.01042 0.13073 0.0075 0.11777 0.14677-0.10614zm12.473 0.14034c0.19858-0.0692 0.20096-0.0836 0.04602-0.27719l-0.1201-0.15007-0.35589 0.14247c-0.19574 0.0783-0.35589 0.16117-0.35589 0.18404 0 0.0229 0.11311 0.0651 0.25135 0.0939 0.3461 0.0722 0.34707 0.0722 0.5345 6e-3zm-7.5692-0.23869-0.01642-0.19094-1.27-0.51391c-0.6985-0.28264-1.3868-0.5661-1.5295-0.6299s-0.26338-0.10976-0.26808-0.10213c-0.0047 8e-3 5e-3 0.16865 0.02141 0.35783l0.02996 0.34396 0.21167 0.0602c0.11642 0.033 0.55695 0.15652 0.97896 0.27434s0.9816 0.29764 1.2435 0.3996c0.60897 0.23705 0.61881 0.23706 0.59851 8e-4zm6.9708-0.0814c0.21819-0.0916 0.38618-0.17705 0.37332-0.18992-0.0419-0.0419-0.77634 0.092-0.97541 0.17784-0.17353 0.0748-0.18279 0.0882-0.08807 0.12739 0.17888 0.074 0.27906 0.0573 0.69017-0.11531zm-0.34621-0.19784c0.13097-0.0295 0.35046-0.0682 0.48776-0.0858 0.24184-0.0311 0.24943-0.0375 0.24313-0.20494l-0.0065-0.17288-0.83659 0.24456c-0.46012 0.13451-0.85082 0.25879-0.86821 0.27618-0.0174 0.0174 0.0707 0.0657 0.19575 0.10741 0.20576 0.0686 0.24253 0.067 0.38695-0.0175 0.08777-0.0514 0.26674-0.11748 0.39771-0.14703zm2.0373-0.0339v-0.2922l-0.15875 0.034c-0.08731 0.0187-0.20098 0.0562-0.2526 0.0832-0.08585 0.045-0.08667 0.0564-0.0096 0.13346 0.04635 0.0463 0.12108 0.14045 0.16608 0.20913 0.045 0.0686 0.12075 0.1248 0.16833 0.12471 0.06962-1e-4 0.08652-0.0573 0.08652-0.29235zm-13.683 0.0473c0.21631-0.0462 0.41872-0.11137 0.44979-0.14483 0.03107-0.0334 0.1955-0.22138 0.36538-0.41762l0.30888-0.3568-0.14711-0.38348c-0.08091-0.21092-0.15186-0.39086-0.15768-0.39985-0.0058-9e-3 -0.14185 0.0218-0.30232 0.0685-0.16046 0.0466-0.62857 0.11673-1.0402 0.15574-0.41167 0.039-0.75592 0.0796-0.76501 0.0903-0.02522 0.0295 0.47675 1.2489 0.57739 1.4025 0.06606 0.10081 0.11749 0.12674 0.20303 0.10232 0.06302-0.018 0.29155-0.0705 0.50786-0.11669zm10.743-0.10644c0.55736-0.14833 1.0773-0.30584 1.914-0.57982l0.56228-0.18412 0.0547-0.27563c0.03009-0.15159 0.04765-0.28286 0.03903-0.29169-0.0086-9e-3 -0.57201 0.19019-1.252 0.44227-0.67997 0.25209-1.403 0.51781-1.6067 0.5905-0.44853 0.16002-0.46507 0.174-0.41973 0.35463 0.02612 0.10406 0.0594 0.13408 0.12199 0.11005 0.04734-0.0182 0.31122-0.093 0.5864-0.16619zm-11.603 0.0738c-0.01547-0.0364-0.11541-0.28046-0.22207-0.5424-0.10666-0.26193-0.22933-0.55175-0.2726-0.64402l-0.07866-0.16778-0.51396 3e-3c-0.39489 2e-3 -0.60291-0.025-0.8979-0.11814l-0.38393-0.12117-0.18286 0.17723c-0.10058 0.0975-0.1828 0.21424-0.18272 0.25947 7.9e-5 0.0452 0.08938 0.18482 0.19844 0.31022 0.19223 0.22103 0.2258 0.23593 1.0979 0.48737 0.49477 0.14265 1.0067 0.29368 1.1377 0.33562 0.30687 0.0983 0.33454 0.10016 0.30068 0.0206zm5.94-0.10816c-0.29163-0.22028-4.0319-1.6288-4.1121-1.5485-0.02136 0.0214 0.18126 0.59178 0.2341 0.659 0.0091 0.0115 0.10626-0.0378 0.216-0.10953 0.34701-0.22699 0.35167-0.22655 1.1471 0.11026 1.5121 0.64031 2.44 0.99487 2.4885 0.95091 0.02716-0.0246 0.03907-0.0526 0.02646-0.0622zm9.4187-0.0714c-0.19768-0.21547-0.712-0.53167-0.93188-0.57292-0.14357-0.0269-0.29423-4e-3 -0.55093 0.0832l-0.35332 0.12029 0.23214 0.15376c0.23151 0.15334 0.2328 0.15353 0.4797 0.0694 0.35624-0.12139 0.45082-0.10676 0.65204 0.10085 0.14591 0.15055 0.21891 0.1852 0.39002 0.1852h0.21051zm-9.3748-0.13602c-0.02683-0.0805-1.7644-0.96014-2.549-1.2904-1.4036-0.59083-2.6733-0.96201-3.802-1.1114-1.151-0.1524-2.352-0.0371-3.0557 0.2933-0.13097 0.0615-0.19794 0.10058-0.14882 0.0868 0.62698-0.17523 1.8278-0.20093 2.7682-0.0593 1.6651 0.25087 3.8571 0.92493 5.9517 1.8302 0.74123 0.32036 0.87184 0.35956 0.83556 0.25072zm10.542-0.12853c0.08625-0.0769 0.14561-0.15786 0.13191-0.18003-0.0137-0.0222-0.19278-0.0913-0.39794-0.15361-0.20517-0.0623-0.38689-0.14941-0.40383-0.19355-0.0181-0.0472 0.03198-0.14674 0.1216-0.24172l0.1524-0.16149-0.15875 0.0302c-0.08731 0.0166-0.29567 0.0458-0.46302 0.0649-0.16735 0.019-0.30427 0.0503-0.30427 0.0694s0.07854 0.0771 0.17453 0.12878c0.09599 0.0517 0.35198 0.2458 0.56886 0.43134 0.21688 0.18555 0.40048 0.33917 0.40801 0.34138 0.0075 2e-3 0.08426-0.0589 0.1705-0.13571zm-5.0978-0.10136c0.06243-0.0393 0.24102-0.188 0.39688-0.33044 1.6079-1.4696 3.3801-2.7493 4.7804-3.4518 0.85332-0.42813 1.4443-0.64022 2.1176-0.76003l0.42334-0.0753-0.47625-4e-3c-1.8678-0.0159-4.1282 1.2552-6.5831 3.7021-0.91061 0.90763-1.0547 1.0715-0.90462 1.0287 0.07276-0.0207 0.18337-0.0698 0.2458-0.10916zm1.9561-0.69726 0.79957-0.29828 0.03082-0.58412c0.01694-0.32126 0.02551-0.58942 0.01904-0.5959-0.0065-6e-3 -0.35682 0.26676-0.77854 0.60719-0.8095 0.65346-0.87345 0.70661-1.254 1.0423-0.13197 0.11642-0.30207 0.26618-0.378 0.33281-0.15463 0.13567-0.14676 0.13313 1.5611-0.50399zm2.225-0.14899c0.28045-0.0451 0.54039-0.0703 0.57765-0.0561 0.14427 0.0554 0.19244-0.13503 0.22911-0.90556 0.02046-0.43007 0.03273-0.78913 0.02726-0.79791-0.0055-9e-3 -0.34246 0.069-0.74884 0.17294-0.40639 0.10389-0.87051 0.19441-1.0314 0.20116l-0.2925 0.0122-0.03305 0.31203c-0.01818 0.17163-0.03304 0.43532-0.03304 0.58601v0.27397l0.33073 0.13504c0.4107 0.16769 0.36296 0.16445 0.97407 0.0661zm-15.683-0.24079c0.25545-0.0838 0.55101-0.19676 0.65681-0.25104l0.19235-0.0987-0.39222-0.0888c-1.1069-0.25068-2.2239-0.37133-2.9468-0.31827-0.27004 0.0198-0.50205 0.0539-0.51558 0.0758-0.0473 0.0766 0.41393 0.43459 0.78979 0.61309 0.66486 0.31574 1.3921 0.33802 2.2156 0.0679zm0.88492 0.0347c0.27649-0.0417 0.55981-0.097 0.62959-0.12282 0.11313-0.0419 0.09174-0.0569-0.19733-0.13795l-0.32421-0.091-0.43767 0.21359c-0.49304 0.24062-0.45512 0.25651 0.32962 0.13815zm17.251-1.2068c0.40976-0.30127 0.4582-0.35605 0.54425-0.61553 0.08799-0.26531 0.08845-0.29146 0.0068-0.38166-0.04819-0.0533-0.16626-0.12277-0.26236-0.15449-0.16099-0.0531-0.19442-0.0426-0.42491 0.13329-0.3179 0.24267-0.55006 0.36052-0.99039 0.50277-0.41 0.13247-0.39044 0.0835-0.42477 1.0637l-0.02151 0.61423 0.56154-0.41582c0.30884-0.2287 0.76394-0.56463 1.0113-0.74651zm-2.6194-0.21559c0.38882-0.0926 0.44225-0.11635 0.29104-0.12956-0.10186-9e-3 -0.31108-0.0384-0.46491-0.0656-0.27064-0.0478-0.28821-0.0433-0.5424 0.13933-0.14448 0.1038-0.26269 0.19986-0.26269 0.21347 0 0.0396 0.46391-0.0351 0.97896-0.15768zm1.1963-0.32798c0.57233-0.1204 1.0229-0.3623 1.4237-0.76434 0.18956-0.19014 0.41061-0.46943 0.49121-0.62063l0.14654-0.27492-0.38538 0.10514c-0.85584 0.23348-1.4567 0.50501-2.5491 1.152-0.63446 0.37575-0.67141 0.4063-0.52916 0.43738 0.29109 0.0636 1.0207 0.0456 1.4022-0.0346z" stroke-width=".052917"/>
 </g>
</svg>
