<svg fill="#000000" xmlns="http://www.w3.org/2000/svg" xmlns:xlink="http://www.w3.org/1999/xlink" version="1.1" x="0px" y="0px" viewBox="0 0 841.89 595.28" enable-background="new 0 0 841.89 595.28" xml:space="preserve"><g><path d="M117.333,151c2.054-0.248,10.112,18.804,10.805,20.291c7.963,17.075,15.316,34.407,20.157,52.653   c12.434,46.869,15.212,95.57-3.035,141.45c-5.531,13.907-16.895,41.464,6.967,46.392c16.637,3.436,35.185-7.14,50.184-12.887   c17.721-6.79,36.405-11.723,55.401-12.975c9.458-0.623,19.91-0.532,28.487,4.051c7.791,4.163,15.963,12.211,15.634,21.536   c-0.204,5.784-2.725,11.804-5.064,17.007c-0.531,1.18-8.586,14.789-8.87,14.482c4.655,5.042,12.217,7.55,18.868,7.997   c7.463,0.501,17.507-0.693,23.784-4.981c8.119-5.546,9.029-17.239,12.312-25.75c3.225-8.36,6.024-20.358,11.643-27.519   c4.968-6.331,15.283-11.314,22.938-12.932c18.473-3.902,37.626-2.214,56.345-1.737c20.435,0.521,40.891,0.888,61.262,2.712   c41.296,3.698,84.046,10.401,122.662,26.048c10.442,4.23,20.828,8.878,30.428,14.801c9.864,6.087,17.567,6.023,29.058,4.557   c-1.549-3.969-15.326-51.354-17.3-51.195l35.25-2.5c0,0-34-34.75-37.75-37.5c0,0,25-40.25,44-46.5c0,0-10-13.75-50-6.75l31.25-56   c0,0-28-11.75-71.5,2.75L631.5,176c0,0-23.75-5.75-57.75,11c0,0-6.75-26.25,16.75-60.75c0,0-27.75-7.75-64,34   c0,0-5.75-31.25-1.75-53c0,0-34.5,3.75-68.75,41.25c0,0-5.75-30,0.25-55.5c0,0-38,11.75-67.75,44.75c0,0,1.75-34.25,7.5-51.75   c0,0-48.25,9-88.25,69.25c0,0-8.75-15.5,10.25-53.75c0,0-41.75-0.25-72,68.5c0,0-35.75-42.25-57-55.5c0,0-4.75,49.75-11,69.75   C178,184.25,140.167,148.25,117.333,151z"></path><ellipse fill="#000000" cx="214" cy="286" rx="10" ry="9.5"></ellipse><path fill="#000000" d="M235.5,213.5c0,0,23,10,17,30c0,0,20.5-4.5,23-15C275.5,228.5,253,203.5,235.5,213.5z"></path></g></svg>