<svg fill="#E88A51" width="100" height="100" xmlns="http://www.w3.org/2000/svg"><metadata>image/svg+xml</metadata><g><rect fill="none" id="canvas_background" height="402" width="582" y="-1" x="-1"/></g><g><path id="svg_1" d="m91.884,74.732l-15.294,0l0,-51.637c0,-6.04 -4.946,-10.771 -11.262,-10.771l-47.694,0c-6.104,0 -11.263,5.287 -11.263,11.546c0,1.332 1.079,2.411 2.41,2.411l15.294,0l0,50.862c0,6.211 5.053,11.264 11.264,11.264l47.692,0c6.211,0 11.264,-5.053 11.264,-11.264c0,-1.331 -1.079,-2.411 -2.411,-2.411zm-80.246,-53.273c0.952,-2.495 3.313,-4.312 5.996,-4.312c2.807,0 5.199,1.803 6.081,4.312l-12.077,0zm30.141,55.685c0,3.552 -2.889,6.44 -6.44,6.44s-6.441,-2.889 -6.441,-6.44l0,-53.557c0,-2.395 -0.753,-4.614 -2.031,-6.44l38.462,0c3.671,0 6.44,2.558 6.44,5.948l0,51.638l-27.578,0c-1.332,-0.001 -2.412,1.079 -2.412,2.411zm41.252,6.44l-38.457,0c0.836,-1.193 1.446,-2.559 1.768,-4.029l42.662,0c-0.955,2.361 -3.273,4.029 -5.973,4.029z"/><g stroke="null" id="svg_9"><g stroke="null" transform="matrix(0.7411708311966078,0,0,0.7411708311966078,-90.5185203625889,-117.36582522703424) " id="svg_5"><path id="svg_6" d="m171.724029,208.072199l13.7,13.7l1.4,-1.4l-12.1,-12.1c2.7,-0.1 5.3,-1.1 6.6,-1.4c5.1,-1.2 9,-0.8 15.7,3.3l2.2,-2.2c-5.5,-6 -12.3,-8.5 -20.1,-5.8c-1.5,0.6 -6,3 -8.7,2.2c1.9,-1 2.1,-3.4 0.7,-4.8c-1.2,-1.2 -3.1,-1.2 -4.3,0c-1,1 -1.2,2.6 -0.4,3.8c0,0 0,0 0,0l0,0c0.6,2 2.4,4 5.3,4.7z"/><path id="svg_7" d="m207.324029,241.172199c-0.3,-1.6 0.3,-3.9 0.9,-5.5c0.6,-1.8 7.2,-12.4 -4.5,-23.1l0,0l-2.2,2.2l0,0c6.4,9.3 2.9,16.3 2.4,19.3c-0.2,0.6 -0.3,1.3 -0.3,1.9c-0.1,0.3 -0.1,0.7 -0.1,1.1l-12.1,-12.2l-1.4,1.4l13.7,13.7c0.7,3 2.6,4.7 4.8,5.3c0,0 0,0 0,0c1.2,0.6 2.6,0.4 3.6,-0.5c1.2,-1.2 1.2,-3.1 0,-4.3c-1.5,-1.4 -3.9,-0.9 -4.8,0.7z"/><path id="svg_8" d="m209.324029,204.172199l3.1,-1.3l1.5,-5l-5.1,1.5l-1.2,3.1c-37.3,37.3 -19.3,19.2 -31.2,31.1c-0.1,0 -5.1,-0.6 -4.8,-0.5l-1.7,1.7c0.1,0 5,0.6 4.7,0.6l-1.6,1.6c-0.1,0 -5.1,-0.6 -4.8,-0.5l-1.7,1.7c0.1,0 5,0.6 4.7,0.6l-2.6,2.6c-0.5,0.5 -0.5,1.3 0,1.7c0.5,0.5 1.3,0.5 1.8,0l2.6,-2.6c0,0.1 0.6,5 0.6,4.7l1.7,-1.7c0,-0.1 -0.7,-5 -0.6,-4.7l1.7,-1.7c0,0.1 0.6,5 0.6,4.7l1.7,-1.7c0,-0.1 -0.7,-5 -0.6,-4.7c20.3,-20.3 -9.9,9.9 31.2,-31.2z"/></g></g></g></svg>