<svg fill="#DEDEDE" xmlns="http://www.w3.org/2000/svg" xmlns:xlink="http://www.w3.org/1999/xlink" version="1.1" x="0px" y="0px" viewBox="0 0 100 100" enable-background="new 0 0 100 100" xml:space="preserve"><g><g><g><g><g><polygon points="16.1,84.3 15.2,83.4 79.5,19.1 81.7,14.8 77.4,16.9 13,81.3 12.1,80.4 76.6,15.8 84.5,12 80.6,19.8      "></polygon></g></g></g></g><g><g><g><g><path d="M12.3,88C12.3,88,12.3,88,12.3,88c-1.3,0-2.5-0.6-3.2-1.6c-0.6-0.9-0.8-1.9-0.6-2.9c0.2-1,0.7-1.9,1.6-2.5       c0.7-0.5,1.4-0.7,2.2-0.7c1.3,0,2.5,0.6,3.2,1.7c1.2,1.8,0.8,4.2-1,5.4C13.9,87.7,13.1,88,12.3,88z M12.3,81.5       c-0.5,0-1,0.2-1.5,0.5c-0.6,0.4-0.9,1-1.1,1.7c-0.1,0.7,0,1.4,0.4,1.9c0.5,0.7,1.3,1.1,2.1,1.1c0,0,0,0,0,0       c0.5,0,1-0.1,1.5-0.5c1.2-0.8,1.5-2.4,0.6-3.6C14,81.9,13.2,81.5,12.3,81.5z"></path></g></g></g></g><g><g><g><g><rect x="20.9" y="65.8" transform="matrix(0.7071 0.7071 -0.7071 0.7071 58.6489 5.2097)" width="4.2" height="15.1"></rect></g></g></g></g><g><g><g><g><path d="M37.9,31.6l0.7-2.2c0.9-2.7,2.4-5.2,4.4-7.2c2.9-2.9,6.6-4.7,10.6-5.1c3.8-0.4,7.7,0.4,11,2.3c0.9-0.5,1.8-1,2.8-1.3       l0.7-0.3l0.2,0.7c0.4,1.7,1.1,3.4,2,4.9L69.1,24c-0.9-1.4-1.5-3-1.9-4.6c-0.8,0.3-1.5,0.7-2.2,1.1l-0.3,0.2l-0.3-0.2       c-6.6-4-15-3-20.4,2.5c-1.4,1.4-2.4,2.9-3.2,4.6c2.3-1.5,4.9-2.5,7.7-2.9c3.5-0.5,7,0.1,10.2,1.7c1.8,0.9,3.4,2,4.8,3.4       l-0.9,0.9c-1.3-1.3-2.8-2.4-4.5-3.2c-6.1-3-13.3-2-18.3,2.5L37.9,31.6z"></path></g></g></g></g><g><g><g><g><path d="M84.8,45.9L83.9,45c2.8-2.8,4.3-6.6,4.2-10.5c-2.5,0.5-5.2,0.4-7.8-0.1l0.3-1.3c2.6,0.6,5.4,0.5,8,0l0.7-0.2l0.1,0.7       C89.7,38.2,88,42.7,84.8,45.9z"></path></g></g></g></g><g><g><g><g><path d="M73.7,52.7c-1.3,0-2.6-0.1-3.9-0.4L69,52.1l0.3-0.7c1-2.6,1.3-5.5,0.9-8.3c-0.5-3.6-2.1-6.8-4.7-9.4l0.9-0.9       c2.8,2.8,4.5,6.2,5.1,10.1c0.4,2.8,0.1,5.6-0.7,8.3c5.3,0.9,10.8-0.8,14.6-4.6c3.9-3.9,5.6-9.3,4.6-14.7c-3,1-6.1,1.1-9.2,0.5       c-3.4-0.7-6.5-2.4-9-4.9l0.9-0.9c4.6,4.6,11.4,6.1,17.5,3.8l0.7-0.3l0.2,0.7c0.7,2.9,0.6,5.9-0.2,8.8c-0.8,2.9-2.4,5.7-4.6,7.8       C82.9,50.8,78.4,52.7,73.7,52.7z"></path></g></g></g></g><g><g><g><g><rect x="67.2" y="26.5" transform="matrix(0.7071 0.7071 -0.7071 0.7071 39.5168 -41.1299)" width="4.3" height="1.3"></rect></g></g></g></g><g><g><g><g><rect x="65.7" y="28" transform="matrix(0.7071 0.7071 -0.7071 0.7071 40.1797 -39.616)" width="4.4" height="1.3"></rect></g></g></g></g><g><g><g><g><rect x="64.2" y="29.5" transform="matrix(0.7071 0.7071 -0.7071 0.7071 40.7819 -38.077)" width="4.3" height="1.3"></rect></g></g></g></g></g></svg>
