<svg xmlns="http://www.w3.org/2000/svg" xmlns:xlink="http://www.w3.org/1999/xlink" version="1.1" x="0px" y="0px" viewBox="0 0 100 100" style="enable-background:new 0 0 100 100;" xml:space="preserve"><g><g><path fill="#887766" d="M65.3,73.2l-1.5-35.6c1.1-2.1,1.8-4.2,2.1-4.8c0,0-0.3-5.6-2.3-8.9l0.9-0.1c0,0,0.6,0.2,0.7-0.7    c0-0.5-0.2-0.8-0.4-0.9l0.1,0c0,0,0.8-0.1,0.7-1c0-0.4-0.2-0.6-0.3-0.7c0.1,0,0.6-0.2,0.5-1.1c-0.1-0.7-1-0.7-1-0.7l-0.1,0    c0.1-0.1,0.2-0.3,0.2-0.6c0-1-0.7-1-0.7-1L63,17.2l-0.2-4.9c0.8-0.1,0.8-0.3,0.8-0.4c0-0.2,0-0.3-0.5-0.3c0.3-0.3,0.5-0.7,0.4-1.3    c0-0.5-0.1-1-0.3-1.4c0.3-0.6,0.4-1.2,0.4-2c-0.1-1.8-1.2-3.1-2.4-3.1c-1.3,0.1-2.3,1.5-2.2,3.3c0,0.7,0.2,1.4,0.6,1.9    c-0.2,0.4-0.3,0.9-0.2,1.4c0,0.6,0.2,1,0.5,1.3c-0.4,0.1-0.4,0.2-0.4,0.4c0,0.2,0.1,0.3,0.8,0.4l0.2,5.6c-0.6,0.4-1.7,1.4-1.7,2.4    c0,0.3,0.8,1.2,1.4,1.8c-0.7,1.7-2.9,7.3-3.3,7.3c0,0-1.2-2.5-2.1-5.9c-0.8-3-1.2-3.7-4.7-3.8c-3-0.1-6.5,0-10,0    c-2.6,0-5-0.1-6.7,0.8c-3,1.7-3.1,4.6-2.7,7.1c0.2,1.4,0.7,4.6,1.3,8.3c0.3,2.1,0.7,4.9,1.5,6.8c-0.1,0.6-0.2,1.2-0.3,1.8    c-0.8,4.4-7.6,36-8.8,41.7c-1.1,5.6-3.1,8.5-2.5,9.3c0.6,0.8,5.1,2.5,8.6,2.1c3.5-0.4,8.2-1.5,14.5,0.5c6.3,2,12.3,1.1,15.9,0.4    c1-0.2,2-0.5,2.9-0.8l0,0.5c0,0.5,0.5,0.9,1,0.9l0.8,0c0.5,0,0.9-0.5,0.9-1l-0.1-1.3c1.1-0.4,2.1-0.7,2.9-0.8    c1.9-0.1,4.2,0.6,5.8,0.9c1.6,0.3,3.3-0.8,3.3-0.8S71.4,84.2,65.3,73.2z M51.5,30.9c-1,1.3-1.5,2.6-2.2,4.1    c-0.3,0.6-0.7,1.2-1.1,1.7c-0.5,0.6-1.1,0.9-1.8,1.1c-0.1,0-0.7,0.1-1.3,0.2c-2.1,0.3-4.9-0.6-5.3-0.9c-0.2-0.2-1.1-0.7-1.4-2.5    c-0.1-0.9,0-2.7,0-3.6c-0.1-1.2-0.3-3.7-0.4-4.3c0-0.4,0-0.6,0.3-0.7c0.3-0.1,0.5-0.1,0.8,0.1c0.2,0.2,0.2,0.3,0.2,0.6    c0.1,0.9,0.4,3.2,0.5,3.4c0,0.2,0,0.3,0.2,0.3c0.2,0,0.3-0.1,0.3-0.3c0-0.5,0-4.9,0-5.4c0-0.4,0-0.7,0.3-0.9    c0.6-0.4,1.2,0,1.2,0.7c0,0.8,0.3,4,0.3,4.8c0,0,0,0.1,0,0.1c0,0.2,0.2,0.3,0.3,0.3c0.1,0,0.2-0.2,0.2-0.4c0-0.6,0.1-5,0.1-5.9    c0-0.1,0-0.2,0-0.3c0.1-0.4,0.2-0.7,0.5-0.8c0.4-0.1,0.7,0,0.8,0.2c0.1,0.2,0.2,0.7,0.2,0.9c0,0.5,0.2,5.2,0.2,5.8    c0,0.1,0.1,0.3,0.2,0.4c0.1,0.1,0.4,0,0.4-0.2c0-0.2,0.4-4.8,0.4-5c0-0.7,0.3-1,0.9-0.9c0.4,0.1,0.5,0.5,0.6,0.9    c0,0.4-0.1,3.7-0.1,4.4c0,1,0,1,0,2.6c0,0.2,0,1.1,0.5,1c0.1,0,0.3-0.2,0.4-0.3c0.6-1.1,1.2-1.7,2.2-2.4c0.3-0.2,0.6-0.4,1-0.4    c0.5-0.1,1,0.3,1.1,0.8C52,30.4,51.7,30.7,51.5,30.9z M56.3,56.3c-1.6-3.6-2.6-13.9-2.6-13.9c0.6,0.7,1.7,1.7,2.6,1.8    c1.6,0.1,3.3-1.2,4.2-1.9c0.3-0.3,0.6-0.5,0.9-0.9L62.4,68C59.6,62.8,57.2,58.4,56.3,56.3z"/><path fill="#775544" d="M27.3,14.1c2.3,0.2,4.7-4.3,6.6-4.2c0.5,0,0.5,1.9,0.4,2.9l-4.5,1.5c-0.3,0.1-0.4,0.4-0.3,0.7l0,0.2    c0.1,0.3,0.4,0.5,0.7,0.4l6-2c0.4,3.2,3,5.7,6,5.7c3.4,0,6.1-2.9,6.1-6.6c0-1.1-0.2-2-0.6-2.9l5.4-1.8c0.3-0.1,0.4-0.5,0.3-0.7    c-0.1-0.2-0.4-0.4-0.6-0.3l-4.1,1.3C48.3,7.8,46.5,6,44,3.8c-3.2-2.8-6.9-3.3-7.4-3.1C32.2,3.1,26.8,14.1,27.3,14.1z"/></g></g></svg>