<svg fill="#5d5b5b" xmlns="http://www.w3.org/2000/svg" xmlns:xlink="http://www.w3.org/1999/xlink" version="1.1" x="0px" y="0px" viewBox="0 0 100 100" style="enable-background:new 0 0 100 100;" xml:space="preserve"><g><g><path d="M44.1,50.2c-0.5,0-1.6-0.3-4.8-2.3c-0.3-0.2-0.5-0.6-0.4-1L41,34.4l-2.1-7.2c-0.1-0.2-0.1-0.4,0-0.7    c4.1-10.1,4.5-10,5.3-10c0,0,0,0,0.1,0l6.3,0.8c0.1,0,0.3,0.1,0.4,0.1l18.7,11.2l8.5,1.3c0.1,0,0.2,0.1,0.3,0.1l7.3,4    c0.2,0.1,0.4,0.4,0.5,0.6c0.1,0.3,0,0.6-0.1,0.8l-3.8,6c-0.2,0.2-0.4,0.4-0.7,0.5l-14.4,1.9c-1.6,0.4-22.1,6.2-22.8,6.3    C44.3,50.2,44.2,50.2,44.1,50.2z M44.1,48.2L44.1,48.2L44.1,48.2z M40.9,46.5c1.3,0.8,2.6,1.5,3.1,1.7c1.6-0.4,15.3-4.2,22.7-6.3    c0,0,0.1,0,0.1,0L80.9,40l3-4.7L77.7,32l-8.5-1.3c-0.1,0-0.3-0.1-0.4-0.1L50.2,19.3l-5.6-0.7c-0.7,1.2-2.3,4.9-3.7,8.3l2.1,7.1    c0,0.1,0.1,0.3,0,0.4L40.9,46.5z"></path></g><g><path d="M22.6,82.7c-0.8,0-1.7-0.2-2.4-0.7l-7.1-4.7c-1.4-1-2.2-2.7-1.9-4.4l0.7-3.7c0-0.3,0-0.6,0-0.8L10,58.2    c-0.1-0.7-0.1-1.4,0.1-2.1l5.6-17.5c0.3-1,1-1.9,2-2.4l8-4.5c0.3-0.1,0.5-0.3,0.7-0.6l3.5-4.4c0.3-0.3,0.6-0.6,0.9-0.8l12.8-9.1    c0.5-0.3,1.1-0.2,1.4,0.2c0.3,0.5,0.2,1.1-0.2,1.4L32,27.4c-0.2,0.1-0.3,0.3-0.5,0.5L28,32.3c-0.3,0.4-0.8,0.8-1.3,1.1l-8,4.5    c-0.5,0.3-0.9,0.7-1.1,1.3l-5.6,17.5c-0.1,0.4-0.1,0.8-0.1,1.1L13.9,68c0.1,0.5,0.1,1,0,1.5l-0.7,3.7c-0.2,0.9,0.2,1.8,1,2.3    l7.1,4.7c0.5,0.3,1.1,0.5,1.7,0.4l22.4-3.9c0.3-0.1,0.7-0.2,0.9-0.4L65,63.2c0.4-0.3,0.8-0.4,1.2-0.6l19.3-6.2    c1.1-0.3,1.8-1.4,1.6-2.5l-2.7-18.8c-0.1-0.5,0.3-1.1,0.8-1.1c0.5-0.1,1.1,0.3,1.1,0.8l2.7,18.8c0.3,2.1-0.9,4.1-3,4.7l-19.3,6.2    c-0.2,0.1-0.4,0.2-0.6,0.3L47.4,78.1c-0.5,0.4-1.1,0.6-1.8,0.7l-22.4,3.9C23.1,82.7,22.8,82.7,22.6,82.7z"></path></g><g><path d="M12.9,70.4c-0.3,0-0.6-0.1-0.8-0.4c-0.4-0.4-0.3-1.1,0.1-1.4l26.9-22.4c0.4-0.4,1.1-0.3,1.4,0.1c0.4,0.4,0.3,1.1-0.1,1.4    L13.5,70.2C13.3,70.3,13.1,70.4,12.9,70.4z"></path></g><g><path d="M46.9,78.2c-0.5,0-0.9-0.4-1-0.9l-2.7-28.1c-0.1-0.5,0.4-1,0.9-1.1c0.5-0.1,1,0.4,1.1,0.9l2.7,28.1    C47.9,77.7,47.5,78.2,46.9,78.2C46.9,78.2,46.9,78.2,46.9,78.2z"></path></g></g></svg>
