<svg xmlns="http://www.w3.org/2000/svg" xmlns:xlink="http://www.w3.org/1999/xlink" version="1.1" x="0px" y="0px" viewBox="26 25.5 76 76" enable-background="new 0 0 128 128" xml:space="preserve"><path fill="#dd2244" d="M74.87,33.754l-2.366,0.466c-1.118,0.941-2.454,1.73-4.023,2.207c-2.398,0.73-3.809,1.479-4.698,2.232  c1.553-0.419,3.512-0.748,5.841-0.748c1.014,0,2.058,0.064,3.1,0.188c2.636,0.314,4.434,0.461,5.657,0.461  c1.563,0,1.912-0.209,2.609-0.628l0.404-0.241l2.011-1.272C79.053,33.616,74.87,33.754,74.87,33.754z"/><path fill="#339911" d="M46.982,51.457c-3.139,1.395-6.277,7.905-6.857,11.741c-0.582,3.835,3.021,10.81,3.021,10.81  c0.234-2.093,1.28-9.881,3.836-11.974c2.17-1.773,4.916-7.877,5.704-9.697c-0.448,1.568-0.645,5.768,0.459,7.374  c1.278,1.859,8.718,9.066,8.718,9.066s-2.209-11.507-1.512-14.53c0.697-3.021-1.046-6.741-1.046-6.741  c0.929-0.582,4.533-3.139,11.739-3.256c7.209-0.116,11.045-5.346,11.045-5.346c-1.629,0.93-1.744,1.51-9.533,0.582  c-7.789-0.931-12.205,2.092-12.205,2.092c1.046-1.861,0.929-4.417,7.723-6.484c6.792-2.068,8.435-10.488,7.154-9.093  c-0.07,0.079-3.529,2.411-8.117,3.836c-4.863,1.512-9.433,4.998-9.433,4.998c-0.234-2.674,3.719-8.136,3.719-8.136  s-4.882,3.836-7.672,5.928c-2.072,1.554-3.437,5.733-4.002,7.782c0.89,2.46,2.256,4.841,4.37,6.521  c0.401,0.349,0.743,0.923,0.654,1.617c-0.06,0.466-0.329,1.119-1.27,1.59c-0.458,0.229-1.027,0.34-1.741,0.34  c-0.96,0-1.901-0.203-2.005-0.226l-0.5-0.112l-0.309-0.408c-0.208-0.275-3.563-4.776-5.464-10.451  c-2.065-0.286-3.799-0.26-3.799-0.26c1.512,4.766,3.836,6.858,3.836,6.858s-5.114,0.233-8.833,3.487  c-3.721,3.255-5.116,10.85-5.116,10.85s4.882-3.643,7.672-5.154C40.008,53.549,46.982,51.457,46.982,51.457z"/><path fill="#54bb22" d="M52.854,48.888c0.866-0.433,0.372-0.866,0.372-0.866c-7.217-5.732-6.503-18.456-6.503-18.456  c-1.24-1.238-3.096,1.177-3.096,1.177c-0.805,8.609,6.408,18.146,6.408,18.146S51.984,49.322,52.854,48.888z"/><path fill="#dd2244" d="M96.012,73.359c-3.947-6.484-2.96-13.145-2.96-13.145c0.069-13.15-4.212-19.758-8.637-23.087l-1.201,2.602  c-0.175,0.236-4.336,5.79-12.146,5.916c-5.278,0.086-8.46,1.533-10.035,2.434c0.521,1.479,1.224,4.115,0.677,6.483  c-0.46,1.991,0.689,9.616,1.521,13.953l0.833,4.338l-3.174-3.073c-0.772-0.749-7.578-7.359-8.896-9.279  c-0.364-0.53-0.616-1.206-0.783-1.951c-1.063,1.907-2.238,3.659-3.344,4.565c-1.599,1.308-2.826,6.49-3.333,11.048l-0.51,4.579  l-2.115-4.095c-0.391-0.755-3.795-7.497-3.163-11.66c0.36-2.372,1.61-5.717,3.327-8.443c-1.116,0.401-2.216,0.826-3.125,1.23  c-2.071,3.41-2.694,10.394-2.694,10.394C34,81.532,48.657,88.016,51.757,89.002c3.101,0.986,8.033,1.831,21.985,9.16  c13.953,7.328,20.577-1.973,22.27-3.804C97.702,92.525,99.958,79.84,96.012,73.359z M39.926,76.745  c-0.619,0.186-1.387-0.64-1.716-1.844c-0.33-1.207-0.095-2.335,0.523-2.521c0.62-0.188,1.39,0.641,1.718,1.845  C40.78,75.43,40.546,76.558,39.926,76.745z M46.865,77.154c0.46-0.461,1.55-0.117,2.433,0.768c0.882,0.883,1.226,1.976,0.765,2.436  c-0.46,0.458-1.55,0.117-2.433-0.768C46.748,78.704,46.405,77.614,46.865,77.154z M52.188,86.6c-0.46,0.46-1.55,0.117-2.433-0.769  s-1.226-1.976-0.766-2.436s1.55-0.117,2.433,0.769C52.305,85.049,52.648,86.139,52.188,86.6z M52.838,68.983  c-0.602,0.248-1.475-0.49-1.951-1.646c-0.477-1.157-0.375-2.296,0.228-2.544c0.602-0.248,1.475,0.49,1.951,1.647  C53.542,67.597,53.44,68.735,52.838,68.983z M54.729,74.993c-0.478-1.154-0.375-2.294,0.228-2.541  c0.602-0.248,1.475,0.49,1.951,1.646c0.476,1.157,0.375,2.296-0.228,2.544S55.205,76.151,54.729,74.993z M58.806,86.6  c-0.46,0.46-1.55,0.117-2.433-0.769c-0.883-0.886-1.226-1.976-0.766-2.436s1.55-0.117,2.433,0.769  C58.923,85.049,59.267,86.139,58.806,86.6z M83.687,41.198c0.466-0.192,1.23,0.59,1.705,1.747c0.476,1.158,0.484,2.25,0.019,2.442  c-0.467,0.192-1.23-0.59-1.706-1.748C83.228,42.483,83.221,41.391,83.687,41.198z M79.954,50.241  c0.601-0.248,1.476,0.489,1.951,1.646c0.475,1.158,0.373,2.295-0.229,2.543c-0.601,0.248-1.475-0.489-1.95-1.647  C79.25,51.626,79.352,50.488,79.954,50.241z M65.938,82.129c-0.601,0.245-1.476-0.49-1.951-1.648  c-0.476-1.155-0.374-2.294,0.229-2.542c0.601-0.248,1.475,0.49,1.95,1.646C66.642,80.742,66.539,81.881,65.938,82.129z   M65.938,55.166c-0.601,0.248-1.476-0.489-1.951-1.646c-0.476-1.157-0.374-2.294,0.229-2.542c0.601-0.248,1.475,0.489,1.95,1.646  C66.642,53.781,66.539,54.918,65.938,55.166z M67.411,67.338c-0.476-1.157-0.375-2.296,0.229-2.544  c0.601-0.248,1.476,0.49,1.951,1.647c0.476,1.155,0.373,2.294-0.229,2.542C68.761,69.231,67.887,68.493,67.411,67.338z   M71.488,92.078c-0.461,0.458-1.549,0.117-2.432-0.769c-0.884-0.885-1.226-1.975-0.766-2.436c0.459-0.46,1.549-0.117,2.432,0.769  C71.605,90.525,71.948,91.618,71.488,92.078z M72.73,46.986c0.604-0.248,1.477,0.49,1.952,1.647  c0.476,1.156,0.374,2.295-0.228,2.543c-0.603,0.247-1.476-0.49-1.951-1.647C72.027,48.373,72.13,47.234,72.73,46.986z   M75.343,79.984c-0.602,0.248-1.475-0.49-1.95-1.646c-0.477-1.157-0.375-2.297,0.228-2.544c0.602-0.248,1.476,0.49,1.95,1.647  C76.046,78.598,75.945,79.736,75.343,79.984z M75.343,60.167c-0.602,0.248-1.475-0.489-1.95-1.647  c-0.477-1.157-0.375-2.294,0.228-2.542c0.602-0.248,1.476,0.489,1.95,1.646C76.046,58.781,75.945,59.919,75.343,60.167z   M77.16,69.479c-0.476-1.155-0.373-2.294,0.229-2.542s1.476,0.49,1.951,1.646c0.476,1.158,0.373,2.297-0.229,2.545  C78.51,71.373,77.636,70.638,77.16,69.479z M78.659,86.245c-0.695-1.041-0.815-2.177-0.272-2.536c0.54-0.362,1.542,0.19,2.233,1.231  c0.692,1.043,0.814,2.18,0.272,2.539C80.352,87.839,79.351,87.289,78.659,86.245z M82.828,96.862  c-0.46,0.46-1.552,0.117-2.433-0.769c-0.883-0.886-1.226-1.975-0.766-2.436c0.461-0.46,1.55-0.117,2.433,0.769  C82.945,95.312,83.289,96.401,82.828,96.862z M82.314,62.805c-0.477-1.156-0.374-2.294,0.228-2.542  c0.603-0.248,1.476,0.489,1.951,1.646c0.476,1.158,0.374,2.295-0.228,2.543C83.663,64.7,82.789,63.963,82.314,62.805z   M86.355,80.928c-0.603,0.245-1.477-0.491-1.951-1.648c-0.476-1.155-0.373-2.294,0.229-2.542s1.476,0.49,1.951,1.646  C87.06,79.541,86.957,80.68,86.355,80.928z M86.355,51.571c-0.603,0.248-1.477-0.489-1.951-1.647  c-0.476-1.156-0.373-2.293,0.229-2.542s1.476,0.489,1.951,1.646C87.06,50.186,86.957,51.324,86.355,51.571z M88.157,54.669  c0.688-0.283,1.631,0.425,2.104,1.582c0.476,1.158,0.306,2.325-0.384,2.607c-0.686,0.282-1.63-0.426-2.104-1.583  C87.298,56.119,87.47,54.95,88.157,54.669z M88.05,66.041c0.601-0.248,1.475,0.49,1.95,1.646c0.476,1.158,0.373,2.297-0.229,2.545  c-0.601,0.245-1.476-0.49-1.951-1.648C87.346,67.428,87.447,66.289,88.05,66.041z M90.521,97.146  c-0.542,0.359-1.543-0.19-2.235-1.234c-0.691-1.04-0.814-2.177-0.272-2.539c0.542-0.359,1.544,0.193,2.235,1.234  C90.94,95.649,91.063,96.786,90.521,97.146z M91.161,88.621c-0.603,0.248-1.476-0.49-1.951-1.646  c-0.477-1.158-0.374-2.297,0.228-2.545c0.603-0.248,1.476,0.49,1.949,1.648C91.863,87.234,91.763,88.373,91.161,88.621z   M94.836,83.172c-0.635,0.158-1.391-0.7-1.689-1.915c-0.298-1.215-0.024-2.326,0.612-2.484c0.635-0.155,1.392,0.703,1.688,1.915  C95.746,81.905,95.473,83.017,94.836,83.172z"/></svg>