<svg fill="#C82606" xmlns="http://www.w3.org/2000/svg" xmlns:xlink="http://www.w3.org/1999/xlink" version="1.1" x="0px" y="0px" viewBox="0 0 100 100" enable-background="new 0 0 100 100" xml:space="preserve"><circle fill="#C82606" cx="30.839" cy="48.248" r="2.433"></circle><circle fill="#C82606" cx="39.965" cy="62.851" r="2.434"></circle><path fill="#C82606" d="M14.981,59.595c4.743,23.262,32.43,38.238,36.085,38.238c4.949,0,31.572-12.822,36.076-38.191  c1.679-9.451,0.098-17.143-4.697-22.861c-1.562-1.861-3.479-3.496-5.708-4.907c-0.365,0.929-0.925,1.606-1.462,2.075  c-4.047,3.54-13.908,1.447-17.471,0.584c-2.303,2.709-4.912,3.981-7.771,3.981c-0.014,0-0.029,0-0.042,0  c-4.075,0-7.418-2.748-9.036-4.439c-9.223,4.695-14.731,1.018-17.04-1.312c-1.814,1.287-3.406,2.732-4.726,4.348  C14.521,42.827,13.106,50.393,14.981,59.595z M50.917,83.536c-3.354,0-6.086-2.729-6.086-6.082c0-3.356,2.732-6.087,6.086-6.087  c3.354,0,6.083,2.73,6.083,6.087C57,80.808,54.271,83.536,50.917,83.536z M70.993,42.165c3.355,0,6.085,2.731,6.085,6.085  c0,3.354-2.729,6.083-6.085,6.083c-3.353,0-6.085-2.729-6.085-6.083C64.908,44.896,67.641,42.165,70.993,42.165z M61.868,56.767  c3.354,0,6.083,2.731,6.083,6.085c0,3.355-2.729,6.083-6.083,6.083c-3.355,0-6.086-2.728-6.086-6.083  C55.782,59.498,58.513,56.767,61.868,56.767z M50.917,42.165c3.354,0,6.083,2.731,6.083,6.085c0,3.354-2.729,6.083-6.083,6.083  c-3.354,0-6.086-2.729-6.086-6.083C44.831,44.896,47.563,42.165,50.917,42.165z M46.049,62.852c0,3.355-2.729,6.083-6.083,6.083  c-3.354,0-6.084-2.728-6.084-6.083c0-3.354,2.73-6.085,6.084-6.085C43.32,56.767,46.049,59.498,46.049,62.852z M30.839,42.165  c3.355,0,6.084,2.731,6.084,6.085c0,3.354-2.729,6.083-6.084,6.083c-3.354,0-6.085-2.729-6.085-6.083  C24.754,44.896,27.484,42.165,30.839,42.165z"></path><circle fill="#C82606" cx="50.917" cy="48.248" r="2.433"></circle><path fill="#C82606" d="M50.917,75.019c-1.342,0-2.436,1.093-2.436,2.436c0,1.341,1.094,2.433,2.436,2.433  c1.343,0,2.434-1.092,2.434-2.433C53.351,76.111,52.26,75.019,50.917,75.019z"></path><path fill="#C82606" d="M40.459,30.299l1.396-0.794l0.971,1.165c0.03,0.041,3.338,4.193,7.164,4.193c0.013,0,0.025,0,0.025,0  c1.979,0,3.87-1.105,5.631-3.482l0.747-0.945l1.206,0.366c4.956,1.372,12.972,2.406,15.277,0.382  c0.244-0.216,0.492-0.542,0.572-1.119c-5.938-2.824-13.546-4.324-22.35-4.328l1.789-0.109C52.852,24.99,52.169,9.904,67.92,4.653  l-1.156-3.461C48.891,7.15,49.195,24.52,49.241,25.781c-8.835,0.211-16.404,1.946-22.193,5.05  C28.975,32.523,33.149,34.507,40.459,30.299z"></path><path fill="#C82606" d="M70.993,50.682c1.343,0,2.436-1.09,2.436-2.432c0-1.343-1.093-2.435-2.436-2.435  c-1.342,0-2.433,1.092-2.433,2.435C68.561,49.592,69.651,50.682,70.993,50.682z"></path><circle fill="#C82606" cx="61.868" cy="62.851" r="2.434"></circle></svg>