<svg xmlns="http://www.w3.org/2000/svg" xmlns:xlink="http://www.w3.org/1999/xlink" version="1.1" x="0px" y="0px" viewBox="0 0 100 100" enable-background="new 0 0 100 100" xml:space="preserve"><g><path d="M15.625,56.091l-0.024,0.033c0.609-0.447,1.264-0.864,1.967-1.247l0.081-0.037c2.483-0.912,5.084-0.991,7.938-0.244   c1.07-1.256,1.563-2.342,1.468-3.239C23.07,49.639,19.327,51.19,15.625,56.091z"/><path d="M27.848,50.39l0.259,0.122l0.07,0.277c0.313,1.236-0.138,2.64-1.338,4.183c2.438,0.827,5.07,2.249,8.012,4.331   c4.446,0.764,8.106,0.428,11.145-1.024c-5.787-2.598-10.416-6.439-13.774-11.43c-5.125-5.429-10.738-4.532-13.991-2.106   c-2.76,2.056-4.742,5.935-2.982,9.87C19.209,49.746,23.445,48.326,27.848,50.39z"/><path d="M80.129,60.252c-1.8-0.765-4.102-0.31-6.328,0.132c-3.631,0.719-7.745,1.533-9.226-3.695l-0.052-0.185l0.064-0.182   c2.688-7.564,5.979-14.389,8.884-20.411c2.15-4.459,4.015-8.329,5.078-11.394c-1.48-1.631-2.509-3.592-3.044-5.761   c-1.377,4.137-3.01,8.27-4.597,12.286c-1.014,2.564-2.062,5.215-3.021,7.811l-0.083,0.227c-0.699,1.891-1.421,3.846-2.075,5.707   c-0.087,0.249-0.321,0.403-0.57,0.403c-0.067,0-0.135-0.011-0.201-0.034c-0.315-0.111-0.48-0.456-0.369-0.77   c0.657-1.87,1.381-3.83,2.081-5.726l0.083-0.226c0.963-2.61,2.014-5.268,3.03-7.838c1.849-4.677,3.761-9.513,5.248-14.307   c0.017-0.056,0.044-0.105,0.074-0.151c-0.046-0.721-0.04-1.457,0.013-2.203c-1.078,1.101-2.269,1.535-3.356,1.535   c-0.477,0-0.933-0.083-1.351-0.228c-1.93-0.669-3.666-2.849-3.853-6.308c-1.381,1.898-3.567,3.531-6.202,4.559   c1.393,7.332,2.371,16.297-2.351,29.666c-2.846,8.098-5.825,12.722-9.899,15.33c-0.003,0.007-0.004,0.015-0.007,0.023   c-0.096,0.233-0.322,0.373-0.559,0.373c-0.028,0-0.056-0.005-0.084-0.009c-3.484,1.991-7.722,2.514-12.948,1.593l-0.134-0.024   l-0.111-0.079c-3.232-2.299-6.056-3.774-8.635-4.508c-2.73-0.779-5.191-0.745-7.521,0.101c-4.837,2.648-7.296,7.053-6.579,11.791   c0.425,2.807,1.98,5.166,3.976,6.208c-1.098-2.401-1.32-4.547-0.681-6.524c0.926-2.868,3.634-5.243,8.525-7.474l0.636,1.017   c-1.602,1.321-2.209,3.176-1.713,5.221c0.625,2.57,2.829,4.881,5.129,5.378c1.056,0.229,2.583,0.154,3.9-1.477   c0.694-1.743,1.566-2.696,2.667-2.916c1.114-0.222,2.322,0.345,3.686,1.733c4.028,1.229,6.929,0.876,9.117-1.106   c1.622-1.467,2.742-3.708,3.824-5.876c0.335-0.67,0.681-1.364,1.039-2.03l0.88-1.636l0.251,1.841   c0.497,3.639-2.151,6.012-4.711,8.306l-0.407,0.366c-2.74,2.467-4.768,4.632-3.871,8.021c0.529,0.546,1.085,1.047,1.658,1.503   c0.35-1.051,0.945-2.034,1.784-2.932c1.772-1.898,3.618-2.387,5.809-1.541c0.179,0.068,0.306,0.213,0.359,0.384   c1.728,1.315,1.443,4.346,0.909,7.264c1.145,0.043,2.373-0.012,3.736-0.171c4.874-2.978,5.13-8.492,0.784-16.848l1.07-0.562   c1.319,2.49,2.815,4.047,4.567,4.75c2.633-0.753,4.639-0.657,6.127,0.291c1.416,0.901,2.313,2.518,2.738,4.933   c1.757,0.277,3.023,0.061,3.862-0.658c1.447-1.242,1.547-3.963,1.454-6.461l-0.055-1.475l1.074,1.012   c3.923,3.698,4.238,8.248,0.947,13.539c4.102-1.208,7.25-4.064,7.876-7.287C89.248,68.558,86.285,64.191,80.129,60.252z"/><path d="M52.499,75.079c-0.096-0.056-0.17-0.135-0.22-0.225c-1.571-0.503-2.836-0.089-4.179,1.348   c-0.919,0.984-1.497,2.075-1.72,3.244c-0.781,4.108,2.819,8.662,5.785,11.619c-0.137-0.368-0.243-0.73-0.295-1.078   c-0.235-1.555,0.241-3.841,0.744-6.262c0.123-0.594,0.248-1.195,0.363-1.791C53.544,79.02,53.93,75.927,52.499,75.079z"/></g></svg>
