<svg fill="#B5CFC7" xmlns="http://www.w3.org/2000/svg" xmlns:xlink="http://www.w3.org/1999/xlink" version="1.1" x="0px" y="0px" viewBox="0 0 100 100" enable-background="new 0 0 100 100" xml:space="preserve"><path stroke="black" d="M90,38.1c0-5.3-4-9.6-9.1-10.1c0.5-1.2,0.8-2.5,0.8-3.9c0-5.6-4.5-10.1-10.1-10.1c-1.2,0-2.4,0.2-3.5,0.6  C67.9,9.3,63.4,5,58,5c-3.6,0-6.8,1.9-8.6,4.8c-1.8-2.9-5-4.8-8.6-4.8c-5.6,0-10.1,4.5-10.1,10.1c0,0.4,0,0.8,0.1,1.1  c-1.4-0.7-3-1.1-4.6-1.1c-5.6,0-10.1,4.5-10.1,10.1c0,2.2,0.7,4.3,2,6c-4.6,1-8,5-8,9.9c0,3.3,1.6,6.2,4,8c-0.9,1.5-1.4,3.3-1.4,5.1  c0,5.6,4.5,10.1,10.1,10.1c0.8,0,1.6-0.1,2.3-0.3c1.8,2.9,5,4.9,8.7,4.9c2.7,0,5.2-1.1,7-2.8c0.9,1.9,2.3,3.4,4.1,4.5v16l-7.9,7  c-0.5,0.5-0.2,1.3,0.5,1.3h5.8c0.2,0,0.4-0.1,0.5-0.2l3.4-3.4v2.8c0,0.4,0.3,0.7,0.7,0.7h4.6c0.4,0,0.7-0.3,0.7-0.7v-2.8l3.4,3.4  c0.1,0.1,0.3,0.2,0.5,0.2h5.8c0.7,0,1-0.8,0.5-1.3l-7.9-7l-0.1-16.2c1.8-1.1,3.2-2.8,4-4.8c1.9,2,4.5,3.3,7.5,3.3  c4.9,0,9-3.5,9.9-8.1c0.8,0.2,1.7,0.3,2.6,0.3c5.6,0,10.1-4.5,10.1-10.1c0-2.3-0.8-4.4-2.1-6.1C89,43.3,90,40.8,90,38.1z"></path></svg>
