<svg fill="#7D3C07" xmlns="http://www.w3.org/2000/svg" xmlns:xlink="http://www.w3.org/1999/xlink" version="1.1" x="0px" y="0px" viewBox="0 0 100 100" enable-background="new 0 0 100 100" xml:space="preserve"><g><path d="M54.238,52.212c-0.899,0-1.894-0.954-2.297-1.839c-0.638-1.397-1.799-1.412-3.534-0.229   c-1.067,0.727-2.141,0.588-2.86-0.332c-0.788-1.009-1.065-2.802-0.676-4.359c0.198-0.79,0.154-1.57-0.132-2.32   c-1.125,0.375-2.369,0.201-3.326-0.428c-1.166,1.019-2.983,1.105-4.244,0.208c-0.596,0.851-1.411,1.329-2.291,1.329   c-0.733,0-1.421-0.326-1.979-0.931c-0.879,0.937-2.207,1.483-3.654,1.483c-1.356,0-2.61-0.477-3.496-1.317   c-0.778,0.495-1.716,0.765-2.683,0.765c-2.475,0-4.489-1.705-4.489-3.799c0-0.549,0.144-1.082,0.429-1.592   c-0.722-0.752-1.13-1.748-1.13-2.783c0-2.227,1.813-4.039,4.041-4.039h35.017c2.229,0,4.041,1.813,4.041,4.039   c0,1.365-0.701,2.632-1.849,3.375c0.042,0.229,0.063,0.442,0.063,0.654c0,2.008-1.511,3.631-3.313,3.439   c-0.561,1.644-0.484,3.214-0.404,4.869c0.028,0.594,0.057,1.189,0.057,1.795C55.529,52.016,54.626,52.212,54.238,52.212z    M50.521,48.462c0.665,0,1.584,0.272,2.174,1.565c0.312,0.684,1.076,1.355,1.543,1.355c0.417,0,0.464-0.827,0.464-1.182   c0-0.592-0.029-1.176-0.059-1.754c-0.085-1.771-0.174-3.604,0.578-5.528l0.132-0.338l0.352,0.086   c1.41,0.345,2.656-0.949,2.656-2.569c0-0.232-0.033-0.472-0.105-0.755l-0.079-0.312l0.283-0.154   c1.04-0.566,1.687-1.642,1.687-2.809c0-1.771-1.441-3.211-3.212-3.211H21.918c-1.771,0-3.212,1.44-3.212,3.211   c0,0.913,0.403,1.789,1.104,2.404l0.277,0.242l-0.207,0.303c-0.313,0.459-0.472,0.938-0.472,1.426c0,1.637,1.643,2.969,3.66,2.969   c0.916,0,1.799-0.285,2.485-0.807l0.306-0.23l0.254,0.287c0.725,0.816,1.895,1.303,3.133,1.303c1.361,0,2.634-0.594,3.321-1.551   l0.343-0.477l0.334,0.48c0.447,0.643,1.027,0.994,1.635,0.994c0.704,0,1.368-0.48,1.824-1.318l0.259-0.475l0.392,0.373   c1.027,0.98,2.748,0.931,3.72-0.109l0.264-0.282l0.3,0.243c0.854,0.69,2.081,0.863,3.152,0.379l0.368-0.165l0.176,0.362   c0.498,1.023,0.616,2.141,0.342,3.234c-0.32,1.284-0.095,2.853,0.525,3.648c0.462,0.59,1.042,0.633,1.74,0.156   C48.911,48.798,49.778,48.462,50.521,48.462z"></path></g><g><g><path d="M38.924,68.313l3.336-5.776l-3.336-5.774h-6.668l-3.334,5.774l3.334,5.776H38.924z M32.224,63.346l1.705,2.897    l1.662-0.015l1.66,0.015l1.705-2.897l0.072,0.041c-0.056,0.296-0.126,0.582-0.21,0.861c-0.082,0.279-0.172,0.556-0.273,0.823    c-0.092,0.274-0.206,0.537-0.316,0.801c-0.105,0.267-0.228,0.521-0.352,0.777l-0.146,0.303l-0.439,0.035    c-0.284,0.023-0.567,0.048-0.85,0.049l-0.851,0.021l-0.852-0.022c-0.283,0-0.566-0.027-0.851-0.05l-0.435-0.032l-0.148-0.304    c-0.125-0.256-0.247-0.514-0.352-0.778c-0.111-0.264-0.223-0.526-0.316-0.8c-0.102-0.269-0.19-0.544-0.274-0.824    c-0.084-0.278-0.154-0.565-0.211-0.86L32.224,63.346z"></path></g><g><path d="M43.799,63.419l-3.335,5.774l3.335,5.776h6.669l3.334-5.776l-3.334-5.774H43.799z M50.571,70.043    c-0.057,0.296-0.126,0.583-0.209,0.861c-0.083,0.279-0.172,0.556-0.274,0.824c-0.094,0.273-0.206,0.536-0.316,0.8    c-0.106,0.267-0.23,0.521-0.353,0.777l-0.146,0.304l-0.438,0.034c-0.284,0.023-0.568,0.048-0.852,0.049l-0.85,0.021l-0.852-0.022    c-0.282,0-0.565-0.026-0.849-0.049l-0.436-0.033l-0.148-0.304c-0.124-0.256-0.246-0.514-0.352-0.778    c-0.111-0.264-0.224-0.526-0.316-0.8c-0.102-0.269-0.192-0.544-0.275-0.824c-0.084-0.277-0.154-0.565-0.211-0.86l0.072-0.04    l1.704,2.897l1.662-0.014l1.661,0.014l1.705-2.897L50.571,70.043z"></path></g><g><path d="M32.256,69.991l-3.334,5.775l3.334,5.776h6.668l3.336-5.776l-3.336-5.775H32.256z M39.028,76.615    c-0.056,0.297-0.126,0.583-0.21,0.862c-0.082,0.279-0.172,0.555-0.273,0.823c-0.092,0.274-0.206,0.536-0.316,0.8    c-0.105,0.269-0.228,0.522-0.352,0.778l-0.146,0.303l-0.439,0.035c-0.284,0.023-0.567,0.049-0.85,0.05l-0.851,0.021l-0.852-0.021    c-0.283,0-0.566-0.029-0.851-0.051l-0.435-0.032l-0.148-0.304c-0.125-0.256-0.247-0.514-0.352-0.779    c-0.111-0.264-0.223-0.526-0.316-0.8c-0.102-0.269-0.19-0.544-0.274-0.824c-0.084-0.277-0.154-0.565-0.211-0.86l0.071-0.04    l1.705,2.897l1.662-0.014l1.66,0.014l1.705-2.897L39.028,76.615z"></path></g><g><path d="M58.271,43.658c-0.521,0.381-1.119,0.641-1.773,0.705c-0.329,1.313-0.266,2.627-0.197,4.002    c0.029,0.606,0.058,1.216,0.058,1.836c0,2.702-1.767,2.839-2.12,2.839c-1.294,0-2.537-1.197-3.052-2.323    c-0.271-0.597-0.528-0.597-0.665-0.597c-0.228,0-0.743,0.092-1.646,0.708c-1.421,0.969-3.004,0.744-3.982-0.506    c-0.934-1.195-1.273-3.281-0.826-5.07c0.095-0.381,0.119-0.759,0.071-1.132c-0.907,0.122-1.846-0.032-2.66-0.427    c-1.201,0.783-2.821,0.897-4.125,0.284c-0.696,0.698-1.565,1.093-2.475,1.093c-0.699,0-1.375-0.229-1.969-0.652    c-0.991,0.769-2.284,1.205-3.664,1.205c-1.343,0-2.603-0.408-3.59-1.145c-0.79,0.385-1.679,0.592-2.588,0.592    c-1.112,0-2.145-0.301-3-0.811c-3.887,4.762-6.466,13.104-6.466,22.606c0,14.809,6.258,26.813,13.978,26.813h23.695    c7.72,0,13.979-12.005,13.979-26.813C65.252,56.951,62.443,48.298,58.271,43.658z M51.187,76.214h-7.749l-3.795,6.572h-8.104    l-4.054-7.02l3.82-6.614l-3.82-6.615l4.054-7.02h8.104l3.843,6.656h7.701l4.052,7.02L51.187,76.214z"></path></g></g><g><g><path d="M34.489,22.934c0,1.175-0.953,2.128-2.128,2.128l0,0c-1.174,0-2.127-0.953-2.127-2.128V11.721    c0-1.175,0.953-2.128,2.127-2.128l0,0c1.175,0,2.128,0.953,2.128,2.128V22.934z"></path></g><g><path d="M40.054,24.571c0,1.175-0.953,2.126-2.129,2.126l0,0c-1.175,0-2.126-0.951-2.126-2.126V10.085    c0-1.175,0.951-2.128,2.126-2.128l0,0c1.176,0,2.129,0.953,2.129,2.128V24.571z"></path></g><g><path d="M45.618,26.207c0,1.174-0.952,2.128-2.128,2.128l0,0c-1.175,0-2.126-0.954-2.126-2.128V8.448    c0-1.175,0.951-2.128,2.126-2.128l0,0c1.176,0,2.128,0.953,2.128,2.128V26.207z"></path></g><g><path d="M56.746,22.934c0,1.175-0.951,2.128-2.126,2.128l0,0c-1.176,0-2.129-0.953-2.129-2.128V11.721    c0-1.175,0.953-2.128,2.129-2.128l0,0c1.175,0,2.126,0.953,2.126,2.128V22.934z"></path></g><g><path d="M51.182,24.571c0,1.175-0.951,2.126-2.127,2.126l0,0c-1.175,0-2.127-0.951-2.127-2.126V10.085    c0-1.175,0.952-2.128,2.127-2.128l0,0c1.176,0,2.127,0.953,2.127,2.128V24.571z"></path></g><g><path d="M58.057,15.5H84.57c1.01,0,1.828,0.818,1.828,1.828l0,0c0,1.01-0.818,1.827-1.828,1.827H58.057V15.5z"></path></g></g></svg>