<svg xmlns="http://www.w3.org/2000/svg" xmlns:xlink="http://www.w3.org/1999/xlink" version="1.1" x="0px" y="0px" viewBox="0 0 100 100" enable-background="new 0 0 100 100" xml:space="preserve"><g><path d="M41.89,57.364c0.262-0.231,0.537-0.462,0.82-0.691c-1.246-0.87-2.56-1.602-3.663-2.154   c-1.477-0.735-2.571-1.157-2.592-1.166c-2.52-0.886-3.42-1.791-3.731-2.393l-0.126-0.363c-0.036-0.128-0.067-0.248-0.097-0.364   l-0.306-1.721l-0.007-0.083c0.833-1.065,1.511-2.288,1.964-3.54l0.063-0.096c0.718-0.718,1.107-2.535,1.108-2.552   c0.527-1.479,0.331-2.123,0.167-2.381l-0.067-0.106l0.039-0.117c0.053-0.161,1.291-3.95-0.417-6.838l-0.03-0.076   c-0.005-0.026-0.644-2.694-3.775-3.875c-1.18-0.716-3.153-1.069-4.938-1.069c-0.053,0-0.104,0.001-0.156,0.001   c-0.052,0-0.103-0.001-0.156-0.001c-1.785,0-3.758,0.353-4.938,1.069c-3.132,1.182-3.771,3.85-3.776,3.875l-0.029,0.076   c-1.708,2.888-0.471,6.677-0.418,6.838l0.038,0.117l-0.066,0.106c-0.163,0.258-0.36,0.902,0.167,2.381   c0.002,0.017,0.391,1.834,1.109,2.552l0.063,0.096c0.453,1.252,1.132,2.475,1.965,3.54l-0.008,0.083l-0.307,1.721   c-0.03,0.116-0.061,0.236-0.097,0.364l-0.126,0.363c-0.31,0.602-1.21,1.507-3.73,2.393c-0.021,0.009-1.115,0.431-2.593,1.166   c-1.622,0.813-3.704,2.005-5.347,3.471c-0.035,0.026-3.144,2.379-2.879,8.636c0.018,0.454,0.052,0.923,0.11,1.416   c0,0.499,0.159,0.899,1.122,1.199c0.079,0.03,8.421,2.981,19.479,2.981c0.137,0,0.277-0.004,0.417-0.004   c0.138,0,0.278,0.004,0.417,0.004c3.831,0,7.335-0.354,10.282-0.818C36.506,62.373,40.831,58.237,41.89,57.364z"></path><path d="M91.281,60.272c-2.112-1.885-4.79-3.419-6.876-4.463c-1.898-0.945-3.305-1.488-3.332-1.499   c-3.24-1.14-4.397-2.303-4.797-3.077l-0.162-0.466c-0.046-0.165-0.087-0.319-0.125-0.467l-0.394-2.214l-0.01-0.106   c1.071-1.369,1.943-2.941,2.525-4.551l0.081-0.124c0.923-0.923,1.424-3.259,1.425-3.281c0.678-1.901,0.427-2.728,0.216-3.061   l-0.086-0.136l0.049-0.151c0.069-0.206,1.66-5.078-0.536-8.791l-0.039-0.098c-0.006-0.033-0.827-3.464-4.854-4.983   c-1.517-0.92-4.054-1.374-6.35-1.374c-0.068,0-0.134,0.001-0.201,0.002c-0.066-0.001-0.132-0.002-0.2-0.002   c-2.296,0-4.833,0.454-6.35,1.374c-4.026,1.52-4.847,4.95-4.854,4.983l-0.038,0.098c-2.196,3.712-0.605,8.585-0.537,8.791   l0.05,0.151l-0.086,0.136c-0.209,0.333-0.463,1.16,0.215,3.061c0.003,0.022,0.502,2.358,1.426,3.281l0.081,0.124   c0.581,1.609,1.455,3.182,2.525,4.551l-0.01,0.106L59.644,50.3c-0.038,0.148-0.078,0.302-0.124,0.467l-0.162,0.466   c-0.399,0.774-1.557,1.938-4.796,3.077c-0.027,0.011-1.435,0.554-3.334,1.499c-2.086,1.045-4.763,2.578-6.875,4.463   c-0.044,0.033-4.042,3.058-3.701,11.102c0.022,0.585,0.067,1.188,0.141,1.822c0,0.641,0.205,1.155,1.443,1.541   c0.101,0.038,10.827,3.833,25.045,3.833c0.176,0,0.356-0.005,0.535-0.005c0.178,0,0.358,0.005,0.536,0.005   c14.218,0,24.942-3.795,25.044-3.833c1.237-0.384,1.443-0.9,1.443-1.541c0.074-0.635,0.118-1.237,0.141-1.822   C95.323,63.33,91.325,60.306,91.281,60.272z"></path></g></svg>