<svg fill="#DCBD23" xmlns="http://www.w3.org/2000/svg" xmlns:xlink="http://www.w3.org/1999/xlink" version="1.1" x="0px" y="0px" viewBox="0 0 512 512" enable-background="new 0 0 512 512" xml:space="preserve"><g><path d="M508.874,169.024l-30.171-30.164c-4.156-4.164-10.906-4.164-15.078,0l-10.422,10.422l-2.078-6.25   c-0.531-1.57-1.406-3-2.578-4.172l-75.404-75.404c-1.172-1.172-2.609-2.047-4.172-2.578l-6.25-2.078l10.422-10.421   c2-2,3.125-4.719,3.125-7.547s-1.125-5.539-3.125-7.539L342.972,3.13c-4.156-4.164-10.906-4.164-15.078,0l-90.475,90.49   c-2,2-3.125,4.71-3.125,7.539s1.125,5.547,3.125,7.539l30.155,30.163c2,2,4.711,3.125,7.539,3.125s5.531-1.125,7.531-3.125   l10.422-10.414l2.094,6.25c0.516,1.57,1.406,3,2.578,4.164l8.25,8.258l-14.266,17.437v0.008l-27.117,33.156   c-0.016,0.016-0.031,0.023-0.031,0.039l-12.906,15.765c-4.188-3.398-10.359-3.148-14.25,0.75c-4.172,4.164-4.172,10.914,0,15.078   l-40.39,40.381l0,0l-42.655,42.656l0,0l-42.655,42.654c0,0.016,0,0.016,0,0.016l-10.547,10.531c-4.172-4.156-10.921-4.156-15.093,0   c-4.156,4.172-4.156,10.938,0,15.094l-30.156,30.154l-7.546-7.529c-4.156-4.172-10.906-4.172-15.078,0L3.143,433.463   c-2.859,2.844-3.859,7.062-2.594,10.891l14.906,45.078c0.547,1.625,1.469,3.077,2.672,4.249c0.031,0.031,0.062,0.078,0.094,0.109   c1.594,1.594,3.562,2.578,5.625,2.953l43.765,14.688c1.109,0.375,2.25,0.562,3.391,0.562c2.781,0,5.515-1.094,7.546-3.125   l30.156-30.155c4.172-4.156,4.172-10.922,0-15.094l-7.531-7.531l30.156-30.156c2.078,2.078,4.812,3.125,7.546,3.125   c2.719,0,5.453-1.047,7.531-3.125c4.172-4.172,4.172-10.922,0-15.094l81.92-81.904c1.328-0.844,2.453-1.969,3.281-3.281   l40.819-40.842l0,0l10.219-10.219c2.094,2.094,4.812,3.125,7.547,3.125s5.453-1.031,7.547-3.125   c3.891-3.891,4.141-10.062,0.734-14.25l15.781-12.905c0.016-0.008,0.016-0.008,0.016-0.016l33.154-27.125   c0.016-0.008,0.031-0.023,0.031-0.031l17.422-14.25l8.266,8.258c1.172,1.172,2.594,2.055,4.172,2.578l6.25,2.078l-10.422,10.421   c-2,2-3.125,4.711-3.125,7.539s1.125,5.546,3.125,7.546l30.156,30.155c2.078,2.094,4.812,3.125,7.546,3.125   c2.719,0,5.453-1.031,7.531-3.125l90.498-90.482C513.029,179.946,513.029,173.188,508.874,169.024z M335.44,25.754l15.077,15.078   l-19.843,19.851l-10.327,10.312L305.27,55.917L335.44,25.754z M275.113,116.244l-15.069-15.085l30.147-30.163l15.078,15.085   l-15.078,15.078c0,0.008-0.016,0.016-0.016,0.016L275.113,116.244z M308.254,224.789l-10.516-10.515   c4.156,4.164,10.906,4.164,15.078,0c4.156-4.164,4.156-10.922,0-15.086c-4.172-4.164-10.922-4.164-15.078,0   c-4.172,4.164-4.172,10.914-0.016,15.078l-10.516-10.516l13.578-16.585l24.062,24.054L308.254,224.789z M283.363,245.147   l-1.797-1.789l-14.711-14.726l6.789-8.289l18.016,18.023L283.363,245.147z M252.497,244.437l15.078,15.077l-7.093,7.094h-30.156   L252.497,244.437z M217.826,309.279h-30.171l21.328-21.344h30.171L217.826,309.279z M175.17,351.934h-30.171l21.328-21.344h30.171   L175.17,351.934z M123.671,373.246h30.171l-22.515,22.516l-15.078-15.078L123.671,373.246z M40.845,425.932l15.078,15.078   l-25.562,25.547l-7.5-22.656L40.845,425.932z M68.142,489.119l-22.578-7.594l25.437-25.438l15.078,15.094L68.142,489.119z    M78.547,433.479c0-0.016,0-0.016,0-0.016h-0.016l-7.531-7.531l30.171-30.17l15.078,15.076L86.079,441.01L78.547,433.479z    M341.425,197.641l-27.062-27.07l6.781-8.289l28.576,28.578L341.425,197.641z M373.143,184.118c0-0.008,0-0.008,0-0.008   l-45.249-45.249l0,0l-13.296-13.296l-4.656-13.984l31.202-31.21l4.718-4.711l13.969,4.664l71.857,71.842l4.656,13.984   l-35.92,35.921l-13.984-4.664L373.143,184.118z M410.845,251.976l-15.077-15.085l30.155-30.156L441,221.812L410.845,251.976z    M456.078,206.727L441,191.649l30.172-30.164l15.078,15.086L456.078,206.727z"></path><path d="M395.768,172.149c2.719,0,5.453-1.039,7.531-3.125c4.172-4.164,4.172-10.914,0-15.078l-45.234-45.249   c-4.172-4.164-10.922-4.164-15.093,0c-4.156,4.172-4.156,10.921,0,15.085l45.249,45.241   C390.299,171.11,393.033,172.149,395.768,172.149z"></path></g></svg>