<svg xmlns="http://www.w3.org/2000/svg" xmlns:xlink="http://www.w3.org/1999/xlink" version="1.1" x="0px" y="0px" viewBox="0 0 100 100" style="enable-background:new 0 0 100 100;" xml:space="preserve"><path d="M89.4,31.3C89.4,31.3,89.4,31.3,89.4,31.3c-1.1-1.7-3.1-1.8-4.2-1.6C81.3,30.1,76.5,31,75,33c-0.3-0.1-0.6-0.1-1,0  c-0.2,0.1-4.7,1.3-7.4,2.5c-0.3,0.1-1.2,0.4-3.6,0.6c-0.1,0-0.2,0-0.3,0.1c-0.1,0-0.2,0-0.3,0c-1.3,0.1-11.4,0.3-12.2,0.3l-0.5,0  c-0.1,0-0.2,0-0.3,0c-0.1,0-0.2,0-0.3,0c-0.6,0-4.9,0-8.5,0.1c-2.3,0-4.3,0-4.8,0c-0.1,0-0.2,0-0.3,0c-0.1,0-0.2,0-0.3,0l-0.7,0  c-1.7,0-6.3-1.9-8.9-3c-0.1-0.1-0.2-0.1-0.4-0.1c-1.1-2.3-6.2-3.2-10.4-3.6c-1.1-0.2-3.1-0.1-4.2,1.6c-1.1,1.7-1,2.9-0.4,11.3  l0.1,1.9c1.6,21,13,25.5,13.5,25.7c0.2,0.1,0.4,0.1,0.6,0.1c0.5,0,0.9-0.2,1.3-0.5c0.5-0.5,0.6-1.3,0.4-1.9  c-1.6-3.9-2.5-9.4-2.4-15.4c0-0.5,0-1.1,0-1.6c0.7,0.1,1.4-0.2,1.8-0.8l2.1-3.5c0,0,0,0,0,0c0.1-0.1,0.3-0.4,0.4-0.6  c0-0.1,0.1-0.1,0.1-0.2c3.1,2.2,4,2,4.5,1.9c0.6-0.1,1.1-0.5,1.4-1.1c0.1-0.3,0.4-0.7,0.7-1.3c0.5,0.9,1.2,1.7,2.3,2.2  c0.6,0.3,1.1,0.5,1.6,0.8c5.6,2.7,6.5,2.9,10.4-0.9c3.2,2.2,5.1,3.3,6.7,3.3c1.3,0,2.5-0.7,4-2c0.5-0.4,1-0.9,1.6-1.4  c0.8-0.6,1.4-1.4,1.8-2.2c0.6,1,1.2,1.8,2.3,2.1c1.4,0.3,2.7-0.4,5.7-2.4c0.1,0.1,0.1,0.3,0.3,0.5l2.8,4.8c0.4,0.6,1.1,1,1.8,0.9  c0.3,5.5-0.2,12.1-2.2,17c-0.3,0.6-0.1,1.4,0.4,1.9c0.3,0.3,0.8,0.5,1.3,0.5c0.2,0,0.4,0,0.6-0.1C76.6,70,88,65.5,89.6,44.5l0.1-1.9  C90.4,34.3,90.5,33,89.4,31.3z M24.5,68.6c0,0-10.8-4.1-12.3-24.2c-0.7-9.5-0.9-10.8-0.1-12c0.8-1.2,2.5-0.9,2.5-0.9  s7.6,0.7,8.9,2.4c0.1,0.1,0.1,0.1,0.1,0.2c-0.2,0.3-0.4,0.7-0.6,1c-1.5,2.8-1.7,5-1.7,5s0.8-1.1,1.7-2.4c0.2-0.2,0.3-0.4,0.5-0.7  c0,1,0,2.2,0.3,3.3c0,0.1-0.1,0.2-0.1,0.3C21.8,45,20.7,59.5,24.5,68.6z M26.1,45.6l-2.1,3.5c0,0-0.5-4,0-7.6c0-0.2,0-0.3,0.1-0.5  c0.4,1.1,1,1.5,2,2.3c0.3,0.3,0.9,0.6,1.1,0.7c-0.1,0.1-0.2,0.4-0.5,0.6C26.5,45,26.2,45.5,26.1,45.6z M35,41.9  c-0.3,0.2-2,3-2.4,3.8c-0.3,0.6-1.9-0.4-3.6-1.6c-0.7-0.5-1.4-1.1-2-1.6c-2.1-1.7-2.3-5.2-2.2-6.7c0-0.1,0-0.1,0-0.2  c0-0.4,0-0.6,0-0.6s0.1,0,0.2,0.1c1.2,0.6,7,3.1,9.4,3.1c0.2,0,0.4,0,0.7,0C35,38.9,34.9,40.4,35,41.9z M48.4,45.7  c-3.9,3.7-3.4,3.4-10.4,0.1c-2.8-1.3-2.5-6.2-2.3-7.6c1.3,0,12.3-0.1,13.3-0.1c0.1,0.1,0.2,0.3,0.3,0.5  C50.6,41.2,49.6,44.5,48.4,45.7z M60.5,45.8c-4.1,3.2-3.5,4.8-10.4-0.1c-0.2-0.1-0.3-0.3-0.5-0.6c1-1.7,1.3-4.6,0.3-6.7  c0-0.1-0.1-0.2-0.2-0.3c0.2,0,0.4,0,0.5,0c0.7,0,10.9-0.2,12.4-0.3c0,0,0.1,0.1,0.1,0.1C62.7,38,63.3,43.7,60.5,45.8z M71.1,42.7  c-5.3,3.6-5.2,3.3-6.6,0.8c-0.3-0.5-0.8-1.4-1.1-1.6c0.2-2-0.1-3.9-0.1-4c0,0,0-0.1,0-0.1c1.8-0.2,3.3-0.4,4.1-0.8  c2.6-1.1,7.2-2.4,7.2-2.4s0,0,0,0.1c0,0.7-0.3,6-3.1,7.8C71.3,42.6,71.2,42.7,71.1,42.7z M87.9,44.4c-1.6,20.1-12.3,24.2-12.3,24.2  c4.1-9.8,2.4-26,0.2-28.7c1,3.8,0.2,9.3,0.2,9.3l-2.8-4.8C73,44,73,43.9,72.9,43.7c0-0.1-0.1-0.1-0.1-0.2c1.8-1.6,2.7-5,3-7.4  c0.1,0.2,0.3,0.4,0.4,0.6c1.2,1.6,2.5,3.5,2.5,3.5s-0.3-2.8-2.3-6c0.8-1.9,9.1-2.6,9.1-2.6s1.7-0.4,2.5,0.9  C88.8,33.6,88.6,34.9,87.9,44.4z"></path></svg>