<svg fill="#861001" xmlns="http://www.w3.org/2000/svg" xmlns:xlink="http://www.w3.org/1999/xlink" version="1.1" x="0px" y="0px" viewBox="0 0 100 100" enable-background="new 0 0 100 100" xml:space="preserve"><g><path d="M85.8,36.1l-9.3-7.6L66,22.6c0,0-0.8-0.6-1.9-0.6c-0.9,0-1.9,0.3-3,1.4c-2.3,2.2-0.1,6.4,2.7,6.5c0,0,0.1,0,0.1,0   c0.9,0,1.7-0.5,1.8-1.3c0.1-0.6-0.1-1.4-1.5-2.2c0,0,0-0.5,0.8-0.5c0.4,0,0.9,0.1,1.7,0.5c2.4,1.2,6.5,7.6,6.5,7.6s7.3,1.4,9.3,3.2   c2,1.8,1,2.3,1,2.3c-0.7-0.6-1.3-0.8-1.7-0.8c-0.3,0-0.6,0.1-0.8,0.3c-0.7,0.5-0.8,1.5-0.4,2.3c0.6,1.3,2.1,2.1,3.6,2.1   c1.4,0,2.7-0.7,3.2-2.1C88.3,37.6,85.8,36.1,85.8,36.1z"></path><path d="M72.1,35.3l-0.4-0.5c-0.6-0.9-1.3-1.9-2-2.9C46.4,61.2,21.6,70.9,21.6,70.9C23.6,84.2,6.8,94.6,6.8,94.6   c20.5,5.6,60.5-46.1,69.7-58.3c-1.3-0.4-2.6-0.7-3.7-0.9L72.1,35.3z"></path><path d="M92.5,9.3l-5.7-4C86.1,4.8,85,5,84.5,5.7l-0.6,0.9c-0.5,0.7-0.3,1.7,0.4,2.2L84.5,9L73.8,25.2l3.4,1.9l0.1,0.1l0.1,0.1   l2,1.7L90,12.9l0,0c0.8,0.5,1.8,0.3,2.3-0.4l0.6-0.9C93.4,10.8,93.3,9.8,92.5,9.3z"></path></g></svg>