<svg xmlns="http://www.w3.org/2000/svg" xmlns:xlink="http://www.w3.org/1999/xlink" version="1.1" x="0px" y="0px" viewBox="0 0 100 100" enable-background="new 0 0 100 100" xml:space="preserve"><g><path fill-rule="evenodd" clip-rule="evenodd" d="M36.937,65.12c-1.045,0.18-2.083,0.137-3.101-0.248   c-2.501-0.555-4.467-2.062-4.395-5.033c-1.863,6.832,9.11,6.988,12.665,4.076C40.79,64.577,38.877,65.046,36.937,65.12z"></path><path fill-rule="evenodd" clip-rule="evenodd" d="M36.937,65.12c4.39-0.744,8.911-5.395,12.682-5.496   c0.44-0.812,0.357-0.891,0.43-2.148c0.049-0.895-1.788,0.836-2.36,0c-0.658,0.672,0.917,0.936,1.287,1.289   c-1.297,1.217-2.985,1.08-4.722,2.146c-2.316,1.424-4.178,3.664-8.373,3.434c-3.875-0.213-5.759-4.129-4.508-8.585   c-1.356,2.306-0.945,6.931,1.074,8.37c0.458,0.326,0.924,0.572,1.39,0.742C34.819,65.093,35.883,65.167,36.937,65.12z"></path><path fill-rule="evenodd" clip-rule="evenodd" d="M33.735,39.876c-1.266-4.315-5.205,2.078-2.148,3.005   c1.258,0.38,2.679-0.77,1.934-2.148C32.681,45.08,28.683,39.133,33.735,39.876z"></path><path fill-rule="evenodd" clip-rule="evenodd" d="M66.147,81.517c0.575-1.141,0.787-2.646,1.505-3.648   c0.479,5.971-5.545,12.887-12.022,10.734c0.785,1.072,2.593,1.127,4.508,1.072c-1.832,1.227-4.421,5.42-8.155,4.08   c0.971-0.381,2.44,0.104,3.216-0.859c-1.836,0.26-4.27-0.344-5.15-1.719c-0.401,1.6-2.836,2.078-4.723,1.504   c0.598,1.061,1.851,1.043,3.22,0.859c-3.588,1.865-5.92-2.514-8.371-3.865c1.926-0.004,3.937,0.074,4.721-1.072   c-2.479,0.543-4.307,0.74-6.439-0.645c-3.002-1.947-5.982-5.293-5.795-10.09c0.916,0.803,1.165,2.273,1.503,3.648   c1.232-3.451-1.644-4.652-2.578-6.652c1.009,2.199-0.569,5.719,0.43,8.586c1.276,3.654,7.2,6.992,10.518,9.445   c1.351,1,2.765,2.689,3.864,2.791c1.771,0.16,2.967-1.357,3.863-2.361c2.53,3.977,5.365,1.537,8.372-0.645   c2.796-2.027,9.579-6.375,10.089-10.303c0.355-2.725-0.705-4.922,0.43-7.514C67.858,76.788,65.517,77.667,66.147,81.517z"></path><path fill-rule="evenodd" clip-rule="evenodd" d="M33.09,46.744c-0.38-0.623-0.36-1.644-0.645-2.362   c1.116-0.386,2.177-0.828,2.146-2.361c-0.749,0.755-1.183,1.823-3.005,1.505c0.525,1.534,0.826,3.75,0.43,5.581   c2.523-3.418,11.015-0.865,13.093-4.725c-2.505,1.071-5.45-2.26-8.156-0.43c1.887,0.474,3.753,0.971,5.581,1.504   C39.869,45.925,34.933,43.509,33.09,46.744z"></path><path fill-rule="evenodd" clip-rule="evenodd" d="M32.875,41.592c0-0.215,0-0.43,0-0.645C31.32,39.839,31.32,42.701,32.875,41.592z   "></path><path fill-rule="evenodd" clip-rule="evenodd" d="M33.949,63.274c3.868,1.797,9.781-1.518,11.161-4.725   c2.009-4.656-0.284-7.418-4.936-7.729c-1.392-0.09-2.772-0.207-4.079,0.215C32.558,52.178,28.468,60.724,33.949,63.274z"></path><path fill-rule="evenodd" clip-rule="evenodd" d="M39.745,84.093c-2.055-1.234-3.887-2.693-4.723-5.15   c-0.925,6.656,4.019,10.18,11.163,8.801c0.116,0.113-0.652,1.768,0.214,2.146c0.802,0.086,1.261-0.17,1.289-0.859   c-0.645-0.734-1.144,0.451-1.503,0c0.787-2.836,4.13,0.584,1.718,1.717c-1.138,0.053-2.226-0.957-3.007,0   c1.147,3.551,5.507,1.305,5.153-1.717c-0.362-3.09-3.794-1.922-6.869-1.715c-0.344-0.299,0.293-1.557-0.215-2.148   c0.031,2.521-4.154,2.375-4.938,0.645c1.048,0.654,4.228,1.367,4.08-0.859c-2.84-0.414-6.893-0.049-6.87-3.863   C36.173,82.655,36.931,84.403,39.745,84.093z"></path><path fill-rule="evenodd" clip-rule="evenodd" d="M38.456,65.849c5.371,1.576,5.779-3.668,9.017-4.938   C44.088,61.319,42.783,65.667,38.456,65.849z"></path><path fill-rule="evenodd" clip-rule="evenodd" d="M40.174,37.513c-0.07,0.499,0.034,0.825,0.215,1.073   c0.763,0.05,1.121-0.308,1.072-1.073C41.186,37.22,40.449,37.22,40.174,37.513z"></path><path fill-rule="evenodd" clip-rule="evenodd" d="M40.174,40.091c0.248,0.179,0.574,0.282,1.072,0.212   c0.272-0.651,0.166-0.833-0.212-1.286C40.428,39.056,40.117,39.389,40.174,40.091z"></path><path fill-rule="evenodd" clip-rule="evenodd" d="M39.745,50.179c0.417-0.043,0.81-0.064,1.184-0.064   C40.552,50.1,40.157,50.12,39.745,50.179z"></path><path fill-rule="evenodd" clip-rule="evenodd" d="M42.535,37.513c0.668-0.591-0.266-1.527-0.859-0.856   C41.577,37.326,41.862,37.613,42.535,37.513z"></path><path fill-rule="evenodd" clip-rule="evenodd" d="M42.535,40.303c-0.621-0.264-0.978-0.109-1.074,0.645   C41.875,41.367,42.775,41.173,42.535,40.303z"></path><path fill-rule="evenodd" clip-rule="evenodd" d="M43.824,40.732c-0.45-0.091-0.569,0.147-0.859,0.215   c0.075,0.282,0.377,0.339,0.43,0.645C43.771,41.539,43.883,41.222,43.824,40.732z"></path><path fill-rule="evenodd" clip-rule="evenodd" d="M44.253,37.083c-0.32-0.339-1.225-0.313-1.074,0.43   C43.5,37.854,44.404,37.829,44.253,37.083z"></path><path fill-rule="evenodd" clip-rule="evenodd" d="M44.681,59.839c0.983,0.047,1.817-1.904,2.148-3.219   c1.284,0.967,3.099,0.174,3.219-1.29c0.958,0.187,0.775,1.517,1.716,1.718c1.022-0.17,1.179,0.131,1.718-0.428   c0.664,1.195,1.057,2.662,2.147,3.434c-1.525-1.713-1.941-7.683,0.858-9.018c1.3-0.416,2.865-0.568,4.294-0.857   c-0.645,0-1.289,0-1.933,0c-2.376,0.589-3.976,0.718-4.722,2.576c-0.469,1.168,0.127,2.975-1.504,3.219   c-0.812-0.797,0.996-1.166,0.215-1.933c-1.648-0.124-0.994,1.808-0.43,2.364c-0.735,0.467-1.201-0.857-1.501-1.504   c0.075-0.713,0.642-0.932,1.074-1.287c0.616-0.047,1.09,0.055,1.286,0.427c0.274-1.435-2.903-0.896-3.021,0.569   c-0.229-1.336-2.728-2.161-3.204-0.569c0.61-0.582,1.686-0.435,2.361,0c0.369,1.169-0.16,2.304-1.29,2.579   c0.111-0.895,1.001-1.002,0.645-2.363c-0.502-0.065-0.885-0.42-1.286,0c-0.13,0.773,0.655,0.633,0.642,1.288   c-0.064,0.29-0.535,0.179-0.857,0.215c-0.693-3.264-2.311-5.608-6.231-5.642C45.884,50.368,47.675,56.337,44.681,59.839z"></path><path fill-rule="evenodd" clip-rule="evenodd" d="M51.765,73.362c0.409-0.381,1.374-0.199,1.718-0.645   c1.557-3.764-1.026-8.221-2.358-11.164c-0.216,0-0.432,0-0.645,0c-0.309,3.484,0.536,8.014-0.217,10.52   c-0.75-2.506,0.094-7.035-0.214-10.52c-1.934,0.834-4.62,8.713-3.005,11.164c0.471,0.244,0.878,0.555,1.716,0.43   c-3.667,1.512-3.225-4.6-1.93-6.869c-1.211,1.744-2.589,5.453-1.075,7.939c0.603,0.26,1.481,0.238,2.36,0.215   c-1.074-0.426-2.477-0.525-2.575-1.93c0.409,0.193,2.158,2.357,3.435,1.074c0.701-0.059,0.455,0.83,1.073,0.855   c0.899,0.186,0.849-0.578,1.288-0.855c1.421,0.971,3.002-0.225,3.648-1.289c-0.088,1.412-1.079,1.926-2.575,1.93   c4.819,1.289,2.708-6.125,1.504-7.939C54.363,68.247,56.026,74.341,51.765,73.362z M50.479,74.218c-0.143,0-0.289,0-0.431,0   c0.049-0.895-0.349-1.01,0-1.715c0.142,0,0.288,0,0.431,0C50.827,73.208,50.429,73.323,50.479,74.218z"></path><path fill-rule="evenodd" clip-rule="evenodd" d="M50.048,60.696c-1.305-0.799-2.125,0.734-3.219,0.857   c0.054,0.504,0.942,0.125,1.073,0c-0.069,1.363-0.903,1.963-1.073,3.221C48.053,63.565,48.26,61.341,50.048,60.696z"></path><path fill-rule="evenodd" clip-rule="evenodd" d="M49.405,74.433c-0.729,0.744,0.982,0.869,0.429,2.148   c0.21-0.006,0.165-0.262,0.215-0.428c0.364-0.08,0.407,0.168,0.431,0.428c0.178-0.822,0.584-1.418,0.857-2.148   C50.818,74.972,49.79,75.368,49.405,74.433z"></path><path fill-rule="evenodd" clip-rule="evenodd" d="M68.082,64.13c2.188-1.561,2.215-6.047,1.07-9.014   c1.104,4.592-0.199,8.877-4.294,9.229c-5.844,0.504-8.759-4.734-13.309-5.365c0.049-0.955,1.429-0.578,1.719-1.289   c-0.562,0.082-2.514-0.346-2.79-0.43c-0.092,1.02,0.104,1.758,0.429,2.363c3.905,0.104,8.563,5.062,13.087,5.564   c0.952,0.006,1.894-0.104,2.771-0.34C67.209,64.677,67.646,64.44,68.082,64.13z"></path><path fill-rule="evenodd" clip-rule="evenodd" d="M50.479,88.817c-0.131,0.76,0.155,2.223,0.645,2.789   c0.814,0.951,4.255,1.912,4.506-0.859c-0.694-0.891-1.814-0.068-2.791,0c-2.645-0.68,0.333-4.572,1.505-1.93   c-0.189,0.965-0.834-0.621-1.505,0.213c0.031,0.689,0.487,0.945,1.289,0.859c0.583-0.377,0.583-1.77,0-2.146   c7.294,1.217,11.944-1.693,11.591-8.801c-1.21,2.084-2.491,4.09-4.937,4.938c2.239,0.732,3.844-1.02,4.291-2.791   c0.643,3.494-3.874,3.617-6.653,3.863c-0.233,2.088,2.983,1.672,3.864,0.859c0.237,1.383-5.047,2.283-4.508-0.645   c-0.641,0.295-0.449,1.555-0.214,2.148C54.518,87.228,50.978,85.874,50.479,88.817z"></path><path fill-rule="evenodd" clip-rule="evenodd" d="M50.479,60.483c1.43,0.998,2.237,2.627,3.003,4.291   c0.389-0.822-0.742-1.973-0.858-3.004c0.03-0.479,0.541,0.279,1.074,0C52.751,61.216,52.137,60.325,50.479,60.483z"></path><path fill-rule="evenodd" clip-rule="evenodd" d="M55.414,62.63c1.656,1.809,2.724,4.395,6.654,3.434   c-3.859-0.791-5.546-3.756-8.586-5.367C53.286,61.433,54.579,61.714,55.414,62.63z"></path><path fill-rule="evenodd" clip-rule="evenodd" d="M54.984,53.827c-1.32,6.178,6.113,12.053,11.593,9.447   c2.795-1.334,3.339-6.004,1.717-9.018C66.174,50.312,56.913,48.79,54.984,53.827z"></path><path fill-rule="evenodd" clip-rule="evenodd" d="M57.348,37.513c-0.114-0.171-0.225-0.347-0.215-0.643   c-0.562-0.062-0.924,0.078-0.859,0.643C56.557,37.79,57.065,37.79,57.348,37.513z"></path><path fill-rule="evenodd" clip-rule="evenodd" d="M57.562,40.947c-0.191-0.166-0.487-0.23-0.858-0.215   c-0.092,0.45,0.146,0.569,0.214,0.859C57.117,41.363,57.71,41.524,57.562,40.947z"></path><path fill-rule="evenodd" clip-rule="evenodd" d="M55.414,44.167c1.675,4.268,10.563,1.317,12.88,4.939   c0.181-1.365-0.179-4.057,0.644-5.369c-1.219-0.282-2.539-0.464-2.79-1.717c-0.468,0.977,0.546,2.312,1.935,2.146   c-0.02,0.986-0.547,1.46-0.43,2.577c-2.079-2.842-6.575-1.358-9.66-1.073c1.582-0.776,3.367-1.354,5.58-1.504   C61.134,41.708,58.208,45.787,55.414,44.167z"></path><path fill-rule="evenodd" clip-rule="evenodd" d="M57.776,36.656c-0.1,0.67,0.188,0.957,0.857,0.856   C59.303,36.922,58.367,35.985,57.776,36.656z"></path><path fill-rule="evenodd" clip-rule="evenodd" d="M57.992,40.303c-0.241,0.87,0.657,1.064,1.071,0.645   C58.971,40.193,58.613,40.039,57.992,40.303z"></path><path fill-rule="evenodd" clip-rule="evenodd" d="M59.063,37.513c-0.049,0.766,0.309,1.123,1.074,1.073   C60.896,37.847,59.805,36.757,59.063,37.513z"></path><path fill-rule="evenodd" clip-rule="evenodd" d="M59.278,40.303c0.497,0.07,0.827-0.033,1.076-0.212   c0.182-0.686-0.341-0.666-0.432-1.074c-0.546,0.026-0.833,0.312-0.859,0.859C59.273,39.881,59.232,40.137,59.278,40.303z"></path><path fill-rule="evenodd" clip-rule="evenodd" d="M71.3,59.624c-0.057,2.865-2.015,4.555-4.533,5.225   c-0.913,0.357-1.84,0.447-2.771,0.34c-1.98-0.014-4.011-0.527-5.575-1.486C61.722,66.825,72.791,66.985,71.3,59.624z"></path><path fill-rule="evenodd" clip-rule="evenodd" d="M68.938,42.881c3.142-0.953-0.908-7.286-2.146-3.005   c1.165,0.178,2.749-0.147,2.79,1.286c0.048,1.551-2.797,1.78-2.361-0.215C66.062,41.281,67.372,43.354,68.938,42.881z"></path><path fill-rule="evenodd" clip-rule="evenodd" d="M68.938,41.592c0-0.215,0-0.43,0-0.645   C67.383,39.839,67.383,42.701,68.938,41.592z"></path><path fill-rule="evenodd" clip-rule="evenodd" d="M71.112,47.519c-0.076,0.116-0.155,0.218-0.24,0.297   C70.998,47.853,71.079,47.71,71.112,47.519z"></path><path fill-rule="evenodd" clip-rule="evenodd" d="M55.736,6.295c3.31,2.961,5.45,9.342,5.465,15.32   c-0.061-0.006-0.129-0.002-0.203,0.013c-0.36,0.428,0.018,0.274,0,0.86c0.069,0.014,0.132,0.018,0.189,0.015   c-0.026,0.805-0.093,1.6-0.201,2.374c-0.416,0.149-0.452,0.657-0.155,0.927c-0.289,1.52-0.753,2.941-1.412,4.187   c0.328,0.771,1.552-1.157,2.597-1.106c0.452-0.93,0.777-1.954,0.988-3.039c0.187,0.047,0.336-0.002,0.432-0.109   c-0.22,1.312-0.602,2.502-1.202,3.371c2.018,0.309,2.831-2.262,3.032-3.766c0.408-3.032-1.045-6.438-2.165-7.973   c0.473,1.725,0.789,4.955,0.422,7.784c-0.032-0.103-0.085-0.207-0.165-0.304c-0.07-0.008-0.135-0.01-0.192-0.005   c1-7.815-3.415-18.176-9.596-20.32C53.824,5.625,54.915,5.562,55.736,6.295z"></path><path fill-rule="evenodd" clip-rule="evenodd" d="M46.64,13.383c2.43-0.679,0.837-4.121-1.734-3.544   c-0.292,0.512-0.87,0.734-0.649,1.771C44.917,12.336,46.196,12.434,46.64,13.383z"></path><path fill-rule="evenodd" clip-rule="evenodd" d="M39.059,29.106c0.633-0.337,0.42-2.062,0.42-3.152   c0.081-0.003,0.17-0.013,0.266-0.032c0.15-0.662,0.15-0.414,0-1.073c-0.063-0.012-0.124-0.018-0.182-0.02   c0.46-4.251,1.846-8.362,3.829-11.003c0.385-0.641,1.393-0.643,1.514-1.553C39.198,12.278,36.763,23.293,39.059,29.106z"></path><path fill-rule="evenodd" clip-rule="evenodd" d="M38.193,29.106c-0.864-6.343,0.274-13.689,4.114-16.61   c0.176-0.042,0.217-0.223,0.435-0.223C36.258,11.246,34.909,24.551,38.193,29.106z"></path><path fill-rule="evenodd" clip-rule="evenodd" d="M75.661,41.949c0.141-0.574,0.175-1.087,0.126-1.55   c0.29-2.796,0.047-5.602-1.262-8.314c-0.292-0.675-0.43-1.509-0.812-2.095c-1.935-0.407-3.832-0.039-5.151,0.798   c-0.253-0.059-0.499-0.094-0.729-0.098c1.44-0.376,3.053-1.829,5.663-1.143c-0.37-3.786-4.171-2.428-5.983-0.562   c-0.058-0.02-0.114-0.038-0.171-0.055c1.141-1.079,2.277-2.548,4.637-2.261c-0.65-1.696-2.145-2.53-3.249-3.765   c-0.079,2.475-1.437,4.337-2.46,5.831c-0.195-0.014-0.389-0.017-0.583-0.01c1.635-1.318,2.927-3.789,2.394-5.601   c-0.463-1.581-1.906-1.457-2.814-2.879c0.74,2.673,0.056,6.405-0.803,8.637c-1.822,0.39-3.662,1.387-5.654,1.9   c4.311-9.34,1.67-25.036-8.705-26.482c6.168,1.529,9.102,9.381,9.018,17.112c-0.019,0-0.039,0-0.059,0   c-0.166,0.387-0.167,0.672,0.038,0.854c-0.038,0.97-0.123,1.936-0.257,2.883c-0.222,0.169-0.25,0.485-0.113,0.731   c-0.312,1.845-0.804,3.605-1.479,5.183c-0.132,0.013-0.267,0.022-0.401,0.027c4.235-9.444,2.247-25.119-8.48-26.569   c7.129,2.104,9.462,11.188,8.601,19.681c-0.018,0-0.036,0-0.055,0c-0.126,0.292-0.158,0.622-0.046,0.876   c-0.265,2.075-0.72,4.098-1.341,5.957c-0.119-0.017-0.234-0.036-0.348-0.059c0.04-0.107,0.079-0.216,0.119-0.323   c2.333-6.33,2.17-16.153-1.082-21.26c-1.727-2.709-4.951-5.231-9.096-3.765c7.536,0.289,10.266,10.483,9.31,18.824   c-0.225,1.979-0.855,3.784-1.605,5.438c-0.074-0.061-0.147-0.124-0.219-0.188c0.755-1.629,1.382-3.438,1.61-5.472   c0.621-5.553-0.889-13.131-3.682-15.943c-1.757-1.77-7.717-4.218-7.365,1.55c0.043-0.082,0.085-0.161,0.128-0.238   c0.015-0.026,0.029-0.05,0.043-0.074c0.029-0.051,0.057-0.101,0.086-0.147c0.017-0.028,0.034-0.057,0.052-0.083   c0.026-0.042,0.052-0.084,0.078-0.123c0.019-0.028,0.037-0.055,0.055-0.082c0.026-0.037,0.051-0.073,0.076-0.109   c0.02-0.025,0.038-0.051,0.057-0.075c0.025-0.034,0.051-0.067,0.076-0.099c0.019-0.024,0.038-0.047,0.057-0.07   c0.025-0.03,0.051-0.061,0.076-0.089c0.019-0.021,0.038-0.043,0.058-0.064c0.025-0.027,0.051-0.054,0.077-0.08   c0.019-0.02,0.039-0.039,0.058-0.058c0.026-0.025,0.053-0.049,0.079-0.072c0.019-0.018,0.038-0.033,0.056-0.05   c0.027-0.024,0.055-0.045,0.083-0.068c0.017-0.013,0.034-0.027,0.051-0.04c0.032-0.023,0.062-0.044,0.094-0.066   c0.014-0.009,0.027-0.02,0.042-0.028c0.091-0.058,0.182-0.107,0.273-0.147c0.013-0.006,0.026-0.011,0.039-0.016   c0.032-0.014,0.064-0.027,0.097-0.038c0.017-0.007,0.033-0.011,0.05-0.016c0.029-0.01,0.058-0.019,0.088-0.026   c0.017-0.004,0.035-0.008,0.053-0.012c0.028-0.007,0.056-0.012,0.084-0.017c0.018-0.003,0.036-0.005,0.054-0.008   c0.028-0.004,0.056-0.007,0.083-0.01c0.018-0.001,0.036-0.002,0.054-0.003c0.028-0.001,0.056-0.002,0.083-0.002   c0.019,0.001,0.036,0.001,0.053,0.001c0.029,0.001,0.057,0.003,0.085,0.006c0.018,0.002,0.034,0.003,0.051,0.005   c0.029,0.003,0.059,0.008,0.089,0.013c0.015,0.003,0.031,0.006,0.047,0.009c0.031,0.006,0.063,0.014,0.095,0.021   c0.014,0.004,0.027,0.006,0.041,0.011c0.037,0.01,0.075,0.021,0.111,0.034c0.008,0.003,0.016,0.006,0.023,0.008   c0.092,0.031,0.184,0.07,0.274,0.117c0.005,0.002,0.01,0.005,0.015,0.007c0.04,0.021,0.079,0.042,0.119,0.064   c0.01,0.006,0.021,0.013,0.031,0.02c0.035,0.02,0.068,0.04,0.103,0.062c0.012,0.008,0.024,0.016,0.037,0.024   c0.032,0.021,0.063,0.043,0.095,0.065c0.013,0.009,0.027,0.019,0.04,0.028c0.03,0.023,0.061,0.047,0.092,0.07   c0.013,0.01,0.026,0.021,0.04,0.031c0.031,0.024,0.062,0.05,0.092,0.076c0.013,0.011,0.026,0.021,0.038,0.032   c0.032,0.026,0.062,0.055,0.094,0.083c0.011,0.012,0.023,0.021,0.035,0.032c0.032,0.03,0.065,0.062,0.097,0.095   c0.01,0.01,0.02,0.019,0.029,0.028c0.035,0.036,0.072,0.071,0.106,0.11c0.007,0.006,0.013,0.012,0.019,0.019   c0.042,0.044,0.083,0.09,0.125,0.137c-0.004-0.003-0.009-0.007-0.013-0.01c-0.048-0.038-0.097-0.075-0.147-0.111   c-0.025-0.018-0.051-0.035-0.076-0.053c-0.033-0.023-0.064-0.045-0.098-0.067c-0.028-0.018-0.056-0.036-0.084-0.053   c-0.032-0.02-0.064-0.04-0.096-0.059c-0.029-0.018-0.057-0.034-0.085-0.05c-0.033-0.019-0.067-0.036-0.1-0.055   c-0.028-0.015-0.056-0.03-0.084-0.044c-0.038-0.019-0.075-0.036-0.112-0.053c-0.026-0.013-0.05-0.024-0.075-0.035   c-0.061-0.026-0.121-0.052-0.182-0.074c-0.021-0.009-0.043-0.016-0.065-0.024c-0.042-0.014-0.083-0.029-0.125-0.042   c-0.026-0.009-0.053-0.017-0.08-0.023c-0.037-0.011-0.074-0.021-0.111-0.031c-0.027-0.007-0.055-0.014-0.082-0.019   c-0.038-0.01-0.074-0.017-0.111-0.023c-0.026-0.005-0.053-0.01-0.079-0.015c-0.04-0.005-0.079-0.01-0.118-0.015   c-0.023-0.002-0.046-0.006-0.069-0.008c-0.057-0.004-0.114-0.007-0.169-0.008c-0.011,0-0.021,0-0.032,0.001   c-0.053,0-0.107,0.003-0.159,0.007c-0.021,0.001-0.042,0.004-0.062,0.006c-0.039,0.005-0.076,0.01-0.114,0.017   c-0.022,0.004-0.044,0.009-0.066,0.014c-0.036,0.008-0.07,0.017-0.105,0.026c-0.022,0.006-0.044,0.013-0.065,0.02   c-0.035,0.012-0.069,0.025-0.104,0.039c-0.02,0.008-0.039,0.016-0.058,0.024c-0.042,0.019-0.081,0.04-0.121,0.063   c-0.011,0.005-0.022,0.011-0.032,0.017c-0.049,0.03-0.097,0.063-0.143,0.101c-0.014,0.01-0.026,0.021-0.039,0.032   c-0.033,0.027-0.065,0.056-0.096,0.087c-0.016,0.016-0.031,0.033-0.046,0.049c-0.026,0.029-0.053,0.06-0.079,0.092   c-0.015,0.019-0.029,0.039-0.044,0.06c-0.024,0.033-0.047,0.068-0.071,0.104c-0.012,0.021-0.026,0.042-0.038,0.064   c-0.024,0.042-0.047,0.088-0.069,0.136c-0.009,0.017-0.019,0.034-0.027,0.054c-0.029,0.066-0.057,0.137-0.082,0.211   c-0.006,0.015-0.009,0.032-0.014,0.047c-0.019,0.062-0.037,0.123-0.053,0.188c-0.006,0.029-0.013,0.06-0.019,0.09   c-0.012,0.056-0.023,0.111-0.033,0.171c-0.005,0.034-0.011,0.069-0.015,0.105c-0.009,0.059-0.015,0.12-0.021,0.183   c-0.003,0.037-0.007,0.074-0.009,0.112c-0.005,0.07-0.008,0.142-0.009,0.215c-0.001,0.035-0.002,0.068-0.002,0.104   c-0.001,0.109,0,0.224,0.006,0.342c0.782-0.084,0.396-1.364,1.297-1.328c1.982-0.316,3.471,1.265,3.683,2.879   c0.287,2.177,0.256,4.658-0.035,7.144c-0.093,0.013-0.188,0.024-0.281,0.036c0.186-2.049,0.174-4.208-0.116-6.293   c0-0.223,0-0.443,0-0.665c-0.516,0.357-0.955,0.796-1.516,1.108c-0.348,5.174-1.9,9.759-3.248,14.394   c-0.225,0.771-0.73,1.837-0.766,2.78c-0.078-0.013-0.155-0.027-0.232-0.041c1.371-5.733,3.816-11.431,3.812-17.799   c-0.251-0.035-0.384,0.048-0.433,0.223c-1.38,2.371-2.592,5.528-3.5,8.999c-0.037,0.096-0.06,0.187-0.069,0.271   c-0.21,0.82-0.403,1.657-0.577,2.506c-0.103-0.071-0.225-0.112-0.351-0.11c1.105-4.439,2.436-8.646,4.279-12.33   c-4.497,2.725-6.468,10.342-5.413,17.272c0.277-1.297,0.565-2.583,0.868-3.853c0.142,0,0.283,0,0.425,0   c-0.074,0.396-0.144,0.796-0.209,1.196c-0.167,1.016-0.646,2.438-0.165,3.287c-1.449-0.446-2.82-1.092-4.186-1.51   c0.006-0.002,0.012-0.003,0.018-0.005c0.547-1.109-0.483-2.937-0.649-4.874c-0.22-2.577,0.275-5.211,0.649-7.307   c-1.536,1.287-2.858,4.638-2.381,8.415c0.149,1.183,0.542,2.783,1.236,3.487c-0.188-0.036-0.377-0.065-0.567-0.087   c-0.952-2.579-1.611-6.099-0.453-8.936c-0.729-0.225-1.983,0.917-2.817,1.327c-0.397,2.684-0.224,6.106,1.176,7.732   c-0.097,0.024-0.195,0.051-0.292,0.081c-1.238-1.845-1.7-4.688-1.1-7.592c-5.512,1.48-1.61,10.627,2.599,9.079   c-0.504-0.312-0.951-0.737-1.333-1.25c0.206,0.016,0.404,0.057,0.593,0.119c0.22,0.164,0.463,0.292,0.731,0.378   c1.565,1.136,1.944,3.838-0.55,4.397c2.741,1.198,4.739-1.869,3.435-4.077c1.597,0.556,3.562,1.431,5.553,1.752   c0.084,0.249,0.229,0.478,0.452,0.675c0.238-0.157,0.461-0.348,0.675-0.561c0.214,0.008,0.427,0.009,0.639-0.001   c-0.197,0.263-0.399,0.505-0.607,0.724c-1.941,0.046-4.134-0.582-5.21-1.302c0.12,1.835-0.792,2.643-1.931,3.219   c1.025,0.519,2.149-0.705,2.79-1.285c1.767,0.756,3.533,0.941,5.103,0.66c0.376,0.405,0.827,0.733,1.357,0.98   c0.05-0.055,0.1-0.111,0.149-0.171c0.015-0.017,0.029-0.034,0.044-0.052c0.037-0.046,0.074-0.092,0.112-0.139   c0.014-0.019,0.028-0.036,0.042-0.054c0.05-0.063,0.099-0.128,0.148-0.196c0.006-0.009,0.013-0.018,0.019-0.026   c0.044-0.06,0.087-0.121,0.13-0.184c0.015-0.022,0.031-0.045,0.046-0.068c0.037-0.054,0.074-0.109,0.11-0.165   c0.014-0.021,0.028-0.042,0.041-0.063c0.049-0.075,0.097-0.152,0.146-0.23c0.01-0.017,0.021-0.034,0.03-0.051   c0.039-0.064,0.078-0.13,0.116-0.195c0.017-0.027,0.033-0.056,0.049-0.084c0.036-0.062,0.071-0.125,0.106-0.188   c0.013-0.024,0.028-0.048,0.042-0.074c0.03-0.055,0.06-0.11,0.09-0.167c0.153-0.105,0.299-0.22,0.441-0.338   c-0.036,0.07-0.074,0.139-0.11,0.208c-0.053,0.099-0.106,0.196-0.161,0.294c-0.043,0.077-0.086,0.153-0.128,0.229   c-0.057,0.099-0.114,0.195-0.171,0.293c-0.042,0.072-0.085,0.144-0.128,0.216c-0.061,0.1-0.123,0.198-0.185,0.297   c-0.041,0.064-0.082,0.13-0.123,0.194c-0.068,0.108-0.14,0.214-0.21,0.319c-0.035,0.053-0.07,0.105-0.105,0.158   c-0.106,0.155-0.214,0.31-0.324,0.46c0.421,1.12,1.542,1.523,2.6,1.993c0.191-0.628,0.498-1.291,0.871-1.993   c0.088,0.145,0.188,0.28,0.295,0.408c-0.328,0.709-0.588,1.384-0.733,2.027c2.404,0.324,3.828-1.566,4.976-4.13   c0.109,0.056,0.218,0.108,0.328,0.158c-0.482,1.048-1.023,2.013-1.621,2.864c0.893-0.695,1.694-1.569,2.397-2.58   c1.501,0.443,3.258,0.342,5.248-0.611c1.385,0.186,1.538,1.606,3.222,1.501c-0.881-0.909-2.146-1.434-1.935-3.435   c-1.042,0.707-2.991,1.264-4.823,1.289c0.251-0.178,0.57-0.585,0.896-0.889c1.92-0.285,3.848-0.963,5.217-1.688   c-0.571,1.874,0.241,5.078,3.649,4.292c-2.087-0.527-2.215-3.166-0.929-4.381c0.352-0.105,0.669-0.3,0.973-0.539   c0.124-0.032,0.253-0.054,0.387-0.065c-0.376,0.456-0.619,0.927-0.658,1.348c0.21,0.082,0.418,0.117,0.627,0.12   c-0.493,0.165-0.821,0.582-0.829,1.372c-0.018,1.775,3.727,1.896,4.938,3.648c0.028,0.042,0.054,0.081,0.081,0.121   c-0.091-0.056-0.181-0.111-0.269-0.168c-0.442,1.209,0.156,1.979,1.053,2.66c0.002,0.129,0,0.258-0.007,0.388   c-0.288-0.208-0.568-0.411-0.828-0.611c-0.141,0.914,0.115,1.585,0.562,2.145c-0.032,0.117-0.067,0.234-0.104,0.352   c-0.081-0.092-0.163-0.186-0.241-0.282c-0.077,0.438-0.094,0.828-0.065,1.182c-0.959,2.606-2.438,5.367-1.04,8.598   c0.174-0.807-0.059-2.414,0.431-3.435c0.222-0.062,0.302,0.433,0.24,0.774c0.518-0.785,0.908-2.306,1.45-3.568   c0.143,0.175,0.291,0.346,0.441,0.519c-0.685,2.012-1.377,4.03-1.704,6.353c0.902-1.602,1.414-3.593,2.362-5.15   c0.281,2.37-1.694,5.445-1.504,7.729c-1.642-1.007-2.329-2.635-2.576-4.293c-0.595-4.026,1.771-6.739,1.504-11.164   c-0.886-1.568-2.637-3.101-4.938-2.575c-0.24,0.471-0.554,0.878-0.429,1.716c2.486,0.651,4.624,0.359,4.938,2.578   c0.417,2.95-3.53,7.482-1.288,11.16c-2.424-2.346-7.162-4.058-11.806-3.22c-1.711,0.311-3.188,1.919-4.724,1.72   c-1.975-0.257-2.295-3.646-0.215-3.65c1.688-0.005,2.056,3.196-0.215,2.575c-0.481-0.132-0.645-0.618-0.645-1.287   c0-1.146-0.221,0.516-0.215,1.287c1.273,1.279,4.485,0.631,4.08-1.716c0.96,0.326,1.711,0.864,3.22,0.642   c-3.12-0.117-5.423-3.843-3.22-6.654c1.063-0.51,3.02-0.127,2.79-1.932c-2.743-1.172-4.742,1.74-4.076,5.366   c-1.503-0.411-2.597-0.411-3.865,0.215c0.084-0.773,0.284-1.432,0.645-1.932c0.081-0.44-1.344,0.472-1.505-0.215   c-0.374,0.389,0.539,1.312,0.43,2.146c-1.157-0.58-2.293-0.738-3.649-0.215c0.169-3.199-1.307-6.714-4.293-5.366   c-0.277,1.781,1.662,1.344,2.575,1.932c2.402,2.195,0.512,6.879-3.005,6.441c0.919,0.621,2.413-0.016,3.005-0.429   c-0.054,2.05,2.801,3.176,4.294,1.716c-0.211-2.733-0.117-1.452-0.646,0c-5.282-0.062,1.878-5.301,1.075-0.431   c-0.516,3.125-3.679,0.454-5.151,0c-4.635-1.423-10.063,0.148-12.881,3.006c1.695-2.74-1.708-8.829-1.501-10.945   c0.236-2.407,2.291-2.144,4.936-2.793c0.126-0.838-0.184-1.245-0.427-1.716c-3.16-0.36-5.526,1.703-4.938,5.365   c0.453,2.829,1.884,5.298,1.504,8.158c-0.246,1.819-1.11,2.864-2.148,4.509c-0.908-2.248-1.365-4.946-2.056-7.411   c0.02-0.031,0.039-0.062,0.057-0.094c1.058,1.606,2.16,3.175,1.999,6.001c0.43-2.561-0.325-4.834-1.257-7.193   c0.131-0.212,0.26-0.425,0.386-0.644c0.52,1.184,1.2,2.521,1.516,3.757c0.378,0.612-0.191-0.55,0-1.071   c0.707,0.85,0.658,2.41,0.43,3.648c1.776-3.255,0.123-6.079-0.855-8.822c0.028-0.094,0.056-0.188,0.082-0.284   c-0.057,0.012-0.112,0.023-0.168,0.036c-0.049-0.146-0.096-0.289-0.14-0.434c0.099-0.018,0.202-0.034,0.309-0.047   c0.146-1.065-0.159-1.63-0.677-1.884c-0.006-0.118-0.009-0.235-0.006-0.354c0.297,0.006,0.598,0.014,0.899,0.023   c0.118-0.323-0.253-1.144,0.217-1.107c-0.209-0.199-0.484-0.378-0.804-0.53c0.045-0.12,0.096-0.239,0.153-0.358   c0.15,0.067,0.296,0.139,0.434,0.225c0.292-0.415,0.479-0.937,0.585-1.543c1.463-1.138,4.15-1.837,4.266-2.951   c0.143-1.387-0.805-1.73-1.954-1.565c-1.979-1.726-4.551-3.187-3.33-7.007c-1.134-0.34-2.046,1.449-2.6,2.437   c1.168,2.002,2.615,3.719,4.507,4.979c-0.112,0.048-0.223,0.097-0.332,0.149c-0.922-0.914-2.396-1.659-3.093-2.693   c-0.127-0.827-0.757-1.145-1.083-1.771c-0.839,0.395-0.504,1.994-1.083,2.656c1.542,0.457,2.883,1.629,4.172,2.464   c-0.042,0.032-0.083,0.064-0.124,0.099c-1.056-0.904-2.663-1.479-4.048-1.898c-0.263,0.69-0.504,1.404-0.433,2.438   c0.221-0.051,0.435-0.075,0.643-0.078c-0.042,0.107-0.08,0.214-0.118,0.32c-0.17-0.013-0.343-0.021-0.525-0.021   c-0.517,0.799-0.209,2.441-0.65,3.319c0.115,0.003,0.237,0.002,0.362,0.001c-0.028,0.21-0.054,0.419-0.074,0.627   c-0.024,0.013-0.048,0.024-0.072,0.038c-0.258,0.621-0.236,1.528-0.216,2.437c0.073-0.044,0.149-0.085,0.228-0.124   c0.007,0.183,0.017,0.365,0.029,0.547c-0.013,0.006-0.027,0.013-0.041,0.02c-0.16,0.658,0.024,1.159,0.237,1.749   c0.107,0.717,0.247,1.431,0.409,2.142c-0.002,0.091-0.005,0.184-0.013,0.28c0.021-0.024,0.041-0.048,0.061-0.072   c0.237,1.018,0.518,2.032,0.815,3.047c0.006,0.243,0.015,0.494,0.028,0.754c0.039-0.086,0.079-0.171,0.118-0.255   c1.07,3.609,2.279,7.252,2.38,11.17c-0.145,0.5-0.711,0.576-0.856,1.074c-0.997-0.064-1.859,0.002-2.363,0.43   c-0.371,2.846,1.292,5.404,1.289,8.584c3.414,0.379,3.934,3.65,5.365,6.012c0.277-0.855-0.541-2.461-0.642-3.65   c1.01,0.709,0.689,2.744,1.287,3.865c0.36-0.867-0.551-2.307-0.429-3.65c0.849,0.512,0.476,2.244,0.859,3.219   c0.624-0.775-0.301-1.836,0-3.004c0.469,0.748,0.479,1.953,0.645,3.004c0.642-0.727-0.288-1.705,0-2.789   c0.326,0.533,0.414,1.305,0.429,2.148c0.396,0.52,0.146-1.416,0.215-1.934c0.37,0.488,0.458,1.258,0.427,2.148   c0.544,0.234,0-1.752,0-2.363c1.005,4.363,1.579,9.154,5.368,10.734c0.903,0.234-0.388-1.279,0.645-1.289   c0.639,0.588-0.052,1.656-0.215,2.148c0.592,0,2.091,1.82,3.22,1.285c0.318,0.184,0.311,0.691,0.43,1.074   c0.584,0.154,0.432-0.428,0.856-0.43c0.116,0.217,1.113,0.951,0.214,0.859c1.225,0.25,1.465-0.703,2.578,0.43   c-0.039-0.539,0.329-0.672,0.642-0.859c0.567,0.15,0.456,0.979,1.075,1.074c0.6-0.068,0.172-0.721,0.644-1.289   c0.585,0.133,0.841,0.59,0.86,1.289c0.872,0.086,0.66-0.914,1.286-1.074c0.312,0.188,0.831,0.17,0.645,0.859   c1.214-0.863,1.038-0.629,2.575-0.215c-0.706-0.43-0.047-0.338,0-1.074c0.663-0.16,0.414,0.59,1.074,0.43   c0.15-1.51,3.105-1.293,3.435-2.359c0.332-0.277-0.58-1.127-0.215-2.148c1.108-0.236,0.311,1.277,0.646,1.289   c3.87-1.496,4.779-5.951,5.364-10.734c0.476,0.422-0.279,1.424,0,2.363c0.294,0.279,0.287-1.562,0.429-2.148   c0.487,0.229,0.083,1.35,0.215,1.934c0.26,0.244,0.394-1.457,0.43-2.148c0.652,0.732-0.153,1.844,0,2.789   c0.468-0.746,0.479-1.951,0.645-3.004c0.663,0.889-0.242,2.039,0,3.221c0.531-0.9,0.375-2.484,0.857-3.436   c0.429,0.938-0.306,2.553-0.428,3.65c0.888-0.828,0.554-2.879,1.286-3.865c0.311,0.891-0.481,2.52-0.645,3.65   c1.044-1.605,2.097-3.197,2.792-5.15c1.042-0.176,1.867-0.564,2.791-0.861c0.084-3.209,1.331-5.25,1.501-8.369   c-0.499-0.717-1.86-0.572-2.79-0.859c-0.648-0.584-0.98-1.846-0.859-3.004c0.317-2.963,1.514-6.268,2.509-9.714   c0.054,0.156,0.102,0.32,0.143,0.492c0.115-0.558,0.159-1.06,0.145-1.518c0.2-0.733,0.385-1.473,0.548-2.214   c0.17,0.279,0.3,0.586,0.375,0.934c0.122-0.756,0.048-1.419-0.159-2.012c0.04-0.221,0.078-0.441,0.113-0.663   C75.634,41.789,75.65,41.868,75.661,41.949z M45.045,31.053c-0.05,0.008-0.099,0.014-0.15,0.02   c-0.133,0.016-0.265,0.026-0.396,0.034c0.835-1.135,1.506-2.659,2.14-4.215c0.761-1.863,1.357-4.346,1.615-7.027   c0.082,0.099,0.16,0.198,0.234,0.3C47.948,24.308,46.704,28.403,45.045,31.053z M49.4,27.647c0.042-0.146,0.082-0.294,0.123-0.442   c0.009-0.031,0.017-0.063,0.025-0.096c0.022-0.086,0.046-0.172,0.067-0.259c0.009-0.031,0.017-0.062,0.025-0.094   c0.074-0.288,0.145-0.58,0.212-0.875c0.005-0.021,0.009-0.043,0.015-0.065c0.021-0.097,0.044-0.194,0.066-0.293   c0.003-0.017,0.006-0.035,0.01-0.053c0.008-0.033,0.016-0.066,0.021-0.101C49.899,26.168,49.708,26.94,49.4,27.647z M50.69,19.507   c0.029-0.969,0.005-1.926-0.078-2.858c0-0.005-0.001-0.008-0.001-0.012c-0.009-0.109-0.021-0.218-0.03-0.325   c0.098,0.625,0.17,1.251,0.217,1.877c0.004,0.039,0.007,0.077,0.01,0.115c0.012,0.166,0.021,0.334,0.029,0.5   c0.004,0.063,0.007,0.127,0.01,0.19c0.008,0.156,0.012,0.314,0.016,0.472c0,0.016,0,0.031,0.001,0.047   C50.807,19.511,50.749,19.508,50.69,19.507z M51.442,32.65c-0.011-0.19-0.031-0.382-0.061-0.574   c0.129-0.229,0.258-0.463,0.387-0.702c0.069,0.086,0.141,0.169,0.216,0.251C51.803,31.973,51.622,32.315,51.442,32.65z    M55.051,32.355c-0.12-0.032-0.237-0.071-0.353-0.111c0.065-0.165,0.131-0.331,0.195-0.499c0.123,0.018,0.247,0.033,0.373,0.045   C55.197,31.98,55.124,32.169,55.051,32.355z M56.668,32.574c-0.184-0.004-0.365-0.015-0.544-0.031   c0.132-0.235,0.259-0.477,0.383-0.723c0.136-0.004,0.273-0.011,0.412-0.021c-0.103,0.212-0.208,0.423-0.316,0.628   C56.621,32.49,56.643,32.539,56.668,32.574z M70.656,45.241c0.369-0.729,0.74-1.635,1.065-2.632c0.114,0.283,0.26,0.544,0.427,0.79   C71.637,44.016,71.133,44.784,70.656,45.241z M29.871,45.026c-0.421-0.17-0.987-0.934-1.57-1.665   c0.152-0.301,0.295-0.619,0.429-0.962C29.063,43.407,29.457,44.314,29.871,45.026z M25.481,32.57   c1.015,0.003,1.897,0.499,2.798,0.985c-0.036,0.091-0.07,0.181-0.102,0.274c-0.79-0.443-1.644-0.82-2.763-0.926   C25.436,32.794,25.458,32.682,25.481,32.57z M25.167,36.178c0.814-0.019,1.738-0.032,2.603,0.125   c-0.003,0.112-0.007,0.227-0.008,0.34c-0.832-0.216-1.77-0.272-2.575-0.096C25.177,36.425,25.171,36.302,25.167,36.178z    M25.593,39.19c-0.032-0.132-0.062-0.265-0.091-0.399c0.713-0.144,1.523-0.189,2.375-0.19c0.009,0.068,0.016,0.138,0.025,0.206   C27.209,38.712,26.337,38.924,25.593,39.19z M26.49,42.048c0.465-0.468,1.014-0.841,1.83-1.058c0.039,0.155,0.081,0.31,0.122,0.462   c-0.773,0.246-1.336,0.63-1.737,1.159C26.633,42.426,26.561,42.237,26.49,42.048z M54.77,47.602c0.598-2.741-2.27-3.334-4.077-2.36   C51.845,42.685,56.737,45.202,54.77,47.602z M50.479,45.671c-0.021,0.584,0.356,0.432,0,0.859   C49.651,46.699,49.651,45.503,50.479,45.671z M45.54,47.602c-1.427-2.783,3.103-4.729,4.293-2.36   C47.823,44.027,45.34,45.262,45.54,47.602z M43.395,84.093c-0.445-0.482-0.64-1.225-1.289-0.426   c-0.735-0.445-1.527-1.373-0.859-2.578c1.043,0.068,0.326,1.26,1.289,0.428c0.424,0.152-0.052,1.199,0.43,1.289   c-0.008-0.65-0.125-1.412,0.645-1.289C43.804,82.114,43.555,83.858,43.395,84.093z M46.399,85.382   c-1.418,0.418-0.787-1.217-1.289-1.715c-0.58,0.061-0.383,0.9-0.856,1.07c-0.378-0.48-0.104-1.615-0.43-2.146   c0.6-0.139,1.045,0.361,1.931-0.213c-0.028,0.385,0.212,0.502,0.645,0.428C46.575,83.962,45.964,84.563,46.399,85.382z    M47.688,85.382c-0.802,0.229-0.341-0.805-1.074-0.645c0.083-1.061,0.316-1.975,1.074-2.359c0.623,0.377,0.233,1.766,0.857,2.145   C48.226,84.776,47.587,84.71,47.688,85.382z M48.545,82.591c-0.606-0.721-0.368-1.104-1.288-1.289c0,0.361,0,0.717,0,1.076   c-0.294-0.012-0.47,0.1-0.644,0.213c-0.251-0.566-0.267-0.746-0.645-0.213c0.039-0.469-0.176-0.684-0.644-0.645   c0.039,0.467-0.176,0.682-0.645,0.645c-0.35-0.797-0.56-1.732-0.857-2.576c-0.421,0.4-0.067,0.785,0,1.287   c-1.1,0.408-0.861-0.299-1.718,0c-0.37-0.129,0.018-1.018-0.43-1.072c0.013,0.367-0.163,0.549-0.429,0.643   c-0.306-0.553-0.502-1.215-1.287-1.287c-0.049,0.406,0.241,0.473,0.215,0.859c-2.606-1.188-3.867-4.863-3.649-8.158   c2.151,1.191,3.147,4.266,3.22,6.869c0.311-1.68,2.327-0.727,3.005,0.215c0.066-0.291,0.305-0.408,0.214-0.859   c0.797-0.225,0.422,0.725,0.859,0.859c0.036-0.252,0.339-0.232,0.644-0.215c0-0.357,0-0.715,0-1.074   c1.673-0.098,0.368,2.783,1.287,3.434c0.562-0.941,0.329-2.676,1.503-3.004c0.282,0.719,0.189,1.814,0.645,2.361   c0.184-3.605,3.036-2.045,2.146,1.502c-0.841,0.34-0.444-0.555-0.858-0.645C49.231,82.134,49.215,82.69,48.545,82.591z    M51.336,85.597c-1.352,0.139-0.364-2.068-1.288-2.359c-0.016,1.059,0.182,2.326-0.858,2.359c-0.146-0.857-0.469-1.535-0.431-2.574   c0.854-0.746,2.154-0.746,3.005,0C51.804,84.062,51.483,84.739,51.336,85.597z M52.839,85.382c0.161-0.805-0.82-0.469-0.856-1.074   c0.823-0.176,0.062-1.938,1.071-1.93c0.479,0.594,0.826,1.32,0.859,2.359C53.178,84.577,53.639,85.61,52.839,85.382z    M56.059,84.737c-0.122-0.523-0.183-1.104-0.86-1.07c0.024,0.949,0.116,1.971-1.07,1.715c0.436-0.818-0.177-1.42,0-2.576   c0.338-0.02,0.743,0.029,0.642-0.428c0.888,0.574,1.334,0.074,1.935,0.213C56.426,83.241,56.753,84.503,56.059,84.737z    M59.278,83.237c-1.118-0.35-0.546,0.664-1.716,0c0.274,0.588-0.626,1.047-0.645,0.643c0.304-0.334-0.352-1.873,0-2.363   c0.989-0.271,0.341,1.09,0.858,1.289c-0.027-0.529-0.032-1.035,0.216-1.289c0.961,0.832,0.243-0.359,1.286-0.428   C59.559,81.712,59.559,82.612,59.278,83.237z M60.354,80.231c-0.206-0.4,0.64-0.719,0-0.859c-0.672,0.189-0.705,1.012-1.291,1.287   c-0.104-0.254-0.228-0.488-0.43-0.643c0.07,0.498-0.033,0.824-0.214,1.072c-0.723-0.348-0.979,0.602-1.716-0.215   c0.475-0.09,0.203-1.176-0.216-1.072c0.172,1.246-0.477,1.67-0.645,2.576c-0.846-0.221-0.988-1.012-1.5,0   c-0.032-0.254,0.035-0.609-0.216-0.645c0.06,0.561-0.08,0.922-0.646,0.857c-0.424-0.148,0.053-1.197-0.429-1.289   c-0.719,0.172-0.408,0.912-1.289,1.289c-0.742,0.102-0.121-1.164-0.641-1.289c-0.049,0.381,0.213,1.078-0.432,0.859   c-1.309-3.373,1.704-5.072,2.146-1.502c0.127-0.873,0.1-1.906,0.644-2.361c1.026,0.477,0.567,2.438,1.502,3.004   c0.464-1.037-0.46-3.465,1.074-3.434c0.117,0.312-0.251,1.111,0.215,1.074c0.298-0.012,0.472,0.102,0.645,0.215   c-0.062-0.562,0.078-0.924,0.645-0.859c-0.062,0.49,0.051,0.809,0.43,0.859c0.533-1.262,2.495-1.617,3.006-0.215   c-0.354-2.977,1.026-5.75,3.219-6.869C63.875,75.737,63.071,78.942,60.354,80.231z M73.231,61.126c0.197,1.857-0.468,2.664,0,4.078   c0.185-0.963,0.288-2.004,0.859-2.574c-0.221,3.643-1.558,6.17-4.509,7.082c0.287,0,0.572,0,0.859,0   c-0.116,0.984-0.915,0.809-1.719,0.646c0.368-0.779,0.537-1.756,0.43-3.01c1.896,0.275,4.021-1.9,3.221-4.291   c-0.226,2.42-1.846,3.449-4.721,3.221c1.166,1.014,0.612,4.574-0.86,4.08c1.704-1.422,0.691-3.879-0.859-4.295   c-2.233-0.604-4.177,1.199-6.869,0.645c-2.971-0.613-2.964-3.846-5.795-4.508c1.598,2.479,2.58,5.574,3.22,9.014   c0.626-1.783-0.787-4.299-0.645-5.58c2.093,5.668,7.506-1.141,11.164,1.932c1.055,2.572-2.855,3.621-2.791,1.934   c0.196,0.373,0.671,0.473,1.287,0.428c0.441-0.418,1.048-0.668,1.073-1.502c-0.072-0.5-0.22-0.926-0.645-1.076   c0.625,0.67,0.306,1.367-0.214,1.936c-0.357,0-0.714,0-1.072,0c-0.808-0.328-0.096-1.842-0.43-2.146   c-1.571,0.479-1.351,2.674-0.429,3.646c-1.398-0.312-1.444-2.268-0.86-3.436c-1.599,0.551-2.456,2.982-2.146,4.725   c0.29-1,0.394-2.182,1.286-2.574c1.09,2.119,0.179,2.279-0.645,4.508c-0.45,1.227-0.603,2.102-1.069,3.221   c-0.253-2.186,1.14-3.865,0.857-5.369c-0.37,0.85-0.504,1.928-1.074,2.574c-0.23-0.555-0.137-1.436-0.645-1.715   c0.114,1.25,0.746,3.111,0.215,4.293c-0.287-1.275,0.078,0.82-0.645,0.428c-0.085-1.846-0.147-3.713-1.071-4.721   c0.197,1.25,0.624,4.258-0.216,5.15c-0.985-0.875-0.788-2.932-1.288-4.291c-0.191,1.271,0.292,2.988,0,3.65   c-0.323-0.395-0.228-1.203-0.645-1.506c0,0.574,0,1.145,0,1.717c-1.098,0.168-0.547-1.312-1.286-1.5   c-0.132,0.512,0.27,1.557-0.214,1.715c-0.169-0.691-0.451-1.268-0.861-1.715c0.097,0.732,0.581,1.84-0.429,1.93   c-0.356-0.43,0.019-1.592-0.43-1.93c-0.126,0.443,0.267,1.41-0.215,1.5c-0.371-0.129,0.018-1.018-0.427-1.072   c0.025,0.529,0.03,1.033-0.218,1.287c-1.459,0.223-1.545,0.223-3.005,0c-0.421-0.146,0.054-1.195-0.43-1.287   c0.034,0.531,0.042,1.041-0.427,1.072c-0.129-0.443,0.265-1.408-0.214-1.5c-0.008,0.777,0.12,1.695-0.43,1.93   c-0.978-0.24,0.122-1.584-0.429-1.93c-0.167,0.689-0.451,1.268-0.86,1.715c-0.129-0.512,0.269-1.557-0.215-1.715   c-0.331,0.525-0.129,1.586-1.074,1.5c-0.129-0.512,0.272-1.555-0.213-1.717c-0.077,0.641-0.124,1.309-0.644,1.506   c0.158-0.922,0.492-2.795,0-3.65c-0.101,1.76-0.13,3.59-1.289,4.291c-0.52-1.213-0.028-4.283-0.215-5.15   c-0.533,1.326-0.875,2.846-0.859,4.721c-0.779,0.213-0.179-1.125-0.857-0.428c-0.176-1.539,0.525-3.332,0.215-4.293   c-0.23,0.557-0.137,1.436-0.645,1.715c-0.288-0.928-0.466-1.965-1.074-2.574c0.197,1.736,1.48,3.527,0.859,5.369   c0.166-3.594-3.204-5.035-1.503-7.729c1.027,0.33,0.877,1.842,1.503,2.574c-0.106-2.041-0.906-4.529-2.361-4.508   c0.833,0.922,0.192,3.658-1.074,3.004c1.47-0.439,1.245-3.354-0.43-3.432c0.292,0.65,0.347,1.768-0.215,2.146   c-0.357,0-0.714,0-1.074,0c-0.812-0.518-0.373-1.547-0.427-1.936c-0.125,0.451-0.533,0.615-0.43,1.289   c0.197,1.088,1.677,1.701,2.576,0.861c-0.756,1.834-3.828,0.447-3.005-1.934c2.146-2.904,5.13,0.662,7.514,0.645   c1.946-0.014,2.505-1.336,3.862-2.576c-0.365,1.537-1.579,4.125-0.642,5.58c-0.013-3.805,2.013-6.713,2.79-9.014   c-2.343,0.814-2.915,3.969-5.583,4.508c-2.254,0.453-4.118-0.945-7.082-0.645c-1.602,0.508-2.011,3.383-0.645,4.506   c-1.996-0.154-1.452-3.498-1.074-4.291c-2.915,0.34-3.989-1.162-4.724-3.004c-0.194,2.646,1.6,4.139,3.435,4.074   c-0.106,1.254,0.062,2.23,0.429,3.01c-0.926-0.006-1.204,0.393-1.716-0.217c-0.344-0.846,0.927-0.074,0.859-0.643   c-3.261-0.463-4.605-3.982-4.294-7.299c0.125,1.164,0.407,2.168,0.86,3.004c-0.024-1.334-0.357-2.363-0.215-3.863   c1.729-0.438,1.056,2.658,2.146,2.148c-1.263-3.012-0.673-7.414,0.859-9.662c-0.645,2.289-1.252,6.535,0.43,8.158   c-2.847-8.982,5.454-14.94,13.309-13.524c2.362,0.427,5.499,2.928,6.009-0.859c-0.019,4.769-5.018,1.527-6.869,1.289   c2.001,0.725,4.757,3.661,6.869,1.074c2.416,2.33,5.428,0.003,7.299-1.289c-2.321,1.101-6.716,3.177-7.085-1.074   c0.579,0.64,1.04,1.925,1.932,2.147c1.47,0.363,3.075-1.058,4.51-1.288c7.981-1.278,15.224,4.667,13.522,13.093   c1.193-1.574,0.396-6.462,0.215-7.513c1.131,2.345,1.352,4.771,1.287,7.944c-0.288,0.498-0.354,1.219-0.643,1.717   C72.317,63.36,71.656,61.126,73.231,61.126z M70.581,31.64c-0.166-0.101-0.343-0.198-0.525-0.291   c0.277-0.128,0.562-0.23,0.842-0.25c1.41-0.104,2.312,0.705,3.556,1.07c0.065,0.356,0.116,0.702,0.162,1.043   C73.782,32.052,72.074,31.387,70.581,31.64z M73.594,42.689c-0.054-0.071-0.111-0.143-0.17-0.213   c0.008-0.008,0.014-0.018,0.022-0.025c-0.013,0-0.025,0.003-0.039,0.004c-0.388-0.467-0.822-0.906-1.246-1.361   c0.031-0.122,0.062-0.246,0.091-0.369c0.458,0.445,1.022,0.831,1.564,1.244C73.744,42.21,73.67,42.451,73.594,42.689z    M74.224,40.46c-0.504-0.504-1.085-0.948-1.654-1.365c0.019-0.12,0.035-0.239,0.052-0.359c0.564,0.385,1.188,0.761,1.725,1.195   C74.307,40.108,74.267,40.284,74.224,40.46z M74.652,38.138c-0.541-0.544-1.211-0.99-1.887-1.397   c0.001-0.132-0.001-0.265-0.005-0.395c0.715,0.317,1.427,0.633,1.96,1.136C74.701,37.702,74.679,37.921,74.652,38.138z    M72.416,34.036c-0.034-0.11-0.069-0.219-0.108-0.325c1.005,0.186,1.96,0.475,2.471,1.308c0.011,0.246,0.015,0.487,0.016,0.726   C74.263,34.96,73.443,34.366,72.416,34.036z"></path></g></svg>