<svg fill="#869eac" xmlns="http://www.w3.org/2000/svg" data-name="Your Icon" viewBox="0 0 90.01 87.36" x="0px" y="0px"><title>rocks</title><path d="M69.16,76.6A0.8,0.8,0,0,0,69,76.32a0.81,0.81,0,0,0-.11-0.16L56.22,67.88l-9-7.27a1.78,1.78,0,0,1-.53-0.21l-10.85-.58L22.21,55.91h0a0.89,0.89,0,0,0-.3,0,0.87,0.87,0,0,0-.41.08h0L17.21,58.8a0.82,0.82,0,0,0-.13.19,0.67,0.67,0,0,0-.22.63,0.83,0.83,0,0,0,0,.23l0.64,2-4.41,2.27a0.83,0.83,0,0,0-.17.2,1.67,1.67,0,0,0-.3.85l0.87,3.5a0.89,0.89,0,0,0,.25.38,0.8,0.8,0,0,0,.06.11l28.17,23.2h0l0.06,0a0.91,0.91,0,0,0,.52.18,0.81,0.81,0,0,0,.22,0l24.08-6a0.82,0.82,0,0,0,.13-0.1,0.84,0.84,0,0,0,.28-0.16s0,0,.06,0a0.81,0.81,0,0,0,0-.08A0.79,0.79,0,0,0,67.42,86a0.83,0.83,0,0,0,.09-0.16l1.75-8.76a0.82,0.82,0,0,0,0-.18A0.79,0.79,0,0,0,69.16,76.6ZM14.56,65.46l4.14-2.13,10.75,2.76,0.23,0h0l5.93-.22L43,66.32,60,81.14,42.64,90.57,15.18,67.95Zm6.91-7.24a0.92,0.92,0,0,0,.28.63l4.75,4.57-7.18-1.84L18.81,60Zm40,24.22,3.19,2.79L49.33,89ZM66,83.94L44,64.71a0.83,0.83,0,0,0-.27-0.09,0.84,0.84,0,0,0-.28-0.14L35.72,64l0,0,0,0L30,64.25l-6.19-5.94,11.55,3.32,0.19,0h0l10.65,0.57,8.81,7.11,0.05,0s0,0,0,0l12.17,8Z" transform="translate(-4.99 -5.24)"></path><path d="M41.68,39.22a0.85,0.85,0,0,0,0,.34l2.7,5.25a0.93,0.93,0,0,0,.33.35v0l8.39,5.11a0.86,0.86,0,0,0,.12,0s0,0,.06,0l10.07,3.5a1,1,0,0,0,.3.05,0.93,0.93,0,0,0,.53-0.17h0l11.53-8.17s0,0,0,0A3.56,3.56,0,0,0,76.12,45s0,0,0,0l0.29-3.07h0a0.92,0.92,0,0,0-.1-0.34,0.94,0.94,0,0,0-.11-0.33h0l-11-12.69a0.78,0.78,0,0,0-.11-0.06A0.83,0.83,0,0,0,65,28.3l-5.88-3.94a0.74,0.74,0,0,1-.42-0.15h0a1.75,1.75,0,0,0-.43.13,0.89,0.89,0,0,0-.24.1h0l-5.62,5.11s0,0,0,0l0,0-5,5.59-5.27,3.14a0.84,0.84,0,0,0-.19.26A0.49,0.49,0,0,0,41.68,39.22Zm12-8.33,3.78-3.44L56.7,34.73l-4.8,1.55-3.18.16Zm8.82-2.05-3.46,1.29,0.36-3.37Zm-17,9.61,6.61-.34h0a0.94,0.94,0,0,0,.21,0l5.5-1.77a720.2,720.2,0,0,0,.42-0.36,0.8,0.8,0,0,0,.13-0.26,0.83,0.83,0,0,0,.09-0.17l0.36-3.37,0.14,0,5.27-2,3.63,4.2,1.47,5.74L58.07,49.22a0.88,0.88,0,0,0-.3.74L54,48.66l-8.08-4.92-2.18-4.25Zm28.83,5.87L63.54,52,59.4,50.53,71,41.17A0.81,0.81,0,0,0,71.06,41a1,1,0,0,0,.21-0.64,0.82,0.82,0,0,0,0-.17l-0.7-2.72,3.95,4.57Z" transform="translate(-4.99 -5.24)"></path><path d="M12.9,42.69h2.49l1,2.82h0a0.89,0.89,0,0,0,.43.47s0,0,0,0a0.93,0.93,0,0,0,.39.09,1,1,0,0,0,.31-0.05s0,0,.06-0.05a0.9,0.9,0,0,0,.45-0.41h0l1.35-2.9H26l0.18,0a0.84,0.84,0,0,0,.23-0.15,0.93,0.93,0,0,0,.25-0.11h0l6-6.35a0.83,0.83,0,0,0,0-.12,0.84,0.84,0,0,0,.14-0.18l2.48-6.35a0.81,0.81,0,0,0,0-.17,0.92,0.92,0,0,0-.14-0.66,0.82,0.82,0,0,0-.07-0.16L30.34,23.6a0.83,0.83,0,0,0-.25-0.1,0.83,0.83,0,0,0-.21-0.15l-9-2a0.82,0.82,0,0,0-.13,0,0.83,0.83,0,0,0-.32.06,0.88,0.88,0,0,0-.24,0L10.08,27.85a0.81,0.81,0,0,0-.06.08,0.8,0.8,0,0,0-.09,0L5.26,32.42a0.84,0.84,0,0,0-.13.3,0.5,0.5,0,0,0,0,.64,0.84,0.84,0,0,0,.09.31l7,8.68h0l0,0A0.9,0.9,0,0,0,12.9,42.69ZM11.14,29.37l4.66-2.94L11,32l-2.7.14ZM29.22,25.1l4.2,4.2-2.19,5.61-1.81,1.92-4.59-5.19,0,0-0.09-.07a0.83,0.83,0,0,0-.29-0.12,0.93,0.93,0,0,0-.22-0.1H24.09l-10.56.53L21,23.31ZM16.91,41.45a0.82,0.82,0,0,0-.14-0.15,0.78,0.78,0,0,0-.54-0.38A0.82,0.82,0,0,0,16,40.84H15.43L23.54,34l0.31,1.54a0.87,0.87,0,0,0-.37.16l-5.25,5.46a0.8,0.8,0,0,0-.06.15,0.81,0.81,0,0,0-.11.1l-0.66,1.4Zm4.55-8.14L18.2,36.07,12,33.78Zm2.79,4.22,0.66,3.32H21.06Zm2.35,2.3-0.88-4.4,2.4,2.72,0,0Zm-10-2.38-3.55,3L8.1,34.34Z" transform="translate(-4.99 -5.24)"></path><path d="M61.15,8.23h0l3.55,10,1.15,6.05a0.83,0.83,0,0,0,.12.2,0.83,0.83,0,0,0,0,.17,0.75,0.75,0,0,0,.09,0,0.89,0.89,0,0,0,.66.34l0.17,0A0.82,0.82,0,0,0,67,24.94a0.87,0.87,0,0,0,.26-0.08l8.61-6.27v0A0.92,0.92,0,0,0,76.27,18l1-4.89a0.84,0.84,0,0,0-.05-0.27,0.83,0.83,0,0,0,0-.26l-1-2.59a0.84,0.84,0,0,0-.27-0.69l-1-2.63a0.82,0.82,0,0,0-.1-0.1,1.17,1.17,0,0,0-.54-0.41,0.82,0.82,0,0,0-.12-0.07l-7.3-.87a0.87,0.87,0,0,0-.21.06,0.83,0.83,0,0,0-.22,0L61.69,7a0.84,0.84,0,0,0-.22.21,0.93,0.93,0,0,0-.29.27,1,1,0,0,0,0,.3,0.85,0.85,0,0,0,0,.4h0Zm5.72-1.13,6.53,0.78,0.89,2.26L70.65,19h-3.9l0,0-0.22-1.16s0,0,0-.06,0-.05,0-0.08L63.19,8.46ZM75.42,13L74.53,17.3l-1.7,1.24,2.43-5.9ZM67.06,20.8h2.65l-2.33,1.7Z" transform="translate(-4.99 -5.24)"></path><path d="M94.88,66.2A0.89,0.89,0,0,0,95,65.85s0,0,0,0L93.83,53.23a0.83,0.83,0,0,0-.09-0.17,0.33,0.33,0,0,0-.18-0.33,0.79,0.79,0,0,0-.26-0.19,0.82,0.82,0,0,0-.14-0.11l-0.06,0h0L84,49.84a0.78,0.78,0,0,0-.22,0,0.85,0.85,0,0,0-.21,0l-7,1.4a0.84,0.84,0,0,0-.17.11,0.81,0.81,0,0,0-.28.19,0.79,0.79,0,0,0-.18.29,0.82,0.82,0,0,0-.11.17L73.61,65.17a0.82,0.82,0,0,0,0,.15,0.8,0.8,0,0,0,0,.26,0.62,0.62,0,0,0,.22.36,0.82,0.82,0,0,0,.08.13l11.24,8.17a0.93,0.93,0,0,0,1.1,0l3.5-2.63h0s0,0,0-.06l0,0,4.82-5s0,0,0,0A0.9,0.9,0,0,0,94.88,66.2Zm-9.13,6.14L80.6,68.6l6.75,2.54Zm7.37-6.78-2.3,2.37,1.74-8.38ZM77.52,52.91l6.16-1.23L91.83,54,88.58,69.62l-13-4.9Z" transform="translate(-4.99 -5.24)"></path></svg>
