<svg fill="#747c83" xmlns="http://www.w3.org/2000/svg" xmlns:xlink="http://www.w3.org/1999/xlink" version="1.1" x="0px" y="0px" viewBox="0 0 512 512" enable-background="new 0 0 512 512" xml:space="preserve"><g><path d="M407.8,291.4c-97.9-33.8-205.7-33.8-303.6,0C74,301.8,53.7,328.5,53.7,358v137.9c0,7.8,6.3,14.1,14.1,14.1h376.3   c7.8,0,14.1-6.3,14.1-14.1V358C458.3,328.5,438,301.8,407.8,291.4z M316.1,298.4v83H195.9v-83C235.8,292.9,276.2,292.9,316.1,298.4   z M367.6,481.8H144.4v-72.2h223.2V481.8z M82,358c0-17.7,12.3-33.3,31.4-39.9c17.8-6.1,35.9-11.1,54.3-14.8v78.2h-37.4   c-7.8,0-14.1,6.3-14.1,14.1v86.3H82V358z M430,481.8h-34.2v-86.3c0-7.8-6.3-14.1-14.1-14.1h-37.4v-78.2   c18.4,3.8,36.5,8.7,54.3,14.8c19.1,6.6,31.4,22.3,31.4,39.9V481.8z"></path><path d="M142.2,146.6h9.9c6.3,59.9,50.1,105.1,103.9,105.1c53.8,0,97.6-45.3,103.9-105.1h9.9c7.8,0,14.1-6.3,14.1-14.1   c0-7.8-6.3-14.1-14.1-14.1C368.7,54,318.1,2,256,2c-62.1,0-112.7,52-113.8,116.4c-7.8,0-14.1,6.3-14.1,14.1   C128.1,140.3,134.4,146.6,142.2,146.6z M256,223.5c-37.6,0-69.4-33.5-75.4-76.9h150.7C325.4,190,293.6,223.5,256,223.5z    M270.1,31.6c39.9,7,70.5,43.1,71.5,86.8h-43.8c2.1-5.2,3.3-10.9,3.3-16.9c0-19.9-13-36.8-31-42.8V31.6z M256,84.7   c9.3,0,16.9,7.6,16.9,16.9c0,9.3-7.6,16.9-16.9,16.9c-9.3,0-16.9-7.6-16.9-16.9C239.1,92.2,246.7,84.7,256,84.7z M241.9,31.6v27.2   c-18,5.9-31,22.9-31,42.8c0,6,1.2,11.6,3.3,16.9h-43.8C171.4,74.6,202,38.6,241.9,31.6z"></path></g></svg>