<svg fill="#1142A1" enable-background="new 0 0 100 100" version="1.1" viewBox="0 0 100 100" xml:space="preserve" xmlns="http://www.w3.org/2000/svg" xmlns:cc="http://creativecommons.org/ns#" xmlns:dc="http://purl.org/dc/elements/1.1/" xmlns:rdf="http://www.w3.org/1999/02/22-rdf-syntax-ns#"><metadata><rdf:RDF><cc:Work rdf:about=""><dc:format>image/svg+xml</dc:format><dc:type rdf:resource="http://purl.org/dc/dcmitype/StillImage"/><dc:title/></cc:Work></rdf:RDF></metadata><path d="m91.884 74.732h-15.294v-51.637c0-6.04-4.946-10.771-11.262-10.771h-47.694c-6.104 0-11.263 5.287-11.263 11.546 0 1.332 1.079 2.411 2.41 2.411h15.294v50.862c0 6.211 5.053 11.264 11.264 11.264h47.692c6.211 0 11.264-5.053 11.264-11.264 0-1.331-1.079-2.411-2.411-2.411zm-80.246-53.273c0.952-2.495 3.313-4.312 5.996-4.312 2.807 0 5.199 1.803 6.081 4.312h-12.077zm30.141 55.685c0 3.552-2.889 6.44-6.44 6.44s-6.441-2.889-6.441-6.44v-53.557c0-2.395-0.753-4.614-2.031-6.44h38.462c3.671 0 6.44 2.558 6.44 5.948v51.638h-27.578c-1.332-1e-3 -2.412 1.079-2.412 2.411zm41.252 6.44h-38.457c0.836-1.193 1.446-2.559 1.768-4.029h42.662c-0.955 2.361-3.273 4.029-5.973 4.029z"/><g transform="matrix(.4 0 0 .4 29.121 28.494)"><path d="m21.311 76.52c0.588 0.486 1.129 1.042 1.595 1.65 0.988-0.987 1.975-1.975 2.962-2.962l-1.623-1.623c-0.978 0.978-1.956 1.957-2.934 2.935z"/><g fill="none"><path d="m19.026 77.635c-1.535-0.91-3.269-1.103-4.488 0.14-3.276 3.336 3.651 10.236 7.142 7.142 1.156-1.305 0.908-3.095-0.025-4.652-0.877-0.877-1.753-1.753-2.629-2.63z"/><path d="m25.862 71.968 1.623 1.623c1.006-1.006 2.011-2.012 3.017-3.017l-1.623-1.623c-1.005 1.006-2.011 2.012-3.017 3.017z"/><path d="m78.354 15.455c-2.771 2.062-5.153 5.153-7.589 7.589l-14.036 14.036c-6.207 6.207-12.245 12.683-18.652 18.693 0.741 0.735 1.425 1.658 1.872 2.115 13.688-13.689 27.377-27.378 41.067-41.067 1.042-1.042 2.659 0.575 1.617 1.616-13.684 13.684-27.367 27.368-41.051 41.052 0.683 0.659 1.361 1.325 2.018 2.008 2.291-2.291 4.582-4.583 6.873-6.874 9.255-9.256 18.512-18.511 27.769-27.768 1.438-1.439 2.878-2.879 4.317-4.319 0.415-0.415 1.547-1.635 1.453-1.493 2.067-3.131 3.505-6.954 5.008-10.552-1.667 0.777-3.333 1.555-5 2.332-1.572 0.733-4.907 2.067-5.666 2.632z"/><path d="m30.497 67.334 1.623 1.623 3.017-3.018-1.623-1.623z"/></g><path d="m92.345 8.006c-6e-3 -0.03-7e-3 -0.062-0.015-0.092-0.026-0.097-0.068-0.184-0.118-0.27-0.015-0.026-0.025-0.053-0.042-0.078-0.044-0.062-0.097-0.114-0.152-0.167-0.041-0.041-0.078-0.082-0.125-0.116-0.031-0.022-0.065-0.037-0.1-0.056-0.084-0.05-0.171-0.092-0.266-0.118-8e-3 -2e-3 -0.016-2e-3 -0.022-4e-3 -0.119-0.03-0.241-0.039-0.368-0.025-0.025 2e-3 -0.052 0.012-0.077 0.016-0.09 0.016-0.179 0.035-0.27 0.076-0.036 0.014-0.071 0.014-0.108 0.031-4.342 2.024-9.614 3.619-13.557 6.322-2.137 1.464-3.942 3.867-5.764 5.688-9.383 9.382-18.766 18.766-28.148 28.149-2.224 2.224-4.396 4.532-6.67 6.715l-1.373-1.367c-5.74 1.25-4.67 6.62-4.67 6.62s0.062 1.618 1.153 3.613l-3.583 3.582c-1.544 1.544-3.088 3.09-4.634 4.635-1.366 1.365-2.731 2.73-4.097 4.098-2.149-0.996-4.555-0.967-6.419 0.897-5.324 5.326 4.313 15.054 10.058 10.628 0.11-0.06 0.218-0.138 0.319-0.251 0.113-0.101 0.191-0.209 0.251-0.319 1.395-1.811 1.386-4.005 0.548-5.999 1.399-1.398 2.799-2.798 4.198-4.197 1e-3 -1e-3 1e-3 -2e-3 2e-3 -3e-3 1.543-1.543 3.087-3.086 4.63-4.631l3.627-3.627c2.046 1.136 3.545 1.176 3.696 1.204 5.54 0.62 6.54-4.68 6.54-4.68l-1.373-1.367c6.369-6.368 12.738-12.738 19.106-19.106 4.779-4.78 9.56-9.56 14.339-14.339 2.187-2.186 5.01-4.339 6.844-6.842 2.87-3.921 4.484-9.44 6.543-13.855 0.021-0.046 0.022-0.09 0.038-0.135 0.016-0.04 0.021-0.078 0.032-0.117 0.02-0.08 0.042-0.158 0.046-0.234 8e-3 -0.097-3e-3 -0.188-0.019-0.279zm-70.665 76.91c-3.491 3.095-10.418-3.806-7.142-7.142 1.219-1.242 2.954-1.05 4.488-0.14 0.876 0.877 1.752 1.753 2.628 2.629 0.934 1.558 1.182 3.348 0.026 4.653zm1.225-6.746c-0.466-0.608-1.007-1.164-1.595-1.65 0.979-0.978 1.957-1.956 2.935-2.935l1.623 1.623c-0.988 0.987-1.975 1.975-2.963 2.962zm4.58-4.579-1.623-1.623 3.017-3.017 1.623 1.623-3.017 3.017zm4.634-4.634-1.623-1.623 2.484-2.484c0.282 0.328 0.589 0.657 0.939 0.98 0.24 0.222 0.477 0.424 0.711 0.614zm6.981-3.167c-0.062-0.019-0.631-0.108-1.495-0.595-0.018-0.021-0.023-0.044-0.043-0.064-1.08-1.08-2.16-2.159-3.24-3.239-0.026-0.026-0.062-0.036-0.091-0.06-0.448-0.824-0.561-1.412-0.561-1.412s-0.7-2.51 0.59-4.31l9.41 9.01s-1.81 1.36-4.57 0.67zm44.913-44.747c0.094-0.142-1.038 1.078-1.453 1.493-1.439 1.439-2.879 2.879-4.317 4.319-9.257 9.256-18.514 18.511-27.769 27.768-2.225 2.226-4.451 4.452-6.676 6.677l-2.017-2.009c13.618-13.618 27.236-27.236 40.853-40.854 1.042-1.041-0.575-2.659-1.617-1.616-13.621 13.618-27.24 27.238-40.858 40.857l-1.996-1.988c6.375-5.986 12.387-12.43 18.566-18.609l14.036-14.036c2.436-2.436 4.817-5.527 7.589-7.589 0.76-0.565 4.095-1.899 5.667-2.632 1.667-0.777 3.333-1.555 5-2.332-1.503 3.598-2.941 7.421-5.008 10.551z"/></g></svg>
