<svg fill="#747c83" xmlns="http://www.w3.org/2000/svg" xmlns:xlink="http://www.w3.org/1999/xlink" version="1.1" x="0px" y="0px" viewBox="0 0 100 100" enable-background="new 0 0 100 100" xml:space="preserve"><g><g><g><g><g><g><rect x="46.9" y="75.1" width="6.6" height="17.5"></rect></g></g></g></g></g><g><g><g><g><g><path d="M50.2,75.7C50.2,75.7,50.2,75.7,50.2,75.7c-1.4,0-2.7-0.7-3.4-1.9c-0.5-0.9-0.7-1.9-0.4-2.9c0.3-1,0.9-1.8,1.8-2.4        c0.6-0.3,1.3-0.5,1.9-0.5c1.4,0,2.7,0.7,3.4,1.9c1.1,1.9,0.4,4.2-1.4,5.3C51.6,75.5,50.9,75.7,50.2,75.7z M50.2,69.2        c-0.5,0-0.9,0.1-1.3,0.3c-0.6,0.3-1,0.9-1.2,1.6c-0.2,0.7-0.1,1.4,0.3,2c0.5,0.8,1.3,1.3,2.2,1.3h0c0.5,0,0.9-0.1,1.3-0.3        c1.2-0.7,1.7-2.3,0.9-3.5C52,69.7,51.1,69.2,50.2,69.2z"></path></g></g></g></g></g><g><g><g><g><g><path d="M42.3,78.4l-0.5-0.8c-0.7-1-1-2.2-1-3.5c0-1.7,0.6-3.1,1.8-4.3c1.2-1.2,2.7-1.8,4.4-1.8c0,0,0.1,0,0.1,0        c0.7,0,1.5,0,2.3,0.1c1,0.1,2.1,0.2,3.2,0.2c1.7,0,3.3-0.9,4.2-2.3l0.5-0.8l0.5,0.8c0.7,1,1,2.2,1,3.5c0,1.7-0.6,3.2-1.8,4.4        c-1.1,1.1-2.5,1.8-4,1.9c-0.2,0.2-0.5,0.3-0.9,0.3c0,0,0,0,0,0c-0.6,0-1.3-0.2-2.2-0.3c-0.9-0.2-2-0.4-2.8-0.4        c-1.7,0-3.3,0.8-4.2,2.3L42.3,78.4z M47,69C47,69,47,69,47,69c-2.8,0-5,2.3-5,5c0,0.7,0.1,1.3,0.4,1.9c1.2-1.3,2.9-2,4.6-2        c0.9,0,2,0.4,3,0.6c0.8,0.2,1.6,0.5,2,0.5c0,0,0,0,0,0l0-0.4l0.5-0.1c2.7-0.1,4.9-2.3,4.9-5.1c0-0.7-0.1-1.3-0.4-1.9        c-1.2,1.3-2.9,2-4.6,2c-1.1,0-2.3-0.2-3.3-0.3C48.4,69.1,47.6,69,47,69z"></path></g></g></g></g></g><g><g><g><g><g><path d="M55.9,32l-1.2-0.1l1.2-15.3c-0.1-3.1-2.6-5.7-5.7-5.7H50v-1h0.2c3.8,0,6.8,3,6.9,6.8L57,16.8v0L55.9,32z"></path></g></g></g></g></g><g><g><g><g><path d="M55.3,69h-9.9l-2.2-56.5l-2.6-5.1l9.6,0.1c5.1,0,9.2,4.1,9.2,9.2l0-0.1L55.3,69z M46.6,68h7.5l4-51.2       c0-4.3-3.6-7.9-7.9-7.9l-7.5-0.1l1.7,3.5l0,0.1L46.6,68z"></path></g></g></g></g></g></svg>
