<svg fill="#1142A1" enable-background="new 0 0 100 100" version="1.1" viewBox="0 0 100 100" xml:space="preserve" xmlns="http://www.w3.org/2000/svg" xmlns:cc="http://creativecommons.org/ns#" xmlns:dc="http://purl.org/dc/elements/1.1/" xmlns:rdf="http://www.w3.org/1999/02/22-rdf-syntax-ns#"><metadata><rdf:RDF><cc:Work rdf:about=""><dc:format>image/svg+xml</dc:format><dc:type rdf:resource="http://purl.org/dc/dcmitype/StillImage"/><dc:title/></cc:Work></rdf:RDF></metadata><path d="m91.884 74.732h-15.294v-51.637c0-6.04-4.946-10.771-11.262-10.771h-47.694c-6.104 0-11.263 5.287-11.263 11.546 0 1.332 1.079 2.411 2.41 2.411h15.294v50.862c0 6.211 5.053 11.264 11.264 11.264h47.692c6.211 0 11.264-5.053 11.264-11.264 0-1.331-1.079-2.411-2.411-2.411zm-80.246-53.273c0.952-2.495 3.313-4.312 5.996-4.312 2.807 0 5.199 1.803 6.081 4.312h-12.077zm30.141 55.685c0 3.552-2.889 6.44-6.44 6.44s-6.441-2.889-6.441-6.44v-53.557c0-2.395-0.753-4.614-2.031-6.44h38.462c3.671 0 6.44 2.558 6.44 5.948v51.638h-27.578c-1.332-1e-3 -2.412 1.079-2.412 2.411zm41.252 6.44h-38.457c0.836-1.193 1.446-2.559 1.768-4.029h42.662c-0.955 2.361-3.273 4.029-5.973 4.029z"/><g transform="matrix(.45 0 0 .45 27.5 27.5)"><path d="m17.481 38.862c0.264 0.922 1.225 1.455 2.147 1.191l2.596-0.743 2.94 10.274c0.286 0.999 1.327 1.577 2.325 1.291l7.951-2.275c0.999-0.286 1.576-1.327 1.291-2.326l-2.94-10.274 48.345-13.833c0.922-0.264 1.455-1.225 1.191-2.147l-0.81-2.831c-0.264-0.922-1.225-1.455-2.147-1.191l-48.343 13.834-4.337-15.158c-0.286-0.999-1.327-1.577-2.326-1.291l-0.741 0.212c-0.486 0.139-0.896 0.468-1.137 0.913l-5.103 9.427c-0.234 0.433-0.289 0.94-0.154 1.413l2.23 7.793-2.596 0.743c-0.922 0.264-1.455 1.225-1.192 2.147z"/><path d="m85.726 56.905v-5.957h-47.85v3.196h-23.602s8.847 12.008 23.602 12.008c4.119 0 7.458 3.339 7.458 7.458s-3.339 7.458-7.458 7.458v5.621h18.113c0-3.21 2.602-5.812 5.812-5.812s5.812 2.602 5.812 5.812h18.113v-5.957c-6.58 0-11.914-5.334-11.914-11.914s5.334-11.913 11.914-11.913z"/><polygon points="67.105 34.18 40.318 46.216 68.032 36.502"/><polygon points="78.888 41.997 78.334 39.559 50 47.279"/></g></svg>
