<svg fill="#274057" xmlns="http://www.w3.org/2000/svg" data-name="Слой 1" viewBox="0 0 53.54954 95" x="0px" y="0px"><path d="M50.196,23.27255c-.985-.42543-2.04469-.7944-3.02008-1.31986a16.40568,16.40568,0,0,1-8.05549-9.85093A34.63454,34.63454,0,0,1,38.26372,7.389c-.075-.44579-.09729-.90049-.15018-1.41329.86616.11839.70209,1.01907,1.20558,1.28453.48325.25482,1.01217.423,1.62705.67228.11347-.78572-.25038-1.53725.25295-2.31305.72173.81457.33953,1.8071.75591,2.70279.44691.0955.973.20794,1.66038.35488l-.19209-2.3564c.64666.385.64666.385.8497,2.53973.63554.12579,1.30342.258,2.11856.41926v-2.824c.78845.75806.5129,1.72381.73706,2.70116h2.449c.48267-.88218-.3132-1.89046.29-2.86866a5.47361,5.47361,0,0,1,.36922,2.69488h3.26758V6.37559c.68651.82987.35519,1.67518.62075,2.48293.81343-.17968,1.60627-.34361,2.393-.533.457-.11.5078-.42775.45707-.86229-.11543-.98874-.08988-.99171.22663-1.60108.63893.56079.05734,1.37447.53334,2.09351.88849-.2558,1.82564-.52558,2.70492-.7787.23966-.91666-.33187-1.80989.16266-2.57581l.31314-.01021.3074,2.16859c.68182-.25127,1.29982-.479,1.87533-.691.15723-.78919-.18992-1.583.503-2.24842l.25981,1.7811,1.23284-.30513c.183,1.15392.4375,2.23289.51255,3.32422A13.03989,13.03989,0,0,1,60.71954,19.8307a12.52441,12.52441,0,0,1-5.63646,3.0035,1.11722,1.11722,0,0,0-.90539.84674A5.68215,5.68215,0,0,0,53.781,26.5254a41.62406,41.62406,0,0,0,.83388,4.37488,4.1161,4.1161,0,0,0,3.77922,2.80834,6.11088,6.11088,0,0,0,2.85536-.163,3.7347,3.7347,0,0,0,1.03643-.60035,18.27239,18.27239,0,0,0,3.38653-4.67988,5.33269,5.33269,0,0,0,.618-3.35485,1.845,1.845,0,0,0-1.0702-1.57768,3.85471,3.85471,0,0,1-1.89349-2.10528,2.59776,2.59776,0,0,1,.10072-1.9631c.20125-.532.77545-.57016,1.24486-.546a1.16752,1.16752,0,0,1,1.14048.90805,8.74572,8.74572,0,0,0,.3966,1.24961,1.0285,1.0285,0,0,0,1.12571.54414c.47059-.04111.56175-.50755.56525-.85364a9.46088,9.46088,0,0,0-.16516-2.08815,10.58865,10.58865,0,0,1-.42149-4.18641,7.25138,7.25138,0,0,1,.55132-1.67936,1.18012,1.18012,0,0,1,1.24-.77091A1.29426,1.29426,0,0,1,70.33523,12.93a5.6966,5.6966,0,0,1-.09766,3.18681,16.5941,16.5941,0,0,0-.53953,2.044,1.03879,1.03879,0,0,0,.516,1.29887,5.30637,5.30637,0,0,0,1.1792-2.60057c.24288-1.08978.40913-2.1989.70091-3.27459a3.05488,3.05488,0,0,1,.77051-1.42241,1.58963,1.58963,0,0,1,1.98443-.02793,1.47709,1.47709,0,0,1,.52336,1.69044,8.5498,8.5498,0,0,1-2.17929,4.66964,2.81726,2.81726,0,0,0-.69561,2.14743c-.02187.60587.34379.79933.86415.45477a2.80039,2.80039,0,0,0,.6442-.72485c.32561-.45033.617-.92526.936-1.38061a.94312.94312,0,0,1,1.19178-.33669.98026.98026,0,0,1,.63411,1.07741,4.02383,4.02383,0,0,1-1.28866,2.98947,12.11077,12.11077,0,0,1-3.80223,2.28159A2.45051,2.45051,0,0,0,70.21545,26.599c-.27059.65259-.551,1.30307-.77989,1.9707-1.01,2.94676-3.02778,5.18167-5.18828,7.29983-1.08711,1.06581-2.25926,2.04859-3.43267,3.021a2.06793,2.06793,0,0,0-.83278,1.63065,35.7747,35.7747,0,0,0,.13214,3.89645c.32878,3.03648.68663,6.07212,1.13871,9.09222.34655,2.315.78874,4.62082,1.30872,6.90331.61084,2.68155,1.26962,5.35829,2.06538,7.98941a32.48244,32.48244,0,0,0,2.03383,5.0605A30.42167,30.42167,0,0,1,68.557,79.03848c.49584,1.79.893,3.60877,1.29012,5.42439a19.707,19.707,0,0,0,2.19445,5.70173c.29762.51449.55536,1.05268.86582,1.55887a2.06443,2.06443,0,0,1-.12019,2.30755,1.36421,1.36421,0,0,1-2.38649.14386c-.21752-.277-.40572-.577-.73089-1.04378a11.55359,11.55359,0,0,1-.49172,1.43582c-.38824.75742-.76755,1.53847-1.80448,1.60834-.87171.05875-1.62283-.44078-1.57385-1.29114a6.10424,6.10424,0,0,1,.59208-1.85742,9.09583,9.09583,0,0,1,.74536-1.18616,5.23054,5.23054,0,0,0-1.12481-.10162,4.81039,4.81039,0,0,0-1.28167.37841,6.09464,6.09464,0,0,1-3.73108.2223,1.4379,1.4379,0,0,1-.98085-2.23018,3.1668,3.1668,0,0,1,2.3584-1.5204q1.48891-.166,2.97284-.37549a1.09306,1.09306,0,0,0,1.06267-1.36417c-.18489-1.513-.39507-3.02431-.64631-4.52764a42.63435,42.63435,0,0,0-3.73892-11.05814,25.60662,25.60662,0,0,0-4.04154-6.10583,3.7085,3.7085,0,0,0-4.53273-.59473c-2.28756,1.31986-3.7107,3.36867-5.07478,5.513a34.51254,34.51254,0,0,0-3.35254,6.78616c-.64322,1.77614-1.15679,3.60121-1.84961,5.35655a11.34927,11.34927,0,0,1-1.44662,2.359c-.52073.7233-1.1307,1.383-1.71172,2.06192a1.40858,1.40858,0,0,0-.37208,1.43693c.023.06968.01444.14935.03447.22047.44417,1.57768-.36565,2.64172-1.48648,3.55368a1.90128,1.90128,0,0,1-2.54491.21814,2.367,2.367,0,0,1-.61436-2.73937,6.53559,6.53559,0,0,0,.38376-.67689,10.31749,10.31749,0,0,0,.22072-1.16093,1.55706,1.55706,0,0,0-1.63812.41986c-.41237.37549-.81413.7654-1.2503,1.11149a3.13473,3.13473,0,0,1-3.55709.31829,1.32179,1.32179,0,0,1-.426-2.08865,1.92452,1.92452,0,0,1,1.97543-.98652,2.848,2.848,0,0,0,.968-.09305c1.06733-.19693,1.26232-.73211.54036-1.56962-.53345-.61884-1.14341-1.17142-1.6837-1.78485a13.301,13.301,0,0,1-1.37538-1.74321,1.26,1.26,0,0,1,.43424-1.665,1.16659,1.16659,0,0,1,1.62852-.11426c1.075,1.06914,2.06157,2.22843,3.06344,3.36924.29234.33285.483.75547.77762,1.08577.496.5561.85262.54586,1.43959.116a9.87492,9.87492,0,0,0,3.79933-5.61152c.58249-2.18907,1.25293-4.35484,1.82682-6.546a17.57378,17.57378,0,0,1,5.248-8.53218A18.97668,18.97668,0,0,0,51.83659,57.202a10.80612,10.80612,0,0,0,.43151-7.8518c-.53059-1.74439-.9537-3.52127-1.43767-5.28013a15.385,15.385,0,0,0-.51459-1.59217c-.406-1.0236-.86424-1.21371-1.91989-.869-.91495.29885-1.82657.61117-2.7521.8736a7.12978,7.12978,0,0,1-4.68188-.24949,18.299,18.299,0,0,1-6.44066-3.89135A7.91919,7.91919,0,0,0,33.078,37.1145a4.86215,4.86215,0,0,0-1.83226-.7148,6.57555,6.57555,0,0,0-3.99931.7073,4.19581,4.19581,0,0,1-2.49794.4136c-.93368-.09891-1.32337-.41792-1.47334-1.10862a1.79234,1.79234,0,0,1,.76517-1.949,4.186,4.186,0,0,1,2.78182-.6091c.99707.07656,1.99374.1585,3.18446.25354a2.00139,2.00139,0,0,0-1.57188-.92368,9.10252,9.10252,0,0,1-3.368-1.11981,2.33855,2.33855,0,0,1-1.14586-1.56679c-.28234-1.28373.32552-1.9776,1.5913-1.75924a4.80666,4.80666,0,0,1,2.44661,1.26045c.49483.45183.97712.91936,1.49449,1.34394a2.45372,2.45372,0,0,0,2.3046.634,1.90179,1.90179,0,0,0-.51574-1.62874c-.42678-.515-.94664-.95359-1.36577-1.47395a6.3888,6.3888,0,0,1-1.86294-3.95448c-.00472-.76608.04224-1.52829.80294-1.94479a2.52506,2.52506,0,0,1,2.49736.529,4.923,4.923,0,0,1,.981,1.58994c.47333,1.44684.82219,2.934,1.23795,4.40024a4.62633,4.62633,0,0,0,.41153,1.02324c.18178.31928.43966.71085.86575.53822a1.60277,1.60277,0,0,0,.885-.728,7.951,7.951,0,0,0,.30737-1.85917,3.53268,3.53268,0,0,1,1.34363-2.59019,1.67249,1.67249,0,0,1,2.66142,1.49913,6.11649,6.11649,0,0,1-.57082,1.9055,22.77985,22.77985,0,0,1-1.81729,2.80951c-1.13576,1.51415-.95634,2.30786-.02011,3.87929a3.92809,3.92809,0,0,0,2.36271,1.7621c1.20477.33845,2.368.82454,3.59049,1.26122,1.3894-.935,2.897-1.94094,4.39372-2.96274a12.32321,12.32321,0,0,0,1.04832-.83472c2.32988-1.99421,2.52849-4.57812,2.026-7.35441C50.74948,26.346,50.48032,24.84924,50.196,23.27255ZM24.75462,29.4699a1.41237,1.41237,0,0,0,.79331,2.02328,20.929,20.929,0,0,0,2.58743.97967c.6936.25307,1.40092.47272,2.08021.75926a.67385.67385,0,0,1,.382.92487.72568.72568,0,0,1-.8467.54665c-1.03578-.08537-2.07384-.14481-3.10839-.24239a3.0088,3.0088,0,0,0-2.11.551,1.70943,1.70943,0,0,0-.51534,1.14059c-.01664.19295.39717.51515.6754.61745a1.99717,1.99717,0,0,0,1.07676.06777,14.83851,14.83851,0,0,0,1.68842-.57147,8.76476,8.76476,0,0,1,3.82826-.54985,6.06571,6.06571,0,0,1,3.64528,2.00076,17.53479,17.53479,0,0,0,6.92193,4.12484,5.04458,5.04458,0,0,0,1.96819.28957,11.75712,11.75712,0,0,0,4.20437-1.04077c1.49244-.73474,2.26535-.44359,2.86283,1.11722a26.02613,26.02613,0,0,1,.89181,2.87531c.32914,1.29131.47456,2.63915.90106,3.894A11.52691,11.52691,0,0,1,51.524,59.03185a28.2006,28.2006,0,0,1-4.563,5.46231,15.20139,15.20139,0,0,0-3.88614,6.41812c-.64115,2.09618-1.17345,4.22551-1.805,6.3248a26.90153,26.90153,0,0,1-1.33027,3.77472,10.38212,10.38212,0,0,1-3.02331,3.39368,1.43847,1.43847,0,0,1-2.02158-.02714,4.92989,4.92989,0,0,1-.71339-.84974c-.37087-.51159-.68562-1.06706-1.08511-1.55392a23.62114,23.62114,0,0,0-1.724-1.89723c-.47967-.46968-.94849-.50474-1.28716-.2164-.45519.38753-.47359.86642-.02268,1.47969a8.45665,8.45665,0,0,0,.66881.74888c.71264.75986,1.44732,1.5,2.13857,2.2787a1.34074,1.34074,0,0,1-.7357,2.35176,15.90528,15.90528,0,0,1-1.75992.18932c-.50686.05288-1.24754.79972-1.213,1.27877.0435.60281.55913.71808,1.01614.87046a1.641,1.641,0,0,0,.221.03052,2.72188,2.72188,0,0,0,2.444-.80947,14.75643,14.75643,0,0,1,1.31477-1.205,1.46092,1.46092,0,0,1,1.68671-.0489c.56388.35856.2841.93776.17935,1.42989a6.29256,6.29256,0,0,1-.30354.71661,6.34516,6.34516,0,0,0-.27854.95174,1.60777,1.60777,0,0,0,.80678,1.60462,1.62718,1.62718,0,0,0,1.75856-.26164,2.71585,2.71585,0,0,0,1.08609-3.14872,2.10841,2.10841,0,0,1,.45318-2.07936c.54214-.66283,1.09258-1.31975,1.66194-1.95921a8.80547,8.80547,0,0,0,1.79918-3.18312c.48006-1.47759.90444-2.97628,1.45554-4.42684.52611-1.38473,1.14484-2.73852,1.79624-4.07a31.14364,31.14364,0,0,1,1.78522-3.1953,16.80854,16.80854,0,0,1,5.425-5.67241A3.30357,3.30357,0,0,1,56.751,63.4562a7.26152,7.26152,0,0,1,2.8403,2.44527,41.22349,41.22349,0,0,1,5.33181,10.74891,37.57672,37.57672,0,0,1,1.6429,6.93441,31.60238,31.60238,0,0,1,.41221,3.31967,1.76757,1.76757,0,0,1-1.835,2.01012,14.0501,14.0501,0,0,0-2.42916.2822,4.89178,4.89178,0,0,0-1.83056.96976A.86769.86769,0,0,0,61.255,91.7268a4.195,4.195,0,0,0,1.73933.0543c1.13008-.19063,2.23737-.51233,3.362-.74118.728-.14814,1.02245.11115,1.1303.843a1.44717,1.44717,0,0,1-.42412,1.3233,2.04171,2.04171,0,0,0-.43185,1.97356c.06829.37609.3598.57892.63012.37222.63926-.489,1.41834-.9,1.51453-1.85052a2.06209,2.06209,0,0,1,.12078-.54359.73219.73219,0,0,1,1.30239-.30546c.31491.3095.53281.71552.8324,1.04334.549.60071,1.22889.49974,1.45285-.28231a2.86679,2.86679,0,0,0-.05774-1.50617,6.35383,6.35383,0,0,0-.75773-1.48676,16.89405,16.89405,0,0,1-2.08086-4.67207c-.44359-1.76178-.749-3.55862-1.20164-5.31777a44.81416,44.81416,0,0,0-2.172-6.68037A62.88177,62.88177,0,0,1,63.786,67.72861c-.78287-2.51432-1.36889-5.0934-1.95958-7.66292-.39887-1.73508-.71967-3.49361-.967-5.25686-.46512-3.31612-.84127-6.64468-1.27565-9.96527a13.58589,13.58589,0,0,1-.03927-5.1011,1.98532,1.98532,0,0,1,.556-1.04839,39.37036,39.37036,0,0,0,5.48569-5.0356,15.19267,15.19267,0,0,0,2.83864-3.97425c.50183-1.1991.964-2.41474,1.46066-3.61606a2.16217,2.16217,0,0,1,1.26037-1.35251,14.96865,14.96865,0,0,0,3.96327-2.4524,3.21993,3.21993,0,0,0,1.2219-2.30906.95841.95841,0,0,0-.34371-.73007c-.10337-.08229-.5107.06558-.65865.22383a5.10056,5.10056,0,0,0-.67132,1.01077,2.64632,2.64632,0,0,1-1.329,1.29867c-.58029.22358-1.169.02708-1.23083-.55312-.09861-.92649-.352-1.90616.4594-2.73034a8.10718,8.10718,0,0,0,2.271-4.50525c.13111-.81591-.061-1.37-.66774-1.5444-.68625-.19717-1.16489.04287-1.445.83822-.25806.73277-.43277,1.49566-.63,2.249-.28165,1.07583-.51774,2.16485-.837,3.22913a1.70482,1.70482,0,0,1-1.26247,1.24847,1.62514,1.62514,0,0,1-.76554-2.04581c.16508-.79907.378-1.59073.61674-2.37139a4.29181,4.29181,0,0,0-.03519-2.6377.7463.7463,0,0,0-1.24309-.34776,1.5979,1.5979,0,0,0-.42338.63711,5.80017,5.80017,0,0,0-.24479,3.723c.148.49936.29721.99927.41786,1.5056a3.97808,3.97808,0,0,1,.00456,2.52756c-.319.76016-.83308,1.2859-1.82755.77a2.08921,2.08921,0,0,1-1.14608-2.27853c-.44243-.29577-.897-.4832-1.2726-.12445a1.33045,1.33045,0,0,0-.33,1.43063,3.35023,3.35023,0,0,0,1.654,2.01053A2.25928,2.25928,0,0,1,66.7509,24.574a5.7765,5.7765,0,0,1-.57511,3.58133c-.91,1.53059-1.80172,3.08227-2.84566,4.52011a3.92424,3.92424,0,0,1-4.3562,1.79528,7.51151,7.51151,0,0,0-.99771-.07959,4.50949,4.50949,0,0,1-3.75515-2.62858,12.08436,12.08436,0,0,1-.87064-5.68863c.054-.94625.19062-1.88778.299-2.91869-.90879.05932-1.77655.116-2.67237.17443a4.89975,4.89975,0,0,0,.165,2.47383,14.96681,14.96681,0,0,1,.62726,5.292,5.92653,5.92653,0,0,1-1.47488,3.63763,19.33931,19.33931,0,0,1-4.77685,3.635,4.60446,4.60446,0,0,0-1.775,1.79353c-.08222.16065-.26653.26907-.55053.54321-.01881-1.14826-.68217-1.50076-1.47249-1.74419-.70759-.21791-1.39894-.48935-2.10866-.69936a5.61021,5.61021,0,0,1-3.562-4.58743.90861.90861,0,0,1,.10434-.42668c.28679-.51782.56781-1.04176.89667-1.5328.65989-.98537,1.40356-1.91912,2.0026-2.93882a3.75673,3.75673,0,0,0,.37122-1.60408,1.02739,1.02739,0,0,0-1.67341-.81,3.34054,3.34054,0,0,0-1.2108,2.41579,8.198,8.198,0,0,1-.32631,1.96991,1.36414,1.36414,0,0,1-2.514.40822A6.1832,6.1832,0,0,1,32.91,29.337c-.41833-1.3473-.73582-2.72679-1.17892-4.06516a3.93684,3.93684,0,0,0-.87962-1.39789,1.46922,1.46922,0,0,0-1.66394-.2629c-.263.11213-.40572.65067-.48411,1.02133a2.71756,2.71756,0,0,0,.45392,2.12952,25.66013,25.66013,0,0,0,1.78648,2.26521,5.59054,5.59054,0,0,1,1.45006,2.21192c.28081,1.09592-.13342,1.56422-1.23185,1.45689A3.85125,3.85125,0,0,1,28.71923,31.497c-.52135-.52552-1.12816-.96539-1.68693-1.45484A2.55186,2.55186,0,0,0,24.75462,29.4699ZM53.55886,20.206c-1.54434-4.70912-1.74037-7.15281-.69563-8.80448.09882.23573.18657.43092.26336.63034a18.04224,18.04224,0,0,1,.88568,6.81952c-.00492.42521.01946.85078.03223,1.35191a2.36979,2.36979,0,0,0,1.83108-1.47037c1.06985-2.24862.52987-4.3567-.683-6.35454-.95314-1.57-2.34737-1.64143-3.78422-.98712a3.04135,3.04135,0,0,0-1.61653,2.28033c-.53918,2.41344.54993,4.33977,2.01725,6.09571a2.783,2.783,0,0,0,1.17086.586C53.11433,20.40332,53.31568,20.27363,53.55886,20.206Z" transform="translate(-23.22523 -3.82008)"/><path d="M55.91806,40.28365c-.07013.64715-.56909,1.13906-1.06341,1.04831a1.78578,1.78578,0,0,1-1.069-1.77628.81822.81822,0,0,1,.99226-.6619A1.25535,1.25535,0,0,1,55.91806,40.28365Z" transform="translate(-23.22523 -3.82008)"/><path d="M55.7069,43.66646c.77956.0278,1.21708.411,1.17536,1.02936a1.08724,1.08724,0,0,1-.98537,1.02431,1.207,1.207,0,0,1-1.021-1.26091A.71642.71642,0,0,1,55.7069,43.66646Z" transform="translate(-23.22523 -3.82008)"/><path d="M56.199,53.29829c-.0067-.43562.10161-.81444.57583-.94284a.92988.92988,0,0,1,1.08821.7053,1.74089,1.74089,0,0,1-.41963,1.63444.58325.58325,0,0,1-.48975.10282C56.56712,54.69246,56.21336,53.94235,56.199,53.29829Z" transform="translate(-23.22523 -3.82008)"/><path d="M53.69555,34.50127c.69456-.00565,1,.25967,1.02129.88722.02363.69646-.35161,1.15708-.92692,1.13789A1.51053,1.51053,0,0,1,52.69,35.156C52.70619,34.75125,53.08243,34.50626,53.69555,34.50127Z" transform="translate(-23.22523 -3.82008)"/><path d="M58.04019,57.552a.9373.9373,0,0,1-.92919,1.01356,1.24538,1.24538,0,0,1-.939-1.1943.92791.92791,0,0,1,1.01481-.91182A.97277.97277,0,0,1,58.04019,57.552Z" transform="translate(-23.22523 -3.82008)"/><path d="M57.55459,48.91478a1.19708,1.19708,0,0,1-.86769,1.14212c-.5099.02626-.97891-.59359-.96531-1.27582a.80685.80685,0,0,1,.83134-.83868A.99047.99047,0,0,1,57.55459,48.91478Z" transform="translate(-23.22523 -3.82008)"/><path d="M57.55546,61.31033c-.02568.49461-.56643,1.06021-.97466,1.0195-.43048-.04294-.93712-.79658-.907-1.36556.02221-.4197.21765-.701.67021-.70842C56.91034,60.24657,57.57991,60.83963,57.55546,61.31033Z" transform="translate(-23.22523 -3.82008)"/></svg>