<svg fill="#C82606" xmlns="http://www.w3.org/2000/svg" xmlns:xlink="http://www.w3.org/1999/xlink" version="1.1" x="0px" y="0px" viewBox="0 0 95 95" enable-background="new 0 0 95 95" xml:space="preserve"><g><path fill="#C82606" d="M58.928,32.29c-5.344,0-9.868,3.491-11.428,8.315c-1.561-4.824-6.084-8.315-11.427-8.315   c-6.634,0-12.013,5.379-12.013,12.013c0,3.198,1.258,6.096,3.296,8.249h-0.024L47.491,72.71l19.764-19.764   c0.107-0.102,0.213-0.207,0.317-0.314l0.078-0.08h-0.007c2.038-2.153,3.296-5.051,3.296-8.249   C70.939,37.669,65.562,32.29,58.928,32.29z"></path><path fill="#C82606" d="M86.496,24.125H70.875V8.504C70.875,3.808,67.067,0,62.371,0H32.629c-4.697,0-8.504,3.808-8.504,8.504   v15.621H8.504C3.807,24.125,0,27.933,0,32.629v29.742c0,4.696,3.807,8.504,8.504,8.504h15.621v15.621   c0,4.696,3.807,8.504,8.504,8.504h29.742c4.696,0,8.504-3.808,8.504-8.504V70.875h15.621c4.696,0,8.504-3.808,8.504-8.504V32.629   C95,27.933,91.192,24.125,86.496,24.125z M90,62.371c0,1.932-1.572,3.504-3.504,3.504H70.875h-5v5v15.621   c0,1.932-1.572,3.504-3.504,3.504H32.629c-1.932,0-3.504-1.572-3.504-3.504V70.875v-5h-5H8.504C6.572,65.875,5,64.303,5,62.371   V32.629c0-1.932,1.572-3.504,3.504-3.504h15.621h5v-5V8.504C29.125,6.572,30.697,5,32.629,5h29.742   c1.932,0,3.504,1.572,3.504,3.504v15.621v5h5h15.621c1.932,0,3.504,1.572,3.504,3.504V62.371z"></path></g></svg>