<?xml version="1.0" encoding="utf-8"?>
<!-- Generator: Adobe Illustrator 19.2.1, SVG Export Plug-In . SVG Version: 6.00 Build 0)  -->
<svg version="1.1" xmlns="http://www.w3.org/2000/svg" xmlns:xlink="http://www.w3.org/1999/xlink" x="0px" y="0px"
	 viewBox="0 0 100 100" style="enable-background:new 0 0 100 100;" xml:space="preserve">
<style type="text/css">
	.st0{display:none;}
	.st1{display:inline;}
	.st2{fill:#BC06BC;}
	.st3{fill:#FF7900;}
	.st4{fill:#FFC200;}
</style>
<g id="Layer_1" class="st0">
	<g id="Layer_1_1_" class="st1">
		<path class="st2" d="M51.5,53.4c0-0.9,0.7-1.6,1.6-1.6c2.9,0,4.3,3.8,4.9,6.4c1.6,6.5,5.4,11.4,13.1,11.4s11.1-4.7,12.8-9.6
			c2.5-6.9,7.6-8.9,10.4-10.3c-2.8-1.5-7.8-3.4-10.4-10.3c-1.8-4.9-5.1-9.6-12.8-9.6C69,40.8,58,41.2,58,41.2
			c-0.6,2.6-2,6.4-4.9,6.4c-0.9,0-1.6-0.7-1.6-1.6c0-2.9,3.8-4.3,6.4-4.9c6.5-1.6,11.4-5.4,11.4-13.1s-4.7-11-9.6-12.8
			c-6.9-2.5-8.9-7.6-10.3-10.4c-1.5,2.8-3.4,7.8-10.3,10.4c-4.9,1.8-9.6,5.1-9.6,12.8c11.3,2.6,11.3,13,11.3,13
			c2.6,0.6,6.4,2,6.4,4.9c0,0.9-0.7,1.6-1.6,1.6c-2.9,0-4.3-3.8-4.9-6.4c-1.6-6.5-5.4-11.4-13.1-11.4s-11,4.7-12.8,9.6
			c-2.5,6.9-7.6,8.9-10.4,10.3c2.8,1.5,7.9,3.4,10.4,10.3c1.8,4.9,5.1,9.6,12.8,9.6c3.8-11.7,13.1-11.4,13.1-11.4
			c0.6-2.6,2-6.4,4.9-6.4c0.9,0,1.6,0.7,1.6,1.6c0,2.9-3.8,4.3-6.4,4.9c-6.5,1.6-11.4,5.4-11.4,13.1s4.7,11.1,9.6,12.8
			c6.9,2.5,8.9,7.6,10.3,10.4c1.5-2.8,3.4-7.8,10.3-10.4c4.9-1.8,9.6-5.1,9.6-12.8c-11.3-3.6-11.4-13.1-11.4-13.1
			C55.2,57.7,51.5,56.3,51.5,53.4z"/>
	</g>
	<g id="Layer_2">
		<circle class="st1" cx="48.5" cy="48.9" r="11.9"/>
	</g>
</g>
<g id="Layer_2_1_">
	<circle class="st3" cx="50.4" cy="32.1" r="19.3"/>
	
		<ellipse transform="matrix(0.9988 -4.810674e-02 4.810674e-02 0.9988 -2.4623 3.4142)" class="st3" cx="69.7" cy="52.9" rx="19.3" ry="19.3"/>
	<circle class="st3" cx="31.1" cy="52.2" r="19.3"/>
	<circle class="st3" cx="50.4" cy="70.7" r="19.3"/>
	<circle class="st4" cx="50.4" cy="52.2" r="13.4"/>
</g>
</svg>
