<svg xmlns="http://www.w3.org/2000/svg" viewBox="2 2 96 96" x="0px" y="0px"><path fill="#4F9726" d="M47.34,67.64v27.36h5.32v-27.36c2.1-1.17,4.03-3.28,5.53-5.27-1.52,.49-3.18,.77-5,.77-1.12,0-2.19-.14-3.2-.39-1.01,.25-2.07,.39-3.2,.39-1.82,0-3.48-.27-5-.77,1.5,1.99,3.43,4.1,5.53,5.27Z"/><path fill="#FD1118" d="M49.9,21.76c1.78-5.18,4.6-8.5,7.92-8.82-1.97-4.88-4.75-7.93-7.82-7.93s-5.86,3.05-7.83,7.95c3.24,.42,5.98,3.72,7.73,8.8Z"/><path fill="#FD1118" d="M58.34,14.39c-3.24,0-6.07,4.02-7.65,10.03,.1,.41,.19,.84,.28,1.27,4.33-2.72,9.4-4.38,13.61-5.37-1.62-3.66-3.81-5.92-6.24-5.92Z"/><path fill="#FD1118" d="M35.24,20.27c4.38,1.02,9.75,2.77,14.24,5.71-1.48-6.86-4.51-11.58-8.02-11.58-2.42,0-4.61,2.25-6.22,5.88Z"/><path fill="#FD1118" d="M46.8,61.64c.12,0,.24,0,.36-.01-1.46-.82-2.74-1.95-3.79-3.41-3.66-5.09-4.05-13.46-1.05-22.37,1.19-3.54,3.52-6.34,6.39-8.57-8.95-5.86-21.9-6.88-21.9-6.88,3.75,2.08,5,9.6,5,16.06,0,17.06,5,25.19,15,25.19Z"/><path fill="#FD1118" d="M73.2,20.39s-24.75,1.94-29.46,15.93-.54,25.32,9.46,25.32,15-8.13,15-25.19c0-6.45,1.25-13.98,5-16.06Z"/><path fill="#4F9726" d="M54.57,87.81s.75,.18,2.01,.18c4.36,0,14.79-2.16,21.33-21.44-15.45,7.14-23.77,7.21-23.35,21.26Z"/><path fill="#4F9726" d="M21.34,62.01c6.55,19.27,16.98,21.44,21.33,21.44,1.26,0,2.01-.18,2.01-.18,.42-14.04-7.9-14.12-23.35-21.26Z"/></svg>