<svg fill="#b9bed0" xmlns="http://www.w3.org/2000/svg" xmlns:xlink="http://www.w3.org/1999/xlink" version="1.1" x="0px" y="0px" viewBox="2 2 96 96" style="enable-background:new 0 0 100 100;" xml:space="preserve"><polygon stroke="black" points="59.8,72.2 64.7,83.7 69.7,72.2 66.4,74.7 66.4,36.1 69.7,32.9 69.7,21.4 64.7,26.3 59.8,21.4 59.8,32.9 63.1,36.1   63.1,74.7 "/><path stroke="black"  d="M33.6,39.4H32v45.9c0,5.4,4.4,9.7,9.7,9.7h5.2c5.4,0,9.7-4.4,9.7-9.7V39.4h-4.9v-1.6l3.3-3.3v-9.8L50,29.6l-4.9-4.9v9.8  l3.3,3.3v1.6h-4.9V18.8l3.3-3.3V5l-4.9,4.9L36.9,5v10.5l3.3,3.3v0.9l-4.9,4.9l-4.9-4.9v9.8l3.3,3.3V39.4z M36.9,32.9l3.3-3.3v9.8  h-3.3V32.9z M35.3,42.7h18v7.4l-18,15.3V42.7z M35.3,69.7l18-15.3v8.7l-18,12.5V69.7z M35.3,79.6l18-12.5v18.2  c0,3.5-2.9,6.4-6.4,6.4h-5.2c-3.5,0-6.4-2.9-6.4-6.4V79.6z"/></svg>