<svg fill="#00882B" xmlns="http://www.w3.org/2000/svg" xmlns:xlink="http://www.w3.org/1999/xlink" version="1.1" x="0px" y="0px" viewBox="0 0 100 100" enable-background="new 0 0 100 100" xml:space="preserve"><g><g><path fill="#00882B" d="M92.31152,53.59961C91.61328,53,75.00586,38.875,57.17334,36.00879    c-18.59326-2.98926-26.87939,0.68164-28.31641,2.20312c-0.03564,0.03784-0.07013,0.08057-0.10541,0.12012    c-0.57117-0.2644-1.4613-0.82544-2.34772-1.38965c-1.72217-1.09668-3.67432-2.33984-5.39941-2.88184    c-3.00635-0.94531-9.64111-1.08496-12.39893-0.50098c-3.21973,0.68457-3.94238,5.74219-4.01416,6.31641    c-0.03809,0.30371,0.08594,0.60645,0.30127,0.82422s0.53662,0.31934,0.84424,0.28809    c0.60303-0.07227,4.51904,0.41309,7.95117,0.91797c0.04932,0.00781,0.09814,0.01074,0.14697,0.01074    c0.48779,0,0.91455-0.35742,0.98779-0.85449c0.08057-0.5459-0.29736-1.05469-0.84375-1.13477    c-1.70215-0.25098-5.18066-0.74414-7.19238-0.89355c0.3374-1.37598,1.05273-3.2666,2.23389-3.51758    c2.45264-0.52051,8.75439-0.375,11.38428,0.45215c1.47314,0.46289,3.38721,1.68164,4.9248,2.66016    c0.88605,0.5647,1.63562,1.03589,2.27094,1.36548c-0.82544,1.45728-1.38214,2.99341-1.41547,3.08569    c-0.03857,0.1084-0.05859,0.22266-0.05859,0.33789c0,0.16724,0.01233,2.1167,0.34808,4.50061    c-1.87042-1.36047-4.99017-3.35217-7.88324-3.89709c-4.13428-0.78027-10.4707-2.23145-10.53418-2.24609    c-0.53711-0.12305-1.07471,0.21289-1.19824,0.75098s0.21289,1.0752,0.75098,1.19824    c0.06396,0.01465,6.43799,1.47461,10.61084,2.26172c3.88574,0.73242,8.60547,4.73145,8.65283,4.77246    c0.05298,0.04504,0.11499,0.06885,0.17365,0.10107c0.1156,0.45264,0.24329,0.90161,0.39001,1.34106    c-0.13037,0.03271-0.25641,0.08997-0.36932,0.17798c-1.67139,1.29785-7.12549,5.73438-7.12549,8.32227    c0,2.84473,3.62988,16.19238,10.8916,18.78027c3.61523,1.28711,6.16211,1.91211,7.92969,1.91211    c0.94678,0,1.66992-0.17969,2.21338-0.53223c0.45654-0.29688,1.01807-0.87207,1.09961-1.92871    c0.16016-2.08008-2.4624-4.03711-4.56982-5.60938c-0.58838-0.43945-1.14453-0.85449-1.44971-1.1416    c-1.38525-1.30371-6.56396-8.04395-5.88037-12.68359c0.08057-0.5459-0.29688-1.05469-0.84326-1.13477    c-0.54639-0.08301-1.0542,0.29688-1.13525,0.84375c-0.81934,5.55957,4.81934,12.86035,6.48828,14.43164    c0.38818,0.36523,0.96094,0.79297,1.62451,1.28711c1.24854,0.93262,3.84717,2.87109,3.77148,3.85254    c-0.021,0.27051-0.10742,0.34863-0.19482,0.40527c-0.41797,0.27148-2.07324,0.66016-8.38232-1.58691    c-6.23535-2.22168-9.56299-14.7002-9.56299-16.89551c0-1.06946,3.21429-4.28784,6.25293-6.6637    c0.32043,0.6311,0.68616,1.21045,1.11377,1.69592c0.42969,0.4873,0.82471,0.96777,1.21045,1.4375    c2.27002,2.7627,4.41455,5.37207,11.24756,6.65234c3.08594,0.5791,6.3667,0.86816,9.84033,0.86816    c5.12183,0,10.66248-0.63281,16.5968-1.88599c1.59802,2.64233,8.89282,14.28467,13.99207,15.42505l0.12842,0.0293    c0.78027,0.17578,1.64453,0.37012,2.53174,0.37012c0.21094,0,0.42383-0.01074,0.63672-0.03613    c1.99854-0.23242,2.56055-1.80078,2.97119-2.94531c0.09766-0.27148,0.19531-0.54688,0.31445-0.81055l0.1167-0.25488    c0.45459-0.99121,1.02002-2.22461,0.90186-3.46875c-0.08301-0.86816-0.48242-1.96875-0.86914-3.0332    c-0.28076-0.77441-0.59961-1.65137-0.62305-2.03027c-0.14111-2.24609-5.7417-4.16309-8.14307-4.88379    c-0.52734-0.1543-1.08643,0.1416-1.24512,0.6709c-0.15869,0.52832,0.1416,1.08594,0.6709,1.24512    c4.22559,1.26758,6.43115,2.66309,6.72656,3.16504c0.05957,0.65723,0.37305,1.52148,0.73389,2.51562    c0.32764,0.90234,0.69922,1.92578,0.75781,2.54004c0.06738,0.70898-0.37402,1.67188-0.72852,2.44531l-0.12061,0.26367    c-0.1416,0.31152-0.25977,0.6377-0.37549,0.96094c-0.41016,1.14453-0.61621,1.55176-1.3208,1.63379    c-0.77002,0.09082-1.64746-0.1084-2.49707-0.29883l-0.13037-0.0293c-3.59991-0.80566-9.66943-9.5791-12.36169-13.92896    c6.76654-1.56934,14.02991-3.92517,21.76404-7.06519c0.32324-0.13184,0.55469-0.4209,0.61084-0.76562    C92.70264,54.17578,92.57568,53.82715,92.31152,53.59961z M55.39203,46.81006c2.16174-1.16064,5.45258-2.80566,6.48492-2.99951    c0.07477-0.01404,0.16095-0.05151,0.23914-0.07239l3.81067,6.22571l1.51514,7.47412l-2.77295,0.5835    c-0.03711,0.00781-0.07422,0.01758-0.11035,0.03027c-2.45508,0.81738-7.2417,0.86035-9.29785,0.84277L55.39203,46.81006z     M75.06226,44.51208c-2.46954,0.88025-6.01593,2.57776-7.96417,3.53442L63.94916,42.901    c1.16541-0.6969,2.30969-1.59607,2.9483-2.12756C69.75995,41.87122,72.5097,43.16064,75.06226,44.51208z M69.39038,56.98486    L67.9458,49.8595c1.74573-0.85645,3.63672-1.73303,5.27002-2.44043c2.89374,2.58508,6.0235,5.82727,6.31787,6.85925    L69.39038,56.98486z M81.42828,53.66064c-0.59265-1.80273-4.19037-5.27832-6.16736-7.08923    c0.98431-0.38391,1.71594-0.62219,2.00421-0.62415c0.11804,0.01172,0.22864-0.00879,0.33557-0.03687    c3.30817,1.89087,6.18744,3.80371,8.422,5.39453L81.42828,53.66064z M64.68713,39.97241    c-0.85638,0.65112-1.80444,1.29395-2.53552,1.63623c-0.04498,0.01904-0.09302,0.02319-0.13599,0.04956    c-0.01453,0.00891-0.02197,0.0238-0.03589,0.03333c-0.17462,0.07349-0.33508,0.12854-0.47192,0.15417    c-1.44794,0.27173-5.11102,2.16284-6.78424,3.0542c-1.44983-1.91943-4.28864-4.29028-5.23773-5.06104l1.13007-2.65308    c1.92548,0.1781,4.00323,0.43823,6.24005,0.79761C59.49854,38.4082,62.12756,39.10303,64.68713,39.97241z M48.51221,37.02197    l-1.14355,2.68408l-5.69806,3.41919c-1.51141-1.9375-4.55566-4.24487-6.27045-5.46948    C38.34851,37.04175,42.6449,36.63696,48.51221,37.02197z M32.06445,55.90137c-0.3999-0.4873-0.80957-0.98535-1.25439-1.49023    c-2.1416-2.43164-2.65625-8.46484-2.68262-10.81738c0.34766-0.9209,1.25879-3.0293,2.18359-4.00879    c0.27588-0.29211,1.12128-0.78882,2.60919-1.27832c0.05768,0.06738,0.1109,0.13843,0.18817,0.19043    c2.56152,1.72363,6.85303,5.03906,7.46289,6.59766c0.43964,1.12451-1.49652,5.7478-3.70862,9.81763    c-1.84082-1.71936-4.81122-4.77271-5.53162-6.7522L31.25,42.73535c-0.0083-0.55273-0.43945-1-1.01514-0.98535    c-0.55225,0.00879-0.99316,0.46289-0.98486,1.01465l0.0835,5.58301c0.00146,0.09863,0.01758,0.19629,0.04736,0.29004    c0.91583,2.86194,5.11816,6.84375,6.61206,8.19336l-0.67413,2.39685C34.01508,58.2666,33.08698,57.14575,32.06445,55.90137z     M42.13574,61.8584c-2.15454-0.40405-3.75934-0.93115-5.04034-1.55908l0.68927-2.45166    c2.42139,0.95605,8.45752,3.1748,12.56543,3.27734c0.54932,0.01758,1.01074-0.42383,1.02441-0.97461    c0.01416-0.55273-0.42236-1.01172-0.97461-1.02539c-3.74194-0.09302-9.51862-2.2135-11.84796-3.1283    c1.53101-2.79114,4.36896-8.40564,4.01721-11.07825l5.74927-3.44983c1.37616,1.12537,4.12512,3.52234,5.07709,5.01184    L53.25,59.86426c-0.00586,0.54297,0.42285,0.99121,0.96533,1.00977c0.08984,0.00391,0.77783,0.02637,1.79297,0.02637    c2.40527,0,6.64844-0.12598,9.12695-0.93359l3.95605-0.83398l12.5-3.33398c0.06885-0.01758,0.13525-0.04395,0.19824-0.07617    l6.0434-3.09888c0.74707,0.55762,1.38098,1.04724,1.87653,1.43872C70.91797,61.48145,54.49854,64.17383,42.13574,61.8584z"></path><circle fill="#00882B" cx="11.08331" cy="37.58325" r="1"></circle></g></g></svg>