<svg fill="#DCBD23" xmlns="http://www.w3.org/2000/svg" xmlns:xlink="http://www.w3.org/1999/xlink" version="1.1" x="0px" y="0px" viewBox="0 0 100 100" enable-background="new 0 0 100 100" xml:space="preserve"><g><path d="M73.671,29.481c0.038,0.001,0.074,0,0.111,0.001c0.004-0.026,0.011-0.054,0.014-0.081L73.671,29.481z"></path><path d="M26.204,29.401c0.004,0.026,0.01,0.054,0.014,0.081c0.037-0.001,0.074,0.001,0.111-0.001L26.204,29.401z"></path><path d="M90.101,69.744l-13.613-1.486c0.45-1.927,1.285-3.89,2.715-5.708c0,0-5.987-0.522-7.56,5.055   c-4.154-1.098-8.365-2.797-12.252-4.662c2.967-1.692,5.813-3.597,8.496-5.714c11.776-9.29,20.414-22.488,24.215-36.998   c0,0-6.982,9.551-18.32,9.25C72.541,37.92,59.561,51.96,50.631,57.454c-0.204,0.126-0.419,0.255-0.631,0.383   c-0.211-0.128-0.426-0.258-0.631-0.383c-8.93-5.495-21.91-19.534-23.151-27.973c-11.338,0.3-18.32-9.25-18.32-9.25   c3.8,14.51,12.439,27.708,24.215,36.998c2.683,2.116,5.529,4.021,8.496,5.714c-3.887,1.865-8.097,3.563-12.252,4.662   c-1.573-5.577-7.56-5.055-7.56-5.055c1.43,1.819,2.265,3.782,2.715,5.708L9.899,69.744c-1.232,0.134-2.122,1.242-1.987,2.474   l0.038,0.348c0.135,1.232,1.242,2.122,2.474,1.987l13.517-1.476c-0.153,3.814-1.325,6.691-1.325,6.691   c2.401-0.027,5.727-1.699,6.089-7.707c7.284-0.417,14.493-2.014,21.295-4.654c6.802,2.64,14.011,4.237,21.295,4.654   c0.362,6.008,3.688,7.68,6.089,7.707c0,0-1.173-2.878-1.325-6.691l13.517,1.476c1.232,0.135,2.34-0.755,2.474-1.987l0.038-0.348   C92.223,70.986,91.333,69.878,90.101,69.744z"></path></g></svg>