<svg fill="#861001" xmlns="http://www.w3.org/2000/svg" xmlns:xlink="http://www.w3.org/1999/xlink" version="1.1" x="0px" y="0px" viewBox="0 0 100 100" enable-background="new 0 0 100 100" xml:space="preserve"><g><path d="M84.9,43.3c-1.2,0.7-2.7,0-3-1.3C78.3,27.7,65.4,17.1,50,17.1S21.7,27.7,18.1,42.1c-0.3,1.3-1.9,2-3,1.3   C11.4,41.2,5,37.5,5,37.5s4.2,23.9,13.2,22.8c0.2,0,0.4-0.1,0.6-0.1C23,73.3,35.4,82.9,50,82.9s27-9.5,31.2-22.7   c0.2,0,0.4,0.1,0.6,0.1C90.8,61.5,95,37.5,95,37.5S88.6,41.2,84.9,43.3z M11.4,46c-1.3,0.1-0.8,1.4-0.8,1.4c-2.3-5.6,5.1,0,5.1,0   c-1.6-0.8-2.7-1.2-3.5-1.3c0.5,1.5,5,6,5,6C14.2,50.7,12,47.2,11.4,46z M70.1,40.8C70.1,40.8,70.1,40.9,70.1,40.8   c1.2,3.4-0.7,7.1-4.2,8.3c-3.2,1.1-6.7-0.2-8.1-3c0.9,0,1.9-0.2,2.9-0.5c0.1,0,0.3-0.1,0.4-0.2c0.4,0.7,1.2,1.1,2.1,1   c0.9-0.1,1.6-0.8,1.8-1.7c0.1-0.7-0.1-1.3-0.5-1.7c0.6-0.7,1-1.4,1.3-2.2C66.5,38.8,69.3,38.8,70.1,40.8z M62.3,44.6   c0-0.4,0.3-0.7,0.7-0.7s0.7,0.3,0.7,0.7s-0.3,0.7-0.7,0.7S62.3,45,62.3,44.6z M65.3,33.3c1.4-2.1,2.8,0.4,2.8,0.4   c0.5,6.1-10.5,7.9-10.5,7.9C63.1,39.1,63.8,35.4,65.3,33.3z M50.9,52c1.6-0.4,0.8,2.9,0.8,2.9S49.4,52.5,50.9,52z M49.2,52.1   c1.5,0.5-1,2.9-1,2.9S47.6,51.5,49.2,52.1z M31.9,33.7c0,0,1.4-2.5,2.8-0.4c1.4,2.1,2.1,5.8,7.7,8.3C42.4,41.6,31.5,39.9,31.9,33.7   z M37.7,44.6c0,0.4-0.3,0.7-0.7,0.7s-0.7-0.3-0.7-0.7s0.3-0.7,0.7-0.7S37.7,44.2,37.7,44.6z M29.9,40.9   C29.9,40.9,29.9,40.8,29.9,40.9c0.8-2.1,3.6-2.1,4.4-0.1c0.3,0.8,0.8,1.5,1.3,2.2c-0.4,0.4-0.6,1.1-0.5,1.7   c0.1,0.9,0.9,1.6,1.8,1.7c0.9,0.1,1.7-0.3,2.1-1c0.1,0.1,0.3,0.1,0.4,0.2c1,0.3,1.9,0.5,2.9,0.5c-1.4,2.8-4.9,4.1-8.1,3   C30.6,47.9,28.7,44.2,29.9,40.9z M59.1,75.3c-0.8-1.5-1.8-2.2-1.9-2.2l-0.9-0.6l0.1,1c0.1,0.8,0.2,1.8,0.3,2.8   c-2.1,0.8-4.4,1.2-6.6,1.2c-2.3,0-4.6-0.4-6.8-1.3c0.1-1,0.2-2,0.3-2.7l0.1-1.1l-0.9,0.6c-0.1,0-1,0.7-1.7,2.2   c-0.9-0.5-1.8-1.1-2.7-1.7c0,0,0.1-0.1,0.1-0.1c1.5-1.2,5.4-2.8,9.6-3.2c0.1,0,0.1,0,0.2,0c0.8,0,1.5,0.5,1.5,1.2l0.1,2.9l0.1-2.9   c0-0.7,0.7-1.2,1.5-1.2c0.1,0,0.1,0,0.2,0c4.2,0.4,8.2,2,9.6,3.2c0.1,0.1,0.2,0.2,0.2,0.3C60.8,74.3,60,74.8,59.1,75.3z M62.6,73.7   l-0.3-0.5c-0.1-0.1-0.2-0.3-0.4-0.4c-0.7-0.6-2-1.3-3.5-1.9c0.2-0.3,0.3-0.7,0.3-1.1c0-4.8-3-8.7-7.1-9.7c-0.6-0.1-1.2,0.5-0.9,1.1   c0,0.1,0.1,0.1,0.1,0.2c0.1,0.2,0.1,0.5,0.1,0.7c0,0.8-0.4,1.4-0.9,1.4c-0.5,0-0.8-0.6-0.9-1.3c0-0.3,0-0.5,0.1-0.7   c0.1-0.1,0.1-0.3,0.1-0.4c0.2-0.6-0.3-1.1-0.9-1c-4.4,0.7-7.8,4.8-7.8,9.9c0,0.5,0.1,0.9,0.4,1.3c-1.3,0.5-2.3,1.1-3,1.7   c-0.1,0-0.1,0.1-0.2,0.2l-0.5,0.5c-4.8-3.8-8.1-9.5-8.6-14.8h4.3c0,0.2,0,0.4,0,0.6c0.5,5.1,4.2,7.2,4.2,7.2s-0.8-4.6-0.4-7.2   c0-0.2,0.1-0.4,0.1-0.6h27.1c0,0.2,0.1,0.4,0.1,0.6c0.3,2.5-0.4,7.2-0.4,7.2s3.4-2.1,3.9-7.2c0-0.2,0-0.4,0-0.6h3.5   C70.9,64.2,67.6,69.9,62.6,73.7z M88.6,46c-0.7,1.2-2.8,4.7-5.7,6.1c0,0,4.5-4.6,5-6c-0.8,0.1-1.9,0.5-3.5,1.3c0,0,7.3-5.6,5.1,0   C89.5,47.4,89.9,46.1,88.6,46z"></path></g></svg>