<svg xmlns="http://www.w3.org/2000/svg" xmlns:xlink="http://www.w3.org/1999/xlink" version="1.1" x="0px" y="0px" viewBox="0 0 100 100" enable-background="new 0 0 100 100" xml:space="preserve"><g><path fill="#000000" d="M35.875,30.424c0-4.522-3.679-8.202-8.201-8.202s-8.202,3.679-8.202,8.202s3.679,8.201,8.202,8.201   S35.875,34.946,35.875,30.424z M27.675,34.525c-2.261,0-4.102-1.84-4.102-4.101s1.84-4.102,4.102-4.102s4.101,1.84,4.101,4.102   S29.936,34.525,27.675,34.525z"></path><path fill="#000000" d="M68.537,69.415c0-2.64-2.149-4.788-4.788-4.788h-0.292H37.07h-0.339c-2.64,0-4.789,2.149-4.789,4.788   v11.232c0,0.079,0.02,0.153,0.023,0.231v3.03C31.965,92.085,41.373,95,50.301,95c8.805,0,18.212-2.915,18.212-11.093v-3.023   c0.004-0.08,0.024-0.156,0.024-0.237v-5.192c0.008-0.075,0.023-0.148,0.023-0.225v-5.498c0-0.077-0.019-0.148-0.023-0.224V69.415z    M63.457,68.727c0.514,0,0.923,0.394,0.981,0.893v2.473c0,0.601-0.487,1.088-1.088,1.088H37.153c-0.601,0-1.088-0.487-1.088-1.088   v-2.36c0-0.553,0.452-1.005,1.005-1.005H63.457z M50.177,90.9c-1.208,0-10.24-0.149-13.172-4.168   c-0.405-0.555-0.042-1.336,0.645-1.335c4.701,0.007,20.476,0.007,25.177,0c0.687-0.001,1.05,0.78,0.645,1.335   C60.537,90.751,51.489,90.9,50.177,90.9z"></path><path fill="#000000" d="M72.702,22.222c-4.523,0-8.202,3.679-8.202,8.202s3.679,8.201,8.202,8.201c4.521,0,8.201-3.679,8.201-8.201   S77.224,22.222,72.702,22.222z M72.702,34.525c-2.262,0-4.102-1.84-4.102-4.101s1.84-4.102,4.102-4.102   c2.261,0,4.101,1.84,4.101,4.102S74.963,34.525,72.702,34.525z"></path><path fill="#000000" d="M36.656,41.313c-0.082,0.157-2.009,3.857-2.72,5.867c-0.643,1.816-0.429,3.68,0.585,5.113   c1.158,1.638,3.196,2.54,5.738,2.54c1.756,0,2.488,0.406,3.595,1.02c1.442,0.801,3.237,1.796,7.086,1.796s5.644-0.996,7.086-1.796   c1.108-0.614,1.839-1.02,3.595-1.02c2.542,0,4.58-0.902,5.737-2.54c1.014-1.434,1.226-3.298,0.585-5.113   c-0.71-2.011-2.637-5.711-2.718-5.868c-0.523-1.004-1.764-1.389-2.767-0.868c-1.004,0.524-1.392,1.762-0.869,2.765   c0.52,0.996,1.979,3.894,2.489,5.338c0.139,0.39,0.239,0.947-0.067,1.379c-0.363,0.512-1.233,0.807-2.39,0.807   c-2.817,0-4.288,0.815-5.584,1.535c-1.24,0.687-2.31,1.281-5.098,1.281s-3.858-0.594-5.097-1.281   c-1.297-0.719-2.767-1.535-5.584-1.535c-1.156,0-2.028-0.294-2.39-0.807c-0.306-0.432-0.206-0.989-0.067-1.38   c0.51-1.442,1.97-4.341,2.489-5.337c0.524-1.004,0.135-2.241-0.869-2.765C38.416,39.922,37.18,40.31,36.656,41.313z"></path><path fill="#000000" d="M43.121,12.462c0.278,0.871,1.084,1.428,1.952,1.428c0.206,0,0.416-0.031,0.623-0.097   c1.079-0.344,1.674-1.497,1.331-2.576L45.511,6.46c-0.344-1.078-1.497-1.676-2.576-1.331c-1.079,0.344-1.674,1.497-1.331,2.576   L43.121,12.462z"></path><path fill="#000000" d="M55.12,13.792c0.207,0.066,0.418,0.097,0.623,0.097c0.869,0,1.675-0.557,1.952-1.427l1.517-4.757   c0.344-1.079-0.251-2.232-1.329-2.576c-1.084-0.348-2.233,0.253-2.576,1.33l-1.517,4.757C53.446,12.295,54.041,13.448,55.12,13.792   z"></path><path fill="#000000" d="M30.773,18.16c1.895,1.375,3.855,2.797,6.082,3.968c0.305,0.16,0.631,0.236,0.952,0.236   c0.737,0,1.449-0.399,1.816-1.096c0.527-1.002,0.141-2.241-0.86-2.769c-1.966-1.034-3.805-2.368-5.583-3.658   c-3.802-2.759-7.734-5.611-13.01-5.611c-8.593,0-11.972,6.36-13.243,8.755c-0.531,1-0.151,2.241,0.849,2.772   c1,0.532,2.242,0.151,2.772-0.849c1.815-3.417,4.237-6.579,9.623-6.579C24.117,13.33,27.201,15.568,30.773,18.16z"></path><path fill="#000000" d="M93.073,17.986c-1.272-2.395-4.648-8.756-13.244-8.756c-5.277,0-9.208,2.853-13.011,5.612   c-1.778,1.29-3.615,2.624-5.581,3.657c-1.002,0.527-1.387,1.766-0.859,2.769c0.366,0.697,1.078,1.096,1.815,1.096   c0.322,0,0.649-0.076,0.953-0.236c2.226-1.171,4.187-2.593,6.08-3.968c3.573-2.592,6.658-4.83,10.603-4.83   c5.388,0,7.808,3.162,9.622,6.578c0.531,1.002,1.775,1.382,2.772,0.849C93.224,20.227,93.603,18.986,93.073,17.986z"></path></g></svg>