<svg width="100" height="100" version="1.1" viewBox="0 0 26.458 26.458" xmlns="http://www.w3.org/2000/svg" xmlns:cc="http://creativecommons.org/ns#" xmlns:dc="http://purl.org/dc/elements/1.1/" xmlns:rdf="http://www.w3.org/1999/02/22-rdf-syntax-ns#">
 <metadata>
  <rdf:RDF>
   <cc:Work rdf:about="">
    <dc:format>image/svg+xml</dc:format>
    <dc:type rdf:resource="http://purl.org/dc/dcmitype/StillImage"/>
    <dc:title/>
   </cc:Work>
  </rdf:RDF>
 </metadata>
 <g transform="translate(0 -270.54)">
  <g transform="matrix(.26458 0 0 .26458 84.747 113.09)">
   <g transform="matrix(.37554 0 0 .37554 -301.31 595.09)">
    <path d="m77.807 17.321-0.658-3.531c5.866-1.057 8.934 3.279 11.382 10.104 0.094 0.109 0.191 0.213 0.284 0.324 4.557 5.507 6.445 13.233 7.076 20.495 2.83 4.914 6.735 8.163 12.976 8.734-13.296-11.667-5.667-30.833-10.706-42.833-6.064-15.095-23.106-13.383-30.045 0.666h-1.935l-1.125 6.041c1.979-0.489 4.106-0.736 6.376-0.736s4.395 0.247 6.375 0.736z"/>
    <path d="m93.952 209.15c-0.697 0.104-1.414 0.157-2.126 0.157-4.497 0-8.604-2.122-11.288-5.459l7.62 51.751c0.914 6.212 6.252 10.681 12.349 10.681 0.607 0 1.221-0.044 1.839-0.135 6.829-1.005 11.551-7.357 10.544-14.188l-6.485-44.04c-1.222-1.224-2.382-2.496-3.453-3.831-2.205 2.641-5.337 4.525-9 5.064z"/>
    <path d="m79.474 196.62v2e-3c0.913 6.212 6.255 10.68 12.352 10.681 0.606 0 1.218-0.044 1.835-0.135 3.328-0.491 6.148-2.256 8.056-4.723-4.392-5.972-7.418-12.865-9.252-20.126-1.565-6.196-2.264-12.649-2.244-19.006 0.028-9.159 1.565-18.106 4.232-25.79 0.251-0.723 0.509-1.437 0.779-2.136 0.885-2.288 1.867-4.454 2.947-6.451 1.095 0.259 2.19 0.481 3.28 0.673l0.849-7.392c-1.475 0.662-2.972 1.332-4.504 2.019-4.555 2.042-9.362 4.197-14.263 6.409-3.043 1.374-6.12 2.769-9.205 4.177-1.395 0.637-2.79 1.276-4.183 1.916-0.614 0.282-1.224 0.565-1.837 0.848-8.067 3.721-15.98 7.46-23.126 11.008-0.509 0.253-1.02 0.506-1.521 0.757l0.618 5.382-5.629 38.233-2e-3 0.015c-1.006 6.829 3.715 13.181 10.545 14.188 0.617 0.091 1.229 0.135 1.835 0.135 6.084-1e-3 11.411-4.448 12.344-10.636 3e-3 -0.015 7e-3 -0.029 9e-3 -0.044l4.906-33.31h6.273z"/>
    <path d="m51.038 209.31c-0.713 0-1.428-0.054-2.127-0.157-5.269-0.776-9.451-4.319-11.32-8.933l-7.619 51.741c-1.005 6.829 3.717 13.181 10.546 14.186 0.618 0.091 1.232 0.135 1.838 0.135 6.097 0 11.436-4.468 12.35-10.681l7.617-51.747c-2.684 3.336-6.79 5.456-11.285 5.456z"/>
    <path d="m78.688 71.966-0.146-1.771c-0.378-4.683-0.23-10.986 0.365-15.688 0.519-4.078 3.999-6.006 6.54-7.414 0.955-0.531 2.733-1.516 2.733-1.979v-0.1l0.01-0.098c0.079-0.788-8e-3 -1.386-0.237-1.639-0.209-0.23-0.735-0.365-1.441-0.365-1.821 0-4.732 0.877-7.987 2.404-1.647 0.773-3.226 8.158-3.307 15.492l-0.024 1.978h-7.526l-0.023-1.977c-0.084-7.338-1.66-14.723-3.307-15.494-3.256-1.527-6.166-2.404-7.984-2.404-0.709 0-1.233 0.135-1.444 0.365-0.229 0.253-0.315 0.851-0.237 1.639l0.01 0.098v0.1c0 0.463 1.778 1.447 2.732 1.979 2.542 1.408 6.022 3.336 6.541 7.414 0.596 4.698 0.744 11.002 0.367 15.686l-0.143 1.774-1.779 0.065s-0.139 5e-3 -0.381 7e-3c1.358 0.623 2.799 1.121 4.311 1.473 5.058 1.178 10.112 0.543 14.491-1.473-0.228-2e-3 -0.357-7e-3 -0.357-7e-3z"/>
    <path d="m58.215 69.812c2.273 0.286 4.114 0.222 4.114 0.222 0.357-4.422 0.234-10.617-0.357-15.274-0.715-5.627-9.289-6.028-9.289-9.646-0.715-7.235 8.937-3.281 12.504-1.608 4.289 2.01 4.459 17.282 4.459 17.282h3.572s0.172-15.272 4.459-17.282c3.568-1.673 13.221-5.627 12.506 1.608 0 3.617-8.575 4.019-9.289 9.646-0.593 4.657-0.715 10.852-0.357 15.274 0 0 1.828 0.063 4.09-0.219 3.396-0.424 7.771-1.629 8.415-5.006 0.562-2.954 2.354-15.537-0.147-26.83-0.486-2.194-1.133-4.34-1.984-6.357-2.369-5.613-6.311-10.224-12.695-12.112-2.011-0.595-4.259-0.924-6.782-0.924s-4.772 0.33-6.784 0.924c-20.482 6.06-15.8 40.174-14.826 45.299 0.641 3.369 4.998 4.576 8.391 5.003z"/>
    <path d="m112.04 117.84c0.372 1.026 0.738 2.096 1.094 3.222 0.544 1.722 1.068 3.556 1.564 5.527 2e-3 0.011 6e-3 0.02 9e-3 0.031 0.314 1.259 0.615 2.575 0.904 3.939 0.472-0.015 0.94-0.033 1.401-0.055 4.793-0.23 8.997-0.853 12.116-1.456 0.898-0.173 1.699-0.344 2.406-0.504-0.409-2.026-0.847-3.971-1.314-5.837-2e-3 -0.011-7e-3 -0.021-9e-3 -0.031-0.52-2.09-1.084-4.07-1.675-5.974-0.637-2.052-1.314-3.994-2.024-5.837-5.118 2.789-9.87 4.988-14.265 6.879-0.066 0.033-0.14 0.065-0.207 0.096z"/>
    <path d="m123.13 93.629c-0.156-0.417-0.325-0.849-0.516-1.306-8.767-20.969-28.676-14.716-33.453-12.855-0.672 0.262-1.047 0.438-1.047 0.438s0.066 0.056 0.18 0.151c1.264 1.057 9.223 7.662 17.339 13.223 2.467 1.691 4.947 3.283 7.258 4.594 1.747-0.8 3.573-1.597 5.486-2.384 1.528-0.628 3.107-1.25 4.753-1.861z"/>
    <path d="m6.242 162.37c-0.222-0.887-0.333-1.816-0.298-2.775 0.068-1.93 0.161-3.825 0.27-5.694l-0.028-0.079s-7.811 3.096-5.879 7.176c1.056 2.23 3.728 2.018 5.935 1.372z"/>
    <path d="m31.256 158.27 4.33-2.049-1.886-3.985c2.987-1.594 6.237-3.259 9.665-4.97 0.02-0.01 0.041-0.02 0.061-0.03 0.699-0.349 1.406-0.699 2.12-1.052 6.666-3.289 13.944-6.727 21.371-10.156 0.64-0.296 1.282-0.591 1.924-0.887 11.607-5.34 23.454-10.621 33.733-15.235 3.076-1.38 6.011-2.701 8.757-3.945 0.04-0.019 0.083-0.038 0.124-0.056 4.019-1.729 8.832-3.909 14.31-6.913 8.524-4.675 18.673-11.362 30.055-21.587-12.171 1.865-22.062 4.566-30.166 7.44-0.643 0.228-1.266 0.457-1.886 0.687-1.465 0.543-2.884 1.088-4.228 1.635-1.562 0.635-3.032 1.268-4.439 1.896-0.781 0.348-1.538 0.693-2.273 1.036-2.662 1.24-5.054 2.44-7.177 3.54-0.277 0.137-0.564 0.279-0.846 0.418-0.145 0.071-0.289 0.143-0.435 0.215-17.531 8.669-42.056 21.151-62.383 30.431-4.871 2.224-9.501 4.264-13.734 6.022l-0.547-1.156c-0.567 3.939-1.012 8.11-1.33 12.505 0.92-0.568 1.5-0.947 1.5-0.947z"/>
    <path d="m12.643 122.71c-2.007 8.031-3.497 17.502-4.273 28.724-0.054 0.788-0.104 1.586-0.151 2.391-0.112 1.9-0.205 3.845-0.276 5.844-0.024 0.696 0.05 1.371 0.194 2.021 0.148 0.665 0.372 1.3 0.674 1.893 1.277 2.503 3.835 4.258 6.843 4.365 0.098 3e-3 0.193 4e-3 0.289 4e-3 4.287 0 7.836-3.398 7.99-7.718 0.054-1.54 0.124-3.039 0.204-4.509 0.044-0.807 0.092-1.603 0.143-2.388 0.164-2.514 0.366-4.922 0.601-7.225 0.037-0.36 0.075-0.715 0.113-1.07 0.313-2.885 0.678-5.604 1.09-8.164 0.131-0.819 0.268-1.619 0.409-2.406 0.504-2.817 1.062-5.437 1.667-7.858 1e-3 -7e-3 4e-3 -0.014 6e-3 -0.022 0.496-1.973 1.021-3.808 1.565-5.53 2.622-8.296 5.731-13.788 8.684-17.463l3.332 29.014c15.594-7.138 33.617-16.123 48.841-23.715 4.585-2.287 8.92-4.448 12.912-6.422 0.378-0.188 0.771-0.382 1.142-0.565 0.041-0.02 0.084-0.041 0.125-0.062 1.877-0.972 3.857-1.96 5.935-2.949-1.74-1.022-3.535-2.166-5.328-3.369-8.563-5.746-17.022-12.805-18.55-14.093l-0.456-0.384-1.877-1.582h-26.119l-1.878 1.583-0.454 0.383c-1.528 1.288-9.987 8.348-18.551 14.093-6.28 4.214-12.616 7.722-16.316 7.722h-2e-3c-0.503 0-0.946-0.059-1.341-0.156-2.03 3.909-3.891 8.418-5.504 13.611-0.593 1.911-1.159 3.898-1.68 5.997-1e-3 1e-3 -2e-3 3e-3 -3e-3 5e-3z"/>
    <path d="m37.23 93.28c8.115-5.561 16.073-12.165 17.339-13.223 0.115-0.096 0.181-0.152 0.181-0.152s-0.375-0.176-1.047-0.438c-4.777-1.861-24.686-8.113-33.454 12.855-2.602 6.222-1.926 8.705 0.585 8.904 3.335 0.265 9.911-3.502 16.396-7.946z"/>
    <path d="m126.51 131.54c-1.896 0.298-4.036 0.569-6.356 0.763-1.325 0.111-2.712 0.193-4.144 0.243-0.67 0.023-1.35 0.038-2.04 0.045-0.252 3e-3 -0.5 9e-3 -0.755 9e-3 -4.175 0-8.181-0.355-11.983-1.019-0.665-0.116-1.338-0.222-1.99-0.357-0.951 1.894-1.803 3.917-2.57 6.023-0.3 0.824-0.586 1.66-0.857 2.51-2.296 7.206-3.543 15.316-3.589 23.415-0.019 3.345 0.156 6.687 0.559 9.959 0.405 3.297 1.019 6.467 1.827 9.497 1.808 6.776 4.604 12.835 8.273 17.997 0.423 0.596 0.865 1.173 1.311 1.745 0.546 0.698 1.109 1.377 1.689 2.038 2.645 3.016 5.628 5.653 8.947 7.832 14.377-1.67 27.584-10.547 37.25-25.064 8.107-12.177 13.025-27.487 13.021-40.352-15.591-4.132-27.541-14.026-30.775-16.901-0.143 0.038-0.308 0.08-0.476 0.123-0.528 0.136-1.179 0.294-1.94 0.465-1.438 0.325-3.261 0.692-5.402 1.029zm6.782 2.759c0.437 0.363 0.942 0.77 1.48 1.197 5.076 4.023 14.522 10.566 26.246 14.299-1.368 22.912-18.207 54.132-45.199 58.275-3.932-2.792-7.189-6.206-9.859-10.037-0.452-0.649-0.887-1.31-1.305-1.982-0.111-0.178-0.228-0.354-0.336-0.534-1.986-3.293-3.568-6.848-4.794-10.557-2.521-7.633-3.516-15.921-3.259-23.969 0.136-4.249 0.618-8.426 1.402-12.405 0.354-1.799 0.774-3.552 1.249-5.257 0.451-1.623 0.955-3.196 1.507-4.711 0.362-0.992 0.737-1.968 1.14-2.906 4.561 0.722 9.007 0.938 13.128 0.866 0.686-0.012 1.362-0.031 2.028-0.059 6.683-0.275 12.321-1.272 15.875-2.065 0.236-0.05 0.48-0.104 0.697-0.155z"/>
    <path d="m105.51 142.25c-2.287 6.956-3.533 15.375-3.234 23.882 0.17 4.834 0.842 9.693 2.11 14.332 1.975 7.228 5.399 13.906 10.629 19.095l7.277-30.735 0.484-2.044 6.033-25.48c-3.209 0.532-7.024 0.996-11.234 1.196-0.659 0.031-1.328 0.056-2.005 0.074-3.188 0.081-6.567 3e-3 -10.06-0.32z"/>
    <path d="m133.84 143.91-5.667 23.932-0.488 2.063-7.32 30.914c19.401-6.354 31.556-29.187 34.197-46.954-7.502-2.932-13.908-6.752-18.738-10.118-0.579-0.403-1.132-0.798-1.665-1.186z"/>
   </g>
  </g>
 </g>
</svg>
