<svg xmlns="http://www.w3.org/2000/svg" xmlns:xlink="http://www.w3.org/1999/xlink" version="1.1" x="0px" y="0px" viewBox="0 0 165.106 332.84999999999997" style="enable-background:new 0 0 165.106 266.28;" xml:space="preserve"><g><path d="M77.807,17.321l-0.658-3.531c5.866-1.057,8.934,3.279,11.382,10.104c0.094,0.109,0.191,0.213,0.284,0.324   c4.557,5.507,6.445,13.233,7.076,20.495c2.83,4.914,6.735,8.163,12.976,8.734C95.571,41.78,103.2,22.614,98.161,10.614   C92.097-4.481,75.055-2.769,68.116,11.28h-1.935l-1.125,6.041c1.979-0.489,4.106-0.736,6.376-0.736   C73.702,16.585,75.827,16.832,77.807,17.321z"/><path d="M93.952,209.15c-0.697,0.104-1.414,0.157-2.126,0.157c-4.497,0-8.604-2.122-11.288-5.459l7.62,51.751   c0.914,6.212,6.252,10.681,12.349,10.681c0.607,0,1.221-0.044,1.839-0.135c6.829-1.005,11.551-7.357,10.544-14.188l-6.485-44.04   c-1.222-1.224-2.382-2.496-3.453-3.831C100.747,206.727,97.615,208.611,93.952,209.15z"/><path d="M79.474,196.624c0,0,0,0.001,0,0.002c0.913,6.212,6.255,10.68,12.352,10.681c0.606,0,1.218-0.044,1.835-0.135   c3.328-0.491,6.148-2.256,8.056-4.723c-4.392-5.972-7.418-12.865-9.252-20.126c-1.565-6.196-2.264-12.649-2.244-19.006   c0.028-9.159,1.565-18.106,4.232-25.79c0.251-0.723,0.509-1.437,0.779-2.136c0.885-2.288,1.867-4.454,2.947-6.451   c1.095,0.259,2.19,0.481,3.28,0.673l0.849-7.392c-1.475,0.662-2.972,1.332-4.504,2.019c-4.555,2.042-9.362,4.197-14.263,6.409   c-3.043,1.374-6.12,2.769-9.205,4.177c-1.395,0.637-2.79,1.276-4.183,1.916c-0.614,0.282-1.224,0.565-1.837,0.848   c-8.067,3.721-15.98,7.46-23.126,11.008c-0.509,0.253-1.02,0.506-1.521,0.757l0.618,5.382l-5.629,38.233l-0.002,0.015   c-1.006,6.829,3.715,13.181,10.545,14.188c0.617,0.091,1.229,0.135,1.835,0.135c6.084-0.001,11.411-4.448,12.344-10.636   c0.003-0.015,0.007-0.029,0.009-0.044l4.906-33.31h2.021h2.23h2.022L79.474,196.624z"/><path d="M51.038,209.307c-0.713,0-1.428-0.054-2.127-0.157c-5.269-0.776-9.451-4.319-11.32-8.933l-7.619,51.741   c-1.005,6.829,3.717,13.181,10.546,14.186c0.618,0.091,1.232,0.135,1.838,0.135c6.097,0,11.436-4.468,12.35-10.681l7.617-51.747   C59.639,207.187,55.533,209.307,51.038,209.307z"/><path d="M78.688,71.966l-0.146-1.771c-0.378-4.683-0.23-10.986,0.365-15.688c0.519-4.078,3.999-6.006,6.54-7.414   c0.955-0.531,2.733-1.516,2.733-1.979v-0.1l0.01-0.098c0.079-0.788-0.008-1.386-0.237-1.639c-0.209-0.23-0.735-0.365-1.441-0.365   c-1.821,0-4.732,0.877-7.987,2.404c-1.647,0.773-3.226,8.158-3.307,15.492l-0.024,1.978h-1.977h-3.571h-1.978l-0.023-1.977   c-0.084-7.338-1.66-14.723-3.307-15.494c-3.256-1.527-6.166-2.404-7.984-2.404c-0.709,0-1.233,0.135-1.444,0.365   c-0.229,0.253-0.315,0.851-0.237,1.639l0.01,0.098v0.1c0,0.463,1.778,1.447,2.732,1.979c2.542,1.408,6.022,3.336,6.541,7.414   c0.596,4.698,0.744,11.002,0.367,15.686l-0.143,1.774l-1.779,0.065c0,0-0.139,0.005-0.381,0.007   c1.358,0.623,2.799,1.121,4.311,1.473c5.058,1.178,10.112,0.543,14.491-1.473c-0.228-0.002-0.357-0.007-0.357-0.007L78.688,71.966z   "/><path d="M58.215,69.812c2.273,0.286,4.114,0.222,4.114,0.222c0.357-4.422,0.234-10.617-0.357-15.274   c-0.715-5.627-9.289-6.028-9.289-9.646c-0.715-7.235,8.937-3.281,12.504-1.608c4.289,2.01,4.459,17.282,4.459,17.282h3.572   c0,0,0.172-15.272,4.459-17.282c3.568-1.673,13.221-5.627,12.506,1.608c0,3.617-8.575,4.019-9.289,9.646   c-0.593,4.657-0.715,10.852-0.357,15.274c0,0,1.828,0.063,4.09-0.219c3.396-0.424,7.771-1.629,8.415-5.006   c0.562-2.954,2.354-15.537-0.147-26.83c-0.486-2.194-1.133-4.34-1.984-6.357c-2.369-5.613-6.311-10.224-12.695-12.112   c-2.011-0.595-4.259-0.924-6.782-0.924c-2.523,0-4.772,0.33-6.784,0.924c-20.482,6.06-15.8,40.174-14.826,45.299   C50.465,68.178,54.822,69.385,58.215,69.812z"/><path d="M112.038,117.838c0.372,1.026,0.738,2.096,1.094,3.222c0.544,1.722,1.068,3.556,1.564,5.527   c0.002,0.011,0.006,0.02,0.009,0.031c0.314,1.259,0.615,2.575,0.904,3.939c0.472-0.015,0.94-0.033,1.401-0.055   c4.793-0.23,8.997-0.853,12.116-1.456c0.898-0.173,1.699-0.344,2.406-0.504c-0.409-2.026-0.847-3.971-1.314-5.837   c-0.002-0.011-0.007-0.021-0.009-0.031c-0.52-2.09-1.084-4.07-1.675-5.974c-0.637-2.052-1.314-3.994-2.024-5.837   c-5.118,2.789-9.87,4.988-14.265,6.879C112.179,117.775,112.105,117.807,112.038,117.838z"/><path d="M123.13,93.629c-0.156-0.417-0.325-0.849-0.516-1.306c-8.767-20.969-28.676-14.716-33.453-12.855   c-0.672,0.262-1.047,0.438-1.047,0.438s0.066,0.056,0.18,0.151c1.264,1.057,9.223,7.662,17.339,13.223   c2.467,1.691,4.947,3.283,7.258,4.594c1.747-0.8,3.573-1.597,5.486-2.384C119.905,94.862,121.484,94.24,123.13,93.629z"/><path d="M6.242,162.368c-0.222-0.887-0.333-1.816-0.298-2.775c0.068-1.93,0.161-3.825,0.27-5.694l-0.028-0.079   c0,0-7.811,3.096-5.879,7.176C1.363,163.226,4.035,163.014,6.242,162.368z"/><path d="M31.256,158.272l4.33-2.049l-1.886-3.985c2.987-1.594,6.237-3.259,9.665-4.97c0.02-0.01,0.041-0.02,0.061-0.03   c0.699-0.349,1.406-0.699,2.12-1.052c6.666-3.289,13.944-6.727,21.371-10.156c0.64-0.296,1.282-0.591,1.924-0.887   c11.607-5.34,23.454-10.621,33.733-15.235c3.076-1.38,6.011-2.701,8.757-3.945c0.04-0.019,0.083-0.038,0.124-0.056   c4.019-1.729,8.832-3.909,14.31-6.913c8.524-4.675,18.673-11.362,30.055-21.587c-12.171,1.865-22.062,4.566-30.166,7.44   c-0.643,0.228-1.266,0.457-1.886,0.687c-1.465,0.543-2.884,1.088-4.228,1.635c-1.562,0.635-3.032,1.268-4.439,1.896   c-0.781,0.348-1.538,0.693-2.273,1.036c-2.662,1.24-5.054,2.44-7.177,3.54c-0.277,0.137-0.564,0.279-0.846,0.418   c-0.145,0.071-0.289,0.143-0.435,0.215c-17.531,8.669-42.056,21.151-62.383,30.431c-4.871,2.224-9.501,4.264-13.734,6.022   l-0.547-1.156c-0.567,3.939-1.012,8.11-1.33,12.505c0.92-0.568,1.5-0.947,1.5-0.947L31.256,158.272z"/><path d="M12.643,122.707c-2.007,8.031-3.497,17.502-4.273,28.724c-0.054,0.788-0.104,1.586-0.151,2.391   c-0.112,1.9-0.205,3.845-0.276,5.844c-0.024,0.696,0.05,1.371,0.194,2.021c0.148,0.665,0.372,1.3,0.674,1.893   c1.277,2.503,3.835,4.258,6.843,4.365c0.098,0.003,0.193,0.004,0.289,0.004c4.287,0,7.836-3.398,7.99-7.718   c0.054-1.54,0.124-3.039,0.204-4.509c0.044-0.807,0.092-1.603,0.143-2.388c0.164-2.514,0.366-4.922,0.601-7.225   c0.037-0.36,0.075-0.715,0.113-1.07c0.313-2.885,0.678-5.604,1.09-8.164c0.131-0.819,0.268-1.619,0.409-2.406   c0.504-2.817,1.062-5.437,1.667-7.858c0.001-0.007,0.004-0.014,0.006-0.022c0.496-1.973,1.021-3.808,1.565-5.53   c2.622-8.296,5.731-13.788,8.684-17.463l3.332,29.014c15.594-7.138,33.617-16.123,48.841-23.715   c4.585-2.287,8.92-4.448,12.912-6.422c0.378-0.188,0.771-0.382,1.142-0.565c0.041-0.02,0.084-0.041,0.125-0.062   c1.877-0.972,3.857-1.96,5.935-2.949c-1.74-1.022-3.535-2.166-5.328-3.369c-8.563-5.746-17.022-12.805-18.55-14.093l-0.456-0.384   l-1.877-1.582H58.372l-1.878,1.583l-0.454,0.383c-1.528,1.288-9.987,8.348-18.551,14.093c-6.28,4.214-12.616,7.722-16.316,7.722   c-0.002,0-0.002,0-0.002,0c-0.503,0-0.946-0.059-1.341-0.156c-2.03,3.909-3.891,8.418-5.504,13.611   c-0.593,1.911-1.159,3.898-1.68,5.997C12.645,122.703,12.644,122.705,12.643,122.707z"/><path d="M37.23,93.28c8.115-5.561,16.073-12.165,17.339-13.223c0.115-0.096,0.181-0.152,0.181-0.152s-0.375-0.176-1.047-0.438   c-4.777-1.861-24.686-8.113-33.454,12.855c-2.602,6.222-1.926,8.705,0.585,8.904C24.169,101.491,30.745,97.724,37.23,93.28z"/><path d="M126.512,131.54c-1.896,0.298-4.036,0.569-6.356,0.763c-1.325,0.111-2.712,0.193-4.144,0.243   c-0.67,0.023-1.35,0.038-2.04,0.045c-0.252,0.003-0.5,0.009-0.755,0.009c-4.175,0-8.181-0.355-11.983-1.019   c-0.665-0.116-1.338-0.222-1.99-0.357c-0.951,1.894-1.803,3.917-2.57,6.023c-0.3,0.824-0.586,1.66-0.857,2.51   c-2.296,7.206-3.543,15.316-3.589,23.415c-0.019,3.345,0.156,6.687,0.559,9.959c0.405,3.297,1.019,6.467,1.827,9.497   c1.808,6.776,4.604,12.835,8.273,17.997c0.423,0.596,0.865,1.173,1.311,1.745c0.546,0.698,1.109,1.377,1.689,2.038   c2.645,3.016,5.628,5.653,8.947,7.832c14.377-1.67,27.584-10.547,37.25-25.064c8.107-12.177,13.025-27.487,13.021-40.352   c-15.591-4.132-27.541-14.026-30.775-16.901c-0.143,0.038-0.308,0.08-0.476,0.123c-0.528,0.136-1.179,0.294-1.94,0.465   C130.476,130.836,128.653,131.203,126.512,131.54z M133.294,134.299c0.437,0.363,0.942,0.77,1.48,1.197   c5.076,4.023,14.522,10.566,26.246,14.299c-1.368,22.912-18.207,54.132-45.199,58.275c-3.932-2.792-7.189-6.206-9.859-10.037   c-0.452-0.649-0.887-1.31-1.305-1.982c-0.111-0.178-0.228-0.354-0.336-0.534c-1.986-3.293-3.568-6.848-4.794-10.557   c-2.521-7.633-3.516-15.921-3.259-23.969c0.136-4.249,0.618-8.426,1.402-12.405c0.354-1.799,0.774-3.552,1.249-5.257   c0.451-1.623,0.955-3.196,1.507-4.711c0.362-0.992,0.737-1.968,1.14-2.906c4.561,0.722,9.007,0.938,13.128,0.866   c0.686-0.012,1.362-0.031,2.028-0.059c6.683-0.275,12.321-1.272,15.875-2.065C132.833,134.404,133.077,134.35,133.294,134.299z"/><path d="M105.509,142.249c-2.287,6.956-3.533,15.375-3.234,23.882c0.17,4.834,0.842,9.693,2.11,14.332   c1.975,7.228,5.399,13.906,10.629,19.095l7.277-30.735l0.484-2.044l6.033-25.48c-3.209,0.532-7.024,0.996-11.234,1.196   c-0.659,0.031-1.328,0.056-2.005,0.074C112.381,142.65,109.002,142.572,105.509,142.249z"/><path d="M133.842,143.913l-5.667,23.932l-0.488,2.063l-7.32,30.914c19.401-6.354,31.556-29.187,34.197-46.954   c-7.502-2.932-13.908-6.752-18.738-10.118c-0.579-0.403-1.132-0.798-1.665-1.186L133.842,143.913z"/></g></svg>
