<svg xmlns="http://www.w3.org/2000/svg" xmlns:xlink="http://www.w3.org/1999/xlink" version="1.1" x="0px" y="0px" viewBox="-255 347 100 100" enable-background="new -255 347 100 100" xml:space="preserve"><circle cx="-204.5" cy="397.6" r="42.5" stroke="#000000" stroke-width="2" fill="#6600aa" /><path fill-rule="evenodd" clip-rule="evenodd" fill="#9944ff" d="M-204.5,439.6c-23.3,0-42.1-18.9-42.1-42.1  c0-23.3,18.9-42.1,42.1-42.1s42.1,18.9,42.1,42.1C-162.4,420.8-181.2,439.6-204.5,439.6z M-211.2,411c-1.4,0-2.5,1.1-2.5,2.5  c0,1.4,1.1,2.5,2.5,2.5c1.4,0,2.5-1.1,2.5-2.5C-208.7,412.1-209.8,411-211.2,411z M-192.7,428.7c-1.2,0-2.4-0.1-3.5-0.2  c0.1-0.4,0.1-0.7,0.1-1.1c0-2.6-2.1-4.6-4.6-4.6c-2.3,0-4.2,1.7-4.6,3.8c-10.1-3.4-18.3-10.7-23-20.1c3.9-0.9,6.9-4.4,6.9-8.6  c0-4.9-4-8.8-8.8-8.8c-0.7,0-1.4,0.1-2.1,0.3c0-0.1,0-0.2,0-0.3c0-10.7,4.2-20.4,11.1-27.5c-13.5,6.3-22.9,20-22.9,35.9  c0,21.9,17.7,39.6,39.6,39.6c11.2,0,21.3-4.7,28.5-12.1C-181.1,427.3-186.7,428.7-192.7,428.7z"/></svg>