<svg fill="#DCBD23" xmlns="http://www.w3.org/2000/svg" xmlns:xlink="http://www.w3.org/1999/xlink" version="1.1" x="0px" y="0px" viewBox="0 0 100 100" enable-background="new 0 0 100 100" xml:space="preserve"><g><path fill="#DCBD23" d="M64.75269,66.92139c0.34222,0.66284,0.64795,1.21387,0.90356,1.61572   c2.78223,4.37207,5.27246,5.03809,11.92676,6.81934l0.4082,0.10938c1.68945,0.45312,3.06152,0.63672,4.17578,0.63672   c2.31738-0.00098,3.51953-0.79492,4.14258-1.61621c0.61908-0.81689,0.83746-1.85742,0.6778-3.10193   c0.08649-0.31824,0.02844-0.65369-0.17859-0.90137c-0.28955-1.14282-0.84546-2.42822-1.69843-3.8678   c-2.72821-4.60364-14.01392-15.79053-21.31439-22.81165l8.91791-1.95203c0.2207-0.04785,0.41797-0.16992,0.56152-0.34473   l6.625-8.125c0.34863-0.42773,0.28418-1.05762-0.14355-1.40723c-0.42871-0.34961-1.05859-0.28223-1.40723,0.14355l-6.4043,7.85449   l-9.36719,2.05078c-0.16138,0.0354-0.29651,0.11597-0.41547,0.21484c-2.28369-2.18103-3.97278-3.76306-4.54462-4.29688   c-0.09259-1.41382-0.57147-2.61145-1.26019-3.61865l6.24957-2.38818c0.18359-0.07031,0.3418-0.19336,0.45605-0.35352   c0.71387-0.99902,6.99805-9.84375,7.77344-12.55664c0.15137-0.53027-0.15625-1.08398-0.6875-1.23633   c-0.52637-0.14453-1.08398,0.15527-1.23633,0.6875c-0.55859,1.95703-5.30078,8.87988-7.30273,11.69824l-6.25977,2.3916   c-0.13458,0.05151-0.24902,0.13074-0.34497,0.22632c-0.65063-0.58447-1.36255-1.06934-2.07721-1.45605   c0.37811-0.40833,0.77307-0.67456,1.1839-0.76245c0.70312-0.14941,1.28809,0.22852,1.31445,0.24609   c0.44727,0.31445,1.06641,0.20898,1.38572-0.23633c0.32229-0.44824,0.21975-1.07324-0.22947-1.39551   c-0.00262-0.00195-0.01221-0.00806-0.01569-0.0105c0.76129-1.47363,0.40698-2.62451,0.086-3.22192   c-0.56421-1.05103-1.73407-1.77344-3.06287-1.96851c0.82483-2.62256,3.00806-8.78113,6.31384-12.39478   c0.37305-0.40723,0.3457-1.04004-0.0625-1.41211c-0.40625-0.37305-1.03809-0.3457-1.41211,0.0625   c-3.99976,4.37061-6.37366,11.81738-6.9881,13.92236C50.89465,24.35193,50.4071,24.64648,50,25.03271   c-0.40717-0.38623-0.89459-0.68079-1.44159-0.86816c-0.6145-2.10498-2.98834-9.55176-6.9881-13.92236   c-0.37305-0.4082-1.00586-0.43555-1.41211-0.0625c-0.4082,0.37207-0.43555,1.00488-0.0625,1.41211   c3.30511,3.61292,5.48804,9.76978,6.31335,12.39331c-1.33716,0.19299-2.49811,0.91724-3.06238,1.96997   c-0.32098,0.59741-0.67529,1.74829,0.086,3.22192c-0.00348,0.00244-0.01306,0.00854-0.01569,0.0105   c-0.44922,0.32227-0.55176,0.94727-0.22952,1.39551c0.32131,0.44922,0.94534,0.55176,1.39553,0.22949   c0.00488-0.00488,0.57812-0.3877,1.28223-0.24316c0.41919,0.08252,0.82166,0.35034,1.20648,0.76636   c-0.71472,0.38672-1.42664,0.87158-2.07733,1.45605c-0.09595-0.09558-0.21039-0.1748-0.34497-0.22632l-6.25977-2.3916   c-2.00195-2.81836-6.74414-9.74121-7.30273-11.69824c-0.15234-0.53223-0.71094-0.83105-1.23633-0.6875   c-0.53125,0.15234-0.83887,0.70605-0.6875,1.23633c0.77539,2.71289,7.05957,11.55762,7.77344,12.55664   c0.11426,0.16016,0.27246,0.2832,0.45605,0.35352l6.24957,2.38818c-0.68872,1.0072-1.1676,2.20483-1.26019,3.61865   c-0.57184,0.53381-2.26093,2.11584-4.54462,4.29688c-0.11896-0.09888-0.25409-0.17944-0.41547-0.21484l-9.36719-2.05078   l-6.4043-7.85449c-0.34863-0.42578-0.97754-0.49316-1.40723-0.14355c-0.42773,0.34961-0.49219,0.97949-0.14355,1.40723l6.625,8.125   c0.14355,0.1748,0.34082,0.29688,0.56152,0.34473l8.91791,1.95203c-7.30048,7.02112-18.58618,18.20801-21.31439,22.81165   c-0.85297,1.43958-1.40887,2.72498-1.69843,3.8678c-0.20703,0.24768-0.26508,0.58313-0.17859,0.90137   c-0.15967,1.24451,0.05872,2.28503,0.6778,3.10193c0.62305,0.82129,1.8252,1.61621,4.14258,1.61621   c1.11426,0,2.48633-0.18359,4.17578-0.63672l0.4082-0.10938c6.6543-1.78125,9.14453-2.44727,11.92676-6.81934   c0.25586-0.4021,0.56183-0.95386,0.90442-1.61743c1.40613-0.23657,4.87024-1.30835,8.18927-6.15332   c-0.1637,2.10547-0.24658,4.07581-0.14252,5.55396l0.02441,0.36328c0.18433,2.64844,0.45856,6.48975,1.40869,10.04419   c0.00342,0.01709,0.00916,0.03247,0.01349,0.04944c0.84967,3.15503,2.23877,6.0719,4.59119,7.7168   c0.00519,0.00464,0.01086,0.00818,0.01611,0.01257c0.03259,0.02271,0.06061,0.05127,0.09357,0.07349   c0.01306,0.00879,0.02795,0.01147,0.04126,0.01953c0.05499,0.03333,0.1123,0.05945,0.172,0.08154   c0.02753,0.01001,0.05365,0.02295,0.0816,0.03064c0.08246,0.02258,0.16681,0.03589,0.25256,0.03687   c0.00311,0,0.0061,0.00134,0.00922,0.00134L50,84.74988L50.00098,84.75c0.00311,0,0.0061-0.00134,0.00922-0.00134   c0.08575-0.00098,0.17023-0.01428,0.25262-0.03687c0.02789-0.00757,0.05402-0.02051,0.08142-0.03064   c0.05975-0.02197,0.11713-0.0481,0.17212-0.08154c0.01331-0.00806,0.02826-0.01074,0.04126-0.01953   c0.03278-0.02197,0.06073-0.05054,0.09314-0.073c0.00549-0.00464,0.01135-0.00842,0.01672-0.01318   c5.0127-3.50537,5.66431-12.79675,6.01318-17.8103l0.02441-0.36328c0.104-1.47778,0.02118-3.44751-0.1424-5.55237   C59.88416,65.61987,63.34656,66.68762,64.75269,66.92139z M67.2373,67.2865c-1.36255-2.24011-4.09784-8.52429-6.45135-14.14575   c2.2627,1.16199,4.74634,1.98584,5.76587,2.30151c0.79309,1.9762,1.32318,3.74329,1.32318,4.93274   C67.875,63.06628,67.5368,65.58398,67.2373,67.2865z M84.71582,73.27734c-0.72437,0.95459-2.88104,1.07324-5.79584,0.35486   c-1.3717-2.57678-2.44812-5.68066-3.27136-8.67334c3.68011,3.47485,7.86646,5.92468,9.36523,6.7489   C85.08789,72.37488,84.99396,72.91052,84.71582,73.27734z M83.38965,67.63477c0.23975,0.40454,0.44495,0.78992,0.63342,1.16528   c-2.54462-1.58008-6.51917-4.354-9.34119-7.77026c-0.37097-1.69153-0.65369-3.22498-0.86041-4.46045   C78.18512,61.07056,82.0097,65.3064,83.38965,67.63477z M71.4314,54.13025c0.24896,1.96399,1.59949,11.58069,4.92401,18.82397   c-3.961-1.07922-5.87848-1.75671-7.50781-3.50037c0.29877-1.32031,1.0274-4.96216,1.0274-9.07886   c0-1.57495-0.70288-3.82544-1.69067-6.21362c-0.00464-0.00879-0.00629-0.01855-0.01117-0.02734   c-0.85217-2.05676-1.91406-4.21387-2.92535-6.13208C67.22772,49.9314,69.34894,52.02612,71.4314,54.13025z M57.35925,40.44348   c0.71265,0.67126,1.68713,1.5929,2.84979,2.70178c1.23938,2.03247,3.51611,6.03052,5.27057,9.82593   c-1.82666-0.65552-4.41565-1.72815-6.01056-2.99988c-1.60614-3.89417-2.80109-6.88855-2.83234-6.96643   c-0.01764-0.04443-0.05212-0.07471-0.07513-0.11499C56.85883,41.90796,57.15027,41.03516,57.35925,40.44348z M52.7666,25.92773   c0.92578-0.03223,1.80078,0.36816,2.125,0.97363c0.29352,0.54712,0.04321,1.17188-0.26849,1.64917   c-0.19171-0.00903-0.3927-0.00049-0.60266,0.02441c-0.62091-0.18408-2.1795-0.83252-2.8764-1.82666   C51.6123,26.09204,52.33575,25.94763,52.7666,25.92773z M51.69861,29.75146c-0.23199,0.22314-0.45416,0.47644-0.6665,0.76123   c-0.27722-0.09204-0.54724-0.17407-0.79675-0.23438c-0.01166-0.00293-0.02289,0.00098-0.03455-0.00146   C50.13531,30.26331,50.06824,30.26868,50,30.2688c-0.06824-0.00012-0.13525-0.00549-0.20074,0.00806   c-0.01172,0.00244-0.02289-0.00146-0.03461,0.00146c-0.24951,0.0603-0.51953,0.14233-0.79675,0.23438   c-0.21234-0.28479-0.43451-0.53809-0.6665-0.76123c0.5697-0.3103,1.18085-0.7251,1.69861-1.25903   C50.51776,29.02637,51.12891,29.44116,51.69861,29.75146z M45.97986,28.57471c-0.21008-0.0249-0.41138-0.03369-0.60321-0.02441   c-0.31158-0.47729-0.56171-1.10205-0.26825-1.64893c0.3252-0.60547,1.23047-1.00586,2.125-0.97363   c0.43085,0.0199,1.1543,0.16431,1.62256,0.82056C48.15912,27.74219,46.60089,28.39062,45.97986,28.57471z M39.79114,43.1449   c1.1626-1.10876,2.13702-2.0304,2.84961-2.70154c0.20898,0.5918,0.50043,1.4646,0.79773,2.44617   c-0.02307,0.04041-0.05756,0.07092-0.0752,0.11536c-0.03125,0.07788-1.2262,3.07227-2.83234,6.96643   c-1.59235,1.26965-4.18188,2.34265-6.00958,2.9989C36.27582,49.17505,38.55206,45.17749,39.79114,43.1449z M16.61035,67.63477   c1.3797-2.32861,5.20471-6.56494,9.56891-11.06665c-0.20642,1.23535-0.48895,2.76868-0.8598,4.46021   c-2.82214,3.41687-6.79761,6.19141-9.34259,7.77173C16.16534,68.42468,16.37061,68.03931,16.61035,67.63477z M21.08008,73.63208   c-2.91577,0.71851-5.07336,0.59998-5.7959-0.35474c-0.27814-0.36682-0.37207-0.90247-0.29803-1.56958   c1.49896-0.82422,5.6861-3.27466,9.36658-6.75024C23.52954,67.94983,22.45282,71.05383,21.08008,73.63208z M31.81598,54.16064   C30.828,56.54907,30.125,58.7998,30.125,60.375c0,4.1167,0.72864,7.75854,1.0274,9.07886   c-1.62933,1.74365-3.54681,2.42114-7.50781,3.50037c3.32483-7.2439,4.67535-16.86157,4.92407-18.82446   c2.08252-2.10437,4.20386-4.19885,6.18384-6.1283c-1.01141,1.91821-2.07343,4.07581-2.92572,6.13281   C31.82208,54.1427,31.82043,54.1521,31.81598,54.16064z M32.76221,67.28735C32.46283,65.58704,32.125,63.07202,32.125,60.375   c0-1.18896,0.53021-2.9563,1.32361-4.93286c1.01984-0.3158,3.50305-1.13953,5.76544-2.30139   C36.86023,58.76294,34.12463,65.04785,32.76221,67.28735z M43.91376,55.83118c-2.58154,5.60437-5.57574,7.78088-7.46136,8.62244   c0.92572-1.97363,1.9787-4.3606,3.0285-6.80872c0.81677-0.23596,2.49805-0.82678,4.46198-2.08459   C43.93311,55.64941,43.92352,55.74158,43.91376,55.83118z M44.23901,52.90527c-1.36664,1.06799-2.66882,1.7666-3.68396,2.21301   c1.48364-3.51892,2.85992-6.89246,3.72998-9.04492C44.48895,47.00598,44.625,47.86536,44.625,48.5   C44.625,49.32886,44.45538,50.95874,44.23901,52.90527z M50,82.47583c-1.30273-1.11719-2.23273-2.80371-2.8952-4.73511   c0.81946,0.09241,1.87988,0.17822,3.02802,0.17822c0.90216,0,1.85211-0.05664,2.77051-0.19983   C52.24023,79.65967,51.30768,81.35449,50,82.47583z M53.51746,75.56287c-0.00458,0.0011-0.00897-0.00061-0.01355,0.00061   c-2.46106,0.62427-5.67664,0.27307-6.99988,0.08337c-0.2569-1.06299-0.45477-2.15173-0.61121-3.22571   c0.95905,0.20776,2.36938,0.42944,4.0896,0.42944c1.24457,0,2.64441-0.12329,4.12714-0.44543   C53.95691,73.45581,53.76575,74.52124,53.51746,75.56287z M54.37402,70.28394c-4.0658,1.06213-7.58441,0.32788-8.74634,0.01611   c-0.11646-1.1095-0.19879-2.15527-0.26483-3.08325c1.14532,0.22717,3.03845,0.52539,5.09613,0.52539   c1.38184,0,2.83044-0.14856,4.17853-0.53003C54.57178,68.13684,54.48975,69.17847,54.37402,70.28394z M45.25281,65.14844   c-0.01038-0.78271,0.01721-1.66699,0.07007-2.61169c0.93787,0.20764,2.50842,0.46521,4.54431,0.46521   c1.40057,0,3.0293-0.13599,4.8092-0.48096c0.05188,0.92383,0.08105,1.79407,0.073,2.56445   C51.43585,66.32849,46.76074,65.47729,45.25281,65.14844z M53.4408,49.81885c-2.96136,0.57422-6.2793-0.05566-6.86798-0.17688   C46.60529,49.19495,46.625,48.8064,46.625,48.5c0-0.50464-0.06464-1.09961-0.17047-1.73804   c0.88049,0.11768,2.10254,0.2312,3.54352,0.2312c1.078,0,2.27991-0.06653,3.54865-0.23926   C53.44,47.39526,53.375,47.99316,53.375,48.5C53.375,48.84558,53.40009,49.29578,53.4408,49.81885z M50.71387,52.06152   c0.93591,0,1.93372-0.06921,2.91644-0.24512c0.07562,0.71411,0.1626,1.49438,0.25739,2.34082   c0.05548,0.49438,0.11267,1.00439,0.16986,1.52246c-2.63324,0.67419-6.61078,0.16943-8.10809-0.06274   c0.05481-0.49609,0.10962-0.98572,0.16284-1.45972c0.10229-0.91333,0.19629-1.75439,0.2757-2.51245   C47.09314,51.78223,48.76074,52.06152,50.71387,52.06152z M50.75,58.01758c1.2002,0,2.42682-0.09204,3.52112-0.33545   c0.09796,0.95007,0.19012,1.90417,0.26666,2.83313c-4.4469,0.90393-7.86176,0.28992-9.07532-0.00256   c0.07843-0.95203,0.1731-1.93054,0.2738-2.90381C46.76685,57.76758,48.71094,58.01758,50.75,58.01758z M53.99133,44.66199   c-3.58118,0.60278-6.72021,0.21899-7.98071,0.00745c-0.27087-1.08594-0.58948-2.15894-0.86969-3.04517   c1.05817-0.89502,3.17755-3.03027,3.5993-6.06958c0.07617-0.54688-0.30566-1.05176-0.85254-1.12793   c-0.55078-0.08203-1.05176,0.30566-1.12793,0.85254c-0.26068,1.87683-1.41638,3.35938-2.29895,4.24719   c-0.81781-5.07483,4.37042-6.89624,5.54138-7.23938c1.17603,0.34021,6.36462,2.14368,5.53656,7.24463   c-0.88116-0.88281-2.03552-2.36145-2.29852-4.25244c-0.07617-0.54688-0.5791-0.93555-1.12793-0.85254   c-0.54688,0.07617-0.92871,0.58105-0.85254,1.12793c0.42175,3.03931,2.54114,5.17456,3.5993,6.06958   C54.57947,42.50854,54.26178,43.57849,53.99133,44.66199z M55.375,48.5c0-0.63416,0.13611-1.49353,0.34009-2.42627   c0.87042,2.15332,2.2475,5.52881,3.73187,9.04932c-1.01093-0.44434-2.31049-1.14307-3.68597-2.21777   C55.54462,50.95874,55.375,49.32886,55.375,48.5z M56.08624,55.83118c-0.00977-0.0896-0.01935-0.18176-0.02911-0.27087   c1.96387,1.25781,3.6452,1.84851,4.46198,2.08447c1.05005,2.44885,2.10327,4.83643,3.02917,6.8103   C61.66266,63.61328,58.66754,61.43506,56.08624,55.83118z"></path></g></svg>