<svg fill="#70C041" xmlns="http://www.w3.org/2000/svg" xmlns:xlink="http://www.w3.org/1999/xlink" version="1.1" x="0px" y="0px" viewBox="0 0 500 500" enable-background="new 0 0 500 500" xml:space="preserve"><g display="none"><g display="inline"><path d="M250.171,209.263c-125.106,0-219.25-14.32-233.59-25.382c0.11,16.344,3.286,32.081,9.435,46.836    c160.144,34.039,299.425,31.92,453.723,0.076c4.709-14.97,6.808-30.95,6.828-47.552    C476.539,196.651,377.857,209.263,250.171,209.263z"></path><path d="M486.566,182.854c-0.013-16.36-2.268-32.118-7.141-46.901c-154.593-31.964-293.078-34.107-453.52,0.033    c-6.054,14.529-9.203,30-9.324,46.059c14.346-11.937,108.487-25.308,233.588-25.308    C378.012,156.736,474.139,172.68,486.566,182.854z"></path><path d="M26.198,231.157C51.976,292.341,129.069,336.5,251.568,336.5c145.058,0,208.471-44.06,227.991-105.136    C371.895,320.638,110.986,320.568,26.198,231.157z"></path><path d="M479.376,135.804C458.961,74.123,392.714,29.5,251.568,29.5C129.933,29.5,51.66,74.202,25.914,135.969    C110.382,45.895,371.912,45.841,479.376,135.804z"></path></g></g><g display="none"><g display="inline"><path d="M29.726,322.47c0.263,81.501,99.801,147.249,222.324,146.854c122.523-0.396,221.635-66.785,221.372-148.286L29.726,322.47    z M251.52,453.52c-106.674,0.345-205.495-53.557-205.745-131.102l412.559-1.331C458.583,398.632,361.253,453.166,251.52,453.52z"></path><path d="M59.539,322.495c0.635,72.84,103.193,117.986,193.622,117.694c87.562-0.283,193.005-46.099,192.371-118.939    L59.539,322.495z M121.508,355.876c-2.075,2.521-7.132,1.787-11.293-1.64c-4.16-3.429-5.852-8.248-3.777-10.77    c2.076-2.521,7.131-1.783,11.292,1.641C121.891,348.534,123.583,353.354,121.508,355.876z M152.497,387.885    c-6.354,1.555-11.981,0.865-12.569-1.538c-0.589-2.404,4.086-5.613,10.44-7.169c6.354-1.554,11.982-0.865,12.57,1.541    C163.527,383.122,158.852,386.331,152.497,387.885z M168.497,347.309c-0.739,1.174-3.859,0.547-6.967-1.403    c-3.109-1.952-5.029-4.486-4.292-5.664c0.741-1.175,3.86-0.548,6.968,1.403C167.314,343.598,169.235,346.133,168.497,347.309z     M208.146,391.626c-0.804,4.647-2.556,8.226-3.914,7.99c-1.357-0.234-1.806-4.195-1.004-8.841    c0.804-4.647,2.555-8.226,3.914-7.991C208.5,383.021,208.949,386.979,208.146,391.626z M220.852,351.103    c-0.557,2.082-6.577,2.277-13.446,0.439c-6.865-1.843-11.98-5.023-11.423-7.107c0.561-2.084,6.58-2.28,13.445-0.439    C216.294,345.836,221.409,349.018,220.852,351.103z M253.883,385.354c-3.125,3.531-6.741,5.434-8.077,4.251    c-1.337-1.185,0.115-5.009,3.239-8.54c3.125-3.531,6.742-5.435,8.078-4.251C258.458,377.998,257.008,381.823,253.883,385.354z     M260.229,336.262c1.602-0.485,4.445,4.186,6.358,10.442c1.912,6.256,2.165,11.724,0.566,12.213    c-1.597,0.487-4.445-4.188-6.356-10.441C258.885,342.221,258.63,336.753,260.229,336.262z M277.86,421.936    c-6.311,1.713-11.954,1.168-12.604-1.221c-0.646-2.39,3.944-5.716,10.257-7.43c6.312-1.715,11.956-1.169,12.605,1.22    C288.765,416.894,284.172,420.221,277.86,421.936z M310.339,378.932c-2.048,6.105-5.138,10.577-6.898,9.985    c-1.761-0.588-1.526-6.02,0.521-12.123c2.053-6.105,5.14-10.576,6.901-9.986C312.623,367.398,312.39,372.827,310.339,378.932z     M357.64,389.188c-0.498,1.716-4.575,2.042-9.104,0.731s-7.799-3.764-7.301-5.478c0.498-1.715,4.574-2.042,9.104-0.731    C354.868,385.021,358.137,387.476,357.64,389.188z M358.86,349.204c-1.26,2-6.564,0.92-11.848-2.411    c-5.282-3.33-8.542-7.652-7.282-9.651c1.261-1.999,6.566-0.917,11.848,2.412C356.859,342.885,360.121,347.205,358.86,349.204z     M398.784,361.983c-1.913,0.553-4.646-3.099-6.104-8.153c-1.459-5.055-1.092-9.599,0.82-10.149    c1.915-0.552,4.646,3.099,6.104,8.151C401.063,356.888,400.695,361.433,398.784,361.983z"></path></g></g><g><g><path d="M248.597,223.739c-125.106,0-219.25-14.32-233.59-25.382c0.11,16.344,3.286,32.081,9.435,46.836    c160.144,34.039,299.425,31.919,453.723,0.076c4.709-14.97,6.808-30.95,6.828-47.552    C474.965,211.127,376.283,223.739,248.597,223.739z"></path><path d="M484.992,197.33c-0.013-16.36-2.268-32.118-7.141-46.901c-154.593-31.964-293.078-34.107-453.52,0.033    c-6.054,14.529-9.203,30-9.324,46.059c14.346-11.937,108.487-25.308,233.588-25.308    C376.438,171.212,472.564,187.156,484.992,197.33z"></path><g><path d="M24.624,245.633c11.859,28.148,34.588,52.688,67.595,70.987l329.19-1.062c30.069-18.137,47.782-42.198,56.577-69.717     C370.32,335.114,109.412,335.044,24.624,245.633z"></path></g><path d="M477.802,150.28C457.387,88.599,391.14,43.976,249.994,43.976c-121.636,0-199.909,44.702-225.655,106.469    C108.808,60.371,370.338,60.317,477.802,150.28z"></path></g><g><g display="none"><path display="inline" d="M248.597,223.498c-125.106,0-219.25-14.32-233.59-25.382c0.11,16.344,3.286,32.081,9.435,46.836     c160.144,34.039,299.425,31.919,453.723,0.076c4.709-14.97,6.808-30.95,6.828-47.552     C474.965,210.886,376.283,223.498,248.597,223.498z"></path><path display="inline" d="M484.992,197.089c-0.013-16.36-2.268-32.118-7.141-46.901c-154.593-31.964-293.078-34.107-453.52,0.033     c-6.054,14.529-9.203,30-9.324,46.059c14.346-11.937,108.487-25.308,233.588-25.308     C376.438,170.971,472.564,186.915,484.992,197.089z"></path><path display="inline" d="M24.624,245.392c25.778,61.185,102.872,105.343,225.371,105.343     c145.058,0,208.471-44.059,227.991-105.135C370.32,334.873,109.412,334.803,24.624,245.392z"></path><path display="inline" d="M477.802,150.039C457.387,88.357,391.14,43.735,249.994,43.735     c-121.636,0-199.909,44.702-225.655,106.469C108.808,60.13,370.338,60.076,477.802,150.039z"></path></g><g><path d="M28.151,325.705c0.263,81.5,99.801,147.248,222.324,146.854c122.523-0.395,221.635-66.785,221.372-148.285     L28.151,325.705z M249.945,456.754C143.271,457.1,44.451,403.197,44.2,325.652l412.559-1.33     C457.009,401.867,359.679,456.4,249.945,456.754z"></path><path d="M57.964,325.73c0.635,72.84,103.193,117.986,193.622,117.693c87.562-0.283,193.005-46.098,192.371-118.939L57.964,325.73     z M119.934,359.111c-2.075,2.52-7.132,1.787-11.293-1.641c-4.16-3.428-5.852-8.248-3.777-10.77     c2.076-2.521,7.131-1.783,11.292,1.641C120.317,351.77,122.008,356.59,119.934,359.111z M150.923,391.119     c-6.354,1.555-11.981,0.865-12.569-1.537c-0.589-2.404,4.086-5.613,10.44-7.17c6.354-1.553,11.982-0.865,12.57,1.541     C161.953,386.357,157.277,389.566,150.923,391.119z M166.923,350.543c-0.739,1.174-3.859,0.547-6.967-1.402     c-3.109-1.953-5.029-4.486-4.292-5.664c0.741-1.176,3.86-0.549,6.968,1.402C165.74,346.832,167.661,349.367,166.923,350.543z      M206.572,394.861c-0.804,4.646-2.556,8.225-3.914,7.99c-1.357-0.234-1.806-4.195-1.004-8.842     c0.804-4.646,2.555-8.225,3.914-7.99C206.925,386.256,207.375,390.215,206.572,394.861z M219.277,354.338     c-0.557,2.082-6.577,2.277-13.446,0.439c-6.865-1.844-11.98-5.023-11.423-7.107c0.561-2.084,6.58-2.281,13.445-0.439     C214.72,349.07,219.835,352.252,219.277,354.338z M252.309,388.59c-3.125,3.531-6.741,5.434-8.077,4.25     c-1.337-1.184,0.115-5.008,3.239-8.539c3.125-3.531,6.742-5.436,8.078-4.252C256.884,381.232,255.434,385.059,252.309,388.59z      M258.654,339.496c1.602-0.484,4.445,4.186,6.358,10.443c1.912,6.256,2.165,11.723,0.566,12.213     c-1.597,0.486-4.445-4.188-6.356-10.441C257.311,345.455,257.056,339.988,258.654,339.496z M276.286,425.17     c-6.311,1.713-11.954,1.168-12.604-1.221c-0.646-2.389,3.944-5.715,10.257-7.43c6.312-1.715,11.956-1.168,12.605,1.221     C287.19,420.129,282.598,423.455,276.286,425.17z M308.765,382.166c-2.048,6.105-5.138,10.578-6.898,9.986     c-1.761-0.588-1.526-6.02,0.521-12.123c2.053-6.105,5.14-10.576,6.901-9.986C311.049,370.633,310.815,376.062,308.765,382.166z      M356.065,392.422c-0.498,1.717-4.575,2.043-9.104,0.732s-7.799-3.764-7.301-5.479s4.574-2.041,9.104-0.73     C353.294,388.256,356.562,390.711,356.065,392.422z M357.286,352.439c-1.26,2-6.564,0.92-11.848-2.412     c-5.282-3.33-8.542-7.652-7.282-9.65c1.261-2,6.566-0.918,11.848,2.412S358.547,350.439,357.286,352.439z M397.21,365.219     c-1.913,0.553-4.646-3.1-6.104-8.154c-1.459-5.055-1.092-9.598,0.82-10.148c1.915-0.553,4.646,3.098,6.104,8.15     C399.489,360.123,399.121,364.668,397.21,365.219z"></path></g></g></g></svg>