<svg fill="#164F86" xmlns="http://www.w3.org/2000/svg" xmlns:xlink="http://www.w3.org/1999/xlink" version="1.1" x="0px" y="0px" viewBox="0 0 100 100" enable-background="new 0 0 100 100" xml:space="preserve"><g><path fill="none" d="M81.965,61.599c-0.856-1.66-1.303-1.818-3.637-1.119c0.073,0.705,0.17,1.431,0.223,2.159   c0.234,3.212,0.757,6.492-1.973,9.063c-0.086,0.08-0.166,0.208-0.179,0.322c-0.278,2.315-2.261,3.011-3.909,4.416   c-0.455-1.391-0.814-2.489-1.136-3.473c1.275-1.509,2.463-2.782,3.485-4.18c0.483-0.661,0.866-1.542,0.915-2.347   c0.127-2.089,0.042-4.191,0.042-6.381c-1.254-0.575-2.586-0.965-3.647-1.733c-1.082-0.782-1.891-1.939-2.837-2.916   c-0.078-0.082-0.29-0.033-0.641-0.06c1.561,2.615,1.4,5.312,1.238,8.055c-0.162,2.753-1.731,4.86-2.882,7.176   c-0.571,1.151-1.355,2.076-2.46,2.711c-2.468,1.422-4.943,2.835-7.441,4.204c-0.2,0.109-0.598-0.144-1.153-0.297   c1.406-1.74,3.189-2.665,4.762-3.807c2.137-1.551,3.829-3.345,5.151-5.712c2.558-4.583,2.75-9.051,0.436-13.915   c-1.551,0.177-3.022,0.533-4.471,0.457c-1.396-0.073-2.769-0.592-4.615-1.023c1.412,3.561,1.2,6.899,1.362,10.204   c0.082,1.705-0.458,3.137-1.385,4.523c-2.394,3.578-5.383,6.42-9.352,8.24c-1.602,0.736-3.17,1.342-4.94,1.477   c-2.223,0.169-4.435,0.517-6.659,0.649c-1.216,0.072-2.457-0.09-3.671-0.26c-0.363-0.052-1.014-0.185-0.788-1.149   c2.816-0.844,5.656-1.937,8.769-2.175c1.708-0.13,3.491-0.384,5.056-1.03c3.359-1.389,6.247-3.479,8.406-6.519   c1.038-1.461,1.845-2.868,1.708-4.751c-0.109-1.478,0.015-2.976,0.079-4.464c0.14-3.223-0.916-6.048-2.814-8.596   c-0.654-0.877-0.889-0.856-2.826,0.313c1.418,1.266,1.629,2.975,1.427,4.707c-0.256,2.205-0.612,4.403-1.042,6.58   c-0.238,1.208-0.709,2.369-1.087,3.547c-0.426,1.327-1.06,2.452-2.342,3.22c-1.161,0.696-2.323,1.501-3.225,2.494   c-1.984,2.186-4.582,2.822-7.292,3.292c-2.069,0.359-4.186,0.535-6.199,1.09c-4.383,1.206-8.781,1.507-13.265,0.821   c-0.3-0.046-0.629,0.093-0.992,0.155c0.172,0.314,0.229,0.567,0.386,0.688c2.638,2.025,6.061,2.792,8.432,5.254   c0.158,0.165,0.449,0.2,0.675,0.301c8.539,3.752,8.539,3.752,17.921,3.723c0.248,0,0.497,0.004,0.745,0.002   c3.773-0.045,7.377-0.8,10.764-2.518c0.993-0.504,1.993-1.071,3.059-1.341c2.683-0.681,5.125-1.822,7.405-3.37   c0.304-0.207,0.785-0.151,1.67-0.297c-0.624,1.081-1.146,1.669-1.317,2.344c-0.411,1.631-1.392,2.334-3.008,2.748   c-2.024,0.519-3.956,1.419-5.898,2.224c-0.377,0.156-0.621,0.633-1.255,1.313c1.087,0,1.712,0.115,2.278-0.017   c5.545-1.301,11.196-2.208,16.513-4.383c1.026-0.421,2.084-0.791,3.157-1.064c2.399-0.607,4.038-2.24,4.612-4.43   c0.511-1.951,1.377-3.686,2.102-5.513c0.717-1.806,0.738-3.62-0.187-5.381C83.469,64.431,82.699,63.024,81.965,61.599z    M47.753,80.489c-1.842,0.181-3.698,0.239-5.536,0.452c-0.956,0.111-1.885,0.444-2.827,0.675c-0.466,0.114-0.944,0.355-1.396,0.312   c-2.184-0.207-4.36-0.49-6.54-1.006c0.809-0.044,1.619-0.114,2.428-0.126c1.576-0.021,3.136,0.213,4.558-0.94   c0.588-0.478,1.647-0.412,2.499-0.519c3.424-0.433,6.848-0.868,10.28-1.217c0.456-0.047,0.961,0.389,1.641,0.687   C51.194,80.237,49.452,80.32,47.753,80.489z"></path><path fill="none" d="M90.095,61.593c0.816-1.549,1.486-2.735,2.073-3.961c0.611-1.274,0.796-2.672,0.387-3.999   c-0.622-2.013-1.45-3.971-3.003-5.486c-2.426-2.368-2.563-2.698-1.174-5.696c0.483-1.046,0.69-2.067,0.809-3.194   c0.367-3.479-0.763-5.995-4.036-7.591c-1.535-0.749-2.706-2.258-4.253-2.958c-1.532-0.693-3.329-0.801-5.024-1.168   c-0.298-0.47-0.635-0.854-0.812-1.303c-0.886-2.241-2.469-3.997-3.999-5.781c-0.468-0.545-1.057-1.132-1.708-1.35   c-2.598-0.87-5.142-0.825-7.398,0.994c-0.766,0.618-1.292,1.244-1.336,2.447c-0.052,1.424-0.713,2.836-1.198,4.224   c-0.087,0.246-0.604,0.483-0.913,0.471c-0.316-0.011-0.662-0.289-0.918-0.532c-0.16-0.15-0.197-0.447-0.254-0.685   c-0.682-2.862-2.18-5.235-4.34-7.202c-1.376-1.252-2.849-2.406-4.162-3.718c-1.561-1.562-3.462-1.781-5.494-1.746   c-0.958,0.017-1.671,0.407-2.139,1.229c-0.244,0.429-0.401,0.91-0.659,1.33c-0.965,1.566-1.713,2.049-3.359,1.531   c-2.362-0.743-4.646-0.422-6.99-0.083c-2.24,0.324-3.929,1.482-5.258,3.203c-1.356,1.758-2.731,3.464-2.371,6.009   c0.295,2.076,0.234,4.213,0.188,6.32c-0.011,0.513-0.479,1.261-0.925,1.447c-0.414,0.172-1.145-0.16-1.617-0.46   c-0.39-0.246-0.547-0.835-0.908-1.157c-1.351-1.205-2.907-1.196-4.541-0.683c-1.667,0.527-2.274,1.775-2.425,3.383   c-0.258,2.776,0.134,5.425,1.566,8.041c0.407,0.028,0.878,0.104,1.344,0.078c0.762-0.042,1.571-0.134,1.822,0.799   c0.184,0.688-0.325,1.086-0.874,1.456c-0.611,0.414-1.194,0.899-1.692,1.443c-0.828,0.903-0.853,2.08-0.098,3.059   c0.616,0.798,1.336,1.458,2.445,1.503c1.224,0.05,2.446,0.149,3.816,0.237c0.115,1.707,1.104,2.761,2.185,3.827   c1.036,1.02,2.139,1.178,3.398,0.759c2.169-0.72,4.148-1.938,5.336-3.823c0.867-1.374,2.454-2.922,1.654-4.71   c-0.695-1.548,0.112-2.878,0.051-4.148c-1.333-1.174-2.502-2.205-3.825-3.371c-0.804,1.236-1.464,2.401-2.273,3.449   c-0.772,1.002-2.17,1.263-3.374,0.816c-1.022-0.38-1.583-1.299-1.534-2.691c0.039-1.116,0.168-2.228,0.282-3.338   c0.025-0.239,0.093-0.526,0.249-0.683c0.231-0.23,0.579-0.526,0.84-0.494c0.278,0.033,0.674,0.381,0.735,0.656   c0.163,0.719,0.103,1.488,0.265,2.207c0.121,0.539,0.45,1.032,0.798,1.788c0.833-0.797,1.412-1.42,2.062-1.959   c1.324-1.098,2.785-0.987,3.93,0.284c0.653,0.725,1.254,1.499,1.863,2.232c0.899-0.092,1.642-0.115,2.364-0.253   c1.784-0.342,3.304,0.263,4.206,1.696c1.12,1.781,2.22,2.907,4.482,1.903c0.435-0.191,1.205,0.218,1.759,0.479   c1.072,0.509,2.041,0.544,3.196,0.093c1.238-0.482,2.606-0.511,3.709-1.499c0.419-0.376,1.355-0.176,2.236-0.255   c0.08,0.81,0.144,1.4,0.196,1.992c0.145,1.65,1.226,2.629,2.455,3.543c1.104,0.822,2.251,0.815,3.513,0.492   c0.938-0.242,1.869-0.479,2.858,0.148c0.377,0.241,1.219,0.006,1.715-0.26c0.745-0.401,1.375-1.018,2.049-1.55   c1.305-1.034,2.412-0.707,2.718,0.833c0.121,0.607,0.101,1.242,0.234,1.845c0.368,1.669,1.352,3.348,2.832,3.65   c2.512,0.515,4.7,2.123,7.464,1.854c2.104-0.205,3.162,0.811,3.753,2.833c0.658,2.251,1.463,4.481,1.18,6.904   c-0.216,1.839-0.359,3.686-0.546,5.528c-0.094,0.921,0.455,2.067,1.268,2.476c0.847,0.426,1.745,0.338,2.481-0.17   c1.041-0.718,1.752-1.739,2.049-3.002c0.462-1.969,0.488-3.897-0.187-5.863C90.74,64.652,90.435,62.952,90.095,61.593z    M56.903,39.383c-0.538-0.465-0.808-1.226-1.269-1.798c-1.157-1.435-2.895-1.854-4.2-0.602c-1.246,1.198-2.556,1.348-4.064,1.323   c-1.258-0.021-2.15-0.608-2.567-1.767c-0.417-1.159-0.749-2.356-1.025-3.558c-0.066-0.285,0.206-0.909,0.388-0.938   c0.428-0.064,0.979,0.021,1.328,0.264c0.374,0.262,0.623,0.747,0.839,1.178c0.326,0.654,0.577,1.345,1.001,2.359   c0.857-0.097,1.489-0.063,2.047-0.25c4.248-1.414,6.055-0.889,8.573,2.591c0.27,0.375,0.466,0.805,0.935,1.629   C57.938,39.63,57.26,39.693,56.903,39.383z M68.473,42.375c-0.309,0.516-1.243,0.397-1.862-0.349   c-0.76-0.918-1.424-1.916-2.13-2.879c1.655-0.072,2.72,0.675,3.641,1.605C68.534,41.167,68.857,41.732,68.473,42.375z"></path><path fill-rule="evenodd" clip-rule="evenodd" d="M91.306,61.984c0.595-0.763,1.147-1.416,1.636-2.111   c2.937-4.18,2.721-8.551-0.587-12.552c-0.786-0.95-1.534-1.932-2.373-2.99c0.166-0.565,0.379-1.138,0.503-1.73   c0.437-2.09,0.549-4.187-0.178-6.237c-1.579-4.444-4-8.265-8.221-10.663c-1.287-0.731-2.671-1.294-3.993-1.926   c-1.73-2.217-3.21-4.194-4.791-6.088c-0.453-0.542-1.156-0.93-1.813-1.245c-4.209-2.013-8.213-1.375-11.686,1.797   c-0.51,0.466-0.81,1.263-1.64,1.176c-1.119-1.069-2.169-2.122-3.272-3.112c-1.662-1.491-3.326-2.984-5.053-4.399   c-2.297-1.879-5.049-1.845-7.804-1.658c-2.042,0.139-2.798,1.852-3.858,3.195c-0.146,0.184-0.392,0.29-0.642,0.467   c-1.679,0.074-3.411,0.108-5.138,0.234c-4.613,0.333-8.196,2.244-10.745,6.316c-1.05,1.678-1.666,3.203-1.637,5.134   c0.017,1.171,0.413,2.483-0.58,3.487c-1.185,0-2.307-0.08-3.413,0.015c-4.121,0.352-6.144,2.583-6.461,6.749   c-0.253,3.315,0.471,6.423,1.759,9.4c0.421,0.971,0.608,1.83,0.468,2.839c-0.101,0.734-0.146,1.486-0.123,2.23   c0.09,3.074,1.849,4.779,4.896,4.781c0.496,0,0.993-0.038,1.488-0.074c1.057-0.076,1.852,0.348,2.666,1.039   c3.841,3.262,8.152,3.33,11.562-0.155c2.534-2.589,4.695-5.58,3.252-9.655c-0.083-0.237,0.187-0.597,0.327-1.004   c2.003,3.098,2.665,3.706,5.293,4.214c1.062,0.204,2.203-0.032,3.307,0.004c0.714,0.022,1.532-0.021,2.118,0.301   c1.784,0.983,2.771,3.424,2.368,5.404c-0.196,0.961-0.453,1.917-0.555,2.889c-0.398,3.803-1.236,7.33-5.14,9.167   c-0.442,0.208-0.843,0.535-1.204,0.87c-1.623,1.51-3.645,2.033-5.745,2.395c-2.559,0.442-5.157,0.745-7.664,1.395   c-6.106,1.579-12.02,1.09-17.838-1.215c-0.922-0.364-1.85-0.74-2.809-0.974C7.087,69.474,6.319,68.584,5,69.091   c0.385,0.854,0.535,1.811,1.093,2.315c2.294,2.07,4.401,4.327,6.961,6.143c4.683,3.322,9.473,6.352,14.965,8.161   c1.054,0.347,2.009,0.988,3.059,1.351c1.399,0.482,2.836,1.119,4.275,1.169c4.212,0.149,8.45,0.249,12.647-0.059   c2.06-0.151,3.93-0.135,5.768,0.747c1.983,0.953,4.04,1.143,6.168,0.675c3.513-0.774,7.084-1.361,10.517-2.395   c3.906-1.175,7.786-2.52,10.74-5.655c1.087-1.154,2.435-2.162,3.841-2.894c2.295-1.195,4.718-2.151,7.123-3.12   c0.998-0.403,1.676-1,2.049-1.993c1.163-3.101,1.157-6.054-0.994-8.791C92.534,63.879,91.958,62.934,91.306,61.984z M84.402,71.232   c-0.725,1.827-1.591,3.562-2.102,5.513c-0.574,2.19-2.213,3.823-4.612,4.43c-1.073,0.272-2.131,0.643-3.157,1.064   c-5.316,2.175-10.967,3.082-16.513,4.383c-0.566,0.132-1.191,0.017-2.278,0.017c0.633-0.68,0.878-1.157,1.255-1.313   c1.942-0.805,3.874-1.705,5.898-2.224c1.617-0.414,2.597-1.117,3.008-2.748c0.171-0.675,0.693-1.262,1.317-2.344   c-0.884,0.146-1.365,0.09-1.67,0.297c-2.28,1.548-4.721,2.688-7.405,3.37c-1.066,0.27-2.066,0.837-3.059,1.341   c-3.387,1.718-6.991,2.473-10.764,2.518c-0.248,0.002-0.496-0.002-0.745-0.002c-9.383,0.029-9.383,0.029-17.921-3.723   c-0.226-0.101-0.517-0.136-0.675-0.301c-2.371-2.462-5.794-3.229-8.432-5.254c-0.157-0.121-0.214-0.374-0.386-0.688   c0.363-0.062,0.692-0.201,0.992-0.155c4.484,0.686,8.882,0.385,13.265-0.821c2.014-0.555,4.131-0.731,6.199-1.09   c2.711-0.47,5.308-1.106,7.292-3.292c0.902-0.993,2.065-1.798,3.225-2.494c1.282-0.768,1.916-1.893,2.342-3.22   c0.378-1.178,0.849-2.34,1.087-3.547c0.43-2.177,0.786-4.376,1.042-6.58c0.201-1.732-0.01-3.44-1.427-4.707   c1.937-1.169,2.172-1.19,2.826-0.313c1.898,2.547,2.954,5.373,2.814,8.596c-0.064,1.487-0.188,2.986-0.079,4.464   c0.137,1.882-0.669,3.289-1.708,4.751c-2.16,3.04-5.047,5.13-8.406,6.519c-1.565,0.646-3.348,0.9-5.056,1.03   c-3.113,0.238-5.953,1.33-8.769,2.175c-0.226,0.964,0.424,1.097,0.788,1.149c1.214,0.169,2.455,0.332,3.671,0.26   c2.224-0.131,4.436-0.48,6.659-0.649c1.77-0.134,3.338-0.741,4.94-1.477c3.969-1.821,6.958-4.662,9.352-8.24   c0.927-1.385,1.467-2.817,1.385-4.523c-0.161-3.305,0.05-6.643-1.362-10.204c1.846,0.431,3.219,0.95,4.615,1.023   c1.449,0.076,2.92-0.28,4.471-0.457c2.314,4.864,2.122,9.332-0.436,13.915c-1.322,2.368-3.014,4.162-5.151,5.712   c-1.573,1.142-3.356,2.067-4.762,3.807c0.555,0.153,0.953,0.406,1.153,0.297c2.498-1.369,4.973-2.782,7.441-4.204   c1.105-0.635,1.889-1.561,2.46-2.711c1.151-2.315,2.72-4.423,2.882-7.176c0.162-2.743,0.323-5.44-1.238-8.055   c0.35,0.027,0.562-0.021,0.641,0.06c0.946,0.977,1.756,2.134,2.837,2.916c1.061,0.768,2.394,1.158,3.647,1.733   c0,2.19,0.084,4.292-0.042,6.381c-0.049,0.805-0.431,1.686-0.915,2.347c-1.021,1.397-2.21,2.67-3.485,4.18   c0.322,0.985,0.681,2.083,1.136,3.473c1.648-1.405,3.631-2.101,3.909-4.416c0.013-0.113,0.093-0.241,0.179-0.322   c2.73-2.572,2.208-5.851,1.973-9.063c-0.054-0.728-0.15-1.454-0.223-2.159c2.335-0.699,2.781-0.541,3.637,1.119   c0.734,1.425,1.505,2.832,2.251,4.251C85.14,67.612,85.12,69.426,84.402,71.232z M91.48,72.127   c-0.297,1.264-1.007,2.285-2.049,3.002c-0.736,0.508-1.634,0.596-2.481,0.17c-0.813-0.409-1.363-1.555-1.268-2.476   c0.187-1.843,0.33-3.689,0.546-5.528c0.283-2.423-0.522-4.654-1.18-6.904c-0.591-2.023-1.65-3.038-3.753-2.833   c-2.764,0.269-4.952-1.339-7.464-1.854c-1.48-0.302-2.464-1.982-2.832-3.65c-0.133-0.603-0.113-1.238-0.234-1.845   c-0.306-1.541-1.413-1.868-2.718-0.833c-0.673,0.532-1.304,1.149-2.049,1.55c-0.496,0.267-1.338,0.501-1.715,0.26   c-0.989-0.628-1.921-0.39-2.858-0.148c-1.262,0.323-2.409,0.33-3.513-0.492c-1.23-0.914-2.31-1.894-2.455-3.543   c-0.052-0.592-0.116-1.181-0.196-1.992c-0.881,0.079-1.817-0.122-2.236,0.255c-1.102,0.988-2.47,1.017-3.709,1.499   c-1.155,0.45-2.124,0.416-3.196-0.093c-0.554-0.261-1.323-0.671-1.759-0.479c-2.262,1.004-3.362-0.122-4.482-1.903   c-0.902-1.432-2.422-2.038-4.206-1.696c-0.721,0.138-1.465,0.161-2.364,0.253c-0.609-0.734-1.21-1.507-1.863-2.232   c-1.144-1.271-2.605-1.382-3.93-0.284c-0.649,0.539-1.228,1.162-2.062,1.959c-0.347-0.756-0.677-1.249-0.798-1.788   c-0.162-0.719-0.102-1.488-0.265-2.207c-0.061-0.275-0.457-0.623-0.735-0.656c-0.261-0.032-0.609,0.263-0.84,0.494   c-0.156,0.157-0.224,0.444-0.249,0.683c-0.114,1.11-0.243,2.222-0.282,3.338c-0.05,1.392,0.512,2.311,1.534,2.691   c1.204,0.447,2.602,0.186,3.374-0.816c0.809-1.049,1.469-2.213,2.273-3.449c1.323,1.167,2.492,2.198,3.825,3.371   c0.061,1.269-0.745,2.6-0.051,4.148c0.801,1.787-0.787,3.336-1.654,4.71c-1.188,1.885-3.166,3.102-5.336,3.823   c-1.259,0.419-2.362,0.261-3.398-0.759c-1.081-1.066-2.07-2.121-2.185-3.827c-1.37-0.088-2.593-0.187-3.816-0.237   c-1.109-0.046-1.829-0.705-2.445-1.503c-0.755-0.98-0.73-2.156,0.098-3.059c0.498-0.543,1.081-1.029,1.692-1.443   c0.549-0.37,1.059-0.768,0.874-1.456c-0.251-0.934-1.06-0.841-1.822-0.799c-0.465,0.026-0.936-0.05-1.344-0.078   c-1.432-2.616-1.825-5.265-1.566-8.041c0.15-1.608,0.757-2.856,2.425-3.383c1.634-0.513,3.189-0.522,4.541,0.683   c0.361,0.322,0.518,0.91,0.908,1.157c0.472,0.299,1.203,0.631,1.617,0.46c0.446-0.186,0.914-0.934,0.925-1.447   c0.046-2.107,0.106-4.244-0.188-6.32c-0.36-2.544,1.015-4.251,2.371-6.009c1.329-1.721,3.017-2.878,5.258-3.203   c2.344-0.339,4.628-0.659,6.99,0.083c1.646,0.518,2.394,0.035,3.359-1.531c0.259-0.42,0.415-0.901,0.659-1.33   c0.468-0.821,1.181-1.211,2.139-1.229c2.032-0.034,3.933,0.185,5.494,1.746c1.313,1.313,2.786,2.466,4.162,3.718   c2.159,1.967,3.657,4.34,4.34,7.202c0.057,0.238,0.094,0.535,0.254,0.685c0.256,0.243,0.601,0.521,0.918,0.532   c0.309,0.011,0.826-0.225,0.913-0.471c0.484-1.387,1.146-2.799,1.198-4.224c0.044-1.203,0.57-1.828,1.336-2.447   c2.256-1.819,4.8-1.864,7.398-0.994c0.651,0.218,1.24,0.805,1.708,1.35c1.531,1.784,3.113,3.541,3.999,5.781   c0.177,0.448,0.514,0.832,0.812,1.303c1.695,0.366,3.492,0.475,5.024,1.168c1.547,0.7,2.718,2.209,4.253,2.958   c3.273,1.596,4.403,4.112,4.036,7.591c-0.119,1.127-0.326,2.147-0.809,3.194c-1.388,2.998-1.252,3.328,1.174,5.696   c1.553,1.515,2.381,3.473,3.003,5.486c0.409,1.328,0.224,2.725-0.387,3.999c-0.587,1.226-1.257,2.412-2.073,3.961   c0.339,1.36,0.644,3.059,1.197,4.671C91.968,68.23,91.942,70.158,91.48,72.127z"></path><path fill-rule="evenodd" clip-rule="evenodd" d="M49.381,35.593c-0.558,0.187-1.19,0.153-2.047,0.25   c-0.424-1.014-0.675-1.705-1.001-2.359c-0.216-0.431-0.465-0.916-0.839-1.178c-0.348-0.243-0.899-0.328-1.328-0.264   c-0.183,0.028-0.454,0.653-0.388,0.938c0.276,1.202,0.607,2.399,1.025,3.558c0.417,1.159,1.309,1.746,2.567,1.767   c1.508,0.025,2.818-0.125,4.064-1.323c1.305-1.252,3.043-0.832,4.2,0.602c0.461,0.572,0.731,1.332,1.269,1.798   c0.357,0.31,1.035,0.246,1.987,0.43c-0.469-0.824-0.665-1.254-0.935-1.629C55.437,34.705,53.629,34.179,49.381,35.593z"></path><path fill-rule="evenodd" clip-rule="evenodd" d="M64.482,39.146c0.705,0.963,1.369,1.962,2.13,2.879   c0.619,0.747,1.553,0.866,1.862,0.349c0.383-0.643,0.061-1.208-0.35-1.624C67.202,39.821,66.136,39.074,64.482,39.146z"></path><path fill-rule="evenodd" clip-rule="evenodd" d="M40.938,79.336c-0.853,0.107-1.912,0.041-2.499,0.519   c-1.422,1.153-2.981,0.919-4.558,0.94c-0.809,0.011-1.619,0.081-2.428,0.126c2.181,0.517,4.357,0.8,6.54,1.006   c0.452,0.043,0.93-0.198,1.396-0.312c0.942-0.23,1.872-0.563,2.827-0.675c1.838-0.213,3.694-0.271,5.536-0.452   c1.699-0.169,3.441-0.251,5.106-1.682c-0.68-0.298-1.185-0.734-1.641-0.687C47.786,78.468,44.362,78.903,40.938,79.336z"></path></g></svg>