<svg fill="#0365C0" xmlns="http://www.w3.org/2000/svg" xmlns:xlink="http://www.w3.org/1999/xlink" version="1.1" x="0px" y="0px" viewBox="0 0 100 100" style="enable-background:new 0 0 100 100;" xml:space="preserve"><path d="M54.8,24.9c2.5-0.7,4.7-2.2,6.4-4.2c2.1-2.5,7.7-7.3,17.2-3.1c12.4,5.5,9.3,19.9,9.3,19.9s-2,7.4-7.9,9.1  c-1.2,0.3-2.3,0.8-3.2,1.6c-1.1,0.9-1.4,1.7-1.5,3.7c0,0.2,0,0.4-0.1,0.6c-0.6,4.9-4.9,8.4-9.8,8.4c-3.9,0-10.2,1.1-8.5,8.4  c0,0-5.7-8,1.5-10.6s4-7.5,2.9-7.7s-6.8-0.2-8,6c-1.1,6.2,1.8,12.8-10.6,15.5c0,0,8.8-5.7,7.1-10.2C47.8,57.9,48.3,49,52.9,46  s6-7.3,5.1-10.2c-0.7-2.2-0.8-3.1-3.1-2.5c-1.7,0.4-3.2,1.4-4.4,2.7c-1,1.2-2.6,2.6-4.2,2.7c-2.9,0.2-3.8-1.1-3.8-1.1s5.1-2,5.7-4.6  c0.7-2.7,1.8-6.8,5.7-7.7C54.3,25,54.6,24.9,54.8,24.9z"></path><path d="M30.7,55.7c0,0,4.2,2.3,8.1-1c0.9-0.8,1.5-1.9,1.8-3c0.3-1.3,1.4-3.3,4.8-3.5c5.2-0.3,5.3-4.3,4.5-5.9  c-0.5-1.1-3.9-3-7.4-0.5c-1.8,1.3-2.9,3.3-3.1,5.5C39,50.3,37.4,55.5,30.7,55.7z"></path><path d="M10.2,55c0,0,7.6,18.2,23,8.6c1.6-1,1.4-3.8-0.7-4.8c-1.1-0.5-2.5-0.7-4.9,2.4C23,67.2,11.1,58,10.2,55z"></path><path d="M14.8,70.4c0,0,5.6,8.8,18.3,3.5c0,0-1.5,4.9-7.3,6.2c0,0,10.5,1.7,19.5-15.8c0.9-1.8,1.4-3.8,1.2-5.8c-0.2-1.9-0.9-3.8-3-4  c-3.5-0.4-5.3,4-5.6,6.1c-0.2,1.4-0.6,2.7-1,4.1C34.4,71.9,26.3,77.8,14.8,70.4z"></path></svg>
