<svg fill="#A9A9A9" clip-rule="evenodd" fill-rule="evenodd" image-rendering="optimizeQuality" shape-rendering="geometricPrecision" text-rendering="geometricPrecision" version="1.1" viewBox="0 0 100 100" xml:space="preserve" xmlns="http://www.w3.org/2000/svg"><g transform="matrix(.32343 0 0 .32343 .029504 18.465)"><path d="m106 71c-12-3-65-19-106-36-1 1 6 21 32 30 18 5 58 14 76 18-13-1-56-7-103-17-1 1 7 19 32 23 16 2 53 5 72 6-10 1-51 3-81 1 0 1 12 15 30 14 15 0 52-3 66-4-9 2-55 11-79 13 0 1 11 10 25 8 12-2 49-11 59-14-7 4-37 13-63 20 0 1 11 8 23 4 9-3 30-11 41-15-7 4-11 7-34 17 12 21 29 42 59 56 29-14 47-35 58-56-23-10-27-13-34-17 11 4 32 12 41 15 13 4 23-3 23-4-25-7-56-16-63-20 11 3 47 12 60 14 14 2 24-7 24-8-23-2-70-11-78-13 13 1 50 4 65 4 18 1 30-13 30-14-30 2-71 0-81-1 19-1 56-4 72-6 25-4 33-22 33-23-47 10-91 16-104 17 18-4 59-13 76-18 26-9 33-29 32-30-41 17-93 33-106 36 21-9 71-32 84-41 15-11 20-30 18-30-51 31-105 52-120 61-16 9-4 19-5 26-3 11-16 18-25 22-9-4-23-11-25-22-2-7 10-17-6-26-15-9-68-30-120-61-2 0 3 19 18 30 13 9 63 32 84 41z"/><path class="fil0" d="m75 112h7l6-1c-5 0-9 1-13 1zm152 0h8c-5 0-9-1-13-1zm8-17h-1zm0-35v-1l-1 1zm-3-24c-22-5-49-8-77-8-29 0-56 3-78 8l2 1c14 7 32 14 46 22 18 11 5 19 7 28s14 16 23 20c8-4 21-11 22-20 2-9-11-17 7-28 14-8 32-15 47-22zm-157 23v1zm0 36z"/></g></svg>
