<svg fill="#4C4C4C" xmlns="http://www.w3.org/2000/svg" xmlns:xlink="http://www.w3.org/1999/xlink" xmlns:a="http://ns.adobe.com/AdobeSVGViewerExtensions/3.0/" version="1.1" x="0px" y="0px" viewBox="376 355 100 100" overflow="visible" enable-background="new 376 355 100 100" xml:space="preserve"><path d="M424.051,369.48c-1.455-0.93-3.408-1.498-5.551-1.498c-2.408,0-4.574,0.717-6.066,1.855l0.574,0.415  c1.363-0.972,3.32-1.582,5.492-1.582c2.055,0,3.918,0.547,5.268,1.429L424.051,369.48z"></path><path d="M440.932,369.48c-1.455-0.93-3.408-1.498-5.551-1.498c-2.408,0-4.574,0.717-6.066,1.855l0.574,0.415  c1.363-0.972,3.32-1.582,5.492-1.582c2.055,0,3.918,0.547,5.268,1.429L440.932,369.48z"></path><path d="M456.252,431.382c1.467-0.878,2.234-1.9,2.268-3.056c0.234-8.356-12.256-36.414-15.092-42.666  c1.672-2.911,2.561-6.196,2.561-9.527c0-10.592-8.617-19.209-19.209-19.209s-19.209,8.617-19.209,19.209  c0,3.343,0.896,6.641,2.58,9.562c-2.922,6.516-15.834,35.812-15.08,42.682c0.096,0.882,0.754,1.668,1.982,2.389  c-3.404,1.724-6.656,5.208-6.656,10.482c0,6.522,5.307,11.829,11.828,11.829h17.732h29.818c6.521,0,11.828-5.307,11.828-11.829  C461.604,437.235,459.568,433.56,456.252,431.382z M426.779,358.137c9.924,0,17.996,8.073,17.996,17.996  c0,3.22-0.881,6.398-2.547,9.191c-0.275,0.464-0.586,0.918-0.912,1.362c-0.061,0.085-0.121,0.171-0.186,0.255  c-0.051,0.067-0.109,0.13-0.162,0.197c-0.004-0.034-0.012-0.062-0.016-0.096c-0.027-0.191-0.061-0.372-0.096-0.55  c-0.018-0.09-0.031-0.186-0.053-0.272c-0.057-0.257-0.123-0.502-0.201-0.729c-1.199-3.523-9.164-9.669-12.533-9.669  c-0.619,0-1.102,0.188-1.438,0.561c-0.15,0.165-0.262,0.36-0.34,0.585c-0.076-0.225-0.189-0.42-0.338-0.585  c-0.338-0.372-0.82-0.561-1.439-0.561c-3.369,0-11.334,6.146-12.533,9.669c-0.059,0.169-0.107,0.352-0.154,0.543  c-0.004,0.017-0.01,0.03-0.014,0.047c-0.158-0.24-0.32-0.482-0.467-0.728c-1.678-2.801-2.564-5.99-2.564-9.222  C408.783,366.21,416.855,358.137,426.779,358.137z M434.559,392.327c-0.109,0.054-0.221,0.102-0.332,0.152  c-0.006-0.168-0.025-0.343-0.035-0.513c-0.016-0.228-0.029-0.451-0.049-0.681c-0.033-0.374-0.072-0.747-0.119-1.125  c-0.025-0.214-0.049-0.424-0.078-0.637c-0.059-0.419-0.123-0.831-0.191-1.243c-0.029-0.17-0.053-0.339-0.084-0.507  c-0.102-0.574-0.209-1.136-0.322-1.673c0.732,0.769,1.348,1.592,1.883,2.518c0.207,0.356,0.389,0.751,0.555,1.172  c0.02,0.053,0.041,0.103,0.062,0.156c0.152,0.408,0.285,0.854,0.402,1.329c0.008,0.036,0.018,0.072,0.025,0.108  c-0.121,0.077-0.248,0.146-0.373,0.221C435.465,391.862,435.02,392.105,434.559,392.327z M437.637,391.967l0.014-0.01l-0.084-0.396  c0-0.002-0.002-0.005-0.002-0.007v-0.001c-0.297-1.405-0.715-2.563-1.283-3.543c-0.924-1.592-2.057-2.908-3.566-4.142l-1.395-1.142  l0.42,1.753c0.598,2.486,1.307,6.055,1.291,8.933c-0.002,0.645-0.031,1.147-0.09,1.582c-0.123,0.946-1.1,2.183-2.131,3.491  c-1.205,1.528-2.572,3.261-3.291,5.285c-0.447,1.261-0.738,2.497-0.924,3.638c-0.311-1.067-0.717-2.226-1.244-3.417  c-0.641-1.44-1.678-2.902-2.684-4.315c-1.242-1.748-2.416-3.401-2.613-4.693c-0.082-0.536-0.127-1.12-0.141-1.838  c-0.076-3.283,0.795-6.765,1.537-9.107l0.578-1.822l-1.523,1.155c-1.254,0.951-2.865,2.339-4.201,4.64  c-0.479,0.824-0.852,1.785-1.139,2.936l-0.098,0.394l0.016,0.012c-0.424,1.895-0.562,3.978-0.684,6.002  c-0.117,1.941-0.24,3.947-0.625,5.692c-0.439,1.979-1.252,3.174-2.029,3.892c0.266-0.54,0.537-1.193,0.779-1.969  c0.404-1.293,0.727-2.928,0.816-4.949c0.078-1.735-0.115-3.778-0.301-5.754c-0.055-0.572-0.109-1.15-0.156-1.725  c-0.146-1.721-0.236-3.412-0.094-4.844c0-0.002,0-0.004,0-0.005c0.078-0.777,0.186-1.354,0.34-1.809  c1.012-2.976,8.568-8.847,11.385-8.847c0.262,0,0.441,0.055,0.539,0.161c0.125,0.139,0.174,0.434,0.133,0.83  c-0.174,1.717-1.047,2.677-2.492,3.757l-0.457,0.341l0.312,0.478c1.549,2.356,3.043,3.58,4.543,3.64  c1.307,0,2.559-1.052,3.721-3.128l0.266-0.475l-0.445-0.316c-1.877-1.332-3.033-2.286-3.236-4.296  c-0.041-0.396,0.008-0.691,0.135-0.83c0.096-0.106,0.277-0.161,0.537-0.161c2.816,0,10.373,5.871,11.385,8.847  c0.246,0.721,0.383,1.643,0.416,2.817c0.049,1.692-0.139,3.653-0.318,5.549c-0.189,1.981-0.387,4.03-0.309,5.77  c0.145,3.233,0.885,5.478,1.596,6.917c-0.775-0.718-1.59-1.912-2.029-3.891c-0.385-1.745-0.506-3.753-0.623-5.693  c-0.029-0.486-0.057-0.979-0.092-1.47C438.004,394.551,437.873,393.224,437.637,391.967z M417.691,391.643  c-0.422-0.248-0.824-0.523-1.223-0.805c0.066-0.233,0.135-0.46,0.211-0.674c0.047-0.141,0.09-0.292,0.143-0.423  c0.16-0.405,0.336-0.781,0.533-1.122c0.744-1.284,1.568-2.249,2.379-3.018c-0.137,0.52-0.268,1.07-0.391,1.638  c-0.039,0.183-0.07,0.372-0.107,0.56c-0.078,0.398-0.154,0.796-0.221,1.207c-0.035,0.229-0.062,0.458-0.094,0.688  c-0.051,0.386-0.096,0.77-0.129,1.16c-0.021,0.245-0.037,0.488-0.049,0.734c-0.012,0.194-0.035,0.389-0.039,0.583  c-0.24-0.121-0.484-0.234-0.719-0.366C417.889,391.75,417.789,391.7,417.691,391.643z M426.293,378.808  c0.426,2.039,1.779,3.167,3.188,4.183c-0.82,1.318-1.662,2.037-2.434,2.037h-0.002c-0.867-0.034-2.006-0.984-3.162-2.625  C424.922,381.573,425.934,380.518,426.293,378.808z M396.277,428.243c-0.557-5.052,7.438-25.164,14.645-41.305  c0.008,0.014,0.018,0.025,0.027,0.037c0.062,0.09,0.127,0.177,0.191,0.266c0.139,0.194,0.273,0.39,0.42,0.579  c-0.02,0.246-0.02,0.512-0.027,0.768c-0.008,0.231-0.025,0.456-0.025,0.694c0,0.318,0.016,0.648,0.025,0.977  c0.008,0.229,0.01,0.45,0.021,0.683c0.021,0.402,0.053,0.812,0.086,1.221c0.012,0.164,0.021,0.326,0.035,0.491  c0.049,0.574,0.104,1.152,0.156,1.725c0.191,2.023,0.371,3.935,0.299,5.586c-0.262,5.851-2.607,8.164-2.629,8.185l-1.416,1.324  l1.918-0.28c0.154-0.023,3.789-0.616,4.955-5.885c0.406-1.839,0.531-3.895,0.652-5.883c0.029-0.484,0.059-0.973,0.094-1.46  c0.01-0.136,0.021-0.27,0.031-0.405c0.027-0.358,0.057-0.716,0.092-1.07c0.016-0.182,0.037-0.36,0.059-0.539  c0.035-0.311,0.074-0.617,0.119-0.921c0.027-0.185,0.057-0.369,0.088-0.551c0.021-0.122,0.049-0.236,0.072-0.356  c0.252,0.168,0.516,0.321,0.775,0.478c0.107,0.064,0.211,0.134,0.32,0.195c0.473,0.272,0.955,0.528,1.449,0.76  c0.006,0.149,0.02,0.28,0.027,0.421c0.006,0.111,0.012,0.231,0.021,0.339c0.023,0.297,0.055,0.58,0.096,0.851  c0.24,1.578,1.496,3.344,2.824,5.214c0.971,1.363,1.973,2.774,2.562,4.104c1.426,3.219,1.918,6.177,2.084,7.655  c0.035,0.711,0.094,1.132,0.094,1.132c0.01,0.076,0.037,0.147,0.072,0.212c0.029,0.052,0.068,0.094,0.109,0.134  c0.01,0.01,0.016,0.021,0.025,0.029c0.047,0.042,0.102,0.071,0.158,0.095c0.01,0.004,0.016,0.01,0.025,0.014  c0.043,0.017,0.09,0.02,0.139,0.024c0.023,0.004,0.045,0.013,0.07,0.013c0.018,0,0.035,0,0.053-0.002  c0.32-0.026,0.562-0.299,0.555-0.621c0,0-0.004-0.092-0.014-0.24c0-0.022,0-0.034-0.002-0.061c-0.014-0.195-0.037-0.483-0.078-0.847  c-0.07-1.553-0.016-4.615,1.131-7.844c0.65-1.835,1.951-3.484,3.1-4.939c1.188-1.506,2.215-2.807,2.383-4.084  c0.029-0.221,0.049-0.462,0.064-0.718c0.006-0.08,0.008-0.173,0.012-0.258c0.006-0.117,0.014-0.226,0.018-0.353  c0.445-0.188,0.881-0.397,1.312-0.619c0.09-0.046,0.178-0.099,0.268-0.146c0.238-0.127,0.477-0.25,0.707-0.387  c0.01,0.065,0.023,0.129,0.035,0.194c0.1,0.665,0.18,1.347,0.238,2.041c0.014,0.147,0.023,0.295,0.035,0.443  c0.055,0.69,0.1,1.387,0.141,2.073c0.121,1.988,0.242,4.045,0.65,5.884c1.166,5.269,4.801,5.861,4.955,5.885l1.877,0.273  l-1.371-1.314c-0.023-0.023-2.371-2.337-2.633-8.188c-0.072-1.653,0.111-3.57,0.305-5.601c0.045-0.473,0.09-0.95,0.133-1.426  c0.008-0.09,0.016-0.178,0.021-0.268c0.033-0.387,0.066-0.771,0.092-1.154c0.01-0.15,0.016-0.296,0.023-0.445  c0.02-0.315,0.037-0.631,0.047-0.938c0.006-0.194,0.004-0.383,0.006-0.573c0.004-0.217,0.012-0.438,0.008-0.648  c0.352-0.396,0.68-0.806,0.996-1.222c0.078-0.104,0.152-0.208,0.229-0.312c0.113-0.157,0.236-0.312,0.346-0.472  c3.354,7.439,14.867,33.587,14.646,41.389c-0.031,1.105-1.387,1.97-2.52,2.499c-0.27,0.125-0.559,0.249-0.869,0.368  c-4.637,1.794-13.686,2.852-24.59,2.852c-0.107,0-0.215-0.003-0.322-0.003V419.9c0.658-0.007,1.285-0.02,1.834-0.042  c7.043-0.286,10.643-1.43,10.697-3.399c0.035-1.252-0.484-3.409-1.594-6.593l-1.146,0.398c1.301,3.738,1.549,5.413,1.527,6.161  c-0.02,0.736-2.576,1.938-9.533,2.221c-9.354,0.372-17.42-1.125-17.545-2.271c-0.061-0.533,0.092-1.83,1.146-4.982l-1.152-0.384  c-0.914,2.736-1.309,4.535-1.201,5.498c0.24,2.178,6.721,3.069,12.516,3.32v14.113c-11.369-0.322-21.432-1.752-25.859-3.7  C397.205,429.586,396.346,428.876,396.277,428.243z M402.225,451.863c-5.854,0-10.615-4.762-10.615-10.616  c0-6.354,4.961-9.017,6.834-9.794c0.117,0.05,0.254,0.097,0.379,0.146c0.154,0.062,0.307,0.123,0.473,0.183  c0.178,0.065,0.371,0.128,0.561,0.19c0.172,0.057,0.336,0.115,0.516,0.171c0.211,0.065,0.436,0.128,0.658,0.191  c0.178,0.052,0.35,0.104,0.535,0.153c0.252,0.068,0.521,0.134,0.787,0.199c0.174,0.044,0.34,0.089,0.52,0.13  c0.379,0.089,0.773,0.176,1.176,0.26c0.08,0.018,0.152,0.035,0.232,0.052c0.488,0.101,0.994,0.198,1.516,0.293  c0.156,0.028,0.324,0.055,0.484,0.083c0.371,0.065,0.74,0.13,1.127,0.191c0.207,0.033,0.424,0.064,0.635,0.097  c0.354,0.053,0.701,0.106,1.064,0.157c0.234,0.033,0.479,0.064,0.719,0.096c0.352,0.047,0.705,0.094,1.066,0.139  c0.256,0.031,0.521,0.061,0.781,0.09c0.355,0.042,0.711,0.083,1.074,0.121c0.277,0.03,0.561,0.057,0.84,0.086  c0.363,0.035,0.727,0.07,1.098,0.105c0.287,0.025,0.58,0.049,0.871,0.074c0.373,0.032,0.746,0.062,1.125,0.093  c0.303,0.022,0.611,0.043,0.918,0.066c0.377,0.025,0.752,0.052,1.135,0.075c0.32,0.021,0.643,0.038,0.967,0.057  c0.377,0.021,0.76,0.043,1.143,0.062c0.33,0.017,0.664,0.031,0.998,0.047c0.387,0.017,0.773,0.032,1.164,0.046  c0.34,0.013,0.684,0.023,1.027,0.034c0.182,0.006,0.359,0.015,0.545,0.02c-0.02,0.023-0.037,0.048-0.055,0.072  c-0.104,0.137-0.207,0.28-0.311,0.422c-0.172,0.23-0.344,0.461-0.512,0.698c-0.111,0.157-0.221,0.316-0.328,0.476  c-0.16,0.23-0.318,0.46-0.473,0.694c-0.111,0.168-0.219,0.338-0.328,0.508c-0.148,0.232-0.299,0.465-0.443,0.7  c-0.109,0.176-0.213,0.351-0.318,0.527c-0.141,0.234-0.279,0.47-0.416,0.705c-0.104,0.18-0.203,0.36-0.305,0.54  c-0.129,0.234-0.26,0.468-0.385,0.704c-0.098,0.182-0.191,0.362-0.283,0.545c-0.121,0.233-0.238,0.466-0.354,0.698  c-0.09,0.184-0.178,0.364-0.264,0.547c-0.107,0.229-0.211,0.456-0.314,0.684c-0.08,0.182-0.16,0.36-0.236,0.54  c-0.096,0.225-0.188,0.445-0.275,0.666c-0.072,0.178-0.141,0.354-0.207,0.527c-0.082,0.217-0.158,0.429-0.232,0.641  c-0.061,0.172-0.119,0.343-0.174,0.511c-0.066,0.208-0.127,0.409-0.186,0.61c-0.047,0.162-0.096,0.324-0.137,0.483  c-0.051,0.196-0.092,0.387-0.133,0.576c-0.033,0.151-0.07,0.304-0.098,0.45c-0.033,0.187-0.057,0.362-0.08,0.54  c-0.018,0.136-0.039,0.276-0.053,0.406c-0.016,0.176-0.016,0.338-0.02,0.504c-0.002,0.115-0.012,0.239-0.006,0.35  c0.006,0.173,0.029,0.329,0.051,0.486c0.012,0.087,0.016,0.181,0.033,0.261c0.047,0.229,0.113,0.442,0.203,0.632H402.225z   M449.775,451.863h-29.818c-0.6,0-0.807-0.276-0.92-0.518c-0.07-0.146-0.119-0.315-0.15-0.507c-0.01-0.054-0.008-0.122-0.014-0.179  c-0.018-0.146-0.033-0.289-0.031-0.453c0-0.081,0.014-0.176,0.018-0.26c0.01-0.16,0.016-0.315,0.037-0.489  c0.014-0.098,0.037-0.207,0.055-0.31c0.029-0.178,0.055-0.352,0.096-0.542c0.025-0.111,0.061-0.233,0.09-0.35  c0.047-0.194,0.092-0.387,0.15-0.592c0.037-0.128,0.084-0.264,0.125-0.396c0.064-0.205,0.125-0.406,0.197-0.619  c0.051-0.146,0.111-0.299,0.166-0.447c0.076-0.21,0.15-0.417,0.236-0.633c0.062-0.158,0.133-0.323,0.201-0.485  c0.088-0.213,0.174-0.427,0.27-0.645c0.076-0.171,0.16-0.346,0.238-0.519c0.1-0.216,0.195-0.431,0.301-0.649  c0.09-0.184,0.186-0.371,0.277-0.557c0.107-0.211,0.211-0.422,0.322-0.635c0.102-0.195,0.211-0.392,0.316-0.587  c0.111-0.206,0.221-0.412,0.336-0.619c0.113-0.201,0.232-0.401,0.35-0.602c0.117-0.201,0.232-0.402,0.354-0.604  c0.125-0.204,0.254-0.408,0.383-0.613c0.121-0.193,0.24-0.387,0.363-0.578c0.137-0.207,0.273-0.411,0.412-0.616  c0.125-0.185,0.248-0.369,0.373-0.551c0.145-0.207,0.293-0.409,0.439-0.612c0.125-0.173,0.25-0.348,0.377-0.519  c0.152-0.2,0.307-0.395,0.459-0.591c0.105-0.132,0.207-0.266,0.312-0.395c1.078,0.021,2.156,0.031,3.232,0.031l0,0  c0.023,0,0.045,0,0.068,0c0.717-0.002,1.424-0.005,2.121-0.015c0.271-0.004,0.535-0.011,0.805-0.016  c0.445-0.007,0.895-0.014,1.334-0.025c0.27-0.008,0.531-0.019,0.801-0.026c0.424-0.013,0.852-0.026,1.268-0.043  c0.277-0.011,0.547-0.025,0.82-0.038c0.395-0.019,0.793-0.035,1.18-0.057c0.273-0.016,0.537-0.033,0.807-0.05  c0.377-0.023,0.758-0.046,1.127-0.072c0.258-0.018,0.506-0.039,0.758-0.059c0.369-0.029,0.742-0.056,1.1-0.088  c0.246-0.021,0.482-0.046,0.723-0.07c0.354-0.033,0.709-0.066,1.053-0.103c0.24-0.025,0.471-0.054,0.709-0.081  c0.33-0.038,0.662-0.075,0.984-0.116c0.232-0.029,0.455-0.062,0.684-0.092c0.311-0.043,0.623-0.084,0.926-0.13  c0.223-0.034,0.438-0.069,0.656-0.104c0.289-0.047,0.578-0.093,0.857-0.142c0.217-0.038,0.424-0.078,0.633-0.117  c0.268-0.05,0.537-0.1,0.795-0.151c0.207-0.043,0.404-0.087,0.605-0.131c0.242-0.053,0.486-0.105,0.721-0.161  c0.197-0.046,0.387-0.096,0.578-0.145c0.219-0.056,0.441-0.111,0.65-0.169c0.188-0.051,0.365-0.105,0.545-0.157  c0.195-0.06,0.395-0.118,0.582-0.177c0.176-0.057,0.342-0.116,0.508-0.175c0.174-0.06,0.346-0.12,0.51-0.182  c0.164-0.063,0.318-0.127,0.473-0.191c0.102-0.042,0.213-0.083,0.311-0.125c3.322,1.89,5.373,5.397,5.373,9.228  C460.391,447.102,455.629,451.863,449.775,451.863z"></path></svg>