<svg fill="#BE5B0C" xmlns="http://www.w3.org/2000/svg" xmlns:xlink="http://www.w3.org/1999/xlink" version="1.1" x="0px" y="0px" viewBox="0 0 144.083 144" enable-background="new 0 0 144.083 144" xml:space="preserve"><ellipse cx="55.529" cy="57.896" rx="2.767" ry="3.521"></ellipse><path d="M88.553,61.417c1.527,0,2.768-1.576,2.768-3.521c0-1.943-1.24-3.52-2.768-3.52c-1.525,0-2.766,1.576-2.766,3.52  C85.788,59.841,87.028,61.417,88.553,61.417z"></path><path d="M69.136,79.422c1.324-0.675,2.312-1.745,2.905-2.989c0.594,1.244,1.582,2.314,2.906,2.989  c3.193,1.627,13.615-0.348,13.615-0.348s-4.529-9.591-7.723-11.22c-3.195-1.626-7.104-0.355-8.73,2.839  c-0.025,0.05-0.045,0.101-0.068,0.151c-0.023-0.051-0.042-0.102-0.068-0.151c-1.627-3.194-5.535-4.465-8.729-2.839  c-3.194,1.629-7.724,11.22-7.724,11.22S65.942,81.049,69.136,79.422z"></path><path d="M119.063,47.033h-13.006v-1.234c0-18.756-15.26-34.015-34.016-34.015S38.027,27.043,38.027,45.799v1.234H25.02v6h13.591  c-0.141,1.466-0.217,2.954-0.217,4.464c0,15.745,7.795,28.639,19.522,34.392c-10.409,4.167-24.211,13.799-24.211,26.083v14.244h6  v-14.244c0-4.827,3.512-9.448,8.086-13.222v18.783h48.5V104.75c4.574,3.774,8.086,8.395,8.086,13.222v14.244h6v-14.244  c0-12.283-13.802-21.916-24.212-26.082c11.728-5.753,19.524-18.647,19.524-34.393c0-1.51-0.076-2.998-0.217-4.464h13.59V47.033z   M72.042,17.784c15.447,0,28.016,12.567,28.016,28.015v1.234h-56.03v-1.234C44.027,30.352,56.594,17.784,72.042,17.784z   M72.175,106.186l-6.682-10.419c0.505-0.082,0.962-0.125,1.358-0.125h10.377c0.409,0,0.884,0.048,1.407,0.135L72.175,106.186z   M99.69,57.497c0,18.035-11.887,31.635-27.648,31.635s-27.647-13.6-27.647-31.635c0-1.515,0.093-3.002,0.254-4.464h54.788  C99.597,54.495,99.69,55.982,99.69,57.497z"></path></svg>
