<svg xmlns="http://www.w3.org/2000/svg" xmlns:xlink="http://www.w3.org/1999/xlink" xml:space="preserve" version="1.1" style="shape-rendering:geometricPrecision;text-rendering:geometricPrecision;image-rendering:optimizeQuality;" viewBox="0 0 333 333" x="0px" y="0px" fill-rule="evenodd" clip-rule="evenodd"><g><path fill="#33443a" d="M271 156c8,16 12,34 12,53 0,37 -17,71 -44,92l6 10c4,4 2,11 -2,14l0 0c-5,4 -12,2 -15,-2l-7 -10c-16,8 -35,13 -54,13 -20,0 -38,-5 -55,-13l-7 10c-3,4 -9,6 -14,2l0 0c-5,-3 -6,-10 -3,-14l7 -10c-28,-21 -45,-55 -45,-92 0,-19 4,-37 13,-53 12,13 30,17 49,18 -6,-1 -12,-3 -18,-5l0 0c-22,-7 -35,-18 -35,-32 0,-24 42,-37 88,-40 -5,-12 -6,-25 -1,-37 7,-14 11,-25 13,-33 1,-6 0,-11 -3,-14 13,1 16,32 5,54 -3,10 -4,20 -2,30 4,0 8,0 12,0 15,0 30,1 44,3l40 -51c4,-5 10,-5 14,-2 5,3 5,10 2,14l-35 44c23,7 38,18 38,32 0,14 -13,25 -35,32l0 0c-6,2 -12,4 -19,6 18,-2 36,-6 51,-19zm-155 -61c0,0 24,-36 8,-58 -7,-8 -11,-15 -13,-21 -2,-4 -2,-7 0,-10 -10,3 -7,25 3,39 14,22 1,49 2,50zm57 42c0,0 -10,-10 -18,-24 -40,1 -76,9 -79,23 -6,33 181,36 181,1 0,-8 -12,-14 -31,-19l-24 31c-3,4 -9,5 -14,1 -4,-3 -5,-9 -1,-14l17 -21c-13,-2 -27,-2 -41,-2 5,13 11,23 10,24z"/></g></svg>