<svg xmlns="http://www.w3.org/2000/svg" xmlns:xlink="http://www.w3.org/1999/xlink" version="1.1" x="0px" y="0px" viewBox="0 6 98 98" enable-background="new 0 0 100 100" xml:space="preserve"><path fill="#887744" d="M99.269,72.427c-0.002-0.018-0.021-0.216-0.089-0.45c-0.084-0.188-0.115-0.628-0.75-0.716  c-0.02,0-0.058,0-0.106,0.007l-0.003-0.001c-0.188-0.05-0.646-0.368-0.844-0.509c-0.114-0.253-0.383-0.851-0.484-1.168  c-0.202-0.592-1.1-2.4-3.133-3.443c-0.878-0.447-1.461-0.95-1.825-1.34c-0.05-0.055-0.096-0.105-0.137-0.153  c0.27-0.114,0.611-0.276,1.003-0.497c0.793-0.471,1.335-0.397,2.047-1.073c0.639-0.635,0.732-1.242,0.741-1.317l0.041-0.337  l-0.636-0.341l-0.403-0.215l-0.245,0.379c0,0.003-0.344,0.52-0.813,0.886c-0.172,0.139-0.873,0.49-1.51,0.754  c-0.323,0.134-0.641,0.259-0.887,0.343c-0.126,0.042-0.233,0.075-0.308,0.099c-0.019,0.005-0.033,0.008-0.047,0.011  c-0.677-0.252-4.194-1.984-5.906-3.379c0.542-0.378,1.024-0.8,1.217-1.017c0.126-0.157,0.338-0.368,0.347-0.751  c0-0.199-0.062-0.37-0.146-0.52c-0.31-0.467-0.744-0.59-1.203-0.621c-0.234-0.014-0.682,0.093-0.814,0.551  c-0.124,0.535-0.922,0.915-1.405,1.056c-2.445-1.12-6.377-1.807-11.675-2.309c-1.263-0.119-2.534-0.169-3.769-0.169  c-4.49,0-8.505,0.636-9.785,0.86l-0.381-1.11l-0.096-0.046c-0.094-0.129-0.377-0.579-0.942-1.747  c-0.907-1.865-1.862-3.585-2.283-6.432c-0.362-2.452-0.506-3.662-1.012-4.786c2.189-2.135,3.711-5.591,3.905-9.566  c0.327-6.758-3.293-12.424-8.084-12.657c-4.789-0.232-8.939,5.058-9.268,11.814c-0.219,4.507,1.322,8.519,3.79,10.768  c-2.218-1.574-4.409-4.446-4.409-9.658c0-11.431,7.078-13.447,9.377-13.447c-2.994,0-10.051,1.952-10.26,12.678  c-0.105,5.318,1.673,8.338,3.76,10.055c-2.228-1.696-4.338-4.616-4.338-9.596c0-11.434,7.417-13.565,10.145-13.565  c-2.701,0-11.031,1.21-11.031,12.799c0,9.381,5.88,11.848,8.854,12.447c-0.046-0.002-0.087-0.004-0.129-0.006  c-1.247-0.23-9.303-2.096-9.303-11.829c0-11.432,7.198-13.783,10.458-13.783c-3.733-0.311-11.34,1.43-11.34,13.016  c0,7.869,4.135,10.871,7.224,11.988c-3.425-0.954-6.396-3.529-7.165-9.554c-0.149-1.199-0.215-2.303-0.219-3.319  c0.023-11.831,8.503-12.42,10.912-12.444c-4.346-2.533-7.543-3.129-11.242-3.132c-8.112,0.011-16.819,3.169-21.734,6.944  c-5.641,4.363-11.24,12.19-12.092,18.506c-0.147,1.092-0.214,2.144-0.214,3.155c0.008,7.641,3.858,12.765,7.556,14.469  c1.891,0.861,4.174,1.212,6.473,1.214c4.075-0.009,8.19-1.087,10.353-2.695c1.703-1.306,2.841-3.214,3.55-4.938  c0.013,0.354,0.032,0.706,0.061,1.054c0.222,2.706,0.519,7.177,0.519,9.671c0,0.494-0.013,0.912-0.036,1.209  c-0.049,0.527-0.075,1.001-0.075,1.431c-0.007,1.149,0.232,2.08,0.922,2.973c0.934,1.084,3.681,1.889,4.69,2.01  c0.062-0.046,0.575,0.339,1.233,0.922c0.678,0.569,1.604,1.271,2.916,1.727c2.411,0.836,3.298,1.438,6.704,2.467  c3.288,0.987,7.478,3.426,9.318,4.157c0.707,0.263,1.848,1.335,2.873,2.402c1.057,1.076,1.955,2.117,2.708,2.503  c1.015,0.474,4.255,2.893,4.795,3.271c0.374,0.235,1.672,1.995,2.613,2.896c0.536,0.51,0.558,0.836,0.562,0.952  c0,0.028-0.002,0.045-0.003,0.055l-0.217,0.695l1.747-0.172l-0.036-0.687l1.904,0.835l0.669-1.468l-1.318-0.658l0.231-0.105  l0.407-0.183l-0.301-0.906l-0.187-0.553l-0.516,0.271c0,0.002-0.242,0.129-0.521,0.256c-0.14,0.063-0.286,0.125-0.405,0.17  c-0.062,0.02-0.113,0.036-0.149,0.047c-0.028,0.007-0.028,0.001-0.028,0.007c-0.289,0.013-0.773-0.099-0.841-0.314  c-0.196-0.365-0.611-0.827-0.978-1.196c0.303-0.059,0.658-0.122,1.037-0.179c0.487-0.075,1.617-0.145,2.683-0.302  c1.078-0.197,2.083-0.308,2.636-1.047c0.104-0.181,0.255-0.334,0.437-0.474c0.098,0.047,0.199,0.084,0.303,0.111  c0.165,0.003,2.9,1.147,3.48,1.367c0.034-0.024,0.59,0.516,1.013,1.04c0.516,0.529,0.764,1.053,1.455,1.231  c0.013-0.024,1.306,0.503,2.468,1.011c1.229,0.522,2.398,1.035,2.974,1.125c0.073,0.008,0.135,0.014,0.208,0.011  c0.698-0.01,2.177-0.306,3.527-0.629c0.816,0.519,1.486,0.947,1.767,1.099c0.759,0.387,2.291,1.197,3.174,1.235  c0.852-0.031,2.247-0.734,2.294-0.74l0.282-0.132v-1.455l-0.721,0.377c0,0-0.294,0.154-0.645,0.307  c-0.335,0.155-0.786,0.294-0.837,0.282c-0.014,0.022-0.658-0.213-1.236-0.496c-0.609-0.287-1.242-0.604-1.634-0.756  c-0.146-0.057-0.299-0.121-0.511-0.232c0.226-0.066,0.415-0.127,0.558-0.178c1.074-0.396,1.556-0.806,1.598-0.841l0.198-0.174  l-0.085-0.688l-0.102-0.797l-0.665,0.445c-0.002,0.002-0.423,0.286-1.35,0.646c-0.313,0.125-1.047,0.339-1.899,0.549  c-0.813-0.507-1.951-1.228-3.589-2.269c-2.968-1.892-4.922-2.248-6.199-2.242c-0.646,0-1.116,0.085-1.354,0.082  c-0.02,0-0.047-0.002-0.075-0.002c-0.391-0.011-1.393-0.392-2.302-0.765c0.532-0.656,0.933-1.531,1.139-1.705  c0.017-0.013,0.024-0.036,0.182-0.038c0.104,0,0.251,0.019,0.435,0.019c0.19,0,0.453-0.017,0.711-0.194  c0.391-0.281,2.066-1.476,2.577-1.979c0.146-0.154,0.27-0.345,0.276-0.602c-0.026-0.533-0.514-0.69-0.783-0.69  c-0.301,0.003-0.619,0.129-0.86,0.402c-0.071,0.101-0.698,0.541-1.232,0.869c-0.431,0.27-0.833,0.507-0.984,0.597  c-0.256,0.052-1.009,0.198-1.404,0.413c-0.354,0.252-0.574,0.642-0.947,1.099c-0.167,0.217-0.336,0.429-0.467,0.573  c-0.064,0.072-0.12,0.125-0.153,0.154c-0.113,0.024-0.259,0.061-0.425,0.109c-0.353-0.431-0.812-1.182-1.359-1.639  c-0.575-0.426-4.6-2.874-6.162-3.822c0.376-0.215,0.892-0.588,1.482-0.975c0.688-0.48,1.534-0.969,1.584-0.951  c0.515-0.109,2.832-0.17,4.216-1.523c0.433-0.459,1.96-1.151,3.455-1.705c1.512-0.577,2.995-1.057,3.628-1.354  c1.153-0.552,5.307-2.789,5.312-2.792l0.379-0.204l-0.562-1.532l-2.663,1.474l0.003-0.011l0.06-0.549h-1.241l-0.392,1.306  c-0.127,0.116-0.502,0.408-1.355,0.763c-1.257,0.527-5.535,2.018-7.531,3.125c-1.83,1.021-2.9,0.89-4.243,1.479  c-1.002,0.455-3.709,1.686-4.492,2.04c-3.34-1.58-9.237-1.656-11.598-1.974c-2.145-0.235-6.072-3.617-8.477-6.162  c-2.036-2.115-5.3-3.96-6.563-4.635c2.028-2.973,3.867-10.062,4.917-14.685c0.007,0.225,0.03,0.457,0.086,0.7  c0.483,1.963,4.156,8.833,5.167,9.856c0.268,0.229,0.777,1.277,1.155,2.261c0.408,1.017,0.708,1.927,0.938,2.317  c0.354,0.495,0.921,0.617,1.657,0.635c0.863-0.002,1.993-0.26,3.296-0.931c2.108-1.115,13.379-3.33,16.294-3.869  c0.422-0.083,0.979-0.122,1.609-0.122c1.672,0,3.868,0.269,5.721,0.602c1.831,0.312,3.444,0.769,3.622,0.919  c1.001,0.656,2.231,1.071,3.319,1.639c0.838,0.436,2.163,1.376,2.69,1.757l-0.083,0.746l-0.049,0.426l1.025,0.264l0.415,0.108  l0.327-0.796c0.699,0.451,1.998,1.264,3.093,1.777c1.288,0.588,1.919,2.085,2.485,3.549c0.465,1.163,0.505,2.714,0.497,3.03  c0,0.056,0.004,0.095,0.008,0.103l0.032,0.506l1.039-0.101l0.46-0.047l-0.053-1.969c0.273,0.059,0.514,0.065,0.678,0.067  c0.123,0,0.206-0.006,0.214-0.006l0.512-0.036L99.269,72.427z M68.784,90.697l0.011,0.199c-0.093-0.11-0.199-0.224-0.322-0.338  c-0.003-0.003-0.006-0.007-0.009-0.011C68.567,90.613,68.677,90.661,68.784,90.697z M85.782,89.066  c0.625,0.294,1.531,0.825,2.458,1.395c-0.596,0.104-1.14,0.169-1.534,0.165c-0.175,0.002-0.314-0.013-0.39-0.028  c-1.053-0.232-3.441-1.365-4.39-1.969c-0.417-0.262-0.874-0.756-1.209-1.188C82.518,87.625,84.349,88.393,85.782,89.066z   M75.855,85.566c0.988,0.422,2.33,0.974,3.106,1.034h0.011l0.341,0.564c0.006,0.007,0.078,0.124,0.201,0.306  c-0.236-0.254-0.48-0.469-0.781-0.599c-0.461-0.162-2.065-0.857-3.037-1.213C75.751,85.628,75.803,85.598,75.855,85.566z   M74.561,84.992c0.047,0.028,0.095,0.057,0.143,0.084c-0.034,0.02-0.068,0.038-0.104,0.061c-0.045-0.035-0.09-0.069-0.137-0.105  C74.495,85.018,74.528,85.004,74.561,84.992z M48.097,43.773c0,0,2.96-0.351,4.702-2.887c2.352-3.424,2.27-5.733,2.352-7.982  c0,0,0.537-0.349,0.99-1.091C56.141,35.647,54.861,43.566,48.097,43.773z M50.312,32.666c0-0.421,0.343-0.764,0.765-0.764  c0.424,0,0.766,0.343,0.766,0.764c0,0.423-0.342,0.766-0.766,0.766C50.654,33.431,50.312,33.088,50.312,32.666z M53.036,31.821  c0-0.312,0.254-0.567,0.567-0.567c0.312,0,0.568,0.254,0.568,0.567c0,0.313-0.256,0.569-0.568,0.569  C53.29,32.39,53.036,32.134,53.036,31.821z M54.192,25.397c1.154,1.816,1.525,4.621,1.525,4.621l-0.701,0.535  c-1.732-8.723-7.197-8.6-7.197-8.6C48.933,21.83,52.251,22.348,54.192,25.397z M42.462,28.074c0-1.54,1.251-2.79,2.791-2.79  c1.541,0,2.791,1.25,2.791,2.79c0,1.541-1.25,2.79-2.791,2.79C43.713,30.864,42.462,29.615,42.462,28.074z M46.432,44.992  c-0.095,0.004-0.188,0.006-0.278,0.008c-0.345-0.09-0.779-0.222-1.271-0.409C45.444,44.782,45.971,44.91,46.432,44.992z   M67.908,89.965l0.007,0.012c-0.279-0.314-0.571-0.666-0.855-1.006c0.021,0.021,0.042,0.042,0.062,0.063  C67.462,89.372,67.847,89.82,67.908,89.965z M72.012,85.785c-0.068,0.044-0.078,0.036-0.078,0.042c-0.333,0-2.619,0.02-4.156,0.02  c-0.385,0-0.72,0-0.966-0.002c-0.121-0.003-0.22-0.006-0.285-0.008v0.009c-0.489-0.243-3.689-2.064-4.705-2.901  c-0.852-0.695-2.845-2.619-3.788-3.536c0.07-0.029,0.145-0.06,0.223-0.091c0.482-0.194,1.101-0.375,1.517-0.374  c0.043,0.004,0.085,0.007,0.129,0.009c0.89,0.075,4.982,1.63,6.201,2.062c1.083,0.356,5.504,2.904,5.723,3.116  c0.14,0.12,0.526,0.456,0.977,0.832c-0.202,0.212-0.373,0.424-0.526,0.584C72.171,85.656,72.076,85.741,72.012,85.785z   M73.329,86.272c0.011,0.07-0.349,0.239-0.862,0.384c0.509-0.261,0.773-0.758,1.1-1.075c0.07,0.057,0.138,0.111,0.204,0.164  C73.611,85.898,73.46,86.071,73.329,86.272z M41.233,53.291c-1.115,4.324-2.684,9.152-4.104,10.788l-0.414,0.48l0.567,0.284  c0.007,0,4.455,2.242,6.812,4.711c2.517,2.589,6.289,6.052,9.062,6.456c2.507,0.314,8.586,0.459,11.49,1.98l0.214,0.112l0.22-0.101  c0,0,1.741-0.79,3.184-1.446c-0.029,0.02-0.06,0.038-0.09,0.057c-0.707,0.481-1.493,1.008-1.549,1.011  c-0.569,0.186-0.773,0.662-0.748,0.838v0.278l0.238,0.146c0.008,0.003,6.125,3.71,6.695,4.142c0.298,0.183,0.582,0.718,0.975,1.221  c-0.061,0.03-0.121,0.061-0.18,0.094c-0.513-0.424-0.991-0.834-1.135-0.964c-0.532-0.426-4.662-2.8-6.044-3.298  c-1.238-0.427-5.168-1.972-6.419-2.111c-0.069-0.007-0.152-0.013-0.235-0.013c-1.29,0.019-2.792,0.865-2.828,0.87l-0.595,0.317  l0.48,0.472c0.006,0.008,3.146,3.094,4.365,4.095c1.3,1.043,4.672,2.939,5.021,3.082c0.174,0.036,0.243,0.036,0.361,0.036  c0.057,0,0.123,0,0.222,0.004c0.252,0.003,0.594,0.005,0.979,0.005c1.368,0,3.328-0.019,3.976-0.021  c-0.118,0.02-0.239,0.037-0.361,0.051c-1.019,0.149-2.108,0.214-2.687,0.303c-1.094,0.164-2.01,0.378-2.017,0.381l-0.754,0.178  c-0.064-0.059-0.127-0.111-0.186-0.153c-0.534-0.37-3.705-2.764-4.937-3.358c-0.372-0.152-1.398-1.222-2.425-2.296  c-1.061-1.084-2.166-2.204-3.222-2.635c-1.689-0.661-5.945-3.143-9.395-4.186c-3.331-1.004-4.157-1.579-6.662-2.45  c-1.148-0.403-1.958-1.01-2.603-1.552c-0.666-0.523-1.062-1.051-1.803-1.147c-0.594,0.012-3.65-1.066-3.97-1.627  c-0.554-0.739-0.711-1.327-0.722-2.371c0-0.39,0.026-0.833,0.072-1.347c0.028-0.348,0.04-0.782,0.04-1.293  c0-2.562-0.3-7.026-0.52-9.751c-0.054-0.638-0.077-1.296-0.077-1.953c0-2.642,0.342-5.305,0.342-6.987  c0-1.776,0.389-4.414,0.39-5.927c0-0.176-0.004-0.333-0.016-0.473c-0.125-1.331-1.044-2.848-1.26-3.201  c-0.607-2.117-0.789-3.895-0.791-5.265c0-2.081,0.309-3.306,1.083-4.507c0,0-1.508,1.454-1.782,4.03  c-0.236,2.227-0.155,4.572,0.403,6.086c0.557,1.514,0.77,1.903,1.203,2.923c-0.018,0.438-0.046,0.997-0.078,1.619  c-0.116-0.059-0.247-0.13-0.396-0.216c-1.697-0.987-5.859-3.669-6.44-10.992c0,0-0.613,0.819-0.501,1.89  c0.688,6.576,6.057,9.743,7.252,10.362c-0.484-0.065-1.58-0.264-2.781-0.819c-1.623-0.749-3.505-2.405-4.125-4.033  c-0.338-0.889-0.581-1.55-0.581-1.55s-0.688,0.381-0.155,1.782c1.69,4.45,6.545,5.431,7.617,5.603  c-0.164,2.882-0.362,6.161-0.364,6.9c0.031,0.868-1.195,5.753-4.134,7.899c-1.845,1.401-5.873,2.508-9.759,2.497  c-2.199,0.003-4.355-0.345-6.061-1.124c-3.27-1.487-6.986-6.269-6.978-13.568c0-0.968,0.062-1.976,0.204-3.027  c0.753-5.873,6.26-13.665,11.718-17.851c4.678-3.612,13.274-6.746,21.127-6.737c3.184,0,6.243,0.511,8.877,1.683  c-1.182,0.19-2.802,0.629-4.387,1.636c-2.668,1.687-5.161,5.044-5.148,11.266c0,1.06,0.07,2.203,0.225,3.441  c0.815,6.845,4.685,9.823,8.781,10.609C42.775,46.737,42.123,49.873,41.233,53.291z M90.402,64.907l-0.504-0.342l-0.14,0.342  l0.008-0.057l-0.228-0.168c-0.015-0.008-1.854-1.381-3.054-2.006c-1.174-0.608-2.391-1.026-3.229-1.587  c-0.597-0.366-2.067-0.71-3.992-1.068c-1.897-0.338-4.124-0.614-5.897-0.614c-0.672,0-1.277,0.039-1.794,0.137  c-2.989,0.573-14.067,2.691-16.566,3.962c-1.183,0.611-2.177,0.823-2.839,0.823c-0.284,0-0.508-0.039-0.647-0.09  c-0.145-0.047-0.159-0.09-0.171-0.083c-0.085-0.115-0.462-1.154-0.854-2.155c-0.423-1.03-0.844-2.067-1.398-2.616  c-0.646-0.535-4.595-7.857-4.881-9.356c-0.05-0.215-0.066-0.414-0.069-0.609c-0.02-1.026,0.616-2.042,0.663-3.475  c0.266,0.026,0.606,0.048,1.003,0.048c1.484,0.002,3.795-0.323,5.835-1.958c0.201-0.13,0.396-0.271,0.589-0.421  c0.342,0.89,0.495,2.004,0.823,4.242c0.441,3.011,1.481,4.891,2.371,6.721c0.692,1.373,0.908,1.777,1.097,1.982l0.553,1.619  l0.427-0.081c0.008-0.005,4.684-0.92,10.019-0.918c1.208-0.002,2.449,0.047,3.676,0.162c5.368,0.501,9.312,1.231,11.502,2.293  l0.157,0.076l0.176-0.042c0.483-0.135,1.733-0.463,2.224-1.613c0.053,0.009,0.117,0.028,0.169,0.053  c0.041,0.019,0.075,0.039,0.094,0.055l0.002-0.007c0.006,0.011,0.01,0.019,0.012,0.026c-0.019,0.027-0.053,0.071-0.1,0.127  c-0.087,0.113-0.961,0.862-1.552,1.181l-0.65,0.357l0.584,0.462c0.119,0.091,0.201,0.141,0.198,0.142  c0.979,0.878,2.548,1.815,3.926,2.559c0.689,0.372,1.329,0.691,1.814,0.921c0.324,0.145,0.524,0.245,0.702,0.315l0.217,0.405  c0.015,0.03,0.211,0.388,0.662,0.863C90.788,65.166,90.402,64.907,90.402,64.907z"/></svg>