<?xml version="1.0" encoding="utf-8"?>
<svg viewBox="0 0 379 717.2" xmlns="http://www.w3.org/2000/svg">
  <path style="fill:#6622aa" d="m 208.59375,712.74532 c -3.80998,-0.55708 -5.15625,-1.85637 -5.15625,-4.97631 0,-1.83538 0.86883,-3.28317 2.88475,-4.80708 8.71504,-6.58799 9.23304,-8.13789 9.5446,-28.5586 0.21374,-14.00947 0.0966,-15.14396 -2.01886,-19.55958 -1.70248,-3.55353 -8.16615,-10.53851 -26.71875,-28.87373 -13.46015,-13.30244 -26.16049,-25.05696 -28.22299,-26.12117 -2.0625,-1.06421 -5.94674,-3.57493 -8.63165,-5.57938 -2.6849,-2.00446 -5.53256,-3.64447 -6.32812,-3.64447 -1.95701,0 -1.78748,-1.85452 0.42852,-4.6875 1.00832,-1.28906 1.84268,-2.60882 1.85415,-2.93278 0.0114,-0.32397 1.93692,-4.05304 4.27879,-8.28683 9.49454,-17.16485 12.34075,-26.88812 13.45578,-45.96789 0.39073,-6.68599 1.10032,-10.80622 2.21203,-12.84407 1.77576,-3.25514 2.1332,-5.90593 0.79637,-5.90593 -0.46221,0 -2.14971,1.49124 -3.75,3.31388 -2.77409,3.15949 -2.9105,3.69447 -2.92847,11.48437 -0.0173,7.48624 -0.46107,11.49517 -2.62573,23.71885 -0.41865,2.3641 -1.6824,5.7889 -2.8083,7.61067 -1.12591,1.82175 -2.04712,4.1878 -2.04712,5.25785 0,1.07006 -0.76401,2.49683 -1.69779,3.1706 -1.7967,1.29639 -9.60283,16.77196 -11.25796,22.31878 -0.53851,1.80469 -0.95554,4.33594 -0.92674,5.625 0.0288,1.28906 -0.81148,4.24219 -1.86729,6.5625 -1.05582,2.32031 -3.06063,7.96349 -4.45515,12.5404 -2.38179,7.81722 -2.49618,9.01155 -1.88711,19.70263 0.63228,11.09838 0.59453,11.43012 -1.52042,13.35975 -2.43207,2.21898 -6.5709,3.64059 -13.21758,4.53999 -4.72049,0.63875 -17.819873,6.92094 -20.560344,9.8603 -3.583761,3.84387 -21.771519,5.31678 -27.132454,2.1973 -4.836416,-2.81427 -4.725297,-6.02898 0.327894,-9.48612 2.221282,-1.51969 5.515256,-3.51479 7.319944,-4.43356 1.804687,-0.91877 10.053839,-8.46638 18.331453,-16.77247 14.655797,-14.70622 15.094867,-15.26165 16.754697,-21.19572 0.93748,-3.35156 2.52511,-8.625 3.52807,-11.71875 1.00296,-3.09375 2.21048,-8.78906 2.6834,-12.65625 2.23387,-18.26692 4.8853,-34.66163 7.80826,-48.28125 0.77463,-3.60938 1.89282,-10.78125 2.48486,-15.9375 1.61216,-14.04061 0.01,-12.67832 14.32449,-12.17746 15.35965,0.5374 18.45977,0.0688 18.45977,-2.79066 0,-2.08118 -0.12594,-2.10095 -12.02998,-1.88795 -7.18269,0.12851 -12.8813,0.67085 -14.14279,1.34599 -1.16205,0.6219 -2.34309,0.90046 -2.62454,0.61902 -0.28145,-0.28145 -1.30282,-0.0883 -2.26972,0.42914 -2.76955,1.48221 -6.14802,-2.52975 -6.86711,-8.15474 -0.32137,-2.51397 -1.01147,-7.10209 -1.53353,-10.19584 -0.81122,-4.80724 -0.67065,-6.51091 0.96685,-11.71875 1.05384,-3.35156 3.39763,-7.94609 5.20844,-10.21006 1.81081,-2.26397 3.29238,-4.48502 3.29238,-4.93566 0,-1.32147 5.89521,-4.53446 8.32685,-4.53827 1.2282,-0.002 3.64758,0.8707 5.37642,1.93918 3.62407,2.2398 3.91607,2.18229 15.66749,-3.08577 8.84889,-3.96689 18.59282,-10.32049 23.77505,-15.50273 1.81865,-1.81865 5.58814,-8.20284 8.78941,-14.88615 l 5.6051,-11.70186 -1.4264,-4.80324 c -1.63383,-5.50169 -1.85769,-12.21787 -0.49229,-14.76916 1.37699,-2.57292 0.22332,-4.54346 -3.888,-6.64089 -2.47904,-1.26472 -4.14616,-1.59524 -5.16639,-1.02429 -0.82846,0.46362 -3.87547,4.38045 -6.77114,8.70405 -6.62386,9.89027 -9.70428,11.68628 -19.62578,11.44257 -7.88829,-0.19375 -10.23378,-1.35995 -13.91105,-6.91667 -3.74928,-5.66553 -3.51964,-10.41441 0.81976,-16.95244 3.70594,-5.58365 7.88515,-8.30611 12.75055,-8.30611 3.41349,0 10.48976,-2.90527 12.25401,-5.03105 1.67263,-2.01539 1.62603,-5.86996 -0.0954,-7.89064 -3.22167,-3.78172 -9.0485,-16.07564 -9.66366,-20.38916 -0.37637,-2.63903 -2.32496,-7.7006 -4.49578,-11.67798 -5.0771,-9.30224 -6.48999,-16.73657 -5.05395,-26.59258 1.22494,-8.4071 0.82702,-9.10034 -6.33958,-11.04471 -3.27032,-0.88728 -4.22063,-0.76656 -7.06022,0.89689 -11.97847,7.01706 -20.01248,10.56931 -23.28711,10.29644 l -3.43164,-0.28596 -0.46875,-5.14812 c -0.56252,-6.17792 -1.62082,-6.64852 -7.85017,-3.49076 -3.80573,1.92918 -5.096761,2.12824 -9.727486,1.49984 -5.094062,-0.69128 -8.19573,-2.7283 -7.469883,-4.90585 0.159629,-0.47888 2.111401,-1.58274 4.337271,-2.45302 2.225871,-0.87028 4.402652,-2.21777 4.837287,-2.99441 0.434634,-0.77666 0.534309,-4.46481 0.221512,-8.19591 l -0.568734,-6.78382 -3.608648,-1.44389 c -1.984757,-0.79414 -3.608649,-1.80353 -3.608649,-2.24308 0,-0.43955 -0.915615,-1.65221 -2.034699,-2.6948 -2.010772,-1.87332 -2.013528,-1.91901 -0.234375,-3.88547 1.580958,-1.7474 1.800324,-3.47408 1.800324,-14.17076 0,-10.9355 -0.179093,-12.27674 -1.751678,-13.11846 -8.057852,-4.31292 -17.451293,-14.02816 -17.480893,-18.07974 -0.01908,-2.61146 -1.42806,-4.86474 -8.077688,-12.91807 -5.953657,-7.21045 -7.845991,-10.1001 -7.845991,-11.9811 0,-0.60469 0.632812,-0.85661 1.40625,-0.5598 1.122584,0.43077 1.40625,-0.31787 1.40625,-3.71134 0,-4.8462 -0.730105,-6.52013 -4.741969,-10.87205 -1.944156,-2.10894 -2.730401,-3.78768 -2.460374,-5.25326 0.23883,-1.29624 -1.141266,-5.21581 -3.466031,-9.84375 -2.124582,-4.22944 -4.284751,-8.58421 -4.800376,-9.67729 -0.515625,-1.09307 -1.925579,-3.78916 -3.133232,-5.9913 -2.191997,-3.99708 -2.19233,-4.003 -0.195859,-3.48092 1.701731,0.44502 1.90677,0.2201 1.375359,-1.5087 -0.897427,-2.91951 -6.785581,-12.91395 -9.050661,-15.36241 -1.441741,-1.55847 -2.088394,-3.94024 -2.576246,-9.48889 -0.45401,-5.16374 -1.232425,-8.22572 -2.569336,-10.10676 C 19.629112,96.441825 14.212141,81.5625 16.652033,81.5625 c 0.527924,0 1.212957,0.659552 1.522293,1.465671 0.309338,0.806118 1.007771,1.190435 1.552076,0.854036 0.682846,-0.422022 0.652802,-1.017504 -0.09691,-1.920855 C 17.286462,79.138177 10.999194,58.520542 10.666732,52.57007 10.481316,49.251455 9.1090389,42.936382 7.6109257,38.50757 4.81301,30.236203 1.8682131,18.561905 1.8725484,15.758453 1.8816614,9.8655469 8.4745855,15.772541 15.675119,28.125 c 9.998722,17.152728 15.283722,25.812535 18.02265,29.53125 1.519084,2.0625 4.753871,6.914062 7.188415,10.78125 2.434545,3.867187 7.520167,11.757565 11.301381,17.534172 3.781214,5.776607 6.874935,10.918915 6.874935,11.427359 0,0.508435 1.582031,2.819349 3.515625,5.135349 1.933594,2.316 4.992187,6.22847 6.796875,8.69437 4.584404,6.26406 20.639014,25.51585 27.091247,32.48633 8.965973,9.6861 19.783753,26.45085 19.783753,30.65968 0,0.80174 1.16016,2.51852 2.57813,3.81505 1.41796,1.29654 4.26562,4.84416 6.32812,7.8836 2.0625,3.03943 6.01101,7.95989 8.77447,10.93435 4.38556,4.72044 5.57765,5.47714 9.375,5.95089 2.39279,0.29852 5.77279,0.92648 7.51112,1.39546 3.97629,1.07276 12.64783,-0.42457 16.63756,-2.87284 3.7305,-2.28919 5.66248,-2.26959 6.91467,0.0701 0.54866,1.02517 2.05479,2.12928 3.34697,2.4536 1.29218,0.32432 2.91117,1.70039 3.59775,3.05794 1.69432,3.35011 2.79713,13.85332 1.53637,14.6325 -0.53634,0.33149 -0.97516,1.77803 -0.97516,3.21456 0,1.43653 -0.84375,3.37545 -1.875,4.30872 -1.03125,0.93327 -1.87658,2.36975 -1.87851,3.19218 -0.002,0.82242 -0.84567,2.87662 -1.875,4.56486 -2.50078,4.10166 -2.35917,8.68666 0.43884,14.20826 3.36022,6.63109 6.65526,8.30812 16.35871,8.32593 4.33828,0.008 8.76797,-0.33249 9.84375,-0.75654 1.07578,-0.42405 4.35655,-2.9299 7.2906,-5.56856 6.30782,-5.67275 10.21721,-13.16574 12.41138,-23.78841 1.9006,-9.2014 1.88865,-9.38332 -0.82899,-12.61305 -2.05976,-2.44788 -2.19415,-3.08598 -1.27832,-6.07001 0.80286,-2.61594 0.66052,-5.32502 -0.66047,-12.57085 -2.19724,-12.05222 -2.00192,-24.94422 0.47304,-31.22326 3.32207,-8.42814 10.47102,-16.36963 21.98231,-24.4193 16.89695,-11.81578 39.75564,-33.98906 60.63915,-58.820913 1.83963,-2.187441 5.0285,-5.196845 7.08638,-6.687564 2.05788,-1.490721 4.29493,-4.130684 4.97122,-5.866586 1.58973,-4.080517 5.06994,-9.473861 9.90093,-15.343684 5.28145,-6.417149 21.88031,-31.850692 24.16795,-37.03125 2.79101,-6.320493 5.75631,-9.7351782 10.87172,-12.5193338 4.20997,-2.2913554 4.73947,-2.3800774 6.09781,-1.0217406 1.95615,1.9561489 1.98307,1.7655512 -1.70832,12.0935834 l -3.1958,8.941489 2.79492,1.990164 c 2.76079,1.965848 2.78978,2.077566 2.37378,9.143626 -0.23163,3.934403 -0.95326,9.380336 -1.60363,12.102071 -1.26136,5.278724 -1.12571,5.819051 1.56877,6.248524 2.37661,0.378808 1.91956,4.902981 -1.09661,10.855119 -2.79132,5.508403 -2.88748,7.37246 -0.59121,11.460786 1.73526,3.089475 1.73148,3.131656 -0.99018,11.044141 -6.528,18.978348 -7.13924,21.096738 -6.32868,21.933008 0.51124,0.52747 1.75037,0.44978 3.1743,-0.19902 3.98386,-1.81516 3.59428,0.39138 -0.97805,5.53958 -3.97868,4.47977 -8.28469,11.9726 -7.39294,12.86435 0.20099,0.20099 1.70106,-0.10016 3.33348,-0.66922 3.24483,-1.13116 4.62767,-0.73438 4.62767,1.32779 0,1.30469 -6.42923,10.28826 -14.02634,19.59903 -3.6601,4.4857 -4.78988,8.22257 -2.84866,9.4223 2.01096,1.24285 0.75221,5.16874 -3.34544,10.43408 -3.41829,4.39237 -4.1801,6.0238 -3.77354,8.08104 0.44058,2.22935 -0.59575,3.79165 -7.67019,11.56302 -9.44727,10.37798 -10.3584,12.1927 -5.6968,11.34649 1.72822,-0.31372 4.09144,-0.84696 5.25159,-1.18498 2.85354,-0.83139 2.6799,0.53975 -0.70312,5.55244 -1.54688,2.29203 -2.8125,4.38256 -2.8125,4.6456 0,0.26304 2.47338,0.25398 5.4964,-0.0202 3.63643,-0.32973 5.72264,-0.13233 6.16496,0.58334 0.93851,1.51855 -2.70593,8.65762 -6.07754,11.90523 -1.55247,1.49539 -3.25735,3.47492 -3.78861,4.39898 -0.89039,1.54872 -0.60455,1.63215 3.65556,1.06703 2.68687,-0.35643 4.85728,-0.23153 5.18477,0.29836 0.30981,0.50128 -1.34058,3.36325 -3.66755,6.35991 -4.59933,5.92303 -4.95433,8.24134 -1.33341,8.7078 2.2119,0.28494 4.67792,2.44579 4.67792,4.09903 0,1.18891 -7.82011,8.25658 -9.13553,8.25658 -0.64734,0 -1.17697,0.84375 -1.17697,1.875 0,1.5625 0.625,1.875 3.75,1.875 5.11826,0 4.87087,1.75576 -0.9375,6.65345 -2.57813,2.17391 -4.6875,4.4909 -4.6875,5.14888 0,1.51656 -3.1945,2.56283 -5.5461,1.81646 -1.98777,-0.63089 -2.35704,-0.24029 -3.22974,3.41627 -0.52423,2.19647 -0.26486,2.57689 2.11303,3.09916 7.74565,1.70123 18.85031,13.16768 18.85031,19.46447 0,2.56167 -0.95934,4.04802 -5.39063,8.35191 -4.99954,4.85583 -8.38778,7.58333 -21.16971,17.04142 -6.4652,4.78398 -16.16975,9.19519 -29.12966,13.2409 -5.86999,1.83245 -10.89766,3.91792 -11.17259,4.63436 -0.71243,1.85657 2.83131,27.49274 4.42017,31.97647 0.73087,2.0625 2.07244,6.28125 2.98126,9.375 0.90881,3.09375 4.19729,12.58594 7.30772,21.09375 5.48909,15.01406 5.64982,15.71677 5.46806,23.90625 -0.28091,12.65672 -2.75694,24.30686 -9.96243,46.875 -2.79866,8.76562 -5.52415,17.625 -6.05665,19.6875 -2.92315,11.32201 -2.5173,10.78125 -8.09132,10.78125 -4.96192,0 -12.93196,-1.53098 -22.92687,-4.40408 -4.28865,-1.2328 -6.24691,-2.61433 -11.95313,-8.43273 -3.75333,-3.82712 -6.82422,-7.31366 -6.82422,-7.74786 0,-0.4342 -2.95313,-4.51984 -6.5625,-9.07919 -3.60938,-4.55935 -6.5625,-8.77627 -6.5625,-9.37093 0,-1.20279 -8.55642,-5.96521 -10.71741,-5.96521 -0.75731,0 -1.78812,-0.73477 -2.29069,-1.63282 -0.50258,-0.89805 -1.17203,-1.37456 -1.48767,-1.05891 -0.52216,0.52216 3.26841,6.4778 12.14422,19.08064 4.97318,7.06146 4.75009,7.45472 -6.13473,10.81365 -5.18307,1.59943 -13.09323,3.75392 -17.57812,4.78774 -14.59069,3.36334 -17.40819,4.20872 -17.78397,5.33605 -0.20353,0.61059 0.40332,1.39602 1.34853,1.7454 2.61716,0.96738 3.08154,2.23247 2.46652,6.71956 -0.54453,3.97274 -0.49517,4.07776 1.43194,3.04639 2.75499,-1.47442 4.19968,-4.51811 3.59042,-7.56435 -0.50943,-2.5472 -0.45686,-2.57528 10.4526,-5.58176 6.03054,-1.66192 12.86305,-3.5887 15.18336,-4.28172 5.18903,-1.54984 12.95111,-2.81561 15.46875,-2.52251 1.03125,0.12006 3.05654,1.47421 4.50065,3.00921 1.44409,1.53502 3.02613,2.79093 3.51562,2.79093 0.48949,0 0.88998,0.42188 0.88998,0.9375 0,0.51563 -0.80447,0.9375 -1.7877,0.9375 -2.23134,0 -8.88918,7.83608 -11.82046,13.91232 -2.24622,4.65619 -12.01466,17.1801 -20.59169,26.40018 -6.94943,7.47046 -13.42867,16.95961 -13.77838,20.17912 -0.27469,2.52876 -0.0223,2.81679 2.69846,3.08002 1.98624,0.19216 3.19686,0.90598 3.57911,2.11037 0.3177,1.00099 1.39282,2.25625 2.38915,2.78947 2.30433,1.23324 2.31116,3.82937 0.0175,6.65904 l -1.79397,2.21323 6.9351,6.39246 c 7.39347,6.81496 10.76911,11.93969 21.10798,32.04504 3.18182,6.1875 6.80913,12.4703 8.06068,13.96178 1.25155,1.49146 3.28586,4.7055 4.52068,7.14231 3.39277,6.69531 9.1214,11.67199 21.55726,18.72762 3.09375,1.75527 6.13893,3.84715 6.76706,4.6486 2.00191,2.5543 1.32858,6.12417 -1.87866,9.96032 -1.6942,2.0264 -3.89739,4.95 -4.89598,6.49687 -2.80254,4.34126 -9.65322,18.77586 -11.29876,23.80682 -3.70758,11.33526 -13.20671,17.1066 -25.25616,15.34476 z M 174.88492,579.2837 c 0.91215,-2.0228 1.3841,-3.95217 1.04877,-4.28751 -1.02625,-1.02624 -4.00334,2.33029 -5.02796,5.66877 -0.86034,2.80327 -0.78465,3.10862 0.67594,2.72666 0.90464,-0.23656 2.3911,-2.08513 3.30326,-4.10792 z M 161.25,501.17043 c 0,-0.21565 0.26898,-1.09301 0.59772,-1.94972 0.48562,-1.26549 0.0915,-1.49967 -2.10136,-1.24855 -3.5986,0.4121 -4.40313,3.59034 -0.90885,3.59034 1.32686,0 2.41249,-0.17644 2.41249,-0.39207 z m 2.02043,-13.98827 c -1.72527,-2.12633 -4.83293,-8.19619 -4.83293,-9.43963 0,-0.69462 -0.63281,-1.78813 -1.40625,-2.43003 -0.77344,-0.6419 -1.40625,-1.8075 -1.40625,-2.59023 0,-2.15523 -3.86446,-9.44059 -5.29986,-9.9914 -1.97957,-0.75964 -1.50719,1.72917 1.63133,8.59475 4.74873,10.38796 7.58007,15.63805 9.08572,16.84748 1.71077,1.37417 3.50119,0.57794 2.22824,-0.99094 z m 90.78014,-137.5856 c 6.49059,-2.73122 9.93887,-4.69314 10.14686,-5.77312 0.43369,-2.25194 -1.51793,-2.06926 -7.46371,0.69865 -2.75824,1.28403 -5.57177,2.33872 -6.2523,2.34375 -0.68054,0.005 -3.13597,1.31545 -5.45651,2.91203 -4.44987,3.06158 -6.45851,3.04763 -3.67732,-0.0255 2.72619,-3.01242 0.88407,-4.03488 -3.36445,-1.86745 -4.87947,2.48932 -5.58219,1.69777 -1.86663,-2.10259 3.08273,-3.15309 3.89717,-6.40728 1.60357,-6.40728 -0.73831,0 -2.24361,1.26562 -3.34508,2.8125 -1.10147,1.54687 -2.84259,2.8125 -3.86917,2.8125 -1.02657,0 -1.61115,-0.41316 -1.29905,-0.91813 0.31208,-0.50497 0.13044,-1.73464 -0.40365,-2.73261 -0.80037,-1.49551 -0.23018,-2.80011 3.24361,-7.42126 2.31808,-3.08374 4.77277,-5.82094 5.45487,-6.08269 0.6821,-0.26175 4.34754,-0.1348 8.14542,0.28211 9.24814,1.01519 13.29024,0.34358 12.9167,-2.14616 -0.25612,-1.70706 -1.10807,-1.91084 -9.12871,-2.18336 -5.098,-0.17322 -9.33376,0.10403 -9.99685,0.65435 -0.63285,0.52521 -2.34736,1.14993 -3.81002,1.38825 -1.67473,0.27287 -4.326,2.25128 -7.16056,5.34328 -4.07038,4.44006 -4.45931,5.25341 -4.0638,8.49854 0.24055,1.97371 1.17036,4.12456 2.06626,4.77965 0.8959,0.65509 1.34964,1.64295 1.00831,2.19523 -0.72685,1.17606 1.78711,3.9678 3.57301,3.9678 0.67647,0 1.46078,0.8827 1.7429,1.96155 0.84241,3.22138 9.33385,2.02694 21.2563,-2.98999 z m 13.67552,-29.20594 c 7.81824,-5.93677 16.53644,-14.62925 16.077,-16.02957 -0.19486,-0.59389 -2.0037,-1.21669 -4.01964,-1.38402 -2.01595,-0.16731 -3.88178,-0.63245 -4.14628,-1.03363 -0.70246,-1.06543 -9.1416,-3.61927 -14.40094,-4.35798 -4.11559,-0.57806 -4.51326,-0.472 -4.20879,1.12248 0.21551,1.12868 1.56945,2.06645 3.77127,2.61206 2.00341,0.49646 3.61515,1.53989 3.86717,2.5036 0.36914,1.4116 0.95999,1.52988 4.05499,0.81177 4.55894,-1.05778 5.02913,-1.06678 5.02913,-0.0962 0,0.43401 -1.79297,1.32477 -3.98438,1.97946 -6.06071,1.81066 -11.01562,4.60412 -11.01562,6.21035 0,0.79244 0.47196,3.31512 1.04879,5.60595 1.23306,4.8969 3.43409,5.46768 7.9273,2.05576 z M 104.0217,291.72889 c 1.74329,-1.45537 2.90285,-3.07777 2.57678,-3.60535 -0.84566,-1.36832 -8.931399,-0.72954 -13.082855,1.03356 -5.500579,2.33606 -4.547102,3.57983 3.515625,4.58599 1.546875,0.19304 3.03938,0.41419 3.31666,0.49144 0.27729,0.0772 1.9305,-1.05029 3.67379,-2.50564 z m 21.43298,-4.03324 c 3.93083,-1.48838 8.86131,-5.88586 10.20503,-9.10184 0.72617,-1.73797 2.14043,-4.04023 3.1428,-5.11615 2.12604,-2.28205 2.41052,-5.35266 0.49588,-5.35266 -1.42151,0 -4.88634,2.63866 -8.90098,6.7786 -2.25776,2.32824 -2.79132,2.47455 -5.89679,1.6171 -3.01419,-0.83226 -4.10994,-0.59204 -9.34814,2.04937 -3.26355,1.64569 -6.24368,3.44924 -6.6225,4.00792 -1.11663,1.64675 -0.81538,5.97316 0.4544,6.52574 1.55336,0.676 13.71131,-0.36341 16.4703,-1.40808 z M 311.25,278.55229 c 0,-2.42004 -6.9069,-5.04149 -27.65625,-10.49667 -13.53974,-3.55972 -20.65725,-6.53769 -30.95099,-12.94989 -2.57071,-1.60135 -7.20526,-4.11246 -10.29901,-5.58022 -5.23951,-2.4858 -6.13898,-2.62529 -13.125,-2.03529 -7.62281,0.64377 -13.45937,2.33166 -12.24878,3.54225 0.36713,0.36713 3.2733,0.7306 6.45814,0.8077 6.55148,0.15862 12.83514,1.14931 14.22814,2.24325 2.21793,1.74176 29.00797,13.09187 35.29735,14.9544 6.42643,1.90311 11.04297,3.6714 15.17456,5.81233 5.55998,2.8811 23.12184,5.69301 23.12184,3.70214 z M 97.5,265.3125 c 0,-2.65625 -0.208331,-2.8125 -3.75,-2.8125 -4.653735,0 -4.981512,1.85942 -0.703125,3.98871 4.196569,2.08856 4.453125,2.0208 4.453125,-1.17621 z m 19.95843,-4.75516 c 1.55085,-0.7142 2.49234,-1.80363 2.314,-2.6776 -0.24979,-1.22412 -1.69988,-1.43998 -8.56854,-1.27548 -9.74801,0.23345 -12.356356,1.50354 -8.87827,4.32313 1.77688,1.44047 3.20795,1.69532 7.36188,1.31106 2.83594,-0.26235 6.33286,-1.01885 7.77093,-1.68111 z M 256.35309,243.5414 c 1.64054,-2.3422 1.96137,-6.3539 0.50813,-6.3539 -1.10513,0 -4.66505,5.5383 -4.67021,7.26562 -0.006,1.90586 2.58626,1.33807 4.16208,-0.91172 z m 55.1055,-0.38907 c 2.12663,-1.31432 -1.41368,-2.24905 -10.66147,-2.81488 -7.28574,-0.44578 -10.08065,-0.30641 -10.59659,0.52841 -0.38544,0.62364 -0.42172,1.41295 -0.0806,1.75404 1.71931,1.7193 18.73148,2.14378 21.3387,0.53243 z m -51.80636,-12.29296 c 2.36205,-2.84998 2.86312,-4.22411 2.64638,-7.25753 -0.19199,-2.68713 -0.72983,-3.82964 -1.90799,-4.05312 -0.90234,-0.17116 -1.64062,0.11137 -1.64062,0.62785 0,0.51647 -1.51389,3.48042 -3.3642,6.58655 -1.85031,3.10612 -3.09103,6.08948 -2.75717,6.62969 1.21677,1.96878 4.1772,0.90094 7.0236,-2.53343 z m 50.42589,-5.91502 c 5.38766,-1.88367 3.55318,-2.99713 -3.75,-2.2761 -7.14009,0.70492 -10.07812,1.70655 -10.07812,3.43579 0,1.2404 9.16075,0.47214 13.82812,-1.15969 z M 100.02228,223.1215 c 2.10604,-1.54879 4.47279,-3.7983 5.25945,-4.9989 1.62518,-2.48033 11.18972,-7.31698 18.90449,-9.55973 3.42553,-0.99582 5.18878,-2.00439 5.18878,-2.96797 0,-1.97451 -5.72736,-1.05227 -13.32543,2.14571 -7.25496,3.05357 -11.2816,5.63105 -17.377695,11.12357 -7.335713,6.60943 -6.297723,9.88182 1.350405,4.25732 z m 156.43346,-4.46398 c 1.77003,-1.23522 5.10676,-7.42371 5.10676,-9.4713 0,-3.06731 -2.62021,-2.39364 -4.07678,1.04815 -0.7092,1.67579 -2.19142,3.85054 -3.29383,4.83281 -1.10241,0.98225 -2.00439,2.35335 -2.00439,3.04687 0,1.34758 2.63515,1.68312 4.26824,0.54347 z m 47.11544,-2.63672 c 8.43825,-2.13151 13.30382,-4.19041 13.30382,-5.62959 0,-0.73079 -0.52734,-1.31009 -1.17188,-1.28734 -1.62976,0.0576 -9.40724,2.19039 -10.54687,2.8923 -0.51563,0.31759 -3.04688,0.88226 -5.625,1.25485 -6.13929,0.88723 -11.10053,2.9739 -10.26913,4.31916 0.72172,1.16777 5.67619,0.6313 14.30906,-1.54938 z M 86.887513,203.7789 c -1.800391,-3.53933 -3.552534,-7.38437 -3.893651,-8.54453 -0.694267,-2.36123 -3.306362,-2.90045 -3.306362,-0.68253 0,1.98993 5.352402,13.59305 7.224664,15.66188 3.234941,3.57457 3.22104,-0.0542 -0.02465,-6.43482 z m 219.666757,2.25377 c 6.85895,-3.23508 13.13323,-7.90897 13.13323,-9.78332 0,-2.04702 -2.03269,-1.48673 -12.47344,3.43815 -5.46562,2.57812 -10.36457,4.6875 -10.88654,4.6875 -0.52198,0 -1.38856,0.82122 -1.92574,1.82495 -0.76754,1.43417 -0.62403,2.02867 0.67015,2.77633 2.013,1.16292 3.68394,0.73456 11.48234,-2.94361 z m -51.12752,-0.36503 c 2.84602,-1.09212 5.86415,-9.73014 3.39971,-9.73014 -1.00631,0 -4.26468,5.15105 -5.18899,8.20312 -0.68914,2.27553 -0.52542,2.41526 1.78928,1.52702 z m 35.20941,-4.44481 c 6.40917,-1.34097 14.74516,-5.07622 16.76791,-7.51349 0.65589,-0.7903 3.05517,-2.52849 5.33173,-3.86265 4.30769,-2.52447 5.48015,-5.15919 2.29588,-5.15919 -2.95462,0 -30.46203,14.52682 -30.80354,16.26753 -0.16672,0.84973 -0.16656,1.54497 3.4e-4,1.54497 0.16691,0 3.05037,-0.57473 6.40768,-1.27717 z M 93.75,192.97299 c 0,-1.66125 -4.644222,-9.22299 -5.664519,-9.22299 -1.639335,0 -0.928641,5.33317 1.045063,7.84232 1.994863,2.53606 4.619456,3.3205 4.619456,1.38067 z m 218.90625,-15.84401 c 3.60909,-2.51591 9.59958,-8.37898 8.56108,-8.37898 -1.25991,0 -5.92744,2.49707 -7.62358,4.07851 -1.03125,0.96151 -3.45703,2.7628 -5.39063,4.00286 -1.93359,1.24006 -3.51562,2.69966 -3.51562,3.24356 0,1.43614 3.5825,0.11174 7.96875,-2.94595 z m -22.96673,-7.44291 c 1.5209,-1.08299 3.24044,-3.6527 4.06651,-6.0771 1.61124,-4.72872 0.64445,-6.33356 -2.2419,-3.72145 -1.8772,1.69885 -7.45163,9.96808 -7.45163,11.05393 0,1.25335 3.06375,0.56982 5.62702,-1.25538 z M 69.150679,159.49491 C 62.701088,150.58929 58.125,145.72714 58.125,147.77997 c 0,1.20353 4.253512,7.48185 7.362908,10.8679 3.135605,3.41457 6.002346,4.07753 3.662771,0.84704 z M 325.27597,148.11937 c 8.26004,-8.08014 11.04918,-11.85672 9.73052,-13.17538 -1.05664,-1.05664 -24.0111,21.38559 -23.20604,22.68822 0.87931,1.42274 5.97059,-2.17139 13.47552,-9.51284 z M 77.8125,155.7977 c 0,-1.57771 -8.813798,-9.54641 -9.642378,-8.71783 -1.175527,1.17554 1.6602,5.2384 5.270429,7.55117 3.206562,2.05417 4.371949,2.36516 4.371949,1.16666 z m 220.38468,-10.26316 c 3.26142,-6.15257 3.89274,-9.59704 1.75901,-9.59704 -0.93982,0 -8.39369,14.00472 -8.39369,15.77051 0,3.13518 3.35513,0.0133 6.63468,-6.17347 z M 71.25,144.03268 c 0,-1.86251 -3.659978,-6.22018 -5.224294,-6.22018 -2.097023,0 -1.573836,2.32118 1.133385,5.02841 2.737127,2.73713 4.090909,3.13152 4.090909,1.19177 z M 59.999541,130.31192 c -3.251679,-4.10558 -4.687041,-4.70934 -4.687041,-1.97154 0,2.09549 6.765222,8.3952 7.298265,6.79607 0.197105,-0.59131 -0.977947,-2.76235 -2.611224,-4.82453 z M 296.81522,128.9437 c 0.75284,-0.75283 1.9013,-2.63523 2.55214,-4.18311 0.65083,-1.54789 4.5399,-6.34249 8.64236,-10.65468 4.66953,-4.90823 9.21204,-10.93506 12.14653,-16.115504 2.57812,-4.551345 5.82997,-10.215006 7.22632,-12.585914 2.54867,-4.327465 3.39575,-8.529492 1.71945,-8.529492 -0.49389,0 -2.0357,2.003906 -3.42626,4.453125 -3.50314,6.170178 -16.26562,25.414505 -17.26339,26.031155 -1.48279,0.91642 -9.23126,11.54466 -11.06293,15.17454 -3.40718,6.75215 -3.63727,9.51294 -0.53422,6.40988 z m 29.77925,-1.31397 c 5.8354,-6.09085 21.21803,-29.435108 21.21803,-32.199908 0,-2.74577 -2.64504,-1.911424 -4.33386,1.367053 -1.7497,3.396705 -7.60831,12.323595 -13.68976,20.859375 -3.43038,4.81479 -7.28888,11.35508 -7.28888,12.3549 0,1.02197 1.88314,-0.0733 4.09447,-2.38142 z m -13.65449,-2.15079 c 4.0132,-3.97347 4.99989,-6.41644 2.59154,-6.41644 -1.48415,0 -8.03152,7.53023 -8.03152,9.23718 0,1.89882 1.41349,1.1659 5.43998,-2.82074 z M 50.625,121.0378 c 0,-0.97608 -0.632813,-2.01753 -1.40625,-2.31433 -1.50144,-0.57615 -1.75521,0.21381 -0.837198,2.6061 0.787202,2.05142 2.243448,1.86203 2.243448,-0.29177 z m 270.63508,-6.18543 c 7.51791,-10.2742 14.44959,-21.317118 14.0789,-22.429191 -0.78341,-2.350225 -2.41774,-0.911964 -6.56724,5.779365 -2.4783,3.996416 -5.95798,9.316176 -7.73262,11.821696 -3.17987,4.48949 -4.05971,7.16326 -2.35716,7.16326 0.4782,0 1.63835,-1.05081 2.57812,-2.33513 z M 32.8125,83.105647 c 0,-0.698145 -1.011098,-2.360348 -2.246887,-3.693785 -1.235787,-1.333436 -2.496447,-2.977072 -2.801466,-3.652522 -0.30502,-0.675449 -0.301656,0.248472 0.0075,2.05316 0.783419,4.573566 5.040878,9.044088 5.040878,5.293147 z" id="path4206"/>
</svg>