<?xml version="1.0" encoding="utf-8"?>
<svg viewBox="0 156 816 816" xmlns="http://www.w3.org/2000/svg">
  <defs>
    <clipPath clipPathUnits="userSpaceOnUse" id="clipPath831">
      <path d="M 0,792 H 612 V 0 H 0 Z" id="path829"/>
    </clipPath>
  </defs>
  <g id="g823" transform="matrix(1.3333332538604736, 0, 0, -1.3333332538604736, 0, 1056)">
    <g id="g825">
      <g id="g827" clip-path="url(#clipPath831)">
        <path d="m 420.934,792.265 c 0.245,-14.234 -3.979,-29.45 -11.382,-39.412 -10.525,-14.118 -23.901,-12.323 -30.185,4.48 -3.709,9.952 -4.563,22.868 -2.838,34.932 z m 64.261,0 c 1.585,-15.16 -4.354,-33.786 -14.909,-46.099 -8.282,-9.642 -17.285,-13.06 -24.102,-10.187 4.079,-14.41 -0.051,-33.823 -9.74,-45.144 -6.946,-8.11 -15.433,-9.96 -22.131,-5.966 6.495,-11.307 6.49,-26.531 -0.075,-34.53 -5.947,-7.214 -17.471,-5.89 -25.803,3.193 -8.48,9.295 -9.131,24.914 -1.732,34.55 5.773,7.502 13.835,8.865 20.547,4.558 -6.813,12.948 -3.697,34.911 6.73,48.6 7.046,9.234 15.378,11.948 22.149,8.671 -3.186,12.164 -1.376,28.632 4.256,42.354 z m 83.874,0 c -5.315,-4.107 -11.163,-6.204 -16.59,-6.185 2.372,-13.941 -4.333,-32.089 -16.756,-44.743 -8.178,-8.315 -16.814,-12.533 -23.926,-12.463 1.613,-13.478 -4.711,-30.784 -15.912,-42.152 -7.347,-7.46 -15.298,-10.718 -21.865,-9.837 3.234,-11.01 0.27,-24.798 -7.571,-33.147 -5.252,-5.596 -11.954,-7.291 -18.11,-5.383 5.733,-8.702 6.835,-19.143 2.555,-24.78 -2.975,-3.916 -8.79,-4.001 -15.296,-1.056 8.498,-7.238 13.513,-15.912 12.215,-19.787 -1.217,-3.591 -10.084,-0.695 -20.971,6.06 -10.855,6.744 -18.028,15.219 -15.363,19.396 2.154,3.356 8.267,3.32 14.938,0.29 -8.743,7.586 -11.749,18.654 -6.296,25.292 3.992,4.853 10.391,6.175 16.526,4.109 -5.842,9.72 -4.073,24.404 4.524,34.257 5.896,6.745 13.138,9.53 19.473,8.391 -3.175,12.905 2.44,31.787 13.797,44.732 7.18,8.169 15.08,11.984 21.827,11.582 -1.45,14.006 3.734,32.322 13.291,45.424 z m 42.732,-134.354 c -3.277,-7.216 -9.072,-14.515 -16.863,-20.517 -7.511,-5.791 -15.501,-9.37 -22.643,-10.622 0.903,-9.065 -4.228,-19.894 -13.81,-27.622 -5.919,-4.769 -12.477,-7.365 -18.489,-7.676 2.647,-7.664 0.603,-16.419 -5.343,-22.253 -3.781,-3.7 -8.545,-5.235 -13.305,-4.519 4.221,-6.82 4.993,-14.282 2.437,-18.741 -1.71,-2.963 -4.741,-3.599 -8.466,-1.932 5.281,-6.594 8.245,-13.799 8.298,-17.445 0.035,-2.794 -1.702,-2.644 -4.899,-0.096 5.825,-6.902 10.43,-14.579 11.882,-18.177 1.24,-3.123 -0.124,-2.439 -3.655,1.064 6.163,-7.456 11.647,-16.219 13.249,-20.477 1.559,-4.111 -1.307,-2.752 -6.968,2.696 0.216,-0.229 0.424,-0.443 0.64,-0.683 7.134,-7.854 13.217,-18.496 13.67,-23.737 0.474,-5.412 -6.298,-3.426 -14.871,4.353 -8.954,8.136 -14.729,19.111 -13.753,24.728 0.793,4.523 5.833,3.405 12.072,-2.415 -0.337,0.342 -0.673,0.681 -1.009,1.052 -8.012,8.538 -15.325,19.24 -16.487,23.84 -0.796,3.198 1.697,2.432 5.937,-1.357 -7.248,8.042 -14.505,16.67 -15.97,20.256 -0.979,2.432 1.061,1.936 4.704,-0.808 -6.777,7.298 -12.85,14.74 -12.906,18.111 -0.035,2.35 2.669,2.361 6.488,0.548 -5.93,6.925 -9.529,14.514 -7.165,18.523 1.722,2.921 5.606,3.713 10.091,2.85 -4.554,7.241 -4.762,16.032 0.803,21.751 3.808,3.91 9.172,5.844 14.621,5.969 -2.663,8.447 0.938,19.42 10.146,27.581 5.814,5.14 12.617,8.273 19.066,9.356 -0.574,10.376 6.461,24.053 18.671,34.607 7.024,6.062 14.551,9.979 21.477,11.626 0.763,12.141 8.856,27.388 21.162,38.397 0.396,0.353 0.791,0.698 1.188,1.033 z m 0,84.795 c -1.851,-2.49 -3.991,-4.869 -6.405,-7.075 -7.282,-6.67 -15.308,-10.645 -22.486,-11.859 0.381,-12.445 -7.179,-28 -19.848,-39.199 -7.921,-7.008 -16.23,-10.996 -23.341,-11.869 1.04,-10.883 -4.602,-24.285 -14.756,-33.46 -6.423,-5.777 -13.462,-8.635 -19.686,-8.523 3,-8.88 0.876,-19.389 -5.548,-26.023 -4.147,-4.272 -9.542,-5.757 -14.89,-4.55 5.127,-7.454 6.479,-15.848 3.639,-20.519 -1.902,-3.118 -5.827,-3.357 -10.752,-1.096 6.955,-6.848 11.282,-14.528 11.237,-18.012 -0.036,-2.698 -3.177,-1.804 -8.504,1.58 8.443,-7.049 15.332,-15.294 16.651,-18.683 1.249,-3.225 -3.11,-1.133 -10.686,4.35 0.5,-0.38 0.997,-0.77 1.51,-1.174 9.652,-7.693 18.168,-17.564 19.148,-21.899 1.012,-4.549 -6.799,-1.676 -17.033,6.46 -10.48,8.349 -19.037,18.418 -19.451,22.558 -0.329,3.325 5.416,1.481 13.375,-4.141 -0.625,0.464 -1.266,0.942 -1.909,1.454 -10.382,8.005 -19.991,16.792 -20.662,20.107 -0.457,2.313 3.582,1.381 9.417,-2.095 -9.233,7.275 -16.741,15.11 -15.838,18.493 0.678,2.507 4.816,2.35 10.024,0.028 -7.453,7.079 -11.257,15.589 -7.806,20.284 2.561,3.462 7.504,4.402 12.822,3.101 -5.327,8.016 -4.975,18.728 1.79,25.889 4.662,4.921 10.841,7.23 16.734,6.955 -2.939,10.088 1.605,24.102 11.885,34.313 6.523,6.484 13.898,10.127 20.506,10.769 -0.729,12.69 6.739,29.845 19.19,42.25 7.169,7.126 14.732,11.201 21.491,12.181 -0.184,14.068 6.387,31.358 17.127,42.241 3.129,3.167 6.406,5.399 9.694,6.723 h 23.361 z m 0,-418.168 c -3.464,-0.809 -8.401,-0.247 -13.221,1.54 6.775,-5.033 11.207,-10.675 8.805,-13.828 -2.799,-3.646 -12.623,-2.836 -19.58,2.115 -5.303,3.781 -6.764,10.479 -5.477,14.609 1.021,3.209 4.044,3.754 8.383,1.843 -4.457,4.263 -5.769,10.437 -4.38,14.252 1.092,2.952 4.163,3.663 8.396,2.319 -4.113,4.563 -5.411,10.337 -3.73,13.911 1.316,2.775 4.691,3.558 9.171,2.563 -4.087,4.769 -5.335,10.341 -3.108,13.781 1.716,2.63 5.539,3.483 10.443,2.781 -4.111,4.899 -5.082,10.361 -2.057,13.74 1.4,1.562 3.603,2.524 6.355,2.935 v -58.13 c -1.135,0.179 -2.289,0.421 -3.447,0.722 1.276,-1.012 2.434,-2.032 3.447,-3.039 z m 0,-37.668 c -3.336,3.093 -4.621,5.821 -3.381,7.489 0.601,0.814 1.764,1.314 3.381,1.514 z m 0,132.591 c -0.429,-1.372 -1.229,-2.638 -2.421,-3.749 -2.985,-2.776 -7.541,-3.915 -12.203,-3.341 3.607,-5.046 4.545,-10.297 1.845,-13.828 -2.208,-2.886 -5.922,-3.93 -9.637,-3.017 3.178,-4.968 4.481,-10.292 2.625,-13.827 -1.629,-3.091 -4.664,-4.11 -7.461,-2.819 2.514,-4.832 3.951,-10.29 2.631,-13.913 -1.254,-3.417 -3.852,-4.45 -5.672,-2.628 1.665,-4.549 3.084,-10.256 2.045,-14.063 -1.237,-4.46 -4.023,-4.932 -4.269,-0.918 -0.232,3.982 0.404,11.426 0.168,16.431 -0.178,3.739 -0.401,4.707 0.286,3.096 -0.81,4.792 -1.139,11.684 -1.4,16.17 -0.189,3.347 0.15,4.241 1.348,3.094 -1.546,5.176 -2.522,11.692 -2.499,15.819 0.011,3.034 1.068,3.914 2.924,3.04 -2.25,5.364 -3.548,11.606 -2.863,15.473 0.495,2.808 2.4,3.722 5.091,3.092 -2.79,5.44 -3.985,11.517 -2.222,15.243 1.267,2.679 4.148,3.698 7.785,3.368 -3.048,5.481 -3.565,11.517 -0.298,15.304 2.324,2.678 6.302,3.891 10.986,3.91 -2.941,5.603 -2.287,11.796 2.947,15.952 2.667,2.114 6.23,3.509 10.264,4.259 v -51.86 c -0.851,-0.037 -1.708,-0.039 -2.571,-0.004 1.25,-1.703 2.116,-3.426 2.571,-5.101 z m 0,167.935 c -0.166,-0.034 -0.33,-0.067 -0.495,-0.099 0.833,-7.89 -4.202,-17.084 -13.913,-23.912 -5.981,-4.208 -12.68,-6.707 -18.957,-7.374 2.21,-6.899 -0.274,-14.63 -6.8,-20.112 -4.156,-3.493 -9.172,-5.244 -14.066,-5.084 3.322,-6.317 3.062,-13.159 -0.426,-17.67 -2.332,-3.009 -5.612,-4.139 -9.137,-3.218 3.872,-6.162 5.259,-12.776 4.229,-16.719 -0.76,-2.903 -2.525,-3.551 -4.895,-1.944 3.9,-6.319 6.392,-13.219 6.962,-17.009 0.47,-3.138 -0.205,-3.424 -1.851,-1.217 3.565,-6.607 6.543,-14.063 7.863,-18.14 1.194,-3.633 1.001,-3.691 -0.684,-0.737 3.281,-6.853 6.252,-15.165 7.586,-19.787 1.346,-4.634 0.53,-4.089 -2.745,0.76 0.096,-0.151 0.191,-0.288 0.277,-0.452 4.006,-6.795 6.98,-16.694 7.7,-22.079 0.73,-5.461 -2.165,-4.329 -7.85,2.26 -6.399,7.385 -11.25,17.463 -10.163,23.129 0.934,4.865 5.006,4.349 8.937,-1.186 -0.185,0.302 -0.396,0.588 -0.593,0.913 -4.954,7.8 -10.015,18.385 -10.779,23.76 -0.538,3.835 0.937,3.734 3.35,0.327 -4.307,7.73 -9.217,16.819 -10.943,21.218 -1.199,3.096 -0.49,3.022 1.498,0.465 -4.452,7.358 -9.339,15.179 -10.776,18.987 -0.969,2.579 0.059,2.644 2.35,0.797 -4.623,6.9 -8.828,14.014 -8.776,17.637 0.034,2.484 2.137,2.891 5.173,1.736 -4.365,6.628 -6.821,13.769 -4.484,17.747 1.667,2.81 5.155,3.797 9.243,3.408 -3.558,6.756 -3.356,14.582 1.974,19.721 3.591,3.459 8.652,5.3 13.97,5.719 -2.199,7.499 1.182,16.751 9.969,23.708 5.474,4.312 12.007,7.116 18.462,8.358 -0.465,8.842 6.046,20.024 17.872,28.947 3.516,2.642 7.2,4.863 10.918,6.641 z m 0,-84.75 c -4.291,-2.179 -9.07,-3.433 -13.759,-3.711 2.855,-5.85 1.554,-12.15 -3.734,-16.633 -3.575,-3.025 -8.179,-4.516 -12.784,-4.291 3.252,-5.63 3.335,-11.59 0.247,-15.643 -2.226,-2.901 -5.416,-4.096 -8.729,-3.361 3.169,-5.596 4.158,-11.572 2.749,-15.423 -1.104,-3.005 -3.057,-4.023 -5.163,-2.832 2.663,-5.639 4.061,-11.837 3.763,-15.705 -0.266,-3.3 -1.245,-4.187 -2.323,-2.581 1.875,-5.653 3.267,-12.189 3.564,-16.26 0.261,-3.755 0.055,-4.537 -0.327,-2.403 1.007,-5.533 2.016,-12.539 2.507,-16.956 0.582,-5.193 1.209,-5.198 0.463,0.286 -0.791,5.913 -3.153,15.349 -4.061,20.779 -0.664,3.971 -0.576,4.496 -0.068,1.988 -1.373,6.384 -3.784,14.698 -5.131,19.422 -0.978,3.423 -1.062,3.962 -0.278,2.091 -2.086,6.466 -4.835,13.966 -6.019,18.192 -0.842,2.971 -0.479,3.494 0.903,2.109 -2.806,6.356 -5.591,13.267 -5.91,17.165 -0.213,2.684 1.105,3.312 3.323,2.371 -3.25,6.187 -5.479,12.829 -4.221,16.616 0.876,2.651 3.446,3.533 6.736,3.06 -3.253,6.113 -4.104,12.821 -0.706,16.927 2.365,2.836 6.307,4.137 10.807,4.232 -2.755,6.29 -1.521,13.498 4.602,18.457 4.01,3.248 9.401,5.162 15.131,5.884 -1.726,6.854 2.066,15.029 11.2,21.292 2.251,1.54 4.679,2.879 7.218,4.017 z m -226.66,241.809 c 6.368,-15.371 4.701,-36.484 -3.585,-47.514 -7.666,-10.171 -19.897,-8.54 -26.991,4.24 -7.545,13.657 -6.455,35.902 2.046,48.804 8.921,13.488 21.749,10.768 28.53,-5.53 m -25.972,47.81 c -0.241,-11.482 -2.919,-22.446 -7.648,-29.808 -8.584,-13.335 -21.25,-9.869 -28.8,8.341 -2.678,6.503 -4.5,13.937 -5.424,21.467 z M 395.05,647.388 c 8.58,-8.431 12.661,-19.073 9.258,-24.076 -3.004,-4.395 -13.657,-2.501 -24.023,4.312 -10.264,6.761 -14.722,17.274 -10.097,23.354 5.124,6.701 16.159,4.949 24.862,-3.59 m -67.551,105.35 c 7.389,-16.488 7.737,-37.724 0.908,-48.087 -6.425,-9.69 -18.33,-7.094 -26.157,6.816 -8.449,15.076 -9.433,38.279 -2.456,50.591 7.252,12.758 19.802,8.269 27.705,-9.32 m 32.39,-62.279 c 7.397,-11.463 9.332,-26.047 3.914,-33.211 -4.95,-6.508 -16.497,-5.104 -25.237,3.909 -9.024,9.306 -10.732,25.02 -4.515,34.15 6.675,9.788 18.011,7.262 25.838,-4.848 m -61.828,101.806 c -0.565,-6.55 -2.053,-12.351 -4.432,-16.646 -7.026,-12.664 -19.671,-7.327 -29.223,12.443 -0.662,1.375 -1.297,2.778 -1.903,4.203 z M 344.479,653.08 c 9.168,-8.021 14.414,-17.526 11.228,-21.991 -2.945,-4.092 -14.367,-2.838 -25.084,3.358 -10.596,6.142 -15.193,16.544 -10.9,22.516 4.622,6.395 15.412,4.265 24.756,-3.883 m -103.68,124.966 c 5.898,11.99 19.073,5.738 28.668,-13.405 9.011,-18.004 11.332,-40.141 5.576,-50.235 -5.49,-9.602 -17.423,-5.593 -26.534,10.206 -9.884,17.221 -13.459,41.719 -7.71,53.434 M 434.078,594.525 c 10.674,-6.671 19.064,-15.007 19.512,-18.178 0.446,-3.236 -8.335,0.082 -20.269,6.832 -11.973,6.781 -21.53,14.229 -20.72,17.281 0.884,3.21 10.784,0.736 21.477,-5.935 M 232.84,792.265 c -3.821,-7.362 -10.758,-6.856 -18.492,0 z m 73.951,-95.469 c 8.007,-12.117 11.113,-26.629 6.277,-33.522 -4.541,-6.425 -16.152,-4.879 -25.056,4.72 -9.42,10.175 -12.028,26.978 -6.659,36.037 5.684,9.548 16.817,5.77 25.438,-7.235 m 80.737,-74.266 c 10.543,-6.444 17.894,-14.304 16.716,-17.603 -1.122,-3.083 -11.668,-0.768 -23.853,4.891 -11.98,5.562 -19.555,12.965 -16.925,16.801 2.877,4.17 13.625,2.303 24.062,-4.089 M 199.735,792.265 c 2.828,-3.212 5.661,-7.14 8.356,-11.721 11.474,-19.522 16.093,-43.003 11.288,-52.966 -4.667,-9.601 -17.223,-3.616 -28.624,14.543 -10.529,16.818 -17.013,37.789 -15.511,50.144 z m 79.484,-154.351 c -10.446,6.31 -14.896,17.666 -10.786,23.926 4.326,6.561 14.982,3.871 24.676,-4.571 9.343,-8.143 14.86,-17.39 11.465,-21.922 -3.251,-4.311 -14.977,-3.688 -25.355,2.567 m 161.61,-72.381 c -12.278,7.465 -22.11,15.804 -21.803,19.193 0.3,3.15 10.221,0.613 21.926,-6.198 11.607,-6.76 21.266,-15.551 21.556,-19.273 0.304,-4.028 -9.524,-1.086 -21.679,6.278 M 236.455,675.549 c -10.13,12.178 -14.213,30.923 -9.607,40.088 4.812,9.506 16.429,4.093 26.187,-10.657 8.935,-13.546 12.986,-29.084 8.561,-36.146 -4.25,-6.715 -15.836,-4.439 -25.141,6.715 m 92.12,-59.826 c -12.166,4.488 -19.208,11.506 -16.183,15.523 3.164,4.209 14.226,2.72 25.195,-2.764 11.175,-5.566 19.016,-12.32 17.186,-15.492 -1.808,-3.101 -13.664,-1.875 -26.198,2.733 m 56.355,-21.546 c -13.18,5.648 -22.68,12.15 -21.132,15.203 1.576,3.06 12.652,1.327 24.75,-4.172 12.234,-5.583 21.781,-12.85 21.339,-15.922 -0.499,-3.273 -11.658,-0.815 -24.957,4.891 m 110.896,-68.159 c 9.845,-7.915 17.456,-18.7 16.346,-23.886 -1.227,-5.641 -11.636,-3.661 -22.041,4.409 -10.557,8.201 -16.793,19.381 -15.034,24.955 1.591,5.003 10.606,2.645 20.729,-5.478 m -299.329,190.64 c 10.732,-15.735 16.16,-33.283 12.225,-40.66 -3.813,-7.13 -15.707,-3.224 -26.428,10.491 -11.829,15.133 -18.472,36.15 -14.584,45.273 4.008,9.353 17.097,2.055 28.787,-15.104 m 196.95,-127.741 c 13.15,-5.865 22.953,-14.411 21.681,-18.522 -1.441,-4.58 -13.376,-2.273 -26.551,4.448 -13.233,6.757 -22.9,14.449 -21.405,18.067 1.407,3.324 13.17,1.838 26.275,-3.993 m 54.739,-29.082 c 11.783,-7.334 20.486,-17.595 18.915,-22.524 -1.773,-5.492 -13.204,-3.321 -24.693,4.695 -11.653,8.137 -19.605,18.427 -18.131,23.213 1.339,4.274 11.954,2.061 23.909,-5.384 m -303.221,232.43 c 11.462,-18.244 16.905,-38.36 13.347,-46.891 -3.931,-9.393 -18.032,-1.25 -32.762,18.483 -7.018,9.415 -12.863,19.447 -16.67,28.408 z M 336.519,610.68 c 12.88,-4.419 22.344,-10.783 20.854,-14.024 -1.624,-3.458 -14.149,-2.087 -27.852,2.379 -13.369,4.374 -22.074,10.14 -19.7,13.454 2.375,3.282 14.154,2.5 26.698,-1.809 m -51.423,19.573 c 10.953,-5.226 18.33,-11.431 15.785,-14.86 -2.56,-3.405 -14.772,-3.31 -26.647,0.786 -11.516,3.986 -17.607,11.567 -14.304,16.06 3.413,4.597 14.338,3.175 25.166,-1.986 m -44.133,30.537 c 9.442,-9.165 14.959,-19.239 11.443,-24.185 -3.428,-4.798 -14.979,-4.144 -24.87,3.195 -10.421,7.723 -15.201,21.015 -11.428,27.72 3.913,6.937 14.724,3.098 24.855,-6.73 m -107.215,72.334 c 13.761,-18.037 21.491,-37.967 18.17,-45.597 -3.276,-7.419 -16.426,-1.091 -30.163,15.569 -14.845,18.047 -24.878,40.334 -21.498,48.97 3.455,8.758 18.883,0.191 33.491,-18.942 M 337.647,593.128 c 13.757,-4.742 23.249,-12.727 21.125,-17.044 -2.328,-4.676 -15.135,-2.954 -28.867,2.705 -13.62,5.609 -22.912,12.189 -20.62,15.866 2.192,3.484 14.828,3.133 28.362,-1.527 m 58.256,-25.586 c 12.741,-6.935 20.61,-17.537 17.496,-23.059 -3.391,-5.962 -15.655,-4.003 -27.406,3.92 -11.972,8.075 -20,18.068 -17.575,22.995 2.248,4.531 14.617,3.147 27.485,-3.856 M 536.771,466.955 c 8.208,-7.434 13.689,-18.163 12.206,-23.616 -1.576,-5.728 -11.451,-4.177 -21.711,3.053 -10.588,7.499 -15.603,18.073 -11.975,24.13 3.393,5.623 12.826,4.246 21.48,-3.567 M 187.294,666.139 c 10.28,-11.242 16.259,-23.253 12.926,-28.711 -3.284,-5.33 -14.678,-3.491 -24.981,6.038 -11.325,10.499 -17.736,26.397 -14.476,33.472 3.353,7.266 15.188,1.573 26.531,-10.799 m 44.82,-37.169 c 10.273,-5.817 16.877,-12.362 13.902,-16.23 -2.989,-3.849 -14.701,-4.317 -25.396,0.31 -10.707,4.643 -16.218,13.84 -12.973,18.875 3.32,5.125 13.941,2.971 24.467,-2.955 M 495.028,500.496 c 10.297,-7.731 16.384,-18.792 12.748,-24.48 -3.924,-6.106 -16.986,-4.874 -27.902,2.69 -10.852,7.533 -15.066,18.87 -10.626,25.224 4.143,5.903 15.315,4.415 25.78,-3.434 M 82.099,792.265 c 5.935,-10.817 8.503,-20.918 6.416,-26.101 -3.51,-8.649 -19.618,0.394 -37.198,18.441 -2.497,2.569 -4.846,5.133 -7.02,7.66 z M 448.038,534.682 c 11.201,-7.827 17.52,-19.116 13.445,-25.042 -4.404,-6.355 -17.218,-5.015 -27.665,3.069 -10.541,8.185 -15.67,19.876 -12.077,25.985 3.342,5.644 14.941,3.925 26.297,-4.012 m -167.302,75.331 c 12.433,-3.593 21.084,-9.098 18.813,-12.529 -2.392,-3.563 -15.228,-3.456 -28.265,-0.078 -12.529,3.237 -19.891,8.897 -17.01,12.615 2.884,3.687 14.461,3.446 26.462,-0.008 M 61.386,752.286 c 17.319,-18.536 28.092,-39.935 25.243,-47.465 -2.809,-7.401 -18.459,1.191 -36.133,19.41 -18.017,18.561 -30.366,38.77 -27.004,46.295 3.415,7.523 20.654,0.21 37.894,-18.24 M 436.612,503.921 c 10.368,-7.697 14.737,-18.65 9.011,-24.639 -5.867,-6.11 -19.19,-5.235 -28.843,2.254 -9.607,7.483 -12.705,18.996 -7.612,25.35 4.974,6.173 17.021,4.756 27.444,-2.965 M 578.495,385.174 c 0.475,-5.122 0.753,-13.106 1.136,-18.123 0.389,-5.092 1.294,-5.569 0.482,-0.805 -0.901,5.349 -3.279,14.126 -3.295,19.488 -0.011,5.299 1.169,4.923 1.677,-0.56 M 225.15,604.446 c 11.196,-3.623 18.606,-8.731 15.894,-12.363 -2.786,-3.695 -14.856,-4.587 -26.327,-1.437 -11.094,3.044 -17.243,9.659 -14.287,13.796 2.962,4.138 13.76,3.553 24.72,0.004 M 566.941,411.134 c 5.146,-6.18 7.867,-15.795 7.569,-21.109 -0.313,-5.388 -5.256,-4.419 -12.655,1.682 -8.504,7.022 -14.013,16.462 -11.252,21.957 2.666,5.282 10.485,4.48 16.338,-2.53 M 390.359,538.443 c 11.149,-7.904 16.301,-19.544 11.574,-25.719 -4.887,-6.339 -16.794,-4.71 -26.628,3.604 -10.118,8.569 -15.69,20.155 -12.095,26.089 3.461,5.663 15.759,4.094 27.149,-3.974 M 531.06,441.117 c 10.144,-6.88 15.684,-17.17 12.526,-22.464 -3.307,-5.508 -16.064,-4.068 -28.34,2.721 -12.463,6.911 -17.822,16.71 -12.494,22.387 5.142,5.472 17.726,4.524 28.308,-2.644 M 10.133,792.265 c 1.562,-4.098 1.872,-7.771 0.641,-10.268 C 9.211,778.871 5.285,778.314 0,779.569 v 12.696 z M 336.715,570.168 c 13.309,-6.196 21.15,-16.545 17.942,-22.033 -3.376,-5.744 -15.633,-3.591 -28.143,3.722 -12.666,7.416 -21.375,16.061 -18.753,20.658 2.509,4.356 15.611,3.835 28.954,-2.347 m -58.84,20.54 c 13.407,-3.498 22.471,-10.278 20.014,-14.439 -2.596,-4.366 -15.701,-3.622 -29.285,0.478 -13.148,3.97 -21.362,9.473 -18.645,13.198 2.663,3.614 14.967,4.134 27.916,0.763 m -148.889,85.545 c 12.685,-14.092 20.257,-28.869 17.37,-34.753 -2.876,-5.746 -15.05,-1.646 -27.601,10.999 -13.942,14.023 -23.495,32.557 -20.744,39.749 2.867,7.293 17.019,-0.484 30.975,-15.995 M 483.114,471.84 c 11.134,-7.162 16.449,-17.527 11.077,-23.073 -5.57,-5.719 -20.378,-4.767 -32.013,2.111 -11.289,6.69 -14.82,17.129 -8.902,23.182 5.794,5.903 18.783,4.888 29.838,-2.22 M 179.451,627.742 c 10.112,-7.496 16.386,-15.547 13.418,-19.88 -2.967,-4.307 -14.016,-4.112 -24.131,2.242 -10.811,6.806 -16.988,18.417 -14.116,23.902 2.948,5.565 13.905,1.836 24.829,-6.264 m -7.357,-30.328 c 10.13,-4.88 16.573,-10.631 13.851,-14.494 -2.788,-3.864 -13.603,-4.671 -23.693,-0.406 -10.351,4.395 -16.39,12.946 -13.756,17.424 2.667,4.492 13.077,2.528 23.598,-2.524 M 416.991,472.141 c 9.822,-6.979 13.652,-16.578 7.829,-21.826 -5.761,-5.165 -18.59,-4.321 -27.915,2.266 -9.111,6.454 -11.773,16.577 -6.552,22.17 5.284,5.632 16.948,4.267 26.638,-2.61 m -207.842,96.431 c -11.532,2.795 -18.218,8.247 -15.454,12.082 2.74,3.784 13.824,4.32 25.291,1.665 11.982,-2.771 19.984,-8.202 17.373,-12.126 -2.707,-4.018 -15.095,-4.556 -27.21,-1.621 M 60.917,692.124 c 16.653,-16.61 27.269,-34.166 24.839,-40.236 -2.427,-5.972 -17.007,0.88 -33.731,16.51 -17.942,16.772 -31.11,36.246 -28.525,43.082 2.678,6.884 19.765,-1.796 37.417,-19.356 M 0,746.678 C 7.435,737.153 11.352,728.326 9.7,724.138 8.591,721.382 5.072,721.12 0,722.785 Z M 124.564,630.456 c 11.622,-10.197 18.798,-20.751 16.186,-25.446 -2.62,-4.642 -13.862,-2.487 -25.319,6.628 -12.761,10.173 -21.539,24.577 -19.129,30.328 2.485,5.814 15.33,-0.165 28.262,-11.51 M 579.391,346.125 c 0.544,-3.847 1.991,-10.232 0.976,-14.439 -1.021,-4.24 -2.997,-5.003 -2.482,-1.871 0.537,3.234 1.791,9.772 1.808,14.563 0.036,4.744 -0.811,5.435 -0.302,1.747 m 0.987,17.414 c 0.473,-4.39 -0.143,-11.641 -0.113,-16.473 0.028,-4.88 0.783,-5.694 -0.411,-1.689 -1.471,4.889 -4.253,12.867 -3.45,17.972 0.801,5.048 3.46,5.068 3.974,0.19 m -116.681,79.993 c 12.062,-6.507 17.754,-15.722 12,-20.616 -5.767,-4.886 -21.073,-3.746 -33.308,2.551 -11.646,6.005 -15.718,15.123 -9.906,20.238 5.896,5.157 19.535,4.12 31.214,-2.173 m -87.426,61.064 c 9.344,-7.918 12.784,-18.846 7.672,-24.559 -5.089,-5.663 -16.097,-4.253 -24.483,3.44 -8.646,7.949 -12.42,19.36 -8.273,25.267 4.131,5.85 15.477,3.992 25.084,-4.148 m -82.567,44.246 c -2.896,-5.095 -15.567,-3.36 -28.931,2.337 -13.129,5.603 -21.749,12.296 -19.069,16.453 2.61,4.033 15.453,4.528 28.735,-0.098 13.581,-4.743 22.06,-13.736 19.265,-18.692 M 564.265,387.16 c 6.915,-5.692 10.069,-14.825 8.897,-19.864 -1.207,-5.105 -8.19,-4.129 -17.466,1.744 -10.736,6.798 -17.52,15.715 -13.862,20.697 3.61,4.859 14.323,4.085 22.431,-2.577 m -45.99,28.258 c 12.391,-6.488 18.891,-16.043 14.839,-20.889 -4.143,-4.934 -18.923,-3.255 -33.009,3.34 -14.041,6.577 -20.524,15.537 -14.898,20.42 5.621,4.848 20.373,3.759 33.068,-2.871 m -199.92,104.107 c -11.044,8.533 -18.399,18.98 -15.397,24.281 2.938,5.144 15.694,3.891 27.661,-3.94 11.693,-7.655 17.315,-19.243 13.425,-25.059 -3.953,-5.871 -15.02,-3.505 -25.689,4.718 M 0,690.467 C 8.786,680.522 13.698,671.846 12.301,668.122 11.251,665.329 6.693,665.768 0,668.705 Z M 307.208,486.106 c -9.566,8.358 -15.608,19.154 -12.541,24.445 3.082,5.245 14.663,3.185 24.905,-5.2 9.795,-8.038 13.993,-18.988 10.217,-24.232 -3.752,-5.164 -13.52,-2.929 -22.581,4.987 m 88.554,-42.777 c 9.605,-6.101 13.979,-14.197 9.151,-18.5 -4.699,-4.168 -16.464,-3.138 -25.743,2.625 -8.952,5.574 -12.313,14.05 -7.955,18.566 4.49,4.628 15.236,3.209 24.547,-2.691 M 119.676,593.375 c 10.709,-7.167 17.427,-14.832 15.031,-18.843 -2.415,-4.004 -12.836,-3.253 -23.364,3.269 -11.594,7.188 -19.548,18.217 -17.36,22.883 2.212,4.71 13.874,0.59 25.693,-7.309 m 457.97,-265.518 c -0.332,-2.923 0.402,-8.612 -0.556,-12.545 -0.975,-3.951 -2.415,-4.989 -1.468,-2.717 1.016,2.448 2.649,8.032 3,12.516 0.356,4.453 -0.636,5.697 -0.976,2.746 m -318.38,192.892 c -12.593,7.128 -21.184,15.391 -18.564,19.955 2.58,4.474 15.501,4.179 28.387,-2.213 12.92,-6.406 20.277,-16.96 17.347,-22.143 -2.968,-5.211 -14.655,-2.687 -27.17,4.401 m -55.682,23.306 c -11.915,3.57 -19.11,9.025 -16.52,12.894 2.568,3.801 13.931,4.752 25.862,1.718 12.536,-3.211 20.869,-10.037 18.318,-14.364 -2.621,-4.4 -15.089,-3.995 -27.66,-0.248 M 61.366,639.778 c 15.367,-13.297 25.221,-26.822 23.047,-31.713 -2.181,-4.831 -15.466,0.051 -30.773,12.407 -16.887,13.638 -29.721,30.319 -27.583,36.074 2.19,5.801 18.456,-2.199 35.309,-16.768 M 557.849,363.63 c 8.879,-5.493 12.987,-14.028 11.282,-18.67 -1.735,-4.684 -10.325,-3.562 -21.286,2.295 -12.626,6.75 -20.953,15.362 -17.163,19.722 3.778,4.332 16.696,3.12 27.167,-3.347 m 22.191,-21.796 c 0.843,-3.614 -0.338,-10.079 -0.699,-14.616 -0.363,-4.569 -0.017,-5.592 -1.652,-2.347 -2.266,4.505 -5.621,11.679 -4.269,16.393 1.341,4.675 5.59,4.968 6.62,0.57 M 164.732,571.05 c 10.248,-3.348 16.899,-8.338 14.354,-12.112 -2.599,-3.816 -13.336,-4.855 -23.494,-1.637 -10.048,3.193 -15.993,9.839 -13.564,13.78 2.454,3.909 12.477,3.297 22.704,-0.031 M 442.758,417.933 c 12.691,-6.02 19.414,-14.195 14.326,-18.327 -5.017,-4.039 -19.866,-2.513 -32.386,3.423 -11.754,5.584 -16.871,13.542 -12.11,17.682 4.913,4.244 18.121,2.93 30.17,-2.778 m -106.879,57.629 c 3.924,5.157 13.909,3.177 22.288,-4.043 8.18,-7.067 11.397,-16.258 6.999,-20.986 -4.307,-4.592 -14.257,-3.346 -22.006,3.248 -7.892,6.73 -11.132,16.682 -7.281,21.781 M 589.182,313.137 c 7.484,-4.833 13.602,-11.386 11.323,-14.821 -2.278,-3.41 -11.196,-2.657 -17.534,1.785 -4.633,3.258 -5.672,9.165 -4.507,13.01 1.167,3.827 4.978,3.717 10.718,0.026 m -86.906,78.179 c 14.336,-6.373 22.339,-15.278 18.228,-19.557 -4.137,-4.28 -19.938,-2.133 -35.332,4.504 -15.097,6.514 -22.936,14.835 -17.963,18.904 5.065,4.115 20.684,2.538 35.067,-3.851 m 81.404,-93.153 c 6.764,-4.309 12.622,-10.368 10.74,-13.524 -1.876,-3.15 -10.148,-2.403 -16.133,1.557 -4.208,2.789 -5.004,7.894 -3.887,11.415 1.115,3.509 4.308,3.716 9.28,0.552 m -8.643,11.706 c -0.807,-2.016 -0.658,-6.947 -1.644,-10.549 -0.998,-3.615 -2.137,-4.892 -1.035,-3.421 1.26,1.661 3.085,6.277 3.749,10.374 0.655,4.079 -0.206,5.768 -1.07,3.596 m 2.575,10.592 c 1.3,-2.82 -0.099,-8.496 -0.789,-12.652 -0.692,-4.173 -0.865,-5.376 -2.796,-2.833 -3.065,4.052 -6.884,10.535 -5.303,14.809 1.589,4.246 7.047,4.687 8.888,0.676 M 198.033,516.123 c -12.211,4.763 -19.919,10.95 -17.53,14.925 2.379,3.916 13.965,4.537 26.207,0.325 12.842,-4.409 21.255,-12.706 18.847,-17.18 -2.442,-4.512 -14.714,-3.058 -27.524,1.93 m -83.944,45.628 c 9.97,-5.134 16.302,-11.135 14.116,-14.792 -2.228,-3.658 -11.922,-3.67 -21.713,1.185 -10.547,5.233 -17.792,13.813 -15.793,17.759 2.016,3.953 12.619,1.386 23.39,-4.152 m 497.712,-292.25 c -7.557,4.717 -11.352,9.155 -9.875,11.413 1.055,1.611 4.659,1.815 9.875,0.75 z m -125.092,99.64 c 15.666,-6.513 25.22,-14.996 21.612,-18.765 -3.6,-3.717 -19.65,-1.023 -35.834,5.815 -15.669,6.634 -24.703,14.571 -20.763,18.012 4.042,3.504 19.546,1.354 34.985,-5.062 M 366.004,405.55 c -8.971,4.997 -13.469,12.186 -10.299,15.83 3.28,3.74 13.053,2.309 22.212,-2.853 9.532,-5.379 14.801,-12.372 11.305,-15.932 -3.403,-3.439 -13.933,-2.212 -23.218,2.955 M 0,640.57 C 10.777,630.491 17.109,621.756 15.771,618.327 14.683,615.558 8.698,616.712 0,620.874 Z M 329.638,428.231 c -7.762,5.542 -11.41,13.756 -8.315,17.887 3.176,4.212 12.009,2.361 19.88,-3.614 7.816,-5.954 11.717,-13.464 8.462,-17.273 -3.178,-3.695 -12.244,-2.543 -20.027,3 m 219.938,-87.252 c 10.612,-5.516 15.831,-13.47 13.959,-17.681 -1.909,-4.219 -11.501,-2.898 -23.68,3.052 -13.954,6.823 -23.693,15.282 -20.314,19.105 3.403,3.823 17.6,1.973 30.035,-4.476 M 295.791,455.232 c -8.623,7.244 -13.936,17.032 -11.17,21.722 2.815,4.719 12.958,2.316 21.897,-5.366 8.441,-7.276 12.327,-16.492 9.209,-20.811 -3.078,-4.221 -11.807,-2.366 -19.936,4.455 m -138.538,90.181 c 10.421,-2.874 17.378,-8.153 15.028,-11.991 -2.385,-3.881 -13.112,-4.505 -23.428,-1.422 -9.916,2.972 -15.886,8.704 -13.642,12.37 2.239,3.635 11.959,3.806 22.042,1.043 m 95.34,-57.323 c -11.86,7.738 -20.187,16.905 -17.739,21.513 2.449,4.574 14.895,3.192 26.982,-4.337 11.793,-7.356 18.219,-17.886 15.502,-22.651 -2.717,-4.729 -13.279,-2.001 -24.745,5.475 M 410.992,382.866 c -11.597,5.343 -17.665,12.51 -14.19,15.938 3.594,3.523 15.761,1.924 27.833,-3.465 12.884,-5.753 20.696,-13.228 16.702,-16.729 -3.911,-3.403 -17.876,-1.485 -30.345,4.256 M 61.2,595.771 c 13.901,-10.129 22.836,-20.393 20.865,-24.456 -1.961,-4.05 -13.964,-0.818 -27.781,8.63 -15.44,10.562 -27.387,24.076 -25.509,28.802 1.916,4.753 16.922,-1.697 32.425,-12.976 M 0,596.274 C 12.352,586.792 19.87,578.438 18.568,575.298 17.459,572.656 10.264,574.208 0,578.98 Z M 571.367,292.399 c -0.96,-1.179 -1.224,-5.311 -2.248,-8.543 -1.036,-3.238 -2.071,-4.689 -1.016,-3.951 1.301,0.922 3.218,4.55 4.106,8.212 0.891,3.649 0.299,5.661 -0.842,4.282 M 165.768,505.357 c -2.14,-3.857 -12.875,-3.692 -23.433,-0.086 -9.943,3.394 -16.053,8.925 -14.045,12.433 2.01,3.48 11.483,3.814 21.569,0.764 10.661,-3.225 18.023,-9.272 15.909,-13.111 m 446.033,-251.46 c -10.966,5.645 -17.119,11.299 -15.634,13.809 1.188,2.023 7.171,1.436 15.634,-1.345 z m -38.291,45.815 c 1.578,-2.096 0.262,-6.896 -0.656,-10.616 -0.946,-3.727 -1.574,-5.166 -3.589,-3.249 -3.628,3.456 -7.717,9.346 -6.12,13.17 1.611,3.807 7.67,4.228 10.365,0.695 m -172.174,64.265 c -11.234,5.168 -17.851,11.773 -15.495,14.781 2.423,3.058 13.364,1.298 25.143,-3.91 12.732,-5.636 21.389,-12.717 18.478,-15.773 -2.872,-2.976 -15.884,-0.727 -28.126,4.902 m 156.03,-61.62 c -1.808,-3.781 -11.814,-2.288 -24.646,3.744 -14.677,6.906 -25.49,15.32 -22.773,18.727 2.772,3.412 17.456,0.905 31.2,-5.636 11.82,-5.634 18.013,-13.056 16.219,-16.835 M 192.729,485.556 c -12.441,5.744 -20.624,12.77 -18.492,16.722 2.14,3.916 13.817,3.66 26.265,-1.75 12.88,-5.596 21.305,-14.523 19.152,-18.782 -2.173,-4.253 -14.081,-2.123 -26.925,3.81 m 53.032,-29.377 c -11.22,7.282 -19.265,16.303 -17.106,20.576 2.183,4.266 13.837,2.164 25.13,-5.335 10.727,-7.138 16.712,-16.419 14.44,-20.482 -2.273,-4.003 -11.878,-1.621 -22.464,5.241 M 107.942,532.82 c 9.402,-3.997 15.494,-9.309 13.54,-12.765 -1.981,-3.462 -11.099,-3.599 -20.336,0.386 -9.695,4.184 -16.374,11.16 -14.586,14.628 1.806,3.458 11.493,1.947 21.382,-2.249 m -48.024,25.468 c 12.538,-7.626 20.58,-15.617 18.823,-19.136 -1.771,-3.502 -12.551,-1.408 -25.012,5.813 -13.949,8.103 -24.878,18.852 -23.193,22.769 1.719,3.922 15.358,-0.913 29.382,-9.446 M 357.831,385.35 c -8.993,4.674 -14.653,11.071 -12.584,14.195 2.123,3.181 11.096,1.786 20.199,-2.931 9.399,-4.876 15.383,-11.204 13.082,-14.296 -2.264,-3.017 -11.573,-1.701 -20.697,3.032 m 140.295,-55.398 c -2.85,-3.302 -18.684,-0.086 -35.264,7.039 -15.933,6.853 -25.893,14.607 -22.976,17.63 2.986,3.064 17.891,0.397 33.849,-6.209 16.397,-6.793 27.259,-15.104 24.391,-18.46 m 80.312,-46.426 c 6.343,-3.81 12.044,-9.414 10.476,-12.29 -1.575,-2.864 -9.398,-2.043 -15.273,1.476 -4.015,2.406 -4.772,6.722 -3.677,9.885 1.108,3.153 3.988,3.629 8.474,0.929 M 320.025,405.8 c -8.083,4.714 -12.578,11.524 -10.287,14.902 2.343,3.427 10.485,1.854 18.415,-3.103 8.039,-5.031 12.977,-11.413 10.831,-14.621 -2.117,-3.138 -10.686,-1.995 -18.959,2.822 m -34.052,22.263 c -8.195,5.857 -13.363,14.073 -11.089,17.994 2.314,3.963 11.28,1.761 19.529,-4.588 7.833,-6.036 12.113,-13.453 9.769,-16.962 -2.317,-3.443 -10.395,-2.021 -18.209,3.556 m 325.828,-188.785 -0.314,0.144 c -13.601,6.267 -21.83,12.745 -20.479,15.317 1.201,2.234 9.478,0.718 20.793,-3.844 z M 0,556.608 c 13.194,-8.351 21.44,-15.93 20.189,-18.77 -1.094,-2.449 -9.043,-0.832 -20.189,3.938 z m 114.932,-64.051 c -1.719,-3.268 -10.378,-3.057 -19.237,0.697 -9.046,3.851 -15.328,9.867 -13.783,12.99 1.568,3.107 10.474,2.117 19.682,-1.557 8.995,-3.608 15.026,-8.858 13.338,-12.13 m 452.7,-221.28 c -1.078,-3.255 -2.049,-5.002 -3.947,-3.676 -3.846,2.701 -7.927,7.988 -6.454,11.378 1.505,3.374 7.653,3.686 10.931,0.805 1.645,-1.456 0.551,-5.26 -0.53,-8.507 m -172.747,74.315 c -10.89,5.025 -17.669,11.126 -16.075,13.865 1.617,2.749 11.419,0.977 22.769,-4.09 12.452,-5.565 21.717,-12.461 19.682,-15.205 -2.021,-2.699 -14.301,-0.135 -26.376,5.43 m -41.051,19.814 c -8.664,4.341 -15.26,10.354 -14.07,13.262 1.208,2.899 9.588,1.592 18.498,-2.824 8.959,-4.447 15.168,-10.295 13.679,-13.084 -1.495,-2.769 -9.661,-1.577 -18.107,2.646 m -39.761,19.466 c -8.734,4.347 -14.177,10.253 -12.538,13.146 1.665,2.897 9.596,1.557 18.029,-2.818 8.692,-4.514 14.814,-10.377 13.536,-13.271 -1.29,-2.877 -9.896,-1.593 -19.027,2.943 m 142.258,-66.857 c -16.04,7.128 -26.725,14.843 -24.667,17.584 2.099,2.759 16.316,-0.342 32.47,-7.222 16.714,-7.128 28.523,-15.414 26.406,-18.453 -2.12,-3.001 -17.478,0.662 -34.209,8.091 m 77.308,-19.994 c 12.382,-5.702 19.2,-12.577 17.612,-15.944 -1.606,-3.36 -11.486,-1.822 -24.389,4.168 -14.837,6.903 -26.324,15.273 -24.267,18.359 2.087,3.087 16.664,0.031 31.044,-6.583 M 239.582,426.62 c -10.774,6.168 -18.663,14.247 -16.84,17.993 1.843,3.754 12.698,1.54 23.409,-5.024 9.992,-6.128 15.956,-13.724 14.163,-17.11 -1.794,-3.348 -10.715,-1.59 -20.732,4.141 m -181.96,98.532 c 11.354,-5.903 18.675,-12.465 17.142,-15.582 -1.55,-3.108 -11.272,-1.627 -22.577,4.088 -12.601,6.368 -22.568,14.967 -21.087,18.278 1.5,3.306 13.872,-0.208 26.522,-6.784 M 278.374,403.957 c -8.101,4.659 -13.473,11.336 -11.711,14.609 1.797,3.286 10.003,1.575 18.038,-3.451 7.784,-4.87 12.723,-10.945 11.034,-13.894 -1.687,-2.916 -9.462,-1.795 -17.361,2.736 m -90.453,50.049 c -12.619,6.129 -21.204,13.614 -19.364,17.356 1.856,3.723 13.488,2.506 26.081,-3.535 12.752,-6.139 21.223,-14.678 19.394,-18.479 -1.85,-3.784 -13.358,-1.524 -26.111,4.658 M 564.244,269.04 c -1.054,-2.844 -2.1,-4.44 -1.302,-4.292 1.216,0.222 3.099,2.895 4.13,6.091 1.046,3.185 0.731,5.456 -0.457,4.822 -0.849,-0.449 -1.317,-3.78 -2.371,-6.621 m -427.86,207.779 c -10.1,4.098 -16.459,9.85 -14.73,13.192 1.742,3.317 11.036,3.231 21.259,-0.517 10.95,-4.022 18.765,-10.742 16.941,-14.415 -1.855,-3.676 -12.62,-2.652 -23.47,1.74 m 436.9,-207.524 c 6.197,-3.369 11.881,-8.585 10.574,-11.169 -1.317,-2.576 -8.897,-1.605 -14.874,1.552 -4.036,2.136 -4.971,5.714 -3.881,8.494 1.085,2.779 3.909,3.448 8.181,1.123 M 234.416,399.499 c -10.503,4.865 -18.379,11.668 -16.889,14.89 1.511,3.212 11.727,1.37 22.096,-3.873 9.612,-4.869 15.757,-10.908 14.386,-13.768 -1.371,-2.856 -9.857,-1.75 -19.593,2.751 m 156.323,-72.223 c -10.916,5.04 -17.927,10.713 -16.742,13.178 1.206,2.458 10.302,0.709 21.404,-4.293 12.356,-5.568 22.132,-12.439 20.78,-14.953 -1.372,-2.498 -13.238,0.439 -25.442,6.068 m 106.785,-42.919 c 1.492,2.816 15.544,-0.625 29.929,-7.164 12.305,-5.597 19.304,-11.808 17.94,-14.768 -1.366,-2.959 -10.726,-1.545 -23.159,4.191 -14.486,6.692 -26.165,14.908 -24.71,17.741 M 131.267,447.14 c -10.344,4.771 -17.029,10.89 -15.582,13.968 1.459,3.08 10.615,2.219 21.067,-2.281 11.226,-4.84 19.54,-11.817 17.998,-15.162 -1.572,-3.335 -12.363,-1.648 -23.483,3.475 M 351.221,345.523 c -6.975,3.226 -13.226,8.647 -12.673,11.502 0.563,2.819 8.191,1.733 16.107,-2.035 7.955,-3.793 13.92,-9.011 12.781,-11.501 -1.153,-2.481 -8.733,-1.42 -16.215,2.034 m -78.395,36.205 c -8.176,3.783 -13.906,9.192 -12.563,11.98 1.356,2.789 9.165,1.623 17.247,-2.395 8.023,-3.997 13.624,-9.249 12.388,-11.809 -1.248,-2.555 -8.933,-1.535 -17.072,2.224 M 611.801,225.271 c -1.455,0.629 -2.925,1.286 -4.399,1.966 -13.606,6.282 -22.114,12.467 -21.03,14.762 1.11,2.282 11.494,-0.194 25.222,-6.393 0.068,-0.031 0.137,-0.062 0.207,-0.093 z M 183.746,422.927 c -12.739,5.883 -21.655,13.312 -20.107,16.686 1.581,3.359 13.059,1.491 25.746,-4.486 12.574,-5.926 21.166,-13.407 19.651,-16.689 -1.527,-3.27 -12.677,-1.338 -25.29,4.489 M 558.834,254.96 c -1.056,-2.439 -2.271,-4.239 -1.818,-4.445 0.983,-0.44 2.743,1.368 3.855,4.083 1.121,2.712 1.079,5.112 0.005,5.22 -0.513,0.046 -1.008,-2.416 -2.042,-4.858 m -106.213,43.77 c -16.086,7.423 -27.38,15.206 -26,17.744 1.405,2.537 15.06,-0.966 31.256,-8.154 16.763,-7.444 29.135,-15.743 27.671,-18.526 -1.494,-2.764 -16.233,1.239 -32.927,8.936 m 126.568,-53.428 c -1.093,-2.281 -8.587,-1.08 -14.839,1.806 -4.263,1.972 -5.53,4.893 -4.49,7.294 1.043,2.397 3.989,3.181 8.3,1.111 6.292,-3.015 12.112,-7.924 11.029,-10.211 M 0,520.629 C 13.347,513.6 21.838,506.953 20.709,504.416 19.688,502.189 11.44,503.702 0,508.102 Z M 557.42,250.362 c -3.746,1.742 -7.531,6.376 -6.212,9.336 1.333,2.949 7.173,3.149 10.658,1.127 1.517,-0.885 0.619,-3.546 -0.519,-6.317 -1.147,-2.768 -2.29,-4.904 -3.927,-4.146 M 54.669,494.619 c 10.394,-4.85 17.188,-10.611 15.893,-13.388 -1.301,-2.773 -10.133,-1.431 -20.518,3.359 -11.463,5.302 -20.652,12.308 -19.377,15.141 1.302,2.819 12.526,0.235 24.002,-5.112 m 35.892,-28.721 c -8.604,3.964 -14.666,9.518 -13.366,12.322 1.317,2.794 9.573,1.865 18.296,-1.872 8.749,-3.749 14.878,-9.243 13.462,-12.268 -1.434,-3.016 -9.76,-2.16 -18.392,1.818 m 219.96,-101.584 c -9.457,4.368 -15.687,9.757 -14.478,12.303 1.226,2.537 9.312,1.225 18.565,-3.046 9.789,-4.521 17.326,-10.425 16.533,-13.144 -0.814,-2.725 -10.411,-0.821 -20.62,3.887 M 86.094,438.253 c -8.326,4.339 -14.303,9.714 -13.262,12.189 1.07,2.464 8.795,1.215 17.212,-2.898 8.625,-4.214 14.954,-9.979 13.82,-12.67 -1.145,-2.687 -9.24,-1.057 -17.77,3.379 M 550.498,234.261 c -3.362,0.567 -6.663,4.504 -5.499,7.023 1.178,2.514 6.433,2.632 9.768,1.71 1.311,-0.368 0.533,-1.777 -0.611,-4.066 -1.144,-2.288 -2.271,-4.904 -3.658,-4.667 m 61.303,-22.591 c -2.539,1.069 -5.17,2.229 -7.829,3.461 -13.72,6.356 -22.593,12.32 -21.737,14.331 0.875,2.001 11.138,-0.663 24.861,-6.892 1.597,-0.726 3.17,-1.462 4.705,-2.2 z m -61.302,25.583 c 0.503,-1.009 2.158,0.018 3.28,2.258 1.118,2.241 1.22,4.667 0.532,5.466 -0.298,0.338 -0.314,-1.275 -1.294,-3.328 -0.989,-2.047 -2.78,-3.852 -2.518,-4.396 M 51.506,465.563 c 9.662,-4.304 16.104,-9.68 15.061,-12.126 -1.051,-2.436 -9.161,-0.896 -18.85,3.423 -10.569,4.712 -19.172,10.602 -18.103,13.022 1.082,2.412 11.352,0.366 21.892,-4.319 M 518.47,247.221 c -13.679,6.184 -25.098,14.055 -24.089,16.625 1.021,2.561 14.246,-1.073 28.074,-7.269 11.655,-5.222 18.37,-10.556 17.206,-13.099 -1.167,-2.543 -9.686,-1.458 -21.191,3.743 M 0,487.496 c 13.021,-5.79 21.433,-11.539 20.449,-13.76 -0.902,-1.982 -9.11,-0.596 -20.449,3.299 z m 127.097,-70.463 c -10.596,5.252 -17.607,11.662 -16.44,14.397 1.175,2.737 10.202,0.988 20.91,-4.073 11.435,-5.419 20.207,-12.208 18.924,-15.132 -1.283,-2.916 -12.079,-0.806 -23.394,4.808 m 103.201,-42.919 c -10.39,3.65 -18.362,9.18 -17.17,11.949 1.212,2.756 11.01,1.491 21.227,-2.455 9.496,-3.668 15.896,-8.453 14.866,-10.935 -1.05,-2.48 -9.262,-1.946 -18.923,1.441 m 116.077,-46.696 c -7.946,3.31 -13.559,7.688 -12.091,9.618 1.496,1.938 8.767,1.046 16.044,-2.006 7.895,-3.313 14.107,-8.144 13.182,-10.308 -0.941,-2.159 -8.855,-0.747 -17.135,2.696 m -39.226,17.017 c -9.451,4.217 -16.015,9.118 -15.061,11.34 0.965,2.216 9.179,0.806 18.897,-3.549 10.443,-4.683 18.003,-10.274 16.574,-12.249 -1.435,-1.952 -10.516,0.044 -20.41,4.458 M 451.308,278.76 c -16.042,7.674 -27.821,15.567 -26.97,17.942 0.87,2.361 14.113,-1.544 30.265,-9.022 16.583,-7.681 29.139,-15.89 28.161,-18.432 -0.991,-2.545 -15.019,1.658 -31.456,9.512 m -182.432,81.612 c -8.294,3.142 -14.381,7.542 -13.373,9.979 1.015,2.424 8.637,1.755 16.851,-1.57 8.283,-3.353 14.344,-8.08 13.403,-10.328 -0.954,-2.241 -8.541,-1.241 -16.881,1.919 m 119.702,-51.767 c -11.385,5.319 -19.097,10.886 -18.206,13.073 0.906,2.179 9.972,0.233 21.297,-4.934 12.593,-5.752 22.936,-12.746 22.101,-15.076 -0.862,-2.332 -12.571,1.045 -25.192,6.937 m 174.518,-66.408 c 6.573,-2.783 12.678,-7.453 11.811,-9.452 -0.877,-1.994 -8.441,-0.499 -15.105,2.239 -4.664,1.912 -6.406,4.297 -5.45,6.327 0.967,2.023 4.164,2.817 8.744,0.886 M 180.189,393.004 c -12.79,5.246 -21.963,12.223 -20.686,15.161 1.311,2.92 12.59,0.73 25.328,-4.642 12.422,-5.249 21.154,-11.41 19.935,-14.227 -1.244,-2.811 -12.086,-1.419 -24.577,3.708 M 611.801,198.37 c -3.368,1.408 -6.965,2.995 -10.634,4.703 -13.913,6.475 -23.212,12.283 -22.556,14.011 0.661,1.725 10.942,-1.193 24.781,-7.529 2.904,-1.33 5.731,-2.686 8.409,-4.027 z M 69.16,422.832 c 0.818,2.11 8.151,0.301 16.403,-4.307 8.574,-4.789 15.154,-10.738 14.272,-13.033 -0.881,-2.285 -8.801,0.126 -17.294,5.1 -8.18,4.797 -14.18,10.13 -13.381,12.24 M 543.588,224.957 c -0.154,-1.311 1.33,-1.101 2.394,0.689 1.064,1.79 1.215,4.316 1.148,5.539 -0.034,0.852 0.721,-0.408 -0.161,-2.087 -0.885,-1.676 -3.256,-3.12 -3.381,-4.141 M 227.103,349.569 c -10.404,2.634 -18.554,7.049 -17.609,9.435 0.952,2.373 10.516,1.682 20.737,-1.157 9.549,-2.65 16.246,-6.442 15.477,-8.623 -0.788,-2.192 -8.879,-2.113 -18.605,0.345 M 0,456.535 C 12.443,451.77 20.584,446.812 19.778,444.919 19.026,443.205 11.048,444.536 0,447.937 Z M 288.953,335.329 c 0.723,1.929 8.562,0.628 17.717,-3.184 9.279,-3.869 15.88,-8.319 14.986,-10.079 -0.904,-1.757 -8.867,-0.226 -17.925,3.437 -8.932,3.614 -15.489,7.885 -14.778,9.826 m 39.134,-15.868 c 0.893,1.76 8.658,0.405 17.264,-3.092 9.001,-3.663 16.197,-8.598 15.6,-10.54 -0.615,-1.951 -9.008,-0.007 -18.32,3.854 -8.912,3.697 -15.425,8.009 -14.544,9.778 m 186.927,-91.19 c -12.474,5.339 -23.184,12.548 -22.491,14.822 0.717,2.262 12.84,-1.313 25.629,-6.814 10.531,-4.528 16.584,-8.718 15.584,-10.832 -1.013,-2.105 -8.5,-1.54 -18.722,2.824 M 177.171,364.283 c -12.776,4.501 -22.131,10.835 -21.108,13.319 1.053,2.472 12.119,0.185 24.856,-4.388 12.326,-4.433 21.223,-9.331 20.255,-11.742 -0.996,-2.409 -11.602,-1.551 -24.003,2.811 m -53.31,22.951 c -10.783,5.543 -18.058,12.075 -17.166,14.404 0.915,2.328 9.789,-0.268 20.693,-5.664 11.536,-5.712 20.629,-12.013 19.62,-14.491 -1.041,-2.462 -11.743,-0.109 -23.147,5.751 M 451.843,257.936 c -15.801,7.751 -27.859,15.704 -27.402,17.914 0.481,2.186 13.376,-2.093 29.323,-9.741 16.119,-7.73 28.433,-15.6 27.801,-17.876 -0.658,-2.279 -13.818,1.903 -29.722,9.703 m -403.3,179.473 c 9.153,-4.108 15.395,-9.334 14.594,-11.42 -0.822,-2.074 -8.365,-0.122 -17.567,4.028 -9.895,4.461 -18.095,9.542 -17.244,11.585 0.874,2.027 10.38,0.221 20.217,-4.193 m 217.62,-98.242 c -8.415,2.588 -14.829,6.154 -14.083,8.312 0.753,2.141 8.282,1.891 16.621,-0.859 8.405,-2.778 14.68,-6.969 13.988,-8.94 -0.71,-1.972 -8.088,-1.102 -16.526,1.487 m 304.88,-118.752 c -0.685,-1.706 -8.42,0.139 -15.608,2.844 -5.204,1.959 -7.556,3.943 -6.714,5.616 0.85,1.67 4.41,2.366 9.449,0.45 7.025,-2.678 13.558,-7.204 12.873,-8.91 m -182.538,68.574 c -12.015,5.762 -20.633,11.514 -20.081,13.508 0.568,1.975 9.944,-0.41 21.833,-5.981 13.04,-6.116 23.95,-13.307 23.499,-15.467 -0.477,-2.172 -12.142,1.65 -25.251,7.94 m 154.402,-69.544 c -2.661,-0.661 -5.568,2.442 -4.525,4.503 1.053,2.062 5.703,2.171 8.506,2.517 1.294,0.154 0.403,-0.01 -0.675,-1.842 -1.076,-1.829 -1.918,-4.827 -3.306,-5.178 M 390.5,267.888 c -12.556,6.193 -21.947,12.198 -21.698,14.035 0.262,1.815 9.962,-1.094 22.428,-7.133 13.433,-6.515 24.73,-13.811 24.545,-15.769 -0.212,-1.973 -11.807,2.219 -25.275,8.867 m -88.653,38.197 c -8.705,3.122 -15.358,6.768 -14.899,8.504 0.47,1.719 7.886,0.747 16.631,-2.469 8.878,-3.268 15.682,-7.376 15.219,-9.018 -0.482,-1.652 -8.074,-0.2 -16.951,2.983 M 80.021,383.337 c -8.124,5.235 -14.198,10.559 -13.623,12.282 0.616,1.714 7.639,-0.74 15.814,-5.842 8.552,-5.338 15.347,-11.337 14.706,-13.196 -0.65,-1.842 -8.414,1.288 -16.897,6.756 M 0,427.254 c 11.826,-3.962 19.664,-8.264 19.027,-9.81 C 18.445,416.011 10.73,417.368 0,420.352 Z m 46.094,-17.288 c 8.827,-4.114 14.995,-9.259 14.419,-10.97 -0.599,-1.694 -7.745,0.78 -16.641,4.92 -9.435,4.392 -17.389,8.868 -16.744,10.543 0.659,1.667 9.608,-0.137 18.966,-4.493 M 534.671,206.042 c -1.858,-1.546 -4.488,0.323 -3.563,1.927 0.928,1.602 5.141,2.082 7.133,3.444 1.396,0.963 0.421,1.628 -0.549,0.228 -0.97,-1.394 -1.601,-4.41 -3.021,-5.599 m -193.032,84.512 c -9.534,4.042 -16.734,8.34 -16.287,10.003 0.461,1.645 8.286,0.096 17.658,-3.801 9.886,-4.116 18.038,-9.356 17.761,-11.14 -0.296,-1.801 -9.052,0.674 -19.132,4.938 M 536.492,213.57 c -0.834,-1.367 0.249,-1.931 1.193,-0.556 0.939,1.376 1.259,4.048 1.89,5.411 0.584,1.281 2.042,0.157 1.307,-1.181 -0.741,-1.338 -3.568,-2.321 -4.39,-3.674 m 31.156,-5.318 c -0.506,-1.42 -8.498,0.816 -16.29,3.615 -5.849,2.107 -8.919,3.831 -8.212,5.167 0.702,1.341 4.71,1.819 10.36,-0.2 7.593,-2.72 14.63,-7.156 14.142,-8.582 m 44.153,-22.964 c -3.96,1.673 -8.326,3.619 -12.822,5.728 -14.164,6.65 -23.906,12.342 -23.454,13.797 0.49,1.44 10.869,-1.798 24.923,-8.298 3.988,-1.843 7.833,-3.721 11.353,-5.525 z m -185.353,68.4 c 0.225,1.975 12.701,-2.58 28.173,-10.123 15.301,-7.461 26.942,-14.622 26.507,-16.565 -0.472,-1.937 -12.582,1.965 -27.603,9.368 -15.266,7.531 -27.282,15.333 -27.077,17.32 m 84.795,-43.526 c -10.989,4.128 -20.614,10.341 -20.096,12.251 0.536,1.903 11.337,-1.363 22.705,-5.762 9.095,-3.518 14.262,-6.334 13.384,-7.996 -0.884,-1.649 -7.254,-1.767 -15.993,1.507 m -389.76,148.147 c -10.856,5.699 -18.337,12.22 -17.672,14.097 0.68,1.877 9.366,-1.464 20.342,-7.039 11.513,-5.844 20.826,-11.581 20.042,-13.59 -0.805,-2.002 -11.338,0.552 -22.712,6.532 m 85.015,-25.841 c 0.75,2.019 10.197,1.75 20.549,-0.21 9.723,-1.843 16.751,-4.808 16.186,-6.725 -0.577,-1.929 -8.668,-2.192 -18.562,-0.454 -10.526,1.852 -18.903,5.357 -18.173,7.389 m -31.887,4.059 c -12.717,3.862 -22.19,9.555 -21.396,11.585 0.828,2.018 11.641,-0.328 24.336,-4.181 12.276,-3.721 21.358,-7.56 20.604,-9.6 -0.777,-2.033 -11.207,-1.548 -23.544,2.196 m 89.925,-19.066 c -8.585,2.051 -15.318,4.907 -14.783,6.812 0.543,1.888 8.056,1.993 16.543,-0.195 8.478,-2.185 14.918,-5.785 14.463,-7.534 -0.472,-1.762 -7.685,-1.119 -16.223,0.917 M 529.43,202.992 c -1.509,-1.285 -1.086,-2.435 -0.31,-1.434 0.776,1.008 1.457,3.733 2.788,5.055 1.466,1.453 3.627,0.392 3.048,-0.629 -0.589,-1.016 -3.813,-1.557 -5.526,-2.992 m -157.994,56.306 c 0.063,1.619 10.005,-1.787 22.843,-8.152 13.584,-6.741 24.945,-13.855 24.899,-15.533 -0.078,-1.684 -11.472,2.714 -25.028,9.498 -12.862,6.436 -22.757,12.555 -22.714,14.187 M 78.552,356.953 c -8.111,5.598 -14.298,10.87 -13.913,12.193 0.421,1.312 7.25,-1.78 15.399,-7.292 8.532,-5.78 15.481,-11.738 15.048,-13.146 -0.453,-1.393 -8.051,2.392 -16.534,8.245 m 93.898,-47.449 c -12.612,3.477 -22.13,8.654 -21.55,10.225 0.611,1.563 11.141,-0.972 23.751,-4.361 12.24,-3.288 21.521,-6.322 20.956,-7.979 -0.581,-1.654 -10.88,-1.263 -23.157,2.115 M 525.881,194.101 c -1.448,-2.092 -3.676,-1.647 -2.877,-0.492 0.798,1.161 4.428,2.373 5.896,4.358 1.332,1.815 0.711,3.002 -0.093,1.987 -0.803,-1.016 -1.584,-3.891 -2.926,-5.853 M 44.348,383.302 c 8.67,-4.186 14.869,-9.256 14.465,-10.57 -0.413,-1.305 -7.291,1.686 -16.029,5.88 -9.158,4.386 -17.016,8.375 -16.545,9.683 0.495,1.291 9.037,-0.61 18.109,-4.993 m 57.614,-39.021 c 0.479,1.42 8.914,-2.578 19.837,-8.292 11.358,-5.94 20.77,-11.181 20.19,-12.725 -0.577,-1.541 -10.855,1.305 -22.093,7.366 -10.804,5.837 -18.393,12.232 -17.934,13.651 M 611.801,172.368 c -4.354,1.885 -9.293,4.127 -14.429,6.56 -14.439,6.843 -24.642,12.481 -24.349,13.651 0.323,1.159 10.897,-2.478 25.229,-9.183 4.823,-2.26 9.446,-4.543 13.549,-6.666 z M 222.845,300.1 c -10.732,1.323 -19.38,4.145 -18.826,5.809 0.562,1.655 10.002,1.547 20.582,0.203 10,-1.273 17.404,-3.539 17.006,-5.175 -0.416,-1.644 -8.609,-2.087 -18.762,-0.837 m 63.589,-7.642 c 0.265,1.526 7.548,0.818 16.305,-2.06 8.987,-2.952 16.183,-6.932 15.995,-8.434 -0.205,-1.516 -7.778,0.053 -16.833,2.977 -8.809,2.848 -15.722,5.976 -15.467,7.517 m -38.091,7.596 c 0.384,1.622 7.983,1.958 16.722,0.283 8.662,-1.663 15.367,-4.708 15.103,-6.248 -0.28,-1.555 -7.495,-1.082 -16.251,0.494 -8.856,1.596 -15.944,3.837 -15.574,5.471 m 94.856,-30.822 c -10.056,4.342 -17.832,8.625 -17.66,10.149 0.185,1.509 8.164,-0.272 18.112,-4.52 10.553,-4.504 19.406,-9.978 19.347,-11.576 -0.083,-1.614 -9.133,1.347 -19.799,5.947 m 204.475,-68.509 c -6.571,2.334 -10.395,3.925 -9.87,4.964 0.541,1.029 5.055,1.173 11.43,-1.051 8.256,-2.895 15.885,-7.312 15.552,-8.452 -0.34,-1.138 -8.658,1.54 -17.112,4.539 M 0,399.327 C 11.303,395.992 18.885,392.26 18.429,391.053 17.99,389.92 10.495,391.366 0,394.011 Z M 489.363,202.406 c 0.454,1.477 9.783,-1.222 19.491,-4.16 7.548,-2.28 11.776,-3.582 11.016,-4.79 -0.764,-1.202 -6.019,-2.097 -13.259,-0.065 -9.355,2.624 -17.676,7.533 -17.248,9.015 m -33.884,12.129 c -14.374,6.885 -25.961,14.172 -25.877,15.85 0.099,1.67 11.984,-2.947 26.605,-9.96 14.083,-6.755 24.654,-12.755 24.305,-14.286 -0.379,-1.528 -11.264,1.8 -25.033,8.396 M 43.377,357.574 c 8.639,-4.223 14.924,-9.154 14.672,-10.079 -0.265,-0.918 -6.991,2.518 -15.691,6.734 -9.028,4.378 -16.893,7.896 -16.583,8.838 0.333,0.934 8.647,-1.104 17.602,-5.493 M 398.678,220.998 c -12.865,6.342 -22.952,12.266 -22.99,13.584 -0.024,1.314 10.022,-2.464 22.921,-8.822 13.376,-6.6 24.405,-13.08 24.387,-14.364 -0.046,-1.287 -11.019,3.051 -24.318,9.602 m -52.026,24.527 c -10.498,4.535 -18.736,8.706 -18.705,9.985 0.04,1.269 8.279,-0.814 18.708,-5.304 11.039,-4.753 20.328,-10.207 20.361,-11.517 0.014,-1.314 -9.268,2.043 -20.364,6.836 M 63.876,343.759 c 0.254,0.924 6.985,-2.702 15.124,-8.521 8.511,-6.084 15.545,-11.942 15.275,-12.909 -0.282,-0.96 -7.715,3.389 -16.191,9.511 -8.117,5.866 -14.455,10.995 -14.208,11.919 m 200.279,-73.673 c -9.246,1.304 -16.75,3.035 -16.501,4.331 0.254,1.29 8.079,1.649 17.211,0.327 9.014,-1.302 16.097,-3.868 15.959,-5.14 -0.155,-1.274 -7.553,-0.794 -16.669,0.482 m 252.564,-86.485 c -1.417,-2.56 -3.282,-3.303 -2.657,-2.544 0.632,0.756 3.584,2.604 4.973,5.087 1.342,2.406 1.378,3.992 0.773,3.313 -0.6,-0.683 -1.717,-3.384 -3.089,-5.856 m -15.972,-5.169 c -7.724,0.983 -14.726,4.39 -14.353,5.408 0.39,1.015 8.231,-0.921 16.224,-2.171 6.135,-0.951 9.505,-0.756 8.9,-1.548 -0.612,-0.787 -4.834,-2.445 -10.771,-1.689 m 21.864,14.649 c -2.233,-1.085 -2.638,-2.599 -2.058,-1.92 0.577,0.679 1.769,3.299 3.847,4.445 2.48,1.362 5.383,0.314 4.983,-0.419 -0.406,-0.727 -4.092,-0.789 -6.772,-2.106 M 149.117,292.58 c 0.41,1.106 10.607,-1.826 23.079,-5.107 12.182,-3.206 21.658,-5.728 21.262,-6.958 -0.414,-1.229 -10.584,-0.614 -22.778,2.715 -12.456,3.413 -21.953,8.245 -21.563,9.35 M 0,372.54 c 10.967,-2.812 18.427,-6.029 18.12,-6.898 -0.313,-0.829 -7.709,0.733 -18.12,3.084 z M 532.865,194.704 c 0.361,0.751 5.457,0.451 12.622,-2.091 8.985,-3.181 17.235,-7.635 17.034,-8.486 -0.203,-0.855 -8.894,2.309 -18.039,5.602 -7.336,2.649 -11.981,4.227 -11.617,4.975 m -76.118,-1.455 c -13.135,5.764 -23.91,12.09 -23.854,13.351 0.074,1.263 11.121,-3.116 24.494,-9.074 12.514,-5.567 21.756,-9.988 21.436,-11.058 -0.317,-1.067 -9.846,1.414 -22.076,6.781 M 119.053,304.521 c -10.638,5.997 -18.261,12.218 -17.969,13.193 0.295,0.979 8.465,-3.598 19.202,-9.494 11.104,-6.093 20.476,-10.996 20.096,-12.08 -0.397,-1.077 -10.325,2.18 -21.329,8.381 m 184.549,-43.025 c -9.126,2.717 -16.404,5.41 -16.282,6.685 0.137,1.265 7.558,0.611 16.606,-2.113 9.335,-2.805 16.953,-6.654 16.914,-7.92 -0.062,-1.272 -7.827,0.541 -17.238,3.348 M 611.801,159.587 c -4.576,2.052 -9.879,4.517 -15.439,7.181 -14.736,7.058 -25.391,12.669 -25.223,13.546 0.172,0.874 11.01,-3.223 25.649,-10.169 5.403,-2.565 10.553,-5.122 15.013,-7.427 z m -390.32,114.852 c -10.988,1.096 -19.907,3.465 -19.526,4.716 0.391,1.247 9.876,0.971 20.754,-0.081 10.358,-0.999 18.192,-2.703 17.922,-3.996 -0.288,-1.293 -8.673,-1.68 -19.15,-0.639 m -178.341,58.5 c 8.706,-4.176 15.148,-8.864 14.999,-9.419 -0.128,-0.559 -6.817,3.226 -15.576,7.368 -9.035,4.277 -16.998,7.325 -16.814,7.909 0.186,0.586 8.412,-1.557 17.391,-5.858 M 169.326,258.03 c -12.243,3.651 -21.632,8.317 -21.418,8.972 0.246,0.65 10.039,-2.871 22.308,-6.402 12.065,-3.477 21.685,-5.794 21.455,-6.563 -0.252,-0.761 -10.286,0.405 -22.345,3.993 m 211.183,-49.549 c -0.017,0.88 9.93,-3.045 22.524,-8.919 12.757,-5.957 23.082,-11.284 23.045,-12.085 -0.058,-0.803 -10.374,3.131 -23.045,9.001 -12.535,5.813 -22.487,11.123 -22.524,12.003 m 113.054,-42.852 c -6.243,-0.564 -12.143,1.269 -11.854,1.844 0.296,0.571 6.799,-0.462 13.195,-0.061 5.064,0.319 7.788,1.796 7.379,1.357 -0.417,-0.432 -3.748,-2.692 -8.72,-3.14 m -37.094,7.902 c -11.656,4.225 -21.363,9.177 -21.289,9.954 0.083,0.777 10.053,-3.028 21.881,-7.428 10.758,-4.003 18.581,-6.571 18.335,-7.186 -0.27,-0.601 -8.358,0.829 -18.927,4.66 M 331.7,229.202 c 0.002,0.887 8.529,-1.531 19.324,-6.061 11.319,-4.757 20.757,-9.807 20.793,-10.692 0.018,-0.887 -9.374,2.715 -20.709,7.466 -10.822,4.533 -19.392,8.394 -19.408,9.287 m 280.101,-82.271 c -4.668,2.175 -10.137,4.782 -15.902,7.576 -15.005,7.28 -26.065,12.867 -26.003,13.44 0.088,0.569 11.196,-4.024 26.138,-11.231 5.713,-2.75 11.134,-5.446 15.767,-7.817 z m -69.94,31.853 c -8.12,3.018 -13.587,4.688 -13.372,5.158 0.206,0.474 5.902,-0.365 13.902,-3.303 9.733,-3.569 18.592,-8.086 18.505,-8.642 -0.104,-0.551 -9.192,3.128 -19.035,6.787 M 118.935,280.279 c -10.397,6.189 -17.969,12.196 -17.831,12.766 0.163,0.569 8.041,-4.486 18.502,-10.613 10.775,-6.305 20.007,-11.057 19.8,-11.697 -0.224,-0.631 -9.759,3.173 -20.471,9.544 m 81.301,-27.748 c 0.251,0.782 9.764,-0.037 20.96,-1.154 10.752,-1.084 19.042,-2.401 18.88,-3.26 -0.177,-0.855 -8.812,-0.888 -19.638,0.262 -11.255,1.199 -20.432,3.364 -20.202,4.152 m 307.201,-78.128 c -1.676,-2.862 -3.411,-4.478 -2.979,-4.069 0.412,0.426 2.843,2.672 4.473,5.509 1.57,2.72 2.414,4.531 2.043,4.131 -0.376,-0.4 -1.923,-2.834 -3.537,-5.571 m 8.796,9.268 c -3.01,-0.809 -4.343,-2.444 -3.987,-2.043 0.357,0.406 2.164,2.722 5.067,3.585 3.545,1.056 7.263,-0.06 7.032,-0.517 -0.237,-0.457 -4.422,-0.035 -8.112,-1.025 m -227.046,58.016 c 0.069,0.882 7.804,0.033 17.304,-2.628 9.78,-2.752 17.798,-6.319 17.803,-7.208 -0.014,-0.889 -8.074,1.253 -17.913,4.001 -9.559,2.669 -17.243,4.949 -17.194,5.835 M 0,346.741 c 10.83,-2.32 18.315,-5.033 18.135,-5.58 C 17.95,340.636 10.5,342.321 0,344.375 Z m 78.51,-38.453 c -8.139,5.995 -14.61,10.887 -14.495,11.445 0.15,0.553 6.829,-3.451 14.976,-9.439 8.491,-6.235 15.532,-11.936 15.404,-12.503 -0.165,-0.557 -7.418,4.243 -15.885,10.497 m 186.457,-64.249 c -9.723,1.213 -17.677,2.569 -17.531,3.436 0.161,0.864 8.301,0.931 17.942,-0.259 9.507,-1.168 17.045,-3.31 16.977,-4.19 -0.084,-0.883 -7.806,-0.175 -17.388,1.013 m 90.542,-50.455 c -10.988,4.26 -19.742,7.576 -19.751,7.961 0.01,0.382 8.757,-2.32 19.742,-6.595 11.343,-4.421 20.67,-8.633 20.679,-8.998 -0.01,-0.365 -9.326,3.241 -20.67,7.632 m -187.075,40.904 c -11.964,4.118 -21.183,8.756 -21.113,9.002 0.088,0.244 9.466,-3.965 21.446,-8.026 11.86,-4.023 21.556,-6.422 21.475,-6.724 -0.098,-0.294 -9.958,1.674 -21.808,5.748 m 342.032,-59.909 c -3.846,-0.444 -6.142,-2.008 -6.009,-1.847 0.147,0.154 2.623,2.004 6.418,2.473 4.632,0.573 9.191,-0.674 9.107,-0.865 -0.089,-0.186 -4.823,0.769 -9.516,0.239 m -104.347,-1.626 c -11.89,4.814 -21.444,9.125 -21.449,9.482 0.018,0.359 9.595,-3.405 21.526,-8.26 11.791,-4.809 21.179,-8.556 21.135,-8.861 -0.056,-0.303 -9.471,2.891 -21.212,7.639 m -140.156,44.245 c -10.227,1.33 -18.639,2.488 -18.58,2.849 0.066,0.358 8.564,-0.191 18.758,-1.503 10.057,-1.295 18.078,-3.037 18.054,-3.416 -0.041,-0.379 -8.141,0.752 -18.232,2.07 m 345.838,-82.802 c -4.643,2.25 -10.083,4.908 -15.834,7.73 -15.248,7.485 -26.653,13.043 -26.653,13.287 0.023,0.243 11.434,-4.885 26.655,-12.341 5.748,-2.813 11.188,-5.518 15.832,-7.856 z m -392.216,88.318 c -11.478,1.619 -20.848,3.825 -20.763,4.134 0.099,0.306 9.614,-1.354 21.073,-2.93 11.112,-1.525 19.854,-2.678 19.788,-3.032 -0.08,-0.351 -8.96,0.261 -20.098,1.828 m 234.496,-66.377 c -10.102,2.449 -18.673,5.796 -18.611,6.087 0.062,0.291 8.787,-2.637 18.965,-5.176 9.07,-2.263 15.634,-2.988 15.506,-3.209 -0.134,-0.21 -6.865,0.102 -15.86,2.298 m 21.087,-2.512 c 0.15,0.198 5.54,0.159 10.667,1.869 4.386,1.471 6.812,3.761 6.631,3.616 -0.178,-0.158 -2.884,-2.714 -7.243,-4.235 -5.078,-1.765 -10.196,-1.451 -10.055,-1.25 M 43.52,309.473 c 8.86,-3.978 15.461,-8.311 15.427,-8.533 -0.07,-0.213 -6.761,3.754 -15.646,7.711 -9.141,4.077 -17.267,6.581 -17.199,6.821 0.091,0.232 8.299,-1.912 17.418,-5.999 m 36.17,-23.004 c -8.174,5.988 -14.81,10.53 -14.782,10.751 0.058,0.214 6.775,-3.989 14.946,-9.985 8.49,-6.217 15.512,-11.7 15.478,-11.915 -0.068,-0.207 -7.159,4.931 -15.642,11.149 M 0,321.785 c 10.865,-1.809 18.502,-3.981 18.438,-4.208 -0.092,-0.213 -7.707,1.53 -18.438,3.24 z M 524.797,173.25 c 0.079,0.194 6.403,-1.26 15.241,-4.67 10.483,-4.033 19.912,-8.619 19.9,-8.855 -0.028,-0.238 -9.54,3.989 -20.066,8.069 -8.894,3.445 -15.141,5.255 -15.075,5.456 M 119.74,258.984 c 10.415,-6.517 19.428,-11.257 19.356,-11.496 -0.085,-0.234 -9.196,4.159 -19.589,10.699 -10.102,6.376 -17.617,12.124 -17.578,12.34 0.059,0.212 7.679,-5.192 17.811,-11.543 m 189.755,-50.101 c -10.013,2.634 -18.113,4.508 -18.095,4.889 0.036,0.38 8.157,-0.866 18.145,-3.499 10.221,-2.695 18.563,-5.787 18.568,-6.169 -0.01,-0.385 -8.374,2.084 -18.618,4.779 m 188.83,-42.594 c -2.15,-2.927 -3.995,-5.145 -3.812,-4.998 0.183,0.144 2.306,2.604 4.425,5.536 2.014,2.799 3.797,4.587 3.643,4.433 -0.145,-0.156 -2.211,-2.176 -4.256,-4.971 m -159.318,8.117 c 0.015,0.16 8.819,-2.423 19.771,-6.111 11.108,-3.757 20.127,-7.028 20.124,-7.178 -0.017,-0.145 -9.053,2.882 -20.155,6.622 -10.948,3.677 -19.742,6.51 -19.74,6.667 m -191.634,48.139 c 0.032,0.091 9.037,-4.581 20.657,-9.261 11.571,-4.657 21.185,-7.52 21.15,-7.635 -0.041,-0.113 -9.714,2.59 -21.279,7.27 -11.61,4.697 -20.555,9.532 -20.528,9.626 m 183.862,-45.81 c -0.014,-0.158 -8.591,2.274 -19.147,4.862 -10.412,2.565 -18.863,4.325 -18.854,4.486 0.025,0.158 8.493,-1.344 18.896,-3.901 10.545,-2.595 19.105,-5.286 19.105,-5.447 m 190.654,-14.256 c 0.03,0.084 7.021,-1.909 16.666,-5.812 11.174,-4.521 21.105,-9.327 21.117,-9.433 -0.026,-0.102 -9.971,4.532 -21.168,9.079 -9.663,3.921 -16.638,6.075 -16.615,6.166 M 0,297.923 c 11.071,-1.281 18.957,-3.026 18.935,-3.125 -0.042,-0.093 -7.92,1.465 -18.935,2.709 z M 497.413,164.214 c 0.058,0.068 3.312,1.427 8.032,1.404 5.671,-0.019 10.993,-1.574 10.969,-1.659 -0.039,-0.082 -5.43,1.349 -11.126,1.387 -4.742,0.037 -7.926,-1.202 -7.875,-1.132 m -12.789,-10.589 c 0.077,0.058 2.291,2.599 5.051,5.351 2.666,2.654 5.265,4.136 5.209,4.068 -0.063,-0.063 -2.78,-1.637 -5.462,-4.282 -2.776,-2.746 -4.871,-5.197 -4.798,-5.137 M 611.801,121.63 c -4.503,2.226 -9.732,4.819 -15.261,7.565 -15.446,7.674 -27.13,13.364 -27.155,13.472 0.019,0.107 11.697,-5.389 27.134,-13.048 5.538,-2.747 10.773,-5.362 15.282,-7.628 z M 139.449,226.803 c -0.032,-0.088 -8.768,4.677 -18.826,11.328 -9.8,6.461 -17.206,12.049 -17.19,12.132 0.019,0.082 7.467,-5.368 17.272,-11.83 10.075,-6.634 18.766,-11.538 18.744,-11.63 m 293.737,-82.154 c 0.052,0.1 7.615,-1.611 16.272,-2.338 7.7,-0.652 13.216,0.042 13.158,-0.039 -0.08,-0.063 -5.682,-0.884 -13.359,-0.282 -8.63,0.696 -16.1,2.549 -16.071,2.659 m 33.846,-1.605 c 0.076,0.065 4.684,1.053 9.084,3.573 4.02,2.317 6.438,4.906 6.362,4.843 -0.075,-0.062 -2.622,-2.744 -6.643,-5.064 -4.384,-2.543 -8.874,-3.423 -8.803,-3.352 m -269.334,60.184 c 0.045,0.116 9.512,-2.322 21.118,-4.598 11.349,-2.224 20.405,-3.66 20.381,-3.806 -0.04,-0.138 -9.159,1.082 -20.514,3.33 -11.611,2.299 -21.019,4.954 -20.985,5.074 m 189.301,-44.891 c 0.023,0.139 9.021,-2.906 20.046,-6.364 10.661,-3.362 19.026,-5.551 18.997,-5.663 -0.039,-0.112 -8.448,1.87 -19.084,5.197 -11.005,3.431 -19.964,6.686 -19.959,6.83 m -139.821,35.266 c 0.043,0.142 8.857,-0.996 19.534,-2.637 10.55,-1.617 18.983,-3.286 18.977,-3.445 -0.029,-0.157 -8.505,1.259 -19.066,2.889 -10.69,1.647 -19.465,3.045 -19.445,3.193 M 60.288,279.76 c -0.024,-0.09 -6.863,3.774 -15.941,7.389 -9.348,3.732 -17.647,5.774 -17.624,5.877 0.044,0.098 8.376,-1.794 17.713,-5.528 9.067,-3.628 15.857,-7.644 15.852,-7.738 m 6.085,-3.53 c 0.033,0.084 6.85,-3.994 15.083,-9.814 8.519,-6.019 15.497,-11.336 15.482,-11.418 -0.029,-0.079 -7.025,5.096 -15.542,11.109 -8.238,5.811 -15.029,10.033 -15.023,10.123 M 500.701,155.396 c -5.706,0.629 -9.615,0.115 -9.406,0.414 0.216,0.294 4.373,1.354 9.975,0.805 6.607,-0.641 12.548,-2.841 12.455,-3.224 -0.109,-0.378 -6.302,1.266 -13.024,2.005 m -206.664,5.355 c 0.112,0.613 8.872,-0.601 19.526,-3.021 10.69,-2.43 19.263,-5.135 19.182,-5.748 -0.097,-0.608 -8.817,1.083 -19.52,3.504 -10.68,2.417 -19.289,4.652 -19.188,5.265 M 27.474,271.331 c 0.139,0.444 8.739,-0.742 18.335,-4.009 9.287,-3.169 16.232,-7.08 16.158,-7.464 -0.098,-0.378 -7.199,2.871 -16.539,5.971 -9.661,3.199 -18.101,5.06 -17.954,5.502 M 266.378,164.988 c -11.03,2.11 -19.934,4.374 -19.799,4.919 0.156,0.543 9.276,-0.766 20.272,-2.812 10.873,-2.016 19.512,-4.186 19.406,-4.795 -0.119,-0.605 -8.972,0.609 -19.879,2.688 M 465.491,139.09 c -4.168,-2.925 -7.985,-4.449 -7.646,-4.221 0.322,0.248 4.713,2.107 8.882,5.013 3.935,2.745 6.37,5.158 6.045,4.929 -0.322,-0.224 -3.34,-2.956 -7.281,-5.721 m 72.331,4.637 c -10.448,4.452 -18.06,7.363 -17.996,7.764 0.088,0.395 7.747,-1.793 18.098,-6.163 11.771,-4.971 22.119,-10.362 22.139,-10.844 0.013,-0.485 -10.376,4.188 -22.241,9.243 m 73.979,-35.612 c -4.218,2.045 -9.032,4.422 -14.121,6.976 -15.589,7.837 -27.557,14.083 -27.596,14.58 -0.008,0.498 11.85,-4.895 27.41,-12.674 5.152,-2.578 10.034,-5.061 14.307,-7.271 z m -169.947,22.423 c -7.39,-0.805 -13.763,-0.05 -13.526,0.31 0.252,0.35 7.096,0.065 14.58,0.762 6.772,0.631 11.344,2.049 11.016,1.798 -0.32,-0.256 -5.37,-2.121 -12.07,-2.87 m -101.351,19.473 c 0.096,0.602 8.852,-1.187 19.579,-4.064 10.686,-2.884 19.192,-5.559 19.073,-6.09 -0.131,-0.524 -8.786,1.218 -19.432,4.015 -10.702,2.81 -19.304,5.537 -19.22,6.139 m 64.259,-16.879 c -9.996,1.854 -18.154,4.333 -18.024,4.841 0.145,0.506 8.581,-1.231 18.659,-3.226 9.605,-1.894 16.884,-3.01 16.665,-3.393 -0.232,-0.375 -7.796,0.008 -17.3,1.778 M 83.398,246.772 c -8.346,5.436 -15.263,9.499 -15.195,9.871 0.086,0.365 7.099,-3.129 15.422,-8.623 8.583,-5.639 15.454,-10.962 15.408,-11.289 -0.076,-0.322 -7.052,4.438 -15.635,10.041 m 134.089,-71.127 c -11.595,3.111 -20.783,6.672 -20.633,7.098 0.168,0.423 9.609,-2.365 21.203,-5.371 11.413,-2.96 20.52,-5.239 20.377,-5.768 -0.156,-0.528 -9.527,0.977 -20.947,4.041 m 263.235,-24.39 c -3.538,-2.292 -5.845,-4.542 -5.527,-4.321 0.32,0.224 3.094,2.853 6.543,5.217 3.426,2.335 6.576,3.171 6.348,2.889 -0.234,-0.277 -3.853,-1.495 -7.364,-3.785 M 0,275.521 c 11.454,-0.756 19.638,-2.401 19.508,-2.835 -0.148,-0.419 -8.3,0.428 -19.508,1.032 z m 122.419,-54.477 c 9.779,-6.587 18.07,-11.82 17.983,-12.148 -0.115,-0.318 -8.526,4.43 -18.275,11.012 -9.484,6.409 -16.74,11.952 -16.678,12.274 0.071,0.319 7.445,-4.734 16.97,-11.138 m 45.204,-27.408 c -11.177,5.244 -19.704,10.502 -19.6,10.835 0.126,0.326 8.859,-4.361 20.081,-9.525 11.231,-5.177 20.53,-8.842 20.386,-9.25 -0.161,-0.4 -9.673,2.696 -20.867,7.94 m 287.805,-60.472 c -4.34,-2.914 -7.752,-4.767 -7.157,-4.428 0.597,0.341 4.992,2.692 9.279,5.643 4.085,2.823 6.75,4.869 6.204,4.504 -0.543,-0.362 -4.177,-2.925 -8.326,-5.719 m -97.443,-8.018 c -10.288,1.858 -18.481,4.226 -18.224,5.061 0.276,0.838 8.936,-0.238 19.288,-2.234 10.17,-1.949 18.012,-3.837 17.673,-4.548 -0.342,-0.698 -8.652,-0.099 -18.737,1.721 M 0,253.451 C 11.822,253.313 20.281,251.84 20.029,251.047 19.766,250.285 11.373,250.316 0,250.217 Z M 473.106,143.915 c -4.316,-1.692 -7.047,-3.522 -6.531,-3.139 0.515,0.392 3.974,2.916 8.142,4.735 4.26,1.866 7.982,1.976 7.627,1.464 -0.358,-0.511 -4.789,-1.328 -9.238,-3.06 m -73.327,-24.189 c -9.061,0.461 -16.361,2.022 -16.012,2.694 0.373,0.67 8.355,0.057 17.551,-0.603 8.703,-0.615 14.995,-0.737 14.51,-1.235 -0.494,-0.478 -7.474,-1.277 -16.049,-0.856 m -87.324,14.415 c -10.731,2.203 -19.264,4.707 -19.015,5.569 0.269,0.864 9.209,-0.196 19.93,-2.415 10.655,-2.198 19.028,-4.685 18.777,-5.543 -0.266,-0.841 -9.045,0.211 -19.692,2.389 m 120.524,-11.642 c -6.576,-1.789 -12.065,-1.967 -11.55,-1.513 0.522,0.444 6.93,1.239 13.607,2.907 6.187,1.552 10.129,3.367 9.533,3.02 -0.597,-0.337 -5.469,-2.747 -11.59,-4.414 m -216.68,34.971 c -11.398,3.79 -20.257,7.978 -20.017,8.559 0.268,0.579 9.577,-2.548 21.007,-6.196 11.309,-3.605 20.31,-6.559 20.035,-7.292 -0.286,-0.719 -9.737,1.177 -21.025,4.929 m -91.792,48.379 c 9.529,-6.336 17.47,-11.687 17.325,-12.168 -0.155,-0.473 -8.271,4.122 -17.757,10.407 -9.221,6.13 -16.37,11.425 -16.283,11.945 0.109,0.514 7.439,-4.019 16.715,-10.184 m 44.102,-26.179 c 10.855,-5.486 19.779,-9.721 19.544,-10.283 -0.247,-0.549 -9.505,2.881 -20.288,8.45 -10.711,5.535 -18.854,10.935 -18.699,11.419 0.173,0.478 8.653,-4.116 19.443,-9.586 m 96.581,-35.502 c -11.144,2.536 -19.972,5.484 -19.704,6.237 0.285,0.757 9.567,-0.853 20.693,-3.294 10.996,-2.41 19.65,-4.904 19.394,-5.766 -0.269,-0.847 -9.365,0.308 -20.383,2.823 m 232.024,0.977 c -6.658,1.278 -11.308,1.589 -10.993,2.135 0.324,0.541 5.318,1.263 11.783,0.132 7.482,-1.299 14.058,-4.193 13.947,-4.905 -0.134,-0.708 -7.051,1.161 -14.737,2.638 M 70.199,238.217 c 0.143,0.64 7.354,-2.168 15.813,-7.16 8.657,-5.122 15.497,-10.263 15.411,-10.8 -0.11,-0.53 -7.109,3.674 -15.79,8.681 -8.499,4.882 -15.549,8.632 -15.434,9.279 M 537.997,130.733 c -11.166,4.985 -19.429,8.691 -19.353,9.437 0.085,0.744 8.335,-1.618 19.332,-6.447 12.297,-5.41 23.041,-11.386 23.127,-12.282 0.068,-0.897 -10.656,3.728 -23.106,9.292 M 28.212,250.187 c 0.254,0.802 9.147,0.416 19.051,-2.247 9.541,-2.569 16.666,-6.264 16.524,-6.935 -0.149,-0.669 -7.577,1.838 -17.214,4.269 -10.026,2.525 -18.604,4.101 -18.361,4.913 M 611.801,94.64 c -3.794,1.807 -8.035,3.888 -12.503,6.148 -15.638,7.913 -27.827,14.71 -27.942,15.632 -0.075,0.92 11.878,-4.297 27.475,-12.142 4.633,-2.33 9.038,-4.601 12.97,-6.678 z m -116.926,39.765 c -7.566,1.976 -12.953,3.165 -12.603,4.004 0.368,0.828 6.112,1.198 13.399,-0.53 8.299,-1.972 15.505,-5.593 15.43,-6.678 -0.093,-1.09 -7.648,0.97 -16.226,3.204 m 44.124,-17.127 c -11.798,5.491 -20.693,10.014 -20.664,11.157 0.034,1.13 8.77,-1.359 20.338,-6.619 12.748,-5.812 23.848,-12.363 24.043,-13.707 0.174,-1.354 -10.773,3.161 -23.717,9.169 m -115.454,-0.269 c -6.185,-2.229 -11.036,-3.05 -10.23,-2.609 0.796,0.46 7.017,1.906 13.255,4.086 5.898,2.05 9.518,3.967 8.682,3.557 -0.84,-0.39 -5.836,-2.924 -11.707,-5.034 M 28.811,229.353 c 0.378,1.197 9.601,1.707 19.846,-0.238 9.812,-1.869 17.138,-5.249 16.916,-6.223 -0.214,-0.983 -8.01,0.639 -17.967,2.282 -10.427,1.723 -19.175,2.976 -18.795,4.179 m 186.353,-85.516 c -11.046,4.188 -19.521,8.629 -19.2,9.239 0.341,0.614 9.435,-2.744 20.563,-6.808 11.053,-4.044 19.8,-7.369 19.397,-8.121 -0.417,-0.723 -9.778,1.517 -20.76,5.69 M 72.181,220.631 c 0.206,0.931 7.643,-1.064 16.265,-5.425 8.763,-4.44 15.596,-9.287 15.471,-10.025 -0.145,-0.735 -7.21,2.785 -16.024,7.013 -8.693,4.175 -15.903,7.501 -15.712,8.437 m 190.952,-91.812 c -11.02,2.827 -19.583,6.124 -19.177,6.887 0.433,0.771 9.708,-1.178 20.76,-3.889 10.92,-2.685 19.387,-5.281 18.941,-6.164 -0.454,-0.857 -9.634,0.371 -20.524,3.166 m 129.663,-17.898 c -8.326,-0.544 -14.86,0.179 -14.215,0.823 0.648,0.654 8.339,0.819 16.811,1.198 8.033,0.354 13.54,0.954 12.757,0.471 -0.778,-0.475 -7.446,-1.963 -15.353,-2.492 m -265.991,81.563 c 9.327,-5.877 16.953,-11.125 16.774,-11.713 -0.195,-0.578 -8.047,3.659 -17.315,9.424 -9.03,5.614 -16.12,10.51 -15.994,11.214 0.145,0.702 7.459,-3.187 16.535,-8.925 m 42.646,-25.234 c 10.463,-5.535 18.976,-10.019 18.677,-10.625 -0.319,-0.585 -9.248,3.002 -19.603,8.564 -10.246,5.521 -18.063,10.769 -17.87,11.344 0.214,0.571 8.434,-3.783 18.796,-9.283 M 0,231.539 c 12.121,0.528 20.778,-0.701 20.385,-1.888 C 20,228.526 11.452,227.676 0,226.813 Z M 611.801,81.216 c -3.248,1.521 -6.793,3.246 -10.511,5.128 -15.582,7.894 -27.937,15.197 -28.151,16.579 -0.212,1.376 11.758,-3.593 27.306,-11.411 4.016,-2.022 7.856,-4.012 11.356,-5.882 z m -257.967,30.918 c -9.807,1.012 -17.456,2.865 -16.954,3.699 0.521,0.841 9.071,0.259 18.981,-0.905 9.637,-1.132 16.771,-2.204 16.153,-2.899 -0.625,-0.676 -8.66,-0.878 -18.18,0.105 m 105.194,22.6 c 0.661,0.563 4.833,2.838 9.717,4.044 5.126,1.258 9.419,0.615 9.003,-0.167 -0.418,-0.782 -5.587,-1.208 -10.982,-2.238 -5.11,-0.988 -8.397,-2.198 -7.738,-1.639 m -12.864,-6.789 c -4.721,-2.597 -8.031,-4.416 -7.205,-4.01 0.831,0.41 5.438,2.919 10.039,5.639 4.428,2.642 7.439,4.161 6.737,3.633 -0.704,-0.519 -5.002,-2.735 -9.571,-5.262 m -136.333,-9.294 c -10.57,1.955 -18.817,4.46 -18.373,5.335 0.467,0.882 9.474,-0.162 20.077,-2.137 10.459,-1.937 18.464,-4.015 17.967,-4.882 -0.495,-0.848 -9.26,-0.217 -19.671,1.684 M 29.17,208.575 c 0.538,1.637 10.098,3.127 20.703,2.001 10.097,-1.077 17.607,-4.086 17.305,-5.409 -0.319,-1.334 -8.494,-0.735 -18.788,0.023 -10.847,0.811 -19.742,1.729 -19.22,3.385 m 318.899,-104.44 c -9.326,0.405 -16.414,1.722 -15.646,2.4 0.788,0.678 9.223,0.38 18.68,-0.146 9.156,-0.511 15.637,-0.899 14.737,-1.468 -0.904,-0.549 -8.745,-1.177 -17.771,-0.786 m -257.29,95.956 c 8.886,-3.641 15.74,-8.101 15.567,-9.068 -0.185,-0.969 -7.385,1.693 -16.345,5.039 -8.938,3.312 -16.284,6.18 -16.006,7.452 0.276,1.26 7.969,0.193 16.784,-3.423 m 402.909,-77.056 c -8.408,2.67 -14.542,4.804 -14.206,5.985 0.349,1.166 6.732,1.224 14.791,-1.106 9.035,-2.622 16.863,-7.008 16.878,-8.517 -0.005,-1.522 -8.076,0.666 -17.463,3.638 M 170.523,157.14 c 10.069,-5.327 18.187,-9.767 17.829,-10.359 -0.372,-0.57 -8.947,2.924 -18.892,8.166 -9.822,5.176 -17.344,10.073 -17.127,10.737 0.247,0.66 8.233,-3.289 18.19,-8.544 m 370.239,-53.789 c -12.333,5.922 -21.811,11.282 -21.891,12.87 -0.058,1.571 9.047,-0.968 21.108,-6.625 13.104,-6.15 24.529,-13.252 24.845,-15.083 0.322,-1.844 -10.741,2.427 -24.062,8.838 m 71.039,-35.498 c -2.606,1.202 -5.385,2.541 -8.279,3.995 -15.391,7.744 -27.828,15.504 -28.18,17.376 -0.321,1.867 11.506,-2.761 26.916,-10.473 3.34,-1.674 6.553,-3.337 9.543,-4.937 z m -197.423,45.166 c -6.108,-2.246 -10.567,-3.354 -9.52,-2.938 1.045,0.428 7.229,2.194 13.323,4.49 5.831,2.2 9.396,3.91 8.372,3.442 -1.013,-0.477 -6.311,-2.836 -12.175,-4.994 m -153.867,5.544 c -10.703,2.91 -18.881,6.235 -18.345,6.883 0.561,0.655 9.704,-1.542 20.504,-4.375 10.667,-2.811 18.804,-5.291 18.158,-6.02 -0.639,-0.707 -9.743,0.628 -20.317,3.512 m 201.294,9.753 c -5.895,-0.224 -9.817,-0.665 -9.081,0.117 0.731,0.787 5.586,2.737 11.182,3.282 5.953,0.581 10.853,-0.866 10.441,-1.967 -0.412,-1.108 -6.234,-1.192 -12.542,-1.432 m -247.654,5.768 c -10.595,4.254 -18.667,8.612 -18.28,9.19 0.399,0.588 9.217,-2.818 19.949,-7.013 10.694,-4.195 19.085,-7.607 18.559,-8.256 -0.527,-0.62 -9.661,1.835 -20.228,6.079 m -84.989,46.383 c 9.153,-5.258 16.525,-10.209 16.319,-10.904 -0.231,-0.686 -7.871,3.003 -16.978,8.037 -8.901,4.911 -15.951,9.292 -15.788,10.213 0.183,0.908 7.51,-2.219 16.447,-7.346 m 308.929,-57.658 c -5.214,-2.064 -8.668,-3.558 -7.671,-3.062 0.994,0.507 5.936,2.948 10.961,5.233 4.905,2.249 8.335,3.114 7.549,2.382 -0.79,-0.722 -5.71,-2.528 -10.839,-4.553 M 0,209.648 c 12.308,1.199 21.033,0.233 20.487,-1.383 C 19.959,206.751 11.396,204.973 0,203.341 Z M 384.84,105.596 c -7.83,-1.105 -13.741,-1.001 -12.81,-0.481 0.937,0.527 8.447,1.19 16.396,2.177 7.587,0.958 12.531,1.977 11.5,1.537 -1.038,-0.418 -7.597,-2.189 -15.086,-3.233 m -78.976,3.097 c -10.255,1.681 -18.078,4.005 -17.429,4.726 0.673,0.725 9.631,-0.399 19.974,-2.106 10.151,-1.68 17.68,-3.272 16.923,-3.982 -0.753,-0.683 -9.421,-0.293 -19.468,1.362 m 125.571,8.533 c -5.754,-1.376 -9.512,-2.347 -8.438,-1.683 1.082,0.662 6.405,2.902 11.901,4.637 5.456,1.717 9.35,1.832 8.555,0.833 -0.812,-0.99 -6.259,-2.398 -12.018,-3.787 m -216.213,11.715 c 10.283,-4.054 18.253,-7.363 17.633,-7.886 -0.611,-0.502 -9.428,1.931 -19.532,5.957 -10.115,4.012 -17.789,8.083 -17.357,8.648 0.443,0.573 8.96,-2.656 19.256,-6.719 m 130.304,-27.656 c 8.753,-0.12 14.704,-0.055 13.572,-0.484 -1.135,-0.406 -8.825,-1.197 -17.449,-1.139 -8.903,0.053 -15.48,0.96 -14.484,1.439 1.009,0.479 9.319,0.296 18.361,0.184 m 112.737,18.213 c -6.653,0.545 -11.25,0.998 -10.517,2.073 0.732,1.073 6.192,2.687 12.471,2.564 6.734,-0.133 12.242,-2.413 11.91,-3.901 -0.34,-1.504 -6.713,-1.3 -13.864,-0.736 m -200.556,-7.393 c -10.27,2.811 -18.007,5.932 -17.372,6.451 0.657,0.515 9.572,-1.774 20,-4.567 10.305,-2.763 18.021,-5.009 17.213,-5.537 -0.793,-0.521 -9.688,0.889 -19.841,3.653 M 50.826,192.06 c 10.389,-0.237 18.083,-2.849 17.671,-4.584 -0.444,-1.752 -9.028,-2.318 -19.669,-2.487 -11.267,-0.173 -20.3,0.439 -19.612,2.614 0.707,2.142 10.643,4.706 21.61,4.457 m 250.435,-89.149 c -9.843,1.464 -17.199,3.474 -16.384,4.003 0.842,0.523 9.666,-0.664 19.651,-2.146 9.778,-1.455 16.814,-2.602 15.84,-3.107 -0.973,-0.473 -9.47,-0.156 -19.107,1.25 m 104.844,6.626 c -6.23,-1.954 -10.53,-3.015 -9.323,-2.576 1.22,0.432 7.475,2.258 13.614,4.397 5.929,2.059 9.609,3.372 8.487,2.761 -1.112,-0.601 -6.744,-2.678 -12.778,-4.582 m -29.234,-7.208 c -7.546,-1.264 -13.008,-1.504 -11.858,-1.087 1.161,0.402 8.574,1.267 16.193,2.534 7.317,1.216 11.944,2.339 10.722,1.919 -1.214,-0.406 -7.794,-2.142 -15.057,-3.366 M 131.45,169.255 c 9.03,-4.486 16.184,-9.051 15.949,-9.898 -0.255,-0.847 -7.754,2.128 -16.758,6.265 -8.836,4.074 -15.87,7.895 -15.648,9.086 0.239,1.172 7.612,-1.056 16.457,-5.453 m 40.274,-20.646 c 9.714,-4.863 17.446,-9.085 17.041,-9.682 -0.405,-0.586 -8.647,2.563 -18.219,7.233 -9.447,4.608 -16.725,9.014 -16.478,9.813 0.275,0.786 8.071,-2.557 17.656,-7.364 m -96.191,37.877 c 0.384,1.65 8.329,1.604 17.368,-1.165 9.016,-2.769 15.911,-6.787 15.682,-8.038 -0.249,-1.263 -7.625,0.413 -16.755,2.77 -9.209,2.369 -16.677,4.762 -16.295,6.433 M 611.801,54.589 c -1.905,0.867 -3.893,1.811 -5.943,2.828 -15.073,7.465 -27.484,15.589 -27.999,17.975 -0.474,2.376 11.142,-1.813 26.306,-9.318 2.645,-1.311 5.207,-2.624 7.636,-3.909 z M 543.19,88.967 c -12.75,6.283 -22.769,12.454 -23.001,14.543 -0.212,2.066 9.157,-0.463 21.618,-6.43 13.367,-6.414 25.045,-14.03 25.53,-16.375 0.465,-2.364 -10.558,1.586 -24.147,8.262 m -49.575,21.972 c -9.173,3.34 -16.041,6.455 -15.785,8.046 0.251,1.572 7.181,1.388 15.943,-1.537 9.694,-3.238 18.127,-8.403 18.283,-10.391 0.151,-2.013 -8.34,0.214 -18.441,3.882 M 0,187.656 c 12.35,1.82 21,1.084 20.279,-1.003 C 19.614,184.726 11.182,182.049 0,179.666 Z m 0,-22.179 c 12.224,2.336 20.626,1.756 19.746,-0.85 C 18.935,162.277 10.799,158.78 0,155.707 Z M 369.594,99.795 c -7.412,-1.137 -12.612,-1.394 -11.323,-1.03 1.296,0.381 8.647,1.28 16.082,2.555 7.188,1.219 11.68,2.177 10.366,1.681 -1.299,-0.487 -7.943,-2.096 -15.125,-3.206 M 296.68,99.547 c -9.414,1.265 -16.347,3.045 -15.401,3.422 0.956,0.382 9.567,-0.79 19.16,-2.085 9.392,-1.251 15.986,-2.104 14.857,-2.464 -1.115,-0.359 -9.397,-0.106 -18.616,1.127 m 102.431,6.202 c -6.455,-1.474 -10.796,-2.195 -9.513,-1.648 1.3,0.53 7.664,2.282 13.966,4.073 6.14,1.715 10.056,2.467 8.921,1.632 -1.126,-0.827 -7.056,-2.614 -13.374,-4.057 M 28.926,166.223 c 0.881,2.722 11.22,6.421 22.54,7.086 10.685,0.636 18.551,-1.598 17.997,-3.822 -0.573,-2.258 -9.6,-4.096 -20.592,-5.219 -11.672,-1.19 -20.848,-0.807 -19.945,1.955 m 306.47,-69.187 c -8.552,-0.064 -14.726,0.611 -13.579,0.963 1.161,0.348 9.32,0.229 18.005,0.31 8.428,0.08 14.004,0.326 12.72,-0.041 -1.27,-0.362 -8.835,-1.153 -17.146,-1.232 M 546.162,74.198 c -13.046,6.516 -23.518,13.48 -23.959,16.121 -0.411,2.607 9.123,0.215 21.887,-6.009 13.522,-6.589 25.381,-14.658 26.034,-17.536 0.645,-2.904 -10.251,0.579 -23.962,7.424 m -349.939,54.99 c 0.471,0.638 8.699,-2.181 18.549,-5.919 9.851,-3.749 17.406,-6.795 16.734,-7.277 -0.67,-0.463 -9.128,1.719 -18.781,5.303 -9.647,3.57 -16.962,7.246 -16.502,7.893 m 259.885,-19.45 c -7.369,1.284 -12.641,2.732 -11.995,4.191 0.663,1.434 6.621,2.76 13.557,1.974 7.441,-0.845 13.574,-3.994 13.389,-5.938 -0.209,-1.975 -7.033,-1.604 -14.951,-0.227 m 38.475,-11.667 c -9.851,3.95 -17.416,8.07 -17.317,10.15 0.103,2.044 7.457,1.702 16.846,-1.775 10.265,-3.799 19.269,-9.745 19.617,-12.265 0.341,-2.559 -8.439,-0.398 -19.146,3.89 M 76.721,169.194 c 0.508,2.121 8.732,3.198 18.013,1.335 9.161,-1.844 16.121,-5.429 15.804,-7.045 -0.337,-1.643 -7.937,-1.108 -17.249,0.233 -9.505,1.348 -17.069,3.32 -16.568,5.477 m 79.033,-22.521 c 0.302,0.996 7.949,-1.591 17.224,-5.777 9.382,-4.257 16.763,-8.135 16.338,-8.826 -0.441,-0.687 -8.375,1.888 -17.629,5.805 -9.145,3.873 -16.239,7.778 -15.933,8.798 m 270.555,-35.876 c -6.296,-0.654 -10.493,-0.884 -9.419,0.026 1.085,0.906 6.773,2.937 12.756,4.026 6.019,1.108 10.421,0.394 9.695,-0.953 -0.737,-1.357 -6.638,-2.429 -13.032,-3.099 m -171.246,-2.973 c -9.793,2.57 -17.11,5.407 -16.41,5.867 0.718,0.453 9.349,-1.731 19.349,-4.353 9.891,-2.589 17.168,-4.564 16.256,-4.971 -0.91,-0.377 -9.503,0.925 -19.195,3.457 M 611.801,41.488 c -1.187,0.534 -2.403,1.1 -3.644,1.697 -14.623,7.04 -26.92,15.419 -27.583,18.332 -0.634,2.9 10.686,-0.759 25.511,-7.962 1.96,-0.951 3.873,-1.909 5.716,-2.86 z M 117.012,161.596 c 0.307,1.514 7.761,0.303 16.564,-3.274 8.941,-3.628 15.931,-7.771 15.65,-8.847 -0.298,-1.097 -7.724,0.966 -16.66,4.139 -8.833,3.145 -15.85,6.432 -15.554,7.982 M 611.801,28.608 c -0.507,0.225 -1.019,0.456 -1.535,0.695 -14.049,6.467 -26.089,14.987 -26.903,18.412 -0.781,3.42 10.15,0.361 24.553,-6.416 1.32,-0.623 2.617,-1.251 3.885,-1.88 z m -115.31,55.83 c -10.43,4.489 -18.669,9.608 -18.776,12.251 -0.094,2.589 7.569,2.19 17.506,-1.786 10.743,-4.298 20.276,-10.995 20.843,-14.095 0.566,-3.162 -8.371,-1.178 -19.573,3.63 m -41.21,14.499 c -8.031,1.988 -13.993,4.481 -13.494,6.418 0.503,1.892 6.879,3.002 14.416,1.579 8.08,-1.521 14.847,-5.568 14.855,-8.041 -0.009,-2.53 -7.18,-2.085 -15.777,0.044 m -61.693,2.119 c -6.725,-0.908 -11.268,-1.041 -9.997,-0.277 1.282,0.774 7.762,2.424 14.287,3.729 6.409,1.289 10.648,1.316 9.59,0.151 -1.059,-1.17 -7.23,-2.702 -13.88,-3.603 M 549.535,59.153 c -13.205,6.626 -24.084,14.307 -24.731,17.54 -0.634,3.191 8.946,1.019 21.913,-5.347 13.574,-6.679 25.545,-15.105 26.362,-18.522 0.823,-3.441 -9.85,-0.54 -23.544,6.329 m -126.82,44.088 c -6.819,0.07 -11.53,0.717 -10.538,1.988 0.99,1.261 7.013,3.069 13.468,3.528 6.57,0.467 11.505,-1.137 10.92,-2.92 -0.607,-1.816 -6.847,-2.671 -13.85,-2.596 m -59.269,-6.297 c -7.373,-0.848 -12.471,-0.868 -11.146,-0.4 1.342,0.491 8.626,1.396 15.98,2.485 7.151,1.047 11.658,1.629 10.349,0.919 -1.292,-0.699 -7.986,-2.171 -15.183,-3.004 m -206.121,40.202 c 0.347,1.319 7.881,-0.359 16.899,-3.833 9.114,-3.528 16.188,-7.081 15.739,-7.982 -0.467,-0.921 -8.15,0.872 -17.149,3.954 -8.913,3.058 -15.843,6.498 -15.489,7.861 M 329.866,94.809 c -8.278,-0.052 -14.167,0.629 -12.955,0.998 1.227,0.369 9.205,0.314 17.603,0.442 8.174,0.131 13.511,0.319 12.177,-0.134 -1.318,-0.44 -8.746,-1.261 -16.825,-1.306 m -211.145,53.226 c 0.392,1.965 7.957,1.874 16.766,-0.831 8.879,-2.726 15.738,-6.47 15.41,-7.888 -0.353,-1.462 -7.767,-0.458 -16.674,1.707 -8.889,2.157 -15.904,4.997 -15.502,7.012 m 77.898,-25.117 c 0.49,0.827 8.444,-1.396 17.886,-4.659 9.453,-3.275 16.612,-6.08 15.923,-6.655 -0.698,-0.571 -8.802,1.133 -18.05,4.151 -9.236,2.992 -16.251,6.308 -15.759,7.163 m 40.639,-13.327 c 0.738,0.533 9.064,-1.37 18.635,-3.713 9.472,-2.332 16.357,-4.106 15.393,-4.52 -0.956,-0.393 -9.215,0.659 -18.473,2.857 -9.338,2.229 -16.292,4.84 -15.555,5.376 m 55.327,-12.6 c -9.01,1.09 -15.576,2.739 -14.58,3.13 1.012,0.384 9.359,-0.668 18.564,-1.786 9.026,-1.104 15.259,-1.804 14.063,-2.179 -1.179,-0.364 -9.202,-0.238 -18.047,0.835 M 0,143.056 c 11.935,2.692 19.953,2.157 18.908,-0.992 -0.945,-2.77 -8.645,-6.96 -18.908,-10.621 z m 77.53,8.284 c 0.66,2.683 9.175,4.973 18.708,4.049 9.315,-0.897 16.338,-4.092 15.922,-6.174 -0.436,-2.135 -8.305,-2.853 -17.818,-2.551 -9.808,0.305 -17.471,1.934 -16.812,4.676 m -49.222,-7.06 c 1.112,3.368 11.815,8.24 23.464,9.848 10.983,1.502 18.98,-0.397 18.277,-3.205 -0.737,-2.861 -10.197,-6.066 -21.537,-8.128 -12.041,-2.187 -21.288,-1.952 -20.204,1.485 M 0,120.384 c 11.499,2.859 19.028,2.239 17.833,-1.455 C 16.79,115.754 9.612,111.042 0,106.921 Z m 197.131,-4.273 c 0.504,1.164 8.221,-0.283 17.304,-3.002 9.093,-2.744 15.922,-5.36 15.244,-6.188 -0.705,-0.846 -8.475,0.2 -17.385,2.568 -8.893,2.377 -15.677,5.4 -15.163,6.622 m -38.381,10.776 c 0.406,1.769 7.868,1.155 16.683,-1.581 8.891,-2.747 15.71,-6.036 15.252,-7.293 -0.496,-1.311 -7.985,-0.467 -16.788,1.747 -8.757,2.206 -15.547,5.281 -15.147,7.127 m -38.648,6.789 c 0.504,2.524 8.193,3.634 17.052,1.844 8.851,-1.809 15.621,-5.222 15.232,-7.116 -0.418,-1.961 -7.88,-2.144 -16.801,-0.995 -8.989,1.161 -15.991,3.656 -15.483,6.267 m -42.14,-0.98 c 0.828,3.348 9.649,6.898 19.44,6.939 9.482,0.034 16.571,-2.831 16.036,-5.496 -0.554,-2.741 -8.716,-4.825 -18.449,-5.54 -10.114,-0.738 -17.856,0.667 -17.027,4.097 m -50.546,-10.99 c 1.309,4.094 12.398,10.154 24.35,12.662 11.265,2.353 19.383,0.698 18.497,-2.788 -0.918,-3.562 -10.802,-8.186 -22.468,-11.143 -12.363,-3.125 -21.67,-2.907 -20.379,1.269 M 455.669,87.045 c -8.618,2.645 -15.269,6.205 -14.979,8.717 0.286,2.44 6.964,3.426 15.059,1.424 8.638,-2.155 16.023,-7.102 16.277,-10.178 0.245,-3.158 -7.171,-2.773 -16.357,0.037 m -219.438,18.2 c 0.723,0.776 8.756,-0.629 17.92,-2.663 9.089,-2.011 15.638,-3.706 14.686,-4.308 -0.956,-0.597 -8.87,0.023 -17.744,1.857 -8.939,1.848 -15.609,4.322 -14.862,5.114 m 153.35,-10.182 c -7.013,-0.306 -11.862,0.293 -10.685,1.432 1.179,1.128 7.752,2.708 14.519,3.515 6.706,0.794 11.311,0.011 10.422,-1.6 -0.921,-1.639 -7.252,-3.028 -14.256,-3.347 m -30.945,-2.021 c -7.401,-0.485 -12.538,-0.044 -11.255,0.694 1.292,0.75 8.5,1.686 15.836,2.502 7.179,0.77 11.804,0.809 10.6,-0.254 -1.216,-1.047 -7.912,-2.462 -15.181,-2.942 m -69.386,0.97 c -8.661,0.947 -14.958,2.609 -13.968,3.197 0.998,0.576 9.072,-0.209 17.924,-1.192 8.702,-0.956 14.664,-1.712 13.485,-2.276 -1.172,-0.55 -8.913,-0.668 -17.441,0.271 m 36.122,-2.101 c -8.074,0.058 -13.801,0.935 -12.605,1.506 1.212,0.561 8.988,0.647 17.157,0.729 7.984,0.079 13.207,0.002 11.918,-0.698 -1.284,-0.693 -8.556,-1.589 -16.47,-1.537 m 95.223,2.478 c -7.32,0.768 -12.59,2.382 -11.75,4.139 0.827,1.715 7.107,3.396 14.01,3.224 7.092,-0.169 12.579,-2.707 12.203,-5.021 -0.402,-2.378 -6.897,-3.136 -14.463,-2.342 M 78.054,113.128 c 1.009,4.105 10.143,8.979 20.186,9.959 9.66,0.948 16.806,-1.695 16.148,-5.058 -0.695,-3.473 -9.16,-7.01 -19.122,-8.692 -10.407,-1.752 -18.223,-0.428 -17.212,3.791 M 322.032,87.647 c -7.931,0.181 -13.616,1.459 -12.493,2.422 1.116,0.935 8.687,1.275 16.682,1.256 7.846,-0.016 13.045,-0.535 11.891,-1.653 -1.179,-1.126 -8.268,-2.214 -16.08,-2.025 m 33.174,-0.013 c -7.467,-0.093 -12.75,0.962 -11.586,2.152 1.155,1.166 8.275,2.244 15.64,2.722 7.247,0.465 12.08,-0.219 11.049,-1.75 -1.054,-1.573 -7.717,-3.02 -15.103,-3.124 M 0,97.505 C 10.957,100.342 17.941,99.51 16.616,95.281 15.486,91.749 8.889,86.678 0,82.243 Z m 26.336,1.028 c 1.5,4.862 12.941,12.088 25.148,15.432 11.537,3.147 19.724,1.64 18.665,-2.616 C 69.042,106.995 58.763,100.946 46.802,97.183 34.179,93.232 24.824,93.585 26.336,98.533 m 260.456,-8.756 c -8.375,0.837 -14.513,2.655 -13.568,3.638 0.933,0.938 8.73,0.579 17.277,-0.275 8.422,-0.85 14.211,-1.825 13.123,-2.747 -1.11,-0.938 -8.555,-1.425 -16.832,-0.616 m -89.038,18.461 c 0.505,1.661 8.029,1.14 16.818,-1.009 8.796,-2.161 15.354,-4.716 14.712,-5.965 -0.692,-1.312 -8.179,-1.108 -16.816,0.62 -8.635,1.736 -15.23,4.596 -14.714,6.354 m -76.587,10.024 c 0.623,3.213 8.472,5.623 17.408,4.722 8.857,-0.896 15.555,-4.088 15.11,-6.587 -0.5,-2.599 -8.052,-4.109 -17.021,-3.926 -9.122,0.174 -16.124,2.465 -15.497,5.791 M 235.6,99.942 c 0.692,1.181 8.441,0.446 17.256,-1.244 8.751,-1.685 15.039,-3.425 14.156,-4.396 -0.921,-0.998 -8.499,-0.961 -17.06,0.481 -8.612,1.459 -15.071,3.913 -14.352,5.159 m -75.579,15.585 c 0.457,2.361 7.891,2.881 16.571,0.934 8.716,-1.962 15.346,-5.079 14.875,-6.848 -0.514,-1.858 -7.877,-2.117 -16.543,-0.759 -8.67,1.351 -15.368,4.203 -14.903,6.673 m 52.87,-22.975 c -8.454,1.103 -14.929,3.953 -14.409,6.407 0.503,2.31 7.873,2.838 16.428,1.269 8.555,-1.582 14.924,-4.199 14.331,-6.035 -0.649,-1.956 -7.91,-2.726 -16.35,-1.641 M 0,74.521 C 10.368,77.157 16.808,76.022 15.387,71.296 14.226,67.452 8.182,62.17 0,57.568 Z m 252.029,19.21 c 8.476,-1.329 14.58,-3.287 13.803,-4.797 -0.835,-1.601 -8.118,-2.288 -16.441,-1.235 -8.36,1.072 -14.682,3.651 -14.018,5.532 0.634,1.758 8.128,1.827 16.656,0.5 M 77.867,92.602 c 1.177,4.95 10.644,11.129 20.922,13.031 9.849,1.808 17.045,-0.71 16.253,-4.886 -0.835,-4.32 -9.61,-9.357 -19.808,-11.926 -10.68,-2.669 -18.546,-1.304 -17.367,3.781 m 59.622,3.423 c -9.283,-0.764 -16.3,1.46 -15.538,5.623 0.74,4.016 8.776,7.782 17.819,7.758 8.889,-0.018 15.568,-3.098 15.04,-6.337 -0.571,-3.384 -8.266,-6.284 -17.321,-7.044 M 25.185,74.901 C 26.854,80.549 38.583,88.877 51,92.941 62.773,96.81 71.018,95.319 69.776,90.22 68.483,85.006 57.854,77.572 45.65,73.153 32.849,68.544 23.514,69.168 25.185,74.901 m 150.716,21.397 c -8.645,0.516 -15.282,3.292 -14.75,6.53 0.523,3.089 7.954,4.854 16.552,3.67 8.588,-1.194 15.092,-4.256 14.607,-6.683 -0.517,-2.567 -7.821,-4.029 -16.409,-3.517 M 94.98,67.123 C 84.066,63.635 76.136,65.207 77.489,71.2 c 1.341,5.844 11.112,13.331 21.614,16.067 10.039,2.608 17.283,0.085 16.355,-5 C 114.492,77.01 105.409,70.478 94.98,67.123 M 44.484,48.608 C 31.598,43.559 22.303,44.595 24.099,51.065 25.893,57.469 37.851,66.72 50.4,71.407 62.378,75.856 70.647,74.283 69.235,68.303 67.775,62.195 56.866,53.492 44.484,48.608 M 0,51.622 C 9.804,53.948 15.767,52.433 14.295,47.261 13.116,43.153 7.556,37.762 0,33.125 Z M 348.7,0 c -0.624,1.553 -1.059,3.162 -1.264,4.794 -0.309,2.46 -0.054,4.691 0.646,6.606 -1.812,2.511 -3.048,5.329 -3.352,8.2 -0.255,2.437 0.192,4.61 1.182,6.396 -1.997,2.315 -3.302,4.962 -3.501,7.642 -0.178,2.352 0.533,4.413 1.894,6.009 -2.216,2.099 -3.623,4.536 -3.701,6.993 -0.067,2.227 1.017,4.107 2.84,5.496 -2.532,1.827 -4.085,4.035 -4.007,6.235 0.071,2.067 1.652,3.763 4.102,4.893 -2.962,1.53 -4.76,3.46 -4.501,5.382 0.257,1.881 2.55,3.373 5.853,4.24 -3.628,1.177 -5.837,2.811 -5.363,4.448 0.501,1.699 3.969,2.996 8.526,3.608 -4.777,0.721 -7.778,2.065 -7.03,3.429 0.956,1.728 7.964,3.055 15.383,3.2 7.348,0.143 12.44,-1.354 11.651,-3.495 -0.56,-1.492 -3.708,-2.765 -8.023,-3.313 4.488,-0.863 7.318,-2.768 6.933,-4.889 -0.301,-1.653 -2.395,-3.022 -5.524,-3.796 3.464,-1.381 5.609,-3.598 5.481,-5.909 -0.105,-1.822 -1.566,-3.334 -3.895,-4.349 2.876,-1.781 4.69,-4.235 4.757,-6.762 0.049,-1.973 -0.965,-3.638 -2.696,-4.889 2.491,-2.096 4.106,-4.755 4.33,-7.481 0.171,-2.096 -0.502,-3.916 -1.779,-5.364 2.208,-2.344 3.692,-5.167 4.043,-8.068 0.257,-2.184 -0.139,-4.138 -1.078,-5.746 1.997,-2.532 3.38,-5.48 3.821,-8.512 0.329,-2.231 0.099,-4.252 -0.563,-5.992 1.83,-2.667 3.146,-5.697 3.652,-8.824 L 377.546,0 Z m 34.851,0 c -0.227,2.076 -0.032,3.941 0.496,5.548 -1.812,2.606 -3.082,5.426 -3.516,8.223 -0.386,2.496 -0.069,4.679 0.819,6.433 -1.975,2.494 -3.319,5.212 -3.662,7.883 -0.321,2.45 0.263,4.526 1.49,6.118 -2.195,2.332 -3.633,4.916 -3.866,7.426 -0.221,2.363 0.684,4.314 2.36,5.689 -2.457,2.127 -4.025,4.531 -4.119,6.842 -0.086,2.243 1.268,4.02 3.505,5.173 -2.815,1.88 -4.581,4.057 -4.501,6.151 0.084,2.096 2.055,3.71 5.047,4.613 -3.351,1.561 -5.424,3.483 -5.138,5.345 0.305,1.951 3.226,3.422 7.263,4.081 -4.215,1.167 -6.857,2.774 -6.318,4.413 0.638,1.909 5.562,3.409 11.467,3.734 -6.131,0.477 -10.26,1.765 -9.355,3.266 0.99,1.618 7.627,3.239 14.642,3.515 7.013,0.288 12.035,-1.39 11.369,-3.553 -0.579,-1.842 -5.062,-3.14 -10.77,-3.353 5.911,-0.647 10.043,-3.011 9.693,-5.478 -0.264,-1.845 -2.926,-3.178 -6.811,-3.67 4.162,-1.5 6.906,-4.016 6.845,-6.47 -0.049,-1.96 -1.863,-3.404 -4.745,-4.154 3.383,-1.953 5.597,-4.639 5.744,-7.221 0.114,-2.078 -1.124,-3.686 -3.281,-4.678 2.873,-2.274 4.793,-5.082 5.101,-7.804 0.241,-2.182 -0.595,-3.935 -2.205,-5.166 2.533,-2.482 4.255,-5.404 4.689,-8.247 0.345,-2.263 -0.182,-4.159 -1.383,-5.583 2.253,-2.638 3.852,-5.614 4.382,-8.55 0.413,-2.315 0.12,-4.312 -0.741,-5.905 2.03,-2.721 3.503,-5.725 4.091,-8.709 0.44,-2.248 0.33,-4.234 -0.225,-5.912 z m -68.943,0 c -1.147,2.177 -1.898,4.582 -2.108,7.089 -0.207,2.484 0.157,4.781 0.954,6.787 -1.89,2.411 -3.111,5.272 -3.3,8.276 -0.149,2.442 0.405,4.669 1.512,6.524 -2.086,2.195 -3.402,4.848 -3.495,7.62 -0.075,2.351 0.765,4.453 2.264,6.112 -2.346,1.945 -3.813,4.338 -3.783,6.834 0.026,2.207 1.26,4.127 3.279,5.523 -2.737,1.65 -4.4,3.798 -4.227,5.995 0.16,2.025 1.948,3.705 4.663,4.802 -3.283,1.362 -5.282,3.228 -4.941,5.108 0.336,1.814 2.963,3.217 6.662,3.968 -4.15,1.046 -6.719,2.661 -6.171,4.221 0.58,1.62 4.704,2.715 9.986,3.075 -5.707,0.672 -9.451,2.097 -8.637,3.363 0.958,1.472 8.32,2.201 16.188,2.067 7.758,-0.12 13.02,-1.256 12.062,-2.93 -0.73,-1.256 -4.543,-2.365 -9.551,-2.726 5.289,-0.641 8.619,-2.241 8.034,-4.145 -0.451,-1.446 -2.895,-2.677 -6.392,-3.387 3.841,-1.089 6.174,-3.024 5.862,-5.157 -0.243,-1.646 -1.916,-3.078 -4.481,-4.058 3.069,-1.482 4.932,-3.701 4.828,-6.104 -0.084,-1.826 -1.253,-3.44 -3.151,-4.683 2.588,-1.82 4.196,-4.299 4.254,-6.964 0.045,-1.983 -0.76,-3.77 -2.163,-5.237 2.262,-2.109 3.711,-4.814 3.905,-7.712 0.14,-2.101 -0.386,-4.032 -1.419,-5.679 2.028,-2.351 3.368,-5.249 3.669,-8.345 0.211,-2.165 -0.125,-4.174 -0.852,-5.956 1.85,-2.553 3.105,-5.614 3.487,-8.867 0.226,-1.917 0.128,-3.737 -0.239,-5.414 z m -35.287,0 c -0.788,1.854 -1.27,3.896 -1.365,6.05 -0.115,2.582 0.352,5.023 1.264,7.186 -1.989,2.375 -3.255,5.341 -3.345,8.588 -0.065,2.553 0.61,4.935 1.846,6.952 -2.246,2.125 -3.64,4.871 -3.646,7.862 0,2.462 0.964,4.714 2.614,6.513 -2.576,1.863 -4.148,4.364 -4.057,7.056 0.086,2.323 1.459,4.387 3.672,5.88 -3.041,1.593 -4.895,3.839 -4.685,6.201 0.195,2.142 2.183,3.935 5.165,5.051 -3.72,1.345 -6.024,3.345 -5.673,5.369 0.345,1.937 3.288,3.384 7.419,4.019 -4.796,1.118 -7.891,2.943 -7.361,4.629 0.565,1.793 5.551,2.77 11.785,2.688 -6.974,0.87 -11.87,2.762 -11.095,4.18 0.825,1.475 8.358,1.697 16.655,0.961 8.201,-0.724 13.894,-2.103 12.957,-3.56 -0.779,-1.211 -5.479,-2.092 -11.447,-2.045 6.527,-0.794 10.85,-2.498 10.179,-4.391 -0.491,-1.387 -3.284,-2.526 -7.215,-3.096 4.426,-1.072 7.163,-2.98 6.772,-5.1 -0.299,-1.605 -2.188,-3.006 -5.02,-3.965 3.427,-1.382 5.514,-3.544 5.317,-5.965 -0.154,-1.806 -1.469,-3.44 -3.553,-4.718 2.822,-1.672 4.539,-4.116 4.497,-6.835 -0.035,-1.975 -0.957,-3.804 -2.498,-5.34 2.409,-1.971 3.914,-4.661 3.993,-7.663 0.058,-2.095 -0.588,-4.063 -1.715,-5.796 2.13,-2.238 3.478,-5.171 3.662,-8.415 0.126,-2.181 -0.309,-4.253 -1.137,-6.128 1.909,-2.478 3.167,-5.584 3.432,-9.019 0.167,-2.211 -0.092,-4.333 -0.68,-6.289 0.183,-0.28 0.359,-0.567 0.529,-0.86 z m -36.3,0 c -0.041,0.475 -0.063,0.957 -0.066,1.449 -0.017,2.765 0.569,5.444 1.63,7.854 -2.162,2.32 -3.465,5.484 -3.447,9.098 0.026,2.775 0.838,5.426 2.233,7.726 -2.454,2.078 -3.956,5.004 -3.873,8.364 0.068,2.72 1.184,5.28 3.029,7.356 -2.856,1.807 -4.603,4.497 -4.449,7.556 0.125,2.61 1.683,4.991 4.123,6.743 -3.405,1.554 -5.514,4.006 -5.282,6.736 0.212,2.457 2.409,4.583 5.697,5.863 -4.206,1.345 -6.889,3.607 -6.557,5.992 0.326,2.3 3.628,4.047 8.233,4.653 -5.516,1.192 -9.215,3.403 -8.756,5.471 0.565,2.498 7.831,3.503 16.13,2.531 8.261,-0.973 14.273,-3.292 13.615,-5.501 -0.462,-1.529 -3.615,-2.683 -8.015,-3.173 5.136,-1.182 8.441,-3.319 8.05,-5.655 -0.296,-1.733 -2.399,-3.224 -5.508,-4.26 3.89,-1.378 6.306,-3.692 6.075,-6.333 -0.176,-1.928 -1.642,-3.699 -3.919,-5.113 3.142,-1.631 5.068,-4.187 4.955,-7.145 -0.076,-2.093 -1.131,-4.067 -2.818,-5.774 2.647,-1.905 4.266,-4.714 4.261,-7.97 -0.009,-2.214 -0.755,-4.345 -2.022,-6.25 2.291,-2.182 3.723,-5.219 3.799,-8.734 0.05,-2.282 -0.473,-4.501 -1.419,-6.54 2.038,-2.423 3.314,-5.675 3.456,-9.401 0.072,-1.9 -0.158,-3.764 -0.633,-5.543 z m -34.938,0 c 0.188,0.483 0.389,0.961 0.604,1.432 -2.378,2.23 -3.761,5.587 -3.59,9.678 0.138,3.084 1.148,6.134 2.772,8.837 -2.733,1.968 -4.342,5.119 -4.137,8.994 0.171,3.097 1.506,6.122 3.605,8.653 -3.202,1.676 -5.122,4.613 -4.87,8.217 0.216,3.048 2.003,5.972 4.75,8.187 -3.828,1.425 -6.208,4.124 -5.908,7.422 0.271,2.975 2.772,5.701 6.449,7.406 -4.764,1.181 -7.846,3.738 -7.499,6.733 0.355,2.923 4.155,5.335 9.353,6.179 -6.318,1.03 -10.72,3.608 -10.295,6.348 0.503,3.106 7.747,4.791 16.13,3.785 8.373,-1.003 14.621,-3.815 14.089,-6.398 -0.404,-1.909 -3.987,-3.337 -8.93,-3.95 5.923,-1.14 9.92,-3.678 9.544,-6.515 -0.28,-2.055 -2.603,-3.875 -6.028,-5.169 4.408,-1.312 7.207,-3.921 6.938,-7.014 -0.19,-2.22 -1.847,-4.317 -4.361,-6.045 3.529,-1.564 5.711,-4.345 5.535,-7.746 -0.124,-2.352 -1.324,-4.645 -3.214,-6.663 2.947,-1.822 4.728,-4.85 4.623,-8.536 -0.071,-2.439 -0.953,-4.853 -2.387,-7.056 2.523,-2.112 4.037,-5.362 3.992,-9.296 -0.032,-2.474 -0.674,-4.939 -1.766,-7.244 2.206,-2.373 3.528,-5.819 3.532,-9.944 0,-0.099 -0.001,-0.196 -0.002,-0.295 z m 211.956,0 c -0.593,1.331 -1.037,2.666 -1.31,3.979 -0.528,2.595 -0.325,4.804 0.495,6.533 -2.014,2.66 -3.438,5.454 -3.939,8.125 -0.489,2.589 -0.041,4.708 1.092,6.283 -2.257,2.603 -3.788,5.369 -4.219,7.962 -0.414,2.549 0.318,4.565 1.869,5.928 -2.519,2.512 -4.196,5.188 -4.512,7.659 -0.311,2.483 0.817,4.359 2.908,5.478 -2.869,2.363 -4.737,4.921 -4.914,7.241 -0.176,2.393 1.502,4.119 4.292,4.938 -3.352,2.169 -5.507,4.577 -5.509,6.736 0.002,2.305 2.497,3.854 6.244,4.372 -4.089,1.895 -6.732,4.123 -6.518,6.122 0.249,2.273 4.163,3.768 9.412,3.809 -5.439,1.512 -9.093,3.528 -8.604,5.422 0.6,2.281 7.066,3.922 14.389,3.172 7.562,-0.77 13.619,-4.279 13.504,-7.215 -0.102,-2.256 -3.833,-3.304 -9.108,-3.059 5.592,-1.947 9.664,-5.345 9.811,-8.191 0.102,-2.238 -2.262,-3.514 -6.017,-3.733 4.297,-2.449 7.301,-5.702 7.626,-8.505 0.257,-2.297 -1.334,-3.784 -4.135,-4.374 3.553,-2.692 6.037,-5.889 6.496,-8.732 0.375,-2.361 -0.691,-4.03 -2.793,-4.94 3.044,-2.815 5.187,-5.987 5.757,-8.874 0.469,-2.407 -0.234,-4.23 -1.797,-5.405 2.653,-2.873 4.557,-6 5.197,-8.917 0.529,-2.425 0.095,-4.353 -1.049,-5.744 2.344,-2.873 4.047,-5.947 4.722,-8.863 0.564,-2.423 0.348,-4.442 -0.488,-5.99 0.295,-0.404 0.58,-0.809 0.853,-1.217 z m 177.813,0 c -3.857,2.957 -6.468,5.895 -6.946,8.095 -0.598,2.798 2.455,3.667 7.681,2.866 -5.544,3.721 -9.381,7.452 -9.941,9.904 -0.706,3.125 4.226,3.186 12.005,0.861 -8.05,4.74 -13.91,9.677 -14.557,12.393 -0.907,3.916 9.59,1.526 23.477,-4.725 0.752,-0.339 1.495,-0.681 2.23,-1.024 V 0 Z M 23.056,0 c -0.618,1.129 -0.76,2.555 -0.338,4.261 1.359,5.614 8.392,12.749 17.047,18.343 -10.884,-3.503 -18.2,-1.618 -16.536,4.772 1.871,7.069 13.939,17.066 26.558,22.185 12.129,4.902 20.395,3.113 18.848,-3.747 -1.14,-5.002 -7.126,-11.432 -15.029,-16.536 9.762,2.988 15.94,0.545 14.487,-6.202 C 67.135,18.677 63.177,13.392 57.652,8.71 64.808,9.708 68.981,6.701 67.728,0.498 67.694,0.333 67.657,0.167 67.616,0 Z m 100.489,0 c -0.064,0.863 -0.031,1.794 0.108,2.787 0.567,3.985 2.739,8.275 5.829,12.136 -4.361,0.856 -6.85,4.037 -6.102,9.015 0.633,4.227 3.468,8.833 7.445,12.663 -5.277,0.325 -8.455,3.228 -7.682,8.114 0.713,4.489 4.612,9.428 9.871,12.962 -6.632,-0.367 -10.952,2.267 -10.141,7.08 0.887,5.275 7.729,11.097 15.839,13.391 -0.201,-0.041 -0.4,-0.084 -0.603,-0.119 -9.459,-1.654 -16.506,0.663 -15.611,5.761 0.87,4.92 9.1,10.067 18.269,10.897 8.948,0.811 15.624,-2.272 15.02,-6.377 -0.557,-3.711 -6.541,-7.432 -14.069,-9.473 8.979,1.521 15.606,-1.663 14.935,-6.72 -0.447,-3.296 -3.754,-6.772 -8.405,-9.554 5.945,-0.159 9.767,-3.232 9.199,-7.967 -0.395,-3.259 -2.759,-6.734 -6.201,-9.793 4.676,-0.782 7.506,-4.025 6.962,-8.867 -0.359,-3.22 -2.132,-6.653 -4.772,-9.827 3.838,-1.267 6.045,-4.714 5.544,-9.678 -0.312,-3.149 -1.681,-6.479 -3.75,-9.632 2.416,-1.253 4.024,-3.596 4.493,-6.799 z M 76.309,0 c -0.349,1.181 -0.389,2.578 -0.076,4.182 0.91,4.675 4.64,10.074 9.642,14.779 -6.551,-0.652 -10.466,2.095 -9.313,7.685 1.089,5.247 6.351,11.551 13.084,16.326 -8.411,-1.899 -13.898,0.357 -12.63,6.142 1.475,6.753 11.532,15.471 22.229,18.944 10.23,3.304 17.518,0.673 16.455,-5.382 -0.724,-4.155 -5.1,-9.029 -11.047,-13.024 7.426,1.266 12.156,-1.695 11.189,-7.492 -0.653,-3.894 -3.71,-8.341 -8.05,-12.334 5.702,0.104 9.054,-3.148 8.174,-8.814 -0.578,-3.69 -2.87,-7.796 -6.177,-11.641 4.511,-0.666 7.06,-4.013 6.41,-9.371 z M 0,29.056 C 9.358,31.012 14.978,29.104 13.491,23.543 12.324,19.195 7.115,13.721 0,9.159 Z M 0,0 V 7.164 C 9.102,8.769 14.563,6.482 13.119,0.584 13.071,0.391 13.016,0.196 12.955,0 Z m 166.68,0 c 0.443,3.107 1.675,6.258 3.446,9.154 -3.115,1.724 -4.893,5.053 -4.467,9.527 0.336,3.559 2.016,7.2 4.515,10.364 -3.665,1.376 -5.823,4.491 -5.375,8.77 0.381,3.624 2.563,7.331 5.806,10.25 -4.409,1.018 -7.126,3.914 -6.653,7.959 0.43,3.67 3.436,7.341 7.708,9.792 -5.49,0.678 -9.069,3.402 -8.577,7.222 0.503,3.858 5.209,7.496 11.356,8.932 -7.449,0.256 -12.823,2.964 -12.277,6.698 0.585,3.947 8.05,7.031 16.612,6.591 8.51,-0.449 14.933,-3.585 14.442,-6.818 -0.396,-2.58 -4.691,-4.727 -10.45,-5.828 6.961,-0.513 11.853,-3.494 11.422,-7.176 -0.311,-2.584 -3.012,-5.027 -6.9,-6.893 5.044,-0.99 8.298,-3.885 7.95,-7.692 -0.258,-2.669 -2.161,-5.334 -5.025,-7.601 3.994,-1.345 6.46,-4.382 6.155,-8.421 -0.208,-2.739 -1.629,-5.519 -3.804,-8.033 3.319,-1.645 5.277,-4.924 5.02,-9.203 -0.175,-2.767 -1.23,-5.604 -2.93,-8.231 2.806,-1.992 4.452,-5.445 4.232,-9.918 -0.14,-2.742 -0.951,-5.543 -2.265,-8.203 C 197.025,0.864 197.4,0.45 197.745,0 Z m 379.008,0 c -1.951,2.218 -3.281,4.354 -3.774,6.191 -0.742,2.825 0.648,4.455 3.56,4.825 -3.777,3.326 -6.379,6.57 -7.049,9.085 -0.784,2.972 1.304,4.312 5.298,4.036 -4.85,3.805 -8.209,7.509 -8.899,10.138 -0.829,3.142 2.397,4.015 8.022,2.729 -6.391,4.442 -10.895,8.791 -11.591,11.538 -0.857,3.448 4.613,3.363 13.178,0.197 -9.108,5.432 -15.873,11.019 -16.568,13.991 -0.861,3.804 8.673,1.976 21.726,-4.451 13.517,-6.661 25.499,-15.351 26.468,-19.296 0.723,-2.987 -5.004,-2.454 -13.692,0.888 8.96,-5.452 15.767,-11.172 16.571,-14.475 0.646,-2.688 -2.761,-3.204 -8.473,-1.783 6.125,-4.301 10.456,-8.53 11.124,-11.406 0.585,-2.497 -1.658,-3.529 -5.689,-3.16 4.192,-3.314 7.098,-6.53 7.889,-9.047 z m -46.932,0 c -0.053,0.167 -0.101,0.333 -0.146,0.498 -0.727,2.753 -0.182,4.781 1.372,5.982 -2.672,2.941 -4.55,5.864 -5.219,8.408 -0.74,2.832 0.156,4.745 2.26,5.634 -3.208,3.141 -5.424,6.263 -6.078,8.85 -0.718,2.896 0.665,4.615 3.5,5.088 -3.861,3.357 -6.528,6.676 -7.134,9.285 -0.682,2.949 1.418,4.4 5.276,4.285 -4.764,3.587 -8.036,7.166 -8.567,9.783 -0.616,3.044 2.658,4.106 8.072,3.065 -6.12,3.921 -10.437,7.883 -10.869,10.534 -0.543,3.359 5.363,3.687 13.889,0.635 -8.944,4.51 -15.717,9.491 -16.035,12.353 -0.341,3.204 7.519,2.844 17.924,-1.544 11.133,-4.711 21.144,-12.126 21.952,-15.851 0.697,-3.199 -5.688,-2.489 -14.731,0.995 9.371,-4.961 17.12,-11.386 18.024,-15.104 0.676,-2.848 -2.809,-3.336 -8.581,-1.862 6.474,-4.418 11.305,-9.187 12.137,-12.426 0.706,-2.72 -1.556,-3.74 -5.672,-3.287 4.961,-3.943 8.534,-7.982 9.345,-11.004 0.7,-2.634 -0.819,-3.995 -3.831,-4.204 3.919,-3.527 6.694,-7.071 7.467,-9.919 0.674,-2.548 -0.348,-4.138 -2.592,-4.786 1.82,-1.842 3.335,-3.672 4.421,-5.408 z M 458.44,0 c -0.837,1.54 -1.459,3.065 -1.812,4.534 -0.644,2.69 -0.297,4.829 0.805,6.35 -2.325,2.794 -3.96,5.66 -4.555,8.273 -0.618,2.722 -0.031,4.794 1.494,6.093 -2.647,2.843 -4.482,5.745 -5.019,8.325 -0.566,2.72 0.407,4.637 2.449,5.678 -3.056,2.86 -5.133,5.79 -5.589,8.311 -0.473,2.7 0.998,4.447 3.747,5.126 -3.593,2.845 -6.013,5.791 -6.333,8.236 -0.361,2.675 1.858,4.223 5.572,4.426 -4.347,2.815 -7.277,5.776 -7.457,8.138 -0.199,2.698 3.243,4.02 8.406,3.528 -5.585,2.759 -9.437,5.796 -9.431,8.111 0.031,3.074 6.91,4.08 15.49,1.531 9.126,-2.71 17.117,-8.56 17.643,-12.306 0.37,-2.633 -3.12,-3.386 -8.537,-2.458 5.989,-3.391 10.492,-7.714 11.08,-10.875 0.472,-2.577 -1.764,-3.752 -5.658,-3.572 4.695,-3.414 8.093,-7.278 8.763,-10.317 0.555,-2.565 -0.941,-4.02 -3.821,-4.379 3.866,-3.326 6.615,-6.924 7.339,-9.907 0.615,-2.556 -0.381,-4.226 -2.529,-4.99 3.234,-3.212 5.55,-6.577 6.295,-9.497 0.648,-2.538 0.018,-4.364 -1.584,-5.439 2.729,-3.061 4.706,-6.211 5.447,-9.044 0.392,-1.506 0.406,-2.802 0.091,-3.876 z" style="fill:#604AB3;fill-opacity:1;fill-rule:nonzero;stroke:none" id="path833"/>
      </g>
    </g>
  </g>
</svg>