<svg fill="#924607" xmlns="http://www.w3.org/2000/svg" xmlns:xlink="http://www.w3.org/1999/xlink" version="1.1" x="0px" y="0px" viewBox="0 0 100 100" style="enable-background:new 0 0 100 100;" xml:space="preserve"><g><path d="M11.8,16.5c0,0-2.5-0.4-9-1.7c-0.8-0.2-1.6,0.5-1.6,1.3c0,1.9-0.9,3.3,2.1,8C3.2,24.1,6.3,18.3,11.8,16.5z"></path><path d="M46.2,23.6c0.7,1.5,1.5,2.9,2.5,4.2c0,0,0.4-3.2,0.9-5.3c0.3-1.4,0.9-4.4,1.3-6.3c0.2-0.9-0.6-1.7-1.4-1.6   c-2.2,0.2-6.7-0.5-9.4,2.3C40,16.9,44,18.9,46.2,23.6z"></path><path d="M95,30.5C90.4,17.6,75.9,13.2,64.7,7.2c-11.2-5.9-37.1-1.9-45.9,7.1c0,0,11-2.1,19.2,1.1c0,0,4.4-3.8,11.9-3   c1.2,0.1,2.7,1,2.7,2.3c0.1,4-1.1,5.8-1.6,10.2c-0.3,2.5-1,5.8-1,5.8S61.4,54.5,36.6,67c0,0-1.2,0.7-3.2,1.5l0,0   c-13.2,4.5-19.8-2-19.8-2c-0.9-0.2-3.1-1.6-3.1-1.6s1.2,13.5,2.4,17.7c1.2,4.2,0.4,5.1-1.5,6c-2,0.9-5,2.7-4.7,3.5   c0.3,0.8,8.1,0,8.1,0s1.6-2.5,6.8-3.8c0,0,8-6.4,8.4-14.1c0,0,2.8,10.7-6.7,16c0,0-7.9,1.9-7.2,5l8.5-0.8c0,0,10.2,1.7,14.4-2.3   C43,88,50.5,81.9,52.1,78.2c0,0,12.5,0.8,20-1.1c7.6-1.9,7.6-1.9,7.6-1.9s-3.6,3.2-7.8,4.1c0,0,1.6,6.2,3.3,8.4   c1.8,2.2-3.3,4.9-5,5.2c-1.7,0.3-2.2,2.6-2.2,2.6s5.1-0.1,6.2-0.2c1.1,0,11.6-0.7,11.6-0.7s5.1,1.7,5.8-6.3s4.2-13.9,6.2-23.9   C99.8,54.7,99.5,43.4,95,30.5z"></path><path d="M14.7,64C14.7,64,14.6,64,14.7,64c0,0,3.5,2.8,8.1,3.4s9.1-1.7,9.1-1.7s0,0-0.1,0c3.4-0.8,6.6-2.2,9.3-4.3   c16.6-13,8.1-30.9,1.8-39.4C36.5,13.4,19,16,14.8,17.1c-1.3,0.3-2.7,1.2-4,2.2c-4.6,3.7-7.4,9.1-8.2,15c-0.5,3.6-1.7,6.3-1.2,12.6   C2,54.9,7.5,60.9,14.7,64z M31.5,42.6c1.1,0,2,0.9,2,2c0,1.1-0.9,2-2,2s-2-0.9-2-2C29.5,43.5,30.4,42.6,31.5,42.6z M15.4,54.5   c0.8-1.9,2.1-4.7,4.7-4.7c3.1,0,4.1,2.6,5.1,4.4c1,1.9,0,4-1.5,4.4c-0.7,0.2-1.6,0.8-2.2,1.2c-0.7,0.5-1.7,0.6-2.4,0   c-0.7-0.5-1.4-1.3-2.3-1.7c0,0,0,0-0.1,0C15.4,57.5,14.8,55.8,15.4,54.5z M10.8,42.7c1.1,0,1.9,0.9,1.9,1.9c0,1.1-0.9,1.9-1.9,1.9   s-1.9-0.9-1.9-1.9C8.9,43.5,9.7,42.7,10.8,42.7z"></path></g></svg>