<svg xmlns="http://www.w3.org/2000/svg" xmlns:xlink="http://www.w3.org/1999/xlink" version="1.1" x="0px" y="0px" viewBox="0 0 218.581 247.018" style="enable-background:new 0 0 218.581 247.018;" xml:space="preserve"><g><path d="M105.947,15.018c1.905,0,3.819,0.22,5.69,0.655c8.336,1.941,14.723,7.871,17.62,15.301c0.457-0.801,0.71-1.667,0.71-2.601   C129.966,15.313,119.222,0,105.967,0c-13.255,0-24,15.313-24,28.373c0,0.936,0.254,1.803,0.711,2.604   C86.356,21.434,95.469,15.018,105.947,15.018z"></path><path d="M48.768,53.714c-0.72-4.36-4.836-7.311-9.196-6.591c-3.732,0.617-6.423,3.724-6.67,7.341   c5.003,0.856,10.494,1.656,16.42,2.319C49.128,55.801,48.943,54.779,48.768,53.714z"></path><path d="M181.826,72.89c0.988,2.51,3.856,6.139,6.43,7.979c3.169,2.262,2.716,6.789,2.716,6.789s-2.01,4.206-11.795,18.159   c-2.585,3.691-5.684,7.757-9.468,12.207c23.081,12.671,40.271,4.975,40.271,4.975v-12.547V98.521l3.167-19.918v-6.955   c3.475-0.146,5.435-0.229,5.435-0.229V54.225c0,0-1.96,0.141-5.435,0.377v-3.145c-4.068-0.902-17.197-1.362-19.911-1.362   c-2.711,0-7.24,2.719-7.24,2.719s0,1.703,0,3.541c-18.387,1.123-42.107,2.442-64.521,3.306c-4.282,3.383-9.677,5.356-15.487,5.356   c-1.906,0-3.819-0.219-5.69-0.655c-3.197-0.745-6.103-2.081-8.64-3.858c-3.547,0.053-6.96,0.083-10.185,0.083   c-11.515,0-22.16-0.688-31.714-1.729c-6.042-0.659-11.641-1.458-16.738-2.32C12.394,53.046,0,48.568,0,48.568v22.85   c0,0,16.415,1.568,37.759,2.795c5.956,0.343,12.296,0.658,18.771,0.906c5.64,0.216,11.38,0.379,17.059,0.464   c1.825,0.027,3.643,0.046,5.45,0.057c-0.072,0.424-0.118,0.857-0.118,1.302v0.697c-3.066-0.017-6.17-0.062-9.283-0.127   c-2.074,0.816-4.171,1.338-5.903,1.306c-1.308-0.006-2.415-0.225-3.53-0.728c-0.473-0.222-0.975-0.514-1.498-0.892   c-6.9-0.247-13.688-0.576-20.064-0.937c1.625,3.561,3.504,6.604,5.661,9.193c2.697,3.219,5.876,5.657,9.264,7.194   c3.367,1.54,6.868,2.169,10.121,2.169c0.016,0,0.032,0,0.047,0c5.949-0.047,11.056-1.868,15.187-3.942v33.78   c-0.081,0.57-0.137,1.149-0.137,1.742v107.939c0,6.828,5.537,12.363,12.363,12.363c6.828,0,12.365-5.535,12.365-12.363v-81.152   l36.306,0.063l9.807,32.706l0.115,0.385c0.097,0.324,0.208,0.64,0.328,0.949c-6.931,0.851-11.475,2.27-11.475,3.876   c0,2.602,11.901,4.711,26.581,4.711c14.193,0,25.786-1.972,26.54-4.454c0.026-0.085,0.041-0.171,0.041-0.257   c0-2.081-7.622-3.847-18.188-4.47c0.146-0.436,0.273-0.879,0.37-1.33c0.428-1.991,0.377-4.115-0.25-6.204l-12.589-41.983   c-0.692-2.308-2.009-4.298-3.733-5.809c-0.252,1.912-0.546,3.858-0.884,5.836c-0.825,4.818-4.968,8.316-9.849,8.316   c-0.544,0-1.111-0.05-1.681-0.143c-2.649-0.455-4.949-1.902-6.493-4.084c-1.54-2.179-2.142-4.831-1.69-7.468   c0.326-1.905,0.6-3.763,0.832-5.579l-4.59-0.008V89.854c3.015,3.342,6.506,9.335,7.288,21.163c0.098,1.488,0.161,3.054,0.167,4.733   c0,3.688-0.263,7.846-0.85,12.5c-0.238,1.891-0.524,3.855-0.877,5.916c-0.747,4.355,2.181,8.489,6.536,9.236   c0.456,0.077,0.91,0.115,1.357,0.115c3.827,0,7.21-2.752,7.879-6.651c0.403-2.36,0.732-4.631,1.006-6.833   c0.643-5.168,0.947-9.92,0.947-14.283c0.006-1.635-0.047-3.2-0.126-4.733c-0.854-16.465-6.458-27.19-12.895-33.386   c-0.485-0.471-0.97-0.908-1.454-1.326c-0.822-0.71-1.638-1.353-2.44-1.924C154.201,73.913,169.031,73.376,181.826,72.89z    M149.998,191.7c-0.017-0.319,0.374-0.605,1.048-0.858c0.263-0.1,0.564-0.194,0.914-0.284c0.069,0.086,0.133,0.176,0.203,0.26   c0.76,0.898,1.643,1.67,2.607,2.314C151.928,192.872,150.036,192.412,149.998,191.7z M182.427,190.654   c0.109,0.095,0.18,0.193,0.163,0.298c-0.169,1.068-6.819,1.927-14.067,2.275c0.405-0.263,0.796-0.541,1.164-0.845   c4.36-0.204,8.389-0.72,8.491-1.362c0.026-0.168-0.237-0.313-0.709-0.438c-1.054-0.278-3.18-0.449-5.638-0.51   c0.167-0.23,0.325-0.465,0.476-0.706C177.428,189.508,181.608,189.942,182.427,190.654z"></path><path d="M100.866,61.925c5.538,1.29,11.072,0.408,15.719-2.083c1.143-0.613,2.231-1.321,3.252-2.12   c3.901-3.052,6.828-7.404,8.039-12.604c0.96-4.125,0.717-8.248-0.498-12.004c-2.349-7.262-8.335-13.15-16.309-15.007   c-11.487-2.675-22.964,3.977-26.508,15.011c-0.189,0.588-0.361,1.185-0.504,1.797c-2.15,9.233,1.728,18.459,9.061,23.565   c1.054,0.734,2.177,1.387,3.366,1.938C97.863,61.057,99.327,61.566,100.866,61.925z"></path><path d="M138.693,193.409c0.294,7.881,0.778,34.628-5.279,48.745c-0.131,0.161-0.204,0.324-0.204,0.489   c0,2.415,14.311,4.374,31.964,4.374c17.654,0,31.964-1.959,31.964-4.374c0-0.082-0.02-0.163-0.052-0.244   c-0.291-1.368-1.882-8.967-3.339-18.196c-3.275-0.777-7.196-1.441-9.807-1.441c-0.296,0-0.577,0.009-0.835,0.027   c-0.086,0.006-0.17,0.01-0.254,0.01c-2.103,0-3.853-1.869-4.561-4.876c-0.719-3.044-0.159-6.985,2.769-8.447l0.148-0.075   l0.166-0.033c0.075-0.018,4.998-1.105,10.207-2.639c-0.396-4.938-0.513-9.539-0.154-13.166c-5.409,3.453-22.348,3.658-26.252,3.658   C161.213,197.221,143.835,197.009,138.693,193.409z"></path><path d="M183.007,221.446c2.518-0.185,6.812,0.473,10.519,1.325c3.064,0.705,5.728,1.542,6.641,2.151   c2.018,1.347,4.206-6.897,4.374-10.206c0.168-3.309,0-11.44-4.711-9.422c-2.354,1.009-5.302,1.975-8.134,2.803   c-5.214,1.524-10.036,2.582-10.036,2.582C177.623,212.698,179.393,221.711,183.007,221.446z M200.774,214.154   c0.042-1.972-0.562-7.399,0.306-7.297c0.868,0.101,3.726,7.092-0.102,14.44C198.415,226.219,200.723,216.552,200.774,214.154z"></path></g></svg>