<svg xmlns:dc="http://purl.org/dc/elements/1.1/" xmlns:cc="http://creativecommons.org/ns#" xmlns:rdf="http://www.w3.org/1999/02/22-rdf-syntax-ns#" xmlns:svg="http://www.w3.org/2000/svg" xmlns="http://www.w3.org/2000/svg" xmlns:sodipodi="http://sodipodi.sourceforge.net/DTD/sodipodi-0.dtd" xmlns:inkscape="http://www.inkscape.org/namespaces/inkscape" viewBox="0 0 32 32.000001" version="1.1" x="0px" y="0px"><g transform="translate(0,-1020.3622)"><path style="color:#000000;font-style:normal;font-variant:normal;font-weight:normal;font-stretch:normal;font-size:medium;line-height:normal;font-family:sans-serif;text-indent:0;text-align:start;text-decoration:none;text-decoration-line:none;text-decoration-style:solid;text-decoration-color:#000000;letter-spacing:normal;word-spacing:normal;text-transform:none;direction:ltr;writing-mode:lr-tb;baseline-shift:baseline;text-anchor:start;white-space:normal;clip-rule:nonzero;display:inline;overflow:visible;visibility:visible;opacity:1;isolation:auto;mix-blend-mode:normal;color-interpolation:sRGB;color-interpolation-filters:linearRGB;solid-color:#000000;solid-opacity:1;fill:#000000;fill-opacity:1;fill-rule:evenodd;stroke:none;stroke-width:1.00000226;stroke-linecap:round;stroke-linejoin:round;stroke-miterlimit:4;stroke-dasharray:none;stroke-dashoffset:0;stroke-opacity:1;color-rendering:auto;image-rendering:auto;shape-rendering:auto;text-rendering:auto;enable-background:accumulate" d="m 22.145707,1033.3626 c -1.743123,0.091 -3.172904,0.7485 -4.421778,1.3329 a 0.50004071,0.50041566 0 0 1 0.002,0.01 c 0,0 0.420622,1.2876 0.519519,2.0915 a 0.50004071,0.50041566 0 1 1 -0.992159,0.1231 c -0.0641,-0.5206 -0.397722,-1.6334 -0.44921,-1.8041 -1.066728,0.4756 -1.989719,0.8147 -2.781193,0.8366 -0.94091,0.026 -2.597514,-0.4529 -4.2538206,-0.8523 0.0201,0.4919 0.041099,1.2207 -0.0215,1.8099 a 0.50082365,0.50119919 0 1 1 -0.9960793,-0.1054 c 0.057999,-0.5469 0.0195,-1.5883 0.006,-1.9253 -0.1492369,-0.031 -0.3050437,-0.072 -0.4511606,-0.1001 -1.9003404,-0.3558 -1.9752688,-0.2569 -2.9667382,-0.346 -0.5387188,-0.048 -1.3661915,-0.1063 -1.6191063,-0.1035 -2.0880564,0.024 -2.3439011,2.0378 -0.3906118,2.8009 0,0 0.4344209,0.1704 0.9335705,0.3596 a 0.50060088,0.50097625 0 0 1 0.025399,-0.078 c 0,0 0.4080915,-1.0234 0.4667903,-1.3857 a 0.50004071,0.50041566 0 0 1 0.4687402,-0.4261 0.50004071,0.50041566 0 0 1 0.048799,0 0.50004071,0.50041566 0 0 1 0.4706902,0.5883 c -0.1100577,0.6788 -0.5331889,1.6164 -0.5331889,1.6164 a 0.50060088,0.50097625 0 0 1 -0.008,0.02 c 0.6062073,0.218 1.2131547,0.4394 1.9980083,0.688 1.7257841,0.5466 3.6903342,1.1127 5.5506642,1.2881 0.003,-0.055 0.0672,-1.3488 0.002,-1.8783 a 0.50004071,0.50041566 0 0 1 0.47655,-0.5688 0.50004071,0.50041566 0 0 1 0.515609,0.4456 c 0.0939,0.7623 0.0106,1.9841 0.006,2.0523 0.124198,10e-4 0.250565,0.01 0.373042,0.01 1.91399,-0.053 3.473948,-0.8187 4.81045,-1.4405 1.161576,-0.5405 2.151245,-0.956 3.013607,-1.0926 -0.009,-0.1598 -0.0684,-1.1851 -0.179686,-1.5793 a 0.50004071,0.50041566 0 0 1 0.48437,-0.6431 0.50004071,0.50041566 0 0 1 0.47655,0.3714 c 0.193166,0.6846 0.215986,1.675 0.218745,1.8216 0.748425,0.075 1.850332,0.2804 2.775333,0.52 1.233334,0.3191 2.210894,0.6509 2.210894,0.6509 2.629805,0.4933 3.32746,-1.89 1.673795,-3.2446 -0.588358,-0.4819 -1.332143,-0.7465 -2.365191,-1.03 8.8e-4,0.1427 0.005,0.259 -0.006,0.5805 -0.0165,0.4676 -0.0482,1.0148 -0.156247,1.4503 a 0.50004071,0.50041566 0 1 1 -0.968729,-0.2405 c 0.0664,-0.2674 0.109497,-0.8048 0.124997,-1.245 0.0157,-0.4403 0.0117,-0.7936 0.0117,-0.7936 a 0.50004071,0.50041566 0 0 1 0,-0.012 c -1.282664,-0.3242 -2.715764,-0.6353 -4.103435,-0.5629 z"></path></g></svg>