<svg fill="#8855aa" xmlns="http://www.w3.org/2000/svg" xmlns:xlink="http://www.w3.org/1999/xlink" version="1.1" x="0px" y="0px" viewBox="443 90 94 94" enable-background="new 440 85 100 100" xml:space="preserve"><path d="M528.9,138.9c-0.9,0-1.8,0.2-2.6,0.5c0.8,1.4,1.2,3.1,1.2,4.9c0,1.4-0.3,2.6-0.7,3.8c0.1-0.5,0.1-1.1,0.1-1.6  c0-5.4-3.9-9.8-8.7-9.8c-1.1,0-2.2,0.2-3.2,0.7c1,1.7,1.6,3.8,1.6,6c0,1.3-0.2,2.5-0.6,3.7c0.1-0.5,0.1-1,0.1-1.5  c0-5.9-4.2-10.7-9.5-10.7c-1.2,0-2.4,0.3-3.4,0.7c1.2,1.9,2,4.3,2,6.8c0,1.5-0.2,2.9-0.7,4.2c0.1-0.7,0.2-1.3,0.2-2  c0-6.4-4.6-11.6-10.4-11.6c-1.8,0-3.4,0.5-4.9,1.4c1.4,2,2.3,4.5,2.3,7.3c0,1.3-0.2,2.6-0.6,3.8c0-0.3,0-0.6,0-0.8  c0-6.4-4.6-11.6-10.4-11.6c-2.3,0-4.4,0.8-6.1,2.2c1.5,2.3,2.2,5.3,1.8,8.4c-1.5-5.5-4.6-10.6-4.6-10.6c0.5,8.3-1.9,9.4-1.9,9.4  s1.8-4.7,0-16.7c-2-12.8-14.8-11.9-14.8-11.9c-6.6,0-11.9,5.3-11.9,11.9c0,6.6,5.3,11.9,11.9,11.9c0,0,0,0,0.1,0  c0.4,8,2.8,18.7,13.1,18.7c3.2,0,5.3-0.7,6.7-2c1.6,1.2,3.6,2,5.8,2c2.6,0,4.9-1.1,6.7-2.8c1.8,1.7,4.2,2.8,6.7,2.8  c2.4,0,4.6-0.9,6.3-2.4c1.6,1.5,3.7,2.4,6,2.4c2.2,0,4.3-0.9,5.9-2.3c1.5,1.5,3.5,2.3,5.6,2.3c2.1,0,4-0.8,5.5-2.2  c1.4,1.4,3.2,2.2,5.2,2.2c4.3,0,7.7-3.9,7.7-8.7C536.7,142.8,533.2,138.9,528.9,138.9z M448.1,126.9c-0.7,0-1.3-0.6-1.3-1.3  c0-0.7,0.6-1.3,1.3-1.3s1.3,0.6,1.3,1.3C449.3,126.3,448.8,126.9,448.1,126.9z M458.4,126.9c-0.7,0-1.3-0.6-1.3-1.3  c0-0.7,0.6-1.3,1.3-1.3s1.3,0.6,1.3,1.3C459.7,126.3,459.1,126.9,458.4,126.9z"/></svg>