<svg xmlns="http://www.w3.org/2000/svg" xmlns:xlink="http://www.w3.org/1999/xlink" version="1.1" x="0px" y="0px" viewBox="0 0 100 100" enable-background="new 0 0 100 100" xml:space="preserve"><path fill="#8855aa" d="M85.041,28.405c-6.025-9.237-16.994-20.247-35.04-20.247c0,0-0.001,0-0.001,0s-0.001,0-0.001,0  C15.777,8.158,5,46.748,5,57.665c0,13.213,12.217,34.177,44.999,34.177c0,0,0.001,0,0.001,0s0.001,0,0.001,0  C82.783,91.842,95,70.878,95,57.665C95,52.041,92.347,39.608,85.041,28.405z M50.001,88.808C50.001,88.808,50,88.808,50.001,88.808  c-0.001,0-0.002,0-0.002,0c-30.572,0-41.965-19.102-41.965-31.143c0-5.262,2.521-16.954,9.467-27.603  c5.615-8.609,15.812-18.871,32.499-18.871c0,0,0.001,0,0.001,0s0.001,0,0.001,0c16.687,0,26.884,10.262,32.499,18.871  c6.945,10.648,9.467,22.341,9.467,27.603C91.966,69.706,80.573,88.808,50.001,88.808z"/><path fill="#aa3366" d="M86.577,56.093C86.544,55.72,82.849,18.77,50.001,18.77c0,0-0.001,0-0.001,0s-0.001,0-0.001,0  c-32.69,0-36.54,36.943-36.575,37.316l-0.006,0.142c0,8.648,7.645,25.002,36.582,25.002c0,0,0.001,0,0.001,0s0.001,0,0.001,0  c28.937,0,36.582-16.355,36.582-25.002L86.577,56.093z M50.001,78.197C50.001,78.197,50,78.197,50.001,78.197  c-0.001,0-0.002,0-0.002,0c-23.647,0-31.784-11.408-33.277-19.27c0.266-0.608,0.695-1.311,1.29-1.593  c0.422-0.202,0.889-0.17,1.429,0.089c2.907,1.399,1.336,6.664,1.113,7.359c-0.017,0.049-0.027,0.081-0.03,0.092  c-0.081,0.264,0.063,0.544,0.325,0.63c0.263,0.084,0.545-0.055,0.635-0.315c0.005-0.016,0.017-0.049,0.033-0.101  c0.153-0.438,0.935-2.477,2.506-3.284c0.752-0.386,1.596-0.429,2.506-0.123c0.701,0.234,1.186,0.666,1.483,1.319  c0.748,1.649,0.092,4.207-0.341,5.528c-0.205,0.505-0.313,0.857-0.327,0.904c-0.077,0.258,0.061,0.53,0.314,0.621  c0.251,0.089,0.533-0.033,0.637-0.28c0.02-0.047,0.159-0.382,0.329-0.897c0.455-1.108,1.405-2.985,2.819-3.636  c0.677-0.311,1.375-0.299,2.133,0.035c2.043,0.902,1.974,3.878,1.624,6.017c-0.373,1.263-0.538,2.279-0.556,2.397  c-0.04,0.261,0.125,0.509,0.382,0.57c0.257,0.056,0.516-0.085,0.598-0.335c0.037-0.113,0.361-1.128,0.578-2.472  c0.683-2.249,1.933-4.817,3.781-4.53c1.406,0.215,1.692,2.833,1.737,4.376c0.052,1.787-0.155,3.561-0.238,4.184  c-0.02,0.135-0.031,0.221-0.035,0.248c-0.035,0.274,0.158,0.525,0.432,0.564c0.275,0.036,0.528-0.15,0.57-0.424  c0.005-0.033,0.023-0.154,0.049-0.348c0.28-1.85,1.219-5.929,2.957-7.197c0.454-0.33,0.927-0.442,1.439-0.349  c2.086,0.39,2.575,4.61,2.597,6.445c-0.002,0.104-0.001,0.171-0.001,0.195l0.001,0.962l-0.001,0.962  c0,0.279,0.226,0.507,0.505,0.507h0c0.001,0,0.001,0,0.002,0h0c0.279,0,0.506-0.227,0.505-0.507l-0.001-0.962l0.001-0.959  c0-0.024,0-0.092-0.001-0.198c0.022-1.831,0.51-6.055,2.598-6.445c0.518-0.096,0.986,0.02,1.438,0.349  c1.981,1.445,2.809,6.226,2.972,7.312c0.018,0.126,0.03,0.207,0.034,0.233c0.042,0.275,0.305,0.46,0.57,0.424  c0.275-0.039,0.466-0.29,0.432-0.564c-0.004-0.033-0.02-0.153-0.049-0.344c-0.257-1.926-0.546-6.275,0.642-7.893  c0.243-0.332,0.528-0.518,0.872-0.571c1.843-0.291,3.099,2.288,3.783,4.541c0.217,1.338,0.54,2.348,0.577,2.461  c0.082,0.249,0.339,0.392,0.598,0.335c0.257-0.061,0.423-0.309,0.382-0.57c-0.019-0.118-0.183-1.134-0.556-2.397  c-0.35-2.139-0.419-5.115,1.624-6.017c0.758-0.334,1.456-0.346,2.133-0.035c1.413,0.651,2.363,2.527,2.818,3.635  c0.171,0.515,0.31,0.85,0.33,0.898c0.104,0.247,0.381,0.369,0.637,0.28c0.253-0.091,0.391-0.363,0.313-0.621  c-0.014-0.047-0.122-0.403-0.33-0.912c-0.435-1.322-1.085-3.869-0.339-5.518c0.297-0.654,0.782-1.086,1.483-1.32  c0.91-0.304,1.752-0.264,2.503,0.121c1.576,0.808,2.366,2.877,2.512,3.295c0.015,0.045,0.025,0.076,0.03,0.091  c0.09,0.26,0.373,0.398,0.635,0.315c0.263-0.086,0.408-0.366,0.326-0.63c-0.003-0.011-0.014-0.043-0.032-0.096  c-0.227-0.711-1.791-5.955,1.116-7.355c0.54-0.258,1.005-0.289,1.428-0.09c0.595,0.281,1.026,0.991,1.292,1.596  C81.785,66.79,73.648,78.197,50.001,78.197z M79.943,48.811c-0.319,0.171-0.632,0.194-0.98,0.067c-3.497-1.27-1.21-8.73-1.186-8.805  c0.083-0.266-0.064-0.548-0.329-0.633c-0.051-0.016-0.104-0.024-0.154-0.024c-0.213,0-0.411,0.136-0.481,0.349  c-0.375,1.152-1.703,4.277-3.318,4.898c-0.461,0.176-0.911,0.131-1.38-0.138c-1.486-0.854-1.281-4.736-0.642-8.12  c0.381-1.356,0.594-2.484,0.646-2.774c0.047-0.266-0.121-0.522-0.384-0.582c-0.27-0.063-0.528,0.096-0.6,0.356  c-0.088,0.314-0.376,1.373-0.644,2.748c-0.675,2.365-1.702,4.806-2.837,5.228c-0.235,0.087-0.613,0.151-1.183-0.311  c-1.411-1.145-1.271-4.496-0.756-7.523c0.629-2.204,1.011-4.18,1.095-4.632c0.049-0.263-0.115-0.519-0.374-0.584  c-0.263-0.062-0.524,0.084-0.605,0.34c-0.142,0.454-0.735,2.413-1.131,4.719c-0.843,2.893-1.956,5.64-3.058,6.166  c-0.224,0.108-0.426,0.103-0.65-0.019c-1.35-0.73-1.406-6.452-0.996-11.271c0.152-1.239,0.218-2.089,0.228-2.214  c0.02-0.274-0.182-0.514-0.455-0.541c-0.272-0.027-0.518,0.169-0.551,0.442c-0.052,0.43-0.141,1.203-0.228,2.179  c-0.426,3.442-1.515,9.972-3.801,11.753c-0.436,0.339-0.877,0.467-1.357,0.381c-3.267-0.568-3.323-6.003-3.323-6.056l-0.001-9.577  c0-0.279-0.227-0.506-0.506-0.506c-0.001,0-0.001,0-0.002,0c-0.279,0-0.506,0.226-0.506,0.506l-0.001,9.576  c0,0.055-0.056,5.49-3.323,6.058c-0.478,0.085-0.921-0.041-1.357-0.381c-2.286-1.781-3.376-8.311-3.801-11.753  c-0.087-0.976-0.176-1.75-0.229-2.179c-0.033-0.272-0.277-0.468-0.551-0.442c-0.274,0.027-0.475,0.267-0.455,0.541  c0.009,0.124,0.076,0.974,0.228,2.214c0.41,4.82,0.354,10.541-0.997,11.271c-0.223,0.121-0.423,0.126-0.65,0.019  c-1.102-0.526-2.216-3.276-3.059-6.171c-0.396-2.305-0.988-4.261-1.13-4.714c-0.08-0.255-0.345-0.401-0.604-0.34  c-0.26,0.065-0.424,0.32-0.375,0.584c0.084,0.452,0.467,2.431,1.098,4.637c0.514,3.025,0.653,6.373-0.758,7.518  c-0.568,0.462-0.948,0.398-1.184,0.311c-1.136-0.422-2.162-2.866-2.838-5.232c-0.268-1.373-0.555-2.43-0.643-2.743  c-0.073-0.26-0.337-0.416-0.6-0.356c-0.263,0.06-0.432,0.317-0.385,0.582c0.052,0.291,0.265,1.422,0.647,2.782  c0.639,3.381,0.843,7.258-0.643,8.112c-0.47,0.27-0.921,0.314-1.379,0.138c-1.613-0.619-2.943-3.746-3.32-4.899  c-0.086-0.264-0.369-0.41-0.634-0.324c-0.265,0.085-0.412,0.367-0.328,0.633c0.024,0.075,2.315,7.533-1.187,8.805  c-0.347,0.127-0.66,0.106-0.98-0.067c-0.597-0.321-1.094-1.105-1.469-1.91c0.808-2.496,1.897-5.257,3.376-8.009  c6.095-11.339,15.528-17.089,28.035-17.089c0,0,0.001,0,0.001,0s0.001,0,0.001,0c12.569,0,22.021,5.748,28.091,17.086  c1.464,2.735,2.542,5.48,3.341,7.964C81.056,47.675,80.552,48.483,79.943,48.811z"/></svg>