 <svg fill="#89cff0" xmlns="http://www.w3.org/2000/svg" xmlns:xlink="http://www.w3.org/1999/xlink" version="1.1" x="0px" y="0px" viewBox="0 0 100 100" enable-background="new 0 0 100 100" xml:space="preserve"><g><path d="M72.2,64.4c6.7-14.4,2.5-40.8,0-47.5c-0.4-1.1-0.8-2-1.2-2.9c-0.4,0.7-1,1.3-1.8,1.8c-1.8,1.1-4.4,1.6-7.3,1.7   c1.5,2.9,8,17.6,5.9,53.1L72.2,64.4z"></path><path d="M24.7,78v4.7c0,0,6.6,10.6,25.5,12.2c5,0.4,9.6-2.8,10.9-7.6c0.2-0.7,0.5-1.5,0.8-2.2C45.2,84,32,74.2,26.7,69.7   C25.9,72,25.2,74.8,24.7,78z M36.4,78.8c0.5,0,1,0.4,1,1c0,0.5-0.4,1-1,1s-1-0.4-1-1C35.4,79.2,35.8,78.8,36.4,78.8z M34.9,86.4   c0.5,0,1,0.4,1,1c0,0.5-0.4,1-1,1c-0.5,0-1-0.4-1-1C33.9,86.8,34.4,86.4,34.9,86.4z"></path><path d="M81.1,75.7c-3.2,5-7.8,7.6-10.4,8.8c0.1,0.2,0.2,0.5,0.3,0.8c1.7,4.3,7.7,5.1,10.1,1.1c0.7-1.1,1.1-2.5,0.8-4.2   C81.9,82.2,81.8,79.6,81.1,75.7z"></path><path d="M80.6,73.5c-0.5-1.9-1.1-4-2-6.2c-2.5,8.4-10.7,12.1-10.8,12.1c-0.1,0-0.2,0.1-0.3,0.1c-0.2,0-0.4,0-0.6,0   c-11.1,0-29.6-10.4-37.9-15.5c-0.6,1.1-1.1,2.5-1.7,4c4.9,4.3,18.4,14.6,35.5,15.6c0.8-1.1,1.8-1.8,3.1-2.1c1.8-0.3,3.1,0.4,4,1.6   C72.4,82.1,77.5,79.1,80.6,73.5z M39.2,73.9c-0.5,0-1-0.4-1-1c0-0.5,0.4-1,1-1c0.5,0,1,0.4,1,1C40.2,73.4,39.7,73.9,39.2,73.9z"></path><path d="M74.1,17c0.5,1.2,0.9,2.6,1.2,4.2c1.6-0.9,4.4-2.8,6-5.8c-0.7-1.2-1.7-2.3-2.8-3.3C76.8,14.6,75,16.2,74.1,17z M76.8,16.5   c0.5,0,1,0.4,1,1c0,0.5-0.4,1-1,1s-1-0.4-1-1C75.8,17,76.2,16.5,76.8,16.5z"></path><path d="M77.2,32.7c0,0,0.8,0.8,1.9,0.8c1.1,0,2.4-0.8,3.6-3.9c0.3-0.7,0.3-2.2,0.3-3.9c-3,2.4-5.1,3.2-6.3,3.6   C77,31.6,77.2,32.7,77.2,32.7z"></path><path d="M73.5,15.5c0.9-0.8,2.4-2.3,3.7-4.2c-2.5-1.5-5.8-2.5-9.8-2.7C67.5,8.6,70.8,9.5,73.5,15.5z"></path><path d="M75.7,22.8c0.1,0.3,0.1,0.5,0.1,0.8c0.3,1.6,0.5,3,0.7,4.2c1.1-0.3,3.3-1.3,6.5-4c0-1.2-0.1-2.2-0.1-2.8   c-0.1-1.4-0.3-2.7-0.7-3.9C80.2,20.2,77.2,22,75.7,22.8z M78.5,24.8c-0.5,0-1-0.4-1-1s0.4-1,1-1c0.5,0,1,0.4,1,1S79,24.8,78.5,24.8   z"></path><path d="M40.2,38.9c-0.7-1-1.3-2-1.8-2.8c-1.6,0.4-3.4,0.5-5.3,0.5c-5.6,0-12.1-1.3-16.4-2.4c0,1.2,0.1,2.4,0.2,3.6   C29.5,43.1,37.9,40,40.2,38.9z"></path><path d="M37.6,34.7c-0.8-1.3-1.3-2.3-1.7-3.1c-5.9-0.7-13.1-2.7-18.6-4.5c-0.3,1.9-0.5,3.7-0.5,5.6C22.2,34,31.7,35.9,37.6,34.7z"></path><path d="M47.2,23.9c-5.9-2.2-12.1-6.9-15.8-10c-1.8,0.5-5.3,1.5-8.2,3.1c6.4,3.2,17.3,8.5,23.1,11.1C46.7,26.9,47,25.5,47.2,23.9z    M30.2,17.8c-0.5,0-1-0.4-1-1c0-0.5,0.4-1,1-1c0.5,0,1,0.4,1,1C31.2,17.4,30.8,17.8,30.2,17.8z M38.2,22.5c-0.5,0-1-0.4-1-1   c0-0.5,0.4-1,1-1c0.5,0,1,0.4,1,1C39.2,22.1,38.8,22.5,38.2,22.5z"></path><path d="M40.2,57.8l0.4-17.4c-1.7,0.8-5,1.9-9.9,1.9c-3.7,0-8.3-0.7-13.7-2.8c0.9,8,3.4,14.4,3.9,15.5c3.5,2.9,7.4,4.4,11.6,4.4   C36.2,59.5,39.2,58.3,40.2,57.8z"></path><path d="M42,10.7c-3-2.2-5.6-4.3-7.2-5.6c0,0-0.1,0-0.1,0c-0.1,0-0.2,0-0.2,0.2l-1.2,7.7c0,0.1-0.1,0.2-0.1,0.3   c3.6,3,9.1,7,14.3,9.1C47.7,17.7,45.7,13.4,42,10.7z"></path><path d="M35.1,28.4c0.2-0.4,0.7-0.6,1.2-0.5c2.1,0.5,6.1,3.5,7.4,4.6c0.8-0.5,1.5-1.5,2.1-2.9c-6-2.7-17.8-8.5-24.1-11.6   c-1.3,1-2.4,2.1-3,3.5c-0.5,1.4-0.9,2.8-1.2,4.2c5.2,1.7,12,3.6,17.7,4.4C34.8,28.8,35,28.5,35.1,28.4z M23.5,23.5   c-0.5,0-1-0.4-1-1c0-0.5,0.4-1,1-1c0.5,0,1,0.4,1,1C24.5,23.1,24,23.5,23.5,23.5z M32,27.1c-0.5,0-1-0.4-1-1s0.4-1,1-1   c0.5,0,1,0.4,1,1S32.6,27.1,32,27.1z"></path><path d="M83.3,32.1c-1.1,1.9-2.5,2.9-4.1,2.9c-0.9,0-1.7-0.3-2.2-0.7c0.5,5.4,0.6,11.4,0,17.1c1.4-0.1,3-0.6,4.8-1.8   c1-0.7,1.6-1.9,1.6-3.2L83.3,32.1z"></path><path d="M41.3,59c-0.1,0.1-1.5,0.8-3.8,1.4c9.5,4.9,25,10.1,28.6,11.3c2.6-39.6-5.8-53.7-5.9-53.8c0-0.1-0.1-0.2-0.1-0.3   c-4.8,0-9.7-0.9-12.1-1.4c0.8,2.3,1.1,4.7,0.8,7.2c-0.8,6.1-2.5,9.7-5,10.6c-0.3,0.1-0.5,0-0.8-0.1c-1.2-1-4.5-3.5-6.5-4.3   c0.6,1.7,3.1,5.7,5.3,9.1c0.1,0.1,0.1,0.3,0.1,0.4l-0.4,19.2C41.7,58.6,41.6,58.9,41.3,59z"></path><path d="M47.3,14.5c2.2,0.5,16,3.3,21.1,0.1c0.9-0.6,1.4-1.2,1.6-2.1c-1.5-1.9-2.7-2.4-2.9-2.4c-0.3-0.1-0.6-0.2-0.8-0.5   c-1.2,1.3-3.8,1.7-6.8,1.7c-7.4,0-17.5-2.7-17.5-2.7l-0.1,0.1c0.3,0.3,0.7,0.5,1.1,0.8C44.7,10.8,46.2,12.5,47.3,14.5z"></path><path d="M32.5,61c-0.6,0-1.2,0-1.8-0.1c-0.3,0.5-0.7,1.1-1.1,1.8C37.8,67.6,56.3,78,66.8,78c0.1,0,0.3,0,0.4,0   c1.2-0.5,8.9-4.4,10.3-12.9c-0.7-1.4-1.5-2.8-2.4-4.1c-0.4,1.5-1,2.8-1.6,4.2c0,0.1-0.1,0.2-0.1,0.2l-5.3,7.5   c-0.3,0.4-0.8,0.7-1.3,0.7c-0.2,0-0.3,0-0.5-0.1c-0.9-0.3-20.8-6.7-31.3-12.6C34.3,61,33.4,61,32.5,61z M42.3,65.8c0.5,0,1,0.4,1,1   s-0.4,1-1,1c-0.5,0-1-0.4-1-1S41.8,65.8,42.3,65.8z"></path></g></svg>
