<svg fill="#007FFF" xmlns="http://www.w3.org/2000/svg" xmlns:xlink="http://www.w3.org/1999/xlink" version="1.1" x="0px" y="0px" viewBox="0 0 100 100" style="enable-background:new 0 0 100 100;" xml:space="preserve"><path d="M5.483,90.637c0,0-2.231-2.9,2.454-4.686c4.685-1.784,5.913-2.342,5.913-2.342s0.334-0.559,0.781-0.893  c0.446-0.335,13.274-5.912,14.836-7.362c1.562-1.45,1.562-2.9,1.004-3.904s-2.008-1.228-0.781-3.458  c1.227-2.231,4.016-9.594,4.016-9.594l7.363-21.083l10.04-22.646c0,0,3.012-6.916,6.136-6.358  c3.123,0.558,11.713,17.514,13.274,19.968c1.562,2.454-0.335,1.562-2.343,0.892s-7.92-5.131-7.92-5.131s11.526,38.82,10.839,43.394  c-0.688,4.574-1.373,4.239,0.029,5.913c1.402,1.673,15.681,8.7,19.697,9.816c4.016,1.115,5.466,2.23,5.02,3.234  s1.228,3.235-18.183,3.682S14.185,93.872,5.483,90.637z"></path></svg>