<svg fill="#C09648" xmlns="http://www.w3.org/2000/svg" xmlns:xlink="http://www.w3.org/1999/xlink" version="1.1" x="0px" y="0px" viewBox="0 0 49.54 60" enable-background="new 0 0 49.54 60" xml:space="preserve"><g><path d="M48.84,17.35l-3.07-2.25V6h-8v3.26L25.41,0.23L25.1,0.02l-0.69,0.01L0.73,16.42c-0.73,0.5-0.95,1.49-0.51,2.26l1.29,2.25   c0.48,0.83,1.66,1.1,2.45,0.55l3.8-2.63V34h2.83l-1.21,7.86c0,0,0,0,0,0L6.91,58H5.77c-0.55,0-1,0.45-1,1s0.45,1,1,1h4   c0.55,0,1-0.45,1-1s-0.45-1-1-1H8.93l0.49-3.18l11.35-4.36V60h2v-2h4v2h2v-9.54l11.35,4.36L40.6,58h-0.83c-0.55,0-1,0.45-1,1   s0.45,1,1,1h4c0.55,0,1-0.45,1-1s-0.45-1-1-1h-1.14l-2.48-16.14c0,0,0,0,0,0L38.93,34h2.83V19.62l3.74,2.73   c0.29,0.21,0.64,0.33,1.01,0.33c0.6,0,1.17-0.32,1.47-0.84l1.32-2.24C49.75,18.84,49.55,17.87,48.84,17.35z M39.77,8h4v5.65   l-4-2.92V8z M19.77,34h1v4.23l-9.16,2.41L12.63,34H19.77z M27.77,32h-6v-5v-5h6V32z M26.77,48h-4v-2h4V48z M26.77,44h-4v-2h4V44z    M26.77,40h-4v-2h4V40z M26.77,50v2h-4v-2H26.77z M26.77,36h-4v-2h4V36z M9.77,52.54l1.5-9.74l9.5-2.5v8.02L9.77,52.54z M22.77,56   v-2h4v2H22.77z M28.77,48.31V40.3l9.5,2.5l1.5,9.74L28.77,48.31z M37.93,40.64l-9.16-2.41V34h1h7.14L37.93,40.64z M29.77,32V20h-10   v12h-10v-3h5c0.55,0,1-0.45,1-1s-0.45-1-1-1h-5v-3h7c0.55,0,1-0.45,1-1s-0.45-1-1-1h-7v-3h5c0.55,0,1-0.45,1-1s-0.45-1-1-1h-4.33   l4.33-3h4.99c0.55,0,1-0.45,1-1s-0.45-1-1-1h-2.1l7.03-4.86L31.35,12h-4.58c-0.55,0-1,0.45-1,1s0.45,1,1,1h7   c0.09,0,0.17-0.03,0.25-0.05L38.19,17h-7.42c-0.55,0-1,0.45-1,1s0.45,1,1,1h9v3h-5c-0.55,0-1,0.45-1,1s0.45,1,1,1h5v3h-7   c-0.55,0-1,0.45-1,1s0.45,1,1,1h7v3H29.77z M46.42,20.54l-4.66-3.4v0L24.72,4.68L7.77,16.42v0l-4.67,3.24l-1-1.74L24.75,2.23   l13.67,9.99l7.35,5.37v0l1.68,1.23L46.42,20.54z"></path><circle cx="22.77" cy="27" r="1"></circle><path d="M42.77,5c0.55,0,1-0.45,1-1V1c0-0.55-0.45-1-1-1s-1,0.45-1,1v3C41.77,4.55,42.21,5,42.77,5z"></path><path d="M39.77,4c0.55,0,1-0.45,1-1V2c0-0.55-0.45-1-1-1s-1,0.45-1,1v1C38.77,3.55,39.21,4,39.77,4z"></path></g></svg>