<svg fill="#861001" xmlns="http://www.w3.org/2000/svg" xmlns:xlink="http://www.w3.org/1999/xlink" version="1.1" x="0px" y="0px" viewBox="0 0 13 24" style="enable-background:new 0 0 13 24;" xml:space="preserve"><title>62 -Flared Pants- (Solid)</title><desc>Created with Sketch.</desc><g><path d="M12.5,9.6C12.8,8.2,13,7,13,6.2c0-1.2-0.5-2.1-1-2.6V1c0-0.6-0.4-1-1-1H2C1.5,0,1,0.4,1,1v2.6C0.5,4.1,0,5,0,6.2   c0,0.8,0.2,2,0.5,3.5C0.7,11,1,12.6,1,13.5c0,1.8-1,9.3-1,9.4c0,0.3,0,0.6,0.2,0.8C0.4,23.9,0.7,24,1,24h4.5c0.3,0,0.5-0.1,0.7-0.3   c0.2-0.2,0.3-0.4,0.3-0.7c0,0.2,0.1,0.5,0.3,0.7C7,23.9,7.2,24,7.5,24H12c0.3,0,0.6-0.1,0.8-0.3c0.2-0.2,0.3-0.5,0.2-0.8   c0-0.1-1-7.5-1-9.4C12,12.6,12.3,11,12.5,9.6z M7,14.7c0,1.5-0.5,8.2-0.5,8.3c0,0,0,0,0,0.1c0,0,0,0,0-0.1c0-0.1-0.5-6.8-0.5-8.3   v-3.8c0-0.3,0.2-0.9,0.5-1.4C6.8,10,7,10.6,7,10.9V14.7z M10,3H3V2h7V3z"></path></g></svg>
