<svg fill="#283359" xmlns="http://www.w3.org/2000/svg" xmlns:xlink="http://www.w3.org/1999/xlink" version="1.1" x="0px" y="0px" viewBox="0 0 100 100" enable-background="new 0 0 100 100" xml:space="preserve"><path d="M92.425,6.117c-4.382,2.914-9.23,5.547-13.307,8.872c-2.638,2.152-4.993,4.797-7.444,7.154  c-11.005,10.575-22.01,21.15-33.014,31.725c-2.731,2.625-5.462,5.25-8.193,7.873l-2.529-2.529c-0.207-0.205-0.491-0.289-0.77-0.271  c-1.903-2.068-3.806-4.137-5.709-6.207c-0.28-0.304-0.612-0.348-0.909-0.257c-0.172,0.033-0.342,0.101-0.499,0.257  c-0.738,0.738-1.477,1.477-2.214,2.215c-0.369,0.369-0.397,1.043,0,1.408c2.068,1.902,4.137,3.805,6.205,5.707  c-0.018,0.279,0.066,0.562,0.273,0.77c1.422,1.422,2.843,2.844,4.265,4.266c-1.329,1.33-2.658,2.658-3.987,3.988c0,0,0,0-0.001,0  c-1.564,1.564-3.127,3.129-4.69,4.691l-4.328,4.328c-1.927-0.811-4.138-0.668-5.938,1.133c-5.245,5.246,3.577,13.973,9.031,9.031  c1.625-1.793,1.766-3.947,1.046-5.85c1.472-1.473,2.943-2.943,4.415-4.414c0,0,0.001-0.002,0.001-0.002  c1.563-1.562,3.127-3.127,4.691-4.691c1.33-1.328,2.659-2.658,3.988-3.988c1.421,1.422,2.842,2.844,4.263,4.264  c0.208,0.209,0.493,0.293,0.773,0.273c1.916,2.082,3.833,4.166,5.749,6.248c0.364,0.396,1.039,0.369,1.407,0  c0.738-0.738,1.476-1.477,2.214-2.215c0.155-0.154,0.222-0.324,0.256-0.494c0.092-0.297,0.05-0.631-0.256-0.912  c-2.081-1.914-4.163-3.828-6.243-5.744c0.003-0.025,0.008-0.049,0.009-0.074c-0.001-0.027-0.008-0.053-0.012-0.082  c-0.01-0.211-0.081-0.428-0.275-0.621l-2.527-2.527c13.633-14.193,27.266-28.386,40.899-42.579c1.948-2.029,3.896-4.058,5.846-6.086  c0.016-0.016,0.019-0.035,0.032-0.051c0.043-0.045,0.085-0.094,0.123-0.15c2.906-4.365,5.814-8.73,8.721-13.095  C94.332,6.658,93.244,5.572,92.425,6.117z M36.068,70.158C36.068,70.158,36.068,70.158,36.068,70.158  c0.838,0.838,1.676,1.676,2.513,2.512c-0.134,0.135-0.269,0.27-0.403,0.404s-0.269,0.27-0.404,0.404  c-1.891-1.891-3.782-3.783-5.673-5.674c-0.47-0.471-0.94-0.939-1.41-1.41h0c-1.408-1.408-2.815-2.816-4.222-4.223  c0.269-0.27,0.538-0.537,0.807-0.807c2.586,2.586,5.172,5.172,7.758,7.758C35.378,69.469,35.724,69.812,36.068,70.158z   M20.726,54.873l4.859,5.283c-0.108,0.107-0.217,0.217-0.325,0.324l-5.282-4.859C20.227,55.371,20.477,55.123,20.726,54.873z   M30.694,69.211c0.235,0.236,0.471,0.471,0.706,0.707c-1.095,1.094-2.189,2.189-3.284,3.283c-0.471-0.471-0.941-0.941-1.412-1.412  c1.095-1.094,2.189-2.189,3.284-3.283C30.223,68.74,30.459,68.977,30.694,69.211z M18.734,82.584l-0.177-0.178  c-0.364-0.457-0.778-0.873-1.23-1.24c1.093-1.092,2.186-2.186,3.278-3.277c0.471,0.471,0.942,0.941,1.413,1.412  C20.923,80.395,19.829,81.49,18.734,82.584z M23.425,77.893c-0.471-0.471-0.941-0.941-1.412-1.412  c1.095-1.094,2.189-2.189,3.283-3.283c0.471,0.471,0.941,0.941,1.412,1.412C25.614,75.703,24.52,76.799,23.425,77.893z   M11.043,82.646c1.415-1.402,3.26-1.186,4.724-0.215c0.529,0.529,1.057,1.057,1.585,1.586c0.987,1.48,1.242,3.371-0.093,4.846  C13.695,92.092,7.609,86.049,11.043,82.646z M39.425,74.643c0.053-0.055,0.107-0.107,0.161-0.16  c0.054-0.055,0.107-0.107,0.161-0.162c1.775,1.633,3.551,3.268,5.327,4.9c-0.25,0.25-0.499,0.5-0.748,0.748  C42.691,78.193,41.058,76.418,39.425,74.643z M41.914,62.664c-1.719,1.789-3.438,3.578-5.156,5.369l-1.739-1.74  c13.913-13.912,27.826-27.825,41.739-41.738c1.989-1.989,3.978-3.978,5.966-5.966c0.907-0.907-0.499-2.314-1.407-1.408  L38.874,59.623c-1.754,1.754-3.508,3.51-5.262,5.264l-1.396-1.396c-0.114-0.113-0.228-0.229-0.342-0.342  c7.433-7.143,14.865-14.285,22.297-21.427c8.65-8.312,17.006-17.178,26.064-25.046c0.513-0.445-0.08,0.033,0.66-0.504  c1.409-1.022,2.911-1.936,4.36-2.899l4.103-2.729c-1.975,2.965-3.949,5.93-5.924,8.896C69.595,33.847,55.754,48.256,41.914,62.664z"></path></svg>
