<svg fill="#C94B47" xmlns="http://www.w3.org/2000/svg" xmlns:xlink="http://www.w3.org/1999/xlink" version="1.1" x="0px" y="0px" viewBox="0 0 50 50" enable-background="new 0 0 50 50" xml:space="preserve"><g><path stroke="black" d="M6.8,11.3L20.5,25l1.4-1.4L9.8,11.5c2.7-0.1,5.3-1.1,6.6-1.4c5.1-1.2,9-0.8,15.7,3.3l2.2-2.2c-5.5-6-12.3-8.5-20.1-5.8   c-1.5,0.6-6,3-8.7,2.2c1.9-1,2.1-3.4,0.7-4.8C5,1.6,3.1,1.6,1.9,2.8c-1,1-1.2,2.6-0.4,3.8c0,0,0,0,0,0v0C2.1,8.6,3.9,10.6,6.8,11.3   z"/><path stroke="black" d="M42.4,44.4c-0.3-1.6,0.3-3.9,0.9-5.5c0.6-1.8,7.2-12.4-4.5-23.1h0L36.6,18v0c6.4,9.3,2.9,16.3,2.4,19.3   c-0.2,0.6-0.3,1.3-0.3,1.9c-0.1,0.3-0.1,0.7-0.1,1.1L26.5,28.1l-1.4,1.4l13.7,13.7c0.7,3,2.6,4.7,4.8,5.3c0,0,0,0,0,0   c1.2,0.6,2.6,0.4,3.6-0.5c1.2-1.2,1.2-3.1,0-4.3C45.7,42.3,43.3,42.8,42.4,44.4z"/><path stroke="black" d="M44.4,7.4l3.1-1.3L49,1.1l-5.1,1.5l-1.2,3.1C5.4,43,23.4,24.9,11.5,36.8c-0.1,0-5.1-0.6-4.8-0.5l-1.7,1.7   c0.1,0,5,0.6,4.7,0.6l-1.6,1.6c-0.1,0-5.1-0.6-4.8-0.5l-1.7,1.7c0.1,0,5,0.6,4.7,0.6l-2.6,2.6c-0.5,0.5-0.5,1.3,0,1.7   c0.5,0.5,1.3,0.5,1.8,0l2.6-2.6c0,0.1,0.6,5,0.6,4.7l1.7-1.7c0-0.1-0.7-5-0.6-4.7l1.7-1.7c0,0.1,0.6,5,0.6,4.7l1.7-1.7   c0-0.1-0.7-5-0.6-4.7C33.5,18.3,3.3,48.5,44.4,7.4z"/></g></svg>