<svg xmlns="http://www.w3.org/2000/svg" xmlns:xlink="http://www.w3.org/1999/xlink" version="1.1" x="0px" y="0px" viewBox="0 0 100 100" enable-background="new 0 0 100 100" xml:space="preserve"><path d="M98,35.3L83,14.8l-22.2-12l-19.2,9.9l-21.7,8.9L2,51.3l6.4,15.2l0.8,13.4l12.6,7.6l15.6,0.6L55,98l29.5-8.8l7.1-14.4  l-6.9-13.5L98,35.3z M79.2,17L92,33.9l-15.8-2.7l-10-8.3L63.6,8.8L79.2,17z M38.6,44.2L42,26.8l3.2,18.6L38.6,44.2z M58.6,8.8  l0.7,6.2l-13.9,0.8L58.6,8.8z M86.4,73.7l-22.2,1.9L47.4,48.4l18.4,16.8l13.7-3.1L86.4,73.7z"></path></svg>