<svg fill="#0047AB" xmlns="http://www.w3.org/2000/svg" xmlns:xlink="http://www.w3.org/1999/xlink" version="1.1" x="0px" y="0px" viewBox="0 0 100 100" enable-background="new 0 0 100 100" xml:space="preserve"><path fill="#0047AB" d="M72.866,73.247l-0.571-0.571c-0.448-0.448-1.182-0.448-1.63,0l-0.168,0.168  c-1.611-2.006-6.807-8.483-8.813-11.083c-1.587-2.057-3.521-3.82-4.44-4.616l1.942-1.942l0.351,0.269l2.291-0.802l-6.659-6.659  l1.969,5.559l0.117,0.09l-0.768,0.768c-2.891-1.454-23.475-12.512-27.701-34.156l-0.184-0.94l-0.162,0.944  c-0.01,0.061-1.04,6.16-1.808,18.046c-0.423,6.547,12.979,17.259,13.549,17.712l0.068,0.055l0.206-0.055l0.083,0.261l2.486,1.706  l0.857-0.328l-0.146,0.951l0.068,0.063c0.029,0.026,2.712,2.502,4.251,4.17l-0.788,0.788l-0.14-0.066l-5.609-1.919l6.659,6.659  l0.852-2.341l-0.219-0.401l2.048-2.048c0.806,0.909,2.584,2.826,4.612,4.451c2.605,2.088,9.068,7.22,11.076,8.814l-0.363,0.363  c-0.448,0.448-0.448,1.182,0,1.63l0.571,0.571c0.448,0.448,1.182,0.448,1.63,0l4.481-4.481  C73.314,74.429,73.314,73.695,72.866,73.247z M56.224,54.689l-2.577,2.577C50.503,55.638,30.743,44.535,28.912,22.4  C33.961,42.598,53.048,53.072,56.224,54.689z M44.111,58.493l0.208-1.363l-1.248,0.477l-2.235-1.532L40.69,55.61l-0.359,0.094  c-1.052-0.849-13.745-11.227-13.349-17.359c0.538-8.335,1.204-13.806,1.557-16.351c0.899,12.492,7.451,21.42,12.934,26.779  c5.148,5.032,10.279,7.906,11.912,8.756l-5.083,5.083C46.89,61.081,44.543,58.892,44.111,58.493z"></path></svg>