<svg fill="#0365C0" xmlns="http://www.w3.org/2000/svg" xmlns:xlink="http://www.w3.org/1999/xlink" version="1.1" x="0px" y="0px" viewBox="0 0 100 100" enable-background="new 0 0 100 100" xml:space="preserve"><path d="M82.486,62.323l-16.64-18.108l5.626-23.481c0.092-0.384-0.05-0.784-0.362-1.025l-8.75-6.75  c-0.118-0.091-0.256-0.155-0.402-0.187l-11.75-2.5c-0.121-0.026-0.245-0.029-0.367-0.009l-7.75,1.25  c-0.27,0.044-0.51,0.195-0.665,0.421l-2.098,3.052l-2.152-1.973c-0.275-0.253-0.668-0.33-1.021-0.201l-3.833,1.409l-9.25,4.375  c-0.196,0.093-0.356,0.247-0.458,0.439l-5.25,10c-0.186,0.354-0.143,0.784,0.109,1.095l13.669,16.843L22.29,77.219  c-0.09,0.309-0.026,0.641,0.17,0.895l5.625,7.25c0.127,0.163,0.301,0.283,0.498,0.344l13.125,4c0.096,0.028,0.193,0.043,0.292,0.043  c0.104,0,0.207-0.016,0.307-0.048l7.75-2.5c0.267-0.086,0.485-0.28,0.602-0.534l5.15-11.195l4.984,4.984  c0.172,0.173,0.401,0.275,0.645,0.291l8,0.5c0.195,0.01,0.39-0.032,0.559-0.13l8.75-5c0.227-0.13,0.394-0.343,0.466-0.594l3.5-12.25  C82.808,62.94,82.722,62.58,82.486,62.323z M79.873,62.435l-5.139-0.177L59.456,44.693l4.403,0.256  c0.041,0.081,0.091,0.158,0.154,0.228L79.873,62.435z M65.587,67.61L41.883,42.251l11.985,2.105c0.003,0,0.004,0.002,0.007,0.003  c0.015,0.004,0.028,0.003,0.043,0.005l0.053,0.01l4.09,0.237l15.674,18.021L65.587,67.61z M30.389,76.369l10.089-33.083  l5.756,20.722l-3.643,14.844L30.389,76.369z M32.977,16.119l5.29,5.842l1.585,17.882L24.589,20.091L32.977,16.119z M49.113,12.405  l-8.337,26.546l-1.514-17.078l5.52-8.769L49.113,12.405z M61.011,14.615l-7.38,28.688l-12.483-2.196l9.042-28.794L61.011,14.615z   M69.377,20.896l-5.523,23.051l-5.51-0.318c-0.007-0.001-0.014-0.001-0.021-0.001l-3.688-0.214l7.275-28.277L69.377,20.896z   M42.832,13.419l0.635-0.103l-3.89,6.182l0.299-2.094c0.176-0.073,0.338-0.178,0.448-0.338L42.832,13.419z M36.272,14.898  l2.552,2.339c0.018,0.017,0.042,0.021,0.061,0.035l-0.479,3.353l-4.425-4.886L36.272,14.898z M19.441,29.382l4.476-8.524  l15.854,20.514l-6.989,4.447L19.441,29.382z M33.21,47.031c0.03-0.105,0.037-0.213,0.033-0.32l6.384-4.062L29.367,76.29  l-4.886,0.564L33.21,47.031z M41.991,87.702l-12.521-3.816l-4.7-6.058l4.958-0.572l14.495,2.948l4.344,5.377L41.991,87.702z   M49.282,84.875l-4.394-5.439c-0.073-0.09-0.175-0.152-0.289-0.176l-1.028-0.209l3.44-14.02l7.57,8.321L49.282,84.875z   M56.207,73.043c-0.214-0.214-0.512-0.312-0.81-0.281l-8.198-9.012l-5.672-20.418l23.4,25.039l-3.456,9.937L56.207,73.043z   M77.4,74.584l-8.137,4.649l-6.904-0.432l3.554-10.219l8.72-5.328l5.945,0.205L77.4,74.584z"></path></svg>
