<svg fill="#41db3f" xmlns="http://www.w3.org/2000/svg" xmlns:xlink="http://www.w3.org/1999/xlink" version="1.1" x="0px" y="0px" viewBox="0 0 100 100" style="enable-background:new 0 0 100 100;" xml:space="preserve"><style type="text/css">
	.st0{fill:none;stroke:#41db3f;stroke-width:2;stroke-linecap:round;stroke-linejoin:round;stroke-miterlimit:10;}
</style><path d="M77.1,43.6c0.2-1.3,0.2-2.3,0.2-3.7c0-16.1-13.1-29.1-29.1-29.1S19.1,23.9,19.1,39.9c0,1.1,0.1,2.2,0.2,3.4  c-1.6,1.1-2.5,3.1-1.9,5.1c0.3,1.2,1.1,2.2,2.2,2.8c0.7,0.4,1.5,0.6,2.3,0.6c0.2,0,0.4,0,0.6,0c-0.7,0.7-1.3,1.5-1.5,2.5  c-0.2,1.2,0,2.4,0.7,3.5c0.7,1,1.7,1.7,2.9,2c0.3,0.1,0.6,0.1,0.9,0.1c0.7,0,1.4-0.2,2-0.5c-0.5,0.9-0.7,1.9-0.6,2.9  c0.2,1.2,0.8,2.3,1.8,3.1c0.8,0.6,1.8,1,2.8,1c0.2,0,0.4,0,0.6,0c0.9-0.1,1.7-0.5,2.4-1.1c3.3,1.8,7,2.9,10.7,3.2L41,71  c-0.3,0.2-0.5,0.5-0.5,0.8v12.8c0,0.3,0.2,0.7,0.5,0.8l7.1,4.4c0.2,0.1,0.3,0.2,0.5,0.2s0.4-0.1,0.5-0.2l7.1-4.4  c0.3-0.2,0.5-0.5,0.5-0.8V71.9c0,0,0-0.1,0-0.1c0,0,0-0.1,0-0.1c0-0.1-0.1-0.2-0.1-0.3c0,0,0,0,0,0c0,0,0,0,0,0  c-0.1-0.1-0.1-0.2-0.2-0.2c0,0,0,0,0,0c0,0,0,0,0,0l-4.5-2.8c3.4-0.4,6.8-1.5,9.8-3c0.9,0.7,1.9,1.1,3,1.1c1,0,1.9-0.3,2.8-0.9  c1.9-1.4,2.4-4,1.2-5.9c0.7,0.3,1.4,0.5,2.1,0.5c1.5,0,2.9-0.7,3.8-2c1.3-1.9,1-4.5-0.7-6c0.2,0,0.4,0.1,0.7,0.1  c0.8,0,1.5-0.2,2.2-0.6c1.1-0.6,1.9-1.6,2.2-2.8c0.3-1.2,0.2-2.4-0.4-3.5C78.2,44.5,77.7,44,77.1,43.6z M48.2,12.8  c15,0,27.1,12.2,27.1,27.1c0,1.2,0,2-0.1,2.9c-1-0.2-2,0-3,0.5c-1.1,0.6-1.9,1.6-2.2,2.8c-0.3,1.2-0.2,2.4,0.4,3.5  c0.3,0.5,0.6,0.8,1,1.2c-0.5-0.1-1-0.1-1.5,0c-1.2,0.2-2.3,0.9-3,1.9c-0.7,1-1,2.2-0.7,3.5c0.1,0.5,0.3,1,0.5,1.4  c-0.4-0.2-0.9-0.4-1.4-0.5C64,57,62.8,57.3,61.8,58c-1.8,1.3-2.3,3.6-1.4,5.6c-3.8,1.9-7.9,2.9-12.2,2.9c-4.3,0-8.6-1.1-12.4-3  c0.4-0.8,0.5-1.6,0.4-2.5c-0.2-1.2-0.8-2.3-1.8-3.1c-1-0.8-2.2-1.1-3.4-0.9c-0.5,0.1-1,0.2-1.4,0.5c0.9-1.5,0.9-3.4-0.2-4.9  c-1-1.5-2.8-2.2-4.5-2c0.4-0.3,0.7-0.7,1-1.2c0.6-1.1,0.8-2.3,0.4-3.5c-0.6-2.3-2.8-3.6-5.1-3.3c-0.1-0.9-0.1-1.8-0.1-2.6  C21.1,25,33.3,12.8,48.2,12.8z M54.7,82.9l-1.2-0.8v-7.5l1.2-0.8V82.9z M42.5,73.7l1.2,0.8v7.5l-1.2,0.8V73.7z M48.6,83.7L45.7,82  v-7.5l2.9-1.6l2.9,1.6V82L48.6,83.7z M47.6,71.2l-2.8,1.6l-1.4-0.9l4.2-2.6V71.2z M44.8,83.8l2.8,1.6v1.9l-4.2-2.6L44.8,83.8z   M49.6,85.4l2.8-1.6l1.4,0.9l-4.2,2.6V85.4z M52.4,72.8l-2.8-1.6v-1.9l4.2,2.6L52.4,72.8z M20.6,49.4c-0.6-0.3-1-0.9-1.2-1.6  c-0.4-1.4,0.4-2.8,1.8-3.2c0.2-0.1,0.5-0.1,0.7-0.1c1.2,0,2.2,0.8,2.5,1.9c0.2,0.7,0.1,1.4-0.2,2c-0.3,0.6-0.9,1-1.6,1.2  C21.9,49.8,21.2,49.7,20.6,49.4z M27,57.3c-0.6,0.4-1.3,0.5-2,0.4c-0.7-0.1-1.3-0.5-1.7-1.1c-0.4-0.6-0.5-1.3-0.4-2  c0.1-0.7,0.5-1.3,1.1-1.7c0.4-0.3,0.9-0.4,1.5-0.4c0.2,0,0.3,0,0.5,0c0.7,0.1,1.3,0.5,1.7,1.1c0.4,0.6,0.5,1.3,0.4,2  C28,56.3,27.6,56.9,27,57.3z M31.9,64.2c-0.7,0.1-1.4-0.1-1.9-0.5c-0.6-0.4-0.9-1-1-1.7c-0.1-0.7,0.1-1.4,0.5-1.9  c0.4-0.6,1-0.9,1.7-1c0.1,0,0.2,0,0.3,0c0.6,0,1.1,0.2,1.6,0.5c0.6,0.4,0.9,1,1,1.7c0.1,0.7-0.1,1.4-0.5,1.9  C33.3,63.7,32.6,64.1,31.9,64.2z M67.2,62.1c-0.1,0.7-0.5,1.3-1,1.7c-1.2,0.9-2.8,0.6-3.7-0.5c-0.9-1.2-0.6-2.8,0.5-3.7  c0.5-0.3,1-0.5,1.6-0.5c0.1,0,0.3,0,0.4,0c0.7,0.1,1.3,0.5,1.7,1c0,0,0,0,0,0C67.1,60.7,67.3,61.4,67.2,62.1z M72.9,56.9  c-0.4,0.6-1,1-1.7,1.1c-0.7,0.1-1.4,0-2-0.4c-0.6-0.4-1-1-1.1-1.7s0-1.4,0.4-2c0.4-0.6,1-1,1.7-1.1c0.2,0,0.3,0,0.5,0  c0.5,0,1,0.2,1.5,0.5v0c0.6,0.4,1,1,1.1,1.7S73.3,56.3,72.9,56.9z M77,48.1c-0.2,0.7-0.6,1.2-1.2,1.6c-0.6,0.3-1.3,0.4-2,0.2  c-1.4-0.4-2.2-1.9-1.8-3.2c0.2-0.7,0.6-1.2,1.3-1.6c0.4-0.2,0.8-0.3,1.3-0.3c0.2,0,0.5,0,0.7,0.1c0,0,0,0,0,0  C76.6,45.3,77.4,46.7,77,48.1z"></path></svg>
