<svg fill="#a99ff0" xmlns="http://www.w3.org/2000/svg" xmlns:xlink="http://www.w3.org/1999/xlink" version="1.1" x="0px" y="0px" viewBox="0 0 173.468 248.099" style="enable-background:new 0 0 173.468 248.099;" xml:space="preserve"><g><path d="M45.131,140.468l-8.726,94.125c-0.631,6.801,4.371,12.822,11.169,13.452c6.799,0.63,12.823-4.368,13.454-11.169   l8.452-91.163h5.935l8.452,91.163c0.63,6.801,6.655,11.799,13.454,11.169c6.797-0.63,11.799-6.651,11.169-13.452l-8.997-97.039   v-25.59L45.131,140.468z"></path><path d="M49.947,33.664c0,12.426,10.075,22.5,22.5,22.5c12.427,0,22.5-10.074,22.5-22.5c0-1.095-0.082-2.171-0.233-3.225H50.181   C50.029,31.492,49.947,32.568,49.947,33.664z"></path><path d="M48.915,22.404c-1.666,0-3.017,1.351-3.017,3.017c0,1.668,1.351,3.018,3.017,3.018h0.402h46.261h0.401   c1.667,0,3.017-1.35,3.017-3.018c0-1.666-1.35-3.017-3.017-3.017h-0.417c-0.018-0.674-0.061-1.341-0.135-2   c-0.768-6.853-4.526-12.799-9.944-16.503v1.846c0,1.318-1.068,2.389-2.387,2.389c-1.319,0-2.389-1.07-2.389-2.389V1.402   C78.852,0.692,76.885,0.211,74.835,0v5.748c0,1.318-1.068,2.389-2.388,2.389c-1.319,0-2.388-1.07-2.388-2.389V0   c-2.05,0.21-4.017,0.693-5.873,1.403v4.344c0,1.318-1.068,2.389-2.389,2.389c-1.318,0-2.387-1.07-2.387-2.389V3.902   c-5.417,3.704-9.176,9.649-9.944,16.501c-0.073,0.659-0.117,1.326-0.135,2H48.915z"></path><path d="M2.765,162.682l22.269-11.676c-0.826-1.003-1.467-2.172-1.853-3.462c-0.198-0.665-0.376-1.319-0.565-1.979L0,157.423   L2.765,162.682z"></path><path d="M42.37,141.916l0.895-0.469v-6.708l-2.513,1.317c0.486,1.888,1.01,3.804,1.595,5.764   C42.356,141.852,42.361,141.884,42.37,141.916z"></path><path d="M25.099,146.971c1.036,3.47,4.217,5.713,7.662,5.713c0.758,0,1.527-0.109,2.291-0.337c4.234-1.265,6.642-5.721,5.379-9.954   c-3.079-10.307-4.595-18.968-5.05-26.188c-0.102-1.634-0.152-3.196-0.151-4.685c0-0.091,0-0.183,0.002-0.272   c0-0.009-0.001-0.019-0.001-0.028c0-0.001,0-0.002,0-0.003c0.175-15.936,5.362-23.531,10.171-28.032v50.432l54.092-28.362V92.366   c2.48,2.963,5.242,5.908,8.319,8.529l-6.714,3.521v6.708l12.036-6.311c3.767,2.341,8.068,4.075,13.102,4.126   c0.012,0,0.023,0,0.035,0c1.93,0,3.914-0.315,5.836-0.932c0.23-0.061,0.461-0.132,0.69-0.215h-0.002   c4.619-1.671,8.508-5.092,11.57-9.593c2.046-2.993,1.782-6.878-0.393-9.556l9.345-4.899c0.899,0.836,1.989,1.413,3.157,1.696   c8.838,18.116,13.613,35.073,13.377,45.785c6.335-8.515,4.236-28.395-5.448-49.351c1.056-1.998,1.142-4.464,0.011-6.614   l-0.582-1.107c-1.131-2.15-3.211-3.478-5.455-3.741c-11.774-19.857-26.963-32.855-37.568-32.463   c8.959,5.877,20.223,19.423,30.137,36.973c-0.43,1.124-0.572,2.349-0.393,3.563l-13.888,7.282c-1.799,0.25-3.502,1.107-4.787,2.51   l-7.914,4.149c-1.254-0.488-2.809-1.339-4.508-2.673c-4.525-3.446-9.458-9.496-12.963-14.594c-1.771-2.549-3.222-4.864-4.215-6.516   c-0.496-0.828-0.879-1.49-1.133-1.934c-0.125-0.222-0.221-0.389-0.278-0.496c-0.06-0.107-0.073-0.131-0.073-0.131   c-1.601-2.948-4.785-4.482-7.925-4.13c-0.362-0.052-0.729-0.088-1.105-0.088H53.13c-1.096,0-2.136,0.231-3.08,0.642   c-2.952,0.853-8.89,3.073-14.976,8.435c-8.154,7.092-15.842,20.133-15.84,40.151c-0.001,0.007-0.002,0.014-0.002,0.021H19.23   c0,0.137-0.002,0.272,0,0.41c0,1.6,0.063,3.261,0.155,4.952C19.869,125.298,21.635,135.37,25.099,146.971z"></path></g></svg>