<svg fill="#3050d0" xmlns="http://www.w3.org/2000/svg" xmlns:xlink="http://www.w3.org/1999/xlink" version="1.1" x="0px" y="0px" viewBox="0 0 100 100" enable-background="new 0 0 100 100" xml:space="preserve"><g><path fill-rule="evenodd" clip-rule="evenodd" d="M83.636,65.902c3.032,1.893,5.437,4.488,6.469,8.195   c1.438,5.161-0.973,11.209-5.595,13.982c-7.077,4.247-14.205,4.354-21.326,0.167c-1.122-0.66-2.081-1.635-3.014-2.566   c-0.567-0.566-1.002-0.825-1.844-0.541c-5.537,1.872-11.124,1.96-16.763,0.402c-0.479-0.133-1.297,0.145-1.654,0.521   c-5.871,6.17-17.094,6.965-24.468,1.791c-7.885-5.534-7.371-16.721,0.937-21.68c0.174-0.104,0.331-0.235,0.567-0.404   c-0.836-1.224-1.719-2.393-2.475-3.639c-4.747-7.814-6.13-16.421-5.552-25.363c0.262-4.059,1.116-8.087,1.827-12.107   c0.85-4.795,0.277-9.475-0.873-14.129C9.285,8.15,9.942,7.471,12.347,8.05c8.261,1.993,14.382,7.055,19.472,13.592   c0.34,0.437,0.678,0.875,1.183,1.526c0.174-1.023,0.248-1.821,0.45-2.585c1.083-4.106,3.904-6.694,7.691-8.161   c7.185-2.782,14.132-2.372,20.2,2.71c4.366,3.656,4.847,8.867,1.769,13.652c-0.157,0.244-0.286,0.506-0.429,0.76   c0.113,0.112,0.228,0.225,0.341,0.337c0.272-0.294,0.62-0.546,0.804-0.888c2.194-4.073,4.784-7.856,7.997-11.2   c4.521-4.705,9.748-8.228,16.186-9.747c2.404-0.568,3.096,0.113,2.461,2.484c-1.64,6.117-1.329,12.131,0,18.337   c2.072,9.674,1.643,19.362-2.242,28.623C87.016,60.383,85.224,63.032,83.636,65.902z M74.886,63.353   c0.128,0.023,0.257,0.046,0.386,0.069c0.541-2.463,1.356-4.901,1.579-7.394c1.043-11.657-8.363-21.336-16.337-24.154   c-8.677-3.067-17.189-2.346-25.14,2.695c-6.627,4.202-10.948,9.895-11.782,17.888c-0.324,3.094-0.069,6.148,0.652,9.286   c0.221-0.201,0.338-0.254,0.351-0.325c0.835-5.14,3.356-9.371,6.926-13.071c0.295-0.305,0.253-1.045,0.19-1.562   c-0.206-1.696-0.553-3.375-0.692-5.074c-0.022-0.28,0.725-0.623,1.117-0.936c0.231,0.4,0.71,0.837,0.656,1.195   c-0.403,2.689,0.604,4.978,2.453,6.647c2.328,2.103,5.019,3.807,7.568,5.66c0.258,0.187,0.627,0.218,0.999,0.339   c0.863-2.592,0.481-4.93-0.695-7.201c-0.368-0.711-1.332-1.582-0.116-2.189c1.13-0.564,1.396,0.711,1.808,1.384   c0.396,0.645,0.586,1.411,0.909,2.104c0.21,0.45,0.413,0.95,0.76,1.282c2.797,2.678,4.732,5.758,4.664,9.98   c4.7-1.84,8.995-4.041,12.23-7.846c3.313-3.896,3.608-8.073,0.959-12.474c-0.683-1.133-1.629-2.105-2.317-3.235   c-0.245-0.402-0.086-1.051-0.112-1.587c0.487,0.096,1.167,0.018,1.433,0.313c2.732,3.035,4.717,6.404,4.694,10.687   c-0.004,0.71,0.392,1.569,0.879,2.111c2.444,2.722,4.199,5.795,4.963,9.377C74.296,59.316,74.553,61.342,74.886,63.353z    M33.524,50.385c-4.861,4.311-7.392,11.249-6.176,17.84c0.334,1.809,0.861,3.773,1.907,5.23   c8.451,11.751,24.469,13.908,35.755,4.88c2.355-1.883,4.716-3.969,5.71-6.884c1.456-4.275,1.671-8.738,0.626-13.17   c-0.72-3.049-2.009-5.843-4.376-8.195c-1.838,3.715-4.782,6.133-8.109,8.317c1.456,0.427,2.843,0.636,4.037,1.232   c1.772,0.884,3.286,1.014,4.715-0.857c0.271,1.666-0.283,2.75-1.416,3.483c-0.706,0.457-1.379,1.174-2.456,0.445   c-4.277-2.895-6.907-2.647-10.8,0.876c-0.043,0.039-0.156,0.005-0.385,0.005c0.325-0.769,0.628-1.48,0.987-2.329   c-0.359,0.063-0.557,0.072-0.738,0.134c-2.814,0.943-3.457,0.492-3.595-2.431c-0.115-2.449-1.193-4.466-2.945-6.336   c-0.142,0.627-0.248,1.072-0.345,1.52c-0.561,2.607-1.616,3.209-3.846,1.865C39.207,54.281,36.468,52.335,33.524,50.385z    M75.797,68.692c0.261-0.037,0.375-0.023,0.448-0.07c0.213-0.139,0.411-0.3,0.612-0.457c4.04-3.157,6.99-7.14,8.942-11.863   c3.434-8.303,3.63-16.925,2.288-25.634c-0.767-4.984-2.348-9.871-1.362-15.011c0.285-1.49,0.5-2.994,0.785-4.719   c-10.502,3.519-16.874,11.085-21.753,20.298C80.275,41.215,83.027,55.342,75.797,68.692z M22.492,67.584   c0.12-0.089,0.239-0.177,0.359-0.266c-0.081-0.333-0.18-0.664-0.242-1c-0.633-3.407-1.674-6.798-1.813-10.226   c-0.413-10.221,4.068-18.022,12.625-23.499c1.137-0.727,1.222-1.302,0.611-2.433c-2.995-5.558-6.779-10.453-11.792-14.333   c-2.787-2.159-5.851-3.806-9.417-4.818c0.138,0.743,0.234,1.288,0.339,1.831c0.842,4.356,1.152,8.71,0.041,13.076   c-1.296,5.086-1.818,10.269-1.655,15.504c0.234,7.546,1.862,14.71,6.392,20.933C19.295,64.214,20.967,65.847,22.492,67.584z    M62.072,83.625c0.522,0.496,0.924,0.951,1.396,1.314c5.688,4.381,12.817,4.752,19.067,1.007c6.957-4.167,6.971-13.11,0.04-17.319   c-0.824-0.5-1.371-0.544-2.246,0.154c-2.146,1.712-4.479,3.192-6.736,4.767c-0.412,0.287-0.944,0.494-1.21,0.883   C69.743,78.306,66.332,81.313,62.072,83.625z M37.735,84.077c-4.881-2.258-8.556-5.728-11.592-9.938   c-0.499-0.691-1.045-1.385-1.696-1.922c-1.532-1.265-3.118-2.472-4.742-3.62c-0.354-0.25-1.072-0.379-1.42-0.19   c-5.329,2.887-7.771,9.272-3.81,14.323c1.273,1.625,3.087,2.968,4.902,4.002C24.94,89.9,33.293,88.666,37.735,84.077z    M59.891,28.166c3.144-3.244,3.166-7.243,0.252-10.337c-5.256-5.585-16.333-5.747-21.769-0.319   c-3.336,3.332-3.297,7.524,0.019,10.851c0.99,0.993,1.583,0.897,2.405-0.199c4.203-5.602,12.182-6.227,17.284-1.422   C58.624,27.25,59.254,27.668,59.891,28.166z"/><path fill-rule="evenodd" clip-rule="evenodd" d="M36.344,69.436c0.502-1.47,0.806-3.05,1.553-4.383   c1.106-1.977,3.16-2.085,4.737-0.483c2.366,2.403,2.725,7.759,0.697,10.41c-1.286,1.683-3.117,1.837-4.593,0.315   C37.196,73.703,36.722,71.688,36.344,69.436z"/><path fill-rule="evenodd" clip-rule="evenodd" d="M53.296,70.437c0.274-2.12,0.729-4.035,2.069-5.629   c1.603-1.908,3.725-1.745,5.067,0.34c1.719,2.668,1.409,7.376-0.646,9.809c-1.694,2.006-4.005,1.851-5.208-0.501   C53.945,73.221,53.709,71.783,53.296,70.437z"/><path fill-rule="evenodd" clip-rule="evenodd" d="M46.553,63.866c-0.828-0.708-1.375-1.246-1.99-1.691   c-2.638-1.914-5.491-1.955-8.408-0.001c-1.008,0.675-1.836,1.143-2.977,0.31c-1.193-0.872-1.939-1.891-1.662-3.79   c1.495,2.192,3.11,1.614,4.946,0.837c4.618-1.955,8.233-0.616,9.892,3.474C46.426,63.181,46.442,63.38,46.553,63.866z"/></g></svg>