<svg fill="#ffd635" xmlns="http://www.w3.org/2000/svg" xmlns:xlink="http://www.w3.org/1999/xlink" version="1.1" x="0px" y="0px" viewBox="0 0 100 100" enable-background="new 0 0 100 100" xml:space="preserve"><g><g><g><g><g><polygon points="46.6,68.8 39.1,64.4 28,87.9 31.8,90      "></polygon></g></g></g></g><g><g><g><g><path d="M44.2,69.5L33,63l-1.3,2.2l11.1,6.4l0.2-0.1l2.7,1.6c1.2,3.1,1.1,6.6-0.7,9.7c-1.8,3-4.7,5-8,5.5l-4.5-2.6l-2.3-1.3       l-7-4.1L22,82.4l9.7,5.6l1.3,0.8c5.4,3.1,12.2,1.3,15.3-4C51.4,79.4,49.6,72.6,44.2,69.5z"></path></g></g></g></g><g><g><g><g><path d="M73,38.3l-1.2-0.5c2.3-5.9,3.2-12.4,2.5-18.8c-1.3,1.2-2.8,2.2-4.4,2.9l-0.5-1.2c1.9-0.8,3.6-2.1,5-3.6l0.9-1.1       l0.2,1.4C76.4,24.5,75.6,31.7,73,38.3z"></path></g></g></g></g><g><g><g><g><path d="M47.5,64.9l-0.4-1.2C57.2,60.4,65.7,53.6,71,44.4c5.4-9.4,7-20.2,4.6-30.7c-0.1,0.2-0.2,0.5-0.3,0.7       c-1.8,3.1-4.7,5.4-8.3,6.3c-3,0.8-6.2,0.6-9.1-0.7c2.2,4.1,3.4,8.6,3.5,13.2c0.2,5.7-1.2,11.4-4.1,16.4       c-3.3,5.7-8.2,10.1-14.3,12.7l-0.5-1.2c5.8-2.5,10.5-6.7,13.7-12.2c5.5-9.6,5.2-21.3-0.8-30.6l-2.3-3.5l4.2,3.5       c2.8,1.6,6.1,2,9.3,1.2c3.2-0.9,5.8-2.9,7.5-5.7c0.5-0.8,1-2.2,1-2.2l0.7-1.8l0.5,1.9c1.5,5.5,1.9,11.2,1.2,16.9       C77,34.3,75.1,39.9,72.1,45C66.6,54.5,57.9,61.5,47.5,64.9z"></path></g></g></g></g><g><g><g><g><path d="M44.4,68.3c-0.7,0-1.4-0.2-2-0.5c-1.9-1.1-2.5-3.4-1.5-5.2c0.7-1.1,1.9-1.8,3.2-1.8c0.7,0,1.4,0.2,2,0.5       c1.9,1.1,2.5,3.4,1.5,5.2C46.9,67.6,45.7,68.3,44.4,68.3z M44.1,62.1c-0.9,0-1.7,0.4-2.1,1.2c-0.7,1.2-0.2,2.7,1,3.4       c0.4,0.2,0.9,0.4,1.4,0.4c0.9,0,1.7-0.4,2.1-1.2c0.7-1.2,0.2-2.7-1-3.4C45,62.2,44.5,62.1,44.1,62.1z"></path></g></g></g></g></g></svg>
