<svg fill="#ffd635" xmlns:dc="http://purl.org/dc/elements/1.1/" xmlns:cc="http://creativecommons.org/ns#" xmlns:rdf="http://www.w3.org/1999/02/22-rdf-syntax-ns#" xmlns:svg="http://www.w3.org/2000/svg" xmlns="http://www.w3.org/2000/svg" version="1.1" x="0px" y="0px" viewBox="0 0 100 100"><path d="M 94.999998,5.0518647 67.832208,16.784185 c 0.74105,1.55475 1.40416,3.2466 1.9261,4.9798 0.33227,1.10422 0.58329,2.1492 0.7578,3.11238 l 5.53003,-3.71231 -14.30344,11.30382 5.84138,5.83682 11.30835,-14.31242 -3.72129,5.54815 c 0.96363,0.17441 2.00722,0.41602 3.11231,0.74877 1.7334,0.52192 3.42957,1.18948 4.98428,1.93058 L 94.999998,5.0518647 z M 61.160858,33.654175 5.6207279,89.194345 c -1.06034,1.0602 -0.65431,2.35894 0.40589,3.41909 l 1.30817,1.30812 c 1.06019,1.06014 2.35884,1.46616 3.4190301,0.40595 l 55.54028,-55.54466 -5.13324,-5.12867 z" style="opacity:0.98999999;color:#000000;fill:#ffd635;fill-opacity:1;fill-rule:nonzero;stroke:none;stroke-width:1px;marker:none;visibility:visible;display:inline;overflow:visible;enable-background:accumulate"></path></svg>
