<svg fill="#F5D327" xmlns="http://www.w3.org/2000/svg" xmlns:xlink="http://www.w3.org/1999/xlink" version="1.1" x="0px" y="0px" viewBox="0 0 100 100" enable-background="new 0 0 100 100" xml:space="preserve"><g display="none"><path display="inline" fill="#F5D327" d="M588.792,114.743H-649.006c-2.084,0-3.789-1.705-3.789-3.789v-1187.164   c0-2.084,1.705-3.789,3.789-3.789H588.792c2.084,0,3.789,1.705,3.789,3.789V110.954   C592.582,113.038,590.877,114.743,588.792,114.743z"></path></g><g><path fill="none" d="M52.51,55.885c-5.009-1.655-6.609-2.657-6.609-4.138c0-1.328,1.535-2.657,4.976-2.657   c3.789,0,6.163,1.078,7.175,1.546c0.218,0.098,0.447,0.152,0.675,0.152c0.632,0,1.209-0.37,1.481-0.936l1.557-3.299   c0.185-0.381,0.207-0.839,0.054-1.241c-0.141-0.414-0.446-0.74-0.838-0.925c-1.873-0.882-3.909-1.448-6.206-1.72l-0.958-0.12   v-3.277c0-0.893-0.73-1.622-1.633-1.622h-3.865c-0.893,0-1.633,0.729-1.633,1.622v3.648l-0.817,0.207   c-5.379,1.361-8.591,4.813-8.591,9.222c0,5.814,5.76,8.406,11.411,10.181c5.216,1.699,5.923,3.169,5.923,4.388   c0,1.884-2.439,3.256-5.792,3.256c-2.853,0-5.923-0.729-8.21-1.949c-0.239-0.131-0.501-0.196-0.773-0.196   c-0.174,0-0.349,0.033-0.523,0.087c-0.425,0.152-0.773,0.468-0.958,0.882l-1.503,3.343c-0.337,0.773-0.055,1.666,0.686,2.08   c1.905,1.1,4.736,1.917,7.742,2.254l0.969,0.098v3.462c0,0.904,0.729,1.633,1.633,1.633h3.931c0.893,0,1.633-0.729,1.633-1.633   v-3.778l0.817-0.218c6.664-1.677,9.026-6.261,9.026-9.669C63.289,60.251,57.845,57.627,52.51,55.885z"></path><path d="M37.309,18.733c-0.688,0-1.27,0.942-1.27,2.056v2.477c0,1.115,0.582,2.057,1.27,2.057h25.382   c0.689,0,1.271-0.942,1.271-2.057v-2.477c0-1.115-0.582-2.056-1.271-2.056H37.309z"></path><path d="M64.804,29.45c-0.655,0.263-1.365,0.417-2.113,0.417H37.309c-0.748,0-1.458-0.154-2.113-0.417   c-14.328,6.855-23.905,22.916-23.905,37.66C11.291,92.282,38.361,95,50,95c11.639,0,38.709-2.718,38.709-27.89   C88.709,52.366,79.132,36.305,64.804,29.45z M54.263,76.235l-0.817,0.218v3.778c0,0.904-0.74,1.633-1.633,1.633h-3.931   c-0.904,0-1.633-0.729-1.633-1.633v-3.462l-0.969-0.098c-3.005-0.338-5.836-1.154-7.742-2.254c-0.741-0.414-1.023-1.306-0.686-2.08   l1.503-3.343c0.185-0.414,0.534-0.729,0.958-0.882c0.174-0.054,0.348-0.087,0.523-0.087c0.272,0,0.533,0.065,0.773,0.196   c2.287,1.219,5.357,1.949,8.21,1.949c3.354,0,5.792-1.372,5.792-3.256c0-1.219-0.708-2.689-5.923-4.388   c-5.651-1.775-11.411-4.366-11.411-10.181c0-4.41,3.212-7.861,8.591-9.222l0.817-0.207v-3.648c0-0.893,0.74-1.622,1.633-1.622   h3.865c0.904,0,1.633,0.729,1.633,1.622v3.277l0.958,0.12c2.298,0.272,4.334,0.838,6.206,1.72c0.392,0.185,0.697,0.512,0.838,0.925   c0.152,0.403,0.131,0.86-0.054,1.241l-1.557,3.299c-0.272,0.566-0.849,0.936-1.481,0.936c-0.228,0-0.457-0.054-0.675-0.152   c-1.013-0.468-3.386-1.546-7.175-1.546c-3.441,0-4.976,1.328-4.976,2.657c0,1.481,1.601,2.483,6.609,4.138   c5.335,1.742,10.779,4.366,10.779,10.681C63.289,69.974,60.927,74.558,54.263,76.235z"></path><path d="M68.218,5.173c0-0.067-0.002-0.124-0.007-0.173H31.789c-0.004,0.049-0.007,0.106-0.007,0.173   c0,3.629,7.876,10.882,18.217,10.882S68.218,8.802,68.218,5.173z"></path></g></svg>