<svg fill="#638B67" xmlns="http://www.w3.org/2000/svg" xmlns:xlink="http://www.w3.org/1999/xlink" version="1.1" x="0px" y="0px" viewBox="0 0 100 100" enable-background="new 0 0 100 100" xml:space="preserve"><path stroke="black" d="M94.205,19.896c0.059-0.448,0.019-1.013-0.109-1.591c-0.218-0.965-0.637-1.753-1.071-2.004  c-0.189-0.11-0.355-0.107-0.458-0.084c-0.022,0.005-0.041,0.021-0.062,0.029l-0.006-0.031l-0.129,0.095  c-0.02,0.012-0.036,0.024-0.055,0.04l-0.478,0.35c-0.26,0.193-6.434,4.735-8.045,6.159c-1.129,0.991-1.683,0.863-2.001,0.679  c-0.49-0.286-1.206-1.197-1.827-3.92c-1.218-5.325-1.396-13.373-1.396-13.454l-0.003-0.191l-0.124-0.146  c-0.029-0.037-0.197-0.229-0.481-0.395c-0.417-0.242-1.514-0.648-2.647,0.817l-0.11,0.141l-0.003,0.182  c-0.177,9.217,1.355,15.074,2.846,17.48c1.073,1.73-1.205,4.223-2.233,5.212c-0.504,0.485-0.979,1.086-1.531,1.781  c-1.053,1.328-2.494,3.147-5.106,5.338c-1.307,1.095-2.341,1.94-3.254,2.687c-1.849,1.509-3.07,2.506-4.573,3.99  c-0.902,0.887-2.918,3.125-5.251,5.716c-3.389,3.757-7.605,8.437-9.911,10.643l-0.805,0.77  c-4.293,4.116-14.345,13.759-20.358,16.829c-5.919,3.025-11.692,6.844-15.445,10.219l-3.309,2.978  c-0.082,0.059-0.183,0.098-0.249,0.181C6,90.42,5.982,90.46,5.964,90.49l-0.167,0.148l0.062,0.048  c-0.123,0.311-0.167,0.781,0.174,1.453c0.285,0.562,0.78,1.142,1.395,1.628c0.233,0.184,0.476,0.351,0.722,0.493  c1.104,0.643,2.102,0.713,2.676,0.257l0.021,0.016l0.076-0.086c0.033-0.032,0.082-0.043,0.11-0.08  c0.029-0.039,0.043-0.082,0.068-0.122l0.081-0.092c0.061-0.067,5.991-6.75,11.277-10.294c3.603-2.414,6.32-3.888,7.945-4.768  c0.841-0.459,1.398-0.759,1.705-0.987c0.111-0.082,0.235-0.074,0.632,0.002c0.675,0.129,1.697,0.326,2.978-0.888  c0.772-0.734,1.155-1.469,1.137-2.188c-0.009-0.321-0.098-0.585-0.202-0.786c1.741-1.665,9.59-9.132,11.124-10.139  c1.138-0.748,2.145-2.02,3.21-3.362c0.679-0.854,1.379-1.738,2.115-2.479c0.564-0.568,1.963-2.024,3.731-3.871  c4.071-4.244,10.224-10.658,11.74-11.957c1.745-1.495,4.088-3.478,4.946-4.203l0.918,0.701l1.439-1.561l-0.163-0.336  c-0.005-0.009-0.459-0.955,0.189-1.527c0.254-0.223,0.683-0.661,1.276-1.267c1.695-1.73,4.849-4.951,8.132-7.379  c4.411-3.26,7.991-5.901,7.991-5.901l0.149-0.111c0.056,0.001,0.11,0.001,0.15-0.008C93.829,20.796,94.116,20.589,94.205,19.896z   M34.976,76.629c-0.579,0.484-1.282,0.603-1.57,0.261c-0.291-0.344-0.055-1.019,0.523-1.507c0.58-0.484,1.284-0.603,1.573-0.26  C35.79,75.467,35.554,76.139,34.976,76.629z M43.213,65.364c-0.508,0.558-1.188,0.77-1.521,0.472  c-0.333-0.302-0.193-1.004,0.316-1.567c0.51-0.557,1.192-0.77,1.524-0.468C43.865,64.104,43.723,64.802,43.213,65.364z   M93.446,20.146c-0.324,0.072-0.748-0.592-0.948-1.482c-0.199-0.892-0.098-1.674,0.227-1.746c0.322-0.072,0.749,0.592,0.947,1.483  C93.872,19.293,93.771,20.072,93.446,20.146z"></path></svg>
