<svg fill="#F5D327" xmlns="http://www.w3.org/2000/svg" xmlns:xlink="http://www.w3.org/1999/xlink" version="1.1" x="0px" y="0px" viewBox="0 0 72 72" enable-background="new 0 0 72 72" xml:space="preserve"><path fill="#F5D327" d="M46.4,2.9c-0.7-0.5-1.6-0.5-2.3,0c-6.5,4.4-12.6,9.9-18.2,15.7c-1.6-1.4-4-1.3-5.5,0.3  c-1.3,1.5-1.1,3.9,0.2,5.3l0,0C12.7,33.4,6,43.1,0.8,51.4c-1.3,2,1.6,4.1,3.1,2.3c8.2-9.7,15.5-17.2,21.8-23.1  c0.3-0.2,0.7-0.2,0.9,0l34.7,37c2.1,2.3,5.7,2.7,8.1,0.7c2.7-2.3,2.8-6.3,0.3-8.7L33,25.2c-0.3-0.3-0.3-0.7,0-1  c9.1-7.5,15.6-11.1,19.3-12.7c1.4-0.6,1.8-2.6,0.6-3.5L46.4,2.9z"></path></svg>