<svg fill="#535252" xmlns:dc="http://purl.org/dc/elements/1.1/" xmlns:cc="http://creativecommons.org/ns#" xmlns:rdf="http://www.w3.org/1999/02/22-rdf-syntax-ns#" xmlns:svg="http://www.w3.org/2000/svg" xmlns="http://www.w3.org/2000/svg" xmlns:sodipodi="http://sodipodi.sourceforge.net/DTD/sodipodi-0.dtd" xmlns:inkscape="http://www.inkscape.org/namespaces/inkscape" viewBox="0 0 32 32.000001" version="1.1" x="0px" y="0px"><g transform="translate(0,-1020.3622)"><path style="color:#000000;font-style:normal;font-variant:normal;font-weight:normal;font-stretch:normal;font-size:medium;line-height:normal;font-family:sans-serif;text-indent:0;text-align:start;text-decoration:none;text-decoration-line:none;text-decoration-style:solid;text-decoration-color:#000000;letter-spacing:normal;word-spacing:normal;text-transform:none;direction:ltr;block-progression:tb;writing-mode:lr-tb;baseline-shift:baseline;text-anchor:start;white-space:normal;clip-rule:nonzero;display:inline;overflow:visible;visibility:visible;opacity:1;isolation:auto;mix-blend-mode:normal;color-interpolation:sRGB;color-interpolation-filters:linearRGB;solid-color:#000000;solid-opacity:1;fill:#535252;fill-opacity:1;fill-rule:evenodd;stroke:none;stroke-width:0.99921262;stroke-linecap:round;stroke-linejoin:round;stroke-miterlimit:4;stroke-dasharray:none;stroke-dashoffset:0;stroke-opacity:1;color-rendering:auto;image-rendering:auto;shape-rendering:auto;text-rendering:auto;enable-background:accumulate" d="m 30.513672,1020.6758 c -0.156726,-4e-4 -0.360867,0.061 -0.501953,0.2012 -5.314354,5.2898 -14.776783,15.6467 -19.851563,20.9707 a 0.49965627,0.49965627 0 1 0 0.722656,0.6894 c 5.057201,-5.3055 14.399819,-15.5224 19.69336,-20.8047 0.0628,0.038 0.134841,0.08 0.210937,0.1543 0.07719,0.076 0.122211,0.148 0.160157,0.209 -1.538709,1.5326 -5.168548,5.4735 -9.076172,9.7246 -3.97096,4.32 -8.142319,8.8625 -10.378906,11.1758 a 0.49965627,0.49965627 0 1 0 0.71875,0.6934 c 2.259436,-2.337 6.423892,-6.8737 10.394531,-11.1934 3.970639,-4.3197 7.758122,-8.4328 9.189453,-9.8477 0.141621,-0.1398 0.206099,-0.3473 0.205078,-0.5058 -0.001,-0.1585 -0.04317,-0.2827 -0.09375,-0.3946 -0.101151,-0.2237 -0.248535,-0.4075 -0.417969,-0.5742 -0.169434,-0.1666 -0.355239,-0.3101 -0.580078,-0.4082 -0.112419,-0.049 -0.237806,-0.089 -0.394531,-0.09 z"></path><path style="color:#000000;font-style:normal;font-variant:normal;font-weight:normal;font-stretch:normal;font-size:medium;line-height:normal;font-family:sans-serif;text-indent:0;text-align:start;text-decoration:none;text-decoration-line:none;text-decoration-style:solid;text-decoration-color:#000000;letter-spacing:normal;word-spacing:normal;text-transform:none;direction:ltr;block-progression:tb;writing-mode:lr-tb;baseline-shift:baseline;text-anchor:start;white-space:normal;clip-rule:nonzero;display:inline;overflow:visible;visibility:visible;opacity:1;isolation:auto;mix-blend-mode:normal;color-interpolation:sRGB;color-interpolation-filters:linearRGB;solid-color:#000000;solid-opacity:1;fill:#535252;fill-opacity:1;fill-rule:evenodd;stroke:none;stroke-width:0.99921262;stroke-linecap:round;stroke-linejoin:round;stroke-miterlimit:4;stroke-dasharray:none;stroke-dashoffset:0;stroke-opacity:1;color-rendering:auto;image-rendering:auto;shape-rendering:auto;text-rendering:auto;enable-background:accumulate" d="m 8.7089844,1041.5488 c -0.7841298,-0.022 -1.6216933,0.051 -2.4199219,0.3418 a 0.49965627,0.49965627 0 0 0 -0.015625,0.01 c -0.4200645,0.1701 -0.7353053,0.4246 -1.0058594,0.6055 a 0.49965627,0.49965627 0 0 0 -0.046875,0.7949 l 6.5800779,5.6114 a 0.49965627,0.49965627 0 0 0 0.769531,-0.1524 c 0,0 0.106386,-0.206 0.222657,-0.4668 0.116036,-0.2602 0.244856,-0.5593 0.302734,-0.8633 l 0,-0 c 0.117091,-0.6034 0.07389,-1.1904 0.0059,-1.7207 a 0.49965627,0.49965627 0 0 0 -0.002,-0.012 c -0.108167,-0.7145 -0.277524,-1.4713 -0.667968,-2.1485 -0.331256,-0.5746 -0.781763,-1.1609 -1.4375,-1.5234 -0.732313,-0.405 -1.5575642,-0.4533 -2.2832035,-0.4727 l -0.00195,0 z m -0.027344,0.9981 a 0.49965627,0.49965627 0 0 0 0.00195,0 c 0.6895741,0.018 1.3588462,0.09 1.8281252,0.3496 0.416254,0.2301 0.772786,0.6628 1.052734,1.1484 0.288776,0.5008 0.444954,1.1353 0.544922,1.793 0.06215,0.4868 0.09006,0.9679 0.0059,1.4004 a 0.49965627,0.49965627 0 0 0 0,0 c -0.01579,0.083 -0.09949,0.2917 -0.173828,0.4766 l -5.550781,-4.7324 c 0.079204,-0.047 0.1756415,-0.1257 0.25,-0.1563 0.6346624,-0.2293 1.3438586,-0.3009 2.0410156,-0.2812 z"></path><path style="color:#000000;font-style:normal;font-variant:normal;font-weight:normal;font-stretch:normal;font-size:medium;line-height:normal;font-family:sans-serif;text-indent:0;text-align:start;text-decoration:none;text-decoration-line:none;text-decoration-style:solid;text-decoration-color:#000000;letter-spacing:normal;word-spacing:normal;text-transform:none;direction:ltr;block-progression:tb;writing-mode:lr-tb;baseline-shift:baseline;text-anchor:start;white-space:normal;clip-rule:nonzero;display:inline;overflow:visible;visibility:visible;opacity:1;isolation:auto;mix-blend-mode:normal;color-interpolation:sRGB;color-interpolation-filters:linearRGB;solid-color:#000000;solid-opacity:1;fill:#535252;fill-opacity:1;fill-rule:evenodd;stroke:none;stroke-width:0.99921262;stroke-linecap:round;stroke-linejoin:round;stroke-miterlimit:4;stroke-dasharray:none;stroke-dashoffset:0;stroke-opacity:1;color-rendering:auto;image-rendering:auto;shape-rendering:auto;text-rendering:auto;enable-background:accumulate" d="m 7.8398438,1044.377 a 0.49965627,0.49965627 0 0 0 -0.3847657,0.1699 l -4.8984375,5.4238 a 0.49965627,0.49965627 0 0 0 -0.017578,0.6504 c 0.6082127,0.7489 1.3651379,1.1374 2.0800781,1.5351 a 0.49965627,0.49965627 0 0 0 0.6152344,-0.1054 l 4.7285156,-5.332 a 0.49965627,0.49965627 0 1 0 -0.7480468,-0.6622 l -4.4296876,4.9961 c -0.4304566,-0.2432 -0.8041688,-0.5086 -1.1269531,-0.8125 l 4.5390625,-5.0234 a 0.49965627,0.49965627 0 0 0 -0.3574218,-0.8398 z"></path><path style="color:#000000;font-style:normal;font-variant:normal;font-weight:normal;font-stretch:normal;font-size:medium;line-height:normal;font-family:sans-serif;text-indent:0;text-align:start;text-decoration:none;text-decoration-line:none;text-decoration-style:solid;text-decoration-color:#000000;letter-spacing:normal;word-spacing:normal;text-transform:none;direction:ltr;block-progression:tb;writing-mode:lr-tb;baseline-shift:baseline;text-anchor:start;white-space:normal;clip-rule:nonzero;display:inline;overflow:visible;visibility:visible;opacity:1;isolation:auto;mix-blend-mode:normal;color-interpolation:sRGB;color-interpolation-filters:linearRGB;solid-color:#000000;solid-opacity:1;fill:#535252;fill-opacity:1;fill-rule:evenodd;stroke:none;stroke-width:0.24999999;stroke-linecap:round;stroke-linejoin:round;stroke-miterlimit:4;stroke-dasharray:none;stroke-dashoffset:0;stroke-opacity:1;color-rendering:auto;image-rendering:auto;shape-rendering:auto;text-rendering:auto;enable-background:accumulate" d="m 4.9902344,1049.207 a 0.12501249,0.12501249 0 0 0 -0.00781,0 l -1.1132813,0.1172 a 0.12501249,0.12501249 0 1 0 0.027344,0.248 l 1.1113281,-0.1172 a 0.12530861,0.12530861 0 1 0 -0.017578,-0.25 z"></path><path style="color:#000000;font-style:normal;font-variant:normal;font-weight:normal;font-stretch:normal;font-size:medium;line-height:normal;font-family:sans-serif;text-indent:0;text-align:start;text-decoration:none;text-decoration-line:none;text-decoration-style:solid;text-decoration-color:#000000;letter-spacing:normal;word-spacing:normal;text-transform:none;direction:ltr;block-progression:tb;writing-mode:lr-tb;baseline-shift:baseline;text-anchor:start;white-space:normal;clip-rule:nonzero;display:inline;overflow:visible;visibility:visible;opacity:1;isolation:auto;mix-blend-mode:normal;color-interpolation:sRGB;color-interpolation-filters:linearRGB;solid-color:#000000;solid-opacity:1;fill:#535252;fill-opacity:1;fill-rule:evenodd;stroke:none;stroke-width:0.24999999;stroke-linecap:round;stroke-linejoin:round;stroke-miterlimit:4;stroke-dasharray:none;stroke-dashoffset:0;stroke-opacity:1;color-rendering:auto;image-rendering:auto;shape-rendering:auto;text-rendering:auto;enable-background:accumulate" d="m 4.6660156,1049.6895 -1.078125,0.062 a 0.1252439,0.1252439 0 1 0 0.015625,0.25 l 1.078125,-0.064 a 0.12501249,0.12501249 0 1 0 -0.015625,-0.248 z"></path><path style="color:#000000;font-style:normal;font-variant:normal;font-weight:normal;font-stretch:normal;font-size:medium;line-height:normal;font-family:sans-serif;text-indent:0;text-align:start;text-decoration:none;text-decoration-line:none;text-decoration-style:solid;text-decoration-color:#000000;letter-spacing:normal;word-spacing:normal;text-transform:none;direction:ltr;block-progression:tb;writing-mode:lr-tb;baseline-shift:baseline;text-anchor:start;white-space:normal;clip-rule:nonzero;display:inline;overflow:visible;visibility:visible;opacity:1;isolation:auto;mix-blend-mode:normal;color-interpolation:sRGB;color-interpolation-filters:linearRGB;solid-color:#000000;solid-opacity:1;fill:#535252;fill-opacity:1;fill-rule:evenodd;stroke:none;stroke-width:0.24999999;stroke-linecap:round;stroke-linejoin:round;stroke-miterlimit:4;stroke-dasharray:none;stroke-dashoffset:0;stroke-opacity:1;color-rendering:auto;image-rendering:auto;shape-rendering:auto;text-rendering:auto;enable-background:accumulate" d="m 3.3945312,1050.1914 a 0.12513725,0.12513725 0 1 0 0.011719,0.25 l 0.9921875,0 a 0.12501249,0.12501249 0 1 0 0,-0.25 l -0.9921875,0 a 0.12501249,0.12501249 0 0 0 -0.011719,0 z"></path><path style="color:#000000;font-style:normal;font-variant:normal;font-weight:normal;font-stretch:normal;font-size:medium;line-height:normal;font-family:sans-serif;text-indent:0;text-align:start;text-decoration:none;text-decoration-line:none;text-decoration-style:solid;text-decoration-color:#000000;letter-spacing:normal;word-spacing:normal;text-transform:none;direction:ltr;block-progression:tb;writing-mode:lr-tb;baseline-shift:baseline;text-anchor:start;white-space:normal;clip-rule:nonzero;display:inline;overflow:visible;visibility:visible;opacity:1;isolation:auto;mix-blend-mode:normal;color-interpolation:sRGB;color-interpolation-filters:linearRGB;solid-color:#000000;solid-opacity:1;fill:#535252;fill-opacity:1;fill-rule:evenodd;stroke:none;stroke-width:0.24999999;stroke-linecap:round;stroke-linejoin:round;stroke-miterlimit:4;stroke-dasharray:none;stroke-dashoffset:0;stroke-opacity:1;color-rendering:auto;image-rendering:auto;shape-rendering:auto;text-rendering:auto;enable-background:accumulate" d="m 3.4746094,1050.6562 a 0.1252439,0.1252439 0 1 0 0.015625,0.25 l 0.9589844,0.035 a 0.12506102,0.12506102 0 1 0 0.00781,-0.25 L 3.5,1050.6562 a 0.12501249,0.12501249 0 0 0 -0.025391,0 z"></path><path style="color:#000000;font-style:normal;font-variant:normal;font-weight:normal;font-stretch:normal;font-size:medium;line-height:normal;font-family:sans-serif;text-indent:0;text-align:start;text-decoration:none;text-decoration-line:none;text-decoration-style:solid;text-decoration-color:#000000;letter-spacing:normal;word-spacing:normal;text-transform:none;direction:ltr;block-progression:tb;writing-mode:lr-tb;baseline-shift:baseline;text-anchor:start;white-space:normal;clip-rule:nonzero;display:inline;overflow:visible;visibility:visible;opacity:1;isolation:auto;mix-blend-mode:normal;color-interpolation:sRGB;color-interpolation-filters:linearRGB;solid-color:#000000;solid-opacity:1;fill:#535252;fill-opacity:1;fill-rule:evenodd;stroke:none;stroke-width:0.24999999;stroke-linecap:round;stroke-linejoin:round;stroke-miterlimit:4;stroke-dasharray:none;stroke-dashoffset:0;stroke-opacity:1;color-rendering:auto;image-rendering:auto;shape-rendering:auto;text-rendering:auto;enable-background:accumulate" d="m 11.046875,1044.0996 a 0.12501249,0.12501249 0 0 0 -0.113281,0.1582 c 0,0 0.173496,0.7028 0.195312,1.0332 a 0.12501249,0.12501249 0 0 0 0.002,0.01 c 0.02859,0.2421 0.02774,0.4844 -0.02734,0.7168 a 0.12501249,0.12501249 0 1 0 0.242187,0.057 c 0.0633,-0.2672 0.06323,-0.5375 0.0332,-0.7969 l 0,-0 c -0.02623,-0.3903 -0.203125,-1.0781 -0.203125,-1.0781 a 0.12501249,0.12501249 0 0 0 -0.128906,-0.096 z"></path><path style="color:#000000;font-style:normal;font-variant:normal;font-weight:normal;font-stretch:normal;font-size:medium;line-height:normal;font-family:sans-serif;text-indent:0;text-align:start;text-decoration:none;text-decoration-line:none;text-decoration-style:solid;text-decoration-color:#000000;letter-spacing:normal;word-spacing:normal;text-transform:none;direction:ltr;block-progression:tb;writing-mode:lr-tb;baseline-shift:baseline;text-anchor:start;white-space:normal;clip-rule:nonzero;display:inline;overflow:visible;visibility:visible;opacity:1;isolation:auto;mix-blend-mode:normal;color-interpolation:sRGB;color-interpolation-filters:linearRGB;solid-color:#000000;solid-opacity:1;fill:#535252;fill-opacity:1;fill-rule:evenodd;stroke:none;stroke-width:0.99921262;stroke-linecap:round;stroke-linejoin:round;stroke-miterlimit:4;stroke-dasharray:none;stroke-dashoffset:0;stroke-opacity:1;color-rendering:auto;image-rendering:auto;shape-rendering:auto;text-rendering:auto;enable-background:accumulate" d="m 21.177734,1041.5488 c -0.726357,0.019 -1.552101,0.067 -2.285156,0.4727 -0.655332,0.3625 -1.104461,0.9485 -1.435547,1.5234 -0.390445,0.6772 -0.561755,1.434 -0.669922,2.1485 a 0.49965627,0.49965627 0 0 0 0,0.012 c -0.06811,0.5309 -0.113694,1.1186 0.0039,1.7226 0.05788,0.304 0.188653,0.6031 0.304687,0.8633 0.116268,0.2608 0.222656,0.4668 0.222656,0.4668 a 0.49965627,0.49965627 0 0 0 0.767579,0.1524 l 6.580078,-5.6114 a 0.49965627,0.49965627 0 0 0 -0.04687,-0.7949 c -0.270399,-0.1809 -0.585043,-0.4356 -1.00586,-0.6055 a 0.49965627,0.49965627 0 0 0 -0.01563,-0.01 c -0.798666,-0.291 -1.635518,-0.364 -2.419922,-0.3418 z m 0.02734,0.9981 c 0.697502,-0.02 1.408256,0.051 2.042969,0.2812 0.07358,0.03 0.169704,0.1082 0.248047,0.1543 l -5.548828,4.7344 c -0.07442,-0.1851 -0.158019,-0.3931 -0.173828,-0.4766 a 0.49965627,0.49965627 0 0 0 0,-0 c -0.0842,-0.4325 -0.05825,-0.9136 0.0039,-1.4004 0.09997,-0.6577 0.256145,-1.2922 0.544922,-1.793 0.279511,-0.4853 0.636681,-0.9183 1.052734,-1.1484 0.469729,-0.2596 1.140217,-0.3312 1.830078,-0.3496 z"></path><path style="color:#000000;font-style:normal;font-variant:normal;font-weight:normal;font-stretch:normal;font-size:medium;line-height:normal;font-family:sans-serif;text-indent:0;text-align:start;text-decoration:none;text-decoration-line:none;text-decoration-style:solid;text-decoration-color:#000000;letter-spacing:normal;word-spacing:normal;text-transform:none;direction:ltr;block-progression:tb;writing-mode:lr-tb;baseline-shift:baseline;text-anchor:start;white-space:normal;clip-rule:nonzero;display:inline;overflow:visible;visibility:visible;opacity:1;isolation:auto;mix-blend-mode:normal;color-interpolation:sRGB;color-interpolation-filters:linearRGB;solid-color:#000000;solid-opacity:1;fill:#535252;fill-opacity:1;fill-rule:evenodd;stroke:none;stroke-width:0.24999999;stroke-linecap:round;stroke-linejoin:round;stroke-miterlimit:4;stroke-dasharray:none;stroke-dashoffset:0;stroke-opacity:1;color-rendering:auto;image-rendering:auto;shape-rendering:auto;text-rendering:auto;enable-background:accumulate" d="m 21.419922,1043.0371 c -0.390673,-0.029 -1.091797,0.045 -1.091797,0.045 a 0.12501249,0.12501249 0 1 0 0.02539,0.2481 c 0,0 0.722323,-0.071 1.052734,-0.045 a 0.12501249,0.12501249 0 0 0 0.0039,0 c 0.245527,0.01 0.485775,0.041 0.707032,0.1289 a 0.12501249,0.12501249 0 1 0 0.0918,-0.2324 c -0.256693,-0.1015 -0.523723,-0.1359 -0.783203,-0.1465 l -0.0059,0 z"></path><path style="color:#000000;font-style:normal;font-variant:normal;font-weight:normal;font-stretch:normal;font-size:medium;line-height:normal;font-family:sans-serif;text-indent:0;text-align:start;text-decoration:none;text-decoration-line:none;text-decoration-style:solid;text-decoration-color:#000000;letter-spacing:normal;word-spacing:normal;text-transform:none;direction:ltr;block-progression:tb;writing-mode:lr-tb;baseline-shift:baseline;text-anchor:start;white-space:normal;clip-rule:nonzero;display:inline;overflow:visible;visibility:visible;opacity:1;isolation:auto;mix-blend-mode:normal;color-interpolation:sRGB;color-interpolation-filters:linearRGB;solid-color:#000000;solid-opacity:1;fill:#535252;fill-opacity:1;fill-rule:evenodd;stroke:none;stroke-width:0.99921262;stroke-linecap:round;stroke-linejoin:round;stroke-miterlimit:4;stroke-dasharray:none;stroke-dashoffset:0;stroke-opacity:1;color-rendering:auto;image-rendering:auto;shape-rendering:auto;text-rendering:auto;enable-background:accumulate" d="m 1.4921875,1020.5059 c -0.1591352,-0 -0.2857132,0.037 -0.3984375,0.086 -0.22544864,0.097 -0.40912134,0.2415 -0.578125,0.4082 -0.16900366,0.1667 -0.31641245,0.3512 -0.41796875,0.5742 C 0.0468781,1021.6857 0.0035685,1021.8091 0,1021.9648 c -0.0035685,0.1558 0.05145937,0.3592 0.1875,0.504 a 0.49965627,0.49965627 0 0 0 0,0 c 1.4084019,1.4977 3.5234713,4.4644 5.8261719,7.6231 2.3027006,3.1586 4.8037291,6.5183 7.0898441,8.8828 a 0.50004568,0.50004568 0 1 0 0.71875,-0.6954 c -2.209919,-2.2856 -4.703811,-5.6229 -7.0019535,-8.7753 -2.2503886,-3.087 -4.2746364,-5.929 -5.78125,-7.5606 0.036213,-0.063 0.093021,-0.1489 0.1777344,-0.2324 0.067956,-0.067 0.126403,-0.099 0.1855469,-0.1367 4.8492551,5.213 7.9938009,10.7754 13.0742182,16.1054 a 0.49965627,0.49965627 0 1 0 0.722657,-0.6894 c -5.033811,-5.2811 -8.1693195,-10.9048 -13.2050784,-16.2695 -0.1359917,-0.1449 -0.3428179,-0.2145 -0.5019531,-0.2168 z"></path><path style="color:#000000;font-style:normal;font-variant:normal;font-weight:normal;font-stretch:normal;font-size:medium;line-height:normal;font-family:sans-serif;text-indent:0;text-align:start;text-decoration:none;text-decoration-line:none;text-decoration-style:solid;text-decoration-color:#000000;letter-spacing:normal;word-spacing:normal;text-transform:none;direction:ltr;block-progression:tb;writing-mode:lr-tb;baseline-shift:baseline;text-anchor:start;white-space:normal;clip-rule:nonzero;display:inline;overflow:visible;visibility:visible;opacity:1;isolation:auto;mix-blend-mode:normal;color-interpolation:sRGB;color-interpolation-filters:linearRGB;solid-color:#000000;solid-opacity:1;fill:#535252;fill-opacity:1;fill-rule:evenodd;stroke:none;stroke-width:0.99999994px;stroke-linecap:butt;stroke-linejoin:miter;stroke-miterlimit:4;stroke-dasharray:none;stroke-dashoffset:0;stroke-opacity:1;color-rendering:auto;image-rendering:auto;shape-rendering:auto;text-rendering:auto;enable-background:accumulate" d="m 15.328125,1039.8262 -0.726563,0.6875 3.158204,3.3398 0.726562,-0.6855 -3.158203,-3.3418 z"></path><path style="color:#000000;font-style:normal;font-variant:normal;font-weight:normal;font-stretch:normal;font-size:medium;line-height:normal;font-family:sans-serif;text-indent:0;text-align:start;text-decoration:none;text-decoration-line:none;text-decoration-style:solid;text-decoration-color:#000000;letter-spacing:normal;word-spacing:normal;text-transform:none;direction:ltr;block-progression:tb;writing-mode:lr-tb;baseline-shift:baseline;text-anchor:start;white-space:normal;clip-rule:nonzero;display:inline;overflow:visible;visibility:visible;opacity:1;isolation:auto;mix-blend-mode:normal;color-interpolation:sRGB;color-interpolation-filters:linearRGB;solid-color:#000000;solid-opacity:1;fill:#535252;fill-opacity:1;fill-rule:evenodd;stroke:none;stroke-width:0.99999994px;stroke-linecap:butt;stroke-linejoin:miter;stroke-miterlimit:4;stroke-dasharray:none;stroke-dashoffset:0;stroke-opacity:1;color-rendering:auto;image-rendering:auto;shape-rendering:auto;text-rendering:auto;enable-background:accumulate" d="m 16.505859,1038.4766 -0.736328,0.6777 3.136719,3.416 0.736328,-0.6777 -3.136719,-3.416 z"></path><path style="color:#000000;font-style:normal;font-variant:normal;font-weight:normal;font-stretch:normal;font-size:medium;line-height:normal;font-family:sans-serif;text-indent:0;text-align:start;text-decoration:none;text-decoration-line:none;text-decoration-style:solid;text-decoration-color:#000000;letter-spacing:normal;word-spacing:normal;text-transform:none;direction:ltr;block-progression:tb;writing-mode:lr-tb;baseline-shift:baseline;text-anchor:start;white-space:normal;clip-rule:nonzero;display:inline;overflow:visible;visibility:visible;opacity:1;isolation:auto;mix-blend-mode:normal;color-interpolation:sRGB;color-interpolation-filters:linearRGB;solid-color:#000000;solid-opacity:1;fill:#535252;fill-opacity:1;fill-rule:evenodd;stroke:none;stroke-width:0.99921268;stroke-linecap:round;stroke-linejoin:round;stroke-miterlimit:4;stroke-dasharray:none;stroke-dashoffset:0;stroke-opacity:1;color-rendering:auto;image-rendering:auto;shape-rendering:auto;text-rendering:auto;enable-background:accumulate" d="m 22.107422,1044.5195 a 0.4996563,0.4996563 0 0 0 -0.341797,0.8379 l 4.232422,4.6875 c -0.288859,0.2669 -0.621037,0.5074 -1.003906,0.7246 l -4.138672,-4.666 a 0.4996563,0.4996563 0 1 0 -0.746094,0.6621 l 4.433594,5.002 a 0.4996563,0.4996563 0 0 0 0.617187,0.1054 c 0.670174,-0.3728 1.383853,-0.739 1.958985,-1.4472 a 0.4996563,0.4996563 0 0 0 -0.01758,-0.6485 l -4.59375,-5.0878 a 0.4996563,0.4996563 0 0 0 -0.40039,-0.17 z"></path><path style="color:#000000;font-style:normal;font-variant:normal;font-weight:normal;font-stretch:normal;font-size:medium;line-height:normal;font-family:sans-serif;text-indent:0;text-align:start;text-decoration:none;text-decoration-line:none;text-decoration-style:solid;text-decoration-color:#000000;letter-spacing:normal;word-spacing:normal;text-transform:none;direction:ltr;block-progression:tb;writing-mode:lr-tb;baseline-shift:baseline;text-anchor:start;white-space:normal;clip-rule:nonzero;display:inline;overflow:visible;visibility:visible;opacity:1;isolation:auto;mix-blend-mode:normal;color-interpolation:sRGB;color-interpolation-filters:linearRGB;solid-color:#000000;solid-opacity:1;fill:#535252;fill-opacity:1;fill-rule:evenodd;stroke:none;stroke-width:0.24999999;stroke-linecap:round;stroke-linejoin:round;stroke-miterlimit:4;stroke-dasharray:none;stroke-dashoffset:0;stroke-opacity:1;color-rendering:auto;image-rendering:auto;shape-rendering:auto;text-rendering:auto;enable-background:accumulate" d="m 24.792969,1049.0723 a 0.12518678,0.12518678 0 1 0 -0.01367,0.25 l 1.042969,0.1113 a 0.12501249,0.12501249 0 1 0 0.02539,-0.2481 l -1.042968,-0.1113 a 0.12501249,0.12501249 0 0 0 -0.01172,-0 z"></path><path style="color:#000000;font-style:normal;font-variant:normal;font-weight:normal;font-stretch:normal;font-size:medium;line-height:normal;font-family:sans-serif;text-indent:0;text-align:start;text-decoration:none;text-decoration-line:none;text-decoration-style:solid;text-decoration-color:#000000;letter-spacing:normal;word-spacing:normal;text-transform:none;direction:ltr;block-progression:tb;writing-mode:lr-tb;baseline-shift:baseline;text-anchor:start;white-space:normal;clip-rule:nonzero;display:inline;overflow:visible;visibility:visible;opacity:1;isolation:auto;mix-blend-mode:normal;color-interpolation:sRGB;color-interpolation-filters:linearRGB;solid-color:#000000;solid-opacity:1;fill:#535252;fill-opacity:1;fill-rule:evenodd;stroke:none;stroke-width:0.24999999;stroke-linecap:round;stroke-linejoin:round;stroke-miterlimit:4;stroke-dasharray:none;stroke-dashoffset:0;stroke-opacity:1;color-rendering:auto;image-rendering:auto;shape-rendering:auto;text-rendering:auto;enable-background:accumulate" d="m 25.087891,1049.5234 a 0.12501249,0.12501249 0 0 0 -0.002,0.25 l 1.011718,0.061 a 0.12518678,0.12518678 0 1 0 0.01367,-0.25 l -1.011719,-0.059 a 0.12501249,0.12501249 0 0 0 -0.01172,-0 z"></path><path style="color:#000000;font-style:normal;font-variant:normal;font-weight:normal;font-stretch:normal;font-size:medium;line-height:normal;font-family:sans-serif;text-indent:0;text-align:start;text-decoration:none;text-decoration-line:none;text-decoration-style:solid;text-decoration-color:#000000;letter-spacing:normal;word-spacing:normal;text-transform:none;direction:ltr;block-progression:tb;writing-mode:lr-tb;baseline-shift:baseline;text-anchor:start;white-space:normal;clip-rule:nonzero;display:inline;overflow:visible;visibility:visible;opacity:1;isolation:auto;mix-blend-mode:normal;color-interpolation:sRGB;color-interpolation-filters:linearRGB;solid-color:#000000;solid-opacity:1;fill:#535252;fill-opacity:1;fill-rule:evenodd;stroke:none;stroke-width:0.24999999;stroke-linecap:round;stroke-linejoin:round;stroke-miterlimit:4;stroke-dasharray:none;stroke-dashoffset:0;stroke-opacity:1;color-rendering:auto;image-rendering:auto;shape-rendering:auto;text-rendering:auto;enable-background:accumulate" d="m 25.337891,1049.9961 a 0.12518676,0.12518676 0 1 0 0.01367,0.25 l 0.929688,0 a 0.12501249,0.12501249 0 1 0 0,-0.25 l -0.929688,0 a 0.12501249,0.12501249 0 0 0 -0.01367,0 z"></path><path style="color:#000000;font-style:normal;font-variant:normal;font-weight:normal;font-stretch:normal;font-size:medium;line-height:normal;font-family:sans-serif;text-indent:0;text-align:start;text-decoration:none;text-decoration-line:none;text-decoration-style:solid;text-decoration-color:#000000;letter-spacing:normal;word-spacing:normal;text-transform:none;direction:ltr;block-progression:tb;writing-mode:lr-tb;baseline-shift:baseline;text-anchor:start;white-space:normal;clip-rule:nonzero;display:inline;overflow:visible;visibility:visible;opacity:1;isolation:auto;mix-blend-mode:normal;color-interpolation:sRGB;color-interpolation-filters:linearRGB;solid-color:#000000;solid-opacity:1;fill:#535252;fill-opacity:1;fill-rule:evenodd;stroke:none;stroke-width:0.24999999;stroke-linecap:round;stroke-linejoin:round;stroke-miterlimit:4;stroke-dasharray:none;stroke-dashoffset:0;stroke-opacity:1;color-rendering:auto;image-rendering:auto;shape-rendering:auto;text-rendering:auto;enable-background:accumulate" d="m 26.195312,1050.4316 -0.90039,0.033 a 0.12509534,0.12509534 0 1 0 0.0098,0.25 l 0.898437,-0.033 a 0.12506103,0.12506103 0 1 0 -0.0078,-0.25 z"></path></g></svg>