<svg fill="#0A5D19" xmlns="http://www.w3.org/2000/svg" xmlns:xlink="http://www.w3.org/1999/xlink" version="1.1" x="0px" y="0px" viewBox="0 0 100 100" style="enable-background:new 0 0 100 100;" xml:space="preserve"><style type="text/css">
	.st0{fill:none;stroke:#0A5D19;stroke-width:2;stroke-linecap:round;stroke-linejoin:round;stroke-miterlimit:10;}
</style><path d="M21.6,45.7c0,14.5,11,26.5,25,28.2l-3,1.7c-0.3,0.2-0.5,0.5-0.5,0.9v6.8c0,0.4,0.2,0.7,0.5,0.9l5.9,3.4c0,0,0,0,0.1,0  c0,0,0.1,0,0.1,0c0.1,0,0.2,0.1,0.3,0.1s0.2,0,0.3-0.1c0,0,0.1,0,0.1,0c0,0,0.1,0,0.1,0l5.9-3.4c0.3-0.2,0.5-0.5,0.5-0.9v-6.8  c0-0.4-0.2-0.7-0.5-0.9l-3-1.7c14.1-1.7,25-13.7,25-28.2C78.4,30,65.6,17.3,50,17.3S21.6,30,21.6,45.7z M49,74.8v4.1h-3.9V77  L49,74.8z M45.1,80.9H49v4.1l-3.9-2.2V80.9z M51,84.9v-4.1h3.9v1.8L51,84.9z M54.8,78.9H51v-4.1l3.9,2.2V78.9z M50,19.3  c14.6,0,26.4,11.8,26.4,26.4S64.5,72.1,50,72.1c-14.6,0-26.4-11.8-26.4-26.4S35.4,19.3,50,19.3z"></path></svg>
