<svg fill="#164F86" xmlns="http://www.w3.org/2000/svg" xmlns:xlink="http://www.w3.org/1999/xlink" version="1.1" x="0px" y="0px" viewBox="0 0 320.9 319.4" enable-background="new 0 0 320.9 319.4" xml:space="preserve"><path d="M170.1,14.6l-3.7-4.2v0l-4.4-5l-12.2,13.5L74.6,102v1.9v3.1v115l2.2,0.8l79.3,84.8l6,6.4l37.2-41.3l44.8-50l2.1-0.8V107  v-3.1V102L170.1,14.6z M233.2,102.4l-33.1,16.9L173.7,34L233.2,102.4z M161.8,29.5l28.5,91.9h-57.9L161.8,29.5z M130.7,131.4h61.5  v98.7h-61.5V131.4z M150.1,33.4l-27.4,86l-34.9-17.1L150.1,33.4z M120.7,129.6V228l-36-13v-103L120.7,129.6z M97.5,230.3l24.6,8.9  l19.5,38.3L97.5,230.3z M162,295.5l-28.2-55.4h55.3L162,295.5z M182.5,276.5l18.3-37.4l23-8.7L182.5,276.5z M236.2,215l-34.1,12.9  v-98.4l34.1-17.4V215z"></path></svg>
