<svg xmlns="http://www.w3.org/2000/svg" xmlns:xlink="http://www.w3.org/1999/xlink" version="1.1" x="0px" y="0px" viewBox="0 0 100 100" enable-background="new 0 0 100 100" xml:space="preserve"><path d="M70.329,76.945l-5.924,0.962l-1.438-0.346l2.214-7.954c0.484-0.359,0.81-0.93,0.818-1.578l0.021-1.438l0.318-1.143  c0.163-0.588,0.039-1.184-0.277-1.652l0.104-7.251c0.008-0.541-0.204-1.062-0.586-1.443l-7.519-7.516  C57.687,47.21,57.178,47,56.647,47h-9.7c1.69-4.526,2.615-9.169,2.615-12h-0.004c0-0.031,0.004-0.062,0.004-0.093  c0-2.109-0.431-4.187-1.258-6.107c0.98-1.349,0.879-3.432,0.654-5.639L48.942,23c-0.164-1.627-0.164-2.375,0-4.001  c0.142-1.405-0.266-2.73-1.119-3.673C47.037,14.457,45.936,14,44.722,14H25.277c-1.214,0-2.316,0.457-3.103,1.327  c-0.853,0.944-1.261,2.28-1.119,3.684c0.13,1.289,0.155,2.027,0.079,3.087c-1.223-0.573-2.921-1.095-5.135-1.095  c-2.796,0-4-3.037-4-4.001c0-1.47-1.076-2.264-2.088-2.264c-0.666,0-2.226,0-3.152,4.805c-0.899,4.671,0.375,8.066,3.497,9.314  c1.657,0.663,3.354,0.999,5.046,0.999c0,0,0,0,0,0c2.491,0,4.643-0.733,6.057-1.626c0.093,0.202,0.205,0.391,0.334,0.568  c-0.827,1.921-1.259,4-1.259,6.109c0,0.031,0.004,0.062,0.004,0.093h-0.004c0,2.831,0.925,7.474,2.615,12h-9.616  c-0.552,0-1.08,0.228-1.458,0.631l-7.06,7.516c-0.693,0.738-0.726,1.878-0.075,2.654l9.625,11.484  c0.54,0.645,1.425,0.883,2.216,0.595C17.474,69.592,18,68.841,18,68v-3c0-0.215-0.035-0.429-0.103-0.633L16.107,59h3.142  l0.225,0.344l0.297,8.647l-0.021,5.069c0.063,2.081,0.768,4.064,1.896,5.763l8.543,18.216c0.334,0.713,1.047,1.15,1.81,1.15  c0.144,0,0.29-0.016,0.436-0.048C33.35,97.938,34,97.126,34,96.189V84h2v12.189c0,0.937,0.65,1.748,1.565,1.952  c0.146,0.032,0.292,0.048,0.436,0.048c0.762,0,1.476-0.438,1.81-1.15l9-19.189c0.18-0.385,0.225-0.797,0.159-1.186  c0.459-1.16,0.742-2.396,0.781-3.673l-0.023-4.923l0.303-8.874L50.334,59h5.529L62,65.771v0.349l-2.924,10.505l-1.042-0.251  c-1.055-0.254-2.106,0.371-2.395,1.408l-1.14,4.094c-0.143,0.512-0.075,1.06,0.187,1.522c0.263,0.462,0.698,0.802,1.211,0.942  l0.958,0.263l-0.806,2.895c-0.296,1.064,0.326,2.167,1.391,2.463c0.18,0.05,0.359,0.074,0.537,0.074c0.876,0,1.68-0.58,1.926-1.465  l0.81-2.907l1.565,0.43l4.346,3.942c0.376,0.341,0.857,0.519,1.344,0.519c0.294,0,0.589-0.064,0.865-0.196  c0.329-0.158,3.244-1.647,4.263-5.307c0.979-3.521-0.48-6.663-0.649-7.01C72.059,77.248,71.197,76.81,70.329,76.945z M45.887,72.939  C45.775,76.635,42.3,80,38.746,80h-7.992c-2.162,0-4.239-1.249-5.563-3.04l-0.38-0.81c-0.115-0.245-0.274-0.456-0.463-0.628  c-0.355-0.795-0.571-1.646-0.597-2.514L23.77,68H29h12h5v0.009L45.887,72.939z M28.864,29.057C30.407,28.537,32.003,28,35,28  c2.357,0,3.951,0.489,5.637,1.006c0.515,0.158,1.042,0.311,1.583,0.455c0.142,0.038,0.287,0.073,0.432,0.108  c0.218,0.053,0.438,0.104,0.665,0.15c0.257,0.052,0.525,0.093,0.796,0.132c0.101,0.015,0.194,0.037,0.298,0.049  c0.756,1.554,1.152,3.266,1.152,5.007c0,0.051-0.007,0.1-0.007,0.15C45.478,37.123,40.77,44.082,35,44.082  s-10.479-6.959-10.557-9.025c0-0.05-0.007-0.099-0.007-0.15c0-1.743,0.396-3.457,1.154-5.012  C26.851,29.73,27.872,29.391,28.864,29.057z M31,64v-5.18c1.244,0.8,2.58,1.262,4,1.262c1.42,0,2.756-0.463,4-1.263V64H31z   M25.019,23.561l0.016-0.159c0.19-1.886,0.19-2.918,0-4.803c-0.035-0.351,0.055-0.531,0.107-0.589C25.149,18.002,25.17,18,25.277,18  h19.444c0.106,0,0.128,0.001,0.135,0.009c0.052,0.058,0.142,0.249,0.106,0.6c-0.19,1.885-0.19,2.912,0,4.798l0.017,0.162  c0.046,0.454,0.162,1.595,0.132,2.37c-0.114-0.011-0.232-0.016-0.344-0.031c-0.046-0.006-0.092-0.013-0.138-0.02  c-0.292-0.044-0.581-0.098-0.866-0.164c-0.01-0.002-0.021-0.004-0.031-0.007c-0.628-0.146-1.251-0.335-1.92-0.54  C40.004,24.626,37.956,24,35,24c-3.65,0-5.738,0.7-7.415,1.262c-0.57,0.191-1.081,0.362-1.604,0.491  c-0.005,0.001-0.01,0.002-0.015,0.003c-0.245,0.06-0.494,0.109-0.752,0.147c-0.026,0.004-0.052,0.009-0.079,0.012  c-0.079,0.011-0.168,0.013-0.249,0.022C24.856,25.162,24.973,24.016,25.019,23.561z M15.304,25.856c-1.181,0-2.379-0.24-3.561-0.713  c-0.338-0.135-0.761-0.392-1.026-1.184c-0.134-0.399-0.203-0.853-0.224-1.328C11.809,23.998,13.645,25,16,25  c0.907,0,1.678,0.123,2.314,0.296C17.56,25.593,16.524,25.856,15.304,25.856z M13.332,55c-0.643,0-1.247,0.31-1.623,0.831  s-0.478,1.191-0.275,1.802l1.001,3l-3.388-4.042L14.3,51h10.481c0.671,1.344,1.412,2.618,2.219,3.766V64h-3.364l-0.183-5.351  c-0.013-0.365-0.125-0.72-0.324-1.025l-1.122-1.718c-0.37-0.565-1-0.906-1.675-0.906H13.332z M28.343,83.683  c0.542,0.138,1.095,0.231,1.657,0.275v3.257L28.343,83.683z M40,83.909c0.588-0.078,1.167-0.206,1.731-0.385L40,87.215V83.909z   M58.232,55.657C57.853,55.238,57.314,55,56.75,55h-7c-0.381,0-0.755,0.109-1.077,0.314L46.99,56.39  c-0.555,0.354-0.9,0.959-0.922,1.617L45.864,64H43v-9.237c0.807-1.146,1.547-2.42,2.217-3.763h10.603l6.335,6.332l-0.038,2.611  L58.232,55.657z M69.242,83.979c-0.248,0.889-0.711,1.542-1.146,1.991l-3.483-3.16c-0.232-0.211-0.512-0.364-0.814-0.447  l-2.013-0.553l0.109-0.393l1.966,0.474c0.259,0.063,0.526,0.071,0.788,0.03l4.631-0.752C69.441,81.945,69.525,82.961,69.242,83.979z  "></path><path d="M93.727,64.201C94.494,63.902,95,63.162,95,62.338V9c0-1.104-0.896-2-2-2H79c-1.104,0-2,0.896-2,2v32.528l-5.096-4.752  c-0.808-0.752-2.072-0.71-2.827,0.099c-0.753,0.808-0.709,2.074,0.099,2.827L77,46.998V63.89c0,0.608,0.276,1.183,0.752,1.563  C78.944,66.405,79,67.695,79,70.084s-0.056,3.68-1.248,4.633C77.276,75.096,77,75.671,77,76.279V92c0,1.104,0.896,2,2,2h14  c1.104,0,2-0.896,2-2V78.276c0-0.824-0.506-1.563-1.273-1.863c-2.324-0.906-4.794-3.354-4.794-6.106S91.402,65.106,93.727,64.201z   M91,79.549V90H81V77.154c2-2.104,2-4.728,2-7.07s0-4.967-2-7.069V50.729l3.346,3.12c0.386,0.359,0.875,0.537,1.364,0.537  c0.535,0,1.068-0.214,1.463-0.636c0.753-0.808,0.709-2.073-0.099-2.827L81,45.258V11h10v50.065c-3.118,1.68-6.067,5.024-6.067,9.241  C84.933,74.522,87.882,77.868,91,79.549z"></path></svg>