<svg fill="#1f1e1d" xmlns="http://www.w3.org/2000/svg" xmlns:xlink="http://www.w3.org/1999/xlink" version="1.1" x="0px" y="0px" viewBox="0 0 100 100" enable-background="new 0 0 100 100" xml:space="preserve"><g><circle cx="50" cy="39.7" r="6"></circle><path d="M81.4,9.3C80.5,9.1,61.3,5,50,5S19.5,9.1,18.6,9.3L13,10.5l0.9,5.7l5.1,34l0,0.1l0,0.1c2.4,12,7.9,23.1,15.8,32.1   c6.2,7,11.5,10.2,12.1,10.6L50,95l3.1-1.8c0.6-0.3,5.9-3.6,12.1-10.6c7.9-9,13.4-20.1,15.8-32.1l0-0.1l0-0.1l5.1-34l0.9-5.7   L81.4,9.3z M68,8.5c0.7,0,1.2,0.5,1.2,1.2c0,0.7-0.5,1.2-1.2,1.2c-0.7,0-1.2-0.5-1.2-1.2C66.8,9,67.3,8.5,68,8.5z M50,7   c0.7,0,1.2,0.5,1.2,1.2c0,0.7-0.5,1.2-1.2,1.2S48.8,9,48.8,8.3C48.8,7.6,49.3,7,50,7z M50,25.3c0.7,0,1.2,0.5,1.2,1.2   c0,0.7-0.5,1.2-1.2,1.2c-0.7,0-1.2-0.5-1.2-1.2C48.8,25.8,49.3,25.3,50,25.3z M58.9,39.7c0,4.9-4,8.9-8.9,8.9s-8.9-4-8.9-8.9   c0-4.9,4-8.9,8.9-8.9S58.9,34.8,58.9,39.7z M32.4,8.5c0.7,0,1.2,0.5,1.2,1.2c0,0.7-0.5,1.2-1.2,1.2c-0.7,0-1.2-0.5-1.2-1.2   C31.2,9,31.7,8.5,32.4,8.5z M16.6,14.1c-0.7,0-1.2-0.5-1.2-1.2c0-0.7,0.5-1.2,1.2-1.2c0.7,0,1.2,0.5,1.2,1.2   C17.9,13.6,17.3,14.1,16.6,14.1z M19.1,32c-0.7,0-1.2-0.5-1.2-1.2c0-0.7,0.5-1.2,1.2-1.2c0.7,0,1.2,0.5,1.2,1.2   C20.3,31.5,19.8,32,19.1,32z M21.9,49.2c-0.7,0-1.2-0.5-1.2-1.2c0-0.7,0.5-1.2,1.2-1.2c0.7,0,1.2,0.5,1.2,1.2   C23.1,48.7,22.6,49.2,21.9,49.2z M19.9,15.3c0,0,16.6-3.6,27.6-4.1v10.2l-13,15.5H23.2L19.9,15.3z M38.8,39.2   c0,0.7-0.5,1.2-1.2,1.2c-0.7,0-1.2-0.5-1.2-1.2s0.5-1.2,1.2-1.2C38.3,38,38.8,38.5,38.8,39.2z M26.4,64.9c-0.7,0-1.2-0.5-1.2-1.2   s0.5-1.2,1.2-1.2c0.7,0,1.2,0.5,1.2,1.2S27,64.9,26.4,64.9z M35.6,80.1c-0.7,0-1.2-0.5-1.2-1.2c0-0.7,0.5-1.2,1.2-1.2   c0.7,0,1.2,0.5,1.2,1.2C36.9,79.6,36.3,80.1,35.6,80.1z M47.5,86.2c-2-1.5-4.9-4-8.1-7.6c-7.3-8.3-12.2-18.4-14.3-29.2L24,41.8   h10.7l12.9,16.1V86.2z M50,91.6c-0.7,0-1.2-0.5-1.2-1.2s0.5-1.2,1.2-1.2s1.2,0.5,1.2,1.2S50.7,91.6,50,91.6z M50,54   c-0.7,0-1.2-0.5-1.2-1.2c0-0.7,0.5-1.2,1.2-1.2s1.2,0.5,1.2,1.2C51.2,53.5,50.7,54,50,54z M64.5,79.8c-0.7,0-1.2-0.5-1.2-1.2   c0-0.7,0.5-1.2,1.2-1.2c0.7,0,1.2,0.5,1.2,1.2C65.7,79.2,65.2,79.8,64.5,79.8z M73.8,64.6c-0.7,0-1.2-0.5-1.2-1.2   c0-0.7,0.5-1.2,1.2-1.2s1.2,0.5,1.2,1.2C75,64,74.5,64.6,73.8,64.6z M74.9,49.3c-2.2,10.8-7,21-14.3,29.2c-3.2,3.6-6.2,6.1-8.1,7.6   V58l13-16.1H76L74.9,49.3z M60.8,39.2c0-0.7,0.5-1.2,1.2-1.2c0.7,0,1.2,0.5,1.2,1.2s-0.5,1.2-1.2,1.2   C61.4,40.4,60.8,39.9,60.8,39.2z M65.5,36.9L52.5,21.3V11.2c11,0.5,27.6,4.1,27.6,4.1l-3.3,21.6H65.5z M78.3,48.9   c-0.7,0-1.2-0.5-1.2-1.2c0-0.7,0.5-1.2,1.2-1.2s1.2,0.5,1.2,1.2C79.5,48.3,78.9,48.9,78.3,48.9z M81,31.7c-0.7,0-1.2-0.5-1.2-1.2   c0-0.7,0.5-1.2,1.2-1.2c0.7,0,1.2,0.5,1.2,1.2C82.3,31.2,81.7,31.7,81,31.7z M83,14.1c-0.7,0-1.2-0.5-1.2-1.2   c0-0.7,0.5-1.2,1.2-1.2c0.7,0,1.2,0.5,1.2,1.2C84.3,13.6,83.7,14.1,83,14.1z"></path><path d="M46,12.9c-8.7,0.6-20.3,2.9-24.3,3.7l2.8,18.8h9.2L46,20.8V12.9z"></path><path d="M54,82.9c1.6-1.4,3.4-3.1,5.4-5.4c7-7.9,11.8-17.8,14-28.5l0.9-5.7h-8.1L54,58.5V82.9z"></path></g></svg>