<svg fill="#C800C8" xmlns="http://www.w3.org/2000/svg" xmlns:xlink="http://www.w3.org/1999/xlink" version="1.1" x="0px" y="0px" viewBox="0 0 91 91" style="enable-background:new 0 0 91 91;" xml:space="preserve"><g><path d="M54.2,71.3c0-0.9-0.8-1.7-1.7-1.7H11.2c-0.9,0-1.7,0.8-1.7,1.7s0.8,1.7,1.7,1.7h41.3C53.5,73,54.2,72.3,54.2,71.3z"></path><path d="M59.7,69.6c-0.9,0-1.7,0.8-1.7,1.7s0.8,1.7,1.7,1.7h1.2c0.9,0,1.7-0.8,1.7-1.7s-0.8-1.7-1.7-1.7H59.7z"></path><path d="M80.6,69.6H67.2c-0.9,0-1.7,0.8-1.7,1.7s0.8,1.7,1.7,1.7h13.4c0.9,0,1.7-0.8,1.7-1.7S81.5,69.6,80.6,69.6z"></path><path d="M49.3,27.8c0.9,0,1.7-0.8,1.7-1.7v0c0-0.9-0.8-1.7-1.7-1.7s-1.7,0.8-1.7,1.7S48.4,27.8,49.3,27.8z"></path><path d="M46,11.2c-0.9,0-1.7,0.8-1.7,1.7s0.8,1.7,1.7,1.7s1.7-0.8,1.7-1.7v0C47.7,11.9,46.9,11.2,46,11.2z"></path><path d="M43.8,31.8c0.9,0,1.7-0.8,1.7-1.7v0c0-0.9-0.8-1.7-1.7-1.7s-1.7,0.8-1.7,1.7S42.9,31.8,43.8,31.8z"></path><path d="M42.1,24.2c0,0.9,0.8,1.7,1.7,1.7s1.7-0.8,1.7-1.7v0c0-0.9-0.8-1.7-1.7-1.7S42.1,23.3,42.1,24.2z"></path><path d="M40.1,37.6L15.3,67.1h61.4L51.9,37.6c0,0-0.1-0.1-0.1-0.1c-3.2-3.2-8.4-3.2-11.6,0C40.2,37.6,40.2,37.6,40.1,37.6z    M30.6,63.9c-0.9,0-1.7-0.8-1.7-1.7s0.7-1.7,1.7-1.7h0c0.9,0,1.7,0.8,1.7,1.7S31.5,63.9,30.6,63.9z M37.3,56.4   c-0.9,0-1.7-0.8-1.7-1.7s0.7-1.7,1.7-1.7h0c0.9,0,1.7,0.8,1.7,1.7S38.2,56.4,37.3,56.4z M43.2,56.4c-0.9,0-1.7-0.8-1.7-1.7   s0.7-1.7,1.7-1.7h0c0.9,0,1.7,0.8,1.7,1.7S44.1,56.4,43.2,56.4z M57.2,53.8L57.2,53.8c0.9,0,1.7,0.8,1.7,1.7s-0.8,1.7-1.7,1.7   s-1.7-0.8-1.7-1.7S56.3,53.8,57.2,53.8z M52.1,48L52.1,48c0.9,0,1.7,0.8,1.7,1.7s-0.8,1.7-1.7,1.7s-1.7-0.8-1.7-1.7   S51.2,48,52.1,48z M49.1,53L49.1,53c0.9,0,1.7,0.8,1.7,1.7s-0.8,1.7-1.7,1.7s-1.7-0.8-1.7-1.7S48.2,53,49.1,53z M47.9,49.6   c0,0.9-0.8,1.7-1.7,1.7s-1.7-0.8-1.7-1.7s0.7-1.7,1.7-1.7h0C47.1,48,47.9,48.7,47.9,49.6z M44.7,42.1L44.7,42.1   c0.9,0,1.7,0.8,1.7,1.7s-0.8,1.7-1.7,1.7S43,44.7,43,43.8S43.7,42.1,44.7,42.1z M42.8,48c0,0.9-0.7,1.7-1.7,1.7h0   c-0.9,0-1.7-0.8-1.7-1.7s0.8-1.7,1.7-1.7S42.8,47,42.8,48z"></path></g></svg>
