<svg fill="#E5E4E2" xmlns="http://www.w3.org/2000/svg" xmlns:xlink="http://www.w3.org/1999/xlink" version="1.0" x="0px" y="0px" viewBox="0 0 100 100" enable-background="new 0 0 100 100" xml:space="preserve"><g><g><circle fill="#E5E4E2" cx="50" cy="50.0009155" r="8.000061"></circle><rect x="48.5009766" y="33.1132812" fill="#E5E4E2" width="3" height="5.0654297"></rect><rect x="37.3173904" y="38.3500137" transform="matrix(0.707155 0.7070586 -0.7070586 0.707155 39.8460846 -16.5065231)" fill="#E5E4E2" width="5.065412" height="2.9996796"></rect><rect x="33.1123047" y="48.5" fill="#E5E4E2" width="5.0654297" height="3"></rect><rect x="38.3490372" y="57.6181717" transform="matrix(0.7071068 0.7071068 -0.7071068 0.7071068 54.2045593 -10.5596266)" fill="#E5E4E2" width="2.9996796" height="5.065412"></rect><rect x="48.4990234" y="61.8232422" fill="#E5E4E2" width="3" height="5.0654297"></rect><rect x="57.6171951" y="58.6522598" transform="matrix(-0.707155 -0.7070586 0.7070586 -0.707155 60.1541481 145.2184601)" fill="#E5E4E2" width="5.065412" height="2.9996796"></rect><rect x="61.8222656" y="48.5019531" fill="#E5E4E2" width="5.0654297" height="3"></rect><rect x="58.6512833" y="37.318367" transform="matrix(-0.7071068 -0.7071068 0.7071068 -0.7071068 74.5054245 110.5633087)" fill="#E5E4E2" width="2.9996796" height="5.065412"></rect><rect x="18.6083984" y="48.5" fill="#E5E4E2" width="6.0664062" height="3"></rect><rect x="28.4474258" y="67.0199127" transform="matrix(-0.7071068 -0.7071068 0.7071068 -0.7071068 1.5884167 140.7634125)" fill="#E5E4E2" width="2.9996796" height="6.0656505"></rect><rect x="48.5" y="75.3251953" fill="#E5E4E2" width="3" height="6.0664062"></rect><rect x="67.0187302" y="68.5524063" transform="matrix(-0.7071068 -0.7071068 0.7071068 -0.7071068 70.0522461 169.1210785)" fill="#E5E4E2" width="6.0670314" height="2.9996796"></rect><rect x="75.3242188" y="48.5" fill="#E5E4E2" width="6.0673828" height="3"></rect><rect x="68.551918" y="26.9145832" transform="matrix(0.7071068 0.7071068 -0.7071068 0.7071068 41.693943 -40.7625771)" fill="#E5E4E2" width="2.9996796" height="6.0663409"></rect><rect x="48.4995117" y="18.6083984" fill="#E5E4E2" width="3" height="6.0673828"></rect><rect x="26.9137497" y="28.4480572" transform="matrix(0.7072677 0.7069458 -0.7069458 0.7072677 29.9383144 -12.4042768)" fill="#E5E4E2" width="6.0670314" height="3.0003703"></rect><rect x="68.8538361" y="37.802845" transform="matrix(-0.3834825 -0.9235482 0.9235482 -0.3834825 58.9141769 122.5270767)" fill="#E5E4E2" width="2.9998519" height="7.5930409"></rect><rect x="56.9515228" y="25.8711128" transform="matrix(0.924219 0.3818629 -0.3818629 0.924219 15.7585125 -20.0721779)" fill="#E5E4E2" width="2.999788" height="7.5932226"></rect><rect x="37.8018684" y="28.1472912" transform="matrix(0.3835878 0.9235044 -0.9235044 0.3835878 53.0210915 -20.1413898)" fill="#E5E4E2" width="7.5930409" height="2.9998519"></rect><rect x="25.8701363" y="40.0496674" transform="matrix(0.924254 0.3817781 -0.3817781 0.924254 18.109848 -8.1789017)" fill="#E5E4E2" width="7.5932226" height="2.999788"></rect><rect x="28.1463146" y="54.6060677" transform="matrix(-0.3834825 -0.9235482 0.9235482 -0.3834825 -12.9225492 108.178688)" fill="#E5E4E2" width="2.9998519" height="7.5930409"></rect><rect x="40.0486908" y="66.5371323" transform="matrix(-0.924219 -0.3818629 0.3818629 -0.924219 53.0907249 151.2033844)" fill="#E5E4E2" width="2.999788" height="7.5932226"></rect><rect x="54.6050911" y="68.8548126" transform="matrix(-0.3835878 -0.9235044 0.9235044 -0.3835878 15.8308449 151.2760925)" fill="#E5E4E2" width="7.5930409" height="2.9998519"></rect><rect x="66.536644" y="56.9524994" transform="matrix(-0.924254 -0.3817781 0.3817781 -0.924254 113.023201 139.328949)" fill="#E5E4E2" width="7.5932226" height="2.999788"></rect></g></g></svg>
