<svg fill="#E88A51" xmlns="http://www.w3.org/2000/svg" viewBox="4.5 4.5 91 91" x="0px" y="0px"><g stroke="black" stroke-opacity="0.7" stroke-width="0.5"><path d="M50.08,35.79a7.72,7.72,0,1,0,7.72,7.72A7.73,7.73,0,0,0,50.08,35.79Zm0,12.52a4.8,4.8,0,1,1,4.8-4.8A4.81,4.81,0,0,1,50.08,48.31Z"></path><path d="M93.78,8.39a2.66,2.66,0,0,0-3,.43C88.41,11.14,83,14.5,72.46,11.53L71.25,6.22A1.49,1.49,0,0,0,69.82,5H30.21a1.49,1.49,0,0,0-1.43,1.19l-1.22,5.36c-9.88,2.76-15.31.06-18.14-2.76a2.65,2.65,0,0,0-3-.41,2.28,2.28,0,0,0-1.28,2.24c1.35,17,13,19.44,18.19,19.67L16.54,59.91a1.59,1.59,0,0,0,.4,1.46L49,94.55a1.42,1.42,0,0,0,2.07,0l32-33.19a1.59,1.59,0,0,0,.4-1.46l-6.75-29.6c5.24-.2,17-2.56,18.34-19.67h0A2.29,2.29,0,0,0,93.78,8.39ZM8.17,11.78c2.95,2.54,8.74,5.5,18.61,3.19L24,27.24C19.6,27.22,9.88,25.58,8.17,11.78ZM50,91.29,19.6,59.78,31.37,8.12H68.65l1.14,5L80.44,59.78Zm26.1-64H76L73.24,14.93c10,2.39,15.81-.61,18.77-3.16C90.31,25.62,80.56,27.24,76.11,27.24Z"></path><path d="M63.69,13.26H36.48A1.49,1.49,0,0,0,35,14.45L25.27,57.32a1.59,1.59,0,0,0,.4,1.46L49.05,83a1.42,1.42,0,0,0,2.07,0L74.5,58.77a1.59,1.59,0,0,0,.4-1.46L65.13,14.45A1.49,1.49,0,0,0,63.69,13.26ZM50.08,79.71,28.33,57.19l9.31-40.84h24.9l9.31,40.84Z"></path></g></svg>