<svg fill="#c8e0d5" xmlns="http://www.w3.org/2000/svg" xmlns:xlink="http://www.w3.org/1999/xlink" version="1.1" x="0px" y="0px" viewBox="0 0 100 100" enable-background="new 0 0 100 100" xml:space="preserve"><path d="M86,47.3h-4.5H77v-3.6h-3.6v3.6h-4.5h-4.5v-3.6H60.8v3.6h-4.5h-4.5v-3.6h-3.6v3.6h-4.5h-4.5v-3.6h-3.6v3.6h-4.5h-4.5v-3.6  H23v3.6h-4.5h-3.6v-3.6H9.5v5.4v7.2v7.2v7.2v7.2v7.2v8.1c0,1.491,1.209,2.7,2.7,2.7H32c1.491,0,2.7-1.209,2.7-2.7V77.9v-7.2v-7.2  v-3.6h31.5v3.6v7.2v7.2v15.3c0,1.491,1.208,2.7,2.7,2.7h19.8c1.491,0,2.7-1.209,2.7-2.7v-8.1v-7.2v-7.2v-7.2v-7.2v-7.2v-5.4H86V47.3  z M14.9,50.9h1.8v3.6h-1.8V50.9z M14.9,58.1h3.6H23v3.6h-4.5h-3.6V58.1z M14.9,65.3h1.8v3.6h-1.8V65.3z M14.9,72.5h3.6H23v3.6h-4.5  h-3.6V72.5z M14.9,79.7h1.8v3.6h-1.8V79.7z M29.3,90.5H14.9v-3.6h3.6h10.8V90.5z M29.3,83.3h-9v-3.6h4.5h4.5V83.3z M29.3,76.1h-2.7  v-3.6h2.7V76.1z M29.3,68.9h-4.5h-4.5v-3.6h4.5h4.5V68.9z M29.3,61.7h-2.7v-3.6h2.7V61.7z M29.3,54.5h-4.5h-4.5v-3.6h4.5h4.5V54.5z   M41.9,54.5h-9v-3.6h4.5h4.5V54.5z M54.5,54.5h-9v-3.6H50h4.5V54.5z M67.1,54.5h-9v-3.6h4.5h4.5V54.5z M70.7,50.9h4.5h4.5v3.6h-4.5  h-4.5V50.9z M75.2,79.7h4.5v3.6H71.6v-3.6H75.2z M71.6,76.1v-3.6H73.4v3.6H71.6z M71.6,68.9v-3.6H75.2h4.5v3.6h-4.5H71.6z   M71.6,61.7v-3.6H73.4v3.6H71.6z M86,90.5H71.6v-3.6h9.9H86V90.5z M86,83.3h-2.7v-3.6H86V83.3z M86,76.1h-4.5H77v-3.6h4.5H86V76.1z   M86,68.9h-2.7v-3.6H86V68.9z M86,61.7h-4.5H77v-3.6h4.5H86V61.7z M86,54.5h-2.7v-3.6H86V54.5z"></path><path d="M92.3,22.1H7.7c-1.491,0-2.7,1.209-2.7,2.7V41c0,1.491,1.209,2.7,2.7,2.7h1.8h5.4H23h3.6h9h3.6h9h3.6h9H64.4h9H77h9h5.4  H92.3c1.491,0,2.7-1.209,2.7-2.7V24.8C95,23.309,93.791,22.1,92.3,22.1z M89.6,29.465V38.3H86H14.9h-4.5v-8.299V27.5h79.2V29.465z"></path><path d="M61.7,84.2h-1.615c3.232-4.921-0.113-12.627-0.263-12.966c-0.186-0.419-0.658-0.632-1.095-0.492  c-0.438,0.139-0.699,0.584-0.61,1.035c0.234,1.17,0.083,2.05-0.427,2.477c-0.358,0.299-0.821,0.314-1.12,0.197  c-0.078-0.03-0.259-0.116-0.277-0.262C55.306,66.292,47.38,66.2,47.3,66.2c-0.28,0-0.545,0.131-0.715,0.354  c-0.17,0.223-0.227,0.513-0.153,0.783c1.294,4.752,1.573,9.38,0.583,9.709c-0.888,0.295-1.521-0.16-1.896-0.593  c-0.667-0.77-0.948-1.982-0.614-2.65c0.218-0.436,0.049-0.966-0.38-1.196c-0.429-0.229-0.964-0.076-1.206,0.347  c-0.145,0.253-3.292,5.86-2.184,11.247H38.3c-0.994,0-1.8,0.806-1.8,1.8v6.3c0,0.994,0.806,1.8,1.8,1.8h23.4  c0.994,0,1.8-0.806,1.8-1.8V86C63.5,85.006,62.694,84.2,61.7,84.2z M59.9,90.5H40.1v-2.7h19.8V90.5z"></path></svg>
