<svg fill="#c8e0d5" xmlns="http://www.w3.org/2000/svg" xmlns:xlink="http://www.w3.org/1999/xlink" version="1.1" x="0px" y="0px" viewBox="0 0 100 100" style="enable-background:new 0 0 100 100;" xml:space="preserve"><path d="M71.8,40.1c-0.2,0.7-0.5,1.3-0.7,2c-0.3,1.2,0,1.6,1.2,1.7c1.3,0.1,2.5-0.1,3.7-0.5c1.8-0.5,3.6-0.7,5.5-0.9  c1.1-0.1,2.2,0.2,2.8,1.3c1.2,2,3,2.9,5.2,3.2c1.3,0.2,2.5,0.6,3.9,0.9c-0.3,0.7-0.8,0.2-1.2,0.4c0,0.1-0.1,0.2,0,0.3  c0.5,1.7,0.9,3.4,1.1,5.2c0.1,0.9-0.1,1.6-0.6,2.2c-0.5,0.6-0.9,1.3-0.7,2.1c0.1,0.5-0.3,0.8-0.5,1.2c-0.4,0.8-0.9,1.5-0.7,2.5  c0.1,0.4-0.2,0.6-0.5,0.9c-0.7,0.8-1.5,1.5-2.4,2c-0.8,0.5-1.5,1.2-2.1,1.8c-1.3,1.5-1.3,3.3,0.2,4.5c1.2,1,2.6,1.9,3.9,2.7  c0.6,0.4,1.3,0.5,0.9,1.4c0.8,1.4,0.7,3.1,1.1,4.6c0.2,0.8,0.5,1.6,0.3,2.5c-0.1,0.4,0.1,0.7,0.4,0.9c0.6-0.1,1.2-0.7,1.9-0.4  c-0.3,0.7-1.3,0.6-1.6,1.3c0.2,0.4,0.8,0.6,0.8,1.3c1.1-0.7,1.8-1.7,2.9-2.2c0.1,0.5-0.2,0.7-0.4,0.9c-0.8,0.7-1.5,1.5-2.3,2.2  c-0.5,0.5-1,0.7-1.6,0.5c-0.9-0.3-1.7-0.2-2.6-0.1c-0.4,0.1-0.8,0.2-1.2,0c-0.7-0.3-1.5-0.2-2.2-0.2c-2,0.2-4,0-6.1,0.3  c-1.3,0.2-2.8,0-4.2-0.1c-1.1-0.1-2.1,0-3.2,0.1c-1.7,0.1-3.4-0.3-5,0.2c-0.2,0-0.4,0-0.5,0c-2.4-0.6-4.9-0.1-7.4-0.2  c-0.9,0-1.8,0-2.6-0.1c-0.9-0.1-1.7,0.1-2.6,0.2c-1.7,0.1-3.4,0.8-5.1,0.2c-0.1,0-0.3-0.1-0.4,0c-2.1,0.6-4.3-0.2-6.4,0.6  c-0.2,0.1-0.5,0-0.6-0.1c-1.2-0.6-2.4-0.3-3.6-0.4c-0.3,0-0.6,0-0.9,0.2c-0.2,0.2-0.3,0.2-0.6,0.2c-1.8-0.5-3.6-0.4-5.5,0  c-0.9,0.2-1.9,0-2.8-0.2c-0.7-0.2-1.4-0.2-2.1-0.2c-1.5,0.1-3.1,0.2-4.6,0.1c-0.9,0-1.7,0.6-2.6,0.4c-0.9-0.2-1.7-0.3-2.6-0.2  c-2.1,0.1-4.2,0.3-6.3,0.1c-0.8-0.1-1.6,0.4-2.4,0.4c-0.5,0-1,0.4-0.5,1C7.3,89,7.2,88.6,7,88.4c-0.8-0.5-1.7-0.8-2.6-0.2  c-0.1,0.1-0.3,0.1-0.5,0.2c-0.2,0.1-0.4,0-0.6-0.2c-0.1-0.2,0-0.3,0-0.5c0.4-0.9-0.2-2.2-1.1-2.7c-0.4-0.2-0.4-0.4-0.4-0.7  c0-0.2,0.1-0.4,0.4-0.5c0.3-0.1,0.5,0.1,0.6,0.3c0.4,0.7,0.7,1.4,1,2.2C4,86.7,4,87.1,4.5,87.3c0.4-0.7,0.5-1.3,0-2  c-0.5-0.8-1-1.5-1.7-2.1c0.4-0.6,0.7,0.1,1.1-0.1c0.1-0.1,0.1-0.3,0-0.4c-0.2-0.3-0.5-0.6-0.7-0.9c-0.1-0.1-0.2-0.3,0-0.5  c0.2-0.1,0.4-0.1,0.5,0c0.2,0.2,0.4,0.5,0.6,0.7c0.3,0.4,0.5,0.9,1.1,1.3c0-1.4,0.2-2.8-0.2-4.1C5.1,78.7,5,78.1,5,77.5  c-0.1-1.9-0.6-3.8-0.7-5.8c0-0.6-0.5-0.9-0.6-1.5c-0.3-1.7-0.2-3.4-0.3-5.2c0-1.1-0.1-2.2-0.4-3.4c-0.4-1.2-0.2-2.6-0.2-3.9  c0-3.9,0-7.7-0.1-11.6c-0.1-1.4,0.1-2.8,0.2-4.2c0-0.2,0-0.4,0.1-0.5c1-1.9,0.5-3.9,0.4-5.8c-0.1-1.9-0.5-3.8-0.3-5.7  C3.5,27.6,3.1,25.3,3,23c0-2.4-0.3-4.8-0.7-7.1c-0.2-1.1,0.3-1.9,0.5-2.8c0.1-0.4,0.5-0.4,0.9-0.5c0.8-0.2,1.7-0.3,2.5-0.4  c2.7-0.2,5.4-0.6,8.1-0.6c5.8,0,11.5,0.6,17.3,0.5c3.2,0,6.4,0.2,9.7,0.4c3,0.1,5.9,0.1,8.9,0.1c3.9,0.1,7.8-0.1,11.6-0.1  c2.6,0,5.2,0.1,7.8,0.5c1.9,0.3,3.9,0.7,5.9,0.4c0.7-0.1,0.8,0,0.7,0.8c-0.1,1.2-0.5,2.3-1.2,3.3c-0.8,1.3-1.6,2.5-2.4,3.8  c-0.4,0.6-0.8,1.1-1.4,1.4c-1,0.6-1,1.5-0.8,2.4c0.1,0.3,0.2,0.6,0,0.9c-0.1,0.1-0.1,0.4-0.1,0.5c0.6,1.2-0.1,2.4,0,3.6  c0.1,1.2-0.6,2.1-1.3,2.9c-0.7,0.8-1.2,1.7-1.8,2.6c-0.3,0.4-0.3,0.7,0.1,1c0.3,0.3,0.5,0.8,1,1.1c1,0.5,1.8,1.2,2.3,2.2  C70.9,40.7,71.3,39.9,71.8,40.1z M69.1,25.8c-1.6-0.1-3.1-0.2-4.6-0.3c-2.3-0.2-4.7-0.3-7-0.6c-1.6-0.3-3.2-0.2-4.9-0.3  c-1.5-0.1-1.5,0-1.3,1.4c0.1,0.4,0.2,0.9,0.1,1.3c-0.5,1.9-0.6,3.8-0.5,5.8c0,0.4,0,0.8,0,1.2c0,0.3-0.2,0.5-0.5,0.5  c-0.3,0-0.4-0.2-0.4-0.4c-0.1-0.5-0.2-1-0.2-1.4c0.1-2.4,0.2-4.8,0.4-7.1c0.1-1.2,0.2-1.2-1-1.4c-2.9-0.4-5.8-0.3-8.7-0.4  c-2.5-0.1-5,0.2-7.5-0.1c-1-0.1-1.2,0.1-1.1,0.8c0.1,2.5,0.1,4.9,0.2,7.4c0,0.8-0.1,1.6-0.2,2.3c0,0.2-0.1,0.4-0.4,0.5  c-0.3,0-0.5-0.2-0.5-0.5c0-0.4,0-0.9,0-1.3c0.1-0.9,0-1.8,0.1-2.6c0.1-1.9-0.3-3.8,0-5.7c0.1-0.6-0.1-0.8-0.7-0.9  c-0.3,0-0.6,0-0.9,0C26.9,23.9,24.4,24,22,24c-3.3,0-6.5,0.1-9.8-0.2c-1.2-0.1-1.4,0.2-1.3,1.4c0,0.1,0.1,0.3,0.1,0.4  c0.1,3,0.7,5.9,0.8,8.8c0,0.6,0.2,0.8,0.8,0.8c0.4,0,0.7,0,1.1,0c2.3,0,4.7-0.2,7-0.2c3-0.1,6,0.1,9,0.1c3.2,0.1,6.4-0.1,9.5-0.2  c3.4-0.1,6.9,0.2,10.3,0.2c3.3,0,6.5-0.2,9.8,0c1.5,0.1,3.1-0.1,4.6,0.1c1.3,0.2,2.1,0.1,2.9-1.1c0.6-0.9,1.3-1.7,1.6-2.8  c0.1-0.3,0.2-0.7,0.4-1c0.4-0.8,0.5-1.7,0.3-2.6C69.1,27,68.9,26.4,69.1,25.8z M27.2,35.9c-0.7,0-1.8-0.1-2.9-0.1  c-1,0-1.2,0.3-1.4,1.2c0,0.3,0,0.5-0.1,0.8c-0.2,1.8,0.1,3.5,0.2,5.3c0,0.9,0,1.8-0.1,2.6c0,0.3-0.2,0.6-0.6,0.6  c-0.4,0.1-0.5-0.2-0.7-0.5c-0.2-0.4-0.3-0.7-0.2-1.1c0.1-1.2,0.2-2.5,0.2-3.7c0-1.4,0.1-2.8,0.3-4.2c0.1-0.6-0.1-0.9-0.8-0.9  c-2.2,0-4.5,0-6.7,0.1c-2.4,0-4.7,0.2-7.1-0.3c-0.6-0.1-1.1,0-1.7,0c-0.4,0-0.6,0.2-0.6,0.7c0,1.2-0.1,2.4-0.2,3.6  c-0.1,1.6-0.1,3.2-0.1,4.8c0,0.7-0.1,1.6,0.2,2.1c0.4,0.6,1.3,0.2,2,0.3c0.3,0,0.6,0.1,0.9,0.1c2.8,0,5.6-0.1,8.5-0.1  c2.2,0,4.3-0.2,6.5-0.3c3.9-0.2,7.8-0.4,11.6-0.2c2.6,0.1,5.1,0,7.7,0.2c2.9,0.2,5.7,0.1,8.6,0.2c2.4,0,4.8-0.1,7.2-0.1  c0.5,0,1.1,0.1,1.6,0.1c0.4,0,0.6-0.2,0.6-0.7c0-2.1,0-4.2,0.1-6.3c0.1-1.1-0.1-2.2,0-3.3c0-0.5-0.1-0.7-0.5-0.7  c-0.9-0.1-1.8-0.1-2.6-0.1c-1,0.1-2,0-3,0c-3.7,0-7.3-0.1-11-0.1c-1.1,0-1.1,0.1-1.1,1.2c-0.1,2.8-0.1,5.6,0.1,8.4  c0,0.4,0.1,0.7-0.4,0.8c-0.4,0-0.7-0.1-0.7-0.6c0-0.7-0.2-1.5-0.1-2.2c0.2-1.4,0.2-2.8,0.1-4.2c0-0.9-0.2-1.8,0-2.6  c0.2-0.5-0.1-0.6-0.5-0.7c-0.9,0-1.9,0-2.8,0C34.2,35.8,30.9,35.8,27.2,35.9z M40.5,85.5c0.8,0,1-0.4,1.1-1c0.1-0.3,0.4-0.8,0.7-0.5  c0.6,0.7,1.1,0.2,1.7,0c1-0.4,2-1,3-1.3c1.6-0.5,1.6-0.6,1.8-2.3c0.2-1.7,0-3.3,0.2-5c0.1-0.8-0.2-1.7,0-2.5  c0.1-0.4-0.2-1.2,0.6-1.1c0.5,0.1,0.3,0.7,0.3,1.1c-0.2,2.1-0.2,4.1-0.1,6.2c0.1,1.5,0,3,0.2,4.5c0.1,0.5,0.3,0.7,0.8,0.8  c0.8,0.1,1.5-0.2,2.3-0.4c0.3-0.1,0.7-0.2,1-0.1c0.5,0.1,0,0.7,0.5,0.8c0.6-0.3,1.6-0.3,1.8-0.9c0.4-0.9,1.4-0.5,1.7-1  c0.5-0.7,1-0.5,1.5-0.6c0.8-0.1,0.9,0,0.7,0.7c0,0.2-0.3,0.4-0.1,0.8c0.5,0.2,1-0.1,1.4-0.4c1.2-0.8,2.4-1.7,3.4-2.7  c1-0.9,2.1-1.8,3.2-2.5c0.3-0.2,0.7-0.5,1.1-0.3c-0.1,0.3-0.3,0.4-0.5,0.5c-1.1,0.5-2.1,1.4-3,2.1c-0.7,0.6-0.7,1.3-0.5,2.2  c1.2-1.1,2.3-2.1,3.6-2.7c0.9-0.4,1-0.9,1.1-1.8c0.1-1.8-0.2-3.6,0.6-5.3c0.1-0.2,0.1-0.6-0.1-0.9c-1,0-2.1-0.1-3.1-0.1  c-4.4-0.1-8.8-0.2-13.2-0.4c-2.3-0.1-4.7-0.1-7-0.1c-5.2,0-10.3-0.2-15.5,0.2c-0.7,0-0.9,0.2-0.9,0.9c0,2.3,0.3,4.5,0.4,6.7  c0.1,1.6,0,3.3,0.3,4.9c0.2,0.9,0.1,0.9,1,0.7c0.4-0.1,0.8-0.3,1.1-0.3c0.4-0.1,0.8-0.1,1.1,0.2c0.2,0.2,0.4,0.6,0.7,0.2  c0.3-0.3,0-0.6-0.1-0.8c-0.1-0.2-0.2-0.3-0.3-0.4c-0.8-0.8-1.1-1.9-1.5-2.9c-0.5-1.2-0.2-1.5,1.2-1.2c-0.3-1.9,0.3-3.9-0.1-5.8  c0-0.2-0.1-0.4,0-0.7c0-0.2,0.2-0.4,0.4-0.4c0.2,0,0.3,0.2,0.3,0.4c0,0.2,0,0.4,0,0.5c-0.2,1.8-0.1,3.6,0,5.4c0.1,1.6,0.3,3.2,1,4.7  c0.1,0.2,0.1,0.6,0.4,0.6c0.3,0,0.5-0.2,0.5-0.5c0-1.2,1.1-1.7,1.5-2.7c0-0.1,0.2-0.3,0.4-0.2c0.2,0.1,0.2,0.2,0.2,0.4  c-0.1,0.6-0.3,1.3-0.4,1.9c0.4,0,0.5-0.1,0.6-0.3c1.1-1.3,2.2-2.6,3.3-3.9c0.3-0.4,0.6-0.9,1.4-0.7c-1.1,1.2-2,2.2-3,3.2  c-0.5,0.5-1,1.2-0.8,1.8C40.8,84.2,40.7,84.8,40.5,85.5z M11.2,59c0.7,0.2,1.4,0.2,2,0.3c2.2,0.2,4.3,0.1,6.5,0.2  c1,0.1,1.9,0.1,2.9-0.3c0.3-0.1,0.6-0.1,0.9-0.1c1,0,2,0,3-0.1c2.3,0,4.6,0,6.9-0.1c2.6-0.2,5.2-0.1,7.8,0.1c2.6,0.2,5.2,0.1,7.8,0  c0-0.2,0-0.2,0-0.3c-0.3-1.7-0.2-3.5-0.2-5.2c0-1.5-0.2-3.1,0.3-4.6c0.2-0.7,0-1-0.6-1c-1.6,0-3.3-0.2-4.9-0.2  c-2.7-0.1-5.5,0.3-8.2,0.2c-0.9,0-1.9,0-2.8,0c-0.6,0-1,0.2-1,0.9c-0.1,2.8-0.2,5.6-0.2,8.5c0,0.2,0,0.4,0,0.7  c0,0.2-0.2,0.3-0.3,0.3c-0.3,0-0.4-0.1-0.5-0.3c0-0.2-0.1-0.4-0.1-0.5c0.5-3-0.2-6,0.2-9c0.1-0.4-0.1-0.6-0.5-0.6  c-1.1,0.1-2.1-0.1-3.2,0c-2.1,0.1-4.1,0.3-6.2-0.1c-0.2,0-0.4-0.1-0.5,0c-1,0.7-2.1,0.4-3.1,0.4c-1.8,0-3.6-0.2-5.4-0.2  c-1.2,0-1.3,0.1-1.2,1.3C11.1,52.4,11,55.6,11.2,59z M60.5,60.5c-0.1-0.1-0.2-0.1-0.3-0.1c-3.6-0.1-7.1-0.2-10.7-0.2  c-2.2,0-4.4-0.1-6.6-0.3c-1-0.1-1.1,0.1-1.1,1c0,0.8,0.1,1.7,0.1,2.5c0,2.1-0.4,4.1-0.3,6.2c0,0.3,0.1,0.7-0.4,0.7  c-0.5,0-0.7-0.4-0.6-0.7c0.2-0.8,0-1.7,0.1-2.5c0.3-1.7,0.3-3.3,0.1-5c-0.1-0.7-0.2-1.5,0.2-2.2c-2-0.2-4-0.2-5.9-0.2  c-2.6,0.1-5.1,0.2-7.7,0.2c-1.8,0-3.6,0.1-5.4,0.2c-0.5,0-0.7,0.2-0.8,0.7c-0.3,3-0.5,6-0.2,9c0.1,0.7,0.4,0.8,1,0.8  c1.5,0,2.9-0.1,4.4-0.1c2.3,0,4.6,0,6.9,0c2.2,0,4.4,0.2,6.6,0.3c3.4,0,6.7-0.1,10.1,0c3.2,0.1,6.4-0.2,9.5,0.2c0.2,0,0.4,0,0.7-0.2  c-0.1-0.7-0.2-1.5-0.2-2.3c0-2.1-0.1-4.1-0.2-6.2C59.7,61.2,59.7,61.2,60.5,60.5z M85.4,71.9c-0.4-0.6-0.8-0.5-1.2-0.7  c-0.4-0.1-0.8-0.4-0.7-0.8c0.2-1,0.1-2,0.3-3c0.4-1.8,1.2-3.4,3.2-4c0.2-0.1,0.5-0.2,0.7-0.4c0.5-0.3,0.8-0.7,0.8-1.3  c-2.1-0.3-4.3-0.4-6.4-0.6c-1.9-0.2-3.9-0.1-5.8-0.2c-2.7-0.2-5.5-0.3-8.2-0.2c-1.9,0.1-3.9-0.1-5.8-0.2c-0.8,0-0.9,0-0.9,0.9  c0,0.9,0.1,1.8,0,2.8c-0.2,2.2-0.3,4.5-0.1,6.9C69.4,70.9,77.3,71.4,85.4,71.9z M71.6,47.4c-0.9,0.6-1.7,0.5-2.4,0.5  c-3.1-0.2-6.2-0.1-9.3-0.2c-1.3,0-2.6,0.2-3.9,0.1c-1.7-0.1-3.4-0.1-5,0c-0.4,0-0.8,0.1-0.7,0.7c0.2,1.5-0.4,3,0.1,4.5  c0.1,0.3,0,0.6-0.1,0.9c-0.3,1.1-0.3,2.3-0.1,3.4c0.1,0.6-0.1,1.1-0.4,1.6C49.9,59,50,59,50.2,59c2.8,0,5.5,0.4,8.3,0.3  c1.1,0,2.1-0.1,3.2,0c2.8,0.2,5.5-0.1,8.3,0.1c0.8,0,1.1-0.3,1.1-1.1c-0.1-0.7-0.1-1.4,0-2.1c0.2-1.4,0.2-2.9,0.1-4.4  C71.2,50.4,71.2,49.1,71.6,47.4z M19.2,81.3c0.3-0.8,0.5-1.3,0.7-1.9c0.1-0.3,0.3-0.6,0.7-0.4c0.3,0.2,0.2,0.5,0,0.7  c-0.4,0.5-0.7,1.1-0.8,1.6c-0.1,1-0.6,1.8-1.1,2.7c-0.4,0.6-0.6,1.4-0.5,2.2c1.5-0.7,2.9-1.4,4.2-2.1c0.4-0.2,0.9-0.4,0.8-0.9  c-0.2-0.9,0.3-1.6,0.6-2.3c0.2-0.5,0.5-1.3,1.2-0.9c0.5,0.3,0,1.1-0.3,1.5c-0.3,0.5-0.8,1.1-0.7,1.7c0,0.9-0.3,1.6-0.9,2.2  c-0.2,0.2-0.2,0.4-0.1,0.6c0.2,0.2,0.4,0.1,0.6,0c0.9-0.4,1.8-0.8,2.7-1.3c0.6-0.3,1.2-0.6,1.7-1c0.3-0.2,0.7-0.3,1,0  c0.3,0.3-0.1,0.5-0.2,0.8c-0.1,0.2-0.3,0.3-0.2,0.6c0.6,0.1,0.9-0.5,1.4-0.6c0.6-0.2,0.9-0.5,0.9-1.2c0-0.6,0.3-1.1-0.5-1.4  c-0.3-0.1-0.2-0.5-0.2-0.8c0-1.2-0.1-2.4,0-3.6c0.2-1.7-0.2-3.3-0.4-5c-0.1-0.5-0.3-0.7-0.7-0.7c-1.5-0.1-3-0.2-4.5-0.2  c-1.1,0-2.3-0.1-3.4,0.2c-1,0.3-2,0.3-3,0.3c-2.1-0.1-4.2,0-6.3,0c-0.9,0-1,0.1-0.9,1c0.1,1.6,0.1,3.2,0.2,4.8  c0.2,2.5,0.4,4.9,0.3,7.4c0,0.1,0.1,0.2,0.2,0.3c0.7-0.1,1-1.1,1.9-1c0,0.4,0.1,0.7,0.1,1.1c1.1-0.3,1.1-0.3,0.8-1.3  c-0.1-0.2-0.1-0.3,0.1-0.4c0.2-0.1,0.3-0.1,0.5,0c0.3,0.2,0.3,0.5,0.4,0.8c0.1,0.1,0.2,0.2,0.3,0.2c0.3-0.1,0.2-0.6,0.5-0.7  c1.2,0.3,0.1,1.3,0.6,1.9c0.8-1.2,1-2.6,1.9-3.7c0.2-0.3-0.1-0.5-0.3-0.8c-0.8-0.7-1.6-1.3-2.6-1.8c-0.1-0.1-0.3-0.2-0.2-0.4  c0.1-0.2,0.3-0.2,0.5-0.1c0.2,0.1,0.5,0.2,0.7,0.4C17.8,79.9,18.4,80.5,19.2,81.3z M81,47.4c0.3,0.4,0.8,0.4,0.7,0.8  c-0.1,0.3-0.4,0.3-0.7,0.2c-0.2,0-0.4-0.1-0.6-0.1c-2.2-0.4-4.5-0.6-6.7-0.6c-1,0-1.2,0.1-1.3,1.1C72,50,72.1,51.3,72,52.6  c-0.1,2,0.4,3.9-0.3,5.9c-0.2,0.5,0.2,0.9,0.8,0.9c0.3,0,0.8-0.2,1,0c0.8,0.9,1.9,0.6,2.8,0.6c1.2,0,2.5,0.1,3.7,0.1  c2.8,0.2,5.6,0.5,8.5,0.4c0.5,0,0.7-0.2,0.9-0.6c0.5-1.1,1-2.3,1.4-3.4c0.5-1.3,0.7-2.7,1-4.1c0.1-0.3-0.1-0.6-0.2-0.9  c-0.3-0.7-0.5-1.3-0.6-2c-0.1-0.9-0.8-1.6-1.6-1.7C86.7,47.4,83.9,47.4,81,47.4z M85.6,79.1c-1.4,1.2-3.4,1.8-4.4,3.6  c0.3,0.1,0.5,0,0.8-0.1c1.3-0.4,2.5-0.9,3.8-1.1c0.3,0,0.6-0.1,0.8,0.4c-1.6,0.4-3.3,0.8-4.9,1.6c1.6,0.1,3.3-0.3,4.9,0  c-0.1,0.3-0.3,0.4-0.6,0.4c-0.9,0.1-1.8,0.2-2.6,0.2c-0.9,0.1-1.7,0.3-2.6,0c-0.5-0.2-1.1,0.1-1.5,0.6c-0.4,0.4-0.3,0.8,0.3,1  c0.6,0.2,1.1,0.1,1.7-0.1c0.6-0.1,1.3-0.3,2-0.2c0.7,0.1,1.3,0.2,1.9-0.2c0.7-0.5,1.2,0.5,2,0.2c0.5-0.2,1-0.1,1.6,0  c0.8,0.2,1.6,0.2,2.1-0.7c0.1-0.3,0.4-0.4,0.6-0.7c0.2-0.3,0.5-0.5,0.2-0.9c-0.3-0.3-0.6-0.7-1.1-0.5c-0.4,0.2-0.8,0.5-1.3,0.7  c-0.4,0.2-0.8,0.7-1.5,0.5c0.4-0.7,1.1-1,1.7-1.3c1.7-1,1.8-1,1.2-3c-0.1-0.2-0.1-0.4-0.2-0.6c-0.8-1.2-0.9-2.6-1-3.9  c0-0.6-0.2-0.8-0.7-0.9c-0.8-0.3-1.6-0.6-2.3-1.3c-0.3-0.3-0.6-0.4-1.1-0.4c-1.6,0-3.2,0.1-4.8,0c-2.5-0.1-4.9-0.1-7.4-0.4  c-1.3-0.1-1.3,0-1.3,1.3c0,2.6,0.2,5.3,0,7.9c0,0.6,0.2,0.8,0.8,0.5c0.6-0.3,1.2-0.7,1.8-1.1c0.7-0.4,0.7-0.3,1.6,0  c-1.4,0.4-2.6,1-3.6,2.1c0.5,0.2,1.1-0.1,1.3,0.3c0.5,0.9,1.2,0.4,1.9,0.3c0.6-0.2,1.3-0.4,1.9-0.6c0.6-0.2,1-0.5,1.3-1  c0.4-0.6,0.7-1.3,1.1-1.9c0.2-0.3,0.4-0.9,0.8-0.6c0.5,0.3,0,0.7-0.2,1c-0.6,0.8-0.9,1.8-1.2,2.9C81.5,81.6,83.2,79.9,85.6,79.1z   M41.5,23.2c-0.3-1.3-0.3-2.6-0.3-3.8c-0.1-1.6,0.3-3.2,0.2-4.7c0-0.3,0-0.8-0.3-0.8c-0.9,0.1-1.3-0.9-2.2-0.7  c-0.7,0.1-1.4,0.1-2.1,0.1c-2.3,0.1-4.7,0.2-7,0.3c-0.9,0-1.8,0.5-2.6-0.4c-0.1-0.1-0.3-0.1-0.5-0.1c-1,0-1.9,0.1-2.9,0.1  c-0.5,0-0.7,0.3-0.7,0.7c0,1.7,0.1,3.3,0.1,5c0,1.4,0.5,2.8,0.1,4.3c1,0,1.9,0.1,2.9-0.1c1-0.2,2.1-0.3,3.2-0.3  c2.7,0.1,5.4,0.3,8.1,0.4C38.7,23.2,40.1,23.4,41.5,23.2z M13.5,12.7c-2.2-0.1-4.5,0-6.7,0.2c-0.6,0.1-1.1,0.2-1.7,0.3  c-0.7,0.1-0.9,0.4-0.9,1.1c0.1,2.4,0.3,4.8,0.4,7.2c0.1,1.2,0.2,1.3,1.3,1.3c1.3,0,2.6-0.1,3.8,0c4,0.4,7.9,0.3,11.9,0.3  c0.6,0,0.7-0.1,0.7-0.7c-0.1-1.9-0.1-3.8-0.3-5.7c-0.1-0.9,0-1.8-0.1-2.8c-0.2-1.2-0.4-1.5-1.6-1.1c-2.3,0.6-4.7,0.6-7.1,0.8  c-2.4,0.2-4.8,0.2-7.1,0.3c-0.5,0-1,0.1-1.5-0.3C7.6,12.9,10.6,13.7,13.5,12.7z M42.3,18.2c0.1,1.4-0.2,2.8,0.1,4.2  c0.1,0.3-0.3,0.6,0.1,0.8c0.3,0.2,0.6,0,0.9,0.1c2.2,0.1,4.4,0,6.6,0.3c2.9,0.4,5.8,0.5,8.7,0.6c0.6,0,0.9,0,0.9-0.8  c-0.1-2.6,0.5-5.2,0.5-7.8c0-0.6,0-0.8-0.6-0.8c-0.3,0-0.5,0-0.8,0c-4.3-0.1-8.6-0.2-12.8-0.3c-0.3,0-0.8,0.1-1-0.2  c-0.5-0.6-1.2-0.4-1.9-0.4c-0.6-0.1-0.9,0.2-0.8,0.8C42.3,15.8,42.3,17,42.3,18.2z M11.9,71c2.6,0.1,5-0.3,7.5-0.3  c0.4,0,0.7-0.1,0.7-0.6c0-1.4,0.2-2.7,0.1-4.1c-0.1-1.7-0.6-3.4-0.8-5.1c-0.1-0.5-0.2-0.6-0.7-0.6c-1.1,0-2.1-0.1-3.2,0  c-3.2,0.2-6.3,0-9.5,0.1c-0.9,0-1,0-1,1c0,2.3,0.2,4.6,0.4,6.9c0,0.7,0.1,1.3,0.1,2c0,0.5,0.3,0.7,0.9,0.7  C8.3,70.9,10.2,71.2,11.9,71z M84.4,46.5c-0.1-0.5-0.5-0.6-0.8-0.9c-0.5-0.4-1.1-0.9-1.2-1.5c-0.2-0.9-0.6-1-1.4-0.9  c-0.3,0.1-0.6,0-0.9,0.1c-0.7,0.2-1.6,0.1-2.1,0.7c-0.3,0.4-0.6,0.5-1,0.4c-2-0.2-3.9,0.1-5.7,0.7c-0.2,0.1-0.4,0.1-0.6,0.2  c-0.2,0-0.4,0-0.4-0.2c-0.1-0.7-0.5-1.4-0.2-1.9c0.4-0.6,0.2-0.9,0-1.3c-0.5-0.8-1-1.7-1.7-2.4c-0.9-0.8-1.7-1.7-2.6-2.4  c-0.3-0.2-0.1-0.7-0.6-0.7c-1.3-0.1-2.7-0.2-4.2-0.3c0.4,0.6,0.4,1.1,0.3,1.6c-0.2,2.1,0,4.2,0,6.3c0,1,0.1,2-0.7,2.9  C68.6,46.5,76.5,47.1,84.4,46.5z M66.8,14.7c-0.3,0.2-0.5,0.1-0.8,0.1c-1.1-0.1-2.3-0.1-3.4-0.2c-1.2,0-1.2,0-1.2,1.3  c0,2.1,0.1,4.2,0.1,6.4c0,1.1,0,1.1-0.8,1.9c2.4,0.2,4.6,0.3,6.9,0.5c0.4,0,0.7-0.2,1-0.5c1.6-1.6,2.8-3.6,4.2-5.4  c1-1.3,1.5-2.7,2.2-4.2c-1.5-0.2-8.2-0.3-9.9-0.1C65.8,14.6,66.4,14.3,66.8,14.7z M11.1,35.2c-0.4-0.3-0.7-0.6-0.6-0.9  c0.3-1,0-1.9-0.1-2.9c-0.2-2.2-0.3-4.4-0.4-6.6c0-0.4-0.2-0.7-0.6-0.7c-1.3-0.1-2.6-0.1-4-0.2c-0.6,0-0.8,0.2-0.7,0.8  c0.3,3.1,0.4,6.2,0.4,9.4c0,0.4,0.1,0.7,0.5,0.7C7.4,34.9,9.1,35.2,11.1,35.2z M9.5,84.9c0.3,0.3-0.1,0.7,0.2,1  c0.2,0.3,0.5,0.4,0.8,0.4c0.2-0.1,0.3-0.3,0.3-0.5c0-0.5,0-1,0-1.5c-0.1-2.1-0.3-4.2-0.3-6.3c0-1.8-0.3-3.5-0.2-5.3  c0-0.5-0.2-0.7-0.7-0.7c-0.5,0-1,0-1.5,0.1c-0.7,0.1-1.5,0.2-2.1-0.4c-0.1,0.2-0.2,0.4-0.2,0.5c0.2,3,0.4,6,0.3,9  c0,0.2,0,0.4,0.1,0.5C7,82.4,7,83.4,7.4,84.3c0.8-2.5,0.8-2.5,1.5-2.8c-0.9,2.4-0.9,2.9-0.5,3.9C8.9,85.4,9,84.9,9.5,84.9z   M4.7,52.3c0,1.9,0,3.7,0.3,5.6c0.1,0.7,0.4,0.8,0.9,0.8c0.8,0,1.7,0.1,2.5,0.1c1,0.1,1,0,1.1-1.1c0-2.1-0.1-4.2,0.1-6.3  c0.1-0.8,0.2-1.6,0.3-2.4c0-1-0.1-1.2-1.2-1.1c-1,0.1-2,0.2-3,0c-1-0.1-1-0.1-1,0.9C4.6,50,4.7,51.1,4.7,52.3z M65,84.3  c-0.2-0.6,0-0.9,0-1.2c0-0.3,0.1-0.8-0.3-0.9c-0.3-0.1-0.6,0.1-0.8,0.3c-0.7,0.6-1.4,1.2-2.1,1.8c-0.2,0.2-0.4,0.5-0.7,0.4  c-0.6-0.2-1.1-0.1-1.6,0.2c-0.4,0.2-0.6,0-0.6-0.4c0-0.2,0.1-0.3-0.2-0.5c-0.4,0.3-0.8,0.6-0.9,1.2c0.4,0.1,0.8,0.1,1.1,0.2  c0.8,0.4,1.5,0.4,2.3,0.2c0.3-0.1,0.7-0.1,1.1-0.1c1.1,0,2.2,0.1,3.4-0.3c0.7-0.2,1-0.4,1.3-1C66.2,83.7,65.6,83.6,65,84.3z   M49.5,85.4c-0.6-0.3-1.1,0-1.5-0.1c-0.6-0.1-0.8-0.4-0.4-0.9c0.2-0.3,0.6-0.6,0.8-0.9c0.1-0.2,0.2-0.4,0-0.6  c-0.1-0.1-0.3-0.1-0.5,0c-2.2,0.8-4.2,1.9-6.2,3.1c0.1,0.3,0.4,0.3,0.6,0.3c1.9,0.2,3.8-0.3,5.6-0.3C48.5,86.1,48.9,85.8,49.5,85.4z   M68.1,84.2c0.6,0,0.9-0.3,1.3-0.4c2.3-0.8,2.4-1.2,1.1-3.2c0,0-0.1,0-0.2-0.1c-1,0.7-2,1.6-3,2.6C68.1,83.2,68.4,83.5,68.1,84.2z   M72.4,85.3c0.5,0.4,0.9,0.6,1.3,0.3c0.8-0.5,1.6-0.4,2.4,0c0.3,0.2,0.6,0.2,0.8-0.1c0.3-0.6,0.8-1.2,1-2.1  C75.9,83.7,74.2,84.5,72.4,85.3z M59.1,13.3c-2.3-0.2-9.7-0.1-10.3,0.2C53.1,13.5,56.9,14.3,59.1,13.3z M67,85.6  c0.4,0.1,0.7,0.3,0.9,0.3c1.1,0,2-0.7,3.2-0.7c0.4,0,0.5-0.6,0.3-1c-0.2-0.5-0.5-0.2-0.8-0.1c-0.3,0.1-0.6,0.4-1,0.4  C68.8,84.5,68,85,67,85.6z M31.3,86.2c1.2,0,2.4-0.1,3.7,0.1c0.3,0.1,0.7,0,1-0.2c0.2-0.1,0.2-0.3,0.2-0.4c0-0.1-0.2-0.2-0.3-0.2  c-0.4,0.1-0.8,0.3-1.1-0.1c-0.4-0.7-0.9-0.5-1.5-0.3C32.6,85.4,32,85.8,31.3,86.2z M56.1,85.1c-0.2,0-0.3-0.1-0.4-0.1  c-0.8,0.1-1.7,1-2.5-0.1c0-0.1-0.3,0-0.4,0c-0.7,0.2-1.4,0.4-2.1,0.6c-0.1,0-0.2,0.2-0.2,0.3c0,0.2,0.2,0.3,0.4,0.3  C52.6,85.8,54.4,86.2,56.1,85.1z M3.2,15.6c-0.1,2.5,0.2,4.9,0.5,7.4C3.8,20.5,3.9,18,3.2,15.6z M4.4,57.7c-0.7,2.5,0.2,5,0.1,7.5  C4.5,62.7,4.4,60.2,4.4,57.7z M19.8,86.1c0.6,0.4,1,0.1,1.4,0.1c1.2-0.1,1.3-0.3,1.3-1.6C21.6,85.1,20.8,85.6,19.8,86.1z M3.9,48.7  c-0.2-1.2,0.4-2.6-0.3-3.7C3.1,46.3,3.6,47.5,3.9,48.7z M4,28.3c0.1,2,0.2,4,0.4,6C4.7,32.3,4.4,30.3,4,28.3z M11.9,86.4  c1,0.3,1.9-0.2,2.8,0.1c0.2,0.1,0.6-0.1,0.6-0.4c0-0.5-0.4-0.3-0.7-0.2c-0.5,0.1-1,0.4-1.5,0C12.4,85.4,12.2,85.9,11.9,86.4z   M25.4,85.8c2,0,2,0,2.6-1.6C27.2,84.7,26.5,85.2,25.4,85.8z M9.6,59.8c0-0.1,0-0.2,0-0.3c-1.4,0-2.8-0.1-4.1-0.1  C6.8,60,8.2,59.9,9.6,59.8z M10.4,58.7c0.2-0.9,0.2-1.9,0-3.1C9.6,56.8,10.4,57.8,10.4,58.7z M28.4,86c1.1,0.1,1.1,0.1,1.6-1  C29.4,85.2,29,85.5,28.4,86z M7.1,86.6C7,86,7,85.5,6.6,84.9C6.2,85.7,6.5,86.2,7.1,86.6z M92.5,85.1c0-0.3-0.2-0.5-0.4-0.5  c-0.3,0-0.5,0.3-0.6,0.6c-0.1,0.2,0.1,0.3,0.3,0.3C92.1,85.4,92.4,85.5,92.5,85.1z M16.9,12.4c0.4,0.3,0.8,0.2,1.2,0.1  c0.4,0,0.7-0.1,1.1-0.1C18.4,12.4,17.6,12,16.9,12.4z M73.2,83.5c-0.3,0-0.8-0.2-1,0.2c0,0.1,0,0.3,0.1,0.3  C72.7,84.2,72.9,83.9,73.2,83.5z M4.7,68.4c0.2-1.2,0.2-1.2-0.2-1.9C4.6,67.3,4.7,67.9,4.7,68.4z M60.8,22.9c0.1-0.8,0-1.4-0.1-1.9  C60.6,21.6,60.4,22.2,60.8,22.9z M34.7,81.2c-0.2,0.6,0,0.9,0.4,1.2C35.2,81.9,35.1,81.6,34.7,81.2z M16.1,85.5  c-0.2,0-0.2,0.1-0.3,0.2c0,0.2,0,0.5,0.2,0.6c0.2,0.1,0.3,0,0.3-0.2C16.4,85.8,16.4,85.6,16.1,85.5z M58.8,14.1c0.6,0.1,1,0.1,1.4,0  C59.7,13.9,59.3,13.9,58.8,14.1z M45.8,13.3c0.4,0,0.6-0.1,0.8-0.1C46.4,13.2,46.2,13.1,45.8,13.3z M31.1,85.3  c-0.1-0.1-0.1-0.2-0.2-0.2c-0.2,0-0.3,0.2-0.4,0.4c0,0,0.1,0.1,0.2,0.1C30.9,85.7,31.1,85.5,31.1,85.3z"></path><path d="M97.5,85.3c-0.8,0.5-1.2,0.8-2.1,0.7C96,85.4,96.5,85.1,97.5,85.3z"></path><path d="M20.4,84.6c-0.1-0.9,0.2-1.4,0.8-1.8c0.1-0.1,0.4-0.1,0.5,0.1c0,0.1,0,0.3,0,0.4C21.1,83.6,21,84.3,20.4,84.6z"></path></svg>
