<svg fill="#c8e0d5" xmlns="http://www.w3.org/2000/svg" xmlns:xlink="http://www.w3.org/1999/xlink" version="1.1" x="0px" y="0px" viewBox="0 0 226.8 226.8" style="enable-background:new 0 0 226.8 226.8;" xml:space="preserve"><g><path d="M159.2,41.7l-2-0.3c-0.5-0.1-1-0.1-1.6-0.2h4.6c3,0,5.4-2.4,5.4-5.4v0c0-3-2.4-5.4-5.4-5.4h-13.4c1.5-0.5,2.5-1.9,2.5-3.5   v0c0-2.1-1.7-3.8-3.8-3.8h-7c0.1-0.3,0.2-0.6,0.2-1v0c0-1.5-1.2-2.7-2.7-2.7H88.7c-1.5,0-2.7,1.2-2.7,2.7v0c0,0.3,0.1,0.7,0.2,1h-7   c-2.1,0-3.8,1.7-3.8,3.8v0c0,1.6,1.1,3,2.5,3.5H65.5c-3,0-5.4,2.4-5.4,5.4v0c0,3,2.4,5.4,5.4,5.4h7.7c-10.1,0.7-21.1,4.5-16.9,9.9   c3.6,2.8,6.4-1,6.4-1s0,2.2,2.8,2.2c2.6,0,3-2.3,3-2.6c0,0.3-0.2,2.4,2.7,2.6c3.1,0.2,2.9-3.1,2.9-3.1s0-0.2,0-0.6   c15.3,5,12.6,28.2,12.6,28.2l13.3,0c0,0,8.4-15.4-2.6-28.9c-3.1-3.8-9-5.4-14.8-6c0,0,0,0,0,0c-0.9-0.2-2-0.3-3-0.4h12   c0.7,1.3,2.4,2.8,5.4,4.3c13.9,7,5.1,31.1,5.1,31.1l21,0c0,0-8.6-23.9,5.3-30.9c3.1-1.5,4.8-3.1,5.5-4.4h11.1   c-6.4,0.5-13.1,2.1-16.6,6.3c-11.6,13.4-2.6,29-2.6,29h13.7c0,0-3.1-24,13-28.4c0.2,0.5,0.3,0.8,0.3,0.8s-0.1,3.3,2.9,3.2   c2.8-0.2,2.7-2.3,2.7-2.6c0,0.3,0.4,2.6,3,2.6c2.8,0,2.8-2.2,2.8-2.2s2.8,3.8,6.4,1.1C173.9,46.6,167.6,43.2,159.2,41.7z    M67.3,43.2c-0.3,0.2-0.6,0.3-1,0.5c-0.3,0.2-0.6,0.4-0.9,0.6c-0.3,0.2-0.5,0.4-0.8,0.7c-0.2,0.2-0.4,0.5-0.6,0.7   c-0.2,0.2-0.3,0.5-0.5,0.7c-0.1,0.2-0.2,0.5-0.3,0.7c-0.2,0.4-0.3,0.8-0.4,1c-0.1,0.3-0.1,0.4-0.1,0.4s-0.1-0.1-0.1-0.4   c0-0.3-0.1-0.6,0-1.1c0.1-0.5,0.2-1,0.6-1.5c0.2-0.3,0.3-0.6,0.6-0.8c0.2-0.3,0.5-0.5,0.8-0.8c0.3-0.3,0.7-0.4,1-0.7   c0.4-0.2,0.8-0.4,1.1-0.5c0.4-0.1,0.8-0.3,1.1-0.4c0.4-0.1,0.7-0.2,1.1-0.2c0.3-0.1,0.6-0.1,0.9-0.2c0.3,0,0.5-0.1,0.7-0.1   c0.4,0,0.6-0.1,0.6-0.1s-0.2,0.1-0.6,0.2c-0.2,0-0.4,0.1-0.7,0.2c-0.3,0.1-0.5,0.2-0.8,0.3c-0.3,0.1-0.6,0.2-0.9,0.3   C68,43,67.6,43.1,67.3,43.2z M72.7,43.3l-0.5,0.3c-0.2,0.1-0.3,0.2-0.5,0.3c-0.4,0.2-0.6,0.5-0.9,0.7c-0.3,0.3-0.5,0.5-0.7,0.8   c-0.2,0.3-0.4,0.5-0.6,0.8c-0.2,0.3-0.3,0.5-0.4,0.7c-0.2,0.5-0.4,0.9-0.5,1.1c-0.1,0.3-0.2,0.4-0.2,0.4s-0.1-0.7,0.2-1.7   c0.1-0.5,0.4-1.1,0.8-1.7c0.2-0.3,0.4-0.6,0.7-0.9c0.3-0.3,0.6-0.6,1-0.8c0.2-0.1,0.4-0.3,0.6-0.4l0.6-0.3c0.4-0.2,0.9-0.4,1.3-0.5   c0.4-0.2,0.9-0.2,1.3-0.3c0.4-0.1,0.8-0.1,1.2-0.2c0.4,0,0.7-0.1,1-0.1c0.3,0,0.6,0,0.8,0c0.4,0,0.7,0,0.7,0s-0.2,0-0.7,0.1   c-0.2,0-0.5,0.1-0.8,0.1c-0.3,0-0.6,0.1-1,0.2c-0.3,0.1-0.7,0.1-1.1,0.3c-0.4,0.1-0.8,0.2-1.2,0.4C73.5,43,73.1,43.1,72.7,43.3z    M80.5,42.5c0.6-0.1,1.1,0,1.5-0.1c0.4,0,0.6,0,0.6,0s-0.2,0-0.5,0.1c-0.3,0.1-0.8,0.1-1.4,0.3c-0.3,0.1-0.6,0.1-0.9,0.2   c-0.3,0.1-0.6,0.2-0.9,0.3c-0.3,0.1-0.6,0.3-1,0.4c-0.3,0.1-0.6,0.3-0.9,0.4c-0.3,0.2-0.6,0.3-0.8,0.5c-0.1,0.1-0.2,0.2-0.4,0.3   c-0.1,0.1-0.2,0.2-0.3,0.3c-0.2,0.2-0.4,0.4-0.6,0.6c-0.1,0.2-0.3,0.4-0.4,0.6c-0.5,0.7-0.6,1.2-0.6,1.2S73.7,47,74,46.2   c0.1-0.2,0.2-0.4,0.3-0.6c0.1-0.2,0.3-0.5,0.5-0.7c0.2-0.2,0.4-0.5,0.7-0.7c0.2-0.2,0.6-0.4,0.9-0.6c0.3-0.2,0.7-0.3,1-0.5   c0.4-0.1,0.7-0.3,1.1-0.4c0.4-0.1,0.7-0.2,1.1-0.2C79.9,42.5,80.2,42.5,80.5,42.5z M128,43.9c-0.1,0.2-0.3,0.4-0.4,0.6   c-0.2,0.2-0.4,0.3-0.6,0.5c-0.2,0.2-0.5,0.3-0.8,0.4c-0.3,0.1-0.6,0.2-0.9,0.3c-0.2,0-0.3,0.1-0.5,0.1l-0.5,0.1c-0.4,0-0.6,0-1,0   c-0.4,0-0.7,0-1-0.1c-0.3,0-0.7-0.1-1-0.1c-0.3-0.1-0.6-0.1-0.9-0.2c-0.3-0.1-0.6-0.2-0.9-0.3c-0.3-0.1-0.5-0.3-0.8-0.5   c0,0-0.1-0.1-0.1-0.1c-0.1,0.2-0.3,0.3-0.5,0.4c-0.3,0.2-0.7,0.4-1,0.5c-0.4,0.1-0.7,0.2-1.1,0.3c-0.4,0.1-0.7,0.1-1.1,0.2   l-0.6,0.1l-0.5,0l-0.5,0c-0.2,0-0.4,0-0.6,0c-0.4,0-0.7,0-1.1,0c-0.4,0-0.7,0-1.1-0.1c-0.4-0.1-0.8-0.1-1.1-0.2   c-0.4-0.1-0.7-0.2-1.1-0.3c-0.3-0.1-0.7-0.3-1-0.5c-0.1-0.1-0.3-0.2-0.4-0.3c-0.1,0.1-0.2,0.2-0.3,0.2c-0.1,0.1-0.3,0.2-0.4,0.2   l-0.4,0.2c-0.2,0.1-0.3,0.1-0.5,0.1c-0.3,0.1-0.6,0.1-1,0.2c-0.3,0-0.6,0.1-1,0.1l-0.9,0l0.1,0l-1.1,0c-0.4,0-0.7,0-1.1-0.1   c-0.4-0.1-0.7-0.1-1.1-0.2l-0.5-0.1l-0.5-0.2c-0.2-0.1-0.3-0.1-0.5-0.2c-0.2-0.1-0.3-0.2-0.4-0.3c-0.1-0.1-0.2-0.2-0.3-0.3   c-0.1-0.1-0.2-0.2-0.3-0.3c-0.2-0.2-0.3-0.4-0.3-0.7c-0.1-0.2-0.1-0.5,0-0.7c0,0.2,0.1,0.5,0.2,0.7c0.1,0.2,0.3,0.4,0.4,0.6   c0.1,0.1,0.2,0.2,0.3,0.3c0.1,0.1,0.2,0.2,0.4,0.2c0.1,0.1,0.2,0.1,0.4,0.2c0.1,0.1,0.3,0.1,0.4,0.2l0.5,0.1l0.5,0.1   c0.3,0.1,0.7,0.1,1,0.1c0.3,0,0.7,0,1,0l1-0.1l0.1,0l0.8,0c0.3,0,0.5-0.1,0.8-0.1c0.2-0.1,0.5-0.1,0.7-0.2c0.1,0,0.2-0.1,0.3-0.1   l0.3-0.1c0.1,0,0.2-0.1,0.2-0.2c0.1-0.1,0.1-0.1,0.2-0.2c0.1-0.1,0.1-0.1,0.1-0.2c0-0.1,0.1-0.1,0.1-0.2c0-0.1,0-0.1,0.1-0.2   c0,0,0,0,0,0c-0.1-0.3,0.5-2.1,0.5-2.1s1,1.8,1,1.9c0,0,0,0,0,0c0.1,0.2,0.2,0.3,0.3,0.5c0.1,0.1,0.1,0.2,0.2,0.2   c0.1,0.1,0.2,0.1,0.3,0.2c0.2,0.1,0.4,0.2,0.7,0.3c0.3,0.1,0.5,0.2,0.8,0.2c0.3,0.1,0.6,0.1,0.9,0.1c0.3,0,0.6,0,0.9,0.1   c0.3,0,0.7,0,1,0c0.2,0,0.4,0,0.5,0l0.5,0l0.5,0c0.2,0,0.3,0,0.5,0c0.3,0,0.6-0.1,0.9-0.1c0.3,0,0.6-0.1,0.8-0.2   c0.2-0.1,0.5-0.2,0.7-0.3c0.2-0.1,0.3-0.2,0.4-0.4c0.1-0.1,0.1-0.3,0.1-0.5c0,0,0-0.1,0-0.1c-0.1-0.2,0-1.6,0-1.6s1.4,1.3,1.5,1.6   c0.1,0.1,0.2,0.3,0.3,0.4c0.1,0.2,0.3,0.3,0.4,0.4c0.2,0.1,0.4,0.3,0.6,0.4c0.2,0.1,0.4,0.2,0.7,0.3c0.2,0.1,0.5,0.2,0.7,0.2   c0.3,0.1,0.5,0.1,0.8,0.2c0.3,0,0.6,0.1,0.8,0.1c0.3,0,0.6,0,0.9,0c0.3,0,0.5,0,0.8-0.1c0.3,0,0.5-0.1,0.8-0.2   c0.2-0.1,0.5-0.2,0.7-0.3c0.2-0.1,0.4-0.2,0.6-0.4c0.2-0.1,0.4-0.3,0.5-0.5c0.3-0.3,0.6-0.7,0.7-1.1   C128.4,43.2,128.2,43.6,128,43.9z M151.9,47.6c0,0-0.2-0.5-0.6-1.2c-0.1-0.2-0.3-0.4-0.4-0.6c-0.2-0.2-0.3-0.4-0.6-0.6   c-0.1-0.1-0.2-0.2-0.3-0.3c-0.1-0.1-0.3-0.2-0.4-0.3c-0.2-0.2-0.5-0.3-0.8-0.5c-0.3-0.2-0.6-0.3-0.9-0.4c-0.3-0.1-0.6-0.3-1-0.4   c-0.3-0.1-0.7-0.2-1-0.3c-0.3-0.1-0.6-0.1-0.9-0.2c-0.6-0.2-1.1-0.2-1.4-0.3c-0.3-0.1-0.5-0.1-0.5-0.1s0.2,0,0.6,0   c0.4,0,0.9,0,1.5,0.1c0.3,0,0.6,0.1,1,0.1c0.3,0.1,0.7,0.1,1.1,0.2c0.4,0.1,0.7,0.2,1.1,0.3c0.4,0.1,0.7,0.3,1,0.5   c0.3,0.2,0.6,0.4,0.9,0.6c0.3,0.2,0.5,0.4,0.7,0.7c0.2,0.2,0.4,0.5,0.5,0.7c0.1,0.2,0.2,0.4,0.3,0.6   C152.1,47.1,151.9,47.6,151.9,47.6z M157.5,48.6c0,0-0.1-0.2-0.2-0.4c-0.1-0.3-0.3-0.7-0.5-1.1c-0.1-0.2-0.3-0.5-0.5-0.7   c-0.2-0.3-0.4-0.5-0.6-0.8c-0.2-0.3-0.5-0.5-0.8-0.8c-0.3-0.2-0.6-0.5-0.9-0.7c-0.2-0.1-0.3-0.2-0.5-0.3l-0.6-0.3   c-0.4-0.2-0.8-0.3-1.2-0.5c-0.4-0.2-0.8-0.3-1.2-0.4c-0.4-0.1-0.8-0.2-1.1-0.3c-0.4-0.1-0.7-0.2-1-0.2c-0.3,0-0.6-0.1-0.8-0.1   c-0.4-0.1-0.7-0.1-0.7-0.1s0.3,0,0.7,0c0.2,0,0.5,0,0.8,0c0.3,0,0.7,0,1.1,0.1c0.4,0,0.8,0.1,1.2,0.2c0.4,0.1,0.9,0.2,1.3,0.3   c0.4,0.2,0.9,0.3,1.3,0.5l0.6,0.3c0.2,0.1,0.4,0.2,0.6,0.4c0.4,0.2,0.7,0.5,1,0.8c0.3,0.3,0.5,0.6,0.7,0.9c0.4,0.6,0.7,1.2,0.8,1.7   C157.7,47.9,157.5,48.6,157.5,48.6z M163.2,48.2c0,0.3-0.1,0.4-0.1,0.4s0-0.2-0.1-0.4c-0.1-0.3-0.2-0.6-0.4-1   c-0.1-0.2-0.2-0.4-0.3-0.7c-0.1-0.2-0.3-0.5-0.5-0.7c-0.2-0.2-0.4-0.5-0.6-0.7c-0.2-0.2-0.5-0.5-0.8-0.7c-0.3-0.2-0.6-0.4-0.9-0.6   c-0.3-0.2-0.7-0.4-1-0.5c-0.3-0.1-0.7-0.3-1-0.4c-0.3-0.1-0.7-0.2-1-0.3c-0.3-0.1-0.6-0.2-0.8-0.3c-0.3-0.1-0.5-0.1-0.7-0.2   c-0.4-0.1-0.6-0.2-0.6-0.2s0.2,0,0.6,0c0.2,0,0.4,0,0.7,0.1c0.3,0,0.6,0.1,0.9,0.1c0.3,0.1,0.7,0.1,1.1,0.2   c0.4,0.1,0.8,0.2,1.1,0.4c0.4,0.2,0.8,0.3,1.1,0.5c0.3,0.2,0.7,0.4,1,0.7c0.3,0.2,0.6,0.5,0.8,0.8c0.3,0.3,0.4,0.5,0.6,0.8   c0.3,0.5,0.5,1.1,0.6,1.5C163.2,47.5,163.2,47.9,163.2,48.2z"></path><path d="M146.3,190.5c0-1.8-1.5-3.3-3.3-3.3h-3v-109H86.7v109h-2.7c-1.8,0-3.3,1.5-3.3,3.3c0,1.8,1.5,3.3,3.3,3.3h8.3   c-0.9,0.3-1.6,1.2-1.6,2.2c0,1.3,1.1,2.3,2.3,2.3h4.3c-0.1,0.2-0.1,0.4-0.1,0.6c0,0.5,0.2,0.9,0.5,1.2c-11.3,1.3-19.2,4-19.3,7.2   h67.6c-0.2-2.9-6.9-5.5-16.8-6.8c0.6-0.3,0.9-0.8,0.9-1.5c0-0.2,0-0.4-0.1-0.6h4.3c1.3,0,2.3-1.1,2.3-2.3c0-1-0.7-1.9-1.6-2.2h7.7   C144.8,193.8,146.3,192.3,146.3,190.5z M97,187.5h-1v-106h1V187.5z M108.1,187.5h-1V81.2h1V187.5z M119.5,187.5h-1V81.2h1V187.5z    M130.9,187.5h-1V81.2h1V187.5z"></path></g></svg>
