<svg fill="#164F86" xmlns="http://www.w3.org/2000/svg" data-name="Layer 2" viewBox="0 0 100 100" x="0px" y="0px"><title>GANE_ICON_100</title><path d="M49.54,95.12a1.5,1.5,0,0,1-1.32-.78L36.15,72.26,15,86.6a1.5,1.5,0,0,1-2.08-2.08L27.27,63.39,5.2,51.32a1.5,1.5,0,0,1,0-2.63L27.27,36.61,12.94,15.48A1.5,1.5,0,0,1,15,13.4L36.15,27.74,48.22,5.66a1.5,1.5,0,0,1,2.63,0L62.92,27.74,84.05,13.4a1.5,1.5,0,0,1,2.08,2.08L71.8,36.61,93.87,48.68a1.5,1.5,0,0,1,0,2.63L71.8,63.39,86.13,84.52a1.5,1.5,0,0,1-2.08,2.08L62.92,72.26,50.85,94.34A1.5,1.5,0,0,1,49.54,95.12ZM36.67,68.6a1.5,1.5,0,0,1,1.32.78L49.54,90.49,61.08,69.38a1.5,1.5,0,0,1,2.16-.52l16,10.87-10.86-16a1.5,1.5,0,0,1,.52-2.16L90,50,68.91,38.45a1.5,1.5,0,0,1-.52-2.16l10.86-16-16,10.87a1.5,1.5,0,0,1-2.16-.52L49.54,9.51,38,30.62a1.5,1.5,0,0,1-2.16.52l-16-10.87,10.87,16a1.5,1.5,0,0,1-.52,2.16L9,50,30.16,61.55a1.5,1.5,0,0,1,.52,2.16l-10.87,16,16-10.87A1.5,1.5,0,0,1,36.67,68.6Z"></path><path d="M49.54,78.44a1.5,1.5,0,0,1-1.32-.78l-9.32-17-17-9.32a1.5,1.5,0,0,1,0-2.63l17-9.32,9.32-17a1.5,1.5,0,0,1,2.63,0l9.32,17,17,9.32a1.5,1.5,0,0,1,0,2.63l-17,9.32-9.32,17A1.5,1.5,0,0,1,49.54,78.44ZM25.72,50l15,8.21a1.5,1.5,0,0,1,.6.6l8.21,15,8.21-15a1.5,1.5,0,0,1,.6-.6l15-8.21-15-8.21a1.5,1.5,0,0,1-.6-.6l-8.21-15-8.21,15a1.5,1.5,0,0,1-.6.6Z"></path></svg>