<svg fill="#cc99ff" xmlns="http://www.w3.org/2000/svg" xmlns:xlink="http://www.w3.org/1999/xlink" version="1.1" x="0px" y="0px" viewBox="0 0 512 512" enable-background="new 0 0 512 512" xml:space="preserve"><g><path d="M298.672,352c-5.891,0-10.672,4.781-10.672,10.656c0,5.906,4.781,10.688,10.672,10.688s10.656-4.781,10.656-10.688   C309.328,356.781,304.562,352,298.672,352z"></path><path d="M64.001,224c5.891,0,10.672-4.773,10.672-10.664c0-5.89-4.781-10.671-10.672-10.671s-10.672,4.781-10.672,10.671   C53.329,219.227,58.11,224,64.001,224z"></path><path d="M490.67,181.336c-5.891,0-10.672,4.773-10.672,10.664s4.781,10.664,10.672,10.664s10.656-4.773,10.656-10.664   S496.561,181.336,490.67,181.336z"></path><path d="M85.329,74.665c5.891,0,10.672-4.773,10.672-10.664S91.22,53.337,85.329,53.337S74.673,58.11,74.673,64.001   S79.438,74.665,85.329,74.665z"></path><path d="M256,53.337c5.891,0,10.672-4.781,10.672-10.671c0-5.891-4.781-10.664-10.672-10.664s-10.672,4.773-10.672,10.664   C245.328,48.556,250.109,53.337,256,53.337z"></path><path d="M362.672,458.67c-5.891,0-10.672,4.766-10.672,10.656s4.781,10.672,10.672,10.672s10.656-4.781,10.656-10.672   S368.562,458.67,362.672,458.67z"></path><path d="M447.999,320v-10.656c0-5.906-4.781-10.688-10.672-10.688s-10.656,4.781-10.656,10.688V320   c-5.891,0-10.672,4.781-10.672,10.656c0,5.906,4.781,10.688,10.672,10.688V352c0,5.891,4.766,10.656,10.656,10.656   s10.672-4.766,10.672-10.656v-10.656c5.891,0,10.672-4.781,10.672-10.688C458.671,324.781,453.89,320,447.999,320z"></path><path d="M170.673,170.665v10.672c0,5.891,4.766,10.664,10.656,10.664s10.672-4.773,10.672-10.664v-10.672   c5.891,0,10.672-4.773,10.672-10.664s-4.781-10.664-10.672-10.664v-10.672c0-5.891-4.781-10.664-10.672-10.664   s-10.656,4.773-10.656,10.664v10.672c-5.891,0-10.672,4.773-10.672,10.664S164.782,170.665,170.673,170.665z"></path><path d="M501.326,21.337V10.666c0-5.891-4.766-10.664-10.656-10.664s-10.672,4.773-10.672,10.664v10.672   c-5.891,0-10.671,4.773-10.671,10.664s4.78,10.664,10.671,10.664v10.671c0,5.891,4.781,10.664,10.672,10.664   s10.656-4.773,10.656-10.664V42.666c5.891,0,10.672-4.773,10.672-10.664S507.217,21.337,501.326,21.337z"></path><path d="M426.562,97.509c0.469-3.32-0.641-6.68-3.016-9.047c-2.375-2.375-5.734-3.5-9.062-3.023l-52.796,7.547   c-2.281,0.328-4.391,1.383-6.031,3.016L116.532,335.125L93.907,312.5c-2.422-2.422-5.875-3.531-9.25-2.984   c-3.391,0.547-6.297,2.703-7.844,5.766l-15.078,30.156c-2.047,4.125-1.25,9.078,2,12.312l26.391,26.404l-53.187,53.188   c-9.812,0.094-19.047,3.969-26,10.922c-7.047,7.047-10.938,16.422-10.938,26.406c0,9.969,3.891,19.344,10.938,26.391   s16.422,10.938,26.391,10.938c9.983,0,19.358-3.891,26.405-10.938c7.172-7.172,10.797-16.562,10.906-25.984l53.203-53.203   l26.391,26.391c2.062,2.047,4.781,3.125,7.547,3.125c1.625,0,3.25-0.359,4.766-1.125l30.172-15.078   c3.078-1.547,5.219-4.453,5.766-7.844c0.547-3.375-0.562-6.828-2.984-9.25l-22.625-22.625l239.123-239.13   c1.625-1.625,2.688-3.742,3.016-6.031L426.562,97.509z M48.642,485.982c-3.016,3.016-7.03,4.688-11.312,4.688   c-4.266,0-8.281-1.672-11.312-4.688c-3.016-3.031-4.688-7.047-4.688-11.312c0-4.281,1.672-8.297,4.688-11.312   c3.031-3.031,7.047-4.688,11.312-4.688c4.281,0,8.296,1.656,11.312,4.688C54.892,469.592,54.892,479.732,48.642,485.982z    M67.235,452.311c-1.062-1.406-2.219-2.766-3.5-4.047c-1.281-1.266-2.625-2.438-4.047-3.5l15.359-15.359l7.547,7.547   L67.235,452.311z M97.673,421.873l-7.547-7.547l15.094-15.094l7.531,7.547L97.673,421.873z M163.892,427.748l-28.5-28.5   c0,0,0,0,0-0.016l-22.641-22.623l0,0l-28.5-28.5l5.031-10.047l84.672,84.654L163.892,427.748z M398.405,143.766L161.782,380.391   l-7.547-7.547l178.796-178.789c4.172-4.172,4.172-10.922,0-15.086s-10.922-4.164-15.078,0L139.157,357.75l-7.547-7.531   l236.624-236.616l35.187-5.031L398.405,143.766z"></path></g></svg>