<svg fill="#44aa11" xmlns="http://www.w3.org/2000/svg" xmlns:xlink="http://www.w3.org/1999/xlink" version="1.1" x="0px" y="0px" viewBox="15 15 70 70" style="enable-background:new 0 0 100 100;" xml:space="preserve"><path d="M50.5,38.4c-7.2,0-13,5.8-13,13s5.8,13,13,13c7.2,0,13-5.8,13-13S57.7,38.4,50.5,38.4z M50.5,62.6c-6.2,0-11.3-5-11.3-11.3  s5-11.3,11.3-11.3c6.2,0,11.3,5,11.3,11.3S56.7,62.6,50.5,62.6z M50.5,42.8c-4.7,0-8.5,3.8-8.5,8.5s3.8,8.5,8.5,8.5s8.5-3.8,8.5-8.5  S55.2,42.8,50.5,42.8z M50.5,58.1c-3.7,0-6.8-3-6.8-6.8c0-3.7,3-6.8,6.8-6.8s6.8,3,6.8,6.8C57.3,55.1,54.3,58.1,50.5,58.1z   M54.4,51.4c0,2.2-1.7,3.9-3.9,3.9s-3.9-1.7-3.9-3.9s1.7-3.9,3.9-3.9S54.4,49.2,54.4,51.4z M97,51.4l-16.4-1.1  c-1.1-1.6-2.2-3.1-3.5-4.5l6.1-7.3L76,44.6c-2.3-2.3-4.9-4.3-7.8-5.9l4-8.5l-5.4,7.8c-2.8-1.4-5.8-2.5-8.9-3.1l1.4-9.3l-3,9  c-1.9-0.3-3.9-0.5-5.9-0.5c-2,0-4,0.2-5.9,0.5l-3-9l1.4,9.3c-3.1,0.6-6.1,1.7-8.9,3.1l-5.4-7.8l4,8.5c-2.8,1.6-5.4,3.6-7.8,5.9  l-7.2-6.1l6.2,7.3c-1.3,1.4-2.4,2.9-3.5,4.5L4.1,51.4l16.4,1.1c6.7,10.2,17.9,16.2,30.1,16.2c12.2,0,23.4-6,30.1-16.2L97,51.4z   M50.5,67c-11.7,0-22.4-5.8-28.8-15.6c6.4-9.8,17.1-15.6,28.8-15.6c11.7,0,22.4,5.8,28.8,15.6C72.9,61.1,62.2,67,50.5,67z"></path></svg>