<svg xmlns="http://www.w3.org/2000/svg" xmlns:xlink="http://www.w3.org/1999/xlink" version="1.1" x="0px" y="0px" viewBox="0 0 100 100" style="enable-background:new 0 0 100 100;" xml:space="preserve"><g><path d="M75,52.3c0.5-1.2,0.3-2.5-0.6-3.4L66,40.8L70.6,30c0.5-1.2,0.2-2.5-0.7-3.4c-0.9-0.9-2.3-1-3.5-0.4l-10.2,5.5L47.6,24   c-1-0.9-2.3-1-3.5-0.4c-1.1,0.6-1.7,1.9-1.5,3.1l2.1,11.6l-10,6c-1.1,0.7-1.6,1.9-1.4,3.2c0.3,1.2,1.3,2.2,2.5,2.4l7.7,1l-31,31   c-1.2,1.2-1.2,3.1,0,4.2c0.6,0.6,1.4,0.9,2.1,0.9s1.5-0.3,2.1-0.9l31.3-31.3l1.8,8c0.3,1.3,1.3,2.2,2.6,2.3c0.1,0,0.2,0,0.3,0   c1.1,0,2.2-0.7,2.7-1.7l5-10.6L72,54.1C73.3,54.2,74.5,53.5,75,52.3z"></path><path d="M62.5,57.6c-1.4,0.9-1.8,2.8-0.8,4.2l4.5,6.8c0.6,0.9,1.5,1.3,2.5,1.3c0.6,0,1.1-0.2,1.7-0.5c1.4-0.9,1.8-2.8,0.8-4.2   l-4.5-6.8C65.8,57,63.9,56.7,62.5,57.6z"></path><path d="M52,15.9v8c0,1.7,1.3,3,3,3s3-1.3,3-3v-8c0-1.7-1.3-3-3-3S52,14.2,52,15.9z"></path><path d="M86.1,38.7c1.6-0.4,2.6-2,2.2-3.7c-0.4-1.6-2-2.6-3.7-2.2L74,35.7c-1.6,0.4-2.6,2-2.2,3.7c0.3,1.4,1.6,2.3,2.9,2.3   c0.2,0,0.5,0,0.7-0.1L86.1,38.7z"></path><path d="M28.1,30.6c-1.6-0.3-3.2,0.8-3.5,2.5c-0.3,1.6,0.8,3.2,2.5,3.5l7.9,1.3c0.2,0,0.3,0,0.5,0c1.4,0,2.7-1,3-2.5   c0.3-1.6-0.8-3.2-2.5-3.5L28.1,30.6z"></path></g></svg>